<svg xmlns="http://www.w3.org/2000/svg" width="300" height="300" viewBox="0 0 300 300">
<path d="M 86.42 104.57 L 85.08 104.19 C 84.25 103.96 83.38 104.44 83.15 105.27 C 82.91 106.10 83.40 106.96 84.23 107.20 L 85.57 107.58 C 86.40 107.81 87.26 107.33 87.50 106.50 C 87.73 105.67 87.25 104.81 86.42 104.57 Z M 85.19 104.23 L 84.25 103.88 C 83.45 103.58 82.55 104.00 82.25 104.80 C 81.95 105.61 82.36 106.51 83.17 106.81 L 84.11 107.16 C 84.92 107.46 85.81 107.05 86.11 106.24 C 86.41 105.43 86.00 104.53 85.19 104.23 Z M 85.13 104.69 L 84.99 104.40 C 84.63 103.62 83.70 103.28 82.92 103.65 C 82.14 104.01 81.80 104.94 82.16 105.72 L 82.30 106.01 C 82.66 106.79 83.59 107.13 84.37 106.76 C 85.15 106.40 85.49 105.47 85.13 104.69 Z M 83.99 106.57 L 84.51 106.43 C 85.34 106.20 85.84 105.34 85.61 104.51 C 85.38 103.68 84.53 103.19 83.70 103.41 L 83.17 103.55 C 82.34 103.78 81.85 104.64 82.07 105.47 C 82.30 106.30 83.15 106.79 83.99 106.57 Z M 84.28 106.47 L 85.16 106.37 C 86.01 106.27 86.63 105.49 86.53 104.64 C 86.43 103.78 85.65 103.17 84.80 103.27 L 83.92 103.37 C 83.07 103.47 82.45 104.24 82.55 105.10 C 82.65 105.96 83.43 106.57 84.28 106.47 Z M 85.09 106.37 L 86.20 106.30 C 87.06 106.23 87.70 105.49 87.64 104.63 C 87.58 103.77 86.84 103.12 85.98 103.18 L 84.87 103.26 C 84.01 103.32 83.36 104.07 83.42 104.93 C 83.48 105.79 84.23 106.44 85.09 106.37 Z M 86.17 106.30 L 87.38 106.23 C 88.24 106.19 88.90 105.46 88.86 104.59 C 88.81 103.73 88.08 103.07 87.22 103.12 L 86.01 103.18 C 85.14 103.22 84.48 103.96 84.53 104.82 C 84.57 105.68 85.31 106.34 86.17 106.30 Z M 87.37 106.23 L 88.55 106.18 C 89.41 106.14 90.07 105.41 90.03 104.55 C 89.99 103.69 89.26 103.02 88.40 103.06 L 87.22 103.12 C 86.36 103.16 85.70 103.89 85.74 104.75 C 85.78 105.61 86.51 106.27 87.37 106.23 Z M 88.56 106.18 L 89.79 106.11 C 90.65 106.07 91.31 105.33 91.27 104.47 C 91.22 103.61 90.49 102.95 89.63 103.00 L 88.39 103.06 C 87.53 103.11 86.87 103.84 86.92 104.70 C 86.96 105.56 87.70 106.22 88.56 106.18 Z M 89.81 106.11 L 90.86 106.04 C 91.72 105.99 92.37 105.24 92.32 104.38 C 92.26 103.52 91.52 102.87 90.65 102.93 L 89.60 103.00 C 88.74 103.06 88.09 103.80 88.15 104.66 C 88.21 105.52 88.95 106.17 89.81 106.11 Z M 90.89 106.04 L 91.80 105.96 C 92.66 105.89 93.30 105.14 93.22 104.28 C 93.15 103.42 92.39 102.78 91.54 102.85 L 90.63 102.93 C 89.77 103.00 89.13 103.76 89.20 104.62 C 89.28 105.48 90.03 106.11 90.89 106.04 Z M 91.83 105.96 L 92.67 105.87 C 93.52 105.78 94.14 105.01 94.05 104.16 C 93.96 103.30 93.19 102.68 92.34 102.77 L 91.50 102.86 C 90.64 102.95 90.02 103.72 90.11 104.57 C 90.21 105.43 90.97 106.05 91.83 105.96 Z M 92.70 105.87 L 93.65 105.75 C 94.51 105.64 95.11 104.86 95.00 104.00 C 94.89 103.15 94.11 102.54 93.25 102.65 L 92.30 102.77 C 91.45 102.88 90.84 103.66 90.95 104.52 C 91.06 105.37 91.84 105.98 92.70 105.87 Z M 93.68 105.74 L 94.66 105.60 C 95.52 105.47 96.11 104.68 95.98 103.83 C 95.85 102.97 95.06 102.38 94.21 102.51 L 93.23 102.65 C 92.37 102.78 91.78 103.57 91.91 104.43 C 92.03 105.28 92.83 105.87 93.68 105.74 Z M 94.69 105.59 L 95.68 105.43 C 96.53 105.29 97.11 104.49 96.97 103.64 C 96.83 102.79 96.03 102.21 95.18 102.35 L 94.18 102.51 C 93.33 102.65 92.76 103.45 92.89 104.30 C 93.03 105.16 93.83 105.73 94.69 105.59 Z M 95.70 105.43 L 96.68 105.26 C 97.53 105.11 98.10 104.31 97.95 103.46 C 97.80 102.61 97.00 102.04 96.15 102.18 L 95.16 102.35 C 94.31 102.50 93.74 103.31 93.89 104.16 C 94.04 105.01 94.85 105.58 95.70 105.43 Z M 96.69 105.26 L 97.65 105.08 C 98.50 104.93 99.07 104.12 98.91 103.27 C 98.76 102.42 97.95 101.86 97.10 102.01 L 96.13 102.19 C 95.29 102.34 94.72 103.15 94.88 104.00 C 95.03 104.85 95.84 105.41 96.69 105.26 Z M 97.67 105.08 L 98.65 104.89 C 99.50 104.73 100.06 103.91 99.89 103.07 C 99.73 102.22 98.91 101.66 98.07 101.83 L 97.08 102.01 C 96.24 102.18 95.68 102.99 95.84 103.84 C 96.01 104.69 96.82 105.24 97.67 105.08 Z M 98.67 104.89 L 99.68 104.68 C 100.52 104.51 101.07 103.69 100.90 102.84 C 100.72 102.00 99.90 101.45 99.05 101.62 L 98.05 101.83 C 97.20 102.00 96.66 102.83 96.83 103.67 C 97.00 104.52 97.83 105.06 98.67 104.89 Z M 99.70 104.68 L 100.66 104.47 C 101.50 104.29 102.04 103.45 101.85 102.61 C 101.67 101.77 100.84 101.24 99.99 101.42 L 99.03 101.63 C 98.19 101.81 97.66 102.65 97.84 103.49 C 98.02 104.33 98.86 104.86 99.70 104.68 Z M 100.68 104.47 L 101.64 104.24 C 102.48 104.05 103.00 103.21 102.81 102.37 C 102.62 101.53 101.78 101.01 100.94 101.20 L 99.98 101.42 C 99.14 101.62 98.61 102.46 98.80 103.30 C 99.00 104.14 99.84 104.66 100.68 104.47 Z M 101.65 104.24 L 102.63 104.01 C 103.47 103.81 103.99 102.96 103.78 102.12 C 103.58 101.29 102.74 100.77 101.90 100.97 L 100.92 101.20 C 100.09 101.41 99.57 102.25 99.77 103.09 C 99.97 103.93 100.81 104.44 101.65 104.24 Z M 102.64 104.00 L 103.64 103.76 C 104.47 103.55 104.98 102.71 104.78 101.87 C 104.57 101.03 103.73 100.52 102.89 100.73 L 101.89 100.97 C 101.06 101.18 100.54 102.03 100.75 102.86 C 100.96 103.70 101.80 104.21 102.64 104.00 Z M 103.64 103.76 L 104.58 103.52 C 105.42 103.31 105.93 102.46 105.72 101.63 C 105.51 100.79 104.66 100.28 103.82 100.49 L 102.88 100.73 C 102.05 100.94 101.54 101.79 101.75 102.62 C 101.96 103.46 102.81 103.97 103.64 103.76 Z M 104.59 103.52 L 105.54 103.28 C 106.37 103.06 106.87 102.21 106.66 101.38 C 106.45 100.54 105.60 100.04 104.76 100.25 L 103.82 100.49 C 102.98 100.71 102.48 101.56 102.69 102.39 C 102.90 103.23 103.75 103.73 104.59 103.52 Z M 105.54 103.28 L 106.51 103.02 C 107.34 102.81 107.85 101.95 107.63 101.12 C 107.41 100.29 106.56 99.78 105.73 100.00 L 104.76 100.25 C 103.92 100.47 103.42 101.32 103.64 102.16 C 103.85 102.99 104.71 103.49 105.54 103.28 Z M 106.52 103.02 L 107.51 102.76 C 108.35 102.54 108.85 101.68 108.62 100.85 C 108.40 100.02 107.55 99.52 106.72 99.74 L 105.72 100.00 C 104.89 100.22 104.39 101.08 104.61 101.91 C 104.83 102.74 105.68 103.24 106.52 103.02 Z M 107.52 102.76 L 108.47 102.50 C 109.30 102.28 109.79 101.42 109.57 100.59 C 109.35 99.76 108.49 99.26 107.66 99.49 L 106.71 99.74 C 105.88 99.96 105.38 100.82 105.61 101.65 C 105.83 102.49 106.69 102.98 107.52 102.76 Z M 108.47 102.50 L 109.38 102.26 C 110.21 102.03 110.70 101.17 110.47 100.34 C 110.25 99.51 109.39 99.02 108.56 99.24 L 107.65 99.49 C 106.82 99.71 106.33 100.57 106.56 101.40 C 106.78 102.23 107.64 102.73 108.47 102.50 Z M 109.37 102.26 L 110.31 102.00 C 111.15 101.78 111.64 100.92 111.41 100.09 C 111.19 99.26 110.33 98.76 109.50 98.99 L 108.56 99.24 C 107.73 99.47 107.24 100.32 107.46 101.16 C 107.68 101.99 108.54 102.48 109.37 102.26 Z M 110.31 102.00 L 111.29 101.74 C 112.12 101.52 112.62 100.66 112.40 99.83 C 112.18 99.00 111.32 98.50 110.49 98.72 L 109.51 98.99 C 108.67 99.21 108.18 100.06 108.40 100.90 C 108.62 101.73 109.48 102.23 110.31 102.00 Z M 111.28 101.74 L 112.31 101.48 C 113.15 101.26 113.65 100.41 113.43 99.57 C 113.21 98.74 112.36 98.24 111.52 98.45 L 110.49 98.72 C 109.66 98.94 109.16 99.79 109.38 100.63 C 109.60 101.46 110.45 101.96 111.28 101.74 Z M 112.30 101.48 L 113.29 101.23 C 114.13 101.02 114.63 100.17 114.42 99.33 C 114.21 98.49 113.36 97.99 112.52 98.20 L 111.53 98.45 C 110.70 98.66 110.19 99.51 110.40 100.35 C 110.62 101.18 111.47 101.69 112.30 101.48 Z M 113.28 101.23 L 114.20 101.00 C 115.04 100.80 115.55 99.95 115.34 99.11 C 115.14 98.28 114.29 97.76 113.45 97.97 L 112.53 98.20 C 111.70 98.40 111.18 99.25 111.39 100.09 C 111.60 100.93 112.44 101.44 113.28 101.23 Z M 114.19 101.00 L 115.15 100.77 C 115.99 100.57 116.50 99.73 116.30 98.89 C 116.10 98.05 115.25 97.54 114.42 97.74 L 113.46 97.97 C 112.63 98.17 112.11 99.01 112.31 99.85 C 112.51 100.69 113.36 101.21 114.19 101.00 Z M 115.14 100.78 L 116.12 100.55 C 116.96 100.35 117.48 99.51 117.28 98.67 C 117.08 97.83 116.24 97.31 115.40 97.51 L 114.42 97.74 C 113.58 97.93 113.06 98.78 113.26 99.61 C 113.46 100.45 114.30 100.97 115.14 100.78 Z M 116.11 100.55 L 117.11 100.32 C 117.95 100.13 118.47 99.29 118.28 98.45 C 118.09 97.61 117.25 97.08 116.41 97.28 L 115.41 97.51 C 114.57 97.70 114.05 98.54 114.24 99.38 C 114.43 100.22 115.27 100.74 116.11 100.55 Z M 117.10 100.32 L 118.12 100.09 C 118.96 99.90 119.49 99.07 119.30 98.23 C 119.11 97.39 118.27 96.86 117.43 97.05 L 116.42 97.27 C 115.57 97.46 115.05 98.30 115.24 99.14 C 115.42 99.98 116.26 100.51 117.10 100.32 Z M 118.11 100.09 L 119.11 99.87 C 119.95 99.69 120.49 98.86 120.30 98.01 C 120.12 97.17 119.28 96.64 118.44 96.82 L 117.44 97.04 C 116.60 97.23 116.06 98.06 116.25 98.90 C 116.43 99.75 117.27 100.28 118.11 100.09 Z M 119.11 99.87 L 120.05 99.67 C 120.90 99.49 121.43 98.66 121.25 97.82 C 121.07 96.97 120.24 96.44 119.40 96.62 L 118.45 96.82 C 117.60 97.00 117.07 97.83 117.25 98.68 C 117.43 99.52 118.26 100.06 119.11 99.87 Z M 120.05 99.67 L 121.00 99.47 C 121.85 99.29 122.39 98.46 122.21 97.62 C 122.03 96.77 121.20 96.24 120.36 96.41 L 119.40 96.62 C 118.56 96.80 118.02 97.62 118.20 98.47 C 118.38 99.31 119.20 99.85 120.05 99.67 Z M 121.00 99.47 L 121.97 99.27 C 122.81 99.09 123.35 98.27 123.18 97.42 C 123.00 96.58 122.17 96.04 121.33 96.21 L 120.36 96.41 C 119.52 96.59 118.98 97.42 119.15 98.26 C 119.33 99.10 120.16 99.65 121.00 99.47 Z M 121.96 99.27 L 122.94 99.07 C 123.79 98.89 124.33 98.07 124.16 97.22 C 123.98 96.38 123.16 95.84 122.31 96.01 L 121.33 96.21 C 120.49 96.38 119.95 97.21 120.12 98.05 C 120.29 98.90 121.12 99.44 121.96 99.27 Z M 122.94 99.07 L 123.94 98.87 C 124.78 98.69 125.33 97.87 125.15 97.03 C 124.98 96.18 124.16 95.63 123.31 95.81 L 122.32 96.01 C 121.47 96.18 120.93 97.00 121.10 97.85 C 121.27 98.69 122.10 99.24 122.94 99.07 Z M 123.93 98.87 L 124.95 98.66 C 125.79 98.49 126.34 97.67 126.17 96.82 C 126.00 95.98 125.17 95.43 124.33 95.60 L 123.32 95.81 C 122.47 95.98 121.92 96.80 122.09 97.64 C 122.26 98.49 123.09 99.04 123.93 98.87 Z M 124.94 98.66 L 125.93 98.47 C 126.77 98.30 127.32 97.47 127.15 96.63 C 126.98 95.78 126.16 95.24 125.31 95.40 L 124.33 95.60 C 123.49 95.77 122.94 96.59 123.11 97.44 C 123.28 98.28 124.10 98.83 124.94 98.66 Z M 125.92 98.47 L 126.88 98.28 C 127.72 98.11 128.27 97.29 128.10 96.44 C 127.94 95.60 127.12 95.05 126.27 95.21 L 125.32 95.40 C 124.47 95.57 123.92 96.39 124.09 97.24 C 124.26 98.09 125.08 98.63 125.92 98.47 Z M 126.88 98.28 L 127.84 98.09 C 128.69 97.92 129.24 97.10 129.07 96.25 C 128.91 95.41 128.09 94.86 127.24 95.02 L 126.27 95.21 C 125.43 95.38 124.88 96.20 125.04 97.05 C 125.21 97.89 126.03 98.44 126.88 98.28 Z M 127.84 98.09 L 128.82 97.90 C 129.66 97.73 130.22 96.91 130.05 96.07 C 129.89 95.22 129.07 94.67 128.22 94.83 L 127.24 95.02 C 126.40 95.19 125.84 96.01 126.01 96.85 C 126.17 97.70 126.99 98.25 127.84 98.09 Z M 128.81 97.90 L 129.80 97.71 C 130.65 97.55 131.21 96.73 131.04 95.88 C 130.88 95.04 130.06 94.48 129.22 94.64 L 128.23 94.83 C 127.38 94.99 126.83 95.81 126.99 96.66 C 127.15 97.51 127.97 98.06 128.81 97.90 Z M 129.80 97.71 L 130.80 97.52 C 131.64 97.36 132.20 96.55 132.04 95.70 C 131.88 94.85 131.07 94.29 130.22 94.45 L 129.22 94.64 C 128.37 94.80 127.82 95.62 127.98 96.46 C 128.13 97.31 128.95 97.87 129.80 97.71 Z M 130.79 97.52 L 131.79 97.34 C 132.64 97.18 133.20 96.37 133.05 95.52 C 132.89 94.67 132.08 94.11 131.23 94.27 L 130.23 94.45 C 129.38 94.61 128.82 95.42 128.97 96.27 C 129.13 97.12 129.94 97.68 130.79 97.52 Z M 131.79 97.34 L 132.79 97.16 C 133.64 97.01 134.21 96.20 134.05 95.35 C 133.90 94.50 133.09 93.94 132.24 94.09 L 131.24 94.27 C 130.39 94.42 129.82 95.23 129.97 96.08 C 130.13 96.93 130.94 97.49 131.79 97.34 Z M 132.78 97.16 L 133.77 96.99 C 134.62 96.84 135.19 96.03 135.04 95.18 C 134.89 94.33 134.08 93.77 133.23 93.91 L 132.25 94.09 C 131.40 94.23 130.83 95.04 130.98 95.89 C 131.13 96.74 131.94 97.31 132.78 97.16 Z M 133.76 96.99 L 134.75 96.82 C 135.60 96.68 136.17 95.87 136.03 95.02 C 135.89 94.17 135.08 93.60 134.23 93.75 L 133.24 93.91 C 132.39 94.06 131.82 94.86 131.96 95.71 C 132.11 96.56 132.91 97.14 133.76 96.99 Z M 134.74 96.83 L 135.73 96.66 C 136.58 96.52 137.16 95.72 137.02 94.87 C 136.88 94.02 136.08 93.44 135.23 93.58 L 134.24 93.74 C 133.39 93.88 132.81 94.69 132.95 95.54 C 133.09 96.39 133.89 96.97 134.74 96.83 Z M 135.72 96.66 L 136.71 96.51 C 137.57 96.37 138.15 95.57 138.01 94.72 C 137.87 93.87 137.07 93.29 136.22 93.42 L 135.23 93.58 C 134.38 93.72 133.80 94.52 133.94 95.37 C 134.07 96.22 134.87 96.80 135.72 96.66 Z M 136.71 96.51 L 137.70 96.35 C 138.55 96.22 139.13 95.42 139.00 94.57 C 138.87 93.72 138.07 93.14 137.22 93.27 L 136.23 93.42 C 135.38 93.55 134.79 94.35 134.92 95.20 C 135.06 96.06 135.85 96.64 136.71 96.51 Z M 137.69 96.36 L 138.68 96.21 C 139.53 96.08 140.12 95.28 139.99 94.43 C 139.86 93.58 139.06 92.99 138.21 93.12 L 137.22 93.27 C 136.37 93.40 135.78 94.19 135.91 95.04 C 136.04 95.90 136.84 96.48 137.69 96.36 Z M 138.67 96.21 L 139.66 96.06 C 140.51 95.94 141.10 95.15 140.98 94.29 C 140.85 93.44 140.06 92.85 139.21 92.97 L 138.22 93.12 C 137.37 93.24 136.77 94.04 136.90 94.89 C 137.02 95.74 137.82 96.33 138.67 96.21 Z M 139.65 96.06 L 140.65 95.92 C 141.50 95.80 142.09 95.01 141.97 94.16 C 141.85 93.30 141.06 92.71 140.21 92.83 L 139.21 92.97 C 138.36 93.09 137.76 93.88 137.89 94.74 C 138.01 95.59 138.80 96.19 139.65 96.06 Z M 140.64 95.92 L 141.65 95.79 C 142.50 95.67 143.10 94.88 142.98 94.03 C 142.86 93.17 142.08 92.57 141.22 92.69 L 140.22 92.83 C 139.36 92.95 138.76 93.74 138.88 94.59 C 139.00 95.44 139.79 96.04 140.64 95.92 Z M 141.64 95.79 L 142.64 95.65 C 143.50 95.54 144.10 94.75 143.99 93.90 C 143.87 93.04 143.09 92.44 142.23 92.56 L 141.23 92.69 C 140.37 92.80 139.77 93.59 139.89 94.44 C 140.00 95.30 140.79 95.90 141.64 95.79 Z M 142.64 95.65 L 143.64 95.53 C 144.49 95.42 145.10 94.63 144.99 93.78 C 144.88 92.92 144.09 92.32 143.24 92.43 L 142.24 92.56 C 141.38 92.67 140.78 93.45 140.89 94.31 C 141.00 95.16 141.78 95.76 142.64 95.65 Z M 143.63 95.53 L 144.62 95.40 C 145.48 95.30 146.09 94.52 145.98 93.66 C 145.87 92.80 145.09 92.20 144.24 92.30 L 143.24 92.43 C 142.39 92.53 141.78 93.31 141.89 94.17 C 141.99 95.03 142.77 95.63 143.63 95.53 Z M 144.62 95.40 L 145.60 95.28 C 146.46 95.18 147.07 94.40 146.97 93.55 C 146.86 92.69 146.08 92.08 145.23 92.18 L 144.24 92.30 C 143.39 92.41 142.77 93.18 142.88 94.04 C 142.98 94.90 143.76 95.51 144.62 95.40 Z M 145.60 95.29 L 146.57 95.17 C 147.43 95.07 148.05 94.30 147.95 93.44 C 147.85 92.58 147.07 91.97 146.21 92.07 L 145.23 92.18 C 144.38 92.28 143.76 93.06 143.86 93.91 C 143.96 94.77 144.74 95.39 145.60 95.29 Z M 146.57 95.17 L 147.54 95.06 C 148.40 94.97 149.01 94.19 148.92 93.33 C 148.82 92.48 148.05 91.86 147.19 91.96 L 146.22 92.07 C 145.36 92.16 144.74 92.94 144.84 93.79 C 144.94 94.65 145.71 95.27 146.57 95.17 Z M 147.53 95.06 L 148.53 94.96 C 149.39 94.86 150.00 94.09 149.91 93.23 C 149.82 92.37 149.05 91.75 148.19 91.85 L 147.20 91.96 C 146.34 92.05 145.72 92.82 145.81 93.68 C 145.90 94.54 146.68 95.16 147.53 95.06 Z M 148.52 94.96 L 149.51 94.85 C 150.37 94.76 150.99 93.99 150.90 93.13 C 150.81 92.28 150.04 91.65 149.18 91.74 L 148.19 91.85 C 147.34 91.94 146.71 92.71 146.80 93.57 C 146.89 94.42 147.66 95.05 148.52 94.96 Z M 149.50 94.85 L 150.49 94.75 C 151.35 94.66 151.97 93.90 151.88 93.04 C 151.80 92.18 151.03 91.56 150.17 91.64 L 149.19 91.74 C 148.33 91.83 147.70 92.60 147.79 93.46 C 147.88 94.31 148.64 94.94 149.50 94.85 Z M 150.48 94.75 L 151.47 94.65 C 152.33 94.57 152.96 93.81 152.87 92.95 C 152.79 92.09 152.02 91.46 151.16 91.55 L 150.18 91.64 C 149.32 91.73 148.69 92.49 148.78 93.35 C 148.86 94.21 149.62 94.84 150.48 94.75 Z M 151.47 94.66 L 152.46 94.56 C 153.32 94.48 153.95 93.72 153.86 92.86 C 153.78 92.00 153.02 91.37 152.16 91.45 L 151.17 91.55 C 150.31 91.63 149.68 92.39 149.76 93.25 C 149.84 94.11 150.61 94.74 151.47 94.66 Z M 152.45 94.56 L 153.46 94.47 C 154.31 94.39 154.95 93.63 154.87 92.77 C 154.79 91.91 154.02 91.28 153.17 91.36 L 152.16 91.45 C 151.31 91.53 150.67 92.29 150.75 93.15 C 150.83 94.01 151.60 94.64 152.45 94.56 Z M 153.45 94.47 L 154.47 94.37 C 155.33 94.30 155.96 93.54 155.88 92.68 C 155.80 91.82 155.04 91.19 154.18 91.26 L 153.17 91.36 C 152.31 91.44 151.68 92.20 151.76 93.05 C 151.83 93.91 152.59 94.55 153.45 94.47 Z M 154.47 94.37 L 155.46 94.29 C 156.32 94.21 156.96 93.45 156.88 92.59 C 156.80 91.73 156.04 91.10 155.19 91.18 L 154.19 91.26 C 153.33 91.34 152.69 92.10 152.77 92.96 C 152.85 93.82 153.61 94.45 154.47 94.37 Z M 155.46 94.29 L 156.47 94.20 C 157.33 94.12 157.96 93.36 157.89 92.51 C 157.81 91.65 157.05 91.01 156.19 91.09 L 155.19 91.17 C 154.33 91.25 153.69 92.01 153.77 92.87 C 153.84 93.73 154.60 94.36 155.46 94.29 Z M 156.46 94.20 L 157.47 94.11 C 158.33 94.04 158.97 93.28 158.90 92.42 C 158.82 91.56 158.07 90.93 157.21 91.00 L 156.20 91.09 C 155.34 91.16 154.70 91.92 154.77 92.77 C 154.85 93.63 155.60 94.27 156.46 94.20 Z M 157.47 94.11 L 158.48 94.03 C 159.34 93.96 159.98 93.20 159.91 92.34 C 159.84 91.48 159.08 90.85 158.22 90.92 L 157.21 91.00 C 156.35 91.07 155.71 91.82 155.79 92.68 C 155.86 93.54 156.61 94.18 157.47 94.11 Z M 158.48 94.03 L 159.48 93.95 C 160.34 93.88 160.98 93.13 160.91 92.27 C 160.85 91.41 160.09 90.77 159.23 90.84 L 158.23 90.92 C 157.37 90.98 156.73 91.74 156.80 92.60 C 156.86 93.46 157.62 94.10 158.48 94.03 Z M 159.48 93.95 L 160.47 93.87 C 161.33 93.81 161.97 93.06 161.91 92.20 C 161.84 91.34 161.09 90.70 160.23 90.76 L 159.24 90.84 C 158.38 90.90 157.74 91.65 157.80 92.51 C 157.87 93.37 158.62 94.01 159.48 93.95 Z M 160.46 93.87 L 161.44 93.81 C 162.30 93.74 162.95 93.00 162.89 92.14 C 162.82 91.28 162.08 90.63 161.22 90.69 L 160.24 90.76 C 159.38 90.82 158.73 91.57 158.79 92.43 C 158.86 93.29 159.60 93.94 160.46 93.87 Z M 161.43 93.81 L 162.43 93.74 C 163.29 93.68 163.94 92.94 163.89 92.08 C 163.83 91.22 163.09 90.57 162.23 90.62 L 161.23 90.69 C 160.37 90.75 159.71 91.49 159.77 92.35 C 159.83 93.21 160.57 93.86 161.43 93.81 Z M 162.42 93.74 L 163.46 93.68 C 164.32 93.63 164.98 92.89 164.93 92.03 C 164.87 91.17 164.14 90.51 163.27 90.56 L 162.24 90.62 C 161.38 90.68 160.72 91.41 160.77 92.28 C 160.82 93.14 161.56 93.79 162.42 93.74 Z M 163.45 93.68 L 164.47 93.62 C 165.33 93.58 165.99 92.84 165.94 91.98 C 165.89 91.12 165.16 90.46 164.30 90.51 L 163.28 90.56 C 162.42 90.61 161.76 91.34 161.81 92.20 C 161.86 93.07 162.59 93.73 163.45 93.68 Z M 164.46 93.62 L 165.45 93.58 C 166.31 93.53 166.98 92.80 166.93 91.94 C 166.89 91.08 166.16 90.41 165.30 90.46 L 164.30 90.51 C 163.44 90.55 162.78 91.28 162.82 92.14 C 162.86 93.00 163.60 93.67 164.46 93.62 Z M 165.45 93.58 L 166.43 93.53 C 167.29 93.49 167.95 92.76 167.92 91.90 C 167.88 91.04 167.15 90.37 166.28 90.41 L 165.30 90.46 C 164.44 90.50 163.78 91.23 163.81 92.09 C 163.85 92.95 164.58 93.62 165.45 93.58 Z M 166.42 93.53 L 167.40 93.49 C 168.26 93.45 168.93 92.72 168.89 91.86 C 168.85 91.00 168.12 90.33 167.26 90.37 L 166.29 90.41 C 165.43 90.45 164.76 91.18 164.80 92.04 C 164.83 92.90 165.56 93.57 166.42 93.53 Z M 167.39 93.49 L 168.37 93.45 C 169.23 93.41 169.90 92.69 169.86 91.82 C 169.83 90.96 169.10 90.29 168.24 90.33 L 167.27 90.37 C 166.40 90.41 165.73 91.13 165.77 91.99 C 165.81 92.86 166.53 93.52 167.39 93.49 Z M 168.37 93.45 L 169.35 93.41 C 170.22 93.37 170.89 92.65 170.85 91.79 C 170.81 90.92 170.09 90.25 169.23 90.29 L 168.24 90.33 C 167.38 90.36 166.71 91.09 166.74 91.95 C 166.78 92.81 167.50 93.48 168.37 93.45 Z M 169.35 93.41 L 170.35 93.37 C 171.21 93.33 171.88 92.61 171.85 91.74 C 171.81 90.88 171.08 90.21 170.22 90.25 L 169.23 90.29 C 168.36 90.32 167.70 91.05 167.73 91.91 C 167.77 92.77 168.49 93.44 169.35 93.41 Z M 170.35 93.37 L 171.35 93.33 C 172.21 93.29 172.88 92.56 172.84 91.70 C 172.81 90.84 172.08 90.17 171.22 90.21 L 170.22 90.25 C 169.36 90.28 168.69 91.01 168.73 91.87 C 168.76 92.73 169.49 93.40 170.35 93.37 Z M 171.35 93.33 L 172.35 93.28 C 173.21 93.25 173.88 92.52 173.85 91.66 C 173.81 90.80 173.08 90.13 172.22 90.16 L 171.22 90.21 C 170.36 90.24 169.69 90.97 169.73 91.83 C 169.76 92.69 170.49 93.36 171.35 93.33 Z M 172.36 93.28 L 173.36 93.24 C 174.22 93.20 174.89 92.47 174.85 91.61 C 174.81 90.75 174.08 90.08 173.22 90.12 L 172.22 90.16 C 171.36 90.20 170.69 90.93 170.73 91.79 C 170.77 92.65 171.49 93.32 172.36 93.28 Z M 173.36 93.24 L 174.36 93.19 C 175.22 93.15 175.89 92.42 175.85 91.56 C 175.81 90.70 175.08 90.03 174.22 90.07 L 173.22 90.12 C 172.35 90.16 171.69 90.89 171.73 91.75 C 171.77 92.61 172.50 93.28 173.36 93.24 Z M 174.37 93.19 L 175.37 93.14 C 176.23 93.10 176.90 92.37 176.85 91.50 C 176.81 90.64 176.08 89.98 175.22 90.02 L 174.21 90.07 C 173.35 90.12 172.69 90.85 172.73 91.71 C 172.77 92.57 173.51 93.23 174.37 93.19 Z M 175.38 93.14 L 176.39 93.09 C 177.25 93.04 177.91 92.31 177.87 91.45 C 177.82 90.59 177.09 89.92 176.23 89.97 L 175.21 90.02 C 174.35 90.07 173.69 90.80 173.74 91.66 C 173.78 92.53 174.52 93.19 175.38 93.14 Z M 176.40 93.09 L 177.41 93.03 C 178.27 92.98 178.93 92.24 178.88 91.38 C 178.83 90.52 178.09 89.86 177.23 89.91 L 176.22 89.97 C 175.36 90.02 174.70 90.76 174.75 91.62 C 174.80 92.48 175.54 93.14 176.40 93.09 Z M 177.41 93.03 L 178.42 92.97 C 179.28 92.92 179.94 92.18 179.88 91.32 C 179.83 90.46 179.09 89.80 178.23 89.85 L 177.23 89.91 C 176.37 89.96 175.71 90.70 175.76 91.56 C 175.81 92.43 176.55 93.08 177.41 93.03 Z M 178.42 92.97 L 179.42 92.91 C 180.28 92.85 180.94 92.11 180.88 91.25 C 180.83 90.39 180.08 89.74 179.22 89.79 L 178.23 89.85 C 177.37 89.91 176.71 90.65 176.77 91.51 C 176.82 92.37 177.56 93.02 178.42 92.97 Z M 179.43 92.91 L 180.41 92.84 C 181.27 92.78 181.93 92.04 181.87 91.18 C 181.81 90.32 181.06 89.67 180.20 89.72 L 179.22 89.79 C 178.36 89.85 177.71 90.59 177.76 91.45 C 177.82 92.31 178.57 92.96 179.43 92.91 Z M 180.42 92.84 L 181.40 92.77 C 182.26 92.71 182.90 91.96 182.84 91.10 C 182.78 90.24 182.03 89.59 181.17 89.65 L 180.20 89.72 C 179.34 89.79 178.69 90.53 178.75 91.39 C 178.81 92.25 179.56 92.90 180.42 92.84 Z M 181.40 92.77 L 182.43 92.69 C 183.29 92.63 183.93 91.88 183.87 91.02 C 183.80 90.16 183.06 89.51 182.20 89.58 L 181.17 89.66 C 180.31 89.72 179.66 90.47 179.73 91.33 C 179.79 92.19 180.54 92.83 181.40 92.77 Z M 182.44 92.69 L 183.47 92.61 C 184.33 92.54 184.97 91.79 184.90 90.93 C 184.83 90.07 184.08 89.43 183.22 89.50 L 182.19 89.58 C 181.33 89.65 180.69 90.40 180.76 91.26 C 180.83 92.12 181.58 92.76 182.44 92.69 Z M 183.48 92.61 L 184.49 92.52 C 185.35 92.45 185.99 91.69 185.91 90.84 C 185.84 89.98 185.09 89.34 184.23 89.41 L 183.21 89.50 C 182.35 89.57 181.72 90.32 181.79 91.18 C 181.86 92.04 182.62 92.68 183.48 92.61 Z M 184.49 92.52 L 185.49 92.43 C 186.35 92.36 186.98 91.60 186.91 90.74 C 186.83 89.88 186.07 89.25 185.21 89.32 L 184.22 89.41 C 183.36 89.49 182.73 90.24 182.80 91.10 C 182.88 91.96 183.64 92.60 184.49 92.52 Z M 185.49 92.43 L 186.46 92.35 C 187.32 92.27 187.95 91.51 187.88 90.65 C 187.80 89.79 187.04 89.16 186.18 89.24 L 185.21 89.32 C 184.35 89.40 183.72 90.16 183.80 91.02 C 183.87 91.88 184.63 92.51 185.49 92.43 Z M 186.47 92.34 L 187.41 92.26 C 188.27 92.17 188.90 91.41 188.82 90.55 C 188.74 89.70 187.98 89.07 187.12 89.15 L 186.17 89.24 C 185.32 89.32 184.69 90.08 184.77 90.94 C 184.85 91.80 185.61 92.43 186.47 92.34 Z M 187.42 92.25 L 188.44 92.15 C 189.30 92.07 189.93 91.31 189.85 90.45 C 189.76 89.59 189.00 88.96 188.14 89.05 L 187.12 89.15 C 186.26 89.23 185.63 89.99 185.71 90.85 C 185.80 91.71 186.56 92.34 187.42 92.25 Z M 188.45 92.15 L 189.47 92.05 C 190.33 91.96 190.95 91.20 190.86 90.34 C 190.78 89.48 190.01 88.86 189.15 88.94 L 188.13 89.05 C 187.28 89.14 186.65 89.90 186.74 90.76 C 186.83 91.62 187.59 92.24 188.45 92.15 Z M 189.48 92.05 L 190.47 91.94 C 191.33 91.85 191.95 91.08 191.86 90.22 C 191.76 89.37 190.99 88.75 190.14 88.84 L 189.14 88.95 C 188.29 89.04 187.67 89.81 187.76 90.66 C 187.85 91.52 188.62 92.14 189.48 92.05 Z M 190.48 91.94 L 191.46 91.83 C 192.31 91.73 192.93 90.96 192.83 90.10 C 192.73 89.24 191.96 88.63 191.10 88.73 L 190.12 88.84 C 189.27 88.94 188.65 89.71 188.75 90.57 C 188.85 91.43 189.63 92.04 190.48 91.94 Z M 191.47 91.83 L 192.43 91.71 C 193.29 91.60 193.90 90.82 193.79 89.97 C 193.68 89.11 192.90 88.50 192.05 88.61 L 191.09 88.73 C 190.23 88.83 189.62 89.61 189.73 90.47 C 189.84 91.33 190.62 91.93 191.47 91.83 Z M 192.45 91.71 L 193.38 91.58 C 194.23 91.46 194.83 90.68 194.72 89.82 C 194.60 88.97 193.81 88.37 192.96 88.49 L 192.03 88.61 C 191.18 88.73 190.58 89.51 190.69 90.37 C 190.81 91.22 191.59 91.82 192.45 91.71 Z M 193.40 91.58 L 194.31 91.44 C 195.17 91.32 195.76 90.52 195.63 89.67 C 195.50 88.82 194.71 88.23 193.86 88.35 L 192.94 88.49 C 192.09 88.62 191.50 89.41 191.62 90.26 C 191.75 91.11 192.54 91.70 193.40 91.58 Z M 194.34 91.44 L 195.28 91.28 C 196.13 91.14 196.71 90.34 196.57 89.49 C 196.43 88.64 195.62 88.06 194.77 88.20 L 193.83 88.36 C 192.98 88.50 192.40 89.30 192.54 90.15 C 192.69 91.00 193.49 91.58 194.34 91.44 Z M 195.31 91.28 L 196.29 91.10 C 197.14 90.94 197.70 90.12 197.54 89.28 C 197.39 88.43 196.57 87.87 195.72 88.03 L 194.74 88.21 C 193.89 88.36 193.33 89.18 193.49 90.03 C 193.65 90.87 194.46 91.43 195.31 91.28 Z M 196.32 91.09 L 197.36 90.88 C 198.21 90.70 198.75 89.88 198.57 89.03 C 198.40 88.19 197.58 87.64 196.73 87.82 L 195.69 88.03 C 194.85 88.21 194.30 89.03 194.48 89.88 C 194.65 90.72 195.48 91.26 196.32 91.09 Z M 197.39 90.87 L 198.47 90.62 C 199.31 90.43 199.83 89.60 199.64 88.76 C 199.45 87.92 198.62 87.39 197.78 87.58 L 196.70 87.82 C 195.86 88.01 195.33 88.85 195.52 89.69 C 195.71 90.53 196.55 91.06 197.39 90.87 Z M 198.49 90.62 L 199.44 90.39 C 200.28 90.18 200.80 89.34 200.59 88.50 C 200.39 87.66 199.54 87.15 198.70 87.35 L 197.75 87.59 C 196.91 87.79 196.40 88.64 196.61 89.47 C 196.81 90.31 197.66 90.82 198.49 90.62 Z M 199.47 90.38 L 200.45 90.12 C 201.29 89.91 201.79 89.06 201.57 88.22 C 201.35 87.39 200.50 86.89 199.67 87.10 L 198.68 87.36 C 197.85 87.57 197.35 88.43 197.56 89.26 C 197.78 90.10 198.63 90.60 199.47 90.38 Z M 200.47 90.12 L 201.47 89.85 C 202.30 89.62 202.79 88.76 202.57 87.93 C 202.34 87.10 201.48 86.61 200.65 86.83 L 199.65 87.11 C 198.82 87.33 198.33 88.19 198.55 89.03 C 198.78 89.86 199.64 90.35 200.47 90.12 Z M 201.49 89.84 L 202.49 89.55 C 203.32 89.32 203.80 88.45 203.56 87.62 C 203.32 86.79 202.45 86.31 201.62 86.55 L 200.63 86.84 C 199.80 87.08 199.32 87.94 199.56 88.77 C 199.80 89.60 200.66 90.08 201.49 89.84 Z M 202.51 89.55 L 203.48 89.25 C 204.30 89.00 204.77 88.13 204.52 87.31 C 204.27 86.48 203.40 86.02 202.57 86.27 L 201.60 86.56 C 200.78 86.81 200.31 87.68 200.56 88.51 C 200.81 89.33 201.68 89.80 202.51 89.55 Z M 203.50 89.25 L 204.43 88.95 C 205.25 88.69 205.70 87.81 205.44 86.99 C 205.17 86.16 204.29 85.71 203.47 85.98 L 202.55 86.27 C 201.73 86.54 201.28 87.42 201.54 88.24 C 201.80 89.06 202.68 89.51 203.50 89.25 Z M 204.46 88.94 L 205.59 88.55 C 206.40 88.27 206.83 87.38 206.55 86.56 C 206.27 85.75 205.38 85.32 204.57 85.60 L 203.44 85.99 C 202.62 86.27 202.19 87.16 202.47 87.97 C 202.76 88.79 203.65 89.22 204.46 88.94 Z M 205.64 88.53 L 206.95 88.02 C 207.75 87.71 208.15 86.81 207.84 86.00 C 207.53 85.20 206.62 84.80 205.82 85.11 L 204.51 85.62 C 203.71 85.93 203.31 86.83 203.62 87.64 C 203.93 88.44 204.84 88.84 205.64 88.53 Z M 207.03 87.99 L 207.95 87.57 C 208.74 87.21 209.08 86.29 208.73 85.50 C 208.37 84.72 207.44 84.37 206.66 84.73 L 205.74 85.14 C 204.95 85.50 204.61 86.43 204.96 87.21 C 205.32 88.00 206.25 88.34 207.03 87.99 Z M 208.14 87.47 L 208.58 87.19 C 209.31 86.73 209.53 85.77 209.08 85.04 C 208.62 84.31 207.65 84.09 206.92 84.54 L 206.48 84.82 C 205.75 85.28 205.52 86.25 205.98 86.98 C 206.44 87.71 207.41 87.93 208.14 87.47 Z M 208.45 84.47 L 208.25 84.37 C 207.48 83.99 206.54 84.30 206.16 85.08 C 205.78 85.85 206.09 86.79 206.86 87.17 L 207.06 87.26 C 207.83 87.65 208.77 87.33 209.15 86.56 C 209.53 85.79 209.22 84.85 208.45 84.47 Z M 207.29 84.23 L 206.34 84.39 C 205.49 84.54 204.92 85.34 205.06 86.19 C 205.21 87.04 206.01 87.61 206.86 87.47 L 207.82 87.31 C 208.67 87.16 209.24 86.36 209.10 85.51 C 208.95 84.66 208.14 84.08 207.29 84.23 Z M 206.23 84.41 L 204.84 84.75 C 204.00 84.95 203.49 85.79 203.69 86.63 C 203.89 87.47 204.74 87.99 205.57 87.78 L 206.97 87.45 C 207.80 87.25 208.32 86.40 208.12 85.57 C 207.92 84.73 207.07 84.21 206.23 84.41 Z M 204.81 84.76 L 203.87 85.01 C 203.04 85.23 202.54 86.08 202.76 86.92 C 202.98 87.75 203.84 88.25 204.67 88.02 L 205.61 87.78 C 206.44 87.55 206.94 86.70 206.72 85.87 C 206.50 85.03 205.64 84.54 204.81 84.76 Z M 203.85 85.01 L 202.89 85.28 C 202.06 85.51 201.57 86.37 201.80 87.20 C 202.03 88.03 202.89 88.52 203.72 88.29 L 204.69 88.02 C 205.52 87.79 206.01 86.93 205.78 86.10 C 205.55 85.27 204.69 84.78 203.85 85.01 Z M 202.88 85.28 L 201.91 85.56 C 201.08 85.79 200.59 86.65 200.83 87.48 C 201.06 88.31 201.93 88.79 202.76 88.56 L 203.73 88.29 C 204.56 88.05 205.04 87.19 204.81 86.36 C 204.58 85.53 203.71 85.05 202.88 85.28 Z M 201.91 85.56 L 200.93 85.83 C 200.10 86.06 199.62 86.93 199.85 87.76 C 200.09 88.59 200.95 89.07 201.78 88.84 L 202.76 88.56 C 203.58 88.33 204.07 87.46 203.83 86.63 C 203.60 85.80 202.74 85.32 201.91 85.56 Z M 200.94 85.83 L 199.96 86.10 C 199.13 86.33 198.64 87.19 198.87 88.02 C 199.10 88.85 199.96 89.34 200.79 89.11 L 201.77 88.84 C 202.60 88.61 203.09 87.75 202.86 86.92 C 202.63 86.09 201.77 85.60 200.94 85.83 Z M 199.97 86.10 L 198.99 86.36 C 198.16 86.58 197.66 87.44 197.89 88.27 C 198.11 89.11 198.97 89.60 199.80 89.38 L 200.78 89.11 C 201.61 88.89 202.11 88.03 201.88 87.20 C 201.66 86.37 200.80 85.87 199.97 86.10 Z M 199.00 86.36 L 198.03 86.61 C 197.20 86.83 196.70 87.69 196.92 88.52 C 197.14 89.35 198.00 89.85 198.83 89.63 L 199.79 89.38 C 200.63 89.16 201.13 88.30 200.91 87.47 C 200.69 86.64 199.83 86.14 199.00 86.36 Z M 198.04 86.61 L 197.08 86.86 C 196.25 87.08 195.75 87.93 195.97 88.76 C 196.18 89.60 197.03 90.10 197.87 89.88 L 198.82 89.63 C 199.66 89.42 200.16 88.56 199.94 87.73 C 199.73 86.89 198.87 86.39 198.04 86.61 Z M 197.09 86.86 L 196.34 87.05 C 195.50 87.27 195.00 88.12 195.22 88.95 C 195.43 89.79 196.29 90.29 197.12 90.07 L 197.87 89.88 C 198.70 89.67 199.20 88.81 198.99 87.98 C 198.77 87.15 197.92 86.64 197.09 86.86 Z"
      fill="black"
      fill-rule="nonzero" /><path d="M 164.32 93.65 L 163.72 94.47 C 163.15 95.23 163.31 96.30 164.07 96.86 C 164.83 97.42 165.90 97.26 166.47 96.50 L 167.07 95.68 C 167.63 94.92 167.47 93.85 166.71 93.29 C 165.95 92.73 164.88 92.89 164.32 93.65 Z M 163.71 94.47 L 163.11 95.29 C 162.55 96.05 162.72 97.12 163.48 97.68 C 164.24 98.24 165.31 98.08 165.87 97.32 L 166.47 96.50 C 167.03 95.74 166.87 94.67 166.11 94.11 C 165.34 93.55 164.27 93.71 163.71 94.47 Z M 163.10 95.30 L 162.52 96.11 C 161.96 96.87 162.13 97.94 162.90 98.50 C 163.67 99.05 164.74 98.88 165.29 98.12 L 165.88 97.31 C 166.43 96.54 166.26 95.47 165.50 94.91 C 164.73 94.36 163.66 94.53 163.10 95.30 Z M 162.51 96.12 L 161.94 96.92 C 161.39 97.69 161.57 98.76 162.34 99.31 C 163.12 99.86 164.19 99.68 164.74 98.90 L 165.30 98.10 C 165.85 97.33 165.67 96.26 164.90 95.71 C 164.12 95.16 163.05 95.35 162.51 96.12 Z M 161.92 96.94 L 161.36 97.76 C 160.82 98.54 161.02 99.61 161.80 100.14 C 162.58 100.68 163.65 100.48 164.19 99.70 L 164.75 98.88 C 165.29 98.10 165.09 97.03 164.31 96.50 C 163.53 95.96 162.46 96.16 161.92 96.94 Z M 161.34 97.79 L 160.79 98.62 C 160.27 99.41 160.49 100.48 161.29 101.00 C 162.08 101.52 163.14 101.30 163.67 100.50 L 164.21 99.67 C 164.73 98.88 164.51 97.81 163.72 97.29 C 162.92 96.77 161.86 96.99 161.34 97.79 Z M 160.76 98.66 L 160.24 99.50 C 159.75 100.31 160.00 101.37 160.81 101.87 C 161.62 102.37 162.68 102.11 163.18 101.30 L 163.70 100.46 C 164.19 99.65 163.94 98.59 163.13 98.09 C 162.32 97.60 161.26 97.85 160.76 98.66 Z M 160.21 99.56 L 159.72 100.43 C 159.25 101.26 159.55 102.31 160.38 102.78 C 161.21 103.24 162.26 102.95 162.72 102.12 L 163.21 101.25 C 163.68 100.42 163.39 99.37 162.56 98.90 C 161.73 98.43 160.68 98.73 160.21 99.56 Z M 159.68 100.49 L 159.24 101.36 C 158.81 102.21 159.15 103.25 159.99 103.68 C 160.84 104.11 161.88 103.78 162.32 102.93 L 162.76 102.06 C 163.19 101.21 162.85 100.17 162.00 99.74 C 161.15 99.30 160.12 99.64 159.68 100.49 Z M 159.21 101.42 L 158.81 102.29 C 158.41 103.15 158.79 104.18 159.65 104.58 C 160.52 104.98 161.55 104.60 161.95 103.74 L 162.35 102.87 C 162.75 102.00 162.37 100.97 161.50 100.57 C 160.64 100.17 159.61 100.55 159.21 101.42 Z M 158.78 102.34 L 158.40 103.25 C 158.03 104.13 158.44 105.15 159.32 105.52 C 160.20 105.89 161.22 105.48 161.59 104.59 L 161.97 103.68 C 162.35 102.80 161.93 101.79 161.05 101.42 C 160.17 101.04 159.15 101.46 158.78 102.34 Z M 158.38 103.30 L 158.01 104.25 C 157.66 105.15 158.11 106.15 159.00 106.50 C 159.90 106.84 160.90 106.40 161.24 105.50 L 161.61 104.55 C 161.96 103.65 161.51 102.65 160.62 102.30 C 159.72 101.96 158.72 102.41 158.38 103.30 Z M 157.99 104.30 L 157.63 105.30 C 157.31 106.20 157.79 107.19 158.69 107.52 C 159.60 107.84 160.59 107.36 160.91 106.46 L 161.26 105.46 C 161.58 104.55 161.11 103.56 160.21 103.24 C 159.30 102.92 158.31 103.39 157.99 104.30 Z M 157.62 105.33 L 157.33 106.23 C 157.03 107.14 157.52 108.12 158.44 108.42 C 159.35 108.72 160.33 108.23 160.63 107.31 L 160.92 106.42 C 161.22 105.51 160.73 104.53 159.82 104.23 C 158.90 103.93 157.92 104.42 157.62 105.33 Z M 157.32 106.26 L 157.04 107.17 C 156.75 108.09 157.27 109.06 158.18 109.34 C 159.10 109.63 160.07 109.11 160.36 108.20 L 160.64 107.28 C 160.92 106.37 160.41 105.39 159.49 105.11 C 158.57 104.83 157.60 105.34 157.32 106.26 Z M 157.03 107.20 L 156.75 108.15 C 156.49 109.07 157.01 110.03 157.93 110.30 C 158.86 110.57 159.82 110.04 160.09 109.12 L 160.36 108.17 C 160.63 107.25 160.10 106.29 159.18 106.02 C 158.26 105.75 157.30 106.28 157.03 107.20 Z M 156.75 108.17 L 156.48 109.15 C 156.22 110.08 156.76 111.03 157.69 111.29 C 158.61 111.54 159.57 111.00 159.82 110.08 L 160.09 109.09 C 160.35 108.17 159.81 107.22 158.88 106.96 C 157.96 106.70 157.00 107.25 156.75 108.17 Z M 156.47 109.17 L 156.20 110.20 C 155.96 111.12 156.51 112.07 157.44 112.32 C 158.36 112.56 159.31 112.01 159.56 111.08 L 159.82 110.06 C 160.07 109.13 159.52 108.18 158.59 107.94 C 157.66 107.70 156.72 108.25 156.47 109.17 Z M 156.20 110.21 L 155.95 111.19 C 155.72 112.11 156.28 113.06 157.21 113.29 C 158.13 113.53 159.08 112.97 159.31 112.04 L 159.56 111.06 C 159.79 110.14 159.23 109.19 158.30 108.96 C 157.38 108.72 156.43 109.29 156.20 110.21 Z M 155.95 111.20 L 155.73 112.11 C 155.50 113.04 156.07 113.98 157.00 114.20 C 157.93 114.43 158.87 113.86 159.09 112.93 L 159.32 112.02 C 159.54 111.09 158.97 110.16 158.04 109.93 C 157.11 109.70 156.18 110.27 155.95 111.20 Z M 155.72 112.12 L 155.50 113.06 C 155.28 113.99 155.86 114.93 156.79 115.15 C 157.72 115.37 158.66 114.79 158.88 113.86 L 159.10 112.92 C 159.32 111.99 158.74 111.05 157.81 110.83 C 156.88 110.62 155.94 111.19 155.72 112.12 Z M 155.50 113.08 L 155.28 114.04 C 155.07 114.98 155.65 115.91 156.59 116.12 C 157.52 116.33 158.45 115.74 158.66 114.81 L 158.88 113.84 C 159.09 112.91 158.50 111.98 157.57 111.77 C 156.64 111.56 155.71 112.14 155.50 113.08 Z M 155.28 114.06 L 155.06 115.06 C 154.86 115.99 155.45 116.91 156.39 117.12 C 157.32 117.32 158.25 116.72 158.45 115.79 L 158.66 114.79 C 158.87 113.86 158.27 112.93 157.34 112.73 C 156.40 112.53 155.48 113.12 155.28 114.06 Z M 155.06 115.07 L 154.85 116.10 C 154.65 117.04 155.26 117.95 156.19 118.15 C 157.13 118.34 158.05 117.74 158.24 116.80 L 158.45 115.77 C 158.64 114.83 158.04 113.92 157.10 113.73 C 156.17 113.53 155.25 114.14 155.06 115.07 Z M 154.84 116.12 L 154.64 117.17 C 154.45 118.11 155.07 119.02 156.01 119.21 C 156.95 119.39 157.86 118.78 158.04 117.84 L 158.24 116.78 C 158.43 115.84 157.81 114.93 156.88 114.75 C 155.94 114.57 155.03 115.18 154.84 116.12 Z M 154.63 117.19 L 154.46 118.11 C 154.29 119.05 154.91 119.95 155.85 120.13 C 156.79 120.30 157.70 119.68 157.87 118.74 L 158.04 117.82 C 158.22 116.88 157.59 115.98 156.65 115.80 C 155.71 115.63 154.81 116.25 154.63 117.19 Z M 154.46 118.12 L 154.30 119.05 C 154.13 120.00 154.76 120.89 155.70 121.06 C 156.64 121.23 157.54 120.60 157.71 119.66 L 157.87 118.73 C 158.04 117.78 157.41 116.89 156.47 116.72 C 155.53 116.55 154.63 117.18 154.46 118.12 Z M 154.30 119.06 L 154.13 120.02 C 153.97 120.96 154.61 121.85 155.55 122.02 C 156.49 122.18 157.39 121.54 157.55 120.60 L 157.71 119.65 C 157.87 118.70 157.24 117.81 156.29 117.65 C 155.35 117.49 154.46 118.12 154.30 119.06 Z M 154.13 120.03 L 153.97 121.00 C 153.82 121.94 154.45 122.84 155.40 122.99 C 156.34 123.15 157.23 122.51 157.39 121.57 L 157.55 120.59 C 157.71 119.65 157.07 118.76 156.12 118.60 C 155.18 118.44 154.29 119.08 154.13 120.03 Z M 153.97 121.01 L 153.81 122.00 C 153.66 122.95 154.30 123.84 155.24 123.99 C 156.19 124.14 157.08 123.50 157.23 122.56 L 157.39 121.56 C 157.54 120.61 156.90 119.73 155.96 119.57 C 155.01 119.42 154.12 120.06 153.97 121.01 Z M 153.81 122.01 L 153.65 123.03 C 153.50 123.97 154.14 124.86 155.08 125.01 C 156.03 125.16 156.92 124.52 157.07 123.57 L 157.23 122.55 C 157.38 121.61 156.74 120.72 155.79 120.57 C 154.85 120.42 153.96 121.06 153.81 122.01 Z M 153.65 123.03 L 153.48 124.08 C 153.33 125.02 153.98 125.91 154.92 126.06 C 155.87 126.20 156.75 125.56 156.90 124.61 L 157.07 123.57 C 157.22 122.63 156.57 121.74 155.63 121.59 C 154.68 121.44 153.80 122.09 153.65 123.03 Z M 153.48 124.08 L 153.32 125.13 C 153.17 126.07 153.81 126.96 154.76 127.11 C 155.70 127.26 156.59 126.61 156.74 125.67 L 156.90 124.61 C 157.05 123.67 156.41 122.78 155.46 122.64 C 154.52 122.49 153.63 123.13 153.48 124.08 Z M 153.32 125.13 L 153.17 126.09 C 153.02 127.03 153.66 127.92 154.61 128.07 C 155.55 128.22 156.44 127.57 156.58 126.63 L 156.74 125.67 C 156.88 124.72 156.24 123.84 155.30 123.69 C 154.35 123.54 153.47 124.18 153.32 125.13 Z M 153.17 126.09 L 153.01 127.06 C 152.86 128.01 153.51 128.89 154.45 129.04 C 155.40 129.19 156.28 128.54 156.43 127.60 L 156.58 126.63 C 156.73 125.68 156.09 124.80 155.14 124.65 C 154.20 124.50 153.31 125.14 153.17 126.09 Z M 153.01 127.06 L 152.86 128.05 C 152.71 128.99 153.35 129.88 154.30 130.03 C 155.24 130.18 156.13 129.53 156.28 128.59 L 156.43 127.60 C 156.58 126.66 155.93 125.77 154.99 125.62 C 154.05 125.47 153.16 126.12 153.01 127.06 Z M 152.86 128.05 L 152.70 129.04 C 152.55 129.99 153.20 130.87 154.14 131.02 C 155.09 131.17 155.97 130.52 156.12 129.58 L 156.28 128.58 C 156.42 127.64 155.78 126.76 154.83 126.61 C 153.89 126.46 153.00 127.11 152.86 128.05 Z M 152.70 129.05 L 152.55 130.05 C 152.40 130.99 153.05 131.87 153.99 132.02 C 154.94 132.17 155.82 131.52 155.97 130.58 L 156.12 129.58 C 156.27 128.63 155.62 127.75 154.68 127.60 C 153.73 127.46 152.85 128.10 152.70 129.05 Z M 152.55 130.05 L 152.39 131.05 C 152.25 132.00 152.90 132.88 153.84 133.02 C 154.79 133.17 155.67 132.52 155.81 131.57 L 155.97 130.57 C 156.11 129.63 155.46 128.75 154.52 128.60 C 153.57 128.46 152.69 129.10 152.55 130.05 Z M 152.39 131.05 L 152.24 132.06 C 152.10 133.00 152.75 133.88 153.69 134.02 C 154.64 134.17 155.52 133.52 155.66 132.57 L 155.81 131.57 C 155.96 130.63 155.31 129.74 154.36 129.60 C 153.42 129.46 152.54 130.11 152.39 131.05 Z M 152.24 132.06 L 152.09 133.06 C 151.95 134.00 152.61 134.88 153.55 135.02 C 154.50 135.16 155.38 134.51 155.52 133.56 L 155.66 132.57 C 155.80 131.62 155.15 130.74 154.21 130.60 C 153.26 130.46 152.38 131.11 152.24 132.06 Z M 152.09 133.06 L 151.95 134.06 C 151.81 135.00 152.47 135.88 153.41 136.02 C 154.36 136.15 155.24 135.50 155.37 134.55 L 155.52 133.56 C 155.65 132.61 155.00 131.73 154.05 131.60 C 153.11 131.46 152.23 132.12 152.09 133.06 Z M 151.95 134.06 L 151.81 135.07 C 151.67 136.01 152.33 136.89 153.28 137.02 C 154.22 137.16 155.10 136.50 155.23 135.55 L 155.37 134.55 C 155.51 133.60 154.85 132.73 153.90 132.59 C 152.96 132.46 152.08 133.12 151.95 134.06 Z M 151.81 135.07 L 151.67 136.07 C 151.54 137.02 152.20 137.89 153.14 138.02 C 154.09 138.15 154.96 137.49 155.09 136.55 L 155.23 135.55 C 155.36 134.60 154.70 133.73 153.75 133.60 C 152.81 133.47 151.94 134.13 151.81 135.07 Z M 151.67 136.08 L 151.54 137.07 C 151.41 138.01 152.07 138.88 153.01 139.01 C 153.96 139.14 154.83 138.48 154.95 137.53 L 155.09 136.54 C 155.22 135.60 154.56 134.73 153.61 134.60 C 152.67 134.47 151.80 135.13 151.67 136.08 Z M 151.54 137.07 L 151.41 138.06 C 151.28 139.00 151.95 139.87 152.89 139.99 C 153.83 140.12 154.69 139.46 154.82 138.52 L 154.95 137.53 C 155.08 136.59 154.42 135.72 153.47 135.60 C 152.53 135.47 151.67 136.13 151.54 137.07 Z M 151.41 138.06 L 151.28 139.05 C 151.16 139.99 151.82 140.85 152.76 140.98 C 153.70 141.10 154.56 140.44 154.69 139.50 L 154.82 138.51 C 154.94 137.57 154.28 136.71 153.34 136.59 C 152.40 136.46 151.54 137.12 151.41 138.06 Z M 151.28 139.05 L 151.15 140.03 C 151.03 140.97 151.69 141.83 152.63 141.96 C 153.57 142.08 154.43 141.42 154.56 140.48 L 154.69 139.50 C 154.81 138.56 154.15 137.70 153.21 137.57 C 152.27 137.45 151.41 138.11 151.28 139.05 Z M 151.16 140.03 L 151.03 141.02 C 150.91 141.96 151.57 142.82 152.51 142.94 C 153.44 143.06 154.30 142.40 154.43 141.46 L 154.55 140.48 C 154.68 139.54 154.02 138.68 153.08 138.56 C 152.14 138.44 151.28 139.10 151.16 140.03 Z M 151.03 141.02 L 150.90 142.01 C 150.78 142.94 151.44 143.80 152.38 143.92 C 153.31 144.05 154.17 143.39 154.29 142.45 L 154.42 141.46 C 154.55 140.53 153.89 139.67 152.95 139.54 C 152.01 139.42 151.15 140.08 151.03 141.02 Z M 150.90 142.00 L 150.78 142.98 C 150.65 143.92 151.31 144.77 152.25 144.90 C 153.18 145.02 154.04 144.36 154.16 143.43 L 154.29 142.45 C 154.42 141.52 153.76 140.66 152.82 140.53 C 151.89 140.41 151.03 141.07 150.90 142.00 Z M 150.78 142.98 L 150.65 143.95 C 150.52 144.89 151.18 145.74 152.11 145.87 C 153.05 145.99 153.91 145.34 154.03 144.40 L 154.16 143.43 C 154.29 142.49 153.63 141.64 152.69 141.51 C 151.76 141.39 150.90 142.04 150.78 142.98 Z M 150.65 143.95 L 150.52 144.93 C 150.39 145.86 151.05 146.72 151.98 146.84 C 152.92 146.97 153.78 146.31 153.90 145.38 L 154.03 144.40 C 154.16 143.47 153.50 142.61 152.57 142.48 C 151.63 142.36 150.77 143.02 150.65 143.95 Z M 150.52 144.93 L 150.39 145.91 C 150.26 146.84 150.91 147.70 151.85 147.83 C 152.78 147.95 153.64 147.30 153.77 146.36 L 153.90 145.38 C 154.03 144.45 153.37 143.59 152.44 143.46 C 151.50 143.34 150.64 143.99 150.52 144.93 Z M 150.39 145.91 L 150.25 146.89 C 150.13 147.83 150.78 148.69 151.71 148.81 C 152.65 148.94 153.51 148.29 153.63 147.35 L 153.77 146.37 C 153.89 145.43 153.24 144.57 152.31 144.45 C 151.37 144.32 150.51 144.97 150.39 145.91 Z M 150.25 146.89 L 150.12 147.89 C 149.99 148.82 150.64 149.68 151.58 149.81 C 152.51 149.94 153.37 149.28 153.50 148.35 L 153.63 147.35 C 153.76 146.42 153.11 145.56 152.17 145.43 C 151.24 145.31 150.38 145.96 150.25 146.89 Z M 150.12 147.89 L 149.98 148.89 C 149.85 149.82 150.50 150.68 151.44 150.81 C 152.37 150.94 153.23 150.28 153.36 149.35 L 153.50 148.35 C 153.62 147.42 152.97 146.56 152.04 146.43 C 151.11 146.30 150.25 146.95 150.12 147.89 Z M 149.98 148.89 L 149.84 149.89 C 149.71 150.82 150.36 151.68 151.30 151.81 C 152.23 151.94 153.09 151.29 153.22 150.36 L 153.36 149.35 C 153.49 148.42 152.83 147.56 151.90 147.43 C 150.97 147.30 150.11 147.95 149.98 148.89 Z M 149.84 149.89 L 149.70 150.90 C 149.57 151.84 150.22 152.70 151.15 152.83 C 152.09 152.96 152.95 152.31 153.08 151.37 L 153.22 150.36 C 153.35 149.43 152.70 148.57 151.76 148.44 C 150.83 148.31 149.97 148.96 149.84 149.89 Z M 149.70 150.90 L 149.57 151.87 C 149.44 152.81 150.09 153.67 151.02 153.80 C 151.95 153.93 152.81 153.28 152.94 152.35 L 153.07 151.37 C 153.20 150.44 152.56 149.58 151.62 149.45 C 150.69 149.32 149.83 149.97 149.70 150.90 Z M 149.57 151.87 L 149.43 152.84 C 149.30 153.77 149.95 154.63 150.88 154.76 C 151.81 154.89 152.67 154.24 152.80 153.31 L 152.94 152.35 C 153.07 151.42 152.42 150.56 151.49 150.43 C 150.56 150.30 149.70 150.94 149.57 151.87 Z M 149.44 152.84 L 149.30 153.80 C 149.17 154.73 149.82 155.59 150.75 155.72 C 151.68 155.85 152.54 155.21 152.67 154.28 L 152.80 153.31 C 152.93 152.38 152.28 151.52 151.35 151.39 C 150.42 151.26 149.57 151.91 149.44 152.84 Z M 149.30 153.80 L 149.16 154.78 C 149.04 155.71 149.68 156.57 150.61 156.70 C 151.54 156.83 152.40 156.18 152.53 155.25 L 152.66 154.27 C 152.79 153.35 152.15 152.49 151.22 152.36 C 150.29 152.23 149.43 152.88 149.30 153.80 Z M 149.17 154.78 L 149.03 155.77 C 148.90 156.69 149.55 157.55 150.48 157.68 C 151.40 157.81 152.26 157.16 152.39 156.23 L 152.53 155.25 C 152.66 154.32 152.01 153.46 151.08 153.34 C 150.15 153.21 149.29 153.85 149.17 154.78 Z M 149.03 155.77 L 148.89 156.76 C 148.77 157.69 149.42 158.54 150.34 158.67 C 151.27 158.80 152.12 158.15 152.25 157.22 L 152.39 156.23 C 152.52 155.30 151.87 154.45 150.94 154.32 C 150.01 154.19 149.16 154.84 149.03 155.77 Z M 148.90 156.76 L 148.76 157.77 C 148.63 158.69 149.28 159.55 150.21 159.67 C 151.14 159.80 151.99 159.15 152.11 158.22 L 152.25 157.22 C 152.38 156.29 151.73 155.44 150.80 155.32 C 149.87 155.19 149.02 155.84 148.90 156.76 Z M 148.76 157.77 L 148.62 158.78 C 148.50 159.71 149.15 160.56 150.08 160.68 C 151.00 160.81 151.85 160.16 151.98 159.23 L 152.11 158.22 C 152.24 157.29 151.59 156.44 150.66 156.32 C 149.74 156.20 148.88 156.85 148.76 157.77 Z M 148.63 158.79 L 148.49 159.81 C 148.37 160.74 149.02 161.59 149.95 161.71 C 150.87 161.83 151.72 161.18 151.84 160.25 L 151.98 159.23 C 152.10 158.30 151.45 157.45 150.52 157.33 C 149.60 157.21 148.75 157.86 148.63 158.79 Z M 148.49 159.82 L 148.36 160.83 C 148.24 161.75 148.89 162.60 149.82 162.72 C 150.74 162.84 151.59 162.19 151.71 161.26 L 151.84 160.25 C 151.96 159.32 151.31 158.48 150.38 158.36 C 149.46 158.24 148.61 158.89 148.49 159.82 Z M 148.36 160.83 L 148.24 161.80 C 148.12 162.72 148.78 163.57 149.70 163.68 C 150.63 163.80 151.47 163.15 151.59 162.22 L 151.71 161.26 C 151.83 160.33 151.17 159.49 150.25 159.37 C 149.32 159.25 148.48 159.91 148.36 160.83 Z M 148.24 161.80 L 148.12 162.78 C 148.00 163.70 148.66 164.54 149.59 164.66 C 150.51 164.77 151.35 164.12 151.47 163.19 L 151.59 162.22 C 151.70 161.29 151.05 160.45 150.12 160.34 C 149.20 160.22 148.35 160.88 148.24 161.80 Z M 148.12 162.78 L 148.00 163.76 C 147.89 164.69 148.54 165.53 149.47 165.64 C 150.39 165.75 151.23 165.10 151.35 164.17 L 151.47 163.19 C 151.58 162.27 150.92 161.43 150.00 161.31 C 149.07 161.20 148.23 161.86 148.12 162.78 Z M 148.00 163.77 L 147.88 164.76 C 147.77 165.68 148.43 166.52 149.35 166.63 C 150.28 166.74 151.12 166.08 151.23 165.16 L 151.35 164.17 C 151.46 163.25 150.80 162.41 149.87 162.30 C 148.95 162.18 148.11 162.84 148.00 163.77 Z M 147.88 164.76 L 147.76 165.75 C 147.65 166.68 148.31 167.51 149.24 167.62 C 150.16 167.73 151.00 167.08 151.11 166.15 L 151.23 165.16 C 151.34 164.23 150.68 163.40 149.75 163.29 C 148.83 163.18 147.99 163.84 147.88 164.76 Z M 147.76 165.76 L 147.65 166.76 C 147.54 167.68 148.20 168.52 149.12 168.62 C 150.04 168.73 150.88 168.07 150.99 167.15 L 151.11 166.15 C 151.22 165.23 150.56 164.39 149.63 164.28 C 148.71 164.17 147.87 164.83 147.76 165.76 Z M 147.65 166.76 L 147.53 167.76 C 147.42 168.68 148.08 169.52 149.01 169.63 C 149.93 169.74 150.76 169.08 150.87 168.15 L 150.99 167.15 C 151.10 166.23 150.44 165.39 149.51 165.28 C 148.59 165.18 147.75 165.84 147.65 166.76 Z M 147.53 167.76 L 147.41 168.77 C 147.31 169.69 147.97 170.53 148.89 170.63 C 149.81 170.74 150.65 170.08 150.75 169.16 L 150.87 168.15 C 150.98 167.23 150.32 166.39 149.39 166.29 C 148.47 166.18 147.64 166.84 147.53 167.76 Z M 147.41 168.77 L 147.30 169.78 C 147.19 170.70 147.85 171.54 148.77 171.64 C 149.70 171.75 150.53 171.09 150.64 170.17 L 150.75 169.16 C 150.86 168.24 150.20 167.40 149.28 167.30 C 148.35 167.19 147.52 167.85 147.41 168.77 Z M 147.30 169.78 L 147.18 170.79 C 147.08 171.71 147.74 172.54 148.66 172.65 C 149.58 172.76 150.41 172.10 150.52 171.18 L 150.63 170.17 C 150.74 169.24 150.08 168.41 149.16 168.31 C 148.24 168.20 147.41 168.86 147.30 169.78 Z M 147.18 170.79 L 147.07 171.78 C 146.96 172.70 147.62 173.54 148.54 173.64 C 149.46 173.75 150.30 173.09 150.40 172.17 L 150.52 171.18 C 150.62 170.25 149.96 169.42 149.04 169.32 C 148.12 169.21 147.29 169.87 147.18 170.79 Z M 147.07 171.78 L 146.95 172.77 C 146.85 173.69 147.51 174.53 148.43 174.63 C 149.35 174.74 150.18 174.08 150.29 173.16 L 150.40 172.17 C 150.51 171.25 149.85 170.41 148.93 170.31 C 148.01 170.20 147.17 170.86 147.07 171.78 Z M 146.95 172.77 L 146.84 173.77 C 146.73 174.69 147.39 175.52 148.31 175.63 C 149.24 175.73 150.07 175.07 150.18 174.15 L 150.29 173.16 C 150.40 172.24 149.74 171.40 148.81 171.30 C 147.89 171.19 147.06 171.85 146.95 172.77 Z M 146.84 173.77 L 146.72 174.76 C 146.62 175.68 147.28 176.51 148.20 176.62 C 149.12 176.72 149.96 176.06 150.06 175.14 L 150.18 174.15 C 150.28 173.23 149.62 172.40 148.70 172.29 C 147.78 172.18 146.94 172.84 146.84 173.77 Z M 146.72 174.76 L 146.61 175.75 C 146.50 176.67 147.16 177.50 148.09 177.61 C 149.01 177.72 149.84 177.06 149.95 176.13 L 150.06 175.14 C 150.17 174.22 149.51 173.39 148.59 173.28 C 147.66 173.17 146.83 173.84 146.72 174.76 Z M 146.61 175.75 L 146.50 176.74 C 146.39 177.66 147.05 178.50 147.97 178.60 C 148.89 178.71 149.73 178.05 149.83 177.13 L 149.95 176.13 C 150.05 175.21 149.39 174.38 148.47 174.27 C 147.55 174.17 146.72 174.83 146.61 175.75 Z M 146.49 176.74 L 146.38 177.74 C 146.27 178.66 146.94 179.49 147.86 179.60 C 148.78 179.70 149.61 179.04 149.72 178.12 L 149.83 177.13 C 149.94 176.21 149.28 175.37 148.36 175.27 C 147.43 175.16 146.60 175.82 146.49 176.74 Z M 146.38 177.74 L 146.27 178.73 C 146.16 179.65 146.82 180.49 147.74 180.59 C 148.67 180.70 149.50 180.04 149.61 179.12 L 149.72 178.12 C 149.83 177.20 149.16 176.37 148.24 176.26 C 147.32 176.15 146.49 176.81 146.38 177.74 Z M 146.27 178.73 L 146.15 179.73 C 146.05 180.65 146.71 181.48 147.63 181.59 C 148.55 181.70 149.39 181.03 149.49 180.11 L 149.61 179.12 C 149.71 178.19 149.05 177.36 148.13 177.25 C 147.21 177.15 146.37 177.81 146.27 178.73 Z M 146.15 179.73 L 146.04 180.72 C 145.93 181.65 146.59 182.48 147.52 182.59 C 148.44 182.69 149.27 182.03 149.38 181.11 L 149.49 180.11 C 149.60 179.19 148.94 178.35 148.01 178.25 C 147.09 178.14 146.26 178.81 146.15 179.73 Z M 146.04 180.72 L 145.92 181.74 C 145.81 182.66 146.48 183.50 147.40 183.60 C 148.32 183.71 149.16 183.05 149.26 182.12 L 149.38 181.11 C 149.48 180.18 148.82 179.35 147.90 179.25 C 146.98 179.14 146.14 179.80 146.04 180.72 Z M 145.92 181.74 L 145.80 182.77 C 145.70 183.69 146.36 184.52 147.28 184.63 C 148.20 184.73 149.04 184.07 149.14 183.15 L 149.26 182.12 C 149.37 181.20 148.70 180.37 147.78 180.26 C 146.86 180.15 146.03 180.82 145.92 181.74 Z M 145.80 182.77 L 145.69 183.79 C 145.58 184.71 146.24 185.55 147.17 185.65 C 148.09 185.76 148.92 185.09 149.03 184.17 L 149.14 183.15 C 149.25 182.23 148.59 181.39 147.66 181.29 C 146.74 181.18 145.91 181.84 145.80 182.77 Z M 145.69 183.79 L 145.57 184.81 C 145.47 185.74 146.13 186.57 147.05 186.67 C 147.98 186.78 148.81 186.11 148.91 185.19 L 149.03 184.17 C 149.13 183.25 148.47 182.42 147.55 182.31 C 146.62 182.21 145.79 182.87 145.69 183.79 Z M 145.57 184.81 L 145.46 185.83 C 145.35 186.75 146.02 187.58 146.94 187.69 C 147.86 187.79 148.70 187.12 148.80 186.20 L 148.91 185.19 C 149.02 184.27 148.35 183.43 147.43 183.33 C 146.51 183.23 145.67 183.89 145.57 184.81 Z M 145.46 185.83 L 145.35 186.83 C 145.24 187.76 145.91 188.59 146.83 188.69 C 147.76 188.79 148.59 188.13 148.69 187.20 L 148.80 186.20 C 148.90 185.28 148.24 184.45 147.31 184.34 C 146.39 184.24 145.56 184.91 145.46 185.83 Z M 145.35 186.84 L 145.24 187.83 C 145.14 188.75 145.80 189.58 146.73 189.68 C 147.65 189.78 148.48 189.12 148.58 188.19 L 148.69 187.20 C 148.79 186.28 148.12 185.45 147.20 185.35 C 146.28 185.25 145.45 185.91 145.35 186.84 Z M 145.24 187.83 L 145.13 188.81 C 145.03 189.73 145.70 190.56 146.62 190.66 C 147.55 190.76 148.38 190.09 148.48 189.17 L 148.58 188.19 C 148.68 187.27 148.01 186.44 147.09 186.34 C 146.16 186.24 145.34 186.91 145.24 187.83 Z M 145.13 188.81 L 145.03 189.77 C 144.93 190.70 145.60 191.53 146.53 191.62 C 147.45 191.72 148.28 191.05 148.38 190.13 L 148.48 189.16 C 148.57 188.24 147.90 187.41 146.98 187.32 C 146.06 187.22 145.23 187.89 145.13 188.81 Z M 145.03 189.78 L 144.93 190.72 C 144.84 191.65 145.51 192.47 146.44 192.57 C 147.36 192.66 148.18 191.99 148.28 191.06 L 148.38 190.12 C 148.47 189.20 147.80 188.37 146.87 188.28 C 145.95 188.18 145.12 188.85 145.03 189.78 Z M 144.93 190.73 L 144.83 191.72 C 144.74 192.65 145.42 193.47 146.34 193.56 C 147.27 193.66 148.09 192.98 148.18 192.06 L 148.28 191.06 C 148.37 190.14 147.70 189.31 146.77 189.22 C 145.85 189.13 145.02 189.80 144.93 190.73 Z M 144.83 191.73 L 144.73 192.78 C 144.64 193.71 145.32 194.53 146.25 194.62 C 147.17 194.71 147.99 194.03 148.08 193.11 L 148.18 192.05 C 148.27 191.12 147.59 190.30 146.67 190.21 C 145.74 190.12 144.92 190.80 144.83 191.73 Z M 144.73 192.79 L 144.63 193.82 C 144.55 194.75 145.23 195.57 146.16 195.65 C 147.08 195.74 147.90 195.06 147.99 194.13 L 148.08 193.10 C 148.17 192.17 147.49 191.35 146.56 191.27 C 145.63 191.18 144.81 191.86 144.73 192.79 Z M 144.63 193.83 L 144.54 194.84 C 144.46 195.76 145.14 196.58 146.07 196.67 C 147.00 196.75 147.82 196.06 147.90 195.14 L 147.99 194.13 C 148.07 193.20 147.39 192.38 146.46 192.30 C 145.53 192.21 144.71 192.90 144.63 193.83 Z M 144.54 194.84 L 144.45 195.83 C 144.37 196.76 145.06 197.58 145.99 197.66 C 146.92 197.74 147.74 197.05 147.82 196.12 L 147.90 195.13 C 147.98 194.20 147.30 193.38 146.37 193.30 C 145.44 193.22 144.62 193.91 144.54 194.84 Z M 144.45 195.83 L 144.37 196.81 C 144.29 197.74 144.98 198.56 145.91 198.64 C 146.84 198.72 147.66 198.03 147.74 197.10 L 147.82 196.12 C 147.90 195.19 147.21 194.37 146.28 194.29 C 145.35 194.21 144.53 194.90 144.45 195.83 Z M 144.37 196.81 L 144.29 197.78 C 144.21 198.71 144.90 199.53 145.83 199.61 C 146.77 199.68 147.58 198.99 147.66 198.06 L 147.74 197.09 C 147.82 196.16 147.12 195.34 146.19 195.27 C 145.26 195.19 144.44 195.88 144.37 196.81 Z M 144.28 197.78 L 144.21 198.74 C 144.13 199.67 144.82 200.49 145.76 200.57 C 146.69 200.64 147.51 199.95 147.58 199.01 L 147.66 198.06 C 147.74 197.12 147.04 196.31 146.11 196.23 C 145.18 196.15 144.36 196.85 144.28 197.78 Z M 144.20 198.74 L 144.13 199.69 C 144.05 200.63 144.75 201.45 145.68 201.52 C 146.62 201.60 147.43 200.90 147.51 199.97 L 147.59 199.01 C 147.66 198.08 146.97 197.26 146.03 197.19 C 145.10 197.11 144.28 197.81 144.20 198.74 Z M 144.13 199.69 L 144.05 200.67 C 143.97 201.61 144.67 202.43 145.60 202.50 C 146.54 202.58 147.36 201.88 147.43 200.95 L 147.51 199.97 C 147.59 199.03 146.89 198.21 145.95 198.14 C 145.02 198.06 144.20 198.76 144.13 199.69 Z M 144.05 200.68 L 143.97 201.66 C 143.89 202.60 144.59 203.42 145.52 203.49 C 146.46 203.57 147.28 202.87 147.35 201.93 L 147.43 200.95 C 147.51 200.01 146.81 199.19 145.87 199.12 C 144.94 199.04 144.12 199.74 144.05 200.68 Z M 143.97 201.67 L 143.89 202.65 C 143.82 203.59 144.51 204.41 145.45 204.48 C 146.38 204.55 147.20 203.86 147.28 202.92 L 147.35 201.93 C 147.43 201.00 146.73 200.18 145.79 200.11 C 144.86 200.03 144.04 200.73 143.97 201.67 Z M 143.89 202.66 L 143.81 203.65 C 143.74 204.59 144.44 205.40 145.38 205.47 C 146.31 205.54 147.13 204.84 147.20 203.91 L 147.28 202.92 C 147.35 201.98 146.65 201.17 145.71 201.09 C 144.78 201.02 143.96 201.72 143.89 202.66 Z M 143.81 203.66 L 143.74 204.65 C 143.67 205.59 144.37 206.40 145.31 206.47 C 146.24 206.54 147.06 205.83 147.13 204.90 L 147.20 203.90 C 147.27 202.97 146.57 202.15 145.63 202.09 C 144.70 202.02 143.88 202.72 143.81 203.66 Z M 143.74 204.66 L 143.67 205.66 C 143.60 206.59 144.31 207.40 145.25 207.47 C 146.18 207.53 146.99 206.83 147.06 205.89 L 147.13 204.89 C 147.19 203.96 146.49 203.15 145.55 203.08 C 144.62 203.02 143.80 203.72 143.74 204.66 Z M 143.67 205.66 L 143.60 206.67 C 143.54 207.60 144.25 208.41 145.19 208.47 C 146.12 208.54 146.93 207.83 146.99 206.89 L 147.06 205.89 C 147.12 204.95 146.41 204.14 145.47 204.08 C 144.54 204.02 143.73 204.73 143.67 205.66 Z M 143.60 206.68 L 143.54 207.69 C 143.48 208.63 144.20 209.43 145.13 209.49 C 146.07 209.54 146.88 208.83 146.93 207.89 L 146.99 206.88 C 147.05 205.95 146.34 205.14 145.40 205.08 C 144.46 205.03 143.66 205.74 143.60 206.68 Z M 143.54 207.70 L 143.48 208.71 C 143.43 209.64 144.15 210.45 145.09 210.50 C 146.03 210.55 146.83 209.83 146.88 208.89 L 146.93 207.88 C 146.98 206.95 146.27 206.15 145.33 206.09 C 144.39 206.04 143.59 206.76 143.54 207.70 Z M 143.48 208.72 L 143.43 209.72 C 143.39 210.66 144.11 211.46 145.05 211.50 C 145.99 211.55 146.78 210.83 146.83 209.89 L 146.88 208.88 C 146.93 207.95 146.20 207.15 145.27 207.10 C 144.33 207.06 143.53 207.78 143.48 208.72 Z M 143.43 209.73 L 143.39 210.74 C 143.35 211.68 144.07 212.47 145.01 212.51 C 145.95 212.56 146.75 211.83 146.79 210.89 L 146.83 209.88 C 146.87 208.94 146.15 208.15 145.21 208.10 C 144.27 208.06 143.47 208.79 143.43 209.73 Z M 143.39 210.75 L 143.35 211.76 C 143.31 212.70 144.04 213.49 144.98 213.53 C 145.92 213.56 146.71 212.83 146.75 211.89 L 146.79 210.88 C 146.83 209.94 146.10 209.15 145.16 209.11 C 144.21 209.07 143.42 209.81 143.39 210.75 Z M 143.34 211.76 L 143.31 212.77 C 143.27 213.71 144.01 214.50 144.95 214.54 C 145.89 214.57 146.68 213.83 146.72 212.89 L 146.75 211.88 C 146.79 210.94 146.05 210.15 145.11 210.12 C 144.17 210.09 143.38 210.82 143.34 211.76 Z M 143.31 212.78 L 143.27 213.78 C 143.24 214.72 143.98 215.51 144.92 215.54 C 145.87 215.57 146.65 214.83 146.68 213.89 L 146.72 212.89 C 146.75 211.94 146.01 211.16 145.07 211.13 C 144.12 211.09 143.34 211.83 143.31 212.78 Z M 143.27 213.78 L 143.24 214.78 C 143.21 215.72 143.96 216.51 144.90 216.54 C 145.84 216.57 146.63 215.83 146.66 214.88 L 146.69 213.89 C 146.71 212.94 145.97 212.15 145.03 212.13 C 144.09 212.10 143.30 212.84 143.27 213.78 Z M 143.24 214.79 L 143.21 215.77 C 143.19 216.72 143.93 217.50 144.88 217.53 C 145.82 217.55 146.61 216.81 146.63 215.87 L 146.66 214.88 C 146.68 213.93 145.94 213.15 145.00 213.12 C 144.05 213.10 143.27 213.84 143.24 214.79 Z M 143.21 215.78 L 143.19 216.75 C 143.16 217.70 143.91 218.48 144.86 218.51 C 145.80 218.53 146.59 217.78 146.61 216.84 L 146.63 215.86 C 146.66 214.92 145.91 214.13 144.97 214.11 C 144.02 214.08 143.23 214.83 143.21 215.78 Z M 143.19 216.75 L 143.16 217.82 C 143.14 218.76 143.89 219.55 144.83 219.57 C 145.78 219.59 146.56 218.84 146.59 217.90 L 146.61 216.83 C 146.63 215.89 145.88 215.10 144.94 215.08 C 143.99 215.06 143.21 215.81 143.19 216.75 Z M 143.16 217.82 L 143.14 218.87 C 143.12 219.81 143.87 220.60 144.81 220.62 C 145.76 220.64 146.54 219.89 146.56 218.94 L 146.58 217.90 C 146.61 216.95 145.86 216.17 144.91 216.15 C 143.97 216.13 143.18 216.88 143.16 217.82 Z M 143.14 218.87 L 143.12 219.90 C 143.10 220.85 143.85 221.63 144.80 221.64 C 145.74 221.66 146.52 220.91 146.54 219.97 L 146.56 218.94 C 146.58 218.00 145.83 217.21 144.88 217.20 C 143.94 217.18 143.16 217.93 143.14 218.87 Z M 143.12 219.90 L 143.10 220.91 C 143.09 221.86 143.84 222.64 144.78 222.65 C 145.73 222.67 146.51 221.92 146.52 220.97 L 146.54 219.96 C 146.56 219.02 145.81 218.24 144.86 218.22 C 143.92 218.21 143.14 218.96 143.12 219.90 Z M 143.10 220.91 L 143.09 221.90 C 143.07 222.85 143.83 223.62 144.77 223.64 C 145.71 223.65 146.49 222.90 146.51 221.96 L 146.52 220.97 C 146.54 220.03 145.78 219.25 144.84 219.23 C 143.90 219.22 143.12 219.97 143.10 220.91 Z M 143.09 221.91 L 143.07 222.87 C 143.06 223.82 143.82 224.59 144.76 224.61 C 145.70 224.62 146.48 223.86 146.49 222.92 L 146.51 221.95 C 146.52 221.01 145.76 220.23 144.82 220.22 C 143.88 220.21 143.10 220.96 143.09 221.91 Z M 143.07 222.88 L 143.06 223.82 C 143.05 224.76 143.81 225.54 144.75 225.55 C 145.69 225.56 146.47 224.80 146.48 223.86 L 146.49 222.92 C 146.50 221.97 145.75 221.20 144.80 221.19 C 143.86 221.18 143.09 221.93 143.07 222.88 Z M 143.06 223.82 L 143.05 224.80 C 143.05 225.74 143.80 226.52 144.75 226.53 C 145.69 226.54 146.46 225.78 146.47 224.83 L 146.48 223.86 C 146.49 222.91 145.73 222.14 144.79 222.13 C 143.85 222.12 143.07 222.88 143.06 223.82 Z M 143.05 224.81 L 143.05 225.86 C 143.04 226.81 143.80 227.58 144.74 227.58 C 145.69 227.59 146.46 226.83 146.46 225.89 L 146.47 224.83 C 146.48 223.89 145.72 223.12 144.77 223.11 C 143.83 223.10 143.06 223.86 143.05 224.81 Z M 143.05 225.87 L 143.04 226.89 C 143.03 227.84 143.80 228.61 144.74 228.61 C 145.68 228.62 146.45 227.86 146.46 226.91 L 146.46 225.88 C 146.47 224.94 145.71 224.17 144.76 224.17 C 143.82 224.16 143.05 224.92 143.05 225.87 Z M 143.04 226.90 L 143.04 227.90 C 143.03 228.85 143.80 229.62 144.74 229.62 C 145.68 229.62 146.45 228.86 146.46 227.91 L 146.46 226.91 C 146.46 225.96 145.70 225.20 144.75 225.19 C 143.81 225.19 143.04 225.95 143.04 226.90 Z M 143.03 227.90 L 143.03 228.89 C 143.03 229.83 143.80 230.60 144.74 230.60 C 145.69 230.60 146.45 229.84 146.46 228.89 L 146.46 227.91 C 146.46 226.97 145.69 226.20 144.75 226.20 C 143.80 226.19 143.04 226.96 143.03 227.90 Z M 143.03 228.89 L 143.03 229.85 C 143.03 230.80 143.80 231.57 144.74 231.57 C 145.69 231.57 146.46 230.80 146.46 229.86 L 146.46 228.89 C 146.46 227.95 145.69 227.18 144.75 227.18 C 143.80 227.18 143.03 227.94 143.03 228.89 Z M 143.03 229.85 L 143.03 230.80 C 143.03 231.75 143.80 232.52 144.74 232.52 C 145.69 232.52 146.46 231.75 146.46 230.80 L 146.46 229.85 C 146.46 228.91 145.69 228.14 144.74 228.14 C 143.80 228.14 143.03 228.91 143.03 229.85 Z M 143.03 230.80 L 143.03 231.87 C 143.03 232.82 143.80 233.59 144.74 233.59 C 145.69 233.59 146.46 232.82 146.46 231.87 L 146.46 230.80 C 146.46 229.86 145.69 229.09 144.74 229.09 C 143.80 229.09 143.03 229.86 143.03 230.80 Z M 143.03 231.87 L 143.03 232.94 C 143.03 233.89 143.80 234.65 144.74 234.65 C 145.69 234.65 146.45 233.89 146.45 232.94 L 146.45 231.87 C 146.45 230.93 145.69 230.16 144.74 230.16 C 143.80 230.16 143.03 230.93 143.03 231.87 Z M 143.04 232.94 L 143.04 233.98 C 143.04 234.92 143.80 235.68 144.74 235.68 C 145.69 235.68 146.45 234.92 146.45 233.98 L 146.45 232.94 C 146.45 232.00 145.69 231.24 144.74 231.24 C 143.80 231.24 143.04 232.00 143.04 232.94 Z M 143.04 233.98 L 143.04 234.96 C 143.04 235.90 143.80 236.66 144.74 236.66 C 145.68 236.66 146.45 235.90 146.45 234.96 L 146.45 233.98 C 146.45 233.03 145.68 232.27 144.74 232.27 C 143.80 232.27 143.04 233.03 143.04 233.98 Z M 143.04 234.96 L 143.04 235.88 C 143.04 236.82 143.80 237.59 144.74 237.59 C 145.68 237.59 146.45 236.82 146.45 235.88 L 146.45 234.96 C 146.45 234.02 145.68 233.26 144.74 233.26 C 143.80 233.26 143.04 234.02 143.04 234.96 Z M 143.04 235.88 L 143.04 236.82 C 143.04 237.76 143.80 238.52 144.74 238.52 C 145.68 238.52 146.44 237.76 146.44 236.82 L 146.44 235.88 C 146.44 234.95 145.68 234.19 144.74 234.19 C 143.80 234.19 143.04 234.95 143.04 235.88 Z M 143.04 236.83 L 143.05 237.85 C 143.05 238.79 143.81 239.55 144.75 239.55 C 145.69 239.55 146.45 238.78 146.45 237.84 L 146.44 236.82 C 146.44 235.88 145.68 235.12 144.74 235.12 C 143.80 235.13 143.04 235.89 143.04 236.83 Z M 143.05 237.88 L 143.06 238.84 C 143.08 239.78 143.85 240.53 144.79 240.52 C 145.73 240.50 146.48 239.73 146.46 238.79 L 146.45 237.82 C 146.43 236.88 145.66 236.13 144.72 236.15 C 143.78 236.16 143.03 236.94 143.05 237.88 Z M 143.06 238.88 L 143.10 239.84 C 143.13 240.78 143.92 241.52 144.86 241.48 C 145.80 241.44 146.54 240.65 146.50 239.71 L 146.46 238.75 C 146.43 237.81 145.64 237.08 144.70 237.11 C 143.76 237.15 143.02 237.94 143.06 238.88 Z M 143.10 239.89 L 143.16 240.89 C 143.23 241.83 144.04 242.54 144.98 242.48 C 145.92 242.42 146.63 241.61 146.57 240.67 L 146.50 239.67 C 146.44 238.73 145.63 238.02 144.69 238.08 C 143.75 238.14 143.04 238.95 143.10 239.89 Z M 143.17 240.94 L 143.26 241.90 C 143.35 242.83 144.18 243.52 145.11 243.43 C 146.05 243.35 146.74 242.52 146.65 241.58 L 146.56 240.62 C 146.47 239.68 145.64 238.99 144.71 239.08 C 143.77 239.17 143.08 240.00 143.17 240.94 Z M 143.27 241.95 L 143.39 242.95 C 143.51 243.88 144.36 244.54 145.29 244.43 C 146.22 244.31 146.88 243.46 146.77 242.53 L 146.64 241.53 C 146.52 240.60 145.67 239.94 144.74 240.05 C 143.81 240.17 143.15 241.02 143.27 241.95 Z M 143.41 243.02 L 143.58 244.03 C 143.73 244.96 144.60 245.58 145.52 245.43 C 146.45 245.28 147.07 244.40 146.92 243.48 L 146.75 242.46 C 146.60 241.54 145.73 240.92 144.80 241.07 C 143.88 241.22 143.25 242.09 143.41 243.02 Z M 143.60 244.11 L 143.81 245.11 C 144.01 246.02 144.91 246.60 145.82 246.40 C 146.74 246.20 147.31 245.30 147.12 244.39 L 146.90 243.40 C 146.70 242.48 145.80 241.90 144.89 242.10 C 143.98 242.30 143.40 243.20 143.60 244.11 Z M 143.84 245.22 L 144.13 246.20 C 144.39 247.09 145.32 247.61 146.22 247.35 C 147.11 247.09 147.63 246.15 147.37 245.26 L 147.08 244.28 C 146.82 243.38 145.89 242.87 144.99 243.13 C 144.10 243.39 143.58 244.32 143.84 245.22 Z M 144.18 246.32 L 144.54 247.29 C 144.87 248.16 145.84 248.60 146.71 248.27 C 147.58 247.94 148.01 246.97 147.69 246.10 L 147.32 245.13 C 146.99 244.26 146.02 243.83 145.15 244.15 C 144.28 244.48 143.85 245.45 144.18 246.32 Z M 144.59 247.39 L 145.01 248.30 C 145.40 249.14 146.39 249.51 147.23 249.12 C 148.07 248.73 148.44 247.74 148.05 246.90 L 147.63 245.99 C 147.25 245.15 146.25 244.79 145.41 245.17 C 144.57 245.56 144.21 246.56 144.59 247.39 Z M 145.05 248.37 L 145.50 249.23 C 145.93 250.05 146.93 250.37 147.75 249.94 C 148.57 249.52 148.88 248.51 148.46 247.69 L 148.01 246.83 C 147.58 246.01 146.58 245.70 145.76 246.12 C 144.94 246.55 144.63 247.55 145.05 248.37 Z M 145.52 249.26 L 145.94 250.02 C 146.38 250.82 147.39 251.11 148.20 250.67 C 149.00 250.23 149.29 249.22 148.85 248.42 L 148.43 247.66 C 147.99 246.86 146.98 246.56 146.18 247.01 C 145.37 247.45 145.08 248.46 145.52 249.26 Z"
      fill="black"
      fill-rule="nonzero" /><path d="M 155.86 156.43 L 156.65 155.87 C 157.35 155.37 157.52 154.39 157.02 153.69 C 156.52 152.99 155.54 152.82 154.84 153.33 L 154.05 153.89 C 153.35 154.39 153.18 155.36 153.68 156.07 C 154.18 156.77 155.16 156.93 155.86 156.43 Z M 156.57 155.92 L 157.40 155.40 C 158.13 154.94 158.36 153.98 157.90 153.25 C 157.44 152.52 156.48 152.30 155.75 152.75 L 154.92 153.27 C 154.19 153.73 153.96 154.69 154.42 155.43 C 154.88 156.16 155.84 156.38 156.57 155.92 Z M 157.25 155.49 L 158.15 155.05 C 158.93 154.68 159.26 153.75 158.89 152.97 C 158.52 152.20 157.59 151.87 156.81 152.24 L 155.90 152.67 C 155.13 153.04 154.79 153.97 155.17 154.75 C 155.54 155.53 156.47 155.86 157.25 155.49 Z M 157.93 155.14 L 158.90 154.85 C 159.73 154.60 160.20 153.73 159.95 152.91 C 159.71 152.08 158.84 151.61 158.01 151.86 L 157.04 152.15 C 156.21 152.40 155.74 153.27 155.99 154.09 C 156.23 154.92 157.10 155.39 157.93 155.14 Z M 158.68 154.90 L 159.64 154.76 C 160.49 154.63 161.08 153.84 160.96 152.99 C 160.83 152.13 160.04 151.54 159.19 151.67 L 158.23 151.81 C 157.38 151.93 156.79 152.73 156.91 153.58 C 157.04 154.43 157.83 155.02 158.68 154.90 Z M 159.48 154.77 L 160.49 154.73 C 161.35 154.70 162.02 153.97 161.98 153.11 C 161.95 152.25 161.22 151.58 160.36 151.61 L 159.35 151.65 C 158.49 151.69 157.82 152.42 157.85 153.28 C 157.89 154.14 158.61 154.81 159.48 154.77 Z M 160.36 154.73 L 161.38 154.78 C 162.25 154.81 162.97 154.14 163.01 153.28 C 163.04 152.42 162.38 151.69 161.51 151.66 L 160.49 151.61 C 159.62 151.58 158.90 152.25 158.86 153.11 C 158.83 153.97 159.50 154.70 160.36 154.73 Z M 161.27 154.77 L 162.28 154.88 C 163.14 154.98 163.91 154.36 164.01 153.50 C 164.10 152.65 163.49 151.87 162.63 151.78 L 161.62 151.66 C 160.77 151.57 159.99 152.18 159.90 153.04 C 159.80 153.90 160.42 154.67 161.27 154.77 Z M 162.18 154.87 L 163.18 155.04 C 164.02 155.19 164.84 154.63 164.99 153.78 C 165.14 152.93 164.57 152.12 163.73 151.97 L 162.73 151.79 C 161.88 151.64 161.07 152.20 160.92 153.05 C 160.77 153.90 161.33 154.71 162.18 154.87 Z M 163.08 155.02 L 164.04 155.26 C 164.88 155.46 165.72 154.94 165.92 154.11 C 166.13 153.27 165.61 152.42 164.77 152.22 L 163.82 151.99 C 162.98 151.79 162.14 152.30 161.93 153.14 C 161.73 153.98 162.24 154.82 163.08 155.02 Z M 163.96 155.24 L 164.91 155.51 C 165.73 155.76 166.60 155.29 166.85 154.46 C 167.09 153.63 166.62 152.76 165.79 152.52 L 164.85 152.24 C 164.02 152.00 163.15 152.47 162.91 153.30 C 162.67 154.12 163.14 154.99 163.96 155.24 Z M 164.86 155.50 L 165.81 155.82 C 166.63 156.09 167.52 155.64 167.79 154.83 C 168.06 154.01 167.62 153.12 166.80 152.85 L 165.84 152.53 C 165.02 152.26 164.14 152.71 163.87 153.52 C 163.60 154.34 164.04 155.23 164.86 155.50 Z M 165.79 155.81 L 166.69 156.12 C 167.50 156.41 168.39 155.98 168.68 155.17 C 168.97 154.35 168.54 153.46 167.72 153.18 L 166.82 152.86 C 166.01 152.58 165.12 153.00 164.83 153.82 C 164.55 154.63 164.98 155.52 165.79 155.81 Z M 166.68 156.12 L 167.57 156.44 C 168.38 156.73 169.27 156.31 169.56 155.50 C 169.86 154.69 169.43 153.79 168.62 153.50 L 167.73 153.18 C 166.92 152.89 166.03 153.31 165.74 154.12 C 165.45 154.93 165.87 155.83 166.68 156.12 Z M 167.56 156.43 L 168.49 156.77 C 169.29 157.07 170.19 156.65 170.49 155.84 C 170.78 155.04 170.37 154.14 169.56 153.84 L 168.63 153.50 C 167.82 153.21 166.93 153.62 166.63 154.43 C 166.33 155.24 166.75 156.14 167.56 156.43 Z M 168.48 156.77 L 169.44 157.13 C 170.25 157.43 171.15 157.02 171.45 156.21 C 171.75 155.40 171.34 154.50 170.53 154.20 L 169.57 153.84 C 168.76 153.54 167.86 153.96 167.56 154.76 C 167.26 155.57 167.67 156.47 168.48 156.77 Z M 169.44 157.13 L 170.44 157.50 C 171.25 157.81 172.15 157.40 172.45 156.59 C 172.75 155.78 172.34 154.88 171.54 154.58 L 170.53 154.20 C 169.73 153.90 168.83 154.31 168.52 155.12 C 168.22 155.93 168.63 156.83 169.44 157.13 Z M 170.44 157.50 L 171.37 157.86 C 172.18 158.16 173.08 157.75 173.38 156.95 C 173.69 156.14 173.28 155.24 172.47 154.93 L 171.54 154.58 C 170.73 154.28 169.83 154.68 169.53 155.49 C 169.22 156.30 169.63 157.20 170.44 157.50 Z M 171.37 157.85 L 172.29 158.20 C 173.09 158.51 173.99 158.10 174.30 157.30 C 174.60 156.49 174.20 155.59 173.39 155.28 L 172.48 154.93 C 171.67 154.63 170.77 155.03 170.46 155.84 C 170.16 156.65 170.56 157.55 171.37 157.85 Z M 172.28 158.20 L 173.21 158.56 C 174.02 158.87 174.92 158.46 175.23 157.66 C 175.54 156.85 175.14 155.95 174.33 155.64 L 173.40 155.28 C 172.59 154.98 171.69 155.38 171.38 156.18 C 171.07 156.99 171.48 157.89 172.28 158.20 Z M 173.21 158.55 L 174.15 158.92 C 174.96 159.23 175.86 158.83 176.17 158.03 C 176.48 157.22 176.08 156.32 175.28 156.01 L 174.34 155.64 C 173.53 155.33 172.63 155.73 172.32 156.54 C 172.00 157.34 172.40 158.24 173.21 158.55 Z M 174.15 158.92 L 175.09 159.29 C 175.90 159.60 176.80 159.21 177.12 158.41 C 177.43 157.60 177.04 156.70 176.23 156.38 L 175.29 156.01 C 174.48 155.70 173.58 156.09 173.26 156.89 C 172.95 157.70 173.34 158.60 174.15 158.92 Z M 175.09 159.29 L 176.03 159.66 C 176.83 159.98 177.74 159.59 178.06 158.79 C 178.38 157.99 177.99 157.08 177.19 156.76 L 176.24 156.39 C 175.44 156.07 174.53 156.46 174.21 157.26 C 173.90 158.06 174.29 158.97 175.09 159.29 Z M 176.02 159.66 L 176.96 160.04 C 177.76 160.36 178.67 159.98 178.99 159.18 C 179.32 158.38 178.93 157.47 178.13 157.15 L 177.20 156.77 C 176.40 156.44 175.49 156.83 175.17 157.63 C 174.84 158.43 175.23 159.34 176.02 159.66 Z M 176.95 160.04 L 177.88 160.42 C 178.67 160.75 179.59 160.37 179.92 159.58 C 180.25 158.78 179.87 157.87 179.07 157.54 L 178.14 157.15 C 177.35 156.82 176.43 157.20 176.10 158.00 C 175.77 158.79 176.15 159.71 176.95 160.04 Z M 177.87 160.42 L 178.79 160.81 C 179.58 161.14 180.50 160.77 180.83 159.98 C 181.17 159.18 180.80 158.27 180.00 157.93 L 179.08 157.54 C 178.29 157.20 177.37 157.58 177.04 158.37 C 176.70 159.16 177.07 160.08 177.87 160.42 Z M 178.78 160.80 L 179.69 161.20 C 180.48 161.54 181.40 161.17 181.74 160.38 C 182.09 159.59 181.72 158.67 180.93 158.33 L 180.02 157.93 C 179.22 157.59 178.31 157.96 177.96 158.75 C 177.62 159.54 177.99 160.46 178.78 160.80 Z M 179.68 161.19 L 180.59 161.59 C 181.38 161.94 182.30 161.58 182.65 160.80 C 183.00 160.01 182.64 159.09 181.85 158.74 L 180.94 158.34 C 180.15 157.99 179.23 158.34 178.88 159.13 C 178.54 159.92 178.89 160.84 179.68 161.19 Z M 180.58 161.59 L 181.49 162.00 C 182.27 162.35 183.20 162.00 183.55 161.22 C 183.91 160.43 183.56 159.51 182.77 159.15 L 181.86 158.74 C 181.08 158.39 180.15 158.74 179.80 159.52 C 179.44 160.31 179.79 161.23 180.58 161.59 Z M 181.47 161.99 L 182.38 162.41 C 183.17 162.78 184.09 162.44 184.46 161.65 C 184.82 160.87 184.48 159.94 183.70 159.58 L 182.78 159.16 C 182.00 158.80 181.07 159.14 180.71 159.92 C 180.35 160.70 180.69 161.63 181.47 161.99 Z M 182.37 162.41 L 183.28 162.84 C 184.05 163.21 184.99 162.87 185.36 162.10 C 185.73 161.32 185.39 160.39 184.61 160.02 L 183.71 159.59 C 182.93 159.22 182.00 159.55 181.63 160.33 C 181.26 161.11 181.59 162.04 182.37 162.41 Z M 183.26 162.83 L 184.16 163.27 C 184.94 163.65 185.87 163.32 186.25 162.55 C 186.63 161.77 186.30 160.84 185.53 160.46 L 184.63 160.02 C 183.85 159.65 182.92 159.97 182.54 160.74 C 182.16 161.52 182.49 162.45 183.26 162.83 Z M 184.15 163.26 L 185.04 163.71 C 185.81 164.09 186.75 163.78 187.14 163.01 C 187.52 162.24 187.21 161.30 186.44 160.91 L 185.54 160.47 C 184.77 160.08 183.83 160.40 183.45 161.17 C 183.06 161.94 183.38 162.88 184.15 163.26 Z M 185.03 163.70 L 185.92 164.15 C 186.68 164.55 187.62 164.24 188.02 163.48 C 188.41 162.71 188.11 161.77 187.34 161.37 L 186.45 160.92 C 185.68 160.53 184.74 160.83 184.35 161.60 C 183.96 162.37 184.26 163.31 185.03 163.70 Z M 185.90 164.15 L 186.79 164.61 C 187.55 165.01 188.50 164.72 188.90 163.96 C 189.30 163.19 189.01 162.25 188.24 161.85 L 187.35 161.38 C 186.59 160.98 185.65 161.28 185.24 162.04 C 184.84 162.80 185.14 163.75 185.90 164.15 Z M 186.77 164.61 L 187.67 165.09 C 188.43 165.50 189.37 165.21 189.78 164.46 C 190.19 163.70 189.91 162.75 189.15 162.34 L 188.26 161.86 C 187.50 161.45 186.55 161.73 186.14 162.49 C 185.73 163.25 186.02 164.20 186.77 164.61 Z M 187.65 165.08 L 188.54 165.57 C 189.29 165.99 190.24 165.71 190.66 164.96 C 191.08 164.20 190.80 163.25 190.05 162.84 L 189.17 162.35 C 188.41 161.93 187.46 162.20 187.04 162.96 C 186.63 163.71 186.90 164.66 187.65 165.08 Z M 188.52 165.56 L 189.40 166.05 C 190.15 166.48 191.10 166.22 191.52 165.47 C 191.95 164.72 191.68 163.76 190.93 163.34 L 190.06 162.84 C 189.31 162.42 188.36 162.68 187.94 163.43 C 187.51 164.18 187.77 165.14 188.52 165.56 Z M 189.38 166.05 L 190.24 166.54 C 190.99 166.98 191.94 166.72 192.37 165.98 C 192.81 165.23 192.55 164.27 191.80 163.84 L 190.95 163.35 C 190.20 162.91 189.25 163.17 188.81 163.91 C 188.38 164.66 188.64 165.61 189.38 166.05 Z M 190.23 166.54 L 191.07 167.04 C 191.81 167.47 192.77 167.23 193.21 166.49 C 193.65 165.75 193.40 164.79 192.66 164.35 L 191.82 163.85 C 191.08 163.41 190.12 163.66 189.68 164.40 C 189.24 165.14 189.48 166.10 190.23 166.54 Z M 191.06 167.03 L 191.93 167.55 C 192.67 168.00 193.63 167.76 194.07 167.03 C 194.52 166.29 194.28 165.33 193.54 164.88 L 192.67 164.36 C 191.93 163.91 190.97 164.15 190.53 164.88 C 190.08 165.62 190.32 166.58 191.06 167.03 Z M 191.91 167.55 L 192.78 168.08 C 193.51 168.53 194.47 168.31 194.93 167.57 C 195.38 166.84 195.15 165.88 194.42 165.42 L 193.56 164.89 C 192.82 164.44 191.86 164.66 191.41 165.40 C 190.95 166.13 191.18 167.09 191.91 167.55 Z M 192.76 168.07 L 193.61 168.61 C 194.34 169.07 195.30 168.85 195.76 168.12 C 196.22 167.39 196.01 166.43 195.28 165.97 L 194.43 165.43 C 193.70 164.97 192.74 165.19 192.28 165.92 C 191.82 166.65 192.03 167.61 192.76 168.07 Z M 193.60 168.60 L 194.43 169.13 C 195.15 169.60 196.12 169.39 196.59 168.67 C 197.05 167.94 196.85 166.98 196.12 166.51 L 195.29 165.97 C 194.57 165.51 193.60 165.71 193.13 166.44 C 192.66 167.16 192.87 168.13 193.60 168.60 Z M 194.42 169.13 L 195.24 169.67 C 195.96 170.14 196.92 169.94 197.40 169.22 C 197.87 168.50 197.67 167.53 196.95 167.06 L 196.14 166.52 C 195.42 166.04 194.45 166.24 193.97 166.96 C 193.50 167.68 193.70 168.65 194.42 169.13 Z M 195.22 169.66 L 196.05 170.21 C 196.76 170.69 197.73 170.50 198.21 169.79 C 198.69 169.07 198.50 168.10 197.79 167.62 L 196.97 167.07 C 196.25 166.59 195.28 166.78 194.80 167.49 C 194.32 168.21 194.51 169.18 195.22 169.66 Z M 196.04 170.20 L 196.86 170.77 C 197.57 171.26 198.54 171.07 199.03 170.36 C 199.52 169.65 199.33 168.68 198.62 168.19 L 197.80 167.63 C 197.09 167.14 196.12 167.32 195.63 168.03 C 195.14 168.75 195.32 169.72 196.04 170.20 Z M 196.85 170.76 L 197.67 171.33 C 198.38 171.82 199.35 171.65 199.84 170.94 C 200.33 170.23 200.16 169.26 199.45 168.77 L 198.63 168.20 C 197.92 167.71 196.95 167.88 196.46 168.59 C 195.97 169.30 196.14 170.27 196.85 170.76 Z M 197.67 171.33 L 198.49 171.90 C 199.20 172.39 200.17 172.22 200.66 171.51 C 201.15 170.80 200.98 169.83 200.27 169.34 L 199.45 168.77 C 198.74 168.27 197.77 168.45 197.28 169.16 C 196.79 169.87 196.96 170.84 197.67 171.33 Z M 198.49 171.90 L 199.31 172.47 C 200.02 172.96 200.99 172.79 201.49 172.08 C 201.98 171.37 201.80 170.40 201.09 169.91 L 200.27 169.34 C 199.56 168.84 198.59 169.02 198.10 169.73 C 197.61 170.44 197.78 171.41 198.49 171.90 Z M 199.32 172.48 L 200.16 173.06 C 200.87 173.54 201.84 173.36 202.33 172.65 C 202.82 171.94 202.64 170.97 201.93 170.48 L 201.09 169.90 C 200.38 169.42 199.41 169.60 198.92 170.31 C 198.43 171.02 198.61 171.99 199.32 172.48 Z M 200.17 173.06 L 201.02 173.64 C 201.74 174.13 202.71 173.94 203.19 173.23 C 203.68 172.52 203.49 171.55 202.78 171.06 L 201.92 170.48 C 201.21 169.99 200.24 170.18 199.76 170.89 C 199.27 171.60 199.45 172.57 200.17 173.06 Z M 201.02 173.64 L 201.87 174.22 C 202.59 174.70 203.56 174.52 204.04 173.80 C 204.53 173.09 204.34 172.12 203.63 171.64 L 202.78 171.06 C 202.07 170.58 201.09 170.76 200.61 171.48 C 200.13 172.19 200.31 173.16 201.02 173.64 Z M 201.87 174.22 L 202.70 174.78 C 203.41 175.27 204.38 175.08 204.87 174.37 C 205.35 173.65 205.17 172.68 204.45 172.20 L 203.63 171.64 C 202.91 171.15 201.94 171.34 201.46 172.05 C 200.97 172.76 201.16 173.73 201.87 174.22 Z M 202.69 174.78 L 203.48 175.32 C 204.19 175.81 205.17 175.63 205.65 174.92 C 206.14 174.20 205.96 173.23 205.25 172.75 L 204.46 172.20 C 203.75 171.71 202.78 171.90 202.29 172.61 C 201.80 173.32 201.98 174.29 202.69 174.78 Z M 203.47 175.31 L 204.31 175.90 C 205.02 176.39 205.99 176.22 206.48 175.51 C 206.98 174.80 206.80 173.83 206.10 173.34 L 205.26 172.75 C 204.55 172.26 203.58 172.43 203.09 173.14 C 202.59 173.85 202.77 174.82 203.47 175.31 Z M 204.30 175.89 L 205.16 176.50 C 205.86 176.99 206.83 176.83 207.33 176.13 C 207.83 175.42 207.66 174.45 206.96 173.95 L 206.11 173.34 C 205.40 172.84 204.43 173.01 203.93 173.71 C 203.43 174.42 203.60 175.39 204.30 175.89 Z M 205.15 176.50 L 205.96 177.07 C 206.66 177.57 207.64 177.40 208.14 176.70 C 208.63 176.00 208.47 175.02 207.77 174.52 L 206.96 173.95 C 206.26 173.45 205.29 173.62 204.79 174.32 C 204.29 175.02 204.45 176.00 205.15 176.50 Z M 205.97 177.07 L 206.74 177.61 C 207.45 178.11 208.42 177.94 208.92 177.23 C 209.41 176.52 209.24 175.55 208.53 175.06 L 207.76 174.51 C 207.05 174.02 206.08 174.19 205.58 174.90 C 205.09 175.61 205.26 176.58 205.97 177.07 Z M 206.77 177.63 L 207.58 178.18 C 208.30 178.66 209.27 178.47 209.75 177.75 C 210.23 177.04 210.04 176.07 209.32 175.59 L 208.51 175.04 C 207.79 174.56 206.82 174.75 206.34 175.46 C 205.86 176.18 206.05 177.15 206.77 177.63 Z M 207.62 178.20 L 208.48 178.75 C 209.21 179.21 210.17 178.99 210.63 178.26 C 211.09 177.53 210.87 176.57 210.15 176.11 L 209.28 175.56 C 208.55 175.10 207.59 175.32 207.13 176.05 C 206.67 176.78 206.89 177.74 207.62 178.20 Z M 208.53 178.78 L 209.39 179.28 C 210.14 179.71 211.09 179.45 211.53 178.71 C 211.96 177.96 211.70 177.00 210.96 176.57 L 210.09 176.07 C 209.35 175.64 208.39 175.90 207.96 176.64 C 207.53 177.39 207.78 178.35 208.53 178.78 Z M 209.46 179.31 L 210.32 179.76 C 211.09 180.15 212.03 179.85 212.42 179.08 C 212.82 178.32 212.52 177.37 211.75 176.98 L 210.89 176.54 C 210.12 176.14 209.18 176.44 208.79 177.21 C 208.39 177.98 208.69 178.92 209.46 179.31 Z M 210.40 179.79 L 211.33 180.21 C 212.12 180.56 213.04 180.20 213.39 179.41 C 213.74 178.63 213.39 177.70 212.60 177.35 L 211.67 176.94 C 210.88 176.59 209.96 176.95 209.61 177.73 C 209.26 178.52 209.61 179.44 210.40 179.79 Z M 211.40 180.24 L 212.33 180.60 C 213.13 180.91 214.04 180.51 214.35 179.71 C 214.66 178.90 214.26 178.00 213.46 177.69 L 212.53 177.32 C 211.73 177.01 210.82 177.41 210.51 178.22 C 210.20 179.02 210.60 179.92 211.40 180.24 Z M 212.37 180.61 L 213.30 180.94 C 214.11 181.23 215.01 180.81 215.30 180.00 C 215.59 179.19 215.16 178.29 214.35 178.00 L 213.42 177.67 C 212.61 177.38 211.71 177.80 211.42 178.62 C 211.14 179.43 211.56 180.32 212.37 180.61 Z M 213.31 180.95 L 213.59 181.04 C 214.40 181.33 215.29 180.90 215.58 180.08 C 215.86 179.27 215.43 178.38 214.62 178.10 L 214.34 178.00 C 213.52 177.72 212.64 178.15 212.35 178.96 C 212.07 179.77 212.50 180.66 213.31 180.95 Z"
      fill="black"
      fill-rule="nonzero" /></svg>