<svg xmlns="http://www.w3.org/2000/svg" width="300" height="300" viewBox="0 0 300 300">
<path d="M 153.40 69.64 L 152.62 70.18 C 151.91 70.67 151.74 71.64 152.23 72.35 C 152.72 73.06 153.69 73.23 154.40 72.74 L 155.18 72.20 C 155.89 71.71 156.07 70.74 155.58 70.03 C 155.08 69.32 154.11 69.15 153.40 69.64 Z M 152.56 70.22 L 151.80 70.81 C 151.11 71.34 150.99 72.32 151.52 73.00 C 152.04 73.68 153.02 73.81 153.71 73.28 L 154.47 72.70 C 155.15 72.17 155.27 71.19 154.75 70.51 C 154.22 69.82 153.24 69.70 152.56 70.22 Z M 151.68 70.91 L 150.96 71.60 C 150.33 72.19 150.30 73.18 150.89 73.80 C 151.49 74.43 152.47 74.46 153.10 73.87 L 153.82 73.18 C 154.45 72.59 154.48 71.60 153.89 70.98 C 153.29 70.35 152.31 70.32 151.68 70.91 Z M 150.81 71.75 L 150.15 72.57 C 149.61 73.25 149.71 74.23 150.38 74.77 C 151.06 75.31 152.04 75.21 152.58 74.53 L 153.24 73.71 C 153.79 73.04 153.68 72.06 153.01 71.52 C 152.34 70.97 151.35 71.08 150.81 71.75 Z M 150.03 72.75 L 149.53 73.58 C 149.08 74.32 149.32 75.28 150.06 75.72 C 150.80 76.17 151.76 75.93 152.20 75.19 L 152.70 74.36 C 153.15 73.62 152.91 72.66 152.17 72.22 C 151.43 71.77 150.47 72.01 150.03 72.75 Z M 149.46 73.71 L 149.03 74.59 C 148.66 75.37 148.99 76.30 149.76 76.68 C 150.54 77.05 151.47 76.72 151.85 75.95 L 152.27 75.06 C 152.64 74.28 152.32 73.35 151.54 72.98 C 150.76 72.61 149.83 72.93 149.46 73.71 Z M 148.99 74.68 L 148.61 75.63 C 148.28 76.43 148.67 77.34 149.46 77.66 C 150.26 77.99 151.17 77.60 151.50 76.81 L 151.88 75.86 C 152.21 75.06 151.83 74.15 151.03 73.82 C 150.23 73.50 149.32 73.88 148.99 74.68 Z M 148.59 75.68 L 148.23 76.66 C 147.94 77.47 148.36 78.36 149.17 78.66 C 149.98 78.95 150.87 78.53 151.17 77.72 L 151.52 76.75 C 151.81 75.94 151.40 75.04 150.59 74.75 C 149.78 74.46 148.88 74.87 148.59 75.68 Z M 148.22 76.69 L 147.89 77.65 C 147.61 78.47 148.05 79.36 148.87 79.63 C 149.68 79.91 150.57 79.48 150.85 78.66 L 151.18 77.69 C 151.45 76.88 151.02 75.99 150.20 75.71 C 149.39 75.44 148.50 75.87 148.22 76.69 Z M 147.89 77.66 L 147.56 78.63 C 147.29 79.45 147.72 80.33 148.54 80.61 C 149.36 80.88 150.24 80.45 150.52 79.63 L 150.85 78.66 C 151.12 77.84 150.69 76.95 149.87 76.68 C 149.05 76.40 148.17 76.84 147.89 77.66 Z M 147.57 78.62 L 147.23 79.60 C 146.94 80.41 147.37 81.30 148.19 81.58 C 149.00 81.87 149.89 81.44 150.17 80.62 L 150.52 79.64 C 150.80 78.83 150.37 77.94 149.55 77.66 C 148.74 77.37 147.85 77.80 147.57 78.62 Z M 147.23 79.58 L 146.89 80.51 C 146.60 81.32 147.02 82.21 147.83 82.51 C 148.64 82.80 149.53 82.38 149.83 81.57 L 150.17 80.64 C 150.46 79.83 150.04 78.94 149.23 78.64 C 148.42 78.35 147.53 78.77 147.23 79.58 Z M 146.90 80.48 L 146.56 81.39 C 146.25 82.19 146.66 83.10 147.46 83.40 C 148.27 83.71 149.17 83.30 149.48 82.50 L 149.82 81.59 C 150.13 80.79 149.72 79.89 148.92 79.58 C 148.11 79.27 147.21 79.68 146.90 80.48 Z M 146.57 81.36 L 146.21 82.27 C 145.89 83.07 146.28 83.98 147.08 84.30 C 147.88 84.62 148.79 84.23 149.11 83.43 L 149.47 82.52 C 149.79 81.72 149.40 80.81 148.60 80.49 C 147.80 80.17 146.89 80.56 146.57 81.36 Z M 146.22 82.24 L 145.85 83.11 C 145.52 83.91 145.89 84.82 146.69 85.16 C 147.48 85.49 148.40 85.12 148.73 84.32 L 149.10 83.45 C 149.43 82.65 149.05 81.74 148.26 81.41 C 147.46 81.07 146.55 81.45 146.22 82.24 Z M 145.86 83.09 L 145.48 83.97 C 145.13 84.76 145.50 85.68 146.29 86.02 C 147.08 86.37 148.00 86.01 148.34 85.22 L 148.72 84.34 C 149.07 83.55 148.71 82.63 147.92 82.29 C 147.12 81.94 146.20 82.30 145.86 83.09 Z M 145.49 83.95 L 145.08 84.85 C 144.72 85.64 145.07 86.56 145.86 86.92 C 146.65 87.27 147.57 86.92 147.93 86.14 L 148.33 85.24 C 148.69 84.45 148.34 83.52 147.55 83.17 C 146.77 82.81 145.84 83.16 145.49 83.95 Z M 145.09 84.83 L 144.66 85.76 C 144.29 86.54 144.63 87.47 145.41 87.83 C 146.19 88.20 147.12 87.86 147.48 87.08 L 147.92 86.15 C 148.28 85.37 147.94 84.44 147.16 84.08 C 146.38 83.71 145.45 84.05 145.09 84.83 Z M 144.66 85.74 L 144.21 86.69 C 143.83 87.47 144.16 88.40 144.93 88.78 C 145.71 89.15 146.64 88.83 147.02 88.05 L 147.48 87.10 C 147.85 86.32 147.52 85.39 146.75 85.01 C 145.97 84.64 145.04 84.97 144.66 85.74 Z M 144.21 86.68 L 143.77 87.57 C 143.39 88.34 143.71 89.28 144.48 89.66 C 145.25 90.04 146.19 89.72 146.57 88.95 L 147.01 88.06 C 147.39 87.29 147.08 86.35 146.30 85.97 C 145.53 85.59 144.59 85.91 144.21 86.68 Z M 143.78 87.55 L 143.35 88.40 C 142.96 89.17 143.27 90.11 144.04 90.50 C 144.81 90.89 145.75 90.58 146.14 89.81 L 146.57 88.96 C 146.96 88.20 146.65 87.26 145.88 86.87 C 145.11 86.48 144.17 86.78 143.78 87.55 Z M 143.36 88.39 L 142.91 89.26 C 142.51 90.02 142.81 90.96 143.57 91.36 C 144.34 91.76 145.28 91.46 145.68 90.70 L 146.13 89.83 C 146.53 89.06 146.23 88.12 145.46 87.72 C 144.70 87.33 143.76 87.62 143.36 88.39 Z M 142.92 89.24 L 142.44 90.12 C 142.04 90.88 142.32 91.83 143.08 92.24 C 143.84 92.64 144.79 92.36 145.20 91.60 L 145.67 90.71 C 146.08 89.95 145.79 89.01 145.03 88.60 C 144.27 88.19 143.32 88.48 142.92 89.24 Z M 142.45 90.11 L 141.96 91.01 C 141.54 91.76 141.82 92.71 142.57 93.13 C 143.33 93.54 144.28 93.27 144.69 92.51 L 145.19 91.61 C 145.60 90.86 145.33 89.91 144.57 89.49 C 143.82 89.08 142.87 89.35 142.45 90.11 Z M 141.97 90.99 L 141.45 91.91 C 141.02 92.66 141.28 93.61 142.03 94.03 C 142.78 94.46 143.74 94.20 144.16 93.45 L 144.68 92.53 C 145.11 91.78 144.84 90.83 144.09 90.40 C 143.34 89.98 142.39 90.24 141.97 90.99 Z M 141.46 91.89 L 140.96 92.74 C 140.52 93.48 140.78 94.44 141.52 94.87 C 142.26 95.31 143.22 95.06 143.66 94.31 L 144.15 93.46 C 144.59 92.72 144.34 91.76 143.59 91.33 C 142.85 90.89 141.89 91.14 141.46 91.89 Z M 140.97 92.72 L 140.48 93.53 C 140.04 94.27 140.28 95.23 141.02 95.68 C 141.76 96.12 142.71 95.88 143.16 95.14 L 143.65 94.33 C 144.09 93.59 143.85 92.63 143.11 92.19 C 142.37 91.74 141.41 91.98 140.97 92.72 Z M 140.49 93.52 L 139.98 94.34 C 139.53 95.07 139.76 96.04 140.49 96.49 C 141.23 96.94 142.19 96.71 142.64 95.98 L 143.15 95.16 C 143.60 94.42 143.37 93.46 142.64 93.01 C 141.91 92.56 140.94 92.78 140.49 93.52 Z M 139.99 94.33 L 139.46 95.16 C 139.00 95.89 139.22 96.85 139.95 97.32 C 140.68 97.78 141.64 97.56 142.10 96.83 L 142.63 95.99 C 143.09 95.27 142.88 94.30 142.15 93.84 C 141.42 93.38 140.45 93.60 139.99 94.33 Z M 139.47 95.15 L 138.92 96.00 C 138.45 96.72 138.66 97.69 139.38 98.16 C 140.11 98.62 141.07 98.42 141.54 97.69 L 142.09 96.84 C 142.56 96.12 142.36 95.15 141.63 94.69 C 140.91 94.22 139.94 94.42 139.47 95.15 Z M 138.93 95.98 L 138.36 96.85 C 137.88 97.57 138.08 98.53 138.80 99.01 C 139.52 99.49 140.48 99.29 140.96 98.57 L 141.53 97.71 C 142.01 96.99 141.81 96.02 141.10 95.54 C 140.38 95.07 139.41 95.26 138.93 95.98 Z M 138.37 96.83 L 137.77 97.71 C 137.29 98.43 137.47 99.40 138.19 99.88 C 138.90 100.36 139.87 100.18 140.36 99.47 L 140.95 98.59 C 141.44 97.87 141.25 96.90 140.54 96.42 C 139.82 95.93 138.85 96.12 138.37 96.83 Z M 137.78 97.70 L 137.21 98.53 C 136.72 99.23 136.89 100.21 137.60 100.70 C 138.31 101.19 139.28 101.01 139.77 100.30 L 140.35 99.48 C 140.84 98.77 140.66 97.80 139.95 97.31 C 139.24 96.81 138.27 96.99 137.78 97.70 Z M 137.22 98.51 L 136.65 99.31 C 136.16 100.02 136.32 100.99 137.03 101.49 C 137.73 101.99 138.71 101.82 139.20 101.11 L 139.77 100.32 C 140.26 99.61 140.10 98.64 139.39 98.14 C 138.69 97.64 137.71 97.81 137.22 98.51 Z M 136.66 99.30 L 136.08 100.11 C 135.58 100.81 135.74 101.78 136.44 102.29 C 137.14 102.79 138.11 102.63 138.62 101.93 L 139.20 101.12 C 139.70 100.42 139.54 99.45 138.84 98.95 C 138.14 98.44 137.16 98.60 136.66 99.30 Z M 136.09 100.10 L 135.50 100.91 C 134.99 101.60 135.14 102.58 135.84 103.09 C 136.53 103.60 137.51 103.45 138.02 102.75 L 138.61 101.94 C 139.12 101.24 138.97 100.27 138.27 99.76 C 137.57 99.25 136.60 99.40 136.09 100.10 Z M 135.50 100.90 L 134.90 101.71 C 134.39 102.40 134.53 103.38 135.22 103.89 C 135.91 104.41 136.89 104.26 137.41 103.57 L 138.01 102.76 C 138.52 102.07 138.38 101.09 137.69 100.58 C 137.00 100.06 136.02 100.20 135.50 100.90 Z M 134.91 101.70 L 134.30 102.51 C 133.78 103.19 133.91 104.17 134.60 104.69 C 135.29 105.21 136.26 105.08 136.79 104.39 L 137.40 103.58 C 137.92 102.89 137.78 101.92 137.10 101.39 C 136.41 100.87 135.43 101.01 134.91 101.70 Z M 134.30 102.49 L 133.69 103.30 C 133.16 103.98 133.29 104.96 133.97 105.49 C 134.65 106.01 135.63 105.89 136.16 105.20 L 136.78 104.40 C 137.30 103.72 137.18 102.74 136.49 102.21 C 135.81 101.69 134.83 101.81 134.30 102.49 Z M 133.69 103.29 L 133.07 104.08 C 132.54 104.76 132.65 105.74 133.33 106.27 C 134.01 106.81 134.99 106.69 135.52 106.01 L 136.15 105.22 C 136.68 104.54 136.56 103.56 135.89 103.02 C 135.21 102.49 134.23 102.61 133.69 103.29 Z M 133.08 104.07 L 132.45 104.86 C 131.91 105.53 132.02 106.51 132.69 107.05 C 133.36 107.59 134.35 107.48 134.88 106.81 L 135.52 106.02 C 136.05 105.35 135.95 104.37 135.27 103.83 C 134.60 103.29 133.62 103.40 133.08 104.07 Z M 132.46 104.85 L 131.82 105.62 C 131.28 106.29 131.38 107.28 132.04 107.82 C 132.71 108.37 133.70 108.27 134.24 107.60 L 134.88 106.82 C 135.42 106.15 135.32 105.17 134.65 104.62 C 133.99 104.08 133.00 104.18 132.46 104.85 Z M 131.83 105.61 L 131.19 106.38 C 130.64 107.05 130.73 108.03 131.40 108.58 C 132.06 109.13 133.04 109.04 133.59 108.38 L 134.23 107.61 C 134.78 106.95 134.69 105.96 134.03 105.41 C 133.37 104.86 132.38 104.95 131.83 105.61 Z M 131.20 106.37 L 130.56 107.13 C 130.00 107.79 130.08 108.78 130.74 109.33 C 131.40 109.89 132.39 109.81 132.94 109.15 L 133.59 108.39 C 134.14 107.73 134.06 106.74 133.40 106.19 C 132.74 105.63 131.76 105.71 131.20 106.37 Z M 130.57 107.12 L 129.92 107.88 C 129.36 108.53 129.43 109.52 130.09 110.08 C 130.74 110.64 131.73 110.57 132.29 109.91 L 132.93 109.16 C 133.50 108.50 133.42 107.52 132.77 106.96 C 132.11 106.39 131.13 106.47 130.57 107.12 Z M 129.92 107.87 L 129.27 108.62 C 128.70 109.27 128.77 110.26 129.42 110.82 C 130.07 111.39 131.06 111.32 131.63 110.67 L 132.28 109.92 C 132.85 109.27 132.78 108.28 132.13 107.72 C 131.48 107.15 130.49 107.22 129.92 107.87 Z M 129.28 108.61 L 128.62 109.36 C 128.05 110.01 128.11 111.00 128.76 111.57 C 129.40 112.14 130.39 112.07 130.96 111.43 L 131.62 110.68 C 132.19 110.03 132.13 109.05 131.48 108.48 C 130.83 107.91 129.85 107.97 129.28 108.61 Z M 128.62 109.36 L 127.95 110.10 C 127.38 110.75 127.44 111.73 128.08 112.31 C 128.72 112.88 129.71 112.83 130.28 112.18 L 130.95 111.43 C 131.53 110.79 131.47 109.80 130.83 109.23 C 130.18 108.66 129.20 108.71 128.62 109.36 Z M 127.96 110.10 L 127.30 110.83 C 126.72 111.47 126.77 112.46 127.42 113.04 C 128.06 113.61 129.04 113.56 129.62 112.92 L 130.28 112.19 C 130.86 111.55 130.81 110.56 130.16 109.98 C 129.52 109.41 128.54 109.46 127.96 110.10 Z M 127.31 110.83 L 126.64 111.56 C 126.06 112.19 126.11 113.18 126.75 113.76 C 127.38 114.34 128.37 114.29 128.95 113.66 L 129.62 112.93 C 130.20 112.29 130.15 111.30 129.51 110.72 C 128.87 110.14 127.89 110.19 127.31 110.83 Z M 126.65 111.55 L 125.98 112.28 C 125.39 112.92 125.44 113.91 126.07 114.49 C 126.71 115.07 127.70 115.03 128.28 114.39 L 128.95 113.66 C 129.53 113.02 129.49 112.04 128.85 111.45 C 128.22 110.87 127.23 110.92 126.65 111.55 Z M 125.98 112.28 L 125.30 113.01 C 124.72 113.65 124.76 114.63 125.39 115.22 C 126.03 115.80 127.02 115.76 127.60 115.13 L 128.28 114.39 C 128.86 113.76 128.82 112.77 128.18 112.19 C 127.55 111.60 126.56 111.65 125.98 112.28 Z M 125.31 113.01 L 124.62 113.75 C 124.04 114.38 124.08 115.37 124.71 115.95 C 125.34 116.54 126.33 116.50 126.92 115.87 L 127.60 115.13 C 128.18 114.50 128.14 113.51 127.51 112.93 C 126.88 112.34 125.89 112.38 125.31 113.01 Z M 124.63 113.74 L 123.94 114.48 C 123.35 115.11 123.39 116.10 124.02 116.69 C 124.65 117.27 125.64 117.24 126.23 116.61 L 126.91 115.87 C 127.50 115.24 127.46 114.25 126.83 113.66 C 126.20 113.08 125.21 113.11 124.63 113.74 Z M 123.94 114.48 L 123.25 115.22 C 122.66 115.85 122.70 116.84 123.33 117.43 C 123.96 118.01 124.95 117.98 125.54 117.35 L 126.23 116.61 C 126.81 115.98 126.78 114.99 126.15 114.40 C 125.52 113.81 124.53 113.85 123.94 114.48 Z M 123.25 115.22 L 122.56 115.96 C 121.97 116.59 122.01 117.58 122.64 118.17 C 123.27 118.76 124.26 118.72 124.84 118.09 L 125.54 117.35 C 126.12 116.72 126.09 115.73 125.46 115.14 C 124.83 114.55 123.84 114.59 123.25 115.22 Z M 122.56 115.96 L 121.88 116.69 C 121.29 117.32 121.32 118.31 121.95 118.90 C 122.58 119.49 123.57 119.46 124.16 118.83 L 124.84 118.09 C 125.43 117.46 125.40 116.47 124.77 115.88 C 124.14 115.30 123.15 115.33 122.56 115.96 Z M 121.88 116.69 L 121.19 117.43 C 120.60 118.06 120.64 119.04 121.27 119.63 C 121.90 120.22 122.89 120.19 123.48 119.56 L 124.16 118.83 C 124.75 118.19 124.71 117.21 124.08 116.62 C 123.45 116.03 122.46 116.06 121.88 116.69 Z M 121.19 117.43 L 120.51 118.16 C 119.92 118.79 119.96 119.78 120.59 120.37 C 121.22 120.96 122.21 120.92 122.79 120.29 L 123.48 119.56 C 124.07 118.92 124.03 117.94 123.40 117.35 C 122.77 116.76 121.78 116.79 121.19 117.43 Z M 120.51 118.16 L 119.82 118.89 C 119.24 119.53 119.27 120.52 119.91 121.10 C 120.54 121.69 121.53 121.65 122.11 121.02 L 122.80 120.29 C 123.38 119.66 123.35 118.67 122.72 118.08 C 122.08 117.49 121.09 117.53 120.51 118.16 Z M 119.82 118.90 L 119.14 119.63 C 118.55 120.27 118.59 121.25 119.23 121.84 C 119.86 122.43 120.85 122.39 121.44 121.76 L 122.12 121.02 C 122.70 120.39 122.66 119.40 122.03 118.81 C 121.40 118.22 120.41 118.26 119.82 118.90 Z M 119.14 119.63 L 118.46 120.37 C 117.88 121.01 117.92 122.00 118.55 122.58 C 119.19 123.17 120.17 123.12 120.76 122.49 L 121.44 121.75 C 122.02 121.12 121.98 120.13 121.35 119.54 C 120.71 118.96 119.72 119.00 119.14 119.63 Z M 118.46 120.37 L 117.78 121.11 C 117.20 121.75 117.24 122.74 117.88 123.32 C 118.52 123.90 119.51 123.86 120.09 123.22 L 120.76 122.49 C 121.35 121.85 121.30 120.86 120.67 120.28 C 120.03 119.69 119.04 119.74 118.46 120.37 Z M 117.78 121.11 L 117.11 121.85 C 116.53 122.49 116.57 123.48 117.21 124.06 C 117.85 124.64 118.84 124.60 119.42 123.96 L 120.09 123.22 C 120.67 122.58 120.63 121.59 119.99 121.01 C 119.35 120.43 118.36 120.48 117.78 121.11 Z M 117.10 121.86 L 116.43 122.60 C 115.85 123.25 115.90 124.24 116.54 124.81 C 117.18 125.39 118.17 125.34 118.75 124.70 L 119.43 123.95 C 120.01 123.31 119.96 122.32 119.31 121.74 C 118.67 121.16 117.68 121.21 117.10 121.86 Z M 116.42 122.61 L 115.74 123.37 C 115.16 124.01 115.22 125.01 115.86 125.58 C 116.51 126.16 117.50 126.10 118.08 125.46 L 118.76 124.70 C 119.33 124.05 119.28 123.06 118.63 122.48 C 117.99 121.91 117.00 121.96 116.42 122.61 Z M 115.73 123.37 L 115.06 124.13 C 114.48 124.78 114.54 125.77 115.19 126.35 C 115.84 126.92 116.83 126.86 117.41 126.22 L 118.08 125.46 C 118.66 124.81 118.60 123.81 117.95 123.24 C 117.30 122.66 116.31 122.72 115.73 123.37 Z M 115.05 124.14 L 114.39 124.90 C 113.81 125.55 113.88 126.54 114.53 127.11 C 115.18 127.69 116.17 127.62 116.75 126.97 L 117.41 126.21 C 117.99 125.56 117.92 124.57 117.27 123.99 C 116.62 123.42 115.63 123.49 115.05 124.14 Z M 114.38 124.90 L 113.72 125.66 C 113.15 126.31 113.22 127.31 113.87 127.88 C 114.53 128.45 115.52 128.38 116.09 127.72 L 116.75 126.97 C 117.32 126.31 117.26 125.32 116.60 124.75 C 115.95 124.18 114.95 124.24 114.38 124.90 Z M 113.72 125.66 L 113.07 126.41 C 112.50 127.07 112.57 128.07 113.23 128.63 C 113.89 129.20 114.88 129.13 115.45 128.47 L 116.10 127.72 C 116.67 127.06 116.60 126.07 115.94 125.50 C 115.28 124.93 114.28 125.00 113.72 125.66 Z M 113.06 126.42 L 112.42 127.16 C 111.85 127.83 111.93 128.82 112.59 129.39 C 113.25 129.96 114.25 129.88 114.81 129.22 L 115.46 128.47 C 116.02 127.81 115.95 126.81 115.28 126.24 C 114.62 125.68 113.63 125.75 113.06 126.42 Z M 112.41 127.17 L 111.78 127.91 C 111.22 128.58 111.30 129.57 111.96 130.14 C 112.63 130.70 113.62 130.62 114.19 129.96 L 114.82 129.21 C 115.39 128.55 115.30 127.55 114.64 126.99 C 113.97 126.42 112.98 126.50 112.41 127.17 Z M 111.77 127.91 L 111.13 128.67 C 110.57 129.34 110.66 130.34 111.32 130.90 C 111.99 131.47 112.99 131.38 113.55 130.71 L 114.19 129.95 C 114.76 129.29 114.67 128.29 114.00 127.72 C 113.34 127.16 112.34 127.25 111.77 127.91 Z M 111.13 128.68 L 110.47 129.46 C 109.91 130.13 110.00 131.13 110.67 131.69 C 111.34 132.25 112.34 132.16 112.90 131.49 L 113.56 130.71 C 114.12 130.04 114.03 129.04 113.36 128.48 C 112.69 127.92 111.69 128.01 111.13 128.68 Z M 110.47 129.47 L 109.82 130.24 C 109.26 130.92 109.36 131.92 110.03 132.48 C 110.70 133.03 111.70 132.94 112.26 132.27 L 112.91 131.49 C 113.47 130.82 113.37 129.82 112.70 129.26 C 112.03 128.70 111.03 128.79 110.47 129.47 Z M 109.82 130.25 L 109.18 131.02 C 108.62 131.70 108.72 132.70 109.40 133.25 C 110.07 133.81 111.07 133.71 111.63 133.04 L 112.27 132.26 C 112.82 131.59 112.73 130.59 112.05 130.03 C 111.38 129.47 110.38 129.57 109.82 130.25 Z M 109.18 131.02 L 108.55 131.79 C 107.99 132.47 108.09 133.47 108.77 134.03 C 109.45 134.58 110.45 134.48 111.00 133.80 L 111.63 133.04 C 112.19 132.36 112.09 131.36 111.41 130.80 C 110.74 130.24 109.73 130.34 109.18 131.02 Z M 108.54 131.79 L 107.92 132.56 C 107.36 133.24 107.46 134.24 108.14 134.79 C 108.82 135.35 109.82 135.25 110.38 134.57 L 111.01 133.80 C 111.56 133.12 111.46 132.12 110.78 131.57 C 110.10 131.01 109.10 131.11 108.54 131.79 Z M 107.92 132.56 L 107.29 133.32 C 106.74 134.00 106.84 135.01 107.52 135.56 C 108.20 136.12 109.20 136.01 109.76 135.33 L 110.38 134.57 C 110.94 133.89 110.83 132.89 110.15 132.33 C 109.47 131.78 108.47 131.88 107.92 132.56 Z M 107.29 133.32 L 106.67 134.09 C 106.12 134.77 106.22 135.77 106.90 136.33 C 107.58 136.88 108.58 136.78 109.14 136.10 L 109.76 135.33 C 110.32 134.65 110.21 133.65 109.53 133.09 C 108.85 132.54 107.85 132.64 107.29 133.32 Z M 106.67 134.09 L 106.01 134.90 C 105.45 135.58 105.56 136.58 106.24 137.14 C 106.92 137.69 107.93 137.59 108.48 136.91 L 109.14 136.10 C 109.70 135.41 109.59 134.41 108.91 133.86 C 108.23 133.30 107.22 133.40 106.67 134.09 Z M 106.01 134.89 L 105.35 135.70 C 104.79 136.39 104.89 137.39 105.58 137.95 C 106.26 138.51 107.27 138.40 107.82 137.72 L 108.48 136.91 C 109.04 136.23 108.94 135.22 108.25 134.66 C 107.57 134.11 106.56 134.21 106.01 134.89 Z M 105.35 135.70 L 104.69 136.50 C 104.14 137.18 104.24 138.19 104.92 138.75 C 105.61 139.31 106.62 139.21 107.17 138.52 L 107.83 137.72 C 108.38 137.04 108.28 136.03 107.60 135.47 C 106.91 134.91 105.91 135.02 105.35 135.70 Z M 104.69 136.49 L 104.05 137.28 C 103.49 137.96 103.59 138.97 104.28 139.53 C 104.96 140.10 105.97 139.99 106.53 139.31 L 107.17 138.53 C 107.74 137.84 107.63 136.83 106.95 136.27 C 106.26 135.71 105.25 135.81 104.69 136.49 Z M 104.05 137.27 L 103.42 138.04 C 102.86 138.72 102.96 139.74 103.65 140.30 C 104.33 140.86 105.34 140.76 105.91 140.08 L 106.53 139.31 C 107.10 138.63 107.00 137.62 106.31 137.05 C 105.63 136.49 104.61 136.59 104.05 137.27 Z M 103.42 138.03 L 102.81 138.77 C 102.25 139.46 102.34 140.47 103.03 141.04 C 103.71 141.60 104.73 141.51 105.29 140.82 L 105.90 140.08 C 106.47 139.40 106.37 138.38 105.69 137.82 C 105.00 137.25 103.99 137.35 103.42 138.03 Z M 102.81 138.77 L 102.22 139.48 C 101.65 140.16 101.75 141.18 102.43 141.75 C 103.12 142.32 104.13 142.22 104.70 141.54 L 105.29 140.83 C 105.86 140.14 105.77 139.13 105.08 138.56 C 104.40 137.99 103.38 138.08 102.81 138.77 Z M 102.23 139.47 L 101.52 140.31 C 100.95 141.00 101.03 142.01 101.72 142.59 C 102.40 143.16 103.42 143.07 103.99 142.39 L 104.70 141.55 C 105.27 140.86 105.18 139.84 104.50 139.27 C 103.82 138.70 102.80 138.79 102.23 139.47 Z M 101.52 140.30 L 100.84 141.11 C 100.26 141.79 100.35 142.81 101.03 143.39 C 101.71 143.96 102.73 143.88 103.30 143.20 L 103.99 142.40 C 104.56 141.72 104.48 140.70 103.80 140.12 C 103.12 139.54 102.10 139.62 101.52 140.30 Z M 100.85 141.10 L 100.19 141.86 C 99.61 142.54 99.69 143.56 100.36 144.14 C 101.04 144.72 102.06 144.65 102.65 143.97 L 103.30 143.21 C 103.88 142.53 103.81 141.51 103.13 140.93 C 102.45 140.35 101.43 140.42 100.85 141.10 Z M 100.20 141.85 L 99.57 142.58 C 98.98 143.25 99.05 144.27 99.73 144.86 C 100.40 145.45 101.42 145.38 102.01 144.70 L 102.64 143.98 C 103.23 143.30 103.16 142.28 102.48 141.69 C 101.81 141.11 100.79 141.18 100.20 141.85 Z M 99.57 142.57 L 98.96 143.26 C 98.37 143.94 98.43 144.96 99.10 145.55 C 99.77 146.14 100.80 146.08 101.39 145.41 L 102.00 144.71 C 102.60 144.04 102.53 143.02 101.86 142.42 C 101.19 141.83 100.16 141.90 99.57 142.57 Z M 98.96 143.26 L 98.32 143.97 C 97.73 144.64 97.78 145.67 98.45 146.27 C 99.12 146.86 100.15 146.80 100.74 146.14 L 101.39 145.42 C 101.98 144.75 101.92 143.72 101.25 143.13 C 100.59 142.53 99.56 142.59 98.96 143.26 Z M 98.33 143.96 L 97.64 144.72 C 97.04 145.39 97.09 146.41 97.75 147.02 C 98.42 147.62 99.45 147.57 100.05 146.90 L 100.74 146.15 C 101.34 145.48 101.29 144.45 100.62 143.85 C 99.96 143.25 98.93 143.30 98.33 143.96 Z M 97.65 144.70 L 96.97 145.44 C 96.36 146.10 96.40 147.13 97.06 147.74 C 97.72 148.36 98.75 148.32 99.36 147.66 L 100.04 146.92 C 100.65 146.26 100.61 145.23 99.95 144.62 C 99.29 144.01 98.26 144.04 97.65 144.70 Z M 96.98 145.42 L 96.30 146.14 C 95.68 146.79 95.70 147.82 96.36 148.45 C 97.01 149.07 98.04 149.05 98.67 148.39 L 99.35 147.68 C 99.97 147.02 99.95 145.99 99.29 145.37 C 98.64 144.74 97.60 144.77 96.98 145.42 Z M 96.32 146.11 L 95.63 146.81 C 94.99 147.45 95.00 148.49 95.64 149.13 C 96.29 149.76 97.33 149.76 97.96 149.11 L 98.65 148.41 C 99.28 147.77 99.28 146.73 98.63 146.10 C 97.99 145.46 96.95 145.47 96.32 146.11 Z M 95.65 146.78 L 94.93 147.48 C 94.28 148.11 94.27 149.15 94.90 149.80 C 95.54 150.45 96.57 150.47 97.22 149.83 L 97.94 149.14 C 98.59 148.50 98.60 147.47 97.97 146.82 C 97.34 146.17 96.30 146.15 95.65 146.78 Z M 94.96 147.46 L 94.22 148.15 C 93.56 148.77 93.52 149.80 94.14 150.47 C 94.76 151.13 95.80 151.17 96.46 150.55 L 97.20 149.86 C 97.86 149.24 97.90 148.20 97.28 147.54 C 96.66 146.88 95.62 146.84 94.96 147.46 Z M 94.25 148.13 L 93.50 148.80 C 92.83 149.40 92.77 150.44 93.38 151.11 C 93.98 151.79 95.02 151.84 95.69 151.24 L 96.44 150.57 C 97.11 149.96 97.17 148.93 96.56 148.25 C 95.96 147.58 94.92 147.52 94.25 148.13 Z M 93.52 148.78 L 92.77 149.43 C 92.09 150.02 92.01 151.06 92.61 151.74 C 93.20 152.43 94.23 152.50 94.92 151.91 L 95.67 151.26 C 96.35 150.66 96.43 149.63 95.83 148.94 C 95.24 148.26 94.21 148.19 93.52 148.78 Z M 92.79 149.41 L 92.03 150.05 C 91.34 150.63 91.25 151.66 91.83 152.36 C 92.41 153.05 93.44 153.14 94.14 152.56 L 94.90 151.92 C 95.59 151.34 95.68 150.31 95.10 149.62 C 94.52 148.92 93.49 148.83 92.79 149.41 Z M 92.05 150.03 L 91.25 150.68 C 90.55 151.25 90.44 152.29 91.01 152.99 C 91.58 153.69 92.61 153.80 93.32 153.23 L 94.12 152.58 C 94.82 152.00 94.93 150.97 94.36 150.27 C 93.79 149.57 92.76 149.46 92.05 150.03 Z M 91.27 150.67 L 90.47 151.29 C 89.76 151.86 89.63 152.89 90.19 153.60 C 90.76 154.31 91.79 154.44 92.50 153.87 L 93.30 153.24 C 94.01 152.68 94.13 151.65 93.57 150.94 C 93.01 150.23 91.98 150.10 91.27 150.67 Z M 90.48 151.28 L 89.70 151.88 C 88.98 152.44 88.84 153.47 89.39 154.19 C 89.94 154.91 90.98 155.05 91.70 154.49 L 92.49 153.89 C 93.21 153.34 93.34 152.30 92.79 151.58 C 92.24 150.86 91.20 150.73 90.48 151.28 Z M 89.71 151.87 L 88.94 152.45 C 88.21 152.99 88.06 154.02 88.61 154.75 C 89.15 155.48 90.18 155.63 90.91 155.08 L 91.68 154.51 C 92.41 153.96 92.56 152.93 92.02 152.20 C 91.47 151.47 90.44 151.32 89.71 151.87 Z M 88.96 152.43 L 88.18 153.00 C 87.44 153.54 87.28 154.57 87.81 155.30 C 88.35 156.04 89.38 156.20 90.12 155.66 L 90.89 155.10 C 91.63 154.56 91.79 153.53 91.26 152.80 C 90.72 152.06 89.69 151.90 88.96 152.43 Z M 88.20 152.98 L 87.42 153.54 C 86.67 154.06 86.49 155.08 87.01 155.83 C 87.53 156.57 88.56 156.75 89.30 156.23 L 90.09 155.68 C 90.83 155.16 91.01 154.13 90.49 153.39 C 89.97 152.64 88.95 152.46 88.20 152.98 Z M 87.45 153.51 L 86.63 154.06 C 85.87 154.56 85.67 155.58 86.17 156.33 C 86.67 157.09 87.69 157.30 88.44 156.80 L 89.26 156.25 C 90.02 155.75 90.23 154.73 89.73 153.98 C 89.23 153.22 88.21 153.01 87.45 153.51 Z M 86.67 154.03 L 85.79 154.58 C 85.02 155.06 84.78 156.07 85.25 156.84 C 85.73 157.61 86.74 157.85 87.51 157.37 L 88.40 156.82 C 89.17 156.35 89.41 155.34 88.93 154.57 C 88.45 153.80 87.44 153.56 86.67 154.03 Z M 85.83 154.56 L 84.99 155.05 C 84.21 155.50 83.94 156.50 84.39 157.28 C 84.85 158.07 85.85 158.33 86.63 157.88 L 87.47 157.39 C 88.25 156.94 88.52 155.94 88.06 155.16 C 87.61 154.37 86.61 154.11 85.83 154.56 Z M 85.02 155.03 L 84.18 155.49 C 83.39 155.93 83.11 156.92 83.54 157.71 C 83.98 158.51 84.97 158.79 85.77 158.36 L 86.60 157.90 C 87.39 157.46 87.68 156.46 87.24 155.67 C 86.81 154.88 85.81 154.59 85.02 155.03 Z M 84.20 155.48 L 83.32 155.95 C 82.53 156.38 82.23 157.37 82.65 158.17 C 83.08 158.96 84.07 159.26 84.87 158.84 L 85.75 158.37 C 86.54 157.94 86.84 156.95 86.42 156.15 C 85.99 155.35 85.00 155.05 84.20 155.48 Z M 83.34 155.94 L 82.42 156.42 C 81.62 156.84 81.31 157.83 81.73 158.63 C 82.15 159.43 83.14 159.74 83.94 159.32 L 84.85 158.84 C 85.65 158.43 85.96 157.44 85.54 156.64 C 85.13 155.83 84.14 155.52 83.34 155.94 Z M 82.43 156.42 L 81.50 156.90 C 80.69 157.31 80.38 158.30 80.79 159.10 C 81.21 159.91 82.19 160.22 83.00 159.81 L 83.93 159.33 C 84.73 158.91 85.05 157.92 84.64 157.12 C 84.22 156.32 83.23 156.00 82.43 156.42 Z M 81.50 156.90 L 81.00 157.15 C 80.20 157.57 79.88 158.55 80.29 159.36 C 80.71 160.16 81.69 160.48 82.50 160.07 L 82.99 159.81 C 83.80 159.40 84.12 158.41 83.70 157.61 C 83.29 156.80 82.30 156.48 81.50 156.90 Z"
      fill="black"
      fill-rule="nonzero" /><path d="M 127.13 119.74 L 128.07 119.38 C 128.87 119.07 129.27 118.17 128.96 117.36 C 128.66 116.56 127.75 116.16 126.95 116.46 L 126.02 116.82 C 125.21 117.13 124.81 118.03 125.12 118.84 C 125.43 119.64 126.33 120.05 127.13 119.74 Z M 128.06 119.38 L 128.99 119.03 C 129.80 118.73 130.21 117.83 129.90 117.02 C 129.60 116.21 128.70 115.80 127.89 116.11 L 126.96 116.46 C 126.15 116.77 125.74 117.67 126.05 118.47 C 126.35 119.28 127.25 119.69 128.06 119.38 Z M 128.98 119.04 L 129.92 118.69 C 130.73 118.40 131.14 117.50 130.85 116.69 C 130.55 115.88 129.66 115.47 128.85 115.76 L 127.91 116.10 C 127.10 116.40 126.68 117.29 126.97 118.10 C 127.27 118.91 128.17 119.33 128.98 119.04 Z M 129.89 118.70 L 130.83 118.38 C 131.65 118.10 132.08 117.21 131.80 116.40 C 131.52 115.58 130.63 115.15 129.82 115.43 L 128.87 115.75 C 128.06 116.03 127.63 116.92 127.91 117.74 C 128.19 118.55 129.07 118.98 129.89 118.70 Z M 130.80 118.39 L 131.74 118.09 C 132.56 117.83 133.01 116.95 132.75 116.13 C 132.49 115.31 131.61 114.85 130.79 115.12 L 129.85 115.42 C 129.03 115.68 128.58 116.56 128.84 117.38 C 129.10 118.20 129.98 118.65 130.80 118.39 Z M 131.70 118.10 L 132.66 117.82 C 133.49 117.58 133.96 116.71 133.72 115.89 C 133.48 115.06 132.61 114.58 131.79 114.83 L 130.83 115.10 C 130.00 115.35 129.53 116.21 129.77 117.04 C 130.01 117.87 130.87 118.34 131.70 118.10 Z M 132.62 117.83 L 133.59 117.58 C 134.43 117.36 134.93 116.51 134.71 115.68 C 134.49 114.84 133.64 114.34 132.81 114.56 L 131.83 114.81 C 130.99 115.03 130.49 115.88 130.71 116.72 C 130.93 117.55 131.78 118.05 132.62 117.83 Z M 133.55 117.59 L 134.52 117.37 C 135.36 117.18 135.89 116.34 135.69 115.50 C 135.50 114.66 134.67 114.13 133.83 114.33 L 132.85 114.55 C 132.01 114.74 131.49 115.58 131.68 116.42 C 131.87 117.26 132.70 117.78 133.55 117.59 Z M 134.47 117.38 L 135.44 117.19 C 136.29 117.02 136.84 116.20 136.67 115.36 C 136.51 114.51 135.69 113.96 134.84 114.13 L 133.87 114.32 C 133.03 114.48 132.47 115.30 132.64 116.15 C 132.81 116.99 133.63 117.55 134.47 117.38 Z M 135.40 117.20 L 136.39 117.03 C 137.24 116.89 137.81 116.08 137.67 115.23 C 137.53 114.38 136.72 113.81 135.87 113.95 L 134.88 114.12 C 134.03 114.26 133.46 115.06 133.60 115.92 C 133.74 116.77 134.55 117.34 135.40 117.20 Z M 136.35 117.04 L 137.35 116.90 C 138.20 116.78 138.80 115.99 138.68 115.14 C 138.56 114.28 137.77 113.69 136.92 113.81 L 135.91 113.95 C 135.06 114.07 134.47 114.85 134.58 115.71 C 134.70 116.56 135.49 117.16 136.35 117.04 Z M 137.31 116.90 L 138.30 116.79 C 139.15 116.69 139.77 115.92 139.67 115.06 C 139.57 114.21 138.80 113.59 137.94 113.69 L 136.96 113.80 C 136.10 113.90 135.49 114.67 135.58 115.53 C 135.68 116.39 136.45 117.00 137.31 116.90 Z M 138.26 116.79 L 139.24 116.70 C 140.09 116.62 140.73 115.86 140.65 115.00 C 140.57 114.15 139.81 113.51 138.95 113.59 L 137.98 113.68 C 137.12 113.76 136.49 114.52 136.56 115.38 C 136.64 116.24 137.40 116.87 138.26 116.79 Z M 139.21 116.71 L 140.20 116.63 C 141.06 116.56 141.70 115.81 141.64 114.95 C 141.57 114.09 140.82 113.45 139.96 113.52 L 138.97 113.59 C 138.11 113.66 137.47 114.41 137.53 115.27 C 137.60 116.13 138.35 116.77 139.21 116.71 Z M 140.18 116.63 L 141.20 116.56 C 142.06 116.51 142.71 115.76 142.65 114.90 C 142.60 114.04 141.85 113.39 140.99 113.45 L 139.98 113.52 C 139.12 113.57 138.47 114.32 138.52 115.18 C 138.58 116.04 139.32 116.69 140.18 116.63 Z M 141.19 116.56 L 142.22 116.50 C 143.08 116.45 143.73 115.71 143.68 114.85 C 143.63 113.99 142.89 113.33 142.03 113.39 L 141.00 113.45 C 140.14 113.50 139.49 114.24 139.54 115.10 C 139.59 115.96 140.33 116.62 141.19 116.56 Z M 142.21 116.50 L 143.22 116.44 C 144.08 116.39 144.74 115.66 144.69 114.80 C 144.64 113.93 143.90 113.28 143.04 113.33 L 142.03 113.39 C 141.17 113.44 140.52 114.17 140.57 115.03 C 140.62 115.90 141.35 116.55 142.21 116.50 Z M 143.22 116.44 L 144.24 116.39 C 145.10 116.34 145.75 115.60 145.71 114.74 C 145.66 113.88 144.92 113.22 144.06 113.27 L 143.05 113.33 C 142.18 113.37 141.53 114.11 141.57 114.97 C 141.62 115.83 142.36 116.49 143.22 116.44 Z M 144.23 116.39 L 145.24 116.34 C 146.10 116.29 146.76 115.55 146.71 114.69 C 146.67 113.83 145.93 113.17 145.07 113.22 L 144.07 113.27 C 143.20 113.32 142.54 114.05 142.59 114.91 C 142.63 115.77 143.37 116.43 144.23 116.39 Z M 145.23 116.34 L 146.21 116.29 C 147.07 116.24 147.73 115.51 147.69 114.65 C 147.64 113.79 146.91 113.13 146.05 113.17 L 145.08 113.22 C 144.21 113.26 143.55 113.99 143.59 114.85 C 143.64 115.71 144.37 116.38 145.23 116.34 Z M 146.20 116.29 L 147.24 116.24 C 148.10 116.20 148.77 115.47 148.73 114.61 C 148.69 113.75 147.96 113.08 147.10 113.12 L 146.06 113.17 C 145.20 113.21 144.53 113.94 144.57 114.80 C 144.61 115.66 145.34 116.33 146.20 116.29 Z M 147.24 116.24 L 148.25 116.20 C 149.11 116.16 149.78 115.43 149.74 114.57 C 149.71 113.71 148.98 113.04 148.12 113.08 L 147.10 113.12 C 146.24 113.16 145.57 113.89 145.61 114.75 C 145.65 115.61 146.38 116.28 147.24 116.24 Z M 148.25 116.20 L 149.23 116.15 C 150.09 116.12 150.76 115.39 150.72 114.52 C 150.68 113.66 149.95 113.00 149.09 113.03 L 148.12 113.08 C 147.25 113.12 146.59 113.84 146.62 114.71 C 146.66 115.57 147.39 116.23 148.25 116.20 Z M 149.24 116.15 L 150.19 116.11 C 151.06 116.06 151.72 115.33 151.68 114.47 C 151.64 113.61 150.90 112.94 150.04 112.99 L 149.08 113.03 C 148.22 113.08 147.56 113.81 147.60 114.67 C 147.64 115.53 148.38 116.20 149.24 116.15 Z M 150.21 116.11 L 151.19 116.05 C 152.05 116.00 152.71 115.26 152.66 114.40 C 152.61 113.54 151.87 112.88 151.01 112.93 L 150.03 112.99 C 149.17 113.04 148.51 113.78 148.56 114.64 C 148.61 115.50 149.35 116.15 150.21 116.11 Z M 151.20 116.05 L 152.19 115.99 C 153.05 115.93 153.70 115.19 153.64 114.33 C 153.59 113.47 152.85 112.81 151.99 112.87 L 151.00 112.93 C 150.14 112.99 149.48 113.73 149.54 114.59 C 149.59 115.45 150.34 116.10 151.20 116.05 Z M 152.19 115.98 L 153.19 115.92 C 154.05 115.86 154.70 115.11 154.65 114.25 C 154.59 113.39 153.84 112.74 152.98 112.80 L 151.98 112.87 C 151.12 112.93 150.47 113.67 150.53 114.53 C 150.59 115.39 151.33 116.04 152.19 115.98 Z M 153.19 115.92 L 154.21 115.85 C 155.07 115.79 155.72 115.04 155.66 114.18 C 155.60 113.32 154.85 112.67 153.99 112.73 L 152.98 112.80 C 152.12 112.86 151.47 113.61 151.53 114.47 C 151.59 115.33 152.33 115.98 153.19 115.92 Z M 154.20 115.85 L 155.16 115.78 C 156.02 115.73 156.67 114.98 156.62 114.12 C 156.56 113.26 155.81 112.61 154.95 112.67 L 153.99 112.73 C 153.13 112.79 152.48 113.54 152.54 114.40 C 152.60 115.26 153.34 115.91 154.20 115.85 Z M 155.16 115.78 L 156.15 115.72 C 157.01 115.66 157.66 114.91 157.60 114.05 C 157.54 113.19 156.80 112.54 155.94 112.60 L 154.95 112.67 C 154.09 112.73 153.44 113.47 153.50 114.33 C 153.56 115.19 154.30 115.84 155.16 115.78 Z M 156.15 115.72 L 157.16 115.65 C 158.02 115.59 158.67 114.84 158.61 113.98 C 158.55 113.12 157.81 112.47 156.95 112.53 L 155.94 112.60 C 155.08 112.66 154.43 113.41 154.49 114.27 C 154.55 115.13 155.29 115.78 156.15 115.72 Z M 157.17 115.65 L 158.21 115.57 C 159.07 115.51 159.72 114.76 159.65 113.90 C 159.59 113.04 158.84 112.39 157.98 112.46 L 156.94 112.53 C 156.08 112.59 155.44 113.34 155.50 114.20 C 155.56 115.06 156.31 115.71 157.17 115.65 Z M 158.22 115.57 L 159.17 115.50 C 160.03 115.43 160.67 114.68 160.61 113.82 C 160.54 112.96 159.79 112.32 158.93 112.38 L 157.98 112.46 C 157.12 112.52 156.47 113.27 156.54 114.13 C 156.61 114.99 157.36 115.64 158.22 115.57 Z M 159.17 115.50 L 160.15 115.42 C 161.01 115.35 161.65 114.60 161.58 113.74 C 161.52 112.88 160.77 112.24 159.91 112.31 L 158.93 112.38 C 158.07 112.45 157.43 113.20 157.49 114.06 C 157.56 114.92 158.31 115.56 159.17 115.50 Z M 160.14 115.42 L 161.14 115.35 C 162.00 115.28 162.65 114.53 162.59 113.67 C 162.52 112.81 161.77 112.17 160.91 112.23 L 159.91 112.31 C 159.05 112.37 158.41 113.12 158.47 113.98 C 158.53 114.84 159.28 115.48 160.14 115.42 Z M 161.13 115.35 L 162.16 115.28 C 163.02 115.22 163.67 114.48 163.61 113.62 C 163.56 112.76 162.81 112.11 161.95 112.16 L 160.92 112.23 C 160.06 112.29 159.41 113.03 159.47 113.89 C 159.53 114.75 160.27 115.40 161.13 115.35 Z M 162.14 115.28 L 163.15 115.22 C 164.01 115.17 164.67 114.44 164.62 113.58 C 164.57 112.72 163.84 112.06 162.98 112.11 L 161.97 112.16 C 161.11 112.21 160.45 112.95 160.50 113.81 C 160.54 114.67 161.28 115.33 162.14 115.28 Z M 163.14 115.22 L 164.09 115.18 C 164.95 115.14 165.62 114.41 165.58 113.55 C 165.54 112.69 164.81 112.02 163.95 112.06 L 162.99 112.10 C 162.13 112.14 161.47 112.87 161.50 113.73 C 161.54 114.60 162.27 115.26 163.14 115.22 Z M 164.08 115.18 L 165.05 115.14 C 165.92 115.11 166.59 114.38 166.55 113.52 C 166.52 112.66 165.80 111.99 164.93 112.02 L 163.96 112.06 C 163.10 112.09 162.42 112.82 162.46 113.68 C 162.49 114.54 163.22 115.21 164.08 115.18 Z M 165.05 115.14 L 166.05 115.11 C 166.91 115.08 167.59 114.36 167.56 113.49 C 167.53 112.63 166.80 111.96 165.94 111.99 L 164.94 112.02 C 164.08 112.05 163.40 112.77 163.43 113.64 C 163.46 114.50 164.19 115.17 165.05 115.14 Z M 166.05 115.11 L 167.08 115.07 C 167.94 115.05 168.62 114.32 168.59 113.46 C 168.56 112.60 167.84 111.93 166.98 111.95 L 165.94 111.99 C 165.08 112.02 164.41 112.74 164.44 113.60 C 164.46 114.46 165.19 115.14 166.05 115.11 Z M 167.08 115.07 L 168.13 115.04 C 168.99 115.01 169.67 114.29 169.64 113.42 C 169.61 112.56 168.89 111.89 168.02 111.92 L 166.97 111.95 C 166.11 111.98 165.44 112.71 165.47 113.57 C 165.50 114.43 166.22 115.10 167.08 115.07 Z M 168.14 115.04 L 169.12 115.00 C 169.98 114.97 170.65 114.25 170.62 113.38 C 170.59 112.52 169.87 111.85 169.00 111.88 L 168.02 111.92 C 167.16 111.95 166.49 112.67 166.52 113.54 C 166.55 114.40 167.27 115.07 168.14 115.04 Z M 169.12 115.00 L 170.12 114.96 C 170.98 114.93 171.66 114.20 171.62 113.34 C 171.59 112.48 170.86 111.81 170.00 111.84 L 169.00 111.88 C 168.14 111.92 167.47 112.64 167.50 113.50 C 167.53 114.36 168.26 115.04 169.12 115.00 Z M 170.12 114.96 L 171.13 114.92 C 172.00 114.89 172.67 114.16 172.63 113.30 C 172.60 112.44 171.87 111.77 171.01 111.80 L 170.00 111.84 C 169.14 111.88 168.47 112.60 168.50 113.46 C 168.54 114.33 169.26 115.00 170.12 114.96 Z M 171.13 114.92 L 172.14 114.88 C 173.01 114.85 173.68 114.12 173.64 113.26 C 173.61 112.40 172.88 111.73 172.02 111.76 L 171.01 111.80 C 170.15 111.84 169.48 112.56 169.51 113.42 C 169.55 114.29 170.27 114.96 171.13 114.92 Z M 172.14 114.88 L 173.14 114.85 C 174.01 114.81 174.68 114.09 174.65 113.23 C 174.61 112.37 173.89 111.69 173.03 111.73 L 172.02 111.76 C 171.16 111.80 170.49 112.52 170.52 113.38 C 170.56 114.24 171.28 114.92 172.14 114.88 Z M 173.14 114.85 L 174.15 114.81 C 175.01 114.78 175.68 114.06 175.65 113.20 C 175.62 112.33 174.90 111.66 174.03 111.69 L 173.03 111.73 C 172.17 111.76 171.49 112.48 171.53 113.34 C 171.56 114.20 172.28 114.88 173.14 114.85 Z M 174.14 114.81 L 175.17 114.78 C 176.03 114.75 176.71 114.03 176.68 113.17 C 176.65 112.30 175.93 111.63 175.07 111.66 L 174.04 111.69 C 173.18 111.72 172.50 112.44 172.53 113.30 C 172.56 114.16 173.28 114.84 174.14 114.81 Z M 175.16 114.78 L 176.17 114.75 C 177.04 114.72 177.71 114.00 177.69 113.14 C 177.66 112.28 176.94 111.60 176.08 111.63 L 175.07 111.66 C 174.21 111.68 173.53 112.40 173.56 113.26 C 173.58 114.13 174.30 114.80 175.16 114.78 Z M 176.17 114.75 L 177.16 114.72 C 178.02 114.70 178.70 113.98 178.68 113.12 C 178.66 112.25 177.94 111.58 177.08 111.60 L 176.08 111.63 C 175.22 111.65 174.54 112.37 174.57 113.23 C 174.59 114.09 175.31 114.77 176.17 114.75 Z M 177.16 114.72 L 178.14 114.69 C 179.00 114.67 179.68 113.96 179.66 113.09 C 179.64 112.23 178.92 111.55 178.06 111.57 L 177.08 111.60 C 176.22 111.62 175.54 112.34 175.56 113.20 C 175.58 114.06 176.30 114.74 177.16 114.72 Z M 178.14 114.69 L 179.12 114.67 C 179.98 114.65 180.66 113.93 180.64 113.07 C 180.62 112.21 179.90 111.53 179.04 111.55 L 178.06 111.57 C 177.20 111.60 176.52 112.31 176.54 113.17 C 176.56 114.04 177.28 114.72 178.14 114.69 Z M 179.12 114.67 L 180.13 114.65 C 180.99 114.62 181.67 113.91 181.65 113.05 C 181.63 112.18 180.91 111.50 180.05 111.52 L 179.04 111.55 C 178.18 111.57 177.50 112.29 177.52 113.15 C 177.54 114.01 178.26 114.69 179.12 114.67 Z M 180.13 114.65 L 181.14 114.62 C 182.00 114.60 182.68 113.88 182.66 113.02 C 182.64 112.16 181.92 111.48 181.06 111.50 L 180.05 111.52 C 179.19 111.55 178.51 112.26 178.53 113.12 C 178.55 113.99 179.27 114.67 180.13 114.65 Z M 181.14 114.62 L 182.15 114.59 C 183.01 114.57 183.69 113.86 183.67 112.99 C 183.65 112.13 182.93 111.45 182.07 111.47 L 181.06 111.50 C 180.20 111.52 179.52 112.24 179.54 113.10 C 179.56 113.96 180.28 114.64 181.14 114.62 Z M 182.15 114.59 L 183.14 114.57 C 184.00 114.55 184.69 113.83 184.66 112.97 C 184.64 112.11 183.93 111.43 183.06 111.45 L 182.07 111.47 C 181.21 111.49 180.52 112.21 180.55 113.07 C 180.57 113.94 181.29 114.62 182.15 114.59 Z M 183.14 114.57 L 184.12 114.54 C 184.99 114.52 185.67 113.80 185.64 112.94 C 185.62 112.08 184.91 111.40 184.04 111.42 L 183.06 111.45 C 182.20 111.47 181.52 112.19 181.54 113.05 C 181.56 113.91 182.28 114.59 183.14 114.57 Z M 184.13 114.54 L 185.15 114.52 C 186.01 114.49 186.69 113.78 186.67 112.91 C 186.65 112.05 185.93 111.37 185.07 111.40 L 184.04 111.42 C 183.18 111.44 182.50 112.16 182.52 113.02 C 182.55 113.89 183.26 114.57 184.13 114.54 Z M 185.15 114.52 L 186.19 114.49 C 187.05 114.47 187.73 113.75 187.71 112.89 C 187.68 112.03 186.97 111.35 186.11 111.37 L 185.07 111.40 C 184.21 111.42 183.53 112.13 183.55 113.00 C 183.57 113.86 184.29 114.54 185.15 114.52 Z M 186.18 114.49 L 187.19 114.46 C 188.06 114.44 188.74 113.73 188.72 112.86 C 188.69 112.00 187.98 111.32 187.12 111.34 L 186.11 111.37 C 185.25 111.39 184.56 112.11 184.59 112.97 C 184.61 113.83 185.32 114.51 186.18 114.49 Z M 187.19 114.46 L 188.17 114.44 C 189.03 114.42 189.71 113.71 189.69 112.85 C 189.67 111.98 188.96 111.30 188.10 111.32 L 187.12 111.34 C 186.26 111.36 185.57 112.08 185.59 112.94 C 185.61 113.80 186.33 114.48 187.19 114.46 Z M 188.16 114.44 L 189.11 114.43 C 189.97 114.41 190.66 113.70 190.64 112.84 C 190.62 111.97 189.91 111.29 189.05 111.30 L 188.10 111.32 C 187.24 111.34 186.56 112.05 186.57 112.91 C 186.59 113.77 187.30 114.46 188.16 114.44 Z M 189.10 114.43 L 190.15 114.41 C 191.01 114.40 191.70 113.69 191.69 112.83 C 191.68 111.97 190.97 111.28 190.11 111.29 L 189.06 111.30 C 188.20 111.31 187.51 112.02 187.52 112.88 C 187.53 113.75 188.24 114.44 189.10 114.43 Z M 190.14 114.41 L 191.17 114.41 C 192.03 114.40 192.72 113.70 192.72 112.83 C 192.71 111.97 192.01 111.28 191.14 111.28 L 190.12 111.29 C 189.26 111.30 188.56 112.00 188.57 112.86 C 188.58 113.72 189.28 114.42 190.14 114.41 Z M 191.16 114.41 L 192.14 114.40 C 193.00 114.40 193.70 113.70 193.70 112.84 C 193.70 111.97 192.99 111.28 192.13 111.28 L 191.15 111.28 C 190.29 111.29 189.59 111.99 189.59 112.85 C 189.60 113.71 190.30 114.41 191.16 114.41 Z M 192.14 114.40 L 193.08 114.40 C 193.94 114.40 194.64 113.70 194.64 112.84 C 194.64 111.98 193.94 111.28 193.08 111.28 L 192.14 111.28 C 191.27 111.28 190.57 111.98 190.58 112.84 C 190.58 113.70 191.27 114.40 192.14 114.40 Z M 193.08 114.40 L 194.03 114.40 C 194.89 114.40 195.59 113.70 195.59 112.84 C 195.59 111.98 194.89 111.28 194.03 111.28 L 193.08 111.28 C 192.22 111.28 191.52 111.98 191.52 112.84 C 191.52 113.70 192.22 114.40 193.08 114.40 Z M 194.03 114.40 L 194.98 114.40 C 195.84 114.40 196.54 113.70 196.54 112.84 C 196.54 111.98 195.84 111.28 194.98 111.28 L 194.03 111.28 C 193.17 111.28 192.47 111.98 192.47 112.84 C 192.47 113.70 193.17 114.40 194.03 114.40 Z M 194.98 114.40 L 195.98 114.40 C 196.84 114.40 197.54 113.70 197.54 112.84 C 197.54 111.98 196.84 111.28 195.98 111.28 L 194.98 111.28 C 194.12 111.28 193.42 111.98 193.42 112.84 C 193.42 113.70 194.12 114.40 194.98 114.40 Z M 195.98 114.40 L 197.07 114.40 C 197.93 114.40 198.63 113.70 198.63 112.84 C 198.63 111.98 197.93 111.28 197.07 111.28 L 195.98 111.28 C 195.12 111.28 194.42 111.98 194.42 112.84 C 194.42 113.70 195.12 114.40 195.98 114.40 Z M 197.07 114.40 L 198.04 114.40 C 198.90 114.41 199.60 113.71 199.60 112.85 C 199.60 111.98 198.91 111.28 198.05 111.28 L 197.07 111.28 C 196.21 111.28 195.51 111.98 195.51 112.84 C 195.51 113.70 196.21 114.40 197.07 114.40 Z M 198.02 114.40 L 199.04 114.42 C 199.90 114.43 200.61 113.74 200.62 112.88 C 200.64 112.02 199.95 111.31 199.08 111.30 L 198.06 111.28 C 197.20 111.27 196.49 111.96 196.48 112.82 C 196.47 113.68 197.16 114.39 198.02 114.40 Z M 199.00 114.42 L 200.03 114.46 C 200.90 114.49 201.62 113.82 201.65 112.96 C 201.69 112.09 201.01 111.37 200.15 111.34 L 199.12 111.30 C 198.26 111.26 197.53 111.94 197.50 112.80 C 197.47 113.66 198.14 114.38 199.00 114.42 Z M 199.98 114.45 L 200.98 114.53 C 201.84 114.59 202.59 113.95 202.65 113.09 C 202.72 112.23 202.08 111.48 201.22 111.42 L 200.21 111.34 C 199.35 111.27 198.60 111.92 198.54 112.78 C 198.47 113.64 199.12 114.39 199.98 114.45 Z M 200.89 114.52 L 201.89 114.66 C 202.75 114.77 203.53 114.17 203.65 113.32 C 203.77 112.47 203.17 111.68 202.31 111.56 L 201.31 111.43 C 200.45 111.31 199.67 111.91 199.55 112.76 C 199.43 113.62 200.03 114.40 200.89 114.52 Z M 201.74 114.63 L 202.82 114.88 C 203.65 115.08 204.50 114.56 204.70 113.73 C 204.89 112.89 204.38 112.04 203.54 111.85 L 202.46 111.59 C 201.62 111.39 200.78 111.91 200.58 112.75 C 200.38 113.59 200.90 114.43 201.74 114.63 Z M 202.61 114.82 L 203.53 115.18 C 204.34 115.49 205.24 115.09 205.56 114.29 C 205.87 113.49 205.47 112.58 204.67 112.27 L 203.74 111.91 C 202.94 111.60 202.03 111.99 201.72 112.80 C 201.41 113.60 201.81 114.51 202.61 114.82 Z M 203.29 115.06 L 204.07 115.53 C 204.81 115.98 205.77 115.74 206.22 115.00 C 206.66 114.26 206.42 113.30 205.69 112.86 L 204.91 112.39 C 204.17 111.94 203.21 112.18 202.76 112.92 C 202.32 113.66 202.56 114.62 203.29 115.06 Z M 203.82 115.34 L 204.48 115.95 C 205.11 116.53 206.10 116.49 206.68 115.85 C 207.27 115.22 207.23 114.23 206.59 113.65 L 205.94 113.04 C 205.30 112.46 204.31 112.50 203.73 113.14 C 203.15 113.77 203.19 114.76 203.82 115.34 Z M 204.26 115.69 L 204.78 116.45 C 205.28 117.15 206.25 117.33 206.96 116.83 C 207.67 116.34 207.84 115.36 207.34 114.66 L 206.81 113.90 C 206.32 113.20 205.35 113.02 204.64 113.52 C 203.93 114.01 203.76 114.99 204.26 115.69 Z M 204.63 116.18 L 205.04 117.10 C 205.38 117.89 206.30 118.25 207.09 117.90 C 207.88 117.55 208.24 116.63 207.90 115.84 L 207.49 114.93 C 207.15 114.14 206.23 113.78 205.44 114.12 C 204.65 114.47 204.29 115.39 204.63 116.18 Z M 204.96 116.87 L 205.24 117.95 C 205.46 118.79 206.32 119.28 207.15 119.06 C 207.99 118.84 208.48 117.99 208.26 117.15 L 207.97 116.07 C 207.75 115.24 206.90 114.74 206.07 114.96 C 205.23 115.18 204.74 116.04 204.96 116.87 Z M 205.21 117.80 L 205.36 118.74 C 205.50 119.59 206.30 120.17 207.15 120.03 C 208.01 119.89 208.58 119.09 208.45 118.24 L 208.29 117.30 C 208.16 116.45 207.35 115.87 206.50 116.01 C 205.65 116.15 205.07 116.95 205.21 117.80 Z M 205.35 118.64 L 205.45 119.64 C 205.53 120.50 206.29 121.13 207.15 121.04 C 208.01 120.96 208.64 120.20 208.55 119.34 L 208.46 118.34 C 208.38 117.48 207.61 116.85 206.76 116.93 C 205.90 117.02 205.27 117.78 205.35 118.64 Z M 205.44 119.55 L 205.48 120.58 C 205.51 121.44 206.23 122.12 207.10 122.08 C 207.96 122.05 208.63 121.33 208.60 120.47 L 208.56 119.43 C 208.53 118.57 207.80 117.90 206.94 117.93 C 206.08 117.96 205.41 118.69 205.44 119.55 Z M 205.48 120.49 L 205.46 121.51 C 205.44 122.38 206.12 123.09 206.98 123.11 C 207.84 123.13 208.56 122.44 208.58 121.58 L 208.60 120.56 C 208.62 119.70 207.93 118.98 207.07 118.96 C 206.21 118.94 205.50 119.63 205.48 120.49 Z M 205.46 121.41 L 205.37 122.42 C 205.30 123.28 205.93 124.04 206.79 124.11 C 207.65 124.19 208.41 123.55 208.48 122.69 L 208.57 121.68 C 208.65 120.83 208.01 120.07 207.15 119.99 C 206.29 119.92 205.54 120.55 205.46 121.41 Z M 205.39 122.30 L 205.22 123.30 C 205.08 124.15 205.65 124.96 206.50 125.10 C 207.35 125.25 208.15 124.67 208.30 123.82 L 208.47 122.82 C 208.61 121.96 208.04 121.16 207.19 121.02 C 206.34 120.87 205.53 121.45 205.39 122.30 Z M 205.24 123.18 L 205.00 124.14 C 204.80 124.97 205.30 125.82 206.14 126.03 C 206.98 126.24 207.82 125.73 208.03 124.90 L 208.27 123.94 C 208.48 123.11 207.97 122.26 207.14 122.05 C 206.30 121.84 205.45 122.35 205.24 123.18 Z M 205.03 124.04 L 204.73 124.97 C 204.47 125.79 204.92 126.67 205.74 126.93 C 206.56 127.20 207.44 126.74 207.71 125.92 L 208.01 125.00 C 208.27 124.17 207.82 123.29 207.00 123.03 C 206.18 122.77 205.30 123.22 205.03 124.04 Z M 204.76 124.90 L 204.41 125.83 C 204.11 126.64 204.51 127.54 205.32 127.84 C 206.13 128.14 207.03 127.73 207.33 126.93 L 207.68 125.99 C 207.98 125.19 207.58 124.29 206.77 123.98 C 205.96 123.68 205.06 124.09 204.76 124.90 Z M 204.42 125.79 L 204.07 126.65 C 203.75 127.45 204.13 128.36 204.93 128.69 C 205.73 129.01 206.64 128.63 206.97 127.83 L 207.32 126.97 C 207.64 126.17 207.26 125.26 206.46 124.93 C 205.66 124.60 204.75 124.99 204.42 125.79 Z M 204.08 126.62 L 203.70 127.51 C 203.35 128.31 203.72 129.23 204.51 129.57 C 205.31 129.91 206.23 129.55 206.57 128.75 L 206.96 127.86 C 207.30 127.07 206.93 126.15 206.14 125.80 C 205.34 125.46 204.42 125.83 204.08 126.62 Z M 203.70 127.49 L 203.29 128.40 C 202.93 129.19 203.28 130.12 204.07 130.48 C 204.86 130.84 205.79 130.49 206.15 129.70 L 206.56 128.78 C 206.92 127.99 206.57 127.06 205.78 126.70 C 204.99 126.35 204.06 126.70 203.70 127.49 Z M 203.30 128.38 L 202.85 129.33 C 202.49 130.11 202.83 131.05 203.61 131.42 C 204.40 131.79 205.33 131.45 205.70 130.66 L 206.14 129.72 C 206.51 128.93 206.17 127.99 205.39 127.63 C 204.60 127.26 203.66 127.60 203.30 128.38 Z M 202.86 129.31 L 202.41 130.24 C 202.03 131.03 202.36 131.97 203.14 132.35 C 203.93 132.72 204.87 132.40 205.25 131.61 L 205.70 130.68 C 206.07 129.89 205.75 128.95 204.96 128.57 C 204.18 128.20 203.24 128.53 202.86 129.31 Z M 202.41 130.23 L 201.99 131.09 C 201.60 131.87 201.92 132.82 202.70 133.20 C 203.48 133.59 204.43 133.27 204.82 132.49 L 205.24 131.63 C 205.63 130.85 205.31 129.90 204.53 129.51 C 203.74 129.13 202.80 129.45 202.41 130.23 Z M 201.99 131.08 L 201.55 131.96 C 201.16 132.74 201.47 133.68 202.25 134.08 C 203.03 134.47 203.98 134.16 204.37 133.38 L 204.81 132.50 C 205.20 131.72 204.89 130.77 204.11 130.38 C 203.33 129.99 202.39 130.30 201.99 131.08 Z M 201.56 131.95 L 201.10 132.84 C 200.70 133.61 201.01 134.56 201.78 134.96 C 202.56 135.36 203.51 135.06 203.90 134.28 L 204.36 133.39 C 204.76 132.61 204.46 131.66 203.68 131.26 C 202.91 130.87 201.95 131.17 201.56 131.95 Z M 201.10 132.83 L 200.63 133.73 C 200.23 134.50 200.52 135.46 201.30 135.86 C 202.07 136.27 203.02 135.97 203.43 135.20 L 203.90 134.29 C 204.30 133.52 204.01 132.57 203.23 132.16 C 202.46 131.76 201.51 132.06 201.10 132.83 Z M 200.64 133.72 L 200.15 134.64 C 199.74 135.41 200.03 136.36 200.80 136.77 C 201.57 137.18 202.52 136.89 202.93 136.12 L 203.42 135.21 C 203.83 134.44 203.54 133.48 202.77 133.07 C 202.00 132.66 201.05 132.95 200.64 133.72 Z M 200.15 134.63 L 199.69 135.48 C 199.27 136.25 199.56 137.21 200.33 137.62 C 201.09 138.04 202.05 137.75 202.47 136.99 L 202.93 136.13 C 203.35 135.36 203.06 134.41 202.29 133.99 C 201.53 133.57 200.57 133.86 200.15 134.63 Z M 199.69 135.47 L 199.23 136.32 C 198.81 137.09 199.09 138.05 199.85 138.47 C 200.62 138.89 201.58 138.61 202.00 137.84 L 202.46 136.99 C 202.88 136.23 202.60 135.27 201.84 134.85 C 201.07 134.43 200.11 134.71 199.69 135.47 Z M 199.23 136.32 L 198.75 137.18 C 198.33 137.94 198.61 138.90 199.37 139.33 C 200.14 139.75 201.10 139.47 201.52 138.71 L 202.00 137.85 C 202.42 137.08 202.14 136.12 201.38 135.70 C 200.61 135.27 199.65 135.55 199.23 136.32 Z M 198.75 137.17 L 198.27 138.05 C 197.84 138.81 198.12 139.78 198.88 140.20 C 199.65 140.63 200.61 140.35 201.04 139.59 L 201.52 138.71 C 201.95 137.95 201.67 136.98 200.91 136.56 C 200.14 136.13 199.18 136.41 198.75 137.17 Z M 198.27 138.05 L 197.77 138.94 C 197.34 139.71 197.62 140.67 198.38 141.10 C 199.15 141.52 200.11 141.25 200.54 140.48 L 201.04 139.59 C 201.46 138.82 201.19 137.86 200.42 137.43 C 199.66 137.01 198.69 137.28 198.27 138.05 Z M 197.77 138.94 L 197.26 139.86 C 196.83 140.62 197.11 141.59 197.88 142.01 C 198.64 142.44 199.61 142.16 200.03 141.40 L 200.54 140.48 C 200.97 139.71 200.69 138.75 199.92 138.32 C 199.16 137.90 198.19 138.18 197.77 138.94 Z M 197.26 139.86 L 196.77 140.73 C 196.35 141.50 196.63 142.47 197.40 142.89 C 198.16 143.31 199.13 143.03 199.55 142.27 L 200.03 141.39 C 200.46 140.63 200.18 139.66 199.41 139.24 C 198.65 138.82 197.68 139.09 197.26 139.86 Z M 196.77 140.74 L 196.30 141.61 C 195.87 142.37 196.15 143.34 196.92 143.76 C 197.69 144.18 198.65 143.90 199.07 143.14 L 199.55 142.27 C 199.98 141.50 199.70 140.53 198.93 140.11 C 198.16 139.69 197.20 139.97 196.77 140.74 Z M 196.30 141.61 L 195.81 142.49 C 195.39 143.25 195.67 144.22 196.44 144.64 C 197.20 145.06 198.17 144.78 198.59 144.01 L 199.07 143.13 C 199.50 142.37 199.22 141.40 198.45 140.98 C 197.68 140.56 196.72 140.84 196.30 141.61 Z M 195.81 142.48 L 195.33 143.37 C 194.90 144.14 195.18 145.10 195.95 145.52 C 196.71 145.95 197.68 145.67 198.10 144.90 L 198.59 144.02 C 199.01 143.25 198.73 142.29 197.97 141.86 C 197.20 141.44 196.24 141.72 195.81 142.48 Z M 195.33 143.37 L 194.84 144.25 C 194.41 145.02 194.69 145.98 195.45 146.40 C 196.22 146.83 197.18 146.55 197.61 145.79 L 198.10 144.90 C 198.52 144.14 198.25 143.17 197.48 142.75 C 196.72 142.33 195.75 142.60 195.33 143.37 Z M 194.84 144.25 L 194.35 145.12 C 193.92 145.89 194.19 146.85 194.96 147.28 C 195.72 147.71 196.69 147.43 197.11 146.67 L 197.60 145.79 C 198.03 145.03 197.76 144.06 197.00 143.64 C 196.23 143.21 195.27 143.48 194.84 144.25 Z M 194.35 145.12 L 193.86 145.98 C 193.43 146.74 193.70 147.71 194.46 148.14 C 195.22 148.57 196.19 148.30 196.62 147.54 L 197.11 146.68 C 197.54 145.92 197.27 144.95 196.51 144.52 C 195.75 144.09 194.78 144.35 194.35 145.12 Z M 193.87 145.97 L 193.36 146.85 C 192.92 147.61 193.19 148.58 193.94 149.02 C 194.70 149.45 195.67 149.19 196.11 148.43 L 196.61 147.55 C 197.05 146.79 196.79 145.83 196.03 145.39 C 195.27 144.95 194.30 145.22 193.87 145.97 Z M 193.37 146.84 L 192.86 147.71 C 192.42 148.46 192.67 149.43 193.43 149.88 C 194.18 150.32 195.15 150.06 195.60 149.31 L 196.10 148.44 C 196.55 147.69 196.29 146.72 195.54 146.27 C 194.78 145.83 193.81 146.09 193.37 146.84 Z M 192.86 147.69 L 192.36 148.55 C 191.91 149.30 192.15 150.28 192.91 150.72 C 193.66 151.17 194.63 150.93 195.08 150.17 L 195.59 149.32 C 196.04 148.57 195.80 147.59 195.04 147.14 C 194.29 146.69 193.31 146.94 192.86 147.69 Z M 192.36 148.53 L 191.85 149.38 C 191.39 150.13 191.63 151.11 192.38 151.57 C 193.13 152.02 194.11 151.78 194.56 151.03 L 195.08 150.19 C 195.53 149.44 195.30 148.46 194.55 148.00 C 193.80 147.55 192.82 147.78 192.36 148.53 Z M 191.85 149.37 L 191.33 150.21 C 190.86 150.96 191.09 151.94 191.84 152.40 C 192.59 152.87 193.57 152.64 194.03 151.89 L 194.56 151.05 C 195.02 150.30 194.79 149.32 194.04 148.85 C 193.30 148.39 192.32 148.62 191.85 149.37 Z M 191.33 150.20 L 190.80 151.04 C 190.33 151.78 190.55 152.77 191.29 153.24 C 192.03 153.71 193.02 153.49 193.49 152.75 L 194.03 151.91 C 194.50 151.16 194.28 150.18 193.53 149.71 C 192.79 149.23 191.81 149.45 191.33 150.20 Z M 190.80 151.03 L 190.28 151.84 C 189.80 152.58 190.01 153.57 190.75 154.05 C 191.49 154.53 192.47 154.32 192.95 153.58 L 193.48 152.76 C 193.96 152.02 193.75 151.04 193.01 150.56 C 192.27 150.08 191.28 150.29 190.80 151.03 Z M 190.28 151.83 L 189.75 152.64 C 189.26 153.37 189.46 154.36 190.20 154.85 C 190.94 155.34 191.93 155.13 192.42 154.40 L 192.95 153.59 C 193.43 152.86 193.23 151.86 192.50 151.38 C 191.76 150.89 190.77 151.09 190.28 151.83 Z M 189.75 152.63 L 189.21 153.44 C 188.71 154.17 188.91 155.17 189.64 155.66 C 190.38 156.15 191.37 155.96 191.86 155.22 L 192.41 154.41 C 192.90 153.67 192.71 152.68 191.97 152.19 C 191.24 151.70 190.25 151.89 189.75 152.63 Z M 189.21 153.43 L 188.65 154.25 C 188.15 154.99 188.34 155.98 189.08 156.48 C 189.81 156.98 190.80 156.79 191.30 156.05 L 191.86 155.23 C 192.36 154.50 192.17 153.50 191.44 153.01 C 190.70 152.51 189.71 152.70 189.21 153.43 Z M 188.65 154.25 L 188.08 155.08 C 187.58 155.81 187.77 156.81 188.50 157.31 C 189.23 157.81 190.23 157.63 190.73 156.90 L 191.30 156.06 C 191.80 155.33 191.62 154.33 190.88 153.83 C 190.15 153.33 189.16 153.52 188.65 154.25 Z M 188.08 155.07 L 187.50 155.92 C 186.99 156.65 187.18 157.65 187.91 158.15 C 188.64 158.66 189.64 158.48 190.14 157.75 L 190.73 156.90 C 191.23 156.17 191.05 155.17 190.32 154.67 C 189.59 154.16 188.59 154.34 188.08 155.07 Z M 187.50 155.91 L 186.90 156.77 C 186.40 157.50 186.58 158.50 187.31 159.01 C 188.04 159.52 189.04 159.34 189.54 158.61 L 190.14 157.75 C 190.65 157.02 190.47 156.02 189.74 155.51 C 189.01 155.01 188.01 155.19 187.50 155.91 Z M 186.90 156.77 L 186.35 157.56 C 185.84 158.29 186.02 159.29 186.75 159.80 C 187.48 160.31 188.49 160.13 188.99 159.40 L 189.54 158.61 C 190.05 157.88 189.87 156.88 189.14 156.37 C 188.42 155.86 187.41 156.04 186.90 156.77 Z M 186.35 157.56 L 185.80 158.35 C 185.29 159.08 185.47 160.08 186.20 160.59 C 186.93 161.10 187.93 160.92 188.44 160.19 L 188.99 159.40 C 189.50 158.67 189.33 157.67 188.60 157.16 C 187.87 156.65 186.86 156.83 186.35 157.56 Z M 185.80 158.34 L 185.24 159.14 C 184.73 159.87 184.90 160.88 185.63 161.39 C 186.36 161.90 187.37 161.72 187.88 161.00 L 188.44 160.20 C 188.95 159.47 188.78 158.46 188.05 157.95 C 187.32 157.44 186.31 157.61 185.80 158.34 Z M 185.24 159.14 L 184.67 159.95 C 184.15 160.68 184.33 161.68 185.05 162.20 C 185.78 162.71 186.79 162.54 187.30 161.81 L 187.88 161.00 C 188.39 160.27 188.22 159.27 187.49 158.75 C 186.76 158.24 185.76 158.41 185.24 159.14 Z M 184.67 159.95 L 184.09 160.77 C 183.57 161.49 183.74 162.50 184.46 163.02 C 185.19 163.53 186.20 163.36 186.71 162.64 L 187.30 161.82 C 187.82 161.09 187.65 160.08 186.92 159.57 C 186.20 159.05 185.19 159.22 184.67 159.95 Z M 184.09 160.76 L 183.49 161.59 C 182.97 162.32 183.14 163.32 183.86 163.84 C 184.59 164.36 185.59 164.20 186.11 163.48 L 186.71 162.64 C 187.23 161.92 187.07 160.91 186.34 160.39 C 185.62 159.87 184.61 160.04 184.09 160.76 Z M 183.50 161.59 L 182.89 162.43 C 182.36 163.15 182.52 164.16 183.25 164.68 C 183.97 165.21 184.98 165.04 185.50 164.32 L 186.11 163.48 C 186.63 162.76 186.47 161.75 185.75 161.23 C 185.03 160.70 184.02 160.86 183.50 161.59 Z M 182.89 162.42 L 182.28 163.25 C 181.76 163.97 181.91 164.98 182.63 165.51 C 183.35 166.03 184.36 165.88 184.89 165.16 L 185.50 164.33 C 186.02 163.61 185.87 162.60 185.15 162.07 C 184.43 161.54 183.42 161.70 182.89 162.42 Z M 182.29 163.24 L 181.71 164.02 C 181.18 164.73 181.33 165.75 182.05 166.28 C 182.77 166.81 183.78 166.66 184.31 165.94 L 184.89 165.16 C 185.42 164.45 185.27 163.44 184.55 162.90 C 183.83 162.37 182.82 162.52 182.29 163.24 Z M 181.72 164.01 L 181.13 164.79 C 180.60 165.51 180.75 166.52 181.46 167.05 C 182.18 167.59 183.19 167.44 183.72 166.73 L 184.31 165.95 C 184.84 165.23 184.70 164.22 183.98 163.68 C 183.27 163.15 182.25 163.29 181.72 164.01 Z M 181.14 164.78 L 180.54 165.57 C 180.01 166.28 180.15 167.30 180.86 167.84 C 181.57 168.38 182.59 168.23 183.13 167.52 L 183.72 166.73 C 184.26 166.02 184.12 165.01 183.40 164.47 C 182.69 163.93 181.68 164.07 181.14 164.78 Z M 180.55 165.56 L 179.94 166.36 C 179.40 167.07 179.54 168.08 180.25 168.62 C 180.96 169.17 181.97 169.03 182.52 168.32 L 183.12 167.53 C 183.66 166.82 183.53 165.80 182.82 165.26 C 182.11 164.72 181.09 164.85 180.55 165.56 Z M 179.95 166.35 L 179.33 167.15 C 178.79 167.85 178.92 168.87 179.62 169.42 C 180.33 169.96 181.35 169.83 181.90 169.13 L 182.51 168.33 C 183.06 167.62 182.93 166.60 182.22 166.06 C 181.51 165.51 180.49 165.64 179.95 166.35 Z M 179.34 167.14 L 178.71 167.94 C 178.16 168.65 178.29 169.66 178.99 170.21 C 179.70 170.76 180.71 170.64 181.26 169.93 L 181.89 169.13 C 182.44 168.43 182.32 167.41 181.61 166.86 C 180.91 166.31 179.89 166.43 179.34 167.14 Z M 178.72 167.93 L 178.08 168.74 C 177.53 169.44 177.65 170.46 178.35 171.01 C 179.05 171.57 180.07 171.45 180.62 170.75 L 181.26 169.94 C 181.81 169.24 181.69 168.22 180.99 167.67 C 180.29 167.11 179.27 167.23 178.72 167.93 Z M 178.09 168.73 L 177.44 169.54 C 176.88 170.24 177.00 171.26 177.70 171.81 C 178.40 172.37 179.42 172.26 179.97 171.56 L 180.62 170.75 C 181.18 170.05 181.06 169.03 180.36 168.48 C 179.67 167.92 178.65 168.03 178.09 168.73 Z M 177.45 169.53 L 176.83 170.29 C 176.27 170.98 176.38 172.01 177.08 172.57 C 177.77 173.13 178.79 173.02 179.36 172.33 L 179.97 171.57 C 180.53 170.87 180.42 169.85 179.73 169.29 C 179.03 168.72 178.01 168.83 177.45 169.53 Z M 176.84 170.28 L 176.23 171.03 C 175.66 171.72 175.76 172.75 176.46 173.31 C 177.15 173.88 178.17 173.78 178.74 173.08 L 179.35 172.33 C 179.92 171.64 179.81 170.62 179.12 170.05 C 178.43 169.49 177.41 169.59 176.84 170.28 Z M 176.23 171.03 L 175.61 171.78 C 175.04 172.47 175.14 173.49 175.83 174.06 C 176.52 174.63 177.54 174.53 178.11 173.84 L 178.73 173.09 C 179.30 172.40 179.21 171.38 178.51 170.81 C 177.82 170.24 176.80 170.33 176.23 171.03 Z M 175.61 171.77 L 174.99 172.53 C 174.41 173.22 174.51 174.24 175.19 174.81 C 175.88 175.39 176.91 175.29 177.48 174.60 L 178.11 173.85 C 178.68 173.16 178.59 172.14 177.90 171.56 C 177.21 170.99 176.19 171.08 175.61 171.77 Z M 174.99 172.52 L 174.35 173.29 C 173.77 173.97 173.86 175.00 174.55 175.57 C 175.24 176.15 176.26 176.06 176.84 175.37 L 177.48 174.61 C 178.05 173.92 177.96 172.90 177.27 172.32 C 176.59 171.75 175.56 171.84 174.99 172.52 Z M 174.35 173.28 L 173.71 174.05 C 173.13 174.73 173.21 175.76 173.90 176.34 C 174.58 176.91 175.61 176.83 176.18 176.14 L 176.83 175.38 C 177.41 174.69 177.33 173.67 176.64 173.09 C 175.96 172.51 174.93 172.60 174.35 173.28 Z M 173.71 174.04 L 173.05 174.82 C 172.47 175.50 172.55 176.53 173.23 177.11 C 173.92 177.69 174.94 177.60 175.52 176.92 L 176.18 176.15 C 176.76 175.46 176.68 174.44 176.00 173.86 C 175.31 173.28 174.29 173.36 173.71 174.04 Z M 173.05 174.81 L 172.38 175.60 C 171.80 176.28 171.88 177.30 172.56 177.88 C 173.24 178.47 174.27 178.39 174.85 177.71 L 175.52 176.93 C 176.10 176.24 176.02 175.22 175.34 174.64 C 174.66 174.05 173.64 174.13 173.05 174.81 Z M 172.39 175.59 L 171.71 176.38 C 171.12 177.06 171.20 178.09 171.88 178.67 C 172.56 179.26 173.58 179.18 174.17 178.50 L 174.85 177.71 C 175.43 177.03 175.36 176.00 174.68 175.42 C 174.00 174.84 172.97 174.91 172.39 175.59 Z M 171.71 176.38 L 171.04 177.15 C 170.46 177.83 170.53 178.85 171.21 179.44 C 171.89 180.03 172.92 179.95 173.50 179.27 L 174.17 178.50 C 174.75 177.82 174.68 176.80 174.00 176.21 C 173.32 175.63 172.30 175.70 171.71 176.38 Z M 171.05 177.15 L 170.38 177.91 C 169.80 178.59 169.87 179.61 170.55 180.20 C 171.23 180.79 172.25 180.72 172.84 180.04 L 173.50 179.28 C 174.09 178.60 174.02 177.57 173.34 176.98 C 172.66 176.39 171.63 176.47 171.05 177.15 Z M 170.39 177.90 L 169.72 178.67 C 169.13 179.35 169.20 180.37 169.88 180.96 C 170.55 181.55 171.58 181.48 172.17 180.81 L 172.84 180.04 C 173.43 179.36 173.36 178.34 172.68 177.75 C 172.00 177.16 170.98 177.23 170.39 177.90 Z M 169.72 178.67 L 169.05 179.43 C 168.46 180.11 168.53 181.14 169.20 181.73 C 169.88 182.32 170.91 182.25 171.50 181.58 L 172.17 180.81 C 172.76 180.13 172.69 179.11 172.02 178.51 C 171.34 177.92 170.31 177.99 169.72 178.67 Z M 169.05 179.43 L 168.38 180.19 C 167.79 180.87 167.85 181.90 168.53 182.49 C 169.20 183.08 170.23 183.02 170.83 182.34 L 171.50 181.58 C 172.09 180.90 172.03 179.87 171.35 179.28 C 170.68 178.69 169.65 178.75 169.05 179.43 Z M 168.38 180.19 L 167.71 180.95 C 167.12 181.62 167.18 182.65 167.85 183.25 C 168.53 183.84 169.56 183.78 170.15 183.10 L 170.82 182.35 C 171.42 181.67 171.36 180.64 170.68 180.05 C 170.01 179.45 168.98 179.51 168.38 180.19 Z M 167.72 180.94 L 167.05 181.69 C 166.45 182.37 166.51 183.40 167.18 183.99 C 167.86 184.59 168.89 184.53 169.48 183.86 L 170.15 183.11 C 170.75 182.44 170.69 181.41 170.02 180.81 C 169.34 180.21 168.31 180.27 167.72 180.94 Z M 167.05 181.69 L 166.39 182.43 C 165.79 183.10 165.85 184.13 166.52 184.73 C 167.19 185.33 168.22 185.27 168.82 184.60 L 169.48 183.86 C 170.08 183.19 170.02 182.16 169.35 181.56 C 168.68 180.96 167.65 181.02 167.05 181.69 Z M 166.39 182.42 L 165.74 183.15 C 165.13 183.82 165.19 184.85 165.86 185.45 C 166.53 186.06 167.56 186.00 168.16 185.33 L 168.82 184.61 C 169.42 183.94 169.37 182.91 168.70 182.30 C 168.03 181.70 166.99 181.75 166.39 182.42 Z M 165.74 183.14 L 165.10 183.85 C 164.49 184.52 164.54 185.55 165.21 186.16 C 165.88 186.77 166.91 186.72 167.52 186.05 L 168.16 185.34 C 168.77 184.67 168.72 183.64 168.05 183.03 C 167.38 182.43 166.35 182.48 165.74 183.14 Z M 165.10 183.85 L 164.38 184.64 C 163.77 185.30 163.82 186.34 164.48 186.94 C 165.15 187.55 166.18 187.51 166.79 186.84 L 167.51 186.05 C 168.12 185.39 168.08 184.35 167.41 183.75 C 166.74 183.14 165.71 183.18 165.10 183.85 Z M 164.38 184.63 L 163.67 185.40 C 163.06 186.06 163.10 187.10 163.77 187.71 C 164.43 188.32 165.46 188.28 166.07 187.62 L 166.78 186.85 C 167.40 186.19 167.35 185.15 166.69 184.54 C 166.03 183.93 165.00 183.97 164.38 184.63 Z M 163.68 185.40 L 162.98 186.15 C 162.37 186.81 162.40 187.84 163.07 188.45 C 163.73 189.07 164.76 189.03 165.37 188.37 L 166.07 187.62 C 166.68 186.96 166.65 185.93 165.99 185.31 C 165.33 184.70 164.29 184.74 163.68 185.40 Z M 162.99 186.14 L 162.30 186.87 C 161.68 187.53 161.72 188.57 162.38 189.18 C 163.03 189.80 164.07 189.76 164.68 189.11 L 165.37 188.37 C 165.99 187.72 165.95 186.68 165.29 186.07 C 164.64 185.45 163.60 185.48 162.99 186.14 Z M 162.30 186.87 L 161.63 187.59 C 161.01 188.25 161.04 189.28 161.70 189.90 C 162.36 190.51 163.39 190.48 164.01 189.83 L 164.68 189.11 C 165.30 188.45 165.27 187.42 164.61 186.80 C 163.95 186.18 162.92 186.21 162.30 186.87 Z M 161.63 187.59 L 160.96 188.29 C 160.34 188.95 160.37 189.98 161.03 190.60 C 161.69 191.22 162.72 191.19 163.34 190.54 L 164.00 189.83 C 164.62 189.17 164.59 188.14 163.94 187.52 C 163.28 186.90 162.25 186.93 161.63 187.59 Z M 160.96 188.29 L 160.30 188.99 C 159.68 189.65 159.71 190.68 160.37 191.30 C 161.02 191.92 162.06 191.89 162.68 191.24 L 163.34 190.54 C 163.96 189.88 163.93 188.85 163.27 188.23 C 162.62 187.61 161.58 187.64 160.96 188.29 Z M 160.30 188.99 L 159.65 189.69 C 159.03 190.34 159.06 191.38 159.71 192.00 C 160.37 192.62 161.40 192.59 162.02 191.93 L 162.68 191.24 C 163.29 190.58 163.27 189.55 162.61 188.93 C 161.95 188.31 160.92 188.34 160.30 188.99 Z M 159.64 189.69 L 158.97 190.41 C 158.35 191.07 158.38 192.10 159.03 192.72 C 159.69 193.34 160.72 193.31 161.34 192.65 L 162.02 191.93 C 162.64 191.27 162.61 190.24 161.95 189.62 C 161.30 189.00 160.26 189.03 159.64 189.69 Z M 158.96 190.41 L 158.27 191.15 C 157.65 191.81 157.68 192.84 158.34 193.46 C 159.00 194.08 160.03 194.04 160.65 193.39 L 161.34 192.65 C 161.96 191.99 161.93 190.96 161.27 190.34 C 160.61 189.72 159.58 189.75 158.96 190.41 Z M 158.27 191.15 L 157.57 191.89 C 156.96 192.55 156.99 193.58 157.65 194.20 C 158.31 194.82 159.34 194.78 159.96 194.12 L 160.65 193.39 C 161.27 192.73 161.23 191.69 160.57 191.08 C 159.92 190.46 158.88 190.50 158.27 191.15 Z M 157.57 191.89 L 156.88 192.63 C 156.27 193.29 156.31 194.32 156.96 194.94 C 157.62 195.55 158.66 195.52 159.27 194.86 L 159.96 194.12 C 160.57 193.46 160.54 192.43 159.88 191.81 C 159.22 191.20 158.19 191.23 157.57 191.89 Z M 156.88 192.63 L 156.20 193.37 C 155.59 194.03 155.62 195.06 156.28 195.67 C 156.94 196.29 157.98 196.25 158.59 195.59 L 159.27 194.86 C 159.89 194.20 159.85 193.16 159.19 192.55 C 158.53 191.94 157.50 191.97 156.88 192.63 Z M 156.20 193.37 L 155.52 194.10 C 154.91 194.76 154.95 195.79 155.61 196.41 C 156.27 197.02 157.30 196.98 157.92 196.32 L 158.59 195.59 C 159.21 194.93 159.17 193.89 158.51 193.28 C 157.84 192.67 156.81 192.71 156.20 193.37 Z M 155.52 194.10 L 154.85 194.83 C 154.24 195.49 154.28 196.52 154.94 197.13 C 155.60 197.74 156.64 197.70 157.25 197.04 L 157.92 196.32 C 158.53 195.65 158.49 194.62 157.83 194.01 C 157.16 193.40 156.13 193.44 155.52 194.10 Z M 154.85 194.83 L 154.18 195.55 C 153.57 196.21 153.62 197.24 154.28 197.86 C 154.94 198.47 155.98 198.42 156.59 197.76 L 157.25 197.04 C 157.86 196.38 157.82 195.34 157.15 194.73 C 156.49 194.12 155.46 194.16 154.85 194.83 Z M 154.18 195.55 L 153.50 196.30 C 152.89 196.96 152.93 198.00 153.60 198.61 C 154.26 199.21 155.29 199.17 155.90 198.50 L 156.59 197.76 C 157.20 197.09 157.15 196.06 156.49 195.45 C 155.82 194.84 154.79 194.89 154.18 195.55 Z M 153.49 196.30 L 152.80 197.06 C 152.19 197.72 152.24 198.76 152.91 199.36 C 153.57 199.97 154.61 199.93 155.22 199.26 L 155.91 198.50 C 156.52 197.84 156.47 196.80 155.80 196.19 C 155.14 195.59 154.10 195.63 153.49 196.30 Z M 152.80 197.06 L 152.12 197.81 C 151.51 198.48 151.56 199.51 152.23 200.12 C 152.90 200.73 153.93 200.68 154.54 200.01 L 155.22 199.26 C 155.83 198.59 155.78 197.56 155.11 196.95 C 154.44 196.34 153.41 196.39 152.80 197.06 Z M 152.12 197.81 L 151.44 198.55 C 150.83 199.22 150.88 200.26 151.55 200.86 C 152.22 201.47 153.26 201.42 153.87 200.75 L 154.54 200.01 C 155.15 199.34 155.10 198.30 154.43 197.70 C 153.76 197.09 152.72 197.14 152.12 197.81 Z M 151.44 198.55 L 150.77 199.29 C 150.17 199.96 150.22 201.00 150.89 201.60 C 151.56 202.21 152.60 202.16 153.20 201.49 L 153.87 200.75 C 154.48 200.08 154.42 199.04 153.75 198.44 C 153.08 197.83 152.05 197.88 151.44 198.55 Z M 150.77 199.29 L 150.11 200.02 C 149.50 200.69 149.56 201.73 150.23 202.34 C 150.90 202.94 151.94 202.89 152.54 202.22 L 153.20 201.49 C 153.81 200.81 153.76 199.78 153.09 199.17 C 152.41 198.56 151.38 198.62 150.77 199.29 Z M 150.11 200.02 L 149.45 200.75 C 148.85 201.42 148.90 202.46 149.58 203.06 C 150.25 203.67 151.29 203.62 151.89 202.94 L 152.55 202.22 C 153.15 201.54 153.10 200.51 152.43 199.90 C 151.75 199.29 150.71 199.35 150.11 200.02 Z M 149.45 200.75 L 148.79 201.48 C 148.19 202.16 148.24 203.19 148.91 203.80 C 149.59 204.41 150.63 204.35 151.23 203.68 L 151.89 202.94 C 152.50 202.27 152.45 201.23 151.77 200.62 C 151.10 200.02 150.06 200.07 149.45 200.75 Z M 148.79 201.48 L 148.11 202.24 C 147.50 202.92 147.56 203.95 148.23 204.56 C 148.91 205.17 149.94 205.11 150.55 204.44 L 151.23 203.68 C 151.84 203.00 151.78 201.96 151.11 201.36 C 150.44 200.75 149.40 200.81 148.79 201.48 Z M 148.11 202.24 L 147.43 203.00 C 146.83 203.67 146.88 204.71 147.56 205.31 C 148.23 205.92 149.27 205.86 149.87 205.19 L 150.55 204.44 C 151.16 203.76 151.10 202.72 150.43 202.12 C 149.75 201.51 148.72 201.57 148.11 202.24 Z M 147.43 203.00 L 146.76 203.74 C 146.16 204.42 146.21 205.46 146.89 206.06 C 147.56 206.67 148.60 206.61 149.20 205.94 L 149.87 205.19 C 150.48 204.51 150.42 203.48 149.75 202.87 C 149.07 202.27 148.04 202.32 147.43 203.00 Z M 146.76 203.74 L 146.09 204.49 C 145.49 205.16 145.55 206.20 146.22 206.80 C 146.90 207.41 147.93 207.35 148.54 206.68 L 149.20 205.94 C 149.81 205.26 149.75 204.22 149.08 203.62 C 148.40 203.01 147.37 203.07 146.76 203.74 Z M 146.09 204.49 L 145.43 205.23 C 144.83 205.90 144.89 206.94 145.56 207.54 C 146.24 208.14 147.27 208.09 147.88 207.41 L 148.54 206.68 C 149.14 206.00 149.08 204.97 148.41 204.36 C 147.74 203.76 146.70 203.81 146.09 204.49 Z M 145.43 205.23 L 144.78 205.96 C 144.18 206.63 144.23 207.67 144.91 208.27 C 145.58 208.88 146.62 208.82 147.22 208.14 L 147.88 207.41 C 148.48 206.74 148.42 205.70 147.75 205.10 C 147.07 204.49 146.04 204.55 145.43 205.23 Z M 144.78 205.96 L 144.12 206.69 C 143.52 207.37 143.58 208.40 144.25 209.01 C 144.93 209.61 145.96 209.55 146.57 208.88 L 147.22 208.14 C 147.83 207.47 147.77 206.43 147.09 205.83 C 146.42 205.23 145.38 205.28 144.78 205.96 Z M 144.12 206.69 L 143.46 207.43 C 142.86 208.11 142.91 209.14 143.59 209.75 C 144.26 210.35 145.30 210.29 145.90 209.62 L 146.57 208.88 C 147.17 208.20 147.11 207.17 146.44 206.56 C 145.76 205.96 144.73 206.02 144.12 206.69 Z M 143.46 207.43 L 142.80 208.17 C 142.19 208.84 142.25 209.88 142.92 210.48 C 143.60 211.09 144.63 211.03 145.24 210.36 L 145.90 209.62 C 146.51 208.95 146.45 207.91 145.78 207.30 C 145.10 206.70 144.07 206.76 143.46 207.43 Z M 142.80 208.16 L 142.14 208.90 C 141.53 209.57 141.58 210.61 142.25 211.22 C 142.93 211.83 143.97 211.77 144.57 211.10 L 145.24 210.36 C 145.84 209.69 145.79 208.65 145.12 208.05 C 144.45 207.44 143.41 207.49 142.80 208.16 Z M 142.14 208.89 L 141.47 209.63 C 140.86 210.30 140.91 211.34 141.58 211.95 C 142.25 212.56 143.29 212.51 143.90 211.84 L 144.57 211.11 C 145.18 210.43 145.13 209.40 144.46 208.79 C 143.79 208.17 142.75 208.22 142.14 208.89 Z M 141.48 209.62 L 140.80 210.36 C 140.18 211.03 140.22 212.07 140.89 212.68 C 141.56 213.30 142.60 213.25 143.21 212.59 L 143.89 211.85 C 144.51 211.18 144.46 210.14 143.80 209.53 C 143.13 208.91 142.09 208.96 141.48 209.62 Z M 140.80 210.35 L 140.11 211.09 C 139.49 211.76 139.53 212.80 140.19 213.42 C 140.85 214.04 141.89 214.00 142.51 213.34 L 143.21 212.60 C 143.83 211.93 143.79 210.89 143.13 210.27 C 142.46 209.65 141.42 209.69 140.80 210.35 Z M 140.12 211.08 L 139.42 211.82 C 138.79 212.48 138.82 213.52 139.48 214.15 C 140.14 214.77 141.18 214.74 141.81 214.09 L 142.51 213.35 C 143.13 212.69 143.10 211.65 142.44 211.02 C 141.79 210.40 140.74 210.42 140.12 211.08 Z M 139.43 211.81 L 138.72 212.55 C 138.09 213.20 138.11 214.24 138.76 214.87 C 139.41 215.50 140.46 215.48 141.09 214.83 L 141.79 214.10 C 142.43 213.44 142.41 212.40 141.75 211.77 C 141.10 211.14 140.06 211.16 139.43 211.81 Z M 138.73 212.54 L 138.01 213.27 C 137.38 213.91 137.39 214.95 138.03 215.59 C 138.68 216.22 139.72 216.22 140.36 215.57 L 141.07 214.84 C 141.71 214.19 141.70 213.15 141.06 212.52 C 140.41 211.88 139.37 211.89 138.73 212.54 Z M 138.03 213.25 L 137.30 213.97 C 136.66 214.61 136.66 215.65 137.30 216.29 C 137.94 216.94 138.98 216.94 139.62 216.30 L 140.34 215.58 C 140.99 214.94 140.99 213.90 140.35 213.26 C 139.71 212.62 138.67 212.61 138.03 213.25 Z M 137.32 213.96 L 136.60 214.66 C 135.95 215.29 135.93 216.33 136.56 216.98 C 137.20 217.63 138.23 217.64 138.88 217.01 L 139.61 216.31 C 140.26 215.68 140.27 214.64 139.64 213.99 C 139.01 213.34 137.97 213.33 137.32 213.96 Z M 136.62 214.65 L 135.90 215.32 C 135.24 215.94 135.21 216.98 135.83 217.64 C 136.46 218.30 137.49 218.33 138.15 217.70 L 138.87 217.03 C 139.52 216.41 139.55 215.37 138.93 214.71 C 138.31 214.05 137.27 214.02 136.62 214.65 Z M 135.92 215.30 L 135.21 215.95 C 134.55 216.56 134.50 217.60 135.11 218.26 C 135.72 218.93 136.76 218.98 137.43 218.37 L 138.13 217.72 C 138.80 217.11 138.84 216.07 138.23 215.41 C 137.62 214.74 136.59 214.69 135.92 215.30 Z M 135.24 215.93 L 134.45 216.62 C 133.77 217.22 133.70 218.25 134.30 218.93 C 134.90 219.61 135.93 219.68 136.61 219.08 L 137.40 218.39 C 138.08 217.79 138.15 216.76 137.55 216.08 C 136.95 215.40 135.92 215.33 135.24 215.93 Z M 134.48 216.60 L 133.67 217.28 C 132.98 217.86 132.89 218.89 133.47 219.58 C 134.05 220.28 135.08 220.37 135.78 219.79 L 136.58 219.11 C 137.28 218.53 137.37 217.49 136.79 216.80 C 136.20 216.11 135.17 216.02 134.48 216.60 Z M 133.70 217.25 L 132.91 217.88 C 132.20 218.45 132.08 219.48 132.65 220.19 C 133.22 220.89 134.25 221.01 134.95 220.44 L 135.75 219.81 C 136.45 219.25 136.57 218.21 136.00 217.51 C 135.44 216.80 134.41 216.68 133.70 217.25 Z M 132.94 217.86 L 132.16 218.45 C 131.44 219.00 131.30 220.03 131.85 220.75 C 132.40 221.47 133.43 221.61 134.15 221.06 L 134.93 220.47 C 135.65 219.92 135.79 218.89 135.24 218.17 C 134.69 217.45 133.66 217.31 132.94 217.86 Z M 132.19 218.43 L 131.42 218.99 C 130.68 219.52 130.52 220.55 131.05 221.28 C 131.59 222.01 132.61 222.18 133.35 221.64 L 134.12 221.08 C 134.85 220.55 135.01 219.52 134.48 218.79 C 133.95 218.06 132.92 217.89 132.19 218.43 Z M 131.44 218.97 L 130.68 219.50 C 129.93 220.02 129.75 221.04 130.27 221.79 C 130.79 222.53 131.81 222.72 132.56 222.20 L 133.32 221.66 C 134.07 221.15 134.25 220.12 133.73 219.38 C 133.21 218.63 132.19 218.45 131.44 218.97 Z M 130.70 219.48 L 129.85 220.05 C 129.10 220.55 128.89 221.57 129.40 222.33 C 129.90 223.08 130.92 223.29 131.68 222.78 L 132.53 222.21 C 133.28 221.71 133.49 220.69 132.98 219.94 C 132.48 219.18 131.46 218.98 130.70 219.48 Z M 129.88 220.03 L 129.03 220.58 C 128.26 221.07 128.04 222.08 128.53 222.85 C 129.02 223.61 130.03 223.83 130.80 223.35 L 131.65 222.80 C 132.41 222.31 132.64 221.30 132.15 220.53 C 131.66 219.77 130.64 219.55 129.88 220.03 Z M 129.06 220.56 L 128.20 221.09 C 127.43 221.56 127.19 222.57 127.66 223.34 C 128.13 224.11 129.14 224.36 129.91 223.88 L 130.77 223.36 C 131.54 222.89 131.78 221.88 131.31 221.11 C 130.84 220.33 129.83 220.09 129.06 220.56 Z M 128.23 221.07 L 127.38 221.57 C 126.60 222.03 126.34 223.03 126.79 223.81 C 127.25 224.59 128.25 224.85 129.03 224.40 L 129.89 223.90 C 130.67 223.44 130.93 222.44 130.47 221.66 C 130.01 220.88 129.01 220.61 128.23 221.07 Z M 127.41 221.56 L 126.55 222.03 C 125.76 222.48 125.48 223.47 125.93 224.26 C 126.37 225.05 127.37 225.33 128.15 224.89 L 129.01 224.41 C 129.79 223.97 130.08 222.97 129.63 222.18 C 129.19 221.39 128.19 221.11 127.41 221.56 Z M 126.58 222.02 L 125.68 222.50 C 124.88 222.93 124.58 223.92 125.01 224.72 C 125.44 225.51 126.43 225.81 127.22 225.39 L 128.13 224.90 C 128.92 224.48 129.22 223.49 128.79 222.69 C 128.37 221.89 127.38 221.59 126.58 222.02 Z M 125.71 222.49 L 124.80 222.95 C 123.99 223.36 123.68 224.35 124.09 225.15 C 124.50 225.96 125.48 226.28 126.29 225.87 L 127.19 225.40 C 128.00 224.99 128.32 224.01 127.91 223.20 C 127.50 222.40 126.51 222.08 125.71 222.49 Z M 124.83 222.93 L 123.93 223.37 C 123.11 223.76 122.77 224.74 123.17 225.56 C 123.56 226.37 124.54 226.71 125.35 226.32 L 126.25 225.88 C 127.07 225.49 127.41 224.51 127.02 223.70 C 126.62 222.88 125.65 222.54 124.83 222.93 Z M 123.96 223.35 L 123.07 223.76 C 122.24 224.13 121.88 225.10 122.25 225.93 C 122.62 226.75 123.59 227.11 124.42 226.74 L 125.31 226.34 C 126.14 225.96 126.50 224.99 126.13 224.17 C 125.76 223.35 124.79 222.98 123.96 223.35 Z M 123.11 223.74 L 122.21 224.12 C 121.38 224.47 120.99 225.43 121.34 226.26 C 121.69 227.10 122.65 227.49 123.48 227.14 L 124.38 226.76 C 125.21 226.41 125.60 225.45 125.25 224.62 C 124.90 223.78 123.94 223.39 123.11 223.74 Z M 122.26 224.10 L 121.28 224.48 C 120.44 224.80 120.02 225.75 120.34 226.59 C 120.67 227.44 121.62 227.86 122.46 227.53 L 123.44 227.15 C 124.28 226.83 124.70 225.88 124.38 225.04 C 124.05 224.19 123.10 223.77 122.26 224.10 Z M 121.33 224.47 L 120.37 224.80 C 119.52 225.10 119.07 226.04 119.37 226.89 C 119.67 227.74 120.60 228.18 121.45 227.88 L 122.41 227.54 C 123.26 227.24 123.71 226.31 123.41 225.46 C 123.11 224.61 122.18 224.17 121.33 224.47 Z M 120.41 224.79 L 119.47 225.10 C 118.61 225.37 118.14 226.29 118.42 227.14 C 118.69 228.00 119.61 228.47 120.47 228.20 L 121.41 227.89 C 122.26 227.62 122.73 226.70 122.46 225.84 C 122.18 224.99 121.27 224.52 120.41 224.79 Z M 119.51 225.09 L 118.59 225.36 C 117.73 225.61 117.24 226.51 117.49 227.37 C 117.75 228.23 118.65 228.73 119.51 228.47 L 120.43 228.20 C 121.29 227.95 121.78 227.05 121.53 226.19 C 121.27 225.33 120.37 224.83 119.51 225.09 Z M 118.63 225.35 L 117.70 225.60 C 116.84 225.83 116.33 226.72 116.56 227.59 C 116.79 228.45 117.68 228.96 118.55 228.73 L 119.47 228.48 C 120.34 228.25 120.85 227.36 120.62 226.49 C 120.39 225.63 119.50 225.12 118.63 225.35 Z M 117.75 225.59 L 116.81 225.81 C 115.94 226.02 115.41 226.89 115.61 227.77 C 115.82 228.64 116.70 229.17 117.57 228.96 L 118.50 228.74 C 119.37 228.53 119.91 227.66 119.70 226.79 C 119.49 225.92 118.62 225.38 117.75 225.59 Z M 116.86 225.80 L 115.90 226.00 C 115.02 226.18 114.46 227.04 114.64 227.91 C 114.82 228.79 115.68 229.35 116.55 229.17 L 117.52 228.97 C 118.39 228.79 118.96 227.94 118.78 227.06 C 118.60 226.19 117.74 225.62 116.86 225.80 Z M 115.95 225.99 L 114.92 226.17 C 114.04 226.32 113.45 227.16 113.60 228.04 C 113.75 228.92 114.59 229.51 115.47 229.36 L 116.50 229.18 C 117.38 229.03 117.97 228.19 117.82 227.31 C 117.67 226.43 116.83 225.84 115.95 225.99 Z M 114.97 226.16 L 113.94 226.31 C 113.06 226.43 112.44 227.25 112.57 228.14 C 112.70 229.02 113.51 229.63 114.40 229.51 L 115.42 229.36 C 116.30 229.24 116.92 228.42 116.79 227.54 C 116.67 226.65 115.85 226.04 114.97 226.16 Z M 114.00 226.31 L 112.97 226.42 C 112.08 226.51 111.44 227.30 111.53 228.18 C 111.63 229.07 112.42 229.71 113.30 229.62 L 114.34 229.51 C 115.22 229.42 115.86 228.63 115.77 227.74 C 115.68 226.86 114.89 226.22 114.00 226.31 Z M 113.06 226.42 L 112.02 226.47 C 111.13 226.51 110.45 227.26 110.49 228.15 C 110.54 229.03 111.29 229.71 112.17 229.67 L 113.21 229.62 C 114.10 229.58 114.78 228.82 114.74 227.94 C 114.69 227.05 113.94 226.37 113.06 226.42 Z M 112.15 226.47 L 111.15 226.44 C 110.27 226.41 109.53 227.10 109.51 227.98 C 109.48 228.87 110.17 229.61 111.05 229.63 L 112.04 229.67 C 112.93 229.69 113.66 229.00 113.69 228.12 C 113.72 227.24 113.03 226.50 112.15 226.47 Z M 111.35 226.46 L 110.44 226.32 C 109.57 226.18 108.76 226.77 108.62 227.64 C 108.48 228.51 109.07 229.33 109.94 229.46 L 110.85 229.61 C 111.72 229.75 112.54 229.15 112.67 228.29 C 112.81 227.42 112.22 226.60 111.35 226.46 Z M 110.76 226.41 L 109.77 226.03 C 108.95 225.72 108.04 226.13 107.72 226.95 C 107.41 227.77 107.82 228.68 108.64 228.99 L 109.63 229.37 C 110.44 229.69 111.36 229.28 111.67 228.46 C 111.99 227.64 111.58 226.72 110.76 226.41 Z M 110.08 226.20 L 109.26 225.66 C 108.54 225.17 107.56 225.37 107.07 226.10 C 106.59 226.82 106.79 227.80 107.51 228.28 L 108.33 228.83 C 109.06 229.31 110.04 229.11 110.52 228.39 C 111.00 227.66 110.80 226.68 110.08 226.20 Z M 109.44 225.80 L 108.73 225.16 C 108.08 224.58 107.09 224.63 106.51 225.28 C 105.93 225.92 105.98 226.92 106.62 227.50 L 107.34 228.14 C 107.98 228.72 108.97 228.67 109.56 228.02 C 110.14 227.38 110.08 226.38 109.44 225.80 Z M 108.78 225.22 L 108.45 224.89 C 107.83 224.28 106.84 224.28 106.23 224.90 C 105.62 225.51 105.63 226.50 106.24 227.11 L 106.57 227.44 C 107.18 228.05 108.18 228.05 108.79 227.43 C 109.40 226.82 109.39 225.83 108.78 225.22 Z"
      fill="black"
      fill-rule="nonzero" /><path d="M 121.17 153.56 L 122.10 153.20 C 122.91 152.89 123.30 151.98 122.99 151.18 C 122.68 150.38 121.77 149.98 120.97 150.29 L 120.04 150.65 C 119.24 150.97 118.84 151.87 119.15 152.68 C 119.47 153.48 120.37 153.88 121.17 153.56 Z M 122.03 153.23 L 122.97 152.91 C 123.79 152.64 124.23 151.76 123.96 150.94 C 123.69 150.12 122.81 149.68 121.99 149.95 L 121.04 150.26 C 120.23 150.54 119.78 151.42 120.05 152.24 C 120.33 153.06 121.21 153.50 122.03 153.23 Z M 122.82 152.96 L 123.79 152.74 C 124.63 152.56 125.16 151.72 124.98 150.88 C 124.79 150.04 123.96 149.51 123.12 149.69 L 122.14 149.91 C 121.30 150.09 120.77 150.93 120.96 151.77 C 121.14 152.61 121.97 153.14 122.82 152.96 Z M 123.56 152.78 L 124.55 152.71 C 125.41 152.65 126.06 151.90 126.00 151.04 C 125.94 150.18 125.20 149.53 124.34 149.59 L 123.35 149.66 C 122.48 149.72 121.84 150.47 121.90 151.33 C 121.95 152.19 122.70 152.83 123.56 152.78 Z M 124.32 152.71 L 125.31 152.79 C 126.17 152.86 126.92 152.22 126.99 151.36 C 127.06 150.50 126.42 149.75 125.56 149.67 L 124.57 149.59 C 123.71 149.52 122.96 150.16 122.89 151.02 C 122.82 151.88 123.46 152.64 124.32 152.71 Z M 125.12 152.76 L 126.11 152.96 C 126.96 153.14 127.78 152.59 127.95 151.75 C 128.13 150.90 127.58 150.08 126.74 149.90 L 125.75 149.70 C 124.90 149.53 124.08 150.07 123.90 150.92 C 123.73 151.76 124.28 152.59 125.12 152.76 Z M 125.96 152.92 L 126.92 153.23 C 127.74 153.48 128.62 153.03 128.88 152.20 C 129.13 151.38 128.68 150.50 127.85 150.25 L 126.89 149.94 C 126.07 149.69 125.19 150.14 124.94 150.97 C 124.68 151.79 125.14 152.67 125.96 152.92 Z M 126.78 153.18 L 127.71 153.56 C 128.50 153.89 129.42 153.52 129.75 152.72 C 130.08 151.93 129.71 151.01 128.91 150.68 L 127.99 150.30 C 127.19 149.96 126.28 150.34 125.95 151.13 C 125.61 151.93 125.99 152.84 126.78 153.18 Z M 127.59 153.51 L 128.47 153.96 C 129.23 154.36 130.17 154.06 130.57 153.30 C 130.97 152.53 130.67 151.59 129.91 151.19 L 129.03 150.74 C 128.27 150.34 127.32 150.64 126.92 151.40 C 126.53 152.17 126.82 153.11 127.59 153.51 Z M 128.38 153.91 L 129.22 154.43 C 129.96 154.87 130.92 154.64 131.37 153.90 C 131.81 153.16 131.58 152.20 130.84 151.76 L 130.00 151.24 C 129.26 150.80 128.30 151.03 127.85 151.77 C 127.40 152.51 127.64 153.47 128.38 153.91 Z M 129.17 154.39 L 130.02 154.95 C 130.73 155.43 131.70 155.23 132.18 154.52 C 132.66 153.80 132.46 152.83 131.74 152.35 L 130.90 151.79 C 130.18 151.31 129.21 151.51 128.73 152.23 C 128.26 152.95 128.45 153.92 129.17 154.39 Z M 129.99 154.94 L 130.76 155.47 C 131.47 155.96 132.45 155.78 132.94 155.07 C 133.43 154.36 133.25 153.39 132.54 152.90 L 131.77 152.37 C 131.06 151.88 130.08 152.06 129.59 152.77 C 129.10 153.47 129.28 154.45 129.99 154.94 Z M 130.75 155.46 L 131.55 156.02 C 132.25 156.52 133.22 156.36 133.72 155.65 C 134.22 154.95 134.05 153.97 133.35 153.48 L 132.55 152.91 C 131.85 152.41 130.87 152.58 130.38 153.28 C 129.88 153.99 130.04 154.96 130.75 155.46 Z M 131.53 156.02 L 132.36 156.61 C 133.06 157.12 134.03 156.96 134.54 156.26 C 135.04 155.56 134.89 154.59 134.19 154.08 L 133.36 153.48 C 132.66 152.98 131.69 153.14 131.18 153.84 C 130.68 154.53 130.83 155.51 131.53 156.02 Z M 132.35 156.60 L 133.20 157.23 C 133.90 157.74 134.87 157.59 135.38 156.90 C 135.89 156.20 135.74 155.23 135.05 154.71 L 134.20 154.09 C 133.50 153.58 132.52 153.73 132.01 154.42 C 131.50 155.12 131.65 156.09 132.35 156.60 Z M 133.19 157.23 L 133.96 157.80 C 134.65 158.31 135.63 158.17 136.15 157.48 C 136.66 156.78 136.52 155.81 135.82 155.29 L 135.06 154.72 C 134.37 154.21 133.39 154.35 132.87 155.04 C 132.36 155.73 132.50 156.71 133.19 157.23 Z M 133.95 157.79 L 134.73 158.37 C 135.42 158.89 136.40 158.76 136.92 158.07 C 137.43 157.38 137.30 156.40 136.61 155.88 L 135.83 155.30 C 135.14 154.78 134.16 154.92 133.65 155.60 C 133.13 156.29 133.27 157.27 133.95 157.79 Z M 134.72 158.37 L 135.52 158.98 C 136.20 159.50 137.18 159.37 137.71 158.68 C 138.23 157.99 138.10 157.01 137.41 156.49 L 136.61 155.89 C 135.93 155.36 134.95 155.50 134.43 156.18 C 133.90 156.87 134.04 157.85 134.72 158.37 Z M 135.51 158.97 L 136.32 159.60 C 137.01 160.13 137.99 160.00 138.51 159.32 C 139.04 158.63 138.92 157.65 138.23 157.13 L 137.42 156.50 C 136.74 155.97 135.75 156.10 135.23 156.78 C 134.70 157.46 134.83 158.44 135.51 158.97 Z M 136.32 159.59 L 137.14 160.24 C 137.82 160.77 138.80 160.65 139.34 159.97 C 139.87 159.29 139.75 158.31 139.07 157.78 L 138.24 157.13 C 137.56 156.60 136.58 156.72 136.05 157.40 C 135.52 158.08 135.64 159.06 136.32 159.59 Z M 137.14 160.23 L 137.90 160.84 C 138.58 161.38 139.56 161.26 140.10 160.59 C 140.63 159.91 140.52 158.93 139.84 158.40 L 139.08 157.79 C 138.40 157.25 137.42 157.36 136.88 158.04 C 136.35 158.72 136.46 159.70 137.14 160.23 Z M 137.89 160.83 L 138.67 161.46 C 139.34 162.00 140.32 161.89 140.86 161.22 C 141.40 160.55 141.30 159.57 140.63 159.03 L 139.85 158.40 C 139.18 157.86 138.20 157.97 137.66 158.64 C 137.12 159.31 137.22 160.29 137.89 160.83 Z M 138.66 161.45 L 139.44 162.09 C 140.10 162.63 141.09 162.54 141.63 161.87 C 142.18 161.20 142.08 160.22 141.41 159.67 L 140.64 159.03 C 139.97 158.49 138.99 158.59 138.44 159.25 C 137.89 159.92 137.99 160.90 138.66 161.45 Z M 139.42 162.08 L 140.20 162.73 C 140.86 163.28 141.85 163.19 142.40 162.53 C 142.95 161.87 142.86 160.88 142.20 160.33 L 141.43 159.68 C 140.76 159.13 139.78 159.22 139.23 159.88 C 138.67 160.54 138.76 161.53 139.42 162.08 Z M 140.19 162.72 L 140.96 163.37 C 141.61 163.93 142.60 163.85 143.16 163.20 C 143.72 162.54 143.64 161.56 142.98 161.00 L 142.21 160.34 C 141.56 159.78 140.57 159.86 140.01 160.51 C 139.45 161.17 139.53 162.16 140.19 162.72 Z M 140.94 163.36 L 141.70 164.02 C 142.35 164.59 143.33 164.52 143.90 163.87 C 144.47 163.22 144.40 162.24 143.75 161.67 L 143.00 161.01 C 142.35 160.44 141.36 160.51 140.79 161.16 C 140.23 161.80 140.29 162.79 140.94 163.36 Z M 141.68 164.01 L 142.43 164.68 C 143.07 165.25 144.06 165.20 144.63 164.55 C 145.21 163.91 145.16 162.93 144.51 162.35 L 143.77 161.68 C 143.13 161.11 142.14 161.16 141.56 161.80 C 140.99 162.45 141.04 163.43 141.68 164.01 Z M 142.42 164.66 L 143.15 165.34 C 143.79 165.92 144.78 165.88 145.36 165.24 C 145.94 164.61 145.90 163.62 145.26 163.04 L 144.53 162.36 C 143.89 161.78 142.90 161.82 142.32 162.46 C 141.74 163.09 141.78 164.08 142.42 164.66 Z M 143.14 165.33 L 143.87 166.01 C 144.50 166.60 145.49 166.56 146.08 165.93 C 146.67 165.30 146.63 164.32 146.00 163.73 L 145.27 163.05 C 144.64 162.46 143.65 162.49 143.07 163.12 C 142.48 163.75 142.51 164.74 143.14 165.33 Z M 143.86 166.00 L 144.58 166.69 C 145.21 167.28 146.20 167.26 146.79 166.63 C 147.39 166.01 147.36 165.02 146.74 164.42 L 146.01 163.74 C 145.39 163.14 144.40 163.17 143.80 163.79 C 143.21 164.42 143.24 165.40 143.86 166.00 Z M 144.58 166.68 L 145.30 167.37 C 145.92 167.97 146.91 167.96 147.50 167.34 C 148.10 166.71 148.09 165.73 147.46 165.13 L 146.74 164.43 C 146.12 163.83 145.14 163.85 144.54 164.47 C 143.94 165.09 143.96 166.08 144.58 166.68 Z M 145.29 167.37 L 146.01 168.07 C 146.63 168.67 147.61 168.66 148.22 168.04 C 148.82 167.42 148.81 166.43 148.19 165.83 L 147.47 165.13 C 146.85 164.53 145.86 164.54 145.26 165.16 C 144.66 165.78 144.67 166.77 145.29 167.37 Z M 146.01 168.07 L 146.72 168.77 C 147.34 169.37 148.33 169.36 148.93 168.75 C 149.53 168.13 149.52 167.14 148.91 166.54 L 148.19 165.84 C 147.57 165.23 146.59 165.24 145.98 165.86 C 145.38 166.47 145.39 167.46 146.01 168.07 Z M 146.72 168.77 L 147.44 169.47 C 148.06 170.07 149.05 170.06 149.65 169.45 C 150.25 168.83 150.24 167.84 149.62 167.24 L 148.91 166.54 C 148.29 165.93 147.30 165.95 146.70 166.56 C 146.10 167.18 146.11 168.17 146.72 168.77 Z M 147.45 169.47 L 148.16 170.17 C 148.78 170.77 149.77 170.76 150.37 170.14 C 150.97 169.52 150.96 168.53 150.34 167.93 L 149.62 167.23 C 149.00 166.63 148.01 166.65 147.41 167.27 C 146.81 167.89 146.83 168.87 147.45 169.47 Z M 148.17 170.18 L 148.89 170.86 C 149.51 171.46 150.50 171.44 151.10 170.82 C 151.69 170.19 151.67 169.20 151.05 168.61 L 150.33 167.92 C 149.71 167.33 148.72 167.35 148.12 167.97 C 147.53 168.59 147.55 169.58 148.17 170.18 Z M 148.90 170.88 L 149.64 171.56 C 150.27 172.15 151.25 172.12 151.84 171.49 C 152.43 170.86 152.40 169.88 151.77 169.29 L 151.04 168.60 C 150.41 168.01 149.42 168.04 148.83 168.67 C 148.24 169.30 148.27 170.29 148.90 170.88 Z M 149.65 171.58 L 150.39 172.25 C 151.03 172.84 152.01 172.79 152.59 172.16 C 153.18 171.52 153.13 170.53 152.50 169.95 L 151.76 169.27 C 151.12 168.69 150.13 168.74 149.55 169.37 C 148.97 170.01 149.01 171.00 149.65 171.58 Z M 150.40 172.27 L 151.15 172.93 C 151.79 173.50 152.78 173.45 153.35 172.80 C 153.93 172.16 153.87 171.17 153.23 170.60 L 152.48 169.94 C 151.84 169.36 150.85 169.42 150.28 170.06 C 149.70 170.71 149.76 171.69 150.40 172.27 Z M 151.17 172.95 L 151.92 173.60 C 152.57 174.16 153.56 174.09 154.12 173.44 C 154.68 172.79 154.61 171.80 153.96 171.24 L 153.21 170.58 C 152.56 170.02 151.57 170.09 151.01 170.74 C 150.44 171.40 150.51 172.38 151.17 172.95 Z M 151.94 173.61 L 152.70 174.25 C 153.36 174.81 154.35 174.72 154.90 174.06 C 155.45 173.40 155.37 172.41 154.71 171.86 L 153.94 171.22 C 153.28 170.67 152.30 170.75 151.74 171.41 C 151.19 172.07 151.28 173.06 151.94 173.61 Z M 152.72 174.27 L 153.49 174.89 C 154.16 175.44 155.15 175.33 155.69 174.66 C 156.23 173.99 156.13 173.01 155.46 172.47 L 154.69 171.84 C 154.02 171.30 153.03 171.40 152.49 172.07 C 151.95 172.74 152.05 173.73 152.72 174.27 Z M 153.52 174.91 L 154.30 175.52 C 154.98 176.05 155.96 175.93 156.49 175.25 C 157.02 174.57 156.90 173.59 156.22 173.06 L 155.44 172.45 C 154.76 171.92 153.77 172.04 153.24 172.72 C 152.71 173.40 152.84 174.38 153.52 174.91 Z M 154.33 175.54 L 155.13 176.14 C 155.82 176.66 156.80 176.52 157.31 175.82 C 157.83 175.13 157.69 174.16 157.00 173.64 L 156.19 173.04 C 155.50 172.53 154.52 172.67 154.01 173.36 C 153.49 174.05 153.64 175.03 154.33 175.54 Z M 155.16 176.16 L 155.98 176.74 C 156.68 177.24 157.65 177.08 158.15 176.38 C 158.65 175.67 158.49 174.70 157.78 174.20 L 156.97 173.62 C 156.26 173.12 155.29 173.28 154.79 173.99 C 154.29 174.69 154.45 175.66 155.16 176.16 Z M 156.01 176.77 L 156.84 177.33 C 157.56 177.81 158.53 177.62 159.01 176.90 C 159.49 176.19 159.30 175.22 158.58 174.74 L 157.75 174.18 C 157.03 173.69 156.06 173.89 155.58 174.60 C 155.10 175.32 155.29 176.29 156.01 176.77 Z M 156.88 177.35 L 157.71 177.88 C 158.44 178.34 159.40 178.12 159.86 177.39 C 160.32 176.66 160.11 175.69 159.38 175.23 L 158.55 174.71 C 157.82 174.25 156.85 174.47 156.39 175.20 C 155.93 175.93 156.15 176.89 156.88 177.35 Z M 157.75 177.90 L 158.58 178.39 C 159.32 178.83 160.28 178.58 160.72 177.84 C 161.16 177.10 160.91 176.14 160.17 175.70 L 159.34 175.21 C 158.59 174.77 157.64 175.02 157.20 175.76 C 156.76 176.51 157.01 177.46 157.75 177.90 Z M 158.62 178.41 L 159.48 178.88 C 160.24 179.30 161.19 179.02 161.60 178.26 C 162.02 177.51 161.74 176.56 160.98 176.15 L 160.12 175.68 C 159.37 175.26 158.42 175.54 158.01 176.29 C 157.59 177.05 157.87 178.00 158.62 178.41 Z M 159.53 178.91 L 160.42 179.36 C 161.19 179.75 162.13 179.44 162.51 178.67 C 162.90 177.90 162.60 176.96 161.83 176.57 L 160.94 176.12 C 160.17 175.73 159.23 176.04 158.84 176.81 C 158.45 177.58 158.76 178.52 159.53 178.91 Z M 160.46 179.38 L 161.39 179.81 C 162.17 180.18 163.10 179.84 163.47 179.05 C 163.83 178.27 163.49 177.34 162.71 176.98 L 161.78 176.55 C 161.00 176.19 160.07 176.52 159.71 177.31 C 159.34 178.09 159.68 179.02 160.46 179.38 Z M 161.44 179.83 L 162.41 180.25 C 163.21 180.58 164.12 180.21 164.46 179.42 C 164.80 178.63 164.43 177.71 163.63 177.37 L 162.66 176.96 C 161.87 176.62 160.95 176.99 160.61 177.79 C 160.28 178.58 160.65 179.50 161.44 179.83 Z M 162.46 180.26 L 163.34 180.61 C 164.14 180.92 165.05 180.53 165.36 179.72 C 165.68 178.92 165.28 178.01 164.48 177.70 L 163.59 177.36 C 162.79 177.04 161.88 177.44 161.57 178.24 C 161.26 179.05 161.65 179.95 162.46 180.26 Z M 163.37 180.62 L 164.29 180.95 C 165.10 181.25 165.99 180.83 166.29 180.02 C 166.58 179.21 166.17 178.32 165.36 178.02 L 164.44 177.69 C 163.63 177.39 162.74 177.81 162.44 178.62 C 162.15 179.43 162.56 180.33 163.37 180.62 Z M 164.31 180.96 L 165.25 181.29 C 166.07 181.57 166.96 181.14 167.24 180.32 C 167.52 179.51 167.09 178.62 166.27 178.34 L 165.33 178.01 C 164.52 177.73 163.63 178.16 163.35 178.98 C 163.07 179.79 163.50 180.68 164.31 180.96 Z M 165.27 181.29 L 166.23 181.61 C 167.05 181.88 167.94 181.44 168.21 180.62 C 168.48 179.80 168.03 178.92 167.21 178.65 L 166.25 178.33 C 165.43 178.06 164.55 178.50 164.28 179.32 C 164.01 180.14 164.45 181.02 165.27 181.29 Z M 166.25 181.62 L 167.22 181.93 C 168.04 182.19 168.92 181.74 169.19 180.92 C 169.45 180.10 169.00 179.22 168.18 178.96 L 167.20 178.64 C 166.38 178.38 165.50 178.83 165.24 179.65 C 164.97 180.47 165.43 181.35 166.25 181.62 Z M 167.23 181.93 L 168.22 182.24 C 169.04 182.50 169.91 182.04 170.17 181.22 C 170.43 180.40 169.97 179.52 169.15 179.26 L 168.17 178.95 C 167.35 178.69 166.47 179.15 166.21 179.97 C 165.95 180.80 166.41 181.67 167.23 181.93 Z M 168.22 182.24 L 168.68 182.39 C 169.50 182.64 170.38 182.19 170.64 181.36 C 170.89 180.54 170.43 179.66 169.61 179.41 L 169.15 179.26 C 168.33 179.00 167.45 179.46 167.19 180.29 C 166.94 181.11 167.39 181.98 168.22 182.24 Z"
      fill="black"
      fill-rule="nonzero" /></svg>