<svg xmlns="http://www.w3.org/2000/svg" width="300" height="300" viewBox="0 0 300 300">
<path d="M 141.26 74.46 L 140.98 75.40 C 140.73 76.22 141.20 77.09 142.03 77.34 C 142.86 77.58 143.73 77.11 143.97 76.28 L 144.25 75.34 C 144.50 74.52 144.02 73.65 143.20 73.40 C 142.37 73.16 141.50 73.63 141.26 74.46 Z M 140.97 75.42 L 140.71 76.38 C 140.48 77.21 140.96 78.07 141.79 78.30 C 142.63 78.53 143.49 78.04 143.72 77.21 L 143.98 76.26 C 144.21 75.43 143.72 74.57 142.89 74.34 C 142.06 74.11 141.20 74.59 140.97 75.42 Z M 140.69 76.43 L 140.46 77.40 C 140.26 78.24 140.78 79.08 141.62 79.28 C 142.46 79.48 143.30 78.97 143.50 78.13 L 143.73 77.15 C 143.93 76.32 143.41 75.47 142.57 75.27 C 141.74 75.07 140.89 75.59 140.69 76.43 Z M 140.44 77.48 L 140.26 78.49 C 140.10 79.33 140.66 80.15 141.51 80.30 C 142.36 80.46 143.17 79.90 143.33 79.05 L 143.51 78.05 C 143.67 77.20 143.11 76.39 142.26 76.23 C 141.41 76.07 140.60 76.63 140.44 77.48 Z M 140.24 78.58 L 140.13 79.52 C 140.03 80.38 140.64 81.16 141.49 81.26 C 142.35 81.36 143.13 80.75 143.23 79.90 L 143.34 78.96 C 143.45 78.10 142.84 77.32 141.98 77.22 C 141.13 77.11 140.35 77.72 140.24 78.58 Z M 140.12 79.61 L 140.06 80.56 C 140.01 81.42 140.67 82.16 141.53 82.22 C 142.39 82.27 143.13 81.61 143.18 80.75 L 143.24 79.81 C 143.29 78.94 142.64 78.20 141.78 78.15 C 140.92 78.10 140.17 78.75 140.12 79.61 Z M 140.06 80.65 L 140.06 81.64 C 140.05 82.50 140.75 83.20 141.61 83.21 C 142.47 83.21 143.17 82.51 143.18 81.65 L 143.18 80.67 C 143.19 79.80 142.49 79.10 141.63 79.10 C 140.77 79.09 140.07 79.79 140.06 80.65 Z M 140.06 81.72 L 140.11 82.75 C 140.15 83.61 140.88 84.27 141.74 84.23 C 142.60 84.19 143.27 83.46 143.23 82.60 L 143.18 81.57 C 143.14 80.71 142.40 80.04 141.54 80.08 C 140.68 80.13 140.02 80.86 140.06 81.72 Z M 140.11 82.82 L 140.22 83.90 C 140.30 84.76 141.06 85.39 141.92 85.31 C 142.78 85.22 143.41 84.46 143.32 83.60 L 143.22 82.53 C 143.14 81.67 142.37 81.04 141.52 81.12 C 140.66 81.20 140.03 81.97 140.11 82.82 Z M 140.22 83.97 L 140.36 84.98 C 140.48 85.83 141.27 86.43 142.12 86.31 C 142.98 86.19 143.57 85.40 143.46 84.55 L 143.32 83.54 C 143.20 82.68 142.41 82.09 141.56 82.21 C 140.70 82.32 140.10 83.11 140.22 83.97 Z M 140.37 85.02 L 140.54 86.04 C 140.69 86.89 141.49 87.46 142.34 87.32 C 143.19 87.17 143.77 86.37 143.62 85.52 L 143.45 84.50 C 143.30 83.65 142.50 83.08 141.65 83.22 C 140.80 83.37 140.23 84.17 140.37 85.02 Z M 140.55 86.08 L 140.75 87.09 C 140.91 87.94 141.73 88.49 142.58 88.33 C 143.42 88.16 143.98 87.34 143.81 86.50 L 143.61 85.48 C 143.45 84.63 142.63 84.08 141.78 84.25 C 140.94 84.41 140.38 85.23 140.55 86.08 Z M 140.75 87.12 L 140.96 88.11 C 141.14 88.95 141.97 89.49 142.82 89.31 C 143.66 89.13 144.20 88.30 144.02 87.46 L 143.81 86.47 C 143.63 85.62 142.80 85.09 141.95 85.27 C 141.11 85.45 140.57 86.28 140.75 87.12 Z M 140.97 88.13 L 141.18 89.07 C 141.38 89.91 142.21 90.43 143.05 90.24 C 143.89 90.05 144.42 89.21 144.23 88.37 L 144.01 87.43 C 143.82 86.59 142.98 86.07 142.14 86.26 C 141.30 86.45 140.78 87.29 140.97 88.13 Z M 141.19 89.08 L 141.43 90.10 C 141.63 90.94 142.47 91.45 143.31 91.25 C 144.15 91.05 144.67 90.21 144.47 89.37 L 144.22 88.36 C 144.02 87.52 143.18 87.00 142.34 87.20 C 141.50 87.40 140.99 88.25 141.19 89.08 Z M 141.43 90.11 L 141.70 91.18 C 141.91 92.01 142.76 92.52 143.60 92.31 C 144.43 92.10 144.94 91.25 144.73 90.41 L 144.46 89.35 C 144.25 88.52 143.40 88.01 142.57 88.22 C 141.73 88.43 141.22 89.28 141.43 90.11 Z M 141.71 91.20 L 141.96 92.15 C 142.19 92.98 143.04 93.47 143.88 93.25 C 144.71 93.03 145.20 92.17 144.98 91.34 L 144.72 90.39 C 144.50 89.56 143.64 89.06 142.81 89.29 C 141.98 89.51 141.48 90.37 141.71 91.20 Z M 141.97 92.18 L 142.22 93.04 C 142.46 93.87 143.33 94.34 144.15 94.10 C 144.98 93.86 145.46 93.00 145.22 92.17 L 144.97 91.31 C 144.73 90.48 143.86 90.00 143.04 90.24 C 142.21 90.48 141.73 91.35 141.97 92.18 Z M 142.23 93.07 L 142.49 93.91 C 142.75 94.74 143.63 95.20 144.45 94.94 C 145.27 94.68 145.73 93.80 145.47 92.98 L 145.21 92.14 C 144.95 91.32 144.08 90.86 143.25 91.12 C 142.43 91.37 141.97 92.25 142.23 93.07 Z M 142.50 93.94 L 142.79 94.81 C 143.07 95.63 143.95 96.07 144.77 95.79 C 145.59 95.52 146.03 94.63 145.75 93.82 L 145.46 92.95 C 145.19 92.13 144.31 91.69 143.49 91.97 C 142.67 92.24 142.23 93.13 142.50 93.94 Z M 142.80 94.83 L 143.13 95.76 C 143.41 96.57 144.30 97.00 145.12 96.72 C 145.93 96.43 146.36 95.54 146.07 94.73 L 145.75 93.80 C 145.46 92.98 144.57 92.55 143.76 92.84 C 142.95 93.12 142.52 94.01 142.80 94.83 Z M 143.13 95.76 L 143.50 96.82 C 143.79 97.64 144.68 98.06 145.50 97.77 C 146.31 97.49 146.74 96.59 146.45 95.78 L 146.07 94.72 C 145.78 93.91 144.89 93.48 144.08 93.77 C 143.27 94.06 142.84 94.95 143.13 95.76 Z M 143.50 96.82 L 143.81 97.69 C 144.10 98.51 144.99 98.93 145.80 98.65 C 146.62 98.36 147.04 97.47 146.76 96.65 L 146.45 95.78 C 146.16 94.97 145.27 94.54 144.46 94.83 C 143.64 95.12 143.22 96.01 143.50 96.82 Z M 143.81 97.69 L 144.13 98.59 C 144.41 99.40 145.30 99.83 146.12 99.54 C 146.93 99.26 147.36 98.37 147.07 97.55 L 146.76 96.66 C 146.47 95.84 145.58 95.41 144.77 95.70 C 143.95 95.99 143.52 96.88 143.81 97.69 Z M 144.13 98.59 L 144.46 99.54 C 144.75 100.35 145.64 100.78 146.45 100.50 C 147.26 100.21 147.69 99.32 147.41 98.51 L 147.07 97.55 C 146.79 96.74 145.90 96.31 145.08 96.60 C 144.27 96.88 143.84 97.77 144.13 98.59 Z M 144.46 99.54 L 144.81 100.53 C 145.09 101.34 145.98 101.77 146.80 101.48 C 147.61 101.20 148.04 100.31 147.75 99.49 L 147.41 98.51 C 147.12 97.69 146.23 97.26 145.42 97.55 C 144.60 97.84 144.17 98.73 144.46 99.54 Z M 144.81 100.53 L 145.16 101.53 C 145.45 102.35 146.34 102.77 147.15 102.49 C 147.96 102.20 148.39 101.31 148.11 100.50 L 147.75 99.49 C 147.47 98.68 146.58 98.25 145.76 98.54 C 144.95 98.82 144.52 99.72 144.81 100.53 Z M 145.16 101.53 L 145.51 102.53 C 145.80 103.34 146.69 103.76 147.50 103.48 C 148.32 103.19 148.74 102.30 148.46 101.49 L 148.10 100.49 C 147.82 99.68 146.93 99.25 146.11 99.54 C 145.30 99.83 144.87 100.72 145.16 101.53 Z M 145.51 102.53 L 145.86 103.50 C 146.15 104.31 147.04 104.73 147.85 104.44 C 148.66 104.15 149.09 103.26 148.80 102.45 L 148.45 101.48 C 148.17 100.67 147.27 100.25 146.46 100.53 C 145.65 100.82 145.22 101.72 145.51 102.53 Z M 145.86 103.50 L 146.20 104.45 C 146.49 105.26 147.39 105.69 148.20 105.39 C 149.01 105.10 149.43 104.21 149.14 103.40 L 148.80 102.44 C 148.51 101.63 147.61 101.21 146.80 101.50 C 145.99 101.80 145.57 102.69 145.86 103.50 Z M 146.20 104.46 L 146.55 105.40 C 146.84 106.21 147.74 106.62 148.55 106.33 C 149.36 106.03 149.77 105.14 149.48 104.33 L 149.14 103.39 C 148.84 102.58 147.94 102.16 147.13 102.46 C 146.32 102.75 145.91 103.65 146.20 104.46 Z M 146.55 105.40 L 146.89 106.33 C 147.19 107.13 148.09 107.55 148.90 107.25 C 149.71 106.94 150.12 106.05 149.82 105.24 L 149.47 104.32 C 149.17 103.51 148.28 103.10 147.47 103.40 C 146.66 103.70 146.25 104.60 146.55 105.40 Z M 146.90 106.34 L 147.24 107.24 C 147.55 108.05 148.45 108.46 149.25 108.15 C 150.06 107.84 150.47 106.94 150.16 106.13 L 149.81 105.23 C 149.51 104.42 148.61 104.02 147.80 104.32 C 146.99 104.63 146.59 105.53 146.90 106.34 Z M 147.25 107.26 L 147.63 108.25 C 147.95 109.05 148.85 109.44 149.65 109.13 C 150.46 108.82 150.85 107.91 150.54 107.11 L 150.15 106.12 C 149.84 105.32 148.93 104.92 148.13 105.24 C 147.33 105.55 146.93 106.46 147.25 107.26 Z M 147.64 108.26 L 148.03 109.24 C 148.36 110.04 149.27 110.42 150.07 110.10 C 150.87 109.77 151.25 108.86 150.93 108.06 L 150.53 107.09 C 150.21 106.29 149.30 105.91 148.50 106.23 C 147.70 106.55 147.31 107.46 147.64 108.26 Z M 148.04 109.26 L 148.44 110.19 C 148.78 110.99 149.69 111.36 150.49 111.02 C 151.28 110.69 151.65 109.77 151.31 108.98 L 150.92 108.04 C 150.58 107.25 149.67 106.88 148.87 107.21 C 148.08 107.55 147.71 108.47 148.04 109.26 Z M 148.45 110.22 L 148.85 111.11 C 149.20 111.89 150.12 112.25 150.91 111.89 C 151.70 111.54 152.05 110.62 151.70 109.83 L 151.30 108.95 C 150.95 108.16 150.03 107.81 149.24 108.16 C 148.45 108.51 148.10 109.44 148.45 110.22 Z M 148.86 111.14 L 149.26 111.96 C 149.63 112.74 150.56 113.07 151.34 112.70 C 152.12 112.32 152.45 111.39 152.07 110.61 L 151.68 109.79 C 151.31 109.02 150.38 108.69 149.60 109.06 C 148.82 109.43 148.49 110.36 148.86 111.14 Z M 149.28 112.01 L 149.78 112.97 C 150.18 113.74 151.13 114.03 151.89 113.63 C 152.66 113.23 152.95 112.29 152.55 111.52 L 152.05 110.56 C 151.65 109.80 150.70 109.51 149.94 109.91 C 149.18 110.31 148.88 111.25 149.28 112.01 Z M 149.81 113.03 L 150.32 113.90 C 150.75 114.65 151.70 114.91 152.45 114.48 C 153.20 114.05 153.45 113.10 153.03 112.35 L 152.52 111.47 C 152.09 110.72 151.14 110.47 150.39 110.90 C 149.64 111.32 149.38 112.28 149.81 113.03 Z M 150.34 113.94 L 150.84 114.76 C 151.29 115.49 152.25 115.72 152.99 115.27 C 153.72 114.82 153.95 113.86 153.50 113.12 L 153.00 112.31 C 152.55 111.57 151.59 111.34 150.85 111.80 C 150.12 112.25 149.89 113.21 150.34 113.94 Z M 150.85 114.77 L 151.25 115.40 C 151.71 116.13 152.67 116.35 153.40 115.88 C 154.13 115.42 154.35 114.46 153.89 113.73 L 153.49 113.10 C 153.03 112.37 152.06 112.16 151.34 112.62 C 150.61 113.08 150.39 114.04 150.85 114.77 Z"
      fill="black"
      fill-rule="nonzero" /><path d="M 88.06 112.62 L 87.02 112.74 C 86.16 112.84 85.55 113.62 85.65 114.47 C 85.75 115.33 86.53 115.94 87.38 115.84 L 88.43 115.72 C 89.29 115.62 89.90 114.84 89.80 113.98 C 89.70 113.13 88.92 112.52 88.06 112.62 Z M 87.00 112.74 L 85.97 112.88 C 85.11 112.99 84.51 113.77 84.62 114.62 C 84.73 115.48 85.51 116.08 86.37 115.97 L 87.40 115.84 C 88.26 115.73 88.86 114.95 88.75 114.09 C 88.64 113.24 87.86 112.63 87.00 112.74 Z M 85.93 112.88 L 84.93 113.03 C 84.07 113.16 83.49 113.96 83.62 114.81 C 83.75 115.67 84.54 116.25 85.40 116.12 L 86.40 115.97 C 87.26 115.84 87.84 115.04 87.71 114.19 C 87.58 113.34 86.79 112.75 85.93 112.88 Z M 84.87 113.04 L 83.90 113.23 C 83.06 113.39 82.50 114.20 82.66 115.05 C 82.82 115.90 83.64 116.45 84.48 116.29 L 85.45 116.11 C 86.30 115.95 86.86 115.13 86.70 114.29 C 86.54 113.44 85.72 112.88 84.87 113.04 Z M 83.83 113.24 L 82.91 113.47 C 82.07 113.67 81.56 114.51 81.76 115.35 C 81.97 116.19 82.81 116.70 83.65 116.50 L 84.56 116.28 C 85.40 116.07 85.91 115.23 85.71 114.39 C 85.51 113.55 84.66 113.04 83.83 113.24 Z M 82.78 113.50 L 81.68 113.87 C 80.87 114.14 80.42 115.03 80.70 115.85 C 80.97 116.66 81.86 117.11 82.67 116.83 L 83.78 116.46 C 84.59 116.19 85.03 115.31 84.76 114.49 C 84.49 113.67 83.60 113.23 82.78 113.50 Z M 81.49 113.95 L 80.42 114.48 C 79.64 114.86 79.33 115.80 79.71 116.57 C 80.09 117.34 81.03 117.66 81.80 117.28 L 82.87 116.75 C 83.64 116.37 83.96 115.43 83.58 114.66 C 83.20 113.89 82.26 113.57 81.49 113.95 Z M 80.10 114.69 L 79.42 115.26 C 78.76 115.82 78.67 116.80 79.23 117.46 C 79.78 118.12 80.77 118.21 81.43 117.65 L 82.11 117.07 C 82.77 116.52 82.86 115.53 82.30 114.88 C 81.75 114.22 80.76 114.13 80.10 114.69 Z M 78.92 116.02 L 78.76 116.59 C 78.52 117.42 78.99 118.29 79.82 118.53 C 80.65 118.77 81.52 118.29 81.76 117.46 L 81.92 116.89 C 82.16 116.06 81.69 115.20 80.86 114.96 C 80.03 114.72 79.16 115.19 78.92 116.02 Z M 79.04 118.01 L 79.47 118.54 C 80.02 119.21 81.00 119.31 81.67 118.77 C 82.34 118.23 82.44 117.24 81.90 116.57 L 81.47 116.04 C 80.92 115.38 79.94 115.27 79.27 115.82 C 78.60 116.36 78.50 117.34 79.04 118.01 Z M 79.95 118.94 L 80.84 119.41 C 81.60 119.81 82.54 119.52 82.95 118.76 C 83.35 118.00 83.06 117.05 82.30 116.65 L 81.42 116.18 C 80.66 115.78 79.71 116.06 79.31 116.83 C 78.90 117.59 79.19 118.53 79.95 118.94 Z M 81.05 119.50 L 82.19 119.90 C 83.01 120.19 83.90 119.76 84.19 118.95 C 84.47 118.14 84.05 117.25 83.23 116.96 L 82.09 116.56 C 81.28 116.27 80.38 116.69 80.10 117.51 C 79.81 118.32 80.24 119.21 81.05 119.50 Z M 82.29 119.93 L 83.31 120.22 C 84.14 120.45 85.00 119.97 85.23 119.14 C 85.47 118.31 84.98 117.45 84.15 117.21 L 83.14 116.93 C 82.31 116.70 81.44 117.18 81.21 118.01 C 80.98 118.84 81.46 119.70 82.29 119.93 Z M 83.37 120.24 L 84.31 120.46 C 85.15 120.66 85.99 120.14 86.19 119.30 C 86.39 118.46 85.87 117.62 85.03 117.42 L 84.09 117.20 C 83.25 117.00 82.41 117.52 82.21 118.36 C 82.01 119.20 82.53 120.04 83.37 120.24 Z M 84.36 120.47 L 85.32 120.67 C 86.17 120.84 86.99 120.29 87.16 119.45 C 87.34 118.60 86.79 117.78 85.94 117.61 L 84.98 117.41 C 84.13 117.24 83.31 117.78 83.14 118.63 C 82.97 119.47 83.51 120.30 84.36 120.47 Z M 85.36 120.67 L 86.37 120.85 C 87.22 121.00 88.03 120.43 88.18 119.58 C 88.33 118.73 87.76 117.92 86.91 117.77 L 85.90 117.60 C 85.05 117.45 84.25 118.02 84.10 118.87 C 83.95 119.72 84.52 120.52 85.36 120.67 Z M 86.40 120.85 L 87.45 121.02 C 88.30 121.15 89.10 120.56 89.23 119.71 C 89.36 118.86 88.78 118.06 87.92 117.93 L 86.88 117.77 C 86.03 117.64 85.23 118.22 85.10 119.07 C 84.97 119.93 85.55 120.72 86.40 120.85 Z M 87.47 121.02 L 88.47 121.16 C 89.33 121.28 90.12 120.69 90.24 119.83 C 90.36 118.98 89.76 118.19 88.91 118.07 L 87.90 117.93 C 87.05 117.81 86.26 118.40 86.14 119.26 C 86.02 120.11 86.61 120.90 87.47 121.02 Z M 88.49 121.16 L 89.52 121.30 C 90.37 121.41 91.16 120.80 91.27 119.95 C 91.38 119.09 90.77 118.31 89.92 118.20 L 88.89 118.07 C 88.04 117.96 87.25 118.56 87.14 119.41 C 87.03 120.27 87.64 121.05 88.49 121.16 Z M 89.54 121.30 L 90.55 121.42 C 91.41 121.52 92.19 120.91 92.29 120.05 C 92.39 119.19 91.78 118.42 90.92 118.32 L 89.90 118.20 C 89.05 118.10 88.27 118.71 88.17 119.56 C 88.07 120.42 88.68 121.20 89.54 121.30 Z M 90.57 121.42 L 91.55 121.52 C 92.41 121.62 93.18 121.00 93.27 120.14 C 93.36 119.28 92.74 118.51 91.89 118.42 L 90.90 118.32 C 90.05 118.22 89.28 118.84 89.18 119.70 C 89.09 120.56 89.71 121.33 90.57 121.42 Z M 91.57 121.53 L 92.53 121.62 C 93.39 121.70 94.15 121.07 94.23 120.21 C 94.31 119.35 93.68 118.59 92.82 118.51 L 91.87 118.42 C 91.01 118.34 90.25 118.97 90.16 119.83 C 90.08 120.68 90.71 121.45 91.57 121.53 Z M 92.56 121.62 L 93.66 121.70 C 94.52 121.77 95.27 121.13 95.34 120.27 C 95.40 119.41 94.76 118.66 93.90 118.59 L 92.80 118.51 C 91.94 118.44 91.19 119.08 91.12 119.94 C 91.05 120.80 91.70 121.55 92.56 121.62 Z M 93.69 121.71 L 94.68 121.76 C 95.55 121.81 96.28 121.15 96.33 120.29 C 96.38 119.43 95.72 118.69 94.86 118.64 L 93.87 118.59 C 93.00 118.54 92.27 119.20 92.22 120.06 C 92.17 120.92 92.83 121.66 93.69 121.71 Z M 94.71 121.76 L 95.64 121.80 C 96.50 121.83 97.23 121.15 97.26 120.29 C 97.29 119.43 96.62 118.71 95.75 118.68 L 94.83 118.64 C 93.96 118.61 93.24 119.29 93.21 120.15 C 93.18 121.01 93.85 121.73 94.71 121.76 Z M 95.67 121.80 L 96.60 121.82 C 97.46 121.83 98.18 121.15 98.19 120.29 C 98.21 119.42 97.53 118.71 96.67 118.69 L 95.73 118.67 C 94.87 118.66 94.16 119.34 94.14 120.20 C 94.12 121.07 94.80 121.78 95.67 121.80 Z M 96.62 121.82 L 97.60 121.83 C 98.46 121.84 99.17 121.14 99.18 120.28 C 99.18 119.42 98.49 118.71 97.63 118.70 L 96.65 118.69 C 95.79 118.68 95.08 119.38 95.07 120.24 C 95.06 121.10 95.75 121.81 96.62 121.82 Z M 97.61 121.83 L 98.61 121.83 C 99.47 121.83 100.17 121.14 100.18 120.28 C 100.18 119.41 99.48 118.71 98.62 118.71 L 97.62 118.70 C 96.76 118.70 96.06 119.40 96.05 120.26 C 96.05 121.12 96.75 121.82 97.61 121.83 Z M 98.61 121.83 L 99.64 121.83 C 100.50 121.83 101.20 121.13 101.20 120.27 C 101.20 119.41 100.51 118.71 99.64 118.71 L 98.62 118.71 C 97.75 118.71 97.05 119.41 97.05 120.27 C 97.05 121.13 97.75 121.83 98.61 121.83 Z M 99.64 121.83 L 100.63 121.83 C 101.50 121.83 102.20 121.13 102.20 120.27 C 102.20 119.41 101.50 118.71 100.63 118.71 L 99.64 118.71 C 98.78 118.71 98.08 119.41 98.08 120.27 C 98.08 121.13 98.78 121.83 99.64 121.83 Z M 100.63 121.83 L 101.64 121.83 C 102.50 121.83 103.20 121.13 103.20 120.27 C 103.20 119.41 102.50 118.71 101.64 118.71 L 100.63 118.71 C 99.77 118.71 99.07 119.41 99.07 120.27 C 99.07 121.13 99.77 121.83 100.63 121.83 Z M 101.64 121.83 L 102.65 121.83 C 103.51 121.83 104.21 121.13 104.21 120.27 C 104.21 119.41 103.51 118.71 102.65 118.71 L 101.64 118.71 C 100.78 118.71 100.08 119.41 100.08 120.27 C 100.08 121.13 100.78 121.83 101.64 121.83 Z M 102.65 121.83 L 103.65 121.83 C 104.51 121.83 105.21 121.13 105.21 120.27 C 105.21 119.41 104.51 118.71 103.65 118.71 L 102.65 118.71 C 101.78 118.71 101.08 119.41 101.08 120.27 C 101.08 121.13 101.78 121.83 102.65 121.83 Z M 103.65 121.83 L 104.65 121.83 C 105.51 121.83 106.21 121.13 106.21 120.27 C 106.21 119.41 105.51 118.71 104.65 118.71 L 103.65 118.71 C 102.79 118.71 102.09 119.41 102.09 120.27 C 102.09 121.13 102.79 121.83 103.65 121.83 Z M 104.65 121.83 L 105.64 121.83 C 106.51 121.83 107.20 121.13 107.20 120.27 C 107.20 119.41 106.51 118.71 105.64 118.71 L 104.65 118.71 C 103.79 118.71 103.09 119.41 103.09 120.27 C 103.09 121.13 103.79 121.83 104.65 121.83 Z M 105.64 121.83 L 106.64 121.83 C 107.50 121.83 108.20 121.13 108.20 120.27 C 108.20 119.41 107.50 118.71 106.64 118.71 L 105.64 118.71 C 104.78 118.71 104.08 119.41 104.08 120.27 C 104.08 121.13 104.78 121.83 105.64 121.83 Z M 106.64 121.83 L 107.62 121.83 C 108.48 121.83 109.18 121.13 109.18 120.27 C 109.18 119.41 108.48 118.71 107.62 118.71 L 106.64 118.71 C 105.78 118.71 105.08 119.41 105.08 120.27 C 105.08 121.13 105.78 121.83 106.64 121.83 Z M 107.63 121.83 L 108.60 121.83 C 109.46 121.83 110.16 121.13 110.15 120.26 C 110.15 119.40 109.45 118.70 108.59 118.71 L 107.62 118.71 C 106.76 118.71 106.06 119.41 106.06 120.27 C 106.06 121.14 106.76 121.83 107.63 121.83 Z M 108.61 121.83 L 109.60 121.82 C 110.47 121.81 111.16 121.11 111.15 120.24 C 111.14 119.38 110.44 118.69 109.58 118.70 L 108.58 118.71 C 107.72 118.71 107.02 119.42 107.03 120.28 C 107.04 121.14 107.74 121.84 108.61 121.83 Z M 109.62 121.82 L 110.65 121.80 C 111.51 121.78 112.20 121.07 112.18 120.21 C 112.17 119.34 111.45 118.66 110.59 118.68 L 109.56 118.70 C 108.70 118.71 108.01 119.43 108.03 120.29 C 108.05 121.15 108.76 121.84 109.62 121.82 Z M 110.67 121.80 L 111.65 121.77 C 112.51 121.74 113.19 121.02 113.16 120.15 C 113.13 119.29 112.41 118.62 111.55 118.65 L 110.57 118.68 C 109.71 118.71 109.03 119.43 109.06 120.29 C 109.09 121.15 109.81 121.83 110.67 121.80 Z M 111.67 121.76 L 112.63 121.72 C 113.49 121.68 114.15 120.95 114.11 120.08 C 114.07 119.22 113.34 118.56 112.48 118.60 L 111.52 118.65 C 110.66 118.69 110.00 119.42 110.04 120.28 C 110.08 121.14 110.81 121.81 111.67 121.76 Z M 112.65 121.72 L 113.64 121.65 C 114.50 121.59 115.15 120.85 115.10 119.99 C 115.04 119.13 114.30 118.48 113.44 118.54 L 112.45 118.60 C 111.59 118.66 110.94 119.40 110.99 120.26 C 111.05 121.12 111.79 121.77 112.65 121.72 Z M 113.67 121.65 L 114.70 121.56 C 115.56 121.49 116.20 120.73 116.12 119.87 C 116.05 119.01 115.29 118.38 114.43 118.45 L 113.40 118.54 C 112.55 118.61 111.91 119.37 111.98 120.23 C 112.06 121.09 112.81 121.72 113.67 121.65 Z M 114.74 121.56 L 115.80 121.44 C 116.65 121.35 117.27 120.58 117.18 119.72 C 117.09 118.86 116.32 118.24 115.46 118.34 L 114.40 118.45 C 113.54 118.55 112.92 119.32 113.01 120.17 C 113.11 121.03 113.88 121.65 114.74 121.56 Z M 115.83 121.44 L 116.75 121.32 C 117.61 121.21 118.21 120.42 118.10 119.57 C 117.99 118.71 117.20 118.11 116.35 118.22 L 115.43 118.34 C 114.57 118.45 113.97 119.24 114.08 120.09 C 114.19 120.95 114.97 121.55 115.83 121.44 Z M 116.78 121.31 L 117.73 121.17 C 118.58 121.05 119.17 120.26 119.05 119.40 C 118.93 118.55 118.13 117.96 117.28 118.09 L 116.33 118.22 C 115.47 118.35 114.88 119.14 115.01 119.99 C 115.13 120.85 115.92 121.44 116.78 121.31 Z M 117.75 121.17 L 118.73 121.02 C 119.58 120.88 120.16 120.08 120.03 119.23 C 119.90 118.38 119.10 117.80 118.25 117.93 L 117.26 118.09 C 116.41 118.22 115.83 119.02 115.96 119.87 C 116.10 120.72 116.90 121.31 117.75 121.17 Z M 118.74 121.02 L 119.75 120.85 C 120.61 120.71 121.18 119.91 121.04 119.05 C 120.90 118.20 120.10 117.63 119.25 117.77 L 118.23 117.94 C 117.38 118.08 116.81 118.88 116.95 119.73 C 117.09 120.58 117.89 121.16 118.74 121.02 Z M 119.76 120.85 L 120.80 120.67 C 121.65 120.53 122.22 119.72 122.08 118.87 C 121.94 118.02 121.13 117.45 120.28 117.59 L 119.24 117.77 C 118.39 117.91 117.82 118.72 117.96 119.57 C 118.10 120.42 118.91 120.99 119.76 120.85 Z M 120.80 120.67 L 121.78 120.50 C 122.63 120.36 123.20 119.55 123.06 118.70 C 122.91 117.85 122.11 117.28 121.26 117.43 L 120.28 117.59 C 119.43 117.74 118.86 118.55 119.00 119.40 C 119.15 120.25 119.95 120.82 120.80 120.67 Z M 121.78 120.50 L 122.72 120.35 C 123.57 120.20 124.14 119.39 123.99 118.54 C 123.85 117.69 123.04 117.12 122.19 117.27 L 121.26 117.43 C 120.41 117.57 119.84 118.38 119.98 119.23 C 120.13 120.08 120.93 120.65 121.78 120.50 Z M 122.72 120.35 L 123.67 120.18 C 124.52 120.04 125.09 119.23 124.95 118.38 C 124.80 117.53 124.00 116.96 123.15 117.10 L 122.19 117.27 C 121.34 117.41 120.77 118.22 120.92 119.07 C 121.06 119.92 121.87 120.49 122.72 120.35 Z M 123.67 120.18 L 124.65 120.01 C 125.50 119.87 126.07 119.06 125.93 118.21 C 125.78 117.36 124.98 116.79 124.13 116.94 L 123.15 117.10 C 122.30 117.25 121.73 118.06 121.87 118.91 C 122.02 119.76 122.82 120.33 123.67 120.18 Z M 124.66 120.01 L 125.66 119.84 C 126.51 119.69 127.08 118.89 126.93 118.04 C 126.79 117.19 125.98 116.62 125.13 116.76 L 124.13 116.94 C 123.28 117.08 122.71 117.89 122.85 118.74 C 123.00 119.59 123.81 120.16 124.66 120.01 Z M 125.66 119.84 L 126.69 119.66 C 127.54 119.51 128.11 118.71 127.96 117.86 C 127.82 117.01 127.01 116.44 126.16 116.58 L 125.13 116.76 C 124.28 116.91 123.71 117.72 123.86 118.57 C 124.00 119.42 124.81 119.99 125.66 119.84 Z M 126.69 119.66 L 127.73 119.48 C 128.58 119.33 129.15 118.52 129.00 117.67 C 128.85 116.82 128.05 116.26 127.20 116.40 L 126.16 116.59 C 125.31 116.73 124.74 117.54 124.89 118.39 C 125.04 119.24 125.85 119.81 126.69 119.66 Z M 127.74 119.48 L 128.70 119.31 C 129.55 119.16 130.12 118.35 129.97 117.50 C 129.82 116.65 129.01 116.09 128.16 116.24 L 127.20 116.40 C 126.35 116.55 125.78 117.36 125.93 118.21 C 126.08 119.06 126.89 119.63 127.74 119.48 Z M 128.70 119.31 L 129.68 119.14 C 130.53 118.99 131.10 118.18 130.95 117.33 C 130.80 116.48 129.99 115.91 129.14 116.06 L 128.16 116.24 C 127.31 116.39 126.74 117.20 126.89 118.04 C 127.04 118.89 127.85 119.46 128.70 119.31 Z M 129.68 119.14 L 130.68 118.96 C 131.52 118.81 132.09 118.00 131.94 117.15 C 131.79 116.30 130.97 115.73 130.13 115.89 L 129.13 116.06 C 128.29 116.21 127.72 117.03 127.87 117.87 C 128.02 118.72 128.84 119.29 129.68 119.14 Z M 130.68 118.96 L 131.67 118.78 C 132.52 118.62 133.09 117.81 132.93 116.96 C 132.78 116.12 131.97 115.55 131.12 115.71 L 130.12 115.89 C 129.27 116.04 128.71 116.85 128.86 117.70 C 129.02 118.55 129.83 119.11 130.68 118.96 Z M 131.68 118.78 L 132.67 118.60 C 133.52 118.44 134.08 117.63 133.93 116.78 C 133.77 115.93 132.96 115.37 132.11 115.52 L 131.12 115.71 C 130.27 115.86 129.71 116.67 129.86 117.52 C 130.02 118.37 130.83 118.93 131.68 118.78 Z M 132.68 118.59 L 133.67 118.41 C 134.51 118.25 135.07 117.44 134.92 116.59 C 134.76 115.74 133.94 115.18 133.10 115.34 L 132.11 115.52 C 131.26 115.68 130.70 116.50 130.86 117.34 C 131.02 118.19 131.83 118.75 132.68 118.59 Z M 133.67 118.41 L 134.65 118.23 C 135.50 118.07 136.05 117.25 135.89 116.40 C 135.73 115.55 134.92 115.00 134.07 115.16 L 133.09 115.34 C 132.24 115.50 131.69 116.32 131.85 117.17 C 132.01 118.01 132.82 118.57 133.67 118.41 Z M 134.65 118.22 L 135.67 118.03 C 136.52 117.87 137.07 117.05 136.91 116.20 C 136.75 115.35 135.93 114.80 135.08 114.96 L 134.06 115.16 C 133.22 115.32 132.66 116.14 132.83 116.99 C 132.99 117.83 133.81 118.39 134.65 118.22 Z M 135.68 118.03 L 136.68 117.83 C 137.53 117.67 138.08 116.85 137.91 116.00 C 137.75 115.15 136.93 114.60 136.08 114.77 L 135.08 114.96 C 134.23 115.13 133.68 115.95 133.85 116.80 C 134.01 117.64 134.83 118.19 135.68 118.03 Z M 136.68 117.83 L 137.67 117.63 C 138.52 117.47 139.07 116.64 138.90 115.80 C 138.73 114.95 137.91 114.40 137.06 114.57 L 136.08 114.77 C 135.23 114.94 134.68 115.76 134.85 116.60 C 135.02 117.45 135.84 118.00 136.68 117.83 Z M 137.68 117.63 L 138.65 117.44 C 139.50 117.27 140.04 116.44 139.87 115.60 C 139.70 114.75 138.88 114.21 138.03 114.38 L 137.06 114.57 C 136.21 114.74 135.67 115.57 135.84 116.41 C 136.01 117.26 136.83 117.80 137.68 117.63 Z M 138.65 117.44 L 139.62 117.24 C 140.46 117.07 141.01 116.24 140.84 115.40 C 140.66 114.55 139.84 114.01 139.00 114.18 L 138.03 114.38 C 137.19 114.55 136.64 115.37 136.81 116.22 C 136.98 117.06 137.81 117.61 138.65 117.44 Z M 139.62 117.24 L 140.58 117.04 C 141.42 116.87 141.97 116.05 141.79 115.20 C 141.62 114.36 140.79 113.81 139.95 113.99 L 138.99 114.18 C 138.15 114.35 137.60 115.18 137.78 116.02 C 137.95 116.87 138.78 117.41 139.62 117.24 Z M 140.58 117.04 L 141.54 116.85 C 142.38 116.67 142.93 115.85 142.75 115.00 C 142.58 114.16 141.75 113.61 140.91 113.79 L 139.95 113.99 C 139.10 114.16 138.56 114.99 138.73 115.83 C 138.91 116.67 139.73 117.22 140.58 117.04 Z M 141.54 116.85 L 142.53 116.64 C 143.38 116.47 143.92 115.64 143.74 114.80 C 143.57 113.95 142.74 113.41 141.90 113.58 L 140.91 113.79 C 140.06 113.96 139.52 114.79 139.70 115.63 C 139.87 116.48 140.70 117.02 141.54 116.85 Z M 142.53 116.64 L 143.52 116.44 C 144.36 116.26 144.90 115.43 144.73 114.59 C 144.55 113.75 143.73 113.20 142.88 113.38 L 141.90 113.58 C 141.05 113.76 140.51 114.58 140.69 115.43 C 140.86 116.27 141.69 116.82 142.53 116.64 Z M 143.52 116.44 L 144.50 116.23 C 145.35 116.05 145.89 115.23 145.71 114.38 C 145.54 113.54 144.71 113.00 143.86 113.17 L 142.88 113.38 C 142.04 113.55 141.50 114.38 141.67 115.23 C 141.85 116.07 142.68 116.61 143.52 116.44 Z M 144.50 116.23 L 145.48 116.03 C 146.32 115.85 146.87 115.02 146.69 114.18 C 146.51 113.33 145.68 112.79 144.84 112.97 L 143.86 113.17 C 143.02 113.35 142.48 114.18 142.66 115.02 C 142.83 115.87 143.66 116.41 144.50 116.23 Z M 145.48 116.03 L 146.45 115.82 C 147.30 115.64 147.84 114.82 147.66 113.97 C 147.48 113.13 146.65 112.59 145.81 112.77 L 144.84 112.97 C 143.99 113.15 143.46 113.98 143.63 114.82 C 143.81 115.66 144.64 116.20 145.48 116.03 Z M 146.46 115.82 L 147.42 115.62 C 148.27 115.44 148.80 114.61 148.63 113.76 C 148.45 112.92 147.62 112.38 146.78 112.56 L 145.81 112.77 C 144.97 112.94 144.43 113.77 144.61 114.62 C 144.78 115.46 145.61 116.00 146.46 115.82 Z M 147.42 115.62 L 148.40 115.41 C 149.25 115.23 149.79 114.40 149.61 113.55 C 149.43 112.71 148.60 112.17 147.75 112.35 L 146.77 112.56 C 145.93 112.74 145.39 113.57 145.57 114.41 C 145.75 115.26 146.58 115.79 147.42 115.62 Z M 148.41 115.41 L 149.39 115.20 C 150.23 115.01 150.77 114.19 150.59 113.34 C 150.41 112.50 149.58 111.96 148.73 112.14 L 147.75 112.35 C 146.91 112.53 146.37 113.36 146.55 114.21 C 146.73 115.05 147.56 115.59 148.41 115.41 Z M 149.39 115.20 L 150.37 114.99 C 151.21 114.80 151.74 113.97 151.56 113.13 C 151.38 112.29 150.55 111.75 149.71 111.93 L 148.73 112.14 C 147.89 112.32 147.35 113.15 147.53 114.00 C 147.72 114.84 148.55 115.38 149.39 115.20 Z M 150.37 114.98 L 151.34 114.77 C 152.18 114.59 152.72 113.76 152.54 112.92 C 152.36 112.08 151.53 111.54 150.68 111.72 L 149.71 111.93 C 148.87 112.11 148.33 112.95 148.51 113.79 C 148.69 114.63 149.52 115.17 150.37 114.98 Z M 151.34 114.77 L 152.32 114.56 C 153.16 114.38 153.69 113.55 153.51 112.71 C 153.33 111.87 152.50 111.33 151.66 111.51 L 150.68 111.72 C 149.84 111.90 149.30 112.74 149.49 113.58 C 149.67 114.42 150.50 114.96 151.34 114.77 Z M 152.32 114.56 L 153.29 114.35 C 154.13 114.17 154.67 113.34 154.49 112.50 C 154.31 111.66 153.47 111.12 152.63 111.30 L 151.66 111.51 C 150.81 111.69 150.28 112.52 150.46 113.37 C 150.64 114.21 151.47 114.75 152.32 114.56 Z M 153.29 114.35 L 154.26 114.14 C 155.11 113.96 155.64 113.13 155.46 112.29 C 155.28 111.45 154.45 110.91 153.61 111.09 L 152.63 111.30 C 151.79 111.48 151.25 112.31 151.44 113.16 C 151.62 114.00 152.45 114.54 153.29 114.35 Z M 154.26 114.15 L 155.23 113.94 C 156.08 113.76 156.61 112.93 156.43 112.08 C 156.25 111.24 155.42 110.70 154.58 110.88 L 153.61 111.09 C 152.77 111.27 152.23 112.10 152.41 112.95 C 152.59 113.79 153.42 114.33 154.26 114.15 Z M 155.23 113.94 L 156.21 113.73 C 157.05 113.55 157.59 112.72 157.41 111.88 C 157.23 111.04 156.40 110.50 155.56 110.68 L 154.58 110.88 C 153.74 111.06 153.20 111.89 153.38 112.73 C 153.56 113.58 154.39 114.12 155.23 113.94 Z M 156.20 113.73 L 157.18 113.53 C 158.02 113.35 158.57 112.53 158.39 111.68 C 158.21 110.84 157.39 110.30 156.54 110.47 L 155.56 110.68 C 154.72 110.85 154.18 111.68 154.35 112.52 C 154.53 113.37 155.36 113.91 156.20 113.73 Z M 157.17 113.53 L 158.16 113.33 C 159.00 113.16 159.55 112.33 159.37 111.49 C 159.20 110.64 158.38 110.10 157.53 110.27 L 156.55 110.47 C 155.70 110.64 155.16 111.47 155.33 112.31 C 155.50 113.16 156.33 113.70 157.17 113.53 Z M 158.15 113.33 L 159.13 113.13 C 159.98 112.97 160.53 112.14 160.36 111.30 C 160.19 110.45 159.37 109.90 158.52 110.07 L 157.54 110.27 C 156.69 110.44 156.14 111.26 156.31 112.10 C 156.48 112.95 157.30 113.50 158.15 113.33 Z M 159.12 113.14 L 160.11 112.95 C 160.96 112.78 161.51 111.97 161.35 111.12 C 161.18 110.27 160.37 109.72 159.52 109.88 L 158.53 110.07 C 157.69 110.23 157.13 111.05 157.30 111.90 C 157.46 112.75 158.28 113.30 159.12 113.14 Z M 160.10 112.95 L 161.05 112.77 C 161.90 112.61 162.46 111.80 162.30 110.95 C 162.15 110.10 161.33 109.54 160.48 109.70 L 159.53 109.88 C 158.68 110.04 158.12 110.85 158.28 111.70 C 158.44 112.55 159.25 113.11 160.10 112.95 Z M 161.04 112.77 L 162.01 112.60 C 162.85 112.45 163.42 111.64 163.27 110.79 C 163.11 109.94 162.30 109.37 161.45 109.53 L 160.49 109.70 C 159.64 109.85 159.08 110.66 159.23 111.51 C 159.38 112.36 160.20 112.93 161.04 112.77 Z M 162.00 112.60 L 162.97 112.43 C 163.82 112.28 164.39 111.48 164.24 110.63 C 164.09 109.78 163.28 109.21 162.43 109.36 L 161.46 109.53 C 160.61 109.67 160.04 110.48 160.19 111.33 C 160.34 112.18 161.15 112.75 162.00 112.60 Z M 162.96 112.43 L 163.95 112.27 C 164.80 112.12 165.37 111.31 165.22 110.46 C 165.08 109.61 164.27 109.04 163.42 109.19 L 162.44 109.36 C 161.59 109.50 161.02 110.31 161.16 111.16 C 161.31 112.01 162.11 112.58 162.96 112.43 Z M 163.94 112.27 L 164.94 112.10 C 165.79 111.96 166.36 111.15 166.22 110.30 C 166.08 109.45 165.27 108.88 164.42 109.02 L 163.43 109.19 C 162.57 109.33 162.00 110.13 162.14 110.98 C 162.29 111.83 163.09 112.41 163.94 112.27 Z M 164.94 112.10 L 165.95 111.93 C 166.81 111.79 167.38 110.99 167.24 110.14 C 167.10 109.29 166.30 108.71 165.45 108.85 L 164.43 109.02 C 163.58 109.16 163.00 109.96 163.14 110.81 C 163.28 111.66 164.09 112.24 164.94 112.10 Z M 165.95 111.93 L 166.96 111.77 C 167.82 111.63 168.39 110.82 168.25 109.97 C 168.11 109.12 167.31 108.55 166.46 108.69 L 165.45 108.85 C 164.60 108.99 164.02 109.79 164.16 110.64 C 164.30 111.49 165.10 112.07 165.95 111.93 Z M 166.96 111.77 L 167.96 111.61 C 168.81 111.47 169.39 110.66 169.25 109.81 C 169.11 108.96 168.31 108.38 167.46 108.52 L 166.46 108.69 C 165.61 108.82 165.03 109.63 165.17 110.48 C 165.31 111.33 166.11 111.91 166.96 111.77 Z M 167.96 111.61 L 168.96 111.44 C 169.81 111.31 170.39 110.50 170.25 109.65 C 170.12 108.80 169.31 108.22 168.46 108.36 L 167.46 108.52 C 166.61 108.66 166.03 109.46 166.17 110.31 C 166.30 111.16 167.10 111.74 167.96 111.61 Z M 168.96 111.44 L 169.96 111.28 C 170.82 111.15 171.40 110.35 171.26 109.49 C 171.12 108.64 170.32 108.06 169.47 108.20 L 168.46 108.36 C 167.61 108.50 167.03 109.30 167.17 110.15 C 167.31 111.00 168.11 111.58 168.96 111.44 Z M 169.96 111.28 L 170.96 111.12 C 171.81 110.99 172.39 110.19 172.26 109.34 C 172.12 108.49 171.32 107.91 170.47 108.04 L 169.47 108.20 C 168.62 108.33 168.04 109.13 168.18 109.99 C 168.31 110.84 169.11 111.42 169.96 111.28 Z M 170.96 111.12 L 171.95 110.97 C 172.80 110.84 173.38 110.04 173.25 109.19 C 173.11 108.33 172.31 107.75 171.46 107.89 L 170.48 108.04 C 169.62 108.17 169.04 108.97 169.18 109.82 C 169.31 110.68 170.11 111.26 170.96 111.12 Z M 171.94 110.97 L 172.91 110.82 C 173.76 110.69 174.34 109.89 174.21 109.04 C 174.08 108.19 173.28 107.60 172.43 107.74 L 171.47 107.88 C 170.61 108.02 170.03 108.81 170.16 109.67 C 170.29 110.52 171.09 111.10 171.94 110.97 Z M 172.90 110.82 L 173.90 110.67 C 174.75 110.54 175.34 109.75 175.21 108.89 C 175.08 108.04 174.28 107.45 173.43 107.58 L 172.43 107.74 C 171.58 107.86 171.00 108.66 171.12 109.51 C 171.25 110.37 172.05 110.95 172.90 110.82 Z M 173.90 110.67 L 174.95 110.52 C 175.80 110.39 176.39 109.59 176.26 108.74 C 176.14 107.89 175.34 107.30 174.49 107.43 L 173.44 107.58 C 172.58 107.71 172.00 108.50 172.12 109.36 C 172.25 110.21 173.04 110.80 173.90 110.67 Z M 174.94 110.52 L 175.96 110.37 C 176.81 110.25 177.40 109.45 177.28 108.60 C 177.16 107.75 176.36 107.16 175.51 107.28 L 174.50 107.43 C 173.64 107.55 173.05 108.34 173.17 109.19 C 173.30 110.05 174.09 110.64 174.94 110.52 Z M 175.95 110.37 L 176.94 110.23 C 177.79 110.11 178.38 109.32 178.26 108.47 C 178.14 107.61 177.35 107.02 176.50 107.14 L 175.52 107.28 C 174.66 107.40 174.07 108.19 174.19 109.04 C 174.31 109.90 175.10 110.49 175.95 110.37 Z M 176.93 110.23 L 177.89 110.10 C 178.74 109.98 179.34 109.19 179.22 108.34 C 179.10 107.49 178.32 106.89 177.46 107.01 L 176.50 107.14 C 175.65 107.26 175.05 108.04 175.17 108.90 C 175.29 109.75 176.08 110.35 176.93 110.23 Z M 177.88 110.10 L 178.82 109.97 C 179.68 109.86 180.28 109.07 180.16 108.22 C 180.05 107.36 179.26 106.76 178.41 106.88 L 177.47 107.01 C 176.61 107.12 176.01 107.91 176.13 108.76 C 176.24 109.62 177.03 110.22 177.88 110.10 Z M 178.82 109.97 L 179.79 109.85 C 180.64 109.74 181.24 108.95 181.13 108.10 C 181.02 107.24 180.23 106.64 179.38 106.75 L 178.41 106.88 C 177.56 106.99 176.96 107.77 177.07 108.63 C 177.18 109.48 177.96 110.09 178.82 109.97 Z M 179.78 109.85 L 180.80 109.72 C 181.65 109.61 182.26 108.83 182.15 107.97 C 182.04 107.12 181.26 106.51 180.40 106.62 L 179.38 106.75 C 178.53 106.86 177.92 107.64 178.03 108.50 C 178.14 109.35 178.93 109.96 179.78 109.85 Z M 180.79 109.72 L 181.80 109.59 C 182.65 109.49 183.26 108.71 183.15 107.85 C 183.05 106.99 182.27 106.39 181.41 106.49 L 180.41 106.62 C 179.55 106.73 178.94 107.51 179.05 108.36 C 179.16 109.22 179.94 109.83 180.79 109.72 Z M 181.79 109.59 L 182.79 109.47 C 183.64 109.37 184.25 108.59 184.15 107.73 C 184.04 106.88 183.26 106.27 182.41 106.37 L 181.41 106.49 C 180.56 106.60 179.95 107.38 180.05 108.23 C 180.16 109.09 180.94 109.70 181.79 109.59 Z M 182.78 109.47 L 183.76 109.36 C 184.62 109.25 185.23 108.48 185.12 107.62 C 185.02 106.76 184.24 106.15 183.39 106.26 L 182.41 106.37 C 181.56 106.47 180.94 107.25 181.05 108.11 C 181.15 108.96 181.93 109.57 182.78 109.47 Z M 183.75 109.36 L 184.72 109.24 C 185.57 109.14 186.19 108.37 186.09 107.51 C 185.99 106.66 185.21 106.04 184.35 106.14 L 183.39 106.26 C 182.54 106.36 181.92 107.13 182.02 107.99 C 182.12 108.84 182.90 109.46 183.75 109.36 Z M 184.71 109.24 L 185.76 109.12 C 186.62 109.03 187.23 108.25 187.13 107.40 C 187.04 106.54 186.26 105.92 185.40 106.02 L 184.36 106.14 C 183.50 106.24 182.89 107.01 182.98 107.87 C 183.08 108.73 183.86 109.34 184.71 109.24 Z M 185.76 109.13 L 186.78 109.01 C 187.64 108.92 188.25 108.14 188.16 107.29 C 188.06 106.43 187.29 105.81 186.43 105.91 L 185.41 106.02 C 184.55 106.12 183.93 106.89 184.03 107.75 C 184.13 108.60 184.90 109.22 185.76 109.13 Z M 186.78 109.01 L 187.77 108.90 C 188.63 108.81 189.25 108.04 189.16 107.18 C 189.06 106.32 188.29 105.71 187.43 105.80 L 186.44 105.91 C 185.58 106.00 184.96 106.77 185.06 107.63 C 185.15 108.49 185.92 109.11 186.78 109.01 Z M 187.77 108.90 L 188.73 108.80 C 189.59 108.71 190.21 107.94 190.12 107.08 C 190.03 106.22 189.26 105.60 188.40 105.70 L 187.44 105.80 C 186.58 105.89 185.96 106.66 186.05 107.52 C 186.14 108.37 186.91 108.99 187.77 108.90 Z M 188.73 108.80 L 189.68 108.70 C 190.53 108.61 191.16 107.84 191.07 106.98 C 190.98 106.13 190.21 105.51 189.35 105.60 L 188.40 105.69 C 187.55 105.79 186.93 106.55 187.02 107.41 C 187.11 108.27 187.87 108.89 188.73 108.80 Z M 189.67 108.70 L 190.75 108.59 C 191.61 108.50 192.23 107.73 192.14 106.88 C 192.06 106.02 191.29 105.40 190.43 105.48 L 189.35 105.59 C 188.50 105.68 187.87 106.45 187.96 107.31 C 188.05 108.17 188.82 108.79 189.67 108.70 Z M 190.74 108.59 L 191.76 108.49 C 192.62 108.41 193.25 107.64 193.16 106.78 C 193.08 105.93 192.32 105.30 191.46 105.38 L 190.44 105.48 C 189.58 105.57 188.95 106.33 189.04 107.19 C 189.12 108.05 189.89 108.68 190.74 108.59 Z M 191.75 108.49 L 192.71 108.40 C 193.57 108.33 194.20 107.57 194.13 106.71 C 194.05 105.85 193.29 105.22 192.43 105.29 L 191.47 105.38 C 190.61 105.46 189.98 106.22 190.06 107.08 C 190.13 107.94 190.89 108.57 191.75 108.49 Z M 192.70 108.41 L 193.62 108.33 C 194.48 108.26 195.12 107.51 195.05 106.65 C 194.98 105.79 194.23 105.15 193.37 105.22 L 192.45 105.29 C 191.59 105.36 190.95 106.12 191.02 106.97 C 191.08 107.83 191.84 108.47 192.70 108.41 Z M 193.60 108.33 L 194.64 108.26 C 195.51 108.21 196.16 107.46 196.10 106.60 C 196.04 105.74 195.30 105.09 194.44 105.15 L 193.39 105.22 C 192.53 105.27 191.88 106.02 191.94 106.88 C 191.99 107.74 192.74 108.39 193.60 108.33 Z M 194.62 108.26 L 195.61 108.21 C 196.47 108.17 197.13 107.43 197.09 106.57 C 197.04 105.71 196.31 105.05 195.45 105.09 L 194.46 105.15 C 193.60 105.19 192.94 105.93 192.98 106.79 C 193.03 107.65 193.76 108.31 194.62 108.26 Z M 195.60 108.21 L 196.56 108.17 C 197.42 108.13 198.09 107.40 198.05 106.54 C 198.01 105.68 197.28 105.01 196.42 105.05 L 195.46 105.09 C 194.60 105.13 193.93 105.86 193.97 106.72 C 194.01 107.59 194.74 108.25 195.60 108.21 Z M 196.55 108.17 L 197.53 108.13 C 198.39 108.09 199.05 107.36 199.02 106.50 C 198.98 105.64 198.25 104.97 197.39 105.01 L 196.42 105.05 C 195.56 105.09 194.89 105.82 194.93 106.68 C 194.96 107.54 195.69 108.21 196.55 108.17 Z M 197.52 108.13 L 198.51 108.09 C 199.37 108.05 200.04 107.32 200.01 106.46 C 199.97 105.60 199.24 104.93 198.38 104.97 L 197.39 105.01 C 196.53 105.05 195.86 105.77 195.90 106.63 C 195.93 107.50 196.66 108.16 197.52 108.13 Z M 198.51 108.09 L 199.53 108.04 C 200.39 108.01 201.06 107.28 201.03 106.42 C 200.99 105.56 200.26 104.89 199.40 104.92 L 198.38 104.97 C 197.52 105.00 196.85 105.73 196.89 106.59 C 196.92 107.45 197.65 108.12 198.51 108.09 Z M 199.53 108.04 L 200.80 107.99 C 201.66 107.95 202.33 107.22 202.29 106.36 C 202.25 105.50 201.52 104.83 200.66 104.87 L 199.40 104.92 C 198.54 104.96 197.87 105.69 197.91 106.55 C 197.94 107.41 198.67 108.08 199.53 108.04 Z M 200.86 107.99 L 201.93 107.89 C 202.79 107.82 203.43 107.07 203.36 106.21 C 203.29 105.35 202.53 104.71 201.67 104.78 L 200.60 104.87 C 199.74 104.95 199.10 105.70 199.17 106.56 C 199.25 107.42 200.00 108.06 200.86 107.99 Z M 202.55 107.71 L 202.88 107.53 C 203.64 107.12 203.92 106.17 203.50 105.41 C 203.09 104.66 202.14 104.38 201.39 104.79 L 201.06 104.97 C 200.30 105.38 200.02 106.33 200.43 107.09 C 200.85 107.84 201.79 108.12 202.55 107.71 Z M 202.73 104.72 L 201.96 104.40 C 201.17 104.07 200.25 104.45 199.92 105.25 C 199.59 106.04 199.97 106.95 200.77 107.28 L 201.54 107.60 C 202.33 107.93 203.24 107.55 203.57 106.76 C 203.90 105.96 203.53 105.05 202.73 104.72 Z M 201.79 104.34 L 200.74 104.04 C 199.91 103.81 199.04 104.29 198.81 105.12 C 198.57 105.95 199.06 106.81 199.89 107.05 L 200.94 107.34 C 201.77 107.58 202.63 107.10 202.87 106.27 C 203.10 105.44 202.62 104.57 201.79 104.34 Z"
      fill="black"
      fill-rule="nonzero" /><path d="M 137.49 151.88 L 136.13 151.96 C 135.27 152.01 134.61 152.75 134.66 153.61 C 134.72 154.48 135.46 155.13 136.32 155.08 L 137.68 154.99 C 138.54 154.94 139.19 154.20 139.14 153.34 C 139.09 152.48 138.35 151.82 137.49 151.88 Z M 136.12 151.96 L 135.01 152.04 C 134.15 152.09 133.50 152.84 133.55 153.70 C 133.61 154.56 134.36 155.21 135.22 155.15 L 136.33 155.08 C 137.19 155.02 137.84 154.27 137.78 153.41 C 137.72 152.55 136.98 151.90 136.12 151.96 Z M 134.97 152.04 L 134.35 152.10 C 133.49 152.18 132.86 152.94 132.94 153.80 C 133.02 154.65 133.78 155.29 134.64 155.21 L 135.26 155.15 C 136.11 155.07 136.75 154.31 136.67 153.45 C 136.59 152.59 135.83 151.96 134.97 152.04 Z M 134.22 155.19 L 134.43 155.23 C 135.28 155.38 136.09 154.82 136.25 153.97 C 136.40 153.12 135.84 152.31 134.99 152.15 L 134.77 152.11 C 133.92 151.96 133.11 152.52 132.96 153.37 C 132.81 154.22 133.37 155.03 134.22 155.19 Z M 134.69 155.25 L 135.84 155.26 C 136.70 155.27 137.41 154.58 137.42 153.71 C 137.43 152.85 136.73 152.15 135.87 152.14 L 134.72 152.13 C 133.86 152.12 133.16 152.81 133.15 153.68 C 133.14 154.54 133.83 155.24 134.69 155.25 Z M 135.86 155.26 L 137.08 155.26 C 137.95 155.26 138.65 154.56 138.65 153.70 C 138.65 152.84 137.95 152.14 137.08 152.14 L 135.86 152.14 C 135.00 152.14 134.30 152.84 134.30 153.70 C 134.30 154.56 134.99 155.26 135.86 155.26 Z M 137.08 155.26 L 138.03 155.26 C 138.89 155.26 139.59 154.56 139.59 153.70 C 139.59 152.84 138.89 152.14 138.03 152.14 L 137.08 152.14 C 136.22 152.14 135.52 152.84 135.52 153.70 C 135.52 154.56 136.22 155.26 137.08 155.26 Z M 138.03 155.26 L 139.03 155.26 C 139.89 155.26 140.59 154.56 140.59 153.70 C 140.59 152.84 139.89 152.14 139.03 152.14 L 138.03 152.14 C 137.17 152.14 136.47 152.84 136.47 153.70 C 136.47 154.56 137.17 155.26 138.03 155.26 Z M 139.03 155.26 L 140.07 155.26 C 140.93 155.26 141.63 154.56 141.63 153.70 C 141.63 152.84 140.93 152.14 140.07 152.14 L 139.03 152.14 C 138.16 152.14 137.47 152.84 137.47 153.70 C 137.47 154.56 138.16 155.26 139.03 155.26 Z M 140.07 155.26 L 141.14 155.26 C 142.00 155.26 142.70 154.56 142.70 153.70 C 142.70 152.84 142.00 152.14 141.14 152.14 L 140.07 152.14 C 139.21 152.14 138.51 152.84 138.51 153.70 C 138.51 154.56 139.21 155.26 140.07 155.26 Z M 141.14 155.26 L 142.12 155.26 C 142.98 155.26 143.68 154.56 143.68 153.70 C 143.68 152.84 142.99 152.14 142.12 152.14 L 141.14 152.14 C 140.28 152.14 139.58 152.84 139.58 153.70 C 139.58 154.56 140.27 155.26 141.14 155.26 Z M 142.12 155.26 L 143.12 155.26 C 143.98 155.27 144.68 154.57 144.68 153.71 C 144.68 152.85 143.99 152.14 143.12 152.14 L 142.13 152.14 C 141.26 152.14 140.56 152.83 140.56 153.70 C 140.56 154.56 141.26 155.26 142.12 155.26 Z M 143.11 155.26 L 144.11 155.27 C 144.98 155.28 145.68 154.58 145.69 153.72 C 145.69 152.86 145.00 152.16 144.14 152.15 L 143.13 152.14 C 142.27 152.14 141.56 152.83 141.56 153.69 C 141.55 154.55 142.25 155.26 143.11 155.26 Z M 144.10 155.27 L 145.11 155.29 C 145.97 155.30 146.68 154.61 146.69 153.75 C 146.70 152.88 146.02 152.18 145.15 152.16 L 144.15 152.15 C 143.28 152.14 142.58 152.83 142.56 153.69 C 142.55 154.55 143.24 155.26 144.10 155.27 Z M 145.10 155.29 L 146.10 155.31 C 146.96 155.33 147.68 154.64 147.70 153.78 C 147.72 152.92 147.03 152.21 146.17 152.19 L 145.17 152.16 C 144.31 152.14 143.59 152.83 143.57 153.69 C 143.55 154.55 144.23 155.27 145.10 155.29 Z M 146.08 155.31 L 147.07 155.34 C 147.93 155.37 148.65 154.70 148.68 153.83 C 148.71 152.97 148.04 152.25 147.18 152.22 L 146.19 152.19 C 145.33 152.16 144.61 152.83 144.58 153.69 C 144.55 154.56 145.22 155.28 146.08 155.31 Z M 147.04 155.34 L 148.03 155.39 C 148.89 155.43 149.62 154.77 149.67 153.91 C 149.71 153.05 149.05 152.32 148.19 152.27 L 147.20 152.22 C 146.34 152.18 145.61 152.84 145.56 153.70 C 145.52 154.56 146.18 155.30 147.04 155.34 Z M 148.00 155.39 L 148.99 155.46 C 149.85 155.52 150.60 154.87 150.66 154.01 C 150.72 153.15 150.07 152.41 149.21 152.34 L 148.22 152.27 C 147.36 152.21 146.61 152.86 146.55 153.72 C 146.49 154.58 147.14 155.33 148.00 155.39 Z M 148.95 155.46 L 149.95 155.55 C 150.81 155.64 151.57 155.01 151.66 154.15 C 151.74 153.29 151.11 152.53 150.25 152.45 L 149.25 152.35 C 148.39 152.26 147.63 152.89 147.55 153.75 C 147.46 154.61 148.09 155.37 148.95 155.46 Z M 149.91 155.55 L 150.92 155.68 C 151.78 155.79 152.56 155.18 152.67 154.33 C 152.78 153.47 152.17 152.69 151.32 152.58 L 150.30 152.45 C 149.44 152.34 148.66 152.95 148.55 153.80 C 148.45 154.66 149.05 155.44 149.91 155.55 Z M 150.88 155.67 L 151.90 155.83 C 152.76 155.97 153.55 155.39 153.69 154.53 C 153.82 153.68 153.24 152.88 152.39 152.75 L 151.37 152.59 C 150.51 152.45 149.71 153.03 149.58 153.89 C 149.45 154.74 150.03 155.54 150.88 155.67 Z M 151.86 155.83 L 152.89 156.02 C 153.73 156.17 154.55 155.61 154.71 154.76 C 154.86 153.92 154.30 153.10 153.46 152.95 L 152.43 152.76 C 151.58 152.60 150.77 153.16 150.61 154.01 C 150.46 154.85 151.02 155.67 151.86 155.83 Z M 152.85 156.01 L 153.85 156.22 C 154.70 156.39 155.52 155.85 155.70 155.01 C 155.88 154.16 155.33 153.34 154.49 153.16 L 153.49 152.95 C 152.65 152.78 151.82 153.32 151.64 154.16 C 151.47 155.01 152.01 155.83 152.85 156.01 Z M 153.82 156.21 L 154.78 156.43 C 155.62 156.62 156.46 156.10 156.65 155.26 C 156.84 154.42 156.32 153.58 155.48 153.39 L 154.52 153.17 C 153.68 152.97 152.84 153.50 152.65 154.34 C 152.46 155.18 152.98 156.02 153.82 156.21 Z M 154.75 156.42 L 155.64 156.65 C 156.47 156.86 157.32 156.35 157.53 155.51 C 157.74 154.68 157.23 153.83 156.40 153.62 L 155.51 153.40 C 154.67 153.19 153.82 153.69 153.61 154.53 C 153.40 155.37 153.91 156.21 154.75 156.42 Z M 155.60 156.64 L 156.66 156.93 C 157.49 157.16 158.35 156.67 158.57 155.84 C 158.80 155.00 158.31 154.14 157.48 153.92 L 156.43 153.63 C 155.60 153.40 154.74 153.89 154.51 154.72 C 154.28 155.55 154.77 156.41 155.60 156.64 Z M 156.62 156.92 L 157.57 157.20 C 158.40 157.45 159.27 156.99 159.52 156.16 C 159.77 155.34 159.30 154.46 158.48 154.22 L 157.52 153.93 C 156.70 153.68 155.82 154.14 155.58 154.97 C 155.33 155.80 155.79 156.67 156.62 156.92 Z M 157.54 157.19 L 158.45 157.49 C 159.27 157.75 160.15 157.31 160.41 156.48 C 160.68 155.66 160.23 154.78 159.41 154.52 L 158.51 154.22 C 157.69 153.96 156.81 154.41 156.54 155.23 C 156.27 156.05 156.72 156.93 157.54 157.19 Z M 158.43 157.48 L 159.33 157.79 C 160.15 158.06 161.03 157.62 161.31 156.81 C 161.58 155.99 161.15 155.10 160.33 154.83 L 159.43 154.52 C 158.61 154.25 157.73 154.69 157.45 155.50 C 157.17 156.32 157.61 157.21 158.43 157.48 Z M 159.32 157.78 L 160.23 158.10 C 161.05 158.38 161.94 157.94 162.22 157.13 C 162.50 156.31 162.06 155.42 161.25 155.14 L 160.34 154.83 C 159.52 154.55 158.63 154.98 158.35 155.80 C 158.07 156.61 158.51 157.50 159.32 157.78 Z M 160.22 158.09 L 161.16 158.43 C 161.97 158.72 162.86 158.29 163.15 157.48 C 163.44 156.67 163.02 155.78 162.20 155.49 L 161.27 155.15 C 160.45 154.86 159.56 155.28 159.27 156.10 C 158.98 156.91 159.40 157.80 160.22 158.09 Z M 161.13 158.42 L 162.08 158.78 C 162.89 159.08 163.79 158.68 164.09 157.87 C 164.40 157.06 163.99 156.16 163.19 155.86 L 162.23 155.50 C 161.43 155.19 160.53 155.60 160.22 156.40 C 159.91 157.21 160.32 158.11 161.13 158.42 Z M 162.04 158.76 L 162.99 159.15 C 163.79 159.48 164.70 159.09 165.03 158.30 C 165.35 157.50 164.97 156.59 164.17 156.26 L 163.23 155.87 C 162.43 155.55 161.52 155.93 161.19 156.73 C 160.86 157.52 161.24 158.43 162.04 158.76 Z M 162.94 159.13 L 163.84 159.53 C 164.63 159.88 165.55 159.53 165.91 158.75 C 166.26 157.96 165.91 157.03 165.12 156.68 L 164.22 156.28 C 163.43 155.93 162.51 156.28 162.16 157.07 C 161.80 157.85 162.16 158.78 162.94 159.13 Z M 163.79 159.51 L 164.69 159.95 C 165.46 160.33 166.40 160.01 166.78 159.23 C 167.15 158.46 166.84 157.52 166.06 157.14 L 165.17 156.71 C 164.39 156.33 163.46 156.65 163.08 157.42 C 162.70 158.19 163.02 159.13 163.79 159.51 Z M 164.63 159.92 L 165.52 160.40 C 166.28 160.80 167.22 160.52 167.63 159.76 C 168.04 159.00 167.76 158.05 167.00 157.65 L 166.11 157.17 C 165.35 156.76 164.41 157.05 164.00 157.81 C 163.59 158.56 163.87 159.51 164.63 159.92 Z M 165.46 160.37 L 166.34 160.88 C 167.08 161.32 168.04 161.07 168.48 160.33 C 168.92 159.59 168.67 158.63 167.93 158.19 L 167.05 157.68 C 166.31 157.24 165.35 157.48 164.91 158.23 C 164.48 158.97 164.72 159.93 165.46 160.37 Z M 166.29 160.85 L 167.10 161.38 C 167.83 161.84 168.79 161.63 169.26 160.91 C 169.73 160.19 169.52 159.22 168.80 158.75 L 167.98 158.23 C 167.26 157.76 166.29 157.97 165.82 158.69 C 165.36 159.42 165.56 160.38 166.29 160.85 Z M 167.06 161.34 L 167.87 161.91 C 168.57 162.40 169.55 162.23 170.04 161.52 C 170.53 160.81 170.36 159.84 169.65 159.35 L 168.84 158.78 C 168.13 158.29 167.16 158.46 166.67 159.17 C 166.18 159.88 166.35 160.85 167.06 161.34 Z M 167.82 161.88 L 168.63 162.48 C 169.32 162.99 170.30 162.85 170.81 162.16 C 171.33 161.47 171.19 160.49 170.50 159.98 L 169.69 159.38 C 169.00 158.86 168.02 159.00 167.51 159.69 C 166.99 160.38 167.13 161.36 167.82 161.88 Z M 168.59 162.45 L 169.40 163.09 C 170.07 163.62 171.05 163.51 171.59 162.83 C 172.12 162.16 172.01 161.17 171.33 160.64 L 170.53 160.00 C 169.86 159.47 168.87 159.58 168.34 160.26 C 167.80 160.93 167.92 161.92 168.59 162.45 Z M 169.36 163.06 L 170.13 163.70 C 170.80 164.26 171.78 164.17 172.33 163.50 C 172.89 162.84 172.80 161.86 172.13 161.31 L 171.37 160.66 C 170.70 160.11 169.72 160.20 169.17 160.86 C 168.61 161.52 168.70 162.51 169.36 163.06 Z M 170.10 163.68 L 170.84 164.33 C 171.49 164.89 172.48 164.83 173.05 164.18 C 173.61 163.53 173.55 162.55 172.90 161.98 L 172.16 161.33 C 171.52 160.76 170.53 160.83 169.96 161.47 C 169.39 162.12 169.46 163.11 170.10 163.68 Z M 170.81 164.30 L 171.54 164.97 C 172.17 165.56 173.16 165.52 173.75 164.89 C 174.33 164.26 174.30 163.27 173.66 162.68 L 172.93 162.01 C 172.30 161.42 171.31 161.46 170.73 162.09 C 170.14 162.72 170.18 163.71 170.81 164.30 Z M 171.51 164.94 L 172.22 165.65 C 172.84 166.25 173.83 166.25 174.43 165.63 C 175.04 165.02 175.03 164.03 174.42 163.43 L 173.70 162.72 C 173.08 162.11 172.10 162.12 171.49 162.73 C 170.89 163.35 170.89 164.34 171.51 164.94 Z M 172.19 165.61 L 172.89 166.35 C 173.48 166.98 174.47 167.01 175.10 166.41 C 175.72 165.82 175.75 164.83 175.16 164.21 L 174.45 163.46 C 173.86 162.84 172.87 162.81 172.25 163.40 C 171.62 164.00 171.59 164.99 172.19 165.61 Z M 172.85 166.31 L 173.51 167.05 C 174.07 167.70 175.06 167.76 175.71 167.19 C 176.36 166.63 176.42 165.64 175.85 164.99 L 175.19 164.25 C 174.63 163.60 173.64 163.54 172.99 164.11 C 172.34 164.68 172.28 165.66 172.85 166.31 Z M 173.47 167.01 L 174.09 167.77 C 174.64 168.44 175.62 168.54 176.29 167.99 C 176.96 167.45 177.05 166.46 176.51 165.80 L 175.89 165.03 C 175.34 164.37 174.36 164.27 173.69 164.81 C 173.02 165.36 172.92 166.34 173.47 167.01 Z M 174.06 167.73 L 174.66 168.52 C 175.18 169.21 176.16 169.34 176.85 168.82 C 177.53 168.29 177.67 167.32 177.14 166.63 L 176.54 165.84 C 176.02 165.15 175.04 165.02 174.35 165.54 C 173.67 166.06 173.54 167.04 174.06 167.73 Z M 174.63 168.48 L 175.21 169.30 C 175.71 170.00 176.68 170.17 177.39 169.67 C 178.09 169.17 178.26 168.20 177.76 167.49 L 177.18 166.67 C 176.68 165.97 175.70 165.80 175.00 166.30 C 174.30 166.80 174.13 167.77 174.63 168.48 Z M 175.18 169.26 L 175.74 170.11 C 176.22 170.83 177.19 171.03 177.91 170.55 C 178.63 170.08 178.82 169.11 178.35 168.39 L 177.79 167.54 C 177.31 166.82 176.34 166.62 175.62 167.09 C 174.90 167.57 174.71 168.54 175.18 169.26 Z M 175.72 170.07 L 176.23 170.91 C 176.69 171.64 177.65 171.87 178.38 171.42 C 179.12 170.97 179.35 170.01 178.89 169.27 L 178.38 168.43 C 177.92 167.70 176.96 167.47 176.23 167.92 C 175.49 168.37 175.26 169.33 175.72 170.07 Z M 176.21 170.87 L 176.70 171.71 C 177.12 172.46 178.08 172.72 178.83 172.29 C 179.57 171.86 179.83 170.90 179.40 170.16 L 178.92 169.31 C 178.49 168.57 177.53 168.31 176.79 168.74 C 176.04 169.17 175.78 170.12 176.21 170.87 Z M 176.67 171.67 L 177.14 172.54 C 177.55 173.30 178.49 173.59 179.25 173.18 C 180.01 172.77 180.30 171.82 179.89 171.06 L 179.42 170.20 C 179.02 169.44 178.07 169.15 177.31 169.56 C 176.55 169.97 176.27 170.91 176.67 171.67 Z M 177.12 172.50 L 177.57 173.40 C 177.95 174.17 178.89 174.48 179.66 174.10 C 180.43 173.71 180.75 172.77 180.36 172.00 L 179.91 171.10 C 179.52 170.33 178.59 170.02 177.82 170.41 C 177.05 170.79 176.73 171.73 177.12 172.50 Z M 177.55 173.36 L 177.98 174.29 C 178.35 175.07 179.28 175.41 180.06 175.04 C 180.84 174.68 181.18 173.75 180.81 172.97 L 180.38 172.04 C 180.01 171.26 179.09 170.92 178.30 171.29 C 177.52 171.65 177.19 172.58 177.55 173.36 Z M 177.96 174.25 L 178.38 175.20 C 178.72 175.99 179.64 176.35 180.43 176.01 C 181.22 175.67 181.59 174.75 181.24 173.96 L 180.83 173.00 C 180.49 172.21 179.57 171.85 178.77 172.19 C 177.98 172.54 177.62 173.46 177.96 174.25 Z M 178.36 175.16 L 178.73 176.08 C 179.06 176.88 179.97 177.27 180.77 176.94 C 181.57 176.62 181.95 175.71 181.63 174.91 L 181.26 173.99 C 180.94 173.19 180.03 172.81 179.23 173.13 C 178.43 173.45 178.04 174.36 178.36 175.16 Z M 178.72 176.04 L 179.07 176.98 C 179.37 177.79 180.27 178.20 181.08 177.89 C 181.89 177.59 182.30 176.69 181.99 175.88 L 181.64 174.95 C 181.34 174.14 180.44 173.73 179.63 174.03 C 178.83 174.34 178.42 175.24 178.72 176.04 Z M 179.06 176.94 L 179.39 177.90 C 179.67 178.71 180.56 179.14 181.37 178.86 C 182.19 178.58 182.62 177.69 182.34 176.88 L 182.01 175.92 C 181.73 175.11 180.84 174.68 180.02 174.96 C 179.21 175.24 178.78 176.13 179.06 176.94 Z M 179.37 177.85 L 179.68 178.82 C 179.93 179.64 180.81 180.09 181.63 179.84 C 182.46 179.58 182.91 178.70 182.65 177.88 L 182.35 176.92 C 182.09 176.09 181.22 175.64 180.39 175.90 C 179.57 176.16 179.11 177.03 179.37 177.85 Z M 179.66 178.77 L 179.93 179.74 C 180.17 180.57 181.03 181.05 181.86 180.81 C 182.69 180.58 183.17 179.72 182.94 178.89 L 182.67 177.92 C 182.43 177.09 181.57 176.61 180.74 176.84 C 179.91 177.08 179.43 177.94 179.66 178.77 Z M 179.92 179.69 L 180.16 180.65 C 180.37 181.49 181.21 182.00 182.05 181.79 C 182.89 181.59 183.40 180.74 183.19 179.90 L 182.95 178.94 C 182.75 178.10 181.90 177.59 181.06 177.80 C 180.23 178.00 179.71 178.85 179.92 179.69 Z M 180.15 180.60 L 180.36 181.59 C 180.54 182.44 181.36 182.98 182.21 182.80 C 183.05 182.62 183.59 181.80 183.41 180.95 L 183.20 179.96 C 183.03 179.11 182.20 178.57 181.35 178.75 C 180.51 178.93 179.97 179.75 180.15 180.60 Z M 180.35 181.54 L 180.52 182.53 C 180.67 183.38 181.48 183.95 182.33 183.80 C 183.18 183.65 183.74 182.85 183.60 182.00 L 183.42 181.01 C 183.28 180.16 182.47 179.59 181.62 179.74 C 180.77 179.88 180.20 180.69 180.35 181.54 Z M 180.51 182.48 L 180.65 183.47 C 180.77 184.32 181.56 184.92 182.42 184.80 C 183.27 184.68 183.86 183.89 183.74 183.03 L 183.60 182.05 C 183.48 181.19 182.69 180.60 181.84 180.72 C 180.99 180.84 180.39 181.63 180.51 182.48 Z M 180.65 183.42 L 180.75 184.41 C 180.85 185.27 181.62 185.88 182.48 185.79 C 183.34 185.69 183.95 184.92 183.86 184.07 L 183.75 183.08 C 183.65 182.22 182.88 181.61 182.03 181.70 C 181.17 181.80 180.55 182.57 180.65 183.42 Z M 180.75 184.37 L 180.83 185.36 C 180.91 186.21 181.66 186.85 182.52 186.78 C 183.38 186.71 184.02 185.95 183.95 185.09 L 183.86 184.11 C 183.79 183.25 183.03 182.61 182.18 182.68 C 181.32 182.75 180.68 183.51 180.75 184.37 Z M 180.83 185.32 L 180.89 186.31 C 180.94 187.17 181.69 187.83 182.55 187.77 C 183.41 187.72 184.06 186.98 184.01 186.12 L 183.95 185.13 C 183.90 184.27 183.15 183.61 182.29 183.67 C 181.43 183.72 180.78 184.46 180.83 185.32 Z M 180.89 186.28 L 180.93 187.27 C 180.97 188.14 181.69 188.80 182.56 188.77 C 183.42 188.73 184.09 188.01 184.05 187.15 L 184.01 186.15 C 183.97 185.29 183.25 184.62 182.39 184.65 C 181.52 184.69 180.86 185.42 180.89 186.28 Z M 180.93 187.25 L 180.95 188.24 C 180.97 189.11 181.69 189.79 182.55 189.77 C 183.41 189.75 184.10 189.03 184.08 188.17 L 184.05 187.17 C 184.03 186.31 183.32 185.63 182.45 185.65 C 181.59 185.67 180.91 186.38 180.93 187.25 Z M 180.95 188.22 L 180.96 189.22 C 180.97 190.08 181.67 190.78 182.54 190.77 C 183.40 190.76 184.09 190.06 184.08 189.20 L 184.08 188.20 C 184.07 187.33 183.36 186.64 182.50 186.65 C 181.64 186.65 180.95 187.36 180.95 188.22 Z M 180.96 189.20 L 180.96 190.20 C 180.95 191.07 181.65 191.77 182.51 191.77 C 183.37 191.78 184.07 191.08 184.08 190.22 L 184.08 189.22 C 184.09 188.35 183.39 187.65 182.53 187.65 C 181.67 187.64 180.97 188.34 180.96 189.20 Z M 180.96 190.19 L 180.94 191.19 C 180.93 192.05 181.62 192.76 182.48 192.77 C 183.34 192.79 184.05 192.10 184.06 191.24 L 184.08 190.24 C 184.09 189.37 183.41 188.66 182.54 188.65 C 181.68 188.64 180.97 189.32 180.96 190.19 Z M 180.94 191.17 L 180.92 192.17 C 180.89 193.03 181.58 193.75 182.44 193.77 C 183.30 193.79 184.02 193.11 184.04 192.25 L 184.06 191.25 C 184.08 190.39 183.40 189.68 182.54 189.65 C 181.68 189.63 180.96 190.31 180.94 191.17 Z M 180.92 192.15 L 180.88 193.14 C 180.85 194.00 181.52 194.73 182.38 194.76 C 183.24 194.79 183.97 194.12 184.00 193.26 L 184.04 192.27 C 184.07 191.41 183.40 190.68 182.54 190.65 C 181.67 190.62 180.95 191.29 180.92 192.15 Z M 180.88 193.11 L 180.82 194.11 C 180.78 194.97 181.43 195.71 182.29 195.75 C 183.16 195.80 183.89 195.14 183.94 194.28 L 184.00 193.29 C 184.05 192.43 183.39 191.69 182.53 191.64 C 181.67 191.59 180.93 192.25 180.88 193.11 Z M 180.83 194.07 L 180.75 195.06 C 180.68 195.92 181.32 196.68 182.17 196.75 C 183.03 196.82 183.79 196.18 183.86 195.32 L 183.94 194.32 C 184.01 193.46 183.37 192.71 182.51 192.64 C 181.65 192.57 180.90 193.21 180.83 194.07 Z M 180.75 195.02 L 180.64 196.01 C 180.54 196.87 181.16 197.64 182.01 197.74 C 182.87 197.84 183.64 197.22 183.74 196.36 L 183.85 195.37 C 183.95 194.51 183.33 193.74 182.48 193.64 C 181.62 193.54 180.85 194.16 180.75 195.02 Z M 180.65 195.96 L 180.50 196.96 C 180.37 197.81 180.96 198.61 181.81 198.73 C 182.66 198.86 183.46 198.27 183.58 197.42 L 183.73 196.42 C 183.86 195.57 183.27 194.77 182.42 194.64 C 181.57 194.52 180.77 195.10 180.65 195.96 Z M 180.51 196.90 L 180.32 197.86 C 180.16 198.71 180.72 199.53 181.56 199.69 C 182.41 199.85 183.23 199.29 183.39 198.45 L 183.57 197.48 C 183.73 196.64 183.18 195.82 182.33 195.66 C 181.48 195.50 180.67 196.05 180.51 196.90 Z M 180.33 197.81 L 180.11 198.77 C 179.92 199.62 180.45 200.45 181.29 200.64 C 182.13 200.83 182.97 200.31 183.16 199.47 L 183.38 198.50 C 183.57 197.66 183.04 196.82 182.20 196.63 C 181.36 196.44 180.52 196.97 180.33 197.81 Z M 180.13 198.73 L 179.87 199.70 C 179.66 200.53 180.16 201.38 181.00 201.60 C 181.83 201.81 182.68 201.31 182.90 200.48 L 183.15 199.51 C 183.36 198.68 182.86 197.82 182.03 197.61 C 181.19 197.39 180.34 197.89 180.13 198.73 Z M 179.89 199.66 L 179.61 200.63 C 179.37 201.45 179.85 202.32 180.68 202.56 C 181.51 202.79 182.37 202.31 182.61 201.48 L 182.89 200.52 C 183.12 199.69 182.64 198.82 181.82 198.59 C 180.99 198.35 180.12 198.83 179.89 199.66 Z M 179.62 200.59 L 179.32 201.56 C 179.07 202.38 179.53 203.26 180.35 203.51 C 181.18 203.77 182.05 203.30 182.31 202.48 L 182.60 201.51 C 182.86 200.69 182.39 199.82 181.57 199.56 C 180.75 199.31 179.87 199.77 179.62 200.59 Z M 179.33 201.54 L 179.02 202.50 C 178.75 203.32 179.20 204.20 180.02 204.47 C 180.84 204.73 181.72 204.29 181.98 203.47 L 182.30 202.50 C 182.56 201.68 182.12 200.80 181.30 200.53 C 180.48 200.27 179.60 200.72 179.33 201.54 Z M 179.02 202.48 L 178.71 203.41 C 178.43 204.23 178.87 205.11 179.68 205.39 C 180.50 205.67 181.39 205.23 181.66 204.41 L 181.98 203.48 C 182.25 202.67 181.82 201.78 181.00 201.50 C 180.18 201.23 179.30 201.67 179.02 202.48 Z M 178.71 203.39 L 178.39 204.32 C 178.10 205.13 178.53 206.02 179.34 206.31 C 180.16 206.59 181.05 206.17 181.33 205.35 L 181.66 204.43 C 181.94 203.61 181.52 202.72 180.70 202.44 C 179.89 202.15 179.00 202.58 178.71 203.39 Z M 178.39 204.30 L 178.06 205.23 C 177.76 206.04 178.18 206.94 178.99 207.23 C 179.80 207.53 180.70 207.11 180.99 206.30 L 181.33 205.37 C 181.62 204.56 181.20 203.66 180.39 203.37 C 179.58 203.07 178.69 203.49 178.39 204.30 Z M 178.06 205.22 L 177.71 206.15 C 177.41 206.96 177.82 207.86 178.62 208.16 C 179.43 208.46 180.33 208.05 180.63 207.25 L 180.98 206.31 C 181.29 205.51 180.88 204.61 180.07 204.30 C 179.26 204.00 178.36 204.41 178.06 205.22 Z M 177.72 206.14 L 177.35 207.08 C 177.04 207.88 177.44 208.79 178.24 209.10 C 179.05 209.41 179.95 209.01 180.26 208.21 L 180.63 207.26 C 180.94 206.46 180.54 205.55 179.74 205.24 C 178.93 204.93 178.03 205.33 177.72 206.14 Z M 177.36 207.07 L 176.98 208.02 C 176.66 208.82 177.05 209.73 177.85 210.05 C 178.65 210.37 179.56 209.98 179.88 209.18 L 180.26 208.22 C 180.58 207.42 180.19 206.51 179.38 206.19 C 178.58 205.87 177.68 206.26 177.36 207.07 Z M 176.98 208.01 L 176.60 208.94 C 176.27 209.74 176.66 210.65 177.45 210.98 C 178.25 211.30 179.16 210.92 179.49 210.12 L 179.87 209.19 C 180.20 208.39 179.81 207.48 179.02 207.15 C 178.22 206.83 177.31 207.21 176.98 208.01 Z M 176.61 208.93 L 176.22 209.86 C 175.88 210.65 176.26 211.57 177.05 211.90 C 177.85 212.23 178.76 211.86 179.10 211.06 L 179.48 210.14 C 179.82 209.34 179.44 208.43 178.65 208.09 C 177.85 207.76 176.94 208.13 176.61 208.93 Z M 176.22 209.84 L 175.82 210.77 C 175.48 211.56 175.84 212.48 176.63 212.82 C 177.43 213.16 178.34 212.80 178.69 212.01 L 179.09 211.08 C 179.43 210.29 179.07 209.37 178.28 209.03 C 177.48 208.68 176.57 209.05 176.22 209.84 Z M 175.83 210.75 L 175.42 211.68 C 175.06 212.46 175.42 213.39 176.20 213.74 C 176.99 214.09 177.91 213.74 178.27 212.95 L 178.68 212.03 C 179.03 211.24 178.68 210.32 177.89 209.96 C 177.10 209.61 176.18 209.96 175.83 210.75 Z M 175.42 211.66 L 175.00 212.57 C 174.64 213.35 174.98 214.28 175.76 214.64 C 176.54 215.00 177.47 214.67 177.83 213.88 L 178.26 212.97 C 178.62 212.19 178.28 211.26 177.50 210.90 C 176.72 210.53 175.79 210.87 175.42 211.66 Z M 175.01 212.55 L 174.58 213.44 C 174.20 214.21 174.53 215.15 175.30 215.52 C 176.08 215.90 177.01 215.57 177.39 214.80 L 177.82 213.91 C 178.20 213.13 177.87 212.20 177.10 211.82 C 176.32 211.45 175.39 211.77 175.01 212.55 Z M 174.59 213.41 L 174.15 214.29 C 173.76 215.06 174.06 216.00 174.83 216.39 C 175.60 216.78 176.54 216.47 176.93 215.70 L 177.38 214.83 C 177.77 214.06 177.46 213.12 176.69 212.73 C 175.92 212.34 174.98 212.64 174.59 213.41 Z M 174.16 214.26 L 173.67 215.18 C 173.26 215.94 173.55 216.89 174.30 217.30 C 175.06 217.71 176.01 217.42 176.42 216.66 L 176.91 215.73 C 177.32 214.97 177.04 214.03 176.28 213.62 C 175.52 213.21 174.57 213.50 174.16 214.26 Z M 173.68 215.15 L 173.18 216.04 C 172.76 216.79 173.02 217.75 173.77 218.17 C 174.52 218.59 175.47 218.33 175.90 217.58 L 176.40 216.69 C 176.83 215.94 176.56 214.99 175.81 214.56 C 175.06 214.14 174.11 214.40 173.68 215.15 Z M 173.20 216.01 L 172.69 216.87 C 172.24 217.61 172.49 218.57 173.23 219.01 C 173.97 219.45 174.93 219.21 175.37 218.47 L 175.88 217.61 C 176.32 216.87 176.08 215.91 175.34 215.47 C 174.60 215.03 173.64 215.27 173.20 216.01 Z M 172.70 216.85 L 172.18 217.68 C 171.73 218.41 171.95 219.37 172.68 219.83 C 173.42 220.29 174.38 220.06 174.83 219.33 L 175.35 218.50 C 175.81 217.76 175.58 216.80 174.85 216.35 C 174.12 215.89 173.16 216.11 172.70 216.85 Z M 172.20 217.66 L 171.67 218.47 C 171.20 219.19 171.41 220.16 172.13 220.63 C 172.86 221.10 173.82 220.89 174.29 220.17 L 174.82 219.35 C 175.29 218.63 175.08 217.66 174.36 217.19 C 173.63 216.73 172.67 216.93 172.20 217.66 Z M 171.68 218.45 L 171.14 219.26 C 170.66 219.97 170.85 220.94 171.57 221.42 C 172.29 221.90 173.26 221.71 173.74 221.00 L 174.28 220.19 C 174.76 219.47 174.57 218.50 173.85 218.02 C 173.13 217.54 172.16 217.73 171.68 218.45 Z M 171.15 219.24 L 170.57 220.09 C 170.08 220.80 170.26 221.77 170.97 222.26 C 171.68 222.75 172.65 222.57 173.14 221.86 L 173.72 221.01 C 174.21 220.30 174.04 219.33 173.33 218.84 C 172.62 218.35 171.64 218.53 171.15 219.24 Z M 170.58 220.07 L 169.99 220.90 C 169.50 221.60 169.66 222.58 170.36 223.07 C 171.07 223.57 172.04 223.41 172.54 222.71 L 173.13 221.88 C 173.63 221.17 173.46 220.20 172.76 219.70 C 172.06 219.20 171.08 219.37 170.58 220.07 Z M 170.01 220.88 L 169.41 221.69 C 168.91 222.39 169.06 223.36 169.75 223.87 C 170.45 224.38 171.43 224.23 171.93 223.53 L 172.53 222.72 C 173.04 222.03 172.88 221.05 172.19 220.54 C 171.49 220.03 170.52 220.18 170.01 220.88 Z M 169.43 221.68 L 168.83 222.47 C 168.31 223.16 168.45 224.13 169.14 224.65 C 169.83 225.17 170.81 225.03 171.33 224.34 L 171.92 223.55 C 172.44 222.86 172.30 221.88 171.61 221.37 C 170.92 220.85 169.94 220.99 169.43 221.68 Z M 168.84 222.45 L 168.25 223.22 C 167.73 223.90 167.85 224.88 168.53 225.41 C 169.22 225.93 170.20 225.81 170.72 225.13 L 171.32 224.36 C 171.84 223.68 171.72 222.70 171.03 222.17 C 170.35 221.64 169.37 221.77 168.84 222.45 Z M 168.27 223.20 L 167.63 224.00 C 167.09 224.68 167.20 225.66 167.88 226.20 C 168.55 226.73 169.53 226.62 170.07 225.95 L 170.71 225.14 C 171.25 224.47 171.13 223.49 170.46 222.95 C 169.78 222.41 168.80 222.52 168.27 223.20 Z M 167.64 223.98 L 166.99 224.78 C 166.44 225.45 166.54 226.43 167.20 226.98 C 167.87 227.53 168.85 227.43 169.40 226.76 L 170.06 225.96 C 170.60 225.30 170.51 224.31 169.84 223.77 C 169.17 223.22 168.19 223.32 167.64 223.98 Z M 167.01 224.76 L 166.35 225.53 C 165.79 226.18 165.87 227.17 166.53 227.73 C 167.18 228.29 168.17 228.21 168.73 227.55 L 169.38 226.79 C 169.94 226.13 169.86 225.14 169.21 224.58 C 168.55 224.03 167.56 224.10 167.01 224.76 Z M 166.37 225.50 L 165.72 226.24 C 165.15 226.88 165.21 227.87 165.85 228.44 C 166.50 229.01 167.49 228.95 168.06 228.31 L 168.71 227.57 C 169.28 226.93 169.22 225.94 168.58 225.37 C 167.93 224.80 166.95 224.86 166.37 225.50 Z M 165.75 226.21 L 165.10 226.91 C 164.51 227.54 164.55 228.53 165.18 229.12 C 165.81 229.70 166.80 229.66 167.39 229.03 L 168.03 228.33 C 168.62 227.70 168.58 226.71 167.95 226.13 C 167.32 225.54 166.33 225.58 165.75 226.21 Z M 165.12 226.88 L 164.40 227.62 C 163.80 228.24 163.82 229.22 164.43 229.83 C 165.05 230.43 166.04 230.42 166.64 229.80 L 167.36 229.06 C 167.96 228.44 167.95 227.45 167.33 226.85 C 166.71 226.25 165.73 226.26 165.12 226.88 Z M 164.43 227.59 L 163.70 228.31 C 163.08 228.91 163.07 229.90 163.67 230.51 C 164.27 231.13 165.26 231.15 165.87 230.54 L 166.61 229.83 C 167.23 229.23 167.24 228.24 166.64 227.62 C 166.04 227.00 165.05 226.99 164.43 227.59 Z M 163.72 228.28 L 162.99 228.96 C 162.36 229.54 162.32 230.53 162.91 231.16 C 163.50 231.80 164.48 231.83 165.12 231.25 L 165.85 230.57 C 166.48 229.98 166.52 229.00 165.93 228.36 C 165.34 227.73 164.36 227.69 163.72 228.28 Z M 163.02 228.93 L 162.30 229.57 C 161.65 230.14 161.59 231.13 162.16 231.78 C 162.74 232.42 163.72 232.48 164.37 231.91 L 165.09 231.27 C 165.74 230.70 165.80 229.71 165.22 229.07 C 164.65 228.42 163.67 228.36 163.02 228.93 Z M 162.32 229.55 L 161.59 230.17 C 160.94 230.73 160.86 231.71 161.41 232.37 C 161.97 233.03 162.96 233.11 163.61 232.55 L 164.34 231.93 C 165.00 231.37 165.08 230.39 164.52 229.73 C 163.97 229.07 162.98 228.99 162.32 229.55 Z M 161.62 230.15 L 160.87 230.75 C 160.20 231.29 160.10 232.28 160.64 232.95 C 161.18 233.62 162.16 233.72 162.83 233.18 L 163.58 232.58 C 164.26 232.03 164.36 231.05 163.82 230.38 C 163.28 229.71 162.29 229.60 161.62 230.15 Z M 160.91 230.72 L 160.13 231.31 C 159.45 231.83 159.31 232.81 159.83 233.50 C 160.35 234.19 161.33 234.32 162.02 233.80 L 162.80 233.21 C 163.48 232.69 163.62 231.71 163.10 231.02 C 162.58 230.34 161.60 230.20 160.91 230.72 Z M 160.18 231.28 L 159.34 231.87 C 158.64 232.36 158.47 233.34 158.96 234.04 C 159.46 234.75 160.43 234.92 161.14 234.42 L 161.97 233.83 C 162.68 233.34 162.85 232.36 162.35 231.66 C 161.86 230.95 160.88 230.78 160.18 231.28 Z M 159.38 231.84 L 158.51 232.41 C 157.79 232.88 157.59 233.85 158.06 234.57 C 158.54 235.29 159.50 235.49 160.22 235.02 L 161.09 234.45 C 161.82 233.98 162.02 233.01 161.55 232.29 C 161.07 231.57 160.11 231.37 159.38 231.84 Z M 158.56 232.38 L 157.69 232.90 C 156.96 233.35 156.72 234.31 157.17 235.05 C 157.61 235.78 158.57 236.02 159.31 235.57 L 160.18 235.05 C 160.92 234.60 161.15 233.64 160.71 232.90 C 160.26 232.17 159.30 231.93 158.56 232.38 Z M 157.76 232.87 L 156.85 233.36 C 156.09 233.77 155.81 234.72 156.22 235.48 C 156.64 236.24 157.58 236.52 158.34 236.10 L 159.25 235.61 C 160.01 235.20 160.29 234.25 159.87 233.49 C 159.46 232.73 158.51 232.46 157.76 232.87 Z M 156.94 233.32 L 156.02 233.74 C 155.23 234.11 154.89 235.04 155.26 235.82 C 155.62 236.60 156.55 236.94 157.33 236.58 L 158.25 236.15 C 159.03 235.78 159.37 234.86 159.01 234.07 C 158.65 233.29 157.72 232.95 156.94 233.32 Z M 156.14 233.69 L 155.24 234.02 C 154.43 234.31 154.01 235.21 154.30 236.02 C 154.59 236.83 155.49 237.25 156.30 236.96 L 157.20 236.63 C 158.01 236.34 158.44 235.44 158.14 234.63 C 157.85 233.82 156.96 233.40 156.14 233.69 Z M 155.45 233.96 L 154.40 234.18 C 153.55 234.35 153.01 235.17 153.18 236.02 C 153.36 236.86 154.18 237.41 155.03 237.23 L 156.08 237.02 C 156.93 236.84 157.47 236.02 157.30 235.17 C 157.12 234.33 156.30 233.78 155.45 233.96 Z M 154.72 234.14 L 153.69 234.14 C 152.82 234.14 152.12 234.84 152.12 235.70 C 152.12 236.56 152.81 237.26 153.68 237.26 L 154.71 237.27 C 155.57 237.27 156.27 236.57 156.27 235.71 C 156.28 234.85 155.58 234.15 154.72 234.14 Z M 154.07 234.19 L 153.16 233.95 C 152.33 233.74 151.47 234.24 151.26 235.07 C 151.04 235.91 151.54 236.76 152.38 236.98 L 153.29 237.21 C 154.12 237.43 154.98 236.93 155.19 236.09 C 155.41 235.26 154.91 234.41 154.07 234.19 Z M 153.57 234.12 L 152.80 233.66 C 152.05 233.22 151.10 233.47 150.66 234.21 C 150.21 234.95 150.46 235.91 151.20 236.35 L 151.97 236.81 C 152.71 237.25 153.67 237.00 154.11 236.26 C 154.55 235.52 154.31 234.56 153.57 234.12 Z M 153.13 233.94 L 152.52 233.28 C 151.93 232.66 150.94 232.63 150.31 233.22 C 149.69 233.81 149.66 234.79 150.25 235.42 L 150.86 236.07 C 151.45 236.70 152.44 236.73 153.07 236.14 C 153.69 235.55 153.72 234.56 153.13 233.94 Z M 152.73 233.56 L 152.23 232.73 C 151.79 231.98 150.84 231.74 150.10 232.18 C 149.35 232.62 149.11 233.58 149.55 234.32 L 150.04 235.15 C 150.48 235.89 151.44 236.14 152.18 235.70 C 152.92 235.26 153.17 234.30 152.73 233.56 Z M 152.34 232.94 L 151.94 231.95 C 151.62 231.15 150.71 230.76 149.91 231.08 C 149.11 231.40 148.72 232.31 149.04 233.11 L 149.44 234.10 C 149.76 234.90 150.67 235.29 151.47 234.97 C 152.27 234.65 152.66 233.74 152.34 232.94 Z M 151.99 232.09 L 151.69 231.07 C 151.45 230.24 150.58 229.77 149.76 230.01 C 148.93 230.25 148.45 231.12 148.70 231.95 L 148.99 232.97 C 149.24 233.80 150.10 234.27 150.93 234.03 C 151.76 233.79 152.23 232.92 151.99 232.09 Z M 151.72 231.16 L 151.49 230.18 C 151.30 229.34 150.46 228.82 149.62 229.01 C 148.78 229.20 148.25 230.04 148.45 230.88 L 148.67 231.86 C 148.87 232.70 149.70 233.22 150.54 233.03 C 151.38 232.84 151.91 232.00 151.72 231.16 Z M 151.50 230.24 L 151.31 229.23 C 151.16 228.39 150.34 227.83 149.49 227.99 C 148.65 228.15 148.09 228.96 148.25 229.81 L 148.43 230.82 C 148.59 231.67 149.41 232.22 150.26 232.07 C 151.10 231.91 151.66 231.09 151.50 230.24 Z M 151.32 229.29 L 151.17 228.28 C 151.04 227.43 150.24 226.84 149.39 226.97 C 148.54 227.10 147.95 227.90 148.08 228.75 L 148.24 229.76 C 148.37 230.61 149.16 231.20 150.02 231.06 C 150.87 230.93 151.45 230.14 151.32 229.29 Z M 151.18 228.32 L 151.05 227.36 C 150.95 226.50 150.17 225.89 149.31 226.00 C 148.46 226.11 147.85 226.89 147.96 227.74 L 148.08 228.71 C 148.18 229.57 148.96 230.17 149.82 230.07 C 150.68 229.96 151.28 229.18 151.18 228.32 Z M 151.06 227.40 L 150.95 226.32 C 150.87 225.46 150.11 224.83 149.25 224.92 C 148.39 225.00 147.76 225.76 147.85 226.62 L 147.95 227.70 C 148.03 228.56 148.80 229.19 149.66 229.10 C 150.51 229.02 151.14 228.26 151.06 227.40 Z M 150.96 226.36 L 150.89 225.35 C 150.83 224.49 150.08 223.84 149.22 223.90 C 148.36 223.96 147.71 224.71 147.77 225.57 L 147.84 226.58 C 147.90 227.44 148.65 228.09 149.51 228.03 C 150.37 227.97 151.02 227.22 150.96 226.36 Z M 150.89 225.38 L 150.84 224.43 C 150.80 223.57 150.07 222.91 149.21 222.95 C 148.34 222.99 147.68 223.72 147.72 224.58 L 147.77 225.54 C 147.81 226.40 148.55 227.06 149.41 227.02 C 150.27 226.98 150.93 226.25 150.89 225.38 Z M 150.84 224.45 L 150.81 223.68 C 150.78 222.82 150.05 222.15 149.19 222.19 C 148.33 222.22 147.66 222.95 147.69 223.81 L 147.72 224.57 C 147.76 225.43 148.48 226.10 149.34 226.07 C 150.21 226.03 150.88 225.31 150.84 224.45 Z"
      fill="black"
      fill-rule="nonzero" /><path d="M 151.97 137.59 L 151.76 136.58 C 151.59 135.74 150.76 135.19 149.91 135.37 C 149.07 135.55 148.53 136.37 148.71 137.22 L 148.92 138.23 C 149.09 139.08 149.92 139.62 150.77 139.44 C 151.61 139.27 152.15 138.44 151.97 137.59 Z M 151.76 136.56 L 151.54 135.56 C 151.35 134.72 150.51 134.19 149.67 134.38 C 148.83 134.57 148.30 135.40 148.49 136.24 L 148.71 137.24 C 148.90 138.08 149.73 138.61 150.57 138.42 C 151.42 138.23 151.95 137.40 151.76 136.56 Z M 151.53 135.52 L 151.28 134.56 C 151.07 133.73 150.22 133.22 149.39 133.43 C 148.55 133.65 148.04 134.49 148.26 135.33 L 148.50 136.29 C 148.71 137.12 149.56 137.63 150.39 137.42 C 151.23 137.21 151.74 136.36 151.53 135.52 Z M 151.26 134.49 L 150.98 133.56 C 150.73 132.74 149.86 132.27 149.03 132.52 C 148.21 132.77 147.74 133.64 147.99 134.47 L 148.28 135.40 C 148.53 136.23 149.40 136.69 150.22 136.44 C 151.05 136.19 151.51 135.32 151.26 134.49 Z M 150.94 133.45 L 150.56 132.48 C 150.25 131.68 149.34 131.28 148.54 131.59 C 147.74 131.91 147.34 132.81 147.65 133.62 L 148.03 134.58 C 148.35 135.39 149.25 135.78 150.06 135.47 C 150.86 135.15 151.25 134.25 150.94 133.45 Z M 150.49 132.32 L 150.03 131.45 C 149.62 130.69 148.68 130.40 147.92 130.80 C 147.15 131.21 146.86 132.15 147.27 132.91 L 147.73 133.78 C 148.13 134.54 149.08 134.83 149.84 134.43 C 150.60 134.02 150.89 133.08 150.49 132.32 Z M 149.91 131.26 L 149.34 130.48 C 148.83 129.79 147.85 129.64 147.15 130.15 C 146.46 130.66 146.31 131.64 146.82 132.33 L 147.39 133.11 C 147.90 133.80 148.88 133.95 149.57 133.44 C 150.27 132.93 150.42 131.95 149.91 131.26 Z M 149.14 130.26 L 148.39 129.57 C 147.76 128.98 146.77 129.02 146.18 129.65 C 145.60 130.28 145.63 131.27 146.27 131.86 L 147.02 132.55 C 147.65 133.14 148.64 133.10 149.22 132.47 C 149.81 131.84 149.77 130.85 149.14 130.26 Z M 147.98 129.29 L 147.10 128.89 C 146.32 128.53 145.39 128.87 145.03 129.66 C 144.67 130.44 145.02 131.37 145.80 131.73 L 146.68 132.13 C 147.46 132.49 148.39 132.15 148.75 131.36 C 149.11 130.58 148.76 129.65 147.98 129.29 Z M 146.35 128.75 L 145.39 128.82 C 144.53 128.87 143.88 129.62 143.94 130.48 C 144.00 131.34 144.74 131.99 145.60 131.93 L 146.56 131.87 C 147.42 131.81 148.07 131.07 148.01 130.20 C 147.95 129.34 147.21 128.69 146.35 128.75 Z M 144.75 129.00 L 144.00 129.41 C 143.24 129.82 142.96 130.77 143.37 131.53 C 143.78 132.28 144.73 132.57 145.49 132.15 L 146.24 131.74 C 147.00 131.33 147.28 130.39 146.87 129.63 C 146.46 128.87 145.51 128.59 144.75 129.00 Z M 143.73 129.60 L 142.97 130.25 C 142.32 130.81 142.24 131.80 142.81 132.45 C 143.37 133.10 144.35 133.18 145.01 132.62 L 145.76 131.97 C 146.42 131.40 146.49 130.42 145.93 129.76 C 145.37 129.11 144.38 129.04 143.73 129.60 Z M 142.83 130.39 L 142.11 131.18 C 141.53 131.82 141.58 132.81 142.22 133.39 C 142.86 133.97 143.85 133.92 144.43 133.28 L 145.15 132.48 C 145.73 131.84 145.68 130.85 145.04 130.27 C 144.40 129.70 143.41 129.75 142.83 130.39 Z M 142.03 131.29 L 141.37 132.14 C 140.85 132.83 140.99 133.81 141.67 134.33 C 142.36 134.85 143.34 134.72 143.86 134.03 L 144.51 133.18 C 145.03 132.49 144.90 131.51 144.21 130.99 C 143.53 130.47 142.55 130.60 142.03 131.29 Z M 141.31 132.23 L 140.74 133.09 C 140.27 133.81 140.47 134.78 141.19 135.26 C 141.91 135.73 142.87 135.53 143.35 134.81 L 143.92 133.95 C 144.40 133.23 144.20 132.26 143.48 131.78 C 142.76 131.31 141.79 131.51 141.31 132.23 Z M 140.69 133.17 L 140.20 134.03 C 139.77 134.77 140.02 135.73 140.77 136.16 C 141.52 136.59 142.47 136.33 142.90 135.59 L 143.40 134.73 C 143.83 133.99 143.57 133.03 142.83 132.60 C 142.08 132.17 141.13 132.42 140.69 133.17 Z M 140.17 134.09 L 139.72 134.95 C 139.32 135.72 139.62 136.66 140.38 137.06 C 141.15 137.45 142.09 137.16 142.49 136.39 L 142.94 135.53 C 143.33 134.76 143.04 133.82 142.27 133.42 C 141.51 133.02 140.56 133.32 140.17 134.09 Z M 139.70 134.99 L 139.27 135.87 C 138.89 136.65 139.21 137.58 139.99 137.96 C 140.76 138.34 141.70 138.02 142.07 137.24 L 142.51 136.36 C 142.88 135.58 142.56 134.65 141.79 134.27 C 141.01 133.89 140.08 134.21 139.70 134.99 Z M 139.26 135.88 L 138.86 136.72 C 138.49 137.50 138.82 138.43 139.60 138.80 C 140.38 139.17 141.31 138.84 141.68 138.06 L 142.08 137.23 C 142.45 136.45 142.12 135.52 141.34 135.15 C 140.57 134.78 139.63 135.11 139.26 135.88 Z M 138.86 136.73 L 138.45 137.60 C 138.08 138.38 138.41 139.32 139.19 139.68 C 139.97 140.05 140.90 139.72 141.27 138.94 L 141.68 138.06 C 142.05 137.28 141.72 136.35 140.94 135.98 C 140.16 135.61 139.23 135.95 138.86 136.73 Z M 138.44 137.61 L 138.01 138.53 C 137.65 139.31 137.99 140.24 138.77 140.61 C 139.55 140.97 140.48 140.64 140.84 139.85 L 141.27 138.93 C 141.64 138.15 141.30 137.22 140.52 136.86 C 139.74 136.49 138.81 136.83 138.44 137.61 Z M 138.01 138.54 L 137.56 139.50 C 137.20 140.29 137.54 141.21 138.32 141.58 C 139.10 141.94 140.03 141.60 140.39 140.82 L 140.84 139.85 C 141.21 139.07 140.87 138.14 140.09 137.78 C 139.30 137.41 138.37 137.75 138.01 138.54 Z M 137.56 139.51 L 137.15 140.39 C 136.79 141.17 137.13 142.10 137.92 142.46 C 138.70 142.82 139.63 142.48 139.99 141.70 L 140.40 140.82 C 140.76 140.03 140.42 139.11 139.63 138.74 C 138.85 138.38 137.92 138.72 137.56 139.51 Z M 137.15 140.39 L 136.76 141.25 C 136.39 142.03 136.74 142.96 137.52 143.32 C 138.30 143.68 139.23 143.34 139.59 142.56 L 139.99 141.70 C 140.35 140.91 140.01 139.99 139.22 139.63 C 138.44 139.26 137.51 139.61 137.15 140.39 Z M 136.76 141.25 L 136.34 142.15 C 135.98 142.93 136.33 143.86 137.11 144.22 C 137.89 144.58 138.82 144.23 139.18 143.45 L 139.59 142.56 C 139.95 141.77 139.61 140.85 138.83 140.49 C 138.04 140.13 137.12 140.47 136.76 141.25 Z M 136.34 142.15 L 135.92 143.07 C 135.56 143.86 135.90 144.78 136.69 145.14 C 137.47 145.50 138.40 145.16 138.76 144.37 L 139.18 143.45 C 139.54 142.66 139.20 141.74 138.41 141.38 C 137.63 141.02 136.70 141.36 136.34 142.15 Z M 135.92 143.07 L 135.48 144.03 C 135.12 144.81 135.47 145.74 136.25 146.10 C 137.03 146.46 137.96 146.11 138.32 145.33 L 138.76 144.37 C 139.12 143.59 138.77 142.66 137.99 142.30 C 137.20 141.94 136.28 142.29 135.92 143.07 Z M 135.48 144.03 L 135.05 144.97 C 134.69 145.76 135.04 146.68 135.82 147.04 C 136.61 147.40 137.53 147.05 137.89 146.27 L 138.32 145.33 C 138.68 144.54 138.33 143.62 137.55 143.26 C 136.77 142.90 135.84 143.25 135.48 144.03 Z M 135.05 144.97 L 134.66 145.83 C 134.30 146.62 134.65 147.54 135.43 147.90 C 136.22 148.26 137.14 147.91 137.50 147.13 L 137.89 146.27 C 138.25 145.48 137.90 144.56 137.12 144.20 C 136.33 143.84 135.41 144.19 135.05 144.97 Z M 134.66 145.83 L 134.26 146.71 C 133.90 147.50 134.25 148.42 135.03 148.78 C 135.81 149.14 136.74 148.79 137.10 148.01 L 137.50 147.13 C 137.86 146.34 137.51 145.42 136.73 145.06 C 135.94 144.70 135.02 145.05 134.66 145.83 Z M 134.26 146.71 L 133.85 147.61 C 133.49 148.40 133.83 149.33 134.62 149.68 C 135.40 150.04 136.33 149.69 136.69 148.91 L 137.10 148.01 C 137.46 147.22 137.11 146.30 136.32 145.94 C 135.54 145.58 134.61 145.93 134.26 146.71 Z M 133.85 147.61 L 133.42 148.54 C 133.07 149.32 133.41 150.25 134.20 150.61 C 134.98 150.96 135.91 150.62 136.27 149.83 L 136.69 148.91 C 137.04 148.13 136.70 147.20 135.91 146.84 C 135.13 146.48 134.20 146.83 133.85 147.61 Z M 133.43 148.54 L 132.99 149.48 C 132.64 150.27 132.98 151.19 133.77 151.55 C 134.55 151.91 135.48 151.56 135.84 150.78 L 136.27 149.83 C 136.62 149.05 136.28 148.12 135.49 147.77 C 134.71 147.41 133.78 147.75 133.43 148.54 Z M 132.99 149.48 L 132.55 150.44 C 132.20 151.23 132.54 152.16 133.33 152.51 C 134.11 152.87 135.04 152.53 135.39 151.74 L 135.83 150.78 C 136.19 149.99 135.85 149.07 135.06 148.71 C 134.28 148.35 133.35 148.70 132.99 149.48 Z M 132.55 150.44 L 132.16 151.30 C 131.80 152.09 132.15 153.01 132.93 153.37 C 133.72 153.73 134.64 153.39 135.00 152.60 L 135.39 151.74 C 135.75 150.96 135.41 150.03 134.62 149.67 C 133.84 149.32 132.91 149.66 132.55 150.44 Z M 132.16 151.30 L 131.77 152.17 C 131.41 152.95 131.75 153.88 132.53 154.24 C 133.32 154.59 134.24 154.25 134.60 153.47 L 135.00 152.60 C 135.36 151.82 135.02 150.89 134.23 150.53 C 133.45 150.17 132.52 150.52 132.16 151.30 Z M 131.77 152.16 L 131.36 153.04 C 131.00 153.83 131.34 154.75 132.13 155.11 C 132.91 155.48 133.84 155.13 134.20 154.35 L 134.60 153.47 C 134.96 152.69 134.62 151.76 133.84 151.40 C 133.05 151.04 132.13 151.38 131.77 152.16 Z M 131.36 153.04 L 130.95 153.94 C 130.59 154.72 130.93 155.65 131.71 156.01 C 132.49 156.37 133.42 156.03 133.78 155.25 L 134.20 154.35 C 134.56 153.57 134.22 152.64 133.43 152.28 C 132.65 151.92 131.72 152.26 131.36 153.04 Z M 130.95 153.94 L 130.52 154.86 C 130.16 155.64 130.50 156.57 131.28 156.93 C 132.06 157.29 132.99 156.95 133.35 156.17 L 133.78 155.25 C 134.14 154.47 133.80 153.54 133.02 153.18 C 132.24 152.82 131.31 153.16 130.95 153.94 Z M 130.52 154.85 L 130.09 155.79 C 129.72 156.57 130.06 157.50 130.84 157.87 C 131.62 158.23 132.55 157.89 132.91 157.11 L 133.35 156.17 C 133.72 155.39 133.38 154.46 132.60 154.10 C 131.82 153.73 130.89 154.07 130.52 154.85 Z M 130.09 155.79 L 129.64 156.75 C 129.27 157.53 129.60 158.46 130.38 158.83 C 131.17 159.19 132.09 158.86 132.46 158.08 L 132.91 157.12 C 133.28 156.34 132.94 155.41 132.16 155.04 C 131.38 154.67 130.45 155.01 130.09 155.79 Z M 129.64 156.75 L 129.20 157.67 C 128.83 158.45 129.17 159.38 129.95 159.75 C 130.73 160.11 131.66 159.78 132.03 159.00 L 132.46 158.08 C 132.83 157.30 132.49 156.37 131.72 156.00 C 130.94 155.63 130.00 155.97 129.64 156.75 Z M 129.20 157.66 L 128.79 158.54 C 128.42 159.32 128.75 160.25 129.53 160.62 C 130.31 160.99 131.24 160.66 131.61 159.88 L 132.02 159.00 C 132.39 158.23 132.06 157.29 131.28 156.92 C 130.51 156.55 129.57 156.88 129.20 157.66 Z M 128.79 158.53 L 128.37 159.42 C 127.99 160.20 128.32 161.13 129.10 161.50 C 129.88 161.87 130.81 161.54 131.18 160.77 L 131.61 159.88 C 131.98 159.10 131.65 158.17 130.87 157.80 C 130.09 157.43 129.16 157.76 128.79 158.53 Z M 128.37 159.42 L 127.94 160.32 C 127.56 161.09 127.89 162.03 128.67 162.40 C 129.44 162.77 130.38 162.44 130.75 161.67 L 131.18 160.77 C 131.56 159.99 131.23 159.06 130.45 158.69 C 129.67 158.31 128.74 158.64 128.37 159.42 Z M 127.94 160.31 L 127.50 161.22 C 127.12 162.00 127.45 162.93 128.23 163.30 C 129.00 163.68 129.94 163.35 130.31 162.58 L 130.75 161.67 C 131.12 160.89 130.80 159.96 130.02 159.59 C 129.25 159.21 128.31 159.54 127.94 160.31 Z M 127.50 161.22 L 127.06 162.13 C 126.68 162.90 127.00 163.84 127.78 164.21 C 128.56 164.59 129.49 164.27 129.87 163.49 L 130.31 162.58 C 130.69 161.80 130.36 160.87 129.59 160.49 C 128.81 160.12 127.88 160.44 127.50 161.22 Z M 127.06 162.13 L 126.61 163.04 C 126.23 163.82 126.56 164.75 127.33 165.13 C 128.10 165.51 129.04 165.19 129.42 164.41 L 129.87 163.50 C 130.24 162.72 129.92 161.79 129.15 161.41 C 128.37 161.03 127.44 161.35 127.06 162.13 Z M 126.61 163.04 L 126.16 163.95 C 125.78 164.73 126.10 165.66 126.88 166.04 C 127.65 166.42 128.59 166.10 128.97 165.33 L 129.42 164.41 C 129.80 163.64 129.48 162.70 128.70 162.32 C 127.93 161.94 126.99 162.26 126.61 163.04 Z M 126.17 163.95 L 125.72 164.86 C 125.33 165.64 125.65 166.57 126.42 166.95 C 127.20 167.34 128.13 167.02 128.51 166.25 L 128.97 165.33 C 129.35 164.56 129.03 163.62 128.26 163.24 C 127.48 162.86 126.55 163.18 126.17 163.95 Z M 125.72 164.86 L 125.27 165.76 C 124.89 166.53 125.20 167.47 125.97 167.85 C 126.75 168.23 127.68 167.92 128.07 167.15 L 128.51 166.25 C 128.90 165.48 128.58 164.54 127.81 164.16 C 127.04 163.77 126.10 164.09 125.72 164.86 Z M 125.27 165.75 L 124.83 166.65 C 124.44 167.42 124.75 168.35 125.52 168.74 C 126.30 169.13 127.23 168.81 127.62 168.04 L 128.07 167.15 C 128.45 166.38 128.14 165.44 127.37 165.05 C 126.60 164.67 125.66 164.98 125.27 165.75 Z M 124.83 166.64 L 124.38 167.53 C 123.99 168.30 124.30 169.24 125.07 169.63 C 125.84 170.02 126.78 169.71 127.17 168.93 L 127.62 168.05 C 128.00 167.27 127.69 166.34 126.92 165.95 C 126.15 165.56 125.22 165.87 124.83 166.64 Z M 124.38 167.53 L 123.93 168.42 C 123.54 169.19 123.85 170.13 124.62 170.51 C 125.39 170.90 126.33 170.60 126.72 169.83 L 127.17 168.94 C 127.56 168.17 127.25 167.23 126.48 166.84 C 125.71 166.45 124.77 166.76 124.38 167.53 Z M 123.93 168.41 L 123.48 169.30 C 123.09 170.07 123.40 171.01 124.17 171.40 C 124.93 171.79 125.87 171.49 126.27 170.72 L 126.72 169.83 C 127.11 169.06 126.80 168.12 126.03 167.73 C 125.27 167.34 124.33 167.64 123.93 168.41 Z M 123.48 169.30 L 123.03 170.19 C 122.64 170.95 122.94 171.89 123.71 172.29 C 124.48 172.68 125.42 172.38 125.81 171.61 L 126.26 170.72 C 126.66 169.95 126.35 169.01 125.59 168.62 C 124.82 168.23 123.88 168.53 123.48 169.30 Z M 123.03 170.18 L 122.57 171.07 C 122.18 171.84 122.48 172.78 123.25 173.18 C 124.01 173.57 124.95 173.27 125.35 172.50 L 125.81 171.61 C 126.20 170.85 125.90 169.90 125.13 169.51 C 124.37 169.11 123.43 169.42 123.03 170.18 Z M 122.57 171.07 L 122.11 171.96 C 121.72 172.73 122.01 173.67 122.78 174.07 C 123.55 174.46 124.49 174.17 124.88 173.40 L 125.35 172.51 C 125.74 171.74 125.44 170.80 124.68 170.40 C 123.91 170.01 122.97 170.30 122.57 171.07 Z M 122.11 171.96 L 121.65 172.85 C 121.25 173.61 121.55 174.56 122.31 174.95 C 123.08 175.35 124.02 175.06 124.42 174.29 L 124.88 173.40 C 125.28 172.64 124.98 171.70 124.22 171.30 C 123.45 170.90 122.51 171.20 122.11 171.96 Z M 121.65 172.85 L 121.19 173.72 C 120.79 174.48 121.09 175.43 121.85 175.83 C 122.62 176.23 123.56 175.93 123.96 175.17 L 124.42 174.29 C 124.82 173.53 124.52 172.59 123.76 172.19 C 123.00 171.79 122.05 172.08 121.65 172.85 Z M 121.20 173.72 L 120.73 174.59 C 120.33 175.36 120.63 176.30 121.39 176.70 C 122.15 177.10 123.10 176.81 123.50 176.05 L 123.96 175.17 C 124.36 174.41 124.07 173.46 123.30 173.06 C 122.54 172.66 121.60 172.95 121.20 173.72 Z M 120.74 174.59 L 120.27 175.47 C 119.87 176.23 120.16 177.18 120.92 177.58 C 121.68 177.99 122.63 177.69 123.03 176.93 L 123.50 176.05 C 123.90 175.29 123.61 174.34 122.85 173.94 C 122.08 173.54 121.14 173.83 120.74 174.59 Z M 120.27 175.47 L 119.80 176.35 C 119.40 177.11 119.69 178.06 120.45 178.46 C 121.21 178.87 122.15 178.58 122.56 177.82 L 123.03 176.94 C 123.43 176.17 123.14 175.23 122.38 174.82 C 121.62 174.42 120.68 174.71 120.27 175.47 Z M 119.80 176.35 L 119.33 177.24 C 118.92 178.00 119.21 178.94 119.97 179.35 C 120.73 179.75 121.68 179.47 122.08 178.71 L 122.56 177.82 C 122.96 177.06 122.68 176.12 121.92 175.71 C 121.16 175.30 120.21 175.59 119.80 176.35 Z M 119.33 177.23 L 118.86 178.12 C 118.45 178.88 118.73 179.82 119.49 180.23 C 120.25 180.64 121.20 180.36 121.61 179.60 L 122.08 178.71 C 122.49 177.95 122.21 177.00 121.45 176.60 C 120.69 176.19 119.74 176.47 119.33 177.23 Z M 118.86 178.12 L 118.38 179.00 C 117.97 179.76 118.25 180.71 119.01 181.12 C 119.77 181.53 120.72 181.24 121.13 180.49 L 121.60 179.60 C 122.01 178.84 121.73 177.89 120.97 177.48 C 120.21 177.07 119.27 177.36 118.86 178.12 Z M 118.38 179.00 L 117.90 179.89 C 117.49 180.64 117.77 181.59 118.53 182.00 C 119.28 182.41 120.23 182.13 120.64 181.38 L 121.12 180.49 C 121.54 179.73 121.25 178.78 120.50 178.37 C 119.74 177.96 118.79 178.24 118.38 179.00 Z M 117.90 179.88 L 117.42 180.77 C 117.00 181.52 117.28 182.47 118.04 182.89 C 118.80 183.30 119.74 183.02 120.16 182.26 L 120.64 181.38 C 121.05 180.62 120.78 179.67 120.02 179.26 C 119.26 178.85 118.31 179.13 117.90 179.88 Z M 117.42 180.76 L 116.93 181.65 C 116.52 182.40 116.80 183.35 117.55 183.77 C 118.31 184.18 119.26 183.91 119.67 183.15 L 120.16 182.27 C 120.57 181.51 120.29 180.56 119.54 180.15 C 118.78 179.73 117.83 180.01 117.42 180.76 Z M 116.94 181.65 L 116.45 182.53 C 116.03 183.28 116.31 184.23 117.06 184.65 C 117.82 185.06 118.77 184.79 119.18 184.03 L 119.67 183.15 C 120.09 182.40 119.81 181.45 119.06 181.03 C 118.30 180.62 117.35 180.89 116.94 181.65 Z M 116.45 182.53 L 115.96 183.41 C 115.55 184.16 115.82 185.11 116.58 185.53 C 117.33 185.94 118.28 185.67 118.70 184.92 L 119.18 184.04 C 119.60 183.28 119.33 182.33 118.57 181.91 C 117.82 181.50 116.87 181.77 116.45 182.53 Z M 115.97 183.40 L 115.48 184.28 C 115.06 185.04 115.34 185.99 116.09 186.40 C 116.84 186.82 117.79 186.55 118.21 185.79 L 118.70 184.92 C 119.11 184.16 118.84 183.21 118.09 182.79 C 117.33 182.38 116.38 182.65 115.97 183.40 Z M 115.48 184.28 L 115.00 185.16 C 114.58 185.91 114.85 186.86 115.60 187.28 C 116.36 187.70 117.31 187.42 117.73 186.67 L 118.21 185.79 C 118.63 185.04 118.36 184.09 117.60 183.67 C 116.85 183.25 115.90 183.53 115.48 184.28 Z M 115.00 185.16 L 114.51 186.03 C 114.09 186.78 114.37 187.73 115.12 188.15 C 115.87 188.57 116.83 188.30 117.24 187.54 L 117.73 186.67 C 118.14 185.92 117.87 184.97 117.12 184.55 C 116.36 184.13 115.41 184.40 115.00 185.16 Z M 114.51 186.03 L 114.03 186.90 C 113.61 187.65 113.89 188.60 114.64 189.02 C 115.39 189.44 116.34 189.16 116.76 188.41 L 117.24 187.54 C 117.66 186.79 117.39 185.84 116.63 185.42 C 115.88 185.00 114.93 185.27 114.51 186.03 Z M 114.03 186.90 L 113.55 187.76 C 113.13 188.52 113.41 189.47 114.16 189.89 C 114.92 190.30 115.87 190.03 116.28 189.28 L 116.76 188.41 C 117.18 187.65 116.91 186.70 116.15 186.29 C 115.40 185.87 114.45 186.14 114.03 186.90 Z M 113.55 187.77 L 113.06 188.65 C 112.65 189.41 112.92 190.36 113.68 190.77 C 114.43 191.19 115.38 190.91 115.80 190.16 L 116.28 189.27 C 116.70 188.52 116.43 187.57 115.67 187.15 C 114.92 186.74 113.97 187.01 113.55 187.77 Z M 113.06 188.65 L 112.56 189.55 C 112.15 190.31 112.42 191.26 113.18 191.68 C 113.94 192.09 114.89 191.82 115.30 191.06 L 115.80 190.16 C 116.21 189.40 115.94 188.45 115.18 188.04 C 114.43 187.62 113.48 187.90 113.06 188.65 Z M 112.56 189.56 L 112.07 190.45 C 111.66 191.21 111.93 192.16 112.69 192.57 C 113.45 192.99 114.40 192.71 114.81 191.96 L 115.30 191.06 C 115.72 190.30 115.44 189.35 114.68 188.94 C 113.93 188.52 112.98 188.80 112.56 189.56 Z M 112.07 190.45 L 111.58 191.34 C 111.17 192.10 111.45 193.05 112.20 193.47 C 112.96 193.88 113.91 193.60 114.33 192.84 L 114.81 191.95 C 115.23 191.20 114.95 190.25 114.19 189.83 C 113.43 189.42 112.48 189.70 112.07 190.45 Z M 111.58 191.34 L 111.10 192.23 C 110.69 192.99 110.96 193.94 111.72 194.35 C 112.48 194.76 113.43 194.49 113.85 193.73 L 114.33 192.84 C 114.74 192.09 114.46 191.13 113.70 190.72 C 112.95 190.31 111.99 190.59 111.58 191.34 Z M 111.10 192.23 L 110.62 193.10 C 110.21 193.86 110.49 194.81 111.25 195.23 C 112.01 195.64 112.96 195.36 113.37 194.60 L 113.85 193.73 C 114.26 192.97 113.98 192.02 113.22 191.60 C 112.46 191.19 111.51 191.47 111.10 192.23 Z M 110.62 193.10 L 110.15 193.97 C 109.74 194.73 110.02 195.68 110.78 196.09 C 111.54 196.51 112.49 196.22 112.90 195.46 L 113.37 194.60 C 113.79 193.84 113.51 192.89 112.75 192.47 C 111.98 192.06 111.03 192.34 110.62 193.10 Z M 110.15 193.97 L 109.69 194.82 C 109.27 195.58 109.55 196.54 110.32 196.95 C 111.08 197.36 112.03 197.08 112.44 196.32 L 112.90 195.46 C 113.32 194.70 113.04 193.75 112.27 193.34 C 111.51 192.93 110.56 193.21 110.15 193.97 Z M 109.68 194.82 L 109.23 195.67 C 108.81 196.43 109.10 197.38 109.86 197.79 C 110.62 198.21 111.57 197.92 111.99 197.16 L 112.44 196.32 C 112.86 195.56 112.57 194.60 111.81 194.19 C 111.05 193.78 110.10 194.06 109.68 194.82 Z M 109.23 195.67 L 108.73 196.58 C 108.32 197.34 108.60 198.29 109.36 198.71 C 110.13 199.12 111.08 198.84 111.49 198.07 L 111.99 197.16 C 112.40 196.40 112.12 195.45 111.35 195.03 C 110.59 194.62 109.64 194.90 109.23 195.67 Z M 108.73 196.58 L 108.24 197.48 C 107.83 198.24 108.11 199.19 108.88 199.61 C 109.64 200.02 110.59 199.74 111.01 198.97 L 111.49 198.08 C 111.91 197.31 111.62 196.36 110.86 195.95 C 110.10 195.53 109.14 195.82 108.73 196.58 Z M 108.24 197.48 L 107.76 198.36 C 107.35 199.13 107.63 200.08 108.39 200.49 C 109.16 200.91 110.11 200.63 110.52 199.86 L 111.01 198.98 C 111.42 198.21 111.14 197.26 110.37 196.84 C 109.61 196.43 108.66 196.71 108.24 197.48 Z M 107.76 198.36 L 107.28 199.24 C 106.87 200.00 107.15 200.96 107.92 201.37 C 108.68 201.79 109.63 201.50 110.05 200.74 L 110.53 199.86 C 110.94 199.10 110.66 198.15 109.89 197.73 C 109.13 197.32 108.18 197.60 107.76 198.36 Z M 107.28 199.24 L 106.81 200.10 C 106.39 200.87 106.68 201.82 107.44 202.24 C 108.20 202.66 109.16 202.37 109.57 201.61 L 110.05 200.74 C 110.46 199.98 110.18 199.02 109.42 198.61 C 108.66 198.19 107.70 198.47 107.28 199.24 Z M 106.81 200.10 L 106.34 200.96 C 105.92 201.73 106.20 202.68 106.96 203.10 C 107.73 203.52 108.68 203.24 109.10 202.48 L 109.57 201.61 C 109.99 200.85 109.71 199.89 108.95 199.48 C 108.19 199.06 107.23 199.34 106.81 200.10 Z M 106.34 200.96 L 105.87 201.81 C 105.45 202.58 105.73 203.54 106.49 203.96 C 107.25 204.38 108.21 204.10 108.63 203.34 L 109.10 202.48 C 109.52 201.72 109.24 200.76 108.48 200.34 C 107.72 199.92 106.76 200.20 106.34 200.96 Z M 105.87 201.81 L 105.38 202.69 C 104.96 203.45 105.23 204.41 106.00 204.83 C 106.76 205.26 107.72 204.98 108.14 204.22 L 108.63 203.34 C 109.05 202.58 108.78 201.62 108.01 201.20 C 107.25 200.77 106.29 201.05 105.87 201.81 Z M 105.38 202.68 L 104.86 203.62 C 104.44 204.38 104.71 205.34 105.47 205.77 C 106.23 206.19 107.19 205.92 107.62 205.16 L 108.14 204.23 C 108.57 203.46 108.29 202.50 107.53 202.08 C 106.77 201.65 105.81 201.92 105.38 202.68 Z M 104.86 203.61 L 104.34 204.53 C 103.91 205.29 104.18 206.26 104.95 206.69 C 105.71 207.12 106.67 206.85 107.10 206.08 L 107.62 205.16 C 108.05 204.40 107.78 203.44 107.02 203.01 C 106.26 202.58 105.29 202.85 104.86 203.61 Z M 104.34 204.53 L 103.83 205.43 C 103.40 206.19 103.67 207.16 104.43 207.59 C 105.19 208.02 106.16 207.75 106.59 206.99 L 107.10 206.09 C 107.53 205.33 107.26 204.36 106.50 203.93 C 105.74 203.50 104.78 203.76 104.34 204.53 Z M 103.83 205.42 L 103.33 206.29 C 102.90 207.06 103.16 208.03 103.92 208.46 C 104.68 208.90 105.65 208.63 106.09 207.87 L 106.59 207.00 C 107.02 206.24 106.76 205.27 106.00 204.83 C 105.24 204.40 104.27 204.66 103.83 205.42 Z M 103.33 206.29 L 102.85 207.13 C 102.41 207.89 102.67 208.86 103.43 209.30 C 104.19 209.74 105.16 209.48 105.60 208.72 L 106.09 207.88 C 106.53 207.12 106.26 206.15 105.50 205.71 C 104.74 205.27 103.77 205.53 103.33 206.29 Z M 102.85 207.12 L 102.38 207.92 C 101.94 208.68 102.20 209.65 102.96 210.10 C 103.72 210.54 104.69 210.28 105.14 209.52 L 105.60 208.72 C 106.04 207.96 105.79 206.99 105.03 206.55 C 104.27 206.10 103.29 206.36 102.85 207.12 Z M 102.39 207.91 L 101.89 208.76 C 101.44 209.52 101.69 210.50 102.45 210.95 C 103.21 211.39 104.19 211.14 104.63 210.38 L 105.13 209.53 C 105.58 208.77 105.33 207.79 104.57 207.35 C 103.81 206.90 102.83 207.15 102.39 207.91 Z M 101.89 208.75 L 101.30 209.74 C 100.84 210.50 101.09 211.48 101.85 211.93 C 102.60 212.38 103.58 212.14 104.04 211.38 L 104.63 210.39 C 105.08 209.64 104.84 208.65 104.08 208.20 C 103.32 207.75 102.34 208.00 101.89 208.75 Z M 101.30 209.73 L 100.76 210.62 C 100.30 211.37 100.53 212.35 101.29 212.81 C 102.04 213.28 103.02 213.04 103.48 212.29 L 104.03 211.40 C 104.49 210.64 104.26 209.66 103.50 209.20 C 102.75 208.74 101.77 208.97 101.30 209.73 Z M 100.77 210.60 L 100.26 211.40 C 99.79 212.15 100.01 213.13 100.76 213.61 C 101.51 214.08 102.49 213.86 102.97 213.11 L 103.47 212.31 C 103.95 211.56 103.72 210.57 102.98 210.10 C 102.23 209.63 101.24 209.85 100.77 210.60 Z M 100.28 211.37 L 99.80 212.10 C 99.31 212.84 99.52 213.83 100.26 214.32 C 101.00 214.81 101.99 214.60 102.48 213.86 L 102.95 213.13 C 103.44 212.39 103.23 211.40 102.49 210.91 C 101.75 210.43 100.76 210.63 100.28 211.37 Z M 99.82 212.07 L 99.28 212.85 C 98.77 213.57 98.96 214.57 99.68 215.08 C 100.41 215.58 101.41 215.40 101.92 214.67 L 102.46 213.89 C 102.96 213.17 102.78 212.17 102.05 211.66 C 101.32 211.16 100.32 211.34 99.82 212.07 Z M 99.33 212.77 L 98.71 213.57 C 98.16 214.27 98.29 215.28 98.99 215.82 C 99.69 216.37 100.70 216.24 101.25 215.54 L 101.87 214.75 C 102.41 214.05 102.29 213.04 101.59 212.49 C 100.88 211.94 99.87 212.07 99.33 212.77 Z M 98.82 213.43 L 98.15 214.13 C 97.53 214.76 97.54 215.78 98.18 216.40 C 98.82 217.02 99.84 217.01 100.46 216.37 L 101.13 215.68 C 101.75 215.04 101.74 214.02 101.10 213.40 C 100.46 212.78 99.44 212.79 98.82 213.43 Z M 98.33 213.96 L 97.54 214.56 C 96.83 215.09 96.69 216.11 97.23 216.82 C 97.77 217.53 98.78 217.67 99.49 217.13 L 100.28 216.54 C 100.99 216.00 101.13 214.98 100.59 214.27 C 100.05 213.56 99.04 213.42 98.33 213.96 Z M 97.78 214.41 L 96.82 214.90 C 96.03 215.31 95.72 216.29 96.13 217.08 C 96.54 217.87 97.51 218.18 98.30 217.77 L 99.26 217.28 C 100.05 216.87 100.36 215.89 99.96 215.10 C 99.55 214.31 98.57 214.00 97.78 214.41 Z M 97.13 214.78 L 96.13 215.06 C 95.27 215.29 94.77 216.18 95.00 217.04 C 95.24 217.90 96.13 218.41 96.99 218.17 L 97.99 217.89 C 98.85 217.66 99.36 216.77 99.12 215.91 C 98.88 215.05 97.99 214.54 97.13 214.78 Z M 96.67 215.00 L 95.77 214.94 C 94.88 214.88 94.11 215.55 94.04 216.44 C 93.98 217.32 94.65 218.10 95.54 218.16 L 96.45 218.22 C 97.34 218.28 98.11 217.61 98.17 216.73 C 98.23 215.84 97.56 215.07 96.67 215.00 Z M 96.59 215.24 L 95.95 214.78 C 95.23 214.26 94.23 214.43 93.71 215.15 C 93.19 215.88 93.35 216.88 94.08 217.40 L 94.71 217.86 C 95.44 218.38 96.44 218.21 96.96 217.49 C 97.48 216.76 97.31 215.76 96.59 215.24 Z M 96.44 215.34 L 96.03 214.58 C 95.62 213.80 94.65 213.49 93.86 213.91 C 93.08 214.32 92.78 215.30 93.19 216.08 L 93.59 216.84 C 94.01 217.63 94.98 217.93 95.77 217.51 C 96.55 217.10 96.85 216.13 96.44 215.34 Z M 96.16 214.91 L 95.89 213.92 C 95.66 213.06 94.78 212.56 93.92 212.79 C 93.07 213.03 92.56 213.91 92.80 214.76 L 93.07 215.75 C 93.30 216.61 94.18 217.11 95.03 216.88 C 95.89 216.64 96.39 215.76 96.16 214.91 Z M 95.92 214.07 L 95.73 212.95 C 95.58 212.08 94.75 211.49 93.88 211.64 C 93.01 211.79 92.43 212.61 92.58 213.48 L 92.77 214.61 C 92.92 215.48 93.74 216.06 94.61 215.92 C 95.48 215.77 96.07 214.94 95.92 214.07 Z M 95.73 212.99 L 95.66 212.51 C 95.54 211.63 94.73 211.03 93.85 211.16 C 92.98 211.28 92.38 212.09 92.50 212.96 L 92.57 213.44 C 92.70 214.32 93.51 214.92 94.38 214.79 C 95.25 214.67 95.86 213.86 95.73 212.99 Z"
      fill="black"
      fill-rule="nonzero" /></svg>