<svg xmlns="http://www.w3.org/2000/svg" width="300" height="300" viewBox="0 0 300 300">
<path d="M 196.27 77.43 L 195.35 77.81 C 194.55 78.14 194.17 79.05 194.50 79.85 C 194.83 80.65 195.74 81.03 196.53 80.70 L 197.45 80.32 C 198.25 80.00 198.63 79.09 198.31 78.29 C 197.98 77.49 197.07 77.11 196.27 77.43 Z M 195.33 77.82 L 194.42 78.21 C 193.62 78.54 193.25 79.46 193.59 80.25 C 193.92 81.05 194.84 81.42 195.63 81.08 L 196.55 80.69 C 197.35 80.36 197.72 79.44 197.38 78.65 C 197.04 77.85 196.13 77.48 195.33 77.82 Z M 194.38 78.22 L 193.47 78.63 C 192.69 78.98 192.33 79.91 192.69 80.70 C 193.04 81.48 193.97 81.83 194.75 81.48 L 195.67 81.07 C 196.45 80.71 196.80 79.79 196.45 79.00 C 196.10 78.22 195.17 77.87 194.38 78.22 Z M 193.42 78.65 L 192.52 79.09 C 191.75 79.47 191.43 80.41 191.81 81.18 C 192.19 81.96 193.12 82.28 193.90 81.90 L 194.80 81.46 C 195.57 81.08 195.89 80.14 195.51 79.37 C 195.13 78.59 194.20 78.27 193.42 78.65 Z M 192.47 79.12 L 191.62 79.58 C 190.86 79.99 190.58 80.93 190.99 81.69 C 191.40 82.45 192.35 82.74 193.10 82.33 L 193.95 81.87 C 194.71 81.46 194.99 80.52 194.59 79.76 C 194.18 79.00 193.23 78.71 192.47 79.12 Z M 191.58 79.60 L 190.73 80.10 C 189.98 80.53 189.73 81.48 190.16 82.23 C 190.60 82.98 191.55 83.23 192.30 82.80 L 193.15 82.30 C 193.89 81.87 194.15 80.92 193.71 80.17 C 193.28 79.42 192.33 79.17 191.58 79.60 Z M 190.70 80.11 L 189.84 80.64 C 189.10 81.09 188.87 82.05 189.32 82.79 C 189.77 83.52 190.73 83.76 191.47 83.31 L 192.33 82.78 C 193.06 82.33 193.30 81.37 192.85 80.63 C 192.40 79.90 191.43 79.66 190.70 80.11 Z M 189.82 80.66 L 188.93 81.22 C 188.20 81.68 187.99 82.64 188.45 83.37 C 188.91 84.10 189.88 84.31 190.60 83.85 L 191.49 83.29 C 192.22 82.83 192.43 81.87 191.97 81.14 C 191.51 80.41 190.54 80.19 189.82 80.66 Z M 188.92 81.22 L 188.12 81.74 C 187.40 82.21 187.19 83.18 187.66 83.90 C 188.13 84.62 189.09 84.83 189.82 84.36 L 190.62 83.85 C 191.34 83.38 191.55 82.41 191.08 81.69 C 190.61 80.96 189.64 80.76 188.92 81.22 Z M 188.12 81.74 L 187.30 82.27 C 186.58 82.74 186.37 83.71 186.84 84.43 C 187.30 85.15 188.27 85.36 188.99 84.89 L 189.82 84.36 C 190.54 83.89 190.75 82.93 190.28 82.20 C 189.81 81.48 188.84 81.27 188.12 81.74 Z M 187.31 82.27 L 186.46 82.81 C 185.73 83.27 185.52 84.24 185.98 84.96 C 186.45 85.69 187.41 85.90 188.14 85.44 L 188.99 84.90 C 189.71 84.44 189.93 83.47 189.46 82.74 C 189.00 82.02 188.04 81.80 187.31 82.27 Z M 186.48 82.80 L 185.60 83.34 C 184.87 83.79 184.64 84.75 185.10 85.49 C 185.55 86.22 186.51 86.45 187.25 85.99 L 188.12 85.45 C 188.85 85.00 189.08 84.04 188.63 83.30 C 188.17 82.57 187.21 82.34 186.48 82.80 Z M 185.63 83.32 L 184.73 83.85 C 183.99 84.29 183.74 85.25 184.18 85.99 C 184.62 86.74 185.58 86.98 186.32 86.54 L 187.22 86.01 C 187.96 85.57 188.21 84.61 187.77 83.87 C 187.33 83.13 186.37 82.88 185.63 83.32 Z M 184.76 83.84 L 183.85 84.35 C 183.10 84.77 182.83 85.72 183.26 86.48 C 183.68 87.23 184.63 87.49 185.38 87.07 L 186.29 86.56 C 187.04 86.13 187.31 85.18 186.88 84.43 C 186.46 83.68 185.51 83.41 184.76 83.84 Z M 183.88 84.34 L 182.96 84.83 C 182.21 85.24 181.92 86.18 182.33 86.94 C 182.74 87.70 183.69 87.98 184.45 87.57 L 185.36 87.08 C 186.12 86.67 186.40 85.73 185.99 84.97 C 185.58 84.21 184.64 83.93 183.88 84.34 Z M 182.99 84.81 L 182.09 85.28 C 181.33 85.68 181.03 86.62 181.43 87.38 C 181.82 88.15 182.76 88.45 183.53 88.05 L 184.42 87.59 C 185.19 87.19 185.49 86.25 185.09 85.48 C 184.69 84.72 183.75 84.42 182.99 84.81 Z M 182.11 85.27 L 181.25 85.70 C 180.48 86.08 180.17 87.02 180.56 87.79 C 180.94 88.56 181.88 88.88 182.65 88.49 L 183.51 88.06 C 184.28 87.67 184.59 86.74 184.21 85.97 C 183.82 85.19 182.88 84.88 182.11 85.27 Z M 181.27 85.69 L 180.38 86.12 C 179.60 86.50 179.27 87.43 179.65 88.21 C 180.03 88.98 180.96 89.31 181.74 88.93 L 182.63 88.50 C 183.41 88.12 183.73 87.19 183.36 86.41 C 182.98 85.64 182.05 85.31 181.27 85.69 Z M 180.40 86.11 L 179.45 86.55 C 178.67 86.91 178.33 87.84 178.69 88.62 C 179.05 89.40 179.98 89.74 180.76 89.38 L 181.71 88.94 C 182.49 88.58 182.83 87.65 182.47 86.87 C 182.11 86.09 181.18 85.75 180.40 86.11 Z M 179.48 86.54 L 178.59 86.93 C 177.80 87.27 177.44 88.19 177.79 88.98 C 178.14 89.77 179.06 90.13 179.85 89.79 L 180.74 89.40 C 181.53 89.05 181.88 88.13 181.54 87.34 C 181.19 86.55 180.27 86.19 179.48 86.54 Z M 178.62 86.92 L 177.74 87.28 C 176.95 87.61 176.57 88.52 176.90 89.32 C 177.23 90.12 178.15 90.49 178.94 90.16 L 179.82 89.80 C 180.61 89.47 180.99 88.55 180.66 87.76 C 180.33 86.96 179.42 86.58 178.62 86.92 Z M 177.77 87.27 L 176.89 87.62 C 176.08 87.94 175.69 88.85 176.01 89.65 C 176.33 90.45 177.24 90.84 178.04 90.52 L 178.92 90.17 C 179.72 89.85 180.11 88.95 179.79 88.14 C 179.48 87.34 178.57 86.95 177.77 87.27 Z M 176.91 87.61 L 175.99 87.96 C 175.19 88.27 174.78 89.17 175.09 89.97 C 175.40 90.78 176.30 91.18 177.11 90.88 L 178.02 90.53 C 178.82 90.22 179.23 89.32 178.92 88.51 C 178.61 87.71 177.71 87.30 176.91 87.61 Z M 176.01 87.95 L 175.06 88.30 C 174.25 88.60 173.84 89.49 174.14 90.30 C 174.43 91.11 175.33 91.53 176.14 91.23 L 177.09 90.88 C 177.90 90.59 178.31 89.69 178.02 88.88 C 177.72 88.07 176.82 87.66 176.01 87.95 Z M 175.08 88.29 L 174.10 88.64 C 173.28 88.93 172.86 89.82 173.14 90.63 C 173.43 91.45 174.32 91.87 175.14 91.59 L 176.12 91.24 C 176.93 90.95 177.36 90.06 177.07 89.25 C 176.79 88.43 175.90 88.01 175.08 88.29 Z M 174.11 88.64 L 173.21 88.94 C 172.39 89.22 171.95 90.11 172.23 90.93 C 172.51 91.74 173.40 92.18 174.21 91.90 L 175.12 91.59 C 175.94 91.31 176.37 90.43 176.09 89.61 C 175.82 88.79 174.93 88.36 174.11 88.64 Z M 173.22 88.94 L 172.30 89.25 C 171.48 89.52 171.04 90.40 171.31 91.22 C 171.58 92.04 172.46 92.48 173.28 92.21 L 174.20 91.90 C 175.02 91.63 175.46 90.75 175.19 89.93 C 174.92 89.11 174.04 88.67 173.22 88.94 Z M 172.31 89.24 L 171.35 89.55 C 170.53 89.81 170.08 90.69 170.35 91.51 C 170.61 92.34 171.49 92.79 172.31 92.52 L 173.27 92.21 C 174.09 91.95 174.54 91.07 174.27 90.25 C 174.01 89.43 173.13 88.98 172.31 89.24 Z M 171.36 89.55 L 170.37 89.86 C 169.55 90.12 169.09 91.00 169.35 91.82 C 169.61 92.64 170.49 93.10 171.31 92.84 L 172.30 92.52 C 173.12 92.27 173.58 91.39 173.32 90.57 C 173.06 89.74 172.19 89.29 171.36 89.55 Z M 170.38 89.86 L 169.40 90.16 C 168.58 90.41 168.12 91.29 168.37 92.11 C 168.63 92.93 169.50 93.40 170.33 93.14 L 171.30 92.84 C 172.13 92.59 172.59 91.71 172.33 90.89 C 172.08 90.06 171.20 89.60 170.38 89.86 Z M 169.41 90.16 L 168.46 90.44 C 167.64 90.70 167.17 91.57 167.42 92.39 C 167.67 93.22 168.54 93.68 169.37 93.43 L 170.32 93.14 C 171.14 92.89 171.61 92.02 171.36 91.20 C 171.11 90.37 170.24 89.91 169.41 90.16 Z M 168.47 90.44 L 167.50 90.73 C 166.68 90.98 166.21 91.85 166.45 92.68 C 166.70 93.50 167.57 93.97 168.40 93.72 L 169.36 93.43 C 170.19 93.19 170.66 92.32 170.41 91.49 C 170.16 90.66 169.29 90.20 168.47 90.44 Z M 167.51 90.73 L 166.54 91.02 C 165.71 91.26 165.24 92.13 165.48 92.95 C 165.73 93.78 166.59 94.25 167.42 94.01 L 168.39 93.73 C 169.22 93.48 169.69 92.61 169.45 91.79 C 169.20 90.96 168.34 90.49 167.51 90.73 Z M 166.54 91.01 L 165.58 91.29 C 164.75 91.53 164.28 92.40 164.52 93.23 C 164.76 94.06 165.62 94.53 166.45 94.29 L 167.41 94.01 C 168.24 93.77 168.72 92.91 168.48 92.08 C 168.24 91.25 167.37 90.77 166.54 91.01 Z M 165.59 91.29 L 164.61 91.57 C 163.78 91.81 163.30 92.67 163.54 93.50 C 163.77 94.33 164.64 94.81 165.47 94.57 L 166.44 94.29 C 167.27 94.06 167.75 93.19 167.52 92.37 C 167.28 91.54 166.42 91.06 165.59 91.29 Z M 164.62 91.57 L 163.64 91.84 C 162.81 92.07 162.33 92.94 162.56 93.77 C 162.79 94.60 163.66 95.08 164.49 94.85 L 165.46 94.57 C 166.29 94.34 166.77 93.48 166.54 92.65 C 166.31 91.82 165.45 91.34 164.62 91.57 Z M 163.65 91.84 L 162.69 92.10 C 161.86 92.33 161.37 93.19 161.60 94.03 C 161.83 94.86 162.69 95.34 163.52 95.11 L 164.48 94.85 C 165.31 94.62 165.80 93.76 165.57 92.93 C 165.34 92.10 164.48 91.61 163.65 91.84 Z M 162.69 92.10 L 161.74 92.36 C 160.91 92.59 160.42 93.45 160.65 94.28 C 160.87 95.11 161.73 95.60 162.56 95.38 L 163.51 95.12 C 164.35 94.89 164.84 94.03 164.61 93.20 C 164.38 92.37 163.53 91.88 162.69 92.10 Z M 161.74 92.36 L 160.79 92.62 C 159.96 92.84 159.47 93.70 159.69 94.53 C 159.92 95.37 160.77 95.86 161.61 95.63 L 162.56 95.38 C 163.39 95.15 163.88 94.30 163.66 93.46 C 163.43 92.63 162.58 92.14 161.74 92.36 Z M 160.79 92.62 L 159.83 92.88 C 158.99 93.10 158.50 93.96 158.72 94.79 C 158.95 95.62 159.80 96.12 160.64 95.89 L 161.60 95.63 C 162.44 95.41 162.93 94.55 162.71 93.72 C 162.48 92.89 161.63 92.40 160.79 92.62 Z M 159.83 92.88 L 158.86 93.14 C 158.02 93.36 157.53 94.22 157.75 95.05 C 157.98 95.88 158.83 96.38 159.66 96.15 L 160.63 95.89 C 161.47 95.67 161.96 94.82 161.74 93.98 C 161.52 93.15 160.66 92.65 159.83 92.88 Z M 158.86 93.14 L 157.89 93.40 C 157.06 93.62 156.56 94.48 156.78 95.31 C 157.01 96.14 157.86 96.64 158.70 96.41 L 159.66 96.15 C 160.50 95.93 160.99 95.07 160.77 94.24 C 160.55 93.41 159.69 92.91 158.86 93.14 Z M 157.89 93.40 L 156.92 93.66 C 156.09 93.88 155.60 94.74 155.82 95.57 C 156.05 96.40 156.90 96.90 157.74 96.67 L 158.70 96.41 C 159.53 96.19 160.02 95.33 159.80 94.50 C 159.58 93.67 158.72 93.17 157.89 93.40 Z M 156.92 93.66 L 155.96 93.92 C 155.12 94.15 154.63 95.01 154.86 95.84 C 155.09 96.67 155.94 97.16 156.78 96.93 L 157.74 96.67 C 158.57 96.44 159.06 95.59 158.84 94.75 C 158.61 93.92 157.75 93.43 156.92 93.66 Z M 155.95 93.92 L 154.98 94.19 C 154.15 94.42 153.66 95.28 153.89 96.11 C 154.12 96.94 154.98 97.43 155.81 97.20 L 156.78 96.93 C 157.61 96.70 158.10 95.84 157.87 95.01 C 157.64 94.18 156.78 93.69 155.95 93.92 Z M 154.97 94.19 L 154.01 94.46 C 153.18 94.70 152.70 95.56 152.93 96.39 C 153.16 97.22 154.02 97.70 154.85 97.47 L 155.82 97.20 C 156.65 96.97 157.13 96.10 156.90 95.27 C 156.66 94.44 155.80 93.96 154.97 94.19 Z M 154.00 94.47 L 153.05 94.74 C 152.22 94.98 151.74 95.84 151.97 96.67 C 152.21 97.50 153.08 97.98 153.91 97.74 L 154.86 97.47 C 155.69 97.23 156.17 96.36 155.93 95.54 C 155.69 94.71 154.83 94.23 154.00 94.47 Z M 153.04 94.74 L 152.08 95.02 C 151.26 95.26 150.78 96.13 151.02 96.96 C 151.27 97.79 152.13 98.26 152.96 98.02 L 153.91 97.74 C 154.74 97.50 155.22 96.63 154.97 95.80 C 154.73 94.97 153.86 94.50 153.04 94.74 Z M 152.07 95.02 L 151.12 95.31 C 150.29 95.56 149.82 96.43 150.07 97.25 C 150.32 98.08 151.19 98.55 152.02 98.30 L 152.97 98.01 C 153.80 97.77 154.27 96.90 154.02 96.07 C 153.77 95.25 152.90 94.78 152.07 95.02 Z M 151.11 95.31 L 150.16 95.60 C 149.33 95.86 148.87 96.73 149.12 97.55 C 149.37 98.38 150.24 98.84 151.07 98.59 L 152.02 98.30 C 152.85 98.05 153.31 97.17 153.06 96.35 C 152.81 95.53 151.94 95.06 151.11 95.31 Z M 150.15 95.61 L 149.19 95.90 C 148.37 96.16 147.91 97.03 148.16 97.85 C 148.42 98.68 149.29 99.14 150.12 98.88 L 151.07 98.59 C 151.90 98.33 152.36 97.46 152.10 96.64 C 151.85 95.81 150.97 95.35 150.15 95.61 Z M 149.19 95.90 L 148.24 96.20 C 147.41 96.46 146.95 97.33 147.21 98.16 C 147.47 98.98 148.34 99.44 149.16 99.18 L 150.12 98.88 C 150.94 98.63 151.40 97.75 151.15 96.93 C 150.89 96.11 150.01 95.65 149.19 95.90 Z M 148.23 96.20 L 147.30 96.49 C 146.47 96.75 146.01 97.63 146.27 98.45 C 146.53 99.27 147.40 99.73 148.23 99.47 L 149.17 99.18 C 149.99 98.92 150.45 98.05 150.19 97.23 C 149.93 96.40 149.06 95.94 148.23 96.20 Z M 147.30 96.49 L 146.37 96.78 C 145.55 97.04 145.09 97.91 145.35 98.74 C 145.61 99.56 146.48 100.02 147.30 99.76 L 148.23 99.47 C 149.05 99.22 149.51 98.34 149.25 97.52 C 149.00 96.70 148.12 96.24 147.30 96.49 Z M 146.38 96.78 L 145.44 97.07 C 144.61 97.33 144.15 98.20 144.41 99.03 C 144.67 99.85 145.54 100.31 146.37 100.05 L 147.30 99.76 C 148.13 99.51 148.59 98.63 148.33 97.81 C 148.07 96.98 147.20 96.53 146.38 96.78 Z M 145.44 97.07 L 144.48 97.37 C 143.65 97.63 143.19 98.50 143.45 99.32 C 143.70 100.15 144.58 100.61 145.40 100.35 L 146.36 100.06 C 147.19 99.80 147.65 98.93 147.39 98.10 C 147.14 97.28 146.26 96.82 145.44 97.07 Z M 144.48 97.37 L 143.48 97.68 C 142.65 97.93 142.19 98.80 142.44 99.63 C 142.70 100.45 143.57 100.92 144.39 100.66 L 145.40 100.35 C 146.22 100.10 146.68 99.23 146.43 98.40 C 146.18 97.58 145.30 97.12 144.48 97.37 Z M 143.48 97.68 L 142.54 97.96 C 141.72 98.21 141.25 99.09 141.51 99.91 C 141.76 100.74 142.63 101.20 143.45 100.95 L 144.39 100.66 C 145.22 100.41 145.68 99.54 145.43 98.72 C 145.18 97.89 144.30 97.43 143.48 97.68 Z M 142.55 97.96 L 141.60 98.25 C 140.78 98.50 140.31 99.37 140.56 100.19 C 140.81 101.02 141.68 101.49 142.50 101.24 L 143.45 100.95 C 144.28 100.70 144.74 99.83 144.49 99.00 C 144.24 98.18 143.37 97.71 142.55 97.96 Z M 141.61 98.25 L 140.64 98.53 C 139.81 98.78 139.34 99.65 139.59 100.48 C 139.84 101.30 140.71 101.77 141.53 101.53 L 142.50 101.24 C 143.33 100.99 143.80 100.12 143.55 99.29 C 143.30 98.47 142.43 98.00 141.61 98.25 Z M 140.65 98.53 L 139.67 98.82 C 138.84 99.06 138.37 99.93 138.61 100.76 C 138.86 101.59 139.73 102.06 140.55 101.82 L 141.53 101.53 C 142.36 101.28 142.83 100.42 142.58 99.59 C 142.34 98.76 141.47 98.29 140.65 98.53 Z M 139.68 98.82 L 138.70 99.10 C 137.87 99.34 137.40 100.21 137.64 101.04 C 137.88 101.87 138.74 102.34 139.57 102.10 L 140.55 101.82 C 141.38 101.58 141.85 100.71 141.61 99.88 C 141.37 99.05 140.50 98.58 139.68 98.82 Z M 138.71 99.10 L 137.74 99.38 C 136.91 99.61 136.43 100.48 136.67 101.31 C 136.90 102.14 137.77 102.62 138.60 102.38 L 139.56 102.10 C 140.39 101.87 140.87 101.00 140.64 100.17 C 140.40 99.34 139.54 98.86 138.71 99.10 Z M 137.75 99.37 L 136.78 99.64 C 135.95 99.88 135.47 100.74 135.70 101.57 C 135.93 102.40 136.79 102.88 137.62 102.65 L 138.59 102.38 C 139.42 102.15 139.90 101.29 139.67 100.46 C 139.44 99.63 138.58 99.14 137.75 99.37 Z M 136.79 99.64 L 135.83 99.90 C 135.00 100.13 134.51 100.99 134.74 101.82 C 134.97 102.65 135.83 103.14 136.66 102.92 L 137.62 102.65 C 138.45 102.43 138.94 101.57 138.71 100.74 C 138.48 99.90 137.62 99.41 136.79 99.64 Z M 135.84 99.90 L 134.88 100.16 C 134.05 100.38 133.56 101.24 133.78 102.07 C 134.00 102.90 134.86 103.40 135.69 103.18 L 136.65 102.92 C 137.48 102.69 137.98 101.84 137.75 101.01 C 137.53 100.17 136.67 99.68 135.84 99.90 Z M 134.89 100.16 L 133.92 100.41 C 133.09 100.63 132.59 101.48 132.81 102.32 C 133.03 103.15 133.88 103.65 134.72 103.43 L 135.68 103.18 C 136.52 102.96 137.02 102.10 136.80 101.27 C 136.58 100.44 135.72 99.94 134.89 100.16 Z M 133.93 100.41 L 132.96 100.66 C 132.13 100.87 131.63 101.72 131.84 102.56 C 132.06 103.39 132.91 103.90 133.74 103.68 L 134.71 103.43 C 135.54 103.22 136.05 102.37 135.83 101.53 C 135.62 100.70 134.76 100.19 133.93 100.41 Z M 132.97 100.66 L 132.03 100.90 C 131.19 101.11 130.68 101.96 130.90 102.79 C 131.11 103.63 131.96 104.13 132.79 103.92 L 133.74 103.68 C 134.57 103.47 135.08 102.62 134.87 101.79 C 134.66 100.95 133.81 100.45 132.97 100.66 Z M 132.03 100.89 L 131.07 101.13 C 130.24 101.34 129.73 102.19 129.94 103.03 C 130.15 103.86 130.99 104.37 131.83 104.16 L 132.79 103.92 C 133.62 103.71 134.13 102.87 133.92 102.03 C 133.71 101.19 132.87 100.69 132.03 100.89 Z M 131.07 101.13 L 130.10 101.38 C 129.26 101.58 128.76 102.43 128.96 103.27 C 129.17 104.10 130.02 104.61 130.85 104.41 L 131.83 104.16 C 132.66 103.96 133.17 103.11 132.97 102.27 C 132.76 101.44 131.91 100.93 131.07 101.13 Z M 130.10 101.38 L 129.12 101.62 C 128.28 101.83 127.77 102.67 127.98 103.51 C 128.19 104.35 129.03 104.86 129.87 104.65 L 130.85 104.41 C 131.69 104.20 132.20 103.35 131.99 102.51 C 131.79 101.68 130.94 101.17 130.10 101.38 Z M 129.12 101.62 L 128.12 101.87 C 127.28 102.08 126.78 102.92 126.98 103.76 C 127.19 104.60 128.04 105.11 128.88 104.90 L 129.87 104.65 C 130.71 104.44 131.22 103.59 131.01 102.76 C 130.80 101.92 129.95 101.41 129.12 101.62 Z M 128.12 101.87 L 127.15 102.11 C 126.32 102.32 125.81 103.17 126.02 104.00 C 126.23 104.84 127.07 105.35 127.91 105.14 L 128.88 104.90 C 129.71 104.69 130.22 103.84 130.01 103.00 C 129.80 102.17 128.96 101.66 128.12 101.87 Z M 127.15 102.11 L 126.19 102.35 C 125.35 102.57 124.84 103.41 125.05 104.25 C 125.27 105.09 126.11 105.59 126.95 105.38 L 127.91 105.14 C 128.75 104.93 129.26 104.08 129.04 103.24 C 128.83 102.41 127.98 101.90 127.15 102.11 Z M 126.18 102.35 L 125.22 102.60 C 124.38 102.81 123.87 103.66 124.09 104.50 C 124.30 105.33 125.15 105.84 125.98 105.63 L 126.95 105.38 C 127.79 105.17 128.29 104.32 128.08 103.48 C 127.87 102.65 127.02 102.14 126.18 102.35 Z M 125.21 102.60 L 124.24 102.85 C 123.41 103.06 122.90 103.91 123.11 104.75 C 123.33 105.58 124.18 106.09 125.01 105.87 L 125.99 105.63 C 126.82 105.41 127.33 104.56 127.11 103.73 C 126.90 102.89 126.05 102.39 125.21 102.60 Z M 124.24 102.85 L 123.27 103.10 C 122.43 103.31 121.93 104.16 122.14 105.00 C 122.35 105.83 123.20 106.34 124.04 106.12 L 125.01 105.87 C 125.85 105.66 126.35 104.81 126.14 103.98 C 125.93 103.14 125.08 102.64 124.24 102.85 Z M 123.27 103.10 L 122.29 103.35 C 121.45 103.56 120.95 104.41 121.16 105.25 C 121.38 106.08 122.23 106.59 123.06 106.37 L 124.04 106.12 C 124.87 105.91 125.38 105.06 125.17 104.22 C 124.95 103.39 124.10 102.88 123.27 103.10 Z M 122.29 103.35 L 121.30 103.60 C 120.47 103.81 119.96 104.66 120.18 105.50 C 120.39 106.34 121.24 106.84 122.08 106.63 L 123.06 106.37 C 123.90 106.16 124.40 105.31 124.19 104.47 C 123.97 103.64 123.12 103.13 122.29 103.35 Z M 121.30 103.60 L 120.32 103.85 C 119.48 104.07 118.98 104.92 119.20 105.75 C 119.41 106.59 120.26 107.09 121.10 106.88 L 122.08 106.62 C 122.91 106.41 123.42 105.56 123.20 104.72 C 122.99 103.89 122.14 103.39 121.30 103.60 Z M 120.32 103.85 L 119.34 104.11 C 118.51 104.32 118.00 105.17 118.22 106.01 C 118.44 106.84 119.29 107.34 120.12 107.13 L 121.10 106.88 C 121.93 106.66 122.43 105.81 122.22 104.97 C 122.00 104.14 121.15 103.64 120.32 103.85 Z M 119.34 104.11 L 118.37 104.36 C 117.54 104.58 117.04 105.43 117.25 106.26 C 117.47 107.10 118.32 107.60 119.16 107.38 L 120.13 107.13 C 120.96 106.91 121.46 106.06 121.24 105.22 C 121.02 104.39 120.17 103.89 119.34 104.11 Z M 118.36 104.36 L 117.41 104.61 C 116.58 104.83 116.08 105.69 116.30 106.52 C 116.52 107.36 117.38 107.85 118.21 107.63 L 119.16 107.38 C 120.00 107.16 120.49 106.30 120.27 105.47 C 120.05 104.64 119.20 104.14 118.36 104.36 Z M 117.40 104.62 L 116.46 104.87 C 115.63 105.10 115.13 105.95 115.36 106.78 C 115.58 107.62 116.44 108.11 117.27 107.89 L 118.22 107.63 C 119.05 107.41 119.54 106.55 119.32 105.72 C 119.09 104.88 118.24 104.39 117.40 104.62 Z M 116.45 104.87 L 115.46 105.15 C 114.63 105.37 114.14 106.23 114.37 107.07 C 114.60 107.90 115.46 108.38 116.29 108.16 L 117.28 107.88 C 118.11 107.65 118.60 106.79 118.37 105.96 C 118.14 105.13 117.28 104.64 116.45 104.87 Z M 115.45 105.15 L 114.48 105.42 C 113.65 105.66 113.17 106.52 113.40 107.35 C 113.64 108.18 114.50 108.66 115.33 108.43 L 116.30 108.15 C 117.13 107.92 117.61 107.06 117.38 106.23 C 117.15 105.40 116.28 104.91 115.45 105.15 Z M 114.47 105.42 L 113.52 105.70 C 112.69 105.94 112.21 106.80 112.45 107.63 C 112.69 108.46 113.55 108.94 114.38 108.70 L 115.34 108.42 C 116.17 108.19 116.65 107.32 116.41 106.49 C 116.17 105.66 115.30 105.19 114.47 105.42 Z M 113.51 105.70 L 112.56 105.98 C 111.74 106.22 111.26 107.09 111.50 107.92 C 111.75 108.74 112.62 109.22 113.44 108.98 L 114.39 108.70 C 115.22 108.45 115.69 107.59 115.45 106.76 C 115.20 105.93 114.34 105.46 113.51 105.70 Z M 112.56 105.98 L 111.61 106.26 C 110.79 106.51 110.32 107.38 110.57 108.21 C 110.81 109.03 111.68 109.50 112.51 109.25 L 113.45 108.97 C 114.28 108.73 114.75 107.86 114.50 107.03 C 114.25 106.20 113.38 105.73 112.56 105.98 Z M 111.61 106.27 L 110.61 106.57 C 109.78 106.82 109.32 107.69 109.57 108.52 C 109.82 109.34 110.69 109.81 111.52 109.56 L 112.52 109.25 C 113.34 109.00 113.81 108.13 113.55 107.30 C 113.30 106.48 112.43 106.01 111.61 106.27 Z M 110.60 106.57 L 109.60 106.88 C 108.78 107.14 108.31 108.01 108.57 108.83 C 108.83 109.66 109.70 110.12 110.52 109.86 L 111.53 109.55 C 112.35 109.30 112.81 108.42 112.55 107.60 C 112.30 106.78 111.43 106.32 110.60 106.57 Z M 109.59 106.88 L 108.62 107.19 C 107.79 107.45 107.34 108.33 107.60 109.15 C 107.86 109.97 108.73 110.43 109.56 110.17 L 110.53 109.86 C 111.35 109.60 111.81 108.72 111.55 107.90 C 111.29 107.08 110.41 106.62 109.59 106.88 Z M 108.61 107.20 L 107.67 107.50 C 106.85 107.76 106.40 108.64 106.67 109.46 C 106.93 110.28 107.81 110.73 108.63 110.47 L 109.57 110.17 C 110.39 109.90 110.84 109.02 110.57 108.20 C 110.31 107.38 109.43 106.93 108.61 107.20 Z M 107.66 107.50 L 106.79 107.79 C 105.97 108.06 105.52 108.95 105.80 109.76 C 106.07 110.58 106.95 111.03 107.77 110.75 L 108.64 110.46 C 109.46 110.19 109.91 109.31 109.63 108.49 C 109.36 107.67 108.48 107.23 107.66 107.50 Z M 106.77 107.80 L 105.83 108.12 C 105.01 108.40 104.58 109.29 104.86 110.10 C 105.14 110.92 106.03 111.35 106.84 111.07 L 107.79 110.75 C 108.60 110.47 109.03 109.58 108.75 108.77 C 108.47 107.95 107.58 107.52 106.77 107.80 Z M 105.80 108.13 L 104.89 108.46 C 104.08 108.75 103.67 109.65 103.96 110.46 C 104.25 111.27 105.15 111.69 105.96 111.39 L 106.87 111.06 C 107.68 110.77 108.10 109.87 107.80 109.06 C 107.51 108.25 106.61 107.84 105.80 108.13 Z M 104.86 108.47 L 103.96 108.82 C 103.16 109.13 102.76 110.03 103.07 110.84 C 103.38 111.64 104.29 112.04 105.09 111.73 L 105.99 111.38 C 106.79 111.07 107.19 110.17 106.88 109.36 C 106.57 108.56 105.67 108.16 104.86 108.47 Z M 103.93 108.83 L 102.98 109.22 C 102.19 109.55 101.81 110.46 102.14 111.26 C 102.46 112.06 103.38 112.44 104.17 112.11 L 105.12 111.72 C 105.92 111.39 106.30 110.48 105.97 109.68 C 105.64 108.88 104.73 108.50 103.93 108.83 Z M 102.96 109.23 L 102.07 109.61 C 101.28 109.96 100.92 110.88 101.26 111.67 C 101.60 112.46 102.52 112.82 103.31 112.48 L 104.20 112.10 C 104.99 111.76 105.35 110.84 105.01 110.05 C 104.67 109.26 103.75 108.89 102.96 109.23 Z M 102.06 109.62 L 101.17 110.02 C 100.38 110.37 100.03 111.29 100.38 112.08 C 100.73 112.87 101.65 113.22 102.44 112.87 L 103.33 112.47 C 104.12 112.12 104.47 111.20 104.12 110.41 C 103.77 109.62 102.84 109.27 102.06 109.62 Z M 101.15 110.03 L 100.23 110.45 C 99.44 110.81 99.10 111.74 99.46 112.52 C 99.82 113.31 100.75 113.65 101.53 113.29 L 102.46 112.86 C 103.24 112.50 103.58 111.58 103.22 110.79 C 102.86 110.01 101.93 109.67 101.15 110.03 Z M 100.21 110.46 L 99.27 110.91 C 98.49 111.28 98.16 112.21 98.53 112.99 C 98.90 113.76 99.83 114.10 100.61 113.73 L 101.55 113.28 C 102.33 112.91 102.66 111.98 102.29 111.20 C 101.92 110.42 100.99 110.09 100.21 110.46 Z M 99.26 110.91 L 98.33 111.37 C 97.56 111.75 97.24 112.68 97.62 113.46 C 98.00 114.23 98.93 114.55 99.71 114.17 L 100.63 113.72 C 101.41 113.34 101.72 112.40 101.34 111.63 C 100.96 110.85 100.03 110.53 99.26 110.91 Z M 98.31 111.38 L 97.35 111.87 C 96.58 112.26 96.28 113.20 96.67 113.97 C 97.06 114.74 98.00 115.04 98.77 114.65 L 99.73 114.16 C 100.50 113.77 100.80 112.83 100.41 112.06 C 100.02 111.29 99.08 110.99 98.31 111.38 Z M 97.32 111.88 L 96.37 112.40 C 95.61 112.80 95.32 113.75 95.73 114.51 C 96.14 115.27 97.09 115.55 97.85 115.15 L 98.80 114.64 C 99.56 114.23 99.84 113.28 99.43 112.52 C 99.03 111.76 98.08 111.48 97.32 111.88 Z M 96.33 112.42 L 95.45 112.92 C 94.70 113.35 94.44 114.30 94.87 115.05 C 95.30 115.80 96.26 116.06 97.00 115.63 L 97.88 115.13 C 98.63 114.70 98.89 113.74 98.46 112.99 C 98.03 112.25 97.08 111.99 96.33 112.42 Z M 95.40 112.95 L 94.60 113.45 C 93.87 113.90 93.65 114.86 94.10 115.60 C 94.56 116.33 95.52 116.55 96.25 116.10 L 97.05 115.60 C 97.78 115.15 98.01 114.18 97.55 113.45 C 97.10 112.72 96.14 112.49 95.40 112.95 Z M 94.54 113.49 L 93.80 114.00 C 93.09 114.49 92.91 115.46 93.40 116.17 C 93.88 116.88 94.86 117.06 95.57 116.57 L 96.31 116.06 C 97.02 115.57 97.20 114.60 96.71 113.89 C 96.22 113.18 95.25 113.00 94.54 113.49 Z M 93.71 114.06 L 92.87 114.73 C 92.19 115.26 92.08 116.24 92.61 116.92 C 93.15 117.60 94.13 117.71 94.81 117.18 L 95.65 116.51 C 96.33 115.97 96.44 114.99 95.91 114.32 C 95.37 113.64 94.39 113.53 93.71 114.06 Z M 92.79 114.79 L 92.06 115.45 C 91.42 116.03 91.37 117.02 91.95 117.66 C 92.53 118.30 93.52 118.35 94.16 117.77 L 94.89 117.11 C 95.53 116.53 95.57 115.54 95.00 114.90 C 94.42 114.27 93.43 114.22 92.79 114.79 Z M 92.02 115.50 L 91.35 116.15 C 90.73 116.76 90.73 117.74 91.33 118.36 C 91.93 118.97 92.92 118.98 93.54 118.38 L 94.20 117.73 C 94.82 117.12 94.83 116.13 94.22 115.52 C 93.62 114.90 92.63 114.89 92.02 115.50 Z M 91.34 116.16 L 91.25 116.25 C 90.64 116.86 90.64 117.85 91.25 118.46 C 91.86 119.06 92.85 119.06 93.46 118.46 L 93.55 118.37 C 94.16 117.76 94.16 116.77 93.55 116.16 C 92.94 115.55 91.95 115.55 91.34 116.16 Z"
      fill="black"
      fill-rule="nonzero" /><path d="M 81.88 152.74 L 82.90 152.74 C 83.76 152.74 84.46 152.04 84.46 151.18 C 84.46 150.32 83.76 149.62 82.90 149.62 L 81.88 149.62 C 81.02 149.62 80.32 150.32 80.32 151.18 C 80.32 152.04 81.02 152.74 81.88 152.74 Z M 82.90 152.74 L 83.91 152.74 C 84.78 152.74 85.48 152.04 85.48 151.18 C 85.48 150.32 84.78 149.62 83.91 149.62 L 82.90 149.62 C 82.04 149.62 81.34 150.32 81.34 151.18 C 81.34 152.04 82.04 152.74 82.90 152.74 Z M 83.91 152.74 L 84.91 152.74 C 85.77 152.74 86.47 152.04 86.47 151.18 C 86.47 150.32 85.77 149.62 84.91 149.62 L 83.91 149.62 C 83.05 149.62 82.35 150.32 82.35 151.18 C 82.35 152.04 83.05 152.74 83.91 152.74 Z M 84.91 152.74 L 85.88 152.74 C 86.74 152.74 87.44 152.04 87.44 151.18 C 87.44 150.32 86.74 149.62 85.88 149.62 L 84.91 149.62 C 84.05 149.62 83.35 150.32 83.35 151.18 C 83.35 152.04 84.05 152.74 84.91 152.74 Z M 85.88 152.74 L 86.88 152.74 C 87.74 152.74 88.44 152.04 88.44 151.18 C 88.44 150.32 87.74 149.62 86.88 149.62 L 85.88 149.62 C 85.02 149.62 84.32 150.32 84.32 151.18 C 84.32 152.04 85.02 152.74 85.88 152.74 Z M 86.88 152.74 L 87.86 152.74 C 88.73 152.74 89.43 152.04 89.43 151.18 C 89.43 150.32 88.73 149.62 87.86 149.62 L 86.88 149.62 C 86.02 149.62 85.32 150.32 85.32 151.18 C 85.32 152.04 86.02 152.74 86.88 152.74 Z M 87.86 152.74 L 88.86 152.74 C 89.72 152.74 90.42 152.04 90.42 151.18 C 90.42 150.32 89.72 149.62 88.86 149.62 L 87.86 149.62 C 87.00 149.62 86.30 150.32 86.30 151.18 C 86.30 152.04 87.00 152.74 87.86 152.74 Z M 88.86 152.74 L 89.87 152.74 C 90.73 152.74 91.43 152.04 91.43 151.18 C 91.43 150.32 90.73 149.62 89.87 149.62 L 88.86 149.62 C 88.00 149.62 87.30 150.32 87.30 151.18 C 87.30 152.04 88.00 152.74 88.86 152.74 Z M 89.87 152.74 L 90.84 152.74 C 91.71 152.74 92.40 152.04 92.40 151.18 C 92.40 150.32 91.70 149.62 90.84 149.62 L 89.87 149.62 C 89.01 149.62 88.31 150.32 88.31 151.18 C 88.31 152.04 89.01 152.74 89.87 152.74 Z M 90.85 152.74 L 91.85 152.74 C 92.71 152.73 93.41 152.03 93.40 151.17 C 93.40 150.30 92.69 149.61 91.83 149.61 L 90.83 149.62 C 89.97 149.62 89.28 150.32 89.28 151.19 C 89.28 152.05 89.99 152.74 90.85 152.74 Z M 91.86 152.74 L 92.88 152.72 C 93.74 152.71 94.43 152.00 94.42 151.14 C 94.41 150.28 93.70 149.59 92.84 149.60 L 91.82 149.61 C 90.96 149.62 90.27 150.33 90.28 151.19 C 90.29 152.06 91.00 152.75 91.86 152.74 Z M 92.89 152.72 L 93.92 152.70 C 94.78 152.68 95.46 151.96 95.44 151.10 C 95.42 150.24 94.71 149.56 93.84 149.58 L 92.82 149.60 C 91.96 149.62 91.28 150.34 91.30 151.20 C 91.32 152.06 92.03 152.74 92.89 152.72 Z M 93.94 152.70 L 94.92 152.66 C 95.78 152.63 96.46 151.90 96.42 151.04 C 96.39 150.18 95.67 149.51 94.81 149.54 L 93.82 149.58 C 92.96 149.61 92.29 150.33 92.32 151.20 C 92.35 152.06 93.08 152.73 93.94 152.70 Z M 94.94 152.66 L 95.93 152.61 C 96.79 152.57 97.45 151.83 97.41 150.97 C 97.36 150.11 96.63 149.45 95.77 149.49 L 94.78 149.54 C 93.92 149.59 93.26 150.32 93.30 151.18 C 93.35 152.04 94.08 152.70 94.94 152.66 Z M 95.95 152.61 L 96.94 152.54 C 97.80 152.49 98.45 151.75 98.40 150.89 C 98.34 150.03 97.60 149.37 96.74 149.43 L 95.75 149.49 C 94.89 149.55 94.23 150.29 94.29 151.15 C 94.34 152.01 95.09 152.66 95.95 152.61 Z M 96.96 152.54 L 97.98 152.47 C 98.84 152.40 99.48 151.65 99.41 150.79 C 99.35 149.93 98.60 149.29 97.74 149.35 L 96.72 149.43 C 95.86 149.50 95.22 150.25 95.28 151.11 C 95.35 151.97 96.10 152.61 96.96 152.54 Z M 97.99 152.46 L 98.97 152.38 C 99.83 152.30 100.46 151.55 100.39 150.69 C 100.31 149.83 99.55 149.19 98.70 149.27 L 97.72 149.35 C 96.86 149.43 96.23 150.19 96.30 151.04 C 96.38 151.90 97.13 152.54 97.99 152.46 Z M 98.98 152.38 L 99.93 152.29 C 100.79 152.20 101.42 151.44 101.33 150.58 C 101.25 149.73 100.49 149.10 99.63 149.18 L 98.68 149.27 C 97.82 149.35 97.19 150.11 97.28 150.97 C 97.36 151.83 98.12 152.46 98.98 152.38 Z M 99.94 152.29 L 100.92 152.19 C 101.78 152.10 102.40 151.33 102.31 150.47 C 102.23 149.62 101.46 148.99 100.60 149.08 L 99.62 149.18 C 98.76 149.27 98.14 150.03 98.23 150.89 C 98.31 151.75 99.08 152.37 99.94 152.29 Z M 100.92 152.19 L 101.94 152.08 C 102.79 151.99 103.41 151.22 103.32 150.36 C 103.23 149.50 102.46 148.88 101.61 148.97 L 100.59 149.08 C 99.74 149.17 99.12 149.94 99.21 150.80 C 99.30 151.66 100.07 152.28 100.92 152.19 Z M 101.94 152.08 L 102.99 151.96 C 103.84 151.87 104.46 151.10 104.37 150.24 C 104.28 149.38 103.50 148.76 102.65 148.86 L 101.60 148.97 C 100.74 149.07 100.13 149.84 100.22 150.70 C 100.31 151.55 101.08 152.17 101.94 152.08 Z M 102.99 151.96 L 103.97 151.85 C 104.82 151.76 105.44 150.99 105.35 150.13 C 105.25 149.27 104.48 148.66 103.62 148.75 L 102.64 148.86 C 101.79 148.95 101.17 149.73 101.27 150.58 C 101.36 151.44 102.13 152.06 102.99 151.96 Z M 103.97 151.85 L 104.90 151.75 C 105.76 151.65 106.38 150.88 106.28 150.02 C 106.18 149.17 105.41 148.55 104.55 148.65 L 103.62 148.75 C 102.76 148.85 102.15 149.62 102.24 150.48 C 102.34 151.33 103.11 151.95 103.97 151.85 Z M 104.91 151.75 L 105.87 151.64 C 106.72 151.54 107.34 150.77 107.24 149.91 C 107.15 149.05 106.37 148.44 105.51 148.54 L 104.55 148.65 C 103.69 148.74 103.08 149.52 103.18 150.37 C 103.27 151.23 104.05 151.85 104.91 151.75 Z M 105.87 151.64 L 106.87 151.52 C 107.72 151.42 108.34 150.65 108.24 149.79 C 108.14 148.94 107.36 148.32 106.51 148.42 L 105.51 148.54 C 104.66 148.64 104.04 149.41 104.14 150.27 C 104.24 151.12 105.01 151.74 105.87 151.64 Z M 106.87 151.52 L 107.90 151.40 C 108.75 151.30 109.36 150.52 109.26 149.67 C 109.16 148.81 108.39 148.20 107.53 148.30 L 106.50 148.42 C 105.65 148.52 105.03 149.30 105.14 150.15 C 105.24 151.01 106.01 151.62 106.87 151.52 Z M 107.90 151.40 L 108.96 151.27 C 109.82 151.17 110.43 150.39 110.33 149.54 C 110.22 148.68 109.45 148.07 108.59 148.17 L 107.53 148.30 C 106.67 148.40 106.06 149.18 106.16 150.04 C 106.27 150.89 107.04 151.50 107.90 151.40 Z M 108.97 151.27 L 109.94 151.15 C 110.79 151.05 111.40 150.27 111.30 149.41 C 111.19 148.56 110.41 147.95 109.56 148.05 L 108.59 148.17 C 107.73 148.28 107.12 149.06 107.23 149.91 C 107.33 150.77 108.11 151.38 108.97 151.27 Z M 109.94 151.15 L 110.87 151.04 C 111.73 150.93 112.34 150.15 112.23 149.29 C 112.12 148.44 111.34 147.83 110.49 147.94 L 109.56 148.05 C 108.70 148.16 108.09 148.94 108.20 149.80 C 108.31 150.65 109.09 151.26 109.94 151.15 Z M 110.88 151.04 L 111.83 150.91 C 112.69 150.81 113.29 150.02 113.19 149.17 C 113.08 148.31 112.30 147.71 111.44 147.82 L 110.48 147.94 C 109.63 148.05 109.02 148.83 109.13 149.68 C 109.24 150.54 110.02 151.14 110.88 151.04 Z M 111.84 150.91 L 112.82 150.79 C 113.67 150.68 114.28 149.89 114.17 149.04 C 114.06 148.18 113.27 147.58 112.42 147.69 L 111.44 147.82 C 110.58 147.93 109.98 148.71 110.09 149.57 C 110.20 150.42 110.98 151.02 111.84 150.91 Z M 112.82 150.79 L 113.83 150.66 C 114.68 150.54 115.28 149.76 115.17 148.90 C 115.06 148.05 114.28 147.45 113.42 147.56 L 112.42 147.69 C 111.56 147.80 110.96 148.59 111.07 149.44 C 111.18 150.30 111.97 150.90 112.82 150.79 Z M 113.83 150.65 L 114.86 150.52 C 115.71 150.40 116.32 149.62 116.20 148.76 C 116.09 147.91 115.30 147.31 114.45 147.42 L 113.42 147.56 C 112.56 147.67 111.96 148.46 112.08 149.31 C 112.19 150.17 112.98 150.77 113.83 150.65 Z M 114.86 150.52 L 115.92 150.38 C 116.77 150.26 117.37 149.47 117.25 148.62 C 117.14 147.77 116.35 147.17 115.50 147.28 L 114.45 147.42 C 113.59 147.54 112.99 148.32 113.11 149.18 C 113.22 150.03 114.01 150.63 114.86 150.52 Z M 115.92 150.38 L 116.92 150.24 C 117.77 150.12 118.37 149.33 118.25 148.48 C 118.14 147.63 117.35 147.03 116.50 147.14 L 115.50 147.28 C 114.64 147.40 114.04 148.19 114.16 149.04 C 114.28 149.89 115.06 150.49 115.92 150.38 Z M 116.92 150.24 L 117.85 150.11 C 118.70 149.99 119.30 149.20 119.18 148.35 C 119.06 147.50 118.27 146.90 117.42 147.02 L 116.49 147.15 C 115.64 147.26 115.04 148.05 115.16 148.91 C 115.28 149.76 116.07 150.36 116.92 150.24 Z M 117.85 150.11 L 118.79 149.98 C 119.65 149.86 120.24 149.07 120.12 148.22 C 120.01 147.36 119.22 146.77 118.36 146.89 L 117.42 147.02 C 116.56 147.14 115.97 147.92 116.09 148.78 C 116.21 149.63 116.99 150.23 117.85 150.11 Z M 118.79 149.98 L 119.76 149.84 C 120.61 149.73 121.21 148.94 121.09 148.08 C 120.97 147.23 120.18 146.63 119.32 146.75 L 118.36 146.89 C 117.51 147.01 116.91 147.79 117.03 148.65 C 117.15 149.50 117.94 150.10 118.79 149.98 Z M 119.76 149.84 L 120.74 149.71 C 121.59 149.59 122.19 148.80 122.07 147.94 C 121.95 147.09 121.16 146.50 120.31 146.61 L 119.32 146.75 C 118.47 146.87 117.87 147.66 117.99 148.51 C 118.11 149.37 118.90 149.96 119.76 149.84 Z M 120.74 149.71 L 121.74 149.57 C 122.59 149.45 123.19 148.66 123.07 147.81 C 122.95 146.95 122.16 146.36 121.31 146.47 L 120.31 146.61 C 119.45 146.73 118.86 147.52 118.98 148.38 C 119.09 149.23 119.88 149.83 120.74 149.71 Z M 121.74 149.57 L 122.76 149.42 C 123.62 149.31 124.21 148.52 124.09 147.66 C 123.97 146.81 123.19 146.21 122.33 146.33 L 121.31 146.47 C 120.45 146.59 119.86 147.38 119.98 148.24 C 120.10 149.09 120.89 149.69 121.74 149.57 Z M 122.76 149.42 L 123.81 149.28 C 124.66 149.16 125.26 148.37 125.14 147.52 C 125.02 146.67 124.23 146.07 123.38 146.19 L 122.33 146.33 C 121.48 146.45 120.88 147.24 121.00 148.09 C 121.12 148.95 121.91 149.54 122.76 149.42 Z M 123.80 149.28 L 124.87 149.13 C 125.73 149.02 126.32 148.23 126.21 147.37 C 126.09 146.52 125.30 145.92 124.45 146.04 L 123.38 146.19 C 122.53 146.30 121.93 147.09 122.05 147.95 C 122.16 148.80 122.95 149.40 123.80 149.28 Z M 124.87 149.13 L 125.84 149.00 C 126.70 148.88 127.30 148.10 127.18 147.24 C 127.06 146.39 126.28 145.79 125.42 145.91 L 124.45 146.04 C 123.59 146.16 123.00 146.94 123.11 147.80 C 123.23 148.65 124.02 149.25 124.87 149.13 Z M 125.84 149.00 L 126.82 148.87 C 127.68 148.75 128.27 147.97 128.16 147.11 C 128.04 146.26 127.26 145.66 126.40 145.77 L 125.42 145.91 C 124.57 146.02 123.97 146.81 124.09 147.66 C 124.20 148.52 124.99 149.12 125.84 149.00 Z M 126.82 148.87 L 127.81 148.73 C 128.67 148.62 129.26 147.83 129.15 146.98 C 129.03 146.12 128.25 145.52 127.39 145.64 L 126.40 145.77 C 125.55 145.89 124.95 146.68 125.06 147.53 C 125.18 148.39 125.97 148.98 126.82 148.87 Z M 127.81 148.73 L 128.81 148.60 C 129.66 148.48 130.26 147.70 130.15 146.84 C 130.03 145.99 129.24 145.39 128.39 145.50 L 127.39 145.64 C 126.54 145.76 125.94 146.54 126.05 147.40 C 126.17 148.25 126.96 148.85 127.81 148.73 Z M 128.81 148.60 L 129.81 148.46 C 130.67 148.34 131.27 147.56 131.15 146.70 C 131.03 145.85 130.25 145.25 129.39 145.37 L 128.39 145.51 C 127.53 145.62 126.94 146.41 127.05 147.26 C 127.17 148.12 127.96 148.72 128.81 148.60 Z M 129.82 148.46 L 130.82 148.32 C 131.68 148.21 132.27 147.42 132.15 146.56 C 132.04 145.71 131.25 145.11 130.39 145.23 L 129.39 145.37 C 128.54 145.49 127.94 146.27 128.06 147.13 C 128.17 147.98 128.96 148.58 129.82 148.46 Z M 130.82 148.32 L 131.83 148.18 C 132.68 148.06 133.28 147.27 133.16 146.42 C 133.04 145.57 132.25 144.97 131.39 145.09 L 130.39 145.23 C 129.54 145.35 128.94 146.14 129.06 146.99 C 129.18 147.85 129.97 148.44 130.82 148.32 Z M 131.83 148.18 L 132.82 148.04 C 133.68 147.92 134.27 147.13 134.15 146.28 C 134.03 145.42 133.24 144.83 132.39 144.95 L 131.39 145.09 C 130.54 145.21 129.94 146.00 130.06 146.86 C 130.19 147.71 130.98 148.30 131.83 148.18 Z M 132.83 148.04 L 133.82 147.90 C 134.67 147.77 135.26 146.98 135.14 146.13 C 135.01 145.28 134.22 144.68 133.37 144.81 L 132.38 144.95 C 131.53 145.07 130.94 145.87 131.06 146.72 C 131.18 147.57 131.98 148.16 132.83 148.04 Z M 133.82 147.90 L 134.82 147.75 C 135.67 147.62 136.26 146.83 136.13 145.98 C 136.01 145.12 135.21 144.53 134.36 144.66 L 133.36 144.81 C 132.51 144.93 131.92 145.73 132.05 146.58 C 132.17 147.43 132.97 148.02 133.82 147.90 Z M 134.82 147.75 L 135.86 147.59 C 136.72 147.46 137.30 146.66 137.17 145.81 C 137.04 144.96 136.25 144.37 135.39 144.50 L 134.35 144.66 C 133.50 144.79 132.91 145.59 133.04 146.44 C 133.17 147.29 133.97 147.88 134.82 147.75 Z M 135.87 147.59 L 136.89 147.43 C 137.74 147.30 138.33 146.50 138.19 145.64 C 138.06 144.79 137.26 144.21 136.41 144.34 L 135.39 144.50 C 134.53 144.64 133.95 145.44 134.08 146.29 C 134.22 147.14 135.02 147.72 135.87 147.59 Z M 136.90 147.43 L 137.90 147.27 C 138.76 147.13 139.34 146.33 139.20 145.48 C 139.06 144.63 138.26 144.05 137.41 144.18 L 136.40 144.34 C 135.55 144.48 134.97 145.28 135.11 146.13 C 135.24 146.99 136.05 147.57 136.90 147.43 Z M 137.91 147.27 L 138.90 147.10 C 139.75 146.96 140.33 146.16 140.19 145.31 C 140.05 144.46 139.25 143.88 138.39 144.02 L 137.40 144.18 C 136.55 144.32 135.98 145.13 136.12 145.98 C 136.26 146.83 137.06 147.41 137.91 147.27 Z M 138.91 147.10 L 139.89 146.94 C 140.74 146.79 141.31 145.99 141.17 145.14 C 141.02 144.29 140.22 143.71 139.37 143.86 L 138.39 144.02 C 137.54 144.16 136.96 144.97 137.11 145.82 C 137.25 146.67 138.06 147.25 138.91 147.10 Z M 139.89 146.94 L 140.86 146.77 C 141.71 146.62 142.28 145.81 142.13 144.96 C 141.98 144.11 141.18 143.54 140.33 143.69 L 139.36 143.86 C 138.51 144.00 137.94 144.81 138.09 145.66 C 138.23 146.51 139.04 147.08 139.89 146.94 Z M 140.86 146.77 L 141.82 146.60 C 142.67 146.45 143.23 145.64 143.08 144.79 C 142.93 143.94 142.12 143.37 141.27 143.52 L 140.32 143.69 C 139.47 143.84 138.90 144.65 139.05 145.50 C 139.20 146.35 140.01 146.92 140.86 146.77 Z M 141.82 146.60 L 142.77 146.43 C 143.62 146.28 144.18 145.46 144.03 144.61 C 143.87 143.76 143.06 143.20 142.21 143.35 L 141.27 143.52 C 140.42 143.68 139.85 144.49 140.01 145.34 C 140.16 146.19 140.97 146.75 141.82 146.60 Z M 142.77 146.43 L 143.74 146.25 C 144.59 146.09 145.15 145.28 145.00 144.43 C 144.84 143.58 144.02 143.02 143.18 143.18 L 142.21 143.35 C 141.36 143.51 140.80 144.32 140.95 145.17 C 141.11 146.02 141.92 146.58 142.77 146.43 Z M 143.75 146.25 L 144.75 146.06 C 145.60 145.90 146.16 145.08 146.00 144.24 C 145.84 143.39 145.02 142.83 144.18 142.99 L 143.17 143.18 C 142.32 143.34 141.76 144.15 141.92 145.00 C 142.08 145.85 142.90 146.41 143.75 146.25 Z M 144.76 146.06 L 145.76 145.87 C 146.60 145.71 147.16 144.89 147.00 144.04 C 146.84 143.19 146.02 142.63 145.17 142.80 L 144.17 142.99 C 143.32 143.15 142.77 143.97 142.93 144.82 C 143.09 145.67 143.91 146.22 144.76 146.06 Z M 145.76 145.87 L 146.75 145.67 C 147.60 145.51 148.15 144.69 147.99 143.84 C 147.82 142.99 147.00 142.44 146.15 142.60 L 145.16 142.80 C 144.31 142.96 143.76 143.79 143.93 144.63 C 144.09 145.48 144.91 146.03 145.76 145.87 Z M 146.76 145.67 L 147.74 145.48 C 148.59 145.31 149.13 144.48 148.96 143.64 C 148.79 142.79 147.97 142.24 147.12 142.41 L 146.14 142.61 C 145.30 142.78 144.75 143.60 144.92 144.45 C 145.09 145.29 145.91 145.84 146.76 145.67 Z M 147.75 145.48 L 148.72 145.28 C 149.56 145.10 150.11 144.28 149.94 143.43 C 149.76 142.58 148.94 142.04 148.09 142.21 L 147.12 142.41 C 146.27 142.58 145.72 143.41 145.90 144.26 C 146.07 145.10 146.90 145.65 147.75 145.48 Z M 148.73 145.28 L 149.69 145.07 C 150.54 144.89 151.08 144.06 150.90 143.22 C 150.72 142.37 149.89 141.83 149.05 142.01 L 148.08 142.21 C 147.23 142.39 146.69 143.22 146.87 144.07 C 147.05 144.91 147.88 145.45 148.73 145.28 Z M 149.70 145.07 L 150.66 144.86 C 151.50 144.68 152.04 143.85 151.86 143.00 C 151.68 142.16 150.84 141.62 150.00 141.80 L 149.04 142.01 C 148.19 142.19 147.65 143.02 147.84 143.87 C 148.02 144.72 148.85 145.25 149.70 145.07 Z M 150.66 144.86 L 151.62 144.65 C 152.47 144.46 153.00 143.63 152.82 142.78 C 152.63 141.94 151.79 141.41 150.95 141.59 L 149.99 141.80 C 149.14 141.99 148.61 142.83 148.80 143.67 C 148.98 144.52 149.82 145.05 150.66 144.86 Z M 151.63 144.65 L 152.61 144.43 C 153.46 144.24 153.99 143.40 153.80 142.55 C 153.60 141.71 152.76 141.18 151.92 141.37 L 150.94 141.59 C 150.10 141.78 149.57 142.62 149.76 143.47 C 149.95 144.31 150.79 144.84 151.63 144.65 Z M 152.62 144.43 L 153.60 144.20 C 154.44 144.01 154.96 143.16 154.77 142.32 C 154.57 141.48 153.73 140.95 152.89 141.15 L 151.91 141.37 C 151.07 141.57 150.54 142.41 150.74 143.25 C 150.93 144.10 151.78 144.62 152.62 144.43 Z M 153.60 144.20 L 154.57 143.97 C 155.42 143.77 155.94 142.93 155.74 142.09 C 155.54 141.24 154.70 140.72 153.86 140.92 L 152.88 141.15 C 152.04 141.35 151.52 142.19 151.72 143.03 C 151.91 143.88 152.76 144.40 153.60 144.20 Z M 154.58 143.97 L 155.55 143.74 C 156.39 143.54 156.91 142.69 156.71 141.85 C 156.51 141.01 155.66 140.49 154.82 140.69 L 153.85 140.92 C 153.01 141.12 152.49 141.97 152.69 142.81 C 152.89 143.65 153.73 144.17 154.58 143.97 Z M 155.55 143.74 L 156.52 143.51 C 157.36 143.31 157.88 142.46 157.68 141.62 C 157.48 140.77 156.63 140.25 155.79 140.46 L 154.82 140.69 C 153.97 140.89 153.46 141.74 153.66 142.58 C 153.86 143.42 154.71 143.94 155.55 143.74 Z M 156.52 143.51 L 157.49 143.27 C 158.33 143.07 158.85 142.22 158.65 141.38 C 158.45 140.54 157.60 140.02 156.75 140.22 L 155.78 140.46 C 154.94 140.66 154.42 141.51 154.63 142.35 C 154.83 143.19 155.68 143.71 156.52 143.51 Z M 157.49 143.27 L 158.46 143.04 C 159.31 142.83 159.83 141.99 159.62 141.14 C 159.42 140.30 158.57 139.78 157.73 139.99 L 156.75 140.22 C 155.91 140.43 155.39 141.27 155.60 142.12 C 155.80 142.96 156.65 143.48 157.49 143.27 Z M 158.46 143.04 L 159.43 142.80 C 160.28 142.60 160.80 141.75 160.59 140.91 C 160.39 140.07 159.54 139.55 158.70 139.75 L 157.73 139.99 C 156.88 140.19 156.36 141.04 156.57 141.88 C 156.77 142.72 157.62 143.24 158.46 143.04 Z M 159.43 142.81 L 160.40 142.57 C 161.24 142.37 161.76 141.52 161.56 140.68 C 161.36 139.83 160.51 139.31 159.66 139.52 L 158.70 139.75 C 157.85 139.95 157.33 140.80 157.54 141.65 C 157.74 142.49 158.59 143.01 159.43 142.81 Z M 160.40 142.57 L 161.37 142.34 C 162.21 142.14 162.73 141.29 162.53 140.45 C 162.33 139.60 161.48 139.08 160.63 139.28 L 159.66 139.52 C 158.82 139.72 158.30 140.57 158.50 141.41 C 158.70 142.26 159.55 142.78 160.40 142.57 Z M 161.36 142.34 L 162.34 142.11 C 163.18 141.91 163.70 141.06 163.50 140.22 C 163.30 139.37 162.45 138.85 161.60 139.05 L 160.63 139.28 C 159.79 139.49 159.27 140.33 159.47 141.18 C 159.67 142.02 160.52 142.55 161.36 142.34 Z M 162.34 142.11 L 163.31 141.88 C 164.15 141.68 164.68 140.83 164.48 139.98 C 164.27 139.14 163.42 138.62 162.58 138.82 L 161.61 139.05 C 160.76 139.25 160.24 140.10 160.44 140.95 C 160.64 141.79 161.49 142.31 162.34 142.11 Z M 163.31 141.88 L 164.28 141.65 C 165.13 141.45 165.65 140.60 165.45 139.75 C 165.25 138.91 164.40 138.38 163.55 138.58 L 162.58 138.82 C 161.73 139.02 161.21 139.87 161.41 140.71 C 161.61 141.56 162.46 142.08 163.31 141.88 Z M 164.28 141.65 L 165.26 141.42 C 166.11 141.22 166.63 140.37 166.43 139.52 C 166.23 138.67 165.38 138.15 164.53 138.35 L 163.56 138.58 C 162.71 138.78 162.18 139.63 162.39 140.48 C 162.59 141.33 163.44 141.85 164.28 141.65 Z M 165.26 141.42 L 166.24 141.19 C 167.09 140.99 167.61 140.14 167.41 139.29 C 167.21 138.44 166.36 137.92 165.51 138.12 L 164.53 138.35 C 163.68 138.55 163.16 139.40 163.36 140.25 C 163.56 141.10 164.41 141.62 165.26 141.42 Z M 166.24 141.19 L 167.21 140.96 C 168.06 140.76 168.58 139.91 168.38 139.06 C 168.18 138.21 167.33 137.68 166.48 137.89 L 165.51 138.12 C 164.66 138.32 164.14 139.17 164.34 140.02 C 164.54 140.87 165.39 141.39 166.24 141.19 Z M 167.21 140.96 L 168.17 140.73 C 169.02 140.53 169.55 139.68 169.34 138.83 C 169.14 137.98 168.29 137.46 167.44 137.66 L 166.48 137.88 C 165.63 138.09 165.11 138.94 165.31 139.79 C 165.51 140.64 166.36 141.16 167.21 140.96 Z M 168.17 140.73 L 169.13 140.51 C 169.98 140.30 170.51 139.45 170.31 138.60 C 170.11 137.75 169.25 137.23 168.40 137.43 L 167.44 137.65 C 166.59 137.86 166.07 138.71 166.27 139.56 C 166.47 140.41 167.32 140.94 168.17 140.73 Z M 169.13 140.51 L 170.10 140.28 C 170.95 140.08 171.48 139.23 171.28 138.37 C 171.08 137.52 170.22 137.00 169.37 137.20 L 168.40 137.42 C 167.55 137.63 167.03 138.48 167.23 139.33 C 167.43 140.18 168.28 140.71 169.13 140.51 Z M 170.10 140.28 L 171.07 140.06 C 171.92 139.85 172.45 139.00 172.25 138.15 C 172.05 137.29 171.19 136.77 170.34 136.97 L 169.37 137.19 C 168.52 137.39 167.99 138.25 168.19 139.10 C 168.39 139.95 169.24 140.48 170.10 140.28 Z M 171.07 140.06 L 172.04 139.83 C 172.89 139.63 173.43 138.78 173.23 137.92 C 173.03 137.07 172.17 136.54 171.32 136.74 L 170.34 136.96 C 169.49 137.16 168.96 138.02 169.16 138.87 C 169.36 139.73 170.21 140.26 171.07 140.06 Z M 172.04 139.83 L 173.02 139.60 C 173.88 139.41 174.41 138.55 174.21 137.69 C 174.01 136.84 173.16 136.31 172.30 136.50 L 171.32 136.73 C 170.46 136.93 169.93 137.79 170.13 138.64 C 170.33 139.50 171.18 140.03 172.04 139.83 Z M 173.02 139.61 L 174.01 139.38 C 174.86 139.18 175.40 138.33 175.20 137.47 C 175.00 136.61 174.15 136.08 173.29 136.27 L 172.30 136.50 C 171.44 136.70 170.91 137.55 171.11 138.41 C 171.30 139.27 172.16 139.80 173.02 139.61 Z M 174.00 139.38 L 175.00 139.15 C 175.86 138.96 176.40 138.10 176.20 137.24 C 176.01 136.38 175.15 135.85 174.29 136.04 L 173.29 136.27 C 172.43 136.47 171.90 137.32 172.09 138.18 C 172.29 139.04 173.14 139.58 174.00 139.38 Z M 175.00 139.16 L 176.00 138.93 C 176.86 138.73 177.40 137.88 177.21 137.02 C 177.01 136.16 176.16 135.62 175.30 135.81 L 174.29 136.04 C 173.43 136.24 172.90 137.09 173.09 137.95 C 173.28 138.81 174.14 139.35 175.00 139.16 Z M 176.00 138.93 L 177.01 138.70 C 177.87 138.51 178.41 137.65 178.22 136.79 C 178.02 135.93 177.17 135.39 176.31 135.59 L 175.30 135.81 C 174.44 136.01 173.90 136.86 174.09 137.72 C 174.29 138.58 175.14 139.12 176.00 138.93 Z M 177.01 138.70 L 178.01 138.48 C 178.87 138.28 179.41 137.43 179.22 136.57 C 179.03 135.71 178.18 135.17 177.32 135.36 L 176.31 135.59 C 175.45 135.78 174.91 136.63 175.10 137.49 C 175.30 138.35 176.15 138.89 177.01 138.70 Z M 178.01 138.48 L 179.01 138.25 C 179.87 138.06 180.41 137.21 180.22 136.35 C 180.03 135.49 179.17 134.95 178.31 135.14 L 177.32 135.36 C 176.46 135.56 175.92 136.41 176.11 137.27 C 176.30 138.13 177.15 138.67 178.01 138.48 Z M 179.01 138.25 L 179.99 138.03 C 180.85 137.84 181.39 136.99 181.20 136.13 C 181.01 135.27 180.15 134.73 179.29 134.92 L 178.31 135.14 C 177.45 135.33 176.91 136.19 177.10 137.05 C 177.30 137.91 178.15 138.45 179.01 138.25 Z M 179.99 138.03 L 180.95 137.82 C 181.81 137.63 182.35 136.77 182.16 135.91 C 181.97 135.05 181.11 134.51 180.25 134.71 L 179.29 134.92 C 178.43 135.11 177.89 135.97 178.09 136.83 C 178.28 137.69 179.13 138.23 179.99 138.03 Z M 180.96 137.82 L 181.89 137.61 C 182.75 137.41 183.29 136.56 183.09 135.70 C 182.90 134.84 182.05 134.30 181.19 134.50 L 180.25 134.71 C 179.39 134.90 178.85 135.75 179.05 136.61 C 179.24 137.47 180.10 138.01 180.96 137.82 Z M 181.89 137.61 L 182.81 137.40 C 183.67 137.20 184.21 136.35 184.01 135.49 C 183.81 134.63 182.96 134.09 182.10 134.29 L 181.18 134.50 C 180.32 134.69 179.79 135.55 179.98 136.41 C 180.18 137.26 181.03 137.80 181.89 137.61 Z M 182.82 137.40 L 183.92 137.14 C 184.78 136.94 185.31 136.08 185.11 135.23 C 184.92 134.37 184.06 133.83 183.20 134.03 L 182.10 134.29 C 181.24 134.49 180.70 135.34 180.90 136.20 C 181.10 137.06 181.96 137.59 182.82 137.40 Z M 183.93 137.14 L 184.97 136.89 C 185.83 136.69 186.36 135.83 186.16 134.97 C 185.96 134.11 185.10 133.58 184.24 133.78 L 183.20 134.03 C 182.34 134.23 181.80 135.09 182.01 135.95 C 182.21 136.81 183.07 137.34 183.93 137.14 Z M 184.98 136.89 L 185.97 136.66 C 186.83 136.45 187.36 135.59 187.16 134.73 C 186.95 133.87 186.09 133.34 185.23 133.55 L 184.24 133.78 C 183.38 133.99 182.85 134.85 183.05 135.71 C 183.26 136.57 184.12 137.10 184.98 136.89 Z M 185.98 136.66 L 186.93 136.43 C 187.79 136.22 188.31 135.35 188.10 134.49 C 187.90 133.64 187.03 133.11 186.17 133.32 L 185.23 133.55 C 184.37 133.75 183.84 134.62 184.05 135.48 C 184.26 136.34 185.12 136.86 185.98 136.66 Z M 186.93 136.43 L 187.83 136.20 C 188.69 135.99 189.22 135.13 189.01 134.27 C 188.80 133.41 187.93 132.88 187.07 133.09 L 186.17 133.32 C 185.31 133.53 184.78 134.39 184.99 135.25 C 185.21 136.11 186.07 136.64 186.93 136.43 Z M 187.84 136.20 L 188.70 135.99 C 189.56 135.78 190.08 134.91 189.87 134.05 C 189.66 133.19 188.79 132.67 187.93 132.88 L 187.07 133.09 C 186.21 133.31 185.68 134.18 185.90 135.04 C 186.11 135.89 186.98 136.42 187.84 136.20 Z M 188.71 135.99 L 189.65 135.75 C 190.51 135.54 191.03 134.67 190.82 133.81 C 190.60 132.95 189.73 132.43 188.87 132.64 L 187.93 132.88 C 187.07 133.10 186.55 133.97 186.76 134.83 C 186.98 135.68 187.85 136.21 188.71 135.99 Z M 189.66 135.75 L 190.62 135.51 C 191.48 135.29 191.99 134.41 191.77 133.56 C 191.55 132.70 190.68 132.18 189.82 132.40 L 188.86 132.64 C 188.01 132.86 187.49 133.74 187.71 134.60 C 187.93 135.45 188.80 135.97 189.66 135.75 Z M 190.63 135.50 L 191.58 135.25 C 192.43 135.03 192.94 134.15 192.71 133.29 C 192.49 132.44 191.61 131.93 190.76 132.15 L 189.81 132.40 C 188.96 132.63 188.45 133.51 188.67 134.36 C 188.90 135.22 189.78 135.73 190.63 135.50 Z M 191.59 135.25 L 192.54 134.98 C 193.39 134.75 193.89 133.87 193.66 133.01 C 193.42 132.16 192.54 131.66 191.69 131.90 L 190.74 132.16 C 189.89 132.39 189.39 133.28 189.62 134.13 C 189.86 134.98 190.74 135.48 191.59 135.25 Z M 192.56 134.98 L 193.53 134.69 C 194.38 134.45 194.87 133.56 194.62 132.71 C 194.37 131.86 193.48 131.37 192.64 131.62 L 191.67 131.90 C 190.82 132.15 190.33 133.04 190.58 133.89 C 190.82 134.74 191.71 135.22 192.56 134.98 Z M 193.55 134.69 L 194.52 134.39 C 195.37 134.13 195.84 133.24 195.58 132.39 C 195.32 131.55 194.43 131.07 193.58 131.33 L 192.61 131.63 C 191.77 131.89 191.29 132.78 191.55 133.63 C 191.81 134.47 192.71 134.95 193.55 134.69 Z M 194.54 134.38 L 195.49 134.08 C 196.33 133.81 196.79 132.90 196.52 132.06 C 196.25 131.22 195.35 130.76 194.51 131.03 L 193.56 131.34 C 192.72 131.61 192.26 132.51 192.53 133.35 C 192.80 134.19 193.70 134.66 194.54 134.38 Z M 195.51 134.07 L 196.48 133.75 C 197.31 133.46 197.76 132.55 197.48 131.72 C 197.20 130.88 196.29 130.43 195.45 130.71 L 194.49 131.04 C 193.65 131.32 193.20 132.23 193.48 133.07 C 193.76 133.91 194.67 134.36 195.51 134.07 Z M 196.50 133.74 L 197.46 133.40 C 198.30 133.10 198.73 132.19 198.44 131.35 C 198.14 130.52 197.23 130.08 196.39 130.38 L 195.43 130.72 C 194.59 131.01 194.16 131.93 194.45 132.76 C 194.75 133.60 195.66 134.04 196.50 133.74 Z M 197.49 133.39 L 198.44 133.04 C 199.27 132.73 199.69 131.81 199.38 130.98 C 199.07 130.15 198.15 129.72 197.32 130.03 L 196.37 130.38 C 195.54 130.69 195.12 131.62 195.43 132.45 C 195.73 133.28 196.66 133.70 197.49 133.39 Z M 198.46 133.03 L 199.38 132.67 C 200.21 132.35 200.61 131.41 200.29 130.59 C 199.96 129.76 199.03 129.36 198.21 129.68 L 197.29 130.04 C 196.47 130.36 196.06 131.30 196.38 132.12 C 196.71 132.95 197.64 133.35 198.46 133.03 Z M 199.42 132.65 L 200.58 132.16 C 201.39 131.82 201.77 130.88 201.43 130.06 C 201.08 129.24 200.14 128.86 199.33 129.21 L 198.17 129.70 C 197.35 130.04 196.97 130.98 197.32 131.80 C 197.66 132.62 198.60 133.00 199.42 132.65 Z M 200.66 132.12 L 201.81 131.56 C 202.60 131.17 202.93 130.21 202.54 129.41 C 202.15 128.62 201.19 128.29 200.40 128.68 L 199.25 129.25 C 198.45 129.64 198.12 130.60 198.51 131.39 C 198.90 132.18 199.86 132.51 200.66 132.12 Z M 202.01 131.44 L 202.74 130.94 C 203.46 130.44 203.65 129.44 203.15 128.72 C 202.65 127.99 201.65 127.80 200.93 128.30 L 200.20 128.80 C 199.47 129.30 199.29 130.30 199.79 131.02 C 200.29 131.75 201.28 131.93 202.01 131.44 Z M 203.35 130.09 L 203.47 129.71 C 203.73 128.87 203.27 127.97 202.43 127.71 C 201.59 127.45 200.69 127.92 200.43 128.76 L 200.31 129.15 C 200.05 129.99 200.52 130.88 201.36 131.14 C 202.20 131.40 203.09 130.93 203.35 130.09 Z M 202.64 127.80 L 202.20 127.59 C 201.41 127.21 200.46 127.54 200.08 128.33 C 199.70 129.12 200.03 130.07 200.82 130.45 L 201.27 130.66 C 202.06 131.04 203.00 130.71 203.38 129.92 C 203.76 129.13 203.43 128.18 202.64 127.80 Z M 201.75 127.46 L 200.90 127.33 C 200.04 127.19 199.23 127.78 199.10 128.65 C 198.97 129.51 199.56 130.32 200.42 130.45 L 201.27 130.58 C 202.13 130.71 202.94 130.12 203.07 129.26 C 203.20 128.40 202.61 127.59 201.75 127.46 Z M 200.76 127.32 L 199.63 127.24 C 198.76 127.19 198.01 127.84 197.95 128.71 C 197.90 129.58 198.55 130.33 199.42 130.38 L 200.56 130.46 C 201.43 130.52 202.17 129.86 202.23 128.99 C 202.29 128.12 201.63 127.37 200.76 127.32 Z M 199.57 127.25 L 198.27 127.21 C 197.40 127.18 196.68 127.86 196.65 128.72 C 196.63 129.59 197.31 130.31 198.17 130.34 L 199.47 130.38 C 200.34 130.41 201.06 129.73 201.09 128.86 C 201.12 128.00 200.44 127.27 199.57 127.25 Z M 198.26 127.21 L 197.69 127.20 C 196.83 127.18 196.12 127.86 196.10 128.72 C 196.08 129.59 196.76 130.30 197.62 130.32 L 198.18 130.34 C 199.05 130.35 199.76 129.67 199.78 128.81 C 199.80 127.95 199.12 127.23 198.26 127.21 Z"
      fill="black"
      fill-rule="nonzero" /><path d="M 162.16 95.88 L 161.05 95.94 C 160.19 96.00 159.52 96.74 159.57 97.61 C 159.63 98.48 160.37 99.14 161.24 99.09 L 162.34 99.02 C 163.21 98.97 163.87 98.23 163.82 97.36 C 163.77 96.49 163.02 95.83 162.16 95.88 Z M 161.03 95.94 L 159.95 96.02 C 159.08 96.08 158.42 96.84 158.49 97.71 C 158.55 98.58 159.31 99.24 160.18 99.17 L 161.26 99.09 C 162.13 99.03 162.79 98.27 162.72 97.40 C 162.66 96.53 161.90 95.88 161.03 95.94 Z M 159.90 96.02 L 158.86 96.12 C 157.98 96.21 157.35 96.99 157.44 97.86 C 157.53 98.74 158.31 99.37 159.18 99.28 L 160.22 99.17 C 161.10 99.09 161.73 98.31 161.64 97.43 C 161.55 96.56 160.77 95.93 159.90 96.02 Z M 158.78 96.13 L 157.79 96.28 C 156.92 96.41 156.32 97.22 156.45 98.09 C 156.58 98.96 157.39 99.56 158.26 99.43 L 159.25 99.28 C 160.12 99.15 160.72 98.34 160.59 97.47 C 160.46 96.60 159.65 96.00 158.78 96.13 Z M 157.68 96.29 L 156.76 96.49 C 155.90 96.69 155.36 97.54 155.55 98.40 C 155.74 99.26 156.59 99.81 157.46 99.62 L 158.37 99.41 C 159.23 99.22 159.78 98.36 159.59 97.50 C 159.39 96.64 158.54 96.10 157.68 96.29 Z M 156.60 96.53 L 155.78 96.81 C 154.94 97.09 154.48 97.99 154.76 98.84 C 155.04 99.68 155.95 100.13 156.79 99.85 L 157.61 99.58 C 158.46 99.30 158.91 98.39 158.63 97.55 C 158.35 96.71 157.44 96.25 156.60 96.53 Z M 155.53 96.90 L 154.64 97.37 C 153.85 97.79 153.55 98.76 153.96 99.55 C 154.38 100.34 155.36 100.64 156.14 100.23 L 157.04 99.76 C 157.82 99.34 158.13 98.37 157.71 97.58 C 157.30 96.79 156.32 96.49 155.53 96.90 Z M 154.35 97.55 L 153.55 98.22 C 152.86 98.80 152.77 99.83 153.35 100.51 C 153.93 101.20 154.95 101.29 155.64 100.71 L 156.44 100.05 C 157.13 99.47 157.22 98.44 156.64 97.75 C 156.06 97.06 155.03 96.98 154.35 97.55 Z M 153.31 98.44 L 152.70 99.21 C 152.13 99.92 152.25 100.95 152.96 101.52 C 153.66 102.09 154.70 101.97 155.26 101.26 L 155.88 100.49 C 156.45 99.78 156.33 98.75 155.62 98.18 C 154.91 97.62 153.88 97.73 153.31 98.44 Z M 152.54 99.41 L 152.07 100.24 C 151.61 101.03 151.89 102.04 152.68 102.50 C 153.48 102.96 154.49 102.68 154.94 101.89 L 155.42 101.06 C 155.87 100.27 155.60 99.26 154.81 98.80 C 154.01 98.34 153.00 98.62 152.54 99.41 Z M 151.98 100.38 L 151.60 101.24 C 151.22 102.09 151.60 103.07 152.45 103.45 C 153.29 103.82 154.28 103.44 154.66 102.60 L 155.04 101.74 C 155.41 100.90 155.03 99.91 154.18 99.53 C 153.34 99.16 152.35 99.54 151.98 100.38 Z M 151.54 101.35 L 151.20 102.29 C 150.89 103.17 151.34 104.13 152.22 104.45 C 153.09 104.76 154.06 104.31 154.37 103.43 L 154.71 102.49 C 155.02 101.62 154.57 100.65 153.70 100.34 C 152.82 100.02 151.86 100.48 151.54 101.35 Z M 151.16 102.40 L 150.89 103.33 C 150.63 104.23 151.15 105.17 152.05 105.43 C 152.95 105.68 153.88 105.17 154.14 104.27 L 154.41 103.33 C 154.67 102.43 154.15 101.50 153.25 101.24 C 152.36 100.98 151.42 101.50 151.16 102.40 Z M 150.86 103.41 L 150.64 104.38 C 150.42 105.29 150.99 106.21 151.90 106.42 C 152.82 106.64 153.73 106.07 153.94 105.16 L 154.17 104.19 C 154.39 103.28 153.82 102.36 152.91 102.15 C 151.99 101.93 151.08 102.50 150.86 103.41 Z M 150.62 104.42 L 150.42 105.37 C 150.24 106.30 150.83 107.20 151.75 107.39 C 152.67 107.58 153.58 106.98 153.77 106.06 L 153.96 105.11 C 154.15 104.19 153.56 103.29 152.63 103.10 C 151.71 102.91 150.81 103.50 150.62 104.42 Z M 150.42 105.40 L 150.24 106.30 C 150.07 107.23 150.67 108.12 151.60 108.30 C 152.53 108.48 153.42 107.87 153.60 106.94 L 153.78 106.04 C 153.95 105.11 153.34 104.21 152.42 104.04 C 151.49 103.86 150.59 104.47 150.42 105.40 Z M 150.24 106.32 L 150.06 107.28 C 149.90 108.21 150.52 109.10 151.45 109.27 C 152.38 109.44 153.27 108.82 153.44 107.88 L 153.61 106.92 C 153.78 105.99 153.16 105.10 152.23 104.93 C 151.29 104.77 150.40 105.39 150.24 106.32 Z M 150.06 107.30 L 149.88 108.32 C 149.73 109.25 150.36 110.14 151.29 110.30 C 152.23 110.45 153.11 109.82 153.27 108.89 L 153.44 107.87 C 153.60 106.93 152.97 106.05 152.04 105.89 C 151.10 105.73 150.22 106.36 150.06 107.30 Z M 149.88 108.33 L 149.71 109.41 C 149.56 110.35 150.19 111.23 151.13 111.38 C 152.07 111.53 152.95 110.90 153.10 109.96 L 153.28 108.87 C 153.43 107.94 152.79 107.05 151.85 106.90 C 150.91 106.75 150.03 107.39 149.88 108.33 Z M 149.70 109.43 L 149.56 110.34 C 149.42 111.28 150.07 112.16 151.01 112.30 C 151.95 112.44 152.82 111.80 152.97 110.86 L 153.11 109.94 C 153.25 109.00 152.60 108.13 151.66 107.98 C 150.72 107.84 149.84 108.49 149.70 109.43 Z M 149.56 110.35 L 149.43 111.26 C 149.29 112.20 149.94 113.07 150.88 113.21 C 151.82 113.35 152.70 112.70 152.83 111.76 L 152.97 110.85 C 153.11 109.91 152.46 109.03 151.52 108.90 C 150.57 108.76 149.70 109.41 149.56 110.35 Z M 149.43 111.26 L 149.29 112.21 C 149.16 113.15 149.81 114.02 150.75 114.16 C 151.69 114.29 152.56 113.64 152.70 112.70 L 152.83 111.75 C 152.97 110.81 152.32 109.94 151.38 109.80 C 150.44 109.67 149.56 110.32 149.43 111.26 Z M 149.29 112.21 L 149.15 113.21 C 149.02 114.15 149.67 115.02 150.61 115.16 C 151.55 115.29 152.42 114.64 152.56 113.70 L 152.70 112.70 C 152.83 111.76 152.18 110.89 151.24 110.75 C 150.30 110.62 149.43 111.27 149.29 112.21 Z M 149.15 113.21 L 149.01 114.26 C 148.87 115.20 149.53 116.07 150.47 116.21 C 151.41 116.34 152.27 115.68 152.41 114.74 L 152.56 113.69 C 152.69 112.75 152.03 111.89 151.09 111.75 C 150.15 111.62 149.29 112.27 149.15 113.21 Z M 149.01 114.26 L 148.85 115.37 C 148.72 116.31 149.37 117.18 150.31 117.31 C 151.25 117.44 152.12 116.79 152.25 115.85 L 152.41 114.75 C 152.54 113.81 151.89 112.94 150.95 112.81 C 150.01 112.67 149.14 113.33 149.01 114.26 Z M 148.85 115.37 L 148.71 116.32 C 148.58 117.26 149.23 118.13 150.17 118.26 C 151.11 118.40 151.98 117.75 152.11 116.81 L 152.25 115.86 C 152.38 114.92 151.73 114.05 150.79 113.91 C 149.85 113.78 148.98 114.43 148.85 115.37 Z M 148.71 116.32 L 148.58 117.25 C 148.44 118.19 149.10 119.06 150.03 119.19 C 150.97 119.33 151.84 118.67 151.98 117.74 L 152.11 116.81 C 152.25 115.87 151.60 115.00 150.66 114.87 C 149.72 114.73 148.85 115.38 148.71 116.32 Z M 148.58 117.25 L 148.44 118.20 C 148.31 119.14 148.96 120.01 149.90 120.15 C 150.84 120.28 151.71 119.63 151.84 118.69 L 151.98 117.74 C 152.11 116.80 151.46 115.93 150.52 115.79 C 149.59 115.66 148.71 116.31 148.58 117.25 Z M 148.44 118.20 L 148.30 119.19 C 148.16 120.13 148.82 121.00 149.76 121.13 C 150.70 121.27 151.57 120.62 151.70 119.68 L 151.84 118.69 C 151.98 117.75 151.33 116.88 150.39 116.75 C 149.45 116.61 148.58 117.26 148.44 118.20 Z M 148.30 119.19 L 148.15 120.20 C 148.02 121.14 148.67 122.01 149.61 122.14 C 150.55 122.27 151.42 121.62 151.56 120.68 L 151.70 119.67 C 151.84 118.73 151.18 117.86 150.24 117.73 C 149.30 117.60 148.43 118.25 148.30 119.19 Z M 148.15 120.20 L 148.01 121.22 C 147.88 122.16 148.53 123.03 149.47 123.17 C 150.41 123.30 151.28 122.65 151.42 121.70 L 151.56 120.68 C 151.69 119.74 151.04 118.87 150.10 118.73 C 149.16 118.60 148.29 119.26 148.15 120.20 Z M 148.01 121.23 L 147.86 122.27 C 147.73 123.21 148.39 124.08 149.33 124.21 C 150.27 124.34 151.14 123.68 151.27 122.74 L 151.42 121.70 C 151.55 120.76 150.89 119.89 149.95 119.76 C 149.01 119.63 148.14 120.28 148.01 121.23 Z M 147.86 122.27 L 147.72 123.33 C 147.59 124.27 148.25 125.14 149.19 125.27 C 150.13 125.40 151.00 124.74 151.13 123.79 L 151.27 122.74 C 151.40 121.80 150.74 120.93 149.80 120.80 C 148.86 120.67 147.99 121.33 147.86 122.27 Z M 147.72 123.33 L 147.59 124.30 C 147.46 125.24 148.12 126.11 149.06 126.24 C 150.01 126.36 150.87 125.70 151.00 124.76 L 151.13 123.79 C 151.26 122.85 150.59 121.98 149.65 121.85 C 148.71 121.73 147.84 122.39 147.72 123.33 Z M 147.59 124.30 L 147.46 125.27 C 147.34 126.21 148.00 127.07 148.94 127.20 C 149.88 127.32 150.75 126.66 150.87 125.72 L 151.00 124.75 C 151.12 123.81 150.46 122.95 149.52 122.82 C 148.57 122.70 147.71 123.36 147.59 124.30 Z M 147.46 125.27 L 147.34 126.24 C 147.21 127.19 147.88 128.05 148.82 128.17 C 149.76 128.29 150.62 127.63 150.75 126.69 L 150.87 125.71 C 150.99 124.77 150.33 123.91 149.39 123.79 C 148.45 123.67 147.58 124.33 147.46 125.27 Z M 147.34 126.25 L 147.21 127.23 C 147.09 128.17 147.76 129.03 148.70 129.15 C 149.64 129.27 150.50 128.60 150.62 127.66 L 150.74 126.68 C 150.86 125.74 150.20 124.88 149.26 124.76 C 148.32 124.64 147.46 125.31 147.34 126.25 Z M 147.21 127.23 L 147.09 128.22 C 146.97 129.16 147.64 130.02 148.58 130.14 C 149.52 130.26 150.37 129.59 150.49 128.65 L 150.62 127.66 C 150.74 126.72 150.07 125.86 149.13 125.74 C 148.19 125.63 147.33 126.29 147.21 127.23 Z M 147.09 128.22 L 146.96 129.22 C 146.85 130.16 147.51 131.02 148.45 131.14 C 149.39 131.25 150.25 130.59 150.37 129.65 L 150.49 128.65 C 150.61 127.71 149.94 126.85 149.00 126.74 C 148.06 126.62 147.21 127.28 147.09 128.22 Z M 146.97 129.23 L 146.84 130.24 C 146.72 131.17 147.39 132.03 148.33 132.15 C 149.27 132.26 150.12 131.60 150.24 130.66 L 150.36 129.65 C 150.48 128.71 149.82 127.85 148.88 127.74 C 147.94 127.62 147.08 128.29 146.97 129.23 Z M 146.84 130.24 L 146.72 131.26 C 146.60 132.20 147.26 133.05 148.20 133.17 C 149.14 133.28 149.99 132.62 150.11 131.68 L 150.24 130.66 C 150.35 129.72 149.69 128.87 148.75 128.75 C 147.81 128.63 146.96 129.30 146.84 130.24 Z M 146.72 131.26 L 146.59 132.28 C 146.47 133.22 147.14 134.07 148.08 134.19 C 149.01 134.30 149.87 133.64 149.98 132.70 L 150.11 131.68 C 150.23 130.74 149.56 129.89 148.62 129.77 C 147.69 129.66 146.83 130.32 146.72 131.26 Z M 146.59 132.28 L 146.47 133.23 C 146.36 134.17 147.02 135.02 147.96 135.14 C 148.89 135.26 149.75 134.59 149.86 133.66 L 149.98 132.70 C 150.10 131.76 149.43 130.91 148.50 130.79 C 147.56 130.68 146.71 131.34 146.59 132.28 Z M 146.47 133.23 L 146.35 134.20 C 146.24 135.13 146.90 135.99 147.84 136.10 C 148.77 136.22 149.63 135.56 149.74 134.62 L 149.86 133.66 C 149.98 132.72 149.31 131.87 148.38 131.75 C 147.44 131.63 146.59 132.30 146.47 133.23 Z M 146.35 134.20 L 146.23 135.17 C 146.12 136.11 146.78 136.96 147.72 137.08 C 148.65 137.19 149.51 136.53 149.62 135.59 L 149.74 134.62 C 149.86 133.68 149.19 132.83 148.26 132.71 C 147.32 132.60 146.47 133.26 146.35 134.20 Z M 146.23 135.17 L 146.11 136.16 C 145.99 137.09 146.66 137.95 147.59 138.06 C 148.53 138.18 149.38 137.51 149.50 136.58 L 149.62 135.59 C 149.74 134.66 149.07 133.80 148.14 133.69 C 147.20 133.57 146.35 134.24 146.23 135.17 Z M 146.11 136.16 L 145.99 137.15 C 145.87 138.09 146.54 138.94 147.47 139.05 C 148.41 139.17 149.26 138.51 149.38 137.57 L 149.50 136.58 C 149.62 135.64 148.95 134.79 148.01 134.67 C 147.08 134.56 146.23 135.22 146.11 136.16 Z M 145.99 137.15 L 145.86 138.15 C 145.75 139.09 146.41 139.94 147.35 140.06 C 148.29 140.17 149.14 139.51 149.25 138.57 L 149.38 137.57 C 149.49 136.63 148.83 135.78 147.89 135.66 C 146.96 135.55 146.10 136.21 145.99 137.15 Z M 145.86 138.15 L 145.74 139.16 C 145.62 140.10 146.29 140.95 147.23 141.06 C 148.16 141.18 149.02 140.51 149.13 139.58 L 149.25 138.57 C 149.37 137.63 148.70 136.78 147.77 136.66 C 146.83 136.55 145.98 137.22 145.86 138.15 Z M 145.74 139.16 L 145.62 140.18 C 145.50 141.12 146.17 141.97 147.10 142.08 C 148.04 142.20 148.89 141.53 149.01 140.59 L 149.13 139.58 C 149.24 138.64 148.58 137.79 147.64 137.67 C 146.71 137.56 145.85 138.23 145.74 139.16 Z M 145.62 140.18 L 145.49 141.20 C 145.38 142.14 146.04 142.99 146.98 143.11 C 147.92 143.22 148.77 142.55 148.88 141.62 L 149.01 140.59 C 149.12 139.66 148.45 138.80 147.52 138.69 C 146.58 138.58 145.73 139.24 145.62 140.18 Z M 145.49 141.21 L 145.37 142.20 C 145.26 143.13 145.93 143.98 146.86 144.10 C 147.80 144.21 148.65 143.54 148.76 142.61 L 148.88 141.62 C 148.99 140.68 148.33 139.83 147.39 139.72 C 146.45 139.60 145.60 140.27 145.49 141.21 Z M 145.37 142.20 L 145.26 143.16 C 145.15 144.09 145.81 144.94 146.75 145.06 C 147.68 145.17 148.53 144.50 148.65 143.57 L 148.76 142.60 C 148.87 141.67 148.21 140.82 147.27 140.71 C 146.33 140.59 145.48 141.26 145.37 142.20 Z M 145.26 143.16 L 145.14 144.13 C 145.03 145.06 145.70 145.91 146.63 146.02 C 147.57 146.13 148.42 145.47 148.53 144.53 L 148.64 143.56 C 148.76 142.63 148.09 141.78 147.15 141.67 C 146.22 141.56 145.37 142.23 145.26 143.16 Z M 145.14 144.13 L 145.03 145.11 C 144.92 146.04 145.59 146.89 146.52 147.00 C 147.45 147.11 148.30 146.44 148.41 145.51 L 148.53 144.53 C 148.64 143.60 147.97 142.75 147.04 142.64 C 146.10 142.53 145.26 143.20 145.14 144.13 Z M 145.03 145.11 L 144.92 146.09 C 144.81 147.02 145.47 147.87 146.41 147.98 C 147.34 148.09 148.19 147.42 148.30 146.49 L 148.41 145.50 C 148.52 144.57 147.85 143.73 146.92 143.62 C 145.99 143.51 145.14 144.17 145.03 145.11 Z M 144.92 146.09 L 144.80 147.08 C 144.69 148.02 145.36 148.86 146.29 148.97 C 147.23 149.08 148.07 148.41 148.18 147.48 L 148.29 146.49 C 148.40 145.55 147.73 144.71 146.80 144.60 C 145.87 144.49 145.03 145.16 144.92 146.09 Z M 144.80 147.08 L 144.69 148.08 C 144.58 149.02 145.25 149.86 146.18 149.97 C 147.11 150.07 147.95 149.40 148.06 148.47 L 148.18 147.47 C 148.28 146.54 147.62 145.70 146.68 145.59 C 145.75 145.48 144.91 146.15 144.80 147.08 Z M 144.69 148.09 L 144.57 149.09 C 144.47 150.02 145.14 150.87 146.07 150.97 C 147.00 151.08 147.84 150.41 147.95 149.48 L 148.06 148.47 C 148.17 147.54 147.50 146.70 146.57 146.59 C 145.64 146.49 144.80 147.15 144.69 148.09 Z M 144.58 149.09 L 144.46 150.11 C 144.35 151.04 145.02 151.88 145.95 151.99 C 146.88 152.09 147.72 151.42 147.83 150.49 L 147.94 149.48 C 148.05 148.55 147.38 147.71 146.45 147.60 C 145.52 147.50 144.68 148.16 144.58 149.09 Z M 144.46 150.11 L 144.35 151.14 C 144.24 152.07 144.91 152.91 145.84 153.01 C 146.77 153.12 147.61 152.45 147.71 151.52 L 147.83 150.49 C 147.93 149.56 147.26 148.72 146.33 148.62 C 145.40 148.51 144.57 149.18 144.46 150.11 Z M 144.35 151.14 L 144.23 152.16 C 144.13 153.09 144.80 153.92 145.73 154.03 C 146.66 154.13 147.49 153.46 147.60 152.53 L 147.71 151.52 C 147.81 150.59 147.14 149.75 146.22 149.65 C 145.29 149.54 144.45 150.21 144.35 151.14 Z M 144.23 152.16 L 144.13 153.11 C 144.03 154.04 144.70 154.87 145.62 154.98 C 146.55 155.08 147.39 154.41 147.49 153.48 L 147.60 152.53 C 147.70 151.60 147.03 150.77 146.10 150.66 C 145.17 150.56 144.34 151.23 144.23 152.16 Z M 144.13 153.11 L 144.02 154.07 C 143.92 155.00 144.59 155.84 145.52 155.94 C 146.45 156.04 147.28 155.37 147.39 154.44 L 147.49 153.48 C 147.59 152.55 146.92 151.72 145.99 151.62 C 145.07 151.51 144.23 152.18 144.13 153.11 Z M 144.03 154.07 L 143.92 155.04 C 143.82 155.97 144.49 156.81 145.42 156.91 C 146.35 157.01 147.18 156.33 147.28 155.41 L 147.39 154.44 C 147.49 153.51 146.82 152.68 145.89 152.58 C 144.96 152.48 144.13 153.15 144.03 154.07 Z M 143.92 155.05 L 143.82 156.02 C 143.72 156.95 144.39 157.78 145.32 157.88 C 146.24 157.98 147.08 157.31 147.18 156.38 L 147.28 155.40 C 147.38 154.48 146.71 153.64 145.78 153.54 C 144.85 153.45 144.02 154.12 143.92 155.05 Z M 143.82 156.02 L 143.71 157.01 C 143.61 157.94 144.29 158.77 145.21 158.87 C 146.14 158.97 146.97 158.29 147.07 157.37 L 147.18 156.38 C 147.27 155.45 146.60 154.62 145.67 154.52 C 144.75 154.42 143.91 155.10 143.82 156.02 Z M 143.71 157.01 L 143.61 158.01 C 143.51 158.93 144.19 159.77 145.11 159.86 C 146.04 159.96 146.87 159.28 146.97 158.36 L 147.07 157.36 C 147.17 156.44 146.49 155.60 145.57 155.51 C 144.64 155.41 143.81 156.09 143.71 157.01 Z M 143.61 158.01 L 143.51 159.01 C 143.41 159.94 144.09 160.77 145.01 160.86 C 145.94 160.96 146.77 160.29 146.87 159.36 L 146.97 158.35 C 147.06 157.43 146.39 156.60 145.46 156.50 C 144.53 156.41 143.70 157.08 143.61 158.01 Z M 143.51 159.02 L 143.40 160.03 C 143.31 160.95 143.99 161.78 144.91 161.88 C 145.84 161.97 146.67 161.29 146.76 160.37 L 146.86 159.36 C 146.96 158.43 146.28 157.60 145.36 157.51 C 144.43 157.41 143.60 158.09 143.51 159.02 Z M 143.40 160.03 L 143.30 161.05 C 143.21 161.98 143.89 162.81 144.81 162.90 C 145.74 162.99 146.57 162.31 146.66 161.39 L 146.76 160.36 C 146.85 159.44 146.18 158.61 145.25 158.52 C 144.32 158.43 143.50 159.10 143.40 160.03 Z M 143.30 161.05 L 143.20 162.08 C 143.11 163.01 143.79 163.84 144.72 163.93 C 145.64 164.02 146.47 163.34 146.56 162.41 L 146.66 161.38 C 146.75 160.46 146.07 159.63 145.15 159.54 C 144.22 159.45 143.39 160.13 143.30 161.05 Z M 143.20 162.09 L 143.10 163.13 C 143.01 164.05 143.69 164.88 144.62 164.97 C 145.55 165.06 146.37 164.38 146.46 163.45 L 146.56 162.41 C 146.65 161.48 145.97 160.66 145.04 160.57 C 144.12 160.48 143.29 161.16 143.20 162.09 Z M 143.10 163.13 L 143.01 164.10 C 142.92 165.02 143.60 165.85 144.53 165.93 C 145.46 166.02 146.28 165.34 146.37 164.41 L 146.46 163.45 C 146.55 162.52 145.87 161.70 144.94 161.61 C 144.01 161.52 143.19 162.20 143.10 163.13 Z M 143.01 164.10 L 142.92 165.06 C 142.83 165.98 143.52 166.81 144.44 166.89 C 145.37 166.98 146.20 166.30 146.28 165.37 L 146.37 164.41 C 146.46 163.48 145.77 162.66 144.85 162.57 C 143.92 162.49 143.09 163.17 143.01 164.10 Z M 142.92 165.06 L 142.83 166.02 C 142.74 166.95 143.43 167.78 144.36 167.86 C 145.29 167.95 146.11 167.26 146.20 166.33 L 146.28 165.37 C 146.37 164.44 145.68 163.61 144.75 163.53 C 143.83 163.44 143.00 164.13 142.92 165.06 Z M 142.83 166.03 L 142.74 167.00 C 142.66 167.93 143.34 168.75 144.27 168.84 C 145.20 168.92 146.03 168.24 146.11 167.30 L 146.20 166.33 C 146.28 165.40 145.59 164.58 144.66 164.49 C 143.73 164.41 142.91 165.10 142.83 166.03 Z M 142.74 167.00 L 142.65 167.98 C 142.57 168.91 143.25 169.74 144.19 169.82 C 145.12 169.90 145.94 169.22 146.02 168.28 L 146.11 167.30 C 146.19 166.37 145.51 165.55 144.57 165.47 C 143.64 165.38 142.82 166.07 142.74 167.00 Z M 142.65 167.98 L 142.56 168.97 C 142.48 169.91 143.17 170.73 144.10 170.81 C 145.03 170.89 145.86 170.21 145.94 169.27 L 146.03 168.28 C 146.11 167.35 145.42 166.53 144.49 166.45 C 143.55 166.36 142.73 167.05 142.65 167.98 Z M 142.56 168.97 L 142.47 169.97 C 142.39 170.91 143.08 171.73 144.01 171.81 C 144.95 171.89 145.77 171.20 145.85 170.27 L 145.94 169.27 C 146.02 168.34 145.33 167.51 144.40 167.43 C 143.46 167.35 142.64 168.04 142.56 168.97 Z M 142.47 169.97 L 142.38 170.98 C 142.30 171.91 142.99 172.73 143.93 172.82 C 144.86 172.90 145.68 172.21 145.77 171.27 L 145.85 170.27 C 145.94 169.33 145.24 168.51 144.31 168.43 C 143.37 168.35 142.55 169.04 142.47 169.97 Z M 142.38 170.98 L 142.29 171.99 C 142.21 172.92 142.90 173.75 143.84 173.83 C 144.78 173.91 145.60 173.22 145.68 172.28 L 145.77 171.27 C 145.85 170.34 145.16 169.51 144.22 169.43 C 143.29 169.35 142.46 170.04 142.38 170.98 Z M 142.29 171.99 L 142.20 173.01 C 142.12 173.95 142.82 174.77 143.75 174.85 C 144.69 174.93 145.51 174.24 145.59 173.30 L 145.68 172.28 C 145.76 171.35 145.07 170.52 144.13 170.44 C 143.20 170.36 142.37 171.05 142.29 171.99 Z M 142.20 173.01 L 142.11 174.04 C 142.03 174.97 142.73 175.80 143.66 175.88 C 144.60 175.96 145.43 175.27 145.51 174.33 L 145.60 173.30 C 145.68 172.36 144.98 171.54 144.04 171.46 C 143.11 171.38 142.28 172.07 142.20 173.01 Z M 142.11 174.04 L 142.02 175.07 C 141.94 176.01 142.64 176.84 143.57 176.92 C 144.51 177.00 145.34 176.30 145.42 175.36 L 145.51 174.33 C 145.59 173.39 144.89 172.56 143.96 172.48 C 143.02 172.40 142.19 173.10 142.11 174.04 Z M 142.02 175.07 L 141.93 176.10 C 141.85 177.04 142.55 177.87 143.49 177.95 C 144.42 178.03 145.25 177.33 145.33 176.39 L 145.42 175.36 C 145.50 174.43 144.81 173.60 143.87 173.52 C 142.93 173.44 142.10 174.13 142.02 175.07 Z M 141.93 176.10 L 141.84 177.10 C 141.76 178.04 142.46 178.87 143.40 178.95 C 144.34 179.03 145.17 178.34 145.25 177.40 L 145.33 176.39 C 145.42 175.45 144.72 174.63 143.78 174.54 C 142.84 174.46 142.01 175.16 141.93 176.10 Z M 141.84 177.10 L 141.76 178.11 C 141.67 179.05 142.37 179.88 143.31 179.96 C 144.25 180.04 145.08 179.35 145.16 178.41 L 145.25 177.40 C 145.33 176.46 144.63 175.63 143.69 175.55 C 142.75 175.47 141.92 176.16 141.84 177.10 Z M 141.75 178.11 L 141.67 179.13 C 141.59 180.07 142.28 180.90 143.22 180.98 C 144.16 181.06 144.99 180.36 145.07 179.42 L 145.16 178.41 C 145.24 177.47 144.55 176.64 143.61 176.56 C 142.66 176.48 141.84 177.17 141.75 178.11 Z M 141.67 179.13 L 141.58 180.14 C 141.50 181.08 142.20 181.91 143.14 181.99 C 144.08 182.07 144.91 181.38 144.99 180.43 L 145.08 179.42 C 145.16 178.48 144.46 177.65 143.52 177.57 C 142.58 177.49 141.75 178.19 141.67 179.13 Z M 141.58 180.14 L 141.49 181.16 C 141.41 182.10 142.11 182.93 143.05 183.01 C 143.99 183.09 144.82 182.39 144.90 181.45 L 144.99 180.43 C 145.07 179.49 144.37 178.66 143.43 178.58 C 142.49 178.50 141.66 179.20 141.58 180.14 Z M 141.49 181.16 L 141.41 182.17 C 141.33 183.11 142.02 183.94 142.97 184.02 C 143.91 184.10 144.74 183.40 144.82 182.46 L 144.90 181.45 C 144.98 180.50 144.28 179.67 143.34 179.59 C 142.40 179.51 141.57 180.21 141.49 181.16 Z M 141.40 182.17 L 141.32 183.18 C 141.24 184.12 141.94 184.95 142.88 185.03 C 143.83 185.11 144.66 184.41 144.73 183.46 L 144.82 182.46 C 144.90 181.51 144.20 180.68 143.26 180.61 C 142.31 180.53 141.48 181.23 141.40 182.17 Z M 141.32 183.18 L 141.24 184.18 C 141.16 185.12 141.86 185.95 142.80 186.03 C 143.75 186.11 144.57 185.41 144.65 184.46 L 144.74 183.46 C 144.81 182.52 144.11 181.69 143.17 181.61 C 142.23 181.53 141.40 182.23 141.32 183.18 Z M 141.23 184.18 L 141.15 185.18 C 141.08 186.12 141.78 186.95 142.72 187.03 C 143.67 187.10 144.49 186.40 144.57 185.46 L 144.65 184.46 C 144.73 183.52 144.03 182.69 143.08 182.61 C 142.14 182.54 141.31 183.24 141.23 184.18 Z M 141.15 185.18 L 141.07 186.16 C 141.00 187.11 141.70 187.94 142.64 188.01 C 143.59 188.09 144.42 187.38 144.49 186.44 L 144.57 185.45 C 144.65 184.51 143.94 183.68 143.00 183.61 C 142.06 183.53 141.23 184.23 141.15 185.18 Z M 141.07 186.17 L 140.99 187.14 C 140.92 188.09 141.62 188.91 142.57 188.99 C 143.52 189.06 144.34 188.36 144.42 187.41 L 144.49 186.44 C 144.57 185.49 143.86 184.67 142.92 184.59 C 141.97 184.52 141.15 185.22 141.07 186.17 Z M 140.99 187.14 L 140.92 188.11 C 140.85 189.05 141.55 189.88 142.50 189.95 C 143.44 190.02 144.27 189.32 144.34 188.37 L 144.42 187.41 C 144.49 186.46 143.78 185.64 142.84 185.56 C 141.89 185.49 141.07 186.20 140.99 187.14 Z M 140.92 188.11 L 140.84 189.09 C 140.77 190.03 141.48 190.86 142.43 190.93 C 143.37 191.00 144.20 190.29 144.27 189.35 L 144.34 188.37 C 144.42 187.42 143.71 186.60 142.76 186.52 C 141.81 186.45 140.99 187.16 140.92 188.11 Z M 140.84 189.09 L 140.76 190.15 C 140.69 191.09 141.41 191.92 142.35 191.99 C 143.30 192.06 144.13 191.35 144.19 190.40 L 144.27 189.34 C 144.34 188.40 143.63 187.57 142.68 187.50 C 141.74 187.43 140.91 188.14 140.84 189.09 Z M 140.76 190.15 L 140.69 191.19 C 140.62 192.13 141.33 192.96 142.28 193.03 C 143.23 193.09 144.06 192.38 144.12 191.43 L 144.20 190.39 C 144.27 189.45 143.55 188.62 142.60 188.55 C 141.65 188.49 140.83 189.20 140.76 190.15 Z M 140.68 191.19 L 140.61 192.21 C 140.55 193.16 141.26 193.98 142.21 194.05 C 143.16 194.12 143.99 193.40 144.05 192.45 L 144.13 191.43 C 144.19 190.48 143.48 189.65 142.52 189.59 C 141.57 189.52 140.75 190.24 140.68 191.19 Z M 140.61 192.21 L 140.54 193.22 C 140.48 194.17 141.20 195.00 142.15 195.06 C 143.10 195.13 143.92 194.41 143.99 193.45 L 144.06 192.45 C 144.12 191.50 143.40 190.67 142.45 190.61 C 141.50 190.54 140.68 191.26 140.61 192.21 Z M 140.54 193.22 L 140.47 194.22 C 140.41 195.17 141.13 196.00 142.08 196.06 C 143.04 196.12 143.86 195.40 143.92 194.45 L 143.99 193.45 C 144.05 192.50 143.33 191.68 142.38 191.61 C 141.43 191.55 140.60 192.27 140.54 193.22 Z M 140.47 194.22 L 140.41 195.21 C 140.34 196.16 141.07 196.99 142.02 197.05 C 142.98 197.11 143.80 196.39 143.86 195.43 L 143.93 194.45 C 143.99 193.49 143.27 192.67 142.31 192.61 C 141.36 192.54 140.53 193.27 140.47 194.22 Z M 140.40 195.21 L 140.34 196.19 C 140.28 197.14 141.00 197.97 141.96 198.03 C 142.91 198.09 143.74 197.37 143.80 196.41 L 143.86 195.43 C 143.93 194.48 143.20 193.65 142.25 193.59 C 141.29 193.53 140.47 194.25 140.40 195.21 Z M 140.34 196.19 L 140.28 197.16 C 140.21 198.12 140.94 198.95 141.90 199.01 C 142.85 199.07 143.68 198.34 143.74 197.39 L 143.80 196.41 C 143.86 195.46 143.14 194.63 142.18 194.57 C 141.23 194.51 140.40 195.23 140.34 196.19 Z M 140.27 197.16 L 140.21 198.13 C 140.15 199.09 140.88 199.92 141.84 199.98 C 142.79 200.04 143.62 199.31 143.68 198.36 L 143.74 197.39 C 143.80 196.43 143.08 195.60 142.12 195.54 C 141.16 195.48 140.34 196.21 140.27 197.16 Z M 140.21 198.13 L 140.15 199.10 C 140.09 200.06 140.81 200.89 141.77 200.95 C 142.73 201.01 143.56 200.28 143.62 199.33 L 143.68 198.36 C 143.74 197.40 143.02 196.57 142.06 196.51 C 141.10 196.45 140.27 197.17 140.21 198.13 Z M 140.15 199.10 L 140.08 200.07 C 140.02 201.03 140.75 201.86 141.71 201.92 C 142.67 201.98 143.50 201.26 143.56 200.30 L 143.62 199.33 C 143.69 198.37 142.96 197.54 142.00 197.47 C 141.04 197.41 140.21 198.14 140.15 199.10 Z M 140.08 200.07 L 140.02 201.05 C 139.95 202.02 140.68 202.85 141.64 202.91 C 142.61 202.97 143.44 202.24 143.50 201.28 L 143.56 200.30 C 143.63 199.34 142.90 198.51 141.94 198.44 C 140.97 198.38 140.14 199.11 140.08 200.07 Z M 140.02 201.05 L 139.95 202.05 C 139.89 203.01 140.62 203.84 141.58 203.90 C 142.54 203.97 143.37 203.24 143.43 202.28 L 143.50 201.28 C 143.56 200.32 142.83 199.49 141.87 199.43 C 140.91 199.36 140.08 200.09 140.02 201.05 Z M 139.95 202.05 L 139.88 203.04 C 139.82 204.00 140.55 204.84 141.51 204.90 C 142.47 204.96 143.31 204.24 143.37 203.27 L 143.44 202.28 C 143.50 201.31 142.77 200.48 141.81 200.42 C 140.84 200.35 140.01 201.08 139.95 202.05 Z M 139.88 203.04 L 139.82 204.04 C 139.75 205.00 140.48 205.84 141.44 205.90 C 142.41 205.96 143.24 205.23 143.30 204.27 L 143.37 203.27 C 143.43 202.31 142.71 201.48 141.74 201.41 C 140.78 201.35 139.95 202.08 139.88 203.04 Z M 139.81 204.04 L 139.75 205.04 C 139.68 206.00 140.41 206.84 141.38 206.90 C 142.34 206.96 143.17 206.23 143.24 205.27 L 143.30 204.27 C 143.37 203.31 142.64 202.47 141.68 202.41 C 140.71 202.35 139.88 203.08 139.81 204.04 Z M 139.75 205.04 L 139.68 206.04 C 139.62 207.00 140.35 207.84 141.31 207.90 C 142.28 207.96 143.11 207.23 143.17 206.27 L 143.24 205.27 C 143.30 204.31 142.57 203.47 141.61 203.41 C 140.64 203.34 139.81 204.07 139.75 205.04 Z M 139.68 206.04 L 139.61 207.04 C 139.55 208.01 140.28 208.84 141.25 208.90 C 142.21 208.97 143.05 208.23 143.11 207.27 L 143.17 206.27 C 143.24 205.30 142.51 204.47 141.54 204.41 C 140.58 204.34 139.74 205.07 139.68 206.04 Z M 139.61 207.04 L 139.55 208.04 C 139.49 209.01 140.22 209.84 141.18 209.90 C 142.15 209.97 142.98 209.23 143.05 208.27 L 143.11 207.27 C 143.17 206.30 142.44 205.47 141.47 205.41 C 140.51 205.34 139.68 206.08 139.61 207.04 Z M 139.55 208.04 L 139.48 209.04 C 139.42 210.01 140.16 210.84 141.12 210.91 C 142.09 210.97 142.92 210.23 142.98 209.27 L 143.05 208.27 C 143.11 207.30 142.37 206.47 141.41 206.41 C 140.44 206.34 139.61 207.08 139.55 208.04 Z M 139.48 209.05 L 139.42 210.05 C 139.36 211.01 140.09 211.85 141.06 211.91 C 142.03 211.97 142.86 211.23 142.92 210.26 L 142.98 209.27 C 143.04 208.30 142.31 207.47 141.34 207.40 C 140.38 207.34 139.54 208.08 139.48 209.05 Z M 139.42 210.05 L 139.36 211.05 C 139.30 212.01 140.04 212.85 141.00 212.91 C 141.97 212.96 142.80 212.23 142.86 211.26 L 142.92 210.26 C 142.98 209.29 142.25 208.46 141.28 208.40 C 140.31 208.34 139.48 209.08 139.42 210.05 Z M 139.36 211.05 L 139.30 212.06 C 139.24 213.03 139.98 213.86 140.95 213.92 C 141.92 213.97 142.75 213.24 142.80 212.27 L 142.86 211.26 C 142.92 210.29 142.18 209.46 141.21 209.40 C 140.25 209.34 139.41 210.08 139.36 211.05 Z M 139.29 212.06 L 139.24 213.09 C 139.18 214.06 139.92 214.89 140.89 214.95 C 141.86 215.00 142.69 214.26 142.75 213.29 L 142.81 212.26 C 142.86 211.29 142.12 210.46 141.15 210.41 C 140.18 210.35 139.35 211.09 139.29 212.06 Z M 139.23 213.09 L 139.18 214.12 C 139.12 215.09 139.87 215.92 140.84 215.98 C 141.81 216.03 142.64 215.29 142.69 214.31 L 142.75 213.29 C 142.80 212.32 142.06 211.49 141.09 211.43 C 140.12 211.38 139.29 212.12 139.23 213.09 Z M 139.17 214.12 L 139.12 215.14 C 139.07 216.12 139.81 216.95 140.79 217.00 C 141.76 217.05 142.59 216.30 142.64 215.33 L 142.70 214.31 C 142.75 213.34 142.00 212.51 141.03 212.45 C 140.06 212.40 139.23 213.15 139.17 214.12 Z M 139.12 215.15 L 139.06 216.16 C 139.01 217.13 139.76 217.97 140.74 218.02 C 141.71 218.07 142.54 217.32 142.59 216.34 L 142.65 215.33 C 142.70 214.35 141.95 213.52 140.97 213.47 C 140.00 213.42 139.17 214.17 139.12 215.15 Z M 139.06 216.16 L 139.01 217.17 C 138.96 218.15 139.71 218.98 140.69 219.03 C 141.66 219.08 142.49 218.33 142.54 217.35 L 142.60 216.34 C 142.64 215.37 141.89 214.53 140.92 214.48 C 139.94 214.44 139.11 215.19 139.06 216.16 Z M 139.01 217.17 L 138.96 218.17 C 138.91 219.15 139.66 219.98 140.64 220.03 C 141.62 220.08 142.45 219.32 142.50 218.35 L 142.55 217.35 C 142.60 216.37 141.84 215.54 140.86 215.49 C 139.89 215.44 139.06 216.19 139.01 217.17 Z M 138.96 218.17 L 138.91 219.17 C 138.86 220.15 139.62 220.98 140.59 221.02 C 141.57 221.07 142.41 220.32 142.45 219.34 L 142.50 218.35 C 142.55 217.37 141.79 216.53 140.81 216.49 C 139.83 216.44 139.00 217.20 138.96 218.17 Z M 138.90 219.17 L 138.86 220.15 C 138.81 221.13 139.57 221.96 140.55 222.01 C 141.53 222.06 142.36 221.30 142.41 220.32 L 142.46 219.34 C 142.50 218.36 141.74 217.52 140.76 217.48 C 139.78 217.43 138.95 218.19 138.90 219.17 Z M 138.86 220.15 L 138.81 221.12 C 138.77 222.10 139.52 222.94 140.51 222.98 C 141.49 223.03 142.32 222.27 142.37 221.29 L 142.41 220.32 C 142.46 219.33 141.70 218.50 140.72 218.46 C 139.73 218.41 138.90 219.17 138.86 220.15 Z M 138.81 221.12 L 138.76 222.08 C 138.72 223.07 139.48 223.90 140.46 223.94 C 141.45 223.99 142.28 223.23 142.33 222.25 L 142.37 221.29 C 142.41 220.30 141.65 219.47 140.67 219.42 C 139.69 219.38 138.85 220.14 138.81 221.12 Z M 138.76 222.08 L 138.72 223.09 C 138.67 224.08 139.44 224.91 140.42 224.96 C 141.40 225.00 142.24 224.24 142.28 223.25 L 142.33 222.24 C 142.37 221.26 141.61 220.43 140.62 220.38 C 139.64 220.34 138.81 221.10 138.76 222.08 Z M 138.72 223.09 L 138.67 224.16 C 138.63 225.15 139.39 225.98 140.37 226.03 C 141.36 226.07 142.19 225.31 142.24 224.32 L 142.28 223.25 C 142.33 222.27 141.56 221.43 140.58 221.39 C 139.59 221.35 138.76 222.11 138.72 223.09 Z M 138.67 224.16 L 138.62 225.21 C 138.58 226.20 139.34 227.03 140.33 227.08 C 141.31 227.12 142.15 226.35 142.19 225.37 L 142.24 224.32 C 142.28 223.33 141.52 222.50 140.53 222.46 C 139.55 222.42 138.71 223.18 138.67 224.16 Z M 138.62 225.22 L 138.58 226.25 C 138.54 227.23 139.30 228.07 140.29 228.11 C 141.27 228.15 142.10 227.39 142.15 226.40 L 142.19 225.37 C 142.23 224.38 141.47 223.55 140.48 223.51 C 139.50 223.47 138.67 224.23 138.62 225.22 Z M 138.58 226.25 L 138.54 227.26 C 138.49 228.25 139.26 229.08 140.24 229.12 C 141.23 229.17 142.06 228.40 142.10 227.41 L 142.15 226.40 C 142.19 225.41 141.42 224.58 140.44 224.54 C 139.45 224.50 138.62 225.26 138.58 226.25 Z M 138.53 227.27 L 138.49 228.26 C 138.45 229.25 139.22 230.08 140.20 230.12 C 141.19 230.16 142.02 229.40 142.06 228.41 L 142.10 227.41 C 142.14 226.43 141.38 225.60 140.39 225.55 C 139.41 225.51 138.58 226.28 138.53 227.27 Z M 138.49 228.26 L 138.45 229.24 C 138.41 230.23 139.18 231.06 140.16 231.10 C 141.15 231.14 141.98 230.37 142.02 229.39 L 142.06 228.41 C 142.10 227.42 141.34 226.59 140.35 226.55 C 139.37 226.51 138.53 227.28 138.49 228.26 Z M 138.45 229.24 L 138.41 230.20 C 138.37 231.19 139.14 232.02 140.13 232.06 C 141.11 232.10 141.94 231.33 141.98 230.34 L 142.02 229.39 C 142.06 228.40 141.30 227.57 140.31 227.53 C 139.32 227.49 138.49 228.26 138.45 229.24 Z M 138.41 230.20 L 138.38 231.14 C 138.34 232.13 139.11 232.96 140.09 233.00 C 141.08 233.04 141.91 232.27 141.95 231.28 L 141.98 230.34 C 142.02 229.36 141.26 228.53 140.27 228.49 C 139.28 228.45 138.45 229.22 138.41 230.20 Z M 138.38 231.15 L 138.34 232.07 C 138.30 233.05 139.07 233.88 140.06 233.92 C 141.04 233.96 141.87 233.19 141.91 232.21 L 141.95 231.28 C 141.99 230.30 141.22 229.47 140.23 229.43 C 139.25 229.39 138.42 230.16 138.38 231.15 Z M 138.34 232.07 L 138.30 233.12 C 138.26 234.11 139.03 234.94 140.02 234.97 C 141.01 235.01 141.84 234.24 141.87 233.25 L 141.91 232.20 C 141.95 231.22 141.18 230.39 140.19 230.35 C 139.21 230.31 138.38 231.08 138.34 232.07 Z M 138.30 233.12 L 138.26 234.16 C 138.23 235.15 139.00 235.98 139.98 236.02 C 140.97 236.05 141.80 235.28 141.84 234.29 L 141.87 233.25 C 141.91 232.27 141.14 231.44 140.15 231.40 C 139.16 231.36 138.34 232.14 138.30 233.12 Z M 138.26 234.17 L 138.22 235.19 C 138.19 236.18 138.96 237.00 139.95 237.04 C 140.94 237.07 141.77 236.30 141.80 235.31 L 141.84 234.29 C 141.87 233.30 141.10 232.47 140.11 232.44 C 139.12 232.41 138.29 233.18 138.26 234.17 Z M 138.22 235.19 L 138.19 236.19 C 138.16 237.18 138.93 238.01 139.92 238.04 C 140.91 238.07 141.74 237.30 141.77 236.31 L 141.80 235.31 C 141.84 234.32 141.06 233.49 140.07 233.46 C 139.08 233.43 138.26 234.20 138.22 235.19 Z M 138.19 236.20 L 138.16 237.18 C 138.13 238.17 138.91 239.00 139.90 239.03 C 140.89 239.06 141.71 238.28 141.74 237.29 L 141.77 236.31 C 141.80 235.32 141.02 234.49 140.03 234.46 C 139.05 234.43 138.22 235.21 138.19 236.20 Z M 138.16 237.19 L 138.13 238.16 C 138.11 239.15 138.89 239.98 139.88 240.01 C 140.87 240.03 141.69 239.25 141.72 238.26 L 141.74 237.29 C 141.77 236.30 140.99 235.47 140.00 235.45 C 139.01 235.42 138.19 236.20 138.16 237.19 Z M 138.13 238.17 L 138.11 239.13 C 138.08 240.12 138.87 240.95 139.86 240.97 C 140.85 240.99 141.67 240.21 141.70 239.22 L 141.72 238.25 C 141.74 237.26 140.96 236.44 139.97 236.42 C 138.98 236.39 138.15 237.18 138.13 238.17 Z M 138.11 239.14 L 138.09 240.10 C 138.07 241.09 138.86 241.91 139.85 241.93 C 140.84 241.95 141.66 241.16 141.68 240.17 L 141.70 239.21 C 141.72 238.22 140.93 237.40 139.94 237.38 C 138.95 237.36 138.13 238.15 138.11 239.14 Z M 138.09 240.10 L 138.07 241.16 C 138.05 242.15 138.85 242.97 139.84 242.98 C 140.83 243.00 141.65 242.20 141.66 241.21 L 141.68 240.16 C 141.70 239.17 140.90 238.35 139.91 238.34 C 138.92 238.32 138.10 239.11 138.09 240.10 Z M 138.07 241.16 L 138.06 242.22 C 138.05 243.22 138.84 244.03 139.83 244.04 C 140.83 244.05 141.64 243.26 141.65 242.27 L 141.66 241.21 C 141.67 240.21 140.88 239.40 139.89 239.39 C 138.90 239.38 138.08 240.17 138.07 241.16 Z M 138.06 242.23 L 138.05 243.27 C 138.04 244.27 138.84 245.08 139.83 245.09 C 140.82 245.09 141.63 244.30 141.64 243.30 L 141.65 242.26 C 141.66 241.27 140.86 240.46 139.87 240.45 C 138.88 240.44 138.07 241.24 138.06 242.23 Z M 138.05 243.28 L 138.05 244.30 C 138.04 245.29 138.84 246.10 139.83 246.11 C 140.82 246.11 141.63 245.31 141.64 244.32 L 141.64 243.30 C 141.65 242.31 140.85 241.50 139.86 241.49 C 138.86 241.49 138.06 242.29 138.05 243.28 Z M 138.05 244.30 L 138.04 245.29 C 138.04 246.29 138.84 247.09 139.83 247.09 C 140.82 247.10 141.63 246.30 141.63 245.31 L 141.64 244.31 C 141.64 243.32 140.84 242.52 139.85 242.51 C 138.85 242.51 138.05 243.31 138.05 244.30 Z M 138.04 245.30 L 138.04 246.25 C 138.04 247.24 138.84 248.05 139.83 248.05 C 140.83 248.05 141.63 247.25 141.63 246.26 L 141.63 245.30 C 141.63 244.31 140.83 243.51 139.84 243.51 C 138.85 243.50 138.04 244.31 138.04 245.30 Z M 138.04 246.25 L 138.04 247.16 C 138.04 248.15 138.85 248.96 139.84 248.96 C 140.83 248.96 141.63 248.16 141.63 247.16 L 141.63 246.25 C 141.63 245.26 140.83 244.46 139.84 244.46 C 138.85 244.46 138.04 245.26 138.04 246.25 Z M 138.04 247.16 L 138.04 248.23 C 138.04 249.22 138.85 250.02 139.84 250.02 C 140.83 250.02 141.63 249.21 141.63 248.22 L 141.63 247.16 C 141.63 246.17 140.83 245.37 139.84 245.37 C 138.85 245.37 138.04 246.17 138.04 247.16 Z M 138.04 248.23 L 138.05 249.31 C 138.05 250.30 138.86 251.10 139.85 251.10 C 140.84 251.09 141.64 250.29 141.64 249.30 L 141.63 248.22 C 141.63 247.23 140.82 246.43 139.83 246.43 C 138.84 246.43 138.04 247.24 138.04 248.23 Z M 138.04 249.33 L 138.06 250.34 C 138.07 251.33 138.88 252.12 139.88 252.11 C 140.87 252.10 141.66 251.28 141.65 250.29 L 141.64 249.28 C 141.62 248.29 140.81 247.49 139.82 247.51 C 138.83 247.52 138.03 248.33 138.04 249.33 Z M 138.06 250.36 L 138.08 251.32 C 138.11 252.31 138.94 253.09 139.93 253.06 C 140.92 253.04 141.71 252.21 141.68 251.22 L 141.65 250.26 C 141.62 249.27 140.79 248.49 139.80 248.52 C 138.81 248.54 138.03 249.37 138.06 250.36 Z M 138.08 251.36 L 138.13 252.28 C 138.18 253.27 139.03 254.03 140.02 253.98 C 141.01 253.93 141.78 253.08 141.72 252.09 L 141.68 251.18 C 141.63 250.18 140.78 249.42 139.79 249.47 C 138.80 249.52 138.03 250.37 138.08 251.36 Z M 138.13 252.33 L 138.21 253.29 C 138.29 254.28 139.16 255.01 140.15 254.93 C 141.14 254.85 141.88 253.98 141.80 252.99 L 141.72 252.04 C 141.64 251.05 140.77 250.31 139.78 250.39 C 138.79 250.47 138.05 251.34 138.13 252.33 Z M 138.22 253.35 L 138.34 254.39 C 138.46 255.37 139.36 256.08 140.34 255.96 C 141.33 255.84 142.03 254.95 141.92 253.96 L 141.79 252.93 C 141.67 251.94 140.78 251.24 139.79 251.35 C 138.81 251.47 138.10 252.37 138.22 253.35 Z M 138.35 254.45 L 138.51 255.46 C 138.67 256.44 139.59 257.11 140.57 256.95 C 141.55 256.79 142.22 255.87 142.06 254.89 L 141.90 253.89 C 141.75 252.91 140.83 252.24 139.85 252.40 C 138.87 252.55 138.20 253.47 138.35 254.45 Z M 138.53 255.53 L 138.72 256.49 C 138.91 257.46 139.86 258.09 140.83 257.90 C 141.80 257.71 142.43 256.76 142.24 255.79 L 142.05 254.83 C 141.86 253.85 140.91 253.22 139.94 253.41 C 138.97 253.61 138.33 254.55 138.53 255.53 Z M 138.74 256.56 L 138.96 257.48 C 139.19 258.44 140.16 259.04 141.12 258.80 C 142.08 258.57 142.68 257.60 142.44 256.64 L 142.22 255.72 C 141.99 254.76 141.02 254.17 140.06 254.40 C 139.10 254.63 138.50 255.60 138.74 256.56 Z M 138.98 257.56 L 139.27 258.55 C 139.54 259.51 140.53 260.06 141.48 259.78 C 142.44 259.51 142.99 258.51 142.71 257.56 L 142.42 256.56 C 142.15 255.61 141.16 255.06 140.21 255.34 C 139.25 255.61 138.70 256.60 138.98 257.56 Z M 139.29 258.62 L 139.60 259.58 C 139.92 260.52 140.93 261.03 141.87 260.72 C 142.81 260.40 143.32 259.39 143.01 258.45 L 142.69 257.49 C 142.38 256.55 141.36 256.04 140.42 256.36 C 139.48 256.67 138.97 257.69 139.29 258.62 Z M 139.62 259.63 L 139.96 260.55 C 140.30 261.48 141.33 261.96 142.26 261.62 C 143.19 261.28 143.67 260.25 143.33 259.32 L 142.99 258.40 C 142.65 257.47 141.62 256.99 140.69 257.33 C 139.76 257.67 139.28 258.70 139.62 259.63 Z M 139.97 260.57 L 140.28 261.40 C 140.63 262.33 141.67 262.79 142.60 262.44 C 143.53 262.08 143.99 261.05 143.64 260.12 L 143.32 259.29 C 142.97 258.37 141.93 257.90 141.00 258.26 C 140.08 258.61 139.61 259.65 139.97 260.57 Z"
      fill="black"
      fill-rule="nonzero" /></svg>