<svg xmlns="http://www.w3.org/2000/svg" width="300" height="300" viewBox="0 0 300 300">
<path d="M 126.62 137.83 L 126.74 138.86 C 126.84 139.72 127.61 140.33 128.47 140.23 C 129.33 140.13 129.94 139.35 129.84 138.49 L 129.72 137.47 C 129.62 136.61 128.84 136.00 127.98 136.10 C 127.13 136.20 126.51 136.98 126.62 137.83 Z M 126.74 138.90 L 126.88 139.91 C 127.01 140.76 127.80 141.36 128.65 141.24 C 129.50 141.12 130.10 140.33 129.98 139.47 L 129.83 138.46 C 129.71 137.61 128.92 137.01 128.07 137.13 C 127.21 137.25 126.62 138.04 126.74 138.90 Z M 126.90 139.98 L 127.08 140.96 C 127.25 141.81 128.06 142.37 128.91 142.21 C 129.76 142.04 130.31 141.23 130.15 140.38 L 129.96 139.40 C 129.80 138.55 128.99 138.00 128.14 138.16 C 127.29 138.32 126.74 139.14 126.90 139.98 Z M 127.11 141.08 L 127.36 142.01 C 127.59 142.85 128.45 143.34 129.28 143.11 C 130.11 142.89 130.60 142.03 130.38 141.20 L 130.12 140.26 C 129.90 139.43 129.04 138.94 128.21 139.17 C 127.38 139.39 126.89 140.25 127.11 141.08 Z M 127.42 142.18 L 127.77 143.08 C 128.09 143.88 128.99 144.28 129.80 143.96 C 130.60 143.65 130.99 142.74 130.68 141.94 L 130.32 141.03 C 130.01 140.23 129.10 139.84 128.30 140.15 C 127.50 140.47 127.10 141.37 127.42 142.18 Z M 127.85 143.25 L 128.32 144.12 C 128.73 144.88 129.68 145.17 130.44 144.76 C 131.20 144.35 131.48 143.40 131.07 142.64 L 130.60 141.77 C 130.19 141.01 129.24 140.73 128.48 141.14 C 127.73 141.55 127.44 142.49 127.85 143.25 Z M 128.40 144.25 L 128.95 145.07 C 129.43 145.79 130.40 145.98 131.11 145.50 C 131.83 145.02 132.02 144.06 131.54 143.34 L 130.99 142.52 C 130.52 141.80 129.55 141.61 128.83 142.08 C 128.11 142.56 127.92 143.53 128.40 144.25 Z M 129.00 145.15 L 129.61 145.95 C 130.13 146.63 131.11 146.77 131.79 146.25 C 132.48 145.73 132.62 144.75 132.10 144.06 L 131.49 143.26 C 130.97 142.58 129.99 142.44 129.30 142.96 C 128.62 143.48 128.48 144.46 129.00 145.15 Z M 129.63 145.98 L 130.25 146.75 C 130.78 147.43 131.77 147.54 132.44 147.00 C 133.12 146.46 133.23 145.48 132.69 144.81 L 132.07 144.03 C 131.53 143.36 130.55 143.25 129.88 143.78 C 129.20 144.32 129.09 145.30 129.63 145.98 Z M 130.25 146.76 L 130.85 147.50 C 131.39 148.18 132.37 148.28 133.05 147.74 C 133.72 147.21 133.83 146.22 133.29 145.55 L 132.69 144.80 C 132.15 144.13 131.16 144.02 130.49 144.56 C 129.82 145.10 129.71 146.08 130.25 146.76 Z M 130.85 147.51 L 131.47 148.27 C 132.01 148.94 132.99 149.05 133.66 148.51 C 134.34 147.97 134.44 146.99 133.90 146.32 L 133.28 145.55 C 132.74 144.88 131.76 144.77 131.09 145.31 C 130.42 145.85 130.31 146.83 130.85 147.51 Z M 131.47 148.27 L 132.11 149.06 C 132.65 149.74 133.63 149.84 134.30 149.30 C 134.97 148.76 135.08 147.78 134.54 147.10 L 133.90 146.31 C 133.36 145.64 132.38 145.54 131.71 146.08 C 131.03 146.62 130.93 147.60 131.47 148.27 Z M 132.11 149.06 L 132.77 149.88 C 133.31 150.55 134.29 150.66 134.96 150.12 C 135.63 149.58 135.74 148.59 135.20 147.92 L 134.54 147.10 C 134.00 146.43 133.01 146.33 132.34 146.87 C 131.67 147.41 131.57 148.39 132.11 149.06 Z M 132.77 149.88 L 133.36 150.62 C 133.90 151.29 134.89 151.40 135.56 150.86 C 136.23 150.31 136.33 149.33 135.79 148.66 L 135.20 147.92 C 134.66 147.25 133.67 147.14 133.00 147.69 C 132.33 148.23 132.22 149.21 132.77 149.88 Z M 133.36 150.62 L 133.96 151.36 C 134.50 152.04 135.48 152.14 136.16 151.60 C 136.83 151.06 136.93 150.08 136.39 149.41 L 135.79 148.66 C 135.25 147.99 134.27 147.88 133.60 148.42 C 132.93 148.97 132.82 149.95 133.36 150.62 Z M 133.96 151.36 L 134.58 152.13 C 135.11 152.80 136.10 152.91 136.77 152.37 C 137.44 151.84 137.55 150.85 137.01 150.18 L 136.39 149.41 C 135.86 148.74 134.87 148.63 134.20 149.17 C 133.53 149.71 133.42 150.69 133.96 151.36 Z M 134.57 152.13 L 135.21 152.93 C 135.75 153.60 136.73 153.71 137.40 153.18 C 138.08 152.64 138.19 151.66 137.65 150.98 L 137.02 150.18 C 136.48 149.51 135.50 149.40 134.82 149.93 C 134.15 150.47 134.04 151.45 134.57 152.13 Z M 135.21 152.92 L 135.86 153.75 C 136.39 154.43 137.38 154.54 138.05 154.01 C 138.73 153.48 138.85 152.49 138.31 151.82 L 137.66 150.99 C 137.12 150.31 136.14 150.20 135.46 150.73 C 134.79 151.26 134.67 152.25 135.21 152.92 Z M 135.86 153.75 L 136.48 154.55 C 137.01 155.23 137.99 155.35 138.67 154.81 C 139.35 154.28 139.47 153.30 138.94 152.62 L 138.32 151.82 C 137.78 151.14 136.80 151.02 136.12 151.56 C 135.44 152.09 135.32 153.07 135.86 153.75 Z M 136.48 154.54 L 137.08 155.31 C 137.60 155.99 138.58 156.12 139.27 155.59 C 139.95 155.06 140.07 154.08 139.54 153.40 L 138.95 152.63 C 138.42 151.95 137.44 151.82 136.75 152.35 C 136.07 152.88 135.95 153.86 136.48 154.54 Z M 137.07 155.31 L 137.68 156.09 C 138.20 156.78 139.19 156.90 139.87 156.38 C 140.55 155.85 140.68 154.87 140.15 154.19 L 139.54 153.40 C 139.02 152.72 138.04 152.59 137.36 153.12 C 136.67 153.64 136.55 154.62 137.07 155.31 Z M 137.68 156.09 L 138.29 156.89 C 138.81 157.57 139.79 157.70 140.48 157.18 C 141.16 156.65 141.29 155.67 140.77 154.99 L 140.15 154.19 C 139.63 153.51 138.65 153.38 137.96 153.90 C 137.28 154.43 137.15 155.41 137.68 156.09 Z M 138.29 156.89 L 138.90 157.70 C 139.43 158.38 140.41 158.51 141.09 157.99 C 141.78 157.47 141.91 156.49 141.39 155.80 L 140.77 154.99 C 140.25 154.31 139.27 154.18 138.58 154.70 C 137.90 155.22 137.76 156.20 138.29 156.89 Z M 138.90 157.69 L 139.52 158.51 C 140.04 159.19 141.02 159.33 141.71 158.80 C 142.40 158.28 142.53 157.30 142.01 156.61 L 141.39 155.80 C 140.87 155.12 139.89 154.98 139.20 155.51 C 138.51 156.03 138.38 157.01 138.90 157.69 Z M 139.52 158.51 L 140.13 159.31 C 140.65 159.99 141.63 160.13 142.32 159.61 C 143.00 159.08 143.14 158.11 142.62 157.42 L 142.01 156.62 C 141.48 155.93 140.51 155.80 139.82 156.32 C 139.13 156.84 139.00 157.82 139.52 158.51 Z M 140.13 159.31 L 140.73 160.09 C 141.25 160.78 142.23 160.92 142.91 160.40 C 143.60 159.87 143.74 158.90 143.22 158.21 L 142.62 157.42 C 142.10 156.73 141.12 156.60 140.43 157.12 C 139.74 157.64 139.61 158.62 140.13 159.31 Z M 140.73 160.09 L 141.32 160.88 C 141.84 161.57 142.82 161.71 143.51 161.19 C 144.20 160.67 144.33 159.69 143.81 159.00 L 143.22 158.21 C 142.70 157.52 141.72 157.39 141.03 157.91 C 140.34 158.43 140.21 159.41 140.73 160.09 Z M 141.32 160.88 L 141.92 161.67 C 142.44 162.36 143.41 162.50 144.10 161.98 C 144.79 161.46 144.93 160.48 144.41 159.80 L 143.82 159.00 C 143.30 158.31 142.32 158.17 141.63 158.69 C 140.94 159.21 140.80 160.19 141.32 160.88 Z M 141.91 161.67 L 142.51 162.47 C 143.03 163.16 144.01 163.30 144.70 162.78 C 145.39 162.27 145.53 161.29 145.01 160.60 L 144.41 159.80 C 143.90 159.11 142.92 158.97 142.23 159.48 C 141.54 160.00 141.40 160.98 141.91 161.67 Z M 142.51 162.47 L 143.11 163.28 C 143.63 163.97 144.60 164.11 145.30 163.60 C 145.99 163.09 146.13 162.11 145.62 161.42 L 145.02 160.60 C 144.50 159.91 143.52 159.77 142.83 160.28 C 142.14 160.80 142.00 161.77 142.51 162.47 Z M 143.11 163.27 L 143.71 164.09 C 144.22 164.79 145.20 164.93 145.90 164.42 C 146.59 163.91 146.74 162.93 146.23 162.24 L 145.62 161.42 C 145.11 160.73 144.13 160.58 143.44 161.09 C 142.75 161.60 142.60 162.58 143.11 163.27 Z M 143.71 164.09 L 144.28 164.87 C 144.79 165.57 145.77 165.72 146.47 165.21 C 147.16 164.70 147.31 163.73 146.80 163.03 L 146.23 162.25 C 145.72 161.55 144.75 161.40 144.05 161.91 C 143.35 162.41 143.20 163.39 143.71 164.09 Z M 144.28 164.87 L 144.86 165.67 C 145.37 166.36 146.34 166.52 147.04 166.01 C 147.74 165.51 147.89 164.53 147.39 163.83 L 146.81 163.03 C 146.30 162.34 145.32 162.18 144.63 162.69 C 143.93 163.19 143.77 164.17 144.28 164.87 Z M 144.86 165.66 L 145.44 166.47 C 145.95 167.17 146.92 167.33 147.62 166.82 C 148.32 166.32 148.48 165.34 147.97 164.64 L 147.39 163.83 C 146.88 163.14 145.91 162.98 145.21 163.48 C 144.51 163.99 144.35 164.97 144.86 165.66 Z M 145.44 166.47 L 146.03 167.29 C 146.53 167.98 147.51 168.14 148.21 167.64 C 148.91 167.13 149.07 166.16 148.56 165.46 L 147.97 164.64 C 147.47 163.94 146.49 163.79 145.79 164.29 C 145.09 164.80 144.94 165.77 145.44 166.47 Z M 146.03 167.29 L 146.62 168.11 C 147.13 168.81 148.10 168.96 148.80 168.46 C 149.50 167.95 149.66 166.98 149.15 166.28 L 148.56 165.46 C 148.06 164.76 147.08 164.60 146.38 165.11 C 145.68 165.61 145.53 166.59 146.03 167.29 Z M 146.62 168.11 L 147.22 168.93 C 147.72 169.63 148.70 169.79 149.40 169.28 C 150.10 168.78 150.25 167.80 149.75 167.10 L 149.15 166.28 C 148.65 165.58 147.67 165.42 146.97 165.93 C 146.27 166.43 146.12 167.41 146.62 168.11 Z M 147.22 168.93 L 147.81 169.75 C 148.32 170.45 149.30 170.61 149.99 170.10 C 150.69 169.59 150.85 168.62 150.34 167.92 L 149.75 167.10 C 149.24 166.40 148.27 166.25 147.57 166.75 C 146.87 167.26 146.71 168.24 147.22 168.93 Z M 147.82 169.76 L 148.40 170.56 C 148.91 171.25 149.89 171.41 150.58 170.90 C 151.28 170.39 151.43 169.41 150.92 168.72 L 150.34 167.92 C 149.83 167.22 148.85 167.07 148.16 167.57 C 147.46 168.08 147.31 169.06 147.82 169.76 Z M 148.40 170.56 L 148.99 171.36 C 149.51 172.06 150.48 172.21 151.18 171.70 C 151.87 171.19 152.02 170.21 151.51 169.51 L 150.92 168.71 C 150.41 168.02 149.43 167.87 148.74 168.38 C 148.04 168.89 147.89 169.87 148.40 170.56 Z M 149.00 171.37 L 149.59 172.17 C 150.11 172.86 151.09 173.01 151.78 172.49 C 152.47 171.98 152.61 171.00 152.10 170.31 L 151.50 169.51 C 150.99 168.82 150.01 168.67 149.32 169.19 C 148.63 169.70 148.48 170.68 149.00 171.37 Z M 149.60 172.18 L 150.20 172.98 C 150.72 173.67 151.70 173.80 152.39 173.29 C 153.08 172.77 153.21 171.79 152.70 171.10 L 152.09 170.30 C 151.58 169.61 150.60 169.47 149.91 169.99 C 149.22 170.51 149.08 171.49 149.60 172.18 Z M 150.21 172.99 L 150.82 173.78 C 151.34 174.47 152.32 174.60 153.01 174.08 C 153.69 173.55 153.82 172.57 153.30 171.89 L 152.69 171.09 C 152.17 170.41 151.19 170.27 150.50 170.80 C 149.82 171.32 149.68 172.30 150.21 172.99 Z M 150.83 173.79 L 151.44 174.59 C 151.97 175.27 152.95 175.39 153.64 174.86 C 154.32 174.33 154.44 173.35 153.91 172.67 L 153.29 171.88 C 152.76 171.20 151.78 171.07 151.10 171.60 C 150.42 172.13 150.30 173.11 150.83 173.79 Z M 151.45 174.60 L 152.08 175.39 C 152.61 176.06 153.60 176.18 154.27 175.64 C 154.95 175.11 155.06 174.12 154.52 173.45 L 153.90 172.66 C 153.36 171.99 152.38 171.87 151.71 172.41 C 151.03 172.94 150.92 173.93 151.45 174.60 Z M 152.09 175.40 L 152.72 176.18 C 153.26 176.85 154.24 176.95 154.91 176.41 C 155.58 175.87 155.69 174.88 155.14 174.21 L 154.51 173.44 C 153.97 172.77 152.99 172.66 152.32 173.21 C 151.65 173.75 151.55 174.73 152.09 175.40 Z M 152.73 176.19 L 153.37 176.96 C 153.92 177.63 154.90 177.72 155.57 177.17 C 156.23 176.62 156.32 175.64 155.77 174.97 L 155.13 174.20 C 154.58 173.54 153.60 173.44 152.94 173.99 C 152.27 174.54 152.18 175.53 152.73 176.19 Z M 153.38 176.98 L 154.03 177.74 C 154.58 178.40 155.57 178.48 156.23 177.93 C 156.88 177.37 156.97 176.38 156.41 175.73 L 155.76 174.96 C 155.21 174.30 154.22 174.22 153.56 174.78 C 152.90 175.33 152.82 176.32 153.38 176.98 Z M 154.04 177.76 L 154.69 178.51 C 155.26 179.17 156.24 179.24 156.90 178.67 C 157.55 178.11 157.62 177.12 157.05 176.47 L 156.40 175.71 C 155.83 175.06 154.85 174.99 154.20 175.55 C 153.54 176.12 153.47 177.10 154.04 177.76 Z M 154.71 178.53 L 155.37 179.28 C 155.94 179.92 156.93 179.98 157.57 179.41 C 158.22 178.84 158.28 177.85 157.71 177.21 L 157.04 176.46 C 156.47 175.81 155.48 175.75 154.84 176.32 C 154.19 176.90 154.13 177.88 154.71 178.53 Z M 155.38 179.29 L 156.05 180.03 C 156.63 180.67 157.62 180.72 158.26 180.14 C 158.89 179.56 158.94 178.57 158.36 177.93 L 157.69 177.19 C 157.11 176.55 156.13 176.51 155.49 177.09 C 154.85 177.66 154.80 178.65 155.38 179.29 Z M 156.06 180.04 L 156.74 180.77 C 157.33 181.40 158.32 181.44 158.95 180.85 C 159.58 180.26 159.62 179.28 159.03 178.64 L 158.35 177.92 C 157.76 177.28 156.77 177.25 156.14 177.84 C 155.51 178.42 155.48 179.41 156.06 180.04 Z M 156.76 180.79 L 157.44 181.51 C 158.04 182.13 159.03 182.15 159.65 181.56 C 160.28 180.96 160.30 179.97 159.70 179.35 L 159.01 178.63 C 158.42 178.01 157.43 177.98 156.81 178.58 C 156.18 179.18 156.16 180.16 156.76 180.79 Z M 157.46 181.52 L 158.16 182.23 C 158.76 182.85 159.75 182.85 160.36 182.25 C 160.98 181.64 160.99 180.66 160.38 180.04 L 159.69 179.33 C 159.08 178.72 158.09 178.71 157.48 179.31 C 156.86 179.92 156.86 180.91 157.46 181.52 Z M 158.17 182.25 L 158.88 182.94 C 159.49 183.55 160.48 183.54 161.09 182.93 C 161.69 182.32 161.69 181.33 161.07 180.72 L 160.37 180.03 C 159.75 179.42 158.77 179.43 158.16 180.04 C 157.55 180.65 157.56 181.64 158.17 182.25 Z M 158.89 182.96 L 159.61 183.65 C 160.23 184.25 161.22 184.23 161.82 183.61 C 162.42 182.98 162.40 182.00 161.78 181.40 L 161.06 180.71 C 160.44 180.11 159.45 180.13 158.85 180.75 C 158.25 181.37 158.27 182.36 158.89 182.96 Z M 159.63 183.67 L 160.36 184.35 C 160.99 184.94 161.98 184.90 162.57 184.27 C 163.16 183.64 163.12 182.65 162.49 182.07 L 161.76 181.38 C 161.13 180.79 160.14 180.83 159.55 181.46 C 158.96 182.09 159.00 183.08 159.63 183.67 Z M 160.38 184.36 L 161.13 185.04 C 161.76 185.62 162.75 185.57 163.33 184.93 C 163.91 184.29 163.86 183.31 163.22 182.73 L 162.47 182.05 C 161.84 181.47 160.85 181.52 160.27 182.16 C 159.69 182.80 159.74 183.78 160.38 184.36 Z M 161.14 185.06 L 161.90 185.73 C 162.55 186.30 163.54 186.23 164.11 185.59 C 164.68 184.94 164.61 183.95 163.97 183.38 L 163.21 182.71 C 162.56 182.14 161.57 182.21 161.00 182.85 C 160.43 183.50 160.49 184.49 161.14 185.06 Z M 161.92 185.74 L 162.69 186.40 C 163.34 186.96 164.33 186.88 164.89 186.23 C 165.45 185.57 165.37 184.59 164.72 184.03 L 163.95 183.37 C 163.29 182.81 162.31 182.88 161.75 183.54 C 161.19 184.19 161.26 185.18 161.92 185.74 Z M 162.70 186.41 L 163.49 187.06 C 164.15 187.61 165.13 187.52 165.68 186.86 C 166.24 186.20 166.14 185.21 165.48 184.66 L 164.70 184.01 C 164.04 183.46 163.05 183.55 162.50 184.21 C 161.95 184.88 162.04 185.86 162.70 186.41 Z M 163.50 187.08 L 164.29 187.71 C 164.96 188.26 165.95 188.15 166.49 187.48 C 167.03 186.81 166.93 185.83 166.25 185.28 L 165.46 184.65 C 164.79 184.11 163.81 184.21 163.27 184.88 C 162.73 185.55 162.83 186.54 163.50 187.08 Z M 164.31 187.73 L 165.11 188.35 C 165.79 188.88 166.77 188.76 167.30 188.08 C 167.83 187.40 167.71 186.42 167.03 185.89 L 166.24 185.27 C 165.56 184.74 164.57 184.86 164.04 185.54 C 163.51 186.22 163.63 187.20 164.31 187.73 Z M 165.13 188.37 L 165.92 188.97 C 166.61 189.49 167.59 189.35 168.11 188.66 C 168.63 187.98 168.49 187.00 167.81 186.48 L 167.01 185.88 C 166.32 185.36 165.34 185.49 164.82 186.18 C 164.30 186.87 164.44 187.85 165.13 188.37 Z M 165.95 188.98 L 166.74 189.56 C 167.43 190.07 168.41 189.91 168.92 189.22 C 169.43 188.52 169.27 187.54 168.58 187.04 L 167.78 186.46 C 167.09 185.95 166.11 186.11 165.60 186.80 C 165.09 187.50 165.25 188.48 165.95 188.98 Z M 166.76 189.58 L 167.57 190.14 C 168.28 190.64 169.25 190.46 169.74 189.76 C 170.24 189.05 170.06 188.08 169.36 187.58 L 168.55 187.02 C 167.84 186.52 166.87 186.70 166.38 187.40 C 165.88 188.11 166.06 189.09 166.76 189.58 Z M 167.60 190.16 L 168.47 190.74 C 169.19 191.22 170.16 191.03 170.64 190.31 C 171.11 189.59 170.92 188.62 170.20 188.14 L 169.33 187.56 C 168.61 187.08 167.64 187.28 167.16 188.00 C 166.68 188.71 166.88 189.68 167.60 190.16 Z M 168.49 190.76 L 169.35 191.31 C 170.08 191.78 171.05 191.56 171.52 190.83 C 171.98 190.10 171.77 189.14 171.04 188.67 L 170.18 188.12 C 169.45 187.66 168.48 187.87 168.01 188.60 C 167.55 189.33 167.76 190.30 168.49 190.76 Z M 169.37 191.33 L 170.22 191.85 C 170.96 192.31 171.93 192.08 172.38 191.34 C 172.84 190.60 172.61 189.63 171.87 189.18 L 171.02 188.65 C 170.28 188.20 169.31 188.43 168.85 189.17 C 168.40 189.91 168.63 190.88 169.37 191.33 Z M 170.24 191.87 L 171.08 192.37 C 171.83 192.82 172.80 192.57 173.24 191.82 C 173.69 191.08 173.44 190.11 172.70 189.66 L 171.85 189.16 C 171.10 188.72 170.14 188.96 169.69 189.71 C 169.25 190.46 169.49 191.42 170.24 191.87 Z M 171.09 192.38 L 171.93 192.87 C 172.69 193.31 173.65 193.06 174.09 192.30 C 174.53 191.55 174.28 190.58 173.53 190.14 L 172.68 189.65 C 171.93 189.21 170.97 189.47 170.53 190.22 C 170.09 190.98 170.34 191.94 171.09 192.38 Z M 171.94 192.88 L 172.78 193.36 C 173.53 193.80 174.50 193.54 174.94 192.78 C 175.37 192.02 175.12 191.06 174.36 190.62 L 173.52 190.14 C 172.76 189.70 171.80 189.96 171.36 190.72 C 170.92 191.47 171.18 192.44 171.94 192.88 Z M 172.78 193.36 L 172.86 193.41 C 173.62 193.85 174.59 193.59 175.03 192.83 C 175.46 192.07 175.20 191.10 174.44 190.67 L 174.36 190.62 C 173.60 190.18 172.63 190.44 172.19 191.20 C 171.76 191.96 172.02 192.93 172.78 193.36 Z"
      fill="black"
      fill-rule="nonzero" /></svg>