<svg xmlns="http://www.w3.org/2000/svg" width="300" height="300" viewBox="0 0 300 300">
<path d="M 93.42 152.58 L 94.04 151.84 C 94.60 151.18 94.51 150.19 93.85 149.64 C 93.19 149.09 92.20 149.17 91.65 149.83 L 91.03 150.58 C 90.48 151.24 90.56 152.22 91.22 152.77 C 91.88 153.33 92.87 153.24 93.42 152.58 Z M 93.97 151.92 L 94.65 151.22 C 95.25 150.60 95.23 149.61 94.61 149.01 C 93.99 148.41 93.00 148.43 92.40 149.05 L 91.72 149.75 C 91.13 150.37 91.14 151.36 91.76 151.96 C 92.38 152.56 93.37 152.54 93.97 151.92 Z M 94.49 151.37 L 95.27 150.75 C 95.95 150.22 96.07 149.24 95.53 148.56 C 95.00 147.88 94.02 147.76 93.34 148.29 L 92.56 148.91 C 91.88 149.44 91.76 150.42 92.29 151.10 C 92.83 151.78 93.81 151.90 94.49 151.37 Z M 95.02 150.91 L 95.94 150.43 C 96.71 150.04 97.01 149.09 96.61 148.33 C 96.21 147.56 95.27 147.26 94.51 147.66 L 93.59 148.14 C 92.82 148.53 92.52 149.48 92.92 150.24 C 93.32 151.01 94.26 151.31 95.02 150.91 Z M 95.70 150.53 L 96.55 150.26 C 97.37 150.00 97.82 149.12 97.56 148.30 C 97.30 147.48 96.42 147.03 95.60 147.29 L 94.75 147.56 C 93.93 147.82 93.48 148.70 93.74 149.52 C 94.00 150.34 94.88 150.80 95.70 150.53 Z M 96.38 150.31 L 97.33 150.12 C 98.17 149.94 98.72 149.12 98.55 148.28 C 98.37 147.43 97.55 146.88 96.71 147.06 L 95.76 147.25 C 94.92 147.42 94.37 148.24 94.54 149.09 C 94.71 149.93 95.54 150.48 96.38 150.31 Z M 97.21 150.13 L 98.22 150.01 C 99.08 149.90 99.68 149.12 99.58 148.26 C 99.47 147.41 98.69 146.80 97.83 146.91 L 96.82 147.04 C 95.96 147.14 95.36 147.93 95.47 148.78 C 95.57 149.64 96.36 150.24 97.21 150.13 Z M 98.15 150.01 L 99.20 149.93 C 100.06 149.87 100.71 149.12 100.64 148.26 C 100.58 147.40 99.83 146.75 98.97 146.82 L 97.91 146.90 C 97.05 146.97 96.41 147.72 96.47 148.58 C 96.54 149.44 97.29 150.08 98.15 150.01 Z M 99.16 149.94 L 100.23 149.89 C 101.09 149.85 101.76 149.12 101.72 148.26 C 101.68 147.40 100.95 146.73 100.09 146.77 L 99.01 146.82 C 98.15 146.86 97.49 147.59 97.53 148.45 C 97.56 149.31 98.29 149.98 99.16 149.94 Z M 100.21 149.89 L 101.26 149.86 C 102.12 149.83 102.80 149.11 102.77 148.25 C 102.75 147.39 102.03 146.71 101.17 146.74 L 100.12 146.77 C 99.25 146.79 98.58 147.51 98.60 148.37 C 98.63 149.24 99.35 149.91 100.21 149.89 Z M 101.24 149.86 L 102.28 149.84 C 103.14 149.82 103.83 149.11 103.81 148.25 C 103.79 147.39 103.08 146.70 102.22 146.72 L 101.18 146.74 C 100.32 146.75 99.64 147.46 99.65 148.33 C 99.67 149.19 100.38 149.87 101.24 149.86 Z M 102.27 149.84 L 103.28 149.83 C 104.14 149.82 104.83 149.11 104.82 148.25 C 104.81 147.39 104.11 146.70 103.25 146.71 L 102.23 146.72 C 101.37 146.72 100.68 147.43 100.69 148.29 C 100.70 149.16 101.40 149.85 102.27 149.84 Z M 103.27 149.83 L 104.25 149.82 C 105.11 149.82 105.81 149.12 105.80 148.26 C 105.80 147.39 105.10 146.70 104.24 146.70 L 103.26 146.71 C 102.39 146.71 101.70 147.41 101.70 148.27 C 101.70 149.14 102.41 149.83 103.27 149.83 Z M 104.24 149.82 L 105.18 149.82 C 106.04 149.82 106.74 149.12 106.74 148.26 C 106.74 147.40 106.04 146.70 105.18 146.70 L 104.24 146.70 C 103.38 146.70 102.68 147.40 102.68 148.26 C 102.68 149.13 103.38 149.82 104.24 149.82 Z M 105.18 149.82 L 106.21 149.82 C 107.07 149.82 107.77 149.12 107.77 148.26 C 107.77 147.40 107.07 146.70 106.21 146.70 L 105.18 146.70 C 104.32 146.70 103.62 147.40 103.62 148.26 C 103.62 149.12 104.32 149.82 105.18 149.82 Z M 106.21 149.82 L 107.22 149.82 C 108.09 149.82 108.79 149.12 108.79 148.26 C 108.79 147.40 108.09 146.70 107.22 146.70 L 106.21 146.70 C 105.35 146.70 104.65 147.40 104.65 148.26 C 104.65 149.12 105.35 149.82 106.21 149.82 Z M 107.22 149.82 L 108.20 149.82 C 109.06 149.82 109.76 149.12 109.76 148.26 C 109.76 147.40 109.06 146.70 108.20 146.70 L 107.22 146.70 C 106.36 146.70 105.66 147.40 105.66 148.26 C 105.66 149.12 106.36 149.82 107.22 149.82 Z M 108.20 149.82 L 109.17 149.82 C 110.03 149.82 110.73 149.12 110.73 148.26 C 110.73 147.40 110.03 146.70 109.17 146.70 L 108.20 146.70 C 107.34 146.70 106.64 147.40 106.64 148.26 C 106.64 149.12 107.34 149.82 108.20 149.82 Z M 109.17 149.82 L 110.12 149.82 C 110.99 149.82 111.69 149.12 111.69 148.26 C 111.69 147.40 110.99 146.70 110.13 146.70 L 109.17 146.70 C 108.31 146.70 107.61 147.40 107.61 148.26 C 107.61 149.12 108.31 149.82 109.17 149.82 Z M 110.12 149.82 L 111.07 149.82 C 111.93 149.83 112.63 149.13 112.63 148.27 C 112.63 147.40 111.94 146.70 111.07 146.70 L 110.13 146.70 C 109.27 146.70 108.57 147.40 108.56 148.26 C 108.56 149.12 109.26 149.82 110.12 149.82 Z M 111.06 149.82 L 112.04 149.83 C 112.90 149.84 113.61 149.15 113.61 148.28 C 113.62 147.42 112.93 146.72 112.06 146.71 L 111.08 146.70 C 110.22 146.70 109.52 147.39 109.51 148.25 C 109.50 149.11 110.20 149.82 111.06 149.82 Z M 112.02 149.83 L 113.05 149.85 C 113.91 149.87 114.62 149.18 114.64 148.32 C 114.65 147.46 113.96 146.74 113.10 146.73 L 112.08 146.71 C 111.22 146.70 110.51 147.38 110.49 148.24 C 110.48 149.11 111.16 149.82 112.02 149.83 Z M 113.03 149.85 L 114.10 149.88 C 114.96 149.91 115.68 149.23 115.71 148.37 C 115.73 147.51 115.05 146.79 114.19 146.76 L 113.12 146.73 C 112.26 146.70 111.54 147.38 111.51 148.24 C 111.49 149.10 112.17 149.82 113.03 149.85 Z M 114.08 149.88 L 115.02 149.92 C 115.89 149.96 116.61 149.29 116.65 148.43 C 116.69 147.57 116.02 146.84 115.16 146.80 L 114.21 146.76 C 113.35 146.73 112.62 147.39 112.59 148.25 C 112.55 149.12 113.22 149.84 114.08 149.88 Z M 115.01 149.92 L 115.96 149.97 C 116.82 150.02 117.56 149.36 117.60 148.50 C 117.65 147.63 116.99 146.90 116.13 146.85 L 115.17 146.80 C 114.31 146.76 113.58 147.42 113.53 148.28 C 113.49 149.14 114.15 149.88 115.01 149.92 Z M 115.95 149.97 L 116.93 150.03 C 117.79 150.08 118.54 149.43 118.59 148.57 C 118.64 147.71 117.99 146.97 117.13 146.92 L 116.14 146.85 C 115.28 146.80 114.54 147.46 114.49 148.32 C 114.43 149.18 115.09 149.92 115.95 149.97 Z M 116.92 150.03 L 117.94 150.10 C 118.80 150.16 119.55 149.51 119.60 148.65 C 119.66 147.79 119.01 147.04 118.15 146.98 L 117.14 146.92 C 116.27 146.86 115.53 147.51 115.47 148.37 C 115.41 149.23 116.06 149.97 116.92 150.03 Z M 117.93 150.10 L 118.98 150.17 C 119.84 150.24 120.59 149.59 120.65 148.73 C 120.71 147.87 120.07 147.12 119.21 147.06 L 118.16 146.99 C 117.30 146.92 116.55 147.57 116.49 148.43 C 116.43 149.29 117.07 150.04 117.93 150.10 Z M 118.98 150.17 L 120.02 150.25 C 120.88 150.32 121.63 149.67 121.69 148.81 C 121.76 147.95 121.11 147.20 120.25 147.14 L 119.21 147.06 C 118.35 147.00 117.60 147.64 117.54 148.50 C 117.47 149.36 118.12 150.11 118.98 150.17 Z M 120.02 150.25 L 120.96 150.33 C 121.82 150.39 122.57 149.75 122.64 148.89 C 122.71 148.03 122.06 147.28 121.20 147.21 L 120.26 147.14 C 119.40 147.07 118.65 147.72 118.58 148.58 C 118.51 149.44 119.16 150.19 120.02 150.25 Z M 120.96 150.33 L 121.93 150.40 C 122.79 150.47 123.54 149.83 123.61 148.97 C 123.68 148.11 123.03 147.36 122.17 147.29 L 121.21 147.21 C 120.35 147.15 119.60 147.79 119.53 148.65 C 119.46 149.51 120.10 150.26 120.96 150.33 Z M 121.93 150.40 L 122.92 150.48 C 123.78 150.55 124.53 149.91 124.60 149.05 C 124.66 148.19 124.02 147.43 123.16 147.37 L 122.18 147.29 C 121.32 147.22 120.56 147.86 120.50 148.72 C 120.43 149.58 121.07 150.33 121.93 150.40 Z M 122.92 150.48 L 123.92 150.56 C 124.78 150.63 125.53 149.99 125.60 149.13 C 125.67 148.27 125.03 147.51 124.17 147.45 L 123.16 147.37 C 122.30 147.30 121.55 147.94 121.48 148.80 C 121.41 149.66 122.06 150.41 122.92 150.48 Z M 123.92 150.56 L 124.95 150.64 C 125.81 150.71 126.56 150.07 126.62 149.21 C 126.69 148.35 126.05 147.59 125.19 147.53 L 124.17 147.45 C 123.31 147.38 122.56 148.02 122.49 148.88 C 122.42 149.74 123.06 150.49 123.92 150.56 Z M 124.95 150.64 L 125.99 150.72 C 126.85 150.79 127.60 150.15 127.67 149.29 C 127.73 148.43 127.09 147.68 126.23 147.61 L 125.19 147.53 C 124.33 147.46 123.58 148.10 123.51 148.96 C 123.45 149.82 124.09 150.57 124.95 150.64 Z M 125.99 150.72 L 126.98 150.80 C 127.84 150.86 128.59 150.22 128.66 149.36 C 128.73 148.50 128.08 147.75 127.22 147.68 L 126.23 147.61 C 125.37 147.54 124.62 148.19 124.55 149.05 C 124.49 149.90 125.13 150.66 125.99 150.72 Z M 126.99 150.80 L 127.96 150.87 C 128.82 150.94 129.57 150.29 129.63 149.43 C 129.70 148.57 129.05 147.82 128.19 147.76 L 127.22 147.68 C 126.36 147.62 125.61 148.26 125.55 149.12 C 125.48 149.98 126.13 150.73 126.99 150.80 Z M 127.96 150.87 L 128.95 150.94 C 129.81 151.01 130.56 150.36 130.62 149.50 C 130.68 148.64 130.04 147.89 129.18 147.83 L 128.19 147.76 C 127.33 147.69 126.58 148.34 126.52 149.20 C 126.46 150.06 127.10 150.81 127.96 150.87 Z M 128.95 150.94 L 129.95 151.02 C 130.81 151.08 131.56 150.43 131.62 149.57 C 131.68 148.71 131.03 147.96 130.17 147.90 L 129.18 147.83 C 128.32 147.77 127.57 148.41 127.51 149.27 C 127.45 150.13 128.09 150.88 128.95 150.94 Z M 129.95 151.02 L 130.96 151.09 C 131.82 151.15 132.56 150.50 132.63 149.64 C 132.69 148.78 132.04 148.03 131.18 147.97 L 130.17 147.90 C 129.31 147.84 128.56 148.49 128.50 149.35 C 128.44 150.21 129.09 150.96 129.95 151.02 Z M 130.96 151.09 L 131.98 151.16 C 132.84 151.21 133.58 150.56 133.64 149.70 C 133.70 148.84 133.05 148.10 132.19 148.04 L 131.17 147.97 C 130.31 147.91 129.57 148.56 129.51 149.42 C 129.45 150.28 130.10 151.03 130.96 151.09 Z M 131.98 151.16 L 133.00 151.22 C 133.86 151.28 134.60 150.63 134.66 149.77 C 134.71 148.91 134.06 148.16 133.20 148.11 L 132.18 148.04 C 131.32 147.98 130.58 148.64 130.52 149.50 C 130.47 150.36 131.12 151.10 131.98 151.16 Z M 133.00 151.22 L 134.00 151.29 C 134.86 151.34 135.61 150.69 135.66 149.83 C 135.72 148.97 135.06 148.22 134.20 148.17 L 133.20 148.11 C 132.34 148.05 131.60 148.71 131.54 149.57 C 131.49 150.43 132.14 151.17 133.00 151.22 Z M 134.01 151.29 L 134.99 151.35 C 135.86 151.40 136.60 150.74 136.65 149.88 C 136.70 149.02 136.04 148.28 135.18 148.23 L 134.20 148.17 C 133.34 148.12 132.60 148.77 132.54 149.63 C 132.49 150.49 133.15 151.23 134.01 151.29 Z M 135.00 151.35 L 135.99 151.40 C 136.85 151.46 137.59 150.80 137.64 149.94 C 137.69 149.08 137.03 148.34 136.17 148.29 L 135.18 148.23 C 134.32 148.18 133.58 148.84 133.53 149.70 C 133.48 150.56 134.14 151.30 135.00 151.35 Z M 135.99 151.41 L 136.98 151.46 C 137.84 151.51 138.58 150.85 138.63 149.99 C 138.68 149.13 138.02 148.39 137.16 148.34 L 136.17 148.29 C 135.31 148.24 134.57 148.90 134.52 149.76 C 134.47 150.62 135.13 151.36 135.99 151.41 Z M 136.99 151.46 L 137.98 151.52 C 138.85 151.56 139.58 150.90 139.63 150.04 C 139.68 149.18 139.02 148.45 138.16 148.40 L 137.16 148.34 C 136.30 148.30 135.56 148.96 135.51 149.82 C 135.47 150.68 136.13 151.41 136.99 151.46 Z M 137.99 151.52 L 138.99 151.57 C 139.85 151.62 140.59 150.96 140.63 150.10 C 140.68 149.24 140.02 148.50 139.16 148.45 L 138.15 148.40 C 137.29 148.35 136.56 149.01 136.51 149.87 C 136.47 150.73 137.13 151.47 137.99 151.52 Z M 138.99 151.57 L 140.00 151.62 C 140.86 151.67 141.60 151.01 141.64 150.15 C 141.69 149.29 141.03 148.55 140.17 148.51 L 139.16 148.45 C 138.30 148.41 137.56 149.07 137.51 149.93 C 137.47 150.79 138.13 151.53 138.99 151.57 Z M 140.00 151.62 L 141.02 151.68 C 141.88 151.72 142.61 151.06 142.66 150.20 C 142.70 149.34 142.04 148.61 141.18 148.56 L 140.16 148.51 C 139.30 148.46 138.57 149.12 138.52 149.98 C 138.48 150.85 139.14 151.58 140.00 151.62 Z M 141.02 151.68 L 142.03 151.73 C 142.89 151.78 143.62 151.11 143.67 150.25 C 143.71 149.39 143.05 148.66 142.19 148.61 L 141.18 148.56 C 140.32 148.52 139.58 149.18 139.54 150.04 C 139.49 150.90 140.16 151.63 141.02 151.68 Z M 142.03 151.73 L 143.04 151.78 C 143.90 151.83 144.64 151.17 144.68 150.30 C 144.73 149.44 144.06 148.71 143.20 148.66 L 142.19 148.61 C 141.33 148.57 140.59 149.23 140.55 150.09 C 140.51 150.95 141.17 151.69 142.03 151.73 Z M 143.04 151.78 L 144.06 151.83 C 144.92 151.88 145.65 151.22 145.70 150.35 C 145.74 149.49 145.08 148.76 144.22 148.72 L 143.20 148.66 C 142.34 148.62 141.61 149.28 141.56 150.14 C 141.52 151.01 142.18 151.74 143.04 151.78 Z M 144.06 151.83 L 145.07 151.89 C 145.93 151.93 146.66 151.27 146.70 150.40 C 146.75 149.54 146.08 148.81 145.22 148.77 L 144.21 148.72 C 143.35 148.67 142.62 149.34 142.58 150.20 C 142.53 151.06 143.20 151.79 144.06 151.83 Z M 145.07 151.89 L 146.07 151.93 C 146.93 151.98 147.66 151.31 147.71 150.45 C 147.75 149.59 147.08 148.86 146.22 148.82 L 145.22 148.77 C 144.36 148.72 143.63 149.39 143.59 150.25 C 143.54 151.11 144.21 151.84 145.07 151.89 Z M 146.07 151.93 L 147.06 151.98 C 147.92 152.02 148.65 151.36 148.70 150.50 C 148.74 149.64 148.07 148.91 147.21 148.86 L 146.22 148.82 C 145.36 148.77 144.63 149.44 144.59 150.30 C 144.55 151.16 145.21 151.89 146.07 151.93 Z M 147.06 151.98 L 148.04 152.03 C 148.90 152.07 149.63 151.40 149.67 150.54 C 149.71 149.68 149.05 148.95 148.19 148.91 L 147.21 148.86 C 146.35 148.82 145.62 149.49 145.58 150.35 C 145.54 151.21 146.20 151.94 147.06 151.98 Z M 148.04 152.03 L 149.04 152.08 C 149.90 152.11 150.63 151.45 150.67 150.59 C 150.71 149.73 150.04 149.00 149.18 148.96 L 148.18 148.91 C 147.32 148.87 146.59 149.54 146.55 150.40 C 146.51 151.26 147.18 151.99 148.04 152.03 Z M 149.04 152.08 L 150.06 152.12 C 150.93 152.16 151.66 151.49 151.69 150.63 C 151.73 149.77 151.06 149.04 150.20 149.00 L 149.18 148.95 C 148.31 148.92 147.58 149.58 147.55 150.45 C 147.51 151.31 148.18 152.04 149.04 152.08 Z M 150.07 152.12 L 151.07 152.17 C 151.94 152.20 152.67 151.53 152.70 150.67 C 152.74 149.81 152.07 149.08 151.21 149.04 L 150.20 149.00 C 149.34 148.96 148.61 149.63 148.57 150.49 C 148.53 151.36 149.20 152.09 150.07 152.12 Z M 151.08 152.17 L 152.07 152.21 C 152.93 152.25 153.66 151.58 153.70 150.71 C 153.74 149.85 153.07 149.12 152.20 149.08 L 151.21 149.04 C 150.34 149.00 149.61 149.68 149.58 150.54 C 149.54 151.40 150.21 152.13 151.08 152.17 Z M 152.07 152.21 L 153.06 152.25 C 153.92 152.29 154.65 151.61 154.69 150.75 C 154.72 149.89 154.05 149.16 153.19 149.12 L 152.20 149.08 C 151.34 149.05 150.61 149.72 150.57 150.58 C 150.54 151.45 151.21 152.18 152.07 152.21 Z M 153.06 152.25 L 154.04 152.29 C 154.91 152.33 155.64 151.65 155.67 150.79 C 155.71 149.92 155.03 149.19 154.17 149.16 L 153.18 149.12 C 152.32 149.09 151.59 149.76 151.56 150.62 C 151.52 151.49 152.19 152.22 153.06 152.25 Z M 154.04 152.29 L 155.03 152.33 C 155.89 152.37 156.62 151.69 156.66 150.83 C 156.69 149.96 156.02 149.23 155.15 149.20 L 154.17 149.16 C 153.30 149.12 152.57 149.80 152.54 150.66 C 152.50 151.53 153.18 152.26 154.04 152.29 Z M 155.03 152.33 L 156.01 152.37 C 156.88 152.41 157.61 151.73 157.64 150.86 C 157.67 150.00 157.00 149.27 156.13 149.23 L 155.15 149.19 C 154.28 149.16 153.55 149.84 153.52 150.70 C 153.49 151.57 154.16 152.30 155.03 152.33 Z M 156.01 152.37 L 156.99 152.41 C 157.86 152.44 158.59 151.77 158.62 150.90 C 158.66 150.03 157.98 149.30 157.11 149.27 L 156.13 149.23 C 155.26 149.20 154.53 149.87 154.50 150.74 C 154.47 151.61 155.14 152.34 156.01 152.37 Z M 156.99 152.41 L 157.98 152.45 C 158.85 152.48 159.58 151.80 159.62 150.94 C 159.65 150.07 158.97 149.34 158.10 149.30 L 157.11 149.27 C 156.24 149.23 155.51 149.91 155.48 150.78 C 155.45 151.65 156.13 152.38 156.99 152.41 Z M 157.99 152.45 L 158.98 152.49 C 159.85 152.52 160.58 151.84 160.61 150.97 C 160.65 150.10 159.97 149.37 159.10 149.34 L 158.10 149.30 C 157.23 149.27 156.50 149.95 156.47 150.82 C 156.44 151.69 157.12 152.42 157.99 152.45 Z M 158.99 152.49 L 159.99 152.52 C 160.86 152.55 161.59 151.87 161.62 151.00 C 161.65 150.13 160.97 149.40 160.10 149.37 L 159.09 149.34 C 158.22 149.31 157.49 149.99 157.46 150.86 C 157.43 151.73 158.11 152.46 158.99 152.49 Z M 159.99 152.53 L 161.00 152.56 C 161.87 152.59 162.60 151.90 162.63 151.03 C 162.66 150.16 161.98 149.43 161.10 149.40 L 160.09 149.37 C 159.22 149.34 158.49 150.02 158.46 150.90 C 158.44 151.77 159.12 152.50 159.99 152.53 Z M 161.01 152.56 L 162.02 152.59 C 162.89 152.62 163.62 151.93 163.65 151.06 C 163.68 150.19 162.99 149.46 162.12 149.43 L 161.10 149.40 C 160.23 149.37 159.50 150.06 159.47 150.93 C 159.45 151.81 160.13 152.53 161.01 152.56 Z M 162.03 152.59 L 163.03 152.62 C 163.90 152.65 164.63 151.96 164.65 151.08 C 164.68 150.21 163.99 149.48 163.12 149.46 L 162.11 149.43 C 161.24 149.41 160.51 150.09 160.49 150.97 C 160.46 151.84 161.15 152.57 162.03 152.59 Z M 163.03 152.62 L 164.02 152.65 C 164.89 152.67 165.62 151.98 165.64 151.10 C 165.67 150.23 164.98 149.50 164.10 149.48 L 163.11 149.46 C 162.24 149.43 161.51 150.13 161.49 151.00 C 161.47 151.87 162.16 152.60 163.03 152.62 Z M 164.02 152.65 L 165.02 152.67 C 165.89 152.69 166.62 152.00 166.64 151.13 C 166.66 150.25 165.97 149.53 165.09 149.51 L 164.10 149.48 C 163.22 149.46 162.50 150.15 162.48 151.03 C 162.46 151.90 163.15 152.63 164.02 152.65 Z M 165.02 152.67 L 166.02 152.69 C 166.89 152.71 167.62 152.02 167.64 151.15 C 167.66 150.27 166.96 149.55 166.09 149.53 L 165.09 149.51 C 164.22 149.49 163.49 150.18 163.47 151.05 C 163.45 151.93 164.14 152.65 165.02 152.67 Z M 166.02 152.69 L 167.02 152.72 C 167.89 152.74 168.62 152.04 168.64 151.17 C 168.66 150.30 167.97 149.57 167.09 149.55 L 166.09 149.53 C 165.21 149.51 164.49 150.20 164.47 151.07 C 164.45 151.95 165.14 152.67 166.02 152.69 Z M 167.02 152.72 L 168.02 152.74 C 168.90 152.76 169.62 152.07 169.64 151.19 C 169.66 150.32 168.97 149.59 168.10 149.57 L 167.09 149.55 C 166.22 149.53 165.49 150.22 165.47 151.10 C 165.45 151.97 166.14 152.70 167.02 152.72 Z M 168.02 152.74 L 169.03 152.77 C 169.90 152.79 170.63 152.10 170.65 151.22 C 170.67 150.35 169.98 149.62 169.11 149.60 L 168.10 149.57 C 167.22 149.55 166.50 150.24 166.48 151.12 C 166.46 151.99 167.15 152.72 168.02 152.74 Z M 169.03 152.77 L 170.03 152.79 C 170.91 152.82 171.64 152.13 171.66 151.25 C 171.68 150.38 170.99 149.65 170.12 149.63 L 169.11 149.60 C 168.24 149.58 167.51 150.27 167.48 151.14 C 167.46 152.01 168.15 152.74 169.03 152.77 Z M 170.03 152.79 L 171.03 152.82 C 171.90 152.85 172.63 152.16 172.66 151.28 C 172.68 150.41 171.99 149.68 171.12 149.65 L 170.12 149.63 C 169.25 149.60 168.52 150.29 168.49 151.16 C 168.47 152.04 169.16 152.77 170.03 152.79 Z M 171.03 152.82 L 172.03 152.85 C 172.90 152.88 173.63 152.19 173.66 151.32 C 173.68 150.44 173.00 149.71 172.12 149.68 L 171.12 149.65 C 170.25 149.63 169.52 150.31 169.49 151.19 C 169.46 152.06 170.15 152.80 171.03 152.82 Z M 172.02 152.85 L 173.03 152.88 C 173.90 152.91 174.63 152.22 174.66 151.35 C 174.69 150.47 174.00 149.74 173.12 149.71 L 172.12 149.68 C 171.25 149.66 170.52 150.34 170.49 151.22 C 170.46 152.09 171.15 152.82 172.02 152.85 Z M 173.02 152.88 L 174.03 152.91 C 174.90 152.94 175.63 152.26 175.66 151.38 C 175.69 150.50 175.00 149.77 174.13 149.75 L 173.12 149.71 C 172.25 149.69 171.52 150.37 171.49 151.25 C 171.46 152.12 172.15 152.86 173.02 152.88 Z M 174.03 152.92 L 175.03 152.95 C 175.90 152.97 176.63 152.29 176.66 151.41 C 176.69 150.53 176.00 149.80 175.13 149.78 L 174.12 149.75 C 173.25 149.72 172.52 150.41 172.49 151.28 C 172.46 152.16 173.15 152.89 174.03 152.92 Z M 175.03 152.95 L 176.03 152.98 C 176.90 153.00 177.64 152.31 177.66 151.44 C 177.69 150.56 177.00 149.83 176.12 149.81 L 175.12 149.78 C 174.25 149.75 173.52 150.44 173.49 151.31 C 173.46 152.19 174.15 152.92 175.03 152.95 Z M 176.03 152.98 L 177.03 153.01 C 177.90 153.03 178.63 152.34 178.66 151.46 C 178.68 150.59 177.99 149.86 177.12 149.83 L 176.12 149.81 C 175.25 149.78 174.51 150.47 174.49 151.35 C 174.47 152.22 175.16 152.95 176.03 152.98 Z M 177.03 153.01 L 178.03 153.03 C 178.91 153.06 179.64 152.36 179.66 151.49 C 179.68 150.61 178.99 149.88 178.12 149.86 L 177.12 149.83 C 176.24 149.81 175.51 150.50 175.49 151.38 C 175.46 152.25 176.16 152.98 177.03 153.01 Z M 178.04 153.03 L 179.04 153.06 C 179.91 153.08 180.64 152.38 180.66 151.51 C 180.68 150.63 179.99 149.90 179.11 149.88 L 178.11 149.86 C 177.24 149.84 176.51 150.53 176.49 151.41 C 176.47 152.28 177.16 153.01 178.04 153.03 Z M 179.04 153.06 L 180.04 153.08 C 180.92 153.10 181.64 152.40 181.66 151.52 C 181.68 150.65 180.99 149.92 180.11 149.90 L 179.11 149.88 C 178.23 149.86 177.51 150.56 177.49 151.44 C 177.47 152.31 178.16 153.04 179.04 153.06 Z M 180.04 153.08 L 181.04 153.10 C 181.92 153.11 182.64 152.42 182.66 151.54 C 182.68 150.66 181.98 149.94 181.10 149.92 L 180.10 149.90 C 179.23 149.89 178.50 150.58 178.49 151.46 C 178.47 152.34 179.17 153.06 180.04 153.08 Z M 181.05 153.10 L 182.04 153.12 C 182.92 153.13 183.65 152.43 183.66 151.55 C 183.67 150.67 182.97 149.95 182.10 149.94 L 181.10 149.92 C 180.22 149.91 179.50 150.61 179.48 151.48 C 179.47 152.36 180.17 153.08 181.05 153.10 Z M 182.05 153.12 L 183.05 153.13 C 183.93 153.14 184.65 152.44 184.66 151.56 C 184.67 150.68 183.97 149.96 183.09 149.95 L 182.09 149.94 C 181.21 149.92 180.49 150.63 180.48 151.50 C 180.47 152.38 181.17 153.10 182.05 153.12 Z M 183.05 153.13 L 184.05 153.14 C 184.93 153.15 185.65 152.45 185.66 151.57 C 185.67 150.69 184.97 149.97 184.09 149.96 L 183.09 149.95 C 182.21 149.94 181.49 150.64 181.48 151.52 C 181.47 152.40 182.17 153.12 183.05 153.13 Z M 184.06 153.14 L 185.08 153.15 C 185.96 153.16 186.68 152.45 186.69 151.57 C 186.70 150.70 185.99 149.98 185.11 149.97 L 184.09 149.96 C 183.21 149.95 182.49 150.66 182.48 151.54 C 182.47 152.42 183.18 153.14 184.06 153.14 Z M 185.09 153.15 L 186.14 153.16 C 187.02 153.16 187.73 152.46 187.74 151.58 C 187.75 150.70 187.04 149.98 186.16 149.98 L 185.11 149.97 C 184.23 149.96 183.51 150.67 183.51 151.55 C 183.50 152.43 184.21 153.15 185.09 153.15 Z M 186.14 153.16 L 187.18 153.16 C 188.06 153.17 188.78 152.46 188.78 151.58 C 188.78 150.70 188.07 149.99 187.20 149.98 L 186.16 149.98 C 185.28 149.97 184.56 150.68 184.56 151.56 C 184.55 152.44 185.26 153.15 186.14 153.16 Z M 187.18 153.16 L 188.21 153.17 C 189.09 153.17 189.80 152.46 189.80 151.58 C 189.81 150.70 189.10 149.99 188.22 149.98 L 187.19 149.98 C 186.31 149.98 185.60 150.69 185.60 151.57 C 185.59 152.45 186.30 153.16 187.18 153.16 Z M 188.21 153.17 L 189.21 153.17 C 190.09 153.17 190.80 152.46 190.81 151.58 C 190.81 150.70 190.10 149.99 189.22 149.99 L 188.22 149.98 C 187.34 149.98 186.62 150.69 186.62 151.57 C 186.62 152.45 187.33 153.16 188.21 153.17 Z M 189.21 153.17 L 190.19 153.17 C 191.06 153.17 191.78 152.46 191.78 151.58 C 191.78 150.70 191.07 149.99 190.19 149.99 L 189.22 149.99 C 188.34 149.99 187.63 150.70 187.62 151.58 C 187.62 152.45 188.34 153.17 189.21 153.17 Z M 190.19 153.17 L 191.12 153.17 C 192.00 153.17 192.71 152.46 192.71 151.58 C 192.71 150.70 192.00 149.99 191.12 149.99 L 190.19 149.99 C 189.31 149.99 188.60 150.70 188.60 151.58 C 188.60 152.46 189.31 153.17 190.19 153.17 Z M 191.12 153.17 L 192.14 153.17 C 193.02 153.17 193.73 152.46 193.73 151.58 C 193.73 150.70 193.02 149.99 192.14 149.99 L 191.12 149.99 C 190.24 149.99 189.53 150.70 189.53 151.58 C 189.53 152.46 190.24 153.17 191.12 153.17 Z M 192.14 153.17 L 193.23 153.17 C 194.11 153.17 194.82 152.46 194.82 151.58 C 194.82 150.70 194.11 149.99 193.23 149.99 L 192.14 149.99 C 191.27 149.99 190.56 150.70 190.56 151.58 C 190.56 152.46 191.27 153.17 192.14 153.17 Z M 193.23 153.17 L 194.25 153.17 C 195.12 153.17 195.84 152.45 195.84 151.58 C 195.84 150.70 195.12 149.99 194.25 149.99 L 193.23 149.99 C 192.35 149.99 191.64 150.70 191.64 151.58 C 191.64 152.45 192.35 153.17 193.23 153.17 Z M 194.25 153.16 L 195.22 153.16 C 196.09 153.16 196.80 152.45 196.80 151.58 C 196.80 150.70 196.09 149.99 195.22 149.99 L 194.25 149.99 C 193.37 149.99 192.66 150.70 192.66 151.58 C 192.66 152.45 193.37 153.16 194.25 153.16 Z M 195.22 153.16 L 196.15 153.16 C 197.03 153.16 197.73 152.45 197.73 151.58 C 197.73 150.70 197.03 149.99 196.15 149.99 L 195.22 149.99 C 194.34 149.99 193.63 150.70 193.63 151.58 C 193.63 152.45 194.34 153.16 195.22 153.16 Z M 196.15 153.16 L 197.08 153.16 C 197.95 153.16 198.66 152.45 198.66 151.58 C 198.66 150.70 197.95 149.99 197.08 149.99 L 196.15 149.99 C 195.28 149.99 194.57 150.70 194.57 151.58 C 194.57 152.45 195.28 153.16 196.15 153.16 Z M 197.08 153.16 L 198.10 153.16 C 198.97 153.16 199.68 152.45 199.68 151.58 C 199.68 150.70 198.97 150.00 198.10 150.00 L 197.08 150.00 C 196.20 150.00 195.50 150.70 195.50 151.58 C 195.50 152.45 196.20 153.16 197.08 153.16 Z M 198.10 153.16 L 199.11 153.16 C 199.98 153.16 200.68 152.45 200.68 151.58 C 200.68 150.71 199.98 150.00 199.11 150.00 L 198.10 150.00 C 197.23 150.00 196.52 150.71 196.52 151.58 C 196.52 152.45 197.23 153.16 198.10 153.16 Z M 199.11 153.15 L 200.10 153.15 C 200.97 153.15 201.68 152.45 201.68 151.58 C 201.68 150.71 200.97 150.00 200.10 150.00 L 199.11 150.00 C 198.24 150.00 197.53 150.71 197.53 151.58 C 197.53 152.45 198.24 153.15 199.11 153.15 Z M 200.10 153.15 L 201.08 153.15 C 201.95 153.15 202.66 152.45 202.66 151.58 C 202.66 150.71 201.95 150.01 201.08 150.01 L 200.10 150.01 C 199.23 150.01 198.53 150.71 198.53 151.58 C 198.53 152.45 199.23 153.15 200.10 153.15 Z M 201.08 153.15 L 202.07 153.15 C 202.94 153.15 203.64 152.45 203.64 151.58 C 203.64 150.71 202.94 150.01 202.07 150.01 L 201.08 150.01 C 200.22 150.01 199.51 150.71 199.51 151.58 C 199.51 152.45 200.22 153.15 201.08 153.15 Z M 202.07 153.15 L 203.07 153.15 C 203.93 153.15 204.64 152.44 204.64 151.58 C 204.64 150.71 203.93 150.01 203.07 150.01 L 202.07 150.01 C 201.20 150.01 200.50 150.71 200.50 151.58 C 200.50 152.45 201.21 153.15 202.07 153.15 Z M 203.07 153.14 L 204.07 153.14 C 204.93 153.14 205.63 152.44 205.63 151.57 C 205.63 150.71 204.92 150.01 204.06 150.01 L 203.06 150.01 C 202.20 150.01 201.50 150.72 201.50 151.58 C 201.50 152.45 202.21 153.15 203.07 153.14 Z M 204.07 153.14 L 205.07 153.13 C 205.94 153.13 206.63 152.42 206.63 151.56 C 206.62 150.70 205.92 150.00 205.05 150.00 L 204.05 150.01 C 203.19 150.02 202.49 150.72 202.50 151.58 C 202.50 152.45 203.21 153.14 204.07 153.14 Z M 205.08 153.13 L 206.09 153.12 C 206.95 153.11 207.64 152.40 207.63 151.54 C 207.62 150.68 206.92 149.99 206.05 150.00 L 205.05 150.01 C 204.18 150.02 203.49 150.72 203.50 151.59 C 203.51 152.45 204.22 153.14 205.08 153.13 Z M 206.10 153.12 L 207.08 153.10 C 207.94 153.09 208.63 152.38 208.62 151.52 C 208.60 150.65 207.89 149.97 207.03 149.98 L 206.04 150.00 C 205.18 150.01 204.49 150.72 204.51 151.58 C 204.52 152.45 205.23 153.13 206.10 153.12 Z M 207.09 153.10 L 208.08 153.08 C 208.95 153.06 209.63 152.34 209.61 151.48 C 209.59 150.62 208.87 149.94 208.01 149.96 L 207.02 149.98 C 206.16 150.00 205.47 150.72 205.49 151.58 C 205.51 152.44 206.23 153.12 207.09 153.10 Z M 208.10 153.08 L 209.10 153.05 C 209.96 153.02 210.63 152.30 210.61 151.44 C 210.58 150.58 209.86 149.90 209.00 149.93 L 208.00 149.96 C 207.14 149.98 206.46 150.71 206.49 151.57 C 206.51 152.43 207.23 153.11 208.10 153.08 Z M 209.11 153.05 L 210.12 153.01 C 210.98 152.97 211.65 152.24 211.62 151.38 C 211.58 150.52 210.85 149.85 209.99 149.89 L 208.98 149.93 C 208.12 149.96 207.45 150.69 207.49 151.55 C 207.52 152.41 208.25 153.08 209.11 153.05 Z M 210.13 153.00 L 211.14 152.95 C 212.00 152.91 212.67 152.18 212.62 151.32 C 212.58 150.45 211.85 149.79 210.99 149.84 L 209.98 149.89 C 209.12 149.93 208.45 150.66 208.50 151.52 C 208.54 152.39 209.27 153.05 210.13 153.00 Z M 211.16 152.95 L 212.13 152.89 C 212.99 152.84 213.64 152.10 213.59 151.24 C 213.54 150.38 212.80 149.73 211.94 149.78 L 210.97 149.84 C 210.11 149.89 209.45 150.63 209.51 151.49 C 209.56 152.35 210.30 153.01 211.16 152.95 Z M 212.14 152.89 L 213.12 152.83 C 213.98 152.77 214.63 152.02 214.57 151.16 C 214.51 150.30 213.76 149.65 212.90 149.71 L 211.92 149.78 C 211.06 149.84 210.41 150.58 210.47 151.44 C 210.53 152.30 211.28 152.95 212.14 152.89 Z M 213.12 152.83 L 214.12 152.75 C 214.98 152.69 215.62 151.94 215.56 151.08 C 215.50 150.22 214.75 149.58 213.89 149.64 L 212.89 149.71 C 212.04 149.77 211.39 150.52 211.45 151.38 C 211.52 152.24 212.26 152.89 213.12 152.83 Z M 214.12 152.75 L 215.14 152.68 C 216.00 152.61 216.64 151.86 216.58 151.00 C 216.51 150.14 215.76 149.50 214.90 149.56 L 213.89 149.64 C 213.03 149.70 212.38 150.45 212.45 151.31 C 212.51 152.17 213.26 152.82 214.12 152.75 Z M 215.14 152.68 L 216.17 152.60 C 217.03 152.53 217.68 151.78 217.61 150.92 C 217.55 150.06 216.80 149.42 215.94 149.48 L 214.90 149.56 C 214.04 149.63 213.40 150.38 213.46 151.24 C 213.53 152.10 214.28 152.74 215.14 152.68 Z M 216.17 152.60 L 217.17 152.52 C 218.03 152.46 218.68 151.71 218.61 150.85 C 218.55 149.99 217.80 149.35 216.94 149.41 L 215.94 149.48 C 215.08 149.55 214.44 150.30 214.50 151.16 C 214.56 152.02 215.31 152.66 216.17 152.60 Z M 217.17 152.52 L 218.19 152.45 C 219.05 152.39 219.69 151.64 219.63 150.78 C 219.57 149.92 218.82 149.27 217.96 149.33 L 216.94 149.41 C 216.08 149.47 215.44 150.22 215.50 151.08 C 215.56 151.94 216.31 152.59 217.17 152.52 Z M 218.19 152.45 L 219.20 152.37 C 220.06 152.31 220.71 151.56 220.64 150.70 C 220.58 149.84 219.83 149.20 218.97 149.26 L 217.96 149.33 C 217.10 149.40 216.45 150.15 216.52 151.01 C 216.58 151.87 217.33 152.51 218.19 152.45 Z M 219.20 152.37 L 220.20 152.30 C 221.06 152.24 221.71 151.49 221.64 150.63 C 221.58 149.77 220.83 149.12 219.97 149.19 L 218.97 149.26 C 218.11 149.32 217.47 150.07 217.53 150.93 C 217.59 151.79 218.34 152.44 219.20 152.37 Z M 220.21 152.30 L 221.18 152.23 C 222.04 152.16 222.68 151.41 222.61 150.55 C 222.55 149.69 221.80 149.05 220.94 149.11 L 219.97 149.19 C 219.11 149.25 218.46 150.00 218.53 150.86 C 218.60 151.72 219.35 152.37 220.21 152.30 Z M 221.18 152.23 L 222.23 152.14 C 223.09 152.07 223.73 151.32 223.66 150.46 C 223.59 149.60 222.84 148.96 221.98 149.03 L 220.93 149.11 C 220.07 149.18 219.43 149.93 219.50 150.79 C 219.57 151.65 220.32 152.29 221.18 152.23 Z M 222.23 152.14 L 223.27 152.05 C 224.13 151.98 224.77 151.23 224.70 150.37 C 224.63 149.51 223.87 148.87 223.01 148.94 L 221.97 149.03 C 221.12 149.10 220.48 149.86 220.55 150.72 C 220.62 151.57 221.37 152.21 222.23 152.14 Z M 223.27 152.05 L 224.26 151.97 C 225.12 151.90 225.76 151.14 225.69 150.28 C 225.61 149.42 224.86 148.79 224.00 148.86 L 223.01 148.94 C 222.15 149.02 221.51 149.77 221.59 150.63 C 221.66 151.49 222.41 152.13 223.27 152.05 Z M 224.26 151.97 L 225.22 151.89 C 226.07 151.82 226.71 151.06 226.64 150.20 C 226.57 149.35 225.81 148.71 224.95 148.78 L 224.00 148.86 C 223.14 148.93 222.50 149.69 222.58 150.55 C 222.65 151.40 223.40 152.04 224.26 151.97 Z M 225.21 151.89 L 226.16 151.81 C 227.02 151.74 227.66 150.99 227.59 150.13 C 227.52 149.27 226.77 148.63 225.91 148.70 L 224.96 148.78 C 224.10 148.85 223.46 149.60 223.53 150.46 C 223.60 151.32 224.35 151.96 225.21 151.89 Z M 226.15 151.81 L 227.19 151.74 C 228.05 151.67 228.70 150.92 228.63 150.06 C 228.57 149.20 227.82 148.56 226.96 148.62 L 225.92 148.70 C 225.06 148.77 224.42 149.52 224.48 150.38 C 224.54 151.23 225.29 151.88 226.15 151.81 Z M 227.18 151.74 L 228.19 151.67 C 229.05 151.61 229.70 150.86 229.64 150.00 C 229.59 149.14 228.84 148.49 227.98 148.55 L 226.97 148.62 C 226.11 148.68 225.46 149.43 225.52 150.29 C 225.58 151.15 226.32 151.80 227.18 151.74 Z M 228.19 151.67 L 229.16 151.61 C 230.02 151.55 230.67 150.81 230.62 149.95 C 230.57 149.09 229.82 148.44 228.96 148.49 L 227.99 148.55 C 227.13 148.61 226.48 149.35 226.53 150.21 C 226.58 151.07 227.32 151.72 228.19 151.67 Z M 229.15 151.61 L 230.10 151.55 C 230.97 151.51 231.62 150.77 231.58 149.91 C 231.53 149.05 230.79 148.39 229.93 148.44 L 228.97 148.49 C 228.11 148.54 227.45 149.28 227.50 150.14 C 227.55 151.00 228.29 151.66 229.15 151.61 Z M 230.09 151.55 L 231.07 151.51 C 231.93 151.46 232.60 150.73 232.56 149.87 C 232.51 149.01 231.78 148.35 230.92 148.39 L 229.94 148.44 C 229.08 148.48 228.42 149.21 228.46 150.07 C 228.50 150.93 229.23 151.60 230.09 151.55 Z M 231.06 151.51 L 232.04 151.47 C 232.90 151.43 233.57 150.70 233.53 149.84 C 233.50 148.98 232.77 148.31 231.91 148.35 L 230.93 148.39 C 230.07 148.42 229.40 149.15 229.44 150.01 C 229.47 150.87 230.20 151.54 231.06 151.51 Z M 232.03 151.47 L 233.05 151.43 C 233.91 151.40 234.58 150.67 234.55 149.81 C 234.52 148.95 233.79 148.28 232.93 148.31 L 231.92 148.35 C 231.06 148.38 230.38 149.10 230.41 149.96 C 230.45 150.83 231.17 151.50 232.03 151.47 Z M 233.04 151.43 L 234.05 151.39 C 234.91 151.37 235.59 150.64 235.56 149.78 C 235.53 148.92 234.81 148.24 233.95 148.27 L 232.94 148.31 C 232.08 148.34 231.40 149.06 231.43 149.92 C 231.46 150.78 232.18 151.46 233.04 151.43 Z M 234.04 151.39 L 235.05 151.37 C 235.92 151.34 236.60 150.62 236.57 149.76 C 236.55 148.90 235.83 148.22 234.97 148.24 L 233.95 148.27 C 233.09 148.30 232.41 149.02 232.44 149.88 C 232.46 150.74 233.18 151.42 234.04 151.39 Z M 235.04 151.37 L 236.06 151.35 C 236.93 151.33 237.61 150.62 237.60 149.76 C 237.58 148.89 236.87 148.21 236.00 148.23 L 234.98 148.24 C 234.12 148.26 233.43 148.97 233.45 149.83 C 233.47 150.70 234.18 151.38 235.04 151.37 Z M 236.04 151.35 L 237.04 151.34 C 237.90 151.34 238.60 150.64 238.59 149.78 C 238.59 148.91 237.89 148.22 237.03 148.22 L 236.03 148.22 C 235.17 148.23 234.47 148.93 234.47 149.79 C 234.48 150.65 235.18 151.35 236.04 151.35 Z M 237.00 151.34 L 238.12 151.37 C 238.98 151.39 239.70 150.71 239.72 149.84 C 239.74 148.98 239.05 148.27 238.19 148.25 L 237.07 148.22 C 236.21 148.20 235.49 148.88 235.47 149.75 C 235.45 150.61 236.13 151.32 237.00 151.34 Z M 237.97 151.36 L 239.07 151.49 C 239.93 151.59 240.70 150.97 240.80 150.12 C 240.90 149.26 240.29 148.49 239.43 148.39 L 238.34 148.26 C 237.48 148.16 236.70 148.77 236.60 149.63 C 236.50 150.48 237.12 151.26 237.97 151.36 Z M 238.64 151.37 L 239.40 151.70 C 240.20 152.04 241.11 151.67 241.45 150.88 C 241.79 150.09 241.43 149.17 240.63 148.83 L 239.86 148.50 C 239.07 148.16 238.15 148.53 237.81 149.32 C 237.48 150.11 237.84 151.03 238.64 151.37 Z M 238.64 150.99 L 238.98 151.64 C 239.38 152.41 240.32 152.70 241.09 152.30 C 241.85 151.90 242.14 150.95 241.74 150.19 L 241.40 149.54 C 241.00 148.78 240.06 148.48 239.29 148.88 C 238.53 149.28 238.24 150.23 238.64 150.99 Z M 238.81 150.73 L 238.70 151.67 C 238.60 152.52 239.21 153.30 240.06 153.40 C 240.92 153.51 241.70 152.90 241.80 152.04 L 241.91 151.10 C 242.01 150.25 241.40 149.47 240.55 149.37 C 239.69 149.26 238.91 149.88 238.81 150.73 Z M 238.82 151.22 L 238.36 152.26 C 238.01 153.04 238.36 153.97 239.15 154.32 C 239.94 154.67 240.86 154.31 241.21 153.53 L 241.67 152.49 C 242.03 151.70 241.67 150.78 240.88 150.43 C 240.10 150.08 239.17 150.43 238.82 151.22 Z M 238.50 152.01 L 237.94 152.81 C 237.46 153.52 237.63 154.50 238.34 154.99 C 239.06 155.47 240.03 155.29 240.52 154.58 L 241.07 153.78 C 241.56 153.07 241.38 152.09 240.67 151.60 C 239.96 151.12 238.99 151.30 238.50 152.01 Z M 238.06 152.66 L 237.41 153.39 C 236.84 154.04 236.90 155.02 237.54 155.60 C 238.19 156.17 239.17 156.11 239.75 155.47 L 240.40 154.74 C 240.97 154.09 240.91 153.11 240.27 152.53 C 239.62 151.96 238.64 152.02 238.06 152.66 Z M 237.50 153.30 L 236.76 154.01 C 236.14 154.60 236.11 155.59 236.71 156.21 C 237.30 156.84 238.29 156.86 238.92 156.27 L 239.66 155.56 C 240.28 154.97 240.30 153.98 239.71 153.35 C 239.11 152.73 238.13 152.71 237.50 153.30 Z M 236.81 153.96 L 236.04 154.63 C 235.39 155.20 235.32 156.18 235.89 156.83 C 236.45 157.48 237.44 157.55 238.09 156.99 L 238.86 156.31 C 239.51 155.75 239.58 154.76 239.02 154.11 C 238.45 153.46 237.46 153.39 236.81 153.96 Z M 236.07 154.61 L 235.32 155.24 C 234.65 155.79 234.56 156.77 235.11 157.43 C 235.67 158.10 236.65 158.19 237.31 157.63 L 238.06 157.01 C 238.73 156.46 238.82 155.47 238.27 154.81 C 237.71 154.15 236.73 154.06 236.07 154.61 Z M 235.33 155.22 L 234.55 155.85 C 233.88 156.40 233.78 157.38 234.32 158.05 C 234.86 158.72 235.85 158.82 236.52 158.28 L 237.30 157.65 C 237.97 157.11 238.07 156.12 237.53 155.45 C 236.98 154.78 236.00 154.68 235.33 155.22 Z M 234.56 155.85 L 233.76 156.48 C 233.09 157.02 232.98 158.00 233.52 158.67 C 234.05 159.35 235.04 159.46 235.71 158.92 L 236.51 158.29 C 237.18 157.75 237.29 156.77 236.75 156.09 C 236.22 155.42 235.24 155.31 234.56 155.85 Z M 233.77 156.48 L 233.29 156.86 C 232.62 157.39 232.50 158.37 233.04 159.05 C 233.57 159.72 234.56 159.84 235.23 159.30 L 235.71 158.93 C 236.38 158.39 236.50 157.41 235.96 156.73 C 235.43 156.06 234.44 155.94 233.77 156.48 Z"
      fill="black"
      fill-rule="nonzero" /></svg>