<svg xmlns="http://www.w3.org/2000/svg" width="300" height="300" viewBox="0 0 300 300">
<path d="M 57.57 165.30 L 56.38 165.55 C 55.53 165.72 54.99 166.54 55.16 167.39 C 55.33 168.23 56.15 168.78 57.00 168.61 L 58.19 168.36 C 59.03 168.19 59.58 167.37 59.41 166.52 C 59.24 165.68 58.41 165.13 57.57 165.30 Z M 56.02 165.66 L 55.22 166.04 C 54.44 166.41 54.11 167.34 54.47 168.12 C 54.84 168.90 55.77 169.23 56.55 168.87 L 57.36 168.49 C 58.14 168.12 58.47 167.19 58.10 166.41 C 57.73 165.63 56.80 165.30 56.02 165.66 Z M 54.34 167.24 L 54.26 167.83 C 54.15 168.68 54.74 169.47 55.60 169.58 C 56.45 169.70 57.24 169.10 57.35 168.25 L 57.43 167.66 C 57.55 166.81 56.95 166.02 56.10 165.91 C 55.24 165.79 54.46 166.39 54.34 167.24 Z M 54.56 168.97 L 55.09 169.69 C 55.61 170.38 56.58 170.52 57.28 170.00 C 57.97 169.49 58.11 168.51 57.59 167.82 L 57.06 167.10 C 56.54 166.41 55.57 166.27 54.87 166.78 C 54.18 167.30 54.04 168.28 54.56 168.97 Z M 55.38 169.98 L 56.32 170.72 C 57.00 171.26 57.98 171.14 58.51 170.47 C 59.05 169.79 58.93 168.81 58.25 168.27 L 57.31 167.53 C 56.63 166.99 55.65 167.11 55.12 167.79 C 54.58 168.46 54.70 169.44 55.38 169.98 Z M 56.51 170.85 L 57.38 171.35 C 58.13 171.78 59.08 171.51 59.51 170.77 C 59.94 170.02 59.68 169.06 58.93 168.64 L 58.06 168.14 C 57.31 167.72 56.36 167.98 55.93 168.73 C 55.50 169.47 55.77 170.43 56.51 170.85 Z M 57.52 171.42 L 58.36 171.79 C 59.15 172.14 60.08 171.79 60.42 171.00 C 60.77 170.21 60.42 169.29 59.63 168.94 L 58.79 168.56 C 58.00 168.22 57.07 168.57 56.73 169.36 C 56.38 170.15 56.73 171.07 57.52 171.42 Z M 58.47 171.84 L 59.41 172.17 C 60.22 172.46 61.11 172.03 61.40 171.22 C 61.69 170.41 61.27 169.52 60.45 169.23 L 59.52 168.89 C 58.71 168.61 57.82 169.03 57.53 169.84 C 57.24 170.65 57.66 171.55 58.47 171.84 Z M 59.49 172.19 L 60.52 172.50 C 61.35 172.74 62.21 172.27 62.46 171.45 C 62.70 170.62 62.23 169.75 61.40 169.51 L 60.37 169.20 C 59.55 168.96 58.68 169.43 58.43 170.26 C 58.19 171.08 58.66 171.95 59.49 172.19 Z M 60.57 172.52 L 61.62 172.78 C 62.46 173.00 63.31 172.49 63.52 171.66 C 63.74 170.82 63.23 169.97 62.40 169.76 L 61.35 169.49 C 60.51 169.28 59.66 169.78 59.45 170.62 C 59.24 171.45 59.74 172.30 60.57 172.52 Z M 61.66 172.79 L 62.62 173.01 C 63.46 173.21 64.30 172.69 64.49 171.85 C 64.69 171.01 64.16 170.17 63.32 169.97 L 62.36 169.75 C 61.52 169.56 60.68 170.08 60.49 170.92 C 60.29 171.76 60.82 172.60 61.66 172.79 Z M 62.64 173.02 L 63.64 173.23 C 64.48 173.42 65.31 172.88 65.49 172.04 C 65.68 171.19 65.14 170.36 64.30 170.18 L 63.30 169.97 C 62.46 169.79 61.63 170.32 61.44 171.17 C 61.26 172.01 61.80 172.84 62.64 173.02 Z M 63.66 173.24 L 64.67 173.44 C 65.52 173.61 66.34 173.06 66.51 172.22 C 66.68 171.37 66.13 170.55 65.28 170.38 L 64.28 170.18 C 63.43 170.01 62.61 170.56 62.44 171.40 C 62.27 172.25 62.82 173.07 63.66 173.24 Z M 64.69 173.45 L 65.69 173.63 C 66.53 173.79 67.35 173.23 67.51 172.39 C 67.67 171.54 67.11 170.72 66.26 170.56 L 65.27 170.38 C 64.42 170.22 63.60 170.78 63.44 171.62 C 63.28 172.47 63.84 173.29 64.69 173.45 Z M 65.70 173.64 L 66.66 173.81 C 67.51 173.96 68.32 173.39 68.47 172.54 C 68.62 171.69 68.06 170.88 67.21 170.73 L 66.25 170.56 C 65.40 170.41 64.59 170.98 64.44 171.83 C 64.29 172.68 64.85 173.49 65.70 173.64 Z M 66.68 173.81 L 67.72 173.98 C 68.57 174.12 69.37 173.54 69.51 172.69 C 69.65 171.84 69.07 171.04 68.22 170.90 L 67.19 170.73 C 66.34 170.59 65.54 171.16 65.40 172.02 C 65.26 172.87 65.83 173.67 66.68 173.81 Z M 67.74 173.98 L 68.74 174.13 C 69.59 174.26 70.38 173.67 70.51 172.82 C 70.64 171.97 70.05 171.17 69.20 171.04 L 68.20 170.89 C 67.35 170.77 66.55 171.35 66.43 172.21 C 66.30 173.06 66.89 173.85 67.74 173.98 Z M 68.76 174.14 L 69.72 174.27 C 70.57 174.38 71.36 173.78 71.48 172.93 C 71.59 172.08 71.00 171.29 70.14 171.17 L 69.18 171.04 C 68.32 170.92 67.54 171.52 67.42 172.38 C 67.30 173.23 67.90 174.02 68.76 174.14 Z M 69.74 174.27 L 70.70 174.39 C 71.55 174.49 72.33 173.89 72.44 173.03 C 72.55 172.18 71.94 171.40 71.08 171.29 L 70.12 171.17 C 69.27 171.06 68.49 171.67 68.38 172.53 C 68.28 173.38 68.88 174.16 69.74 174.27 Z M 70.71 174.39 L 71.69 174.50 C 72.54 174.60 73.32 173.99 73.42 173.13 C 73.52 172.27 72.90 171.50 72.04 171.40 L 71.07 171.29 C 70.21 171.19 69.44 171.80 69.34 172.66 C 69.24 173.52 69.86 174.29 70.71 174.39 Z M 71.70 174.50 L 72.63 174.61 C 73.49 174.70 74.26 174.08 74.35 173.22 C 74.44 172.37 73.83 171.59 72.97 171.50 L 72.04 171.40 C 71.18 171.31 70.41 171.92 70.31 172.78 C 70.22 173.64 70.84 174.41 71.70 174.50 Z M 72.64 174.61 L 73.61 174.71 C 74.47 174.80 75.23 174.17 75.32 173.32 C 75.41 172.46 74.79 171.69 73.93 171.60 L 72.96 171.50 C 72.10 171.41 71.34 172.03 71.25 172.89 C 71.16 173.75 71.78 174.52 72.64 174.61 Z M 73.62 174.71 L 74.62 174.81 C 75.48 174.89 76.24 174.26 76.33 173.41 C 76.41 172.55 75.78 171.78 74.93 171.70 L 73.92 171.60 C 73.06 171.52 72.30 172.14 72.22 173.00 C 72.13 173.86 72.76 174.62 73.62 174.71 Z M 74.63 174.81 L 75.66 174.90 C 76.51 174.98 77.28 174.35 77.36 173.49 C 77.44 172.63 76.80 171.87 75.95 171.79 L 74.92 171.70 C 74.06 171.62 73.30 172.25 73.22 173.11 C 73.14 173.97 73.77 174.73 74.63 174.81 Z M 75.66 174.90 L 76.71 175.00 C 77.57 175.07 78.33 174.44 78.41 173.58 C 78.48 172.72 77.85 171.96 76.99 171.89 L 75.94 171.79 C 75.08 171.72 74.32 172.35 74.25 173.21 C 74.17 174.07 74.81 174.83 75.66 174.90 Z M 76.72 175.00 L 77.68 175.08 C 78.54 175.15 79.30 174.51 79.37 173.65 C 79.44 172.79 78.80 172.03 77.94 171.96 L 76.98 171.88 C 76.12 171.81 75.37 172.45 75.29 173.31 C 75.22 174.17 75.86 174.93 76.72 175.00 Z M 77.69 175.08 L 78.66 175.15 C 79.52 175.22 80.27 174.57 80.34 173.71 C 80.40 172.85 79.76 172.10 78.90 172.04 L 77.93 171.96 C 77.07 171.90 76.32 172.54 76.25 173.40 C 76.19 174.26 76.83 175.01 77.69 175.08 Z M 78.67 175.15 L 79.65 175.22 C 80.51 175.28 81.26 174.64 81.32 173.78 C 81.38 172.91 80.74 172.17 79.88 172.11 L 78.89 172.04 C 78.03 171.97 77.28 172.62 77.22 173.48 C 77.16 174.34 77.81 175.09 78.67 175.15 Z M 79.66 175.22 L 80.67 175.29 C 81.53 175.34 82.27 174.69 82.33 173.83 C 82.38 172.97 81.73 172.23 80.87 172.17 L 79.87 172.11 C 79.01 172.05 78.26 172.70 78.21 173.56 C 78.15 174.42 78.80 175.16 79.66 175.22 Z M 80.67 175.29 L 81.70 175.35 C 82.56 175.40 83.30 174.75 83.35 173.89 C 83.41 173.03 82.75 172.29 81.89 172.23 L 80.86 172.17 C 80.00 172.12 79.26 172.77 79.21 173.64 C 79.16 174.50 79.81 175.24 80.67 175.29 Z M 81.71 175.35 L 82.74 175.41 C 83.61 175.46 84.34 174.80 84.39 173.94 C 84.44 173.08 83.78 172.34 82.92 172.29 L 81.88 172.23 C 81.02 172.19 80.29 172.85 80.24 173.71 C 80.19 174.57 80.85 175.30 81.71 175.35 Z M 82.75 175.41 L 83.70 175.46 C 84.57 175.50 85.30 174.84 85.34 173.98 C 85.39 173.12 84.72 172.38 83.86 172.34 L 82.91 172.29 C 82.05 172.25 81.32 172.91 81.27 173.77 C 81.23 174.63 81.89 175.37 82.75 175.41 Z M 83.71 175.46 L 84.68 175.51 C 85.55 175.55 86.28 174.88 86.32 174.02 C 86.36 173.15 85.69 172.42 84.83 172.38 L 83.86 172.34 C 82.99 172.30 82.26 172.96 82.22 173.83 C 82.18 174.69 82.85 175.42 83.71 175.46 Z M 84.69 175.51 L 85.68 175.55 C 86.54 175.59 87.27 174.92 87.31 174.05 C 87.35 173.19 86.68 172.46 85.81 172.42 L 84.82 172.38 C 83.96 172.34 83.23 173.01 83.19 173.88 C 83.15 174.74 83.82 175.47 84.69 175.51 Z M 85.68 175.55 L 86.69 175.59 C 87.56 175.63 88.29 174.95 88.32 174.09 C 88.35 173.22 87.68 172.49 86.81 172.46 L 85.81 172.42 C 84.94 172.39 84.21 173.06 84.18 173.93 C 84.15 174.79 84.82 175.52 85.68 175.55 Z M 86.70 175.59 L 87.72 175.63 C 88.59 175.66 89.31 174.98 89.34 174.12 C 89.38 173.25 88.70 172.53 87.83 172.49 L 86.81 172.46 C 85.94 172.43 85.22 173.10 85.19 173.97 C 85.16 174.84 85.83 175.56 86.70 175.59 Z M 87.73 175.63 L 88.76 175.66 C 89.63 175.69 90.36 175.01 90.38 174.15 C 90.41 173.28 89.73 172.55 88.86 172.53 L 87.83 172.49 C 86.96 172.47 86.24 173.15 86.21 174.01 C 86.18 174.88 86.86 175.60 87.73 175.63 Z M 88.77 175.67 L 89.77 175.70 C 90.64 175.72 91.37 175.04 91.39 174.17 C 91.42 173.30 90.73 172.58 89.87 172.55 L 88.86 172.52 C 87.99 172.50 87.27 173.18 87.24 174.05 C 87.22 174.92 87.90 175.64 88.77 175.67 Z M 89.78 175.70 L 90.76 175.72 C 91.63 175.75 92.35 175.06 92.38 174.19 C 92.40 173.32 91.71 172.60 90.84 172.58 L 89.86 172.55 C 88.99 172.53 88.27 173.21 88.25 174.08 C 88.22 174.95 88.91 175.68 89.78 175.70 Z M 90.77 175.73 L 91.76 175.75 C 92.63 175.77 93.35 175.08 93.37 174.21 C 93.39 173.34 92.70 172.62 91.83 172.60 L 90.84 172.57 C 89.97 172.55 89.25 173.24 89.23 174.11 C 89.21 174.98 89.89 175.71 90.77 175.73 Z M 91.76 175.75 L 92.76 175.77 C 93.63 175.79 94.35 175.10 94.37 174.23 C 94.39 173.36 93.70 172.63 92.83 172.62 L 91.83 172.59 C 90.96 172.58 90.23 173.27 90.21 174.14 C 90.20 175.01 90.89 175.73 91.76 175.75 Z M 92.76 175.78 L 93.77 175.80 C 94.64 175.81 95.36 175.12 95.38 174.25 C 95.40 173.37 94.70 172.65 93.83 172.63 L 92.82 172.61 C 91.95 172.60 91.23 173.29 91.21 174.16 C 91.19 175.04 91.89 175.76 92.76 175.78 Z M 93.77 175.80 L 94.78 175.82 C 95.65 175.84 96.38 175.14 96.39 174.27 C 96.41 173.39 95.71 172.67 94.84 172.65 L 93.83 172.63 C 92.95 172.61 92.23 173.31 92.21 174.18 C 92.20 175.06 92.89 175.78 93.77 175.80 Z M 94.78 175.82 L 95.79 175.84 C 96.67 175.86 97.39 175.16 97.41 174.28 C 97.43 173.41 96.73 172.68 95.85 172.67 L 94.84 172.65 C 93.96 172.63 93.24 173.33 93.22 174.21 C 93.21 175.08 93.90 175.80 94.78 175.82 Z M 95.79 175.84 L 96.80 175.86 C 97.67 175.88 98.40 175.18 98.41 174.30 C 98.43 173.42 97.73 172.70 96.86 172.68 L 95.85 172.67 C 94.98 172.65 94.25 173.35 94.24 174.22 C 94.22 175.10 94.92 175.83 95.79 175.84 Z M 96.80 175.86 L 97.78 175.88 C 98.66 175.90 99.39 175.20 99.40 174.32 C 99.42 173.44 98.72 172.72 97.84 172.70 L 96.85 172.68 C 95.98 172.67 95.25 173.37 95.24 174.24 C 95.22 175.12 95.92 175.85 96.80 175.86 Z M 97.79 175.88 L 98.78 175.90 C 99.66 175.91 100.38 175.21 100.40 174.34 C 100.41 173.46 99.71 172.73 98.83 172.72 L 97.84 172.70 C 96.96 172.68 96.24 173.38 96.22 174.26 C 96.21 175.14 96.91 175.87 97.79 175.88 Z M 98.78 175.90 L 99.77 175.92 C 100.65 175.93 101.38 175.23 101.39 174.35 C 101.41 173.47 100.71 172.75 99.83 172.73 L 98.83 172.71 C 97.95 172.70 97.23 173.40 97.21 174.28 C 97.20 175.16 97.90 175.89 98.78 175.90 Z M 99.78 175.92 L 100.77 175.93 C 101.66 175.95 102.38 175.24 102.39 174.36 C 102.41 173.48 101.70 172.76 100.82 172.75 L 99.82 172.73 C 98.94 172.72 98.22 173.42 98.21 174.30 C 98.19 175.18 98.89 175.90 99.78 175.92 Z M 100.78 175.93 L 101.78 175.95 C 102.66 175.96 103.39 175.26 103.40 174.38 C 103.41 173.49 102.71 172.77 101.83 172.76 L 100.82 172.74 C 99.94 172.73 99.22 173.44 99.20 174.32 C 99.19 175.20 99.90 175.92 100.78 175.93 Z M 101.79 175.95 L 102.80 175.96 C 103.68 175.97 104.40 175.27 104.41 174.38 C 104.42 173.50 103.72 172.78 102.84 172.77 L 101.82 172.76 C 100.94 172.75 100.22 173.45 100.21 174.33 C 100.20 175.22 100.90 175.94 101.79 175.95 Z M 102.80 175.96 L 103.81 175.97 C 104.69 175.98 105.42 175.27 105.42 174.39 C 105.43 173.51 104.72 172.79 103.84 172.78 L 102.83 172.77 C 101.95 172.76 101.23 173.47 101.22 174.35 C 101.21 175.23 101.92 175.96 102.80 175.96 Z M 103.81 175.97 L 104.77 175.98 C 105.66 175.99 106.38 175.28 106.39 174.39 C 106.39 173.51 105.68 172.79 104.80 172.78 L 103.84 172.78 C 102.95 172.77 102.23 173.48 102.23 174.36 C 102.22 175.25 102.93 175.97 103.81 175.97 Z M 104.78 175.98 L 105.74 175.99 C 106.63 175.99 107.35 175.28 107.35 174.40 C 107.36 173.51 106.65 172.79 105.76 172.79 L 104.79 172.78 C 103.91 172.78 103.19 173.49 103.18 174.37 C 103.18 175.26 103.89 175.98 104.78 175.98 Z M 105.75 175.99 L 106.73 175.99 C 107.61 176.00 108.33 175.28 108.33 174.40 C 108.34 173.51 107.62 172.79 106.74 172.79 L 105.76 172.79 C 104.88 172.78 104.16 173.50 104.15 174.38 C 104.15 175.27 104.86 175.99 105.75 175.99 Z M 106.73 175.99 L 107.72 176.00 C 108.60 176.00 109.32 175.28 109.33 174.40 C 109.33 173.51 108.61 172.79 107.73 172.79 L 106.74 172.79 C 105.85 172.79 105.13 173.50 105.13 174.39 C 105.13 175.27 105.84 175.99 106.73 175.99 Z M 107.72 176.00 L 108.73 176.00 C 109.61 176.00 110.33 175.28 110.33 174.40 C 110.33 173.51 109.62 172.79 108.73 172.79 L 107.73 172.79 C 106.84 172.79 106.12 173.51 106.12 174.39 C 106.12 175.28 106.84 176.00 107.72 176.00 Z M 108.73 176.00 L 109.75 176.00 C 110.64 176.00 111.35 175.28 111.35 174.40 C 111.36 173.51 110.64 172.79 109.75 172.79 L 108.73 172.79 C 107.84 172.79 107.13 173.51 107.12 174.39 C 107.12 175.28 107.84 176.00 108.73 176.00 Z M 109.75 176.00 L 110.79 176.00 C 111.68 176.00 112.40 175.28 112.40 174.40 C 112.40 173.51 111.68 172.79 110.79 172.79 L 109.75 172.79 C 108.86 172.79 108.15 173.51 108.15 174.40 C 108.15 175.28 108.86 176.00 109.75 176.00 Z M 110.79 176.00 L 111.82 176.00 C 112.71 176.00 113.43 175.28 113.43 174.40 C 113.43 173.51 112.71 172.79 111.82 172.79 L 110.79 172.79 C 109.90 172.79 109.19 173.51 109.19 174.40 C 109.19 175.28 109.90 176.00 110.79 176.00 Z M 111.82 176.00 L 112.80 176.00 C 113.68 176.00 114.40 175.28 114.40 174.40 C 114.40 173.51 113.68 172.79 112.80 172.79 L 111.82 172.79 C 110.93 172.79 110.21 173.51 110.21 174.40 C 110.21 175.28 110.93 176.00 111.82 176.00 Z M 112.80 176.00 L 113.78 176.00 C 114.67 176.00 115.39 175.28 115.39 174.40 C 115.39 173.51 114.67 172.79 113.78 172.79 L 112.80 172.79 C 111.91 172.79 111.19 173.51 111.19 174.40 C 111.19 175.28 111.91 176.00 112.80 176.00 Z M 113.78 176.01 L 114.78 176.01 C 115.67 176.01 116.39 175.29 116.39 174.40 C 116.39 173.51 115.67 172.79 114.78 172.79 L 113.78 172.79 C 112.89 172.79 112.17 173.51 112.17 174.40 C 112.17 175.29 112.89 176.01 113.78 176.01 Z M 114.78 176.01 L 115.79 176.01 C 116.68 176.01 117.40 175.29 117.40 174.40 C 117.40 173.51 116.68 172.78 115.79 172.78 L 114.78 172.78 C 113.89 172.78 113.17 173.51 113.17 174.40 C 113.17 175.29 113.89 176.01 114.78 176.01 Z M 115.79 176.01 L 116.80 176.01 C 117.69 176.01 118.41 175.29 118.41 174.40 C 118.41 173.50 117.69 172.78 116.80 172.78 L 115.79 172.78 C 114.90 172.78 114.18 173.50 114.18 174.40 C 114.18 175.29 114.90 176.01 115.79 176.01 Z M 116.80 176.01 L 117.81 176.01 C 118.71 176.01 119.43 175.29 119.43 174.40 C 119.43 173.50 118.71 172.78 117.81 172.78 L 116.80 172.78 C 115.91 172.78 115.19 173.50 115.19 174.40 C 115.19 175.29 115.91 176.01 116.80 176.01 Z M 117.81 176.01 L 118.82 176.01 C 119.72 176.01 120.44 175.29 120.44 174.40 C 120.44 173.50 119.72 172.78 118.82 172.78 L 117.81 172.78 C 116.92 172.78 116.20 173.50 116.20 174.40 C 116.20 175.29 116.92 176.01 117.81 176.01 Z M 118.82 176.01 L 119.83 176.01 C 120.73 176.01 121.45 175.29 121.45 174.40 C 121.45 173.50 120.73 172.78 119.83 172.78 L 118.82 172.78 C 117.93 172.78 117.21 173.50 117.21 174.40 C 117.21 175.29 117.93 176.01 118.82 176.01 Z M 119.83 176.02 L 120.84 176.02 C 121.74 176.02 122.46 175.29 122.46 174.40 C 122.46 173.50 121.74 172.78 120.84 172.78 L 119.83 172.78 C 118.94 172.78 118.21 173.50 118.21 174.40 C 118.21 175.29 118.94 176.02 119.83 176.02 Z M 120.84 176.02 L 121.85 176.02 C 122.75 176.02 123.48 175.29 123.48 174.40 C 123.48 173.50 122.75 172.77 121.85 172.77 L 120.84 172.78 C 119.95 172.78 119.22 173.50 119.22 174.40 C 119.22 175.29 119.95 176.02 120.84 176.02 Z M 121.86 176.02 L 122.86 176.02 C 123.76 176.02 124.48 175.29 124.48 174.39 C 124.48 173.50 123.75 172.77 122.86 172.77 L 121.85 172.77 C 120.96 172.77 120.23 173.50 120.23 174.40 C 120.23 175.29 120.96 176.02 121.86 176.02 Z M 122.86 176.02 L 123.86 176.02 C 124.76 176.02 125.48 175.29 125.48 174.39 C 125.48 173.50 124.75 172.77 123.86 172.77 L 122.86 172.77 C 121.96 172.77 121.24 173.50 121.24 174.40 C 121.24 175.29 121.97 176.02 122.86 176.02 Z M 123.86 176.02 L 124.86 176.02 C 125.75 176.01 126.48 175.29 126.48 174.39 C 126.48 173.49 125.75 172.77 124.85 172.77 L 123.86 172.77 C 122.96 172.77 122.23 173.50 122.24 174.40 C 122.24 175.29 122.97 176.02 123.86 176.02 Z M 124.86 176.02 L 125.85 176.01 C 126.75 176.01 127.47 175.28 127.47 174.39 C 127.47 173.49 126.74 172.76 125.84 172.77 L 124.85 172.77 C 123.95 172.77 123.23 173.50 123.23 174.40 C 123.23 175.29 123.96 176.02 124.86 176.02 Z M 125.86 176.01 L 126.85 176.01 C 127.74 176.01 128.47 175.28 128.47 174.38 C 128.46 173.48 127.73 172.76 126.84 172.76 L 125.84 172.77 C 124.95 172.77 124.22 173.50 124.23 174.40 C 124.23 175.29 124.96 176.02 125.86 176.01 Z M 126.85 176.01 L 127.84 176.00 C 128.74 176.00 129.46 175.27 129.46 174.37 C 129.45 173.47 128.72 172.75 127.83 172.76 L 126.83 172.76 C 125.94 172.77 125.21 173.50 125.22 174.39 C 125.22 175.29 125.95 176.01 126.85 176.01 Z M 127.85 176.00 L 128.84 176.00 C 129.74 175.99 130.46 175.26 130.46 174.36 C 130.45 173.46 129.72 172.74 128.82 172.75 L 127.82 172.76 C 126.93 172.76 126.20 173.49 126.21 174.39 C 126.22 175.29 126.95 176.01 127.85 176.00 Z M 128.85 176.00 L 129.85 175.99 C 130.75 175.98 131.47 175.25 131.46 174.35 C 131.45 173.45 130.72 172.73 129.82 172.74 L 128.82 172.75 C 127.92 172.76 127.20 173.49 127.21 174.39 C 127.22 175.28 127.95 176.01 128.85 176.00 Z M 129.85 175.99 L 130.86 175.98 C 131.75 175.97 132.47 175.23 132.46 174.33 C 132.45 173.44 131.72 172.72 130.82 172.73 L 129.81 172.74 C 128.92 172.75 128.20 173.49 128.21 174.38 C 128.22 175.28 128.96 176.00 129.85 175.99 Z M 130.86 175.98 L 131.87 175.96 C 132.76 175.95 133.48 175.21 133.47 174.31 C 133.45 173.42 132.71 172.70 131.82 172.71 L 130.81 172.73 C 129.92 172.74 129.20 173.48 129.21 174.38 C 129.23 175.27 129.96 175.99 130.86 175.98 Z M 131.87 175.96 L 132.88 175.94 C 133.77 175.93 134.49 175.19 134.47 174.29 C 134.45 173.39 133.71 172.68 132.82 172.70 L 131.81 172.71 C 130.92 172.73 130.20 173.47 130.22 174.37 C 130.24 175.26 130.98 175.98 131.87 175.96 Z M 132.88 175.94 L 133.89 175.92 C 134.78 175.90 135.49 175.15 135.47 174.26 C 135.45 173.36 134.71 172.65 133.81 172.67 L 132.81 172.70 C 131.91 172.72 131.20 173.46 131.22 174.36 C 131.24 175.25 131.99 175.96 132.88 175.94 Z M 133.89 175.92 L 134.89 175.89 C 135.79 175.86 136.50 175.12 136.47 174.22 C 136.45 173.33 135.70 172.62 134.80 172.65 L 133.80 172.67 C 132.91 172.70 132.20 173.45 132.23 174.34 C 132.25 175.24 133.00 175.94 133.89 175.92 Z M 134.90 175.89 L 135.90 175.85 C 136.80 175.82 137.50 175.07 137.47 174.18 C 137.43 173.28 136.68 172.58 135.79 172.61 L 134.79 172.65 C 133.90 172.68 133.20 173.43 133.23 174.32 C 133.26 175.22 134.01 175.92 134.90 175.89 Z M 135.91 175.85 L 136.90 175.81 C 137.80 175.78 138.49 175.02 138.45 174.13 C 138.42 173.23 137.66 172.54 136.77 172.57 L 135.78 172.61 C 134.88 172.65 134.19 173.41 134.22 174.30 C 134.26 175.19 135.02 175.89 135.91 175.85 Z M 136.91 175.81 L 137.93 175.76 C 138.82 175.72 139.51 174.96 139.47 174.07 C 139.42 173.17 138.66 172.48 137.77 172.52 L 136.76 172.57 C 135.86 172.62 135.17 173.38 135.22 174.27 C 135.26 175.17 136.02 175.86 136.91 175.81 Z M 137.94 175.76 L 138.97 175.70 C 139.86 175.65 140.54 174.89 140.49 173.99 C 140.44 173.10 139.68 172.42 138.78 172.47 L 137.76 172.53 C 136.86 172.58 136.18 173.34 136.23 174.24 C 136.28 175.13 137.05 175.81 137.94 175.76 Z M 138.98 175.70 L 140.00 175.64 C 140.89 175.58 141.57 174.81 141.51 173.92 C 141.45 173.02 140.68 172.35 139.79 172.40 L 138.77 172.47 C 137.88 172.53 137.20 173.30 137.26 174.19 C 137.31 175.08 138.09 175.76 138.98 175.70 Z M 140.01 175.64 L 141.01 175.56 C 141.91 175.50 142.58 174.73 142.52 173.83 C 142.45 172.94 141.68 172.27 140.78 172.33 L 139.78 172.40 C 138.88 172.47 138.21 173.24 138.28 174.14 C 138.34 175.03 139.11 175.70 140.01 175.64 Z M 141.03 175.56 L 142.02 175.49 C 142.92 175.42 143.58 174.64 143.51 173.74 C 143.44 172.85 142.66 172.18 141.77 172.25 L 140.77 172.33 C 139.88 172.40 139.21 173.18 139.28 174.08 C 139.35 174.97 140.13 175.63 141.03 175.56 Z M 142.03 175.48 L 143.02 175.40 C 143.91 175.32 144.57 174.54 144.50 173.65 C 144.42 172.76 143.64 172.10 142.75 172.17 L 141.76 172.26 C 140.87 172.33 140.21 173.12 140.28 174.01 C 140.36 174.90 141.14 175.56 142.03 175.48 Z M 143.03 175.40 L 144.01 175.31 C 144.90 175.23 145.55 174.44 145.47 173.55 C 145.39 172.66 144.60 172.00 143.71 172.08 L 142.74 172.17 C 141.85 172.25 141.19 173.04 141.27 173.93 C 141.35 174.82 142.14 175.48 143.03 175.40 Z M 144.02 175.31 L 144.98 175.21 C 145.87 175.13 146.52 174.33 146.44 173.44 C 146.35 172.55 145.56 171.90 144.67 171.99 L 143.70 172.08 C 142.81 172.17 142.16 172.96 142.25 173.85 C 142.34 174.74 143.13 175.39 144.02 175.31 Z M 144.99 175.21 L 145.99 175.11 C 146.88 175.02 147.53 174.22 147.43 173.33 C 147.34 172.44 146.55 171.80 145.66 171.89 L 144.66 171.99 C 143.77 172.08 143.12 172.88 143.21 173.77 C 143.31 174.66 144.10 175.30 144.99 175.21 Z M 146.00 175.11 L 147.03 174.99 C 147.91 174.90 148.56 174.10 148.46 173.21 C 148.36 172.32 147.56 171.68 146.67 171.78 L 145.65 171.89 C 144.76 171.99 144.12 172.79 144.21 173.67 C 144.31 174.56 145.11 175.21 146.00 175.11 Z M 147.03 174.99 L 148.05 174.88 C 148.93 174.77 149.57 173.97 149.47 173.08 C 149.36 172.19 148.56 171.56 147.67 171.66 L 146.66 171.78 C 145.77 171.88 145.14 172.68 145.24 173.57 C 145.34 174.46 146.15 175.10 147.03 174.99 Z M 148.06 174.87 L 149.06 174.75 C 149.94 174.64 150.57 173.84 150.47 172.95 C 150.36 172.06 149.55 171.43 148.66 171.54 L 147.66 171.66 C 146.78 171.77 146.14 172.58 146.25 173.46 C 146.36 174.35 147.17 174.98 148.06 174.87 Z M 149.07 174.75 L 150.05 174.62 C 150.94 174.51 151.56 173.70 151.45 172.81 C 151.34 171.93 150.52 171.30 149.64 171.41 L 148.65 171.54 C 147.77 171.65 147.14 172.47 147.25 173.35 C 147.37 174.24 148.18 174.87 149.07 174.75 Z M 150.06 174.62 L 151.04 174.49 C 151.92 174.37 152.54 173.56 152.42 172.67 C 152.30 171.78 151.49 171.16 150.60 171.28 L 149.63 171.41 C 148.74 171.53 148.12 172.35 148.24 173.24 C 148.36 174.12 149.18 174.74 150.06 174.62 Z M 151.05 174.49 L 152.01 174.35 C 152.90 174.23 153.51 173.41 153.39 172.52 C 153.26 171.64 152.44 171.02 151.56 171.15 L 150.59 171.28 C 149.71 171.41 149.09 172.23 149.22 173.11 C 149.34 174.00 150.16 174.61 151.05 174.49 Z M 152.02 174.35 L 152.98 174.21 C 153.86 174.08 154.47 173.25 154.34 172.37 C 154.21 171.49 153.39 170.88 152.50 171.01 L 151.55 171.15 C 150.66 171.28 150.05 172.10 150.18 172.99 C 150.31 173.87 151.14 174.48 152.02 174.35 Z M 152.99 174.21 L 153.97 174.05 C 154.85 173.92 155.46 173.09 155.32 172.21 C 155.18 171.32 154.36 170.72 153.47 170.86 L 152.49 171.01 C 151.61 171.15 151.01 171.97 151.14 172.86 C 151.28 173.74 152.11 174.34 152.99 174.21 Z M 153.98 174.05 L 154.95 173.90 C 155.83 173.76 156.43 172.93 156.29 172.04 C 156.15 171.16 155.32 170.56 154.44 170.70 L 153.46 170.86 C 152.58 171.00 151.98 171.83 152.12 172.71 C 152.27 173.59 153.09 174.19 153.98 174.05 Z M 154.96 173.90 L 155.93 173.74 C 156.81 173.59 157.41 172.76 157.26 171.88 C 157.12 171.00 156.29 170.40 155.41 170.54 L 154.43 170.70 C 153.55 170.85 152.95 171.68 153.10 172.56 C 153.24 173.44 154.08 174.04 154.96 173.90 Z M 155.93 173.73 L 156.91 173.57 C 157.79 173.43 158.39 172.59 158.24 171.71 C 158.09 170.83 157.26 170.24 156.38 170.38 L 155.40 170.55 C 154.52 170.69 153.93 171.52 154.07 172.41 C 154.22 173.29 155.05 173.88 155.93 173.73 Z M 156.91 173.57 L 157.90 173.41 C 158.78 173.26 159.37 172.43 159.23 171.55 C 159.08 170.67 158.25 170.07 157.37 170.22 L 156.38 170.38 C 155.50 170.53 154.90 171.36 155.05 172.24 C 155.20 173.12 156.03 173.72 156.91 173.57 Z M 157.90 173.41 L 158.90 173.24 C 159.78 173.09 160.37 172.26 160.23 171.38 C 160.08 170.50 159.25 169.91 158.37 170.05 L 157.37 170.22 C 156.49 170.37 155.89 171.20 156.04 172.08 C 156.18 172.96 157.02 173.55 157.90 173.41 Z M 158.89 173.24 L 159.91 173.07 C 160.79 172.93 161.39 172.10 161.24 171.22 C 161.10 170.34 160.27 169.74 159.39 169.89 L 158.37 170.05 C 157.49 170.20 156.89 171.03 157.04 171.91 C 157.18 172.79 158.01 173.38 158.89 173.24 Z M 159.91 173.07 L 160.88 172.92 C 161.76 172.78 162.36 171.95 162.22 171.07 C 162.08 170.19 161.25 169.59 160.37 169.73 L 159.40 169.89 C 158.52 170.03 157.92 170.86 158.06 171.74 C 158.20 172.62 159.03 173.21 159.91 173.07 Z M 160.87 172.92 L 161.86 172.76 C 162.74 172.62 163.34 171.80 163.20 170.92 C 163.06 170.04 162.24 169.44 161.36 169.57 L 160.37 169.73 C 159.49 169.87 158.89 170.69 159.03 171.57 C 159.17 172.45 159.99 173.06 160.87 172.92 Z M 161.86 172.76 L 162.85 172.60 C 163.73 172.47 164.34 171.64 164.20 170.76 C 164.06 169.88 163.24 169.28 162.36 169.42 L 161.36 169.57 C 160.48 169.71 159.88 170.54 160.02 171.42 C 160.15 172.30 160.98 172.90 161.86 172.76 Z M 162.85 172.60 L 163.85 172.45 C 164.73 172.31 165.33 171.49 165.20 170.61 C 165.06 169.73 164.24 169.13 163.36 169.27 L 162.36 169.42 C 161.48 169.56 160.88 170.38 161.01 171.26 C 161.15 172.14 161.97 172.74 162.85 172.60 Z M 163.85 172.45 L 164.85 172.30 C 165.73 172.16 166.33 171.34 166.20 170.46 C 166.06 169.58 165.24 168.98 164.36 169.11 L 163.36 169.27 C 162.48 169.40 161.88 170.22 162.02 171.10 C 162.15 171.98 162.97 172.58 163.85 172.45 Z M 164.85 172.30 L 165.84 172.14 C 166.72 172.01 167.32 171.19 167.19 170.31 C 167.06 169.43 166.24 168.83 165.36 168.96 L 164.36 169.11 C 163.49 169.25 162.88 170.07 163.02 170.95 C 163.15 171.83 163.97 172.43 164.85 172.30 Z M 165.84 172.14 L 166.82 171.99 C 167.70 171.86 168.31 171.04 168.17 170.16 C 168.04 169.28 167.22 168.68 166.34 168.81 L 165.36 168.96 C 164.48 169.10 163.88 169.92 164.01 170.80 C 164.14 171.67 164.96 172.28 165.84 172.14 Z M 166.83 171.99 L 167.82 171.84 C 168.70 171.71 169.30 170.89 169.16 170.01 C 169.03 169.13 168.21 168.53 167.33 168.66 L 166.34 168.82 C 165.46 168.95 164.86 169.77 164.99 170.65 C 165.13 171.52 165.95 172.13 166.83 171.99 Z M 167.82 171.84 L 168.85 171.68 C 169.72 171.55 170.32 170.73 170.19 169.85 C 170.05 168.97 169.23 168.37 168.36 168.51 L 167.33 168.66 C 166.45 168.80 165.85 169.62 165.99 170.50 C 166.12 171.37 166.94 171.97 167.82 171.84 Z M 168.85 171.68 L 169.85 171.52 C 170.73 171.39 171.33 170.57 171.19 169.69 C 171.06 168.82 170.24 168.22 169.36 168.35 L 168.36 168.51 C 167.48 168.64 166.88 169.46 167.01 170.34 C 167.15 171.22 167.97 171.82 168.85 171.68 Z M 169.85 171.52 L 170.84 171.37 C 171.72 171.23 172.32 170.41 172.18 169.54 C 172.05 168.66 171.23 168.06 170.35 168.20 L 169.36 168.35 C 168.48 168.49 167.89 169.31 168.02 170.18 C 168.16 171.06 168.98 171.66 169.85 171.52 Z M 170.84 171.37 L 171.82 171.22 C 172.70 171.08 173.30 170.26 173.16 169.38 C 173.02 168.51 172.20 167.91 171.33 168.05 L 170.35 168.20 C 169.47 168.34 168.88 169.16 169.01 170.03 C 169.15 170.91 169.97 171.51 170.84 171.37 Z M 171.82 171.22 L 172.79 171.06 C 173.67 170.93 174.26 170.11 174.13 169.23 C 173.99 168.36 173.17 167.76 172.30 167.90 L 171.33 168.05 C 170.45 168.18 169.85 169.00 169.99 169.88 C 170.13 170.75 170.95 171.35 171.82 171.22 Z M 172.79 171.06 L 173.75 170.91 C 174.63 170.78 175.23 169.96 175.09 169.08 C 174.95 168.21 174.13 167.61 173.26 167.75 L 172.29 167.90 C 171.42 168.03 170.82 168.85 170.96 169.73 C 171.10 170.60 171.92 171.20 172.79 171.06 Z M 173.75 170.91 L 174.73 170.76 C 175.60 170.62 176.20 169.80 176.06 168.93 C 175.92 168.05 175.10 167.46 174.23 167.59 L 173.26 167.75 C 172.38 167.88 171.79 168.70 171.92 169.58 C 172.06 170.45 172.88 171.05 173.75 170.91 Z M 174.72 170.76 L 175.72 170.60 C 176.60 170.47 177.19 169.65 177.06 168.77 C 176.92 167.90 176.10 167.30 175.23 167.44 L 174.23 167.59 C 173.35 167.73 172.76 168.55 172.89 169.42 C 173.03 170.30 173.85 170.90 174.72 170.76 Z M 175.72 170.60 L 176.72 170.45 C 177.59 170.31 178.19 169.49 178.05 168.62 C 177.92 167.74 177.10 167.14 176.22 167.28 L 175.23 167.44 C 174.35 167.57 173.76 168.39 173.89 169.27 C 174.03 170.14 174.85 170.74 175.72 170.60 Z M 176.72 170.45 L 177.71 170.30 C 178.58 170.16 179.18 169.34 179.05 168.47 C 178.91 167.59 178.10 166.99 177.22 167.13 L 176.23 167.28 C 175.35 167.42 174.75 168.23 174.89 169.11 C 175.02 169.98 175.84 170.58 176.72 170.45 Z M 177.71 170.30 L 178.69 170.15 C 179.57 170.01 180.17 169.20 180.04 168.32 C 179.91 167.44 179.09 166.84 178.21 166.98 L 177.22 167.13 C 176.35 167.26 175.75 168.08 175.88 168.95 C 176.01 169.83 176.83 170.43 177.71 170.30 Z M 178.69 170.15 L 179.67 170.00 C 180.55 169.87 181.15 169.05 181.02 168.18 C 180.89 167.30 180.08 166.70 179.20 166.83 L 178.22 166.97 C 177.34 167.11 176.74 167.92 176.87 168.80 C 177.00 169.67 177.81 170.28 178.69 170.15 Z M 179.67 170.00 L 180.65 169.86 C 181.52 169.73 182.13 168.92 182.00 168.04 C 181.87 167.16 181.06 166.56 180.18 166.68 L 179.21 166.83 C 178.33 166.95 177.72 167.77 177.85 168.65 C 177.98 169.52 178.79 170.13 179.67 170.00 Z M 180.64 169.86 L 181.64 169.72 C 182.52 169.59 183.13 168.78 183.01 167.91 C 182.88 167.03 182.07 166.42 181.20 166.54 L 180.19 166.68 C 179.31 166.81 178.70 167.62 178.83 168.50 C 178.95 169.37 179.76 169.98 180.64 169.86 Z M 181.64 169.72 L 182.67 169.58 C 183.54 169.46 184.16 168.65 184.04 167.77 C 183.92 166.90 183.11 166.28 182.23 166.40 L 181.20 166.54 C 180.33 166.66 179.71 167.47 179.83 168.35 C 179.95 169.22 180.76 169.84 181.64 169.72 Z M 182.66 169.58 L 183.67 169.44 C 184.55 169.33 185.17 168.52 185.05 167.65 C 184.94 166.77 184.13 166.15 183.26 166.27 L 182.24 166.40 C 181.36 166.52 180.75 167.32 180.86 168.20 C 180.98 169.08 181.78 169.69 182.66 169.58 Z M 183.67 169.44 L 184.67 169.32 C 185.54 169.20 186.16 168.40 186.05 167.53 C 185.94 166.65 185.14 166.03 184.26 166.14 L 183.26 166.27 C 182.39 166.38 181.77 167.18 181.88 168.06 C 181.99 168.93 182.79 169.55 183.67 169.44 Z M 184.66 169.32 L 185.64 169.19 C 186.51 169.09 187.14 168.29 187.03 167.41 C 186.92 166.54 186.12 165.91 185.25 166.02 L 184.27 166.14 C 183.39 166.25 182.77 167.05 182.88 167.92 C 182.98 168.80 183.78 169.42 184.66 169.32 Z M 185.63 169.19 L 186.59 169.08 C 187.46 168.98 188.09 168.18 187.99 167.31 C 187.88 166.43 187.09 165.80 186.21 165.91 L 185.25 166.02 C 184.38 166.13 183.75 166.92 183.86 167.80 C 183.96 168.67 184.76 169.30 185.63 169.19 Z M 186.58 169.08 L 187.55 168.97 C 188.43 168.87 189.05 168.08 188.95 167.20 C 188.85 166.33 188.06 165.70 187.19 165.80 L 186.22 165.91 C 185.34 166.01 184.71 166.80 184.82 167.68 C 184.92 168.55 185.71 169.18 186.58 169.08 Z M 187.54 168.97 L 188.61 168.85 C 189.48 168.76 190.11 167.97 190.02 167.09 C 189.92 166.22 189.13 165.58 188.26 165.68 L 187.19 165.80 C 186.32 165.89 185.69 166.68 185.78 167.56 C 185.88 168.43 186.67 169.07 187.54 168.97 Z M 188.60 168.85 L 189.63 168.75 C 190.50 168.65 191.14 167.87 191.05 166.99 C 190.96 166.12 190.17 165.48 189.30 165.57 L 188.27 165.68 C 187.39 165.77 186.75 166.55 186.85 167.43 C 186.94 168.31 187.72 168.94 188.60 168.85 Z M 189.61 168.75 L 190.61 168.65 C 191.48 168.57 192.13 167.79 192.04 166.91 C 191.96 166.03 191.18 165.39 190.30 165.48 L 189.31 165.57 C 188.43 165.66 187.79 166.43 187.87 167.31 C 187.96 168.19 188.74 168.83 189.61 168.75 Z M 190.59 168.65 L 191.55 168.57 C 192.43 168.49 193.08 167.72 193.00 166.84 C 192.93 165.96 192.15 165.31 191.27 165.39 L 190.32 165.47 C 189.44 165.55 188.79 166.32 188.86 167.20 C 188.94 168.08 189.71 168.73 190.59 168.65 Z M 191.53 168.57 L 192.46 168.50 C 193.34 168.43 194.00 167.67 193.93 166.79 C 193.86 165.91 193.10 165.25 192.22 165.32 L 191.29 165.39 C 190.41 165.46 189.75 166.22 189.82 167.10 C 189.89 167.98 190.66 168.64 191.53 168.57 Z M 192.44 168.50 L 193.40 168.44 C 194.28 168.38 194.95 167.63 194.89 166.75 C 194.84 165.87 194.08 165.20 193.20 165.26 L 192.24 165.32 C 191.36 165.37 190.69 166.13 190.75 167.01 C 190.80 167.89 191.56 168.56 192.44 168.50 Z M 193.38 168.44 L 194.34 168.39 C 195.22 168.35 195.89 167.60 195.85 166.72 C 195.81 165.84 195.06 165.17 194.18 165.21 L 193.22 165.26 C 192.34 165.30 191.67 166.05 191.71 166.93 C 191.76 167.81 192.50 168.48 193.38 168.44 Z M 194.32 168.39 L 195.29 168.35 C 196.17 168.32 196.85 167.58 196.82 166.70 C 196.78 165.82 196.05 165.14 195.17 165.17 L 194.20 165.21 C 193.32 165.25 192.64 165.99 192.67 166.86 C 192.71 167.74 193.45 168.42 194.32 168.39 Z M 195.28 168.35 L 196.29 168.32 C 197.17 168.29 197.85 167.56 197.83 166.68 C 197.80 165.81 197.07 165.12 196.19 165.14 L 195.18 165.18 C 194.31 165.20 193.62 165.94 193.65 166.81 C 193.67 167.69 194.40 168.37 195.28 168.35 Z M 196.28 168.31 L 197.36 168.29 C 198.23 168.26 198.92 167.54 198.90 166.66 C 198.88 165.79 198.15 165.10 197.27 165.12 L 196.20 165.15 C 195.33 165.17 194.63 165.90 194.66 166.77 C 194.68 167.65 195.41 168.34 196.28 168.31 Z M 197.35 168.28 L 198.33 168.26 C 199.20 168.24 199.89 167.52 199.87 166.65 C 199.85 165.77 199.13 165.08 198.26 165.10 L 197.28 165.12 C 196.41 165.14 195.71 165.87 195.73 166.74 C 195.75 167.61 196.48 168.30 197.35 168.28 Z M 198.32 168.26 L 199.33 168.25 C 200.20 168.23 200.90 167.51 200.89 166.64 C 200.87 165.77 200.15 165.07 199.28 165.08 L 198.27 165.10 C 197.39 165.11 196.70 165.83 196.71 166.71 C 196.73 167.58 197.44 168.28 198.32 168.26 Z M 199.31 168.24 L 200.34 168.24 C 201.22 168.24 201.92 167.53 201.92 166.65 C 201.91 165.78 201.20 165.08 200.33 165.08 L 199.30 165.08 C 198.43 165.09 197.72 165.80 197.72 166.67 C 197.73 167.54 198.44 168.25 199.31 168.24 Z M 200.32 168.24 L 201.34 168.25 C 202.21 168.26 202.93 167.57 202.94 166.69 C 202.95 165.82 202.26 165.11 201.38 165.09 L 200.36 165.08 C 199.48 165.07 198.77 165.77 198.76 166.64 C 198.75 167.51 199.44 168.23 200.32 168.24 Z M 201.30 168.25 L 202.30 168.29 C 203.17 168.32 203.91 167.64 203.94 166.77 C 203.97 165.90 203.29 165.17 202.42 165.13 L 201.42 165.10 C 200.55 165.06 199.82 165.74 199.79 166.62 C 199.75 167.49 200.43 168.22 201.30 168.25 Z M 202.25 168.28 L 203.23 168.35 C 204.10 168.41 204.85 167.76 204.91 166.89 C 204.98 166.02 204.32 165.27 203.45 165.21 L 202.47 165.14 C 201.60 165.08 200.85 165.73 200.79 166.60 C 200.73 167.47 201.38 168.22 202.25 168.28 Z M 203.15 168.34 L 204.30 168.49 C 205.16 168.59 205.94 167.98 206.05 167.12 C 206.16 166.26 205.55 165.47 204.69 165.36 L 203.54 165.22 C 202.67 165.11 201.89 165.72 201.78 166.58 C 201.67 167.45 202.28 168.23 203.15 168.34 Z M 204.18 168.46 L 205.21 168.67 C 206.06 168.84 206.89 168.29 207.06 167.44 C 207.23 166.58 206.67 165.76 205.82 165.59 L 204.80 165.38 C 203.95 165.21 203.12 165.77 202.95 166.62 C 202.78 167.47 203.33 168.29 204.18 168.46 Z M 205.08 168.63 L 205.99 168.90 C 206.82 169.14 207.69 168.66 207.93 167.83 C 208.17 167.00 207.70 166.13 206.86 165.89 L 205.95 165.62 C 205.12 165.38 204.25 165.86 204.01 166.69 C 203.77 167.52 204.25 168.39 205.08 168.63 Z M 205.85 168.84 L 206.65 169.17 C 207.46 169.49 208.37 169.10 208.69 168.29 C 209.01 167.49 208.62 166.58 207.81 166.26 L 207.01 165.94 C 206.21 165.62 205.30 166.01 204.98 166.81 C 204.66 167.61 205.05 168.52 205.85 168.84 Z M 206.47 169.07 L 207.38 169.58 C 208.13 170.01 209.08 169.74 209.50 168.99 C 209.93 168.24 209.66 167.28 208.91 166.86 L 208.00 166.35 C 207.25 165.93 206.29 166.20 205.87 166.95 C 205.45 167.70 205.72 168.65 206.47 169.07 Z M 207.12 169.40 L 207.88 170.07 C 208.53 170.63 209.52 170.56 210.08 169.91 C 210.65 169.26 210.58 168.28 209.93 167.71 L 209.17 167.05 C 208.52 166.48 207.53 166.55 206.96 167.20 C 206.40 167.85 206.47 168.84 207.12 169.40 Z M 207.58 169.72 L 208.07 170.50 C 208.53 171.23 209.50 171.45 210.23 170.99 C 210.96 170.53 211.18 169.57 210.72 168.84 L 210.23 168.06 C 209.77 167.33 208.80 167.11 208.07 167.57 C 207.34 168.03 207.12 168.99 207.58 169.72 Z M 207.87 169.98 L 208.05 170.87 C 208.22 171.71 209.05 172.26 209.89 172.08 C 210.73 171.91 211.28 171.09 211.11 170.24 L 210.92 169.35 C 210.75 168.51 209.93 167.96 209.08 168.14 C 208.24 168.31 207.69 169.14 207.87 169.98 Z M 208.02 170.44 L 207.95 171.42 C 207.89 172.28 208.54 173.02 209.40 173.08 C 210.26 173.15 211.00 172.50 211.06 171.64 L 211.13 170.67 C 211.20 169.81 210.55 169.06 209.69 169.00 C 208.83 168.94 208.08 169.58 208.02 170.44 Z M 207.98 171.21 L 207.76 172.23 C 207.59 173.07 208.13 173.90 208.97 174.08 C 209.81 174.26 210.64 173.72 210.82 172.87 L 211.03 171.85 C 211.21 171.00 210.67 170.18 209.83 170.00 C 208.98 169.82 208.16 170.36 207.98 171.21 Z M 207.78 172.18 L 207.68 172.56 C 207.47 173.40 207.98 174.24 208.82 174.45 C 209.66 174.66 210.50 174.15 210.71 173.31 L 210.81 172.93 C 211.01 172.09 210.50 171.24 209.67 171.04 C 208.83 170.83 207.98 171.34 207.78 172.18 Z"
      fill="black"
      fill-rule="nonzero" /></svg>