<svg xmlns="http://www.w3.org/2000/svg" width="300" height="300" viewBox="0 0 300 300">
<path d="M 147.88 137.89 L 147.28 138.68 C 146.75 139.37 146.88 140.35 147.57 140.87 C 148.25 141.40 149.23 141.27 149.75 140.58 L 150.36 139.79 C 150.88 139.11 150.75 138.13 150.07 137.60 C 149.38 137.08 148.40 137.21 147.88 137.89 Z M 147.25 138.71 L 146.67 139.52 C 146.16 140.21 146.31 141.19 147.01 141.70 C 147.71 142.21 148.68 142.05 149.19 141.36 L 149.78 140.55 C 150.28 139.85 150.13 138.88 149.43 138.37 C 148.74 137.86 147.76 138.02 147.25 138.71 Z M 146.62 139.58 L 146.07 140.41 C 145.60 141.14 145.80 142.10 146.52 142.58 C 147.24 143.05 148.21 142.85 148.68 142.13 L 149.23 141.30 C 149.71 140.57 149.51 139.61 148.79 139.13 C 148.07 138.66 147.10 138.86 146.62 139.58 Z M 146.02 140.51 L 145.52 141.39 C 145.10 142.14 145.37 143.09 146.12 143.51 C 146.87 143.93 147.82 143.67 148.25 142.92 L 148.74 142.04 C 149.16 141.29 148.89 140.33 148.14 139.91 C 147.39 139.49 146.44 139.76 146.02 140.51 Z M 145.47 141.48 L 145.04 142.39 C 144.67 143.17 145.01 144.10 145.79 144.47 C 146.57 144.84 147.50 144.51 147.87 143.73 L 148.30 142.82 C 148.66 142.04 148.33 141.11 147.55 140.74 C 146.77 140.37 145.84 140.70 145.47 141.48 Z M 145.02 142.45 L 144.62 143.37 C 144.28 144.17 144.65 145.08 145.44 145.42 C 146.24 145.76 147.15 145.40 147.49 144.60 L 147.89 143.68 C 148.23 142.88 147.86 141.97 147.07 141.63 C 146.28 141.29 145.36 141.65 145.02 142.45 Z M 144.62 143.38 L 144.23 144.29 C 143.89 145.09 144.27 146.00 145.06 146.34 C 145.85 146.68 146.77 146.31 147.11 145.51 L 147.49 144.60 C 147.83 143.80 147.46 142.89 146.67 142.55 C 145.87 142.21 144.96 142.58 144.62 143.38 Z M 144.25 144.25 L 143.82 145.17 C 143.46 145.95 143.80 146.88 144.58 147.24 C 145.37 147.61 146.29 147.27 146.66 146.48 L 147.08 145.56 C 147.45 144.78 147.11 143.85 146.33 143.49 C 145.54 143.13 144.62 143.47 144.25 144.25 Z M 143.88 145.06 L 143.38 145.95 C 142.95 146.71 143.22 147.66 143.97 148.08 C 144.72 148.50 145.68 148.24 146.10 147.49 L 146.60 146.59 C 147.02 145.84 146.76 144.89 146.01 144.47 C 145.25 144.04 144.30 144.31 143.88 145.06 Z M 143.49 145.78 L 142.90 146.56 C 142.38 147.25 142.52 148.23 143.21 148.75 C 143.90 149.27 144.88 149.13 145.40 148.44 L 145.99 147.66 C 146.50 146.97 146.37 145.99 145.68 145.47 C 144.99 144.95 144.01 145.09 143.49 145.78 Z M 143.10 146.35 L 142.38 147.00 C 141.74 147.58 141.70 148.57 142.28 149.21 C 142.86 149.84 143.85 149.89 144.48 149.31 L 145.20 148.66 C 145.84 148.08 145.89 147.09 145.31 146.45 C 144.72 145.81 143.74 145.77 143.10 146.35 Z M 142.68 146.79 L 141.73 147.31 C 140.98 147.72 140.70 148.67 141.11 149.43 C 141.53 150.18 142.47 150.46 143.23 150.05 L 144.18 149.53 C 144.94 149.11 145.22 148.16 144.80 147.41 C 144.39 146.65 143.44 146.37 142.68 146.79 Z M 142.15 147.15 L 141.18 147.36 C 140.34 147.54 139.80 148.38 139.98 149.22 C 140.17 150.06 141.00 150.60 141.84 150.41 L 142.81 150.20 C 143.66 150.02 144.19 149.19 144.01 148.34 C 143.82 147.50 142.99 146.97 142.15 147.15 Z M 141.85 147.36 L 141.02 147.18 C 140.17 146.99 139.34 147.53 139.16 148.37 C 138.97 149.21 139.50 150.04 140.34 150.23 L 141.17 150.41 C 142.02 150.60 142.85 150.06 143.03 149.22 C 143.22 148.38 142.69 147.55 141.85 147.36 Z M 141.78 147.60 L 141.23 147.05 C 140.62 146.44 139.63 146.44 139.02 147.05 C 138.42 147.66 138.42 148.65 139.03 149.26 L 139.58 149.81 C 140.19 150.42 141.17 150.42 141.78 149.81 C 142.39 149.20 142.39 148.21 141.78 147.60 Z M 141.57 147.55 L 141.20 146.66 C 140.87 145.87 139.95 145.49 139.16 145.83 C 138.36 146.16 137.98 147.07 138.32 147.87 L 138.69 148.76 C 139.02 149.55 139.94 149.93 140.73 149.59 C 141.53 149.26 141.90 148.35 141.57 147.55 Z M 141.29 146.97 L 141.07 145.80 C 140.91 144.95 140.09 144.39 139.24 144.55 C 138.40 144.71 137.84 145.53 138.00 146.38 L 138.22 147.56 C 138.38 148.40 139.20 148.96 140.05 148.80 C 140.90 148.64 141.45 147.82 141.29 146.97 Z M 141.09 145.95 L 141.00 144.95 C 140.93 144.09 140.17 143.46 139.31 143.53 C 138.45 143.61 137.82 144.36 137.89 145.22 L 137.98 146.22 C 138.05 147.08 138.81 147.72 139.67 147.64 C 140.53 147.57 141.16 146.81 141.09 145.95 Z M 141.01 145.04 L 140.98 144.05 C 140.95 143.19 140.23 142.51 139.37 142.54 C 138.51 142.56 137.83 143.28 137.86 144.15 L 137.89 145.13 C 137.91 145.99 138.63 146.67 139.49 146.65 C 140.35 146.62 141.03 145.90 141.01 145.04 Z M 140.98 144.13 L 141.00 143.10 C 141.02 142.24 140.33 141.53 139.47 141.51 C 138.61 141.49 137.89 142.18 137.88 143.04 L 137.86 144.07 C 137.84 144.93 138.52 145.64 139.39 145.66 C 140.25 145.68 140.96 144.99 140.98 144.13 Z M 140.99 143.18 L 141.07 142.15 C 141.13 141.29 140.48 140.54 139.62 140.48 C 138.76 140.42 138.01 141.07 137.95 141.93 L 137.88 142.96 C 137.82 143.82 138.47 144.57 139.33 144.63 C 140.19 144.69 140.94 144.04 140.99 143.18 Z M 141.06 142.23 L 141.18 141.22 C 141.29 140.37 140.68 139.59 139.83 139.48 C 138.97 139.38 138.19 139.98 138.08 140.84 L 137.96 141.85 C 137.85 142.70 138.46 143.48 139.32 143.59 C 140.17 143.69 140.95 143.09 141.06 142.23 Z M 141.17 141.33 L 141.37 140.29 C 141.53 139.44 140.98 138.62 140.13 138.46 C 139.29 138.30 138.47 138.85 138.30 139.70 L 138.10 140.74 C 137.94 141.58 138.49 142.40 139.34 142.56 C 140.18 142.73 141.00 142.17 141.17 141.33 Z M 141.34 140.41 L 141.61 139.41 C 141.84 138.58 141.35 137.72 140.52 137.49 C 139.69 137.26 138.83 137.75 138.60 138.58 L 138.33 139.58 C 138.10 140.41 138.59 141.27 139.42 141.50 C 140.25 141.73 141.11 141.24 141.34 140.41 Z M 141.58 139.52 L 141.91 138.59 C 142.20 137.78 141.78 136.88 140.97 136.59 C 140.15 136.30 139.26 136.73 138.97 137.54 L 138.64 138.47 C 138.35 139.28 138.77 140.17 139.58 140.46 C 140.40 140.75 141.29 140.33 141.58 139.52 Z M 141.87 138.69 L 142.25 137.81 C 142.60 137.02 142.24 136.10 141.44 135.75 C 140.65 135.41 139.73 135.77 139.39 136.56 L 139.01 137.44 C 138.67 138.23 139.03 139.15 139.82 139.50 C 140.61 139.84 141.53 139.48 141.87 138.69 Z M 142.22 137.89 L 142.65 137.03 C 143.03 136.26 142.72 135.33 141.95 134.94 C 141.18 134.55 140.24 134.86 139.85 135.63 L 139.43 136.49 C 139.04 137.26 139.35 138.19 140.12 138.58 C 140.89 138.97 141.83 138.66 142.22 137.89 Z M 142.61 137.10 L 143.09 136.25 C 143.52 135.50 143.26 134.54 142.51 134.12 C 141.75 133.69 140.80 133.96 140.38 134.71 L 139.89 135.57 C 139.47 136.32 139.73 137.27 140.48 137.69 C 141.23 138.12 142.18 137.85 142.61 137.10 Z M 143.05 136.32 L 143.58 135.49 C 144.05 134.77 143.84 133.80 143.12 133.34 C 142.39 132.87 141.43 133.08 140.96 133.80 L 140.42 134.63 C 139.96 135.35 140.16 136.32 140.89 136.79 C 141.61 137.26 142.58 137.05 143.05 136.32 Z M 143.53 135.58 L 144.12 134.77 C 144.64 134.08 144.49 133.10 143.80 132.59 C 143.11 132.07 142.13 132.22 141.61 132.91 L 141.02 133.72 C 140.50 134.41 140.65 135.39 141.34 135.90 C 142.03 136.41 143.01 136.27 143.53 135.58 Z M 144.05 134.86 L 144.72 134.08 C 145.28 133.42 145.21 132.44 144.55 131.88 C 143.90 131.32 142.91 131.39 142.35 132.05 L 141.68 132.83 C 141.12 133.48 141.20 134.47 141.85 135.03 C 142.51 135.59 143.49 135.51 144.05 134.86 Z M 144.65 134.16 L 145.33 133.47 C 145.93 132.86 145.92 131.87 145.31 131.26 C 144.70 130.66 143.71 130.66 143.10 131.28 L 142.42 131.97 C 141.82 132.58 141.83 133.57 142.44 134.18 C 143.05 134.78 144.04 134.77 144.65 134.16 Z M 145.24 133.55 L 145.99 132.90 C 146.64 132.33 146.70 131.34 146.14 130.70 C 145.57 130.05 144.58 129.98 143.93 130.55 L 143.19 131.20 C 142.54 131.77 142.47 132.75 143.04 133.40 C 143.61 134.05 144.59 134.12 145.24 133.55 Z M 145.88 132.98 L 146.69 132.39 C 147.39 131.88 147.54 130.90 147.03 130.20 C 146.52 129.51 145.54 129.36 144.85 129.87 L 144.04 130.46 C 143.34 130.97 143.19 131.95 143.70 132.65 C 144.21 133.34 145.19 133.49 145.88 132.98 Z M 146.57 132.47 L 147.44 131.95 C 148.18 131.51 148.43 130.55 147.99 129.81 C 147.55 129.07 146.59 128.82 145.85 129.27 L 144.97 129.79 C 144.23 130.23 143.99 131.18 144.43 131.93 C 144.87 132.67 145.83 132.91 146.57 132.47 Z M 147.29 132.03 L 148.25 131.59 C 149.03 131.24 149.38 130.31 149.02 129.53 C 148.66 128.74 147.74 128.40 146.95 128.75 L 146.00 129.19 C 145.21 129.54 144.87 130.47 145.22 131.25 C 145.58 132.04 146.51 132.38 147.29 132.03 Z M 148.07 131.66 L 149.10 131.33 C 149.92 131.07 150.38 130.19 150.11 129.37 C 149.85 128.55 148.97 128.10 148.15 128.36 L 147.12 128.69 C 146.30 128.95 145.85 129.83 146.11 130.65 C 146.37 131.47 147.25 131.92 148.07 131.66 Z M 148.92 131.38 L 149.94 131.18 C 150.79 131.02 151.35 130.20 151.18 129.36 C 151.02 128.51 150.20 127.95 149.36 128.12 L 148.33 128.31 C 147.49 128.47 146.93 129.29 147.09 130.14 C 147.25 130.99 148.07 131.54 148.92 131.38 Z M 149.73 131.21 L 150.71 131.16 C 151.57 131.11 152.23 130.38 152.18 129.51 C 152.14 128.65 151.40 127.99 150.54 128.04 L 149.57 128.09 C 148.71 128.14 148.05 128.87 148.09 129.73 C 148.14 130.59 148.87 131.25 149.73 131.21 Z M 150.44 131.15 L 151.30 131.25 C 152.16 131.35 152.94 130.74 153.04 129.89 C 153.14 129.03 152.53 128.25 151.68 128.15 L 150.81 128.05 C 149.95 127.94 149.18 128.55 149.07 129.41 C 148.97 130.27 149.58 131.04 150.44 131.15 Z M 150.90 131.15 L 151.82 131.52 C 152.61 131.85 153.53 131.47 153.85 130.67 C 154.18 129.88 153.80 128.96 153.00 128.64 L 152.09 128.26 C 151.29 127.93 150.38 128.31 150.05 129.11 C 149.72 129.91 150.10 130.82 150.90 131.15 Z M 151.39 131.26 L 152.12 131.89 C 152.77 132.45 153.76 132.37 154.32 131.72 C 154.88 131.07 154.81 130.08 154.15 129.52 L 153.43 128.90 C 152.77 128.33 151.79 128.41 151.23 129.06 C 150.66 129.72 150.74 130.70 151.39 131.26 Z M 151.87 131.61 L 152.45 132.43 C 152.96 133.13 153.93 133.29 154.63 132.78 C 155.33 132.28 155.49 131.31 154.99 130.61 L 154.40 129.79 C 153.90 129.09 152.92 128.93 152.22 129.44 C 151.52 129.94 151.36 130.91 151.87 131.61 Z M 152.35 132.26 L 152.81 133.12 C 153.22 133.88 154.17 134.16 154.92 133.76 C 155.68 133.35 155.97 132.40 155.56 131.64 L 155.10 130.78 C 154.69 130.02 153.74 129.73 152.98 130.14 C 152.22 130.55 151.94 131.50 152.35 132.26 Z M 152.76 133.01 L 153.14 133.89 C 153.49 134.68 154.41 135.04 155.20 134.69 C 155.99 134.35 156.35 133.43 156.00 132.64 L 155.61 131.75 C 155.27 130.96 154.35 130.60 153.56 130.95 C 152.77 131.30 152.41 132.22 152.76 133.01 Z M 153.10 133.78 L 153.44 134.73 C 153.72 135.55 154.62 135.97 155.43 135.69 C 156.24 135.40 156.67 134.51 156.38 133.70 L 156.05 132.75 C 155.76 131.93 154.87 131.51 154.05 131.79 C 153.24 132.08 152.81 132.97 153.10 133.78 Z M 153.40 134.62 L 153.67 135.63 C 153.89 136.46 154.75 136.95 155.58 136.73 C 156.41 136.51 156.91 135.65 156.69 134.82 L 156.42 133.81 C 156.19 132.98 155.34 132.48 154.51 132.71 C 153.67 132.93 153.18 133.79 153.40 134.62 Z M 153.64 135.51 L 153.83 136.50 C 153.98 137.35 154.80 137.91 155.64 137.75 C 156.49 137.59 157.05 136.78 156.90 135.93 L 156.71 134.94 C 156.56 134.09 155.74 133.53 154.90 133.69 C 154.05 133.84 153.49 134.66 153.64 135.51 Z M 153.81 136.39 L 153.92 137.38 C 154.02 138.23 154.80 138.85 155.65 138.75 C 156.51 138.65 157.12 137.88 157.03 137.02 L 156.91 136.04 C 156.81 135.18 156.04 134.57 155.18 134.66 C 154.33 134.76 153.71 135.54 153.81 136.39 Z M 153.92 137.30 L 153.98 138.30 C 154.04 139.16 154.78 139.81 155.64 139.76 C 156.50 139.70 157.15 138.96 157.10 138.10 L 157.03 137.10 C 156.98 136.24 156.23 135.58 155.37 135.64 C 154.51 135.70 153.86 136.44 153.92 137.30 Z M 153.98 138.24 L 154.01 139.26 C 154.03 140.12 154.75 140.80 155.61 140.77 C 156.47 140.75 157.15 140.03 157.13 139.17 L 157.10 138.16 C 157.08 137.29 156.36 136.61 155.50 136.64 C 154.63 136.66 153.95 137.38 153.98 138.24 Z M 154.01 139.22 L 154.01 140.23 C 154.02 141.09 154.72 141.79 155.58 141.78 C 156.44 141.78 157.14 141.08 157.13 140.22 L 157.13 139.20 C 157.13 138.34 156.42 137.65 155.56 137.65 C 154.70 137.65 154.00 138.36 154.01 139.22 Z M 154.01 140.20 L 154.00 141.21 C 153.99 142.07 154.67 142.78 155.54 142.79 C 156.40 142.81 157.11 142.12 157.12 141.26 L 157.13 140.25 C 157.15 139.38 156.46 138.68 155.60 138.66 C 154.73 138.65 154.03 139.34 154.01 140.20 Z M 154.00 141.16 L 153.95 142.15 C 153.91 143.02 154.57 143.75 155.43 143.79 C 156.29 143.83 157.03 143.17 157.07 142.31 L 157.12 141.31 C 157.16 140.45 156.50 139.72 155.64 139.67 C 154.77 139.63 154.04 140.29 154.00 141.16 Z M 153.96 142.07 L 153.85 143.06 C 153.77 143.92 154.39 144.69 155.25 144.77 C 156.11 144.86 156.87 144.24 156.96 143.38 L 157.06 142.39 C 157.15 141.53 156.53 140.77 155.67 140.68 C 154.81 140.59 154.04 141.22 153.96 142.07 Z M 153.87 142.95 L 153.70 143.93 C 153.55 144.78 154.12 145.59 154.97 145.74 C 155.82 145.89 156.63 145.32 156.77 144.47 L 156.95 143.49 C 157.09 142.64 156.53 141.83 155.68 141.68 C 154.83 141.54 154.02 142.10 153.87 142.95 Z M 153.73 143.80 L 153.47 144.78 C 153.25 145.61 153.74 146.47 154.57 146.69 C 155.41 146.91 156.26 146.42 156.48 145.58 L 156.75 144.60 C 156.97 143.77 156.47 142.91 155.64 142.69 C 154.80 142.47 153.95 142.96 153.73 143.80 Z M 153.51 144.65 L 153.16 145.61 C 152.87 146.42 153.29 147.32 154.10 147.61 C 154.91 147.90 155.80 147.48 156.10 146.67 L 156.44 145.71 C 156.74 144.90 156.32 144.01 155.51 143.71 C 154.70 143.42 153.80 143.84 153.51 144.65 Z M 153.21 145.49 L 152.79 146.40 C 152.43 147.19 152.77 148.11 153.56 148.47 C 154.34 148.83 155.27 148.49 155.63 147.71 L 156.05 146.79 C 156.41 146.01 156.06 145.08 155.28 144.72 C 154.50 144.36 153.57 144.71 153.21 145.49 Z M 152.85 146.29 L 152.37 147.14 C 151.94 147.89 152.21 148.84 152.96 149.26 C 153.71 149.69 154.66 149.42 155.09 148.67 L 155.57 147.82 C 155.99 147.07 155.73 146.12 154.98 145.70 C 154.23 145.27 153.27 145.54 152.85 146.29 Z M 152.44 147.02 L 151.86 147.86 C 151.37 148.57 151.55 149.54 152.26 150.03 C 152.97 150.52 153.94 150.34 154.43 149.63 L 155.01 148.79 C 155.50 148.09 155.33 147.11 154.62 146.62 C 153.91 146.13 152.94 146.31 152.44 147.02 Z M 151.96 147.73 L 151.29 148.52 C 150.73 149.17 150.80 150.16 151.46 150.72 C 152.11 151.28 153.10 151.20 153.66 150.55 L 154.33 149.76 C 154.89 149.11 154.82 148.12 154.16 147.56 C 153.51 147.00 152.52 147.07 151.96 147.73 Z M 151.40 148.40 L 150.68 149.07 C 150.06 149.66 150.03 150.65 150.62 151.28 C 151.21 151.91 152.20 151.93 152.83 151.34 L 153.54 150.67 C 154.17 150.08 154.20 149.09 153.61 148.46 C 153.02 147.83 152.03 147.80 151.40 148.40 Z M 150.81 148.96 L 150.06 149.53 C 149.37 150.06 149.24 151.04 149.76 151.72 C 150.29 152.41 151.26 152.54 151.95 152.02 L 152.70 151.45 C 153.39 150.93 153.52 149.95 153.00 149.26 C 152.48 148.58 151.50 148.44 150.81 148.96 Z M 150.20 149.44 L 149.35 149.95 C 148.61 150.39 148.37 151.35 148.81 152.09 C 149.25 152.83 150.21 153.07 150.95 152.63 L 151.81 152.12 C 152.55 151.67 152.79 150.71 152.34 149.97 C 151.90 149.23 150.94 148.99 150.20 149.44 Z M 149.52 149.86 L 148.62 150.26 C 147.83 150.61 147.47 151.53 147.82 152.32 C 148.17 153.11 149.09 153.46 149.88 153.12 L 150.78 152.72 C 151.57 152.37 151.93 151.45 151.58 150.66 C 151.23 149.87 150.31 149.51 149.52 149.86 Z M 148.81 150.19 L 147.85 150.47 C 147.02 150.71 146.55 151.58 146.79 152.41 C 147.03 153.24 147.90 153.71 148.73 153.47 L 149.69 153.19 C 150.51 152.94 150.99 152.08 150.74 151.25 C 150.50 150.42 149.63 149.95 148.81 150.19 Z M 148.04 150.43 L 147.04 150.59 C 146.19 150.73 145.61 151.53 145.75 152.38 C 145.88 153.23 146.68 153.81 147.54 153.67 L 148.54 153.51 C 149.39 153.37 149.97 152.57 149.83 151.72 C 149.69 150.87 148.89 150.29 148.04 150.43 Z M 147.28 150.57 L 146.27 150.57 C 145.41 150.57 144.71 151.27 144.71 152.14 C 144.72 153.00 145.42 153.70 146.28 153.69 L 147.29 153.69 C 148.15 153.69 148.85 152.99 148.85 152.13 C 148.85 151.27 148.15 150.57 147.28 150.57 Z M 146.65 150.62 L 145.70 150.38 C 144.86 150.17 144.02 150.69 143.81 151.52 C 143.60 152.36 144.11 153.21 144.95 153.41 L 145.90 153.65 C 146.74 153.86 147.58 153.34 147.79 152.51 C 148.00 151.67 147.49 150.82 146.65 150.62 Z M 146.19 150.60 L 145.42 150.09 C 144.71 149.61 143.74 149.81 143.26 150.52 C 142.78 151.24 142.98 152.21 143.69 152.69 L 144.46 153.20 C 145.18 153.67 146.15 153.48 146.63 152.76 C 147.10 152.04 146.91 151.07 146.19 150.60 Z M 145.80 150.44 L 145.29 149.77 C 144.76 149.09 143.78 148.96 143.10 149.48 C 142.41 150.01 142.29 150.99 142.81 151.67 L 143.32 152.34 C 143.85 153.02 144.83 153.15 145.51 152.63 C 146.19 152.10 146.32 151.12 145.80 150.44 Z M 145.47 150.07 L 145.07 149.21 C 144.71 148.43 143.78 148.08 143.00 148.44 C 142.22 148.80 141.87 149.73 142.23 150.51 L 142.63 151.38 C 142.99 152.16 143.92 152.50 144.70 152.14 C 145.48 151.78 145.83 150.85 145.47 150.07 Z M 145.16 149.44 L 144.87 148.41 C 144.63 147.58 143.77 147.10 142.94 147.33 C 142.11 147.56 141.63 148.42 141.86 149.25 L 142.15 150.28 C 142.38 151.11 143.24 151.60 144.07 151.37 C 144.90 151.13 145.39 150.27 145.16 149.44 Z M 144.91 148.58 L 144.72 147.41 C 144.58 146.56 143.78 145.98 142.93 146.12 C 142.08 146.25 141.50 147.05 141.63 147.91 L 141.82 149.08 C 141.96 149.93 142.76 150.51 143.61 150.37 C 144.46 150.24 145.04 149.44 144.91 148.58 Z M 144.73 147.53 L 144.65 146.56 C 144.58 145.70 143.83 145.06 142.97 145.14 C 142.11 145.21 141.47 145.96 141.54 146.82 L 141.62 147.79 C 141.69 148.65 142.44 149.28 143.30 149.21 C 144.16 149.14 144.80 148.39 144.73 147.53 Z M 144.66 146.65 L 144.63 145.65 C 144.61 144.79 143.90 144.10 143.04 144.12 C 142.17 144.15 141.49 144.86 141.51 145.72 L 141.54 146.73 C 141.56 147.59 142.27 148.27 143.13 148.25 C 144.00 148.23 144.68 147.52 144.66 146.65 Z M 144.63 145.73 L 144.67 144.71 C 144.69 143.85 144.02 143.13 143.15 143.10 C 142.29 143.07 141.57 143.75 141.54 144.61 L 141.51 145.64 C 141.48 146.50 142.16 147.22 143.02 147.25 C 143.88 147.27 144.61 146.60 144.63 145.73 Z M 144.66 144.80 L 144.75 143.78 C 144.83 142.92 144.19 142.16 143.33 142.09 C 142.47 142.01 141.72 142.65 141.64 143.50 L 141.55 144.52 C 141.47 145.38 142.11 146.14 142.97 146.22 C 143.83 146.29 144.58 145.66 144.66 144.80 Z M 144.74 143.88 L 144.89 142.89 C 145.02 142.04 144.43 141.24 143.58 141.11 C 142.73 140.98 141.93 141.57 141.80 142.42 L 141.65 143.41 C 141.52 144.26 142.11 145.06 142.96 145.19 C 143.81 145.32 144.61 144.73 144.74 143.88 Z M 144.87 143.00 L 145.09 142.02 C 145.28 141.18 144.76 140.34 143.91 140.15 C 143.07 139.96 142.24 140.48 142.05 141.32 L 141.82 142.31 C 141.63 143.15 142.16 143.99 143.00 144.18 C 143.84 144.37 144.68 143.84 144.87 143.00 Z M 145.06 142.15 L 145.38 141.14 C 145.64 140.32 145.19 139.44 144.37 139.17 C 143.55 138.91 142.67 139.36 142.41 140.18 L 142.08 141.19 C 141.82 142.01 142.27 142.89 143.09 143.16 C 143.91 143.42 144.79 142.97 145.06 142.15 Z M 145.33 141.26 L 145.72 140.33 C 146.05 139.53 145.68 138.62 144.88 138.29 C 144.08 137.96 143.17 138.33 142.84 139.13 L 142.45 140.06 C 142.12 140.86 142.50 141.77 143.29 142.10 C 144.09 142.43 145.00 142.06 145.33 141.26 Z M 145.68 140.43 L 146.11 139.56 C 146.50 138.79 146.19 137.85 145.42 137.46 C 144.65 137.07 143.71 137.38 143.32 138.16 L 142.89 139.03 C 142.50 139.80 142.81 140.74 143.58 141.12 C 144.35 141.51 145.29 141.20 145.68 140.43 Z M 146.07 139.63 L 146.55 138.80 C 146.97 138.06 146.71 137.10 145.97 136.67 C 145.22 136.25 144.26 136.51 143.84 137.25 L 143.36 138.08 C 142.94 138.83 143.19 139.78 143.94 140.21 C 144.69 140.64 145.65 140.38 146.07 139.63 Z M 146.52 138.85 L 147.02 138.03 C 147.48 137.30 147.25 136.34 146.52 135.89 C 145.79 135.43 144.82 135.66 144.37 136.39 L 143.86 137.21 C 143.41 137.94 143.64 138.90 144.37 139.36 C 145.10 139.81 146.06 139.58 146.52 138.85 Z M 147.00 138.08 L 147.54 137.26 C 148.02 136.54 147.82 135.57 147.10 135.09 C 146.39 134.62 145.42 134.81 144.94 135.53 L 144.40 136.35 C 143.92 137.07 144.12 138.04 144.83 138.51 C 145.55 138.99 146.52 138.79 147.00 138.08 Z M 147.50 137.31 L 148.08 136.52 C 148.59 135.82 148.44 134.85 147.74 134.34 C 147.05 133.83 146.07 133.98 145.56 134.68 L 144.98 135.47 C 144.47 136.17 144.62 137.15 145.32 137.65 C 146.02 138.16 146.99 138.01 147.50 137.31 Z M 148.03 136.59 L 148.66 135.82 C 149.21 135.15 149.11 134.17 148.45 133.62 C 147.78 133.07 146.80 133.17 146.25 133.83 L 145.62 134.61 C 145.07 135.27 145.16 136.26 145.83 136.81 C 146.50 137.35 147.48 137.26 148.03 136.59 Z M 148.60 135.89 L 149.30 135.14 C 149.89 134.51 149.86 133.52 149.23 132.93 C 148.60 132.34 147.61 132.38 147.02 133.01 L 146.32 133.76 C 145.73 134.39 145.76 135.37 146.39 135.96 C 147.02 136.55 148.01 136.52 148.60 135.89 Z M 149.23 135.22 L 149.94 134.55 C 150.57 133.96 150.61 132.98 150.02 132.34 C 149.43 131.71 148.44 131.68 147.81 132.27 L 147.10 132.93 C 146.47 133.52 146.43 134.51 147.02 135.14 C 147.61 135.77 148.59 135.80 149.23 135.22 Z M 149.86 134.62 L 150.63 134.00 C 151.30 133.46 151.41 132.47 150.86 131.80 C 150.32 131.13 149.34 131.03 148.67 131.57 L 147.90 132.19 C 147.23 132.73 147.12 133.72 147.66 134.39 C 148.20 135.06 149.19 135.16 149.86 134.62 Z M 150.53 134.07 L 151.36 133.50 C 152.07 133.01 152.26 132.04 151.77 131.33 C 151.28 130.62 150.31 130.44 149.60 130.93 L 148.77 131.50 C 148.06 131.98 147.87 132.96 148.36 133.67 C 148.85 134.38 149.82 134.56 150.53 134.07 Z M 151.25 133.58 L 152.13 133.08 C 152.88 132.66 153.15 131.71 152.73 130.95 C 152.30 130.20 151.35 129.94 150.60 130.36 L 149.72 130.85 C 148.96 131.27 148.70 132.23 149.12 132.98 C 149.54 133.73 150.49 134.00 151.25 133.58 Z M 151.98 133.15 L 152.91 132.75 C 153.70 132.41 154.07 131.49 153.72 130.70 C 153.38 129.91 152.46 129.54 151.67 129.88 L 150.74 130.29 C 149.95 130.63 149.59 131.55 149.93 132.34 C 150.27 133.13 151.19 133.49 151.98 133.15 Z M 152.73 132.82 L 153.78 132.51 C 154.60 132.27 155.08 131.40 154.84 130.57 C 154.59 129.74 153.73 129.27 152.90 129.51 L 151.85 129.82 C 151.02 130.06 150.55 130.93 150.79 131.76 C 151.04 132.58 151.90 133.06 152.73 132.82 Z M 153.56 132.56 L 154.63 132.40 C 155.48 132.27 156.07 131.48 155.95 130.63 C 155.82 129.77 155.03 129.18 154.17 129.31 L 153.11 129.47 C 152.26 129.59 151.67 130.39 151.79 131.24 C 151.92 132.09 152.71 132.68 153.56 132.56 Z M 154.38 132.42 L 155.39 132.43 C 156.25 132.44 156.96 131.75 156.97 130.89 C 156.98 130.03 156.29 129.32 155.43 129.31 L 154.42 129.29 C 153.56 129.28 152.85 129.97 152.84 130.83 C 152.83 131.70 153.52 132.40 154.38 132.42 Z M 155.08 132.39 L 155.98 132.59 C 156.82 132.77 157.66 132.24 157.84 131.40 C 158.02 130.55 157.49 129.72 156.65 129.54 L 155.74 129.34 C 154.90 129.16 154.07 129.69 153.89 130.54 C 153.70 131.38 154.24 132.21 155.08 132.39 Z M 155.57 132.44 L 156.34 132.85 C 157.10 133.26 158.05 132.98 158.46 132.22 C 158.87 131.46 158.58 130.51 157.82 130.10 L 157.05 129.69 C 156.29 129.28 155.35 129.56 154.94 130.32 C 154.53 131.08 154.82 132.03 155.57 132.44 Z M 155.91 132.51 L 156.54 133.22 C 157.11 133.87 158.10 133.93 158.74 133.36 C 159.39 132.79 159.45 131.80 158.88 131.15 L 158.25 130.44 C 157.68 129.80 156.70 129.74 156.05 130.31 C 155.40 130.88 155.34 131.86 155.91 132.51 Z M 156.29 132.84 L 156.71 133.74 C 157.07 134.52 158.00 134.86 158.78 134.50 C 159.56 134.13 159.90 133.20 159.54 132.42 L 159.12 131.53 C 158.76 130.75 157.83 130.41 157.05 130.77 C 156.27 131.13 155.93 132.06 156.29 132.84 Z M 156.61 133.47 L 156.87 134.46 C 157.08 135.30 157.93 135.80 158.77 135.59 C 159.60 135.37 160.11 134.52 159.89 133.69 L 159.64 132.69 C 159.42 131.85 158.57 131.35 157.73 131.57 C 156.90 131.78 156.40 132.63 156.61 133.47 Z M 156.84 134.30 L 156.99 135.33 C 157.11 136.18 157.91 136.77 158.76 136.64 C 159.61 136.52 160.20 135.72 160.08 134.87 L 159.92 133.85 C 159.80 132.99 159.00 132.40 158.15 132.53 C 157.30 132.66 156.71 133.45 156.84 134.30 Z M 156.97 135.21 L 157.05 136.22 C 157.11 137.08 157.86 137.73 158.72 137.66 C 159.58 137.60 160.22 136.85 160.16 135.99 L 160.09 134.98 C 160.03 134.12 159.28 133.48 158.42 133.54 C 157.56 133.60 156.91 134.35 156.97 135.21 Z M 157.04 136.08 L 157.02 137.06 C 157.01 137.92 157.69 138.64 158.55 138.65 C 159.42 138.67 160.13 137.99 160.15 137.12 L 160.17 136.14 C 160.18 135.27 159.50 134.56 158.64 134.54 C 157.77 134.53 157.06 135.21 157.04 136.08 Z M 157.04 136.89 L 156.91 137.87 C 156.80 138.72 157.40 139.51 158.25 139.62 C 159.11 139.73 159.89 139.13 160.00 138.27 L 160.13 137.30 C 160.25 136.44 159.64 135.66 158.79 135.55 C 157.93 135.43 157.15 136.04 157.04 136.89 Z M 156.94 137.68 L 156.70 138.64 C 156.49 139.47 156.99 140.32 157.83 140.54 C 158.66 140.75 159.51 140.25 159.73 139.41 L 159.97 138.46 C 160.18 137.62 159.68 136.77 158.84 136.56 C 158.01 136.35 157.16 136.85 156.94 137.68 Z M 156.75 138.48 L 156.41 139.40 C 156.11 140.21 156.52 141.11 157.32 141.41 C 158.13 141.71 159.03 141.30 159.33 140.49 L 159.68 139.57 C 159.98 138.76 159.57 137.86 158.76 137.56 C 157.95 137.26 157.05 137.67 156.75 138.48 Z M 156.46 139.28 L 156.03 140.20 C 155.66 140.98 156.00 141.91 156.78 142.27 C 157.56 142.64 158.49 142.30 158.86 141.52 L 159.28 140.61 C 159.65 139.83 159.31 138.90 158.53 138.53 C 157.75 138.17 156.82 138.50 156.46 139.28 Z M 156.07 140.11 L 155.58 141.00 C 155.17 141.76 155.45 142.70 156.20 143.12 C 156.96 143.53 157.91 143.26 158.32 142.50 L 158.81 141.61 C 159.23 140.85 158.95 139.90 158.19 139.49 C 157.44 139.07 156.49 139.35 156.07 140.11 Z M 155.62 140.93 L 155.09 141.81 C 154.64 142.54 154.87 143.50 155.60 143.95 C 156.34 144.41 157.30 144.17 157.75 143.44 L 158.28 142.57 C 158.73 141.83 158.50 140.87 157.77 140.42 C 157.03 139.97 156.07 140.20 155.62 140.93 Z M 155.12 141.75 L 154.55 142.61 C 154.06 143.32 154.25 144.29 154.97 144.77 C 155.69 145.26 156.66 145.07 157.14 144.35 L 157.71 143.50 C 158.19 142.78 158.00 141.81 157.29 141.33 C 156.57 140.85 155.60 141.04 155.12 141.75 Z M 154.58 142.55 L 153.99 143.36 C 153.48 144.06 153.63 145.04 154.32 145.55 C 155.02 146.06 155.99 145.91 156.50 145.21 L 157.10 144.40 C 157.61 143.71 157.46 142.73 156.77 142.22 C 156.07 141.71 155.09 141.86 154.58 142.55 Z M 154.03 143.31 L 153.42 144.07 C 152.88 144.75 152.99 145.73 153.66 146.27 C 154.33 146.81 155.31 146.70 155.85 146.03 L 156.46 145.26 C 157.00 144.59 156.90 143.61 156.22 143.07 C 155.55 142.53 154.57 142.64 154.03 143.31 Z M 153.46 144.02 L 152.82 144.76 C 152.25 145.41 152.31 146.39 152.96 146.96 C 153.61 147.53 154.60 147.46 155.17 146.81 L 155.81 146.08 C 156.38 145.43 156.31 144.44 155.66 143.88 C 155.01 143.31 154.03 143.37 153.46 144.02 Z M 152.87 144.70 L 152.17 145.42 C 151.57 146.04 151.59 147.03 152.21 147.63 C 152.83 148.23 153.82 148.21 154.42 147.59 L 155.11 146.87 C 155.71 146.25 155.70 145.26 155.08 144.66 C 154.46 144.06 153.47 144.08 152.87 144.70 Z M 152.24 145.35 L 151.51 146.02 C 150.88 146.61 150.84 147.59 151.42 148.23 C 152.00 148.86 152.99 148.91 153.62 148.32 L 154.35 147.65 C 154.99 147.07 155.03 146.08 154.45 145.45 C 153.86 144.81 152.87 144.77 152.24 145.35 Z M 151.59 145.96 L 150.81 146.59 C 150.14 147.13 150.03 148.11 150.57 148.78 C 151.12 149.45 152.10 149.56 152.77 149.02 L 153.55 148.39 C 154.22 147.85 154.32 146.86 153.78 146.19 C 153.24 145.52 152.26 145.42 151.59 145.96 Z M 150.90 146.52 L 150.03 147.13 C 149.32 147.62 149.15 148.59 149.64 149.30 C 150.14 150.01 151.11 150.18 151.82 149.69 L 152.68 149.08 C 153.39 148.59 153.56 147.62 153.07 146.91 C 152.58 146.20 151.60 146.03 150.90 146.52 Z M 150.17 147.04 L 149.26 147.54 C 148.50 147.95 148.23 148.90 148.64 149.66 C 149.06 150.41 150.01 150.69 150.76 150.28 L 151.68 149.77 C 152.43 149.36 152.71 148.41 152.29 147.65 C 151.88 146.90 150.93 146.62 150.17 147.04 Z M 149.52 147.43 L 148.60 147.73 C 147.78 148.00 147.34 148.88 147.61 149.70 C 147.88 150.52 148.77 150.96 149.58 150.69 L 150.50 150.39 C 151.32 150.12 151.76 149.24 151.49 148.42 C 151.22 147.60 150.34 147.15 149.52 147.43 Z M 149.08 147.65 L 148.17 147.66 C 147.31 147.67 146.62 148.38 146.63 149.24 C 146.63 150.10 147.34 150.79 148.20 150.78 L 149.11 150.77 C 149.97 150.76 150.66 150.06 150.65 149.20 C 150.64 148.33 149.94 147.64 149.08 147.65 Z M 148.80 147.79 L 147.93 147.41 C 147.14 147.07 146.22 147.44 145.88 148.23 C 145.54 149.02 145.91 149.94 146.70 150.28 L 147.57 150.66 C 148.36 151.00 149.28 150.63 149.62 149.84 C 149.96 149.05 149.60 148.13 148.80 147.79 Z M 148.43 147.75 L 147.73 147.04 C 147.12 146.43 146.14 146.42 145.52 147.03 C 144.91 147.63 144.90 148.62 145.51 149.24 L 146.20 149.94 C 146.81 150.56 147.80 150.56 148.41 149.96 C 149.03 149.35 149.03 148.36 148.43 147.75 Z M 148.03 147.47 L 147.59 146.53 C 147.22 145.75 146.29 145.42 145.51 145.78 C 144.73 146.15 144.39 147.08 144.76 147.86 L 145.21 148.80 C 145.57 149.58 146.50 149.92 147.28 149.55 C 148.06 149.18 148.40 148.25 148.03 147.47 Z M 147.71 146.94 L 147.56 145.99 C 147.42 145.14 146.62 144.56 145.77 144.70 C 144.92 144.84 144.34 145.64 144.48 146.49 L 144.63 147.45 C 144.77 148.30 145.57 148.87 146.42 148.74 C 147.28 148.60 147.85 147.80 147.71 146.94 Z M 147.58 146.28 L 147.61 145.27 C 147.63 144.41 146.95 143.69 146.09 143.67 C 145.23 143.64 144.51 144.32 144.49 145.18 L 144.46 146.20 C 144.43 147.06 145.11 147.78 145.97 147.80 C 146.84 147.82 147.55 147.15 147.58 146.28 Z M 147.59 145.49 L 147.76 144.48 C 147.90 143.63 147.33 142.82 146.48 142.68 C 145.63 142.53 144.82 143.11 144.68 143.96 L 144.51 144.97 C 144.36 145.82 144.94 146.62 145.79 146.77 C 146.64 146.91 147.44 146.34 147.59 145.49 Z M 147.71 144.66 L 148.00 143.68 C 148.25 142.85 147.77 141.98 146.95 141.74 C 146.12 141.50 145.25 141.97 145.01 142.80 L 144.72 143.78 C 144.48 144.60 144.95 145.47 145.78 145.72 C 146.60 145.96 147.47 145.49 147.71 144.66 Z M 147.94 143.86 L 148.34 142.93 C 148.69 142.13 148.32 141.22 147.53 140.87 C 146.74 140.53 145.82 140.89 145.48 141.68 L 145.07 142.62 C 144.73 143.41 145.09 144.33 145.88 144.67 C 146.67 145.01 147.59 144.65 147.94 143.86 Z M 148.25 143.10 L 148.75 142.26 C 149.19 141.52 148.95 140.56 148.21 140.12 C 147.46 139.68 146.51 139.93 146.07 140.67 L 145.57 141.51 C 145.13 142.25 145.37 143.21 146.11 143.65 C 146.86 144.09 147.81 143.84 148.25 143.10 Z M 148.66 142.40 L 149.24 141.63 C 149.76 140.94 149.62 139.96 148.93 139.44 C 148.25 138.92 147.27 139.06 146.75 139.75 L 146.16 140.53 C 145.64 141.22 145.78 142.19 146.47 142.71 C 147.16 143.23 148.14 143.09 148.66 142.40 Z M 149.15 141.74 L 149.82 141.00 C 150.40 140.36 150.35 139.37 149.71 138.79 C 149.07 138.21 148.09 138.26 147.51 138.90 L 146.84 139.64 C 146.26 140.28 146.31 141.26 146.95 141.84 C 147.59 142.42 148.57 142.37 149.15 141.74 Z M 149.70 141.12 L 150.45 140.45 C 151.09 139.88 151.15 138.90 150.58 138.25 C 150.01 137.60 149.03 137.54 148.38 138.12 L 147.63 138.78 C 146.98 139.35 146.92 140.34 147.49 140.99 C 148.07 141.63 149.05 141.69 149.70 141.12 Z M 150.27 140.59 L 151.11 140.04 C 151.83 139.56 152.03 138.59 151.55 137.87 C 151.08 137.16 150.11 136.96 149.39 137.43 L 148.55 137.98 C 147.84 138.46 147.64 139.42 148.11 140.14 C 148.59 140.86 149.55 141.06 150.27 140.59 Z M 150.85 140.18 L 151.84 139.76 C 152.64 139.43 153.01 138.52 152.68 137.72 C 152.35 136.92 151.44 136.55 150.64 136.88 L 149.65 137.29 C 148.85 137.63 148.48 138.54 148.81 139.34 C 149.14 140.13 150.05 140.51 150.85 140.18 Z M 151.43 139.87 L 152.43 139.75 C 153.28 139.65 153.89 138.87 153.79 138.02 C 153.69 137.16 152.91 136.55 152.06 136.65 L 151.05 136.77 C 150.20 136.87 149.59 137.65 149.69 138.51 C 149.79 139.36 150.57 139.97 151.43 139.87 Z M 151.69 139.66 L 152.53 139.98 C 153.33 140.28 154.23 139.87 154.54 139.07 C 154.84 138.26 154.44 137.36 153.63 137.06 L 152.79 136.74 C 151.99 136.44 151.09 136.84 150.78 137.65 C 150.48 138.46 150.88 139.36 151.69 139.66 Z M 151.79 139.40 L 152.26 140.09 C 152.75 140.80 153.72 140.98 154.43 140.49 C 155.14 140.00 155.32 139.03 154.83 138.32 L 154.36 137.63 C 153.88 136.92 152.90 136.74 152.19 137.23 C 151.48 137.72 151.30 138.69 151.79 139.40 Z M 152.04 139.60 L 152.28 140.53 C 152.51 141.36 153.36 141.86 154.19 141.64 C 155.03 141.42 155.52 140.57 155.30 139.73 L 155.06 138.80 C 154.84 137.97 153.98 137.47 153.15 137.69 C 152.31 137.91 151.82 138.77 152.04 139.60 Z M 152.24 140.28 L 152.34 141.35 C 152.42 142.21 153.18 142.84 154.04 142.76 C 154.90 142.68 155.53 141.92 155.45 141.06 L 155.35 139.99 C 155.27 139.13 154.51 138.50 153.65 138.58 C 152.79 138.66 152.16 139.42 152.24 140.28 Z M 152.33 141.20 L 152.33 142.29 C 152.33 143.15 153.03 143.85 153.89 143.85 C 154.75 143.85 155.45 143.15 155.45 142.29 L 155.46 141.21 C 155.46 140.34 154.76 139.64 153.90 139.64 C 153.03 139.64 152.33 140.34 152.33 141.20 Z M 152.34 142.18 L 152.26 143.27 C 152.20 144.13 152.84 144.88 153.70 144.94 C 154.56 145.00 155.31 144.36 155.37 143.50 L 155.45 142.40 C 155.51 141.54 154.86 140.79 154.00 140.73 C 153.14 140.67 152.40 141.32 152.34 142.18 Z M 152.27 143.13 L 152.11 144.11 C 151.97 144.96 152.55 145.77 153.40 145.90 C 154.25 146.04 155.06 145.47 155.20 144.62 L 155.36 143.64 C 155.50 142.79 154.92 141.98 154.07 141.84 C 153.22 141.71 152.41 142.28 152.27 143.13 Z M 152.15 143.94 L 151.90 144.84 C 151.67 145.67 152.15 146.53 152.98 146.76 C 153.81 147.00 154.67 146.51 154.90 145.68 L 155.16 144.79 C 155.39 143.96 154.91 143.10 154.08 142.86 C 153.25 142.63 152.39 143.11 152.15 143.94 Z M 151.96 144.66 L 151.60 145.53 C 151.26 146.32 151.64 147.24 152.43 147.57 C 153.23 147.90 154.14 147.53 154.47 146.74 L 154.84 145.87 C 155.18 145.07 154.80 144.16 154.01 143.82 C 153.21 143.49 152.30 143.86 151.96 144.66 Z M 151.67 145.37 L 151.20 146.22 C 150.78 146.97 151.04 147.93 151.80 148.35 C 152.55 148.77 153.50 148.50 153.92 147.75 L 154.40 146.89 C 154.82 146.14 154.55 145.19 153.80 144.77 C 153.05 144.35 152.09 144.62 151.67 145.37 Z M 151.27 146.11 L 150.70 146.95 C 150.21 147.66 150.40 148.63 151.11 149.12 C 151.82 149.60 152.79 149.42 153.28 148.70 L 153.85 147.86 C 154.33 147.15 154.15 146.18 153.44 145.69 C 152.72 145.21 151.75 145.39 151.27 146.11 Z M 150.75 146.87 L 150.12 147.69 C 149.59 148.37 149.72 149.35 150.40 149.88 C 151.08 150.40 152.06 150.28 152.59 149.60 L 153.22 148.78 C 153.75 148.10 153.62 147.12 152.94 146.59 C 152.26 146.06 151.28 146.19 150.75 146.87 Z M 150.18 147.61 L 149.51 148.38 C 148.94 149.03 149.01 150.02 149.65 150.58 C 150.30 151.15 151.29 151.09 151.86 150.44 L 152.53 149.67 C 153.10 149.02 153.03 148.03 152.38 147.47 C 151.73 146.90 150.75 146.96 150.18 147.61 Z M 149.60 148.28 L 148.87 148.98 C 148.25 149.58 148.23 150.57 148.83 151.19 C 149.43 151.81 150.42 151.83 151.04 151.23 L 151.76 150.53 C 152.39 149.94 152.41 148.95 151.81 148.33 C 151.21 147.70 150.22 147.69 149.60 148.28 Z M 149.02 148.85 L 148.25 149.43 C 147.55 149.95 147.41 150.92 147.92 151.62 C 148.44 152.31 149.42 152.45 150.11 151.94 L 150.89 151.36 C 151.58 150.85 151.72 149.87 151.21 149.18 C 150.69 148.48 149.72 148.34 149.02 148.85 Z M 148.52 149.27 L 147.48 149.75 C 146.69 150.11 146.35 151.04 146.71 151.82 C 147.07 152.61 148.00 152.95 148.78 152.59 L 149.83 152.10 C 150.61 151.74 150.96 150.81 150.60 150.03 C 150.23 149.25 149.31 148.91 148.52 149.27 Z M 147.99 149.61 L 147.04 149.70 C 146.19 149.77 145.55 150.53 145.63 151.39 C 145.71 152.25 146.46 152.88 147.32 152.81 L 148.27 152.72 C 149.13 152.65 149.76 151.89 149.69 151.03 C 149.61 150.17 148.85 149.54 147.99 149.61 Z M 148.01 149.93 L 147.35 149.52 C 146.62 149.07 145.66 149.29 145.20 150.03 C 144.75 150.76 144.98 151.72 145.71 152.18 L 146.36 152.58 C 147.09 153.03 148.06 152.81 148.51 152.08 C 148.96 151.34 148.74 150.38 148.01 149.93 Z M 147.99 150.31 L 147.69 149.48 C 147.39 148.67 146.49 148.26 145.68 148.56 C 144.87 148.86 144.46 149.76 144.76 150.57 L 145.07 151.39 C 145.37 152.20 146.27 152.61 147.07 152.31 C 147.88 152.01 148.29 151.11 147.99 150.31 Z M 147.78 149.89 L 147.69 148.81 C 147.62 147.95 146.86 147.32 146.00 147.39 C 145.14 147.46 144.51 148.22 144.58 149.08 L 144.67 150.16 C 144.74 151.02 145.50 151.65 146.36 151.58 C 147.22 151.51 147.85 150.75 147.78 149.89 Z M 147.69 148.97 L 147.71 147.87 C 147.72 147.01 147.03 146.30 146.17 146.28 C 145.31 146.27 144.60 146.96 144.59 147.82 L 144.57 148.92 C 144.56 149.78 145.25 150.49 146.11 150.51 C 146.97 150.52 147.68 149.83 147.69 148.97 Z M 147.71 147.95 L 147.78 146.94 C 147.84 146.08 147.19 145.34 146.33 145.28 C 145.47 145.22 144.72 145.87 144.66 146.73 L 144.59 147.74 C 144.53 148.60 145.18 149.34 146.04 149.40 C 146.90 149.46 147.65 148.81 147.71 147.95 Z M 147.76 147.06 L 147.91 146.08 C 148.03 145.23 147.44 144.44 146.59 144.31 C 145.74 144.18 144.94 144.77 144.82 145.63 L 144.67 146.61 C 144.55 147.46 145.14 148.25 145.99 148.38 C 146.85 148.50 147.64 147.91 147.76 147.06 Z M 147.87 146.24 L 148.12 145.30 C 148.33 144.47 147.83 143.61 146.99 143.40 C 146.16 143.19 145.31 143.69 145.09 144.52 L 144.85 145.47 C 144.64 146.30 145.14 147.15 145.97 147.37 C 146.81 147.58 147.66 147.08 147.87 146.24 Z M 148.06 145.48 L 148.41 144.57 C 148.72 143.77 148.33 142.86 147.52 142.55 C 146.72 142.24 145.81 142.64 145.50 143.44 L 145.15 144.35 C 144.84 145.15 145.24 146.06 146.04 146.37 C 146.84 146.68 147.75 146.28 148.06 145.48 Z M 148.35 144.71 L 148.80 143.83 C 149.19 143.06 148.89 142.12 148.12 141.73 C 147.35 141.33 146.41 141.64 146.02 142.41 L 145.57 143.30 C 145.17 144.06 145.48 145.00 146.25 145.40 C 147.02 145.79 147.96 145.48 148.35 144.71 Z M 148.74 143.93 L 149.28 143.05 C 149.73 142.31 149.50 141.35 148.76 140.90 C 148.03 140.45 147.07 140.68 146.62 141.42 L 146.08 142.30 C 145.63 143.04 145.86 144.00 146.60 144.45 C 147.33 144.90 148.29 144.67 148.74 143.93 Z M 149.23 143.13 L 149.80 142.31 C 150.30 141.60 150.13 140.63 149.42 140.13 C 148.71 139.64 147.74 139.81 147.25 140.52 L 146.67 141.34 C 146.18 142.04 146.35 143.02 147.05 143.51 C 147.76 144.01 148.73 143.83 149.23 143.13 Z M 149.72 142.41 L 150.37 141.64 C 150.92 140.98 150.84 139.99 150.18 139.44 C 149.51 138.89 148.53 138.97 147.98 139.63 L 147.33 140.41 C 146.77 141.07 146.86 142.06 147.52 142.61 C 148.18 143.16 149.17 143.07 149.72 142.41 Z M 150.23 141.78 L 150.96 141.11 C 151.60 140.52 151.63 139.53 151.05 138.90 C 150.46 138.27 149.47 138.23 148.84 138.82 L 148.11 139.49 C 147.48 140.08 147.44 141.06 148.03 141.70 C 148.61 142.33 149.60 142.37 150.23 141.78 Z M 150.73 141.29 L 151.64 140.72 C 152.37 140.26 152.60 139.30 152.14 138.57 C 151.68 137.84 150.72 137.61 149.99 138.07 L 149.08 138.64 C 148.34 139.09 148.12 140.06 148.58 140.79 C 149.03 141.52 150.00 141.74 150.73 141.29 Z M 151.27 140.89 L 152.28 140.58 C 153.10 140.32 153.57 139.45 153.31 138.63 C 153.06 137.80 152.19 137.34 151.36 137.59 L 150.36 137.90 C 149.53 138.15 149.07 139.03 149.32 139.85 C 149.58 140.68 150.45 141.14 151.27 140.89 Z M 151.66 140.64 L 152.54 140.73 C 153.40 140.82 154.16 140.19 154.25 139.34 C 154.34 138.48 153.72 137.71 152.86 137.62 L 151.98 137.53 C 151.13 137.44 150.36 138.06 150.27 138.92 C 150.18 139.78 150.80 140.55 151.66 140.64 Z M 151.65 140.33 L 152.22 140.85 C 152.86 141.43 153.85 141.39 154.43 140.75 C 155.01 140.11 154.96 139.12 154.32 138.54 L 153.75 138.02 C 153.11 137.44 152.12 137.49 151.54 138.12 C 150.96 138.76 151.01 139.75 151.65 140.33 Z M 151.81 140.23 L 152.13 141.11 C 152.42 141.92 153.32 142.33 154.13 142.03 C 154.94 141.74 155.36 140.84 155.06 140.03 L 154.74 139.16 C 154.44 138.35 153.55 137.94 152.74 138.23 C 151.93 138.53 151.51 139.43 151.81 140.23 Z M 152.04 140.77 L 152.19 141.88 C 152.30 142.74 153.08 143.34 153.94 143.23 C 154.79 143.12 155.40 142.33 155.29 141.48 L 155.14 140.37 C 155.03 139.51 154.25 138.91 153.39 139.02 C 152.54 139.13 151.93 139.92 152.04 140.77 Z M 152.18 141.73 L 152.21 142.80 C 152.24 143.66 152.96 144.34 153.82 144.31 C 154.68 144.28 155.36 143.56 155.33 142.70 L 155.30 141.63 C 155.27 140.77 154.55 140.09 153.69 140.12 C 152.83 140.15 152.15 140.87 152.18 141.73 Z M 152.21 142.71 L 152.18 143.71 C 152.16 144.57 152.84 145.29 153.70 145.31 C 154.56 145.33 155.28 144.65 155.31 143.79 L 155.33 142.79 C 155.36 141.93 154.68 141.21 153.81 141.19 C 152.95 141.17 152.23 141.85 152.21 142.71 Z M 152.19 143.61 L 152.10 144.62 C 152.02 145.48 152.66 146.24 153.52 146.31 C 154.38 146.39 155.13 145.75 155.21 144.90 L 155.30 143.89 C 155.38 143.03 154.74 142.27 153.88 142.19 C 153.02 142.12 152.27 142.75 152.19 143.61 Z M 152.11 144.51 L 151.95 145.50 C 151.82 146.35 152.39 147.15 153.24 147.29 C 154.10 147.43 154.90 146.85 155.04 146.00 L 155.20 145.01 C 155.33 144.16 154.76 143.35 153.90 143.22 C 153.05 143.08 152.25 143.66 152.11 144.51 Z M 151.98 145.37 L 151.73 146.36 C 151.52 147.20 152.02 148.05 152.86 148.26 C 153.69 148.47 154.54 147.97 154.75 147.13 L 155.01 146.13 C 155.22 145.30 154.71 144.45 153.88 144.24 C 153.04 144.02 152.19 144.53 151.98 145.37 Z M 151.78 146.21 L 151.42 147.17 C 151.13 147.98 151.54 148.88 152.35 149.18 C 153.16 149.47 154.06 149.06 154.35 148.25 L 154.71 147.29 C 155.00 146.48 154.59 145.58 153.78 145.28 C 152.97 144.99 152.07 145.40 151.78 146.21 Z M 151.49 147.01 L 151.05 147.89 C 150.66 148.66 150.97 149.60 151.74 149.99 C 152.51 150.38 153.45 150.07 153.84 149.30 L 154.28 148.41 C 154.67 147.64 154.36 146.70 153.59 146.32 C 152.82 145.93 151.88 146.24 151.49 147.01 Z M 151.15 147.72 L 150.61 148.52 C 150.13 149.23 150.32 150.20 151.04 150.68 C 151.75 151.17 152.72 150.98 153.20 150.26 L 153.74 149.47 C 154.22 148.75 154.03 147.78 153.31 147.30 C 152.60 146.82 151.63 147.01 151.15 147.72 Z M 150.77 148.32 L 149.95 149.19 C 149.36 149.82 149.39 150.81 150.02 151.40 C 150.64 151.99 151.63 151.96 152.22 151.33 L 153.05 150.46 C 153.64 149.83 153.61 148.84 152.98 148.25 C 152.35 147.66 151.36 147.69 150.77 148.32 Z M 150.24 148.95 L 149.39 149.49 C 148.67 149.96 148.46 150.92 148.92 151.65 C 149.39 152.38 150.36 152.59 151.08 152.12 L 151.93 151.58 C 152.65 151.11 152.86 150.15 152.40 149.42 C 151.93 148.69 150.97 148.48 150.24 148.95 Z M 150.26 149.25 L 149.60 149.24 C 148.74 149.22 148.03 149.91 148.01 150.77 C 148.00 151.63 148.69 152.34 149.55 152.36 L 150.21 152.37 C 151.07 152.38 151.79 151.69 151.80 150.83 C 151.81 149.97 151.13 149.26 150.26 149.25 Z M 150.95 150.05 L 150.57 149.36 C 150.16 148.60 149.21 148.32 148.45 148.73 C 147.70 149.15 147.42 150.09 147.83 150.85 L 148.20 151.54 C 148.61 152.30 149.56 152.58 150.32 152.17 C 151.08 151.76 151.36 150.81 150.95 150.05 Z M 150.75 149.91 L 150.60 148.78 C 150.49 147.93 149.71 147.33 148.85 147.44 C 148.00 147.55 147.40 148.33 147.51 149.19 L 147.65 150.31 C 147.76 151.16 148.55 151.77 149.40 151.65 C 150.26 151.54 150.86 150.76 150.75 149.91 Z M 150.61 148.92 L 150.57 147.84 C 150.54 146.98 149.81 146.30 148.95 146.34 C 148.09 146.37 147.42 147.10 147.45 147.96 L 147.49 149.05 C 147.53 149.91 148.26 150.58 149.12 150.55 C 149.98 150.51 150.65 149.78 150.61 148.92 Z M 150.57 147.89 L 150.57 146.89 C 150.56 146.03 149.86 145.34 148.99 145.34 C 148.13 145.35 147.44 146.05 147.44 146.91 L 147.45 147.91 C 147.46 148.77 148.16 149.47 149.02 149.46 C 149.88 149.45 150.58 148.75 150.57 147.89 Z M 150.56 146.95 L 150.60 145.95 C 150.62 145.09 149.95 144.37 149.09 144.34 C 148.22 144.31 147.50 144.99 147.48 145.85 L 147.44 146.85 C 147.42 147.72 148.09 148.44 148.95 148.46 C 149.82 148.49 150.54 147.82 150.56 146.95 Z M 150.59 146.02 L 150.67 145.05 C 150.73 144.19 150.09 143.44 149.23 143.37 C 148.37 143.30 147.62 143.95 147.56 144.81 L 147.48 145.78 C 147.41 146.64 148.06 147.39 148.92 147.46 C 149.78 147.53 150.53 146.88 150.59 146.02 Z M 150.66 145.12 L 150.78 144.18 C 150.89 143.32 150.28 142.54 149.43 142.43 C 148.57 142.32 147.79 142.93 147.68 143.78 L 147.56 144.73 C 147.45 145.59 148.06 146.37 148.92 146.48 C 149.77 146.58 150.55 145.98 150.66 145.12 Z M 150.77 144.26 L 150.94 143.27 C 151.10 142.42 150.53 141.61 149.68 141.46 C 148.83 141.31 148.02 141.87 147.87 142.72 L 147.69 143.71 C 147.54 144.55 148.11 145.37 148.96 145.52 C 149.80 145.67 150.62 145.11 150.77 144.26 Z M 150.93 143.35 L 151.17 142.31 C 151.37 141.47 150.84 140.63 150.00 140.44 C 149.16 140.24 148.32 140.77 148.13 141.61 L 147.89 142.64 C 147.69 143.48 148.21 144.32 149.05 144.52 C 149.89 144.71 150.73 144.19 150.93 143.35 Z M 151.15 142.39 L 151.43 141.40 C 151.67 140.57 151.19 139.71 150.36 139.47 C 149.53 139.24 148.66 139.72 148.43 140.55 L 148.15 141.53 C 147.91 142.36 148.39 143.22 149.22 143.46 C 150.05 143.70 150.91 143.22 151.15 142.39 Z M 151.40 141.49 L 151.75 140.51 C 152.03 139.70 151.61 138.81 150.79 138.52 C 149.98 138.24 149.09 138.66 148.80 139.48 L 148.46 140.46 C 148.17 141.27 148.60 142.16 149.41 142.45 C 150.23 142.73 151.12 142.30 151.40 141.49 Z M 151.70 140.64 L 152.11 139.72 C 152.47 138.94 152.12 138.01 151.34 137.66 C 150.55 137.30 149.63 137.65 149.27 138.43 L 148.85 139.35 C 148.50 140.13 148.84 141.06 149.63 141.42 C 150.41 141.77 151.34 141.42 151.70 140.64 Z M 152.02 139.90 L 152.51 139.11 C 152.97 138.38 152.74 137.41 152.01 136.96 C 151.28 136.50 150.32 136.73 149.86 137.46 L 149.37 138.25 C 148.91 138.98 149.13 139.95 149.86 140.40 C 150.60 140.86 151.56 140.63 152.02 139.90 Z M 152.28 139.40 L 153.12 138.58 C 153.73 137.98 153.75 136.99 153.14 136.37 C 152.54 135.75 151.55 135.74 150.94 136.35 L 150.10 137.17 C 149.48 137.77 149.47 138.76 150.07 139.37 C 150.67 139.99 151.66 140.00 152.28 139.40 Z M 152.63 138.90 L 153.50 138.54 C 154.30 138.21 154.67 137.29 154.34 136.50 C 154.01 135.70 153.10 135.32 152.30 135.66 L 151.43 136.02 C 150.63 136.35 150.25 137.27 150.58 138.06 C 150.92 138.86 151.83 139.24 152.63 138.90 Z M 152.59 138.63 L 153.32 138.78 C 154.17 138.95 154.99 138.41 155.17 137.57 C 155.34 136.72 154.80 135.90 153.96 135.72 L 153.22 135.57 C 152.37 135.39 151.55 135.94 151.37 136.78 C 151.20 137.62 151.74 138.45 152.59 138.63 Z M 152.45 138.26 L 152.96 138.87 C 153.52 139.52 154.51 139.61 155.16 139.05 C 155.82 138.49 155.90 137.50 155.34 136.85 L 154.83 136.24 C 154.27 135.58 153.29 135.50 152.63 136.06 C 151.97 136.62 151.89 137.60 152.45 138.26 Z M 152.70 138.43 L 153.09 139.41 C 153.41 140.22 154.32 140.61 155.12 140.29 C 155.92 139.97 156.31 139.06 156.00 138.26 L 155.61 137.28 C 155.29 136.48 154.38 136.09 153.58 136.41 C 152.78 136.72 152.39 137.63 152.70 138.43 Z M 153.03 139.22 L 153.32 140.37 C 153.54 141.21 154.39 141.71 155.22 141.50 C 156.06 141.29 156.56 140.44 156.35 139.60 L 156.06 138.45 C 155.84 137.62 154.99 137.11 154.16 137.33 C 153.32 137.54 152.82 138.39 153.03 139.22 Z M 153.31 140.30 L 153.51 141.27 C 153.68 142.11 154.50 142.66 155.35 142.49 C 156.19 142.31 156.74 141.49 156.56 140.64 L 156.37 139.67 C 156.19 138.83 155.37 138.29 154.53 138.46 C 153.68 138.63 153.14 139.45 153.31 140.30 Z M 153.50 141.23 L 153.68 142.24 C 153.82 143.09 154.63 143.66 155.48 143.51 C 156.33 143.36 156.90 142.55 156.75 141.70 L 156.57 140.69 C 156.42 139.84 155.61 139.27 154.77 139.42 C 153.92 139.57 153.35 140.38 153.50 141.23 Z M 153.67 142.21 L 153.82 143.22 C 153.95 144.08 154.75 144.66 155.60 144.53 C 156.45 144.40 157.04 143.61 156.91 142.76 L 156.76 141.74 C 156.63 140.89 155.83 140.30 154.98 140.43 C 154.13 140.56 153.54 141.35 153.67 142.21 Z M 153.82 143.19 L 153.94 144.16 C 154.06 145.01 154.84 145.62 155.69 145.51 C 156.55 145.40 157.15 144.61 157.04 143.76 L 156.92 142.79 C 156.81 141.93 156.02 141.33 155.17 141.44 C 154.31 141.55 153.71 142.34 153.82 143.19 Z M 153.94 144.12 L 154.05 145.20 C 154.14 146.06 154.91 146.69 155.77 146.60 C 156.62 146.51 157.25 145.74 157.16 144.88 L 157.05 143.80 C 156.96 142.94 156.19 142.32 155.33 142.41 C 154.48 142.49 153.85 143.26 153.94 144.12 Z M 154.05 145.16 L 154.12 146.16 C 154.19 147.02 154.94 147.67 155.80 147.60 C 156.65 147.54 157.30 146.79 157.24 145.93 L 157.16 144.93 C 157.10 144.07 156.35 143.42 155.49 143.49 C 154.63 143.55 153.98 144.30 154.05 145.16 Z M 154.12 146.13 L 154.17 147.06 C 154.21 147.92 154.95 148.59 155.81 148.54 C 156.67 148.50 157.33 147.76 157.29 146.90 L 157.24 145.96 C 157.19 145.10 156.46 144.44 155.60 144.49 C 154.74 144.53 154.08 145.27 154.12 146.13 Z M 154.17 147.05 L 154.21 147.99 C 154.24 148.85 154.97 149.52 155.83 149.48 C 156.69 149.44 157.36 148.72 157.33 147.85 L 157.29 146.92 C 157.25 146.06 156.52 145.39 155.66 145.42 C 154.80 145.46 154.13 146.19 154.17 147.05 Z M 154.21 147.98 L 154.25 148.96 C 154.28 149.82 155.00 150.49 155.87 150.46 C 156.73 150.42 157.40 149.70 157.37 148.84 L 157.33 147.86 C 157.29 147.00 156.57 146.33 155.71 146.36 C 154.85 146.39 154.17 147.12 154.21 147.98 Z M 154.25 148.95 L 154.28 149.95 C 154.31 150.82 155.03 151.49 155.89 151.46 C 156.75 151.44 157.43 150.71 157.40 149.85 L 157.37 148.85 C 157.34 147.98 156.62 147.31 155.75 147.34 C 154.89 147.37 154.22 148.09 154.25 148.95 Z M 154.28 149.94 L 154.30 150.97 C 154.32 151.83 155.04 152.51 155.90 152.49 C 156.76 152.47 157.44 151.76 157.42 150.90 L 157.40 149.87 C 157.38 149.00 156.66 148.32 155.80 148.34 C 154.94 148.36 154.26 149.08 154.28 149.94 Z M 154.30 150.95 L 154.31 151.93 C 154.33 152.80 155.03 153.49 155.90 153.47 C 156.76 153.46 157.45 152.75 157.44 151.89 L 157.42 150.91 C 157.41 150.05 156.70 149.36 155.84 149.37 C 154.98 149.38 154.29 150.09 154.30 150.95 Z M 154.31 151.92 L 154.32 152.92 C 154.33 153.78 155.03 154.48 155.89 154.47 C 156.75 154.47 157.45 153.77 157.44 152.90 L 157.44 151.90 C 157.43 151.04 156.73 150.35 155.87 150.35 C 155.00 150.36 154.31 151.06 154.31 151.92 Z M 154.32 152.92 L 154.32 153.93 C 154.32 154.79 155.02 155.49 155.89 155.49 C 156.75 155.49 157.45 154.79 157.44 153.92 L 157.44 152.91 C 157.44 152.05 156.74 151.35 155.88 151.35 C 155.02 151.35 154.32 152.05 154.32 152.92 Z M 154.32 153.93 L 154.32 154.93 C 154.32 155.79 155.02 156.49 155.88 156.49 C 156.75 156.49 157.44 155.79 157.44 154.93 L 157.44 153.93 C 157.44 153.06 156.75 152.37 155.88 152.37 C 155.02 152.37 154.32 153.06 154.32 153.93 Z M 154.32 154.93 L 154.32 155.91 C 154.32 156.78 155.02 157.47 155.88 157.48 C 156.74 157.48 157.44 156.78 157.44 155.92 L 157.44 154.93 C 157.45 154.07 156.75 153.37 155.89 153.37 C 155.02 153.37 154.32 154.06 154.32 154.93 Z M 154.32 155.91 L 154.32 156.90 C 154.31 157.77 155.01 158.47 155.87 158.47 C 156.73 158.48 157.43 157.78 157.44 156.92 L 157.44 155.92 C 157.45 155.06 156.75 154.36 155.89 154.35 C 155.03 154.35 154.32 155.05 154.32 155.91 Z M 154.32 156.89 L 154.31 157.91 C 154.30 158.77 154.99 159.48 155.85 159.49 C 156.71 159.50 157.42 158.80 157.43 157.94 L 157.44 156.93 C 157.45 156.07 156.76 155.36 155.89 155.35 C 155.03 155.34 154.33 156.03 154.32 156.89 Z M 154.31 157.90 L 154.29 158.88 C 154.27 159.74 154.96 160.45 155.82 160.47 C 156.68 160.48 157.39 159.80 157.41 158.94 L 157.43 157.95 C 157.44 157.09 156.76 156.38 155.90 156.37 C 155.03 156.35 154.32 157.03 154.31 157.90 Z M 154.29 158.85 L 154.25 159.83 C 154.23 160.69 154.90 161.41 155.76 161.44 C 156.62 161.47 157.35 160.80 157.38 159.94 L 157.41 158.96 C 157.44 158.10 156.76 157.38 155.90 157.35 C 155.04 157.32 154.32 157.99 154.29 158.85 Z M 154.26 159.79 L 154.20 160.79 C 154.15 161.65 154.80 162.39 155.66 162.44 C 156.52 162.49 157.26 161.84 157.31 160.98 L 157.37 159.98 C 157.43 159.12 156.77 158.38 155.91 158.33 C 155.05 158.27 154.31 158.93 154.26 159.79 Z M 154.20 160.73 L 154.10 161.76 C 154.02 162.62 154.65 163.38 155.51 163.46 C 156.37 163.54 157.13 162.91 157.21 162.05 L 157.31 161.03 C 157.39 160.17 156.76 159.41 155.90 159.33 C 155.05 159.25 154.28 159.88 154.20 160.73 Z M 154.11 161.69 L 153.97 162.68 C 153.85 163.54 154.45 164.33 155.30 164.45 C 156.16 164.56 156.95 163.97 157.07 163.11 L 157.20 162.12 C 157.32 161.27 156.73 160.48 155.87 160.36 C 155.02 160.24 154.23 160.84 154.11 161.69 Z M 153.98 162.62 L 153.81 163.59 C 153.66 164.44 154.22 165.25 155.07 165.40 C 155.92 165.55 156.73 164.99 156.88 164.14 L 157.06 163.18 C 157.21 162.33 156.64 161.52 155.80 161.36 C 154.95 161.21 154.14 161.77 153.98 162.62 Z M 153.82 163.54 L 153.61 164.52 C 153.43 165.36 153.97 166.19 154.81 166.37 C 155.66 166.55 156.49 166.01 156.67 165.17 L 156.87 164.19 C 157.05 163.35 156.51 162.52 155.67 162.34 C 154.83 162.16 154.00 162.70 153.82 163.54 Z M 153.62 164.48 L 153.38 165.47 C 153.19 166.31 153.70 167.15 154.54 167.35 C 155.38 167.55 156.22 167.03 156.42 166.19 L 156.66 165.20 C 156.86 164.37 156.34 163.52 155.50 163.32 C 154.66 163.13 153.82 163.64 153.62 164.48 Z M 153.39 165.44 L 153.14 166.43 C 152.92 167.27 153.43 168.12 154.26 168.33 C 155.10 168.55 155.95 168.04 156.16 167.21 L 156.42 166.22 C 156.63 165.38 156.13 164.53 155.29 164.32 C 154.46 164.10 153.61 164.61 153.39 165.44 Z M 153.14 166.41 L 152.88 167.37 C 152.66 168.20 153.15 169.06 153.98 169.28 C 154.81 169.51 155.67 169.01 155.90 168.18 L 156.16 167.23 C 156.38 166.40 155.89 165.54 155.06 165.31 C 154.23 165.09 153.37 165.58 153.14 166.41 Z M 152.89 167.35 L 152.62 168.30 C 152.38 169.13 152.86 169.99 153.69 170.23 C 154.52 170.47 155.38 169.99 155.62 169.16 L 155.89 168.20 C 156.13 167.37 155.65 166.51 154.82 166.27 C 153.99 166.04 153.13 166.52 152.89 167.35 Z M 152.62 168.28 L 152.33 169.23 C 152.09 170.06 152.55 170.93 153.38 171.18 C 154.20 171.43 155.07 170.96 155.32 170.14 L 155.61 169.18 C 155.86 168.35 155.40 167.48 154.57 167.23 C 153.74 166.98 152.87 167.45 152.62 168.28 Z M 152.34 169.21 L 152.03 170.17 C 151.77 170.99 152.22 171.87 153.04 172.13 C 153.86 172.39 154.74 171.94 155.01 171.12 L 155.32 170.16 C 155.58 169.34 155.13 168.46 154.31 168.20 C 153.49 167.93 152.61 168.39 152.34 169.21 Z M 152.04 170.14 L 151.72 171.09 C 151.44 171.91 151.87 172.79 152.69 173.07 C 153.51 173.35 154.39 172.92 154.67 172.10 L 155.00 171.15 C 155.28 170.33 154.84 169.45 154.03 169.17 C 153.21 168.89 152.32 169.32 152.04 170.14 Z M 151.73 171.06 L 151.39 171.98 C 151.10 172.79 151.52 173.69 152.33 173.98 C 153.14 174.28 154.03 173.86 154.33 173.05 L 154.66 172.13 C 154.96 171.32 154.54 170.42 153.73 170.13 C 152.92 169.83 152.02 170.25 151.73 171.06 Z M 151.40 171.96 L 151.05 172.88 C 150.74 173.68 151.14 174.59 151.95 174.90 C 152.75 175.21 153.65 174.80 153.96 174.00 L 154.32 173.08 C 154.63 172.27 154.23 171.37 153.42 171.06 C 152.62 170.75 151.71 171.15 151.40 171.96 Z M 151.06 172.85 L 150.68 173.78 C 150.36 174.58 150.74 175.49 151.54 175.82 C 152.34 176.14 153.25 175.75 153.58 174.95 L 153.95 174.03 C 154.28 173.23 153.89 172.32 153.09 171.99 C 152.29 171.67 151.38 172.05 151.06 172.85 Z M 150.69 173.76 L 150.29 174.69 C 149.96 175.49 150.33 176.40 151.12 176.74 C 151.91 177.08 152.83 176.71 153.17 175.91 L 153.57 174.98 C 153.90 174.19 153.53 173.27 152.74 172.93 C 151.95 172.59 151.03 172.96 150.69 173.76 Z M 150.31 174.67 L 149.89 175.60 C 149.54 176.39 149.89 177.31 150.68 177.66 C 151.47 178.01 152.39 177.66 152.74 176.87 L 153.16 175.94 C 153.51 175.15 153.15 174.23 152.37 173.88 C 151.58 173.53 150.66 173.88 150.31 174.67 Z M 149.90 175.58 L 149.48 176.49 C 149.11 177.27 149.45 178.20 150.23 178.57 C 151.01 178.93 151.94 178.59 152.31 177.81 L 152.73 176.90 C 153.10 176.11 152.76 175.19 151.97 174.82 C 151.19 174.46 150.26 174.80 149.90 175.58 Z M 149.49 176.47 L 149.04 177.37 C 148.67 178.15 148.99 179.08 149.76 179.46 C 150.54 179.84 151.47 179.52 151.85 178.74 L 152.29 177.83 C 152.67 177.06 152.35 176.12 151.57 175.75 C 150.80 175.37 149.86 175.69 149.49 176.47 Z M 149.06 177.35 L 148.60 178.24 C 148.21 179.01 148.51 179.95 149.28 180.34 C 150.05 180.74 150.99 180.43 151.38 179.67 L 151.84 178.77 C 152.23 178.00 151.93 177.06 151.16 176.67 C 150.39 176.28 149.45 176.58 149.06 177.35 Z M 148.62 178.21 L 148.14 179.09 C 147.73 179.85 148.02 180.80 148.78 181.21 C 149.54 181.61 150.48 181.33 150.89 180.57 L 151.36 179.70 C 151.77 178.94 151.49 177.99 150.73 177.58 C 149.97 177.17 149.02 177.46 148.62 178.21 Z M 148.16 179.06 L 147.67 179.91 C 147.25 180.66 147.51 181.61 148.26 182.04 C 149.01 182.47 149.96 182.21 150.39 181.46 L 150.87 180.60 C 151.30 179.86 151.04 178.90 150.29 178.47 C 149.54 178.05 148.59 178.31 148.16 179.06 Z M 147.70 179.87 L 147.16 180.75 C 146.71 181.49 146.95 182.45 147.68 182.90 C 148.42 183.35 149.38 183.11 149.83 182.38 L 150.36 181.50 C 150.81 180.76 150.58 179.80 149.84 179.35 C 149.11 178.90 148.14 179.14 147.70 179.87 Z M 147.19 180.71 L 146.64 181.56 C 146.17 182.28 146.37 183.25 147.10 183.72 C 147.82 184.19 148.79 183.98 149.26 183.26 L 149.80 182.42 C 150.27 181.69 150.07 180.73 149.35 180.26 C 148.62 179.79 147.66 179.99 147.19 180.71 Z M 146.66 181.52 L 146.10 182.33 C 145.61 183.04 145.78 184.01 146.49 184.51 C 147.20 185.00 148.17 184.82 148.66 184.12 L 149.23 183.30 C 149.72 182.59 149.55 181.62 148.84 181.13 C 148.13 180.64 147.16 180.81 146.66 181.52 Z M 146.13 182.29 L 145.54 183.08 C 145.03 183.77 145.17 184.75 145.87 185.27 C 146.56 185.78 147.54 185.64 148.05 184.94 L 148.63 184.15 C 149.15 183.46 149.00 182.48 148.31 181.97 C 147.62 181.46 146.64 181.60 146.13 182.29 Z M 145.57 183.04 L 144.96 183.82 C 144.43 184.49 144.54 185.47 145.22 186.01 C 145.89 186.54 146.88 186.43 147.41 185.75 L 148.02 184.98 C 148.55 184.30 148.44 183.32 147.76 182.79 C 147.09 182.25 146.11 182.37 145.57 183.04 Z M 144.99 183.78 L 144.35 184.54 C 143.80 185.20 143.88 186.18 144.54 186.74 C 145.20 187.29 146.19 187.21 146.74 186.55 L 147.38 185.79 C 147.94 185.13 147.85 184.14 147.19 183.59 C 146.53 183.03 145.55 183.12 144.99 183.78 Z M 144.38 184.51 L 143.72 185.25 C 143.15 185.89 143.20 186.88 143.85 187.45 C 144.49 188.03 145.48 187.97 146.05 187.33 L 146.71 186.58 C 147.29 185.94 147.23 184.95 146.59 184.38 C 145.94 183.80 144.96 183.86 144.38 184.51 Z M 143.75 185.22 L 143.06 185.95 C 142.47 186.57 142.50 187.56 143.13 188.15 C 143.76 188.74 144.75 188.71 145.34 188.09 L 146.02 187.36 C 146.61 186.73 146.58 185.74 145.96 185.15 C 145.33 184.56 144.34 184.59 143.75 185.22 Z M 143.09 185.92 L 142.38 186.63 C 141.77 187.24 141.78 188.23 142.39 188.84 C 143.00 189.45 143.99 189.44 144.60 188.83 L 145.31 188.12 C 145.91 187.50 145.91 186.52 145.30 185.91 C 144.69 185.30 143.70 185.30 143.09 185.92 Z M 142.41 186.60 L 141.69 187.29 C 141.07 187.89 141.05 188.88 141.64 189.50 C 142.24 190.12 143.23 190.14 143.85 189.55 L 144.57 188.86 C 145.19 188.26 145.21 187.27 144.62 186.65 C 144.02 186.03 143.03 186.01 142.41 186.60 Z M 141.72 187.27 L 140.98 187.94 C 140.35 188.52 140.30 189.51 140.88 190.14 C 141.46 190.78 142.45 190.82 143.09 190.24 L 143.82 189.57 C 144.46 188.99 144.50 188.01 143.92 187.37 C 143.34 186.73 142.35 186.69 141.72 187.27 Z M 141.01 187.91 L 140.26 188.57 C 139.61 189.13 139.54 190.12 140.11 190.77 C 140.67 191.42 141.66 191.49 142.31 190.92 L 143.06 190.27 C 143.71 189.70 143.78 188.72 143.21 188.06 C 142.65 187.41 141.66 187.35 141.01 187.91 Z M 140.29 188.54 L 139.51 189.19 C 138.85 189.74 138.76 190.72 139.31 191.38 C 139.86 192.05 140.84 192.14 141.51 191.59 L 142.28 190.95 C 142.94 190.40 143.03 189.41 142.48 188.75 C 141.93 188.09 140.95 187.99 140.29 188.54 Z M 139.54 189.16 L 138.75 189.79 C 138.07 190.32 137.96 191.31 138.49 191.98 C 139.03 192.66 140.01 192.77 140.69 192.24 L 141.48 191.61 C 142.15 191.08 142.27 190.09 141.73 189.42 C 141.20 188.74 140.22 188.63 139.54 189.16 Z M 138.78 189.77 L 137.98 190.37 C 137.29 190.89 137.15 191.87 137.67 192.56 C 138.19 193.25 139.17 193.38 139.86 192.86 L 140.66 192.26 C 141.35 191.74 141.48 190.76 140.96 190.07 C 140.45 189.38 139.47 189.25 138.78 189.77 Z M 138.01 190.35 L 137.19 190.94 C 136.49 191.44 136.34 192.42 136.84 193.12 C 137.34 193.81 138.32 193.97 139.02 193.47 L 139.83 192.88 C 140.53 192.38 140.69 191.40 140.19 190.70 C 139.68 190.01 138.71 189.85 138.01 190.35 Z M 137.22 190.92 L 136.40 191.49 C 135.69 191.98 135.51 192.95 136.00 193.66 C 136.49 194.37 137.46 194.55 138.17 194.06 L 138.99 193.49 C 139.70 193.00 139.88 192.03 139.39 191.32 C 138.90 190.61 137.93 190.43 137.22 190.92 Z M 136.42 191.47 L 135.59 192.02 C 134.87 192.50 134.67 193.47 135.15 194.19 C 135.62 194.90 136.59 195.10 137.31 194.63 L 138.14 194.07 C 138.86 193.60 139.06 192.63 138.58 191.91 C 138.11 191.19 137.14 190.99 136.42 191.47 Z M 135.61 192.01 L 134.77 192.54 C 134.04 193.00 133.83 193.97 134.29 194.70 C 134.75 195.42 135.72 195.64 136.44 195.18 L 137.29 194.64 C 138.01 194.18 138.23 193.21 137.77 192.49 C 137.30 191.76 136.34 191.54 135.61 192.01 Z M 134.79 192.53 L 133.94 193.05 C 133.21 193.50 132.98 194.46 133.43 195.19 C 133.88 195.93 134.84 196.16 135.57 195.71 L 136.42 195.19 C 137.16 194.74 137.39 193.78 136.94 193.04 C 136.49 192.31 135.53 192.08 134.79 192.53 Z M 133.96 193.03 L 133.11 193.54 C 132.37 193.98 132.12 194.94 132.56 195.68 C 133.00 196.42 133.96 196.67 134.70 196.23 L 135.55 195.72 C 136.29 195.28 136.54 194.33 136.10 193.58 C 135.66 192.84 134.71 192.60 133.96 193.03 Z M 133.13 193.53 L 132.26 194.02 C 131.52 194.45 131.26 195.41 131.69 196.15 C 132.11 196.90 133.07 197.16 133.82 196.73 L 134.68 196.24 C 135.43 195.81 135.69 194.86 135.26 194.11 C 134.83 193.36 133.88 193.10 133.13 193.53 Z M 132.28 194.01 L 131.40 194.50 C 130.65 194.92 130.38 195.87 130.80 196.63 C 131.22 197.38 132.17 197.65 132.92 197.23 L 133.80 196.74 C 134.55 196.32 134.82 195.37 134.40 194.62 C 133.98 193.87 133.03 193.60 132.28 194.01 Z M 131.42 194.50 L 130.53 194.98 C 129.77 195.39 129.49 196.34 129.90 197.10 C 130.32 197.85 131.26 198.13 132.02 197.72 L 132.91 197.24 C 133.67 196.83 133.95 195.88 133.54 195.12 C 133.12 194.36 132.18 194.08 131.42 194.50 Z M 130.54 194.97 L 129.69 195.42 C 128.93 195.83 128.64 196.78 129.05 197.54 C 129.46 198.30 130.40 198.59 131.16 198.18 L 132.01 197.73 C 132.77 197.32 133.06 196.38 132.65 195.62 C 132.25 194.86 131.30 194.57 130.54 194.97 Z M 129.71 195.41 L 128.86 195.86 C 128.09 196.25 127.79 197.19 128.18 197.96 C 128.57 198.72 129.52 199.03 130.28 198.63 L 131.14 198.19 C 131.91 197.80 132.21 196.86 131.82 196.09 C 131.42 195.32 130.48 195.02 129.71 195.41 Z M 128.89 195.84 L 128.00 196.27 C 127.22 196.65 126.90 197.58 127.28 198.35 C 127.65 199.13 128.59 199.45 129.36 199.08 L 130.25 198.65 C 131.03 198.27 131.35 197.34 130.97 196.56 C 130.60 195.79 129.66 195.46 128.89 195.84 Z M 128.04 196.25 L 127.12 196.66 C 126.33 197.01 125.98 197.94 126.33 198.72 C 126.68 199.51 127.61 199.86 128.39 199.51 L 129.32 199.10 C 130.11 198.75 130.46 197.82 130.11 197.04 C 129.76 196.25 128.83 195.90 128.04 196.25 Z M 127.18 196.64 L 126.21 197.03 C 125.41 197.35 125.02 198.26 125.34 199.06 C 125.66 199.86 126.57 200.25 127.37 199.92 L 128.34 199.54 C 129.14 199.21 129.53 198.30 129.21 197.50 C 128.88 196.70 127.98 196.32 127.18 196.64 Z M 126.27 197.00 L 125.32 197.34 C 124.51 197.63 124.08 198.52 124.37 199.33 C 124.66 200.14 125.55 200.57 126.37 200.28 L 127.31 199.95 C 128.12 199.66 128.55 198.77 128.26 197.95 C 127.97 197.14 127.08 196.72 126.27 197.00 Z M 125.38 197.32 L 124.46 197.61 C 123.64 197.87 123.18 198.74 123.44 199.57 C 123.70 200.39 124.57 200.85 125.39 200.59 L 126.31 200.30 C 127.13 200.04 127.59 199.17 127.33 198.34 C 127.07 197.52 126.20 197.06 125.38 197.32 Z M 124.50 197.60 L 123.55 197.87 C 122.72 198.10 122.24 198.97 122.48 199.80 C 122.71 200.63 123.58 201.11 124.40 200.87 L 125.35 200.60 C 126.18 200.36 126.66 199.50 126.43 198.67 C 126.19 197.84 125.33 197.36 124.50 197.60 Z M 123.58 197.86 L 122.61 198.11 C 121.77 198.33 121.27 199.19 121.49 200.02 C 121.71 200.86 122.57 201.35 123.40 201.13 L 124.37 200.88 C 125.21 200.66 125.71 199.81 125.49 198.97 C 125.27 198.14 124.41 197.64 123.58 197.86 Z M 122.63 198.11 L 121.64 198.35 C 120.80 198.56 120.29 199.41 120.50 200.24 C 120.70 201.08 121.55 201.59 122.39 201.39 L 123.38 201.14 C 124.22 200.93 124.73 200.09 124.52 199.25 C 124.31 198.41 123.47 197.90 122.63 198.11 Z M 121.65 198.35 L 120.65 198.59 C 119.81 198.79 119.29 199.63 119.49 200.47 C 119.69 201.31 120.53 201.83 121.37 201.63 L 122.37 201.39 C 123.21 201.19 123.73 200.35 123.53 199.51 C 123.33 198.67 122.49 198.15 121.65 198.35 Z M 120.65 198.59 L 119.98 198.75 C 119.15 198.94 118.62 199.78 118.82 200.62 C 119.02 201.46 119.86 201.98 120.70 201.79 L 121.37 201.63 C 122.21 201.43 122.73 200.59 122.53 199.75 C 122.33 198.91 121.49 198.39 120.65 198.59 Z"
      fill="black"
      fill-rule="nonzero" /></svg>