<svg xmlns="http://www.w3.org/2000/svg" width="300" height="300" viewBox="0 0 300 300">
<path d="M 151.04 144.58 L 150.24 145.11 C 149.52 145.59 149.33 146.56 149.81 147.28 C 150.29 147.99 151.26 148.19 151.97 147.71 L 152.77 147.17 C 153.49 146.69 153.68 145.72 153.20 145.01 C 152.72 144.29 151.75 144.10 151.04 144.58 Z M 150.23 145.12 L 149.42 145.67 C 148.70 146.16 148.52 147.13 149.00 147.84 C 149.49 148.55 150.46 148.74 151.17 148.25 L 151.99 147.70 C 152.70 147.21 152.88 146.24 152.40 145.53 C 151.91 144.82 150.94 144.63 150.23 145.12 Z M 149.39 145.69 L 148.56 146.28 C 147.85 146.77 147.69 147.75 148.18 148.45 C 148.68 149.16 149.65 149.32 150.36 148.83 L 151.20 148.24 C 151.90 147.74 152.07 146.76 151.57 146.06 C 151.07 145.36 150.10 145.19 149.39 145.69 Z M 148.53 146.30 L 147.70 146.91 C 147.01 147.42 146.86 148.40 147.37 149.09 C 147.89 149.78 148.86 149.93 149.56 149.42 L 150.39 148.81 C 151.08 148.30 151.23 147.32 150.71 146.62 C 150.20 145.93 149.23 145.78 148.53 146.30 Z M 147.70 146.91 L 146.88 147.52 C 146.19 148.04 146.05 149.02 146.57 149.71 C 147.08 150.40 148.06 150.54 148.75 150.02 L 149.57 149.41 C 150.26 148.90 150.40 147.92 149.88 147.23 C 149.36 146.54 148.39 146.40 147.70 146.91 Z M 146.91 147.50 L 146.08 148.10 C 145.38 148.60 145.22 149.57 145.72 150.28 C 146.22 150.98 147.20 151.14 147.90 150.63 L 148.73 150.04 C 149.43 149.54 149.59 148.56 149.09 147.86 C 148.58 147.16 147.61 147.00 146.91 147.50 Z M 146.14 148.05 L 145.31 148.59 C 144.59 149.05 144.38 150.02 144.85 150.74 C 145.31 151.47 146.28 151.68 147.00 151.21 L 147.83 150.68 C 148.56 150.21 148.77 149.25 148.30 148.52 C 147.84 147.80 146.87 147.59 146.14 148.05 Z M 145.46 148.50 L 144.45 149.01 C 143.68 149.40 143.37 150.34 143.76 151.11 C 144.15 151.88 145.09 152.19 145.86 151.80 L 146.86 151.29 C 147.63 150.90 147.94 149.97 147.55 149.20 C 147.16 148.43 146.23 148.12 145.46 148.50 Z M 144.78 148.89 L 143.77 149.14 C 142.93 149.34 142.42 150.19 142.63 151.03 C 142.83 151.86 143.68 152.38 144.52 152.17 L 145.53 151.92 C 146.36 151.72 146.87 150.87 146.67 150.03 C 146.46 149.20 145.62 148.68 144.78 148.89 Z M 144.60 149.16 L 143.84 148.93 C 143.02 148.68 142.14 149.14 141.89 149.96 C 141.64 150.79 142.10 151.66 142.93 151.91 L 143.69 152.15 C 144.51 152.40 145.38 151.94 145.64 151.11 C 145.89 150.29 145.43 149.42 144.60 149.16 Z M 144.76 149.68 L 144.40 149.00 C 143.99 148.24 143.04 147.96 142.28 148.37 C 141.52 148.77 141.24 149.72 141.64 150.48 L 142.01 151.16 C 142.41 151.92 143.36 152.20 144.12 151.80 C 144.88 151.39 145.17 150.44 144.76 149.68 Z M 144.57 149.59 L 144.48 148.61 C 144.39 147.75 143.63 147.13 142.77 147.21 C 141.91 147.30 141.28 148.06 141.37 148.92 L 141.47 149.90 C 141.55 150.75 142.32 151.38 143.17 151.30 C 144.03 151.21 144.66 150.45 144.57 149.59 Z M 144.48 148.93 L 144.59 147.82 C 144.68 146.96 144.06 146.19 143.20 146.10 C 142.34 146.02 141.57 146.64 141.48 147.50 L 141.37 148.61 C 141.28 149.46 141.90 150.23 142.76 150.32 C 143.62 150.41 144.39 149.79 144.48 148.93 Z M 144.55 148.06 L 144.83 147.01 C 145.05 146.18 144.56 145.32 143.73 145.10 C 142.89 144.87 142.04 145.36 141.81 146.20 L 141.53 147.25 C 141.31 148.08 141.80 148.94 142.63 149.17 C 143.46 149.39 144.32 148.90 144.55 148.06 Z M 144.75 147.23 L 145.16 146.31 C 145.51 145.52 145.15 144.60 144.36 144.25 C 143.57 143.90 142.65 144.26 142.30 145.05 L 141.89 145.97 C 141.55 146.76 141.90 147.68 142.69 148.03 C 143.48 148.38 144.40 148.02 144.75 147.23 Z M 145.07 146.47 L 145.57 145.63 C 146.01 144.89 145.77 143.93 145.03 143.49 C 144.29 143.05 143.33 143.29 142.89 144.04 L 142.39 144.88 C 141.95 145.62 142.19 146.58 142.93 147.02 C 143.67 147.46 144.63 147.22 145.07 146.47 Z M 145.51 145.73 L 146.07 144.93 C 146.56 144.22 146.39 143.25 145.69 142.76 C 144.98 142.26 144.01 142.43 143.51 143.14 L 142.95 143.94 C 142.46 144.64 142.63 145.62 143.34 146.11 C 144.04 146.61 145.02 146.43 145.51 145.73 Z M 146.04 144.98 L 146.59 144.24 C 147.11 143.56 146.97 142.58 146.28 142.06 C 145.60 141.54 144.62 141.67 144.10 142.36 L 143.55 143.09 C 143.03 143.78 143.16 144.76 143.85 145.28 C 144.54 145.80 145.52 145.66 146.04 144.98 Z M 146.55 144.30 L 147.16 143.56 C 147.71 142.89 147.61 141.91 146.95 141.36 C 146.28 140.81 145.30 140.91 144.75 141.57 L 144.14 142.31 C 143.59 142.97 143.69 143.96 144.35 144.51 C 145.02 145.05 146.00 144.96 146.55 144.30 Z M 147.10 143.62 L 147.80 142.86 C 148.39 142.23 148.35 141.24 147.71 140.66 C 147.08 140.07 146.09 140.11 145.51 140.74 L 144.81 141.50 C 144.22 142.14 144.26 143.13 144.89 143.71 C 145.53 144.30 146.51 144.26 147.10 143.62 Z M 147.74 142.93 L 148.51 142.18 C 149.13 141.58 149.15 140.60 148.55 139.98 C 147.96 139.35 146.97 139.34 146.35 139.93 L 145.57 140.68 C 144.95 141.28 144.93 142.27 145.53 142.89 C 146.13 143.51 147.12 143.53 147.74 142.93 Z M 148.45 142.24 L 149.20 141.59 C 149.85 141.03 149.92 140.04 149.36 139.39 C 148.80 138.74 147.81 138.66 147.16 139.23 L 146.41 139.88 C 145.76 140.44 145.68 141.43 146.25 142.08 C 146.81 142.73 147.80 142.80 148.45 142.24 Z M 149.13 141.65 L 149.95 141.02 C 150.63 140.50 150.76 139.52 150.23 138.83 C 149.71 138.15 148.73 138.02 148.04 138.54 L 147.23 139.17 C 146.54 139.70 146.42 140.68 146.94 141.36 C 147.47 142.04 148.45 142.17 149.13 141.65 Z M 149.85 141.09 L 150.71 140.52 C 151.43 140.05 151.63 139.08 151.15 138.36 C 150.68 137.64 149.71 137.44 148.99 137.92 L 148.14 138.48 C 147.42 138.95 147.22 139.92 147.69 140.64 C 148.17 141.36 149.13 141.56 149.85 141.09 Z M 150.58 140.60 L 151.45 140.14 C 152.22 139.73 152.51 138.79 152.10 138.03 C 151.70 137.26 150.75 136.97 149.99 137.38 L 149.12 137.84 C 148.36 138.24 148.07 139.19 148.47 139.95 C 148.87 140.71 149.82 141.00 150.58 140.60 Z M 151.24 140.23 L 152.28 139.86 C 153.10 139.57 153.52 138.68 153.24 137.87 C 152.95 137.06 152.06 136.63 151.25 136.92 L 150.20 137.29 C 149.39 137.57 148.96 138.46 149.25 139.28 C 149.54 140.09 150.43 140.52 151.24 140.23 Z M 151.97 139.94 L 153.04 139.80 C 153.89 139.69 154.50 138.90 154.39 138.05 C 154.27 137.19 153.49 136.59 152.64 136.70 L 151.56 136.84 C 150.71 136.95 150.11 137.74 150.22 138.59 C 150.33 139.45 151.11 140.05 151.97 139.94 Z M 152.62 139.79 L 153.54 139.93 C 154.39 140.05 155.18 139.46 155.31 138.60 C 155.43 137.75 154.84 136.96 153.98 136.84 L 153.06 136.70 C 152.21 136.58 151.42 137.17 151.29 138.03 C 151.17 138.88 151.76 139.67 152.62 139.79 Z M 152.98 139.74 L 153.69 140.14 C 154.44 140.57 155.40 140.31 155.83 139.57 C 156.25 138.82 156.00 137.86 155.25 137.44 L 154.54 137.03 C 153.79 136.60 152.84 136.86 152.41 137.61 C 151.98 138.35 152.24 139.31 152.98 139.74 Z M 153.16 139.64 L 153.63 140.36 C 154.10 141.09 155.06 141.30 155.79 140.83 C 156.51 140.36 156.72 139.40 156.25 138.67 L 155.78 137.94 C 155.32 137.22 154.35 137.01 153.63 137.48 C 152.90 137.94 152.69 138.91 153.16 139.64 Z M 153.42 139.87 L 153.64 140.83 C 153.83 141.67 154.67 142.20 155.51 142.01 C 156.35 141.81 156.88 140.97 156.68 140.13 L 156.46 139.17 C 156.27 138.33 155.43 137.80 154.59 138.00 C 153.75 138.19 153.23 139.03 153.42 139.87 Z M 153.60 140.56 L 153.66 141.69 C 153.70 142.55 154.44 143.22 155.30 143.17 C 156.16 143.13 156.82 142.40 156.78 141.53 L 156.72 140.40 C 156.68 139.54 155.95 138.88 155.08 138.92 C 154.22 138.97 153.56 139.70 153.60 140.56 Z M 153.66 141.57 L 153.63 142.57 C 153.61 143.43 154.29 144.15 155.16 144.17 C 156.02 144.19 156.73 143.51 156.76 142.65 L 156.78 141.65 C 156.80 140.79 156.12 140.07 155.26 140.05 C 154.40 140.03 153.68 140.71 153.66 141.57 Z M 153.64 142.49 L 153.56 143.50 C 153.49 144.36 154.13 145.11 154.99 145.18 C 155.85 145.25 156.60 144.61 156.67 143.75 L 156.75 142.74 C 156.82 141.88 156.18 141.12 155.32 141.06 C 154.46 140.99 153.71 141.63 153.64 142.49 Z M 153.57 143.41 L 153.43 144.41 C 153.30 145.26 153.90 146.05 154.75 146.17 C 155.60 146.30 156.39 145.70 156.52 144.85 L 156.66 143.85 C 156.78 142.99 156.19 142.20 155.33 142.08 C 154.48 141.96 153.69 142.55 153.57 143.41 Z M 153.45 144.29 L 153.24 145.25 C 153.05 146.09 153.58 146.92 154.43 147.11 C 155.27 147.29 156.10 146.76 156.29 145.92 L 156.50 144.96 C 156.68 144.12 156.15 143.29 155.31 143.10 C 154.46 142.92 153.63 143.45 153.45 144.29 Z M 153.28 145.10 L 152.97 146.06 C 152.70 146.88 153.15 147.76 153.97 148.03 C 154.79 148.29 155.67 147.84 155.94 147.02 L 156.25 146.07 C 156.51 145.24 156.06 144.36 155.24 144.10 C 154.42 143.83 153.54 144.28 153.28 145.10 Z M 153.02 145.91 L 152.63 146.80 C 152.28 147.59 152.63 148.51 153.42 148.86 C 154.21 149.21 155.13 148.86 155.48 148.07 L 155.88 147.18 C 156.23 146.39 155.87 145.47 155.09 145.12 C 154.30 144.77 153.38 145.12 153.02 145.91 Z M 152.69 146.67 L 152.21 147.54 C 151.78 148.29 152.05 149.24 152.80 149.66 C 153.55 150.09 154.51 149.82 154.93 149.07 L 155.42 148.20 C 155.84 147.45 155.57 146.50 154.82 146.07 C 154.07 145.65 153.12 145.92 152.69 146.67 Z M 152.26 147.44 L 151.71 148.29 C 151.23 149.01 151.43 149.98 152.15 150.45 C 152.87 150.93 153.84 150.73 154.31 150.01 L 154.87 149.16 C 155.34 148.44 155.15 147.47 154.43 147.00 C 153.71 146.53 152.74 146.72 152.26 147.44 Z M 151.76 148.21 L 151.15 149.03 C 150.64 149.72 150.78 150.70 151.47 151.21 C 152.16 151.73 153.14 151.59 153.65 150.90 L 154.26 150.08 C 154.78 149.39 154.64 148.41 153.94 147.90 C 153.25 147.38 152.28 147.52 151.76 148.21 Z M 151.22 148.94 L 150.55 149.72 C 149.99 150.37 150.07 151.36 150.72 151.92 C 151.37 152.48 152.36 152.41 152.92 151.75 L 153.59 150.98 C 154.15 150.32 154.07 149.34 153.42 148.78 C 152.77 148.22 151.78 148.29 151.22 148.94 Z M 150.65 149.62 L 149.94 150.31 C 149.33 150.91 149.31 151.90 149.92 152.52 C 150.52 153.13 151.51 153.14 152.13 152.54 L 152.83 151.85 C 153.45 151.25 153.46 150.26 152.85 149.64 C 152.25 149.03 151.26 149.02 150.65 149.62 Z M 150.10 150.17 L 149.20 150.84 C 148.51 151.36 148.36 152.34 148.88 153.03 C 149.39 153.72 150.37 153.86 151.06 153.35 L 151.97 152.68 C 152.66 152.16 152.80 151.18 152.29 150.49 C 151.77 149.80 150.79 149.66 150.10 150.17 Z M 149.50 150.67 L 148.55 151.08 C 147.76 151.43 147.40 152.35 147.74 153.14 C 148.09 153.93 149.01 154.29 149.80 153.94 L 150.75 153.53 C 151.54 153.18 151.90 152.26 151.56 151.47 C 151.21 150.68 150.29 150.32 149.50 150.67 Z M 149.19 150.95 L 148.38 150.94 C 147.51 150.93 146.81 151.62 146.80 152.48 C 146.78 153.35 147.47 154.05 148.34 154.06 L 149.16 154.07 C 150.02 154.09 150.73 153.40 150.74 152.53 C 150.75 151.67 150.06 150.96 149.19 150.95 Z M 149.33 151.28 L 148.82 150.88 C 148.15 150.34 147.17 150.46 146.63 151.13 C 146.09 151.80 146.20 152.79 146.88 153.32 L 147.38 153.73 C 148.06 154.26 149.04 154.15 149.58 153.48 C 150.11 152.80 150.00 151.82 149.33 151.28 Z M 149.33 151.60 L 149.07 150.84 C 148.79 150.02 147.91 149.58 147.09 149.86 C 146.27 150.14 145.84 151.02 146.11 151.84 L 146.37 152.60 C 146.65 153.42 147.54 153.86 148.35 153.58 C 149.17 153.30 149.61 152.42 149.33 151.60 Z M 149.15 151.39 L 149.19 150.23 C 149.22 149.37 148.55 148.65 147.68 148.62 C 146.82 148.59 146.10 149.27 146.07 150.13 L 146.03 151.28 C 146.00 152.15 146.68 152.87 147.54 152.90 C 148.40 152.93 149.12 152.25 149.15 151.39 Z M 149.15 150.55 L 149.46 149.27 C 149.67 148.43 149.16 147.58 148.32 147.38 C 147.48 147.17 146.64 147.68 146.43 148.52 L 146.11 149.81 C 145.91 150.65 146.42 151.49 147.26 151.70 C 148.10 151.90 148.94 151.39 149.15 150.55 Z M 149.42 149.42 L 149.78 148.40 C 150.08 147.59 149.66 146.70 148.85 146.40 C 148.04 146.11 147.14 146.53 146.85 147.34 L 146.48 148.36 C 146.19 149.17 146.61 150.07 147.42 150.36 C 148.23 150.66 149.12 150.24 149.42 149.42 Z M 149.75 148.50 L 150.21 147.44 C 150.55 146.65 150.19 145.73 149.40 145.39 C 148.61 145.04 147.69 145.40 147.35 146.19 L 146.89 147.25 C 146.54 148.04 146.90 148.96 147.69 149.30 C 148.48 149.65 149.40 149.29 149.75 148.50 Z M 150.16 147.53 L 150.68 146.53 C 151.07 145.77 150.77 144.82 150.00 144.43 C 149.24 144.04 148.30 144.34 147.90 145.10 L 147.39 146.11 C 146.99 146.87 147.30 147.81 148.06 148.21 C 148.83 148.60 149.77 148.30 150.16 147.53 Z M 150.62 146.64 L 151.15 145.77 C 151.61 145.03 151.38 144.07 150.64 143.62 C 149.91 143.17 148.95 143.40 148.50 144.13 L 147.96 145.00 C 147.51 145.73 147.74 146.70 148.47 147.15 C 149.21 147.60 150.17 147.37 150.62 146.64 Z M 151.05 145.92 L 151.57 145.27 C 152.10 144.59 151.99 143.61 151.32 143.07 C 150.64 142.54 149.66 142.65 149.12 143.32 L 148.60 143.98 C 148.07 144.65 148.18 145.64 148.85 146.17 C 149.53 146.71 150.51 146.60 151.05 145.92 Z M 151.25 145.57 L 151.80 145.18 C 152.51 144.68 152.67 143.70 152.18 143.00 C 151.68 142.30 150.70 142.13 150.00 142.63 L 149.44 143.02 C 148.74 143.52 148.57 144.49 149.07 145.20 C 149.57 145.90 150.54 146.07 151.25 145.57 Z M 150.47 145.40 L 151.06 145.57 C 151.89 145.81 152.76 145.33 152.99 144.50 C 153.23 143.67 152.75 142.80 151.92 142.57 L 151.33 142.40 C 150.50 142.16 149.64 142.64 149.40 143.47 C 149.16 144.30 149.64 145.17 150.47 145.40 Z M 150.13 144.84 L 150.57 145.61 C 150.99 146.36 151.94 146.63 152.70 146.21 C 153.45 145.78 153.71 144.83 153.29 144.08 L 152.85 143.30 C 152.43 142.55 151.48 142.29 150.73 142.71 C 149.97 143.13 149.71 144.08 150.13 144.84 Z M 150.42 145.24 L 150.73 146.42 C 150.95 147.26 151.80 147.76 152.64 147.54 C 153.47 147.32 153.97 146.47 153.75 145.63 L 153.44 144.45 C 153.22 143.62 152.37 143.12 151.53 143.34 C 150.70 143.56 150.20 144.41 150.42 145.24 Z M 150.70 146.27 L 150.88 147.43 C 151.01 148.28 151.81 148.86 152.66 148.73 C 153.51 148.60 154.10 147.80 153.96 146.95 L 153.78 145.79 C 153.65 144.94 152.85 144.35 152.00 144.49 C 151.15 144.62 150.57 145.42 150.70 146.27 Z M 150.87 147.35 L 150.97 148.36 C 151.06 149.22 151.83 149.85 152.69 149.76 C 153.54 149.67 154.17 148.90 154.08 148.04 L 153.97 147.03 C 153.89 146.17 153.12 145.54 152.26 145.63 C 151.40 145.72 150.78 146.49 150.87 147.35 Z M 150.97 148.31 L 151.04 149.34 C 151.10 150.20 151.84 150.85 152.70 150.79 C 153.56 150.73 154.21 149.99 154.15 149.13 L 154.08 148.10 C 154.02 147.24 153.28 146.59 152.42 146.65 C 151.56 146.71 150.91 147.45 150.97 148.31 Z M 151.04 149.30 L 151.08 150.32 C 151.12 151.18 151.85 151.85 152.71 151.81 C 153.57 151.78 154.24 151.05 154.20 150.19 L 154.16 149.17 C 154.12 148.31 153.39 147.64 152.53 147.68 C 151.67 147.71 151.00 148.44 151.04 149.30 Z M 151.08 150.29 L 151.11 151.27 C 151.13 152.14 151.84 152.82 152.71 152.79 C 153.57 152.77 154.25 152.06 154.23 151.19 L 154.20 150.21 C 154.18 149.35 153.46 148.67 152.60 148.69 C 151.74 148.72 151.06 149.43 151.08 150.29 Z M 151.11 151.26 L 151.12 152.23 C 151.13 153.09 151.84 153.78 152.71 153.77 C 153.57 153.75 154.26 153.04 154.24 152.18 L 154.23 151.21 C 154.21 150.35 153.50 149.66 152.64 149.67 C 151.78 149.69 151.09 150.40 151.11 151.26 Z M 151.12 152.22 L 151.13 153.31 C 151.14 154.17 151.84 154.87 152.70 154.86 C 153.57 154.85 154.26 154.15 154.25 153.28 L 154.24 152.19 C 154.23 151.33 153.53 150.64 152.67 150.65 C 151.81 150.65 151.11 151.36 151.12 152.22 Z M 151.13 153.29 L 151.13 154.29 C 151.12 155.15 151.82 155.85 152.68 155.85 C 153.54 155.86 154.25 155.16 154.25 154.30 L 154.25 153.30 C 154.25 152.44 153.56 151.74 152.70 151.74 C 151.83 151.73 151.13 152.43 151.13 153.29 Z M 151.13 154.26 L 151.11 155.20 C 151.09 156.06 151.77 156.78 152.63 156.79 C 153.50 156.81 154.21 156.13 154.23 155.27 L 154.25 154.33 C 154.27 153.46 153.58 152.75 152.72 152.73 C 151.86 152.71 151.15 153.40 151.13 154.26 Z M 151.11 155.16 L 151.07 156.10 C 151.03 156.96 151.70 157.69 152.56 157.72 C 153.42 157.76 154.15 157.09 154.19 156.23 L 154.23 155.30 C 154.27 154.44 153.60 153.71 152.74 153.67 C 151.88 153.64 151.15 154.30 151.11 155.16 Z M 151.07 156.06 L 151.00 157.02 C 150.94 157.88 151.59 158.62 152.45 158.68 C 153.31 158.74 154.06 158.09 154.12 157.23 L 154.18 156.27 C 154.24 155.41 153.59 154.67 152.73 154.61 C 151.87 154.55 151.13 155.20 151.07 156.06 Z M 151.01 156.98 L 150.91 157.96 C 150.83 158.82 151.46 159.58 152.32 159.66 C 153.18 159.75 153.94 159.12 154.02 158.26 L 154.11 157.27 C 154.20 156.41 153.57 155.65 152.71 155.57 C 151.85 155.49 151.09 156.12 151.01 156.98 Z M 150.92 157.92 L 150.79 158.93 C 150.69 159.79 151.30 160.57 152.16 160.67 C 153.01 160.77 153.79 160.16 153.89 159.31 L 154.02 158.30 C 154.12 157.44 153.51 156.66 152.65 156.56 C 151.80 156.46 151.02 157.07 150.92 157.92 Z M 150.80 158.89 L 150.65 159.91 C 150.52 160.76 151.11 161.56 151.96 161.68 C 152.82 161.81 153.61 161.22 153.74 160.37 L 153.89 159.35 C 154.01 158.50 153.43 157.70 152.57 157.58 C 151.72 157.45 150.93 158.04 150.80 158.89 Z M 150.65 159.87 L 150.49 160.83 C 150.34 161.68 150.91 162.49 151.76 162.64 C 152.61 162.78 153.42 162.21 153.56 161.37 L 153.73 160.41 C 153.88 159.56 153.31 158.75 152.46 158.60 C 151.61 158.45 150.80 159.02 150.65 159.87 Z M 150.49 160.80 L 150.30 161.77 C 150.14 162.62 150.69 163.44 151.54 163.60 C 152.38 163.77 153.20 163.22 153.37 162.37 L 153.56 161.40 C 153.72 160.55 153.17 159.73 152.32 159.57 C 151.48 159.40 150.66 159.95 150.49 160.80 Z M 150.31 161.75 L 150.10 162.73 C 149.92 163.58 150.46 164.41 151.30 164.59 C 152.14 164.77 152.97 164.23 153.15 163.38 L 153.36 162.40 C 153.54 161.55 153.00 160.72 152.16 160.54 C 151.32 160.36 150.49 160.90 150.31 161.75 Z M 150.10 162.71 L 149.87 163.71 C 149.68 164.55 150.21 165.39 151.05 165.58 C 151.89 165.77 152.73 165.25 152.92 164.41 L 153.15 163.41 C 153.34 162.57 152.81 161.73 151.97 161.54 C 151.13 161.34 150.29 161.87 150.10 162.71 Z M 149.88 163.69 L 149.64 164.67 C 149.44 165.51 149.96 166.35 150.79 166.55 C 151.63 166.75 152.48 166.24 152.68 165.40 L 152.91 164.42 C 153.12 163.59 152.60 162.74 151.76 162.54 C 150.92 162.34 150.08 162.85 149.88 163.69 Z M 149.65 164.65 L 149.40 165.62 C 149.19 166.45 149.69 167.30 150.53 167.52 C 151.36 167.73 152.21 167.22 152.43 166.39 L 152.67 165.42 C 152.89 164.58 152.38 163.73 151.55 163.52 C 150.71 163.31 149.86 163.81 149.65 164.65 Z M 149.41 165.60 L 149.15 166.56 C 148.92 167.40 149.41 168.25 150.25 168.48 C 151.08 168.70 151.93 168.21 152.16 167.38 L 152.42 166.41 C 152.65 165.58 152.15 164.72 151.32 164.50 C 150.49 164.27 149.63 164.76 149.41 165.60 Z M 149.15 166.54 L 148.87 167.50 C 148.64 168.33 149.11 169.20 149.94 169.43 C 150.77 169.67 151.64 169.19 151.87 168.37 L 152.15 167.40 C 152.39 166.57 151.91 165.71 151.08 165.47 C 150.26 165.23 149.39 165.71 149.15 166.54 Z M 148.88 167.47 L 148.59 168.43 C 148.33 169.25 148.79 170.12 149.62 170.38 C 150.44 170.63 151.32 170.17 151.57 169.35 L 151.87 168.39 C 152.12 167.57 151.66 166.70 150.84 166.44 C 150.01 166.19 149.14 166.65 148.88 167.47 Z M 148.60 168.40 L 148.28 169.34 C 148.01 170.16 148.46 171.04 149.27 171.31 C 150.09 171.58 150.98 171.14 151.25 170.32 L 151.56 169.38 C 151.83 168.56 151.39 167.68 150.57 167.41 C 149.75 167.13 148.87 167.58 148.60 168.40 Z M 148.29 169.31 L 147.96 170.25 C 147.68 171.06 148.10 171.95 148.92 172.24 C 149.73 172.53 150.62 172.10 150.91 171.29 L 151.24 170.35 C 151.53 169.54 151.10 168.65 150.29 168.36 C 149.47 168.07 148.58 168.50 148.29 169.31 Z M 147.97 170.23 L 147.63 171.16 C 147.33 171.97 147.74 172.87 148.55 173.17 C 149.36 173.47 150.25 173.05 150.55 172.25 L 150.90 171.31 C 151.20 170.50 150.79 169.60 149.98 169.30 C 149.17 169.00 148.27 169.42 147.97 170.23 Z M 147.63 171.14 L 147.27 172.08 C 146.96 172.89 147.36 173.79 148.17 174.10 C 148.97 174.41 149.88 174.01 150.19 173.20 L 150.55 172.26 C 150.86 171.46 150.45 170.56 149.65 170.25 C 148.84 169.94 147.94 170.34 147.63 171.14 Z M 147.28 172.07 L 146.90 173.02 C 146.59 173.82 146.98 174.73 147.78 175.04 C 148.59 175.36 149.49 174.96 149.81 174.16 L 150.18 173.22 C 150.50 172.41 150.10 171.51 149.30 171.19 C 148.50 170.88 147.59 171.27 147.28 172.07 Z M 146.91 173.00 L 146.53 173.95 C 146.20 174.75 146.59 175.66 147.39 175.98 C 148.19 176.31 149.10 175.92 149.42 175.12 L 149.80 174.17 C 150.13 173.38 149.74 172.47 148.94 172.14 C 148.14 171.82 147.23 172.21 146.91 173.00 Z M 146.53 173.93 L 146.14 174.87 C 145.81 175.66 146.18 176.58 146.98 176.91 C 147.77 177.25 148.69 176.87 149.02 176.08 L 149.41 175.14 C 149.75 174.34 149.37 173.43 148.58 173.10 C 147.78 172.76 146.87 173.14 146.53 173.93 Z M 146.15 174.84 L 145.75 175.76 C 145.40 176.55 145.76 177.47 146.55 177.82 C 147.34 178.16 148.26 177.80 148.61 177.02 L 149.01 176.10 C 149.36 175.31 149.00 174.39 148.21 174.04 C 147.42 173.70 146.50 174.06 146.15 174.84 Z M 145.77 175.72 L 145.36 176.60 C 144.99 177.38 145.33 178.31 146.11 178.67 C 146.89 179.04 147.82 178.70 148.18 177.92 L 148.59 177.05 C 148.96 176.27 148.62 175.34 147.84 174.97 C 147.06 174.61 146.13 174.94 145.77 175.72 Z M 145.38 176.55 L 144.90 177.49 C 144.51 178.26 144.82 179.20 145.58 179.59 C 146.35 179.98 147.29 179.67 147.68 178.91 L 148.16 177.97 C 148.55 177.20 148.25 176.26 147.48 175.87 C 146.71 175.48 145.77 175.78 145.38 176.55 Z M 144.93 177.44 L 144.43 178.33 C 144.01 179.08 144.28 180.03 145.04 180.45 C 145.79 180.87 146.74 180.60 147.16 179.85 L 147.66 178.96 C 148.08 178.20 147.81 177.25 147.05 176.83 C 146.30 176.41 145.35 176.68 144.93 177.44 Z M 144.46 178.28 L 143.95 179.11 C 143.50 179.85 143.74 180.81 144.47 181.26 C 145.21 181.71 146.17 181.47 146.62 180.74 L 147.13 179.90 C 147.58 179.17 147.34 178.21 146.61 177.76 C 145.87 177.31 144.91 177.54 144.46 178.28 Z M 143.99 179.06 L 143.46 179.85 C 142.99 180.57 143.18 181.54 143.90 182.02 C 144.62 182.49 145.59 182.30 146.06 181.58 L 146.59 180.79 C 147.06 180.07 146.87 179.10 146.15 178.62 C 145.43 178.15 144.46 178.34 143.99 179.06 Z M 143.50 179.80 L 142.90 180.64 C 142.40 181.34 142.56 182.31 143.26 182.81 C 143.96 183.32 144.93 183.16 145.43 182.46 L 146.03 181.63 C 146.53 180.93 146.37 179.95 145.67 179.45 C 144.97 178.94 144.00 179.10 143.50 179.80 Z M 142.94 180.59 L 142.31 181.38 C 141.78 182.06 141.90 183.04 142.58 183.57 C 143.26 184.10 144.24 183.98 144.77 183.30 L 145.40 182.51 C 145.93 181.83 145.81 180.85 145.13 180.32 C 144.45 179.79 143.47 179.91 142.94 180.59 Z M 142.35 181.33 L 141.72 182.08 C 141.16 182.74 141.24 183.72 141.89 184.28 C 142.55 184.84 143.54 184.76 144.09 184.11 L 144.73 183.36 C 145.29 182.70 145.21 181.71 144.56 181.15 C 143.90 180.60 142.91 180.68 142.35 181.33 Z M 141.76 182.03 L 141.09 182.75 C 140.50 183.38 140.54 184.37 141.17 184.96 C 141.80 185.55 142.79 185.51 143.37 184.88 L 144.05 184.16 C 144.64 183.53 144.60 182.54 143.97 181.95 C 143.34 181.36 142.35 181.40 141.76 182.03 Z M 141.15 182.69 L 140.41 183.40 C 139.79 184.00 139.78 184.99 140.38 185.61 C 140.98 186.23 141.96 186.25 142.58 185.65 L 143.32 184.94 C 143.94 184.34 143.95 183.35 143.35 182.73 C 142.75 182.11 141.77 182.09 141.15 182.69 Z M 140.48 183.34 L 139.73 183.99 C 139.08 184.55 139.00 185.54 139.56 186.19 C 140.12 186.84 141.11 186.92 141.76 186.36 L 142.52 185.71 C 143.17 185.15 143.24 184.16 142.68 183.51 C 142.12 182.85 141.13 182.78 140.48 183.34 Z M 139.81 183.92 L 139.04 184.50 C 138.35 185.02 138.21 186.00 138.73 186.69 C 139.25 187.38 140.23 187.52 140.92 187.00 L 141.69 186.42 C 142.37 185.90 142.51 184.92 141.99 184.23 C 141.48 183.54 140.50 183.41 139.81 183.92 Z M 139.13 184.44 L 138.36 184.93 C 137.64 185.40 137.43 186.36 137.89 187.09 C 138.36 187.81 139.33 188.02 140.05 187.56 L 140.82 187.06 C 141.55 186.60 141.76 185.63 141.29 184.91 C 140.82 184.18 139.86 183.97 139.13 184.44 Z M 138.49 184.86 L 137.63 185.30 C 136.87 185.70 136.57 186.64 136.97 187.41 C 137.36 188.17 138.31 188.47 139.07 188.07 L 139.93 187.63 C 140.69 187.23 140.99 186.29 140.59 185.53 C 140.20 184.76 139.25 184.46 138.49 184.86 Z M 137.77 185.24 L 136.77 185.64 C 135.97 185.96 135.58 186.87 135.90 187.67 C 136.22 188.47 137.13 188.86 137.93 188.54 L 138.93 188.14 C 139.73 187.82 140.12 186.91 139.80 186.11 C 139.48 185.31 138.57 184.92 137.77 185.24 Z M 136.89 185.60 L 135.91 185.90 C 135.09 186.16 134.63 187.03 134.89 187.86 C 135.14 188.68 136.02 189.14 136.84 188.88 L 137.82 188.58 C 138.64 188.32 139.10 187.45 138.84 186.63 C 138.59 185.80 137.71 185.34 136.89 185.60 Z M 136.00 185.88 L 135.01 186.12 C 134.18 186.33 133.67 187.18 133.87 188.01 C 134.08 188.85 134.93 189.36 135.76 189.15 L 136.75 188.91 C 137.59 188.70 138.10 187.85 137.89 187.02 C 137.68 186.18 136.84 185.67 136.00 185.88 Z M 135.09 186.11 L 134.07 186.30 C 133.22 186.47 132.67 187.28 132.83 188.13 C 133.00 188.98 133.82 189.53 134.66 189.37 L 135.68 189.17 C 136.53 189.01 137.08 188.19 136.92 187.34 C 136.76 186.50 135.94 185.94 135.09 186.11 Z M 134.16 186.29 L 133.16 186.42 C 132.30 186.53 131.70 187.32 131.82 188.17 C 131.93 189.03 132.71 189.63 133.57 189.52 L 134.57 189.38 C 135.43 189.27 136.03 188.49 135.91 187.63 C 135.80 186.78 135.02 186.17 134.16 186.29 Z M 133.28 186.41 L 132.28 186.46 C 131.42 186.51 130.76 187.24 130.80 188.10 C 130.85 188.96 131.58 189.63 132.44 189.58 L 133.44 189.53 C 134.31 189.48 134.97 188.75 134.92 187.89 C 134.88 187.03 134.14 186.36 133.28 186.41 Z M 132.46 186.46 L 131.38 186.39 C 130.52 186.34 129.78 186.99 129.72 187.85 C 129.67 188.71 130.32 189.46 131.18 189.51 L 132.26 189.58 C 133.12 189.63 133.86 188.98 133.92 188.12 C 133.97 187.26 133.32 186.52 132.46 186.46 Z M 131.56 186.42 L 130.61 186.24 C 129.76 186.09 128.95 186.65 128.80 187.50 C 128.64 188.35 129.21 189.16 130.05 189.32 L 131.00 189.49 C 131.85 189.64 132.67 189.08 132.82 188.23 C 132.97 187.38 132.41 186.57 131.56 186.42 Z M 130.72 186.27 L 129.83 186.04 C 129.00 185.83 128.15 186.33 127.93 187.17 C 127.72 188.00 128.22 188.85 129.06 189.07 L 129.94 189.29 C 130.78 189.51 131.63 189.00 131.84 188.17 C 132.06 187.33 131.55 186.48 130.72 186.27 Z M 129.86 186.05 L 129.77 186.02 C 128.94 185.80 128.08 186.29 127.85 187.12 C 127.63 187.95 128.12 188.81 128.95 189.04 L 129.04 189.06 C 129.87 189.29 130.73 188.80 130.95 187.96 C 131.18 187.13 130.69 186.27 129.86 186.05 Z"
      fill="black"
      fill-rule="nonzero" /></svg>