<svg xmlns="http://www.w3.org/2000/svg" width="300" height="300" viewBox="0 0 300 300">
<path d="M 155.22 145.85 L 154.70 146.70 C 154.25 147.43 154.48 148.39 155.21 148.84 C 155.95 149.30 156.91 149.06 157.36 148.33 L 157.88 147.49 C 158.33 146.75 158.10 145.79 157.36 145.34 C 156.63 144.89 155.67 145.12 155.22 145.85 Z M 154.69 146.71 L 154.18 147.56 C 153.73 148.30 153.97 149.26 154.71 149.70 C 155.45 150.15 156.41 149.91 156.86 149.17 L 157.37 148.32 C 157.81 147.58 157.57 146.62 156.83 146.18 C 156.09 145.73 155.13 145.97 154.69 146.71 Z M 154.16 147.59 L 153.66 148.45 C 153.23 149.20 153.49 150.15 154.24 150.59 C 154.98 151.02 155.94 150.76 156.37 150.01 L 156.87 149.15 C 157.30 148.40 157.04 147.44 156.30 147.01 C 155.55 146.58 154.60 146.84 154.16 147.59 Z M 153.64 148.49 L 153.16 149.38 C 152.75 150.14 153.03 151.08 153.79 151.50 C 154.55 151.91 155.50 151.63 155.91 150.87 L 156.39 149.98 C 156.80 149.22 156.52 148.27 155.76 147.86 C 155.00 147.45 154.06 147.73 153.64 148.49 Z M 153.14 149.42 L 152.68 150.34 C 152.29 151.11 152.60 152.05 153.36 152.44 C 154.13 152.83 155.07 152.52 155.46 151.75 L 155.93 150.83 C 156.32 150.06 156.01 149.12 155.24 148.73 C 154.47 148.34 153.53 148.65 153.14 149.42 Z M 152.68 150.34 L 152.21 151.26 C 151.82 152.03 152.13 152.97 152.90 153.35 C 153.67 153.74 154.61 153.43 155.00 152.66 L 155.46 151.75 C 155.85 150.98 155.54 150.04 154.77 149.65 C 154.00 149.26 153.06 149.57 152.68 150.34 Z M 152.24 151.20 L 151.76 152.08 C 151.34 152.83 151.61 153.78 152.37 154.20 C 153.12 154.62 154.07 154.34 154.49 153.59 L 154.97 152.72 C 155.39 151.96 155.12 151.01 154.36 150.59 C 153.61 150.18 152.66 150.45 152.24 151.20 Z M 151.82 151.97 L 151.30 152.76 C 150.82 153.48 151.01 154.45 151.73 154.92 C 152.44 155.40 153.41 155.21 153.89 154.49 L 154.42 153.70 C 154.90 152.98 154.71 152.01 153.99 151.54 C 153.27 151.06 152.30 151.25 151.82 151.97 Z M 151.45 152.56 L 150.65 153.43 C 150.06 154.06 150.10 155.05 150.73 155.63 C 151.36 156.22 152.35 156.18 152.94 155.55 L 153.74 154.69 C 154.32 154.06 154.29 153.07 153.66 152.48 C 153.02 151.90 152.04 151.93 151.45 152.56 Z M 150.95 153.17 L 150.09 153.72 C 149.36 154.19 149.15 155.15 149.61 155.88 C 150.08 156.61 151.04 156.82 151.77 156.36 L 152.63 155.80 C 153.36 155.34 153.57 154.38 153.11 153.65 C 152.65 152.92 151.68 152.71 150.95 153.17 Z M 150.79 153.48 L 150.04 153.55 C 149.18 153.63 148.54 154.38 148.62 155.24 C 148.69 156.10 149.45 156.74 150.31 156.66 L 151.07 156.60 C 151.92 156.52 152.56 155.76 152.48 154.90 C 152.41 154.04 151.65 153.41 150.79 153.48 Z M 151.23 153.95 L 150.71 153.48 C 150.07 152.90 149.08 152.94 148.50 153.58 C 147.92 154.21 147.96 155.20 148.60 155.78 L 149.12 156.26 C 149.75 156.84 150.74 156.80 151.32 156.16 C 151.91 155.52 151.86 154.54 151.23 153.95 Z M 151.12 154.10 L 150.79 153.19 C 150.50 152.37 149.60 151.95 148.79 152.25 C 147.98 152.54 147.56 153.44 147.85 154.25 L 148.18 155.16 C 148.48 155.97 149.37 156.39 150.18 156.10 C 150.99 155.81 151.41 154.91 151.12 154.10 Z M 150.86 153.47 L 150.67 152.25 C 150.54 151.40 149.74 150.82 148.89 150.95 C 148.04 151.09 147.45 151.89 147.59 152.74 L 147.78 153.96 C 147.91 154.81 148.71 155.39 149.56 155.26 C 150.42 155.12 151.00 154.33 150.86 153.47 Z M 150.69 152.38 L 150.61 151.37 C 150.54 150.51 149.79 149.87 148.93 149.94 C 148.07 150.00 147.43 150.75 147.50 151.61 L 147.57 152.62 C 147.64 153.48 148.39 154.12 149.25 154.05 C 150.11 153.99 150.75 153.24 150.69 152.38 Z M 150.61 151.44 L 150.58 150.42 C 150.56 149.56 149.84 148.89 148.97 148.91 C 148.11 148.94 147.43 149.66 147.46 150.52 L 147.49 151.54 C 147.52 152.40 148.24 153.08 149.10 153.05 C 149.96 153.03 150.64 152.31 150.61 151.44 Z M 150.58 150.49 L 150.59 149.47 C 150.61 148.61 149.92 147.90 149.05 147.89 C 148.19 147.88 147.48 148.57 147.47 149.43 L 147.46 150.45 C 147.45 151.32 148.14 152.02 149.00 152.03 C 149.86 152.04 150.57 151.35 150.58 150.49 Z M 150.59 149.54 L 150.65 148.55 C 150.70 147.69 150.04 146.95 149.18 146.90 C 148.32 146.85 147.58 147.51 147.53 148.37 L 147.48 149.36 C 147.43 150.22 148.08 150.96 148.95 151.01 C 149.81 151.06 150.54 150.40 150.59 149.54 Z M 150.64 148.63 L 150.76 147.59 C 150.86 146.73 150.24 145.96 149.38 145.86 C 148.53 145.77 147.75 146.38 147.66 147.24 L 147.54 148.28 C 147.44 149.14 148.06 149.91 148.91 150.01 C 149.77 150.11 150.54 149.49 150.64 148.63 Z M 150.74 147.70 L 150.93 146.70 C 151.09 145.85 150.54 145.03 149.69 144.87 C 148.84 144.71 148.03 145.27 147.87 146.11 L 147.67 147.12 C 147.51 147.97 148.07 148.79 148.92 148.95 C 149.76 149.11 150.58 148.55 150.74 147.70 Z M 150.90 146.83 L 151.16 145.91 C 151.40 145.08 150.91 144.21 150.09 143.98 C 149.26 143.74 148.39 144.23 148.16 145.06 L 147.90 145.98 C 147.66 146.81 148.14 147.67 148.97 147.91 C 149.80 148.14 150.67 147.66 150.90 146.83 Z M 151.12 146.04 L 151.45 145.17 C 151.76 144.36 151.36 143.46 150.56 143.15 C 149.76 142.84 148.85 143.24 148.54 144.04 L 148.20 144.92 C 147.89 145.72 148.29 146.63 149.10 146.94 C 149.90 147.25 150.81 146.85 151.12 146.04 Z M 151.40 145.30 L 151.83 144.44 C 152.21 143.66 151.89 142.73 151.12 142.34 C 150.35 141.96 149.41 142.27 149.03 143.05 L 148.60 143.91 C 148.22 144.69 148.53 145.62 149.30 146.01 C 150.08 146.39 151.01 146.07 151.40 145.30 Z M 151.76 144.56 L 152.28 143.72 C 152.73 142.98 152.50 142.02 151.77 141.57 C 151.03 141.12 150.07 141.35 149.62 142.08 L 149.10 142.92 C 148.65 143.66 148.87 144.62 149.61 145.07 C 150.34 145.52 151.30 145.29 151.76 144.56 Z M 152.20 143.83 L 152.82 143.00 C 153.33 142.31 153.19 141.33 152.49 140.81 C 151.80 140.30 150.82 140.45 150.31 141.14 L 149.69 141.97 C 149.18 142.66 149.32 143.64 150.02 144.15 C 150.71 144.67 151.69 144.52 152.20 143.83 Z M 152.74 143.09 L 153.39 142.35 C 153.95 141.70 153.88 140.71 153.23 140.15 C 152.58 139.58 151.59 139.65 151.03 140.30 L 150.38 141.04 C 149.82 141.70 149.89 142.68 150.54 143.25 C 151.19 143.81 152.18 143.74 152.74 143.09 Z M 153.29 142.45 L 154.01 141.76 C 154.63 141.16 154.64 140.17 154.04 139.55 C 153.44 138.93 152.46 138.91 151.84 139.51 L 151.12 140.20 C 150.50 140.80 150.49 141.79 151.09 142.41 C 151.68 143.03 152.67 143.05 153.29 142.45 Z M 153.87 141.88 L 154.67 141.26 C 155.36 140.74 155.49 139.76 154.96 139.08 C 154.44 138.39 153.46 138.26 152.77 138.78 L 151.97 139.40 C 151.29 139.92 151.16 140.90 151.68 141.59 C 152.20 142.27 153.18 142.40 153.87 141.88 Z M 154.48 141.39 L 155.37 140.89 C 156.13 140.48 156.40 139.53 155.98 138.77 C 155.57 138.02 154.62 137.74 153.86 138.16 L 152.97 138.66 C 152.21 139.08 151.94 140.03 152.36 140.78 C 152.77 141.53 153.72 141.81 154.48 141.39 Z M 155.12 141.01 L 156.14 140.66 C 156.96 140.38 157.39 139.49 157.11 138.67 C 156.83 137.86 155.95 137.42 155.13 137.70 L 154.11 138.05 C 153.30 138.33 152.86 139.22 153.14 140.03 C 153.42 140.85 154.31 141.28 155.12 141.01 Z M 155.86 140.72 L 156.90 140.57 C 157.75 140.45 158.34 139.65 158.22 138.80 C 158.09 137.95 157.30 137.36 156.45 137.48 L 155.41 137.64 C 154.56 137.76 153.97 138.55 154.09 139.41 C 154.22 140.26 155.01 140.85 155.86 140.72 Z M 156.56 140.58 L 157.52 140.65 C 158.38 140.71 159.13 140.07 159.19 139.21 C 159.25 138.35 158.61 137.60 157.75 137.54 L 156.78 137.47 C 155.92 137.41 155.18 138.06 155.12 138.92 C 155.06 139.78 155.70 140.52 156.56 140.58 Z M 157.05 140.54 L 157.86 140.87 C 158.66 141.19 159.57 140.81 159.89 140.01 C 160.22 139.21 159.83 138.30 159.03 137.98 L 158.22 137.65 C 157.42 137.33 156.51 137.71 156.19 138.51 C 155.86 139.31 156.25 140.22 157.05 140.54 Z M 157.31 140.49 L 157.93 141.15 C 158.52 141.78 159.51 141.81 160.14 141.21 C 160.76 140.62 160.79 139.63 160.20 139.01 L 159.58 138.35 C 158.99 137.72 158.00 137.70 157.37 138.29 C 156.75 138.88 156.72 139.87 157.31 140.49 Z M 157.63 140.69 L 158.01 141.60 C 158.35 142.39 159.27 142.76 160.06 142.42 C 160.85 142.09 161.22 141.17 160.89 140.38 L 160.50 139.47 C 160.17 138.68 159.25 138.31 158.46 138.64 C 157.66 138.98 157.29 139.90 157.63 140.69 Z M 157.92 141.28 L 158.13 142.37 C 158.29 143.22 159.11 143.77 159.96 143.61 C 160.80 143.44 161.36 142.62 161.19 141.78 L 160.98 140.69 C 160.82 139.84 160.00 139.29 159.15 139.45 C 158.31 139.62 157.75 140.44 157.92 141.28 Z M 158.10 142.20 L 158.18 143.18 C 158.25 144.04 159.01 144.68 159.87 144.61 C 160.73 144.54 161.37 143.78 161.30 142.92 L 161.22 141.95 C 161.15 141.09 160.39 140.45 159.53 140.52 C 158.67 140.59 158.03 141.34 158.10 142.20 Z M 158.18 143.05 L 158.18 144.06 C 158.18 144.92 158.87 145.62 159.74 145.62 C 160.60 145.63 161.30 144.93 161.30 144.06 L 161.30 143.05 C 161.30 142.19 160.60 141.49 159.74 141.49 C 158.88 141.49 158.18 142.19 158.18 143.05 Z M 158.18 143.93 L 158.09 144.94 C 158.02 145.80 158.66 146.56 159.51 146.63 C 160.37 146.71 161.13 146.07 161.21 145.21 L 161.29 144.20 C 161.37 143.34 160.73 142.58 159.87 142.51 C 159.01 142.43 158.26 143.07 158.18 143.93 Z M 158.12 144.79 L 157.93 145.77 C 157.78 146.61 158.34 147.43 159.18 147.59 C 160.03 147.74 160.85 147.18 161.00 146.34 L 161.19 145.36 C 161.34 144.51 160.78 143.70 159.93 143.54 C 159.09 143.38 158.27 143.94 158.12 144.79 Z M 157.98 145.59 L 157.67 146.58 C 157.42 147.40 157.88 148.28 158.70 148.53 C 159.53 148.79 160.40 148.32 160.66 147.50 L 160.96 146.51 C 161.22 145.69 160.75 144.81 159.93 144.56 C 159.11 144.31 158.23 144.77 157.98 145.59 Z M 157.73 146.42 L 157.33 147.33 C 156.99 148.12 157.35 149.04 158.14 149.39 C 158.93 149.73 159.85 149.37 160.19 148.58 L 160.60 147.66 C 160.94 146.87 160.58 145.95 159.79 145.61 C 159.00 145.26 158.08 145.63 157.73 146.42 Z M 157.39 147.21 L 156.92 148.07 C 156.51 148.83 156.79 149.77 157.54 150.19 C 158.30 150.60 159.25 150.32 159.66 149.57 L 160.13 148.71 C 160.55 147.95 160.27 147.00 159.51 146.59 C 158.76 146.17 157.81 146.45 157.39 147.21 Z M 156.97 147.99 L 156.45 148.81 C 155.99 149.54 156.21 150.50 156.94 150.96 C 157.67 151.42 158.63 151.20 159.09 150.47 L 159.61 149.65 C 160.07 148.92 159.86 147.96 159.13 147.50 C 158.40 147.04 157.43 147.26 156.97 147.99 Z M 156.50 148.75 L 155.93 149.55 C 155.44 150.25 155.61 151.23 156.32 151.72 C 157.02 152.22 158.00 152.04 158.49 151.34 L 159.05 150.54 C 159.55 149.83 159.38 148.86 158.67 148.36 C 157.96 147.87 156.99 148.04 156.50 148.75 Z M 155.99 149.48 L 155.37 150.25 C 154.84 150.93 154.96 151.91 155.63 152.45 C 156.31 152.98 157.29 152.86 157.83 152.19 L 158.44 151.41 C 158.97 150.73 158.86 149.75 158.18 149.22 C 157.50 148.68 156.52 148.80 155.99 149.48 Z M 155.44 150.18 L 154.76 150.94 C 154.18 151.58 154.23 152.57 154.88 153.14 C 155.52 153.72 156.50 153.66 157.08 153.02 L 157.76 152.26 C 158.34 151.62 158.28 150.63 157.64 150.06 C 157.00 149.48 156.01 149.54 155.44 150.18 Z M 154.83 150.86 L 154.11 151.57 C 153.49 152.17 153.48 153.16 154.08 153.77 C 154.69 154.39 155.68 154.40 156.29 153.80 L 157.01 153.10 C 157.63 152.49 157.64 151.51 157.03 150.89 C 156.43 150.27 155.44 150.26 154.83 150.86 Z M 154.19 151.49 L 153.42 152.14 C 152.77 152.70 152.69 153.69 153.24 154.34 C 153.80 155.00 154.79 155.08 155.44 154.52 L 156.21 153.87 C 156.87 153.32 156.95 152.33 156.39 151.67 C 155.83 151.02 154.85 150.93 154.19 151.49 Z M 153.53 152.06 L 152.71 152.64 C 152.00 153.14 151.84 154.12 152.34 154.82 C 152.83 155.52 153.81 155.69 154.51 155.19 L 155.34 154.61 C 156.04 154.11 156.21 153.13 155.71 152.43 C 155.21 151.73 154.23 151.56 153.53 152.06 Z M 152.85 152.55 L 151.98 153.04 C 151.22 153.46 150.95 154.41 151.37 155.16 C 151.79 155.92 152.74 156.19 153.50 155.77 L 154.37 155.28 C 155.12 154.86 155.39 153.91 154.97 153.16 C 154.55 152.41 153.60 152.13 152.85 152.55 Z M 152.18 152.94 L 151.19 153.32 C 150.39 153.63 149.98 154.53 150.29 155.33 C 150.60 156.14 151.50 156.55 152.30 156.24 L 153.29 155.86 C 154.10 155.55 154.50 154.65 154.20 153.85 C 153.89 153.04 152.99 152.64 152.18 152.94 Z M 151.47 153.24 L 150.45 153.43 C 149.60 153.59 149.03 154.40 149.19 155.25 C 149.34 156.09 150.16 156.66 151.01 156.50 L 152.03 156.32 C 152.88 156.16 153.44 155.35 153.28 154.50 C 153.13 153.65 152.31 153.09 151.47 153.24 Z M 150.81 153.41 L 149.85 153.35 C 148.99 153.31 148.25 153.97 148.21 154.83 C 148.16 155.69 148.82 156.43 149.68 156.47 L 150.64 156.52 C 151.50 156.57 152.24 155.91 152.28 155.05 C 152.33 154.19 151.67 153.45 150.81 153.41 Z M 150.33 153.46 L 149.49 153.14 C 148.69 152.82 147.79 153.22 147.48 154.03 C 147.16 154.83 147.57 155.74 148.37 156.05 L 149.20 156.37 C 150.01 156.68 150.91 156.28 151.22 155.48 C 151.53 154.67 151.13 153.77 150.33 153.46 Z M 149.97 153.42 L 149.31 152.84 C 148.67 152.27 147.68 152.33 147.11 152.97 C 146.54 153.62 146.59 154.60 147.24 155.18 L 147.89 155.76 C 148.54 156.33 149.53 156.27 150.10 155.63 C 150.67 154.98 150.61 154.00 149.97 153.42 Z M 149.60 153.18 L 149.09 152.36 C 148.64 151.63 147.67 151.41 146.94 151.86 C 146.21 152.32 145.98 153.28 146.44 154.01 L 146.95 154.83 C 147.40 155.56 148.37 155.79 149.10 155.33 C 149.83 154.88 150.06 153.92 149.60 153.18 Z M 149.23 152.65 L 148.86 151.63 C 148.56 150.82 147.66 150.40 146.85 150.70 C 146.04 151.00 145.63 151.89 145.93 152.70 L 146.30 153.73 C 146.60 154.53 147.49 154.95 148.30 154.65 C 149.11 154.36 149.53 153.46 149.23 152.65 Z M 148.92 151.83 L 148.69 150.80 C 148.51 149.96 147.68 149.42 146.83 149.61 C 145.99 149.79 145.46 150.62 145.64 151.47 L 145.87 152.50 C 146.05 153.34 146.88 153.88 147.72 153.69 C 148.57 153.51 149.10 152.68 148.92 151.83 Z M 148.71 150.93 L 148.59 149.95 C 148.48 149.09 147.69 148.49 146.84 148.60 C 145.98 148.71 145.38 149.49 145.49 150.34 L 145.62 151.33 C 145.73 152.19 146.51 152.79 147.37 152.68 C 148.22 152.57 148.82 151.79 148.71 150.93 Z M 148.60 150.04 L 148.53 149.02 C 148.47 148.16 147.72 147.51 146.86 147.56 C 146.00 147.62 145.35 148.37 145.41 149.23 L 145.48 150.25 C 145.54 151.11 146.28 151.76 147.14 151.70 C 148.00 151.64 148.65 150.90 148.60 150.04 Z M 148.53 149.09 L 148.51 148.07 C 148.49 147.21 147.78 146.52 146.92 146.54 C 146.06 146.56 145.37 147.27 145.39 148.13 L 145.41 149.15 C 145.43 150.01 146.14 150.70 147.00 150.68 C 147.86 150.67 148.55 149.95 148.53 149.09 Z M 148.51 148.13 L 148.53 147.14 C 148.55 146.28 147.86 145.57 147.00 145.55 C 146.14 145.53 145.43 146.22 145.41 147.08 L 145.39 148.07 C 145.37 148.93 146.06 149.64 146.92 149.66 C 147.78 149.68 148.49 148.99 148.51 148.13 Z M 148.53 147.21 L 148.59 146.17 C 148.64 145.31 147.99 144.57 147.13 144.52 C 146.27 144.47 145.53 145.12 145.47 145.98 L 145.41 147.02 C 145.36 147.88 146.01 148.62 146.87 148.67 C 147.73 148.72 148.47 148.07 148.53 147.21 Z M 148.58 146.27 L 148.70 145.29 C 148.81 144.43 148.20 143.65 147.35 143.55 C 146.49 143.44 145.71 144.05 145.61 144.90 L 145.48 145.89 C 145.38 146.74 145.98 147.52 146.84 147.63 C 147.70 147.73 148.48 147.13 148.58 146.27 Z M 148.68 145.42 L 148.88 144.47 C 149.06 143.63 148.53 142.80 147.68 142.62 C 146.84 142.44 146.01 142.98 145.83 143.82 L 145.63 144.77 C 145.45 145.61 145.99 146.44 146.83 146.62 C 147.67 146.80 148.50 146.26 148.68 145.42 Z M 148.84 144.63 L 149.15 143.68 C 149.41 142.86 148.96 141.98 148.14 141.72 C 147.32 141.46 146.44 141.91 146.17 142.73 L 145.87 143.67 C 145.61 144.49 146.06 145.37 146.88 145.64 C 147.70 145.90 148.58 145.45 148.84 144.63 Z M 149.09 143.83 L 149.49 142.91 C 149.83 142.12 149.47 141.20 148.67 140.86 C 147.88 140.52 146.96 140.88 146.62 141.67 L 146.23 142.59 C 145.88 143.38 146.25 144.30 147.04 144.64 C 147.83 144.98 148.75 144.62 149.09 143.83 Z M 149.44 143.02 L 149.91 142.11 C 150.32 141.35 150.03 140.41 149.26 140.00 C 148.50 139.60 147.56 139.89 147.15 140.66 L 146.67 141.56 C 146.27 142.32 146.56 143.27 147.33 143.67 C 148.09 144.07 149.03 143.78 149.44 143.02 Z M 149.86 142.20 L 150.40 141.33 C 150.85 140.59 150.63 139.63 149.89 139.18 C 149.16 138.73 148.20 138.96 147.74 139.69 L 147.20 140.57 C 146.75 141.30 146.98 142.26 147.72 142.71 C 148.45 143.17 149.41 142.94 149.86 142.20 Z M 150.35 141.41 L 150.92 140.59 C 151.42 139.89 151.25 138.92 150.54 138.42 C 149.84 137.92 148.87 138.09 148.37 138.80 L 147.80 139.61 C 147.30 140.31 147.47 141.29 148.17 141.78 C 148.88 142.28 149.85 142.11 150.35 141.41 Z M 150.85 140.68 L 151.49 139.91 C 152.03 139.24 151.93 138.26 151.27 137.71 C 150.60 137.17 149.62 137.26 149.07 137.93 L 148.44 138.71 C 147.89 139.38 147.99 140.36 148.66 140.90 C 149.33 141.45 150.31 141.35 150.85 140.68 Z M 151.38 140.03 L 152.11 139.31 C 152.72 138.70 152.72 137.71 152.11 137.10 C 151.51 136.49 150.52 136.48 149.91 137.09 L 149.18 137.81 C 148.57 138.42 148.56 139.41 149.17 140.02 C 149.78 140.63 150.77 140.64 151.38 140.03 Z M 151.94 139.45 L 152.71 138.87 C 153.40 138.35 153.54 137.37 153.02 136.68 C 152.50 135.99 151.52 135.86 150.84 136.37 L 150.07 136.95 C 149.38 137.47 149.24 138.45 149.76 139.14 C 150.28 139.83 151.25 139.96 151.94 139.45 Z M 152.53 138.99 L 153.38 138.52 C 154.13 138.11 154.41 137.16 153.99 136.40 C 153.58 135.65 152.63 135.37 151.87 135.79 L 151.02 136.25 C 150.26 136.67 149.99 137.62 150.41 138.37 C 150.82 139.13 151.77 139.41 152.53 138.99 Z M 153.22 138.60 L 154.09 138.24 C 154.89 137.91 155.27 137.00 154.94 136.20 C 154.62 135.41 153.71 135.02 152.91 135.35 L 152.03 135.71 C 151.23 136.04 150.85 136.95 151.18 137.75 C 151.51 138.54 152.42 138.92 153.22 138.60 Z M 153.95 138.29 L 154.90 138.00 C 155.73 137.75 156.19 136.88 155.94 136.05 C 155.69 135.23 154.82 134.76 154.00 135.01 L 153.05 135.30 C 152.22 135.55 151.76 136.42 152.01 137.25 C 152.26 138.07 153.13 138.54 153.95 138.29 Z M 154.77 138.04 L 155.77 137.83 C 156.61 137.65 157.16 136.83 156.98 135.98 C 156.81 135.14 155.98 134.59 155.14 134.77 L 154.13 134.98 C 153.29 135.15 152.75 135.98 152.92 136.82 C 153.10 137.67 153.92 138.21 154.77 138.04 Z M 155.63 137.85 L 156.65 137.74 C 157.51 137.64 158.13 136.87 158.03 136.01 C 157.94 135.16 157.17 134.54 156.31 134.63 L 155.28 134.75 C 154.43 134.84 153.81 135.61 153.90 136.47 C 154.00 137.33 154.77 137.94 155.63 137.85 Z M 156.49 137.75 L 157.50 137.74 C 158.36 137.74 159.05 137.03 159.05 136.17 C 159.05 135.31 158.34 134.61 157.48 134.62 L 156.47 134.62 C 155.61 134.63 154.92 135.33 154.92 136.19 C 154.93 137.06 155.63 137.75 156.49 137.75 Z M 157.31 137.73 L 158.30 137.85 C 159.16 137.95 159.93 137.33 160.03 136.48 C 160.13 135.62 159.52 134.84 158.66 134.74 L 157.67 134.63 C 156.81 134.53 156.04 135.14 155.94 136.00 C 155.84 136.85 156.45 137.63 157.31 137.73 Z M 158.08 137.80 L 159.04 138.06 C 159.87 138.28 160.73 137.78 160.95 136.95 C 161.17 136.11 160.67 135.26 159.84 135.04 L 158.88 134.79 C 158.05 134.57 157.19 135.06 156.97 135.90 C 156.75 136.73 157.25 137.58 158.08 137.80 Z M 158.80 137.97 L 159.71 138.38 C 160.49 138.73 161.42 138.38 161.77 137.59 C 162.12 136.81 161.77 135.88 160.99 135.53 L 160.08 135.12 C 159.29 134.77 158.37 135.12 158.01 135.91 C 157.66 136.70 158.01 137.62 158.80 137.97 Z M 159.48 138.25 L 160.30 138.80 C 161.02 139.28 161.99 139.09 162.46 138.37 C 162.94 137.66 162.75 136.69 162.04 136.21 L 161.22 135.66 C 160.50 135.18 159.53 135.37 159.05 136.09 C 158.57 136.80 158.76 137.77 159.48 138.25 Z M 160.11 138.65 L 160.85 139.33 C 161.48 139.92 162.47 139.88 163.05 139.24 C 163.64 138.61 163.60 137.62 162.96 137.04 L 162.22 136.36 C 161.59 135.77 160.60 135.81 160.02 136.45 C 159.43 137.08 159.48 138.07 160.11 138.65 Z M 160.69 139.16 L 161.32 139.95 C 161.86 140.62 162.85 140.72 163.52 140.18 C 164.19 139.64 164.29 138.66 163.75 137.99 L 163.12 137.20 C 162.58 136.53 161.60 136.43 160.92 136.97 C 160.25 137.51 160.15 138.49 160.69 139.16 Z M 161.19 139.75 L 161.69 140.62 C 162.13 141.37 163.08 141.62 163.83 141.18 C 164.57 140.75 164.83 139.79 164.39 139.05 L 163.89 138.18 C 163.45 137.44 162.50 137.19 161.75 137.62 C 161.01 138.05 160.75 139.01 161.19 139.75 Z M 161.59 140.40 L 161.96 141.36 C 162.28 142.17 163.18 142.56 163.98 142.25 C 164.79 141.94 165.18 141.03 164.87 140.23 L 164.50 139.27 C 164.18 138.46 163.28 138.07 162.48 138.38 C 161.67 138.69 161.27 139.60 161.59 140.40 Z M 161.90 141.17 L 162.14 142.15 C 162.35 142.99 163.19 143.50 164.03 143.30 C 164.87 143.09 165.38 142.25 165.18 141.41 L 164.93 140.42 C 164.73 139.59 163.88 139.07 163.05 139.28 C 162.21 139.48 161.70 140.33 161.90 141.17 Z M 162.11 142.00 L 162.25 142.98 C 162.38 143.84 163.17 144.43 164.02 144.31 C 164.87 144.19 165.47 143.40 165.34 142.54 L 165.20 141.56 C 165.08 140.71 164.29 140.12 163.44 140.24 C 162.58 140.36 161.99 141.15 162.11 142.00 Z M 162.24 142.88 L 162.31 143.84 C 162.38 144.70 163.13 145.35 163.99 145.29 C 164.85 145.22 165.49 144.47 165.43 143.61 L 165.36 142.65 C 165.29 141.79 164.54 141.14 163.68 141.21 C 162.82 141.27 162.18 142.02 162.24 142.88 Z M 162.31 143.75 L 162.32 144.80 C 162.33 145.66 163.04 146.35 163.90 146.34 C 164.76 146.33 165.45 145.63 165.44 144.76 L 165.43 143.71 C 165.42 142.85 164.71 142.16 163.85 142.17 C 162.99 142.18 162.30 142.89 162.31 143.75 Z M 162.33 144.63 L 162.24 145.61 C 162.15 146.47 162.78 147.23 163.64 147.31 C 164.50 147.39 165.26 146.76 165.34 145.90 L 165.44 144.93 C 165.52 144.07 164.89 143.31 164.03 143.23 C 163.17 143.15 162.41 143.78 162.33 144.63 Z M 162.28 145.38 L 162.04 146.30 C 161.83 147.14 162.34 147.99 163.18 148.20 C 164.01 148.41 164.86 147.90 165.07 147.06 L 165.30 146.14 C 165.51 145.30 165.01 144.45 164.17 144.24 C 163.33 144.03 162.49 144.54 162.28 145.38 Z M 162.13 146.05 L 161.74 146.92 C 161.39 147.71 161.75 148.63 162.53 148.98 C 163.32 149.33 164.25 148.98 164.60 148.19 L 164.98 147.32 C 165.33 146.53 164.98 145.61 164.19 145.26 C 163.40 144.91 162.48 145.26 162.13 146.05 Z M 161.85 146.73 L 161.32 147.57 C 160.86 148.30 161.08 149.27 161.81 149.72 C 162.54 150.18 163.50 149.96 163.96 149.23 L 164.49 148.39 C 164.95 147.66 164.73 146.69 164.00 146.24 C 163.27 145.78 162.30 146.00 161.85 146.73 Z M 161.42 147.43 L 160.78 148.24 C 160.24 148.91 160.36 149.90 161.04 150.43 C 161.71 150.96 162.69 150.85 163.23 150.17 L 163.86 149.37 C 164.40 148.69 164.28 147.71 163.61 147.18 C 162.93 146.64 161.95 146.76 161.42 147.43 Z M 160.86 148.14 L 160.17 148.88 C 159.58 149.51 159.62 150.50 160.25 151.09 C 160.88 151.67 161.86 151.64 162.45 151.01 L 163.14 150.27 C 163.73 149.64 163.70 148.65 163.07 148.06 C 162.44 147.48 161.45 147.51 160.86 148.14 Z M 160.25 148.80 L 159.52 149.49 C 158.88 150.08 158.85 151.06 159.44 151.69 C 160.03 152.32 161.02 152.36 161.65 151.77 L 162.38 151.09 C 163.01 150.50 163.04 149.51 162.45 148.88 C 161.86 148.25 160.88 148.22 160.25 148.80 Z M 159.59 149.43 L 158.81 150.06 C 158.15 150.61 158.06 151.60 158.61 152.26 C 159.16 152.93 160.14 153.02 160.80 152.47 L 161.58 151.83 C 162.24 151.28 162.33 150.30 161.78 149.63 C 161.23 148.97 160.25 148.88 159.59 149.43 Z M 158.88 150.01 L 158.08 150.60 C 157.39 151.12 157.24 152.09 157.75 152.79 C 158.27 153.48 159.24 153.63 159.94 153.11 L 160.74 152.52 C 161.43 152.01 161.58 151.03 161.06 150.34 C 160.55 149.64 159.57 149.50 158.88 150.01 Z M 158.15 150.55 L 157.33 151.09 C 156.61 151.57 156.41 152.53 156.88 153.25 C 157.36 153.98 158.33 154.18 159.05 153.70 L 159.87 153.16 C 160.59 152.69 160.79 151.72 160.31 151.00 C 159.84 150.28 158.87 150.08 158.15 150.55 Z M 157.43 151.04 L 156.56 151.52 C 155.81 151.94 155.54 152.89 155.96 153.64 C 156.38 154.40 157.34 154.66 158.09 154.24 L 158.95 153.76 C 159.70 153.34 159.97 152.39 159.55 151.63 C 159.13 150.88 158.18 150.61 157.43 151.04 Z M 156.68 151.46 L 155.75 151.88 C 154.97 152.23 154.62 153.16 154.98 153.94 C 155.33 154.73 156.26 155.08 157.04 154.72 L 157.97 154.30 C 158.75 153.95 159.10 153.02 158.75 152.24 C 158.39 151.45 157.47 151.10 156.68 151.46 Z M 155.89 151.83 L 154.93 152.16 C 154.12 152.44 153.69 153.33 153.97 154.14 C 154.25 154.96 155.14 155.39 155.96 155.11 L 156.91 154.78 C 157.73 154.49 158.16 153.60 157.87 152.79 C 157.59 151.97 156.70 151.54 155.89 151.83 Z M 155.06 152.12 L 154.08 152.37 C 153.24 152.59 152.74 153.44 152.95 154.27 C 153.17 155.11 154.02 155.61 154.86 155.40 L 155.84 155.14 C 156.67 154.93 157.17 154.08 156.96 153.24 C 156.74 152.41 155.89 151.90 155.06 152.12 Z M 154.19 152.35 L 153.19 152.53 C 152.35 152.68 151.78 153.49 151.93 154.34 C 152.08 155.19 152.90 155.75 153.74 155.60 L 154.74 155.42 C 155.59 155.27 156.15 154.46 156.00 153.61 C 155.85 152.76 155.04 152.20 154.19 152.35 Z M 153.31 152.51 L 152.33 152.61 C 151.48 152.70 150.85 153.46 150.94 154.32 C 151.03 155.18 151.79 155.80 152.65 155.71 L 153.63 155.62 C 154.48 155.53 155.11 154.76 155.02 153.90 C 154.94 153.05 154.17 152.42 153.31 152.51 Z M 152.49 152.60 L 151.43 152.60 C 150.57 152.60 149.87 153.30 149.87 154.16 C 149.87 155.03 150.57 155.72 151.43 155.72 L 152.49 155.72 C 153.36 155.72 154.05 155.02 154.05 154.16 C 154.05 153.30 153.35 152.60 152.49 152.60 Z M 151.72 152.63 L 150.76 152.45 C 149.91 152.29 149.09 152.84 148.93 153.69 C 148.77 154.54 149.33 155.35 150.18 155.51 L 151.14 155.70 C 151.99 155.86 152.81 155.30 152.97 154.45 C 153.13 153.60 152.57 152.79 151.72 152.63 Z M 151.19 152.60 L 150.35 152.16 C 149.59 151.76 148.65 152.05 148.25 152.81 C 147.85 153.58 148.14 154.52 148.90 154.92 L 149.74 155.36 C 150.50 155.76 151.45 155.47 151.85 154.71 C 152.25 153.94 151.96 153.00 151.19 152.60 Z M 150.77 152.48 L 150.15 151.81 C 149.56 151.18 148.58 151.14 147.94 151.73 C 147.31 152.31 147.28 153.30 147.86 153.93 L 148.49 154.60 C 149.07 155.23 150.06 155.27 150.69 154.68 C 151.32 154.10 151.36 153.11 150.77 152.48 Z M 150.37 152.11 L 149.90 151.26 C 149.48 150.51 148.53 150.24 147.77 150.66 C 147.02 151.08 146.75 152.03 147.17 152.78 L 147.64 153.63 C 148.06 154.38 149.01 154.65 149.77 154.23 C 150.52 153.81 150.79 152.86 150.37 152.11 Z M 150.00 151.48 L 149.64 150.50 C 149.34 149.70 148.44 149.28 147.63 149.58 C 146.82 149.88 146.41 150.78 146.71 151.59 L 147.07 152.56 C 147.37 153.37 148.27 153.78 149.08 153.49 C 149.88 153.19 150.30 152.29 150.00 151.48 Z M 149.69 150.67 L 149.44 149.65 C 149.23 148.81 148.38 148.30 147.54 148.51 C 146.71 148.72 146.20 149.56 146.40 150.40 L 146.66 151.42 C 146.86 152.26 147.71 152.77 148.55 152.56 C 149.39 152.35 149.90 151.51 149.69 150.67 Z M 149.46 149.79 L 149.31 148.75 C 149.18 147.90 148.38 147.31 147.53 147.44 C 146.68 147.57 146.09 148.37 146.22 149.22 L 146.38 150.26 C 146.51 151.11 147.30 151.70 148.15 151.57 C 149.01 151.44 149.59 150.64 149.46 149.79 Z M 149.32 148.87 L 149.24 147.86 C 149.18 147.00 148.43 146.36 147.57 146.42 C 146.71 146.49 146.07 147.24 146.13 148.10 L 146.21 149.10 C 146.27 149.96 147.02 150.61 147.88 150.54 C 148.74 150.48 149.38 149.73 149.32 148.87 Z M 149.25 147.94 L 149.22 146.97 C 149.20 146.10 148.49 145.42 147.62 145.44 C 146.76 145.47 146.08 146.18 146.10 147.04 L 146.13 148.02 C 146.15 148.88 146.86 149.56 147.72 149.54 C 148.59 149.52 149.27 148.80 149.25 147.94 Z M 149.22 147.00 L 149.22 146.03 C 149.22 145.16 148.52 144.47 147.66 144.47 C 146.80 144.47 146.10 145.17 146.10 146.03 L 146.10 147.01 C 146.10 147.87 146.80 148.57 147.67 148.57 C 148.53 148.56 149.23 147.86 149.22 147.00 Z M 149.22 146.05 L 149.23 145.03 C 149.24 144.17 148.55 143.46 147.69 143.45 C 146.83 143.44 146.12 144.13 146.11 144.99 L 146.10 146.01 C 146.09 146.87 146.78 147.58 147.64 147.59 C 148.50 147.60 149.21 146.91 149.22 146.05 Z M 149.23 145.10 L 149.29 144.11 C 149.34 143.25 148.68 142.51 147.82 142.46 C 146.96 142.41 146.22 143.07 146.17 143.93 L 146.11 144.92 C 146.06 145.78 146.72 146.52 147.58 146.57 C 148.44 146.62 149.18 145.96 149.23 145.10 Z M 149.28 144.24 L 149.42 143.27 C 149.54 142.42 148.95 141.63 148.09 141.50 C 147.24 141.38 146.45 141.97 146.33 142.83 L 146.19 143.80 C 146.06 144.65 146.66 145.44 147.51 145.56 C 148.36 145.69 149.15 145.10 149.28 144.24 Z M 149.38 143.45 L 149.63 142.50 C 149.86 141.66 149.36 140.81 148.53 140.59 C 147.69 140.36 146.84 140.86 146.62 141.69 L 146.36 142.65 C 146.14 143.48 146.64 144.34 147.47 144.56 C 148.30 144.78 149.16 144.28 149.38 143.45 Z M 149.58 142.66 L 149.94 141.73 C 150.26 140.93 149.86 140.02 149.06 139.71 C 148.25 139.40 147.35 139.79 147.03 140.60 L 146.67 141.53 C 146.36 142.33 146.75 143.23 147.56 143.55 C 148.36 143.86 149.27 143.47 149.58 142.66 Z M 149.88 141.87 L 150.34 140.98 C 150.73 140.21 150.42 139.27 149.65 138.88 C 148.88 138.49 147.94 138.79 147.55 139.56 L 147.10 140.46 C 146.71 141.23 147.01 142.17 147.78 142.56 C 148.55 142.95 149.49 142.64 149.88 141.87 Z M 150.27 141.09 L 150.79 140.26 C 151.24 139.53 151.02 138.56 150.29 138.11 C 149.55 137.65 148.59 137.88 148.14 138.61 L 147.62 139.44 C 147.16 140.18 147.39 141.14 148.12 141.59 C 148.85 142.05 149.82 141.82 150.27 141.09 Z M 150.71 140.38 L 151.30 139.60 C 151.82 138.91 151.68 137.93 150.99 137.41 C 150.30 136.89 149.32 137.03 148.80 137.72 L 148.22 138.50 C 147.70 139.18 147.83 140.16 148.52 140.68 C 149.21 141.20 150.19 141.06 150.71 140.38 Z M 151.19 139.72 L 151.88 138.98 C 152.47 138.35 152.43 137.36 151.80 136.78 C 151.17 136.19 150.18 136.23 149.59 136.86 L 148.91 137.59 C 148.32 138.22 148.36 139.21 148.99 139.80 C 149.62 140.39 150.61 140.35 151.19 139.72 Z M 151.75 139.10 L 152.53 138.44 C 153.18 137.88 153.26 136.89 152.70 136.24 C 152.14 135.58 151.15 135.51 150.50 136.07 L 149.72 136.74 C 149.06 137.30 148.99 138.28 149.55 138.94 C 150.11 139.59 151.10 139.67 151.75 139.10 Z M 152.40 138.54 L 153.17 138.00 C 153.88 137.52 154.06 136.54 153.57 135.83 C 153.09 135.12 152.11 134.94 151.40 135.43 L 150.63 135.97 C 149.92 136.46 149.74 137.43 150.23 138.14 C 150.72 138.85 151.69 139.03 152.40 138.54 Z M 153.04 138.09 L 153.90 137.61 C 154.66 137.20 154.94 136.25 154.52 135.49 C 154.11 134.74 153.16 134.46 152.40 134.88 L 151.54 135.35 C 150.78 135.76 150.51 136.71 150.92 137.47 C 151.34 138.23 152.28 138.50 153.04 138.09 Z M 153.76 137.68 L 154.70 137.29 C 155.50 136.95 155.87 136.04 155.54 135.24 C 155.21 134.45 154.29 134.07 153.50 134.41 L 152.55 134.80 C 151.75 135.14 151.38 136.05 151.71 136.85 C 152.05 137.64 152.96 138.02 153.76 137.68 Z M 154.54 137.34 L 155.56 137.04 C 156.39 136.80 156.86 135.93 156.62 135.10 C 156.37 134.28 155.50 133.81 154.68 134.05 L 153.66 134.35 C 152.83 134.59 152.36 135.46 152.60 136.29 C 152.85 137.12 153.72 137.59 154.54 137.34 Z M 155.39 137.08 L 156.43 136.90 C 157.28 136.75 157.85 135.94 157.70 135.09 C 157.55 134.24 156.74 133.68 155.89 133.83 L 154.85 134.01 C 154.00 134.16 153.43 134.97 153.58 135.82 C 153.73 136.67 154.54 137.23 155.39 137.08 Z M 156.24 136.92 L 157.29 136.87 C 158.15 136.82 158.81 136.08 158.76 135.22 C 158.72 134.36 157.98 133.70 157.12 133.75 L 156.08 133.80 C 155.22 133.85 154.56 134.59 154.60 135.45 C 154.65 136.31 155.38 136.97 156.24 136.92 Z M 157.06 136.86 L 158.04 136.96 C 158.90 137.04 159.66 136.41 159.75 135.55 C 159.83 134.69 159.20 133.93 158.34 133.85 L 157.35 133.75 C 156.50 133.67 155.73 134.30 155.65 135.16 C 155.57 136.02 156.20 136.78 157.06 136.86 Z M 157.73 136.89 L 158.60 137.16 C 159.43 137.41 160.30 136.95 160.55 136.13 C 160.81 135.30 160.34 134.43 159.52 134.18 L 158.65 133.91 C 157.83 133.66 156.95 134.12 156.70 134.94 C 156.45 135.77 156.91 136.64 157.73 136.89 Z M 158.19 136.96 L 158.96 137.48 C 159.67 137.96 160.64 137.77 161.12 137.06 C 161.61 136.34 161.42 135.37 160.70 134.89 L 159.93 134.37 C 159.22 133.89 158.25 134.08 157.77 134.80 C 157.28 135.51 157.47 136.48 158.19 136.96 Z M 158.60 137.15 L 159.18 137.89 C 159.71 138.57 160.69 138.69 161.37 138.16 C 162.05 137.63 162.17 136.65 161.64 135.97 L 161.06 135.23 C 160.53 134.55 159.55 134.43 158.87 134.96 C 158.19 135.49 158.07 136.47 158.60 137.15 Z M 158.98 137.57 L 159.39 138.49 C 159.74 139.27 160.67 139.63 161.46 139.28 C 162.24 138.93 162.60 138.00 162.25 137.22 L 161.84 136.29 C 161.48 135.51 160.56 135.15 159.77 135.50 C 158.99 135.85 158.63 136.78 158.98 137.57 Z M 159.31 138.25 L 159.58 139.29 C 159.80 140.13 160.65 140.63 161.49 140.41 C 162.32 140.19 162.82 139.34 162.60 138.51 L 162.33 137.46 C 162.11 136.62 161.26 136.12 160.43 136.34 C 159.59 136.56 159.09 137.41 159.31 138.25 Z M 159.55 139.14 L 159.70 140.12 C 159.83 140.97 160.63 141.56 161.48 141.43 C 162.33 141.30 162.92 140.50 162.79 139.65 L 162.64 138.66 C 162.51 137.81 161.71 137.23 160.86 137.36 C 160.00 137.49 159.42 138.28 159.55 139.14 Z M 159.69 140.00 L 159.76 141.02 C 159.83 141.88 160.57 142.52 161.43 142.46 C 162.29 142.40 162.94 141.65 162.88 140.79 L 162.80 139.77 C 162.74 138.91 161.99 138.26 161.13 138.33 C 160.27 138.39 159.63 139.14 159.69 140.00 Z M 159.76 140.90 L 159.75 141.92 C 159.75 142.78 160.45 143.48 161.31 143.48 C 162.17 143.49 162.87 142.79 162.88 141.93 L 162.88 140.91 C 162.88 140.05 162.19 139.35 161.33 139.34 C 160.46 139.34 159.76 140.04 159.76 140.90 Z M 159.76 141.79 L 159.68 142.77 C 159.60 143.63 160.24 144.38 161.10 144.46 C 161.96 144.53 162.71 143.89 162.79 143.03 L 162.87 142.06 C 162.95 141.20 162.31 140.44 161.45 140.37 C 160.59 140.29 159.83 140.93 159.76 141.79 Z M 159.70 142.61 L 159.51 143.62 C 159.35 144.47 159.90 145.29 160.75 145.45 C 161.60 145.61 162.41 145.05 162.57 144.21 L 162.77 143.19 C 162.93 142.34 162.37 141.53 161.52 141.37 C 160.68 141.21 159.86 141.76 159.70 142.61 Z M 159.55 143.45 L 159.25 144.41 C 158.99 145.23 159.44 146.11 160.27 146.37 C 161.09 146.63 161.96 146.17 162.22 145.35 L 162.53 144.38 C 162.79 143.56 162.33 142.69 161.51 142.43 C 160.69 142.17 159.81 142.62 159.55 143.45 Z M 159.31 144.25 L 158.91 145.14 C 158.56 145.92 158.92 146.85 159.71 147.20 C 160.49 147.55 161.42 147.19 161.77 146.40 L 162.16 145.51 C 162.51 144.73 162.16 143.80 161.37 143.45 C 160.58 143.10 159.66 143.46 159.31 144.25 Z M 158.98 145.01 L 158.51 145.85 C 158.09 146.60 158.36 147.55 159.11 147.97 C 159.86 148.39 160.81 148.12 161.23 147.37 L 161.70 146.53 C 162.12 145.78 161.85 144.83 161.10 144.41 C 160.35 143.99 159.40 144.26 158.98 145.01 Z M 158.56 145.76 L 158.01 146.60 C 157.54 147.33 157.75 148.29 158.47 148.76 C 159.20 149.23 160.16 149.03 160.63 148.30 L 161.18 147.46 C 161.65 146.74 161.44 145.77 160.72 145.30 C 160.00 144.83 159.03 145.04 158.56 145.76 Z M 158.06 146.54 L 157.47 147.35 C 156.96 148.05 157.11 149.03 157.81 149.53 C 158.51 150.04 159.48 149.89 159.99 149.19 L 160.58 148.37 C 161.09 147.68 160.94 146.70 160.24 146.19 C 159.55 145.69 158.57 145.84 158.06 146.54 Z M 157.51 147.30 L 156.89 148.07 C 156.35 148.75 156.46 149.73 157.13 150.27 C 157.80 150.81 158.79 150.70 159.32 150.02 L 159.95 149.25 C 160.49 148.57 160.38 147.59 159.70 147.05 C 159.03 146.51 158.05 146.62 157.51 147.30 Z M 156.93 148.03 L 156.28 148.77 C 155.71 149.42 155.78 150.41 156.44 150.97 C 157.09 151.54 158.07 151.47 158.64 150.82 L 159.28 150.07 C 159.85 149.42 159.78 148.43 159.13 147.87 C 158.48 147.30 157.49 147.37 156.93 148.03 Z M 156.34 148.71 L 155.65 149.41 C 155.05 150.03 155.07 151.02 155.69 151.62 C 156.30 152.22 157.29 152.21 157.89 151.59 L 158.58 150.88 C 159.18 150.26 159.16 149.27 158.55 148.67 C 157.93 148.07 156.94 148.09 156.34 148.71 Z M 155.76 149.31 L 155.01 149.95 C 154.35 150.51 154.28 151.50 154.84 152.16 C 155.40 152.81 156.38 152.89 157.04 152.33 L 157.79 151.69 C 158.44 151.13 158.52 150.14 157.96 149.49 C 157.40 148.83 156.41 148.75 155.76 149.31 Z M 155.16 149.84 L 154.31 150.40 C 153.59 150.88 153.39 151.85 153.87 152.57 C 154.34 153.29 155.31 153.48 156.03 153.01 L 156.88 152.44 C 157.60 151.97 157.80 151.00 157.33 150.28 C 156.85 149.56 155.88 149.36 155.16 149.84 Z M 154.49 150.30 L 153.56 150.75 C 152.79 151.12 152.46 152.06 152.84 152.83 C 153.22 153.61 154.15 153.93 154.92 153.56 L 155.85 153.11 C 156.62 152.74 156.95 151.80 156.57 151.03 C 156.20 150.25 155.26 149.92 154.49 150.30 Z M 153.78 150.66 L 152.80 150.97 C 151.97 151.23 151.51 152.10 151.77 152.93 C 152.03 153.75 152.91 154.21 153.73 153.95 L 154.71 153.64 C 155.53 153.38 155.99 152.51 155.73 151.69 C 155.48 150.86 154.60 150.41 153.78 150.66 Z M 153.10 150.91 L 152.13 151.01 C 151.27 151.10 150.65 151.87 150.74 152.73 C 150.83 153.59 151.60 154.21 152.46 154.12 L 153.43 154.01 C 154.28 153.92 154.91 153.15 154.81 152.30 C 154.72 151.44 153.95 150.82 153.10 150.91 Z M 152.58 151.03 L 151.68 150.86 C 150.83 150.70 150.01 151.26 149.85 152.10 C 149.69 152.95 150.25 153.77 151.10 153.93 L 152.00 154.10 C 152.85 154.26 153.66 153.70 153.82 152.85 C 153.98 152.01 153.43 151.19 152.58 151.03 Z M 152.20 151.06 L 151.42 150.58 C 150.68 150.13 149.72 150.36 149.27 151.10 C 148.82 151.83 149.05 152.79 149.79 153.24 L 150.57 153.72 C 151.31 154.18 152.27 153.94 152.72 153.21 C 153.17 152.47 152.94 151.51 152.20 151.06 Z M 151.81 150.92 L 151.17 150.16 C 150.62 149.49 149.64 149.40 148.98 149.95 C 148.31 150.50 148.22 151.49 148.77 152.15 L 149.40 152.91 C 149.95 153.57 150.94 153.66 151.60 153.11 C 152.26 152.56 152.36 151.58 151.81 150.92 Z M 151.39 150.50 L 150.93 149.50 C 150.57 148.71 149.65 148.37 148.86 148.73 C 148.08 149.09 147.73 150.02 148.09 150.80 L 148.55 151.80 C 148.91 152.59 149.84 152.93 150.62 152.57 C 151.41 152.21 151.75 151.29 151.39 150.50 Z M 151.03 149.76 L 150.79 148.84 C 150.58 148.00 149.73 147.49 148.89 147.71 C 148.06 147.92 147.55 148.77 147.76 149.60 L 148.00 150.53 C 148.21 151.37 149.06 151.87 149.90 151.66 C 150.73 151.45 151.24 150.60 151.03 149.76 Z M 150.82 149.00 L 150.68 148.00 C 150.56 147.15 149.77 146.56 148.92 146.68 C 148.06 146.80 147.47 147.59 147.59 148.44 L 147.73 149.44 C 147.85 150.29 148.64 150.89 149.49 150.77 C 150.35 150.65 150.94 149.86 150.82 149.00 Z M 150.69 148.12 L 150.62 147.09 C 150.57 146.23 149.82 145.58 148.96 145.63 C 148.10 145.69 147.45 146.44 147.51 147.30 L 147.58 148.33 C 147.64 149.19 148.38 149.84 149.24 149.78 C 150.10 149.72 150.75 148.98 150.69 148.12 Z M 150.63 147.16 L 150.61 146.15 C 150.59 145.28 149.88 144.60 149.02 144.61 C 148.16 144.63 147.47 145.34 147.49 146.20 L 147.51 147.22 C 147.52 148.08 148.23 148.77 149.09 148.75 C 149.96 148.74 150.64 148.03 150.63 147.16 Z M 150.61 146.20 L 150.63 145.15 C 150.64 144.29 149.95 143.58 149.09 143.57 C 148.23 143.55 147.52 144.24 147.50 145.10 L 147.49 146.15 C 147.47 147.01 148.16 147.72 149.03 147.74 C 149.89 147.75 150.60 147.06 150.61 146.20 Z M 150.62 145.21 L 150.68 144.15 C 150.72 143.29 150.06 142.55 149.20 142.51 C 148.34 142.47 147.60 143.13 147.56 143.99 L 147.51 145.05 C 147.46 145.91 148.12 146.64 148.98 146.69 C 149.85 146.73 150.58 146.07 150.62 145.21 Z M 150.67 144.24 L 150.78 143.27 C 150.88 142.42 150.26 141.64 149.40 141.55 C 148.55 141.45 147.77 142.07 147.68 142.92 L 147.57 143.89 C 147.47 144.75 148.09 145.52 148.94 145.62 C 149.80 145.72 150.57 145.10 150.67 144.24 Z M 150.76 143.41 L 150.94 142.50 C 151.11 141.65 150.56 140.83 149.72 140.66 C 148.87 140.49 148.05 141.04 147.88 141.88 L 147.70 142.79 C 147.53 143.64 148.07 144.46 148.92 144.63 C 149.76 144.80 150.59 144.25 150.76 143.41 Z M 150.90 142.66 L 151.19 141.73 C 151.45 140.91 151.00 140.03 150.18 139.77 C 149.36 139.51 148.48 139.97 148.22 140.79 L 147.92 141.72 C 147.66 142.54 148.12 143.42 148.94 143.68 C 149.76 143.94 150.64 143.48 150.90 142.66 Z M 151.14 141.88 L 151.54 140.97 C 151.88 140.17 151.52 139.26 150.73 138.91 C 149.93 138.57 149.02 138.93 148.67 139.72 L 148.27 140.64 C 147.93 141.43 148.29 142.35 149.08 142.69 C 149.87 143.04 150.79 142.67 151.14 141.88 Z M 151.48 141.08 L 151.95 140.20 C 152.36 139.44 152.07 138.49 151.31 138.08 C 150.55 137.68 149.61 137.96 149.20 138.72 L 148.73 139.61 C 148.32 140.37 148.61 141.31 149.37 141.72 C 150.13 142.13 151.07 141.84 151.48 141.08 Z M 151.90 140.28 L 152.43 139.43 C 152.88 138.70 152.66 137.73 151.92 137.28 C 151.19 136.83 150.23 137.06 149.77 137.79 L 149.25 138.64 C 148.79 139.38 149.02 140.34 149.76 140.79 C 150.49 141.24 151.45 141.01 151.90 140.28 Z M 152.38 139.51 L 152.95 138.69 C 153.45 137.99 153.28 137.02 152.58 136.52 C 151.87 136.02 150.90 136.19 150.40 136.89 L 149.83 137.71 C 149.33 138.41 149.50 139.39 150.20 139.89 C 150.91 140.38 151.88 140.21 152.38 139.51 Z M 152.86 138.81 L 153.51 138.05 C 154.07 137.40 153.99 136.41 153.34 135.85 C 152.68 135.29 151.69 135.37 151.14 136.02 L 150.49 136.78 C 149.93 137.44 150.01 138.42 150.66 138.98 C 151.32 139.54 152.31 139.46 152.86 138.81 Z M 153.38 138.19 L 154.12 137.51 C 154.75 136.93 154.79 135.94 154.21 135.30 C 153.63 134.67 152.64 134.63 152.01 135.21 L 151.27 135.89 C 150.63 136.47 150.59 137.46 151.17 138.09 C 151.76 138.73 152.74 138.77 153.38 138.19 Z M 153.95 137.65 L 154.76 137.09 C 155.47 136.60 155.65 135.63 155.16 134.92 C 154.67 134.21 153.70 134.03 152.99 134.52 L 152.18 135.07 C 151.47 135.56 151.29 136.53 151.78 137.24 C 152.26 137.96 153.24 138.14 153.95 137.65 Z M 154.56 137.20 L 155.46 136.76 C 156.23 136.39 156.55 135.45 156.17 134.68 C 155.79 133.90 154.86 133.58 154.08 133.96 L 153.19 134.40 C 152.41 134.78 152.09 135.71 152.47 136.49 C 152.85 137.26 153.79 137.58 154.56 137.20 Z M 155.22 136.86 L 156.18 136.57 C 157.01 136.32 157.48 135.45 157.23 134.62 C 156.98 133.80 156.11 133.33 155.28 133.58 L 154.32 133.87 C 153.50 134.12 153.03 134.99 153.28 135.81 C 153.52 136.64 154.40 137.11 155.22 136.86 Z M 155.90 136.62 L 156.92 136.52 C 157.78 136.42 158.40 135.65 158.30 134.80 C 158.21 133.94 157.44 133.32 156.58 133.41 L 155.57 133.52 C 154.71 133.61 154.09 134.38 154.18 135.24 C 154.27 136.10 155.04 136.72 155.90 136.62 Z M 156.58 136.52 L 157.60 136.62 C 158.45 136.72 159.22 136.10 159.32 135.24 C 159.41 134.38 158.79 133.61 157.93 133.52 L 156.92 133.41 C 156.06 133.32 155.29 133.94 155.20 134.80 C 155.11 135.65 155.73 136.42 156.58 136.52 Z M 157.19 136.52 L 158.10 136.88 C 158.90 137.20 159.81 136.81 160.13 136.00 C 160.44 135.20 160.05 134.29 159.25 133.98 L 158.34 133.62 C 157.53 133.30 156.63 133.70 156.31 134.50 C 156.00 135.30 156.39 136.21 157.19 136.52 Z M 157.64 136.60 L 158.35 137.23 C 159.00 137.80 159.98 137.74 160.56 137.10 C 161.13 136.45 161.07 135.46 160.42 134.89 L 159.71 134.26 C 159.06 133.69 158.08 133.75 157.51 134.40 C 156.93 135.04 156.99 136.03 157.64 136.60 Z M 158.01 136.80 L 158.45 137.60 C 158.85 138.36 159.80 138.65 160.56 138.24 C 161.32 137.83 161.60 136.88 161.19 136.12 L 160.76 135.32 C 160.35 134.56 159.40 134.28 158.65 134.69 C 157.89 135.10 157.60 136.04 158.01 136.80 Z M 158.32 137.28 L 158.58 138.24 C 158.82 139.07 159.68 139.56 160.51 139.32 C 161.34 139.09 161.82 138.23 161.59 137.40 L 161.32 136.44 C 161.09 135.61 160.23 135.13 159.40 135.36 C 158.57 135.59 158.08 136.45 158.32 137.28 Z M 158.54 138.05 L 158.69 139.09 C 158.82 139.94 159.61 140.53 160.46 140.41 C 161.32 140.28 161.91 139.49 161.78 138.64 L 161.63 137.60 C 161.51 136.74 160.72 136.15 159.86 136.28 C 159.01 136.40 158.42 137.19 158.54 138.05 Z M 158.68 138.98 L 158.76 140.02 C 158.83 140.88 159.58 141.52 160.44 141.45 C 161.30 141.39 161.94 140.64 161.88 139.78 L 161.80 138.74 C 161.73 137.88 160.98 137.24 160.12 137.30 C 159.26 137.37 158.62 138.12 158.68 138.98 Z M 158.76 139.95 L 158.79 140.93 C 158.82 141.79 159.54 142.47 160.40 142.44 C 161.26 142.41 161.94 141.69 161.91 140.83 L 161.88 139.85 C 161.85 138.99 161.13 138.31 160.27 138.34 C 159.41 138.36 158.73 139.08 158.76 139.95 Z M 158.79 140.80 L 158.74 141.77 C 158.70 142.63 159.36 143.37 160.22 143.41 C 161.09 143.45 161.82 142.79 161.86 141.93 L 161.91 140.96 C 161.95 140.10 161.29 139.36 160.43 139.32 C 159.57 139.28 158.83 139.94 158.79 140.80 Z M 158.76 141.60 L 158.60 142.58 C 158.46 143.44 159.04 144.24 159.89 144.38 C 160.74 144.52 161.54 143.94 161.68 143.09 L 161.84 142.10 C 161.98 141.25 161.40 140.45 160.55 140.31 C 159.70 140.17 158.90 140.75 158.76 141.60 Z M 158.64 142.40 L 158.36 143.37 C 158.11 144.20 158.59 145.06 159.42 145.31 C 160.24 145.55 161.11 145.08 161.35 144.25 L 161.64 143.28 C 161.88 142.45 161.41 141.58 160.58 141.34 C 159.75 141.09 158.89 141.57 158.64 142.40 Z M 158.41 143.22 L 158.05 144.10 C 157.72 144.90 158.10 145.81 158.90 146.14 C 159.70 146.47 160.61 146.09 160.94 145.29 L 161.30 144.40 C 161.63 143.60 161.25 142.69 160.45 142.36 C 159.65 142.04 158.74 142.42 158.41 143.22 Z M 158.09 144.00 L 157.64 144.90 C 157.26 145.67 157.57 146.61 158.34 147.00 C 159.11 147.38 160.05 147.07 160.44 146.30 L 160.89 145.39 C 161.27 144.62 160.96 143.69 160.19 143.30 C 159.42 142.91 158.48 143.23 158.09 144.00 Z M 157.69 144.82 L 157.17 145.71 C 156.74 146.46 157.00 147.41 157.74 147.84 C 158.49 148.27 159.44 148.02 159.88 147.27 L 160.39 146.38 C 160.82 145.63 160.57 144.68 159.82 144.25 C 159.08 143.82 158.12 144.07 157.69 144.82 Z M 157.22 145.64 L 156.66 146.50 C 156.19 147.22 156.39 148.19 157.11 148.66 C 157.83 149.13 158.80 148.92 159.27 148.20 L 159.83 147.34 C 160.30 146.62 160.10 145.65 159.38 145.18 C 158.65 144.71 157.69 144.92 157.22 145.64 Z M 156.70 146.43 L 156.07 147.29 C 155.57 147.99 155.72 148.96 156.42 149.47 C 157.11 149.98 158.09 149.83 158.60 149.13 L 159.23 148.27 C 159.73 147.57 159.58 146.60 158.89 146.09 C 158.19 145.58 157.21 145.73 156.70 146.43 Z M 156.14 147.21 L 155.45 148.03 C 154.90 148.69 154.98 149.67 155.64 150.23 C 156.31 150.78 157.29 150.69 157.84 150.03 L 158.53 149.22 C 159.09 148.55 159.00 147.57 158.34 147.02 C 157.68 146.46 156.69 146.55 156.14 147.21 Z M 155.55 147.92 L 154.84 148.62 C 154.23 149.23 154.22 150.22 154.83 150.83 C 155.43 151.44 156.42 151.45 157.03 150.84 L 157.75 150.14 C 158.36 149.54 158.37 148.55 157.76 147.93 C 157.15 147.32 156.17 147.31 155.55 147.92 Z M 154.99 148.49 L 154.25 149.06 C 153.56 149.59 153.43 150.57 153.96 151.25 C 154.48 151.93 155.46 152.06 156.15 151.54 L 156.89 150.97 C 157.57 150.45 157.70 149.47 157.18 148.78 C 156.65 148.10 155.67 147.97 154.99 148.49 Z M 154.47 148.92 L 153.60 149.38 C 152.84 149.78 152.55 150.72 152.95 151.48 C 153.35 152.25 154.30 152.54 155.06 152.14 L 155.92 151.68 C 156.69 151.28 156.98 150.34 156.58 149.57 C 156.18 148.81 155.23 148.52 154.47 148.92 Z M 153.95 149.24 L 152.91 149.51 C 152.07 149.72 151.57 150.57 151.78 151.40 C 151.99 152.24 152.84 152.75 153.68 152.53 L 154.72 152.27 C 155.55 152.06 156.06 151.21 155.84 150.37 C 155.63 149.54 154.78 149.03 153.95 149.24 Z M 153.42 149.46 L 152.47 149.39 C 151.61 149.32 150.86 149.96 150.79 150.82 C 150.72 151.68 151.36 152.43 152.22 152.50 L 153.17 152.58 C 154.03 152.65 154.78 152.01 154.85 151.15 C 154.92 150.29 154.28 149.53 153.42 149.46 Z M 153.16 149.61 L 152.43 149.17 C 151.69 148.72 150.73 148.95 150.29 149.69 C 149.84 150.43 150.07 151.39 150.81 151.84 L 151.54 152.28 C 152.27 152.72 153.23 152.49 153.68 151.75 C 154.13 151.02 153.89 150.06 153.16 149.61 Z M 152.94 149.67 L 152.51 148.99 C 152.05 148.26 151.09 148.04 150.36 148.49 C 149.63 148.95 149.41 149.92 149.87 150.65 L 150.30 151.33 C 150.76 152.06 151.72 152.28 152.45 151.82 C 153.18 151.37 153.40 150.40 152.94 149.67 Z M 152.69 149.37 L 152.41 148.45 C 152.17 147.62 151.30 147.15 150.48 147.40 C 149.65 147.64 149.18 148.51 149.42 149.34 L 149.69 150.26 C 149.94 151.09 150.81 151.56 151.63 151.31 C 152.46 151.07 152.93 150.20 152.69 149.37 Z M 152.46 148.68 L 152.31 147.57 C 152.19 146.71 151.40 146.12 150.55 146.23 C 149.69 146.35 149.10 147.14 149.22 148.00 L 149.37 149.11 C 149.49 149.96 150.28 150.56 151.13 150.44 C 151.99 150.32 152.58 149.53 152.46 148.68 Z M 152.32 147.68 L 152.25 146.56 C 152.20 145.70 151.45 145.05 150.59 145.10 C 149.73 145.16 149.08 145.90 149.13 146.76 L 149.20 147.88 C 149.26 148.74 150.00 149.39 150.86 149.34 C 151.72 149.28 152.38 148.54 152.32 147.68 Z M 152.25 146.63 L 152.23 145.62 C 152.21 144.76 151.50 144.08 150.64 144.10 C 149.77 144.12 149.09 144.83 149.11 145.69 L 149.13 146.69 C 149.15 147.56 149.86 148.24 150.73 148.22 C 151.59 148.20 152.27 147.49 152.25 146.63 Z M 152.23 145.68 L 152.25 144.66 C 152.26 143.80 151.57 143.09 150.71 143.07 C 149.85 143.06 149.14 143.75 149.13 144.61 L 149.11 145.63 C 149.10 146.50 149.78 147.21 150.65 147.22 C 151.51 147.23 152.22 146.55 152.23 145.68 Z M 152.24 144.72 L 152.30 143.70 C 152.35 142.84 151.69 142.10 150.83 142.05 C 149.97 142.01 149.24 142.66 149.19 143.52 L 149.13 144.54 C 149.08 145.40 149.74 146.14 150.60 146.19 C 151.46 146.24 152.20 145.58 152.24 144.72 Z M 152.30 143.78 L 152.40 142.79 C 152.49 141.94 151.87 141.17 151.02 141.08 C 150.16 140.98 149.39 141.61 149.30 142.46 L 149.19 143.45 C 149.10 144.31 149.72 145.07 150.58 145.17 C 151.44 145.26 152.21 144.64 152.30 143.78 Z M 152.39 142.89 L 152.56 141.90 C 152.71 141.05 152.14 140.24 151.29 140.09 C 150.44 139.95 149.63 140.52 149.48 141.37 L 149.31 142.36 C 149.17 143.21 149.74 144.02 150.59 144.17 C 151.43 144.31 152.24 143.74 152.39 142.89 Z M 152.53 142.02 L 152.79 141.02 C 153.01 140.19 152.51 139.33 151.67 139.12 C 150.84 138.90 149.99 139.40 149.77 140.24 L 149.51 141.24 C 149.29 142.07 149.79 142.93 150.63 143.14 C 151.46 143.36 152.32 142.86 152.53 142.02 Z M 152.75 141.16 L 153.08 140.23 C 153.38 139.42 152.96 138.53 152.15 138.24 C 151.34 137.94 150.44 138.36 150.15 139.17 L 149.81 140.10 C 149.52 140.91 149.94 141.80 150.75 142.10 C 151.56 142.39 152.46 141.97 152.75 141.16 Z M 153.03 140.36 L 153.44 139.49 C 153.80 138.71 153.46 137.78 152.68 137.42 C 151.90 137.05 150.97 137.39 150.61 138.17 L 150.20 139.05 C 149.84 139.83 150.18 140.76 150.96 141.12 C 151.74 141.48 152.67 141.14 153.03 140.36 Z M 153.38 139.60 L 153.86 138.74 C 154.29 137.99 154.02 137.04 153.27 136.62 C 152.52 136.19 151.56 136.46 151.14 137.21 L 150.66 138.07 C 150.24 138.82 150.51 139.77 151.26 140.19 C 152.01 140.61 152.96 140.35 153.38 139.60 Z M 153.81 138.84 L 154.37 137.98 C 154.84 137.26 154.64 136.29 153.92 135.82 C 153.20 135.35 152.23 135.55 151.76 136.27 L 151.20 137.12 C 150.72 137.84 150.92 138.81 151.64 139.28 C 152.36 139.76 153.33 139.56 153.81 138.84 Z M 154.30 138.08 L 154.92 137.28 C 155.45 136.60 155.33 135.62 154.64 135.09 C 153.96 134.56 152.98 134.68 152.45 135.36 L 151.83 136.17 C 151.30 136.85 151.43 137.83 152.11 138.36 C 152.79 138.89 153.77 138.76 154.30 138.08 Z M 154.83 137.39 L 155.50 136.67 C 156.09 136.04 156.06 135.05 155.43 134.46 C 154.81 133.87 153.82 133.90 153.23 134.53 L 152.55 135.25 C 151.96 135.88 151.99 136.87 152.62 137.46 C 153.25 138.05 154.24 138.02 154.83 137.39 Z M 155.37 136.80 L 156.14 136.15 C 156.80 135.60 156.89 134.61 156.34 133.95 C 155.79 133.29 154.80 133.20 154.14 133.75 L 153.37 134.40 C 152.70 134.95 152.61 135.94 153.17 136.60 C 153.72 137.26 154.70 137.35 155.37 136.80 Z M 155.92 136.31 L 156.90 135.74 C 157.64 135.32 157.90 134.36 157.47 133.61 C 157.05 132.87 156.09 132.61 155.34 133.04 L 154.36 133.60 C 153.62 134.03 153.36 134.98 153.78 135.73 C 154.21 136.48 155.17 136.73 155.92 136.31 Z M 156.53 135.90 L 157.46 135.64 C 158.30 135.42 158.79 134.56 158.56 133.73 C 158.34 132.90 157.48 132.40 156.65 132.63 L 155.71 132.88 C 154.88 133.11 154.39 133.97 154.61 134.80 C 154.84 135.63 155.70 136.12 156.53 135.90 Z M 156.83 135.68 L 157.64 135.80 C 158.49 135.93 159.28 135.34 159.41 134.48 C 159.53 133.63 158.94 132.84 158.09 132.71 L 157.28 132.59 C 156.43 132.47 155.64 133.06 155.51 133.91 C 155.39 134.76 155.98 135.56 156.83 135.68 Z M 156.82 135.42 L 157.47 136.00 C 158.11 136.58 159.10 136.52 159.68 135.88 C 160.25 135.24 160.20 134.25 159.56 133.67 L 158.91 133.09 C 158.26 132.52 157.28 132.57 156.70 133.21 C 156.13 133.86 156.18 134.84 156.82 135.42 Z M 157.10 135.50 L 157.54 136.43 C 157.90 137.21 158.83 137.54 159.61 137.17 C 160.39 136.81 160.73 135.88 160.36 135.10 L 159.93 134.17 C 159.56 133.39 158.63 133.06 157.85 133.42 C 157.07 133.79 156.73 134.72 157.10 135.50 Z M 157.43 136.13 L 157.69 137.18 C 157.90 138.02 158.74 138.53 159.58 138.33 C 160.42 138.12 160.93 137.28 160.72 136.44 L 160.47 135.39 C 160.26 134.55 159.41 134.04 158.58 134.24 C 157.74 134.45 157.23 135.30 157.43 136.13 Z M 157.66 137.02 L 157.79 137.99 C 157.90 138.84 158.69 139.44 159.54 139.33 C 160.40 139.21 161.00 138.43 160.88 137.57 L 160.75 136.60 C 160.64 135.75 159.85 135.15 159.00 135.26 C 158.14 135.38 157.54 136.16 157.66 137.02 Z M 157.78 137.88 L 157.84 138.88 C 157.90 139.74 158.64 140.39 159.50 140.34 C 160.36 140.28 161.01 139.54 160.96 138.68 L 160.89 137.68 C 160.84 136.82 160.10 136.17 159.24 136.22 C 158.38 136.28 157.72 137.02 157.78 137.88 Z M 157.84 138.81 L 157.86 139.83 C 157.87 140.70 158.59 141.38 159.45 141.37 C 160.31 141.35 161.00 140.64 160.98 139.78 L 160.96 138.75 C 160.95 137.89 160.23 137.20 159.37 137.22 C 158.51 137.24 157.82 137.95 157.84 138.81 Z M 157.86 139.79 L 157.85 140.80 C 157.84 141.67 158.53 142.37 159.39 142.38 C 160.26 142.39 160.96 141.70 160.97 140.84 L 160.98 139.82 C 160.99 138.96 160.30 138.25 159.44 138.24 C 158.57 138.24 157.87 138.93 157.86 139.79 Z M 157.85 140.74 L 157.80 141.75 C 157.76 142.61 158.42 143.34 159.28 143.39 C 160.15 143.43 160.88 142.76 160.92 141.90 L 160.97 140.89 C 161.01 140.03 160.35 139.30 159.48 139.26 C 158.62 139.22 157.89 139.88 157.85 140.74 Z M 157.81 141.66 L 157.70 142.65 C 157.61 143.51 158.23 144.28 159.09 144.37 C 159.95 144.46 160.71 143.84 160.81 142.98 L 160.91 141.99 C 161.00 141.14 160.38 140.37 159.53 140.27 C 158.67 140.18 157.90 140.80 157.81 141.66 Z M 157.72 142.52 L 157.54 143.48 C 157.38 144.33 157.93 145.15 158.78 145.31 C 159.63 145.47 160.44 144.92 160.60 144.07 L 160.79 143.11 C 160.95 142.26 160.39 141.44 159.55 141.28 C 158.70 141.12 157.88 141.68 157.72 142.52 Z M 157.57 143.34 L 157.30 144.28 C 157.06 145.11 157.54 145.97 158.37 146.21 C 159.20 146.45 160.06 145.97 160.30 145.15 L 160.57 144.21 C 160.81 143.38 160.33 142.52 159.50 142.28 C 158.68 142.04 157.81 142.51 157.57 143.34 Z M 157.34 144.16 L 156.99 145.09 C 156.68 145.89 157.09 146.80 157.90 147.10 C 158.70 147.41 159.60 147.00 159.91 146.19 L 160.26 145.27 C 160.57 144.46 160.16 143.56 159.35 143.25 C 158.55 142.95 157.65 143.35 157.34 144.16 Z M 157.03 145.00 L 156.60 145.95 C 156.25 146.73 156.60 147.66 157.38 148.01 C 158.17 148.36 159.09 148.01 159.45 147.23 L 159.87 146.28 C 160.23 145.50 159.88 144.57 159.09 144.22 C 158.30 143.86 157.38 144.21 157.03 145.00 Z M 156.64 145.87 L 156.07 146.96 C 155.68 147.72 155.97 148.66 156.74 149.06 C 157.51 149.46 158.45 149.16 158.84 148.39 L 159.41 147.31 C 159.81 146.54 159.51 145.60 158.74 145.20 C 157.98 144.80 157.03 145.10 156.64 145.87 Z M 156.19 146.77 L 155.58 147.62 C 155.08 148.32 155.25 149.30 155.95 149.80 C 156.65 150.30 157.63 150.13 158.13 149.43 L 158.73 148.58 C 159.23 147.88 159.07 146.90 158.36 146.40 C 157.66 145.90 156.69 146.07 156.19 146.77 Z M 156.16 147.13 L 155.58 147.42 C 154.80 147.80 154.49 148.74 154.87 149.51 C 155.25 150.28 156.19 150.60 156.96 150.22 L 157.55 149.92 C 158.32 149.54 158.64 148.61 158.25 147.83 C 157.87 147.06 156.93 146.74 156.16 147.13 Z M 157.31 147.65 L 156.82 147.22 C 156.18 146.65 155.19 146.70 154.62 147.35 C 154.05 147.99 154.10 148.98 154.75 149.55 L 155.23 149.98 C 155.87 150.56 156.86 150.50 157.43 149.85 C 158.01 149.21 157.95 148.22 157.31 147.65 Z M 157.22 147.78 L 156.83 146.84 C 156.49 146.05 155.58 145.67 154.78 146.01 C 153.99 146.34 153.62 147.26 153.95 148.05 L 154.35 148.99 C 154.68 149.79 155.60 150.16 156.39 149.82 C 157.19 149.49 157.56 148.57 157.22 147.78 Z M 156.91 147.09 L 156.63 145.90 C 156.43 145.07 155.59 144.55 154.75 144.75 C 153.91 144.95 153.39 145.79 153.59 146.63 L 153.87 147.81 C 154.07 148.65 154.91 149.17 155.75 148.97 C 156.59 148.77 157.11 147.92 156.91 147.09 Z M 156.66 146.07 L 156.52 144.97 C 156.41 144.11 155.62 143.51 154.77 143.62 C 153.91 143.73 153.31 144.51 153.42 145.36 L 153.56 146.47 C 153.67 147.32 154.45 147.93 155.31 147.82 C 156.16 147.70 156.77 146.92 156.66 146.07 Z M 156.53 145.11 L 156.49 144.09 C 156.46 143.23 155.74 142.56 154.88 142.59 C 154.02 142.61 153.34 143.34 153.37 144.20 L 153.41 145.22 C 153.44 146.08 154.16 146.75 155.02 146.73 C 155.88 146.70 156.56 145.98 156.53 145.11 Z M 156.49 144.23 L 156.54 143.26 C 156.59 142.40 155.93 141.67 155.07 141.62 C 154.21 141.58 153.47 142.24 153.43 143.10 L 153.37 144.06 C 153.33 144.92 153.99 145.66 154.85 145.70 C 155.71 145.75 156.45 145.09 156.49 144.23 Z M 156.53 143.38 L 156.66 142.44 C 156.77 141.59 156.17 140.80 155.31 140.69 C 154.46 140.58 153.67 141.18 153.56 142.04 L 153.44 142.98 C 153.33 143.83 153.93 144.62 154.78 144.73 C 155.64 144.84 156.42 144.24 156.53 143.38 Z M 156.64 142.55 L 156.84 141.59 C 157.01 140.74 156.47 139.92 155.62 139.74 C 154.78 139.57 153.95 140.11 153.78 140.96 L 153.58 141.92 C 153.41 142.77 153.95 143.59 154.79 143.77 C 155.64 143.94 156.46 143.40 156.64 142.55 Z M 156.81 141.70 L 157.08 140.75 C 157.32 139.93 156.84 139.06 156.01 138.82 C 155.19 138.58 154.32 139.06 154.08 139.89 L 153.81 140.84 C 153.57 141.67 154.05 142.53 154.87 142.77 C 155.70 143.01 156.57 142.53 156.81 141.70 Z M 157.04 140.87 L 157.41 139.89 C 157.71 139.08 157.30 138.18 156.49 137.88 C 155.68 137.58 154.78 137.99 154.48 138.80 L 154.12 139.78 C 153.82 140.59 154.23 141.48 155.04 141.78 C 155.85 142.09 156.74 141.67 157.04 140.87 Z M 157.36 140.00 L 157.89 138.87 C 158.25 138.08 157.91 137.16 157.13 136.79 C 156.35 136.43 155.42 136.77 155.06 137.55 L 154.53 138.68 C 154.17 139.46 154.51 140.39 155.29 140.76 C 156.07 141.12 157.00 140.78 157.36 140.00 Z M 157.77 139.07 L 158.30 138.28 C 158.78 137.56 158.58 136.59 157.87 136.11 C 157.15 135.63 156.18 135.83 155.70 136.55 L 155.17 137.34 C 154.70 138.06 154.89 139.03 155.61 139.51 C 156.33 139.98 157.30 139.79 157.77 139.07 Z M 157.30 138.94 L 157.73 138.86 C 158.57 138.70 159.13 137.88 158.96 137.03 C 158.79 136.18 157.97 135.63 157.13 135.80 L 156.70 135.88 C 155.86 136.05 155.30 136.87 155.47 137.71 C 155.63 138.56 156.45 139.11 157.30 138.94 Z M 155.94 137.81 L 156.20 138.62 C 156.47 139.44 157.35 139.89 158.17 139.62 C 158.99 139.36 159.44 138.48 159.17 137.66 L 158.91 136.85 C 158.65 136.03 157.77 135.58 156.95 135.84 C 156.13 136.11 155.68 136.99 155.94 137.81 Z M 156.13 138.28 L 156.26 139.59 C 156.34 140.45 157.10 141.08 157.96 141.00 C 158.81 140.92 159.44 140.16 159.36 139.30 L 159.24 137.99 C 159.16 137.13 158.40 136.50 157.54 136.58 C 156.68 136.66 156.05 137.42 156.13 138.28 Z M 156.25 139.50 L 156.29 140.48 C 156.32 141.34 157.05 142.02 157.91 141.98 C 158.77 141.95 159.44 141.22 159.41 140.36 L 159.37 139.38 C 159.34 138.52 158.61 137.85 157.75 137.88 C 156.89 137.92 156.22 138.64 156.25 139.50 Z M 156.29 140.43 L 156.29 141.44 C 156.30 142.31 157.00 143.00 157.87 142.99 C 158.73 142.99 159.42 142.28 159.42 141.42 L 159.41 140.41 C 159.40 139.55 158.70 138.86 157.84 138.86 C 156.97 138.87 156.28 139.57 156.29 140.43 Z M 156.29 141.40 L 156.27 142.41 C 156.25 143.27 156.93 143.99 157.80 144.01 C 158.66 144.03 159.37 143.34 159.39 142.48 L 159.42 141.47 C 159.44 140.61 158.75 139.89 157.89 139.87 C 157.03 139.85 156.31 140.54 156.29 141.40 Z M 156.27 142.36 L 156.21 143.41 C 156.17 144.27 156.83 145.00 157.69 145.05 C 158.55 145.10 159.28 144.44 159.33 143.58 L 159.39 142.53 C 159.44 141.67 158.78 140.94 157.92 140.89 C 157.06 140.84 156.32 141.50 156.27 142.36 Z M 156.22 143.30 L 156.09 144.35 C 155.99 145.21 156.60 145.99 157.45 146.10 C 158.31 146.20 159.09 145.59 159.19 144.74 L 159.32 143.69 C 159.43 142.83 158.82 142.05 157.96 141.94 C 157.11 141.84 156.33 142.45 156.22 143.30 Z M 156.14 144.13 L 155.88 145.06 C 155.65 145.89 156.14 146.75 156.97 146.98 C 157.80 147.21 158.66 146.72 158.89 145.89 L 159.15 144.96 C 159.38 144.13 158.89 143.27 158.06 143.04 C 157.23 142.81 156.37 143.30 156.14 144.13 Z M 156.06 144.65 L 155.54 145.49 C 155.08 146.22 155.30 147.18 156.04 147.64 C 156.77 148.10 157.73 147.87 158.19 147.14 L 158.71 146.30 C 159.17 145.57 158.94 144.60 158.21 144.15 C 157.48 143.69 156.52 143.92 156.06 144.65 Z M 155.99 145.02 L 155.06 145.65 C 154.34 146.13 154.15 147.10 154.63 147.81 C 155.11 148.53 156.08 148.72 156.80 148.24 L 157.73 147.61 C 158.45 147.13 158.64 146.16 158.16 145.44 C 157.68 144.73 156.71 144.54 155.99 145.02 Z M 156.31 145.43 L 155.75 145.28 C 154.91 145.07 154.06 145.58 153.85 146.41 C 153.64 147.25 154.14 148.10 154.98 148.31 L 155.54 148.45 C 156.38 148.67 157.23 148.16 157.44 147.33 C 157.65 146.49 157.15 145.64 156.31 145.43 Z M 156.91 146.99 L 157.01 146.24 C 157.11 145.38 156.50 144.60 155.65 144.50 C 154.79 144.39 154.01 145.00 153.91 145.85 L 153.81 146.60 C 153.71 147.46 154.32 148.24 155.17 148.35 C 156.03 148.45 156.81 147.84 156.91 146.99 Z M 156.92 146.59 L 157.33 145.50 C 157.63 144.69 157.22 143.79 156.41 143.49 C 155.60 143.19 154.70 143.60 154.40 144.41 L 153.99 145.50 C 153.69 146.31 154.10 147.21 154.91 147.51 C 155.72 147.81 156.62 147.40 156.92 146.59 Z M 157.32 145.51 L 157.82 144.21 C 158.13 143.41 157.72 142.50 156.92 142.20 C 156.11 141.89 155.21 142.29 154.90 143.10 L 154.41 144.39 C 154.10 145.20 154.50 146.10 155.31 146.41 C 156.11 146.72 157.01 146.31 157.32 145.51 Z M 157.85 144.14 L 158.18 143.12 C 158.44 142.30 157.99 141.42 157.17 141.16 C 156.35 140.89 155.47 141.34 155.21 142.16 L 154.88 143.17 C 154.61 143.99 155.06 144.87 155.88 145.14 C 156.70 145.41 157.58 144.96 157.85 144.14 Z M 158.15 142.07 L 158.11 141.98 C 157.80 141.17 156.89 140.78 156.09 141.09 C 155.28 141.40 154.89 142.31 155.20 143.11 L 155.24 143.21 C 155.55 144.01 156.45 144.41 157.26 144.10 C 158.06 143.78 158.46 142.88 158.15 142.07 Z M 155.27 141.83 L 154.83 142.68 C 154.43 143.44 154.73 144.38 155.49 144.78 C 156.26 145.18 157.20 144.88 157.60 144.11 L 158.04 143.26 C 158.44 142.50 158.14 141.55 157.37 141.16 C 156.61 140.76 155.66 141.06 155.27 141.83 Z M 154.86 142.61 L 154.15 143.83 C 153.72 144.58 153.97 145.53 154.71 145.97 C 155.46 146.40 156.42 146.15 156.85 145.40 L 157.56 144.18 C 158.00 143.44 157.74 142.48 157.00 142.05 C 156.25 141.61 155.30 141.86 154.86 142.61 Z M 154.25 143.68 L 153.52 144.66 C 153.01 145.35 153.15 146.33 153.84 146.85 C 154.53 147.36 155.51 147.22 156.03 146.53 L 156.75 145.55 C 157.27 144.86 157.12 143.88 156.43 143.37 C 155.74 142.85 154.76 142.99 154.25 143.68 Z M 153.81 144.36 L 153.15 144.88 C 152.47 145.41 152.35 146.40 152.88 147.07 C 153.42 147.75 154.40 147.87 155.08 147.34 L 155.74 146.82 C 156.42 146.29 156.53 145.31 156.00 144.63 C 155.47 143.95 154.49 143.83 153.81 144.36 Z M 155.20 144.99 L 154.73 144.53 C 154.11 143.93 153.12 143.94 152.52 144.56 C 151.92 145.18 151.93 146.17 152.55 146.77 L 153.03 147.23 C 153.65 147.83 154.63 147.82 155.23 147.20 C 155.83 146.58 155.82 145.59 155.20 144.99 Z M 155.19 145.48 L 155.06 144.32 C 154.97 143.47 154.20 142.85 153.34 142.94 C 152.48 143.04 151.86 143.81 151.96 144.67 L 152.09 145.82 C 152.18 146.68 152.95 147.30 153.81 147.20 C 154.67 147.11 155.29 146.34 155.19 145.48 Z M 151.98 144.78 L 152.02 145.02 C 152.18 145.87 152.99 146.43 153.84 146.27 C 154.69 146.12 155.25 145.30 155.09 144.46 L 155.05 144.21 C 154.89 143.36 154.08 142.80 153.23 142.96 C 152.38 143.11 151.82 143.93 151.98 144.78 Z M 151.99 144.72 L 151.99 145.37 C 151.98 146.23 152.67 146.94 153.53 146.95 C 154.39 146.96 155.10 146.27 155.11 145.41 L 155.12 144.76 C 155.13 143.90 154.44 143.19 153.58 143.18 C 152.71 143.17 152.01 143.86 151.99 144.72 Z M 155.11 145.35 L 155.08 144.43 C 155.06 143.57 154.34 142.89 153.48 142.92 C 152.62 142.94 151.94 143.66 151.96 144.52 L 151.99 145.43 C 152.01 146.30 152.73 146.97 153.59 146.95 C 154.45 146.93 155.13 146.21 155.11 145.35 Z M 155.07 144.66 L 155.22 143.37 C 155.32 142.52 154.71 141.74 153.85 141.64 C 152.99 141.54 152.22 142.16 152.12 143.01 L 151.97 144.30 C 151.87 145.15 152.48 145.93 153.34 146.03 C 154.20 146.13 154.97 145.51 155.07 144.66 Z M 155.15 143.68 L 155.47 142.71 C 155.74 141.89 155.29 141.01 154.47 140.74 C 153.65 140.47 152.77 140.92 152.50 141.74 L 152.19 142.71 C 151.92 143.53 152.37 144.41 153.18 144.68 C 154.00 144.94 154.89 144.50 155.15 143.68 Z M 155.32 143.04 L 155.83 142.20 C 156.28 141.47 156.05 140.51 155.32 140.05 C 154.58 139.60 153.62 139.83 153.17 140.57 L 152.66 141.41 C 152.21 142.14 152.44 143.10 153.17 143.55 C 153.91 144.00 154.87 143.77 155.32 143.04 Z M 155.53 142.56 L 156.26 141.92 C 156.92 141.36 156.98 140.37 156.42 139.72 C 155.85 139.07 154.87 139.00 154.22 139.56 L 153.48 140.21 C 152.83 140.77 152.76 141.76 153.32 142.41 C 153.89 143.06 154.87 143.13 155.53 142.56 Z M 155.77 142.21 L 156.70 141.87 C 157.51 141.58 157.93 140.68 157.64 139.87 C 157.34 139.06 156.45 138.64 155.64 138.94 L 154.71 139.28 C 153.90 139.57 153.48 140.47 153.77 141.28 C 154.07 142.09 154.96 142.50 155.77 142.21 Z M 156.01 141.96 L 156.99 142.06 C 157.85 142.14 158.61 141.52 158.70 140.66 C 158.78 139.80 158.16 139.04 157.30 138.95 L 156.32 138.85 C 155.47 138.77 154.70 139.39 154.62 140.25 C 154.53 141.11 155.16 141.87 156.01 141.96 Z M 156.31 141.83 L 157.06 142.29 C 157.79 142.75 158.75 142.53 159.21 141.80 C 159.67 141.07 159.45 140.10 158.72 139.65 L 157.97 139.18 C 157.24 138.72 156.28 138.94 155.82 139.67 C 155.36 140.41 155.58 141.37 156.31 141.83 Z M 156.72 142.00 L 157.35 142.72 C 157.92 143.37 158.91 143.43 159.56 142.85 C 160.20 142.28 160.26 141.30 159.69 140.65 L 159.06 139.93 C 158.49 139.29 157.50 139.23 156.85 139.80 C 156.21 140.37 156.15 141.36 156.72 142.00 Z M 157.20 142.52 L 157.77 143.42 C 158.23 144.15 159.20 144.37 159.93 143.91 C 160.65 143.45 160.87 142.48 160.41 141.75 L 159.84 140.85 C 159.38 140.12 158.42 139.91 157.69 140.37 C 156.96 140.83 156.74 141.79 157.20 142.52 Z M 157.70 143.29 L 158.18 144.25 C 158.57 145.02 159.51 145.33 160.28 144.94 C 161.05 144.55 161.36 143.61 160.97 142.84 L 160.49 141.88 C 160.10 141.11 159.16 140.81 158.39 141.19 C 157.62 141.58 157.31 142.52 157.70 143.29 Z M 158.14 144.16 L 158.52 145.04 C 158.86 145.83 159.78 146.20 160.57 145.86 C 161.36 145.52 161.73 144.60 161.39 143.81 L 161.01 142.93 C 160.67 142.14 159.75 141.77 158.96 142.11 C 158.17 142.45 157.80 143.37 158.14 144.16 Z M 158.49 144.96 L 158.83 145.88 C 159.12 146.69 160.02 147.11 160.83 146.81 C 161.64 146.51 162.05 145.61 161.76 144.80 L 161.42 143.88 C 161.12 143.08 160.22 142.66 159.41 142.96 C 158.60 143.26 158.19 144.15 158.49 144.96 Z M 158.80 145.81 L 159.11 146.78 C 159.37 147.61 160.24 148.06 161.07 147.80 C 161.89 147.54 162.35 146.67 162.09 145.85 L 161.78 144.87 C 161.52 144.05 160.64 143.60 159.82 143.86 C 159.00 144.11 158.54 144.99 158.80 145.81 Z M 159.09 146.72 L 159.37 147.75 C 159.59 148.58 160.45 149.07 161.28 148.85 C 162.11 148.62 162.61 147.76 162.38 146.93 L 162.10 145.91 C 161.88 145.07 161.02 144.58 160.19 144.81 C 159.36 145.03 158.87 145.89 159.09 146.72 Z M 159.35 147.70 L 159.59 148.69 C 159.79 149.53 160.63 150.05 161.47 149.85 C 162.31 149.65 162.83 148.81 162.63 147.97 L 162.39 146.98 C 162.20 146.14 161.36 145.62 160.52 145.82 C 159.68 146.02 159.16 146.86 159.35 147.70 Z M 159.58 148.65 L 159.79 149.66 C 159.97 150.51 160.80 151.05 161.64 150.87 C 162.48 150.70 163.03 149.87 162.85 149.02 L 162.64 148.01 C 162.46 147.17 161.63 146.63 160.79 146.80 C 159.94 146.98 159.40 147.81 159.58 148.65 Z M 159.79 149.63 L 159.97 150.63 C 160.13 151.48 160.95 152.04 161.80 151.88 C 162.64 151.72 163.20 150.91 163.04 150.06 L 162.85 149.06 C 162.70 148.21 161.88 147.65 161.03 147.81 C 160.19 147.97 159.63 148.78 159.79 149.63 Z M 159.97 150.60 L 160.13 151.56 C 160.27 152.41 161.08 152.99 161.93 152.84 C 162.78 152.70 163.35 151.90 163.21 151.05 L 163.05 150.09 C 162.91 149.24 162.10 148.66 161.25 148.81 C 160.40 148.95 159.83 149.75 159.97 150.60 Z M 160.12 151.53 L 160.27 152.54 C 160.40 153.39 161.19 153.98 162.04 153.86 C 162.90 153.73 163.49 152.94 163.36 152.09 L 163.21 151.08 C 163.09 150.22 162.30 149.63 161.44 149.76 C 160.59 149.88 160.00 150.68 160.12 151.53 Z M 160.27 152.50 L 160.39 153.54 C 160.49 154.39 161.27 155.00 162.13 154.90 C 162.98 154.80 163.59 154.02 163.49 153.16 L 163.37 152.13 C 163.26 151.27 162.49 150.66 161.63 150.76 C 160.77 150.87 160.16 151.65 160.27 152.50 Z M 160.39 153.49 L 160.48 154.45 C 160.56 155.31 161.32 155.94 162.17 155.86 C 163.03 155.78 163.66 155.02 163.58 154.16 L 163.50 153.20 C 163.42 152.35 162.66 151.71 161.80 151.79 C 160.94 151.87 160.31 152.63 160.39 153.49 Z M 160.47 154.41 L 160.54 155.34 C 160.60 156.20 161.34 156.85 162.20 156.79 C 163.06 156.73 163.71 155.98 163.65 155.12 L 163.59 154.19 C 163.53 153.33 162.78 152.69 161.92 152.75 C 161.06 152.81 160.41 153.55 160.47 154.41 Z M 160.54 155.32 L 160.59 156.29 C 160.64 157.15 161.37 157.81 162.23 157.77 C 163.09 157.72 163.75 156.99 163.71 156.12 L 163.65 155.15 C 163.61 154.29 162.87 153.63 162.01 153.67 C 161.15 153.72 160.49 154.46 160.54 155.32 Z M 160.59 156.27 L 160.63 157.27 C 160.66 158.13 161.39 158.80 162.25 158.77 C 163.11 158.73 163.78 158.01 163.75 157.14 L 163.71 156.14 C 163.67 155.28 162.94 154.61 162.08 154.65 C 161.22 154.68 160.55 155.41 160.59 156.27 Z M 160.63 157.25 L 160.66 158.27 C 160.68 159.13 161.40 159.81 162.26 159.78 C 163.13 159.76 163.80 159.04 163.78 158.18 L 163.75 157.16 C 163.72 156.30 163.01 155.62 162.14 155.65 C 161.28 155.67 160.60 156.39 160.63 157.25 Z M 160.66 158.25 L 160.68 159.25 C 160.69 160.11 161.40 160.80 162.26 160.78 C 163.13 160.77 163.81 160.06 163.80 159.19 L 163.78 158.20 C 163.76 157.33 163.05 156.65 162.19 156.66 C 161.33 156.68 160.64 157.39 160.66 158.25 Z M 160.68 159.24 L 160.68 160.23 C 160.69 161.09 161.40 161.78 162.26 161.78 C 163.12 161.77 163.81 161.06 163.81 160.20 L 163.80 159.21 C 163.79 158.35 163.08 157.65 162.22 157.66 C 161.36 157.67 160.67 158.37 160.68 159.24 Z M 160.68 160.22 L 160.69 161.22 C 160.69 162.08 161.39 162.78 162.25 162.78 C 163.12 162.77 163.81 162.07 163.81 161.21 L 163.81 160.21 C 163.80 159.35 163.10 158.65 162.24 158.65 C 161.38 158.66 160.68 159.36 160.68 160.22 Z M 160.69 161.22 L 160.69 162.23 C 160.69 163.09 161.39 163.79 162.25 163.79 C 163.11 163.79 163.81 163.09 163.81 162.23 L 163.81 161.22 C 163.81 160.35 163.11 159.65 162.25 159.65 C 161.39 159.65 160.69 160.35 160.69 161.22 Z M 160.69 162.23 L 160.69 163.22 C 160.69 164.08 161.39 164.78 162.25 164.78 C 163.11 164.78 163.81 164.08 163.81 163.22 L 163.81 162.23 C 163.81 161.37 163.11 160.67 162.25 160.67 C 161.39 160.67 160.69 161.36 160.69 162.23 Z M 160.69 163.21 L 160.68 164.22 C 160.68 165.08 161.38 165.78 162.24 165.78 C 163.10 165.79 163.80 165.09 163.81 164.23 L 163.81 163.23 C 163.81 162.36 163.12 161.66 162.25 161.66 C 161.39 161.66 160.69 162.35 160.69 163.21 Z M 160.68 164.21 L 160.67 165.21 C 160.67 166.08 161.36 166.78 162.22 166.79 C 163.08 166.80 163.79 166.11 163.80 165.24 L 163.81 164.24 C 163.81 163.38 163.12 162.67 162.26 162.66 C 161.40 162.65 160.69 163.35 160.68 164.21 Z M 160.67 165.20 L 160.66 166.21 C 160.64 167.07 161.33 167.78 162.19 167.80 C 163.05 167.81 163.76 167.13 163.78 166.27 L 163.80 165.26 C 163.81 164.40 163.13 163.68 162.26 163.67 C 161.40 163.65 160.69 164.34 160.67 165.20 Z M 160.66 166.18 L 160.62 167.19 C 160.59 168.05 161.27 168.77 162.13 168.80 C 162.99 168.83 163.71 168.16 163.74 167.30 L 163.78 166.29 C 163.81 165.43 163.13 164.71 162.27 164.68 C 161.41 164.65 160.69 165.32 160.66 166.18 Z M 160.62 167.15 L 160.56 168.14 C 160.51 169.00 161.16 169.74 162.02 169.80 C 162.88 169.85 163.63 169.20 163.68 168.33 L 163.74 167.34 C 163.79 166.48 163.14 165.74 162.28 165.68 C 161.42 165.63 160.68 166.29 160.62 167.15 Z M 160.57 168.08 L 160.47 169.07 C 160.38 169.92 161.00 170.69 161.86 170.78 C 162.72 170.86 163.49 170.24 163.57 169.38 L 163.67 168.40 C 163.76 167.54 163.14 166.77 162.28 166.69 C 161.42 166.60 160.65 167.22 160.57 168.08 Z M 160.48 168.99 L 160.32 169.98 C 160.19 170.83 160.78 171.63 161.63 171.76 C 162.48 171.89 163.28 171.31 163.41 170.45 L 163.56 169.46 C 163.69 168.61 163.11 167.81 162.26 167.68 C 161.40 167.55 160.61 168.14 160.48 168.99 Z M 160.34 169.91 L 160.14 170.89 C 159.97 171.73 160.51 172.56 161.36 172.73 C 162.20 172.90 163.02 172.36 163.20 171.51 L 163.40 170.53 C 163.57 169.68 163.03 168.86 162.18 168.69 C 161.34 168.52 160.51 169.06 160.34 169.91 Z M 160.15 170.82 L 159.91 171.79 C 159.70 172.62 160.21 173.47 161.04 173.68 C 161.88 173.89 162.73 173.38 162.94 172.55 L 163.18 171.58 C 163.39 170.74 162.88 169.90 162.05 169.69 C 161.21 169.48 160.36 169.98 160.15 170.82 Z M 159.93 171.73 L 159.66 172.64 C 159.42 173.47 159.89 174.34 160.72 174.58 C 161.54 174.82 162.41 174.35 162.65 173.52 L 162.92 172.61 C 163.17 171.78 162.69 170.91 161.86 170.67 C 161.04 170.43 160.17 170.90 159.93 171.73 Z M 159.68 172.59 L 159.39 173.44 C 159.11 174.26 159.56 175.15 160.37 175.42 C 161.19 175.69 162.08 175.25 162.35 174.43 L 162.64 173.58 C 162.91 172.76 162.47 171.87 161.65 171.60 C 160.83 171.33 159.95 171.77 159.68 172.59 Z M 159.41 173.39 L 159.07 174.30 C 158.77 175.10 159.17 176.00 159.98 176.31 C 160.79 176.61 161.69 176.20 161.99 175.39 L 162.33 174.49 C 162.63 173.68 162.22 172.78 161.42 172.48 C 160.61 172.18 159.71 172.58 159.41 173.39 Z M 159.09 174.25 L 158.68 175.24 C 158.35 176.04 158.73 176.95 159.53 177.28 C 160.33 177.61 161.24 177.23 161.57 176.43 L 161.97 175.44 C 162.30 174.64 161.92 173.73 161.12 173.40 C 160.33 173.07 159.41 173.45 159.09 174.25 Z M 158.69 175.21 L 158.27 176.18 C 157.92 176.97 158.28 177.89 159.07 178.24 C 159.86 178.58 160.78 178.22 161.13 177.43 L 161.55 176.46 C 161.90 175.67 161.54 174.75 160.75 174.41 C 159.96 174.06 159.04 174.42 158.69 175.21 Z M 158.28 176.16 L 157.87 177.05 C 157.51 177.83 157.86 178.76 158.64 179.12 C 159.42 179.48 160.35 179.13 160.71 178.35 L 161.12 177.46 C 161.48 176.67 161.13 175.75 160.35 175.39 C 159.56 175.03 158.64 175.37 158.28 176.16 Z M 157.88 177.02 L 157.44 177.95 C 157.06 178.73 157.39 179.66 158.17 180.03 C 158.95 180.40 159.88 180.08 160.25 179.30 L 160.70 178.37 C 161.07 177.60 160.74 176.66 159.96 176.29 C 159.19 175.92 158.25 176.25 157.88 177.02 Z M 157.45 177.92 L 156.98 178.85 C 156.59 179.61 156.90 180.55 157.67 180.94 C 158.44 181.33 159.38 181.03 159.77 180.26 L 160.24 179.33 C 160.63 178.56 160.32 177.62 159.55 177.23 C 158.78 176.84 157.84 177.15 157.45 177.92 Z M 157.00 178.81 L 156.52 179.70 C 156.11 180.46 156.39 181.41 157.15 181.82 C 157.90 182.23 158.85 181.95 159.26 181.19 L 159.75 180.29 C 160.16 179.54 159.88 178.59 159.12 178.18 C 158.36 177.77 157.41 178.05 157.00 178.81 Z M 156.55 179.65 L 156.03 180.52 C 155.59 181.27 155.83 182.22 156.58 182.66 C 157.32 183.10 158.28 182.86 158.71 182.12 L 159.23 181.24 C 159.67 180.50 159.43 179.54 158.69 179.10 C 157.94 178.66 156.99 178.91 156.55 179.65 Z M 156.08 180.44 L 155.44 181.39 C 154.95 182.10 155.14 183.07 155.85 183.56 C 156.56 184.04 157.53 183.86 158.02 183.15 L 158.66 182.20 C 159.15 181.48 158.96 180.51 158.25 180.03 C 157.54 179.54 156.57 179.73 156.08 180.44 Z M 155.52 181.28 L 154.87 182.06 C 154.33 182.73 154.42 183.71 155.09 184.26 C 155.75 184.81 156.74 184.71 157.28 184.05 L 157.93 183.26 C 158.48 182.59 158.39 181.61 157.72 181.06 C 157.05 180.51 156.07 180.61 155.52 181.28 Z M 155.00 181.92 L 154.34 182.55 C 153.72 183.15 153.69 184.14 154.29 184.76 C 154.88 185.39 155.87 185.41 156.49 184.82 L 157.16 184.19 C 157.78 183.59 157.81 182.60 157.21 181.98 C 156.62 181.35 155.63 181.33 155.00 181.92 Z M 154.53 182.40 L 153.81 182.90 C 153.10 183.39 152.92 184.36 153.41 185.07 C 153.89 185.78 154.87 185.96 155.58 185.47 L 156.30 184.97 C 157.01 184.48 157.19 183.51 156.70 182.80 C 156.22 182.09 155.24 181.91 154.53 182.40 Z M 154.07 182.75 L 153.14 183.16 C 152.35 183.50 151.99 184.42 152.34 185.21 C 152.68 186.00 153.60 186.36 154.39 186.02 L 155.32 185.61 C 156.11 185.27 156.47 184.35 156.12 183.56 C 155.78 182.77 154.86 182.41 154.07 182.75 Z M 153.37 183.08 L 152.41 183.33 C 151.58 183.55 151.08 184.41 151.30 185.24 C 151.52 186.07 152.38 186.57 153.21 186.35 L 154.17 186.10 C 155.00 185.88 155.50 185.02 155.28 184.19 C 155.06 183.35 154.20 182.86 153.37 183.08 Z M 152.53 183.31 L 151.62 183.47 C 150.77 183.63 150.21 184.45 150.37 185.29 C 150.53 186.14 151.34 186.70 152.19 186.54 L 153.10 186.37 C 153.95 186.22 154.51 185.40 154.35 184.55 C 154.19 183.71 153.38 183.15 152.53 183.31 Z"
      fill="black"
      fill-rule="nonzero" /></svg>