<svg xmlns="http://www.w3.org/2000/svg" width="300" height="300" viewBox="0 0 300 300">
<path d="M 151.43 137.36 L 150.45 137.67 C 149.63 137.93 149.18 138.81 149.44 139.63 C 149.70 140.45 150.58 140.90 151.40 140.64 L 152.38 140.33 C 153.20 140.07 153.65 139.19 153.39 138.37 C 153.13 137.55 152.25 137.09 151.43 137.36 Z M 150.35 137.70 L 149.42 138.07 C 148.62 138.39 148.22 139.29 148.54 140.10 C 148.85 140.90 149.76 141.29 150.56 140.98 L 151.50 140.61 C 152.30 140.29 152.69 139.39 152.38 138.58 C 152.06 137.78 151.16 137.39 150.35 137.70 Z M 149.22 138.17 L 148.37 138.65 C 147.62 139.07 147.36 140.02 147.78 140.77 C 148.21 141.52 149.16 141.79 149.91 141.36 L 150.76 140.88 C 151.51 140.46 151.77 139.51 151.35 138.75 C 150.92 138.00 149.97 137.74 149.22 138.17 Z M 148.10 138.84 L 147.38 139.48 C 146.74 140.06 146.69 141.05 147.26 141.69 C 147.84 142.33 148.82 142.38 149.47 141.81 L 150.18 141.17 C 150.83 140.59 150.88 139.61 150.31 138.96 C 149.73 138.32 148.74 138.27 148.10 138.84 Z M 147.16 139.73 L 146.58 140.52 C 146.07 141.22 146.23 142.20 146.92 142.71 C 147.62 143.21 148.60 143.06 149.11 142.36 L 149.69 141.57 C 150.19 140.87 150.04 139.89 149.34 139.38 C 148.65 138.88 147.67 139.03 147.16 139.73 Z M 146.47 140.71 L 145.99 141.60 C 145.58 142.36 145.87 143.31 146.63 143.71 C 147.39 144.12 148.34 143.83 148.74 143.07 L 149.22 142.18 C 149.63 141.42 149.34 140.47 148.58 140.07 C 147.82 139.66 146.87 139.95 146.47 140.71 Z M 145.94 141.71 L 145.53 142.64 C 145.19 143.43 145.55 144.35 146.34 144.70 C 147.13 145.04 148.05 144.68 148.39 143.89 L 148.80 142.96 C 149.14 142.17 148.78 141.25 147.99 140.91 C 147.20 140.56 146.28 140.92 145.94 141.71 Z M 145.51 142.69 L 145.13 143.65 C 144.82 144.45 145.21 145.35 146.01 145.67 C 146.81 145.99 147.72 145.59 148.04 144.79 L 148.41 143.84 C 148.73 143.04 148.34 142.13 147.54 141.81 C 146.73 141.50 145.83 141.89 145.51 142.69 Z M 145.13 143.66 L 144.77 144.59 C 144.47 145.40 144.87 146.30 145.68 146.61 C 146.48 146.92 147.38 146.51 147.69 145.70 L 148.04 144.77 C 148.35 143.97 147.95 143.07 147.14 142.76 C 146.34 142.45 145.43 142.86 145.13 143.66 Z M 144.78 144.58 L 144.42 145.50 C 144.11 146.30 144.51 147.21 145.31 147.52 C 146.11 147.83 147.02 147.43 147.33 146.63 L 147.69 145.71 C 148.00 144.91 147.60 144.01 146.80 143.69 C 145.99 143.38 145.09 143.78 144.78 144.58 Z M 144.44 145.46 L 144.05 146.38 C 143.72 147.17 144.09 148.09 144.89 148.42 C 145.69 148.75 146.60 148.38 146.93 147.58 L 147.32 146.67 C 147.65 145.87 147.27 144.96 146.48 144.63 C 145.68 144.29 144.77 144.67 144.44 145.46 Z M 144.07 146.33 L 143.66 147.24 C 143.29 148.02 143.64 148.95 144.42 149.31 C 145.20 149.67 146.13 149.33 146.49 148.54 L 146.91 147.63 C 147.27 146.85 146.93 145.92 146.15 145.56 C 145.36 145.20 144.44 145.54 144.07 146.33 Z M 143.68 147.18 L 143.23 148.07 C 142.84 148.84 143.14 149.78 143.91 150.17 C 144.68 150.57 145.62 150.26 146.01 149.49 L 146.46 148.60 C 146.86 147.83 146.55 146.89 145.78 146.50 C 145.01 146.11 144.07 146.41 143.68 147.18 Z M 143.26 148.01 L 142.77 148.87 C 142.35 149.62 142.61 150.57 143.36 151.00 C 144.11 151.42 145.06 151.16 145.49 150.41 L 145.97 149.56 C 146.40 148.81 146.14 147.85 145.39 147.43 C 144.64 147.00 143.69 147.26 143.26 148.01 Z M 142.82 148.79 L 142.30 149.60 C 141.83 150.33 142.04 151.30 142.76 151.76 C 143.48 152.23 144.45 152.02 144.92 151.30 L 145.44 150.49 C 145.91 149.76 145.70 148.80 144.98 148.33 C 144.25 147.86 143.29 148.07 142.82 148.79 Z M 142.36 149.51 L 141.77 150.30 C 141.25 150.99 141.38 151.97 142.07 152.49 C 142.76 153.01 143.74 152.87 144.26 152.18 L 144.85 151.39 C 145.37 150.70 145.24 149.73 144.55 149.21 C 143.86 148.69 142.88 148.82 142.36 149.51 Z M 141.85 150.20 L 141.15 150.98 C 140.57 151.62 140.63 152.60 141.27 153.18 C 141.91 153.76 142.90 153.70 143.47 153.06 L 144.17 152.28 C 144.75 151.64 144.70 150.66 144.05 150.08 C 143.41 149.50 142.43 149.56 141.85 150.20 Z M 141.24 150.88 L 140.51 151.57 C 139.89 152.16 139.86 153.15 140.45 153.78 C 141.04 154.40 142.03 154.43 142.65 153.84 L 143.38 153.16 C 144.01 152.56 144.04 151.58 143.45 150.95 C 142.86 150.32 141.87 150.29 141.24 150.88 Z M 140.61 151.48 L 139.81 152.12 C 139.14 152.65 139.02 153.63 139.56 154.31 C 140.10 154.99 141.08 155.10 141.75 154.56 L 142.55 153.93 C 143.23 153.39 143.34 152.41 142.81 151.74 C 142.27 151.06 141.29 150.95 140.61 151.48 Z M 139.94 152.02 L 139.09 152.57 C 138.36 153.03 138.15 154.00 138.61 154.73 C 139.08 155.45 140.04 155.67 140.77 155.20 L 141.62 154.66 C 142.35 154.19 142.56 153.23 142.10 152.50 C 141.64 151.77 140.67 151.56 139.94 152.02 Z M 139.27 152.47 L 138.39 152.88 C 137.61 153.24 137.27 154.17 137.63 154.95 C 138.00 155.73 138.92 156.07 139.71 155.71 L 140.59 155.30 C 141.37 154.94 141.71 154.01 141.35 153.23 C 140.98 152.45 140.05 152.11 139.27 152.47 Z M 138.69 152.78 L 137.61 153.03 C 136.77 153.23 136.25 154.07 136.45 154.91 C 136.65 155.75 137.49 156.27 138.33 156.07 L 139.41 155.81 C 140.25 155.62 140.77 154.78 140.57 153.94 C 140.37 153.10 139.53 152.58 138.69 152.78 Z M 138.09 152.99 L 137.11 152.92 C 136.25 152.85 135.50 153.50 135.44 154.36 C 135.37 155.22 136.02 155.97 136.88 156.03 L 137.85 156.11 C 138.71 156.17 139.46 155.53 139.53 154.67 C 139.59 153.81 138.95 153.06 138.09 152.99 Z M 137.77 153.12 L 137.00 152.68 C 136.25 152.24 135.30 152.50 134.87 153.25 C 134.43 153.99 134.69 154.95 135.44 155.38 L 136.21 155.83 C 136.96 156.26 137.91 156.00 138.34 155.26 C 138.78 154.51 138.52 153.56 137.77 153.12 Z M 137.55 153.21 L 137.11 152.50 C 136.66 151.76 135.70 151.53 134.97 151.98 C 134.23 152.43 134.00 153.39 134.45 154.12 L 134.89 154.84 C 135.33 155.58 136.30 155.81 137.03 155.36 C 137.77 154.91 138.00 153.95 137.55 153.21 Z M 137.30 152.94 L 137.07 152.01 C 136.86 151.17 136.02 150.66 135.18 150.86 C 134.34 151.07 133.83 151.91 134.03 152.75 L 134.26 153.68 C 134.47 154.52 135.31 155.03 136.15 154.83 C 136.99 154.62 137.50 153.77 137.30 152.94 Z M 137.11 152.27 L 137.03 151.20 C 136.97 150.34 136.23 149.69 135.37 149.76 C 134.51 149.82 133.86 150.56 133.92 151.42 L 133.99 152.49 C 134.05 153.35 134.80 154.00 135.66 153.94 C 136.52 153.88 137.17 153.13 137.11 152.27 Z M 137.04 151.36 L 137.07 150.27 C 137.10 149.41 136.43 148.68 135.57 148.66 C 134.70 148.63 133.98 149.30 133.95 150.16 L 133.92 151.26 C 133.89 152.12 134.56 152.84 135.42 152.87 C 136.28 152.90 137.01 152.23 137.04 151.36 Z M 137.06 150.38 L 137.17 149.40 C 137.26 148.54 136.64 147.77 135.79 147.68 C 134.93 147.58 134.16 148.20 134.07 149.06 L 133.96 150.05 C 133.87 150.91 134.49 151.68 135.35 151.77 C 136.20 151.86 136.97 151.24 137.06 150.38 Z M 137.15 149.51 L 137.33 148.54 C 137.49 147.69 136.93 146.88 136.08 146.72 C 135.23 146.57 134.42 147.13 134.26 147.98 L 134.08 148.95 C 133.93 149.79 134.49 150.61 135.34 150.76 C 136.18 150.92 137.00 150.36 137.15 149.51 Z M 137.30 148.66 L 137.56 147.70 C 137.79 146.87 137.29 146.01 136.46 145.79 C 135.63 145.57 134.77 146.06 134.55 146.89 L 134.29 147.86 C 134.07 148.69 134.56 149.54 135.39 149.77 C 136.23 149.99 137.08 149.50 137.30 148.66 Z M 137.52 147.82 L 137.87 146.86 C 138.16 146.05 137.74 145.15 136.92 144.86 C 136.11 144.57 135.22 145.00 134.93 145.81 L 134.58 146.77 C 134.29 147.58 134.72 148.48 135.53 148.77 C 136.34 149.06 137.23 148.63 137.52 147.82 Z M 137.83 146.96 L 138.21 146.09 C 138.56 145.30 138.20 144.38 137.41 144.03 C 136.62 143.69 135.70 144.04 135.35 144.83 L 134.97 145.71 C 134.62 146.49 134.98 147.42 135.77 147.76 C 136.56 148.11 137.48 147.75 137.83 146.96 Z M 138.17 146.17 L 138.62 145.29 C 139.01 144.52 138.71 143.58 137.94 143.19 C 137.17 142.80 136.23 143.11 135.84 143.87 L 135.39 144.75 C 135.00 145.52 135.31 146.46 136.08 146.85 C 136.84 147.24 137.78 146.94 138.17 146.17 Z M 138.59 145.35 L 139.09 144.47 C 139.51 143.72 139.25 142.76 138.50 142.34 C 137.75 141.92 136.79 142.18 136.37 142.93 L 135.87 143.81 C 135.45 144.56 135.71 145.52 136.46 145.94 C 137.21 146.36 138.17 146.10 138.59 145.35 Z M 139.06 144.51 L 139.60 143.64 C 140.05 142.90 139.81 141.94 139.08 141.49 C 138.34 141.04 137.38 141.27 136.93 142.01 L 136.40 142.89 C 135.95 143.62 136.18 144.58 136.91 145.03 C 137.65 145.48 138.61 145.25 139.06 144.51 Z M 139.58 143.67 L 140.13 142.81 C 140.60 142.08 140.40 141.12 139.67 140.65 C 138.95 140.18 137.98 140.39 137.51 141.11 L 136.95 141.97 C 136.49 142.70 136.69 143.66 137.42 144.13 C 138.14 144.60 139.11 144.39 139.58 143.67 Z M 140.11 142.84 L 140.69 142.00 C 141.17 141.28 140.99 140.31 140.27 139.83 C 139.56 139.34 138.59 139.53 138.10 140.24 L 137.53 141.08 C 137.05 141.80 137.23 142.77 137.95 143.25 C 138.66 143.74 139.63 143.55 140.11 142.84 Z M 140.67 142.03 L 141.25 141.20 C 141.75 140.50 141.59 139.53 140.89 139.03 C 140.19 138.53 139.21 138.69 138.71 139.39 L 138.12 140.21 C 137.62 140.91 137.79 141.89 138.49 142.39 C 139.19 142.89 140.16 142.73 140.67 142.03 Z M 141.23 141.24 L 141.83 140.44 C 142.35 139.75 142.21 138.77 141.52 138.25 C 140.83 137.74 139.85 137.87 139.33 138.56 L 138.73 139.36 C 138.22 140.05 138.35 141.03 139.04 141.55 C 139.73 142.06 140.71 141.93 141.23 141.24 Z M 141.80 140.47 L 142.41 139.71 C 142.95 139.03 142.83 138.05 142.16 137.51 C 141.48 136.98 140.50 137.09 139.96 137.77 L 139.36 138.53 C 138.82 139.21 138.93 140.19 139.61 140.72 C 140.28 141.26 141.27 141.15 141.80 140.47 Z M 142.38 139.74 L 143.05 138.95 C 143.60 138.29 143.52 137.31 142.86 136.75 C 142.20 136.20 141.21 136.28 140.66 136.94 L 139.99 137.73 C 139.44 138.39 139.52 139.37 140.18 139.93 C 140.84 140.49 141.83 140.40 142.38 139.74 Z M 143.01 138.99 L 143.70 138.23 C 144.27 137.58 144.22 136.60 143.58 136.02 C 142.94 135.45 141.95 135.50 141.37 136.14 L 140.69 136.90 C 140.11 137.55 140.17 138.53 140.81 139.11 C 141.45 139.68 142.44 139.63 143.01 138.99 Z M 143.67 138.26 L 144.35 137.54 C 144.95 136.91 144.92 135.92 144.30 135.33 C 143.67 134.74 142.68 134.76 142.09 135.39 L 141.40 136.11 C 140.81 136.73 140.84 137.72 141.46 138.32 C 142.09 138.91 143.07 138.88 143.67 138.26 Z M 144.32 137.57 L 145.01 136.89 C 145.62 136.28 145.62 135.29 145.01 134.68 C 144.40 134.07 143.41 134.07 142.80 134.68 L 142.12 135.36 C 141.51 135.97 141.51 136.95 142.12 137.57 C 142.73 138.18 143.71 138.18 144.32 137.57 Z M 144.98 136.91 L 145.68 136.25 C 146.31 135.65 146.33 134.67 145.74 134.04 C 145.15 133.41 144.16 133.39 143.53 133.98 L 142.83 134.65 C 142.20 135.24 142.18 136.23 142.77 136.85 C 143.36 137.48 144.35 137.51 144.98 136.91 Z M 145.63 136.29 L 146.37 135.66 C 147.02 135.09 147.09 134.11 146.53 133.46 C 145.97 132.80 144.98 132.73 144.33 133.29 L 143.59 133.93 C 142.94 134.49 142.86 135.48 143.43 136.13 C 143.99 136.79 144.98 136.86 145.63 136.29 Z M 146.27 135.74 L 147.06 135.16 C 147.76 134.65 147.91 133.67 147.40 132.98 C 146.89 132.28 145.92 132.13 145.22 132.64 L 144.43 133.21 C 143.73 133.72 143.58 134.70 144.09 135.40 C 144.59 136.09 145.57 136.24 146.27 135.74 Z M 146.92 135.25 L 147.80 134.74 C 148.55 134.32 148.81 133.36 148.38 132.61 C 147.95 131.87 147.00 131.61 146.25 132.04 L 145.36 132.54 C 144.62 132.97 144.36 133.93 144.79 134.67 C 145.21 135.42 146.17 135.68 146.92 135.25 Z M 147.63 134.83 L 148.61 134.41 C 149.41 134.08 149.78 133.16 149.44 132.37 C 149.11 131.57 148.19 131.20 147.40 131.54 L 146.42 131.95 C 145.62 132.29 145.25 133.20 145.59 134.00 C 145.92 134.79 146.84 135.16 147.63 134.83 Z M 148.44 134.48 L 149.48 134.17 C 150.31 133.93 150.79 133.07 150.55 132.24 C 150.31 131.41 149.44 130.93 148.61 131.17 L 147.57 131.48 C 146.74 131.72 146.27 132.58 146.51 133.41 C 146.75 134.24 147.61 134.72 148.44 134.48 Z M 149.29 134.22 L 150.31 134.06 C 151.16 133.93 151.75 133.13 151.61 132.28 C 151.48 131.43 150.69 130.84 149.83 130.97 L 148.81 131.13 C 147.96 131.26 147.37 132.06 147.50 132.91 C 147.64 133.76 148.43 134.35 149.29 134.22 Z M 150.03 134.08 L 150.94 134.10 C 151.80 134.13 152.52 133.45 152.55 132.59 C 152.57 131.73 151.89 131.01 151.03 130.98 L 150.12 130.95 C 149.26 130.93 148.54 131.61 148.51 132.47 C 148.49 133.33 149.16 134.05 150.03 134.08 Z M 150.42 134.00 L 151.25 134.32 C 152.06 134.64 152.96 134.24 153.27 133.43 C 153.59 132.63 153.19 131.73 152.39 131.41 L 151.56 131.09 C 150.75 130.77 149.85 131.17 149.53 131.97 C 149.22 132.78 149.62 133.68 150.42 134.00 Z M 150.61 133.86 L 151.20 134.58 C 151.75 135.24 152.73 135.34 153.40 134.80 C 154.07 134.25 154.16 133.27 153.62 132.60 L 153.03 131.88 C 152.48 131.21 151.50 131.11 150.83 131.66 C 150.16 132.21 150.07 133.19 150.61 133.86 Z M 150.93 134.07 L 151.24 135.03 C 151.51 135.85 152.39 136.30 153.21 136.03 C 154.03 135.76 154.48 134.88 154.21 134.06 L 153.89 133.10 C 153.63 132.28 152.74 131.84 151.92 132.11 C 151.10 132.37 150.66 133.26 150.93 134.07 Z M 151.18 134.78 L 151.33 135.77 C 151.45 136.62 152.25 137.21 153.10 137.09 C 153.95 136.96 154.54 136.17 154.42 135.32 L 154.27 134.32 C 154.14 133.47 153.35 132.88 152.50 133.00 C 151.64 133.13 151.05 133.92 151.18 134.78 Z M 151.31 135.61 L 151.35 136.58 C 151.39 137.44 152.12 138.11 152.98 138.07 C 153.84 138.03 154.51 137.31 154.47 136.44 L 154.43 135.48 C 154.39 134.61 153.67 133.95 152.80 133.98 C 151.94 134.02 151.28 134.75 151.31 135.61 Z M 151.36 136.40 L 151.29 137.40 C 151.22 138.26 151.87 139.01 152.73 139.07 C 153.59 139.13 154.34 138.48 154.40 137.62 L 154.47 136.62 C 154.53 135.76 153.88 135.02 153.02 134.95 C 152.16 134.89 151.42 135.54 151.36 136.40 Z M 151.31 137.22 L 151.11 138.23 C 150.95 139.08 151.50 139.90 152.35 140.06 C 153.20 140.23 154.01 139.67 154.18 138.83 L 154.38 137.81 C 154.54 136.96 153.99 136.15 153.14 135.98 C 152.29 135.82 151.47 136.37 151.31 137.22 Z M 151.15 138.07 L 150.87 138.98 C 150.62 139.80 151.08 140.68 151.91 140.93 C 152.73 141.18 153.60 140.72 153.86 139.90 L 154.14 138.99 C 154.39 138.17 153.93 137.29 153.11 137.04 C 152.28 136.79 151.41 137.25 151.15 138.07 Z M 150.92 138.86 L 150.55 139.78 C 150.23 140.58 150.62 141.49 151.42 141.81 C 152.22 142.13 153.13 141.74 153.45 140.94 L 153.82 140.02 C 154.14 139.22 153.75 138.31 152.95 137.99 C 152.15 137.67 151.24 138.06 150.92 138.86 Z M 150.59 139.69 L 150.14 140.61 C 149.77 141.39 150.10 142.32 150.88 142.70 C 151.65 143.07 152.59 142.74 152.96 141.96 L 153.40 141.04 C 153.78 140.26 153.45 139.33 152.67 138.96 C 151.90 138.58 150.96 138.91 150.59 139.69 Z M 150.19 140.53 L 149.68 141.44 C 149.26 142.19 149.54 143.14 150.29 143.56 C 151.04 143.98 151.99 143.71 152.41 142.95 L 152.92 142.05 C 153.34 141.29 153.06 140.34 152.31 139.92 C 151.55 139.50 150.60 139.78 150.19 140.53 Z M 149.72 141.37 L 149.19 142.23 C 148.74 142.96 148.96 143.92 149.69 144.38 C 150.42 144.83 151.39 144.61 151.84 143.88 L 152.37 143.02 C 152.83 142.29 152.60 141.33 151.87 140.87 C 151.14 140.42 150.18 140.64 149.72 141.37 Z M 149.23 142.17 L 148.66 143.00 C 148.17 143.71 148.36 144.68 149.07 145.17 C 149.78 145.65 150.75 145.47 151.24 144.76 L 151.80 143.93 C 152.29 143.22 152.11 142.25 151.40 141.76 C 150.69 141.28 149.72 141.46 149.23 142.17 Z M 148.70 142.95 L 148.10 143.75 C 147.58 144.44 147.73 145.42 148.42 145.93 C 149.11 146.45 150.09 146.30 150.60 145.61 L 151.20 144.81 C 151.72 144.12 151.57 143.14 150.88 142.63 C 150.19 142.11 149.21 142.25 148.70 142.95 Z M 148.13 143.70 L 147.51 144.48 C 146.97 145.15 147.08 146.13 147.76 146.67 C 148.43 147.21 149.41 147.10 149.95 146.43 L 150.57 145.66 C 151.11 144.98 151.00 144.00 150.33 143.46 C 149.66 142.92 148.67 143.03 148.13 143.70 Z M 147.55 144.44 L 146.90 145.19 C 146.34 145.85 146.41 146.83 147.07 147.39 C 147.72 147.95 148.71 147.88 149.27 147.22 L 149.92 146.47 C 150.48 145.82 150.40 144.83 149.75 144.27 C 149.09 143.71 148.11 143.78 147.55 144.44 Z M 146.94 145.15 L 146.27 145.87 C 145.68 146.51 145.72 147.49 146.35 148.08 C 146.98 148.67 147.97 148.63 148.56 148.00 L 149.23 147.27 C 149.82 146.64 149.78 145.65 149.15 145.06 C 148.51 144.48 147.53 144.51 146.94 145.15 Z M 146.32 145.82 L 145.61 146.52 C 144.99 147.13 144.99 148.11 145.59 148.73 C 146.20 149.34 147.18 149.35 147.80 148.75 L 148.51 148.05 C 149.12 147.44 149.13 146.45 148.53 145.84 C 147.92 145.22 146.93 145.22 146.32 145.82 Z M 145.67 146.47 L 144.91 147.14 C 144.26 147.71 144.21 148.70 144.78 149.34 C 145.35 149.99 146.34 150.05 146.98 149.47 L 147.74 148.80 C 148.38 148.23 148.44 147.24 147.87 146.60 C 147.30 145.95 146.31 145.89 145.67 146.47 Z M 144.98 147.08 L 144.14 147.74 C 143.47 148.28 143.35 149.26 143.89 149.94 C 144.42 150.61 145.41 150.73 146.08 150.19 L 146.92 149.53 C 147.59 148.99 147.71 148.01 147.17 147.34 C 146.63 146.66 145.65 146.55 144.98 147.08 Z M 144.23 147.68 L 143.35 148.28 C 142.64 148.76 142.46 149.73 142.94 150.45 C 143.43 151.16 144.40 151.34 145.11 150.86 L 145.99 150.26 C 146.70 149.77 146.89 148.80 146.40 148.09 C 145.92 147.38 144.94 147.19 144.23 147.68 Z M 143.49 148.19 L 142.61 148.67 C 141.85 149.08 141.56 150.03 141.97 150.79 C 142.38 151.54 143.33 151.83 144.09 151.42 L 144.97 150.94 C 145.73 150.53 146.01 149.58 145.61 148.83 C 145.20 148.07 144.25 147.78 143.49 148.19 Z M 142.83 148.57 L 141.98 148.87 C 141.16 149.16 140.73 150.05 141.02 150.86 C 141.31 151.67 142.20 152.10 143.01 151.82 L 143.86 151.52 C 144.68 151.23 145.11 150.34 144.82 149.53 C 144.54 148.71 143.64 148.29 142.83 148.57 Z M 142.43 148.78 L 141.41 148.83 C 140.55 148.87 139.88 149.59 139.92 150.46 C 139.96 151.32 140.69 151.98 141.55 151.95 L 142.56 151.90 C 143.42 151.87 144.09 151.14 144.05 150.28 C 144.02 149.41 143.29 148.75 142.43 148.78 Z M 142.15 148.98 L 141.29 148.57 C 140.51 148.21 139.58 148.54 139.22 149.32 C 138.85 150.10 139.18 151.03 139.96 151.40 L 140.82 151.80 C 141.60 152.17 142.53 151.83 142.89 151.05 C 143.26 150.27 142.93 149.34 142.15 148.98 Z M 141.98 149.20 L 141.50 148.37 C 141.06 147.62 140.11 147.37 139.36 147.80 C 138.62 148.23 138.36 149.19 138.79 149.94 L 139.28 150.77 C 139.71 151.52 140.66 151.77 141.41 151.34 C 142.16 150.90 142.41 149.95 141.98 149.20 Z M 141.70 149.04 L 141.64 148.23 C 141.58 147.37 140.84 146.72 139.98 146.79 C 139.12 146.85 138.47 147.59 138.53 148.45 L 138.59 149.26 C 138.65 150.12 139.40 150.77 140.26 150.71 C 141.12 150.65 141.76 149.90 141.70 149.04 Z M 141.63 148.60 L 141.78 147.69 C 141.92 146.84 141.35 146.04 140.50 145.89 C 139.65 145.75 138.85 146.32 138.70 147.17 L 138.55 148.08 C 138.40 148.93 138.98 149.74 139.83 149.88 C 140.68 150.03 141.48 149.45 141.63 148.60 Z M 141.72 147.93 L 142.06 146.94 C 142.33 146.13 141.90 145.24 141.08 144.96 C 140.26 144.68 139.38 145.12 139.10 145.94 L 138.76 146.93 C 138.49 147.75 138.92 148.63 139.74 148.91 C 140.56 149.19 141.44 148.75 141.72 147.93 Z M 141.98 147.12 L 142.48 146.09 C 142.86 145.32 142.53 144.38 141.76 144.01 C 140.98 143.63 140.05 143.96 139.67 144.73 L 139.17 145.76 C 138.80 146.54 139.12 147.47 139.90 147.85 C 140.67 148.22 141.61 147.90 141.98 147.12 Z M 142.40 146.23 L 142.97 145.32 C 143.42 144.59 143.19 143.62 142.46 143.17 C 141.72 142.72 140.76 142.95 140.31 143.68 L 139.75 144.59 C 139.29 145.33 139.52 146.29 140.26 146.74 C 140.99 147.19 141.95 146.97 142.40 146.23 Z M 142.90 145.43 L 143.50 144.61 C 144.01 143.91 143.86 142.93 143.17 142.42 C 142.47 141.91 141.50 142.06 140.98 142.75 L 140.38 143.57 C 139.87 144.27 140.02 145.25 140.71 145.76 C 141.41 146.27 142.38 146.12 142.90 145.43 Z M 143.43 144.69 L 144.09 143.91 C 144.65 143.25 144.57 142.26 143.91 141.71 C 143.25 141.15 142.27 141.23 141.71 141.89 L 141.05 142.67 C 140.49 143.33 140.58 144.32 141.23 144.87 C 141.89 145.43 142.88 145.35 143.43 144.69 Z M 144.03 143.98 L 144.73 143.25 C 145.32 142.62 145.30 141.63 144.68 141.04 C 144.05 140.44 143.06 140.47 142.47 141.09 L 141.77 141.82 C 141.18 142.45 141.20 143.43 141.82 144.03 C 142.45 144.62 143.44 144.60 144.03 143.98 Z M 144.67 143.31 L 145.38 142.64 C 146.01 142.05 146.04 141.06 145.45 140.43 C 144.86 139.80 143.87 139.77 143.24 140.36 L 142.53 141.03 C 141.90 141.62 141.87 142.61 142.46 143.24 C 143.05 143.87 144.04 143.90 144.67 143.31 Z M 145.31 142.70 L 146.11 142.03 C 146.77 141.48 146.86 140.50 146.31 139.84 C 145.76 139.17 144.78 139.08 144.11 139.63 L 143.31 140.30 C 142.65 140.85 142.56 141.84 143.11 142.50 C 143.66 143.16 144.65 143.25 145.31 142.70 Z M 146.02 142.10 L 146.90 141.47 C 147.60 140.97 147.76 139.99 147.26 139.29 C 146.75 138.59 145.78 138.43 145.08 138.94 L 144.20 139.57 C 143.50 140.07 143.34 141.05 143.84 141.75 C 144.35 142.45 145.32 142.61 146.02 142.10 Z M 146.79 141.54 L 147.65 141.03 C 148.39 140.59 148.63 139.63 148.18 138.89 C 147.74 138.15 146.78 137.91 146.04 138.35 L 145.19 138.87 C 144.45 139.31 144.21 140.27 144.65 141.01 C 145.10 141.75 146.06 141.99 146.79 141.54 Z M 147.53 141.10 L 148.35 140.69 C 149.13 140.32 149.45 139.38 149.08 138.61 C 148.70 137.83 147.76 137.51 146.99 137.88 L 146.16 138.29 C 145.39 138.66 145.06 139.60 145.44 140.37 C 145.82 141.15 146.75 141.47 147.53 141.10 Z M 148.20 140.76 L 149.15 140.41 C 149.96 140.12 150.38 139.22 150.08 138.41 C 149.79 137.60 148.89 137.19 148.08 137.48 L 147.14 137.82 C 146.33 138.11 145.91 139.01 146.20 139.82 C 146.50 140.63 147.39 141.05 148.20 140.76 Z M 148.86 140.49 L 149.89 140.33 C 150.74 140.19 151.32 139.39 151.19 138.54 C 151.05 137.69 150.26 137.11 149.40 137.24 L 148.37 137.40 C 147.52 137.54 146.94 138.34 147.07 139.19 C 147.21 140.04 148.00 140.62 148.86 140.49 Z M 149.22 140.29 L 150.07 140.53 C 150.90 140.76 151.77 140.28 152.00 139.45 C 152.23 138.62 151.75 137.76 150.92 137.52 L 150.07 137.28 C 149.24 137.05 148.38 137.53 148.14 138.36 C 147.91 139.19 148.39 140.05 149.22 140.29 Z M 149.28 140.00 L 149.81 140.66 C 150.35 141.33 151.33 141.44 152.00 140.90 C 152.67 140.35 152.78 139.37 152.24 138.70 L 151.71 138.05 C 151.17 137.37 150.19 137.27 149.52 137.81 C 148.85 138.35 148.74 139.33 149.28 140.00 Z M 149.53 140.13 L 149.80 141.03 C 150.05 141.85 150.92 142.32 151.75 142.07 C 152.57 141.82 153.04 140.95 152.79 140.12 L 152.52 139.23 C 152.27 138.40 151.40 137.93 150.57 138.18 C 149.75 138.43 149.28 139.30 149.53 140.13 Z M 149.74 140.72 L 149.84 141.78 C 149.92 142.64 150.68 143.27 151.54 143.19 C 152.40 143.11 153.03 142.34 152.95 141.49 L 152.85 140.43 C 152.77 139.57 152.01 138.94 151.15 139.02 C 150.29 139.10 149.66 139.86 149.74 140.72 Z M 149.83 141.55 L 149.78 142.63 C 149.73 143.49 150.39 144.23 151.25 144.28 C 152.11 144.32 152.85 143.66 152.89 142.80 L 152.95 141.72 C 153.00 140.85 152.34 140.12 151.48 140.07 C 150.62 140.03 149.88 140.69 149.83 141.55 Z M 149.81 142.40 L 149.59 143.45 C 149.41 144.29 149.96 145.12 150.80 145.29 C 151.64 145.47 152.47 144.93 152.65 144.08 L 152.86 143.03 C 153.04 142.19 152.50 141.36 151.65 141.19 C 150.81 141.01 149.98 141.55 149.81 142.40 Z M 149.66 143.21 L 149.30 144.15 C 149.00 144.96 149.41 145.86 150.21 146.16 C 151.02 146.47 151.92 146.06 152.23 145.25 L 152.58 144.31 C 152.88 143.51 152.47 142.61 151.67 142.30 C 150.86 142.00 149.96 142.41 149.66 143.21 Z M 149.38 143.97 L 148.93 144.83 C 148.53 145.59 148.83 146.54 149.59 146.94 C 150.35 147.34 151.30 147.05 151.70 146.28 L 152.15 145.43 C 152.55 144.67 152.25 143.72 151.49 143.32 C 150.73 142.92 149.78 143.21 149.38 143.97 Z M 148.99 144.72 L 148.48 145.54 C 148.02 146.26 148.24 147.23 148.97 147.69 C 149.70 148.15 150.67 147.93 151.13 147.20 L 151.64 146.39 C 152.10 145.66 151.88 144.69 151.15 144.23 C 150.42 143.77 149.45 143.99 148.99 144.72 Z M 148.53 145.47 L 147.96 146.27 C 147.47 146.98 147.64 147.95 148.35 148.45 C 149.05 148.94 150.03 148.77 150.52 148.06 L 151.08 147.26 C 151.58 146.56 151.41 145.58 150.70 145.09 C 149.99 144.59 149.02 144.76 148.53 145.47 Z M 148.02 146.20 L 147.40 146.98 C 146.87 147.66 146.98 148.64 147.66 149.17 C 148.34 149.71 149.32 149.59 149.85 148.92 L 150.47 148.13 C 151.00 147.46 150.89 146.48 150.21 145.94 C 149.53 145.41 148.55 145.52 148.02 146.20 Z M 147.47 146.90 L 146.78 147.67 C 146.20 148.31 146.25 149.30 146.89 149.87 C 147.53 150.45 148.52 150.40 149.10 149.76 L 149.79 148.99 C 150.36 148.35 150.31 147.37 149.67 146.79 C 149.03 146.21 148.04 146.26 147.47 146.90 Z M 146.86 147.58 L 146.07 148.33 C 145.44 148.92 145.41 149.91 146.01 150.54 C 146.60 151.16 147.59 151.19 148.21 150.60 L 149.01 149.85 C 149.63 149.26 149.66 148.27 149.07 147.64 C 148.48 147.02 147.49 146.99 146.86 147.58 Z M 146.26 148.17 L 145.41 148.75 C 144.70 149.24 144.51 150.21 145.00 150.92 C 145.48 151.63 146.45 151.82 147.17 151.34 L 148.02 150.76 C 148.73 150.27 148.92 149.30 148.43 148.59 C 147.95 147.88 146.98 147.69 146.26 148.17 Z M 145.89 148.53 L 145.03 148.76 C 144.19 148.98 143.69 149.84 143.92 150.67 C 144.14 151.50 144.99 152.00 145.82 151.78 L 146.69 151.55 C 147.52 151.33 148.02 150.48 147.80 149.64 C 147.58 148.81 146.72 148.31 145.89 148.53 Z M 145.90 148.78 L 145.12 148.54 C 144.30 148.28 143.42 148.73 143.16 149.55 C 142.90 150.37 143.35 151.25 144.18 151.51 L 144.95 151.76 C 145.77 152.02 146.65 151.57 146.91 150.75 C 147.17 149.92 146.72 149.05 145.90 148.78 Z M 145.75 148.92 L 145.11 148.28 C 144.50 147.67 143.52 147.67 142.91 148.28 C 142.30 148.89 142.29 149.88 142.90 150.49 L 143.54 151.13 C 144.15 151.74 145.14 151.74 145.75 151.13 C 146.36 150.52 146.36 149.53 145.75 148.92 Z M 145.41 148.70 L 144.96 147.77 C 144.59 146.99 143.65 146.67 142.88 147.05 C 142.10 147.42 141.78 148.35 142.15 149.13 L 142.60 150.06 C 142.98 150.84 143.91 151.16 144.69 150.79 C 145.46 150.41 145.79 149.48 145.41 148.70 Z M 145.10 148.22 L 144.94 147.11 C 144.81 146.26 144.01 145.67 143.16 145.79 C 142.31 145.92 141.72 146.72 141.85 147.57 L 142.01 148.68 C 142.14 149.53 142.94 150.12 143.79 149.99 C 144.64 149.87 145.23 149.07 145.10 148.22 Z M 144.94 147.55 L 145.07 146.57 C 145.19 145.72 144.59 144.93 143.74 144.81 C 142.88 144.70 142.09 145.30 141.98 146.15 L 141.84 147.13 C 141.73 147.98 142.33 148.77 143.18 148.89 C 144.03 149.00 144.82 148.40 144.94 147.55 Z M 144.99 146.89 L 145.33 145.94 C 145.63 145.13 145.21 144.24 144.40 143.95 C 143.58 143.65 142.69 144.07 142.40 144.89 L 142.06 145.83 C 141.76 146.64 142.18 147.54 143.00 147.83 C 143.81 148.12 144.70 147.70 144.99 146.89 Z M 145.23 146.17 L 145.73 145.27 C 146.15 144.52 145.88 143.57 145.13 143.15 C 144.37 142.73 143.42 143.00 143.00 143.76 L 142.50 144.65 C 142.08 145.41 142.35 146.36 143.11 146.78 C 143.86 147.20 144.81 146.93 145.23 146.17 Z M 145.61 145.46 L 146.22 144.65 C 146.74 143.96 146.61 142.98 145.92 142.46 C 145.23 141.94 144.25 142.08 143.73 142.76 L 143.12 143.57 C 142.60 144.26 142.74 145.24 143.42 145.76 C 144.11 146.28 145.09 146.14 145.61 145.46 Z M 146.07 144.82 L 146.81 144.10 C 147.43 143.49 147.44 142.50 146.83 141.89 C 146.23 141.27 145.24 141.26 144.62 141.87 L 143.89 142.59 C 143.27 143.20 143.26 144.19 143.86 144.80 C 144.47 145.42 145.46 145.43 146.07 144.82 Z M 146.55 144.31 L 147.52 143.70 C 148.25 143.24 148.47 142.28 148.01 141.55 C 147.56 140.81 146.59 140.59 145.86 141.05 L 144.89 141.66 C 144.16 142.12 143.94 143.08 144.39 143.81 C 144.85 144.54 145.81 144.76 146.55 144.31 Z M 146.95 143.91 L 147.85 143.76 C 148.70 143.62 149.27 142.82 149.13 141.97 C 148.99 141.12 148.18 140.54 147.33 140.68 L 146.43 140.83 C 145.58 140.98 145.01 141.78 145.15 142.63 C 145.29 143.48 146.10 144.06 146.95 143.91 Z M 146.83 143.59 L 147.55 143.99 C 148.31 144.41 149.26 144.14 149.68 143.38 C 150.09 142.63 149.82 141.68 149.07 141.26 L 148.35 140.86 C 147.59 140.44 146.64 140.71 146.22 141.47 C 145.80 142.22 146.08 143.17 146.83 143.59 Z M 146.94 143.37 L 147.30 144.03 C 147.71 144.79 148.66 145.07 149.41 144.66 C 150.17 144.25 150.45 143.30 150.04 142.54 L 149.68 141.88 C 149.27 141.12 148.32 140.84 147.57 141.25 C 146.81 141.66 146.53 142.61 146.94 143.37 Z M 147.15 143.65 L 147.37 144.54 C 147.57 145.38 148.41 145.90 149.25 145.69 C 150.09 145.49 150.60 144.65 150.40 143.81 L 150.19 142.92 C 149.99 142.08 149.14 141.57 148.30 141.77 C 147.47 141.97 146.95 142.81 147.15 143.65 Z M 147.33 144.30 L 147.41 145.35 C 147.48 146.21 148.23 146.85 149.09 146.78 C 149.95 146.71 150.59 145.96 150.52 145.10 L 150.44 144.05 C 150.37 143.19 149.62 142.55 148.76 142.62 C 147.90 142.69 147.26 143.44 147.33 144.30 Z M 147.41 145.17 L 147.37 146.30 C 147.33 147.17 148.01 147.89 148.87 147.92 C 149.73 147.95 150.46 147.28 150.49 146.42 L 150.53 145.28 C 150.56 144.42 149.89 143.70 149.03 143.67 C 148.16 143.64 147.44 144.31 147.41 145.17 Z M 147.38 146.14 L 147.21 147.30 C 147.09 148.15 147.68 148.95 148.53 149.07 C 149.38 149.20 150.18 148.61 150.30 147.75 L 150.47 146.59 C 150.60 145.73 150.01 144.94 149.15 144.82 C 148.30 144.69 147.51 145.28 147.38 146.14 Z M 147.25 147.12 L 146.93 148.31 C 146.71 149.14 147.20 150.00 148.03 150.22 C 148.87 150.44 149.72 149.95 149.95 149.12 L 150.26 147.93 C 150.49 147.10 149.99 146.24 149.16 146.02 C 148.33 145.80 147.47 146.29 147.25 147.12 Z M 147.00 148.11 L 146.58 149.13 C 146.25 149.93 146.63 150.84 147.42 151.17 C 148.22 151.50 149.13 151.12 149.46 150.32 L 149.88 149.31 C 150.21 148.51 149.83 147.60 149.04 147.27 C 148.24 146.94 147.33 147.32 147.00 148.11 Z M 146.70 148.90 L 146.21 149.67 C 145.76 150.40 145.98 151.36 146.71 151.82 C 147.44 152.28 148.40 152.05 148.86 151.32 L 149.34 150.56 C 149.80 149.82 149.58 148.86 148.85 148.40 C 148.12 147.95 147.15 148.17 146.70 148.90 Z M 146.51 149.32 L 145.99 149.77 C 145.35 150.34 145.28 151.33 145.85 151.98 C 146.42 152.62 147.41 152.69 148.05 152.12 L 148.57 151.67 C 149.22 151.10 149.28 150.11 148.71 149.47 C 148.14 148.82 147.16 148.75 146.51 149.32 Z M 147.20 149.39 L 146.37 149.30 C 145.51 149.21 144.74 149.82 144.65 150.68 C 144.55 151.54 145.17 152.31 146.02 152.41 L 146.85 152.50 C 147.71 152.59 148.48 151.98 148.58 151.12 C 148.67 150.26 148.05 149.49 147.20 149.39 Z M 147.53 150.04 L 147.01 149.18 C 146.56 148.44 145.60 148.21 144.86 148.65 C 144.13 149.10 143.89 150.06 144.34 150.80 L 144.86 151.66 C 145.31 152.40 146.27 152.64 147.01 152.19 C 147.74 151.74 147.98 150.78 147.53 150.04 Z M 147.23 149.93 L 147.19 148.95 C 147.16 148.08 146.44 147.41 145.57 147.45 C 144.71 147.48 144.04 148.20 144.07 149.07 L 144.11 150.05 C 144.14 150.91 144.87 151.58 145.73 151.55 C 146.59 151.51 147.26 150.79 147.23 149.93 Z M 147.13 149.44 L 147.40 148.51 C 147.64 147.68 147.17 146.81 146.34 146.57 C 145.51 146.33 144.64 146.81 144.40 147.64 L 144.13 148.57 C 143.90 149.40 144.37 150.27 145.20 150.51 C 146.03 150.75 146.89 150.27 147.13 149.44 Z M 147.31 148.75 L 147.77 147.80 C 148.14 147.03 147.81 146.09 147.03 145.72 C 146.26 145.35 145.32 145.68 144.95 146.45 L 144.50 147.40 C 144.12 148.17 144.45 149.11 145.23 149.48 C 146.01 149.85 146.94 149.53 147.31 148.75 Z M 147.70 147.92 L 148.23 147.02 C 148.67 146.28 148.42 145.32 147.67 144.89 C 146.93 144.45 145.97 144.70 145.54 145.44 L 145.01 146.34 C 144.57 147.08 144.82 148.04 145.57 148.48 C 146.31 148.91 147.27 148.66 147.70 147.92 Z M 148.17 147.11 L 148.73 146.29 C 149.22 145.58 149.03 144.61 148.32 144.12 C 147.61 143.64 146.64 143.82 146.15 144.53 L 145.59 145.35 C 145.11 146.07 145.29 147.04 146.00 147.52 C 146.72 148.01 147.69 147.82 148.17 147.11 Z M 148.63 146.43 L 149.27 145.68 C 149.83 145.02 149.75 144.04 149.10 143.48 C 148.44 142.92 147.46 142.99 146.90 143.65 L 146.25 144.40 C 145.69 145.05 145.77 146.04 146.42 146.60 C 147.08 147.16 148.06 147.08 148.63 146.43 Z M 149.11 145.84 L 149.88 145.17 C 150.53 144.61 150.60 143.62 150.03 142.97 C 149.47 142.32 148.48 142.25 147.83 142.81 L 147.06 143.48 C 146.41 144.05 146.34 145.04 146.90 145.69 C 147.47 146.34 148.46 146.41 149.11 145.84 Z M 149.67 145.33 L 150.59 144.76 C 151.33 144.32 151.56 143.36 151.12 142.62 C 150.67 141.88 149.71 141.65 148.97 142.10 L 148.05 142.66 C 147.31 143.11 147.07 144.07 147.52 144.80 C 147.97 145.54 148.93 145.78 149.67 145.33 Z M 150.31 144.90 L 151.27 144.56 C 152.09 144.27 152.51 143.38 152.22 142.56 C 151.93 141.75 151.04 141.33 150.23 141.62 L 149.26 141.96 C 148.45 142.25 148.02 143.14 148.31 143.95 C 148.60 144.77 149.49 145.19 150.31 144.90 Z M 150.78 144.65 L 151.66 144.63 C 152.52 144.62 153.21 143.91 153.20 143.04 C 153.18 142.18 152.47 141.50 151.61 141.51 L 150.72 141.53 C 149.86 141.54 149.17 142.25 149.19 143.11 C 149.20 143.97 149.91 144.66 150.78 144.65 Z M 150.88 144.44 L 151.54 144.80 C 152.29 145.22 153.24 144.95 153.66 144.19 C 154.08 143.44 153.80 142.49 153.05 142.07 L 152.39 141.71 C 151.64 141.29 150.69 141.56 150.27 142.31 C 149.85 143.07 150.12 144.02 150.88 144.44 Z M 151.01 144.32 L 151.50 145.03 C 151.99 145.74 152.96 145.92 153.67 145.43 C 154.38 144.94 154.56 143.97 154.07 143.26 L 153.58 142.55 C 153.09 141.84 152.12 141.66 151.41 142.15 C 150.70 142.64 150.52 143.61 151.01 144.32 Z M 151.32 144.68 L 151.69 145.71 C 151.99 146.52 152.88 146.93 153.69 146.64 C 154.50 146.34 154.92 145.45 154.62 144.64 L 154.25 143.61 C 153.95 142.80 153.06 142.38 152.25 142.68 C 151.44 142.98 151.02 143.87 151.32 144.68 Z M 151.63 145.52 L 151.91 146.70 C 152.10 147.54 152.94 148.06 153.78 147.87 C 154.62 147.68 155.14 146.84 154.95 146.00 L 154.68 144.82 C 154.49 143.98 153.65 143.46 152.81 143.65 C 151.97 143.84 151.44 144.68 151.63 145.52 Z M 151.89 146.61 L 152.05 147.55 C 152.20 148.40 153.00 148.97 153.85 148.82 C 154.70 148.68 155.27 147.87 155.13 147.02 L 154.97 146.08 C 154.82 145.23 154.01 144.66 153.16 144.81 C 152.31 144.96 151.74 145.76 151.89 146.61 Z M 152.04 147.50 L 152.18 148.50 C 152.30 149.35 153.09 149.95 153.95 149.83 C 154.80 149.71 155.39 148.92 155.27 148.06 L 155.13 147.07 C 155.01 146.21 154.22 145.62 153.37 145.74 C 152.52 145.86 151.92 146.65 152.04 147.50 Z M 152.18 148.46 L 152.30 149.49 C 152.40 150.35 153.17 150.96 154.03 150.86 C 154.88 150.76 155.50 149.99 155.40 149.13 L 155.28 148.10 C 155.18 147.24 154.40 146.63 153.55 146.73 C 152.69 146.83 152.08 147.60 152.18 148.46 Z M 152.29 149.46 L 152.39 150.49 C 152.47 151.35 153.24 151.98 154.09 151.90 C 154.95 151.81 155.58 151.05 155.50 150.19 L 155.40 149.16 C 155.32 148.30 154.56 147.67 153.70 147.76 C 152.84 147.84 152.21 148.60 152.29 149.46 Z M 152.39 150.46 L 152.47 151.47 C 152.53 152.33 153.28 152.97 154.14 152.90 C 155.00 152.84 155.65 152.09 155.58 151.23 L 155.50 150.22 C 155.44 149.36 154.69 148.72 153.83 148.79 C 152.97 148.85 152.32 149.60 152.39 150.46 Z M 152.47 151.44 L 152.53 152.49 C 152.58 153.35 153.32 154.00 154.18 153.95 C 155.04 153.90 155.69 153.16 155.64 152.30 L 155.58 151.25 C 155.53 150.39 154.79 149.74 153.93 149.79 C 153.07 149.84 152.41 150.58 152.47 151.44 Z M 152.53 152.46 L 152.57 153.49 C 152.60 154.36 153.33 155.03 154.19 154.99 C 155.05 154.96 155.72 154.23 155.69 153.37 L 155.65 152.33 C 155.61 151.47 154.88 150.80 154.02 150.83 C 153.16 150.87 152.49 151.59 152.53 152.46 Z M 152.57 153.47 L 152.59 154.45 C 152.61 155.31 153.32 156.00 154.18 155.98 C 155.05 155.96 155.73 155.24 155.71 154.38 L 155.69 153.40 C 155.67 152.54 154.95 151.85 154.09 151.87 C 153.23 151.89 152.55 152.60 152.57 153.47 Z M 152.59 154.43 L 152.60 155.39 C 152.60 156.25 153.31 156.94 154.17 156.94 C 155.03 156.93 155.73 156.22 155.72 155.36 L 155.71 154.40 C 155.70 153.54 155.00 152.85 154.13 152.85 C 153.27 152.86 152.58 153.57 152.59 154.43 Z M 152.60 155.38 L 152.60 156.34 C 152.60 157.20 153.30 157.90 154.16 157.90 C 155.02 157.89 155.72 157.19 155.72 156.33 L 155.72 155.37 C 155.72 154.51 155.02 153.81 154.16 153.81 C 153.29 153.81 152.60 154.51 152.60 155.38 Z M 152.60 156.33 L 152.60 157.29 C 152.60 158.15 153.30 158.85 154.16 158.85 C 155.02 158.85 155.72 158.15 155.72 157.29 L 155.72 156.33 C 155.72 155.47 155.02 154.77 154.16 154.77 C 153.30 154.77 152.60 155.47 152.60 156.33 Z M 152.60 157.28 L 152.59 158.26 C 152.59 159.12 153.29 159.82 154.15 159.83 C 155.01 159.83 155.71 159.13 155.72 158.27 L 155.72 157.29 C 155.72 156.43 155.03 155.73 154.16 155.73 C 153.30 155.72 152.60 156.42 152.60 157.28 Z M 152.59 158.25 L 152.59 159.25 C 152.58 160.11 153.27 160.82 154.13 160.83 C 154.99 160.84 155.70 160.14 155.71 159.28 L 155.72 158.28 C 155.72 157.42 155.03 156.71 154.17 156.70 C 153.31 156.70 152.60 157.39 152.59 158.25 Z M 152.59 159.24 L 152.57 160.26 C 152.55 161.12 153.24 161.83 154.10 161.85 C 154.96 161.86 155.67 161.18 155.69 160.32 L 155.71 159.29 C 155.72 158.43 155.04 157.72 154.17 157.71 C 153.31 157.69 152.60 158.38 152.59 159.24 Z M 152.57 160.24 L 152.54 161.28 C 152.51 162.14 153.19 162.86 154.05 162.89 C 154.91 162.91 155.63 162.23 155.66 161.37 L 155.69 160.33 C 155.71 159.47 155.04 158.75 154.17 158.73 C 153.31 158.70 152.59 159.38 152.57 160.24 Z M 152.54 161.26 L 152.49 162.24 C 152.46 163.10 153.12 163.83 153.99 163.87 C 154.85 163.91 155.58 163.24 155.61 162.38 L 155.66 161.39 C 155.69 160.53 155.03 159.80 154.17 159.77 C 153.30 159.73 152.58 160.39 152.54 161.26 Z M 152.50 162.21 L 152.44 163.20 C 152.39 164.06 153.04 164.80 153.90 164.85 C 154.76 164.90 155.50 164.25 155.55 163.38 L 155.61 162.40 C 155.66 161.54 155.01 160.80 154.15 160.75 C 153.29 160.70 152.55 161.35 152.50 162.21 Z M 152.44 163.17 L 152.36 164.17 C 152.30 165.03 152.94 165.78 153.80 165.84 C 154.66 165.91 155.41 165.26 155.48 164.40 L 155.55 163.41 C 155.62 162.55 154.97 161.80 154.11 161.74 C 153.25 161.67 152.50 162.31 152.44 163.17 Z M 152.37 164.14 L 152.27 165.14 C 152.19 166.00 152.82 166.76 153.68 166.84 C 154.54 166.92 155.30 166.29 155.38 165.44 L 155.47 164.43 C 155.55 163.57 154.93 162.81 154.07 162.73 C 153.21 162.65 152.45 163.28 152.37 164.14 Z M 152.27 165.11 L 152.16 166.12 C 152.06 166.98 152.67 167.75 153.53 167.85 C 154.39 167.95 155.16 167.33 155.26 166.48 L 155.38 165.47 C 155.47 164.61 154.86 163.84 154.00 163.74 C 153.15 163.64 152.37 164.25 152.27 165.11 Z M 152.16 166.09 L 152.03 167.08 C 151.91 167.93 152.51 168.72 153.37 168.83 C 154.22 168.95 155.01 168.35 155.12 167.50 L 155.26 166.51 C 155.37 165.66 154.77 164.87 153.92 164.75 C 153.06 164.64 152.28 165.24 152.16 166.09 Z M 152.03 167.05 L 151.88 168.02 C 151.75 168.87 152.33 169.67 153.19 169.80 C 154.04 169.93 154.84 169.35 154.97 168.50 L 155.12 167.53 C 155.25 166.67 154.67 165.88 153.81 165.75 C 152.96 165.61 152.16 166.20 152.03 167.05 Z M 151.89 167.99 L 151.72 168.97 C 151.57 169.82 152.14 170.63 152.99 170.77 C 153.84 170.92 154.65 170.35 154.80 169.50 L 154.96 168.52 C 155.11 167.67 154.54 166.86 153.69 166.72 C 152.84 166.57 152.03 167.14 151.89 167.99 Z M 151.72 168.95 L 151.54 169.93 C 151.38 170.78 151.94 171.59 152.78 171.75 C 153.63 171.91 154.45 171.35 154.61 170.51 L 154.79 169.52 C 154.95 168.67 154.39 167.86 153.55 167.70 C 152.70 167.54 151.88 168.10 151.72 168.95 Z M 151.54 169.91 L 151.34 170.90 C 151.17 171.75 151.72 172.57 152.56 172.74 C 153.41 172.91 154.23 172.37 154.40 171.52 L 154.60 170.53 C 154.77 169.68 154.23 168.86 153.38 168.69 C 152.54 168.52 151.71 169.07 151.54 169.91 Z M 151.34 170.89 L 151.13 171.89 C 150.95 172.73 151.49 173.56 152.33 173.74 C 153.17 173.92 154.00 173.38 154.18 172.54 L 154.40 171.54 C 154.58 170.70 154.04 169.87 153.20 169.69 C 152.36 169.51 151.53 170.04 151.34 170.89 Z M 151.13 171.87 L 150.91 172.86 C 150.72 173.71 151.25 174.54 152.09 174.73 C 152.93 174.92 153.77 174.39 153.96 173.55 L 154.18 172.56 C 154.37 171.72 153.84 170.88 153.00 170.69 C 152.16 170.50 151.32 171.03 151.13 171.87 Z M 150.91 172.85 L 150.68 173.84 C 150.48 174.68 151.00 175.52 151.84 175.72 C 152.68 175.92 153.52 175.40 153.72 174.56 L 153.95 173.57 C 154.15 172.73 153.63 171.89 152.79 171.69 C 151.95 171.49 151.11 172.01 150.91 172.85 Z M 150.68 173.83 L 150.44 174.81 C 150.23 175.65 150.75 176.49 151.58 176.70 C 152.42 176.91 153.27 176.40 153.47 175.56 L 153.72 174.57 C 153.92 173.74 153.41 172.89 152.57 172.68 C 151.74 172.48 150.89 172.99 150.68 173.83 Z M 150.45 174.79 L 150.19 175.77 C 149.98 176.60 150.48 177.45 151.32 177.67 C 152.15 177.88 153.00 177.38 153.22 176.55 L 153.47 175.57 C 153.68 174.74 153.18 173.89 152.35 173.67 C 151.51 173.46 150.66 173.96 150.45 174.79 Z M 150.20 175.75 L 149.94 176.70 C 149.72 177.53 150.21 178.39 151.04 178.61 C 151.87 178.84 152.73 178.35 152.96 177.51 L 153.21 176.56 C 153.44 175.73 152.95 174.87 152.11 174.65 C 151.28 174.42 150.42 174.92 150.20 175.75 Z M 149.95 176.68 L 149.68 177.61 C 149.44 178.44 149.92 179.31 150.75 179.54 C 151.58 179.78 152.45 179.30 152.68 178.47 L 152.95 177.53 C 153.19 176.71 152.71 175.84 151.88 175.60 C 151.05 175.37 150.18 175.85 149.95 176.68 Z M 149.69 177.59 L 149.38 178.60 C 149.13 179.43 149.60 180.30 150.42 180.55 C 151.25 180.80 152.12 180.33 152.37 179.51 L 152.68 178.49 C 152.93 177.67 152.46 176.80 151.63 176.55 C 150.81 176.30 149.94 176.77 149.69 177.59 Z M 149.39 178.58 L 149.08 179.55 C 148.81 180.37 149.26 181.25 150.08 181.51 C 150.91 181.78 151.79 181.32 152.05 180.50 L 152.36 179.53 C 152.63 178.71 152.17 177.83 151.35 177.57 C 150.53 177.30 149.65 177.76 149.39 178.58 Z M 149.09 179.52 L 148.77 180.46 C 148.49 181.27 148.92 182.16 149.74 182.44 C 150.56 182.72 151.44 182.28 151.72 181.47 L 152.04 180.53 C 152.32 179.71 151.88 178.83 151.07 178.55 C 150.25 178.27 149.36 178.71 149.09 179.52 Z M 148.77 180.43 L 148.45 181.34 C 148.15 182.15 148.57 183.05 149.39 183.34 C 150.20 183.63 151.09 183.21 151.38 182.40 L 151.71 181.49 C 152.00 180.68 151.58 179.79 150.77 179.49 C 149.96 179.20 149.07 179.62 148.77 180.43 Z M 148.46 181.32 L 148.12 182.21 C 147.81 183.02 148.21 183.92 149.02 184.23 C 149.83 184.53 150.73 184.13 151.03 183.32 L 151.37 182.43 C 151.68 181.62 151.28 180.72 150.47 180.41 C 149.66 180.11 148.76 180.51 148.46 181.32 Z M 148.12 182.19 L 147.74 183.14 C 147.42 183.94 147.81 184.85 148.61 185.17 C 149.41 185.49 150.32 185.10 150.64 184.30 L 151.02 183.35 C 151.34 182.55 150.95 181.64 150.15 181.32 C 149.35 181.00 148.45 181.39 148.12 182.19 Z M 147.75 183.12 L 147.36 184.05 C 147.03 184.85 147.40 185.76 148.20 186.09 C 148.99 186.43 149.91 186.06 150.24 185.26 L 150.63 184.33 C 150.97 183.53 150.59 182.62 149.80 182.28 C 149.00 181.95 148.09 182.32 147.75 183.12 Z M 147.37 184.03 L 146.97 184.94 C 146.62 185.73 146.98 186.65 147.77 187.00 C 148.56 187.34 149.48 186.99 149.83 186.20 L 150.23 185.29 C 150.58 184.50 150.22 183.57 149.43 183.23 C 148.64 182.88 147.72 183.24 147.37 184.03 Z M 146.98 184.91 L 146.57 185.80 C 146.21 186.58 146.55 187.51 147.33 187.87 C 148.12 188.24 149.04 187.89 149.41 187.11 L 149.82 186.22 C 150.18 185.44 149.84 184.51 149.05 184.15 C 148.27 183.79 147.34 184.13 146.98 184.91 Z M 146.58 185.78 L 146.15 186.68 C 145.77 187.45 146.10 188.39 146.87 188.76 C 147.65 189.14 148.58 188.81 148.96 188.04 L 149.39 187.14 C 149.77 186.36 149.44 185.43 148.67 185.05 C 147.89 184.68 146.96 185.00 146.58 185.78 Z M 146.16 186.65 L 145.70 187.56 C 145.31 188.33 145.61 189.27 146.38 189.66 C 147.15 190.05 148.09 189.74 148.48 188.97 L 148.95 188.06 C 149.34 187.30 149.03 186.36 148.26 185.96 C 147.49 185.57 146.55 185.88 146.16 186.65 Z M 145.72 187.53 L 145.24 188.41 C 144.83 189.16 145.11 190.11 145.87 190.52 C 146.63 190.93 147.58 190.65 147.99 189.89 L 148.46 189.01 C 148.87 188.25 148.59 187.30 147.83 186.89 C 147.07 186.48 146.13 186.77 145.72 187.53 Z M 145.26 188.37 L 144.77 189.22 C 144.34 189.97 144.60 190.92 145.34 191.35 C 146.09 191.78 147.04 191.53 147.48 190.78 L 147.97 189.93 C 148.40 189.18 148.14 188.23 147.40 187.80 C 146.65 187.36 145.69 187.62 145.26 188.37 Z M 144.80 189.17 L 144.28 190.01 C 143.82 190.74 144.05 191.71 144.78 192.16 C 145.51 192.62 146.47 192.39 146.93 191.66 L 147.45 190.82 C 147.90 190.09 147.68 189.13 146.95 188.67 C 146.22 188.22 145.25 188.44 144.80 189.17 Z M 144.31 189.96 L 143.74 190.81 C 143.25 191.53 143.44 192.50 144.16 192.98 C 144.87 193.46 145.84 193.27 146.32 192.56 L 146.90 191.71 C 147.38 190.99 147.19 190.02 146.48 189.54 C 145.76 189.06 144.79 189.25 144.31 189.96 Z M 143.77 190.76 L 143.18 191.58 C 142.67 192.27 142.82 193.25 143.52 193.76 C 144.21 194.27 145.19 194.11 145.70 193.42 L 146.29 192.61 C 146.80 191.91 146.65 190.93 145.95 190.42 C 145.25 189.92 144.28 190.07 143.77 190.76 Z M 143.21 191.53 L 142.60 192.31 C 142.07 192.98 142.18 193.96 142.86 194.50 C 143.54 195.03 144.52 194.91 145.05 194.24 L 145.66 193.46 C 146.20 192.79 146.08 191.80 145.40 191.27 C 144.73 190.74 143.74 190.85 143.21 191.53 Z M 142.64 192.26 L 142.00 193.01 C 141.44 193.67 141.53 194.65 142.18 195.21 C 142.84 195.77 143.83 195.69 144.38 195.03 L 145.02 194.28 C 145.58 193.62 145.49 192.64 144.84 192.08 C 144.18 191.52 143.19 191.60 142.64 192.26 Z M 142.04 192.97 L 141.36 193.71 C 140.78 194.34 140.83 195.33 141.46 195.91 C 142.10 196.49 143.09 196.45 143.67 195.81 L 144.35 195.07 C 144.93 194.44 144.88 193.45 144.25 192.87 C 143.61 192.29 142.62 192.33 142.04 192.97 Z M 141.40 193.67 L 140.71 194.38 C 140.10 195.00 140.11 195.98 140.73 196.59 C 141.35 197.19 142.33 197.18 142.94 196.56 L 143.63 195.85 C 144.23 195.24 144.22 194.25 143.61 193.64 C 142.99 193.04 142.00 193.05 141.40 193.67 Z M 140.74 194.35 L 140.02 195.04 C 139.40 195.64 139.38 196.63 139.98 197.25 C 140.58 197.87 141.57 197.88 142.19 197.29 L 142.91 196.59 C 143.53 195.99 143.54 195.01 142.94 194.39 C 142.35 193.77 141.36 193.75 140.74 194.35 Z M 140.05 195.01 L 139.35 195.66 C 138.71 196.24 138.67 197.23 139.26 197.87 C 139.84 198.50 140.83 198.54 141.46 197.96 L 142.16 197.31 C 142.80 196.73 142.84 195.74 142.25 195.10 C 141.67 194.47 140.68 194.43 140.05 195.01 Z M 139.39 195.62 L 138.67 196.24 C 138.02 196.80 137.94 197.79 138.50 198.44 C 139.07 199.10 140.05 199.17 140.71 198.61 L 141.42 197.99 C 142.08 197.43 142.15 196.44 141.59 195.79 C 141.03 195.14 140.04 195.06 139.39 195.62 Z M 138.74 196.19 L 137.95 196.79 C 137.27 197.31 137.14 198.29 137.66 198.98 C 138.19 199.66 139.17 199.79 139.85 199.27 L 140.64 198.66 C 141.32 198.14 141.45 197.16 140.93 196.47 C 140.40 195.79 139.42 195.66 138.74 196.19 Z M 138.04 196.72 L 137.16 197.31 C 136.44 197.78 136.24 198.75 136.71 199.47 C 137.19 200.19 138.16 200.39 138.88 199.91 L 139.76 199.33 C 140.48 198.86 140.68 197.89 140.20 197.17 C 139.73 196.45 138.76 196.25 138.04 196.72 Z M 137.26 197.25 L 136.37 197.74 C 135.62 198.16 135.35 199.11 135.77 199.86 C 136.18 200.61 137.13 200.89 137.89 200.47 L 138.78 199.97 C 139.53 199.56 139.80 198.61 139.38 197.85 C 138.96 197.10 138.01 196.83 137.26 197.25 Z M 136.46 197.69 L 135.58 198.11 C 134.80 198.48 134.47 199.42 134.84 200.19 C 135.21 200.97 136.14 201.30 136.92 200.93 L 137.80 200.51 C 138.58 200.14 138.91 199.21 138.54 198.43 C 138.17 197.65 137.24 197.32 136.46 197.69 Z M 135.65 198.08 L 134.71 198.47 C 133.92 198.80 133.54 199.71 133.87 200.51 C 134.20 201.31 135.11 201.68 135.91 201.35 L 136.85 200.97 C 137.64 200.64 138.02 199.72 137.69 198.93 C 137.36 198.13 136.45 197.75 135.65 198.08 Z M 134.78 198.44 L 133.82 198.79 C 133.01 199.08 132.58 199.98 132.88 200.79 C 133.17 201.60 134.06 202.02 134.88 201.73 L 135.84 201.38 C 136.65 201.09 137.07 200.19 136.78 199.38 C 136.49 198.57 135.59 198.15 134.78 198.44 Z M 133.88 198.77 L 132.91 199.07 C 132.09 199.33 131.63 200.20 131.88 201.02 C 132.14 201.85 133.01 202.31 133.84 202.05 L 134.81 201.75 C 135.63 201.50 136.09 200.62 135.84 199.80 C 135.58 198.97 134.71 198.51 133.88 198.77 Z M 132.98 199.05 L 131.97 199.31 C 131.13 199.53 130.63 200.38 130.84 201.21 C 131.06 202.05 131.91 202.55 132.74 202.34 L 133.76 202.07 C 134.60 201.86 135.10 201.01 134.88 200.17 C 134.67 199.34 133.82 198.83 132.98 199.05 Z M 132.04 199.29 L 131.00 199.50 C 130.16 199.68 129.61 200.50 129.78 201.34 C 129.96 202.19 130.78 202.74 131.63 202.56 L 132.66 202.35 C 133.51 202.18 134.06 201.36 133.88 200.51 C 133.71 199.67 132.89 199.12 132.04 199.29 Z M 131.08 199.49 L 130.08 199.64 C 129.23 199.77 128.64 200.57 128.77 201.42 C 128.90 202.27 129.70 202.86 130.55 202.73 L 131.55 202.58 C 132.40 202.45 132.99 201.65 132.86 200.80 C 132.73 199.95 131.93 199.36 131.08 199.49 Z M 130.15 199.63 L 129.19 199.74 C 128.34 199.83 127.71 200.60 127.81 201.45 C 127.90 202.31 128.67 202.93 129.52 202.84 L 130.48 202.74 C 131.34 202.65 131.96 201.88 131.87 201.02 C 131.78 200.16 131.01 199.54 130.15 199.63 Z M 129.25 199.73 L 128.34 199.79 C 127.48 199.85 126.83 200.59 126.89 201.45 C 126.94 202.31 127.69 202.97 128.55 202.91 L 129.46 202.85 C 130.32 202.79 130.97 202.04 130.92 201.18 C 130.86 200.32 130.11 199.67 129.25 199.73 Z M 128.40 199.79 L 127.34 199.82 C 126.48 199.85 125.80 200.56 125.83 201.43 C 125.85 202.29 126.57 202.97 127.43 202.94 L 128.49 202.91 C 129.35 202.89 130.03 202.17 130.00 201.30 C 129.98 200.44 129.26 199.76 128.40 199.79 Z M 127.39 199.82 L 126.39 199.81 C 125.53 199.81 124.83 200.50 124.82 201.37 C 124.82 202.23 125.51 202.93 126.38 202.94 L 127.38 202.94 C 128.24 202.95 128.94 202.25 128.95 201.39 C 128.95 200.53 128.26 199.82 127.39 199.82 Z M 126.43 199.81 L 125.46 199.79 C 124.60 199.76 123.88 200.44 123.86 201.30 C 123.83 202.17 124.51 202.88 125.38 202.91 L 126.34 202.94 C 127.20 202.96 127.92 202.28 127.95 201.42 C 127.97 200.56 127.29 199.84 126.43 199.81 Z M 125.48 199.79 L 124.91 199.77 C 124.05 199.73 123.32 200.41 123.29 201.27 C 123.26 202.13 123.93 202.85 124.79 202.89 L 125.36 202.91 C 126.22 202.94 126.95 202.27 126.98 201.41 C 127.01 200.54 126.34 199.82 125.48 199.79 Z"
      fill="black"
      fill-rule="nonzero" /></svg>