<svg xmlns="http://www.w3.org/2000/svg" width="300" height="300" viewBox="0 0 300 300">
<path d="M 151.67 143.90 L 151.06 142.84 C 150.63 142.09 149.67 141.83 148.93 142.26 C 148.18 142.69 147.92 143.65 148.35 144.39 L 148.96 145.46 C 149.39 146.20 150.34 146.46 151.09 146.03 C 151.84 145.60 152.10 144.65 151.67 143.90 Z M 150.63 142.36 L 150.02 141.91 C 149.33 141.40 148.35 141.54 147.84 142.23 C 147.33 142.93 147.47 143.90 148.16 144.42 L 148.77 144.87 C 149.47 145.38 150.44 145.24 150.96 144.55 C 151.47 143.86 151.33 142.88 150.63 142.36 Z M 148.06 142.00 L 147.61 142.40 C 146.97 142.97 146.91 143.96 147.48 144.60 C 148.06 145.24 149.04 145.30 149.69 144.73 L 150.13 144.33 C 150.78 143.76 150.83 142.77 150.26 142.13 C 149.69 141.48 148.70 141.43 148.06 142.00 Z M 147.23 142.90 L 146.89 143.65 C 146.52 144.43 146.86 145.36 147.65 145.72 C 148.43 146.08 149.36 145.75 149.72 144.96 L 150.06 144.22 C 150.43 143.44 150.09 142.51 149.31 142.15 C 148.52 141.78 147.60 142.12 147.23 142.90 Z M 146.83 143.77 L 146.47 144.77 C 146.18 145.59 146.60 146.48 147.41 146.77 C 148.22 147.07 149.12 146.65 149.41 145.84 L 149.77 144.84 C 150.06 144.03 149.64 143.13 148.83 142.84 C 148.02 142.54 147.13 142.96 146.83 143.77 Z M 146.46 144.80 L 146.08 145.93 C 145.80 146.75 146.23 147.64 147.05 147.92 C 147.86 148.20 148.75 147.76 149.03 146.94 L 149.42 145.81 C 149.70 144.99 149.26 144.11 148.45 143.83 C 147.63 143.55 146.74 143.98 146.46 144.80 Z M 146.09 145.90 L 145.68 147.02 C 145.38 147.83 145.79 148.73 146.60 149.03 C 147.41 149.32 148.31 148.91 148.61 148.10 L 149.02 146.98 C 149.32 146.17 148.90 145.27 148.09 144.97 C 147.28 144.68 146.39 145.09 146.09 145.90 Z M 145.70 146.95 L 145.28 147.96 C 144.94 148.75 145.31 149.67 146.11 150.00 C 146.90 150.34 147.82 149.97 148.15 149.17 L 148.58 148.17 C 148.91 147.38 148.54 146.46 147.75 146.12 C 146.95 145.79 146.04 146.16 145.70 146.95 Z M 145.31 147.89 L 144.86 148.83 C 144.49 149.60 144.82 150.54 145.59 150.91 C 146.37 151.28 147.30 150.95 147.68 150.17 L 148.12 149.24 C 148.50 148.46 148.17 147.53 147.39 147.16 C 146.61 146.78 145.68 147.11 145.31 147.89 Z M 144.89 148.76 L 144.43 149.63 C 144.03 150.39 144.31 151.33 145.07 151.74 C 145.83 152.15 146.78 151.86 147.19 151.10 L 147.65 150.24 C 148.05 149.47 147.76 148.53 147.00 148.12 C 146.24 147.72 145.30 148.00 144.89 148.76 Z M 144.46 149.57 L 144.00 150.35 C 143.56 151.09 143.81 152.05 144.55 152.49 C 145.30 152.93 146.25 152.68 146.69 151.94 L 147.15 151.15 C 147.59 150.41 147.34 149.46 146.60 149.02 C 145.86 148.58 144.90 148.83 144.46 149.57 Z M 144.04 150.29 L 143.47 151.15 C 143.00 151.87 143.20 152.84 143.92 153.31 C 144.64 153.79 145.61 153.59 146.09 152.86 L 146.65 152.00 C 147.12 151.28 146.92 150.31 146.20 149.84 C 145.48 149.37 144.51 149.57 144.04 150.29 Z M 143.53 151.07 L 142.91 151.90 C 142.40 152.58 142.54 153.56 143.23 154.08 C 143.92 154.60 144.89 154.46 145.41 153.77 L 146.03 152.94 C 146.55 152.26 146.41 151.28 145.72 150.76 C 145.03 150.24 144.05 150.38 143.53 151.07 Z M 142.98 151.81 L 142.36 152.52 C 141.80 153.17 141.86 154.16 142.52 154.73 C 143.17 155.29 144.15 155.22 144.72 154.57 L 145.34 153.86 C 145.91 153.21 145.84 152.22 145.19 151.65 C 144.54 151.09 143.55 151.16 142.98 151.81 Z M 142.44 152.44 L 141.78 153.10 C 141.17 153.71 141.17 154.70 141.78 155.31 C 142.38 155.92 143.37 155.92 143.98 155.31 L 144.64 154.65 C 145.25 154.05 145.25 153.06 144.65 152.45 C 144.04 151.84 143.05 151.83 142.44 152.44 Z M 141.87 153.01 L 141.13 153.64 C 140.47 154.20 140.39 155.19 140.95 155.84 C 141.51 156.50 142.49 156.58 143.15 156.02 L 143.89 155.39 C 144.55 154.84 144.63 153.85 144.07 153.19 C 143.51 152.54 142.53 152.46 141.87 153.01 Z M 141.27 153.54 L 140.44 154.10 C 139.73 154.58 139.54 155.55 140.02 156.27 C 140.51 156.98 141.48 157.17 142.19 156.68 L 143.02 156.13 C 143.73 155.64 143.92 154.67 143.43 153.96 C 142.95 153.24 141.98 153.06 141.27 153.54 Z M 140.61 154.00 L 139.68 154.47 C 138.91 154.86 138.60 155.80 138.99 156.57 C 139.38 157.33 140.32 157.64 141.09 157.26 L 142.02 156.78 C 142.79 156.40 143.10 155.46 142.71 154.69 C 142.32 153.92 141.38 153.61 140.61 154.00 Z M 139.88 154.38 L 138.88 154.72 C 138.06 155.00 137.62 155.89 137.90 156.70 C 138.18 157.52 139.07 157.96 139.88 157.68 L 140.88 157.34 C 141.70 157.06 142.14 156.18 141.86 155.36 C 141.58 154.54 140.70 154.11 139.88 154.38 Z M 139.18 154.65 L 138.17 154.79 C 137.32 154.90 136.71 155.68 136.83 156.54 C 136.94 157.39 137.72 157.99 138.58 157.88 L 139.58 157.75 C 140.44 157.64 141.04 156.85 140.93 156.00 C 140.82 155.14 140.03 154.54 139.18 154.65 Z M 138.69 154.80 L 137.79 154.62 C 136.95 154.45 136.12 154.99 135.95 155.84 C 135.78 156.68 136.32 157.51 137.17 157.68 L 138.06 157.86 C 138.91 158.04 139.73 157.49 139.90 156.65 C 140.08 155.80 139.53 154.98 138.69 154.80 Z M 138.48 154.95 L 137.82 154.40 C 137.16 153.85 136.18 153.93 135.62 154.59 C 135.07 155.26 135.16 156.24 135.82 156.79 L 136.48 157.35 C 137.14 157.90 138.12 157.82 138.68 157.15 C 139.23 156.49 139.14 155.51 138.48 154.95 Z M 138.20 154.87 L 137.76 154.02 C 137.36 153.26 136.41 152.96 135.65 153.36 C 134.89 153.76 134.59 154.70 134.99 155.47 L 135.44 156.32 C 135.84 157.08 136.78 157.38 137.54 156.98 C 138.31 156.58 138.60 155.64 138.20 154.87 Z M 137.89 154.37 L 137.64 153.34 C 137.43 152.50 136.59 151.99 135.75 152.19 C 134.91 152.39 134.40 153.24 134.60 154.08 L 134.86 155.11 C 135.06 155.95 135.90 156.46 136.74 156.26 C 137.58 156.06 138.09 155.21 137.89 154.37 Z M 137.68 153.59 L 137.60 152.58 C 137.54 151.72 136.79 151.08 135.93 151.14 C 135.07 151.20 134.43 151.95 134.49 152.81 L 134.56 153.82 C 134.63 154.68 135.37 155.33 136.23 155.26 C 137.09 155.20 137.74 154.45 137.68 153.59 Z M 137.60 152.80 L 137.66 151.90 C 137.72 151.04 137.07 150.30 136.21 150.24 C 135.35 150.18 134.60 150.84 134.55 151.70 L 134.49 152.59 C 134.43 153.45 135.08 154.20 135.94 154.25 C 136.80 154.31 137.55 153.66 137.60 152.80 Z M 137.64 152.10 L 137.82 151.17 C 137.99 150.33 137.44 149.50 136.60 149.34 C 135.75 149.17 134.93 149.71 134.76 150.56 L 134.58 151.49 C 134.41 152.34 134.95 153.16 135.80 153.33 C 136.64 153.50 137.47 152.95 137.64 152.10 Z M 137.78 151.35 L 138.10 150.36 C 138.37 149.54 137.92 148.66 137.11 148.39 C 136.29 148.12 135.40 148.57 135.14 149.38 L 134.81 150.38 C 134.54 151.20 134.99 152.08 135.81 152.35 C 136.63 152.62 137.51 152.17 137.78 151.35 Z M 138.05 150.50 L 138.50 149.46 C 138.85 148.67 138.49 147.75 137.70 147.40 C 136.91 147.06 135.99 147.42 135.64 148.21 L 135.19 149.25 C 134.84 150.04 135.20 150.96 135.99 151.30 C 136.78 151.65 137.70 151.29 138.05 150.50 Z M 138.46 149.55 L 138.90 148.69 C 139.29 147.93 138.99 146.99 138.22 146.59 C 137.46 146.20 136.52 146.50 136.12 147.27 L 135.68 148.12 C 135.29 148.89 135.59 149.83 136.36 150.22 C 137.13 150.62 138.07 150.31 138.46 149.55 Z M 138.87 148.75 L 139.37 147.87 C 139.79 147.12 139.53 146.16 138.78 145.74 C 138.03 145.31 137.08 145.58 136.65 146.33 L 136.15 147.21 C 135.73 147.96 135.99 148.91 136.74 149.34 C 137.49 149.76 138.44 149.50 138.87 148.75 Z M 139.34 147.91 L 139.89 147.03 C 140.34 146.29 140.11 145.33 139.37 144.88 C 138.64 144.43 137.68 144.66 137.23 145.39 L 136.68 146.28 C 136.23 147.02 136.46 147.98 137.19 148.43 C 137.93 148.88 138.89 148.65 139.34 147.91 Z M 139.86 147.07 L 140.43 146.20 C 140.90 145.48 140.70 144.51 139.98 144.04 C 139.26 143.56 138.29 143.77 137.82 144.49 L 137.25 145.35 C 136.78 146.07 136.98 147.04 137.70 147.51 C 138.42 147.99 139.39 147.79 139.86 147.07 Z M 140.40 146.24 L 140.98 145.42 C 141.47 144.72 141.30 143.74 140.60 143.25 C 139.89 142.75 138.92 142.92 138.42 143.63 L 137.85 144.45 C 137.35 145.15 137.52 146.12 138.23 146.62 C 138.93 147.12 139.91 146.95 140.40 146.24 Z M 140.94 145.47 L 141.57 144.64 C 142.09 143.95 141.96 142.97 141.27 142.45 C 140.59 141.93 139.61 142.07 139.09 142.75 L 138.46 143.58 C 137.93 144.27 138.07 145.25 138.76 145.77 C 139.44 146.29 140.42 146.16 140.94 145.47 Z M 141.52 144.70 L 142.26 143.83 C 142.81 143.17 142.73 142.19 142.07 141.63 C 141.41 141.08 140.43 141.16 139.87 141.82 L 139.14 142.69 C 138.58 143.35 138.66 144.33 139.32 144.89 C 139.98 145.45 140.97 145.36 141.52 144.70 Z M 142.19 143.91 L 142.89 143.18 C 143.48 142.56 143.47 141.57 142.84 140.97 C 142.22 140.38 141.23 140.39 140.64 141.02 L 139.94 141.74 C 139.34 142.36 139.36 143.35 139.98 143.95 C 140.60 144.55 141.59 144.53 142.19 143.91 Z M 142.81 143.26 L 143.48 142.65 C 144.12 142.07 144.17 141.08 143.60 140.44 C 143.02 139.80 142.03 139.75 141.39 140.33 L 140.72 140.94 C 140.08 141.52 140.02 142.50 140.60 143.14 C 141.18 143.78 142.17 143.84 142.81 143.26 Z M 143.40 142.72 L 144.08 142.19 C 144.76 141.66 144.88 140.68 144.35 140.00 C 143.82 139.32 142.84 139.20 142.16 139.73 L 141.48 140.26 C 140.80 140.79 140.68 141.77 141.20 142.45 C 141.73 143.13 142.71 143.25 143.40 142.72 Z M 143.97 142.27 L 144.80 141.72 C 145.53 141.25 145.73 140.28 145.26 139.56 C 144.79 138.84 143.82 138.64 143.10 139.11 L 142.27 139.65 C 141.55 140.12 141.34 141.09 141.81 141.81 C 142.28 142.53 143.25 142.74 143.97 142.27 Z M 144.65 141.81 L 145.53 141.37 C 146.30 140.99 146.61 140.05 146.22 139.28 C 145.83 138.51 144.90 138.19 144.13 138.58 L 143.25 139.02 C 142.48 139.41 142.17 140.34 142.56 141.12 C 142.94 141.89 143.88 142.20 144.65 141.81 Z M 145.34 141.45 L 146.30 141.12 C 147.11 140.83 147.54 139.94 147.25 139.13 C 146.97 138.31 146.08 137.88 145.26 138.17 L 144.31 138.50 C 143.50 138.79 143.07 139.68 143.35 140.49 C 143.64 141.31 144.53 141.74 145.34 141.45 Z M 146.11 141.17 L 147.12 140.95 C 147.96 140.77 148.50 139.94 148.31 139.10 C 148.13 138.25 147.30 137.72 146.46 137.90 L 145.45 138.12 C 144.61 138.30 144.07 139.13 144.25 139.97 C 144.44 140.81 145.27 141.35 146.11 141.17 Z M 146.91 140.98 L 147.94 140.90 C 148.80 140.84 149.44 140.09 149.38 139.23 C 149.32 138.37 148.57 137.73 147.71 137.79 L 146.67 137.87 C 145.81 137.93 145.17 138.68 145.23 139.54 C 145.30 140.40 146.05 141.05 146.91 140.98 Z M 147.64 140.90 L 148.63 141.01 C 149.48 141.11 150.26 140.50 150.36 139.64 C 150.46 138.79 149.85 138.01 148.99 137.91 L 148.00 137.80 C 147.15 137.70 146.37 138.31 146.27 139.17 C 146.17 140.02 146.78 140.80 147.64 140.90 Z M 148.18 140.89 L 149.03 141.26 C 149.82 141.61 150.74 141.25 151.09 140.46 C 151.43 139.67 151.07 138.75 150.28 138.40 L 149.43 138.03 C 148.64 137.69 147.72 138.05 147.38 138.84 C 147.03 139.63 147.39 140.55 148.18 140.89 Z M 148.54 140.92 L 149.20 141.60 C 149.81 142.22 150.79 142.23 151.41 141.63 C 152.03 141.03 152.04 140.04 151.44 139.42 L 150.77 138.74 C 150.17 138.13 149.18 138.11 148.57 138.72 C 147.95 139.32 147.94 140.31 148.54 140.92 Z M 148.94 141.24 L 149.40 142.12 C 149.80 142.89 150.74 143.19 151.50 142.79 C 152.27 142.39 152.57 141.45 152.17 140.68 L 151.71 139.79 C 151.31 139.03 150.37 138.73 149.60 139.13 C 148.84 139.53 148.54 140.47 148.94 141.24 Z M 149.29 141.86 L 149.59 142.84 C 149.84 143.67 150.71 144.13 151.54 143.88 C 152.36 143.63 152.83 142.76 152.58 141.93 L 152.28 140.95 C 152.03 140.12 151.15 139.66 150.33 139.91 C 149.50 140.16 149.04 141.03 149.29 141.86 Z M 149.55 142.66 L 149.72 143.61 C 149.87 144.46 150.68 145.02 151.53 144.87 C 152.38 144.72 152.94 143.91 152.79 143.06 L 152.62 142.11 C 152.47 141.26 151.66 140.70 150.81 140.85 C 149.96 141.00 149.40 141.81 149.55 142.66 Z M 149.69 143.42 L 149.74 144.35 C 149.79 145.21 150.53 145.87 151.39 145.82 C 152.25 145.78 152.91 145.04 152.86 144.18 L 152.81 143.25 C 152.77 142.39 152.03 141.73 151.17 141.78 C 150.31 141.82 149.65 142.56 149.69 143.42 Z M 149.75 144.13 L 149.66 145.11 C 149.59 145.97 150.22 146.73 151.08 146.80 C 151.94 146.88 152.70 146.24 152.77 145.38 L 152.86 144.40 C 152.93 143.54 152.30 142.78 151.44 142.71 C 150.58 142.63 149.82 143.27 149.75 144.13 Z M 149.69 144.92 L 149.46 146.01 C 149.27 146.85 149.81 147.68 150.65 147.86 C 151.49 148.04 152.32 147.51 152.51 146.67 L 152.74 145.58 C 152.92 144.74 152.39 143.91 151.55 143.72 C 150.70 143.54 149.87 144.08 149.69 144.92 Z M 149.49 145.88 L 149.21 146.79 C 148.95 147.61 149.42 148.49 150.24 148.74 C 151.07 148.99 151.94 148.53 152.19 147.71 L 152.47 146.79 C 152.73 145.97 152.26 145.10 151.44 144.84 C 150.62 144.59 149.74 145.05 149.49 145.88 Z M 149.24 146.70 L 148.88 147.66 C 148.58 148.47 148.99 149.37 149.79 149.67 C 150.60 149.97 151.50 149.56 151.80 148.75 L 152.16 147.80 C 152.46 146.99 152.06 146.09 151.25 145.79 C 150.44 145.48 149.54 145.89 149.24 146.70 Z M 148.91 147.58 L 148.49 148.53 C 148.14 149.32 148.50 150.24 149.29 150.59 C 150.08 150.94 151.00 150.58 151.35 149.79 L 151.77 148.84 C 152.12 148.05 151.76 147.13 150.97 146.78 C 150.18 146.43 149.26 146.79 148.91 147.58 Z M 148.54 148.44 L 148.06 149.34 C 147.66 150.11 147.96 151.05 148.73 151.45 C 149.49 151.85 150.43 151.55 150.83 150.79 L 151.30 149.89 C 151.70 149.12 151.41 148.18 150.64 147.78 C 149.88 147.38 148.93 147.68 148.54 148.44 Z M 148.13 149.23 L 147.60 150.07 C 147.13 150.80 147.35 151.76 148.08 152.22 C 148.80 152.69 149.77 152.47 150.23 151.74 L 150.77 150.90 C 151.23 150.18 151.01 149.21 150.29 148.75 C 149.56 148.29 148.59 148.50 148.13 149.23 Z M 147.72 149.90 L 147.01 150.74 C 146.46 151.40 146.54 152.39 147.20 152.94 C 147.86 153.50 148.85 153.41 149.40 152.75 L 150.11 151.91 C 150.66 151.25 150.58 150.27 149.92 149.71 C 149.26 149.16 148.27 149.24 147.72 149.90 Z M 147.21 150.55 L 146.45 151.17 C 145.79 151.73 145.70 152.71 146.25 153.37 C 146.80 154.04 147.78 154.13 148.45 153.58 L 149.20 152.95 C 149.87 152.40 149.96 151.41 149.41 150.75 C 148.86 150.09 147.87 150.00 147.21 150.55 Z M 146.70 151.01 L 145.89 151.45 C 145.13 151.86 144.86 152.81 145.27 153.57 C 145.68 154.33 146.63 154.60 147.39 154.19 L 148.20 153.75 C 148.96 153.33 149.23 152.38 148.82 151.63 C 148.41 150.87 147.46 150.59 146.70 151.01 Z M 146.16 151.34 L 145.20 151.65 C 144.38 151.91 143.94 152.79 144.20 153.61 C 144.47 154.43 145.35 154.88 146.17 154.61 L 147.12 154.30 C 147.94 154.04 148.39 153.16 148.12 152.34 C 147.86 151.52 146.98 151.07 146.16 151.34 Z M 145.50 151.58 L 144.44 151.71 C 143.58 151.81 142.97 152.59 143.08 153.45 C 143.18 154.30 143.96 154.91 144.82 154.81 L 145.88 154.68 C 146.73 154.58 147.34 153.80 147.24 152.94 C 147.13 152.08 146.35 151.48 145.50 151.58 Z M 144.85 151.71 L 143.90 151.58 C 143.04 151.45 142.25 152.05 142.13 152.90 C 142.01 153.75 142.60 154.54 143.45 154.67 L 144.40 154.80 C 145.26 154.93 146.05 154.34 146.17 153.48 C 146.30 152.63 145.70 151.84 144.85 151.71 Z M 144.53 151.81 L 143.81 151.35 C 143.09 150.88 142.12 151.08 141.65 151.80 C 141.18 152.52 141.38 153.49 142.11 153.96 L 142.82 154.43 C 143.55 154.90 144.51 154.70 144.98 153.97 C 145.45 153.25 145.25 152.29 144.53 151.81 Z M 144.35 151.94 L 143.92 151.12 C 143.53 150.35 142.59 150.05 141.82 150.45 C 141.05 150.84 140.75 151.79 141.15 152.55 L 141.57 153.37 C 141.97 154.14 142.91 154.44 143.67 154.04 C 144.44 153.65 144.74 152.71 144.35 151.94 Z M 144.07 151.55 L 143.88 150.53 C 143.72 149.68 142.90 149.12 142.05 149.28 C 141.21 149.44 140.65 150.26 140.81 151.10 L 141.00 152.13 C 141.16 152.97 141.98 153.53 142.83 153.37 C 143.67 153.21 144.23 152.39 144.07 151.55 Z M 143.90 150.70 L 143.82 149.64 C 143.76 148.78 143.02 148.14 142.16 148.20 C 141.30 148.26 140.65 149.00 140.71 149.86 L 140.79 150.93 C 140.85 151.79 141.59 152.43 142.45 152.37 C 143.31 152.31 143.96 151.56 143.90 150.70 Z M 143.83 149.73 L 143.81 148.72 C 143.80 147.86 143.09 147.17 142.23 147.18 C 141.37 147.20 140.68 147.91 140.69 148.77 L 140.71 149.78 C 140.72 150.64 141.43 151.33 142.29 151.32 C 143.15 151.30 143.84 150.59 143.83 149.73 Z M 143.81 148.85 L 143.88 147.86 C 143.93 147.00 143.28 146.26 142.42 146.20 C 141.56 146.14 140.82 146.80 140.76 147.66 L 140.70 148.64 C 140.64 149.50 141.29 150.25 142.15 150.30 C 143.01 150.36 143.75 149.71 143.81 148.85 Z M 143.86 148.03 L 144.02 147.08 C 144.17 146.23 143.60 145.42 142.75 145.27 C 141.90 145.12 141.10 145.69 140.95 146.54 L 140.78 147.49 C 140.63 148.34 141.20 149.15 142.05 149.30 C 142.90 149.44 143.71 148.88 143.86 148.03 Z M 143.98 147.25 L 144.25 146.35 C 144.50 145.53 144.03 144.66 143.20 144.41 C 142.37 144.16 141.50 144.63 141.26 145.46 L 140.99 146.36 C 140.74 147.19 141.21 148.06 142.04 148.30 C 142.86 148.55 143.73 148.08 143.98 147.25 Z M 144.20 146.50 L 144.58 145.57 C 144.90 144.78 144.52 143.87 143.72 143.54 C 142.92 143.21 142.01 143.59 141.69 144.39 L 141.31 145.32 C 140.98 146.11 141.36 147.02 142.16 147.35 C 142.96 147.68 143.87 147.30 144.20 146.50 Z M 144.53 145.68 L 145.01 144.71 C 145.40 143.94 145.09 143.01 144.32 142.62 C 143.55 142.23 142.61 142.54 142.22 143.31 L 141.74 144.28 C 141.35 145.05 141.66 145.99 142.43 146.38 C 143.20 146.77 144.14 146.45 144.53 145.68 Z M 144.97 144.79 L 145.46 143.94 C 145.89 143.19 145.63 142.23 144.88 141.80 C 144.13 141.38 143.18 141.64 142.75 142.38 L 142.26 143.24 C 141.83 143.99 142.09 144.94 142.84 145.37 C 143.59 145.80 144.54 145.54 144.97 144.79 Z M 145.41 144.01 L 145.97 143.16 C 146.44 142.44 146.24 141.47 145.52 141.00 C 144.80 140.53 143.83 140.73 143.36 141.45 L 142.80 142.30 C 142.33 143.03 142.53 143.99 143.25 144.47 C 143.97 144.94 144.94 144.74 145.41 144.01 Z M 145.90 143.26 L 146.52 142.46 C 147.05 141.78 146.93 140.80 146.25 140.27 C 145.56 139.74 144.58 139.87 144.05 140.55 L 143.43 141.35 C 142.90 142.03 143.03 143.01 143.71 143.54 C 144.39 144.07 145.37 143.94 145.90 143.26 Z M 146.41 142.59 L 147.09 141.89 C 147.70 141.27 147.68 140.28 147.06 139.68 C 146.45 139.08 145.46 139.09 144.86 139.71 L 144.17 140.41 C 143.57 141.03 143.58 142.02 144.20 142.62 C 144.82 143.22 145.81 143.21 146.41 142.59 Z M 146.88 142.07 L 147.81 141.41 C 148.51 140.91 148.67 139.93 148.17 139.23 C 147.67 138.53 146.69 138.37 145.99 138.87 L 145.07 139.53 C 144.37 140.03 144.20 141.00 144.71 141.71 C 145.21 142.41 146.18 142.57 146.88 142.07 Z M 147.42 141.61 L 148.35 141.28 C 149.16 140.98 149.58 140.09 149.29 139.28 C 149.00 138.47 148.11 138.05 147.29 138.34 L 146.37 138.67 C 145.56 138.96 145.14 139.86 145.43 140.67 C 145.72 141.48 146.61 141.90 147.42 141.61 Z M 147.69 141.36 L 148.55 141.43 C 149.41 141.51 150.16 140.87 150.24 140.01 C 150.31 139.15 149.67 138.39 148.81 138.32 L 147.95 138.25 C 147.09 138.18 146.34 138.82 146.27 139.68 C 146.20 140.54 146.83 141.29 147.69 141.36 Z M 147.78 141.15 L 148.45 141.63 C 149.16 142.12 150.13 141.96 150.63 141.25 C 151.12 140.55 150.96 139.57 150.25 139.08 L 149.58 138.60 C 148.87 138.10 147.90 138.27 147.40 138.98 C 146.91 139.68 147.08 140.66 147.78 141.15 Z M 148.05 141.22 L 148.58 142.02 C 149.06 142.73 150.03 142.93 150.75 142.45 C 151.47 141.97 151.66 141.00 151.18 140.28 L 150.65 139.49 C 150.17 138.77 149.20 138.57 148.49 139.05 C 147.77 139.53 147.57 140.50 148.05 141.22 Z M 148.42 141.70 L 148.81 142.73 C 149.11 143.53 150.01 143.94 150.82 143.64 C 151.63 143.34 152.03 142.44 151.73 141.63 L 151.34 140.60 C 151.04 139.79 150.14 139.38 149.33 139.69 C 148.53 139.99 148.12 140.89 148.42 141.70 Z M 148.74 142.49 L 148.95 143.52 C 149.13 144.37 149.95 144.91 150.80 144.73 C 151.64 144.56 152.19 143.73 152.01 142.89 L 151.80 141.86 C 151.62 141.02 150.80 140.47 149.95 140.65 C 149.11 140.82 148.57 141.65 148.74 142.49 Z M 148.93 143.34 L 149.01 144.29 C 149.08 145.15 149.84 145.79 150.70 145.72 C 151.55 145.64 152.19 144.89 152.12 144.03 L 152.04 143.07 C 151.96 142.21 151.21 141.58 150.35 141.65 C 149.49 141.72 148.85 142.48 148.93 143.34 Z M 149.00 144.13 L 148.98 145.12 C 148.96 145.98 149.64 146.69 150.51 146.71 C 151.37 146.73 152.08 146.05 152.10 145.19 L 152.12 144.19 C 152.14 143.33 151.46 142.62 150.60 142.60 C 149.74 142.58 149.02 143.26 149.00 144.13 Z M 148.99 144.96 L 148.86 145.98 C 148.75 146.83 149.36 147.61 150.21 147.72 C 151.07 147.83 151.85 147.22 151.96 146.37 L 152.09 145.35 C 152.20 144.49 151.59 143.71 150.74 143.60 C 149.88 143.49 149.10 144.10 148.99 144.96 Z M 148.89 145.82 L 148.65 146.85 C 148.46 147.69 148.98 148.52 149.82 148.72 C 150.66 148.92 151.50 148.39 151.69 147.55 L 151.93 146.53 C 152.13 145.69 151.61 144.85 150.77 144.65 C 149.93 144.46 149.09 144.98 148.89 145.82 Z M 148.69 146.70 L 148.37 147.67 C 148.09 148.48 148.53 149.37 149.35 149.65 C 150.16 149.92 151.05 149.48 151.33 148.66 L 151.65 147.70 C 151.93 146.88 151.49 146.00 150.67 145.72 C 149.85 145.45 148.97 145.88 148.69 146.70 Z M 148.42 147.54 L 148.00 148.48 C 147.66 149.27 148.02 150.19 148.81 150.54 C 149.60 150.88 150.52 150.52 150.86 149.73 L 151.28 148.79 C 151.62 148.00 151.26 147.08 150.47 146.74 C 149.68 146.39 148.76 146.75 148.42 147.54 Z M 148.06 148.36 L 147.58 149.24 C 147.16 150.00 147.44 150.95 148.20 151.36 C 148.95 151.78 149.90 151.50 150.32 150.75 L 150.80 149.86 C 151.22 149.10 150.94 148.15 150.18 147.74 C 149.43 147.32 148.48 147.60 148.06 148.36 Z M 147.65 149.12 L 147.11 149.93 C 146.62 150.64 146.81 151.61 147.52 152.09 C 148.23 152.58 149.20 152.39 149.69 151.68 L 150.24 150.87 C 150.72 150.16 150.54 149.19 149.82 148.70 C 149.11 148.22 148.14 148.40 147.65 149.12 Z M 147.22 149.78 L 146.51 150.60 C 145.94 151.24 146.01 152.23 146.65 152.80 C 147.30 153.37 148.29 153.30 148.86 152.65 L 149.57 151.83 C 150.14 151.18 150.07 150.20 149.42 149.63 C 148.78 149.06 147.79 149.13 147.22 149.78 Z M 146.71 150.40 L 145.78 151.14 C 145.11 151.68 145.00 152.66 145.54 153.33 C 146.07 154.01 147.05 154.12 147.73 153.58 L 148.65 152.84 C 149.33 152.31 149.44 151.32 148.90 150.65 C 148.37 149.98 147.38 149.86 146.71 150.40 Z M 146.19 150.91 L 145.35 151.23 C 144.55 151.55 144.15 152.45 144.46 153.25 C 144.78 154.06 145.68 154.45 146.48 154.14 L 147.32 153.81 C 148.13 153.50 148.52 152.60 148.21 151.79 C 147.90 150.99 146.99 150.59 146.19 150.91 Z M 146.35 151.19 L 145.73 151.01 C 144.90 150.77 144.03 151.24 143.79 152.07 C 143.55 152.90 144.03 153.77 144.86 154.01 L 145.48 154.19 C 146.31 154.43 147.18 153.95 147.42 153.12 C 147.66 152.29 147.18 151.43 146.35 151.19 Z M 146.70 151.84 L 146.37 151.12 C 146.00 150.34 145.07 150.01 144.29 150.38 C 143.51 150.75 143.17 151.68 143.54 152.46 L 143.88 153.17 C 144.25 153.95 145.18 154.29 145.96 153.92 C 146.74 153.55 147.07 152.62 146.70 151.84 Z M 146.51 151.66 L 146.42 150.60 C 146.35 149.74 145.60 149.10 144.74 149.18 C 143.88 149.25 143.24 150.00 143.31 150.86 L 143.40 151.92 C 143.47 152.78 144.23 153.42 145.08 153.35 C 145.94 153.28 146.58 152.52 146.51 151.66 Z M 146.42 150.85 L 146.51 149.69 C 146.58 148.83 145.94 148.08 145.08 148.01 C 144.22 147.95 143.47 148.59 143.40 149.45 L 143.31 150.61 C 143.24 151.47 143.89 152.22 144.75 152.29 C 145.61 152.35 146.36 151.71 146.42 150.85 Z M 146.49 149.84 L 146.66 148.93 C 146.81 148.08 146.24 147.27 145.40 147.12 C 144.55 146.97 143.74 147.53 143.58 148.38 L 143.42 149.29 C 143.27 150.14 143.83 150.95 144.68 151.11 C 145.53 151.26 146.34 150.69 146.49 149.84 Z M 146.63 149.07 L 146.88 148.15 C 147.10 147.31 146.61 146.46 145.78 146.23 C 144.94 146.01 144.09 146.50 143.86 147.33 L 143.61 148.25 C 143.39 149.08 143.88 149.94 144.71 150.16 C 145.54 150.39 146.40 149.90 146.63 149.07 Z M 146.84 148.27 L 147.18 147.31 C 147.47 146.50 147.05 145.60 146.24 145.31 C 145.43 145.02 144.54 145.44 144.24 146.25 L 143.90 147.21 C 143.61 148.02 144.03 148.92 144.84 149.21 C 145.65 149.50 146.55 149.08 146.84 148.27 Z M 147.14 147.40 L 147.58 146.39 C 147.93 145.60 147.56 144.68 146.77 144.34 C 145.98 143.99 145.06 144.36 144.72 145.15 L 144.28 146.16 C 143.94 146.95 144.30 147.87 145.09 148.21 C 145.88 148.55 146.80 148.19 147.14 147.40 Z M 147.55 146.46 L 147.97 145.60 C 148.35 144.82 148.03 143.89 147.26 143.51 C 146.48 143.13 145.55 143.45 145.17 144.22 L 144.75 145.08 C 144.37 145.86 144.69 146.79 145.47 147.17 C 146.24 147.55 147.18 147.23 147.55 146.46 Z M 147.95 145.65 L 148.43 144.76 C 148.83 144.00 148.55 143.05 147.79 142.64 C 147.03 142.24 146.08 142.52 145.67 143.28 L 145.20 144.17 C 144.79 144.93 145.08 145.88 145.84 146.29 C 146.60 146.69 147.54 146.41 147.95 145.65 Z M 148.40 144.81 L 148.92 143.92 C 149.35 143.17 149.10 142.22 148.36 141.78 C 147.62 141.35 146.66 141.60 146.22 142.34 L 145.70 143.23 C 145.27 143.97 145.52 144.93 146.26 145.37 C 147.00 145.80 147.96 145.55 148.40 144.81 Z M 148.88 143.97 L 149.44 143.11 C 149.91 142.39 149.70 141.42 148.97 140.95 C 148.25 140.49 147.28 140.70 146.81 141.42 L 146.26 142.28 C 145.79 143.01 146.00 143.97 146.73 144.44 C 147.45 144.91 148.42 144.70 148.88 143.97 Z M 149.39 143.18 L 149.97 142.38 C 150.47 141.68 150.32 140.70 149.62 140.20 C 148.92 139.69 147.94 139.85 147.44 140.55 L 146.86 141.35 C 146.36 142.05 146.51 143.03 147.21 143.53 C 147.91 144.04 148.89 143.88 149.39 143.18 Z M 149.90 142.47 L 150.62 141.61 C 151.18 140.95 151.09 139.96 150.43 139.41 C 149.77 138.85 148.78 138.94 148.23 139.60 L 147.51 140.46 C 146.95 141.12 147.04 142.11 147.70 142.66 C 148.36 143.22 149.35 143.13 149.90 142.47 Z M 150.52 141.72 L 151.27 140.99 C 151.89 140.39 151.90 139.40 151.30 138.78 C 150.70 138.16 149.71 138.15 149.09 138.75 L 148.34 139.49 C 147.72 140.09 147.71 141.08 148.31 141.69 C 148.91 142.31 149.90 142.32 150.52 141.72 Z M 151.12 141.12 L 151.89 140.54 C 152.58 140.02 152.71 139.04 152.19 138.35 C 151.67 137.66 150.69 137.52 150.01 138.04 L 149.24 138.63 C 148.55 139.15 148.41 140.12 148.93 140.81 C 149.45 141.50 150.43 141.64 151.12 141.12 Z M 151.69 140.66 L 152.48 140.24 C 153.23 139.83 153.52 138.88 153.10 138.12 C 152.69 137.36 151.75 137.08 150.99 137.49 L 150.20 137.92 C 149.45 138.33 149.17 139.28 149.58 140.03 C 149.99 140.79 150.94 141.07 151.69 140.66 Z M 152.20 140.36 L 153.16 140.05 C 153.99 139.80 154.45 138.92 154.19 138.10 C 153.94 137.28 153.06 136.82 152.24 137.07 L 151.27 137.37 C 150.45 137.63 149.99 138.50 150.24 139.33 C 150.50 140.15 151.37 140.61 152.20 140.36 Z M 152.77 140.12 L 153.78 140.08 C 154.64 140.04 155.31 139.31 155.27 138.45 C 155.23 137.59 154.50 136.92 153.64 136.96 L 152.63 137.00 C 151.77 137.04 151.10 137.77 151.14 138.63 C 151.18 139.50 151.91 140.16 152.77 140.12 Z M 153.29 140.02 L 154.20 140.28 C 155.03 140.51 155.89 140.03 156.13 139.20 C 156.36 138.37 155.88 137.50 155.05 137.27 L 154.13 137.01 C 153.30 136.78 152.44 137.27 152.20 138.10 C 151.97 138.93 152.46 139.79 153.29 140.02 Z M 153.70 140.03 L 154.40 140.55 C 155.10 141.06 156.07 140.92 156.59 140.22 C 157.10 139.53 156.95 138.55 156.26 138.04 L 155.55 137.52 C 154.86 137.01 153.88 137.15 153.37 137.85 C 152.86 138.54 153.00 139.52 153.70 140.03 Z M 154.06 140.21 L 154.58 140.92 C 155.08 141.62 156.06 141.78 156.76 141.28 C 157.46 140.77 157.62 139.80 157.11 139.10 L 156.60 138.38 C 156.09 137.68 155.12 137.53 154.42 138.03 C 153.72 138.54 153.56 139.51 154.06 140.21 Z M 154.42 140.64 L 154.82 141.55 C 155.17 142.34 156.09 142.70 156.88 142.35 C 157.67 142.01 158.03 141.08 157.68 140.30 L 157.27 139.38 C 156.93 138.59 156.00 138.23 155.22 138.58 C 154.43 138.93 154.07 139.85 154.42 140.64 Z M 154.75 141.35 L 155.06 142.44 C 155.29 143.27 156.15 143.75 156.98 143.52 C 157.81 143.29 158.29 142.42 158.06 141.59 L 157.75 140.50 C 157.52 139.67 156.65 139.19 155.82 139.42 C 154.99 139.66 154.51 140.52 154.75 141.35 Z M 155.02 142.31 L 155.22 143.34 C 155.38 144.19 156.20 144.74 157.05 144.58 C 157.89 144.42 158.45 143.60 158.29 142.75 L 158.09 141.72 C 157.93 140.88 157.11 140.32 156.26 140.48 C 155.42 140.65 154.86 141.46 155.02 142.31 Z M 155.21 143.26 L 155.35 144.27 C 155.47 145.12 156.25 145.72 157.11 145.60 C 157.96 145.48 158.56 144.69 158.44 143.84 L 158.30 142.83 C 158.18 141.98 157.39 141.38 156.54 141.50 C 155.69 141.62 155.09 142.41 155.21 143.26 Z M 155.34 144.21 L 155.45 145.24 C 155.53 146.10 156.30 146.72 157.16 146.64 C 158.02 146.55 158.64 145.78 158.55 144.92 L 158.45 143.89 C 158.36 143.04 157.59 142.41 156.73 142.50 C 155.88 142.59 155.25 143.36 155.34 144.21 Z M 155.44 145.20 L 155.52 146.22 C 155.59 147.08 156.34 147.72 157.19 147.66 C 158.05 147.59 158.70 146.84 158.63 145.98 L 158.56 144.97 C 158.49 144.11 157.74 143.46 156.88 143.53 C 156.02 143.59 155.38 144.34 155.44 145.20 Z M 155.52 146.19 L 155.57 147.16 C 155.62 148.02 156.36 148.68 157.22 148.63 C 158.08 148.58 158.74 147.84 158.69 146.98 L 158.64 146.01 C 158.59 145.15 157.85 144.49 156.99 144.54 C 156.13 144.59 155.47 145.33 155.52 146.19 Z M 155.57 147.13 L 155.61 148.20 C 155.65 149.06 156.37 149.73 157.24 149.70 C 158.10 149.66 158.77 148.94 158.73 148.08 L 158.69 147.01 C 158.66 146.14 157.93 145.47 157.07 145.51 C 156.21 145.54 155.54 146.27 155.57 147.13 Z M 155.61 148.18 L 155.64 149.20 C 155.66 150.07 156.37 150.75 157.24 150.73 C 158.10 150.71 158.78 149.99 158.76 149.13 L 158.73 148.10 C 158.71 147.24 158.00 146.56 157.14 146.58 C 156.27 146.60 155.59 147.31 155.61 148.18 Z M 155.64 149.18 L 155.65 150.13 C 155.66 151.00 156.36 151.69 157.22 151.68 C 158.09 151.67 158.78 150.97 158.77 150.10 L 158.76 149.15 C 158.75 148.29 158.05 147.60 157.18 147.60 C 156.32 147.61 155.63 148.32 155.64 149.18 Z M 155.65 150.12 L 155.65 151.05 C 155.65 151.91 156.35 152.61 157.21 152.61 C 158.07 152.61 158.77 151.91 158.77 151.05 L 158.77 150.12 C 158.77 149.25 158.07 148.56 157.21 148.56 C 156.34 148.56 155.65 149.26 155.65 150.12 Z M 155.65 151.05 L 155.65 152.02 C 155.65 152.88 156.34 153.58 157.21 153.58 C 158.07 153.58 158.77 152.88 158.77 152.02 L 158.77 151.05 C 158.77 150.19 158.07 149.49 157.21 149.49 C 156.35 149.49 155.65 150.19 155.65 151.05 Z M 155.65 152.00 L 155.63 153.00 C 155.62 153.86 156.31 154.57 157.17 154.58 C 158.04 154.59 158.74 153.90 158.76 153.04 L 158.77 152.04 C 158.78 151.18 158.09 150.47 157.23 150.46 C 156.37 150.45 155.66 151.14 155.65 152.00 Z M 155.63 152.96 L 155.60 153.97 C 155.57 154.83 156.24 155.56 157.10 155.59 C 157.96 155.62 158.69 154.95 158.72 154.09 L 158.75 153.08 C 158.79 152.21 158.11 151.49 157.25 151.46 C 156.39 151.43 155.67 152.10 155.63 152.96 Z M 155.60 153.92 L 155.53 154.92 C 155.46 155.78 156.11 156.53 156.97 156.60 C 157.83 156.66 158.58 156.01 158.64 155.15 L 158.71 154.14 C 158.78 153.28 158.13 152.54 157.27 152.47 C 156.41 152.41 155.66 153.06 155.60 153.92 Z M 155.53 154.86 L 155.42 155.84 C 155.32 156.69 155.93 157.47 156.78 157.57 C 157.64 157.67 158.42 157.06 158.52 156.20 L 158.63 155.22 C 158.74 154.37 158.12 153.59 157.27 153.49 C 156.41 153.39 155.63 154.00 155.53 154.86 Z M 155.43 155.77 L 155.27 156.75 C 155.13 157.60 155.71 158.40 156.56 158.54 C 157.41 158.68 158.21 158.10 158.35 157.25 L 158.51 156.27 C 158.65 155.42 158.07 154.62 157.22 154.48 C 156.37 154.34 155.56 154.92 155.43 155.77 Z M 155.28 156.69 L 155.08 157.68 C 154.91 158.52 155.46 159.35 156.30 159.52 C 157.15 159.69 157.97 159.14 158.14 158.29 L 158.34 157.31 C 158.51 156.46 157.96 155.64 157.12 155.47 C 156.27 155.30 155.45 155.85 155.28 156.69 Z M 155.09 157.63 L 154.86 158.61 C 154.66 159.45 155.18 160.29 156.02 160.48 C 156.86 160.68 157.70 160.16 157.90 159.32 L 158.13 158.34 C 158.33 157.50 157.81 156.66 156.97 156.47 C 156.13 156.27 155.29 156.79 155.09 157.63 Z M 154.87 158.56 L 154.62 159.51 C 154.40 160.35 154.90 161.20 155.73 161.42 C 156.57 161.64 157.42 161.15 157.64 160.31 L 157.89 159.36 C 158.11 158.53 157.61 157.67 156.78 157.45 C 155.95 157.23 155.09 157.73 154.87 158.56 Z M 154.63 159.48 L 154.35 160.44 C 154.11 161.27 154.59 162.13 155.42 162.37 C 156.25 162.61 157.11 162.14 157.35 161.31 L 157.63 160.35 C 157.87 159.52 157.39 158.65 156.56 158.41 C 155.74 158.17 154.87 158.65 154.63 159.48 Z M 154.36 160.41 L 154.06 161.38 C 153.81 162.20 154.27 163.08 155.09 163.33 C 155.91 163.59 156.79 163.13 157.04 162.30 L 157.34 161.34 C 157.60 160.51 157.14 159.64 156.32 159.38 C 155.49 159.13 154.62 159.59 154.36 160.41 Z M 154.07 161.35 L 153.75 162.32 C 153.48 163.14 153.93 164.02 154.75 164.29 C 155.57 164.56 156.45 164.11 156.72 163.29 L 157.04 162.33 C 157.31 161.51 156.86 160.63 156.04 160.36 C 155.22 160.09 154.34 160.53 154.07 161.35 Z M 153.76 162.29 L 153.44 163.23 C 153.16 164.05 153.59 164.93 154.40 165.22 C 155.22 165.50 156.11 165.06 156.39 164.25 L 156.71 163.31 C 156.99 162.50 156.56 161.61 155.75 161.33 C 154.93 161.05 154.04 161.48 153.76 162.29 Z M 153.45 163.21 L 153.11 164.14 C 152.81 164.95 153.23 165.85 154.04 166.14 C 154.85 166.44 155.75 166.02 156.04 165.21 L 156.38 164.27 C 156.68 163.46 156.26 162.57 155.45 162.27 C 154.64 161.98 153.74 162.40 153.45 163.21 Z M 153.12 164.12 L 152.76 165.06 C 152.45 165.86 152.85 166.76 153.66 167.07 C 154.46 167.38 155.36 166.98 155.67 166.17 L 156.03 165.24 C 156.34 164.43 155.94 163.53 155.13 163.22 C 154.33 162.91 153.42 163.31 153.12 164.12 Z M 152.77 165.03 L 152.39 165.97 C 152.06 166.77 152.45 167.68 153.25 168.00 C 154.05 168.32 154.96 167.94 155.28 167.14 L 155.66 166.20 C 155.98 165.40 155.60 164.49 154.80 164.17 C 154.00 163.84 153.09 164.23 152.77 165.03 Z M 152.40 165.94 L 152.01 166.85 C 151.67 167.64 152.04 168.56 152.83 168.90 C 153.62 169.24 154.54 168.87 154.88 168.08 L 155.27 167.17 C 155.61 166.37 155.24 165.45 154.45 165.12 C 153.66 164.78 152.74 165.15 152.40 165.94 Z M 152.02 166.82 L 151.61 167.73 C 151.26 168.52 151.61 169.44 152.40 169.80 C 153.18 170.15 154.11 169.80 154.46 169.01 L 154.87 168.10 C 155.22 167.32 154.87 166.39 154.09 166.04 C 153.30 165.69 152.37 166.04 152.02 166.82 Z M 151.62 167.71 L 151.20 168.62 C 150.83 169.40 151.16 170.33 151.94 170.69 C 152.72 171.06 153.65 170.73 154.02 169.95 L 154.45 169.04 C 154.82 168.26 154.48 167.33 153.70 166.96 C 152.92 166.59 151.99 166.93 151.62 167.71 Z M 151.21 168.59 L 150.76 169.50 C 150.38 170.27 150.70 171.21 151.48 171.59 C 152.25 171.96 153.19 171.65 153.57 170.87 L 154.01 169.97 C 154.39 169.20 154.07 168.26 153.30 167.88 C 152.52 167.50 151.59 167.82 151.21 168.59 Z M 150.78 169.47 L 150.32 170.36 C 149.93 171.13 150.24 172.07 151.00 172.46 C 151.77 172.85 152.71 172.55 153.10 171.78 L 153.56 170.89 C 153.95 170.13 153.64 169.19 152.88 168.79 C 152.11 168.40 151.17 168.71 150.78 169.47 Z M 150.34 170.34 L 149.87 171.21 C 149.47 171.97 149.76 172.92 150.52 173.32 C 151.28 173.72 152.23 173.44 152.63 172.67 L 153.09 171.80 C 153.50 171.04 153.21 170.09 152.45 169.69 C 151.68 169.29 150.74 169.57 150.34 170.34 Z M 149.88 171.19 L 149.40 172.06 C 148.99 172.81 149.26 173.76 150.01 174.18 C 150.77 174.60 151.72 174.32 152.14 173.57 L 152.62 172.70 C 153.03 171.94 152.76 170.99 152.01 170.58 C 151.25 170.16 150.30 170.43 149.88 171.19 Z M 149.42 172.03 L 148.91 172.91 C 148.48 173.65 148.74 174.61 149.49 175.04 C 150.23 175.47 151.19 175.21 151.62 174.46 L 152.12 173.59 C 152.55 172.85 152.30 171.89 151.55 171.46 C 150.80 171.03 149.85 171.29 149.42 172.03 Z M 148.93 172.88 L 148.40 173.75 C 147.96 174.49 148.20 175.45 148.94 175.90 C 149.68 176.34 150.64 176.10 151.08 175.36 L 151.60 174.49 C 152.05 173.75 151.81 172.79 151.07 172.35 C 150.33 171.90 149.37 172.14 148.93 172.88 Z M 148.42 173.73 L 147.88 174.59 C 147.42 175.32 147.65 176.28 148.38 176.74 C 149.11 177.20 150.07 176.97 150.53 176.24 L 151.06 175.39 C 151.52 174.66 151.30 173.69 150.57 173.23 C 149.84 172.78 148.88 173.00 148.42 173.73 Z M 147.90 174.56 L 147.34 175.41 C 146.87 176.13 147.08 177.10 147.80 177.57 C 148.52 178.04 149.49 177.84 149.96 177.12 L 150.51 176.27 C 150.98 175.54 150.78 174.58 150.06 174.11 C 149.33 173.64 148.37 173.84 147.90 174.56 Z M 147.36 175.39 L 146.79 176.22 C 146.31 176.93 146.50 177.91 147.21 178.39 C 147.92 178.87 148.89 178.69 149.38 177.97 L 149.94 177.14 C 150.43 176.43 150.24 175.46 149.53 174.97 C 148.81 174.49 147.84 174.67 147.36 175.39 Z M 146.81 176.20 L 146.24 177.00 C 145.75 177.70 145.91 178.68 146.62 179.18 C 147.32 179.67 148.30 179.51 148.79 178.80 L 149.36 178.00 C 149.86 177.29 149.69 176.32 148.99 175.82 C 148.28 175.32 147.31 175.49 146.81 176.20 Z M 146.26 176.97 L 145.66 177.79 C 145.15 178.48 145.29 179.46 145.99 179.97 C 146.68 180.48 147.66 180.34 148.17 179.64 L 148.77 178.83 C 149.29 178.14 149.14 177.16 148.45 176.65 C 147.75 176.13 146.78 176.28 146.26 176.97 Z M 145.69 177.76 L 145.06 178.56 C 144.53 179.24 144.65 180.22 145.33 180.75 C 146.01 181.28 146.99 181.16 147.52 180.48 L 148.15 179.68 C 148.68 179.00 148.56 178.02 147.88 177.48 C 147.20 176.95 146.22 177.08 145.69 177.76 Z M 145.09 178.52 L 144.45 179.29 C 143.91 179.95 144.00 180.94 144.66 181.49 C 145.33 182.03 146.31 181.94 146.86 181.28 L 147.49 180.51 C 148.04 179.85 147.95 178.87 147.28 178.32 C 146.62 177.77 145.64 177.86 145.09 178.52 Z M 144.48 179.25 L 143.84 179.99 C 143.27 180.63 143.34 181.62 143.98 182.19 C 144.63 182.76 145.62 182.69 146.19 182.04 L 146.83 181.31 C 147.40 180.66 147.34 179.68 146.69 179.11 C 146.04 178.54 145.05 178.60 144.48 179.25 Z M 143.87 179.95 L 143.20 180.67 C 142.61 181.30 142.65 182.29 143.28 182.88 C 143.91 183.47 144.90 183.43 145.49 182.80 L 146.16 182.08 C 146.74 181.45 146.71 180.46 146.08 179.87 C 145.45 179.29 144.46 179.32 143.87 179.95 Z M 143.23 180.64 L 142.53 181.35 C 141.92 181.96 141.93 182.95 142.54 183.56 C 143.16 184.16 144.15 184.16 144.75 183.54 L 145.45 182.83 C 146.06 182.22 146.05 181.23 145.44 180.62 C 144.83 180.02 143.84 180.03 143.23 180.64 Z M 142.56 181.32 L 141.84 182.01 C 141.22 182.61 141.19 183.59 141.79 184.22 C 142.38 184.84 143.37 184.86 144.00 184.27 L 144.72 183.58 C 145.34 182.98 145.37 181.99 144.77 181.37 C 144.17 180.74 143.19 180.72 142.56 181.32 Z M 141.87 181.98 L 141.13 182.65 C 140.49 183.23 140.44 184.21 141.01 184.85 C 141.59 185.49 142.58 185.55 143.22 184.97 L 143.96 184.30 C 144.60 183.72 144.65 182.73 144.08 182.09 C 143.50 181.45 142.51 181.40 141.87 181.98 Z M 141.16 182.62 L 140.40 183.27 C 139.74 183.83 139.66 184.81 140.22 185.47 C 140.78 186.13 141.76 186.21 142.42 185.65 L 143.18 185.00 C 143.84 184.44 143.92 183.46 143.36 182.80 C 142.81 182.14 141.82 182.06 141.16 182.62 Z M 140.43 183.24 L 139.65 183.87 C 138.97 184.41 138.86 185.39 139.40 186.06 C 139.94 186.74 140.92 186.85 141.59 186.31 L 142.38 185.68 C 143.06 185.14 143.17 184.16 142.63 183.49 C 142.09 182.81 141.11 182.70 140.43 183.24 Z M 139.68 183.84 L 138.88 184.44 C 138.19 184.95 138.05 185.93 138.57 186.62 C 139.09 187.31 140.06 187.45 140.75 186.94 L 141.56 186.34 C 142.25 185.82 142.39 184.84 141.87 184.15 C 141.35 183.46 140.37 183.32 139.68 183.84 Z M 138.92 184.41 L 138.11 184.98 C 137.40 185.47 137.23 186.45 137.73 187.15 C 138.22 187.86 139.19 188.03 139.90 187.54 L 140.71 186.97 C 141.42 186.47 141.59 185.50 141.10 184.79 C 140.60 184.09 139.63 183.91 138.92 184.41 Z M 138.15 184.95 L 137.31 185.50 C 136.59 185.97 136.39 186.93 136.86 187.66 C 137.33 188.38 138.30 188.58 139.02 188.11 L 139.86 187.56 C 140.58 187.09 140.78 186.13 140.31 185.40 C 139.84 184.68 138.88 184.48 138.15 184.95 Z M 137.36 185.47 L 136.49 185.99 C 135.76 186.44 135.52 187.40 135.97 188.14 C 136.42 188.87 137.38 189.11 138.11 188.66 L 138.98 188.14 C 139.71 187.69 139.95 186.73 139.50 185.99 C 139.05 185.26 138.09 185.02 137.36 185.47 Z M 136.53 185.97 L 135.66 186.46 C 134.92 186.89 134.65 187.84 135.08 188.59 C 135.51 189.34 136.46 189.60 137.21 189.18 L 138.08 188.68 C 138.83 188.26 139.09 187.30 138.66 186.55 C 138.23 185.81 137.28 185.54 136.53 185.97 Z M 135.70 186.45 L 134.83 186.91 C 134.07 187.32 133.78 188.27 134.19 189.03 C 134.60 189.79 135.55 190.07 136.31 189.66 L 137.18 189.19 C 137.94 188.79 138.22 187.84 137.81 187.08 C 137.40 186.32 136.46 186.04 135.70 186.45 Z M 134.85 186.90 L 133.96 187.36 C 133.19 187.76 132.89 188.70 133.28 189.46 C 133.68 190.23 134.62 190.53 135.39 190.14 L 136.28 189.68 C 137.05 189.28 137.35 188.34 136.95 187.57 C 136.56 186.81 135.62 186.51 134.85 186.90 Z M 133.98 187.35 L 133.08 187.79 C 132.31 188.18 131.99 189.11 132.37 189.88 C 132.75 190.66 133.69 190.98 134.46 190.59 L 135.36 190.15 C 136.14 189.77 136.45 188.83 136.07 188.06 C 135.69 187.29 134.76 186.97 133.98 187.35 Z M 133.11 187.78 L 132.20 188.21 C 131.42 188.58 131.09 189.51 131.46 190.29 C 131.83 191.07 132.76 191.40 133.54 191.03 L 134.44 190.61 C 135.22 190.24 135.55 189.31 135.18 188.53 C 134.82 187.75 133.89 187.41 133.11 187.78 Z M 132.23 188.20 L 131.33 188.60 C 130.54 188.95 130.19 189.88 130.55 190.66 C 130.90 191.45 131.83 191.80 132.61 191.45 L 133.51 191.04 C 134.30 190.69 134.65 189.76 134.29 188.98 C 133.94 188.19 133.02 187.84 132.23 188.20 Z M 131.36 188.59 L 130.50 188.95 C 129.70 189.29 129.33 190.20 129.67 191.00 C 130.00 191.79 130.92 192.16 131.71 191.83 L 132.58 191.46 C 133.37 191.13 133.74 190.21 133.41 189.42 C 133.07 188.62 132.16 188.25 131.36 188.59 Z M 130.56 188.93 L 129.66 189.26 C 128.85 189.57 128.44 190.46 128.74 191.27 C 129.04 192.08 129.94 192.49 130.75 192.19 L 131.65 191.85 C 132.46 191.55 132.87 190.65 132.57 189.85 C 132.27 189.04 131.37 188.63 130.56 188.93 Z M 129.75 189.23 L 128.77 189.53 C 127.95 189.78 127.48 190.65 127.73 191.47 C 127.98 192.30 128.85 192.77 129.68 192.52 L 130.65 192.22 C 131.48 191.97 131.94 191.10 131.69 190.27 C 131.44 189.45 130.57 188.98 129.75 189.23 Z M 128.88 189.50 L 127.85 189.73 C 127.01 189.92 126.48 190.76 126.67 191.60 C 126.86 192.44 127.70 192.97 128.54 192.78 L 129.57 192.55 C 130.41 192.36 130.94 191.52 130.75 190.68 C 130.56 189.84 129.72 189.31 128.88 189.50 Z M 127.95 189.71 L 127.03 189.86 C 126.18 190.00 125.61 190.80 125.74 191.65 C 125.88 192.51 126.69 193.08 127.54 192.94 L 128.45 192.80 C 129.30 192.66 129.88 191.85 129.74 191.00 C 129.60 190.15 128.80 189.58 127.95 189.71 Z M 127.09 189.85 L 126.12 189.97 C 125.27 190.08 124.66 190.86 124.76 191.72 C 124.87 192.57 125.65 193.18 126.51 193.07 L 127.48 192.95 C 128.33 192.85 128.94 192.07 128.83 191.21 C 128.73 190.36 127.95 189.75 127.09 189.85 Z M 126.16 189.97 L 125.14 190.07 C 124.29 190.15 123.66 190.92 123.74 191.78 C 123.83 192.63 124.59 193.26 125.45 193.18 L 126.47 193.08 C 127.32 192.99 127.95 192.23 127.87 191.37 C 127.78 190.51 127.02 189.89 126.16 189.97 Z M 125.17 190.07 L 124.12 190.15 C 123.26 190.22 122.63 190.98 122.70 191.84 C 122.77 192.70 123.52 193.34 124.38 193.27 L 125.43 193.18 C 126.28 193.11 126.92 192.35 126.85 191.50 C 126.78 190.64 126.03 190.00 125.17 190.07 Z M 124.13 190.15 L 123.27 190.22 C 122.41 190.28 121.77 191.03 121.83 191.89 C 121.90 192.75 122.65 193.40 123.51 193.33 L 124.37 193.27 C 125.23 193.20 125.87 192.45 125.81 191.59 C 125.74 190.73 124.99 190.09 124.13 190.15 Z"
      fill="black"
      fill-rule="nonzero" /></svg>