<svg xmlns="http://www.w3.org/2000/svg" width="300" height="300" viewBox="0 0 300 300">
<path d="M 151.06 143.32 L 150.38 144.01 C 149.77 144.63 149.78 145.62 150.40 146.22 C 151.01 146.82 152.00 146.81 152.61 146.20 L 153.28 145.51 C 153.89 144.89 153.88 143.90 153.26 143.30 C 152.65 142.70 151.66 142.71 151.06 143.32 Z M 150.32 144.08 L 149.67 144.81 C 149.10 145.46 149.17 146.45 149.82 147.02 C 150.46 147.58 151.45 147.52 152.02 146.87 L 152.67 146.13 C 153.23 145.49 153.17 144.50 152.52 143.93 C 151.87 143.36 150.89 143.43 150.32 144.08 Z M 149.57 144.94 L 148.98 145.77 C 148.49 146.48 148.66 147.45 149.36 147.95 C 150.07 148.45 151.04 148.28 151.54 147.57 L 152.12 146.74 C 152.62 146.04 152.45 145.06 151.74 144.57 C 151.04 144.07 150.07 144.24 149.57 144.94 Z M 148.87 145.96 L 148.42 146.84 C 148.02 147.61 148.32 148.55 149.09 148.94 C 149.85 149.34 150.80 149.04 151.19 148.27 L 151.65 147.39 C 152.04 146.62 151.74 145.68 150.98 145.29 C 150.21 144.89 149.27 145.19 148.87 145.96 Z M 148.35 147.00 L 148.00 147.91 C 147.69 148.72 148.10 149.62 148.90 149.93 C 149.71 150.23 150.61 149.83 150.92 149.02 L 151.26 148.11 C 151.57 147.31 151.17 146.40 150.36 146.10 C 149.55 145.79 148.65 146.20 148.35 147.00 Z M 147.96 148.02 L 147.67 148.99 C 147.42 149.82 147.89 150.69 148.72 150.93 C 149.55 151.18 150.42 150.71 150.66 149.89 L 150.95 148.91 C 151.20 148.09 150.73 147.22 149.91 146.97 C 149.08 146.72 148.21 147.19 147.96 148.02 Z M 147.65 149.06 L 147.40 150.06 C 147.19 150.89 147.70 151.74 148.54 151.95 C 149.37 152.16 150.22 151.65 150.43 150.82 L 150.68 149.82 C 150.89 148.98 150.38 148.13 149.55 147.92 C 148.71 147.71 147.86 148.22 147.65 149.06 Z M 147.39 150.09 L 147.17 151.09 C 146.98 151.93 147.50 152.76 148.34 152.96 C 149.18 153.15 150.02 152.62 150.21 151.78 L 150.44 150.79 C 150.63 149.94 150.10 149.11 149.26 148.92 C 148.42 148.72 147.59 149.25 147.39 150.09 Z M 147.16 151.10 L 146.95 152.08 C 146.76 152.92 147.29 153.75 148.14 153.94 C 148.98 154.13 149.81 153.59 150.00 152.75 L 150.21 151.77 C 150.40 150.93 149.87 150.10 149.03 149.91 C 148.18 149.72 147.35 150.26 147.16 151.10 Z M 146.95 152.08 L 146.73 153.05 C 146.55 153.89 147.08 154.72 147.92 154.91 C 148.76 155.09 149.60 154.56 149.78 153.72 L 150.00 152.75 C 150.18 151.91 149.65 151.08 148.81 150.89 C 147.97 150.70 147.13 151.24 146.95 152.08 Z M 146.74 153.04 L 146.52 154.00 C 146.32 154.84 146.85 155.68 147.69 155.87 C 148.53 156.06 149.37 155.54 149.56 154.70 L 149.78 153.73 C 149.97 152.89 149.45 152.05 148.61 151.86 C 147.77 151.67 146.93 152.20 146.74 153.04 Z M 146.52 153.98 L 146.28 154.96 C 146.08 155.80 146.60 156.64 147.44 156.84 C 148.27 157.05 149.12 156.53 149.32 155.69 L 149.56 154.72 C 149.76 153.88 149.24 153.04 148.40 152.83 C 147.57 152.63 146.72 153.15 146.52 153.98 Z M 146.29 154.94 L 146.04 155.91 C 145.82 156.74 146.33 157.60 147.16 157.81 C 148.00 158.03 148.85 157.53 149.06 156.69 L 149.31 155.72 C 149.53 154.88 149.03 154.03 148.19 153.81 C 147.36 153.60 146.51 154.10 146.29 154.94 Z M 146.04 155.89 L 145.78 156.87 C 145.55 157.70 146.04 158.56 146.87 158.78 C 147.70 159.01 148.56 158.52 148.79 157.69 L 149.06 156.71 C 149.28 155.88 148.79 155.02 147.96 154.79 C 147.13 154.57 146.27 155.06 146.04 155.89 Z M 145.78 156.84 L 145.50 157.81 C 145.27 158.64 145.74 159.50 146.57 159.74 C 147.40 159.98 148.27 159.50 148.50 158.67 L 148.78 157.71 C 149.02 156.88 148.54 156.02 147.72 155.78 C 146.89 155.54 146.02 156.02 145.78 156.84 Z M 145.51 157.79 L 145.23 158.73 C 144.98 159.55 145.44 160.42 146.27 160.67 C 147.09 160.92 147.96 160.46 148.21 159.63 L 148.50 158.69 C 148.75 157.87 148.28 157.00 147.46 156.75 C 146.63 156.50 145.76 156.96 145.51 157.79 Z M 145.23 158.70 L 144.92 159.68 C 144.65 160.50 145.10 161.38 145.92 161.65 C 146.74 161.91 147.62 161.47 147.89 160.64 L 148.21 159.66 C 148.47 158.84 148.02 157.96 147.20 157.69 C 146.38 157.43 145.50 157.88 145.23 158.70 Z M 144.94 159.63 L 144.59 160.56 C 144.29 161.37 144.71 162.27 145.52 162.57 C 146.33 162.86 147.23 162.45 147.52 161.64 L 147.87 160.70 C 148.16 159.89 147.75 159.00 146.94 158.70 C 146.13 158.40 145.23 158.82 144.94 159.63 Z M 144.63 160.47 L 144.23 161.37 C 143.89 162.16 144.25 163.08 145.04 163.43 C 145.83 163.77 146.75 163.41 147.09 162.62 L 147.49 161.73 C 147.83 160.94 147.47 160.02 146.68 159.67 C 145.90 159.32 144.97 159.68 144.63 160.47 Z M 144.29 161.25 L 143.79 162.17 C 143.38 162.93 143.66 163.88 144.41 164.29 C 145.17 164.71 146.12 164.43 146.53 163.67 L 147.04 162.74 C 147.45 161.99 147.17 161.04 146.41 160.63 C 145.65 160.21 144.71 160.49 144.29 161.25 Z M 143.88 162.02 L 143.18 163.02 C 142.68 163.73 142.85 164.70 143.55 165.20 C 144.26 165.70 145.23 165.53 145.73 164.82 L 146.44 163.82 C 146.93 163.12 146.76 162.14 146.06 161.65 C 145.36 161.15 144.38 161.32 143.88 162.02 Z M 143.38 162.79 L 142.69 163.44 C 142.07 164.04 142.05 165.03 142.64 165.65 C 143.23 166.27 144.22 166.30 144.85 165.70 L 145.53 165.05 C 146.15 164.46 146.18 163.47 145.59 162.85 C 144.99 162.22 144.00 162.20 143.38 162.79 Z M 143.62 163.02 L 143.10 163.07 C 142.24 163.15 141.61 163.92 141.69 164.78 C 141.78 165.63 142.54 166.26 143.40 166.18 L 143.92 166.13 C 144.78 166.04 145.41 165.28 145.32 164.42 C 145.24 163.56 144.48 162.94 143.62 163.02 Z M 144.67 163.99 L 144.38 163.33 C 144.03 162.54 143.10 162.19 142.32 162.54 C 141.53 162.89 141.18 163.81 141.53 164.60 L 141.82 165.26 C 142.17 166.05 143.10 166.40 143.88 166.05 C 144.67 165.70 145.03 164.78 144.67 163.99 Z M 144.51 163.79 L 144.38 162.63 C 144.28 161.77 143.51 161.15 142.66 161.24 C 141.80 161.34 141.18 162.11 141.27 162.96 L 141.40 164.13 C 141.50 164.99 142.27 165.61 143.12 165.52 C 143.98 165.42 144.60 164.65 144.51 163.79 Z M 144.39 162.74 L 144.35 161.60 C 144.31 160.73 143.59 160.06 142.73 160.09 C 141.87 160.12 141.19 160.85 141.22 161.71 L 141.27 162.85 C 141.30 163.71 142.02 164.39 142.88 164.35 C 143.74 164.32 144.42 163.60 144.39 162.74 Z M 144.35 161.64 L 144.34 160.69 C 144.33 159.83 143.62 159.14 142.76 159.15 C 141.90 159.15 141.21 159.86 141.21 160.72 L 141.22 161.67 C 141.23 162.53 141.94 163.22 142.80 163.21 C 143.66 163.21 144.35 162.50 144.35 161.64 Z M 144.34 160.74 L 144.36 159.75 C 144.37 158.88 143.69 158.17 142.83 158.15 C 141.97 158.14 141.25 158.82 141.23 159.68 L 141.21 160.67 C 141.20 161.54 141.88 162.25 142.74 162.27 C 143.61 162.29 144.32 161.60 144.34 160.74 Z M 144.35 159.81 L 144.42 158.77 C 144.47 157.91 143.81 157.17 142.95 157.12 C 142.09 157.07 141.35 157.73 141.30 158.59 L 141.24 159.62 C 141.19 160.48 141.84 161.22 142.70 161.27 C 143.56 161.32 144.30 160.67 144.35 159.81 Z M 144.41 158.85 L 144.52 157.78 C 144.62 156.92 144.00 156.15 143.14 156.06 C 142.28 155.97 141.51 156.59 141.42 157.45 L 141.31 158.51 C 141.21 159.37 141.83 160.14 142.69 160.23 C 143.55 160.33 144.32 159.70 144.41 158.85 Z M 144.51 157.86 L 144.66 156.90 C 144.80 156.05 144.22 155.25 143.36 155.12 C 142.51 154.98 141.71 155.57 141.58 156.42 L 141.43 157.37 C 141.30 158.22 141.88 159.02 142.73 159.16 C 143.58 159.29 144.38 158.71 144.51 157.86 Z M 144.65 156.96 L 144.85 156.00 C 145.01 155.15 144.46 154.33 143.62 154.16 C 142.77 153.99 141.95 154.54 141.78 155.39 L 141.59 156.36 C 141.42 157.20 141.97 158.02 142.82 158.19 C 143.66 158.36 144.49 157.81 144.65 156.96 Z M 144.83 156.05 L 145.06 155.07 C 145.26 154.23 144.74 153.39 143.90 153.20 C 143.06 153.00 142.22 153.52 142.02 154.36 L 141.79 155.34 C 141.60 156.18 142.12 157.02 142.96 157.21 C 143.80 157.41 144.64 156.89 144.83 156.05 Z M 145.05 155.11 L 145.31 154.13 C 145.53 153.29 145.03 152.44 144.20 152.22 C 143.36 152.00 142.51 152.50 142.29 153.34 L 142.03 154.32 C 141.81 155.15 142.31 156.01 143.15 156.23 C 143.98 156.44 144.83 155.95 145.05 155.11 Z M 145.30 154.16 L 145.58 153.18 C 145.82 152.35 145.34 151.48 144.51 151.25 C 143.68 151.01 142.82 151.49 142.58 152.32 L 142.30 153.30 C 142.06 154.13 142.54 155.00 143.37 155.23 C 144.20 155.47 145.07 154.99 145.30 154.16 Z M 145.58 153.20 L 145.87 152.24 C 146.12 151.41 145.65 150.54 144.83 150.29 C 144.00 150.04 143.13 150.50 142.88 151.33 L 142.59 152.30 C 142.34 153.12 142.80 153.99 143.63 154.24 C 144.45 154.49 145.33 154.03 145.58 153.20 Z M 145.86 152.26 L 146.17 151.30 C 146.43 150.48 145.97 149.60 145.15 149.34 C 144.33 149.08 143.45 149.53 143.19 150.35 L 142.89 151.31 C 142.62 152.13 143.08 153.01 143.90 153.27 C 144.72 153.53 145.60 153.08 145.86 152.26 Z M 146.16 151.32 L 146.48 150.37 C 146.75 149.55 146.31 148.67 145.49 148.39 C 144.67 148.12 143.79 148.56 143.52 149.38 L 143.20 150.33 C 142.93 151.15 143.37 152.03 144.18 152.31 C 145.00 152.58 145.89 152.14 146.16 151.32 Z M 146.47 150.39 L 146.80 149.45 C 147.08 148.63 146.65 147.74 145.84 147.46 C 145.03 147.17 144.14 147.60 143.85 148.42 L 143.52 149.36 C 143.24 150.17 143.67 151.06 144.48 151.35 C 145.30 151.63 146.19 151.20 146.47 150.39 Z M 146.79 149.47 L 147.13 148.53 C 147.43 147.72 147.01 146.82 146.20 146.53 C 145.39 146.24 144.49 146.65 144.20 147.46 L 143.86 148.40 C 143.56 149.21 143.98 150.10 144.79 150.40 C 145.60 150.69 146.50 150.28 146.79 149.47 Z M 147.13 148.55 L 147.49 147.59 C 147.79 146.79 147.39 145.88 146.58 145.58 C 145.77 145.27 144.87 145.68 144.57 146.49 L 144.21 147.44 C 143.90 148.25 144.31 149.15 145.11 149.46 C 145.92 149.76 146.82 149.36 147.13 148.55 Z M 147.48 147.61 L 147.86 146.63 C 148.18 145.83 147.78 144.92 146.98 144.61 C 146.18 144.30 145.27 144.69 144.96 145.49 L 144.57 146.47 C 144.26 147.27 144.66 148.18 145.46 148.49 C 146.26 148.81 147.17 148.41 147.48 147.61 Z M 147.86 146.65 L 148.24 145.70 C 148.57 144.90 148.18 143.99 147.38 143.67 C 146.58 143.34 145.67 143.73 145.35 144.53 L 144.96 145.48 C 144.64 146.28 145.03 147.19 145.82 147.51 C 146.62 147.83 147.53 147.45 147.86 146.65 Z M 148.24 145.71 L 148.62 144.80 C 148.95 144.00 148.58 143.09 147.78 142.76 C 146.99 142.42 146.07 142.80 145.74 143.59 L 145.36 144.51 C 145.02 145.31 145.40 146.22 146.19 146.55 C 146.99 146.89 147.90 146.51 148.24 145.71 Z M 148.61 144.81 L 148.99 143.94 C 149.33 143.15 148.96 142.23 148.17 141.89 C 147.38 141.55 146.46 141.92 146.12 142.71 L 145.75 143.58 C 145.40 144.37 145.77 145.29 146.56 145.63 C 147.35 145.97 148.27 145.61 148.61 144.81 Z M 148.98 143.96 L 149.39 143.04 C 149.74 142.25 149.39 141.33 148.60 140.98 C 147.81 140.63 146.89 140.98 146.54 141.77 L 146.13 142.69 C 145.78 143.48 146.13 144.40 146.92 144.75 C 147.71 145.10 148.63 144.75 148.98 143.96 Z M 149.38 143.07 L 149.82 142.13 C 150.18 141.35 149.85 140.42 149.07 140.05 C 148.29 139.68 147.36 140.02 146.99 140.80 L 146.55 141.74 C 146.18 142.52 146.52 143.45 147.30 143.82 C 148.08 144.18 149.01 143.85 149.38 143.07 Z M 149.79 142.18 L 150.24 141.30 C 150.63 140.54 150.33 139.60 149.56 139.20 C 148.80 138.81 147.86 139.11 147.46 139.88 L 147.02 140.75 C 146.62 141.52 146.92 142.46 147.69 142.85 C 148.46 143.25 149.40 142.94 149.79 142.18 Z M 150.20 141.37 L 150.68 140.55 C 151.11 139.81 150.86 138.85 150.11 138.42 C 149.37 137.99 148.41 138.24 147.98 138.99 L 147.50 139.81 C 147.07 140.55 147.32 141.51 148.07 141.94 C 148.81 142.37 149.77 142.12 150.20 141.37 Z M 150.62 140.64 L 151.19 139.80 C 151.67 139.08 151.48 138.11 150.77 137.63 C 150.05 137.15 149.08 137.34 148.60 138.06 L 148.03 138.90 C 147.55 139.61 147.74 140.58 148.46 141.06 C 149.17 141.55 150.14 141.36 150.62 140.64 Z M 151.10 139.92 L 151.76 139.11 C 152.31 138.44 152.21 137.46 151.55 136.91 C 150.88 136.36 149.89 136.46 149.35 137.13 L 148.69 137.94 C 148.14 138.61 148.24 139.59 148.91 140.14 C 149.57 140.68 150.56 140.58 151.10 139.92 Z M 151.61 139.27 L 152.34 138.60 C 152.98 138.01 153.02 137.02 152.43 136.39 C 151.85 135.76 150.86 135.72 150.23 136.30 L 149.50 136.97 C 148.86 137.56 148.82 138.54 149.41 139.18 C 149.99 139.81 150.98 139.85 151.61 139.27 Z M 152.08 138.79 L 152.87 138.32 C 153.62 137.89 153.86 136.93 153.43 136.19 C 152.99 135.44 152.03 135.20 151.29 135.63 L 150.49 136.10 C 149.75 136.54 149.50 137.50 149.94 138.24 C 150.38 138.98 151.33 139.23 152.08 138.79 Z M 152.41 138.51 L 153.41 138.29 C 154.25 138.11 154.79 137.28 154.61 136.44 C 154.43 135.60 153.60 135.06 152.76 135.24 L 151.75 135.45 C 150.91 135.63 150.37 136.46 150.55 137.31 C 150.73 138.15 151.56 138.69 152.41 138.51 Z M 152.83 138.31 L 153.79 138.46 C 154.64 138.60 155.45 138.03 155.59 137.18 C 155.73 136.33 155.15 135.52 154.30 135.38 L 153.34 135.22 C 152.49 135.08 151.68 135.66 151.54 136.51 C 151.40 137.36 151.98 138.16 152.83 138.31 Z M 153.22 138.25 L 154.03 138.75 C 154.76 139.21 155.72 138.99 156.18 138.25 C 156.64 137.52 156.41 136.56 155.68 136.10 L 154.87 135.60 C 154.14 135.14 153.18 135.37 152.72 136.10 C 152.27 136.83 152.49 137.79 153.22 138.25 Z M 153.62 138.38 L 154.17 139.09 C 154.70 139.78 155.68 139.90 156.36 139.38 C 157.04 138.85 157.17 137.87 156.64 137.19 L 156.09 136.47 C 155.56 135.79 154.58 135.67 153.90 136.19 C 153.22 136.72 153.09 137.70 153.62 138.38 Z M 153.99 138.80 L 154.41 139.70 C 154.77 140.48 155.70 140.82 156.48 140.46 C 157.27 140.10 157.60 139.17 157.24 138.39 L 156.82 137.48 C 156.46 136.70 155.53 136.36 154.75 136.72 C 153.96 137.09 153.63 138.02 153.99 138.80 Z M 154.34 139.52 L 154.67 140.56 C 154.94 141.38 155.82 141.83 156.64 141.57 C 157.46 141.30 157.91 140.42 157.65 139.60 L 157.31 138.56 C 157.05 137.74 156.17 137.29 155.35 137.56 C 154.53 137.82 154.07 138.70 154.34 139.52 Z M 154.65 140.47 L 154.90 141.44 C 155.12 142.28 155.97 142.78 156.81 142.56 C 157.64 142.34 158.14 141.49 157.92 140.65 L 157.67 139.69 C 157.45 138.85 156.60 138.35 155.77 138.57 C 154.93 138.79 154.43 139.64 154.65 140.47 Z M 154.89 141.39 L 155.10 142.36 C 155.29 143.20 156.13 143.73 156.97 143.54 C 157.81 143.35 158.34 142.52 158.15 141.68 L 157.94 140.71 C 157.75 139.87 156.91 139.34 156.07 139.52 C 155.23 139.71 154.70 140.55 154.89 141.39 Z M 155.09 142.31 L 155.28 143.30 C 155.44 144.15 156.26 144.70 157.10 144.54 C 157.95 144.39 158.51 143.57 158.35 142.72 L 158.16 141.73 C 158.00 140.88 157.19 140.32 156.34 140.48 C 155.49 140.64 154.93 141.46 155.09 142.31 Z M 155.27 143.25 L 155.43 144.25 C 155.56 145.11 156.36 145.69 157.21 145.56 C 158.06 145.43 158.64 144.63 158.51 143.78 L 158.36 142.77 C 158.23 141.92 157.43 141.34 156.58 141.47 C 155.72 141.60 155.14 142.40 155.27 143.25 Z M 155.42 144.20 L 155.54 145.22 C 155.65 146.07 156.43 146.68 157.28 146.58 C 158.14 146.47 158.75 145.70 158.64 144.84 L 158.52 143.83 C 158.42 142.97 157.64 142.36 156.78 142.47 C 155.93 142.57 155.32 143.35 155.42 144.20 Z M 155.54 145.17 L 155.63 146.18 C 155.71 147.04 156.47 147.67 157.33 147.59 C 158.19 147.51 158.82 146.75 158.74 145.89 L 158.65 144.89 C 158.57 144.03 157.81 143.39 156.95 143.47 C 156.09 143.55 155.46 144.31 155.54 145.17 Z M 155.63 146.14 L 155.69 147.13 C 155.75 147.99 156.49 148.64 157.36 148.59 C 158.22 148.53 158.87 147.79 158.81 146.93 L 158.74 145.93 C 158.69 145.07 157.94 144.42 157.08 144.48 C 156.22 144.53 155.57 145.28 155.63 146.14 Z M 155.69 147.10 L 155.74 148.08 C 155.78 148.94 156.51 149.60 157.37 149.56 C 158.23 149.53 158.89 148.80 158.86 147.93 L 158.81 146.96 C 158.77 146.10 158.04 145.43 157.18 145.47 C 156.32 145.51 155.65 146.24 155.69 147.10 Z M 155.74 148.05 L 155.76 149.08 C 155.79 149.94 156.50 150.62 157.36 150.60 C 158.23 150.57 158.91 149.86 158.88 148.99 L 158.86 147.96 C 158.83 147.10 158.12 146.42 157.25 146.44 C 156.39 146.47 155.71 147.18 155.74 148.05 Z M 155.76 149.04 L 155.77 150.05 C 155.77 150.91 156.47 151.61 157.33 151.60 C 158.20 151.60 158.89 150.90 158.89 150.04 L 158.88 149.03 C 158.88 148.17 158.18 147.47 157.32 147.47 C 156.45 147.48 155.76 148.18 155.76 149.04 Z M 155.77 150.01 L 155.75 150.99 C 155.73 151.85 156.41 152.57 157.27 152.59 C 158.13 152.61 158.85 151.92 158.87 151.06 L 158.89 150.08 C 158.91 149.22 158.22 148.50 157.36 148.48 C 156.50 148.46 155.79 149.15 155.77 150.01 Z M 155.75 150.94 L 155.70 151.92 C 155.65 152.78 156.31 153.51 157.17 153.56 C 158.03 153.60 158.77 152.94 158.81 152.08 L 158.86 151.11 C 158.91 150.25 158.25 149.51 157.39 149.47 C 156.53 149.42 155.79 150.08 155.75 150.94 Z M 155.70 151.85 L 155.60 152.83 C 155.52 153.69 156.15 154.45 157.01 154.53 C 157.86 154.62 158.63 153.99 158.71 153.13 L 158.81 152.15 C 158.89 151.29 158.26 150.53 157.41 150.44 C 156.55 150.36 155.78 150.99 155.70 151.85 Z M 155.62 152.72 L 155.45 153.69 C 155.31 154.54 155.88 155.35 156.73 155.49 C 157.58 155.64 158.38 155.07 158.53 154.22 L 158.70 153.24 C 158.84 152.39 158.27 151.59 157.42 151.44 C 156.57 151.29 155.77 151.87 155.62 152.72 Z M 155.48 153.55 L 155.22 154.53 C 154.99 155.36 155.48 156.22 156.31 156.44 C 157.15 156.67 158.00 156.18 158.23 155.35 L 158.50 154.36 C 158.72 153.53 158.23 152.67 157.40 152.45 C 156.57 152.22 155.71 152.71 155.48 153.55 Z M 155.27 154.37 L 154.91 155.30 C 154.60 156.11 155.00 157.01 155.80 157.32 C 156.60 157.64 157.51 157.24 157.82 156.43 L 158.18 155.50 C 158.49 154.70 158.09 153.79 157.29 153.48 C 156.48 153.17 155.58 153.57 155.27 154.37 Z M 154.97 155.16 L 154.51 156.07 C 154.12 156.83 154.43 157.77 155.20 158.16 C 155.97 158.55 156.91 158.25 157.30 157.48 L 157.76 156.57 C 158.15 155.81 157.84 154.87 157.07 154.48 C 156.30 154.09 155.36 154.39 154.97 155.16 Z M 154.59 155.92 L 154.05 156.77 C 153.58 157.50 153.79 158.46 154.51 158.93 C 155.23 159.40 156.20 159.19 156.67 158.47 L 157.22 157.62 C 157.68 156.90 157.48 155.93 156.75 155.46 C 156.03 154.99 155.06 155.20 154.59 155.92 Z M 154.16 156.62 L 153.52 157.38 C 152.97 158.05 153.06 159.03 153.73 159.58 C 154.39 160.13 155.37 160.04 155.92 159.38 L 156.56 158.62 C 157.11 157.96 157.02 156.97 156.35 156.42 C 155.69 155.87 154.71 155.96 154.16 156.62 Z M 153.69 157.21 L 152.92 157.90 C 152.27 158.47 152.21 159.46 152.78 160.10 C 153.35 160.75 154.34 160.81 154.99 160.23 L 155.76 159.55 C 156.40 158.98 156.46 157.99 155.89 157.35 C 155.32 156.70 154.33 156.64 153.69 157.21 Z M 153.14 157.73 L 152.29 158.25 C 151.56 158.69 151.32 159.65 151.77 160.39 C 152.22 161.13 153.18 161.36 153.92 160.91 L 154.76 160.40 C 155.50 159.95 155.73 158.99 155.29 158.25 C 154.84 157.52 153.88 157.28 153.14 157.73 Z M 152.56 158.12 L 151.65 158.45 C 150.84 158.75 150.43 159.65 150.73 160.46 C 151.03 161.27 151.93 161.68 152.74 161.38 L 153.65 161.04 C 154.46 160.74 154.87 159.85 154.57 159.04 C 154.27 158.23 153.37 157.82 152.56 158.12 Z M 151.95 158.38 L 150.97 158.53 C 150.12 158.66 149.53 159.46 149.67 160.31 C 149.80 161.17 150.60 161.75 151.45 161.61 L 152.43 161.46 C 153.29 161.33 153.87 160.53 153.74 159.68 C 153.60 158.82 152.80 158.24 151.95 158.38 Z M 151.31 158.51 L 150.31 158.45 C 149.45 158.40 148.71 159.06 148.65 159.92 C 148.60 160.78 149.26 161.52 150.12 161.57 L 151.12 161.63 C 151.98 161.68 152.72 161.03 152.77 160.17 C 152.82 159.31 152.17 158.57 151.31 158.51 Z M 150.70 158.53 L 149.76 158.22 C 148.94 157.95 148.06 158.39 147.79 159.21 C 147.52 160.03 147.97 160.91 148.79 161.18 L 149.72 161.49 C 150.54 161.76 151.43 161.32 151.70 160.50 C 151.97 159.68 151.52 158.80 150.70 158.53 Z M 150.18 158.43 L 149.40 157.87 C 148.70 157.37 147.72 157.53 147.22 158.23 C 146.72 158.94 146.88 159.91 147.58 160.41 L 148.37 160.97 C 149.07 161.47 150.04 161.31 150.54 160.61 C 151.05 159.91 150.88 158.93 150.18 158.43 Z M 149.71 158.16 L 149.11 157.42 C 148.57 156.75 147.59 156.64 146.91 157.18 C 146.24 157.72 146.13 158.70 146.68 159.38 L 147.27 160.12 C 147.81 160.79 148.80 160.90 149.47 160.36 C 150.14 159.82 150.25 158.84 149.71 158.16 Z M 149.27 157.67 L 148.80 156.77 C 148.39 156.01 147.45 155.72 146.69 156.12 C 145.93 156.53 145.63 157.47 146.04 158.23 L 146.51 159.13 C 146.92 159.89 147.86 160.18 148.62 159.78 C 149.38 159.37 149.68 158.43 149.27 157.67 Z M 148.89 156.97 L 148.53 155.99 C 148.23 155.18 147.34 154.76 146.53 155.06 C 145.72 155.35 145.30 156.25 145.59 157.06 L 145.95 158.04 C 146.25 158.85 147.14 159.26 147.95 158.97 C 148.76 158.67 149.18 157.78 148.89 156.97 Z M 148.58 156.14 L 148.34 155.22 C 148.13 154.39 147.28 153.88 146.45 154.09 C 145.61 154.30 145.11 155.15 145.32 155.98 L 145.55 156.90 C 145.76 157.74 146.61 158.25 147.44 158.04 C 148.28 157.83 148.79 156.98 148.58 156.14 Z M 148.37 155.35 L 148.22 154.44 C 148.08 153.59 147.28 153.01 146.43 153.15 C 145.58 153.29 145.00 154.10 145.14 154.95 L 145.29 155.86 C 145.43 156.71 146.23 157.28 147.08 157.14 C 147.93 157.00 148.51 156.20 148.37 155.35 Z M 148.23 154.54 L 148.14 153.57 C 148.06 152.71 147.29 152.08 146.43 152.17 C 145.58 152.25 144.95 153.01 145.03 153.87 L 145.13 154.84 C 145.21 155.70 145.97 156.33 146.83 156.25 C 147.69 156.16 148.32 155.40 148.23 154.54 Z M 148.14 153.64 L 148.09 152.57 C 148.04 151.71 147.31 151.04 146.45 151.09 C 145.59 151.13 144.93 151.87 144.97 152.73 L 145.03 153.80 C 145.07 154.66 145.81 155.32 146.67 155.28 C 147.53 155.23 148.19 154.50 148.14 153.64 Z M 148.09 152.60 L 148.06 151.55 C 148.04 150.69 147.32 150.01 146.46 150.03 C 145.60 150.06 144.92 150.78 144.94 151.64 L 144.97 152.69 C 144.99 153.55 145.71 154.23 146.57 154.21 C 147.43 154.18 148.11 153.47 148.09 152.60 Z M 148.06 151.57 L 148.05 150.60 C 148.04 149.74 147.33 149.05 146.47 149.06 C 145.61 149.07 144.92 149.78 144.93 150.64 L 144.94 151.61 C 144.95 152.48 145.66 153.17 146.52 153.16 C 147.38 153.14 148.07 152.44 148.06 151.57 Z M 148.05 150.62 L 148.05 149.60 C 148.05 148.74 147.36 148.04 146.49 148.04 C 145.63 148.03 144.93 148.73 144.93 149.59 L 144.93 150.62 C 144.93 151.48 145.62 152.18 146.49 152.18 C 147.35 152.18 148.05 151.48 148.05 150.62 Z M 148.05 149.63 L 148.07 148.59 C 148.09 147.73 147.41 147.02 146.54 147.00 C 145.68 146.98 144.97 147.67 144.95 148.53 L 144.93 149.57 C 144.91 150.43 145.60 151.14 146.46 151.16 C 147.32 151.18 148.03 150.49 148.05 149.63 Z M 148.07 148.63 L 148.12 147.61 C 148.15 146.74 147.49 146.02 146.62 145.98 C 145.76 145.94 145.03 146.61 145.00 147.47 L 144.95 148.49 C 144.91 149.35 145.58 150.08 146.44 150.12 C 147.30 150.16 148.03 149.49 148.07 148.63 Z M 148.11 147.65 L 148.19 146.67 C 148.25 145.81 147.61 145.06 146.75 145.00 C 145.89 144.93 145.14 145.58 145.07 146.44 L 145.00 147.42 C 144.94 148.28 145.58 149.03 146.44 149.09 C 147.30 149.16 148.05 148.51 148.11 147.65 Z M 148.18 146.74 L 148.31 145.65 C 148.41 144.79 147.80 144.02 146.94 143.92 C 146.09 143.81 145.31 144.42 145.21 145.28 L 145.08 146.37 C 144.98 147.23 145.59 148.00 146.44 148.10 C 147.30 148.21 148.08 147.60 148.18 146.74 Z M 148.30 145.74 L 148.48 144.71 C 148.63 143.86 148.06 143.05 147.21 142.90 C 146.36 142.75 145.55 143.32 145.40 144.17 L 145.22 145.20 C 145.07 146.04 145.64 146.85 146.49 147.00 C 147.34 147.15 148.15 146.58 148.30 145.74 Z M 148.46 144.79 L 148.68 143.84 C 148.88 143.00 148.36 142.16 147.52 141.97 C 146.68 141.77 145.84 142.29 145.64 143.13 L 145.42 144.08 C 145.22 144.92 145.74 145.76 146.58 145.96 C 147.42 146.15 148.26 145.63 148.46 144.79 Z M 148.66 143.92 L 148.92 143.03 C 149.17 142.20 148.69 141.33 147.87 141.09 C 147.04 140.85 146.17 141.32 145.93 142.15 L 145.67 143.05 C 145.42 143.87 145.90 144.74 146.72 144.98 C 147.55 145.23 148.42 144.75 148.66 143.92 Z M 148.90 143.10 L 149.21 142.20 C 149.49 141.39 149.06 140.50 148.25 140.22 C 147.43 139.93 146.54 140.37 146.26 141.18 L 145.95 142.08 C 145.67 142.89 146.10 143.78 146.92 144.06 C 147.73 144.35 148.62 143.91 148.90 143.10 Z M 149.19 142.26 L 149.57 141.31 C 149.88 140.51 149.49 139.60 148.69 139.28 C 147.88 138.97 146.98 139.36 146.66 140.16 L 146.28 141.12 C 145.97 141.92 146.36 142.83 147.16 143.14 C 147.97 143.46 148.87 143.07 149.19 142.26 Z M 149.54 141.37 L 149.95 140.44 C 150.30 139.65 149.94 138.73 149.15 138.38 C 148.36 138.04 147.44 138.39 147.09 139.18 L 146.69 140.10 C 146.34 140.89 146.69 141.82 147.48 142.16 C 148.27 142.51 149.19 142.16 149.54 141.37 Z M 149.92 140.50 L 150.36 139.61 C 150.73 138.84 150.41 137.90 149.64 137.52 C 148.86 137.15 147.93 137.47 147.55 138.24 L 147.12 139.13 C 146.74 139.90 147.06 140.84 147.84 141.22 C 148.61 141.59 149.55 141.27 149.92 140.50 Z M 150.33 139.66 L 150.79 138.79 C 151.20 138.03 150.91 137.08 150.15 136.68 C 149.38 136.27 148.44 136.56 148.03 137.33 L 147.57 138.20 C 147.17 138.96 147.46 139.90 148.22 140.31 C 148.98 140.71 149.93 140.42 150.33 139.66 Z M 150.75 138.86 L 151.28 137.97 C 151.72 137.23 151.48 136.28 150.74 135.83 C 150.00 135.39 149.04 135.63 148.60 136.37 L 148.07 137.26 C 147.63 138.00 147.87 138.96 148.61 139.40 C 149.35 139.84 150.31 139.60 150.75 138.86 Z M 151.20 138.10 L 151.78 137.30 C 152.29 136.60 152.14 135.63 151.45 135.12 C 150.75 134.61 149.78 134.76 149.27 135.45 L 148.68 136.25 C 148.17 136.95 148.32 137.92 149.02 138.43 C 149.71 138.94 150.69 138.79 151.20 138.10 Z M 151.64 137.47 L 152.32 136.78 C 152.92 136.16 152.91 135.17 152.29 134.57 C 151.68 133.97 150.69 133.98 150.09 134.59 L 149.41 135.29 C 148.81 135.90 148.82 136.89 149.43 137.49 C 150.05 138.10 151.04 138.09 151.64 137.47 Z M 152.10 136.96 L 152.95 136.37 C 153.66 135.87 153.83 134.90 153.34 134.19 C 152.85 133.48 151.87 133.31 151.17 133.81 L 150.31 134.41 C 149.60 134.90 149.43 135.87 149.92 136.58 C 150.42 137.29 151.39 137.46 152.10 136.96 Z M 152.66 136.53 L 153.62 136.13 C 154.41 135.80 154.79 134.89 154.46 134.09 C 154.13 133.30 153.22 132.92 152.42 133.25 L 151.46 133.64 C 150.67 133.97 150.29 134.89 150.62 135.68 C 150.95 136.48 151.86 136.86 152.66 136.53 Z M 153.17 136.24 L 154.12 136.15 C 154.97 136.06 155.60 135.30 155.51 134.44 C 155.43 133.58 154.66 132.96 153.81 133.04 L 152.87 133.14 C 152.01 133.22 151.38 133.99 151.47 134.84 C 151.55 135.70 152.32 136.33 153.17 136.24 Z M 153.44 136.07 L 154.25 136.36 C 155.06 136.65 155.96 136.22 156.25 135.41 C 156.54 134.60 156.11 133.71 155.30 133.42 L 154.49 133.12 C 153.67 132.84 152.78 133.26 152.49 134.07 C 152.20 134.88 152.62 135.78 153.44 136.07 Z M 153.66 135.98 L 154.30 136.64 C 154.90 137.25 155.89 137.27 156.51 136.66 C 157.13 136.06 157.14 135.07 156.54 134.46 L 155.89 133.80 C 155.29 133.18 154.30 133.17 153.69 133.77 C 153.07 134.37 153.06 135.36 153.66 135.98 Z M 154.03 136.26 L 154.51 137.19 C 154.91 137.95 155.85 138.25 156.62 137.85 C 157.38 137.46 157.68 136.52 157.28 135.75 L 156.81 134.83 C 156.41 134.06 155.47 133.76 154.70 134.16 C 153.94 134.56 153.64 135.50 154.03 136.26 Z M 154.40 136.92 L 154.71 137.95 C 154.96 138.77 155.83 139.24 156.66 138.99 C 157.48 138.74 157.95 137.87 157.70 137.04 L 157.39 136.02 C 157.14 135.19 156.27 134.72 155.45 134.97 C 154.62 135.22 154.15 136.10 154.40 136.92 Z M 154.67 137.76 L 154.83 138.71 C 154.98 139.56 155.79 140.13 156.64 139.98 C 157.49 139.83 158.06 139.02 157.91 138.17 L 157.75 137.23 C 157.60 136.38 156.79 135.81 155.94 135.96 C 155.09 136.10 154.52 136.91 154.67 137.76 Z M 154.82 138.59 L 154.91 139.57 C 154.99 140.43 155.75 141.06 156.61 140.98 C 157.47 140.90 158.10 140.14 158.02 139.28 L 157.93 138.29 C 157.85 137.44 157.09 136.81 156.23 136.89 C 155.37 136.97 154.74 137.73 154.82 138.59 Z M 154.91 139.50 L 154.95 140.52 C 154.99 141.38 155.72 142.05 156.58 142.01 C 157.44 141.98 158.11 141.25 158.07 140.39 L 158.03 139.36 C 157.99 138.50 157.26 137.83 156.40 137.87 C 155.54 137.91 154.87 138.63 154.91 139.50 Z M 154.95 140.48 L 154.97 141.51 C 154.98 142.38 155.70 143.06 156.56 143.05 C 157.42 143.03 158.11 142.32 158.09 141.46 L 158.07 140.42 C 158.05 139.56 157.34 138.88 156.48 138.89 C 155.62 138.91 154.93 139.62 154.95 140.48 Z M 154.97 141.49 L 154.97 142.49 C 154.97 143.35 155.67 144.05 156.54 144.05 C 157.40 144.04 158.10 143.34 158.09 142.48 L 158.09 141.48 C 158.09 140.62 157.39 139.92 156.52 139.92 C 155.66 139.93 154.97 140.63 154.97 141.49 Z M 154.97 142.44 L 154.94 143.45 C 154.92 144.31 155.60 145.03 156.46 145.05 C 157.32 145.07 158.04 144.40 158.06 143.53 L 158.09 142.53 C 158.12 141.67 157.44 140.95 156.57 140.92 C 155.71 140.90 154.99 141.58 154.97 142.44 Z M 154.95 143.37 L 154.87 144.37 C 154.81 145.23 155.45 145.98 156.31 146.05 C 157.17 146.11 157.92 145.47 157.99 144.61 L 158.06 143.61 C 158.13 142.75 157.48 142.00 156.62 141.93 C 155.76 141.87 155.01 142.51 154.95 143.37 Z M 154.88 144.27 L 154.74 145.25 C 154.62 146.11 155.21 146.90 156.07 147.02 C 156.92 147.14 157.71 146.55 157.83 145.70 L 157.97 144.71 C 158.10 143.86 157.50 143.07 156.65 142.94 C 155.80 142.82 155.01 143.41 154.88 144.27 Z M 154.77 145.13 L 154.54 146.12 C 154.35 146.96 154.87 147.80 155.71 147.99 C 156.55 148.19 157.39 147.66 157.58 146.82 L 157.81 145.82 C 158.00 144.98 157.48 144.15 156.64 143.95 C 155.79 143.76 154.96 144.29 154.77 145.13 Z M 154.57 146.01 L 154.27 146.98 C 154.02 147.80 154.48 148.68 155.31 148.93 C 156.13 149.18 157.00 148.72 157.26 147.89 L 157.55 146.93 C 157.80 146.10 157.34 145.23 156.52 144.98 C 155.69 144.73 154.82 145.19 154.57 146.01 Z M 154.30 146.90 L 153.96 147.83 C 153.66 148.64 154.07 149.53 154.88 149.83 C 155.69 150.13 156.59 149.71 156.89 148.91 L 157.23 147.97 C 157.53 147.16 157.11 146.27 156.30 145.97 C 155.49 145.67 154.60 146.09 154.30 146.90 Z M 153.98 147.77 L 153.61 148.67 C 153.28 149.47 153.66 150.38 154.46 150.71 C 155.26 151.04 156.17 150.66 156.50 149.86 L 156.87 148.96 C 157.19 148.16 156.81 147.25 156.02 146.92 C 155.22 146.59 154.31 146.98 153.98 147.77 Z M 153.62 148.64 L 153.22 149.55 C 152.87 150.34 153.23 151.26 154.02 151.61 C 154.81 151.95 155.73 151.60 156.08 150.81 L 156.48 149.90 C 156.83 149.11 156.47 148.19 155.68 147.84 C 154.89 147.49 153.97 147.85 153.62 148.64 Z M 153.24 149.51 L 152.82 150.40 C 152.45 151.18 152.78 152.11 153.56 152.48 C 154.34 152.85 155.27 152.52 155.64 151.74 L 156.06 150.85 C 156.43 150.07 156.10 149.14 155.32 148.77 C 154.54 148.40 153.61 148.73 153.24 149.51 Z M 152.84 150.36 L 152.38 151.25 C 151.99 152.01 152.30 152.95 153.06 153.35 C 153.83 153.74 154.77 153.44 155.16 152.67 L 155.62 151.78 C 156.01 151.01 155.71 150.07 154.94 149.68 C 154.17 149.29 153.23 149.59 152.84 150.36 Z M 152.41 151.20 L 151.91 152.10 C 151.50 152.85 151.77 153.80 152.53 154.22 C 153.28 154.64 154.23 154.36 154.65 153.61 L 155.14 152.71 C 155.56 151.96 155.28 151.01 154.53 150.59 C 153.77 150.17 152.82 150.45 152.41 151.20 Z M 151.94 152.05 L 151.41 152.93 C 150.97 153.67 151.21 154.63 151.95 155.07 C 152.68 155.52 153.64 155.28 154.09 154.54 L 154.62 153.66 C 155.06 152.92 154.82 151.96 154.08 151.52 C 153.35 151.07 152.39 151.31 151.94 152.05 Z M 151.46 152.85 L 150.88 153.70 C 150.39 154.41 150.58 155.39 151.29 155.87 C 152.00 156.36 152.97 156.18 153.46 155.46 L 154.04 154.62 C 154.53 153.90 154.34 152.93 153.63 152.45 C 152.92 151.96 151.95 152.14 151.46 152.85 Z M 150.96 153.59 L 150.33 154.36 C 149.79 155.02 149.88 156.01 150.55 156.56 C 151.22 157.10 152.20 157.01 152.75 156.34 L 153.38 155.57 C 153.92 154.91 153.83 153.92 153.16 153.38 C 152.49 152.83 151.51 152.93 150.96 153.59 Z M 150.48 154.20 L 149.76 154.87 C 149.13 155.45 149.09 156.44 149.67 157.08 C 150.26 157.71 151.24 157.75 151.88 157.16 L 152.60 156.50 C 153.23 155.91 153.27 154.92 152.69 154.29 C 152.10 153.66 151.11 153.62 150.48 154.20 Z M 150.06 154.65 L 149.07 155.20 C 148.32 155.62 148.05 156.57 148.47 157.33 C 148.89 158.08 149.84 158.35 150.60 157.93 L 151.58 157.38 C 152.33 156.96 152.60 156.01 152.18 155.26 C 151.76 154.50 150.81 154.23 150.06 154.65 Z M 149.70 155.01 L 148.79 155.09 C 147.93 155.17 147.30 155.92 147.37 156.78 C 147.45 157.64 148.21 158.28 149.07 158.20 L 149.97 158.12 C 150.83 158.04 151.47 157.29 151.39 156.43 C 151.31 155.57 150.56 154.93 149.70 155.01 Z M 149.82 155.37 L 149.17 154.91 C 148.46 154.41 147.49 154.59 147.00 155.29 C 146.50 156.00 146.67 156.97 147.38 157.47 L 148.03 157.92 C 148.74 158.42 149.71 158.25 150.21 157.54 C 150.70 156.83 150.53 155.86 149.82 155.37 Z M 149.70 155.56 L 149.36 154.79 C 149.02 154.00 148.10 153.64 147.31 153.99 C 146.52 154.34 146.16 155.26 146.51 156.05 L 146.85 156.82 C 147.19 157.61 148.12 157.96 148.90 157.62 C 149.69 157.27 150.05 156.35 149.70 155.56 Z M 149.47 155.13 L 149.28 154.12 C 149.11 153.27 148.29 152.72 147.45 152.88 C 146.60 153.04 146.05 153.86 146.21 154.71 L 146.40 155.71 C 146.57 156.56 147.38 157.12 148.23 156.95 C 149.08 156.79 149.63 155.97 149.47 155.13 Z M 149.30 154.29 L 149.21 153.17 C 149.14 152.32 148.39 151.67 147.53 151.74 C 146.67 151.81 146.03 152.56 146.10 153.42 L 146.19 154.54 C 146.25 155.39 147.00 156.04 147.86 155.97 C 148.72 155.90 149.37 155.15 149.30 154.29 Z M 149.22 153.27 L 149.20 152.16 C 149.18 151.30 148.47 150.62 147.61 150.63 C 146.75 150.65 146.06 151.36 146.07 152.22 L 146.09 153.32 C 146.11 154.19 146.82 154.87 147.68 154.86 C 148.55 154.84 149.23 154.13 149.22 153.27 Z M 149.20 152.24 L 149.23 151.20 C 149.25 150.34 148.57 149.62 147.71 149.60 C 146.85 149.57 146.13 150.25 146.11 151.11 L 146.08 152.15 C 146.05 153.01 146.73 153.73 147.59 153.75 C 148.45 153.78 149.17 153.10 149.20 152.24 Z M 149.22 151.29 L 149.31 150.31 C 149.38 149.45 148.74 148.70 147.88 148.62 C 147.02 148.55 146.27 149.19 146.19 150.04 L 146.11 151.02 C 146.04 151.88 146.67 152.64 147.53 152.71 C 148.39 152.79 149.15 152.15 149.22 151.29 Z M 149.29 150.41 L 149.44 149.47 C 149.56 148.61 148.98 147.82 148.12 147.69 C 147.27 147.56 146.48 148.15 146.35 149.00 L 146.21 149.95 C 146.08 150.80 146.66 151.59 147.52 151.72 C 148.37 151.85 149.16 151.26 149.29 150.41 Z M 149.42 149.57 L 149.62 148.64 C 149.81 147.79 149.28 146.96 148.44 146.77 C 147.59 146.59 146.76 147.12 146.57 147.96 L 146.37 148.90 C 146.18 149.74 146.71 150.57 147.55 150.76 C 148.40 150.94 149.23 150.41 149.42 149.57 Z M 149.60 148.73 L 149.87 147.79 C 150.11 146.96 149.63 146.10 148.80 145.86 C 147.97 145.62 147.11 146.10 146.87 146.93 L 146.60 147.87 C 146.36 148.69 146.84 149.56 147.67 149.80 C 148.50 150.04 149.36 149.56 149.60 148.73 Z M 149.84 147.87 L 150.17 146.92 C 150.45 146.11 150.02 145.22 149.21 144.94 C 148.39 144.66 147.50 145.09 147.22 145.90 L 146.89 146.85 C 146.61 147.67 147.04 148.56 147.86 148.84 C 148.67 149.12 149.56 148.69 149.84 147.87 Z M 150.15 146.98 L 150.53 146.01 C 150.84 145.20 150.45 144.30 149.64 143.99 C 148.84 143.67 147.94 144.07 147.62 144.87 L 147.24 145.84 C 146.93 146.65 147.33 147.55 148.13 147.87 C 148.93 148.18 149.84 147.78 150.15 146.98 Z M 150.51 146.05 L 150.91 145.13 C 151.24 144.33 150.87 143.42 150.08 143.08 C 149.29 142.74 148.37 143.11 148.03 143.91 L 147.64 144.83 C 147.30 145.62 147.67 146.54 148.47 146.88 C 149.26 147.21 150.18 146.84 150.51 146.05 Z M 150.88 145.17 L 151.31 144.25 C 151.68 143.47 151.34 142.54 150.55 142.18 C 149.77 141.82 148.84 142.16 148.48 142.94 L 148.05 143.86 C 147.69 144.64 148.03 145.57 148.81 145.93 C 149.59 146.30 150.52 145.96 150.88 145.17 Z M 151.28 144.31 L 151.75 143.41 C 152.14 142.65 151.84 141.71 151.08 141.31 C 150.31 140.91 149.37 141.21 148.97 141.98 L 148.51 142.88 C 148.11 143.64 148.41 144.59 149.18 144.98 C 149.95 145.38 150.89 145.08 151.28 144.31 Z M 151.70 143.49 L 152.20 142.65 C 152.64 141.90 152.39 140.95 151.65 140.51 C 150.91 140.07 149.95 140.32 149.51 141.06 L 149.02 141.90 C 148.58 142.65 148.82 143.60 149.57 144.04 C 150.31 144.48 151.27 144.23 151.70 143.49 Z M 152.12 142.77 L 152.85 141.77 C 153.36 141.07 153.21 140.10 152.52 139.59 C 151.82 139.08 150.84 139.23 150.33 139.93 L 149.60 140.93 C 149.09 141.63 149.24 142.60 149.94 143.11 C 150.63 143.62 151.61 143.47 152.12 142.77 Z M 152.57 142.06 L 153.32 141.46 C 153.99 140.92 154.09 139.94 153.55 139.27 C 153.01 138.60 152.03 138.49 151.36 139.03 L 150.61 139.63 C 149.94 140.17 149.84 141.16 150.38 141.83 C 150.92 142.50 151.90 142.60 152.57 142.06 Z M 151.92 141.75 L 152.53 141.92 C 153.36 142.15 154.22 141.66 154.44 140.83 C 154.67 140.00 154.18 139.14 153.35 138.91 L 152.75 138.74 C 151.92 138.51 151.06 139.00 150.83 139.83 C 150.60 140.66 151.09 141.52 151.92 141.75 Z M 151.52 141.06 L 151.80 141.68 C 152.16 142.47 153.08 142.81 153.87 142.46 C 154.65 142.10 155.00 141.17 154.64 140.39 L 154.36 139.77 C 154.00 138.98 153.08 138.63 152.29 138.99 C 151.51 139.35 151.16 140.27 151.52 141.06 Z M 151.69 141.34 L 151.88 142.28 C 152.05 143.13 152.87 143.67 153.72 143.50 C 154.56 143.33 155.11 142.51 154.94 141.66 L 154.75 140.73 C 154.58 139.88 153.76 139.33 152.91 139.50 C 152.07 139.67 151.52 140.50 151.69 141.34 Z M 151.86 142.11 L 151.96 143.24 C 152.03 144.10 152.79 144.73 153.65 144.65 C 154.51 144.58 155.14 143.82 155.07 142.96 L 154.97 141.83 C 154.89 140.98 154.13 140.34 153.27 140.42 C 152.41 140.49 151.78 141.25 151.86 142.11 Z M 151.95 143.12 L 151.97 144.31 C 151.98 145.17 152.69 145.86 153.55 145.84 C 154.41 145.83 155.10 145.12 155.09 144.26 L 155.07 143.08 C 155.06 142.21 154.35 141.53 153.49 141.54 C 152.63 141.55 151.94 142.26 151.95 143.12 Z M 151.97 144.20 L 151.91 145.32 C 151.86 146.18 152.52 146.92 153.38 146.96 C 154.24 147.01 154.98 146.35 155.03 145.49 L 155.09 144.37 C 155.13 143.51 154.47 142.77 153.61 142.72 C 152.75 142.68 152.02 143.34 151.97 144.20 Z M 151.92 145.21 L 151.79 146.24 C 151.68 147.10 152.29 147.88 153.14 147.98 C 154.00 148.09 154.78 147.48 154.89 146.63 L 155.02 145.60 C 155.12 144.74 154.52 143.96 153.66 143.85 C 152.80 143.75 152.02 144.35 151.92 145.21 Z M 151.80 146.14 L 151.62 147.11 C 151.46 147.95 152.02 148.77 152.86 148.93 C 153.71 149.09 154.53 148.54 154.69 147.69 L 154.87 146.72 C 155.03 145.88 154.48 145.06 153.63 144.90 C 152.78 144.74 151.97 145.29 151.80 146.14 Z M 151.64 147.03 L 151.41 147.95 C 151.21 148.78 151.72 149.63 152.56 149.83 C 153.40 150.04 154.24 149.53 154.45 148.69 L 154.67 147.77 C 154.88 146.93 154.36 146.09 153.53 145.88 C 152.69 145.68 151.84 146.19 151.64 147.03 Z M 151.43 147.89 L 151.17 148.80 C 150.93 149.63 151.42 150.50 152.25 150.73 C 153.07 150.97 153.94 150.48 154.17 149.65 L 154.43 148.74 C 154.67 147.91 154.19 147.05 153.36 146.81 C 152.53 146.58 151.66 147.06 151.43 147.89 Z M 151.18 148.76 L 150.89 149.70 C 150.63 150.52 151.09 151.40 151.91 151.65 C 152.74 151.91 153.61 151.45 153.87 150.63 L 154.16 149.69 C 154.42 148.87 153.96 148.00 153.14 147.74 C 152.31 147.48 151.44 147.94 151.18 148.76 Z M 150.90 149.65 L 150.58 150.59 C 150.30 151.41 150.74 152.29 151.55 152.57 C 152.37 152.85 153.25 152.42 153.53 151.61 L 153.86 150.67 C 154.14 149.85 153.70 148.97 152.89 148.69 C 152.07 148.41 151.18 148.84 150.90 149.65 Z M 150.60 150.55 L 150.24 151.49 C 149.94 152.30 150.34 153.20 151.15 153.50 C 151.96 153.81 152.86 153.40 153.16 152.59 L 153.52 151.65 C 153.82 150.84 153.42 149.94 152.61 149.64 C 151.80 149.33 150.90 149.74 150.60 150.55 Z M 150.26 151.45 L 149.86 152.40 C 149.53 153.20 149.91 154.11 150.71 154.44 C 151.51 154.77 152.42 154.39 152.75 153.59 L 153.14 152.64 C 153.47 151.84 153.09 150.93 152.30 150.60 C 151.50 150.27 150.59 150.65 150.26 151.45 Z M 149.88 152.36 L 149.46 153.29 C 149.11 154.07 149.46 155.00 150.25 155.35 C 151.03 155.70 151.96 155.35 152.31 154.57 L 152.73 153.64 C 153.08 152.85 152.73 151.93 151.95 151.57 C 151.16 151.22 150.24 151.57 149.88 152.36 Z M 149.49 153.24 L 149.03 154.16 C 148.66 154.94 148.98 155.87 149.75 156.25 C 150.52 156.63 151.46 156.31 151.84 155.53 L 152.29 154.61 C 152.67 153.84 152.35 152.90 151.57 152.52 C 150.80 152.15 149.86 152.47 149.49 153.24 Z M 149.06 154.11 L 148.59 155.00 C 148.18 155.76 148.46 156.70 149.22 157.11 C 149.98 157.52 150.93 157.23 151.34 156.47 L 151.81 155.58 C 152.22 154.82 151.93 153.88 151.17 153.47 C 150.41 153.06 149.47 153.35 149.06 154.11 Z M 148.62 154.94 L 148.13 155.77 C 147.69 156.51 147.93 157.46 148.67 157.90 C 149.41 158.34 150.37 158.10 150.81 157.36 L 151.30 156.53 C 151.74 155.79 151.50 154.83 150.76 154.39 C 150.02 153.95 149.06 154.20 148.62 154.94 Z M 148.19 155.67 L 147.45 156.72 C 146.96 157.43 147.13 158.40 147.84 158.90 C 148.54 159.39 149.52 159.22 150.01 158.51 L 150.75 157.46 C 151.24 156.75 151.07 155.78 150.36 155.28 C 149.66 154.79 148.68 154.96 148.19 155.67 Z M 147.63 156.51 L 146.91 157.22 C 146.30 157.83 146.30 158.82 146.90 159.43 C 147.51 160.04 148.50 160.05 149.11 159.44 L 149.83 158.73 C 150.44 158.12 150.45 157.13 149.84 156.52 C 149.23 155.91 148.25 155.90 147.63 156.51 Z M 147.99 156.77 L 147.48 156.78 C 146.62 156.79 145.93 157.50 145.94 158.36 C 145.96 159.23 146.66 159.91 147.53 159.90 L 148.03 159.89 C 148.90 159.88 149.59 159.17 149.57 158.31 C 149.56 157.45 148.85 156.76 147.99 156.77 Z M 148.99 157.87 L 148.79 157.23 C 148.53 156.41 147.65 155.95 146.83 156.22 C 146.01 156.48 145.55 157.35 145.81 158.18 L 146.02 158.81 C 146.28 159.63 147.15 160.09 147.98 159.83 C 148.80 159.57 149.25 158.69 148.99 157.87 Z M 148.86 157.68 L 148.85 156.63 C 148.83 155.77 148.12 155.08 147.26 155.09 C 146.40 155.11 145.71 155.82 145.72 156.68 L 145.74 157.73 C 145.75 158.59 146.46 159.28 147.33 159.26 C 148.19 159.25 148.88 158.54 148.86 157.68 Z M 148.84 156.83 L 148.97 155.59 C 149.07 154.74 148.45 153.97 147.59 153.87 C 146.74 153.78 145.96 154.39 145.87 155.25 L 145.73 156.48 C 145.64 157.34 146.26 158.11 147.11 158.21 C 147.97 158.30 148.74 157.68 148.84 156.83 Z M 148.95 155.73 L 149.16 154.69 C 149.33 153.85 148.79 153.02 147.94 152.85 C 147.10 152.68 146.27 153.22 146.10 154.07 L 145.89 155.11 C 145.72 155.96 146.27 156.78 147.11 156.95 C 147.96 157.12 148.78 156.58 148.95 155.73 Z M 149.14 154.80 L 149.40 153.84 C 149.64 153.01 149.15 152.15 148.32 151.92 C 147.49 151.69 146.63 152.17 146.40 153.00 L 146.13 153.96 C 145.90 154.79 146.38 155.65 147.21 155.88 C 148.04 156.12 148.90 155.63 149.14 154.80 Z M 149.38 153.92 L 149.70 152.99 C 149.97 152.17 149.53 151.28 148.72 151.01 C 147.90 150.73 147.01 151.17 146.74 151.99 L 146.42 152.92 C 146.15 153.74 146.58 154.63 147.40 154.90 C 148.22 155.18 149.10 154.74 149.38 153.92 Z M 149.68 153.03 L 150.03 152.10 C 150.33 151.29 149.92 150.39 149.11 150.09 C 148.31 149.79 147.41 150.19 147.11 151.00 L 146.76 151.94 C 146.45 152.75 146.86 153.65 147.67 153.95 C 148.48 154.25 149.38 153.84 149.68 153.03 Z M 150.02 152.11 L 150.39 151.18 C 150.70 150.37 150.30 149.47 149.50 149.16 C 148.69 148.84 147.79 149.24 147.48 150.04 L 147.11 150.98 C 146.80 151.79 147.20 152.69 148.00 153.00 C 148.81 153.32 149.71 152.92 150.02 152.11 Z M 150.38 151.19 L 150.76 150.24 C 151.08 149.44 150.69 148.54 149.89 148.22 C 149.09 147.90 148.18 148.29 147.86 149.09 L 147.48 150.03 C 147.16 150.83 147.55 151.74 148.35 152.06 C 149.16 152.38 150.06 151.99 150.38 151.19 Z M 150.75 150.26 L 151.14 149.33 C 151.47 148.53 151.09 147.62 150.29 147.29 C 149.49 146.96 148.58 147.34 148.25 148.14 L 147.87 149.07 C 147.54 149.87 147.92 150.78 148.71 151.11 C 149.51 151.44 150.42 151.06 150.75 150.26 Z M 151.13 149.36 L 151.52 148.45 C 151.86 147.66 151.50 146.74 150.71 146.40 C 149.91 146.06 149.00 146.42 148.65 147.21 L 148.26 148.11 C 147.92 148.90 148.28 149.82 149.07 150.17 C 149.86 150.51 150.78 150.15 151.13 149.36 Z M 151.50 148.49 L 151.93 147.57 C 152.29 146.78 151.95 145.86 151.17 145.49 C 150.38 145.13 149.45 145.47 149.09 146.26 L 148.67 147.18 C 148.31 147.96 148.65 148.89 149.43 149.25 C 150.21 149.61 151.14 149.27 151.50 148.49 Z M 151.91 147.61 L 152.35 146.72 C 152.74 145.95 152.43 145.01 151.66 144.62 C 150.89 144.24 149.95 144.55 149.56 145.32 L 149.11 146.21 C 148.73 146.98 149.04 147.92 149.81 148.31 C 150.58 148.69 151.52 148.38 151.91 147.61 Z M 152.33 146.77 L 152.80 145.91 C 153.21 145.15 152.93 144.20 152.18 143.79 C 151.42 143.37 150.47 143.65 150.06 144.41 L 149.59 145.27 C 149.17 146.03 149.45 146.98 150.21 147.39 C 150.97 147.80 151.91 147.52 152.33 146.77 Z M 152.77 145.96 L 153.28 145.09 C 153.73 144.35 153.48 143.39 152.74 142.95 C 152.00 142.51 151.05 142.75 150.60 143.49 L 150.09 144.36 C 149.65 145.10 149.89 146.06 150.63 146.50 C 151.37 146.94 152.33 146.70 152.77 145.96 Z M 153.23 145.17 L 153.86 144.25 C 154.35 143.54 154.17 142.57 153.46 142.08 C 152.74 141.59 151.77 141.78 151.29 142.49 L 150.65 143.41 C 150.17 144.13 150.35 145.10 151.06 145.58 C 151.78 146.07 152.75 145.89 153.23 145.17 Z M 153.70 144.45 L 154.40 143.73 C 155.00 143.11 154.98 142.12 154.36 141.52 C 153.74 140.92 152.75 140.94 152.15 141.56 L 151.45 142.28 C 150.85 142.90 150.87 143.89 151.49 144.49 C 152.11 145.09 153.10 145.07 153.70 144.45 Z M 153.89 144.08 L 154.66 143.75 C 155.45 143.42 155.82 142.50 155.48 141.71 C 155.14 140.91 154.23 140.54 153.43 140.88 L 152.66 141.21 C 151.87 141.55 151.50 142.46 151.84 143.26 C 152.18 144.05 153.09 144.42 153.89 144.08 Z M 153.66 143.83 L 154.46 144.03 C 155.30 144.24 156.14 143.73 156.35 142.90 C 156.56 142.06 156.06 141.21 155.22 141.00 L 154.43 140.80 C 153.59 140.59 152.74 141.10 152.53 141.94 C 152.32 142.77 152.83 143.62 153.66 143.83 Z M 153.88 143.75 L 154.65 144.36 C 155.33 144.89 156.31 144.77 156.85 144.09 C 157.38 143.41 157.26 142.43 156.58 141.90 L 155.80 141.29 C 155.13 140.76 154.14 140.88 153.61 141.55 C 153.08 142.23 153.20 143.21 153.88 143.75 Z M 154.39 144.10 L 155.07 144.95 C 155.60 145.62 156.58 145.74 157.26 145.20 C 157.94 144.67 158.05 143.69 157.52 143.01 L 156.84 142.16 C 156.31 141.48 155.33 141.37 154.65 141.90 C 153.97 142.44 153.86 143.42 154.39 144.10 Z M 154.90 144.70 L 155.39 145.63 C 155.78 146.40 156.72 146.70 157.49 146.30 C 158.26 145.91 158.56 144.97 158.16 144.20 L 157.68 143.26 C 157.28 142.50 156.34 142.20 155.58 142.59 C 154.81 142.99 154.51 143.93 154.90 144.70 Z M 155.27 145.34 L 155.54 146.29 C 155.77 147.12 156.64 147.60 157.47 147.37 C 158.30 147.13 158.78 146.27 158.54 145.44 L 158.28 144.49 C 158.04 143.66 157.18 143.18 156.35 143.41 C 155.52 143.65 155.04 144.51 155.27 145.34 Z M 155.49 146.04 L 155.60 147.01 C 155.70 147.87 156.48 148.48 157.34 148.38 C 158.19 148.28 158.81 147.51 158.71 146.65 L 158.59 145.68 C 158.49 144.83 157.72 144.21 156.86 144.31 C 156.00 144.41 155.39 145.19 155.49 146.04 Z M 155.60 146.88 L 155.63 147.89 C 155.66 148.75 156.38 149.43 157.24 149.40 C 158.10 149.37 158.78 148.65 158.75 147.79 L 158.72 146.78 C 158.69 145.92 157.97 145.24 157.10 145.27 C 156.24 145.30 155.57 146.02 155.60 146.88 Z M 155.63 147.86 L 155.64 148.80 C 155.65 149.66 156.36 150.35 157.22 150.34 C 158.08 150.33 158.77 149.62 158.76 148.76 L 158.75 147.82 C 158.74 146.96 158.03 146.27 157.17 146.28 C 156.31 146.29 155.62 147.00 155.63 147.86 Z M 155.64 148.79 L 155.65 149.78 C 155.65 150.64 156.35 151.33 157.22 151.33 C 158.08 151.32 158.77 150.62 158.77 149.76 L 158.76 148.77 C 158.76 147.91 158.05 147.21 157.19 147.22 C 156.33 147.22 155.63 147.93 155.64 148.79 Z M 155.65 149.77 L 155.65 150.80 C 155.65 151.66 156.35 152.36 157.21 152.36 C 158.07 152.36 158.77 151.66 158.77 150.80 L 158.77 149.76 C 158.77 148.90 158.07 148.20 157.20 148.21 C 156.34 148.21 155.64 148.91 155.65 149.77 Z M 155.65 150.80 L 155.65 151.84 C 155.65 152.70 156.35 153.40 157.21 153.40 C 158.07 153.40 158.77 152.70 158.77 151.84 L 158.77 150.80 C 158.77 149.94 158.07 149.24 157.21 149.24 C 156.35 149.24 155.65 149.94 155.65 150.80 Z M 155.65 151.84 L 155.65 152.80 C 155.65 153.66 156.35 154.36 157.21 154.36 C 158.07 154.37 158.77 153.67 158.77 152.80 L 158.77 151.84 C 158.77 150.98 158.07 150.28 157.21 150.28 C 156.35 150.28 155.65 150.98 155.65 151.84 Z M 155.65 152.80 L 155.65 153.79 C 155.64 154.65 156.34 155.35 157.20 155.35 C 158.07 155.35 158.77 154.66 158.77 153.79 L 158.77 152.81 C 158.77 151.94 158.07 151.24 157.21 151.24 C 156.35 151.24 155.65 151.94 155.65 152.80 Z M 155.65 153.78 L 155.64 154.79 C 155.63 155.65 156.33 156.36 157.19 156.36 C 158.05 156.37 158.76 155.67 158.76 154.81 L 158.77 153.80 C 158.77 152.94 158.08 152.23 157.22 152.23 C 156.35 152.22 155.65 152.92 155.65 153.78 Z M 155.64 154.79 L 155.63 155.82 C 155.62 156.68 156.31 157.39 157.17 157.40 C 158.04 157.41 158.74 156.72 158.75 155.85 L 158.76 154.82 C 158.77 153.96 158.08 153.25 157.22 153.24 C 156.35 153.23 155.65 153.92 155.64 154.79 Z M 155.63 155.81 L 155.61 156.79 C 155.60 157.65 156.29 158.36 157.15 158.37 C 158.01 158.39 158.72 157.70 158.74 156.84 L 158.75 155.86 C 158.77 155.00 158.08 154.29 157.22 154.28 C 156.35 154.26 155.64 154.95 155.63 155.81 Z M 155.61 156.77 L 155.59 157.74 C 155.57 158.60 156.25 159.32 157.11 159.34 C 157.97 159.37 158.69 158.69 158.71 157.83 L 158.73 156.85 C 158.76 155.99 158.08 155.27 157.22 155.25 C 156.35 155.23 155.64 155.91 155.61 156.77 Z M 155.59 157.72 L 155.55 158.71 C 155.51 159.58 156.18 160.30 157.04 160.34 C 157.90 160.37 158.63 159.71 158.67 158.84 L 158.71 157.85 C 158.74 156.99 158.07 156.26 157.21 156.22 C 156.35 156.19 155.62 156.86 155.59 157.72 Z M 155.55 158.68 L 155.49 159.70 C 155.43 160.56 156.09 161.30 156.95 161.35 C 157.81 161.41 158.55 160.75 158.60 159.89 L 158.67 158.87 C 158.72 158.01 158.06 157.27 157.20 157.22 C 156.34 157.17 155.60 157.82 155.55 158.68 Z M 155.49 159.66 L 155.40 160.70 C 155.33 161.56 155.96 162.32 156.82 162.39 C 157.68 162.46 158.44 161.83 158.51 160.97 L 158.60 159.93 C 158.67 159.07 158.04 158.31 157.18 158.24 C 156.32 158.17 155.56 158.80 155.49 159.66 Z M 155.40 160.66 L 155.30 161.63 C 155.20 162.49 155.82 163.26 156.67 163.36 C 157.53 163.45 158.30 162.83 158.40 161.98 L 158.51 161.01 C 158.60 160.15 157.99 159.38 157.13 159.28 C 156.27 159.19 155.50 159.80 155.40 160.66 Z M 155.30 161.59 L 155.17 162.57 C 155.05 163.42 155.65 164.21 156.51 164.32 C 157.36 164.44 158.15 163.84 158.26 162.99 L 158.39 162.01 C 158.51 161.16 157.91 160.37 157.06 160.26 C 156.20 160.14 155.42 160.74 155.30 161.59 Z M 155.17 162.54 L 155.02 163.53 C 154.89 164.38 155.47 165.18 156.33 165.31 C 157.18 165.44 157.98 164.85 158.11 164.00 L 158.26 163.02 C 158.39 162.16 157.81 161.37 156.95 161.23 C 156.10 161.10 155.30 161.69 155.17 162.54 Z M 155.02 163.50 L 154.86 164.50 C 154.71 165.35 155.28 166.16 156.13 166.30 C 156.98 166.45 157.79 165.87 157.93 165.02 L 158.10 164.03 C 158.25 163.18 157.68 162.37 156.83 162.23 C 155.98 162.08 155.17 162.65 155.02 163.50 Z M 154.86 164.48 L 154.67 165.49 C 154.52 166.34 155.08 167.15 155.93 167.30 C 156.78 167.46 157.59 166.90 157.75 166.05 L 157.93 165.04 C 158.08 164.19 157.52 163.38 156.67 163.23 C 155.83 163.07 155.01 163.63 154.86 164.48 Z M 154.68 165.47 L 154.49 166.46 C 154.32 167.31 154.88 168.13 155.73 168.29 C 156.57 168.45 157.39 167.90 157.55 167.05 L 157.74 166.06 C 157.91 165.22 157.35 164.40 156.51 164.23 C 155.66 164.07 154.84 164.63 154.68 165.47 Z M 154.49 166.45 L 154.30 167.42 C 154.13 168.27 154.67 169.09 155.52 169.26 C 156.37 169.43 157.19 168.88 157.36 168.03 L 157.55 167.06 C 157.72 166.22 157.17 165.40 156.33 165.23 C 155.48 165.06 154.66 165.61 154.49 166.45 Z M 154.30 167.41 L 154.10 168.39 C 153.92 169.23 154.46 170.06 155.31 170.23 C 156.15 170.41 156.98 169.86 157.15 169.02 L 157.35 168.05 C 157.53 167.20 156.99 166.38 156.14 166.20 C 155.30 166.02 154.47 166.57 154.30 167.41 Z M 154.10 168.37 L 153.89 169.35 C 153.71 170.20 154.24 171.03 155.09 171.21 C 155.93 171.39 156.76 170.85 156.94 170.01 L 157.15 169.03 C 157.33 168.19 156.80 167.36 155.95 167.18 C 155.11 167.00 154.28 167.53 154.10 168.37 Z M 153.89 169.34 L 153.67 170.32 C 153.48 171.17 154.01 172.00 154.86 172.19 C 155.70 172.37 156.53 171.84 156.72 171.00 L 156.94 170.02 C 157.13 169.18 156.59 168.34 155.75 168.16 C 154.91 167.97 154.08 168.50 153.89 169.34 Z M 153.67 170.31 L 153.45 171.30 C 153.25 172.14 153.78 172.98 154.62 173.17 C 155.46 173.36 156.30 172.84 156.49 172.00 L 156.72 171.01 C 156.91 170.17 156.39 169.33 155.55 169.14 C 154.70 168.95 153.87 169.47 153.67 170.31 Z M 153.45 171.29 L 153.22 172.25 C 153.02 173.09 153.54 173.93 154.38 174.13 C 155.22 174.33 156.06 173.81 156.26 172.97 L 156.49 172.01 C 156.69 171.17 156.17 170.33 155.33 170.13 C 154.49 169.93 153.65 170.45 153.45 171.29 Z M 153.22 172.24 L 152.99 173.20 C 152.79 174.04 153.30 174.89 154.14 175.09 C 154.97 175.29 155.82 174.78 156.02 173.94 L 156.26 172.98 C 156.46 172.15 155.95 171.30 155.11 171.10 C 154.27 170.89 153.43 171.41 153.22 172.24 Z M 152.99 173.19 L 152.75 174.16 C 152.54 174.99 153.05 175.84 153.89 176.05 C 154.72 176.26 155.57 175.75 155.78 174.92 L 156.02 173.95 C 156.23 173.12 155.72 172.27 154.89 172.06 C 154.05 171.85 153.20 172.36 152.99 173.19 Z M 152.75 174.15 L 152.50 175.12 C 152.29 175.95 152.79 176.80 153.63 177.02 C 154.46 177.23 155.31 176.73 155.53 175.90 L 155.78 174.93 C 155.99 174.09 155.49 173.24 154.65 173.02 C 153.82 172.81 152.97 173.31 152.75 174.15 Z M 152.51 175.11 L 152.25 176.09 C 152.03 176.92 152.53 177.77 153.36 177.99 C 154.20 178.21 155.05 177.71 155.27 176.88 L 155.53 175.90 C 155.75 175.07 155.25 174.22 154.41 174.00 C 153.58 173.78 152.73 174.28 152.51 175.11 Z M 152.25 176.08 L 151.99 177.06 C 151.76 177.89 152.26 178.75 153.09 178.97 C 153.92 179.20 154.78 178.70 155.00 177.87 L 155.27 176.89 C 155.49 176.06 155.00 175.20 154.16 174.98 C 153.33 174.75 152.48 175.24 152.25 176.08 Z M 151.99 177.05 L 151.72 178.03 C 151.49 178.86 151.98 179.72 152.81 179.95 C 153.64 180.18 154.50 179.69 154.73 178.86 L 155.00 177.88 C 155.23 177.05 154.74 176.19 153.91 175.96 C 153.08 175.73 152.22 176.22 151.99 177.05 Z M 151.72 178.02 L 151.45 179.00 C 151.21 179.83 151.70 180.70 152.53 180.93 C 153.36 181.16 154.22 180.68 154.45 179.85 L 154.73 178.87 C 154.96 178.04 154.48 177.18 153.65 176.94 C 152.82 176.71 151.96 177.19 151.72 178.02 Z M 151.45 178.99 L 151.17 179.97 C 150.93 180.80 151.41 181.66 152.23 181.90 C 153.06 182.14 153.93 181.66 154.17 180.84 L 154.45 179.86 C 154.69 179.03 154.21 178.17 153.38 177.93 C 152.56 177.69 151.69 178.16 151.45 178.99 Z M 151.17 179.96 L 150.88 180.92 C 150.64 181.74 151.11 182.61 151.93 182.86 C 152.76 183.11 153.63 182.64 153.88 181.81 L 154.16 180.85 C 154.41 180.02 153.94 179.15 153.11 178.91 C 152.29 178.66 151.42 179.13 151.17 179.96 Z M 150.89 180.90 L 150.60 181.85 C 150.34 182.67 150.80 183.55 151.63 183.80 C 152.45 184.06 153.32 183.60 153.58 182.77 L 153.87 181.83 C 154.13 181.00 153.67 180.13 152.84 179.87 C 152.02 179.62 151.14 180.08 150.89 180.90 Z M 150.60 181.83 L 150.31 182.75 C 150.04 183.57 150.49 184.45 151.31 184.71 C 152.13 184.98 153.01 184.53 153.28 183.71 L 153.57 182.79 C 153.84 181.97 153.39 181.09 152.57 180.82 C 151.75 180.56 150.87 181.01 150.60 181.83 Z M 150.31 182.73 L 149.98 183.72 C 149.70 184.53 150.13 185.42 150.95 185.70 C 151.77 185.97 152.65 185.54 152.93 184.72 L 153.27 183.73 C 153.55 182.92 153.11 182.03 152.29 181.75 C 151.48 181.47 150.59 181.91 150.31 182.73 Z M 149.98 183.69 L 149.64 184.66 C 149.35 185.47 149.77 186.36 150.58 186.66 C 151.39 186.95 152.28 186.53 152.57 185.71 L 152.92 184.75 C 153.21 183.94 152.79 183.04 151.98 182.75 C 151.17 182.46 150.28 182.88 149.98 183.69 Z M 149.65 184.63 L 149.29 185.57 C 148.99 186.38 149.39 187.28 150.20 187.58 C 151.00 187.89 151.91 187.48 152.21 186.68 L 152.57 185.74 C 152.87 184.93 152.47 184.03 151.66 183.73 C 150.85 183.42 149.95 183.83 149.65 184.63 Z M 149.30 185.54 L 148.94 186.45 C 148.62 187.25 149.01 188.16 149.81 188.48 C 150.61 188.80 151.52 188.41 151.84 187.61 L 152.20 186.70 C 152.52 185.90 152.13 184.99 151.33 184.67 C 150.53 184.35 149.62 184.74 149.30 185.54 Z M 148.95 186.43 L 148.58 187.31 C 148.25 188.11 148.62 189.02 149.42 189.36 C 150.21 189.69 151.13 189.31 151.46 188.52 L 151.83 187.63 C 152.16 186.84 151.79 185.92 150.99 185.59 C 150.20 185.26 149.28 185.63 148.95 186.43 Z M 148.59 187.29 L 148.19 188.20 C 147.84 188.99 148.21 189.91 149.00 190.26 C 149.79 190.60 150.71 190.24 151.05 189.45 L 151.45 188.54 C 151.80 187.75 151.43 186.83 150.64 186.49 C 149.85 186.14 148.93 186.50 148.59 187.29 Z M 148.20 188.18 L 147.78 189.10 C 147.42 189.89 147.77 190.81 148.55 191.17 C 149.34 191.53 150.26 191.18 150.62 190.40 L 151.04 189.48 C 151.40 188.69 151.05 187.77 150.27 187.41 C 149.48 187.05 148.56 187.40 148.20 188.18 Z M 147.79 189.08 L 147.36 189.99 C 146.99 190.77 147.32 191.70 148.10 192.07 C 148.88 192.44 149.81 192.11 150.18 191.33 L 150.61 190.42 C 150.98 189.64 150.65 188.71 149.87 188.34 C 149.09 187.97 148.16 188.30 147.79 189.08 Z M 147.37 189.97 L 146.93 190.86 C 146.55 191.63 146.87 192.57 147.64 192.95 C 148.41 193.33 149.35 193.01 149.73 192.24 L 150.17 191.35 C 150.55 190.58 150.23 189.64 149.46 189.26 C 148.69 188.88 147.75 189.19 147.37 189.97 Z M 146.94 190.84 L 146.49 191.71 C 146.10 192.48 146.41 193.42 147.17 193.81 C 147.94 194.20 148.88 193.90 149.27 193.13 L 149.72 192.26 C 150.11 191.49 149.81 190.55 149.04 190.16 C 148.27 189.77 147.33 190.07 146.94 190.84 Z M 146.50 191.69 L 146.03 192.59 C 145.63 193.35 145.92 194.29 146.68 194.70 C 147.44 195.10 148.39 194.81 148.79 194.05 L 149.26 193.15 C 149.67 192.39 149.38 191.44 148.61 191.04 C 147.85 190.64 146.91 190.93 146.50 191.69 Z M 146.04 192.56 L 145.55 193.45 C 145.14 194.21 145.42 195.16 146.17 195.57 C 146.93 195.99 147.88 195.71 148.29 194.96 L 148.78 194.07 C 149.19 193.31 148.92 192.36 148.16 191.95 C 147.41 191.53 146.46 191.81 146.04 192.56 Z M 145.57 193.42 L 145.07 194.29 C 144.64 195.04 144.90 195.99 145.64 196.42 C 146.39 196.85 147.35 196.60 147.78 195.85 L 148.28 194.98 C 148.71 194.24 148.45 193.28 147.70 192.85 C 146.96 192.42 146.00 192.68 145.57 193.42 Z M 145.09 194.26 L 144.58 195.10 C 144.13 195.84 144.36 196.80 145.10 197.25 C 145.84 197.70 146.80 197.46 147.24 196.73 L 147.76 195.88 C 148.21 195.15 147.97 194.18 147.23 193.74 C 146.50 193.29 145.54 193.52 145.09 194.26 Z M 144.60 195.07 L 144.06 195.89 C 143.60 196.62 143.80 197.58 144.53 198.05 C 145.25 198.52 146.22 198.31 146.69 197.59 L 147.22 196.76 C 147.69 196.04 147.48 195.07 146.76 194.60 C 146.03 194.14 145.07 194.34 144.60 195.07 Z M 144.09 195.85 L 143.51 196.70 C 143.02 197.41 143.19 198.38 143.90 198.87 C 144.61 199.36 145.59 199.18 146.08 198.47 L 146.66 197.63 C 147.15 196.92 146.97 195.95 146.26 195.46 C 145.55 194.97 144.58 195.14 144.09 195.85 Z M 143.54 196.66 L 142.94 197.47 C 142.42 198.16 142.57 199.14 143.26 199.65 C 143.96 200.16 144.93 200.02 145.45 199.32 L 146.05 198.51 C 146.56 197.82 146.41 196.84 145.72 196.33 C 145.03 195.82 144.05 195.96 143.54 196.66 Z M 142.97 197.43 L 142.35 198.21 C 141.82 198.89 141.93 199.87 142.61 200.40 C 143.29 200.94 144.27 200.82 144.80 200.14 L 145.42 199.36 C 145.95 198.69 145.84 197.70 145.16 197.17 C 144.48 196.64 143.50 196.75 142.97 197.43 Z M 142.38 198.17 L 141.76 198.92 C 141.20 199.58 141.29 200.56 141.95 201.12 C 142.61 201.67 143.59 201.59 144.15 200.92 L 144.77 200.18 C 145.33 199.52 145.24 198.53 144.58 197.98 C 143.92 197.43 142.94 197.51 142.38 198.17 Z M 141.79 198.88 L 141.12 199.63 C 140.54 200.27 140.60 201.26 141.24 201.84 C 141.89 202.41 142.87 202.35 143.45 201.71 L 144.12 200.96 C 144.69 200.32 144.63 199.33 143.99 198.76 C 143.35 198.18 142.36 198.24 141.79 198.88 Z M 141.15 199.59 L 140.46 200.32 C 139.87 200.94 139.89 201.93 140.52 202.52 C 141.14 203.12 142.13 203.09 142.73 202.47 L 143.41 201.75 C 144.01 201.12 143.98 200.13 143.36 199.54 C 142.74 198.95 141.75 198.97 141.15 199.59 Z M 140.50 200.28 L 139.79 200.98 C 139.18 201.58 139.17 202.57 139.78 203.19 C 140.38 203.80 141.37 203.81 141.98 203.20 L 142.69 202.51 C 143.30 201.90 143.31 200.91 142.71 200.30 C 142.10 199.68 141.11 199.68 140.50 200.28 Z M 139.83 200.95 L 139.09 201.62 C 138.46 202.21 138.42 203.20 139.01 203.83 C 139.60 204.46 140.58 204.50 141.22 203.91 L 141.95 203.23 C 142.58 202.65 142.62 201.66 142.03 201.03 C 141.45 200.40 140.46 200.36 139.83 200.95 Z M 139.13 201.59 L 138.36 202.27 C 137.71 202.84 137.64 203.82 138.21 204.47 C 138.78 205.12 139.76 205.19 140.41 204.62 L 141.18 203.94 C 141.83 203.38 141.90 202.39 141.33 201.74 C 140.76 201.09 139.78 201.03 139.13 201.59 Z M 138.39 202.24 L 137.60 202.89 C 136.93 203.44 136.84 204.43 137.39 205.09 C 137.93 205.76 138.92 205.85 139.58 205.30 L 140.38 204.65 C 141.04 204.10 141.14 203.12 140.59 202.45 C 140.04 201.79 139.06 201.69 138.39 202.24 Z M 137.64 202.86 L 136.84 203.47 C 136.16 204.00 136.03 204.98 136.56 205.66 C 137.08 206.34 138.06 206.47 138.74 205.95 L 139.54 205.34 C 140.23 204.81 140.35 203.83 139.83 203.15 C 139.30 202.46 138.32 202.34 137.64 202.86 Z M 136.90 203.43 L 136.11 203.98 C 135.41 204.48 135.24 205.45 135.73 206.16 C 136.23 206.86 137.20 207.03 137.91 206.54 L 138.69 205.99 C 139.40 205.49 139.57 204.52 139.07 203.81 C 138.58 203.11 137.60 202.94 136.90 203.43 Z M 136.19 203.93 L 135.30 204.49 C 134.56 204.94 134.34 205.90 134.79 206.64 C 135.24 207.37 136.21 207.60 136.94 207.14 L 137.83 206.59 C 138.57 206.13 138.79 205.17 138.34 204.44 C 137.88 203.71 136.92 203.48 136.19 203.93 Z M 135.39 204.43 L 134.50 204.90 C 133.74 205.30 133.44 206.24 133.85 207.01 C 134.25 207.77 135.19 208.06 135.95 207.66 L 136.84 207.20 C 137.61 206.79 137.90 205.85 137.50 205.09 C 137.10 204.32 136.16 204.03 135.39 204.43 Z M 134.60 204.85 L 133.73 205.24 C 132.94 205.58 132.58 206.50 132.92 207.29 C 133.27 208.08 134.19 208.44 134.98 208.09 L 135.86 207.71 C 136.65 207.36 137.00 206.44 136.66 205.65 C 136.31 204.86 135.39 204.51 134.60 204.85 Z M 133.81 205.20 L 132.99 205.51 C 132.18 205.80 131.76 206.70 132.06 207.51 C 132.36 208.32 133.26 208.73 134.07 208.44 L 134.89 208.13 C 135.70 207.83 136.12 206.93 135.82 206.13 C 135.52 205.32 134.62 204.90 133.81 205.20 Z M 133.08 205.47 L 132.24 205.72 C 131.41 205.97 130.94 206.83 131.19 207.66 C 131.43 208.49 132.30 208.96 133.12 208.72 L 133.97 208.47 C 134.79 208.22 135.27 207.36 135.02 206.53 C 134.78 205.70 133.91 205.23 133.08 205.47 Z M 132.36 205.69 L 131.38 205.90 C 130.54 206.08 130.00 206.91 130.18 207.76 C 130.36 208.60 131.19 209.14 132.04 208.95 L 133.01 208.75 C 133.85 208.57 134.39 207.74 134.21 206.89 C 134.03 206.05 133.20 205.51 132.36 205.69 Z M 131.49 205.88 L 130.30 206.05 C 129.45 206.17 128.86 206.96 128.98 207.82 C 129.10 208.67 129.89 209.26 130.75 209.14 L 131.93 208.97 C 132.78 208.85 133.38 208.06 133.25 207.21 C 133.13 206.35 132.34 205.76 131.49 205.88 Z M 130.38 206.04 L 129.40 206.13 C 128.54 206.21 127.91 206.98 127.99 207.83 C 128.07 208.69 128.83 209.32 129.69 209.24 L 130.67 209.15 C 131.53 209.07 132.16 208.31 132.08 207.45 C 132.00 206.59 131.24 205.96 130.38 206.04 Z M 129.46 206.13 L 128.42 206.18 C 127.56 206.23 126.90 206.96 126.94 207.83 C 126.99 208.69 127.72 209.35 128.59 209.30 L 129.62 209.25 C 130.48 209.20 131.15 208.47 131.10 207.61 C 131.06 206.75 130.32 206.08 129.46 206.13 Z M 128.50 206.18 L 127.44 206.19 C 126.57 206.19 125.88 206.89 125.88 207.75 C 125.88 208.62 126.59 209.31 127.45 209.31 L 128.51 209.30 C 129.37 209.30 130.07 208.60 130.06 207.74 C 130.06 206.88 129.36 206.18 128.50 206.18 Z M 127.54 206.19 L 126.51 206.13 C 125.65 206.07 124.91 206.73 124.86 207.59 C 124.80 208.45 125.46 209.19 126.32 209.24 L 127.35 209.31 C 128.21 209.36 128.95 208.70 129.00 207.84 C 129.05 206.98 128.40 206.24 127.54 206.19 Z M 126.66 206.14 L 125.72 206.00 C 124.87 205.86 124.07 206.44 123.93 207.30 C 123.80 208.15 124.38 208.95 125.24 209.08 L 126.17 209.23 C 127.02 209.36 127.82 208.78 127.96 207.93 C 128.09 207.07 127.51 206.28 126.66 206.14 Z M 125.98 206.06 L 124.99 205.73 C 124.17 205.45 123.29 205.89 123.01 206.70 C 122.74 207.52 123.17 208.41 123.99 208.68 L 124.98 209.02 C 125.79 209.29 126.68 208.85 126.96 208.04 C 127.23 207.22 126.79 206.33 125.98 206.06 Z M 125.35 205.90 L 124.51 205.34 C 123.79 204.87 122.82 205.06 122.34 205.78 C 121.87 206.50 122.06 207.47 122.78 207.94 L 123.63 208.51 C 124.35 208.98 125.32 208.79 125.79 208.07 C 126.27 207.35 126.07 206.38 125.35 205.90 Z M 124.79 205.59 L 124.16 204.89 C 123.57 204.26 122.58 204.22 121.95 204.80 C 121.32 205.39 121.27 206.37 121.86 207.01 L 122.50 207.70 C 123.08 208.33 124.07 208.38 124.70 207.79 C 125.34 207.21 125.38 206.22 124.79 205.59 Z M 124.29 205.05 L 123.75 204.30 C 123.26 203.59 122.29 203.42 121.58 203.91 C 120.87 204.41 120.70 205.38 121.20 206.09 L 121.73 206.85 C 122.22 207.55 123.20 207.72 123.90 207.23 C 124.61 206.73 124.78 205.76 124.29 205.05 Z"
      fill="black"
      fill-rule="nonzero" /></svg>