<svg xmlns="http://www.w3.org/2000/svg" width="300" height="300" viewBox="0 0 300 300">
<path d="M 152.38 139.52 L 151.43 139.90 C 150.63 140.22 150.25 141.13 150.57 141.93 C 150.89 142.73 151.80 143.12 152.60 142.80 L 153.55 142.41 C 154.35 142.09 154.74 141.18 154.41 140.38 C 154.09 139.58 153.18 139.19 152.38 139.52 Z M 151.35 139.93 L 150.44 140.36 C 149.66 140.73 149.33 141.66 149.69 142.44 C 150.06 143.22 150.99 143.55 151.77 143.19 L 152.68 142.76 C 153.46 142.39 153.80 141.46 153.43 140.68 C 153.06 139.90 152.13 139.57 151.35 139.93 Z M 150.28 140.45 L 149.45 140.97 C 148.72 141.42 148.50 142.39 148.96 143.12 C 149.41 143.85 150.38 144.07 151.11 143.61 L 151.93 143.10 C 152.67 142.64 152.89 141.68 152.43 140.95 C 151.97 140.22 151.01 139.99 150.28 140.45 Z M 149.24 141.13 L 148.51 141.79 C 147.87 142.36 147.82 143.35 148.39 143.99 C 148.97 144.63 149.96 144.68 150.60 144.11 L 151.33 143.45 C 151.97 142.87 152.02 141.89 151.44 141.25 C 150.86 140.60 149.88 140.55 149.24 141.13 Z M 148.38 141.92 L 147.72 142.67 C 147.16 143.32 147.22 144.30 147.87 144.87 C 148.52 145.44 149.50 145.37 150.07 144.72 L 150.73 143.97 C 151.30 143.33 151.23 142.34 150.58 141.77 C 149.93 141.20 148.95 141.27 148.38 141.92 Z M 147.71 142.68 L 147.06 143.44 C 146.50 144.10 146.57 145.08 147.23 145.64 C 147.88 146.21 148.87 146.13 149.43 145.47 L 150.08 144.71 C 150.64 144.06 150.57 143.07 149.91 142.51 C 149.26 141.95 148.27 142.02 147.71 142.68 Z M 147.17 143.33 L 146.34 144.11 C 145.72 144.70 145.69 145.69 146.28 146.32 C 146.88 146.94 147.86 146.97 148.49 146.38 L 149.32 145.59 C 149.94 145.00 149.97 144.01 149.38 143.38 C 148.78 142.76 147.80 142.73 147.17 143.33 Z M 146.71 143.85 L 145.83 144.30 C 145.06 144.69 144.76 145.63 145.15 146.40 C 145.54 147.17 146.49 147.47 147.25 147.08 L 148.13 146.63 C 148.89 146.24 149.20 145.30 148.81 144.53 C 148.41 143.77 147.47 143.46 146.71 143.85 Z M 147.15 144.25 L 146.50 143.98 C 145.70 143.64 144.79 144.01 144.45 144.81 C 144.12 145.60 144.49 146.52 145.28 146.85 L 145.94 147.13 C 146.73 147.46 147.65 147.09 147.98 146.30 C 148.32 145.50 147.94 144.59 147.15 144.25 Z M 147.34 144.83 L 147.08 144.19 C 146.76 143.39 145.85 143.00 145.05 143.32 C 144.25 143.64 143.86 144.55 144.18 145.35 L 144.44 146.00 C 144.76 146.80 145.67 147.19 146.47 146.86 C 147.27 146.54 147.66 145.63 147.34 144.83 Z M 147.18 144.58 L 147.07 143.65 C 146.96 142.79 146.19 142.18 145.33 142.29 C 144.47 142.39 143.86 143.17 143.97 144.02 L 144.08 144.96 C 144.19 145.82 144.96 146.43 145.82 146.32 C 146.68 146.22 147.29 145.44 147.18 144.58 Z M 147.08 143.89 L 147.12 142.76 C 147.15 141.90 146.48 141.17 145.61 141.14 C 144.75 141.11 144.03 141.79 144.00 142.65 L 143.96 143.78 C 143.93 144.64 144.60 145.36 145.46 145.39 C 146.32 145.43 147.05 144.75 147.08 143.89 Z M 147.10 142.96 L 147.30 141.73 C 147.44 140.88 146.87 140.07 146.02 139.93 C 145.17 139.79 144.36 140.37 144.22 141.22 L 144.02 142.45 C 143.88 143.30 144.45 144.10 145.30 144.24 C 146.15 144.38 146.96 143.81 147.10 142.96 Z M 147.26 141.90 L 147.55 140.89 C 147.79 140.06 147.31 139.20 146.48 138.96 C 145.65 138.72 144.79 139.20 144.55 140.03 L 144.26 141.04 C 144.02 141.87 144.50 142.74 145.33 142.97 C 146.16 143.21 147.03 142.73 147.26 141.90 Z M 147.51 141.03 L 147.88 140.06 C 148.20 139.25 147.80 138.35 146.99 138.04 C 146.19 137.72 145.29 138.12 144.97 138.92 L 144.60 139.89 C 144.28 140.70 144.68 141.60 145.48 141.92 C 146.29 142.23 147.19 141.83 147.51 141.03 Z M 147.83 140.17 L 148.28 139.25 C 148.66 138.47 148.34 137.54 147.56 137.16 C 146.79 136.78 145.85 137.11 145.47 137.88 L 145.02 138.81 C 144.65 139.58 144.97 140.52 145.75 140.89 C 146.52 141.27 147.46 140.95 147.83 140.17 Z M 148.23 139.35 L 148.73 138.50 C 149.16 137.75 148.91 136.79 148.17 136.36 C 147.42 135.92 146.47 136.18 146.03 136.92 L 145.53 137.78 C 145.10 138.52 145.35 139.48 146.09 139.91 C 146.83 140.35 147.79 140.10 148.23 139.35 Z M 148.66 138.60 L 149.20 137.83 C 149.69 137.12 149.51 136.14 148.80 135.65 C 148.09 135.16 147.12 135.34 146.63 136.05 L 146.10 136.82 C 145.60 137.53 145.78 138.50 146.49 138.99 C 147.20 139.48 148.17 139.30 148.66 138.60 Z M 149.10 137.95 L 149.84 137.08 C 150.40 136.42 150.33 135.44 149.67 134.88 C 149.01 134.32 148.03 134.40 147.47 135.05 L 146.72 135.92 C 146.16 136.58 146.24 137.57 146.90 138.13 C 147.55 138.69 148.54 138.61 149.10 137.95 Z M 149.65 137.27 L 150.49 136.58 C 151.15 136.02 151.24 135.04 150.69 134.38 C 150.14 133.71 149.15 133.62 148.49 134.17 L 147.66 134.86 C 147.00 135.42 146.90 136.40 147.46 137.06 C 148.01 137.73 148.99 137.82 149.65 137.27 Z M 150.10 136.81 L 150.91 136.46 C 151.71 136.12 152.07 135.21 151.73 134.41 C 151.39 133.62 150.48 133.25 149.68 133.59 L 148.87 133.94 C 148.08 134.28 147.71 135.20 148.05 135.99 C 148.39 136.78 149.31 137.15 150.10 136.81 Z M 150.21 136.59 L 150.99 136.63 C 151.85 136.68 152.59 136.02 152.64 135.16 C 152.69 134.30 152.03 133.56 151.17 133.51 L 150.39 133.47 C 149.53 133.42 148.79 134.08 148.74 134.94 C 148.69 135.80 149.35 136.54 150.21 136.59 Z M 150.23 136.38 L 150.98 136.86 C 151.70 137.33 152.67 137.12 153.13 136.40 C 153.60 135.68 153.39 134.71 152.67 134.24 L 151.93 133.76 C 151.20 133.29 150.24 133.50 149.77 134.23 C 149.30 134.95 149.51 135.92 150.23 136.38 Z M 150.56 136.48 L 151.17 137.30 C 151.68 137.99 152.66 138.14 153.35 137.63 C 154.05 137.12 154.20 136.15 153.68 135.45 L 153.08 134.63 C 152.57 133.93 151.59 133.78 150.90 134.29 C 150.20 134.80 150.05 135.78 150.56 136.48 Z M 150.97 136.94 L 151.38 137.98 C 151.69 138.79 152.59 139.18 153.40 138.87 C 154.20 138.56 154.60 137.65 154.29 136.85 L 153.88 135.81 C 153.57 135.01 152.66 134.61 151.86 134.92 C 151.06 135.23 150.66 136.14 150.97 136.94 Z M 151.29 137.67 L 151.46 138.66 C 151.60 139.51 152.40 140.09 153.25 139.94 C 154.10 139.80 154.68 139.00 154.54 138.15 L 154.37 137.16 C 154.23 136.31 153.43 135.73 152.57 135.88 C 151.72 136.02 151.15 136.82 151.29 137.67 Z M 151.44 138.42 L 151.45 139.44 C 151.45 140.30 152.16 140.99 153.02 140.99 C 153.88 140.98 154.58 140.27 154.57 139.41 L 154.56 138.39 C 154.55 137.53 153.84 136.83 152.98 136.84 C 152.12 136.85 151.43 137.56 151.44 138.42 Z M 151.46 139.23 L 151.33 140.22 C 151.22 141.08 151.83 141.86 152.69 141.97 C 153.54 142.08 154.32 141.47 154.43 140.61 L 154.56 139.62 C 154.66 138.76 154.06 137.98 153.20 137.88 C 152.35 137.77 151.56 138.37 151.46 139.23 Z M 151.37 140.02 L 151.12 140.97 C 150.90 141.80 151.39 142.66 152.23 142.88 C 153.06 143.10 153.92 142.60 154.14 141.77 L 154.39 140.82 C 154.61 139.99 154.12 139.13 153.28 138.91 C 152.45 138.69 151.59 139.19 151.37 140.02 Z M 151.20 140.74 L 150.80 141.65 C 150.45 142.44 150.81 143.36 151.60 143.71 C 152.39 144.05 153.31 143.70 153.66 142.91 L 154.06 142.00 C 154.40 141.21 154.05 140.29 153.26 139.94 C 152.47 139.59 151.55 139.95 151.20 140.74 Z M 150.91 141.44 L 150.39 142.27 C 149.93 143.00 150.15 143.96 150.87 144.42 C 151.60 144.88 152.57 144.66 153.03 143.94 L 153.55 143.11 C 154.01 142.38 153.79 141.42 153.06 140.96 C 152.34 140.50 151.37 140.71 150.91 141.44 Z M 150.49 142.12 L 149.86 142.92 C 149.32 143.59 149.42 144.57 150.10 145.11 C 150.77 145.65 151.75 145.54 152.29 144.87 L 152.93 144.08 C 153.47 143.41 153.36 142.42 152.69 141.88 C 152.01 141.34 151.03 141.45 150.49 142.12 Z M 149.93 142.83 L 149.26 143.55 C 148.68 144.19 148.71 145.17 149.35 145.76 C 149.98 146.34 150.97 146.31 151.55 145.67 L 152.22 144.95 C 152.80 144.32 152.77 143.33 152.13 142.75 C 151.50 142.16 150.51 142.20 149.93 142.83 Z M 149.34 143.47 L 148.60 144.16 C 147.97 144.75 147.94 145.73 148.52 146.37 C 149.11 147.00 150.10 147.03 150.73 146.44 L 151.47 145.76 C 152.10 145.17 152.14 144.18 151.55 143.55 C 150.96 142.92 149.97 142.88 149.34 143.47 Z M 148.72 144.06 L 147.92 144.67 C 147.23 145.19 147.10 146.17 147.62 146.86 C 148.14 147.54 149.12 147.68 149.80 147.16 L 150.61 146.55 C 151.30 146.02 151.43 145.05 150.91 144.36 C 150.39 143.67 149.41 143.54 148.72 144.06 Z M 148.10 144.55 L 147.20 145.05 C 146.44 145.47 146.17 146.42 146.59 147.18 C 147.01 147.93 147.96 148.20 148.72 147.78 L 149.62 147.28 C 150.37 146.86 150.64 145.91 150.22 145.15 C 149.80 144.40 148.85 144.13 148.10 144.55 Z M 147.49 144.93 L 146.44 145.26 C 145.62 145.51 145.16 146.39 145.42 147.21 C 145.68 148.03 146.55 148.49 147.37 148.23 L 148.42 147.91 C 149.25 147.65 149.70 146.77 149.45 145.95 C 149.19 145.13 148.31 144.67 147.49 144.93 Z M 146.95 145.18 L 146.00 145.16 C 145.14 145.14 144.42 145.82 144.40 146.68 C 144.38 147.55 145.06 148.26 145.92 148.28 L 146.87 148.31 C 147.73 148.33 148.45 147.64 148.47 146.78 C 148.49 145.92 147.81 145.20 146.95 145.18 Z M 146.81 145.41 L 146.11 144.95 C 145.38 144.48 144.42 144.69 143.95 145.41 C 143.48 146.13 143.68 147.10 144.40 147.57 L 145.11 148.03 C 145.83 148.50 146.80 148.30 147.27 147.57 C 147.74 146.85 147.53 145.88 146.81 145.41 Z M 146.68 145.62 L 146.32 144.82 C 145.97 144.04 145.04 143.69 144.26 144.04 C 143.47 144.39 143.12 145.32 143.47 146.10 L 143.83 146.90 C 144.18 147.69 145.11 148.04 145.89 147.69 C 146.68 147.33 147.03 146.41 146.68 145.62 Z M 146.45 145.30 L 146.34 144.28 C 146.25 143.42 145.48 142.80 144.62 142.89 C 143.76 142.98 143.14 143.75 143.23 144.61 L 143.34 145.63 C 143.44 146.49 144.21 147.11 145.06 147.02 C 145.92 146.92 146.54 146.15 146.45 145.30 Z M 146.34 144.61 L 146.45 143.54 C 146.55 142.68 145.93 141.91 145.07 141.82 C 144.21 141.73 143.44 142.35 143.35 143.20 L 143.23 144.28 C 143.14 145.13 143.76 145.90 144.62 146.00 C 145.48 146.09 146.25 145.47 146.34 144.61 Z M 146.38 143.88 L 146.75 142.81 C 147.03 141.99 146.60 141.10 145.79 140.82 C 144.97 140.54 144.08 140.97 143.80 141.78 L 143.43 142.86 C 143.14 143.67 143.57 144.56 144.39 144.85 C 145.20 145.13 146.09 144.70 146.38 143.88 Z M 146.52 143.23 L 147.15 142.40 C 147.67 141.71 147.53 140.73 146.84 140.21 C 146.15 139.69 145.17 139.83 144.65 140.52 L 144.03 141.36 C 143.51 142.05 143.65 143.03 144.34 143.54 C 145.03 144.06 146.01 143.92 146.52 143.23 Z M 146.64 142.84 L 147.40 142.43 C 148.16 142.03 148.44 141.08 148.04 140.32 C 147.63 139.56 146.69 139.27 145.93 139.68 L 145.17 140.08 C 144.41 140.49 144.12 141.43 144.53 142.19 C 144.93 142.96 145.88 143.24 146.64 142.84 Z M 146.44 142.60 L 147.26 142.72 C 148.12 142.84 148.91 142.25 149.03 141.39 C 149.15 140.54 148.56 139.75 147.71 139.63 L 146.88 139.51 C 146.03 139.39 145.24 139.98 145.12 140.83 C 144.99 141.69 145.59 142.48 146.44 142.60 Z M 146.49 142.37 L 147.24 143.00 C 147.90 143.55 148.89 143.45 149.44 142.79 C 149.99 142.13 149.89 141.14 149.23 140.59 L 148.48 139.97 C 147.82 139.42 146.83 139.51 146.28 140.18 C 145.73 140.84 145.82 141.82 146.49 142.37 Z M 146.87 142.55 L 147.40 143.51 C 147.82 144.27 148.77 144.54 149.53 144.12 C 150.28 143.70 150.55 142.75 150.13 141.99 L 149.60 141.03 C 149.18 140.28 148.23 140.01 147.47 140.43 C 146.72 140.85 146.45 141.80 146.87 142.55 Z M 147.25 143.12 L 147.46 144.01 C 147.66 144.84 148.51 145.36 149.34 145.16 C 150.18 144.96 150.70 144.12 150.50 143.28 L 150.29 142.39 C 150.09 141.55 149.24 141.03 148.40 141.23 C 147.57 141.43 147.05 142.28 147.25 143.12 Z M 147.42 143.68 L 147.44 144.66 C 147.46 145.52 148.18 146.20 149.04 146.18 C 149.90 146.16 150.59 145.45 150.56 144.59 L 150.54 143.60 C 150.52 142.74 149.80 142.06 148.94 142.08 C 148.08 142.10 147.40 142.82 147.42 143.68 Z M 147.46 144.37 L 147.29 145.41 C 147.15 146.26 147.72 147.06 148.57 147.20 C 149.42 147.35 150.23 146.77 150.37 145.92 L 150.54 144.88 C 150.69 144.03 150.11 143.23 149.26 143.08 C 148.41 142.94 147.61 143.51 147.46 144.37 Z M 147.36 145.15 L 147.01 146.13 C 146.73 146.95 147.16 147.84 147.97 148.12 C 148.78 148.41 149.68 147.98 149.96 147.16 L 150.30 146.18 C 150.59 145.36 150.16 144.47 149.34 144.19 C 148.53 143.90 147.64 144.33 147.36 145.15 Z M 147.10 145.93 L 146.63 146.83 C 146.24 147.60 146.54 148.54 147.31 148.94 C 148.07 149.33 149.02 149.03 149.41 148.26 L 149.87 147.36 C 150.27 146.60 149.97 145.65 149.20 145.26 C 148.43 144.86 147.49 145.17 147.10 145.93 Z M 146.73 146.67 L 146.16 147.52 C 145.67 148.23 145.86 149.20 146.58 149.69 C 147.29 150.17 148.26 149.98 148.74 149.27 L 149.32 148.42 C 149.80 147.71 149.61 146.74 148.90 146.25 C 148.18 145.77 147.21 145.96 146.73 146.67 Z M 146.27 147.37 L 145.62 148.13 C 145.05 148.78 145.12 149.77 145.78 150.33 C 146.43 150.89 147.42 150.82 147.98 150.17 L 148.63 149.41 C 149.19 148.76 149.12 147.78 148.47 147.21 C 147.82 146.65 146.83 146.72 146.27 147.37 Z M 145.77 147.97 L 144.96 148.68 C 144.31 149.25 144.24 150.23 144.80 150.88 C 145.37 151.53 146.36 151.60 147.01 151.04 L 147.82 150.33 C 148.47 149.76 148.54 148.78 147.98 148.13 C 147.41 147.47 146.42 147.41 145.77 147.97 Z M 145.22 148.49 L 144.23 149.04 C 143.48 149.46 143.21 150.41 143.63 151.17 C 144.05 151.92 145.00 152.19 145.75 151.77 L 146.74 151.22 C 147.49 150.81 147.77 149.85 147.35 149.10 C 146.93 148.35 145.98 148.08 145.22 148.49 Z M 144.74 148.87 L 143.87 149.01 C 143.02 149.15 142.45 149.95 142.58 150.80 C 142.72 151.65 143.52 152.23 144.38 152.09 L 145.24 151.95 C 146.09 151.81 146.67 151.01 146.53 150.16 C 146.40 149.31 145.59 148.73 144.74 148.87 Z M 144.88 149.18 L 144.25 148.84 C 143.49 148.42 142.54 148.70 142.13 149.46 C 141.72 150.21 141.99 151.16 142.75 151.58 L 143.38 151.92 C 144.13 152.33 145.08 152.06 145.49 151.30 C 145.91 150.54 145.63 149.59 144.88 149.18 Z M 144.94 149.61 L 144.60 148.80 C 144.27 148.00 143.36 147.63 142.56 147.96 C 141.76 148.29 141.39 149.20 141.72 150.00 L 142.06 150.81 C 142.39 151.60 143.31 151.98 144.10 151.65 C 144.90 151.32 145.27 150.40 144.94 149.61 Z M 144.72 149.25 L 144.61 148.14 C 144.53 147.28 143.77 146.65 142.91 146.73 C 142.05 146.82 141.42 147.58 141.50 148.44 L 141.61 149.55 C 141.69 150.40 142.45 151.03 143.31 150.95 C 144.17 150.87 144.80 150.11 144.72 149.25 Z M 144.62 148.35 L 144.66 147.26 C 144.69 146.40 144.02 145.67 143.16 145.64 C 142.30 145.61 141.57 146.28 141.54 147.14 L 141.50 148.23 C 141.46 149.09 142.13 149.82 143.00 149.85 C 143.86 149.88 144.58 149.21 144.62 148.35 Z M 144.65 147.40 L 144.77 146.40 C 144.88 145.55 144.28 144.76 143.42 144.66 C 142.56 144.55 141.78 145.15 141.68 146.01 L 141.55 147.01 C 141.44 147.86 142.05 148.64 142.90 148.75 C 143.76 148.86 144.54 148.25 144.65 147.40 Z M 144.75 146.54 L 144.97 145.56 C 145.15 144.71 144.62 143.88 143.78 143.69 C 142.94 143.51 142.10 144.04 141.92 144.88 L 141.70 145.87 C 141.51 146.71 142.05 147.54 142.89 147.73 C 143.73 147.91 144.56 147.38 144.75 146.54 Z M 144.92 145.72 L 145.24 144.77 C 145.51 143.96 145.07 143.07 144.26 142.80 C 143.44 142.52 142.55 142.96 142.28 143.78 L 141.96 144.72 C 141.69 145.54 142.13 146.42 142.94 146.70 C 143.76 146.97 144.65 146.53 144.92 145.72 Z M 145.16 144.97 L 145.62 144.03 C 146.00 143.26 145.68 142.32 144.91 141.94 C 144.13 141.56 143.20 141.88 142.82 142.65 L 142.36 143.59 C 141.98 144.36 142.30 145.30 143.07 145.68 C 143.84 146.06 144.78 145.74 145.16 144.97 Z M 145.50 144.23 L 146.08 143.40 C 146.57 142.69 146.39 141.72 145.68 141.23 C 144.98 140.74 144.00 140.91 143.51 141.62 L 142.94 142.45 C 142.44 143.16 142.62 144.13 143.33 144.62 C 144.04 145.12 145.01 144.94 145.50 144.23 Z M 145.92 143.59 L 146.59 142.89 C 147.19 142.27 147.17 141.28 146.55 140.69 C 145.93 140.09 144.94 140.11 144.34 140.73 L 143.67 141.43 C 143.07 142.05 143.09 143.04 143.71 143.63 C 144.33 144.23 145.32 144.21 145.92 143.59 Z M 146.37 143.08 L 147.20 142.50 C 147.90 142.00 148.07 141.02 147.57 140.32 C 147.07 139.62 146.09 139.45 145.39 139.95 L 144.56 140.54 C 143.86 141.04 143.69 142.01 144.19 142.72 C 144.69 143.42 145.67 143.58 146.37 143.08 Z M 146.85 142.68 L 147.80 142.32 C 148.61 142.01 149.01 141.10 148.70 140.30 C 148.39 139.49 147.49 139.09 146.68 139.40 L 145.73 139.77 C 144.93 140.08 144.53 140.98 144.84 141.78 C 145.15 142.59 146.05 142.99 146.85 142.68 Z M 147.24 142.42 L 148.18 142.42 C 149.05 142.42 149.74 141.72 149.74 140.86 C 149.74 139.99 149.04 139.30 148.18 139.30 L 147.24 139.30 C 146.38 139.30 145.68 140.00 145.68 140.86 C 145.68 141.72 146.38 142.42 147.24 142.42 Z M 147.50 142.26 L 148.31 142.65 C 149.09 143.03 150.02 142.71 150.40 141.93 C 150.77 141.15 150.45 140.22 149.67 139.85 L 148.86 139.45 C 148.09 139.08 147.15 139.40 146.78 140.18 C 146.40 140.95 146.73 141.89 147.50 142.26 Z M 147.87 142.34 L 148.55 143.04 C 149.15 143.65 150.14 143.67 150.76 143.07 C 151.38 142.47 151.39 141.48 150.79 140.86 L 150.11 140.16 C 149.51 139.54 148.52 139.53 147.90 140.13 C 147.28 140.73 147.27 141.72 147.87 142.34 Z M 148.33 142.75 L 148.87 143.65 C 149.31 144.40 150.27 144.64 151.01 144.20 C 151.75 143.75 151.99 142.80 151.55 142.06 L 151.01 141.15 C 150.57 140.41 149.61 140.17 148.87 140.61 C 148.13 141.05 147.89 142.01 148.33 142.75 Z M 148.75 143.40 L 149.10 144.35 C 149.40 145.16 150.30 145.57 151.11 145.27 C 151.92 144.97 152.33 144.07 152.03 143.27 L 151.67 142.31 C 151.37 141.50 150.47 141.09 149.67 141.39 C 148.86 141.69 148.45 142.59 148.75 143.40 Z M 149.03 144.09 L 149.20 145.04 C 149.36 145.89 150.17 146.45 151.02 146.30 C 151.87 146.14 152.43 145.33 152.27 144.48 L 152.10 143.53 C 151.94 142.68 151.13 142.12 150.28 142.27 C 149.43 142.43 148.87 143.24 149.03 144.09 Z M 149.18 144.77 L 149.18 145.77 C 149.19 146.63 149.89 147.32 150.75 147.32 C 151.62 147.31 152.31 146.61 152.31 145.75 L 152.30 144.75 C 152.30 143.89 151.59 143.20 150.73 143.20 C 149.87 143.21 149.17 143.91 149.18 144.77 Z M 149.21 145.49 L 149.03 146.54 C 148.88 147.39 149.46 148.20 150.31 148.34 C 151.16 148.49 151.96 147.91 152.11 147.06 L 152.28 146.02 C 152.43 145.17 151.86 144.36 151.01 144.22 C 150.16 144.07 149.35 144.64 149.21 145.49 Z M 149.09 146.29 L 148.68 147.48 C 148.39 148.29 148.82 149.18 149.63 149.47 C 150.45 149.75 151.34 149.32 151.62 148.51 L 152.04 147.32 C 152.33 146.50 151.90 145.61 151.08 145.33 C 150.27 145.04 149.38 145.47 149.09 146.29 Z M 148.80 147.21 L 148.27 148.11 C 147.84 148.86 148.09 149.81 148.83 150.25 C 149.58 150.68 150.53 150.43 150.97 149.69 L 151.50 148.78 C 151.93 148.04 151.68 147.08 150.94 146.65 C 150.19 146.21 149.24 146.46 148.80 147.21 Z M 148.84 147.55 L 148.34 147.84 C 147.59 148.27 147.34 149.23 147.77 149.98 C 148.21 150.72 149.16 150.97 149.91 150.54 L 150.41 150.25 C 151.15 149.82 151.40 148.86 150.97 148.12 C 150.54 147.37 149.58 147.12 148.84 147.55 Z M 150.40 148.30 L 150.08 147.84 C 149.59 147.13 148.62 146.96 147.91 147.45 C 147.20 147.94 147.03 148.92 147.52 149.62 L 147.84 150.08 C 148.33 150.79 149.31 150.96 150.01 150.47 C 150.72 149.98 150.89 149.01 150.40 148.30 Z M 150.34 148.49 L 150.19 147.51 C 150.05 146.65 149.25 146.07 148.40 146.21 C 147.55 146.34 146.97 147.14 147.10 148.00 L 147.26 148.98 C 147.39 149.83 148.19 150.41 149.05 150.27 C 149.90 150.14 150.48 149.34 150.34 148.49 Z M 150.21 147.79 L 150.24 146.54 C 150.26 145.68 149.58 144.96 148.72 144.94 C 147.86 144.92 147.14 145.60 147.12 146.46 L 147.08 147.71 C 147.06 148.57 147.74 149.29 148.61 149.31 C 149.47 149.33 150.18 148.65 150.21 147.79 Z M 150.21 146.77 L 150.42 145.62 C 150.57 144.77 150.01 143.96 149.16 143.81 C 148.31 143.66 147.50 144.22 147.35 145.07 L 147.14 146.22 C 146.99 147.07 147.55 147.88 148.40 148.04 C 149.25 148.19 150.06 147.62 150.21 146.77 Z M 150.36 145.85 L 150.70 144.86 C 150.98 144.04 150.54 143.15 149.73 142.87 C 148.91 142.60 148.02 143.03 147.75 143.85 L 147.41 144.85 C 147.13 145.66 147.56 146.55 148.38 146.83 C 149.20 147.10 150.08 146.67 150.36 145.85 Z M 150.61 145.08 L 151.07 144.19 C 151.47 143.43 151.18 142.48 150.41 142.08 C 149.65 141.68 148.71 141.98 148.31 142.74 L 147.84 143.63 C 147.44 144.39 147.73 145.33 148.50 145.74 C 149.26 146.14 150.21 145.84 150.61 145.08 Z M 150.92 144.42 L 151.50 143.68 C 152.03 143.00 151.90 142.02 151.22 141.49 C 150.54 140.96 149.56 141.09 149.03 141.77 L 148.46 142.51 C 147.93 143.19 148.05 144.17 148.73 144.70 C 149.41 145.23 150.39 145.10 150.92 144.42 Z M 151.24 143.94 L 152.04 143.30 C 152.71 142.76 152.82 141.78 152.28 141.11 C 151.74 140.44 150.76 140.33 150.09 140.87 L 149.29 141.50 C 148.62 142.04 148.51 143.03 149.05 143.70 C 149.58 144.37 150.57 144.48 151.24 143.94 Z M 151.63 143.54 L 152.60 143.16 C 153.41 142.85 153.81 141.94 153.49 141.14 C 153.18 140.34 152.28 139.94 151.47 140.25 L 150.50 140.63 C 149.69 140.94 149.30 141.85 149.61 142.65 C 149.92 143.45 150.83 143.85 151.63 143.54 Z M 152.04 143.27 L 152.97 143.26 C 153.84 143.26 154.53 142.56 154.53 141.69 C 154.52 140.83 153.82 140.14 152.96 140.14 L 152.03 140.14 C 151.17 140.15 150.47 140.85 150.48 141.71 C 150.48 142.57 151.18 143.27 152.04 143.27 Z M 152.27 143.10 L 153.02 143.47 C 153.79 143.85 154.73 143.54 155.11 142.77 C 155.49 142.00 155.18 141.06 154.41 140.67 L 153.66 140.30 C 152.89 139.92 151.95 140.23 151.57 141.01 C 151.19 141.78 151.50 142.71 152.27 143.10 Z M 152.48 143.03 L 153.01 143.72 C 153.54 144.40 154.52 144.53 155.20 144.00 C 155.89 143.48 156.01 142.50 155.49 141.82 L 154.95 141.12 C 154.42 140.44 153.44 140.31 152.76 140.84 C 152.08 141.36 151.95 142.34 152.48 143.03 Z M 152.81 143.37 L 153.21 144.33 C 153.54 145.13 154.45 145.51 155.25 145.18 C 156.05 144.85 156.42 143.93 156.09 143.14 L 155.69 142.17 C 155.36 141.37 154.45 141.00 153.65 141.33 C 152.86 141.66 152.48 142.57 152.81 143.37 Z M 153.15 144.15 L 153.44 145.22 C 153.67 146.05 154.53 146.53 155.36 146.30 C 156.19 146.07 156.68 145.21 156.45 144.38 L 156.16 143.32 C 155.93 142.49 155.07 142.00 154.23 142.23 C 153.40 142.46 152.92 143.32 153.15 144.15 Z M 153.42 145.14 L 153.61 146.01 C 153.80 146.85 154.63 147.38 155.48 147.20 C 156.32 147.01 156.85 146.18 156.66 145.34 L 156.47 144.46 C 156.28 143.62 155.45 143.09 154.61 143.28 C 153.77 143.46 153.24 144.29 153.42 145.14 Z M 153.60 145.95 L 153.78 146.90 C 153.93 147.75 154.74 148.31 155.59 148.15 C 156.44 148.00 157.00 147.19 156.85 146.34 L 156.67 145.39 C 156.52 144.54 155.71 143.98 154.86 144.14 C 154.01 144.29 153.45 145.11 153.60 145.95 Z M 153.77 146.85 L 153.92 147.86 C 154.04 148.71 154.84 149.30 155.69 149.18 C 156.54 149.05 157.13 148.26 157.01 147.41 L 156.86 146.39 C 156.73 145.54 155.94 144.95 155.08 145.07 C 154.23 145.20 153.64 145.99 153.77 146.85 Z M 153.91 147.81 L 154.04 148.89 C 154.13 149.75 154.91 150.36 155.77 150.27 C 156.62 150.17 157.24 149.39 157.14 148.54 L 157.01 147.45 C 156.91 146.60 156.14 145.98 155.28 146.08 C 154.43 146.18 153.81 146.96 153.91 147.81 Z M 154.03 148.85 L 154.12 149.92 C 154.20 150.78 154.95 151.42 155.81 151.34 C 156.67 151.27 157.31 150.51 157.23 149.65 L 157.14 148.58 C 157.07 147.72 156.31 147.09 155.45 147.16 C 154.59 147.23 153.96 147.99 154.03 148.85 Z M 154.12 149.89 L 154.18 150.92 C 154.24 151.78 154.98 152.43 155.84 152.38 C 156.70 152.32 157.35 151.58 157.30 150.72 L 157.24 149.69 C 157.18 148.83 156.44 148.18 155.58 148.23 C 154.72 148.28 154.07 149.02 154.12 149.89 Z M 154.18 150.89 L 154.23 151.93 C 154.27 152.79 155.00 153.46 155.86 153.42 C 156.72 153.38 157.39 152.65 157.35 151.79 L 157.30 150.75 C 157.26 149.89 156.53 149.22 155.67 149.26 C 154.81 149.30 154.14 150.03 154.18 150.89 Z M 154.23 151.91 L 154.26 152.94 C 154.29 153.80 155.01 154.48 155.87 154.45 C 156.74 154.42 157.41 153.70 157.38 152.84 L 157.35 151.81 C 157.32 150.95 156.60 150.27 155.74 150.30 C 154.88 150.33 154.20 151.05 154.23 151.91 Z M 154.26 152.92 L 154.29 153.90 C 154.30 154.77 155.02 155.45 155.88 155.43 C 156.74 155.41 157.43 154.69 157.41 153.83 L 157.38 152.85 C 157.36 151.99 156.65 151.31 155.79 151.33 C 154.93 151.35 154.24 152.06 154.26 152.92 Z M 154.28 153.89 L 154.30 154.81 C 154.31 155.67 155.02 156.36 155.89 156.34 C 156.75 156.33 157.44 155.62 157.42 154.76 L 157.41 153.84 C 157.39 152.98 156.68 152.29 155.82 152.31 C 154.96 152.32 154.27 153.03 154.28 153.89 Z M 154.30 154.80 L 154.31 155.94 C 154.32 156.81 155.03 157.50 155.89 157.49 C 156.75 157.48 157.44 156.77 157.43 155.91 L 157.42 154.76 C 157.41 153.90 156.71 153.21 155.84 153.22 C 154.98 153.23 154.29 153.94 154.30 154.80 Z M 154.31 155.93 L 154.31 156.94 C 154.31 157.81 155.01 158.50 155.88 158.50 C 156.74 158.50 157.44 157.80 157.44 156.94 L 157.43 155.93 C 157.43 155.06 156.73 154.36 155.87 154.37 C 155.01 154.37 154.31 155.07 154.31 155.93 Z M 154.31 156.92 L 154.30 157.85 C 154.29 158.71 154.98 159.42 155.84 159.43 C 156.70 159.44 157.41 158.75 157.42 157.89 L 157.44 156.96 C 157.45 156.10 156.76 155.39 155.90 155.38 C 155.03 155.37 154.32 156.06 154.31 156.92 Z M 154.30 157.82 L 154.27 158.72 C 154.25 159.59 154.92 160.31 155.79 160.33 C 156.65 160.36 157.37 159.68 157.39 158.82 L 157.42 157.92 C 157.45 157.06 156.77 156.33 155.91 156.31 C 155.05 156.28 154.33 156.96 154.30 157.82 Z M 154.28 158.69 L 154.22 159.67 C 154.18 160.53 154.84 161.27 155.70 161.31 C 156.56 161.36 157.29 160.70 157.34 159.84 L 157.39 158.86 C 157.44 158.00 156.78 157.26 155.92 157.21 C 155.06 157.17 154.32 157.83 154.28 158.69 Z M 154.23 159.62 L 154.14 160.61 C 154.06 161.47 154.70 162.23 155.56 162.30 C 156.42 162.38 157.17 161.74 157.25 160.89 L 157.34 159.89 C 157.41 159.03 156.78 158.27 155.92 158.20 C 155.06 158.12 154.30 158.76 154.23 159.62 Z M 154.15 160.54 L 154.01 161.55 C 153.90 162.40 154.50 163.19 155.36 163.30 C 156.21 163.41 156.99 162.81 157.11 161.96 L 157.24 160.95 C 157.36 160.10 156.75 159.32 155.90 159.20 C 155.04 159.09 154.26 159.69 154.15 160.54 Z M 154.03 161.46 L 153.84 162.45 C 153.68 163.30 154.24 164.11 155.09 164.27 C 155.93 164.43 156.75 163.87 156.91 163.03 L 157.09 162.04 C 157.25 161.19 156.70 160.38 155.85 160.22 C 155.00 160.06 154.19 160.62 154.03 161.46 Z M 153.86 162.37 L 153.63 163.34 C 153.42 164.18 153.94 165.02 154.78 165.22 C 155.62 165.42 156.46 164.91 156.66 164.07 L 156.89 163.10 C 157.10 162.26 156.58 161.42 155.74 161.22 C 154.90 161.02 154.06 161.53 153.86 162.37 Z M 153.64 163.28 L 153.37 164.25 C 153.14 165.08 153.62 165.94 154.45 166.17 C 155.28 166.40 156.14 165.92 156.38 165.09 L 156.65 164.12 C 156.88 163.29 156.39 162.43 155.56 162.20 C 154.73 161.97 153.87 162.45 153.64 163.28 Z M 153.38 164.21 L 153.09 165.18 C 152.83 166.00 153.30 166.88 154.12 167.13 C 154.95 167.38 155.82 166.91 156.07 166.09 L 156.37 165.12 C 156.62 164.30 156.15 163.43 155.33 163.17 C 154.50 162.92 153.63 163.39 153.38 164.21 Z M 153.09 165.16 L 152.79 166.12 C 152.52 166.94 152.98 167.82 153.80 168.08 C 154.62 168.34 155.50 167.89 155.76 167.06 L 156.07 166.11 C 156.33 165.29 155.87 164.41 155.05 164.15 C 154.23 163.88 153.35 164.34 153.09 165.16 Z M 152.79 166.09 L 152.47 167.05 C 152.20 167.86 152.64 168.75 153.46 169.02 C 154.28 169.30 155.16 168.85 155.44 168.04 L 155.75 167.09 C 156.03 166.27 155.59 165.38 154.77 165.11 C 153.95 164.84 153.07 165.28 152.79 166.09 Z M 152.49 167.01 L 152.15 167.96 C 151.86 168.77 152.28 169.66 153.09 169.95 C 153.90 170.24 154.80 169.82 155.09 169.01 L 155.42 168.07 C 155.72 167.26 155.29 166.36 154.48 166.07 C 153.67 165.78 152.78 166.20 152.49 167.01 Z M 152.16 167.92 L 151.80 168.84 C 151.49 169.65 151.89 170.55 152.69 170.86 C 153.49 171.18 154.40 170.78 154.71 169.98 L 155.07 169.05 C 155.39 168.25 154.99 167.34 154.18 167.03 C 153.38 166.71 152.48 167.11 152.16 167.92 Z M 151.82 168.80 L 151.43 169.71 C 151.10 170.50 151.46 171.42 152.26 171.76 C 153.05 172.09 153.97 171.72 154.31 170.93 L 154.69 170.02 C 155.03 169.23 154.66 168.31 153.87 167.97 C 153.08 167.63 152.16 168.00 151.82 168.80 Z M 151.45 169.67 L 151.04 170.57 C 150.68 171.36 151.02 172.28 151.81 172.64 C 152.59 173.00 153.52 172.66 153.88 171.87 L 154.29 170.97 C 154.65 170.19 154.30 169.26 153.52 168.90 C 152.74 168.54 151.81 168.89 151.45 169.67 Z M 151.05 170.54 L 150.61 171.45 C 150.24 172.23 150.56 173.16 151.34 173.53 C 152.12 173.91 153.05 173.58 153.43 172.81 L 153.86 171.90 C 154.24 171.12 153.91 170.19 153.13 169.82 C 152.36 169.44 151.42 169.77 151.05 170.54 Z M 150.62 171.43 L 150.17 172.34 C 149.79 173.11 150.10 174.05 150.87 174.43 C 151.64 174.82 152.58 174.50 152.96 173.73 L 153.42 172.82 C 153.80 172.05 153.49 171.11 152.72 170.73 C 151.94 170.35 151.01 170.66 150.62 171.43 Z M 150.18 172.33 L 149.72 173.23 C 149.32 174.00 149.63 174.94 150.40 175.33 C 151.17 175.72 152.11 175.42 152.50 174.65 L 152.96 173.75 C 153.35 172.98 153.05 172.04 152.28 171.65 C 151.51 171.25 150.57 171.56 150.18 172.33 Z M 149.73 173.21 L 149.25 174.10 C 148.85 174.87 149.14 175.81 149.91 176.21 C 150.67 176.62 151.61 176.32 152.02 175.56 L 152.49 174.67 C 152.89 173.90 152.60 172.96 151.84 172.56 C 151.07 172.15 150.13 172.45 149.73 173.21 Z M 149.27 174.08 L 148.79 174.95 C 148.37 175.70 148.65 176.65 149.40 177.07 C 150.16 177.48 151.11 177.21 151.52 176.45 L 152.00 175.59 C 152.42 174.83 152.14 173.88 151.39 173.46 C 150.63 173.05 149.68 173.32 149.27 174.08 Z M 148.81 174.91 L 148.30 175.79 C 147.86 176.53 148.11 177.49 148.86 177.92 C 149.60 178.36 150.56 178.11 150.99 177.36 L 151.50 176.49 C 151.94 175.74 151.69 174.79 150.94 174.35 C 150.20 173.92 149.24 174.17 148.81 174.91 Z M 148.33 175.74 L 147.78 176.60 C 147.32 177.33 147.54 178.30 148.27 178.76 C 149.00 179.22 149.96 179.00 150.42 178.27 L 150.97 177.41 C 151.43 176.68 151.21 175.71 150.48 175.25 C 149.75 174.79 148.79 175.01 148.33 175.74 Z M 147.82 176.55 L 147.26 177.36 C 146.77 178.07 146.95 179.04 147.66 179.53 C 148.37 180.02 149.34 179.84 149.83 179.13 L 150.39 178.32 C 150.88 177.61 150.70 176.64 149.99 176.15 C 149.28 175.66 148.31 175.84 147.82 176.55 Z M 147.30 177.30 L 146.71 178.07 C 146.19 178.76 146.33 179.74 147.01 180.26 C 147.70 180.78 148.68 180.65 149.20 179.96 L 149.79 179.19 C 150.31 178.51 150.17 177.53 149.49 177.00 C 148.80 176.48 147.82 176.62 147.30 177.30 Z M 146.76 178.01 L 146.12 178.78 C 145.56 179.44 145.65 180.43 146.31 180.98 C 146.97 181.53 147.96 181.45 148.51 180.79 L 149.15 180.02 C 149.71 179.36 149.62 178.38 148.96 177.82 C 148.30 177.27 147.32 177.35 146.76 178.01 Z M 146.16 178.73 L 145.49 179.47 C 144.91 180.11 144.95 181.10 145.59 181.68 C 146.23 182.26 147.21 182.21 147.79 181.57 L 148.47 180.84 C 149.05 180.20 149.00 179.21 148.36 178.63 C 147.73 178.05 146.74 178.10 146.16 178.73 Z M 145.52 179.44 L 144.82 180.15 C 144.22 180.77 144.24 181.76 144.86 182.36 C 145.48 182.96 146.47 182.95 147.07 182.33 L 147.76 181.61 C 148.36 180.99 148.35 180.00 147.73 179.40 C 147.11 178.80 146.12 178.82 145.52 179.44 Z M 144.85 180.13 L 144.14 180.83 C 143.53 181.44 143.52 182.43 144.13 183.04 C 144.73 183.65 145.72 183.66 146.33 183.05 L 147.04 182.35 C 147.66 181.74 147.66 180.76 147.06 180.14 C 146.45 179.53 145.46 179.52 144.85 180.13 Z M 144.17 180.81 L 143.44 181.49 C 142.81 182.08 142.78 183.07 143.37 183.70 C 143.96 184.32 144.95 184.35 145.58 183.76 L 146.31 183.08 C 146.93 182.49 146.96 181.50 146.37 180.87 C 145.78 180.25 144.80 180.21 144.17 180.81 Z M 143.48 181.45 L 142.73 182.11 C 142.08 182.68 142.01 183.66 142.58 184.31 C 143.15 184.96 144.13 185.03 144.78 184.46 L 145.54 183.80 C 146.19 183.23 146.25 182.25 145.68 181.60 C 145.12 180.95 144.13 180.88 143.48 181.45 Z M 142.78 182.06 L 142.00 182.69 C 141.32 183.23 141.21 184.21 141.75 184.88 C 142.29 185.56 143.27 185.67 143.95 185.13 L 144.73 184.51 C 145.40 183.97 145.51 182.99 144.98 182.31 C 144.44 181.64 143.46 181.53 142.78 182.06 Z M 142.06 182.65 L 141.24 183.23 C 140.55 183.74 140.39 184.72 140.90 185.41 C 141.40 186.11 142.38 186.27 143.08 185.76 L 143.89 185.17 C 144.59 184.67 144.74 183.69 144.24 182.99 C 143.73 182.30 142.75 182.14 142.06 182.65 Z M 141.29 183.20 L 140.46 183.76 C 139.74 184.24 139.55 185.21 140.03 185.92 C 140.51 186.64 141.48 186.83 142.20 186.35 L 143.03 185.80 C 143.75 185.32 143.94 184.35 143.46 183.63 C 142.98 182.91 142.01 182.72 141.29 183.20 Z M 140.50 183.73 L 139.65 184.26 C 138.93 184.72 138.71 185.69 139.17 186.42 C 139.63 187.15 140.59 187.37 141.32 186.91 L 142.16 186.38 C 142.89 185.92 143.11 184.95 142.65 184.22 C 142.19 183.49 141.23 183.27 140.50 183.73 Z M 139.68 184.25 L 138.84 184.76 C 138.10 185.20 137.86 186.16 138.30 186.90 C 138.75 187.64 139.71 187.88 140.44 187.43 L 141.29 186.92 C 142.03 186.48 142.27 185.52 141.82 184.78 C 141.38 184.04 140.42 183.80 139.68 184.25 Z M 138.86 184.74 L 138.00 185.24 C 137.25 185.67 137.00 186.63 137.43 187.37 C 137.86 188.12 138.82 188.38 139.56 187.94 L 140.42 187.45 C 141.17 187.01 141.42 186.06 140.99 185.31 C 140.56 184.57 139.60 184.31 138.86 184.74 Z M 138.01 185.23 L 137.13 185.73 C 136.38 186.15 136.11 187.10 136.53 187.86 C 136.96 188.61 137.91 188.87 138.66 188.45 L 139.55 187.95 C 140.30 187.53 140.56 186.58 140.14 185.83 C 139.72 185.08 138.76 184.81 138.01 185.23 Z M 137.14 185.72 L 136.38 186.14 C 135.62 186.56 135.35 187.51 135.76 188.26 C 136.18 189.02 137.13 189.29 137.88 188.88 L 138.65 188.46 C 139.40 188.04 139.68 187.09 139.26 186.34 C 138.85 185.58 137.90 185.31 137.14 185.72 Z M 136.41 186.13 L 135.60 186.55 C 134.84 186.94 134.54 187.89 134.94 188.65 C 135.34 189.42 136.28 189.71 137.05 189.31 L 137.85 188.90 C 138.62 188.50 138.91 187.55 138.52 186.79 C 138.12 186.02 137.17 185.73 136.41 186.13 Z M 135.65 186.52 L 134.74 186.96 C 133.96 187.33 133.63 188.26 134.01 189.04 C 134.38 189.81 135.31 190.14 136.09 189.77 L 137.00 189.34 C 137.78 188.97 138.11 188.04 137.74 187.26 C 137.36 186.48 136.43 186.15 135.65 186.52 Z M 134.80 186.93 L 133.74 187.38 C 132.95 187.72 132.58 188.64 132.92 189.43 C 133.26 190.22 134.17 190.59 134.97 190.25 L 136.03 189.80 C 136.82 189.46 137.19 188.54 136.85 187.75 C 136.51 186.96 135.60 186.59 134.80 186.93 Z M 133.79 187.36 L 132.91 187.70 C 132.10 188.01 131.70 188.92 132.01 189.72 C 132.32 190.53 133.23 190.93 134.03 190.62 L 134.91 190.27 C 135.72 189.96 136.12 189.06 135.81 188.26 C 135.50 187.45 134.59 187.05 133.79 187.36 Z M 132.94 187.69 L 132.08 188.00 C 131.27 188.30 130.85 189.19 131.14 190.00 C 131.43 190.81 132.33 191.23 133.14 190.94 L 134.00 190.63 C 134.81 190.33 135.23 189.44 134.94 188.63 C 134.65 187.82 133.75 187.40 132.94 187.69 Z M 132.10 187.99 L 131.17 188.31 C 130.36 188.59 129.93 189.48 130.21 190.30 C 130.49 191.11 131.38 191.55 132.19 191.27 L 133.12 190.95 C 133.93 190.67 134.36 189.78 134.08 188.96 C 133.80 188.15 132.91 187.71 132.10 187.99 Z M 131.19 188.31 L 130.22 188.63 C 129.40 188.91 128.96 189.79 129.23 190.61 C 129.50 191.43 130.39 191.87 131.20 191.59 L 132.18 191.27 C 132.99 191.00 133.44 190.11 133.16 189.30 C 132.89 188.48 132.01 188.04 131.19 188.31 Z M 130.23 188.63 L 129.22 188.96 C 128.40 189.23 127.95 190.11 128.22 190.93 C 128.49 191.75 129.37 192.19 130.19 191.93 L 131.19 191.60 C 132.01 191.33 132.46 190.45 132.19 189.63 C 131.93 188.81 131.05 188.36 130.23 188.63 Z M 129.23 188.96 L 128.20 189.29 C 127.38 189.55 126.93 190.43 127.19 191.25 C 127.45 192.07 128.33 192.52 129.15 192.26 L 130.18 191.93 C 131.00 191.66 131.45 190.78 131.19 189.96 C 130.93 189.14 130.05 188.69 129.23 188.96 Z M 128.20 189.29 L 127.56 189.49 C 126.74 189.76 126.28 190.63 126.55 191.46 C 126.81 192.28 127.69 192.73 128.51 192.47 L 129.15 192.26 C 129.97 192.00 130.43 191.12 130.16 190.30 C 129.90 189.48 129.02 189.02 128.20 189.29 Z"
      fill="black"
      fill-rule="nonzero" /></svg>