<svg xmlns="http://www.w3.org/2000/svg" width="300" height="300" viewBox="0 0 300 300">
<path d="M 152.29 77.89 L 151.76 76.61 C 151.43 75.81 150.52 75.43 149.72 75.75 C 148.93 76.08 148.55 76.99 148.87 77.79 L 149.40 79.07 C 149.73 79.87 150.64 80.25 151.44 79.93 C 152.23 79.60 152.62 78.69 152.29 77.89 Z M 151.74 76.56 L 151.25 75.47 C 150.90 74.69 149.97 74.34 149.19 74.69 C 148.40 75.05 148.05 75.97 148.41 76.76 L 148.89 77.84 C 149.25 78.63 150.17 78.98 150.96 78.62 C 151.74 78.27 152.09 77.34 151.74 76.56 Z M 151.17 75.31 L 150.75 74.63 C 150.31 73.89 149.35 73.65 148.61 74.09 C 147.87 74.54 147.63 75.50 148.08 76.24 L 148.49 76.92 C 148.94 77.66 149.89 77.90 150.63 77.45 C 151.37 77.01 151.61 76.05 151.17 75.31 Z M 149.84 73.93 L 149.54 73.84 C 148.71 73.61 147.85 74.09 147.61 74.92 C 147.38 75.75 147.86 76.62 148.69 76.85 L 148.99 76.93 C 149.82 77.17 150.69 76.68 150.92 75.85 C 151.15 75.02 150.67 74.16 149.84 73.93 Z M 147.61 74.93 L 147.44 75.55 C 147.21 76.38 147.70 77.24 148.53 77.47 C 149.36 77.70 150.22 77.22 150.45 76.39 L 150.62 75.76 C 150.85 74.93 150.36 74.07 149.53 73.84 C 148.70 73.61 147.84 74.10 147.61 74.93 Z M 147.38 75.88 L 147.32 76.98 C 147.27 77.84 147.93 78.58 148.79 78.63 C 149.65 78.68 150.39 78.02 150.44 77.16 L 150.50 76.06 C 150.55 75.20 149.89 74.46 149.03 74.41 C 148.17 74.36 147.43 75.02 147.38 75.88 Z M 147.32 77.08 L 147.33 78.37 C 147.33 79.23 148.04 79.93 148.90 79.92 C 149.76 79.92 150.46 79.21 150.45 78.35 L 150.44 77.06 C 150.44 76.20 149.73 75.50 148.87 75.51 C 148.01 75.51 147.31 76.22 147.32 77.08 Z M 147.33 78.42 L 147.37 79.58 C 147.40 80.44 148.12 81.11 148.98 81.08 C 149.85 81.05 150.52 80.33 150.49 79.47 L 150.45 78.31 C 150.42 77.45 149.70 76.77 148.84 76.80 C 147.97 76.83 147.30 77.55 147.33 78.42 Z M 147.37 79.61 L 147.43 80.64 C 147.48 81.50 148.22 82.16 149.08 82.11 C 149.94 82.06 150.60 81.33 150.55 80.47 L 150.49 79.44 C 150.44 78.58 149.70 77.92 148.84 77.97 C 147.98 78.01 147.32 78.75 147.37 79.61 Z M 147.43 80.68 L 147.51 81.63 C 147.58 82.49 148.33 83.13 149.19 83.06 C 150.05 83.00 150.69 82.24 150.62 81.38 L 150.54 80.43 C 150.48 79.57 149.72 78.93 148.86 79.00 C 148.00 79.07 147.36 79.82 147.43 80.68 Z M 147.51 81.67 L 147.61 82.59 C 147.70 83.44 148.46 84.07 149.32 83.98 C 150.18 83.89 150.80 83.12 150.71 82.26 L 150.62 81.35 C 150.53 80.49 149.76 79.87 148.90 79.96 C 148.05 80.04 147.42 80.81 147.51 81.67 Z M 147.61 82.62 L 147.73 83.59 C 147.84 84.45 148.62 85.06 149.47 84.95 C 150.33 84.84 150.94 84.06 150.83 83.21 L 150.71 82.23 C 150.60 81.38 149.82 80.77 148.97 80.88 C 148.11 80.98 147.50 81.76 147.61 82.62 Z M 147.73 83.62 L 147.87 84.60 C 147.99 85.45 148.78 86.05 149.63 85.93 C 150.49 85.81 151.08 85.02 150.96 84.17 L 150.83 83.19 C 150.71 82.33 149.92 81.74 149.07 81.85 C 148.21 81.97 147.62 82.76 147.73 83.62 Z M 147.87 84.61 L 148.02 85.61 C 148.15 86.46 148.94 87.05 149.79 86.93 C 150.65 86.80 151.24 86.01 151.11 85.15 L 150.96 84.16 C 150.84 83.30 150.04 82.72 149.19 82.84 C 148.34 82.97 147.75 83.76 147.87 84.61 Z M 148.02 85.61 L 148.17 86.60 C 148.29 87.46 149.09 88.04 149.94 87.92 C 150.79 87.79 151.38 87.00 151.26 86.14 L 151.11 85.15 C 150.98 84.30 150.19 83.71 149.34 83.84 C 148.48 83.96 147.89 84.76 148.02 85.61 Z M 148.17 86.60 L 148.31 87.58 C 148.44 88.43 149.23 89.02 150.08 88.90 C 150.94 88.77 151.53 87.98 151.40 87.13 L 151.26 86.15 C 151.13 85.29 150.34 84.70 149.48 84.83 C 148.63 84.95 148.04 85.75 148.17 86.60 Z M 148.31 87.58 L 148.46 88.58 C 148.59 89.43 149.38 90.02 150.23 89.89 C 151.09 89.76 151.68 88.97 151.55 88.12 L 151.40 87.12 C 151.27 86.27 150.48 85.68 149.63 85.81 C 148.77 85.94 148.18 86.73 148.31 87.58 Z M 148.46 88.58 L 148.62 89.58 C 148.75 90.44 149.54 91.02 150.40 90.89 C 151.25 90.76 151.83 89.96 151.70 89.11 L 151.55 88.11 C 151.42 87.26 150.62 86.67 149.77 86.80 C 148.91 86.94 148.33 87.73 148.46 88.58 Z M 148.62 89.60 L 148.78 90.59 C 148.92 91.44 149.72 92.01 150.57 91.88 C 151.42 91.74 152.00 90.94 151.86 90.08 L 151.70 89.10 C 151.56 88.24 150.76 87.67 149.91 87.80 C 149.06 87.94 148.48 88.75 148.62 89.60 Z M 148.78 90.60 L 148.95 91.58 C 149.09 92.43 149.90 93.00 150.75 92.86 C 151.60 92.71 152.17 91.91 152.03 91.06 L 151.86 90.07 C 151.71 89.22 150.91 88.65 150.06 88.80 C 149.21 88.94 148.64 89.75 148.78 90.60 Z M 148.95 91.59 L 149.12 92.58 C 149.27 93.43 150.08 93.99 150.93 93.84 C 151.78 93.69 152.35 92.89 152.20 92.04 L 152.02 91.05 C 151.88 90.20 151.07 89.63 150.22 89.78 C 149.37 89.93 148.80 90.74 148.95 91.59 Z M 149.12 92.58 L 149.30 93.57 C 149.45 94.41 150.26 94.98 151.11 94.83 C 151.96 94.68 152.52 93.87 152.37 93.02 L 152.20 92.03 C 152.05 91.18 151.23 90.62 150.39 90.77 C 149.54 90.92 148.97 91.73 149.12 92.58 Z M 149.30 93.57 L 149.47 94.55 C 149.63 95.40 150.44 95.96 151.29 95.81 C 152.13 95.66 152.70 94.85 152.55 94.00 L 152.37 93.02 C 152.22 92.17 151.41 91.60 150.56 91.75 C 149.71 91.91 149.15 92.72 149.30 93.57 Z M 149.47 94.55 L 149.65 95.54 C 149.81 96.39 150.62 96.95 151.47 96.79 C 152.32 96.64 152.88 95.83 152.73 94.98 L 152.55 94.00 C 152.39 93.15 151.58 92.59 150.73 92.74 C 149.88 92.89 149.32 93.71 149.47 94.55 Z M 149.65 95.54 L 149.84 96.53 C 150.00 97.38 150.81 97.93 151.66 97.78 C 152.51 97.62 153.06 96.80 152.91 95.96 L 152.72 94.97 C 152.57 94.13 151.75 93.57 150.90 93.72 C 150.06 93.88 149.50 94.70 149.65 95.54 Z M 149.84 96.54 L 150.03 97.52 C 150.19 98.36 151.01 98.92 151.86 98.75 C 152.70 98.59 153.26 97.77 153.09 96.92 L 152.91 95.95 C 152.74 95.10 151.92 94.55 151.08 94.71 C 150.23 94.87 149.68 95.69 149.84 96.54 Z M 150.03 97.53 L 150.23 98.49 C 150.40 99.34 151.22 99.88 152.07 99.71 C 152.91 99.54 153.46 98.72 153.29 97.87 L 153.09 96.91 C 152.92 96.06 152.10 95.52 151.25 95.69 C 150.41 95.86 149.86 96.69 150.03 97.53 Z M 150.23 98.51 L 150.44 99.48 C 150.62 100.32 151.45 100.86 152.30 100.68 C 153.14 100.49 153.68 99.66 153.49 98.82 L 153.28 97.85 C 153.10 97.01 152.27 96.47 151.43 96.66 C 150.58 96.84 150.05 97.67 150.23 98.51 Z M 150.45 99.50 L 150.67 100.49 C 150.87 101.33 151.71 101.85 152.55 101.65 C 153.39 101.46 153.91 100.62 153.72 99.78 L 153.49 98.80 C 153.29 97.96 152.45 97.43 151.61 97.63 C 150.77 97.82 150.25 98.66 150.45 99.50 Z M 150.68 100.51 L 150.93 101.51 C 151.14 102.34 151.99 102.85 152.82 102.64 C 153.66 102.43 154.17 101.58 153.96 100.75 L 153.71 99.76 C 153.50 98.92 152.65 98.41 151.82 98.62 C 150.98 98.83 150.47 99.68 150.68 100.51 Z M 150.94 101.53 L 151.20 102.51 C 151.42 103.34 152.28 103.84 153.11 103.61 C 153.94 103.39 154.44 102.53 154.21 101.70 L 153.95 100.72 C 153.73 99.89 152.87 99.39 152.04 99.62 C 151.21 99.84 150.71 100.70 150.94 101.53 Z M 151.21 102.53 L 151.48 103.51 C 151.72 104.34 152.59 104.82 153.41 104.58 C 154.24 104.34 154.72 103.48 154.49 102.65 L 154.21 101.67 C 153.97 100.85 153.11 100.37 152.28 100.60 C 151.45 100.84 150.97 101.70 151.21 102.53 Z M 151.49 103.53 L 151.78 104.49 C 152.03 105.31 152.90 105.78 153.73 105.53 C 154.55 105.28 155.02 104.41 154.77 103.58 L 154.48 102.63 C 154.23 101.80 153.36 101.34 152.53 101.59 C 151.71 101.84 151.24 102.71 151.49 103.53 Z M 151.79 104.51 L 152.09 105.46 C 152.36 106.28 153.24 106.73 154.06 106.46 C 154.88 106.20 155.33 105.32 155.07 104.50 L 154.76 103.56 C 154.50 102.74 153.62 102.28 152.80 102.55 C 151.98 102.81 151.52 103.69 151.79 104.51 Z M 152.10 105.49 L 152.44 106.46 C 152.72 107.28 153.61 107.71 154.43 107.43 C 155.24 107.15 155.67 106.26 155.39 105.44 L 155.05 104.47 C 154.77 103.65 153.88 103.22 153.07 103.50 C 152.25 103.78 151.82 104.67 152.10 105.49 Z M 152.45 106.50 L 152.80 107.43 C 153.11 108.23 154.01 108.64 154.81 108.34 C 155.62 108.04 156.03 107.14 155.73 106.33 L 155.38 105.40 C 155.07 104.60 154.17 104.19 153.37 104.49 C 152.56 104.79 152.15 105.69 152.45 106.50 Z M 152.82 107.47 L 153.19 108.37 C 153.51 109.17 154.42 109.55 155.22 109.22 C 156.02 108.90 156.40 107.99 156.08 107.19 L 155.71 106.29 C 155.38 105.49 154.47 105.11 153.67 105.43 C 152.88 105.76 152.49 106.67 152.82 107.47 Z M 153.21 108.41 L 153.61 109.31 C 153.96 110.10 154.88 110.46 155.67 110.11 C 156.45 109.76 156.81 108.83 156.46 108.05 L 156.06 107.14 C 155.71 106.36 154.79 106.00 154.00 106.35 C 153.21 106.70 152.86 107.62 153.21 108.41 Z M 153.62 109.35 L 154.06 110.26 C 154.43 111.03 155.36 111.36 156.14 110.99 C 156.92 110.62 157.25 109.68 156.87 108.91 L 156.44 108.01 C 156.07 107.23 155.14 106.90 154.36 107.27 C 153.58 107.64 153.25 108.58 153.62 109.35 Z M 154.08 110.30 L 154.54 111.19 C 154.93 111.96 155.87 112.26 156.64 111.86 C 157.41 111.47 157.71 110.53 157.31 109.76 L 156.85 108.87 C 156.46 108.10 155.52 107.80 154.75 108.19 C 153.98 108.59 153.68 109.53 154.08 110.30 Z M 154.56 111.23 L 155.04 112.11 C 155.46 112.86 156.41 113.14 157.16 112.72 C 157.92 112.30 158.19 111.35 157.78 110.60 L 157.29 109.72 C 156.87 108.96 155.92 108.69 155.17 109.11 C 154.41 109.52 154.14 110.47 154.56 111.23 Z M 155.07 112.15 L 155.58 113.02 C 156.02 113.76 156.98 114.00 157.72 113.56 C 158.46 113.12 158.71 112.16 158.27 111.42 L 157.75 110.56 C 157.31 109.81 156.35 109.57 155.61 110.01 C 154.87 110.45 154.63 111.41 155.07 112.15 Z M 155.61 113.06 L 156.15 113.90 C 156.62 114.63 157.58 114.84 158.31 114.37 C 159.03 113.91 159.24 112.94 158.78 112.22 L 158.24 111.38 C 157.77 110.65 156.81 110.44 156.08 110.91 C 155.35 111.37 155.14 112.34 155.61 113.06 Z M 156.19 113.96 L 156.76 114.77 C 157.25 115.48 158.22 115.65 158.93 115.15 C 159.64 114.66 159.81 113.68 159.31 112.98 L 158.74 112.16 C 158.25 111.46 157.27 111.29 156.57 111.78 C 155.86 112.28 155.69 113.25 156.19 113.96 Z M 156.80 114.83 L 157.41 115.62 C 157.94 116.30 158.92 116.43 159.60 115.90 C 160.28 115.38 160.41 114.39 159.88 113.71 L 159.27 112.92 C 158.74 112.24 157.76 112.11 157.08 112.64 C 156.40 113.16 156.27 114.14 156.80 114.83 Z M 157.46 115.68 L 158.11 116.44 C 158.67 117.10 159.65 117.18 160.31 116.62 C 160.96 116.06 161.04 115.08 160.49 114.42 L 159.84 113.66 C 159.28 113.00 158.29 112.92 157.64 113.48 C 156.98 114.04 156.90 115.02 157.46 115.68 Z M 158.15 116.49 L 158.83 117.22 C 159.42 117.86 160.41 117.89 161.04 117.30 C 161.67 116.72 161.71 115.73 161.12 115.10 L 160.44 114.37 C 159.85 113.74 158.86 113.70 158.23 114.29 C 157.60 114.88 157.57 115.86 158.15 116.49 Z M 158.88 117.27 L 159.59 117.97 C 160.20 118.58 161.19 118.57 161.80 117.96 C 162.40 117.34 162.39 116.35 161.78 115.75 L 161.07 115.05 C 160.46 114.44 159.47 114.45 158.86 115.06 C 158.26 115.68 158.27 116.67 158.88 117.27 Z M 159.63 118.01 L 160.37 118.69 C 161.01 119.27 162.00 119.23 162.58 118.59 C 163.16 117.95 163.11 116.96 162.48 116.38 L 161.74 115.71 C 161.10 115.13 160.11 115.17 159.53 115.81 C 158.95 116.44 159.00 117.43 159.63 118.01 Z M 160.40 118.71 L 161.16 119.37 C 161.81 119.93 162.79 119.86 163.36 119.21 C 163.92 118.56 163.85 117.58 163.20 117.01 L 162.45 116.36 C 161.80 115.79 160.81 115.86 160.25 116.51 C 159.68 117.16 159.75 118.15 160.40 118.71 Z M 161.17 119.38 L 161.90 120.00 C 162.56 120.56 163.55 120.48 164.10 119.82 C 164.66 119.16 164.58 118.18 163.92 117.62 L 163.19 117.00 C 162.53 116.44 161.54 116.52 160.99 117.18 C 160.43 117.84 160.51 118.83 161.17 119.38 Z"
      fill="black"
      fill-rule="nonzero" /><path d="M 105.64 138.61 L 104.57 138.51 C 103.72 138.43 102.95 139.06 102.87 139.92 C 102.79 140.78 103.42 141.54 104.28 141.62 L 105.34 141.72 C 106.20 141.80 106.96 141.18 107.04 140.32 C 107.12 139.46 106.49 138.70 105.64 138.61 Z M 104.57 138.51 L 103.53 138.42 C 102.67 138.34 101.91 138.97 101.83 139.82 C 101.75 140.68 102.38 141.44 103.23 141.52 L 104.28 141.62 C 105.14 141.70 105.90 141.07 105.98 140.21 C 106.06 139.36 105.43 138.59 104.57 138.51 Z M 103.52 138.42 L 102.51 138.32 C 101.65 138.24 100.89 138.88 100.81 139.74 C 100.73 140.59 101.36 141.35 102.22 141.43 L 103.24 141.52 C 104.10 141.60 104.86 140.97 104.94 140.11 C 105.01 139.25 104.38 138.49 103.52 138.42 Z M 102.50 138.32 L 101.53 138.24 C 100.67 138.16 99.91 138.80 99.84 139.66 C 99.76 140.52 100.40 141.27 101.26 141.35 L 102.23 141.43 C 103.09 141.51 103.84 140.87 103.92 140.01 C 103.99 139.15 103.36 138.40 102.50 138.32 Z M 101.52 138.24 L 100.60 138.16 C 99.74 138.10 98.99 138.74 98.92 139.60 C 98.85 140.46 99.49 141.21 100.35 141.28 L 101.27 141.35 C 102.13 141.42 102.88 140.78 102.95 139.92 C 103.02 139.06 102.38 138.31 101.52 138.24 Z M 100.59 138.16 L 99.20 138.07 C 98.34 138.01 97.60 138.65 97.54 139.51 C 97.48 140.37 98.13 141.12 98.99 141.18 L 100.37 141.28 C 101.23 141.34 101.97 140.69 102.04 139.83 C 102.10 138.97 101.45 138.22 100.59 138.16 Z M 99.23 138.07 L 98.16 137.98 C 97.31 137.91 96.55 138.55 96.48 139.41 C 96.41 140.26 97.05 141.02 97.91 141.09 L 98.97 141.18 C 99.83 141.25 100.58 140.61 100.65 139.75 C 100.72 138.89 100.08 138.14 99.23 138.07 Z M 98.64 138.10 L 98.39 137.99 C 97.60 137.66 96.68 138.03 96.35 138.83 C 96.01 139.62 96.39 140.54 97.18 140.87 L 97.43 140.97 C 98.22 141.31 99.14 140.94 99.47 140.14 C 99.81 139.35 99.44 138.43 98.64 138.10 Z M 98.15 140.95 L 98.66 140.83 C 99.50 140.63 100.02 139.79 99.83 138.95 C 99.63 138.11 98.79 137.59 97.95 137.79 L 97.43 137.91 C 96.59 138.11 96.07 138.95 96.27 139.79 C 96.47 140.63 97.31 141.15 98.15 140.95 Z M 98.55 140.85 L 99.58 140.69 C 100.43 140.55 101.01 139.75 100.88 138.90 C 100.75 138.05 99.95 137.47 99.09 137.60 L 98.06 137.77 C 97.21 137.90 96.63 138.70 96.76 139.55 C 96.90 140.40 97.70 140.99 98.55 140.85 Z M 99.57 140.69 L 100.93 140.48 C 101.78 140.35 102.37 139.56 102.24 138.70 C 102.11 137.85 101.31 137.27 100.46 137.40 L 99.10 137.60 C 98.25 137.73 97.66 138.53 97.79 139.38 C 97.92 140.23 98.72 140.82 99.57 140.69 Z M 100.95 140.48 L 102.05 140.30 C 102.90 140.16 103.48 139.35 103.33 138.50 C 103.19 137.65 102.39 137.08 101.54 137.22 L 100.44 137.40 C 99.59 137.54 99.01 138.34 99.15 139.19 C 99.30 140.04 100.10 140.62 100.95 140.48 Z M 102.07 140.29 L 103.08 140.12 C 103.93 139.96 104.49 139.15 104.34 138.31 C 104.19 137.46 103.38 136.89 102.53 137.04 L 101.52 137.22 C 100.67 137.37 100.11 138.18 100.26 139.03 C 100.41 139.88 101.22 140.45 102.07 140.29 Z M 103.09 140.11 L 104.10 139.93 C 104.95 139.77 105.51 138.95 105.35 138.11 C 105.20 137.26 104.38 136.70 103.53 136.86 L 102.52 137.04 C 101.67 137.20 101.11 138.01 101.27 138.86 C 101.43 139.71 102.24 140.27 103.09 140.11 Z M 104.11 139.92 L 105.10 139.74 C 105.94 139.57 106.50 138.76 106.34 137.91 C 106.18 137.06 105.36 136.51 104.51 136.67 L 103.53 136.86 C 102.68 137.02 102.12 137.84 102.28 138.68 C 102.45 139.53 103.26 140.09 104.11 139.92 Z M 105.10 139.74 L 106.04 139.55 C 106.88 139.39 107.44 138.57 107.27 137.72 C 107.11 136.88 106.29 136.32 105.44 136.49 L 104.51 136.67 C 103.66 136.83 103.11 137.65 103.27 138.50 C 103.44 139.35 104.25 139.90 105.10 139.74 Z M 106.04 139.55 L 107.06 139.35 C 107.91 139.19 108.46 138.37 108.30 137.53 C 108.14 136.68 107.32 136.13 106.47 136.29 L 105.44 136.49 C 104.60 136.65 104.04 137.47 104.21 138.32 C 104.37 139.16 105.19 139.72 106.04 139.55 Z M 107.06 139.36 L 108.05 139.16 C 108.90 139.00 109.45 138.18 109.29 137.34 C 109.13 136.49 108.31 135.94 107.46 136.10 L 106.47 136.29 C 105.63 136.45 105.07 137.27 105.23 138.12 C 105.40 138.96 106.22 139.52 107.06 139.36 Z M 108.05 139.16 L 109.00 138.98 C 109.84 138.82 110.40 138.01 110.24 137.16 C 110.08 136.31 109.26 135.76 108.41 135.92 L 107.47 136.10 C 106.62 136.26 106.06 137.08 106.22 137.92 C 106.39 138.77 107.20 139.33 108.05 139.16 Z M 108.99 138.98 L 109.94 138.81 C 110.79 138.65 111.35 137.83 111.19 136.98 C 111.03 136.14 110.21 135.58 109.36 135.74 L 108.42 135.92 C 107.57 136.08 107.01 136.89 107.17 137.74 C 107.33 138.59 108.15 139.14 108.99 138.98 Z M 109.94 138.81 L 110.87 138.63 C 111.72 138.48 112.27 137.66 112.12 136.81 C 111.96 135.97 111.15 135.41 110.30 135.56 L 109.37 135.74 C 108.52 135.89 107.96 136.71 108.12 137.56 C 108.28 138.40 109.09 138.96 109.94 138.81 Z M 110.86 138.64 L 111.82 138.46 C 112.67 138.31 113.23 137.49 113.07 136.65 C 112.92 135.80 112.11 135.24 111.26 135.39 L 110.30 135.56 C 109.45 135.72 108.89 136.53 109.05 137.38 C 109.20 138.23 110.01 138.79 110.86 138.64 Z M 111.81 138.46 L 112.80 138.29 C 113.65 138.14 114.22 137.33 114.07 136.48 C 113.92 135.63 113.11 135.06 112.26 135.21 L 111.27 135.39 C 110.42 135.54 109.85 136.35 110.00 137.20 C 110.15 138.05 110.96 138.61 111.81 138.46 Z M 112.79 138.29 L 113.81 138.12 C 114.66 137.97 115.24 137.17 115.09 136.32 C 114.95 135.47 114.14 134.89 113.29 135.04 L 112.27 135.21 C 111.42 135.36 110.85 136.16 110.99 137.01 C 111.13 137.86 111.94 138.43 112.79 138.29 Z M 113.80 138.12 L 114.80 137.96 C 115.65 137.82 116.23 137.02 116.10 136.17 C 115.96 135.32 115.16 134.74 114.31 134.88 L 113.31 135.04 C 112.46 135.17 111.88 135.97 112.01 136.82 C 112.15 137.68 112.95 138.26 113.80 138.12 Z M 114.79 137.96 L 115.74 137.82 C 116.59 137.69 117.18 136.89 117.05 136.04 C 116.92 135.18 116.12 134.60 115.27 134.73 L 114.32 134.87 C 113.47 135.00 112.88 135.80 113.01 136.65 C 113.14 137.50 113.94 138.09 114.79 137.96 Z M 115.73 137.82 L 116.70 137.67 C 117.55 137.55 118.14 136.76 118.02 135.90 C 117.89 135.05 117.10 134.46 116.25 134.59 L 115.28 134.73 C 114.42 134.85 113.83 135.65 113.96 136.50 C 114.08 137.35 114.87 137.94 115.73 137.82 Z M 116.69 137.68 L 117.69 137.53 C 118.54 137.41 119.14 136.62 119.02 135.77 C 118.89 134.91 118.10 134.32 117.25 134.44 L 116.25 134.58 C 115.40 134.71 114.81 135.50 114.93 136.35 C 115.05 137.20 115.84 137.80 116.69 137.68 Z M 117.69 137.53 L 118.72 137.39 C 119.57 137.27 120.17 136.48 120.05 135.63 C 119.93 134.77 119.14 134.18 118.28 134.30 L 117.25 134.44 C 116.40 134.56 115.81 135.35 115.92 136.20 C 116.04 137.06 116.83 137.65 117.69 137.53 Z M 118.72 137.39 L 119.71 137.25 C 120.56 137.13 121.16 136.34 121.04 135.49 C 120.92 134.64 120.13 134.04 119.28 134.16 L 118.29 134.30 C 117.43 134.42 116.84 135.21 116.95 136.06 C 117.07 136.91 117.86 137.51 118.72 137.39 Z M 119.71 137.25 L 120.66 137.12 C 121.52 137.00 122.11 136.21 121.99 135.36 C 121.88 134.50 121.09 133.91 120.23 134.03 L 119.28 134.16 C 118.43 134.28 117.83 135.07 117.95 135.92 C 118.07 136.77 118.86 137.37 119.71 137.25 Z M 120.66 137.12 L 121.64 136.99 C 122.49 136.87 123.09 136.08 122.97 135.23 C 122.85 134.37 122.07 133.78 121.21 133.89 L 120.24 134.03 C 119.38 134.14 118.78 134.93 118.90 135.79 C 119.02 136.64 119.81 137.24 120.66 137.12 Z M 121.63 136.99 L 122.63 136.85 C 123.49 136.74 124.08 135.95 123.97 135.10 C 123.85 134.24 123.07 133.64 122.21 133.76 L 121.22 133.89 C 120.36 134.01 119.76 134.79 119.88 135.65 C 119.99 136.50 120.78 137.10 121.63 136.99 Z M 122.63 136.85 L 123.64 136.72 C 124.50 136.61 125.10 135.82 124.99 134.97 C 124.87 134.11 124.09 133.51 123.24 133.62 L 122.22 133.76 C 121.36 133.87 120.76 134.65 120.87 135.51 C 120.99 136.36 121.77 136.96 122.63 136.85 Z M 123.64 136.72 L 124.67 136.59 C 125.52 136.48 126.13 135.70 126.02 134.84 C 125.91 133.99 125.13 133.38 124.28 133.49 L 123.24 133.62 C 122.39 133.73 121.78 134.51 121.89 135.37 C 122.00 136.22 122.78 136.83 123.64 136.72 Z M 124.66 136.59 L 125.64 136.47 C 126.50 136.37 127.10 135.59 127.00 134.73 C 126.90 133.88 126.12 133.27 125.26 133.37 L 124.28 133.49 C 123.43 133.59 122.82 134.37 122.92 135.23 C 123.03 136.08 123.81 136.69 124.66 136.59 Z M 125.63 136.47 L 126.61 136.36 C 127.46 136.25 128.08 135.48 127.98 134.62 C 127.87 133.77 127.10 133.15 126.24 133.25 L 125.27 133.37 C 124.41 133.47 123.80 134.25 123.90 135.10 C 124.00 135.96 124.78 136.57 125.63 136.47 Z M 126.60 136.36 L 127.59 136.24 C 128.45 136.14 129.06 135.37 128.96 134.51 C 128.86 133.66 128.09 133.04 127.23 133.14 L 126.25 133.25 C 125.39 133.35 124.78 134.13 124.87 134.98 C 124.97 135.84 125.75 136.45 126.60 136.36 Z M 127.59 136.24 L 128.58 136.13 C 129.44 136.03 130.06 135.26 129.96 134.40 C 129.86 133.54 129.09 132.93 128.23 133.03 L 127.23 133.14 C 126.38 133.24 125.76 134.01 125.86 134.87 C 125.96 135.72 126.73 136.34 127.59 136.24 Z M 128.58 136.13 L 129.59 136.01 C 130.45 135.92 131.06 135.14 130.96 134.29 C 130.87 133.43 130.09 132.81 129.24 132.91 L 128.23 133.03 C 127.37 133.12 126.76 133.90 126.86 134.75 C 126.95 135.61 127.73 136.23 128.58 136.13 Z M 129.59 136.01 L 130.61 135.90 C 131.46 135.80 132.08 135.03 131.98 134.17 C 131.88 133.31 131.11 132.70 130.25 132.80 L 129.24 132.91 C 128.38 133.01 127.76 133.78 127.86 134.64 C 127.96 135.50 128.73 136.11 129.59 136.01 Z M 130.61 135.90 L 131.60 135.78 C 132.46 135.68 133.07 134.91 132.97 134.05 C 132.87 133.20 132.10 132.58 131.24 132.68 L 130.25 132.80 C 129.39 132.90 128.78 133.67 128.88 134.53 C 128.98 135.38 129.75 136.00 130.61 135.90 Z M 131.60 135.78 L 132.58 135.67 C 133.44 135.57 134.05 134.79 133.95 133.94 C 133.85 133.08 133.07 132.47 132.22 132.57 L 131.24 132.68 C 130.38 132.78 129.77 133.56 129.87 134.41 C 129.97 135.27 130.74 135.88 131.60 135.78 Z M 132.58 135.67 L 133.57 135.55 C 134.43 135.45 135.04 134.68 134.94 133.82 C 134.84 132.96 134.06 132.35 133.21 132.45 L 132.22 132.57 C 131.36 132.67 130.75 133.44 130.85 134.30 C 130.95 135.16 131.72 135.77 132.58 135.67 Z M 133.57 135.55 L 134.56 135.44 C 135.42 135.34 136.03 134.56 135.93 133.71 C 135.83 132.85 135.06 132.24 134.20 132.34 L 133.21 132.45 C 132.35 132.55 131.74 133.32 131.84 134.18 C 131.94 135.04 132.71 135.65 133.57 135.55 Z M 134.56 135.44 L 135.56 135.33 C 136.42 135.23 137.03 134.46 136.93 133.60 C 136.84 132.74 136.07 132.13 135.21 132.22 L 134.21 132.34 C 133.35 132.43 132.73 133.20 132.83 134.06 C 132.93 134.92 133.70 135.53 134.56 135.44 Z M 135.55 135.33 L 136.56 135.22 C 137.41 135.12 138.03 134.35 137.94 133.50 C 137.85 132.64 137.08 132.02 136.22 132.11 L 135.22 132.22 C 134.36 132.31 133.74 133.08 133.83 133.94 C 133.92 134.80 134.69 135.42 135.55 135.33 Z M 136.55 135.22 L 137.55 135.11 C 138.41 135.03 139.03 134.26 138.94 133.40 C 138.86 132.54 138.09 131.92 137.23 132.01 L 136.23 132.11 C 135.37 132.20 134.75 132.97 134.84 133.82 C 134.92 134.68 135.69 135.31 136.55 135.22 Z M 137.54 135.12 L 138.51 135.02 C 139.37 134.94 140.00 134.18 139.91 133.32 C 139.83 132.46 139.07 131.83 138.21 131.91 L 137.24 132.01 C 136.38 132.09 135.75 132.85 135.84 133.71 C 135.92 134.57 136.68 135.20 137.54 135.12 Z M 138.50 135.02 L 139.48 134.93 C 140.34 134.85 140.97 134.09 140.89 133.23 C 140.81 132.38 140.05 131.74 139.19 131.82 L 138.22 131.91 C 137.36 131.99 136.73 132.75 136.81 133.61 C 136.88 134.47 137.64 135.10 138.50 135.02 Z M 139.47 134.93 L 140.46 134.85 C 141.32 134.77 141.95 134.01 141.87 133.15 C 141.80 132.29 141.04 131.66 140.18 131.74 L 139.20 131.82 C 138.34 131.90 137.70 132.66 137.78 133.52 C 137.86 134.37 138.61 135.01 139.47 134.93 Z M 140.45 134.85 L 141.45 134.76 C 142.31 134.69 142.94 133.93 142.87 133.07 C 142.80 132.21 142.04 131.58 141.18 131.65 L 140.19 131.74 C 139.33 131.81 138.69 132.57 138.76 133.42 C 138.84 134.28 139.59 134.92 140.45 134.85 Z M 141.44 134.76 L 142.45 134.68 C 143.31 134.60 143.95 133.85 143.88 132.99 C 143.81 132.13 143.05 131.49 142.19 131.57 L 141.18 131.65 C 140.32 131.72 139.69 132.48 139.76 133.34 C 139.83 134.20 140.59 134.83 141.44 134.76 Z M 142.45 134.68 L 143.48 134.59 C 144.34 134.52 144.97 133.76 144.90 132.91 C 144.83 132.05 144.08 131.41 143.22 131.48 L 142.19 131.57 C 141.33 131.64 140.69 132.39 140.77 133.25 C 140.84 134.11 141.59 134.75 142.45 134.68 Z M 143.48 134.59 L 144.49 134.51 C 145.35 134.43 145.99 133.68 145.92 132.82 C 145.85 131.96 145.09 131.32 144.23 131.39 L 143.22 131.48 C 142.36 131.55 141.72 132.31 141.79 133.17 C 141.86 134.03 142.62 134.66 143.48 134.59 Z M 144.49 134.51 L 145.49 134.42 C 146.35 134.35 146.98 133.59 146.91 132.73 C 146.84 131.87 146.08 131.24 145.22 131.31 L 144.23 131.39 C 143.37 131.47 142.73 132.22 142.81 133.08 C 142.88 133.94 143.64 134.58 144.49 134.51 Z M 145.49 134.42 L 146.49 134.34 C 147.35 134.26 147.99 133.51 147.91 132.65 C 147.84 131.79 147.08 131.15 146.22 131.23 L 145.22 131.31 C 144.36 131.38 143.73 132.14 143.80 133.00 C 143.87 133.86 144.63 134.49 145.49 134.42 Z M 146.49 134.34 L 147.50 134.25 C 148.36 134.18 148.99 133.42 148.92 132.56 C 148.85 131.70 148.09 131.07 147.23 131.14 L 146.23 131.23 C 145.37 131.30 144.73 132.05 144.80 132.91 C 144.87 133.77 145.63 134.41 146.49 134.34 Z M 147.49 134.25 L 148.50 134.17 C 149.36 134.10 150.00 133.34 149.93 132.48 C 149.86 131.62 149.10 130.98 148.24 131.06 L 147.23 131.14 C 146.38 131.21 145.74 131.97 145.81 132.83 C 145.88 133.68 146.64 134.32 147.49 134.25 Z M 148.50 134.17 L 149.50 134.09 C 150.36 134.01 151.00 133.26 150.93 132.40 C 150.86 131.54 150.11 130.90 149.25 130.97 L 148.24 131.06 C 147.38 131.13 146.75 131.88 146.82 132.74 C 146.89 133.60 147.64 134.24 148.50 134.17 Z M 149.50 134.09 L 150.49 134.01 C 151.35 133.94 151.99 133.19 151.92 132.33 C 151.85 131.47 151.10 130.83 150.24 130.89 L 149.25 130.97 C 148.39 131.04 147.75 131.79 147.82 132.65 C 147.89 133.51 148.64 134.15 149.50 134.09 Z M 150.48 134.01 L 151.47 133.93 C 152.33 133.87 152.97 133.12 152.91 132.26 C 152.84 131.40 152.09 130.75 151.23 130.82 L 150.25 130.89 C 149.39 130.96 148.74 131.71 148.81 132.57 C 148.87 133.43 149.62 134.07 150.48 134.01 Z M 151.46 133.93 L 152.49 133.86 C 153.35 133.79 154.00 133.05 153.94 132.19 C 153.87 131.33 153.12 130.68 152.26 130.74 L 151.24 130.82 C 150.38 130.88 149.73 131.63 149.79 132.49 C 149.86 133.35 150.60 133.99 151.46 133.93 Z M 152.48 133.86 L 153.49 133.79 C 154.35 133.73 155.00 132.98 154.94 132.12 C 154.89 131.26 154.14 130.61 153.28 130.67 L 152.27 130.74 C 151.41 130.80 150.76 131.55 150.82 132.41 C 150.88 133.27 151.62 133.92 152.48 133.86 Z M 153.49 133.79 L 154.48 133.73 C 155.34 133.67 156.00 132.93 155.94 132.07 C 155.89 131.21 155.14 130.56 154.28 130.61 L 153.29 130.67 C 152.43 130.73 151.77 131.47 151.83 132.33 C 151.88 133.19 152.63 133.84 153.49 133.79 Z M 154.47 133.73 L 155.46 133.67 C 156.32 133.62 156.98 132.88 156.93 132.02 C 156.88 131.16 156.14 130.50 155.28 130.55 L 154.29 130.61 C 153.43 130.66 152.77 131.40 152.82 132.26 C 152.87 133.12 153.61 133.78 154.47 133.73 Z M 155.45 133.67 L 156.44 133.62 C 157.30 133.57 157.96 132.84 157.91 131.98 C 157.87 131.12 157.13 130.45 156.27 130.50 L 155.29 130.55 C 154.43 130.60 153.77 131.33 153.81 132.19 C 153.86 133.05 154.59 133.71 155.45 133.67 Z M 156.43 133.62 L 157.41 133.57 C 158.27 133.53 158.94 132.80 158.90 131.94 C 158.86 131.08 158.13 130.41 157.27 130.45 L 156.28 130.50 C 155.42 130.54 154.76 131.27 154.80 132.13 C 154.84 132.99 155.57 133.66 156.43 133.62 Z M 157.40 133.57 L 158.39 133.53 C 159.25 133.50 159.92 132.77 159.89 131.91 C 159.85 131.05 159.13 130.38 158.26 130.41 L 157.28 130.45 C 156.42 130.49 155.75 131.21 155.78 132.08 C 155.81 132.94 156.54 133.61 157.40 133.57 Z M 158.38 133.53 L 159.37 133.50 C 160.23 133.47 160.91 132.75 160.88 131.89 C 160.85 131.02 160.13 130.35 159.26 130.38 L 158.27 130.41 C 157.41 130.44 156.74 131.17 156.77 132.03 C 156.80 132.89 157.52 133.56 158.38 133.53 Z M 159.36 133.50 L 160.36 133.47 C 161.22 133.45 161.90 132.73 161.88 131.87 C 161.85 131.00 161.13 130.32 160.27 130.35 L 159.27 130.38 C 158.41 130.40 157.73 131.12 157.76 131.98 C 157.78 132.85 158.50 133.53 159.36 133.50 Z M 160.35 133.47 L 161.35 133.45 C 162.22 133.43 162.90 132.71 162.88 131.85 C 162.86 130.99 162.14 130.30 161.28 130.32 L 160.28 130.35 C 159.41 130.37 158.73 131.09 158.75 131.95 C 158.77 132.81 159.49 133.49 160.35 133.47 Z M 161.35 133.45 L 162.35 133.43 C 163.21 133.41 163.90 132.70 163.88 131.84 C 163.87 130.97 163.15 130.29 162.29 130.30 L 161.28 130.32 C 160.42 130.34 159.74 131.05 159.75 131.92 C 159.77 132.78 160.48 133.47 161.35 133.45 Z M 162.34 133.43 L 163.35 133.41 C 164.21 133.40 164.90 132.69 164.89 131.83 C 164.87 130.96 164.16 130.27 163.30 130.29 L 162.30 130.30 C 161.43 130.32 160.74 131.03 160.76 131.89 C 160.77 132.75 161.48 133.44 162.34 133.43 Z M 163.34 133.41 L 164.35 133.40 C 165.21 133.39 165.90 132.68 165.89 131.82 C 165.88 130.95 165.17 130.26 164.31 130.27 L 163.31 130.29 C 162.44 130.30 161.75 131.01 161.76 131.87 C 161.77 132.73 162.48 133.42 163.34 133.41 Z M 164.34 133.40 L 165.35 133.39 C 166.22 133.39 166.91 132.68 166.90 131.81 C 166.90 130.95 166.19 130.26 165.32 130.26 L 164.32 130.27 C 163.45 130.28 162.76 130.99 162.77 131.85 C 162.77 132.72 163.48 133.41 164.34 133.40 Z M 165.35 133.40 L 166.36 133.39 C 167.22 133.38 167.92 132.68 167.92 131.81 C 167.91 130.94 167.20 130.25 166.34 130.25 L 165.33 130.26 C 164.46 130.27 163.77 130.97 163.77 131.84 C 163.78 132.70 164.48 133.40 165.35 133.40 Z M 166.36 133.39 L 167.36 133.39 C 168.23 133.38 168.93 132.68 168.92 131.81 C 168.92 130.94 168.21 130.24 167.35 130.25 L 166.34 130.25 C 165.47 130.26 164.77 130.96 164.78 131.83 C 164.78 132.70 165.49 133.40 166.36 133.39 Z M 167.36 133.39 L 168.36 133.39 C 169.23 133.38 169.93 132.68 169.93 131.81 C 169.93 130.94 169.22 130.24 168.35 130.24 L 167.35 130.24 C 166.48 130.25 165.78 130.95 165.78 131.82 C 165.78 132.69 166.49 133.39 167.36 133.39 Z M 168.36 133.39 L 169.36 133.39 C 170.23 133.39 170.93 132.68 170.93 131.81 C 170.93 130.94 170.22 130.24 169.35 130.24 L 168.35 130.24 C 167.48 130.24 166.78 130.95 166.78 131.82 C 166.78 132.69 167.49 133.39 168.36 133.39 Z M 169.35 133.39 L 170.35 133.39 C 171.22 133.39 171.93 132.68 171.92 131.81 C 171.92 130.94 171.22 130.23 170.35 130.23 L 169.35 130.23 C 168.48 130.23 167.78 130.94 167.78 131.81 C 167.78 132.68 168.48 133.39 169.35 133.39 Z M 170.35 133.39 L 171.33 133.39 C 172.21 133.39 172.91 132.68 172.91 131.81 C 172.91 130.94 172.21 130.23 171.33 130.23 L 170.35 130.23 C 169.47 130.23 168.77 130.94 168.77 131.81 C 168.77 132.68 169.47 133.39 170.35 133.39 Z M 171.33 133.39 L 172.36 133.39 C 173.24 133.39 173.95 132.69 173.95 131.81 C 173.95 130.94 173.24 130.23 172.36 130.23 L 171.33 130.23 C 170.46 130.23 169.75 130.94 169.75 131.81 C 169.75 132.69 170.46 133.39 171.33 133.39 Z M 172.36 133.40 L 173.39 133.40 C 174.27 133.40 174.98 132.69 174.98 131.82 C 174.98 130.94 174.27 130.23 173.40 130.23 L 172.37 130.23 C 171.49 130.22 170.78 130.93 170.78 131.81 C 170.78 132.68 171.48 133.40 172.36 133.40 Z M 173.38 133.40 L 174.40 133.41 C 175.28 133.41 175.99 132.71 176.00 131.83 C 176.00 130.95 175.30 130.24 174.42 130.23 L 173.40 130.23 C 172.53 130.22 171.81 130.93 171.81 131.80 C 171.80 132.68 172.51 133.40 173.38 133.40 Z M 174.39 133.41 L 175.39 133.42 C 176.27 133.43 176.99 132.73 177.00 131.85 C 177.01 130.97 176.31 130.25 175.43 130.24 L 174.43 130.23 C 173.55 130.22 172.83 130.92 172.82 131.80 C 172.81 132.68 173.51 133.40 174.39 133.41 Z M 175.38 133.42 L 176.37 133.44 C 177.25 133.46 177.97 132.76 177.99 131.88 C 178.01 131.00 177.31 130.27 176.43 130.26 L 175.44 130.24 C 174.56 130.22 173.84 130.92 173.82 131.80 C 173.80 132.68 174.50 133.41 175.38 133.42 Z M 176.35 133.45 L 177.31 133.47 C 178.19 133.50 178.93 132.81 178.95 131.93 C 178.98 131.05 178.29 130.31 177.41 130.28 L 176.45 130.26 C 175.56 130.23 174.83 130.92 174.80 131.80 C 174.77 132.68 175.47 133.42 176.35 133.45 Z M 177.29 133.48 L 178.25 133.52 C 179.13 133.56 179.88 132.88 179.92 131.99 C 179.96 131.11 179.28 130.37 178.39 130.33 L 177.43 130.28 C 176.55 130.24 175.80 130.93 175.76 131.81 C 175.72 132.69 176.41 133.44 177.29 133.48 Z M 178.22 133.52 L 179.19 133.58 C 180.07 133.64 180.83 132.97 180.89 132.09 C 180.95 131.21 180.28 130.45 179.40 130.39 L 178.43 130.33 C 177.54 130.27 176.78 130.94 176.73 131.82 C 176.67 132.70 177.34 133.46 178.22 133.52 Z M 179.14 133.58 L 180.10 133.67 C 180.98 133.76 181.76 133.11 181.85 132.23 C 181.93 131.35 181.29 130.57 180.40 130.48 L 179.44 130.39 C 178.56 130.31 177.78 130.95 177.70 131.83 C 177.61 132.71 178.26 133.50 179.14 133.58 Z M 180.04 133.67 L 181.00 133.80 C 181.88 133.92 182.69 133.30 182.81 132.42 C 182.92 131.55 182.31 130.74 181.43 130.62 L 180.47 130.49 C 179.59 130.37 178.78 130.99 178.66 131.86 C 178.54 132.74 179.16 133.55 180.04 133.67 Z M 180.93 133.79 L 181.91 133.97 C 182.79 134.13 183.62 133.55 183.78 132.68 C 183.94 131.80 183.36 130.97 182.49 130.81 L 181.50 130.63 C 180.63 130.47 179.80 131.05 179.64 131.92 C 179.48 132.79 180.06 133.63 180.93 133.79 Z M 181.84 133.95 L 182.85 134.19 C 183.72 134.39 184.58 133.85 184.78 132.99 C 184.99 132.13 184.45 131.26 183.58 131.06 L 182.57 130.82 C 181.70 130.62 180.84 131.16 180.64 132.02 C 180.44 132.89 180.97 133.75 181.84 133.95 Z M 182.78 134.17 L 183.79 134.46 C 184.64 134.70 185.53 134.21 185.77 133.35 C 186.02 132.50 185.52 131.61 184.67 131.36 L 183.66 131.08 C 182.81 130.83 181.92 131.33 181.67 132.18 C 181.43 133.04 181.92 133.93 182.78 134.17 Z M 183.71 134.44 L 184.68 134.76 C 185.53 135.05 186.44 134.59 186.72 133.75 C 187.00 132.91 186.55 131.99 185.71 131.71 L 184.74 131.38 C 183.89 131.10 182.98 131.56 182.70 132.40 C 182.41 133.24 182.87 134.16 183.71 134.44 Z M 184.61 134.74 L 185.58 135.12 C 186.41 135.44 187.35 135.03 187.67 134.20 C 187.99 133.37 187.58 132.44 186.75 132.11 L 185.78 131.73 C 184.95 131.41 184.01 131.82 183.69 132.65 C 183.37 133.48 183.78 134.42 184.61 134.74 Z M 185.50 135.09 L 186.45 135.52 C 187.26 135.89 188.22 135.53 188.59 134.72 C 188.96 133.90 188.60 132.94 187.79 132.58 L 186.84 132.14 C 186.02 131.77 185.06 132.13 184.69 132.95 C 184.32 133.76 184.68 134.72 185.50 135.09 Z M 186.35 135.48 L 187.25 135.96 C 188.04 136.38 189.02 136.08 189.44 135.30 C 189.87 134.51 189.57 133.53 188.78 133.10 L 187.88 132.62 C 187.09 132.20 186.11 132.49 185.69 133.28 C 185.27 134.07 185.56 135.05 186.35 135.48 Z M 187.14 135.89 L 187.96 136.43 C 188.72 136.91 189.72 136.70 190.21 135.94 C 190.69 135.19 190.47 134.18 189.72 133.70 L 188.90 133.17 C 188.14 132.68 187.14 132.90 186.65 133.65 C 186.17 134.40 186.38 135.41 187.14 135.89 Z M 187.82 136.33 L 188.55 136.91 C 189.25 137.47 190.27 137.36 190.83 136.66 C 191.40 135.96 191.28 134.94 190.58 134.37 L 189.86 133.79 C 189.16 133.23 188.14 133.34 187.57 134.04 C 187.01 134.75 187.12 135.77 187.82 136.33 Z M 188.37 136.75 L 189.07 137.51 C 189.68 138.17 190.71 138.21 191.37 137.60 C 192.03 136.99 192.08 135.96 191.46 135.30 L 190.76 134.54 C 190.15 133.88 189.12 133.84 188.46 134.45 C 187.80 135.06 187.76 136.09 188.37 136.75 Z M 188.89 137.27 L 189.45 138.17 C 189.93 138.94 190.93 139.17 191.70 138.69 C 192.46 138.21 192.69 137.21 192.22 136.44 L 191.65 135.54 C 191.17 134.78 190.17 134.54 189.40 135.02 C 188.64 135.50 188.41 136.50 188.89 137.27 Z M 189.32 137.91 L 189.69 138.85 C 190.02 139.69 190.97 140.10 191.81 139.76 C 192.65 139.43 193.06 138.48 192.72 137.64 L 192.35 136.70 C 192.02 135.87 191.07 135.46 190.23 135.79 C 189.39 136.12 188.98 137.07 189.32 137.91 Z M 189.61 138.61 L 189.83 139.55 C 190.03 140.43 190.91 140.98 191.79 140.78 C 192.67 140.58 193.22 139.70 193.02 138.82 L 192.80 137.88 C 192.60 137.00 191.72 136.45 190.84 136.65 C 189.96 136.86 189.41 137.73 189.61 138.61 Z M 189.80 139.36 L 189.89 140.27 C 189.99 141.17 190.80 141.82 191.69 141.73 C 192.59 141.63 193.24 140.82 193.15 139.93 L 193.05 139.01 C 192.96 138.11 192.15 137.46 191.25 137.56 C 190.35 137.65 189.70 138.46 189.80 139.36 Z M 189.88 140.11 L 189.89 141.09 C 189.90 142.00 190.64 142.72 191.54 142.72 C 192.45 142.71 193.18 141.97 193.17 141.06 L 193.16 140.08 C 193.15 139.18 192.41 138.45 191.51 138.46 C 190.60 138.47 189.87 139.21 189.88 140.11 Z M 189.90 140.92 L 189.80 141.93 C 189.72 142.83 190.38 143.63 191.28 143.72 C 192.18 143.80 192.98 143.14 193.07 142.24 L 193.16 141.23 C 193.25 140.33 192.59 139.53 191.68 139.45 C 190.78 139.36 189.98 140.02 189.90 140.92 Z M 189.83 141.74 L 189.63 142.68 C 189.44 143.57 190.00 144.44 190.88 144.63 C 191.77 144.82 192.64 144.26 192.83 143.38 L 193.04 142.43 C 193.23 141.55 192.67 140.67 191.78 140.48 C 190.90 140.29 190.02 140.85 189.83 141.74 Z M 189.68 142.50 L 189.36 143.43 C 189.07 144.28 189.53 145.22 190.39 145.51 C 191.25 145.80 192.18 145.34 192.47 144.48 L 192.78 143.56 C 193.07 142.70 192.62 141.77 191.76 141.48 C 190.90 141.19 189.97 141.64 189.68 142.50 Z M 189.42 143.29 L 189.04 144.14 C 188.67 144.97 189.04 145.94 189.86 146.31 C 190.69 146.68 191.66 146.31 192.03 145.48 L 192.41 144.62 C 192.78 143.80 192.41 142.83 191.59 142.46 C 190.76 142.09 189.79 142.46 189.42 143.29 Z M 189.08 144.04 L 188.65 144.85 C 188.23 145.66 188.53 146.65 189.34 147.07 C 190.14 147.50 191.13 147.19 191.56 146.39 L 191.99 145.58 C 192.41 144.78 192.10 143.78 191.30 143.36 C 190.50 142.93 189.51 143.24 189.08 144.04 Z M 188.69 144.78 L 188.19 145.62 C 187.72 146.40 187.98 147.41 188.76 147.88 C 189.54 148.34 190.55 148.09 191.01 147.31 L 191.52 146.47 C 191.98 145.69 191.73 144.68 190.95 144.21 C 190.17 143.75 189.16 144.00 188.69 144.78 Z M 188.22 145.56 L 187.65 146.43 C 187.16 147.20 187.37 148.22 188.13 148.71 C 188.89 149.21 189.91 149.00 190.41 148.24 L 190.98 147.36 C 191.48 146.60 191.26 145.58 190.50 145.09 C 189.74 144.59 188.72 144.80 188.22 145.56 Z M 187.68 146.39 L 187.05 147.29 C 186.53 148.04 186.71 149.07 187.45 149.59 C 188.20 150.11 189.23 149.93 189.75 149.18 L 190.38 148.28 C 190.90 147.54 190.72 146.51 189.98 145.98 C 189.23 145.46 188.20 145.64 187.68 146.39 Z M 187.07 147.26 L 186.50 148.04 C 185.96 148.77 186.12 149.80 186.85 150.34 C 187.59 150.88 188.62 150.72 189.16 149.99 L 189.73 149.22 C 190.27 148.48 190.11 147.45 189.38 146.91 C 188.64 146.37 187.61 146.53 187.07 147.26 Z M 186.52 148.01 L 185.94 148.77 C 185.38 149.49 185.52 150.53 186.25 151.08 C 186.97 151.64 188.01 151.50 188.56 150.78 L 189.14 150.02 C 189.69 149.29 189.56 148.26 188.83 147.70 C 188.11 147.15 187.07 147.29 186.52 148.01 Z M 185.95 148.75 L 185.34 149.52 C 184.77 150.24 184.89 151.28 185.61 151.84 C 186.32 152.41 187.36 152.29 187.93 151.57 L 188.54 150.80 C 189.11 150.08 188.99 149.05 188.27 148.48 C 187.56 147.91 186.52 148.03 185.95 148.75 Z M 185.36 149.50 L 184.71 150.29 C 184.13 150.99 184.24 152.03 184.94 152.61 C 185.65 153.19 186.69 153.09 187.26 152.38 L 187.91 151.60 C 188.49 150.89 188.39 149.85 187.68 149.27 C 186.98 148.69 185.94 148.80 185.36 149.50 Z M 184.73 150.26 L 184.06 151.05 C 183.47 151.75 183.55 152.79 184.25 153.38 C 184.94 153.97 185.98 153.89 186.57 153.19 L 187.25 152.40 C 187.84 151.71 187.75 150.67 187.06 150.08 C 186.36 149.48 185.32 149.57 184.73 150.26 Z M 184.08 151.03 L 183.38 151.82 C 182.78 152.51 182.84 153.55 183.53 154.15 C 184.21 154.76 185.26 154.69 185.86 154.01 L 186.56 153.22 C 187.16 152.53 187.09 151.49 186.41 150.88 C 185.72 150.28 184.68 150.35 184.08 151.03 Z M 183.40 151.80 L 182.75 152.52 C 182.14 153.19 182.18 154.23 182.86 154.85 C 183.53 155.46 184.58 155.41 185.19 154.74 L 185.84 154.03 C 186.45 153.35 186.41 152.31 185.73 151.69 C 185.06 151.08 184.01 151.13 183.40 151.80 Z M 182.77 152.50 L 182.11 153.20 C 181.48 153.86 181.52 154.91 182.18 155.53 C 182.85 156.16 183.89 156.12 184.51 155.46 L 185.17 154.76 C 185.80 154.09 185.76 153.05 185.10 152.42 C 184.44 151.80 183.39 151.83 182.77 152.50 Z M 182.12 153.18 L 181.45 153.88 C 180.81 154.54 180.83 155.58 181.49 156.22 C 182.14 156.85 183.19 156.83 183.82 156.18 L 184.50 155.47 C 185.13 154.82 185.11 153.77 184.46 153.14 C 183.80 152.51 182.76 152.53 182.12 153.18 Z M 181.46 153.87 L 180.76 154.58 C 180.12 155.23 180.13 156.27 180.77 156.91 C 181.42 157.55 182.46 157.55 183.11 156.90 L 183.81 156.19 C 184.45 155.54 184.44 154.50 183.79 153.86 C 183.15 153.22 182.10 153.22 181.46 153.87 Z M 180.77 154.57 L 180.05 155.28 C 179.40 155.92 179.40 156.96 180.04 157.61 C 180.68 158.26 181.72 158.27 182.37 157.63 L 183.09 156.91 C 183.74 156.27 183.75 155.23 183.11 154.58 C 182.47 153.93 181.42 153.93 180.77 154.57 Z M 180.06 155.27 L 179.32 155.99 C 178.66 156.63 178.65 157.67 179.28 158.32 C 179.91 158.98 180.96 158.99 181.61 158.36 L 182.36 157.64 C 183.01 157.00 183.03 155.96 182.39 155.31 C 181.76 154.65 180.72 154.64 180.06 155.27 Z M 179.33 155.99 L 178.57 156.71 C 177.91 157.33 177.89 158.38 178.52 159.03 C 179.15 159.69 180.19 159.72 180.85 159.09 L 181.60 158.37 C 182.26 157.74 182.28 156.70 181.66 156.04 C 181.03 155.38 179.98 155.36 179.33 155.99 Z M 178.58 156.70 L 177.89 157.35 C 177.23 157.97 177.20 159.01 177.82 159.68 C 178.45 160.34 179.49 160.37 180.15 159.74 L 180.84 159.10 C 181.50 158.47 181.53 157.43 180.91 156.77 C 180.28 156.10 179.24 156.07 178.58 156.70 Z M 177.90 157.34 L 177.19 158.00 C 176.52 158.62 176.49 159.66 177.11 160.33 C 177.73 161.00 178.78 161.03 179.44 160.41 L 180.15 159.75 C 180.81 159.13 180.85 158.09 180.23 157.42 C 179.61 156.75 178.56 156.72 177.90 157.34 Z M 177.19 157.99 L 176.47 158.66 C 175.80 159.28 175.76 160.33 176.38 160.99 C 177.00 161.66 178.05 161.70 178.72 161.08 L 179.44 160.41 C 180.11 159.80 180.15 158.75 179.53 158.08 C 178.91 157.41 177.86 157.37 177.19 157.99 Z M 176.48 158.66 L 175.74 159.34 C 175.07 159.95 175.03 161.00 175.64 161.67 C 176.26 162.34 177.30 162.38 177.98 161.76 L 178.71 161.09 C 179.38 160.47 179.43 159.43 178.81 158.75 C 178.19 158.08 177.15 158.04 176.48 158.66 Z M 175.74 159.33 L 174.99 160.02 C 174.32 160.63 174.27 161.68 174.89 162.35 C 175.51 163.03 176.55 163.07 177.22 162.45 L 177.97 161.77 C 178.65 161.15 178.69 160.11 178.08 159.43 C 177.46 158.76 176.41 158.72 175.74 159.33 Z M 174.99 160.02 L 174.23 160.71 C 173.56 161.33 173.51 162.37 174.13 163.05 C 174.74 163.72 175.79 163.77 176.46 163.15 L 177.22 162.46 C 177.90 161.84 177.94 160.80 177.33 160.12 C 176.71 159.45 175.67 159.40 174.99 160.02 Z M 174.23 160.71 L 173.46 161.41 C 172.79 162.03 172.74 163.07 173.36 163.75 C 173.97 164.42 175.02 164.47 175.69 163.85 L 176.46 163.15 C 177.14 162.54 177.19 161.49 176.57 160.82 C 175.95 160.14 174.91 160.09 174.23 160.71 Z M 173.46 161.41 L 172.71 162.10 C 172.04 162.71 171.99 163.76 172.61 164.43 C 173.22 165.11 174.27 165.16 174.94 164.54 L 175.69 163.85 C 176.37 163.24 176.42 162.19 175.80 161.52 C 175.19 160.84 174.14 160.79 173.46 161.41 Z M 172.71 162.10 L 171.99 162.76 C 171.32 163.37 171.27 164.42 171.88 165.09 C 172.50 165.77 173.55 165.81 174.22 165.20 L 174.94 164.54 C 175.62 163.92 175.66 162.88 175.05 162.20 C 174.43 161.53 173.39 161.48 172.71 162.10 Z M 171.99 162.76 L 171.26 163.42 C 170.59 164.04 170.54 165.08 171.16 165.76 C 171.78 166.43 172.82 166.48 173.49 165.86 L 174.22 165.20 C 174.89 164.58 174.94 163.54 174.32 162.86 C 173.71 162.19 172.66 162.14 171.99 162.76 Z M 171.26 163.43 L 170.53 164.10 C 169.86 164.71 169.82 165.76 170.43 166.43 C 171.05 167.10 172.09 167.14 172.76 166.53 L 173.49 165.86 C 174.16 165.24 174.21 164.20 173.59 163.53 C 172.98 162.86 171.94 162.81 171.26 163.43 Z M 170.53 164.10 L 169.80 164.78 C 169.13 165.39 169.08 166.43 169.70 167.10 C 170.31 167.77 171.36 167.82 172.03 167.20 L 172.76 166.53 C 173.43 165.91 173.48 164.87 172.86 164.20 C 172.24 163.53 171.20 163.48 170.53 164.10 Z M 169.80 164.78 L 169.06 165.46 C 168.39 166.08 168.35 167.12 168.96 167.79 C 169.58 168.45 170.62 168.50 171.29 167.88 L 172.03 167.20 C 172.70 166.58 172.74 165.54 172.12 164.87 C 171.51 164.21 170.46 164.16 169.80 164.78 Z M 169.06 165.47 L 168.31 166.15 C 167.65 166.77 167.61 167.81 168.22 168.48 C 168.84 169.14 169.88 169.18 170.55 168.56 L 171.29 167.88 C 171.96 167.26 172.00 166.22 171.38 165.55 C 170.76 164.89 169.72 164.85 169.06 165.47 Z M 168.31 166.16 L 167.57 166.85 C 166.90 167.47 166.87 168.51 167.48 169.17 C 168.10 169.83 169.14 169.87 169.80 169.25 L 170.55 168.56 C 171.21 167.94 171.25 166.90 170.63 166.24 C 170.02 165.58 168.98 165.54 168.31 166.16 Z M 167.57 166.85 L 166.82 167.55 C 166.16 168.17 166.12 169.21 166.74 169.87 C 167.36 170.53 168.40 170.57 169.06 169.95 L 169.81 169.25 C 170.47 168.63 170.50 167.59 169.88 166.93 C 169.27 166.27 168.23 166.24 167.57 166.85 Z M 166.82 167.56 L 166.09 168.24 C 165.43 168.86 165.40 169.89 166.02 170.55 C 166.64 171.21 167.67 171.24 168.33 170.63 L 169.06 169.94 C 169.72 169.32 169.75 168.29 169.13 167.63 C 168.51 166.97 167.48 166.94 166.82 167.56 Z M 166.09 168.24 L 165.36 168.93 C 164.71 169.55 164.68 170.58 165.30 171.24 C 165.92 171.90 166.95 171.93 167.61 171.31 L 168.34 170.62 C 168.99 170.00 169.02 168.97 168.40 168.31 C 167.78 167.65 166.75 167.62 166.09 168.24 Z M 165.36 168.93 L 164.63 169.62 C 163.98 170.24 163.95 171.28 164.57 171.93 C 165.19 172.59 166.23 172.61 166.88 171.99 L 167.61 171.30 C 168.27 170.68 168.29 169.65 167.67 168.99 C 167.05 168.34 166.02 168.31 165.36 168.93 Z M 164.63 169.62 L 163.91 170.31 C 163.25 170.93 163.23 171.97 163.85 172.62 C 164.47 173.28 165.50 173.30 166.16 172.68 L 166.89 171.99 C 167.54 171.37 167.57 170.33 166.94 169.68 C 166.32 169.03 165.29 169.00 164.63 169.62 Z M 163.91 170.32 L 163.18 171.01 C 162.53 171.63 162.50 172.66 163.12 173.32 C 163.75 173.97 164.78 173.99 165.43 173.37 L 166.16 172.68 C 166.81 172.06 166.84 171.02 166.21 170.37 C 165.59 169.72 164.56 169.69 163.91 170.32 Z M 163.18 171.01 L 162.45 171.70 C 161.80 172.33 161.78 173.36 162.40 174.01 C 163.02 174.66 164.06 174.69 164.71 174.06 L 165.43 173.37 C 166.08 172.75 166.11 171.71 165.49 171.06 C 164.86 170.41 163.83 170.39 163.18 171.01 Z M 162.45 171.70 L 161.73 172.40 C 161.08 173.02 161.06 174.05 161.68 174.70 C 162.30 175.35 163.33 175.38 163.98 174.75 L 164.71 174.06 C 165.36 173.44 165.38 172.41 164.76 171.76 C 164.14 171.10 163.10 171.08 162.45 171.70 Z M 161.73 172.40 L 161.01 173.09 C 160.36 173.71 160.34 174.74 160.96 175.39 C 161.58 176.04 162.61 176.06 163.26 175.44 L 163.98 174.75 C 164.63 174.13 164.66 173.10 164.03 172.45 C 163.41 171.80 162.38 171.78 161.73 172.40 Z M 161.01 173.09 L 160.29 173.78 C 159.64 174.40 159.62 175.43 160.24 176.08 C 160.86 176.73 161.89 176.75 162.54 176.13 L 163.26 175.44 C 163.91 174.82 163.93 173.79 163.31 173.14 C 162.69 172.49 161.66 172.47 161.01 173.09 Z M 160.29 173.78 L 159.57 174.47 C 158.92 175.09 158.90 176.12 159.52 176.77 C 160.14 177.42 161.17 177.44 161.82 176.82 L 162.54 176.13 C 163.19 175.51 163.21 174.48 162.59 173.83 C 161.97 173.18 160.94 173.16 160.29 173.78 Z M 159.57 174.47 L 158.85 175.16 C 158.20 175.78 158.18 176.81 158.80 177.46 C 159.42 178.11 160.45 178.13 161.10 177.51 L 161.82 176.82 C 162.47 176.20 162.49 175.17 161.87 174.52 C 161.25 173.87 160.22 173.85 159.57 174.47 Z M 158.85 175.17 L 158.13 175.86 C 157.48 176.48 157.46 177.51 158.09 178.15 C 158.71 178.80 159.74 178.82 160.38 178.20 L 161.10 177.51 C 161.75 176.89 161.77 175.86 161.15 175.21 C 160.52 174.56 159.50 174.54 158.85 175.17 Z M 158.13 175.86 L 157.41 176.55 C 156.77 177.17 156.75 178.20 157.37 178.85 C 158.00 179.49 159.02 179.51 159.67 178.89 L 160.39 178.19 C 161.03 177.57 161.05 176.54 160.43 175.90 C 159.80 175.25 158.77 175.24 158.13 175.86 Z M 157.41 176.55 L 156.70 177.25 C 156.05 177.87 156.04 178.90 156.66 179.54 C 157.29 180.18 158.31 180.20 158.96 179.58 L 159.67 178.88 C 160.32 178.26 160.33 177.23 159.71 176.59 C 159.08 175.94 158.05 175.93 157.41 176.55 Z M 156.69 177.25 L 155.98 177.95 C 155.34 178.58 155.33 179.60 155.95 180.24 C 156.58 180.88 157.60 180.90 158.25 180.27 L 158.96 179.57 C 159.60 178.95 159.61 177.92 158.99 177.28 C 158.36 176.64 157.33 176.63 156.69 177.25 Z M 155.98 177.95 L 155.26 178.66 C 154.62 179.29 154.61 180.31 155.24 180.95 C 155.87 181.59 156.90 181.60 157.53 180.97 L 158.25 180.26 C 158.89 179.64 158.89 178.61 158.27 177.97 C 157.64 177.34 156.61 177.33 155.98 177.95 Z M 155.26 178.66 L 154.54 179.37 C 153.91 180.00 153.90 181.03 154.53 181.66 C 155.16 182.30 156.19 182.30 156.82 181.67 L 157.54 180.96 C 158.17 180.33 158.18 179.31 157.55 178.67 C 156.92 178.04 155.89 178.03 155.26 178.66 Z M 154.54 179.38 L 153.82 180.10 C 153.19 180.73 153.19 181.76 153.82 182.39 C 154.45 183.02 155.48 183.02 156.11 182.39 L 156.83 181.67 C 157.46 181.03 157.46 180.01 156.82 179.38 C 156.19 178.75 155.17 178.75 154.54 179.38 Z M 153.82 180.11 L 153.10 180.83 C 152.47 181.47 152.48 182.49 153.11 183.12 C 153.74 183.74 154.77 183.74 155.39 183.10 L 156.11 182.38 C 156.74 181.74 156.73 180.72 156.10 180.09 C 155.47 179.47 154.44 179.47 153.82 180.11 Z M 153.09 180.84 L 152.38 181.57 C 151.75 182.20 151.76 183.22 152.40 183.85 C 153.04 184.47 154.06 184.46 154.68 183.83 L 155.40 183.10 C 156.02 182.46 156.01 181.44 155.38 180.82 C 154.74 180.19 153.72 180.20 153.09 180.84 Z M 152.38 181.57 L 151.67 182.30 C 151.04 182.94 151.06 183.96 151.69 184.58 C 152.33 185.20 153.35 185.19 153.97 184.55 L 154.68 183.82 C 155.30 183.19 155.29 182.17 154.66 181.54 C 154.02 180.92 153.00 180.93 152.38 181.57 Z M 151.66 182.30 L 150.96 183.03 C 150.34 183.67 150.35 184.69 150.99 185.31 C 151.63 185.93 152.64 185.91 153.26 185.27 L 153.97 184.55 C 154.59 183.91 154.58 182.89 153.94 182.27 C 153.30 181.65 152.28 181.67 151.66 182.30 Z M 150.96 183.03 L 150.26 183.75 C 149.64 184.39 149.66 185.41 150.29 186.02 C 150.93 186.64 151.95 186.63 152.57 185.99 L 153.26 185.27 C 153.88 184.64 153.87 183.62 153.23 183.00 C 152.59 182.38 151.58 182.40 150.96 183.03 Z M 150.26 183.75 L 149.57 184.46 C 148.96 185.10 148.97 186.11 149.61 186.73 C 150.24 187.35 151.26 187.33 151.88 186.70 L 152.56 185.99 C 153.18 185.35 153.17 184.34 152.53 183.72 C 151.90 183.10 150.88 183.12 150.26 183.75 Z M 149.58 184.46 L 148.90 185.16 C 148.28 185.79 148.30 186.81 148.93 187.42 C 149.57 188.04 150.58 188.03 151.20 187.39 L 151.87 186.70 C 152.49 186.06 152.48 185.05 151.84 184.43 C 151.21 183.81 150.19 183.83 149.58 184.46 Z M 148.90 185.16 L 148.23 185.85 C 147.61 186.48 147.63 187.49 148.26 188.11 C 148.89 188.73 149.91 188.71 150.52 188.08 L 151.20 187.39 C 151.81 186.76 151.80 185.75 151.17 185.13 C 150.53 184.51 149.52 184.52 148.90 185.16 Z M 148.24 185.84 L 147.50 186.60 C 146.88 187.23 146.89 188.24 147.52 188.86 C 148.15 189.48 149.16 189.47 149.78 188.84 L 150.52 188.08 C 151.14 187.45 151.13 186.44 150.50 185.82 C 149.87 185.20 148.85 185.21 148.24 185.84 Z M 147.50 186.59 L 146.78 187.33 C 146.16 187.96 146.16 188.97 146.79 189.59 C 147.42 190.21 148.43 190.20 149.05 189.57 L 149.78 188.84 C 150.40 188.21 150.39 187.20 149.76 186.58 C 149.13 185.96 148.12 185.97 147.50 186.59 Z M 146.78 187.32 L 146.07 188.04 C 145.45 188.66 145.45 189.67 146.08 190.30 C 146.70 190.92 147.72 190.92 148.34 190.29 L 149.05 189.58 C 149.67 188.95 149.67 187.94 149.04 187.32 C 148.42 186.69 147.41 186.70 146.78 187.32 Z M 146.08 188.03 L 145.38 188.73 C 144.75 189.35 144.75 190.36 145.37 190.99 C 145.99 191.62 147.01 191.62 147.63 190.99 L 148.33 190.30 C 148.96 189.67 148.96 188.66 148.34 188.04 C 147.72 187.41 146.70 187.41 146.08 188.03 Z M 145.38 188.72 L 144.69 189.41 C 144.06 190.03 144.05 191.04 144.67 191.67 C 145.29 192.30 146.30 192.31 146.93 191.69 L 147.63 191.00 C 148.25 190.38 148.26 189.37 147.64 188.74 C 147.02 188.11 146.01 188.10 145.38 188.72 Z M 144.69 189.40 L 144.00 190.08 C 143.36 190.70 143.35 191.71 143.97 192.34 C 144.58 192.97 145.59 192.99 146.23 192.37 L 146.92 191.69 C 147.55 191.08 147.57 190.07 146.95 189.43 C 146.34 188.80 145.33 188.79 144.69 189.40 Z M 144.00 190.08 L 143.30 190.75 C 142.67 191.36 142.65 192.37 143.26 193.01 C 143.87 193.64 144.88 193.66 145.52 193.05 L 146.22 192.38 C 146.85 191.77 146.87 190.76 146.26 190.12 C 145.65 189.48 144.64 189.46 144.00 190.08 Z M 143.31 190.74 L 142.60 191.41 C 141.96 192.02 141.94 193.03 142.54 193.67 C 143.15 194.31 144.16 194.34 144.80 193.73 L 145.51 193.06 C 146.15 192.45 146.18 191.44 145.57 190.80 C 144.96 190.16 143.95 190.13 143.31 190.74 Z M 142.61 191.41 L 141.89 192.08 C 141.25 192.68 141.22 193.69 141.82 194.34 C 142.42 194.98 143.43 195.01 144.07 194.41 L 144.79 193.74 C 145.44 193.14 145.47 192.13 144.87 191.48 C 144.26 190.84 143.25 190.81 142.61 191.41 Z M 141.90 192.08 L 141.17 192.75 C 140.52 193.35 140.49 194.36 141.08 195.00 C 141.68 195.65 142.69 195.69 143.34 195.09 L 144.07 194.42 C 144.71 193.82 144.75 192.81 144.15 192.16 C 143.56 191.52 142.55 191.48 141.90 192.08 Z M 141.18 192.74 L 140.44 193.41 C 139.79 194.01 139.75 195.02 140.34 195.67 C 140.93 196.32 141.94 196.36 142.59 195.77 L 143.33 195.10 C 143.98 194.50 144.03 193.50 143.43 192.85 C 142.84 192.19 141.83 192.15 141.18 192.74 Z M 140.45 193.41 L 139.71 194.08 C 139.05 194.67 139.00 195.68 139.59 196.33 C 140.18 196.98 141.18 197.04 141.84 196.45 L 142.58 195.78 C 143.24 195.19 143.29 194.18 142.70 193.53 C 142.11 192.87 141.11 192.82 140.45 193.41 Z M 139.71 194.07 L 138.96 194.74 C 138.30 195.33 138.24 196.33 138.83 196.99 C 139.41 197.65 140.42 197.71 141.08 197.12 L 141.83 196.45 C 142.49 195.87 142.55 194.86 141.96 194.20 C 141.38 193.55 140.37 193.49 139.71 194.07 Z M 138.97 194.74 L 138.21 195.40 C 137.55 195.98 137.48 196.99 138.06 197.65 C 138.64 198.31 139.65 198.38 140.31 197.80 L 141.07 197.13 C 141.73 196.55 141.80 195.54 141.22 194.88 C 140.64 194.22 139.63 194.16 138.97 194.74 Z M 138.22 195.40 L 137.45 196.06 C 136.79 196.64 136.72 197.64 137.29 198.31 C 137.87 198.97 138.87 199.04 139.54 198.47 L 140.30 197.80 C 140.96 197.23 141.04 196.22 140.46 195.56 C 139.89 194.89 138.88 194.82 138.22 195.40 Z M 137.46 196.06 L 136.71 196.69 C 136.04 197.27 135.97 198.27 136.54 198.94 C 137.11 199.60 138.11 199.68 138.78 199.11 L 139.53 198.47 C 140.19 197.90 140.27 196.90 139.70 196.23 C 139.13 195.56 138.13 195.48 137.46 196.06 Z M 136.72 196.69 L 135.97 197.33 C 135.29 197.89 135.21 198.90 135.78 199.57 C 136.34 200.24 137.35 200.32 138.02 199.76 L 138.77 199.12 C 139.44 198.55 139.53 197.55 138.96 196.88 C 138.39 196.21 137.39 196.12 136.72 196.69 Z M 135.97 197.32 L 135.21 197.95 C 134.54 198.52 134.45 199.52 135.01 200.19 C 135.57 200.87 136.57 200.96 137.25 200.40 L 138.01 199.76 C 138.68 199.20 138.77 198.20 138.21 197.52 C 137.65 196.85 136.65 196.76 135.97 197.32 Z M 135.22 197.95 L 134.45 198.58 C 133.77 199.14 133.67 200.14 134.23 200.82 C 134.79 201.50 135.79 201.59 136.47 201.04 L 137.24 200.40 C 137.92 199.85 138.01 198.85 137.46 198.17 C 136.90 197.49 135.90 197.39 135.22 197.95 Z M 134.46 198.57 L 133.68 199.20 C 133.00 199.76 132.89 200.76 133.44 201.44 C 133.99 202.12 135.00 202.23 135.68 201.67 L 136.46 201.04 C 137.14 200.49 137.25 199.49 136.69 198.81 C 136.14 198.13 135.14 198.02 134.46 198.57 Z M 133.69 199.20 L 132.90 199.82 C 132.21 200.37 132.10 201.37 132.65 202.06 C 133.19 202.74 134.19 202.86 134.88 202.31 L 135.67 201.68 C 136.36 201.14 136.47 200.14 135.92 199.45 C 135.37 198.76 134.38 198.65 133.69 199.20 Z M 132.91 199.82 L 132.11 200.44 C 131.42 200.98 131.30 201.98 131.84 202.67 C 132.38 203.36 133.38 203.49 134.07 202.94 L 134.87 202.32 C 135.56 201.78 135.68 200.78 135.14 200.09 C 134.60 199.40 133.60 199.28 132.91 199.82 Z M 132.12 200.44 L 131.32 201.05 C 130.63 201.59 130.50 202.59 131.03 203.28 C 131.57 203.97 132.57 204.10 133.26 203.57 L 134.06 202.95 C 134.75 202.42 134.88 201.42 134.35 200.72 C 133.81 200.03 132.82 199.90 132.12 200.44 Z M 131.33 201.04 L 130.54 201.64 C 129.84 202.17 129.71 203.17 130.24 203.87 C 130.77 204.57 131.76 204.70 132.46 204.17 L 133.25 203.58 C 133.95 203.05 134.09 202.05 133.56 201.35 C 133.03 200.65 132.03 200.51 131.33 201.04 Z M 130.55 201.64 L 129.75 202.24 C 129.05 202.76 128.91 203.76 129.43 204.46 C 129.96 205.16 130.95 205.30 131.66 204.78 L 132.45 204.18 C 133.16 203.65 133.30 202.66 132.77 201.96 C 132.25 201.26 131.25 201.11 130.55 201.64 Z M 129.76 202.23 L 128.95 202.83 C 128.25 203.35 128.10 204.34 128.63 205.05 C 129.15 205.75 130.14 205.90 130.85 205.38 L 131.65 204.78 C 132.35 204.26 132.50 203.26 131.98 202.56 C 131.46 201.86 130.46 201.71 129.76 202.23 Z M 128.96 202.82 L 128.15 203.42 C 127.45 203.94 127.30 204.93 127.82 205.64 C 128.33 206.34 129.33 206.50 130.03 205.98 L 130.84 205.38 C 131.55 204.86 131.70 203.87 131.18 203.16 C 130.66 202.46 129.67 202.31 128.96 202.82 Z M 128.15 203.42 L 127.34 204.01 C 126.64 204.53 126.49 205.52 127.00 206.23 C 127.52 206.94 128.51 207.09 129.22 206.57 L 130.03 205.98 C 130.74 205.46 130.89 204.47 130.37 203.76 C 129.85 203.05 128.86 202.90 128.15 203.42 Z M 127.35 204.01 L 126.54 204.60 C 125.83 205.12 125.67 206.11 126.19 206.82 C 126.71 207.53 127.70 207.68 128.41 207.16 L 129.22 206.57 C 129.93 206.05 130.08 205.06 129.56 204.35 C 129.05 203.65 128.05 203.49 127.35 204.01 Z M 126.54 204.60 L 125.73 205.20 C 125.02 205.71 124.87 206.71 125.38 207.41 C 125.90 208.12 126.89 208.27 127.60 207.76 L 128.41 207.16 C 129.12 206.65 129.27 205.65 128.75 204.95 C 128.23 204.24 127.24 204.09 126.54 204.60 Z M 125.72 205.20 L 124.92 205.79 C 124.21 206.31 124.06 207.30 124.58 208.01 C 125.09 208.71 126.09 208.87 126.79 208.35 L 127.60 207.75 C 128.31 207.24 128.46 206.24 127.94 205.54 C 127.42 204.83 126.43 204.68 125.72 205.20 Z M 124.91 205.80 L 124.11 206.39 C 123.40 206.91 123.25 207.90 123.77 208.61 C 124.29 209.31 125.28 209.46 125.99 208.94 L 126.79 208.35 C 127.50 207.83 127.65 206.83 127.13 206.13 C 126.61 205.43 125.62 205.28 124.91 205.80 Z M 124.10 206.39 L 123.30 206.99 C 122.60 207.51 122.45 208.50 122.97 209.20 C 123.49 209.91 124.48 210.05 125.19 209.53 L 125.99 208.94 C 126.69 208.42 126.84 207.43 126.32 206.72 C 125.80 206.02 124.81 205.87 124.10 206.39 Z M 123.30 206.99 L 122.50 207.59 C 121.80 208.11 121.65 209.10 122.17 209.80 C 122.69 210.50 123.69 210.65 124.39 210.13 L 125.19 209.53 C 125.89 209.01 126.03 208.02 125.51 207.32 C 124.99 206.62 124.00 206.47 123.30 206.99 Z M 122.50 207.59 L 121.70 208.19 C 121.00 208.71 120.85 209.70 121.38 210.40 C 121.90 211.10 122.89 211.24 123.59 210.72 L 124.39 210.12 C 125.09 209.60 125.23 208.61 124.71 207.91 C 124.19 207.21 123.20 207.07 122.50 207.59 Z M 121.70 208.19 L 120.90 208.79 C 120.20 209.31 120.06 210.30 120.58 211.00 C 121.10 211.70 122.09 211.84 122.79 211.32 L 123.59 210.72 C 124.29 210.20 124.43 209.21 123.91 208.51 C 123.38 207.81 122.39 207.67 121.70 208.19 Z M 120.90 208.79 L 120.10 209.39 C 119.40 209.91 119.26 210.90 119.78 211.60 C 120.31 212.30 121.29 212.44 121.99 211.91 L 122.79 211.31 C 123.49 210.79 123.63 209.80 123.11 209.11 C 122.58 208.41 121.59 208.27 120.90 208.79 Z M 120.10 209.39 L 119.30 209.99 C 118.60 210.52 118.46 211.50 118.99 212.20 C 119.51 212.90 120.50 213.04 121.19 212.51 L 121.99 211.91 C 122.69 211.39 122.83 210.40 122.30 209.71 C 121.78 209.01 120.79 208.87 120.10 209.39 Z M 119.30 210.00 L 118.49 210.61 C 117.79 211.13 117.65 212.12 118.18 212.81 C 118.70 213.51 119.69 213.64 120.38 213.12 L 121.19 212.51 C 121.89 211.99 122.03 211.00 121.50 210.31 C 120.98 209.61 119.99 209.47 119.30 210.00 Z M 118.49 210.61 L 117.65 211.24 C 116.95 211.76 116.82 212.75 117.34 213.44 C 117.86 214.14 118.85 214.27 119.54 213.75 L 120.38 213.12 C 121.07 212.60 121.21 211.61 120.69 210.92 C 120.17 210.22 119.18 210.08 118.49 210.61 Z M 117.65 211.24 L 116.81 211.87 C 116.12 212.39 115.98 213.38 116.51 214.07 C 117.03 214.77 118.01 214.90 118.71 214.38 L 119.54 213.75 C 120.23 213.23 120.37 212.24 119.85 211.55 C 119.33 210.86 118.34 210.72 117.65 211.24 Z M 116.81 211.87 L 115.99 212.50 C 115.30 213.02 115.16 214.01 115.68 214.70 C 116.21 215.39 117.19 215.52 117.88 215.00 L 118.71 214.38 C 119.40 213.85 119.54 212.87 119.01 212.18 C 118.49 211.49 117.50 211.35 116.81 211.87 Z M 115.99 212.50 L 115.18 213.12 C 114.49 213.64 114.35 214.62 114.88 215.31 C 115.40 216.00 116.38 216.14 117.07 215.61 L 117.88 215.00 C 118.57 214.47 118.71 213.49 118.18 212.80 C 117.66 212.11 116.68 211.98 115.99 212.50 Z M 115.18 213.12 L 114.39 213.72 C 113.70 214.25 113.57 215.23 114.09 215.92 C 114.62 216.61 115.60 216.74 116.29 216.21 L 117.08 215.61 C 117.76 215.09 117.90 214.10 117.37 213.41 C 116.85 212.73 115.86 212.59 115.18 213.12 Z M 114.38 213.72 L 113.62 214.31 C 112.93 214.84 112.80 215.82 113.33 216.51 C 113.86 217.19 114.84 217.32 115.53 216.79 L 116.29 216.21 C 116.98 215.68 117.10 214.70 116.58 214.01 C 116.05 213.33 115.07 213.20 114.38 213.72 Z M 113.62 214.31 L 112.88 214.88 C 112.20 215.41 112.07 216.39 112.60 217.07 C 113.13 217.76 114.11 217.88 114.80 217.36 L 115.53 216.79 C 116.21 216.26 116.34 215.28 115.81 214.60 C 115.28 213.91 114.30 213.79 113.62 214.31 Z M 112.88 214.89 L 112.04 215.54 C 111.36 216.07 111.24 217.05 111.77 217.73 C 112.30 218.41 113.28 218.53 113.96 218.00 L 114.80 217.35 C 115.48 216.82 115.60 215.84 115.07 215.16 C 114.54 214.48 113.56 214.36 112.88 214.89 Z M 112.04 215.54 L 111.17 216.23 C 110.49 216.76 110.37 217.75 110.91 218.42 C 111.44 219.10 112.42 219.22 113.10 218.68 L 113.97 218.00 C 114.65 217.46 114.76 216.48 114.23 215.80 C 113.70 215.13 112.71 215.01 112.04 215.54 Z M 111.16 216.24 L 110.35 216.88 C 109.67 217.42 109.56 218.40 110.10 219.08 C 110.64 219.75 111.62 219.86 112.29 219.33 L 113.11 218.68 C 113.78 218.14 113.89 217.16 113.35 216.48 C 112.82 215.81 111.83 215.70 111.16 216.24 Z M 110.34 216.89 L 109.58 217.50 C 108.91 218.04 108.80 219.03 109.35 219.70 C 109.89 220.37 110.87 220.47 111.54 219.93 L 112.30 219.32 C 112.97 218.78 113.08 217.80 112.54 217.13 C 112.00 216.45 111.01 216.35 110.34 216.89 Z M 109.58 217.51 L 108.86 218.09 C 108.19 218.63 108.09 219.61 108.64 220.28 C 109.18 220.95 110.16 221.05 110.83 220.51 L 111.55 219.93 C 112.22 219.38 112.32 218.40 111.77 217.73 C 111.23 217.06 110.24 216.96 109.58 217.51 Z M 108.86 218.09 L 108.19 218.64 C 107.52 219.19 107.42 220.17 107.97 220.84 C 108.51 221.50 109.50 221.60 110.16 221.06 L 110.84 220.50 C 111.50 219.96 111.60 218.97 111.06 218.31 C 110.51 217.64 109.53 217.54 108.86 218.09 Z M 108.18 218.64 L 107.41 219.28 C 106.74 219.83 106.64 220.82 107.19 221.48 C 107.74 222.15 108.72 222.24 109.39 221.69 L 110.17 221.05 C 110.83 220.50 110.93 219.52 110.38 218.86 C 109.83 218.19 108.85 218.09 108.18 218.64 Z M 107.40 219.29 L 106.64 219.92 C 105.98 220.47 105.89 221.45 106.44 222.12 C 106.99 222.78 107.97 222.87 108.63 222.32 L 109.39 221.69 C 110.06 221.14 110.15 220.16 109.60 219.49 C 109.05 218.83 108.06 218.74 107.40 219.29 Z M 106.64 219.92 L 105.89 220.55 C 105.22 221.10 105.14 222.09 105.69 222.75 C 106.24 223.41 107.23 223.50 107.89 222.94 L 108.64 222.32 C 109.30 221.76 109.39 220.78 108.83 220.12 C 108.28 219.46 107.30 219.37 106.64 219.92 Z M 105.88 220.55 L 105.12 221.20 C 104.46 221.75 104.38 222.74 104.94 223.40 C 105.49 224.05 106.48 224.14 107.14 223.58 L 107.90 222.94 C 108.55 222.38 108.64 221.40 108.08 220.74 C 107.52 220.08 106.54 220.00 105.88 220.55 Z M 105.12 221.20 L 104.34 221.86 C 103.69 222.42 103.61 223.40 104.17 224.06 C 104.73 224.71 105.72 224.79 106.37 224.23 L 107.14 223.58 C 107.80 223.02 107.88 222.03 107.32 221.37 C 106.76 220.72 105.77 220.64 105.12 221.20 Z M 104.34 221.86 L 103.58 222.51 C 102.92 223.07 102.84 224.06 103.40 224.71 C 103.96 225.37 104.95 225.45 105.61 224.89 L 106.37 224.23 C 107.03 223.67 107.11 222.69 106.55 222.03 C 105.99 221.38 105.00 221.30 104.34 221.86 Z M 103.59 222.50 L 102.80 223.16 C 102.14 223.72 102.05 224.70 102.61 225.36 C 103.16 226.02 104.15 226.11 104.81 225.56 L 105.59 224.90 C 106.25 224.34 106.34 223.36 105.79 222.70 C 105.23 222.04 104.25 221.95 103.59 222.50 Z M 102.83 223.14 L 102.03 223.78 C 101.36 224.32 101.25 225.30 101.79 225.97 C 102.33 226.65 103.31 226.75 103.99 226.21 L 104.78 225.58 C 105.45 225.04 105.56 224.05 105.02 223.38 C 104.48 222.71 103.50 222.60 102.83 223.14 Z M 102.07 223.75 L 101.28 224.34 C 100.59 224.86 100.45 225.84 100.97 226.53 C 101.49 227.22 102.47 227.36 103.16 226.84 L 103.95 226.25 C 104.64 225.73 104.78 224.75 104.26 224.06 C 103.74 223.37 102.76 223.23 102.07 223.75 Z M 101.36 224.29 L 100.36 224.95 C 99.64 225.43 99.44 226.40 99.92 227.12 C 100.40 227.83 101.37 228.03 102.08 227.55 L 103.08 226.89 C 103.80 226.41 104.00 225.44 103.52 224.73 C 103.05 224.01 102.08 223.81 101.36 224.29 Z M 100.46 224.89 L 99.31 225.54 C 98.56 225.96 98.29 226.91 98.72 227.66 C 99.14 228.41 100.09 228.68 100.84 228.26 L 101.99 227.61 C 102.74 227.19 103.00 226.24 102.58 225.49 C 102.16 224.73 101.21 224.47 100.46 224.89 Z M 99.36 225.51 L 98.77 225.81 C 98.01 226.21 97.71 227.15 98.10 227.92 C 98.49 228.68 99.44 228.98 100.20 228.59 L 100.79 228.28 C 101.56 227.89 101.86 226.95 101.47 226.18 C 101.07 225.41 100.13 225.11 99.36 225.51 Z M 99.86 228.72 L 100.08 228.66 C 100.92 228.46 101.43 227.61 101.23 226.77 C 101.02 225.94 100.18 225.42 99.34 225.63 L 99.12 225.68 C 98.28 225.89 97.77 226.74 97.97 227.57 C 98.18 228.41 99.02 228.92 99.86 228.72 Z M 100.19 228.63 L 101.07 228.35 C 101.89 228.08 102.34 227.20 102.07 226.38 C 101.81 225.56 100.92 225.11 100.10 225.38 L 99.23 225.66 C 98.41 225.93 97.96 226.81 98.23 227.63 C 98.49 228.45 99.37 228.90 100.19 228.63 Z M 101.01 228.36 L 102.26 228.01 C 103.09 227.78 103.57 226.92 103.34 226.09 C 103.10 225.26 102.24 224.77 101.41 225.01 L 100.16 225.36 C 99.33 225.59 98.85 226.46 99.08 227.29 C 99.32 228.12 100.18 228.60 101.01 228.36 Z M 102.15 228.04 L 103.27 227.81 C 104.12 227.63 104.66 226.81 104.48 225.96 C 104.31 225.12 103.48 224.57 102.64 224.75 L 101.52 224.98 C 100.67 225.16 100.13 225.98 100.31 226.83 C 100.48 227.67 101.31 228.21 102.15 228.04 Z M 103.16 227.83 L 104.11 227.70 C 104.96 227.59 105.57 226.81 105.45 225.95 C 105.34 225.10 104.56 224.49 103.70 224.61 L 102.75 224.73 C 101.90 224.84 101.30 225.63 101.41 226.48 C 101.52 227.34 102.30 227.94 103.16 227.83 Z M 104.02 227.71 L 105.00 227.64 C 105.86 227.57 106.50 226.82 106.44 225.96 C 106.37 225.10 105.62 224.46 104.76 224.52 L 103.79 224.60 C 102.93 224.66 102.28 225.41 102.35 226.27 C 102.41 227.13 103.16 227.78 104.02 227.71 Z M 104.94 227.64 L 105.96 227.60 C 106.82 227.57 107.49 226.84 107.46 225.98 C 107.43 225.12 106.70 224.45 105.84 224.48 L 104.82 224.52 C 103.96 224.55 103.29 225.28 103.32 226.14 C 103.35 227.00 104.08 227.67 104.94 227.64 Z M 105.93 227.60 L 106.99 227.58 C 107.85 227.57 108.54 226.86 108.52 225.99 C 108.51 225.13 107.80 224.45 106.94 224.46 L 105.87 224.48 C 105.01 224.49 104.32 225.21 104.34 226.07 C 104.35 226.93 105.07 227.62 105.93 227.60 Z M 106.98 227.58 L 107.98 227.57 C 108.84 227.57 109.54 226.86 109.53 226.00 C 109.52 225.14 108.82 224.44 107.96 224.45 L 106.95 224.46 C 106.09 224.47 105.39 225.17 105.40 226.04 C 105.41 226.90 106.11 227.59 106.98 227.58 Z M 107.97 227.57 L 109.00 227.58 C 109.86 227.58 110.56 226.88 110.56 226.02 C 110.56 225.15 109.87 224.45 109.00 224.45 L 107.97 224.45 C 107.11 224.45 106.41 225.15 106.41 226.01 C 106.41 226.87 107.10 227.57 107.97 227.57 Z M 108.98 227.58 L 110.01 227.59 C 110.87 227.60 111.58 226.92 111.59 226.05 C 111.60 225.19 110.92 224.48 110.05 224.47 L 109.02 224.45 C 108.16 224.44 107.45 225.13 107.44 225.99 C 107.43 226.85 108.12 227.56 108.98 227.58 Z M 109.98 227.59 L 110.97 227.62 C 111.83 227.65 112.55 226.98 112.58 226.12 C 112.61 225.25 111.94 224.53 111.08 224.50 L 110.08 224.47 C 109.22 224.44 108.50 225.12 108.47 225.98 C 108.44 226.84 109.12 227.56 109.98 227.59 Z M 110.93 227.62 L 111.88 227.68 C 112.75 227.73 113.49 227.08 113.54 226.22 C 113.59 225.36 112.94 224.62 112.07 224.56 L 111.12 224.51 C 110.26 224.45 109.52 225.11 109.47 225.97 C 109.41 226.83 110.07 227.57 110.93 227.62 Z M 111.82 227.67 L 112.89 227.79 C 113.75 227.87 114.52 227.25 114.61 226.39 C 114.69 225.53 114.07 224.77 113.21 224.68 L 112.14 224.57 C 111.28 224.48 110.52 225.10 110.43 225.96 C 110.34 226.82 110.96 227.59 111.82 227.67 Z M 112.82 227.78 L 113.79 227.92 C 114.64 228.06 115.44 227.47 115.57 226.62 C 115.70 225.77 115.12 224.97 114.26 224.84 L 113.29 224.69 C 112.44 224.56 111.64 225.14 111.51 226.00 C 111.38 226.85 111.96 227.65 112.82 227.78 Z M 113.73 227.91 L 114.66 228.10 C 115.50 228.26 116.32 227.71 116.49 226.87 C 116.66 226.02 116.11 225.20 115.26 225.03 L 114.33 224.85 C 113.48 224.68 112.66 225.23 112.50 226.08 C 112.33 226.93 112.88 227.75 113.73 227.91 Z M 114.61 228.09 L 115.54 228.30 C 116.38 228.49 117.22 227.96 117.41 227.12 C 117.60 226.28 117.07 225.44 116.23 225.25 L 115.30 225.04 C 114.46 224.85 113.63 225.38 113.44 226.22 C 113.25 227.06 113.77 227.90 114.61 228.09 Z M 115.52 228.29 L 116.42 228.51 C 117.26 228.71 118.10 228.20 118.31 227.36 C 118.51 226.52 117.99 225.68 117.16 225.48 L 116.25 225.26 C 115.41 225.05 114.57 225.57 114.37 226.41 C 114.16 227.25 114.68 228.09 115.52 228.29 Z M 116.41 228.51 L 117.36 228.75 C 118.19 228.96 119.04 228.45 119.25 227.62 C 119.46 226.78 118.96 225.93 118.12 225.72 L 117.17 225.48 C 116.34 225.27 115.49 225.77 115.28 226.61 C 115.06 227.45 115.57 228.29 116.41 228.51 Z M 117.34 228.74 L 118.33 229.01 C 119.17 229.23 120.02 228.73 120.24 227.90 C 120.46 227.06 119.97 226.21 119.13 225.99 L 118.14 225.72 C 117.31 225.50 116.45 226.00 116.23 226.83 C 116.01 227.67 116.51 228.52 117.34 228.74 Z M 118.32 229.00 L 119.36 229.29 C 120.19 229.52 121.05 229.03 121.28 228.19 C 121.51 227.36 121.02 226.50 120.19 226.28 L 119.15 225.99 C 118.32 225.76 117.46 226.25 117.23 227.08 C 117.00 227.92 117.49 228.77 118.32 229.00 Z M 119.35 229.28 L 120.25 229.54 C 121.08 229.77 121.94 229.29 122.18 228.46 C 122.41 227.63 121.93 226.77 121.10 226.53 L 120.20 226.28 C 119.37 226.04 118.50 226.53 118.27 227.36 C 118.03 228.19 118.52 229.05 119.35 229.28 Z M 120.24 229.54 L 121.16 229.80 C 121.99 230.04 122.86 229.57 123.10 228.74 C 123.34 227.91 122.86 227.05 122.03 226.81 L 121.11 226.54 C 120.28 226.30 119.41 226.77 119.17 227.60 C 118.93 228.43 119.41 229.30 120.24 229.54 Z M 121.15 229.80 L 122.11 230.09 C 122.94 230.33 123.81 229.86 124.05 229.03 C 124.30 228.21 123.82 227.34 123.00 227.09 L 122.04 226.81 C 121.22 226.56 120.35 227.03 120.10 227.86 C 119.86 228.69 120.33 229.56 121.15 229.80 Z M 122.10 230.08 L 123.09 230.38 C 123.91 230.63 124.78 230.17 125.03 229.34 C 125.28 228.52 124.82 227.64 123.99 227.39 L 123.01 227.09 C 122.18 226.84 121.31 227.31 121.06 228.14 C 120.81 228.96 121.28 229.83 122.10 230.08 Z M 123.08 230.38 L 124.10 230.69 C 124.92 230.95 125.79 230.49 126.05 229.66 C 126.30 228.84 125.84 227.96 125.02 227.71 L 124.00 227.40 C 123.18 227.14 122.30 227.60 122.05 228.43 C 121.79 229.25 122.26 230.12 123.08 230.38 Z M 124.09 230.69 L 125.01 230.98 C 125.83 231.24 126.71 230.78 126.97 229.96 C 127.23 229.14 126.77 228.26 125.95 228.00 L 125.02 227.71 C 124.20 227.45 123.33 227.91 123.07 228.73 C 122.81 229.56 123.27 230.43 124.09 230.69 Z M 125.01 230.98 L 125.93 231.27 C 126.75 231.53 127.63 231.08 127.89 230.26 C 128.15 229.44 127.70 228.56 126.87 228.30 L 125.95 228.00 C 125.13 227.74 124.25 228.20 123.99 229.02 C 123.73 229.84 124.18 230.72 125.01 230.98 Z M 125.92 231.27 L 126.87 231.57 C 127.69 231.84 128.57 231.38 128.83 230.56 C 129.09 229.74 128.64 228.86 127.82 228.60 L 126.88 228.30 C 126.06 228.03 125.18 228.49 124.91 229.31 C 124.65 230.13 125.10 231.01 125.92 231.27 Z M 126.86 231.57 L 127.83 231.88 C 128.65 232.15 129.53 231.70 129.79 230.87 C 130.05 230.05 129.60 229.17 128.78 228.91 L 127.82 228.60 C 127.00 228.34 126.12 228.79 125.86 229.61 C 125.59 230.43 126.04 231.31 126.86 231.57 Z M 127.82 231.88 L 128.80 232.20 C 129.62 232.46 130.50 232.01 130.77 231.19 C 131.03 230.37 130.58 229.49 129.76 229.23 L 128.78 228.91 C 127.96 228.65 127.08 229.10 126.82 229.92 C 126.55 230.74 127.00 231.62 127.82 231.88 Z M 128.80 232.20 L 129.80 232.52 C 130.62 232.78 131.50 232.33 131.76 231.51 C 132.03 230.69 131.58 229.81 130.76 229.55 L 129.76 229.23 C 128.94 228.96 128.06 229.41 127.80 230.23 C 127.53 231.05 127.98 231.93 128.80 232.20 Z M 129.80 232.52 L 130.71 232.81 C 131.53 233.08 132.41 232.63 132.68 231.81 C 132.94 230.99 132.49 230.11 131.67 229.84 L 130.76 229.55 C 129.94 229.28 129.06 229.73 128.79 230.55 C 128.53 231.38 128.98 232.26 129.80 232.52 Z M 130.71 232.82 L 131.63 233.11 C 132.45 233.38 133.33 232.93 133.60 232.10 C 133.86 231.28 133.41 230.40 132.59 230.14 L 131.67 229.84 C 130.85 229.57 129.97 230.03 129.70 230.85 C 129.44 231.67 129.89 232.55 130.71 232.82 Z M 131.62 233.11 L 132.56 233.42 C 133.38 233.68 134.26 233.23 134.53 232.41 C 134.80 231.59 134.35 230.71 133.53 230.44 L 132.59 230.14 C 131.77 229.87 130.89 230.32 130.62 231.14 C 130.35 231.96 130.80 232.84 131.62 233.11 Z M 132.55 233.42 L 133.50 233.73 C 134.32 234.00 135.20 233.55 135.48 232.73 C 135.75 231.91 135.30 231.02 134.48 230.75 L 133.53 230.44 C 132.71 230.17 131.82 230.61 131.55 231.44 C 131.28 232.26 131.73 233.14 132.55 233.42 Z M 133.49 233.73 L 134.45 234.05 C 135.27 234.33 136.16 233.89 136.44 233.07 C 136.72 232.24 136.27 231.35 135.45 231.08 L 134.49 230.75 C 133.67 230.48 132.78 230.92 132.50 231.74 C 132.22 232.56 132.67 233.45 133.49 233.73 Z M 134.44 234.05 L 135.42 234.39 C 136.24 234.67 137.14 234.24 137.42 233.42 C 137.70 232.60 137.27 231.70 136.45 231.42 L 135.46 231.08 C 134.64 230.80 133.75 231.23 133.47 232.05 C 133.18 232.87 133.62 233.77 134.44 234.05 Z M 135.41 234.39 L 136.39 234.73 C 137.21 235.02 138.11 234.59 138.40 233.78 C 138.69 232.96 138.26 232.06 137.44 231.77 L 136.46 231.42 C 135.64 231.13 134.74 231.56 134.45 232.38 C 134.16 233.20 134.59 234.10 135.41 234.39 Z M 136.38 234.73 L 137.30 235.07 C 138.12 235.36 139.02 234.94 139.32 234.12 C 139.61 233.31 139.19 232.40 138.38 232.11 L 137.45 231.77 C 136.63 231.47 135.73 231.90 135.43 232.71 C 135.14 233.53 135.56 234.43 136.38 234.73 Z M 137.29 235.06 L 138.22 235.41 C 139.04 235.72 139.95 235.30 140.25 234.48 C 140.55 233.67 140.14 232.76 139.32 232.46 L 138.39 232.11 C 137.57 231.80 136.66 232.22 136.36 233.04 C 136.06 233.85 136.47 234.76 137.29 235.06 Z M 138.21 235.41 L 139.15 235.77 C 139.97 236.08 140.88 235.67 141.19 234.85 C 141.50 234.04 141.09 233.13 140.27 232.82 L 139.33 232.46 C 138.52 232.15 137.61 232.56 137.30 233.37 C 136.99 234.19 137.40 235.10 138.21 235.41 Z M 139.14 235.77 L 140.08 236.13 C 140.90 236.45 141.81 236.04 142.13 235.23 C 142.44 234.42 142.04 233.50 141.23 233.19 L 140.28 232.82 C 139.47 232.50 138.55 232.91 138.24 233.72 C 137.92 234.53 138.33 235.45 139.14 235.77 Z M 140.07 236.13 L 141.01 236.50 C 141.82 236.82 142.74 236.43 143.07 235.61 C 143.39 234.80 142.99 233.88 142.18 233.56 L 141.24 233.19 C 140.42 232.87 139.51 233.26 139.18 234.08 C 138.86 234.89 139.26 235.81 140.07 236.13 Z M 141.00 236.50 L 141.93 236.88 C 142.75 237.20 143.67 236.81 144.00 236.00 C 144.32 235.19 143.93 234.27 143.12 233.94 L 142.19 233.56 C 141.38 233.23 140.45 233.63 140.13 234.44 C 139.80 235.25 140.19 236.17 141.00 236.50 Z M 141.92 236.87 L 142.84 237.25 C 143.65 237.58 144.58 237.20 144.91 236.39 C 145.25 235.58 144.86 234.65 144.05 234.32 L 143.13 233.94 C 142.32 233.61 141.39 233.99 141.06 234.80 C 140.73 235.61 141.11 236.54 141.92 236.87 Z M 142.83 237.25 L 143.77 237.64 C 144.58 237.98 145.51 237.60 145.85 236.79 C 146.19 235.98 145.81 235.05 145.00 234.72 L 144.06 234.32 C 143.25 233.98 142.32 234.36 141.98 235.17 C 141.65 235.98 142.03 236.91 142.83 237.25 Z M 143.76 237.64 L 144.69 238.04 C 145.50 238.38 146.43 238.01 146.77 237.20 C 147.12 236.39 146.74 235.46 145.94 235.11 L 145.01 234.72 C 144.20 234.37 143.27 234.75 142.93 235.56 C 142.58 236.36 142.96 237.29 143.76 237.64 Z M 144.68 238.03 L 145.59 238.43 C 146.40 238.78 147.34 238.41 147.69 237.61 C 148.04 236.80 147.67 235.87 146.86 235.52 L 145.95 235.12 C 145.14 234.77 144.21 235.14 143.86 235.94 C 143.51 236.75 143.87 237.68 144.68 238.03 Z M 145.59 238.43 L 146.49 238.83 C 147.30 239.18 148.23 238.82 148.59 238.02 C 148.95 237.21 148.58 236.28 147.78 235.92 L 146.87 235.52 C 146.07 235.16 145.13 235.53 144.77 236.33 C 144.42 237.13 144.78 238.07 145.59 238.43 Z M 146.48 238.83 L 147.39 239.23 C 148.19 239.59 149.13 239.23 149.49 238.43 C 149.85 237.63 149.49 236.69 148.69 236.33 L 147.79 235.92 C 146.99 235.56 146.04 235.92 145.68 236.72 C 145.32 237.52 145.68 238.47 146.48 238.83 Z M 147.38 239.23 L 148.28 239.64 C 149.08 240.01 150.03 239.65 150.39 238.85 C 150.76 238.05 150.40 237.11 149.60 236.74 L 148.70 236.33 C 147.90 235.97 146.95 236.32 146.59 237.12 C 146.23 237.92 146.58 238.87 147.38 239.23 Z M 148.28 239.64 L 149.18 240.06 C 149.98 240.43 150.93 240.08 151.30 239.28 C 151.67 238.48 151.32 237.53 150.52 237.16 L 149.61 236.75 C 148.81 236.38 147.86 236.73 147.50 237.53 C 147.13 238.32 147.48 239.27 148.28 239.64 Z M 149.18 240.06 L 150.06 240.46 C 150.85 240.84 151.80 240.49 152.17 239.69 C 152.55 238.89 152.20 237.95 151.40 237.57 L 150.52 237.16 C 149.72 236.79 148.78 237.14 148.41 237.94 C 148.03 238.74 148.38 239.68 149.18 240.06 Z M 150.05 240.46 L 150.93 240.88 C 151.73 241.25 152.68 240.91 153.05 240.11 C 153.43 239.31 153.08 238.36 152.29 237.99 L 151.41 237.57 C 150.61 237.20 149.66 237.54 149.28 238.34 C 148.91 239.14 149.25 240.09 150.05 240.46 Z M 150.93 240.88 L 151.82 241.29 C 152.62 241.67 153.57 241.33 153.94 240.53 C 154.32 239.73 153.98 238.78 153.18 238.41 L 152.29 237.99 C 151.49 237.61 150.54 237.95 150.17 238.75 C 149.79 239.55 150.13 240.50 150.93 240.88 Z M 151.82 241.29 L 152.72 241.72 C 153.51 242.09 154.47 241.75 154.84 240.96 C 155.22 240.16 154.88 239.21 154.08 238.83 L 153.18 238.41 C 152.38 238.03 151.43 238.37 151.05 239.17 C 150.68 239.97 151.02 240.92 151.82 241.29 Z M 152.72 241.72 L 153.63 242.15 C 154.43 242.52 155.38 242.18 155.75 241.38 C 156.13 240.59 155.79 239.64 154.99 239.26 L 154.08 238.83 C 153.28 238.45 152.33 238.80 151.95 239.59 C 151.58 240.39 151.92 241.34 152.72 241.72 Z M 153.63 242.15 L 154.55 242.58 C 155.35 242.96 156.30 242.61 156.68 241.82 C 157.05 241.02 156.71 240.07 155.91 239.69 L 154.99 239.26 C 154.19 238.88 153.24 239.23 152.86 240.02 C 152.49 240.82 152.83 241.77 153.63 242.15 Z M 154.56 242.59 L 155.49 243.02 C 156.29 243.39 157.24 243.05 157.62 242.25 C 157.99 241.45 157.64 240.50 156.84 240.13 L 155.91 239.69 C 155.11 239.32 154.16 239.66 153.78 240.46 C 153.41 241.26 153.76 242.21 154.56 242.59 Z M 155.50 243.02 L 156.41 243.45 C 157.21 243.82 158.16 243.47 158.53 242.67 C 158.90 241.87 158.55 240.91 157.75 240.54 L 156.84 240.12 C 156.04 239.75 155.09 240.10 154.72 240.90 C 154.35 241.70 154.69 242.65 155.50 243.02 Z M 156.41 243.45 L 157.29 243.85 C 158.10 244.22 159.04 243.87 159.41 243.06 C 159.78 242.26 159.43 241.31 158.63 240.94 L 157.75 240.54 C 156.94 240.17 155.99 240.53 155.62 241.33 C 155.26 242.13 155.61 243.08 156.41 243.45 Z M 157.30 243.86 L 158.19 244.26 C 158.99 244.63 159.94 244.27 160.31 243.46 C 160.67 242.66 160.32 241.71 159.51 241.34 L 158.62 240.94 C 157.81 240.57 156.87 240.93 156.50 241.74 C 156.13 242.54 156.49 243.49 157.30 243.86 Z M 158.19 244.26 L 159.10 244.67 C 159.90 245.03 160.85 244.67 161.22 243.86 C 161.58 243.06 161.22 242.11 160.41 241.75 L 159.51 241.34 C 158.70 240.98 157.75 241.34 157.39 242.15 C 157.03 242.95 157.39 243.90 158.19 244.26 Z M 159.10 244.67 L 160.02 245.08 C 160.83 245.44 161.77 245.07 162.13 244.26 C 162.49 243.45 162.13 242.51 161.32 242.15 L 160.40 241.74 C 159.59 241.38 158.65 241.75 158.29 242.56 C 157.93 243.37 158.29 244.32 159.10 244.67 Z M 160.02 245.08 L 160.95 245.49 C 161.76 245.84 162.71 245.48 163.06 244.66 C 163.42 243.85 163.05 242.90 162.24 242.55 L 161.31 242.14 C 160.50 241.79 159.55 242.16 159.20 242.97 C 158.84 243.78 159.21 244.73 160.02 245.08 Z M 160.96 245.49 L 161.89 245.90 C 162.71 246.25 163.65 245.88 164.00 245.06 C 164.36 244.25 163.98 243.30 163.17 242.95 L 162.23 242.54 C 161.42 242.19 160.47 242.57 160.12 243.38 C 159.77 244.20 160.14 245.14 160.96 245.49 Z M 161.90 245.90 L 162.84 246.31 C 163.66 246.65 164.61 246.27 164.95 245.46 C 165.30 244.64 164.92 243.70 164.11 243.35 L 163.16 242.94 C 162.34 242.60 161.40 242.98 161.05 243.79 C 160.70 244.61 161.08 245.55 161.90 245.90 Z M 162.85 246.31 L 163.79 246.70 C 164.61 247.05 165.55 246.66 165.89 245.84 C 166.24 245.02 165.85 244.08 165.03 243.74 L 164.10 243.34 C 163.28 243.00 162.34 243.38 161.99 244.20 C 161.65 245.02 162.03 245.97 162.85 246.31 Z M 163.79 246.71 L 164.70 247.08 C 165.52 247.42 166.46 247.03 166.80 246.21 C 167.14 245.39 166.75 244.45 165.93 244.11 L 165.02 243.73 C 164.20 243.39 163.26 243.78 162.92 244.60 C 162.58 245.42 162.97 246.37 163.79 246.71 Z M 164.70 247.08 L 165.61 247.45 C 166.44 247.79 167.38 247.39 167.71 246.57 C 168.05 245.75 167.65 244.81 166.83 244.47 L 165.92 244.10 C 165.10 243.77 164.16 244.16 163.82 244.98 C 163.49 245.81 163.88 246.75 164.70 247.08 Z M 165.62 247.46 L 166.54 247.83 C 167.36 248.16 168.30 247.76 168.63 246.93 C 168.96 246.11 168.56 245.17 167.74 244.84 L 166.82 244.47 C 166.00 244.14 165.06 244.54 164.73 245.36 C 164.40 246.19 164.80 247.12 165.62 247.46 Z M 166.55 247.83 L 167.47 248.20 C 168.30 248.52 169.23 248.12 169.56 247.29 C 169.89 246.47 169.49 245.53 168.66 245.21 L 167.73 244.84 C 166.91 244.51 165.97 244.91 165.65 245.74 C 165.32 246.57 165.72 247.50 166.55 247.83 Z M 167.48 248.20 L 168.42 248.56 C 169.24 248.89 170.17 248.48 170.50 247.65 C 170.82 246.83 170.41 245.89 169.59 245.57 L 168.65 245.20 C 167.83 244.88 166.89 245.29 166.57 246.12 C 166.25 246.94 166.65 247.87 167.48 248.20 Z M 168.42 248.57 L 169.37 248.93 C 170.19 249.25 171.12 248.84 171.44 248.01 C 171.76 247.18 171.35 246.25 170.52 245.93 L 169.58 245.57 C 168.75 245.25 167.82 245.66 167.50 246.49 C 167.18 247.32 167.60 248.25 168.42 248.57 Z M 169.37 248.93 L 170.32 249.29 C 171.15 249.61 172.08 249.20 172.40 248.37 C 172.71 247.54 172.30 246.61 171.47 246.29 L 170.52 245.93 C 169.69 245.61 168.76 246.03 168.44 246.86 C 168.13 247.69 168.54 248.62 169.37 248.93 Z M 170.33 249.30 L 171.29 249.66 C 172.12 249.97 173.04 249.55 173.35 248.72 C 173.67 247.89 173.25 246.97 172.42 246.65 L 171.46 246.29 C 170.63 245.98 169.71 246.40 169.39 247.23 C 169.08 248.06 169.50 248.98 170.33 249.30 Z M 171.29 249.66 L 172.22 250.01 C 173.05 250.32 173.98 249.89 174.29 249.06 C 174.60 248.23 174.17 247.31 173.34 247.00 L 172.41 246.65 C 171.58 246.34 170.66 246.76 170.35 247.59 C 170.04 248.43 170.46 249.35 171.29 249.66 Z M 172.23 250.01 L 173.15 250.35 C 173.98 250.66 174.90 250.23 175.21 249.40 C 175.52 248.56 175.09 247.64 174.26 247.33 L 173.34 246.99 C 172.50 246.69 171.58 247.11 171.27 247.95 C 170.97 248.78 171.39 249.70 172.23 250.01 Z M 173.15 250.35 L 174.08 250.69 C 174.91 251.00 175.84 250.56 176.14 249.73 C 176.45 248.89 176.02 247.97 175.18 247.66 L 174.25 247.33 C 173.42 247.02 172.49 247.45 172.19 248.29 C 171.89 249.12 172.32 250.05 173.15 250.35 Z M 174.08 250.69 L 175.02 251.03 C 175.85 251.33 176.78 250.90 177.08 250.06 C 177.38 249.22 176.95 248.30 176.11 248.00 L 175.18 247.66 C 174.34 247.36 173.41 247.79 173.11 248.63 C 172.81 249.47 173.24 250.39 174.08 250.69 Z M 175.02 251.03 L 175.96 251.37 C 176.80 251.67 177.72 251.23 178.02 250.39 C 178.32 249.55 177.88 248.63 177.04 248.33 L 176.11 247.99 C 175.27 247.69 174.34 248.13 174.04 248.97 C 173.74 249.81 174.18 250.73 175.02 251.03 Z M 175.96 251.37 L 176.91 251.71 C 177.75 252.01 178.67 251.57 178.97 250.72 C 179.27 249.88 178.83 248.96 177.99 248.66 L 177.04 248.33 C 176.20 248.03 175.28 248.47 174.98 249.31 C 174.68 250.15 175.12 251.08 175.96 251.37 Z M 176.91 251.71 L 177.86 252.05 C 178.71 252.34 179.63 251.90 179.93 251.05 C 180.22 250.21 179.78 249.29 178.94 248.99 L 177.98 248.66 C 177.14 248.36 176.22 248.80 175.92 249.65 C 175.62 250.49 176.07 251.42 176.91 251.71 Z M 177.87 252.05 L 178.83 252.38 C 179.67 252.68 180.59 252.23 180.89 251.39 C 181.18 250.54 180.74 249.62 179.89 249.32 L 178.93 248.99 C 178.09 248.69 177.16 249.14 176.87 249.99 C 176.57 250.83 177.02 251.76 177.87 252.05 Z M 178.83 252.39 L 179.79 252.72 C 180.64 253.01 181.56 252.56 181.86 251.72 C 182.15 250.87 181.70 249.94 180.85 249.65 L 179.89 249.32 C 179.04 249.03 178.12 249.47 177.82 250.32 C 177.53 251.17 177.98 252.09 178.83 252.39 Z M 179.80 252.72 L 180.77 253.06 C 181.62 253.35 182.54 252.90 182.83 252.05 C 183.13 251.20 182.67 250.27 181.82 249.98 L 180.85 249.65 C 180.00 249.36 179.08 249.81 178.79 250.66 C 178.49 251.51 178.95 252.43 179.80 252.72 Z M 180.77 253.06 L 181.75 253.39 C 182.60 253.68 183.53 253.23 183.82 252.38 C 184.11 251.53 183.65 250.60 182.80 250.31 L 181.82 249.98 C 180.97 249.69 180.05 250.14 179.76 250.99 C 179.47 251.85 179.92 252.77 180.77 253.06 Z M 181.75 253.40 L 182.73 253.73 C 183.58 254.02 184.51 253.56 184.80 252.71 C 185.09 251.86 184.63 250.93 183.78 250.64 L 182.80 250.31 C 181.95 250.02 181.02 250.48 180.73 251.33 C 180.44 252.18 180.90 253.11 181.75 253.40 Z M 182.73 253.73 L 183.71 254.06 C 184.56 254.35 185.49 253.89 185.78 253.04 C 186.06 252.18 185.61 251.26 184.75 250.97 L 183.78 250.64 C 182.92 250.35 182.00 250.81 181.71 251.66 C 181.42 252.52 181.88 253.44 182.73 253.73 Z M 183.71 254.06 L 184.68 254.39 C 185.53 254.68 186.46 254.21 186.75 253.36 C 187.03 252.50 186.57 251.58 185.72 251.29 L 184.75 250.97 C 183.89 250.68 182.97 251.14 182.68 252.00 C 182.39 252.85 182.86 253.78 183.71 254.06 Z M 184.68 254.39 L 185.64 254.71 C 186.49 255.00 187.42 254.53 187.70 253.68 C 187.99 252.82 187.53 251.89 186.67 251.61 L 185.72 251.29 C 184.86 251.00 183.93 251.47 183.65 252.32 C 183.36 253.18 183.82 254.10 184.68 254.39 Z M 185.64 254.71 L 186.58 255.02 C 187.43 255.31 188.36 254.85 188.65 253.99 C 188.93 253.13 188.47 252.20 187.61 251.92 L 186.67 251.61 C 185.81 251.32 184.89 251.78 184.60 252.64 C 184.31 253.50 184.78 254.43 185.64 254.71 Z M 186.58 255.03 L 187.50 255.33 C 188.36 255.62 189.28 255.15 189.57 254.29 C 189.85 253.43 189.39 252.50 188.53 252.22 L 187.61 251.92 C 186.75 251.63 185.82 252.10 185.54 252.96 C 185.25 253.82 185.72 254.74 186.58 255.03 Z M 187.50 255.33 L 188.40 255.63 C 189.26 255.91 190.18 255.44 190.47 254.58 C 190.75 253.72 190.28 252.80 189.42 252.51 L 188.53 252.22 C 187.67 251.93 186.74 252.40 186.45 253.26 C 186.17 254.12 186.64 255.05 187.50 255.33 Z M 188.40 255.63 L 189.35 255.94 C 190.21 256.23 191.14 255.76 191.43 254.90 C 191.71 254.03 191.24 253.11 190.38 252.82 L 189.42 252.51 C 188.56 252.23 187.63 252.70 187.35 253.56 C 187.07 254.42 187.54 255.35 188.40 255.63 Z M 189.35 255.95 L 190.39 256.28 C 191.25 256.57 192.18 256.09 192.46 255.23 C 192.74 254.37 192.27 253.44 191.41 253.16 L 190.37 252.82 C 189.51 252.54 188.58 253.01 188.30 253.87 C 188.02 254.74 188.49 255.67 189.35 255.95 Z M 190.39 256.29 L 191.39 256.61 C 192.25 256.89 193.18 256.42 193.46 255.55 C 193.74 254.69 193.27 253.76 192.40 253.48 L 191.41 253.16 C 190.54 252.88 189.61 253.35 189.33 254.21 C 189.05 255.08 189.53 256.01 190.39 256.29 Z M 191.39 256.61 L 192.35 256.92 C 193.22 257.20 194.15 256.72 194.43 255.86 C 194.70 254.99 194.23 254.07 193.36 253.79 L 192.40 253.48 C 191.53 253.20 190.61 253.67 190.33 254.54 C 190.05 255.41 190.53 256.33 191.39 256.61 Z M 192.36 256.92 L 193.29 257.22 C 194.16 257.50 195.09 257.02 195.36 256.15 C 195.64 255.29 195.16 254.36 194.29 254.08 L 193.36 253.78 C 192.49 253.51 191.57 253.99 191.29 254.85 C 191.01 255.72 191.49 256.65 192.36 256.92 Z M 193.29 257.22 L 194.21 257.51 C 195.07 257.79 196.00 257.31 196.27 256.44 C 196.55 255.57 196.07 254.64 195.20 254.37 L 194.29 254.08 C 193.42 253.81 192.49 254.29 192.22 255.15 C 191.95 256.02 192.43 256.95 193.29 257.22 Z M 194.21 257.51 L 195.10 257.80 C 195.97 258.07 196.90 257.58 197.17 256.71 C 197.44 255.84 196.96 254.92 196.09 254.65 L 195.20 254.37 C 194.33 254.09 193.40 254.58 193.13 255.45 C 192.86 256.32 193.34 257.24 194.21 257.51 Z M 195.11 257.80 L 196.00 258.07 C 196.87 258.34 197.79 257.86 198.06 256.99 C 198.33 256.12 197.85 255.19 196.98 254.92 L 196.09 254.64 C 195.21 254.37 194.29 254.86 194.02 255.73 C 193.75 256.60 194.24 257.53 195.11 257.80 Z M 196.00 258.08 L 196.98 258.38 C 197.85 258.65 198.77 258.15 199.04 257.28 C 199.31 256.41 198.82 255.48 197.95 255.22 L 196.97 254.92 C 196.10 254.65 195.17 255.14 194.91 256.01 C 194.64 256.88 195.13 257.81 196.00 258.08 Z M 196.98 258.38 L 197.95 258.67 C 198.83 258.94 199.75 258.44 200.02 257.57 C 200.28 256.69 199.78 255.77 198.91 255.50 L 197.94 255.21 C 197.07 254.95 196.14 255.44 195.88 256.32 C 195.61 257.19 196.11 258.12 196.98 258.38 Z M 197.96 258.68 L 198.92 258.96 C 199.80 259.22 200.72 258.72 200.98 257.84 C 201.24 256.97 200.74 256.04 199.86 255.78 L 198.90 255.50 C 198.02 255.24 197.10 255.74 196.84 256.62 C 196.58 257.50 197.08 258.42 197.96 258.68 Z M 198.93 258.97 L 199.89 259.24 C 200.77 259.50 201.69 258.99 201.94 258.11 C 202.20 257.23 201.69 256.31 200.81 256.05 L 199.85 255.78 C 198.97 255.52 198.05 256.03 197.80 256.91 C 197.54 257.80 198.05 258.72 198.93 258.97 Z M 199.90 259.25 L 200.86 259.52 C 201.74 259.76 202.66 259.24 202.90 258.36 C 203.15 257.48 202.63 256.56 201.75 256.31 L 200.79 256.05 C 199.91 255.80 198.99 256.32 198.75 257.20 C 198.50 258.09 199.02 259.00 199.90 259.25 Z M 200.87 259.52 L 201.82 259.78 C 202.71 260.01 203.63 259.49 203.86 258.60 C 204.10 257.71 203.57 256.80 202.68 256.56 L 201.73 256.31 C 200.84 256.07 199.93 256.60 199.69 257.48 C 199.46 258.37 199.99 259.28 200.87 259.52 Z M 201.84 259.78 L 202.81 260.03 C 203.70 260.26 204.60 259.72 204.83 258.83 C 205.06 257.93 204.52 257.03 203.63 256.80 L 202.67 256.55 C 201.77 256.33 200.87 256.87 200.64 257.76 C 200.41 258.65 200.95 259.56 201.84 259.78 Z M 202.83 260.03 L 203.80 260.27 C 204.69 260.49 205.59 259.94 205.81 259.04 C 206.03 258.15 205.48 257.25 204.58 257.03 L 203.61 256.79 C 202.71 256.58 201.81 257.13 201.60 258.02 C 201.38 258.92 201.93 259.82 202.83 260.03 Z M 203.82 260.27 L 204.79 260.50 C 205.69 260.70 206.58 260.14 206.79 259.25 C 207.00 258.35 206.44 257.45 205.54 257.25 L 204.56 257.03 C 203.67 256.82 202.77 257.38 202.57 258.28 C 202.36 259.17 202.92 260.07 203.82 260.27 Z M 204.81 260.50 L 205.79 260.71 C 206.69 260.91 207.58 260.34 207.77 259.44 C 207.97 258.54 207.40 257.65 206.50 257.46 L 205.52 257.24 C 204.62 257.05 203.73 257.62 203.54 258.52 C 203.34 259.42 203.91 260.31 204.81 260.50 Z M 205.81 260.72 L 206.79 260.92 C 207.69 261.10 208.57 260.52 208.75 259.62 C 208.94 258.72 208.36 257.84 207.46 257.65 L 206.48 257.45 C 205.58 257.27 204.70 257.85 204.51 258.75 C 204.33 259.65 204.91 260.53 205.81 260.72 Z M 206.80 260.92 L 207.78 261.11 C 208.69 261.28 209.56 260.69 209.74 259.79 C 209.91 258.89 209.32 258.02 208.42 257.84 L 207.44 257.65 C 206.53 257.48 205.66 258.07 205.49 258.97 C 205.31 259.87 205.90 260.75 206.80 260.92 Z M 207.80 261.11 L 208.79 261.29 C 209.69 261.46 210.56 260.86 210.72 259.95 C 210.89 259.05 210.29 258.18 209.38 258.02 L 208.40 257.84 C 207.50 257.67 206.63 258.27 206.46 259.18 C 206.30 260.08 206.90 260.95 207.80 261.11 Z M 208.80 261.30 L 209.79 261.47 C 210.70 261.62 211.56 261.02 211.72 260.11 C 211.87 259.20 211.27 258.34 210.36 258.18 L 209.37 258.01 C 208.46 257.86 207.60 258.47 207.44 259.37 C 207.29 260.28 207.90 261.14 208.80 261.30 Z M 209.81 261.47 L 210.80 261.63 C 211.71 261.78 212.57 261.16 212.71 260.25 C 212.86 259.35 212.24 258.49 211.34 258.34 L 210.34 258.18 C 209.43 258.03 208.58 258.65 208.43 259.56 C 208.28 260.47 208.90 261.32 209.81 261.47 Z M 210.82 261.64 L 211.81 261.79 C 212.72 261.93 213.57 261.30 213.71 260.39 C 213.85 259.48 213.22 258.63 212.31 258.49 L 211.32 258.34 C 210.41 258.20 209.56 258.82 209.42 259.74 C 209.28 260.65 209.91 261.50 210.82 261.64 Z M 211.82 261.79 L 212.82 261.93 C 213.73 262.06 214.58 261.43 214.71 260.52 C 214.84 259.60 214.20 258.76 213.29 258.63 L 212.30 258.48 C 211.38 258.35 210.54 258.99 210.41 259.90 C 210.28 260.82 210.91 261.66 211.82 261.79 Z M 212.83 261.94 L 213.82 262.07 C 214.73 262.19 215.57 261.55 215.70 260.63 C 215.82 259.72 215.18 258.88 214.26 258.75 L 213.27 258.62 C 212.36 258.50 211.52 259.14 211.39 260.06 C 211.27 260.97 211.91 261.82 212.83 261.94 Z M 213.83 262.07 L 214.82 262.19 C 215.73 262.31 216.57 261.66 216.68 260.74 C 216.80 259.82 216.15 258.99 215.23 258.87 L 214.24 258.75 C 213.33 258.64 212.49 259.29 212.38 260.21 C 212.26 261.12 212.92 261.96 213.83 262.07 Z M 214.83 262.20 L 215.83 262.31 C 216.75 262.42 217.58 261.76 217.68 260.84 C 217.79 259.92 217.13 259.09 216.21 258.98 L 215.21 258.87 C 214.29 258.76 213.46 259.42 213.36 260.34 C 213.25 261.26 213.91 262.09 214.83 262.20 Z M 215.84 262.31 L 216.84 262.42 C 217.76 262.51 218.58 261.85 218.68 260.93 C 218.78 260.01 218.11 259.18 217.19 259.09 L 216.19 258.98 C 215.27 258.89 214.45 259.55 214.35 260.47 C 214.26 261.39 214.92 262.22 215.84 262.31 Z M 216.85 262.42 L 217.85 262.51 C 218.77 262.60 219.58 261.93 219.67 261.01 C 219.76 260.09 219.09 259.27 218.17 259.18 L 217.17 259.09 C 216.25 259.00 215.44 259.67 215.35 260.59 C 215.26 261.51 215.93 262.33 216.85 262.42 Z M 217.86 262.51 L 218.85 262.60 C 219.77 262.68 220.58 262.00 220.66 261.08 C 220.74 260.16 220.06 259.35 219.15 259.27 L 218.15 259.18 C 217.23 259.10 216.42 259.78 216.34 260.70 C 216.26 261.62 216.94 262.43 217.86 262.51 Z M 218.87 262.60 L 219.86 262.68 C 220.78 262.75 221.59 262.06 221.66 261.14 C 221.73 260.22 221.04 259.42 220.13 259.35 L 219.13 259.27 C 218.21 259.20 217.41 259.88 217.33 260.80 C 217.26 261.72 217.95 262.53 218.87 262.60 Z M 219.88 262.68 L 220.87 262.75 C 221.79 262.81 222.59 262.12 222.66 261.20 C 222.72 260.28 222.03 259.48 221.11 259.42 L 220.11 259.35 C 219.19 259.28 218.39 259.98 218.33 260.89 C 218.26 261.81 218.96 262.61 219.88 262.68 Z M 220.89 262.75 L 221.92 262.81 C 222.83 262.87 223.63 262.17 223.69 261.25 C 223.74 260.33 223.05 259.54 222.13 259.48 L 221.10 259.42 C 220.18 259.36 219.38 260.06 219.33 260.98 C 219.27 261.90 219.97 262.69 220.89 262.75 Z M 221.93 262.81 L 222.98 262.87 C 223.90 262.93 224.69 262.22 224.74 261.30 C 224.79 260.38 224.09 259.59 223.17 259.54 L 222.11 259.48 C 221.19 259.43 220.41 260.13 220.35 261.06 C 220.30 261.98 221.01 262.76 221.93 262.81 Z M 222.99 262.88 L 224.03 262.93 C 224.95 262.97 225.73 262.26 225.78 261.34 C 225.82 260.42 225.12 259.64 224.19 259.59 L 223.16 259.54 C 222.23 259.49 221.45 260.20 221.40 261.13 C 221.36 262.05 222.07 262.83 222.99 262.88 Z M 224.04 262.93 L 225.05 262.97 C 225.98 263.01 226.75 262.30 226.80 261.38 C 226.84 260.45 226.12 259.67 225.20 259.63 L 224.18 259.59 C 223.26 259.55 222.48 260.27 222.44 261.19 C 222.40 262.11 223.12 262.89 224.04 262.93 Z M 225.06 262.97 L 226.04 263.01 C 226.96 263.05 227.74 262.33 227.77 261.40 C 227.81 260.48 227.09 259.70 226.17 259.67 L 225.19 259.63 C 224.27 259.60 223.49 260.32 223.46 261.24 C 223.42 262.16 224.14 262.94 225.06 262.97 Z M 226.05 263.01 L 226.98 263.04 C 227.90 263.07 228.67 262.34 228.70 261.42 C 228.73 260.50 228.00 259.73 227.08 259.70 L 226.16 259.67 C 225.23 259.64 224.46 260.36 224.43 261.29 C 224.40 262.21 225.13 262.98 226.05 263.01 Z M 226.99 263.04 L 228.06 263.07 C 228.98 263.09 229.75 262.36 229.77 261.44 C 229.79 260.51 229.06 259.75 228.14 259.72 L 227.07 259.70 C 226.15 259.67 225.38 260.41 225.36 261.33 C 225.33 262.25 226.07 263.02 226.99 263.04 Z M 228.07 263.07 L 229.16 263.08 C 230.08 263.10 230.84 262.36 230.86 261.44 C 230.87 260.52 230.14 259.76 229.21 259.74 L 228.13 259.72 C 227.20 259.71 226.44 260.45 226.43 261.37 C 226.41 262.29 227.15 263.05 228.07 263.07 Z M 229.17 263.08 L 230.16 263.09 C 231.08 263.10 231.83 262.36 231.84 261.43 C 231.85 260.51 231.11 259.76 230.19 259.75 L 229.20 259.74 C 228.28 259.74 227.53 260.48 227.52 261.40 C 227.51 262.32 228.25 263.07 229.17 263.08 Z M 230.17 263.09 L 231.07 263.09 C 231.99 263.09 232.74 262.35 232.74 261.43 C 232.74 260.51 232.00 259.76 231.08 259.76 L 230.18 259.75 C 229.26 259.75 228.51 260.50 228.51 261.42 C 228.51 262.34 229.25 263.08 230.17 263.09 Z M 231.08 263.09 L 231.99 263.09 C 232.91 263.09 233.65 262.34 233.65 261.42 C 233.65 260.50 232.91 259.76 231.99 259.76 L 231.08 259.76 C 230.16 259.76 229.41 260.50 229.41 261.42 C 229.41 262.34 230.16 263.09 231.08 263.09 Z M 232.03 263.09 L 233.00 263.06 C 233.92 263.04 234.65 262.27 234.63 261.36 C 234.60 260.44 233.84 259.71 232.92 259.73 L 231.95 259.76 C 231.03 259.78 230.30 260.54 230.32 261.46 C 230.35 262.38 231.11 263.11 232.03 263.09 Z M 233.14 263.06 L 234.10 262.95 C 235.02 262.86 235.68 262.04 235.59 261.12 C 235.49 260.21 234.67 259.54 233.75 259.64 L 232.79 259.74 C 231.87 259.84 231.21 260.66 231.30 261.57 C 231.40 262.49 232.22 263.15 233.14 263.06 Z M 234.31 262.92 L 235.32 262.69 C 236.22 262.48 236.78 261.58 236.57 260.69 C 236.36 259.79 235.47 259.23 234.57 259.43 L 233.55 259.67 C 232.65 259.88 232.09 260.77 232.30 261.67 C 232.51 262.57 233.41 263.13 234.31 262.92 Z M 235.50 262.63 L 236.36 262.33 C 237.22 262.02 237.68 261.07 237.37 260.20 C 237.06 259.33 236.10 258.88 235.24 259.19 L 234.38 259.49 C 233.52 259.80 233.06 260.75 233.37 261.62 C 233.68 262.49 234.64 262.94 235.50 262.63 Z M 236.46 262.28 L 237.35 261.89 C 238.19 261.53 238.58 260.54 238.21 259.70 C 237.84 258.86 236.86 258.47 236.02 258.84 L 235.13 259.23 C 234.29 259.60 233.90 260.58 234.27 261.43 C 234.64 262.27 235.62 262.65 236.46 262.28 Z M 237.42 261.86 L 238.34 261.41 C 239.16 261.00 239.50 260.01 239.10 259.18 C 238.69 258.36 237.70 258.02 236.88 258.43 L 235.95 258.88 C 235.13 259.28 234.79 260.28 235.19 261.10 C 235.60 261.92 236.59 262.26 237.42 261.86 Z M 238.37 261.39 L 239.31 260.90 C 240.13 260.47 240.44 259.47 240.02 258.66 C 239.60 257.85 238.60 257.53 237.78 257.96 L 236.84 258.45 C 236.03 258.87 235.71 259.87 236.14 260.68 C 236.56 261.49 237.56 261.81 238.37 261.39 Z M 239.32 260.89 L 239.81 260.63 C 240.62 260.20 240.92 259.20 240.50 258.39 C 240.07 257.59 239.07 257.28 238.26 257.71 L 237.77 257.96 C 236.97 258.39 236.66 259.39 237.09 260.20 C 237.52 261.01 238.52 261.31 239.32 260.89 Z"
      fill="black"
      fill-rule="nonzero" /></svg>