<svg xmlns="http://www.w3.org/2000/svg" width="300" height="300" viewBox="0 0 300 300">
<path d="M 116.09 118.81 L 116.09 119.81 C 116.09 120.76 116.87 121.53 117.82 121.53 C 118.78 121.53 119.55 120.76 119.55 119.81 L 119.55 118.81 C 119.55 117.86 118.78 117.08 117.82 117.08 C 116.87 117.08 116.09 117.86 116.09 118.81 Z M 116.10 119.81 L 116.10 120.80 C 116.10 121.75 116.87 122.52 117.82 122.52 C 118.77 122.52 119.54 121.75 119.54 120.80 L 119.54 119.81 C 119.54 118.85 118.77 118.08 117.82 118.08 C 116.87 118.08 116.10 118.85 116.10 119.81 Z M 116.10 120.80 L 116.10 121.80 C 116.10 122.75 116.87 123.52 117.82 123.52 C 118.77 123.52 119.54 122.75 119.54 121.80 L 119.54 120.80 C 119.54 119.85 118.77 119.08 117.82 119.08 C 116.87 119.08 116.10 119.85 116.10 120.80 Z M 116.11 121.80 L 116.11 122.79 C 116.11 123.74 116.87 124.51 117.82 124.51 C 118.77 124.51 119.54 123.74 119.54 122.79 L 119.54 121.80 C 119.54 120.85 118.77 120.08 117.82 120.08 C 116.87 120.08 116.11 120.85 116.11 121.80 Z M 116.11 122.79 L 116.11 123.79 C 116.11 124.74 116.88 125.51 117.82 125.51 C 118.77 125.51 119.53 124.74 119.53 123.79 L 119.53 122.79 C 119.53 121.85 118.77 121.08 117.82 121.08 C 116.88 121.08 116.11 121.85 116.11 122.79 Z M 116.11 123.79 L 116.11 124.80 C 116.11 125.74 116.88 126.50 117.82 126.50 C 118.77 126.50 119.53 125.74 119.53 124.80 L 119.53 123.79 C 119.53 122.85 118.77 122.08 117.82 122.08 C 116.88 122.08 116.11 122.85 116.11 123.79 Z M 116.12 124.80 L 116.12 125.80 C 116.12 126.74 116.88 127.51 117.82 127.51 C 118.76 127.51 119.53 126.74 119.53 125.80 L 119.53 124.80 C 119.53 123.85 118.76 123.09 117.82 123.09 C 116.88 123.09 116.12 123.85 116.12 124.80 Z M 116.12 125.80 L 116.12 126.81 C 116.12 127.75 116.88 128.51 117.82 128.51 C 118.76 128.51 119.52 127.75 119.52 126.81 L 119.52 125.80 C 119.52 124.86 118.76 124.10 117.82 124.10 C 116.88 124.10 116.12 124.86 116.12 125.80 Z M 116.12 126.81 L 116.12 127.81 C 116.12 128.75 116.88 129.51 117.82 129.51 C 118.76 129.51 119.52 128.75 119.52 127.81 L 119.52 126.81 C 119.52 125.87 118.76 125.11 117.82 125.11 C 116.88 125.11 116.12 125.87 116.12 126.81 Z M 116.13 127.81 L 116.13 128.81 C 116.13 129.74 116.88 130.50 117.82 130.50 C 118.76 130.50 119.52 129.74 119.52 128.81 L 119.52 127.81 C 119.52 126.87 118.76 126.11 117.82 126.11 C 116.89 126.11 116.13 126.87 116.13 127.81 Z M 116.13 128.80 L 116.13 129.81 C 116.13 130.74 116.88 131.50 117.82 131.50 C 118.75 131.50 119.51 130.74 119.51 129.81 L 119.51 128.81 C 119.52 127.87 118.76 127.11 117.82 127.11 C 116.89 127.11 116.13 127.87 116.13 128.80 Z M 116.13 129.80 L 116.13 130.81 C 116.12 131.74 116.88 132.50 117.81 132.50 C 118.75 132.50 119.51 131.75 119.51 130.81 L 119.51 129.81 C 119.51 128.88 118.76 128.12 117.82 128.12 C 116.89 128.11 116.13 128.87 116.13 129.80 Z M 116.13 130.80 L 116.13 131.80 C 116.12 132.74 116.87 133.50 117.81 133.50 C 118.74 133.50 119.50 132.75 119.50 131.82 L 119.51 130.82 C 119.51 129.88 118.76 129.12 117.82 129.12 C 116.89 129.12 116.13 129.87 116.13 130.80 Z M 116.13 131.80 L 116.12 132.80 C 116.12 133.73 116.87 134.49 117.80 134.50 C 118.73 134.51 119.49 133.76 119.49 132.82 L 119.50 131.82 C 119.51 130.89 118.76 130.13 117.82 130.13 C 116.89 130.12 116.13 130.87 116.13 131.80 Z M 116.12 132.80 L 116.12 133.80 C 116.11 134.73 116.85 135.49 117.78 135.50 C 118.71 135.51 119.47 134.76 119.48 133.83 L 119.49 132.83 C 119.50 131.90 118.75 131.14 117.82 131.13 C 116.89 131.12 116.13 131.87 116.12 132.80 Z M 116.12 133.79 L 116.11 134.79 C 116.10 135.72 116.84 136.48 117.77 136.49 C 118.70 136.50 119.46 135.76 119.47 134.83 L 119.48 133.83 C 119.49 132.91 118.75 132.14 117.82 132.13 C 116.89 132.12 116.13 132.87 116.12 133.79 Z M 116.11 134.79 L 116.09 135.79 C 116.08 136.71 116.82 137.48 117.75 137.49 C 118.67 137.51 119.44 136.77 119.45 135.84 L 119.47 134.84 C 119.48 133.91 118.74 133.15 117.81 133.13 C 116.89 133.12 116.12 133.86 116.11 134.79 Z M 116.09 135.78 L 116.07 136.79 C 116.06 137.71 116.79 138.48 117.72 138.49 C 118.65 138.51 119.41 137.78 119.43 136.85 L 119.45 135.84 C 119.47 134.92 118.73 134.15 117.80 134.13 C 116.88 134.12 116.11 134.85 116.09 135.78 Z M 116.08 136.78 L 116.05 137.78 C 116.03 138.71 116.77 139.48 117.69 139.50 C 118.62 139.52 119.39 138.78 119.41 137.86 L 119.43 136.86 C 119.45 135.93 118.72 135.16 117.79 135.14 C 116.86 135.12 116.10 135.85 116.08 136.78 Z M 116.05 137.78 L 116.03 138.77 C 116.00 139.70 116.73 140.47 117.66 140.50 C 118.59 140.52 119.36 139.79 119.38 138.86 L 119.41 137.86 C 119.43 136.94 118.70 136.17 117.77 136.14 C 116.85 136.12 116.08 136.85 116.05 137.78 Z M 116.03 138.77 L 116.00 139.77 C 115.97 140.69 116.70 141.47 117.63 141.49 C 118.55 141.52 119.33 140.79 119.35 139.86 L 119.38 138.87 C 119.41 137.94 118.68 137.17 117.75 137.14 C 116.83 137.11 116.05 137.84 116.03 138.77 Z M 116.00 139.76 L 115.97 140.76 C 115.94 141.69 116.66 142.46 117.59 142.49 C 118.52 142.52 119.29 141.79 119.32 140.87 L 119.35 139.87 C 119.38 138.94 118.65 138.17 117.73 138.14 C 116.80 138.11 116.03 138.84 116.00 139.76 Z M 115.97 140.76 L 115.93 141.75 C 115.90 142.68 116.62 143.46 117.55 143.49 C 118.48 143.52 119.25 142.79 119.29 141.87 L 119.32 140.87 C 119.35 139.95 118.63 139.17 117.70 139.14 C 116.78 139.10 116.00 139.83 115.97 140.76 Z M 115.93 141.75 L 115.90 142.75 C 115.86 143.67 116.58 144.45 117.51 144.48 C 118.44 144.52 119.21 143.80 119.25 142.87 L 119.29 141.87 C 119.32 140.95 118.60 140.17 117.67 140.13 C 116.74 140.10 115.97 140.82 115.93 141.75 Z M 115.90 142.74 L 115.86 143.74 C 115.82 144.67 116.54 145.45 117.47 145.48 C 118.39 145.52 119.17 144.80 119.21 143.87 L 119.25 142.87 C 119.28 141.95 118.56 141.17 117.64 141.13 C 116.71 141.10 115.93 141.82 115.90 142.74 Z M 115.86 143.74 L 115.82 144.73 C 115.78 145.65 116.50 146.43 117.42 146.47 C 118.35 146.51 119.13 145.79 119.17 144.86 L 119.21 143.87 C 119.25 142.95 118.53 142.17 117.60 142.13 C 116.68 142.09 115.89 142.81 115.86 143.74 Z M 115.82 144.72 L 115.77 145.71 C 115.73 146.64 116.45 147.42 117.38 147.46 C 118.30 147.50 119.09 146.78 119.13 145.86 L 119.17 144.87 C 119.21 143.94 118.49 143.16 117.56 143.12 C 116.64 143.08 115.86 143.80 115.82 144.72 Z M 115.77 145.71 L 115.73 146.70 C 115.69 147.63 116.40 148.41 117.33 148.46 C 118.25 148.50 119.04 147.78 119.08 146.86 L 119.13 145.86 C 119.17 144.94 118.45 144.15 117.53 144.11 C 116.60 144.07 115.82 144.79 115.77 145.71 Z M 115.73 146.70 L 115.68 147.70 C 115.64 148.62 116.35 149.41 117.28 149.45 C 118.20 149.50 118.99 148.78 119.03 147.86 L 119.08 146.86 C 119.12 145.93 118.41 145.15 117.48 145.10 C 116.56 145.06 115.77 145.77 115.73 146.70 Z M 115.68 147.69 L 115.63 148.69 C 115.58 149.62 116.30 150.40 117.22 150.45 C 118.15 150.50 118.94 149.79 118.98 148.86 L 119.03 147.86 C 119.08 146.94 118.37 146.15 117.44 146.10 C 116.52 146.05 115.73 146.77 115.68 147.69 Z M 115.63 148.69 L 115.58 149.69 C 115.53 150.61 116.24 151.40 117.16 151.45 C 118.09 151.50 118.88 150.79 118.93 149.87 L 118.98 148.86 C 119.03 147.94 118.32 147.15 117.40 147.10 C 116.47 147.05 115.68 147.76 115.63 148.69 Z M 115.58 149.68 L 115.52 150.69 C 115.47 151.61 116.18 152.41 117.10 152.46 C 118.03 152.51 118.82 151.80 118.87 150.88 L 118.93 149.87 C 118.98 148.95 118.27 148.15 117.35 148.10 C 116.42 148.05 115.63 148.76 115.58 149.68 Z M 115.52 150.68 L 115.46 151.69 C 115.41 152.62 116.11 153.41 117.04 153.47 C 117.96 153.52 118.76 152.82 118.81 151.89 L 118.87 150.88 C 118.93 149.96 118.22 149.16 117.30 149.11 C 116.37 149.05 115.58 149.76 115.52 150.68 Z M 115.46 151.69 L 115.40 152.66 C 115.34 153.59 116.04 154.39 116.97 154.44 C 117.89 154.50 118.69 153.80 118.75 152.87 L 118.81 151.90 C 118.87 150.97 118.17 150.18 117.24 150.12 C 116.32 150.06 115.52 150.76 115.46 151.69 Z M 115.40 152.66 L 115.34 153.62 C 115.28 154.55 115.98 155.35 116.90 155.41 C 117.83 155.47 118.62 154.77 118.69 153.84 L 118.75 152.88 C 118.81 151.96 118.11 151.16 117.19 151.10 C 116.26 151.03 115.46 151.73 115.40 152.66 Z M 115.34 153.62 L 115.27 154.59 C 115.21 155.51 115.91 156.31 116.83 156.38 C 117.76 156.44 118.56 155.74 118.62 154.82 L 118.69 153.85 C 118.75 152.92 118.05 152.12 117.13 152.06 C 116.20 152.00 115.40 152.69 115.34 153.62 Z M 115.27 154.58 L 115.20 155.56 C 115.14 156.49 115.84 157.29 116.76 157.35 C 117.68 157.42 118.49 156.72 118.55 155.80 L 118.62 154.82 C 118.68 153.89 117.99 153.09 117.06 153.03 C 116.14 152.96 115.34 153.66 115.27 154.58 Z M 115.20 155.56 L 115.13 156.55 C 115.07 157.47 115.76 158.27 116.69 158.34 C 117.61 158.41 118.41 157.71 118.48 156.79 L 118.55 155.80 C 118.62 154.87 117.92 154.07 117.00 154.01 C 116.07 153.94 115.27 154.64 115.20 155.56 Z M 115.13 156.55 L 115.06 157.55 C 114.99 158.47 115.69 159.27 116.61 159.34 C 117.54 159.41 118.34 158.71 118.41 157.79 L 118.48 156.79 C 118.55 155.86 117.85 155.06 116.93 154.99 C 116.00 154.93 115.20 155.62 115.13 156.55 Z M 115.06 157.55 L 114.99 158.56 C 114.92 159.49 115.62 160.29 116.54 160.36 C 117.46 160.42 118.27 159.73 118.33 158.80 L 118.41 157.79 C 118.47 156.86 117.78 156.06 116.86 155.99 C 115.93 155.93 115.13 156.62 115.06 157.55 Z M 114.99 158.56 L 114.91 159.59 C 114.85 160.52 115.54 161.32 116.47 161.39 C 117.39 161.45 118.19 160.76 118.26 159.83 L 118.33 158.80 C 118.40 157.88 117.71 157.08 116.78 157.01 C 115.86 156.94 115.05 157.64 114.99 158.56 Z M 114.91 159.59 L 114.84 160.64 C 114.77 161.57 115.47 162.37 116.39 162.43 C 117.32 162.50 118.12 161.80 118.19 160.88 L 118.26 159.83 C 118.33 158.91 117.63 158.10 116.71 158.04 C 115.78 157.97 114.98 158.67 114.91 159.59 Z M 114.84 160.64 L 114.77 161.64 C 114.70 162.57 115.40 163.37 116.32 163.43 C 117.25 163.50 118.05 162.80 118.12 161.88 L 118.19 160.88 C 118.25 159.95 117.55 159.15 116.63 159.09 C 115.70 159.02 114.90 159.72 114.84 160.64 Z M 114.77 161.64 L 114.70 162.64 C 114.64 163.56 115.33 164.36 116.26 164.43 C 117.18 164.49 117.98 163.79 118.05 162.87 L 118.12 161.87 C 118.18 160.95 117.48 160.15 116.56 160.09 C 115.63 160.02 114.83 160.72 114.77 161.64 Z M 114.70 162.64 L 114.63 163.64 C 114.57 164.57 115.27 165.37 116.19 165.43 C 117.12 165.49 117.92 164.79 117.98 163.87 L 118.05 162.87 C 118.11 161.94 117.41 161.14 116.49 161.08 C 115.56 161.02 114.76 161.71 114.70 162.64 Z M 114.63 163.64 L 114.56 164.65 C 114.50 165.58 115.20 166.38 116.12 166.44 C 117.05 166.50 117.85 165.80 117.91 164.88 L 117.98 163.87 C 118.04 162.94 117.34 162.14 116.42 162.08 C 115.49 162.02 114.69 162.72 114.63 163.64 Z M 114.56 164.66 L 114.50 165.67 C 114.43 166.59 115.13 167.39 116.06 167.45 C 116.98 167.51 117.78 166.82 117.84 165.89 L 117.91 164.88 C 117.97 163.95 117.27 163.15 116.35 163.09 C 115.42 163.03 114.62 163.73 114.56 164.66 Z M 114.50 165.67 L 114.43 166.68 C 114.37 167.61 115.07 168.40 115.99 168.46 C 116.92 168.53 117.72 167.83 117.78 166.90 L 117.84 165.89 C 117.91 164.96 117.20 164.17 116.28 164.11 C 115.36 164.04 114.56 164.74 114.50 165.67 Z M 114.43 166.68 L 114.36 167.69 C 114.30 168.61 115.00 169.41 115.93 169.47 C 116.85 169.53 117.65 168.83 117.71 167.91 L 117.78 166.90 C 117.84 165.98 117.14 165.18 116.21 165.12 C 115.29 165.06 114.49 165.76 114.43 166.68 Z M 114.36 167.69 L 114.30 168.69 C 114.24 169.61 114.94 170.41 115.86 170.47 C 116.79 170.53 117.59 169.83 117.65 168.90 L 117.71 167.91 C 117.77 166.98 117.07 166.18 116.15 166.12 C 115.22 166.06 114.42 166.76 114.36 167.69 Z M 114.30 168.69 L 114.24 169.67 C 114.18 170.60 114.88 171.39 115.80 171.45 C 116.73 171.51 117.52 170.81 117.58 169.89 L 117.65 168.90 C 117.71 167.98 117.01 167.18 116.08 167.12 C 115.16 167.06 114.36 167.76 114.30 168.69 Z M 114.24 169.67 L 114.17 170.65 C 114.11 171.58 114.81 172.38 115.74 172.44 C 116.66 172.50 117.46 171.79 117.52 170.87 L 117.58 169.89 C 117.64 168.96 116.94 168.16 116.02 168.11 C 115.09 168.05 114.29 168.75 114.24 169.67 Z M 114.17 170.65 L 114.10 171.72 C 114.04 172.64 114.75 173.44 115.67 173.50 C 116.60 173.56 117.39 172.86 117.45 171.93 L 117.52 170.87 C 117.58 169.94 116.88 169.15 115.95 169.09 C 115.03 169.03 114.23 169.73 114.17 170.65 Z M 114.10 171.72 L 114.04 172.76 C 113.98 173.69 114.68 174.49 115.60 174.54 C 116.53 174.60 117.33 173.90 117.39 172.98 L 117.45 171.93 C 117.51 171.01 116.81 170.21 115.88 170.15 C 114.96 170.09 114.16 170.80 114.10 171.72 Z M 114.04 172.76 L 113.97 173.79 C 113.91 174.71 114.62 175.51 115.54 175.57 C 116.47 175.62 117.26 174.92 117.32 174.00 L 117.39 172.98 C 117.44 172.05 116.74 171.25 115.82 171.20 C 114.89 171.14 114.10 171.84 114.04 172.76 Z M 113.97 173.79 L 113.91 174.79 C 113.85 175.71 114.55 176.51 115.48 176.57 C 116.40 176.63 117.20 175.92 117.26 175.00 L 117.32 174.00 C 117.38 173.07 116.68 172.28 115.75 172.22 C 114.83 172.16 114.03 172.86 113.97 173.79 Z M 113.91 174.79 L 113.85 175.78 C 113.79 176.70 114.49 177.50 115.42 177.56 C 116.34 177.61 117.14 176.91 117.20 175.99 L 117.26 175.00 C 117.32 174.07 116.61 173.28 115.69 173.22 C 114.76 173.16 113.97 173.87 113.91 174.79 Z M 113.85 175.78 L 113.79 176.75 C 113.73 177.68 114.44 178.47 115.36 178.53 C 116.29 178.59 117.08 177.88 117.14 176.96 L 117.20 175.98 C 117.25 175.06 116.55 174.26 115.62 174.21 C 114.70 174.15 113.90 174.85 113.85 175.78 Z M 113.79 176.75 L 113.73 177.71 C 113.68 178.64 114.38 179.43 115.31 179.49 C 116.23 179.54 117.03 178.84 117.08 177.91 L 117.14 176.95 C 117.19 176.03 116.49 175.23 115.56 175.18 C 114.64 175.12 113.84 175.83 113.79 176.75 Z M 113.73 177.72 L 113.68 178.67 C 113.62 179.59 114.33 180.38 115.25 180.44 C 116.18 180.49 116.97 179.79 117.02 178.86 L 117.08 177.91 C 117.13 176.99 116.43 176.19 115.50 176.14 C 114.58 176.08 113.79 176.79 113.73 177.72 Z M 113.67 178.67 L 113.62 179.66 C 113.56 180.59 114.27 181.38 115.20 181.43 C 116.12 181.49 116.92 180.78 116.97 179.85 L 117.02 178.86 C 117.08 177.93 116.37 177.14 115.45 177.09 C 114.52 177.04 113.73 177.74 113.67 178.67 Z M 113.62 179.66 L 113.56 180.70 C 113.51 181.62 114.22 182.42 115.14 182.47 C 116.07 182.52 116.86 181.81 116.91 180.89 L 116.97 179.85 C 117.02 178.93 116.31 178.13 115.39 178.08 C 114.46 178.03 113.67 178.74 113.62 179.66 Z M 113.56 180.70 L 113.50 181.73 C 113.45 182.65 114.16 183.44 115.09 183.49 C 116.01 183.54 116.81 182.83 116.86 181.91 L 116.91 180.88 C 116.96 179.96 116.25 179.17 115.33 179.12 C 114.40 179.07 113.61 179.78 113.56 180.70 Z M 113.50 181.73 L 113.45 182.74 C 113.40 183.67 114.11 184.46 115.04 184.50 C 115.96 184.55 116.75 183.84 116.80 182.92 L 116.86 181.91 C 116.90 180.98 116.19 180.19 115.27 180.14 C 114.34 180.09 113.55 180.80 113.50 181.73 Z M 113.45 182.74 L 113.40 183.74 C 113.35 184.67 114.06 185.46 114.99 185.50 C 115.92 185.55 116.70 184.84 116.75 183.91 L 116.80 182.91 C 116.85 181.99 116.14 181.20 115.21 181.15 C 114.29 181.11 113.50 181.82 113.45 182.74 Z M 113.40 183.75 L 113.35 184.73 C 113.31 185.66 114.02 186.44 114.94 186.49 C 115.87 186.54 116.66 185.82 116.70 184.90 L 116.75 183.91 C 116.80 182.99 116.08 182.20 115.16 182.15 C 114.23 182.11 113.45 182.82 113.40 183.75 Z M 113.35 184.73 L 113.30 185.70 C 113.26 186.63 113.97 187.42 114.90 187.46 C 115.83 187.51 116.61 186.79 116.66 185.87 L 116.70 184.89 C 116.75 183.97 116.03 183.18 115.11 183.14 C 114.18 183.09 113.40 183.81 113.35 184.73 Z M 113.30 185.71 L 113.26 186.66 C 113.22 187.59 113.93 188.37 114.86 188.41 C 115.78 188.46 116.57 187.74 116.61 186.82 L 116.66 185.86 C 116.70 184.94 115.98 184.15 115.06 184.11 C 114.13 184.07 113.35 184.78 113.30 185.71 Z M 113.26 186.66 L 113.21 187.70 C 113.17 188.63 113.89 189.41 114.81 189.45 C 115.74 189.49 116.52 188.78 116.57 187.85 L 116.61 186.81 C 116.65 185.89 115.94 185.10 115.01 185.06 C 114.09 185.02 113.30 185.74 113.26 186.66 Z M 113.21 187.70 L 113.17 188.75 C 113.13 189.68 113.85 190.46 114.77 190.50 C 115.70 190.54 116.48 189.82 116.52 188.89 L 116.57 187.85 C 116.61 186.92 115.89 186.14 114.96 186.10 C 114.04 186.06 113.25 186.78 113.21 187.70 Z M 113.17 188.75 L 113.13 189.78 C 113.09 190.70 113.81 191.48 114.74 191.52 C 115.66 191.56 116.44 190.84 116.48 189.91 L 116.52 188.89 C 116.56 187.96 115.84 187.18 114.91 187.15 C 113.99 187.11 113.21 187.83 113.17 188.75 Z M 113.13 189.78 L 113.09 190.78 C 113.06 191.71 113.78 192.49 114.70 192.52 C 115.63 192.56 116.41 191.83 116.44 190.91 L 116.48 189.91 C 116.51 188.98 115.79 188.20 114.87 188.17 C 113.94 188.13 113.16 188.86 113.13 189.78 Z M 113.09 190.79 L 113.06 191.77 C 113.03 192.70 113.75 193.47 114.68 193.50 C 115.60 193.53 116.38 192.81 116.41 191.88 L 116.44 190.90 C 116.47 189.98 115.75 189.20 114.82 189.17 C 113.90 189.14 113.12 189.86 113.09 190.79 Z M 113.06 191.78 L 113.03 192.74 C 113.00 193.66 113.73 194.44 114.66 194.46 C 115.58 194.49 116.36 193.76 116.38 192.83 L 116.41 191.87 C 116.44 190.95 115.71 190.18 114.78 190.15 C 113.86 190.12 113.08 190.85 113.06 191.78 Z M 113.03 192.74 L 113.01 193.68 C 112.98 194.61 113.72 195.38 114.64 195.40 C 115.57 195.42 116.34 194.69 116.36 193.76 L 116.38 192.82 C 116.41 191.90 115.67 191.13 114.75 191.11 C 113.82 191.09 113.05 191.82 113.03 192.74 Z M 113.01 193.69 L 112.99 194.76 C 112.97 195.69 113.71 196.45 114.63 196.47 C 115.56 196.48 116.32 195.75 116.34 194.82 L 116.36 193.75 C 116.38 192.83 115.64 192.06 114.71 192.05 C 113.79 192.03 113.02 192.77 113.01 193.69 Z M 112.99 194.77 L 112.97 195.81 C 112.96 196.74 113.70 197.50 114.63 197.51 C 115.56 197.52 116.32 196.78 116.33 195.85 L 116.34 194.81 C 116.35 193.88 115.61 193.12 114.68 193.11 C 113.76 193.10 113.00 193.84 112.99 194.77 Z M 112.97 195.82 L 112.97 196.83 C 112.96 197.76 113.70 198.52 114.63 198.52 C 115.56 198.53 116.31 197.78 116.32 196.86 L 116.33 195.84 C 116.34 194.92 115.59 194.16 114.66 194.15 C 113.74 194.15 112.98 194.89 112.97 195.82 Z M 112.97 196.84 L 112.96 197.82 C 112.96 198.75 113.71 199.50 114.63 199.51 C 115.56 199.51 116.31 198.76 116.32 197.84 L 116.32 196.85 C 116.33 195.93 115.58 195.17 114.65 195.17 C 113.72 195.16 112.97 195.91 112.97 196.84 Z M 112.96 197.83 L 112.96 198.78 C 112.96 199.71 113.71 200.46 114.64 200.46 C 115.56 200.46 116.32 199.71 116.32 198.79 L 116.32 197.83 C 116.32 196.91 115.57 196.15 114.64 196.15 C 113.72 196.15 112.96 196.90 112.96 197.83 Z M 112.96 198.78 L 112.96 199.72 C 112.96 200.65 113.71 201.40 114.64 201.40 C 115.57 201.40 116.32 200.65 116.32 199.72 L 116.32 198.78 C 116.32 197.86 115.57 197.11 114.64 197.11 C 113.71 197.11 112.96 197.86 112.96 198.78 Z M 112.96 199.72 L 112.96 200.69 C 112.96 201.61 113.71 202.37 114.64 202.37 C 115.57 202.37 116.32 201.61 116.32 200.69 L 116.32 199.72 C 116.32 198.79 115.57 198.04 114.64 198.04 C 113.71 198.04 112.96 198.79 112.96 199.72 Z M 112.96 200.69 L 112.96 201.65 C 112.96 202.57 113.71 203.33 114.64 203.33 C 115.57 203.33 116.32 202.57 116.32 201.65 L 116.32 200.69 C 116.32 199.76 115.57 199.01 114.64 199.01 C 113.71 199.01 112.96 199.76 112.96 200.69 Z M 112.96 201.65 L 112.96 202.62 C 112.96 203.55 113.71 204.30 114.64 204.30 C 115.57 204.30 116.32 203.55 116.32 202.62 L 116.32 201.65 C 116.32 200.72 115.57 199.97 114.64 199.97 C 113.71 199.97 112.96 200.72 112.96 201.65 Z M 112.96 202.62 L 112.96 203.63 C 112.96 204.56 113.71 205.31 114.64 205.31 C 115.57 205.31 116.32 204.56 116.32 203.63 L 116.32 202.62 C 116.32 201.69 115.57 200.94 114.64 200.94 C 113.71 200.94 112.96 201.69 112.96 202.62 Z M 112.96 203.63 L 112.96 204.70 C 112.96 205.62 113.71 206.38 114.64 206.38 C 115.57 206.38 116.32 205.62 116.32 204.70 L 116.32 203.63 C 116.32 202.70 115.57 201.95 114.64 201.95 C 113.71 201.95 112.96 202.70 112.96 203.63 Z M 112.96 204.70 L 112.96 205.71 C 112.96 206.63 113.71 207.39 114.64 207.39 C 115.57 207.38 116.32 206.63 116.32 205.71 L 116.32 204.70 C 116.32 203.77 115.56 203.02 114.64 203.02 C 113.71 203.02 112.96 203.77 112.96 204.70 Z M 112.96 205.72 L 112.97 206.74 C 112.97 207.66 113.73 208.41 114.65 208.41 C 115.58 208.40 116.33 207.65 116.32 206.72 L 116.32 205.70 C 116.31 204.77 115.56 204.02 114.63 204.03 C 113.70 204.03 112.96 204.79 112.96 205.72 Z M 112.97 206.75 L 112.98 207.79 C 113.00 208.72 113.76 209.46 114.69 209.45 C 115.61 209.43 116.35 208.67 116.34 207.74 L 116.32 206.70 C 116.31 205.78 115.55 205.04 114.62 205.05 C 113.69 205.06 112.95 205.83 112.97 206.75 Z M 112.98 207.82 L 113.01 208.86 C 113.04 209.78 113.82 210.51 114.74 210.48 C 115.67 210.45 116.40 209.68 116.37 208.75 L 116.34 207.72 C 116.31 206.79 115.53 206.06 114.61 206.09 C 113.68 206.12 112.95 206.89 112.98 207.82 Z M 113.02 208.89 L 113.07 209.90 C 113.12 210.83 113.91 211.54 114.84 211.49 C 115.76 211.44 116.47 210.64 116.42 209.72 L 116.37 208.71 C 116.32 207.79 115.53 207.08 114.60 207.13 C 113.68 207.18 112.97 207.97 113.02 208.89 Z M 113.07 209.95 L 113.16 210.91 C 113.24 211.83 114.05 212.51 114.97 212.43 C 115.90 212.35 116.58 211.54 116.50 210.62 L 116.42 209.67 C 116.34 208.74 115.52 208.06 114.60 208.14 C 113.68 208.22 112.99 209.03 113.07 209.95 Z M 113.17 210.99 L 113.31 212.03 C 113.44 212.95 114.28 213.59 115.20 213.46 C 116.12 213.34 116.76 212.49 116.63 211.57 L 116.49 210.53 C 116.36 209.62 115.52 208.97 114.60 209.10 C 113.68 209.23 113.04 210.07 113.17 210.99 Z M 113.33 212.15 L 113.56 213.22 C 113.75 214.12 114.64 214.70 115.54 214.51 C 116.45 214.32 117.03 213.43 116.84 212.52 L 116.61 211.46 C 116.42 210.55 115.53 209.97 114.63 210.16 C 113.72 210.35 113.14 211.24 113.33 212.15 Z M 113.59 213.33 L 113.87 214.28 C 114.12 215.17 115.05 215.68 115.93 215.43 C 116.82 215.17 117.33 214.25 117.08 213.36 L 116.80 212.41 C 116.55 211.52 115.62 211.01 114.73 211.26 C 113.85 211.52 113.34 212.45 113.59 213.33 Z M 113.90 214.37 L 114.20 215.25 C 114.51 216.11 115.46 216.57 116.33 216.27 C 117.20 215.96 117.66 215.01 117.35 214.14 L 117.05 213.27 C 116.74 212.40 115.79 211.94 114.92 212.25 C 114.05 212.55 113.59 213.50 113.90 214.37 Z M 114.22 215.29 L 114.54 216.12 C 114.88 216.98 115.84 217.41 116.70 217.07 C 117.56 216.74 117.98 215.78 117.65 214.92 L 117.33 214.09 C 117.00 213.23 116.03 212.81 115.18 213.14 C 114.32 213.47 113.89 214.44 114.22 215.29 Z"
      fill="black"
      fill-rule="nonzero" /><path d="M 127.85 102.86 L 128.01 101.80 C 128.14 100.95 127.56 100.15 126.70 100.02 C 125.85 99.89 125.06 100.48 124.93 101.33 L 124.77 102.39 C 124.64 103.24 125.22 104.04 126.08 104.17 C 126.93 104.30 127.72 103.71 127.85 102.86 Z M 127.99 101.93 L 128.23 100.94 C 128.43 100.10 127.91 99.26 127.07 99.05 C 126.24 98.85 125.39 99.37 125.19 100.21 L 124.95 101.20 C 124.75 102.04 125.27 102.88 126.11 103.08 C 126.94 103.28 127.79 102.77 127.99 101.93 Z M 128.13 101.23 L 128.52 100.37 C 128.88 99.59 128.54 98.66 127.76 98.30 C 126.97 97.94 126.05 98.28 125.68 99.06 L 125.29 99.92 C 124.93 100.70 125.27 101.63 126.05 101.99 C 126.84 102.35 127.77 102.01 128.13 101.23 Z M 128.23 100.79 L 128.83 100.16 C 129.43 99.54 129.41 98.55 128.78 97.96 C 128.16 97.36 127.17 97.38 126.57 98.01 L 125.97 98.64 C 125.38 99.26 125.40 100.25 126.03 100.85 C 126.65 101.44 127.64 101.42 128.23 100.79 Z M 128.40 100.48 L 129.19 100.09 C 129.97 99.71 130.28 98.77 129.90 98.00 C 129.52 97.23 128.58 96.91 127.81 97.29 L 127.01 97.69 C 126.24 98.07 125.92 99.01 126.31 99.78 C 126.69 100.55 127.63 100.87 128.40 100.48 Z M 128.82 100.22 L 129.79 100.02 C 130.63 99.84 131.17 99.02 131.00 98.17 C 130.82 97.33 129.99 96.79 129.15 96.96 L 128.18 97.16 C 127.34 97.34 126.80 98.17 126.97 99.01 C 127.15 99.85 127.97 100.40 128.82 100.22 Z M 129.50 100.05 L 130.60 100.03 C 131.46 100.01 132.14 99.30 132.13 98.43 C 132.11 97.57 131.40 96.89 130.53 96.91 L 129.44 96.93 C 128.57 96.95 127.89 97.66 127.91 98.52 C 127.93 99.38 128.64 100.07 129.50 100.05 Z M 130.39 100.02 L 131.45 100.14 C 132.31 100.24 133.08 99.62 133.18 98.76 C 133.28 97.91 132.66 97.13 131.80 97.04 L 130.74 96.92 C 129.89 96.82 129.11 97.43 129.01 98.29 C 128.92 99.15 129.53 99.92 130.39 100.02 Z M 131.31 100.12 L 132.30 100.32 C 133.14 100.50 133.97 99.96 134.14 99.12 C 134.32 98.27 133.78 97.44 132.94 97.27 L 131.95 97.06 C 131.10 96.88 130.28 97.42 130.10 98.27 C 129.92 99.11 130.46 99.94 131.31 100.12 Z M 132.20 100.30 L 133.18 100.58 C 134.01 100.81 134.88 100.32 135.11 99.49 C 135.34 98.66 134.86 97.80 134.03 97.57 L 133.04 97.29 C 132.21 97.06 131.35 97.54 131.11 98.37 C 130.88 99.20 131.37 100.07 132.20 100.30 Z M 133.11 100.55 L 134.07 100.88 C 134.89 101.15 135.77 100.71 136.05 99.89 C 136.32 99.08 135.88 98.19 135.06 97.92 L 134.10 97.59 C 133.29 97.32 132.40 97.76 132.13 98.57 C 131.85 99.39 132.29 100.28 133.11 100.55 Z M 134.01 100.85 L 134.92 101.20 C 135.72 101.51 136.62 101.10 136.93 100.30 C 137.24 99.49 136.84 98.59 136.03 98.28 L 135.12 97.94 C 134.32 97.63 133.42 98.03 133.11 98.84 C 132.80 99.64 133.20 100.55 134.01 100.85 Z M 134.86 101.18 L 135.85 101.60 C 136.64 101.93 137.56 101.56 137.90 100.77 C 138.23 99.97 137.86 99.06 137.07 98.72 L 136.08 98.30 C 135.29 97.97 134.37 98.34 134.04 99.13 C 133.70 99.93 134.07 100.84 134.86 101.18 Z M 135.80 101.57 L 136.72 102.01 C 137.51 102.37 138.44 102.03 138.80 101.25 C 139.16 100.47 138.82 99.54 138.04 99.18 L 137.12 98.74 C 136.34 98.38 135.41 98.72 135.04 99.50 C 134.68 100.28 135.02 101.21 135.80 101.57 Z M 136.68 101.99 L 137.54 102.42 C 138.31 102.80 139.25 102.49 139.64 101.72 C 140.02 100.95 139.71 100.01 138.94 99.63 L 138.09 99.20 C 137.32 98.81 136.38 99.12 135.99 99.89 C 135.60 100.66 135.91 101.60 136.68 101.99 Z M 137.51 102.40 L 138.34 102.84 C 139.10 103.24 140.05 102.95 140.45 102.18 C 140.85 101.42 140.56 100.48 139.79 100.07 L 138.97 99.64 C 138.20 99.24 137.26 99.53 136.86 100.29 C 136.46 101.06 136.75 102.00 137.51 102.40 Z M 138.33 102.83 L 139.19 103.29 C 139.95 103.70 140.90 103.41 141.30 102.65 C 141.71 101.89 141.42 100.94 140.66 100.54 L 139.80 100.08 C 139.04 99.67 138.10 99.96 137.69 100.72 C 137.28 101.48 137.57 102.43 138.33 102.83 Z M 139.19 103.29 L 140.07 103.76 C 140.83 104.16 141.78 103.88 142.18 103.12 C 142.59 102.35 142.30 101.41 141.54 101.00 L 140.66 100.54 C 139.90 100.13 138.95 100.42 138.55 101.18 C 138.14 101.94 138.43 102.89 139.19 103.29 Z M 140.08 103.76 L 140.97 104.23 C 141.74 104.64 142.68 104.34 143.08 103.58 C 143.48 102.81 143.19 101.87 142.43 101.47 L 141.53 101.00 C 140.77 100.60 139.82 100.89 139.42 101.66 C 139.02 102.42 139.31 103.36 140.08 103.76 Z M 140.99 104.24 L 141.89 104.71 C 142.66 105.10 143.60 104.79 143.99 104.03 C 144.39 103.26 144.08 102.32 143.32 101.93 L 142.41 101.46 C 141.64 101.07 140.70 101.37 140.31 102.14 C 139.92 102.91 140.22 103.85 140.99 104.24 Z M 141.91 104.71 L 142.80 105.16 C 143.57 105.55 144.51 105.23 144.89 104.46 C 145.28 103.69 144.97 102.75 144.20 102.37 L 143.30 101.92 C 142.53 101.53 141.59 101.85 141.21 102.62 C 140.82 103.39 141.13 104.33 141.91 104.71 Z M 142.81 105.16 L 143.71 105.61 C 144.48 105.99 145.42 105.68 145.80 104.90 C 146.18 104.13 145.87 103.19 145.09 102.81 L 144.19 102.36 C 143.42 101.98 142.48 102.30 142.10 103.07 C 141.72 103.84 142.03 104.78 142.81 105.16 Z M 143.70 105.61 L 144.60 106.05 C 145.37 106.44 146.31 106.13 146.69 105.35 C 147.08 104.58 146.77 103.65 145.99 103.26 L 145.10 102.81 C 144.33 102.43 143.39 102.74 143.00 103.51 C 142.62 104.28 142.93 105.22 143.70 105.61 Z M 144.59 106.05 L 145.49 106.51 C 146.25 106.90 147.19 106.59 147.59 105.83 C 147.98 105.06 147.67 104.12 146.90 103.73 L 146.01 103.27 C 145.24 102.88 144.30 103.18 143.91 103.95 C 143.51 104.72 143.82 105.66 144.59 106.05 Z M 145.47 106.50 L 146.37 106.97 C 147.14 107.36 148.08 107.07 148.48 106.30 C 148.87 105.54 148.58 104.59 147.81 104.20 L 146.92 103.73 C 146.15 103.33 145.21 103.63 144.81 104.40 C 144.41 105.16 144.71 106.10 145.47 106.50 Z M 146.37 106.97 L 147.25 107.43 C 148.02 107.82 148.96 107.52 149.36 106.76 C 149.76 105.99 149.46 105.05 148.69 104.65 L 147.81 104.20 C 147.04 103.80 146.10 104.10 145.71 104.86 C 145.31 105.63 145.61 106.57 146.37 106.97 Z M 147.27 107.43 L 148.15 107.88 C 148.92 108.27 149.86 107.96 150.25 107.19 C 150.64 106.42 150.33 105.48 149.56 105.09 L 148.68 104.65 C 147.91 104.26 146.97 104.57 146.58 105.34 C 146.19 106.11 146.50 107.04 147.27 107.43 Z M 148.18 107.89 L 149.07 108.32 C 149.85 108.70 150.78 108.37 151.16 107.59 C 151.53 106.82 151.20 105.88 150.43 105.51 L 149.53 105.08 C 148.75 104.70 147.82 105.03 147.45 105.81 C 147.07 106.58 147.40 107.52 148.18 107.89 Z M 149.11 108.34 L 150.02 108.75 C 150.80 109.11 151.73 108.76 152.08 107.97 C 152.44 107.19 152.09 106.26 151.31 105.91 L 150.40 105.49 C 149.61 105.14 148.68 105.49 148.33 106.27 C 147.97 107.06 148.32 107.98 149.11 108.34 Z M 150.05 108.76 L 150.97 109.16 C 151.76 109.50 152.68 109.13 153.02 108.33 C 153.36 107.54 152.99 106.62 152.19 106.29 L 151.27 105.89 C 150.48 105.55 149.56 105.92 149.22 106.72 C 148.89 107.51 149.26 108.43 150.05 108.76 Z M 151.00 109.17 L 151.93 109.54 C 152.73 109.86 153.64 109.47 153.96 108.67 C 154.28 107.87 153.89 106.96 153.09 106.64 L 152.16 106.27 C 151.36 105.95 150.45 106.34 150.13 107.14 C 149.81 107.94 150.20 108.85 151.00 109.17 Z M 151.96 109.55 L 152.89 109.90 C 153.70 110.20 154.60 109.79 154.90 108.99 C 155.20 108.18 154.79 107.28 153.98 106.98 L 153.06 106.63 C 152.25 106.33 151.35 106.74 151.05 107.55 C 150.74 108.35 151.15 109.25 151.96 109.55 Z M 152.92 109.91 L 153.87 110.24 C 154.68 110.53 155.57 110.10 155.85 109.28 C 156.14 108.47 155.71 107.58 154.89 107.29 L 153.95 106.97 C 153.14 106.68 152.25 107.11 151.96 107.93 C 151.68 108.74 152.11 109.63 152.92 109.91 Z M 153.90 110.25 L 154.86 110.56 C 155.68 110.83 156.56 110.38 156.82 109.55 C 157.09 108.73 156.64 107.85 155.82 107.59 L 154.86 107.28 C 154.04 107.02 153.16 107.47 152.89 108.29 C 152.63 109.11 153.08 109.99 153.90 110.25 Z M 154.89 110.57 L 155.85 110.85 C 156.67 111.10 157.54 110.63 157.79 109.80 C 158.03 108.97 157.56 108.11 156.73 107.86 L 155.78 107.58 C 154.95 107.33 154.09 107.81 153.84 108.63 C 153.60 109.46 154.07 110.33 154.89 110.57 Z M 155.88 110.86 L 156.83 111.12 C 157.66 111.35 158.52 110.86 158.74 110.03 C 158.97 109.19 158.48 108.34 157.65 108.11 L 156.70 107.85 C 155.87 107.62 155.01 108.12 154.78 108.95 C 154.56 109.78 155.05 110.64 155.88 110.86 Z M 156.86 111.13 L 157.83 111.37 C 158.66 111.58 159.51 111.08 159.72 110.24 C 159.93 109.40 159.42 108.56 158.59 108.35 L 157.62 108.10 C 156.78 107.89 155.93 108.40 155.72 109.24 C 155.51 110.07 156.02 110.92 156.86 111.13 Z M 157.85 111.38 L 158.85 111.61 C 159.69 111.81 160.52 111.29 160.72 110.45 C 160.92 109.61 160.39 108.77 159.56 108.57 L 158.56 108.34 C 157.72 108.14 156.88 108.67 156.69 109.50 C 156.49 110.34 157.01 111.18 157.85 111.38 Z M 158.87 111.62 L 159.83 111.83 C 160.67 112.01 161.50 111.48 161.69 110.63 C 161.87 109.79 161.34 108.96 160.49 108.78 L 159.53 108.57 C 158.69 108.38 157.86 108.92 157.68 109.76 C 157.49 110.60 158.03 111.43 158.87 111.62 Z M 159.85 111.83 L 160.81 112.03 C 161.65 112.20 162.48 111.65 162.65 110.81 C 162.82 109.96 162.28 109.14 161.43 108.97 L 160.47 108.77 C 159.63 108.60 158.80 109.15 158.63 109.99 C 158.46 110.84 159.01 111.66 159.85 111.83 Z M 160.83 112.03 L 161.82 112.22 C 162.66 112.37 163.48 111.82 163.64 110.97 C 163.80 110.12 163.24 109.31 162.39 109.15 L 161.41 108.96 C 160.56 108.80 159.74 109.36 159.59 110.21 C 159.43 111.06 159.98 111.87 160.83 112.03 Z M 161.84 112.22 L 162.85 112.39 C 163.70 112.54 164.51 111.97 164.65 111.12 C 164.80 110.27 164.23 109.46 163.38 109.31 L 162.37 109.14 C 161.52 109.00 160.71 109.57 160.56 110.42 C 160.42 111.27 160.99 112.08 161.84 112.22 Z M 162.88 112.40 L 163.89 112.55 C 164.74 112.68 165.54 112.09 165.67 111.24 C 165.80 110.39 165.21 109.59 164.36 109.46 L 163.35 109.31 C 162.50 109.18 161.70 109.77 161.57 110.62 C 161.44 111.47 162.03 112.27 162.88 112.40 Z M 163.91 112.55 L 164.91 112.69 C 165.76 112.81 166.55 112.21 166.67 111.35 C 166.78 110.50 166.18 109.71 165.33 109.60 L 164.33 109.46 C 163.48 109.34 162.69 109.94 162.58 110.80 C 162.46 111.65 163.06 112.44 163.91 112.55 Z M 164.93 112.69 L 165.94 112.81 C 166.79 112.92 167.57 112.31 167.67 111.45 C 167.78 110.60 167.17 109.82 166.31 109.71 L 165.31 109.59 C 164.45 109.49 163.67 110.10 163.57 110.95 C 163.47 111.81 164.08 112.59 164.93 112.69 Z M 165.95 112.82 L 166.95 112.93 C 167.81 113.02 168.58 112.40 168.67 111.54 C 168.77 110.69 168.15 109.92 167.29 109.82 L 166.29 109.71 C 165.44 109.62 164.67 110.24 164.57 111.10 C 164.48 111.95 165.10 112.72 165.95 112.82 Z M 166.97 112.93 L 167.95 113.02 C 168.81 113.11 169.57 112.48 169.65 111.62 C 169.74 110.76 169.11 110.00 168.25 109.92 L 167.27 109.82 C 166.42 109.74 165.65 110.36 165.57 111.22 C 165.48 112.08 166.11 112.84 166.97 112.93 Z M 167.96 113.02 L 169.00 113.11 C 169.86 113.19 170.61 112.55 170.69 111.69 C 170.76 110.83 170.13 110.08 169.27 110.00 L 168.23 109.91 C 167.38 109.84 166.62 110.48 166.54 111.33 C 166.47 112.19 167.11 112.95 167.96 113.02 Z M 169.01 113.12 L 170.02 113.19 C 170.88 113.26 171.63 112.61 171.69 111.75 C 171.76 110.89 171.11 110.14 170.25 110.08 L 169.25 110.00 C 168.39 109.94 167.64 110.58 167.58 111.44 C 167.51 112.30 168.15 113.05 169.01 113.12 Z M 170.03 113.19 L 171.02 113.26 C 171.88 113.31 172.62 112.66 172.68 111.80 C 172.73 110.94 172.08 110.20 171.22 110.14 L 170.24 110.08 C 169.38 110.02 168.63 110.67 168.58 111.53 C 168.52 112.39 169.17 113.14 170.03 113.19 Z M 171.03 113.26 L 172.01 113.31 C 172.87 113.36 173.60 112.70 173.65 111.84 C 173.70 110.98 173.04 110.24 172.18 110.19 L 171.21 110.14 C 170.34 110.09 169.61 110.75 169.56 111.61 C 169.51 112.47 170.17 113.21 171.03 113.26 Z M 172.02 113.31 L 173.03 113.36 C 173.90 113.40 174.63 112.73 174.67 111.87 C 174.71 111.01 174.04 110.28 173.18 110.24 L 172.16 110.19 C 171.30 110.15 170.57 110.82 170.53 111.68 C 170.49 112.54 171.16 113.27 172.02 113.31 Z M 173.05 113.36 L 174.06 113.40 C 174.92 113.43 175.65 112.76 175.68 111.90 C 175.71 111.04 175.04 110.31 174.18 110.28 L 173.17 110.24 C 172.31 110.21 171.58 110.88 171.55 111.74 C 171.51 112.60 172.19 113.33 173.05 113.36 Z M 174.07 113.40 L 175.07 113.43 C 175.93 113.46 176.65 112.78 176.68 111.92 C 176.70 111.05 176.03 110.33 175.16 110.31 L 174.17 110.28 C 173.31 110.25 172.59 110.93 172.56 111.79 C 172.53 112.65 173.21 113.37 174.07 113.40 Z M 175.08 113.43 L 176.05 113.45 C 176.91 113.47 177.63 112.79 177.65 111.92 C 177.67 111.06 176.98 110.35 176.12 110.33 L 175.15 110.31 C 174.29 110.29 173.57 110.97 173.56 111.83 C 173.54 112.70 174.22 113.41 175.08 113.43 Z M 176.06 113.45 L 177.01 113.46 C 177.87 113.48 178.58 112.79 178.59 111.93 C 178.60 111.06 177.91 110.35 177.05 110.34 L 176.11 110.33 C 175.25 110.32 174.54 111.01 174.53 111.87 C 174.51 112.73 175.20 113.44 176.06 113.45 Z M 177.02 113.46 L 177.97 113.47 C 178.83 113.48 179.54 112.79 179.55 111.93 C 179.55 111.07 178.86 110.36 178.00 110.35 L 177.05 110.34 C 176.18 110.33 175.48 111.03 175.47 111.89 C 175.46 112.75 176.15 113.46 177.02 113.46 Z M 177.97 113.47 L 178.98 113.48 C 179.84 113.49 180.55 112.80 180.56 111.94 C 180.56 111.07 179.87 110.37 179.01 110.36 L 178.00 110.35 C 177.14 110.34 176.43 111.04 176.42 111.90 C 176.42 112.76 177.11 113.47 177.97 113.47 Z M 178.97 113.48 L 180.06 113.50 C 180.92 113.51 181.63 112.82 181.64 111.96 C 181.65 111.09 180.96 110.39 180.10 110.37 L 179.01 110.36 C 178.15 110.35 177.44 111.04 177.43 111.90 C 177.42 112.76 178.11 113.47 178.97 113.48 Z M 180.05 113.50 L 181.02 113.51 C 181.88 113.53 182.59 112.85 182.61 111.98 C 182.62 111.12 181.94 110.41 181.07 110.39 L 180.11 110.37 C 179.25 110.36 178.53 111.04 178.52 111.91 C 178.50 112.77 179.19 113.48 180.05 113.50 Z M 181.00 113.51 L 182.02 113.54 C 182.88 113.57 183.60 112.89 183.62 112.03 C 183.65 111.17 182.97 110.45 182.11 110.42 L 181.09 110.39 C 180.23 110.37 179.51 111.05 179.48 111.91 C 179.46 112.77 180.14 113.49 181.00 113.51 Z M 181.99 113.54 L 183.02 113.59 C 183.88 113.63 184.61 112.96 184.65 112.10 C 184.69 111.24 184.03 110.51 183.17 110.47 L 182.13 110.42 C 181.27 110.38 180.54 111.05 180.50 111.91 C 180.46 112.77 181.13 113.50 181.99 113.54 Z M 182.99 113.59 L 184.00 113.66 C 184.86 113.72 185.60 113.07 185.66 112.21 C 185.72 111.35 185.07 110.60 184.21 110.54 L 183.20 110.47 C 182.34 110.41 181.60 111.06 181.54 111.92 C 181.48 112.78 182.13 113.53 182.99 113.59 Z M 183.94 113.65 L 184.94 113.76 C 185.80 113.85 186.57 113.23 186.66 112.37 C 186.75 111.51 186.13 110.74 185.27 110.65 L 184.27 110.55 C 183.41 110.46 182.64 111.08 182.55 111.94 C 182.46 112.80 183.08 113.56 183.94 113.65 Z M 184.87 113.75 L 185.93 113.91 C 186.78 114.05 187.58 113.46 187.71 112.61 C 187.85 111.76 187.26 110.96 186.41 110.83 L 185.34 110.66 C 184.49 110.53 183.69 111.12 183.56 111.97 C 183.43 112.82 184.01 113.62 184.87 113.75 Z M 185.86 113.90 L 186.84 114.10 C 187.68 114.27 188.51 113.73 188.68 112.88 C 188.85 112.04 188.31 111.21 187.46 111.04 L 186.48 110.84 C 185.64 110.67 184.81 111.22 184.64 112.06 C 184.47 112.91 185.01 113.73 185.86 113.90 Z M 186.78 114.09 L 187.71 114.31 C 188.55 114.51 189.39 114.00 189.59 113.16 C 189.79 112.32 189.27 111.48 188.44 111.28 L 187.51 111.05 C 186.67 110.85 185.83 111.37 185.63 112.21 C 185.43 113.05 185.95 113.89 186.78 114.09 Z M 187.68 114.31 L 188.38 114.49 C 189.22 114.70 190.07 114.20 190.28 113.36 C 190.50 112.53 190.00 111.68 189.16 111.46 L 188.46 111.28 C 187.62 111.07 186.77 111.57 186.56 112.40 C 186.34 113.24 186.85 114.09 187.68 114.31 Z"
      fill="black"
      fill-rule="nonzero" /><path d="M 112.50 161.07 L 113.46 161.54 C 114.24 161.92 115.17 161.60 115.55 160.82 C 115.92 160.04 115.60 159.11 114.82 158.73 L 113.86 158.27 C 113.09 157.89 112.15 158.21 111.78 158.99 C 111.40 159.76 111.72 160.70 112.50 161.07 Z M 113.47 161.55 L 114.42 162.00 C 115.19 162.37 116.13 162.05 116.50 161.27 C 116.87 160.49 116.54 159.56 115.77 159.19 L 114.82 158.73 C 114.04 158.36 113.11 158.69 112.73 159.46 C 112.36 160.24 112.69 161.17 113.47 161.55 Z M 114.43 162.01 L 115.35 162.44 C 116.14 162.80 117.07 162.47 117.43 161.69 C 117.79 160.90 117.46 159.98 116.68 159.61 L 115.75 159.18 C 114.97 158.81 114.04 159.15 113.68 159.93 C 113.31 160.71 113.65 161.64 114.43 162.01 Z M 115.38 162.45 L 116.26 162.85 C 117.05 163.20 117.97 162.84 118.33 162.06 C 118.68 161.27 118.32 160.35 117.54 159.99 L 116.65 159.60 C 115.87 159.25 114.94 159.60 114.59 160.39 C 114.24 161.18 114.59 162.10 115.38 162.45 Z M 116.30 162.86 L 117.13 163.21 C 117.93 163.54 118.84 163.16 119.17 162.37 C 119.50 161.57 119.13 160.66 118.33 160.33 L 117.50 159.98 C 116.70 159.65 115.79 160.02 115.46 160.82 C 115.13 161.62 115.50 162.53 116.30 162.86 Z M 117.19 163.23 L 118.19 163.60 C 119.00 163.90 119.90 163.48 120.20 162.68 C 120.50 161.87 120.08 160.97 119.27 160.67 L 118.27 160.30 C 117.46 160.00 116.56 160.42 116.27 161.23 C 115.97 162.04 116.38 162.93 117.19 163.23 Z M 118.27 163.63 L 119.22 163.92 C 120.04 164.18 120.91 163.72 121.17 162.90 C 121.43 162.07 120.97 161.20 120.15 160.94 L 119.20 160.65 C 118.37 160.39 117.50 160.85 117.24 161.67 C 116.98 162.49 117.44 163.37 118.27 163.63 Z M 119.28 163.94 L 120.20 164.19 C 121.03 164.41 121.89 163.91 122.11 163.08 C 122.33 162.25 121.84 161.39 121.01 161.17 L 120.08 160.92 C 119.25 160.70 118.39 161.20 118.17 162.03 C 117.95 162.86 118.45 163.72 119.28 163.94 Z M 120.24 164.20 L 121.17 164.42 C 122.01 164.62 122.85 164.11 123.05 163.27 C 123.26 162.43 122.74 161.59 121.90 161.39 L 120.97 161.16 C 120.13 160.96 119.29 161.47 119.09 162.31 C 118.88 163.15 119.40 163.99 120.24 164.20 Z M 121.18 164.42 L 122.10 164.64 C 122.94 164.83 123.78 164.31 123.97 163.47 C 124.17 162.63 123.64 161.79 122.80 161.59 L 121.89 161.38 C 121.05 161.19 120.21 161.71 120.02 162.55 C 119.82 163.39 120.34 164.23 121.18 164.42 Z M 122.11 164.64 L 123.07 164.85 C 123.91 165.04 124.75 164.51 124.93 163.67 C 125.12 162.83 124.59 162.00 123.75 161.81 L 122.79 161.59 C 121.95 161.40 121.12 161.93 120.93 162.77 C 120.74 163.61 121.27 164.45 122.11 164.64 Z M 123.08 164.86 L 124.09 165.07 C 124.93 165.25 125.76 164.72 125.94 163.87 C 126.12 163.03 125.59 162.20 124.74 162.02 L 123.74 161.80 C 122.90 161.62 122.07 162.16 121.88 163.00 C 121.70 163.85 122.24 164.68 123.08 164.86 Z M 124.10 165.08 L 125.14 165.29 C 125.99 165.46 126.81 164.91 126.98 164.07 C 127.16 163.22 126.61 162.40 125.77 162.23 L 124.73 162.02 C 123.88 161.84 123.06 162.39 122.88 163.24 C 122.71 164.08 123.26 164.90 124.10 165.08 Z M 125.16 165.29 L 126.10 165.47 C 126.94 165.63 127.76 165.08 127.92 164.23 C 128.09 163.38 127.53 162.57 126.68 162.40 L 125.75 162.22 C 124.90 162.06 124.08 162.62 123.92 163.46 C 123.76 164.31 124.31 165.13 125.16 165.29 Z M 126.12 165.47 L 127.07 165.65 C 127.92 165.80 128.73 165.23 128.89 164.38 C 129.04 163.53 128.47 162.72 127.62 162.57 L 126.66 162.40 C 125.82 162.25 125.00 162.81 124.85 163.66 C 124.70 164.51 125.27 165.32 126.12 165.47 Z M 127.09 165.65 L 128.08 165.81 C 128.93 165.95 129.74 165.38 129.88 164.53 C 130.02 163.67 129.44 162.87 128.59 162.73 L 127.60 162.57 C 126.75 162.43 125.95 163.00 125.81 163.85 C 125.67 164.70 126.24 165.51 127.09 165.65 Z M 128.10 165.82 L 129.12 165.97 C 129.97 166.10 130.77 165.51 130.90 164.66 C 131.03 163.80 130.44 163.01 129.59 162.88 L 128.57 162.73 C 127.72 162.60 126.92 163.19 126.79 164.04 C 126.66 164.89 127.25 165.69 128.10 165.82 Z M 129.14 165.97 L 130.17 166.11 C 131.02 166.23 131.81 165.63 131.93 164.77 C 132.04 163.92 131.44 163.13 130.59 163.02 L 129.56 162.88 C 128.71 162.76 127.92 163.36 127.81 164.21 C 127.69 165.07 128.29 165.86 129.14 165.97 Z M 130.19 166.11 L 131.15 166.23 C 132.01 166.33 132.78 165.73 132.89 164.87 C 132.99 164.01 132.38 163.24 131.53 163.13 L 130.57 163.01 C 129.71 162.91 128.93 163.52 128.83 164.37 C 128.72 165.23 129.33 166.01 130.19 166.11 Z M 131.17 166.23 L 132.15 166.34 C 133.01 166.43 133.78 165.82 133.87 164.96 C 133.97 164.10 133.35 163.33 132.49 163.24 L 131.51 163.13 C 130.65 163.03 129.88 163.65 129.79 164.51 C 129.69 165.37 130.31 166.14 131.17 166.23 Z M 132.17 166.34 L 133.17 166.44 C 134.03 166.53 134.79 165.90 134.88 165.04 C 134.96 164.18 134.33 163.42 133.48 163.33 L 132.47 163.24 C 131.62 163.15 130.85 163.78 130.77 164.64 C 130.68 165.49 131.31 166.26 132.17 166.34 Z M 133.19 166.44 L 134.20 166.53 C 135.06 166.61 135.82 165.97 135.89 165.11 C 135.97 164.25 135.33 163.50 134.47 163.42 L 133.46 163.33 C 132.60 163.26 131.84 163.89 131.77 164.75 C 131.69 165.61 132.33 166.37 133.19 166.44 Z M 134.22 166.53 L 135.24 166.61 C 136.10 166.68 136.85 166.04 136.92 165.18 C 136.98 164.32 136.34 163.57 135.48 163.50 L 134.46 163.42 C 133.60 163.35 132.85 164.00 132.78 164.85 C 132.71 165.71 133.36 166.47 134.22 166.53 Z M 135.25 166.61 L 136.25 166.68 C 137.11 166.74 137.86 166.09 137.92 165.23 C 137.98 164.37 137.33 163.63 136.47 163.57 L 135.47 163.50 C 134.61 163.44 133.86 164.09 133.80 164.95 C 133.74 165.81 134.39 166.55 135.25 166.61 Z M 136.27 166.68 L 137.27 166.74 C 138.13 166.80 138.87 166.14 138.92 165.28 C 138.97 164.42 138.31 163.68 137.45 163.63 L 136.45 163.57 C 135.59 163.52 134.85 164.17 134.80 165.03 C 134.75 165.89 135.41 166.63 136.27 166.68 Z M 137.28 166.74 L 138.28 166.80 C 139.14 166.84 139.88 166.18 139.92 165.32 C 139.96 164.46 139.30 163.72 138.44 163.68 L 137.44 163.63 C 136.58 163.58 135.85 164.24 135.80 165.11 C 135.76 165.97 136.42 166.70 137.28 166.74 Z M 138.29 166.80 L 139.29 166.84 C 140.16 166.88 140.88 166.21 140.92 165.35 C 140.96 164.48 140.29 163.76 139.43 163.72 L 138.43 163.68 C 137.57 163.64 136.84 164.31 136.80 165.17 C 136.76 166.03 137.43 166.76 138.29 166.80 Z M 139.31 166.84 L 140.31 166.87 C 141.17 166.90 141.89 166.23 141.92 165.37 C 141.95 164.50 141.27 163.78 140.41 163.75 L 139.41 163.72 C 138.55 163.69 137.83 164.36 137.80 165.23 C 137.77 166.09 138.45 166.81 139.31 166.84 Z M 140.32 166.87 L 141.32 166.90 C 142.18 166.92 142.90 166.24 142.92 165.38 C 142.95 164.52 142.26 163.80 141.40 163.78 L 140.40 163.75 C 139.54 163.73 138.82 164.41 138.80 165.27 C 138.78 166.14 139.46 166.85 140.32 166.87 Z M 141.34 166.90 L 142.35 166.92 C 143.21 166.93 143.92 166.25 143.94 165.38 C 143.95 164.52 143.26 163.81 142.40 163.80 L 141.39 163.78 C 140.53 163.76 139.82 164.45 139.80 165.31 C 139.79 166.17 140.47 166.88 141.34 166.90 Z M 142.36 166.92 L 143.36 166.93 C 144.23 166.94 144.93 166.25 144.94 165.38 C 144.95 164.52 144.26 163.82 143.40 163.81 L 142.39 163.80 C 141.53 163.79 140.82 164.48 140.81 165.34 C 140.80 166.20 141.50 166.91 142.36 166.92 Z M 143.37 166.93 L 144.37 166.93 C 145.23 166.94 145.94 166.24 145.94 165.38 C 145.95 164.52 145.25 163.82 144.39 163.81 L 143.39 163.81 C 142.53 163.80 141.82 164.50 141.82 165.36 C 141.82 166.22 142.51 166.92 143.37 166.93 Z M 144.38 166.93 L 145.37 166.94 C 146.23 166.94 146.93 166.24 146.93 165.38 C 146.94 164.52 146.24 163.82 145.38 163.81 L 144.38 163.81 C 143.52 163.81 142.82 164.51 142.82 165.37 C 142.82 166.23 143.52 166.93 144.38 166.93 Z M 145.37 166.94 L 146.36 166.94 C 147.22 166.94 147.92 166.24 147.92 165.38 C 147.92 164.51 147.22 163.81 146.36 163.81 L 145.37 163.81 C 144.51 163.81 143.81 164.51 143.81 165.37 C 143.81 166.24 144.51 166.94 145.37 166.94 Z M 146.36 166.94 L 147.36 166.94 C 148.22 166.94 148.92 166.24 148.92 165.37 C 148.92 164.51 148.22 163.81 147.36 163.81 L 146.36 163.81 C 145.50 163.81 144.80 164.51 144.80 165.38 C 144.80 166.24 145.50 166.94 146.36 166.94 Z M 147.36 166.94 L 148.36 166.93 C 149.22 166.93 149.92 166.23 149.91 165.37 C 149.91 164.51 149.21 163.81 148.35 163.81 L 147.35 163.81 C 146.49 163.82 145.79 164.52 145.80 165.38 C 145.80 166.24 146.50 166.94 147.36 166.94 Z M 148.36 166.93 L 149.36 166.92 C 150.22 166.92 150.91 166.21 150.91 165.35 C 150.90 164.49 150.20 163.80 149.33 163.80 L 148.34 163.81 C 147.48 163.82 146.78 164.52 146.79 165.38 C 146.80 166.25 147.50 166.94 148.36 166.93 Z M 149.37 166.92 L 150.37 166.91 C 151.23 166.89 151.92 166.18 151.91 165.32 C 151.89 164.46 151.18 163.77 150.32 163.79 L 149.32 163.80 C 148.46 163.82 147.77 164.53 147.79 165.39 C 147.80 166.25 148.51 166.94 149.37 166.92 Z M 150.39 166.91 L 151.39 166.88 C 152.25 166.86 152.93 166.14 152.91 165.28 C 152.89 164.42 152.17 163.74 151.31 163.76 L 150.30 163.79 C 149.44 163.81 148.76 164.53 148.78 165.39 C 148.81 166.25 149.52 166.93 150.39 166.91 Z M 151.41 166.88 L 152.43 166.84 C 153.29 166.81 153.96 166.08 153.92 165.22 C 153.89 164.36 153.17 163.69 152.30 163.72 L 151.29 163.76 C 150.43 163.79 149.76 164.52 149.79 165.38 C 149.82 166.24 150.55 166.91 151.41 166.88 Z M 152.45 166.84 L 153.46 166.79 C 154.33 166.74 154.99 166.01 154.94 165.15 C 154.90 164.29 154.16 163.62 153.30 163.67 L 152.28 163.72 C 151.42 163.77 150.76 164.50 150.81 165.36 C 150.85 166.22 151.58 166.89 152.45 166.84 Z M 153.48 166.79 L 154.50 166.72 C 155.36 166.67 156.01 165.92 155.96 165.06 C 155.90 164.20 155.16 163.55 154.30 163.60 L 153.28 163.67 C 152.42 163.73 151.77 164.47 151.83 165.33 C 151.88 166.19 152.62 166.84 153.48 166.79 Z M 154.52 166.72 L 155.52 166.64 C 156.38 166.58 157.02 165.82 156.96 164.97 C 156.89 164.11 156.14 163.46 155.28 163.53 L 154.28 163.61 C 153.42 163.67 152.78 164.42 152.84 165.28 C 152.91 166.14 153.66 166.79 154.52 166.72 Z M 155.54 166.64 L 156.52 166.55 C 157.38 166.47 158.01 165.72 157.93 164.86 C 157.85 164.00 157.09 163.37 156.24 163.44 L 155.26 163.53 C 154.40 163.61 153.77 164.37 153.84 165.23 C 153.92 166.08 154.68 166.72 155.54 166.64 Z M 156.54 166.55 L 157.53 166.45 C 158.39 166.36 159.01 165.59 158.92 164.73 C 158.83 163.87 158.06 163.25 157.21 163.34 L 156.21 163.44 C 155.36 163.53 154.73 164.30 154.82 165.16 C 154.91 166.02 155.68 166.64 156.54 166.55 Z M 157.55 166.44 L 158.60 166.32 C 159.45 166.22 160.06 165.44 159.96 164.58 C 159.86 163.73 159.08 163.12 158.22 163.22 L 157.18 163.34 C 156.33 163.45 155.71 164.22 155.82 165.08 C 155.92 165.94 156.70 166.55 157.55 166.44 Z M 158.62 166.32 L 159.62 166.18 C 160.47 166.07 161.07 165.28 160.96 164.43 C 160.84 163.57 160.06 162.97 159.20 163.09 L 158.20 163.22 C 157.35 163.34 156.75 164.12 156.86 164.98 C 156.98 165.83 157.76 166.43 158.62 166.32 Z M 159.64 166.18 L 160.60 166.04 C 161.45 165.91 162.04 165.12 161.92 164.27 C 161.80 163.41 161.00 162.82 160.15 162.95 L 159.19 163.09 C 158.33 163.21 157.74 164.01 157.87 164.86 C 157.99 165.71 158.78 166.30 159.64 166.18 Z M 160.61 166.04 L 161.55 165.89 C 162.40 165.76 162.99 164.96 162.86 164.11 C 162.73 163.26 161.93 162.68 161.08 162.81 L 160.14 162.95 C 159.29 163.08 158.70 163.88 158.83 164.73 C 158.96 165.58 159.76 166.17 160.61 166.04 Z M 161.56 165.89 L 162.56 165.73 C 163.41 165.60 163.99 164.80 163.86 163.95 C 163.73 163.10 162.93 162.52 162.08 162.65 L 161.07 162.81 C 160.22 162.94 159.64 163.74 159.77 164.59 C 159.91 165.44 160.71 166.02 161.56 165.89 Z M 162.56 165.73 L 163.57 165.57 C 164.42 165.44 165.00 164.64 164.87 163.79 C 164.73 162.94 163.93 162.36 163.08 162.49 L 162.07 162.65 C 161.22 162.78 160.64 163.58 160.78 164.44 C 160.91 165.29 161.71 165.87 162.56 165.73 Z M 163.57 165.57 L 164.56 165.42 C 165.41 165.28 165.99 164.48 165.85 163.63 C 165.72 162.78 164.92 162.20 164.07 162.33 L 163.08 162.49 C 162.23 162.63 161.65 163.43 161.78 164.28 C 161.92 165.13 162.72 165.71 163.57 165.57 Z M 164.55 165.42 L 165.51 165.27 C 166.36 165.13 166.95 164.33 166.81 163.48 C 166.68 162.63 165.88 162.05 165.03 162.18 L 164.07 162.33 C 163.22 162.47 162.63 163.27 162.77 164.12 C 162.90 164.97 163.70 165.55 164.55 165.42 Z M 165.51 165.27 L 166.45 165.12 C 167.30 164.99 167.89 164.19 167.76 163.34 C 167.62 162.49 166.83 161.91 165.98 162.04 L 165.03 162.18 C 164.18 162.31 163.60 163.11 163.73 163.96 C 163.86 164.82 164.66 165.40 165.51 165.27 Z M 166.44 165.12 L 167.38 164.99 C 168.24 164.86 168.83 164.07 168.70 163.21 C 168.57 162.36 167.78 161.77 166.93 161.90 L 165.99 162.03 C 165.13 162.16 164.54 162.95 164.67 163.81 C 164.79 164.66 165.59 165.25 166.44 165.12 Z M 167.36 164.99 L 168.34 164.86 C 169.19 164.74 169.79 163.96 169.68 163.10 C 169.56 162.25 168.78 161.65 167.92 161.76 L 166.95 161.89 C 166.09 162.01 165.49 162.79 165.61 163.65 C 165.72 164.50 166.51 165.10 167.36 164.99 Z M 168.31 164.86 L 169.35 164.74 C 170.21 164.64 170.82 163.86 170.72 163.01 C 170.62 162.15 169.84 161.54 168.99 161.64 L 167.95 161.76 C 167.09 161.86 166.48 162.64 166.58 163.49 C 166.68 164.35 167.45 164.96 168.31 164.86 Z M 169.33 164.74 L 170.33 164.64 C 171.19 164.55 171.81 163.79 171.73 162.93 C 171.64 162.07 170.88 161.45 170.02 161.53 L 169.01 161.63 C 168.16 161.72 167.53 162.49 167.62 163.34 C 167.70 164.20 168.47 164.83 169.33 164.74 Z M 170.30 164.64 L 171.28 164.56 C 172.14 164.50 172.78 163.74 172.71 162.88 C 172.65 162.02 171.89 161.38 171.03 161.45 L 170.05 161.53 C 169.19 161.60 168.55 162.35 168.62 163.21 C 168.69 164.07 169.44 164.71 170.30 164.64 Z M 171.24 164.57 L 172.26 164.51 C 173.12 164.47 173.78 163.74 173.74 162.87 C 173.69 162.01 172.96 161.35 172.10 161.40 L 171.08 161.45 C 170.22 161.49 169.55 162.23 169.60 163.09 C 169.64 163.95 170.38 164.61 171.24 164.57 Z M 172.20 164.52 L 173.23 164.50 C 174.09 164.49 174.78 163.78 174.77 162.92 C 174.75 162.06 174.04 161.37 173.18 161.38 L 172.15 161.39 C 171.29 161.41 170.60 162.12 170.62 162.98 C 170.63 163.84 171.34 164.53 172.20 164.52 Z M 173.15 164.50 L 174.15 164.54 C 175.02 164.57 175.74 163.90 175.77 163.03 C 175.80 162.17 175.13 161.45 174.27 161.42 L 173.26 161.38 C 172.40 161.35 171.67 162.02 171.64 162.88 C 171.61 163.75 172.29 164.47 173.15 164.50 Z M 174.05 164.53 L 175.07 164.64 C 175.93 164.73 176.70 164.11 176.79 163.25 C 176.88 162.39 176.26 161.62 175.40 161.53 L 174.38 161.42 C 173.52 161.33 172.75 161.96 172.66 162.81 C 172.57 163.67 173.19 164.44 174.05 164.53 Z M 174.96 164.62 L 175.96 164.81 C 176.81 164.96 177.63 164.40 177.78 163.55 C 177.94 162.70 177.38 161.89 176.53 161.74 L 175.52 161.55 C 174.67 161.39 173.86 161.96 173.70 162.80 C 173.55 163.65 174.11 164.47 174.96 164.62 Z M 175.87 164.79 L 176.83 165.03 C 177.67 165.23 178.51 164.73 178.72 163.89 C 178.93 163.05 178.42 162.20 177.59 162.00 L 176.62 161.76 C 175.79 161.55 174.94 162.06 174.73 162.89 C 174.52 163.73 175.03 164.58 175.87 164.79 Z M 176.77 165.01 L 177.70 165.28 C 178.52 165.53 179.39 165.06 179.64 164.23 C 179.88 163.40 179.41 162.54 178.58 162.29 L 177.65 162.01 C 176.83 161.77 175.96 162.24 175.71 163.07 C 175.47 163.89 175.94 164.76 176.77 165.01 Z M 177.67 165.27 L 178.48 165.54 C 179.31 165.80 180.18 165.34 180.45 164.52 C 180.71 163.70 180.26 162.82 179.43 162.56 L 178.62 162.30 C 177.79 162.04 176.92 162.49 176.65 163.31 C 176.39 164.13 176.84 165.01 177.67 165.27 Z"
      fill="black"
      fill-rule="nonzero" /><path d="M 112.76 221.85 L 113.75 221.95 C 114.61 222.04 115.38 221.41 115.46 220.55 C 115.55 219.70 114.92 218.93 114.06 218.84 L 113.07 218.74 C 112.21 218.66 111.45 219.28 111.36 220.14 C 111.28 221.00 111.90 221.76 112.76 221.85 Z M 113.75 221.95 L 114.74 222.05 C 115.60 222.14 116.37 221.52 116.46 220.66 C 116.54 219.80 115.92 219.03 115.06 218.95 L 114.07 218.84 C 113.21 218.76 112.44 219.38 112.36 220.24 C 112.27 221.10 112.89 221.86 113.75 221.95 Z M 114.74 222.05 L 115.73 222.16 C 116.59 222.25 117.36 221.63 117.45 220.77 C 117.54 219.91 116.92 219.14 116.06 219.05 L 115.07 218.95 C 114.21 218.86 113.44 219.48 113.35 220.33 C 113.26 221.19 113.88 221.96 114.74 222.05 Z M 115.72 222.16 L 116.72 222.27 C 117.57 222.37 118.35 221.75 118.44 220.89 C 118.54 220.04 117.92 219.26 117.07 219.17 L 116.07 219.05 C 115.22 218.96 114.44 219.57 114.35 220.43 C 114.25 221.29 114.87 222.06 115.72 222.16 Z M 116.71 222.27 L 117.67 222.38 C 118.53 222.49 119.31 221.88 119.41 221.02 C 119.51 220.16 118.90 219.39 118.05 219.28 L 117.08 219.17 C 116.22 219.06 115.44 219.68 115.34 220.53 C 115.24 221.39 115.85 222.16 116.71 222.27 Z M 117.67 222.38 L 118.65 222.50 C 119.50 222.61 120.28 222.00 120.39 221.14 C 120.49 220.29 119.88 219.51 119.03 219.40 L 118.05 219.28 C 117.19 219.18 116.42 219.79 116.31 220.64 C 116.21 221.50 116.81 222.28 117.67 222.38 Z M 118.65 222.50 L 119.65 222.62 C 120.50 222.73 121.28 222.12 121.38 221.26 C 121.49 220.40 120.88 219.63 120.02 219.52 L 119.02 219.40 C 118.17 219.30 117.39 219.91 117.29 220.77 C 117.18 221.62 117.79 222.40 118.65 222.50 Z M 119.66 222.62 L 120.68 222.74 C 121.54 222.84 122.31 222.22 122.41 221.37 C 122.51 220.51 121.89 219.74 121.03 219.64 L 120.01 219.52 C 119.15 219.42 118.38 220.04 118.28 220.90 C 118.18 221.75 118.80 222.53 119.66 222.62 Z M 120.70 222.74 L 121.64 222.84 C 122.50 222.93 123.27 222.31 123.36 221.45 C 123.45 220.59 122.82 219.83 121.97 219.74 L 121.02 219.64 C 120.16 219.55 119.39 220.17 119.31 221.03 C 119.22 221.89 119.84 222.65 120.70 222.74 Z M 121.66 222.84 L 122.62 222.94 C 123.48 223.02 124.24 222.39 124.32 221.53 C 124.40 220.67 123.78 219.91 122.92 219.83 L 121.95 219.73 C 121.10 219.65 120.33 220.28 120.25 221.14 C 120.17 222.00 120.80 222.76 121.66 222.84 Z M 122.63 222.94 L 123.63 223.02 C 124.49 223.10 125.24 222.47 125.32 221.61 C 125.40 220.75 124.76 219.99 123.90 219.91 L 122.91 219.83 C 122.05 219.75 121.29 220.38 121.21 221.24 C 121.14 222.10 121.77 222.86 122.63 222.94 Z M 123.63 223.03 L 124.66 223.11 C 125.52 223.18 126.28 222.54 126.35 221.69 C 126.42 220.83 125.78 220.07 124.92 220.00 L 123.89 219.91 C 123.04 219.84 122.28 220.48 122.21 221.34 C 122.14 222.20 122.78 222.95 123.63 223.03 Z M 124.67 223.11 L 125.71 223.20 C 126.57 223.26 127.32 222.62 127.39 221.76 C 127.46 220.90 126.82 220.15 125.96 220.08 L 124.92 220.00 C 124.06 219.93 123.31 220.57 123.24 221.43 C 123.17 222.29 123.81 223.04 124.67 223.11 Z M 125.72 223.20 L 126.69 223.27 C 127.55 223.34 128.30 222.69 128.37 221.83 C 128.43 220.97 127.79 220.22 126.93 220.16 L 125.96 220.08 C 125.10 220.02 124.35 220.66 124.28 221.52 C 124.21 222.38 124.86 223.13 125.72 223.20 Z M 126.69 223.27 L 127.69 223.35 C 128.55 223.41 129.30 222.76 129.36 221.90 C 129.42 221.04 128.78 220.30 127.92 220.23 L 126.93 220.16 C 126.07 220.09 125.32 220.74 125.25 221.60 C 125.19 222.46 125.83 223.21 126.69 223.27 Z M 127.69 223.35 L 128.70 223.42 C 129.56 223.48 130.30 222.83 130.37 221.97 C 130.43 221.11 129.78 220.36 128.92 220.30 L 127.91 220.23 C 127.05 220.17 126.31 220.82 126.25 221.68 C 126.18 222.54 126.83 223.28 127.69 223.35 Z M 128.70 223.42 L 129.71 223.49 C 130.57 223.55 131.32 222.90 131.38 222.04 C 131.44 221.18 130.79 220.43 129.93 220.37 L 128.92 220.30 C 128.06 220.24 127.31 220.89 127.25 221.75 C 127.19 222.61 127.84 223.36 128.70 223.42 Z M 129.72 223.49 L 130.73 223.55 C 131.59 223.61 132.33 222.96 132.39 222.10 C 132.44 221.24 131.79 220.49 130.93 220.44 L 129.92 220.37 C 129.06 220.32 128.32 220.97 128.26 221.83 C 128.21 222.69 128.86 223.43 129.72 223.49 Z M 130.74 223.55 L 131.74 223.61 C 132.60 223.67 133.34 223.01 133.39 222.15 C 133.44 221.29 132.79 220.55 131.93 220.50 L 130.92 220.44 C 130.06 220.38 129.32 221.04 129.27 221.90 C 129.22 222.76 129.88 223.50 130.74 223.55 Z M 131.75 223.61 L 132.75 223.67 C 133.61 223.72 134.34 223.06 134.39 222.20 C 134.44 221.34 133.78 220.60 132.92 220.55 L 131.92 220.50 C 131.06 220.45 130.32 221.11 130.28 221.97 C 130.23 222.83 130.89 223.57 131.75 223.61 Z M 132.76 223.67 L 133.75 223.72 C 134.61 223.76 135.34 223.10 135.39 222.24 C 135.43 221.37 134.76 220.64 133.90 220.60 L 132.91 220.55 C 132.05 220.51 131.31 221.17 131.27 222.03 C 131.23 222.90 131.89 223.63 132.76 223.67 Z M 133.76 223.72 L 134.76 223.76 C 135.62 223.80 136.35 223.13 136.38 222.27 C 136.42 221.40 135.75 220.68 134.89 220.64 L 133.89 220.60 C 133.03 220.56 132.30 221.23 132.27 222.10 C 132.23 222.96 132.90 223.68 133.76 223.72 Z M 134.77 223.76 L 135.77 223.79 C 136.63 223.82 137.36 223.15 137.38 222.29 C 137.41 221.42 136.74 220.70 135.87 220.67 L 134.87 220.64 C 134.01 220.61 133.29 221.29 133.26 222.15 C 133.23 223.01 133.91 223.73 134.77 223.76 Z M 135.79 223.79 L 136.78 223.82 C 137.64 223.84 138.35 223.16 138.37 222.29 C 138.39 221.43 137.71 220.72 136.85 220.70 L 135.86 220.67 C 135.00 220.65 134.28 221.33 134.26 222.20 C 134.24 223.06 134.92 223.77 135.79 223.79 Z M 136.79 223.82 L 137.78 223.83 C 138.64 223.85 139.35 223.16 139.36 222.30 C 139.38 221.43 138.69 220.72 137.83 220.71 L 136.84 220.70 C 135.98 220.68 135.27 221.37 135.25 222.23 C 135.24 223.10 135.93 223.80 136.79 223.82 Z M 137.79 223.83 L 138.79 223.84 C 139.65 223.85 140.35 223.16 140.36 222.30 C 140.37 221.43 139.68 220.73 138.81 220.72 L 137.82 220.71 C 136.95 220.70 136.25 221.40 136.24 222.26 C 136.23 223.12 136.93 223.83 137.79 223.83 Z M 138.79 223.84 L 139.80 223.85 C 140.66 223.85 141.36 223.15 141.36 222.29 C 141.37 221.43 140.67 220.73 139.81 220.72 L 138.81 220.72 C 137.94 220.72 137.24 221.41 137.24 222.27 C 137.24 223.14 137.93 223.84 138.79 223.84 Z M 139.80 223.85 L 140.81 223.85 C 141.67 223.85 142.37 223.15 142.37 222.29 C 142.38 221.43 141.68 220.73 140.82 220.73 L 139.81 220.72 C 138.94 220.72 138.24 221.42 138.24 222.28 C 138.24 223.15 138.94 223.85 139.80 223.85 Z M 140.81 223.85 L 141.82 223.85 C 142.68 223.85 143.38 223.15 143.38 222.29 C 143.38 221.43 142.69 220.73 141.82 220.73 L 140.81 220.73 C 139.95 220.73 139.25 221.42 139.25 222.29 C 139.25 223.15 139.95 223.85 140.81 223.85 Z M 141.82 223.85 L 142.82 223.85 C 143.68 223.85 144.38 223.15 144.38 222.29 C 144.38 221.42 143.68 220.73 142.82 220.73 L 141.82 220.73 C 140.96 220.73 140.26 221.43 140.26 222.29 C 140.26 223.15 140.96 223.85 141.82 223.85 Z M 142.82 223.85 L 143.82 223.85 C 144.68 223.84 145.38 223.14 145.38 222.28 C 145.38 221.42 144.67 220.72 143.81 220.72 L 142.81 220.73 C 141.95 220.73 141.25 221.43 141.26 222.29 C 141.26 223.15 141.96 223.85 142.82 223.85 Z M 143.83 223.85 L 144.83 223.84 C 145.69 223.83 146.38 223.13 146.38 222.27 C 146.37 221.41 145.67 220.71 144.81 220.72 L 143.81 220.72 C 142.94 220.73 142.25 221.43 142.25 222.29 C 142.26 223.16 142.96 223.85 143.83 223.85 Z M 144.83 223.84 L 145.84 223.83 C 146.70 223.82 147.39 223.11 147.38 222.25 C 147.37 221.39 146.66 220.70 145.80 220.71 L 144.80 220.72 C 143.94 220.73 143.25 221.43 143.26 222.30 C 143.27 223.16 143.97 223.85 144.83 223.84 Z M 145.85 223.83 L 146.85 223.81 C 147.71 223.80 148.40 223.08 148.38 222.22 C 148.37 221.36 147.66 220.67 146.80 220.69 L 145.79 220.71 C 144.93 220.72 144.24 221.43 144.26 222.29 C 144.27 223.16 144.98 223.84 145.85 223.83 Z M 146.86 223.81 L 147.86 223.78 C 148.72 223.76 149.41 223.05 149.38 222.18 C 149.36 221.32 148.64 220.64 147.78 220.66 L 146.78 220.69 C 145.92 220.71 145.24 221.43 145.26 222.29 C 145.28 223.15 146.00 223.83 146.86 223.81 Z M 147.88 223.78 L 148.88 223.75 C 149.74 223.72 150.41 222.99 150.38 222.13 C 150.35 221.27 149.63 220.60 148.76 220.63 L 147.77 220.66 C 146.91 220.69 146.23 221.42 146.26 222.28 C 146.29 223.14 147.02 223.82 147.88 223.78 Z M 148.90 223.75 L 149.89 223.70 C 150.75 223.66 151.42 222.93 151.38 222.07 C 151.34 221.20 150.60 220.54 149.74 220.58 L 148.75 220.63 C 147.88 220.67 147.22 221.40 147.26 222.26 C 147.30 223.12 148.03 223.79 148.90 223.75 Z M 149.92 223.70 L 150.91 223.64 C 151.78 223.58 152.43 222.84 152.37 221.98 C 152.32 221.12 151.58 220.47 150.72 220.52 L 149.72 220.58 C 148.86 220.64 148.21 221.38 148.26 222.24 C 148.31 223.10 149.06 223.75 149.92 223.70 Z M 150.94 223.63 L 151.94 223.55 C 152.80 223.49 153.44 222.73 153.37 221.87 C 153.30 221.01 152.55 220.37 151.69 220.44 L 150.69 220.52 C 149.83 220.59 149.19 221.34 149.26 222.20 C 149.33 223.06 150.08 223.70 150.94 223.63 Z M 151.97 223.55 L 152.96 223.45 C 153.82 223.37 154.45 222.60 154.36 221.75 C 154.28 220.89 153.51 220.26 152.65 220.35 L 151.66 220.44 C 150.80 220.53 150.18 221.29 150.26 222.15 C 150.35 223.01 151.11 223.64 151.97 223.55 Z M 152.99 223.45 L 153.96 223.33 C 154.82 223.23 155.43 222.46 155.33 221.60 C 155.23 220.74 154.45 220.13 153.59 220.23 L 152.62 220.35 C 151.77 220.45 151.16 221.23 151.26 222.08 C 151.36 222.94 152.14 223.55 152.99 223.45 Z M 153.99 223.33 L 154.96 223.20 C 155.81 223.09 156.41 222.30 156.30 221.44 C 156.18 220.59 155.39 219.99 154.54 220.11 L 153.57 220.24 C 152.71 220.35 152.11 221.14 152.23 221.99 C 152.34 222.85 153.13 223.45 153.99 223.33 Z M 154.98 223.20 L 155.96 223.05 C 156.81 222.93 157.40 222.14 157.27 221.28 C 157.15 220.43 156.36 219.84 155.50 219.96 L 154.52 220.11 C 153.67 220.23 153.08 221.03 153.20 221.88 C 153.33 222.73 154.12 223.32 154.98 223.20 Z M 155.97 223.05 L 156.96 222.90 C 157.81 222.77 158.40 221.97 158.27 221.12 C 158.14 220.27 157.34 219.68 156.49 219.81 L 155.49 219.97 C 154.64 220.10 154.06 220.89 154.19 221.75 C 154.32 222.60 155.12 223.18 155.97 223.05 Z M 156.97 222.90 L 157.98 222.74 C 158.83 222.61 159.41 221.81 159.28 220.96 C 159.14 220.10 158.34 219.52 157.49 219.66 L 156.48 219.81 C 155.63 219.95 155.05 220.75 155.18 221.60 C 155.32 222.45 156.11 223.03 156.97 222.90 Z M 157.98 222.74 L 158.99 222.58 C 159.84 222.45 160.42 221.65 160.29 220.80 C 160.16 219.95 159.36 219.36 158.51 219.50 L 157.49 219.66 C 156.64 219.79 156.06 220.59 156.19 221.44 C 156.33 222.29 157.12 222.87 157.98 222.74 Z M 158.98 222.58 L 159.98 222.43 C 160.83 222.30 161.41 221.50 161.28 220.65 C 161.15 219.80 160.36 219.21 159.50 219.34 L 158.51 219.50 C 157.66 219.63 157.07 220.42 157.20 221.28 C 157.33 222.13 158.13 222.71 158.98 222.58 Z M 159.97 222.43 L 160.97 222.28 C 161.83 222.15 162.41 221.36 162.29 220.51 C 162.16 219.65 161.36 219.07 160.51 219.19 L 159.51 219.34 C 158.66 219.47 158.07 220.27 158.20 221.12 C 158.32 221.97 159.12 222.56 159.97 222.43 Z M 160.97 222.28 L 161.97 222.13 C 162.83 222.01 163.42 221.22 163.29 220.36 C 163.17 219.51 162.37 218.92 161.52 219.05 L 160.52 219.19 C 159.66 219.32 159.07 220.11 159.20 220.96 C 159.32 221.82 160.12 222.41 160.97 222.28 Z M 161.97 222.14 L 162.96 221.99 C 163.82 221.87 164.41 221.08 164.29 220.22 C 164.16 219.37 163.37 218.78 162.52 218.90 L 161.52 219.05 C 160.67 219.17 160.08 219.96 160.20 220.81 C 160.32 221.67 161.12 222.26 161.97 222.14 Z M 162.96 221.99 L 163.94 221.85 C 164.79 221.73 165.39 220.94 165.27 220.09 C 165.15 219.24 164.36 218.64 163.50 218.76 L 162.52 218.90 C 161.67 219.02 161.08 219.81 161.20 220.67 C 161.32 221.52 162.11 222.11 162.96 221.99 Z M 163.94 221.85 L 164.92 221.72 C 165.77 221.60 166.37 220.81 166.25 219.96 C 166.13 219.10 165.34 218.51 164.49 218.63 L 163.51 218.76 C 162.65 218.88 162.06 219.67 162.17 220.52 C 162.29 221.38 163.08 221.97 163.94 221.85 Z M 164.92 221.72 L 165.96 221.58 C 166.81 221.46 167.41 220.67 167.29 219.82 C 167.18 218.97 166.39 218.37 165.53 218.48 L 164.49 218.63 C 163.64 218.74 163.04 219.53 163.16 220.38 C 163.27 221.24 164.06 221.84 164.92 221.72 Z M 165.95 221.58 L 166.96 221.44 C 167.81 221.33 168.41 220.54 168.30 219.69 C 168.18 218.83 167.40 218.23 166.54 218.35 L 165.54 218.48 C 164.68 218.60 164.08 219.38 164.20 220.24 C 164.31 221.09 165.10 221.69 165.95 221.58 Z M 166.96 221.44 L 167.94 221.31 C 168.80 221.20 169.40 220.41 169.28 219.55 C 169.17 218.70 168.38 218.10 167.53 218.22 L 166.54 218.35 C 165.69 218.46 165.09 219.25 165.21 220.10 C 165.32 220.96 166.11 221.56 166.96 221.44 Z M 167.94 221.31 L 168.91 221.18 C 169.76 221.06 170.36 220.28 170.24 219.42 C 170.13 218.57 169.34 217.97 168.49 218.08 L 167.52 218.22 C 166.67 218.33 166.07 219.12 166.19 219.97 C 166.30 220.83 167.09 221.43 167.94 221.31 Z M 168.91 221.18 L 169.86 221.05 C 170.72 220.93 171.31 220.14 171.19 219.28 C 171.07 218.43 170.29 217.83 169.43 217.95 L 168.48 218.09 C 167.63 218.21 167.03 218.99 167.15 219.85 C 167.27 220.70 168.06 221.30 168.91 221.18 Z M 169.87 221.04 L 170.87 220.90 C 171.72 220.78 172.32 219.98 172.19 219.13 C 172.07 218.28 171.28 217.69 170.42 217.81 L 169.42 217.95 C 168.57 218.08 167.98 218.87 168.10 219.72 C 168.23 220.58 169.02 221.17 169.87 221.04 Z M 170.87 220.90 L 171.88 220.75 C 172.73 220.63 173.32 219.83 173.19 218.98 C 173.07 218.13 172.28 217.54 171.42 217.66 L 170.42 217.81 C 169.57 217.94 168.98 218.73 169.10 219.58 C 169.23 220.43 170.02 221.02 170.87 220.90 Z M 171.88 220.75 L 172.87 220.61 C 173.72 220.48 174.31 219.69 174.19 218.84 C 174.06 217.98 173.27 217.39 172.42 217.52 L 171.42 217.66 C 170.57 217.79 169.98 218.58 170.11 219.43 C 170.23 220.29 171.02 220.88 171.88 220.75 Z M 172.86 220.61 L 173.85 220.47 C 174.70 220.35 175.29 219.56 175.17 218.70 C 175.05 217.85 174.26 217.26 173.41 217.38 L 172.43 217.52 C 171.57 217.64 170.98 218.43 171.10 219.28 C 171.22 220.13 172.01 220.73 172.86 220.61 Z M 173.83 220.47 L 174.80 220.34 C 175.66 220.23 176.26 219.45 176.14 218.59 C 176.03 217.74 175.25 217.13 174.39 217.25 L 173.42 217.37 C 172.57 217.49 171.97 218.27 172.08 219.13 C 172.19 219.98 172.98 220.58 173.83 220.47 Z M 174.78 220.35 L 175.80 220.22 C 176.65 220.12 177.27 219.35 177.16 218.49 C 177.06 217.63 176.29 217.02 175.43 217.12 L 174.41 217.24 C 173.56 217.35 172.94 218.12 173.05 218.98 C 173.15 219.83 173.92 220.45 174.78 220.35 Z M 175.78 220.23 L 176.79 220.12 C 177.65 220.03 178.27 219.27 178.18 218.41 C 178.09 217.55 177.33 216.93 176.47 217.02 L 175.45 217.12 C 174.60 217.21 173.97 217.98 174.06 218.84 C 174.15 219.69 174.92 220.32 175.78 220.23 Z M 176.77 220.12 L 177.76 220.03 C 178.62 219.96 179.26 219.20 179.18 218.34 C 179.10 217.48 178.34 216.85 177.49 216.92 L 176.49 217.01 C 175.63 217.09 175.00 217.85 175.07 218.71 C 175.15 219.57 175.91 220.20 176.77 220.12 Z M 177.74 220.04 L 178.72 219.96 C 179.58 219.90 180.23 219.15 180.16 218.29 C 180.09 217.43 179.34 216.78 178.48 216.85 L 177.51 216.92 C 176.65 216.99 176.00 217.74 176.07 218.60 C 176.13 219.46 176.88 220.10 177.74 220.04 Z M 178.70 219.96 L 179.68 219.90 C 180.54 219.85 181.19 219.10 181.14 218.24 C 181.08 217.38 180.34 216.73 179.48 216.78 L 178.50 216.85 C 177.64 216.90 176.99 217.64 177.04 218.50 C 177.10 219.36 177.84 220.02 178.70 219.96 Z M 179.66 219.90 L 180.70 219.85 C 181.56 219.80 182.22 219.07 182.18 218.21 C 182.13 217.35 181.40 216.68 180.54 216.73 L 179.50 216.78 C 178.64 216.83 177.97 217.56 178.02 218.42 C 178.06 219.28 178.80 219.95 179.66 219.90 Z M 180.69 219.85 L 181.70 219.80 C 182.56 219.77 183.23 219.04 183.19 218.18 C 183.16 217.32 182.43 216.65 181.57 216.69 L 180.55 216.73 C 179.69 216.77 179.02 217.49 179.06 218.35 C 179.10 219.22 179.82 219.88 180.69 219.85 Z M 181.69 219.80 L 182.68 219.77 C 183.54 219.74 184.21 219.01 184.18 218.15 C 184.15 217.29 183.42 216.62 182.56 216.65 L 181.58 216.68 C 180.72 216.72 180.04 217.44 180.07 218.30 C 180.11 219.16 180.83 219.84 181.69 219.80 Z M 182.67 219.77 L 183.62 219.74 C 184.48 219.71 185.16 218.99 185.13 218.12 C 185.10 217.26 184.38 216.59 183.52 216.62 L 182.57 216.65 C 181.70 216.68 181.03 217.40 181.06 218.26 C 181.09 219.12 181.81 219.80 182.67 219.77 Z M 183.62 219.74 L 184.66 219.70 C 185.52 219.67 186.19 218.95 186.16 218.09 C 186.13 217.22 185.41 216.55 184.55 216.58 L 183.52 216.61 C 182.65 216.64 181.98 217.37 182.01 218.23 C 182.04 219.09 182.76 219.77 183.62 219.74 Z M 184.66 219.71 L 185.66 219.67 C 186.52 219.64 187.20 218.91 187.17 218.05 C 187.14 217.18 186.41 216.51 185.55 216.54 L 184.55 216.58 C 183.68 216.61 183.01 217.33 183.04 218.20 C 183.07 219.06 183.79 219.74 184.66 219.71 Z M 185.66 219.67 L 186.64 219.64 C 187.51 219.60 188.18 218.88 188.15 218.01 C 188.12 217.15 187.39 216.47 186.53 216.50 L 185.55 216.54 C 184.68 216.57 184.01 217.30 184.04 218.16 C 184.07 219.03 184.80 219.70 185.66 219.67 Z M 186.64 219.64 L 187.37 219.61 C 188.24 219.58 188.92 218.85 188.88 217.98 C 188.85 217.12 188.12 216.44 187.26 216.47 L 186.53 216.50 C 185.66 216.53 184.98 217.26 185.02 218.13 C 185.05 218.99 185.78 219.67 186.64 219.64 Z"
      fill="black"
      fill-rule="nonzero" /></svg>