<svg xmlns="http://www.w3.org/2000/svg" width="300" height="300" viewBox="0 0 300 300">
<path d="M 111.67 141.58 L 110.55 140.97 C 109.79 140.56 108.85 140.84 108.43 141.60 C 108.02 142.36 108.30 143.31 109.06 143.72 L 110.18 144.33 C 110.94 144.74 111.89 144.46 112.30 143.70 C 112.71 142.94 112.43 142.00 111.67 141.58 Z M 110.63 141.02 L 109.68 140.44 C 108.95 139.98 107.99 140.21 107.53 140.94 C 107.08 141.68 107.31 142.64 108.04 143.09 L 108.99 143.67 C 109.72 144.13 110.68 143.90 111.13 143.17 C 111.59 142.43 111.36 141.47 110.63 141.02 Z M 109.90 140.60 L 109.31 140.07 C 108.67 139.49 107.68 139.55 107.11 140.19 C 106.53 140.83 106.58 141.82 107.23 142.39 L 107.82 142.93 C 108.46 143.50 109.45 143.45 110.02 142.81 C 110.60 142.16 110.55 141.18 109.90 140.60 Z M 109.83 141.12 L 109.79 140.60 C 109.73 139.74 108.98 139.09 108.12 139.16 C 107.26 139.22 106.61 139.97 106.67 140.83 L 106.71 141.34 C 106.77 142.20 107.52 142.85 108.38 142.79 C 109.24 142.73 109.89 141.98 109.83 141.12 Z M 109.07 142.03 L 109.78 141.58 C 110.51 141.11 110.73 140.15 110.27 139.42 C 109.80 138.69 108.84 138.48 108.11 138.94 L 107.39 139.40 C 106.67 139.86 106.45 140.82 106.91 141.55 C 107.38 142.28 108.34 142.49 109.07 142.03 Z M 109.39 141.76 L 110.58 141.41 C 111.40 141.16 111.88 140.29 111.63 139.47 C 111.39 138.64 110.52 138.17 109.70 138.41 L 108.51 138.76 C 107.68 139.00 107.21 139.87 107.45 140.70 C 107.69 141.53 108.56 142.00 109.39 141.76 Z M 110.46 141.44 L 111.42 141.23 C 112.26 141.06 112.81 140.23 112.63 139.39 C 112.45 138.54 111.62 138.00 110.78 138.18 L 109.82 138.38 C 108.97 138.56 108.43 139.38 108.61 140.23 C 108.79 141.07 109.61 141.61 110.46 141.44 Z M 111.36 141.25 L 112.30 141.09 C 113.15 140.94 113.72 140.14 113.58 139.29 C 113.43 138.44 112.63 137.87 111.78 138.01 L 110.84 138.17 C 109.99 138.31 109.42 139.12 109.56 139.97 C 109.70 140.82 110.51 141.39 111.36 141.25 Z M 112.25 141.09 L 113.25 140.96 C 114.10 140.84 114.70 140.05 114.58 139.20 C 114.47 138.34 113.68 137.75 112.82 137.86 L 111.83 138.00 C 110.97 138.12 110.37 138.91 110.49 139.76 C 110.61 140.61 111.40 141.21 112.25 141.09 Z M 113.21 140.96 L 114.29 140.84 C 115.14 140.74 115.76 139.97 115.66 139.11 C 115.57 138.26 114.79 137.64 113.94 137.74 L 112.86 137.86 C 112.00 137.96 111.39 138.73 111.49 139.59 C 111.58 140.44 112.36 141.06 113.21 140.96 Z M 114.26 140.84 L 115.28 140.74 C 116.14 140.66 116.77 139.90 116.68 139.04 C 116.60 138.18 115.84 137.55 114.98 137.64 L 113.96 137.74 C 113.10 137.82 112.47 138.58 112.56 139.44 C 112.64 140.30 113.40 140.93 114.26 140.84 Z M 115.26 140.75 L 116.28 140.66 C 117.14 140.59 117.78 139.83 117.70 138.97 C 117.63 138.11 116.87 137.47 116.02 137.55 L 115.00 137.64 C 114.14 137.71 113.50 138.46 113.57 139.32 C 113.65 140.18 114.40 140.82 115.26 140.75 Z M 116.26 140.66 L 117.29 140.58 C 118.15 140.52 118.80 139.77 118.73 138.91 C 118.67 138.05 117.92 137.41 117.06 137.47 L 116.03 137.55 C 115.17 137.61 114.53 138.36 114.59 139.22 C 114.66 140.08 115.41 140.72 116.26 140.66 Z M 117.28 140.58 L 118.28 140.52 C 119.14 140.46 119.80 139.72 119.74 138.86 C 119.69 138.00 118.94 137.35 118.08 137.40 L 117.08 137.47 C 116.22 137.52 115.56 138.27 115.62 139.13 C 115.68 139.99 116.42 140.64 117.28 140.58 Z M 118.27 140.52 L 119.22 140.47 C 120.08 140.42 120.74 139.69 120.69 138.83 C 120.65 137.97 119.91 137.31 119.05 137.35 L 118.10 137.40 C 117.24 137.45 116.58 138.18 116.62 139.04 C 116.67 139.91 117.41 140.57 118.27 140.52 Z M 119.19 140.47 L 120.29 140.43 C 121.15 140.40 121.83 139.67 121.79 138.81 C 121.76 137.95 121.04 137.28 120.18 137.31 L 119.08 137.35 C 118.21 137.38 117.54 138.11 117.57 138.97 C 117.61 139.83 118.33 140.50 119.19 140.47 Z M 120.27 140.43 L 121.27 140.41 C 122.14 140.39 122.82 139.68 122.80 138.82 C 122.78 137.96 122.07 137.27 121.21 137.29 L 120.20 137.31 C 119.34 137.33 118.66 138.04 118.67 138.90 C 118.69 139.76 119.40 140.45 120.27 140.43 Z M 121.25 140.41 L 122.20 140.40 C 123.06 140.40 123.75 139.69 123.75 138.83 C 123.74 137.97 123.04 137.28 122.17 137.28 L 121.23 137.29 C 120.37 137.29 119.67 138.00 119.68 138.86 C 119.69 139.72 120.39 140.42 121.25 140.41 Z M 122.19 140.40 L 123.12 140.40 C 123.98 140.40 124.68 139.70 124.68 138.84 C 124.68 137.98 123.98 137.28 123.12 137.28 L 122.18 137.28 C 121.32 137.28 120.62 137.98 120.62 138.84 C 120.62 139.71 121.32 140.40 122.19 140.40 Z M 123.12 140.40 L 124.10 140.40 C 124.96 140.41 125.66 139.71 125.66 138.84 C 125.66 137.98 124.96 137.28 124.10 137.28 L 123.12 137.28 C 122.26 137.28 121.56 137.98 121.56 138.84 C 121.56 139.70 122.26 140.40 123.12 140.40 Z M 124.09 140.40 L 125.09 140.41 C 125.95 140.41 126.65 139.72 126.66 138.85 C 126.66 137.99 125.96 137.29 125.10 137.29 L 124.10 137.28 C 123.24 137.28 122.54 137.97 122.54 138.84 C 122.53 139.70 123.23 140.40 124.09 140.40 Z M 125.08 140.41 L 126.10 140.42 C 126.96 140.43 127.67 139.74 127.68 138.88 C 127.69 138.01 126.99 137.31 126.13 137.30 L 125.11 137.29 C 124.25 137.28 123.54 137.97 123.53 138.83 C 123.53 139.69 124.22 140.40 125.08 140.41 Z M 126.09 140.42 L 127.07 140.44 C 127.93 140.46 128.64 139.77 128.66 138.91 C 128.67 138.05 127.99 137.33 127.13 137.32 L 126.15 137.30 C 125.28 137.28 124.57 137.97 124.55 138.83 C 124.54 139.69 125.22 140.40 126.09 140.42 Z M 127.05 140.44 L 128.02 140.47 C 128.88 140.50 129.60 139.82 129.63 138.96 C 129.66 138.10 128.98 137.38 128.12 137.35 L 127.15 137.32 C 126.29 137.29 125.56 137.97 125.54 138.83 C 125.51 139.69 126.19 140.41 127.05 140.44 Z M 127.99 140.47 L 128.99 140.52 C 129.85 140.56 130.58 139.90 130.63 139.04 C 130.67 138.18 130.01 137.44 129.15 137.40 L 128.15 137.35 C 127.29 137.31 126.55 137.97 126.51 138.83 C 126.47 139.69 127.13 140.42 127.99 140.47 Z M 128.95 140.52 L 129.99 140.59 C 130.85 140.66 131.60 140.01 131.66 139.15 C 131.73 138.29 131.08 137.54 130.22 137.48 L 129.19 137.40 C 128.33 137.34 127.58 137.98 127.51 138.84 C 127.45 139.70 128.09 140.45 128.95 140.52 Z M 129.95 140.59 L 130.94 140.69 C 131.80 140.78 132.56 140.15 132.65 139.29 C 132.74 138.43 132.11 137.67 131.25 137.58 L 130.26 137.48 C 129.40 137.40 128.64 138.02 128.55 138.88 C 128.46 139.74 129.09 140.50 129.95 140.59 Z M 130.91 140.69 L 131.90 140.81 C 132.75 140.91 133.53 140.30 133.64 139.44 C 133.74 138.59 133.13 137.81 132.27 137.71 L 131.29 137.59 C 130.43 137.48 129.65 138.09 129.55 138.95 C 129.44 139.80 130.05 140.58 130.91 140.69 Z M 131.87 140.80 L 132.87 140.94 C 133.73 141.06 134.52 140.46 134.63 139.60 C 134.75 138.75 134.15 137.96 133.30 137.85 L 132.30 137.71 C 131.44 137.59 130.66 138.19 130.54 139.04 C 130.42 139.90 131.02 140.69 131.87 140.80 Z M 132.86 140.94 L 133.86 141.08 C 134.71 141.21 135.51 140.62 135.63 139.77 C 135.76 138.91 135.17 138.12 134.31 138.00 L 133.31 137.85 C 132.46 137.72 131.67 138.31 131.54 139.17 C 131.42 140.02 132.01 140.81 132.86 140.94 Z M 133.85 141.08 L 134.85 141.24 C 135.70 141.37 136.50 140.78 136.63 139.93 C 136.76 139.08 136.18 138.28 135.32 138.15 L 134.32 138.00 C 133.47 137.87 132.67 138.45 132.54 139.30 C 132.41 140.16 133.00 140.95 133.85 141.08 Z M 134.84 141.24 L 135.84 141.39 C 136.70 141.53 137.49 140.95 137.63 140.10 C 137.76 139.24 137.18 138.44 136.33 138.31 L 135.33 138.15 C 134.48 138.02 133.68 138.60 133.54 139.45 C 133.41 140.30 133.99 141.10 134.84 141.24 Z M 135.83 141.39 L 136.82 141.55 C 137.67 141.69 138.47 141.12 138.61 140.27 C 138.75 139.42 138.18 138.61 137.33 138.47 L 136.34 138.31 C 135.49 138.17 134.69 138.75 134.55 139.60 C 134.41 140.45 134.98 141.25 135.83 141.39 Z M 136.80 141.55 L 137.78 141.72 C 138.63 141.87 139.44 141.30 139.59 140.45 C 139.73 139.61 139.17 138.80 138.32 138.65 L 137.34 138.48 C 136.49 138.33 135.68 138.90 135.53 139.74 C 135.39 140.59 135.95 141.40 136.80 141.55 Z M 137.76 141.72 L 138.73 141.90 C 139.58 142.06 140.40 141.50 140.55 140.66 C 140.71 139.81 140.16 138.99 139.31 138.83 L 138.34 138.65 C 137.49 138.49 136.67 139.05 136.51 139.90 C 136.35 140.74 136.91 141.56 137.76 141.72 Z M 138.71 141.90 L 139.69 142.10 C 140.54 142.27 141.36 141.72 141.53 140.88 C 141.70 140.03 141.16 139.21 140.31 139.04 L 139.33 138.84 C 138.48 138.67 137.66 139.21 137.49 140.06 C 137.32 140.90 137.87 141.73 138.71 141.90 Z M 139.68 142.09 L 140.66 142.30 C 141.50 142.48 142.33 141.95 142.51 141.10 C 142.69 140.26 142.15 139.43 141.31 139.25 L 140.33 139.04 C 139.49 138.86 138.66 139.40 138.48 140.24 C 138.30 141.08 138.83 141.91 139.68 142.09 Z M 140.64 142.30 L 141.62 142.52 C 142.46 142.71 143.30 142.17 143.48 141.33 C 143.67 140.49 143.14 139.66 142.30 139.47 L 141.32 139.25 C 140.48 139.07 139.65 139.60 139.46 140.44 C 139.27 141.28 139.80 142.11 140.64 142.30 Z M 141.61 142.52 L 142.58 142.74 C 143.42 142.93 144.26 142.40 144.45 141.56 C 144.64 140.72 144.12 139.88 143.28 139.69 L 142.31 139.47 C 141.47 139.28 140.63 139.81 140.44 140.65 C 140.25 141.49 140.77 142.32 141.61 142.52 Z M 142.58 142.74 L 143.57 142.96 C 144.41 143.16 145.25 142.63 145.44 141.79 C 145.63 140.95 145.11 140.12 144.27 139.92 L 143.28 139.69 C 142.44 139.50 141.60 140.02 141.41 140.86 C 141.22 141.70 141.74 142.54 142.58 142.74 Z M 143.57 142.96 L 144.55 143.19 C 145.39 143.39 146.23 142.87 146.42 142.03 C 146.62 141.19 146.09 140.35 145.26 140.15 L 144.27 139.92 C 143.43 139.73 142.59 140.25 142.40 141.09 C 142.20 141.93 142.73 142.77 143.57 142.96 Z M 144.54 143.19 L 145.51 143.42 C 146.35 143.62 147.19 143.10 147.39 142.26 C 147.59 141.42 147.07 140.58 146.23 140.38 L 145.26 140.15 C 144.42 139.95 143.58 140.47 143.38 141.31 C 143.18 142.15 143.70 142.99 144.54 143.19 Z M 145.51 143.42 L 146.46 143.65 C 147.30 143.85 148.15 143.33 148.35 142.49 C 148.55 141.65 148.03 140.81 147.19 140.61 L 146.23 140.38 C 145.40 140.18 144.55 140.70 144.35 141.54 C 144.15 142.38 144.67 143.22 145.51 143.42 Z M 146.46 143.65 L 147.44 143.88 C 148.28 144.09 149.12 143.57 149.33 142.74 C 149.53 141.90 149.01 141.05 148.18 140.85 L 147.20 140.61 C 146.36 140.41 145.51 140.92 145.31 141.76 C 145.11 142.60 145.62 143.44 146.46 143.65 Z M 147.44 143.88 L 148.41 144.12 C 149.25 144.33 150.09 143.82 150.30 142.98 C 150.50 142.14 149.99 141.30 149.16 141.09 L 148.18 140.85 C 147.34 140.64 146.50 141.16 146.29 141.99 C 146.09 142.83 146.60 143.68 147.44 143.88 Z M 148.41 144.12 L 149.37 144.36 C 150.21 144.57 151.05 144.06 151.26 143.22 C 151.47 142.39 150.96 141.54 150.12 141.33 L 149.16 141.09 C 148.32 140.88 147.48 141.39 147.27 142.23 C 147.06 143.07 147.57 143.91 148.41 144.12 Z M 149.37 144.36 L 150.33 144.60 C 151.17 144.81 152.01 144.30 152.22 143.47 C 152.43 142.63 151.92 141.78 151.09 141.57 L 150.13 141.33 C 149.29 141.12 148.44 141.63 148.23 142.47 C 148.02 143.30 148.53 144.15 149.37 144.36 Z M 150.33 144.60 L 151.29 144.84 C 152.12 145.05 152.97 144.54 153.18 143.70 C 153.39 142.87 152.88 142.02 152.04 141.81 L 151.08 141.57 C 150.25 141.36 149.40 141.87 149.19 142.71 C 148.98 143.55 149.49 144.39 150.33 144.60 Z M 151.29 144.84 L 152.25 145.08 C 153.09 145.28 153.94 144.77 154.14 143.93 C 154.35 143.10 153.84 142.25 153.00 142.05 L 152.04 141.81 C 151.20 141.60 150.35 142.12 150.15 142.95 C 149.94 143.79 150.45 144.64 151.29 144.84 Z M 152.27 145.08 L 153.24 145.31 C 154.08 145.51 154.92 144.99 155.12 144.15 C 155.32 143.31 154.80 142.47 153.96 142.27 L 152.99 142.04 C 152.15 141.84 151.31 142.36 151.11 143.20 C 150.91 144.04 151.43 144.88 152.27 145.08 Z M 153.26 145.32 L 154.25 145.54 C 155.10 145.73 155.93 145.20 156.12 144.36 C 156.31 143.52 155.78 142.68 154.94 142.49 L 153.95 142.27 C 153.11 142.08 152.27 142.61 152.08 143.45 C 151.89 144.29 152.42 145.13 153.26 145.32 Z M 154.27 145.54 L 155.27 145.76 C 156.11 145.93 156.94 145.40 157.12 144.55 C 157.30 143.71 156.76 142.88 155.91 142.70 L 154.92 142.49 C 154.08 142.31 153.25 142.85 153.07 143.69 C 152.89 144.54 153.43 145.37 154.27 145.54 Z M 155.28 145.76 L 156.28 145.96 C 157.12 146.13 157.95 145.58 158.12 144.74 C 158.29 143.89 157.74 143.07 156.89 142.90 L 155.90 142.70 C 155.05 142.53 154.23 143.08 154.06 143.92 C 153.89 144.77 154.44 145.59 155.28 145.76 Z M 156.29 145.96 L 157.27 146.15 C 158.12 146.31 158.94 145.76 159.10 144.91 C 159.26 144.06 158.71 143.24 157.86 143.08 L 156.88 142.89 C 156.03 142.73 155.21 143.29 155.05 144.14 C 154.89 144.98 155.45 145.80 156.29 145.96 Z M 157.29 146.15 L 158.25 146.33 C 159.10 146.48 159.91 145.92 160.07 145.07 C 160.22 144.22 159.66 143.41 158.81 143.25 L 157.85 143.08 C 157.00 142.93 156.19 143.49 156.03 144.34 C 155.88 145.18 156.44 146.00 157.29 146.15 Z M 158.26 146.33 L 159.30 146.51 C 160.15 146.66 160.95 146.09 161.10 145.24 C 161.25 144.39 160.68 143.58 159.83 143.43 L 158.80 143.25 C 157.95 143.11 157.14 143.67 156.99 144.52 C 156.85 145.37 157.42 146.18 158.26 146.33 Z M 159.31 146.51 L 160.29 146.67 C 161.14 146.82 161.94 146.24 162.09 145.39 C 162.23 144.54 161.65 143.74 160.80 143.59 L 159.82 143.43 C 158.97 143.29 158.16 143.86 158.02 144.71 C 157.88 145.56 158.46 146.37 159.31 146.51 Z M 160.29 146.67 L 161.25 146.83 C 162.10 146.97 162.90 146.39 163.04 145.54 C 163.18 144.69 162.60 143.89 161.75 143.75 L 160.80 143.59 C 159.95 143.45 159.14 144.03 159.01 144.88 C 158.87 145.73 159.44 146.54 160.29 146.67 Z M 161.25 146.83 L 162.22 146.99 C 163.07 147.13 163.88 146.55 164.02 145.70 C 164.15 144.85 163.58 144.05 162.73 143.91 L 161.75 143.75 C 160.90 143.61 160.10 144.19 159.96 145.04 C 159.82 145.89 160.40 146.69 161.25 146.83 Z M 162.23 146.99 L 163.22 147.15 C 164.07 147.28 164.87 146.70 165.01 145.85 C 165.14 145.00 164.56 144.20 163.71 144.07 L 162.72 143.91 C 161.87 143.77 161.07 144.35 160.93 145.20 C 160.80 146.05 161.38 146.85 162.23 146.99 Z M 163.24 147.15 L 164.22 147.30 C 165.07 147.42 165.87 146.83 165.99 145.98 C 166.12 145.13 165.53 144.33 164.68 144.21 L 163.69 144.06 C 162.84 143.94 162.05 144.53 161.92 145.38 C 161.79 146.23 162.38 147.03 163.24 147.15 Z M 164.25 147.30 L 165.24 147.43 C 166.10 147.54 166.88 146.93 166.99 146.08 C 167.10 145.22 166.49 144.44 165.64 144.33 L 164.65 144.20 C 163.79 144.09 163.01 144.70 162.90 145.56 C 162.79 146.41 163.40 147.19 164.25 147.30 Z M 165.28 147.43 L 166.28 147.54 C 167.13 147.63 167.90 147.00 167.99 146.15 C 168.08 145.29 167.46 144.52 166.60 144.43 L 165.60 144.33 C 164.75 144.24 163.98 144.86 163.89 145.71 C 163.80 146.57 164.42 147.34 165.28 147.43 Z M 166.30 147.54 L 167.29 147.63 C 168.15 147.71 168.91 147.07 168.99 146.22 C 169.07 145.36 168.43 144.60 167.58 144.52 L 166.58 144.43 C 165.72 144.35 164.96 144.98 164.88 145.84 C 164.81 146.70 165.44 147.46 166.30 147.54 Z M 167.30 147.63 L 168.25 147.71 C 169.10 147.78 169.86 147.15 169.93 146.29 C 170.01 145.43 169.37 144.67 168.51 144.60 L 167.57 144.52 C 166.71 144.44 165.95 145.08 165.88 145.94 C 165.81 146.80 166.44 147.56 167.30 147.63 Z M 168.25 147.71 L 169.08 147.78 C 169.93 147.85 170.69 147.21 170.76 146.35 C 170.83 145.49 170.19 144.74 169.33 144.67 L 168.51 144.60 C 167.65 144.53 166.89 145.17 166.82 146.03 C 166.75 146.89 167.39 147.64 168.25 147.71 Z M 169.10 147.78 L 170.02 147.84 C 170.88 147.90 171.62 147.25 171.68 146.39 C 171.74 145.53 171.09 144.78 170.22 144.73 L 169.31 144.66 C 168.45 144.61 167.70 145.26 167.64 146.12 C 167.59 146.98 168.24 147.72 169.10 147.78 Z M 170.05 147.84 L 171.15 147.89 C 172.01 147.93 172.74 147.27 172.78 146.41 C 172.82 145.55 172.15 144.82 171.29 144.77 L 170.19 144.72 C 169.33 144.68 168.60 145.35 168.56 146.21 C 168.52 147.07 169.19 147.80 170.05 147.84 Z M 171.17 147.89 L 172.33 147.93 C 173.19 147.95 173.91 147.27 173.94 146.41 C 173.96 145.55 173.28 144.83 172.42 144.81 L 171.26 144.77 C 170.40 144.75 169.68 145.43 169.66 146.29 C 169.63 147.15 170.31 147.87 171.17 147.89 Z M 172.35 147.93 L 173.31 147.94 C 174.17 147.96 174.88 147.27 174.90 146.41 C 174.91 145.55 174.22 144.84 173.36 144.82 L 172.40 144.81 C 171.54 144.79 170.83 145.48 170.82 146.34 C 170.80 147.20 171.49 147.91 172.35 147.93 Z M 173.32 147.94 L 174.35 147.95 C 175.21 147.96 175.92 147.27 175.92 146.40 C 175.93 145.54 175.24 144.84 174.38 144.83 L 173.35 144.82 C 172.49 144.81 171.78 145.51 171.77 146.37 C 171.77 147.23 172.46 147.94 173.32 147.94 Z M 174.36 147.95 L 175.42 147.95 C 176.28 147.96 176.98 147.26 176.98 146.40 C 176.98 145.53 176.29 144.83 175.42 144.83 L 174.37 144.83 C 173.50 144.83 172.80 145.53 172.80 146.39 C 172.80 147.25 173.50 147.95 174.36 147.95 Z M 175.43 147.95 L 176.48 147.95 C 177.34 147.95 178.04 147.24 178.03 146.38 C 178.03 145.52 177.33 144.82 176.47 144.83 L 175.41 144.83 C 174.55 144.84 173.86 145.54 173.86 146.40 C 173.86 147.26 174.57 147.96 175.43 147.95 Z M 176.49 147.95 L 177.50 147.94 C 178.36 147.93 179.05 147.22 179.04 146.36 C 179.03 145.50 178.32 144.81 177.46 144.82 L 176.46 144.83 C 175.59 144.84 174.90 145.54 174.91 146.41 C 174.92 147.27 175.63 147.96 176.49 147.95 Z M 177.51 147.94 L 178.48 147.92 C 179.35 147.90 180.03 147.19 180.01 146.33 C 180.00 145.46 179.28 144.78 178.42 144.80 L 177.45 144.82 C 176.59 144.83 175.90 145.55 175.92 146.41 C 175.94 147.27 176.65 147.95 177.51 147.94 Z M 178.51 147.92 L 179.73 147.87 C 180.60 147.84 181.27 147.12 181.24 146.26 C 181.21 145.40 180.49 144.72 179.63 144.75 L 178.40 144.80 C 177.54 144.83 176.86 145.55 176.89 146.41 C 176.92 147.27 177.64 147.95 178.51 147.92 Z M 179.76 147.87 L 180.78 147.82 C 181.64 147.77 182.30 147.04 182.25 146.18 C 182.21 145.31 181.47 144.65 180.61 144.70 L 179.60 144.76 C 178.74 144.80 178.08 145.54 178.12 146.40 C 178.17 147.26 178.90 147.92 179.76 147.87 Z M 180.81 147.82 L 181.68 147.75 C 182.54 147.69 183.19 146.94 183.13 146.08 C 183.07 145.22 182.32 144.58 181.46 144.64 L 180.58 144.70 C 179.72 144.76 179.08 145.51 179.14 146.37 C 179.20 147.23 179.95 147.88 180.81 147.82 Z M 181.70 147.75 L 182.40 147.69 C 183.26 147.62 183.90 146.87 183.83 146.01 C 183.76 145.15 183.01 144.51 182.15 144.58 L 181.44 144.64 C 180.58 144.71 179.94 145.46 180.02 146.32 C 180.09 147.18 180.84 147.82 181.70 147.75 Z"
      fill="black"
      fill-rule="nonzero" /><path d="M 110.83 190.00 L 109.88 189.07 C 109.27 188.46 108.28 188.47 107.67 189.09 C 107.07 189.70 107.08 190.69 107.69 191.29 L 108.64 192.22 C 109.25 192.83 110.24 192.82 110.84 192.21 C 111.45 191.59 111.44 190.60 110.83 190.00 Z M 110.00 189.20 L 109.37 188.41 C 108.83 187.74 107.85 187.63 107.17 188.17 C 106.50 188.71 106.39 189.69 106.93 190.37 L 107.57 191.16 C 108.11 191.83 109.09 191.94 109.76 191.40 C 110.44 190.86 110.54 189.88 110.00 189.20 Z M 109.71 189.34 L 109.70 188.83 C 109.67 187.97 108.95 187.29 108.09 187.31 C 107.23 187.34 106.55 188.06 106.58 188.92 L 106.59 189.43 C 106.62 190.30 107.33 190.97 108.20 190.95 C 109.06 190.92 109.74 190.21 109.71 189.34 Z M 108.53 190.38 L 109.04 190.25 C 109.88 190.03 110.37 189.18 110.15 188.34 C 109.93 187.51 109.08 187.01 108.25 187.23 L 107.74 187.37 C 106.91 187.59 106.41 188.44 106.63 189.27 C 106.85 190.11 107.70 190.60 108.53 190.38 Z M 108.60 190.30 L 109.45 190.33 C 110.31 190.36 111.03 189.68 111.06 188.82 C 111.09 187.95 110.41 187.23 109.55 187.21 L 108.69 187.18 C 107.83 187.15 107.11 187.83 107.08 188.69 C 107.06 189.56 107.73 190.28 108.60 190.30 Z M 109.32 190.32 L 110.43 190.45 C 111.29 190.55 112.06 189.93 112.16 189.08 C 112.26 188.22 111.65 187.44 110.79 187.35 L 109.68 187.22 C 108.82 187.12 108.05 187.73 107.95 188.59 C 107.85 189.44 108.46 190.22 109.32 190.32 Z M 110.39 190.44 L 111.65 190.62 C 112.51 190.74 113.30 190.15 113.42 189.29 C 113.54 188.44 112.94 187.65 112.09 187.53 L 110.83 187.35 C 109.97 187.23 109.18 187.82 109.06 188.68 C 108.94 189.53 109.54 190.32 110.39 190.44 Z M 111.66 190.62 L 112.84 190.78 C 113.69 190.90 114.48 190.30 114.60 189.45 C 114.71 188.59 114.11 187.81 113.26 187.69 L 112.08 187.53 C 111.23 187.41 110.44 188.01 110.32 188.86 C 110.21 189.72 110.81 190.51 111.66 190.62 Z M 112.86 190.79 L 113.90 190.91 C 114.76 191.01 115.54 190.40 115.64 189.55 C 115.74 188.69 115.13 187.92 114.28 187.81 L 113.24 187.69 C 112.38 187.58 111.60 188.19 111.50 189.05 C 111.40 189.91 112.01 190.68 112.86 190.79 Z M 113.93 190.91 L 114.95 191.02 C 115.81 191.11 116.58 190.49 116.67 189.63 C 116.76 188.78 116.14 188.01 115.28 187.92 L 114.25 187.81 C 113.40 187.72 112.63 188.34 112.54 189.20 C 112.45 190.06 113.07 190.82 113.93 190.91 Z M 114.97 191.02 L 115.98 191.12 C 116.83 191.19 117.59 190.56 117.67 189.70 C 117.75 188.84 117.12 188.09 116.26 188.01 L 115.26 187.92 C 114.40 187.84 113.64 188.47 113.56 189.33 C 113.48 190.19 114.12 190.95 114.97 191.02 Z M 116.00 191.12 L 116.96 191.19 C 117.82 191.26 118.57 190.62 118.64 189.76 C 118.71 188.90 118.06 188.15 117.20 188.08 L 116.24 188.01 C 115.38 187.94 114.63 188.58 114.56 189.44 C 114.49 190.30 115.14 191.05 116.00 191.12 Z M 116.99 191.19 L 117.91 191.25 C 118.77 191.30 119.51 190.65 119.56 189.79 C 119.62 188.93 118.96 188.19 118.10 188.14 L 117.18 188.08 C 116.32 188.02 115.58 188.68 115.53 189.54 C 115.47 190.40 116.13 191.14 116.99 191.19 Z M 117.94 191.25 L 119.00 191.30 C 119.87 191.34 120.60 190.67 120.63 189.81 C 120.67 188.95 120.01 188.22 119.14 188.18 L 118.08 188.13 C 117.21 188.09 116.48 188.76 116.45 189.62 C 116.41 190.48 117.07 191.21 117.94 191.25 Z M 119.03 191.30 L 120.05 191.33 C 120.91 191.35 121.63 190.67 121.65 189.81 C 121.68 188.95 121.00 188.23 120.13 188.21 L 119.12 188.18 C 118.25 188.16 117.54 188.84 117.51 189.70 C 117.49 190.56 118.17 191.28 119.03 191.30 Z M 120.07 191.33 L 121.05 191.34 C 121.91 191.35 122.62 190.66 122.63 189.80 C 122.64 188.94 121.95 188.23 121.09 188.22 L 120.11 188.21 C 119.25 188.20 118.54 188.89 118.53 189.75 C 118.52 190.61 119.21 191.32 120.07 191.33 Z M 121.06 191.34 L 122.02 191.35 C 122.88 191.35 123.58 190.65 123.58 189.79 C 123.59 188.93 122.89 188.23 122.03 188.22 L 121.07 188.22 C 120.21 188.22 119.51 188.91 119.51 189.78 C 119.50 190.64 120.20 191.34 121.06 191.34 Z M 122.02 191.35 L 122.98 191.35 C 123.84 191.35 124.54 190.65 124.54 189.79 C 124.54 188.92 123.84 188.22 122.98 188.22 L 122.02 188.22 C 121.16 188.22 120.46 188.92 120.46 189.78 C 120.46 190.65 121.16 191.35 122.02 191.35 Z M 122.98 191.35 L 123.95 191.35 C 124.81 191.35 125.51 190.65 125.51 189.78 C 125.51 188.92 124.81 188.22 123.95 188.22 L 122.98 188.22 C 122.11 188.22 121.42 188.92 121.42 189.78 C 121.42 190.65 122.11 191.35 122.98 191.35 Z M 123.95 191.35 L 124.94 191.35 C 125.80 191.35 126.50 190.65 126.50 189.78 C 126.50 188.92 125.80 188.22 124.94 188.22 L 123.95 188.22 C 123.09 188.22 122.39 188.92 122.39 189.78 C 122.39 190.65 123.09 191.35 123.95 191.35 Z M 124.94 191.35 L 125.95 191.35 C 126.82 191.35 127.52 190.65 127.52 189.78 C 127.52 188.92 126.82 188.22 125.95 188.22 L 124.94 188.22 C 124.08 188.22 123.38 188.92 123.38 189.78 C 123.38 190.65 124.08 191.35 124.94 191.35 Z M 125.95 191.35 L 126.99 191.35 C 127.86 191.35 128.55 190.65 128.55 189.78 C 128.55 188.92 127.86 188.22 126.99 188.22 L 125.95 188.22 C 125.09 188.22 124.39 188.92 124.39 189.78 C 124.39 190.65 125.09 191.35 125.95 191.35 Z M 126.99 191.35 L 127.94 191.35 C 128.80 191.35 129.50 190.65 129.50 189.78 C 129.50 188.92 128.80 188.22 127.94 188.22 L 126.99 188.22 C 126.13 188.22 125.43 188.92 125.43 189.78 C 125.43 190.65 126.13 191.35 126.99 191.35 Z M 127.94 191.35 L 128.92 191.35 C 129.78 191.35 130.48 190.65 130.48 189.78 C 130.48 188.92 129.78 188.22 128.92 188.22 L 127.94 188.22 C 127.08 188.22 126.38 188.92 126.38 189.78 C 126.38 190.65 127.08 191.35 127.94 191.35 Z M 128.92 191.35 L 129.92 191.35 C 130.78 191.35 131.48 190.65 131.48 189.78 C 131.48 188.92 130.78 188.22 129.92 188.22 L 128.92 188.22 C 128.05 188.22 127.36 188.92 127.36 189.78 C 127.36 190.65 128.05 191.35 128.92 191.35 Z M 129.92 191.35 L 130.94 191.35 C 131.81 191.35 132.51 190.65 132.51 189.78 C 132.51 188.92 131.81 188.22 130.94 188.22 L 129.92 188.22 C 129.06 188.22 128.36 188.92 128.36 189.78 C 128.36 190.65 129.06 191.35 129.92 191.35 Z M 130.94 191.35 L 132.00 191.35 C 132.86 191.35 133.56 190.65 133.56 189.78 C 133.56 188.92 132.86 188.22 132.00 188.22 L 130.94 188.22 C 130.08 188.22 129.38 188.92 129.38 189.78 C 129.38 190.65 130.08 191.35 130.94 191.35 Z M 132.00 191.35 L 132.96 191.35 C 133.83 191.35 134.52 190.65 134.52 189.78 C 134.52 188.92 133.83 188.22 132.96 188.22 L 132.00 188.22 C 131.13 188.22 130.44 188.92 130.44 189.78 C 130.44 190.65 131.13 191.35 132.00 191.35 Z M 132.96 191.35 L 133.95 191.35 C 134.81 191.35 135.51 190.65 135.51 189.78 C 135.51 188.92 134.81 188.22 133.95 188.22 L 132.96 188.22 C 132.10 188.22 131.40 188.92 131.40 189.78 C 131.40 190.65 132.10 191.35 132.96 191.35 Z M 133.95 191.35 L 134.95 191.35 C 135.81 191.35 136.51 190.65 136.51 189.78 C 136.51 188.92 135.81 188.22 134.95 188.22 L 133.95 188.22 C 133.09 188.22 132.39 188.92 132.39 189.78 C 132.39 190.65 133.09 191.35 133.95 191.35 Z M 134.95 191.35 L 135.96 191.35 C 136.82 191.35 137.52 190.65 137.52 189.78 C 137.52 188.92 136.82 188.22 135.96 188.22 L 134.95 188.22 C 134.09 188.22 133.39 188.92 133.39 189.78 C 133.39 190.65 134.09 191.35 134.95 191.35 Z M 135.96 191.35 L 136.98 191.35 C 137.84 191.35 138.54 190.65 138.54 189.78 C 138.54 188.92 137.84 188.22 136.98 188.22 L 135.96 188.22 C 135.10 188.22 134.40 188.92 134.40 189.78 C 134.40 190.65 135.10 191.35 135.96 191.35 Z M 136.98 191.35 L 138.00 191.35 C 138.86 191.35 139.56 190.65 139.56 189.78 C 139.56 188.92 138.86 188.22 138.00 188.22 L 136.98 188.22 C 136.12 188.22 135.42 188.92 135.42 189.78 C 135.42 190.65 136.12 191.35 136.98 191.35 Z M 138.00 191.35 L 139.00 191.35 C 139.86 191.34 140.56 190.64 140.56 189.78 C 140.55 188.92 139.86 188.22 138.99 188.22 L 137.99 188.22 C 137.13 188.22 136.43 188.92 136.43 189.79 C 136.43 190.65 137.13 191.35 138.00 191.35 Z M 139.00 191.35 L 140.00 191.34 C 140.86 191.34 141.56 190.64 141.56 189.77 C 141.55 188.91 140.85 188.22 139.99 188.22 L 138.99 188.22 C 138.13 188.23 137.43 188.93 137.43 189.79 C 137.44 190.65 138.14 191.35 139.00 191.35 Z M 140.01 191.34 L 141.01 191.33 C 141.87 191.33 142.57 190.62 142.56 189.76 C 142.55 188.90 141.85 188.20 140.98 188.21 L 139.98 188.22 C 139.12 188.23 138.43 188.93 138.43 189.79 C 138.44 190.66 139.15 191.35 140.01 191.34 Z M 141.02 191.33 L 142.02 191.32 C 142.88 191.30 143.57 190.59 143.56 189.73 C 143.55 188.87 142.84 188.18 141.97 188.19 L 140.97 188.21 C 140.11 188.22 139.42 188.93 139.44 189.80 C 139.45 190.66 140.16 191.35 141.02 191.33 Z M 142.04 191.32 L 143.04 191.29 C 143.90 191.27 144.58 190.55 144.56 189.69 C 144.54 188.83 143.82 188.15 142.96 188.17 L 141.96 188.20 C 141.10 188.22 140.42 188.93 140.44 189.79 C 140.46 190.66 141.17 191.34 142.04 191.32 Z M 143.05 191.29 L 144.05 191.26 C 144.91 191.23 145.58 190.50 145.55 189.64 C 145.52 188.78 144.80 188.11 143.93 188.14 L 142.94 188.17 C 142.08 188.20 141.41 188.93 141.44 189.79 C 141.47 190.65 142.19 191.32 143.05 191.29 Z M 144.06 191.26 L 145.05 191.21 C 145.91 191.17 146.58 190.44 146.54 189.58 C 146.50 188.71 145.77 188.05 144.90 188.09 L 143.92 188.14 C 143.05 188.18 142.39 188.91 142.43 189.77 C 142.47 190.63 143.20 191.30 144.06 191.26 Z M 145.07 191.21 L 146.06 191.15 C 146.92 191.10 147.58 190.36 147.53 189.50 C 147.48 188.64 146.74 187.98 145.88 188.03 L 144.89 188.09 C 144.03 188.14 143.37 188.88 143.42 189.74 C 143.47 190.60 144.21 191.26 145.07 191.21 Z M 146.07 191.15 L 147.07 191.08 C 147.93 191.02 148.58 190.28 148.52 189.42 C 148.46 188.56 147.72 187.91 146.86 187.97 L 145.86 188.03 C 145.00 188.09 144.35 188.84 144.41 189.70 C 144.47 190.56 145.21 191.21 146.07 191.15 Z M 147.08 191.08 L 148.08 191.00 C 148.94 190.94 149.59 190.19 149.52 189.33 C 149.45 188.47 148.70 187.83 147.84 187.89 L 146.84 187.97 C 145.98 188.03 145.34 188.78 145.40 189.64 C 145.47 190.50 146.22 191.15 147.08 191.08 Z M 148.09 191.00 L 149.11 190.92 C 149.97 190.85 150.61 190.09 150.53 189.23 C 150.46 188.37 149.71 187.74 148.85 187.81 L 147.83 187.89 C 146.97 187.96 146.34 188.72 146.41 189.58 C 146.48 190.44 147.24 191.08 148.09 191.00 Z M 149.12 190.92 L 150.13 190.83 C 150.99 190.75 151.62 189.99 151.54 189.13 C 151.46 188.27 150.70 187.64 149.85 187.72 L 148.84 187.81 C 147.98 187.89 147.35 188.64 147.42 189.50 C 147.50 190.36 148.26 191.00 149.12 190.92 Z M 150.13 190.83 L 151.15 190.73 C 152.00 190.65 152.63 189.88 152.55 189.03 C 152.47 188.17 151.71 187.54 150.85 187.62 L 149.84 187.72 C 148.98 187.80 148.35 188.56 148.43 189.42 C 148.51 190.28 149.28 190.91 150.13 190.83 Z M 151.15 190.73 L 152.16 190.63 C 153.02 190.54 153.65 189.78 153.56 188.92 C 153.48 188.06 152.71 187.44 151.85 187.52 L 150.84 187.62 C 149.98 187.71 149.36 188.47 149.44 189.33 C 149.53 190.19 150.29 190.81 151.15 190.73 Z M 152.17 190.63 L 153.17 190.52 C 154.03 190.44 154.65 189.67 154.56 188.81 C 154.48 187.95 153.71 187.33 152.85 187.42 L 151.85 187.52 C 150.99 187.61 150.37 188.38 150.45 189.23 C 150.54 190.09 151.31 190.72 152.17 190.63 Z M 153.17 190.52 L 154.16 190.42 C 155.02 190.33 155.64 189.56 155.55 188.71 C 155.46 187.85 154.69 187.23 153.84 187.32 L 152.85 187.42 C 151.99 187.51 151.37 188.28 151.46 189.13 C 151.55 189.99 152.32 190.61 153.17 190.52 Z M 154.16 190.42 L 155.13 190.32 C 155.99 190.23 156.61 189.46 156.52 188.60 C 156.43 187.74 155.66 187.12 154.80 187.21 L 153.84 187.32 C 152.98 187.41 152.36 188.17 152.45 189.03 C 152.54 189.89 153.31 190.51 154.16 190.42 Z M 155.13 190.32 L 156.17 190.21 C 157.02 190.12 157.65 189.35 157.56 188.49 C 157.46 187.63 156.70 187.01 155.84 187.10 L 154.80 187.21 C 153.94 187.30 153.32 188.07 153.41 188.93 C 153.50 189.79 154.27 190.41 155.13 190.32 Z M 156.17 190.21 L 157.19 190.10 C 158.05 190.01 158.67 189.24 158.58 188.38 C 158.49 187.53 157.73 186.91 156.87 187.00 L 155.84 187.10 C 154.98 187.19 154.36 187.96 154.45 188.82 C 154.54 189.68 155.31 190.30 156.17 190.21 Z M 157.19 190.10 L 158.19 190.00 C 159.05 189.91 159.67 189.14 159.58 188.28 C 159.49 187.43 158.72 186.80 157.87 186.89 L 156.87 186.99 C 156.01 187.08 155.39 187.85 155.48 188.71 C 155.57 189.57 156.33 190.19 157.19 190.10 Z M 158.19 190.00 L 159.16 189.90 C 160.01 189.81 160.64 189.05 160.55 188.19 C 160.46 187.33 159.70 186.71 158.84 186.79 L 157.87 186.89 C 157.01 186.98 156.39 187.74 156.47 188.60 C 156.56 189.46 157.33 190.08 158.19 190.00 Z M 159.15 189.90 L 160.10 189.81 C 160.96 189.72 161.59 188.96 161.50 188.10 C 161.42 187.24 160.66 186.62 159.80 186.70 L 158.85 186.79 C 157.99 186.88 157.36 187.64 157.44 188.50 C 157.53 189.36 158.29 189.98 159.15 189.90 Z M 160.10 189.81 L 161.09 189.71 C 161.95 189.63 162.58 188.87 162.49 188.01 C 162.41 187.15 161.65 186.52 160.79 186.61 L 159.80 186.70 C 158.95 186.78 158.32 187.54 158.40 188.40 C 158.48 189.26 159.24 189.89 160.10 189.81 Z M 161.08 189.71 L 162.10 189.62 C 162.95 189.55 163.59 188.79 163.51 187.93 C 163.43 187.07 162.68 186.44 161.82 186.51 L 160.80 186.60 C 159.94 186.68 159.31 187.44 159.39 188.30 C 159.46 189.16 160.22 189.79 161.08 189.71 Z M 162.09 189.62 L 163.09 189.54 C 163.95 189.47 164.59 188.71 164.51 187.85 C 164.44 186.99 163.69 186.35 162.83 186.43 L 161.82 186.51 C 160.96 186.59 160.33 187.34 160.40 188.20 C 160.47 189.06 161.23 189.70 162.09 189.62 Z M 163.08 189.54 L 164.07 189.46 C 164.93 189.39 165.57 188.64 165.50 187.78 C 165.43 186.92 164.68 186.28 163.82 186.35 L 162.83 186.43 C 161.97 186.50 161.33 187.25 161.40 188.11 C 161.47 188.97 162.22 189.61 163.08 189.54 Z M 164.06 189.46 L 165.03 189.39 C 165.89 189.32 166.54 188.57 166.47 187.71 C 166.41 186.85 165.66 186.21 164.80 186.27 L 163.83 186.35 C 162.97 186.41 162.32 187.16 162.39 188.02 C 162.45 188.88 163.20 189.53 164.06 189.46 Z M 165.03 189.39 L 166.05 189.32 C 166.91 189.25 167.56 188.51 167.50 187.65 C 167.44 186.79 166.69 186.14 165.83 186.20 L 164.81 186.27 C 163.95 186.33 163.30 187.08 163.36 187.94 C 163.42 188.80 164.17 189.45 165.03 189.39 Z M 166.04 189.32 L 167.06 189.25 C 167.92 189.19 168.58 188.45 168.52 187.59 C 168.46 186.73 167.72 186.08 166.86 186.13 L 165.84 186.20 C 164.98 186.26 164.33 187.00 164.38 187.86 C 164.44 188.72 165.18 189.37 166.04 189.32 Z M 167.06 189.25 L 168.05 189.19 C 168.91 189.14 169.57 188.40 169.52 187.54 C 169.46 186.68 168.72 186.02 167.86 186.07 L 166.87 186.13 C 166.01 186.18 165.35 186.92 165.40 187.78 C 165.46 188.65 166.19 189.30 167.06 189.25 Z M 168.04 189.19 L 169.01 189.14 C 169.87 189.09 170.53 188.35 170.49 187.49 C 170.44 186.63 169.70 185.97 168.84 186.02 L 167.87 186.07 C 167.01 186.12 166.35 186.86 166.40 187.72 C 166.45 188.58 167.18 189.24 168.04 189.19 Z M 169.00 189.14 L 170.00 189.09 C 170.86 189.05 171.53 188.32 171.49 187.45 C 171.45 186.59 170.71 185.93 169.85 185.97 L 168.85 186.02 C 167.99 186.06 167.33 186.79 167.37 187.65 C 167.41 188.51 168.14 189.18 169.00 189.14 Z M 169.99 189.09 L 171.03 189.05 C 171.89 189.01 172.56 188.28 172.52 187.42 C 172.49 186.56 171.76 185.89 170.90 185.93 L 169.86 185.97 C 169.00 186.01 168.33 186.73 168.37 187.59 C 168.40 188.46 169.13 189.13 169.99 189.09 Z M 171.02 189.05 L 172.01 189.01 C 172.88 188.98 173.55 188.26 173.52 187.40 C 173.49 186.54 172.77 185.86 171.91 185.89 L 170.91 185.93 C 170.05 185.96 169.37 186.68 169.40 187.54 C 169.43 188.40 170.15 189.08 171.02 189.05 Z M 172.00 189.01 L 172.96 188.99 C 173.83 188.96 174.51 188.25 174.48 187.39 C 174.46 186.52 173.74 185.84 172.88 185.87 L 171.92 185.89 C 171.06 185.91 170.38 186.63 170.40 187.49 C 170.42 188.36 171.14 189.04 172.00 189.01 Z M 172.95 188.99 L 173.95 188.97 C 174.82 188.96 175.50 188.24 175.49 187.38 C 175.47 186.52 174.76 185.83 173.90 185.85 L 172.90 185.87 C 172.03 185.88 171.35 186.59 171.36 187.45 C 171.38 188.32 172.09 189.00 172.95 188.99 Z M 173.94 188.97 L 174.95 188.96 C 175.82 188.95 176.51 188.25 176.50 187.39 C 176.49 186.52 175.79 185.83 174.93 185.84 L 173.91 185.85 C 173.05 185.86 172.36 186.56 172.36 187.42 C 172.37 188.29 173.08 188.98 173.94 188.97 Z M 174.95 188.96 L 175.93 188.96 C 176.79 188.96 177.49 188.25 177.49 187.39 C 177.48 186.53 176.78 185.83 175.92 185.84 L 174.94 185.84 C 174.07 185.84 173.38 186.54 173.38 187.40 C 173.38 188.27 174.08 188.96 174.95 188.96 Z M 175.93 188.96 L 176.90 188.96 C 177.77 188.96 178.46 188.26 178.46 187.40 C 178.46 186.53 177.76 185.84 176.90 185.84 L 175.92 185.84 C 175.06 185.84 174.36 186.54 174.36 187.40 C 174.36 188.26 175.06 188.96 175.93 188.96 Z M 176.90 188.96 L 177.91 188.96 C 178.77 188.96 179.47 188.27 179.47 187.41 C 179.48 186.54 178.78 185.84 177.92 185.84 L 176.91 185.84 C 176.05 185.83 175.34 186.53 175.34 187.39 C 175.34 188.25 176.03 188.95 176.90 188.96 Z M 177.88 188.96 L 178.88 188.98 C 179.74 189.00 180.46 188.31 180.47 187.45 C 180.49 186.59 179.80 185.87 178.94 185.86 L 177.94 185.84 C 177.08 185.82 176.37 186.51 176.35 187.37 C 176.34 188.23 177.02 188.95 177.88 188.96 Z M 178.84 188.98 L 179.82 189.02 C 180.69 189.07 181.42 188.40 181.46 187.54 C 181.50 186.68 180.83 185.95 179.97 185.91 L 178.98 185.86 C 178.12 185.82 177.39 186.49 177.35 187.35 C 177.31 188.21 177.98 188.94 178.84 188.98 Z M 179.77 189.02 L 180.77 189.11 C 181.63 189.18 182.38 188.54 182.45 187.68 C 182.53 186.82 181.89 186.07 181.03 185.99 L 180.03 185.91 C 179.17 185.84 178.41 186.48 178.34 187.33 C 178.27 188.19 178.91 188.95 179.77 189.02 Z M 180.72 189.10 L 181.72 189.21 C 182.57 189.31 183.35 188.69 183.44 187.84 C 183.54 186.98 182.92 186.21 182.07 186.11 L 181.07 186.00 C 180.22 185.90 179.44 186.52 179.35 187.37 C 179.25 188.23 179.87 189.00 180.72 189.10 Z M 181.69 189.21 L 182.68 189.34 C 183.54 189.45 184.32 188.84 184.43 187.98 C 184.54 187.13 183.93 186.35 183.08 186.24 L 182.09 186.11 C 181.23 186.00 180.45 186.61 180.34 187.46 C 180.23 188.32 180.84 189.10 181.69 189.21 Z M 182.68 189.34 L 182.74 189.34 C 183.59 189.45 184.37 188.85 184.49 188.00 C 184.60 187.14 183.99 186.36 183.14 186.25 L 183.08 186.24 C 182.23 186.13 181.44 186.73 181.33 187.59 C 181.22 188.44 181.82 189.22 182.68 189.34 Z"
      fill="black"
      fill-rule="nonzero" /></svg>