<svg xmlns="http://www.w3.org/2000/svg" width="300" height="300" viewBox="0 0 300 300">
<path d="M 147.78 87.54 L 147.09 86.75 C 146.53 86.10 145.54 86.03 144.89 86.60 C 144.24 87.17 144.17 88.15 144.74 88.80 L 145.42 89.59 C 145.99 90.24 146.98 90.31 147.63 89.74 C 148.28 89.17 148.34 88.19 147.78 87.54 Z M 147.09 86.74 L 146.41 85.98 C 145.84 85.33 144.85 85.27 144.20 85.84 C 143.56 86.41 143.50 87.40 144.07 88.04 L 144.75 88.81 C 145.32 89.46 146.30 89.52 146.95 88.95 C 147.59 88.38 147.66 87.39 147.09 86.74 Z M 146.39 85.96 L 145.73 85.23 C 145.15 84.59 144.16 84.54 143.52 85.12 C 142.89 85.70 142.84 86.69 143.42 87.33 L 144.08 88.06 C 144.66 88.70 145.65 88.75 146.29 88.17 C 146.93 87.59 146.97 86.60 146.39 85.96 Z M 145.70 85.20 L 145.05 84.52 C 144.45 83.89 143.47 83.87 142.84 84.46 C 142.22 85.06 142.19 86.04 142.79 86.67 L 143.44 87.36 C 144.04 87.98 145.03 88.00 145.65 87.41 C 146.27 86.81 146.30 85.83 145.70 85.20 Z M 144.99 84.46 L 144.28 83.78 C 143.65 83.19 142.66 83.21 142.07 83.84 C 141.48 84.46 141.50 85.45 142.13 86.05 L 142.84 86.72 C 143.47 87.32 144.46 87.29 145.05 86.67 C 145.64 86.04 145.62 85.05 144.99 84.46 Z M 144.14 83.67 L 143.38 83.09 C 142.69 82.57 141.71 82.70 141.19 83.39 C 140.67 84.08 140.81 85.06 141.49 85.58 L 142.26 86.16 C 142.95 86.68 143.93 86.54 144.45 85.85 C 144.97 85.17 144.83 84.19 144.14 83.67 Z M 143.16 82.95 L 142.27 82.48 C 141.50 82.07 140.56 82.36 140.16 83.13 C 139.75 83.89 140.04 84.83 140.81 85.24 L 141.70 85.71 C 142.47 86.12 143.41 85.82 143.81 85.06 C 144.22 84.30 143.93 83.36 143.16 82.95 Z M 142.04 82.38 L 141.13 82.07 C 140.31 81.79 139.42 82.22 139.14 83.04 C 138.86 83.85 139.30 84.74 140.11 85.02 L 141.03 85.33 C 141.85 85.61 142.73 85.18 143.01 84.36 C 143.29 83.55 142.86 82.66 142.04 82.38 Z M 140.92 82.01 L 139.96 81.82 C 139.12 81.65 138.29 82.20 138.12 83.05 C 137.96 83.89 138.51 84.71 139.35 84.88 L 140.31 85.07 C 141.16 85.24 141.98 84.69 142.15 83.85 C 142.32 83.00 141.77 82.18 140.92 82.01 Z M 139.74 81.79 L 138.73 81.73 C 137.87 81.68 137.13 82.34 137.08 83.20 C 137.03 84.06 137.69 84.80 138.55 84.85 L 139.57 84.91 C 140.43 84.96 141.17 84.30 141.21 83.44 C 141.26 82.58 140.61 81.84 139.74 81.79 Z M 138.47 81.74 L 137.44 81.85 C 136.59 81.95 135.97 82.72 136.06 83.58 C 136.16 84.43 136.93 85.05 137.79 84.96 L 138.81 84.84 C 139.66 84.75 140.28 83.98 140.19 83.12 C 140.09 82.27 139.32 81.65 138.47 81.74 Z M 137.14 81.92 L 136.20 82.22 C 135.38 82.49 134.93 83.36 135.19 84.19 C 135.45 85.01 136.33 85.46 137.15 85.19 L 138.09 84.89 C 138.91 84.63 139.37 83.75 139.10 82.93 C 138.84 82.11 137.96 81.65 137.14 81.92 Z M 135.91 82.35 L 135.09 82.81 C 134.33 83.23 134.07 84.19 134.49 84.94 C 134.92 85.69 135.87 85.95 136.62 85.53 L 137.44 85.07 C 138.19 84.64 138.46 83.69 138.04 82.94 C 137.61 82.19 136.66 81.92 135.91 82.35 Z M 134.88 82.95 L 134.11 83.56 C 133.44 84.09 133.32 85.07 133.86 85.75 C 134.40 86.43 135.38 86.54 136.05 86.00 L 136.82 85.39 C 137.50 84.86 137.61 83.88 137.08 83.20 C 136.54 82.53 135.56 82.41 134.88 82.95 Z M 133.98 83.68 L 133.26 84.40 C 132.65 85.01 132.65 86.00 133.27 86.61 C 133.88 87.22 134.87 87.22 135.47 86.60 L 136.19 85.88 C 136.80 85.27 136.80 84.28 136.18 83.67 C 135.57 83.07 134.58 83.07 133.98 83.68 Z M 133.17 84.50 L 132.49 85.31 C 131.94 85.97 132.03 86.95 132.69 87.51 C 133.35 88.06 134.33 87.97 134.89 87.31 L 135.56 86.51 C 136.12 85.84 136.03 84.86 135.37 84.31 C 134.71 83.75 133.72 83.84 133.17 84.50 Z M 132.44 85.38 L 131.81 86.22 C 131.30 86.91 131.44 87.89 132.13 88.40 C 132.83 88.92 133.80 88.77 134.32 88.08 L 134.94 87.24 C 135.46 86.55 135.31 85.57 134.62 85.06 C 133.93 84.54 132.95 84.69 132.44 85.38 Z M 131.77 86.27 L 131.19 87.13 C 130.70 87.85 130.89 88.82 131.60 89.30 C 132.31 89.79 133.29 89.60 133.77 88.89 L 134.36 88.03 C 134.84 87.32 134.66 86.35 133.94 85.86 C 133.23 85.38 132.26 85.56 131.77 86.27 Z M 131.16 87.18 L 130.61 88.04 C 130.15 88.77 130.37 89.74 131.10 90.20 C 131.82 90.66 132.79 90.44 133.25 89.71 L 133.80 88.85 C 134.26 88.12 134.04 87.15 133.31 86.69 C 132.59 86.23 131.62 86.45 131.16 87.18 Z M 130.59 88.08 L 130.08 88.93 C 129.64 89.67 129.88 90.62 130.62 91.07 C 131.36 91.51 132.32 91.27 132.76 90.53 L 133.27 89.68 C 133.71 88.94 133.47 87.98 132.73 87.54 C 131.99 87.10 131.03 87.34 130.59 88.08 Z M 130.07 88.95 L 129.60 89.76 C 129.17 90.51 129.43 91.47 130.18 91.90 C 130.93 92.32 131.88 92.07 132.31 91.32 L 132.78 90.50 C 133.21 89.76 132.95 88.80 132.20 88.37 C 131.45 87.94 130.50 88.20 130.07 88.95 Z M 129.59 89.78 L 129.07 90.73 C 128.65 91.48 128.92 92.43 129.67 92.85 C 130.43 93.27 131.38 93.00 131.80 92.24 L 132.32 91.30 C 132.74 90.55 132.47 89.59 131.71 89.18 C 130.96 88.76 130.01 89.03 129.59 89.78 Z M 129.06 90.75 L 128.57 91.66 C 128.16 92.42 128.45 93.37 129.21 93.77 C 129.97 94.18 130.91 93.90 131.32 93.14 L 131.81 92.22 C 132.21 91.46 131.93 90.52 131.17 90.11 C 130.41 89.70 129.46 89.99 129.06 90.75 Z M 128.55 91.69 L 128.12 92.53 C 127.73 93.30 128.03 94.24 128.80 94.63 C 129.56 95.03 130.51 94.72 130.90 93.96 L 131.33 93.11 C 131.73 92.34 131.42 91.40 130.65 91.01 C 129.89 90.62 128.95 90.92 128.55 91.69 Z M 128.11 92.56 L 127.71 93.38 C 127.33 94.16 127.65 95.09 128.43 95.47 C 129.20 95.85 130.14 95.52 130.51 94.75 L 130.91 93.93 C 131.29 93.15 130.97 92.22 130.19 91.84 C 129.42 91.46 128.48 91.79 128.11 92.56 Z M 127.69 93.41 L 127.27 94.33 C 126.91 95.11 127.25 96.04 128.04 96.40 C 128.82 96.76 129.75 96.42 130.11 95.64 L 130.53 94.72 C 130.89 93.94 130.54 93.01 129.76 92.65 C 128.98 92.29 128.05 92.63 127.69 93.41 Z M 127.26 94.36 L 126.86 95.27 C 126.52 96.06 126.88 96.98 127.67 97.32 C 128.46 97.67 129.38 97.31 129.72 96.52 L 130.12 95.61 C 130.46 94.82 130.10 93.90 129.31 93.55 C 128.52 93.21 127.60 93.57 127.26 94.36 Z M 126.85 95.29 L 126.47 96.21 C 126.14 97.01 126.51 97.92 127.31 98.25 C 128.11 98.58 129.02 98.21 129.35 97.41 L 129.73 96.49 C 130.06 95.70 129.69 94.78 128.89 94.45 C 128.10 94.12 127.18 94.50 126.85 95.29 Z M 126.46 96.23 L 126.09 97.14 C 125.77 97.94 126.16 98.85 126.96 99.17 C 127.76 99.49 128.67 99.11 128.99 98.31 L 129.36 97.40 C 129.68 96.60 129.29 95.69 128.49 95.36 C 127.69 95.04 126.78 95.43 126.46 96.23 Z M 126.09 97.16 L 125.72 98.09 C 125.41 98.89 125.81 99.80 126.61 100.11 C 127.42 100.42 128.32 100.02 128.63 99.22 L 129.00 98.29 C 129.31 97.49 128.91 96.58 128.11 96.27 C 127.31 95.95 126.40 96.35 126.09 97.16 Z M 125.72 98.11 L 125.36 99.06 C 125.06 99.86 125.47 100.76 126.28 101.06 C 127.08 101.37 127.98 100.96 128.29 100.15 L 128.64 99.20 C 128.94 98.39 128.53 97.49 127.73 97.19 C 126.92 96.89 126.02 97.30 125.72 98.11 Z M 125.35 99.08 L 125.02 100.02 C 124.73 100.83 125.15 101.72 125.96 102.01 C 126.77 102.30 127.67 101.88 127.96 101.07 L 128.29 100.13 C 128.58 99.32 128.16 98.42 127.35 98.13 C 126.54 97.84 125.64 98.27 125.35 99.08 Z M 125.01 100.04 L 124.69 100.99 C 124.41 101.81 124.85 102.69 125.67 102.97 C 126.49 103.24 127.37 102.81 127.65 101.99 L 127.97 101.04 C 128.24 100.23 127.80 99.34 126.99 99.06 C 126.17 98.79 125.28 99.23 125.01 100.04 Z M 124.68 101.02 L 124.38 101.98 C 124.12 102.80 124.58 103.68 125.40 103.94 C 126.22 104.19 127.10 103.74 127.36 102.92 L 127.66 101.96 C 127.92 101.14 127.46 100.26 126.64 100.00 C 125.81 99.74 124.94 100.20 124.68 101.02 Z M 124.37 102.01 L 124.09 102.98 C 123.85 103.80 124.33 104.67 125.16 104.91 C 125.98 105.15 126.85 104.67 127.09 103.84 L 127.37 102.88 C 127.61 102.05 127.13 101.19 126.30 100.95 C 125.47 100.71 124.61 101.18 124.37 102.01 Z M 124.08 103.01 L 123.83 103.98 C 123.61 104.81 124.11 105.66 124.94 105.88 C 125.78 106.10 126.63 105.60 126.85 104.77 L 127.10 103.80 C 127.32 102.97 126.82 102.12 125.98 101.90 C 125.15 101.68 124.30 102.18 124.08 103.01 Z M 123.82 104.01 L 123.59 104.99 C 123.39 105.83 123.91 106.67 124.75 106.86 C 125.59 107.06 126.43 106.54 126.63 105.70 L 126.86 104.73 C 127.05 103.89 126.53 103.05 125.69 102.85 C 124.85 102.65 124.01 103.17 123.82 104.01 Z M 123.58 105.03 L 123.37 106.01 C 123.20 106.85 123.74 107.68 124.58 107.86 C 125.42 108.04 126.25 107.49 126.43 106.65 L 126.64 105.67 C 126.81 104.82 126.27 103.99 125.43 103.82 C 124.58 103.64 123.76 104.18 123.58 105.03 Z M 123.37 106.05 L 123.19 107.01 C 123.03 107.86 123.59 108.67 124.44 108.83 C 125.29 108.99 126.10 108.43 126.26 107.58 L 126.44 106.61 C 126.59 105.77 126.03 104.95 125.18 104.80 C 124.34 104.64 123.52 105.20 123.37 106.05 Z M 123.18 107.05 L 123.02 108.03 C 122.89 108.88 123.47 109.68 124.32 109.82 C 125.17 109.95 125.97 109.37 126.11 108.52 L 126.26 107.54 C 126.40 106.69 125.82 105.89 124.97 105.75 C 124.12 105.62 123.32 106.20 123.18 107.05 Z M 123.02 108.07 L 122.88 109.07 C 122.77 109.92 123.37 110.71 124.22 110.82 C 125.08 110.94 125.86 110.34 125.98 109.48 L 126.11 108.48 C 126.23 107.63 125.63 106.84 124.78 106.73 C 123.92 106.61 123.13 107.21 123.02 108.07 Z M 122.88 109.10 L 122.77 110.11 C 122.67 110.97 123.29 111.74 124.15 111.83 C 125.00 111.93 125.78 111.31 125.87 110.46 L 125.98 109.45 C 126.08 108.59 125.46 107.82 124.60 107.72 C 123.75 107.63 122.97 108.25 122.88 109.10 Z M 122.76 110.14 L 122.68 111.14 C 122.60 112.00 123.23 112.76 124.09 112.84 C 124.95 112.91 125.71 112.28 125.79 111.42 L 125.87 110.42 C 125.95 109.56 125.32 108.80 124.46 108.73 C 123.60 108.65 122.84 109.29 122.76 110.14 Z M 122.67 111.17 L 122.60 112.18 C 122.54 113.04 123.19 113.78 124.05 113.84 C 124.91 113.90 125.66 113.26 125.72 112.40 L 125.79 111.39 C 125.85 110.53 125.20 109.78 124.34 109.72 C 123.48 109.66 122.73 110.31 122.67 111.17 Z M 122.60 112.21 L 122.55 113.20 C 122.51 114.07 123.17 114.80 124.03 114.84 C 124.89 114.89 125.63 114.22 125.67 113.36 L 125.72 112.37 C 125.76 111.51 125.10 110.77 124.24 110.73 C 123.38 110.68 122.65 111.35 122.60 112.21 Z M 122.55 113.23 L 122.52 114.25 C 122.49 115.11 123.17 115.84 124.03 115.86 C 124.89 115.89 125.61 115.21 125.64 114.35 L 125.67 113.33 C 125.70 112.47 125.02 111.75 124.16 111.72 C 123.30 111.70 122.58 112.37 122.55 113.23 Z M 122.52 114.28 L 122.50 115.29 C 122.49 116.15 123.18 116.86 124.04 116.87 C 124.90 116.89 125.61 116.20 125.62 115.33 L 125.64 114.32 C 125.65 113.46 124.96 112.75 124.10 112.74 C 123.24 112.73 122.53 113.42 122.52 114.28 Z M 122.50 115.32 L 122.50 116.30 C 122.51 117.17 123.21 117.86 124.07 117.86 C 124.93 117.86 125.63 117.16 125.63 116.30 L 125.62 115.31 C 125.62 114.45 124.92 113.75 124.06 113.75 C 123.20 113.75 122.50 114.45 122.50 115.32 Z M 122.50 116.32 L 122.52 117.31 C 122.53 118.17 123.24 118.86 124.11 118.84 C 124.97 118.83 125.66 118.12 125.64 117.26 L 125.63 116.27 C 125.61 115.41 124.90 114.72 124.04 114.74 C 123.18 114.75 122.49 115.46 122.50 116.32 Z M 122.52 117.33 L 122.55 118.33 C 122.58 119.20 123.31 119.87 124.17 119.84 C 125.03 119.81 125.70 119.09 125.68 118.23 L 125.64 117.23 C 125.61 116.37 124.89 115.69 124.03 115.72 C 123.17 115.75 122.49 116.47 122.52 117.33 Z M 122.56 118.39 L 122.62 119.38 C 122.68 120.24 123.43 120.89 124.29 120.83 C 125.15 120.78 125.80 120.03 125.74 119.17 L 125.67 118.18 C 125.61 117.32 124.87 116.67 124.01 116.72 C 123.15 116.78 122.50 117.53 122.56 118.39 Z M 122.63 119.46 L 122.75 120.45 C 122.85 121.31 123.63 121.92 124.48 121.82 C 125.34 121.72 125.95 120.94 125.85 120.08 L 125.73 119.09 C 125.63 118.24 124.85 117.63 124.00 117.73 C 123.14 117.83 122.53 118.61 122.63 119.46 Z M 122.76 120.55 L 122.94 121.52 C 123.10 122.37 123.91 122.93 124.76 122.78 C 125.61 122.62 126.17 121.81 126.01 120.96 L 125.83 119.98 C 125.68 119.14 124.86 118.58 124.02 118.73 C 123.17 118.89 122.61 119.70 122.76 120.55 Z M 122.96 121.62 L 123.21 122.59 C 123.42 123.42 124.26 123.93 125.10 123.72 C 125.94 123.51 126.44 122.67 126.24 121.83 L 125.99 120.86 C 125.78 120.03 124.94 119.52 124.10 119.73 C 123.26 119.94 122.76 120.78 122.96 121.62 Z M 123.23 122.67 L 123.53 123.63 C 123.78 124.46 124.66 124.92 125.48 124.66 C 126.30 124.41 126.76 123.53 126.51 122.71 L 126.21 121.75 C 125.96 120.92 125.08 120.46 124.26 120.72 C 123.44 120.97 122.97 121.85 123.23 122.67 Z M 123.55 123.70 L 123.90 124.65 C 124.19 125.46 125.09 125.88 125.90 125.59 C 126.71 125.29 127.13 124.39 126.83 123.58 L 126.49 122.64 C 126.19 121.83 125.29 121.41 124.48 121.70 C 123.67 122.00 123.26 122.89 123.55 123.70 Z M 123.92 124.72 L 124.31 125.65 C 124.64 126.45 125.56 126.82 126.35 126.49 C 127.15 126.16 127.53 125.24 127.19 124.45 L 126.80 123.52 C 126.47 122.72 125.56 122.35 124.76 122.68 C 123.97 123.01 123.59 123.92 123.92 124.72 Z M 124.34 125.72 L 124.77 126.62 C 125.14 127.40 126.07 127.73 126.85 127.37 C 127.63 127.00 127.96 126.07 127.59 125.29 L 127.16 124.38 C 126.79 123.60 125.86 123.27 125.08 123.64 C 124.30 124.01 123.97 124.94 124.34 125.72 Z M 124.80 126.69 L 125.27 127.56 C 125.68 128.32 126.62 128.61 127.38 128.20 C 128.14 127.79 128.43 126.85 128.02 126.09 L 127.56 125.22 C 127.15 124.46 126.20 124.17 125.44 124.58 C 124.68 124.98 124.40 125.93 124.80 126.69 Z M 125.31 127.63 L 125.83 128.49 C 126.27 129.22 127.23 129.46 127.97 129.02 C 128.71 128.57 128.94 127.61 128.50 126.87 L 127.98 126.02 C 127.54 125.28 126.58 125.04 125.84 125.49 C 125.10 125.93 124.86 126.89 125.31 127.63 Z M 125.86 128.55 L 126.42 129.37 C 126.90 130.09 127.86 130.28 128.58 129.80 C 129.30 129.32 129.49 128.35 129.01 127.64 L 128.46 126.81 C 127.98 126.09 127.01 125.90 126.29 126.38 C 125.58 126.86 125.39 127.83 125.86 128.55 Z M 126.45 129.42 L 127.04 130.23 C 127.54 130.93 128.52 131.09 129.22 130.58 C 129.91 130.08 130.07 129.10 129.57 128.40 L 128.98 127.59 C 128.47 126.89 127.50 126.73 126.80 127.24 C 126.10 127.74 125.94 128.72 126.45 129.42 Z M 127.06 130.26 L 127.63 131.01 C 128.16 131.70 129.14 131.83 129.82 131.31 C 130.51 130.78 130.64 129.80 130.11 129.12 L 129.54 128.37 C 129.02 127.68 128.04 127.55 127.35 128.08 C 126.67 128.60 126.54 129.58 127.06 130.26 Z M 127.68 131.07 L 128.28 131.79 C 128.84 132.45 129.82 132.53 130.48 131.98 C 131.14 131.42 131.23 130.44 130.67 129.78 L 130.07 129.06 C 129.51 128.40 128.53 128.32 127.87 128.87 C 127.21 129.43 127.12 130.41 127.68 131.07 Z M 128.37 131.88 L 129.07 132.60 C 129.68 133.21 130.67 133.21 131.28 132.61 C 131.90 132.00 131.90 131.01 131.29 130.40 L 130.59 129.69 C 129.98 129.07 128.99 129.07 128.38 129.68 C 127.77 130.28 127.76 131.27 128.37 131.88 Z M 129.19 132.70 L 130.04 133.40 C 130.71 133.95 131.70 133.85 132.24 133.18 C 132.79 132.51 132.69 131.53 132.02 130.98 L 131.17 130.29 C 130.51 129.74 129.52 129.84 128.98 130.51 C 128.43 131.17 128.53 132.16 129.19 132.70 Z M 130.17 133.49 L 130.94 134.01 C 131.66 134.48 132.63 134.29 133.11 133.57 C 133.58 132.86 133.39 131.89 132.67 131.41 L 131.90 130.89 C 131.18 130.41 130.21 130.61 129.73 131.33 C 129.26 132.04 129.45 133.01 130.17 133.49 Z M 131.04 134.07 L 131.88 134.54 C 132.63 134.96 133.58 134.69 134.00 133.94 C 134.42 133.19 134.16 132.24 133.40 131.81 L 132.57 131.35 C 131.82 130.92 130.87 131.19 130.45 131.94 C 130.02 132.69 130.29 133.65 131.04 134.07 Z M 131.97 134.59 L 132.88 135.02 C 133.66 135.39 134.59 135.06 134.96 134.28 C 135.33 133.50 135.00 132.57 134.22 132.20 L 133.31 131.77 C 132.53 131.40 131.60 131.73 131.23 132.51 C 130.86 133.28 131.19 134.22 131.97 134.59 Z M 132.97 135.06 L 133.94 135.44 C 134.74 135.76 135.65 135.37 135.97 134.57 C 136.29 133.76 135.89 132.86 135.09 132.54 L 134.12 132.16 C 133.32 131.84 132.41 132.23 132.10 133.03 C 131.78 133.83 132.17 134.74 132.97 135.06 Z M 134.04 135.48 L 135.05 135.80 C 135.88 136.07 136.75 135.61 137.02 134.79 C 137.28 133.97 136.83 133.09 136.01 132.83 L 134.99 132.50 C 134.17 132.24 133.29 132.69 133.03 133.52 C 132.77 134.34 133.22 135.22 134.04 135.48 Z M 135.16 135.83 L 136.14 136.07 C 136.97 136.28 137.82 135.77 138.03 134.93 C 138.23 134.09 137.72 133.25 136.88 133.04 L 135.90 132.80 C 135.07 132.59 134.22 133.11 134.01 133.94 C 133.81 134.78 134.32 135.63 135.16 135.83 Z M 136.23 136.09 L 137.20 136.27 C 138.05 136.42 138.86 135.86 139.02 135.01 C 139.17 134.16 138.61 133.35 137.76 133.20 L 136.79 133.02 C 135.94 132.87 135.13 133.43 134.97 134.28 C 134.82 135.13 135.38 135.94 136.23 136.09 Z M 137.28 136.28 L 138.27 136.41 C 139.12 136.52 139.91 135.92 140.02 135.06 C 140.13 134.21 139.52 133.42 138.67 133.31 L 137.68 133.19 C 136.83 133.08 136.04 133.68 135.93 134.53 C 135.82 135.39 136.43 136.17 137.28 136.28 Z M 138.34 136.42 L 139.33 136.50 C 140.19 136.57 140.95 135.94 141.02 135.08 C 141.10 134.22 140.46 133.46 139.60 133.39 L 138.60 133.31 C 137.74 133.23 136.98 133.87 136.91 134.73 C 136.84 135.59 137.48 136.34 138.34 136.42 Z M 139.39 136.50 L 140.40 136.55 C 141.26 136.60 141.99 135.93 142.04 135.07 C 142.08 134.21 141.41 133.48 140.55 133.44 L 139.54 133.39 C 138.68 133.34 137.95 134.01 137.91 134.87 C 137.87 135.73 138.53 136.46 139.39 136.50 Z M 140.44 136.56 L 141.46 136.58 C 142.32 136.60 143.03 135.91 143.05 135.05 C 143.07 134.19 142.39 133.48 141.53 133.46 L 140.51 133.43 C 139.65 133.42 138.93 134.10 138.92 134.96 C 138.90 135.82 139.58 136.54 140.44 136.56 Z M 141.49 136.58 L 142.51 136.58 C 143.37 136.58 144.07 135.88 144.07 135.02 C 144.07 134.15 143.37 133.45 142.51 133.46 L 141.49 133.46 C 140.63 133.46 139.93 134.16 139.93 135.02 C 139.93 135.88 140.63 136.58 141.49 136.58 Z M 142.56 136.58 L 143.57 136.55 C 144.43 136.52 145.11 135.80 145.08 134.94 C 145.06 134.08 144.34 133.40 143.48 133.43 L 142.46 133.46 C 141.60 133.48 140.92 134.20 140.95 135.06 C 140.98 135.93 141.69 136.60 142.56 136.58 Z M 143.63 136.54 L 144.64 136.47 C 145.50 136.42 146.14 135.67 146.09 134.81 C 146.03 133.95 145.28 133.30 144.42 133.36 L 143.42 133.43 C 142.56 133.49 141.91 134.23 141.97 135.09 C 142.02 135.95 142.77 136.60 143.63 136.54 Z M 144.71 136.47 L 145.70 136.35 C 146.56 136.25 147.17 135.48 147.07 134.62 C 146.97 133.76 146.19 133.15 145.34 133.25 L 144.35 133.37 C 143.49 133.47 142.88 134.24 142.98 135.10 C 143.08 135.96 143.85 136.57 144.71 136.47 Z M 145.79 136.34 L 146.76 136.17 C 147.61 136.02 148.17 135.21 148.02 134.36 C 147.87 133.51 147.06 132.94 146.21 133.09 L 145.24 133.26 C 144.40 133.41 143.83 134.23 143.98 135.07 C 144.13 135.92 144.94 136.49 145.79 136.34 Z M 146.87 136.14 L 147.82 135.90 C 148.65 135.69 149.16 134.84 148.95 134.01 C 148.74 133.17 147.89 132.66 147.06 132.88 L 146.10 133.12 C 145.27 133.33 144.76 134.17 144.97 135.01 C 145.18 135.85 146.03 136.35 146.87 136.14 Z M 147.94 135.87 L 148.88 135.55 C 149.70 135.27 150.14 134.39 149.86 133.57 C 149.59 132.75 148.70 132.32 147.88 132.59 L 146.94 132.91 C 146.12 133.19 145.68 134.07 145.96 134.89 C 146.23 135.70 147.12 136.14 147.94 135.87 Z M 148.99 135.51 L 149.90 135.12 C 150.70 134.79 151.07 133.87 150.74 133.08 C 150.40 132.28 149.48 131.91 148.69 132.25 L 147.78 132.63 C 146.98 132.97 146.61 133.88 146.94 134.68 C 147.28 135.47 148.19 135.84 148.99 135.51 Z M 150.00 135.08 L 150.89 134.63 C 151.66 134.25 151.97 133.31 151.58 132.54 C 151.19 131.77 150.26 131.46 149.48 131.84 L 148.60 132.29 C 147.83 132.68 147.51 133.61 147.90 134.39 C 148.29 135.16 149.23 135.47 150.00 135.08 Z M 150.97 134.59 L 151.83 134.09 C 152.58 133.66 152.84 132.70 152.40 131.96 C 151.97 131.21 151.02 130.96 150.27 131.39 L 149.40 131.89 C 148.66 132.32 148.40 133.27 148.83 134.02 C 149.26 134.77 150.22 135.02 150.97 134.59 Z M 151.90 134.05 L 152.75 133.50 C 153.47 133.04 153.68 132.07 153.21 131.34 C 152.75 130.62 151.78 130.41 151.05 130.88 L 150.21 131.43 C 149.48 131.89 149.27 132.86 149.74 133.58 C 150.21 134.31 151.17 134.52 151.90 134.05 Z M 152.80 133.47 L 153.67 132.85 C 154.37 132.36 154.54 131.38 154.04 130.68 C 153.55 129.97 152.57 129.81 151.87 130.30 L 151.00 130.92 C 150.30 131.41 150.13 132.39 150.63 133.09 C 151.12 133.80 152.10 133.96 152.80 133.47 Z M 153.71 132.82 L 154.56 132.18 C 155.24 131.66 155.38 130.68 154.85 129.99 C 154.33 129.31 153.35 129.17 152.67 129.69 L 151.82 130.34 C 151.14 130.86 151.00 131.84 151.53 132.52 C 152.05 133.21 153.03 133.34 153.71 132.82 Z M 154.59 132.15 L 155.40 131.50 C 156.07 130.96 156.17 129.97 155.63 129.30 C 155.08 128.63 154.10 128.53 153.43 129.07 L 152.63 129.72 C 151.96 130.27 151.86 131.25 152.40 131.92 C 152.94 132.59 153.92 132.69 154.59 132.15 Z M 155.43 131.47 L 156.17 130.83 C 156.83 130.27 156.90 129.29 156.34 128.63 C 155.78 127.98 154.80 127.90 154.14 128.46 L 153.40 129.10 C 152.74 129.66 152.67 130.65 153.23 131.30 C 153.79 131.96 154.77 132.03 155.43 131.47 Z M 156.20 130.81 L 156.88 130.20 C 157.52 129.62 157.57 128.64 156.99 127.99 C 156.42 127.35 155.43 127.30 154.79 127.88 L 154.11 128.49 C 153.47 129.07 153.42 130.05 154.00 130.69 C 154.58 131.33 155.56 131.39 156.20 130.81 Z M 156.91 130.17 L 157.69 129.43 C 158.31 128.83 158.33 127.84 157.74 127.22 C 157.14 126.60 156.15 126.58 155.53 127.17 L 154.76 127.91 C 154.13 128.51 154.11 129.49 154.71 130.12 C 155.30 130.74 156.29 130.76 156.91 130.17 Z M 157.73 129.39 L 158.44 128.65 C 159.05 128.03 159.03 127.05 158.41 126.45 C 157.80 125.84 156.81 125.86 156.21 126.48 L 155.49 127.21 C 154.89 127.83 154.90 128.82 155.52 129.42 C 156.14 130.02 157.13 130.01 157.73 129.39 Z M 158.48 128.61 L 159.11 127.92 C 159.69 127.28 159.64 126.30 159.00 125.72 C 158.36 125.14 157.38 125.19 156.80 125.82 L 156.17 126.51 C 155.59 127.15 155.64 128.14 156.28 128.72 C 156.91 129.30 157.90 129.25 158.48 128.61 Z M 159.13 127.90 L 159.72 127.22 C 160.29 126.57 160.22 125.58 159.57 125.02 C 158.92 124.45 157.93 124.52 157.37 125.17 L 156.77 125.85 C 156.21 126.50 156.28 127.48 156.93 128.05 C 157.58 128.62 158.56 128.55 159.13 127.90 Z M 159.73 127.21 L 160.31 126.53 C 160.87 125.87 160.79 124.89 160.13 124.33 C 159.47 123.77 158.49 123.85 157.93 124.51 L 157.35 125.18 C 156.80 125.84 156.88 126.82 157.53 127.38 C 158.19 127.94 159.17 127.86 159.73 127.21 Z M 160.33 126.50 L 160.93 125.76 C 161.48 125.09 161.37 124.10 160.70 123.56 C 160.03 123.02 159.05 123.12 158.51 123.79 L 157.90 124.54 C 157.36 125.21 157.46 126.19 158.13 126.73 C 158.80 127.28 159.79 127.17 160.33 126.50 Z M 160.97 125.72 L 161.61 124.86 C 162.13 124.18 161.99 123.20 161.30 122.68 C 160.62 122.16 159.64 122.29 159.12 122.98 L 158.48 123.83 C 157.96 124.52 158.09 125.50 158.78 126.02 C 159.47 126.54 160.45 126.40 160.97 125.72 Z M 161.64 124.82 L 162.25 123.95 C 162.75 123.24 162.58 122.27 161.87 121.77 C 161.16 121.28 160.19 121.45 159.69 122.16 L 159.08 123.03 C 158.59 123.73 158.76 124.71 159.47 125.20 C 160.18 125.70 161.15 125.52 161.64 124.82 Z M 162.28 123.91 L 162.78 123.14 C 163.26 122.42 163.06 121.45 162.34 120.98 C 161.61 120.51 160.65 120.71 160.17 121.43 L 159.67 122.19 C 159.20 122.91 159.40 123.88 160.12 124.36 C 160.84 124.83 161.80 124.63 162.28 123.91 Z M 162.80 123.11 L 163.32 122.29 C 163.78 121.56 163.56 120.59 162.83 120.13 C 162.10 119.68 161.13 119.90 160.67 120.63 L 160.16 121.46 C 159.70 122.19 159.92 123.15 160.65 123.61 C 161.38 124.07 162.34 123.85 162.80 123.11 Z M 163.34 122.26 L 163.86 121.38 C 164.31 120.64 164.07 119.69 163.33 119.24 C 162.59 118.80 161.63 119.04 161.19 119.78 L 160.66 120.65 C 160.21 121.39 160.45 122.35 161.19 122.80 C 161.93 123.24 162.89 123.00 163.34 122.26 Z M 163.88 121.36 L 164.40 120.45 C 164.83 119.70 164.58 118.74 163.83 118.31 C 163.08 117.88 162.13 118.14 161.70 118.89 L 161.17 119.80 C 160.74 120.55 161.00 121.50 161.74 121.93 C 162.49 122.36 163.45 122.11 163.88 121.36 Z M 164.42 120.42 L 164.93 119.49 C 165.35 118.73 165.08 117.78 164.32 117.36 C 163.57 116.95 162.62 117.22 162.20 117.98 L 161.68 118.91 C 161.27 119.67 161.54 120.62 162.30 121.03 C 163.05 121.45 164.00 121.18 164.42 120.42 Z M 164.95 119.46 L 165.42 118.57 C 165.82 117.81 165.53 116.86 164.77 116.46 C 164.01 116.06 163.06 116.35 162.66 117.11 L 162.19 118.00 C 161.78 118.76 162.07 119.71 162.84 120.11 C 163.60 120.51 164.54 120.22 164.95 119.46 Z M 165.43 118.55 L 165.88 117.65 C 166.27 116.88 165.97 115.94 165.20 115.55 C 164.43 115.16 163.49 115.47 163.10 116.24 L 162.65 117.13 C 162.26 117.90 162.56 118.84 163.33 119.23 C 164.10 119.62 165.04 119.31 165.43 118.55 Z M 165.90 117.63 L 166.33 116.73 C 166.71 115.95 166.38 115.02 165.61 114.64 C 164.83 114.27 163.90 114.59 163.52 115.37 L 163.09 116.27 C 162.71 117.04 163.04 117.98 163.81 118.35 C 164.59 118.73 165.52 118.40 165.90 117.63 Z M 166.35 116.70 L 166.76 115.79 C 167.12 115.01 166.78 114.08 166.00 113.72 C 165.22 113.36 164.29 113.70 163.93 114.49 L 163.51 115.39 C 163.15 116.18 163.49 117.10 164.27 117.46 C 165.06 117.83 165.98 117.48 166.35 116.70 Z M 166.78 115.76 L 167.18 114.85 C 167.52 114.06 167.16 113.14 166.37 112.79 C 165.58 112.45 164.66 112.81 164.32 113.60 L 163.92 114.51 C 163.57 115.30 163.93 116.22 164.72 116.57 C 165.51 116.91 166.43 116.55 166.78 115.76 Z M 167.19 114.82 L 167.57 113.90 C 167.90 113.10 167.52 112.19 166.73 111.86 C 165.93 111.53 165.02 111.91 164.69 112.70 L 164.30 113.63 C 163.97 114.42 164.35 115.34 165.15 115.67 C 165.95 116.00 166.86 115.62 167.19 114.82 Z M 167.58 113.86 L 167.96 112.91 C 168.27 112.10 167.87 111.20 167.07 110.89 C 166.26 110.57 165.36 110.97 165.05 111.78 L 164.67 112.73 C 164.36 113.54 164.76 114.44 165.56 114.75 C 166.37 115.07 167.27 114.67 167.58 113.86 Z M 167.97 112.87 L 168.32 111.91 C 168.61 111.10 168.19 110.21 167.38 109.91 C 166.57 109.62 165.68 110.04 165.38 110.85 L 165.03 111.81 C 164.74 112.62 165.16 113.51 165.97 113.81 C 166.78 114.10 167.67 113.68 167.97 112.87 Z M 168.33 111.87 L 168.65 110.92 C 168.92 110.10 168.48 109.21 167.67 108.94 C 166.85 108.67 165.96 109.11 165.69 109.93 L 165.37 110.88 C 165.10 111.70 165.54 112.59 166.35 112.86 C 167.17 113.13 168.06 112.69 168.33 111.87 Z M 168.66 110.87 L 168.95 109.92 C 169.20 109.10 168.74 108.23 167.91 107.98 C 167.09 107.72 166.22 108.19 165.97 109.01 L 165.68 109.97 C 165.43 110.79 165.89 111.66 166.72 111.91 C 167.54 112.17 168.41 111.70 168.66 110.87 Z M 168.97 109.88 L 169.22 108.94 C 169.45 108.10 168.95 107.25 168.12 107.02 C 167.29 106.80 166.43 107.29 166.21 108.12 L 165.95 109.06 C 165.73 109.89 166.22 110.75 167.05 110.98 C 167.88 111.20 168.74 110.71 168.97 109.88 Z M 169.23 108.88 L 169.46 107.92 C 169.66 107.08 169.13 106.24 168.29 106.05 C 167.45 105.85 166.61 106.37 166.42 107.21 L 166.19 108.17 C 166.00 109.01 166.52 109.85 167.36 110.05 C 168.20 110.25 169.04 109.72 169.23 108.88 Z M 169.47 107.86 L 169.67 106.84 C 169.83 106.00 169.28 105.18 168.43 105.02 C 167.58 104.85 166.76 105.41 166.60 106.25 L 166.41 107.27 C 166.24 108.12 166.80 108.94 167.64 109.10 C 168.49 109.26 169.31 108.71 169.47 107.86 Z M 169.68 106.78 L 169.83 105.79 C 169.96 104.93 169.37 104.14 168.52 104.01 C 167.67 103.88 166.87 104.46 166.74 105.32 L 166.59 106.31 C 166.46 107.17 167.05 107.96 167.90 108.09 C 168.75 108.22 169.55 107.64 169.68 106.78 Z M 169.84 105.73 L 169.95 104.75 C 170.05 103.89 169.44 103.12 168.58 103.02 C 167.72 102.92 166.95 103.53 166.85 104.39 L 166.74 105.37 C 166.64 106.23 167.25 107.00 168.11 107.10 C 168.96 107.20 169.74 106.59 169.84 105.73 Z M 169.96 104.70 L 170.04 103.73 C 170.11 102.87 169.47 102.12 168.62 102.05 C 167.76 101.97 167.00 102.61 166.93 103.47 L 166.84 104.44 C 166.77 105.30 167.41 106.05 168.27 106.13 C 169.13 106.20 169.88 105.56 169.96 104.70 Z M 170.04 103.69 L 170.10 102.72 C 170.15 101.86 169.49 101.12 168.63 101.07 C 167.77 101.02 167.03 101.67 166.98 102.53 L 166.92 103.51 C 166.87 104.37 167.53 105.11 168.39 105.16 C 169.25 105.21 169.99 104.55 170.04 103.69 Z M 170.10 102.68 L 170.14 101.68 C 170.17 100.82 169.49 100.09 168.63 100.06 C 167.77 100.03 167.05 100.71 167.02 101.57 L 166.98 102.57 C 166.95 103.43 167.62 104.16 168.49 104.19 C 169.35 104.22 170.07 103.54 170.10 102.68 Z M 170.14 101.63 L 170.14 100.63 C 170.15 99.77 169.46 99.07 168.59 99.06 C 167.73 99.06 167.03 99.75 167.02 100.61 L 167.02 101.61 C 167.01 102.47 167.70 103.18 168.57 103.18 C 169.43 103.19 170.13 102.49 170.14 101.63 Z M 170.14 100.58 L 170.12 99.58 C 170.09 98.72 169.37 98.04 168.51 98.07 C 167.65 98.09 166.97 98.81 166.99 99.67 L 167.02 100.67 C 167.05 101.53 167.76 102.21 168.63 102.18 C 169.49 102.16 170.17 101.44 170.14 100.58 Z M 170.11 99.52 L 170.05 98.53 C 169.99 97.67 169.25 97.02 168.39 97.07 C 167.53 97.13 166.87 97.88 166.93 98.74 L 167.00 99.73 C 167.05 100.59 167.80 101.24 168.66 101.18 C 169.52 101.13 170.17 100.38 170.11 99.52 Z M 170.04 98.46 L 169.93 97.46 C 169.84 96.61 169.06 95.99 168.21 96.08 C 167.35 96.18 166.73 96.95 166.83 97.81 L 166.94 98.80 C 167.03 99.66 167.80 100.28 168.66 100.18 C 169.52 100.09 170.14 99.32 170.04 98.46 Z M 169.92 97.39 L 169.76 96.39 C 169.63 95.54 168.83 94.96 167.98 95.09 C 167.12 95.23 166.54 96.03 166.68 96.88 L 166.84 97.88 C 166.97 98.73 167.77 99.31 168.62 99.18 C 169.48 99.04 170.06 98.24 169.92 97.39 Z M 169.75 96.31 L 169.54 95.33 C 169.36 94.48 168.53 93.95 167.69 94.12 C 166.84 94.30 166.31 95.13 166.48 95.98 L 166.69 96.96 C 166.87 97.80 167.70 98.34 168.54 98.16 C 169.39 97.98 169.93 97.16 169.75 96.31 Z M 169.52 95.24 L 169.26 94.28 C 169.03 93.45 168.17 92.96 167.34 93.18 C 166.51 93.41 166.02 94.26 166.24 95.10 L 166.51 96.06 C 166.73 96.89 167.59 97.38 168.42 97.16 C 169.25 96.93 169.74 96.07 169.52 95.24 Z M 169.23 94.19 L 168.91 93.25 C 168.64 92.44 167.75 92.00 166.93 92.28 C 166.12 92.55 165.68 93.44 165.96 94.26 L 166.27 95.19 C 166.55 96.01 167.44 96.44 168.25 96.17 C 169.07 95.89 169.51 95.00 169.23 94.19 Z M 168.87 93.15 L 168.48 92.22 C 168.15 91.43 167.24 91.05 166.44 91.38 C 165.65 91.72 165.27 92.63 165.60 93.43 L 165.99 94.36 C 166.33 95.15 167.24 95.53 168.04 95.19 C 168.83 94.86 169.21 93.95 168.87 93.15 Z M 168.44 92.13 L 167.99 91.22 C 167.61 90.45 166.67 90.14 165.90 90.53 C 165.12 90.91 164.81 91.85 165.20 92.62 L 165.65 93.52 C 166.03 94.29 166.97 94.61 167.74 94.22 C 168.51 93.84 168.83 92.90 168.44 92.13 Z M 167.95 91.15 L 167.45 90.28 C 167.02 89.53 166.07 89.27 165.32 89.70 C 164.57 90.13 164.31 91.08 164.74 91.83 L 165.24 92.70 C 165.67 93.45 166.62 93.71 167.37 93.28 C 168.12 92.85 168.38 91.90 167.95 91.15 Z M 167.42 90.22 L 166.89 89.38 C 166.43 88.65 165.46 88.44 164.73 88.90 C 164.00 89.36 163.79 90.32 164.25 91.05 L 164.78 91.89 C 165.24 92.62 166.20 92.84 166.93 92.37 C 167.66 91.91 167.88 90.95 167.42 90.22 Z M 166.86 89.34 L 166.30 88.52 C 165.82 87.81 164.85 87.62 164.14 88.11 C 163.42 88.59 163.24 89.56 163.72 90.28 L 164.28 91.10 C 164.76 91.81 165.73 91.99 166.45 91.51 C 167.16 91.03 167.34 90.05 166.86 89.34 Z M 166.28 88.49 L 165.70 87.67 C 165.20 86.97 164.22 86.81 163.52 87.31 C 162.82 87.81 162.66 88.79 163.16 89.49 L 163.74 90.31 C 164.24 91.01 165.22 91.17 165.92 90.67 C 166.62 90.17 166.78 89.19 166.28 88.49 Z M 165.68 87.64 L 165.08 86.85 C 164.56 86.16 163.58 86.02 162.89 86.53 C 162.20 87.05 162.06 88.03 162.58 88.72 L 163.18 89.52 C 163.70 90.21 164.68 90.35 165.37 89.83 C 166.06 89.31 166.19 88.33 165.68 87.64 Z M 165.05 86.82 L 164.44 86.03 C 163.90 85.36 162.92 85.24 162.24 85.78 C 161.57 86.31 161.45 87.29 161.99 87.97 L 162.60 88.75 C 163.14 89.43 164.12 89.54 164.80 89.01 C 165.47 88.47 165.59 87.49 165.05 86.82 Z M 164.41 86.00 L 163.77 85.24 C 163.22 84.57 162.24 84.48 161.58 85.03 C 160.91 85.58 160.82 86.57 161.37 87.23 L 162.01 88.00 C 162.56 88.66 163.54 88.75 164.21 88.20 C 164.87 87.65 164.96 86.67 164.41 86.00 Z M 163.75 85.21 L 163.07 84.43 C 162.50 83.78 161.52 83.72 160.87 84.28 C 160.22 84.85 160.15 85.84 160.72 86.49 L 161.40 87.26 C 161.97 87.91 162.95 87.98 163.60 87.41 C 164.25 86.84 164.32 85.86 163.75 85.21 Z M 163.04 84.40 L 162.34 83.64 C 161.76 83.01 160.77 82.97 160.14 83.56 C 159.50 84.14 159.47 85.13 160.05 85.76 L 160.75 86.52 C 161.33 87.15 162.32 87.19 162.96 86.60 C 163.59 86.02 163.63 85.03 163.04 84.40 Z M 162.31 83.61 L 161.60 82.89 C 161.00 82.28 160.01 82.27 159.40 82.88 C 158.78 83.48 158.77 84.47 159.38 85.08 L 160.09 85.80 C 160.69 86.41 161.68 86.42 162.29 85.81 C 162.91 85.21 162.91 84.22 162.31 83.61 Z M 161.56 82.85 L 160.86 82.19 C 160.23 81.60 159.24 81.63 158.65 82.26 C 158.06 82.89 158.09 83.87 158.72 84.47 L 159.42 85.13 C 160.05 85.72 161.04 85.68 161.63 85.06 C 162.22 84.43 162.19 83.44 161.56 82.85 Z M 160.80 82.14 L 160.02 81.47 C 159.36 80.92 158.38 81.00 157.82 81.65 C 157.26 82.31 157.34 83.30 158.00 83.85 L 158.78 84.52 C 159.44 85.08 160.42 85.00 160.98 84.34 C 161.54 83.68 161.46 82.70 160.80 82.14 Z M 159.94 81.41 L 159.11 80.80 C 158.42 80.28 157.44 80.43 156.93 81.12 C 156.41 81.81 156.56 82.79 157.25 83.30 L 158.08 83.92 C 158.77 84.43 159.75 84.29 160.26 83.59 C 160.77 82.90 160.63 81.92 159.94 81.41 Z M 159.01 80.73 L 158.19 80.21 C 157.46 79.75 156.50 79.97 156.04 80.70 C 155.58 81.43 155.80 82.39 156.52 82.85 L 157.35 83.37 C 158.07 83.83 159.04 83.61 159.50 82.88 C 159.96 82.15 159.74 81.19 159.01 80.73 Z M 158.08 80.15 L 157.26 79.72 C 156.50 79.32 155.56 79.61 155.16 80.37 C 154.76 81.14 155.05 82.08 155.81 82.48 L 156.63 82.91 C 157.40 83.31 158.34 83.02 158.74 82.26 C 159.14 81.49 158.85 80.55 158.08 80.15 Z M 157.14 79.66 L 156.32 79.32 C 155.53 78.98 154.61 79.36 154.28 80.15 C 153.95 80.95 154.32 81.86 155.12 82.20 L 155.94 82.54 C 156.73 82.87 157.65 82.50 157.98 81.70 C 158.31 80.91 157.94 79.99 157.14 79.66 Z M 156.18 79.26 L 155.27 78.99 C 154.44 78.73 153.57 79.20 153.32 80.02 C 153.07 80.85 153.53 81.72 154.35 81.97 L 155.26 82.25 C 156.09 82.50 156.96 82.04 157.21 81.21 C 157.46 80.39 157.00 79.52 156.18 79.26 Z M 155.13 78.95 L 154.07 78.73 C 153.22 78.56 152.40 79.10 152.22 79.95 C 152.05 80.79 152.59 81.62 153.44 81.79 L 154.50 82.01 C 155.34 82.18 156.17 81.64 156.34 80.79 C 156.51 79.95 155.97 79.12 155.13 78.95 Z M 153.96 78.71 L 152.91 78.57 C 152.06 78.46 151.27 79.06 151.16 79.91 C 151.04 80.77 151.64 81.55 152.50 81.67 L 153.54 81.81 C 154.40 81.92 155.18 81.32 155.30 80.47 C 155.41 79.61 154.81 78.83 153.96 78.71 Z M 152.84 78.57 L 151.84 78.48 C 150.98 78.41 150.23 79.04 150.15 79.90 C 150.08 80.76 150.72 81.52 151.58 81.59 L 152.57 81.68 C 153.43 81.75 154.19 81.11 154.26 80.25 C 154.33 79.40 153.70 78.64 152.84 78.57 Z M 151.78 78.48 L 150.74 78.43 C 149.87 78.39 149.15 79.06 149.11 79.92 C 149.07 80.78 149.74 81.51 150.60 81.55 L 151.64 81.60 C 152.50 81.63 153.23 80.97 153.27 80.10 C 153.31 79.24 152.64 78.51 151.78 78.48 Z M 150.67 78.43 L 149.63 78.43 C 148.76 78.43 148.06 79.13 148.06 79.99 C 148.07 80.85 148.76 81.55 149.63 81.55 L 150.67 81.55 C 151.53 81.55 152.23 80.85 152.23 79.99 C 152.23 79.13 151.53 78.43 150.67 78.43 Z M 149.54 78.43 L 148.55 78.49 C 147.69 78.54 147.03 79.27 147.08 80.13 C 147.13 80.99 147.86 81.65 148.73 81.60 L 149.71 81.55 C 150.58 81.50 151.23 80.76 151.18 79.90 C 151.14 79.04 150.40 78.38 149.54 78.43 Z M 148.42 78.50 L 147.39 78.65 C 146.53 78.77 145.94 79.56 146.06 80.41 C 146.18 81.27 146.97 81.86 147.82 81.74 L 148.86 81.59 C 149.71 81.47 150.30 80.68 150.18 79.83 C 150.06 78.97 149.27 78.38 148.42 78.50 Z M 147.19 78.69 L 146.19 78.96 C 145.36 79.19 144.87 80.05 145.10 80.88 C 145.32 81.71 146.18 82.20 147.01 81.97 L 148.02 81.70 C 148.85 81.47 149.34 80.61 149.11 79.78 C 148.88 78.95 148.03 78.46 147.19 78.69 Z M 145.99 79.03 L 145.11 79.41 C 144.32 79.75 143.95 80.66 144.29 81.46 C 144.63 82.25 145.55 82.62 146.34 82.28 L 147.22 81.90 C 148.01 81.56 148.38 80.64 148.04 79.85 C 147.70 79.06 146.78 78.69 145.99 79.03 Z M 144.95 79.49 L 144.14 79.95 C 143.39 80.38 143.13 81.33 143.56 82.08 C 143.99 82.83 144.94 83.09 145.69 82.66 L 146.50 82.20 C 147.25 81.77 147.51 80.82 147.08 80.07 C 146.65 79.32 145.70 79.06 144.95 79.49 Z M 144.04 80.01 L 143.24 80.55 C 142.52 81.03 142.33 82.00 142.81 82.72 C 143.29 83.43 144.26 83.62 144.98 83.14 L 145.78 82.60 C 146.50 82.12 146.69 81.15 146.21 80.44 C 145.73 79.72 144.76 79.53 144.04 80.01 Z M 143.17 80.60 L 142.37 81.21 C 141.68 81.73 141.55 82.71 142.07 83.39 C 142.59 84.08 143.57 84.21 144.26 83.69 L 145.05 83.09 C 145.74 82.57 145.87 81.59 145.35 80.90 C 144.83 80.22 143.85 80.08 143.17 80.60 Z M 142.29 81.27 L 141.52 81.93 C 140.87 82.50 140.80 83.49 141.37 84.14 C 141.93 84.79 142.92 84.86 143.57 84.29 L 144.34 83.63 C 144.99 83.06 145.06 82.08 144.49 81.43 C 143.93 80.78 142.94 80.71 142.29 81.27 Z M 141.43 82.02 L 140.73 82.74 C 140.12 83.35 140.13 84.34 140.75 84.94 C 141.36 85.55 142.35 85.54 142.95 84.93 L 143.66 84.21 C 144.26 83.59 144.26 82.61 143.64 82.00 C 143.03 81.40 142.04 81.40 141.43 82.02 Z M 140.63 82.84 L 139.99 83.63 C 139.45 84.30 139.55 85.28 140.21 85.82 C 140.88 86.37 141.86 86.27 142.41 85.60 L 143.05 84.82 C 143.60 84.15 143.50 83.17 142.83 82.62 C 142.16 82.08 141.18 82.18 140.63 82.84 Z M 139.92 83.73 L 139.35 84.55 C 138.86 85.26 139.03 86.23 139.74 86.72 C 140.45 87.21 141.42 87.03 141.91 86.33 L 142.48 85.50 C 142.97 84.80 142.80 83.82 142.09 83.33 C 141.38 82.84 140.41 83.02 139.92 83.73 Z M 139.30 84.62 L 138.78 85.46 C 138.33 86.19 138.55 87.16 139.29 87.61 C 140.02 88.06 140.98 87.84 141.44 87.10 L 141.96 86.26 C 142.41 85.52 142.19 84.56 141.45 84.11 C 140.72 83.66 139.76 83.88 139.30 84.62 Z M 138.76 85.49 L 138.36 86.18 C 137.92 86.92 138.17 87.88 138.91 88.32 C 139.66 88.75 140.61 88.51 141.05 87.76 L 141.46 87.07 C 141.89 86.33 141.64 85.37 140.90 84.94 C 140.16 84.50 139.20 84.75 138.76 85.49 Z"
      fill="black"
      fill-rule="nonzero" /></svg>