<svg xmlns="http://www.w3.org/2000/svg" width="300" height="300" viewBox="0 0 300 300">
<path d="M 116.13 134.32 L 115.48 135.02 C 114.88 135.66 114.92 136.66 115.56 137.25 C 116.20 137.85 117.20 137.81 117.79 137.17 L 118.45 136.47 C 119.04 135.83 119.01 134.83 118.37 134.24 C 117.73 133.64 116.73 133.68 116.13 134.32 Z M 115.43 135.07 L 114.80 135.82 C 114.23 136.48 114.31 137.48 114.98 138.05 C 115.64 138.61 116.64 138.53 117.21 137.87 L 117.84 137.12 C 118.41 136.45 118.33 135.46 117.66 134.89 C 117.00 134.32 116.00 134.40 115.43 135.07 Z M 114.71 135.92 L 114.12 136.75 C 113.62 137.46 113.78 138.45 114.50 138.96 C 115.21 139.47 116.20 139.30 116.71 138.59 L 117.30 137.76 C 117.80 137.04 117.63 136.05 116.92 135.55 C 116.21 135.04 115.22 135.21 114.71 135.92 Z M 114.03 136.90 L 113.53 137.79 C 113.11 138.56 113.39 139.53 114.15 139.95 C 114.92 140.37 115.89 140.09 116.31 139.33 L 116.80 138.44 C 117.23 137.67 116.95 136.70 116.18 136.28 C 115.42 135.85 114.45 136.13 114.03 136.90 Z M 113.46 137.93 L 113.07 138.83 C 112.73 139.64 113.11 140.58 113.91 140.92 C 114.72 141.27 115.66 140.89 116.01 140.08 L 116.39 139.18 C 116.73 138.38 116.36 137.44 115.55 137.09 C 114.74 136.75 113.80 137.13 113.46 137.93 Z M 113.03 138.94 L 112.70 139.89 C 112.41 140.73 112.85 141.64 113.69 141.93 C 114.52 142.21 115.44 141.77 115.72 140.93 L 116.05 139.98 C 116.34 139.14 115.90 138.23 115.06 137.94 C 114.23 137.66 113.32 138.10 113.03 138.94 Z M 112.66 139.97 L 112.38 140.96 C 112.14 141.81 112.64 142.70 113.49 142.95 C 114.34 143.19 115.23 142.69 115.48 141.84 L 115.76 140.85 C 116.00 140.00 115.50 139.11 114.65 138.87 C 113.80 138.63 112.91 139.12 112.66 139.97 Z M 112.36 141.03 L 112.13 142.01 C 111.92 142.88 112.45 143.75 113.32 143.95 C 114.19 144.16 115.06 143.63 115.26 142.76 L 115.50 141.78 C 115.71 140.91 115.17 140.04 114.30 139.83 C 113.44 139.62 112.57 140.16 112.36 141.03 Z M 112.11 142.07 L 111.91 143.06 C 111.73 143.94 112.30 144.79 113.18 144.97 C 114.05 145.14 114.91 144.58 115.08 143.70 L 115.28 142.70 C 115.46 141.83 114.89 140.97 114.01 140.80 C 113.14 140.62 112.28 141.19 112.11 142.07 Z M 111.89 143.12 L 111.73 144.10 C 111.59 144.98 112.19 145.82 113.08 145.96 C 113.96 146.11 114.79 145.51 114.94 144.62 L 115.10 143.64 C 115.24 142.76 114.64 141.92 113.76 141.78 C 112.87 141.64 112.04 142.24 111.89 143.12 Z M 111.72 144.16 L 111.60 145.13 C 111.48 146.03 112.12 146.84 113.01 146.95 C 113.90 147.07 114.71 146.43 114.83 145.54 L 114.95 144.56 C 115.06 143.67 114.43 142.86 113.54 142.75 C 112.65 142.63 111.83 143.26 111.72 144.16 Z M 111.59 145.18 L 111.49 146.18 C 111.41 147.08 112.07 147.87 112.96 147.96 C 113.86 148.04 114.66 147.39 114.74 146.49 L 114.84 145.49 C 114.92 144.60 114.26 143.80 113.37 143.71 C 112.47 143.63 111.67 144.29 111.59 145.18 Z M 111.49 146.22 L 111.42 147.15 C 111.36 148.05 112.04 148.83 112.94 148.89 C 113.84 148.96 114.62 148.28 114.68 147.38 L 114.75 146.45 C 114.81 145.55 114.13 144.77 113.23 144.71 C 112.33 144.64 111.55 145.32 111.49 146.22 Z M 111.42 147.18 L 111.37 148.14 C 111.33 149.04 112.02 149.81 112.92 149.86 C 113.83 149.90 114.59 149.21 114.64 148.30 L 114.69 147.34 C 114.73 146.44 114.04 145.68 113.13 145.63 C 112.23 145.59 111.47 146.28 111.42 147.18 Z M 111.37 148.17 L 111.34 149.17 C 111.31 150.07 112.01 150.83 112.92 150.86 C 113.82 150.89 114.57 150.18 114.60 149.28 L 114.64 148.28 C 114.67 147.38 113.96 146.62 113.06 146.59 C 112.16 146.56 111.40 147.26 111.37 148.17 Z M 111.34 149.19 L 111.31 150.24 C 111.29 151.14 112.01 151.89 112.91 151.91 C 113.81 151.93 114.56 151.21 114.58 150.31 L 114.61 149.26 C 114.63 148.36 113.91 147.61 113.01 147.59 C 112.10 147.57 111.36 148.28 111.34 149.19 Z M 111.31 150.25 L 111.30 151.27 C 111.28 152.18 112.01 152.92 112.91 152.93 C 113.81 152.95 114.56 152.22 114.57 151.32 L 114.58 150.30 C 114.60 149.39 113.87 148.65 112.97 148.64 C 112.07 148.62 111.32 149.35 111.31 150.25 Z M 111.30 151.28 L 111.29 152.21 C 111.28 153.11 112.00 153.85 112.91 153.86 C 113.81 153.87 114.55 153.14 114.56 152.24 L 114.57 151.31 C 114.58 150.41 113.85 149.67 112.95 149.66 C 112.04 149.65 111.30 150.38 111.30 151.28 Z M 111.29 152.21 L 111.28 153.18 C 111.27 154.08 112.00 154.82 112.91 154.82 C 113.81 154.83 114.55 154.10 114.55 153.20 L 114.56 152.24 C 114.57 151.33 113.84 150.59 112.94 150.59 C 112.03 150.58 111.29 151.31 111.29 152.21 Z M 111.28 153.18 L 111.27 154.18 C 111.27 155.08 112.00 155.82 112.90 155.83 C 113.81 155.83 114.54 155.10 114.55 154.20 L 114.56 153.20 C 114.56 152.29 113.83 151.55 112.93 151.55 C 112.02 151.54 111.28 152.27 111.28 153.18 Z M 111.27 154.18 L 111.27 155.21 C 111.26 156.12 111.99 156.86 112.89 156.86 C 113.80 156.87 114.54 156.14 114.54 155.23 L 114.55 154.20 C 114.56 153.29 113.83 152.55 112.92 152.55 C 112.02 152.54 111.28 153.27 111.27 154.18 Z M 111.27 155.21 L 111.26 156.28 C 111.25 157.19 111.98 157.93 112.88 157.94 C 113.79 157.94 114.53 157.22 114.54 156.31 L 114.54 155.24 C 114.55 154.33 113.82 153.59 112.92 153.58 C 112.01 153.58 111.27 154.31 111.27 155.21 Z M 111.26 156.28 L 111.25 157.26 C 111.24 158.17 111.96 158.91 112.87 158.92 C 113.77 158.93 114.52 158.20 114.53 157.30 L 114.54 156.32 C 114.55 155.41 113.82 154.67 112.91 154.66 C 112.01 154.65 111.27 155.37 111.26 156.28 Z M 111.25 157.26 L 111.23 158.20 C 111.22 159.10 111.95 159.85 112.85 159.86 C 113.76 159.87 114.50 159.15 114.51 158.24 L 114.53 157.30 C 114.54 156.40 113.81 155.65 112.91 155.64 C 112.00 155.63 111.26 156.35 111.25 157.26 Z M 111.23 158.19 L 111.22 159.16 C 111.21 160.06 111.93 160.81 112.83 160.82 C 113.74 160.84 114.48 160.11 114.50 159.21 L 114.51 158.24 C 114.53 157.34 113.80 156.59 112.90 156.58 C 111.99 156.57 111.25 157.29 111.23 158.19 Z M 111.22 159.16 L 111.20 160.15 C 111.19 161.05 111.91 161.80 112.82 161.81 C 113.72 161.83 114.47 161.11 114.48 160.20 L 114.50 159.21 C 114.51 158.30 113.79 157.56 112.89 157.54 C 111.98 157.53 111.23 158.25 111.22 159.16 Z M 111.20 160.15 L 111.19 161.16 C 111.17 162.07 111.89 162.82 112.80 162.83 C 113.70 162.85 114.45 162.13 114.46 161.22 L 114.48 160.20 C 114.50 159.30 113.78 158.55 112.87 158.53 C 111.97 158.52 111.22 159.24 111.20 160.15 Z M 111.19 161.16 L 111.17 162.21 C 111.15 163.11 111.87 163.86 112.78 163.88 C 113.68 163.89 114.43 163.17 114.45 162.26 L 114.46 161.22 C 114.48 160.32 113.76 159.57 112.85 159.55 C 111.95 159.54 111.20 160.26 111.19 161.16 Z M 111.17 162.21 L 111.15 163.28 C 111.13 164.18 111.85 164.93 112.76 164.95 C 113.66 164.96 114.41 164.24 114.43 163.34 L 114.45 162.26 C 114.46 161.36 113.74 160.61 112.84 160.60 C 111.93 160.58 111.18 161.30 111.17 162.21 Z M 111.15 163.28 L 111.13 164.26 C 111.12 165.17 111.84 165.91 112.74 165.93 C 113.65 165.95 114.39 165.22 114.41 164.32 L 114.43 163.34 C 114.44 162.43 113.72 161.68 112.82 161.67 C 111.91 161.65 111.16 162.37 111.15 163.28 Z M 111.13 164.26 L 111.12 165.22 C 111.10 166.13 111.82 166.87 112.73 166.89 C 113.63 166.91 114.38 166.18 114.39 165.28 L 114.41 164.32 C 114.42 163.41 113.70 162.67 112.80 162.65 C 111.89 162.64 111.15 163.36 111.13 164.26 Z M 111.12 165.22 L 111.10 166.20 C 111.08 167.10 111.80 167.85 112.71 167.87 C 113.61 167.88 114.36 167.16 114.37 166.26 L 114.39 165.28 C 114.41 164.38 113.69 163.63 112.78 163.61 C 111.88 163.60 111.13 164.32 111.12 165.22 Z M 111.10 166.20 L 111.08 167.19 C 111.07 168.10 111.79 168.84 112.69 168.86 C 113.59 168.87 114.34 168.16 114.36 167.25 L 114.37 166.26 C 114.39 165.35 113.67 164.61 112.77 164.59 C 111.86 164.58 111.12 165.30 111.10 166.20 Z M 111.08 167.19 L 111.06 168.20 C 111.05 169.10 111.77 169.85 112.67 169.86 C 113.57 169.88 114.32 169.16 114.34 168.26 L 114.35 167.25 C 114.37 166.35 113.65 165.60 112.75 165.59 C 111.85 165.57 111.10 166.29 111.08 167.19 Z M 111.07 168.20 L 111.05 169.22 C 111.03 170.12 111.75 170.87 112.65 170.88 C 113.55 170.90 114.30 170.18 114.31 169.28 L 114.33 168.26 C 114.35 167.36 113.63 166.61 112.73 166.59 C 111.83 166.58 111.08 167.29 111.07 168.20 Z M 111.05 169.21 L 111.02 170.24 C 111.01 171.15 111.72 171.89 112.62 171.91 C 113.53 171.93 114.27 171.21 114.29 170.31 L 114.31 169.28 C 114.33 168.38 113.62 167.63 112.71 167.61 C 111.81 167.60 111.06 168.31 111.05 169.21 Z M 111.03 170.24 L 111.00 171.28 C 110.98 172.18 111.70 172.93 112.60 172.95 C 113.50 172.97 114.25 172.25 114.27 171.35 L 114.29 170.31 C 114.31 169.41 113.60 168.66 112.69 168.64 C 111.79 168.62 111.05 169.34 111.03 170.24 Z M 111.00 171.28 L 110.98 172.27 C 110.96 173.17 111.67 173.92 112.57 173.94 C 113.47 173.96 114.22 173.25 114.24 172.35 L 114.27 171.35 C 114.29 170.45 113.58 169.70 112.67 169.68 C 111.77 169.66 111.03 170.37 111.00 171.28 Z M 110.98 172.27 L 110.96 173.24 C 110.93 174.15 111.64 174.89 112.54 174.92 C 113.45 174.94 114.20 174.23 114.22 173.33 L 114.24 172.35 C 114.27 171.45 113.55 170.70 112.65 170.68 C 111.75 170.66 111.00 171.37 110.98 172.27 Z M 110.96 173.24 L 110.93 174.22 C 110.90 175.12 111.61 175.87 112.51 175.90 C 113.42 175.92 114.17 175.21 114.19 174.31 L 114.22 173.33 C 114.24 172.43 113.53 171.68 112.63 171.65 C 111.73 171.63 110.98 172.34 110.96 173.24 Z M 110.93 174.22 L 110.90 175.21 C 110.87 176.11 111.58 176.86 112.48 176.89 C 113.38 176.91 114.13 176.21 114.16 175.30 L 114.19 174.32 C 114.22 173.42 113.51 172.66 112.61 172.64 C 111.71 172.61 110.96 173.32 110.93 174.22 Z M 110.90 175.20 L 110.87 176.20 C 110.84 177.10 111.55 177.85 112.45 177.88 C 113.35 177.91 114.10 177.21 114.13 176.30 L 114.16 175.31 C 114.19 174.41 113.48 173.65 112.58 173.63 C 111.68 173.60 110.93 174.30 110.90 175.20 Z M 110.87 176.20 L 110.83 177.20 C 110.80 178.10 111.51 178.86 112.41 178.89 C 113.31 178.92 114.06 178.21 114.09 177.31 L 114.13 176.31 C 114.16 175.41 113.45 174.65 112.55 174.62 C 111.65 174.59 110.90 175.30 110.87 176.20 Z M 110.83 177.20 L 110.80 178.21 C 110.76 179.11 111.47 179.87 112.37 179.90 C 113.27 179.93 114.02 179.23 114.06 178.33 L 114.09 177.32 C 114.13 176.42 113.42 175.66 112.52 175.63 C 111.62 175.59 110.87 176.30 110.83 177.20 Z M 110.80 178.20 L 110.76 179.23 C 110.72 180.13 111.42 180.89 112.32 180.92 C 113.22 180.96 113.98 180.26 114.02 179.36 L 114.06 178.33 C 114.09 177.43 113.39 176.68 112.49 176.64 C 111.59 176.60 110.83 177.30 110.80 178.20 Z M 110.76 179.22 L 110.71 180.25 C 110.67 181.15 111.37 181.91 112.27 181.95 C 113.17 181.99 113.93 181.29 113.97 180.39 L 114.01 179.36 C 114.05 178.46 113.35 177.70 112.45 177.66 C 111.56 177.62 110.79 178.32 110.76 179.22 Z M 110.71 180.25 L 110.67 181.25 C 110.63 182.15 111.32 182.91 112.22 182.95 C 113.12 182.99 113.88 182.29 113.93 181.39 L 113.97 180.40 C 114.01 179.50 113.32 178.74 112.42 178.69 C 111.52 178.65 110.75 179.35 110.71 180.25 Z M 110.67 181.24 L 110.62 182.24 C 110.58 183.14 111.27 183.91 112.17 183.95 C 113.07 183.99 113.83 183.30 113.88 182.40 L 113.92 181.40 C 113.97 180.50 113.27 179.74 112.37 179.69 C 111.48 179.65 110.71 180.34 110.67 181.24 Z M 110.62 182.24 L 110.57 183.25 C 110.53 184.15 111.22 184.91 112.12 184.96 C 113.02 185.00 113.78 184.31 113.83 183.41 L 113.88 182.40 C 113.92 181.51 113.23 180.74 112.33 180.70 C 111.43 180.65 110.67 181.34 110.62 182.24 Z M 110.57 183.24 L 110.52 184.25 C 110.47 185.15 111.16 185.92 112.06 185.96 C 112.96 186.01 113.73 185.32 113.77 184.42 L 113.82 183.41 C 113.87 182.52 113.18 181.75 112.28 181.70 C 111.38 181.66 110.62 182.35 110.57 183.24 Z M 110.52 184.25 L 110.46 185.26 C 110.42 186.16 111.11 186.92 112.00 186.97 C 112.90 187.02 113.67 186.33 113.72 185.43 L 113.77 184.43 C 113.82 183.53 113.13 182.76 112.23 182.71 C 111.34 182.66 110.57 183.35 110.52 184.25 Z M 110.47 185.26 L 110.41 186.26 C 110.36 187.16 111.05 187.93 111.94 187.98 C 112.84 188.03 113.61 187.34 113.66 186.44 L 113.72 185.44 C 113.77 184.54 113.08 183.77 112.18 183.72 C 111.28 183.67 110.52 184.36 110.47 185.26 Z M 110.41 186.26 L 110.35 187.26 C 110.30 188.15 110.99 188.92 111.89 188.97 C 112.78 189.02 113.55 188.34 113.60 187.44 L 113.66 186.44 C 113.71 185.55 113.03 184.78 112.13 184.73 C 111.23 184.67 110.46 185.36 110.41 186.26 Z M 110.35 187.25 L 110.30 188.24 C 110.24 189.14 110.93 189.91 111.83 189.96 C 112.72 190.01 113.49 189.33 113.54 188.43 L 113.60 187.44 C 113.65 186.55 112.97 185.78 112.07 185.72 C 111.18 185.67 110.41 186.36 110.35 187.25 Z M 110.30 188.24 L 110.24 189.22 C 110.19 190.12 110.87 190.89 111.77 190.94 C 112.66 190.99 113.43 190.31 113.49 189.41 L 113.54 188.43 C 113.60 187.54 112.91 186.77 112.02 186.71 C 111.12 186.66 110.35 187.34 110.30 188.24 Z M 110.24 189.22 L 110.18 190.24 C 110.12 191.14 110.81 191.91 111.70 191.96 C 112.60 192.01 113.37 191.33 113.42 190.44 L 113.49 189.41 C 113.54 188.52 112.86 187.75 111.96 187.69 C 111.06 187.64 110.29 188.32 110.24 189.22 Z M 110.18 190.24 L 110.11 191.25 C 110.06 192.15 110.74 192.92 111.64 192.98 C 112.53 193.03 113.31 192.35 113.36 191.45 L 113.42 190.44 C 113.48 189.54 112.80 188.77 111.90 188.71 C 111.00 188.66 110.23 189.34 110.18 190.24 Z M 110.11 191.25 L 110.05 192.26 C 109.99 193.15 110.67 193.93 111.57 193.98 C 112.47 194.04 113.24 193.36 113.30 192.46 L 113.36 191.46 C 113.42 190.56 112.74 189.79 111.84 189.73 C 110.94 189.67 110.17 190.36 110.11 191.25 Z M 110.05 192.25 L 109.99 193.25 C 109.93 194.15 110.61 194.92 111.50 194.98 C 112.40 195.04 113.17 194.36 113.23 193.46 L 113.30 192.46 C 113.36 191.57 112.68 190.79 111.78 190.74 C 110.88 190.68 110.11 191.36 110.05 192.25 Z M 109.99 193.25 L 109.92 194.24 C 109.86 195.13 110.54 195.91 111.43 195.97 C 112.33 196.03 113.11 195.35 113.17 194.45 L 113.23 193.46 C 113.29 192.57 112.61 191.79 111.72 191.73 C 110.82 191.67 110.05 192.35 109.99 193.25 Z M 109.92 194.23 L 109.85 195.22 C 109.79 196.11 110.46 196.89 111.36 196.95 C 112.26 197.02 113.03 196.34 113.10 195.44 L 113.17 194.46 C 113.23 193.56 112.55 192.78 111.66 192.72 C 110.76 192.66 109.98 193.34 109.92 194.23 Z M 109.85 195.21 L 109.78 196.20 C 109.72 197.09 110.39 197.87 111.29 197.94 C 112.18 198.00 112.96 197.33 113.03 196.43 L 113.10 195.45 C 113.16 194.55 112.49 193.77 111.59 193.71 C 110.69 193.64 109.92 194.32 109.85 195.21 Z M 109.78 196.19 L 109.71 197.18 C 109.64 198.07 110.31 198.86 111.21 198.92 C 112.10 198.99 112.88 198.32 112.95 197.42 L 113.03 196.44 C 113.09 195.54 112.42 194.76 111.52 194.69 C 110.63 194.62 109.85 195.30 109.78 196.19 Z M 109.71 197.17 L 109.63 198.15 C 109.56 199.05 110.23 199.83 111.13 199.90 C 112.02 199.97 112.80 199.30 112.87 198.41 L 112.95 197.43 C 113.02 196.53 112.35 195.75 111.46 195.68 C 110.56 195.61 109.78 196.28 109.71 197.17 Z M 109.63 198.15 L 109.55 199.12 C 109.48 200.02 110.15 200.80 111.04 200.88 C 111.94 200.95 112.72 200.28 112.80 199.39 L 112.87 198.41 C 112.95 197.52 112.28 196.73 111.38 196.66 C 110.49 196.59 109.70 197.25 109.63 198.15 Z M 109.55 199.12 L 109.47 200.10 C 109.39 200.99 110.06 201.78 110.95 201.85 C 111.85 201.93 112.64 201.26 112.71 200.37 L 112.79 199.39 C 112.87 198.50 112.21 197.71 111.31 197.63 C 110.41 197.56 109.63 198.22 109.55 199.12 Z M 109.47 200.09 L 109.38 201.07 C 109.31 201.97 109.97 202.76 110.86 202.84 C 111.76 202.92 112.55 202.25 112.62 201.36 L 112.71 200.37 C 112.79 199.48 112.13 198.69 111.23 198.61 C 110.34 198.53 109.55 199.20 109.47 200.09 Z M 109.38 201.07 L 109.29 202.06 C 109.21 202.96 109.87 203.75 110.77 203.83 C 111.66 203.91 112.45 203.25 112.53 202.35 L 112.62 201.36 C 112.71 200.47 112.05 199.68 111.15 199.60 C 110.26 199.52 109.47 200.18 109.38 201.07 Z M 109.30 202.06 L 109.20 203.05 C 109.12 203.95 109.78 204.74 110.67 204.83 C 111.56 204.91 112.36 204.25 112.44 203.36 L 112.53 202.36 C 112.62 201.46 111.96 200.67 111.07 200.59 C 110.17 200.50 109.38 201.16 109.30 202.06 Z M 109.20 203.05 L 109.11 204.06 C 109.02 204.95 109.68 205.74 110.57 205.83 C 111.46 205.92 112.26 205.26 112.34 204.37 L 112.44 203.36 C 112.53 202.47 111.87 201.67 110.98 201.59 C 110.08 201.50 109.29 202.16 109.20 203.05 Z M 109.11 204.05 L 109.01 205.06 C 108.92 205.96 109.57 206.75 110.46 206.84 C 111.36 206.93 112.15 206.28 112.24 205.38 L 112.34 204.37 C 112.43 203.48 111.78 202.68 110.88 202.59 C 109.99 202.50 109.19 203.16 109.11 204.05 Z M 109.01 205.06 L 108.90 206.08 C 108.81 206.98 109.46 207.77 110.36 207.86 C 111.25 207.95 112.05 207.30 112.14 206.41 L 112.24 205.39 C 112.33 204.50 111.68 203.70 110.79 203.61 C 109.90 203.52 109.10 204.17 109.01 205.06 Z M 108.90 206.08 L 108.80 207.07 C 108.71 207.97 109.36 208.76 110.25 208.86 C 111.14 208.95 111.94 208.30 112.03 207.41 L 112.14 206.41 C 112.23 205.52 111.58 204.72 110.69 204.63 C 109.80 204.54 109.00 205.18 108.90 206.08 Z M 108.80 207.07 L 108.70 208.05 C 108.60 208.94 109.25 209.74 110.14 209.84 C 111.03 209.93 111.83 209.29 111.93 208.39 L 112.03 207.41 C 112.13 206.52 111.48 205.72 110.59 205.62 C 109.70 205.53 108.90 206.18 108.80 207.07 Z M 108.70 208.05 L 108.59 209.04 C 108.49 209.93 109.14 210.73 110.03 210.83 C 110.92 210.92 111.72 210.28 111.82 209.39 L 111.93 208.40 C 112.03 207.51 111.38 206.70 110.49 206.61 C 109.60 206.51 108.79 207.15 108.70 208.05 Z M 108.59 209.03 L 108.48 210.03 C 108.38 210.92 109.02 211.72 109.92 211.82 C 110.81 211.92 111.61 211.28 111.71 210.38 L 111.82 209.39 C 111.92 208.50 111.28 207.69 110.38 207.60 C 109.49 207.50 108.69 208.14 108.59 209.03 Z M 108.48 210.02 L 108.37 211.02 C 108.27 211.91 108.91 212.72 109.80 212.82 C 110.69 212.92 111.50 212.28 111.60 211.38 L 111.71 210.39 C 111.81 209.49 111.17 208.69 110.28 208.59 C 109.39 208.49 108.58 209.13 108.48 210.02 Z M 108.37 211.02 L 108.25 212.01 C 108.15 212.91 108.79 213.71 109.68 213.81 C 110.57 213.92 111.38 213.28 111.48 212.39 L 111.60 211.39 C 111.70 210.49 111.06 209.69 110.17 209.59 C 109.28 209.48 108.47 210.12 108.37 211.02 Z M 108.25 212.01 L 108.14 213.01 C 108.03 213.90 108.67 214.71 109.56 214.81 C 110.45 214.92 111.26 214.28 111.37 213.39 L 111.48 212.39 C 111.59 211.50 110.95 210.69 110.06 210.59 C 109.17 210.48 108.36 211.12 108.25 212.01 Z M 108.14 213.01 L 108.02 214.01 C 107.91 214.90 108.55 215.71 109.44 215.81 C 110.33 215.92 111.14 215.28 111.25 214.39 L 111.36 213.39 C 111.47 212.50 110.83 211.69 109.94 211.59 C 109.05 211.48 108.24 212.12 108.14 213.01 Z M 108.02 214.00 L 107.90 215.00 C 107.79 215.89 108.42 216.70 109.32 216.81 C 110.21 216.92 111.02 216.28 111.12 215.39 L 111.25 214.40 C 111.35 213.50 110.72 212.69 109.83 212.59 C 108.94 212.48 108.13 213.11 108.02 214.00 Z M 107.90 215.00 L 107.77 216.00 C 107.66 216.90 108.30 217.71 109.19 217.82 C 110.08 217.93 110.89 217.29 111.00 216.40 L 111.12 215.40 C 111.23 214.51 110.60 213.69 109.71 213.59 C 108.82 213.48 108.01 214.11 107.90 215.00 Z M 107.77 216.00 L 107.65 217.01 C 107.54 217.90 108.17 218.72 109.06 218.83 C 109.95 218.94 110.76 218.31 110.87 217.42 L 111.00 216.41 C 111.11 215.51 110.48 214.70 109.59 214.59 C 108.70 214.48 107.89 215.11 107.77 216.00 Z M 107.65 217.01 L 107.52 218.02 C 107.40 218.91 108.04 219.72 108.93 219.84 C 109.82 219.95 110.63 219.32 110.75 218.43 L 110.88 217.42 C 110.99 216.53 110.36 215.71 109.47 215.60 C 108.57 215.49 107.76 216.12 107.65 217.01 Z M 107.52 218.01 L 107.39 219.02 C 107.27 219.91 107.90 220.73 108.79 220.84 C 109.69 220.96 110.50 220.33 110.62 219.44 L 110.75 218.43 C 110.86 217.54 110.23 216.72 109.34 216.61 C 108.45 216.49 107.63 217.12 107.52 218.01 Z M 107.39 219.01 L 107.25 220.01 C 107.14 220.90 107.76 221.72 108.66 221.84 C 109.55 221.96 110.37 221.33 110.49 220.44 L 110.62 219.44 C 110.74 218.55 110.11 217.73 109.22 217.61 C 108.32 217.49 107.50 218.12 107.39 219.01 Z M 107.25 220.01 L 107.12 221.00 C 107.00 221.89 107.63 222.71 108.52 222.83 C 109.41 222.95 110.24 222.32 110.36 221.43 L 110.49 220.44 C 110.61 219.55 109.98 218.73 109.09 218.61 C 108.20 218.49 107.37 219.11 107.25 220.01 Z M 107.12 220.99 L 106.98 221.98 C 106.86 222.87 107.49 223.69 108.38 223.82 C 109.28 223.94 110.10 223.31 110.22 222.42 L 110.36 221.44 C 110.48 220.54 109.85 219.72 108.96 219.60 C 108.07 219.47 107.24 220.10 107.12 220.99 Z M 106.98 221.97 L 106.85 222.95 C 106.72 223.84 107.35 224.67 108.24 224.79 C 109.13 224.92 109.96 224.29 110.09 223.40 L 110.22 222.42 C 110.35 221.53 109.72 220.70 108.83 220.58 C 107.94 220.45 107.11 221.08 106.98 221.97 Z M 106.85 222.94 L 106.71 223.91 C 106.58 224.80 107.20 225.63 108.10 225.76 C 108.99 225.89 109.82 225.27 109.95 224.37 L 110.09 223.40 C 110.21 222.51 109.59 221.68 108.70 221.55 C 107.80 221.42 106.97 222.05 106.85 222.94 Z M 106.71 223.90 L 106.56 224.89 C 106.43 225.78 107.05 226.61 107.95 226.74 C 108.84 226.88 109.68 226.26 109.81 225.36 L 109.95 224.38 C 110.08 223.48 109.46 222.65 108.57 222.52 C 107.67 222.39 106.84 223.01 106.71 223.90 Z M 106.56 224.88 L 106.41 225.89 C 106.28 226.79 106.90 227.62 107.79 227.75 C 108.69 227.89 109.52 227.27 109.66 226.37 L 109.81 225.37 C 109.94 224.47 109.32 223.64 108.43 223.50 C 107.53 223.37 106.70 223.99 106.56 224.88 Z M 106.41 225.88 L 106.26 226.88 C 106.12 227.78 106.74 228.62 107.63 228.75 C 108.53 228.89 109.37 228.28 109.50 227.38 L 109.66 226.38 C 109.79 225.49 109.18 224.65 108.28 224.51 C 107.39 224.37 106.55 224.99 106.41 225.88 Z M 106.26 226.88 L 106.10 227.87 C 105.96 228.77 106.58 229.60 107.47 229.75 C 108.37 229.89 109.21 229.27 109.35 228.38 L 109.50 227.39 C 109.64 226.49 109.03 225.65 108.14 225.51 C 107.24 225.37 106.40 225.98 106.26 226.88 Z M 106.10 227.86 L 105.95 228.85 C 105.80 229.74 106.41 230.59 107.31 230.73 C 108.20 230.87 109.05 230.26 109.19 229.37 L 109.35 228.38 C 109.49 227.49 108.88 226.65 107.99 226.50 C 107.09 226.36 106.25 226.97 106.10 227.86 Z M 105.95 228.84 L 105.79 229.82 C 105.64 230.72 106.25 231.56 107.14 231.71 C 108.04 231.86 108.88 231.25 109.03 230.35 L 109.19 229.37 C 109.34 228.48 108.73 227.63 107.83 227.49 C 106.94 227.34 106.09 227.95 105.95 228.84 Z M 105.79 229.82 L 105.62 230.79 C 105.47 231.69 106.08 232.54 106.97 232.69 C 107.87 232.84 108.71 232.23 108.87 231.34 L 109.03 230.36 C 109.18 229.47 108.57 228.62 107.68 228.47 C 106.78 228.32 105.94 228.92 105.79 229.82 Z M 105.62 230.79 L 105.46 231.76 C 105.30 232.65 105.90 233.50 106.80 233.66 C 107.69 233.81 108.54 233.21 108.70 232.32 L 108.86 231.34 C 109.02 230.45 108.42 229.60 107.52 229.44 C 106.63 229.29 105.78 229.89 105.62 230.79 Z M 105.46 231.75 L 105.29 232.72 C 105.13 233.62 105.73 234.47 106.62 234.63 C 107.52 234.79 108.37 234.19 108.53 233.29 L 108.70 232.32 C 108.85 231.43 108.26 230.57 107.36 230.42 C 106.47 230.26 105.61 230.86 105.46 231.75 Z M 105.29 232.72 L 105.10 233.74 C 104.94 234.64 105.54 235.49 106.43 235.65 C 107.33 235.81 108.18 235.22 108.34 234.32 L 108.53 233.30 C 108.69 232.40 108.09 231.55 107.20 231.39 C 106.30 231.23 105.45 231.82 105.29 232.72 Z M 105.10 233.73 L 104.91 234.76 C 104.75 235.65 105.34 236.51 106.24 236.68 C 107.13 236.84 107.99 236.25 108.16 235.35 L 108.35 234.33 C 108.51 233.43 107.92 232.57 107.02 232.41 C 106.13 232.25 105.27 232.84 105.10 233.73 Z M 104.91 234.75 L 104.72 235.76 C 104.55 236.66 105.14 237.52 106.04 237.69 C 106.94 237.86 107.80 237.27 107.97 236.37 L 108.16 235.36 C 108.33 234.46 107.74 233.60 106.84 233.43 C 105.94 233.26 105.08 233.85 104.91 234.75 Z M 104.72 235.75 L 104.53 236.75 C 104.36 237.65 104.94 238.52 105.84 238.69 C 106.74 238.86 107.60 238.28 107.78 237.38 L 107.97 236.38 C 108.14 235.48 107.56 234.61 106.66 234.44 C 105.76 234.27 104.89 234.86 104.72 235.75 Z M 104.53 236.74 L 104.33 237.73 C 104.15 238.62 104.74 239.50 105.64 239.67 C 106.53 239.85 107.40 239.27 107.58 238.37 L 107.78 237.39 C 107.95 236.49 107.37 235.62 106.47 235.44 C 105.58 235.26 104.71 235.85 104.53 236.74 Z M 104.33 237.72 L 104.14 238.68 C 103.95 239.58 104.53 240.45 105.43 240.64 C 106.33 240.82 107.20 240.24 107.39 239.34 L 107.58 238.38 C 107.77 237.48 107.19 236.61 106.29 236.42 C 105.39 236.24 104.52 236.82 104.33 237.72 Z M 104.14 238.67 L 103.94 239.61 C 103.75 240.51 104.32 241.39 105.22 241.58 C 106.12 241.77 107.00 241.19 107.19 240.29 L 107.39 239.36 C 107.57 238.46 107.00 237.58 106.10 237.39 C 105.21 237.20 104.32 237.77 104.14 238.67 Z M 103.94 239.60 L 103.74 240.51 C 103.54 241.41 104.11 242.29 105.01 242.49 C 105.91 242.68 106.79 242.11 106.99 241.22 L 107.19 240.31 C 107.38 239.41 106.81 238.52 105.92 238.33 C 105.02 238.13 104.13 238.70 103.94 239.60 Z M 103.74 240.49 L 103.50 241.55 C 103.30 242.44 103.86 243.33 104.76 243.54 C 105.66 243.74 106.55 243.18 106.75 242.28 L 106.99 241.23 C 107.19 240.33 106.63 239.44 105.73 239.24 C 104.84 239.04 103.94 239.60 103.74 240.49 Z M 103.51 241.53 L 103.27 242.55 C 103.06 243.44 103.61 244.34 104.50 244.55 C 105.40 244.76 106.30 244.21 106.51 243.31 L 106.75 242.30 C 106.96 241.40 106.40 240.50 105.51 240.29 C 104.61 240.08 103.72 240.64 103.51 241.53 Z M 103.27 242.54 L 103.03 243.52 C 102.81 244.41 103.36 245.31 104.25 245.53 C 105.14 245.75 106.04 245.20 106.26 244.31 L 106.50 243.33 C 106.72 242.43 106.17 241.53 105.28 241.31 C 104.39 241.10 103.49 241.64 103.27 242.54 Z M 103.03 243.51 L 102.79 244.46 C 102.57 245.35 103.11 246.26 104.00 246.48 C 104.89 246.71 105.80 246.17 106.02 245.28 L 106.26 244.32 C 106.48 243.43 105.94 242.52 105.05 242.30 C 104.16 242.08 103.26 242.62 103.03 243.51 Z M 102.79 244.45 L 102.55 245.39 C 102.33 246.28 102.86 247.19 103.75 247.41 C 104.64 247.64 105.55 247.11 105.78 246.22 L 106.02 245.28 C 106.25 244.39 105.71 243.49 104.82 243.26 C 103.93 243.03 103.02 243.56 102.79 244.45 Z M 102.56 245.38 L 102.32 246.30 C 102.08 247.19 102.62 248.10 103.51 248.33 C 104.39 248.56 105.30 248.03 105.54 247.14 L 105.78 246.22 C 106.01 245.33 105.48 244.43 104.59 244.19 C 103.70 243.96 102.79 244.49 102.56 245.38 Z M 102.32 246.30 L 102.07 247.23 C 101.84 248.12 102.37 249.03 103.26 249.26 C 104.15 249.50 105.06 248.97 105.29 248.08 L 105.54 247.15 C 105.77 246.26 105.24 245.35 104.35 245.11 C 103.46 244.88 102.55 245.41 102.32 246.30 Z M 102.07 247.23 L 101.81 248.20 C 101.58 249.09 102.11 250.00 103.00 250.24 C 103.89 250.47 104.80 249.94 105.03 249.05 L 105.29 248.08 C 105.53 247.19 105.00 246.28 104.11 246.05 C 103.22 245.81 102.31 246.34 102.07 247.23 Z M 101.81 248.20 L 101.55 249.17 C 101.32 250.06 101.85 250.97 102.74 251.21 C 103.62 251.45 104.54 250.92 104.78 250.03 L 105.03 249.06 C 105.27 248.17 104.74 247.25 103.85 247.02 C 102.96 246.78 102.05 247.31 101.81 248.20 Z M 101.55 249.16 L 101.29 250.13 C 101.05 251.02 101.58 251.94 102.47 252.18 C 103.36 252.41 104.28 251.89 104.52 251.00 L 104.78 250.03 C 105.01 249.14 104.49 248.23 103.60 247.99 C 102.71 247.75 101.79 248.27 101.55 249.16 Z M 101.29 250.13 L 101.03 251.09 C 100.79 251.98 101.32 252.90 102.21 253.14 C 103.10 253.38 104.01 252.85 104.26 251.96 L 104.52 251.00 C 104.76 250.11 104.23 249.19 103.34 248.95 C 102.45 248.71 101.53 249.24 101.29 250.13 Z M 101.03 251.08 L 100.77 252.04 C 100.52 252.93 101.05 253.85 101.94 254.10 C 102.83 254.34 103.75 253.82 103.99 252.93 L 104.26 251.97 C 104.50 251.08 103.98 250.16 103.09 249.91 C 102.20 249.67 101.28 250.19 101.03 251.08 Z M 100.77 252.04 L 100.50 253.00 C 100.25 253.89 100.77 254.81 101.66 255.06 C 102.55 255.31 103.47 254.79 103.72 253.90 L 103.99 252.94 C 104.24 252.05 103.72 251.12 102.83 250.87 C 101.94 250.63 101.02 251.15 100.77 252.04 Z M 100.50 252.99 L 100.23 253.96 C 99.97 254.85 100.49 255.78 101.38 256.03 C 102.27 256.28 103.19 255.77 103.44 254.88 L 103.72 253.90 C 103.97 253.01 103.46 252.09 102.57 251.84 C 101.68 251.58 100.75 252.10 100.50 252.99 Z M 100.23 253.96 L 99.95 254.93 C 99.69 255.81 100.21 256.74 101.09 257.00 C 101.98 257.25 102.91 256.74 103.16 255.85 L 103.44 254.88 C 103.70 254.00 103.19 253.07 102.30 252.81 C 101.41 252.56 100.48 253.07 100.23 253.96 Z M 99.95 254.92 L 99.67 255.89 C 99.41 256.77 99.92 257.70 100.80 257.96 C 101.69 258.22 102.62 257.71 102.88 256.82 L 103.16 255.86 C 103.42 254.97 102.91 254.05 102.02 253.79 C 101.14 253.53 100.21 254.04 99.95 254.92 Z M 99.67 255.88 L 99.39 256.84 C 99.13 257.72 99.63 258.65 100.51 258.91 C 101.40 259.17 102.33 258.67 102.59 257.79 L 102.87 256.83 C 103.14 255.95 102.63 255.02 101.75 254.75 C 100.86 254.49 99.94 255.00 99.67 255.88 Z M 99.39 256.83 L 99.11 257.78 C 98.84 258.66 99.34 259.59 100.22 259.86 C 101.11 260.12 102.04 259.62 102.30 258.74 L 102.59 257.79 C 102.85 256.91 102.35 255.98 101.47 255.71 C 100.59 255.45 99.66 255.95 99.39 256.83 Z M 99.11 257.77 L 98.82 258.72 C 98.56 259.60 99.05 260.53 99.93 260.80 C 100.81 261.07 101.74 260.57 102.01 259.69 L 102.30 258.74 C 102.57 257.86 102.07 256.93 101.19 256.66 C 100.31 256.40 99.38 256.89 99.11 257.77 Z M 98.83 258.71 L 98.52 259.71 C 98.25 260.59 98.74 261.52 99.62 261.79 C 100.50 262.06 101.43 261.57 101.70 260.69 L 102.01 259.69 C 102.28 258.82 101.79 257.88 100.91 257.61 C 100.03 257.34 99.10 257.83 98.83 258.71 Z M 98.52 259.70 L 98.21 260.68 C 97.94 261.56 98.43 262.49 99.31 262.77 C 100.18 263.04 101.12 262.55 101.39 261.68 L 101.70 260.70 C 101.98 259.82 101.49 258.88 100.61 258.61 C 99.73 258.33 98.80 258.82 98.52 259.70 Z M 98.22 260.67 L 97.91 261.63 C 97.63 262.51 98.11 263.44 98.99 263.72 C 99.87 264.01 100.80 263.52 101.08 262.64 L 101.39 261.68 C 101.67 260.81 101.19 259.87 100.31 259.59 C 99.43 259.31 98.50 259.79 98.22 260.67 Z M 97.91 261.62 L 97.61 262.56 C 97.32 263.43 97.80 264.37 98.67 264.66 C 99.55 264.95 100.49 264.47 100.78 263.59 L 101.08 262.66 C 101.37 261.78 100.89 260.84 100.02 260.55 C 99.14 260.27 98.20 260.74 97.91 261.62 Z M 97.61 262.54 L 97.30 263.46 C 97.01 264.33 97.48 265.28 98.35 265.57 C 99.23 265.86 100.17 265.39 100.46 264.52 L 100.77 263.61 C 101.06 262.73 100.59 261.79 99.72 261.49 C 98.85 261.20 97.90 261.67 97.61 262.54 Z M 97.31 263.44 L 96.98 264.38 C 96.68 265.25 97.14 266.20 98.01 266.51 C 98.88 266.81 99.83 266.35 100.13 265.48 L 100.46 264.53 C 100.76 263.66 100.30 262.71 99.43 262.41 C 98.56 262.11 97.61 262.57 97.31 263.44 Z M 96.99 264.37 L 96.64 265.34 C 96.33 266.20 96.78 267.16 97.65 267.47 C 98.51 267.78 99.47 267.33 99.78 266.46 L 100.12 265.49 C 100.44 264.63 99.99 263.67 99.12 263.36 C 98.25 263.05 97.30 263.50 96.99 264.37 Z M 96.65 265.32 L 96.30 266.26 C 95.98 267.12 96.42 268.08 97.28 268.40 C 98.14 268.72 99.10 268.28 99.42 267.42 L 99.77 266.48 C 100.09 265.62 99.65 264.66 98.79 264.34 C 97.93 264.02 96.97 264.46 96.65 265.32 Z M 96.31 266.25 L 95.96 267.17 C 95.63 268.02 96.06 268.98 96.91 269.31 C 97.77 269.64 98.73 269.21 99.06 268.35 L 99.41 267.43 C 99.74 266.58 99.31 265.62 98.45 265.29 C 97.60 264.96 96.64 265.39 96.31 266.25 Z M 95.97 267.15 L 95.61 268.06 C 95.28 268.91 95.69 269.87 96.54 270.20 C 97.40 270.54 98.36 270.12 98.69 269.27 L 99.05 268.37 C 99.38 267.51 98.96 266.55 98.11 266.22 C 97.26 265.88 96.30 266.30 95.97 267.15 Z M 95.62 268.05 L 95.25 268.96 C 94.91 269.80 95.32 270.77 96.17 271.11 C 97.01 271.45 97.98 271.04 98.32 270.19 L 98.68 269.28 C 99.03 268.44 98.62 267.47 97.77 267.13 C 96.92 266.79 95.96 267.20 95.62 268.05 Z M 95.26 268.94 L 94.88 269.86 C 94.52 270.70 94.92 271.67 95.76 272.02 C 96.61 272.37 97.57 271.97 97.92 271.13 L 98.31 270.21 C 98.66 269.37 98.26 268.40 97.42 268.05 C 96.58 267.70 95.61 268.10 95.26 268.94 Z M 94.89 269.83 L 94.49 270.74 C 94.12 271.57 94.50 272.55 95.33 272.92 C 96.17 273.28 97.14 272.91 97.51 272.07 L 97.91 271.16 C 98.28 270.33 97.90 269.35 97.07 268.98 C 96.23 268.61 95.26 268.99 94.89 269.83 Z M 94.51 270.70 L 94.08 271.60 C 93.69 272.42 94.04 273.41 94.86 273.80 C 95.68 274.19 96.67 273.84 97.06 273.02 L 97.49 272.11 C 97.88 271.29 97.53 270.31 96.71 269.91 C 95.88 269.52 94.90 269.87 94.51 270.70 Z M 94.10 271.55 L 93.64 272.44 C 93.22 273.25 93.54 274.24 94.34 274.67 C 95.15 275.09 96.15 274.77 96.57 273.96 L 97.03 273.07 C 97.45 272.26 97.14 271.26 96.33 270.84 C 95.52 270.42 94.53 270.74 94.10 271.55 Z M 93.68 272.38 L 93.16 273.27 C 92.71 274.06 92.98 275.07 93.77 275.52 C 94.56 275.98 95.56 275.71 96.02 274.92 L 96.53 274.02 C 96.99 273.24 96.72 272.23 95.93 271.77 C 95.14 271.32 94.13 271.59 93.68 272.38 Z M 93.21 273.20 L 92.65 274.07 C 92.15 274.83 92.37 275.85 93.13 276.34 C 93.90 276.84 94.92 276.62 95.41 275.86 L 95.97 274.99 C 96.47 274.22 96.25 273.21 95.48 272.71 C 94.72 272.22 93.70 272.44 93.21 273.20 Z M 92.71 273.99 L 92.10 274.81 C 91.56 275.54 91.72 276.56 92.45 277.10 C 93.18 277.64 94.21 277.49 94.75 276.76 L 95.35 275.94 C 95.89 275.21 95.73 274.18 95.00 273.64 C 94.27 273.10 93.25 273.26 92.71 273.99 Z M 92.18 274.71 L 91.54 275.46 C 90.95 276.14 91.03 277.17 91.71 277.77 C 92.40 278.36 93.43 278.28 94.02 277.59 L 94.66 276.85 C 95.26 276.17 95.18 275.13 94.49 274.54 C 93.81 273.95 92.77 274.03 92.18 274.71 Z M 91.65 275.34 L 90.98 275.99 C 90.32 276.62 90.30 277.65 90.93 278.30 C 91.55 278.96 92.59 278.98 93.24 278.35 L 93.91 277.71 C 94.57 277.08 94.59 276.05 93.96 275.39 C 93.34 274.74 92.30 274.72 91.65 275.34 Z M 91.13 275.87 L 90.30 276.49 C 89.58 277.02 89.43 278.04 89.96 278.77 C 90.50 279.49 91.52 279.64 92.24 279.10 L 93.08 278.48 C 93.80 277.94 93.95 276.92 93.41 276.20 C 92.88 275.48 91.86 275.33 91.13 275.87 Z M 90.46 276.39 L 89.60 276.88 C 88.82 277.33 88.55 278.32 89.00 279.10 C 89.44 279.87 90.43 280.14 91.21 279.70 L 92.08 279.20 C 92.85 278.76 93.12 277.77 92.68 276.99 C 92.23 276.21 91.24 275.94 90.46 276.39 Z M 89.72 276.83 L 88.83 277.24 C 88.03 277.62 87.68 278.58 88.05 279.39 C 88.43 280.19 89.39 280.54 90.20 280.17 L 91.09 279.75 C 91.89 279.38 92.24 278.42 91.87 277.61 C 91.49 276.80 90.53 276.45 89.72 276.83 Z M 88.90 277.22 L 88.03 277.58 C 87.21 277.92 86.82 278.86 87.16 279.68 C 87.50 280.50 88.44 280.89 89.26 280.55 L 90.13 280.19 C 90.95 279.85 91.34 278.91 91.00 278.09 C 90.66 277.27 89.72 276.88 88.90 277.22 Z"
      fill="black"
      fill-rule="nonzero" /><path d="M 111.71 186.87 L 111.39 187.75 C 111.10 188.56 111.52 189.45 112.34 189.75 C 113.15 190.04 114.04 189.62 114.33 188.80 L 114.65 187.92 C 114.94 187.11 114.52 186.22 113.71 185.93 C 112.90 185.64 112.00 186.06 111.71 186.87 Z M 111.38 187.78 L 111.07 188.70 C 110.80 189.52 111.24 190.41 112.06 190.68 C 112.88 190.95 113.76 190.51 114.04 189.69 L 114.34 188.77 C 114.62 187.96 114.18 187.07 113.36 186.80 C 112.54 186.52 111.66 186.96 111.38 187.78 Z M 111.06 188.76 L 110.76 189.77 C 110.52 190.60 110.99 191.46 111.82 191.70 C 112.65 191.95 113.52 191.47 113.76 190.64 L 114.05 189.64 C 114.30 188.81 113.82 187.94 112.99 187.70 C 112.17 187.46 111.30 187.93 111.06 188.76 Z M 110.74 189.83 L 110.52 190.76 C 110.31 191.60 110.82 192.44 111.66 192.65 C 112.50 192.85 113.34 192.34 113.55 191.51 L 113.78 190.58 C 113.98 189.74 113.47 188.90 112.63 188.69 C 111.80 188.48 110.95 189.00 110.74 189.83 Z M 110.50 190.82 L 110.32 191.72 C 110.14 192.57 110.69 193.39 111.53 193.57 C 112.38 193.74 113.20 193.19 113.38 192.35 L 113.56 191.45 C 113.73 190.60 113.19 189.78 112.35 189.60 C 111.50 189.43 110.68 189.97 110.50 190.82 Z M 110.31 191.78 L 110.14 192.76 C 110.00 193.61 110.58 194.41 111.43 194.56 C 112.28 194.70 113.08 194.12 113.22 193.27 L 113.39 192.29 C 113.53 191.44 112.95 190.64 112.10 190.50 C 111.25 190.36 110.45 190.93 110.31 191.78 Z M 110.14 192.82 L 110.00 193.87 C 109.89 194.72 110.49 195.51 111.35 195.62 C 112.20 195.73 112.99 195.12 113.10 194.27 L 113.23 193.22 C 113.34 192.36 112.74 191.58 111.88 191.47 C 111.03 191.36 110.25 191.96 110.14 192.82 Z M 109.99 193.93 L 109.89 195.03 C 109.82 195.89 110.45 196.65 111.31 196.73 C 112.17 196.81 112.92 196.17 113.00 195.31 L 113.10 194.21 C 113.18 193.35 112.55 192.59 111.69 192.51 C 110.83 192.44 110.07 193.07 109.99 193.93 Z M 109.89 195.08 L 109.83 196.08 C 109.78 196.94 110.44 197.68 111.30 197.73 C 112.16 197.78 112.90 197.12 112.95 196.26 L 113.01 195.26 C 113.06 194.40 112.40 193.66 111.54 193.61 C 110.68 193.56 109.94 194.22 109.89 195.08 Z M 109.83 196.11 L 109.79 197.13 C 109.76 198.00 110.44 198.72 111.30 198.75 C 112.16 198.78 112.88 198.11 112.91 197.25 L 112.95 196.22 C 112.98 195.36 112.31 194.64 111.45 194.61 C 110.58 194.58 109.86 195.25 109.83 196.11 Z M 109.79 197.16 L 109.77 198.19 C 109.76 199.05 110.44 199.76 111.30 199.78 C 112.17 199.79 112.88 199.11 112.89 198.25 L 112.91 197.22 C 112.93 196.36 112.25 195.65 111.38 195.63 C 110.52 195.61 109.81 196.30 109.79 197.16 Z M 109.77 198.20 L 109.76 199.21 C 109.76 200.07 110.45 200.78 111.31 200.79 C 112.17 200.79 112.88 200.10 112.89 199.24 L 112.89 198.23 C 112.90 197.37 112.21 196.66 111.35 196.66 C 110.48 196.65 109.78 197.34 109.77 198.20 Z M 109.76 199.22 L 109.76 200.19 C 109.76 201.05 110.46 201.75 111.32 201.75 C 112.18 201.76 112.88 201.06 112.88 200.20 L 112.89 199.23 C 112.89 198.37 112.19 197.66 111.33 197.66 C 110.47 197.66 109.77 198.36 109.76 199.22 Z M 109.76 200.19 L 109.76 201.24 C 109.76 202.10 110.46 202.80 111.32 202.80 C 112.19 202.80 112.88 202.10 112.88 201.24 L 112.88 200.19 C 112.88 199.33 112.19 198.63 111.32 198.63 C 110.46 198.63 109.76 199.33 109.76 200.19 Z M 109.76 201.24 L 109.76 202.27 C 109.76 203.13 110.46 203.83 111.32 203.83 C 112.19 203.83 112.88 203.13 112.88 202.27 L 112.88 201.24 C 112.88 200.38 112.19 199.68 111.32 199.68 C 110.46 199.68 109.76 200.38 109.76 201.24 Z M 109.76 202.27 L 109.76 203.25 C 109.76 204.11 110.46 204.81 111.32 204.81 C 112.19 204.81 112.88 204.11 112.88 203.25 L 112.88 202.27 C 112.88 201.41 112.19 200.71 111.32 200.71 C 110.46 200.71 109.76 201.41 109.76 202.27 Z M 109.76 203.25 L 109.76 204.20 C 109.76 205.06 110.46 205.76 111.32 205.76 C 112.19 205.76 112.88 205.06 112.88 204.20 L 112.88 203.25 C 112.88 202.38 112.19 201.69 111.32 201.69 C 110.46 201.69 109.76 202.38 109.76 203.25 Z M 109.76 204.20 L 109.76 205.16 C 109.76 206.02 110.46 206.72 111.32 206.72 C 112.19 206.72 112.88 206.02 112.88 205.16 L 112.88 204.20 C 112.88 203.34 112.19 202.64 111.32 202.64 C 110.46 202.64 109.76 203.34 109.76 204.20 Z M 109.76 205.16 L 109.76 206.12 C 109.76 206.99 110.46 207.68 111.32 207.68 C 112.19 207.68 112.88 206.99 112.88 206.12 L 112.88 205.16 C 112.88 204.29 112.19 203.60 111.32 203.60 C 110.46 203.60 109.76 204.29 109.76 205.16 Z M 109.76 206.12 L 109.76 207.11 C 109.76 207.98 110.46 208.68 111.32 208.68 C 112.19 208.68 112.88 207.98 112.88 207.11 L 112.88 206.12 C 112.88 205.26 112.19 204.56 111.32 204.56 C 110.46 204.56 109.76 205.26 109.76 206.12 Z M 109.76 207.11 L 109.76 208.13 C 109.76 208.99 110.46 209.69 111.32 209.69 C 112.19 209.69 112.88 208.99 112.88 208.13 L 112.88 207.11 C 112.88 206.25 112.19 205.55 111.32 205.55 C 110.46 205.55 109.76 206.25 109.76 207.11 Z M 109.76 208.13 L 109.76 209.16 C 109.76 210.03 110.46 210.72 111.32 210.72 C 112.19 210.72 112.88 210.03 112.88 209.16 L 112.88 208.13 C 112.88 207.27 112.19 206.57 111.32 206.57 C 110.46 206.57 109.76 207.27 109.76 208.13 Z M 109.76 209.16 L 109.76 210.14 C 109.76 211.00 110.46 211.70 111.32 211.70 C 112.19 211.70 112.88 211.00 112.88 210.14 L 112.88 209.16 C 112.88 208.30 112.19 207.60 111.32 207.60 C 110.46 207.60 109.76 208.30 109.76 209.16 Z M 109.76 210.14 L 109.76 211.12 C 109.76 211.98 110.46 212.68 111.33 212.68 C 112.19 212.68 112.89 211.98 112.89 211.12 L 112.88 210.14 C 112.88 209.28 112.18 208.58 111.32 208.58 C 110.46 208.58 109.76 209.28 109.76 210.14 Z M 109.76 211.12 L 109.77 212.12 C 109.77 212.98 110.47 213.68 111.33 213.68 C 112.19 213.67 112.89 212.97 112.89 212.11 L 112.89 211.11 C 112.88 210.25 112.18 209.56 111.32 209.56 C 110.46 209.56 109.76 210.26 109.76 211.12 Z M 109.77 212.12 L 109.77 213.14 C 109.78 214.00 110.48 214.70 111.34 214.69 C 112.21 214.69 112.90 213.98 112.89 213.12 L 112.89 212.11 C 112.88 211.24 112.18 210.55 111.32 210.55 C 110.46 210.56 109.76 211.26 109.77 212.12 Z M 109.77 213.15 L 109.78 214.18 C 109.79 215.04 110.50 215.74 111.36 215.73 C 112.22 215.72 112.91 215.01 112.90 214.15 L 112.89 213.11 C 112.89 212.25 112.18 211.56 111.32 211.57 C 110.46 211.58 109.76 212.28 109.77 213.15 Z M 109.78 214.19 L 109.80 215.20 C 109.81 216.06 110.52 216.75 111.38 216.74 C 112.24 216.73 112.93 216.02 112.92 215.16 L 112.90 214.14 C 112.89 213.28 112.18 212.59 111.32 212.61 C 110.46 212.62 109.77 213.33 109.78 214.19 Z M 109.80 215.21 L 109.82 216.23 C 109.84 217.09 110.55 217.77 111.41 217.75 C 112.27 217.74 112.96 217.02 112.94 216.16 L 112.92 215.15 C 112.90 214.28 112.19 213.60 111.33 213.62 C 110.46 213.63 109.78 214.35 109.80 215.21 Z M 109.82 216.24 L 109.85 217.25 C 109.87 218.11 110.59 218.79 111.45 218.77 C 112.31 218.74 112.99 218.03 112.97 217.16 L 112.94 216.15 C 112.92 215.29 112.20 214.61 111.34 214.63 C 110.48 214.66 109.80 215.37 109.82 216.24 Z M 109.85 217.26 L 109.88 218.26 C 109.91 219.12 110.63 219.80 111.50 219.77 C 112.36 219.74 113.03 219.01 113.00 218.15 L 112.97 217.15 C 112.94 216.29 112.21 215.62 111.35 215.65 C 110.49 215.68 109.82 216.40 109.85 217.26 Z M 109.88 218.28 L 109.93 219.25 C 109.96 220.11 110.69 220.78 111.56 220.74 C 112.42 220.70 113.08 219.97 113.05 219.11 L 113.00 218.14 C 112.96 217.28 112.23 216.61 111.37 216.65 C 110.51 216.69 109.84 217.42 109.88 218.28 Z M 109.93 219.27 L 109.99 220.31 C 110.04 221.17 110.77 221.82 111.63 221.78 C 112.50 221.73 113.15 220.99 113.10 220.13 L 113.04 219.09 C 112.99 218.23 112.26 217.57 111.40 217.62 C 110.54 217.67 109.88 218.41 109.93 219.27 Z M 109.99 220.33 L 110.06 221.36 C 110.12 222.22 110.87 222.86 111.73 222.80 C 112.59 222.74 113.24 221.99 113.18 221.13 L 113.10 220.10 C 113.04 219.24 112.29 218.60 111.43 218.66 C 110.57 218.72 109.93 219.47 109.99 220.33 Z M 110.06 221.38 L 110.15 222.37 C 110.23 223.23 110.98 223.87 111.84 223.79 C 112.70 223.71 113.34 222.96 113.26 222.10 L 113.17 221.11 C 113.10 220.25 112.34 219.61 111.48 219.69 C 110.62 219.76 109.99 220.52 110.06 221.38 Z M 110.15 222.40 L 110.25 223.36 C 110.34 224.22 111.11 224.84 111.97 224.75 C 112.83 224.66 113.45 223.89 113.36 223.04 L 113.26 222.07 C 113.17 221.22 112.40 220.59 111.54 220.68 C 110.69 220.77 110.06 221.54 110.15 222.40 Z M 110.26 223.38 L 110.37 224.34 C 110.47 225.20 111.25 225.81 112.11 225.71 C 112.96 225.60 113.57 224.83 113.47 223.97 L 113.36 223.01 C 113.25 222.15 112.48 221.54 111.62 221.65 C 110.76 221.75 110.15 222.53 110.26 223.38 Z M 110.38 224.37 L 110.51 225.39 C 110.63 226.24 111.42 226.84 112.27 226.72 C 113.13 226.60 113.73 225.81 113.61 224.96 L 113.47 223.94 C 113.35 223.09 112.56 222.49 111.71 222.61 C 110.86 222.73 110.26 223.51 110.38 224.37 Z M 110.52 225.42 L 110.68 226.41 C 110.81 227.27 111.61 227.85 112.46 227.71 C 113.31 227.58 113.90 226.78 113.76 225.93 L 113.60 224.93 C 113.47 224.08 112.67 223.50 111.82 223.63 C 110.97 223.77 110.38 224.56 110.52 225.42 Z M 110.68 226.45 L 110.86 227.42 C 111.01 228.27 111.83 228.83 112.68 228.68 C 113.52 228.52 114.09 227.71 113.93 226.86 L 113.75 225.89 C 113.60 225.04 112.79 224.48 111.94 224.63 C 111.09 224.79 110.53 225.60 110.68 226.45 Z M 110.87 227.46 L 111.07 228.42 C 111.25 229.26 112.07 229.80 112.92 229.62 C 113.76 229.44 114.30 228.62 114.12 227.77 L 113.92 226.82 C 113.75 225.98 112.92 225.44 112.07 225.62 C 111.23 225.79 110.69 226.62 110.87 227.46 Z M 111.08 228.46 L 111.33 229.47 C 111.53 230.31 112.37 230.82 113.21 230.62 C 114.05 230.42 114.56 229.57 114.36 228.73 L 114.11 227.72 C 113.91 226.89 113.06 226.37 112.23 226.58 C 111.39 226.78 110.88 227.63 111.08 228.46 Z M 111.34 229.52 L 111.61 230.50 C 111.84 231.33 112.71 231.81 113.54 231.58 C 114.37 231.35 114.85 230.48 114.62 229.65 L 114.35 228.68 C 114.11 227.85 113.25 227.37 112.42 227.60 C 111.59 227.83 111.11 228.69 111.34 229.52 Z M 111.63 230.55 L 111.92 231.48 C 112.18 232.30 113.06 232.76 113.88 232.50 C 114.70 232.24 115.16 231.36 114.90 230.54 L 114.60 229.60 C 114.34 228.78 113.47 228.33 112.64 228.59 C 111.82 228.85 111.37 229.72 111.63 230.55 Z M 111.94 231.53 L 112.25 232.42 C 112.54 233.23 113.43 233.66 114.24 233.37 C 115.06 233.08 115.48 232.19 115.20 231.38 L 114.88 230.49 C 114.60 229.68 113.70 229.25 112.89 229.54 C 112.08 229.82 111.65 230.72 111.94 231.53 Z M 112.28 232.48 L 112.62 233.33 C 112.94 234.13 113.85 234.52 114.65 234.20 C 115.45 233.87 115.84 232.96 115.51 232.16 L 115.17 231.31 C 114.85 230.51 113.94 230.13 113.14 230.45 C 112.34 230.77 111.95 231.68 112.28 232.48 Z M 112.66 233.42 L 113.07 234.28 C 113.44 235.06 114.37 235.39 115.15 235.02 C 115.93 234.65 116.26 233.72 115.89 232.94 L 115.48 232.08 C 115.10 231.30 114.17 230.97 113.39 231.34 C 112.62 231.71 112.28 232.64 112.66 233.42 Z M 113.12 234.38 L 113.64 235.31 C 114.07 236.06 115.02 236.32 115.77 235.90 C 116.52 235.47 116.78 234.52 116.36 233.77 L 115.84 232.84 C 115.41 232.09 114.46 231.83 113.71 232.25 C 112.96 232.68 112.69 233.63 113.12 234.38 Z M 113.69 235.39 L 114.26 236.26 C 114.73 236.98 115.70 237.19 116.42 236.71 C 117.14 236.24 117.35 235.27 116.88 234.55 L 116.31 233.68 C 115.83 232.96 114.87 232.76 114.15 233.23 C 113.42 233.70 113.22 234.67 113.69 235.39 Z M 114.31 236.33 L 114.87 237.10 C 115.38 237.79 116.36 237.95 117.05 237.44 C 117.75 236.93 117.90 235.95 117.39 235.26 L 116.83 234.49 C 116.32 233.79 115.34 233.64 114.65 234.15 C 113.95 234.65 113.80 235.63 114.31 236.33 Z M 114.92 237.16 L 115.56 237.95 C 116.10 238.61 117.09 238.72 117.75 238.17 C 118.42 237.63 118.52 236.64 117.98 235.97 L 117.34 235.19 C 116.80 234.52 115.82 234.42 115.15 234.97 C 114.48 235.51 114.38 236.49 114.92 237.16 Z M 115.62 238.02 L 116.32 238.78 C 116.90 239.41 117.89 239.45 118.53 238.87 C 119.16 238.29 119.20 237.30 118.62 236.66 L 117.92 235.90 C 117.33 235.27 116.35 235.23 115.71 235.81 C 115.08 236.40 115.04 237.38 115.62 238.02 Z M 116.40 238.86 L 117.16 239.57 C 117.79 240.16 118.77 240.13 119.36 239.50 C 119.95 238.87 119.92 237.88 119.29 237.29 L 118.54 236.58 C 117.91 235.99 116.92 236.02 116.33 236.65 C 115.74 237.28 115.77 238.27 116.40 238.86 Z M 117.27 239.66 L 118.07 240.28 C 118.75 240.81 119.73 240.69 120.26 240.01 C 120.79 239.33 120.66 238.35 119.98 237.82 L 119.18 237.19 C 118.50 236.67 117.52 236.79 116.99 237.47 C 116.46 238.15 116.59 239.13 117.27 239.66 Z M 118.21 240.38 L 119.06 240.90 C 119.80 241.35 120.76 241.12 121.21 240.38 C 121.66 239.65 121.43 238.68 120.69 238.24 L 119.84 237.72 C 119.10 237.27 118.14 237.50 117.69 238.24 C 117.24 238.97 117.48 239.93 118.21 240.38 Z M 119.22 240.98 L 120.11 241.40 C 120.89 241.76 121.82 241.42 122.18 240.64 C 122.55 239.86 122.21 238.93 121.43 238.57 L 120.54 238.15 C 119.75 237.79 118.83 238.13 118.46 238.91 C 118.10 239.69 118.44 240.62 119.22 240.98 Z M 120.25 241.46 L 121.18 241.78 C 122.00 242.06 122.89 241.63 123.17 240.82 C 123.45 240.00 123.02 239.11 122.21 238.83 L 121.28 238.51 C 120.46 238.23 119.57 238.66 119.29 239.47 C 119.01 240.29 119.44 241.18 120.25 241.46 Z M 121.32 241.82 L 122.29 242.06 C 123.12 242.27 123.97 241.76 124.18 240.93 C 124.39 240.09 123.88 239.24 123.05 239.03 L 122.08 238.79 C 121.24 238.58 120.39 239.09 120.18 239.93 C 119.97 240.76 120.48 241.61 121.32 241.82 Z M 122.40 242.09 L 123.41 242.26 C 124.26 242.41 125.07 241.84 125.22 240.99 C 125.36 240.14 124.79 239.33 123.95 239.19 L 122.93 239.01 C 122.08 238.86 121.28 239.43 121.13 240.28 C 120.98 241.13 121.55 241.94 122.40 242.09 Z M 123.50 242.28 L 124.52 242.39 C 125.38 242.49 126.15 241.88 126.25 241.02 C 126.35 240.17 125.74 239.39 124.88 239.29 L 123.86 239.17 C 123.00 239.07 122.23 239.69 122.13 240.54 C 122.03 241.40 122.64 242.18 123.50 242.28 Z M 124.59 242.40 L 125.63 242.48 C 126.49 242.54 127.24 241.89 127.30 241.03 C 127.36 240.17 126.71 239.42 125.85 239.36 L 124.81 239.29 C 123.95 239.23 123.21 239.87 123.15 240.73 C 123.08 241.59 123.73 242.34 124.59 242.40 Z M 125.69 242.48 L 126.73 242.51 C 127.59 242.54 128.31 241.87 128.34 241.01 C 128.37 240.14 127.70 239.42 126.83 239.39 L 125.80 239.36 C 124.94 239.33 124.21 240.00 124.18 240.86 C 124.15 241.73 124.83 242.45 125.69 242.48 Z M 126.78 242.51 L 127.78 242.52 C 128.65 242.52 129.35 241.82 129.35 240.96 C 129.35 240.10 128.65 239.40 127.79 239.39 L 126.78 239.39 C 125.92 239.39 125.22 240.09 125.22 240.95 C 125.22 241.81 125.91 242.51 126.78 242.51 Z M 127.83 242.52 L 128.78 242.49 C 129.64 242.47 130.32 241.75 130.30 240.89 C 130.28 240.03 129.56 239.35 128.70 239.37 L 127.75 239.39 C 126.88 239.42 126.20 240.13 126.23 241.00 C 126.25 241.86 126.97 242.54 127.83 242.52 Z M 128.83 242.49 L 129.83 242.43 C 130.69 242.39 131.35 241.65 131.30 240.79 C 131.25 239.93 130.52 239.27 129.66 239.32 L 128.65 239.37 C 127.79 239.42 127.13 240.16 127.18 241.02 C 127.23 241.88 127.96 242.54 128.83 242.49 Z M 129.89 242.43 L 130.96 242.33 C 131.82 242.25 132.45 241.48 132.37 240.62 C 132.29 239.77 131.52 239.14 130.67 239.22 L 129.59 239.32 C 128.73 239.40 128.11 240.17 128.19 241.02 C 128.27 241.88 129.03 242.51 129.89 242.43 Z M 131.05 242.32 L 132.01 242.17 C 132.86 242.04 133.45 241.24 133.32 240.39 C 133.19 239.54 132.39 238.95 131.54 239.08 L 130.58 239.23 C 129.73 239.36 129.14 240.16 129.27 241.01 C 129.40 241.86 130.20 242.45 131.05 242.32 Z M 132.11 242.15 L 133.01 241.95 C 133.85 241.77 134.38 240.93 134.20 240.09 C 134.01 239.25 133.18 238.72 132.34 238.90 L 131.44 239.10 C 130.60 239.29 130.06 240.12 130.25 240.96 C 130.44 241.80 131.27 242.34 132.11 242.15 Z M 133.11 241.93 L 134.02 241.66 C 134.85 241.43 135.32 240.56 135.08 239.73 C 134.84 238.90 133.98 238.43 133.15 238.66 L 132.24 238.93 C 131.41 239.17 130.94 240.03 131.17 240.86 C 131.41 241.69 132.28 242.17 133.11 241.93 Z M 134.10 241.64 L 135.04 241.31 C 135.85 241.02 136.28 240.13 136.00 239.32 C 135.71 238.50 134.82 238.08 134.01 238.36 L 133.07 238.69 C 132.25 238.98 131.83 239.87 132.11 240.68 C 132.40 241.50 133.29 241.92 134.10 241.64 Z M 135.11 241.28 L 136.05 240.90 C 136.85 240.57 137.23 239.66 136.90 238.86 C 136.58 238.07 135.67 237.68 134.87 238.01 L 133.93 238.39 C 133.13 238.72 132.75 239.63 133.08 240.42 C 133.40 241.22 134.31 241.61 135.11 241.28 Z M 136.11 240.87 L 137.03 240.45 C 137.81 240.09 138.15 239.16 137.79 238.38 C 137.43 237.59 136.50 237.25 135.72 237.61 L 134.80 238.04 C 134.02 238.40 133.68 239.33 134.04 240.11 C 134.40 240.89 135.33 241.23 136.11 240.87 Z M 137.09 240.42 L 137.99 239.95 C 138.76 239.56 139.06 238.62 138.66 237.85 C 138.27 237.08 137.33 236.78 136.56 237.18 L 135.66 237.64 C 134.89 238.04 134.59 238.98 134.99 239.75 C 135.38 240.51 136.32 240.81 137.09 240.42 Z M 138.05 239.92 L 138.92 239.42 C 139.67 239.00 139.93 238.04 139.51 237.29 C 139.08 236.55 138.13 236.28 137.38 236.71 L 136.50 237.21 C 135.75 237.64 135.49 238.59 135.92 239.34 C 136.35 240.09 137.30 240.35 138.05 239.92 Z M 138.97 239.39 L 139.82 238.87 C 140.55 238.42 140.77 237.45 140.32 236.72 C 139.86 235.99 138.90 235.76 138.17 236.22 L 137.33 236.74 C 136.59 237.20 136.37 238.16 136.82 238.89 C 137.28 239.62 138.24 239.85 138.97 239.39 Z M 139.86 238.84 L 140.68 238.29 C 141.40 237.82 141.59 236.85 141.11 236.13 C 140.63 235.41 139.66 235.22 138.95 235.70 L 138.12 236.25 C 137.41 236.73 137.21 237.69 137.69 238.41 C 138.17 239.13 139.14 239.32 139.86 238.84 Z M 140.72 238.27 L 141.53 237.69 C 142.24 237.19 142.40 236.21 141.90 235.51 C 141.40 234.81 140.42 234.64 139.72 235.14 L 138.91 235.73 C 138.20 236.23 138.04 237.20 138.54 237.90 C 139.04 238.60 140.02 238.77 140.72 238.27 Z M 141.58 237.66 L 142.37 237.05 C 143.05 236.53 143.18 235.55 142.66 234.86 C 142.14 234.18 141.16 234.04 140.47 234.57 L 139.68 235.17 C 138.99 235.70 138.86 236.68 139.39 237.36 C 139.91 238.05 140.89 238.18 141.58 237.66 Z M 142.41 237.01 L 143.18 236.38 C 143.85 235.83 143.95 234.85 143.40 234.18 C 142.85 233.52 141.87 233.42 141.20 233.97 L 140.43 234.60 C 139.76 235.15 139.67 236.13 140.21 236.80 C 140.76 237.47 141.75 237.56 142.41 237.01 Z M 143.23 236.34 L 143.98 235.68 C 144.62 235.11 144.68 234.12 144.11 233.48 C 143.54 232.83 142.55 232.77 141.90 233.34 L 141.16 234.01 C 140.51 234.58 140.45 235.56 141.02 236.21 C 141.60 236.85 142.58 236.91 143.23 236.34 Z M 144.02 235.64 L 144.74 234.95 C 145.37 234.35 145.39 233.36 144.79 232.74 C 144.20 232.12 143.21 232.10 142.58 232.69 L 141.86 233.38 C 141.24 233.98 141.22 234.97 141.81 235.59 C 142.41 236.21 143.40 236.24 144.02 235.64 Z M 144.78 234.91 L 145.48 234.19 C 146.08 233.57 146.07 232.58 145.45 231.98 C 144.83 231.38 143.84 231.40 143.24 232.01 L 142.54 232.73 C 141.94 233.35 141.96 234.34 142.58 234.94 C 143.20 235.54 144.18 235.53 144.78 234.91 Z M 145.52 234.15 L 146.19 233.40 C 146.77 232.76 146.71 231.77 146.07 231.20 C 145.43 230.62 144.45 230.67 143.87 231.31 L 143.20 232.06 C 142.62 232.70 142.68 233.68 143.32 234.26 C 143.96 234.84 144.94 234.79 145.52 234.15 Z M 146.23 233.36 L 146.87 232.59 C 147.42 231.93 147.33 230.94 146.67 230.39 C 146.01 229.84 145.02 229.93 144.47 230.59 L 143.83 231.36 C 143.28 232.02 143.37 233.00 144.03 233.56 C 144.69 234.11 145.68 234.02 146.23 233.36 Z M 146.90 232.55 L 147.51 231.76 C 148.04 231.08 147.92 230.09 147.24 229.57 C 146.56 229.04 145.57 229.16 145.05 229.84 L 144.44 230.63 C 143.91 231.32 144.03 232.30 144.71 232.82 C 145.39 233.35 146.38 233.23 146.90 232.55 Z M 147.55 231.72 L 148.13 230.90 C 148.64 230.21 148.48 229.23 147.78 228.72 C 147.08 228.22 146.11 228.38 145.60 229.08 L 145.02 229.89 C 144.51 230.59 144.67 231.56 145.37 232.07 C 146.07 232.57 147.04 232.41 147.55 231.72 Z M 148.16 230.87 L 148.71 230.05 C 149.20 229.34 149.01 228.37 148.29 227.88 C 147.58 227.40 146.61 227.59 146.13 228.30 L 145.57 229.11 C 145.09 229.83 145.28 230.80 145.99 231.28 C 146.70 231.77 147.68 231.58 148.16 230.87 Z M 148.73 230.02 L 149.26 229.19 C 149.73 228.47 149.52 227.50 148.80 227.04 C 148.07 226.57 147.10 226.78 146.64 227.50 L 146.11 228.33 C 145.64 229.06 145.85 230.02 146.57 230.49 C 147.30 230.95 148.27 230.74 148.73 230.02 Z M 149.28 229.17 L 149.81 228.32 C 150.26 227.59 150.04 226.63 149.31 226.17 C 148.57 225.72 147.61 225.94 147.15 226.67 L 146.63 227.52 C 146.17 228.26 146.39 229.22 147.13 229.67 C 147.86 230.13 148.82 229.91 149.28 229.17 Z M 149.81 228.31 L 150.35 227.44 C 150.80 226.70 150.57 225.74 149.83 225.29 C 149.10 224.84 148.14 225.07 147.69 225.80 L 147.15 226.68 C 146.70 227.42 146.93 228.38 147.66 228.83 C 148.40 229.28 149.36 229.05 149.81 228.31 Z M 150.35 227.43 L 150.87 226.58 C 151.32 225.84 151.09 224.88 150.35 224.43 C 149.62 223.98 148.66 224.22 148.21 224.95 L 147.69 225.81 C 147.24 226.54 147.47 227.50 148.20 227.95 C 148.94 228.40 149.90 228.17 150.35 227.43 Z M 150.88 226.57 L 151.40 225.70 C 151.84 224.96 151.60 224.00 150.86 223.56 C 150.12 223.12 149.16 223.36 148.72 224.10 L 148.20 224.96 C 147.76 225.70 148.00 226.66 148.74 227.11 C 149.48 227.55 150.44 227.31 150.88 226.57 Z M 151.41 225.68 L 151.91 224.81 C 152.34 224.06 152.09 223.10 151.34 222.67 C 150.59 222.24 149.64 222.50 149.21 223.25 L 148.71 224.12 C 148.28 224.87 148.53 225.82 149.28 226.25 C 150.03 226.68 150.98 226.43 151.41 225.68 Z M 151.94 224.77 L 152.41 223.90 C 152.81 223.14 152.53 222.19 151.77 221.78 C 151.01 221.37 150.06 221.66 149.66 222.42 L 149.19 223.29 C 148.78 224.05 149.06 224.99 149.82 225.40 C 150.58 225.81 151.53 225.53 151.94 224.77 Z M 152.43 223.84 L 152.88 222.92 C 153.26 222.14 152.94 221.21 152.16 220.83 C 151.39 220.46 150.45 220.78 150.07 221.55 L 149.63 222.47 C 149.25 223.25 149.57 224.18 150.35 224.56 C 151.12 224.94 152.06 224.61 152.43 223.84 Z M 152.91 222.86 L 153.31 221.95 C 153.65 221.16 153.29 220.24 152.50 219.89 C 151.71 219.55 150.79 219.91 150.45 220.70 L 150.05 221.61 C 149.70 222.40 150.06 223.32 150.85 223.67 C 151.64 224.01 152.56 223.65 152.91 222.86 Z M 153.33 221.90 L 153.69 220.98 C 154.00 220.18 153.61 219.27 152.81 218.96 C 152.01 218.64 151.10 219.04 150.78 219.84 L 150.42 220.75 C 150.11 221.56 150.50 222.46 151.30 222.78 C 152.11 223.09 153.01 222.70 153.33 221.90 Z M 153.71 220.94 L 154.04 220.01 C 154.33 219.20 153.91 218.31 153.10 218.02 C 152.28 217.72 151.39 218.15 151.10 218.96 L 150.77 219.88 C 150.48 220.69 150.90 221.59 151.71 221.88 C 152.52 222.17 153.41 221.75 153.71 220.94 Z M 154.05 219.98 L 154.36 219.04 C 154.64 218.22 154.20 217.34 153.38 217.07 C 152.56 216.79 151.68 217.23 151.40 218.05 L 151.09 218.99 C 150.81 219.81 151.25 220.69 152.07 220.96 C 152.89 221.24 153.77 220.80 154.05 219.98 Z M 154.37 219.02 L 154.68 218.07 C 154.94 217.25 154.49 216.37 153.67 216.10 C 152.85 215.84 151.97 216.29 151.70 217.11 L 151.40 218.07 C 151.13 218.89 151.58 219.77 152.40 220.03 C 153.23 220.30 154.10 219.84 154.37 219.02 Z M 154.68 218.06 L 154.99 217.10 C 155.25 216.28 154.79 215.40 153.97 215.14 C 153.15 214.87 152.27 215.33 152.01 216.15 L 151.70 217.12 C 151.44 217.94 151.89 218.82 152.72 219.08 C 153.54 219.34 154.42 218.89 154.68 218.06 Z M 154.98 217.10 L 155.29 216.16 C 155.55 215.34 155.10 214.46 154.28 214.19 C 153.46 213.93 152.58 214.38 152.32 215.20 L 152.01 216.14 C 151.75 216.96 152.20 217.84 153.02 218.11 C 153.84 218.37 154.72 217.92 154.98 217.10 Z M 155.29 216.16 L 155.60 215.21 C 155.86 214.39 155.42 213.51 154.60 213.24 C 153.78 212.97 152.90 213.42 152.63 214.24 L 152.32 215.19 C 152.05 216.01 152.50 216.89 153.32 217.16 C 154.14 217.43 155.02 216.98 155.29 216.16 Z M 155.60 215.21 L 155.91 214.25 C 156.17 213.43 155.72 212.55 154.90 212.29 C 154.08 212.02 153.20 212.47 152.94 213.29 L 152.63 214.25 C 152.36 215.07 152.81 215.95 153.63 216.21 C 154.45 216.48 155.33 216.03 155.60 215.21 Z M 155.91 214.24 L 156.21 213.29 C 156.48 212.46 156.02 211.59 155.20 211.33 C 154.38 211.06 153.50 211.52 153.24 212.34 L 152.93 213.30 C 152.67 214.12 153.13 215.00 153.95 215.26 C 154.77 215.52 155.65 215.07 155.91 214.24 Z M 156.22 213.27 L 156.51 212.31 C 156.77 211.49 156.30 210.62 155.48 210.36 C 154.66 210.11 153.78 210.57 153.53 211.40 L 153.23 212.35 C 152.98 213.18 153.44 214.05 154.27 214.31 C 155.09 214.56 155.96 214.10 156.22 213.27 Z M 156.52 212.30 L 156.80 211.34 C 157.05 210.52 156.58 209.65 155.75 209.40 C 154.93 209.15 154.06 209.62 153.81 210.45 L 153.53 211.41 C 153.28 212.24 153.75 213.10 154.58 213.35 C 155.40 213.60 156.27 213.13 156.52 212.30 Z M 156.81 211.33 L 157.08 210.37 C 157.32 209.54 156.84 208.68 156.02 208.44 C 155.19 208.20 154.32 208.68 154.08 209.51 L 153.81 210.46 C 153.57 211.29 154.05 212.16 154.88 212.40 C 155.70 212.63 156.57 212.16 156.81 211.33 Z M 157.09 210.36 L 157.35 209.40 C 157.58 208.57 157.10 207.71 156.27 207.48 C 155.44 207.25 154.57 207.74 154.34 208.57 L 154.08 209.52 C 153.85 210.35 154.33 211.21 155.16 211.44 C 156.00 211.67 156.86 211.19 157.09 210.36 Z M 157.35 209.39 L 157.61 208.45 C 157.84 207.62 157.34 206.76 156.51 206.53 C 155.68 206.31 154.82 206.80 154.60 207.63 L 154.34 208.58 C 154.12 209.41 154.61 210.27 155.44 210.49 C 156.27 210.72 157.13 210.23 157.35 209.39 Z M 157.61 208.44 L 157.87 207.48 C 158.09 206.65 157.60 205.79 156.77 205.57 C 155.93 205.35 155.08 205.84 154.85 206.67 L 154.60 207.63 C 154.37 208.47 154.87 209.32 155.70 209.55 C 156.53 209.77 157.39 209.28 157.61 208.44 Z M 157.87 207.49 L 158.14 206.50 C 158.36 205.67 157.87 204.81 157.04 204.59 C 156.20 204.36 155.35 204.85 155.12 205.69 L 154.86 206.67 C 154.63 207.50 155.12 208.36 155.95 208.59 C 156.79 208.81 157.64 208.32 157.87 207.49 Z M 158.13 206.51 L 158.40 205.53 C 158.63 204.70 158.15 203.84 157.32 203.61 C 156.49 203.38 155.63 203.87 155.40 204.70 L 155.12 205.68 C 154.89 206.51 155.38 207.37 156.21 207.60 C 157.04 207.83 157.90 207.34 158.13 206.51 Z M 158.40 205.53 L 158.68 204.55 C 158.91 203.72 158.43 202.86 157.60 202.63 C 156.77 202.40 155.90 202.88 155.67 203.71 L 155.40 204.69 C 155.16 205.52 155.65 206.38 156.48 206.62 C 157.31 206.85 158.17 206.36 158.40 205.53 Z M 158.68 204.55 L 158.95 203.57 C 159.18 202.74 158.69 201.88 157.86 201.65 C 157.03 201.42 156.17 201.91 155.94 202.74 L 155.67 203.71 C 155.44 204.55 155.93 205.41 156.76 205.64 C 157.59 205.87 158.45 205.38 158.68 204.55 Z M 158.95 203.56 L 159.21 202.61 C 159.43 201.78 158.94 200.92 158.10 200.70 C 157.27 200.47 156.42 200.97 156.19 201.80 L 155.94 202.75 C 155.71 203.58 156.21 204.44 157.04 204.66 C 157.87 204.89 158.73 204.39 158.95 203.56 Z M 159.21 202.59 L 159.46 201.59 C 159.67 200.76 159.17 199.91 158.33 199.70 C 157.49 199.49 156.64 200.00 156.43 200.83 L 156.19 201.83 C 155.98 202.66 156.48 203.51 157.32 203.72 C 158.16 203.93 159.00 203.42 159.21 202.59 Z M 159.47 201.57 L 159.70 200.58 C 159.89 199.74 159.37 198.90 158.53 198.71 C 157.69 198.51 156.85 199.03 156.66 199.87 L 156.43 200.86 C 156.23 201.70 156.76 202.54 157.60 202.73 C 158.44 202.93 159.27 202.41 159.47 201.57 Z M 159.70 200.57 L 159.91 199.61 C 160.10 198.77 159.57 197.94 158.73 197.75 C 157.89 197.56 157.05 198.09 156.87 198.94 L 156.65 199.89 C 156.47 200.73 157.00 201.56 157.84 201.75 C 158.68 201.94 159.52 201.41 159.70 200.57 Z M 159.91 199.61 L 160.12 198.67 C 160.31 197.83 159.78 196.99 158.94 196.81 C 158.10 196.62 157.26 197.15 157.08 197.99 L 156.87 198.94 C 156.68 199.78 157.21 200.61 158.05 200.80 C 158.89 200.99 159.73 200.46 159.91 199.61 Z M 160.12 198.68 L 160.35 197.70 C 160.54 196.86 160.01 196.02 159.17 195.83 C 158.33 195.64 157.49 196.17 157.30 197.01 L 157.08 197.98 C 156.89 198.82 157.41 199.66 158.25 199.85 C 159.09 200.04 159.93 199.52 160.12 198.68 Z M 160.35 197.70 L 160.57 196.72 C 160.76 195.88 160.23 195.04 159.39 194.85 C 158.55 194.66 157.71 195.19 157.52 196.03 L 157.30 197.01 C 157.11 197.85 157.64 198.69 158.48 198.88 C 159.32 199.07 160.16 198.54 160.35 197.70 Z M 160.57 196.70 L 160.78 195.73 C 160.96 194.89 160.43 194.05 159.59 193.87 C 158.74 193.69 157.91 194.23 157.73 195.07 L 157.52 196.04 C 157.34 196.89 157.87 197.72 158.72 197.90 C 159.56 198.08 160.39 197.55 160.57 196.70 Z M 160.79 195.70 L 160.98 194.71 C 161.15 193.86 160.60 193.04 159.75 192.88 C 158.91 192.71 158.08 193.26 157.92 194.11 L 157.72 195.10 C 157.56 195.94 158.11 196.76 158.95 196.93 C 159.80 197.10 160.62 196.55 160.79 195.70 Z M 160.99 194.68 L 161.16 193.69 C 161.31 192.84 160.74 192.04 159.90 191.89 C 159.05 191.74 158.24 192.30 158.09 193.15 L 157.91 194.14 C 157.76 194.99 158.33 195.80 159.18 195.95 C 160.03 196.10 160.84 195.53 160.99 194.68 Z M 161.17 193.67 L 161.32 192.69 C 161.46 191.84 160.88 191.04 160.03 190.90 C 159.17 190.77 158.37 191.35 158.24 192.20 L 158.08 193.18 C 157.95 194.03 158.53 194.83 159.38 194.96 C 160.23 195.10 161.03 194.52 161.17 193.67 Z M 161.33 192.67 L 161.47 191.68 C 161.59 190.83 161.00 190.03 160.15 189.91 C 159.29 189.79 158.50 190.38 158.38 191.23 L 158.23 192.22 C 158.11 193.07 158.70 193.86 159.56 193.99 C 160.41 194.11 161.20 193.52 161.33 192.67 Z M 161.47 191.66 L 161.60 190.67 C 161.72 189.82 161.12 189.03 160.26 188.92 C 159.41 188.80 158.62 189.40 158.51 190.26 L 158.38 191.25 C 158.26 192.10 158.86 192.89 159.72 193.00 C 160.57 193.12 161.36 192.52 161.47 191.66 Z M 161.60 190.66 L 161.73 189.67 C 161.84 188.82 161.24 188.03 160.38 187.93 C 159.52 187.82 158.74 188.42 158.63 189.28 L 158.51 190.27 C 158.40 191.12 159.00 191.90 159.86 192.01 C 160.71 192.12 161.50 191.52 161.60 190.66 Z M 161.73 189.67 L 161.85 188.69 C 161.96 187.83 161.35 187.05 160.50 186.95 C 159.64 186.84 158.86 187.44 158.76 188.30 L 158.63 189.28 C 158.53 190.14 159.13 190.92 159.99 191.02 C 160.84 191.13 161.62 190.52 161.73 189.67 Z M 161.85 188.69 L 161.97 187.72 C 162.08 186.86 161.47 186.08 160.62 185.98 C 159.76 185.87 158.98 186.48 158.88 187.33 L 158.76 188.30 C 158.65 189.16 159.26 189.94 160.11 190.04 C 160.97 190.15 161.75 189.54 161.85 188.69 Z M 161.97 187.71 L 162.09 186.72 C 162.20 185.87 161.59 185.09 160.73 184.98 C 159.88 184.88 159.10 185.49 158.99 186.35 L 158.87 187.34 C 158.77 188.20 159.38 188.97 160.24 189.08 C 161.09 189.18 161.87 188.57 161.97 187.71 Z M 162.10 186.71 L 162.21 185.68 C 162.31 184.83 161.70 184.05 160.84 183.95 C 159.99 183.85 159.21 184.47 159.11 185.33 L 158.99 186.36 C 158.89 187.21 159.51 187.99 160.37 188.09 C 161.22 188.18 162.00 187.57 162.10 186.71 Z M 162.22 185.67 L 162.32 184.69 C 162.42 183.83 161.80 183.06 160.94 182.97 C 160.08 182.87 159.31 183.49 159.22 184.35 L 159.11 185.34 C 159.02 186.19 159.64 186.96 160.49 187.06 C 161.35 187.15 162.12 186.53 162.22 185.67 Z M 162.33 184.68 L 162.43 183.67 C 162.51 182.81 161.89 182.04 161.03 181.96 C 160.17 181.87 159.41 182.49 159.32 183.35 L 159.22 184.36 C 159.13 185.22 159.76 185.98 160.61 186.07 C 161.47 186.16 162.24 185.53 162.33 184.68 Z M 162.43 183.65 L 162.52 182.65 C 162.60 181.79 161.97 181.03 161.11 180.95 C 160.25 180.87 159.49 181.51 159.41 182.37 L 159.32 183.37 C 159.24 184.23 159.87 184.99 160.73 185.06 C 161.59 185.14 162.35 184.51 162.43 183.65 Z M 162.52 182.63 L 162.60 181.62 C 162.66 180.76 162.02 180.01 161.16 179.94 C 160.30 179.88 159.55 180.52 159.49 181.38 L 159.41 182.39 C 159.34 183.25 159.99 184.00 160.85 184.06 C 161.71 184.13 162.46 183.49 162.52 182.63 Z M 162.60 181.60 L 162.66 180.58 C 162.71 179.72 162.06 178.98 161.20 178.93 C 160.34 178.88 159.60 179.53 159.55 180.39 L 159.48 181.41 C 159.43 182.27 160.09 183.01 160.95 183.06 C 161.81 183.11 162.55 182.46 162.60 181.60 Z M 162.66 180.56 L 162.71 179.58 C 162.75 178.72 162.09 177.99 161.23 177.94 C 160.36 177.90 159.63 178.57 159.59 179.43 L 159.54 180.41 C 159.50 181.27 160.17 182.01 161.03 182.05 C 161.89 182.09 162.62 181.42 162.66 180.56 Z M 162.71 179.57 L 162.75 178.59 C 162.79 177.73 162.12 177.00 161.26 176.97 C 160.40 176.93 159.67 177.60 159.63 178.46 L 159.59 179.44 C 159.56 180.30 160.22 181.03 161.09 181.06 C 161.95 181.10 162.67 180.43 162.71 179.57 Z M 162.75 178.59 L 162.79 177.61 C 162.83 176.75 162.16 176.02 161.30 175.99 C 160.44 175.95 159.71 176.62 159.67 177.48 L 159.63 178.46 C 159.60 179.32 160.27 180.05 161.13 180.09 C 161.99 180.12 162.72 179.45 162.75 178.59 Z M 162.79 177.62 L 162.84 176.62 C 162.87 175.76 162.21 175.03 161.35 174.99 C 160.48 174.95 159.76 175.62 159.72 176.48 L 159.67 177.48 C 159.63 178.34 160.30 179.07 161.16 179.11 C 162.02 179.15 162.75 178.48 162.79 177.62 Z M 162.84 176.63 L 162.89 175.62 C 162.93 174.75 162.27 174.02 161.41 173.98 C 160.55 173.93 159.81 174.60 159.77 175.46 L 159.72 176.47 C 159.67 177.33 160.34 178.07 161.20 178.11 C 162.06 178.15 162.79 177.49 162.84 176.63 Z M 162.89 175.63 L 162.95 174.64 C 163.00 173.78 162.34 173.04 161.48 172.99 C 160.62 172.93 159.88 173.59 159.83 174.45 L 159.77 175.44 C 159.72 176.30 160.37 177.04 161.24 177.09 C 162.10 177.15 162.84 176.49 162.89 175.63 Z M 162.95 174.65 L 163.01 173.65 C 163.07 172.79 162.42 172.05 161.56 171.99 C 160.70 171.93 159.95 172.58 159.90 173.45 L 159.83 174.44 C 159.77 175.30 160.42 176.04 161.28 176.10 C 162.14 176.16 162.89 175.51 162.95 174.65 Z M 163.01 173.66 L 163.08 172.66 C 163.15 171.80 162.50 171.05 161.64 170.99 C 160.78 170.93 160.03 171.57 159.97 172.43 L 159.90 173.44 C 159.84 174.30 160.48 175.05 161.34 175.11 C 162.20 175.17 162.95 174.52 163.01 173.66 Z M 163.08 172.66 L 163.16 171.65 C 163.22 170.79 162.58 170.04 161.72 169.98 C 160.86 169.92 160.11 170.56 160.04 171.42 L 159.97 172.43 C 159.91 173.29 160.55 174.04 161.41 174.10 C 162.27 174.17 163.02 173.52 163.08 172.66 Z M 163.16 171.65 L 163.23 170.66 C 163.30 169.80 162.65 169.05 161.79 168.98 C 160.93 168.92 160.18 169.57 160.12 170.43 L 160.04 171.42 C 159.98 172.28 160.63 173.03 161.49 173.09 C 162.35 173.16 163.09 172.51 163.16 171.65 Z M 163.23 170.66 L 163.31 169.66 C 163.37 168.80 162.72 168.05 161.86 167.99 C 161.00 167.92 160.26 168.57 160.19 169.43 L 160.12 170.43 C 160.05 171.29 160.70 172.03 161.56 172.10 C 162.42 172.16 163.17 171.52 163.23 170.66 Z M 163.31 169.66 L 163.38 168.66 C 163.44 167.80 162.80 167.05 161.94 166.99 C 161.08 166.93 160.33 167.57 160.27 168.43 L 160.19 169.43 C 160.13 170.29 160.77 171.04 161.63 171.10 C 162.49 171.16 163.24 170.52 163.31 169.66 Z M 163.38 168.66 L 163.45 167.67 C 163.52 166.81 162.87 166.06 162.01 166.00 C 161.15 165.94 160.40 166.58 160.34 167.44 L 160.27 168.43 C 160.20 169.29 160.85 170.04 161.71 170.10 C 162.57 170.17 163.32 169.52 163.38 168.66 Z M 163.45 167.67 L 163.53 166.69 C 163.59 165.83 162.95 165.08 162.09 165.01 C 161.23 164.95 160.48 165.59 160.41 166.45 L 160.34 167.44 C 160.27 168.30 160.92 169.05 161.78 169.11 C 162.64 169.18 163.39 168.53 163.45 167.67 Z M 163.53 166.69 L 163.61 165.69 C 163.67 164.83 163.03 164.08 162.17 164.01 C 161.31 163.95 160.56 164.59 160.49 165.45 L 160.41 166.44 C 160.35 167.30 160.99 168.06 161.85 168.12 C 162.71 168.19 163.46 167.55 163.53 166.69 Z M 163.61 165.70 L 163.69 164.69 C 163.77 163.83 163.13 163.08 162.27 163.00 C 161.41 162.93 160.65 163.57 160.58 164.43 L 160.49 165.44 C 160.42 166.30 161.06 167.05 161.92 167.13 C 162.78 167.20 163.53 166.56 163.61 165.70 Z M 163.69 164.70 L 163.78 163.78 C 163.86 162.92 163.22 162.16 162.37 162.08 C 161.51 162.00 160.75 162.63 160.67 163.49 L 160.58 164.41 C 160.50 165.27 161.13 166.03 161.99 166.11 C 162.85 166.19 163.61 165.56 163.69 164.70 Z M 163.78 163.79 L 163.87 162.83 C 163.96 161.97 163.33 161.21 162.47 161.12 C 161.61 161.04 160.85 161.66 160.76 162.52 L 160.67 163.48 C 160.58 164.34 161.21 165.10 162.07 165.19 C 162.93 165.27 163.69 164.65 163.78 163.79 Z M 163.87 162.84 L 163.98 161.83 C 164.07 160.98 163.45 160.21 162.59 160.12 C 161.73 160.02 160.96 160.65 160.87 161.50 L 160.77 162.51 C 160.67 163.37 161.29 164.14 162.15 164.23 C 163.01 164.32 163.78 163.70 163.87 162.84 Z M 163.98 161.84 L 164.10 160.77 C 164.19 159.91 163.58 159.14 162.72 159.04 C 161.86 158.94 161.09 159.56 161.00 160.42 L 160.87 161.49 C 160.78 162.35 161.39 163.12 162.25 163.22 C 163.11 163.32 163.88 162.70 163.98 161.84 Z M 164.10 160.77 L 164.21 159.85 C 164.31 158.99 163.69 158.21 162.84 158.11 C 161.98 158.01 161.21 158.63 161.11 159.48 L 161.00 160.41 C 160.90 161.27 161.51 162.04 162.36 162.14 C 163.22 162.24 164.00 161.63 164.10 160.77 Z M 164.21 159.85 L 164.32 158.90 C 164.43 158.05 163.82 157.27 162.96 157.16 C 162.11 157.06 161.33 157.66 161.22 158.52 L 161.11 159.47 C 161.00 160.33 161.61 161.11 162.46 161.21 C 163.32 161.32 164.10 160.71 164.21 159.85 Z M 164.32 158.91 L 164.45 157.92 C 164.56 157.06 163.96 156.28 163.10 156.17 C 162.25 156.06 161.47 156.66 161.35 157.52 L 161.23 158.51 C 161.11 159.36 161.72 160.15 162.57 160.26 C 163.43 160.37 164.21 159.77 164.32 158.91 Z M 164.45 157.93 L 164.59 156.91 C 164.71 156.05 164.11 155.26 163.26 155.15 C 162.40 155.03 161.62 155.62 161.50 156.48 L 161.36 157.50 C 161.24 158.36 161.83 159.15 162.69 159.26 C 163.54 159.38 164.33 158.79 164.45 157.93 Z M 164.59 156.92 L 164.74 155.87 C 164.87 155.02 164.28 154.22 163.43 154.10 C 162.58 153.97 161.78 154.56 161.66 155.41 L 161.50 156.46 C 161.37 157.32 161.96 158.11 162.82 158.24 C 163.67 158.36 164.46 157.77 164.59 156.92 Z M 164.74 155.89 L 164.91 154.84 C 165.04 153.99 164.46 153.19 163.61 153.05 C 162.76 152.92 161.96 153.50 161.82 154.35 L 161.66 155.40 C 161.52 156.25 162.10 157.05 162.95 157.18 C 163.81 157.32 164.61 156.74 164.74 155.89 Z M 164.91 154.86 L 165.08 153.82 C 165.23 152.97 164.66 152.16 163.81 152.02 C 162.96 151.87 162.15 152.45 162.00 153.30 L 161.83 154.33 C 161.68 155.18 162.25 155.99 163.10 156.14 C 163.95 156.28 164.76 155.71 164.91 154.86 Z M 165.08 153.84 L 165.26 152.82 C 165.42 151.97 164.86 151.16 164.01 151.00 C 163.16 150.85 162.35 151.41 162.19 152.26 L 162.01 153.28 C 161.85 154.13 162.42 154.94 163.26 155.09 C 164.11 155.25 164.93 154.68 165.08 153.84 Z M 165.26 152.83 L 165.45 151.85 C 165.61 151.01 165.06 150.19 164.21 150.03 C 163.37 149.86 162.55 150.42 162.38 151.26 L 162.20 152.24 C 162.03 153.09 162.59 153.91 163.43 154.07 C 164.28 154.24 165.10 153.68 165.26 152.83 Z M 165.45 151.87 L 165.64 150.95 C 165.81 150.11 165.27 149.28 164.42 149.11 C 163.58 148.93 162.75 149.48 162.58 150.32 L 162.39 151.24 C 162.21 152.09 162.76 152.91 163.60 153.09 C 164.45 153.26 165.27 152.72 165.45 151.87 Z M 165.63 150.98 L 165.89 149.82 C 166.08 148.98 165.56 148.14 164.72 147.95 C 163.87 147.76 163.04 148.29 162.85 149.13 L 162.58 150.29 C 162.39 151.13 162.92 151.97 163.76 152.16 C 164.60 152.35 165.44 151.82 165.63 150.98 Z M 165.88 149.89 L 166.21 148.67 C 166.44 147.84 165.95 146.98 165.12 146.75 C 164.29 146.52 163.43 147.01 163.20 147.84 L 162.87 149.06 C 162.64 149.89 163.12 150.75 163.96 150.98 C 164.79 151.21 165.65 150.72 165.88 149.89 Z M 166.11 148.95 L 166.38 148.40 C 166.76 147.63 166.44 146.69 165.67 146.31 C 164.89 145.93 163.96 146.25 163.58 147.02 L 163.31 147.57 C 162.92 148.34 163.24 149.28 164.02 149.66 C 164.79 150.04 165.73 149.72 166.11 148.95 Z M 163.62 148.48 L 163.79 148.78 C 164.21 149.53 165.17 149.80 165.92 149.37 C 166.67 148.94 166.93 147.99 166.50 147.24 L 166.33 146.94 C 165.91 146.19 164.96 145.93 164.21 146.35 C 163.46 146.78 163.19 147.73 163.62 148.48 Z M 163.59 148.15 L 163.68 149.13 C 163.76 149.99 164.52 150.62 165.38 150.55 C 166.24 150.47 166.87 149.71 166.79 148.85 L 166.70 147.87 C 166.62 147.01 165.86 146.38 165.01 146.46 C 164.15 146.53 163.51 147.29 163.59 148.15 Z M 163.68 149.04 L 163.71 150.39 C 163.74 151.25 164.46 151.93 165.32 151.91 C 166.18 151.88 166.86 151.16 166.84 150.30 L 166.80 148.95 C 166.77 148.08 166.05 147.41 165.19 147.43 C 164.33 147.46 163.65 148.18 163.68 149.04 Z M 163.71 150.37 L 163.73 151.42 C 163.74 152.28 164.45 152.97 165.31 152.96 C 166.17 152.95 166.86 152.24 166.85 151.38 L 166.84 150.33 C 166.83 149.46 166.12 148.77 165.25 148.79 C 164.39 148.80 163.70 149.51 163.71 150.37 Z M 163.73 151.41 L 163.74 152.44 C 163.74 153.30 164.44 153.99 165.31 153.99 C 166.17 153.98 166.86 153.28 166.86 152.42 L 166.85 151.39 C 166.84 150.53 166.14 149.83 165.28 149.84 C 164.42 149.85 163.72 150.55 163.73 151.41 Z M 163.74 152.43 L 163.74 153.43 C 163.74 154.30 164.44 154.99 165.30 154.99 C 166.17 154.99 166.86 154.29 166.86 153.43 L 166.86 152.42 C 166.86 151.56 166.15 150.86 165.29 150.87 C 164.43 150.87 163.73 151.57 163.74 152.43 Z M 163.74 153.43 L 163.74 154.38 C 163.74 155.25 164.44 155.94 165.30 155.94 C 166.16 155.94 166.86 155.24 166.86 154.38 L 166.86 153.43 C 166.86 152.57 166.16 151.87 165.30 151.87 C 164.44 151.87 163.74 152.57 163.74 153.43 Z M 163.74 154.38 L 163.74 155.42 C 163.74 156.28 164.44 156.98 165.30 156.98 C 166.16 156.98 166.86 156.28 166.86 155.42 L 166.86 154.38 C 166.86 153.52 166.16 152.82 165.30 152.82 C 164.44 152.82 163.74 153.52 163.74 154.38 Z M 163.74 155.43 L 163.74 156.41 C 163.75 157.27 164.45 157.97 165.31 157.97 C 166.17 157.96 166.87 157.26 166.86 156.40 L 166.86 155.41 C 166.86 154.55 166.16 153.85 165.29 153.86 C 164.43 153.86 163.74 154.56 163.74 155.43 Z M 163.74 156.42 L 163.75 157.40 C 163.76 158.26 164.47 158.95 165.33 158.94 C 166.19 158.93 166.88 158.23 166.88 157.36 L 166.86 156.39 C 166.86 155.53 166.15 154.83 165.29 154.84 C 164.42 154.85 163.73 155.56 163.74 156.42 Z M 163.75 157.41 L 163.77 158.37 C 163.79 159.23 164.50 159.91 165.36 159.90 C 166.23 159.88 166.91 159.16 166.89 158.30 L 166.88 157.35 C 166.86 156.49 166.14 155.80 165.28 155.82 C 164.42 155.84 163.74 156.55 163.75 157.41 Z M 163.77 158.37 L 163.80 159.34 C 163.82 160.20 164.54 160.88 165.40 160.86 C 166.26 160.84 166.94 160.12 166.92 159.26 L 166.89 158.29 C 166.87 157.43 166.15 156.75 165.29 156.77 C 164.43 156.80 163.75 157.51 163.77 158.37 Z M 163.80 159.34 L 163.82 160.35 C 163.85 161.21 164.56 161.89 165.43 161.87 C 166.29 161.85 166.97 161.13 166.95 160.27 L 166.92 159.26 C 166.90 158.39 166.18 157.71 165.32 157.74 C 164.46 157.76 163.78 158.48 163.80 159.34 Z M 163.82 160.34 L 163.85 161.40 C 163.87 162.26 164.58 162.95 165.44 162.93 C 166.30 162.91 166.99 162.20 166.97 161.33 L 166.95 160.27 C 166.93 159.41 166.21 158.73 165.35 158.75 C 164.49 158.77 163.81 159.48 163.82 160.34 Z M 163.85 161.39 L 163.86 162.33 C 163.87 163.20 164.58 163.89 165.44 163.87 C 166.30 163.86 166.99 163.15 166.98 162.29 L 166.97 161.34 C 166.96 160.48 166.25 159.79 165.39 159.81 C 164.52 159.82 163.83 160.53 163.85 161.39 Z M 163.86 162.33 L 163.87 163.29 C 163.88 164.15 164.58 164.84 165.44 164.83 C 166.31 164.83 167.00 164.12 166.99 163.26 L 166.98 162.30 C 166.97 161.44 166.27 160.74 165.41 160.75 C 164.54 160.76 163.85 161.46 163.86 162.33 Z M 163.87 163.29 L 163.88 164.29 C 163.88 165.15 164.59 165.84 165.45 165.84 C 166.31 165.83 167.00 165.13 167.00 164.26 L 166.99 163.26 C 166.98 162.40 166.28 161.71 165.42 161.71 C 164.56 161.72 163.86 162.42 163.87 163.29 Z M 163.88 164.29 L 163.89 165.34 C 163.89 166.20 164.60 166.89 165.46 166.89 C 166.32 166.88 167.02 166.17 167.01 165.31 L 167.00 164.26 C 166.99 163.40 166.28 162.71 165.42 162.72 C 164.56 162.72 163.87 163.43 163.88 164.29 Z M 163.89 165.35 L 163.90 166.38 C 163.91 167.24 164.62 167.93 165.48 167.92 C 166.34 167.91 167.03 167.20 167.02 166.34 L 167.01 165.31 C 167.00 164.44 166.29 163.75 165.43 163.76 C 164.56 163.78 163.87 164.48 163.89 165.35 Z M 163.90 166.38 L 163.92 167.36 C 163.93 168.22 164.64 168.91 165.50 168.89 C 166.37 168.88 167.05 168.17 167.04 167.31 L 167.02 166.33 C 167.01 165.47 166.29 164.78 165.43 164.80 C 164.57 164.81 163.88 165.52 163.90 166.38 Z M 163.92 167.36 L 163.94 168.37 C 163.95 169.23 164.67 169.91 165.53 169.89 C 166.39 169.88 167.08 169.16 167.06 168.30 L 167.04 167.30 C 167.02 166.44 166.31 165.75 165.44 165.77 C 164.58 165.79 163.90 166.50 163.92 167.36 Z M 163.94 168.37 L 163.96 169.38 C 163.98 170.25 164.69 170.93 165.56 170.91 C 166.42 170.89 167.10 170.17 167.08 169.31 L 167.06 168.30 C 167.04 167.44 166.32 166.75 165.46 166.77 C 164.60 166.79 163.92 167.51 163.94 168.37 Z M 163.96 169.39 L 163.98 170.40 C 164.01 171.27 164.72 171.95 165.58 171.93 C 166.44 171.91 167.13 171.19 167.11 170.33 L 167.08 169.31 C 167.06 168.45 166.34 167.77 165.48 167.79 C 164.62 167.81 163.94 168.52 163.96 169.39 Z M 163.98 170.41 L 164.01 171.42 C 164.03 172.28 164.75 172.96 165.61 172.94 C 166.47 172.92 167.15 172.20 167.13 171.34 L 167.11 170.33 C 167.08 169.46 166.37 168.78 165.51 168.81 C 164.64 168.83 163.96 169.54 163.98 170.41 Z M 164.01 171.42 L 164.04 172.42 C 164.06 173.28 164.77 173.96 165.64 173.94 C 166.50 173.92 167.18 173.20 167.16 172.34 L 167.13 171.34 C 167.11 170.48 166.39 169.80 165.53 169.82 C 164.67 169.84 163.99 170.56 164.01 171.42 Z M 164.04 172.42 L 164.06 173.42 C 164.08 174.28 164.80 174.96 165.66 174.94 C 166.52 174.92 167.20 174.20 167.18 173.34 L 167.16 172.34 C 167.13 171.48 166.42 170.80 165.56 170.82 C 164.69 170.84 164.01 171.56 164.04 172.42 Z M 164.06 173.42 L 164.09 174.41 C 164.11 175.27 164.83 175.95 165.69 175.93 C 166.55 175.91 167.23 175.19 167.21 174.33 L 167.18 173.34 C 167.16 172.48 166.44 171.79 165.58 171.82 C 164.72 171.84 164.04 172.56 164.06 173.42 Z M 164.09 174.41 L 164.11 175.41 C 164.13 176.27 164.85 176.95 165.71 176.93 C 166.57 176.91 167.26 176.19 167.23 175.33 L 167.21 174.33 C 167.19 173.47 166.47 172.79 165.61 172.81 C 164.75 172.83 164.06 173.55 164.09 174.41 Z M 164.11 175.41 L 164.14 176.41 C 164.16 177.27 164.88 177.96 165.74 177.93 C 166.60 177.91 167.28 177.19 167.26 176.33 L 167.23 175.33 C 167.21 174.47 166.50 173.79 165.63 173.81 C 164.77 173.83 164.09 174.55 164.11 175.41 Z M 164.14 176.41 L 164.16 177.39 C 164.19 178.25 164.90 178.93 165.76 178.91 C 166.63 178.89 167.31 178.17 167.28 177.31 L 167.26 176.33 C 167.24 175.47 166.52 174.79 165.66 174.81 C 164.80 174.83 164.12 175.55 164.14 176.41 Z M 164.16 177.39 L 164.19 178.38 C 164.21 179.25 164.93 179.92 165.80 179.90 C 166.66 179.88 167.34 179.16 167.31 178.30 L 167.28 177.31 C 167.26 176.44 166.54 175.77 165.68 175.79 C 164.82 175.81 164.14 176.53 164.16 177.39 Z M 164.19 178.39 L 164.22 179.39 C 164.25 180.25 164.97 180.93 165.84 180.90 C 166.70 180.87 167.37 180.15 167.34 179.29 L 167.31 178.29 C 167.28 177.43 166.56 176.75 165.70 176.78 C 164.84 176.81 164.16 177.53 164.19 178.39 Z M 164.22 179.40 L 164.26 180.41 C 164.30 181.27 165.03 181.94 165.89 181.91 C 166.75 181.87 167.42 181.15 167.38 180.29 L 167.34 179.28 C 167.31 178.42 166.58 177.75 165.72 177.78 C 164.86 177.81 164.19 178.54 164.22 179.40 Z M 164.27 180.43 L 164.32 181.44 C 164.36 182.30 165.09 182.97 165.95 182.92 C 166.82 182.88 167.48 182.15 167.43 181.29 L 167.38 180.27 C 167.34 179.41 166.61 178.75 165.75 178.79 C 164.89 178.83 164.22 179.57 164.27 180.43 Z M 164.32 181.46 L 164.38 182.45 C 164.43 183.31 165.17 183.97 166.03 183.91 C 166.89 183.86 167.55 183.12 167.50 182.26 L 167.43 181.27 C 167.38 180.41 166.64 179.75 165.78 179.81 C 164.92 179.86 164.26 180.60 164.32 181.46 Z M 164.38 182.47 L 164.45 183.45 C 164.51 184.31 165.26 184.96 166.12 184.90 C 166.98 184.83 167.63 184.09 167.57 183.23 L 167.49 182.24 C 167.43 181.38 166.68 180.74 165.82 180.80 C 164.96 180.86 164.32 181.61 164.38 182.47 Z M 164.45 183.47 L 164.53 184.45 C 164.60 185.31 165.36 185.95 166.22 185.88 C 167.08 185.81 167.72 185.06 167.65 184.20 L 167.57 183.21 C 167.50 182.35 166.74 181.71 165.88 181.78 C 165.02 181.85 164.38 182.61 164.45 183.47 Z M 164.53 184.46 L 164.62 185.46 C 164.70 186.32 165.45 186.96 166.31 186.88 C 167.17 186.81 167.81 186.05 167.73 185.19 L 167.64 184.19 C 167.57 183.33 166.81 182.70 165.95 182.77 C 165.09 182.85 164.46 183.61 164.53 184.46 Z M 164.62 185.47 L 164.71 186.47 C 164.79 187.33 165.55 187.97 166.41 187.89 C 167.27 187.81 167.90 187.05 167.82 186.19 L 167.73 185.18 C 167.65 184.33 166.89 183.69 166.04 183.77 C 165.18 183.85 164.54 184.61 164.62 185.47 Z M 164.71 186.48 L 164.81 187.49 C 164.89 188.35 165.65 188.98 166.51 188.90 C 167.36 188.83 168.00 188.07 167.92 187.21 L 167.82 186.19 C 167.74 185.33 166.98 184.70 166.13 184.78 C 165.27 184.86 164.63 185.62 164.71 186.48 Z M 164.81 187.49 L 164.90 188.46 C 164.97 189.32 165.73 189.95 166.59 189.87 C 167.45 189.79 168.08 189.03 168.01 188.18 L 167.92 187.21 C 167.84 186.35 167.08 185.72 166.22 185.80 C 165.36 185.87 164.73 186.63 164.81 187.49 Z M 164.90 188.46 L 164.99 189.44 C 165.06 190.30 165.82 190.93 166.68 190.85 C 167.54 190.77 168.17 190.01 168.10 189.15 L 168.01 188.18 C 167.93 187.32 167.17 186.68 166.31 186.76 C 165.45 186.84 164.82 187.60 164.90 188.46 Z M 164.99 189.44 L 165.08 190.43 C 165.16 191.29 165.92 191.92 166.78 191.84 C 167.64 191.76 168.27 191.00 168.19 190.14 L 168.10 189.15 C 168.01 188.29 167.25 187.66 166.40 187.74 C 165.54 187.82 164.91 188.58 164.99 189.44 Z M 165.08 190.44 L 165.18 191.44 C 165.26 192.30 166.02 192.92 166.88 192.84 C 167.74 192.76 168.37 192.00 168.28 191.14 L 168.19 190.14 C 168.10 189.28 167.34 188.65 166.48 188.73 C 165.63 188.82 165.00 189.58 165.08 190.44 Z M 165.18 191.44 L 165.28 192.46 C 165.36 193.31 166.13 193.94 166.99 193.85 C 167.84 193.77 168.47 193.00 168.38 192.15 L 168.28 191.13 C 168.20 190.28 167.43 189.65 166.57 189.73 C 165.72 189.82 165.09 190.59 165.18 191.44 Z M 165.28 192.46 L 165.38 193.48 C 165.47 194.34 166.24 194.96 167.10 194.87 C 167.96 194.78 168.58 194.02 168.49 193.16 L 168.38 192.14 C 168.29 191.28 167.53 190.66 166.67 190.75 C 165.81 190.84 165.19 191.61 165.28 192.46 Z M 165.39 193.49 L 165.49 194.45 C 165.59 195.30 166.36 195.92 167.21 195.83 C 168.07 195.73 168.69 194.96 168.59 194.10 L 168.49 193.15 C 168.39 192.29 167.62 191.68 166.77 191.77 C 165.91 191.86 165.29 192.64 165.39 193.49 Z M 165.49 194.45 L 165.60 195.42 C 165.70 196.28 166.48 196.89 167.33 196.79 C 168.19 196.69 168.80 195.92 168.70 195.06 L 168.59 194.10 C 168.49 193.24 167.72 192.63 166.86 192.72 C 166.01 192.82 165.39 193.60 165.49 194.45 Z M 165.60 195.43 L 165.72 196.41 C 165.82 197.26 166.60 197.87 167.46 197.77 C 168.31 197.67 168.92 196.89 168.82 196.03 L 168.70 195.05 C 168.60 194.20 167.82 193.59 166.97 193.69 C 166.11 193.79 165.50 194.57 165.60 195.43 Z M 165.72 196.41 L 165.85 197.41 C 165.95 198.26 166.73 198.87 167.59 198.76 C 168.44 198.65 169.05 197.87 168.94 197.02 L 168.82 196.03 C 168.71 195.17 167.93 194.56 167.08 194.67 C 166.22 194.78 165.62 195.56 165.72 196.41 Z M 165.85 197.41 L 165.98 198.42 C 166.09 199.28 166.87 199.88 167.73 199.77 C 168.58 199.66 169.18 198.88 169.07 198.02 L 168.94 197.01 C 168.83 196.16 168.05 195.55 167.20 195.66 C 166.34 195.77 165.74 196.56 165.85 197.41 Z M 165.98 198.43 L 166.11 199.46 C 166.23 200.31 167.01 200.91 167.87 200.80 C 168.72 200.69 169.32 199.90 169.21 199.05 L 169.07 198.02 C 168.96 197.16 168.18 196.56 167.32 196.67 C 166.47 196.79 165.87 197.57 165.98 198.43 Z M 166.12 199.46 L 166.25 200.47 C 166.37 201.33 167.16 201.92 168.01 201.81 C 168.86 201.69 169.46 200.90 169.35 200.05 L 169.21 199.04 C 169.09 198.19 168.31 197.59 167.45 197.71 C 166.60 197.82 166.00 198.61 166.12 199.46 Z M 166.25 200.48 L 166.39 201.46 C 166.51 202.32 167.30 202.91 168.15 202.79 C 169.01 202.67 169.60 201.88 169.48 201.03 L 169.35 200.05 C 169.23 199.19 168.44 198.60 167.58 198.71 C 166.73 198.83 166.13 199.62 166.25 200.48 Z M 166.39 201.47 L 166.53 202.46 C 166.66 203.32 167.45 203.91 168.30 203.79 C 169.15 203.67 169.75 202.87 169.62 202.02 L 169.48 201.02 C 169.36 200.17 168.57 199.58 167.72 199.70 C 166.86 199.82 166.27 200.61 166.39 201.47 Z M 166.53 202.47 L 166.68 203.47 C 166.81 204.32 167.60 204.91 168.46 204.79 C 169.31 204.66 169.90 203.87 169.77 203.01 L 169.62 202.01 C 169.50 201.16 168.70 200.57 167.85 200.70 C 167.00 200.82 166.41 201.62 166.53 202.47 Z M 166.68 203.48 L 166.84 204.48 C 166.97 205.33 167.76 205.91 168.62 205.78 C 169.47 205.65 170.05 204.86 169.92 204.00 L 169.77 203.01 C 169.64 202.15 168.84 201.57 167.99 201.70 C 167.14 201.83 166.55 202.63 166.68 203.48 Z M 166.84 204.49 L 167.00 205.48 C 167.13 206.33 167.93 206.91 168.79 206.77 C 169.64 206.64 170.22 205.84 170.08 204.99 L 169.92 203.99 C 169.79 203.14 168.99 202.56 168.13 202.70 C 167.28 202.84 166.70 203.64 166.84 204.49 Z M 167.00 205.49 L 167.16 206.47 C 167.31 207.32 168.11 207.89 168.96 207.75 C 169.81 207.61 170.38 206.80 170.24 205.95 L 170.08 204.97 C 169.94 204.12 169.13 203.55 168.28 203.69 C 167.43 203.83 166.86 204.64 167.00 205.49 Z M 167.17 206.48 L 167.34 207.48 C 167.49 208.33 168.30 208.90 169.15 208.75 C 170.00 208.60 170.57 207.79 170.42 206.94 L 170.24 205.94 C 170.09 205.09 169.28 204.52 168.43 204.67 C 167.58 204.82 167.02 205.63 167.17 206.48 Z M 167.34 207.50 L 167.53 208.52 C 167.69 209.36 168.51 209.92 169.36 209.77 C 170.20 209.61 170.76 208.79 170.60 207.94 L 170.41 206.92 C 170.26 206.08 169.44 205.52 168.59 205.68 C 167.75 205.83 167.19 206.65 167.34 207.50 Z M 167.54 208.53 L 167.73 209.53 C 167.90 210.38 168.72 210.93 169.57 210.76 C 170.41 210.59 170.96 209.77 170.80 208.93 L 170.60 207.93 C 170.43 207.08 169.61 206.53 168.77 206.70 C 167.92 206.87 167.37 207.69 167.54 208.53 Z M 167.74 209.55 L 167.94 210.53 C 168.11 211.37 168.94 211.91 169.79 211.74 C 170.63 211.56 171.17 210.74 171.00 209.89 L 170.79 208.91 C 170.62 208.07 169.79 207.53 168.95 207.70 C 168.10 207.88 167.56 208.70 167.74 209.55 Z M 167.94 210.54 L 168.15 211.50 C 168.34 212.35 169.17 212.88 170.01 212.70 C 170.85 212.51 171.39 211.68 171.20 210.84 L 170.99 209.88 C 170.81 209.03 169.98 208.50 169.14 208.68 C 168.29 208.87 167.76 209.70 167.94 210.54 Z M 168.16 211.52 L 168.37 212.47 C 168.56 213.31 169.40 213.83 170.24 213.64 C 171.08 213.45 171.61 212.61 171.42 211.77 L 171.20 210.83 C 171.01 209.98 170.17 209.46 169.33 209.65 C 168.49 209.84 167.96 210.68 168.16 211.52 Z M 168.37 212.48 L 168.60 213.42 C 168.79 214.25 169.64 214.77 170.47 214.57 C 171.31 214.38 171.83 213.53 171.63 212.70 L 171.41 211.76 C 171.21 210.92 170.37 210.40 169.53 210.60 C 168.69 210.80 168.18 211.64 168.37 212.48 Z M 168.60 213.43 L 168.85 214.43 C 169.05 215.27 169.90 215.78 170.74 215.57 C 171.57 215.37 172.08 214.52 171.88 213.68 L 171.63 212.68 C 171.42 211.84 170.58 211.33 169.74 211.54 C 168.90 211.75 168.39 212.59 168.60 213.43 Z M 168.85 214.45 L 169.10 215.44 C 169.32 216.27 170.17 216.77 171.01 216.56 C 171.84 216.34 172.34 215.49 172.13 214.66 L 171.87 213.67 C 171.66 212.83 170.81 212.33 169.97 212.55 C 169.14 212.76 168.64 213.61 168.85 214.45 Z M 169.11 215.45 L 169.37 216.43 C 169.59 217.26 170.45 217.75 171.28 217.53 C 172.12 217.31 172.61 216.45 172.39 215.62 L 172.12 214.64 C 171.90 213.81 171.04 213.32 170.21 213.54 C 169.38 213.76 168.89 214.62 169.11 215.45 Z M 169.38 216.44 L 169.65 217.40 C 169.88 218.23 170.74 218.72 171.57 218.48 C 172.40 218.25 172.88 217.39 172.65 216.56 L 172.38 215.60 C 172.15 214.77 171.29 214.29 170.46 214.52 C 169.63 214.75 169.14 215.61 169.38 216.44 Z M 169.65 217.42 L 169.93 218.36 C 170.17 219.19 171.04 219.66 171.87 219.42 C 172.69 219.17 173.17 218.30 172.92 217.48 L 172.65 216.54 C 172.40 215.71 171.53 215.24 170.71 215.48 C 169.88 215.73 169.41 216.59 169.65 217.42 Z M 169.93 218.38 L 170.22 219.30 C 170.47 220.12 171.35 220.58 172.17 220.33 C 172.99 220.08 173.46 219.20 173.20 218.38 L 172.92 217.46 C 172.66 216.63 171.79 216.17 170.96 216.43 C 170.14 216.68 169.68 217.56 169.93 218.38 Z M 170.23 219.32 L 170.55 220.32 C 170.82 221.14 171.70 221.59 172.52 221.32 C 173.34 221.06 173.79 220.18 173.52 219.36 L 173.19 218.35 C 172.93 217.53 172.05 217.09 171.23 217.35 C 170.41 217.62 169.96 218.50 170.23 219.32 Z M 170.56 220.35 L 170.90 221.32 C 171.18 222.14 172.07 222.57 172.88 222.29 C 173.70 222.01 174.13 221.12 173.85 220.30 L 173.51 219.33 C 173.23 218.52 172.34 218.08 171.53 218.36 C 170.71 218.65 170.28 219.53 170.56 220.35 Z M 170.91 221.35 L 171.25 222.29 C 171.55 223.10 172.44 223.52 173.25 223.22 C 174.06 222.93 174.48 222.03 174.18 221.22 L 173.84 220.28 C 173.54 219.47 172.65 219.05 171.84 219.35 C 171.03 219.64 170.61 220.54 170.91 221.35 Z M 171.26 222.32 L 171.62 223.24 C 171.93 224.04 172.83 224.44 173.64 224.13 C 174.44 223.81 174.84 222.91 174.53 222.11 L 174.17 221.19 C 173.86 220.39 172.96 219.99 172.15 220.30 C 171.35 220.61 170.95 221.52 171.26 222.32 Z M 171.63 223.27 L 171.99 224.15 C 172.32 224.94 173.23 225.32 174.03 225.00 C 174.83 224.67 175.21 223.75 174.88 222.96 L 174.51 222.08 C 174.19 221.28 173.27 220.90 172.48 221.23 C 171.68 221.56 171.30 222.47 171.63 223.27 Z M 172.01 224.18 L 172.42 225.12 C 172.77 225.91 173.69 226.27 174.48 225.92 C 175.27 225.57 175.62 224.65 175.28 223.86 L 174.86 222.92 C 174.52 222.13 173.60 221.78 172.81 222.12 C 172.02 222.47 171.66 223.39 172.01 224.18 Z M 172.44 225.16 L 172.88 226.10 C 173.25 226.88 174.19 227.21 174.96 226.84 C 175.74 226.47 176.08 225.54 175.71 224.76 L 175.26 223.82 C 174.89 223.04 173.96 222.71 173.18 223.08 C 172.40 223.45 172.07 224.38 172.44 225.16 Z M 172.91 226.15 L 173.37 227.04 C 173.77 227.81 174.71 228.11 175.47 227.71 C 176.24 227.32 176.54 226.37 176.14 225.61 L 175.68 224.72 C 175.29 223.95 174.34 223.65 173.58 224.05 C 172.81 224.44 172.51 225.38 172.91 226.15 Z M 173.40 227.10 L 173.88 227.94 C 174.30 228.69 175.26 228.95 176.01 228.53 C 176.76 228.10 177.02 227.15 176.59 226.40 L 176.12 225.56 C 175.69 224.81 174.74 224.54 173.99 224.97 C 173.24 225.39 172.97 226.35 173.40 227.10 Z M 173.91 228.00 L 174.41 228.79 C 174.87 229.52 175.84 229.74 176.57 229.28 C 177.30 228.83 177.52 227.86 177.06 227.13 L 176.56 226.34 C 176.10 225.61 175.13 225.39 174.40 225.85 C 173.67 226.31 173.45 227.27 173.91 228.00 Z M 174.46 228.86 L 175.06 229.71 C 175.55 230.41 176.53 230.58 177.23 230.08 C 177.94 229.58 178.10 228.61 177.61 227.91 L 177.01 227.06 C 176.51 226.36 175.54 226.19 174.83 226.69 C 174.13 227.19 173.96 228.16 174.46 228.86 Z M 175.11 229.78 L 175.74 230.56 C 176.27 231.24 177.26 231.35 177.93 230.81 C 178.60 230.27 178.71 229.29 178.18 228.62 L 177.55 227.83 C 177.01 227.16 176.03 227.05 175.36 227.59 C 174.68 228.12 174.57 229.11 175.11 229.78 Z M 175.79 230.63 L 176.45 231.36 C 177.02 232.01 178.01 232.06 178.65 231.49 C 179.29 230.91 179.35 229.93 178.78 229.28 L 178.12 228.55 C 177.55 227.91 176.56 227.85 175.92 228.43 C 175.27 229.00 175.22 229.99 175.79 230.63 Z M 176.50 231.42 L 177.18 232.11 C 177.78 232.72 178.77 232.73 179.39 232.13 C 180.00 231.52 180.01 230.53 179.40 229.92 L 178.72 229.23 C 178.12 228.61 177.13 228.61 176.52 229.21 C 175.90 229.82 175.89 230.80 176.50 231.42 Z M 177.24 232.17 L 177.88 232.75 C 178.51 233.34 179.50 233.29 180.08 232.66 C 180.67 232.02 180.62 231.03 179.99 230.45 L 179.34 229.86 C 178.71 229.28 177.72 229.32 177.14 229.96 C 176.56 230.60 176.60 231.58 177.24 232.17 Z M 177.99 232.85 L 178.71 233.39 C 179.40 233.92 180.38 233.78 180.90 233.09 C 181.42 232.41 181.29 231.43 180.60 230.91 L 179.88 230.36 C 179.19 229.84 178.21 229.97 177.69 230.66 C 177.17 231.35 177.30 232.33 177.99 232.85 Z M 178.88 233.51 L 179.74 234.00 C 180.49 234.42 181.44 234.16 181.87 233.42 C 182.30 232.67 182.04 231.71 181.29 231.29 L 180.43 230.80 C 179.68 230.37 178.73 230.63 178.30 231.38 C 177.87 232.12 178.13 233.08 178.88 233.51 Z M 179.94 234.09 L 180.98 234.51 C 181.78 234.82 182.69 234.43 183.01 233.63 C 183.32 232.83 182.93 231.92 182.13 231.60 L 181.09 231.19 C 180.29 230.87 179.38 231.26 179.06 232.07 C 178.74 232.87 179.14 233.77 179.94 234.09 Z M 181.16 234.56 L 182.17 234.83 C 183.00 235.05 183.86 234.55 184.07 233.71 C 184.29 232.88 183.79 232.03 182.96 231.81 L 181.95 231.54 C 181.12 231.33 180.26 231.82 180.04 232.66 C 179.83 233.49 180.32 234.35 181.16 234.56 Z M 182.29 234.86 L 183.21 235.02 C 184.06 235.17 184.87 234.60 185.02 233.75 C 185.17 232.90 184.60 232.09 183.75 231.94 L 182.83 231.78 C 181.98 231.63 181.18 232.20 181.03 233.05 C 180.88 233.90 181.44 234.71 182.29 234.86 Z M 183.30 235.03 L 184.29 235.14 C 185.15 235.24 185.92 234.62 186.02 233.77 C 186.12 232.91 185.50 232.14 184.64 232.04 L 183.66 231.93 C 182.80 231.83 182.03 232.45 181.93 233.30 C 181.83 234.16 182.45 234.93 183.30 235.03 Z M 184.38 235.15 L 185.41 235.21 C 186.27 235.26 187.01 234.60 187.06 233.74 C 187.11 232.88 186.45 232.14 185.59 232.09 L 184.56 232.03 C 183.70 231.98 182.96 232.64 182.91 233.50 C 182.86 234.36 183.52 235.10 184.38 235.15 Z M 185.49 235.21 L 186.54 235.22 C 187.41 235.22 188.11 234.52 188.11 233.66 C 188.11 232.80 187.42 232.10 186.55 232.09 L 185.50 232.09 C 184.64 232.09 183.94 232.78 183.94 233.65 C 183.94 234.51 184.63 235.21 185.49 235.21 Z M 186.63 235.21 L 187.68 235.16 C 188.54 235.11 189.20 234.38 189.15 233.51 C 189.11 232.65 188.37 231.99 187.51 232.04 L 186.47 232.10 C 185.60 232.14 184.94 232.88 184.99 233.74 C 185.04 234.60 185.77 235.26 186.63 235.21 Z M 187.78 235.15 L 188.79 235.03 C 189.64 234.93 190.26 234.15 190.16 233.30 C 190.05 232.44 189.28 231.83 188.42 231.93 L 187.41 232.05 C 186.55 232.15 185.94 232.93 186.04 233.78 C 186.14 234.64 186.92 235.25 187.78 235.15 Z M 188.91 235.01 L 189.99 234.79 C 190.83 234.63 191.38 233.80 191.21 232.96 C 191.05 232.11 190.22 231.56 189.38 231.73 L 188.30 231.95 C 187.45 232.12 186.91 232.94 187.07 233.78 C 187.24 234.63 188.07 235.18 188.91 235.01 Z M 190.13 234.76 L 191.20 234.44 C 192.03 234.19 192.50 233.33 192.25 232.50 C 192.01 231.67 191.14 231.20 190.31 231.45 L 189.24 231.77 C 188.41 232.01 187.94 232.88 188.19 233.71 C 188.43 234.53 189.30 235.01 190.13 234.76 Z M 191.33 234.40 L 192.31 234.01 C 193.11 233.70 193.50 232.79 193.19 231.99 C 192.87 231.19 191.97 230.79 191.16 231.11 L 190.19 231.49 C 189.38 231.81 188.99 232.71 189.30 233.52 C 189.62 234.32 190.53 234.71 191.33 234.40 Z M 192.41 233.97 L 193.30 233.54 C 194.07 233.17 194.40 232.23 194.03 231.46 C 193.65 230.68 192.72 230.35 191.94 230.73 L 191.06 231.15 C 190.28 231.53 189.96 232.46 190.33 233.24 C 190.70 234.01 191.64 234.34 192.41 233.97 Z M 193.38 233.50 L 194.18 233.06 C 194.93 232.64 195.20 231.69 194.78 230.93 C 194.37 230.18 193.42 229.91 192.66 230.33 L 191.86 230.77 C 191.11 231.19 190.84 232.14 191.26 232.89 C 191.68 233.65 192.63 233.92 193.38 233.50 Z M 194.23 233.02 L 194.95 232.59 C 195.68 232.14 195.92 231.18 195.47 230.44 C 195.02 229.70 194.06 229.47 193.32 229.92 L 192.61 230.36 C 191.87 230.81 191.64 231.77 192.09 232.50 C 192.54 233.24 193.50 233.47 194.23 233.02 Z M 194.98 232.56 L 195.86 232.00 C 196.58 231.53 196.79 230.56 196.32 229.84 C 195.85 229.11 194.89 228.91 194.16 229.38 L 193.28 229.94 C 192.56 230.41 192.35 231.38 192.82 232.10 C 193.29 232.83 194.26 233.03 194.98 232.56 Z M 195.90 231.97 L 196.70 231.42 C 197.41 230.93 197.59 229.95 197.10 229.25 C 196.61 228.54 195.63 228.36 194.92 228.85 L 194.12 229.40 C 193.41 229.89 193.24 230.86 193.73 231.57 C 194.22 232.28 195.19 232.46 195.90 231.97 Z M 196.74 231.39 L 197.50 230.83 C 198.20 230.32 198.35 229.34 197.84 228.64 C 197.33 227.95 196.35 227.80 195.65 228.31 L 194.89 228.87 C 194.19 229.39 194.04 230.36 194.55 231.06 C 195.06 231.75 196.04 231.90 196.74 231.39 Z M 197.53 230.81 L 198.33 230.19 C 199.02 229.66 199.14 228.68 198.62 228.00 C 198.09 227.32 197.11 227.19 196.43 227.71 L 195.63 228.33 C 194.94 228.86 194.82 229.84 195.34 230.52 C 195.87 231.20 196.85 231.33 197.53 230.81 Z M 198.35 230.18 L 199.05 229.62 C 199.73 229.09 199.85 228.11 199.31 227.43 C 198.78 226.75 197.80 226.64 197.12 227.17 L 196.42 227.72 C 195.74 228.26 195.62 229.24 196.15 229.92 C 196.69 230.59 197.67 230.71 198.35 230.18 Z M 199.06 229.62 L 199.81 229.02 C 200.49 228.48 200.60 227.50 200.06 226.83 C 199.53 226.15 198.55 226.04 197.87 226.57 L 197.11 227.18 C 196.44 227.71 196.33 228.69 196.86 229.37 C 197.40 230.04 198.38 230.16 199.06 229.62 Z M 199.82 229.02 L 200.61 228.38 C 201.29 227.84 201.39 226.86 200.86 226.18 C 200.32 225.51 199.33 225.40 198.66 225.94 L 197.87 226.58 C 197.19 227.12 197.08 228.10 197.62 228.77 C 198.16 229.45 199.15 229.55 199.82 229.02 Z M 200.62 228.38 L 201.44 227.72 C 202.11 227.18 202.21 226.19 201.67 225.52 C 201.13 224.85 200.15 224.74 199.48 225.28 L 198.66 225.94 C 197.99 226.48 197.88 227.47 198.42 228.14 C 198.96 228.81 199.94 228.92 200.62 228.38 Z M 201.44 227.71 L 202.22 227.08 C 202.89 226.54 203.00 225.56 202.45 224.89 C 201.91 224.22 200.93 224.11 200.26 224.65 L 199.48 225.28 C 198.81 225.83 198.70 226.81 199.24 227.48 C 199.78 228.15 200.77 228.26 201.44 227.71 Z"
      fill="black"
      fill-rule="nonzero" /></svg>