<svg xmlns="http://www.w3.org/2000/svg" width="300" height="300" viewBox="0 0 300 300">
<path d="M 109.33 211.25 L 108.75 212.20 C 108.30 212.93 108.53 213.89 109.26 214.34 C 110.00 214.79 110.96 214.56 111.41 213.83 L 111.99 212.89 C 112.44 212.16 112.21 211.19 111.48 210.74 C 110.74 210.29 109.78 210.52 109.33 211.25 Z M 108.75 212.20 L 108.18 213.13 C 107.73 213.87 107.96 214.83 108.70 215.28 C 109.43 215.73 110.39 215.49 110.84 214.76 L 111.41 213.83 C 111.86 213.09 111.63 212.13 110.90 211.68 C 110.16 211.23 109.20 211.46 108.75 212.20 Z M 108.18 213.14 L 107.62 214.05 C 107.18 214.79 107.41 215.75 108.15 216.19 C 108.89 216.64 109.85 216.40 110.30 215.67 L 110.85 214.75 C 111.29 214.01 111.06 213.05 110.32 212.61 C 109.58 212.16 108.62 212.40 108.18 213.14 Z M 107.62 214.06 L 107.09 214.95 C 106.65 215.69 106.89 216.65 107.64 217.09 C 108.38 217.53 109.33 217.28 109.77 216.54 L 110.30 215.66 C 110.74 214.91 110.50 213.96 109.76 213.52 C 109.02 213.08 108.06 213.32 107.62 214.06 Z M 107.08 214.96 L 106.59 215.82 C 106.16 216.56 106.41 217.52 107.16 217.95 C 107.90 218.38 108.86 218.13 109.29 217.38 L 109.78 216.53 C 110.22 215.78 109.96 214.83 109.21 214.39 C 108.47 213.96 107.51 214.22 107.08 214.96 Z M 106.58 215.84 L 106.12 216.65 C 105.70 217.40 105.97 218.35 106.73 218.77 C 107.48 219.19 108.43 218.92 108.85 218.17 L 109.30 217.36 C 109.72 216.61 109.45 215.66 108.70 215.24 C 107.95 214.81 107.00 215.08 106.58 215.84 Z M 106.11 216.68 L 105.71 217.43 C 105.30 218.19 105.59 219.14 106.36 219.54 C 107.12 219.95 108.06 219.66 108.47 218.89 L 108.87 218.14 C 109.27 217.38 108.98 216.43 108.22 216.03 C 107.46 215.62 106.51 215.91 106.11 216.68 Z M 105.68 217.48 L 105.20 218.48 C 104.83 219.25 105.15 220.19 105.93 220.56 C 106.70 220.94 107.64 220.61 108.01 219.84 L 108.49 218.84 C 108.87 218.07 108.54 217.13 107.77 216.76 C 106.99 216.38 106.06 216.71 105.68 217.48 Z M 105.17 218.56 L 104.75 219.56 C 104.42 220.36 104.79 221.27 105.59 221.60 C 106.39 221.93 107.30 221.56 107.63 220.76 L 108.05 219.76 C 108.38 218.96 108.00 218.05 107.21 217.71 C 106.41 217.38 105.50 217.76 105.17 218.56 Z M 104.71 219.65 L 104.40 220.55 C 104.12 221.37 104.55 222.26 105.36 222.54 C 106.18 222.82 107.07 222.39 107.35 221.58 L 107.66 220.67 C 107.95 219.86 107.52 218.97 106.70 218.69 C 105.89 218.40 105.00 218.84 104.71 219.65 Z M 104.38 220.62 L 104.13 221.47 C 103.88 222.29 104.35 223.16 105.18 223.41 C 106.01 223.65 106.88 223.18 107.12 222.35 L 107.37 221.51 C 107.62 220.68 107.15 219.81 106.32 219.57 C 105.49 219.32 104.62 219.79 104.38 220.62 Z M 104.12 221.50 L 103.85 222.49 C 103.62 223.32 104.11 224.18 104.94 224.41 C 105.77 224.63 106.63 224.14 106.86 223.31 L 107.13 222.32 C 107.36 221.49 106.87 220.63 106.04 220.40 C 105.21 220.18 104.35 220.67 104.12 221.50 Z M 103.85 222.46 L 103.49 223.70 C 103.25 224.53 103.72 225.39 104.55 225.64 C 105.38 225.88 106.25 225.40 106.49 224.58 L 106.85 223.34 C 107.09 222.51 106.62 221.64 105.79 221.40 C 104.96 221.16 104.10 221.63 103.85 222.46 Z M 103.55 223.54 L 103.24 224.29 C 102.91 225.09 103.29 226.00 104.08 226.33 C 104.88 226.66 105.79 226.28 106.12 225.49 L 106.43 224.73 C 106.76 223.94 106.38 223.02 105.59 222.69 C 104.79 222.37 103.88 222.75 103.55 223.54 Z M 105.21 223.42 L 105.01 223.35 C 104.20 223.06 103.31 223.48 103.02 224.29 C 102.73 225.11 103.15 226.00 103.96 226.29 L 104.15 226.36 C 104.97 226.65 105.86 226.23 106.15 225.42 C 106.44 224.60 106.02 223.71 105.21 223.42 Z M 106.03 224.62 L 105.93 223.86 C 105.82 223.01 105.04 222.41 104.18 222.52 C 103.33 222.63 102.72 223.42 102.84 224.27 L 102.94 225.03 C 103.05 225.88 103.84 226.48 104.69 226.37 C 105.55 226.25 106.15 225.47 106.03 224.62 Z M 105.95 224.02 L 105.90 222.75 C 105.88 221.89 105.15 221.22 104.29 221.25 C 103.43 221.28 102.76 222.00 102.78 222.86 L 102.83 224.12 C 102.85 224.98 103.58 225.66 104.44 225.63 C 105.30 225.60 105.98 224.88 105.95 224.02 Z M 105.91 222.80 L 105.90 221.48 C 105.90 220.62 105.20 219.92 104.33 219.93 C 103.47 219.93 102.77 220.63 102.78 221.49 L 102.78 222.81 C 102.79 223.67 103.49 224.37 104.35 224.37 C 105.21 224.36 105.91 223.66 105.91 222.80 Z M 105.90 221.50 L 105.91 220.53 C 105.92 219.66 105.22 218.96 104.36 218.95 C 103.50 218.95 102.79 219.64 102.79 220.50 L 102.78 221.47 C 102.77 222.34 103.46 223.04 104.33 223.05 C 105.19 223.06 105.89 222.36 105.90 221.50 Z M 105.91 220.54 L 105.93 219.52 C 105.94 218.66 105.26 217.95 104.39 217.94 C 103.53 217.92 102.82 218.61 102.80 219.47 L 102.79 220.48 C 102.77 221.35 103.46 222.06 104.32 222.07 C 105.18 222.09 105.89 221.40 105.91 220.54 Z M 105.93 219.54 L 105.96 218.51 C 105.98 217.65 105.31 216.93 104.44 216.90 C 103.58 216.88 102.86 217.55 102.84 218.41 L 102.81 219.45 C 102.78 220.31 103.46 221.03 104.32 221.06 C 105.18 221.08 105.90 220.41 105.93 219.54 Z M 105.96 218.53 L 106.00 217.51 C 106.04 216.65 105.37 215.92 104.51 215.88 C 103.65 215.84 102.92 216.51 102.88 217.37 L 102.84 218.39 C 102.80 219.25 103.47 219.98 104.33 220.02 C 105.19 220.06 105.92 219.39 105.96 218.53 Z M 106.00 217.54 L 106.06 216.54 C 106.12 215.68 105.47 214.94 104.61 214.89 C 103.74 214.83 103.00 215.49 102.95 216.35 L 102.89 217.34 C 102.83 218.20 103.48 218.94 104.34 218.99 C 105.20 219.05 105.95 218.40 106.00 217.54 Z M 106.06 216.58 L 106.15 215.54 C 106.23 214.68 105.60 213.92 104.74 213.85 C 103.88 213.77 103.12 214.40 103.04 215.26 L 102.95 216.31 C 102.87 217.17 103.51 217.92 104.37 218.00 C 105.23 218.08 105.98 217.44 106.06 216.58 Z M 106.15 215.59 L 106.28 214.55 C 106.38 213.69 105.77 212.91 104.91 212.81 C 104.06 212.70 103.28 213.31 103.18 214.17 L 103.05 215.21 C 102.95 216.07 103.56 216.85 104.41 216.95 C 105.27 217.05 106.05 216.44 106.15 215.59 Z M 106.27 214.59 L 106.42 213.62 C 106.55 212.76 105.97 211.97 105.11 211.84 C 104.26 211.71 103.46 212.29 103.33 213.14 L 103.18 214.12 C 103.05 214.97 103.64 215.77 104.49 215.90 C 105.34 216.03 106.14 215.45 106.27 214.59 Z M 106.41 213.66 L 106.58 212.72 C 106.74 211.87 106.17 211.06 105.32 210.90 C 104.47 210.75 103.66 211.31 103.51 212.16 L 103.34 213.10 C 103.19 213.95 103.75 214.76 104.60 214.92 C 105.45 215.07 106.26 214.51 106.41 213.66 Z M 106.58 212.75 L 106.76 211.82 C 106.93 210.97 106.38 210.15 105.54 209.98 C 104.69 209.81 103.87 210.36 103.70 211.21 L 103.52 212.13 C 103.35 212.98 103.89 213.80 104.74 213.97 C 105.58 214.14 106.41 213.59 106.58 212.75 Z M 106.76 211.84 L 106.96 210.89 C 107.14 210.05 106.60 209.22 105.75 209.04 C 104.91 208.86 104.08 209.40 103.90 210.25 L 103.70 211.19 C 103.53 212.03 104.06 212.86 104.91 213.04 C 105.75 213.22 106.58 212.68 106.76 211.84 Z M 106.96 210.90 L 107.17 209.94 C 107.35 209.10 106.82 208.27 105.98 208.08 C 105.13 207.90 104.30 208.43 104.12 209.28 L 103.91 210.24 C 103.72 211.08 104.25 211.91 105.10 212.09 C 105.94 212.28 106.77 211.75 106.96 210.90 Z M 107.16 209.95 L 107.38 208.98 C 107.57 208.14 107.05 207.30 106.20 207.11 C 105.36 206.92 104.53 207.45 104.34 208.29 L 104.12 209.27 C 103.93 210.11 104.46 210.94 105.30 211.13 C 106.14 211.32 106.97 210.79 107.16 209.95 Z M 107.38 208.98 L 107.61 207.99 C 107.80 207.15 107.28 206.32 106.44 206.12 C 105.60 205.93 104.76 206.45 104.57 207.29 L 104.34 208.28 C 104.15 209.12 104.67 209.96 105.51 210.15 C 106.35 210.35 107.19 209.82 107.38 208.98 Z M 107.61 208.00 L 107.84 207.00 C 108.04 206.16 107.52 205.32 106.68 205.13 C 105.84 204.93 105.00 205.45 104.80 206.29 L 104.57 207.29 C 104.37 208.13 104.89 208.97 105.73 209.16 C 106.57 209.36 107.41 208.84 107.61 208.00 Z M 107.84 207.01 L 108.07 206.06 C 108.27 205.22 107.75 204.38 106.91 204.18 C 106.07 203.98 105.23 204.49 105.03 205.33 L 104.81 206.28 C 104.61 207.12 105.12 207.96 105.96 208.16 C 106.80 208.36 107.64 207.85 107.84 207.01 Z M 108.07 206.06 L 108.30 205.10 C 108.50 204.26 107.99 203.42 107.15 203.22 C 106.31 203.01 105.47 203.53 105.26 204.37 L 105.03 205.33 C 104.83 206.17 105.34 207.01 106.18 207.21 C 107.02 207.41 107.86 206.90 108.07 206.06 Z M 108.30 205.11 L 108.54 204.14 C 108.74 203.30 108.23 202.45 107.40 202.25 C 106.56 202.04 105.71 202.55 105.51 203.39 L 105.27 204.36 C 105.06 205.20 105.57 206.04 106.41 206.25 C 107.25 206.46 108.09 205.95 108.30 205.11 Z M 108.54 204.15 L 108.78 203.16 C 109.00 202.33 108.49 201.48 107.65 201.27 C 106.82 201.06 105.97 201.56 105.76 202.40 L 105.51 203.38 C 105.30 204.22 105.80 205.06 106.64 205.28 C 107.48 205.49 108.32 204.98 108.54 204.15 Z M 108.78 203.17 L 109.04 202.18 C 109.25 201.35 108.75 200.50 107.92 200.28 C 107.08 200.06 106.23 200.56 106.02 201.40 L 105.76 202.39 C 105.54 203.22 106.04 204.08 106.88 204.29 C 107.71 204.51 108.56 204.01 108.78 203.17 Z M 109.04 202.19 L 109.28 201.26 C 109.51 200.43 109.01 199.57 108.18 199.35 C 107.34 199.13 106.49 199.62 106.27 200.46 L 106.02 201.39 C 105.80 202.22 106.29 203.08 107.13 203.30 C 107.96 203.52 108.81 203.03 109.04 202.19 Z M 109.28 201.27 L 109.54 200.33 C 109.77 199.49 109.28 198.64 108.44 198.41 C 107.61 198.18 106.75 198.67 106.53 199.50 L 106.27 200.45 C 106.04 201.28 106.53 202.14 107.36 202.36 C 108.20 202.59 109.05 202.10 109.28 201.27 Z M 109.54 200.33 L 109.80 199.38 C 110.03 198.55 109.55 197.69 108.72 197.45 C 107.89 197.22 107.03 197.71 106.80 198.54 L 106.53 199.50 C 106.30 200.33 106.78 201.19 107.61 201.42 C 108.45 201.65 109.31 201.16 109.54 200.33 Z M 109.80 199.38 L 110.08 198.41 C 110.31 197.58 109.83 196.72 109.00 196.48 C 108.17 196.25 107.31 196.73 107.07 197.56 L 106.80 198.53 C 106.56 199.36 107.05 200.23 107.87 200.46 C 108.70 200.69 109.57 200.21 109.80 199.38 Z M 110.08 198.41 L 110.36 197.42 C 110.60 196.59 110.12 195.73 109.29 195.49 C 108.46 195.25 107.60 195.73 107.36 196.56 L 107.07 197.55 C 106.84 198.38 107.32 199.25 108.15 199.49 C 108.97 199.72 109.84 199.24 110.08 198.41 Z M 110.36 197.43 L 110.64 196.46 C 110.88 195.63 110.40 194.76 109.57 194.52 C 108.75 194.28 107.88 194.76 107.64 195.59 L 107.36 196.56 C 107.12 197.39 107.60 198.25 108.43 198.49 C 109.25 198.73 110.12 198.25 110.36 197.43 Z M 110.64 196.46 L 110.92 195.50 C 111.16 194.68 110.68 193.81 109.86 193.57 C 109.03 193.33 108.16 193.80 107.92 194.63 L 107.64 195.58 C 107.40 196.41 107.87 197.28 108.70 197.52 C 109.53 197.76 110.40 197.29 110.64 196.46 Z M 110.92 195.51 L 111.20 194.55 C 111.45 193.72 110.98 192.85 110.15 192.61 C 109.32 192.36 108.45 192.83 108.21 193.66 L 107.92 194.62 C 107.68 195.45 108.15 196.32 108.98 196.56 C 109.80 196.81 110.67 196.34 110.92 195.51 Z M 111.20 194.55 L 111.49 193.59 C 111.74 192.76 111.27 191.89 110.45 191.64 C 109.62 191.39 108.75 191.86 108.50 192.69 L 108.21 193.65 C 107.96 194.48 108.43 195.35 109.25 195.60 C 110.08 195.85 110.95 195.38 111.20 194.55 Z M 111.49 193.60 L 111.79 192.64 C 112.04 191.81 111.58 190.94 110.75 190.68 C 109.93 190.43 109.06 190.89 108.80 191.71 L 108.51 192.68 C 108.25 193.50 108.71 194.37 109.54 194.63 C 110.36 194.88 111.23 194.42 111.49 193.60 Z M 111.78 192.65 L 112.08 191.70 C 112.34 190.87 111.89 190.00 111.07 189.74 C 110.25 189.48 109.37 189.93 109.11 190.75 L 108.81 191.70 C 108.54 192.52 109.00 193.40 109.82 193.66 C 110.64 193.92 111.52 193.47 111.78 192.65 Z M 112.08 191.71 L 112.39 190.75 C 112.66 189.93 112.22 189.05 111.40 188.78 C 110.58 188.51 109.69 188.96 109.43 189.78 L 109.11 190.74 C 108.84 191.56 109.29 192.44 110.11 192.71 C 110.93 192.98 111.81 192.53 112.08 191.71 Z M 112.39 190.77 L 112.71 189.82 C 112.99 189.00 112.55 188.11 111.73 187.84 C 110.91 187.56 110.03 188.00 109.75 188.82 L 109.43 189.77 C 109.15 190.58 109.59 191.47 110.41 191.75 C 111.23 192.02 112.11 191.59 112.39 190.77 Z M 112.71 189.83 L 113.04 188.89 C 113.32 188.07 112.89 187.18 112.07 186.90 C 111.25 186.61 110.36 187.05 110.08 187.86 L 109.75 188.80 C 109.47 189.62 109.90 190.51 110.72 190.79 C 111.53 191.08 112.43 190.65 112.71 189.83 Z M 113.03 188.90 L 113.37 187.97 C 113.66 187.15 113.23 186.26 112.42 185.97 C 111.60 185.68 110.70 186.10 110.41 186.92 L 110.08 187.85 C 109.79 188.67 110.22 189.56 111.03 189.85 C 111.85 190.14 112.74 189.72 113.03 188.90 Z M 113.36 187.98 L 113.70 187.04 C 114.00 186.23 113.58 185.33 112.76 185.03 C 111.95 184.74 111.05 185.16 110.75 185.97 L 110.42 186.91 C 110.12 187.72 110.54 188.62 111.35 188.92 C 112.17 189.21 113.07 188.79 113.36 187.98 Z M 113.70 187.05 L 114.05 186.11 C 114.35 185.30 113.93 184.39 113.12 184.09 C 112.30 183.79 111.40 184.21 111.10 185.02 L 110.76 185.96 C 110.46 186.78 110.87 187.68 111.69 187.98 C 112.50 188.28 113.40 187.86 113.70 187.05 Z M 114.05 186.11 L 114.38 185.22 C 114.69 184.41 114.27 183.50 113.46 183.20 C 112.64 182.89 111.74 183.31 111.44 184.12 L 111.10 185.02 C 110.80 185.83 111.21 186.74 112.03 187.04 C 112.84 187.34 113.75 186.93 114.05 186.11 Z M 114.38 185.22 L 114.72 184.32 C 115.03 183.50 114.62 182.60 113.81 182.29 C 112.99 181.98 112.09 182.39 111.78 183.21 L 111.44 184.12 C 111.13 184.93 111.54 185.84 112.35 186.14 C 113.17 186.45 114.08 186.04 114.38 185.22 Z M 114.72 184.32 L 115.07 183.40 C 115.38 182.59 114.98 181.68 114.16 181.37 C 113.35 181.06 112.44 181.47 112.13 182.28 L 111.78 183.20 C 111.47 184.01 111.88 184.92 112.69 185.23 C 113.50 185.54 114.41 185.13 114.72 184.32 Z M 115.07 183.41 L 115.44 182.47 C 115.75 181.65 115.34 180.74 114.53 180.43 C 113.72 180.12 112.81 180.52 112.50 181.33 L 112.13 182.27 C 111.82 183.08 112.22 183.99 113.04 184.31 C 113.85 184.62 114.76 184.22 115.07 183.41 Z M 115.43 182.47 L 115.81 181.52 C 116.13 180.71 115.73 179.79 114.91 179.47 C 114.10 179.16 113.19 179.56 112.87 180.37 L 112.50 181.32 C 112.18 182.14 112.58 183.05 113.39 183.37 C 114.20 183.68 115.12 183.28 115.43 182.47 Z M 115.81 181.52 L 116.19 180.55 C 116.52 179.74 116.12 178.82 115.31 178.50 C 114.50 178.18 113.58 178.57 113.26 179.38 L 112.87 180.36 C 112.55 181.17 112.95 182.09 113.76 182.41 C 114.57 182.73 115.48 182.33 115.81 181.52 Z M 116.19 180.55 L 116.55 179.67 C 116.87 178.86 116.48 177.94 115.67 177.62 C 114.86 177.29 113.94 177.68 113.62 178.49 L 113.26 179.37 C 112.94 180.18 113.33 181.10 114.14 181.43 C 114.95 181.75 115.87 181.36 116.19 180.55 Z M 116.55 179.68 L 116.91 178.78 C 117.24 177.97 116.85 177.05 116.05 176.72 C 115.24 176.39 114.32 176.78 113.99 177.59 L 113.62 178.48 C 113.29 179.29 113.68 180.22 114.49 180.54 C 115.30 180.87 116.22 180.49 116.55 179.68 Z M 116.91 178.79 L 117.29 177.87 C 117.62 177.07 117.24 176.14 116.43 175.81 C 115.62 175.47 114.70 175.86 114.36 176.67 L 113.99 177.58 C 113.65 178.39 114.04 179.31 114.85 179.65 C 115.65 179.98 116.58 179.59 116.91 178.79 Z M 117.29 177.88 L 117.67 176.95 C 118.01 176.15 117.63 175.22 116.82 174.88 C 116.02 174.55 115.09 174.93 114.75 175.73 L 114.37 176.66 C 114.03 177.47 114.41 178.39 115.22 178.73 C 116.02 179.07 116.95 178.69 117.29 177.88 Z M 117.67 176.96 L 118.07 176.02 C 118.41 175.22 118.03 174.29 117.23 173.94 C 116.42 173.60 115.49 173.98 115.15 174.79 L 114.75 175.73 C 114.41 176.53 114.79 177.46 115.60 177.80 C 116.40 178.14 117.33 177.77 117.67 176.96 Z M 118.07 176.03 L 118.48 175.08 C 118.82 174.27 118.45 173.34 117.64 173.00 C 116.83 172.65 115.90 173.03 115.56 173.83 L 115.15 174.78 C 114.81 175.59 115.18 176.52 115.99 176.86 C 116.79 177.21 117.72 176.84 118.07 176.03 Z M 118.47 175.09 L 118.88 174.14 C 119.23 173.34 118.86 172.40 118.06 172.05 C 117.25 171.70 116.32 172.07 115.97 172.88 L 115.56 173.83 C 115.21 174.63 115.58 175.57 116.39 175.91 C 117.19 176.26 118.13 175.89 118.47 175.09 Z M 118.88 174.15 L 119.27 173.26 C 119.62 172.45 119.25 171.52 118.45 171.17 C 117.65 170.81 116.71 171.18 116.36 171.98 L 115.97 172.87 C 115.62 173.68 115.98 174.62 116.79 174.97 C 117.59 175.32 118.53 174.95 118.88 174.15 Z M 119.27 173.26 L 119.66 172.37 C 120.02 171.56 119.65 170.63 118.85 170.27 C 118.05 169.92 117.11 170.28 116.76 171.08 L 116.36 171.98 C 116.01 172.78 116.37 173.72 117.17 174.07 C 117.97 174.43 118.91 174.07 119.27 173.26 Z M 119.66 172.37 L 120.06 171.47 C 120.42 170.67 120.06 169.73 119.26 169.37 C 118.46 169.01 117.52 169.37 117.16 170.17 L 116.76 171.08 C 116.40 171.88 116.76 172.82 117.56 173.17 C 118.36 173.53 119.30 173.17 119.66 172.37 Z M 120.06 171.47 L 120.47 170.56 C 120.83 169.76 120.48 168.82 119.68 168.46 C 118.88 168.10 117.94 168.46 117.58 169.26 L 117.17 170.17 C 116.81 170.97 117.16 171.91 117.96 172.27 C 118.76 172.63 119.70 172.27 120.06 171.47 Z M 120.47 170.57 L 120.89 169.65 C 121.25 168.85 120.90 167.91 120.10 167.55 C 119.30 167.18 118.36 167.53 118.00 168.33 L 117.58 169.25 C 117.22 170.05 117.57 170.99 118.37 171.35 C 119.17 171.72 120.11 171.36 120.47 170.57 Z M 120.88 169.65 L 121.31 168.73 C 121.68 167.93 121.33 166.99 120.53 166.62 C 119.73 166.26 118.79 166.61 118.43 167.40 L 118.00 168.33 C 117.63 169.12 117.98 170.07 118.78 170.43 C 119.58 170.80 120.52 170.45 120.88 169.65 Z M 121.31 168.73 L 121.74 167.80 C 122.11 167.00 121.76 166.06 120.97 165.69 C 120.17 165.32 119.23 165.67 118.86 166.46 L 118.43 167.40 C 118.06 168.19 118.41 169.14 119.20 169.50 C 120.00 169.87 120.94 169.53 121.31 168.73 Z M 121.74 167.80 L 122.15 166.91 C 122.52 166.12 122.18 165.18 121.39 164.81 C 120.59 164.44 119.65 164.78 119.28 165.57 L 118.86 166.46 C 118.49 167.25 118.83 168.20 119.63 168.57 C 120.42 168.94 121.37 168.60 121.74 167.80 Z M 122.15 166.92 L 122.56 166.04 C 122.94 165.25 122.60 164.30 121.80 163.93 C 121.01 163.56 120.07 163.90 119.69 164.69 L 119.28 165.57 C 118.91 166.36 119.25 167.30 120.04 167.68 C 120.83 168.05 121.78 167.71 122.15 166.92 Z M 122.56 166.04 L 122.98 165.16 C 123.36 164.37 123.02 163.42 122.23 163.05 C 121.44 162.67 120.49 163.01 120.12 163.80 L 119.70 164.69 C 119.32 165.48 119.66 166.42 120.45 166.80 C 121.24 167.17 122.19 166.84 122.56 166.04 Z M 122.98 165.16 L 123.41 164.27 C 123.78 163.48 123.45 162.53 122.66 162.15 C 121.87 161.78 120.92 162.11 120.54 162.90 L 120.12 163.80 C 119.74 164.59 120.08 165.53 120.87 165.91 C 121.66 166.29 122.60 165.95 122.98 165.16 Z M 123.40 164.27 L 123.84 163.37 C 124.21 162.58 123.88 161.63 123.09 161.25 C 122.30 160.87 121.35 161.21 120.98 162.00 L 120.54 162.90 C 120.17 163.69 120.50 164.64 121.29 165.02 C 122.08 165.39 123.03 165.06 123.40 164.27 Z M 123.84 163.37 L 124.27 162.46 C 124.65 161.67 124.32 160.72 123.53 160.34 C 122.74 159.96 121.79 160.29 121.41 161.08 L 120.98 162.00 C 120.60 162.79 120.93 163.73 121.72 164.11 C 122.51 164.49 123.46 164.16 123.84 163.37 Z M 124.27 162.46 L 124.72 161.53 C 125.10 160.75 124.77 159.80 123.98 159.42 C 123.19 159.04 122.24 159.37 121.86 160.16 L 121.42 161.08 C 121.04 161.87 121.37 162.82 122.16 163.20 C 122.95 163.58 123.89 163.25 124.27 162.46 Z M 124.72 161.54 L 125.17 160.60 C 125.55 159.81 125.22 158.86 124.43 158.48 C 123.64 158.10 122.69 158.43 122.31 159.22 L 121.86 160.16 C 121.48 160.95 121.81 161.90 122.60 162.28 C 123.39 162.66 124.34 162.32 124.72 161.54 Z M 125.17 160.60 L 125.60 159.69 C 125.99 158.91 125.65 157.96 124.87 157.58 C 124.08 157.20 123.13 157.53 122.75 158.32 L 122.31 159.22 C 121.93 160.01 122.26 160.96 123.05 161.34 C 123.84 161.72 124.79 161.39 125.17 160.60 Z M 125.60 159.69 L 126.04 158.79 C 126.42 158.00 126.09 157.06 125.30 156.67 C 124.51 156.29 123.57 156.62 123.18 157.41 L 122.75 158.32 C 122.37 159.10 122.70 160.05 123.49 160.43 C 124.28 160.81 125.22 160.48 125.60 159.69 Z M 126.04 158.79 L 126.48 157.88 C 126.86 157.10 126.53 156.15 125.74 155.77 C 124.95 155.39 124.01 155.72 123.62 156.50 L 123.18 157.41 C 122.80 158.20 123.13 159.15 123.92 159.53 C 124.71 159.91 125.66 159.58 126.04 158.79 Z M 126.48 157.89 L 126.92 156.98 C 127.30 156.19 126.97 155.24 126.18 154.86 C 125.40 154.48 124.45 154.81 124.07 155.59 L 123.62 156.50 C 123.24 157.29 123.57 158.24 124.36 158.62 C 125.15 159.00 126.10 158.67 126.48 157.89 Z M 126.92 156.98 L 127.36 156.07 C 127.74 155.28 127.41 154.33 126.63 153.95 C 125.84 153.57 124.89 153.90 124.51 154.68 L 124.07 155.59 C 123.68 156.38 124.01 157.33 124.80 157.71 C 125.59 158.09 126.54 157.77 126.92 156.98 Z M 127.36 156.07 L 127.80 155.17 C 128.18 154.38 127.86 153.43 127.07 153.05 C 126.28 152.66 125.33 152.99 124.95 153.78 L 124.51 154.68 C 124.12 155.47 124.45 156.42 125.24 156.80 C 126.03 157.19 126.98 156.86 127.36 156.07 Z M 127.80 155.17 L 128.24 154.27 C 128.62 153.49 128.30 152.54 127.51 152.15 C 126.72 151.77 125.77 152.09 125.39 152.88 L 124.95 153.77 C 124.57 154.56 124.89 155.51 125.68 155.90 C 126.46 156.28 127.41 155.96 127.80 155.17 Z M 128.24 154.27 L 128.67 153.39 C 129.06 152.60 128.74 151.65 127.95 151.27 C 127.16 150.88 126.21 151.20 125.83 151.99 L 125.39 152.88 C 125.00 153.66 125.33 154.61 126.11 155.00 C 126.90 155.38 127.85 155.06 128.24 154.27 Z M 128.67 153.39 L 129.11 152.50 C 129.50 151.72 129.18 150.77 128.39 150.38 C 127.61 149.99 126.66 150.31 126.27 151.10 L 125.83 151.99 C 125.44 152.77 125.76 153.72 126.55 154.11 C 127.33 154.50 128.28 154.18 128.67 153.39 Z M 129.11 152.51 L 129.57 151.58 C 129.96 150.80 129.64 149.84 128.86 149.45 C 128.07 149.06 127.12 149.38 126.73 150.17 L 126.27 151.09 C 125.88 151.88 126.20 152.83 126.98 153.22 C 127.77 153.61 128.72 153.29 129.11 152.51 Z M 129.57 151.58 L 130.02 150.67 C 130.42 149.89 130.10 148.94 129.32 148.54 C 128.53 148.15 127.58 148.47 127.19 149.25 L 126.73 150.16 C 126.34 150.95 126.66 151.90 127.44 152.29 C 128.22 152.68 129.18 152.37 129.57 151.58 Z M 130.02 150.68 L 130.47 149.78 C 130.87 149.00 130.55 148.04 129.77 147.65 C 128.99 147.26 128.04 147.57 127.64 148.35 L 127.19 149.25 C 126.80 150.03 127.11 150.98 127.89 151.38 C 128.68 151.77 129.63 151.46 130.02 150.68 Z M 130.47 149.78 L 130.92 148.89 C 131.32 148.11 131.01 147.16 130.22 146.76 C 129.44 146.37 128.49 146.68 128.09 147.46 L 127.65 148.35 C 127.25 149.13 127.56 150.08 128.34 150.48 C 129.12 150.87 130.08 150.56 130.47 149.78 Z M 130.92 148.90 L 131.37 148.02 C 131.76 147.24 131.45 146.28 130.67 145.89 C 129.89 145.49 128.94 145.80 128.54 146.58 L 128.10 147.46 C 127.70 148.24 128.01 149.19 128.79 149.59 C 129.57 149.99 130.52 149.68 130.92 148.90 Z M 131.37 148.02 L 131.81 147.15 C 132.21 146.37 131.90 145.41 131.12 145.01 C 130.34 144.62 129.39 144.93 128.99 145.70 L 128.54 146.58 C 128.15 147.36 128.46 148.31 129.23 148.71 C 130.01 149.11 130.97 148.80 131.37 148.02 Z M 131.81 147.15 L 132.26 146.28 C 132.66 145.50 132.35 144.54 131.57 144.14 C 130.79 143.74 129.84 144.05 129.44 144.83 L 128.99 145.70 C 128.59 146.48 128.90 147.44 129.68 147.84 C 130.46 148.23 131.41 147.93 131.81 147.15 Z M 132.26 146.28 L 132.71 145.40 C 133.11 144.62 132.80 143.67 132.03 143.27 C 131.25 142.87 130.29 143.17 129.89 143.95 L 129.44 144.83 C 129.04 145.61 129.35 146.56 130.13 146.96 C 130.90 147.36 131.86 147.06 132.26 146.28 Z M 132.71 145.40 L 133.17 144.51 C 133.57 143.74 133.26 142.78 132.48 142.38 C 131.71 141.98 130.75 142.29 130.35 143.06 L 129.89 143.95 C 129.49 144.73 129.80 145.68 130.58 146.08 C 131.35 146.48 132.31 146.18 132.71 145.40 Z M 133.17 144.51 L 133.62 143.63 C 134.02 142.85 133.72 141.89 132.94 141.49 C 132.16 141.09 131.21 141.40 130.81 142.18 L 130.35 143.06 C 129.95 143.84 130.25 144.80 131.03 145.20 C 131.81 145.60 132.76 145.29 133.17 144.51 Z M 133.62 143.63 L 134.08 142.74 C 134.48 141.96 134.18 141.00 133.40 140.60 C 132.62 140.20 131.67 140.51 131.27 141.29 L 130.81 142.18 C 130.41 142.95 130.71 143.91 131.49 144.31 C 132.27 144.71 133.22 144.40 133.62 143.63 Z M 134.08 142.73 L 134.54 141.84 C 134.94 141.06 134.63 140.11 133.85 139.71 C 133.07 139.31 132.12 139.62 131.72 140.40 L 131.26 141.29 C 130.87 142.07 131.17 143.02 131.95 143.42 C 132.73 143.82 133.68 143.51 134.08 142.73 Z M 134.54 141.84 L 135.00 140.95 C 135.39 140.17 135.08 139.22 134.31 138.82 C 133.53 138.42 132.57 138.73 132.18 139.51 L 131.72 140.40 C 131.32 141.18 131.63 142.13 132.41 142.53 C 133.19 142.93 134.14 142.62 134.54 141.84 Z M 135.00 140.94 L 135.45 140.05 C 135.85 139.27 135.53 138.32 134.76 137.92 C 133.98 137.53 133.02 137.84 132.63 138.62 L 132.17 139.51 C 131.78 140.29 132.09 141.24 132.87 141.64 C 133.65 142.03 134.60 141.72 135.00 140.94 Z M 135.45 140.05 L 135.90 139.15 C 136.30 138.37 135.98 137.42 135.20 137.03 C 134.42 136.64 133.47 136.95 133.08 137.73 L 132.63 138.62 C 132.23 139.40 132.55 140.36 133.33 140.75 C 134.11 141.14 135.06 140.83 135.45 140.05 Z M 135.90 139.15 L 136.35 138.25 C 136.74 137.47 136.42 136.52 135.64 136.13 C 134.86 135.74 133.91 136.06 133.52 136.84 L 133.07 137.74 C 132.68 138.52 133.00 139.47 133.78 139.86 C 134.56 140.25 135.51 139.93 135.90 139.15 Z M 136.35 138.24 L 136.80 137.34 C 137.19 136.56 136.86 135.61 136.08 135.23 C 135.30 134.84 134.35 135.16 133.96 135.94 L 133.52 136.84 C 133.13 137.63 133.45 138.57 134.24 138.96 C 135.02 139.35 135.97 139.03 136.35 138.24 Z M 136.80 137.34 L 137.24 136.44 C 137.63 135.65 137.30 134.71 136.52 134.32 C 135.73 133.94 134.79 134.26 134.40 135.05 L 133.96 135.95 C 133.58 136.73 133.90 137.68 134.69 138.06 C 135.47 138.45 136.42 138.12 136.80 137.34 Z M 137.24 136.43 L 137.68 135.53 C 138.06 134.75 137.73 133.80 136.95 133.42 C 136.16 133.04 135.22 133.37 134.84 134.15 L 134.40 135.05 C 134.02 135.84 134.35 136.78 135.13 137.16 C 135.92 137.54 136.86 137.22 137.24 136.43 Z M 137.68 135.53 L 138.11 134.63 C 138.49 133.84 138.16 132.90 137.38 132.52 C 136.59 132.14 135.65 132.47 135.27 133.26 L 134.84 134.16 C 134.46 134.94 134.79 135.89 135.57 136.27 C 136.36 136.64 137.30 136.31 137.68 135.53 Z M 138.12 134.62 L 138.55 133.72 C 138.92 132.94 138.59 132.00 137.80 131.62 C 137.02 131.24 136.08 131.58 135.70 132.36 L 135.27 133.26 C 134.89 134.05 135.23 134.99 136.01 135.37 C 136.80 135.74 137.74 135.41 138.12 134.62 Z M 138.55 133.72 L 138.97 132.82 C 139.35 132.03 139.01 131.09 138.23 130.72 C 137.44 130.35 136.50 130.68 136.13 131.47 L 135.70 132.37 C 135.33 133.15 135.66 134.09 136.45 134.47 C 137.23 134.84 138.17 134.51 138.55 133.72 Z M 138.97 132.82 L 139.40 131.91 C 139.77 131.13 139.44 130.19 138.65 129.82 C 137.86 129.45 136.92 129.78 136.55 130.57 L 136.13 131.47 C 135.75 132.26 136.09 133.20 136.88 133.57 C 137.66 133.94 138.60 133.60 138.97 132.82 Z M 139.40 131.91 L 139.83 130.99 C 140.20 130.21 139.86 129.27 139.08 128.90 C 138.29 128.53 137.35 128.87 136.98 129.66 L 136.55 130.57 C 136.18 131.36 136.52 132.30 137.31 132.67 C 138.09 133.04 139.03 132.70 139.40 131.91 Z M 139.83 130.99 L 140.26 130.07 C 140.63 129.29 140.29 128.35 139.50 127.98 C 138.71 127.62 137.78 127.96 137.41 128.74 L 136.98 129.66 C 136.62 130.45 136.96 131.38 137.74 131.75 C 138.53 132.12 139.46 131.78 139.83 130.99 Z M 140.26 130.07 L 140.68 129.15 C 141.05 128.37 140.71 127.43 139.92 127.07 C 139.13 126.70 138.20 127.05 137.83 127.83 L 137.41 128.75 C 137.05 129.53 137.39 130.47 138.17 130.83 C 138.96 131.20 139.89 130.86 140.26 130.07 Z M 140.68 129.15 L 141.10 128.24 C 141.47 127.45 141.12 126.52 140.33 126.16 C 139.55 125.80 138.62 126.14 138.25 126.93 L 137.83 127.84 C 137.47 128.62 137.82 129.56 138.60 129.92 C 139.39 130.28 140.32 129.94 140.68 129.15 Z M 141.10 128.23 L 141.52 127.33 C 141.88 126.54 141.53 125.61 140.74 125.25 C 139.96 124.89 139.03 125.24 138.67 126.02 L 138.25 126.93 C 137.89 127.72 138.24 128.65 139.03 129.01 C 139.81 129.37 140.74 129.02 141.10 128.23 Z M 141.52 127.32 L 141.93 126.42 C 142.29 125.63 141.94 124.70 141.15 124.35 C 140.36 123.99 139.43 124.34 139.08 125.12 L 138.67 126.03 C 138.31 126.82 138.66 127.74 139.45 128.10 C 140.23 128.46 141.16 128.11 141.52 127.32 Z M 141.93 126.41 L 142.33 125.51 C 142.69 124.73 142.33 123.80 141.55 123.45 C 140.76 123.09 139.83 123.45 139.48 124.23 L 139.08 125.13 C 138.72 125.92 139.07 126.84 139.86 127.20 C 140.65 127.55 141.57 127.20 141.93 126.41 Z M 142.33 125.51 L 142.74 124.59 C 143.09 123.81 142.74 122.88 141.95 122.53 C 141.16 122.18 140.24 122.54 139.89 123.32 L 139.48 124.24 C 139.13 125.03 139.48 125.95 140.27 126.30 C 141.06 126.65 141.98 126.30 142.33 125.51 Z M 142.74 124.59 L 143.15 123.66 C 143.50 122.87 143.14 121.95 142.35 121.60 C 141.56 121.25 140.64 121.61 140.29 122.40 L 139.89 123.33 C 139.54 124.12 139.89 125.04 140.68 125.39 C 141.47 125.74 142.39 125.38 142.74 124.59 Z M 143.15 123.66 L 143.56 122.73 C 143.90 121.94 143.54 121.02 142.75 120.68 C 141.96 120.33 141.04 120.69 140.70 121.48 L 140.29 122.41 C 139.95 123.20 140.31 124.12 141.10 124.46 C 141.89 124.81 142.81 124.45 143.15 123.66 Z M 143.56 122.73 L 143.96 121.81 C 144.30 121.02 143.94 120.10 143.15 119.76 C 142.36 119.42 141.44 119.78 141.09 120.57 L 140.69 121.49 C 140.35 122.28 140.71 123.20 141.50 123.54 C 142.30 123.88 143.21 123.52 143.56 122.73 Z M 143.96 121.81 L 144.35 120.90 C 144.69 120.11 144.33 119.19 143.54 118.84 C 142.75 118.50 141.83 118.87 141.49 119.66 L 141.09 120.57 C 140.75 121.36 141.11 122.28 141.91 122.62 C 142.70 122.97 143.62 122.60 143.96 121.81 Z M 144.35 120.89 L 144.74 119.98 C 145.09 119.19 144.72 118.27 143.93 117.93 C 143.14 117.59 142.22 117.96 141.88 118.75 L 141.48 119.66 C 141.14 120.45 141.51 121.37 142.30 121.71 C 143.09 122.05 144.01 121.69 144.35 120.89 Z M 144.75 119.98 L 145.14 119.07 C 145.47 118.28 145.11 117.36 144.32 117.02 C 143.52 116.68 142.61 117.05 142.27 117.84 L 141.88 118.75 C 141.54 119.54 141.90 120.46 142.70 120.80 C 143.49 121.14 144.41 120.78 144.75 119.98 Z M 145.14 119.07 L 145.54 118.14 C 145.88 117.35 145.51 116.43 144.72 116.09 C 143.92 115.75 143.01 116.12 142.67 116.91 L 142.27 117.84 C 141.93 118.64 142.29 119.55 143.09 119.89 C 143.88 120.23 144.80 119.87 145.14 119.07 Z M 145.54 118.14 L 145.95 117.16 C 146.29 116.37 145.93 115.45 145.13 115.11 C 144.34 114.77 143.42 115.14 143.08 115.93 L 142.67 116.91 C 142.33 117.70 142.69 118.62 143.49 118.96 C 144.28 119.30 145.20 118.93 145.54 118.14 Z M 145.95 117.16 L 146.37 116.20 C 146.71 115.41 146.34 114.49 145.55 114.15 C 144.75 113.81 143.84 114.18 143.50 114.97 L 143.08 115.93 C 142.74 116.73 143.11 117.64 143.90 117.98 C 144.70 118.32 145.61 117.96 145.95 117.16 Z M 146.37 116.20 L 146.77 115.25 C 147.11 114.46 146.74 113.54 145.95 113.20 C 145.16 112.86 144.24 113.23 143.90 114.02 L 143.50 114.97 C 143.16 115.76 143.53 116.68 144.32 117.02 C 145.11 117.36 146.03 116.99 146.37 116.20 Z M 146.77 115.25 L 147.16 114.33 C 147.50 113.54 147.14 112.62 146.34 112.28 C 145.55 111.95 144.63 112.31 144.29 113.11 L 143.90 114.02 C 143.56 114.82 143.93 115.73 144.72 116.07 C 145.52 116.41 146.43 116.04 146.77 115.25 Z M 147.16 114.33 L 147.54 113.45 C 147.88 112.66 147.51 111.74 146.72 111.40 C 145.93 111.06 145.01 111.43 144.67 112.22 L 144.29 113.11 C 143.95 113.90 144.32 114.82 145.12 115.16 C 145.91 115.49 146.83 115.13 147.16 114.33 Z M 147.54 113.45 L 147.90 112.61 C 148.24 111.82 147.87 110.90 147.07 110.56 C 146.28 110.22 145.36 110.59 145.03 111.39 L 144.67 112.23 C 144.33 113.02 144.70 113.94 145.49 114.27 C 146.29 114.61 147.20 114.24 147.54 113.45 Z M 147.90 112.61 L 148.33 111.60 C 148.66 110.81 148.29 109.89 147.50 109.56 C 146.71 109.22 145.79 109.59 145.45 110.38 L 145.03 111.39 C 144.69 112.18 145.06 113.10 145.85 113.44 C 146.65 113.77 147.56 113.40 147.90 112.61 Z M 148.33 111.60 L 148.75 110.60 C 149.09 109.81 148.71 108.89 147.92 108.55 C 147.12 108.22 146.21 108.59 145.87 109.39 L 145.45 110.39 C 145.12 111.18 145.49 112.10 146.28 112.43 C 147.08 112.77 147.99 112.39 148.33 111.60 Z M 148.75 110.60 L 149.14 109.68 C 149.47 108.88 149.10 107.97 148.30 107.63 C 147.51 107.30 146.59 107.67 146.26 108.47 L 145.87 109.39 C 145.54 110.18 145.91 111.10 146.71 111.43 C 147.50 111.77 148.42 111.39 148.75 110.60 Z M 149.14 109.67 L 149.49 108.82 C 149.83 108.02 149.45 107.11 148.65 106.78 C 147.86 106.45 146.94 106.82 146.61 107.62 L 146.26 108.47 C 145.92 109.27 146.30 110.18 147.10 110.51 C 147.89 110.85 148.81 110.47 149.14 109.67 Z M 149.50 108.82 L 149.83 108.01 C 150.16 107.21 149.78 106.30 148.98 105.97 C 148.18 105.64 147.27 106.02 146.94 106.82 L 146.61 107.62 C 146.28 108.42 146.66 109.33 147.46 109.66 C 148.25 109.99 149.17 109.61 149.50 108.82 Z M 149.83 108.01 L 150.21 107.08 C 150.53 106.28 150.15 105.37 149.36 105.05 C 148.56 104.72 147.65 105.10 147.32 105.90 L 146.94 106.82 C 146.61 107.62 146.99 108.53 147.79 108.86 C 148.59 109.19 149.50 108.81 149.83 108.01 Z M 150.21 107.09 L 150.58 106.18 C 150.91 105.38 150.53 104.47 149.73 104.14 C 148.94 103.81 148.02 104.19 147.69 104.99 L 147.32 105.89 C 146.99 106.69 147.37 107.60 148.17 107.93 C 148.96 108.26 149.88 107.88 150.21 107.09 Z M 150.57 106.20 L 150.96 105.29 C 151.30 104.49 150.93 103.58 150.14 103.24 C 149.34 102.90 148.43 103.27 148.09 104.06 L 147.70 104.97 C 147.36 105.77 147.73 106.68 148.53 107.02 C 149.32 107.36 150.24 106.99 150.57 106.20 Z M 150.95 105.31 L 151.37 104.37 C 151.72 103.59 151.37 102.66 150.58 102.31 C 149.79 101.96 148.87 102.31 148.52 103.10 L 148.10 104.04 C 147.75 104.83 148.10 105.75 148.89 106.10 C 149.68 106.45 150.60 106.10 150.95 105.31 Z M 151.36 104.40 L 151.78 103.49 C 152.15 102.71 151.81 101.78 151.03 101.41 C 150.25 101.05 149.32 101.38 148.96 102.16 L 148.53 103.07 C 148.16 103.85 148.50 104.78 149.28 105.15 C 150.06 105.52 150.99 105.18 151.36 104.40 Z M 151.77 103.52 L 152.23 102.60 C 152.61 101.82 152.29 100.89 151.52 100.50 C 150.75 100.12 149.81 100.44 149.43 101.21 L 148.97 102.13 C 148.59 102.91 148.91 103.84 149.68 104.23 C 150.45 104.61 151.39 104.29 151.77 103.52 Z M 152.21 102.63 L 152.68 101.73 C 153.08 100.97 152.79 100.02 152.02 99.62 C 151.26 99.22 150.32 99.51 149.92 100.28 L 149.44 101.18 C 149.04 101.94 149.34 102.89 150.10 103.29 C 150.87 103.69 151.81 103.39 152.21 102.63 Z M 152.66 101.77 L 153.13 100.93 C 153.56 100.18 153.29 99.23 152.54 98.80 C 151.79 98.38 150.84 98.65 150.41 99.40 L 149.94 100.24 C 149.52 100.99 149.78 101.94 150.53 102.36 C 151.28 102.79 152.24 102.52 152.66 101.77 Z M 153.09 101.00 L 153.68 100.07 C 154.14 99.34 153.92 98.38 153.19 97.92 C 152.47 97.46 151.50 97.67 151.04 98.40 L 150.45 99.33 C 149.99 100.06 150.21 101.02 150.94 101.48 C 151.67 101.94 152.63 101.73 153.09 101.00 Z M 153.58 100.21 L 154.21 99.42 C 154.75 98.74 154.63 97.76 153.96 97.22 C 153.28 96.69 152.30 96.80 151.76 97.48 L 151.14 98.27 C 150.60 98.94 150.71 99.93 151.39 100.46 C 152.06 101.00 153.05 100.88 153.58 100.21 Z M 154.02 99.62 L 154.71 99.01 C 155.35 98.45 155.42 97.46 154.85 96.81 C 154.28 96.16 153.29 96.10 152.65 96.67 L 151.96 97.27 C 151.31 97.84 151.25 98.83 151.81 99.48 C 152.38 100.12 153.37 100.19 154.02 99.62 Z M 154.39 99.23 L 155.23 98.80 C 156.00 98.41 156.30 97.46 155.91 96.70 C 155.52 95.93 154.58 95.63 153.81 96.02 L 152.96 96.45 C 152.20 96.84 151.89 97.79 152.29 98.55 C 152.68 99.32 153.62 99.62 154.39 99.23 Z M 154.85 98.93 L 155.83 98.72 C 156.67 98.54 157.21 97.71 157.03 96.87 C 156.84 96.03 156.01 95.49 155.17 95.67 L 154.19 95.88 C 153.35 96.06 152.81 96.90 153.00 97.74 C 153.18 98.58 154.01 99.12 154.85 98.93 Z M 155.42 98.76 L 156.42 98.80 C 157.28 98.85 158.02 98.18 158.06 97.32 C 158.10 96.46 157.43 95.73 156.57 95.69 L 155.57 95.64 C 154.71 95.60 153.98 96.26 153.94 97.12 C 153.90 97.98 154.56 98.72 155.42 98.76 Z M 156.00 98.73 L 156.90 99.02 C 157.72 99.30 158.60 98.85 158.87 98.04 C 159.15 97.22 158.70 96.33 157.88 96.06 L 156.99 95.76 C 156.17 95.49 155.29 95.93 155.02 96.75 C 154.74 97.57 155.19 98.45 156.00 98.73 Z M 156.55 98.86 L 157.36 99.37 C 158.08 99.84 159.05 99.62 159.51 98.90 C 159.98 98.17 159.76 97.21 159.04 96.74 L 158.23 96.23 C 157.50 95.76 156.54 95.98 156.08 96.70 C 155.61 97.43 155.82 98.40 156.55 98.86 Z M 157.14 99.20 L 157.90 99.91 C 158.53 100.49 159.52 100.46 160.10 99.82 C 160.69 99.19 160.65 98.20 160.02 97.62 L 159.26 96.91 C 158.63 96.33 157.64 96.36 157.05 97.00 C 156.47 97.63 156.50 98.62 157.14 99.20 Z M 157.78 99.78 L 158.41 100.52 C 158.97 101.17 159.96 101.24 160.61 100.68 C 161.26 100.12 161.34 99.13 160.77 98.48 L 160.14 97.74 C 159.58 97.09 158.59 97.02 157.94 97.58 C 157.29 98.14 157.21 99.13 157.78 99.78 Z M 158.34 100.43 L 158.87 101.15 C 159.39 101.84 160.36 101.98 161.06 101.47 C 161.75 100.95 161.89 99.97 161.38 99.28 L 160.84 98.57 C 160.33 97.87 159.35 97.73 158.66 98.25 C 157.97 98.76 157.82 99.74 158.34 100.43 Z M 158.82 101.07 L 159.36 101.89 C 159.83 102.61 160.80 102.81 161.52 102.33 C 162.24 101.86 162.44 100.89 161.96 100.17 L 161.43 99.36 C 160.95 98.64 159.99 98.44 159.27 98.91 C 158.55 99.38 158.35 100.35 158.82 101.07 Z M 159.32 101.82 L 159.86 102.75 C 160.30 103.49 161.26 103.74 162.00 103.30 C 162.74 102.86 162.99 101.90 162.55 101.16 L 162.01 100.24 C 161.57 99.49 160.61 99.25 159.87 99.68 C 159.13 100.12 158.88 101.08 159.32 101.82 Z M 159.83 102.69 L 160.36 103.68 C 160.77 104.44 161.72 104.73 162.48 104.32 C 163.24 103.92 163.52 102.97 163.11 102.21 L 162.58 101.22 C 162.17 100.46 161.23 100.17 160.47 100.58 C 159.71 100.98 159.42 101.93 159.83 102.69 Z M 160.34 103.64 L 160.77 104.51 C 161.16 105.28 162.10 105.59 162.87 105.21 C 163.64 104.82 163.95 103.88 163.57 103.11 L 163.13 102.25 C 162.75 101.48 161.81 101.16 161.04 101.55 C 160.27 101.94 159.96 102.87 160.34 103.64 Z M 160.76 104.48 L 161.19 105.39 C 161.56 106.17 162.49 106.50 163.27 106.13 C 164.05 105.76 164.38 104.83 164.01 104.05 L 163.58 103.14 C 163.21 102.36 162.28 102.03 161.50 102.40 C 160.72 102.77 160.39 103.70 160.76 104.48 Z M 161.18 105.36 L 161.60 106.30 C 161.96 107.09 162.88 107.44 163.67 107.08 C 164.45 106.73 164.80 105.80 164.45 105.02 L 164.02 104.08 C 163.67 103.29 162.74 102.94 161.96 103.30 C 161.17 103.65 160.82 104.58 161.18 105.36 Z M 161.59 106.28 L 162.00 107.22 C 162.34 108.01 163.26 108.38 164.05 108.04 C 164.84 107.70 165.21 106.78 164.87 105.99 L 164.46 105.04 C 164.12 104.25 163.20 103.88 162.41 104.23 C 161.62 104.57 161.25 105.49 161.59 106.28 Z M 161.99 107.20 L 162.37 108.13 C 162.70 108.92 163.61 109.30 164.41 108.97 C 165.21 108.65 165.59 107.73 165.26 106.94 L 164.88 106.01 C 164.55 105.21 163.64 104.83 162.84 105.16 C 162.04 105.49 161.66 106.40 161.99 107.20 Z M 162.36 108.10 L 162.73 109.04 C 163.04 109.84 163.95 110.24 164.75 109.93 C 165.55 109.61 165.95 108.71 165.64 107.91 L 165.27 106.96 C 164.96 106.16 164.05 105.76 163.25 106.08 C 162.44 106.39 162.05 107.29 162.36 108.10 Z M 162.71 109.01 L 163.07 109.97 C 163.36 110.79 164.26 111.20 165.07 110.91 C 165.88 110.61 166.30 109.71 166.00 108.90 L 165.65 107.94 C 165.36 107.13 164.46 106.71 163.65 107.00 C 162.83 107.30 162.42 108.20 162.71 109.01 Z M 163.05 109.94 L 163.37 110.87 C 163.65 111.69 164.54 112.13 165.35 111.85 C 166.17 111.57 166.61 110.68 166.33 109.87 L 166.02 108.93 C 165.74 108.11 164.85 107.68 164.03 107.95 C 163.21 108.23 162.77 109.12 163.05 109.94 Z M 163.35 110.84 L 163.65 111.77 C 163.91 112.59 164.79 113.05 165.61 112.79 C 166.44 112.53 166.90 111.65 166.64 110.82 L 166.35 109.90 C 166.09 109.07 165.21 108.61 164.38 108.87 C 163.55 109.13 163.09 110.01 163.35 110.84 Z M 163.64 111.74 L 163.91 112.68 C 164.16 113.51 165.03 113.99 165.87 113.74 C 166.70 113.50 167.17 112.62 166.93 111.79 L 166.65 110.85 C 166.40 110.02 165.53 109.54 164.70 109.79 C 163.86 110.03 163.39 110.91 163.64 111.74 Z M 163.91 112.66 L 164.17 113.60 C 164.40 114.43 165.27 114.92 166.11 114.69 C 166.95 114.45 167.44 113.58 167.20 112.74 L 166.94 111.81 C 166.70 110.97 165.83 110.48 164.99 110.72 C 164.16 110.96 163.67 111.82 163.91 112.66 Z M 164.16 113.58 L 164.41 114.49 C 164.64 115.33 165.50 115.83 166.34 115.60 C 167.18 115.37 167.68 114.50 167.45 113.66 L 167.21 112.76 C 166.98 111.92 166.11 111.42 165.27 111.65 C 164.43 111.88 163.93 112.74 164.16 113.58 Z M 164.40 114.48 L 164.65 115.42 C 164.88 116.26 165.74 116.77 166.58 116.54 C 167.43 116.32 167.93 115.46 167.71 114.61 L 167.46 113.67 C 167.23 112.83 166.37 112.33 165.53 112.55 C 164.68 112.77 164.18 113.64 164.40 114.48 Z M 164.65 115.41 L 164.90 116.39 C 165.12 117.23 165.98 117.74 166.83 117.52 C 167.67 117.31 168.18 116.44 167.96 115.60 L 167.71 114.62 C 167.49 113.78 166.63 113.27 165.79 113.49 C 164.94 113.71 164.43 114.57 164.65 115.41 Z M 164.90 116.38 L 165.15 117.38 C 165.36 118.23 166.22 118.75 167.07 118.53 C 167.92 118.32 168.43 117.46 168.22 116.61 L 167.97 115.61 C 167.75 114.76 166.89 114.25 166.04 114.46 C 165.20 114.67 164.68 115.53 164.90 116.38 Z M 165.15 117.38 L 165.40 118.40 C 165.61 119.25 166.47 119.77 167.32 119.56 C 168.17 119.35 168.69 118.49 168.48 117.64 L 168.22 116.62 C 168.01 115.77 167.15 115.25 166.30 115.46 C 165.45 115.67 164.94 116.53 165.15 117.38 Z M 165.40 118.40 L 165.63 119.36 C 165.84 120.21 166.70 120.74 167.55 120.53 C 168.40 120.32 168.92 119.46 168.71 118.61 L 168.48 117.65 C 168.27 116.80 167.41 116.27 166.56 116.48 C 165.71 116.69 165.19 117.55 165.40 118.40 Z M 165.63 119.36 L 165.86 120.30 C 166.06 121.15 166.92 121.68 167.77 121.47 C 168.62 121.27 169.15 120.41 168.94 119.56 L 168.72 118.62 C 168.51 117.76 167.66 117.24 166.80 117.44 C 165.95 117.65 165.42 118.51 165.63 119.36 Z M 165.85 120.29 L 166.08 121.25 C 166.28 122.10 167.14 122.63 167.99 122.43 C 168.85 122.23 169.37 121.37 169.17 120.51 L 168.95 119.56 C 168.75 118.71 167.89 118.18 167.03 118.38 C 166.18 118.58 165.65 119.44 165.85 120.29 Z M 166.07 121.24 L 166.30 122.21 C 166.50 123.07 167.35 123.60 168.21 123.40 C 169.07 123.20 169.60 122.35 169.40 121.49 L 169.18 120.52 C 168.98 119.66 168.12 119.13 167.26 119.33 C 166.41 119.53 165.87 120.38 166.07 121.24 Z M 166.30 122.21 L 166.52 123.19 C 166.72 124.05 167.57 124.59 168.43 124.39 C 169.29 124.20 169.83 123.34 169.63 122.48 L 169.41 121.50 C 169.21 120.64 168.35 120.10 167.50 120.30 C 166.64 120.49 166.10 121.35 166.30 122.21 Z M 166.52 123.19 L 166.74 124.20 C 166.94 125.06 167.79 125.60 168.65 125.41 C 169.51 125.21 170.05 124.36 169.86 123.50 L 169.63 122.49 C 169.44 121.63 168.59 121.09 167.73 121.28 C 166.87 121.47 166.32 122.33 166.52 123.19 Z M 166.74 124.19 L 166.96 125.20 C 167.15 126.06 168.00 126.60 168.86 126.42 C 169.73 126.23 170.27 125.37 170.08 124.51 L 169.86 123.51 C 169.67 122.64 168.82 122.10 167.96 122.29 C 167.10 122.47 166.55 123.33 166.74 124.19 Z M 166.96 125.19 L 167.16 126.12 C 167.34 126.98 168.19 127.53 169.06 127.35 C 169.92 127.16 170.47 126.31 170.29 125.45 L 170.09 124.52 C 169.90 123.65 169.05 123.10 168.19 123.29 C 167.32 123.47 166.77 124.33 166.96 125.19 Z M 167.15 126.12 L 167.36 127.06 C 167.54 127.93 168.39 128.48 169.25 128.30 C 170.12 128.12 170.67 127.27 170.49 126.40 L 170.29 125.45 C 170.11 124.59 169.26 124.03 168.39 124.22 C 167.52 124.40 166.97 125.25 167.15 126.12 Z M 167.35 127.06 L 167.55 128.02 C 167.74 128.89 168.58 129.45 169.45 129.27 C 170.32 129.08 170.87 128.24 170.69 127.37 L 170.49 126.40 C 170.31 125.54 169.46 124.98 168.60 125.16 C 167.73 125.34 167.17 126.19 167.35 127.06 Z M 167.55 128.02 L 167.75 129.00 C 167.93 129.87 168.78 130.43 169.65 130.25 C 170.52 130.07 171.08 129.22 170.90 128.35 L 170.70 127.37 C 170.52 126.50 169.67 125.95 168.80 126.12 C 167.93 126.30 167.37 127.15 167.55 128.02 Z M 167.75 129.00 L 167.96 130.00 C 168.13 130.86 168.98 131.42 169.85 131.25 C 170.72 131.07 171.28 130.22 171.10 129.35 L 170.90 128.36 C 170.72 127.49 169.87 126.93 169.00 127.10 C 168.14 127.28 167.58 128.13 167.75 129.00 Z M 167.96 129.99 L 168.16 131.01 C 168.34 131.88 169.19 132.44 170.06 132.26 C 170.93 132.08 171.49 131.24 171.31 130.37 L 171.10 129.35 C 170.93 128.48 170.08 127.92 169.21 128.10 C 168.34 128.28 167.78 129.12 167.96 129.99 Z M 168.16 131.00 L 168.37 132.03 C 168.54 132.90 169.39 133.47 170.26 133.29 C 171.13 133.11 171.70 132.27 171.52 131.40 L 171.31 130.37 C 171.14 129.50 170.29 128.93 169.42 129.11 C 168.55 129.29 167.98 130.13 168.16 131.00 Z M 168.37 132.03 L 168.56 132.98 C 168.73 133.86 169.58 134.42 170.45 134.24 C 171.32 134.07 171.89 133.22 171.71 132.35 L 171.52 131.40 C 171.35 130.52 170.50 129.96 169.63 130.14 C 168.75 130.31 168.19 131.16 168.37 132.03 Z M 168.56 132.98 L 168.75 133.94 C 168.92 134.81 169.77 135.38 170.65 135.20 C 171.52 135.03 172.08 134.18 171.91 133.30 L 171.71 132.35 C 171.54 131.48 170.69 130.91 169.82 131.09 C 168.95 131.26 168.38 132.11 168.56 132.98 Z M 168.75 133.94 L 168.94 134.91 C 169.12 135.78 169.97 136.35 170.84 136.17 C 171.71 135.99 172.28 135.14 172.10 134.27 L 171.91 133.30 C 171.73 132.43 170.88 131.87 170.01 132.04 C 169.14 132.22 168.57 133.07 168.75 133.94 Z M 168.94 134.91 L 169.14 135.88 C 169.31 136.76 170.16 137.32 171.04 137.15 C 171.91 136.97 172.48 136.12 172.30 135.25 L 172.10 134.27 C 171.93 133.40 171.08 132.83 170.20 133.01 C 169.33 133.18 168.76 134.03 168.94 134.91 Z M 169.13 135.88 L 169.33 136.87 C 169.51 137.74 170.36 138.31 171.24 138.14 C 172.11 137.96 172.68 137.11 172.50 136.23 L 172.30 135.25 C 172.13 134.37 171.27 133.80 170.40 133.98 C 169.52 134.16 168.96 135.01 169.13 135.88 Z M 169.33 136.87 L 169.53 137.87 C 169.71 138.74 170.56 139.31 171.44 139.13 C 172.31 138.95 172.88 138.10 172.70 137.23 L 172.50 136.23 C 172.33 135.36 171.47 134.79 170.60 134.97 C 169.72 135.14 169.15 135.99 169.33 136.87 Z M 169.53 137.87 L 169.73 138.87 C 169.91 139.74 170.76 140.31 171.64 140.13 C 172.52 139.96 173.08 139.10 172.91 138.23 L 172.70 137.22 C 172.53 136.35 171.67 135.78 170.80 135.96 C 169.92 136.14 169.35 136.99 169.53 137.87 Z M 169.73 138.87 L 169.94 139.88 C 170.11 140.76 170.97 141.32 171.85 141.15 C 172.72 140.97 173.29 140.11 173.11 139.23 L 172.91 138.23 C 172.73 137.35 171.88 136.78 171.00 136.96 C 170.12 137.14 169.55 137.99 169.73 138.87 Z M 169.93 139.88 L 170.13 140.84 C 170.31 141.72 171.17 142.29 172.04 142.11 C 172.92 141.93 173.49 141.08 173.31 140.20 L 173.11 139.23 C 172.94 138.36 172.08 137.79 171.20 137.97 C 170.32 138.15 169.76 139.00 169.93 139.88 Z M 170.13 140.85 L 170.33 141.81 C 170.51 142.68 171.36 143.25 172.24 143.07 C 173.12 142.89 173.69 142.04 173.51 141.16 L 173.31 140.20 C 173.13 139.32 172.27 138.75 171.40 138.93 C 170.52 139.11 169.95 139.97 170.13 140.85 Z M 170.33 141.81 L 170.52 142.77 C 170.70 143.65 171.56 144.22 172.44 144.04 C 173.32 143.86 173.88 143.00 173.70 142.13 L 173.51 141.16 C 173.33 140.28 172.47 139.71 171.59 139.89 C 170.71 140.07 170.15 140.93 170.33 141.81 Z M 170.52 142.77 L 170.72 143.75 C 170.90 144.63 171.76 145.19 172.64 145.01 C 173.52 144.83 174.08 143.98 173.90 143.10 L 173.70 142.13 C 173.52 141.25 172.67 140.68 171.79 140.86 C 170.91 141.04 170.35 141.90 170.52 142.77 Z M 170.72 143.75 L 170.92 144.73 C 171.10 145.61 171.96 146.17 172.84 145.99 C 173.71 145.81 174.28 144.96 174.10 144.08 L 173.90 143.10 C 173.72 142.22 172.87 141.66 171.99 141.83 C 171.11 142.01 170.54 142.87 170.72 143.75 Z M 170.92 144.73 L 171.12 145.71 C 171.30 146.59 172.16 147.16 173.04 146.98 C 173.91 146.80 174.48 145.94 174.30 145.07 L 174.10 144.08 C 173.92 143.20 173.07 142.64 172.19 142.81 C 171.31 142.99 170.74 143.85 170.92 144.73 Z M 171.12 145.71 L 171.32 146.71 C 171.50 147.58 172.36 148.15 173.24 147.97 C 174.11 147.80 174.68 146.94 174.50 146.06 L 174.30 145.07 C 174.13 144.19 173.27 143.62 172.39 143.80 C 171.51 143.98 170.95 144.83 171.12 145.71 Z M 171.32 146.70 L 171.53 147.70 C 171.70 148.58 172.56 149.15 173.44 148.97 C 174.31 148.80 174.88 147.94 174.71 147.06 L 174.50 146.06 C 174.33 145.18 173.47 144.62 172.59 144.79 C 171.72 144.97 171.15 145.83 171.32 146.70 Z M 171.52 147.70 L 171.72 148.68 C 171.90 149.56 172.75 150.13 173.63 149.95 C 174.51 149.78 175.08 148.92 174.90 148.04 L 174.71 147.06 C 174.53 146.19 173.68 145.62 172.80 145.79 C 171.92 145.97 171.35 146.82 171.52 147.70 Z M 171.72 148.68 L 171.91 149.61 C 172.08 150.49 172.93 151.06 173.81 150.88 C 174.69 150.71 175.26 149.85 175.09 148.97 L 174.90 148.05 C 174.73 147.17 173.87 146.60 173.00 146.77 C 172.12 146.95 171.55 147.80 171.72 148.68 Z M 171.90 149.60 L 172.09 150.54 C 172.26 151.42 173.12 151.99 174.00 151.82 C 174.87 151.64 175.45 150.79 175.27 149.91 L 175.09 148.98 C 174.91 148.10 174.06 147.52 173.18 147.70 C 172.30 147.87 171.73 148.72 171.90 149.60 Z M 172.09 150.54 L 172.27 151.48 C 172.45 152.36 173.30 152.94 174.18 152.76 C 175.06 152.59 175.63 151.74 175.46 150.86 L 175.27 149.91 C 175.10 149.03 174.25 148.46 173.37 148.63 C 172.49 148.81 171.92 149.66 172.09 150.54 Z M 172.27 151.48 L 172.46 152.44 C 172.63 153.32 173.48 153.90 174.36 153.72 C 175.24 153.55 175.82 152.70 175.65 151.82 L 175.46 150.86 C 175.29 149.98 174.44 149.41 173.56 149.58 C 172.68 149.75 172.10 150.60 172.27 151.48 Z M 172.46 152.44 L 172.65 153.41 C 172.82 154.29 173.67 154.87 174.55 154.70 C 175.43 154.53 176.00 153.68 175.83 152.80 L 175.65 151.83 C 175.48 150.95 174.63 150.37 173.75 150.54 C 172.87 150.71 172.29 151.56 172.46 152.44 Z M 172.65 153.41 L 172.84 154.41 C 173.00 155.29 173.85 155.86 174.73 155.70 C 175.61 155.53 176.19 154.68 176.02 153.80 L 175.83 152.80 C 175.67 151.92 174.82 151.35 173.94 151.51 C 173.06 151.68 172.48 152.53 172.65 153.41 Z M 172.84 154.40 L 173.03 155.42 C 173.19 156.30 174.04 156.88 174.92 156.71 C 175.80 156.54 176.38 155.69 176.22 154.81 L 176.02 153.80 C 175.86 152.92 175.01 152.34 174.13 152.51 C 173.25 152.67 172.67 153.52 172.84 154.40 Z M 173.03 155.41 L 173.22 156.45 C 173.39 157.33 174.23 157.91 175.11 157.75 C 175.99 157.58 176.57 156.73 176.41 155.85 L 176.22 154.82 C 176.05 153.94 175.20 153.36 174.32 153.52 C 173.44 153.69 172.86 154.53 173.03 155.41 Z M 173.22 156.45 L 173.42 157.51 C 173.58 158.39 174.43 158.97 175.31 158.81 C 176.19 158.65 176.77 157.80 176.61 156.92 L 176.41 155.86 C 176.25 154.98 175.40 154.39 174.52 154.56 C 173.64 154.72 173.06 155.57 173.22 156.45 Z M 173.42 157.51 L 173.59 158.45 C 173.75 159.34 174.60 159.92 175.48 159.76 C 176.36 159.60 176.94 158.75 176.78 157.87 L 176.61 156.92 C 176.45 156.04 175.60 155.46 174.72 155.62 C 173.84 155.78 173.25 156.63 173.42 157.51 Z M 173.59 158.45 L 173.76 159.41 C 173.92 160.29 174.77 160.87 175.65 160.71 C 176.53 160.55 177.12 159.71 176.96 158.83 L 176.78 157.87 C 176.62 156.99 175.78 156.41 174.90 156.57 C 174.01 156.73 173.43 157.57 173.59 158.45 Z M 173.76 159.41 L 173.94 160.38 C 174.10 161.26 174.94 161.84 175.82 161.68 C 176.70 161.53 177.29 160.68 177.13 159.80 L 176.96 158.83 C 176.80 157.95 175.95 157.36 175.07 157.52 C 174.19 157.68 173.60 158.52 173.76 159.41 Z M 173.94 160.37 L 174.11 161.36 C 174.27 162.24 175.11 162.83 176.00 162.67 C 176.88 162.51 177.46 161.67 177.31 160.79 L 177.13 159.80 C 176.97 158.92 176.13 158.33 175.25 158.49 C 174.37 158.65 173.78 159.49 173.94 160.37 Z M 174.11 161.35 L 174.29 162.35 C 174.45 163.23 175.29 163.82 176.17 163.66 C 177.05 163.50 177.64 162.66 177.48 161.78 L 177.31 160.79 C 177.15 159.91 176.31 159.32 175.43 159.47 C 174.55 159.63 173.96 160.47 174.11 161.35 Z M 174.29 162.34 L 174.47 163.34 C 174.62 164.22 175.46 164.81 176.34 164.66 C 177.23 164.50 177.81 163.66 177.66 162.78 L 177.48 161.78 C 177.33 160.90 176.49 160.31 175.61 160.47 C 174.72 160.62 174.14 161.46 174.29 162.34 Z M 174.47 163.34 L 174.64 164.34 C 174.79 165.22 175.63 165.81 176.52 165.66 C 177.40 165.51 177.99 164.67 177.83 163.79 L 177.66 162.78 C 177.51 161.90 176.67 161.31 175.78 161.47 C 174.90 161.62 174.31 162.46 174.47 163.34 Z M 174.64 164.34 L 174.81 165.34 C 174.97 166.23 175.81 166.82 176.69 166.66 C 177.57 166.51 178.16 165.67 178.01 164.79 L 177.83 163.79 C 177.68 162.91 176.84 162.31 175.96 162.47 C 175.08 162.62 174.49 163.46 174.64 164.34 Z M 174.81 165.34 L 174.99 166.34 C 175.14 167.22 175.97 167.82 176.86 167.67 C 177.74 167.51 178.33 166.68 178.18 165.79 L 178.01 164.79 C 177.86 163.91 177.02 163.32 176.14 163.47 C 175.26 163.62 174.66 164.46 174.81 165.34 Z M 174.99 166.34 L 175.15 167.34 C 175.30 168.22 176.14 168.81 177.02 168.66 C 177.91 168.51 178.50 167.68 178.35 166.79 L 178.18 165.80 C 178.03 164.91 177.19 164.32 176.31 164.47 C 175.43 164.62 174.84 165.46 174.99 166.34 Z M 175.15 167.33 L 175.32 168.33 C 175.47 169.21 176.31 169.80 177.19 169.65 C 178.07 169.51 178.67 168.67 178.52 167.79 L 178.35 166.80 C 178.20 165.91 177.37 165.32 176.48 165.47 C 175.60 165.62 175.01 166.45 175.15 167.33 Z M 175.32 168.32 L 175.49 169.34 C 175.64 170.23 176.47 170.82 177.36 170.68 C 178.24 170.53 178.83 169.69 178.69 168.81 L 178.52 167.79 C 178.37 166.91 177.54 166.31 176.65 166.46 C 175.77 166.61 175.17 167.44 175.32 168.32 Z M 175.49 169.34 L 175.66 170.35 C 175.80 171.24 176.64 171.83 177.52 171.69 C 178.40 171.54 179.00 170.71 178.85 169.83 L 178.69 168.82 C 178.54 167.93 177.71 167.34 176.83 167.48 C 175.94 167.63 175.35 168.46 175.49 169.34 Z M 175.66 170.35 L 175.82 171.35 C 175.97 172.24 176.80 172.83 177.68 172.69 C 178.56 172.55 179.16 171.71 179.02 170.83 L 178.85 169.83 C 178.71 168.95 177.88 168.35 177.00 168.49 C 176.11 168.64 175.51 169.47 175.66 170.35 Z M 175.82 171.35 L 175.98 172.35 C 176.13 173.23 176.96 173.83 177.84 173.68 C 178.72 173.54 179.32 172.71 179.18 171.83 L 179.02 170.83 C 178.88 169.95 178.04 169.35 177.16 169.49 C 176.28 169.64 175.68 170.47 175.82 171.35 Z M 175.98 172.34 L 176.14 173.33 C 176.28 174.21 177.11 174.81 177.99 174.67 C 178.88 174.53 179.48 173.70 179.34 172.82 L 179.18 171.83 C 179.04 170.95 178.21 170.35 177.33 170.49 C 176.44 170.63 175.84 171.46 175.98 172.34 Z M 176.14 173.33 L 176.30 174.31 C 176.44 175.19 177.26 175.79 178.15 175.65 C 179.03 175.51 179.63 174.68 179.49 173.80 L 179.34 172.82 C 179.20 171.94 178.37 171.34 177.49 171.48 C 176.60 171.62 176.00 172.45 176.14 173.33 Z M 176.30 174.31 L 176.45 175.28 C 176.59 176.16 177.42 176.77 178.30 176.63 C 179.18 176.49 179.78 175.66 179.64 174.78 L 179.49 173.80 C 179.35 172.92 178.53 172.32 177.64 172.46 C 176.76 172.60 176.16 173.42 176.30 174.31 Z M 176.45 175.28 L 176.60 176.25 C 176.74 177.13 177.56 177.74 178.45 177.60 C 179.33 177.46 179.93 176.64 179.80 175.75 L 179.64 174.78 C 179.51 173.90 178.68 173.30 177.80 173.43 C 176.92 173.57 176.31 174.40 176.45 175.28 Z M 176.60 176.25 L 176.75 177.22 C 176.89 178.10 177.71 178.70 178.59 178.57 C 179.48 178.43 180.08 177.61 179.95 176.72 L 179.80 175.76 C 179.66 174.87 178.83 174.27 177.95 174.40 C 177.07 174.54 176.46 175.37 176.60 176.25 Z M 176.75 177.21 L 176.90 178.18 C 177.03 179.06 177.86 179.67 178.74 179.53 C 179.62 179.40 180.23 178.57 180.09 177.69 L 179.95 176.73 C 179.81 175.84 178.99 175.24 178.10 175.37 C 177.22 175.51 176.62 176.33 176.75 177.21 Z M 176.90 178.18 L 177.05 179.17 C 177.18 180.05 178.01 180.66 178.89 180.52 C 179.77 180.39 180.38 179.56 180.24 178.68 L 180.09 177.69 C 179.96 176.81 179.13 176.20 178.25 176.34 C 177.37 176.47 176.76 177.30 176.90 178.18 Z M 177.05 179.17 L 177.20 180.16 C 177.33 181.05 178.16 181.65 179.04 181.52 C 179.92 181.39 180.53 180.56 180.39 179.68 L 180.24 178.68 C 180.11 177.80 179.29 177.19 178.40 177.33 C 177.52 177.46 176.92 178.28 177.05 179.17 Z M 177.20 180.16 L 177.35 181.16 C 177.48 182.04 178.30 182.65 179.19 182.52 C 180.07 182.38 180.68 181.56 180.54 180.68 L 180.39 179.68 C 180.26 178.80 179.44 178.19 178.56 178.33 C 177.68 178.46 177.07 179.28 177.20 180.16 Z M 177.35 181.16 L 177.50 182.15 C 177.63 183.03 178.45 183.64 179.33 183.51 C 180.21 183.38 180.82 182.56 180.69 181.68 L 180.54 180.68 C 180.41 179.80 179.59 179.19 178.71 179.32 C 177.83 179.45 177.22 180.28 177.35 181.16 Z M 177.50 182.15 L 177.64 183.14 C 177.77 184.03 178.60 184.63 179.48 184.50 C 180.36 184.37 180.97 183.55 180.84 182.67 L 180.69 181.68 C 180.56 180.80 179.74 180.19 178.86 180.32 C 177.98 180.45 177.37 181.27 177.50 182.15 Z M 177.64 183.14 L 177.79 184.13 C 177.92 185.01 178.74 185.62 179.62 185.49 C 180.50 185.36 181.11 184.54 180.98 183.66 L 180.84 182.67 C 180.71 181.79 179.89 181.18 179.01 181.31 C 178.12 181.44 177.52 182.26 177.64 183.14 Z M 177.79 184.13 L 177.93 185.12 C 178.06 186.00 178.88 186.61 179.76 186.48 C 180.65 186.35 181.26 185.53 181.13 184.65 L 180.98 183.66 C 180.85 182.78 180.03 182.17 179.15 182.30 C 178.27 182.43 177.66 183.25 177.79 184.13 Z M 177.93 185.12 L 178.08 186.10 C 178.21 186.98 179.02 187.59 179.90 187.46 C 180.79 187.34 181.40 186.52 181.27 185.64 L 181.13 184.65 C 181.00 183.77 180.18 183.16 179.30 183.29 C 178.42 183.42 177.81 184.23 177.93 185.12 Z M 178.08 186.10 L 178.22 187.08 C 178.35 187.96 179.16 188.57 180.04 188.44 C 180.93 188.32 181.54 187.50 181.41 186.62 L 181.27 185.64 C 181.14 184.76 180.32 184.15 179.44 184.27 C 178.56 184.40 177.95 185.22 178.08 186.10 Z M 178.22 187.08 L 178.36 188.05 C 178.49 188.94 179.30 189.55 180.18 189.42 C 181.06 189.29 181.68 188.48 181.55 187.60 L 181.41 186.62 C 181.28 185.74 180.47 185.13 179.59 185.25 C 178.70 185.38 178.09 186.20 178.22 187.08 Z M 178.36 188.05 L 178.50 189.06 C 178.63 189.94 179.44 190.55 180.33 190.42 C 181.21 190.30 181.82 189.48 181.69 188.60 L 181.55 187.60 C 181.42 186.72 180.61 186.11 179.73 186.23 C 178.85 186.36 178.23 187.17 178.36 188.05 Z M 178.50 189.05 L 178.65 190.06 C 178.77 190.95 179.59 191.56 180.47 191.43 C 181.35 191.31 181.96 190.49 181.84 189.61 L 181.69 188.60 C 181.57 187.72 180.75 187.11 179.87 187.23 C 178.99 187.36 178.38 188.17 178.50 189.05 Z M 178.65 190.06 L 178.79 191.07 C 178.91 191.95 179.73 192.56 180.61 192.44 C 181.49 192.31 182.10 191.50 181.98 190.62 L 181.83 189.61 C 181.71 188.73 180.90 188.12 180.02 188.24 C 179.14 188.37 178.52 189.18 178.65 190.06 Z M 178.79 191.07 L 178.93 192.07 C 179.05 192.95 179.87 193.56 180.74 193.44 C 181.62 193.32 182.24 192.50 182.12 191.62 L 181.98 190.62 C 181.85 189.74 181.04 189.13 180.16 189.25 C 179.28 189.37 178.67 190.19 178.79 191.07 Z M 178.93 192.07 L 179.07 193.06 C 179.19 193.94 180.00 194.55 180.88 194.43 C 181.76 194.31 182.37 193.50 182.25 192.62 L 182.11 191.62 C 181.99 190.75 181.18 190.13 180.30 190.25 C 179.42 190.37 178.81 191.19 178.93 192.07 Z M 179.07 193.06 L 179.20 194.05 C 179.32 194.93 180.13 195.54 181.01 195.42 C 181.89 195.30 182.51 194.49 182.39 193.61 L 182.25 192.62 C 182.13 191.74 181.32 191.13 180.44 191.25 C 179.56 191.37 178.95 192.18 179.07 193.06 Z M 179.20 194.05 L 179.34 195.03 C 179.46 195.91 180.27 196.52 181.14 196.40 C 182.02 196.29 182.64 195.48 182.52 194.60 L 182.39 193.61 C 182.27 192.74 181.46 192.12 180.58 192.24 C 179.70 192.36 179.09 193.17 179.20 194.05 Z M 179.34 195.03 L 179.47 196.00 C 179.59 196.88 180.39 197.50 181.27 197.38 C 182.15 197.26 182.77 196.46 182.65 195.58 L 182.52 194.60 C 182.40 193.72 181.59 193.11 180.72 193.22 C 179.84 193.34 179.22 194.15 179.34 195.03 Z M 179.47 196.00 L 179.60 196.97 C 179.71 197.85 180.52 198.47 181.40 198.35 C 182.28 198.24 182.89 197.43 182.78 196.55 L 182.65 195.58 C 182.53 194.70 181.73 194.08 180.85 194.20 C 179.97 194.32 179.35 195.12 179.47 196.00 Z M 179.60 196.97 L 179.72 197.94 C 179.84 198.82 180.64 199.44 181.52 199.32 C 182.40 199.21 183.02 198.40 182.90 197.52 L 182.78 196.55 C 182.66 195.68 181.86 195.06 180.98 195.17 C 180.10 195.29 179.48 196.09 179.60 196.97 Z M 179.72 197.94 L 179.86 198.96 C 179.97 199.84 180.77 200.46 181.65 200.35 C 182.53 200.23 183.15 199.43 183.04 198.55 L 182.90 197.53 C 182.79 196.65 181.99 196.03 181.11 196.14 C 180.23 196.25 179.61 197.06 179.72 197.94 Z M 179.86 198.96 L 179.98 199.97 C 180.10 200.85 180.90 201.47 181.78 201.36 C 182.65 201.25 183.28 200.45 183.16 199.57 L 183.04 198.56 C 182.92 197.68 182.12 197.06 181.25 197.17 C 180.37 197.28 179.75 198.08 179.86 198.96 Z M 179.98 199.97 L 180.11 200.98 C 180.22 201.86 181.02 202.48 181.90 202.37 C 182.78 202.26 183.40 201.46 183.29 200.58 L 183.16 199.57 C 183.05 198.70 182.25 198.07 181.38 198.18 C 180.50 198.29 179.87 199.09 179.98 199.97 Z M 180.11 200.98 L 180.23 201.98 C 180.34 202.85 181.14 203.48 182.02 203.37 C 182.90 203.26 183.52 202.46 183.41 201.58 L 183.29 200.58 C 183.18 199.71 182.38 199.08 181.50 199.19 C 180.63 199.30 180.00 200.10 180.11 200.98 Z M 180.23 201.98 L 180.36 202.97 C 180.46 203.85 181.26 204.47 182.14 204.36 C 183.02 204.25 183.64 203.45 183.54 202.58 L 183.41 201.58 C 183.31 200.71 182.51 200.08 181.63 200.19 C 180.75 200.30 180.13 201.10 180.23 201.98 Z M 180.36 202.97 L 180.48 203.95 C 180.58 204.83 181.38 205.45 182.26 205.34 C 183.14 205.24 183.76 204.44 183.66 203.56 L 183.54 202.58 C 183.43 201.70 182.63 201.07 181.75 201.18 C 180.87 201.29 180.25 202.09 180.36 202.97 Z M 180.48 203.95 L 180.60 204.92 C 180.70 205.80 181.50 206.43 182.38 206.32 C 183.26 206.21 183.88 205.41 183.78 204.53 L 183.66 203.56 C 183.55 202.68 182.75 202.06 181.87 202.16 C 180.99 202.27 180.37 203.07 180.48 203.95 Z M 180.60 204.92 L 180.72 205.89 C 180.82 206.77 181.62 207.39 182.50 207.29 C 183.38 207.18 184.00 206.38 183.89 205.50 L 183.78 204.53 C 183.67 203.66 182.87 203.03 181.99 203.14 C 181.11 203.25 180.49 204.05 180.60 204.92 Z M 180.72 205.89 L 180.84 206.86 C 180.94 207.74 181.74 208.36 182.62 208.25 C 183.50 208.14 184.12 207.34 184.01 206.47 L 183.89 205.50 C 183.79 204.62 182.99 204.00 182.11 204.11 C 181.23 204.22 180.61 205.01 180.72 205.89 Z M 180.84 206.86 L 180.96 207.87 C 181.07 208.75 181.87 209.37 182.75 209.26 C 183.63 209.16 184.25 208.36 184.14 207.48 L 184.01 206.46 C 183.90 205.59 183.10 204.96 182.23 205.07 C 181.35 205.18 180.73 205.98 180.84 206.86 Z M 180.96 207.87 L 181.09 208.88 C 181.20 209.76 182.00 210.38 182.88 210.27 C 183.75 210.16 184.37 209.36 184.26 208.48 L 184.14 207.48 C 184.03 206.60 183.23 205.98 182.35 206.09 C 181.47 206.20 180.85 207.00 180.96 207.87 Z M 181.09 208.88 L 181.21 209.88 C 181.33 210.75 182.13 211.38 183.00 211.27 C 183.88 211.16 184.50 210.36 184.39 209.48 L 184.26 208.48 C 184.15 207.60 183.35 206.98 182.48 207.09 C 181.60 207.20 180.98 208.00 181.09 208.88 Z M 181.22 209.88 L 181.34 210.87 C 181.45 211.75 182.25 212.37 183.13 212.26 C 184.00 212.15 184.62 211.35 184.51 210.47 L 184.39 209.48 C 184.28 208.60 183.48 207.98 182.60 208.09 C 181.73 208.20 181.10 209.00 181.22 209.88 Z M 181.34 210.87 L 181.46 211.86 C 181.57 212.73 182.37 213.35 183.25 213.24 C 184.13 213.13 184.75 212.33 184.64 211.46 L 184.51 210.47 C 184.40 209.59 183.60 208.97 182.73 209.08 C 181.85 209.19 181.23 209.99 181.34 210.87 Z M 181.46 211.86 L 181.59 212.84 C 181.70 213.72 182.50 214.34 183.37 214.23 C 184.25 214.12 184.87 213.32 184.76 212.44 L 184.64 211.46 C 184.53 210.58 183.73 209.96 182.85 210.07 C 181.98 210.18 181.36 210.98 181.46 211.86 Z M 181.59 212.84 L 181.71 213.82 C 181.82 214.69 182.62 215.32 183.49 215.21 C 184.37 215.10 184.99 214.30 184.88 213.43 L 184.76 212.44 C 184.65 211.57 183.85 210.95 182.98 211.05 C 182.10 211.16 181.48 211.96 181.59 212.84 Z M 181.71 213.82 L 181.83 214.80 C 181.94 215.67 182.73 216.29 183.61 216.19 C 184.48 216.08 185.11 215.28 185.00 214.41 L 184.88 213.43 C 184.77 212.55 183.98 211.93 183.10 212.04 C 182.23 212.14 181.60 212.94 181.71 213.82 Z M 181.83 214.79 L 181.95 215.83 C 182.06 216.71 182.86 217.33 183.73 217.23 C 184.61 217.12 185.23 216.33 185.13 215.45 L 185.00 214.41 C 184.90 213.53 184.10 212.91 183.22 213.02 C 182.35 213.12 181.72 213.92 181.83 214.79 Z M 181.96 215.83 L 182.08 216.89 C 182.19 217.77 182.98 218.39 183.85 218.29 C 184.73 218.18 185.35 217.39 185.25 216.51 L 185.13 215.46 C 185.02 214.58 184.23 213.95 183.35 214.06 C 182.48 214.16 181.85 214.96 181.96 215.83 Z M 182.08 216.89 L 182.20 217.93 C 182.31 218.81 183.10 219.43 183.97 219.33 C 184.85 219.23 185.47 218.44 185.37 217.56 L 185.25 216.52 C 185.15 215.64 184.36 215.02 183.48 215.12 C 182.61 215.22 181.98 216.01 182.08 216.89 Z M 182.21 217.93 L 182.32 218.96 C 182.43 219.83 183.22 220.46 184.09 220.36 C 184.96 220.26 185.59 219.47 185.49 218.59 L 185.37 217.57 C 185.27 216.69 184.48 216.07 183.61 216.17 C 182.73 216.27 182.11 217.06 182.21 217.93 Z M 182.33 218.96 L 182.44 219.96 C 182.54 220.83 183.33 221.46 184.20 221.36 C 185.07 221.26 185.70 220.47 185.60 219.60 L 185.49 218.60 C 185.39 217.72 184.60 217.10 183.73 217.20 C 182.85 217.30 182.23 218.08 182.33 218.96 Z M 182.44 219.95 L 182.55 220.92 C 182.65 221.79 183.44 222.42 184.31 222.32 C 185.18 222.22 185.81 221.44 185.71 220.56 L 185.60 219.60 C 185.50 218.73 184.71 218.10 183.84 218.20 C 182.97 218.30 182.34 219.08 182.44 219.95 Z M 182.55 220.92 L 182.66 221.84 C 182.75 222.72 183.54 223.34 184.41 223.24 C 185.28 223.15 185.91 222.36 185.81 221.49 L 185.71 220.57 C 185.61 219.69 184.82 219.07 183.95 219.16 C 183.08 219.26 182.45 220.05 182.55 220.92 Z M 182.66 221.84 L 182.76 222.72 C 182.85 223.59 183.64 224.22 184.51 224.13 C 185.38 224.03 186.01 223.24 185.91 222.37 L 185.81 221.49 C 185.71 220.62 184.93 219.99 184.06 220.09 C 183.19 220.19 182.56 220.97 182.66 221.84 Z M 182.76 222.72 L 182.89 223.90 C 182.98 224.77 183.77 225.40 184.64 225.30 C 185.51 225.20 186.13 224.42 186.04 223.55 L 185.91 222.37 C 185.81 221.50 185.03 220.88 184.16 220.97 C 183.29 221.07 182.66 221.85 182.76 222.72 Z M 182.89 223.90 L 183.01 224.97 C 183.11 225.84 183.89 226.47 184.76 226.37 C 185.62 226.28 186.25 225.49 186.15 224.63 L 186.03 223.55 C 185.94 222.68 185.16 222.06 184.29 222.15 C 183.42 222.25 182.79 223.03 182.89 223.90 Z M 183.01 224.98 L 183.12 225.96 C 183.22 226.83 184.00 227.46 184.87 227.36 C 185.73 227.26 186.36 226.48 186.26 225.61 L 186.15 224.63 C 186.05 223.76 185.27 223.13 184.41 223.23 C 183.54 223.33 182.91 224.11 183.01 224.98 Z M 183.12 225.97 L 183.23 226.88 C 183.33 227.75 184.11 228.37 184.97 228.27 C 185.84 228.17 186.46 227.39 186.36 226.53 L 186.26 225.61 C 186.16 224.74 185.38 224.12 184.51 224.22 C 183.65 224.32 183.03 225.10 183.12 225.97 Z M 183.23 226.89 L 183.33 227.75 C 183.43 228.61 184.22 229.23 185.08 229.13 C 185.94 229.03 186.56 228.24 186.46 227.38 L 186.36 226.52 C 186.26 225.66 185.48 225.04 184.61 225.14 C 183.75 225.24 183.13 226.02 183.23 226.89 Z M 183.34 227.75 L 183.45 228.67 C 183.55 229.53 184.34 230.15 185.20 230.04 C 186.06 229.94 186.68 229.15 186.57 228.29 L 186.46 227.37 C 186.35 226.51 185.57 225.90 184.71 226.00 C 183.84 226.11 183.23 226.89 183.34 227.75 Z M 183.45 228.68 L 183.58 229.62 C 183.69 230.48 184.48 231.09 185.34 230.98 C 186.20 230.86 186.80 230.07 186.69 229.21 L 186.57 228.28 C 186.45 227.42 185.66 226.81 184.81 226.92 C 183.95 227.04 183.34 227.82 183.45 228.68 Z M 183.58 229.64 L 183.72 230.59 C 183.84 231.45 184.63 232.05 185.49 231.93 C 186.34 231.80 186.94 231.01 186.82 230.15 L 186.68 229.20 C 186.56 228.34 185.77 227.75 184.91 227.87 C 184.06 227.99 183.46 228.78 183.58 229.64 Z M 183.72 230.61 L 183.88 231.62 C 184.01 232.48 184.80 233.06 185.66 232.93 C 186.51 232.80 187.10 232.00 186.97 231.15 L 186.81 230.14 C 186.68 229.28 185.89 228.70 185.03 228.83 C 184.18 228.96 183.59 229.76 183.72 230.61 Z M 183.88 231.64 L 184.06 232.75 C 184.20 233.61 185.01 234.18 185.86 234.04 C 186.71 233.91 187.29 233.10 187.15 232.25 L 186.96 231.13 C 186.82 230.28 186.02 229.70 185.17 229.84 C 184.32 229.98 183.74 230.79 183.88 231.64 Z M 184.07 232.76 L 184.28 234.01 C 184.42 234.86 185.23 235.43 186.08 235.28 C 186.93 235.14 187.50 234.33 187.36 233.48 L 187.14 232.24 C 187.00 231.39 186.19 230.82 185.34 230.96 C 184.49 231.11 183.92 231.91 184.07 232.76 Z M 184.28 234.00 L 184.48 235.19 C 184.62 236.04 185.42 236.62 186.27 236.48 C 187.12 236.33 187.70 235.53 187.55 234.68 L 187.36 233.49 C 187.21 232.64 186.41 232.06 185.56 232.21 C 184.71 232.35 184.13 233.15 184.28 234.00 Z M 184.47 235.17 L 184.62 236.14 C 184.74 237.00 185.54 237.59 186.39 237.46 C 187.24 237.33 187.83 236.54 187.70 235.69 L 187.56 234.71 C 187.43 233.85 186.64 233.27 185.79 233.39 C 184.93 233.52 184.34 234.31 184.47 235.17 Z M 184.60 236.05 L 184.66 236.65 C 184.73 237.51 185.49 238.15 186.35 238.07 C 187.20 238.00 187.84 237.25 187.77 236.39 L 187.72 235.78 C 187.64 234.92 186.89 234.29 186.03 234.36 C 185.17 234.43 184.53 235.19 184.60 236.05 Z M 186.08 234.96 L 185.94 234.98 C 185.08 235.05 184.44 235.81 184.52 236.67 C 184.59 237.53 185.35 238.16 186.21 238.09 L 186.35 238.07 C 187.21 238.00 187.84 237.24 187.77 236.38 C 187.69 235.53 186.94 234.89 186.08 234.96 Z M 187.47 235.83 L 187.07 235.04 C 186.69 234.27 185.75 233.96 184.98 234.34 C 184.21 234.72 183.90 235.66 184.28 236.43 L 184.68 237.23 C 185.06 238.00 186.00 238.31 186.77 237.93 C 187.54 237.54 187.86 236.61 187.47 235.83 Z M 187.08 235.04 L 186.46 233.80 C 186.08 233.03 185.14 232.72 184.37 233.10 C 183.60 233.48 183.28 234.42 183.66 235.19 L 184.28 236.43 C 184.66 237.20 185.60 237.52 186.37 237.14 C 187.14 236.75 187.46 235.82 187.08 235.04 Z M 186.41 233.71 L 185.85 232.75 C 185.42 232.00 184.46 231.75 183.72 232.18 C 182.97 232.61 182.72 233.57 183.15 234.31 L 183.71 235.28 C 184.14 236.03 185.10 236.28 185.85 235.85 C 186.59 235.42 186.85 234.46 186.41 233.71 Z M 185.81 232.67 L 185.24 231.81 C 184.76 231.09 183.79 230.89 183.07 231.36 C 182.35 231.84 182.15 232.80 182.63 233.52 L 183.20 234.39 C 183.67 235.11 184.64 235.31 185.36 234.83 C 186.08 234.36 186.28 233.39 185.81 232.67 Z M 185.20 231.76 L 184.61 230.93 C 184.10 230.23 183.13 230.06 182.43 230.57 C 181.73 231.07 181.57 232.04 182.07 232.75 L 182.66 233.58 C 183.17 234.28 184.14 234.44 184.84 233.93 C 185.54 233.43 185.70 232.46 185.20 231.76 Z M 184.58 230.89 L 183.99 230.11 C 183.47 229.42 182.49 229.29 181.80 229.81 C 181.11 230.33 180.98 231.31 181.50 232.00 L 182.09 232.78 C 182.62 233.47 183.60 233.60 184.28 233.08 C 184.97 232.56 185.10 231.58 184.58 230.89 Z M 183.97 230.09 L 183.36 229.32 C 182.83 228.64 181.85 228.52 181.17 229.06 C 180.49 229.59 180.38 230.57 180.91 231.25 L 181.52 232.02 C 182.05 232.70 183.03 232.81 183.71 232.28 C 184.39 231.75 184.50 230.77 183.97 230.09 Z M 183.35 229.30 L 182.68 228.47 C 182.14 227.80 181.15 227.69 180.48 228.23 C 179.81 228.77 179.71 229.75 180.25 230.43 L 180.92 231.26 C 181.46 231.93 182.45 232.04 183.12 231.50 C 183.79 230.96 183.89 229.98 183.35 229.30 Z M 182.67 228.45 L 182.04 227.70 C 181.49 227.04 180.51 226.94 179.85 227.49 C 179.18 228.04 179.09 229.03 179.64 229.69 L 180.26 230.44 C 180.81 231.11 181.79 231.20 182.46 230.65 C 183.12 230.10 183.22 229.12 182.67 228.45 Z M 182.03 227.68 L 181.43 226.98 C 180.88 226.32 179.89 226.24 179.23 226.80 C 178.58 227.36 178.49 228.34 179.05 229.00 L 179.65 229.70 C 180.21 230.36 181.19 230.44 181.85 229.89 C 182.51 229.33 182.59 228.34 182.03 227.68 Z M 181.42 226.97 L 180.79 226.23 C 180.22 225.58 179.24 225.51 178.59 226.08 C 177.93 226.64 177.86 227.63 178.43 228.28 L 179.06 229.01 C 179.63 229.66 180.61 229.73 181.27 229.17 C 181.92 228.60 181.99 227.62 181.42 226.97 Z M 180.77 226.22 L 180.11 225.48 C 179.54 224.83 178.55 224.78 177.91 225.35 C 177.26 225.93 177.21 226.91 177.78 227.56 L 178.44 228.30 C 179.02 228.94 180.00 229.00 180.65 228.42 C 181.29 227.85 181.35 226.86 180.77 226.22 Z M 180.09 225.45 L 179.40 224.71 C 178.81 224.08 177.83 224.05 177.20 224.63 C 176.56 225.22 176.53 226.21 177.11 226.84 L 177.80 227.58 C 178.39 228.21 179.38 228.25 180.01 227.66 C 180.64 227.07 180.68 226.09 180.09 225.45 Z M 179.38 224.69 L 178.69 223.98 C 178.09 223.36 177.10 223.35 176.48 223.95 C 175.86 224.56 175.85 225.54 176.45 226.16 L 177.14 226.87 C 177.74 227.48 178.73 227.50 179.35 226.89 C 179.97 226.29 179.98 225.30 179.38 224.69 Z M 178.67 223.96 L 177.97 223.28 C 177.36 222.67 176.37 222.68 175.76 223.29 C 175.16 223.91 175.17 224.89 175.78 225.50 L 176.48 226.18 C 177.09 226.79 178.08 226.78 178.68 226.17 C 179.29 225.55 179.28 224.57 178.67 223.96 Z M 177.96 223.26 L 177.23 222.56 C 176.61 221.97 175.62 221.98 175.02 222.61 C 174.43 223.23 174.45 224.22 175.07 224.81 L 175.79 225.51 C 176.42 226.11 177.40 226.09 178.00 225.47 C 178.60 224.85 178.58 223.86 177.96 223.26 Z M 177.23 222.56 L 176.47 221.84 C 175.85 221.25 174.86 221.27 174.27 221.89 C 173.67 222.52 173.70 223.51 174.32 224.10 L 175.07 224.82 C 175.70 225.41 176.69 225.39 177.28 224.76 C 177.87 224.14 177.85 223.15 177.23 222.56 Z M 176.47 221.84 L 175.76 221.17 C 175.14 220.57 174.15 220.60 173.56 221.22 C 172.96 221.85 172.99 222.83 173.61 223.43 L 174.32 224.10 C 174.94 224.70 175.93 224.67 176.53 224.05 C 177.12 223.42 177.10 222.43 176.47 221.84 Z M 175.76 221.16 L 175.03 220.47 C 174.41 219.88 173.42 219.91 172.83 220.54 C 172.23 221.16 172.26 222.15 172.89 222.74 L 173.61 223.43 C 174.24 224.02 175.23 224.00 175.82 223.37 C 176.41 222.74 176.39 221.75 175.76 221.16 Z M 175.03 220.47 L 174.29 219.78 C 173.66 219.19 172.67 219.22 172.08 219.85 C 171.49 220.48 171.52 221.47 172.15 222.06 L 172.89 222.75 C 173.52 223.34 174.51 223.30 175.10 222.67 C 175.69 222.04 175.66 221.06 175.03 220.47 Z M 174.27 219.77 L 173.53 219.08 C 172.89 218.50 171.91 218.54 171.32 219.18 C 170.74 219.81 170.78 220.80 171.42 221.38 L 172.16 222.07 C 172.80 222.65 173.79 222.61 174.37 221.97 C 174.95 221.34 174.91 220.35 174.27 219.77 Z M 173.51 219.07 L 172.76 218.40 C 172.12 217.82 171.13 217.88 170.56 218.52 C 169.98 219.16 170.04 220.15 170.68 220.72 L 171.43 221.40 C 172.07 221.97 173.06 221.92 173.64 221.27 C 174.21 220.63 174.16 219.64 173.51 219.07 Z M 172.75 218.39 L 172.00 217.73 C 171.35 217.16 170.37 217.22 169.80 217.87 C 169.23 218.52 169.29 219.50 169.94 220.07 L 170.69 220.73 C 171.34 221.30 172.33 221.24 172.89 220.59 C 173.46 219.94 173.40 218.96 172.75 218.39 Z M 172.00 217.72 L 171.24 217.07 C 170.59 216.50 169.61 216.57 169.04 217.22 C 168.48 217.87 168.55 218.86 169.20 219.43 L 169.95 220.08 C 170.60 220.64 171.58 220.57 172.15 219.92 C 172.72 219.27 172.65 218.29 172.00 217.72 Z M 171.24 217.07 L 170.49 216.42 C 169.84 215.85 168.85 215.93 168.29 216.58 C 167.73 217.23 167.80 218.22 168.45 218.78 L 169.20 219.43 C 169.85 219.99 170.84 219.92 171.40 219.27 C 171.97 218.62 171.89 217.63 171.24 217.07 Z M 170.49 216.42 L 169.74 215.77 C 169.09 215.21 168.10 215.28 167.54 215.93 C 166.98 216.59 167.05 217.57 167.70 218.13 L 168.45 218.78 C 169.10 219.34 170.09 219.27 170.65 218.62 C 171.22 217.97 171.14 216.98 170.49 216.42 Z M 169.74 215.77 L 168.99 215.12 C 168.33 214.56 167.35 214.63 166.78 215.29 C 166.22 215.94 166.29 216.92 166.95 217.49 L 167.70 218.14 C 168.36 218.70 169.34 218.62 169.90 217.97 C 170.47 217.32 170.39 216.33 169.74 215.77 Z M 168.98 215.12 L 168.22 214.46 C 167.56 213.90 166.58 213.98 166.02 214.63 C 165.46 215.29 165.53 216.27 166.19 216.84 L 166.95 217.49 C 167.61 218.05 168.59 217.97 169.15 217.32 C 169.71 216.66 169.64 215.68 168.98 215.12 Z M 168.21 214.46 L 167.45 213.81 C 166.79 213.25 165.80 213.33 165.25 213.99 C 164.69 214.65 164.77 215.63 165.43 216.19 L 166.19 216.84 C 166.85 217.40 167.83 217.32 168.39 216.66 C 168.95 216.00 168.87 215.02 168.21 214.46 Z M 167.44 213.81 L 166.69 213.17 C 166.03 212.61 165.04 212.69 164.49 213.35 C 163.93 214.01 164.01 215.00 164.67 215.55 L 165.43 216.19 C 166.09 216.75 167.07 216.66 167.63 216.01 C 168.19 215.35 168.10 214.36 167.44 213.81 Z M 166.69 213.17 L 165.92 212.52 C 165.27 211.96 164.28 212.05 163.72 212.70 C 163.17 213.36 163.25 214.35 163.91 214.90 L 164.67 215.55 C 165.33 216.11 166.31 216.03 166.87 215.37 C 167.43 214.71 167.35 213.73 166.69 213.17 Z M 165.93 212.53 L 165.16 211.87 C 164.51 211.31 163.52 211.39 162.96 212.04 C 162.40 212.70 162.48 213.69 163.13 214.25 L 163.90 214.90 C 164.56 215.46 165.54 215.38 166.10 214.73 C 166.66 214.07 166.58 213.09 165.93 212.53 Z M 165.17 211.88 L 164.41 211.22 C 163.76 210.65 162.78 210.72 162.21 211.37 C 161.65 212.03 161.71 213.01 162.37 213.58 L 163.12 214.24 C 163.78 214.80 164.76 214.73 165.33 214.08 C 165.89 213.43 165.82 212.45 165.17 211.88 Z M 164.42 211.23 L 163.68 210.57 C 163.04 210.00 162.05 210.06 161.48 210.70 C 160.91 211.35 160.97 212.34 161.61 212.91 L 162.35 213.57 C 163.00 214.14 163.99 214.08 164.56 213.43 C 165.13 212.79 165.07 211.80 164.42 211.23 Z M 163.69 210.58 L 162.95 209.91 C 162.31 209.34 161.32 209.39 160.74 210.03 C 160.17 210.67 160.22 211.66 160.86 212.23 L 161.60 212.90 C 162.24 213.48 163.23 213.42 163.81 212.78 C 164.38 212.14 164.33 211.16 163.69 210.58 Z M 162.96 209.92 L 162.21 209.24 C 161.58 208.66 160.59 208.71 160.01 209.35 C 159.43 209.99 159.48 210.97 160.11 211.55 L 160.85 212.23 C 161.49 212.81 162.48 212.76 163.06 212.12 C 163.64 211.49 163.59 210.50 162.96 209.92 Z M 162.22 209.25 L 161.48 208.57 C 160.84 207.99 159.85 208.03 159.27 208.67 C 158.69 209.30 158.73 210.29 159.37 210.87 L 160.11 211.55 C 160.75 212.13 161.73 212.09 162.32 211.45 C 162.90 210.82 162.85 209.83 162.22 209.25 Z M 161.48 208.57 L 160.76 207.92 C 160.13 207.33 159.14 207.38 158.56 208.01 C 157.97 208.65 158.02 209.64 158.65 210.22 L 159.37 210.87 C 160.00 211.45 160.99 211.41 161.57 210.78 C 162.16 210.14 162.11 209.15 161.48 208.57 Z M 160.76 207.92 L 160.04 207.25 C 159.41 206.67 158.42 206.71 157.83 207.34 C 157.25 207.98 157.29 208.97 157.93 209.55 L 158.65 210.22 C 159.29 210.80 160.27 210.76 160.86 210.12 C 161.44 209.49 161.40 208.50 160.76 207.92 Z M 160.04 207.25 L 159.31 206.57 C 158.67 205.99 157.69 206.02 157.10 206.66 C 156.51 207.29 156.55 208.28 157.19 208.86 L 157.92 209.55 C 158.56 210.13 159.54 210.09 160.13 209.46 C 160.72 208.83 160.68 207.84 160.04 207.25 Z M 159.31 206.58 L 158.56 205.87 C 157.93 205.28 156.94 205.32 156.35 205.95 C 155.76 206.58 155.80 207.57 156.43 208.15 L 157.18 208.86 C 157.81 209.45 158.80 209.41 159.39 208.78 C 159.98 208.15 159.94 207.16 159.31 206.58 Z M 158.56 205.88 L 157.83 205.18 C 157.20 204.59 156.21 204.62 155.62 205.25 C 155.03 205.87 155.06 206.86 155.68 207.45 L 156.42 208.15 C 157.05 208.74 158.04 208.71 158.63 208.08 C 159.22 207.46 159.19 206.47 158.56 205.88 Z M 157.83 205.19 L 157.10 204.49 C 156.48 203.89 155.49 203.91 154.89 204.54 C 154.30 205.16 154.32 206.15 154.94 206.75 L 155.68 207.45 C 156.30 208.04 157.29 208.02 157.88 207.40 C 158.48 206.77 158.46 205.78 157.83 205.19 Z M 157.11 204.50 L 156.38 203.79 C 155.76 203.19 154.77 203.20 154.17 203.82 C 153.57 204.44 153.59 205.43 154.21 206.03 L 154.93 206.74 C 155.55 207.34 156.54 207.32 157.14 206.70 C 157.74 206.08 157.73 205.10 157.11 204.50 Z M 156.39 203.80 L 155.68 203.10 C 155.06 202.49 154.07 202.50 153.47 203.11 C 152.86 203.72 152.87 204.71 153.48 205.32 L 154.20 206.02 C 154.81 206.63 155.80 206.62 156.40 206.01 C 157.01 205.39 157.00 204.40 156.39 203.80 Z M 155.69 203.11 L 155.00 202.42 C 154.40 201.80 153.41 201.80 152.80 202.41 C 152.18 203.01 152.18 204.00 152.79 204.61 L 153.47 205.31 C 154.08 205.92 155.07 205.92 155.68 205.32 C 156.29 204.71 156.30 203.72 155.69 203.11 Z M 155.02 202.43 L 154.29 201.68 C 153.70 201.06 152.71 201.04 152.09 201.64 C 151.46 202.24 151.45 203.22 152.04 203.85 L 152.77 204.60 C 153.37 205.22 154.36 205.24 154.98 204.64 C 155.60 204.04 155.62 203.05 155.02 202.43 Z M 154.31 201.69 L 153.62 200.96 C 153.03 200.33 152.04 200.30 151.41 200.89 C 150.78 201.48 150.75 202.47 151.34 203.10 L 152.03 203.83 C 152.62 204.46 153.61 204.49 154.24 203.90 C 154.87 203.31 154.90 202.32 154.31 201.69 Z M 153.63 200.97 L 152.97 200.25 C 152.38 199.62 151.39 199.58 150.76 200.16 C 150.13 200.75 150.09 201.73 150.67 202.37 L 151.33 203.09 C 151.92 203.72 152.91 203.76 153.54 203.18 C 154.17 202.59 154.21 201.61 153.63 200.97 Z M 152.97 200.26 L 152.32 199.54 C 151.74 198.90 150.75 198.86 150.11 199.44 C 149.47 200.02 149.43 201.01 150.01 201.64 L 150.66 202.36 C 151.25 203.00 152.23 203.04 152.87 202.46 C 153.51 201.88 153.55 200.90 152.97 200.26 Z M 152.32 199.54 L 151.65 198.81 C 151.07 198.17 150.08 198.13 149.45 198.71 C 148.81 199.29 148.76 200.27 149.34 200.91 L 150.01 201.64 C 150.59 202.28 151.58 202.33 152.21 201.75 C 152.85 201.17 152.90 200.18 152.32 199.54 Z M 151.66 198.81 L 150.98 198.07 C 150.41 197.43 149.42 197.38 148.78 197.96 C 148.14 198.54 148.09 199.53 148.67 200.17 L 149.34 200.91 C 149.92 201.55 150.90 201.60 151.54 201.02 C 152.18 200.44 152.23 199.45 151.66 198.81 Z M 150.99 198.08 L 150.33 197.33 C 149.75 196.69 148.77 196.63 148.12 197.20 C 147.48 197.78 147.42 198.76 147.99 199.41 L 148.66 200.16 C 149.23 200.80 150.22 200.86 150.87 200.29 C 151.51 199.71 151.57 198.72 150.99 198.08 Z M 150.34 197.35 L 149.68 196.59 C 149.11 195.94 148.13 195.87 147.48 196.43 C 146.83 197.00 146.76 197.99 147.32 198.64 L 147.98 199.39 C 148.55 200.05 149.53 200.11 150.18 199.55 C 150.83 198.98 150.90 198.00 150.34 197.35 Z M 149.70 196.61 L 149.05 195.84 C 148.49 195.18 147.51 195.09 146.85 195.65 C 146.19 196.20 146.10 197.19 146.66 197.85 L 147.31 198.62 C 147.86 199.28 148.85 199.36 149.51 198.81 C 150.17 198.25 150.25 197.27 149.70 196.61 Z M 149.06 195.86 L 148.43 195.08 C 147.88 194.41 146.90 194.31 146.23 194.86 C 145.56 195.40 145.46 196.39 146.01 197.05 L 146.64 197.83 C 147.19 198.50 148.17 198.60 148.84 198.05 C 149.51 197.51 149.61 196.52 149.06 195.86 Z M 148.44 195.09 L 147.82 194.31 C 147.28 193.64 146.30 193.53 145.62 194.06 C 144.95 194.60 144.84 195.58 145.37 196.26 L 146.00 197.04 C 146.53 197.71 147.52 197.82 148.19 197.29 C 148.87 196.75 148.98 195.77 148.44 195.09 Z M 147.83 194.32 L 147.22 193.54 C 146.69 192.86 145.70 192.74 145.02 193.27 C 144.34 193.80 144.22 194.78 144.75 195.46 L 145.37 196.24 C 145.90 196.92 146.88 197.05 147.56 196.52 C 148.24 195.99 148.36 195.00 147.83 194.32 Z M 147.22 193.55 L 146.61 192.75 C 146.09 192.07 145.11 191.94 144.42 192.47 C 143.74 192.99 143.61 193.97 144.14 194.66 L 144.75 195.45 C 145.27 196.14 146.25 196.26 146.94 195.74 C 147.62 195.21 147.75 194.23 147.22 193.55 Z M 146.62 192.76 L 146.01 191.96 C 145.49 191.27 144.51 191.14 143.82 191.66 C 143.14 192.18 143.00 193.16 143.52 193.85 L 144.13 194.65 C 144.65 195.33 145.63 195.47 146.32 194.95 C 147.00 194.43 147.14 193.45 146.62 192.76 Z M 146.02 191.97 L 145.42 191.17 C 144.90 190.48 143.93 190.34 143.23 190.85 C 142.54 191.37 142.40 192.35 142.92 193.04 L 143.52 193.84 C 144.03 194.53 145.01 194.67 145.70 194.16 C 146.39 193.64 146.53 192.66 146.02 191.97 Z M 145.43 191.18 L 144.84 190.38 C 144.33 189.68 143.35 189.54 142.65 190.05 C 141.96 190.56 141.81 191.54 142.32 192.23 L 142.91 193.03 C 143.42 193.72 144.40 193.87 145.10 193.36 C 145.79 192.85 145.94 191.87 145.43 191.18 Z M 144.84 190.39 L 144.26 189.59 C 143.76 188.89 142.78 188.73 142.08 189.24 C 141.38 189.75 141.23 190.72 141.74 191.42 L 142.32 192.22 C 142.82 192.92 143.80 193.07 144.50 192.57 C 145.19 192.06 145.35 191.08 144.84 190.39 Z M 144.27 189.60 L 143.69 188.79 C 143.19 188.09 142.22 187.93 141.51 188.43 C 140.81 188.93 140.65 189.91 141.15 190.61 L 141.73 191.41 C 142.23 192.11 143.21 192.28 143.91 191.77 C 144.61 191.27 144.77 190.30 144.27 189.60 Z M 143.70 188.80 L 143.12 187.98 C 142.63 187.28 141.65 187.11 140.95 187.61 C 140.24 188.10 140.08 189.08 140.57 189.78 L 141.15 190.60 C 141.64 191.30 142.62 191.47 143.32 190.98 C 144.03 190.48 144.20 189.50 143.70 188.80 Z M 143.13 187.99 L 142.55 187.16 C 142.06 186.45 141.09 186.28 140.38 186.77 C 139.67 187.26 139.50 188.23 139.99 188.94 L 140.57 189.77 C 141.06 190.48 142.03 190.66 142.74 190.17 C 143.45 189.67 143.62 188.70 143.13 187.99 Z M 142.56 187.17 L 141.98 186.32 C 141.49 185.61 140.52 185.43 139.81 185.91 C 139.10 186.40 138.92 187.37 139.40 188.08 L 139.98 188.93 C 140.47 189.64 141.44 189.82 142.15 189.34 C 142.86 188.85 143.05 187.88 142.56 187.17 Z M 141.99 186.34 L 141.42 185.48 C 140.94 184.76 139.97 184.57 139.25 185.05 C 138.54 185.53 138.34 186.50 138.82 187.21 L 139.39 188.07 C 139.87 188.79 140.84 188.98 141.56 188.50 C 142.28 188.02 142.47 187.05 141.99 186.34 Z M 141.43 185.50 L 140.89 184.65 C 140.42 183.93 139.45 183.72 138.73 184.19 C 138.00 184.66 137.80 185.62 138.26 186.35 L 138.81 187.19 C 139.28 187.92 140.24 188.13 140.97 187.66 C 141.69 187.19 141.90 186.23 141.43 185.50 Z M 140.90 184.68 L 140.40 183.86 C 139.95 183.13 138.99 182.90 138.25 183.35 C 137.52 183.80 137.29 184.76 137.74 185.50 L 138.24 186.32 C 138.69 187.05 139.66 187.28 140.39 186.83 C 141.13 186.38 141.36 185.42 140.90 184.68 Z M 140.43 183.91 L 139.94 183.06 C 139.52 182.31 138.56 182.04 137.81 182.47 C 137.06 182.90 136.80 183.85 137.23 184.60 L 137.71 185.45 C 138.14 186.20 139.09 186.46 139.84 186.04 C 140.59 185.61 140.85 184.66 140.43 183.91 Z M 139.98 183.12 L 139.54 182.26 C 139.15 181.49 138.20 181.19 137.44 181.58 C 136.67 181.97 136.36 182.91 136.76 183.68 L 137.20 184.54 C 137.59 185.31 138.53 185.61 139.30 185.22 C 140.06 184.83 140.37 183.88 139.98 183.12 Z M 139.57 182.32 L 139.16 181.43 C 138.81 180.64 137.88 180.29 137.10 180.65 C 136.31 181.01 135.96 181.93 136.32 182.72 L 136.73 183.61 C 137.08 184.40 138.01 184.75 138.79 184.39 C 139.58 184.04 139.92 183.11 139.57 182.32 Z M 139.19 181.48 L 138.80 180.53 C 138.47 179.73 137.56 179.34 136.76 179.67 C 135.97 179.99 135.58 180.90 135.91 181.70 L 136.29 182.66 C 136.62 183.46 137.53 183.84 138.33 183.52 C 139.13 183.19 139.51 182.28 139.19 181.48 Z M 138.82 180.57 L 138.49 179.69 C 138.19 178.89 137.29 178.47 136.48 178.77 C 135.67 179.07 135.26 179.97 135.56 180.78 L 135.89 181.66 C 136.19 182.47 137.09 182.88 137.90 182.58 C 138.70 182.28 139.12 181.38 138.82 180.57 Z M 138.51 179.75 L 138.19 178.80 C 137.92 177.98 137.04 177.54 136.22 177.81 C 135.40 178.08 134.96 178.97 135.23 179.79 L 135.54 180.73 C 135.82 181.55 136.70 181.99 137.52 181.72 C 138.34 181.45 138.78 180.56 138.51 179.75 Z M 138.22 178.87 L 137.94 177.88 C 137.70 177.05 136.84 176.57 136.01 176.80 C 135.18 177.03 134.70 177.90 134.93 178.73 L 135.21 179.72 C 135.44 180.55 136.31 181.03 137.14 180.80 C 137.97 180.56 138.45 179.70 138.22 178.87 Z M 137.96 177.97 L 137.73 176.95 C 137.55 176.11 136.71 175.57 135.87 175.76 C 135.03 175.95 134.50 176.78 134.68 177.62 L 134.91 178.64 C 135.09 179.48 135.93 180.01 136.77 179.83 C 137.61 179.64 138.14 178.81 137.96 177.97 Z M 137.75 177.07 L 137.60 175.97 C 137.48 175.12 136.69 174.53 135.83 174.65 C 134.98 174.77 134.39 175.56 134.51 176.41 L 134.66 177.50 C 134.78 178.36 135.57 178.95 136.43 178.83 C 137.28 178.71 137.87 177.92 137.75 177.07 Z M 137.61 176.14 L 137.57 175.05 C 137.54 174.18 136.82 173.51 135.96 173.54 C 135.10 173.57 134.42 174.30 134.45 175.16 L 134.49 176.25 C 134.52 177.11 135.25 177.78 136.11 177.75 C 136.97 177.72 137.64 177.00 137.61 176.14 Z M 137.57 175.28 L 137.68 174.29 C 137.78 173.43 137.16 172.66 136.30 172.56 C 135.45 172.46 134.67 173.08 134.58 173.93 L 134.46 174.93 C 134.37 175.78 134.98 176.56 135.84 176.65 C 136.69 176.75 137.47 176.14 137.57 175.28 Z M 137.60 174.63 L 137.90 173.80 C 138.18 172.98 137.76 172.09 136.95 171.80 C 136.13 171.51 135.24 171.94 134.95 172.75 L 134.66 173.59 C 134.37 174.40 134.79 175.29 135.60 175.58 C 136.42 175.87 137.31 175.45 137.60 174.63 Z M 137.63 174.27 L 138.15 173.64 C 138.70 172.97 138.61 171.99 137.95 171.44 C 137.28 170.89 136.30 170.98 135.75 171.64 L 135.22 172.28 C 134.67 172.94 134.76 173.93 135.43 174.48 C 136.09 175.03 137.08 174.93 137.63 174.27 Z M 137.70 174.01 L 138.46 173.59 C 139.22 173.18 139.50 172.23 139.09 171.48 C 138.68 170.72 137.73 170.44 136.97 170.85 L 136.20 171.27 C 135.45 171.68 135.17 172.63 135.58 173.39 C 135.99 174.14 136.94 174.42 137.70 174.01 Z M 138.10 173.74 L 139.06 173.50 C 139.89 173.29 140.40 172.44 140.19 171.60 C 139.98 170.77 139.14 170.26 138.30 170.47 L 137.34 170.71 C 136.50 170.92 135.99 171.76 136.20 172.60 C 136.41 173.44 137.26 173.95 138.10 173.74 Z M 138.85 173.53 L 139.97 173.41 C 140.82 173.32 141.44 172.54 141.35 171.69 C 141.25 170.83 140.48 170.21 139.62 170.31 L 138.51 170.43 C 137.65 170.52 137.03 171.30 137.13 172.15 C 137.22 173.01 137.99 173.63 138.85 173.53 Z M 139.88 173.42 L 140.93 173.36 C 141.79 173.31 142.45 172.58 142.41 171.72 C 142.36 170.86 141.62 170.20 140.76 170.24 L 139.71 170.30 C 138.85 170.35 138.19 171.08 138.24 171.94 C 138.28 172.80 139.02 173.46 139.88 173.42 Z M 140.89 173.36 L 141.89 173.33 C 142.75 173.31 143.43 172.59 143.41 171.73 C 143.38 170.87 142.67 170.19 141.80 170.21 L 140.80 170.24 C 139.94 170.27 139.26 170.98 139.29 171.85 C 139.31 172.71 140.03 173.39 140.89 173.36 Z M 141.86 173.33 L 142.88 173.33 C 143.74 173.32 144.44 172.62 144.43 171.76 C 144.43 170.90 143.72 170.20 142.86 170.21 L 141.84 170.21 C 140.98 170.22 140.28 170.92 140.29 171.78 C 140.29 172.64 140.99 173.34 141.86 173.33 Z M 142.84 173.33 L 143.86 173.35 C 144.73 173.36 145.44 172.68 145.45 171.81 C 145.47 170.95 144.78 170.24 143.92 170.23 L 142.90 170.21 C 142.04 170.19 141.32 170.88 141.31 171.74 C 141.29 172.60 141.98 173.31 142.84 173.33 Z M 143.82 173.35 L 144.82 173.39 C 145.68 173.43 146.41 172.76 146.44 171.90 C 146.48 171.03 145.81 170.31 144.95 170.27 L 143.96 170.23 C 143.10 170.19 142.37 170.86 142.33 171.72 C 142.29 172.58 142.96 173.31 143.82 173.35 Z M 144.77 173.39 L 145.74 173.46 C 146.60 173.52 147.34 172.87 147.41 172.01 C 147.47 171.15 146.82 170.40 145.96 170.34 L 145.00 170.27 C 144.14 170.21 143.39 170.86 143.33 171.72 C 143.26 172.58 143.91 173.32 144.77 173.39 Z M 145.69 173.45 L 146.63 173.55 C 147.49 173.64 148.26 173.02 148.35 172.16 C 148.44 171.30 147.81 170.54 146.96 170.45 L 146.01 170.35 C 145.16 170.26 144.39 170.88 144.30 171.74 C 144.21 172.59 144.83 173.36 145.69 173.45 Z M 146.59 173.55 L 147.53 173.67 C 148.38 173.79 149.17 173.19 149.28 172.33 C 149.40 171.48 148.80 170.69 147.94 170.58 L 147.00 170.45 C 146.15 170.34 145.36 170.94 145.25 171.79 C 145.13 172.65 145.73 173.43 146.59 173.55 Z M 147.50 173.67 L 148.48 173.82 C 149.33 173.95 150.13 173.37 150.26 172.51 C 150.39 171.66 149.81 170.86 148.96 170.73 L 147.97 170.58 C 147.12 170.45 146.32 171.03 146.19 171.89 C 146.06 172.74 146.65 173.54 147.50 173.67 Z M 148.47 173.82 L 149.54 173.99 C 150.39 174.13 151.19 173.56 151.33 172.70 C 151.47 171.85 150.89 171.05 150.04 170.91 L 148.97 170.74 C 148.12 170.60 147.32 171.17 147.18 172.02 C 147.04 172.87 147.62 173.68 148.47 173.82 Z M 149.53 173.99 L 150.48 174.15 C 151.33 174.29 152.14 173.72 152.28 172.87 C 152.42 172.02 151.84 171.21 150.99 171.07 L 150.05 170.91 C 149.19 170.77 148.39 171.34 148.25 172.19 C 148.11 173.05 148.68 173.85 149.53 173.99 Z M 150.48 174.15 L 151.43 174.31 C 152.28 174.45 153.09 173.87 153.23 173.02 C 153.37 172.17 152.79 171.37 151.94 171.23 L 150.99 171.07 C 150.14 170.93 149.34 171.50 149.20 172.36 C 149.06 173.21 149.63 174.01 150.48 174.15 Z M 151.44 174.31 L 152.43 174.47 C 153.28 174.60 154.08 174.03 154.22 173.17 C 154.36 172.32 153.78 171.52 152.93 171.38 L 151.93 171.22 C 151.08 171.09 150.28 171.67 150.14 172.52 C 150.01 173.37 150.59 174.17 151.44 174.31 Z M 152.44 174.47 L 153.46 174.63 C 154.31 174.76 155.11 174.18 155.24 173.33 C 155.37 172.47 154.79 171.68 153.94 171.54 L 152.92 171.38 C 152.07 171.25 151.27 171.83 151.14 172.68 C 151.00 173.54 151.58 174.34 152.44 174.47 Z M 153.47 174.63 L 154.50 174.78 C 155.35 174.91 156.14 174.32 156.27 173.47 C 156.40 172.62 155.81 171.82 154.96 171.69 L 153.93 171.54 C 153.07 171.41 152.28 172.00 152.15 172.86 C 152.03 173.71 152.61 174.50 153.47 174.63 Z M 154.51 174.78 L 155.53 174.93 C 156.38 175.05 157.17 174.45 157.29 173.60 C 157.41 172.74 156.82 171.95 155.96 171.83 L 154.94 171.69 C 154.09 171.57 153.30 172.17 153.18 173.02 C 153.06 173.88 153.66 174.67 154.51 174.78 Z M 155.55 174.93 L 156.60 175.06 C 157.46 175.17 158.24 174.57 158.35 173.71 C 158.46 172.86 157.85 172.07 157.00 171.97 L 155.94 171.83 C 155.09 171.72 154.31 172.33 154.20 173.18 C 154.09 174.04 154.69 174.82 155.55 174.93 Z M 156.63 175.07 L 157.75 175.19 C 158.60 175.29 159.37 174.67 159.47 173.81 C 159.57 172.95 158.95 172.18 158.09 172.09 L 156.97 171.96 C 156.11 171.87 155.34 172.48 155.25 173.34 C 155.15 174.20 155.77 174.97 156.63 175.07 Z M 157.77 175.19 L 158.83 175.29 C 159.69 175.38 160.45 174.75 160.53 173.89 C 160.61 173.03 159.98 172.27 159.13 172.19 L 158.07 172.08 C 157.21 172.00 156.45 172.63 156.36 173.49 C 156.28 174.35 156.91 175.11 157.77 175.19 Z M 158.85 175.30 L 159.85 175.38 C 160.71 175.45 161.46 174.80 161.53 173.95 C 161.60 173.09 160.96 172.33 160.10 172.26 L 159.10 172.18 C 158.24 172.11 157.49 172.76 157.42 173.61 C 157.35 174.47 157.99 175.23 158.85 175.30 Z M 159.87 175.38 L 160.80 175.44 C 161.66 175.50 162.40 174.85 162.46 173.99 C 162.51 173.12 161.86 172.38 161.00 172.32 L 160.08 172.26 C 159.22 172.21 158.47 172.86 158.42 173.72 C 158.36 174.58 159.01 175.32 159.87 175.38 Z M 160.82 175.44 L 161.67 175.49 C 162.53 175.53 163.26 174.87 163.31 174.01 C 163.35 173.15 162.69 172.41 161.83 172.37 L 160.98 172.32 C 160.12 172.28 159.39 172.94 159.34 173.80 C 159.29 174.66 159.95 175.39 160.82 175.44 Z M 161.69 175.49 L 162.78 175.53 C 163.64 175.56 164.37 174.89 164.40 174.03 C 164.44 173.17 163.76 172.44 162.90 172.41 L 161.81 172.37 C 160.95 172.33 160.22 173.01 160.19 173.87 C 160.16 174.73 160.83 175.45 161.69 175.49 Z M 162.81 175.53 L 163.82 175.55 C 164.68 175.57 165.40 174.89 165.42 174.02 C 165.43 173.16 164.75 172.45 163.89 172.43 L 162.88 172.41 C 162.01 172.39 161.30 173.07 161.28 173.94 C 161.26 174.80 161.95 175.51 162.81 175.53 Z M 163.84 175.55 L 164.78 175.56 C 165.64 175.56 166.35 174.87 166.35 174.01 C 166.36 173.15 165.66 172.44 164.80 172.44 L 163.87 172.43 C 163.00 172.42 162.30 173.12 162.29 173.98 C 162.29 174.84 162.98 175.55 163.84 175.55 Z M 164.79 175.56 L 165.71 175.56 C 166.58 175.56 167.28 174.86 167.28 174.00 C 167.28 173.14 166.58 172.44 165.72 172.44 L 164.79 172.44 C 163.93 172.44 163.23 173.13 163.23 174.00 C 163.23 174.86 163.93 175.56 164.79 175.56 Z M 165.72 175.56 L 166.69 175.56 C 167.56 175.56 168.25 174.86 168.25 174.00 C 168.25 173.14 167.56 172.44 166.69 172.44 L 165.72 172.44 C 164.85 172.44 164.15 173.14 164.15 174.00 C 164.15 174.86 164.85 175.56 165.72 175.56 Z M 166.69 175.56 L 167.69 175.56 C 168.56 175.56 169.26 174.86 169.26 174.00 C 169.26 173.14 168.56 172.44 167.69 172.44 L 166.69 172.44 C 165.83 172.44 165.13 173.14 165.13 174.00 C 165.13 174.86 165.83 175.56 166.69 175.56 Z M 167.69 175.56 L 168.72 175.56 C 169.58 175.56 170.28 174.86 170.28 174.00 C 170.28 173.14 169.58 172.44 168.72 172.44 L 167.69 172.44 C 166.83 172.44 166.13 173.14 166.13 174.00 C 166.13 174.86 166.83 175.56 167.69 175.56 Z M 168.72 175.56 L 169.69 175.56 C 170.55 175.56 171.25 174.86 171.25 174.00 C 171.25 173.14 170.55 172.44 169.69 172.44 L 168.72 172.44 C 167.85 172.44 167.16 173.14 167.16 174.00 C 167.16 174.86 167.85 175.56 168.72 175.56 Z M 169.69 175.56 L 170.67 175.56 C 171.53 175.56 172.23 174.86 172.23 174.00 C 172.23 173.14 171.53 172.44 170.67 172.44 L 169.69 172.44 C 168.83 172.44 168.13 173.14 168.13 174.00 C 168.13 174.86 168.83 175.56 169.69 175.56 Z M 170.67 175.56 L 171.68 175.56 C 172.54 175.56 173.24 174.86 173.24 174.00 C 173.24 173.14 172.54 172.44 171.68 172.44 L 170.67 172.44 C 169.80 172.44 169.11 173.14 169.11 174.00 C 169.11 174.86 169.80 175.56 170.67 175.56 Z M 171.68 175.56 L 172.72 175.56 C 173.59 175.56 174.28 174.86 174.28 174.00 C 174.28 173.14 173.59 172.44 172.72 172.44 L 171.68 172.44 C 170.81 172.44 170.12 173.14 170.12 174.00 C 170.12 174.86 170.81 175.56 171.68 175.56 Z M 172.72 175.56 L 173.72 175.56 C 174.58 175.56 175.28 174.86 175.28 174.00 C 175.28 173.14 174.58 172.44 173.72 172.44 L 172.72 172.44 C 171.86 172.44 171.16 173.14 171.16 174.00 C 171.16 174.86 171.86 175.56 172.72 175.56 Z M 173.72 175.56 L 174.74 175.56 C 175.60 175.55 176.29 174.85 176.29 173.99 C 176.29 173.13 175.59 172.43 174.73 172.43 L 173.72 172.44 C 172.85 172.44 172.16 173.14 172.16 174.00 C 172.16 174.86 172.86 175.56 173.72 175.56 Z M 174.74 175.56 L 175.75 175.55 C 176.61 175.55 177.31 174.84 177.30 173.98 C 177.30 173.12 176.59 172.42 175.73 172.43 L 174.72 172.43 C 173.86 172.44 173.17 173.14 173.17 174.00 C 173.18 174.87 173.88 175.56 174.74 175.56 Z M 175.76 175.55 L 176.75 175.54 C 177.61 175.53 178.30 174.82 178.29 173.96 C 178.28 173.10 177.57 172.41 176.71 172.42 L 175.72 172.43 C 174.86 172.44 174.17 173.15 174.18 174.01 C 174.19 174.87 174.90 175.56 175.76 175.55 Z M 176.76 175.54 L 177.80 175.52 C 178.67 175.50 179.35 174.79 179.33 173.92 C 179.31 173.06 178.60 172.38 177.74 172.40 L 176.70 172.42 C 175.83 172.43 175.15 173.15 175.17 174.01 C 175.19 174.87 175.90 175.56 176.76 175.54 Z M 177.82 175.52 L 178.83 175.48 C 179.69 175.45 180.37 174.73 180.34 173.87 C 180.31 173.01 179.59 172.33 178.73 172.36 L 177.72 172.40 C 176.86 172.42 176.18 173.15 176.21 174.01 C 176.24 174.87 176.96 175.55 177.82 175.52 Z M 178.86 175.48 L 179.83 175.43 C 180.69 175.39 181.36 174.66 181.31 173.80 C 181.27 172.93 180.54 172.27 179.68 172.31 L 178.70 172.36 C 177.84 172.41 177.18 173.14 177.22 174.00 C 177.26 174.86 178.00 175.52 178.86 175.48 Z M 179.86 175.43 L 180.81 175.37 C 181.67 175.31 182.32 174.56 182.26 173.70 C 182.20 172.84 181.45 172.19 180.59 172.25 L 179.65 172.32 C 178.79 172.38 178.14 173.12 178.20 173.98 C 178.26 174.84 179.00 175.49 179.86 175.43 Z M 180.84 175.36 L 181.74 175.28 C 182.60 175.21 183.24 174.45 183.16 173.59 C 183.09 172.74 182.33 172.10 181.47 172.17 L 180.57 172.25 C 179.71 172.33 179.07 173.08 179.15 173.94 C 179.22 174.80 179.98 175.44 180.84 175.36 Z M 181.76 175.28 L 182.71 175.19 C 183.56 175.11 184.19 174.35 184.11 173.49 C 184.03 172.63 183.27 172.00 182.41 172.08 L 181.46 172.18 C 180.60 172.26 179.97 173.02 180.05 173.88 C 180.13 174.74 180.90 175.37 181.76 175.28 Z M 182.70 175.19 L 183.74 175.09 C 184.60 175.01 185.23 174.25 185.15 173.39 C 185.07 172.53 184.31 171.90 183.45 171.99 L 182.41 172.08 C 181.55 172.17 180.92 172.93 181.00 173.79 C 181.08 174.64 181.85 175.27 182.70 175.19 Z M 183.73 175.10 L 184.80 175.00 C 185.66 174.93 186.30 174.17 186.22 173.31 C 186.15 172.45 185.39 171.82 184.53 171.89 L 183.46 171.98 C 182.60 172.06 181.97 172.82 182.04 173.68 C 182.12 174.53 182.87 175.17 183.73 175.10 Z M 184.79 175.00 L 185.71 174.93 C 186.57 174.86 187.22 174.11 187.15 173.25 C 187.08 172.39 186.33 171.75 185.47 171.82 L 184.55 171.89 C 183.69 171.96 183.04 172.71 183.11 173.57 C 183.18 174.43 183.93 175.07 184.79 175.00 Z M 185.70 174.93 L 186.69 174.86 C 187.55 174.80 188.19 174.05 188.13 173.19 C 188.07 172.33 187.32 171.69 186.46 171.75 L 185.48 171.82 C 184.62 171.88 183.97 172.63 184.03 173.49 C 184.10 174.35 184.84 174.99 185.70 174.93 Z M 186.68 174.86 L 187.70 174.80 C 188.56 174.74 189.21 174.00 189.16 173.14 C 189.10 172.28 188.36 171.62 187.50 171.68 L 186.47 171.75 C 185.61 171.80 184.96 172.54 185.02 173.41 C 185.07 174.27 185.82 174.92 186.68 174.86 Z M 187.69 174.80 L 188.73 174.73 C 189.59 174.68 190.25 173.95 190.20 173.08 C 190.15 172.22 189.41 171.57 188.55 171.62 L 187.51 171.68 C 186.65 171.73 185.99 172.47 186.04 173.33 C 186.09 174.19 186.83 174.85 187.69 174.80 Z M 188.72 174.74 L 189.77 174.68 C 190.63 174.64 191.29 173.90 191.25 173.04 C 191.20 172.18 190.47 171.52 189.61 171.56 L 188.56 171.62 C 187.70 171.66 187.04 172.40 187.08 173.26 C 187.13 174.12 187.86 174.78 188.72 174.74 Z M 189.76 174.68 L 190.79 174.64 C 191.65 174.60 192.32 173.87 192.28 173.01 C 192.24 172.14 191.51 171.48 190.65 171.52 L 189.62 171.56 C 188.76 171.60 188.09 172.33 188.13 173.19 C 188.16 174.05 188.89 174.72 189.76 174.68 Z M 190.78 174.64 L 191.79 174.60 C 192.65 174.56 193.32 173.84 193.29 172.98 C 193.26 172.12 192.53 171.44 191.67 171.48 L 190.66 171.52 C 189.80 171.55 189.13 172.27 189.16 173.13 C 189.19 174.00 189.92 174.67 190.78 174.64 Z M 191.78 174.60 L 192.78 174.57 C 193.64 174.54 194.32 173.82 194.29 172.95 C 194.26 172.09 193.54 171.42 192.68 171.44 L 191.68 171.48 C 190.82 171.50 190.14 172.23 190.17 173.09 C 190.20 173.95 190.92 174.63 191.78 174.60 Z M 192.78 174.57 L 193.76 174.54 C 194.63 174.51 195.30 173.79 195.28 172.93 C 195.26 172.07 194.54 171.39 193.67 171.42 L 192.69 171.44 C 191.82 171.47 191.15 172.19 191.17 173.05 C 191.20 173.91 191.91 174.59 192.78 174.57 Z M 193.76 174.54 L 194.74 174.51 C 195.60 174.49 196.28 173.77 196.26 172.91 C 196.24 172.05 195.52 171.37 194.66 171.39 L 193.68 171.42 C 192.82 171.44 192.14 172.16 192.16 173.02 C 192.18 173.88 192.90 174.56 193.76 174.54 Z M 194.74 174.51 L 195.31 174.50 C 196.17 174.48 196.85 173.76 196.83 172.90 C 196.81 172.04 196.09 171.35 195.23 171.38 L 194.66 171.39 C 193.80 171.41 193.12 172.13 193.14 172.99 C 193.16 173.85 193.88 174.53 194.74 174.51 Z"
      fill="black"
      fill-rule="nonzero" /></svg>