<svg xmlns="http://www.w3.org/2000/svg" width="300" height="300" viewBox="0 0 300 300">
<path d="M 154.29 103.06 L 153.34 102.98 C 152.48 102.90 151.73 103.54 151.65 104.40 C 151.58 105.26 152.21 106.02 153.07 106.09 L 154.03 106.17 C 154.88 106.25 155.64 105.61 155.71 104.75 C 155.79 103.89 155.15 103.13 154.29 103.06 Z M 153.37 102.98 L 152.39 102.88 C 151.53 102.79 150.77 103.42 150.68 104.28 C 150.59 105.13 151.22 105.90 152.07 105.99 L 153.05 106.09 C 153.91 106.17 154.67 105.55 154.76 104.69 C 154.85 103.83 154.22 103.07 153.37 102.98 Z M 152.43 102.89 L 151.41 102.75 C 150.56 102.64 149.77 103.24 149.66 104.10 C 149.55 104.95 150.15 105.74 151.00 105.85 L 152.03 105.98 C 152.88 106.09 153.67 105.49 153.78 104.64 C 153.89 103.78 153.29 103.00 152.43 102.89 Z M 151.46 102.76 L 150.48 102.60 C 149.63 102.45 148.82 103.03 148.68 103.88 C 148.54 104.73 149.11 105.53 149.96 105.68 L 150.95 105.84 C 151.80 105.98 152.60 105.41 152.75 104.56 C 152.89 103.71 152.31 102.90 151.46 102.76 Z M 150.52 102.60 L 149.55 102.41 C 148.70 102.25 147.88 102.80 147.72 103.65 C 147.55 104.50 148.11 105.32 148.95 105.48 L 149.93 105.67 C 150.77 105.83 151.59 105.28 151.75 104.43 C 151.92 103.59 151.37 102.77 150.52 102.60 Z M 149.57 102.42 L 148.57 102.21 C 147.73 102.04 146.90 102.58 146.73 103.43 C 146.55 104.27 147.09 105.10 147.94 105.27 L 148.93 105.48 C 149.78 105.65 150.60 105.11 150.78 104.26 C 150.95 103.42 150.41 102.59 149.57 102.42 Z M 148.57 102.21 L 147.57 102.00 C 146.73 101.83 145.90 102.37 145.73 103.21 C 145.55 104.06 146.09 104.88 146.94 105.06 L 147.93 105.27 C 148.78 105.45 149.61 104.90 149.78 104.06 C 149.96 103.22 149.42 102.39 148.57 102.21 Z M 147.56 102.00 L 146.63 101.81 C 145.78 101.64 144.96 102.19 144.79 103.04 C 144.62 103.88 145.17 104.70 146.01 104.87 L 146.95 105.06 C 147.79 105.23 148.62 104.69 148.79 103.84 C 148.96 103.00 148.41 102.17 147.56 102.00 Z M 146.61 101.81 L 145.69 101.64 C 144.85 101.48 144.03 102.04 143.87 102.89 C 143.72 103.74 144.28 104.55 145.12 104.71 L 146.04 104.88 C 146.88 105.04 147.70 104.48 147.86 103.63 C 148.01 102.78 147.45 101.97 146.61 101.81 Z M 145.66 101.63 L 144.70 101.48 C 143.85 101.34 143.05 101.91 142.91 102.76 C 142.77 103.61 143.34 104.42 144.20 104.56 L 145.15 104.72 C 146.01 104.86 146.81 104.28 146.95 103.43 C 147.09 102.58 146.51 101.77 145.66 101.63 Z M 144.67 101.47 L 143.62 101.32 C 142.77 101.20 141.98 101.80 141.86 102.65 C 141.74 103.50 142.33 104.29 143.19 104.41 L 144.23 104.56 C 145.08 104.68 145.87 104.09 145.99 103.24 C 146.12 102.38 145.52 101.59 144.67 101.47 Z M 143.59 101.32 L 142.55 101.19 C 141.69 101.09 140.91 101.70 140.81 102.56 C 140.71 103.41 141.32 104.19 142.17 104.29 L 143.22 104.42 C 144.07 104.52 144.85 103.91 144.95 103.06 C 145.06 102.20 144.45 101.42 143.59 101.32 Z M 142.52 101.19 L 141.59 101.09 C 140.73 101.00 139.96 101.63 139.87 102.48 C 139.78 103.34 140.41 104.11 141.26 104.20 L 142.20 104.30 C 143.05 104.39 143.82 103.76 143.91 102.91 C 144.00 102.05 143.38 101.28 142.52 101.19 Z M 141.57 101.09 L 140.58 101.00 C 139.73 100.92 138.97 101.55 138.89 102.41 C 138.81 103.27 139.44 104.03 140.30 104.11 L 141.28 104.20 C 142.14 104.28 142.90 103.65 142.98 102.79 C 143.06 101.93 142.43 101.17 141.57 101.09 Z M 140.57 101.00 L 139.55 100.92 C 138.69 100.85 137.93 101.49 137.86 102.35 C 137.79 103.21 138.43 103.96 139.29 104.03 L 140.32 104.11 C 141.18 104.18 141.93 103.54 142.00 102.68 C 142.07 101.82 141.43 101.07 140.57 101.00 Z M 139.53 100.91 L 138.49 100.84 C 137.63 100.78 136.88 101.43 136.82 102.29 C 136.76 103.15 137.41 103.90 138.27 103.96 L 139.31 104.03 C 140.17 104.09 140.92 103.44 140.98 102.58 C 141.04 101.72 140.39 100.97 139.53 100.91 Z M 138.47 100.84 L 137.44 100.78 C 136.57 100.73 135.84 101.39 135.79 102.25 C 135.74 103.11 136.40 103.85 137.26 103.90 L 138.29 103.96 C 139.15 104.01 139.89 103.35 139.94 102.49 C 139.99 101.63 139.33 100.89 138.47 100.84 Z M 137.41 100.78 L 136.35 100.73 C 135.49 100.70 134.76 101.36 134.72 102.22 C 134.69 103.09 135.35 103.82 136.22 103.85 L 137.28 103.90 C 138.14 103.94 138.87 103.27 138.91 102.41 C 138.94 101.55 138.28 100.82 137.41 100.78 Z M 136.33 100.73 L 135.26 100.70 C 134.40 100.67 133.68 101.35 133.65 102.21 C 133.62 103.07 134.30 103.79 135.16 103.82 L 136.24 103.85 C 137.10 103.88 137.82 103.20 137.84 102.34 C 137.87 101.48 137.19 100.76 136.33 100.73 Z M 135.24 100.70 L 134.21 100.68 C 133.35 100.66 132.63 101.35 132.62 102.21 C 132.60 103.07 133.29 103.79 134.15 103.80 L 135.18 103.82 C 136.04 103.84 136.76 103.15 136.77 102.29 C 136.79 101.43 136.10 100.72 135.24 100.70 Z M 134.19 100.68 L 133.21 100.67 C 132.34 100.66 131.64 101.35 131.63 102.22 C 131.62 103.08 132.31 103.78 133.17 103.79 L 134.16 103.80 C 135.03 103.81 135.73 103.12 135.74 102.26 C 135.75 101.39 135.06 100.69 134.19 100.68 Z M 133.20 100.67 L 132.25 100.67 C 131.39 100.66 130.69 101.36 130.69 102.22 C 130.68 103.08 131.38 103.79 132.24 103.79 L 133.18 103.79 C 134.05 103.80 134.75 103.10 134.75 102.24 C 134.75 101.37 134.06 100.67 133.20 100.67 Z M 132.25 100.67 L 131.32 100.67 C 130.46 100.67 129.76 101.36 129.76 102.23 C 129.76 103.09 130.46 103.79 131.32 103.79 L 132.25 103.79 C 133.11 103.79 133.81 103.09 133.81 102.23 C 133.81 101.37 133.11 100.67 132.25 100.67 Z M 131.32 100.67 L 130.23 100.67 C 129.37 100.67 128.67 101.37 128.68 102.24 C 128.68 103.10 129.38 103.80 130.24 103.79 L 131.33 103.79 C 132.19 103.79 132.88 103.08 132.88 102.22 C 132.88 101.36 132.18 100.66 131.32 100.67 Z M 130.21 100.67 L 129.19 100.69 C 128.33 100.71 127.65 101.42 127.66 102.28 C 127.68 103.14 128.39 103.83 129.26 103.81 L 130.27 103.79 C 131.13 103.78 131.82 103.06 131.80 102.20 C 131.78 101.34 131.07 100.65 130.21 100.67 Z M 129.14 100.69 L 128.18 100.74 C 127.32 100.79 126.66 101.52 126.70 102.39 C 126.75 103.25 127.49 103.91 128.35 103.86 L 129.31 103.81 C 130.17 103.76 130.83 103.03 130.78 102.17 C 130.74 101.31 130.00 100.65 129.14 100.69 Z M 128.10 100.75 L 127.18 100.85 C 126.32 100.94 125.70 101.71 125.79 102.56 C 125.88 103.42 126.65 104.04 127.50 103.95 L 128.43 103.85 C 129.28 103.76 129.91 103.00 129.82 102.14 C 129.73 101.28 128.96 100.66 128.10 100.75 Z M 127.07 100.86 L 126.08 101.04 C 125.23 101.19 124.67 101.99 124.82 102.84 C 124.97 103.69 125.78 104.26 126.63 104.11 L 127.61 103.94 C 128.46 103.79 129.03 102.98 128.88 102.13 C 128.73 101.28 127.92 100.71 127.07 100.86 Z M 125.97 101.06 L 125.01 101.30 C 124.17 101.51 123.66 102.36 123.88 103.20 C 124.09 104.03 124.94 104.54 125.77 104.33 L 126.74 104.09 C 127.57 103.88 128.08 103.03 127.87 102.19 C 127.66 101.35 126.81 100.85 125.97 101.06 Z M 124.91 101.33 L 123.96 101.64 C 123.14 101.91 122.69 102.79 122.96 103.61 C 123.22 104.43 124.10 104.88 124.92 104.61 L 125.87 104.30 C 126.69 104.03 127.14 103.15 126.87 102.33 C 126.61 101.51 125.73 101.07 124.91 101.33 Z M 123.87 101.67 L 122.95 102.04 C 122.14 102.35 121.75 103.26 122.07 104.06 C 122.38 104.86 123.29 105.26 124.09 104.94 L 125.01 104.58 C 125.82 104.26 126.21 103.36 125.89 102.55 C 125.58 101.75 124.67 101.36 123.87 101.67 Z M 122.87 102.07 L 122.00 102.47 C 121.22 102.83 120.87 103.75 121.23 104.54 C 121.59 105.32 122.52 105.67 123.30 105.31 L 124.17 104.91 C 124.95 104.55 125.30 103.62 124.94 102.84 C 124.58 102.05 123.65 101.71 122.87 102.07 Z M 121.92 102.51 L 121.06 102.97 C 120.29 103.37 120.00 104.31 120.41 105.08 C 120.81 105.84 121.75 106.13 122.52 105.73 L 123.38 105.27 C 124.14 104.86 124.43 103.92 124.03 103.16 C 123.63 102.39 122.68 102.10 121.92 102.51 Z M 120.97 103.01 L 120.10 103.54 C 119.37 103.99 119.13 104.95 119.58 105.69 C 120.03 106.42 120.99 106.66 121.73 106.21 L 122.60 105.68 C 123.33 105.23 123.57 104.27 123.12 103.53 C 122.67 102.80 121.71 102.56 120.97 103.01 Z M 120.03 103.59 L 119.17 104.18 C 118.46 104.67 118.28 105.65 118.77 106.36 C 119.26 107.07 120.23 107.24 120.94 106.75 L 121.80 106.16 C 122.51 105.67 122.69 104.70 122.20 103.99 C 121.71 103.28 120.74 103.10 120.03 103.59 Z M 119.10 104.23 L 118.36 104.81 C 117.68 105.33 117.55 106.31 118.07 107.00 C 118.60 107.68 119.58 107.81 120.26 107.28 L 121.01 106.71 C 121.69 106.18 121.82 105.20 121.29 104.52 C 120.77 103.83 119.79 103.71 119.10 104.23 Z M 118.30 104.85 L 117.55 105.49 C 116.90 106.04 116.82 107.03 117.37 107.69 C 117.93 108.34 118.92 108.42 119.57 107.87 L 120.32 107.23 C 120.98 106.68 121.06 105.69 120.50 105.03 C 119.94 104.38 118.96 104.29 118.30 104.85 Z M 117.50 105.53 L 116.76 106.22 C 116.13 106.81 116.10 107.80 116.68 108.43 C 117.27 109.06 118.26 109.10 118.89 108.51 L 119.63 107.82 C 120.26 107.23 120.29 106.24 119.71 105.61 C 119.12 104.98 118.13 104.95 117.50 105.53 Z M 116.71 106.28 L 115.98 107.02 C 115.38 107.64 115.39 108.63 116.01 109.23 C 116.63 109.83 117.62 109.82 118.22 109.20 L 118.94 108.46 C 119.54 107.84 119.53 106.85 118.91 106.25 C 118.30 105.65 117.31 105.66 116.71 106.28 Z M 115.93 107.08 L 115.23 107.87 C 114.66 108.52 114.72 109.50 115.37 110.07 C 116.02 110.64 117.00 110.58 117.57 109.93 L 118.27 109.14 C 118.84 108.50 118.78 107.51 118.13 106.94 C 117.49 106.37 116.50 106.43 115.93 107.08 Z M 115.18 107.93 L 114.53 108.74 C 113.99 109.42 114.09 110.40 114.77 110.94 C 115.44 111.48 116.42 111.37 116.96 110.70 L 117.62 109.88 C 118.16 109.21 118.05 108.22 117.38 107.68 C 116.71 107.15 115.72 107.25 115.18 107.93 Z M 114.49 108.79 L 113.87 109.63 C 113.36 110.32 113.50 111.30 114.19 111.81 C 114.89 112.32 115.86 112.18 116.38 111.49 L 117.00 110.65 C 117.51 109.96 117.37 108.98 116.67 108.47 C 115.98 107.95 115.00 108.10 114.49 108.79 Z M 113.84 109.67 L 113.27 110.50 C 112.77 111.20 112.95 112.18 113.66 112.67 C 114.37 113.16 115.34 112.99 115.83 112.28 L 116.41 111.45 C 116.90 110.74 116.72 109.77 116.01 109.27 C 115.31 108.78 114.33 108.96 113.84 109.67 Z M 113.24 110.53 L 112.72 111.33 C 112.25 112.05 112.45 113.02 113.17 113.49 C 113.89 113.96 114.86 113.76 115.33 113.04 L 115.85 112.24 C 116.33 111.52 116.12 110.55 115.40 110.08 C 114.68 109.61 113.71 109.81 113.24 110.53 Z M 112.70 111.36 L 112.18 112.20 C 111.73 112.93 111.95 113.89 112.68 114.35 C 113.42 114.80 114.38 114.58 114.83 113.84 L 115.35 113.01 C 115.81 112.28 115.58 111.31 114.85 110.86 C 114.12 110.40 113.15 110.63 112.70 111.36 Z M 112.16 112.24 L 111.63 113.15 C 111.19 113.90 111.45 114.85 112.19 115.28 C 112.94 115.72 113.89 115.46 114.33 114.72 L 114.86 113.80 C 115.29 113.06 115.04 112.10 114.29 111.67 C 113.54 111.24 112.59 111.49 112.16 112.24 Z M 111.59 113.21 L 111.14 114.06 C 110.74 114.82 111.03 115.77 111.79 116.17 C 112.56 116.57 113.50 116.28 113.90 115.52 L 114.36 114.66 C 114.76 113.90 114.47 112.96 113.70 112.55 C 112.94 112.15 112.00 112.44 111.59 113.21 Z M 111.11 114.12 L 110.71 114.97 C 110.34 115.75 110.67 116.68 111.45 117.05 C 112.23 117.42 113.16 117.09 113.53 116.31 L 113.93 115.46 C 114.30 114.68 113.97 113.75 113.19 113.38 C 112.41 113.01 111.48 113.34 111.11 114.12 Z M 110.69 115.02 L 110.32 115.88 C 109.98 116.67 110.34 117.59 111.13 117.93 C 111.93 118.27 112.84 117.91 113.19 117.12 L 113.56 116.25 C 113.90 115.46 113.53 114.54 112.74 114.20 C 111.95 113.86 111.03 114.23 110.69 115.02 Z M 110.30 115.92 L 109.94 116.83 C 109.62 117.63 110.02 118.54 110.82 118.85 C 111.62 119.17 112.53 118.78 112.84 117.98 L 113.20 117.07 C 113.52 116.27 113.13 115.37 112.33 115.05 C 111.52 114.73 110.62 115.12 110.30 115.92 Z M 109.93 116.86 L 109.58 117.81 C 109.28 118.62 109.69 119.52 110.50 119.82 C 111.30 120.12 112.20 119.71 112.50 118.90 L 112.86 117.95 C 113.16 117.14 112.74 116.24 111.94 115.94 C 111.13 115.64 110.23 116.05 109.93 116.86 Z M 109.57 117.83 L 109.22 118.83 C 108.93 119.64 109.36 120.53 110.17 120.82 C 110.98 121.11 111.87 120.68 112.16 119.87 L 112.51 118.87 C 112.80 118.06 112.37 117.17 111.56 116.88 C 110.75 116.60 109.85 117.02 109.57 117.83 Z M 109.21 118.85 L 108.90 119.75 C 108.63 120.56 109.06 121.45 109.88 121.73 C 110.70 122.00 111.58 121.57 111.86 120.75 L 112.17 119.85 C 112.44 119.03 112.01 118.15 111.19 117.87 C 110.37 117.59 109.49 118.03 109.21 118.85 Z M 108.90 119.76 L 108.60 120.68 C 108.33 121.50 108.77 122.38 109.59 122.65 C 110.41 122.92 111.29 122.48 111.56 121.66 L 111.87 120.74 C 112.13 119.92 111.69 119.03 110.87 118.77 C 110.05 118.50 109.17 118.94 108.90 119.76 Z M 108.59 120.70 L 108.29 121.66 C 108.03 122.48 108.48 123.36 109.31 123.62 C 110.13 123.88 111.01 123.42 111.27 122.60 L 111.57 121.64 C 111.83 120.82 111.37 119.94 110.55 119.68 C 109.73 119.42 108.85 119.88 108.59 120.70 Z M 108.28 121.68 L 107.98 122.68 C 107.73 123.50 108.20 124.37 109.02 124.62 C 109.85 124.87 110.72 124.41 110.97 123.58 L 111.27 122.58 C 111.52 121.76 111.05 120.88 110.23 120.63 C 109.40 120.38 108.53 120.85 108.28 121.68 Z M 107.98 122.69 L 107.69 123.67 C 107.45 124.50 107.93 125.36 108.76 125.60 C 109.59 125.84 110.45 125.36 110.69 124.54 L 110.97 123.56 C 111.21 122.73 110.74 121.87 109.91 121.63 C 109.08 121.39 108.22 121.87 107.98 122.69 Z M 107.69 123.68 L 107.42 124.63 C 107.19 125.46 107.68 126.32 108.51 126.55 C 109.34 126.78 110.20 126.30 110.43 125.47 L 110.70 124.52 C 110.93 123.69 110.44 122.83 109.61 122.60 C 108.78 122.37 107.92 122.85 107.69 123.68 Z M 107.42 124.64 L 107.16 125.61 C 106.94 126.44 107.43 127.30 108.26 127.52 C 109.10 127.75 109.95 127.25 110.18 126.42 L 110.44 125.45 C 110.66 124.62 110.17 123.76 109.33 123.54 C 108.50 123.32 107.64 123.81 107.42 124.64 Z M 107.16 125.62 L 106.90 126.61 C 106.69 127.44 107.19 128.29 108.02 128.51 C 108.86 128.73 109.71 128.23 109.92 127.39 L 110.18 126.41 C 110.40 125.58 109.90 124.72 109.06 124.51 C 108.23 124.29 107.37 124.79 107.16 125.62 Z M 106.90 126.62 L 106.65 127.60 C 106.44 128.44 106.95 129.29 107.79 129.50 C 108.62 129.71 109.47 129.20 109.68 128.36 L 109.93 127.38 C 110.14 126.54 109.63 125.69 108.79 125.48 C 107.96 125.27 107.11 125.78 106.90 126.62 Z M 106.65 127.62 L 106.41 128.59 C 106.21 129.43 106.72 130.28 107.56 130.48 C 108.40 130.68 109.24 130.17 109.45 129.33 L 109.68 128.35 C 109.89 127.52 109.37 126.67 108.53 126.47 C 107.70 126.26 106.85 126.78 106.65 127.62 Z M 106.41 128.61 L 106.18 129.58 C 105.99 130.42 106.51 131.26 107.35 131.45 C 108.19 131.65 109.03 131.13 109.22 130.29 L 109.45 129.32 C 109.65 128.48 109.12 127.64 108.28 127.44 C 107.44 127.25 106.60 127.77 106.41 128.61 Z M 106.18 129.59 L 105.96 130.56 C 105.77 131.40 106.30 132.24 107.15 132.43 C 107.99 132.61 108.82 132.08 109.01 131.24 L 109.23 130.27 C 109.41 129.43 108.88 128.60 108.04 128.41 C 107.20 128.22 106.37 128.75 106.18 129.59 Z M 105.96 130.58 L 105.75 131.55 C 105.57 132.40 106.11 133.23 106.96 133.40 C 107.80 133.58 108.63 133.04 108.81 132.20 L 109.01 131.22 C 109.19 130.38 108.65 129.55 107.81 129.37 C 106.96 129.20 106.14 129.74 105.96 130.58 Z M 105.75 131.57 L 105.55 132.56 C 105.39 133.40 105.94 134.23 106.78 134.39 C 107.63 134.56 108.45 134.01 108.62 133.17 L 108.81 132.18 C 108.98 131.33 108.43 130.51 107.58 130.34 C 106.74 130.18 105.92 130.73 105.75 131.57 Z M 105.55 132.58 L 105.37 133.55 C 105.21 134.40 105.77 135.21 106.62 135.37 C 107.47 135.53 108.28 134.97 108.44 134.12 L 108.62 133.15 C 108.78 132.30 108.22 131.48 107.37 131.33 C 106.52 131.17 105.71 131.73 105.55 132.58 Z M 105.37 133.57 L 105.20 134.53 C 105.06 135.38 105.63 136.19 106.48 136.33 C 107.33 136.48 108.13 135.91 108.28 135.06 L 108.44 134.10 C 108.59 133.25 108.02 132.44 107.17 132.30 C 106.32 132.15 105.51 132.72 105.37 133.57 Z M 105.20 134.55 L 105.04 135.53 C 104.91 136.38 105.48 137.18 106.34 137.32 C 107.19 137.45 107.99 136.87 108.12 136.02 L 108.28 135.04 C 108.42 134.19 107.84 133.39 106.99 133.25 C 106.14 133.12 105.34 133.70 105.20 134.55 Z M 105.04 135.54 L 104.89 136.54 C 104.76 137.39 105.35 138.18 106.20 138.31 C 107.05 138.44 107.85 137.85 107.98 137.00 L 108.13 136.01 C 108.26 135.15 107.67 134.36 106.82 134.23 C 105.96 134.10 105.17 134.69 105.04 135.54 Z M 104.89 136.55 L 104.74 137.56 C 104.62 138.41 105.22 139.20 106.07 139.32 C 106.92 139.45 107.71 138.85 107.84 138.00 L 107.98 136.99 C 108.10 136.13 107.51 135.34 106.65 135.22 C 105.80 135.10 105.01 135.70 104.89 136.55 Z M 104.74 137.57 L 104.61 138.58 C 104.49 139.44 105.09 140.22 105.94 140.34 C 106.80 140.45 107.59 139.85 107.70 139.00 L 107.84 137.99 C 107.95 137.13 107.35 136.35 106.50 136.23 C 105.64 136.12 104.86 136.72 104.74 137.57 Z M 104.61 138.59 L 104.48 139.56 C 104.37 140.41 104.97 141.20 105.83 141.31 C 106.68 141.42 107.47 140.81 107.58 139.96 L 107.70 138.99 C 107.81 138.14 107.21 137.35 106.35 137.24 C 105.50 137.13 104.72 137.74 104.61 138.59 Z M 104.48 139.57 L 104.36 140.54 C 104.25 141.40 104.86 142.18 105.72 142.29 C 106.57 142.39 107.35 141.78 107.46 140.93 L 107.58 139.95 C 107.68 139.09 107.08 138.31 106.22 138.21 C 105.37 138.10 104.59 138.71 104.48 139.57 Z M 104.36 140.55 L 104.24 141.54 C 104.14 142.40 104.75 143.17 105.60 143.28 C 106.46 143.38 107.24 142.77 107.34 141.91 L 107.46 140.92 C 107.56 140.07 106.95 139.29 106.09 139.19 C 105.24 139.08 104.46 139.69 104.36 140.55 Z M 104.24 141.55 L 104.12 142.55 C 104.02 143.40 104.63 144.18 105.49 144.28 C 106.35 144.38 107.12 143.77 107.22 142.91 L 107.34 141.91 C 107.44 141.05 106.83 140.28 105.97 140.18 C 105.11 140.08 104.34 140.69 104.24 141.55 Z M 104.12 142.55 L 104.01 143.57 C 103.91 144.42 104.52 145.20 105.38 145.29 C 106.24 145.39 107.01 144.78 107.11 143.92 L 107.22 142.91 C 107.32 142.05 106.71 141.28 105.85 141.18 C 104.99 141.08 104.22 141.69 104.12 142.55 Z M 104.00 143.57 L 103.89 144.57 C 103.80 145.42 104.41 146.20 105.27 146.29 C 106.13 146.39 106.90 145.77 107.00 144.92 L 107.11 143.92 C 107.20 143.06 106.59 142.29 105.73 142.19 C 104.87 142.10 104.10 142.71 104.00 143.57 Z M 103.89 144.57 L 103.78 145.54 C 103.69 146.40 104.31 147.17 105.16 147.26 C 106.02 147.36 106.79 146.74 106.89 145.88 L 107.00 144.91 C 107.09 144.06 106.47 143.28 105.62 143.19 C 104.76 143.09 103.99 143.71 103.89 144.57 Z M 103.78 145.54 L 103.68 146.52 C 103.59 147.38 104.21 148.15 105.06 148.24 C 105.92 148.33 106.69 147.71 106.78 146.86 L 106.89 145.88 C 106.98 145.02 106.36 144.25 105.50 144.16 C 104.65 144.07 103.88 144.69 103.78 145.54 Z M 103.68 146.53 L 103.58 147.52 C 103.49 148.38 104.11 149.15 104.97 149.23 C 105.82 149.32 106.59 148.70 106.68 147.84 L 106.78 146.85 C 106.87 145.99 106.25 145.23 105.39 145.14 C 104.53 145.05 103.77 145.67 103.68 146.53 Z M 103.57 147.53 L 103.48 148.53 C 103.39 149.39 104.02 150.16 104.88 150.24 C 105.73 150.32 106.50 149.70 106.58 148.84 L 106.68 147.84 C 106.77 146.98 106.14 146.21 105.28 146.13 C 104.42 146.04 103.66 146.67 103.57 147.53 Z M 103.47 148.54 L 103.38 149.56 C 103.30 150.42 103.93 151.18 104.79 151.26 C 105.65 151.34 106.41 150.71 106.49 149.85 L 106.58 148.83 C 106.66 147.97 106.03 147.21 105.17 147.13 C 104.31 147.05 103.55 147.68 103.47 148.54 Z M 103.38 149.57 L 103.29 150.58 C 103.22 151.44 103.86 152.19 104.72 152.27 C 105.58 152.34 106.33 151.70 106.40 150.84 L 106.49 149.84 C 106.56 148.98 105.93 148.22 105.07 148.15 C 104.21 148.08 103.45 148.71 103.38 149.57 Z M 103.29 150.59 L 103.22 151.54 C 103.15 152.40 103.79 153.15 104.65 153.22 C 105.51 153.29 106.26 152.64 106.33 151.78 L 106.41 150.83 C 106.47 149.97 105.83 149.22 104.97 149.15 C 104.11 149.09 103.36 149.73 103.29 150.59 Z M 103.22 151.55 L 103.15 152.52 C 103.09 153.38 103.73 154.13 104.59 154.19 C 105.46 154.25 106.20 153.60 106.26 152.74 L 106.33 151.77 C 106.39 150.91 105.75 150.17 104.89 150.11 C 104.03 150.04 103.28 150.69 103.22 151.55 Z M 103.15 152.53 L 103.08 153.51 C 103.03 154.37 103.68 155.11 104.54 155.17 C 105.40 155.23 106.14 154.57 106.20 153.71 L 106.26 152.73 C 106.32 151.87 105.67 151.13 104.81 151.07 C 103.95 151.01 103.20 151.67 103.15 152.53 Z M 103.08 153.52 L 103.02 154.52 C 102.97 155.38 103.63 156.12 104.49 156.17 C 105.35 156.22 106.09 155.57 106.14 154.71 L 106.20 153.71 C 106.25 152.84 105.60 152.10 104.73 152.05 C 103.87 152.00 103.13 152.66 103.08 153.52 Z M 103.02 154.53 L 102.97 155.55 C 102.92 156.41 103.58 157.15 104.44 157.20 C 105.30 157.24 106.04 156.58 106.09 155.72 L 106.14 154.70 C 106.19 153.84 105.53 153.10 104.67 153.05 C 103.81 153.01 103.07 153.67 103.02 154.53 Z M 102.97 155.56 L 102.91 156.60 C 102.87 157.46 103.53 158.20 104.40 158.24 C 105.26 158.28 105.99 157.62 106.03 156.76 L 106.09 155.71 C 106.13 154.85 105.47 154.12 104.60 154.07 C 103.74 154.03 103.01 154.70 102.97 155.56 Z M 102.91 156.61 L 102.87 157.63 C 102.83 158.49 103.49 159.22 104.36 159.26 C 105.22 159.30 105.95 158.63 105.99 157.77 L 106.04 156.75 C 106.07 155.89 105.41 155.16 104.55 155.12 C 103.68 155.08 102.95 155.75 102.91 156.61 Z M 102.87 157.63 L 102.82 158.61 C 102.79 159.48 103.46 160.20 104.32 160.24 C 105.18 160.28 105.91 159.61 105.95 158.75 L 105.99 157.76 C 106.03 156.90 105.36 156.17 104.49 156.14 C 103.63 156.10 102.90 156.77 102.87 157.63 Z M 102.82 158.62 L 102.78 159.62 C 102.75 160.48 103.42 161.21 104.29 161.24 C 105.15 161.27 105.88 160.60 105.91 159.74 L 105.95 158.74 C 105.98 157.88 105.31 157.15 104.45 157.12 C 103.58 157.08 102.86 157.76 102.82 158.62 Z M 102.78 159.62 L 102.75 160.63 C 102.72 161.49 103.39 162.22 104.26 162.25 C 105.12 162.28 105.84 161.60 105.87 160.74 L 105.91 159.73 C 105.94 158.87 105.27 158.14 104.40 158.11 C 103.54 158.08 102.81 158.76 102.78 159.62 Z M 102.75 160.63 L 102.71 161.64 C 102.69 162.51 103.37 163.23 104.23 163.26 C 105.09 163.29 105.82 162.61 105.84 161.74 L 105.88 160.73 C 105.90 159.87 105.22 159.15 104.36 159.12 C 103.50 159.09 102.77 159.77 102.75 160.63 Z M 102.71 161.65 L 102.69 162.66 C 102.66 163.52 103.34 164.25 104.21 164.27 C 105.07 164.29 105.79 163.61 105.82 162.75 L 105.84 161.74 C 105.87 160.87 105.19 160.15 104.32 160.13 C 103.46 160.10 102.74 160.79 102.71 161.65 Z M 102.68 162.67 L 102.66 163.67 C 102.64 164.54 103.32 165.26 104.19 165.28 C 105.05 165.30 105.77 164.61 105.79 163.75 L 105.82 162.74 C 105.84 161.88 105.15 161.16 104.29 161.14 C 103.42 161.12 102.71 161.80 102.68 162.67 Z M 102.66 163.68 L 102.64 164.68 C 102.62 165.54 103.31 166.26 104.17 166.27 C 105.04 166.29 105.75 165.60 105.77 164.74 L 105.79 163.74 C 105.81 162.88 105.12 162.16 104.26 162.14 C 103.39 162.13 102.68 162.81 102.66 163.68 Z M 102.64 164.68 L 102.62 165.71 C 102.61 166.58 103.30 167.29 104.17 167.30 C 105.03 167.32 105.74 166.62 105.76 165.76 L 105.77 164.73 C 105.79 163.87 105.10 163.15 104.23 163.14 C 103.36 163.13 102.65 163.82 102.64 164.68 Z M 102.62 165.72 L 102.61 166.73 C 102.60 167.60 103.29 168.31 104.16 168.32 C 105.03 168.33 105.74 167.63 105.75 166.77 L 105.76 165.75 C 105.77 164.89 105.07 164.18 104.21 164.17 C 103.34 164.16 102.63 164.85 102.62 165.72 Z M 102.61 166.74 L 102.60 167.74 C 102.59 168.61 103.29 169.31 104.16 169.32 C 105.03 169.33 105.73 168.63 105.74 167.76 L 105.75 166.76 C 105.76 165.89 105.06 165.18 104.19 165.18 C 103.32 165.17 102.62 165.87 102.61 166.74 Z M 102.60 167.74 L 102.59 168.74 C 102.59 169.61 103.29 170.31 104.16 170.32 C 105.03 170.32 105.73 169.62 105.74 168.75 L 105.74 167.76 C 105.75 166.89 105.05 166.18 104.18 166.18 C 103.31 166.18 102.60 166.88 102.60 167.74 Z M 102.59 168.74 L 102.59 169.73 C 102.59 170.60 103.29 171.31 104.16 171.31 C 105.03 171.31 105.73 170.61 105.74 169.74 L 105.74 168.75 C 105.74 167.88 105.04 167.18 104.17 167.17 C 103.30 167.17 102.60 167.87 102.59 168.74 Z M 102.59 169.73 L 102.59 170.72 C 102.59 171.59 103.29 172.30 104.16 172.30 C 105.03 172.30 105.73 171.59 105.74 170.73 L 105.74 169.74 C 105.74 168.87 105.03 168.16 104.16 168.16 C 103.30 168.16 102.59 168.87 102.59 169.73 Z M 102.59 170.72 L 102.59 171.71 C 102.59 172.58 103.29 173.28 104.16 173.29 C 105.03 173.29 105.74 172.58 105.74 171.71 L 105.74 170.72 C 105.74 169.85 105.03 169.15 104.16 169.15 C 103.29 169.15 102.59 169.85 102.59 170.72 Z M 102.59 171.71 L 102.59 172.71 C 102.59 173.58 103.29 174.28 104.16 174.28 C 105.03 174.28 105.74 173.58 105.74 172.71 L 105.74 171.71 C 105.74 170.84 105.03 170.13 104.16 170.13 C 103.29 170.13 102.59 170.84 102.59 171.71 Z M 102.59 172.71 L 102.59 173.71 C 102.59 174.58 103.29 175.29 104.16 175.29 C 105.03 175.29 105.74 174.58 105.74 173.71 L 105.74 172.71 C 105.74 171.84 105.03 171.13 104.16 171.13 C 103.29 171.13 102.58 171.84 102.59 172.71 Z M 102.58 173.71 L 102.59 174.72 C 102.59 175.59 103.29 176.29 104.16 176.29 C 105.04 176.29 105.74 175.58 105.74 174.71 L 105.74 173.71 C 105.74 172.84 105.03 172.13 104.16 172.13 C 103.29 172.13 102.58 172.84 102.58 173.71 Z M 102.59 174.72 L 102.59 175.72 C 102.59 176.59 103.30 177.30 104.17 177.29 C 105.04 177.29 105.74 176.58 105.74 175.71 L 105.74 174.71 C 105.74 173.84 105.03 173.13 104.16 173.14 C 103.29 173.14 102.58 173.85 102.59 174.72 Z M 102.59 175.72 L 102.59 176.72 C 102.59 177.59 103.30 178.30 104.17 178.30 C 105.05 178.29 105.75 177.58 105.75 176.71 L 105.74 175.71 C 105.74 174.84 105.03 174.13 104.16 174.14 C 103.29 174.14 102.58 174.85 102.59 175.72 Z M 102.59 176.73 L 102.59 177.72 C 102.60 178.60 103.31 179.30 104.18 179.30 C 105.05 179.29 105.76 178.58 105.75 177.71 L 105.75 176.71 C 105.74 175.84 105.03 175.13 104.16 175.14 C 103.29 175.14 102.58 175.85 102.59 176.73 Z M 102.59 177.73 L 102.60 178.72 C 102.61 179.59 103.32 180.30 104.19 180.29 C 105.07 180.28 105.77 179.57 105.76 178.70 L 105.75 177.70 C 105.75 176.83 105.03 176.13 104.16 176.14 C 103.29 176.14 102.59 176.85 102.59 177.73 Z M 102.60 178.73 L 102.61 179.74 C 102.62 180.61 103.33 181.31 104.21 181.30 C 105.08 181.30 105.78 180.58 105.77 179.71 L 105.76 178.69 C 105.75 177.82 105.04 177.12 104.17 177.13 C 103.29 177.14 102.59 177.85 102.60 178.73 Z M 102.61 179.75 L 102.63 180.76 C 102.64 181.64 103.36 182.33 104.23 182.32 C 105.10 182.31 105.80 181.59 105.79 180.72 L 105.77 179.70 C 105.76 178.83 105.04 178.13 104.17 178.14 C 103.30 178.16 102.60 178.87 102.61 179.75 Z M 102.62 180.77 L 102.65 181.78 C 102.66 182.66 103.39 183.35 104.26 183.33 C 105.13 183.31 105.83 182.59 105.81 181.72 L 105.79 180.71 C 105.77 179.84 105.05 179.14 104.17 179.16 C 103.30 179.18 102.61 179.90 102.62 180.77 Z M 102.65 181.80 L 102.68 182.80 C 102.70 183.67 103.43 184.36 104.30 184.34 C 105.18 184.31 105.86 183.58 105.84 182.71 L 105.81 181.71 C 105.78 180.83 105.05 180.14 104.18 180.17 C 103.31 180.20 102.62 180.92 102.65 181.80 Z M 102.68 182.82 L 102.72 183.81 C 102.75 184.68 103.49 185.36 104.36 185.33 C 105.23 185.29 105.91 184.56 105.88 183.68 L 105.84 182.69 C 105.80 181.82 105.07 181.14 104.19 181.17 C 103.32 181.21 102.64 181.94 102.68 182.82 Z M 102.72 183.83 L 102.77 184.82 C 102.81 185.69 103.56 186.36 104.43 186.31 C 105.31 186.27 105.98 185.52 105.93 184.65 L 105.88 183.66 C 105.83 182.79 105.09 182.12 104.21 182.17 C 103.34 182.21 102.67 182.96 102.72 183.83 Z M 102.77 184.84 L 102.84 185.82 C 102.90 186.69 103.65 187.35 104.52 187.29 C 105.40 187.23 106.06 186.47 106.00 185.60 L 105.93 184.62 C 105.87 183.75 105.11 183.09 104.24 183.15 C 103.37 183.21 102.71 183.97 102.77 184.84 Z M 102.84 185.84 L 102.93 186.86 C 103.00 187.73 103.77 188.38 104.64 188.30 C 105.51 188.22 106.16 187.46 106.08 186.58 L 105.99 185.57 C 105.92 184.70 105.15 184.05 104.28 184.13 C 103.41 184.20 102.76 184.97 102.84 185.84 Z M 102.93 186.89 L 103.03 187.90 C 103.13 188.77 103.91 189.40 104.78 189.31 C 105.65 189.22 106.28 188.44 106.19 187.57 L 106.08 186.56 C 105.99 185.69 105.21 185.05 104.34 185.15 C 103.47 185.24 102.84 186.02 102.93 186.89 Z M 103.04 187.93 L 103.16 188.93 C 103.26 189.79 104.05 190.41 104.92 190.31 C 105.79 190.20 106.41 189.41 106.31 188.54 L 106.18 187.54 C 106.08 186.67 105.29 186.05 104.42 186.16 C 103.55 186.27 102.93 187.06 103.04 187.93 Z M 103.16 188.95 L 103.30 189.94 C 103.41 190.81 104.21 191.41 105.08 191.29 C 105.95 191.18 106.56 190.38 106.44 189.51 L 106.30 188.52 C 106.18 187.65 105.38 187.04 104.52 187.16 C 103.65 187.28 103.04 188.08 103.16 188.95 Z M 103.30 189.96 L 103.45 190.94 C 103.58 191.80 104.38 192.40 105.25 192.27 C 106.12 192.14 106.71 191.33 106.58 190.47 L 106.44 189.49 C 106.31 188.62 105.50 188.02 104.63 188.15 C 103.77 188.28 103.17 189.09 103.30 189.96 Z M 103.45 190.95 L 103.60 191.92 C 103.74 192.79 104.56 193.37 105.42 193.23 C 106.29 193.10 106.88 192.28 106.74 191.42 L 106.58 190.45 C 106.44 189.58 105.63 188.99 104.76 189.13 C 103.90 189.27 103.31 190.09 103.45 190.95 Z M 103.61 191.94 L 103.77 192.91 C 103.92 193.77 104.74 194.35 105.60 194.20 C 106.47 194.06 107.05 193.24 106.90 192.37 L 106.73 191.40 C 106.59 190.54 105.77 189.96 104.90 190.10 C 104.04 190.25 103.46 191.07 103.61 191.94 Z M 103.77 192.92 L 103.95 193.91 C 104.11 194.77 104.93 195.34 105.79 195.19 C 106.66 195.03 107.23 194.21 107.08 193.34 L 106.90 192.36 C 106.74 191.50 105.92 190.92 105.06 191.08 C 104.19 191.23 103.62 192.06 103.77 192.92 Z M 103.95 193.92 L 104.14 194.90 C 104.30 195.76 105.13 196.32 105.99 196.16 C 106.85 196.00 107.42 195.17 107.26 194.31 L 107.07 193.33 C 106.91 192.47 106.08 191.90 105.22 192.07 C 104.36 192.23 103.79 193.06 103.95 193.92 Z M 104.14 194.91 L 104.33 195.88 C 104.50 196.74 105.33 197.30 106.19 197.14 C 107.05 196.97 107.61 196.14 107.44 195.28 L 107.25 194.30 C 107.09 193.44 106.25 192.88 105.39 193.05 C 104.53 193.21 103.97 194.05 104.14 194.91 Z M 104.33 195.89 L 104.53 196.87 C 104.70 197.73 105.54 198.28 106.40 198.11 C 107.26 197.94 107.81 197.10 107.64 196.24 L 107.44 195.27 C 107.27 194.41 106.43 193.85 105.57 194.02 C 104.71 194.20 104.16 195.03 104.33 195.89 Z M 104.53 196.88 L 104.74 197.86 C 104.92 198.72 105.75 199.27 106.61 199.09 C 107.47 198.91 108.02 198.07 107.84 197.21 L 107.64 196.23 C 107.46 195.38 106.62 194.83 105.76 195.00 C 104.90 195.18 104.35 196.02 104.53 196.88 Z M 104.74 197.87 L 104.95 198.86 C 105.13 199.72 105.98 200.26 106.83 200.08 C 107.69 199.90 108.23 199.05 108.05 198.20 L 107.84 197.21 C 107.66 196.35 106.81 195.80 105.96 195.99 C 105.10 196.17 104.56 197.01 104.74 197.87 Z M 104.95 198.87 L 105.17 199.87 C 105.36 200.72 106.20 201.26 107.06 201.08 C 107.91 200.89 108.46 200.05 108.27 199.19 L 108.05 198.19 C 107.86 197.33 107.02 196.79 106.16 196.98 C 105.31 197.17 104.76 198.01 104.95 198.87 Z M 105.17 199.88 L 105.40 200.88 C 105.59 201.73 106.44 202.27 107.29 202.08 C 108.15 201.88 108.68 201.04 108.49 200.18 L 108.27 199.18 C 108.07 198.33 107.22 197.79 106.37 197.98 C 105.52 198.18 104.98 199.02 105.17 199.88 Z M 105.40 200.89 L 105.64 201.88 C 105.84 202.74 106.69 203.26 107.54 203.06 C 108.39 202.86 108.92 202.01 108.72 201.16 L 108.49 200.17 C 108.29 199.32 107.44 198.79 106.58 198.99 C 105.73 199.19 105.20 200.04 105.40 200.89 Z M 105.64 201.90 L 105.88 202.87 C 106.09 203.72 106.95 204.24 107.80 204.03 C 108.65 203.82 109.16 202.97 108.96 202.12 L 108.72 201.14 C 108.51 200.29 107.65 199.78 106.80 199.98 C 105.95 200.19 105.43 201.05 105.64 201.90 Z M 105.89 202.89 L 106.13 203.84 C 106.35 204.69 107.22 205.19 108.06 204.97 C 108.91 204.75 109.42 203.89 109.20 203.04 L 108.95 202.10 C 108.73 201.25 107.86 200.74 107.02 200.96 C 106.17 201.18 105.67 202.05 105.89 202.89 Z M 106.14 203.87 L 106.39 204.78 C 106.63 205.62 107.50 206.11 108.34 205.88 C 109.19 205.64 109.68 204.77 109.44 203.93 L 109.19 203.02 C 108.95 202.18 108.08 201.68 107.24 201.92 C 106.40 202.15 105.91 203.03 106.14 203.87 Z M 106.40 204.81 L 106.71 205.84 C 106.97 206.67 107.85 207.15 108.69 206.89 C 109.52 206.64 110.00 205.76 109.74 204.92 L 109.43 203.90 C 109.18 203.06 108.30 202.59 107.46 202.84 C 106.62 203.09 106.15 203.97 106.40 204.81 Z M 106.73 205.87 L 107.05 206.85 C 107.32 207.68 108.21 208.13 109.04 207.86 C 109.87 207.59 110.32 206.69 110.05 205.86 L 109.73 204.89 C 109.46 204.06 108.57 203.61 107.74 203.88 C 106.91 204.15 106.46 205.04 106.73 205.87 Z M 107.06 206.88 L 107.39 207.82 C 107.68 208.64 108.58 209.07 109.41 208.78 C 110.23 208.49 110.66 207.59 110.37 206.76 L 110.04 205.83 C 109.75 205.01 108.85 204.58 108.02 204.87 C 107.20 205.16 106.77 206.06 107.06 206.88 Z M 107.40 207.85 L 107.74 208.75 C 108.05 209.57 108.96 209.98 109.77 209.67 C 110.59 209.37 111.00 208.46 110.70 207.64 L 110.36 206.74 C 110.05 205.92 109.14 205.51 108.32 205.81 C 107.51 206.12 107.10 207.03 107.40 207.85 Z M 107.75 208.77 L 108.10 209.66 C 108.42 210.47 109.34 210.87 110.15 210.55 C 110.96 210.23 111.36 209.31 111.04 208.50 L 110.69 207.62 C 110.37 206.81 109.45 206.41 108.64 206.73 C 107.83 207.05 107.43 207.96 107.75 208.77 Z M 108.11 209.68 L 108.49 210.60 C 108.82 211.41 109.74 211.79 110.55 211.46 C 111.35 211.13 111.74 210.21 111.41 209.41 L 111.03 208.48 C 110.70 207.68 109.78 207.29 108.97 207.62 C 108.17 207.95 107.78 208.87 108.11 209.68 Z M 108.50 210.62 L 108.90 211.55 C 109.24 212.35 110.16 212.72 110.96 212.38 C 111.76 212.04 112.13 211.11 111.79 210.31 L 111.40 209.38 C 111.05 208.58 110.13 208.21 109.33 208.56 C 108.53 208.90 108.16 209.82 108.50 210.62 Z M 108.91 211.58 L 109.32 212.49 C 109.68 213.28 110.61 213.64 111.40 213.28 C 112.19 212.92 112.55 211.99 112.19 211.20 L 111.78 210.28 C 111.42 209.49 110.49 209.14 109.70 209.49 C 108.90 209.85 108.55 210.78 108.91 211.58 Z M 109.33 212.52 L 109.76 213.42 C 110.14 214.20 111.08 214.54 111.86 214.16 C 112.65 213.79 112.98 212.85 112.60 212.07 L 112.18 211.17 C 111.80 210.38 110.86 210.05 110.08 210.42 C 109.29 210.80 108.96 211.74 109.33 212.52 Z M 109.78 213.46 L 110.23 214.34 C 110.62 215.11 111.57 215.42 112.35 215.03 C 113.12 214.63 113.43 213.68 113.03 212.91 L 112.59 212.03 C 112.19 211.25 111.24 210.95 110.47 211.34 C 109.70 211.73 109.39 212.68 109.78 213.46 Z M 110.25 214.38 L 110.74 215.27 C 111.16 216.03 112.11 216.31 112.87 215.89 C 113.64 215.48 113.92 214.52 113.50 213.76 L 113.01 212.87 C 112.59 212.11 111.64 211.83 110.88 212.24 C 110.11 212.66 109.83 213.62 110.25 214.38 Z M 110.76 215.31 L 111.27 216.18 C 111.71 216.93 112.67 217.18 113.42 216.74 C 114.17 216.30 114.42 215.34 113.99 214.59 L 113.48 213.72 C 113.04 212.97 112.07 212.72 111.32 213.16 C 110.57 213.59 110.32 214.56 110.76 215.31 Z M 111.29 216.21 L 111.82 217.06 C 112.28 217.80 113.25 218.02 113.99 217.56 C 114.73 217.10 114.95 216.13 114.49 215.40 L 113.96 214.55 C 113.50 213.81 112.53 213.59 111.80 214.05 C 111.06 214.51 110.83 215.48 111.29 216.21 Z M 111.84 217.09 L 112.39 217.92 C 112.87 218.65 113.84 218.85 114.57 218.37 C 115.29 217.89 115.49 216.92 115.02 216.19 L 114.47 215.36 C 113.99 214.64 113.02 214.44 112.29 214.92 C 111.57 215.39 111.37 216.37 111.84 217.09 Z M 112.41 217.95 L 112.97 218.77 C 113.47 219.48 114.45 219.66 115.16 219.16 C 115.87 218.67 116.05 217.69 115.56 216.98 L 115.00 216.16 C 114.50 215.45 113.52 215.27 112.81 215.76 C 112.09 216.26 111.91 217.24 112.41 217.95 Z M 112.99 218.79 L 113.59 219.61 C 114.10 220.32 115.08 220.47 115.78 219.96 C 116.49 219.45 116.64 218.47 116.13 217.77 L 115.54 216.95 C 115.03 216.25 114.05 216.09 113.34 216.60 C 112.64 217.11 112.48 218.09 112.99 218.79 Z M 113.62 219.65 L 114.23 220.44 C 114.75 221.13 115.74 221.26 116.43 220.73 C 117.11 220.21 117.24 219.22 116.72 218.53 L 116.11 217.74 C 115.58 217.05 114.59 216.92 113.91 217.45 C 113.22 217.97 113.09 218.96 113.62 219.65 Z M 114.26 220.48 L 114.89 221.25 C 115.44 221.92 116.42 222.02 117.09 221.47 C 117.76 220.92 117.86 219.94 117.31 219.27 L 116.68 218.50 C 116.14 217.83 115.15 217.73 114.48 218.28 C 113.81 218.82 113.71 219.81 114.26 220.48 Z M 114.93 221.29 L 115.58 222.03 C 116.15 222.68 117.14 222.75 117.79 222.18 C 118.43 221.61 118.50 220.62 117.93 219.97 L 117.28 219.23 C 116.71 218.58 115.72 218.51 115.07 219.08 C 114.42 219.65 114.36 220.64 114.93 221.29 Z M 115.62 222.08 L 116.30 222.79 C 116.90 223.42 117.89 223.44 118.51 222.85 C 119.14 222.26 119.16 221.27 118.57 220.64 L 117.89 219.93 C 117.29 219.30 116.30 219.28 115.68 219.87 C 115.05 220.46 115.03 221.45 115.62 222.08 Z M 116.35 222.84 L 117.06 223.53 C 117.68 224.13 118.66 224.11 119.26 223.49 C 119.87 222.88 119.85 221.89 119.23 221.29 L 118.52 220.60 C 117.90 220.00 116.92 220.01 116.31 220.63 C 115.71 221.25 115.73 222.24 116.35 222.84 Z M 117.10 223.57 L 117.84 224.23 C 118.48 224.81 119.47 224.76 120.04 224.12 C 120.62 223.48 120.57 222.49 119.93 221.91 L 119.19 221.25 C 118.55 220.67 117.56 220.72 116.99 221.36 C 116.41 222.00 116.46 222.99 117.10 223.57 Z M 117.88 224.27 L 118.64 224.91 C 119.30 225.47 120.29 225.39 120.84 224.73 C 121.40 224.07 121.32 223.08 120.66 222.53 L 119.89 221.88 C 119.23 221.32 118.25 221.41 117.69 222.07 C 117.13 222.72 117.22 223.71 117.88 224.27 Z M 118.68 224.94 L 119.48 225.58 C 120.15 226.11 121.13 226.00 121.67 225.33 C 122.21 224.65 122.10 223.67 121.42 223.13 L 120.62 222.50 C 119.95 221.96 118.97 222.07 118.43 222.75 C 117.89 223.42 118.00 224.41 118.68 224.94 Z M 119.51 225.60 L 120.31 226.21 C 121.00 226.73 121.98 226.59 122.50 225.91 C 123.02 225.22 122.88 224.24 122.20 223.72 L 121.39 223.11 C 120.70 222.59 119.72 222.73 119.20 223.41 C 118.68 224.10 118.82 225.08 119.51 225.60 Z M 120.35 226.24 L 121.18 226.83 C 121.88 227.33 122.85 227.16 123.35 226.46 C 123.85 225.76 123.69 224.78 122.99 224.28 L 122.16 223.69 C 121.46 223.19 120.48 223.36 119.98 224.06 C 119.48 224.76 119.65 225.74 120.35 226.24 Z M 121.22 226.85 L 122.06 227.41 C 122.77 227.89 123.74 227.69 124.22 226.98 C 124.70 226.26 124.50 225.29 123.79 224.81 L 122.95 224.25 C 122.23 223.78 121.26 223.97 120.78 224.69 C 120.31 225.41 120.50 226.38 121.22 226.85 Z M 122.11 227.44 L 122.95 227.96 C 123.68 228.41 124.64 228.17 125.09 227.44 C 125.54 226.70 125.31 225.74 124.57 225.29 L 123.73 224.78 C 123.00 224.33 122.04 224.56 121.59 225.30 C 121.14 226.03 121.37 226.99 122.11 227.44 Z M 123.01 227.99 L 123.90 228.48 C 124.65 228.89 125.60 228.62 126.02 227.86 C 126.43 227.10 126.15 226.15 125.40 225.74 L 124.51 225.26 C 123.75 224.84 122.80 225.12 122.39 225.88 C 121.98 226.63 122.25 227.58 123.01 227.99 Z M 123.97 228.52 L 124.90 228.96 C 125.67 229.33 126.61 229.00 126.98 228.23 C 127.35 227.45 127.02 226.52 126.24 226.14 L 125.32 225.70 C 124.54 225.33 123.61 225.66 123.24 226.44 C 122.87 227.21 123.20 228.15 123.97 228.52 Z M 124.97 228.99 L 125.89 229.37 C 126.68 229.70 127.60 229.33 127.93 228.53 C 128.26 227.74 127.88 226.82 127.09 226.49 L 126.17 226.11 C 125.37 225.78 124.46 226.16 124.13 226.95 C 123.80 227.75 124.18 228.66 124.97 228.99 Z M 125.96 229.40 L 126.87 229.73 C 127.68 230.03 128.58 229.61 128.87 228.79 C 129.16 227.98 128.74 227.09 127.93 226.80 L 127.02 226.46 C 126.21 226.17 125.31 226.59 125.02 227.40 C 124.73 228.21 125.14 229.11 125.96 229.40 Z M 126.93 229.75 L 127.86 230.05 C 128.69 230.31 129.56 229.86 129.82 229.04 C 130.09 228.21 129.63 227.34 128.81 227.07 L 127.88 226.78 C 127.05 226.51 126.18 226.97 125.91 227.79 C 125.65 228.61 126.11 229.49 126.93 229.75 Z M 127.91 230.06 L 128.87 230.34 C 129.70 230.57 130.57 230.09 130.80 229.26 C 131.04 228.43 130.56 227.57 129.73 227.33 L 128.76 227.06 C 127.93 226.82 127.07 227.31 126.84 228.14 C 126.60 228.96 127.08 229.83 127.91 230.06 Z M 128.91 230.35 L 129.88 230.60 C 130.72 230.81 131.57 230.31 131.78 229.47 C 132.00 228.64 131.49 227.79 130.66 227.57 L 129.69 227.32 C 128.85 227.11 128.00 227.61 127.79 228.45 C 127.57 229.28 128.08 230.13 128.91 230.35 Z M 129.91 230.60 L 130.88 230.83 C 131.72 231.03 132.56 230.51 132.76 229.67 C 132.96 228.84 132.44 227.99 131.60 227.80 L 130.63 227.56 C 129.79 227.37 128.95 227.88 128.75 228.72 C 128.55 229.56 129.07 230.40 129.91 230.60 Z M 130.90 230.84 L 131.88 231.06 C 132.72 231.25 133.55 230.72 133.74 229.88 C 133.93 229.03 133.40 228.20 132.56 228.01 L 131.58 227.79 C 130.74 227.60 129.91 228.13 129.72 228.97 C 129.53 229.81 130.06 230.65 130.90 230.84 Z M 131.89 231.06 L 132.88 231.27 C 133.72 231.45 134.55 230.91 134.73 230.07 C 134.91 229.22 134.37 228.39 133.52 228.21 L 132.54 228.01 C 131.70 227.83 130.87 228.37 130.69 229.21 C 130.51 230.05 131.05 230.88 131.89 231.06 Z M 132.90 231.27 L 133.89 231.46 C 134.73 231.63 135.55 231.07 135.72 230.23 C 135.88 229.38 135.33 228.56 134.48 228.40 L 133.50 228.21 C 132.65 228.05 131.83 228.60 131.67 229.45 C 131.50 230.29 132.06 231.11 132.90 231.27 Z M 133.92 231.47 L 134.91 231.64 C 135.76 231.78 136.56 231.20 136.70 230.35 C 136.85 229.50 136.27 228.70 135.42 228.56 L 134.44 228.39 C 133.59 228.25 132.79 228.82 132.64 229.67 C 132.50 230.52 133.07 231.33 133.92 231.47 Z M 134.95 231.64 L 135.95 231.78 C 136.81 231.89 137.59 231.30 137.71 230.44 C 137.82 229.59 137.23 228.80 136.37 228.68 L 135.37 228.55 C 134.52 228.43 133.73 229.03 133.62 229.89 C 133.50 230.74 134.10 231.53 134.95 231.64 Z M 136.00 231.78 L 137.00 231.89 C 137.86 231.98 138.63 231.36 138.72 230.50 C 138.81 229.64 138.18 228.87 137.33 228.78 L 136.32 228.68 C 135.47 228.59 134.70 229.21 134.61 230.07 C 134.52 230.93 135.14 231.69 136.00 231.78 Z M 137.04 231.89 L 138.04 231.97 C 138.90 232.04 139.65 231.40 139.72 230.54 C 139.79 229.68 139.15 228.93 138.29 228.86 L 137.29 228.78 C 136.43 228.71 135.68 229.35 135.61 230.21 C 135.54 231.07 136.18 231.82 137.04 231.89 Z M 138.07 231.97 L 139.05 232.03 C 139.91 232.09 140.65 231.43 140.71 230.57 C 140.76 229.71 140.11 228.97 139.24 228.92 L 138.26 228.86 C 137.40 228.80 136.66 229.46 136.60 230.32 C 136.55 231.18 137.21 231.92 138.07 231.97 Z M 139.07 232.04 L 140.06 232.09 C 140.93 232.13 141.66 231.47 141.70 230.61 C 141.75 229.75 141.09 229.01 140.23 228.97 L 139.23 228.92 C 138.37 228.87 137.63 229.54 137.59 230.40 C 137.54 231.26 138.21 231.99 139.07 232.04 Z M 140.08 232.09 L 141.07 232.13 C 141.94 232.17 142.66 231.50 142.70 230.64 C 142.74 229.77 142.07 229.05 141.21 229.01 L 140.21 228.97 C 139.35 228.93 138.62 229.60 138.59 230.46 C 138.55 231.32 139.22 232.05 140.08 232.09 Z M 141.09 232.13 L 142.08 232.16 C 142.95 232.19 143.67 231.51 143.70 230.65 C 143.72 229.79 143.05 229.07 142.19 229.04 L 141.19 229.01 C 140.33 228.98 139.61 229.66 139.58 230.52 C 139.55 231.38 140.23 232.10 141.09 232.13 Z M 142.10 232.16 L 143.10 232.18 C 143.96 232.20 144.67 231.52 144.69 230.66 C 144.71 229.80 144.03 229.08 143.17 229.06 L 142.17 229.04 C 141.31 229.02 140.59 229.71 140.57 230.57 C 140.56 231.43 141.24 232.14 142.10 232.16 Z M 143.11 232.19 L 144.05 232.20 C 144.92 232.21 145.62 231.52 145.63 230.66 C 145.65 229.79 144.96 229.09 144.09 229.08 L 143.15 229.06 C 142.29 229.05 141.58 229.74 141.57 230.60 C 141.56 231.47 142.25 232.17 143.11 232.19 Z M 144.06 232.20 L 145.04 232.20 C 145.90 232.21 146.60 231.51 146.61 230.65 C 146.61 229.79 145.92 229.09 145.06 229.08 L 144.08 229.08 C 143.22 229.07 142.52 229.76 142.51 230.63 C 142.51 231.49 143.20 232.19 144.06 232.20 Z M 145.04 232.20 L 146.06 232.21 C 146.93 232.21 147.63 231.51 147.63 230.65 C 147.63 229.79 146.93 229.09 146.07 229.08 L 145.05 229.08 C 144.19 229.08 143.49 229.78 143.49 230.64 C 143.48 231.50 144.18 232.20 145.04 232.20 Z M 146.07 232.21 L 147.13 232.21 C 148.00 232.21 148.69 231.51 148.69 230.65 C 148.69 229.78 148.00 229.08 147.13 229.08 L 146.07 229.08 C 145.20 229.08 144.51 229.78 144.51 230.64 C 144.50 231.51 145.20 232.21 146.07 232.21 Z M 147.14 232.21 L 148.09 232.20 C 148.96 232.20 149.65 231.50 149.65 230.64 C 149.65 229.77 148.95 229.08 148.08 229.08 L 147.13 229.08 C 146.27 229.09 145.57 229.79 145.57 230.65 C 145.57 231.51 146.28 232.21 147.14 232.21 Z M 148.12 232.20 L 149.11 232.18 C 149.97 232.17 150.66 231.46 150.64 230.59 C 150.62 229.73 149.91 229.05 149.05 229.06 L 148.06 229.08 C 147.20 229.10 146.51 229.81 146.53 230.67 C 146.54 231.53 147.26 232.22 148.12 232.20 Z M 149.15 232.18 L 150.17 232.13 C 151.03 232.09 151.69 231.36 151.65 230.50 C 151.61 229.64 150.88 228.97 150.02 229.02 L 149.00 229.06 C 148.14 229.11 147.48 229.84 147.52 230.70 C 147.56 231.56 148.29 232.22 149.15 232.18 Z M 150.23 232.13 L 151.25 232.04 C 152.11 231.96 152.75 231.20 152.67 230.34 C 152.59 229.48 151.83 228.85 150.97 228.93 L 149.95 229.02 C 149.09 229.10 148.46 229.86 148.54 230.72 C 148.62 231.58 149.38 232.21 150.23 232.13 Z M 151.34 232.03 L 152.34 231.88 C 153.19 231.75 153.78 230.95 153.65 230.10 C 153.53 229.25 152.73 228.66 151.88 228.79 L 150.88 228.94 C 150.03 229.06 149.44 229.86 149.57 230.71 C 149.70 231.57 150.49 232.15 151.34 232.03 Z M 152.44 231.86 L 153.38 231.66 C 154.22 231.47 154.76 230.64 154.58 229.80 C 154.39 228.96 153.56 228.42 152.72 228.60 L 151.78 228.81 C 150.94 228.99 150.40 229.82 150.58 230.66 C 150.76 231.50 151.59 232.04 152.44 231.86 Z M 153.46 231.63 L 154.40 231.38 C 155.23 231.15 155.72 230.29 155.49 229.46 C 155.26 228.62 154.40 228.14 153.57 228.37 L 152.63 228.62 C 151.80 228.85 151.31 229.71 151.54 230.55 C 151.77 231.38 152.63 231.86 153.46 231.63 Z M 154.47 231.35 L 155.42 231.04 C 156.24 230.77 156.68 229.89 156.42 229.07 C 156.15 228.25 155.26 227.81 154.44 228.08 L 153.50 228.39 C 152.68 228.66 152.23 229.54 152.50 230.36 C 152.77 231.18 153.66 231.62 154.47 231.35 Z M 155.48 231.02 L 156.44 230.66 C 157.25 230.36 157.66 229.46 157.36 228.66 C 157.06 227.85 156.16 227.44 155.35 227.74 L 154.39 228.10 C 153.58 228.40 153.17 229.30 153.47 230.11 C 153.77 230.91 154.67 231.32 155.48 231.02 Z M 156.48 230.65 L 157.46 230.25 C 158.26 229.93 158.64 229.01 158.32 228.22 C 158.00 227.42 157.08 227.03 156.29 227.36 L 155.31 227.76 C 154.51 228.08 154.12 228.99 154.45 229.79 C 154.77 230.59 155.68 230.97 156.48 230.65 Z M 157.49 230.24 L 158.45 229.83 C 159.24 229.49 159.60 228.57 159.26 227.77 C 158.92 226.98 158.00 226.62 157.21 226.96 L 156.26 227.37 C 155.46 227.71 155.10 228.63 155.44 229.42 C 155.78 230.21 156.70 230.58 157.49 230.24 Z M 158.47 229.82 L 159.43 229.38 C 160.21 229.03 160.56 228.11 160.21 227.32 C 159.85 226.53 158.93 226.18 158.14 226.54 L 157.19 226.97 C 156.40 227.32 156.05 228.25 156.40 229.03 C 156.76 229.82 157.68 230.17 158.47 229.82 Z M 159.45 229.38 L 160.38 228.94 C 161.16 228.57 161.50 227.64 161.13 226.86 C 160.77 226.08 159.84 225.74 159.06 226.11 L 158.12 226.55 C 157.34 226.91 157.00 227.84 157.37 228.62 C 157.74 229.40 158.67 229.74 159.45 229.38 Z M 160.40 228.93 L 161.29 228.50 C 162.07 228.12 162.39 227.19 162.02 226.41 C 161.64 225.63 160.70 225.31 159.93 225.69 L 159.04 226.12 C 158.26 226.49 157.94 227.43 158.31 228.20 C 158.69 228.98 159.63 229.30 160.40 228.93 Z M 161.31 228.49 L 162.13 228.07 C 162.90 227.69 163.21 226.75 162.83 225.98 C 162.44 225.21 161.50 224.90 160.73 225.28 L 159.91 225.70 C 159.14 226.08 158.83 227.02 159.22 227.79 C 159.60 228.56 160.54 228.87 161.31 228.49 Z M 162.16 228.06 L 163.13 227.55 C 163.90 227.15 164.19 226.20 163.79 225.44 C 163.39 224.68 162.45 224.38 161.68 224.78 L 160.71 225.30 C 159.94 225.70 159.65 226.64 160.05 227.40 C 160.45 228.17 161.39 228.46 162.16 228.06 Z M 163.17 227.53 L 164.07 227.03 C 164.83 226.61 165.10 225.66 164.68 224.90 C 164.26 224.15 163.31 223.88 162.55 224.30 L 161.65 224.80 C 160.90 225.22 160.62 226.17 161.04 226.92 C 161.46 227.68 162.41 227.95 163.17 227.53 Z M 164.10 227.01 L 164.90 226.54 C 165.65 226.10 165.90 225.14 165.46 224.40 C 165.02 223.66 164.06 223.41 163.32 223.85 L 162.52 224.32 C 161.78 224.76 161.53 225.71 161.97 226.46 C 162.40 227.20 163.36 227.45 164.10 227.01 Z M 164.93 226.52 L 165.69 226.05 C 166.43 225.60 166.66 224.64 166.21 223.91 C 165.76 223.17 164.80 222.94 164.06 223.39 L 163.30 223.86 C 162.56 224.31 162.33 225.27 162.78 226.01 C 163.23 226.74 164.19 226.97 164.93 226.52 Z M 165.71 226.05 L 166.53 225.53 C 167.26 225.07 167.48 224.11 167.03 223.38 C 166.57 222.65 165.60 222.43 164.87 222.88 L 164.05 223.40 C 163.32 223.86 163.10 224.82 163.55 225.55 C 164.01 226.28 164.98 226.50 165.71 226.05 Z M 166.55 225.52 L 167.39 224.98 C 168.11 224.51 168.32 223.55 167.86 222.82 C 167.39 222.10 166.43 221.89 165.70 222.35 L 164.86 222.89 C 164.13 223.36 163.92 224.32 164.39 225.05 C 164.85 225.78 165.82 225.99 166.55 225.52 Z M 167.41 224.97 L 168.26 224.41 C 168.97 223.93 169.17 222.96 168.70 222.24 C 168.22 221.52 167.25 221.33 166.53 221.80 L 165.68 222.36 C 164.96 222.84 164.77 223.81 165.24 224.53 C 165.72 225.25 166.69 225.44 167.41 224.97 Z M 168.28 224.39 L 169.10 223.83 C 169.81 223.34 169.99 222.37 169.51 221.66 C 169.02 220.94 168.05 220.76 167.34 221.25 L 166.51 221.82 C 165.80 222.30 165.62 223.28 166.11 223.99 C 166.59 224.70 167.57 224.88 168.28 224.39 Z M 169.13 223.81 L 169.93 223.23 C 170.64 222.73 170.80 221.75 170.30 221.05 C 169.79 220.35 168.82 220.19 168.12 220.69 L 167.31 221.27 C 166.61 221.77 166.45 222.75 166.95 223.45 C 167.45 224.15 168.43 224.31 169.13 223.81 Z M 169.96 223.21 L 170.77 222.61 C 171.46 222.09 171.59 221.11 171.08 220.42 C 170.56 219.73 169.58 219.59 168.89 220.11 L 168.09 220.71 C 167.40 221.23 167.26 222.21 167.78 222.90 C 168.30 223.59 169.27 223.73 169.96 223.21 Z M 170.80 222.58 L 171.59 221.95 C 172.27 221.42 172.38 220.43 171.85 219.76 C 171.31 219.08 170.33 218.97 169.65 219.51 L 168.86 220.14 C 168.18 220.67 168.07 221.65 168.61 222.33 C 169.14 223.00 170.12 223.12 170.80 222.58 Z M 171.63 221.92 L 172.38 221.29 C 173.04 220.73 173.13 219.75 172.57 219.09 C 172.02 218.43 171.03 218.34 170.37 218.90 L 169.62 219.53 C 168.96 220.09 168.87 221.07 169.43 221.73 C 169.98 222.39 170.97 222.48 171.63 221.92 Z M 172.41 221.26 L 173.16 220.60 C 173.81 220.03 173.87 219.04 173.29 218.40 C 172.72 217.75 171.74 217.69 171.09 218.26 L 170.34 218.92 C 169.70 219.50 169.64 220.48 170.21 221.13 C 170.78 221.77 171.77 221.83 172.41 221.26 Z M 173.19 220.58 L 173.93 219.89 C 174.56 219.31 174.59 218.32 174.01 217.69 C 173.42 217.05 172.43 217.02 171.80 217.60 L 171.06 218.29 C 170.43 218.87 170.40 219.86 170.98 220.49 C 171.57 221.13 172.56 221.16 173.19 220.58 Z M 173.95 219.87 L 174.67 219.17 C 175.29 218.57 175.30 217.59 174.70 216.97 C 174.10 216.35 173.11 216.33 172.50 216.93 L 171.78 217.63 C 171.16 218.23 171.14 219.21 171.74 219.83 C 172.34 220.45 173.33 220.47 173.95 219.87 Z M 174.69 219.15 L 175.38 218.46 C 175.98 217.85 175.98 216.86 175.37 216.25 C 174.75 215.64 173.76 215.65 173.16 216.26 L 172.47 216.95 C 171.87 217.57 171.87 218.56 172.48 219.16 C 173.10 219.77 174.08 219.76 174.69 219.15 Z M 175.40 218.43 L 176.08 217.71 C 176.67 217.08 176.65 216.09 176.02 215.50 C 175.39 214.91 174.40 214.94 173.81 215.57 L 173.13 216.29 C 172.54 216.92 172.57 217.90 173.20 218.50 C 173.82 219.09 174.81 219.06 175.40 218.43 Z M 176.11 217.68 L 176.79 216.92 C 177.36 216.28 177.31 215.29 176.66 214.72 C 176.02 214.14 175.03 214.20 174.46 214.84 L 173.78 215.60 C 173.21 216.24 173.26 217.23 173.91 217.80 C 174.55 218.38 175.54 218.32 176.11 217.68 Z M 176.82 216.88 L 177.48 216.10 C 178.03 215.44 177.94 214.46 177.28 213.90 C 176.62 213.35 175.64 213.43 175.09 214.09 L 174.43 214.88 C 173.87 215.54 173.96 216.52 174.62 217.08 C 175.28 217.63 176.27 217.54 176.82 216.88 Z M 177.50 216.07 L 178.13 215.28 C 178.66 214.61 178.55 213.63 177.87 213.09 C 177.20 212.56 176.21 212.67 175.68 213.34 L 175.06 214.13 C 174.52 214.81 174.64 215.79 175.31 216.32 C 175.99 216.86 176.97 216.74 177.50 216.07 Z M 178.15 215.25 L 178.76 214.44 C 179.27 213.75 179.14 212.77 178.45 212.26 C 177.76 211.74 176.78 211.88 176.26 212.57 L 175.65 213.38 C 175.14 214.07 175.28 215.05 175.97 215.56 C 176.66 216.08 177.63 215.94 178.15 215.25 Z M 178.78 214.41 L 179.36 213.59 C 179.86 212.88 179.70 211.91 178.99 211.41 C 178.29 210.91 177.32 211.08 176.82 211.78 L 176.24 212.60 C 175.74 213.31 175.90 214.28 176.61 214.78 C 177.31 215.28 178.28 215.11 178.78 214.41 Z M 179.39 213.55 L 179.94 212.73 C 180.42 212.01 180.23 211.04 179.51 210.56 C 178.79 210.08 177.82 210.27 177.34 210.99 L 176.79 211.82 C 176.31 212.53 176.51 213.50 177.22 213.98 C 177.94 214.46 178.91 214.27 179.39 213.55 Z M 179.97 212.68 L 180.51 211.82 C 180.96 211.09 180.74 210.12 180.01 209.67 C 179.28 209.21 178.32 209.43 177.86 210.16 L 177.32 211.03 C 176.86 211.76 177.08 212.73 177.82 213.18 C 178.55 213.64 179.51 213.42 179.97 212.68 Z M 180.53 211.77 L 181.03 210.91 C 181.47 210.17 181.21 209.21 180.47 208.78 C 179.72 208.35 178.77 208.60 178.33 209.35 L 177.83 210.21 C 177.40 210.95 177.65 211.91 178.40 212.34 C 179.15 212.77 180.10 212.52 180.53 211.77 Z M 181.06 210.87 L 181.53 210.00 C 181.93 209.24 181.65 208.30 180.89 207.89 C 180.13 207.48 179.18 207.76 178.78 208.52 L 178.31 209.39 C 177.90 210.15 178.18 211.10 178.94 211.50 C 179.70 211.91 180.65 211.63 181.06 210.87 Z M 181.55 209.96 L 181.99 209.08 C 182.37 208.31 182.06 207.37 181.29 206.98 C 180.52 206.60 179.58 206.91 179.20 207.68 L 178.75 208.56 C 178.37 209.33 178.68 210.27 179.45 210.66 C 180.22 211.04 181.16 210.73 181.55 209.96 Z M 182.01 209.04 L 182.42 208.15 C 182.79 207.37 182.45 206.44 181.67 206.07 C 180.89 205.71 179.96 206.04 179.60 206.82 L 179.18 207.72 C 178.81 208.50 179.15 209.43 179.93 209.79 C 180.71 210.16 181.64 209.82 182.01 209.04 Z M 182.44 208.12 L 182.84 207.21 C 183.19 206.42 182.84 205.50 182.05 205.15 C 181.26 204.80 180.34 205.15 179.99 205.94 L 179.58 206.85 C 179.23 207.64 179.59 208.56 180.38 208.91 C 181.17 209.26 182.09 208.91 182.44 208.12 Z M 182.85 207.18 L 183.25 206.26 C 183.58 205.46 183.21 204.54 182.42 204.21 C 181.62 203.87 180.71 204.24 180.37 205.04 L 179.98 205.97 C 179.64 206.76 180.01 207.68 180.81 208.01 C 181.60 208.35 182.52 207.98 182.85 207.18 Z M 183.25 206.24 L 183.64 205.30 C 183.96 204.50 183.58 203.59 182.78 203.27 C 181.98 202.94 181.07 203.32 180.74 204.12 L 180.36 205.06 C 180.04 205.86 180.42 206.77 181.22 207.09 C 182.02 207.42 182.93 207.03 183.25 206.24 Z M 183.64 205.29 L 184.01 204.36 C 184.32 203.56 183.93 202.65 183.13 202.34 C 182.33 202.02 181.42 202.41 181.10 203.21 L 180.74 204.14 C 180.42 204.94 180.81 205.85 181.62 206.16 C 182.42 206.48 183.32 206.09 183.64 205.29 Z M 184.01 204.35 L 184.37 203.42 C 184.68 202.62 184.28 201.71 183.48 201.40 C 182.67 201.09 181.77 201.49 181.46 202.30 L 181.10 203.23 C 180.79 204.03 181.19 204.93 181.99 205.25 C 182.80 205.56 183.70 205.16 184.01 204.35 Z M 184.37 203.41 L 184.73 202.47 C 185.04 201.67 184.63 200.77 183.82 200.46 C 183.02 200.16 182.12 200.56 181.81 201.37 L 181.46 202.30 C 181.15 203.11 181.55 204.01 182.36 204.32 C 183.17 204.62 184.07 204.22 184.37 203.41 Z M 184.73 202.47 L 185.09 201.52 C 185.39 200.72 184.98 199.82 184.17 199.51 C 183.36 199.21 182.46 199.62 182.16 200.43 L 181.81 201.37 C 181.51 202.18 181.92 203.08 182.72 203.38 C 183.53 203.68 184.43 203.28 184.73 202.47 Z M 185.09 201.52 L 185.43 200.58 C 185.73 199.77 185.32 198.88 184.51 198.58 C 183.70 198.28 182.81 198.69 182.51 199.50 L 182.16 200.43 C 181.86 201.24 182.27 202.14 183.08 202.44 C 183.89 202.74 184.79 202.33 185.09 201.52 Z M 185.44 200.58 L 185.78 199.63 C 186.08 198.82 185.66 197.93 184.85 197.63 C 184.04 197.34 183.14 197.76 182.85 198.57 L 182.50 199.51 C 182.21 200.32 182.63 201.21 183.44 201.51 C 184.25 201.80 185.14 201.39 185.44 200.58 Z M 185.78 199.62 L 186.12 198.68 C 186.41 197.87 185.98 196.97 185.17 196.68 C 184.36 196.40 183.47 196.82 183.18 197.63 L 182.84 198.58 C 182.55 199.39 182.98 200.28 183.79 200.57 C 184.60 200.86 185.50 200.43 185.78 199.62 Z M 186.13 198.66 L 186.45 197.72 C 186.73 196.90 186.29 196.01 185.48 195.73 C 184.66 195.45 183.77 195.89 183.50 196.70 L 183.17 197.65 C 182.89 198.47 183.33 199.35 184.14 199.63 C 184.96 199.91 185.85 199.48 186.13 198.66 Z M 186.46 197.70 L 186.76 196.76 C 187.03 195.94 186.58 195.06 185.76 194.79 C 184.95 194.53 184.06 194.97 183.79 195.79 L 183.49 196.72 C 183.22 197.54 183.67 198.42 184.49 198.69 C 185.31 198.96 186.19 198.52 186.46 197.70 Z M 186.77 196.75 L 187.06 195.81 C 187.32 194.99 186.87 194.11 186.05 193.85 C 185.22 193.59 184.35 194.05 184.09 194.87 L 183.79 195.81 C 183.53 196.63 183.99 197.51 184.81 197.77 C 185.63 198.03 186.51 197.57 186.77 196.75 Z M 187.07 195.80 L 187.36 194.85 C 187.61 194.03 187.15 193.15 186.33 192.90 C 185.51 192.64 184.63 193.10 184.38 193.93 L 184.08 194.88 C 183.83 195.70 184.29 196.58 185.11 196.83 C 185.94 197.09 186.81 196.63 187.07 195.80 Z M 187.36 194.85 L 187.66 193.87 C 187.91 193.05 187.45 192.17 186.63 191.92 C 185.80 191.67 184.93 192.13 184.68 192.95 L 184.38 193.93 C 184.12 194.76 184.59 195.63 185.41 195.88 C 186.24 196.13 187.11 195.67 187.36 194.85 Z M 187.66 193.87 L 187.96 192.90 C 188.21 192.08 187.75 191.21 186.93 190.95 C 186.10 190.70 185.23 191.16 184.97 191.98 L 184.68 192.95 C 184.42 193.78 184.88 194.65 185.71 194.90 C 186.53 195.16 187.41 194.70 187.66 193.87 Z M 187.96 192.90 L 188.25 191.94 C 188.51 191.12 188.05 190.24 187.22 189.99 C 186.40 189.74 185.53 190.20 185.27 191.02 L 184.97 191.98 C 184.72 192.81 185.18 193.68 186.01 193.94 C 186.83 194.19 187.70 193.73 187.96 192.90 Z M 188.26 191.94 L 188.55 190.97 C 188.80 190.14 188.34 189.27 187.52 189.02 C 186.69 188.77 185.82 189.23 185.57 190.05 L 185.27 191.02 C 185.02 191.85 185.48 192.72 186.31 192.97 C 187.13 193.23 188.00 192.76 188.26 191.94 Z M 188.56 190.96 L 188.84 190.00 C 189.09 189.17 188.62 188.30 187.80 188.05 C 186.97 187.81 186.10 188.27 185.85 189.10 L 185.56 190.06 C 185.32 190.89 185.79 191.76 186.61 192.01 C 187.44 192.25 188.31 191.78 188.56 190.96 Z M 188.85 189.98 L 189.12 189.04 C 189.36 188.21 188.88 187.35 188.05 187.11 C 187.22 186.87 186.36 187.35 186.12 188.17 L 185.85 189.12 C 185.61 189.94 186.09 190.81 186.91 191.05 C 187.74 191.29 188.61 190.81 188.85 189.98 Z M 189.13 189.02 L 189.40 188.01 C 189.63 187.18 189.14 186.32 188.30 186.09 C 187.47 185.87 186.61 186.36 186.39 187.19 L 186.11 188.20 C 185.89 189.03 186.38 189.89 187.21 190.11 C 188.04 190.34 188.90 189.85 189.13 189.02 Z M 189.41 187.98 L 189.65 187.01 C 189.87 186.17 189.36 185.32 188.53 185.11 C 187.69 184.90 186.84 185.40 186.63 186.24 L 186.38 187.22 C 186.17 188.05 186.67 188.90 187.51 189.11 C 188.35 189.32 189.19 188.82 189.41 187.98 Z M 189.66 186.98 L 189.89 186.02 C 190.08 185.18 189.56 184.34 188.72 184.15 C 187.88 183.95 187.04 184.47 186.85 185.31 L 186.62 186.27 C 186.42 187.11 186.95 187.95 187.79 188.14 C 188.62 188.34 189.46 187.82 189.66 186.98 Z M 189.89 186.00 L 190.10 185.05 C 190.28 184.20 189.74 183.37 188.90 183.19 C 188.05 183.01 187.22 183.55 187.04 184.39 L 186.84 185.34 C 186.66 186.18 187.19 187.01 188.04 187.19 C 188.88 187.38 189.71 186.84 189.89 186.00 Z M 190.10 185.02 L 190.29 184.05 C 190.46 183.21 189.91 182.39 189.06 182.22 C 188.21 182.06 187.39 182.61 187.23 183.45 L 187.04 184.42 C 186.87 185.26 187.42 186.08 188.27 186.25 C 189.11 186.42 189.93 185.87 190.10 185.02 Z M 190.30 184.03 L 190.47 183.05 C 190.62 182.20 190.06 181.39 189.21 181.24 C 188.36 181.09 187.55 181.65 187.40 182.50 L 187.22 183.48 C 187.07 184.33 187.64 185.14 188.49 185.29 C 189.33 185.44 190.15 184.88 190.30 184.03 Z M 190.48 183.02 L 190.63 182.03 C 190.77 181.18 190.19 180.38 189.34 180.25 C 188.49 180.11 187.69 180.69 187.55 181.54 L 187.39 182.53 C 187.26 183.38 187.84 184.18 188.69 184.32 C 189.54 184.45 190.34 183.87 190.48 183.02 Z M 190.64 182.01 L 190.78 181.00 C 190.90 180.15 190.31 179.36 189.45 179.24 C 188.60 179.12 187.81 179.71 187.69 180.57 L 187.55 181.57 C 187.42 182.42 188.02 183.21 188.87 183.33 C 189.73 183.45 190.52 182.86 190.64 182.01 Z M 190.78 180.98 L 190.90 179.99 C 191.01 179.14 190.40 178.36 189.55 178.25 C 188.69 178.15 187.91 178.75 187.81 179.61 L 187.68 180.59 C 187.58 181.45 188.19 182.23 189.04 182.33 C 189.90 182.44 190.68 181.83 190.78 180.98 Z M 190.91 179.97 L 191.01 178.98 C 191.11 178.13 190.49 177.36 189.63 177.26 C 188.77 177.17 188.00 177.79 187.91 178.65 L 187.80 179.63 C 187.71 180.49 188.33 181.26 189.19 181.35 C 190.04 181.45 190.81 180.83 190.91 179.97 Z M 191.02 178.96 L 191.11 177.97 C 191.19 177.11 190.57 176.35 189.71 176.26 C 188.85 176.18 188.09 176.81 188.00 177.67 L 187.91 178.67 C 187.83 179.52 188.46 180.29 189.31 180.37 C 190.17 180.45 190.93 179.82 191.02 178.96 Z M 191.11 177.95 L 191.20 176.94 C 191.27 176.08 190.64 175.33 189.78 175.25 C 188.92 175.18 188.16 175.82 188.09 176.68 L 188.00 177.68 C 187.93 178.54 188.57 179.30 189.43 179.37 C 190.28 179.45 191.04 178.81 191.11 177.95 Z M 191.20 176.93 L 191.28 175.93 C 191.34 175.07 190.70 174.32 189.84 174.26 C 188.98 174.19 188.23 174.84 188.16 175.70 L 188.09 176.69 C 188.02 177.55 188.67 178.30 189.53 178.37 C 190.38 178.43 191.13 177.79 191.20 176.93 Z M 191.28 175.92 L 191.35 174.94 C 191.41 174.08 190.76 173.33 189.90 173.27 C 189.04 173.21 188.29 173.86 188.23 174.72 L 188.16 175.71 C 188.10 176.57 188.75 177.31 189.61 177.37 C 190.47 177.43 191.22 176.78 191.28 175.92 Z M 191.35 174.92 L 191.41 173.93 C 191.46 173.07 190.81 172.33 189.95 172.27 C 189.08 172.22 188.34 172.88 188.29 173.74 L 188.23 174.73 C 188.18 175.59 188.83 176.33 189.69 176.39 C 190.55 176.44 191.29 175.78 191.35 174.92 Z M 191.41 173.92 L 191.46 172.91 C 191.51 172.05 190.85 171.31 189.99 171.27 C 189.13 171.22 188.39 171.88 188.34 172.74 L 188.29 173.75 C 188.24 174.61 188.90 175.34 189.77 175.39 C 190.63 175.44 191.36 174.78 191.41 173.92 Z M 191.46 172.90 L 191.51 171.89 C 191.55 171.03 190.88 170.30 190.02 170.26 C 189.16 170.22 188.43 170.88 188.39 171.75 L 188.34 172.75 C 188.30 173.61 188.97 174.35 189.83 174.39 C 190.69 174.43 191.42 173.76 191.46 172.90 Z M 191.51 171.88 L 191.55 170.92 C 191.58 170.06 190.91 169.33 190.05 169.30 C 189.19 169.26 188.46 169.93 188.43 170.79 L 188.39 171.76 C 188.36 172.62 189.03 173.34 189.89 173.38 C 190.75 173.41 191.48 172.74 191.51 171.88 Z M 191.55 170.91 L 191.58 169.93 C 191.61 169.07 190.94 168.35 190.08 168.32 C 189.22 168.29 188.49 168.96 188.46 169.82 L 188.43 170.80 C 188.40 171.66 189.07 172.39 189.94 172.42 C 190.80 172.45 191.52 171.77 191.55 170.91 Z M 191.58 169.92 L 191.61 168.92 C 191.64 168.06 190.96 167.34 190.10 167.31 C 189.24 167.29 188.52 167.97 188.49 168.83 L 188.46 169.83 C 188.44 170.69 189.11 171.41 189.98 171.44 C 190.84 171.46 191.56 170.79 191.58 169.92 Z M 191.61 168.92 L 191.64 167.89 C 191.67 167.03 190.99 166.31 190.13 166.29 C 189.26 166.26 188.55 166.94 188.52 167.80 L 188.49 168.83 C 188.47 169.69 189.15 170.41 190.01 170.44 C 190.87 170.46 191.59 169.78 191.61 168.92 Z M 191.64 167.89 L 191.67 166.86 C 191.69 166.00 191.01 165.28 190.15 165.26 C 189.29 165.24 188.57 165.92 188.55 166.78 L 188.52 167.80 C 188.50 168.67 189.18 169.38 190.04 169.41 C 190.90 169.43 191.62 168.75 191.64 167.89 Z M 191.67 166.86 L 191.70 165.86 C 191.72 165.00 191.04 164.28 190.17 164.26 C 189.31 164.24 188.60 164.92 188.57 165.78 L 188.55 166.78 C 188.53 167.64 189.21 168.36 190.07 168.38 C 190.93 168.40 191.65 167.72 191.67 166.86 Z M 191.70 165.86 L 191.72 164.85 C 191.74 163.98 191.06 163.27 190.20 163.25 C 189.33 163.23 188.62 163.91 188.60 164.77 L 188.57 165.78 C 188.55 166.65 189.24 167.36 190.10 167.38 C 190.96 167.40 191.68 166.72 191.70 165.86 Z M 191.72 164.84 L 191.74 163.83 C 191.76 162.97 191.08 162.25 190.21 162.24 C 189.35 162.22 188.64 162.90 188.62 163.76 L 188.60 164.77 C 188.58 165.64 189.26 166.35 190.13 166.37 C 190.99 166.39 191.70 165.70 191.72 164.84 Z M 191.74 163.83 L 191.76 162.83 C 191.78 161.96 191.09 161.25 190.23 161.24 C 189.37 161.22 188.65 161.91 188.64 162.77 L 188.62 163.77 C 188.60 164.63 189.29 165.34 190.15 165.36 C 191.01 165.37 191.73 164.69 191.74 163.83 Z M 191.76 162.82 L 191.77 161.82 C 191.79 160.96 191.10 160.25 190.24 160.24 C 189.37 160.22 188.66 160.91 188.65 161.78 L 188.64 162.78 C 188.63 163.64 189.31 164.35 190.18 164.36 C 191.04 164.37 191.75 163.68 191.76 162.82 Z M 191.77 161.81 L 191.78 160.77 C 191.79 159.91 191.10 159.20 190.24 159.20 C 189.38 159.19 188.67 159.88 188.66 160.74 L 188.65 161.78 C 188.64 162.64 189.34 163.35 190.20 163.36 C 191.06 163.37 191.77 162.67 191.77 161.81 Z M 191.78 160.76 L 191.79 159.76 C 191.79 158.89 191.10 158.19 190.24 158.19 C 189.38 158.18 188.67 158.88 188.67 159.74 L 188.66 160.75 C 188.66 161.61 189.35 162.31 190.21 162.32 C 191.08 162.32 191.78 161.63 191.78 160.76 Z M 191.79 159.75 L 191.79 158.77 C 191.79 157.91 191.10 157.21 190.23 157.20 C 189.37 157.20 188.67 157.90 188.67 158.76 L 188.67 159.74 C 188.67 160.61 189.36 161.31 190.22 161.31 C 191.09 161.31 191.79 160.61 191.79 159.75 Z M 191.79 158.77 L 191.79 157.80 C 191.79 156.94 191.09 156.24 190.23 156.24 C 189.37 156.24 188.67 156.94 188.67 157.80 L 188.67 158.76 C 188.67 159.63 189.37 160.33 190.23 160.33 C 191.09 160.33 191.79 159.63 191.79 158.77 Z M 191.79 157.80 L 191.79 156.81 C 191.79 155.95 191.09 155.25 190.23 155.25 C 189.37 155.25 188.67 155.95 188.67 156.81 L 188.67 157.80 C 188.67 158.66 189.37 159.36 190.23 159.36 C 191.09 159.36 191.79 158.66 191.79 157.80 Z M 191.79 156.80 L 191.79 155.80 C 191.78 154.94 191.08 154.24 190.22 154.25 C 189.36 154.25 188.66 154.95 188.67 155.82 L 188.67 156.82 C 188.67 157.68 189.38 158.38 190.24 158.37 C 191.10 158.37 191.80 157.66 191.79 156.80 Z M 191.79 155.78 L 191.77 154.78 C 191.75 153.92 191.04 153.23 190.18 153.25 C 189.32 153.26 188.63 153.98 188.65 154.84 L 188.67 155.84 C 188.68 156.70 189.39 157.38 190.25 157.37 C 191.12 157.35 191.80 156.64 191.79 155.78 Z M 191.77 154.75 L 191.73 153.75 C 191.70 152.89 190.97 152.22 190.11 152.25 C 189.25 152.29 188.58 153.01 188.61 153.87 L 188.65 154.87 C 188.68 155.73 189.41 156.40 190.27 156.37 C 191.13 156.34 191.80 155.61 191.77 154.75 Z M 191.73 153.71 L 191.66 152.71 C 191.60 151.85 190.86 151.20 190.00 151.26 C 189.14 151.32 188.49 152.06 188.55 152.92 L 188.61 153.92 C 188.67 154.78 189.41 155.43 190.27 155.37 C 191.13 155.31 191.79 154.57 191.73 153.71 Z M 191.66 152.67 L 191.56 151.67 C 191.48 150.81 190.71 150.18 189.85 150.27 C 189.00 150.35 188.37 151.12 188.45 151.97 L 188.55 152.97 C 188.63 153.83 189.40 154.46 190.26 154.37 C 191.11 154.29 191.74 153.52 191.66 152.67 Z M 191.56 151.63 L 191.43 150.64 C 191.33 149.78 190.55 149.17 189.69 149.28 C 188.84 149.38 188.23 150.16 188.33 151.02 L 188.46 152.01 C 188.56 152.87 189.34 153.48 190.20 153.37 C 191.05 153.27 191.66 152.49 191.56 151.63 Z M 191.43 150.61 L 191.29 149.62 C 191.17 148.77 190.38 148.17 189.53 148.29 C 188.67 148.41 188.08 149.20 188.20 150.05 L 188.34 151.05 C 188.46 151.90 189.25 152.49 190.10 152.37 C 190.95 152.25 191.55 151.46 191.43 150.61 Z M 191.29 149.60 L 191.14 148.62 C 191.01 147.77 190.21 147.18 189.36 147.31 C 188.51 147.44 187.92 148.23 188.05 149.08 L 188.20 150.07 C 188.33 150.92 189.12 151.51 189.98 151.38 C 190.83 151.25 191.42 150.46 191.29 149.60 Z M 191.14 148.61 L 190.98 147.61 C 190.85 146.76 190.05 146.18 189.20 146.31 C 188.35 146.44 187.77 147.24 187.90 148.09 L 188.05 149.09 C 188.18 149.94 188.98 150.53 189.83 150.39 C 190.68 150.26 191.27 149.47 191.14 148.61 Z M 190.98 147.61 L 190.83 146.61 C 190.69 145.76 189.89 145.18 189.04 145.31 C 188.19 145.45 187.61 146.24 187.74 147.10 L 187.90 148.09 C 188.03 148.94 188.83 149.53 189.68 149.39 C 190.53 149.26 191.12 148.46 190.98 147.61 Z M 190.82 146.60 L 190.67 145.62 C 190.53 144.77 189.73 144.19 188.87 144.33 C 188.02 144.46 187.45 145.27 187.58 146.12 L 187.74 147.10 C 187.88 147.95 188.68 148.53 189.53 148.39 C 190.38 148.26 190.96 147.46 190.82 146.60 Z M 190.66 145.61 L 190.50 144.63 C 190.36 143.78 189.55 143.21 188.70 143.35 C 187.85 143.50 187.28 144.30 187.42 145.15 L 187.58 146.13 C 187.73 146.98 188.53 147.55 189.38 147.41 C 190.23 147.26 190.81 146.46 190.66 145.61 Z M 190.50 144.62 L 190.32 143.65 C 190.17 142.80 189.36 142.23 188.51 142.38 C 187.66 142.53 187.10 143.34 187.25 144.19 L 187.42 145.17 C 187.57 146.02 188.38 146.58 189.23 146.43 C 190.08 146.28 190.65 145.47 190.50 144.62 Z M 190.32 143.63 L 190.14 142.65 C 189.98 141.81 189.16 141.25 188.31 141.41 C 187.47 141.57 186.91 142.39 187.07 143.23 L 187.25 144.21 C 187.41 145.06 188.23 145.61 189.08 145.45 C 189.92 145.29 190.48 144.48 190.32 143.63 Z M 190.13 142.64 L 189.94 141.66 C 189.77 140.82 188.95 140.27 188.10 140.44 C 187.26 140.61 186.71 141.43 186.88 142.28 L 187.07 143.25 C 187.24 144.10 188.06 144.64 188.91 144.48 C 189.75 144.31 190.30 143.48 190.13 142.64 Z M 189.94 141.65 L 189.73 140.67 C 189.55 139.82 188.72 139.28 187.88 139.46 C 187.04 139.64 186.50 140.47 186.67 141.31 L 186.88 142.29 C 187.06 143.14 187.89 143.68 188.73 143.50 C 189.57 143.32 190.11 142.49 189.94 141.65 Z M 189.73 140.65 L 189.51 139.66 C 189.32 138.82 188.49 138.29 187.65 138.47 C 186.80 138.66 186.27 139.49 186.46 140.33 L 186.68 141.32 C 186.86 142.17 187.70 142.70 188.54 142.51 C 189.38 142.33 189.91 141.49 189.73 140.65 Z M 189.50 139.65 L 189.28 138.66 C 189.08 137.82 188.24 137.29 187.40 137.49 C 186.56 137.68 186.04 138.52 186.23 139.36 L 186.46 140.35 C 186.65 141.19 187.49 141.71 188.33 141.52 C 189.17 141.33 189.70 140.49 189.50 139.65 Z M 189.27 138.65 L 189.04 137.66 C 188.84 136.82 188.00 136.30 187.16 136.50 C 186.32 136.70 185.80 137.54 186.00 138.38 L 186.24 139.37 C 186.44 140.21 187.28 140.73 188.12 140.53 C 188.96 140.33 189.47 139.49 189.27 138.65 Z M 189.04 137.65 L 188.80 136.68 C 188.59 135.84 187.75 135.33 186.91 135.53 C 186.07 135.74 185.56 136.59 185.77 137.42 L 186.00 138.39 C 186.21 139.23 187.05 139.74 187.89 139.54 C 188.73 139.33 189.24 138.49 189.04 137.65 Z M 188.80 136.67 L 188.56 135.72 C 188.35 134.89 187.50 134.38 186.66 134.59 C 185.83 134.80 185.32 135.65 185.53 136.48 L 185.77 137.43 C 185.98 138.27 186.83 138.78 187.66 138.56 C 188.50 138.35 189.01 137.51 188.80 136.67 Z M 188.55 135.71 L 188.29 134.69 C 188.08 133.86 187.22 133.36 186.39 133.57 C 185.55 133.79 185.05 134.64 185.27 135.48 L 185.53 136.49 C 185.75 137.33 186.60 137.83 187.43 137.61 C 188.27 137.40 188.77 136.55 188.55 135.71 Z M 188.29 134.68 L 188.03 133.71 C 187.81 132.88 186.95 132.39 186.12 132.61 C 185.28 132.83 184.79 133.69 185.01 134.52 L 185.27 135.49 C 185.50 136.32 186.35 136.82 187.18 136.59 C 188.02 136.37 188.51 135.51 188.29 134.68 Z M 188.02 133.70 L 187.76 132.77 C 187.53 131.94 186.67 131.45 185.84 131.68 C 185.01 131.92 184.52 132.78 184.76 133.61 L 185.02 134.54 C 185.25 135.37 186.11 135.85 186.94 135.62 C 187.77 135.39 188.26 134.53 188.02 133.70 Z M 187.76 132.75 L 187.48 131.81 C 187.24 130.99 186.38 130.51 185.55 130.75 C 184.72 131.00 184.25 131.86 184.49 132.69 L 184.76 133.63 C 185.00 134.45 185.87 134.93 186.70 134.68 C 187.53 134.44 188.00 133.58 187.76 132.75 Z M 187.48 131.79 L 187.19 130.84 C 186.93 130.01 186.06 129.55 185.24 129.80 C 184.41 130.06 183.95 130.93 184.20 131.75 L 184.49 132.71 C 184.75 133.53 185.62 134.00 186.44 133.74 C 187.27 133.49 187.73 132.62 187.48 131.79 Z M 187.18 130.82 L 186.88 129.87 C 186.61 129.05 185.73 128.59 184.91 128.86 C 184.09 129.12 183.64 130.00 183.90 130.82 L 184.21 131.77 C 184.47 132.59 185.35 133.04 186.17 132.78 C 186.99 132.52 187.44 131.64 187.18 130.82 Z M 186.87 129.85 L 186.55 128.90 C 186.28 128.09 185.40 127.64 184.58 127.92 C 183.76 128.19 183.32 129.07 183.59 129.89 L 183.91 130.84 C 184.18 131.66 185.06 132.10 185.88 131.83 C 186.70 131.55 187.14 130.67 186.87 129.85 Z M 186.55 128.89 L 186.22 127.94 C 185.94 127.12 185.05 126.69 184.24 126.97 C 183.42 127.25 182.99 128.14 183.27 128.95 L 183.60 129.91 C 183.88 130.72 184.77 131.15 185.58 130.87 C 186.40 130.59 186.83 129.70 186.55 128.89 Z M 186.22 127.92 L 185.88 126.97 C 185.59 126.16 184.70 125.74 183.89 126.03 C 183.07 126.31 182.65 127.21 182.94 128.02 L 183.27 128.97 C 183.56 129.78 184.46 130.20 185.27 129.92 C 186.08 129.63 186.51 128.73 186.22 127.92 Z M 185.88 126.96 L 185.53 126.03 C 185.24 125.22 184.34 124.80 183.53 125.09 C 182.72 125.39 182.31 126.29 182.60 127.10 L 182.94 128.03 C 183.24 128.84 184.13 129.26 184.94 128.96 C 185.75 128.67 186.17 127.77 185.88 126.96 Z M 185.53 126.01 L 185.18 125.08 C 184.88 124.27 183.98 123.86 183.17 124.16 C 182.36 124.46 181.95 125.36 182.26 126.17 L 182.61 127.11 C 182.91 127.92 183.81 128.32 184.61 128.02 C 185.42 127.72 185.83 126.82 185.53 126.01 Z M 185.18 125.07 L 184.82 124.13 C 184.51 123.32 183.61 122.92 182.80 123.23 C 182.00 123.53 181.59 124.44 181.90 125.24 L 182.26 126.18 C 182.57 126.99 183.47 127.39 184.28 127.08 C 185.08 126.78 185.48 125.87 185.18 125.07 Z M 184.81 124.12 L 184.45 123.19 C 184.14 122.39 183.24 121.99 182.43 122.30 C 181.63 122.61 181.23 123.52 181.54 124.32 L 181.90 125.25 C 182.21 126.05 183.12 126.45 183.92 126.14 C 184.73 125.83 185.13 124.92 184.81 124.12 Z M 184.45 123.19 L 184.09 122.27 C 183.78 121.46 182.87 121.07 182.07 121.38 C 181.27 121.70 180.87 122.60 181.18 123.40 L 181.54 124.33 C 181.86 125.13 182.76 125.52 183.57 125.21 C 184.37 124.90 184.77 123.99 184.45 123.19 Z M 184.09 122.27 L 183.73 121.34 C 183.41 120.54 182.51 120.15 181.71 120.46 C 180.90 120.78 180.51 121.68 180.82 122.48 L 181.19 123.41 C 181.50 124.21 182.41 124.60 183.21 124.29 C 184.01 123.97 184.41 123.07 184.09 122.27 Z M 183.73 121.34 L 183.36 120.41 C 183.04 119.61 182.13 119.22 181.33 119.54 C 180.53 119.86 180.14 120.77 180.46 121.57 L 180.83 122.49 C 181.15 123.29 182.06 123.68 182.86 123.36 C 183.66 123.04 184.05 122.14 183.73 121.34 Z M 183.35 120.39 L 182.96 119.46 C 182.64 118.66 181.72 118.28 180.93 118.61 C 180.13 118.94 179.75 119.85 180.08 120.65 L 180.46 121.58 C 180.79 122.38 181.71 122.76 182.50 122.43 C 183.30 122.10 183.68 121.19 183.35 120.39 Z M 182.96 119.44 L 182.58 118.57 C 182.24 117.77 181.32 117.41 180.53 117.75 C 179.74 118.09 179.37 119.01 179.71 119.80 L 180.09 120.67 C 180.43 121.47 181.35 121.83 182.14 121.49 C 182.93 121.15 183.30 120.23 182.96 119.44 Z M 182.57 118.53 L 182.17 117.66 C 181.81 116.88 180.88 116.53 180.10 116.89 C 179.31 117.25 178.97 118.18 179.33 118.96 L 179.73 119.83 C 180.08 120.62 181.01 120.96 181.79 120.60 C 182.58 120.25 182.92 119.32 182.57 118.53 Z M 182.15 117.62 L 181.70 116.71 C 181.32 115.94 180.39 115.62 179.61 116.00 C 178.84 116.38 178.52 117.31 178.90 118.09 L 179.35 119.00 C 179.72 119.77 180.66 120.09 181.43 119.71 C 182.21 119.33 182.53 118.40 182.15 117.62 Z M 181.68 116.67 L 181.18 115.72 C 180.78 114.96 179.83 114.67 179.07 115.07 C 178.31 115.47 178.02 116.42 178.42 117.18 L 178.92 118.13 C 179.32 118.89 180.27 119.18 181.03 118.78 C 181.79 118.38 182.08 117.43 181.68 116.67 Z M 181.16 115.68 L 180.69 114.85 C 180.26 114.10 179.31 113.84 178.56 114.26 C 177.81 114.68 177.54 115.64 177.97 116.39 L 178.44 117.22 C 178.86 117.97 179.82 118.23 180.57 117.81 C 181.32 117.39 181.58 116.43 181.16 115.68 Z M 180.66 114.81 L 180.15 113.96 C 179.70 113.22 178.74 112.98 178.01 113.43 C 177.27 113.87 177.03 114.83 177.47 115.57 L 177.99 116.42 C 178.43 117.16 179.39 117.40 180.13 116.96 C 180.87 116.51 181.11 115.55 180.66 114.81 Z M 180.12 113.92 L 179.57 113.06 C 179.11 112.33 178.14 112.12 177.41 112.59 C 176.69 113.06 176.48 114.02 176.95 114.75 L 177.50 115.61 C 177.96 116.33 178.93 116.54 179.66 116.08 C 180.38 115.61 180.59 114.64 180.12 113.92 Z M 179.54 113.02 L 178.96 112.17 C 178.47 111.46 177.50 111.29 176.79 111.78 C 176.08 112.27 175.90 113.24 176.39 113.95 L 176.98 114.79 C 177.47 115.50 178.44 115.68 179.15 115.19 C 179.86 114.70 180.03 113.72 179.54 113.02 Z M 178.92 112.12 L 178.31 111.31 C 177.79 110.62 176.81 110.48 176.13 111.00 C 175.44 111.52 175.30 112.50 175.82 113.19 L 176.43 114.00 C 176.95 114.69 177.93 114.83 178.61 114.31 C 179.30 113.79 179.44 112.81 178.92 112.12 Z M 178.27 111.25 L 177.63 110.48 C 177.08 109.81 176.10 109.72 175.43 110.27 C 174.77 110.82 174.67 111.80 175.22 112.46 L 175.86 113.24 C 176.41 113.91 177.39 114.00 178.06 113.45 C 178.72 112.90 178.82 111.92 178.27 111.25 Z M 177.58 110.42 L 176.91 109.69 C 176.33 109.05 175.35 109.00 174.71 109.58 C 174.07 110.16 174.02 111.15 174.60 111.78 L 175.27 112.52 C 175.85 113.16 176.83 113.21 177.47 112.63 C 178.11 112.05 178.16 111.06 177.58 110.42 Z M 176.86 109.63 L 176.16 108.93 C 175.55 108.32 174.56 108.32 173.95 108.93 C 173.34 109.54 173.34 110.53 173.95 111.14 L 174.65 111.84 C 175.26 112.45 176.25 112.45 176.86 111.84 C 177.47 111.23 177.47 110.24 176.86 109.63 Z M 176.11 108.88 L 175.37 108.21 C 174.73 107.63 173.74 107.68 173.16 108.32 C 172.58 108.95 172.63 109.94 173.27 110.52 L 174.01 111.19 C 174.64 111.77 175.63 111.72 176.21 111.08 C 176.79 110.45 176.74 109.46 176.11 108.88 Z M 175.31 108.16 L 174.54 107.53 C 173.88 106.98 172.89 107.07 172.35 107.74 C 171.80 108.40 171.89 109.39 172.56 109.94 L 173.33 110.57 C 173.99 111.12 174.98 111.02 175.52 110.36 C 176.07 109.69 175.98 108.71 175.31 108.16 Z M 174.48 107.48 L 173.68 106.88 C 172.99 106.36 172.01 106.51 171.49 107.20 C 170.98 107.89 171.12 108.87 171.81 109.38 L 172.62 109.98 C 173.31 110.50 174.29 110.36 174.80 109.66 C 175.32 108.97 175.17 107.99 174.48 107.48 Z M 173.61 106.83 L 172.78 106.28 C 172.06 105.80 171.09 105.99 170.61 106.71 C 170.13 107.43 170.33 108.40 171.04 108.87 L 171.88 109.43 C 172.60 109.91 173.57 109.71 174.04 109.00 C 174.52 108.28 174.33 107.31 173.61 106.83 Z M 172.70 106.23 L 171.84 105.72 C 171.10 105.29 170.14 105.54 169.70 106.28 C 169.27 107.02 169.52 107.98 170.26 108.42 L 171.12 108.92 C 171.86 109.36 172.82 109.11 173.26 108.37 C 173.69 107.62 173.44 106.67 172.70 106.23 Z M 171.76 105.68 L 170.87 105.23 C 170.10 104.84 169.16 105.14 168.77 105.91 C 168.38 106.68 168.68 107.62 169.45 108.01 L 170.34 108.46 C 171.11 108.85 172.05 108.55 172.44 107.78 C 172.83 107.01 172.53 106.07 171.76 105.68 Z M 170.78 105.19 L 169.87 104.79 C 169.08 104.44 168.16 104.81 167.82 105.60 C 167.47 106.39 167.83 107.31 168.62 107.65 L 169.54 108.05 C 170.33 108.39 171.25 108.03 171.59 107.24 C 171.94 106.45 171.57 105.53 170.78 105.19 Z M 169.80 104.76 L 168.86 104.41 C 168.06 104.11 167.16 104.52 166.85 105.32 C 166.55 106.13 166.96 107.03 167.77 107.33 L 168.70 107.68 C 169.51 107.98 170.41 107.58 170.71 106.77 C 171.01 105.96 170.60 105.06 169.80 104.76 Z M 168.80 104.39 L 167.84 104.08 C 167.02 103.81 166.14 104.26 165.88 105.08 C 165.61 105.90 166.06 106.78 166.88 107.05 L 167.83 107.36 C 168.65 107.62 169.53 107.17 169.80 106.35 C 170.07 105.53 169.62 104.65 168.80 104.39 Z M 167.79 104.06 L 166.83 103.79 C 166.00 103.55 165.14 104.03 164.90 104.86 C 164.67 105.69 165.15 106.56 165.98 106.79 L 166.94 107.06 C 167.77 107.30 168.63 106.82 168.86 105.99 C 169.10 105.16 168.62 104.30 167.79 104.06 Z M 166.79 103.78 L 165.84 103.54 C 165.01 103.33 164.16 103.83 163.95 104.67 C 163.73 105.50 164.24 106.35 165.08 106.56 L 166.02 106.80 C 166.86 107.01 167.71 106.51 167.92 105.67 C 168.13 104.84 167.62 103.99 166.79 103.78 Z M 165.81 103.53 L 164.84 103.31 C 164.00 103.12 163.16 103.64 162.97 104.48 C 162.78 105.33 163.31 106.16 164.15 106.35 L 165.11 106.57 C 165.95 106.76 166.79 106.24 166.98 105.40 C 167.17 104.56 166.65 103.72 165.81 103.53 Z M 164.81 103.30 L 163.83 103.10 C 162.98 102.92 162.16 103.47 161.98 104.31 C 161.81 105.16 162.35 105.98 163.19 106.16 L 164.18 106.36 C 165.02 106.53 165.85 105.99 166.02 105.15 C 166.20 104.30 165.66 103.48 164.81 103.30 Z M 163.80 103.09 L 162.79 102.90 C 161.95 102.74 161.13 103.29 160.97 104.14 C 160.81 104.99 161.36 105.81 162.21 105.97 L 163.22 106.16 C 164.06 106.32 164.88 105.77 165.04 104.92 C 165.20 104.07 164.65 103.25 163.80 103.09 Z M 162.78 102.90 L 161.77 102.72 C 160.92 102.57 160.11 103.13 159.96 103.98 C 159.81 104.83 160.37 105.64 161.22 105.79 L 162.23 105.97 C 163.07 106.12 163.89 105.56 164.04 104.71 C 164.19 103.86 163.62 103.05 162.78 102.90 Z M 161.76 102.72 L 160.75 102.55 C 159.90 102.40 159.10 102.98 158.95 103.83 C 158.81 104.68 159.38 105.48 160.23 105.62 L 161.24 105.79 C 162.09 105.94 162.89 105.36 163.04 104.51 C 163.18 103.66 162.61 102.86 161.76 102.72 Z M 160.73 102.54 L 159.73 102.39 C 158.88 102.25 158.08 102.83 157.95 103.69 C 157.81 104.54 158.39 105.34 159.25 105.47 L 160.25 105.63 C 161.10 105.76 161.90 105.18 162.03 104.33 C 162.17 103.48 161.59 102.68 160.73 102.54 Z M 159.71 102.38 L 158.72 102.24 C 157.87 102.12 157.08 102.71 156.95 103.56 C 156.83 104.42 157.42 105.21 158.28 105.33 L 159.26 105.47 C 160.12 105.60 160.91 105.00 161.03 104.15 C 161.16 103.30 160.56 102.51 159.71 102.38 Z M 158.70 102.24 L 157.74 102.11 C 156.88 102.00 156.10 102.61 155.99 103.46 C 155.88 104.32 156.48 105.10 157.34 105.21 L 158.30 105.33 C 159.15 105.44 159.94 104.84 160.05 103.98 C 160.16 103.13 159.55 102.35 158.70 102.24 Z M 157.71 102.11 L 156.66 101.99 C 155.81 101.90 155.03 102.52 154.94 103.37 C 154.85 104.23 155.46 105.00 156.32 105.10 L 157.37 105.21 C 158.22 105.31 159.00 104.69 159.09 103.83 C 159.18 102.98 158.57 102.20 157.71 102.11 Z M 156.64 101.99 L 155.62 101.90 C 154.76 101.82 154.00 102.45 153.92 103.31 C 153.84 104.17 154.47 104.93 155.33 105.01 L 156.35 105.10 C 157.21 105.18 157.97 104.55 158.05 103.69 C 158.13 102.83 157.49 102.07 156.64 101.99 Z M 155.59 101.89 L 154.62 101.82 C 153.76 101.75 153.00 102.39 152.94 103.25 C 152.87 104.11 153.51 104.86 154.37 104.93 L 155.35 105.01 C 156.21 105.08 156.96 104.43 157.03 103.57 C 157.10 102.71 156.45 101.96 155.59 101.89 Z M 154.60 101.82 L 153.66 101.75 C 152.80 101.69 152.05 102.34 151.99 103.20 C 151.93 104.06 152.58 104.80 153.44 104.86 L 154.38 104.93 C 155.24 104.99 155.99 104.34 156.05 103.48 C 156.11 102.62 155.46 101.88 154.60 101.82 Z M 153.65 101.75 L 152.79 101.69 C 151.93 101.63 151.18 102.28 151.12 103.14 C 151.06 104.00 151.71 104.75 152.57 104.81 L 153.44 104.87 C 154.30 104.92 155.04 104.28 155.10 103.41 C 155.16 102.55 154.51 101.81 153.65 101.75 Z M 152.78 101.69 L 151.92 101.63 C 151.05 101.58 150.31 102.23 150.26 103.09 C 150.20 103.95 150.85 104.69 151.71 104.75 L 152.58 104.81 C 153.44 104.86 154.18 104.21 154.24 103.35 C 154.29 102.49 153.64 101.75 152.78 101.69 Z M 151.90 101.63 L 150.96 101.58 C 150.10 101.53 149.36 102.19 149.31 103.05 C 149.26 103.91 149.92 104.65 150.78 104.70 L 151.72 104.75 C 152.58 104.80 153.32 104.14 153.37 103.28 C 153.42 102.42 152.76 101.68 151.90 101.63 Z M 150.94 101.58 L 149.86 101.53 C 149.00 101.49 148.27 102.15 148.23 103.01 C 148.19 103.87 148.86 104.60 149.72 104.65 L 150.79 104.70 C 151.66 104.74 152.39 104.07 152.43 103.21 C 152.47 102.35 151.80 101.62 150.94 101.58 Z M 149.85 101.53 L 148.65 101.48 C 147.78 101.45 147.06 102.12 147.03 102.99 C 147.00 103.85 147.67 104.57 148.53 104.60 L 149.73 104.65 C 150.59 104.68 151.32 104.00 151.35 103.14 C 151.38 102.28 150.71 101.56 149.85 101.53 Z M 148.63 101.48 L 147.72 101.46 C 146.86 101.43 146.14 102.11 146.12 102.97 C 146.09 103.83 146.77 104.55 147.63 104.58 L 148.54 104.60 C 149.41 104.63 150.12 103.95 150.15 103.09 C 150.17 102.23 149.50 101.51 148.63 101.48 Z M 147.72 101.46 L 146.73 101.43 C 145.87 101.41 145.16 102.09 145.13 102.95 C 145.11 103.81 145.79 104.53 146.66 104.55 L 147.64 104.58 C 148.50 104.60 149.22 103.92 149.24 103.05 C 149.26 102.19 148.58 101.48 147.72 101.46 Z M 146.73 101.43 L 145.70 101.41 C 144.84 101.39 144.13 102.07 144.11 102.93 C 144.09 103.79 144.77 104.51 145.63 104.53 L 146.66 104.55 C 147.52 104.57 148.24 103.89 148.26 103.03 C 148.28 102.17 147.59 101.45 146.73 101.43 Z M 145.70 101.41 L 144.65 101.38 C 143.79 101.37 143.08 102.05 143.06 102.91 C 143.04 103.77 143.72 104.49 144.59 104.51 L 145.63 104.53 C 146.50 104.55 147.21 103.86 147.23 103.00 C 147.25 102.14 146.56 101.43 145.70 101.41 Z M 144.65 101.38 L 143.61 101.36 C 142.74 101.34 142.03 102.02 142.01 102.89 C 141.99 103.75 142.67 104.46 143.54 104.48 L 144.58 104.51 C 145.45 104.53 146.16 103.84 146.18 102.98 C 146.20 102.12 145.52 101.40 144.65 101.38 Z M 143.61 101.36 L 142.58 101.34 C 141.72 101.32 141.01 102.00 140.99 102.86 C 140.97 103.72 141.65 104.44 142.51 104.46 L 143.53 104.48 C 144.40 104.50 145.11 103.82 145.13 102.96 C 145.15 102.10 144.47 101.38 143.61 101.36 Z M 142.59 101.34 L 141.61 101.31 C 140.75 101.29 140.03 101.97 140.01 102.83 C 139.99 103.69 140.67 104.41 141.53 104.43 L 142.51 104.46 C 143.37 104.48 144.08 103.80 144.11 102.94 C 144.13 102.08 143.45 101.36 142.59 101.34 Z M 141.62 101.31 L 140.42 101.27 C 139.56 101.24 138.84 101.92 138.81 102.78 C 138.78 103.64 139.46 104.36 140.32 104.39 L 141.52 104.43 C 142.38 104.46 143.10 103.78 143.13 102.92 C 143.16 102.06 142.48 101.34 141.62 101.31 Z M 140.43 101.27 L 139.33 101.23 C 138.47 101.20 137.74 101.87 137.71 102.73 C 137.68 103.59 138.35 104.32 139.21 104.35 L 140.31 104.39 C 141.17 104.42 141.90 103.75 141.93 102.89 C 141.96 102.03 141.29 101.30 140.43 101.27 Z M 139.33 101.23 L 138.33 101.19 C 137.47 101.15 136.75 101.82 136.71 102.69 C 136.67 103.55 137.34 104.27 138.21 104.31 L 139.21 104.35 C 140.07 104.39 140.80 103.72 140.83 102.85 C 140.87 101.99 140.20 101.27 139.33 101.23 Z M 138.33 101.19 L 137.42 101.15 C 136.56 101.12 135.83 101.79 135.79 102.65 C 135.76 103.51 136.43 104.24 137.29 104.27 L 138.21 104.31 C 139.07 104.34 139.79 103.68 139.83 102.81 C 139.87 101.95 139.20 101.23 138.33 101.19 Z M 137.41 101.15 L 136.57 101.12 C 135.70 101.09 134.98 101.76 134.95 102.62 C 134.91 103.48 135.59 104.21 136.45 104.24 L 137.30 104.27 C 138.16 104.30 138.88 103.63 138.91 102.77 C 138.95 101.91 138.27 101.18 137.41 101.15 Z M 136.55 101.12 L 135.53 101.09 C 134.67 101.07 133.95 101.75 133.93 102.61 C 133.90 103.47 134.58 104.19 135.45 104.21 L 136.47 104.24 C 137.33 104.26 138.05 103.58 138.07 102.72 C 138.09 101.86 137.41 101.14 136.55 101.12 Z M 135.46 101.09 L 134.40 101.11 C 133.54 101.13 132.85 101.84 132.87 102.70 C 132.88 103.56 133.60 104.25 134.46 104.23 L 135.52 104.21 C 136.38 104.20 137.06 103.49 137.05 102.62 C 137.03 101.76 136.32 101.08 135.46 101.09 Z M 134.24 101.12 L 133.29 101.24 C 132.43 101.35 131.82 102.12 131.93 102.98 C 132.04 103.84 132.81 104.44 133.67 104.34 L 134.62 104.22 C 135.48 104.12 136.09 103.34 135.98 102.48 C 135.87 101.62 135.09 101.02 134.24 101.12 Z M 133.01 101.30 L 132.17 101.56 C 131.34 101.82 130.89 102.70 131.14 103.52 C 131.40 104.34 132.28 104.80 133.10 104.54 L 133.95 104.28 C 134.77 104.02 135.23 103.15 134.97 102.32 C 134.71 101.50 133.83 101.04 133.01 101.30 Z M 131.82 101.73 L 130.99 102.23 C 130.26 102.69 130.03 103.65 130.48 104.38 C 130.93 105.12 131.89 105.34 132.63 104.89 L 133.45 104.38 C 134.19 103.93 134.42 102.97 133.96 102.23 C 133.51 101.50 132.55 101.27 131.82 101.73 Z M 130.75 102.42 L 130.02 103.09 C 129.39 103.68 129.35 104.67 129.94 105.30 C 130.52 105.93 131.51 105.97 132.14 105.38 L 132.87 104.71 C 133.50 104.12 133.54 103.13 132.95 102.50 C 132.37 101.87 131.38 101.83 130.75 102.42 Z M 129.91 103.21 L 129.23 103.97 C 128.66 104.62 128.73 105.61 129.37 106.18 C 130.02 106.75 131.01 106.68 131.58 106.04 L 132.25 105.27 C 132.82 104.62 132.76 103.64 132.11 103.07 C 131.47 102.50 130.48 102.56 129.91 103.21 Z M 129.21 104.00 L 129.09 104.14 C 128.54 104.80 128.62 105.78 129.28 106.34 C 129.94 106.90 130.93 106.81 131.48 106.15 L 131.60 106.01 C 132.16 105.35 132.07 104.37 131.41 103.81 C 130.75 103.26 129.77 103.34 129.21 104.00 Z"
      fill="black"
      fill-rule="nonzero" /><path d="M 130.69 169.14 L 129.40 168.92 C 128.55 168.77 127.74 169.33 127.59 170.18 C 127.44 171.03 128.01 171.84 128.86 171.99 L 130.15 172.22 C 131.00 172.37 131.81 171.80 131.96 170.95 C 132.11 170.10 131.54 169.29 130.69 169.14 Z M 129.40 168.92 L 128.18 168.70 C 127.34 168.54 126.52 169.11 126.37 169.95 C 126.22 170.80 126.78 171.62 127.63 171.77 L 128.85 171.99 C 129.70 172.14 130.51 171.58 130.66 170.73 C 130.82 169.88 130.25 169.07 129.40 168.92 Z M 128.20 168.70 L 127.12 168.50 C 126.27 168.33 125.46 168.89 125.30 169.74 C 125.14 170.59 125.69 171.40 126.54 171.56 L 127.62 171.77 C 128.46 171.93 129.28 171.37 129.44 170.52 C 129.60 169.67 129.04 168.86 128.20 168.70 Z M 127.15 168.50 L 126.29 168.32 C 125.44 168.15 124.62 168.69 124.44 169.54 C 124.27 170.38 124.81 171.21 125.66 171.38 L 126.52 171.56 C 127.36 171.73 128.19 171.19 128.36 170.35 C 128.53 169.50 127.99 168.67 127.15 168.50 Z M 126.35 168.34 L 125.78 168.19 C 124.95 167.98 124.10 168.49 123.89 169.33 C 123.68 170.16 124.19 171.01 125.02 171.22 L 125.59 171.37 C 126.43 171.58 127.28 171.07 127.49 170.23 C 127.70 169.40 127.19 168.55 126.35 168.34 Z M 126.66 168.78 L 126.54 168.61 C 126.02 167.92 125.05 167.77 124.35 168.29 C 123.66 168.80 123.51 169.78 124.03 170.47 L 124.15 170.64 C 124.66 171.33 125.64 171.48 126.33 170.96 C 127.03 170.45 127.17 169.47 126.66 168.78 Z M 125.36 171.10 L 126.38 171.05 C 127.24 171.00 127.90 170.27 127.86 169.41 C 127.81 168.55 127.08 167.89 126.22 167.93 L 125.20 167.98 C 124.34 168.03 123.68 168.76 123.72 169.62 C 123.77 170.48 124.50 171.15 125.36 171.10 Z M 126.30 171.05 L 127.51 171.05 C 128.37 171.05 129.07 170.35 129.07 169.48 C 129.07 168.62 128.37 167.92 127.50 167.93 L 126.29 167.93 C 125.43 167.93 124.73 168.63 124.74 169.49 C 124.74 170.35 125.44 171.05 126.30 171.05 Z M 127.51 171.05 L 128.44 171.05 C 129.30 171.05 130.00 170.35 130.00 169.49 C 130.00 168.63 129.30 167.93 128.44 167.93 L 127.51 167.93 C 126.64 167.93 125.95 168.63 125.95 169.49 C 125.95 170.35 126.64 171.05 127.51 171.05 Z M 128.44 171.05 L 129.43 171.05 C 130.29 171.05 130.99 170.35 130.99 169.49 C 130.99 168.63 130.29 167.93 129.43 167.93 L 128.44 167.93 C 127.58 167.93 126.88 168.63 126.88 169.49 C 126.88 170.35 127.58 171.05 128.44 171.05 Z M 129.43 171.05 L 130.48 171.05 C 131.34 171.05 132.04 170.35 132.04 169.49 C 132.04 168.63 131.34 167.93 130.48 167.93 L 129.43 167.93 C 128.56 167.93 127.86 168.63 127.86 169.49 C 127.86 170.35 128.56 171.05 129.43 171.05 Z M 130.48 171.05 L 131.52 171.05 C 132.38 171.05 133.08 170.35 133.08 169.49 C 133.08 168.63 132.38 167.93 131.52 167.93 L 130.48 167.93 C 129.62 167.93 128.92 168.63 128.92 169.49 C 128.92 170.35 129.62 171.05 130.48 171.05 Z M 131.52 171.05 L 132.46 171.05 C 133.33 171.05 134.03 170.35 134.03 169.49 C 134.03 168.63 133.33 167.93 132.46 167.93 L 131.52 167.93 C 130.66 167.93 129.96 168.63 129.96 169.49 C 129.96 170.35 130.66 171.05 131.52 171.05 Z M 132.46 171.05 L 133.45 171.05 C 134.31 171.05 135.01 170.35 135.01 169.49 C 135.01 168.63 134.31 167.93 133.45 167.93 L 132.46 167.93 C 131.60 167.93 130.90 168.63 130.90 169.49 C 130.90 170.35 131.60 171.05 132.46 171.05 Z M 133.45 171.05 L 134.46 171.05 C 135.33 171.05 136.02 170.35 136.02 169.49 C 136.02 168.63 135.33 167.93 134.46 167.93 L 133.45 167.93 C 132.58 167.93 131.89 168.63 131.89 169.49 C 131.89 170.35 132.58 171.05 133.45 171.05 Z M 134.46 171.05 L 135.51 171.05 C 136.37 171.05 137.07 170.35 137.07 169.49 C 137.07 168.63 136.37 167.93 135.51 167.93 L 134.46 167.93 C 133.60 167.93 132.90 168.63 132.90 169.49 C 132.90 170.35 133.60 171.05 134.46 171.05 Z M 135.51 171.05 L 136.56 171.05 C 137.43 171.05 138.13 170.35 138.13 169.49 C 138.13 168.63 137.43 167.93 136.56 167.93 L 135.51 167.93 C 134.64 167.93 133.94 168.63 133.94 169.49 C 133.94 170.35 134.64 171.05 135.51 171.05 Z M 136.56 171.05 L 137.63 171.05 C 138.50 171.05 139.19 170.35 139.19 169.49 C 139.19 168.63 138.50 167.93 137.63 167.93 L 136.56 167.93 C 135.70 167.93 135.00 168.63 135.00 169.49 C 135.00 170.35 135.70 171.05 136.56 171.05 Z M 137.63 171.05 L 138.69 171.05 C 139.55 171.05 140.25 170.35 140.25 169.49 C 140.25 168.63 139.55 167.93 138.69 167.93 L 137.63 167.93 C 136.77 167.93 136.07 168.63 136.07 169.49 C 136.07 170.35 136.77 171.05 137.63 171.05 Z M 138.69 171.05 L 139.71 171.05 C 140.57 171.05 141.27 170.35 141.27 169.49 C 141.27 168.63 140.57 167.93 139.71 167.93 L 138.69 167.93 C 137.83 167.93 137.13 168.63 137.13 169.49 C 137.13 170.35 137.83 171.05 138.69 171.05 Z M 139.71 171.05 L 140.68 171.05 C 141.54 171.05 142.24 170.35 142.24 169.49 C 142.24 168.63 141.54 167.93 140.68 167.93 L 139.71 167.93 C 138.85 167.93 138.15 168.63 138.15 169.49 C 138.15 170.35 138.85 171.05 139.71 171.05 Z M 140.68 171.05 L 141.57 171.05 C 142.43 171.05 143.13 170.35 143.13 169.49 C 143.13 168.63 142.43 167.93 141.57 167.93 L 140.68 167.93 C 139.82 167.93 139.12 168.63 139.12 169.49 C 139.12 170.35 139.82 171.05 140.68 171.05 Z M 141.57 171.05 L 142.70 171.05 C 143.57 171.05 144.27 170.35 144.27 169.49 C 144.26 168.62 143.57 167.93 142.70 167.93 L 141.57 167.93 C 140.71 167.93 140.01 168.63 140.01 169.49 C 140.01 170.35 140.71 171.05 141.57 171.05 Z M 142.71 171.05 L 143.72 171.05 C 144.58 171.04 145.28 170.34 145.28 169.48 C 145.27 168.62 144.57 167.92 143.71 167.92 L 142.70 167.93 C 141.84 167.93 141.14 168.63 141.14 169.49 C 141.15 170.35 141.85 171.05 142.71 171.05 Z M 143.73 171.05 L 144.64 171.04 C 145.51 171.03 146.20 170.32 146.19 169.46 C 146.18 168.60 145.47 167.91 144.61 167.91 L 143.70 167.92 C 142.84 167.93 142.15 168.64 142.15 169.50 C 142.16 170.36 142.87 171.05 143.73 171.05 Z M 144.66 171.04 L 145.59 171.02 C 146.45 171.00 147.13 170.28 147.11 169.42 C 147.10 168.56 146.38 167.88 145.52 167.89 L 144.59 167.91 C 143.73 167.93 143.05 168.65 143.07 169.51 C 143.09 170.37 143.80 171.05 144.66 171.04 Z M 145.61 171.02 L 146.60 170.98 C 147.46 170.95 148.14 170.23 148.11 169.37 C 148.08 168.51 147.35 167.83 146.49 167.86 L 145.50 167.90 C 144.64 167.92 143.96 168.65 143.99 169.51 C 144.02 170.37 144.74 171.05 145.61 171.02 Z M 146.62 170.98 L 147.62 170.93 C 148.48 170.89 149.15 170.16 149.11 169.30 C 149.06 168.44 148.33 167.77 147.47 167.81 L 146.47 167.86 C 145.61 167.90 144.95 168.64 144.99 169.50 C 145.03 170.36 145.76 171.02 146.62 170.98 Z M 147.64 170.93 L 148.64 170.87 C 149.50 170.82 150.15 170.08 150.10 169.22 C 150.05 168.35 149.31 167.70 148.44 167.75 L 147.45 167.81 C 146.59 167.87 145.94 168.61 145.99 169.47 C 146.04 170.33 146.78 170.98 147.64 170.93 Z M 148.66 170.87 L 149.63 170.80 C 150.49 170.73 151.14 169.98 151.07 169.12 C 151.01 168.26 150.26 167.62 149.40 167.68 L 148.43 167.75 C 147.57 167.82 146.92 168.57 146.98 169.43 C 147.05 170.29 147.80 170.93 148.66 170.87 Z M 149.65 170.79 L 150.65 170.71 C 151.51 170.64 152.14 169.88 152.07 169.02 C 152.00 168.16 151.24 167.53 150.38 167.60 L 149.39 167.68 C 148.53 167.76 147.89 168.51 147.96 169.37 C 148.03 170.23 148.79 170.87 149.65 170.79 Z M 150.66 170.71 L 151.68 170.61 C 152.54 170.53 153.17 169.77 153.09 168.91 C 153.01 168.05 152.25 167.42 151.39 167.50 L 150.37 167.60 C 149.51 167.68 148.88 168.44 148.96 169.30 C 149.04 170.16 149.80 170.79 150.66 170.71 Z M 151.70 170.61 L 152.68 170.51 C 153.53 170.42 154.16 169.66 154.07 168.80 C 153.98 167.94 153.22 167.32 152.36 167.40 L 151.38 167.50 C 150.52 167.59 149.90 168.36 149.99 169.22 C 150.07 170.07 150.84 170.70 151.70 170.61 Z M 152.68 170.51 L 153.68 170.40 C 154.54 170.31 155.16 169.54 155.07 168.68 C 154.98 167.83 154.21 167.21 153.35 167.30 L 152.35 167.41 C 151.49 167.50 150.87 168.27 150.97 169.12 C 151.06 169.98 151.83 170.60 152.68 170.51 Z M 153.69 170.40 L 154.69 170.29 C 155.55 170.19 156.17 169.42 156.07 168.57 C 155.98 167.71 155.20 167.09 154.35 167.19 L 153.34 167.30 C 152.49 167.39 151.87 168.17 151.96 169.02 C 152.06 169.88 152.83 170.50 153.69 170.40 Z M 154.70 170.29 L 155.70 170.18 C 156.55 170.08 157.17 169.31 157.07 168.45 C 156.97 167.59 156.20 166.98 155.34 167.07 L 154.34 167.19 C 153.49 167.28 152.87 168.06 152.97 168.91 C 153.07 169.77 153.84 170.39 154.70 170.29 Z M 155.70 170.18 L 156.69 170.06 C 157.55 169.97 158.16 169.19 158.06 168.33 C 157.97 167.48 157.19 166.86 156.33 166.96 L 155.34 167.07 C 154.49 167.17 153.87 167.95 153.97 168.80 C 154.07 169.66 154.84 170.27 155.70 170.18 Z M 156.69 170.06 L 157.68 169.95 C 158.54 169.85 159.15 169.08 159.05 168.22 C 158.96 167.36 158.18 166.75 157.33 166.85 L 156.33 166.96 C 155.48 167.06 154.86 167.83 154.96 168.69 C 155.06 169.55 155.83 170.16 156.69 170.06 Z M 157.68 169.95 L 158.67 169.84 C 159.53 169.74 160.15 168.97 160.05 168.11 C 159.95 167.25 159.18 166.64 158.32 166.73 L 157.33 166.85 C 156.47 166.94 155.85 167.72 155.95 168.57 C 156.05 169.43 156.82 170.05 157.68 169.95 Z M 158.67 169.84 L 159.67 169.72 C 160.52 169.63 161.14 168.86 161.04 168.00 C 160.95 167.14 160.17 166.53 159.32 166.62 L 158.32 166.73 C 157.47 166.83 156.85 167.60 156.95 168.46 C 157.04 169.32 157.82 169.93 158.67 169.84 Z M 159.66 169.72 L 160.66 169.61 C 161.52 169.52 162.13 168.74 162.04 167.89 C 161.94 167.03 161.17 166.41 160.31 166.51 L 159.32 166.62 C 158.46 166.72 157.84 167.49 157.94 168.35 C 158.04 169.20 158.81 169.82 159.66 169.72 Z M 160.66 169.61 L 161.66 169.50 C 162.51 169.40 163.13 168.63 163.03 167.78 C 162.94 166.92 162.16 166.30 161.31 166.40 L 160.31 166.51 C 159.46 166.61 158.84 167.38 158.94 168.24 C 159.03 169.09 159.80 169.71 160.66 169.61 Z M 161.66 169.50 L 162.66 169.39 C 163.51 169.29 164.13 168.52 164.03 167.66 C 163.94 166.80 163.16 166.19 162.31 166.29 L 161.31 166.40 C 160.45 166.50 159.83 167.27 159.93 168.13 C 160.03 168.98 160.80 169.60 161.66 169.50 Z M 162.66 169.39 L 163.66 169.27 C 164.52 169.17 165.13 168.40 165.03 167.54 C 164.94 166.69 164.16 166.07 163.31 166.17 L 162.30 166.29 C 161.45 166.38 160.83 167.16 160.93 168.01 C 161.03 168.87 161.80 169.49 162.66 169.39 Z M 163.66 169.27 L 164.65 169.16 C 165.51 169.06 166.12 168.28 166.02 167.43 C 165.92 166.57 165.15 165.96 164.29 166.06 L 163.30 166.17 C 162.45 166.27 161.83 167.04 161.93 167.90 C 162.03 168.76 162.81 169.37 163.66 169.27 Z M 164.65 169.16 L 165.64 169.04 C 166.49 168.94 167.11 168.17 167.01 167.31 C 166.90 166.45 166.13 165.84 165.27 165.94 L 164.29 166.06 C 163.44 166.16 162.82 166.93 162.92 167.79 C 163.02 168.65 163.80 169.26 164.65 169.16 Z M 165.64 169.04 L 166.65 168.92 C 167.51 168.82 168.12 168.05 168.02 167.19 C 167.92 166.34 167.14 165.72 166.29 165.82 L 165.27 165.94 C 164.42 166.04 163.80 166.82 163.90 167.67 C 164.00 168.53 164.78 169.14 165.64 169.04 Z M 166.64 168.93 L 167.64 168.81 C 168.50 168.72 169.11 167.95 169.02 167.09 C 168.92 166.23 168.15 165.62 167.29 165.71 L 166.30 165.82 C 165.44 165.92 164.82 166.69 164.92 167.55 C 165.01 168.40 165.78 169.02 166.64 168.93 Z M 167.62 168.82 L 168.60 168.72 C 169.46 168.64 170.08 167.87 170.00 167.01 C 169.91 166.16 169.15 165.53 168.29 165.61 L 167.31 165.71 C 166.46 165.79 165.83 166.56 165.91 167.42 C 166.00 168.27 166.76 168.90 167.62 168.82 Z M 168.57 168.72 L 169.56 168.64 C 170.42 168.58 171.06 167.83 170.99 166.97 C 170.93 166.11 170.17 165.46 169.32 165.53 L 168.32 165.61 C 167.46 165.68 166.82 166.43 166.89 167.29 C 166.96 168.15 167.71 168.79 168.57 168.72 Z M 169.53 168.65 L 170.53 168.59 C 171.39 168.53 172.04 167.79 171.99 166.93 C 171.93 166.07 171.19 165.42 170.33 165.47 L 169.34 165.53 C 168.48 165.58 167.83 166.32 167.88 167.19 C 167.93 168.05 168.67 168.70 169.53 168.65 Z M 170.52 168.59 L 171.51 168.53 C 172.38 168.48 173.03 167.74 172.98 166.88 C 172.93 166.02 172.20 165.36 171.34 165.41 L 170.34 165.47 C 169.48 165.52 168.82 166.26 168.87 167.12 C 168.92 167.98 169.66 168.63 170.52 168.59 Z M 171.52 168.53 L 172.55 168.46 C 173.41 168.41 174.06 167.67 174.00 166.81 C 173.95 165.95 173.21 165.29 172.35 165.35 L 171.33 165.41 C 170.47 165.47 169.81 166.21 169.87 167.07 C 169.92 167.93 170.66 168.58 171.52 168.53 Z M 172.56 168.46 L 173.59 168.39 C 174.45 168.33 175.09 167.58 175.03 166.72 C 174.97 165.86 174.22 165.21 173.36 165.27 L 172.34 165.35 C 171.48 165.41 170.83 166.16 170.89 167.02 C 170.95 167.88 171.70 168.52 172.56 168.46 Z M 173.59 168.39 L 174.57 168.32 C 175.43 168.25 176.08 167.50 176.02 166.64 C 175.95 165.78 175.20 165.14 174.34 165.20 L 173.36 165.27 C 172.50 165.34 171.85 166.09 171.92 166.95 C 171.98 167.81 172.73 168.45 173.59 168.39 Z M 174.57 168.32 L 175.58 168.24 C 176.44 168.18 177.09 167.44 177.03 166.58 C 176.97 165.72 176.22 165.07 175.36 165.13 L 174.35 165.20 C 173.49 165.26 172.84 166.01 172.90 166.87 C 172.96 167.73 173.71 168.38 174.57 168.32 Z M 175.57 168.24 L 176.58 168.18 C 177.44 168.12 178.09 167.38 178.03 166.52 C 177.98 165.66 177.24 165.01 176.38 165.06 L 175.37 165.13 C 174.51 165.18 173.86 165.93 173.91 166.79 C 173.97 167.65 174.71 168.30 175.57 168.24 Z M 176.57 168.18 L 177.46 168.13 C 178.32 168.08 178.98 167.34 178.93 166.48 C 178.87 165.62 178.14 164.96 177.27 165.01 L 176.38 165.06 C 175.52 165.12 174.87 165.85 174.92 166.72 C 174.97 167.58 175.71 168.23 176.57 168.18 Z"
      fill="black"
      fill-rule="nonzero" /></svg>