<svg xmlns="http://www.w3.org/2000/svg" width="300" height="300" viewBox="0 0 300 300">
<path d="M 93.78 155.43 L 92.94 154.52 C 92.36 153.88 91.37 153.84 90.73 154.42 C 90.10 155.00 90.05 155.99 90.63 156.62 L 91.47 157.54 C 92.05 158.18 93.04 158.22 93.68 157.64 C 94.31 157.06 94.36 156.07 93.78 155.43 Z M 93.07 154.68 L 92.52 153.88 C 92.03 153.17 91.05 153.00 90.34 153.49 C 89.63 153.98 89.46 154.95 89.95 155.66 L 90.50 156.46 C 90.99 157.17 91.96 157.35 92.67 156.85 C 93.38 156.36 93.56 155.39 93.07 154.68 Z M 92.79 154.81 L 92.81 154.23 C 92.83 153.37 92.15 152.66 91.28 152.64 C 90.42 152.62 89.71 153.30 89.68 154.16 L 89.67 154.73 C 89.65 155.59 90.33 156.31 91.19 156.33 C 92.06 156.35 92.77 155.67 92.79 154.81 Z M 91.87 155.63 L 92.57 155.32 C 93.36 154.97 93.72 154.05 93.37 153.26 C 93.02 152.47 92.10 152.12 91.31 152.46 L 90.62 152.77 C 89.83 153.11 89.47 154.04 89.82 154.83 C 90.16 155.61 91.08 155.97 91.87 155.63 Z M 92.11 155.44 L 93.28 155.32 C 94.14 155.23 94.76 154.46 94.67 153.60 C 94.58 152.74 93.81 152.12 92.95 152.21 L 91.78 152.34 C 90.92 152.43 90.30 153.20 90.39 154.06 C 90.48 154.91 91.25 155.54 92.11 155.44 Z M 93.17 155.33 L 94.29 155.29 C 95.15 155.26 95.82 154.53 95.79 153.67 C 95.76 152.81 95.04 152.14 94.18 152.17 L 93.06 152.21 C 92.20 152.24 91.53 152.96 91.56 153.82 C 91.59 154.68 92.31 155.36 93.17 155.33 Z M 94.25 155.29 L 95.25 155.28 C 96.11 155.27 96.80 154.56 96.79 153.70 C 96.78 152.84 96.08 152.14 95.21 152.15 L 94.21 152.17 C 93.35 152.18 92.66 152.88 92.67 153.75 C 92.68 154.61 93.39 155.30 94.25 155.29 Z M 95.21 155.28 L 96.23 155.29 C 97.10 155.30 97.80 154.61 97.81 153.75 C 97.82 152.88 97.13 152.18 96.27 152.17 L 95.25 152.15 C 94.39 152.15 93.68 152.84 93.67 153.70 C 93.66 154.56 94.35 155.27 95.21 155.28 Z M 96.19 155.29 L 97.20 155.33 C 98.06 155.36 98.79 154.69 98.82 153.83 C 98.85 152.96 98.18 152.24 97.32 152.21 L 96.31 152.17 C 95.45 152.13 94.73 152.81 94.69 153.67 C 94.66 154.53 95.33 155.25 96.19 155.29 Z M 97.15 155.32 L 98.12 155.39 C 98.98 155.46 99.73 154.81 99.79 153.95 C 99.85 153.09 99.21 152.34 98.35 152.28 L 97.37 152.21 C 96.51 152.15 95.77 152.79 95.70 153.65 C 95.64 154.51 96.29 155.26 97.15 155.32 Z M 98.07 155.39 L 99.02 155.49 C 99.87 155.58 100.64 154.96 100.73 154.10 C 100.83 153.24 100.20 152.48 99.35 152.38 L 98.40 152.28 C 97.54 152.19 96.77 152.81 96.68 153.67 C 96.59 154.53 97.21 155.30 98.07 155.39 Z M 98.98 155.48 L 99.94 155.61 C 100.80 155.73 101.58 155.12 101.70 154.27 C 101.81 153.41 101.21 152.63 100.35 152.52 L 99.39 152.39 C 98.53 152.28 97.75 152.88 97.63 153.73 C 97.52 154.59 98.12 155.37 98.98 155.48 Z M 99.92 155.61 L 100.96 155.76 C 101.81 155.88 102.60 155.29 102.73 154.44 C 102.85 153.59 102.26 152.79 101.41 152.67 L 100.37 152.52 C 99.52 152.40 98.73 152.99 98.60 153.84 C 98.48 154.69 99.07 155.49 99.92 155.61 Z M 100.96 155.76 L 101.95 155.91 C 102.81 156.03 103.60 155.44 103.73 154.59 C 103.85 153.74 103.26 152.94 102.41 152.82 L 101.41 152.67 C 100.56 152.54 99.76 153.13 99.64 153.99 C 99.51 154.84 100.10 155.63 100.96 155.76 Z M 101.95 155.91 L 102.94 156.05 C 103.79 156.18 104.58 155.59 104.71 154.73 C 104.83 153.88 104.24 153.09 103.39 152.96 L 102.41 152.82 C 101.55 152.69 100.76 153.28 100.64 154.13 C 100.51 154.99 101.10 155.78 101.95 155.91 Z M 102.93 156.05 L 103.95 156.20 C 104.80 156.33 105.60 155.74 105.73 154.89 C 105.85 154.03 105.26 153.24 104.41 153.11 L 103.39 152.96 C 102.54 152.83 101.75 153.42 101.62 154.28 C 101.49 155.13 102.08 155.92 102.93 156.05 Z M 103.94 156.20 L 104.96 156.36 C 105.81 156.49 106.61 155.90 106.74 155.05 C 106.87 154.20 106.29 153.40 105.44 153.27 L 104.42 153.11 C 103.57 152.98 102.77 153.57 102.64 154.42 C 102.51 155.27 103.09 156.07 103.94 156.20 Z M 104.95 156.35 L 105.93 156.51 C 106.79 156.65 107.59 156.07 107.72 155.22 C 107.86 154.37 107.28 153.57 106.43 153.43 L 105.45 153.27 C 104.60 153.13 103.79 153.71 103.66 154.56 C 103.52 155.42 104.10 156.22 104.95 156.35 Z M 105.91 156.51 L 106.96 156.69 C 107.80 156.84 108.61 156.27 108.76 155.42 C 108.91 154.57 108.34 153.77 107.49 153.62 L 106.45 153.44 C 105.60 153.29 104.79 153.85 104.65 154.70 C 104.50 155.55 105.07 156.36 105.91 156.51 Z M 106.93 156.69 L 107.94 156.88 C 108.79 157.05 109.61 156.49 109.77 155.65 C 109.94 154.80 109.38 153.98 108.54 153.82 L 107.52 153.62 C 106.67 153.46 105.85 154.01 105.69 154.86 C 105.53 155.71 106.08 156.52 106.93 156.69 Z M 107.91 156.88 L 108.87 157.08 C 109.71 157.26 110.54 156.73 110.72 155.89 C 110.90 155.04 110.37 154.21 109.52 154.03 L 108.57 153.83 C 107.73 153.64 106.90 154.18 106.71 155.02 C 106.53 155.86 107.07 156.70 107.91 156.88 Z M 108.83 157.08 L 109.75 157.30 C 110.59 157.50 111.43 156.98 111.63 156.14 C 111.83 155.30 111.32 154.46 110.48 154.26 L 109.56 154.04 C 108.72 153.84 107.88 154.35 107.68 155.19 C 107.48 156.03 107.99 156.87 108.83 157.08 Z M 109.72 157.29 L 110.66 157.54 C 111.49 157.76 112.35 157.26 112.57 156.43 C 112.79 155.59 112.29 154.74 111.46 154.52 L 110.51 154.27 C 109.68 154.05 108.83 154.55 108.61 155.38 C 108.39 156.21 108.88 157.07 109.72 157.29 Z M 110.62 157.53 L 111.59 157.81 C 112.42 158.05 113.28 157.58 113.53 156.75 C 113.77 155.92 113.30 155.06 112.47 154.81 L 111.50 154.53 C 110.67 154.29 109.80 154.76 109.56 155.59 C 109.32 156.41 109.79 157.28 110.62 157.53 Z M 111.54 157.79 L 112.49 158.11 C 113.31 158.38 114.19 157.94 114.46 157.12 C 114.74 156.30 114.29 155.42 113.48 155.15 L 112.52 154.83 C 111.70 154.56 110.82 155.00 110.55 155.82 C 110.27 156.64 110.72 157.52 111.54 157.79 Z M 112.42 158.09 L 113.35 158.44 C 114.15 158.75 115.05 158.35 115.36 157.54 C 115.67 156.74 115.27 155.84 114.47 155.53 L 113.54 155.17 C 112.74 154.86 111.83 155.26 111.53 156.07 C 111.22 156.87 111.62 157.78 112.42 158.09 Z M 113.26 158.41 L 114.18 158.82 C 114.96 159.18 115.89 158.83 116.24 158.05 C 116.60 157.26 116.25 156.34 115.47 155.98 L 114.55 155.56 C 113.77 155.21 112.84 155.55 112.49 156.34 C 112.13 157.12 112.48 158.05 113.26 158.41 Z M 114.07 158.77 L 114.95 159.25 C 115.71 159.67 116.66 159.39 117.07 158.64 C 117.49 157.88 117.21 156.93 116.46 156.52 L 115.57 156.03 C 114.82 155.62 113.87 155.89 113.45 156.65 C 113.04 157.41 113.32 158.35 114.07 158.77 Z M 114.83 159.18 L 115.65 159.73 C 116.37 160.21 117.34 160.02 117.82 159.31 C 118.30 158.59 118.11 157.62 117.40 157.14 L 116.57 156.59 C 115.86 156.11 114.89 156.30 114.41 157.01 C 113.93 157.73 114.12 158.70 114.83 159.18 Z M 115.53 159.64 L 116.29 160.27 C 116.95 160.82 117.94 160.73 118.49 160.06 C 119.04 159.40 118.95 158.42 118.28 157.87 L 117.52 157.24 C 116.86 156.68 115.87 156.78 115.32 157.44 C 114.77 158.10 114.86 159.09 115.53 159.64 Z M 116.17 160.16 L 116.82 160.82 C 117.42 161.44 118.41 161.45 119.03 160.85 C 119.64 160.24 119.65 159.26 119.05 158.64 L 118.40 157.98 C 117.80 157.36 116.81 157.35 116.19 157.95 C 115.58 158.55 115.57 159.54 116.17 160.16 Z M 116.71 160.70 L 117.31 161.46 C 117.85 162.13 118.83 162.24 119.51 161.71 C 120.18 161.17 120.29 160.19 119.75 159.51 L 119.16 158.76 C 118.62 158.08 117.64 157.97 116.96 158.51 C 116.29 159.05 116.18 160.03 116.71 160.70 Z M 117.22 161.33 L 117.77 162.19 C 118.24 162.91 119.21 163.12 119.93 162.65 C 120.66 162.18 120.86 161.22 120.40 160.49 L 119.84 159.64 C 119.38 158.91 118.41 158.70 117.69 159.17 C 116.96 159.64 116.75 160.61 117.22 161.33 Z M 117.70 162.06 L 118.21 163.03 C 118.61 163.79 119.55 164.09 120.31 163.69 C 121.08 163.29 121.37 162.34 120.97 161.58 L 120.47 160.62 C 120.07 159.85 119.13 159.56 118.36 159.96 C 117.60 160.36 117.30 161.30 117.70 162.06 Z M 118.16 162.92 L 118.55 163.84 C 118.90 164.63 119.81 165.00 120.61 164.66 C 121.40 164.31 121.76 163.39 121.42 162.60 L 121.02 161.68 C 120.68 160.89 119.76 160.53 118.97 160.87 C 118.18 161.21 117.81 162.13 118.16 162.92 Z M 118.52 163.76 L 118.88 164.73 C 119.18 165.54 120.08 165.95 120.88 165.66 C 121.69 165.36 122.11 164.46 121.81 163.65 L 121.45 162.68 C 121.15 161.87 120.26 161.46 119.45 161.76 C 118.64 162.06 118.22 162.95 118.52 163.76 Z M 118.86 164.66 L 119.17 165.64 C 119.43 166.46 120.30 166.92 121.13 166.66 C 121.95 166.40 122.40 165.52 122.14 164.70 L 121.83 163.72 C 121.57 162.90 120.70 162.44 119.87 162.70 C 119.05 162.96 118.60 163.84 118.86 164.66 Z M 119.15 165.58 L 119.40 166.53 C 119.62 167.36 120.48 167.85 121.31 167.63 C 122.15 167.41 122.64 166.55 122.42 165.72 L 122.16 164.77 C 121.94 163.93 121.08 163.44 120.25 163.66 C 119.42 163.89 118.92 164.74 119.15 165.58 Z M 119.38 166.45 L 119.59 167.44 C 119.77 168.29 120.60 168.82 121.45 168.64 C 122.29 168.46 122.83 167.63 122.65 166.79 L 122.44 165.80 C 122.26 164.95 121.43 164.41 120.58 164.59 C 119.74 164.77 119.20 165.60 119.38 166.45 Z M 119.58 167.34 L 119.73 168.38 C 119.85 169.23 120.64 169.82 121.50 169.70 C 122.35 169.57 122.94 168.78 122.82 167.93 L 122.67 166.89 C 122.54 166.04 121.75 165.45 120.90 165.57 C 120.04 165.70 119.45 166.49 119.58 167.34 Z M 119.72 168.27 L 119.79 169.23 C 119.86 170.09 120.61 170.73 121.47 170.66 C 122.33 170.60 122.97 169.84 122.90 168.98 L 122.83 168.03 C 122.76 167.17 122.01 166.53 121.15 166.59 C 120.29 166.66 119.65 167.41 119.72 168.27 Z M 119.79 169.16 L 119.82 170.09 C 119.85 170.96 120.57 171.63 121.43 171.60 C 122.29 171.57 122.97 170.85 122.94 169.99 L 122.91 169.05 C 122.88 168.19 122.16 167.52 121.30 167.55 C 120.43 167.58 119.76 168.30 119.79 169.16 Z M 119.82 170.07 L 119.83 171.02 C 119.85 171.88 120.56 172.57 121.42 172.56 C 122.28 172.55 122.97 171.84 122.95 170.97 L 122.94 170.02 C 122.93 169.16 122.22 168.47 121.36 168.48 C 120.49 168.49 119.80 169.20 119.82 170.07 Z M 119.83 171.01 L 119.84 172.00 C 119.84 172.86 120.55 173.56 121.41 173.55 C 122.27 173.55 122.97 172.84 122.96 171.98 L 122.95 170.99 C 122.95 170.13 122.24 169.43 121.38 169.44 C 120.52 169.44 119.83 170.15 119.83 171.01 Z M 119.84 171.99 L 119.84 173.02 C 119.84 173.88 120.54 174.58 121.41 174.57 C 122.27 174.57 122.96 173.87 122.96 173.01 L 122.96 171.99 C 122.96 171.12 122.26 170.43 121.40 170.43 C 120.54 170.43 119.84 171.13 119.84 171.99 Z M 119.84 173.01 L 119.84 174.03 C 119.84 174.89 120.54 175.59 121.40 175.59 C 122.26 175.59 122.96 174.89 122.96 174.03 L 122.96 173.01 C 122.96 172.15 122.26 171.45 121.40 171.45 C 120.54 171.45 119.84 172.15 119.84 173.01 Z M 119.84 174.03 L 119.84 175.01 C 119.84 175.87 120.54 176.57 121.40 176.57 C 122.26 176.57 122.96 175.87 122.96 175.01 L 122.96 174.03 C 122.96 173.16 122.26 172.47 121.40 172.47 C 120.54 172.47 119.84 173.16 119.84 174.03 Z M 119.84 175.01 L 119.84 176.01 C 119.84 176.87 120.54 177.57 121.40 177.57 C 122.26 177.57 122.96 176.87 122.96 176.01 L 122.96 175.01 C 122.96 174.15 122.26 173.45 121.40 173.45 C 120.54 173.45 119.84 174.15 119.84 175.01 Z M 119.84 176.01 L 119.84 177.03 C 119.84 177.89 120.54 178.59 121.40 178.59 C 122.26 178.59 122.96 177.89 122.96 177.03 L 122.96 176.01 C 122.96 175.15 122.26 174.45 121.40 174.45 C 120.54 174.45 119.84 175.15 119.84 176.01 Z M 119.84 177.03 L 119.84 178.03 C 119.84 178.89 120.54 179.59 121.40 179.59 C 122.26 179.59 122.96 178.89 122.96 178.03 L 122.96 177.03 C 122.96 176.16 122.26 175.46 121.40 175.46 C 120.54 175.46 119.84 176.16 119.84 177.03 Z M 119.84 178.02 L 119.84 179.01 C 119.84 179.88 120.54 180.57 121.40 180.58 C 122.26 180.58 122.96 179.88 122.96 179.02 L 122.96 178.03 C 122.96 177.17 122.27 176.47 121.40 176.47 C 120.54 176.46 119.84 177.16 119.84 178.02 Z M 119.84 179.01 L 119.84 180.01 C 119.83 180.87 120.53 181.57 121.39 181.58 C 122.25 181.58 122.95 180.88 122.96 180.02 L 122.96 179.02 C 122.97 178.16 122.27 177.46 121.41 177.45 C 120.55 177.45 119.84 178.15 119.84 179.01 Z M 119.84 180.00 L 119.83 181.01 C 119.82 181.88 120.51 182.58 121.37 182.59 C 122.24 182.60 122.94 181.90 122.95 181.04 L 122.96 180.03 C 122.97 179.17 122.27 178.46 121.41 178.45 C 120.55 178.45 119.84 179.14 119.84 180.00 Z M 119.83 181.00 L 119.81 182.00 C 119.80 182.86 120.49 183.57 121.35 183.59 C 122.21 183.60 122.92 182.91 122.93 182.05 L 122.95 181.05 C 122.96 180.19 122.27 179.48 121.41 179.47 C 120.55 179.45 119.84 180.14 119.83 181.00 Z M 119.81 181.99 L 119.79 182.97 C 119.77 183.83 120.45 184.54 121.31 184.56 C 122.17 184.58 122.89 183.90 122.91 183.04 L 122.93 182.06 C 122.95 181.20 122.27 180.48 121.41 180.46 C 120.55 180.44 119.83 181.13 119.81 181.99 Z M 119.79 182.95 L 119.76 183.94 C 119.73 184.81 120.40 185.53 121.27 185.56 C 122.13 185.58 122.85 184.91 122.88 184.05 L 122.91 183.05 C 122.94 182.19 122.26 181.47 121.40 181.44 C 120.54 181.41 119.82 182.09 119.79 182.95 Z M 119.76 183.93 L 119.71 184.94 C 119.68 185.80 120.34 186.53 121.21 186.57 C 122.07 186.60 122.80 185.94 122.83 185.07 L 122.88 184.06 C 122.91 183.20 122.25 182.47 121.38 182.44 C 120.52 182.40 119.79 183.07 119.76 183.93 Z M 119.71 184.92 L 119.66 185.95 C 119.61 186.81 120.27 187.55 121.13 187.59 C 121.99 187.64 122.73 186.98 122.78 186.12 L 122.83 185.09 C 122.88 184.23 122.22 183.49 121.36 183.45 C 120.50 183.40 119.76 184.06 119.71 184.92 Z M 119.66 185.93 L 119.59 186.93 C 119.54 187.79 120.19 188.53 121.05 188.59 C 121.91 188.64 122.65 187.99 122.71 187.13 L 122.77 186.13 C 122.83 185.27 122.18 184.53 121.32 184.48 C 120.46 184.42 119.72 185.07 119.66 185.93 Z M 119.60 186.92 L 119.52 187.92 C 119.46 188.78 120.11 189.53 120.97 189.59 C 121.83 189.66 122.57 189.01 122.64 188.15 L 122.71 187.14 C 122.77 186.28 122.12 185.53 121.26 185.47 C 120.40 185.41 119.66 186.06 119.60 186.92 Z M 119.52 187.92 L 119.45 188.92 C 119.38 189.78 120.02 190.53 120.88 190.60 C 121.74 190.66 122.49 190.02 122.56 189.16 L 122.64 188.16 C 122.70 187.30 122.06 186.55 121.20 186.48 C 120.34 186.41 119.59 187.06 119.52 187.92 Z M 119.45 188.92 L 119.37 189.92 C 119.30 190.77 119.95 191.53 120.81 191.59 C 121.67 191.66 122.42 191.01 122.48 190.15 L 122.56 189.16 C 122.63 188.30 121.98 187.55 121.12 187.49 C 120.26 187.42 119.51 188.06 119.45 188.92 Z M 119.37 189.92 L 119.29 190.93 C 119.23 191.79 119.88 192.54 120.74 192.60 C 121.60 192.66 122.34 192.02 122.41 191.16 L 122.48 190.15 C 122.55 189.29 121.90 188.54 121.04 188.48 C 120.18 188.41 119.43 189.06 119.37 189.92 Z M 119.29 190.93 L 119.22 191.95 C 119.16 192.81 119.81 193.55 120.67 193.61 C 121.53 193.67 122.28 193.02 122.34 192.16 L 122.41 191.15 C 122.47 190.29 121.82 189.55 120.96 189.49 C 120.10 189.42 119.36 190.07 119.29 190.93 Z M 119.22 191.95 L 119.16 192.94 C 119.10 193.80 119.75 194.55 120.61 194.60 C 121.47 194.66 122.21 194.01 122.27 193.15 L 122.34 192.16 C 122.40 191.30 121.75 190.55 120.89 190.50 C 120.02 190.44 119.28 191.09 119.22 191.95 Z M 119.16 192.95 L 119.09 193.93 C 119.04 194.79 119.69 195.53 120.55 195.59 C 121.41 195.64 122.15 194.99 122.21 194.13 L 122.27 193.15 C 122.33 192.29 121.68 191.54 120.82 191.49 C 119.95 191.43 119.21 192.08 119.16 192.95 Z M 119.09 193.93 L 119.03 194.91 C 118.97 195.78 119.63 196.52 120.49 196.57 C 121.35 196.63 122.09 195.97 122.15 195.11 L 122.21 194.13 C 122.26 193.27 121.61 192.52 120.75 192.47 C 119.89 192.41 119.15 193.07 119.09 193.93 Z M 119.03 194.92 L 118.97 195.92 C 118.91 196.78 119.57 197.52 120.43 197.57 C 121.29 197.63 122.03 196.97 122.08 196.11 L 122.15 195.11 C 122.20 194.25 121.54 193.51 120.68 193.46 C 119.82 193.40 119.08 194.06 119.03 194.92 Z M 118.97 195.93 L 118.91 196.93 C 118.86 197.79 119.52 198.53 120.38 198.58 C 121.24 198.63 121.98 197.97 122.03 197.11 L 122.08 196.11 C 122.13 195.24 121.48 194.51 120.61 194.46 C 119.75 194.41 119.02 195.07 118.97 195.93 Z M 118.91 196.94 L 118.86 197.94 C 118.82 198.80 119.48 199.53 120.34 199.58 C 121.20 199.62 121.94 198.96 121.98 198.09 L 122.03 197.10 C 122.07 196.23 121.41 195.50 120.54 195.46 C 119.68 195.42 118.95 196.08 118.91 196.94 Z M 118.86 197.96 L 118.82 198.95 C 118.79 199.81 119.46 200.54 120.32 200.57 C 121.18 200.60 121.91 199.93 121.94 199.07 L 121.98 198.08 C 122.01 197.21 121.34 196.49 120.48 196.46 C 119.62 196.43 118.89 197.10 118.86 197.96 Z M 118.82 198.97 L 118.80 199.98 C 118.78 200.84 119.46 201.56 120.32 201.58 C 121.18 201.60 121.90 200.92 121.92 200.05 L 121.94 199.05 C 121.96 198.18 121.28 197.47 120.42 197.45 C 119.56 197.43 118.84 198.11 118.82 198.97 Z M 118.80 200.00 L 118.79 201.00 C 118.77 201.86 119.47 202.57 120.33 202.58 C 121.19 202.59 121.90 201.90 121.91 201.03 L 121.92 200.04 C 121.93 199.17 121.24 198.47 120.38 198.46 C 119.51 198.45 118.81 199.14 118.80 200.00 Z M 118.78 201.01 L 118.78 202.00 C 118.78 202.87 119.47 203.57 120.34 203.57 C 121.20 203.57 121.90 202.88 121.90 202.02 L 121.91 201.02 C 121.91 200.16 121.22 199.46 120.35 199.45 C 119.49 199.45 118.79 200.15 118.78 201.01 Z M 118.78 202.01 L 118.78 203.01 C 118.78 203.87 119.48 204.57 120.34 204.57 C 121.20 204.57 121.90 203.87 121.90 203.01 L 121.90 202.01 C 121.90 201.15 121.20 200.45 120.34 200.45 C 119.48 200.45 118.78 201.15 118.78 202.01 Z M 118.78 203.01 L 118.78 204.01 C 118.78 204.87 119.48 205.57 120.34 205.57 C 121.20 205.57 121.90 204.87 121.90 204.01 L 121.90 203.01 C 121.90 202.15 121.20 201.45 120.34 201.45 C 119.48 201.45 118.78 202.15 118.78 203.01 Z M 118.78 204.01 L 118.78 205.02 C 118.78 205.88 119.48 206.58 120.34 206.58 C 121.20 206.58 121.90 205.88 121.90 205.02 L 121.90 204.01 C 121.90 203.15 121.20 202.45 120.34 202.45 C 119.48 202.45 118.78 203.15 118.78 204.01 Z M 118.78 205.02 L 118.78 206.02 C 118.78 206.88 119.48 207.58 120.34 207.58 C 121.20 207.58 121.90 206.88 121.90 206.02 L 121.90 205.02 C 121.90 204.15 121.20 203.45 120.34 203.45 C 119.48 203.45 118.78 204.15 118.78 205.02 Z M 118.78 206.02 L 118.78 207.01 C 118.78 207.87 119.48 208.57 120.34 208.57 C 121.20 208.57 121.90 207.87 121.90 207.01 L 121.90 206.02 C 121.90 205.15 121.20 204.46 120.34 204.46 C 119.48 204.46 118.78 205.15 118.78 206.02 Z M 118.78 207.01 L 118.78 208.01 C 118.78 208.87 119.48 209.57 120.35 209.57 C 121.21 209.56 121.91 208.86 121.90 208.00 L 121.90 207.00 C 121.90 206.14 121.20 205.44 120.34 205.45 C 119.48 205.45 118.78 206.15 118.78 207.01 Z M 118.78 208.03 L 118.79 209.02 C 118.81 209.88 119.51 210.57 120.38 210.56 C 121.24 210.55 121.93 209.84 121.92 208.98 L 121.90 207.99 C 121.89 207.12 121.19 206.43 120.32 206.44 C 119.46 206.46 118.77 207.16 118.78 208.03 Z M 118.80 209.05 L 118.83 210.05 C 118.86 210.91 119.58 211.58 120.44 211.55 C 121.31 211.52 121.98 210.80 121.95 209.94 L 121.92 208.94 C 121.89 208.08 121.16 207.41 120.30 207.44 C 119.44 207.47 118.77 208.19 118.80 209.05 Z M 118.83 210.10 L 118.90 211.11 C 118.96 211.97 119.70 212.62 120.56 212.56 C 121.42 212.51 122.07 211.76 122.01 210.90 L 121.95 209.89 C 121.89 209.03 121.15 208.38 120.29 208.44 C 119.43 208.49 118.78 209.24 118.83 210.10 Z M 118.90 211.16 L 119.01 212.18 C 119.10 213.03 119.86 213.66 120.72 213.57 C 121.58 213.48 122.20 212.71 122.11 211.86 L 122.01 210.84 C 121.92 209.99 121.15 209.36 120.30 209.45 C 119.44 209.54 118.82 210.31 118.90 211.16 Z M 119.01 212.23 L 119.16 213.24 C 119.27 214.10 120.06 214.69 120.92 214.57 C 121.77 214.46 122.37 213.67 122.25 212.81 L 122.11 211.80 C 121.99 210.95 121.20 210.35 120.35 210.47 C 119.49 210.59 118.90 211.38 119.01 212.23 Z M 119.16 213.30 L 119.34 214.28 C 119.49 215.13 120.30 215.70 121.15 215.55 C 121.99 215.40 122.56 214.59 122.41 213.74 L 122.24 212.76 C 122.09 211.91 121.28 211.34 120.43 211.49 C 119.58 211.64 119.02 212.45 119.16 213.30 Z M 119.35 214.34 L 119.55 215.28 C 119.73 216.13 120.56 216.66 121.41 216.48 C 122.25 216.30 122.79 215.47 122.60 214.63 L 122.40 213.69 C 122.22 212.84 121.39 212.31 120.55 212.49 C 119.70 212.67 119.17 213.50 119.35 214.34 Z M 119.57 215.36 L 119.84 216.39 C 120.06 217.22 120.92 217.72 121.75 217.49 C 122.59 217.27 123.08 216.42 122.86 215.58 L 122.59 214.55 C 122.37 213.72 121.51 213.22 120.68 213.45 C 119.84 213.67 119.35 214.52 119.57 215.36 Z M 119.86 216.46 L 120.17 217.41 C 120.43 218.23 121.31 218.69 122.13 218.42 C 122.95 218.16 123.41 217.28 123.14 216.46 L 122.84 215.51 C 122.57 214.69 121.70 214.24 120.87 214.50 C 120.05 214.76 119.60 215.64 119.86 216.46 Z M 120.19 217.48 L 120.53 218.37 C 120.83 219.18 121.72 219.59 122.53 219.29 C 123.34 218.99 123.75 218.09 123.45 217.29 L 123.12 216.39 C 122.82 215.58 121.92 215.17 121.11 215.47 C 120.30 215.77 119.89 216.67 120.19 217.48 Z M 120.55 218.43 L 120.90 219.27 C 121.23 220.07 122.14 220.44 122.94 220.11 C 123.73 219.78 124.11 218.87 123.78 218.07 L 123.43 217.23 C 123.10 216.43 122.19 216.06 121.39 216.39 C 120.59 216.72 120.22 217.63 120.55 218.43 Z M 120.92 219.33 L 121.32 220.17 C 121.68 220.95 122.61 221.29 123.39 220.92 C 124.17 220.56 124.51 219.63 124.14 218.85 L 123.75 218.01 C 123.39 217.23 122.46 216.89 121.68 217.26 C 120.90 217.62 120.56 218.55 120.92 219.33 Z M 121.36 220.25 L 121.83 221.14 C 122.24 221.90 123.19 222.18 123.95 221.78 C 124.71 221.37 124.99 220.42 124.59 219.66 L 124.11 218.77 C 123.70 218.01 122.75 217.73 121.99 218.13 C 121.23 218.54 120.95 219.49 121.36 220.25 Z M 121.88 221.21 L 122.45 222.16 C 122.90 222.90 123.86 223.13 124.60 222.68 C 125.34 222.23 125.57 221.27 125.12 220.54 L 124.54 219.59 C 124.09 218.85 123.13 218.62 122.40 219.07 C 121.66 219.52 121.43 220.48 121.88 221.21 Z M 122.49 222.21 L 122.99 222.96 C 123.47 223.68 124.44 223.87 125.15 223.39 C 125.87 222.92 126.06 221.95 125.58 221.23 L 125.09 220.48 C 124.61 219.76 123.64 219.57 122.92 220.05 C 122.20 220.53 122.01 221.50 122.49 222.21 Z M 123.02 223.01 L 123.59 223.80 C 124.09 224.50 125.06 224.66 125.76 224.15 C 126.46 223.65 126.62 222.67 126.12 221.97 L 125.55 221.18 C 125.05 220.48 124.08 220.32 123.37 220.83 C 122.67 221.33 122.52 222.31 123.02 223.01 Z M 123.62 223.84 L 124.25 224.65 C 124.78 225.33 125.76 225.46 126.44 224.93 C 127.12 224.40 127.24 223.42 126.71 222.74 L 126.09 221.93 C 125.56 221.25 124.58 221.12 123.90 221.65 C 123.21 222.18 123.09 223.16 123.62 223.84 Z M 124.29 224.70 L 124.97 225.51 C 125.53 226.17 126.51 226.25 127.17 225.69 C 127.83 225.13 127.91 224.15 127.36 223.49 L 126.67 222.68 C 126.12 222.03 125.13 221.94 124.47 222.50 C 123.81 223.06 123.73 224.04 124.29 224.70 Z M 125.02 225.56 L 125.75 226.35 C 126.34 226.98 127.33 227.01 127.96 226.42 C 128.59 225.83 128.62 224.85 128.03 224.22 L 127.31 223.43 C 126.72 222.80 125.73 222.77 125.10 223.36 C 124.47 223.95 124.43 224.93 125.02 225.56 Z M 125.81 226.41 L 126.55 227.12 C 127.17 227.72 128.16 227.70 128.76 227.08 C 129.36 226.46 129.34 225.47 128.72 224.87 L 127.98 224.16 C 127.35 223.56 126.37 223.58 125.77 224.20 C 125.17 224.82 125.19 225.81 125.81 226.41 Z M 126.62 227.18 L 127.39 227.85 C 128.04 228.41 129.03 228.33 129.59 227.68 C 130.15 227.03 130.08 226.04 129.43 225.48 L 128.65 224.81 C 128.00 224.25 127.02 224.32 126.45 224.98 C 125.89 225.63 125.96 226.62 126.62 227.18 Z M 127.46 227.90 L 128.26 228.51 C 128.94 229.04 129.92 228.91 130.45 228.23 C 130.97 227.54 130.84 226.56 130.16 226.04 L 129.36 225.42 C 128.68 224.90 127.70 225.03 127.17 225.71 C 126.65 226.40 126.77 227.38 127.46 227.90 Z M 128.33 228.57 L 129.15 229.12 C 129.86 229.61 130.83 229.42 131.32 228.71 C 131.80 227.99 131.62 227.02 130.90 226.54 L 130.09 225.98 C 129.37 225.50 128.40 225.69 127.92 226.40 C 127.43 227.11 127.62 228.08 128.33 228.57 Z M 129.23 229.18 L 130.06 229.67 C 130.80 230.11 131.76 229.86 132.20 229.12 C 132.64 228.38 132.39 227.42 131.65 226.98 L 130.82 226.49 C 130.08 226.05 129.12 226.29 128.68 227.04 C 128.24 227.78 128.49 228.74 129.23 229.18 Z M 130.16 229.72 L 131.06 230.17 C 131.83 230.56 132.77 230.25 133.15 229.48 C 133.54 228.71 133.23 227.77 132.46 227.38 L 131.56 226.93 C 130.79 226.54 129.85 226.85 129.46 227.62 C 129.08 228.39 129.39 229.33 130.16 229.72 Z M 131.16 230.22 L 132.10 230.61 C 132.89 230.94 133.81 230.56 134.14 229.76 C 134.47 228.96 134.09 228.05 133.29 227.72 L 132.36 227.33 C 131.56 227.00 130.65 227.38 130.32 228.18 C 129.99 228.97 130.36 229.89 131.16 230.22 Z M 132.20 230.64 L 133.14 230.96 C 133.96 231.24 134.84 230.80 135.12 229.98 C 135.39 229.16 134.95 228.28 134.13 228.00 L 133.19 227.68 C 132.37 227.41 131.49 227.85 131.21 228.67 C 130.94 229.48 131.38 230.37 132.20 230.64 Z M 133.23 230.99 L 134.18 231.24 C 135.01 231.47 135.87 230.98 136.10 230.14 C 136.32 229.31 135.83 228.45 134.99 228.23 L 134.04 227.97 C 133.21 227.75 132.35 228.24 132.13 229.07 C 131.90 229.91 132.40 230.76 133.23 230.99 Z M 134.26 231.26 L 135.22 231.47 C 136.07 231.65 136.90 231.11 137.08 230.27 C 137.26 229.43 136.72 228.60 135.88 228.42 L 134.91 228.21 C 134.07 228.03 133.24 228.57 133.06 229.41 C 132.88 230.25 133.42 231.08 134.26 231.26 Z M 135.29 231.48 L 136.22 231.64 C 137.07 231.78 137.87 231.21 138.02 230.36 C 138.16 229.51 137.59 228.70 136.74 228.56 L 135.81 228.40 C 134.96 228.26 134.15 228.83 134.01 229.68 C 133.87 230.53 134.44 231.34 135.29 231.48 Z M 136.27 231.65 L 137.22 231.77 C 138.07 231.88 138.86 231.28 138.97 230.43 C 139.08 229.57 138.48 228.79 137.62 228.68 L 136.68 228.55 C 135.82 228.44 135.04 229.04 134.93 229.90 C 134.82 230.75 135.42 231.54 136.27 231.65 Z M 137.27 231.78 L 138.25 231.87 C 139.10 231.96 139.87 231.33 139.95 230.47 C 140.03 229.61 139.41 228.85 138.55 228.76 L 137.57 228.67 C 136.71 228.59 135.95 229.21 135.87 230.07 C 135.78 230.93 136.41 231.69 137.27 231.78 Z M 138.29 231.88 L 139.31 231.95 C 140.17 232.01 140.92 231.36 140.98 230.50 C 141.04 229.64 140.39 228.89 139.53 228.83 L 138.50 228.76 C 137.64 228.70 136.90 229.35 136.84 230.21 C 136.78 231.07 137.43 231.82 138.29 231.88 Z M 139.35 231.95 L 140.43 232.00 C 141.29 232.04 142.02 231.37 142.06 230.51 C 142.10 229.65 141.43 228.92 140.57 228.88 L 139.49 228.83 C 138.63 228.79 137.90 229.45 137.86 230.32 C 137.82 231.18 138.49 231.91 139.35 231.95 Z M 140.45 232.00 L 141.47 232.03 C 142.34 232.06 143.06 231.38 143.08 230.52 C 143.11 229.65 142.43 228.94 141.57 228.91 L 140.55 228.88 C 139.69 228.85 138.97 229.53 138.94 230.39 C 138.91 231.25 139.59 231.97 140.45 232.00 Z M 141.50 232.03 L 142.53 232.04 C 143.40 232.06 144.10 231.37 144.12 230.50 C 144.13 229.64 143.44 228.93 142.57 228.92 L 141.54 228.91 C 140.68 228.90 139.97 229.59 139.96 230.45 C 139.95 231.31 140.64 232.02 141.50 232.03 Z M 142.57 232.04 L 143.61 232.04 C 144.47 232.03 145.16 231.32 145.16 230.46 C 145.15 229.60 144.44 228.91 143.58 228.91 L 142.54 228.92 C 141.68 228.93 140.99 229.63 140.99 230.50 C 141.00 231.36 141.70 232.05 142.57 232.04 Z M 143.65 232.04 L 144.67 232.00 C 145.53 231.97 146.21 231.25 146.18 230.38 C 146.15 229.52 145.42 228.85 144.56 228.88 L 143.54 228.91 C 142.68 228.94 142.00 229.67 142.03 230.53 C 142.06 231.39 142.79 232.07 143.65 232.04 Z M 144.73 232.00 L 145.70 231.93 C 146.56 231.87 147.21 231.12 147.15 230.26 C 147.09 229.40 146.35 228.75 145.49 228.81 L 144.51 228.88 C 143.65 228.94 143.00 229.69 143.06 230.55 C 143.12 231.41 143.87 232.06 144.73 232.00 Z M 145.78 231.92 L 146.70 231.81 C 147.56 231.71 148.17 230.94 148.07 230.08 C 147.97 229.22 147.19 228.61 146.33 228.71 L 145.41 228.82 C 144.56 228.92 143.94 229.70 144.04 230.55 C 144.15 231.41 144.92 232.02 145.78 231.92 Z M 146.82 231.79 L 147.93 231.58 C 148.78 231.41 149.33 230.59 149.16 229.74 C 149.00 228.90 148.18 228.35 147.33 228.51 L 146.22 228.73 C 145.37 228.90 144.82 229.72 144.98 230.56 C 145.15 231.41 145.97 231.96 146.82 231.79 Z M 148.08 231.54 L 149.05 231.25 C 149.88 231.00 150.35 230.13 150.10 229.30 C 149.85 228.48 148.98 228.01 148.15 228.26 L 147.18 228.55 C 146.36 228.80 145.89 229.67 146.13 230.49 C 146.38 231.32 147.25 231.79 148.08 231.54 Z M 149.19 231.20 L 150.07 230.84 C 150.86 230.52 151.25 229.60 150.92 228.81 C 150.59 228.01 149.68 227.62 148.88 227.95 L 148.01 228.31 C 147.21 228.63 146.83 229.54 147.16 230.34 C 147.48 231.14 148.39 231.52 149.19 231.20 Z M 150.18 230.79 L 150.99 230.38 C 151.76 229.99 152.07 229.05 151.68 228.28 C 151.29 227.51 150.35 227.20 149.58 227.59 L 148.77 228.00 C 148.00 228.39 147.69 229.33 148.08 230.10 C 148.47 230.87 149.41 231.18 150.18 230.79 Z M 151.07 230.33 L 151.84 229.88 C 152.59 229.45 152.84 228.49 152.40 227.75 C 151.97 227.00 151.01 226.75 150.27 227.19 L 149.50 227.64 C 148.76 228.07 148.50 229.03 148.94 229.77 C 149.37 230.52 150.33 230.77 151.07 230.33 Z M 151.90 229.85 L 152.68 229.35 C 153.40 228.88 153.61 227.92 153.15 227.19 C 152.68 226.47 151.71 226.26 150.99 226.72 L 150.21 227.22 C 149.49 227.69 149.28 228.65 149.74 229.38 C 150.21 230.10 151.17 230.32 151.90 229.85 Z M 152.72 229.32 L 153.54 228.76 C 154.25 228.27 154.43 227.30 153.94 226.59 C 153.45 225.88 152.48 225.70 151.77 226.19 L 150.95 226.75 C 150.24 227.24 150.06 228.21 150.55 228.92 C 151.04 229.63 152.01 229.81 152.72 229.32 Z M 153.56 228.74 L 154.45 228.10 C 155.15 227.60 155.31 226.62 154.81 225.92 C 154.30 225.22 153.33 225.06 152.63 225.57 L 151.74 226.21 C 151.04 226.71 150.88 227.69 151.38 228.39 C 151.89 229.09 152.86 229.24 153.56 228.74 Z M 154.46 228.09 L 155.27 227.50 C 155.97 226.99 156.12 226.01 155.61 225.32 C 155.10 224.62 154.12 224.47 153.43 224.98 L 152.61 225.58 C 151.92 226.09 151.77 227.06 152.28 227.76 C 152.79 228.45 153.77 228.60 154.46 228.09 Z M 155.28 227.49 L 156.00 226.96 C 156.69 226.45 156.84 225.47 156.33 224.78 C 155.81 224.08 154.83 223.94 154.14 224.45 L 153.42 224.99 C 152.73 225.50 152.58 226.48 153.09 227.17 C 153.61 227.86 154.59 228.01 155.28 227.49 Z M 156.00 226.96 L 156.77 226.39 C 157.46 225.87 157.60 224.89 157.09 224.20 C 156.57 223.51 155.59 223.37 154.90 223.88 L 154.14 224.45 C 153.45 224.97 153.30 225.95 153.82 226.64 C 154.33 227.33 155.31 227.47 156.00 226.96 Z M 156.77 226.38 L 157.58 225.78 C 158.27 225.26 158.41 224.28 157.89 223.59 C 157.37 222.90 156.39 222.76 155.70 223.28 L 154.90 223.89 C 154.21 224.40 154.07 225.38 154.59 226.07 C 155.11 226.76 156.08 226.90 156.77 226.38 Z M 157.58 225.78 L 158.42 225.15 C 159.11 224.63 159.24 223.65 158.72 222.96 C 158.20 222.27 157.23 222.13 156.54 222.65 L 155.70 223.28 C 155.01 223.80 154.88 224.78 155.40 225.47 C 155.91 226.16 156.89 226.30 157.58 225.78 Z M 158.42 225.14 L 159.29 224.49 C 159.97 223.97 160.11 222.99 159.59 222.30 C 159.06 221.61 158.08 221.48 157.40 222.00 L 156.53 222.66 C 155.85 223.18 155.71 224.16 156.23 224.84 C 156.76 225.53 157.74 225.66 158.42 225.14 Z M 159.29 224.48 L 160.15 223.82 C 160.84 223.30 160.97 222.32 160.45 221.64 C 159.92 220.95 158.94 220.82 158.26 221.34 L 157.39 222.00 C 156.71 222.53 156.58 223.51 157.10 224.19 C 157.62 224.88 158.60 225.01 159.29 224.48 Z M 160.16 223.82 L 160.95 223.21 C 161.64 222.69 161.77 221.71 161.24 221.02 C 160.71 220.34 159.73 220.21 159.05 220.73 L 158.26 221.35 C 157.57 221.87 157.44 222.85 157.97 223.53 C 158.49 224.22 159.47 224.35 160.16 223.82 Z M 160.96 223.21 L 161.76 222.59 C 162.44 222.06 162.57 221.08 162.04 220.40 C 161.51 219.72 160.53 219.59 159.85 220.12 L 159.05 220.74 C 158.37 221.26 158.24 222.24 158.77 222.93 C 159.29 223.61 160.27 223.73 160.96 223.21 Z M 161.76 222.58 L 162.57 221.96 C 163.25 221.43 163.37 220.45 162.84 219.77 C 162.31 219.09 161.33 218.97 160.65 219.50 L 159.84 220.12 C 159.16 220.65 159.04 221.63 159.57 222.31 C 160.10 222.99 161.08 223.11 161.76 222.58 Z M 162.57 221.95 L 163.37 221.33 C 164.05 220.80 164.16 219.81 163.63 219.14 C 163.10 218.46 162.12 218.34 161.44 218.87 L 160.64 219.50 C 159.96 220.03 159.85 221.01 160.38 221.69 C 160.91 222.37 161.89 222.49 162.57 221.95 Z M 163.37 221.32 L 164.16 220.70 C 164.83 220.16 164.95 219.18 164.41 218.51 C 163.87 217.83 162.89 217.72 162.22 218.25 L 161.43 218.88 C 160.76 219.42 160.64 220.40 161.18 221.07 C 161.72 221.75 162.70 221.86 163.37 221.32 Z M 164.17 220.69 L 164.93 220.07 C 165.61 219.53 165.71 218.55 165.17 217.88 C 164.63 217.21 163.65 217.10 162.98 217.64 L 162.21 218.26 C 161.54 218.80 161.43 219.78 161.97 220.46 C 162.51 221.13 163.50 221.23 164.17 220.69 Z M 164.94 220.07 L 165.69 219.45 C 166.36 218.91 166.46 217.93 165.92 217.26 C 165.37 216.59 164.39 216.49 163.72 217.04 L 162.97 217.65 C 162.30 218.20 162.20 219.18 162.75 219.85 C 163.29 220.51 164.28 220.61 164.94 220.07 Z M 165.71 219.44 L 166.53 218.76 C 167.19 218.21 167.28 217.23 166.73 216.56 C 166.17 215.90 165.19 215.81 164.53 216.36 L 163.71 217.05 C 163.05 217.60 162.96 218.58 163.51 219.24 C 164.06 219.91 165.04 220.00 165.71 219.44 Z M 166.54 218.75 L 167.33 218.08 C 167.98 217.52 168.06 216.54 167.50 215.88 C 166.94 215.22 165.96 215.15 165.30 215.70 L 164.51 216.37 C 163.86 216.93 163.78 217.92 164.34 218.57 C 164.90 219.23 165.88 219.31 166.54 218.75 Z M 167.34 218.07 L 168.10 217.41 C 168.75 216.84 168.81 215.86 168.25 215.21 C 167.68 214.56 166.69 214.49 166.04 215.06 L 165.29 215.72 C 164.64 216.28 164.57 217.27 165.14 217.92 C 165.70 218.57 166.69 218.64 167.34 218.07 Z M 168.11 217.39 L 168.84 216.74 C 169.49 216.16 169.54 215.18 168.96 214.53 C 168.39 213.89 167.40 213.84 166.76 214.41 L 166.03 215.07 C 165.39 215.64 165.33 216.63 165.91 217.27 C 166.48 217.92 167.47 217.97 168.11 217.39 Z M 168.86 216.72 L 169.57 216.07 C 170.20 215.49 170.24 214.50 169.66 213.86 C 169.07 213.23 168.09 213.19 167.45 213.78 L 166.74 214.43 C 166.11 215.01 166.07 216.00 166.65 216.63 C 167.24 217.27 168.23 217.31 168.86 216.72 Z M 169.59 216.06 L 170.28 215.40 C 170.90 214.81 170.93 213.82 170.33 213.19 C 169.74 212.57 168.75 212.54 168.13 213.13 L 167.44 213.79 C 166.81 214.38 166.78 215.37 167.38 216.00 C 167.97 216.62 168.96 216.65 169.59 216.06 Z M 170.29 215.38 L 171.00 214.69 C 171.62 214.08 171.63 213.09 171.03 212.48 C 170.42 211.86 169.44 211.85 168.82 212.46 L 168.11 213.15 C 167.49 213.75 167.48 214.74 168.09 215.36 C 168.69 215.98 169.68 215.99 170.29 215.38 Z M 171.02 214.67 L 171.73 213.96 C 172.33 213.34 172.33 212.35 171.71 211.75 C 171.10 211.14 170.11 211.15 169.51 211.76 L 168.80 212.47 C 168.20 213.09 168.20 214.08 168.82 214.68 C 169.43 215.29 170.42 215.28 171.02 214.67 Z M 171.75 213.94 L 172.43 213.21 C 173.03 212.59 173.01 211.60 172.38 211.01 C 171.76 210.41 170.77 210.43 170.18 211.06 L 169.49 211.78 C 168.89 212.40 168.91 213.39 169.54 213.99 C 170.16 214.58 171.15 214.56 171.75 213.94 Z M 172.45 213.19 L 173.13 212.46 C 173.71 211.83 173.67 210.84 173.04 210.25 C 172.40 209.67 171.42 209.71 170.83 210.34 L 170.16 211.08 C 169.57 211.71 169.61 212.70 170.25 213.28 C 170.88 213.87 171.87 213.83 172.45 213.19 Z M 173.15 212.44 L 173.81 211.69 C 174.38 211.05 174.32 210.06 173.68 209.49 C 173.04 208.92 172.05 208.97 171.48 209.62 L 170.81 210.37 C 170.24 211.01 170.30 212.00 170.94 212.57 C 171.59 213.14 172.58 213.08 173.15 212.44 Z M 173.83 211.67 L 174.48 210.91 C 175.04 210.26 174.96 209.27 174.31 208.71 C 173.65 208.15 172.67 208.23 172.11 208.88 L 171.46 209.64 C 170.90 210.30 170.97 211.28 171.63 211.84 C 172.28 212.40 173.27 212.33 173.83 211.67 Z M 174.50 210.89 L 175.13 210.13 C 175.67 209.46 175.58 208.48 174.91 207.93 C 174.25 207.38 173.27 207.48 172.72 208.14 L 172.09 208.90 C 171.54 209.57 171.64 210.55 172.30 211.10 C 172.97 211.65 173.95 211.55 174.50 210.89 Z M 175.14 210.11 L 175.76 209.33 C 176.30 208.66 176.19 207.67 175.51 207.14 C 174.84 206.60 173.85 206.71 173.32 207.39 L 172.70 208.16 C 172.16 208.84 172.27 209.82 172.95 210.36 C 173.62 210.89 174.61 210.78 175.14 210.11 Z M 175.77 209.31 L 176.38 208.52 C 176.91 207.84 176.78 206.86 176.10 206.33 C 175.42 205.81 174.44 205.93 173.91 206.62 L 173.30 207.41 C 172.78 208.09 172.90 209.07 173.59 209.59 C 174.27 210.12 175.25 210.00 175.77 209.31 Z M 176.40 208.51 L 177.00 207.70 C 177.51 207.01 177.37 206.04 176.68 205.52 C 175.99 205.00 175.02 205.14 174.50 205.83 L 173.90 206.63 C 173.38 207.32 173.52 208.30 174.21 208.82 C 174.90 209.34 175.88 209.20 176.40 208.51 Z M 177.01 207.69 L 177.60 206.87 C 178.11 206.18 177.96 205.20 177.26 204.69 C 176.57 204.18 175.59 204.34 175.08 205.03 L 174.49 205.85 C 173.98 206.54 174.13 207.52 174.83 208.03 C 175.52 208.54 176.50 208.39 177.01 207.69 Z M 177.61 206.86 L 178.20 206.04 C 178.70 205.33 178.54 204.36 177.84 203.86 C 177.14 203.36 176.16 203.52 175.66 204.22 L 175.07 205.05 C 174.57 205.75 174.73 206.72 175.44 207.22 C 176.14 207.73 177.11 207.56 177.61 206.86 Z M 178.21 206.02 L 178.79 205.20 C 179.28 204.49 179.11 203.52 178.40 203.03 C 177.70 202.53 176.72 202.70 176.23 203.41 L 175.65 204.23 C 175.16 204.94 175.33 205.91 176.04 206.41 C 176.74 206.90 177.72 206.73 178.21 206.02 Z M 178.80 205.18 L 179.37 204.35 C 179.85 203.64 179.67 202.67 178.96 202.18 C 178.25 201.70 177.27 201.88 176.79 202.59 L 176.22 203.42 C 175.73 204.14 175.92 205.11 176.63 205.59 C 177.34 206.08 178.31 205.90 178.80 205.18 Z M 179.38 204.33 L 179.93 203.50 C 180.41 202.78 180.21 201.81 179.50 201.33 C 178.78 200.86 177.81 201.05 177.33 201.77 L 176.78 202.61 C 176.30 203.33 176.50 204.30 177.21 204.77 C 177.93 205.25 178.90 205.05 179.38 204.33 Z M 179.95 203.47 L 180.49 202.63 C 180.95 201.90 180.74 200.94 180.02 200.47 C 179.29 200.01 178.32 200.22 177.86 200.95 L 177.32 201.79 C 176.85 202.52 177.07 203.48 177.79 203.95 C 178.52 204.41 179.48 204.20 179.95 203.47 Z M 180.50 202.60 L 181.03 201.76 C 181.48 201.02 181.25 200.06 180.51 199.61 C 179.78 199.16 178.81 199.39 178.36 200.12 L 177.84 200.97 C 177.39 201.71 177.62 202.67 178.36 203.12 C 179.09 203.57 180.05 203.34 180.50 202.60 Z M 181.04 201.73 L 181.54 200.88 C 181.97 200.13 181.72 199.18 180.98 198.74 C 180.23 198.31 179.28 198.56 178.84 199.30 L 178.35 200.15 C 177.91 200.90 178.16 201.85 178.91 202.29 C 179.65 202.72 180.61 202.47 181.04 201.73 Z M 181.56 200.84 L 182.05 199.95 C 182.47 199.19 182.19 198.24 181.44 197.83 C 180.68 197.41 179.73 197.69 179.32 198.44 L 178.82 199.34 C 178.41 200.09 178.68 201.04 179.44 201.46 C 180.19 201.87 181.14 201.60 181.56 200.84 Z M 182.07 199.91 L 182.54 199.01 C 182.93 198.25 182.63 197.30 181.87 196.91 C 181.10 196.51 180.16 196.81 179.76 197.58 L 179.30 198.48 C 178.90 199.24 179.20 200.18 179.96 200.58 C 180.73 200.98 181.67 200.68 182.07 199.91 Z M 182.55 198.98 L 182.99 198.08 C 183.37 197.31 183.05 196.37 182.28 195.99 C 181.50 195.61 180.57 195.93 180.19 196.71 L 179.75 197.61 C 179.37 198.38 179.69 199.32 180.46 199.70 C 181.24 200.08 182.17 199.76 182.55 198.98 Z M 183.01 198.05 L 183.42 197.15 C 183.79 196.37 183.45 195.44 182.67 195.08 C 181.89 194.71 180.96 195.05 180.59 195.84 L 180.17 196.74 C 179.81 197.52 180.15 198.45 180.93 198.81 C 181.71 199.17 182.64 198.83 183.01 198.05 Z M 183.44 197.13 L 183.84 196.23 C 184.19 195.44 183.83 194.52 183.04 194.17 C 182.26 193.82 181.33 194.17 180.98 194.96 L 180.58 195.86 C 180.23 196.65 180.59 197.57 181.37 197.92 C 182.16 198.27 183.09 197.92 183.44 197.13 Z M 183.84 196.21 L 184.23 195.31 C 184.57 194.51 184.20 193.59 183.41 193.26 C 182.62 192.92 181.70 193.28 181.36 194.08 L 180.97 194.98 C 180.63 195.77 181.00 196.69 181.79 197.03 C 182.59 197.37 183.51 197.00 183.84 196.21 Z M 184.24 195.29 L 184.62 194.37 C 184.95 193.57 184.57 192.66 183.77 192.33 C 182.98 192.00 182.07 192.37 181.74 193.17 L 181.35 194.09 C 181.02 194.89 181.40 195.80 182.20 196.13 C 183.00 196.46 183.91 196.08 184.24 195.29 Z M 184.63 194.35 L 185.00 193.42 C 185.32 192.62 184.93 191.71 184.13 191.39 C 183.33 191.07 182.42 191.46 182.10 192.26 L 181.73 193.19 C 181.41 193.99 181.80 194.90 182.60 195.22 C 183.40 195.54 184.31 195.15 184.63 194.35 Z M 185.00 193.41 L 185.36 192.48 C 185.67 191.67 185.27 190.77 184.47 190.46 C 183.66 190.15 182.76 190.55 182.45 191.35 L 182.09 192.28 C 181.78 193.09 182.18 193.99 182.99 194.30 C 183.79 194.61 184.69 194.21 185.00 193.41 Z M 185.37 192.46 L 185.72 191.52 C 186.02 190.71 185.61 189.82 184.80 189.51 C 183.99 189.21 183.09 189.62 182.79 190.43 L 182.44 191.37 C 182.14 192.18 182.55 193.08 183.36 193.38 C 184.17 193.68 185.07 193.27 185.37 192.46 Z M 185.73 191.50 L 186.06 190.56 C 186.36 189.75 185.93 188.85 185.12 188.56 C 184.31 188.27 183.42 188.69 183.13 189.50 L 182.79 190.45 C 182.49 191.26 182.92 192.16 183.73 192.45 C 184.54 192.74 185.43 192.32 185.73 191.50 Z M 186.07 190.54 L 186.40 189.59 C 186.68 188.77 186.25 187.89 185.43 187.60 C 184.62 187.32 183.73 187.76 183.45 188.57 L 183.12 189.52 C 182.84 190.34 183.27 191.23 184.09 191.51 C 184.90 191.79 185.79 191.36 186.07 190.54 Z M 186.41 189.57 L 186.72 188.62 C 186.99 187.80 186.55 186.91 185.73 186.64 C 184.91 186.37 184.03 186.82 183.76 187.63 L 183.44 188.59 C 183.17 189.41 183.61 190.29 184.43 190.56 C 185.25 190.83 186.13 190.39 186.41 189.57 Z M 186.73 188.60 L 187.03 187.63 C 187.29 186.81 186.84 185.93 186.01 185.67 C 185.19 185.41 184.31 185.87 184.06 186.69 L 183.75 187.65 C 183.49 188.48 183.95 189.35 184.77 189.61 C 185.59 189.87 186.47 189.42 186.73 188.60 Z M 187.04 187.61 L 187.33 186.65 C 187.58 185.82 187.11 184.95 186.28 184.70 C 185.45 184.46 184.58 184.93 184.34 185.75 L 184.05 186.71 C 183.80 187.54 184.27 188.41 185.10 188.66 C 185.92 188.91 186.79 188.44 187.04 187.61 Z M 187.33 186.62 L 187.60 185.66 C 187.84 184.83 187.35 183.97 186.52 183.74 C 185.69 183.50 184.83 183.99 184.60 184.82 L 184.33 185.78 C 184.10 186.61 184.58 187.47 185.41 187.70 C 186.24 187.94 187.10 187.45 187.33 186.62 Z M 187.61 185.63 L 187.86 184.68 C 188.08 183.85 187.58 182.99 186.75 182.78 C 185.91 182.56 185.06 183.06 184.84 183.89 L 184.59 184.85 C 184.37 185.68 184.87 186.53 185.71 186.75 C 186.54 186.97 187.39 186.47 187.61 185.63 Z M 187.87 184.65 L 188.10 183.68 C 188.30 182.84 187.78 182.00 186.94 181.80 C 186.11 181.60 185.26 182.11 185.06 182.95 L 184.83 183.93 C 184.63 184.76 185.15 185.61 185.99 185.81 C 186.83 186.01 187.67 185.49 187.87 184.65 Z M 188.11 183.64 L 188.32 182.67 C 188.50 181.83 187.96 181.00 187.12 180.82 C 186.28 180.64 185.45 181.17 185.27 182.01 L 185.06 182.99 C 184.88 183.83 185.41 184.66 186.25 184.84 C 187.10 185.02 187.93 184.49 188.11 183.64 Z M 188.32 182.64 L 188.51 181.67 C 188.67 180.82 188.12 180.00 187.27 179.84 C 186.43 179.67 185.61 180.23 185.45 181.08 L 185.26 182.05 C 185.10 182.89 185.65 183.71 186.50 183.88 C 187.34 184.04 188.16 183.48 188.32 182.64 Z M 188.52 181.63 L 188.68 180.65 C 188.83 179.80 188.26 179.00 187.41 178.85 C 186.56 178.71 185.75 179.28 185.61 180.13 L 185.44 181.11 C 185.29 181.96 185.87 182.76 186.72 182.91 C 187.57 183.05 188.37 182.48 188.52 181.63 Z M 188.69 180.62 L 188.84 179.63 C 188.97 178.78 188.38 177.98 187.53 177.85 C 186.68 177.72 185.88 178.31 185.75 179.16 L 185.60 180.16 C 185.47 181.01 186.06 181.81 186.91 181.93 C 187.77 182.06 188.56 181.48 188.69 180.62 Z M 188.84 179.60 L 188.98 178.59 C 189.09 177.73 188.49 176.95 187.64 176.83 C 186.78 176.72 186.00 177.32 185.88 178.18 L 185.75 179.19 C 185.63 180.05 186.24 180.83 187.09 180.94 C 187.94 181.06 188.73 180.46 188.84 179.60 Z M 188.98 178.57 L 189.10 177.54 C 189.20 176.68 188.59 175.90 187.74 175.80 C 186.88 175.70 186.10 176.31 186.00 177.17 L 185.88 178.20 C 185.78 179.06 186.39 179.83 187.25 179.93 C 188.10 180.03 188.88 179.42 188.98 178.57 Z M 189.10 177.52 L 189.22 176.49 C 189.31 175.63 188.69 174.86 187.83 174.77 C 186.97 174.68 186.20 175.30 186.11 176.15 L 186.00 177.19 C 185.91 178.04 186.53 178.81 187.39 178.90 C 188.24 179.00 189.01 178.38 189.10 177.52 Z M 189.22 176.48 L 189.32 175.46 C 189.40 174.61 188.78 173.84 187.92 173.76 C 187.06 173.67 186.30 174.29 186.21 175.15 L 186.11 176.17 C 186.02 177.02 186.65 177.79 187.51 177.88 C 188.37 177.96 189.13 177.34 189.22 176.48 Z M 189.32 175.46 L 189.41 174.48 C 189.49 173.62 188.87 172.86 188.01 172.78 C 187.15 172.69 186.39 173.32 186.30 174.18 L 186.21 175.16 C 186.13 176.02 186.76 176.78 187.62 176.86 C 188.47 176.94 189.24 176.32 189.32 175.46 Z M 189.41 174.48 L 189.50 173.56 C 189.58 172.70 188.95 171.94 188.09 171.85 C 187.24 171.77 186.47 172.40 186.39 173.26 L 186.30 174.18 C 186.22 175.04 186.85 175.80 187.71 175.89 C 188.57 175.97 189.33 175.34 189.41 174.48 Z M 189.50 173.56 L 189.61 172.45 C 189.69 171.59 189.06 170.82 188.21 170.74 C 187.35 170.66 186.58 171.29 186.50 172.14 L 186.39 173.26 C 186.31 174.12 186.94 174.88 187.80 174.96 C 188.65 175.05 189.42 174.42 189.50 173.56 Z M 189.61 172.45 L 189.71 171.41 C 189.79 170.56 189.17 169.79 188.31 169.71 C 187.45 169.62 186.69 170.25 186.60 171.11 L 186.50 172.14 C 186.42 173.00 187.04 173.76 187.90 173.85 C 188.76 173.93 189.52 173.31 189.61 172.45 Z M 189.71 171.41 L 189.80 170.46 C 189.88 169.60 189.25 168.84 188.39 168.76 C 187.53 168.68 186.77 169.31 186.69 170.17 L 186.60 171.11 C 186.52 171.97 187.15 172.73 188.01 172.82 C 188.87 172.90 189.63 172.27 189.71 171.41 Z M 189.80 170.44 L 189.88 169.55 C 189.95 168.69 189.31 167.94 188.45 167.86 C 187.59 167.79 186.84 168.43 186.77 169.29 L 186.69 170.18 C 186.62 171.04 187.25 171.79 188.11 171.87 C 188.97 171.94 189.73 171.30 189.80 170.44 Z M 189.88 169.53 L 189.95 168.53 C 190.01 167.67 189.36 166.92 188.50 166.87 C 187.64 166.81 186.89 167.46 186.83 168.32 L 186.76 169.31 C 186.70 170.17 187.35 170.92 188.21 170.98 C 189.07 171.04 189.82 170.39 189.88 169.53 Z M 189.95 168.51 L 190.00 167.51 C 190.05 166.65 189.39 165.91 188.53 165.87 C 187.67 165.82 186.93 166.48 186.88 167.34 L 186.83 168.34 C 186.78 169.20 187.45 169.94 188.31 169.98 C 189.17 170.03 189.90 169.37 189.95 168.51 Z M 190.00 167.49 L 190.05 166.50 C 190.08 165.64 189.41 164.91 188.55 164.88 C 187.69 164.84 186.96 165.51 186.93 166.37 L 186.88 167.36 C 186.85 168.22 187.51 168.95 188.38 168.98 C 189.24 169.02 189.97 168.35 190.00 167.49 Z M 190.05 166.50 L 190.08 165.51 C 190.12 164.65 189.45 163.92 188.59 163.89 C 187.72 163.86 187.00 164.53 186.96 165.39 L 186.93 166.38 C 186.89 167.24 187.56 167.96 188.42 168.00 C 189.29 168.03 190.01 167.36 190.05 166.50 Z M 190.08 165.51 L 190.12 164.52 C 190.16 163.66 189.49 162.93 188.62 162.90 C 187.76 162.87 187.04 163.54 187.00 164.40 L 186.96 165.39 C 186.93 166.25 187.60 166.98 188.46 167.01 C 189.33 167.04 190.05 166.37 190.08 165.51 Z M 190.12 164.52 L 190.16 163.52 C 190.19 162.66 189.52 161.93 188.66 161.90 C 187.80 161.87 187.07 162.54 187.04 163.40 L 187.00 164.40 C 186.97 165.26 187.64 165.99 188.50 166.02 C 189.36 166.05 190.09 165.38 190.12 164.52 Z M 190.16 163.52 L 190.20 162.50 C 190.23 161.64 189.56 160.92 188.70 160.89 C 187.84 160.85 187.11 161.52 187.08 162.39 L 187.04 163.40 C 187.01 164.26 187.68 164.99 188.54 165.02 C 189.40 165.05 190.13 164.38 190.16 163.52 Z M 190.20 162.50 L 190.24 161.51 C 190.27 160.65 189.60 159.93 188.74 159.89 C 187.87 159.86 187.15 160.53 187.12 161.40 L 187.08 162.39 C 187.05 163.25 187.72 163.97 188.58 164.01 C 189.44 164.04 190.17 163.37 190.20 162.50 Z M 190.24 161.51 L 190.27 160.51 C 190.31 159.65 189.63 158.93 188.77 158.89 C 187.91 158.86 187.19 159.54 187.15 160.40 L 187.12 161.40 C 187.08 162.26 187.76 162.98 188.62 163.01 C 189.48 163.05 190.21 162.37 190.24 161.51 Z M 190.27 160.51 L 190.31 159.51 C 190.34 158.65 189.67 157.92 188.81 157.89 C 187.95 157.86 187.22 158.53 187.19 159.39 L 187.15 160.40 C 187.12 161.26 187.79 161.98 188.66 162.01 C 189.52 162.05 190.24 161.37 190.27 160.51 Z M 190.31 159.51 L 190.35 158.51 C 190.38 157.64 189.71 156.92 188.85 156.89 C 187.98 156.86 187.26 157.53 187.23 158.39 L 187.19 159.39 C 187.16 160.25 187.83 160.98 188.69 161.01 C 189.56 161.04 190.28 160.37 190.31 159.51 Z M 190.35 158.51 L 190.39 157.51 C 190.42 156.65 189.75 155.92 188.88 155.89 C 188.02 155.86 187.30 156.53 187.27 157.39 L 187.23 158.39 C 187.20 159.25 187.87 159.98 188.73 160.01 C 189.59 160.04 190.32 159.37 190.35 158.51 Z M 190.39 157.51 L 190.42 156.51 C 190.45 155.65 189.78 154.92 188.92 154.89 C 188.06 154.86 187.33 155.53 187.30 156.39 L 187.27 157.39 C 187.23 158.25 187.91 158.98 188.77 159.01 C 189.63 159.04 190.35 158.37 190.39 157.51 Z M 190.42 156.51 L 190.46 155.51 C 190.49 154.65 189.82 153.92 188.96 153.89 C 188.10 153.86 187.37 154.53 187.34 155.39 L 187.30 156.39 C 187.27 157.25 187.94 157.98 188.80 158.01 C 189.67 158.04 190.39 157.37 190.42 156.51 Z M 190.46 155.51 L 190.50 154.52 C 190.53 153.66 189.86 152.94 188.99 152.91 C 188.13 152.87 187.41 153.55 187.38 154.41 L 187.34 155.39 C 187.31 156.25 187.98 156.98 188.84 157.01 C 189.70 157.04 190.43 156.37 190.46 155.51 Z M 190.50 154.52 L 190.53 153.53 C 190.56 152.67 189.89 151.95 189.03 151.92 C 188.17 151.88 187.44 152.56 187.41 153.42 L 187.38 154.41 C 187.34 155.27 188.02 155.99 188.88 156.03 C 189.74 156.06 190.46 155.38 190.50 154.52 Z M 190.53 153.53 L 190.57 152.53 C 190.60 151.67 189.93 150.94 189.07 150.91 C 188.20 150.88 187.48 151.55 187.45 152.42 L 187.41 153.42 C 187.38 154.28 188.05 155.01 188.92 155.04 C 189.78 155.07 190.50 154.39 190.53 153.53 Z M 190.57 152.53 L 190.61 151.51 C 190.64 150.64 189.96 149.92 189.10 149.89 C 188.24 149.86 187.52 150.53 187.48 151.40 L 187.45 152.42 C 187.42 153.28 188.09 154.00 188.95 154.03 C 189.82 154.06 190.54 153.39 190.57 152.53 Z M 190.61 151.51 L 190.64 150.49 C 190.67 149.63 190.00 148.90 189.13 148.87 C 188.27 148.84 187.55 149.52 187.52 150.38 L 187.48 151.40 C 187.45 152.26 188.13 152.98 188.99 153.01 C 189.85 153.04 190.58 152.37 190.61 151.51 Z M 190.64 150.49 L 190.68 149.47 C 190.71 148.61 190.03 147.89 189.17 147.86 C 188.31 147.83 187.59 148.50 187.56 149.36 L 187.52 150.38 C 187.49 151.24 188.16 151.96 189.03 151.99 C 189.89 152.02 190.61 151.35 190.64 150.49 Z M 190.68 149.47 L 190.71 148.48 C 190.74 147.62 190.07 146.90 189.21 146.87 C 188.34 146.84 187.62 147.51 187.59 148.37 L 187.56 149.36 C 187.52 150.22 188.20 150.95 189.06 150.98 C 189.92 151.01 190.64 150.33 190.68 149.47 Z M 190.71 148.49 L 190.75 147.48 C 190.78 146.62 190.11 145.89 189.25 145.86 C 188.39 145.83 187.66 146.50 187.63 147.36 L 187.59 148.37 C 187.56 149.23 188.23 149.96 189.09 149.99 C 189.95 150.02 190.68 149.35 190.71 148.49 Z M 190.75 147.48 L 190.79 146.46 C 190.82 145.60 190.15 144.87 189.29 144.84 C 188.43 144.80 187.70 145.47 187.67 146.33 L 187.63 147.36 C 187.59 148.22 188.26 148.95 189.13 148.98 C 189.99 149.02 190.71 148.35 190.75 147.48 Z M 190.79 146.46 L 190.83 145.49 C 190.87 144.63 190.20 143.90 189.34 143.86 C 188.48 143.83 187.75 144.49 187.71 145.36 L 187.67 146.33 C 187.63 147.19 188.30 147.92 189.16 147.96 C 190.03 147.99 190.75 147.32 190.79 146.46 Z M 190.83 145.49 L 190.87 144.58 C 190.91 143.72 190.24 142.99 189.38 142.95 C 188.52 142.91 187.79 143.58 187.75 144.44 L 187.71 145.35 C 187.67 146.22 188.34 146.94 189.20 146.98 C 190.07 147.02 190.79 146.35 190.83 145.49 Z M 190.87 144.58 L 190.90 143.78 C 190.94 142.92 190.27 142.19 189.41 142.16 C 188.55 142.12 187.82 142.79 187.78 143.65 L 187.75 144.44 C 187.71 145.30 188.38 146.03 189.24 146.07 C 190.11 146.11 190.83 145.44 190.87 144.58 Z M 190.90 143.78 L 190.94 142.88 C 190.98 142.02 190.31 141.29 189.44 141.26 C 188.58 141.22 187.86 141.89 187.82 142.75 L 187.78 143.65 C 187.75 144.52 188.42 145.24 189.28 145.28 C 190.14 145.31 190.87 144.64 190.90 143.78 Z M 190.94 142.88 L 190.98 141.78 C 191.01 140.92 190.34 140.19 189.48 140.16 C 188.62 140.13 187.89 140.80 187.86 141.66 L 187.82 142.76 C 187.79 143.62 188.46 144.34 189.32 144.38 C 190.18 144.41 190.91 143.74 190.94 142.88 Z M 190.98 141.77 L 191.03 140.56 C 191.06 139.70 190.38 138.97 189.52 138.94 C 188.66 138.91 187.93 139.59 187.90 140.45 L 187.86 141.67 C 187.83 142.53 188.51 143.25 189.37 143.28 C 190.23 143.31 190.95 142.64 190.98 141.77 Z M 191.03 140.56 L 191.05 139.67 C 191.08 138.81 190.41 138.09 189.55 138.06 C 188.68 138.03 187.96 138.71 187.93 139.57 L 187.90 140.45 C 187.88 141.31 188.55 142.04 189.41 142.06 C 190.27 142.09 191.00 141.42 191.03 140.56 Z M 191.05 139.67 L 191.08 138.71 C 191.11 137.85 190.44 137.13 189.57 137.10 C 188.71 137.07 187.99 137.75 187.96 138.61 L 187.93 139.57 C 187.91 140.43 188.58 141.16 189.44 141.18 C 190.31 141.21 191.03 140.53 191.05 139.67 Z M 191.08 138.71 L 191.12 137.69 C 191.14 136.83 190.46 136.11 189.60 136.08 C 188.74 136.06 188.02 136.74 187.99 137.60 L 187.96 138.61 C 187.94 139.48 188.62 140.20 189.48 140.22 C 190.34 140.25 191.06 139.57 191.08 138.71 Z M 191.12 137.69 L 191.15 136.64 C 191.17 135.78 190.49 135.06 189.63 135.03 C 188.77 135.01 188.05 135.69 188.02 136.55 L 187.99 137.60 C 187.97 138.46 188.65 139.18 189.51 139.20 C 190.37 139.23 191.09 138.55 191.12 137.69 Z M 191.15 136.63 L 191.17 135.57 C 191.20 134.71 190.51 133.99 189.65 133.97 C 188.79 133.95 188.07 134.63 188.05 135.49 L 188.02 136.55 C 188.00 137.41 188.68 138.13 189.54 138.15 C 190.41 138.18 191.12 137.50 191.15 136.63 Z M 191.17 135.57 L 191.20 134.52 C 191.22 133.66 190.54 132.94 189.67 132.92 C 188.81 132.90 188.10 133.58 188.08 134.44 L 188.05 135.49 C 188.03 136.36 188.71 137.07 189.58 137.09 C 190.44 137.11 191.15 136.43 191.17 135.57 Z M 191.20 134.51 L 191.22 133.49 C 191.24 132.63 190.55 131.92 189.69 131.90 C 188.83 131.88 188.11 132.56 188.10 133.43 L 188.08 134.45 C 188.06 135.31 188.74 136.02 189.61 136.04 C 190.47 136.06 191.18 135.37 191.20 134.51 Z M 191.22 133.48 L 191.24 132.34 C 191.25 131.48 190.56 130.77 189.70 130.75 C 188.84 130.74 188.13 131.43 188.12 132.29 L 188.10 133.43 C 188.08 134.30 188.77 135.01 189.63 135.02 C 190.49 135.03 191.20 134.35 191.22 133.48 Z M 191.24 132.33 L 191.25 131.26 C 191.26 130.39 190.57 129.69 189.71 129.68 C 188.84 129.67 188.14 130.36 188.13 131.22 L 188.11 132.29 C 188.11 133.16 188.80 133.86 189.66 133.87 C 190.52 133.88 191.23 133.19 191.24 132.33 Z M 191.25 131.25 L 191.26 130.24 C 191.26 129.37 190.57 128.67 189.71 128.66 C 188.85 128.66 188.14 129.35 188.13 130.21 L 188.13 131.23 C 188.12 132.09 188.81 132.79 189.68 132.80 C 190.54 132.80 191.24 132.11 191.25 131.25 Z M 191.26 130.23 L 191.26 129.27 C 191.26 128.41 190.57 127.71 189.71 127.70 C 188.84 127.70 188.14 128.39 188.14 129.26 L 188.13 130.22 C 188.13 131.08 188.83 131.78 189.69 131.78 C 190.55 131.79 191.25 131.09 191.26 130.23 Z M 191.26 129.27 L 191.26 128.35 C 191.26 127.49 190.57 126.79 189.70 126.78 C 188.84 126.78 188.14 127.48 188.14 128.34 L 188.14 129.26 C 188.14 130.12 188.84 130.82 189.70 130.82 C 190.56 130.83 191.26 130.13 191.26 129.27 Z M 191.26 128.35 L 191.26 127.46 C 191.26 126.60 190.56 125.90 189.70 125.90 C 188.84 125.90 188.14 126.60 188.14 127.46 L 188.14 128.35 C 188.14 129.21 188.84 129.91 189.70 129.91 C 190.56 129.91 191.26 129.21 191.26 128.35 Z M 191.26 127.46 L 191.26 126.41 C 191.26 125.54 190.56 124.84 189.70 124.84 C 188.84 124.84 188.14 125.54 188.14 126.41 L 188.14 127.46 C 188.14 128.33 188.84 129.02 189.70 129.02 C 190.56 129.02 191.26 128.33 191.26 127.46 Z M 191.26 126.41 L 191.26 125.38 C 191.26 124.52 190.56 123.82 189.70 123.82 C 188.84 123.82 188.14 124.52 188.14 125.38 L 188.14 126.41 C 188.14 127.27 188.84 127.97 189.70 127.97 C 190.56 127.97 191.26 127.27 191.26 126.41 Z M 191.26 125.38 L 191.26 124.39 C 191.26 123.53 190.56 122.83 189.70 122.83 C 188.84 122.83 188.14 123.53 188.14 124.39 L 188.14 125.38 C 188.14 126.24 188.84 126.94 189.70 126.94 C 190.56 126.94 191.26 126.24 191.26 125.38 Z M 191.26 124.39 L 191.26 123.42 C 191.26 122.56 190.56 121.86 189.70 121.86 C 188.84 121.86 188.14 122.56 188.14 123.42 L 188.14 124.39 C 188.14 125.25 188.84 125.95 189.70 125.95 C 190.56 125.95 191.26 125.25 191.26 124.39 Z M 191.26 123.42 L 191.26 122.46 C 191.26 121.60 190.56 120.90 189.70 120.90 C 188.84 120.90 188.14 121.60 188.14 122.46 L 188.14 123.42 C 188.14 124.28 188.84 124.98 189.70 124.98 C 190.56 124.98 191.26 124.28 191.26 123.42 Z M 191.26 122.45 L 191.26 121.42 C 191.26 120.56 190.56 119.86 189.69 119.86 C 188.83 119.86 188.13 120.56 188.14 121.43 L 188.14 122.46 C 188.14 123.32 188.84 124.02 189.71 124.02 C 190.57 124.02 191.26 123.32 191.26 122.45 Z M 191.26 121.40 L 191.24 120.38 C 191.23 119.52 190.52 118.83 189.65 118.85 C 188.79 118.86 188.11 119.57 188.12 120.44 L 188.14 121.45 C 188.15 122.31 188.86 123.00 189.73 122.98 C 190.59 122.97 191.27 122.26 191.26 121.40 Z M 191.24 120.34 L 191.20 119.35 C 191.16 118.49 190.43 117.82 189.57 117.86 C 188.70 117.90 188.04 118.63 188.08 119.49 L 188.12 120.48 C 188.16 121.34 188.89 122.01 189.75 121.97 C 190.61 121.93 191.28 121.20 191.24 120.34 Z M 191.19 119.28 L 191.11 118.32 C 191.03 117.46 190.27 116.83 189.42 116.90 C 188.56 116.98 187.92 117.74 188.00 118.60 L 188.08 119.56 C 188.16 120.42 188.91 121.05 189.77 120.98 C 190.63 120.90 191.27 120.14 191.19 119.28 Z M 191.10 118.23 L 190.95 117.22 C 190.82 116.36 190.03 115.77 189.17 115.90 C 188.32 116.03 187.73 116.82 187.86 117.67 L 188.01 118.69 C 188.13 119.54 188.93 120.13 189.78 120.00 C 190.63 119.88 191.22 119.08 191.10 118.23 Z M 190.93 117.12 L 190.72 116.12 C 190.54 115.28 189.71 114.74 188.87 114.92 C 188.02 115.09 187.49 115.92 187.66 116.77 L 187.87 117.77 C 188.05 118.61 188.88 119.15 189.72 118.97 C 190.57 118.79 191.11 117.97 190.93 117.12 Z M 190.70 116.04 L 190.44 115.08 C 190.22 114.25 189.36 113.75 188.53 113.98 C 187.70 114.20 187.20 115.06 187.43 115.89 L 187.68 116.85 C 187.91 117.68 188.76 118.17 189.59 117.95 C 190.43 117.73 190.92 116.87 190.70 116.04 Z M 190.42 115.01 L 190.13 114.10 C 189.87 113.28 188.99 112.82 188.17 113.08 C 187.35 113.34 186.90 114.22 187.16 115.04 L 187.45 115.96 C 187.71 116.78 188.58 117.23 189.41 116.97 C 190.23 116.71 190.68 115.83 190.42 115.01 Z M 190.11 114.04 L 189.79 113.14 C 189.49 112.33 188.60 111.91 187.79 112.20 C 186.98 112.49 186.56 113.39 186.85 114.20 L 187.18 115.10 C 187.47 115.91 188.36 116.33 189.17 116.04 C 189.99 115.75 190.41 114.85 190.11 114.04 Z M 189.76 113.07 L 189.40 112.19 C 189.07 111.39 188.16 111.01 187.36 111.34 C 186.56 111.67 186.18 112.58 186.51 113.38 L 186.87 114.26 C 187.20 115.06 188.11 115.44 188.91 115.11 C 189.71 114.78 190.09 113.87 189.76 113.07 Z M 189.37 112.12 L 188.95 111.22 C 188.58 110.44 187.65 110.10 186.87 110.46 C 186.09 110.83 185.75 111.75 186.12 112.54 L 186.54 113.44 C 186.90 114.22 187.83 114.56 188.61 114.20 C 189.39 113.83 189.73 112.90 189.37 112.12 Z M 188.92 111.16 L 188.43 110.21 C 188.03 109.45 187.09 109.15 186.32 109.54 C 185.56 109.94 185.26 110.88 185.65 111.65 L 186.14 112.59 C 186.54 113.36 187.48 113.66 188.25 113.26 C 189.01 112.87 189.31 111.92 188.92 111.16 Z M 188.41 110.17 L 187.93 109.32 C 187.51 108.56 186.56 108.29 185.81 108.71 C 185.05 109.13 184.78 110.08 185.20 110.83 L 185.68 111.69 C 186.10 112.44 187.05 112.71 187.80 112.30 C 188.55 111.88 188.82 110.93 188.41 110.17 Z M 187.91 109.29 L 187.40 108.40 C 186.96 107.66 186.01 107.40 185.26 107.84 C 184.52 108.27 184.27 109.23 184.70 109.97 L 185.22 110.86 C 185.65 111.60 186.61 111.86 187.35 111.42 C 188.10 110.99 188.35 110.03 187.91 109.29 Z M 187.38 108.38 L 186.85 107.50 C 186.41 106.76 185.45 106.53 184.71 106.97 C 183.97 107.42 183.73 108.38 184.18 109.12 L 184.71 110.00 C 185.16 110.73 186.12 110.97 186.86 110.52 C 187.59 110.08 187.83 109.12 187.38 108.38 Z M 186.84 107.48 L 186.31 106.64 C 185.86 105.91 184.89 105.68 184.16 106.14 C 183.43 106.60 183.21 107.56 183.67 108.29 L 184.19 109.13 C 184.65 109.87 185.61 110.09 186.34 109.63 C 187.07 109.17 187.30 108.21 186.84 107.48 Z M 186.30 106.62 L 185.78 105.81 C 185.32 105.09 184.35 104.88 183.62 105.35 C 182.90 105.81 182.69 106.78 183.16 107.50 L 183.68 108.31 C 184.14 109.04 185.11 109.24 185.84 108.78 C 186.56 108.31 186.77 107.35 186.30 106.62 Z M 185.77 105.79 L 185.25 105.02 C 184.77 104.30 183.81 104.11 183.09 104.59 C 182.37 105.06 182.18 106.03 182.66 106.75 L 183.17 107.52 C 183.65 108.24 184.62 108.44 185.34 107.96 C 186.05 107.48 186.25 106.51 185.77 105.79 Z M 185.24 105.00 L 184.70 104.22 C 184.21 103.51 183.24 103.33 182.53 103.82 C 181.82 104.31 181.64 105.28 182.13 105.99 L 182.67 106.77 C 183.16 107.48 184.13 107.66 184.84 107.17 C 185.55 106.68 185.73 105.71 185.24 105.00 Z M 184.69 104.20 L 184.09 103.35 C 183.59 102.65 182.62 102.48 181.92 102.97 C 181.21 103.47 181.04 104.45 181.54 105.15 L 182.14 106.00 C 182.64 106.71 183.61 106.88 184.32 106.38 C 185.02 105.88 185.19 104.91 184.69 104.20 Z M 184.09 103.34 L 183.47 102.48 C 182.97 101.78 182.00 101.62 181.29 102.12 C 180.59 102.62 180.43 103.59 180.93 104.30 L 181.54 105.16 C 182.05 105.86 183.02 106.02 183.72 105.52 C 184.42 105.02 184.59 104.05 184.09 103.34 Z M 183.47 102.48 L 182.90 101.69 C 182.40 100.99 181.42 100.83 180.72 101.33 C 180.02 101.83 179.86 102.81 180.37 103.51 L 180.93 104.30 C 181.43 105.00 182.41 105.16 183.11 104.66 C 183.81 104.16 183.97 103.18 183.47 102.48 Z M 182.90 101.69 L 182.30 100.85 C 181.79 100.15 180.82 99.99 180.12 100.49 C 179.42 101.00 179.26 101.97 179.76 102.67 L 180.37 103.51 C 180.87 104.21 181.85 104.37 182.55 103.87 C 183.25 103.36 183.40 102.39 182.90 101.69 Z M 182.29 100.85 L 181.68 99.99 C 181.17 99.30 180.20 99.14 179.50 99.65 C 178.80 100.15 178.64 101.13 179.15 101.83 L 179.77 102.68 C 180.27 103.38 181.25 103.53 181.95 103.03 C 182.64 102.52 182.80 101.54 182.29 100.85 Z M 181.67 99.99 L 181.06 99.15 C 180.56 98.46 179.58 98.31 178.88 98.81 C 178.19 99.32 178.03 100.30 178.54 101.00 L 179.15 101.83 C 179.66 102.53 180.64 102.68 181.33 102.17 C 182.03 101.66 182.18 100.69 181.67 99.99 Z M 181.06 99.15 L 180.48 98.36 C 179.97 97.67 178.99 97.52 178.30 98.03 C 177.60 98.54 177.46 99.52 177.97 100.21 L 178.55 101.00 C 179.06 101.70 180.04 101.84 180.73 101.33 C 181.42 100.82 181.57 99.84 181.06 99.15 Z M 180.47 98.35 L 179.80 97.46 C 179.29 96.77 178.31 96.63 177.62 97.14 C 176.93 97.66 176.79 98.64 177.30 99.33 L 177.97 100.22 C 178.49 100.91 179.47 101.05 180.16 100.54 C 180.85 100.02 180.99 99.04 180.47 98.35 Z M 179.79 97.44 L 179.13 96.58 C 178.60 95.90 177.62 95.77 176.94 96.30 C 176.26 96.83 176.13 97.81 176.66 98.49 L 177.32 99.35 C 177.84 100.03 178.82 100.16 179.51 99.63 C 180.19 99.10 180.32 98.12 179.79 97.44 Z M 179.11 96.56 L 178.52 95.82 C 177.98 95.15 177.00 95.04 176.32 95.58 C 175.65 96.12 175.54 97.10 176.08 97.77 L 176.67 98.51 C 177.21 99.19 178.20 99.29 178.87 98.76 C 179.54 98.22 179.65 97.23 179.11 96.56 Z M 178.50 95.79 L 177.93 95.12 C 177.38 94.46 176.40 94.37 175.73 94.93 C 175.07 95.48 174.99 96.47 175.54 97.13 L 176.10 97.80 C 176.66 98.46 177.64 98.55 178.30 97.99 C 178.96 97.44 179.05 96.45 178.50 95.79 Z M 177.91 95.09 L 177.30 94.40 C 176.73 93.75 175.74 93.68 175.09 94.25 C 174.45 94.82 174.38 95.81 174.95 96.46 L 175.56 97.15 C 176.13 97.80 177.12 97.87 177.77 97.30 C 178.42 96.73 178.48 95.74 177.91 95.09 Z M 177.27 94.37 L 176.61 93.65 C 176.02 93.01 175.04 92.97 174.40 93.55 C 173.77 94.14 173.73 95.12 174.31 95.76 L 174.98 96.48 C 175.56 97.12 176.55 97.16 177.18 96.58 C 177.82 95.99 177.86 95.00 177.27 94.37 Z M 176.58 93.62 L 175.89 92.90 C 175.29 92.27 174.30 92.26 173.68 92.85 C 173.06 93.45 173.04 94.44 173.64 95.06 L 174.33 95.79 C 174.93 96.41 175.92 96.42 176.54 95.83 C 177.16 95.23 177.18 94.24 176.58 93.62 Z M 175.86 92.87 L 175.13 92.15 C 174.52 91.54 173.53 91.54 172.93 92.16 C 172.32 92.77 172.32 93.76 172.93 94.36 L 173.66 95.09 C 174.27 95.69 175.26 95.69 175.87 95.08 C 176.48 94.47 176.47 93.48 175.86 92.87 Z M 175.11 92.12 L 174.39 91.44 C 173.77 90.85 172.78 90.87 172.18 91.50 C 171.59 92.13 171.62 93.11 172.24 93.71 L 172.96 94.39 C 173.58 94.98 174.57 94.96 175.17 94.33 C 175.76 93.71 175.73 92.72 175.11 92.12 Z M 174.36 91.41 L 173.61 90.74 C 172.97 90.17 171.98 90.22 171.41 90.86 C 170.83 91.50 170.88 92.49 171.53 93.07 L 172.27 93.74 C 172.92 94.31 173.90 94.26 174.48 93.62 C 175.05 92.98 175.00 91.99 174.36 91.41 Z M 173.57 90.70 L 172.79 90.06 C 172.13 89.51 171.15 89.60 170.60 90.26 C 170.04 90.92 170.13 91.91 170.79 92.46 L 171.57 93.10 C 172.23 93.65 173.22 93.57 173.77 92.90 C 174.32 92.24 174.23 91.26 173.57 90.70 Z M 172.74 90.01 L 171.94 89.41 C 171.25 88.89 170.27 89.02 169.75 89.71 C 169.23 90.40 169.37 91.38 170.05 91.90 L 170.85 92.50 C 171.54 93.02 172.52 92.89 173.04 92.20 C 173.56 91.51 173.42 90.53 172.74 90.01 Z M 171.87 89.36 L 171.05 88.80 C 170.33 88.32 169.36 88.51 168.88 89.22 C 168.40 89.94 168.58 90.91 169.30 91.39 L 170.12 91.95 C 170.84 92.43 171.81 92.24 172.29 91.53 C 172.77 90.81 172.58 89.84 171.87 89.36 Z M 170.98 88.76 L 170.13 88.25 C 169.39 87.80 168.43 88.04 167.99 88.77 C 167.54 89.51 167.78 90.47 168.51 90.92 L 169.36 91.43 C 170.10 91.88 171.06 91.64 171.51 90.90 C 171.95 90.17 171.72 89.21 170.98 88.76 Z M 170.07 88.21 L 169.19 87.73 C 168.43 87.32 167.49 87.60 167.07 88.35 C 166.66 89.11 166.94 90.06 167.69 90.47 L 168.57 90.95 C 169.33 91.37 170.28 91.09 170.69 90.33 C 171.11 89.57 170.83 88.63 170.07 88.21 Z M 169.14 87.71 L 168.26 87.26 C 167.48 86.88 166.55 87.19 166.16 87.96 C 165.77 88.73 166.09 89.67 166.86 90.05 L 167.74 90.50 C 168.51 90.88 169.45 90.57 169.84 89.80 C 170.22 89.03 169.91 88.09 169.14 87.71 Z M 168.21 87.24 L 167.32 86.83 C 166.54 86.47 165.61 86.81 165.25 87.59 C 164.89 88.37 165.23 89.30 166.01 89.66 L 166.90 90.07 C 167.68 90.44 168.61 90.10 168.97 89.31 C 169.34 88.53 168.99 87.60 168.21 87.24 Z M 167.28 86.81 L 166.36 86.42 C 165.56 86.08 164.65 86.45 164.31 87.24 C 163.97 88.03 164.34 88.95 165.13 89.29 L 166.05 89.68 C 166.85 90.02 167.76 89.65 168.10 88.86 C 168.44 88.06 168.07 87.15 167.28 86.81 Z M 166.31 86.40 L 165.36 86.03 C 164.56 85.71 163.66 86.11 163.34 86.91 C 163.03 87.72 163.42 88.62 164.23 88.94 L 165.18 89.31 C 165.98 89.62 166.88 89.22 167.20 88.42 C 167.51 87.62 167.12 86.71 166.31 86.40 Z M 165.32 86.01 L 164.36 85.67 C 163.55 85.38 162.65 85.80 162.36 86.62 C 162.07 87.43 162.50 88.32 163.31 88.61 L 164.27 88.95 C 165.08 89.24 165.98 88.82 166.27 88.01 C 166.56 87.19 166.13 86.30 165.32 86.01 Z M 164.31 85.65 L 163.35 85.34 C 162.53 85.08 161.65 85.53 161.38 86.35 C 161.12 87.17 161.57 88.05 162.39 88.31 L 163.35 88.63 C 164.17 88.89 165.05 88.44 165.32 87.62 C 165.58 86.80 165.13 85.92 164.31 85.65 Z M 163.30 85.33 L 162.33 85.05 C 161.50 84.81 160.64 85.29 160.40 86.11 C 160.16 86.94 160.64 87.81 161.46 88.05 L 162.43 88.33 C 163.26 88.57 164.13 88.09 164.37 87.26 C 164.61 86.43 164.13 85.57 163.30 85.33 Z M 162.28 85.03 L 161.32 84.79 C 160.48 84.58 159.63 85.09 159.42 85.92 C 159.21 86.76 159.72 87.61 160.56 87.82 L 161.52 88.06 C 162.35 88.27 163.20 87.77 163.41 86.93 C 163.62 86.09 163.12 85.24 162.28 85.03 Z M 161.26 84.78 L 160.28 84.57 C 159.44 84.39 158.61 84.93 158.43 85.78 C 158.26 86.62 158.79 87.45 159.64 87.63 L 160.61 87.83 C 161.46 88.01 162.29 87.47 162.46 86.63 C 162.64 85.78 162.10 84.96 161.26 84.78 Z M 160.22 84.56 L 159.21 84.39 C 158.36 84.25 157.55 84.82 157.41 85.67 C 157.27 86.52 157.84 87.33 158.69 87.47 L 159.70 87.64 C 160.55 87.78 161.36 87.21 161.50 86.36 C 161.64 85.51 161.07 84.70 160.22 84.56 Z M 159.15 84.38 L 158.16 84.26 C 157.31 84.15 156.53 84.75 156.42 85.61 C 156.31 86.46 156.92 87.25 157.77 87.35 L 158.76 87.48 C 159.61 87.59 160.39 86.98 160.50 86.13 C 160.61 85.27 160.00 84.49 159.15 84.38 Z M 158.11 84.25 L 157.14 84.16 C 156.28 84.08 155.52 84.71 155.44 85.57 C 155.36 86.43 155.99 87.19 156.85 87.27 L 157.82 87.36 C 158.68 87.44 159.44 86.81 159.52 85.95 C 159.60 85.09 158.97 84.33 158.11 84.25 Z M 157.11 84.16 L 156.12 84.09 C 155.26 84.03 154.52 84.67 154.45 85.53 C 154.39 86.39 155.04 87.14 155.90 87.20 L 156.89 87.27 C 157.75 87.33 158.49 86.68 158.55 85.82 C 158.61 84.96 157.97 84.22 157.11 84.16 Z M 156.09 84.09 L 155.10 84.03 C 154.24 83.99 153.50 84.65 153.46 85.51 C 153.41 86.37 154.08 87.11 154.94 87.15 L 155.93 87.20 C 156.79 87.25 157.53 86.59 157.57 85.73 C 157.62 84.86 156.95 84.13 156.09 84.09 Z M 155.07 84.03 L 154.07 84.00 C 153.21 83.97 152.49 84.64 152.46 85.50 C 152.43 86.36 153.10 87.09 153.96 87.12 L 154.96 87.15 C 155.82 87.18 156.55 86.51 156.58 85.65 C 156.61 84.79 155.94 84.06 155.07 84.03 Z M 154.05 84.00 L 153.05 83.97 C 152.18 83.95 151.47 84.64 151.45 85.50 C 151.43 86.36 152.11 87.07 152.97 87.09 L 153.98 87.12 C 154.84 87.14 155.56 86.45 155.58 85.59 C 155.60 84.73 154.92 84.02 154.05 84.00 Z M 153.03 83.97 L 152.01 83.96 C 151.15 83.95 150.44 84.64 150.43 85.50 C 150.42 86.37 151.11 87.07 151.97 87.08 L 152.99 87.09 C 153.85 87.10 154.56 86.41 154.57 85.55 C 154.58 84.69 153.89 83.98 153.03 83.97 Z M 151.98 83.96 L 150.97 83.97 C 150.11 83.97 149.41 84.67 149.42 85.53 C 149.42 86.40 150.12 87.09 150.98 87.09 L 152.00 87.08 C 152.86 87.08 153.55 86.38 153.55 85.51 C 153.55 84.65 152.84 83.96 151.98 83.96 Z M 150.93 83.97 L 149.95 83.99 C 149.09 84.02 148.41 84.74 148.43 85.60 C 148.45 86.46 149.17 87.14 150.03 87.11 L 151.02 87.09 C 151.88 87.06 152.56 86.35 152.54 85.48 C 152.51 84.62 151.80 83.94 150.93 83.97 Z M 149.90 84.00 L 148.91 84.05 C 148.05 84.11 147.39 84.84 147.44 85.71 C 147.49 86.57 148.23 87.22 149.09 87.17 L 150.08 87.11 C 150.94 87.06 151.60 86.32 151.55 85.46 C 151.50 84.60 150.76 83.94 149.90 84.00 Z M 148.84 84.06 L 147.84 84.16 C 146.98 84.26 146.36 85.02 146.45 85.88 C 146.54 86.74 147.31 87.36 148.17 87.27 L 149.16 87.17 C 150.02 87.08 150.64 86.31 150.55 85.45 C 150.46 84.59 149.69 83.97 148.84 84.06 Z M 147.75 84.18 L 146.78 84.34 C 145.93 84.48 145.35 85.28 145.49 86.13 C 145.63 86.98 146.43 87.56 147.28 87.42 L 148.26 87.26 C 149.11 87.12 149.68 86.32 149.54 85.46 C 149.40 84.61 148.60 84.04 147.75 84.18 Z M 146.68 84.36 L 145.72 84.58 C 144.88 84.77 144.36 85.61 144.56 86.45 C 144.75 87.29 145.59 87.81 146.43 87.62 L 147.38 87.40 C 148.22 87.20 148.75 86.37 148.55 85.53 C 148.36 84.69 147.52 84.16 146.68 84.36 Z M 145.64 84.60 L 144.73 84.87 C 143.90 85.11 143.43 85.98 143.67 86.80 C 143.91 87.63 144.78 88.11 145.60 87.86 L 146.51 87.60 C 147.34 87.35 147.82 86.49 147.57 85.66 C 147.33 84.83 146.46 84.36 145.64 84.60 Z M 144.67 84.89 L 143.72 85.20 C 142.91 85.48 142.47 86.37 142.74 87.18 C 143.02 88.00 143.91 88.44 144.72 88.16 L 145.67 87.84 C 146.48 87.57 146.92 86.68 146.64 85.87 C 146.37 85.05 145.48 84.61 144.67 84.89 Z M 143.68 85.22 L 142.70 85.58 C 141.89 85.88 141.48 86.77 141.78 87.58 C 142.07 88.39 142.97 88.81 143.78 88.51 L 144.76 88.15 C 145.57 87.85 145.99 86.95 145.69 86.14 C 145.39 85.34 144.49 84.92 143.68 85.22 Z M 142.68 85.59 L 141.78 85.93 C 140.98 86.24 140.58 87.14 140.88 87.95 C 141.19 88.75 142.10 89.15 142.90 88.85 L 143.80 88.50 C 144.60 88.19 145.01 87.29 144.70 86.49 C 144.39 85.68 143.49 85.28 142.68 85.59 Z M 141.77 85.93 L 140.90 86.28 C 140.10 86.59 139.70 87.50 140.01 88.30 C 140.33 89.10 141.23 89.50 142.04 89.18 L 142.91 88.84 C 143.71 88.53 144.11 87.62 143.80 86.82 C 143.48 86.02 142.58 85.62 141.77 85.93 Z M 140.89 86.28 L 139.97 86.64 C 139.17 86.96 138.78 87.87 139.09 88.67 C 139.41 89.47 140.32 89.86 141.12 89.55 L 142.04 89.18 C 142.84 88.86 143.24 87.96 142.92 87.16 C 142.60 86.35 141.69 85.96 140.89 86.28 Z M 139.97 86.65 L 138.99 87.04 C 138.19 87.36 137.80 88.26 138.12 89.06 C 138.44 89.87 139.34 90.26 140.14 89.94 L 141.12 89.55 C 141.92 89.23 142.31 88.32 141.99 87.52 C 141.67 86.72 140.77 86.33 139.97 86.65 Z M 138.99 87.04 L 137.99 87.44 C 137.19 87.76 136.80 88.66 137.12 89.47 C 137.44 90.27 138.35 90.66 139.15 90.33 L 140.15 89.94 C 140.95 89.62 141.34 88.71 141.02 87.91 C 140.70 87.11 139.79 86.72 138.99 87.04 Z M 137.99 87.44 L 137.05 87.81 C 136.25 88.13 135.86 89.04 136.18 89.84 C 136.50 90.64 137.41 91.03 138.21 90.71 L 139.15 90.33 C 139.95 90.01 140.34 89.11 140.02 88.30 C 139.70 87.50 138.79 87.12 137.99 87.44 Z M 137.05 87.81 L 136.09 88.20 C 135.29 88.52 134.91 89.43 135.23 90.23 C 135.55 91.03 136.46 91.41 137.26 91.09 L 138.21 90.71 C 139.01 90.39 139.40 89.48 139.08 88.68 C 138.76 87.88 137.85 87.49 137.05 87.81 Z M 136.09 88.20 L 135.14 88.58 C 134.34 88.90 133.96 89.81 134.28 90.61 C 134.60 91.41 135.51 91.80 136.31 91.48 L 137.26 91.09 C 138.06 90.77 138.45 89.86 138.12 89.06 C 137.80 88.26 136.89 87.87 136.09 88.20 Z M 135.14 88.58 L 134.22 88.96 C 133.42 89.28 133.04 90.19 133.36 90.99 C 133.69 91.79 134.60 92.17 135.40 91.85 L 136.32 91.47 C 137.11 91.15 137.50 90.24 137.17 89.44 C 136.85 88.64 135.94 88.26 135.14 88.58 Z M 134.21 88.96 L 133.32 89.33 C 132.52 89.66 132.14 90.57 132.47 91.37 C 132.80 92.16 133.71 92.54 134.51 92.21 L 135.40 91.85 C 136.20 91.52 136.58 90.60 136.25 89.81 C 135.92 89.01 135.01 88.63 134.21 88.96 Z M 133.31 89.33 L 132.34 89.74 C 131.55 90.08 131.18 91.00 131.51 91.79 C 131.85 92.58 132.77 92.95 133.56 92.62 L 134.52 92.21 C 135.32 91.87 135.69 90.96 135.35 90.16 C 135.02 89.37 134.10 89.00 133.31 89.33 Z M 132.31 89.75 L 131.42 90.15 C 130.63 90.51 130.28 91.43 130.63 92.22 C 130.98 93.00 131.90 93.36 132.69 93.01 L 133.59 92.61 C 134.37 92.25 134.73 91.33 134.38 90.54 C 134.03 89.76 133.10 89.40 132.31 89.75 Z M 131.38 90.17 L 130.51 90.59 C 129.73 90.96 129.41 91.89 129.78 92.67 C 130.15 93.45 131.08 93.78 131.86 93.40 L 132.73 92.99 C 133.51 92.62 133.84 91.68 133.46 90.91 C 133.09 90.13 132.16 89.80 131.38 90.17 Z M 130.47 90.61 L 129.59 91.07 C 128.82 91.47 128.52 92.41 128.92 93.18 C 129.32 93.94 130.26 94.24 131.03 93.84 L 131.91 93.38 C 132.67 92.98 132.97 92.04 132.57 91.28 C 132.17 90.51 131.23 90.21 130.47 90.61 Z M 129.54 91.09 L 128.67 91.58 C 127.92 92.01 127.65 92.96 128.08 93.71 C 128.50 94.46 129.45 94.73 130.20 94.31 L 131.07 93.82 C 131.82 93.39 132.09 92.44 131.67 91.69 C 131.24 90.94 130.29 90.67 129.54 91.09 Z M 128.63 91.61 L 127.75 92.14 C 127.01 92.59 126.77 93.55 127.22 94.29 C 127.67 95.03 128.63 95.26 129.36 94.81 L 130.24 94.28 C 130.98 93.83 131.22 92.87 130.77 92.14 C 130.32 91.40 129.36 91.16 128.63 91.61 Z M 127.70 92.17 L 126.84 92.73 C 126.12 93.21 125.92 94.18 126.39 94.90 C 126.86 95.62 127.83 95.82 128.55 95.35 L 129.41 94.78 C 130.13 94.31 130.33 93.34 129.86 92.62 C 129.39 91.90 128.42 91.70 127.70 92.17 Z M 126.79 92.77 L 125.99 93.35 C 125.29 93.85 125.13 94.83 125.63 95.53 C 126.14 96.23 127.11 96.38 127.81 95.88 L 128.61 95.31 C 129.31 94.80 129.47 93.83 128.96 93.13 C 128.46 92.43 127.49 92.27 126.79 92.77 Z M 125.91 93.41 L 125.12 94.06 C 124.45 94.60 124.36 95.59 124.90 96.25 C 125.45 96.92 126.43 97.02 127.10 96.47 L 127.89 95.82 C 128.56 95.27 128.66 94.29 128.11 93.62 C 127.56 92.96 126.58 92.86 125.91 93.41 Z M 125.01 94.15 L 124.28 94.87 C 123.67 95.47 123.66 96.46 124.27 97.08 C 124.87 97.69 125.86 97.70 126.47 97.09 L 127.20 96.38 C 127.82 95.77 127.83 94.78 127.22 94.17 C 126.62 93.55 125.63 93.54 125.01 94.15 Z M 124.18 94.99 L 123.56 95.73 C 123.01 96.39 123.11 97.37 123.77 97.92 C 124.44 98.47 125.42 98.38 125.97 97.72 L 126.58 96.98 C 127.13 96.31 127.04 95.33 126.37 94.78 C 125.71 94.23 124.72 94.32 124.18 94.99 Z M 123.48 95.84 L 122.94 96.63 C 122.46 97.34 122.64 98.32 123.35 98.80 C 124.07 99.28 125.04 99.10 125.52 98.39 L 126.06 97.60 C 126.54 96.88 126.36 95.91 125.64 95.43 C 124.93 94.94 123.96 95.13 123.48 95.84 Z M 122.88 96.73 L 122.40 97.56 C 121.97 98.30 122.23 99.26 122.97 99.69 C 123.72 100.12 124.67 99.87 125.10 99.12 L 125.58 98.29 C 126.01 97.54 125.76 96.59 125.01 96.16 C 124.27 95.73 123.31 95.98 122.88 96.73 Z M 122.35 97.65 L 121.91 98.54 C 121.53 99.32 121.85 100.25 122.62 100.63 C 123.40 101.01 124.33 100.69 124.71 99.92 L 125.15 99.03 C 125.53 98.25 125.22 97.32 124.44 96.94 C 123.67 96.56 122.73 96.88 122.35 97.65 Z M 121.87 98.64 L 121.48 99.58 C 121.15 100.38 121.53 101.29 122.33 101.62 C 123.12 101.95 124.04 101.57 124.36 100.77 L 124.76 99.83 C 125.09 99.03 124.71 98.12 123.91 97.79 C 123.11 97.46 122.20 97.84 121.87 98.64 Z M 121.44 99.68 L 121.12 100.63 C 120.84 101.45 121.28 102.33 122.10 102.61 C 122.92 102.89 123.80 102.45 124.08 101.63 L 124.40 100.68 C 124.68 99.86 124.24 98.98 123.42 98.70 C 122.61 98.42 121.72 98.86 121.44 99.68 Z M 121.09 100.72 L 120.84 101.66 C 120.61 102.49 121.10 103.35 121.94 103.57 C 122.77 103.80 123.63 103.31 123.85 102.48 L 124.11 101.54 C 124.33 100.71 123.84 99.85 123.01 99.62 C 122.18 99.40 121.32 99.89 121.09 100.72 Z M 120.82 101.74 L 120.61 102.72 C 120.43 103.56 120.97 104.39 121.81 104.57 C 122.66 104.75 123.49 104.21 123.67 103.36 L 123.87 102.39 C 124.05 101.55 123.51 100.72 122.67 100.54 C 121.83 100.36 121.00 100.90 120.82 101.74 Z M 120.60 102.80 L 120.44 103.81 C 120.30 104.66 120.88 105.46 121.73 105.60 C 122.58 105.73 123.38 105.15 123.52 104.30 L 123.68 103.29 C 123.82 102.43 123.24 101.63 122.38 101.50 C 121.53 101.36 120.73 101.94 120.60 102.80 Z M 120.43 103.88 L 120.31 104.87 C 120.22 105.72 120.83 106.50 121.69 106.59 C 122.55 106.69 123.32 106.07 123.42 105.22 L 123.53 104.23 C 123.63 103.37 123.01 102.60 122.15 102.50 C 121.30 102.41 120.52 103.02 120.43 103.88 Z M 120.31 104.92 L 120.24 105.88 C 120.17 106.74 120.81 107.49 121.67 107.55 C 122.53 107.62 123.28 106.97 123.35 106.11 L 123.42 105.16 C 123.49 104.30 122.84 103.55 121.98 103.49 C 121.12 103.42 120.37 104.06 120.31 104.92 Z M 120.23 105.92 L 120.19 106.91 C 120.14 107.77 120.81 108.50 121.67 108.54 C 122.53 108.58 123.26 107.92 123.30 107.06 L 123.35 106.07 C 123.39 105.21 122.73 104.48 121.87 104.44 C 121.01 104.39 120.27 105.06 120.23 105.92 Z M 120.18 106.94 L 120.16 107.97 C 120.14 108.83 120.82 109.54 121.68 109.57 C 122.54 109.59 123.26 108.91 123.28 108.04 L 123.31 107.02 C 123.33 106.16 122.65 105.44 121.78 105.42 C 120.92 105.40 120.21 106.08 120.18 106.94 Z M 120.16 107.99 L 120.15 109.05 C 120.14 109.92 120.84 110.62 121.70 110.63 C 122.56 110.63 123.27 109.94 123.27 109.08 L 123.28 108.02 C 123.29 107.15 122.59 106.45 121.73 106.44 C 120.87 106.44 120.17 107.13 120.16 107.99 Z M 120.15 109.08 L 120.16 110.03 C 120.16 110.90 120.87 111.59 121.73 111.58 C 122.59 111.58 123.28 110.88 123.28 110.01 L 123.27 109.05 C 123.27 108.19 122.56 107.50 121.70 107.50 C 120.84 107.51 120.14 108.21 120.15 109.08 Z M 120.16 110.07 L 120.19 111.05 C 120.21 111.91 120.93 112.59 121.79 112.56 C 122.66 112.53 123.33 111.81 123.31 110.95 L 123.28 109.98 C 123.25 109.12 122.53 108.44 121.67 108.46 C 120.81 108.49 120.13 109.21 120.16 110.07 Z M 120.19 111.10 L 120.25 112.10 C 120.31 112.96 121.06 113.61 121.92 113.55 C 122.78 113.50 123.43 112.75 123.37 111.89 L 123.30 110.90 C 123.25 110.04 122.50 109.38 121.64 109.44 C 120.78 109.50 120.13 110.24 120.19 111.10 Z M 120.26 112.17 L 120.38 113.18 C 120.48 114.04 121.25 114.65 122.11 114.56 C 122.96 114.46 123.58 113.68 123.48 112.83 L 123.36 111.82 C 123.27 110.96 122.49 110.34 121.63 110.44 C 120.78 110.54 120.16 111.32 120.26 112.17 Z M 120.39 113.28 L 120.57 114.30 C 120.72 115.15 121.53 115.71 122.38 115.56 C 123.23 115.41 123.80 114.60 123.65 113.75 L 123.47 112.73 C 123.32 111.88 122.51 111.32 121.66 111.47 C 120.81 111.62 120.24 112.43 120.39 113.28 Z M 120.60 114.41 L 120.85 115.42 C 121.06 116.25 121.90 116.76 122.74 116.55 C 123.58 116.34 124.09 115.50 123.88 114.66 L 123.62 113.65 C 123.42 112.81 122.57 112.30 121.73 112.51 C 120.90 112.72 120.39 113.57 120.60 114.41 Z M 120.87 115.51 L 121.19 116.51 C 121.45 117.33 122.33 117.78 123.15 117.52 C 123.97 117.26 124.43 116.38 124.17 115.56 L 123.85 114.57 C 123.59 113.74 122.71 113.29 121.89 113.55 C 121.07 113.81 120.61 114.69 120.87 115.51 Z M 121.21 116.58 L 121.57 117.55 C 121.87 118.36 122.77 118.77 123.58 118.47 C 124.39 118.17 124.80 117.27 124.50 116.46 L 124.14 115.49 C 123.84 114.68 122.94 114.27 122.14 114.57 C 121.33 114.87 120.91 115.77 121.21 116.58 Z M 121.60 117.60 L 121.98 118.53 C 122.31 119.33 123.22 119.71 124.02 119.38 C 124.82 119.05 125.20 118.13 124.87 117.34 L 124.48 116.41 C 124.15 115.61 123.24 115.23 122.44 115.56 C 121.64 115.89 121.27 116.81 121.60 117.60 Z M 122.00 118.57 L 122.39 119.44 C 122.74 120.23 123.66 120.58 124.45 120.23 C 125.24 119.88 125.59 118.95 125.24 118.17 L 124.85 117.30 C 124.49 116.51 123.57 116.16 122.78 116.51 C 122.00 116.86 121.65 117.79 122.00 118.57 Z M 122.40 119.47 L 122.83 120.38 C 123.20 121.16 124.13 121.49 124.91 121.12 C 125.69 120.75 126.02 119.82 125.65 119.04 L 125.22 118.13 C 124.85 117.36 123.92 117.02 123.14 117.39 C 122.36 117.76 122.03 118.69 122.40 119.47 Z M 122.84 120.40 L 123.33 121.38 C 123.71 122.15 124.65 122.46 125.42 122.08 C 126.19 121.69 126.51 120.75 126.12 119.98 L 125.64 119.01 C 125.25 118.24 124.32 117.93 123.54 118.31 C 122.77 118.69 122.46 119.63 122.84 120.40 Z M 123.34 121.40 L 123.80 122.27 C 124.20 123.03 125.14 123.32 125.90 122.92 C 126.67 122.52 126.96 121.58 126.56 120.82 L 126.11 119.95 C 125.71 119.19 124.76 118.90 124.00 119.30 C 123.24 119.70 122.94 120.64 123.34 121.40 Z M 123.81 122.29 L 124.24 123.09 C 124.66 123.85 125.60 124.13 126.36 123.72 C 127.12 123.30 127.40 122.35 126.99 121.60 L 126.55 120.80 C 126.14 120.04 125.19 119.76 124.43 120.17 C 123.67 120.58 123.39 121.53 123.81 122.29 Z M 124.25 123.10 L 124.71 123.93 C 125.13 124.68 126.08 124.95 126.83 124.54 C 127.59 124.12 127.86 123.17 127.44 122.41 L 126.98 121.59 C 126.56 120.83 125.61 120.56 124.86 120.98 C 124.10 121.40 123.83 122.35 124.25 123.10 Z M 124.72 123.94 L 125.20 124.80 C 125.63 125.55 126.58 125.82 127.33 125.39 C 128.08 124.97 128.35 124.02 127.92 123.27 L 127.43 122.40 C 127.01 121.65 126.06 121.39 125.31 121.81 C 124.56 122.24 124.29 123.19 124.72 123.94 Z M 125.21 124.82 L 125.71 125.69 C 126.15 126.43 127.10 126.69 127.85 126.26 C 128.59 125.82 128.85 124.87 128.42 124.12 L 127.91 123.25 C 127.48 122.51 126.53 122.25 125.78 122.68 C 125.03 123.12 124.78 124.07 125.21 124.82 Z M 125.73 125.71 L 126.25 126.57 C 126.69 127.31 127.65 127.56 128.39 127.11 C 129.13 126.67 129.37 125.71 128.93 124.97 L 128.41 124.10 C 127.96 123.36 127.00 123.12 126.26 123.56 C 125.52 124.01 125.28 124.97 125.73 125.71 Z M 126.26 126.60 L 126.78 127.43 C 127.23 128.16 128.19 128.38 128.93 127.93 C 129.66 127.47 129.88 126.51 129.43 125.78 L 128.91 124.95 C 128.46 124.22 127.49 123.99 126.76 124.45 C 126.03 124.90 125.80 125.86 126.26 126.60 Z M 126.79 127.45 L 127.32 128.28 C 127.79 129.01 128.75 129.22 129.48 128.75 C 130.21 128.29 130.42 127.32 129.95 126.60 L 129.42 125.76 C 128.95 125.04 127.99 124.82 127.26 125.29 C 126.53 125.75 126.32 126.72 126.79 127.45 Z M 127.33 128.29 L 127.89 129.14 C 128.36 129.86 129.33 130.06 130.05 129.59 C 130.77 129.12 130.97 128.15 130.50 127.43 L 129.94 126.58 C 129.47 125.86 128.50 125.66 127.78 126.13 C 127.06 126.61 126.86 127.57 127.33 128.29 Z M 127.89 129.15 L 128.46 130.00 C 128.93 130.72 129.90 130.91 130.62 130.43 C 131.34 129.96 131.53 128.99 131.06 128.27 L 130.49 127.42 C 130.01 126.70 129.05 126.51 128.33 126.99 C 127.61 127.46 127.41 128.43 127.89 129.15 Z M 128.46 130.01 L 129.03 130.84 C 129.51 131.56 130.48 131.74 131.19 131.26 C 131.91 130.78 132.10 129.81 131.61 129.09 L 131.05 128.26 C 130.57 127.54 129.60 127.36 128.88 127.84 C 128.17 128.32 127.98 129.29 128.46 130.01 Z M 129.04 130.86 L 129.61 131.69 C 130.10 132.40 131.08 132.57 131.79 132.08 C 132.49 131.59 132.67 130.62 132.18 129.91 L 131.60 129.08 C 131.11 128.37 130.14 128.19 129.43 128.68 C 128.72 129.18 128.55 130.15 129.04 130.86 Z M 129.63 131.71 L 130.21 132.52 C 130.71 133.22 131.69 133.38 132.39 132.87 C 133.09 132.37 133.25 131.39 132.74 130.69 L 132.16 129.88 C 131.66 129.18 130.68 129.03 129.98 129.53 C 129.28 130.03 129.12 131.01 129.63 131.71 Z M 130.23 132.55 L 130.85 133.36 C 131.37 134.04 132.35 134.18 133.03 133.66 C 133.72 133.14 133.86 132.16 133.33 131.47 L 132.72 130.66 C 132.20 129.97 131.22 129.84 130.53 130.36 C 129.85 130.88 129.71 131.86 130.23 132.55 Z M 130.88 133.39 L 131.52 134.19 C 132.06 134.86 133.04 134.96 133.71 134.42 C 134.38 133.88 134.49 132.90 133.95 132.23 L 133.31 131.43 C 132.76 130.76 131.78 130.66 131.11 131.20 C 130.44 131.74 130.33 132.72 130.88 133.39 Z M 131.55 134.23 L 132.19 134.98 C 132.75 135.63 133.74 135.70 134.39 135.14 C 135.05 134.58 135.12 133.59 134.56 132.94 L 133.91 132.19 C 133.35 131.54 132.37 131.46 131.71 132.02 C 131.06 132.59 130.99 133.57 131.55 134.23 Z M 132.22 135.01 L 132.88 135.72 C 133.46 136.36 134.45 136.40 135.08 135.82 C 135.72 135.24 135.76 134.25 135.18 133.61 L 134.53 132.90 C 133.94 132.27 132.96 132.22 132.32 132.81 C 131.69 133.39 131.64 134.38 132.22 135.01 Z M 132.91 135.76 L 133.62 136.48 C 134.22 137.10 135.21 137.11 135.83 136.51 C 136.44 135.90 136.45 134.92 135.85 134.30 L 135.14 133.58 C 134.54 132.96 133.55 132.95 132.94 133.55 C 132.32 134.16 132.31 135.14 132.91 135.76 Z M 133.66 136.52 L 134.38 137.21 C 135.00 137.81 135.99 137.78 136.59 137.16 C 137.18 136.54 137.16 135.55 136.54 134.95 L 135.81 134.26 C 135.19 133.67 134.20 133.69 133.61 134.31 C 133.01 134.94 133.03 135.92 133.66 136.52 Z M 134.42 137.25 L 135.16 137.91 C 135.80 138.48 136.79 138.42 137.36 137.78 C 137.94 137.14 137.88 136.15 137.24 135.58 L 136.50 134.92 C 135.85 134.34 134.87 134.40 134.29 135.04 C 133.72 135.69 133.77 136.67 134.42 137.25 Z M 135.20 137.94 L 135.97 138.58 C 136.63 139.13 137.62 139.04 138.17 138.38 C 138.72 137.72 138.63 136.73 137.97 136.18 L 137.20 135.54 C 136.53 134.99 135.55 135.08 135.00 135.74 C 134.45 136.41 134.54 137.39 135.20 137.94 Z M 136.01 138.61 L 136.80 139.23 C 137.48 139.76 138.46 139.64 138.99 138.96 C 139.52 138.28 139.40 137.30 138.72 136.77 L 137.93 136.15 C 137.25 135.62 136.27 135.74 135.74 136.42 C 135.21 137.10 135.33 138.08 136.01 138.61 Z M 136.83 139.26 L 137.64 139.85 C 138.33 140.36 139.31 140.21 139.82 139.52 C 140.33 138.83 140.18 137.85 139.49 137.34 L 138.69 136.74 C 137.99 136.23 137.02 136.38 136.50 137.07 C 135.99 137.77 136.14 138.74 136.83 139.26 Z M 137.66 139.87 L 138.44 140.41 C 139.14 140.91 140.11 140.74 140.61 140.03 C 141.11 139.33 140.94 138.35 140.23 137.86 L 139.46 137.32 C 138.76 136.82 137.78 136.99 137.29 137.69 C 136.79 138.40 136.96 139.37 137.66 139.87 Z M 138.47 140.44 L 139.21 140.93 C 139.93 141.40 140.90 141.21 141.38 140.49 C 141.85 139.77 141.66 138.80 140.94 138.33 L 140.20 137.83 C 139.48 137.36 138.51 137.55 138.03 138.27 C 137.56 138.99 137.75 139.96 138.47 140.44 Z M 139.27 140.96 L 140.10 141.46 C 140.84 141.91 141.80 141.67 142.24 140.94 C 142.69 140.20 142.45 139.24 141.71 138.79 L 140.88 138.29 C 140.15 137.84 139.19 138.08 138.74 138.82 C 138.29 139.56 138.53 140.52 139.27 140.96 Z M 140.16 141.50 L 141.14 142.03 C 141.90 142.45 142.85 142.16 143.26 141.41 C 143.67 140.65 143.39 139.70 142.63 139.29 L 141.65 138.76 C 140.90 138.35 139.95 138.63 139.54 139.38 C 139.12 140.14 139.40 141.09 140.16 141.50 Z M 141.19 142.06 L 142.08 142.50 C 142.85 142.88 143.79 142.57 144.17 141.79 C 144.55 141.02 144.24 140.09 143.47 139.70 L 142.58 139.26 C 141.81 138.88 140.87 139.20 140.49 139.97 C 140.11 140.74 140.42 141.68 141.19 142.06 Z M 142.12 142.52 L 142.98 142.91 C 143.76 143.28 144.69 142.93 145.05 142.15 C 145.41 141.37 145.07 140.44 144.29 140.08 L 143.43 139.68 C 142.64 139.32 141.72 139.66 141.36 140.45 C 140.99 141.23 141.34 142.16 142.12 142.52 Z M 143.02 142.93 L 143.94 143.33 C 144.73 143.67 145.65 143.30 145.99 142.51 C 146.33 141.72 145.96 140.80 145.17 140.46 L 144.25 140.06 C 143.45 139.72 142.54 140.09 142.20 140.88 C 141.86 141.67 142.22 142.59 143.02 142.93 Z M 143.99 143.35 L 144.95 143.73 C 145.76 144.04 146.66 143.65 146.98 142.85 C 147.29 142.04 146.90 141.14 146.10 140.82 L 145.13 140.44 C 144.33 140.12 143.42 140.52 143.10 141.32 C 142.79 142.12 143.18 143.03 143.99 143.35 Z M 145.00 143.75 L 146.00 144.10 C 146.81 144.38 147.70 143.96 147.99 143.15 C 148.28 142.33 147.85 141.44 147.04 141.15 L 146.05 140.80 C 145.23 140.51 144.34 140.94 144.05 141.75 C 143.77 142.57 144.19 143.46 145.00 143.75 Z M 146.06 144.12 L 147.05 144.42 C 147.88 144.68 148.75 144.21 149.01 143.39 C 149.26 142.57 148.80 141.69 147.97 141.44 L 146.98 141.13 C 146.15 140.88 145.28 141.34 145.03 142.17 C 144.77 142.99 145.23 143.86 146.06 144.12 Z M 147.13 144.44 L 148.11 144.70 C 148.95 144.91 149.80 144.40 150.01 143.57 C 150.22 142.73 149.72 141.88 148.88 141.67 L 147.90 141.42 C 147.06 141.21 146.21 141.71 146.00 142.55 C 145.79 143.38 146.29 144.23 147.13 144.44 Z M 148.19 144.71 L 149.16 144.91 C 150.01 145.09 150.83 144.54 151.01 143.70 C 151.18 142.85 150.63 142.03 149.79 141.85 L 148.81 141.65 C 147.97 141.48 147.14 142.03 146.97 142.87 C 146.80 143.72 147.34 144.54 148.19 144.71 Z M 149.23 144.92 L 150.21 145.08 C 151.06 145.21 151.86 144.63 151.99 143.78 C 152.13 142.93 151.55 142.13 150.70 142.00 L 149.72 141.84 C 148.87 141.71 148.07 142.29 147.93 143.14 C 147.80 143.99 148.38 144.79 149.23 144.92 Z M 150.27 145.09 L 151.25 145.20 C 152.11 145.31 152.88 144.69 152.98 143.84 C 153.08 142.98 152.47 142.20 151.62 142.10 L 150.63 141.99 C 149.78 141.89 149.00 142.50 148.90 143.35 C 148.80 144.21 149.41 144.99 150.27 145.09 Z M 151.30 145.21 L 152.30 145.29 C 153.16 145.37 153.91 144.73 153.98 143.87 C 154.06 143.01 153.42 142.26 152.56 142.18 L 151.57 142.10 C 150.71 142.03 149.95 142.66 149.88 143.52 C 149.80 144.38 150.44 145.14 151.30 145.21 Z M 152.34 145.30 L 153.36 145.36 C 154.22 145.41 154.96 144.75 155.01 143.89 C 155.06 143.03 154.40 142.29 153.54 142.24 L 152.52 142.18 C 151.66 142.13 150.92 142.79 150.87 143.65 C 150.82 144.51 151.48 145.25 152.34 145.30 Z M 153.39 145.36 L 154.44 145.40 C 155.30 145.43 156.03 144.76 156.06 143.90 C 156.09 143.04 155.42 142.31 154.56 142.28 L 153.51 142.24 C 152.65 142.21 151.92 142.88 151.89 143.74 C 151.86 144.60 152.53 145.33 153.39 145.36 Z M 154.47 145.40 L 155.51 145.42 C 156.37 145.43 157.09 144.75 157.10 143.89 C 157.12 143.02 156.43 142.31 155.57 142.30 L 154.53 142.28 C 153.66 142.26 152.95 142.95 152.94 143.81 C 152.92 144.67 153.61 145.38 154.47 145.40 Z M 155.54 145.42 L 156.56 145.42 C 157.42 145.42 158.12 144.72 158.12 143.85 C 158.12 142.99 157.42 142.29 156.56 142.29 L 155.54 142.30 C 154.68 142.30 153.98 143.00 153.98 143.86 C 153.98 144.72 154.68 145.42 155.54 145.42 Z M 156.59 145.42 L 157.56 145.40 C 158.43 145.38 159.11 144.67 159.09 143.80 C 159.07 142.94 158.36 142.26 157.50 142.28 L 156.53 142.30 C 155.66 142.31 154.98 143.03 155.00 143.89 C 155.02 144.75 155.73 145.43 156.59 145.42 Z M 157.60 145.40 L 158.51 145.36 C 159.37 145.32 160.04 144.59 160.00 143.73 C 159.96 142.87 159.24 142.20 158.37 142.24 L 157.47 142.28 C 156.60 142.31 155.94 143.04 155.97 143.90 C 156.01 144.76 156.74 145.43 157.60 145.40 Z M 158.55 145.36 L 159.64 145.28 C 160.50 145.22 161.15 144.47 161.09 143.61 C 161.03 142.75 160.28 142.10 159.42 142.16 L 158.33 142.24 C 157.47 142.30 156.82 143.05 156.88 143.91 C 156.94 144.77 157.69 145.42 158.55 145.36 Z M 159.70 145.27 L 160.70 145.16 C 161.56 145.07 162.18 144.30 162.09 143.44 C 161.99 142.58 161.22 141.96 160.36 142.06 L 159.36 142.17 C 158.51 142.26 157.89 143.03 157.98 143.89 C 158.08 144.75 158.85 145.37 159.70 145.27 Z M 160.76 145.15 L 161.70 145.02 C 162.55 144.89 163.14 144.10 163.02 143.25 C 162.89 142.39 162.10 141.80 161.25 141.93 L 160.31 142.07 C 159.45 142.19 158.86 142.98 158.99 143.84 C 159.11 144.69 159.91 145.28 160.76 145.15 Z M 161.74 145.01 L 162.67 144.85 C 163.52 144.69 164.09 143.88 163.94 143.04 C 163.79 142.19 162.98 141.62 162.13 141.77 L 161.20 141.93 C 160.35 142.08 159.79 142.89 159.94 143.74 C 160.09 144.59 160.90 145.16 161.74 145.01 Z M 162.70 144.84 L 163.65 144.65 C 164.50 144.49 165.05 143.67 164.88 142.82 C 164.72 141.98 163.90 141.43 163.05 141.59 L 162.10 141.78 C 161.26 141.94 160.71 142.76 160.87 143.61 C 161.04 144.45 161.86 145.01 162.70 144.84 Z M 163.67 144.65 L 164.65 144.45 C 165.49 144.27 166.03 143.44 165.85 142.60 C 165.68 141.75 164.85 141.21 164.01 141.39 L 163.03 141.59 C 162.19 141.77 161.64 142.60 161.82 143.44 C 162.00 144.29 162.83 144.83 163.67 144.65 Z M 164.67 144.44 L 165.66 144.22 C 166.50 144.03 167.03 143.20 166.84 142.36 C 166.65 141.52 165.82 140.99 164.98 141.17 L 163.99 141.39 C 163.14 141.58 162.61 142.42 162.80 143.26 C 162.99 144.10 163.82 144.63 164.67 144.44 Z M 165.67 144.22 L 166.66 143.98 C 167.50 143.79 168.02 142.95 167.82 142.11 C 167.63 141.27 166.79 140.75 165.95 140.94 L 164.96 141.18 C 164.12 141.38 163.60 142.22 163.80 143.06 C 163.99 143.89 164.84 144.41 165.67 144.22 Z M 166.68 143.98 L 167.67 143.73 C 168.51 143.52 169.02 142.68 168.81 141.84 C 168.60 141.00 167.76 140.49 166.92 140.70 L 165.93 140.95 C 165.09 141.16 164.58 142.01 164.79 142.84 C 165.00 143.68 165.85 144.19 166.68 143.98 Z M 167.69 143.73 L 168.67 143.47 C 169.50 143.25 170.00 142.40 169.78 141.57 C 169.57 140.73 168.71 140.23 167.88 140.45 L 166.90 140.71 C 166.07 140.92 165.57 141.78 165.79 142.61 C 166.00 143.45 166.86 143.95 167.69 143.73 Z M 168.68 143.47 L 169.64 143.21 C 170.47 142.98 170.97 142.12 170.74 141.29 C 170.52 140.46 169.66 139.97 168.83 140.19 L 167.87 140.45 C 167.03 140.68 166.54 141.54 166.77 142.37 C 166.99 143.20 167.85 143.69 168.68 143.47 Z M 169.65 143.21 L 170.60 142.94 C 171.43 142.71 171.92 141.85 171.69 141.02 C 171.45 140.19 170.59 139.70 169.76 139.93 L 168.82 140.20 C 167.99 140.43 167.50 141.29 167.73 142.12 C 167.96 142.95 168.82 143.44 169.65 143.21 Z M 170.60 142.94 L 171.57 142.67 C 172.40 142.44 172.88 141.57 172.65 140.74 C 172.41 139.91 171.55 139.43 170.72 139.66 L 169.76 139.94 C 168.93 140.17 168.44 141.03 168.68 141.86 C 168.91 142.69 169.77 143.17 170.60 142.94 Z M 171.57 142.67 L 172.54 142.39 C 173.37 142.16 173.85 141.29 173.61 140.46 C 173.38 139.63 172.51 139.15 171.68 139.39 L 170.72 139.67 C 169.89 139.90 169.41 140.77 169.64 141.60 C 169.88 142.43 170.74 142.90 171.57 142.67 Z M 172.55 142.39 L 173.51 142.11 C 174.33 141.87 174.81 141.00 174.57 140.17 C 174.33 139.34 173.46 138.87 172.63 139.11 L 171.67 139.39 C 170.85 139.63 170.37 140.50 170.61 141.33 C 170.85 142.16 171.72 142.63 172.55 142.39 Z M 173.52 142.11 L 174.47 141.82 C 175.29 141.57 175.76 140.70 175.51 139.87 C 175.26 139.05 174.39 138.58 173.57 138.83 L 172.62 139.12 C 171.79 139.37 171.33 140.24 171.57 141.06 C 171.82 141.89 172.69 142.35 173.52 142.11 Z M 174.48 141.81 L 175.44 141.51 C 176.26 141.26 176.72 140.38 176.47 139.56 C 176.21 138.74 175.33 138.28 174.51 138.53 L 173.55 138.83 C 172.73 139.09 172.27 139.97 172.53 140.79 C 172.79 141.61 173.66 142.07 174.48 141.81 Z M 175.45 141.51 L 176.41 141.21 C 177.23 140.94 177.68 140.06 177.42 139.24 C 177.15 138.42 176.27 137.97 175.45 138.23 L 174.50 138.54 C 173.68 138.80 173.23 139.68 173.49 140.50 C 173.75 141.32 174.63 141.77 175.45 141.51 Z M 176.41 141.20 L 177.36 140.90 C 178.18 140.63 178.63 139.75 178.36 138.93 C 178.10 138.11 177.22 137.66 176.40 137.93 L 175.45 138.23 C 174.63 138.50 174.18 139.38 174.44 140.20 C 174.71 141.02 175.59 141.47 176.41 141.20 Z M 177.35 140.90 L 178.30 140.60 C 179.12 140.34 179.58 139.46 179.32 138.64 C 179.05 137.82 178.18 137.36 177.35 137.62 L 176.41 137.92 C 175.58 138.19 175.13 139.06 175.39 139.89 C 175.65 140.71 176.53 141.16 177.35 140.90 Z M 178.29 140.60 L 179.26 140.30 C 180.09 140.04 180.55 139.17 180.29 138.35 C 180.04 137.52 179.16 137.06 178.34 137.32 L 177.37 137.62 C 176.54 137.87 176.08 138.75 176.34 139.57 C 176.59 140.40 177.47 140.86 178.29 140.60 Z M 179.25 140.30 L 180.22 140.01 C 181.04 139.76 181.51 138.89 181.26 138.07 C 181.01 137.24 180.14 136.77 179.32 137.02 L 178.35 137.31 C 177.52 137.56 177.06 138.44 177.31 139.26 C 177.56 140.09 178.43 140.55 179.25 140.30 Z M 180.21 140.01 L 181.16 139.73 C 181.99 139.49 182.46 138.62 182.21 137.79 C 181.97 136.96 181.10 136.49 180.27 136.74 L 179.32 137.02 C 178.50 137.27 178.02 138.14 178.27 138.96 C 178.52 139.79 179.39 140.26 180.21 140.01 Z M 181.16 139.73 L 182.11 139.45 C 182.93 139.21 183.41 138.34 183.16 137.51 C 182.92 136.69 182.05 136.21 181.22 136.46 L 180.27 136.74 C 179.45 136.98 178.97 137.85 179.22 138.68 C 179.46 139.50 180.33 139.98 181.16 139.73 Z M 182.10 139.45 L 183.07 139.17 C 183.89 138.93 184.37 138.06 184.12 137.23 C 183.88 136.41 183.01 135.93 182.19 136.18 L 181.22 136.46 C 180.40 136.70 179.92 137.57 180.17 138.40 C 180.41 139.22 181.28 139.70 182.10 139.45 Z M 183.07 139.17 L 184.02 138.89 C 184.85 138.65 185.32 137.78 185.07 136.95 C 184.83 136.12 183.96 135.65 183.14 135.90 L 182.18 136.18 C 181.36 136.42 180.88 137.29 181.13 138.11 C 181.37 138.94 182.24 139.41 183.07 139.17 Z M 184.02 138.89 L 184.98 138.60 C 185.81 138.36 186.28 137.49 186.03 136.66 C 185.78 135.84 184.91 135.37 184.09 135.61 L 183.13 135.90 C 182.31 136.14 181.83 137.01 182.08 137.84 C 182.33 138.66 183.20 139.13 184.02 138.89 Z M 184.98 138.60 L 185.91 138.32 C 186.73 138.08 187.20 137.20 186.95 136.38 C 186.70 135.55 185.83 135.09 185.01 135.34 L 184.08 135.61 C 183.26 135.86 182.79 136.73 183.04 137.56 C 183.29 138.38 184.16 138.85 184.98 138.60 Z M 185.91 138.32 L 186.85 138.04 C 187.68 137.79 188.14 136.92 187.90 136.10 C 187.65 135.27 186.78 134.80 185.95 135.05 L 185.01 135.33 C 184.18 135.58 183.71 136.45 183.96 137.28 C 184.21 138.11 185.08 138.57 185.91 138.32 Z M 186.84 138.04 L 187.82 137.75 C 188.65 137.51 189.12 136.64 188.87 135.81 C 188.63 134.99 187.76 134.51 186.93 134.76 L 185.96 135.05 C 185.13 135.29 184.66 136.16 184.90 136.99 C 185.15 137.82 186.02 138.29 186.84 138.04 Z M 187.81 137.76 L 188.79 137.47 C 189.62 137.23 190.10 136.37 189.86 135.54 C 189.62 134.71 188.76 134.23 187.93 134.47 L 186.94 134.76 C 186.12 134.99 185.64 135.86 185.88 136.69 C 186.11 137.52 186.98 137.99 187.81 137.76 Z M 188.78 137.48 L 189.74 137.21 C 190.57 136.98 191.06 136.12 190.83 135.29 C 190.60 134.46 189.74 133.97 188.91 134.20 L 187.95 134.47 C 187.11 134.70 186.63 135.56 186.86 136.39 C 187.09 137.22 187.95 137.71 188.78 137.48 Z M 189.73 137.21 L 190.70 136.95 C 191.53 136.73 192.03 135.87 191.81 135.04 C 191.58 134.21 190.73 133.71 189.89 133.94 L 188.92 134.20 C 188.09 134.42 187.59 135.28 187.82 136.11 C 188.04 136.94 188.89 137.44 189.73 137.21 Z M 190.69 136.96 L 191.66 136.71 C 192.50 136.49 193.00 135.64 192.78 134.80 C 192.57 133.97 191.72 133.47 190.88 133.68 L 189.91 133.93 C 189.07 134.15 188.57 135.00 188.79 135.83 C 189.00 136.67 189.85 137.17 190.69 136.96 Z M 191.65 136.71 L 192.63 136.47 C 193.47 136.26 193.98 135.41 193.77 134.58 C 193.56 133.74 192.72 133.23 191.88 133.43 L 190.90 133.68 C 190.06 133.88 189.55 134.73 189.76 135.57 C 189.96 136.40 190.81 136.92 191.65 136.71 Z M 192.61 136.47 L 193.61 136.24 C 194.45 136.04 194.97 135.20 194.78 134.36 C 194.58 133.52 193.74 133.00 192.90 133.20 L 191.90 133.43 C 191.06 133.63 190.54 134.46 190.73 135.30 C 190.93 136.14 191.77 136.67 192.61 136.47 Z M 193.58 136.24 L 194.56 136.04 C 195.40 135.86 195.94 135.03 195.76 134.19 C 195.58 133.34 194.76 132.81 193.91 132.98 L 192.93 133.19 C 192.09 133.37 191.55 134.20 191.73 135.04 C 191.91 135.88 192.74 136.42 193.58 136.24 Z M 194.52 136.05 L 195.47 135.87 C 196.32 135.72 196.88 134.90 196.72 134.06 C 196.57 133.21 195.76 132.65 194.91 132.80 L 193.95 132.98 C 193.11 133.13 192.54 133.94 192.70 134.79 C 192.85 135.64 193.67 136.20 194.52 136.05 Z M 195.41 135.88 L 196.40 135.74 C 197.26 135.61 197.85 134.82 197.72 133.97 C 197.60 133.11 196.80 132.52 195.95 132.65 L 194.96 132.79 C 194.11 132.92 193.52 133.71 193.64 134.56 C 193.77 135.42 194.56 136.01 195.41 135.88 Z M 196.35 135.74 L 197.35 135.63 C 198.21 135.53 198.82 134.76 198.73 133.90 C 198.63 133.05 197.86 132.43 197.00 132.53 L 196.00 132.64 C 195.15 132.74 194.53 133.51 194.63 134.37 C 194.72 135.22 195.50 135.84 196.35 135.74 Z M 197.32 135.63 L 198.30 135.54 C 199.16 135.47 199.79 134.71 199.72 133.85 C 199.64 132.99 198.88 132.36 198.02 132.44 L 197.04 132.52 C 196.18 132.60 195.54 133.36 195.62 134.22 C 195.70 135.08 196.46 135.71 197.32 135.63 Z M 198.29 135.55 L 198.98 135.49 C 199.84 135.42 200.48 134.67 200.41 133.81 C 200.34 132.95 199.59 132.31 198.73 132.38 L 198.04 132.43 C 197.18 132.50 196.54 133.26 196.61 134.12 C 196.68 134.98 197.43 135.62 198.29 135.55 Z"
      fill="black"
      fill-rule="nonzero" /></svg>