<svg xmlns="http://www.w3.org/2000/svg" width="300" height="300" viewBox="0 0 300 300">
<path d="M 127.35 84.55 L 126.18 83.89 C 125.43 83.46 124.47 83.72 124.05 84.47 C 123.62 85.22 123.88 86.17 124.63 86.60 L 125.80 87.27 C 126.55 87.69 127.50 87.43 127.93 86.68 C 128.36 85.94 128.10 84.98 127.35 84.55 Z M 125.93 83.77 L 125.23 83.52 C 124.42 83.23 123.52 83.65 123.23 84.46 C 122.94 85.27 123.36 86.17 124.17 86.46 L 124.88 86.71 C 125.69 87.00 126.58 86.58 126.87 85.77 C 127.16 84.96 126.74 84.06 125.93 83.77 Z M 123.18 85.34 L 123.27 85.72 C 123.46 86.57 124.30 87.09 125.14 86.90 C 125.98 86.71 126.50 85.87 126.31 85.03 L 126.22 84.64 C 126.03 83.80 125.19 83.27 124.35 83.47 C 123.51 83.66 122.99 84.50 123.18 85.34 Z M 123.53 86.30 L 124.09 87.07 C 124.60 87.76 125.58 87.92 126.28 87.41 C 126.97 86.90 127.12 85.92 126.61 85.22 L 126.05 84.45 C 125.54 83.76 124.56 83.61 123.87 84.12 C 123.17 84.63 123.02 85.60 123.53 86.30 Z M 124.15 87.14 L 124.94 88.10 C 125.50 88.76 126.48 88.85 127.14 88.30 C 127.81 87.75 127.90 86.76 127.34 86.10 L 126.55 85.15 C 126.00 84.49 125.02 84.39 124.35 84.95 C 123.69 85.50 123.60 86.48 124.15 87.14 Z M 124.96 88.12 L 125.73 89.01 C 126.30 89.66 127.28 89.74 127.94 89.17 C 128.59 88.61 128.66 87.63 128.10 86.97 L 127.33 86.08 C 126.76 85.43 125.78 85.35 125.12 85.92 C 124.47 86.48 124.40 87.46 124.96 88.12 Z M 125.74 89.01 L 126.41 89.79 C 126.97 90.44 127.96 90.51 128.61 89.95 C 129.26 89.38 129.33 88.39 128.77 87.74 L 128.09 86.97 C 127.53 86.32 126.54 86.25 125.89 86.81 C 125.24 87.38 125.17 88.36 125.74 89.01 Z M 126.41 89.79 L 127.03 90.51 C 127.59 91.17 128.58 91.24 129.23 90.68 C 129.89 90.11 129.96 89.13 129.40 88.47 L 128.77 87.75 C 128.21 87.09 127.22 87.02 126.57 87.58 C 125.92 88.15 125.84 89.13 126.41 89.79 Z M 127.02 90.50 L 127.63 91.22 C 128.19 91.88 129.17 91.96 129.83 91.41 C 130.49 90.85 130.57 89.87 130.02 89.21 L 129.41 88.49 C 128.85 87.83 127.87 87.74 127.21 88.30 C 126.55 88.86 126.47 89.84 127.02 90.50 Z M 127.62 91.21 L 128.23 91.95 C 128.78 92.62 129.76 92.71 130.43 92.16 C 131.09 91.62 131.19 90.63 130.64 89.97 L 130.03 89.22 C 129.48 88.56 128.50 88.46 127.83 89.01 C 127.17 89.56 127.07 90.54 127.62 91.21 Z M 128.22 91.94 L 128.85 92.71 C 129.39 93.39 130.37 93.49 131.04 92.95 C 131.71 92.41 131.82 91.43 131.28 90.75 L 130.65 89.98 C 130.11 89.31 129.13 89.20 128.46 89.74 C 127.78 90.28 127.68 91.27 128.22 91.94 Z M 128.84 92.71 L 129.49 93.52 C 130.02 94.19 131.00 94.30 131.68 93.77 C 132.35 93.23 132.47 92.25 131.93 91.57 L 131.28 90.76 C 130.75 90.09 129.76 89.98 129.09 90.51 C 128.42 91.05 128.30 92.03 128.84 92.71 Z M 129.48 93.51 L 130.08 94.28 C 130.62 94.95 131.60 95.07 132.28 94.54 C 132.95 94.00 133.07 93.02 132.54 92.34 L 131.93 91.58 C 131.40 90.90 130.42 90.79 129.74 91.32 C 129.06 91.85 128.95 92.84 129.48 93.51 Z M 130.08 94.27 L 130.68 95.04 C 131.21 95.72 132.20 95.84 132.87 95.31 C 133.55 94.78 133.67 93.79 133.14 93.12 L 132.54 92.35 C 132.01 91.67 131.03 91.55 130.35 92.08 C 129.67 92.61 129.55 93.59 130.08 94.27 Z M 130.68 95.03 L 131.30 95.83 C 131.83 96.51 132.81 96.64 133.49 96.11 C 134.17 95.58 134.29 94.60 133.76 93.92 L 133.15 93.12 C 132.62 92.44 131.64 92.32 130.95 92.84 C 130.27 93.37 130.15 94.35 130.68 95.03 Z M 131.29 95.83 L 131.93 96.66 C 132.45 97.34 133.43 97.47 134.12 96.95 C 134.80 96.42 134.93 95.44 134.41 94.76 L 133.77 93.93 C 133.25 93.24 132.27 93.11 131.58 93.64 C 130.90 94.16 130.77 95.14 131.29 95.83 Z M 131.92 96.65 L 132.51 97.43 C 133.03 98.12 134.01 98.25 134.70 97.73 C 135.39 97.21 135.52 96.23 135.00 95.54 L 134.41 94.77 C 133.89 94.08 132.91 93.94 132.23 94.46 C 131.54 94.98 131.40 95.96 131.92 96.65 Z M 132.51 97.42 L 133.10 98.21 C 133.61 98.90 134.59 99.04 135.28 98.53 C 135.97 98.01 136.11 97.03 135.60 96.34 L 135.01 95.55 C 134.49 94.86 133.51 94.72 132.82 95.24 C 132.13 95.75 131.99 96.73 132.51 97.42 Z M 133.09 98.21 L 133.69 99.02 C 134.21 99.71 135.18 99.85 135.88 99.34 C 136.57 98.83 136.72 97.85 136.20 97.16 L 135.60 96.35 C 135.09 95.66 134.11 95.51 133.42 96.02 C 132.73 96.54 132.58 97.51 133.09 98.21 Z M 133.69 99.01 L 134.29 99.83 C 134.80 100.53 135.78 100.68 136.47 100.17 C 137.17 99.66 137.32 98.68 136.81 97.99 L 136.21 97.16 C 135.70 96.47 134.72 96.32 134.02 96.83 C 133.33 97.34 133.18 98.32 133.69 99.01 Z M 134.29 99.83 L 134.88 100.64 C 135.39 101.34 136.36 101.49 137.06 100.98 C 137.76 100.48 137.91 99.50 137.40 98.80 L 136.81 97.99 C 136.31 97.30 135.33 97.14 134.63 97.65 C 133.94 98.16 133.78 99.13 134.29 99.83 Z M 134.87 100.63 L 135.45 101.43 C 135.95 102.13 136.93 102.29 137.63 101.78 C 138.33 101.28 138.49 100.30 137.98 99.61 L 137.41 98.81 C 136.90 98.11 135.93 97.95 135.23 98.45 C 134.53 98.96 134.37 99.93 134.87 100.63 Z M 135.44 101.42 L 136.02 102.23 C 136.52 102.93 137.49 103.10 138.20 102.60 C 138.90 102.10 139.06 101.12 138.56 100.42 L 137.99 99.61 C 137.49 98.91 136.51 98.75 135.81 99.25 C 135.11 99.75 134.94 100.72 135.44 101.42 Z M 136.01 102.22 L 136.59 103.05 C 137.09 103.75 138.06 103.92 138.77 103.43 C 139.47 102.93 139.64 101.96 139.15 101.25 L 138.57 100.43 C 138.07 99.72 137.10 99.55 136.39 100.05 C 135.69 100.54 135.52 101.52 136.01 102.22 Z M 136.58 103.04 L 137.17 103.88 C 137.66 104.59 138.63 104.77 139.34 104.28 C 140.05 103.79 140.23 102.82 139.74 102.11 L 139.15 101.26 C 138.66 100.55 137.69 100.38 136.98 100.87 C 136.27 101.36 136.09 102.33 136.58 103.04 Z M 137.16 103.87 L 137.70 104.67 C 138.19 105.39 139.16 105.57 139.87 105.09 C 140.59 104.60 140.77 103.63 140.29 102.92 L 139.74 102.12 C 139.26 101.40 138.29 101.22 137.58 101.70 C 136.86 102.19 136.68 103.16 137.16 103.87 Z M 137.70 104.66 L 138.24 105.47 C 138.72 106.19 139.68 106.38 140.40 105.91 C 141.12 105.43 141.31 104.46 140.84 103.74 L 140.29 102.93 C 139.82 102.21 138.85 102.02 138.13 102.50 C 137.41 102.97 137.22 103.94 137.70 104.66 Z M 138.23 105.46 L 138.77 106.29 C 139.24 107.02 140.21 107.22 140.93 106.75 C 141.66 106.28 141.86 105.31 141.39 104.59 L 140.84 103.75 C 140.37 103.03 139.41 102.83 138.68 103.30 C 137.96 103.77 137.76 104.74 138.23 105.46 Z M 138.76 106.28 L 139.31 107.14 C 139.77 107.87 140.74 108.08 141.47 107.62 C 142.19 107.15 142.41 106.19 141.94 105.46 L 141.40 104.60 C 140.93 103.88 139.97 103.66 139.24 104.12 C 138.51 104.59 138.30 105.55 138.76 106.28 Z M 139.30 107.12 L 139.85 108.00 C 140.30 108.74 141.26 108.96 142.00 108.51 C 142.73 108.05 142.96 107.09 142.50 106.36 L 141.95 105.48 C 141.50 104.74 140.54 104.52 139.80 104.97 C 139.07 105.43 138.85 106.39 139.30 107.12 Z M 139.84 107.99 L 140.34 108.82 C 140.79 109.56 141.75 109.79 142.48 109.35 C 143.22 108.90 143.46 107.94 143.01 107.20 L 142.51 106.37 C 142.06 105.64 141.10 105.40 140.37 105.84 C 139.63 106.29 139.39 107.25 139.84 107.99 Z M 140.33 108.80 L 140.82 109.64 C 141.26 110.38 142.22 110.63 142.96 110.19 C 143.70 109.75 143.95 108.79 143.51 108.05 L 143.02 107.22 C 142.58 106.48 141.63 106.23 140.88 106.67 C 140.14 107.10 139.89 108.06 140.33 108.80 Z M 140.81 109.62 L 141.30 110.48 C 141.73 111.22 142.69 111.48 143.44 111.05 C 144.18 110.62 144.44 109.67 144.01 108.92 L 143.52 108.07 C 143.09 107.32 142.14 107.06 141.39 107.49 C 140.64 107.92 140.38 108.87 140.81 109.62 Z M 141.30 110.46 L 141.79 111.34 C 142.21 112.09 143.16 112.36 143.91 111.94 C 144.67 111.52 144.93 110.56 144.51 109.81 L 144.02 108.93 C 143.60 108.18 142.65 107.91 141.89 108.34 C 141.14 108.76 140.87 109.71 141.30 110.46 Z M 141.78 111.33 L 142.28 112.23 C 142.69 112.99 143.64 113.26 144.40 112.85 C 145.15 112.44 145.43 111.49 145.01 110.73 L 144.52 109.83 C 144.10 109.07 143.16 108.79 142.40 109.21 C 141.64 109.62 141.37 110.57 141.78 111.33 Z M 142.27 112.22 L 142.76 113.14 C 143.17 113.90 144.12 114.19 144.88 113.78 C 145.64 113.37 145.92 112.43 145.52 111.67 L 145.02 110.74 C 144.61 109.98 143.67 109.70 142.91 110.10 C 142.15 110.51 141.86 111.46 142.27 112.22 Z M 142.76 113.13 L 143.20 113.97 C 143.60 114.74 144.54 115.03 145.31 114.63 C 146.07 114.23 146.37 113.29 145.97 112.52 L 145.52 111.68 C 145.12 110.91 144.18 110.62 143.41 111.02 C 142.65 111.42 142.36 112.36 142.76 113.13 Z M 143.19 113.96 L 143.64 114.83 C 144.03 115.59 144.97 115.90 145.74 115.50 C 146.51 115.11 146.81 114.17 146.42 113.40 L 145.97 112.53 C 145.58 111.77 144.64 111.47 143.87 111.86 C 143.10 112.25 142.80 113.19 143.19 113.96 Z M 143.63 114.81 L 144.08 115.70 C 144.46 116.47 145.40 116.78 146.17 116.40 C 146.94 116.01 147.25 115.07 146.87 114.30 L 146.42 113.41 C 146.04 112.64 145.10 112.33 144.33 112.72 C 143.56 113.11 143.25 114.04 143.63 114.81 Z M 144.07 115.69 L 144.51 116.59 C 144.89 117.37 145.83 117.69 146.60 117.31 C 147.38 116.93 147.70 115.99 147.32 115.22 L 146.87 114.31 C 146.50 113.54 145.56 113.22 144.79 113.60 C 144.01 113.98 143.69 114.91 144.07 115.69 Z M 144.51 116.58 L 144.95 117.50 C 145.32 118.28 146.25 118.61 147.03 118.24 C 147.81 117.87 148.14 116.94 147.77 116.16 L 147.32 115.23 C 146.95 114.46 146.02 114.13 145.24 114.50 C 144.47 114.87 144.14 115.80 144.51 116.58 Z M 144.94 117.49 L 145.38 118.43 C 145.74 119.21 146.67 119.55 147.45 119.19 C 148.23 118.82 148.57 117.90 148.21 117.11 L 147.77 116.17 C 147.41 115.39 146.48 115.05 145.70 115.41 C 144.92 115.78 144.58 116.70 144.94 117.49 Z M 145.37 118.41 L 145.77 119.31 C 146.13 120.10 147.05 120.45 147.84 120.10 C 148.63 119.74 148.98 118.82 148.62 118.03 L 148.22 117.13 C 147.86 116.34 146.94 115.99 146.15 116.35 C 145.37 116.70 145.02 117.62 145.37 118.41 Z M 145.77 119.30 L 146.15 120.18 C 146.50 120.97 147.42 121.33 148.21 120.99 C 149.00 120.64 149.36 119.72 149.02 118.93 L 148.63 118.05 C 148.28 117.26 147.36 116.90 146.57 117.24 C 145.78 117.59 145.42 118.51 145.77 119.30 Z M 146.15 120.17 L 146.53 121.07 C 146.87 121.86 147.79 122.23 148.58 121.89 C 149.37 121.55 149.74 120.63 149.40 119.84 L 149.02 118.94 C 148.68 118.15 147.77 117.78 146.97 118.12 C 146.18 118.46 145.81 119.38 146.15 120.17 Z M 146.53 121.05 L 146.91 121.97 C 147.24 122.76 148.15 123.14 148.95 122.81 C 149.75 122.48 150.12 121.56 149.79 120.77 L 149.41 119.85 C 149.08 119.06 148.16 118.68 147.37 119.01 C 146.57 119.34 146.20 120.26 146.53 121.05 Z M 146.90 121.96 L 147.28 122.89 C 147.61 123.69 148.52 124.07 149.32 123.75 C 150.12 123.42 150.50 122.51 150.17 121.71 L 149.79 120.78 C 149.47 119.98 148.56 119.60 147.76 119.92 C 146.96 120.25 146.58 121.16 146.90 121.96 Z M 147.28 122.88 L 147.66 123.83 C 147.98 124.63 148.89 125.02 149.69 124.70 C 150.49 124.38 150.88 123.47 150.56 122.67 L 150.18 121.72 C 149.86 120.92 148.95 120.53 148.15 120.85 C 147.35 121.17 146.96 122.08 147.28 122.88 Z M 147.66 123.82 L 148.04 124.79 C 148.35 125.59 149.26 125.99 150.06 125.67 C 150.86 125.36 151.26 124.45 150.94 123.65 L 150.56 122.68 C 150.25 121.88 149.34 121.48 148.54 121.80 C 147.74 122.11 147.34 123.02 147.66 123.82 Z M 148.03 124.78 L 148.40 125.73 C 148.71 126.54 149.62 126.94 150.42 126.63 C 151.22 126.32 151.62 125.41 151.31 124.61 L 150.94 123.66 C 150.63 122.85 149.73 122.45 148.93 122.76 C 148.12 123.07 147.72 123.98 148.03 124.78 Z M 148.40 125.73 L 148.75 126.66 C 149.06 127.47 149.96 127.87 150.77 127.56 C 151.58 127.26 151.98 126.35 151.67 125.55 L 151.32 124.61 C 151.01 123.81 150.11 123.41 149.30 123.71 C 148.50 124.02 148.09 124.92 148.40 125.73 Z M 148.75 126.66 L 149.11 127.60 C 149.41 128.41 150.31 128.82 151.12 128.51 C 151.93 128.21 152.33 127.31 152.03 126.50 L 151.67 125.56 C 151.37 124.75 150.47 124.34 149.66 124.64 C 148.86 124.95 148.45 125.85 148.75 126.66 Z M 149.11 127.59 L 149.46 128.54 C 149.76 129.35 150.66 129.76 151.46 129.46 C 152.27 129.16 152.69 128.27 152.39 127.46 L 152.03 126.51 C 151.73 125.70 150.83 125.29 150.03 125.59 C 149.22 125.89 148.81 126.79 149.11 127.59 Z M 149.46 128.54 L 149.80 129.49 C 150.10 130.30 151.00 130.71 151.81 130.42 C 152.61 130.12 153.03 129.23 152.74 128.42 L 152.39 127.46 C 152.09 126.66 151.20 126.24 150.39 126.53 C 149.58 126.83 149.16 127.73 149.46 128.54 Z M 149.80 129.48 L 150.14 130.43 C 150.43 131.24 151.33 131.66 152.14 131.37 C 152.95 131.07 153.37 130.18 153.08 129.37 L 152.74 128.42 C 152.45 127.61 151.55 127.19 150.74 127.48 C 149.93 127.77 149.51 128.67 149.80 129.48 Z M 150.14 130.42 L 150.47 131.36 C 150.76 132.17 151.65 132.59 152.46 132.31 C 153.27 132.02 153.70 131.13 153.41 130.31 L 153.08 129.38 C 152.79 128.56 151.90 128.14 151.09 128.43 C 150.28 128.71 149.85 129.61 150.14 130.42 Z M 150.47 131.35 L 150.79 132.27 C 151.07 133.08 151.96 133.51 152.77 133.23 C 153.59 132.95 154.02 132.06 153.74 131.24 L 153.42 130.32 C 153.13 129.51 152.24 129.08 151.43 129.36 C 150.61 129.64 150.18 130.53 150.47 131.35 Z M 150.78 132.26 L 151.12 133.25 C 151.40 134.07 152.28 134.51 153.10 134.23 C 153.92 133.95 154.35 133.07 154.08 132.25 L 153.74 131.25 C 153.46 130.44 152.58 130.00 151.76 130.28 C 150.94 130.56 150.51 131.44 150.78 132.26 Z M 151.12 133.24 L 151.44 134.23 C 151.72 135.05 152.60 135.49 153.42 135.22 C 154.24 134.95 154.68 134.06 154.41 133.25 L 154.08 132.26 C 153.81 131.44 152.93 131.00 152.11 131.27 C 151.29 131.54 150.85 132.42 151.12 133.24 Z M 151.44 134.22 L 151.75 135.18 C 152.02 136.00 152.90 136.45 153.72 136.19 C 154.54 135.92 154.99 135.04 154.72 134.22 L 154.41 133.26 C 154.15 132.44 153.27 131.99 152.45 132.25 C 151.63 132.52 151.18 133.40 151.44 134.22 Z M 151.75 135.17 L 152.05 136.12 C 152.31 136.94 153.18 137.40 154.01 137.14 C 154.83 136.88 155.29 136.01 155.03 135.18 L 154.73 134.23 C 154.47 133.41 153.59 132.96 152.77 133.21 C 151.95 133.47 151.49 134.35 151.75 135.17 Z M 152.04 136.11 L 152.33 137.04 C 152.58 137.87 153.46 138.33 154.28 138.08 C 155.11 137.83 155.57 136.95 155.32 136.13 L 155.03 135.19 C 154.78 134.37 153.90 133.91 153.08 134.16 C 152.25 134.41 151.79 135.29 152.04 136.11 Z M 152.33 137.03 L 152.60 137.96 C 152.85 138.78 153.72 139.25 154.55 139.01 C 155.37 138.76 155.84 137.89 155.60 137.06 L 155.32 136.14 C 155.07 135.31 154.20 134.84 153.38 135.09 C 152.55 135.34 152.08 136.21 152.33 137.03 Z M 152.60 137.95 L 152.87 138.86 C 153.11 139.69 153.97 140.17 154.80 139.93 C 155.63 139.69 156.11 138.82 155.87 137.99 L 155.60 137.07 C 155.36 136.25 154.49 135.77 153.66 136.01 C 152.84 136.25 152.36 137.12 152.60 137.95 Z M 152.86 138.85 L 153.14 139.84 C 153.38 140.67 154.24 141.15 155.07 140.92 C 155.90 140.68 156.38 139.82 156.15 138.99 L 155.87 138.00 C 155.63 137.17 154.77 136.69 153.94 136.93 C 153.11 137.16 152.63 138.02 152.86 138.85 Z M 153.14 139.83 L 153.41 140.81 C 153.64 141.65 154.50 142.13 155.33 141.90 C 156.16 141.67 156.65 140.81 156.42 139.98 L 156.15 139.00 C 155.92 138.17 155.06 137.68 154.23 137.91 C 153.40 138.14 152.91 139.00 153.14 139.83 Z M 153.41 140.81 L 153.67 141.78 C 153.90 142.61 154.76 143.10 155.59 142.88 C 156.42 142.65 156.91 141.80 156.69 140.96 L 156.42 139.99 C 156.20 139.16 155.34 138.67 154.51 138.89 C 153.68 139.12 153.19 139.97 153.41 140.81 Z M 153.67 141.77 L 153.93 142.74 C 154.15 143.57 155.01 144.07 155.84 143.84 C 156.67 143.62 157.17 142.77 156.95 141.93 L 156.69 140.97 C 156.47 140.14 155.61 139.64 154.78 139.86 C 153.95 140.09 153.45 140.94 153.67 141.77 Z M 153.93 142.73 L 154.18 143.68 C 154.40 144.52 155.25 145.02 156.08 144.80 C 156.92 144.58 157.42 143.72 157.20 142.89 L 156.95 141.94 C 156.73 141.10 155.87 140.61 155.04 140.83 C 154.21 141.04 153.71 141.90 153.93 142.73 Z M 154.18 143.68 L 154.42 144.62 C 154.64 145.46 155.49 145.96 156.33 145.74 C 157.16 145.52 157.66 144.67 157.44 143.83 L 157.20 142.89 C 156.98 142.06 156.13 141.56 155.29 141.78 C 154.46 142.00 153.96 142.85 154.18 143.68 Z M 154.42 144.62 L 154.68 145.62 C 154.90 146.45 155.75 146.95 156.59 146.73 C 157.42 146.51 157.92 145.66 157.70 144.83 L 157.44 143.83 C 157.23 143.00 156.37 142.50 155.54 142.72 C 154.70 142.93 154.20 143.79 154.42 144.62 Z M 154.68 145.62 L 154.94 146.62 C 155.16 147.45 156.02 147.95 156.85 147.73 C 157.68 147.51 158.18 146.66 157.97 145.83 L 157.70 144.83 C 157.49 143.99 156.63 143.49 155.80 143.71 C 154.96 143.93 154.46 144.78 154.68 145.62 Z M 154.94 146.62 L 155.20 147.60 C 155.42 148.43 156.28 148.93 157.11 148.71 C 157.94 148.49 158.44 147.64 158.22 146.81 L 157.96 145.82 C 157.75 144.99 156.89 144.49 156.06 144.71 C 155.22 144.93 154.73 145.78 154.94 146.62 Z M 155.20 147.60 L 155.46 148.56 C 155.68 149.39 156.53 149.89 157.36 149.67 C 158.20 149.45 158.70 148.60 158.48 147.76 L 158.22 146.80 C 158.00 145.97 157.15 145.47 156.31 145.69 C 155.48 145.91 154.98 146.77 155.20 147.60 Z M 155.46 148.56 L 155.71 149.50 C 155.93 150.34 156.78 150.83 157.62 150.61 C 158.45 150.39 158.95 149.53 158.72 148.70 L 158.47 147.76 C 158.25 146.93 157.40 146.43 156.57 146.65 C 155.73 146.88 155.24 147.73 155.46 148.56 Z M 155.71 149.51 L 155.95 150.43 C 156.18 151.26 157.03 151.75 157.87 151.53 C 158.70 151.31 159.19 150.45 158.97 149.62 L 158.72 148.70 C 158.50 147.86 157.64 147.37 156.81 147.59 C 155.98 147.82 155.48 148.67 155.71 149.51 Z M 155.96 150.43 L 156.23 151.45 C 156.46 152.29 157.32 152.78 158.15 152.55 C 158.98 152.33 159.47 151.47 159.25 150.64 L 158.97 149.61 C 158.74 148.78 157.89 148.29 157.05 148.52 C 156.22 148.74 155.73 149.60 155.96 150.43 Z M 156.23 151.46 L 156.51 152.45 C 156.73 153.28 157.59 153.77 158.42 153.54 C 159.25 153.31 159.74 152.46 159.52 151.62 L 159.24 150.63 C 159.02 149.80 158.16 149.31 157.33 149.54 C 156.50 149.77 156.01 150.63 156.23 151.46 Z M 156.51 152.45 L 156.77 153.41 C 157.00 154.25 157.86 154.73 158.69 154.50 C 159.52 154.27 160.01 153.41 159.78 152.58 L 159.52 151.62 C 159.29 150.79 158.43 150.30 157.59 150.53 C 156.76 150.76 156.28 151.62 156.51 152.45 Z M 156.77 153.42 L 157.03 154.35 C 157.27 155.18 158.13 155.67 158.96 155.43 C 159.79 155.20 160.27 154.34 160.04 153.51 L 159.78 152.58 C 159.55 151.75 158.69 151.26 157.86 151.49 C 157.03 151.73 156.54 152.59 156.77 153.42 Z M 157.04 154.35 L 157.29 155.26 C 157.53 156.09 158.39 156.57 159.22 156.34 C 160.05 156.11 160.53 155.24 160.30 154.41 L 160.04 153.51 C 159.81 152.68 158.94 152.19 158.11 152.43 C 157.28 152.66 156.80 153.52 157.04 154.35 Z M 157.29 155.27 L 157.56 156.19 C 157.79 157.02 158.66 157.50 159.49 157.26 C 160.32 157.02 160.80 156.16 160.56 155.33 L 160.29 154.41 C 160.06 153.58 159.19 153.10 158.36 153.34 C 157.54 153.57 157.06 154.44 157.29 155.27 Z M 157.56 156.20 L 157.83 157.12 C 158.07 157.94 158.94 158.42 159.77 158.17 C 160.60 157.93 161.07 157.06 160.82 156.23 L 160.55 155.32 C 160.31 154.49 159.44 154.02 158.62 154.26 C 157.79 154.50 157.32 155.37 157.56 156.20 Z M 157.84 157.13 L 158.13 158.07 C 158.38 158.90 159.25 159.36 160.08 159.10 C 160.90 158.85 161.36 157.98 161.11 157.15 L 160.82 156.21 C 160.56 155.39 159.69 154.93 158.87 155.18 C 158.04 155.44 157.58 156.31 157.84 157.13 Z M 158.13 158.10 L 158.45 159.08 C 158.72 159.90 159.60 160.35 160.42 160.08 C 161.24 159.81 161.69 158.93 161.42 158.11 L 161.10 157.13 C 160.83 156.31 159.95 155.86 159.13 156.13 C 158.31 156.40 157.87 157.28 158.13 158.10 Z M 158.46 159.11 L 158.81 160.11 C 159.09 160.93 159.98 161.36 160.80 161.08 C 161.61 160.80 162.04 159.91 161.76 159.09 L 161.41 158.09 C 161.13 157.27 160.24 156.84 159.43 157.12 C 158.61 157.40 158.18 158.29 158.46 159.11 Z M 158.82 160.14 L 159.17 161.09 C 159.46 161.90 160.36 162.31 161.17 162.02 C 161.98 161.72 162.40 160.82 162.10 160.01 L 161.75 159.07 C 161.46 158.26 160.56 157.84 159.75 158.14 C 158.94 158.43 158.52 159.33 158.82 160.14 Z M 159.18 161.12 L 159.55 162.09 C 159.87 162.89 160.77 163.29 161.57 162.98 C 162.38 162.66 162.78 161.76 162.46 160.95 L 162.09 159.98 C 161.78 159.18 160.87 158.78 160.07 159.09 C 159.26 159.41 158.87 160.31 159.18 161.12 Z M 159.57 162.12 L 159.97 163.08 C 160.30 163.88 161.22 164.25 162.01 163.92 C 162.81 163.59 163.18 162.67 162.85 161.88 L 162.45 160.92 C 162.12 160.12 161.20 159.75 160.41 160.08 C 159.61 160.41 159.24 161.33 159.57 162.12 Z M 159.99 163.13 L 160.41 164.04 C 160.77 164.83 161.69 165.17 162.48 164.82 C 163.26 164.46 163.61 163.53 163.25 162.75 L 162.83 161.83 C 162.47 161.05 161.55 160.70 160.76 161.06 C 159.98 161.42 159.63 162.34 159.99 163.13 Z M 160.44 164.11 L 160.87 164.95 C 161.26 165.72 162.21 166.02 162.97 165.63 C 163.74 165.23 164.04 164.29 163.65 163.52 L 163.22 162.68 C 162.83 161.92 161.88 161.61 161.12 162.01 C 160.35 162.40 160.05 163.34 160.44 164.11 Z M 160.93 165.05 L 161.51 166.00 C 161.96 166.74 162.92 166.97 163.66 166.52 C 164.39 166.07 164.62 165.11 164.17 164.37 L 163.59 163.42 C 163.14 162.69 162.18 162.45 161.45 162.90 C 160.71 163.35 160.48 164.32 160.93 165.05 Z M 161.62 166.16 L 162.28 167.00 C 162.82 167.67 163.80 167.79 164.48 167.25 C 165.15 166.71 165.27 165.73 164.73 165.06 L 164.07 164.22 C 163.53 163.54 162.55 163.43 161.87 163.96 C 161.20 164.50 161.08 165.48 161.62 166.16 Z M 162.45 167.18 L 163.14 167.81 C 163.77 168.39 164.76 168.35 165.35 167.72 C 165.93 167.08 165.89 166.09 165.25 165.51 L 164.56 164.88 C 163.93 164.29 162.94 164.33 162.36 164.97 C 161.77 165.60 161.81 166.59 162.45 167.18 Z M 163.36 167.98 L 164.09 168.44 C 164.81 168.90 165.78 168.69 166.24 167.96 C 166.70 167.23 166.49 166.26 165.76 165.80 L 165.03 165.34 C 164.30 164.88 163.34 165.10 162.88 165.82 C 162.42 166.55 162.63 167.52 163.36 167.98 Z M 164.34 168.57 L 165.24 168.93 C 166.04 169.25 166.95 168.86 167.27 168.06 C 167.59 167.26 167.21 166.35 166.40 166.03 L 165.50 165.67 C 164.70 165.35 163.79 165.74 163.47 166.54 C 163.15 167.34 163.54 168.25 164.34 168.57 Z M 165.47 169.00 L 166.43 169.23 C 167.27 169.43 168.11 168.91 168.31 168.07 C 168.51 167.23 167.99 166.39 167.15 166.19 L 166.18 165.96 C 165.34 165.76 164.50 166.28 164.30 167.12 C 164.11 167.96 164.63 168.80 165.47 169.00 Z M 166.56 169.25 L 167.56 169.40 C 168.41 169.53 169.20 168.94 169.33 168.09 C 169.46 167.23 168.87 166.44 168.02 166.31 L 167.02 166.17 C 166.17 166.04 165.37 166.63 165.25 167.48 C 165.12 168.33 165.71 169.13 166.56 169.25 Z M 167.59 169.41 L 167.89 169.44 C 168.74 169.55 169.53 168.95 169.63 168.09 C 169.74 167.24 169.13 166.45 168.28 166.35 L 167.98 166.31 C 167.13 166.20 166.35 166.81 166.24 167.66 C 166.13 168.52 166.74 169.30 167.59 169.41 Z"
      fill="black"
      fill-rule="nonzero" /><path d="M 213.64 88.52 L 213.18 87.61 C 212.79 86.84 211.85 86.53 211.08 86.92 C 210.31 87.31 210.00 88.25 210.39 89.01 L 210.85 89.93 C 211.24 90.70 212.18 91.01 212.95 90.62 C 213.72 90.23 214.03 89.29 213.64 88.52 Z M 213.16 87.57 L 212.68 86.68 C 212.27 85.92 211.33 85.64 210.57 86.05 C 209.81 86.45 209.52 87.40 209.93 88.16 L 210.41 89.05 C 210.82 89.81 211.76 90.09 212.52 89.69 C 213.28 89.28 213.57 88.33 213.16 87.57 Z M 212.64 86.61 L 212.13 85.77 C 211.68 85.03 210.72 84.80 209.98 85.25 C 209.25 85.70 209.01 86.66 209.46 87.39 L 209.97 88.23 C 210.42 88.97 211.38 89.20 212.12 88.75 C 212.85 88.31 213.09 87.35 212.64 86.61 Z M 212.05 85.65 L 211.41 84.80 C 210.90 84.11 209.92 83.96 209.23 84.48 C 208.54 84.99 208.39 85.97 208.91 86.66 L 209.54 87.51 C 210.06 88.21 211.04 88.35 211.73 87.83 C 212.42 87.32 212.56 86.34 212.05 85.65 Z M 211.22 84.58 L 210.45 83.87 C 209.81 83.29 208.83 83.33 208.24 83.97 C 207.66 84.60 207.70 85.59 208.33 86.17 L 209.10 86.88 C 209.74 87.46 210.73 87.42 211.31 86.79 C 211.89 86.15 211.85 85.16 211.22 84.58 Z M 209.92 83.55 L 209.09 83.26 C 208.28 82.97 207.39 83.39 207.10 84.20 C 206.81 85.01 207.23 85.91 208.04 86.20 L 208.87 86.49 C 209.68 86.78 210.57 86.36 210.86 85.55 C 211.15 84.74 210.73 83.84 209.92 83.55 Z M 208.16 83.22 L 207.42 83.42 C 206.58 83.64 206.09 84.50 206.31 85.33 C 206.53 86.16 207.39 86.66 208.22 86.44 L 208.97 86.24 C 209.80 86.01 210.30 85.16 210.07 84.32 C 209.85 83.49 209.00 83.00 208.16 83.22 Z M 206.87 83.69 L 206.14 84.25 C 205.46 84.78 205.33 85.76 205.86 86.44 C 206.39 87.12 207.37 87.25 208.05 86.72 L 208.77 86.16 C 209.46 85.64 209.58 84.65 209.06 83.97 C 208.53 83.29 207.55 83.16 206.87 83.69 Z M 205.92 84.46 L 205.19 85.29 C 204.62 85.94 204.69 86.92 205.34 87.49 C 205.99 88.06 206.97 87.99 207.54 87.35 L 208.27 86.52 C 208.84 85.87 208.77 84.88 208.13 84.31 C 207.48 83.74 206.49 83.81 205.92 84.46 Z M 205.10 85.41 L 204.43 86.33 C 203.93 87.03 204.09 88.01 204.79 88.51 C 205.49 89.01 206.47 88.85 206.97 88.15 L 207.63 87.23 C 208.14 86.53 207.98 85.55 207.28 85.05 C 206.58 84.55 205.60 84.71 205.10 85.41 Z M 204.39 86.40 L 203.84 87.25 C 203.37 87.97 203.58 88.94 204.30 89.41 C 205.03 89.88 205.99 89.67 206.46 88.94 L 207.01 88.09 C 207.48 87.37 207.27 86.40 206.55 85.93 C 205.82 85.46 204.86 85.67 204.39 86.40 Z M 203.81 87.29 L 203.28 88.17 C 202.83 88.91 203.07 89.87 203.81 90.31 C 204.54 90.76 205.50 90.52 205.95 89.79 L 206.49 88.91 C 206.93 88.17 206.70 87.21 205.96 86.76 C 205.22 86.32 204.26 86.55 203.81 87.29 Z M 203.27 88.19 L 202.76 89.06 C 202.33 89.81 202.58 90.76 203.32 91.20 C 204.07 91.63 205.02 91.38 205.46 90.64 L 205.96 89.76 C 206.40 89.02 206.15 88.06 205.40 87.63 C 204.66 87.19 203.70 87.45 203.27 88.19 Z M 202.76 89.07 L 202.28 89.89 C 201.85 90.64 202.11 91.60 202.86 92.03 C 203.60 92.46 204.56 92.20 204.99 91.45 L 205.46 90.63 C 205.89 89.88 205.63 88.93 204.89 88.50 C 204.14 88.07 203.19 88.32 202.76 89.07 Z M 202.28 89.89 L 201.85 90.64 C 201.42 91.38 201.67 92.34 202.42 92.77 C 203.17 93.20 204.12 92.95 204.55 92.20 L 204.98 91.46 C 205.42 90.71 205.16 89.75 204.42 89.32 C 203.67 88.89 202.71 89.14 202.28 89.89 Z M 201.85 90.64 L 201.42 91.39 C 200.99 92.14 201.24 93.09 201.99 93.52 C 202.74 93.95 203.69 93.70 204.12 92.95 L 204.55 92.20 C 204.98 91.45 204.73 90.50 203.98 90.07 C 203.23 89.64 202.28 89.89 201.85 90.64 Z M 201.41 91.40 L 200.94 92.24 C 200.51 92.99 200.78 93.94 201.53 94.36 C 202.28 94.79 203.23 94.52 203.66 93.77 L 204.13 92.94 C 204.55 92.19 204.29 91.23 203.54 90.81 C 202.79 90.39 201.83 90.65 201.41 91.40 Z M 200.93 92.25 L 200.38 93.26 C 199.96 94.01 200.24 94.96 200.99 95.38 C 201.75 95.79 202.70 95.52 203.11 94.76 L 203.66 93.76 C 204.08 93.00 203.80 92.05 203.05 91.64 C 202.29 91.22 201.34 91.50 200.93 92.25 Z M 200.37 93.27 L 199.85 94.24 C 199.44 95.00 199.73 95.95 200.49 96.35 C 201.25 96.76 202.19 96.48 202.60 95.72 L 203.12 94.75 C 203.53 93.99 203.24 93.04 202.48 92.63 C 201.72 92.23 200.78 92.51 200.37 93.27 Z M 199.84 94.25 L 199.40 95.08 C 199.00 95.85 199.29 96.79 200.05 97.19 C 200.81 97.60 201.76 97.31 202.16 96.54 L 202.60 95.71 C 203.01 94.94 202.72 94.00 201.95 93.60 C 201.19 93.19 200.25 93.49 199.84 94.25 Z M 199.40 95.09 L 198.93 95.99 C 198.53 96.75 198.82 97.70 199.59 98.10 C 200.35 98.50 201.29 98.20 201.69 97.44 L 202.17 96.54 C 202.57 95.77 202.27 94.83 201.51 94.43 C 200.74 94.03 199.80 94.33 199.40 95.09 Z M 198.93 95.99 L 198.44 96.93 C 198.04 97.70 198.34 98.64 199.10 99.04 C 199.87 99.44 200.81 99.14 201.21 98.37 L 201.70 97.44 C 202.09 96.67 201.80 95.73 201.03 95.33 C 200.27 94.93 199.32 95.23 198.93 95.99 Z M 198.44 96.93 L 197.94 97.88 C 197.55 98.65 197.85 99.59 198.61 99.99 C 199.38 100.38 200.32 100.08 200.72 99.32 L 201.21 98.37 C 201.60 97.60 201.31 96.66 200.54 96.27 C 199.77 95.87 198.83 96.17 198.44 96.93 Z M 197.94 97.89 L 197.46 98.82 C 197.07 99.58 197.37 100.53 198.13 100.92 C 198.90 101.32 199.84 101.02 200.24 100.25 L 200.72 99.32 C 201.11 98.55 200.81 97.61 200.05 97.21 C 199.28 96.82 198.34 97.12 197.94 97.89 Z M 197.46 98.82 L 197.00 99.71 C 196.61 100.48 196.91 101.42 197.68 101.81 C 198.45 102.21 199.39 101.90 199.78 101.14 L 200.24 100.25 C 200.63 99.48 200.33 98.54 199.56 98.14 C 198.80 97.75 197.86 98.05 197.46 98.82 Z M 197.00 99.71 L 196.57 100.55 C 196.18 101.32 196.48 102.26 197.25 102.65 C 198.02 103.05 198.96 102.74 199.35 101.98 L 199.78 101.13 C 200.18 100.37 199.87 99.43 199.10 99.03 C 198.34 98.64 197.40 98.94 197.00 99.71 Z M 196.57 100.55 L 195.99 101.70 C 195.60 102.47 195.90 103.41 196.67 103.80 C 197.44 104.19 198.38 103.89 198.77 103.12 L 199.35 101.97 C 199.75 101.21 199.44 100.27 198.67 99.87 C 197.90 99.48 196.96 99.79 196.57 100.55 Z M 195.99 101.70 L 195.50 102.65 C 195.11 103.42 195.42 104.36 196.19 104.75 C 196.95 105.14 197.89 104.84 198.29 104.07 L 198.77 103.12 C 199.16 102.35 198.86 101.41 198.09 101.02 C 197.32 100.63 196.38 100.93 195.99 101.70 Z M 195.50 102.65 L 195.09 103.46 C 194.70 104.23 195.00 105.17 195.77 105.56 C 196.53 105.96 197.48 105.65 197.87 104.89 L 198.28 104.07 C 198.68 103.30 198.37 102.36 197.61 101.97 C 196.84 101.58 195.90 101.88 195.50 102.65 Z M 195.09 103.46 L 194.71 104.19 C 194.31 104.95 194.61 105.90 195.38 106.29 C 196.14 106.69 197.09 106.39 197.48 105.63 L 197.86 104.89 C 198.26 104.13 197.96 103.18 197.20 102.79 C 196.43 102.39 195.49 102.69 195.09 103.46 Z M 194.72 104.18 L 194.31 104.94 C 193.91 105.70 194.20 106.65 194.96 107.05 C 195.72 107.46 196.67 107.17 197.07 106.40 L 197.48 105.64 C 197.88 104.88 197.59 103.93 196.83 103.53 C 196.07 103.12 195.12 103.41 194.72 104.18 Z M 194.32 104.93 L 193.86 105.78 C 193.45 106.54 193.73 107.48 194.49 107.89 C 195.25 108.30 196.20 108.02 196.61 107.26 L 197.06 106.42 C 197.48 105.66 197.19 104.71 196.44 104.30 C 195.68 103.89 194.73 104.17 194.32 104.93 Z M 193.86 105.77 L 193.39 106.64 C 192.97 107.40 193.25 108.35 194.01 108.76 C 194.77 109.18 195.71 108.90 196.13 108.14 L 196.60 107.27 C 197.02 106.51 196.74 105.56 195.98 105.15 C 195.22 104.74 194.28 105.02 193.86 105.77 Z M 193.39 106.65 L 192.89 107.56 C 192.48 108.31 192.76 109.26 193.52 109.67 C 194.28 110.08 195.22 109.80 195.63 109.05 L 196.13 108.14 C 196.54 107.38 196.26 106.43 195.50 106.02 C 194.74 105.61 193.80 105.89 193.39 106.65 Z M 192.89 107.56 L 192.41 108.45 C 192.00 109.21 192.29 110.16 193.05 110.57 C 193.81 110.97 194.76 110.69 195.16 109.93 L 195.64 109.04 C 196.05 108.28 195.76 107.33 195.00 106.92 C 194.24 106.52 193.29 106.80 192.89 107.56 Z M 192.41 108.46 L 191.95 109.33 C 191.54 110.09 191.84 111.04 192.60 111.44 C 193.36 111.84 194.31 111.55 194.71 110.79 L 195.17 109.92 C 195.57 109.16 195.28 108.21 194.52 107.81 C 193.75 107.41 192.81 107.70 192.41 108.46 Z M 191.95 109.33 L 191.48 110.22 C 191.08 110.99 191.37 111.93 192.13 112.33 C 192.90 112.73 193.84 112.44 194.24 111.68 L 194.71 110.79 C 195.11 110.02 194.82 109.08 194.05 108.68 C 193.29 108.28 192.35 108.57 191.95 109.33 Z M 191.48 110.22 L 191.00 111.12 C 190.60 111.89 190.90 112.83 191.66 113.23 C 192.42 113.63 193.37 113.34 193.77 112.58 L 194.24 111.68 C 194.64 110.91 194.35 109.97 193.59 109.57 C 192.82 109.17 191.88 109.46 191.48 110.22 Z M 191.01 111.12 L 190.53 112.02 C 190.13 112.78 190.42 113.72 191.18 114.13 C 191.94 114.53 192.89 114.24 193.29 113.48 L 193.77 112.58 C 194.17 111.82 193.88 110.88 193.12 110.47 C 192.36 110.07 191.41 110.36 191.01 111.12 Z M 190.54 112.01 L 190.06 112.89 C 189.66 113.65 189.94 114.59 190.70 115.00 C 191.46 115.41 192.40 115.13 192.81 114.37 L 193.29 113.49 C 193.69 112.73 193.41 111.78 192.65 111.37 C 191.89 110.97 190.94 111.25 190.54 112.01 Z M 190.07 112.88 L 189.59 113.75 C 189.18 114.50 189.46 115.45 190.21 115.87 C 190.97 116.28 191.92 116.00 192.33 115.25 L 192.81 114.38 C 193.22 113.62 192.94 112.67 192.19 112.26 C 191.43 111.84 190.48 112.12 190.07 112.88 Z M 189.60 113.73 L 189.11 114.60 C 188.69 115.36 188.96 116.31 189.71 116.73 C 190.47 117.15 191.42 116.88 191.84 116.13 L 192.32 115.26 C 192.74 114.51 192.48 113.55 191.72 113.13 C 190.97 112.71 190.02 112.98 189.60 113.73 Z M 189.12 114.59 L 188.62 115.47 C 188.19 116.21 188.45 117.17 189.20 117.60 C 189.95 118.02 190.90 117.76 191.33 117.01 L 191.83 116.14 C 192.26 115.39 192.00 114.44 191.25 114.01 C 190.50 113.58 189.55 113.84 189.12 114.59 Z M 188.63 115.45 L 188.13 116.30 C 187.70 117.05 187.95 118.00 188.69 118.44 C 189.44 118.87 190.39 118.62 190.83 117.88 L 191.32 117.03 C 191.76 116.28 191.51 115.33 190.76 114.89 C 190.02 114.46 189.06 114.71 188.63 115.45 Z M 188.14 116.29 L 187.64 117.13 C 187.20 117.87 187.44 118.83 188.18 119.27 C 188.92 119.71 189.88 119.47 190.32 118.73 L 190.82 117.89 C 191.26 117.15 191.02 116.19 190.28 115.75 C 189.54 115.31 188.58 115.55 188.14 116.29 Z M 187.65 117.12 L 187.13 117.97 C 186.68 118.70 186.91 119.66 187.65 120.11 C 188.39 120.56 189.35 120.33 189.80 119.59 L 190.31 118.74 C 190.76 118.00 190.53 117.04 189.79 116.59 C 189.06 116.15 188.09 116.38 187.65 117.12 Z M 187.14 117.95 L 186.60 118.81 C 186.15 119.55 186.37 120.51 187.11 120.96 C 187.84 121.42 188.80 121.19 189.25 120.46 L 189.79 119.60 C 190.24 118.87 190.02 117.91 189.29 117.45 C 188.55 117.00 187.59 117.22 187.14 117.95 Z M 186.61 118.80 L 186.06 119.68 C 185.60 120.40 185.81 121.37 186.54 121.83 C 187.27 122.29 188.24 122.07 188.70 121.34 L 189.25 120.47 C 189.71 119.74 189.49 118.78 188.76 118.32 C 188.03 117.86 187.07 118.07 186.61 118.80 Z M 186.06 119.66 L 185.53 120.50 C 185.06 121.22 185.27 122.19 186.00 122.66 C 186.72 123.12 187.69 122.91 188.15 122.19 L 188.69 121.35 C 189.16 120.63 188.95 119.66 188.22 119.20 C 187.50 118.73 186.53 118.94 186.06 119.66 Z M 185.53 120.49 L 184.99 121.32 C 184.52 122.04 184.73 123.01 185.45 123.48 C 186.17 123.95 187.14 123.75 187.61 123.02 L 188.15 122.20 C 188.62 121.47 188.42 120.51 187.69 120.04 C 186.97 119.56 186.01 119.77 185.53 120.49 Z M 185.00 121.31 L 184.45 122.14 C 183.97 122.86 184.17 123.83 184.89 124.31 C 185.61 124.78 186.58 124.58 187.05 123.86 L 187.60 123.03 C 188.08 122.31 187.88 121.34 187.16 120.87 C 186.44 120.39 185.47 120.59 185.00 121.31 Z M 184.45 122.14 L 183.89 122.97 C 183.41 123.69 183.60 124.66 184.32 125.14 C 185.04 125.62 186.01 125.43 186.49 124.71 L 187.05 123.87 C 187.53 123.16 187.33 122.19 186.62 121.71 C 185.90 121.23 184.93 121.42 184.45 122.14 Z M 183.90 122.97 L 183.33 123.81 C 182.84 124.52 183.03 125.49 183.75 125.98 C 184.46 126.46 185.43 126.27 185.91 125.56 L 186.48 124.72 C 186.97 124.00 186.78 123.03 186.06 122.55 C 185.35 122.07 184.38 122.25 183.90 122.97 Z M 183.33 123.80 L 182.77 124.63 C 182.28 125.34 182.47 126.31 183.18 126.80 C 183.89 127.29 184.86 127.10 185.35 126.39 L 185.91 125.56 C 186.40 124.85 186.21 123.88 185.50 123.39 C 184.79 122.91 183.82 123.09 183.33 123.80 Z M 182.77 124.63 L 182.21 125.44 C 181.72 126.15 181.90 127.12 182.61 127.61 C 183.32 128.10 184.29 127.92 184.78 127.21 L 185.34 126.39 C 185.83 125.68 185.65 124.71 184.94 124.22 C 184.23 123.74 183.26 123.92 182.77 124.63 Z M 182.21 125.44 L 181.65 126.25 C 181.15 126.96 181.33 127.94 182.04 128.43 C 182.75 128.92 183.72 128.74 184.21 128.03 L 184.78 127.22 C 185.27 126.51 185.09 125.54 184.39 125.04 C 183.68 124.55 182.70 124.73 182.21 125.44 Z M 181.65 126.25 L 181.08 127.07 C 180.58 127.77 180.75 128.75 181.46 129.24 C 182.16 129.74 183.14 129.57 183.63 128.86 L 184.21 128.04 C 184.70 127.33 184.53 126.36 183.82 125.87 C 183.12 125.37 182.14 125.54 181.65 126.25 Z M 181.08 127.06 L 180.50 127.89 C 180.00 128.59 180.17 129.56 180.87 130.06 C 181.57 130.56 182.55 130.39 183.05 129.69 L 183.63 128.87 C 184.13 128.16 183.96 127.19 183.26 126.69 C 182.55 126.19 181.58 126.36 181.08 127.06 Z M 180.50 127.88 L 179.92 128.70 C 179.42 129.40 179.58 130.37 180.28 130.88 C 180.98 131.38 181.96 131.21 182.46 130.51 L 183.04 129.69 C 183.54 128.99 183.38 128.02 182.68 127.52 C 181.98 127.02 181.00 127.18 180.50 127.88 Z M 179.92 128.69 L 179.35 129.48 C 178.85 130.18 179.00 131.16 179.70 131.66 C 180.40 132.17 181.38 132.01 181.88 131.31 L 182.45 130.52 C 182.96 129.82 182.80 128.84 182.10 128.34 C 181.40 127.83 180.43 127.99 179.92 128.69 Z M 179.36 129.48 L 178.78 130.27 C 178.27 130.97 178.42 131.95 179.12 132.45 C 179.81 132.96 180.79 132.81 181.30 132.11 L 181.88 131.32 C 182.39 130.62 182.23 129.64 181.54 129.13 C 180.84 128.63 179.86 128.78 179.36 129.48 Z M 178.78 130.26 L 178.19 131.07 C 177.68 131.76 177.82 132.74 178.52 133.25 C 179.21 133.76 180.19 133.61 180.70 132.92 L 181.29 132.12 C 181.80 131.43 181.66 130.45 180.96 129.94 C 180.27 129.42 179.29 129.57 178.78 130.26 Z M 178.19 131.06 L 177.59 131.87 C 177.07 132.56 177.21 133.53 177.90 134.05 C 178.59 134.57 179.57 134.43 180.09 133.74 L 180.69 132.93 C 181.21 132.24 181.07 131.26 180.38 130.74 C 179.69 130.23 178.71 130.37 178.19 131.06 Z M 177.60 131.86 L 176.98 132.67 C 176.45 133.36 176.59 134.34 177.28 134.86 C 177.96 135.38 178.94 135.25 179.46 134.56 L 180.08 133.75 C 180.60 133.06 180.47 132.08 179.78 131.56 C 179.10 131.04 178.12 131.17 177.60 131.86 Z M 176.98 132.66 L 176.36 133.47 C 175.83 134.15 175.96 135.13 176.64 135.66 C 177.33 136.19 178.31 136.06 178.83 135.38 L 179.46 134.57 C 179.98 133.89 179.86 132.91 179.17 132.38 C 178.49 131.85 177.51 131.98 176.98 132.66 Z M 176.37 133.46 L 175.74 134.26 C 175.21 134.94 175.33 135.92 176.01 136.45 C 176.69 136.98 177.67 136.86 178.20 136.19 L 178.83 135.39 C 179.36 134.71 179.24 133.73 178.56 133.20 C 177.88 132.66 176.90 132.78 176.37 133.46 Z M 175.75 134.25 L 175.12 135.05 C 174.58 135.72 174.69 136.70 175.37 137.24 C 176.04 137.78 177.02 137.66 177.56 136.99 L 178.19 136.19 C 178.73 135.52 178.62 134.54 177.94 134.00 C 177.27 133.46 176.29 133.58 175.75 134.25 Z M 175.12 135.04 L 174.49 135.82 C 173.95 136.49 174.05 137.48 174.72 138.02 C 175.39 138.56 176.38 138.46 176.92 137.78 L 177.55 137.00 C 178.10 136.33 177.99 135.34 177.32 134.80 C 176.65 134.26 175.67 134.37 175.12 135.04 Z M 174.50 135.81 L 173.87 136.58 C 173.32 137.25 173.42 138.24 174.08 138.78 C 174.75 139.33 175.73 139.23 176.28 138.56 L 176.91 137.79 C 177.46 137.13 177.36 136.14 176.69 135.60 C 176.03 135.05 175.04 135.15 174.50 135.81 Z M 173.87 136.58 L 173.25 137.32 C 172.70 137.99 172.79 138.97 173.45 139.52 C 174.11 140.07 175.10 139.98 175.65 139.32 L 176.27 138.57 C 176.82 137.91 176.73 136.93 176.07 136.37 C 175.41 135.82 174.42 135.91 173.87 136.58 Z M 173.26 137.31 L 172.59 138.10 C 172.03 138.76 172.11 139.75 172.77 140.30 C 173.43 140.86 174.41 140.78 174.97 140.12 L 175.64 139.33 C 176.20 138.67 176.12 137.69 175.46 137.13 C 174.80 136.57 173.82 136.66 173.26 137.31 Z M 172.60 138.09 L 171.92 138.88 C 171.36 139.53 171.43 140.52 172.08 141.08 C 172.74 141.64 173.72 141.57 174.29 140.92 L 174.96 140.13 C 175.53 139.48 175.45 138.49 174.80 137.93 C 174.15 137.37 173.16 137.44 172.60 138.09 Z M 171.93 138.87 L 171.27 139.62 C 170.70 140.27 170.76 141.26 171.41 141.82 C 172.06 142.39 173.05 142.33 173.62 141.68 L 174.28 140.93 C 174.85 140.28 174.78 139.29 174.13 138.72 C 173.49 138.15 172.50 138.22 171.93 138.87 Z M 171.28 139.61 L 170.63 140.34 C 170.05 140.99 170.11 141.97 170.75 142.55 C 171.40 143.12 172.39 143.06 172.96 142.42 L 173.61 141.69 C 174.18 141.04 174.12 140.06 173.48 139.48 C 172.84 138.91 171.85 138.97 171.28 139.61 Z M 170.63 140.34 L 169.99 141.05 C 169.42 141.69 169.47 142.68 170.11 143.25 C 170.75 143.83 171.74 143.78 172.31 143.14 L 172.95 142.43 C 173.53 141.78 173.48 140.80 172.84 140.22 C 172.20 139.64 171.21 139.70 170.63 140.34 Z M 170.00 141.04 L 169.33 141.78 C 168.75 142.42 168.79 143.41 169.43 143.99 C 170.07 144.57 171.06 144.52 171.64 143.88 L 172.31 143.14 C 172.89 142.50 172.84 141.52 172.20 140.94 C 171.56 140.36 170.58 140.40 170.00 141.04 Z M 169.33 141.78 L 168.64 142.53 C 168.06 143.17 168.10 144.15 168.74 144.74 C 169.38 145.32 170.36 145.27 170.95 144.64 L 171.63 143.88 C 172.22 143.25 172.17 142.26 171.54 141.68 C 170.90 141.10 169.91 141.14 169.33 141.78 Z M 168.64 142.53 L 167.96 143.27 C 167.38 143.90 167.42 144.89 168.05 145.47 C 168.69 146.06 169.68 146.02 170.26 145.38 L 170.94 144.64 C 171.53 144.01 171.48 143.02 170.85 142.44 C 170.22 141.85 169.23 141.89 168.64 142.53 Z M 167.97 143.26 L 167.30 143.99 C 166.71 144.62 166.75 145.61 167.38 146.19 C 168.01 146.78 169.00 146.74 169.58 146.11 L 170.26 145.39 C 170.84 144.75 170.81 143.77 170.17 143.18 C 169.54 142.59 168.55 142.63 167.97 143.26 Z M 167.30 143.98 L 166.64 144.69 C 166.05 145.32 166.08 146.31 166.71 146.90 C 167.34 147.49 168.33 147.45 168.92 146.82 L 169.58 146.11 C 170.17 145.48 170.14 144.50 169.51 143.91 C 168.88 143.32 167.89 143.35 167.30 143.98 Z M 166.64 144.69 L 165.94 145.43 C 165.35 146.06 165.38 147.05 166.01 147.64 C 166.63 148.23 167.62 148.20 168.21 147.57 L 168.92 146.83 C 169.51 146.20 169.48 145.21 168.85 144.62 C 168.22 144.03 167.23 144.06 166.64 144.69 Z M 165.94 145.43 L 165.25 146.17 C 164.65 146.80 164.68 147.78 165.31 148.38 C 165.94 148.97 166.93 148.94 167.52 148.31 L 168.21 147.57 C 168.80 146.95 168.77 145.96 168.15 145.37 C 167.52 144.78 166.53 144.81 165.94 145.43 Z M 165.24 146.17 L 164.56 146.89 C 163.97 147.52 164.01 148.51 164.63 149.10 C 165.26 149.69 166.25 149.66 166.84 149.03 L 167.52 148.31 C 168.11 147.68 168.08 146.69 167.45 146.10 C 166.82 145.51 165.83 145.54 165.24 146.17 Z M 164.56 146.90 L 163.89 147.62 C 163.31 148.25 163.34 149.24 163.98 149.82 C 164.61 150.41 165.60 150.37 166.18 149.74 L 166.85 149.02 C 167.43 148.39 167.40 147.40 166.76 146.82 C 166.13 146.23 165.14 146.27 164.56 146.90 Z M 163.88 147.63 L 163.20 148.38 C 162.62 149.01 162.67 150.00 163.31 150.58 C 163.95 151.16 164.93 151.11 165.51 150.48 L 166.19 149.73 C 166.77 149.09 166.73 148.10 166.09 147.52 C 165.45 146.94 164.46 146.99 163.88 147.63 Z M 163.19 148.39 L 162.52 149.15 C 161.94 149.80 162.00 150.78 162.65 151.36 C 163.30 151.93 164.28 151.87 164.85 151.22 L 165.53 150.46 C 166.10 149.82 166.04 148.83 165.39 148.26 C 164.75 147.69 163.76 147.75 163.19 148.39 Z M 162.50 149.17 L 161.85 149.93 C 161.29 150.58 161.36 151.57 162.02 152.13 C 162.67 152.69 163.66 152.62 164.22 151.96 L 164.87 151.20 C 165.43 150.55 165.36 149.56 164.70 149.00 C 164.05 148.44 163.06 148.52 162.50 149.17 Z M 161.83 149.95 L 161.21 150.70 C 160.66 151.37 160.75 152.35 161.41 152.90 C 162.08 153.45 163.06 153.36 163.61 152.69 L 164.24 151.94 C 164.79 151.28 164.69 150.29 164.03 149.74 C 163.37 149.19 162.38 149.29 161.83 149.95 Z M 161.19 150.73 L 160.57 151.51 C 160.03 152.19 160.14 153.17 160.82 153.70 C 161.49 154.24 162.48 154.13 163.01 153.45 L 163.63 152.67 C 164.17 151.99 164.06 151.01 163.38 150.48 C 162.71 149.94 161.72 150.05 161.19 150.73 Z M 160.55 151.54 L 159.94 152.34 C 159.42 153.02 159.55 154.00 160.24 154.52 C 160.93 155.04 161.91 154.91 162.43 154.22 L 163.03 153.43 C 163.55 152.74 163.42 151.76 162.73 151.24 C 162.05 150.72 161.07 150.85 160.55 151.54 Z M 159.92 152.36 L 159.34 153.16 C 158.83 153.86 158.98 154.83 159.68 155.34 C 160.38 155.85 161.35 155.70 161.86 155.00 L 162.45 154.20 C 162.95 153.50 162.80 152.53 162.10 152.02 C 161.41 151.51 160.43 151.66 159.92 152.36 Z M 159.32 153.18 L 158.75 153.99 C 158.25 154.70 158.42 155.67 159.13 156.17 C 159.83 156.67 160.80 156.50 161.30 155.79 L 161.88 154.98 C 162.37 154.28 162.20 153.30 161.50 152.80 C 160.80 152.31 159.82 152.48 159.32 153.18 Z M 158.74 154.01 L 158.21 154.78 C 157.73 155.49 157.91 156.46 158.62 156.95 C 159.33 157.43 160.31 157.25 160.79 156.54 L 161.32 155.77 C 161.80 155.06 161.62 154.09 160.91 153.60 C 160.20 153.12 159.22 153.30 158.74 154.01 Z M 158.19 154.82 L 157.67 155.62 C 157.21 156.35 157.42 157.32 158.15 157.78 C 158.88 158.24 159.84 158.03 160.31 157.30 L 160.82 156.50 C 161.28 155.77 161.07 154.80 160.34 154.34 C 159.62 153.88 158.65 154.09 158.19 154.82 Z M 157.63 155.69 L 157.14 156.57 C 156.71 157.32 156.97 158.27 157.72 158.70 C 158.47 159.12 159.43 158.86 159.85 158.11 L 160.35 157.23 C 160.77 156.48 160.51 155.53 159.76 155.10 C 159.01 154.68 158.06 154.94 157.63 155.69 Z M 157.09 156.66 L 156.61 157.64 C 156.24 158.42 156.56 159.35 157.34 159.73 C 158.12 160.10 159.05 159.78 159.42 159.00 L 159.90 158.02 C 160.27 157.24 159.95 156.31 159.17 155.93 C 158.40 155.56 157.46 155.88 157.09 156.66 Z M 156.57 157.73 L 156.19 158.66 C 155.87 159.46 156.25 160.37 157.05 160.70 C 157.85 161.02 158.76 160.64 159.09 159.84 L 159.46 158.91 C 159.79 158.11 159.41 157.20 158.61 156.88 C 157.81 156.55 156.90 156.93 156.57 157.73 Z M 156.17 158.73 L 155.83 159.70 C 155.54 160.51 155.97 161.41 156.78 161.69 C 157.59 161.98 158.49 161.55 158.77 160.74 L 159.11 159.77 C 159.40 158.96 158.97 158.07 158.16 157.78 C 157.35 157.49 156.45 157.92 156.17 158.73 Z M 155.81 159.76 L 155.50 160.75 C 155.25 161.57 155.71 162.45 156.53 162.70 C 157.35 162.96 158.23 162.49 158.48 161.67 L 158.79 160.68 C 159.05 159.86 158.58 158.98 157.76 158.73 C 156.94 158.47 156.06 158.93 155.81 159.76 Z M 155.49 160.80 L 155.22 161.77 C 154.99 162.61 155.49 163.46 156.32 163.69 C 157.15 163.92 158.01 163.43 158.23 162.59 L 158.50 161.62 C 158.73 160.79 158.24 159.93 157.40 159.70 C 156.57 159.48 155.71 159.97 155.49 160.80 Z M 155.21 161.82 L 154.99 162.75 C 154.79 163.58 155.31 164.43 156.15 164.62 C 156.99 164.82 157.83 164.30 158.03 163.46 L 158.25 162.54 C 158.45 161.70 157.93 160.86 157.09 160.66 C 156.25 160.47 155.41 160.99 155.21 161.82 Z M 154.98 162.81 L 154.77 163.91 C 154.61 164.76 155.16 165.57 156.01 165.73 C 156.86 165.90 157.67 165.34 157.84 164.49 L 158.04 163.40 C 158.21 162.55 157.65 161.73 156.80 161.57 C 155.96 161.41 155.14 161.96 154.98 162.81 Z M 154.75 163.99 L 154.62 164.99 C 154.51 165.84 155.11 166.63 155.96 166.74 C 156.82 166.86 157.60 166.26 157.72 165.40 L 157.85 164.41 C 157.96 163.55 157.36 162.77 156.51 162.65 C 155.65 162.54 154.87 163.14 154.75 163.99 Z M 154.61 165.07 L 154.54 166.00 C 154.47 166.85 155.10 167.61 155.96 167.68 C 156.82 167.75 157.58 167.11 157.65 166.25 L 157.72 165.32 C 157.79 164.46 157.16 163.71 156.30 163.64 C 155.44 163.57 154.68 164.21 154.61 165.07 Z M 154.53 166.05 L 154.49 166.98 C 154.45 167.84 155.12 168.57 155.98 168.61 C 156.84 168.65 157.57 167.98 157.61 167.12 L 157.65 166.19 C 157.69 165.33 157.02 164.60 156.16 164.56 C 155.30 164.53 154.57 165.19 154.53 166.05 Z M 154.49 167.02 L 154.47 167.99 C 154.45 168.85 155.13 169.57 155.99 169.59 C 156.85 169.61 157.57 168.93 157.59 168.06 L 157.61 167.09 C 157.63 166.23 156.95 165.51 156.09 165.49 C 155.22 165.47 154.51 166.15 154.49 167.02 Z M 154.47 168.01 L 154.46 169.01 C 154.45 169.88 155.14 170.58 156.00 170.59 C 156.87 170.60 157.57 169.91 157.58 169.04 L 157.59 168.04 C 157.60 167.18 156.90 166.47 156.04 166.47 C 155.18 166.46 154.47 167.15 154.47 168.01 Z M 154.46 169.03 L 154.45 170.05 C 154.45 170.91 155.15 171.61 156.01 171.62 C 156.88 171.62 157.58 170.92 157.58 170.06 L 157.58 169.03 C 157.58 168.17 156.88 167.47 156.02 167.47 C 155.16 167.47 154.46 168.16 154.46 169.03 Z M 154.45 170.06 L 154.45 171.03 C 154.45 171.89 155.15 172.59 156.02 172.59 C 156.88 172.59 157.58 171.89 157.58 171.03 L 157.58 170.06 C 157.58 169.19 156.88 168.49 156.02 168.49 C 155.15 168.49 154.45 169.19 154.45 170.06 Z M 154.45 171.03 L 154.46 172.00 C 154.46 172.86 155.16 173.56 156.02 173.56 C 156.88 173.55 157.58 172.85 157.58 171.99 L 157.58 171.02 C 157.58 170.16 156.88 169.46 156.01 169.46 C 155.15 169.47 154.45 170.17 154.45 171.03 Z M 154.46 172.00 L 154.46 173.01 C 154.47 173.87 155.17 174.56 156.03 174.56 C 156.89 174.55 157.59 173.85 157.58 172.99 L 157.58 171.99 C 157.57 171.12 156.87 170.43 156.01 170.43 C 155.15 170.44 154.45 171.14 154.46 172.00 Z M 154.46 173.01 L 154.47 174.06 C 154.48 174.93 155.19 175.62 156.05 175.61 C 156.91 175.60 157.60 174.89 157.60 174.03 L 157.58 172.98 C 157.58 172.12 156.87 171.43 156.01 171.44 C 155.14 171.45 154.45 172.15 154.46 173.01 Z M 154.47 174.07 L 154.49 175.07 C 154.51 175.94 155.22 176.62 156.08 176.61 C 156.94 176.59 157.63 175.88 157.61 175.02 L 157.60 174.02 C 157.58 173.16 156.87 172.47 156.01 172.49 C 155.15 172.50 154.46 173.21 154.47 174.07 Z M 154.49 175.09 L 154.52 176.09 C 154.54 176.95 155.26 177.63 156.12 177.61 C 156.98 177.59 157.66 176.87 157.64 176.01 L 157.61 175.00 C 157.59 174.14 156.87 173.46 156.01 173.49 C 155.15 173.51 154.47 174.23 154.49 175.09 Z M 154.52 176.11 L 154.56 177.13 C 154.60 177.99 155.32 178.66 156.18 178.62 C 157.05 178.59 157.72 177.86 157.68 177.00 L 157.64 175.99 C 157.60 175.12 156.88 174.45 156.02 174.49 C 155.15 174.52 154.48 175.25 154.52 176.11 Z M 154.56 177.16 L 154.62 178.16 C 154.67 179.02 155.41 179.68 156.27 179.63 C 157.13 179.58 157.79 178.84 157.74 177.98 L 157.68 176.97 C 157.63 176.11 156.89 175.45 156.03 175.50 C 155.17 175.56 154.51 176.29 154.56 177.16 Z M 154.62 178.20 L 154.71 179.20 C 154.78 180.06 155.54 180.70 156.40 180.63 C 157.26 180.55 157.89 179.80 157.82 178.94 L 157.74 177.94 C 157.66 177.08 156.91 176.44 156.05 176.51 C 155.19 176.59 154.55 177.34 154.62 178.20 Z M 154.71 179.25 L 154.83 180.27 C 154.93 181.12 155.71 181.74 156.56 181.64 C 157.42 181.54 158.03 180.76 157.93 179.91 L 157.82 178.89 C 157.72 178.04 156.94 177.42 156.09 177.52 C 155.23 177.62 154.62 178.40 154.71 179.25 Z M 154.84 180.31 L 154.98 181.30 C 155.11 182.15 155.90 182.74 156.75 182.62 C 157.60 182.49 158.20 181.70 158.07 180.85 L 157.93 179.86 C 157.80 179.01 157.01 178.42 156.16 178.54 C 155.31 178.67 154.71 179.46 154.84 180.31 Z M 154.99 181.34 L 155.15 182.31 C 155.30 183.16 156.10 183.73 156.95 183.58 C 157.80 183.44 158.38 182.63 158.23 181.78 L 158.07 180.81 C 157.92 179.96 157.11 179.39 156.26 179.53 C 155.41 179.68 154.84 180.49 154.99 181.34 Z M 155.16 182.33 L 155.34 183.30 C 155.50 184.15 156.32 184.70 157.17 184.54 C 158.01 184.38 158.57 183.56 158.41 182.72 L 158.23 181.75 C 158.06 180.90 157.25 180.35 156.40 180.51 C 155.55 180.67 155.00 181.49 155.16 182.33 Z M 155.35 183.32 L 155.54 184.29 C 155.72 185.13 156.54 185.68 157.39 185.50 C 158.23 185.33 158.78 184.51 158.60 183.66 L 158.40 182.70 C 158.23 181.85 157.41 181.31 156.56 181.48 C 155.72 181.65 155.17 182.48 155.35 183.32 Z M 155.55 184.30 L 155.76 185.28 C 155.94 186.12 156.77 186.65 157.61 186.47 C 158.46 186.29 158.99 185.46 158.81 184.62 L 158.60 183.64 C 158.42 182.80 157.59 182.27 156.74 182.45 C 155.90 182.63 155.36 183.46 155.55 184.30 Z M 155.76 185.29 L 155.98 186.27 C 156.17 187.11 157.01 187.64 157.85 187.45 C 158.69 187.26 159.22 186.42 159.03 185.58 L 158.81 184.60 C 158.62 183.76 157.78 183.23 156.94 183.42 C 156.10 183.61 155.57 184.45 155.76 185.29 Z M 155.99 186.28 L 156.22 187.27 C 156.41 188.11 157.25 188.63 158.09 188.43 C 158.93 188.24 159.45 187.40 159.26 186.56 L 159.03 185.57 C 158.83 184.73 157.99 184.21 157.15 184.41 C 156.31 184.60 155.79 185.44 155.99 186.28 Z M 156.22 187.28 L 156.45 188.25 C 156.65 189.08 157.49 189.60 158.33 189.40 C 159.17 189.20 159.69 188.35 159.49 187.52 L 159.25 186.55 C 159.05 185.71 158.21 185.19 157.37 185.40 C 156.53 185.60 156.02 186.44 156.22 187.28 Z M 156.45 188.25 L 156.69 189.22 C 156.89 190.06 157.74 190.57 158.58 190.37 C 159.41 190.16 159.93 189.32 159.72 188.48 L 159.49 187.51 C 159.28 186.67 158.44 186.16 157.60 186.36 C 156.76 186.57 156.25 187.41 156.45 188.25 Z M 156.69 189.23 L 156.93 190.20 C 157.14 191.03 157.98 191.55 158.82 191.34 C 159.66 191.13 160.17 190.28 159.96 189.45 L 159.72 188.47 C 159.51 187.64 158.67 187.13 157.83 187.33 C 156.99 187.54 156.48 188.39 156.69 189.23 Z M 156.93 190.20 L 157.17 191.18 C 157.38 192.01 158.23 192.52 159.07 192.31 C 159.90 192.10 160.41 191.26 160.20 190.42 L 159.96 189.45 C 159.75 188.61 158.91 188.10 158.07 188.31 C 157.23 188.52 156.72 189.36 156.93 190.20 Z M 157.17 191.18 L 157.42 192.15 C 157.63 192.99 158.47 193.50 159.31 193.29 C 160.15 193.08 160.66 192.23 160.45 191.39 L 160.20 190.42 C 160.00 189.58 159.15 189.07 158.31 189.28 C 157.47 189.49 156.97 190.34 157.17 191.18 Z M 157.42 192.15 L 157.66 193.12 C 157.87 193.96 158.72 194.47 159.55 194.26 C 160.39 194.05 160.90 193.20 160.69 192.37 L 160.45 191.39 C 160.24 190.56 159.39 190.05 158.56 190.26 C 157.72 190.47 157.21 191.31 157.42 192.15 Z M 157.66 193.12 L 157.90 194.09 C 158.10 194.93 158.95 195.44 159.79 195.23 C 160.62 195.02 161.14 194.18 160.93 193.34 L 160.69 192.37 C 160.48 191.53 159.64 191.02 158.80 191.23 C 157.96 191.43 157.45 192.28 157.66 193.12 Z M 157.90 194.08 L 158.13 195.05 C 158.34 195.89 159.18 196.41 160.02 196.20 C 160.85 196.00 161.37 195.16 161.17 194.32 L 160.93 193.35 C 160.73 192.51 159.88 191.99 159.05 192.20 C 158.21 192.40 157.69 193.24 157.90 194.08 Z M 158.13 195.05 L 158.36 196.01 C 158.56 196.85 159.40 197.37 160.24 197.17 C 161.08 196.97 161.60 196.13 161.40 195.29 L 161.17 194.33 C 160.97 193.49 160.13 192.97 159.29 193.17 C 158.45 193.36 157.93 194.21 158.13 195.05 Z M 158.36 196.00 L 158.57 196.95 C 158.77 197.79 159.61 198.32 160.45 198.12 C 161.29 197.93 161.81 197.09 161.62 196.25 L 161.40 195.30 C 161.21 194.46 160.37 193.94 159.53 194.13 C 158.69 194.32 158.16 195.16 158.36 196.00 Z M 158.57 196.95 L 158.79 197.90 C 158.98 198.74 159.82 199.27 160.66 199.08 C 161.50 198.89 162.03 198.06 161.84 197.21 L 161.62 196.26 C 161.43 195.42 160.59 194.89 159.75 195.08 C 158.91 195.27 158.38 196.10 158.57 196.95 Z M 158.79 197.90 L 159.01 198.88 C 159.20 199.72 160.03 200.25 160.88 200.06 C 161.72 199.87 162.25 199.03 162.06 198.19 L 161.84 197.22 C 161.65 196.38 160.81 195.85 159.97 196.04 C 159.13 196.22 158.60 197.06 158.79 197.90 Z M 159.01 198.88 L 159.24 199.89 C 159.43 200.73 160.26 201.25 161.10 201.06 C 161.95 200.87 162.47 200.04 162.28 199.20 L 162.06 198.19 C 161.87 197.35 161.03 196.82 160.19 197.01 C 159.35 197.20 158.82 198.04 159.01 198.88 Z M 159.24 199.89 L 159.46 200.87 C 159.66 201.71 160.49 202.24 161.33 202.04 C 162.17 201.85 162.70 201.01 162.51 200.17 L 162.28 199.19 C 162.09 198.35 161.25 197.83 160.41 198.02 C 159.57 198.21 159.05 199.05 159.24 199.89 Z M 159.46 200.87 L 159.69 201.85 C 159.88 202.69 160.72 203.21 161.56 203.02 C 162.40 202.83 162.93 201.99 162.73 201.15 L 162.51 200.17 C 162.31 199.33 161.47 198.81 160.63 199.00 C 159.79 199.19 159.27 200.03 159.46 200.87 Z M 159.69 201.85 L 159.92 202.84 C 160.11 203.68 160.95 204.20 161.79 204.01 C 162.63 203.82 163.15 202.98 162.96 202.14 L 162.73 201.15 C 162.54 200.31 161.70 199.78 160.86 199.98 C 160.02 200.17 159.50 201.01 159.69 201.85 Z M 159.91 202.83 L 160.14 203.82 C 160.33 204.66 161.16 205.18 162.01 204.99 C 162.85 204.80 163.37 203.97 163.18 203.13 L 162.96 202.14 C 162.77 201.30 161.93 200.77 161.09 200.96 C 160.25 201.15 159.72 201.99 159.91 202.83 Z M 160.14 203.81 L 160.35 204.78 C 160.53 205.62 161.37 206.15 162.21 205.96 C 163.05 205.78 163.58 204.95 163.40 204.10 L 163.19 203.14 C 163.00 202.29 162.17 201.76 161.32 201.95 C 160.48 202.13 159.95 202.97 160.14 203.81 Z M 160.35 204.76 L 160.56 205.77 C 160.74 206.61 161.56 207.15 162.41 206.97 C 163.25 206.79 163.79 205.97 163.61 205.12 L 163.40 204.12 C 163.22 203.27 162.39 202.73 161.55 202.91 C 160.71 203.09 160.17 203.92 160.35 204.76 Z M 160.56 205.75 L 160.76 206.75 C 160.93 207.59 161.75 208.14 162.59 207.97 C 163.44 207.80 163.99 206.98 163.82 206.13 L 163.62 205.14 C 163.45 204.29 162.62 203.74 161.78 203.92 C 160.93 204.09 160.39 204.91 160.56 205.75 Z M 160.75 206.74 L 160.94 207.71 C 161.11 208.55 161.92 209.11 162.77 208.94 C 163.62 208.78 164.17 207.96 164.01 207.11 L 163.82 206.14 C 163.66 205.30 162.84 204.74 161.99 204.91 C 161.14 205.07 160.59 205.89 160.75 206.74 Z M 160.94 207.70 L 161.12 208.66 C 161.28 209.51 162.10 210.07 162.94 209.91 C 163.79 209.75 164.35 208.93 164.19 208.08 L 164.01 207.12 C 163.85 206.28 163.03 205.72 162.19 205.88 C 161.34 206.04 160.78 206.85 160.94 207.70 Z M 161.12 208.66 L 161.30 209.62 C 161.46 210.47 162.27 211.03 163.12 210.87 C 163.97 210.71 164.53 209.90 164.37 209.05 L 164.19 208.09 C 164.03 207.24 163.22 206.68 162.37 206.84 C 161.52 206.99 160.96 207.81 161.12 208.66 Z M 161.30 209.62 L 161.48 210.59 C 161.63 211.44 162.45 212.00 163.29 211.85 C 164.14 211.69 164.70 210.88 164.55 210.03 L 164.37 209.05 C 164.21 208.21 163.40 207.64 162.55 207.80 C 161.70 207.96 161.14 208.77 161.30 209.62 Z M 161.48 210.59 L 161.66 211.57 C 161.81 212.42 162.62 212.98 163.47 212.83 C 164.32 212.67 164.88 211.86 164.73 211.01 L 164.55 210.03 C 164.39 209.18 163.58 208.62 162.73 208.77 C 161.88 208.93 161.32 209.74 161.48 210.59 Z M 161.65 211.57 L 161.83 212.56 C 161.99 213.41 162.80 213.97 163.65 213.82 C 164.50 213.66 165.06 212.85 164.91 212.00 L 164.73 211.01 C 164.57 210.16 163.76 209.60 162.91 209.76 C 162.06 209.91 161.50 210.72 161.65 211.57 Z M 161.83 212.56 L 162.01 213.55 C 162.16 214.40 162.98 214.96 163.83 214.81 C 164.67 214.66 165.24 213.85 165.09 213.00 L 164.91 212.00 C 164.75 211.15 163.94 210.59 163.09 210.74 C 162.25 210.90 161.68 211.71 161.83 212.56 Z M 162.01 213.55 L 162.19 214.54 C 162.34 215.39 163.15 215.95 164.00 215.80 C 164.85 215.65 165.41 214.84 165.26 213.99 L 165.09 213.00 C 164.93 212.15 164.12 211.59 163.27 211.74 C 162.43 211.89 161.86 212.70 162.01 213.55 Z M 162.19 214.53 L 162.36 215.52 C 162.51 216.37 163.32 216.94 164.17 216.79 C 165.02 216.64 165.59 215.83 165.44 214.98 L 165.26 213.99 C 165.11 213.14 164.30 212.58 163.45 212.73 C 162.60 212.88 162.04 213.69 162.19 214.53 Z M 162.36 215.52 L 162.53 216.51 C 162.68 217.36 163.49 217.93 164.34 217.78 C 165.19 217.63 165.76 216.82 165.61 215.97 L 165.44 214.98 C 165.29 214.14 164.48 213.57 163.63 213.71 C 162.78 213.86 162.21 214.67 162.36 215.52 Z M 162.53 216.50 L 162.70 217.49 C 162.85 218.34 163.65 218.91 164.50 218.76 C 165.35 218.62 165.93 217.81 165.78 216.96 L 165.61 215.98 C 165.47 215.13 164.66 214.56 163.81 214.70 C 162.96 214.85 162.39 215.65 162.53 216.50 Z M 162.70 217.48 L 162.87 218.47 C 163.01 219.32 163.81 219.89 164.66 219.75 C 165.51 219.61 166.09 218.80 165.95 217.95 L 165.78 216.97 C 165.64 216.12 164.83 215.54 163.98 215.68 C 163.13 215.83 162.56 216.63 162.70 217.48 Z M 162.87 218.46 L 163.03 219.47 C 163.17 220.32 163.97 220.90 164.82 220.76 C 165.67 220.62 166.25 219.82 166.11 218.97 L 165.95 217.96 C 165.81 217.11 165.01 216.53 164.15 216.67 C 163.30 216.81 162.73 217.61 162.87 218.46 Z M 163.03 219.47 L 163.19 220.46 C 163.33 221.31 164.13 221.89 164.98 221.75 C 165.83 221.61 166.41 220.81 166.27 219.96 L 166.11 218.97 C 165.98 218.12 165.17 217.54 164.32 217.68 C 163.47 217.81 162.89 218.61 163.03 219.47 Z M 163.19 220.46 L 163.34 221.43 C 163.48 222.28 164.28 222.86 165.13 222.73 C 165.98 222.59 166.56 221.79 166.43 220.94 L 166.27 219.96 C 166.14 219.11 165.34 218.53 164.48 218.67 C 163.63 218.80 163.05 219.60 163.19 220.46 Z M 163.34 221.43 L 163.50 222.40 C 163.64 223.25 164.44 223.83 165.29 223.69 C 166.14 223.56 166.72 222.76 166.58 221.90 L 166.43 220.94 C 166.29 220.09 165.49 219.51 164.64 219.65 C 163.79 219.78 163.21 220.58 163.34 221.43 Z M 163.50 222.40 L 163.66 223.39 C 163.80 224.24 164.60 224.82 165.45 224.68 C 166.30 224.54 166.88 223.74 166.74 222.89 L 166.58 221.90 C 166.44 221.05 165.64 220.47 164.79 220.61 C 163.94 220.75 163.36 221.55 163.50 222.40 Z M 163.66 223.40 L 163.83 224.38 C 163.97 225.23 164.78 225.80 165.63 225.66 C 166.48 225.52 167.05 224.71 166.91 223.86 L 166.74 222.88 C 166.60 222.03 165.79 221.46 164.94 221.60 C 164.09 221.74 163.52 222.55 163.66 223.40 Z M 163.83 224.39 L 164.00 225.37 C 164.15 226.22 164.96 226.79 165.81 226.64 C 166.66 226.49 167.23 225.68 167.08 224.83 L 166.90 223.85 C 166.76 223.00 165.95 222.43 165.10 222.58 C 164.25 222.73 163.68 223.54 163.83 224.39 Z M 164.01 225.39 L 164.19 226.38 C 164.35 227.22 165.16 227.78 166.01 227.63 C 166.86 227.47 167.42 226.65 167.26 225.80 L 167.07 224.82 C 166.92 223.97 166.10 223.41 165.25 223.57 C 164.41 223.73 163.85 224.54 164.01 225.39 Z M 164.19 226.40 L 164.38 227.32 C 164.55 228.16 165.37 228.71 166.21 228.54 C 167.06 228.37 167.61 227.55 167.44 226.71 L 167.26 225.79 C 167.09 224.94 166.26 224.39 165.42 224.56 C 164.57 224.73 164.02 225.55 164.19 226.40 Z M 164.38 227.34 L 164.59 228.28 C 164.77 229.12 165.60 229.66 166.44 229.47 C 167.29 229.29 167.82 228.46 167.64 227.62 L 167.43 226.68 C 167.25 225.84 166.42 225.30 165.58 225.49 C 164.73 225.67 164.20 226.50 164.38 227.34 Z M 164.60 228.32 L 164.83 229.29 C 165.04 230.12 165.88 230.64 166.72 230.43 C 167.56 230.23 168.07 229.38 167.86 228.55 L 167.63 227.58 C 167.42 226.74 166.58 226.23 165.74 226.43 C 164.90 226.64 164.39 227.48 164.60 228.32 Z M 164.84 229.33 L 165.12 230.34 C 165.35 231.17 166.21 231.66 167.04 231.43 C 167.87 231.20 168.36 230.34 168.13 229.51 L 167.85 228.50 C 167.62 227.67 166.76 227.18 165.93 227.41 C 165.10 227.64 164.61 228.50 164.84 229.33 Z M 165.13 230.39 L 165.44 231.37 C 165.69 232.19 166.57 232.66 167.39 232.40 C 168.22 232.15 168.68 231.27 168.42 230.45 L 168.12 229.46 C 167.86 228.64 166.99 228.18 166.16 228.43 C 165.34 228.69 164.88 229.56 165.13 230.39 Z M 165.45 231.41 L 165.76 232.31 C 166.03 233.12 166.92 233.56 167.73 233.29 C 168.55 233.01 168.99 232.12 168.71 231.31 L 168.41 230.41 C 168.13 229.59 167.25 229.15 166.43 229.43 C 165.61 229.71 165.18 230.59 165.45 231.41 Z M 165.76 232.33 L 166.10 233.26 C 166.39 234.07 167.28 234.49 168.09 234.20 C 168.91 233.91 169.33 233.02 169.04 232.21 L 168.70 231.28 C 168.41 230.47 167.52 230.05 166.71 230.34 C 165.90 230.63 165.47 231.52 165.76 232.33 Z M 166.10 233.28 L 166.46 234.23 C 166.76 235.04 167.66 235.45 168.47 235.14 C 169.28 234.84 169.69 233.94 169.38 233.14 L 169.03 232.19 C 168.73 231.38 167.83 230.97 167.02 231.27 C 166.21 231.57 165.80 232.47 166.10 233.28 Z M 166.46 234.24 L 166.83 235.21 C 167.14 236.01 168.05 236.41 168.85 236.10 C 169.66 235.80 170.06 234.89 169.75 234.09 L 169.38 233.12 C 169.07 232.32 168.17 231.92 167.36 232.22 C 166.56 232.53 166.15 233.44 166.46 234.24 Z M 166.84 235.21 L 167.21 236.18 C 167.53 236.99 168.43 237.39 169.24 237.07 C 170.04 236.76 170.44 235.86 170.12 235.05 L 169.75 234.08 C 169.43 233.28 168.53 232.88 167.73 233.19 C 166.92 233.50 166.52 234.41 166.84 235.21 Z M 167.21 236.19 L 167.29 236.39 C 167.61 237.19 168.51 237.59 169.31 237.27 C 170.12 236.96 170.52 236.05 170.20 235.25 L 170.12 235.05 C 169.81 234.25 168.91 233.85 168.10 234.16 C 167.30 234.48 166.90 235.38 167.21 236.19 Z"
      fill="black"
      fill-rule="nonzero" /><path d="M 99.09 78.44 L 98.32 79.04 C 97.64 79.57 97.52 80.55 98.05 81.23 C 98.58 81.91 99.56 82.03 100.24 81.50 L 101.01 80.91 C 101.69 80.38 101.81 79.39 101.28 78.71 C 100.75 78.04 99.77 77.91 99.09 78.44 Z M 98.28 79.08 L 97.53 79.71 C 96.87 80.27 96.79 81.25 97.34 81.91 C 97.90 82.57 98.89 82.65 99.54 82.10 L 100.29 81.47 C 100.95 80.91 101.03 79.92 100.48 79.27 C 99.92 78.61 98.93 78.52 98.28 79.08 Z M 97.44 79.79 L 96.73 80.49 C 96.12 81.10 96.11 82.08 96.72 82.70 C 97.33 83.31 98.32 83.32 98.93 82.71 L 99.63 82.02 C 100.25 81.41 100.25 80.42 99.65 79.81 C 99.04 79.19 98.05 79.19 97.44 79.79 Z M 96.62 80.62 L 95.98 81.41 C 95.43 82.08 95.54 83.07 96.21 83.61 C 96.88 84.15 97.86 84.05 98.40 83.38 L 99.04 82.58 C 99.59 81.91 99.48 80.93 98.81 80.39 C 98.14 79.85 97.16 79.95 96.62 80.62 Z M 95.86 81.58 L 95.34 82.43 C 94.89 83.16 95.12 84.12 95.85 84.57 C 96.58 85.02 97.55 84.80 98.00 84.06 L 98.52 83.21 C 98.97 82.48 98.74 81.52 98.01 81.07 C 97.27 80.61 96.31 80.84 95.86 81.58 Z M 95.26 82.57 L 94.84 83.45 C 94.47 84.23 94.80 85.16 95.58 85.53 C 96.36 85.90 97.29 85.57 97.66 84.79 L 98.08 83.91 C 98.45 83.14 98.12 82.20 97.34 81.83 C 96.56 81.46 95.63 81.79 95.26 82.57 Z M 94.79 83.55 L 94.43 84.50 C 94.11 85.30 94.51 86.20 95.31 86.52 C 96.12 86.83 97.02 86.43 97.33 85.63 L 97.70 84.69 C 98.02 83.89 97.62 82.98 96.82 82.67 C 96.01 82.35 95.11 82.75 94.79 83.55 Z M 94.40 84.56 L 94.07 85.54 C 93.80 86.35 94.24 87.24 95.05 87.52 C 95.87 87.79 96.76 87.35 97.03 86.54 L 97.36 85.56 C 97.64 84.75 97.20 83.86 96.38 83.58 C 95.56 83.31 94.68 83.75 94.40 84.56 Z M 94.06 85.58 L 93.76 86.55 C 93.51 87.38 93.97 88.25 94.80 88.50 C 95.62 88.76 96.49 88.29 96.75 87.47 L 97.05 86.49 C 97.30 85.67 96.84 84.80 96.01 84.54 C 95.19 84.29 94.31 84.75 94.06 85.58 Z M 93.76 86.57 L 93.47 87.54 C 93.22 88.37 93.69 89.24 94.52 89.49 C 95.34 89.73 96.21 89.26 96.46 88.44 L 96.75 87.46 C 97.00 86.63 96.53 85.76 95.70 85.51 C 94.87 85.27 94.00 85.74 93.76 86.57 Z M 93.47 87.54 L 93.17 88.54 C 92.92 89.37 93.38 90.24 94.21 90.49 C 95.04 90.74 95.91 90.27 96.16 89.44 L 96.46 88.44 C 96.71 87.61 96.24 86.74 95.41 86.50 C 94.59 86.25 93.72 86.71 93.47 87.54 Z M 93.17 88.54 L 92.87 89.50 C 92.62 90.32 93.09 91.20 93.91 91.45 C 94.74 91.70 95.61 91.23 95.86 90.41 L 96.15 89.45 C 96.41 88.62 95.94 87.75 95.12 87.50 C 94.29 87.25 93.42 87.71 93.17 88.54 Z M 92.87 89.49 L 92.59 90.43 C 92.33 91.25 92.80 92.13 93.62 92.38 C 94.44 92.63 95.32 92.17 95.57 91.35 L 95.86 90.41 C 96.11 89.59 95.65 88.72 94.83 88.46 C 94.00 88.21 93.13 88.67 92.87 89.49 Z M 92.59 90.43 L 92.30 91.35 C 92.05 92.17 92.51 93.04 93.34 93.30 C 94.16 93.55 95.03 93.09 95.29 92.27 L 95.57 91.35 C 95.83 90.52 95.36 89.65 94.54 89.40 C 93.72 89.14 92.84 89.60 92.59 90.43 Z M 92.30 91.35 L 92.02 92.27 C 91.77 93.10 92.23 93.97 93.05 94.22 C 93.88 94.48 94.75 94.01 95.00 93.19 L 95.29 92.27 C 95.54 91.44 95.08 90.57 94.25 90.31 C 93.43 90.06 92.56 90.52 92.30 91.35 Z M 92.02 92.27 L 91.73 93.21 C 91.48 94.03 91.94 94.91 92.77 95.16 C 93.59 95.41 94.46 94.95 94.72 94.13 L 95.00 93.19 C 95.26 92.36 94.79 91.49 93.97 91.24 C 93.14 90.99 92.27 91.45 92.02 92.27 Z M 91.73 93.21 L 91.44 94.16 C 91.19 94.98 91.65 95.86 92.48 96.11 C 93.30 96.36 94.17 95.90 94.43 95.07 L 94.72 94.13 C 94.97 93.30 94.51 92.43 93.68 92.18 C 92.86 91.92 91.99 92.39 91.73 93.21 Z M 91.44 94.16 L 91.14 95.12 C 90.89 95.95 91.35 96.82 92.18 97.07 C 93.00 97.33 93.87 96.87 94.13 96.04 L 94.43 95.08 C 94.68 94.25 94.22 93.38 93.39 93.12 C 92.57 92.87 91.70 93.33 91.44 94.16 Z M 91.15 95.12 L 90.84 96.10 C 90.58 96.93 91.04 97.80 91.86 98.06 C 92.69 98.31 93.56 97.86 93.82 97.03 L 94.13 96.05 C 94.38 95.22 93.92 94.35 93.10 94.09 C 92.28 93.83 91.40 94.29 91.15 95.12 Z M 90.84 96.10 L 90.55 97.01 C 90.29 97.84 90.75 98.71 91.57 98.97 C 92.39 99.23 93.27 98.78 93.53 97.96 L 93.82 97.04 C 94.08 96.22 93.62 95.34 92.80 95.08 C 91.98 94.82 91.10 95.28 90.84 96.10 Z M 90.55 97.01 L 90.25 97.94 C 89.99 98.76 90.44 99.64 91.26 99.90 C 92.08 100.17 92.96 99.71 93.23 98.89 L 93.53 97.96 C 93.79 97.14 93.34 96.26 92.51 96.00 C 91.69 95.73 90.81 96.19 90.55 97.01 Z M 90.26 97.93 L 89.95 98.88 C 89.68 99.70 90.13 100.58 90.95 100.85 C 91.77 101.12 92.65 100.67 92.92 99.85 L 93.22 98.90 C 93.49 98.08 93.04 97.20 92.22 96.93 C 91.40 96.67 90.52 97.11 90.26 97.93 Z M 89.95 98.88 L 89.63 99.84 C 89.36 100.66 89.81 101.55 90.62 101.82 C 91.44 102.09 92.33 101.64 92.60 100.82 L 92.91 99.85 C 93.18 99.04 92.74 98.15 91.92 97.88 C 91.10 97.61 90.22 98.06 89.95 98.88 Z M 89.63 99.84 L 89.30 100.82 C 89.03 101.64 89.47 102.52 90.29 102.80 C 91.11 103.07 91.99 102.63 92.26 101.81 L 92.59 100.83 C 92.87 100.01 92.43 99.13 91.61 98.85 C 90.79 98.58 89.91 99.02 89.63 99.84 Z M 89.31 100.82 L 88.99 101.76 C 88.71 102.58 89.15 103.46 89.96 103.74 C 90.78 104.01 91.67 103.58 91.94 102.76 L 92.26 101.82 C 92.54 101.00 92.10 100.11 91.29 99.84 C 90.47 99.56 89.58 100.00 89.31 100.82 Z M 88.99 101.75 L 88.67 102.70 C 88.39 103.51 88.82 104.40 89.64 104.68 C 90.45 104.96 91.34 104.52 91.62 103.71 L 91.94 102.76 C 92.22 101.95 91.79 101.06 90.97 100.78 C 90.15 100.50 89.27 100.94 88.99 101.75 Z M 88.67 102.70 L 88.34 103.64 C 88.06 104.46 88.50 105.35 89.31 105.63 C 90.13 105.91 91.02 105.47 91.30 104.65 L 91.62 103.71 C 91.90 102.89 91.46 102.00 90.65 101.72 C 89.83 101.44 88.94 101.88 88.67 102.70 Z M 88.34 103.65 L 88.02 104.60 C 87.74 105.42 88.18 106.30 88.99 106.58 C 89.81 106.86 90.69 106.42 90.97 105.61 L 91.30 104.65 C 91.57 103.84 91.14 102.95 90.32 102.67 C 89.51 102.39 88.62 102.83 88.34 103.65 Z M 88.01 104.60 L 87.69 105.56 C 87.42 106.38 87.86 107.26 88.68 107.54 C 89.49 107.81 90.38 107.37 90.65 106.55 L 90.97 105.60 C 91.25 104.78 90.81 103.90 89.99 103.62 C 89.17 103.35 88.29 103.79 88.01 104.60 Z M 87.69 105.57 L 87.37 106.53 C 87.10 107.34 87.55 108.23 88.37 108.50 C 89.19 108.77 90.07 108.32 90.34 107.51 L 90.66 106.55 C 90.93 105.73 90.48 104.84 89.66 104.57 C 88.84 104.30 87.96 104.75 87.69 105.57 Z M 87.37 106.54 L 87.06 107.51 C 86.79 108.33 87.24 109.21 88.06 109.47 C 88.88 109.74 89.76 109.29 90.03 108.47 L 90.34 107.50 C 90.61 106.67 90.16 105.80 89.34 105.53 C 88.52 105.27 87.64 105.72 87.37 106.54 Z M 87.05 107.52 L 86.75 108.48 C 86.49 109.30 86.95 110.18 87.77 110.44 C 88.59 110.70 89.47 110.24 89.73 109.42 L 90.03 108.46 C 90.29 107.63 89.83 106.76 89.01 106.50 C 88.19 106.24 87.31 106.69 87.05 107.52 Z M 86.75 108.49 L 86.45 109.45 C 86.20 110.27 86.66 111.14 87.48 111.40 C 88.31 111.65 89.18 111.19 89.43 110.37 L 89.73 109.41 C 89.98 108.59 89.52 107.71 88.70 107.46 C 87.88 107.21 87.00 107.67 86.75 108.49 Z M 86.45 109.46 L 86.16 110.40 C 85.91 111.23 86.38 112.10 87.21 112.35 C 88.03 112.60 88.90 112.13 89.15 111.30 L 89.44 110.36 C 89.69 109.53 89.22 108.66 88.40 108.41 C 87.57 108.16 86.70 108.63 86.45 109.46 Z M 86.16 110.41 L 85.88 111.34 C 85.64 112.17 86.11 113.04 86.94 113.28 C 87.76 113.53 88.63 113.06 88.88 112.23 L 89.15 111.30 C 89.40 110.47 88.93 109.60 88.10 109.36 C 87.27 109.11 86.41 109.58 86.16 110.41 Z M 85.88 111.35 L 85.60 112.33 C 85.36 113.16 85.83 114.02 86.66 114.26 C 87.49 114.50 88.35 114.03 88.60 113.20 L 88.88 112.22 C 89.12 111.39 88.64 110.53 87.82 110.29 C 86.99 110.05 86.12 110.52 85.88 111.35 Z M 85.60 112.34 L 85.32 113.31 C 85.08 114.13 85.56 115.00 86.39 115.24 C 87.22 115.47 88.08 114.99 88.32 114.16 L 88.60 113.19 C 88.83 112.36 88.35 111.50 87.53 111.26 C 86.70 111.03 85.83 111.51 85.60 112.34 Z M 85.32 113.31 L 85.05 114.27 C 84.81 115.10 85.29 115.96 86.12 116.20 C 86.95 116.43 87.82 115.95 88.05 115.12 L 88.32 114.16 C 88.56 113.33 88.07 112.47 87.24 112.23 C 86.41 112.00 85.55 112.48 85.32 113.31 Z M 85.04 114.27 L 84.78 115.23 C 84.55 116.06 85.03 116.92 85.86 117.15 C 86.69 117.38 87.55 116.90 87.79 116.07 L 88.05 115.11 C 88.28 114.28 87.80 113.42 86.97 113.19 C 86.14 112.96 85.28 113.44 85.04 114.27 Z M 84.78 115.23 L 84.51 116.18 C 84.28 117.01 84.77 117.87 85.60 118.10 C 86.43 118.33 87.29 117.85 87.52 117.01 L 87.79 116.07 C 88.02 115.23 87.53 114.37 86.70 114.14 C 85.87 113.91 85.01 114.40 84.78 115.23 Z M 84.51 116.18 L 84.49 116.27 C 84.26 117.10 84.74 117.96 85.58 118.19 C 86.41 118.42 87.27 117.94 87.50 117.11 L 87.52 117.01 C 87.75 116.18 87.27 115.32 86.44 115.09 C 85.61 114.86 84.74 115.35 84.51 116.18 Z"
      fill="black"
      fill-rule="nonzero" /></svg>