<svg xmlns="http://www.w3.org/2000/svg" width="300" height="300" viewBox="0 0 300 300">
<path d="M 116.49 86.75 L 116.35 87.82 C 116.23 88.70 116.84 89.51 117.72 89.63 C 118.60 89.75 119.41 89.14 119.53 88.26 L 119.68 87.19 C 119.80 86.31 119.18 85.50 118.31 85.38 C 117.43 85.26 116.62 85.87 116.49 86.75 Z M 116.34 87.82 L 116.20 88.88 C 116.08 89.76 116.70 90.57 117.58 90.69 C 118.46 90.81 119.27 90.20 119.39 89.32 L 119.54 88.26 C 119.66 87.38 119.04 86.57 118.16 86.45 C 117.28 86.33 116.47 86.94 116.34 87.82 Z M 116.20 88.88 L 116.06 89.91 C 115.94 90.80 116.56 91.61 117.44 91.73 C 118.32 91.85 119.13 91.23 119.25 90.35 L 119.39 89.32 C 119.51 88.43 118.90 87.62 118.01 87.50 C 117.13 87.38 116.32 88.00 116.20 88.88 Z M 116.05 89.92 L 115.92 90.91 C 115.80 91.80 116.42 92.61 117.31 92.73 C 118.19 92.85 119.00 92.23 119.12 91.34 L 119.26 90.35 C 119.38 89.46 118.75 88.65 117.87 88.53 C 116.99 88.41 116.17 89.03 116.05 89.92 Z M 115.92 90.92 L 115.79 91.86 C 115.67 92.75 116.30 93.56 117.18 93.68 C 118.07 93.80 118.88 93.18 119.00 92.29 L 119.13 91.34 C 119.24 90.46 118.62 89.64 117.73 89.52 C 116.85 89.41 116.03 90.03 115.92 90.92 Z M 115.79 91.87 L 115.67 92.76 C 115.56 93.64 116.18 94.46 117.07 94.57 C 117.96 94.69 118.77 94.06 118.89 93.17 L 119.00 92.29 C 119.12 91.40 118.49 90.58 117.60 90.47 C 116.72 90.35 115.90 90.98 115.79 91.87 Z M 115.67 92.76 L 115.54 93.82 C 115.43 94.71 116.06 95.52 116.95 95.63 C 117.84 95.75 118.65 95.11 118.76 94.22 L 118.89 93.17 C 119.00 92.28 118.37 91.46 117.48 91.35 C 116.59 91.24 115.78 91.87 115.67 92.76 Z M 115.53 93.83 L 115.41 94.88 C 115.31 95.77 115.94 96.58 116.84 96.69 C 117.73 96.79 118.54 96.15 118.64 95.26 L 118.76 94.21 C 118.87 93.32 118.23 92.51 117.34 92.41 C 116.45 92.30 115.64 92.94 115.53 93.83 Z M 115.41 94.90 L 115.30 95.86 C 115.21 96.75 115.85 97.55 116.75 97.65 C 117.64 97.75 118.44 97.10 118.54 96.21 L 118.64 95.24 C 118.74 94.35 118.09 93.55 117.20 93.45 C 116.30 93.36 115.50 94.00 115.41 94.90 Z M 115.30 95.88 L 115.21 96.79 C 115.13 97.69 115.78 98.48 116.68 98.57 C 117.57 98.66 118.37 98.00 118.46 97.10 L 118.54 96.19 C 118.63 95.29 117.97 94.49 117.08 94.41 C 116.18 94.32 115.39 94.98 115.30 95.88 Z M 115.21 96.81 L 115.13 97.72 C 115.05 98.62 115.72 99.41 116.62 99.49 C 117.52 99.56 118.31 98.90 118.38 98.00 L 118.46 97.09 C 118.54 96.19 117.87 95.40 116.97 95.32 C 116.07 95.25 115.28 95.91 115.21 96.81 Z M 115.13 97.74 L 115.06 98.68 C 114.99 99.58 115.66 100.37 116.56 100.43 C 117.46 100.50 118.25 99.83 118.31 98.93 L 118.38 97.99 C 118.45 97.09 117.78 96.30 116.88 96.23 C 115.98 96.17 115.20 96.84 115.13 97.74 Z M 115.06 98.70 L 114.99 99.68 C 114.93 100.57 115.61 101.35 116.51 101.41 C 117.41 101.48 118.19 100.80 118.25 99.90 L 118.31 98.92 C 118.38 98.02 117.70 97.24 116.80 97.18 C 115.90 97.12 115.12 97.80 115.06 98.70 Z M 114.99 99.68 L 114.93 100.71 C 114.87 101.61 115.56 102.38 116.46 102.44 C 117.36 102.49 118.13 101.81 118.19 100.91 L 118.25 99.89 C 118.30 98.98 117.62 98.21 116.72 98.15 C 115.82 98.10 115.04 98.78 114.99 99.68 Z M 114.93 100.71 L 114.86 101.79 C 114.81 102.69 115.50 103.46 116.40 103.51 C 117.30 103.56 118.07 102.87 118.13 101.97 L 118.19 100.90 C 118.24 100.00 117.55 99.23 116.65 99.18 C 115.75 99.13 114.98 99.81 114.93 100.71 Z M 114.86 101.79 L 114.82 102.70 C 114.77 103.60 115.46 104.37 116.36 104.42 C 117.26 104.47 118.03 103.78 118.08 102.88 L 118.13 101.97 C 118.17 101.07 117.48 100.30 116.58 100.25 C 115.68 100.20 114.91 100.89 114.86 101.79 Z M 114.82 102.70 L 114.77 103.65 C 114.72 104.55 115.41 105.32 116.31 105.37 C 117.20 105.41 117.97 104.73 118.02 103.83 L 118.07 102.88 C 118.12 101.98 117.43 101.21 116.53 101.16 C 115.63 101.11 114.87 101.80 114.82 102.70 Z M 114.77 103.65 L 114.71 104.64 C 114.66 105.53 115.35 106.30 116.25 106.35 C 117.15 106.40 117.91 105.72 117.96 104.82 L 118.02 103.83 C 118.07 102.93 117.38 102.16 116.48 102.11 C 115.59 102.06 114.82 102.75 114.77 103.65 Z M 114.72 104.63 L 114.66 105.66 C 114.60 106.56 115.29 107.33 116.18 107.38 C 117.08 107.43 117.85 106.75 117.90 105.85 L 117.96 104.82 C 118.01 103.93 117.33 103.16 116.43 103.11 C 115.54 103.05 114.77 103.74 114.72 104.63 Z M 114.66 105.66 L 114.59 106.73 C 114.54 107.63 115.22 108.40 116.11 108.45 C 117.00 108.51 117.77 107.83 117.83 106.93 L 117.90 105.86 C 117.95 104.97 117.27 104.20 116.38 104.14 C 115.49 104.08 114.72 104.76 114.66 105.66 Z M 114.60 106.73 L 114.53 107.70 C 114.47 108.59 115.15 109.37 116.04 109.43 C 116.93 109.49 117.70 108.81 117.76 107.92 L 117.83 106.94 C 117.89 106.05 117.21 105.28 116.32 105.22 C 115.43 105.16 114.66 105.83 114.60 106.73 Z M 114.53 107.70 L 114.47 108.63 C 114.40 109.52 115.08 110.29 115.97 110.35 C 116.86 110.42 117.63 109.74 117.70 108.85 L 117.76 107.92 C 117.82 107.03 117.15 106.26 116.26 106.20 C 115.37 106.13 114.59 106.80 114.53 107.70 Z M 114.47 108.62 L 114.40 109.58 C 114.33 110.47 115.00 111.25 115.89 111.31 C 116.79 111.38 117.56 110.71 117.63 109.82 L 117.69 108.86 C 117.76 107.96 117.09 107.19 116.20 107.13 C 115.31 107.06 114.53 107.73 114.47 108.62 Z M 114.40 109.58 L 114.33 110.57 C 114.26 111.46 114.93 112.24 115.82 112.30 C 116.71 112.37 117.49 111.70 117.55 110.81 L 117.62 109.82 C 117.69 108.92 117.02 108.15 116.13 108.09 C 115.24 108.02 114.46 108.69 114.40 109.58 Z M 114.33 110.57 L 114.25 111.60 C 114.19 112.49 114.86 113.26 115.75 113.32 C 116.64 113.39 117.42 112.72 117.48 111.83 L 117.55 110.80 C 117.62 109.91 116.95 109.14 116.05 109.08 C 115.16 109.01 114.39 109.68 114.33 110.57 Z M 114.25 111.60 L 114.18 112.66 C 114.12 113.55 114.79 114.32 115.68 114.38 C 116.57 114.44 117.35 113.77 117.41 112.88 L 117.48 111.82 C 117.54 110.93 116.87 110.16 115.98 110.10 C 115.09 110.04 114.32 110.71 114.25 111.60 Z M 114.18 112.66 L 114.11 113.75 C 114.05 114.64 114.73 115.41 115.62 115.47 C 116.51 115.52 117.28 114.85 117.34 113.96 L 117.41 112.87 C 117.46 111.98 116.79 111.21 115.90 111.15 C 115.01 111.10 114.24 111.77 114.18 112.66 Z M 114.11 113.75 L 114.05 114.69 C 114.00 115.58 114.68 116.35 115.57 116.40 C 116.46 116.46 117.22 115.78 117.28 114.89 L 117.34 113.95 C 117.39 113.06 116.71 112.30 115.82 112.24 C 114.93 112.19 114.17 112.86 114.11 113.75 Z M 114.06 114.69 L 114.00 115.65 C 113.95 116.54 114.63 117.30 115.52 117.35 C 116.41 117.40 117.17 116.73 117.22 115.84 L 117.28 114.88 C 117.33 113.99 116.65 113.23 115.76 113.18 C 114.87 113.13 114.11 113.81 114.06 114.69 Z M 114.00 115.65 L 113.95 116.63 C 113.90 117.51 114.58 118.27 115.47 118.32 C 116.35 118.37 117.12 117.69 117.17 116.81 L 117.22 115.83 C 117.27 114.94 116.59 114.18 115.70 114.13 C 114.81 114.08 114.05 114.76 114.00 115.65 Z M 113.95 116.63 L 113.89 117.62 C 113.85 118.51 114.53 119.27 115.41 119.32 C 116.30 119.36 117.06 118.68 117.11 117.80 L 117.16 116.80 C 117.21 115.92 116.53 115.16 115.64 115.11 C 114.76 115.06 114.00 115.74 113.95 116.63 Z M 113.90 117.62 L 113.84 118.63 C 113.79 119.52 114.47 120.28 115.36 120.32 C 116.25 120.37 117.01 119.69 117.05 118.80 L 117.11 117.79 C 117.16 116.91 116.47 116.15 115.59 116.10 C 114.70 116.05 113.94 116.73 113.90 117.62 Z M 113.84 118.63 L 113.79 119.66 C 113.74 120.55 114.42 121.30 115.31 121.35 C 116.19 121.40 116.95 120.72 117.00 119.83 L 117.05 118.80 C 117.10 117.92 116.42 117.16 115.53 117.11 C 114.65 117.07 113.89 117.75 113.84 118.63 Z M 113.79 119.66 L 113.73 120.70 C 113.69 121.59 114.37 122.34 115.25 122.39 C 116.14 122.44 116.89 121.76 116.94 120.87 L 117.00 119.83 C 117.04 118.94 116.36 118.19 115.48 118.14 C 114.59 118.09 113.84 118.77 113.79 119.66 Z M 113.74 120.70 L 113.68 121.76 C 113.63 122.64 114.31 123.40 115.19 123.44 C 116.08 123.49 116.83 122.81 116.88 121.93 L 116.94 120.87 C 116.99 119.99 116.31 119.23 115.42 119.18 C 114.54 119.14 113.78 119.82 113.74 120.70 Z M 113.68 121.75 L 113.63 122.72 C 113.58 123.60 114.25 124.36 115.14 124.41 C 116.02 124.45 116.78 123.78 116.83 122.89 L 116.88 121.93 C 116.93 121.05 116.25 120.29 115.37 120.24 C 114.48 120.19 113.73 120.87 113.68 121.75 Z M 113.63 122.71 L 113.57 123.69 C 113.52 124.57 114.20 125.33 115.08 125.38 C 115.97 125.43 116.72 124.75 116.77 123.87 L 116.83 122.89 C 116.88 122.01 116.20 121.25 115.32 121.20 C 114.43 121.15 113.68 121.83 113.63 122.71 Z M 113.57 123.68 L 113.52 124.66 C 113.46 125.55 114.14 126.31 115.03 126.36 C 115.91 126.41 116.67 125.73 116.72 124.85 L 116.78 123.87 C 116.83 122.98 116.15 122.22 115.26 122.17 C 114.38 122.12 113.62 122.80 113.57 123.68 Z M 113.51 124.66 L 113.46 125.65 C 113.41 126.54 114.08 127.30 114.97 127.35 C 115.85 127.40 116.61 126.72 116.66 125.84 L 116.72 124.85 C 116.77 123.96 116.09 123.20 115.21 123.15 C 114.32 123.10 113.57 123.78 113.51 124.66 Z M 113.46 125.65 L 113.40 126.65 C 113.35 127.54 114.02 128.30 114.91 128.35 C 115.79 128.40 116.55 127.72 116.61 126.84 L 116.66 125.84 C 116.71 124.95 116.04 124.19 115.15 124.14 C 114.27 124.09 113.51 124.77 113.46 125.65 Z M 113.40 126.65 L 113.34 127.66 C 113.29 128.55 113.96 129.31 114.85 129.36 C 115.74 129.41 116.50 128.73 116.55 127.85 L 116.61 126.84 C 116.66 125.95 115.98 125.19 115.10 125.14 C 114.21 125.09 113.45 125.77 113.40 126.65 Z M 113.34 127.66 L 113.28 128.68 C 113.23 129.56 113.91 130.32 114.79 130.38 C 115.68 130.43 116.44 129.75 116.49 128.86 L 116.55 127.85 C 116.60 126.96 115.92 126.20 115.04 126.15 C 114.15 126.10 113.39 126.77 113.34 127.66 Z M 113.28 128.68 L 113.22 129.70 C 113.17 130.59 113.85 131.35 114.73 131.40 C 115.62 131.45 116.38 130.78 116.43 129.89 L 116.49 128.86 C 116.54 127.98 115.86 127.22 114.98 127.17 C 114.09 127.11 113.33 127.79 113.28 128.68 Z M 113.22 129.70 L 113.16 130.74 C 113.11 131.62 113.79 132.38 114.67 132.43 C 115.56 132.49 116.32 131.81 116.37 130.92 L 116.43 129.89 C 116.48 129.00 115.80 128.24 114.92 128.19 C 114.03 128.14 113.27 128.82 113.22 129.70 Z M 113.16 130.74 L 113.10 131.75 C 113.05 132.63 113.73 133.39 114.62 133.44 C 115.50 133.49 116.26 132.82 116.31 131.93 L 116.37 130.92 C 116.42 130.03 115.74 129.27 114.86 129.22 C 113.97 129.17 113.21 129.85 113.16 130.74 Z M 113.10 131.75 L 113.05 132.76 C 113.00 133.65 113.67 134.41 114.56 134.46 C 115.44 134.51 116.20 133.83 116.25 132.94 L 116.31 131.93 C 116.36 131.04 115.68 130.29 114.80 130.24 C 113.91 130.18 113.15 130.86 113.10 131.75 Z M 113.05 132.76 L 112.99 133.78 C 112.94 134.66 113.62 135.42 114.50 135.47 C 115.39 135.52 116.14 134.84 116.19 133.96 L 116.25 132.94 C 116.30 132.06 115.63 131.30 114.74 131.25 C 113.86 131.20 113.10 131.88 113.05 132.76 Z M 112.99 133.78 L 112.93 134.79 C 112.88 135.67 113.56 136.43 114.44 136.48 C 115.33 136.53 116.08 135.86 116.13 134.97 L 116.19 133.96 C 116.24 133.08 115.57 132.32 114.68 132.27 C 113.80 132.22 113.04 132.89 112.99 133.78 Z M 112.94 134.79 L 112.88 135.80 C 112.83 136.68 113.50 137.44 114.38 137.49 C 115.27 137.54 116.02 136.87 116.08 135.98 L 116.13 134.97 C 116.18 134.09 115.51 133.33 114.63 133.28 C 113.74 133.23 112.99 133.91 112.94 134.79 Z M 112.88 135.80 L 112.82 136.80 C 112.77 137.68 113.44 138.44 114.33 138.49 C 115.21 138.54 115.96 137.87 116.02 136.98 L 116.07 135.98 C 116.12 135.10 115.45 134.34 114.57 134.29 C 113.69 134.24 112.93 134.92 112.88 135.80 Z M 112.82 136.80 L 112.76 137.79 C 112.71 138.67 113.39 139.43 114.27 139.48 C 115.15 139.53 115.90 138.86 115.96 137.98 L 116.01 136.99 C 116.07 136.10 115.39 135.35 114.51 135.30 C 113.63 135.24 112.87 135.92 112.82 136.80 Z M 112.77 137.79 L 112.71 138.76 C 112.66 139.64 113.33 140.40 114.21 140.45 C 115.09 140.50 115.84 139.83 115.90 138.95 L 115.95 137.98 C 116.01 137.10 115.34 136.34 114.45 136.29 C 113.57 136.24 112.82 136.91 112.77 137.79 Z M 112.71 138.76 L 112.65 139.72 C 112.60 140.60 113.27 141.36 114.15 141.41 C 115.03 141.46 115.78 140.79 115.84 139.91 L 115.90 138.95 C 115.95 138.07 115.28 137.32 114.40 137.27 C 113.52 137.21 112.76 137.88 112.71 138.76 Z M 112.65 139.72 L 112.59 140.77 C 112.53 141.65 113.20 142.41 114.08 142.46 C 114.96 142.52 115.72 141.85 115.77 140.97 L 115.84 139.91 C 115.89 139.04 115.22 138.28 114.34 138.22 C 113.46 138.17 112.71 138.84 112.65 139.72 Z M 112.59 140.77 L 112.52 141.81 C 112.47 142.69 113.13 143.45 114.01 143.50 C 114.89 143.56 115.65 142.89 115.71 142.01 L 115.77 140.97 C 115.83 140.09 115.16 139.33 114.28 139.28 C 113.40 139.22 112.64 139.89 112.59 140.77 Z M 112.52 141.81 L 112.45 142.83 C 112.40 143.71 113.07 144.47 113.95 144.53 C 114.83 144.58 115.59 143.91 115.65 143.03 L 115.71 142.01 C 115.77 141.13 115.10 140.37 114.22 140.32 C 113.33 140.26 112.57 140.93 112.52 141.81 Z M 112.45 142.83 L 112.39 143.83 C 112.33 144.71 113.00 145.47 113.88 145.53 C 114.77 145.58 115.53 144.91 115.58 144.03 L 115.65 143.03 C 115.70 142.15 115.03 141.39 114.15 141.33 C 113.27 141.28 112.51 141.95 112.45 142.83 Z M 112.39 143.83 L 112.32 144.81 C 112.27 145.70 112.94 146.46 113.82 146.51 C 114.70 146.57 115.46 145.90 115.52 145.02 L 115.58 144.03 C 115.64 143.15 114.97 142.39 114.09 142.33 C 113.20 142.27 112.44 142.94 112.39 143.83 Z M 112.32 144.81 L 112.26 145.79 C 112.20 146.67 112.87 147.43 113.76 147.49 C 114.64 147.54 115.40 146.87 115.46 145.99 L 115.52 145.02 C 115.58 144.13 114.91 143.37 114.02 143.31 C 113.14 143.26 112.38 143.93 112.32 144.81 Z M 112.26 145.79 L 112.20 146.75 C 112.14 147.63 112.81 148.40 113.70 148.45 C 114.58 148.51 115.35 147.84 115.40 146.95 L 115.46 145.99 C 115.52 145.10 114.85 144.34 113.96 144.28 C 113.08 144.23 112.31 144.90 112.26 145.79 Z M 112.20 146.75 L 112.14 147.71 C 112.08 148.59 112.76 149.35 113.64 149.41 C 114.53 149.46 115.29 148.79 115.35 147.90 L 115.40 146.95 C 115.46 146.06 114.78 145.30 113.90 145.24 C 113.01 145.19 112.25 145.86 112.20 146.75 Z M 112.14 147.71 L 112.08 148.71 C 112.02 149.59 112.70 150.36 113.59 150.41 C 114.47 150.46 115.23 149.79 115.29 148.90 L 115.35 147.90 C 115.40 147.01 114.72 146.25 113.84 146.20 C 112.95 146.15 112.19 146.82 112.14 147.71 Z M 112.08 148.71 L 112.02 149.71 C 111.97 150.60 112.64 151.36 113.53 151.41 C 114.42 151.47 115.18 150.79 115.23 149.90 L 115.29 148.90 C 115.34 148.01 114.66 147.25 113.78 147.20 C 112.89 147.15 112.13 147.82 112.08 148.71 Z M 112.02 149.72 L 111.96 150.72 C 111.91 151.60 112.59 152.36 113.47 152.41 C 114.36 152.47 115.12 151.79 115.17 150.90 L 115.23 149.90 C 115.28 149.01 114.60 148.25 113.72 148.20 C 112.83 148.15 112.07 148.83 112.02 149.72 Z M 111.96 150.72 L 111.90 151.72 C 111.85 152.60 112.53 153.36 113.42 153.41 C 114.31 153.46 115.07 152.79 115.12 151.90 L 115.17 150.90 C 115.22 150.01 114.54 149.25 113.66 149.20 C 112.77 149.15 112.01 149.83 111.96 150.72 Z M 111.90 151.72 L 111.85 152.71 C 111.80 153.60 112.47 154.36 113.36 154.41 C 114.25 154.46 115.01 153.78 115.06 152.89 L 115.12 151.90 C 115.17 151.01 114.49 150.25 113.60 150.20 C 112.71 150.15 111.95 150.83 111.90 151.72 Z M 111.85 152.71 L 111.79 153.70 C 111.74 154.59 112.42 155.35 113.30 155.40 C 114.19 155.45 114.95 154.78 115.00 153.89 L 115.06 152.90 C 115.11 152.01 114.43 151.25 113.55 151.20 C 112.66 151.15 111.90 151.82 111.85 152.71 Z M 111.79 153.70 L 111.73 154.70 C 111.68 155.58 112.36 156.34 113.24 156.40 C 114.13 156.45 114.89 155.77 114.94 154.88 L 115.00 153.89 C 115.05 153.00 114.38 152.24 113.49 152.19 C 112.60 152.14 111.84 152.82 111.79 153.70 Z M 111.73 154.69 L 111.67 155.69 C 111.62 156.57 112.29 157.33 113.18 157.39 C 114.07 157.44 114.83 156.77 114.88 155.88 L 114.94 154.89 C 115.00 154.00 114.32 153.24 113.43 153.18 C 112.55 153.13 111.79 153.81 111.73 154.69 Z M 111.67 155.68 L 111.61 156.68 C 111.55 157.56 112.23 158.33 113.11 158.38 C 114.00 158.44 114.76 157.77 114.82 156.88 L 114.88 155.88 C 114.94 155.00 114.26 154.23 113.38 154.18 C 112.49 154.12 111.73 154.80 111.67 155.68 Z M 111.61 156.67 L 111.55 157.67 C 111.49 158.56 112.16 159.32 113.05 159.38 C 113.93 159.43 114.70 158.76 114.75 157.88 L 114.82 156.88 C 114.87 156.00 114.20 155.23 113.32 155.17 C 112.43 155.12 111.67 155.79 111.61 156.67 Z M 111.55 157.67 L 111.48 158.67 C 111.42 159.55 112.10 160.31 112.98 160.37 C 113.86 160.43 114.63 159.76 114.69 158.87 L 114.75 157.88 C 114.81 156.99 114.14 156.23 113.25 156.17 C 112.37 156.11 111.61 156.78 111.55 157.67 Z M 111.48 158.66 L 111.42 159.66 C 111.36 160.55 112.03 161.31 112.91 161.37 C 113.80 161.43 114.56 160.76 114.62 159.87 L 114.69 158.87 C 114.74 157.99 114.07 157.23 113.19 157.17 C 112.31 157.11 111.54 157.78 111.48 158.66 Z M 111.42 159.66 L 111.35 160.66 C 111.30 161.54 111.97 162.31 112.85 162.36 C 113.73 162.42 114.50 161.75 114.55 160.87 L 114.62 159.87 C 114.68 158.99 114.01 158.22 113.12 158.17 C 112.24 158.11 111.48 158.78 111.42 159.66 Z M 111.36 160.66 L 111.29 161.66 C 111.23 162.55 111.90 163.31 112.79 163.36 C 113.67 163.42 114.43 162.75 114.49 161.87 L 114.55 160.87 C 114.61 159.99 113.94 159.22 113.06 159.17 C 112.17 159.11 111.41 159.78 111.36 160.66 Z M 111.29 161.67 L 111.23 162.67 C 111.17 163.55 111.84 164.31 112.73 164.36 C 113.61 164.42 114.37 163.75 114.42 162.87 L 114.49 161.87 C 114.54 160.98 113.87 160.22 112.99 160.17 C 112.11 160.11 111.35 160.78 111.29 161.67 Z M 111.23 162.67 L 111.17 163.67 C 111.12 164.56 111.79 165.31 112.67 165.37 C 113.55 165.42 114.31 164.75 114.36 163.87 L 114.42 162.86 C 114.48 161.98 113.81 161.22 112.92 161.17 C 112.04 161.12 111.28 161.79 111.23 162.67 Z M 111.17 163.68 L 111.11 164.68 C 111.06 165.56 111.73 166.32 112.61 166.37 C 113.50 166.42 114.26 165.75 114.31 164.87 L 114.37 163.86 C 114.42 162.98 113.74 162.22 112.86 162.17 C 111.98 162.12 111.22 162.79 111.17 163.68 Z M 111.11 164.68 L 111.05 165.69 C 111.00 166.57 111.68 167.33 112.56 167.38 C 113.45 167.43 114.20 166.75 114.25 165.87 L 114.31 164.86 C 114.36 163.98 113.68 163.22 112.80 163.17 C 111.91 163.12 111.16 163.80 111.11 164.68 Z M 111.05 165.69 L 110.99 166.69 C 110.94 167.58 111.62 168.34 112.51 168.38 C 113.39 168.43 114.15 167.75 114.20 166.87 L 114.26 165.86 C 114.31 164.98 113.63 164.22 112.74 164.17 C 111.85 164.12 111.09 164.80 111.05 165.69 Z M 110.99 166.69 L 110.93 167.69 C 110.89 168.58 111.57 169.34 112.45 169.39 C 113.34 169.44 114.10 168.75 114.15 167.87 L 114.20 166.87 C 114.25 165.98 113.57 165.22 112.68 165.17 C 111.79 165.12 111.04 165.80 110.99 166.69 Z M 110.93 167.69 L 110.88 168.69 C 110.83 169.58 111.51 170.34 112.40 170.39 C 113.29 170.43 114.05 169.75 114.10 168.86 L 114.15 167.87 C 114.20 166.98 113.52 166.22 112.63 166.17 C 111.74 166.12 110.98 166.80 110.93 167.69 Z M 110.88 168.69 L 110.82 169.68 C 110.78 170.58 111.46 171.34 112.35 171.38 C 113.24 171.43 114.00 170.75 114.05 169.85 L 114.10 168.86 C 114.15 167.97 113.46 167.21 112.57 167.16 C 111.68 167.12 110.92 167.80 110.88 168.69 Z M 110.82 169.68 L 110.77 170.67 C 110.72 171.56 111.41 172.33 112.30 172.37 C 113.19 172.42 113.95 171.73 114.00 170.84 L 114.05 169.86 C 114.10 168.96 113.41 168.20 112.52 168.15 C 111.63 168.11 110.87 168.79 110.82 169.68 Z M 110.77 170.67 L 110.71 171.68 C 110.66 172.58 111.35 173.34 112.24 173.39 C 113.14 173.44 113.90 172.75 113.95 171.86 L 114.00 170.84 C 114.05 169.95 113.36 169.19 112.47 169.14 C 111.58 169.09 110.81 169.78 110.77 170.67 Z M 110.71 171.68 L 110.66 172.69 C 110.61 173.58 111.29 174.35 112.19 174.40 C 113.08 174.44 113.85 173.76 113.89 172.86 L 113.95 171.86 C 114.00 170.96 113.31 170.20 112.42 170.15 C 111.52 170.10 110.76 170.79 110.71 171.68 Z M 110.66 172.69 L 110.60 173.69 C 110.55 174.59 111.24 175.35 112.13 175.40 C 113.03 175.45 113.79 174.76 113.84 173.87 L 113.90 172.86 C 113.94 171.97 113.26 171.20 112.36 171.16 C 111.47 171.11 110.70 171.79 110.66 172.69 Z M 110.60 173.69 L 110.55 174.69 C 110.50 175.58 111.18 176.35 112.08 176.40 C 112.98 176.45 113.74 175.76 113.79 174.86 L 113.84 173.87 C 113.89 172.97 113.21 172.20 112.31 172.16 C 111.41 172.11 110.65 172.79 110.60 173.69 Z M 110.54 174.69 L 110.49 175.68 C 110.44 176.58 111.13 177.34 112.03 177.39 C 112.92 177.44 113.69 176.75 113.74 175.86 L 113.79 174.86 C 113.84 173.97 113.15 173.20 112.26 173.15 C 111.36 173.10 110.59 173.79 110.54 174.69 Z M 110.49 175.68 L 110.44 176.67 C 110.39 177.57 111.07 178.34 111.97 178.38 C 112.87 178.43 113.64 177.75 113.68 176.85 L 113.74 175.86 C 113.79 174.96 113.10 174.19 112.20 174.14 C 111.30 174.09 110.54 174.78 110.49 175.68 Z M 110.43 176.67 L 110.38 177.66 C 110.33 178.56 111.02 179.33 111.92 179.38 C 112.82 179.43 113.58 178.74 113.63 177.84 L 113.69 176.85 C 113.74 175.95 113.05 175.18 112.15 175.13 C 111.25 175.08 110.48 175.77 110.43 176.67 Z M 110.38 177.66 L 110.32 178.70 C 110.27 179.60 110.96 180.37 111.86 180.41 C 112.76 180.46 113.53 179.77 113.58 178.87 L 113.63 177.84 C 113.68 176.94 112.99 176.17 112.09 176.12 C 111.20 176.07 110.43 176.76 110.38 177.66 Z M 110.32 178.70 L 110.26 179.75 C 110.21 180.66 110.90 181.43 111.80 181.47 C 112.70 181.52 113.47 180.83 113.52 179.93 L 113.58 178.87 C 113.63 177.97 112.94 177.20 112.04 177.15 C 111.14 177.11 110.37 177.80 110.32 178.70 Z M 110.26 179.76 L 110.20 180.80 C 110.15 181.70 110.85 182.47 111.75 182.52 C 112.65 182.57 113.42 181.88 113.47 180.98 L 113.53 179.93 C 113.58 179.03 112.88 178.26 111.98 178.21 C 111.08 178.16 110.31 178.85 110.26 179.76 Z M 110.20 180.80 L 110.14 181.82 C 110.10 182.73 110.79 183.50 111.70 183.55 C 112.60 183.60 113.37 182.90 113.42 182.00 L 113.47 180.97 C 113.52 180.07 112.83 179.30 111.92 179.25 C 111.02 179.20 110.24 179.90 110.20 180.80 Z M 110.14 181.83 L 110.09 182.82 C 110.04 183.73 110.74 184.50 111.65 184.54 C 112.55 184.59 113.33 183.89 113.37 182.99 L 113.42 181.99 C 113.47 181.09 112.77 180.31 111.87 180.27 C 110.96 180.22 110.19 180.92 110.14 181.83 Z M 110.09 182.82 L 110.04 183.78 C 109.99 184.68 110.69 185.46 111.60 185.50 C 112.51 185.55 113.29 184.85 113.33 183.94 L 113.38 182.98 C 113.42 182.07 112.72 181.30 111.81 181.26 C 110.90 181.21 110.13 181.91 110.09 182.82 Z M 110.03 183.78 L 109.99 184.69 C 109.95 185.60 110.65 186.37 111.56 186.41 C 112.48 186.46 113.25 185.75 113.29 184.84 L 113.33 183.93 C 113.38 183.02 112.67 182.25 111.76 182.21 C 110.85 182.16 110.08 182.87 110.03 183.78 Z M 109.99 184.69 L 109.94 185.79 C 109.90 186.70 110.61 187.47 111.52 187.51 C 112.44 187.55 113.21 186.84 113.25 185.93 L 113.29 184.84 C 113.33 183.92 112.63 183.15 111.71 183.11 C 110.80 183.07 110.03 183.78 109.99 184.69 Z M 109.94 185.80 L 109.90 186.87 C 109.87 187.79 110.58 188.56 111.49 188.59 C 112.40 188.62 113.17 187.91 113.21 187.00 L 113.25 185.92 C 113.28 185.01 112.57 184.24 111.66 184.21 C 110.74 184.17 109.98 184.88 109.94 185.80 Z M 109.90 186.88 L 109.87 187.88 C 109.84 188.80 110.56 189.56 111.47 189.59 C 112.38 189.62 113.15 188.90 113.18 187.99 L 113.21 186.99 C 113.24 186.08 112.52 185.31 111.61 185.28 C 110.69 185.25 109.93 185.97 109.90 186.88 Z M 109.87 187.89 L 109.84 188.83 C 109.82 189.74 110.54 190.50 111.46 190.53 C 112.37 190.55 113.13 189.83 113.15 188.91 L 113.18 187.98 C 113.20 187.06 112.48 186.30 111.56 186.28 C 110.65 186.26 109.89 186.98 109.87 187.89 Z M 109.84 188.84 L 109.83 189.73 C 109.81 190.64 110.53 191.40 111.45 191.42 C 112.36 191.43 113.12 190.71 113.14 189.79 L 113.15 188.90 C 113.17 187.99 112.44 187.23 111.53 187.22 C 110.62 187.20 109.86 187.93 109.84 188.84 Z M 109.82 189.74 L 109.81 190.76 C 109.80 191.67 110.53 192.42 111.45 192.43 C 112.36 192.45 113.11 191.72 113.12 190.80 L 113.14 189.78 C 113.15 188.87 112.42 188.12 111.50 188.11 C 110.59 188.09 109.84 188.82 109.82 189.74 Z M 109.81 190.77 L 109.80 191.79 C 109.79 192.70 110.53 193.45 111.45 193.46 C 112.36 193.47 113.11 192.73 113.12 191.81 L 113.13 190.79 C 113.13 189.87 112.40 189.13 111.48 189.12 C 110.56 189.11 109.81 189.85 109.81 190.77 Z M 109.80 191.80 L 109.79 192.78 C 109.79 193.70 110.53 194.45 111.45 194.45 C 112.37 194.45 113.12 193.71 113.12 192.79 L 113.12 191.81 C 113.13 190.89 112.38 190.14 111.46 190.14 C 110.55 190.13 109.80 190.88 109.80 191.80 Z M 109.79 192.79 L 109.79 193.75 C 109.79 194.67 110.53 195.41 111.45 195.41 C 112.38 195.42 113.12 194.67 113.12 193.75 L 113.12 192.79 C 113.12 191.87 112.38 191.12 111.46 191.12 C 110.54 191.12 109.79 191.87 109.79 192.79 Z M 109.79 193.75 L 109.79 194.77 C 109.79 195.69 110.53 196.44 111.46 196.44 C 112.38 196.44 113.12 195.69 113.12 194.77 L 113.12 193.75 C 113.12 192.83 112.38 192.08 111.46 192.08 C 110.53 192.08 109.79 192.83 109.79 193.75 Z M 109.79 194.78 L 109.79 195.80 C 109.79 196.72 110.54 197.46 111.46 197.46 C 112.38 197.46 113.13 196.71 113.12 195.79 L 113.12 194.77 C 113.12 193.85 112.37 193.10 111.45 193.11 C 110.53 193.11 109.79 193.86 109.79 194.78 Z M 109.80 195.81 L 109.80 196.79 C 109.81 197.71 110.56 198.45 111.48 198.44 C 112.40 198.43 113.14 197.68 113.13 196.76 L 113.12 195.78 C 113.11 194.86 112.36 194.12 111.45 194.13 C 110.53 194.14 109.79 194.89 109.80 195.81 Z M 109.81 196.80 L 109.82 197.75 C 109.84 198.67 110.59 199.40 111.51 199.38 C 112.43 199.36 113.16 198.61 113.14 197.69 L 113.13 196.75 C 113.11 195.83 112.36 195.10 111.44 195.11 C 110.52 195.13 109.79 195.89 109.81 196.80 Z M 109.82 197.78 L 109.86 198.71 C 109.89 199.62 110.66 200.34 111.58 200.30 C 112.49 200.27 113.21 199.50 113.18 198.59 L 113.14 197.66 C 113.11 196.74 112.34 196.03 111.42 196.06 C 110.50 196.10 109.79 196.87 109.82 197.78 Z M 109.86 198.78 L 109.94 199.74 C 110.01 200.65 110.81 201.34 111.73 201.26 C 112.64 201.19 113.32 200.39 113.25 199.47 L 113.17 198.51 C 113.10 197.60 112.30 196.92 111.38 196.99 C 110.47 197.06 109.79 197.87 109.86 198.78 Z M 109.95 199.84 L 110.10 200.89 C 110.22 201.80 111.06 202.44 111.97 202.31 C 112.88 202.18 113.51 201.34 113.39 200.43 L 113.24 199.38 C 113.11 198.47 112.27 197.83 111.36 197.96 C 110.45 198.09 109.82 198.93 109.95 199.84 Z M 110.11 200.98 L 110.30 201.93 C 110.47 202.83 111.34 203.42 112.24 203.24 C 113.14 203.07 113.73 202.20 113.56 201.29 L 113.37 200.35 C 113.20 199.45 112.32 198.86 111.42 199.03 C 110.52 199.21 109.94 200.08 110.11 200.98 Z M 110.31 201.98 L 110.52 202.89 C 110.73 203.79 111.61 204.34 112.51 204.14 C 113.40 203.93 113.96 203.04 113.75 202.15 L 113.54 201.24 C 113.34 200.35 112.45 199.79 111.56 200.00 C 110.66 200.20 110.11 201.09 110.31 201.98 Z M 110.53 202.93 L 110.78 203.90 C 111.00 204.78 111.90 205.32 112.78 205.10 C 113.67 204.87 114.20 203.98 113.98 203.09 L 113.74 202.12 C 113.52 201.24 112.62 200.70 111.73 200.92 C 110.85 201.14 110.31 202.04 110.53 202.93 Z M 110.79 203.92 L 111.05 204.93 C 111.29 205.81 112.19 206.33 113.07 206.10 C 113.95 205.87 114.47 204.96 114.24 204.08 L 113.97 203.07 C 113.74 202.19 112.84 201.67 111.96 201.90 C 111.08 202.13 110.55 203.04 110.79 203.92 Z M 111.06 204.94 L 111.34 205.97 C 111.58 206.85 112.49 207.37 113.36 207.13 C 114.24 206.89 114.75 205.98 114.52 205.11 L 114.23 204.07 C 113.99 203.20 113.09 202.68 112.21 202.92 C 111.34 203.16 110.82 204.06 111.06 204.94 Z M 111.35 205.98 L 111.47 206.40 C 111.71 207.28 112.61 207.79 113.48 207.55 C 114.36 207.31 114.87 206.41 114.63 205.54 L 114.51 205.11 C 114.27 204.23 113.37 203.72 112.49 203.96 C 111.62 204.20 111.11 205.10 111.35 205.98 Z"
      fill="black"
      fill-rule="nonzero" /><path d="M 114.53 222.86 L 113.46 222.75 C 112.60 222.66 111.83 223.28 111.74 224.14 C 111.65 225.00 112.28 225.76 113.14 225.85 L 114.21 225.96 C 115.07 226.05 115.84 225.43 115.93 224.57 C 116.02 223.71 115.39 222.95 114.53 222.86 Z M 113.24 222.74 L 112.25 222.78 C 111.38 222.81 110.71 223.53 110.75 224.40 C 110.78 225.26 111.50 225.93 112.37 225.90 L 113.36 225.86 C 114.22 225.83 114.89 225.10 114.86 224.24 C 114.82 223.38 114.10 222.71 113.24 222.74 Z M 111.70 222.90 L 110.85 223.25 C 110.06 223.59 109.69 224.50 110.02 225.30 C 110.36 226.09 111.27 226.47 112.07 226.13 L 112.91 225.78 C 113.71 225.44 114.08 224.52 113.74 223.73 C 113.41 222.94 112.49 222.56 111.70 222.90 Z M 110.23 223.73 L 109.48 224.69 C 108.94 225.37 109.06 226.35 109.74 226.88 C 110.41 227.42 111.39 227.30 111.93 226.62 L 112.69 225.66 C 113.22 224.98 113.10 224.00 112.43 223.47 C 111.75 222.93 110.77 223.05 110.23 223.73 Z M 109.41 224.78 L 109.06 225.30 C 108.57 226.01 108.76 226.98 109.47 227.47 C 110.18 227.95 111.15 227.77 111.64 227.06 L 111.99 226.53 C 112.48 225.82 112.29 224.85 111.58 224.37 C 110.87 223.88 109.90 224.06 109.41 224.78 Z M 111.90 226.07 L 111.87 225.54 C 111.81 224.68 111.06 224.03 110.20 224.09 C 109.34 224.15 108.69 224.90 108.75 225.76 L 108.79 226.29 C 108.85 227.15 109.60 227.79 110.46 227.73 C 111.32 227.67 111.96 226.93 111.90 226.07 Z M 111.84 225.96 L 112.07 224.80 C 112.25 223.95 111.70 223.13 110.85 222.96 C 110.01 222.79 109.19 223.34 109.01 224.18 L 108.78 225.34 C 108.61 226.19 109.16 227.01 110.00 227.18 C 110.85 227.35 111.67 226.80 111.84 225.96 Z M 112.00 225.05 L 112.45 223.89 C 112.76 223.08 112.37 222.18 111.56 221.87 C 110.76 221.56 109.85 221.95 109.54 222.76 L 109.09 223.92 C 108.78 224.73 109.18 225.63 109.98 225.95 C 110.78 226.26 111.69 225.86 112.00 225.05 Z M 112.35 224.10 L 112.86 223.22 C 113.28 222.47 113.03 221.52 112.28 221.09 C 111.53 220.66 110.58 220.92 110.15 221.67 L 109.64 222.55 C 109.21 223.29 109.47 224.25 110.22 224.68 C 110.97 225.11 111.92 224.85 112.35 224.10 Z M 112.75 223.38 L 113.36 222.57 C 113.88 221.88 113.74 220.90 113.05 220.38 C 112.36 219.86 111.39 220.00 110.87 220.69 L 110.25 221.51 C 109.73 222.20 109.87 223.17 110.56 223.69 C 111.25 224.21 112.23 224.07 112.75 223.38 Z M 113.23 222.72 L 113.93 222.01 C 114.53 221.39 114.52 220.41 113.91 219.80 C 113.29 219.20 112.31 219.21 111.70 219.82 L 111.00 220.53 C 110.40 221.15 110.41 222.14 111.02 222.74 C 111.64 223.34 112.62 223.34 113.23 222.72 Z M 113.73 222.18 L 114.56 221.58 C 115.26 221.07 115.42 220.09 114.91 219.40 C 114.41 218.70 113.43 218.54 112.73 219.05 L 111.90 219.65 C 111.20 220.16 111.05 221.13 111.55 221.83 C 112.06 222.53 113.03 222.69 113.73 222.18 Z M 114.24 221.76 L 115.23 221.35 C 116.03 221.03 116.41 220.12 116.08 219.32 C 115.76 218.52 114.85 218.14 114.05 218.46 L 113.06 218.87 C 112.26 219.19 111.88 220.10 112.20 220.90 C 112.53 221.70 113.44 222.08 114.24 221.76 Z M 114.70 221.47 L 115.64 221.43 C 116.50 221.40 117.17 220.67 117.14 219.81 C 117.10 218.95 116.38 218.28 115.52 218.31 L 114.58 218.35 C 113.71 218.38 113.04 219.11 113.08 219.97 C 113.11 220.83 113.84 221.50 114.70 221.47 Z M 114.92 221.28 L 115.71 221.66 C 116.49 222.02 117.42 221.68 117.79 220.90 C 118.15 220.12 117.82 219.19 117.04 218.83 L 116.24 218.46 C 115.46 218.09 114.53 218.43 114.16 219.21 C 113.80 219.99 114.14 220.92 114.92 221.28 Z M 115.16 221.22 L 115.73 221.93 C 116.27 222.60 117.25 222.70 117.92 222.16 C 118.59 221.61 118.70 220.63 118.16 219.96 L 117.59 219.26 C 117.05 218.59 116.06 218.49 115.39 219.03 C 114.72 219.57 114.62 220.55 115.16 221.22 Z M 115.52 221.58 L 115.93 222.51 C 116.28 223.30 117.21 223.65 117.99 223.30 C 118.78 222.95 119.13 222.02 118.78 221.24 L 118.37 220.31 C 118.02 219.52 117.09 219.17 116.30 219.52 C 115.52 219.87 115.16 220.79 115.52 221.58 Z M 115.85 222.28 L 116.13 223.31 C 116.35 224.14 117.21 224.64 118.04 224.41 C 118.88 224.18 119.37 223.33 119.14 222.49 L 118.86 221.47 C 118.64 220.63 117.78 220.14 116.95 220.37 C 116.12 220.59 115.63 221.45 115.85 222.28 Z M 116.09 223.14 L 116.25 224.21 C 116.38 225.06 117.18 225.65 118.03 225.52 C 118.88 225.39 119.47 224.60 119.34 223.74 L 119.18 222.67 C 119.05 221.82 118.26 221.23 117.40 221.36 C 116.55 221.49 115.96 222.28 116.09 223.14 Z M 116.24 224.00 L 116.25 225.02 C 116.26 225.88 116.97 226.57 117.83 226.56 C 118.69 226.55 119.38 225.84 119.37 224.98 L 119.36 223.96 C 119.35 223.09 118.64 222.40 117.78 222.42 C 116.92 222.43 116.23 223.13 116.24 224.00 Z M 116.27 224.72 L 116.11 225.65 C 115.95 226.50 116.52 227.31 117.36 227.47 C 118.21 227.62 119.03 227.06 119.18 226.21 L 119.35 225.28 C 119.50 224.43 118.94 223.62 118.09 223.46 C 117.24 223.31 116.43 223.87 116.27 224.72 Z M 116.22 225.30 L 115.82 226.18 C 115.47 226.97 115.83 227.89 116.62 228.24 C 117.40 228.59 118.33 228.24 118.68 227.45 L 119.07 226.56 C 119.42 225.78 119.06 224.85 118.28 224.50 C 117.49 224.15 116.57 224.51 116.22 225.30 Z M 116.04 225.83 L 115.40 226.61 C 114.85 227.28 114.96 228.26 115.62 228.81 C 116.29 229.35 117.28 229.25 117.82 228.59 L 118.46 227.80 C 119.01 227.13 118.90 226.15 118.24 225.60 C 117.57 225.06 116.58 225.16 116.04 225.83 Z M 115.75 226.29 L 114.93 226.83 C 114.21 227.30 114.01 228.27 114.49 228.99 C 114.96 229.71 115.93 229.91 116.65 229.44 L 117.47 228.90 C 118.19 228.43 118.39 227.46 117.91 226.74 C 117.44 226.02 116.47 225.82 115.75 226.29 Z M 115.48 226.61 L 114.54 226.80 C 113.69 226.97 113.15 227.79 113.32 228.64 C 113.49 229.48 114.31 230.03 115.15 229.86 L 116.10 229.67 C 116.94 229.50 117.49 228.67 117.32 227.83 C 117.15 226.98 116.33 226.44 115.48 226.61 Z M 115.16 226.80 L 114.19 226.60 C 113.35 226.43 112.52 226.97 112.35 227.82 C 112.18 228.66 112.73 229.49 113.57 229.66 L 114.53 229.86 C 115.38 230.03 116.20 229.48 116.38 228.64 C 116.55 227.79 116.00 226.97 115.16 226.80 Z M 114.76 226.84 L 113.92 226.27 C 113.21 225.79 112.24 225.98 111.76 226.69 C 111.27 227.41 111.46 228.38 112.17 228.86 L 113.01 229.42 C 113.72 229.91 114.69 229.72 115.17 229.00 C 115.66 228.29 115.47 227.32 114.76 226.84 Z M 114.34 226.69 L 113.83 225.93 C 113.35 225.22 112.37 225.03 111.66 225.52 C 110.95 226.00 110.76 226.97 111.24 227.68 L 111.76 228.44 C 112.24 229.16 113.21 229.34 113.92 228.86 C 114.64 228.38 114.83 227.41 114.34 226.69 Z M 114.01 226.30 L 113.69 225.38 C 113.41 224.57 112.52 224.14 111.71 224.42 C 110.89 224.70 110.46 225.59 110.74 226.40 L 111.06 227.32 C 111.34 228.13 112.23 228.57 113.05 228.28 C 113.86 228.00 114.29 227.11 114.01 226.30 Z M 113.76 225.61 L 113.57 224.58 C 113.41 223.73 112.60 223.17 111.75 223.32 C 110.90 223.47 110.34 224.29 110.50 225.13 L 110.68 226.17 C 110.84 227.02 111.65 227.58 112.50 227.43 C 113.35 227.27 113.91 226.46 113.76 225.61 Z M 113.59 224.71 L 113.48 223.64 C 113.40 222.78 112.64 222.15 111.78 222.23 C 110.92 222.31 110.29 223.07 110.38 223.93 L 110.48 225.00 C 110.56 225.86 111.32 226.49 112.18 226.41 C 113.04 226.33 113.67 225.57 113.59 224.71 Z M 113.49 223.74 L 113.46 222.70 C 113.44 221.84 112.72 221.16 111.86 221.18 C 111.00 221.20 110.32 221.92 110.34 222.78 L 110.37 223.83 C 110.39 224.69 111.11 225.37 111.97 225.34 C 112.83 225.32 113.51 224.60 113.49 223.74 Z M 113.46 222.86 L 113.53 221.86 C 113.60 221.00 112.95 220.25 112.09 220.18 C 111.23 220.12 110.48 220.76 110.42 221.62 L 110.34 222.62 C 110.28 223.48 110.93 224.23 111.78 224.30 C 112.64 224.36 113.39 223.72 113.46 222.86 Z M 113.50 222.10 L 113.71 221.18 C 113.91 220.34 113.38 219.50 112.54 219.31 C 111.71 219.11 110.87 219.63 110.67 220.47 L 110.46 221.39 C 110.26 222.23 110.78 223.06 111.62 223.26 C 112.46 223.46 113.30 222.94 113.50 222.10 Z M 113.56 221.57 L 114.11 220.56 C 114.52 219.80 114.24 218.85 113.48 218.44 C 112.73 218.03 111.78 218.31 111.37 219.07 L 110.82 220.08 C 110.41 220.84 110.69 221.79 111.45 222.20 C 112.20 222.61 113.15 222.33 113.56 221.57 Z M 113.61 221.11 L 114.36 220.60 C 115.08 220.12 115.27 219.15 114.78 218.44 C 114.30 217.72 113.33 217.53 112.62 218.01 L 111.87 218.52 C 111.15 219.00 110.96 219.97 111.44 220.68 C 111.93 221.40 112.90 221.59 113.61 221.11 Z M 112.89 220.75 L 113.54 221.02 C 114.34 221.35 115.25 220.97 115.58 220.17 C 115.91 219.37 115.53 218.46 114.73 218.13 L 114.08 217.86 C 113.29 217.54 112.38 217.92 112.05 218.71 C 111.72 219.51 112.10 220.42 112.89 220.75 Z M 112.80 220.38 L 113.23 221.09 C 113.67 221.83 114.63 222.07 115.37 221.63 C 116.11 221.18 116.35 220.22 115.91 219.48 L 115.48 218.77 C 115.03 218.03 114.07 217.79 113.33 218.24 C 112.59 218.68 112.36 219.64 112.80 220.38 Z M 113.09 220.80 L 113.44 221.80 C 113.72 222.62 114.61 223.05 115.42 222.77 C 116.24 222.49 116.67 221.60 116.39 220.79 L 116.04 219.78 C 115.76 218.97 114.88 218.53 114.06 218.81 C 113.24 219.09 112.81 219.98 113.09 220.80 Z M 113.39 221.64 L 113.65 222.78 C 113.83 223.62 114.67 224.15 115.51 223.97 C 116.35 223.78 116.88 222.95 116.69 222.10 L 116.44 220.96 C 116.25 220.12 115.42 219.59 114.58 219.77 C 113.73 219.96 113.20 220.79 113.39 221.64 Z M 113.62 222.65 L 113.77 223.74 C 113.88 224.60 114.67 225.19 115.52 225.08 C 116.38 224.96 116.98 224.18 116.86 223.32 L 116.72 222.23 C 116.60 221.38 115.81 220.78 114.96 220.90 C 114.11 221.01 113.51 221.80 113.62 222.65 Z M 113.75 223.55 L 113.77 224.57 C 113.78 225.43 114.49 226.12 115.35 226.11 C 116.22 226.10 116.90 225.39 116.89 224.53 L 116.88 223.51 C 116.86 222.65 116.16 221.96 115.29 221.97 C 114.43 221.98 113.74 222.69 113.75 223.55 Z M 113.79 224.28 L 113.63 225.23 C 113.48 226.08 114.05 226.89 114.90 227.03 C 115.75 227.18 116.55 226.61 116.70 225.77 L 116.87 224.82 C 117.02 223.97 116.45 223.16 115.60 223.01 C 114.75 222.86 113.94 223.43 113.79 224.28 Z M 113.75 224.84 L 113.35 225.71 C 112.99 226.49 113.33 227.42 114.12 227.78 C 114.90 228.14 115.83 227.80 116.19 227.01 L 116.58 226.15 C 116.94 225.37 116.60 224.44 115.82 224.08 C 115.03 223.72 114.11 224.06 113.75 224.84 Z M 113.60 225.33 L 112.87 226.15 C 112.29 226.80 112.35 227.79 113.00 228.36 C 113.65 228.93 114.63 228.87 115.20 228.22 L 115.94 227.40 C 116.51 226.75 116.45 225.76 115.80 225.19 C 115.16 224.62 114.17 224.68 113.60 225.33 Z M 113.16 225.89 L 112.26 226.50 C 111.54 226.98 111.35 227.95 111.83 228.67 C 112.32 229.38 113.29 229.57 114.00 229.09 L 114.91 228.48 C 115.62 228.00 115.81 227.03 115.33 226.32 C 114.85 225.60 113.88 225.41 113.16 225.89 Z M 112.67 226.31 L 111.79 226.58 C 110.97 226.83 110.51 227.71 110.77 228.53 C 111.02 229.36 111.90 229.82 112.72 229.56 L 113.59 229.29 C 114.42 229.03 114.88 228.16 114.62 227.33 C 114.36 226.51 113.49 226.05 112.67 226.31 Z M 112.71 226.57 L 112.04 226.37 C 111.21 226.12 110.34 226.59 110.09 227.41 C 109.84 228.24 110.31 229.11 111.13 229.36 L 111.80 229.56 C 112.63 229.81 113.50 229.35 113.75 228.52 C 114.00 227.70 113.54 226.82 112.71 226.57 Z M 112.99 227.19 L 112.63 226.43 C 112.25 225.65 111.32 225.33 110.55 225.70 C 109.77 226.07 109.44 227.01 109.81 227.78 L 110.18 228.54 C 110.55 229.32 111.48 229.64 112.26 229.27 C 113.04 228.90 113.36 227.97 112.99 227.19 Z M 112.77 226.93 L 112.65 225.84 C 112.55 224.98 111.78 224.36 110.92 224.46 C 110.07 224.56 109.45 225.33 109.55 226.18 L 109.67 227.28 C 109.76 228.14 110.54 228.75 111.39 228.66 C 112.25 228.56 112.87 227.79 112.77 226.93 Z M 112.66 225.98 L 112.63 224.83 C 112.62 223.97 111.90 223.29 111.04 223.30 C 110.18 223.32 109.49 224.04 109.51 224.90 L 109.54 226.04 C 109.56 226.91 110.27 227.59 111.13 227.57 C 111.99 227.55 112.68 226.84 112.66 225.98 Z M 112.63 224.89 L 112.65 223.85 C 112.67 222.98 111.98 222.27 111.12 222.26 C 110.26 222.24 109.55 222.93 109.53 223.79 L 109.51 224.84 C 109.50 225.70 110.18 226.41 111.04 226.43 C 111.91 226.44 112.62 225.76 112.63 224.89 Z M 112.64 223.99 L 112.75 223.01 C 112.85 222.15 112.23 221.38 111.38 221.29 C 110.52 221.19 109.75 221.80 109.65 222.66 L 109.54 223.64 C 109.44 224.50 110.06 225.27 110.92 225.37 C 111.77 225.47 112.55 224.85 112.64 223.99 Z M 112.70 223.28 L 112.97 222.37 C 113.21 221.55 112.74 220.68 111.92 220.43 C 111.09 220.19 110.22 220.66 109.98 221.48 L 109.71 222.39 C 109.46 223.22 109.93 224.09 110.76 224.33 C 111.58 224.58 112.45 224.11 112.70 223.28 Z M 112.76 222.81 L 113.43 221.84 C 113.92 221.13 113.74 220.16 113.03 219.67 C 112.32 219.18 111.34 219.36 110.86 220.07 L 110.19 221.04 C 109.70 221.76 109.88 222.73 110.59 223.22 C 111.30 223.70 112.27 223.53 112.76 222.81 Z M 112.75 222.39 L 113.48 222.08 C 114.28 221.74 114.65 220.83 114.31 220.03 C 113.97 219.24 113.05 218.87 112.26 219.21 L 111.53 219.52 C 110.74 219.86 110.37 220.77 110.71 221.57 C 111.04 222.36 111.96 222.73 112.75 222.39 Z M 111.73 221.71 L 112.16 222.17 C 112.74 222.80 113.73 222.84 114.36 222.25 C 114.99 221.66 115.03 220.67 114.44 220.04 L 114.02 219.58 C 113.43 218.95 112.44 218.91 111.81 219.50 C 111.18 220.09 111.14 221.08 111.73 221.71 Z M 111.78 221.44 L 111.99 222.40 C 112.17 223.24 113.01 223.77 113.85 223.58 C 114.69 223.40 115.22 222.56 115.04 221.72 L 114.82 220.77 C 114.64 219.93 113.81 219.39 112.96 219.58 C 112.12 219.77 111.59 220.60 111.78 221.44 Z M 111.95 222.14 L 112.02 223.38 C 112.06 224.24 112.80 224.90 113.66 224.86 C 114.52 224.81 115.18 224.08 115.14 223.21 L 115.07 221.98 C 115.02 221.11 114.29 220.45 113.43 220.50 C 112.57 220.55 111.91 221.28 111.95 222.14 Z M 112.02 223.25 L 111.98 224.45 C 111.95 225.31 112.63 226.03 113.49 226.05 C 114.35 226.08 115.07 225.41 115.10 224.54 L 115.14 223.35 C 115.16 222.48 114.49 221.76 113.63 221.74 C 112.76 221.71 112.04 222.39 112.02 223.25 Z M 111.99 224.27 L 111.84 225.33 C 111.72 226.19 112.31 226.98 113.16 227.10 C 114.01 227.23 114.81 226.64 114.93 225.78 L 115.08 224.72 C 115.21 223.87 114.62 223.07 113.76 222.95 C 112.91 222.83 112.12 223.42 111.99 224.27 Z M 111.94 224.96 L 111.63 225.72 C 111.30 226.52 111.68 227.43 112.48 227.76 C 113.27 228.09 114.19 227.71 114.52 226.91 L 114.83 226.15 C 115.16 225.35 114.78 224.44 113.98 224.11 C 113.18 223.79 112.27 224.17 111.94 224.96 Z M 112.41 224.90 L 111.75 225.21 C 110.97 225.58 110.63 226.51 111.00 227.29 C 111.37 228.07 112.30 228.41 113.08 228.04 L 113.74 227.73 C 114.52 227.36 114.85 226.43 114.48 225.65 C 114.12 224.87 113.19 224.54 112.41 224.90 Z M 112.86 225.13 L 111.91 224.85 C 111.09 224.60 110.22 225.07 109.97 225.90 C 109.72 226.72 110.19 227.59 111.02 227.84 L 111.97 228.12 C 112.79 228.37 113.66 227.90 113.91 227.07 C 114.16 226.25 113.69 225.38 112.86 225.13 Z M 112.17 224.95 L 111.50 224.61 C 110.73 224.22 109.79 224.53 109.40 225.30 C 109.01 226.07 109.32 227.01 110.09 227.39 L 110.76 227.74 C 111.53 228.12 112.47 227.82 112.86 227.05 C 113.25 226.28 112.94 225.34 112.17 224.95 Z"
      fill="black"
      fill-rule="nonzero" /><path d="M 184.08 79.39 L 183.51 80.15 C 182.99 80.83 183.12 81.81 183.80 82.34 C 184.49 82.86 185.47 82.73 185.99 82.04 L 186.57 81.28 C 187.09 80.60 186.96 79.62 186.27 79.10 C 185.58 78.57 184.61 78.71 184.08 79.39 Z M 183.47 80.20 L 182.92 80.99 C 182.42 81.70 182.59 82.67 183.30 83.17 C 184.01 83.66 184.98 83.49 185.47 82.78 L 186.03 81.99 C 186.52 81.28 186.35 80.31 185.65 79.81 C 184.94 79.32 183.97 79.49 183.47 80.20 Z M 182.85 81.09 L 182.34 81.96 C 181.90 82.70 182.14 83.66 182.89 84.10 C 183.63 84.54 184.59 84.29 185.02 83.55 L 185.54 82.68 C 185.98 81.94 185.73 80.98 184.99 80.54 C 184.25 80.10 183.29 80.35 182.85 81.09 Z M 182.26 82.10 L 181.82 83.06 C 181.46 83.85 181.80 84.77 182.58 85.14 C 183.36 85.50 184.29 85.16 184.65 84.38 L 185.10 83.41 C 185.46 82.63 185.12 81.70 184.34 81.34 C 183.55 80.98 182.63 81.32 182.26 82.10 Z M 181.76 83.20 L 181.44 84.10 C 181.15 84.92 181.58 85.81 182.40 86.10 C 183.21 86.39 184.10 85.96 184.39 85.14 L 184.71 84.24 C 185.00 83.42 184.57 82.53 183.75 82.24 C 182.94 81.96 182.05 82.38 181.76 83.20 Z M 181.41 84.20 L 181.13 85.17 C 180.90 86.00 181.39 86.87 182.22 87.10 C 183.06 87.34 183.92 86.85 184.16 86.01 L 184.43 85.05 C 184.66 84.21 184.17 83.35 183.34 83.11 C 182.50 82.88 181.64 83.37 181.41 84.20 Z M 181.11 85.24 L 180.88 86.24 C 180.69 87.09 181.22 87.93 182.07 88.13 C 182.91 88.32 183.76 87.79 183.95 86.94 L 184.18 85.94 C 184.37 85.09 183.84 84.25 183.00 84.06 C 182.15 83.86 181.30 84.40 181.11 85.24 Z M 180.87 86.30 L 180.68 87.30 C 180.51 88.16 181.07 88.98 181.93 89.14 C 182.79 89.31 183.61 88.75 183.78 87.89 L 183.97 86.89 C 184.13 86.03 183.57 85.21 182.71 85.04 C 181.86 84.88 181.03 85.44 180.87 86.30 Z M 180.66 87.34 L 180.50 88.34 C 180.36 89.20 180.95 90.02 181.81 90.16 C 182.67 90.30 183.48 89.71 183.62 88.85 L 183.79 87.85 C 183.93 86.99 183.34 86.17 182.48 86.03 C 181.62 85.89 180.81 86.48 180.66 87.34 Z M 180.49 88.38 L 180.35 89.39 C 180.23 90.25 180.84 91.05 181.70 91.18 C 182.57 91.30 183.37 90.69 183.49 89.83 L 183.63 88.82 C 183.75 87.95 183.15 87.15 182.28 87.03 C 181.42 86.90 180.62 87.51 180.49 88.38 Z M 180.35 89.42 L 180.23 90.40 C 180.13 91.27 180.75 92.06 181.62 92.16 C 182.49 92.26 183.28 91.64 183.38 90.77 L 183.50 89.79 C 183.60 88.92 182.98 88.13 182.11 88.03 C 181.24 87.93 180.45 88.55 180.35 89.42 Z M 180.23 90.42 L 180.12 91.39 C 180.03 92.27 180.67 93.05 181.54 93.14 C 182.41 93.23 183.19 92.59 183.28 91.72 L 183.38 90.75 C 183.48 89.88 182.84 89.10 181.97 89.01 C 181.10 88.91 180.32 89.55 180.23 90.42 Z M 180.12 91.41 L 180.03 92.40 C 179.95 93.27 180.59 94.05 181.46 94.13 C 182.34 94.21 183.11 93.57 183.19 92.70 L 183.29 91.71 C 183.37 90.83 182.73 90.06 181.85 89.98 C 180.98 89.89 180.20 90.54 180.12 91.41 Z M 180.03 92.41 L 179.94 93.32 C 179.87 94.20 180.51 94.97 181.39 95.05 C 182.26 95.13 183.04 94.48 183.11 93.60 L 183.20 92.69 C 183.27 91.82 182.63 91.04 181.75 90.96 C 180.88 90.89 180.10 91.53 180.03 92.41 Z M 179.94 93.32 L 179.86 94.27 C 179.78 95.15 180.43 95.92 181.30 96.00 C 182.18 96.08 182.95 95.43 183.03 94.55 L 183.11 93.60 C 183.19 92.73 182.54 91.96 181.67 91.88 C 180.79 91.80 180.02 92.45 179.94 93.32 Z M 179.86 94.27 L 179.77 95.27 C 179.69 96.14 180.34 96.92 181.21 96.99 C 182.09 97.07 182.86 96.43 182.94 95.55 L 183.03 94.56 C 183.11 93.68 182.46 92.91 181.59 92.83 C 180.71 92.75 179.94 93.40 179.86 94.27 Z M 179.77 95.26 L 179.68 96.31 C 179.60 97.18 180.24 97.95 181.12 98.03 C 181.99 98.12 182.76 97.47 182.84 96.60 L 182.94 95.55 C 183.02 94.68 182.38 93.91 181.50 93.83 C 180.63 93.74 179.85 94.39 179.77 95.26 Z M 179.68 96.30 L 179.57 97.37 C 179.49 98.24 180.13 99.02 181.01 99.10 C 181.88 99.19 182.66 98.55 182.74 97.67 L 182.84 96.60 C 182.93 95.73 182.29 94.95 181.41 94.87 C 180.54 94.78 179.76 95.42 179.68 96.30 Z M 179.58 97.36 L 179.48 98.30 C 179.39 99.18 180.03 99.95 180.91 100.04 C 181.78 100.13 182.56 99.49 182.65 98.62 L 182.74 97.68 C 182.83 96.80 182.19 96.02 181.32 95.94 C 180.44 95.85 179.66 96.49 179.58 97.36 Z M 179.48 98.30 L 179.38 99.27 C 179.30 100.14 179.93 100.92 180.81 101.01 C 181.68 101.10 182.46 100.46 182.55 99.59 L 182.65 98.62 C 182.74 97.75 182.10 96.97 181.23 96.88 C 180.35 96.79 179.57 97.42 179.48 98.30 Z M 179.39 99.27 L 179.28 100.27 C 179.20 101.14 179.83 101.92 180.71 102.01 C 181.58 102.09 182.36 101.46 182.45 100.58 L 182.55 99.59 C 182.64 98.72 182.00 97.94 181.13 97.85 C 180.25 97.76 179.47 98.40 179.39 99.27 Z M 179.28 100.27 L 179.18 101.29 C 179.10 102.16 179.74 102.94 180.61 103.02 C 181.48 103.11 182.26 102.47 182.35 101.60 L 182.45 100.58 C 182.53 99.71 181.90 98.93 181.02 98.84 C 180.15 98.76 179.37 99.40 179.28 100.27 Z M 179.18 101.29 L 179.09 102.32 C 179.01 103.20 179.65 103.97 180.52 104.05 C 181.39 104.13 182.17 103.49 182.25 102.62 L 182.35 101.59 C 182.43 100.72 181.79 99.94 180.92 99.86 C 180.04 99.78 179.27 100.42 179.18 101.29 Z M 179.09 102.33 L 179.00 103.35 C 178.92 104.23 179.57 105.00 180.44 105.08 C 181.31 105.15 182.08 104.51 182.16 103.63 L 182.25 102.61 C 182.33 101.74 181.68 100.97 180.81 100.89 C 179.94 100.81 179.16 101.46 179.09 102.33 Z M 179.00 103.37 L 178.92 104.33 C 178.85 105.21 179.50 105.97 180.37 106.04 C 181.25 106.12 182.01 105.46 182.08 104.59 L 182.16 103.62 C 182.23 102.75 181.58 101.98 180.71 101.91 C 179.83 101.84 179.07 102.49 179.00 103.37 Z M 178.92 104.34 L 178.84 105.32 C 178.78 106.19 179.43 106.95 180.31 107.02 C 181.18 107.08 181.95 106.43 182.01 105.55 L 182.08 104.58 C 182.15 103.71 181.49 102.94 180.62 102.88 C 179.74 102.81 178.98 103.47 178.92 104.34 Z M 178.84 105.32 L 178.77 106.31 C 178.71 107.18 179.37 107.94 180.25 108.00 C 181.12 108.07 181.88 107.41 181.94 106.53 L 182.01 105.55 C 182.07 104.67 181.41 103.91 180.54 103.85 C 179.66 103.79 178.90 104.45 178.84 105.32 Z M 178.77 106.31 L 178.71 107.31 C 178.65 108.19 179.31 108.95 180.19 109.01 C 181.06 109.06 181.82 108.40 181.88 107.52 L 181.94 106.52 C 182.00 105.65 181.34 104.89 180.46 104.83 C 179.59 104.77 178.83 105.44 178.77 106.31 Z M 178.70 107.32 L 178.64 108.34 C 178.59 109.21 179.25 109.97 180.13 110.02 C 181.01 110.08 181.76 109.41 181.82 108.53 L 181.88 107.52 C 181.93 106.64 181.27 105.89 180.39 105.83 C 179.51 105.78 178.76 106.44 178.70 107.32 Z M 178.64 108.34 L 178.58 109.38 C 178.52 110.26 179.19 111.01 180.07 111.06 C 180.95 111.12 181.70 110.45 181.75 109.57 L 181.82 108.53 C 181.87 107.65 181.20 106.90 180.32 106.85 C 179.45 106.79 178.69 107.46 178.64 108.34 Z M 178.58 109.38 L 178.52 110.34 C 178.47 111.22 179.14 111.97 180.02 112.02 C 180.89 112.07 181.65 111.40 181.70 110.53 L 181.75 109.57 C 181.81 108.69 181.14 107.94 180.26 107.89 C 179.38 107.83 178.63 108.50 178.58 109.38 Z M 178.52 110.34 L 178.47 111.29 C 178.42 112.17 179.09 112.92 179.96 112.97 C 180.84 113.02 181.59 112.35 181.64 111.48 L 181.70 110.53 C 181.75 109.65 181.08 108.90 180.20 108.85 C 179.32 108.80 178.57 109.47 178.52 110.34 Z M 178.47 111.29 L 178.41 112.27 C 178.36 113.14 179.03 113.89 179.91 113.94 C 180.78 113.99 181.54 113.32 181.58 112.45 L 181.64 111.48 C 181.69 110.60 181.02 109.85 180.15 109.80 C 179.27 109.75 178.52 110.42 178.47 111.29 Z M 178.42 112.27 L 178.36 113.26 C 178.31 114.13 178.98 114.88 179.85 114.93 C 180.73 114.98 181.48 114.31 181.53 113.44 L 181.58 112.45 C 181.63 111.57 180.96 110.82 180.09 110.77 C 179.22 110.72 178.47 111.39 178.42 112.27 Z M 178.36 113.26 L 178.30 114.27 C 178.25 115.14 178.92 115.89 179.80 115.94 C 180.67 115.99 181.42 115.32 181.47 114.45 L 181.52 113.44 C 181.57 112.56 180.91 111.82 180.03 111.77 C 179.16 111.72 178.41 112.38 178.36 113.26 Z M 178.31 114.27 L 178.25 115.30 C 178.20 116.17 178.86 116.92 179.74 116.97 C 180.61 117.02 181.36 116.35 181.41 115.48 L 181.47 114.45 C 181.52 113.58 180.85 112.83 179.98 112.78 C 179.10 112.73 178.36 113.40 178.31 114.27 Z M 178.25 115.30 L 178.19 116.35 C 178.14 117.22 178.80 117.97 179.67 118.02 C 180.55 118.07 181.29 117.40 181.34 116.53 L 181.40 115.48 C 181.46 114.61 180.79 113.86 179.92 113.81 C 179.05 113.76 178.30 114.43 178.25 115.30 Z M 178.19 116.35 L 178.13 117.36 C 178.08 118.23 178.74 118.97 179.61 119.03 C 180.48 119.08 181.23 118.41 181.28 117.54 L 181.34 116.53 C 181.39 115.66 180.73 114.92 179.86 114.86 C 178.99 114.81 178.24 115.48 178.19 116.35 Z M 178.13 117.36 L 178.07 118.32 C 178.02 119.19 178.68 119.94 179.55 119.99 C 180.42 120.04 181.17 119.38 181.22 118.51 L 181.28 117.55 C 181.33 116.68 180.67 115.93 179.80 115.88 C 178.93 115.82 178.18 116.49 178.13 117.36 Z M 178.07 118.32 L 178.01 119.29 C 177.96 120.16 178.62 120.91 179.49 120.96 C 180.36 121.02 181.11 120.35 181.16 119.48 L 181.22 118.51 C 181.28 117.64 180.61 116.89 179.74 116.84 C 178.87 116.78 178.13 117.45 178.07 118.32 Z M 178.01 119.29 L 177.95 120.28 C 177.90 121.15 178.56 121.90 179.43 121.95 C 180.30 122.00 181.05 121.34 181.10 120.47 L 181.16 119.49 C 181.22 118.62 180.55 117.87 179.69 117.81 C 178.82 117.76 178.07 118.42 178.01 119.29 Z M 177.95 120.28 L 177.89 121.28 C 177.84 122.15 178.50 122.90 179.37 122.95 C 180.24 123.00 180.99 122.34 181.04 121.47 L 181.10 120.47 C 181.16 119.60 180.49 118.86 179.62 118.80 C 178.76 118.75 178.01 119.41 177.95 120.28 Z M 177.89 121.28 L 177.83 122.29 C 177.77 123.16 178.44 123.91 179.30 123.96 C 180.17 124.01 180.92 123.35 180.98 122.48 L 181.04 121.47 C 181.09 120.60 180.43 119.86 179.56 119.80 C 178.69 119.75 177.95 120.41 177.89 121.28 Z M 177.83 122.29 L 177.77 123.31 C 177.71 124.18 178.37 124.92 179.24 124.98 C 180.11 125.03 180.86 124.37 180.91 123.50 L 180.98 122.48 C 181.03 121.62 180.37 120.87 179.50 120.81 C 178.63 120.76 177.88 121.42 177.83 122.29 Z M 177.77 123.31 L 177.70 124.33 C 177.65 125.20 178.31 125.95 179.18 126.01 C 180.05 126.06 180.79 125.40 180.85 124.53 L 180.91 123.50 C 180.97 122.63 180.31 121.89 179.44 121.83 C 178.57 121.78 177.82 122.44 177.77 123.31 Z M 177.70 124.33 L 177.64 125.36 C 177.58 126.23 178.24 126.97 179.11 127.03 C 179.98 127.08 180.73 126.42 180.78 125.55 L 180.85 124.53 C 180.90 123.66 180.24 122.91 179.37 122.86 C 178.50 122.81 177.76 123.47 177.70 124.33 Z M 177.64 125.36 L 177.58 126.35 C 177.52 127.22 178.18 127.97 179.05 128.02 C 179.92 128.07 180.67 127.41 180.72 126.54 L 180.78 125.55 C 180.84 124.68 180.18 123.94 179.31 123.88 C 178.44 123.83 177.69 124.49 177.64 125.36 Z M 177.58 126.35 L 177.52 127.35 C 177.46 128.21 178.12 128.96 178.99 129.02 C 179.86 129.07 180.61 128.41 180.66 127.54 L 180.72 126.54 C 180.78 125.68 180.12 124.93 179.25 124.87 C 178.38 124.82 177.63 125.48 177.58 126.35 Z M 177.52 127.34 L 177.45 128.34 C 177.40 129.21 178.06 129.96 178.93 130.01 C 179.80 130.07 180.55 129.41 180.60 128.54 L 180.66 127.54 C 180.72 126.67 180.05 125.92 179.19 125.87 C 178.32 125.82 177.57 126.48 177.52 127.34 Z M 177.45 128.34 L 177.39 129.34 C 177.34 130.21 178.00 130.96 178.87 131.01 C 179.73 131.07 180.48 130.41 180.54 129.54 L 180.60 128.54 C 180.65 127.67 179.99 126.92 179.12 126.87 C 178.26 126.81 177.51 127.47 177.45 128.34 Z M 177.39 129.34 L 177.33 130.34 C 177.27 131.21 177.93 131.96 178.80 132.02 C 179.67 132.07 180.42 131.41 180.47 130.54 L 180.54 129.54 C 180.59 128.67 179.93 127.92 179.06 127.87 C 178.19 127.81 177.45 128.47 177.39 129.34 Z M 177.33 130.34 L 177.26 131.34 C 177.21 132.21 177.87 132.96 178.73 133.02 C 179.60 133.07 180.35 132.41 180.41 131.55 L 180.47 130.54 C 180.53 129.68 179.87 128.93 179.00 128.87 C 178.13 128.81 177.38 129.47 177.33 130.34 Z M 177.26 131.34 L 177.20 132.34 C 177.14 133.21 177.80 133.96 178.67 134.02 C 179.53 134.07 180.29 133.42 180.34 132.55 L 180.41 131.55 C 180.47 130.68 179.81 129.93 178.94 129.87 C 178.07 129.81 177.32 130.47 177.26 131.34 Z M 177.20 132.34 L 177.13 133.34 C 177.07 134.20 177.73 134.96 178.60 135.01 C 179.46 135.07 180.22 134.42 180.27 133.55 L 180.34 132.55 C 180.40 131.68 179.74 130.93 178.88 130.87 C 178.01 130.81 177.26 131.47 177.20 132.34 Z M 177.13 133.33 L 177.06 134.33 C 177.00 135.20 177.66 135.95 178.52 136.01 C 179.39 136.07 180.15 135.42 180.21 134.55 L 180.27 133.55 C 180.33 132.68 179.68 131.93 178.81 131.87 C 177.94 131.81 177.19 132.46 177.13 133.33 Z M 177.06 134.33 L 176.99 135.32 C 176.93 136.19 177.58 136.95 178.45 137.01 C 179.32 137.07 180.07 136.42 180.13 135.55 L 180.21 134.55 C 180.27 133.68 179.61 132.93 178.75 132.87 C 177.88 132.81 177.12 133.46 177.06 134.33 Z M 176.99 135.32 L 176.92 136.32 C 176.85 137.18 177.51 137.94 178.37 138.00 C 179.24 138.07 180.00 137.41 180.06 136.55 L 180.13 135.55 C 180.20 134.68 179.55 133.93 178.68 133.86 C 177.81 133.80 177.05 134.45 176.99 135.32 Z M 176.92 136.31 L 176.84 137.31 C 176.78 138.17 177.43 138.93 178.30 139.00 C 179.16 139.06 179.92 138.41 179.99 137.54 L 180.06 136.55 C 180.13 135.68 179.48 134.92 178.61 134.86 C 177.74 134.79 176.98 135.44 176.92 136.31 Z M 176.84 137.30 L 176.77 138.30 C 176.70 139.16 177.35 139.92 178.22 139.99 C 179.09 140.06 179.84 139.41 179.91 138.54 L 179.99 137.55 C 180.05 136.68 179.40 135.92 178.54 135.85 C 177.67 135.79 176.91 136.44 176.84 137.30 Z M 176.77 138.29 L 176.69 139.29 C 176.62 140.16 177.27 140.92 178.14 140.98 C 179.00 141.05 179.76 140.40 179.83 139.54 L 179.91 138.54 C 179.98 137.67 179.33 136.92 178.46 136.85 C 177.59 136.78 176.84 137.43 176.77 138.29 Z M 176.69 139.29 L 176.61 140.28 C 176.54 141.15 177.19 141.91 178.05 141.98 C 178.92 142.05 179.68 141.40 179.75 140.54 L 179.83 139.54 C 179.90 138.67 179.25 137.91 178.39 137.84 C 177.52 137.77 176.76 138.42 176.69 139.29 Z M 176.61 140.28 L 176.53 141.28 C 176.46 142.15 177.10 142.91 177.97 142.98 C 178.84 143.05 179.60 142.41 179.67 141.54 L 179.75 140.54 C 179.82 139.67 179.18 138.91 178.31 138.84 C 177.44 138.77 176.68 139.41 176.61 140.28 Z M 176.53 141.28 L 176.45 142.28 C 176.37 143.15 177.02 143.91 177.88 143.98 C 178.75 144.06 179.51 143.41 179.58 142.54 L 179.67 141.54 C 179.74 140.67 179.10 139.91 178.23 139.84 C 177.36 139.77 176.60 140.41 176.53 141.28 Z M 176.44 142.28 L 176.36 143.30 C 176.28 144.17 176.93 144.93 177.80 145.01 C 178.66 145.08 179.43 144.44 179.50 143.57 L 179.59 142.55 C 179.66 141.68 179.02 140.92 178.15 140.84 C 177.28 140.77 176.52 141.41 176.44 142.28 Z M 176.36 143.30 L 176.27 144.33 C 176.19 145.20 176.84 145.96 177.71 146.03 C 178.57 146.11 179.34 145.47 179.41 144.60 L 179.50 143.57 C 179.57 142.70 178.93 141.94 178.06 141.87 C 177.20 141.79 176.43 142.43 176.36 143.30 Z M 176.27 144.33 L 176.18 145.35 C 176.10 146.22 176.75 146.98 177.61 147.06 C 178.48 147.13 179.25 146.49 179.33 145.62 L 179.41 144.60 C 179.49 143.73 178.85 142.96 177.98 142.89 C 177.11 142.81 176.34 143.46 176.27 144.33 Z M 176.18 145.35 L 176.09 146.36 C 176.01 147.23 176.65 148.00 177.52 148.08 C 178.39 148.15 179.16 147.51 179.24 146.64 L 179.33 145.62 C 179.40 144.75 178.76 143.99 177.89 143.91 C 177.02 143.83 176.25 144.48 176.18 145.35 Z M 176.09 146.36 L 176.00 147.37 C 175.92 148.24 176.56 149.01 177.43 149.09 C 178.30 149.16 179.07 148.52 179.15 147.65 L 179.24 146.64 C 179.32 145.77 178.67 145.00 177.80 144.93 C 176.93 144.85 176.16 145.49 176.09 146.36 Z M 175.99 147.37 L 175.91 148.36 C 175.83 149.23 176.47 150.00 177.34 150.08 C 178.21 150.16 178.98 149.51 179.06 148.64 L 179.15 147.65 C 179.23 146.78 178.59 146.01 177.71 145.93 C 176.84 145.85 176.07 146.50 175.99 147.37 Z M 175.90 148.36 L 175.81 149.33 C 175.74 150.20 176.38 150.97 177.25 151.05 C 178.12 151.13 178.89 150.49 178.97 149.62 L 179.06 148.64 C 179.14 147.77 178.50 147.00 177.63 146.92 C 176.75 146.84 175.98 147.48 175.90 148.36 Z M 175.81 149.33 L 175.73 150.28 C 175.65 151.15 176.29 151.92 177.16 152.00 C 178.03 152.08 178.81 151.44 178.89 150.57 L 178.98 149.62 C 179.06 148.75 178.41 147.97 177.54 147.89 C 176.67 147.81 175.89 148.45 175.81 149.33 Z M 175.72 150.28 L 175.63 151.27 C 175.55 152.14 176.19 152.92 177.07 153.00 C 177.94 153.08 178.72 152.44 178.80 151.56 L 178.89 150.57 C 178.97 149.70 178.33 148.92 177.45 148.84 C 176.58 148.76 175.81 149.40 175.72 150.28 Z M 175.63 151.27 L 175.53 152.32 C 175.45 153.20 176.09 153.97 176.97 154.06 C 177.84 154.14 178.62 153.50 178.70 152.62 L 178.80 151.57 C 178.88 150.69 178.24 149.92 177.36 149.83 C 176.49 149.75 175.71 150.39 175.63 151.27 Z M 175.53 152.32 L 175.43 153.34 C 175.35 154.22 175.99 155.00 176.86 155.08 C 177.74 155.16 178.52 154.52 178.60 153.65 L 178.70 152.62 C 178.78 151.75 178.14 150.97 177.27 150.89 C 176.39 150.80 175.61 151.44 175.53 152.32 Z M 175.43 153.34 L 175.33 154.34 C 175.25 155.21 175.89 155.99 176.76 156.08 C 177.64 156.16 178.42 155.52 178.51 154.65 L 178.60 153.65 C 178.69 152.77 178.05 151.99 177.17 151.91 C 176.30 151.82 175.52 152.46 175.43 153.34 Z M 175.33 154.33 L 175.24 155.31 C 175.15 156.19 175.79 156.97 176.66 157.05 C 177.54 157.14 178.32 156.50 178.41 155.63 L 178.51 154.65 C 178.59 153.77 177.95 152.99 177.08 152.90 C 176.20 152.82 175.42 153.46 175.33 154.33 Z M 175.24 155.31 L 175.14 156.27 C 175.05 157.14 175.69 157.93 176.56 158.02 C 177.44 158.11 178.22 157.47 178.31 156.59 L 178.41 155.63 C 178.50 154.75 177.86 153.97 176.98 153.88 C 176.11 153.79 175.32 154.43 175.24 155.31 Z M 175.14 156.26 L 175.04 157.22 C 174.95 158.10 175.58 158.88 176.46 158.97 C 177.34 159.06 178.12 158.42 178.21 157.55 L 178.31 156.59 C 178.40 155.72 177.77 154.93 176.89 154.84 C 176.01 154.75 175.23 155.39 175.14 156.26 Z M 175.04 157.21 L 174.93 158.18 C 174.84 159.05 175.48 159.84 176.36 159.93 C 177.23 160.03 178.02 159.39 178.11 158.51 L 178.21 157.55 C 178.31 156.67 177.67 155.89 176.79 155.79 C 175.92 155.70 175.13 156.34 175.04 157.21 Z M 174.93 158.17 L 174.83 159.17 C 174.73 160.05 175.36 160.84 176.24 160.93 C 177.12 161.03 177.91 160.39 178.01 159.51 L 178.11 158.52 C 178.21 157.64 177.57 156.85 176.70 156.75 C 175.82 156.66 175.03 157.29 174.93 158.17 Z M 174.82 159.17 L 174.71 160.16 C 174.62 161.04 175.25 161.83 176.13 161.93 C 177.01 162.03 177.80 161.39 177.90 160.51 L 178.01 159.52 C 178.11 158.64 177.47 157.84 176.59 157.75 C 175.71 157.65 174.92 158.29 174.82 159.17 Z M 174.71 160.16 L 174.60 161.16 C 174.50 162.04 175.14 162.83 176.02 162.93 C 176.90 163.03 177.69 162.39 177.79 161.51 L 177.90 160.52 C 178.00 159.63 177.36 158.84 176.48 158.74 C 175.60 158.64 174.81 159.28 174.71 160.16 Z M 174.60 161.16 L 174.49 162.15 C 174.39 163.04 175.02 163.83 175.91 163.93 C 176.79 164.03 177.58 163.39 177.68 162.51 L 177.79 161.51 C 177.89 160.63 177.26 159.84 176.37 159.74 C 175.49 159.64 174.70 160.27 174.60 161.16 Z M 174.48 162.15 L 174.37 163.15 C 174.28 164.03 174.91 164.83 175.80 164.93 C 176.68 165.02 177.48 164.39 177.57 163.50 L 177.69 162.51 C 177.78 161.62 177.15 160.83 176.26 160.73 C 175.38 160.63 174.58 161.27 174.48 162.15 Z M 174.37 163.15 L 174.26 164.14 C 174.16 165.02 174.80 165.82 175.69 165.92 C 176.57 166.02 177.37 165.38 177.47 164.49 L 177.58 163.50 C 177.68 162.61 177.04 161.82 176.15 161.72 C 175.26 161.62 174.47 162.26 174.37 163.15 Z M 174.26 164.14 L 174.15 165.14 C 174.06 166.03 174.70 166.82 175.58 166.92 C 176.47 167.02 177.27 166.37 177.36 165.49 L 177.47 164.49 C 177.57 163.60 176.93 162.80 176.04 162.71 C 175.15 162.61 174.36 163.25 174.26 164.14 Z M 174.15 165.14 L 174.04 166.16 C 173.95 167.05 174.59 167.84 175.48 167.94 C 176.37 168.03 177.16 167.39 177.26 166.50 L 177.37 165.48 C 177.46 164.60 176.82 163.80 175.93 163.70 C 175.04 163.61 174.24 164.25 174.15 165.14 Z M 174.04 166.16 L 173.93 167.17 C 173.84 168.06 174.49 168.85 175.38 168.95 C 176.27 169.04 177.06 168.39 177.15 167.51 L 177.26 166.50 C 177.35 165.61 176.71 164.81 175.82 164.72 C 174.93 164.63 174.13 165.27 174.04 166.16 Z M 173.93 167.17 L 173.83 168.17 C 173.74 169.06 174.38 169.86 175.27 169.95 C 176.16 170.04 176.96 169.39 177.05 168.50 L 177.16 167.50 C 177.25 166.61 176.60 165.82 175.71 165.73 C 174.82 165.63 174.03 166.28 173.93 167.17 Z M 173.83 168.17 L 173.73 169.16 C 173.63 170.05 174.28 170.85 175.17 170.94 C 176.06 171.03 176.86 170.38 176.95 169.49 L 177.05 168.50 C 177.15 167.61 176.50 166.82 175.61 166.72 C 174.72 166.63 173.92 167.28 173.83 168.17 Z M 173.73 169.16 L 173.62 170.14 C 173.53 171.03 174.18 171.83 175.07 171.92 C 175.96 172.02 176.76 171.37 176.85 170.48 L 176.95 169.49 C 177.05 168.60 176.40 167.81 175.51 167.71 C 174.61 167.62 173.82 168.27 173.73 169.16 Z M 173.62 170.14 L 173.52 171.11 C 173.43 172.00 174.08 172.80 174.97 172.89 C 175.86 172.99 176.66 172.34 176.75 171.45 L 176.85 170.48 C 176.95 169.58 176.30 168.79 175.41 168.69 C 174.51 168.60 173.72 169.25 173.62 170.14 Z M 173.52 171.11 L 173.41 172.13 C 173.32 173.02 173.97 173.82 174.86 173.92 C 175.76 174.01 176.56 173.36 176.65 172.47 L 176.76 171.45 C 176.85 170.55 176.20 169.76 175.31 169.66 C 174.41 169.57 173.61 170.22 173.52 171.11 Z M 173.41 172.13 L 173.30 173.16 C 173.21 174.05 173.86 174.85 174.75 174.95 C 175.65 175.04 176.45 174.39 176.54 173.50 L 176.65 172.47 C 176.75 171.58 176.10 170.77 175.20 170.68 C 174.31 170.59 173.51 171.23 173.41 172.13 Z M 173.30 173.16 L 173.19 174.17 C 173.10 175.06 173.75 175.87 174.65 175.96 C 175.54 176.06 176.35 175.40 176.44 174.51 L 176.55 173.50 C 176.64 172.60 175.99 171.80 175.09 171.70 C 174.20 171.61 173.39 172.26 173.30 173.16 Z M 173.19 174.17 L 173.09 175.16 C 172.99 176.06 173.65 176.86 174.55 176.96 C 175.45 177.05 176.25 176.40 176.34 175.50 L 176.45 174.51 C 176.54 173.61 175.89 172.80 174.99 172.71 C 174.09 172.62 173.28 173.27 173.19 174.17 Z M 173.08 175.17 L 172.99 176.14 C 172.89 177.04 173.55 177.84 174.45 177.94 C 175.35 178.03 176.16 177.37 176.25 176.47 L 176.35 175.49 C 176.44 174.59 175.78 173.79 174.88 173.70 C 173.98 173.61 173.17 174.26 173.08 175.17 Z M 172.98 176.15 L 172.89 177.10 C 172.80 178.00 173.46 178.81 174.37 178.89 C 175.27 178.98 176.07 178.32 176.16 177.42 L 176.25 176.46 C 176.34 175.56 175.68 174.76 174.78 174.67 C 173.87 174.58 173.07 175.24 172.98 176.15 Z M 172.89 177.11 L 172.80 178.07 C 172.71 178.97 173.38 179.77 174.29 179.86 C 175.19 179.94 175.99 179.28 176.07 178.37 L 176.16 177.41 C 176.25 176.50 175.58 175.70 174.68 175.62 C 173.77 175.54 172.97 176.20 172.89 177.11 Z M 172.80 178.08 L 172.71 179.04 C 172.64 179.95 173.31 180.74 174.21 180.82 C 175.12 180.90 175.92 180.23 175.99 179.32 L 176.08 178.36 C 176.15 177.45 175.48 176.66 174.58 176.58 C 173.67 176.50 172.87 177.17 172.80 178.08 Z M 172.71 179.05 L 172.64 180.02 C 172.57 180.92 173.24 181.72 174.15 181.79 C 175.05 181.86 175.85 181.18 175.92 180.28 L 175.99 179.31 C 176.06 178.40 175.39 177.61 174.48 177.54 C 173.58 177.47 172.78 178.15 172.71 179.05 Z M 172.64 180.03 L 172.57 181.01 C 172.50 181.92 173.19 182.70 174.09 182.77 C 175.00 182.83 175.78 182.15 175.85 181.24 L 175.92 180.26 C 175.98 179.36 175.30 178.57 174.39 178.51 C 173.49 178.44 172.70 179.12 172.64 180.03 Z M 172.57 181.02 L 172.50 182.04 C 172.45 182.95 173.13 183.73 174.04 183.78 C 174.95 183.84 175.73 183.15 175.78 182.25 L 175.85 181.23 C 175.91 180.33 175.22 179.54 174.31 179.49 C 173.41 179.43 172.62 180.12 172.57 181.02 Z M 172.50 182.05 L 172.44 183.11 C 172.39 184.02 173.09 184.80 173.99 184.85 C 174.90 184.90 175.67 184.20 175.73 183.30 L 175.78 182.23 C 175.84 181.33 175.14 180.55 174.24 180.50 C 173.33 180.45 172.55 181.14 172.50 182.05 Z M 172.44 183.12 L 172.39 184.14 C 172.35 185.05 173.05 185.82 173.95 185.87 C 174.86 185.91 175.63 185.21 175.68 184.31 L 175.73 183.29 C 175.77 182.38 175.07 181.61 174.17 181.56 C 173.26 181.52 172.49 182.22 172.44 183.12 Z M 172.39 184.15 L 172.35 185.19 C 172.31 186.09 173.01 186.86 173.92 186.90 C 174.83 186.94 175.60 186.23 175.63 185.33 L 175.68 184.29 C 175.72 183.39 175.01 182.62 174.10 182.58 C 173.20 182.54 172.43 183.25 172.39 184.15 Z M 172.34 185.20 L 172.31 186.25 C 172.28 187.15 172.99 187.92 173.90 187.95 C 174.81 187.98 175.57 187.27 175.60 186.36 L 175.64 185.31 C 175.67 184.40 174.96 183.64 174.05 183.61 C 173.14 183.58 172.37 184.29 172.34 185.20 Z M 172.31 186.26 L 172.28 187.30 C 172.26 188.21 172.98 188.96 173.89 188.99 C 174.80 189.01 175.56 188.29 175.58 187.38 L 175.60 186.34 C 175.62 185.43 174.90 184.68 173.99 184.65 C 173.08 184.63 172.33 185.35 172.31 186.26 Z M 172.28 187.32 L 172.27 188.33 C 172.26 189.24 172.99 189.98 173.90 189.99 C 174.81 190.00 175.56 189.27 175.57 188.36 L 175.58 187.36 C 175.59 186.44 174.86 185.70 173.95 185.69 C 173.04 185.68 172.29 186.41 172.28 187.32 Z M 172.27 188.35 L 172.27 189.31 C 172.28 190.22 173.02 190.95 173.94 190.95 C 174.85 190.94 175.58 190.20 175.58 189.29 L 175.57 188.33 C 175.56 187.42 174.82 186.69 173.91 186.69 C 173.00 186.70 172.26 187.44 172.27 188.35 Z M 172.27 189.35 L 172.30 190.34 C 172.33 191.25 173.10 191.97 174.01 191.94 C 174.92 191.91 175.64 191.15 175.61 190.24 L 175.58 189.25 C 175.55 188.33 174.79 187.62 173.87 187.65 C 172.96 187.67 172.24 188.44 172.27 189.35 Z M 172.31 190.41 L 172.39 191.55 C 172.45 192.46 173.24 193.15 174.15 193.08 C 175.06 193.02 175.75 192.23 175.68 191.32 L 175.61 190.18 C 175.54 189.27 174.75 188.58 173.84 188.64 C 172.93 188.71 172.24 189.49 172.31 190.41 Z M 172.39 191.62 L 172.51 192.62 C 172.61 193.53 173.43 194.18 174.33 194.08 C 175.24 193.98 175.89 193.16 175.79 192.25 L 175.68 191.25 C 175.57 190.34 174.76 189.69 173.85 189.79 C 172.94 189.90 172.29 190.71 172.39 191.62 Z M 172.52 192.68 L 172.65 193.59 C 172.79 194.49 173.63 195.11 174.53 194.98 C 175.43 194.84 176.05 194.00 175.92 193.10 L 175.78 192.19 C 175.65 191.29 174.80 190.67 173.90 190.80 C 173.00 190.94 172.38 191.78 172.52 192.68 Z M 172.66 193.63 L 172.81 194.48 C 172.96 195.38 173.82 195.98 174.72 195.83 C 175.61 195.67 176.22 194.82 176.06 193.92 L 175.91 193.06 C 175.76 192.16 174.90 191.56 174.00 191.72 C 173.10 191.87 172.50 192.73 172.66 193.63 Z M 172.81 194.49 L 172.82 194.59 C 172.99 195.48 173.84 196.08 174.74 195.92 C 175.64 195.76 176.24 194.90 176.08 194.01 L 176.06 193.91 C 175.90 193.01 175.04 192.42 174.14 192.58 C 173.25 192.74 172.65 193.59 172.81 194.49 Z"
      fill="black"
      fill-rule="nonzero" /><path d="M 176.03 227.09 L 175.20 227.10 C 174.34 227.11 173.64 227.82 173.65 228.68 C 173.66 229.54 174.37 230.23 175.23 230.22 L 176.06 230.22 C 176.92 230.21 177.61 229.50 177.60 228.64 C 177.59 227.78 176.89 227.08 176.03 227.09 Z M 175.11 227.11 L 174.23 227.17 C 173.36 227.22 172.72 227.97 172.77 228.83 C 172.83 229.69 173.58 230.34 174.44 230.28 L 175.32 230.22 C 176.18 230.16 176.83 229.42 176.77 228.56 C 176.71 227.70 175.97 227.05 175.11 227.11 Z M 174.08 227.18 L 173.09 227.35 C 172.23 227.49 171.66 228.29 171.80 229.14 C 171.94 229.99 172.74 230.57 173.59 230.43 L 174.58 230.26 C 175.43 230.12 176.01 229.32 175.87 228.47 C 175.73 227.62 174.93 227.04 174.08 227.18 Z M 172.93 227.38 L 171.77 227.70 C 170.94 227.93 170.45 228.79 170.68 229.62 C 170.90 230.45 171.76 230.94 172.59 230.71 L 173.75 230.39 C 174.58 230.16 175.07 229.31 174.84 228.47 C 174.62 227.64 173.76 227.15 172.93 227.38 Z M 171.65 227.74 L 170.62 228.11 C 169.81 228.40 169.40 229.30 169.69 230.11 C 169.99 230.92 170.88 231.34 171.69 231.04 L 172.71 230.67 C 173.52 230.38 173.94 229.48 173.65 228.67 C 173.35 227.86 172.46 227.44 171.65 227.74 Z M 170.57 228.13 L 169.56 228.54 C 168.76 228.86 168.37 229.77 168.70 230.57 C 169.02 231.37 169.93 231.76 170.73 231.43 L 171.74 231.02 C 172.54 230.70 172.93 229.79 172.61 228.99 C 172.28 228.19 171.37 227.81 170.57 228.13 Z M 169.55 228.54 L 168.52 228.96 C 167.72 229.29 167.34 230.20 167.66 231.00 C 167.99 231.79 168.90 232.18 169.70 231.85 L 170.73 231.43 C 171.53 231.11 171.92 230.20 171.59 229.40 C 171.26 228.60 170.35 228.21 169.55 228.54 Z M 168.56 228.95 L 167.55 229.33 C 166.75 229.63 166.34 230.54 166.65 231.34 C 166.96 232.15 167.86 232.55 168.66 232.25 L 169.66 231.87 C 170.47 231.56 170.88 230.66 170.57 229.85 C 170.26 229.05 169.36 228.64 168.56 228.95 Z M 167.64 229.30 L 166.73 229.58 C 165.90 229.84 165.44 230.72 165.70 231.54 C 165.96 232.36 166.83 232.82 167.66 232.56 L 168.57 232.28 C 169.40 232.02 169.86 231.15 169.60 230.32 C 169.34 229.50 168.47 229.04 167.64 229.30 Z M 166.92 229.54 L 166.13 229.68 C 165.29 229.83 164.72 230.64 164.87 231.49 C 165.03 232.34 165.84 232.90 166.69 232.75 L 167.47 232.61 C 168.31 232.46 168.88 231.65 168.73 230.80 C 168.58 229.95 167.76 229.39 166.92 229.54 Z M 166.72 229.68 L 165.85 229.51 C 165.00 229.34 164.18 229.89 164.01 230.73 C 163.84 231.58 164.39 232.40 165.23 232.57 L 166.10 232.74 C 166.95 232.91 167.77 232.37 167.94 231.52 C 168.11 230.68 167.56 229.85 166.72 229.68 Z M 166.81 230.13 L 166.32 229.45 C 165.82 228.75 164.84 228.59 164.14 229.09 C 163.44 229.59 163.28 230.57 163.78 231.27 L 164.27 231.95 C 164.78 232.65 165.75 232.81 166.45 232.31 C 167.15 231.80 167.31 230.83 166.81 230.13 Z M 166.60 230.14 L 166.45 229.13 C 166.33 228.28 165.54 227.68 164.69 227.81 C 163.84 227.93 163.24 228.72 163.36 229.57 L 163.51 230.57 C 163.63 231.43 164.42 232.02 165.27 231.90 C 166.12 231.78 166.72 230.99 166.60 230.14 Z M 166.47 229.41 L 166.51 228.33 C 166.54 227.46 165.87 226.74 165.00 226.71 C 164.14 226.68 163.42 227.35 163.39 228.21 L 163.35 229.29 C 163.32 230.16 163.99 230.88 164.85 230.91 C 165.71 230.94 166.44 230.27 166.47 229.41 Z M 166.50 228.45 L 166.61 227.44 C 166.71 226.59 166.10 225.81 165.24 225.71 C 164.38 225.61 163.61 226.23 163.51 227.09 L 163.40 228.09 C 163.30 228.95 163.91 229.72 164.77 229.82 C 165.63 229.92 166.40 229.30 166.50 228.45 Z M 166.59 227.57 L 166.79 226.59 C 166.96 225.75 166.42 224.92 165.57 224.75 C 164.73 224.58 163.90 225.13 163.73 225.97 L 163.53 226.95 C 163.36 227.80 163.91 228.62 164.75 228.79 C 165.60 228.97 166.42 228.42 166.59 227.57 Z M 166.75 226.75 L 167.05 225.81 C 167.31 224.99 166.86 224.11 166.03 223.85 C 165.21 223.59 164.33 224.05 164.07 224.87 L 163.77 225.81 C 163.51 226.63 163.97 227.51 164.79 227.77 C 165.61 228.03 166.49 227.58 166.75 226.75 Z M 166.98 226.00 L 167.40 225.08 C 167.77 224.30 167.43 223.37 166.65 223.01 C 165.87 222.64 164.94 222.98 164.58 223.76 L 164.15 224.68 C 163.78 225.46 164.12 226.39 164.90 226.75 C 165.68 227.12 166.61 226.78 166.98 226.00 Z M 167.30 225.28 L 167.86 224.42 C 168.33 223.70 168.12 222.73 167.40 222.26 C 166.68 221.79 165.71 221.99 165.24 222.71 L 164.68 223.57 C 164.21 224.29 164.42 225.26 165.14 225.73 C 165.86 226.20 166.83 226.00 167.30 225.28 Z M 167.73 224.59 L 168.38 223.84 C 168.95 223.19 168.88 222.20 168.22 221.63 C 167.57 221.07 166.59 221.14 166.02 221.79 L 165.37 222.54 C 164.80 223.19 164.87 224.18 165.53 224.74 C 166.18 225.31 167.16 225.24 167.73 224.59 Z M 168.23 223.99 L 168.95 223.37 C 169.60 222.80 169.67 221.81 169.10 221.16 C 168.54 220.51 167.55 220.44 166.90 221.01 L 166.18 221.63 C 165.53 222.20 165.46 223.19 166.02 223.84 C 166.59 224.49 167.57 224.56 168.23 223.99 Z M 168.74 223.52 L 169.61 222.99 C 170.34 222.53 170.57 221.57 170.12 220.84 C 169.67 220.10 168.71 219.87 167.97 220.33 L 167.11 220.86 C 166.37 221.31 166.14 222.27 166.59 223.00 C 167.04 223.74 168.01 223.97 168.74 223.52 Z M 169.33 223.12 L 170.25 222.78 C 171.06 222.48 171.47 221.58 171.17 220.77 C 170.87 219.96 169.98 219.55 169.17 219.85 L 168.25 220.19 C 167.44 220.49 167.02 221.39 167.32 222.20 C 167.62 223.01 168.52 223.42 169.33 223.12 Z M 169.94 222.86 L 170.93 222.71 C 171.78 222.58 172.37 221.78 172.24 220.93 C 172.11 220.08 171.31 219.49 170.46 219.62 L 169.48 219.77 C 168.62 219.90 168.04 220.69 168.17 221.55 C 168.30 222.40 169.09 222.99 169.94 222.86 Z M 170.63 222.72 L 171.63 222.77 C 172.49 222.81 173.22 222.14 173.26 221.28 C 173.30 220.41 172.63 219.69 171.77 219.65 L 170.76 219.61 C 169.90 219.57 169.17 220.24 169.13 221.10 C 169.10 221.96 169.76 222.69 170.63 222.72 Z M 171.35 222.73 L 172.34 222.96 C 173.18 223.15 174.02 222.63 174.21 221.78 C 174.40 220.94 173.88 220.11 173.04 219.91 L 172.05 219.69 C 171.21 219.49 170.37 220.02 170.18 220.86 C 169.98 221.70 170.51 222.54 171.35 222.73 Z M 172.04 222.86 L 172.94 223.27 C 173.73 223.62 174.65 223.28 175.01 222.49 C 175.37 221.71 175.02 220.78 174.24 220.43 L 173.34 220.02 C 172.55 219.66 171.63 220.00 171.27 220.79 C 170.91 221.57 171.26 222.50 172.04 222.86 Z M 172.61 223.06 L 173.33 223.64 C 174.00 224.18 174.98 224.08 175.52 223.40 C 176.06 222.73 175.96 221.75 175.29 221.21 L 174.57 220.63 C 173.90 220.09 172.92 220.20 172.38 220.87 C 171.83 221.54 171.94 222.52 172.61 223.06 Z M 173.03 223.32 L 173.55 224.07 C 174.05 224.77 175.02 224.94 175.73 224.45 C 176.43 223.95 176.60 222.98 176.11 222.27 L 175.59 221.53 C 175.09 220.82 174.12 220.65 173.41 221.15 C 172.70 221.64 172.54 222.62 173.03 223.32 Z M 173.38 223.73 L 173.74 224.67 C 174.05 225.47 174.96 225.87 175.76 225.56 C 176.56 225.25 176.96 224.34 176.65 223.54 L 176.29 222.60 C 175.97 221.80 175.07 221.40 174.27 221.71 C 173.46 222.02 173.06 222.93 173.38 223.73 Z M 173.66 224.41 L 173.88 225.52 C 174.05 226.36 174.87 226.91 175.72 226.75 C 176.56 226.58 177.11 225.76 176.95 224.91 L 176.73 223.80 C 176.56 222.96 175.74 222.41 174.89 222.57 C 174.05 222.74 173.50 223.56 173.66 224.41 Z M 173.86 225.35 L 173.94 226.32 C 174.02 227.18 174.77 227.81 175.63 227.74 C 176.49 227.66 177.13 226.91 177.05 226.05 L 176.97 225.08 C 176.89 224.22 176.14 223.58 175.28 223.66 C 174.42 223.73 173.78 224.49 173.86 225.35 Z M 173.94 226.19 L 173.94 227.21 C 173.94 228.08 174.64 228.77 175.51 228.77 C 176.37 228.77 177.07 228.07 177.06 227.20 L 177.06 226.18 C 177.06 225.31 176.35 224.62 175.49 224.62 C 174.63 224.62 173.93 225.32 173.94 226.19 Z M 173.95 227.07 L 173.86 228.10 C 173.78 228.96 174.42 229.72 175.27 229.80 C 176.13 229.87 176.89 229.24 176.97 228.38 L 177.06 227.35 C 177.13 226.49 176.50 225.73 175.64 225.65 C 174.78 225.58 174.02 226.21 173.95 227.07 Z M 173.88 227.93 L 173.68 228.91 C 173.51 229.76 174.06 230.58 174.91 230.75 C 175.75 230.92 176.57 230.37 176.74 229.53 L 176.94 228.55 C 177.11 227.70 176.56 226.88 175.72 226.71 C 174.87 226.54 174.05 227.09 173.88 227.93 Z M 173.75 228.67 L 173.39 229.63 C 173.09 230.44 173.51 231.34 174.31 231.64 C 175.12 231.94 176.02 231.53 176.32 230.72 L 176.68 229.76 C 176.98 228.96 176.57 228.06 175.76 227.76 C 174.95 227.46 174.05 227.87 173.75 228.67 Z M 173.55 229.33 L 172.98 230.21 C 172.51 230.93 172.72 231.90 173.45 232.37 C 174.17 232.83 175.14 232.62 175.60 231.90 L 176.17 231.02 C 176.64 230.30 176.43 229.33 175.70 228.86 C 174.98 228.40 174.01 228.60 173.55 229.33 Z M 173.21 229.93 L 172.50 230.61 C 171.88 231.20 171.86 232.19 172.46 232.81 C 173.06 233.44 174.05 233.46 174.67 232.86 L 175.37 232.18 C 175.99 231.58 176.01 230.59 175.42 229.97 C 174.82 229.35 173.83 229.33 173.21 229.93 Z M 172.78 230.40 L 171.97 230.89 C 171.23 231.33 171.00 232.29 171.44 233.03 C 171.89 233.77 172.85 234.00 173.59 233.56 L 174.39 233.07 C 175.13 232.62 175.37 231.66 174.92 230.92 C 174.47 230.19 173.51 229.95 172.78 230.40 Z M 172.27 230.74 L 171.31 231.07 C 170.50 231.35 170.06 232.24 170.34 233.05 C 170.62 233.87 171.51 234.30 172.32 234.03 L 173.28 233.70 C 174.10 233.42 174.54 232.53 174.26 231.72 C 173.98 230.90 173.09 230.46 172.27 230.74 Z M 171.68 230.99 L 170.66 231.08 C 169.81 231.16 169.17 231.92 169.25 232.78 C 169.32 233.64 170.08 234.27 170.94 234.19 L 171.96 234.10 C 172.82 234.03 173.45 233.27 173.37 232.41 C 173.30 231.55 172.54 230.92 171.68 230.99 Z M 171.13 231.11 L 170.19 230.91 C 169.35 230.73 168.52 231.26 168.34 232.11 C 168.16 232.95 168.69 233.78 169.53 233.96 L 170.47 234.16 C 171.31 234.35 172.15 233.81 172.33 232.97 C 172.51 232.13 171.97 231.30 171.13 231.11 Z M 170.73 231.14 L 169.98 230.64 C 169.27 230.16 168.30 230.36 167.82 231.07 C 167.34 231.79 167.54 232.76 168.25 233.24 L 169.00 233.74 C 169.72 234.21 170.68 234.02 171.16 233.30 C 171.64 232.58 171.45 231.61 170.73 231.14 Z M 170.38 231.02 L 169.85 230.29 C 169.34 229.60 168.36 229.45 167.67 229.96 C 166.97 230.47 166.82 231.44 167.33 232.14 L 167.86 232.86 C 168.37 233.56 169.35 233.71 170.04 233.20 C 170.74 232.69 170.89 231.71 170.38 231.02 Z M 170.03 230.61 L 169.64 229.68 C 169.30 228.89 168.39 228.51 167.59 228.85 C 166.80 229.18 166.42 230.10 166.76 230.89 L 167.15 231.82 C 167.48 232.62 168.40 232.99 169.19 232.65 C 169.99 232.32 170.36 231.40 170.03 230.61 Z M 169.71 229.91 L 169.44 228.83 C 169.23 227.99 168.38 227.48 167.54 227.69 C 166.71 227.90 166.20 228.75 166.41 229.59 L 166.68 230.67 C 166.89 231.50 167.74 232.01 168.58 231.80 C 169.41 231.59 169.92 230.74 169.71 229.91 Z M 169.47 228.97 L 169.32 227.98 C 169.19 227.13 168.39 226.54 167.54 226.67 C 166.69 226.80 166.10 227.60 166.23 228.45 L 166.38 229.44 C 166.51 230.30 167.31 230.88 168.16 230.75 C 169.01 230.62 169.60 229.82 169.47 228.97 Z M 169.33 228.09 L 169.25 227.10 C 169.18 226.24 168.43 225.60 167.57 225.67 C 166.71 225.74 166.07 226.49 166.14 227.35 L 166.22 228.34 C 166.29 229.20 167.04 229.84 167.90 229.77 C 168.76 229.71 169.40 228.95 169.33 228.09 Z M 169.26 227.22 L 169.25 226.21 C 169.25 225.34 168.54 224.65 167.68 224.65 C 166.82 224.66 166.12 225.36 166.13 226.22 L 166.13 227.24 C 166.14 228.10 166.84 228.79 167.70 228.79 C 168.57 228.78 169.26 228.08 169.26 227.22 Z M 169.25 226.33 L 169.32 225.31 C 169.38 224.45 168.74 223.71 167.88 223.64 C 167.02 223.58 166.27 224.23 166.21 225.09 L 166.13 226.10 C 166.07 226.96 166.72 227.71 167.58 227.77 C 168.44 227.83 169.18 227.19 169.25 226.33 Z M 169.30 225.45 L 169.47 224.42 C 169.61 223.57 169.04 222.77 168.18 222.63 C 167.33 222.49 166.53 223.07 166.39 223.92 L 166.22 224.95 C 166.08 225.80 166.66 226.60 167.51 226.74 C 168.36 226.88 169.17 226.30 169.30 225.45 Z M 169.44 224.58 L 169.73 223.53 C 169.96 222.70 169.47 221.84 168.64 221.61 C 167.80 221.38 166.95 221.87 166.72 222.70 L 166.43 223.76 C 166.20 224.59 166.69 225.45 167.52 225.68 C 168.35 225.90 169.21 225.42 169.44 224.58 Z M 169.66 223.72 L 170.06 222.77 C 170.39 221.98 170.02 221.06 169.22 220.73 C 168.43 220.39 167.51 220.77 167.18 221.56 L 166.78 222.51 C 166.45 223.31 166.82 224.22 167.62 224.56 C 168.41 224.89 169.33 224.51 169.66 223.72 Z M 169.94 223.00 L 170.44 222.20 C 170.90 221.47 170.68 220.51 169.95 220.05 C 169.22 219.59 168.25 219.81 167.79 220.54 L 167.30 221.34 C 166.84 222.07 167.06 223.03 167.79 223.49 C 168.52 223.95 169.48 223.73 169.94 223.00 Z M 170.20 222.50 L 170.87 221.85 C 171.49 221.26 171.51 220.27 170.91 219.65 C 170.32 219.02 169.33 219.01 168.71 219.60 L 168.03 220.25 C 167.41 220.85 167.39 221.84 167.99 222.46 C 168.59 223.08 169.58 223.10 170.20 222.50 Z M 170.35 222.19 L 171.29 221.83 C 172.09 221.52 172.50 220.62 172.19 219.81 C 171.88 219.01 170.98 218.60 170.17 218.91 L 169.23 219.27 C 168.43 219.58 168.02 220.48 168.33 221.28 C 168.64 222.09 169.54 222.49 170.35 222.19 Z M 170.35 221.88 L 171.23 222.11 C 172.06 222.32 172.91 221.81 173.12 220.97 C 173.33 220.14 172.83 219.29 171.99 219.08 L 171.11 218.86 C 170.28 218.64 169.43 219.15 169.22 219.99 C 169.00 220.82 169.51 221.67 170.35 221.88 Z M 170.39 221.57 L 170.96 222.28 C 171.50 222.95 172.48 223.06 173.15 222.52 C 173.83 221.98 173.94 221.00 173.40 220.33 L 172.83 219.62 C 172.29 218.94 171.31 218.83 170.64 219.37 C 169.96 219.91 169.85 220.89 170.39 221.57 Z M 170.69 221.78 L 170.97 222.66 C 171.23 223.48 172.11 223.93 172.93 223.67 C 173.75 223.41 174.21 222.53 173.95 221.71 L 173.67 220.83 C 173.40 220.01 172.53 219.55 171.70 219.81 C 170.88 220.08 170.43 220.95 170.69 221.78 Z M 170.91 222.38 L 171.04 223.42 C 171.15 224.28 171.93 224.88 172.79 224.77 C 173.64 224.67 174.25 223.88 174.14 223.03 L 174.01 221.99 C 173.90 221.13 173.12 220.53 172.26 220.64 C 171.41 220.75 170.80 221.53 170.91 222.38 Z M 171.03 223.22 L 171.02 224.30 C 171.02 225.16 171.71 225.86 172.58 225.87 C 173.44 225.87 174.14 225.18 174.15 224.32 L 174.15 223.24 C 174.16 222.37 173.46 221.67 172.60 221.66 C 171.74 221.66 171.04 222.35 171.03 223.22 Z M 171.04 224.09 L 170.89 225.16 C 170.76 226.02 171.36 226.81 172.21 226.93 C 173.06 227.05 173.86 226.46 173.98 225.60 L 174.13 224.53 C 174.25 223.67 173.66 222.88 172.81 222.76 C 171.95 222.64 171.16 223.23 171.04 224.09 Z M 170.96 224.87 L 170.60 225.90 C 170.32 226.72 170.75 227.61 171.57 227.89 C 172.38 228.17 173.27 227.74 173.55 226.92 L 173.91 225.89 C 174.19 225.08 173.76 224.19 172.94 223.91 C 172.13 223.63 171.24 224.06 170.96 224.87 Z M 170.77 225.55 L 170.25 226.34 C 169.77 227.06 169.97 228.03 170.69 228.51 C 171.40 228.98 172.37 228.79 172.85 228.07 L 173.38 227.28 C 173.85 226.56 173.66 225.59 172.94 225.11 C 172.22 224.64 171.25 224.83 170.77 225.55 Z M 170.55 226.01 L 169.87 226.58 C 169.21 227.13 169.13 228.12 169.68 228.78 C 170.24 229.44 171.22 229.52 171.88 228.97 L 172.56 228.40 C 173.21 227.85 173.30 226.86 172.75 226.20 C 172.19 225.54 171.21 225.46 170.55 226.01 Z M 170.24 226.35 L 169.36 226.74 C 168.58 227.09 168.22 228.01 168.57 228.80 C 168.92 229.59 169.85 229.94 170.63 229.59 L 171.51 229.20 C 172.30 228.85 172.65 227.92 172.30 227.14 C 171.95 226.35 171.03 226.00 170.24 226.35 Z M 169.65 226.64 L 168.67 226.87 C 167.83 227.06 167.31 227.90 167.50 228.74 C 167.69 229.58 168.53 230.10 169.37 229.91 L 170.35 229.68 C 171.19 229.49 171.71 228.65 171.52 227.81 C 171.33 226.97 170.49 226.45 169.65 226.64 Z M 168.80 226.84 L 167.86 226.98 C 167.01 227.10 166.42 227.89 166.54 228.74 C 166.66 229.60 167.45 230.19 168.31 230.07 L 169.24 229.93 C 170.10 229.81 170.69 229.02 170.57 228.17 C 170.45 227.31 169.65 226.72 168.80 226.84 Z"
      fill="black"
      fill-rule="nonzero" /></svg>