<svg xmlns="http://www.w3.org/2000/svg" width="300" height="300" viewBox="0 0 300 300">
<path d="M 143.19 179.23 L 142.22 178.75 C 141.45 178.37 140.51 178.68 140.13 179.46 C 139.75 180.23 140.06 181.16 140.83 181.55 L 141.79 182.03 C 142.56 182.41 143.50 182.10 143.89 181.33 C 144.27 180.56 143.96 179.62 143.19 179.23 Z M 142.21 178.75 L 141.26 178.28 C 140.49 177.91 139.55 178.23 139.17 179.00 C 138.79 179.78 139.12 180.71 139.89 181.09 L 140.84 181.55 C 141.62 181.93 142.55 181.61 142.93 180.84 C 143.31 180.06 142.99 179.13 142.21 178.75 Z M 141.24 178.27 L 140.31 177.84 C 139.53 177.47 138.60 177.81 138.23 178.59 C 137.87 179.37 138.20 180.30 138.98 180.66 L 139.91 181.10 C 140.69 181.47 141.62 181.13 141.99 180.35 C 142.36 179.57 142.02 178.64 141.24 178.27 Z M 140.27 177.82 L 139.37 177.43 C 138.58 177.08 137.66 177.44 137.32 178.23 C 136.97 179.02 137.33 179.94 138.12 180.29 L 139.02 180.68 C 139.81 181.03 140.73 180.67 141.08 179.88 C 141.42 179.09 141.06 178.17 140.27 177.82 Z M 139.32 177.40 L 138.46 177.07 C 137.65 176.75 136.75 177.15 136.43 177.95 C 136.12 178.75 136.51 179.66 137.32 179.97 L 138.18 180.31 C 138.98 180.62 139.88 180.23 140.20 179.43 C 140.51 178.62 140.12 177.72 139.32 177.40 Z M 138.36 177.03 L 137.38 176.72 C 136.56 176.45 135.68 176.91 135.41 177.73 C 135.15 178.55 135.60 179.43 136.43 179.69 L 137.41 180.01 C 138.23 180.27 139.11 179.82 139.37 179.00 C 139.64 178.17 139.18 177.30 138.36 177.03 Z M 137.21 176.67 L 136.14 176.46 C 135.30 176.28 134.47 176.83 134.30 177.68 C 134.13 178.52 134.67 179.34 135.52 179.52 L 136.59 179.73 C 137.43 179.91 138.26 179.36 138.43 178.52 C 138.60 177.67 138.06 176.85 137.21 176.67 Z M 135.90 176.43 L 134.93 176.39 C 134.07 176.35 133.34 177.02 133.31 177.88 C 133.27 178.74 133.94 179.47 134.80 179.51 L 135.77 179.55 C 136.63 179.58 137.35 178.91 137.39 178.05 C 137.43 177.19 136.76 176.46 135.90 176.43 Z M 134.61 176.41 L 133.75 176.55 C 132.90 176.69 132.32 177.49 132.46 178.34 C 132.61 179.20 133.41 179.77 134.26 179.63 L 135.12 179.49 C 135.97 179.35 136.55 178.54 136.41 177.69 C 136.27 176.84 135.46 176.27 134.61 176.41 Z M 133.39 176.65 L 132.60 176.99 C 131.81 177.33 131.44 178.25 131.78 179.04 C 132.12 179.83 133.04 180.20 133.83 179.86 L 134.62 179.52 C 135.41 179.19 135.78 178.27 135.44 177.47 C 135.10 176.68 134.18 176.32 133.39 176.65 Z M 132.28 177.18 L 131.56 177.73 C 130.87 178.25 130.73 179.23 131.26 179.91 C 131.78 180.60 132.76 180.74 133.44 180.22 L 134.16 179.67 C 134.85 179.15 134.98 178.17 134.46 177.48 C 133.94 176.80 132.96 176.66 132.28 177.18 Z M 131.33 177.94 L 130.65 178.71 C 130.08 179.36 130.15 180.34 130.80 180.91 C 131.45 181.48 132.43 181.42 133.00 180.77 L 133.67 180.00 C 134.24 179.35 134.18 178.37 133.53 177.80 C 132.88 177.23 131.89 177.29 131.33 177.94 Z M 130.52 178.89 L 129.88 179.87 C 129.41 180.60 129.62 181.56 130.34 182.03 C 131.06 182.50 132.03 182.29 132.50 181.57 L 133.14 180.59 C 133.61 179.86 133.40 178.90 132.68 178.43 C 131.95 177.96 130.99 178.17 130.52 178.89 Z M 129.81 179.98 L 129.37 180.80 C 128.97 181.56 129.25 182.51 130.01 182.91 C 130.77 183.32 131.72 183.04 132.13 182.28 L 132.56 181.46 C 132.97 180.70 132.69 179.75 131.93 179.35 C 131.17 178.94 130.22 179.22 129.81 179.98 Z M 129.34 180.87 L 128.91 181.76 C 128.54 182.54 128.87 183.47 129.65 183.85 C 130.42 184.22 131.36 183.89 131.73 183.11 L 132.16 182.21 C 132.53 181.44 132.20 180.50 131.42 180.13 C 130.65 179.76 129.71 180.09 129.34 180.87 Z M 128.89 181.81 L 128.47 182.76 C 128.13 183.55 128.49 184.47 129.28 184.82 C 130.07 185.16 130.99 184.80 131.33 184.01 L 131.75 183.07 C 132.10 182.28 131.74 181.36 130.95 181.01 C 130.16 180.66 129.24 181.02 128.89 181.81 Z M 128.46 182.80 L 128.07 183.76 C 127.74 184.56 128.12 185.47 128.92 185.80 C 129.72 186.12 130.63 185.74 130.96 184.94 L 131.35 183.98 C 131.68 183.18 131.29 182.27 130.49 181.94 C 129.69 181.62 128.78 182.00 128.46 182.80 Z M 128.05 183.79 L 127.69 184.74 C 127.38 185.54 127.79 186.45 128.59 186.76 C 129.40 187.06 130.30 186.66 130.61 185.86 L 130.97 184.91 C 131.28 184.10 130.88 183.20 130.07 182.89 C 129.26 182.59 128.36 182.99 128.05 183.79 Z M 127.68 184.77 L 127.33 185.75 C 127.03 186.56 127.45 187.46 128.26 187.75 C 129.07 188.04 129.97 187.62 130.26 186.81 L 130.62 185.83 C 130.91 185.02 130.49 184.12 129.68 183.83 C 128.87 183.54 127.97 183.96 127.68 184.77 Z M 127.32 185.78 L 126.99 186.75 C 126.71 187.57 127.15 188.45 127.96 188.73 C 128.78 189.01 129.67 188.57 129.94 187.75 L 130.27 186.78 C 130.55 185.97 130.11 185.08 129.30 184.80 C 128.48 184.53 127.59 184.96 127.32 185.78 Z M 126.98 186.78 L 126.68 187.71 C 126.42 188.53 126.88 189.41 127.70 189.67 C 128.52 189.93 129.40 189.48 129.66 188.66 L 129.95 187.72 C 130.21 186.90 129.76 186.02 128.94 185.76 C 128.12 185.50 127.24 185.96 126.98 186.78 Z M 126.67 187.74 L 126.40 188.66 C 126.15 189.49 126.62 190.36 127.45 190.60 C 128.27 190.85 129.14 190.38 129.39 189.55 L 129.67 188.63 C 129.91 187.81 129.44 186.94 128.62 186.69 C 127.79 186.44 126.92 186.91 126.67 187.74 Z M 126.39 188.68 L 126.12 189.62 C 125.89 190.45 126.37 191.31 127.20 191.55 C 128.03 191.79 128.89 191.31 129.13 190.48 L 129.40 189.53 C 129.63 188.71 129.15 187.84 128.32 187.61 C 127.49 187.37 126.63 187.85 126.39 188.68 Z M 126.12 189.63 L 125.87 190.55 C 125.64 191.38 126.13 192.24 126.96 192.47 C 127.79 192.70 128.65 192.21 128.88 191.38 L 129.13 190.46 C 129.36 189.63 128.87 188.77 128.04 188.54 C 127.21 188.31 126.35 188.80 126.12 189.63 Z M 125.87 190.56 L 125.61 191.51 C 125.39 192.34 125.89 193.19 126.72 193.42 C 127.56 193.64 128.41 193.14 128.63 192.31 L 128.88 191.36 C 129.10 190.53 128.61 189.67 127.77 189.45 C 126.94 189.23 126.09 189.73 125.87 190.56 Z M 125.61 191.52 L 125.36 192.50 C 125.15 193.34 125.66 194.18 126.49 194.40 C 127.33 194.61 128.18 194.10 128.39 193.26 L 128.64 192.29 C 128.85 191.45 128.34 190.60 127.51 190.39 C 126.67 190.18 125.82 190.69 125.61 191.52 Z M 125.36 192.52 L 125.12 193.52 C 124.92 194.36 125.44 195.20 126.28 195.40 C 127.12 195.60 127.96 195.08 128.16 194.24 L 128.40 193.24 C 128.59 192.40 128.08 191.56 127.24 191.36 C 126.40 191.16 125.56 191.68 125.36 192.52 Z M 125.12 193.55 L 124.89 194.56 C 124.71 195.41 125.25 196.24 126.09 196.42 C 126.93 196.60 127.76 196.07 127.95 195.23 L 128.17 194.21 C 128.35 193.37 127.82 192.54 126.97 192.35 C 126.13 192.17 125.30 192.71 125.12 193.55 Z M 124.89 194.59 L 124.70 195.54 C 124.53 196.38 125.09 197.21 125.93 197.37 C 126.78 197.54 127.60 196.99 127.76 196.14 L 127.95 195.20 C 128.12 194.35 127.57 193.53 126.72 193.36 C 125.88 193.20 125.06 193.75 124.89 194.59 Z M 124.70 195.57 L 124.53 196.52 C 124.38 197.37 124.94 198.18 125.79 198.33 C 126.64 198.48 127.45 197.91 127.60 197.07 L 127.77 196.11 C 127.92 195.27 127.36 194.46 126.51 194.30 C 125.66 194.15 124.85 194.72 124.70 195.57 Z M 124.52 196.54 L 124.37 197.51 C 124.23 198.36 124.81 199.17 125.66 199.30 C 126.51 199.44 127.31 198.86 127.45 198.01 L 127.60 197.04 C 127.74 196.19 127.16 195.39 126.31 195.25 C 125.46 195.11 124.66 195.69 124.52 196.54 Z M 124.36 197.54 L 124.22 198.53 C 124.09 199.39 124.68 200.18 125.53 200.30 C 126.39 200.43 127.18 199.84 127.31 198.98 L 127.45 197.99 C 127.58 197.13 126.99 196.34 126.13 196.22 C 125.28 196.09 124.49 196.68 124.36 197.54 Z M 124.21 198.55 L 124.08 199.58 C 123.96 200.44 124.56 201.22 125.42 201.34 C 126.27 201.45 127.06 200.85 127.17 200.00 L 127.31 198.97 C 127.42 198.11 126.82 197.33 125.97 197.21 C 125.11 197.10 124.33 197.70 124.21 198.55 Z M 124.07 199.60 L 123.95 200.61 C 123.84 201.46 124.45 202.24 125.31 202.35 C 126.16 202.45 126.94 201.85 127.05 200.99 L 127.17 199.98 C 127.28 199.12 126.67 198.35 125.81 198.24 C 124.96 198.13 124.18 198.74 124.07 199.60 Z M 123.95 200.62 L 123.84 201.55 C 123.74 202.41 124.35 203.18 125.21 203.28 C 126.07 203.38 126.84 202.77 126.94 201.91 L 127.05 200.98 C 127.15 200.12 126.53 199.35 125.68 199.25 C 124.82 199.15 124.05 199.76 123.95 200.62 Z M 123.84 201.56 L 123.73 202.53 C 123.64 203.38 124.26 204.15 125.12 204.25 C 125.98 204.34 126.75 203.72 126.84 202.86 L 126.94 201.90 C 127.03 201.04 126.41 200.27 125.56 200.18 C 124.70 200.09 123.93 200.71 123.84 201.56 Z M 123.73 202.54 L 123.63 203.53 C 123.55 204.38 124.17 205.15 125.03 205.23 C 125.89 205.32 126.66 204.69 126.74 203.84 L 126.84 202.85 C 126.93 201.99 126.30 201.23 125.44 201.14 C 124.58 201.05 123.82 201.68 123.73 202.54 Z M 123.63 203.54 L 123.54 204.55 C 123.46 205.41 124.10 206.17 124.95 206.25 C 125.81 206.33 126.57 205.69 126.65 204.83 L 126.74 203.82 C 126.82 202.96 126.19 202.20 125.33 202.13 C 124.47 202.05 123.71 202.68 123.63 203.54 Z M 123.54 204.57 L 123.45 205.60 C 123.38 206.46 124.02 207.21 124.88 207.28 C 125.74 207.35 126.50 206.72 126.57 205.86 L 126.65 204.82 C 126.72 203.96 126.08 203.21 125.22 203.14 C 124.36 203.07 123.61 203.71 123.54 204.57 Z M 123.45 205.61 L 123.38 206.67 C 123.31 207.53 123.96 208.28 124.82 208.34 C 125.68 208.40 126.43 207.76 126.49 206.90 L 126.57 205.84 C 126.63 204.98 125.98 204.23 125.12 204.17 C 124.26 204.11 123.52 204.75 123.45 205.61 Z M 123.38 206.68 L 123.31 207.67 C 123.26 208.53 123.91 209.27 124.77 209.33 C 125.63 209.38 126.37 208.73 126.43 207.87 L 126.49 206.88 C 126.55 206.02 125.89 205.28 125.03 205.23 C 124.17 205.17 123.43 205.82 123.38 206.68 Z M 123.31 207.68 L 123.26 208.66 C 123.21 209.52 123.87 210.26 124.73 210.30 C 125.59 210.35 126.33 209.69 126.37 208.83 L 126.43 207.86 C 126.48 207.00 125.82 206.26 124.96 206.21 C 124.10 206.16 123.36 206.82 123.31 207.68 Z M 123.26 208.67 L 123.21 209.66 C 123.17 210.52 123.83 211.25 124.69 211.29 C 125.56 211.33 126.29 210.67 126.33 209.81 L 126.38 208.82 C 126.42 207.96 125.75 207.23 124.89 207.19 C 124.03 207.14 123.30 207.81 123.26 208.67 Z M 123.21 209.67 L 123.17 210.67 C 123.13 211.53 123.80 212.25 124.66 212.29 C 125.53 212.32 126.25 211.65 126.29 210.79 L 126.33 209.80 C 126.36 208.93 125.69 208.21 124.83 208.17 C 123.97 208.14 123.24 208.81 123.21 209.67 Z M 123.17 210.68 L 123.13 211.68 C 123.10 212.55 123.78 213.27 124.64 213.30 C 125.50 213.33 126.22 212.65 126.25 211.79 L 126.29 210.78 C 126.32 209.92 125.64 209.20 124.78 209.17 C 123.92 209.14 123.20 209.81 123.17 210.68 Z M 123.13 211.69 L 123.10 212.71 C 123.08 213.57 123.76 214.29 124.62 214.31 C 125.48 214.34 126.20 213.66 126.22 212.80 L 126.25 211.78 C 126.28 210.92 125.60 210.20 124.74 210.18 C 123.88 210.15 123.16 210.83 123.13 211.69 Z M 123.10 212.72 L 123.08 213.74 C 123.06 214.60 123.74 215.32 124.60 215.34 C 125.47 215.36 126.18 214.67 126.20 213.81 L 126.22 212.79 C 126.24 211.93 125.56 211.21 124.70 211.19 C 123.84 211.17 123.12 211.86 123.10 212.72 Z M 123.08 213.75 L 123.06 214.76 C 123.05 215.62 123.73 216.34 124.59 216.35 C 125.46 216.37 126.17 215.68 126.18 214.82 L 126.20 213.80 C 126.22 212.94 125.53 212.23 124.67 212.22 C 123.81 212.20 123.10 212.89 123.08 213.75 Z M 123.06 214.77 L 123.05 215.77 C 123.04 216.63 123.73 217.34 124.59 217.35 C 125.45 217.36 126.16 216.67 126.17 215.81 L 126.18 214.81 C 126.20 213.95 125.51 213.24 124.64 213.23 C 123.78 213.22 123.07 213.91 123.06 214.77 Z M 123.05 215.77 L 123.04 216.77 C 123.03 217.64 123.72 218.34 124.58 218.35 C 125.45 218.36 126.15 217.67 126.16 216.80 L 126.17 215.80 C 126.18 214.94 125.49 214.24 124.62 214.23 C 123.76 214.22 123.06 214.91 123.05 215.77 Z M 123.04 216.78 L 123.03 217.78 C 123.03 218.64 123.72 219.35 124.58 219.35 C 125.44 219.36 126.15 218.66 126.15 217.80 L 126.16 216.80 C 126.17 215.94 125.47 215.23 124.61 215.23 C 123.75 215.22 123.04 215.92 123.04 216.78 Z M 123.03 217.78 L 123.03 218.79 C 123.02 219.65 123.72 220.35 124.58 220.36 C 125.44 220.36 126.15 219.66 126.15 218.80 L 126.15 217.80 C 126.16 216.94 125.46 216.23 124.60 216.23 C 123.74 216.23 123.03 216.92 123.03 217.78 Z M 123.03 218.79 L 123.03 219.79 C 123.02 220.65 123.72 221.36 124.58 221.36 C 125.44 221.36 126.15 220.66 126.15 219.80 L 126.15 218.80 C 126.15 217.94 125.45 217.23 124.59 217.23 C 123.73 217.23 123.03 217.93 123.03 218.79 Z M 123.03 219.79 L 123.02 220.79 C 123.02 221.66 123.72 222.36 124.58 222.36 C 125.45 222.36 126.15 221.66 126.15 220.80 L 126.15 219.80 C 126.15 218.94 125.45 218.24 124.59 218.23 C 123.73 218.23 123.03 218.93 123.03 219.79 Z M 123.02 220.80 L 123.02 221.79 C 123.02 222.66 123.72 223.35 124.58 223.35 C 125.45 223.35 126.15 222.66 126.15 221.79 L 126.15 220.80 C 126.15 219.93 125.45 219.24 124.59 219.24 C 123.72 219.23 123.02 219.93 123.02 220.80 Z M 123.02 221.79 L 123.02 222.79 C 123.02 223.65 123.72 224.35 124.59 224.35 C 125.45 224.35 126.15 223.65 126.15 222.79 L 126.15 221.79 C 126.15 220.93 125.45 220.23 124.58 220.23 C 123.72 220.23 123.02 220.93 123.02 221.79 Z M 123.02 222.79 L 123.03 223.79 C 123.03 224.65 123.73 225.35 124.59 225.35 C 125.45 225.34 126.15 224.64 126.15 223.78 L 126.15 222.79 C 126.14 221.92 125.44 221.23 124.58 221.23 C 123.72 221.23 123.02 221.93 123.02 222.79 Z M 123.03 223.80 L 123.03 224.79 C 123.04 225.65 123.74 226.35 124.60 226.34 C 125.47 226.33 126.16 225.63 126.16 224.77 L 126.15 223.77 C 126.14 222.91 125.44 222.22 124.58 222.22 C 123.71 222.23 123.02 222.93 123.03 223.80 Z M 123.03 224.80 L 123.05 225.79 C 123.06 226.66 123.77 227.35 124.63 227.33 C 125.49 227.32 126.18 226.61 126.17 225.75 L 126.16 224.76 C 126.14 223.90 125.44 223.21 124.57 223.22 C 123.71 223.23 123.02 223.94 123.03 224.80 Z M 123.05 225.81 L 123.07 226.81 C 123.09 227.67 123.80 228.35 124.67 228.33 C 125.53 228.31 126.21 227.60 126.19 226.73 L 126.17 225.74 C 126.15 224.88 125.43 224.19 124.57 224.21 C 123.71 224.23 123.03 224.95 123.05 225.81 Z M 123.07 226.82 L 123.11 227.82 C 123.14 228.69 123.86 229.36 124.72 229.33 C 125.58 229.30 126.26 228.58 126.23 227.72 L 126.19 226.72 C 126.16 225.85 125.44 225.18 124.58 225.21 C 123.71 225.24 123.04 225.96 123.07 226.82 Z M 123.11 227.85 L 123.16 228.85 C 123.20 229.71 123.93 230.38 124.79 230.34 C 125.65 230.30 126.32 229.56 126.27 228.70 L 126.22 227.70 C 126.18 226.83 125.45 226.17 124.59 226.21 C 123.73 226.25 123.06 226.99 123.11 227.85 Z M 123.16 228.88 L 123.22 229.89 C 123.28 230.75 124.02 231.41 124.88 231.35 C 125.74 231.29 126.39 230.55 126.34 229.69 L 126.27 228.68 C 126.22 227.82 125.47 227.16 124.61 227.22 C 123.75 227.28 123.10 228.02 123.16 228.88 Z M 123.22 229.92 L 123.31 230.94 C 123.38 231.80 124.13 232.44 124.99 232.37 C 125.85 232.30 126.49 231.54 126.42 230.68 L 126.34 229.66 C 126.27 228.80 125.51 228.17 124.65 228.24 C 123.79 228.31 123.15 229.06 123.22 229.92 Z M 123.31 230.96 L 123.41 231.98 C 123.50 232.84 124.26 233.47 125.12 233.38 C 125.98 233.30 126.60 232.53 126.52 231.68 L 126.42 230.66 C 126.33 229.80 125.57 229.17 124.71 229.26 C 123.85 229.34 123.22 230.11 123.31 230.96 Z M 123.41 232.01 L 123.53 233.03 C 123.63 233.88 124.41 234.50 125.26 234.40 C 126.12 234.30 126.73 233.52 126.63 232.67 L 126.52 231.65 C 126.42 230.79 125.64 230.18 124.78 230.28 C 123.93 230.38 123.31 231.15 123.41 232.01 Z M 123.54 233.05 L 123.67 234.06 C 123.78 234.91 124.57 235.51 125.42 235.40 C 126.28 235.28 126.88 234.50 126.76 233.64 L 126.63 232.64 C 126.52 231.78 125.73 231.18 124.88 231.30 C 124.02 231.41 123.42 232.20 123.54 233.05 Z M 123.67 234.09 L 123.82 235.07 C 123.95 235.93 124.75 236.51 125.60 236.38 C 126.45 236.25 127.04 235.46 126.91 234.60 L 126.76 233.62 C 126.63 232.76 125.83 232.18 124.98 232.31 C 124.13 232.44 123.54 233.23 123.67 234.09 Z M 123.83 235.10 L 123.99 236.07 C 124.14 236.92 124.95 237.49 125.80 237.34 C 126.65 237.20 127.22 236.39 127.07 235.54 L 126.91 234.58 C 126.76 233.73 125.95 233.16 125.10 233.30 C 124.25 233.45 123.68 234.25 123.83 235.10 Z M 124.00 236.10 L 124.18 237.04 C 124.34 237.88 125.16 238.44 126.01 238.28 C 126.86 238.11 127.41 237.29 127.25 236.45 L 127.07 235.51 C 126.90 234.66 126.09 234.11 125.24 234.27 C 124.39 234.44 123.84 235.25 124.00 236.10 Z M 124.19 237.07 L 124.41 238.09 C 124.59 238.93 125.42 239.46 126.26 239.28 C 127.11 239.10 127.64 238.27 127.46 237.43 L 127.24 236.41 C 127.06 235.57 126.23 235.03 125.38 235.22 C 124.54 235.40 124.01 236.23 124.19 237.07 Z M 124.42 238.13 L 124.67 239.15 C 124.87 239.99 125.71 240.50 126.55 240.30 C 127.39 240.09 127.90 239.25 127.70 238.41 L 127.45 237.39 C 127.25 236.55 126.40 236.04 125.56 236.24 C 124.73 236.44 124.21 237.29 124.42 238.13 Z M 124.68 239.19 L 124.94 240.17 C 125.17 241.01 126.02 241.50 126.86 241.27 C 127.69 241.05 128.18 240.19 127.96 239.36 L 127.69 238.37 C 127.47 237.54 126.61 237.05 125.78 237.27 C 124.94 237.50 124.45 238.36 124.68 239.19 Z M 124.95 240.21 L 125.23 241.16 C 125.48 241.98 126.34 242.46 127.17 242.21 C 128.00 241.97 128.47 241.10 128.23 240.27 L 127.95 239.32 C 127.70 238.50 126.83 238.03 126.01 238.27 C 125.18 238.51 124.71 239.38 124.95 240.21 Z M 125.24 241.19 L 125.53 242.11 C 125.79 242.93 126.67 243.39 127.49 243.13 C 128.31 242.87 128.77 241.99 128.51 241.17 L 128.22 240.24 C 127.96 239.42 127.08 238.97 126.26 239.23 C 125.44 239.49 124.98 240.37 125.24 241.19 Z M 125.54 242.13 L 125.84 243.04 C 126.12 243.85 127.00 244.29 127.82 244.02 C 128.64 243.75 129.08 242.86 128.80 242.04 L 128.50 241.14 C 128.23 240.32 127.34 239.88 126.52 240.16 C 125.71 240.43 125.27 241.32 125.54 242.13 Z M 125.85 243.06 L 126.17 243.97 C 126.45 244.78 127.34 245.21 128.16 244.92 C 128.97 244.64 129.40 243.75 129.12 242.93 L 128.80 242.02 C 128.51 241.21 127.62 240.78 126.81 241.07 C 125.99 241.35 125.56 242.24 125.85 243.06 Z M 126.17 243.98 L 126.52 244.94 C 126.82 245.75 127.71 246.17 128.52 245.88 C 129.33 245.58 129.75 244.69 129.46 243.88 L 129.11 242.92 C 128.81 242.11 127.92 241.69 127.11 241.98 C 126.30 242.28 125.88 243.17 126.17 243.98 Z M 126.53 244.96 L 126.89 245.91 C 127.19 246.71 128.09 247.12 128.90 246.82 C 129.71 246.51 130.11 245.61 129.81 244.80 L 129.45 243.86 C 129.15 243.05 128.24 242.64 127.44 242.95 C 126.63 243.25 126.23 244.16 126.53 244.96 Z M 126.90 245.93 L 127.27 246.86 C 127.58 247.66 128.49 248.06 129.29 247.74 C 130.09 247.42 130.49 246.51 130.17 245.71 L 129.80 244.78 C 129.48 243.98 128.58 243.59 127.77 243.90 C 126.97 244.22 126.58 245.13 126.90 245.93 Z M 127.28 246.89 L 127.66 247.80 C 127.99 248.60 128.90 248.98 129.70 248.64 C 130.50 248.31 130.87 247.40 130.54 246.60 L 130.16 245.69 C 129.83 244.89 128.91 244.51 128.12 244.85 C 127.32 245.18 126.95 246.09 127.28 246.89 Z M 127.67 247.83 L 128.07 248.73 C 128.41 249.52 129.33 249.88 130.12 249.53 C 130.91 249.18 131.27 248.26 130.92 247.47 L 130.53 246.57 C 130.18 245.78 129.26 245.43 128.47 245.77 C 127.68 246.12 127.32 247.04 127.67 247.83 Z M 128.08 248.76 L 128.50 249.67 C 128.87 250.45 129.80 250.79 130.58 250.42 C 131.36 250.06 131.70 249.13 131.33 248.35 L 130.91 247.44 C 130.54 246.66 129.62 246.32 128.83 246.69 C 128.05 247.05 127.71 247.98 128.08 248.76 Z M 128.52 249.70 L 128.98 250.62 C 129.36 251.40 130.30 251.71 131.07 251.33 C 131.84 250.95 132.16 250.01 131.77 249.24 L 131.32 248.31 C 130.93 247.54 130.00 247.23 129.22 247.61 C 128.45 247.99 128.14 248.93 128.52 249.70 Z M 128.99 250.66 L 129.46 251.55 C 129.87 252.32 130.81 252.61 131.57 252.21 C 132.34 251.81 132.63 250.86 132.23 250.10 L 131.76 249.20 C 131.36 248.44 130.41 248.15 129.65 248.55 C 128.89 248.95 128.59 249.89 128.99 250.66 Z M 129.48 251.58 L 129.96 252.46 C 130.38 253.21 131.33 253.48 132.09 253.07 C 132.84 252.65 133.11 251.70 132.70 250.94 L 132.21 250.07 C 131.79 249.32 130.84 249.04 130.09 249.46 C 129.34 249.88 129.06 250.83 129.48 251.58 Z M 129.98 252.48 L 130.47 253.33 C 130.91 254.08 131.86 254.33 132.61 253.90 C 133.35 253.46 133.61 252.51 133.17 251.76 L 132.68 250.91 C 132.25 250.17 131.29 249.92 130.54 250.35 C 129.80 250.78 129.55 251.74 129.98 252.48 Z M 130.49 253.36 L 130.99 254.18 C 131.44 254.92 132.40 255.15 133.14 254.71 C 133.87 254.26 134.11 253.30 133.66 252.56 L 133.16 251.73 C 132.71 251.00 131.75 250.76 131.01 251.21 C 130.27 251.66 130.04 252.62 130.49 253.36 Z M 131.01 254.21 L 131.57 255.09 C 132.03 255.82 133.00 256.03 133.73 255.57 C 134.45 255.11 134.67 254.14 134.20 253.41 L 133.64 252.53 C 133.18 251.80 132.21 251.59 131.48 252.05 C 130.76 252.52 130.54 253.48 131.01 254.21 Z M 131.58 255.12 L 132.15 255.97 C 132.63 256.69 133.61 256.88 134.33 256.40 C 135.05 255.92 135.24 254.94 134.75 254.23 L 134.19 253.38 C 133.70 252.66 132.73 252.47 132.01 252.95 C 131.29 253.43 131.10 254.41 131.58 255.12 Z M 132.17 256.01 L 132.75 256.82 C 133.25 257.53 134.23 257.69 134.94 257.19 C 135.64 256.69 135.81 255.71 135.31 255.00 L 134.73 254.19 C 134.23 253.48 133.25 253.32 132.55 253.82 C 131.84 254.32 131.67 255.30 132.17 256.01 Z M 132.77 256.85 L 133.36 257.63 C 133.88 258.33 134.86 258.47 135.56 257.95 C 136.25 257.43 136.39 256.44 135.87 255.75 L 135.29 254.97 C 134.77 254.27 133.78 254.13 133.09 254.65 C 132.39 255.17 132.25 256.16 132.77 256.85 Z M 133.38 257.67 L 133.99 258.43 C 134.53 259.11 135.52 259.22 136.20 258.68 C 136.88 258.14 136.99 257.15 136.45 256.46 L 135.85 255.71 C 135.30 255.03 134.31 254.92 133.63 255.46 C 132.95 256.00 132.84 256.99 133.38 257.67 Z M 134.02 258.47 L 134.68 259.25 C 135.25 259.91 136.24 259.99 136.91 259.42 C 137.57 258.86 137.65 257.86 137.08 257.20 L 136.42 256.42 C 135.85 255.76 134.86 255.68 134.19 256.25 C 133.53 256.81 133.45 257.81 134.02 258.47 Z M 134.72 259.29 L 135.40 260.03 C 135.99 260.68 136.99 260.72 137.63 260.13 C 138.27 259.54 138.32 258.54 137.73 257.90 L 137.05 257.16 C 136.46 256.51 135.46 256.47 134.81 257.06 C 134.17 257.65 134.13 258.65 134.72 259.29 Z M 135.43 260.07 L 136.13 260.78 C 136.74 261.41 137.74 261.41 138.37 260.80 C 138.99 260.19 139.00 259.19 138.38 258.56 L 137.69 257.86 C 137.08 257.23 136.07 257.22 135.45 257.84 C 134.83 258.45 134.82 259.45 135.43 260.07 Z M 136.17 260.82 L 136.88 261.50 C 137.51 262.10 138.52 262.07 139.12 261.44 C 139.72 260.80 139.70 259.80 139.06 259.20 L 138.35 258.52 C 137.71 257.92 136.71 257.95 136.11 258.58 C 135.50 259.22 135.53 260.22 136.17 260.82 Z M 136.92 261.54 L 137.65 262.18 C 138.30 262.76 139.31 262.70 139.89 262.04 C 140.47 261.38 140.41 260.38 139.75 259.80 L 139.02 259.16 C 138.36 258.58 137.36 258.64 136.78 259.30 C 136.20 259.96 136.26 260.96 136.92 261.54 Z M 137.71 262.24 L 138.47 262.84 C 139.16 263.38 140.16 263.27 140.70 262.58 C 141.25 261.89 141.13 260.89 140.44 260.35 L 139.68 259.75 C 139.00 259.20 138.00 259.32 137.45 260.01 C 136.91 260.69 137.03 261.69 137.71 262.24 Z M 138.58 262.91 L 139.40 263.46 C 140.13 263.95 141.11 263.75 141.60 263.02 C 142.09 262.29 141.89 261.31 141.16 260.82 L 140.34 260.27 C 139.61 259.79 138.63 259.98 138.14 260.71 C 137.65 261.44 137.85 262.43 138.58 262.91 Z M 139.54 263.55 L 140.43 264.02 C 141.21 264.43 142.17 264.13 142.58 263.36 C 142.99 262.58 142.69 261.62 141.92 261.21 L 141.02 260.74 C 140.24 260.33 139.28 260.62 138.87 261.40 C 138.46 262.18 138.76 263.14 139.54 263.55 Z M 140.60 264.10 L 141.58 264.47 C 142.40 264.79 143.32 264.38 143.63 263.56 C 143.95 262.74 143.54 261.82 142.72 261.51 L 141.75 261.13 C 140.93 260.82 140.01 261.22 139.69 262.04 C 139.38 262.86 139.78 263.78 140.60 264.10 Z M 141.74 264.53 L 142.72 264.79 C 143.57 265.01 144.44 264.50 144.67 263.66 C 144.89 262.81 144.38 261.94 143.54 261.71 L 142.56 261.45 C 141.71 261.23 140.84 261.73 140.61 262.58 C 140.39 263.43 140.89 264.30 141.74 264.53 Z M 142.85 264.81 L 143.87 265.00 C 144.74 265.15 145.56 264.58 145.72 263.71 C 145.87 262.85 145.30 262.02 144.43 261.87 L 143.41 261.68 C 142.54 261.53 141.72 262.11 141.56 262.97 C 141.41 263.83 141.98 264.66 142.85 264.81 Z M 143.98 265.01 L 145.00 265.12 C 145.88 265.22 146.66 264.59 146.76 263.72 C 146.85 262.85 146.22 262.06 145.35 261.96 L 144.33 261.85 C 143.45 261.76 142.67 262.39 142.57 263.26 C 142.48 264.13 143.11 264.92 143.98 265.01 Z M 145.10 265.13 L 146.08 265.18 C 146.96 265.22 147.71 264.55 147.75 263.67 C 147.79 262.79 147.12 262.05 146.24 262.01 L 145.26 261.96 C 144.38 261.91 143.63 262.59 143.59 263.47 C 143.55 264.34 144.22 265.09 145.10 265.13 Z M 146.18 265.18 L 147.15 265.17 C 148.03 265.16 148.73 264.44 148.72 263.56 C 148.71 262.68 147.99 261.98 147.11 261.99 L 146.14 262.00 C 145.27 262.02 144.56 262.74 144.57 263.61 C 144.59 264.49 145.31 265.19 146.18 265.18 Z M 147.30 265.16 L 148.39 265.05 C 149.26 264.96 149.90 264.18 149.81 263.30 C 149.72 262.43 148.94 261.80 148.06 261.89 L 146.97 262.00 C 146.10 262.09 145.46 262.87 145.55 263.74 C 145.64 264.62 146.42 265.25 147.30 265.16 Z M 148.61 265.00 L 149.55 264.77 C 150.40 264.56 150.91 263.70 150.70 262.85 C 150.49 262.00 149.63 261.49 148.78 261.70 L 147.84 261.93 C 147.00 262.14 146.48 263.00 146.69 263.85 C 146.90 264.70 147.76 265.22 148.61 265.00 Z M 149.79 264.68 L 150.64 264.32 C 151.44 263.97 151.80 263.04 151.45 262.24 C 151.11 261.44 150.17 261.07 149.37 261.42 L 148.53 261.79 C 147.73 262.13 147.37 263.06 147.72 263.86 C 148.06 264.66 148.99 265.03 149.79 264.68 Z M 150.84 264.20 L 151.61 263.72 C 152.35 263.26 152.57 262.28 152.11 261.55 C 151.65 260.81 150.67 260.59 149.94 261.05 L 149.17 261.53 C 148.43 262.00 148.21 262.97 148.67 263.71 C 149.13 264.44 150.11 264.67 150.84 264.20 Z M 151.76 263.61 L 152.50 263.02 C 153.18 262.47 153.29 261.48 152.75 260.80 C 152.20 260.13 151.21 260.02 150.53 260.56 L 149.79 261.16 C 149.11 261.70 149.00 262.69 149.55 263.37 C 150.09 264.05 151.08 264.16 151.76 263.61 Z M 152.61 262.92 L 153.34 262.22 C 153.97 261.62 153.99 260.62 153.38 259.99 C 152.78 259.37 151.79 259.35 151.16 259.95 L 150.43 260.66 C 149.80 261.26 149.78 262.25 150.38 262.88 C 150.99 263.51 151.98 263.53 152.61 262.92 Z M 153.42 262.14 L 154.14 261.34 C 154.72 260.69 154.67 259.70 154.03 259.12 C 153.38 258.54 152.39 258.59 151.81 259.23 L 151.08 260.03 C 150.50 260.68 150.55 261.67 151.20 262.25 C 151.84 262.83 152.84 262.78 153.42 262.14 Z M 154.19 261.27 L 154.79 260.53 C 155.34 259.86 155.24 258.87 154.56 258.33 C 153.89 257.78 152.90 257.88 152.36 258.55 L 151.76 259.29 C 151.21 259.97 151.31 260.95 151.98 261.50 C 152.66 262.05 153.65 261.95 154.19 261.27 Z M 154.83 260.49 L 155.41 259.72 C 155.93 259.03 155.79 258.04 155.10 257.52 C 154.41 257.00 153.42 257.14 152.90 257.83 L 152.32 258.60 C 151.80 259.29 151.94 260.27 152.63 260.80 C 153.32 261.32 154.31 261.18 154.83 260.49 Z M 155.43 259.68 L 156.01 258.87 C 156.51 258.16 156.35 257.18 155.64 256.68 C 154.94 256.18 153.96 256.35 153.46 257.05 L 152.88 257.87 C 152.38 258.57 152.54 259.55 153.25 260.05 C 153.95 260.55 154.93 260.39 155.43 259.68 Z M 156.03 258.84 L 156.61 257.98 C 157.10 257.27 156.91 256.29 156.20 255.81 C 155.49 255.32 154.51 255.51 154.03 256.22 L 153.44 257.08 C 152.96 257.79 153.14 258.77 153.85 259.25 C 154.57 259.74 155.54 259.55 156.03 258.84 Z M 156.62 257.96 L 157.20 257.08 C 157.68 256.36 157.48 255.40 156.76 254.92 C 156.04 254.44 155.07 254.64 154.60 255.36 L 154.02 256.24 C 153.54 256.96 153.74 257.93 154.46 258.40 C 155.18 258.88 156.15 258.68 156.62 257.96 Z M 157.21 257.07 L 157.74 256.26 C 158.20 255.53 158.00 254.57 157.27 254.10 C 156.55 253.63 155.58 253.84 155.11 254.56 L 154.59 255.38 C 154.12 256.10 154.33 257.07 155.05 257.53 C 155.78 258.00 156.74 257.79 157.21 257.07 Z M 157.75 256.24 L 158.27 255.40 C 158.73 254.67 158.51 253.71 157.78 253.25 C 157.05 252.79 156.09 253.01 155.63 253.74 L 155.10 254.58 C 154.64 255.31 154.86 256.27 155.59 256.73 C 156.32 257.19 157.29 256.97 157.75 256.24 Z M 158.29 255.38 L 158.81 254.52 C 159.26 253.78 159.02 252.82 158.28 252.37 C 157.54 251.93 156.58 252.16 156.14 252.90 L 155.62 253.76 C 155.17 254.50 155.41 255.46 156.14 255.91 C 156.88 256.35 157.84 256.12 158.29 255.38 Z M 158.83 254.49 L 159.33 253.61 C 159.76 252.86 159.51 251.91 158.76 251.48 C 158.02 251.04 157.06 251.30 156.63 252.05 L 156.12 252.93 C 155.69 253.68 155.95 254.63 156.69 255.06 C 157.44 255.49 158.39 255.24 158.83 254.49 Z M 159.35 253.57 L 159.84 252.68 C 160.25 251.92 159.97 250.97 159.22 250.56 C 158.46 250.15 157.51 250.43 157.10 251.18 L 156.61 252.08 C 156.20 252.84 156.48 253.79 157.24 254.20 C 157.99 254.61 158.94 254.33 159.35 253.57 Z M 159.86 252.64 L 160.31 251.75 C 160.70 250.98 160.40 250.04 159.63 249.65 C 158.86 249.26 157.92 249.57 157.53 250.34 L 157.08 251.22 C 156.69 251.99 156.99 252.93 157.76 253.32 C 158.53 253.71 159.47 253.41 159.86 252.64 Z M 160.33 251.71 L 160.76 250.81 C 161.13 250.03 160.79 249.10 160.01 248.73 C 159.23 248.36 158.30 248.70 157.93 249.48 L 157.51 250.37 C 157.14 251.15 157.47 252.08 158.25 252.45 C 159.03 252.82 159.96 252.49 160.33 251.71 Z M 160.77 250.77 L 161.18 249.86 C 161.52 249.07 161.17 248.15 160.38 247.80 C 159.59 247.46 158.67 247.81 158.32 248.60 L 157.92 249.51 C 157.57 250.30 157.93 251.22 158.71 251.57 C 159.50 251.92 160.42 251.56 160.77 250.77 Z M 161.19 249.83 L 161.57 248.90 C 161.90 248.11 161.53 247.19 160.73 246.86 C 159.93 246.53 159.02 246.91 158.69 247.71 L 158.31 248.63 C 157.98 249.43 158.35 250.34 159.15 250.67 C 159.95 251.00 160.86 250.63 161.19 249.83 Z M 161.59 248.87 L 161.95 247.94 C 162.27 247.13 161.87 246.23 161.07 245.91 C 160.26 245.60 159.36 246.00 159.04 246.80 L 158.68 247.74 C 158.36 248.54 158.76 249.45 159.56 249.76 C 160.37 250.07 161.27 249.68 161.59 248.87 Z M 161.96 247.91 L 162.31 246.97 C 162.61 246.16 162.20 245.26 161.39 244.97 C 160.58 244.67 159.68 245.08 159.38 245.89 L 159.03 246.83 C 158.73 247.64 159.15 248.53 159.96 248.83 C 160.77 249.13 161.66 248.72 161.96 247.91 Z M 162.32 246.95 L 162.65 246.02 C 162.93 245.21 162.50 244.31 161.69 244.03 C 160.88 243.74 159.99 244.17 159.70 244.98 L 159.37 245.91 C 159.09 246.72 159.51 247.62 160.33 247.90 C 161.14 248.19 162.03 247.76 162.32 246.95 Z M 162.65 246.00 L 162.97 245.06 C 163.24 244.24 162.81 243.36 161.99 243.08 C 161.17 242.80 160.29 243.24 160.01 244.06 L 159.69 245.00 C 159.42 245.82 159.86 246.70 160.67 246.98 C 161.49 247.26 162.38 246.82 162.65 246.00 Z M 162.97 245.04 L 163.28 244.09 C 163.55 243.27 163.10 242.39 162.28 242.12 C 161.46 241.86 160.58 242.31 160.31 243.13 L 160.00 244.08 C 159.74 244.90 160.19 245.78 161.01 246.04 C 161.83 246.31 162.71 245.86 162.97 245.04 Z M 163.29 244.07 L 163.59 243.11 C 163.85 242.29 163.39 241.41 162.57 241.16 C 161.74 240.90 160.87 241.36 160.61 242.18 L 160.31 243.14 C 160.05 243.96 160.51 244.84 161.33 245.10 C 162.15 245.36 163.03 244.90 163.29 244.07 Z M 163.59 243.10 L 163.89 242.13 C 164.14 241.30 163.67 240.43 162.85 240.18 C 162.02 239.93 161.15 240.40 160.90 241.22 L 160.61 242.19 C 160.35 243.02 160.82 243.89 161.65 244.14 C 162.47 244.39 163.34 243.93 163.59 243.10 Z M 163.89 242.12 L 164.18 241.16 C 164.42 240.33 163.95 239.46 163.12 239.22 C 162.30 238.97 161.43 239.44 161.18 240.27 L 160.90 241.23 C 160.65 242.06 161.12 242.93 161.95 243.17 C 162.78 243.42 163.65 242.95 163.89 242.12 Z M 164.18 241.15 L 164.46 240.19 C 164.69 239.36 164.22 238.50 163.39 238.26 C 162.56 238.02 161.69 238.50 161.46 239.32 L 161.18 240.28 C 160.94 241.11 161.42 241.98 162.25 242.22 C 163.07 242.45 163.94 241.98 164.18 241.15 Z M 164.46 240.18 L 164.73 239.21 C 164.96 238.38 164.48 237.52 163.65 237.29 C 162.82 237.06 161.95 237.54 161.72 238.37 L 161.45 239.34 C 161.22 240.17 161.70 241.03 162.53 241.26 C 163.36 241.49 164.23 241.01 164.46 240.18 Z M 164.73 239.20 L 164.99 238.23 C 165.22 237.40 164.72 236.54 163.89 236.32 C 163.06 236.09 162.20 236.59 161.98 237.42 L 161.72 238.39 C 161.49 239.22 161.99 240.08 162.82 240.30 C 163.65 240.52 164.51 240.03 164.73 239.20 Z M 165.00 238.21 L 165.25 237.24 C 165.46 236.41 164.96 235.56 164.12 235.34 C 163.29 235.13 162.44 235.63 162.22 236.47 L 161.97 237.44 C 161.76 238.27 162.26 239.12 163.10 239.34 C 163.93 239.55 164.78 239.05 165.00 238.21 Z M 165.25 237.22 L 165.49 236.25 C 165.69 235.41 165.18 234.57 164.34 234.36 C 163.50 234.16 162.66 234.67 162.45 235.51 L 162.22 236.49 C 162.01 237.32 162.53 238.17 163.37 238.37 C 164.20 238.57 165.05 238.06 165.25 237.22 Z M 165.49 236.23 L 165.72 235.25 C 165.91 234.40 165.38 233.57 164.54 233.38 C 163.70 233.19 162.86 233.71 162.67 234.55 L 162.45 235.53 C 162.26 236.38 162.78 237.21 163.62 237.40 C 164.47 237.60 165.30 237.07 165.49 236.23 Z M 165.72 235.22 L 165.93 234.24 C 166.11 233.40 165.57 232.57 164.73 232.39 C 163.89 232.21 163.06 232.75 162.88 233.59 L 162.67 234.57 C 162.49 235.42 163.03 236.25 163.87 236.43 C 164.71 236.61 165.54 236.07 165.72 235.22 Z M 165.94 234.22 L 166.13 233.24 C 166.30 232.39 165.75 231.57 164.91 231.40 C 164.06 231.23 163.24 231.78 163.07 232.62 L 162.87 233.61 C 162.71 234.45 163.25 235.28 164.10 235.45 C 164.95 235.61 165.77 235.07 165.94 234.22 Z M 166.14 233.22 L 166.32 232.24 C 166.48 231.39 165.92 230.57 165.07 230.41 C 164.23 230.26 163.41 230.81 163.25 231.66 L 163.07 232.64 C 162.91 233.49 163.47 234.31 164.31 234.46 C 165.16 234.62 165.98 234.07 166.14 233.22 Z M 166.32 232.22 L 166.50 231.24 C 166.65 230.39 166.08 229.58 165.23 229.43 C 164.38 229.28 163.57 229.85 163.42 230.70 L 163.25 231.68 C 163.10 232.53 163.66 233.34 164.51 233.49 C 165.36 233.64 166.17 233.07 166.32 232.22 Z M 166.50 231.23 L 166.66 230.25 C 166.81 229.40 166.23 228.60 165.38 228.46 C 164.53 228.31 163.73 228.88 163.58 229.74 L 163.42 230.71 C 163.28 231.56 163.85 232.37 164.70 232.51 C 165.55 232.65 166.36 232.08 166.50 231.23 Z M 166.67 230.24 L 166.82 229.26 C 166.96 228.41 166.38 227.61 165.53 227.47 C 164.68 227.34 163.88 227.92 163.74 228.77 L 163.58 229.75 C 163.45 230.60 164.02 231.40 164.88 231.54 C 165.73 231.67 166.53 231.09 166.67 230.24 Z M 166.82 229.25 L 166.98 228.27 C 167.11 227.42 166.52 226.62 165.67 226.49 C 164.82 226.36 164.02 226.94 163.89 227.80 L 163.74 228.78 C 163.61 229.63 164.19 230.43 165.04 230.56 C 165.90 230.69 166.69 230.10 166.82 229.25 Z M 166.98 228.26 L 167.12 227.28 C 167.25 226.43 166.66 225.63 165.81 225.51 C 164.96 225.38 164.16 225.97 164.03 226.82 L 163.89 227.81 C 163.76 228.66 164.35 229.45 165.20 229.58 C 166.06 229.71 166.85 229.12 166.98 228.26 Z M 167.12 227.27 L 167.27 226.29 C 167.39 225.43 166.80 224.64 165.94 224.52 C 165.09 224.40 164.30 224.99 164.18 225.84 L 164.03 226.83 C 163.91 227.68 164.50 228.48 165.36 228.60 C 166.21 228.72 167.00 228.13 167.12 227.27 Z M 167.27 226.28 L 167.41 225.28 C 167.53 224.43 166.93 223.64 166.08 223.52 C 165.22 223.40 164.43 223.99 164.31 224.85 L 164.17 225.85 C 164.06 226.70 164.65 227.49 165.50 227.61 C 166.36 227.73 167.15 227.13 167.27 226.28 Z M 167.41 225.28 L 167.54 224.27 C 167.66 223.42 167.06 222.63 166.21 222.51 C 165.36 222.39 164.57 222.99 164.45 223.85 L 164.31 224.85 C 164.20 225.71 164.79 226.49 165.65 226.61 C 166.50 226.73 167.29 226.13 167.41 225.28 Z M 167.55 224.26 L 167.68 223.26 C 167.79 222.41 167.19 221.62 166.34 221.51 C 165.49 221.39 164.70 221.99 164.59 222.85 L 164.45 223.85 C 164.34 224.70 164.94 225.49 165.79 225.60 C 166.65 225.72 167.43 225.12 167.55 224.26 Z M 167.68 223.26 L 167.81 222.25 C 167.92 221.39 167.32 220.61 166.46 220.50 C 165.61 220.39 164.82 220.99 164.71 221.85 L 164.58 222.86 C 164.47 223.71 165.08 224.49 165.93 224.60 C 166.79 224.71 167.57 224.11 167.68 223.26 Z M 167.81 222.24 L 167.94 221.23 C 168.04 220.38 167.43 219.60 166.57 219.49 C 165.72 219.39 164.94 220.00 164.84 220.85 L 164.71 221.86 C 164.61 222.71 165.22 223.49 166.07 223.60 C 166.93 223.70 167.71 223.09 167.81 222.24 Z M 167.94 221.22 L 168.05 220.22 C 168.15 219.37 167.53 218.59 166.67 218.50 C 165.82 218.40 165.04 219.02 164.95 219.87 L 164.83 220.87 C 164.74 221.72 165.35 222.50 166.21 222.59 C 167.07 222.69 167.84 222.07 167.94 221.22 Z M 168.05 220.20 L 168.15 219.23 C 168.24 218.37 167.61 217.60 166.75 217.52 C 165.89 217.43 165.13 218.06 165.04 218.91 L 164.94 219.89 C 164.86 220.75 165.48 221.51 166.34 221.60 C 167.20 221.69 167.96 221.06 168.05 220.20 Z M 168.15 219.20 L 168.24 218.20 C 168.31 217.35 167.67 216.59 166.81 216.52 C 165.95 216.44 165.20 217.08 165.12 217.94 L 165.04 218.94 C 164.97 219.80 165.60 220.55 166.46 220.63 C 167.32 220.70 168.08 220.06 168.15 219.20 Z M 168.24 218.18 L 168.31 217.14 C 168.36 216.28 167.71 215.53 166.85 215.48 C 165.99 215.42 165.25 216.07 165.19 216.93 L 165.12 217.97 C 165.07 218.83 165.72 219.57 166.58 219.63 C 167.44 219.69 168.18 219.04 168.24 218.18 Z M 168.31 217.11 L 168.36 216.10 C 168.40 215.24 167.74 214.51 166.88 214.46 C 166.02 214.42 165.28 215.09 165.24 215.95 L 165.19 216.96 C 165.15 217.82 165.81 218.55 166.67 218.59 C 167.53 218.64 168.27 217.97 168.31 217.11 Z M 168.36 216.08 L 168.39 215.09 C 168.42 214.23 167.75 213.51 166.89 213.48 C 166.03 213.45 165.30 214.12 165.27 214.98 L 165.24 215.97 C 165.21 216.83 165.88 217.55 166.74 217.58 C 167.61 217.61 168.33 216.94 168.36 216.08 Z M 168.39 215.07 L 168.42 214.11 C 168.44 213.24 167.75 212.53 166.89 212.51 C 166.03 212.49 165.32 213.17 165.30 214.03 L 165.27 215.00 C 165.25 215.86 165.94 216.58 166.80 216.60 C 167.66 216.62 168.37 215.94 168.39 215.07 Z M 168.42 214.09 L 168.43 213.12 C 168.45 212.26 167.76 211.55 166.89 211.54 C 166.03 211.53 165.32 212.21 165.31 213.08 L 165.30 214.05 C 165.28 214.91 165.97 215.62 166.83 215.63 C 167.69 215.64 168.40 214.96 168.42 214.09 Z M 168.43 213.12 L 168.44 212.10 C 168.45 211.24 167.76 210.53 166.90 210.52 C 166.03 210.52 165.33 211.21 165.32 212.07 L 165.31 213.08 C 165.30 213.95 165.99 214.65 166.86 214.66 C 167.72 214.67 168.42 213.98 168.43 213.12 Z M 168.44 212.10 L 168.45 211.09 C 168.45 210.23 167.76 209.52 166.90 209.52 C 166.03 209.51 165.33 210.21 165.33 211.07 L 165.32 212.08 C 165.31 212.94 166.01 213.64 166.87 213.65 C 167.73 213.65 168.44 212.96 168.44 212.10 Z M 168.45 211.08 L 168.45 210.08 C 168.45 209.22 167.76 208.52 166.89 208.52 C 166.03 208.52 165.33 209.21 165.33 210.08 L 165.33 211.07 C 165.32 211.94 166.02 212.64 166.88 212.64 C 167.74 212.64 168.45 211.95 168.45 211.08 Z M 168.45 210.08 L 168.45 209.09 C 168.45 208.23 167.75 207.53 166.89 207.53 C 166.03 207.53 165.33 208.23 165.33 209.09 L 165.33 210.08 C 165.33 210.94 166.03 211.64 166.89 211.64 C 167.75 211.64 168.45 210.94 168.45 210.08 Z M 168.45 209.09 L 168.45 208.10 C 168.45 207.23 167.75 206.53 166.89 206.53 C 166.03 206.53 165.33 207.23 165.33 208.10 L 165.33 209.09 C 165.33 209.95 166.03 210.65 166.89 210.65 C 167.75 210.65 168.45 209.95 168.45 209.09 Z M 168.45 208.09 L 168.45 207.07 C 168.45 206.21 167.74 205.51 166.88 205.52 C 166.02 205.52 165.32 206.22 165.33 207.08 L 165.33 208.10 C 165.33 208.96 166.03 209.66 166.90 209.66 C 167.76 209.65 168.45 208.95 168.45 208.09 Z M 168.45 207.05 L 168.43 206.05 C 168.42 205.19 167.71 204.50 166.85 204.51 C 165.99 204.52 165.30 205.23 165.31 206.10 L 165.33 207.10 C 165.34 207.96 166.05 208.65 166.91 208.64 C 167.77 208.63 168.46 207.92 168.45 207.05 Z M 168.43 206.02 L 168.40 205.02 C 168.36 204.16 167.64 203.49 166.78 203.52 C 165.92 203.55 165.24 204.28 165.28 205.14 L 165.31 206.13 C 165.34 206.99 166.07 207.66 166.93 207.63 C 167.79 207.60 168.46 206.88 168.43 206.02 Z M 168.39 204.97 L 168.33 203.99 C 168.27 203.13 167.52 202.48 166.66 202.54 C 165.80 202.60 165.15 203.35 165.21 204.21 L 165.28 205.19 C 165.34 206.05 166.08 206.70 166.94 206.64 C 167.80 206.58 168.45 205.83 168.39 204.97 Z M 168.32 203.93 L 168.21 202.93 C 168.12 202.07 167.34 201.46 166.49 201.55 C 165.63 201.64 165.01 202.42 165.11 203.27 L 165.22 204.27 C 165.31 205.13 166.08 205.75 166.94 205.65 C 167.80 205.56 168.41 204.78 168.32 203.93 Z M 168.20 202.86 L 168.05 201.86 C 167.91 201.01 167.12 200.43 166.26 200.56 C 165.41 200.69 164.83 201.49 164.96 202.34 L 165.12 203.34 C 165.25 204.19 166.05 204.78 166.90 204.64 C 167.75 204.51 168.33 203.71 168.20 202.86 Z M 168.03 201.80 L 167.84 200.82 C 167.67 199.97 166.85 199.42 166.00 199.59 C 165.16 199.76 164.61 200.58 164.78 201.43 L 164.97 202.41 C 165.14 203.25 165.96 203.80 166.81 203.64 C 167.65 203.47 168.20 202.65 168.03 201.80 Z M 167.83 200.76 L 167.60 199.80 C 167.40 198.96 166.56 198.44 165.72 198.64 C 164.88 198.84 164.36 199.68 164.56 200.52 L 164.79 201.48 C 164.99 202.32 165.83 202.84 166.67 202.64 C 167.51 202.44 168.03 201.60 167.83 200.76 Z M 167.58 199.74 L 167.32 198.79 C 167.09 197.96 166.23 197.47 165.40 197.70 C 164.57 197.93 164.08 198.79 164.31 199.62 L 164.57 200.57 C 164.80 201.40 165.66 201.89 166.49 201.66 C 167.32 201.43 167.81 200.57 167.58 199.74 Z M 167.31 198.74 L 167.01 197.79 C 166.76 196.96 165.88 196.50 165.06 196.76 C 164.24 197.01 163.77 197.89 164.03 198.71 L 164.33 199.67 C 164.58 200.49 165.46 200.95 166.28 200.70 C 167.10 200.44 167.56 199.57 167.31 198.74 Z M 167.00 197.74 L 166.68 196.80 C 166.40 195.99 165.51 195.55 164.69 195.83 C 163.88 196.11 163.44 197.00 163.72 197.82 L 164.04 198.76 C 164.32 199.57 165.21 200.01 166.03 199.73 C 166.84 199.45 167.28 198.56 167.00 197.74 Z M 166.66 196.77 L 166.31 195.83 C 166.01 195.02 165.12 194.61 164.31 194.91 C 163.50 195.21 163.09 196.11 163.39 196.92 L 163.73 197.85 C 164.04 198.66 164.93 199.07 165.74 198.77 C 166.55 198.47 166.96 197.57 166.66 196.77 Z M 166.30 195.80 L 165.93 194.86 C 165.61 194.06 164.71 193.67 163.90 193.99 C 163.10 194.31 162.71 195.21 163.03 196.02 L 163.40 196.95 C 163.72 197.75 164.62 198.14 165.43 197.83 C 166.23 197.51 166.62 196.60 166.30 195.80 Z M 165.92 194.84 L 165.53 193.89 C 165.19 193.10 164.28 192.72 163.48 193.05 C 162.69 193.39 162.31 194.30 162.64 195.10 L 163.04 196.04 C 163.37 196.84 164.29 197.21 165.08 196.88 C 165.88 196.55 166.25 195.63 165.92 194.84 Z M 165.51 193.86 L 165.10 192.93 C 164.75 192.14 163.83 191.78 163.04 192.13 C 162.25 192.48 161.89 193.40 162.24 194.19 L 162.66 195.13 C 163.01 195.91 163.93 196.27 164.72 195.92 C 165.50 195.57 165.86 194.65 165.51 193.86 Z M 165.08 192.89 L 164.65 191.98 C 164.28 191.20 163.35 190.87 162.57 191.24 C 161.79 191.60 161.46 192.53 161.83 193.31 L 162.26 194.22 C 162.63 195.00 163.56 195.34 164.34 194.97 C 165.12 194.60 165.45 193.67 165.08 192.89 Z M 164.63 191.94 L 164.19 191.07 C 163.80 190.30 162.85 190.00 162.09 190.39 C 161.32 190.79 161.02 191.73 161.41 192.50 L 161.85 193.36 C 162.24 194.13 163.18 194.43 163.95 194.04 C 164.72 193.64 165.02 192.70 164.63 191.94 Z M 164.16 191.01 L 163.65 190.12 C 163.22 189.37 162.27 189.10 161.52 189.53 C 160.77 189.96 160.51 190.91 160.93 191.66 L 161.44 192.55 C 161.87 193.30 162.82 193.57 163.57 193.14 C 164.32 192.72 164.58 191.76 164.16 191.01 Z M 163.61 190.05 L 163.05 189.18 C 162.59 188.45 161.62 188.24 160.89 188.70 C 160.17 189.17 159.95 190.13 160.42 190.86 L 160.97 191.73 C 161.44 192.45 162.40 192.67 163.13 192.20 C 163.86 191.74 164.07 190.77 163.61 190.05 Z M 163.00 189.11 L 162.44 188.32 C 161.94 187.62 160.96 187.45 160.26 187.96 C 159.56 188.46 159.40 189.43 159.90 190.13 L 160.46 190.93 C 160.97 191.63 161.94 191.79 162.64 191.29 C 163.34 190.79 163.51 189.81 163.00 189.11 Z M 162.40 188.26 L 161.82 187.53 C 161.29 186.85 160.30 186.73 159.63 187.27 C 158.95 187.80 158.83 188.78 159.36 189.46 L 159.94 190.19 C 160.47 190.87 161.46 190.99 162.13 190.45 C 162.81 189.92 162.93 188.94 162.40 188.26 Z M 161.78 187.48 L 161.17 186.77 C 160.61 186.12 159.63 186.05 158.97 186.61 C 158.32 187.17 158.24 188.15 158.81 188.81 L 159.41 189.51 C 159.97 190.16 160.95 190.24 161.61 189.68 C 162.26 189.12 162.34 188.13 161.78 187.48 Z M 161.12 186.71 L 160.46 186.02 C 159.86 185.40 158.87 185.37 158.25 185.97 C 157.63 186.56 157.60 187.55 158.20 188.18 L 158.86 188.87 C 159.46 189.49 160.44 189.52 161.07 188.92 C 161.69 188.33 161.71 187.34 161.12 186.71 Z M 160.40 185.96 L 159.63 185.24 C 159.00 184.65 158.01 184.68 157.42 185.31 C 156.83 185.94 156.86 186.93 157.49 187.51 L 158.26 188.24 C 158.89 188.83 159.88 188.79 160.47 188.17 C 161.06 187.54 161.02 186.55 160.40 185.96 Z M 159.57 185.19 L 158.81 184.54 C 158.15 183.97 157.17 184.05 156.61 184.71 C 156.05 185.36 156.12 186.35 156.78 186.91 L 157.54 187.56 C 158.20 188.12 159.18 188.05 159.75 187.39 C 160.31 186.74 160.23 185.75 159.57 185.19 Z M 158.76 184.50 L 158.02 183.91 C 157.34 183.37 156.36 183.48 155.82 184.16 C 155.29 184.83 155.40 185.81 156.07 186.35 L 156.82 186.94 C 157.50 187.48 158.48 187.37 159.01 186.69 C 159.55 186.02 159.44 185.04 158.76 184.50 Z M 157.98 183.87 L 157.17 183.27 C 156.48 182.76 155.50 182.90 154.98 183.59 C 154.47 184.28 154.61 185.26 155.30 185.78 L 156.11 186.38 C 156.81 186.89 157.78 186.75 158.30 186.06 C 158.81 185.37 158.67 184.39 157.98 183.87 Z M 157.12 183.24 L 156.27 182.65 C 155.56 182.16 154.59 182.34 154.10 183.05 C 153.61 183.76 153.78 184.73 154.49 185.22 L 155.35 185.81 C 156.06 186.30 157.03 186.12 157.52 185.41 C 158.01 184.70 157.83 183.73 157.12 183.24 Z M 156.21 182.61 L 155.33 182.06 C 154.60 181.59 153.64 181.81 153.18 182.54 C 152.72 183.27 152.93 184.23 153.66 184.69 L 154.55 185.25 C 155.27 185.71 156.24 185.50 156.70 184.77 C 157.16 184.04 156.94 183.08 156.21 182.61 Z M 155.27 182.02 L 154.34 181.49 C 153.59 181.07 152.64 181.33 152.21 182.08 C 151.79 182.83 152.05 183.78 152.80 184.21 L 153.73 184.73 C 154.48 185.16 155.43 184.89 155.85 184.14 C 156.28 183.39 156.02 182.44 155.27 182.02 Z M 154.27 181.45 L 153.33 180.99 C 152.56 180.60 151.62 180.92 151.24 181.69 C 150.85 182.46 151.17 183.40 151.94 183.78 L 152.87 184.25 C 153.65 184.63 154.58 184.32 154.97 183.54 C 155.35 182.77 155.04 181.84 154.27 181.45 Z M 153.25 180.95 L 152.32 180.55 C 151.53 180.21 150.61 180.58 150.27 181.37 C 149.93 182.16 150.30 183.08 151.09 183.42 L 152.02 183.82 C 152.81 184.16 153.73 183.79 154.07 183.00 C 154.41 182.20 154.04 181.29 153.25 180.95 Z M 152.23 180.52 L 151.32 180.19 C 150.51 179.90 149.62 180.33 149.33 181.14 C 149.04 181.95 149.46 182.85 150.28 183.13 L 151.18 183.46 C 152.00 183.75 152.89 183.32 153.18 182.51 C 153.47 181.70 153.04 180.80 152.23 180.52 Z M 151.22 180.16 L 150.31 179.91 C 149.48 179.68 148.62 180.16 148.39 180.99 C 148.16 181.82 148.64 182.69 149.48 182.92 L 150.38 183.17 C 151.21 183.40 152.07 182.91 152.30 182.08 C 152.53 181.25 152.05 180.39 151.22 180.16 Z M 150.18 179.88 L 149.15 179.68 C 148.30 179.52 147.48 180.08 147.32 180.93 C 147.16 181.78 147.72 182.59 148.57 182.75 L 149.60 182.95 C 150.45 183.11 151.27 182.55 151.43 181.70 C 151.59 180.85 151.03 180.04 150.18 179.88 Z M 149.02 179.66 L 148.03 179.56 C 147.17 179.47 146.41 180.09 146.31 180.95 C 146.22 181.80 146.84 182.57 147.70 182.66 L 148.69 182.77 C 149.55 182.86 150.32 182.24 150.41 181.38 C 150.50 180.52 149.88 179.76 149.02 179.66 Z M 147.94 179.55 L 146.98 179.50 C 146.12 179.46 145.39 180.13 145.34 180.99 C 145.30 181.85 145.97 182.58 146.83 182.62 L 147.79 182.67 C 148.65 182.71 149.38 182.05 149.43 181.19 C 149.47 180.33 148.80 179.59 147.94 179.55 Z M 146.94 179.50 L 145.97 179.48 C 145.10 179.47 144.39 180.15 144.37 181.01 C 144.36 181.88 145.04 182.59 145.90 182.61 L 146.87 182.62 C 147.73 182.64 148.45 181.96 148.46 181.10 C 148.48 180.23 147.80 179.52 146.94 179.50 Z M 145.93 179.48 L 144.93 179.49 C 144.07 179.49 143.37 180.20 143.38 181.06 C 143.38 181.92 144.09 182.62 144.95 182.61 L 145.94 182.61 C 146.81 182.60 147.50 181.90 147.50 181.04 C 147.49 180.17 146.79 179.48 145.93 179.48 Z M 144.85 179.49 L 143.85 179.55 C 142.99 179.60 142.34 180.34 142.39 181.20 C 142.44 182.06 143.18 182.72 144.04 182.67 L 145.03 182.61 C 145.89 182.56 146.55 181.82 146.50 180.96 C 146.45 180.10 145.71 179.44 144.85 179.49 Z M 143.72 179.56 L 142.73 179.71 C 141.87 179.83 141.28 180.63 141.41 181.48 C 141.53 182.33 142.32 182.92 143.18 182.80 L 144.17 182.65 C 145.03 182.53 145.62 181.74 145.49 180.89 C 145.37 180.03 144.58 179.44 143.72 179.56 Z M 142.57 179.74 L 141.61 179.98 C 140.77 180.20 140.26 181.04 140.47 181.88 C 140.69 182.72 141.53 183.22 142.37 183.01 L 143.33 182.77 C 144.17 182.56 144.68 181.71 144.46 180.87 C 144.25 180.04 143.40 179.53 142.57 179.74 Z M 141.46 180.03 L 140.51 180.37 C 139.70 180.66 139.28 181.56 139.57 182.37 C 139.86 183.18 140.76 183.60 141.57 183.31 L 142.52 182.97 C 143.33 182.67 143.75 181.78 143.46 180.97 C 143.16 180.16 142.27 179.74 141.46 180.03 Z M 140.38 180.43 L 139.47 180.86 C 138.69 181.22 138.35 182.15 138.72 182.93 C 139.09 183.71 140.02 184.05 140.80 183.68 L 141.71 183.25 C 142.49 182.88 142.82 181.95 142.45 181.17 C 142.09 180.39 141.16 180.06 140.38 180.43 Z M 139.33 180.93 L 138.47 181.44 C 137.73 181.88 137.49 182.84 137.93 183.58 C 138.37 184.32 139.33 184.56 140.07 184.12 L 140.93 183.61 C 141.67 183.17 141.91 182.21 141.47 181.47 C 141.03 180.73 140.07 180.49 139.33 180.93 Z M 138.33 181.53 L 137.52 182.14 C 136.83 182.66 136.69 183.64 137.21 184.33 C 137.73 185.02 138.71 185.16 139.40 184.64 L 140.21 184.03 C 140.90 183.51 141.04 182.53 140.52 181.84 C 140.00 181.15 139.02 181.02 138.33 181.53 Z M 137.39 182.25 L 136.66 182.94 C 136.04 183.53 136.01 184.52 136.60 185.14 C 137.19 185.77 138.18 185.80 138.81 185.21 L 139.53 184.53 C 140.16 183.94 140.19 182.95 139.59 182.32 C 139.00 181.69 138.02 181.66 137.39 182.25 Z M 136.54 183.06 L 135.91 183.82 C 135.35 184.47 135.43 185.46 136.09 186.02 C 136.75 186.57 137.73 186.49 138.29 185.83 L 138.93 185.08 C 139.48 184.42 139.40 183.44 138.74 182.88 C 138.08 182.32 137.10 182.41 136.54 183.06 Z M 135.80 183.95 L 135.25 184.77 C 134.77 185.49 134.96 186.46 135.67 186.94 C 136.39 187.42 137.36 187.23 137.84 186.52 L 138.39 185.70 C 138.87 184.98 138.69 184.01 137.97 183.53 C 137.26 183.05 136.28 183.24 135.80 183.95 Z M 135.18 184.89 L 134.70 185.76 C 134.28 186.51 134.55 187.46 135.31 187.88 C 136.06 188.30 137.01 188.03 137.43 187.27 L 137.91 186.40 C 138.33 185.65 138.06 184.70 137.30 184.28 C 136.55 183.86 135.60 184.13 135.18 184.89 Z M 134.66 185.83 L 134.22 186.73 C 133.84 187.51 134.17 188.44 134.94 188.82 C 135.72 189.20 136.65 188.88 137.03 188.10 L 137.47 187.20 C 137.84 186.42 137.52 185.49 136.75 185.11 C 135.97 184.73 135.04 185.06 134.66 185.83 Z M 134.21 186.76 L 133.91 187.41 C 133.55 188.19 133.89 189.12 134.67 189.48 C 135.46 189.84 136.38 189.50 136.74 188.71 L 137.04 188.07 C 137.40 187.29 137.06 186.36 136.28 186.00 C 135.49 185.64 134.57 185.98 134.21 186.76 Z"
      fill="black"
      fill-rule="nonzero" /></svg>