<svg xmlns="http://www.w3.org/2000/svg" width="300" height="300" viewBox="0 0 300 300">
<path d="M 97.55 125.04 L 96.50 124.40 C 95.77 123.95 94.81 124.19 94.36 124.92 C 93.91 125.66 94.14 126.62 94.88 127.07 L 95.92 127.71 C 96.66 128.15 97.62 127.92 98.07 127.19 C 98.52 126.45 98.28 125.49 97.55 125.04 Z M 96.43 124.36 L 95.46 123.84 C 94.70 123.43 93.75 123.72 93.35 124.48 C 92.94 125.23 93.22 126.18 93.98 126.59 L 94.95 127.11 C 95.71 127.52 96.66 127.23 97.07 126.47 C 97.47 125.71 97.19 124.77 96.43 124.36 Z M 95.24 123.74 L 94.42 123.45 C 93.61 123.16 92.71 123.59 92.43 124.40 C 92.14 125.22 92.57 126.11 93.38 126.40 L 94.20 126.69 C 95.01 126.97 95.91 126.55 96.19 125.73 C 96.48 124.92 96.05 124.03 95.24 123.74 Z M 93.68 123.38 L 93.03 123.47 C 92.17 123.59 91.58 124.38 91.69 125.23 C 91.81 126.08 92.60 126.68 93.45 126.56 L 94.11 126.47 C 94.97 126.35 95.56 125.56 95.45 124.71 C 95.33 123.86 94.54 123.26 93.68 123.38 Z M 91.89 124.23 L 91.48 124.94 C 91.05 125.69 91.30 126.64 92.05 127.07 C 92.80 127.51 93.75 127.25 94.18 126.50 L 94.59 125.80 C 95.02 125.05 94.77 124.10 94.02 123.66 C 93.27 123.23 92.32 123.49 91.89 124.23 Z M 91.28 125.52 L 91.14 126.64 C 91.03 127.50 91.63 128.28 92.49 128.39 C 93.34 128.50 94.12 127.90 94.23 127.04 L 94.38 125.92 C 94.49 125.07 93.89 124.28 93.03 124.17 C 92.18 124.06 91.39 124.67 91.28 125.52 Z M 91.13 126.78 L 91.09 127.80 C 91.06 128.66 91.73 129.39 92.59 129.42 C 93.45 129.45 94.18 128.78 94.21 127.92 L 94.25 126.90 C 94.28 126.04 93.61 125.31 92.75 125.28 C 91.88 125.25 91.16 125.92 91.13 126.78 Z M 91.09 127.83 L 91.07 128.79 C 91.06 129.65 91.74 130.36 92.60 130.38 C 93.47 130.39 94.18 129.70 94.19 128.84 L 94.21 127.89 C 94.22 127.03 93.54 126.32 92.68 126.30 C 91.81 126.29 91.10 126.97 91.09 127.83 Z M 91.07 128.80 L 91.06 129.82 C 91.06 130.68 91.75 131.38 92.62 131.39 C 93.48 131.39 94.18 130.70 94.19 129.83 L 94.19 128.82 C 94.20 127.96 93.50 127.26 92.64 127.25 C 91.78 127.25 91.08 127.94 91.07 128.80 Z M 91.06 129.82 L 91.06 130.91 C 91.06 131.77 91.76 132.47 92.62 132.47 C 93.48 132.47 94.18 131.78 94.19 130.91 L 94.19 129.83 C 94.19 128.96 93.49 128.26 92.63 128.26 C 91.76 128.26 91.06 128.96 91.06 129.82 Z M 91.06 130.91 L 91.06 131.82 C 91.06 132.69 91.76 133.38 92.62 133.38 C 93.49 133.38 94.19 132.69 94.19 131.82 L 94.19 130.91 C 94.19 130.05 93.49 129.35 92.62 129.35 C 91.76 129.35 91.06 130.05 91.06 130.91 Z M 91.06 131.82 L 91.06 132.77 C 91.06 133.64 91.76 134.34 92.62 134.34 C 93.49 134.34 94.19 133.64 94.19 132.77 L 94.19 131.82 C 94.19 130.96 93.49 130.26 92.62 130.26 C 91.76 130.26 91.06 130.96 91.06 131.82 Z M 91.06 132.77 L 91.06 133.78 C 91.06 134.64 91.76 135.34 92.62 135.34 C 93.49 135.34 94.19 134.64 94.19 133.78 L 94.19 132.77 C 94.19 131.91 93.49 131.21 92.62 131.21 C 91.76 131.21 91.06 131.91 91.06 132.77 Z M 91.06 133.78 L 91.06 134.83 C 91.06 135.69 91.76 136.39 92.62 136.39 C 93.49 136.39 94.19 135.69 94.19 134.83 L 94.19 133.78 C 94.19 132.92 93.49 132.22 92.62 132.22 C 91.76 132.22 91.06 132.92 91.06 133.78 Z M 91.06 134.83 L 91.06 135.91 C 91.06 136.77 91.76 137.47 92.62 137.47 C 93.49 137.47 94.19 136.77 94.19 135.91 L 94.19 134.83 C 94.19 133.97 93.49 133.27 92.62 133.27 C 91.76 133.27 91.06 133.97 91.06 134.83 Z M 91.06 135.91 L 91.06 136.84 C 91.06 137.71 91.76 138.40 92.62 138.40 C 93.49 138.40 94.19 137.71 94.19 136.84 L 94.19 135.91 C 94.19 135.05 93.49 134.35 92.62 134.35 C 91.76 134.35 91.06 135.05 91.06 135.91 Z M 91.06 136.84 L 91.06 137.80 C 91.06 138.67 91.76 139.37 92.62 139.37 C 93.49 139.37 94.19 138.67 94.19 137.80 L 94.19 136.84 C 94.19 135.98 93.49 135.28 92.62 135.28 C 91.76 135.28 91.06 135.98 91.06 136.84 Z M 91.06 137.80 L 91.06 138.79 C 91.06 139.66 91.76 140.36 92.62 140.36 C 93.49 140.36 94.19 139.66 94.19 138.79 L 94.19 137.80 C 94.19 136.94 93.49 136.24 92.62 136.24 C 91.76 136.24 91.06 136.94 91.06 137.80 Z M 91.06 138.79 L 91.06 139.81 C 91.06 140.67 91.76 141.37 92.62 141.37 C 93.49 141.37 94.19 140.67 94.19 139.81 L 94.19 138.79 C 94.19 137.93 93.49 137.23 92.62 137.23 C 91.76 137.23 91.06 137.93 91.06 138.79 Z M 91.06 139.81 L 91.06 140.86 C 91.06 141.72 91.76 142.42 92.62 142.42 C 93.49 142.42 94.19 141.72 94.19 140.86 L 94.19 139.81 C 94.19 138.95 93.49 138.25 92.62 138.25 C 91.76 138.25 91.06 138.95 91.06 139.81 Z M 91.06 140.86 L 91.06 141.91 C 91.06 142.77 91.76 143.47 92.62 143.47 C 93.49 143.47 94.19 142.77 94.19 141.91 L 94.19 140.86 C 94.19 140.00 93.49 139.30 92.62 139.30 C 91.76 139.30 91.06 140.00 91.06 140.86 Z M 91.06 141.91 L 91.06 142.84 C 91.06 143.71 91.76 144.41 92.62 144.41 C 93.49 144.41 94.19 143.71 94.19 142.84 L 94.19 141.91 C 94.19 141.05 93.49 140.35 92.62 140.35 C 91.76 140.35 91.06 141.05 91.06 141.91 Z M 91.06 142.84 L 91.06 143.80 C 91.06 144.66 91.76 145.36 92.62 145.36 C 93.49 145.36 94.19 144.66 94.19 143.80 L 94.19 142.84 C 94.19 141.98 93.49 141.28 92.62 141.28 C 91.76 141.28 91.06 141.98 91.06 142.84 Z M 91.06 143.80 L 91.06 144.78 C 91.06 145.64 91.76 146.34 92.62 146.34 C 93.49 146.34 94.19 145.64 94.19 144.78 L 94.19 143.80 C 94.19 142.94 93.49 142.24 92.62 142.24 C 91.76 142.24 91.06 142.94 91.06 143.80 Z M 91.06 144.78 L 91.06 145.78 C 91.06 146.64 91.76 147.34 92.62 147.34 C 93.49 147.34 94.19 146.64 94.19 145.78 L 94.19 144.78 C 94.19 143.92 93.49 143.22 92.62 143.22 C 91.76 143.22 91.06 143.92 91.06 144.78 Z M 91.06 145.78 L 91.06 146.81 C 91.06 147.67 91.76 148.37 92.62 148.37 C 93.49 148.37 94.19 147.67 94.19 146.81 L 94.19 145.78 C 94.19 144.92 93.49 144.22 92.62 144.22 C 91.76 144.22 91.06 144.92 91.06 145.78 Z M 91.06 146.81 L 91.06 147.86 C 91.06 148.72 91.76 149.42 92.62 149.42 C 93.49 149.42 94.19 148.72 94.19 147.86 L 94.19 146.81 C 94.19 145.94 93.49 145.25 92.62 145.25 C 91.76 145.25 91.06 145.94 91.06 146.81 Z M 91.06 147.86 L 91.06 148.90 C 91.06 149.77 91.76 150.47 92.62 150.47 C 93.49 150.47 94.19 149.77 94.19 148.90 L 94.19 147.86 C 94.19 146.99 93.49 146.30 92.62 146.30 C 91.76 146.30 91.06 146.99 91.06 147.86 Z M 91.06 148.90 L 91.06 149.83 C 91.06 150.69 91.76 151.39 92.62 151.39 C 93.49 151.39 94.19 150.69 94.19 149.83 L 94.19 148.90 C 94.18 148.04 93.49 147.34 92.62 147.34 C 91.76 147.34 91.06 148.04 91.06 148.90 Z M 91.06 149.83 L 91.06 150.77 C 91.06 151.64 91.76 152.34 92.62 152.34 C 93.49 152.34 94.19 151.64 94.19 150.77 L 94.19 149.83 C 94.18 148.97 93.49 148.27 92.62 148.27 C 91.76 148.27 91.06 148.97 91.06 149.83 Z M 91.06 150.78 L 91.06 151.74 C 91.06 152.60 91.76 153.30 92.63 153.30 C 93.49 153.30 94.19 152.60 94.19 151.74 L 94.19 150.77 C 94.18 149.91 93.49 149.21 92.62 149.21 C 91.76 149.21 91.06 149.91 91.06 150.78 Z M 91.06 151.74 L 91.07 152.73 C 91.07 153.59 91.77 154.29 92.63 154.29 C 93.49 154.29 94.19 153.59 94.19 152.73 L 94.19 151.74 C 94.18 150.88 93.48 150.18 92.62 150.18 C 91.76 150.18 91.06 150.88 91.06 151.74 Z M 91.07 152.73 L 91.07 153.74 C 91.07 154.60 91.77 155.30 92.63 155.30 C 93.50 155.30 94.19 154.60 94.19 153.73 L 94.19 152.72 C 94.19 151.86 93.48 151.16 92.62 151.17 C 91.76 151.17 91.06 151.87 91.07 152.73 Z M 91.07 153.74 L 91.07 154.78 C 91.07 155.64 91.78 156.33 92.64 156.33 C 93.50 156.33 94.20 155.63 94.19 154.76 L 94.19 153.73 C 94.19 152.87 93.49 152.17 92.62 152.18 C 91.76 152.18 91.06 152.88 91.07 153.74 Z M 91.07 154.78 L 91.08 155.83 C 91.08 156.70 91.78 157.39 92.65 157.39 C 93.51 157.38 94.20 156.68 94.20 155.82 L 94.19 154.76 C 94.19 153.90 93.49 153.21 92.63 153.21 C 91.76 153.21 91.07 153.92 91.07 154.78 Z M 91.08 155.84 L 91.08 156.92 C 91.09 157.78 91.79 158.47 92.65 158.47 C 93.52 158.46 94.21 157.76 94.21 156.90 L 94.20 155.82 C 94.19 154.95 93.49 154.26 92.63 154.27 C 91.77 154.27 91.07 154.97 91.08 155.84 Z M 91.08 156.92 L 91.09 157.90 C 91.10 158.76 91.80 159.46 92.66 159.45 C 93.53 159.44 94.22 158.74 94.21 157.88 L 94.21 156.90 C 94.20 156.03 93.50 155.34 92.63 155.35 C 91.77 155.35 91.08 156.06 91.08 156.92 Z M 91.09 157.90 L 91.10 158.88 C 91.11 159.75 91.81 160.44 92.68 160.43 C 93.54 160.42 94.23 159.72 94.22 158.86 L 94.21 157.87 C 94.21 157.01 93.50 156.32 92.64 156.33 C 91.78 156.34 91.08 157.04 91.09 157.90 Z M 91.10 158.89 L 91.11 159.88 C 91.12 160.74 91.83 161.43 92.69 161.43 C 93.55 161.42 94.24 160.71 94.23 159.85 L 94.22 158.85 C 94.21 157.99 93.51 157.30 92.65 157.31 C 91.78 157.32 91.09 158.02 91.10 158.89 Z M 91.11 159.88 L 91.12 160.89 C 91.13 161.75 91.84 162.44 92.70 162.43 C 93.56 162.42 94.25 161.71 94.24 160.85 L 94.23 159.85 C 94.22 158.98 93.52 158.29 92.65 158.30 C 91.79 158.31 91.10 159.02 91.11 159.88 Z M 91.12 160.89 L 91.13 161.90 C 91.14 162.76 91.85 163.45 92.71 163.44 C 93.58 163.43 94.27 162.72 94.26 161.86 L 94.24 160.85 C 94.23 159.99 93.53 159.30 92.66 159.31 C 91.80 159.32 91.11 160.02 91.12 160.89 Z M 91.13 161.90 L 91.15 162.91 C 91.16 163.77 91.86 164.46 92.73 164.45 C 93.59 164.44 94.28 163.73 94.27 162.87 L 94.26 161.86 C 94.24 161.00 93.54 160.31 92.68 160.32 C 91.81 160.33 91.12 161.04 91.13 161.90 Z M 91.15 162.91 L 91.16 163.93 C 91.17 164.79 91.88 165.48 92.74 165.47 C 93.60 165.46 94.29 164.75 94.28 163.89 L 94.27 162.87 C 94.26 162.01 93.55 161.32 92.69 161.33 C 91.82 161.34 91.13 162.05 91.15 162.91 Z M 91.16 163.93 L 91.17 164.94 C 91.18 165.80 91.89 166.49 92.76 166.48 C 93.62 166.47 94.31 165.76 94.30 164.90 L 94.28 163.88 C 94.27 163.02 93.56 162.33 92.70 162.34 C 91.84 162.36 91.15 163.06 91.16 163.93 Z M 91.17 164.94 L 91.19 165.94 C 91.20 166.80 91.91 167.49 92.77 167.48 C 93.63 167.47 94.32 166.76 94.31 165.90 L 94.30 164.89 C 94.28 164.03 93.57 163.34 92.71 163.36 C 91.85 163.37 91.16 164.08 91.17 164.94 Z M 91.19 165.94 L 91.20 166.96 C 91.21 167.82 91.92 168.51 92.78 168.50 C 93.65 168.48 94.34 167.78 94.32 166.91 L 94.31 165.90 C 94.30 165.04 93.59 164.35 92.73 164.36 C 91.86 164.37 91.17 165.08 91.19 165.94 Z M 91.20 166.96 L 91.22 167.99 C 91.23 168.85 91.94 169.54 92.80 169.53 C 93.66 169.52 94.35 168.81 94.34 167.95 L 94.32 166.91 C 94.31 166.05 93.60 165.36 92.74 165.37 C 91.88 165.39 91.19 166.10 91.20 166.96 Z M 91.22 167.99 L 91.23 169.02 C 91.24 169.88 91.95 170.57 92.81 170.56 C 93.68 170.54 94.36 169.83 94.35 168.97 L 94.34 167.95 C 94.33 167.09 93.62 166.40 92.75 166.41 C 91.89 166.42 91.20 167.13 91.22 167.99 Z M 91.23 169.02 L 91.24 170.03 C 91.26 170.89 91.96 171.58 92.83 171.57 C 93.69 171.56 94.38 170.85 94.37 169.99 L 94.35 168.97 C 94.34 168.11 93.63 167.42 92.77 167.43 C 91.91 167.44 91.22 168.15 91.23 169.02 Z M 91.24 170.03 L 91.26 171.03 C 91.27 171.89 91.98 172.58 92.84 172.57 C 93.70 172.56 94.39 171.85 94.38 170.99 L 94.37 169.99 C 94.35 169.12 93.65 168.43 92.78 168.45 C 91.92 168.46 91.23 169.17 91.24 170.03 Z M 91.26 171.03 L 91.27 172.02 C 91.28 172.88 91.99 173.57 92.85 173.56 C 93.71 173.55 94.40 172.84 94.39 171.98 L 94.38 170.99 C 94.37 170.13 93.66 169.44 92.80 169.45 C 91.94 169.46 91.25 170.17 91.26 171.03 Z M 91.27 172.02 L 91.28 173.01 C 91.29 173.87 92.00 174.56 92.86 174.55 C 93.72 174.54 94.41 173.83 94.40 172.97 L 94.39 171.98 C 94.38 171.12 93.67 170.43 92.81 170.44 C 91.95 170.45 91.26 171.16 91.27 172.02 Z M 91.28 173.00 L 91.29 173.98 C 91.30 174.84 92.01 175.54 92.87 175.53 C 93.73 175.52 94.42 174.81 94.41 173.95 L 94.40 172.97 C 94.39 172.11 93.69 171.42 92.83 171.43 C 91.96 171.44 91.27 172.14 91.28 173.00 Z M 91.29 173.98 L 91.30 174.95 C 91.31 175.81 92.01 176.51 92.88 176.50 C 93.74 176.49 94.43 175.78 94.42 174.92 L 94.41 173.95 C 94.41 173.09 93.70 172.40 92.84 172.40 C 91.98 172.41 91.28 173.12 91.29 173.98 Z M 91.30 174.95 L 91.31 175.94 C 91.32 176.80 92.02 177.49 92.88 177.49 C 93.74 177.48 94.44 176.78 94.43 175.91 L 94.42 174.93 C 94.42 174.06 93.71 173.37 92.85 173.38 C 91.99 173.38 91.29 174.09 91.30 174.95 Z M 91.31 175.94 L 91.32 176.96 C 91.32 177.82 92.02 178.51 92.89 178.51 C 93.75 178.50 94.44 177.80 94.44 176.94 L 94.43 175.92 C 94.43 175.06 93.72 174.36 92.86 174.37 C 92.00 174.37 91.30 175.07 91.31 175.94 Z M 91.32 176.96 L 91.32 177.97 C 91.32 178.83 92.03 179.53 92.89 179.52 C 93.75 179.52 94.45 178.82 94.44 177.96 L 94.44 176.94 C 94.43 176.08 93.73 175.38 92.87 175.39 C 92.01 175.39 91.31 176.09 91.32 176.96 Z M 91.32 177.97 L 91.32 178.98 C 91.33 179.84 92.03 180.54 92.89 180.53 C 93.75 180.53 94.45 179.83 94.45 178.97 L 94.44 177.96 C 94.44 177.10 93.74 176.40 92.88 176.40 C 92.01 176.41 91.32 177.11 91.32 177.97 Z M 91.32 178.98 L 91.33 179.98 C 91.33 180.84 92.03 181.54 92.89 181.54 C 93.75 181.53 94.45 180.83 94.45 179.97 L 94.45 178.97 C 94.44 178.11 93.74 177.41 92.88 177.41 C 92.02 177.41 91.32 178.11 91.32 178.98 Z M 91.33 179.98 L 91.33 180.97 C 91.33 181.84 92.03 182.53 92.89 182.53 C 93.75 182.53 94.45 181.83 94.45 180.97 L 94.45 179.97 C 94.45 179.11 93.75 178.41 92.88 178.41 C 92.02 178.42 91.32 179.12 91.33 179.98 Z M 91.33 180.97 L 91.33 181.96 C 91.33 182.82 92.03 183.52 92.89 183.52 C 93.75 183.52 94.45 182.82 94.45 181.96 L 94.45 180.97 C 94.45 180.11 93.75 179.41 92.89 179.41 C 92.02 179.41 91.33 180.11 91.33 180.97 Z M 91.33 181.96 L 91.33 182.94 C 91.33 183.81 92.03 184.51 92.89 184.51 C 93.75 184.50 94.45 183.81 94.45 182.94 L 94.45 181.96 C 94.45 181.10 93.75 180.40 92.89 180.40 C 92.03 180.40 91.33 181.10 91.33 181.96 Z M 91.33 182.94 L 91.33 183.92 C 91.33 184.78 92.03 185.48 92.89 185.48 C 93.75 185.48 94.45 184.78 94.45 183.92 L 94.45 182.94 C 94.45 182.08 93.75 181.38 92.89 181.38 C 92.03 181.38 91.33 182.08 91.33 182.94 Z M 91.33 183.92 L 91.33 184.95 C 91.33 185.82 92.03 186.51 92.89 186.51 C 93.75 186.51 94.45 185.82 94.45 184.95 L 94.45 183.92 C 94.45 183.06 93.75 182.36 92.89 182.36 C 92.03 182.36 91.33 183.06 91.33 183.92 Z M 91.32 184.95 L 91.32 185.98 C 91.32 186.85 92.03 187.55 92.89 187.55 C 93.75 187.55 94.45 186.85 94.45 185.98 L 94.45 184.95 C 94.45 184.09 93.75 183.39 92.89 183.39 C 92.03 183.39 91.32 184.09 91.32 184.95 Z M 91.32 185.98 L 91.32 187.00 C 91.32 187.87 92.02 188.57 92.89 188.57 C 93.75 188.57 94.46 187.87 94.46 187.00 L 94.46 185.98 C 94.46 185.12 93.75 184.42 92.89 184.42 C 92.02 184.42 91.32 185.12 91.32 185.98 Z M 91.32 187.00 L 91.32 188.01 C 91.32 188.87 92.02 189.58 92.89 189.58 C 93.76 189.58 94.46 188.87 94.46 188.01 L 94.46 187.00 C 94.46 186.13 93.76 185.43 92.89 185.43 C 92.02 185.43 91.32 186.13 91.32 187.00 Z M 91.32 188.01 L 91.32 189.00 C 91.32 189.87 92.02 190.58 92.89 190.58 C 93.76 190.58 94.46 189.87 94.46 189.00 L 94.46 188.01 C 94.46 187.14 93.76 186.44 92.89 186.44 C 92.02 186.44 91.32 187.14 91.32 188.01 Z M 91.32 189.00 L 91.32 189.99 C 91.32 190.86 92.02 191.56 92.89 191.56 C 93.76 191.56 94.46 190.86 94.46 189.99 L 94.46 189.00 C 94.46 188.14 93.76 187.43 92.89 187.43 C 92.02 187.43 91.32 188.14 91.32 189.00 Z M 91.31 189.99 L 91.31 190.96 C 91.31 191.83 92.02 192.53 92.89 192.53 C 93.76 192.53 94.46 191.83 94.46 190.96 L 94.46 189.99 C 94.46 189.12 93.76 188.41 92.89 188.41 C 92.02 188.41 91.31 189.12 91.31 189.99 Z M 91.31 190.96 L 91.31 191.92 C 91.31 192.79 92.02 193.50 92.89 193.50 C 93.76 193.50 94.47 192.79 94.47 191.92 L 94.47 190.96 C 94.47 190.09 93.76 189.38 92.89 189.38 C 92.02 189.38 91.31 190.09 91.31 190.96 Z M 91.31 191.92 L 91.31 192.97 C 91.31 193.84 92.02 194.55 92.89 194.55 C 93.76 194.55 94.47 193.84 94.47 192.97 L 94.47 191.92 C 94.47 191.05 93.76 190.34 92.89 190.34 C 92.02 190.34 91.31 191.05 91.31 191.92 Z M 91.31 192.97 L 91.31 194.01 C 91.31 194.88 92.02 195.59 92.89 195.59 C 93.76 195.59 94.47 194.88 94.47 194.01 L 94.47 192.97 C 94.47 192.10 93.76 191.39 92.89 191.39 C 92.02 191.39 91.31 192.10 91.31 192.97 Z M 91.31 194.01 L 91.31 195.02 C 91.31 195.90 92.02 196.60 92.89 196.60 C 93.76 196.60 94.47 195.90 94.47 195.02 L 94.47 194.01 C 94.47 193.13 93.76 192.43 92.89 192.43 C 92.02 192.43 91.31 193.13 91.31 194.01 Z M 91.31 195.02 L 91.31 196.02 C 91.31 196.90 92.02 197.61 92.89 197.61 C 93.76 197.61 94.47 196.90 94.47 196.02 L 94.47 195.02 C 94.47 194.15 93.76 193.44 92.89 193.44 C 92.02 193.44 91.31 194.15 91.31 195.02 Z M 91.31 196.02 L 91.31 197.00 C 91.31 197.88 92.01 198.59 92.89 198.59 C 93.76 198.59 94.47 197.88 94.47 197.00 L 94.47 196.02 C 94.47 195.15 93.76 194.44 92.89 194.44 C 92.01 194.44 91.31 195.15 91.31 196.02 Z M 91.30 197.00 L 91.30 197.97 C 91.30 198.85 92.01 199.56 92.89 199.56 C 93.76 199.56 94.47 198.85 94.47 197.97 L 94.47 197.00 C 94.47 196.13 93.76 195.42 92.89 195.42 C 92.01 195.42 91.30 196.13 91.30 197.00 Z M 91.30 197.97 L 91.30 198.92 C 91.30 199.79 92.01 200.51 92.89 200.51 C 93.77 200.51 94.48 199.79 94.48 198.92 L 94.48 197.97 C 94.48 197.09 93.77 196.38 92.89 196.38 C 92.01 196.38 91.30 197.09 91.30 197.97 Z M 91.30 198.92 L 91.30 199.95 C 91.30 200.83 92.01 201.54 92.89 201.54 C 93.77 201.54 94.48 200.83 94.48 199.95 L 94.48 198.92 C 94.48 198.04 93.77 197.33 92.89 197.33 C 92.01 197.33 91.30 198.04 91.30 198.92 Z M 91.30 199.95 L 91.30 200.97 C 91.30 201.85 92.01 202.56 92.89 202.56 C 93.77 202.56 94.48 201.85 94.48 200.97 L 94.48 199.95 C 94.48 199.07 93.77 198.36 92.89 198.36 C 92.01 198.36 91.30 199.07 91.30 199.95 Z M 91.29 200.97 L 91.29 201.97 C 91.29 202.85 92.01 203.56 92.89 203.56 C 93.77 203.56 94.49 202.85 94.49 201.97 L 94.49 200.97 C 94.49 200.08 93.77 199.37 92.89 199.37 C 92.01 199.37 91.29 200.08 91.29 200.97 Z M 91.29 201.97 L 91.29 202.96 C 91.29 203.84 92.01 204.56 92.89 204.56 C 93.77 204.56 94.49 203.84 94.49 202.96 L 94.49 201.97 C 94.49 201.08 93.77 200.37 92.89 200.37 C 92.01 200.37 91.29 201.08 91.29 201.97 Z M 91.28 202.96 L 91.28 203.94 C 91.28 204.83 92.00 205.55 92.89 205.55 C 93.78 205.55 94.49 204.83 94.49 203.94 L 94.49 202.96 C 94.49 202.07 93.78 201.36 92.89 201.36 C 92.00 201.36 91.28 202.07 91.28 202.96 Z M 91.28 203.94 L 91.28 204.93 C 91.28 205.81 92.00 206.53 92.89 206.53 C 93.78 206.53 94.50 205.81 94.50 204.93 L 94.50 203.94 C 94.50 203.06 93.78 202.34 92.89 202.34 C 92.00 202.34 91.28 203.06 91.28 203.94 Z M 91.28 204.93 L 91.28 205.96 C 91.28 206.85 92.00 207.57 92.89 207.57 C 93.78 207.57 94.50 206.85 94.50 205.96 L 94.50 204.93 C 94.50 204.04 93.78 203.31 92.89 203.31 C 92.00 203.31 91.28 204.04 91.28 204.93 Z M 91.28 205.96 L 91.28 207.01 C 91.28 207.90 92.00 208.63 92.89 208.63 C 93.78 208.63 94.50 207.90 94.50 207.01 L 94.50 205.96 C 94.50 205.06 93.78 204.34 92.89 204.34 C 92.00 204.34 91.28 205.06 91.28 205.96 Z M 91.27 207.01 L 91.27 208.05 C 91.27 208.94 92.00 209.67 92.89 209.67 C 93.78 209.67 94.50 208.94 94.50 208.05 L 94.50 207.01 C 94.50 206.12 93.78 205.40 92.89 205.40 C 92.00 205.40 91.27 206.12 91.27 207.01 Z M 91.27 208.05 L 91.27 209.06 C 91.27 209.95 92.00 210.68 92.89 210.68 C 93.78 210.68 94.51 209.95 94.51 209.06 L 94.51 208.05 C 94.51 207.16 93.78 206.43 92.89 206.43 C 92.00 206.43 91.27 207.16 91.27 208.05 Z M 91.27 209.06 L 91.27 210.03 C 91.27 210.92 92.00 211.65 92.89 211.65 C 93.78 211.65 94.51 210.92 94.51 210.03 L 94.51 209.06 C 94.51 208.17 93.78 207.44 92.89 207.44 C 92.00 207.44 91.27 208.17 91.27 209.06 Z M 91.27 210.03 L 91.27 210.95 C 91.27 211.84 91.99 212.57 92.89 212.57 C 93.78 212.57 94.51 211.84 94.51 210.95 L 94.51 210.03 C 94.51 209.14 93.78 208.41 92.89 208.41 C 91.99 208.41 91.27 209.14 91.27 210.03 Z M 91.27 210.95 L 91.27 211.98 C 91.27 212.88 91.99 213.60 92.89 213.60 C 93.79 213.60 94.51 212.88 94.51 211.98 L 94.51 210.95 C 94.51 210.05 93.79 209.32 92.89 209.32 C 91.99 209.32 91.27 210.05 91.27 210.95 Z M 91.26 211.98 L 91.26 213.00 C 91.26 213.89 91.99 214.62 92.89 214.62 C 93.79 214.62 94.52 213.89 94.52 213.00 L 94.52 211.98 C 94.52 211.08 93.79 210.35 92.89 210.35 C 91.99 210.35 91.26 211.08 91.26 211.98 Z M 91.26 213.00 L 91.26 213.97 C 91.26 214.87 91.99 215.60 92.89 215.60 C 93.79 215.60 94.52 214.87 94.52 213.97 L 94.52 213.00 C 94.52 212.09 93.79 211.36 92.89 211.36 C 91.99 211.36 91.26 212.09 91.26 213.00 Z M 91.25 213.97 L 91.25 214.93 C 91.25 215.83 91.98 216.57 92.89 216.57 C 93.79 216.57 94.53 215.83 94.53 214.93 L 94.53 213.97 C 94.53 213.06 93.79 212.33 92.89 212.33 C 91.98 212.33 91.25 213.06 91.25 213.97 Z M 91.25 214.93 L 91.25 215.94 C 91.25 216.85 91.98 217.58 92.89 217.58 C 93.80 217.58 94.53 216.85 94.53 215.94 L 94.53 214.93 C 94.53 214.02 93.80 213.29 92.89 213.29 C 91.98 213.29 91.25 214.02 91.25 214.93 Z M 91.25 215.96 L 91.26 217.10 C 91.27 218.01 92.01 218.74 92.92 218.73 C 93.83 218.72 94.56 217.97 94.55 217.06 L 94.53 215.92 C 94.52 215.02 93.78 214.29 92.87 214.30 C 91.96 214.31 91.24 215.05 91.25 215.96 Z M 91.26 217.19 L 91.33 218.27 C 91.39 219.18 92.17 219.87 93.08 219.81 C 93.98 219.75 94.67 218.97 94.61 218.06 L 94.54 216.98 C 94.48 216.07 93.70 215.39 92.80 215.44 C 91.89 215.50 91.21 216.28 91.26 217.19 Z M 91.36 218.47 L 91.53 219.40 C 91.69 220.29 92.55 220.88 93.44 220.71 C 94.33 220.55 94.92 219.69 94.76 218.80 L 94.59 217.87 C 94.42 216.98 93.56 216.39 92.67 216.56 C 91.78 216.72 91.19 217.58 91.36 218.47 Z M 91.67 219.83 L 92.02 220.51 C 92.42 221.32 93.40 221.66 94.22 221.25 C 95.03 220.85 95.36 219.86 94.95 219.05 L 94.61 218.37 C 94.21 217.55 93.22 217.22 92.41 217.63 C 91.60 218.03 91.27 219.02 91.67 219.83 Z M 92.76 221.25 L 93.51 221.63 C 94.33 222.03 95.31 221.70 95.71 220.89 C 96.12 220.07 95.78 219.09 94.97 218.69 L 94.21 218.31 C 93.40 217.91 92.42 218.24 92.01 219.05 C 91.61 219.87 91.94 220.85 92.76 221.25 Z M 94.35 221.80 L 95.35 221.73 C 96.25 221.67 96.94 220.89 96.88 219.98 C 96.82 219.08 96.03 218.39 95.13 218.45 L 94.13 218.52 C 93.23 218.58 92.55 219.36 92.61 220.27 C 92.67 221.17 93.45 221.86 94.35 221.80 Z M 95.61 221.69 L 96.44 221.50 C 97.32 221.29 97.87 220.41 97.67 219.53 C 97.47 218.65 96.59 218.10 95.70 218.30 L 94.87 218.49 C 93.99 218.70 93.44 219.58 93.64 220.46 C 93.84 221.34 94.72 221.89 95.61 221.69 Z"
      fill="black"
      fill-rule="nonzero" /><path d="M 103.68 96.22 L 102.70 95.92 C 101.87 95.67 101.00 96.14 100.75 96.97 C 100.50 97.79 100.97 98.66 101.79 98.91 L 102.78 99.21 C 103.61 99.46 104.48 98.99 104.73 98.17 C 104.98 97.34 104.51 96.47 103.68 96.22 Z M 102.78 95.95 L 101.84 95.61 C 101.03 95.31 100.13 95.72 99.83 96.53 C 99.54 97.34 99.95 98.24 100.76 98.53 L 101.70 98.88 C 102.51 99.18 103.41 98.77 103.71 97.96 C 104.01 97.15 103.59 96.25 102.78 95.95 Z M 102.02 95.69 L 101.17 95.24 C 100.40 94.84 99.46 95.14 99.06 95.90 C 98.66 96.67 98.96 97.61 99.72 98.01 L 100.58 98.45 C 101.34 98.85 102.28 98.56 102.68 97.79 C 103.08 97.03 102.79 96.08 102.02 95.69 Z M 101.44 95.42 L 100.47 94.62 C 99.81 94.07 98.82 94.16 98.27 94.82 C 97.72 95.48 97.81 96.47 98.47 97.02 L 99.45 97.82 C 100.11 98.38 101.09 98.28 101.64 97.62 C 102.20 96.96 102.10 95.97 101.44 95.42 Z M 100.52 94.66 L 99.89 94.09 C 99.25 93.51 98.27 93.55 97.69 94.19 C 97.11 94.83 97.15 95.81 97.79 96.39 L 98.42 96.97 C 99.06 97.55 100.05 97.51 100.63 96.87 C 101.21 96.23 101.16 95.24 100.52 94.66 Z M 97.39 94.66 L 97.26 94.99 C 96.94 95.79 97.32 96.70 98.12 97.02 C 98.92 97.34 99.83 96.95 100.15 96.15 L 100.29 95.83 C 100.61 95.03 100.22 94.12 99.42 93.79 C 98.62 93.47 97.71 93.86 97.39 94.66 Z M 97.17 95.85 L 97.36 96.89 C 97.51 97.73 98.32 98.30 99.17 98.15 C 100.02 97.99 100.58 97.18 100.43 96.33 L 100.24 95.29 C 100.09 94.45 99.28 93.88 98.43 94.03 C 97.58 94.19 97.02 95.00 97.17 95.85 Z M 97.37 96.97 L 97.60 97.94 C 97.80 98.78 98.64 99.30 99.48 99.10 C 100.32 98.91 100.84 98.07 100.64 97.23 L 100.41 96.25 C 100.22 95.41 99.38 94.89 98.54 95.09 C 97.70 95.29 97.18 96.13 97.37 96.97 Z"
      fill="black"
      fill-rule="nonzero" /><path d="M 140.45 133.39 L 139.88 134.15 C 139.36 134.83 139.50 135.81 140.19 136.33 C 140.88 136.85 141.86 136.71 142.38 136.02 L 142.94 135.27 C 143.46 134.58 143.32 133.60 142.63 133.08 C 141.94 132.57 140.96 132.70 140.45 133.39 Z M 139.80 134.27 L 139.29 135.09 C 138.84 135.83 139.07 136.79 139.81 137.24 C 140.54 137.69 141.50 137.46 141.95 136.73 L 142.46 135.90 C 142.91 135.16 142.68 134.20 141.94 133.75 C 141.21 133.30 140.25 133.53 139.80 134.27 Z M 139.17 135.33 L 138.78 136.31 C 138.47 137.11 138.86 138.02 139.66 138.34 C 140.46 138.65 141.37 138.26 141.69 137.46 L 142.07 136.49 C 142.39 135.69 142.00 134.78 141.20 134.46 C 140.40 134.14 139.49 134.53 139.17 135.33 Z M 138.70 136.58 L 138.51 137.52 C 138.34 138.36 138.89 139.19 139.73 139.36 C 140.58 139.53 141.40 138.98 141.57 138.14 L 141.76 137.19 C 141.94 136.35 141.39 135.53 140.54 135.36 C 139.70 135.18 138.87 135.73 138.70 136.58 Z M 138.49 137.70 L 138.41 138.68 C 138.33 139.54 138.97 140.29 139.83 140.36 C 140.69 140.44 141.45 139.80 141.52 138.94 L 141.60 137.96 C 141.67 137.10 141.03 136.34 140.17 136.27 C 139.32 136.20 138.56 136.84 138.49 137.70 Z M 138.40 138.79 L 138.39 139.82 C 138.38 140.68 139.07 141.39 139.93 141.40 C 140.79 141.41 141.50 140.72 141.51 139.86 L 141.52 138.83 C 141.53 137.97 140.84 137.26 139.98 137.25 C 139.12 137.24 138.41 137.93 138.40 138.79 Z M 138.39 139.89 L 138.42 140.93 C 138.45 141.79 139.17 142.47 140.03 142.44 C 140.90 142.41 141.57 141.69 141.54 140.83 L 141.51 139.79 C 141.48 138.93 140.76 138.25 139.90 138.28 C 139.04 138.31 138.36 139.03 138.39 139.89 Z M 138.42 140.98 L 138.49 142.00 C 138.54 142.86 139.28 143.51 140.14 143.46 C 141.00 143.41 141.65 142.67 141.60 141.81 L 141.54 140.79 C 141.49 139.93 140.75 139.27 139.89 139.32 C 139.03 139.37 138.37 140.11 138.42 140.98 Z M 138.49 142.03 L 138.57 143.02 C 138.64 143.88 139.39 144.52 140.25 144.45 C 141.11 144.38 141.75 143.63 141.68 142.77 L 141.60 141.78 C 141.53 140.92 140.78 140.28 139.92 140.35 C 139.06 140.42 138.42 141.17 138.49 142.03 Z M 138.57 143.05 L 138.67 144.02 C 138.76 144.88 139.52 145.51 140.38 145.42 C 141.24 145.33 141.86 144.57 141.78 143.71 L 141.68 142.74 C 141.59 141.88 140.83 141.25 139.97 141.34 C 139.11 141.43 138.48 142.19 138.57 143.05 Z M 138.67 144.05 L 138.79 145.04 C 138.89 145.89 139.67 146.51 140.53 146.40 C 141.38 146.30 141.99 145.52 141.89 144.67 L 141.77 143.68 C 141.67 142.82 140.89 142.21 140.04 142.32 C 139.18 142.42 138.57 143.20 138.67 144.05 Z M 138.79 145.06 L 138.93 146.04 C 139.04 146.89 139.83 147.49 140.68 147.38 C 141.54 147.26 142.14 146.47 142.02 145.62 L 141.89 144.64 C 141.77 143.79 140.99 143.19 140.13 143.31 C 139.28 143.42 138.68 144.21 138.79 145.06 Z M 138.93 146.05 L 139.06 146.97 C 139.19 147.82 139.98 148.42 140.83 148.29 C 141.68 148.17 142.28 147.38 142.15 146.52 L 142.02 145.61 C 141.89 144.75 141.10 144.16 140.25 144.28 C 139.40 144.41 138.80 145.20 138.93 146.05 Z M 139.06 146.98 L 139.21 147.94 C 139.33 148.79 140.13 149.38 140.98 149.25 C 141.83 149.13 142.42 148.33 142.29 147.48 L 142.15 146.52 C 142.02 145.66 141.23 145.08 140.38 145.20 C 139.52 145.33 138.94 146.12 139.06 146.98 Z M 139.21 147.94 L 139.36 148.95 C 139.48 149.80 140.28 150.39 141.13 150.26 C 141.98 150.14 142.57 149.34 142.44 148.49 L 142.29 147.48 C 142.17 146.63 141.37 146.04 140.52 146.17 C 139.67 146.29 139.08 147.09 139.21 147.94 Z M 139.36 148.94 L 139.51 149.99 C 139.63 150.84 140.42 151.44 141.28 151.31 C 142.13 151.19 142.72 150.40 142.60 149.54 L 142.45 148.49 C 142.32 147.64 141.53 147.05 140.68 147.17 C 139.82 147.30 139.23 148.09 139.36 148.94 Z M 139.51 149.98 L 139.64 150.99 C 139.76 151.85 140.55 152.44 141.40 152.33 C 142.26 152.21 142.85 151.42 142.74 150.57 L 142.60 149.56 C 142.48 148.70 141.69 148.10 140.84 148.22 C 139.99 148.34 139.39 149.12 139.51 149.98 Z M 139.64 150.98 L 139.76 151.91 C 139.87 152.77 140.65 153.37 141.51 153.26 C 142.37 153.15 142.97 152.37 142.86 151.51 L 142.74 150.58 C 142.63 149.73 141.85 149.12 140.99 149.23 C 140.14 149.34 139.53 150.12 139.64 150.98 Z M 139.76 151.90 L 139.88 152.86 C 139.98 153.72 140.76 154.33 141.62 154.22 C 142.47 154.12 143.08 153.34 142.98 152.48 L 142.86 151.52 C 142.76 150.67 141.98 150.06 141.12 150.16 C 140.27 150.27 139.66 151.05 139.76 151.90 Z M 139.88 152.85 L 139.99 153.84 C 140.09 154.70 140.87 155.31 141.72 155.21 C 142.58 155.11 143.19 154.34 143.09 153.48 L 142.98 152.49 C 142.88 151.64 142.10 151.02 141.25 151.12 C 140.39 151.22 139.78 152.00 139.88 152.85 Z M 139.99 153.83 L 140.10 154.86 C 140.20 155.71 140.97 156.33 141.83 156.23 C 142.69 156.14 143.30 155.37 143.21 154.51 L 143.09 153.49 C 143.00 152.63 142.23 152.02 141.37 152.11 C 140.51 152.21 139.90 152.98 139.99 153.83 Z M 140.10 154.85 L 140.22 155.90 C 140.31 156.76 141.08 157.38 141.93 157.29 C 142.79 157.20 143.41 156.43 143.32 155.57 L 143.21 154.52 C 143.12 153.66 142.35 153.04 141.49 153.13 C 140.63 153.22 140.01 153.99 140.10 154.85 Z M 140.22 155.90 L 140.32 156.90 C 140.41 157.76 141.17 158.39 142.03 158.30 C 142.89 158.21 143.51 157.44 143.43 156.58 L 143.32 155.58 C 143.23 154.72 142.47 154.09 141.61 154.18 C 140.75 154.27 140.13 155.04 140.22 155.90 Z M 140.32 156.90 L 140.41 157.85 C 140.50 158.71 141.27 159.34 142.12 159.25 C 142.98 159.16 143.61 158.40 143.52 157.54 L 143.43 156.59 C 143.34 155.73 142.57 155.10 141.72 155.19 C 140.86 155.28 140.23 156.04 140.32 156.90 Z M 140.41 157.85 L 140.51 158.82 C 140.59 159.68 141.36 160.31 142.21 160.22 C 143.07 160.14 143.70 159.38 143.62 158.52 L 143.52 157.54 C 143.44 156.69 142.67 156.06 141.82 156.14 C 140.96 156.23 140.33 156.99 140.41 157.85 Z M 140.51 158.82 L 140.60 159.81 C 140.68 160.67 141.45 161.30 142.30 161.22 C 143.16 161.13 143.79 160.37 143.71 159.51 L 143.62 158.52 C 143.54 157.66 142.77 157.03 141.92 157.11 C 141.06 157.20 140.43 157.96 140.51 158.82 Z M 140.60 159.80 L 140.69 160.81 C 140.77 161.67 141.53 162.30 142.39 162.22 C 143.25 162.15 143.88 161.39 143.80 160.53 L 143.71 159.52 C 143.63 158.66 142.87 158.03 142.01 158.11 C 141.16 158.19 140.52 158.95 140.60 159.80 Z M 140.69 160.81 L 140.78 161.83 C 140.86 162.69 141.62 163.32 142.48 163.25 C 143.34 163.17 143.97 162.41 143.89 161.55 L 143.80 160.53 C 143.73 159.67 142.97 159.04 142.11 159.11 C 141.25 159.19 140.62 159.95 140.69 160.81 Z M 140.78 161.83 L 140.87 162.86 C 140.95 163.72 141.70 164.36 142.56 164.28 C 143.42 164.21 144.06 163.45 143.98 162.59 L 143.90 161.56 C 143.82 160.70 143.07 160.06 142.21 160.14 C 141.35 160.21 140.71 160.97 140.78 161.83 Z M 140.87 162.86 L 140.95 163.85 C 141.03 164.71 141.78 165.35 142.64 165.28 C 143.50 165.21 144.14 164.46 144.07 163.60 L 143.98 162.60 C 143.91 161.74 143.16 161.10 142.30 161.17 C 141.44 161.24 140.80 162.00 140.87 162.86 Z M 140.95 163.85 L 141.03 164.82 C 141.10 165.68 141.85 166.32 142.71 166.25 C 143.57 166.18 144.21 165.43 144.14 164.57 L 144.07 163.60 C 144.00 162.74 143.25 162.10 142.39 162.17 C 141.53 162.24 140.89 162.99 140.95 163.85 Z M 141.03 164.82 L 141.11 165.79 C 141.17 166.65 141.92 167.30 142.78 167.23 C 143.64 167.16 144.29 166.41 144.22 165.55 L 144.14 164.58 C 144.08 163.72 143.33 163.07 142.47 163.14 C 141.61 163.21 140.97 163.96 141.03 164.82 Z M 141.11 165.79 L 141.18 166.78 C 141.24 167.64 141.99 168.28 142.85 168.22 C 143.71 168.15 144.36 167.41 144.29 166.55 L 144.22 165.56 C 144.16 164.70 143.41 164.05 142.55 164.12 C 141.69 164.18 141.04 164.93 141.11 165.79 Z M 141.18 166.78 L 141.25 167.77 C 141.31 168.63 142.06 169.28 142.92 169.22 C 143.78 169.16 144.43 168.41 144.37 167.55 L 144.29 166.55 C 144.23 165.69 143.48 165.04 142.62 165.11 C 141.76 165.17 141.12 165.92 141.18 166.78 Z M 141.25 167.77 L 141.32 168.78 C 141.38 169.64 142.13 170.29 142.99 170.23 C 143.85 170.17 144.50 169.42 144.44 168.56 L 144.37 167.55 C 144.31 166.69 143.56 166.04 142.70 166.10 C 141.84 166.16 141.19 166.91 141.25 167.77 Z M 141.32 168.78 L 141.39 169.80 C 141.45 170.66 142.20 171.31 143.06 171.25 C 143.92 171.19 144.57 170.44 144.51 169.58 L 144.44 168.56 C 144.38 167.70 143.63 167.05 142.77 167.11 C 141.91 167.17 141.26 167.92 141.32 168.78 Z M 141.39 169.80 L 141.46 170.83 C 141.52 171.69 142.27 172.34 143.13 172.28 C 143.99 172.22 144.64 171.48 144.58 170.62 L 144.51 169.59 C 144.45 168.73 143.71 168.08 142.85 168.13 C 141.99 168.19 141.34 168.94 141.39 169.80 Z M 141.46 170.83 L 141.53 171.83 C 141.59 172.69 142.33 173.34 143.19 173.28 C 144.05 173.23 144.70 172.48 144.65 171.62 L 144.58 170.62 C 144.52 169.76 143.78 169.11 142.92 169.17 C 142.06 169.23 141.41 169.97 141.46 170.83 Z M 141.53 171.83 L 141.60 172.84 C 141.65 173.70 142.40 174.35 143.26 174.29 C 144.12 174.24 144.77 173.49 144.71 172.63 L 144.65 171.62 C 144.59 170.76 143.85 170.11 142.99 170.17 C 142.13 170.23 141.48 170.97 141.53 171.83 Z M 141.60 172.84 L 141.66 173.85 C 141.72 174.71 142.46 175.36 143.32 175.31 C 144.18 175.25 144.83 174.51 144.78 173.65 L 144.71 172.64 C 144.66 171.78 143.92 171.12 143.06 171.18 C 142.20 171.23 141.54 171.98 141.60 172.84 Z M 141.66 173.85 L 141.72 174.86 C 141.78 175.72 142.52 176.37 143.38 176.32 C 144.24 176.27 144.89 175.53 144.84 174.67 L 144.78 173.65 C 144.73 172.79 143.99 172.14 143.12 172.19 C 142.26 172.24 141.61 172.98 141.66 173.85 Z M 141.72 174.85 L 141.78 175.86 C 141.83 176.72 142.57 177.38 143.43 177.33 C 144.29 177.27 144.95 176.54 144.90 175.68 L 144.84 174.67 C 144.79 173.81 144.05 173.15 143.19 173.20 C 142.33 173.25 141.67 173.99 141.72 174.85 Z M 141.78 175.85 L 141.84 176.85 C 141.89 177.71 142.62 178.37 143.48 178.32 C 144.34 178.27 145.00 177.54 144.96 176.68 L 144.90 175.68 C 144.85 174.82 144.12 174.16 143.26 174.21 C 142.40 174.26 141.74 174.99 141.78 175.85 Z M 141.84 176.84 L 141.89 177.82 C 141.93 178.68 142.67 179.35 143.53 179.30 C 144.39 179.26 145.05 178.52 145.01 177.66 L 144.96 176.68 C 144.91 175.82 144.18 175.16 143.32 175.20 C 142.46 175.25 141.79 175.98 141.84 176.84 Z M 141.89 177.81 L 141.93 178.80 C 141.97 179.66 142.70 180.32 143.56 180.28 C 144.42 180.24 145.09 179.51 145.05 178.65 L 145.01 177.67 C 144.97 176.81 144.24 176.14 143.38 176.18 C 142.51 176.22 141.85 176.95 141.89 177.81 Z M 141.93 178.79 L 141.97 179.84 C 142.01 180.70 142.74 181.38 143.60 181.34 C 144.46 181.31 145.13 180.58 145.09 179.72 L 145.05 178.66 C 145.02 177.80 144.29 177.13 143.43 177.16 C 142.57 177.20 141.90 177.93 141.93 178.79 Z M 141.97 179.83 L 142.01 180.86 C 142.04 181.73 142.76 182.40 143.62 182.37 C 144.49 182.34 145.16 181.62 145.13 180.76 L 145.09 179.73 C 145.06 178.87 144.34 178.19 143.48 178.22 C 142.62 178.25 141.94 178.97 141.97 179.83 Z M 142.01 180.86 L 142.04 181.87 C 142.06 182.73 142.78 183.41 143.65 183.38 C 144.51 183.35 145.19 182.63 145.16 181.77 L 145.13 180.76 C 145.10 179.90 144.39 179.23 143.52 179.25 C 142.66 179.28 141.98 180.00 142.01 180.86 Z M 142.04 181.86 L 142.06 182.85 C 142.09 183.71 142.80 184.39 143.67 184.37 C 144.53 184.35 145.21 183.63 145.19 182.77 L 145.16 181.78 C 145.14 180.92 144.42 180.24 143.56 180.26 C 142.70 180.28 142.02 181.00 142.04 181.86 Z M 142.06 182.84 L 142.09 183.82 C 142.11 184.68 142.82 185.36 143.68 185.34 C 144.54 185.32 145.23 184.61 145.21 183.75 L 145.19 182.77 C 145.17 181.91 144.45 181.23 143.59 181.25 C 142.73 181.27 142.04 181.98 142.06 182.84 Z M 142.09 183.81 L 142.11 184.78 C 142.12 185.64 142.84 186.32 143.70 186.31 C 144.56 186.29 145.25 185.57 145.23 184.71 L 145.21 183.75 C 145.19 182.89 144.48 182.20 143.61 182.22 C 142.75 182.24 142.07 182.95 142.09 183.81 Z M 142.11 184.78 L 142.13 185.74 C 142.14 186.61 142.86 187.29 143.72 187.27 C 144.58 187.26 145.26 186.54 145.25 185.68 L 145.23 184.71 C 145.21 183.85 144.50 183.17 143.64 183.18 C 142.77 183.20 142.09 183.91 142.11 184.78 Z M 142.13 185.74 L 142.15 186.76 C 142.16 187.63 142.88 188.31 143.74 188.29 C 144.60 188.28 145.29 187.56 145.27 186.70 L 145.25 185.68 C 145.23 184.82 144.52 184.14 143.66 184.15 C 142.79 184.17 142.11 184.88 142.13 185.74 Z M 142.15 186.76 L 142.17 187.77 C 142.18 188.64 142.90 189.32 143.76 189.31 C 144.62 189.29 145.30 188.58 145.29 187.71 L 145.27 186.70 C 145.25 185.84 144.54 185.15 143.68 185.17 C 142.81 185.19 142.13 185.90 142.15 186.76 Z M 142.17 187.77 L 142.18 188.78 C 142.20 189.64 142.91 190.33 143.77 190.31 C 144.64 190.29 145.32 189.58 145.31 188.72 L 145.29 187.72 C 145.27 186.85 144.56 186.17 143.70 186.18 C 142.84 186.20 142.15 186.91 142.17 187.77 Z M 142.18 188.78 L 142.20 189.77 C 142.22 190.64 142.93 191.32 143.79 191.31 C 144.65 191.29 145.34 190.58 145.32 189.72 L 145.31 188.72 C 145.29 187.86 144.58 187.17 143.72 187.19 C 142.86 187.20 142.17 187.91 142.18 188.78 Z M 142.20 189.77 L 142.22 190.76 C 142.23 191.62 142.94 192.31 143.80 192.30 C 144.66 192.28 145.35 191.57 145.34 190.71 L 145.32 189.72 C 145.31 188.86 144.60 188.17 143.74 188.19 C 142.88 188.20 142.19 188.91 142.20 189.77 Z M 142.22 190.75 L 142.23 191.73 C 142.24 192.60 142.95 193.29 143.81 193.28 C 144.67 193.26 145.36 192.56 145.35 191.69 L 145.34 190.71 C 145.33 189.85 144.62 189.16 143.76 189.17 C 142.90 189.18 142.21 189.89 142.22 190.75 Z M 142.23 191.73 L 142.24 192.75 C 142.25 193.61 142.95 194.30 143.82 194.29 C 144.68 194.28 145.37 193.58 145.36 192.72 L 145.35 191.70 C 145.34 190.84 144.64 190.14 143.77 190.15 C 142.91 190.16 142.22 190.87 142.23 191.73 Z M 142.24 192.74 L 142.25 193.76 C 142.25 194.63 142.96 195.32 143.82 195.31 C 144.68 195.31 145.37 194.61 145.37 193.74 L 145.36 192.72 C 145.36 191.86 144.65 191.16 143.79 191.17 C 142.93 191.18 142.23 191.88 142.24 192.74 Z M 142.25 193.76 L 142.25 194.77 C 142.25 195.63 142.96 196.33 143.82 196.33 C 144.68 196.32 145.38 195.62 145.37 194.76 L 145.37 193.75 C 145.36 192.88 144.66 192.19 143.80 192.19 C 142.94 192.20 142.24 192.90 142.25 193.76 Z M 142.25 194.77 L 142.25 195.77 C 142.25 196.63 142.96 197.33 143.82 197.32 C 144.68 197.32 145.38 196.62 145.37 195.76 L 145.37 194.76 C 145.37 193.90 144.67 193.20 143.81 193.20 C 142.95 193.21 142.25 193.91 142.25 194.77 Z M 142.25 195.76 L 142.25 196.75 C 142.25 197.61 142.95 198.31 143.82 198.31 C 144.68 198.31 145.38 197.61 145.38 196.75 L 145.37 195.76 C 145.37 194.90 144.67 194.20 143.81 194.20 C 142.95 194.20 142.25 194.90 142.25 195.76 Z M 142.25 196.75 L 142.25 197.72 C 142.25 198.58 142.95 199.28 143.82 199.28 C 144.68 199.28 145.38 198.58 145.38 197.72 L 145.38 196.75 C 145.38 195.89 144.68 195.19 143.81 195.19 C 142.95 195.19 142.25 195.89 142.25 196.75 Z M 142.25 197.72 L 142.25 198.73 C 142.25 199.59 142.95 200.29 143.81 200.29 C 144.68 200.29 145.38 199.59 145.38 198.73 L 145.38 197.72 C 145.38 196.86 144.68 196.16 143.81 196.16 C 142.95 196.16 142.25 196.86 142.25 197.72 Z M 142.25 198.73 L 142.25 199.76 C 142.25 200.62 142.95 201.32 143.81 201.32 C 144.68 201.32 145.38 200.62 145.38 199.76 L 145.38 198.73 C 145.38 197.87 144.68 197.17 143.81 197.17 C 142.95 197.17 142.25 197.87 142.25 198.73 Z M 142.25 199.76 L 142.25 200.77 C 142.25 201.63 142.95 202.33 143.81 202.33 C 144.68 202.33 145.38 201.63 145.38 200.77 L 145.38 199.76 C 145.38 198.89 144.68 198.19 143.81 198.19 C 142.95 198.19 142.25 198.89 142.25 199.76 Z M 142.25 200.77 L 142.25 201.76 C 142.25 202.62 142.95 203.32 143.81 203.32 C 144.68 203.32 145.38 202.62 145.38 201.76 L 145.38 200.77 C 145.38 199.90 144.68 199.20 143.81 199.20 C 142.95 199.20 142.25 199.90 142.25 200.77 Z M 142.25 201.76 L 142.25 202.74 C 142.25 203.60 142.95 204.30 143.81 204.30 C 144.68 204.30 145.38 203.60 145.38 202.74 L 145.38 201.76 C 145.38 200.90 144.68 200.20 143.81 200.20 C 142.95 200.20 142.25 200.90 142.25 201.76 Z M 142.25 202.74 L 142.25 203.71 C 142.25 204.57 142.95 205.27 143.81 205.27 C 144.68 205.27 145.38 204.57 145.38 203.71 L 145.38 202.74 C 145.38 201.88 144.68 201.18 143.81 201.18 C 142.95 201.18 142.25 201.88 142.25 202.74 Z M 142.25 203.71 L 142.25 204.72 C 142.25 205.59 142.95 206.29 143.81 206.29 C 144.68 206.29 145.38 205.59 145.38 204.72 L 145.38 203.71 C 145.38 202.84 144.68 202.14 143.82 202.14 C 142.95 202.14 142.25 202.84 142.25 203.71 Z M 142.24 204.72 L 142.24 205.72 C 142.24 206.59 142.94 207.29 143.81 207.30 C 144.68 207.30 145.38 206.60 145.38 205.73 L 145.39 204.73 C 145.39 203.86 144.69 203.15 143.82 203.15 C 142.95 203.15 142.25 203.85 142.24 204.72 Z M 142.24 205.72 L 142.23 206.71 C 142.23 207.58 142.93 208.29 143.80 208.30 C 144.67 208.30 145.38 207.60 145.38 206.73 L 145.39 205.73 C 145.39 204.86 144.69 204.16 143.82 204.15 C 142.95 204.14 142.24 204.85 142.24 205.72 Z M 142.23 206.70 L 142.22 207.70 C 142.20 208.57 142.90 209.28 143.78 209.29 C 144.65 209.30 145.36 208.61 145.37 207.73 L 145.39 206.74 C 145.40 205.87 144.70 205.15 143.82 205.14 C 142.95 205.13 142.24 205.83 142.23 206.70 Z M 142.21 207.68 L 142.19 208.68 C 142.18 209.55 142.87 210.27 143.75 210.29 C 144.62 210.31 145.34 209.61 145.36 208.74 L 145.38 207.74 C 145.40 206.87 144.70 206.15 143.82 206.13 C 142.95 206.11 142.23 206.81 142.21 207.68 Z M 142.19 208.66 L 142.16 209.71 C 142.13 210.58 142.82 211.31 143.70 211.34 C 144.58 211.36 145.31 210.67 145.33 209.80 L 145.36 208.75 C 145.39 207.88 144.70 207.15 143.82 207.12 C 142.94 207.10 142.21 207.79 142.19 208.66 Z M 142.16 209.69 L 142.12 210.74 C 142.09 211.62 142.77 212.36 143.65 212.39 C 144.53 212.42 145.26 211.74 145.30 210.86 L 145.34 209.81 C 145.37 208.93 144.68 208.20 143.81 208.16 C 142.93 208.13 142.19 208.82 142.16 209.69 Z M 142.12 210.73 L 142.07 211.75 C 142.03 212.63 142.71 213.38 143.59 213.41 C 144.47 213.45 145.21 212.77 145.25 211.89 L 145.30 210.87 C 145.34 209.99 144.66 209.25 143.78 209.21 C 142.90 209.17 142.16 209.85 142.12 210.73 Z M 142.07 211.74 L 142.02 212.72 C 141.97 213.60 142.65 214.35 143.53 214.40 C 144.41 214.44 145.16 213.76 145.20 212.89 L 145.25 211.91 C 145.30 211.03 144.62 210.28 143.74 210.23 C 142.86 210.19 142.11 210.86 142.07 211.74 Z M 142.02 212.71 L 141.96 213.63 C 141.91 214.51 142.59 215.26 143.47 215.32 C 144.35 215.37 145.10 214.69 145.15 213.81 L 145.20 212.89 C 145.26 212.01 144.58 211.26 143.70 211.21 C 142.82 211.16 142.07 211.83 142.02 212.71 Z M 141.96 213.62 L 141.89 214.69 C 141.84 215.57 142.51 216.34 143.39 216.39 C 144.27 216.45 145.03 215.78 145.09 214.90 L 145.16 213.82 C 145.21 212.94 144.54 212.18 143.66 212.12 C 142.78 212.07 142.02 212.74 141.96 213.62 Z M 141.89 214.69 L 141.82 215.71 C 141.77 216.59 142.44 217.35 143.32 217.41 C 144.21 217.47 144.97 216.79 145.03 215.91 L 145.09 214.90 C 145.15 214.01 144.48 213.25 143.59 213.19 C 142.71 213.13 141.94 213.81 141.89 214.69 Z M 141.82 215.72 L 141.77 216.67 C 141.72 217.56 142.40 218.32 143.29 218.37 C 144.18 218.41 144.94 217.73 144.99 216.84 L 145.04 215.89 C 145.08 215.00 144.40 214.24 143.51 214.20 C 142.62 214.15 141.86 214.83 141.82 215.72 Z M 141.76 216.71 L 141.73 217.64 C 141.70 218.54 142.41 219.28 143.30 219.31 C 144.19 219.34 144.94 218.63 144.97 217.74 L 144.99 216.80 C 145.02 215.91 144.32 215.16 143.42 215.14 C 142.53 215.11 141.78 215.81 141.76 216.71 Z M 141.73 217.69 L 141.73 218.68 C 141.73 219.57 142.45 220.30 143.35 220.30 C 144.24 220.30 144.97 219.58 144.97 218.68 L 144.97 217.69 C 144.97 216.80 144.24 216.07 143.35 216.07 C 142.45 216.07 141.73 216.80 141.73 217.69 Z M 141.73 218.71 L 141.75 219.71 C 141.77 220.61 142.51 221.32 143.40 221.30 C 144.30 221.28 145.01 220.54 144.99 219.65 L 144.97 218.65 C 144.95 217.75 144.21 217.04 143.31 217.06 C 142.42 217.08 141.71 217.82 141.73 218.71 Z M 141.75 219.73 L 141.79 220.74 C 141.81 221.64 142.56 222.34 143.46 222.31 C 144.35 222.28 145.05 221.53 145.02 220.64 L 144.99 219.63 C 144.96 218.73 144.21 218.03 143.32 218.06 C 142.42 218.09 141.72 218.84 141.75 219.73 Z M 141.79 220.75 L 141.80 221.15 C 141.83 222.05 142.58 222.74 143.48 222.71 C 144.37 222.68 145.07 221.93 145.03 221.03 L 145.02 220.63 C 144.99 219.74 144.24 219.04 143.34 219.07 C 142.45 219.11 141.75 219.86 141.79 220.75 Z"
      fill="black"
      fill-rule="nonzero" /><path d="M 147.42 94.14 L 146.24 93.69 C 145.43 93.38 144.53 93.79 144.23 94.59 C 143.92 95.40 144.32 96.30 145.13 96.61 L 146.31 97.05 C 147.12 97.36 148.02 96.95 148.32 96.15 C 148.63 95.34 148.23 94.44 147.42 94.14 Z M 146.11 93.64 L 145.10 93.36 C 144.27 93.12 143.41 93.60 143.17 94.43 C 142.94 95.26 143.42 96.12 144.25 96.36 L 145.26 96.65 C 146.09 96.88 146.95 96.40 147.19 95.57 C 147.42 94.74 146.94 93.88 146.11 93.64 Z M 144.60 93.30 L 143.93 93.33 C 143.06 93.37 142.40 94.10 142.44 94.96 C 142.48 95.83 143.21 96.49 144.07 96.45 L 144.75 96.42 C 145.61 96.38 146.27 95.64 146.23 94.78 C 146.19 93.92 145.46 93.26 144.60 93.30 Z M 142.56 94.29 L 142.36 94.78 C 142.03 95.58 142.41 96.49 143.20 96.82 C 144.00 97.15 144.91 96.77 145.24 95.97 L 145.44 95.49 C 145.77 94.69 145.39 93.78 144.60 93.45 C 143.80 93.12 142.89 93.50 142.56 94.29 Z M 142.28 95.76 L 142.51 96.67 C 142.72 97.50 143.56 98.01 144.40 97.81 C 145.24 97.60 145.75 96.75 145.54 95.91 L 145.31 95.00 C 145.11 94.17 144.26 93.66 143.42 93.86 C 142.59 94.07 142.08 94.92 142.28 95.76 Z M 142.59 96.91 L 143.13 98.16 C 143.48 98.95 144.40 99.31 145.19 98.96 C 145.98 98.62 146.34 97.70 146.00 96.91 L 145.46 95.67 C 145.11 94.88 144.19 94.52 143.40 94.86 C 142.61 95.20 142.25 96.12 142.59 96.91 Z M 143.17 98.22 L 143.58 99.07 C 143.97 99.84 144.90 100.16 145.67 99.78 C 146.45 99.40 146.76 98.46 146.38 97.69 L 145.97 96.84 C 145.58 96.07 144.65 95.75 143.87 96.13 C 143.10 96.52 142.78 97.45 143.17 98.22 Z M 143.60 99.10 L 144.03 99.93 C 144.43 100.70 145.37 101.00 146.13 100.61 C 146.90 100.21 147.20 99.27 146.80 98.50 L 146.37 97.66 C 145.98 96.90 145.03 96.60 144.27 96.99 C 143.50 97.39 143.20 98.33 143.60 99.10 Z M 144.04 99.95 L 144.51 100.83 C 144.91 101.60 145.86 101.89 146.62 101.48 C 147.38 101.08 147.67 100.13 147.26 99.37 L 146.80 98.49 C 146.39 97.72 145.45 97.44 144.68 97.84 C 143.92 98.24 143.63 99.19 144.04 99.95 Z M 144.51 100.85 L 145.01 101.76 C 145.42 102.52 146.37 102.80 147.13 102.39 C 147.88 101.98 148.17 101.03 147.76 100.28 L 147.26 99.36 C 146.85 98.60 145.90 98.32 145.14 98.73 C 144.38 99.14 144.10 100.09 144.51 100.85 Z M 145.01 101.77 L 145.53 102.70 C 145.94 103.46 146.89 103.74 147.64 103.32 C 148.40 102.91 148.68 101.96 148.26 101.21 L 147.75 100.27 C 147.34 99.51 146.39 99.24 145.63 99.65 C 144.88 100.06 144.60 101.01 145.01 101.77 Z M 145.53 102.71 L 145.89 103.38 C 146.31 104.13 147.26 104.41 148.01 103.99 C 148.77 103.58 149.05 102.63 148.63 101.87 L 148.26 101.20 C 147.85 100.45 146.90 100.17 146.14 100.59 C 145.39 101.00 145.11 101.95 145.53 102.71 Z"
      fill="black"
      fill-rule="nonzero" /><path d="M 207.88 156.74 L 206.95 156.17 C 206.21 155.73 205.25 155.96 204.80 156.70 C 204.35 157.44 204.59 158.40 205.33 158.84 L 206.26 159.41 C 207.00 159.86 207.96 159.63 208.41 158.89 C 208.86 158.15 208.62 157.19 207.88 156.74 Z M 206.96 156.18 L 206.04 155.61 C 205.31 155.16 204.34 155.39 203.89 156.12 C 203.44 156.85 203.66 157.81 204.39 158.27 L 205.31 158.84 C 206.05 159.29 207.01 159.06 207.46 158.33 C 207.92 157.60 207.69 156.64 206.96 156.18 Z M 206.06 155.63 L 205.18 155.06 C 204.46 154.59 203.49 154.80 203.03 155.53 C 202.56 156.25 202.77 157.22 203.49 157.68 L 204.37 158.25 C 205.09 158.72 206.06 158.51 206.53 157.79 C 207.00 157.06 206.79 156.10 206.06 155.63 Z M 205.22 155.09 L 204.40 154.52 C 203.69 154.03 202.72 154.21 202.23 154.92 C 201.74 155.63 201.92 156.60 202.63 157.09 L 203.45 157.66 C 204.16 158.15 205.13 157.97 205.62 157.26 C 206.11 156.55 205.93 155.58 205.22 155.09 Z M 204.46 154.56 L 203.72 154.00 C 203.03 153.48 202.05 153.61 201.53 154.30 C 201.01 154.98 201.14 155.96 201.83 156.49 L 202.57 157.05 C 203.26 157.57 204.24 157.44 204.76 156.75 C 205.28 156.06 205.15 155.09 204.46 154.56 Z M 203.80 154.07 L 203.16 153.51 C 202.51 152.94 201.52 153.01 200.96 153.66 C 200.39 154.31 200.46 155.29 201.11 155.86 L 201.75 156.42 C 202.40 156.99 203.39 156.92 203.95 156.27 C 204.52 155.62 204.45 154.63 203.80 154.07 Z M 203.31 153.66 L 202.39 152.60 C 201.83 151.94 200.84 151.87 200.19 152.44 C 199.54 153.00 199.47 153.99 200.03 154.64 L 200.95 155.70 C 201.52 156.36 202.50 156.43 203.16 155.86 C 203.81 155.30 203.88 154.31 203.31 153.66 Z M 202.60 152.90 L 202.13 152.00 C 201.73 151.23 200.79 150.93 200.02 151.33 C 199.26 151.73 198.96 152.67 199.36 153.43 L 199.83 154.34 C 200.22 155.10 201.16 155.40 201.93 155.00 C 202.70 154.61 202.99 153.66 202.60 152.90 Z M 202.30 152.77 L 202.32 152.24 C 202.35 151.38 201.67 150.66 200.81 150.63 C 199.95 150.60 199.23 151.28 199.20 152.14 L 199.18 152.66 C 199.15 153.53 199.83 154.25 200.69 154.28 C 201.55 154.30 202.27 153.63 202.30 152.77 Z M 200.73 153.75 L 201.22 153.76 C 202.08 153.77 202.79 153.08 202.80 152.22 C 202.82 151.36 202.13 150.65 201.27 150.64 L 200.79 150.63 C 199.92 150.61 199.21 151.30 199.20 152.16 C 199.18 153.03 199.87 153.74 200.73 153.75 Z M 200.36 153.49 L 201.17 154.04 C 201.88 154.52 202.85 154.34 203.34 153.62 C 203.82 152.91 203.64 151.94 202.93 151.45 L 202.12 150.91 C 201.41 150.42 200.44 150.61 199.95 151.32 C 199.47 152.03 199.65 153.00 200.36 153.49 Z M 200.89 153.79 L 201.84 154.84 C 202.42 155.47 203.41 155.52 204.04 154.94 C 204.68 154.36 204.73 153.37 204.15 152.74 L 203.20 151.69 C 202.62 151.06 201.64 151.01 201.00 151.59 C 200.36 152.17 200.31 153.16 200.89 153.79 Z M 201.70 154.66 L 202.23 155.44 C 202.72 156.15 203.69 156.34 204.40 155.86 C 205.11 155.37 205.30 154.40 204.81 153.69 L 204.29 152.91 C 203.80 152.20 202.83 152.01 202.12 152.50 C 201.40 152.98 201.22 153.95 201.70 154.66 Z M 202.17 155.34 L 202.66 156.20 C 203.09 156.95 204.05 157.20 204.79 156.77 C 205.54 156.34 205.80 155.39 205.37 154.64 L 204.88 153.78 C 204.44 153.04 203.49 152.78 202.74 153.21 C 202.00 153.64 201.74 154.60 202.17 155.34 Z M 202.62 156.13 L 203.09 157.05 C 203.48 157.81 204.42 158.12 205.19 157.73 C 205.96 157.34 206.26 156.40 205.87 155.63 L 205.41 154.71 C 205.02 153.94 204.08 153.64 203.31 154.03 C 202.54 154.42 202.23 155.36 202.62 156.13 Z M 203.06 156.99 L 203.50 157.94 C 203.86 158.72 204.78 159.07 205.57 158.71 C 206.35 158.35 206.69 157.42 206.34 156.64 L 205.90 155.69 C 205.54 154.90 204.62 154.56 203.83 154.92 C 203.05 155.28 202.70 156.20 203.06 156.99 Z M 203.48 157.89 L 203.87 158.84 C 204.21 159.63 205.12 160.01 205.92 159.67 C 206.71 159.34 207.09 158.42 206.75 157.63 L 206.36 156.68 C 206.02 155.89 205.11 155.51 204.31 155.85 C 203.52 156.18 203.14 157.10 203.48 157.89 Z M 203.86 158.79 L 204.23 159.76 C 204.54 160.57 205.45 160.97 206.25 160.66 C 207.05 160.35 207.45 159.44 207.14 158.64 L 206.77 157.67 C 206.46 156.86 205.55 156.46 204.75 156.78 C 203.95 157.09 203.55 157.99 203.86 158.79 Z M 204.22 159.72 L 204.56 160.70 C 204.85 161.52 205.74 161.94 206.55 161.65 C 207.37 161.37 207.79 160.47 207.51 159.66 L 207.16 158.68 C 206.87 157.87 205.98 157.44 205.17 157.73 C 204.35 158.02 203.93 158.91 204.22 159.72 Z M 204.55 160.66 L 204.85 161.60 C 205.11 162.42 205.99 162.87 206.81 162.61 C 207.63 162.35 208.08 161.47 207.82 160.65 L 207.52 159.71 C 207.26 158.89 206.38 158.43 205.56 158.70 C 204.74 158.96 204.28 159.84 204.55 160.66 Z M 204.84 161.56 L 205.10 162.48 C 205.34 163.31 206.21 163.79 207.03 163.55 C 207.86 163.31 208.34 162.45 208.10 161.62 L 207.84 160.69 C 207.60 159.86 206.73 159.38 205.90 159.62 C 205.07 159.86 204.60 160.73 204.84 161.56 Z M 205.09 162.45 L 205.34 163.38 C 205.56 164.22 206.41 164.71 207.24 164.50 C 208.08 164.28 208.58 163.42 208.36 162.59 L 208.11 161.65 C 207.89 160.82 207.04 160.32 206.21 160.54 C 205.37 160.76 204.87 161.61 205.09 162.45 Z M 205.33 163.35 L 205.56 164.28 C 205.76 165.12 206.61 165.63 207.44 165.43 C 208.28 165.22 208.79 164.38 208.59 163.54 L 208.36 162.62 C 208.16 161.78 207.32 161.26 206.48 161.47 C 205.64 161.67 205.13 162.52 205.33 163.35 Z M 205.55 164.26 L 205.77 165.20 C 205.96 166.05 206.80 166.57 207.64 166.38 C 208.48 166.18 209.00 165.35 208.81 164.51 L 208.60 163.56 C 208.40 162.72 207.56 162.20 206.72 162.39 C 205.88 162.58 205.36 163.42 205.55 164.26 Z M 205.76 165.19 L 205.98 166.16 C 206.16 167.00 206.99 167.54 207.83 167.35 C 208.67 167.17 209.21 166.34 209.03 165.50 L 208.82 164.52 C 208.63 163.68 207.80 163.15 206.96 163.33 C 206.12 163.51 205.58 164.34 205.76 165.19 Z M 205.97 166.14 L 206.18 167.14 C 206.35 167.99 207.18 168.53 208.02 168.36 C 208.87 168.18 209.41 167.36 209.24 166.51 L 209.03 165.51 C 208.86 164.67 208.03 164.13 207.19 164.30 C 206.34 164.47 205.80 165.30 205.97 166.14 Z M 206.18 167.13 L 206.38 168.15 C 206.54 168.99 207.36 169.54 208.21 169.38 C 209.06 169.21 209.61 168.39 209.44 167.54 L 209.24 166.53 C 209.07 165.68 208.25 165.13 207.41 165.30 C 206.56 165.46 206.01 166.28 206.18 167.13 Z M 206.37 168.14 L 206.56 169.12 C 206.72 169.97 207.54 170.53 208.38 170.37 C 209.23 170.21 209.79 169.39 209.63 168.54 L 209.44 167.56 C 209.28 166.71 208.47 166.15 207.62 166.31 C 206.77 166.47 206.21 167.29 206.37 168.14 Z M 206.56 169.11 L 206.74 170.08 C 206.89 170.93 207.70 171.49 208.55 171.34 C 209.40 171.19 209.96 170.37 209.81 169.53 L 209.63 168.55 C 209.48 167.71 208.66 167.14 207.81 167.30 C 206.97 167.45 206.40 168.26 206.56 169.11 Z M 206.73 170.07 L 206.91 171.06 C 207.05 171.91 207.86 172.47 208.71 172.32 C 209.56 172.17 210.13 171.37 209.98 170.52 L 209.81 169.53 C 209.66 168.69 208.85 168.12 208.00 168.27 C 207.15 168.42 206.58 169.23 206.73 170.07 Z M 206.90 171.05 L 207.07 172.04 C 207.22 172.89 208.02 173.46 208.87 173.32 C 209.72 173.17 210.29 172.37 210.15 171.52 L 209.98 170.53 C 209.84 169.68 209.03 169.10 208.18 169.25 C 207.33 169.39 206.76 170.20 206.90 171.05 Z M 207.07 172.03 L 207.23 173.03 C 207.37 173.88 208.18 174.46 209.03 174.32 C 209.88 174.18 210.45 173.37 210.32 172.52 L 210.15 171.52 C 210.01 170.67 209.21 170.10 208.36 170.24 C 207.51 170.38 206.93 171.18 207.07 172.03 Z M 207.23 173.02 L 207.39 174.01 C 207.53 174.87 208.32 175.45 209.18 175.31 C 210.03 175.18 210.61 174.38 210.47 173.53 L 210.32 172.53 C 210.18 171.68 209.38 171.10 208.53 171.23 C 207.68 171.37 207.10 172.17 207.23 173.02 Z M 207.39 174.01 L 207.53 174.96 C 207.66 175.81 208.46 176.40 209.31 176.27 C 210.17 176.14 210.75 175.34 210.62 174.49 L 210.48 173.53 C 210.35 172.68 209.55 172.10 208.70 172.23 C 207.84 172.36 207.26 173.15 207.39 174.01 Z M 207.53 174.95 L 207.67 175.91 C 207.80 176.77 208.59 177.36 209.44 177.23 C 210.30 177.11 210.89 176.32 210.76 175.46 L 210.62 174.50 C 210.50 173.65 209.71 173.05 208.85 173.18 C 208.00 173.30 207.41 174.10 207.53 174.95 Z M 207.67 175.90 L 207.80 176.88 C 207.92 177.73 208.71 178.33 209.56 178.21 C 210.42 178.10 211.01 177.31 210.90 176.46 L 210.76 175.48 C 210.65 174.62 209.86 174.02 209.01 174.14 C 208.15 174.26 207.55 175.04 207.67 175.90 Z M 207.80 176.86 L 207.93 177.86 C 208.03 178.72 208.81 179.32 209.67 179.22 C 210.53 179.11 211.13 178.33 211.03 177.47 L 210.90 176.47 C 210.79 175.62 210.01 175.01 209.16 175.12 C 208.30 175.22 207.70 176.01 207.80 176.86 Z M 207.93 177.84 L 208.04 178.87 C 208.14 179.73 208.91 180.34 209.77 180.25 C 210.62 180.15 211.24 179.38 211.14 178.52 L 211.03 177.49 C 210.93 176.64 210.16 176.02 209.30 176.12 C 208.45 176.21 207.83 176.99 207.93 177.84 Z M 208.04 178.85 L 208.14 179.87 C 208.22 180.72 208.99 181.35 209.85 181.27 C 210.70 181.18 211.33 180.42 211.25 179.56 L 211.15 178.54 C 211.06 177.68 210.30 177.06 209.44 177.14 C 208.58 177.23 207.95 177.99 208.04 178.85 Z M 208.14 179.85 L 208.22 180.82 C 208.30 181.68 209.05 182.31 209.91 182.24 C 210.77 182.17 211.41 181.41 211.33 180.55 L 211.25 179.58 C 211.17 178.72 210.42 178.08 209.56 178.16 C 208.70 178.23 208.06 178.99 208.14 179.85 Z M 208.22 180.80 L 208.30 181.79 C 208.36 182.65 209.11 183.30 209.97 183.23 C 210.83 183.17 211.47 182.42 211.41 181.56 L 211.33 180.57 C 211.27 179.71 210.52 179.06 209.66 179.13 C 208.80 179.19 208.15 179.94 208.22 180.80 Z M 208.29 181.78 L 208.36 182.78 C 208.42 183.64 209.16 184.30 210.02 184.24 C 210.88 184.18 211.53 183.44 211.48 182.58 L 211.41 181.57 C 211.35 180.71 210.61 180.06 209.75 180.12 C 208.89 180.18 208.24 180.92 208.29 181.78 Z M 208.36 182.77 L 208.42 183.78 C 208.47 184.64 209.21 185.30 210.07 185.25 C 210.93 185.20 211.59 184.46 211.54 183.60 L 211.48 182.59 C 211.43 181.73 210.69 181.07 209.83 181.12 C 208.97 181.17 208.31 181.91 208.36 182.77 Z M 208.42 183.77 L 208.47 184.79 C 208.51 185.65 209.25 186.31 210.11 186.27 C 210.97 186.22 211.63 185.49 211.59 184.63 L 211.54 183.61 C 211.49 182.75 210.76 182.09 209.90 182.13 C 209.04 182.18 208.37 182.91 208.42 183.77 Z M 208.47 184.78 L 208.52 185.78 C 208.55 186.64 209.28 187.31 210.14 187.27 C 211.01 187.23 211.67 186.51 211.63 185.64 L 211.59 184.64 C 211.55 183.78 210.82 183.11 209.96 183.15 C 209.10 183.18 208.43 183.91 208.47 184.78 Z M 208.51 185.77 L 208.55 186.79 C 208.59 187.65 209.31 188.32 210.17 188.29 C 211.04 188.25 211.71 187.53 211.67 186.67 L 211.63 185.65 C 211.60 184.79 210.88 184.12 210.01 184.15 C 209.15 184.19 208.48 184.91 208.51 185.77 Z M 208.55 186.78 L 208.59 187.78 C 208.62 188.65 209.34 189.32 210.20 189.29 C 211.06 189.26 211.74 188.54 211.71 187.68 L 211.67 186.68 C 211.65 185.81 210.92 185.14 210.06 185.17 C 209.20 185.20 208.53 185.92 208.55 186.78 Z M 208.59 187.78 L 208.61 188.77 C 208.64 189.64 209.36 190.32 210.22 190.29 C 211.08 190.27 211.76 189.55 211.74 188.69 L 211.71 187.69 C 211.68 186.83 210.97 186.15 210.10 186.17 C 209.24 186.20 208.56 186.91 208.59 187.78 Z M 208.61 188.77 L 208.64 189.76 C 208.66 190.62 209.37 191.31 210.23 191.29 C 211.09 191.27 211.78 190.55 211.76 189.69 L 211.74 188.70 C 211.72 187.83 211.00 187.15 210.14 187.17 C 209.28 187.19 208.59 187.90 208.61 188.77 Z M 208.64 189.75 L 208.65 190.75 C 208.67 191.61 209.38 192.29 210.24 192.28 C 211.11 192.26 211.79 191.55 211.78 190.69 L 211.76 189.70 C 211.74 188.83 211.03 188.15 210.17 188.16 C 209.31 188.18 208.62 188.89 208.64 189.75 Z M 208.65 190.74 L 208.67 191.73 C 208.68 192.60 209.39 193.29 210.25 193.27 C 211.11 193.26 211.80 192.55 211.79 191.69 L 211.78 190.70 C 211.76 189.83 211.06 189.14 210.19 189.16 C 209.33 189.17 208.64 189.88 208.65 190.74 Z M 208.67 191.73 L 208.68 192.72 C 208.69 193.58 209.39 194.27 210.26 194.27 C 211.12 194.26 211.81 193.55 211.80 192.69 L 211.79 191.70 C 211.78 190.83 211.08 190.14 210.21 190.15 C 209.35 190.16 208.66 190.87 208.67 191.73 Z M 208.68 192.72 L 208.69 193.70 C 208.69 194.57 209.40 195.26 210.26 195.25 C 211.12 195.25 211.81 194.54 211.81 193.68 L 211.80 192.69 C 211.79 191.83 211.09 191.14 210.23 191.14 C 209.37 191.15 208.67 191.85 208.68 192.72 Z M 208.69 193.70 L 208.69 194.70 C 208.70 195.56 209.40 196.25 210.26 196.25 C 211.12 196.24 211.82 195.54 211.81 194.68 L 211.81 193.69 C 211.80 192.82 211.10 192.13 210.24 192.13 C 209.38 192.14 208.68 192.84 208.69 193.70 Z M 208.69 194.69 L 208.69 195.69 C 208.70 196.55 209.40 197.25 210.26 197.25 C 211.12 197.25 211.82 196.54 211.82 195.68 L 211.81 194.68 C 211.81 193.82 211.11 193.12 210.25 193.13 C 209.39 193.13 208.69 193.83 208.69 194.69 Z M 208.69 195.69 L 208.70 196.69 C 208.70 197.56 209.40 198.25 210.26 198.25 C 211.12 198.25 211.82 197.55 211.82 196.69 L 211.82 195.68 C 211.81 194.82 211.11 194.12 210.25 194.13 C 209.39 194.13 208.69 194.83 208.69 195.69 Z M 208.70 196.69 L 208.70 197.70 C 208.70 198.56 209.40 199.26 210.26 199.26 C 211.12 199.26 211.82 198.56 211.82 197.70 L 211.82 196.69 C 211.82 195.83 211.12 195.13 210.26 195.13 C 209.39 195.13 208.69 195.83 208.70 196.69 Z M 208.70 197.70 L 208.70 198.71 C 208.70 199.57 209.40 200.27 210.26 200.27 C 211.12 200.27 211.82 199.57 211.82 198.71 L 211.82 197.70 C 211.82 196.84 211.12 196.14 210.26 196.14 C 209.39 196.14 208.70 196.84 208.70 197.70 Z M 208.70 198.71 L 208.70 199.71 C 208.70 200.57 209.39 201.27 210.26 201.27 C 211.12 201.27 211.82 200.58 211.82 199.71 L 211.82 198.71 C 211.82 197.85 211.12 197.15 210.26 197.15 C 209.40 197.15 208.70 197.85 208.70 198.71 Z M 208.70 199.71 L 208.69 200.71 C 208.69 201.58 209.39 202.28 210.25 202.28 C 211.12 202.28 211.82 201.58 211.82 200.72 L 211.82 199.71 C 211.82 198.85 211.12 198.15 210.26 198.15 C 209.40 198.15 208.70 198.85 208.70 199.71 Z M 208.69 200.71 L 208.69 201.71 C 208.69 202.58 209.39 203.28 210.25 203.28 C 211.11 203.28 211.81 202.59 211.81 201.72 L 211.82 200.72 C 211.82 199.86 211.12 199.16 210.26 199.15 C 209.40 199.15 208.70 199.85 208.69 200.71 Z M 208.69 201.71 L 208.69 202.71 C 208.68 203.57 209.38 204.28 210.24 204.28 C 211.10 204.29 211.80 203.59 211.81 202.73 L 211.81 201.73 C 211.82 200.87 211.12 200.16 210.26 200.16 C 209.40 200.15 208.70 200.85 208.69 201.71 Z M 208.69 202.71 L 208.68 203.71 C 208.67 204.57 209.36 205.27 210.22 205.28 C 211.08 205.29 211.79 204.60 211.80 203.74 L 211.81 202.74 C 211.82 201.87 211.12 201.17 210.26 201.16 C 209.40 201.15 208.69 201.84 208.69 202.71 Z M 208.68 203.70 L 208.66 204.69 C 208.65 205.56 209.34 206.26 210.20 206.28 C 211.06 206.29 211.77 205.60 211.78 204.74 L 211.80 203.74 C 211.81 202.88 211.12 202.17 210.26 202.16 C 209.40 202.15 208.69 202.84 208.68 203.70 Z M 208.66 204.68 L 208.64 205.69 C 208.62 206.56 209.31 207.27 210.17 207.29 C 211.03 207.30 211.75 206.62 211.76 205.76 L 211.78 204.75 C 211.80 203.89 211.12 203.17 210.25 203.16 C 209.39 203.14 208.68 203.82 208.66 204.68 Z M 208.64 205.68 L 208.61 206.71 C 208.59 207.57 209.27 208.29 210.13 208.31 C 211.00 208.34 211.71 207.66 211.74 206.79 L 211.76 205.77 C 211.79 204.91 211.11 204.19 210.24 204.17 C 209.38 204.14 208.66 204.82 208.64 205.68 Z M 208.62 206.70 L 208.58 207.72 C 208.55 208.58 209.23 209.30 210.09 209.33 C 210.95 209.36 211.68 208.68 211.70 207.82 L 211.74 206.80 C 211.76 205.94 211.09 205.22 210.23 205.19 C 209.36 205.16 208.64 205.84 208.62 206.70 Z M 208.58 207.71 L 208.54 208.72 C 208.51 209.58 209.18 210.30 210.04 210.34 C 210.91 210.37 211.63 209.70 211.66 208.84 L 211.70 207.83 C 211.74 206.97 211.06 206.24 210.20 206.21 C 209.34 206.18 208.62 206.85 208.58 207.71 Z M 208.54 208.71 L 208.50 209.70 C 208.46 210.56 209.13 211.29 209.99 211.33 C 210.85 211.36 211.58 210.70 211.62 209.83 L 211.66 208.84 C 211.70 207.98 211.03 207.25 210.17 207.22 C 209.31 207.18 208.58 207.85 208.54 208.71 Z M 208.50 209.69 L 208.45 210.66 C 208.41 211.53 209.07 212.26 209.94 212.30 C 210.80 212.34 211.53 211.68 211.57 210.82 L 211.62 209.84 C 211.66 208.98 211.00 208.25 210.14 208.21 C 209.28 208.16 208.54 208.83 208.50 209.69 Z M 208.45 210.66 L 208.40 211.62 C 208.35 212.48 209.02 213.21 209.88 213.26 C 210.74 213.31 211.47 212.65 211.52 211.78 L 211.57 210.83 C 211.62 209.96 210.96 209.23 210.10 209.18 C 209.24 209.13 208.50 209.80 208.45 210.66 Z M 208.40 211.61 L 208.34 212.57 C 208.29 213.43 208.95 214.17 209.82 214.22 C 210.68 214.27 211.42 213.61 211.47 212.75 L 211.52 211.79 C 211.57 210.93 210.91 210.19 210.05 210.14 C 209.19 210.09 208.45 210.75 208.40 211.61 Z M 208.34 212.56 L 208.28 213.52 C 208.23 214.38 208.89 215.13 209.76 215.18 C 210.62 215.23 211.36 214.57 211.41 213.70 L 211.47 212.75 C 211.52 211.88 210.86 211.14 210.00 211.09 C 209.13 211.04 208.39 211.70 208.34 212.56 Z M 208.28 213.52 L 208.23 214.49 C 208.18 215.35 208.84 216.10 209.71 216.15 C 210.57 216.19 211.31 215.53 211.36 214.67 L 211.42 213.70 C 211.47 212.83 210.81 212.09 209.94 212.04 C 209.07 211.99 208.33 212.65 208.28 213.52 Z M 208.22 214.49 L 208.17 215.49 C 208.13 216.36 208.79 217.10 209.66 217.14 C 210.53 217.19 211.27 216.52 211.32 215.65 L 211.37 214.66 C 211.41 213.79 210.74 213.05 209.88 213.00 C 209.01 212.96 208.27 213.63 208.22 214.49 Z M 208.17 215.50 L 208.12 216.53 C 208.08 217.41 208.76 218.14 209.63 218.18 C 210.50 218.22 211.24 217.54 211.28 216.67 L 211.32 215.64 C 211.36 214.77 210.68 214.03 209.81 213.99 C 208.94 213.95 208.20 214.63 208.17 215.50 Z M 208.12 216.55 L 208.08 217.64 C 208.05 218.52 208.73 219.25 209.61 219.28 C 210.48 219.31 211.21 218.62 211.24 217.75 L 211.28 216.66 C 211.31 215.78 210.63 215.05 209.75 215.02 C 208.88 214.99 208.15 215.68 208.12 216.55 Z M 208.08 217.66 L 208.05 218.56 C 208.03 219.44 208.72 220.17 209.60 220.19 C 210.47 220.21 211.20 219.52 211.22 218.64 L 211.25 217.74 C 211.27 216.86 210.58 216.13 209.70 216.11 C 208.82 216.09 208.10 216.78 208.08 217.66 Z M 208.05 218.57 L 208.04 219.52 C 208.02 220.39 208.72 221.12 209.59 221.13 C 210.47 221.15 211.19 220.45 211.21 219.57 L 211.23 218.63 C 211.24 217.75 210.54 217.03 209.67 217.02 C 208.79 217.00 208.07 217.70 208.05 218.57 Z M 208.03 219.53 L 208.02 220.50 C 208.01 221.38 208.71 222.10 209.59 222.11 C 210.47 222.12 211.19 221.42 211.20 220.54 L 211.21 219.56 C 211.22 218.69 210.52 217.97 209.64 217.96 C 208.76 217.95 208.04 218.65 208.03 219.53 Z M 208.02 220.51 L 208.01 221.51 C 208.01 222.39 208.71 223.11 209.59 223.11 C 210.47 223.12 211.19 222.42 211.19 221.54 L 211.20 220.53 C 211.21 219.66 210.50 218.94 209.62 218.93 C 208.74 218.92 208.03 219.63 208.02 220.51 Z M 208.01 221.52 L 208.01 222.54 C 208.00 223.42 208.71 224.14 209.59 224.14 C 210.47 224.15 211.19 223.44 211.19 222.56 L 211.19 221.53 C 211.20 220.65 210.49 219.94 209.61 219.93 C 208.73 219.93 208.01 220.64 208.01 221.52 Z M 208.00 222.55 L 208.00 223.59 C 208.00 224.47 208.71 225.18 209.59 225.19 C 210.47 225.19 211.19 224.48 211.19 223.60 L 211.19 222.55 C 211.19 221.67 210.48 220.96 209.60 220.96 C 208.72 220.95 208.01 221.67 208.00 222.55 Z M 208.00 223.59 L 208.00 224.64 C 208.00 225.52 208.71 226.24 209.59 226.24 C 210.47 226.24 211.19 225.53 211.19 224.65 L 211.19 223.59 C 211.19 222.71 210.48 222.00 209.60 222.00 C 208.72 222.00 208.00 222.71 208.00 223.59 Z M 208.00 224.64 L 208.00 225.60 C 208.00 226.49 208.71 227.20 209.59 227.20 C 210.48 227.20 211.19 226.49 211.19 225.60 L 211.19 224.65 C 211.19 223.76 210.48 223.05 209.59 223.05 C 208.71 223.05 208.00 223.76 208.00 224.64 Z"
      fill="black"
      fill-rule="nonzero" /><path d="M 201.49 92.73 L 200.54 93.19 C 199.76 93.57 199.44 94.50 199.81 95.28 C 200.19 96.05 201.12 96.38 201.90 96.00 L 202.85 95.54 C 203.63 95.16 203.95 94.23 203.57 93.45 C 203.20 92.68 202.26 92.35 201.49 92.73 Z M 200.34 93.31 L 199.52 93.86 C 198.81 94.35 198.62 95.32 199.11 96.03 C 199.59 96.74 200.56 96.93 201.28 96.44 L 202.10 95.89 C 202.81 95.40 202.99 94.43 202.51 93.72 C 202.02 93.01 201.05 92.82 200.34 93.31 Z M 199.15 94.22 L 198.59 94.96 C 198.08 95.66 198.22 96.63 198.92 97.15 C 199.61 97.66 200.59 97.52 201.10 96.83 L 201.65 96.08 C 202.17 95.39 202.02 94.41 201.33 93.90 C 200.64 93.38 199.66 93.53 199.15 94.22 Z M 198.32 95.57 L 198.15 96.38 C 197.97 97.22 198.51 98.05 199.36 98.23 C 200.20 98.40 201.03 97.87 201.21 97.02 L 201.37 96.22 C 201.55 95.37 201.01 94.55 200.17 94.37 C 199.33 94.19 198.50 94.73 198.32 95.57 Z M 198.12 96.83 L 198.19 97.71 C 198.26 98.57 199.02 99.21 199.88 99.14 C 200.74 99.07 201.38 98.31 201.31 97.45 L 201.23 96.57 C 201.16 95.71 200.41 95.07 199.55 95.14 C 198.69 95.21 198.05 95.97 198.12 96.83 Z M 198.24 97.98 L 198.50 98.96 C 198.72 99.79 199.57 100.29 200.41 100.07 C 201.24 99.85 201.74 99.00 201.52 98.16 L 201.26 97.18 C 201.04 96.35 200.18 95.85 199.35 96.07 C 198.52 96.29 198.02 97.15 198.24 97.98 Z M 198.56 99.14 L 198.98 100.18 C 199.30 100.98 200.21 101.37 201.01 101.05 C 201.81 100.73 202.20 99.82 201.88 99.02 L 201.46 97.98 C 201.14 97.18 200.23 96.79 199.43 97.11 C 198.63 97.43 198.24 98.34 198.56 99.14 Z M 199.04 100.31 L 199.55 101.32 C 199.94 102.09 200.88 102.40 201.65 102.00 C 202.42 101.61 202.72 100.67 202.33 99.90 L 201.82 98.89 C 201.42 98.12 200.48 97.82 199.72 98.21 C 198.95 98.60 198.64 99.55 199.04 100.31 Z M 199.60 101.41 L 200.13 102.29 C 200.57 103.03 201.53 103.27 202.27 102.83 C 203.01 102.39 203.25 101.43 202.81 100.69 L 202.28 99.81 C 201.84 99.07 200.88 98.83 200.14 99.27 C 199.40 99.71 199.16 100.67 199.60 101.41 Z M 200.16 102.35 L 200.73 103.21 C 201.21 103.93 202.18 104.13 202.90 103.65 C 203.62 103.18 203.81 102.21 203.34 101.49 L 202.77 100.63 C 202.29 99.91 201.32 99.71 200.61 100.19 C 199.89 100.66 199.69 101.63 200.16 102.35 Z M 200.76 103.25 L 201.35 104.08 C 201.85 104.79 202.82 104.96 203.52 104.46 C 204.23 103.96 204.40 102.99 203.90 102.28 L 203.31 101.45 C 202.81 100.74 201.84 100.58 201.13 101.08 C 200.43 101.57 200.26 102.55 200.76 103.25 Z M 201.37 104.11 L 201.95 104.90 C 202.46 105.60 203.44 105.75 204.13 105.24 C 204.83 104.73 204.98 103.75 204.47 103.06 L 203.88 102.26 C 203.37 101.56 202.39 101.41 201.70 101.93 C 201.00 102.44 200.86 103.41 201.37 104.11 Z M 201.96 104.91 L 202.52 105.66 C 203.03 106.35 204.01 106.50 204.70 105.98 C 205.39 105.47 205.53 104.49 205.02 103.80 L 204.46 103.05 C 203.95 102.36 202.97 102.21 202.28 102.73 C 201.59 103.24 201.44 104.22 201.96 104.91 Z M 202.51 105.65 L 203.18 106.56 C 203.69 107.26 204.66 107.41 205.36 106.90 C 206.05 106.39 206.20 105.41 205.69 104.72 L 205.03 103.81 C 204.52 103.11 203.54 102.96 202.84 103.47 C 202.15 103.98 202.00 104.96 202.51 105.65 Z M 203.17 106.55 L 203.77 107.39 C 204.27 108.09 205.25 108.25 205.95 107.74 C 206.65 107.24 206.81 106.26 206.30 105.56 L 205.70 104.73 C 205.20 104.03 204.22 103.87 203.52 104.37 C 202.82 104.88 202.66 105.85 203.17 106.55 Z M 203.76 107.38 L 204.32 108.15 C 204.82 108.86 205.79 109.02 206.49 108.52 C 207.19 108.02 207.36 107.04 206.86 106.34 L 206.31 105.57 C 205.81 104.87 204.83 104.70 204.13 105.20 C 203.43 105.70 203.26 106.68 203.76 107.38 Z M 204.32 108.16 L 204.84 108.88 C 205.34 109.59 206.32 109.75 207.02 109.25 C 207.72 108.74 207.88 107.77 207.38 107.07 L 206.86 106.34 C 206.35 105.64 205.38 105.48 204.68 105.98 C 203.98 106.48 203.82 107.45 204.32 108.16 Z M 204.85 108.89 L 205.44 109.71 C 205.94 110.40 206.92 110.56 207.62 110.05 C 208.31 109.54 208.47 108.57 207.96 107.87 L 207.37 107.06 C 206.86 106.36 205.89 106.21 205.19 106.71 C 204.49 107.22 204.34 108.20 204.85 108.89 Z M 205.44 109.72 L 206.04 110.51 C 206.55 111.21 207.53 111.35 208.22 110.84 C 208.91 110.32 209.06 109.35 208.54 108.65 L 207.95 107.86 C 207.44 107.16 206.46 107.02 205.77 107.53 C 205.08 108.05 204.93 109.02 205.44 109.72 Z M 206.04 110.52 L 206.64 111.32 C 207.16 112.01 208.14 112.15 208.83 111.63 C 209.52 111.11 209.65 110.13 209.14 109.44 L 208.54 108.64 C 208.02 107.96 207.04 107.82 206.35 108.34 C 205.66 108.86 205.52 109.83 206.04 110.52 Z M 206.65 111.33 L 207.24 112.11 C 207.77 112.80 208.75 112.93 209.43 112.41 C 210.12 111.88 210.25 110.90 209.73 110.22 L 209.13 109.43 C 208.61 108.75 207.63 108.62 206.94 109.14 C 206.26 109.66 206.12 110.64 206.65 111.33 Z M 207.25 112.12 L 207.85 112.90 C 208.38 113.58 209.36 113.71 210.04 113.18 C 210.72 112.65 210.85 111.67 210.32 110.99 L 209.72 110.21 C 209.20 109.53 208.22 109.40 207.53 109.93 C 206.85 110.45 206.72 111.43 207.25 112.12 Z M 207.86 112.91 L 208.48 113.70 C 209.01 114.38 209.99 114.50 210.67 113.96 C 211.35 113.43 211.47 112.45 210.94 111.77 L 210.32 110.98 C 209.78 110.30 208.80 110.18 208.12 110.72 C 207.45 111.25 207.33 112.23 207.86 112.91 Z M 208.49 113.71 L 209.13 114.51 C 209.67 115.18 210.66 115.29 211.33 114.75 C 212.00 114.21 212.11 113.23 211.57 112.56 L 210.93 111.76 C 210.39 111.09 209.40 110.98 208.73 111.52 C 208.06 112.06 207.95 113.04 208.49 113.71 Z M 209.15 114.53 L 209.78 115.29 C 210.33 115.96 211.31 116.05 211.98 115.50 C 212.64 114.95 212.73 113.96 212.18 113.30 L 211.55 112.54 C 211.00 111.87 210.02 111.78 209.35 112.33 C 208.69 112.88 208.60 113.86 209.15 114.53 Z M 209.79 115.31 L 210.44 116.07 C 211.00 116.72 211.99 116.80 212.64 116.24 C 213.30 115.68 213.37 114.69 212.81 114.04 L 212.17 113.28 C 211.61 112.63 210.62 112.55 209.97 113.11 C 209.31 113.67 209.23 114.66 209.79 115.31 Z M 210.46 116.09 L 211.13 116.84 C 211.70 117.48 212.69 117.54 213.33 116.97 C 213.98 116.39 214.03 115.41 213.46 114.76 L 212.79 114.01 C 212.22 113.37 211.23 113.31 210.59 113.88 C 209.94 114.46 209.89 115.44 210.46 116.09 Z M 211.15 116.86 L 211.84 117.61 C 212.43 118.24 213.42 118.27 214.05 117.69 C 214.68 117.10 214.72 116.11 214.13 115.48 L 213.44 114.74 C 212.85 114.11 211.86 114.07 211.23 114.66 C 210.60 115.25 210.56 116.23 211.15 116.86 Z M 211.87 117.63 L 212.56 118.34 C 213.16 118.96 214.15 118.97 214.77 118.37 C 215.39 117.77 215.40 116.78 214.80 116.16 L 214.10 115.45 C 213.50 114.84 212.51 114.82 211.90 115.43 C 211.28 116.03 211.27 117.02 211.87 117.63 Z M 212.58 118.36 L 213.29 119.07 C 213.90 119.67 214.89 119.67 215.50 119.05 C 216.10 118.44 216.10 117.45 215.49 116.85 L 214.78 116.14 C 214.16 115.54 213.18 115.54 212.57 116.15 C 211.96 116.77 211.97 117.76 212.58 118.36 Z M 213.30 119.08 L 214.02 119.78 C 214.64 120.38 215.63 120.36 216.23 119.74 C 216.83 119.12 216.81 118.13 216.19 117.53 L 215.47 116.83 C 214.85 116.23 213.86 116.25 213.27 116.87 C 212.67 117.49 212.68 118.48 213.30 119.08 Z M 214.03 119.78 L 214.75 120.47 C 215.37 121.07 216.36 121.04 216.96 120.42 C 217.55 119.80 217.53 118.81 216.91 118.21 L 216.19 117.53 C 215.57 116.93 214.58 116.95 213.98 117.58 C 213.39 118.20 213.41 119.19 214.03 119.78 Z"
      fill="black"
      fill-rule="nonzero" /></svg>