<svg xmlns="http://www.w3.org/2000/svg" width="300" height="300" viewBox="0 0 300 300">
<path d="M 114.21 123.12 L 113.06 123.68 C 112.29 124.06 111.97 125.00 112.35 125.77 C 112.74 126.55 113.67 126.86 114.45 126.48 L 115.60 125.91 C 116.37 125.53 116.69 124.60 116.30 123.82 C 115.92 123.05 114.99 122.73 114.21 123.12 Z M 113.11 123.66 L 112.03 124.15 C 111.25 124.50 110.90 125.43 111.25 126.21 C 111.61 127.00 112.53 127.35 113.32 126.99 L 114.40 126.50 C 115.18 126.15 115.53 125.22 115.18 124.44 C 114.82 123.65 113.90 123.30 113.11 123.66 Z M 112.16 124.10 L 111.22 124.43 C 110.40 124.71 109.98 125.60 110.26 126.42 C 110.55 127.23 111.44 127.66 112.25 127.37 L 113.19 127.04 C 114.01 126.76 114.43 125.87 114.15 125.05 C 113.86 124.24 112.97 123.81 112.16 124.10 Z M 111.54 124.35 L 110.81 124.44 C 109.95 124.55 109.35 125.33 109.45 126.19 C 109.56 127.04 110.34 127.65 111.20 127.54 L 111.93 127.45 C 112.78 127.34 113.39 126.56 113.28 125.71 C 113.18 124.85 112.40 124.24 111.54 124.35 Z M 111.76 124.63 L 111.27 124.35 C 110.51 123.94 109.56 124.21 109.15 124.96 C 108.73 125.72 109.00 126.67 109.75 127.08 L 110.24 127.36 C 111.00 127.78 111.95 127.50 112.37 126.75 C 112.79 126.00 112.51 125.05 111.76 124.63 Z M 112.05 125.43 L 111.90 124.66 C 111.75 123.82 110.93 123.26 110.08 123.41 C 109.23 123.57 108.67 124.38 108.83 125.23 L 108.98 126.00 C 109.13 126.85 109.95 127.41 110.79 127.25 C 111.64 127.10 112.20 126.28 112.05 125.43 Z M 111.91 125.19 L 112.08 124.13 C 112.21 123.28 111.63 122.48 110.78 122.34 C 109.92 122.21 109.13 122.79 108.99 123.64 L 108.82 124.71 C 108.69 125.56 109.27 126.36 110.13 126.49 C 110.98 126.62 111.78 126.04 111.91 125.19 Z M 112.03 124.32 L 112.36 123.18 C 112.60 122.35 112.12 121.49 111.29 121.25 C 110.46 121.01 109.60 121.49 109.36 122.32 L 109.03 123.46 C 108.80 124.28 109.28 125.15 110.10 125.39 C 110.93 125.62 111.80 125.14 112.03 124.32 Z M 112.34 123.26 L 112.70 122.19 C 112.98 121.37 112.55 120.48 111.73 120.20 C 110.92 119.92 110.03 120.36 109.75 121.17 L 109.38 122.24 C 109.10 123.06 109.54 123.95 110.35 124.23 C 111.17 124.51 112.06 124.07 112.34 123.26 Z M 112.68 122.25 L 113.05 121.31 C 113.36 120.50 112.96 119.60 112.16 119.29 C 111.35 118.98 110.45 119.37 110.13 120.18 L 109.77 121.12 C 109.46 121.92 109.86 122.82 110.66 123.14 C 111.47 123.45 112.37 123.05 112.68 122.25 Z M 113.03 121.36 L 113.39 120.50 C 113.73 119.71 113.36 118.79 112.57 118.45 C 111.78 118.11 110.86 118.48 110.52 119.27 L 110.15 120.13 C 109.82 120.92 110.18 121.84 110.98 122.18 C 111.77 122.52 112.69 122.15 113.03 121.36 Z M 113.38 120.53 L 113.76 119.68 C 114.12 118.89 113.77 117.97 112.98 117.61 C 112.20 117.26 111.27 117.61 110.92 118.39 L 110.53 119.25 C 110.18 120.03 110.53 120.96 111.31 121.31 C 112.10 121.67 113.02 121.32 113.38 120.53 Z M 113.75 119.70 L 114.17 118.81 C 114.53 118.03 114.20 117.10 113.41 116.74 C 112.63 116.37 111.70 116.71 111.34 117.49 L 110.93 118.38 C 110.56 119.16 110.90 120.09 111.68 120.45 C 112.46 120.82 113.39 120.48 113.75 119.70 Z M 114.16 118.83 L 114.60 117.92 C 114.97 117.15 114.65 116.21 113.87 115.84 C 113.09 115.46 112.16 115.79 111.79 116.57 L 111.35 117.47 C 110.97 118.25 111.30 119.18 112.07 119.56 C 112.85 119.93 113.78 119.61 114.16 118.83 Z M 114.59 117.94 L 115.04 117.03 C 115.42 116.26 115.11 115.32 114.34 114.94 C 113.57 114.56 112.63 114.87 112.24 115.64 L 111.79 116.55 C 111.41 117.32 111.73 118.26 112.50 118.64 C 113.27 119.03 114.21 118.71 114.59 117.94 Z M 115.03 117.05 L 115.47 116.19 C 115.86 115.43 115.56 114.48 114.79 114.09 C 114.02 113.70 113.08 114.01 112.69 114.77 L 112.25 115.63 C 111.86 116.40 112.17 117.34 112.93 117.73 C 113.70 118.12 114.64 117.82 115.03 117.05 Z M 115.46 116.21 L 115.93 115.32 C 116.33 114.56 116.03 113.62 115.27 113.21 C 114.51 112.81 113.56 113.11 113.16 113.87 L 112.70 114.76 C 112.30 115.52 112.59 116.47 113.35 116.87 C 114.12 117.27 115.06 116.97 115.46 116.21 Z M 115.92 115.34 L 116.41 114.43 C 116.82 113.67 116.54 112.72 115.78 112.31 C 115.02 111.90 114.08 112.18 113.66 112.94 L 113.17 113.85 C 112.76 114.61 113.04 115.56 113.80 115.97 C 114.56 116.38 115.51 116.10 115.92 115.34 Z M 116.40 114.45 L 116.89 113.58 C 117.31 112.83 117.04 111.87 116.28 111.45 C 115.53 111.03 114.58 111.30 114.16 112.05 L 113.68 112.92 C 113.25 113.67 113.52 114.63 114.28 115.05 C 115.03 115.47 115.98 115.20 116.40 114.45 Z M 116.88 113.60 L 117.36 112.75 C 117.79 112.01 117.53 111.05 116.79 110.62 C 116.04 110.19 115.09 110.45 114.65 111.19 L 114.17 112.04 C 113.74 112.78 114.00 113.74 114.74 114.17 C 115.49 114.60 116.45 114.34 116.88 113.60 Z M 117.35 112.77 L 117.86 111.91 C 118.30 111.16 118.05 110.21 117.31 109.77 C 116.57 109.33 115.61 109.58 115.17 110.32 L 114.66 111.18 C 114.23 111.92 114.47 112.88 115.21 113.32 C 115.96 113.76 116.91 113.51 117.35 112.77 Z M 117.85 111.92 L 118.38 111.04 C 118.83 110.30 118.59 109.34 117.85 108.89 C 117.11 108.45 116.15 108.69 115.71 109.43 L 115.18 110.31 C 114.73 111.05 114.97 112.01 115.71 112.45 C 116.45 112.89 117.41 112.66 117.85 111.92 Z M 118.38 111.05 L 118.90 110.19 C 119.35 109.46 119.12 108.49 118.39 108.04 C 117.65 107.59 116.69 107.82 116.24 108.56 L 115.72 109.42 C 115.26 110.15 115.50 111.11 116.23 111.56 C 116.97 112.01 117.93 111.78 118.38 111.05 Z M 118.90 110.20 L 119.41 109.38 C 119.86 108.65 119.64 107.69 118.91 107.23 C 118.17 106.78 117.21 107.00 116.76 107.73 L 116.25 108.55 C 115.79 109.28 116.01 110.24 116.75 110.70 C 117.48 111.16 118.44 110.93 118.90 110.20 Z M 119.40 109.39 L 119.93 108.56 C 120.39 107.83 120.17 106.86 119.44 106.40 C 118.71 105.94 117.75 106.16 117.29 106.89 L 116.76 107.72 C 116.30 108.45 116.52 109.42 117.25 109.88 C 117.97 110.34 118.94 110.12 119.40 109.39 Z M 119.92 108.57 L 120.47 107.71 C 120.94 106.99 120.73 106.02 120.00 105.56 C 119.28 105.09 118.31 105.30 117.85 106.02 L 117.30 106.88 C 116.83 107.60 117.04 108.57 117.76 109.04 C 118.49 109.50 119.45 109.29 119.92 108.57 Z M 120.46 107.73 L 121.03 106.86 C 121.51 106.13 121.31 105.17 120.59 104.69 C 119.87 104.22 118.90 104.42 118.42 105.14 L 117.85 106.01 C 117.38 106.73 117.58 107.70 118.30 108.17 C 119.02 108.65 119.99 108.45 120.46 107.73 Z M 121.03 106.87 L 121.57 106.05 C 122.05 105.33 121.86 104.36 121.14 103.89 C 120.43 103.41 119.46 103.60 118.98 104.32 L 118.43 105.13 C 117.95 105.85 118.14 106.82 118.86 107.30 C 119.58 107.78 120.55 107.58 121.03 106.87 Z M 121.57 106.06 L 122.11 105.26 C 122.59 104.55 122.41 103.58 121.70 103.09 C 120.98 102.61 120.01 102.79 119.53 103.50 L 118.98 104.31 C 118.50 105.02 118.68 105.99 119.40 106.47 C 120.11 106.96 121.08 106.77 121.57 106.06 Z M 122.10 105.27 L 122.67 104.46 C 123.16 103.75 122.98 102.78 122.27 102.29 C 121.56 101.79 120.59 101.97 120.10 102.68 L 119.54 103.50 C 119.04 104.20 119.22 105.18 119.93 105.67 C 120.64 106.16 121.61 105.98 122.10 105.27 Z M 122.66 104.47 L 123.24 103.64 C 123.74 102.93 123.57 101.96 122.86 101.46 C 122.16 100.97 121.18 101.14 120.69 101.84 L 120.10 102.67 C 119.61 103.38 119.78 104.35 120.48 104.85 C 121.19 105.34 122.16 105.17 122.66 104.47 Z M 123.24 103.65 L 123.84 102.81 C 124.34 102.10 124.17 101.13 123.47 100.63 C 122.77 100.13 121.79 100.29 121.29 100.99 L 120.69 101.83 C 120.19 102.54 120.36 103.51 121.06 104.01 C 121.76 104.51 122.73 104.35 123.24 103.65 Z M 123.83 102.81 L 124.43 101.98 C 124.93 101.29 124.78 100.31 124.08 99.80 C 123.38 99.30 122.40 99.46 121.90 100.15 L 121.30 100.98 C 120.79 101.68 120.95 102.66 121.65 103.16 C 122.35 103.67 123.32 103.51 123.83 102.81 Z M 124.42 101.99 L 125.01 101.20 C 125.52 100.50 125.37 99.52 124.67 99.01 C 123.97 98.50 123.00 98.66 122.49 99.35 L 121.90 100.15 C 121.40 100.84 121.55 101.82 122.24 102.33 C 122.94 102.84 123.91 102.69 124.42 101.99 Z M 125.00 101.20 L 125.60 100.40 C 126.11 99.71 125.97 98.73 125.27 98.22 C 124.58 97.70 123.60 97.85 123.09 98.54 L 122.49 99.34 C 121.98 100.04 122.12 101.01 122.82 101.53 C 123.51 102.04 124.49 101.90 125.00 101.20 Z M 125.59 100.41 L 126.20 99.60 C 126.71 98.91 126.57 97.94 125.88 97.42 C 125.20 96.90 124.22 97.04 123.70 97.73 L 123.09 98.53 C 122.58 99.22 122.72 100.20 123.40 100.72 C 124.09 101.24 125.07 101.10 125.59 100.41 Z M 126.19 99.61 L 126.80 98.81 C 127.32 98.12 127.19 97.14 126.50 96.62 C 125.82 96.10 124.84 96.23 124.32 96.92 L 123.70 97.72 C 123.18 98.41 123.32 99.39 124.00 99.91 C 124.69 100.43 125.67 100.30 126.19 99.61 Z M 126.79 98.82 L 127.41 98.02 C 127.94 97.34 127.81 96.36 127.13 95.83 C 126.44 95.30 125.46 95.43 124.94 96.11 L 124.32 96.91 C 123.80 97.59 123.92 98.57 124.60 99.10 C 125.29 99.63 126.27 99.50 126.79 98.82 Z M 127.40 98.03 L 128.02 97.23 C 128.56 96.56 128.44 95.57 127.76 95.04 C 127.08 94.51 126.10 94.63 125.57 95.31 L 124.94 96.10 C 124.41 96.78 124.53 97.76 125.21 98.30 C 125.89 98.83 126.87 98.71 127.40 98.03 Z M 128.02 97.24 L 128.65 96.45 C 129.18 95.78 129.07 94.79 128.39 94.26 C 127.72 93.72 126.74 93.84 126.20 94.51 L 125.57 95.30 C 125.04 95.98 125.15 96.96 125.82 97.49 C 126.50 98.03 127.48 97.92 128.02 97.24 Z M 128.64 96.46 L 129.27 95.68 C 129.81 95.01 129.70 94.02 129.03 93.48 C 128.36 92.94 127.37 93.05 126.83 93.72 L 126.21 94.50 C 125.67 95.18 125.77 96.16 126.45 96.70 C 127.12 97.24 128.10 97.13 128.64 96.46 Z M 129.26 95.68 L 129.89 94.91 C 130.43 94.24 130.33 93.25 129.66 92.71 C 128.99 92.17 128.01 92.27 127.46 92.94 L 126.84 93.72 C 126.29 94.39 126.40 95.37 127.07 95.91 C 127.74 96.46 128.72 96.35 129.26 95.68 Z M 129.89 94.91 L 130.52 94.14 C 131.06 93.47 130.96 92.49 130.29 91.95 C 129.62 91.40 128.64 91.50 128.09 92.17 L 127.47 92.94 C 126.92 93.61 127.02 94.59 127.69 95.14 C 128.36 95.68 129.34 95.58 129.89 94.91 Z M 130.51 94.14 L 131.14 93.38 C 131.69 92.71 131.59 91.72 130.92 91.18 C 130.25 90.63 129.27 90.73 128.72 91.40 L 128.10 92.17 C 127.55 92.84 127.65 93.82 128.32 94.36 C 128.98 94.91 129.97 94.81 130.51 94.14 Z M 131.14 93.38 L 131.78 92.60 C 132.32 91.93 132.22 90.95 131.56 90.40 C 130.89 89.86 129.90 89.96 129.36 90.62 L 128.72 91.40 C 128.18 92.07 128.28 93.05 128.94 93.60 C 129.61 94.14 130.59 94.04 131.14 93.38 Z M 131.77 92.60 L 132.41 91.83 C 132.96 91.16 132.86 90.18 132.19 89.63 C 131.53 89.08 130.54 89.18 130.00 89.85 L 129.36 90.62 C 128.81 91.29 128.91 92.27 129.58 92.82 C 130.24 93.37 131.23 93.27 131.77 92.60 Z M 132.41 91.83 L 133.04 91.06 C 133.59 90.39 133.50 89.41 132.83 88.86 C 132.17 88.31 131.18 88.41 130.64 89.07 L 130.00 89.84 C 129.45 90.51 129.54 91.49 130.21 92.04 C 130.87 92.59 131.86 92.50 132.41 91.83 Z M 133.04 91.06 L 133.68 90.30 C 134.23 89.63 134.14 88.65 133.48 88.10 C 132.82 87.54 131.83 87.63 131.28 88.30 L 130.64 89.07 C 130.09 89.73 130.18 90.71 130.84 91.26 C 131.50 91.82 132.49 91.73 133.04 91.06 Z M 133.67 90.30 L 134.32 89.54 C 134.87 88.88 134.79 87.90 134.13 87.34 C 133.47 86.78 132.48 86.87 131.93 87.53 L 131.29 88.29 C 130.73 88.95 130.81 89.93 131.47 90.49 C 132.13 91.05 133.12 90.96 133.67 90.30 Z M 134.31 89.55 L 134.96 88.79 C 135.52 88.13 135.44 87.15 134.79 86.59 C 134.13 86.03 133.15 86.10 132.59 86.76 L 131.94 87.52 C 131.38 88.17 131.45 89.16 132.11 89.72 C 132.76 90.28 133.75 90.20 134.31 89.55 Z M 134.95 88.80 L 135.61 88.03 C 136.18 87.38 136.11 86.40 135.46 85.83 C 134.81 85.27 133.82 85.34 133.26 85.99 L 132.59 86.75 C 132.03 87.40 132.10 88.39 132.75 88.95 C 133.40 89.52 134.38 89.45 134.95 88.80 Z M 135.61 88.04 L 136.27 87.29 C 136.84 86.64 136.78 85.66 136.14 85.09 C 135.49 84.51 134.50 84.58 133.93 85.22 L 133.27 85.98 C 132.69 86.62 132.76 87.61 133.40 88.18 C 134.05 88.75 135.04 88.69 135.61 88.04 Z M 136.27 87.30 L 136.93 86.55 C 137.51 85.91 137.45 84.92 136.81 84.35 C 136.17 83.77 135.18 83.83 134.61 84.47 L 133.94 85.21 C 133.36 85.86 133.42 86.84 134.06 87.42 C 134.70 87.99 135.69 87.94 136.27 87.30 Z M 136.93 86.56 L 137.60 85.82 C 138.17 85.18 138.12 84.19 137.48 83.61 C 136.84 83.03 135.86 83.08 135.28 83.72 L 134.61 84.46 C 134.03 85.10 134.08 86.09 134.72 86.67 C 135.36 87.25 136.35 87.20 136.93 86.56 Z M 137.59 85.82 L 138.26 85.09 C 138.84 84.46 138.79 83.47 138.15 82.89 C 137.52 82.31 136.53 82.35 135.95 82.99 L 135.28 83.72 C 134.70 84.36 134.75 85.34 135.39 85.92 C 136.02 86.51 137.01 86.46 137.59 85.82 Z M 138.25 85.10 L 138.94 84.35 C 139.52 83.71 139.48 82.73 138.85 82.14 C 138.21 81.56 137.22 81.60 136.64 82.24 L 135.95 82.99 C 135.37 83.62 135.41 84.61 136.05 85.19 C 136.68 85.78 137.67 85.73 138.25 85.10 Z M 138.94 84.35 L 139.63 83.60 C 140.22 82.97 140.18 81.98 139.54 81.39 C 138.91 80.81 137.92 80.85 137.34 81.48 L 136.64 82.23 C 136.06 82.87 136.10 83.85 136.73 84.44 C 137.36 85.02 138.35 84.99 138.94 84.35 Z M 139.63 83.61 L 140.31 82.87 C 140.90 82.24 140.87 81.25 140.23 80.66 C 139.60 80.07 138.62 80.11 138.03 80.74 L 137.34 81.48 C 136.75 82.11 136.79 83.10 137.42 83.68 C 138.05 84.27 139.04 84.24 139.63 83.61 Z M 140.31 82.87 L 140.99 82.15 C 141.58 81.52 141.55 80.53 140.92 79.94 C 140.29 79.35 139.30 79.38 138.71 80.01 L 138.03 80.73 C 137.44 81.36 137.47 82.35 138.10 82.94 C 138.73 83.53 139.72 83.50 140.31 82.87 Z M 140.98 82.16 L 141.65 81.45 C 142.25 80.83 142.22 79.84 141.60 79.24 C 140.97 78.65 139.98 78.67 139.39 79.30 L 138.72 80.01 C 138.12 80.63 138.15 81.62 138.77 82.21 C 139.40 82.81 140.39 82.78 140.98 82.16 Z M 141.65 81.46 L 142.34 80.74 C 142.94 80.12 142.92 79.13 142.30 78.53 C 141.68 77.93 140.69 77.95 140.09 78.57 L 139.40 79.29 C 138.80 79.91 138.82 80.90 139.44 81.50 C 140.06 82.10 141.05 82.08 141.65 81.46 Z M 142.33 80.75 L 143.05 80.02 C 143.65 79.40 143.64 78.41 143.02 77.81 C 142.41 77.20 141.42 77.22 140.82 77.83 L 140.10 78.56 C 139.50 79.18 139.51 80.17 140.12 80.77 C 140.74 81.37 141.73 81.36 142.33 80.75 Z M 143.03 80.03 L 143.74 79.32 C 144.35 78.71 144.35 77.72 143.74 77.11 C 143.14 76.50 142.15 76.50 141.54 77.11 L 140.83 77.82 C 140.22 78.43 140.22 79.42 140.83 80.03 C 141.44 80.64 142.42 80.64 143.03 80.03 Z M 143.73 79.33 L 144.44 78.64 C 145.05 78.04 145.07 77.05 144.47 76.44 C 143.86 75.82 142.88 75.81 142.26 76.41 L 141.55 77.10 C 140.93 77.70 140.92 78.69 141.52 79.30 C 142.12 79.92 143.11 79.93 143.73 79.33 Z M 144.42 78.66 L 145.13 77.99 C 145.75 77.40 145.78 76.41 145.19 75.78 C 144.60 75.16 143.61 75.13 142.98 75.72 L 142.27 76.39 C 141.65 76.98 141.62 77.97 142.21 78.60 C 142.81 79.22 143.79 79.25 144.42 78.66 Z M 145.11 78.01 L 145.83 77.35 C 146.46 76.77 146.51 75.79 145.93 75.15 C 145.35 74.51 144.36 74.47 143.72 75.05 L 143.00 75.70 C 142.37 76.28 142.32 77.27 142.90 77.91 C 143.48 78.54 144.47 78.59 145.11 78.01 Z M 145.79 77.39 L 146.53 76.76 C 147.19 76.20 147.27 75.21 146.71 74.56 C 146.15 73.90 145.16 73.82 144.51 74.38 L 143.76 75.01 C 143.11 75.57 143.03 76.56 143.59 77.21 C 144.14 77.87 145.13 77.95 145.79 77.39 Z M 146.46 76.81 L 147.25 76.22 C 147.93 75.70 148.07 74.72 147.54 74.03 C 147.02 73.34 146.04 73.21 145.36 73.73 L 144.57 74.33 C 143.89 74.85 143.75 75.83 144.27 76.51 C 144.80 77.20 145.78 77.33 146.46 76.81 Z M 147.15 76.28 L 148.00 75.73 C 148.72 75.26 148.93 74.30 148.46 73.57 C 147.99 72.85 147.02 72.65 146.30 73.12 L 145.45 73.66 C 144.73 74.13 144.52 75.10 144.99 75.82 C 145.46 76.55 146.43 76.75 147.15 76.28 Z M 147.88 75.80 L 148.81 75.31 C 149.57 74.90 149.86 73.96 149.45 73.20 C 149.05 72.44 148.10 72.15 147.34 72.55 L 146.41 73.05 C 145.65 73.45 145.36 74.40 145.77 75.16 C 146.17 75.92 147.12 76.21 147.88 75.80 Z M 148.68 75.37 L 149.64 74.96 C 150.44 74.63 150.81 73.72 150.48 72.92 C 150.14 72.13 149.23 71.75 148.43 72.09 L 147.47 72.49 C 146.67 72.83 146.30 73.74 146.63 74.54 C 146.97 75.33 147.88 75.70 148.68 75.37 Z M 149.51 75.01 L 150.52 74.69 C 151.34 74.43 151.80 73.56 151.54 72.73 C 151.28 71.91 150.40 71.46 149.58 71.72 L 148.57 72.04 C 147.75 72.30 147.29 73.17 147.55 74.00 C 147.81 74.82 148.69 75.27 149.51 75.01 Z M 150.37 74.73 L 151.37 74.53 C 152.22 74.35 152.76 73.52 152.59 72.68 C 152.41 71.84 151.59 71.29 150.74 71.47 L 149.73 71.68 C 148.89 71.85 148.35 72.68 148.52 73.52 C 148.70 74.37 149.52 74.91 150.37 74.73 Z M 151.18 74.55 L 152.14 74.48 C 153.00 74.42 153.64 73.67 153.58 72.81 C 153.51 71.95 152.76 71.30 151.90 71.37 L 150.94 71.44 C 150.08 71.51 149.44 72.25 149.50 73.11 C 149.57 73.97 150.32 74.62 151.18 74.55 Z M 151.85 74.48 L 152.75 74.57 C 153.60 74.66 154.37 74.04 154.46 73.18 C 154.55 72.33 153.93 71.56 153.07 71.47 L 152.18 71.37 C 151.33 71.28 150.56 71.90 150.47 72.76 C 150.38 73.62 151.00 74.39 151.85 74.48 Z M 152.32 74.47 L 153.28 74.85 C 154.08 75.18 154.99 74.79 155.31 73.99 C 155.64 73.19 155.25 72.28 154.45 71.96 L 153.50 71.57 C 152.70 71.25 151.79 71.63 151.46 72.43 C 151.14 73.23 151.52 74.14 152.32 74.47 Z M 152.89 74.62 L 153.65 75.24 C 154.33 75.78 155.31 75.67 155.85 75.00 C 156.39 74.32 156.28 73.34 155.61 72.80 L 154.84 72.19 C 154.17 71.65 153.19 71.76 152.65 72.43 C 152.11 73.10 152.22 74.08 152.89 74.62 Z M 153.43 75.02 L 154.05 75.77 C 154.60 76.43 155.59 76.52 156.25 75.97 C 156.92 75.42 157.01 74.44 156.46 73.77 L 155.83 73.02 C 155.28 72.36 154.30 72.27 153.63 72.82 C 152.97 73.37 152.88 74.35 153.43 75.02 Z M 153.95 75.63 L 154.49 76.45 C 154.97 77.18 155.94 77.37 156.66 76.90 C 157.38 76.43 157.58 75.46 157.10 74.74 L 156.56 73.91 C 156.08 73.19 155.12 72.99 154.40 73.47 C 153.68 73.94 153.48 74.91 153.95 75.63 Z M 154.44 76.37 L 154.95 77.25 C 155.38 77.99 156.33 78.25 157.08 77.82 C 157.82 77.39 158.08 76.44 157.65 75.69 L 157.15 74.82 C 156.72 74.07 155.77 73.81 155.02 74.24 C 154.27 74.67 154.02 75.63 154.44 76.37 Z M 154.90 77.17 L 155.35 78.05 C 155.74 78.82 156.67 79.13 157.44 78.74 C 158.21 78.36 158.53 77.42 158.14 76.65 L 157.69 75.77 C 157.31 75.00 156.37 74.69 155.60 75.07 C 154.83 75.46 154.52 76.40 154.90 77.17 Z M 155.32 77.98 L 155.72 78.89 C 156.07 79.68 156.99 80.04 157.78 79.69 C 158.57 79.34 158.92 78.41 158.57 77.63 L 158.17 76.72 C 157.82 75.93 156.90 75.57 156.11 75.92 C 155.32 76.27 154.97 77.19 155.32 77.98 Z M 155.70 78.84 L 156.05 79.73 C 156.37 80.53 157.28 80.92 158.08 80.60 C 158.88 80.28 159.27 79.37 158.95 78.57 L 158.60 77.68 C 158.28 76.88 157.37 76.49 156.57 76.81 C 155.77 77.13 155.38 78.04 155.70 78.84 Z M 156.04 79.69 L 156.38 80.61 C 156.68 81.42 157.58 81.83 158.39 81.53 C 159.20 81.23 159.61 80.33 159.31 79.52 L 158.96 78.60 C 158.66 77.79 157.76 77.38 156.96 77.68 C 156.15 77.98 155.74 78.88 156.04 79.69 Z M 156.38 80.59 L 156.72 81.56 C 157.01 82.37 157.90 82.79 158.72 82.50 C 159.53 82.21 159.95 81.31 159.66 80.50 L 159.31 79.54 C 159.02 78.73 158.13 78.31 157.32 78.60 C 156.51 78.89 156.08 79.78 156.38 80.59 Z M 156.72 81.55 L 157.06 82.52 C 157.35 83.33 158.25 83.76 159.06 83.47 C 159.87 83.18 160.29 82.29 160.00 81.47 L 159.66 80.50 C 159.37 79.69 158.48 79.27 157.67 79.56 C 156.85 79.85 156.43 80.74 156.72 81.55 Z M 157.07 82.53 L 157.40 83.44 C 157.69 84.25 158.58 84.67 159.39 84.38 C 160.20 84.09 160.62 83.19 160.33 82.38 L 160.00 81.47 C 159.71 80.66 158.82 80.24 158.00 80.53 C 157.19 80.82 156.77 81.72 157.07 82.53 Z M 157.40 83.45 L 157.74 84.38 C 158.04 85.19 158.93 85.61 159.74 85.31 C 160.55 85.02 160.97 84.12 160.67 83.31 L 160.33 82.37 C 160.03 81.56 159.14 81.15 158.33 81.44 C 157.52 81.74 157.10 82.64 157.40 83.45 Z M 157.74 84.39 L 158.10 85.34 C 158.39 86.15 159.29 86.56 160.10 86.26 C 160.91 85.96 161.32 85.07 161.02 84.26 L 160.67 83.30 C 160.37 82.50 159.47 82.08 158.66 82.38 C 157.86 82.68 157.44 83.58 157.74 84.39 Z M 158.10 85.35 L 158.46 86.31 C 158.76 87.12 159.66 87.53 160.47 87.22 C 161.28 86.92 161.68 86.02 161.38 85.21 L 161.02 84.25 C 160.72 83.44 159.82 83.04 159.01 83.34 C 158.20 83.64 157.79 84.54 158.10 85.35 Z M 158.46 86.32 L 158.81 87.24 C 159.12 88.05 160.02 88.45 160.83 88.14 C 161.63 87.84 162.04 86.94 161.73 86.13 L 161.38 85.21 C 161.07 84.40 160.17 84.00 159.36 84.30 C 158.56 84.61 158.15 85.51 158.46 86.32 Z M 158.82 87.25 L 159.18 88.18 C 159.49 88.98 160.39 89.38 161.19 89.07 C 162.00 88.76 162.40 87.85 162.09 87.05 L 161.73 86.12 C 161.42 85.32 160.51 84.92 159.71 85.23 C 158.90 85.54 158.50 86.45 158.82 87.25 Z M 159.18 88.19 L 159.55 89.12 C 159.87 89.92 160.78 90.32 161.58 90.00 C 162.38 89.68 162.77 88.77 162.45 87.97 L 162.08 87.04 C 161.76 86.24 160.86 85.85 160.06 86.16 C 159.25 86.48 158.86 87.39 159.18 88.19 Z M 159.56 89.14 L 159.94 90.07 C 160.26 90.87 161.17 91.25 161.97 90.93 C 162.77 90.60 163.15 89.69 162.83 88.89 L 162.45 87.96 C 162.12 87.16 161.21 86.78 160.41 87.10 C 159.61 87.43 159.23 88.34 159.56 89.14 Z M 159.94 90.09 L 160.33 91.01 C 160.67 91.80 161.58 92.18 162.38 91.84 C 163.17 91.51 163.54 90.59 163.21 89.80 L 162.82 88.88 C 162.49 88.08 161.57 87.71 160.78 88.04 C 159.98 88.38 159.61 89.29 159.94 90.09 Z M 160.34 91.02 L 160.74 91.94 C 161.08 92.73 162.00 93.09 162.79 92.75 C 163.58 92.41 163.94 91.49 163.60 90.70 L 163.20 89.78 C 162.86 88.99 161.94 88.63 161.15 88.97 C 160.36 89.31 160.00 90.23 160.34 91.02 Z M 160.74 91.95 L 161.15 92.87 C 161.50 93.65 162.42 94.01 163.21 93.66 C 163.99 93.31 164.35 92.39 164.00 91.60 L 163.60 90.69 C 163.25 89.90 162.32 89.54 161.54 89.89 C 160.75 90.24 160.39 91.16 160.74 91.95 Z M 161.15 92.87 L 161.56 93.79 C 161.91 94.57 162.84 94.93 163.62 94.57 C 164.41 94.22 164.76 93.30 164.41 92.51 L 164.00 91.59 C 163.65 90.81 162.72 90.46 161.93 90.81 C 161.15 91.16 160.80 92.09 161.15 92.87 Z M 161.56 93.79 L 161.97 94.70 C 162.33 95.49 163.25 95.84 164.04 95.48 C 164.82 95.13 165.17 94.20 164.82 93.42 L 164.41 92.51 C 164.05 91.72 163.13 91.37 162.34 91.73 C 161.56 92.08 161.21 93.00 161.56 93.79 Z M 161.97 94.70 L 162.38 95.60 C 162.73 96.38 163.66 96.73 164.44 96.38 C 165.23 96.02 165.58 95.10 165.22 94.31 L 164.82 93.42 C 164.46 92.63 163.54 92.28 162.75 92.64 C 161.97 92.99 161.62 93.92 161.97 94.70 Z M 162.38 95.60 L 162.79 96.50 C 163.14 97.29 164.07 97.64 164.85 97.28 C 165.64 96.92 165.99 96.00 165.63 95.21 L 165.22 94.31 C 164.87 93.53 163.94 93.18 163.16 93.53 C 162.37 93.89 162.02 94.81 162.38 95.60 Z M 162.79 96.50 L 163.20 97.42 C 163.56 98.20 164.49 98.55 165.27 98.19 C 166.06 97.83 166.40 96.91 166.04 96.12 L 165.63 95.21 C 165.27 94.43 164.35 94.08 163.56 94.44 C 162.78 94.79 162.43 95.72 162.79 96.50 Z M 163.20 97.42 L 163.63 98.34 C 163.99 99.13 164.91 99.47 165.70 99.11 C 166.48 98.75 166.83 97.83 166.47 97.04 L 166.04 96.12 C 165.68 95.34 164.76 94.99 163.97 95.35 C 163.19 95.71 162.85 96.64 163.20 97.42 Z M 163.63 98.35 L 164.06 99.27 C 164.42 100.05 165.34 100.39 166.13 100.03 C 166.91 99.67 167.25 98.74 166.89 97.96 L 166.46 97.04 C 166.10 96.26 165.18 95.91 164.39 96.28 C 163.61 96.64 163.27 97.57 163.63 98.35 Z M 164.06 99.27 L 164.49 100.19 C 164.85 100.98 165.78 101.31 166.56 100.95 C 167.34 100.59 167.68 99.66 167.32 98.87 L 166.89 97.96 C 166.52 97.17 165.59 96.84 164.81 97.20 C 164.03 97.56 163.69 98.49 164.06 99.27 Z M 164.49 100.20 L 164.92 101.12 C 165.29 101.90 166.22 102.23 167.00 101.86 C 167.78 101.50 168.11 100.57 167.75 99.79 L 167.31 98.87 C 166.95 98.09 166.02 97.75 165.24 98.12 C 164.46 98.49 164.12 99.42 164.49 100.20 Z M 164.93 101.13 L 165.36 102.03 C 165.73 102.81 166.66 103.13 167.44 102.76 C 168.22 102.39 168.55 101.46 168.17 100.68 L 167.74 99.78 C 167.37 99.00 166.44 98.67 165.66 99.04 C 164.88 99.42 164.55 100.35 164.93 101.13 Z M 165.36 102.04 L 165.79 102.91 C 166.16 103.69 167.10 104.01 167.87 103.63 C 168.65 103.26 168.97 102.32 168.60 101.55 L 168.17 100.67 C 167.79 99.90 166.86 99.57 166.08 99.95 C 165.31 100.33 164.98 101.26 165.36 102.04 Z M 165.79 102.92 L 166.26 103.86 C 166.64 104.64 167.58 104.95 168.35 104.57 C 169.12 104.19 169.44 103.25 169.06 102.48 L 168.59 101.54 C 168.21 100.76 167.27 100.45 166.50 100.83 C 165.73 101.21 165.41 102.15 165.79 102.92 Z M 166.26 103.88 L 166.73 104.79 C 167.11 105.56 168.05 105.87 168.82 105.48 C 169.59 105.09 169.90 104.15 169.51 103.38 L 169.05 102.47 C 168.66 101.70 167.72 101.39 166.95 101.78 C 166.18 102.17 165.88 103.11 166.26 103.88 Z M 166.73 104.80 L 167.18 105.67 C 167.57 106.44 168.51 106.74 169.28 106.35 C 170.05 105.95 170.35 105.01 169.96 104.25 L 169.51 103.37 C 169.11 102.60 168.17 102.30 167.41 102.69 C 166.64 103.09 166.34 104.03 166.73 104.80 Z M 167.18 105.68 L 167.62 106.52 C 168.02 107.29 168.96 107.59 169.72 107.19 C 170.49 106.80 170.79 105.85 170.39 105.09 L 169.95 104.24 C 169.56 103.47 168.62 103.17 167.85 103.57 C 167.08 103.97 166.78 104.91 167.18 105.68 Z M 167.62 106.52 L 168.08 107.41 C 168.48 108.18 169.42 108.47 170.19 108.08 C 170.95 107.68 171.25 106.74 170.85 105.97 L 170.39 105.09 C 169.99 104.32 169.05 104.02 168.29 104.42 C 167.52 104.82 167.22 105.76 167.62 106.52 Z M 168.08 107.41 L 168.54 108.30 C 168.94 109.07 169.88 109.37 170.65 108.97 C 171.41 108.57 171.71 107.63 171.31 106.86 L 170.85 105.97 C 170.45 105.21 169.51 104.91 168.75 105.31 C 167.98 105.70 167.68 106.65 168.08 107.41 Z M 168.54 108.30 L 169.00 109.18 C 169.40 109.95 170.34 110.25 171.11 109.85 C 171.87 109.45 172.17 108.51 171.77 107.74 L 171.31 106.86 C 170.92 106.10 169.97 105.80 169.21 106.20 C 168.44 106.60 168.15 107.54 168.54 108.30 Z M 169.00 109.18 L 169.46 110.06 C 169.86 110.83 170.80 111.12 171.56 110.73 C 172.33 110.33 172.63 109.39 172.23 108.62 L 171.77 107.74 C 171.38 106.98 170.43 106.68 169.67 107.08 C 168.90 107.48 168.60 108.42 169.00 109.18 Z M 169.46 110.06 L 169.93 110.96 C 170.32 111.73 171.27 112.02 172.03 111.62 C 172.80 111.23 173.09 110.28 172.70 109.52 L 172.23 108.62 C 171.83 107.86 170.89 107.56 170.12 107.96 C 169.36 108.35 169.06 109.30 169.46 110.06 Z M 169.93 110.97 L 170.40 111.86 C 170.80 112.62 171.74 112.92 172.51 112.52 C 173.27 112.11 173.56 111.17 173.16 110.41 L 172.69 109.51 C 172.29 108.75 171.35 108.46 170.59 108.86 C 169.82 109.26 169.53 110.20 169.93 110.97 Z M 170.40 111.87 L 170.87 112.75 C 171.28 113.51 172.22 113.79 172.98 113.39 C 173.74 112.98 174.03 112.04 173.63 111.27 L 173.16 110.40 C 172.75 109.64 171.80 109.35 171.04 109.76 C 170.28 110.16 170.00 111.11 170.40 111.87 Z M 170.88 112.76 L 171.36 113.63 C 171.77 114.39 172.72 114.67 173.48 114.25 C 174.23 113.84 174.51 112.89 174.10 112.13 L 173.62 111.26 C 173.20 110.50 172.25 110.23 171.50 110.64 C 170.74 111.06 170.46 112.01 170.88 112.76 Z M 171.37 113.65 L 171.87 114.54 C 172.30 115.29 173.25 115.56 174.00 115.13 C 174.75 114.71 175.01 113.76 174.59 113.00 L 174.09 112.11 C 173.66 111.36 172.71 111.10 171.96 111.52 C 171.21 111.95 170.94 112.90 171.37 113.65 Z M 171.88 114.55 L 172.37 115.41 C 172.80 116.16 173.75 116.42 174.50 115.99 C 175.25 115.57 175.51 114.61 175.08 113.86 L 174.59 113.00 C 174.16 112.25 173.20 111.99 172.46 112.42 C 171.71 112.85 171.45 113.80 171.88 114.55 Z M 172.37 115.41 L 172.85 116.26 C 173.27 117.01 174.23 117.27 174.98 116.84 C 175.73 116.42 175.99 115.46 175.56 114.71 L 175.08 113.87 C 174.66 113.12 173.71 112.86 172.96 113.28 C 172.21 113.71 171.94 114.66 172.37 115.41 Z M 172.84 116.24 L 173.32 117.12 C 173.74 117.87 174.69 118.15 175.45 117.73 C 176.20 117.31 176.47 116.36 176.06 115.61 L 175.57 114.73 C 175.16 113.98 174.21 113.70 173.45 114.12 C 172.70 114.53 172.42 115.48 172.84 116.24 Z M 173.32 117.11 L 173.80 117.99 C 174.21 118.74 175.16 119.02 175.91 118.61 C 176.67 118.20 176.95 117.25 176.54 116.49 L 176.06 115.62 C 175.65 114.86 174.70 114.58 173.94 114.99 C 173.19 115.40 172.91 116.35 173.32 117.11 Z M 173.80 117.99 L 174.28 118.86 C 174.70 119.62 175.65 119.89 176.40 119.48 C 177.16 119.06 177.43 118.11 177.02 117.35 L 176.53 116.48 C 176.12 115.73 175.17 115.46 174.41 115.87 C 173.66 116.29 173.38 117.24 173.80 117.99 Z M 174.30 118.89 L 174.77 119.71 C 175.20 120.46 176.15 120.72 176.90 120.29 C 177.65 119.86 177.91 118.90 177.48 118.16 L 177.00 117.33 C 176.57 116.58 175.62 116.33 174.87 116.76 C 174.12 117.19 173.87 118.14 174.30 118.89 Z M 174.78 119.74 L 175.27 120.55 C 175.72 121.29 176.67 121.53 177.41 121.09 C 178.15 120.65 178.39 119.69 177.95 118.95 L 177.46 118.13 C 177.02 117.39 176.06 117.15 175.32 117.59 C 174.58 118.04 174.34 119.00 174.78 119.74 Z M 175.28 120.57 L 175.81 121.43 C 176.27 122.17 177.23 122.40 177.96 121.94 C 178.70 121.49 178.93 120.53 178.47 119.80 L 177.94 118.93 C 177.49 118.20 176.53 117.97 175.79 118.42 C 175.06 118.87 174.83 119.83 175.28 120.57 Z M 175.82 121.44 L 176.39 122.36 C 176.85 123.09 177.81 123.31 178.55 122.86 C 179.28 122.40 179.50 121.44 179.04 120.71 L 178.47 119.79 C 178.01 119.06 177.05 118.83 176.32 119.29 C 175.58 119.75 175.36 120.71 175.82 121.44 Z M 176.40 122.37 L 176.96 123.25 C 177.43 123.98 178.39 124.19 179.12 123.73 C 179.85 123.27 180.06 122.30 179.60 121.57 L 179.03 120.69 C 178.57 119.97 177.61 119.75 176.88 120.22 C 176.15 120.68 175.94 121.65 176.40 122.37 Z M 176.99 123.29 L 177.58 124.16 C 178.07 124.87 179.04 125.06 179.75 124.57 C 180.46 124.09 180.65 123.12 180.16 122.40 L 179.57 121.53 C 179.08 120.82 178.11 120.64 177.40 121.12 C 176.69 121.61 176.50 122.58 176.99 123.29 Z M 177.63 124.24 L 178.24 125.02 C 178.77 125.71 179.75 125.83 180.43 125.31 C 181.11 124.78 181.24 123.80 180.71 123.12 L 180.11 122.33 C 179.58 121.65 178.60 121.52 177.92 122.05 C 177.24 122.57 177.11 123.55 177.63 124.24 Z M 178.36 125.16 L 179.02 125.84 C 179.62 126.45 180.61 126.47 181.22 125.87 C 181.84 125.27 181.86 124.28 181.26 123.66 L 180.60 122.98 C 180.00 122.36 179.01 122.35 178.39 122.95 C 177.77 123.55 177.76 124.54 178.36 125.16 Z M 179.29 126.06 L 180.19 126.64 C 180.92 127.10 181.88 126.89 182.35 126.17 C 182.81 125.44 182.60 124.48 181.88 124.01 L 180.98 123.43 C 180.25 122.97 179.29 123.18 178.82 123.90 C 178.36 124.63 178.57 125.60 179.29 126.06 Z M 180.53 126.80 L 181.41 127.10 C 182.23 127.38 183.11 126.94 183.39 126.12 C 183.67 125.30 183.23 124.42 182.41 124.14 L 181.53 123.85 C 180.72 123.57 179.83 124.01 179.56 124.82 C 179.28 125.64 179.72 126.53 180.53 126.80 Z M 181.54 127.14 L 181.91 127.23 C 182.75 127.43 183.59 126.91 183.79 126.08 C 183.99 125.24 183.48 124.39 182.64 124.19 L 182.28 124.10 C 181.44 123.90 180.60 124.42 180.39 125.25 C 180.19 126.09 180.70 126.94 181.54 127.14 Z"
      fill="black"
      fill-rule="nonzero" /><path d="M 151.40 81.44 L 150.29 81.33 C 149.43 81.24 148.66 81.86 148.58 82.72 C 148.49 83.58 149.11 84.34 149.97 84.43 L 151.08 84.54 C 151.94 84.63 152.71 84.01 152.79 83.15 C 152.88 82.29 152.26 81.53 151.40 81.44 Z M 150.09 81.32 L 149.09 81.34 C 148.23 81.36 147.55 82.08 147.57 82.94 C 147.59 83.80 148.30 84.48 149.16 84.46 L 150.17 84.44 C 151.03 84.42 151.71 83.70 151.69 82.84 C 151.67 81.98 150.95 81.30 150.09 81.32 Z M 148.57 81.44 L 147.80 81.74 C 146.99 82.04 146.59 82.94 146.89 83.75 C 147.20 84.56 148.10 84.96 148.90 84.66 L 149.68 84.36 C 150.49 84.06 150.89 83.16 150.59 82.35 C 150.28 81.54 149.38 81.14 148.57 81.44 Z M 147.12 82.24 L 146.67 82.81 C 146.14 83.50 146.26 84.48 146.95 85.01 C 147.63 85.54 148.61 85.41 149.14 84.73 L 149.59 84.16 C 150.12 83.47 149.99 82.49 149.31 81.96 C 148.63 81.43 147.64 81.56 147.12 82.24 Z M 146.40 83.33 L 146.14 84.22 C 145.89 85.06 146.37 85.93 147.20 86.17 C 148.04 86.41 148.91 85.94 149.15 85.11 L 149.41 84.21 C 149.65 83.38 149.18 82.51 148.35 82.27 C 147.51 82.02 146.64 82.50 146.40 83.33 Z M 146.08 84.49 L 145.94 85.71 C 145.84 86.57 146.47 87.35 147.33 87.45 C 148.20 87.54 148.98 86.92 149.07 86.06 L 149.21 84.84 C 149.31 83.98 148.68 83.20 147.82 83.10 C 146.95 83.00 146.18 83.62 146.08 84.49 Z M 145.93 85.80 L 145.88 86.82 C 145.83 87.69 146.50 88.44 147.37 88.48 C 148.25 88.52 148.99 87.85 149.03 86.98 L 149.09 85.96 C 149.13 85.09 148.46 84.35 147.59 84.30 C 146.72 84.26 145.97 84.93 145.93 85.80 Z M 145.87 86.85 L 145.84 87.80 C 145.82 88.67 146.50 89.41 147.38 89.43 C 148.25 89.46 148.99 88.77 149.01 87.89 L 149.04 86.95 C 149.07 86.07 148.38 85.34 147.50 85.32 C 146.63 85.29 145.90 85.98 145.87 86.85 Z M 145.84 87.82 L 145.82 88.83 C 145.80 89.71 146.50 90.43 147.38 90.44 C 148.26 90.46 148.98 89.76 149.00 88.88 L 149.02 87.87 C 149.03 87.00 148.33 86.27 147.45 86.26 C 146.58 86.24 145.85 86.94 145.84 87.82 Z M 145.82 88.84 L 145.81 89.88 C 145.80 90.77 146.51 91.49 147.39 91.49 C 148.27 91.50 148.99 90.79 148.99 89.91 L 149.00 88.87 C 149.01 87.99 148.30 87.27 147.42 87.26 C 146.54 87.25 145.82 87.96 145.82 88.84 Z M 145.80 89.89 L 145.80 90.95 C 145.79 91.83 146.51 92.55 147.39 92.55 C 148.27 92.55 148.99 91.84 148.99 90.96 L 149.00 89.90 C 149.00 89.02 148.29 88.30 147.41 88.30 C 146.52 88.30 145.80 89.01 145.80 89.89 Z M 145.79 90.95 L 145.79 91.99 C 145.79 92.88 146.51 93.59 147.39 93.59 C 148.28 93.59 149.00 92.88 149.00 91.99 L 149.00 90.95 C 149.00 90.07 148.28 89.35 147.40 89.35 C 146.51 89.35 145.79 90.07 145.79 90.95 Z M 145.79 91.99 L 145.79 93.04 C 145.79 93.93 146.51 94.65 147.40 94.65 C 148.28 94.65 149.00 93.93 149.00 93.04 L 149.00 91.99 C 149.00 91.10 148.28 90.38 147.40 90.38 C 146.51 90.38 145.79 91.10 145.79 91.99 Z M 145.79 93.04 L 145.79 94.06 C 145.79 94.95 146.51 95.67 147.40 95.67 C 148.28 95.67 149.00 94.95 149.00 94.06 L 149.00 93.04 C 149.00 92.15 148.28 91.43 147.40 91.43 C 146.51 91.43 145.79 92.15 145.79 93.04 Z M 145.78 94.06 L 145.78 95.05 C 145.78 95.94 146.51 96.66 147.40 96.66 C 148.29 96.66 149.01 95.94 149.01 95.05 L 149.01 94.06 C 149.01 93.17 148.29 92.45 147.40 92.45 C 146.51 92.45 145.78 93.17 145.78 94.06 Z M 145.78 95.05 L 145.78 96.03 C 145.78 96.92 146.50 97.64 147.40 97.64 C 148.29 97.64 149.01 96.92 149.01 96.03 L 149.01 95.05 C 149.01 94.16 148.29 93.44 147.40 93.44 C 146.50 93.44 145.78 94.16 145.78 95.05 Z M 145.78 96.03 L 145.78 97.00 C 145.78 97.90 146.50 98.62 147.40 98.62 C 148.29 98.62 149.01 97.90 149.01 97.00 L 149.01 96.03 C 149.01 95.14 148.29 94.41 147.40 94.41 C 146.50 94.41 145.78 95.14 145.78 96.03 Z M 145.78 97.00 L 145.78 97.97 C 145.78 98.87 146.50 99.59 147.40 99.59 C 148.29 99.59 149.01 98.87 149.01 97.97 L 149.01 97.00 C 149.01 96.11 148.29 95.39 147.40 95.39 C 146.50 95.39 145.78 96.11 145.78 97.00 Z M 145.78 97.97 L 145.78 98.91 C 145.78 99.80 146.50 100.53 147.40 100.53 C 148.29 100.53 149.01 99.80 149.01 98.91 L 149.01 97.97 C 149.01 97.08 148.29 96.35 147.40 96.35 C 146.50 96.35 145.78 97.08 145.78 97.97 Z M 145.78 98.91 L 145.78 99.87 C 145.78 100.77 146.50 101.49 147.40 101.49 C 148.29 101.49 149.02 100.77 149.02 99.87 L 149.02 98.91 C 149.02 98.02 148.29 97.29 147.40 97.29 C 146.50 97.29 145.78 98.02 145.78 98.91 Z M 145.78 99.87 L 145.78 100.86 C 145.78 101.76 146.50 102.48 147.40 102.48 C 148.29 102.48 149.02 101.76 149.02 100.86 L 149.02 99.87 C 149.02 98.98 148.29 98.25 147.40 98.25 C 146.50 98.25 145.78 98.98 145.78 99.87 Z M 145.78 100.86 L 145.78 101.88 C 145.78 102.78 146.50 103.50 147.40 103.50 C 148.29 103.50 149.02 102.78 149.02 101.88 L 149.02 100.86 C 149.02 99.97 148.29 99.24 147.40 99.24 C 146.50 99.24 145.78 99.97 145.78 100.86 Z M 145.78 101.88 L 145.78 102.94 C 145.78 103.83 146.50 104.56 147.40 104.56 C 148.29 104.56 149.02 103.83 149.02 102.94 L 149.02 101.88 C 149.02 100.99 148.29 100.26 147.40 100.26 C 146.50 100.26 145.78 100.99 145.78 101.88 Z M 145.78 102.94 L 145.78 103.96 C 145.78 104.86 146.50 105.58 147.40 105.58 C 148.29 105.58 149.02 104.86 149.02 103.96 L 149.02 102.94 C 149.02 102.04 148.29 101.32 147.40 101.32 C 146.50 101.32 145.78 102.04 145.78 102.94 Z M 145.78 103.96 L 145.78 104.89 C 145.78 105.78 146.50 106.51 147.40 106.51 C 148.29 106.51 149.02 105.78 149.02 104.89 L 149.02 103.96 C 149.02 103.07 148.29 102.34 147.40 102.34 C 146.50 102.34 145.78 103.07 145.78 103.96 Z M 145.78 104.89 L 145.78 105.84 C 145.78 106.73 146.50 107.45 147.40 107.45 C 148.29 107.45 149.01 106.73 149.01 105.84 L 149.01 104.89 C 149.01 103.99 148.29 103.27 147.40 103.27 C 146.50 103.27 145.78 103.99 145.78 104.89 Z M 145.78 105.84 L 145.78 106.81 C 145.78 107.71 146.50 108.43 147.40 108.43 C 148.29 108.43 149.01 107.71 149.01 106.81 L 149.01 105.84 C 149.01 104.94 148.29 104.22 147.40 104.22 C 146.50 104.22 145.78 104.94 145.78 105.84 Z M 145.78 106.81 L 145.78 107.82 C 145.78 108.71 146.50 109.44 147.40 109.44 C 148.29 109.44 149.01 108.71 149.01 107.82 L 149.01 106.81 C 149.01 105.92 148.29 105.20 147.40 105.20 C 146.50 105.20 145.78 105.92 145.78 106.81 Z M 145.78 107.82 L 145.78 108.85 C 145.78 109.74 146.50 110.47 147.40 110.47 C 148.29 110.47 149.01 109.74 149.01 108.85 L 149.01 107.82 C 149.01 106.93 148.29 106.20 147.40 106.20 C 146.50 106.20 145.78 106.93 145.78 107.82 Z M 145.78 108.85 L 145.78 109.91 C 145.78 110.80 146.50 111.53 147.40 111.53 C 148.29 111.53 149.01 110.80 149.01 109.91 L 149.01 108.85 C 149.01 107.96 148.29 107.24 147.40 107.24 C 146.50 107.24 145.78 107.96 145.78 108.85 Z M 145.78 109.91 L 145.78 110.99 C 145.78 111.88 146.50 112.61 147.40 112.61 C 148.29 112.61 149.01 111.88 149.01 110.99 L 149.01 109.91 C 149.01 109.02 148.29 108.30 147.40 108.30 C 146.50 108.30 145.78 109.02 145.78 109.91 Z M 145.78 110.99 L 145.78 111.92 C 145.78 112.81 146.50 113.54 147.40 113.54 C 148.29 113.54 149.01 112.81 149.01 111.92 L 149.01 110.99 C 149.01 110.10 148.29 109.38 147.40 109.38 C 146.50 109.38 145.78 110.10 145.78 110.99 Z M 145.78 111.92 L 145.78 112.87 C 145.78 113.76 146.50 114.49 147.40 114.49 C 148.29 114.49 149.01 113.76 149.01 112.87 L 149.01 111.92 C 149.01 111.03 148.29 110.31 147.40 110.31 C 146.50 110.31 145.78 111.03 145.78 111.92 Z M 145.78 112.87 L 145.78 113.84 C 145.78 114.73 146.50 115.46 147.40 115.46 C 148.29 115.46 149.01 114.73 149.01 113.84 L 149.01 112.87 C 149.01 111.98 148.29 111.26 147.40 111.26 C 146.50 111.26 145.78 111.98 145.78 112.87 Z M 145.78 113.84 L 145.78 114.83 C 145.78 115.72 146.50 116.44 147.40 116.44 C 148.29 116.44 149.01 115.72 149.01 114.83 L 149.01 113.84 C 149.01 112.95 148.29 112.23 147.40 112.23 C 146.50 112.23 145.78 112.95 145.78 113.84 Z M 145.78 114.83 L 145.78 115.83 C 145.78 116.72 146.50 117.45 147.40 117.45 C 148.29 117.45 149.01 116.72 149.01 115.83 L 149.01 114.83 C 149.01 113.94 148.29 113.22 147.40 113.22 C 146.50 113.22 145.78 113.94 145.78 114.83 Z M 145.78 115.83 L 145.78 116.85 C 145.78 117.75 146.50 118.47 147.40 118.47 C 148.29 118.47 149.01 117.75 149.01 116.85 L 149.01 115.83 C 149.01 114.94 148.29 114.22 147.40 114.22 C 146.50 114.22 145.78 114.94 145.78 115.83 Z M 145.78 116.85 L 145.78 117.89 C 145.78 118.78 146.50 119.51 147.40 119.51 C 148.29 119.51 149.01 118.78 149.01 117.89 L 149.01 116.85 C 149.01 115.96 148.29 115.24 147.40 115.24 C 146.50 115.24 145.78 115.96 145.78 116.85 Z M 145.78 117.89 L 145.78 118.95 C 145.78 119.84 146.50 120.56 147.40 120.56 C 148.29 120.56 149.01 119.84 149.01 118.95 L 149.01 117.89 C 149.01 117.00 148.29 116.28 147.40 116.28 C 146.50 116.28 145.78 117.00 145.78 117.89 Z M 145.78 118.95 L 145.78 119.98 C 145.78 120.87 146.50 121.59 147.40 121.59 C 148.29 121.59 149.01 120.87 149.01 119.98 L 149.01 118.95 C 149.01 118.06 148.29 117.33 147.40 117.33 C 146.50 117.33 145.78 118.06 145.78 118.95 Z M 145.78 119.98 L 145.78 120.94 C 145.78 121.83 146.50 122.56 147.40 122.56 C 148.29 122.56 149.01 121.83 149.01 120.94 L 149.01 119.98 C 149.01 119.09 148.29 118.37 147.40 118.37 C 146.50 118.37 145.78 119.09 145.78 119.98 Z M 145.78 120.94 L 145.78 121.92 C 145.78 122.81 146.50 123.53 147.40 123.53 C 148.29 123.53 149.01 122.81 149.01 121.92 L 149.01 120.94 C 149.01 120.05 148.29 119.33 147.40 119.33 C 146.50 119.33 145.78 120.05 145.78 120.94 Z M 145.78 121.92 L 145.78 122.90 C 145.78 123.79 146.50 124.52 147.40 124.52 C 148.29 124.52 149.01 123.79 149.01 122.90 L 149.01 121.92 C 149.01 121.02 148.29 120.30 147.40 120.30 C 146.50 120.30 145.78 121.02 145.78 121.92 Z M 145.78 122.90 L 145.78 123.89 C 145.78 124.79 146.50 125.51 147.40 125.51 C 148.29 125.51 149.01 124.79 149.01 123.89 L 149.01 122.90 C 149.01 122.01 148.29 121.28 147.40 121.28 C 146.50 121.28 145.78 122.01 145.78 122.90 Z M 145.78 123.89 L 145.78 124.90 C 145.78 125.79 146.50 126.51 147.40 126.51 C 148.29 126.51 149.01 125.79 149.01 124.90 L 149.01 123.89 C 149.01 123.00 148.29 122.28 147.40 122.28 C 146.50 122.28 145.78 123.00 145.78 123.89 Z M 145.78 124.90 L 145.78 125.91 C 145.78 126.80 146.50 127.53 147.40 127.53 C 148.29 127.53 149.01 126.80 149.01 125.91 L 149.01 124.90 C 149.01 124.00 148.29 123.28 147.40 123.28 C 146.50 123.28 145.78 124.00 145.78 124.90 Z M 145.78 125.91 L 145.78 126.92 C 145.78 127.82 146.50 128.54 147.40 128.54 C 148.29 128.54 149.01 127.82 149.01 126.92 L 149.01 125.91 C 149.01 125.01 148.29 124.29 147.40 124.29 C 146.50 124.29 145.78 125.01 145.78 125.91 Z M 145.78 126.92 L 145.78 127.95 C 145.78 128.84 146.50 129.57 147.40 129.57 C 148.29 129.57 149.02 128.84 149.02 127.95 L 149.02 126.92 C 149.02 126.03 148.29 125.31 147.40 125.31 C 146.50 125.31 145.78 126.03 145.78 126.92 Z M 145.78 127.95 L 145.78 128.98 C 145.78 129.87 146.50 130.60 147.40 130.60 C 148.29 130.60 149.02 129.87 149.02 128.98 L 149.02 127.95 C 149.02 127.05 148.29 126.33 147.40 126.33 C 146.50 126.33 145.78 127.05 145.78 127.95 Z M 145.77 128.98 L 145.77 129.98 C 145.77 130.88 146.50 131.60 147.40 131.60 C 148.29 131.60 149.02 130.88 149.02 129.98 L 149.02 128.98 C 149.02 128.08 148.29 127.36 147.40 127.36 C 146.50 127.36 145.77 128.08 145.77 128.98 Z M 145.77 129.98 L 145.77 130.96 C 145.77 131.85 146.50 132.58 147.40 132.58 C 148.29 132.58 149.02 131.85 149.02 130.96 L 149.02 129.98 C 149.02 129.08 148.29 128.36 147.40 128.36 C 146.50 128.36 145.77 129.08 145.77 129.98 Z M 145.77 130.96 L 145.77 131.94 C 145.77 132.83 146.50 133.56 147.40 133.56 C 148.29 133.56 149.02 132.83 149.02 131.94 L 149.02 130.96 C 149.02 130.06 148.29 129.33 147.40 129.33 C 146.50 129.33 145.77 130.06 145.77 130.96 Z M 145.77 131.94 L 145.77 132.92 C 145.77 133.82 146.50 134.55 147.40 134.55 C 148.29 134.55 149.02 133.82 149.02 132.92 L 149.02 131.94 C 149.02 131.04 148.29 130.31 147.40 130.31 C 146.50 130.31 145.77 131.04 145.77 131.94 Z M 145.77 132.92 L 145.77 133.91 C 145.77 134.81 146.50 135.54 147.40 135.54 C 148.29 135.54 149.02 134.81 149.02 133.91 L 149.02 132.92 C 149.02 132.03 148.29 131.30 147.40 131.30 C 146.50 131.30 145.77 132.03 145.77 132.92 Z M 145.77 133.91 L 145.77 134.91 C 145.77 135.81 146.50 136.54 147.40 136.54 C 148.29 136.54 149.02 135.81 149.02 134.91 L 149.02 133.91 C 149.02 133.02 148.29 132.29 147.40 132.29 C 146.50 132.29 145.77 133.02 145.77 133.91 Z M 145.77 134.91 L 145.77 135.91 C 145.77 136.81 146.50 137.54 147.40 137.54 C 148.29 137.54 149.02 136.81 149.02 135.91 L 149.02 134.91 C 149.02 134.01 148.29 133.28 147.40 133.28 C 146.50 133.28 145.77 134.01 145.77 134.91 Z M 145.77 135.91 L 145.77 136.92 C 145.77 137.82 146.50 138.55 147.40 138.55 C 148.29 138.55 149.02 137.82 149.02 136.92 L 149.02 135.91 C 149.02 135.02 148.29 134.29 147.40 134.29 C 146.50 134.29 145.77 135.02 145.77 135.91 Z M 145.77 136.92 L 145.77 137.94 C 145.77 138.84 146.50 139.57 147.40 139.57 C 148.29 139.57 149.02 138.84 149.02 137.94 L 149.02 136.92 C 149.02 136.02 148.29 135.30 147.40 135.30 C 146.50 135.30 145.77 136.02 145.77 136.92 Z M 145.77 137.94 L 145.77 138.96 C 145.77 139.86 146.50 140.59 147.40 140.59 C 148.30 140.59 149.02 139.86 149.02 138.96 L 149.02 137.94 C 149.02 137.04 148.30 136.31 147.40 136.31 C 146.50 136.31 145.77 137.04 145.77 137.94 Z M 145.77 138.96 L 145.77 139.99 C 145.77 140.89 146.50 141.62 147.40 141.62 C 148.30 141.62 149.03 140.89 149.03 139.99 L 149.03 138.96 C 149.03 138.06 148.30 137.33 147.40 137.33 C 146.50 137.33 145.77 138.06 145.77 138.96 Z M 145.76 139.99 L 145.76 140.99 C 145.76 141.89 146.49 142.62 147.40 142.62 C 148.30 142.62 149.03 141.89 149.03 140.99 L 149.03 139.99 C 149.03 139.09 148.30 138.36 147.40 138.36 C 146.49 138.36 145.76 139.09 145.76 139.99 Z M 145.76 140.99 L 145.76 142.00 C 145.76 142.90 146.49 143.63 147.40 143.63 C 148.30 143.63 149.03 142.90 149.03 142.00 L 149.03 140.99 C 149.03 140.09 148.30 139.36 147.40 139.36 C 146.49 139.36 145.76 140.09 145.76 140.99 Z M 145.76 142.00 L 145.76 143.00 C 145.76 143.91 146.49 144.64 147.40 144.64 C 148.30 144.64 149.03 143.91 149.03 143.00 L 149.03 142.00 C 149.03 141.09 148.30 140.36 147.40 140.36 C 146.49 140.36 145.76 141.09 145.76 142.00 Z M 145.76 143.00 L 145.76 144.01 C 145.76 144.92 146.49 145.65 147.40 145.65 C 148.30 145.65 149.03 144.92 149.03 144.01 L 149.03 143.00 C 149.03 142.10 148.30 141.37 147.40 141.37 C 146.49 141.37 145.76 142.10 145.76 143.00 Z M 145.76 144.01 L 145.76 145.02 C 145.76 145.93 146.49 146.66 147.40 146.66 C 148.30 146.66 149.03 145.93 149.03 145.02 L 149.03 144.01 C 149.03 143.11 148.30 142.38 147.40 142.38 C 146.49 142.38 145.76 143.11 145.76 144.01 Z M 145.76 145.02 L 145.76 146.03 C 145.76 146.94 146.49 147.67 147.40 147.67 C 148.30 147.67 149.04 146.94 149.04 146.03 L 149.04 145.02 C 149.04 144.12 148.30 143.38 147.40 143.38 C 146.49 143.38 145.76 144.12 145.76 145.02 Z M 145.75 146.03 L 145.75 147.04 C 145.75 147.94 146.49 148.68 147.40 148.68 C 148.30 148.68 149.04 147.94 149.04 147.04 L 149.04 146.03 C 149.04 145.13 148.30 144.39 147.40 144.39 C 146.49 144.39 145.75 145.13 145.75 146.03 Z M 145.75 147.04 L 145.75 148.04 C 145.75 148.95 146.49 149.68 147.40 149.68 C 148.30 149.68 149.04 148.95 149.04 148.04 L 149.04 147.04 C 149.04 146.13 148.30 145.39 147.40 145.39 C 146.49 145.39 145.75 146.13 145.75 147.04 Z M 145.75 148.04 L 145.75 149.03 C 145.75 149.94 146.49 150.68 147.40 150.68 C 148.30 150.68 149.04 149.94 149.04 149.03 L 149.04 148.04 C 149.04 147.13 148.30 146.39 147.40 146.39 C 146.49 146.39 145.75 147.13 145.75 148.04 Z M 145.75 149.03 L 145.75 150.01 C 145.75 150.92 146.49 151.66 147.40 151.66 C 148.31 151.66 149.04 150.92 149.04 150.01 L 149.04 149.03 C 149.04 148.12 148.31 147.38 147.40 147.38 C 146.49 147.38 145.75 148.12 145.75 149.03 Z M 145.75 150.01 L 145.75 151.00 C 145.75 151.91 146.48 152.65 147.40 152.65 C 148.31 152.65 149.04 151.91 149.04 151.00 L 149.04 150.01 C 149.04 149.10 148.31 148.37 147.40 148.37 C 146.48 148.37 145.75 149.10 145.75 150.01 Z M 145.75 151.00 L 145.75 152.03 C 145.75 152.94 146.48 153.68 147.40 153.68 C 148.31 153.68 149.05 152.94 149.05 152.03 L 149.05 151.00 C 149.05 150.09 148.31 149.35 147.40 149.35 C 146.48 149.35 145.75 150.09 145.75 151.00 Z M 145.74 152.03 L 145.74 153.04 C 145.74 153.96 146.48 154.70 147.40 154.70 C 148.31 154.70 149.05 153.96 149.05 153.04 L 149.05 152.03 C 149.05 151.12 148.31 150.38 147.40 150.38 C 146.48 150.38 145.74 151.12 145.74 152.03 Z M 145.74 153.04 L 145.74 154.05 C 145.74 154.96 146.48 155.70 147.40 155.70 C 148.31 155.70 149.05 154.96 149.05 154.05 L 149.05 153.04 C 149.05 152.13 148.31 151.39 147.40 151.39 C 146.48 151.39 145.74 152.13 145.74 153.04 Z M 145.74 154.05 L 145.74 155.05 C 145.74 155.96 146.48 156.70 147.40 156.70 C 148.31 156.70 149.05 155.96 149.05 155.05 L 149.05 154.05 C 149.05 153.14 148.31 152.40 147.40 152.40 C 146.48 152.40 145.74 153.14 145.74 154.05 Z M 145.74 155.05 L 145.74 156.04 C 145.74 156.96 146.48 157.70 147.40 157.70 C 148.31 157.70 149.05 156.96 149.05 156.04 L 149.05 155.05 C 149.05 154.14 148.31 153.39 147.40 153.39 C 146.48 153.39 145.74 154.14 145.74 155.05 Z M 145.74 156.04 L 145.74 157.03 C 145.74 157.95 146.48 158.69 147.40 158.69 C 148.31 158.69 149.05 157.95 149.05 157.03 L 149.05 156.04 C 149.05 155.13 148.31 154.39 147.40 154.39 C 146.48 154.39 145.74 155.13 145.74 156.04 Z M 145.74 157.03 L 145.74 158.02 C 145.74 158.94 146.48 159.68 147.40 159.68 C 148.31 159.68 149.05 158.94 149.05 158.02 L 149.05 157.03 C 149.05 156.12 148.31 155.38 147.40 155.38 C 146.48 155.38 145.74 156.12 145.74 157.03 Z M 145.74 158.02 L 145.74 159.01 C 145.74 159.92 146.48 160.67 147.40 160.67 C 148.31 160.67 149.05 159.92 149.05 159.01 L 149.05 158.02 C 149.05 157.10 148.31 156.36 147.40 156.36 C 146.48 156.36 145.74 157.10 145.74 158.02 Z M 145.74 159.01 L 145.74 160.00 C 145.74 160.92 146.48 161.66 147.40 161.66 C 148.31 161.66 149.05 160.92 149.05 160.00 L 149.05 159.01 C 149.05 158.09 148.31 157.35 147.40 157.35 C 146.48 157.35 145.74 158.09 145.74 159.01 Z M 145.74 160.00 L 145.74 160.99 C 145.74 161.91 146.48 162.65 147.40 162.65 C 148.31 162.65 149.06 161.91 149.06 160.99 L 149.06 160.00 C 149.06 159.08 148.31 158.34 147.40 158.34 C 146.48 158.34 145.74 159.08 145.74 160.00 Z M 145.73 160.99 L 145.73 161.98 C 145.73 162.90 146.48 163.64 147.40 163.64 C 148.31 163.64 149.06 162.90 149.06 161.98 L 149.06 160.99 C 149.06 160.08 148.31 159.33 147.40 159.33 C 146.48 159.33 145.73 160.08 145.73 160.99 Z M 145.73 161.98 L 145.73 162.97 C 145.73 163.89 146.48 164.64 147.39 164.64 C 148.31 164.64 149.06 163.89 149.06 162.98 L 149.06 161.98 C 149.06 161.06 148.32 160.32 147.40 160.32 C 146.48 160.32 145.73 161.06 145.73 161.98 Z M 145.73 162.97 L 145.73 163.97 C 145.73 164.89 146.47 165.64 147.39 165.64 C 148.31 165.64 149.06 164.89 149.06 163.97 L 149.06 162.98 C 149.06 162.06 148.32 161.31 147.40 161.31 C 146.48 161.31 145.73 162.05 145.73 162.97 Z M 145.73 163.97 L 145.72 164.97 C 145.72 165.89 146.47 166.64 147.39 166.64 C 148.31 166.64 149.06 165.90 149.06 164.98 L 149.06 163.98 C 149.07 163.05 148.32 162.31 147.40 162.30 C 146.48 162.30 145.73 163.05 145.73 163.97 Z M 145.72 164.97 L 145.72 165.97 C 145.71 166.89 146.46 167.64 147.38 167.65 C 148.30 167.65 149.06 166.91 149.06 165.98 L 149.06 164.98 C 149.07 164.06 148.32 163.31 147.40 163.30 C 146.47 163.30 145.72 164.04 145.72 164.97 Z M 145.71 165.97 L 145.71 166.97 C 145.70 167.90 146.45 168.65 147.37 168.66 C 148.30 168.66 149.05 167.91 149.06 166.99 L 149.06 165.99 C 149.07 165.06 148.32 164.31 147.40 164.30 C 146.47 164.30 145.72 165.04 145.71 165.97 Z M 145.71 166.97 L 145.70 167.97 C 145.69 168.90 146.44 169.66 147.36 169.66 C 148.29 169.67 149.04 168.92 149.05 168.00 L 149.06 166.99 C 149.07 166.07 148.32 165.31 147.40 165.31 C 146.47 165.30 145.71 166.04 145.71 166.97 Z M 145.70 167.97 L 145.69 168.97 C 145.68 169.90 146.42 170.66 147.35 170.67 C 148.27 170.68 149.03 169.93 149.04 169.01 L 149.05 168.00 C 149.06 167.08 148.32 166.32 147.39 166.31 C 146.46 166.30 145.71 167.04 145.70 167.97 Z M 145.68 168.97 L 145.67 169.97 C 145.66 170.90 146.40 171.66 147.33 171.67 C 148.26 171.69 149.02 170.94 149.03 170.02 L 149.05 169.01 C 149.06 168.08 148.31 167.32 147.39 167.31 C 146.46 167.30 145.70 168.04 145.68 168.97 Z M 145.67 169.97 L 145.65 170.97 C 145.64 171.90 146.38 172.66 147.31 172.68 C 148.24 172.69 149.00 171.95 149.02 171.02 L 149.03 170.02 C 149.05 169.09 148.31 168.33 147.38 168.31 C 146.45 168.30 145.68 169.04 145.67 169.97 Z M 145.65 170.96 L 145.63 171.98 C 145.61 172.91 146.35 173.68 147.28 173.70 C 148.21 173.72 148.98 172.98 149.00 172.05 L 149.02 171.03 C 149.04 170.10 148.30 169.33 147.37 169.31 C 146.44 169.29 145.67 170.03 145.65 170.96 Z M 145.63 171.98 L 145.60 173.00 C 145.58 173.93 146.32 174.71 147.25 174.73 C 148.18 174.75 148.95 174.01 148.97 173.08 L 149.00 172.06 C 149.02 171.13 148.29 170.35 147.35 170.33 C 146.42 170.31 145.65 171.04 145.63 171.98 Z M 145.60 173.00 L 145.58 174.02 C 145.55 174.95 146.28 175.73 147.21 175.75 C 148.15 175.78 148.92 175.04 148.95 174.11 L 148.98 173.09 C 149.00 172.16 148.27 171.38 147.34 171.36 C 146.40 171.33 145.63 172.07 145.60 173.00 Z M 145.57 174.01 L 145.54 175.03 C 145.51 175.96 146.25 176.74 147.18 176.77 C 148.11 176.80 148.89 176.06 148.92 175.13 L 148.95 174.12 C 148.98 173.19 148.25 172.41 147.31 172.38 C 146.38 172.35 145.60 173.08 145.57 174.01 Z M 145.54 175.02 L 145.51 176.03 C 145.48 176.96 146.21 177.74 147.14 177.78 C 148.07 177.81 148.85 177.08 148.88 176.15 L 148.92 175.14 C 148.95 174.21 148.22 173.42 147.29 173.39 C 146.36 173.36 145.57 174.09 145.54 175.02 Z M 145.51 176.03 L 145.47 177.03 C 145.44 177.96 146.16 178.74 147.10 178.78 C 148.03 178.81 148.81 178.08 148.85 177.15 L 148.88 176.15 C 148.92 175.22 148.19 174.44 147.26 174.40 C 146.33 174.37 145.54 175.09 145.51 176.03 Z M 145.47 177.02 L 145.43 178.01 C 145.39 178.95 146.12 179.73 147.05 179.77 C 147.98 179.81 148.77 179.08 148.81 178.15 L 148.85 177.16 C 148.88 176.22 148.16 175.44 147.23 175.40 C 146.29 175.36 145.51 176.09 145.47 177.02 Z M 145.43 178.01 L 145.39 178.99 C 145.35 179.93 146.07 180.71 147.00 180.75 C 147.94 180.79 148.73 180.07 148.77 179.14 L 148.81 178.15 C 148.85 177.22 148.12 176.43 147.19 176.39 C 146.26 176.35 145.47 177.08 145.43 178.01 Z M 145.39 178.99 L 145.34 179.96 C 145.30 180.89 146.02 181.68 146.96 181.73 C 147.89 181.77 148.68 181.05 148.72 180.11 L 148.77 179.14 C 148.81 178.21 148.09 177.42 147.15 177.37 C 146.22 177.33 145.43 178.05 145.39 178.99 Z M 145.34 179.96 L 145.30 180.92 C 145.25 181.85 145.97 182.64 146.91 182.69 C 147.84 182.73 148.63 182.01 148.68 181.08 L 148.72 180.12 C 148.77 179.18 148.05 178.39 147.11 178.35 C 146.18 178.30 145.39 179.02 145.34 179.96 Z M 145.30 180.91 L 145.24 181.94 C 145.20 182.88 145.92 183.67 146.85 183.72 C 147.79 183.77 148.58 183.05 148.63 182.11 L 148.68 181.08 C 148.72 180.15 148.00 179.35 147.07 179.31 C 146.14 179.26 145.34 179.98 145.30 180.91 Z M 145.24 181.94 L 145.19 182.98 C 145.14 183.92 145.86 184.71 146.80 184.76 C 147.73 184.81 148.53 184.09 148.57 183.16 L 148.63 182.12 C 148.68 181.18 147.96 180.38 147.02 180.34 C 146.09 180.29 145.29 181.01 145.24 181.94 Z M 145.19 182.98 L 145.13 184.01 C 145.08 184.94 145.80 185.74 146.74 185.79 C 147.67 185.84 148.47 185.12 148.52 184.19 L 148.58 183.16 C 148.63 182.22 147.91 181.43 146.97 181.38 C 146.04 181.33 145.24 182.04 145.19 182.98 Z M 145.13 184.01 L 145.08 185.02 C 145.03 185.96 145.74 186.76 146.68 186.81 C 147.62 186.86 148.42 186.14 148.47 185.20 L 148.52 184.19 C 148.57 183.25 147.86 182.45 146.92 182.40 C 145.98 182.35 145.18 183.07 145.13 184.01 Z M 145.07 185.02 L 145.02 186.02 C 144.97 186.96 145.68 187.76 146.62 187.81 C 147.56 187.86 148.36 187.14 148.41 186.21 L 148.47 185.21 C 148.52 184.27 147.80 183.47 146.87 183.41 C 145.93 183.36 145.13 184.08 145.07 185.02 Z M 145.02 186.02 L 144.96 187.00 C 144.91 187.94 145.63 188.75 146.57 188.80 C 147.50 188.85 148.31 188.13 148.36 187.19 L 148.42 186.21 C 148.47 185.27 147.75 184.46 146.81 184.41 C 145.87 184.36 145.07 185.08 145.02 186.02 Z M 144.96 187.00 L 144.90 187.98 C 144.85 188.92 145.57 189.72 146.51 189.77 C 147.45 189.83 148.25 189.11 148.31 188.17 L 148.36 187.19 C 148.42 186.26 147.70 185.45 146.76 185.40 C 145.82 185.34 145.01 186.06 144.96 187.00 Z M 144.90 187.98 L 144.85 188.94 C 144.80 189.88 145.52 190.68 146.46 190.74 C 147.40 190.79 148.20 190.07 148.26 189.13 L 148.31 188.17 C 148.36 187.23 147.64 186.42 146.70 186.37 C 145.76 186.32 144.96 187.04 144.90 187.98 Z M 144.85 188.94 L 144.79 189.89 C 144.74 190.83 145.46 191.64 146.40 191.69 C 147.35 191.74 148.15 191.02 148.20 190.08 L 148.26 189.13 C 148.31 188.19 147.59 187.38 146.65 187.33 C 145.71 187.28 144.90 188.00 144.85 188.94 Z M 144.79 189.89 L 144.74 190.91 C 144.69 191.85 145.41 192.65 146.35 192.71 C 147.29 192.76 148.10 192.04 148.15 191.09 L 148.21 190.08 C 148.26 189.14 147.54 188.33 146.59 188.28 C 145.65 188.23 144.84 188.95 144.79 189.89 Z M 144.74 190.91 L 144.68 191.93 C 144.63 192.87 145.35 193.68 146.30 193.73 C 147.24 193.78 148.05 193.05 148.10 192.11 L 148.15 191.09 C 148.20 190.15 147.48 189.34 146.54 189.29 C 145.59 189.24 144.79 189.96 144.74 190.91 Z M 144.68 191.93 L 144.63 192.94 C 144.58 193.88 145.30 194.69 146.25 194.74 C 147.19 194.79 148.00 194.06 148.05 193.12 L 148.10 192.11 C 148.15 191.16 147.42 190.36 146.48 190.31 C 145.53 190.26 144.73 190.98 144.68 191.93 Z M 144.62 192.94 L 144.57 193.94 C 144.52 194.88 145.25 195.69 146.20 195.74 C 147.14 195.79 147.95 195.06 148.00 194.12 L 148.05 193.12 C 148.10 192.17 147.37 191.37 146.42 191.32 C 145.48 191.27 144.67 191.99 144.62 192.94 Z M 144.57 193.94 L 144.52 194.93 C 144.47 195.88 145.20 196.68 146.15 196.73 C 147.09 196.78 147.90 196.05 147.95 195.11 L 148.00 194.12 C 148.05 193.17 147.32 192.36 146.37 192.31 C 145.43 192.27 144.62 192.99 144.57 193.94 Z M 144.52 194.93 L 144.47 195.92 C 144.42 196.87 145.15 197.67 146.10 197.72 C 147.04 197.77 147.85 197.04 147.90 196.09 L 147.95 195.11 C 148.00 194.16 147.27 193.35 146.32 193.31 C 145.37 193.26 144.57 193.99 144.52 194.93 Z M 144.47 195.92 L 144.42 196.90 C 144.37 197.85 145.10 198.66 146.05 198.70 C 147.00 198.75 147.80 198.02 147.85 197.08 L 147.90 196.09 C 147.95 195.15 147.22 194.34 146.27 194.29 C 145.32 194.24 144.52 194.97 144.47 195.92 Z M 144.42 196.90 L 144.37 197.88 C 144.32 198.83 145.05 199.64 146.00 199.69 C 146.95 199.73 147.75 199.00 147.80 198.06 L 147.85 197.07 C 147.90 196.13 147.17 195.32 146.22 195.27 C 145.27 195.22 144.46 195.95 144.42 196.90 Z M 144.37 197.88 L 144.31 198.92 C 144.27 199.87 145.00 200.67 145.95 200.72 C 146.90 200.77 147.70 200.04 147.75 199.09 L 147.80 198.06 C 147.85 197.11 147.12 196.30 146.17 196.25 C 145.22 196.20 144.41 196.93 144.37 197.88 Z M 144.31 198.92 L 144.26 199.97 C 144.21 200.92 144.94 201.73 145.90 201.78 C 146.85 201.82 147.66 201.09 147.70 200.14 L 147.76 199.09 C 147.80 198.14 147.07 197.33 146.12 197.28 C 145.17 197.23 144.36 197.97 144.31 198.92 Z M 144.26 199.97 L 144.20 201.01 C 144.16 201.97 144.89 202.78 145.85 202.82 C 146.80 202.87 147.61 202.13 147.66 201.18 L 147.71 200.14 C 147.75 199.19 147.02 198.38 146.06 198.33 C 145.11 198.28 144.30 199.02 144.26 199.97 Z M 144.20 201.02 L 144.15 202.04 C 144.11 203.00 144.85 203.81 145.80 203.85 C 146.76 203.90 147.57 203.16 147.61 202.20 L 147.66 201.18 C 147.70 200.22 146.97 199.41 146.01 199.37 C 145.06 199.32 144.25 200.06 144.20 201.02 Z M 144.15 202.05 L 144.10 203.05 C 144.06 204.01 144.80 204.82 145.76 204.86 C 146.72 204.90 147.53 204.16 147.57 203.20 L 147.62 202.20 C 147.66 201.24 146.92 200.43 145.96 200.39 C 145.00 200.35 144.19 201.09 144.15 202.05 Z M 144.10 203.05 L 144.06 204.03 C 144.02 204.99 144.77 205.80 145.73 205.84 C 146.68 205.88 147.49 205.13 147.53 204.17 L 147.57 203.20 C 147.61 202.24 146.87 201.43 145.91 201.39 C 144.95 201.35 144.14 202.10 144.10 203.05 Z M 144.06 204.04 L 144.02 204.97 C 143.99 205.93 144.74 206.74 145.70 206.78 C 146.66 206.81 147.47 206.06 147.50 205.10 L 147.54 204.17 C 147.57 203.20 146.82 202.40 145.86 202.36 C 144.90 202.32 144.09 203.07 144.06 204.04 Z M 144.02 204.98 L 143.99 205.93 C 143.96 206.89 144.71 207.70 145.68 207.73 C 146.64 207.76 147.45 207.00 147.48 206.04 L 147.51 205.09 C 147.54 204.13 146.78 203.33 145.82 203.30 C 144.86 203.26 144.05 204.02 144.02 204.98 Z M 143.99 205.94 L 143.96 207.06 C 143.94 208.02 144.70 208.82 145.66 208.85 C 146.63 208.87 147.43 208.11 147.45 207.14 L 147.48 206.03 C 147.50 205.06 146.74 204.26 145.78 204.24 C 144.81 204.21 144.01 204.98 143.99 205.94 Z M 143.96 207.07 L 143.94 208.12 C 143.93 209.09 144.69 209.88 145.66 209.90 C 146.62 209.91 147.42 209.15 147.43 208.18 L 147.45 207.13 C 147.47 206.17 146.70 205.37 145.73 205.36 C 144.77 205.34 143.98 206.11 143.96 207.07 Z M 143.94 208.14 L 143.93 209.13 C 143.92 210.09 144.70 210.88 145.66 210.89 C 146.62 210.90 147.41 210.13 147.42 209.16 L 147.43 208.17 C 147.44 207.21 146.67 206.42 145.70 206.41 C 144.74 206.40 143.95 207.17 143.94 208.14 Z M 143.93 209.14 L 143.93 210.09 C 143.92 211.05 144.70 211.83 145.66 211.84 C 146.63 211.84 147.41 211.07 147.42 210.10 L 147.42 209.15 C 147.43 208.19 146.65 207.41 145.69 207.40 C 144.72 207.40 143.94 208.17 143.93 209.14 Z M 143.93 210.09 L 143.93 211.00 C 143.93 211.97 144.71 212.75 145.67 212.75 C 146.63 212.75 147.41 211.97 147.42 211.01 L 147.42 210.10 C 147.42 209.13 146.64 208.35 145.68 208.35 C 144.71 208.35 143.93 209.13 143.93 210.09 Z M 143.93 211.01 L 143.93 211.99 C 143.93 212.95 144.71 213.73 145.67 213.73 C 146.64 213.73 147.42 212.95 147.42 211.99 L 147.42 211.01 C 147.42 210.04 146.64 209.26 145.67 209.26 C 144.71 209.26 143.93 210.04 143.93 211.01 Z M 143.92 211.99 L 143.92 213.03 C 143.92 214.00 144.71 214.78 145.67 214.78 C 146.64 214.78 147.42 214.00 147.42 213.03 L 147.42 211.99 C 147.42 211.02 146.64 210.24 145.67 210.24 C 144.71 210.24 143.92 211.02 143.92 211.99 Z M 143.92 213.03 L 143.92 214.05 C 143.92 215.01 144.70 215.80 145.67 215.80 C 146.64 215.80 147.42 215.01 147.42 214.05 L 147.42 213.03 C 147.42 212.06 146.64 211.28 145.67 211.28 C 144.70 211.28 143.92 212.06 143.92 213.03 Z M 143.92 214.05 L 143.92 215.03 C 143.92 216.00 144.70 216.78 145.67 216.78 C 146.64 216.78 147.43 216.00 147.43 215.03 L 147.43 214.05 C 147.43 213.08 146.64 212.29 145.67 212.29 C 144.70 212.29 143.92 213.08 143.92 214.05 Z M 143.92 215.03 L 143.92 215.97 C 143.92 216.94 144.70 217.73 145.67 217.73 C 146.64 217.73 147.43 216.94 147.43 215.97 L 147.43 215.03 C 147.43 214.06 146.64 213.27 145.67 213.27 C 144.70 213.27 143.92 214.06 143.92 215.03 Z M 143.91 215.98 L 143.92 216.94 C 143.92 217.91 144.71 218.69 145.68 218.69 C 146.65 218.69 147.43 217.90 147.43 216.93 L 147.43 215.97 C 147.43 215.00 146.64 214.21 145.67 214.21 C 144.70 214.22 143.91 215.00 143.91 215.98 Z M 143.92 216.97 L 143.94 217.93 C 143.97 218.90 144.77 219.67 145.74 219.64 C 146.71 219.62 147.47 218.82 147.45 217.85 L 147.43 216.89 C 147.40 215.92 146.60 215.16 145.63 215.18 C 144.66 215.20 143.90 216.01 143.92 216.97 Z M 143.95 218.01 L 144.02 218.98 C 144.09 219.95 144.92 220.67 145.89 220.61 C 146.85 220.54 147.58 219.70 147.51 218.74 L 147.44 217.77 C 147.37 216.80 146.54 216.08 145.57 216.14 C 144.61 216.21 143.88 217.05 143.95 218.01 Z M 144.03 219.10 L 144.17 220.12 C 144.30 221.07 145.19 221.74 146.14 221.61 C 147.10 221.48 147.77 220.60 147.63 219.64 L 147.49 218.62 C 147.36 217.67 146.48 217.00 145.53 217.13 C 144.57 217.26 143.90 218.14 144.03 219.10 Z M 144.20 220.24 L 144.40 221.22 C 144.60 222.16 145.53 222.77 146.47 222.57 C 147.41 222.37 148.01 221.45 147.82 220.51 L 147.61 219.52 C 147.41 218.58 146.49 217.98 145.55 218.17 C 144.60 218.37 144.00 219.30 144.20 220.24 Z M 144.43 221.31 L 144.66 222.20 C 144.91 223.13 145.87 223.68 146.80 223.43 C 147.73 223.19 148.28 222.23 148.03 221.30 L 147.79 220.41 C 147.55 219.48 146.59 218.93 145.66 219.18 C 144.73 219.43 144.18 220.38 144.43 221.31 Z M 144.68 222.26 L 144.96 223.19 C 145.25 224.11 146.22 224.63 147.14 224.35 C 148.06 224.07 148.58 223.09 148.30 222.17 L 148.02 221.24 C 147.73 220.32 146.76 219.80 145.84 220.08 C 144.92 220.36 144.40 221.34 144.68 222.26 Z M 144.98 223.23 L 145.30 224.20 C 145.60 225.11 146.59 225.61 147.50 225.30 C 148.42 225.00 148.91 224.01 148.61 223.10 L 148.29 222.13 C 147.98 221.22 147.00 220.72 146.08 221.03 C 145.17 221.33 144.67 222.32 144.98 223.23 Z M 145.31 224.23 L 145.65 225.22 C 145.97 226.13 146.97 226.60 147.88 226.29 C 148.79 225.97 149.27 224.97 148.95 224.06 L 148.60 223.07 C 148.28 222.16 147.29 221.68 146.38 222.00 C 145.47 222.32 144.99 223.32 145.31 224.23 Z M 145.66 225.23 L 146.02 226.24 C 146.35 227.14 147.35 227.61 148.26 227.29 C 149.16 226.96 149.63 225.96 149.31 225.05 L 148.94 224.05 C 148.62 223.14 147.62 222.67 146.71 223.00 C 145.80 223.32 145.33 224.32 145.66 225.23 Z M 146.02 226.24 L 146.15 226.60 C 146.48 227.50 147.48 227.97 148.39 227.64 C 149.30 227.31 149.76 226.31 149.43 225.41 L 149.30 225.05 C 148.97 224.14 147.97 223.67 147.07 224.00 C 146.16 224.33 145.69 225.33 146.02 226.24 Z"
      fill="black"
      fill-rule="nonzero" /><path d="M 113.53 192.31 L 113.28 193.24 C 113.06 194.07 113.56 194.93 114.40 195.15 C 115.23 195.36 116.08 194.87 116.30 194.03 L 116.55 193.10 C 116.77 192.27 116.27 191.41 115.43 191.19 C 114.60 190.97 113.74 191.47 113.53 192.31 Z M 113.27 193.30 L 113.06 194.25 C 112.87 195.10 113.40 195.93 114.25 196.11 C 115.09 196.30 115.92 195.77 116.11 194.93 L 116.32 193.97 C 116.50 193.13 115.97 192.30 115.13 192.11 C 114.29 191.93 113.45 192.46 113.27 193.30 Z M 113.04 194.37 L 112.89 195.37 C 112.77 196.22 113.36 197.02 114.22 197.14 C 115.07 197.26 115.86 196.67 115.98 195.81 L 116.13 194.81 C 116.25 193.96 115.66 193.17 114.80 193.04 C 113.95 192.92 113.16 193.52 113.04 194.37 Z M 112.88 195.53 L 112.84 196.56 C 112.80 197.42 113.47 198.15 114.33 198.18 C 115.19 198.22 115.92 197.55 115.95 196.69 L 116.00 195.66 C 116.03 194.80 115.37 194.07 114.50 194.03 C 113.64 194.00 112.91 194.66 112.88 195.53 Z M 112.84 196.71 L 112.89 197.69 C 112.94 198.55 113.67 199.21 114.53 199.17 C 115.39 199.12 116.05 198.38 116.01 197.52 L 115.95 196.54 C 115.91 195.68 115.17 195.02 114.31 195.06 C 113.45 195.11 112.79 195.84 112.84 196.71 Z M 112.90 197.80 L 113.03 198.81 C 113.13 199.67 113.92 200.27 114.77 200.17 C 115.63 200.06 116.23 199.28 116.12 198.42 L 116.00 197.41 C 115.89 196.56 115.11 195.95 114.25 196.06 C 113.40 196.17 112.79 196.95 112.90 197.80 Z M 113.04 198.90 L 113.23 199.90 C 113.39 200.75 114.20 201.31 115.05 201.15 C 115.90 200.99 116.46 200.18 116.30 199.33 L 116.11 198.33 C 115.95 197.48 115.14 196.92 114.29 197.08 C 113.44 197.24 112.88 198.06 113.04 198.90 Z M 113.24 199.98 L 113.48 200.94 C 113.68 201.78 114.52 202.30 115.36 202.10 C 116.20 201.90 116.71 201.05 116.51 200.21 L 116.28 199.25 C 116.08 198.41 115.24 197.90 114.40 198.10 C 113.56 198.30 113.04 199.14 113.24 199.98 Z M 113.50 201.02 L 113.78 202.00 C 114.03 202.83 114.89 203.30 115.72 203.06 C 116.55 202.81 117.02 201.94 116.78 201.12 L 116.49 200.14 C 116.25 199.31 115.38 198.84 114.55 199.08 C 113.73 199.32 113.25 200.19 113.50 201.02 Z M 113.81 202.07 L 114.13 203.00 C 114.41 203.81 115.29 204.24 116.11 203.96 C 116.92 203.68 117.36 202.79 117.08 201.98 L 116.76 201.05 C 116.48 200.23 115.59 199.80 114.77 200.08 C 113.96 200.36 113.52 201.25 113.81 202.07 Z M 114.14 203.04 L 114.49 203.96 C 114.80 204.77 115.70 205.17 116.51 204.86 C 117.31 204.56 117.72 203.65 117.41 202.85 L 117.06 201.93 C 116.75 201.12 115.85 200.72 115.04 201.03 C 114.24 201.34 113.84 202.24 114.14 203.04 Z M 114.50 203.99 L 114.88 204.92 C 115.20 205.72 116.10 206.11 116.91 205.79 C 117.71 205.47 118.09 204.56 117.77 203.76 L 117.40 202.82 C 117.08 202.02 116.17 201.64 115.37 201.96 C 114.57 202.28 114.18 203.18 114.50 203.99 Z M 114.88 204.92 L 115.22 205.78 C 115.55 206.58 116.46 206.96 117.26 206.64 C 118.05 206.32 118.44 205.41 118.12 204.61 L 117.77 203.75 C 117.45 202.95 116.54 202.57 115.74 202.89 C 114.94 203.21 114.55 204.12 114.88 204.92 Z M 115.22 205.78 L 115.59 206.68 C 115.91 207.48 116.82 207.86 117.62 207.54 C 118.42 207.21 118.81 206.30 118.48 205.50 L 118.12 204.61 C 117.79 203.81 116.88 203.42 116.08 203.75 C 115.28 204.07 114.90 204.98 115.22 205.78 Z M 115.59 206.68 L 115.97 207.62 C 116.30 208.42 117.21 208.80 118.01 208.48 C 118.81 208.15 119.19 207.24 118.86 206.44 L 118.48 205.50 C 118.15 204.70 117.24 204.32 116.44 204.65 C 115.65 204.97 115.26 205.88 115.59 206.68 Z M 115.98 207.62 L 116.38 208.60 C 116.71 209.40 117.62 209.78 118.42 209.45 C 119.21 209.13 119.59 208.21 119.27 207.42 L 118.86 206.44 C 118.53 205.64 117.62 205.26 116.83 205.59 C 116.03 205.91 115.65 206.83 115.98 207.62 Z M 116.38 208.61 L 116.77 209.54 C 117.10 210.34 118.01 210.72 118.81 210.39 C 119.60 210.06 119.98 209.14 119.65 208.35 L 119.26 207.41 C 118.93 206.62 118.02 206.24 117.22 206.57 C 116.43 206.90 116.05 207.81 116.38 208.61 Z M 116.77 209.55 L 117.14 210.43 C 117.47 211.23 118.39 211.60 119.18 211.27 C 119.98 210.94 120.35 210.02 120.02 209.23 L 119.65 208.34 C 119.32 207.55 118.40 207.17 117.61 207.50 C 116.81 207.84 116.44 208.75 116.77 209.55 Z M 117.14 210.44 L 117.53 211.35 C 117.87 212.14 118.78 212.51 119.58 212.18 C 120.37 211.84 120.74 210.92 120.40 210.13 L 120.02 209.22 C 119.68 208.43 118.76 208.06 117.97 208.39 C 117.18 208.73 116.81 209.65 117.14 210.44 Z M 117.53 211.36 L 117.93 212.29 C 118.28 213.08 119.20 213.44 119.99 213.10 C 120.78 212.76 121.14 211.84 120.80 211.05 L 120.40 210.12 C 120.06 209.33 119.14 208.96 118.35 209.31 C 117.55 209.65 117.19 210.57 117.53 211.36 Z M 117.94 212.30 L 118.36 213.24 C 118.71 214.03 119.63 214.39 120.42 214.04 C 121.21 213.69 121.56 212.76 121.21 211.98 L 120.79 211.03 C 120.44 210.25 119.52 209.89 118.73 210.24 C 117.95 210.59 117.59 211.51 117.94 212.30 Z M 118.36 213.26 L 118.80 214.20 C 119.15 214.99 120.08 215.33 120.86 214.97 C 121.65 214.62 121.99 213.69 121.64 212.91 L 121.21 211.96 C 120.85 211.18 119.92 210.83 119.14 211.19 C 118.35 211.55 118.01 212.47 118.36 213.26 Z M 118.80 214.22 L 119.22 215.10 C 119.58 215.88 120.51 216.21 121.29 215.85 C 122.07 215.48 122.41 214.55 122.04 213.77 L 121.63 212.89 C 121.26 212.11 120.33 211.77 119.55 212.14 C 118.77 212.51 118.44 213.44 118.80 214.22 Z M 119.22 215.11 L 119.65 216.00 C 120.03 216.78 120.96 217.10 121.74 216.73 C 122.51 216.35 122.84 215.42 122.46 214.64 L 122.04 213.76 C 121.66 212.98 120.73 212.65 119.95 213.03 C 119.17 213.40 118.85 214.34 119.22 215.11 Z M 119.66 216.01 L 120.10 216.91 C 120.48 217.68 121.42 218.00 122.19 217.62 C 122.96 217.23 123.28 216.30 122.90 215.52 L 122.46 214.63 C 122.07 213.86 121.14 213.54 120.37 213.92 C 119.59 214.31 119.28 215.24 119.66 216.01 Z M 120.11 216.92 L 120.56 217.82 C 120.95 218.59 121.89 218.90 122.66 218.51 C 123.43 218.12 123.74 217.18 123.35 216.41 L 122.89 215.51 C 122.50 214.74 121.56 214.43 120.79 214.82 C 120.03 215.21 119.72 216.15 120.11 216.92 Z M 120.57 217.83 L 121.04 218.74 C 121.43 219.50 122.37 219.80 123.14 219.41 C 123.91 219.01 124.21 218.07 123.81 217.30 L 123.34 216.40 C 122.95 215.63 122.00 215.33 121.24 215.73 C 120.47 216.13 120.17 217.07 120.57 217.83 Z M 121.04 218.75 L 121.52 219.65 C 121.92 220.41 122.86 220.70 123.62 220.30 C 124.39 219.90 124.68 218.95 124.28 218.19 L 123.80 217.29 C 123.40 216.53 122.46 216.24 121.69 216.64 C 120.93 217.04 120.64 217.99 121.04 218.75 Z M 121.52 219.66 L 121.98 220.52 C 122.39 221.28 123.34 221.56 124.10 221.15 C 124.86 220.74 125.14 219.80 124.73 219.04 L 124.27 218.18 C 123.86 217.42 122.92 217.14 122.16 217.54 C 121.40 217.95 121.11 218.90 121.52 219.66 Z M 121.99 220.53 L 122.46 221.39 C 122.88 222.15 123.83 222.43 124.58 222.01 C 125.34 221.60 125.62 220.65 125.20 219.89 L 124.73 219.03 C 124.31 218.27 123.36 217.99 122.61 218.41 C 121.85 218.82 121.58 219.77 121.99 220.53 Z M 122.47 221.40 L 122.95 222.27 C 123.37 223.02 124.32 223.29 125.08 222.87 C 125.83 222.45 126.10 221.50 125.68 220.75 L 125.20 219.88 C 124.78 219.13 123.82 218.86 123.07 219.28 C 122.32 219.70 122.05 220.65 122.47 221.40 Z M 122.96 222.28 L 123.46 223.16 C 123.88 223.91 124.83 224.17 125.58 223.74 C 126.33 223.32 126.60 222.36 126.17 221.61 L 125.67 220.74 C 125.25 219.99 124.29 219.73 123.55 220.15 C 122.80 220.58 122.53 221.53 122.96 222.28 Z M 123.46 223.17 L 123.97 224.05 C 124.40 224.79 125.36 225.05 126.10 224.62 C 126.85 224.18 127.11 223.23 126.67 222.48 L 126.16 221.60 C 125.73 220.86 124.78 220.60 124.03 221.03 C 123.28 221.47 123.03 222.42 123.46 223.17 Z M 123.98 224.06 L 124.50 224.94 C 124.94 225.68 125.89 225.93 126.64 225.49 C 127.38 225.06 127.63 224.10 127.19 223.36 L 126.67 222.47 C 126.23 221.73 125.27 221.48 124.53 221.92 C 123.79 222.36 123.54 223.31 123.98 224.06 Z M 124.51 224.95 L 125.02 225.82 C 125.47 226.56 126.43 226.80 127.17 226.35 C 127.91 225.91 128.15 224.95 127.70 224.21 L 127.18 223.35 C 126.74 222.61 125.78 222.37 125.04 222.81 C 124.30 223.25 124.06 224.21 124.51 224.95 Z M 125.03 225.83 L 125.56 226.70 C 126.01 227.43 126.97 227.66 127.71 227.21 C 128.44 226.76 128.67 225.80 128.23 225.07 L 127.70 224.20 C 127.25 223.47 126.28 223.23 125.55 223.68 C 124.81 224.13 124.58 225.09 125.03 225.83 Z M 125.57 226.71 L 126.11 227.57 C 126.56 228.30 127.53 228.52 128.26 228.07 C 128.99 227.61 129.21 226.65 128.76 225.92 L 128.22 225.06 C 127.76 224.32 126.80 224.10 126.07 224.56 C 125.34 225.01 125.11 225.98 125.57 226.71 Z M 126.12 227.58 L 126.66 228.43 C 127.12 229.16 128.09 229.37 128.81 228.91 C 129.54 228.44 129.75 227.48 129.29 226.75 L 128.75 225.90 C 128.28 225.18 127.32 224.96 126.59 225.43 C 125.86 225.89 125.65 226.86 126.12 227.58 Z M 126.67 228.45 L 127.21 229.28 C 127.69 230.00 128.65 230.20 129.38 229.73 C 130.10 229.26 130.30 228.29 129.83 227.57 L 129.28 226.74 C 128.81 226.02 127.84 225.81 127.12 226.29 C 126.40 226.76 126.20 227.73 126.67 228.45 Z M 127.23 229.30 L 127.77 230.11 C 128.25 230.82 129.22 231.01 129.94 230.53 C 130.65 230.05 130.84 229.08 130.36 228.36 L 129.81 227.55 C 129.33 226.84 128.36 226.65 127.65 227.13 C 126.93 227.61 126.74 228.58 127.23 229.30 Z M 127.79 230.13 L 128.37 230.96 C 128.86 231.67 129.83 231.84 130.54 231.35 C 131.25 230.86 131.42 229.88 130.93 229.18 L 130.35 228.34 C 129.85 227.63 128.88 227.46 128.17 227.96 C 127.47 228.45 127.29 229.42 127.79 230.13 Z M 128.38 230.99 L 129.00 231.83 C 129.51 232.53 130.48 232.69 131.18 232.18 C 131.88 231.68 132.03 230.70 131.53 230.00 L 130.91 229.15 C 130.41 228.45 129.43 228.30 128.73 228.81 C 128.03 229.31 127.88 230.29 128.38 230.99 Z M 129.02 231.86 L 129.63 232.67 C 130.15 233.36 131.13 233.50 131.82 232.98 C 132.50 232.46 132.64 231.48 132.12 230.79 L 131.51 229.98 C 130.99 229.29 130.01 229.15 129.32 229.67 C 128.64 230.19 128.50 231.17 129.02 231.86 Z M 129.65 232.69 L 130.26 233.47 C 130.79 234.15 131.77 234.27 132.45 233.74 C 133.13 233.21 133.25 232.23 132.72 231.55 L 132.11 230.77 C 131.58 230.09 130.59 229.97 129.91 230.50 C 129.24 231.03 129.11 232.01 129.65 232.69 Z M 130.27 233.49 L 130.88 234.25 C 131.42 234.92 132.41 235.02 133.08 234.48 C 133.75 233.94 133.85 232.95 133.31 232.28 L 132.70 231.53 C 132.16 230.86 131.17 230.76 130.50 231.30 C 129.83 231.84 129.73 232.82 130.27 233.49 Z M 130.90 234.27 L 131.50 234.99 C 132.06 235.65 133.04 235.74 133.70 235.19 C 134.36 234.64 134.45 233.65 133.90 232.99 L 133.29 232.26 C 132.74 231.60 131.76 231.51 131.09 232.07 C 130.43 232.62 130.34 233.60 130.90 234.27 Z M 131.52 235.01 L 132.19 235.79 C 132.75 236.44 133.74 236.51 134.39 235.95 C 135.04 235.39 135.12 234.40 134.55 233.75 L 133.89 232.97 C 133.32 232.32 132.34 232.25 131.68 232.81 C 131.03 233.37 130.96 234.36 131.52 235.01 Z M 132.20 235.80 L 132.88 236.57 C 133.45 237.21 134.44 237.27 135.09 236.70 C 135.73 236.13 135.79 235.14 135.22 234.50 L 134.54 233.73 C 133.96 233.09 132.98 233.03 132.33 233.60 C 131.69 234.17 131.63 235.16 132.20 235.80 Z M 132.90 236.59 L 133.57 237.33 C 134.16 237.96 135.14 238.01 135.78 237.42 C 136.42 236.84 136.46 235.86 135.88 235.22 L 135.20 234.48 C 134.62 233.84 133.63 233.80 133.00 234.38 C 132.36 234.96 132.31 235.95 132.90 236.59 Z M 133.59 237.34 L 134.26 238.06 C 134.85 238.69 135.84 238.72 136.47 238.13 C 137.10 237.54 137.13 236.55 136.54 235.92 L 135.86 235.20 C 135.27 234.58 134.29 234.54 133.66 235.13 C 133.03 235.73 133.00 236.71 133.59 237.34 Z M 134.28 238.07 L 134.95 238.77 C 135.54 239.39 136.53 239.41 137.15 238.81 C 137.77 238.21 137.79 237.22 137.20 236.60 L 136.52 235.91 C 135.93 235.29 134.94 235.27 134.32 235.87 C 133.70 236.46 133.68 237.45 134.28 238.07 Z M 134.96 238.78 L 135.68 239.51 C 136.29 240.13 137.27 240.13 137.89 239.53 C 138.50 238.92 138.51 237.93 137.90 237.32 L 137.18 236.59 C 136.58 235.98 135.59 235.97 134.97 236.58 C 134.36 237.18 134.35 238.17 134.96 238.78 Z M 135.70 239.53 L 136.43 240.25 C 137.04 240.85 138.03 240.85 138.64 240.23 C 139.24 239.62 139.23 238.63 138.62 238.02 L 137.89 237.30 C 137.27 236.70 136.28 236.71 135.68 237.32 C 135.07 237.94 135.08 238.92 135.70 239.53 Z M 136.45 240.27 L 137.17 240.96 C 137.80 241.55 138.79 241.53 139.38 240.90 C 139.98 240.28 139.95 239.29 139.33 238.70 L 138.60 238.01 C 137.98 237.41 136.99 237.44 136.39 238.06 C 135.80 238.69 135.82 239.67 136.45 240.27 Z M 137.20 240.98 L 137.92 241.64 C 138.55 242.22 139.54 242.17 140.12 241.54 C 140.70 240.90 140.66 239.91 140.02 239.33 L 139.30 238.68 C 138.67 238.09 137.68 238.14 137.10 238.77 C 136.52 239.41 136.56 240.40 137.20 240.98 Z M 137.94 241.66 L 138.66 242.29 C 139.31 242.86 140.30 242.79 140.87 242.14 C 141.43 241.49 141.36 240.50 140.71 239.93 L 140.00 239.31 C 139.35 238.74 138.36 238.81 137.79 239.46 C 137.23 240.11 137.29 241.10 137.94 241.66 Z M 138.70 242.32 L 139.44 242.93 C 140.11 243.47 141.09 243.38 141.64 242.71 C 142.18 242.04 142.09 241.06 141.42 240.51 L 140.68 239.90 C 140.01 239.36 139.03 239.45 138.48 240.12 C 137.93 240.79 138.03 241.77 138.70 242.32 Z M 139.49 242.96 L 140.25 243.55 C 140.94 244.07 141.92 243.93 142.44 243.25 C 142.96 242.56 142.83 241.58 142.14 241.06 L 141.38 240.48 C 140.69 239.96 139.71 240.09 139.19 240.78 C 138.67 241.46 138.80 242.44 139.49 242.96 Z M 140.31 243.59 L 141.13 244.15 C 141.83 244.65 142.81 244.47 143.30 243.76 C 143.79 243.06 143.62 242.08 142.91 241.59 L 142.09 241.02 C 141.38 240.53 140.41 240.70 139.92 241.41 C 139.42 242.12 139.60 243.09 140.31 243.59 Z M 141.18 244.19 L 142.08 244.76 C 142.81 245.22 143.77 245.00 144.23 244.28 C 144.69 243.55 144.48 242.58 143.75 242.12 L 142.85 241.55 C 142.12 241.09 141.16 241.31 140.70 242.04 C 140.24 242.77 140.45 243.73 141.18 244.19 Z M 142.13 244.79 L 143.01 245.30 C 143.76 245.74 144.71 245.48 145.15 244.74 C 145.58 243.99 145.33 243.04 144.58 242.60 L 143.70 242.09 C 142.95 241.66 142.00 241.91 141.56 242.66 C 141.13 243.40 141.38 244.36 142.13 244.79 Z M 143.06 245.33 L 143.97 245.82 C 144.73 246.23 145.68 245.94 146.09 245.18 C 146.49 244.42 146.21 243.47 145.45 243.07 L 144.53 242.58 C 143.77 242.17 142.83 242.46 142.42 243.22 C 142.01 243.98 142.30 244.92 143.06 245.33 Z M 144.03 245.85 L 144.97 246.30 C 145.74 246.68 146.68 246.35 147.05 245.58 C 147.43 244.80 147.11 243.87 146.33 243.49 L 145.39 243.04 C 144.62 242.66 143.68 242.99 143.31 243.76 C 142.93 244.54 143.25 245.47 144.03 245.85 Z M 145.03 246.33 L 145.96 246.73 C 146.76 247.07 147.67 246.70 148.01 245.91 C 148.35 245.11 147.98 244.20 147.19 243.86 L 146.26 243.46 C 145.47 243.12 144.55 243.49 144.21 244.28 C 143.87 245.08 144.24 245.99 145.03 246.33 Z M 146.06 246.77 L 146.94 247.08 C 147.76 247.37 148.65 246.94 148.94 246.13 C 149.23 245.32 148.80 244.43 147.99 244.14 L 147.10 243.82 C 146.29 243.53 145.39 243.96 145.11 244.77 C 144.82 245.59 145.24 246.48 146.06 246.77 Z M 147.10 247.13 L 148.16 247.38 C 149.00 247.58 149.84 247.06 150.04 246.22 C 150.24 245.38 149.72 244.54 148.88 244.34 L 147.83 244.09 C 146.99 243.89 146.15 244.41 145.95 245.25 C 145.75 246.09 146.27 246.93 147.10 247.13 Z M 148.46 247.42 L 149.47 247.46 C 150.34 247.49 151.06 246.82 151.10 245.96 C 151.13 245.10 150.46 244.37 149.60 244.34 L 148.58 244.30 C 147.72 244.27 147.00 244.94 146.96 245.80 C 146.93 246.66 147.60 247.39 148.46 247.42 Z M 149.92 247.41 L 150.81 247.19 C 151.64 246.98 152.15 246.13 151.94 245.30 C 151.73 244.46 150.88 243.95 150.05 244.16 L 149.16 244.39 C 148.32 244.60 147.81 245.44 148.02 246.28 C 148.23 247.12 149.08 247.62 149.92 247.41 Z M 151.26 247.00 L 152.04 246.50 C 152.77 246.04 152.99 245.08 152.53 244.35 C 152.07 243.62 151.10 243.40 150.37 243.86 L 149.59 244.36 C 148.86 244.82 148.65 245.78 149.11 246.51 C 149.57 247.24 150.53 247.46 151.26 247.00 Z M 152.34 246.26 L 152.99 245.58 C 153.58 244.95 153.56 243.96 152.94 243.37 C 152.31 242.77 151.32 242.80 150.73 243.42 L 150.08 244.11 C 149.48 244.73 149.51 245.72 150.13 246.31 C 150.75 246.91 151.74 246.89 152.34 246.26 Z M 153.14 245.40 L 153.72 244.56 C 154.22 243.86 154.05 242.89 153.35 242.39 C 152.64 241.89 151.67 242.06 151.17 242.77 L 150.58 243.60 C 150.09 244.31 150.26 245.28 150.96 245.78 C 151.67 246.27 152.64 246.10 153.14 245.40 Z M 153.80 244.44 L 154.32 243.54 C 154.75 242.79 154.49 241.84 153.74 241.41 C 152.99 240.98 152.04 241.24 151.61 241.99 L 151.09 242.89 C 150.66 243.64 150.92 244.59 151.67 245.02 C 152.42 245.45 153.37 245.19 153.80 244.44 Z M 154.36 243.45 L 154.82 242.53 C 155.20 241.76 154.88 240.82 154.11 240.44 C 153.34 240.06 152.40 240.38 152.02 241.15 L 151.56 242.07 C 151.18 242.84 151.50 243.78 152.27 244.16 C 153.04 244.54 153.98 244.23 154.36 243.45 Z M 154.85 242.47 L 155.26 241.52 C 155.61 240.73 155.25 239.81 154.46 239.47 C 153.67 239.12 152.75 239.48 152.40 240.27 L 151.99 241.21 C 151.64 242.00 152.00 242.92 152.79 243.27 C 153.58 243.62 154.50 243.26 154.85 242.47 Z M 155.29 241.46 L 155.64 240.56 C 155.96 239.75 155.56 238.85 154.76 238.53 C 153.95 238.22 153.05 238.62 152.73 239.42 L 152.38 240.33 C 152.07 241.13 152.46 242.04 153.27 242.35 C 154.07 242.66 154.97 242.27 155.29 241.46 Z M 155.66 240.51 L 155.99 239.60 C 156.28 238.79 155.85 237.90 155.04 237.60 C 154.23 237.31 153.34 237.74 153.05 238.55 L 152.72 239.46 C 152.43 240.27 152.85 241.17 153.66 241.46 C 154.47 241.75 155.37 241.33 155.66 240.51 Z M 155.99 239.58 L 156.31 238.67 C 156.59 237.85 156.15 236.96 155.34 236.68 C 154.52 236.40 153.63 236.84 153.35 237.65 L 153.04 238.57 C 152.76 239.38 153.19 240.27 154.01 240.55 C 154.82 240.83 155.71 240.40 155.99 239.58 Z M 156.31 238.65 L 156.63 237.70 C 156.90 236.89 156.45 236.00 155.63 235.73 C 154.82 235.46 153.93 235.90 153.66 236.72 L 153.35 237.67 C 153.08 238.49 153.52 239.37 154.34 239.64 C 155.16 239.91 156.04 239.47 156.31 238.65 Z M 156.63 237.68 L 156.94 236.71 C 157.19 235.89 156.73 235.01 155.91 234.75 C 155.09 234.50 154.21 234.96 153.96 235.78 L 153.65 236.75 C 153.40 237.57 153.86 238.45 154.68 238.70 C 155.50 238.96 156.38 238.50 156.63 237.68 Z M 156.95 236.67 L 157.23 235.70 C 157.47 234.87 156.99 234.01 156.16 233.77 C 155.33 233.53 154.46 234.01 154.23 234.84 L 153.95 235.81 C 153.71 236.64 154.19 237.51 155.01 237.74 C 155.84 237.98 156.71 237.50 156.95 236.67 Z M 157.24 235.66 L 157.49 234.71 C 157.70 233.88 157.20 233.02 156.37 232.81 C 155.53 232.59 154.68 233.09 154.46 233.92 L 154.22 234.87 C 154.00 235.71 154.50 236.56 155.33 236.78 C 156.17 237.00 157.02 236.50 157.24 235.66 Z M 157.49 234.69 L 157.73 233.73 C 157.93 232.89 157.42 232.04 156.58 231.84 C 155.74 231.64 154.90 232.15 154.69 232.99 L 154.46 233.95 C 154.25 234.79 154.77 235.63 155.60 235.83 C 156.44 236.04 157.29 235.52 157.49 234.69 Z M 157.73 233.72 L 157.96 232.73 C 158.16 231.89 157.64 231.05 156.80 230.85 C 155.96 230.66 155.12 231.17 154.92 232.01 L 154.69 233.00 C 154.49 233.83 155.01 234.68 155.85 234.88 C 156.69 235.07 157.53 234.56 157.73 233.72 Z M 157.96 232.74 L 158.19 231.76 C 158.40 230.92 157.88 230.08 157.04 229.88 C 156.20 229.68 155.36 230.19 155.16 231.03 L 154.92 232.01 C 154.72 232.85 155.24 233.69 156.08 233.89 C 156.92 234.09 157.76 233.58 157.96 232.74 Z M 158.19 231.77 L 158.43 230.83 C 158.63 229.99 158.12 229.14 157.29 228.93 C 156.45 228.73 155.60 229.24 155.40 230.08 L 155.16 231.02 C 154.95 231.86 155.46 232.71 156.30 232.91 C 157.14 233.12 157.98 232.61 158.19 231.77 Z M 158.42 230.83 L 158.67 229.86 C 158.88 229.03 158.37 228.18 157.54 227.97 C 156.70 227.76 155.85 228.26 155.64 229.10 L 155.40 230.07 C 155.19 230.90 155.69 231.75 156.53 231.96 C 157.36 232.17 158.21 231.67 158.42 230.83 Z M 158.67 229.87 L 158.92 228.88 C 159.13 228.04 158.63 227.19 157.79 226.98 C 156.96 226.77 156.11 227.27 155.89 228.11 L 155.64 229.10 C 155.43 229.93 155.93 230.78 156.77 230.99 C 157.61 231.21 158.46 230.70 158.67 229.87 Z M 158.92 228.88 L 159.17 227.89 C 159.38 227.05 158.88 226.21 158.04 225.99 C 157.21 225.78 156.36 226.29 156.14 227.12 L 155.89 228.11 C 155.68 228.94 156.19 229.79 157.02 230.01 C 157.86 230.22 158.71 229.71 158.92 228.88 Z M 159.17 227.89 L 159.41 226.93 C 159.62 226.10 159.12 225.25 158.28 225.04 C 157.45 224.83 156.60 225.33 156.39 226.17 L 156.14 227.12 C 155.93 227.96 156.44 228.81 157.27 229.02 C 158.11 229.23 158.96 228.72 159.17 227.89 Z M 159.41 226.93 L 159.66 225.97 C 159.87 225.13 159.36 224.29 158.52 224.07 C 157.69 223.86 156.84 224.37 156.63 225.21 L 156.39 226.17 C 156.17 227.00 156.68 227.85 157.52 228.06 C 158.35 228.28 159.20 227.77 159.41 226.93 Z M 159.66 225.97 L 159.90 225.00 C 160.11 224.16 159.61 223.31 158.77 223.10 C 157.94 222.89 157.09 223.40 156.88 224.23 L 156.63 225.20 C 156.42 226.04 156.92 226.89 157.76 227.10 C 158.59 227.31 159.44 226.81 159.66 225.97 Z M 159.90 225.00 L 160.15 224.02 C 160.37 223.18 159.86 222.33 159.03 222.12 C 158.19 221.90 157.34 222.41 157.13 223.24 L 156.88 224.23 C 156.66 225.06 157.17 225.91 158.00 226.13 C 158.84 226.34 159.69 225.84 159.90 225.00 Z M 160.15 224.02 L 160.40 223.06 C 160.62 222.23 160.11 221.38 159.28 221.16 C 158.44 220.94 157.59 221.45 157.38 222.28 L 157.13 223.24 C 156.91 224.07 157.42 224.93 158.25 225.14 C 159.09 225.36 159.94 224.85 160.15 224.02 Z M 160.40 223.07 L 160.65 222.11 C 160.87 221.27 160.37 220.42 159.53 220.20 C 158.70 219.99 157.84 220.49 157.63 221.32 L 157.38 222.28 C 157.16 223.11 157.66 223.97 158.49 224.18 C 159.33 224.40 160.18 223.90 160.40 223.07 Z M 160.65 222.11 L 160.90 221.14 C 161.12 220.31 160.62 219.45 159.79 219.23 C 158.95 219.02 158.10 219.52 157.88 220.35 L 157.63 221.32 C 157.41 222.15 157.91 223.01 158.74 223.22 C 159.58 223.44 160.43 222.94 160.65 222.11 Z M 160.90 221.14 L 161.16 220.16 C 161.38 219.33 160.88 218.48 160.04 218.26 C 159.21 218.04 158.36 218.54 158.14 219.37 L 157.88 220.35 C 157.66 221.18 158.16 222.04 159.00 222.25 C 159.83 222.47 160.68 221.97 160.90 221.14 Z M 161.16 220.16 L 161.41 219.19 C 161.63 218.35 161.13 217.50 160.30 217.28 C 159.46 217.06 158.61 217.56 158.39 218.40 L 158.14 219.37 C 157.92 220.21 158.42 221.06 159.25 221.28 C 160.09 221.50 160.94 221.00 161.16 220.16 Z M 161.41 219.18 L 161.66 218.24 C 161.88 217.41 161.38 216.55 160.54 216.34 C 159.71 216.12 158.85 216.62 158.64 217.45 L 158.39 218.40 C 158.17 219.23 158.68 220.08 159.51 220.30 C 160.34 220.52 161.20 220.02 161.41 219.18 Z M 161.66 218.24 L 161.91 217.29 C 162.13 216.45 161.62 215.60 160.79 215.38 C 159.96 215.16 159.10 215.66 158.89 216.50 L 158.64 217.45 C 158.42 218.29 158.92 219.14 159.76 219.36 C 160.59 219.57 161.44 219.07 161.66 218.24 Z M 161.91 217.29 L 162.16 216.32 C 162.38 215.49 161.88 214.63 161.05 214.41 C 160.21 214.20 159.36 214.70 159.14 215.53 L 158.89 216.50 C 158.67 217.33 159.17 218.18 160.00 218.40 C 160.84 218.62 161.69 218.12 161.91 217.29 Z M 162.16 216.32 L 162.42 215.34 C 162.64 214.51 162.14 213.65 161.31 213.43 C 160.48 213.21 159.62 213.71 159.40 214.54 L 159.14 215.53 C 158.92 216.36 159.42 217.21 160.25 217.43 C 161.08 217.65 161.94 217.16 162.16 216.32 Z M 162.42 215.35 L 162.68 214.36 C 162.91 213.53 162.42 212.67 161.58 212.44 C 160.75 212.22 159.89 212.71 159.67 213.55 L 159.40 214.54 C 159.18 215.37 159.67 216.22 160.51 216.45 C 161.34 216.67 162.19 216.18 162.42 215.35 Z M 162.68 214.36 L 162.95 213.39 C 163.18 212.56 162.69 211.70 161.86 211.48 C 161.02 211.25 160.16 211.74 159.94 212.57 L 159.67 213.54 C 159.44 214.37 159.93 215.23 160.77 215.46 C 161.60 215.69 162.46 215.20 162.68 214.36 Z M 162.95 213.40 L 163.22 212.42 C 163.45 211.59 162.96 210.73 162.13 210.50 C 161.30 210.27 160.44 210.76 160.21 211.59 L 159.94 212.56 C 159.71 213.40 160.20 214.26 161.03 214.49 C 161.86 214.72 162.72 214.23 162.95 213.40 Z M 163.22 212.42 L 163.49 211.45 C 163.72 210.62 163.24 209.76 162.41 209.53 C 161.58 209.29 160.71 209.78 160.48 210.61 L 160.21 211.58 C 159.98 212.41 160.46 213.27 161.29 213.51 C 162.12 213.74 162.99 213.25 163.22 212.42 Z M 163.49 211.45 L 163.76 210.50 C 163.99 209.67 163.51 208.80 162.68 208.57 C 161.85 208.34 160.98 208.82 160.75 209.65 L 160.48 210.61 C 160.25 211.44 160.73 212.30 161.56 212.53 C 162.39 212.77 163.26 212.28 163.49 211.45 Z M 163.76 210.50 L 164.03 209.55 C 164.26 208.72 163.78 207.85 162.95 207.62 C 162.12 207.39 161.25 207.87 161.02 208.70 L 160.75 209.65 C 160.52 210.48 161.00 211.34 161.83 211.58 C 162.66 211.81 163.52 211.33 163.76 210.50 Z M 164.02 209.55 L 164.31 208.54 C 164.54 207.71 164.06 206.85 163.23 206.61 C 162.40 206.38 161.54 206.86 161.31 207.69 L 161.02 208.70 C 160.79 209.53 161.27 210.39 162.10 210.62 C 162.93 210.86 163.79 210.38 164.02 209.55 Z M 164.31 208.54 L 164.59 207.57 C 164.82 206.74 164.35 205.88 163.52 205.64 C 162.69 205.40 161.82 205.88 161.59 206.71 L 161.31 207.68 C 161.07 208.51 161.55 209.38 162.38 209.61 C 163.21 209.85 164.07 209.37 164.31 208.54 Z M 164.58 207.58 L 164.86 206.64 C 165.11 205.81 164.63 204.95 163.81 204.70 C 162.98 204.46 162.11 204.93 161.87 205.76 L 161.59 206.70 C 161.34 207.53 161.82 208.39 162.64 208.64 C 163.47 208.88 164.34 208.41 164.58 207.58 Z M 164.86 206.66 L 165.14 205.74 C 165.39 204.92 164.93 204.04 164.11 203.79 C 163.28 203.53 162.41 204.00 162.16 204.82 L 161.87 205.74 C 161.62 206.56 162.08 207.44 162.90 207.69 C 163.73 207.95 164.60 207.48 164.86 206.66 Z M 165.13 205.76 L 165.44 204.81 C 165.71 203.99 165.26 203.11 164.44 202.85 C 163.62 202.58 162.74 203.03 162.47 203.85 L 162.16 204.80 C 161.90 205.62 162.34 206.50 163.16 206.76 C 163.98 207.03 164.87 206.58 165.13 205.76 Z M 165.43 204.84 L 165.76 203.88 C 166.04 203.06 165.61 202.17 164.79 201.89 C 163.98 201.61 163.09 202.05 162.81 202.86 L 162.48 203.82 C 162.20 204.64 162.63 205.53 163.45 205.81 C 164.26 206.09 165.15 205.65 165.43 204.84 Z M 165.76 203.90 L 166.10 202.96 C 166.39 202.15 165.97 201.25 165.16 200.96 C 164.34 200.67 163.45 201.09 163.16 201.90 L 162.82 202.84 C 162.53 203.65 162.95 204.55 163.76 204.84 C 164.57 205.13 165.46 204.71 165.76 203.90 Z M 166.09 202.97 L 166.43 202.05 C 166.74 201.24 166.33 200.35 165.52 200.04 C 164.71 199.74 163.81 200.15 163.51 200.96 L 163.16 201.88 C 162.86 202.69 163.27 203.59 164.08 203.89 C 164.89 204.19 165.79 203.78 166.09 202.97 Z M 166.43 202.07 L 166.79 201.14 C 167.10 200.33 166.69 199.43 165.89 199.12 C 165.09 198.81 164.18 199.21 163.87 200.02 L 163.51 200.94 C 163.20 201.75 163.61 202.65 164.41 202.96 C 165.21 203.27 166.12 202.87 166.43 202.07 Z M 166.78 201.15 L 167.15 200.21 C 167.47 199.41 167.08 198.50 166.28 198.19 C 165.48 197.87 164.57 198.26 164.25 199.06 L 163.88 200.00 C 163.56 200.80 163.95 201.71 164.75 202.03 C 165.55 202.35 166.46 201.95 166.78 201.15 Z M 167.15 200.23 L 167.53 199.31 C 167.85 198.51 167.47 197.60 166.68 197.27 C 165.88 196.94 164.97 197.32 164.64 198.12 L 164.26 199.04 C 163.93 199.84 164.31 200.75 165.11 201.08 C 165.90 201.41 166.82 201.03 167.15 200.23 Z M 167.52 199.33 L 167.91 198.43 C 168.25 197.63 167.88 196.72 167.09 196.37 C 166.30 196.03 165.38 196.40 165.04 197.19 L 164.65 198.10 C 164.31 198.89 164.67 199.81 165.46 200.15 C 166.26 200.49 167.17 200.12 167.52 199.33 Z M 167.90 198.45 L 168.31 197.54 C 168.66 196.76 168.32 195.83 167.53 195.48 C 166.75 195.12 165.82 195.47 165.46 196.25 L 165.05 197.16 C 164.70 197.95 165.04 198.87 165.83 199.23 C 166.61 199.59 167.54 199.24 167.90 198.45 Z M 168.29 197.57 L 168.73 196.66 C 169.10 195.88 168.78 194.95 168.00 194.58 C 167.22 194.21 166.29 194.53 165.92 195.31 L 165.48 196.22 C 165.11 197.00 165.43 197.93 166.21 198.31 C 166.99 198.68 167.92 198.35 168.29 197.57 Z M 168.71 196.70 L 169.17 195.80 C 169.56 195.04 169.26 194.10 168.49 193.70 C 167.72 193.31 166.78 193.62 166.39 194.38 L 165.93 195.28 C 165.54 196.04 165.85 196.98 166.61 197.38 C 167.38 197.77 168.32 197.46 168.71 196.70 Z M 169.15 195.84 L 169.62 194.98 C 170.04 194.22 169.76 193.27 169.00 192.86 C 168.25 192.45 167.30 192.72 166.88 193.48 L 166.41 194.34 C 166.00 195.10 166.27 196.05 167.03 196.46 C 167.78 196.88 168.73 196.60 169.15 195.84 Z M 169.60 195.03 L 170.11 194.16 C 170.55 193.42 170.31 192.46 169.56 192.02 C 168.82 191.58 167.87 191.82 167.42 192.57 L 166.91 193.43 C 166.47 194.17 166.72 195.13 167.46 195.57 C 168.20 196.01 169.16 195.77 169.60 195.03 Z M 170.08 194.20 L 170.62 193.35 C 171.09 192.63 170.87 191.66 170.14 191.20 C 169.42 190.74 168.45 190.95 167.99 191.68 L 167.45 192.53 C 166.99 193.25 167.20 194.22 167.93 194.68 C 168.66 195.14 169.62 194.93 170.08 194.20 Z M 170.61 193.38 L 171.16 192.55 C 171.63 191.84 171.44 190.87 170.72 190.39 C 170.00 189.91 169.03 190.11 168.56 190.82 L 168.01 191.65 C 167.53 192.37 167.72 193.34 168.44 193.82 C 169.16 194.29 170.13 194.10 170.61 193.38 Z M 171.15 192.57 L 171.63 191.86 C 172.11 191.14 171.93 190.17 171.22 189.69 C 170.50 189.20 169.53 189.39 169.05 190.10 L 168.56 190.81 C 168.08 191.53 168.27 192.50 168.98 192.98 C 169.69 193.47 170.66 193.28 171.15 192.57 Z"
      fill="black"
      fill-rule="nonzero" /></svg>