<svg xmlns="http://www.w3.org/2000/svg" width="300" height="300" viewBox="0 0 300 300">
<path d="M 93.40 132.32 L 92.27 131.94 C 91.45 131.66 90.56 132.09 90.28 132.91 C 90.00 133.72 90.44 134.61 91.25 134.89 L 92.38 135.28 C 93.20 135.56 94.09 135.12 94.37 134.31 C 94.65 133.49 94.21 132.61 93.40 132.32 Z M 92.18 131.91 L 91.12 131.61 C 90.29 131.38 89.43 131.86 89.20 132.69 C 88.96 133.52 89.44 134.38 90.27 134.61 L 91.33 134.91 C 92.16 135.15 93.03 134.67 93.26 133.84 C 93.49 133.01 93.01 132.15 92.18 131.91 Z M 90.91 131.57 L 89.99 131.44 C 89.13 131.33 88.35 131.93 88.23 132.78 C 88.12 133.64 88.72 134.42 89.57 134.54 L 90.49 134.66 C 91.35 134.77 92.13 134.17 92.25 133.32 C 92.36 132.47 91.76 131.68 90.91 131.57 Z M 89.46 131.46 L 88.75 131.61 C 87.91 131.78 87.37 132.61 87.54 133.45 C 87.72 134.30 88.54 134.84 89.39 134.67 L 90.10 134.52 C 90.94 134.34 91.48 133.52 91.31 132.67 C 91.13 131.83 90.31 131.29 89.46 131.46 Z M 87.87 132.14 L 87.35 132.77 C 86.80 133.43 86.89 134.42 87.55 134.97 C 88.22 135.52 89.20 135.42 89.75 134.76 L 90.27 134.13 C 90.82 133.47 90.73 132.48 90.06 131.93 C 89.40 131.38 88.42 131.48 87.87 132.14 Z M 87.03 133.42 L 86.81 134.39 C 86.62 135.24 87.14 136.07 87.98 136.26 C 88.83 136.45 89.66 135.92 89.85 135.08 L 90.07 134.11 C 90.26 133.27 89.73 132.43 88.89 132.24 C 88.05 132.05 87.22 132.58 87.03 133.42 Z M 86.77 134.66 L 86.71 135.78 C 86.67 136.64 87.33 137.37 88.19 137.42 C 89.05 137.46 89.79 136.80 89.83 135.94 L 89.89 134.82 C 89.93 133.96 89.27 133.22 88.41 133.18 C 87.55 133.13 86.81 133.80 86.77 134.66 Z M 86.71 135.84 L 86.70 136.85 C 86.68 137.71 87.37 138.42 88.23 138.43 C 89.10 138.45 89.80 137.76 89.82 136.89 L 89.83 135.88 C 89.84 135.02 89.16 134.31 88.29 134.30 C 87.43 134.28 86.72 134.97 86.71 135.84 Z M 86.70 136.87 L 86.69 137.85 C 86.69 138.71 87.39 139.41 88.25 139.42 C 89.11 139.42 89.81 138.72 89.81 137.86 L 89.82 136.88 C 89.82 136.02 89.12 135.31 88.26 135.31 C 87.40 135.31 86.70 136.00 86.70 136.87 Z M 86.69 137.87 L 86.70 138.87 C 86.71 139.73 87.41 140.42 88.27 140.41 C 89.14 140.41 89.83 139.70 89.82 138.84 L 89.81 137.84 C 89.81 136.98 89.10 136.29 88.24 136.29 C 87.38 136.30 86.69 137.01 86.69 137.87 Z M 86.70 138.88 L 86.72 139.85 C 86.73 140.71 87.44 141.40 88.31 141.38 C 89.17 141.37 89.86 140.66 89.84 139.80 L 89.82 138.82 C 89.81 137.96 89.09 137.28 88.23 137.29 C 87.37 137.31 86.68 138.02 86.70 138.88 Z M 86.72 139.86 L 86.74 140.81 C 86.76 141.67 87.48 142.36 88.34 142.33 C 89.20 142.31 89.88 141.60 89.86 140.73 L 89.84 139.78 C 89.82 138.92 89.10 138.24 88.24 138.26 C 87.38 138.28 86.70 139.00 86.72 139.86 Z M 86.74 140.82 L 86.77 141.82 C 86.80 142.68 87.52 143.36 88.38 143.33 C 89.24 143.31 89.92 142.59 89.89 141.73 L 89.86 140.73 C 89.84 139.87 89.12 139.19 88.26 139.21 C 87.40 139.24 86.72 139.96 86.74 140.82 Z M 86.77 141.82 L 86.80 142.87 C 86.83 143.73 87.55 144.41 88.41 144.38 C 89.27 144.36 89.95 143.64 89.92 142.78 L 89.89 141.73 C 89.87 140.86 89.15 140.19 88.28 140.21 C 87.42 140.24 86.74 140.96 86.77 141.82 Z M 86.80 142.87 L 86.83 143.87 C 86.86 144.73 87.58 145.41 88.44 145.38 C 89.30 145.35 89.98 144.63 89.95 143.77 L 89.92 142.78 C 89.90 141.91 89.18 141.24 88.32 141.26 C 87.45 141.29 86.78 142.01 86.80 142.87 Z M 86.83 143.86 L 86.86 144.80 C 86.89 145.66 87.60 146.34 88.47 146.32 C 89.33 146.29 90.01 145.57 89.98 144.71 L 89.95 143.77 C 89.93 142.91 89.21 142.23 88.35 142.26 C 87.49 142.28 86.81 143.00 86.83 143.86 Z M 86.86 144.80 L 86.89 145.78 C 86.91 146.64 87.63 147.32 88.49 147.29 C 89.35 147.27 90.03 146.55 90.01 145.69 L 89.98 144.71 C 89.96 143.85 89.24 143.17 88.38 143.19 C 87.52 143.22 86.84 143.94 86.86 144.80 Z M 86.89 145.77 L 86.92 146.80 C 86.94 147.66 87.66 148.34 88.52 148.31 C 89.38 148.29 90.06 147.57 90.04 146.71 L 90.01 145.69 C 89.99 144.83 89.27 144.15 88.41 144.17 C 87.54 144.19 86.86 144.91 86.89 145.77 Z M 86.92 146.79 L 86.94 147.87 C 86.96 148.73 87.68 149.41 88.54 149.39 C 89.40 149.36 90.09 148.65 90.06 147.79 L 90.04 146.71 C 90.01 145.85 89.30 145.17 88.44 145.19 C 87.57 145.22 86.89 145.93 86.92 146.79 Z M 86.94 147.86 L 86.97 148.85 C 86.99 149.71 87.70 150.39 88.56 150.37 C 89.43 150.35 90.11 149.64 90.09 148.77 L 90.06 147.79 C 90.04 146.93 89.33 146.24 88.47 146.27 C 87.60 146.29 86.92 147.00 86.94 147.86 Z M 86.97 148.85 L 86.99 149.80 C 87.01 150.66 87.72 151.34 88.58 151.32 C 89.45 151.30 90.13 150.59 90.11 149.72 L 90.09 148.78 C 90.07 147.91 89.35 147.23 88.49 147.25 C 87.63 147.27 86.95 147.99 86.97 148.85 Z M 86.99 149.79 L 87.01 150.77 C 87.03 151.63 87.74 152.32 88.60 152.30 C 89.46 152.28 90.15 151.57 90.13 150.71 L 90.11 149.73 C 90.09 148.86 89.38 148.18 88.52 148.20 C 87.65 148.22 86.97 148.93 86.99 149.79 Z M 87.01 150.77 L 87.03 151.78 C 87.04 152.64 87.76 153.32 88.62 153.31 C 89.48 153.29 90.17 152.58 90.15 151.72 L 90.13 150.71 C 90.11 149.85 89.40 149.16 88.54 149.18 C 87.68 149.19 86.99 149.91 87.01 150.77 Z M 87.03 151.77 L 87.04 152.81 C 87.06 153.67 87.77 154.36 88.63 154.34 C 89.49 154.33 90.18 153.62 90.17 152.76 L 90.15 151.72 C 90.14 150.86 89.43 150.17 88.56 150.19 C 87.70 150.20 87.01 150.91 87.03 151.77 Z M 87.04 152.80 L 87.06 153.86 C 87.07 154.72 87.78 155.41 88.64 155.40 C 89.50 155.39 90.19 154.68 90.18 153.82 L 90.17 152.76 C 90.15 151.90 89.45 151.21 88.58 151.22 C 87.72 151.23 87.03 151.94 87.04 152.80 Z M 87.06 153.85 L 87.07 154.85 C 87.08 155.71 87.78 156.40 88.64 156.39 C 89.51 156.38 90.20 155.68 90.19 154.82 L 90.18 153.82 C 90.17 152.96 89.47 152.27 88.60 152.28 C 87.74 152.29 87.05 152.99 87.06 153.85 Z M 87.07 154.84 L 87.07 155.81 C 87.08 156.67 87.78 157.36 88.65 157.36 C 89.51 157.35 90.20 156.65 90.20 155.79 L 90.19 154.82 C 90.18 153.96 89.48 153.26 88.62 153.27 C 87.76 153.28 87.06 153.98 87.07 154.84 Z M 87.07 155.80 L 87.08 156.78 C 87.08 157.65 87.79 158.34 88.65 158.34 C 89.51 158.33 90.21 157.63 90.20 156.77 L 90.20 155.79 C 90.19 154.93 89.49 154.23 88.63 154.24 C 87.77 154.24 87.07 154.94 87.07 155.80 Z M 87.08 156.78 L 87.08 157.78 C 87.08 158.64 87.79 159.34 88.65 159.33 C 89.51 159.33 90.21 158.63 90.20 157.77 L 90.20 156.77 C 90.20 155.91 89.50 155.21 88.64 155.22 C 87.77 155.22 87.08 155.92 87.08 156.78 Z M 87.08 157.77 L 87.08 158.79 C 87.08 159.65 87.78 160.35 88.65 160.34 C 89.51 160.34 90.21 159.64 90.21 158.78 L 90.20 157.77 C 90.20 156.91 89.50 156.21 88.64 156.21 C 87.78 156.21 87.08 156.91 87.08 157.77 Z M 87.08 158.78 L 87.08 159.81 C 87.08 160.67 87.78 161.37 88.65 161.37 C 89.51 161.37 90.21 160.67 90.21 159.81 L 90.21 158.78 C 90.21 157.92 89.51 157.22 88.64 157.22 C 87.78 157.22 87.08 157.92 87.08 158.78 Z M 87.08 159.81 L 87.08 160.86 C 87.08 161.72 87.78 162.42 88.65 162.42 C 89.51 162.42 90.21 161.72 90.21 160.86 L 90.21 159.81 C 90.21 158.95 89.51 158.25 88.64 158.25 C 87.78 158.25 87.08 158.95 87.08 159.81 Z M 87.08 160.86 L 87.08 161.83 C 87.08 162.69 87.78 163.39 88.65 163.39 C 89.51 163.39 90.21 162.69 90.21 161.83 L 90.21 160.86 C 90.21 159.99 89.51 159.29 88.65 159.29 C 87.78 159.29 87.08 159.99 87.08 160.86 Z M 87.08 161.83 L 87.08 162.81 C 87.08 163.67 87.78 164.37 88.65 164.37 C 89.51 164.37 90.21 163.67 90.21 162.81 L 90.21 161.83 C 90.21 160.97 89.51 160.27 88.65 160.27 C 87.78 160.27 87.08 160.97 87.08 161.83 Z M 87.08 162.81 L 87.08 163.80 C 87.08 164.66 87.78 165.36 88.65 165.36 C 89.51 165.36 90.21 164.66 90.21 163.80 L 90.21 162.81 C 90.21 161.95 89.51 161.25 88.65 161.25 C 87.78 161.25 87.08 161.95 87.08 162.81 Z M 87.08 163.80 L 87.08 164.80 C 87.08 165.66 87.78 166.36 88.65 166.36 C 89.51 166.36 90.21 165.66 90.21 164.80 L 90.21 163.80 C 90.21 162.94 89.51 162.24 88.65 162.24 C 87.78 162.24 87.08 162.94 87.08 163.80 Z M 87.08 164.80 L 87.08 165.81 C 87.08 166.67 87.78 167.37 88.65 167.37 C 89.51 167.37 90.21 166.67 90.21 165.81 L 90.21 164.80 C 90.21 163.93 89.51 163.24 88.65 163.24 C 87.78 163.24 87.08 163.93 87.08 164.80 Z M 87.08 165.81 L 87.08 166.82 C 87.08 167.68 87.78 168.38 88.65 168.38 C 89.51 168.38 90.21 167.68 90.21 166.82 L 90.21 165.81 C 90.21 164.94 89.51 164.24 88.65 164.24 C 87.78 164.24 87.08 164.94 87.08 165.81 Z M 87.08 166.82 L 87.08 167.85 C 87.08 168.71 87.78 169.41 88.65 169.41 C 89.51 169.41 90.21 168.71 90.21 167.85 L 90.21 166.82 C 90.21 165.96 89.51 165.26 88.65 165.26 C 87.78 165.26 87.08 165.96 87.08 166.82 Z M 87.08 167.85 L 87.08 168.86 C 87.08 169.72 87.78 170.42 88.65 170.42 C 89.51 170.42 90.21 169.72 90.21 168.86 L 90.21 167.85 C 90.21 166.98 89.51 166.28 88.65 166.28 C 87.78 166.28 87.08 166.98 87.08 167.85 Z M 87.08 168.86 L 87.08 169.86 C 87.08 170.72 87.78 171.42 88.65 171.42 C 89.51 171.42 90.21 170.72 90.21 169.86 L 90.21 168.86 C 90.21 168.00 89.51 167.30 88.65 167.30 C 87.78 167.30 87.08 168.00 87.08 168.86 Z M 87.08 169.86 L 87.08 170.86 C 87.08 171.72 87.78 172.42 88.65 172.42 C 89.51 172.42 90.21 171.72 90.21 170.86 L 90.21 169.86 C 90.21 169.00 89.51 168.30 88.65 168.30 C 87.78 168.30 87.08 169.00 87.08 169.86 Z M 87.08 170.86 L 87.08 171.86 C 87.08 172.72 87.78 173.42 88.65 173.42 C 89.51 173.42 90.21 172.72 90.21 171.86 L 90.21 170.86 C 90.21 170.00 89.51 169.30 88.65 169.30 C 87.78 169.30 87.08 170.00 87.08 170.86 Z M 87.08 171.86 L 87.08 172.86 C 87.08 173.73 87.78 174.43 88.65 174.43 C 89.51 174.43 90.21 173.73 90.21 172.86 L 90.21 171.86 C 90.21 171.00 89.51 170.30 88.65 170.30 C 87.78 170.30 87.08 171.00 87.08 171.86 Z M 87.08 172.86 L 87.08 173.87 C 87.08 174.73 87.78 175.43 88.65 175.43 C 89.51 175.43 90.21 174.73 90.21 173.87 L 90.21 172.86 C 90.21 172.00 89.51 171.30 88.65 171.30 C 87.78 171.30 87.08 172.00 87.08 172.86 Z M 87.08 173.87 L 87.08 174.87 C 87.08 175.73 87.78 176.43 88.65 176.43 C 89.51 176.43 90.21 175.73 90.21 174.87 L 90.21 173.87 C 90.21 173.00 89.51 172.31 88.65 172.31 C 87.78 172.31 87.08 173.00 87.08 173.87 Z M 87.08 174.87 L 87.08 175.86 C 87.08 176.73 87.78 177.43 88.65 177.43 C 89.51 177.43 90.21 176.73 90.21 175.86 L 90.21 174.87 C 90.21 174.00 89.51 173.31 88.65 173.31 C 87.78 173.31 87.08 174.00 87.08 174.87 Z M 87.08 175.86 L 87.08 176.88 C 87.08 177.74 87.78 178.44 88.65 178.44 C 89.51 178.44 90.21 177.74 90.21 176.88 L 90.21 175.86 C 90.21 175.00 89.51 174.30 88.65 174.30 C 87.78 174.30 87.08 175.00 87.08 175.86 Z M 87.08 176.88 L 87.08 177.89 C 87.08 178.76 87.78 179.46 88.64 179.46 C 89.51 179.46 90.21 178.76 90.21 177.90 L 90.21 176.88 C 90.21 176.02 89.51 175.32 88.65 175.32 C 87.78 175.32 87.08 176.01 87.08 176.88 Z M 87.08 177.89 L 87.08 178.91 C 87.08 179.77 87.78 180.47 88.64 180.47 C 89.51 180.47 90.20 179.77 90.21 178.91 L 90.21 177.90 C 90.21 177.03 89.51 176.33 88.65 176.33 C 87.78 176.33 87.08 177.03 87.08 177.89 Z M 87.08 178.90 L 87.08 179.91 C 87.08 180.77 87.78 181.47 88.64 181.47 C 89.50 181.47 90.20 180.78 90.20 179.91 L 90.21 178.91 C 90.21 178.05 89.51 177.35 88.65 177.35 C 87.78 177.34 87.08 178.04 87.08 178.90 Z M 87.08 179.91 L 87.08 180.91 C 87.08 181.77 87.77 182.47 88.64 182.47 C 89.50 182.47 90.20 181.78 90.20 180.92 L 90.20 179.92 C 90.21 179.05 89.51 178.35 88.65 178.35 C 87.78 178.35 87.08 179.05 87.08 179.91 Z M 87.08 180.90 L 87.07 181.90 C 87.07 182.76 87.77 183.46 88.63 183.46 C 89.49 183.47 90.19 182.77 90.20 181.91 L 90.20 180.92 C 90.20 180.06 89.51 179.35 88.65 179.35 C 87.78 179.35 87.08 180.04 87.08 180.90 Z M 87.07 181.89 L 87.07 182.88 C 87.06 183.74 87.76 184.44 88.62 184.45 C 89.48 184.45 90.19 183.76 90.19 182.89 L 90.20 181.91 C 90.20 181.05 89.51 180.35 88.65 180.34 C 87.78 180.34 87.08 181.03 87.07 181.89 Z M 87.07 182.87 L 87.06 183.85 C 87.05 184.72 87.75 185.42 88.61 185.43 C 89.47 185.43 90.18 184.74 90.18 183.88 L 90.19 182.90 C 90.20 182.04 89.50 181.33 88.64 181.32 C 87.78 181.32 87.08 182.01 87.07 182.87 Z M 87.06 183.85 L 87.05 184.86 C 87.04 185.73 87.73 186.43 88.59 186.44 C 89.46 186.45 90.16 185.76 90.17 184.90 L 90.18 183.88 C 90.19 183.02 89.50 182.31 88.64 182.30 C 87.78 182.30 87.07 182.99 87.06 183.85 Z M 87.05 184.86 L 87.04 185.87 C 87.02 186.73 87.71 187.44 88.58 187.45 C 89.44 187.46 90.15 186.77 90.16 185.91 L 90.17 184.90 C 90.18 184.04 89.49 183.33 88.63 183.32 C 87.77 183.31 87.06 184.00 87.05 184.86 Z M 87.04 185.86 L 87.02 186.86 C 87.00 187.72 87.69 188.43 88.55 188.45 C 89.41 188.46 90.13 187.78 90.14 186.92 L 90.16 185.91 C 90.17 185.05 89.49 184.34 88.62 184.33 C 87.76 184.31 87.05 185.00 87.04 185.86 Z M 87.02 186.86 L 87.00 187.85 C 86.98 188.71 87.66 189.43 88.53 189.44 C 89.39 189.46 90.10 188.78 90.12 187.92 L 90.14 186.92 C 90.16 186.06 89.47 185.35 88.61 185.33 C 87.75 185.31 87.04 185.99 87.02 186.86 Z M 87.00 187.84 L 86.97 188.84 C 86.95 189.70 87.63 190.42 88.49 190.44 C 89.36 190.46 90.07 189.78 90.09 188.92 L 90.12 187.92 C 90.14 187.06 89.46 186.35 88.60 186.32 C 87.74 186.30 87.02 186.98 87.00 187.84 Z M 86.97 188.83 L 86.94 189.82 C 86.92 190.68 87.59 191.40 88.46 191.43 C 89.32 191.45 90.04 190.78 90.06 189.92 L 90.09 188.92 C 90.12 188.06 89.44 187.34 88.58 187.32 C 87.72 187.29 87.00 187.97 86.97 188.83 Z M 86.94 189.81 L 86.91 190.81 C 86.88 191.67 87.55 192.39 88.41 192.42 C 89.28 192.45 90.00 191.78 90.03 190.92 L 90.06 189.92 C 90.09 189.06 89.42 188.34 88.56 188.31 C 87.70 188.28 86.97 188.95 86.94 189.81 Z M 86.91 190.80 L 86.87 191.85 C 86.83 192.71 87.50 193.43 88.36 193.47 C 89.23 193.50 89.95 192.83 89.99 191.97 L 90.03 190.92 C 90.06 190.06 89.39 189.34 88.53 189.30 C 87.67 189.27 86.94 189.94 86.91 190.80 Z M 86.87 191.84 L 86.82 192.88 C 86.78 193.74 87.45 194.47 88.31 194.51 C 89.17 194.55 89.90 193.88 89.94 193.02 L 89.99 191.98 C 90.02 191.12 89.36 190.39 88.50 190.35 C 87.63 190.31 86.91 190.98 86.87 191.84 Z M 86.82 192.88 L 86.77 193.91 C 86.73 194.77 87.40 195.50 88.26 195.54 C 89.12 195.58 89.85 194.92 89.89 194.06 L 89.94 193.02 C 89.98 192.16 89.32 191.43 88.45 191.39 C 87.59 191.35 86.86 192.02 86.82 192.88 Z M 86.77 193.91 L 86.72 194.92 C 86.68 195.78 87.35 196.51 88.21 196.55 C 89.07 196.59 89.80 195.93 89.84 195.07 L 89.89 194.06 C 89.93 193.20 89.27 192.47 88.41 192.42 C 87.55 192.38 86.82 193.05 86.77 193.91 Z M 86.72 194.92 L 86.68 195.90 C 86.64 196.76 87.30 197.49 88.16 197.54 C 89.02 197.58 89.75 196.91 89.80 196.05 L 89.84 195.07 C 89.89 194.21 89.22 193.48 88.36 193.43 C 87.50 193.39 86.77 194.06 86.72 194.92 Z M 86.68 195.90 L 86.63 196.85 C 86.59 197.71 87.26 198.44 88.12 198.48 C 88.98 198.52 89.71 197.86 89.75 197.00 L 89.80 196.05 C 89.84 195.19 89.17 194.46 88.31 194.42 C 87.45 194.38 86.72 195.04 86.68 195.90 Z M 86.63 196.85 L 86.59 197.82 C 86.55 198.68 87.22 199.41 88.08 199.45 C 88.94 199.49 89.67 198.82 89.71 197.96 L 89.75 196.99 C 89.79 196.13 89.12 195.40 88.26 195.36 C 87.40 195.33 86.67 195.99 86.63 196.85 Z M 86.59 197.83 L 86.54 198.93 C 86.51 199.80 87.18 200.52 88.04 200.56 C 88.90 200.59 89.63 199.92 89.66 199.06 L 89.71 197.95 C 89.74 197.09 89.07 196.36 88.21 196.33 C 87.35 196.29 86.62 196.96 86.59 197.83 Z M 86.54 198.94 L 86.51 199.98 C 86.48 200.84 87.15 201.57 88.01 201.60 C 88.88 201.63 89.60 200.95 89.63 200.09 L 89.66 199.05 C 89.69 198.19 89.02 197.47 88.16 197.44 C 87.30 197.41 86.57 198.08 86.54 198.94 Z M 86.51 199.99 L 86.48 200.97 C 86.45 201.83 87.13 202.55 88.00 202.58 C 88.86 202.60 89.58 201.92 89.60 201.06 L 89.63 200.08 C 89.65 199.22 88.97 198.50 88.11 198.48 C 87.25 198.45 86.53 199.13 86.51 199.99 Z M 86.48 200.98 L 86.46 201.91 C 86.44 202.78 87.12 203.49 87.98 203.51 C 88.85 203.53 89.56 202.85 89.58 201.98 L 89.60 201.05 C 89.62 200.19 88.94 199.47 88.08 199.46 C 87.21 199.44 86.50 200.12 86.48 200.98 Z M 86.46 201.92 L 86.44 202.82 C 86.43 203.69 87.12 204.40 87.98 204.41 C 88.84 204.43 89.55 203.74 89.56 202.88 L 89.58 201.98 C 89.59 201.11 88.91 200.40 88.05 200.39 C 87.18 200.37 86.47 201.06 86.46 201.92 Z M 86.44 202.83 L 86.43 203.82 C 86.42 204.68 87.11 205.39 87.97 205.40 C 88.84 205.41 89.55 204.71 89.56 203.85 L 89.57 202.87 C 89.58 202.01 88.88 201.30 88.02 201.29 C 87.16 201.28 86.45 201.97 86.44 202.83 Z M 86.43 203.82 L 86.42 204.80 C 86.41 205.66 87.11 206.37 87.98 206.37 C 88.84 206.38 89.55 205.68 89.55 204.82 L 89.56 203.84 C 89.57 202.98 88.87 202.27 88.00 202.27 C 87.14 202.26 86.43 202.96 86.43 203.82 Z M 86.41 204.80 L 86.41 205.79 C 86.41 206.66 87.11 207.36 87.98 207.37 C 88.85 207.37 89.55 206.67 89.55 205.80 L 89.56 204.81 C 89.56 203.94 88.86 203.24 87.99 203.24 C 87.12 203.23 86.42 203.93 86.41 204.80 Z M 86.41 205.79 L 86.41 206.81 C 86.41 207.68 87.11 208.39 87.98 208.39 C 88.85 208.39 89.56 207.69 89.56 206.82 L 89.56 205.80 C 89.56 204.93 88.85 204.22 87.98 204.22 C 87.11 204.22 86.41 204.92 86.41 205.79 Z M 86.40 206.82 L 86.40 207.86 C 86.40 208.73 87.11 209.44 87.98 209.44 C 88.85 209.44 89.56 208.73 89.56 207.86 L 89.56 206.82 C 89.56 205.94 88.85 205.24 87.98 205.24 C 87.11 205.24 86.40 205.94 86.40 206.82 Z M 86.40 207.87 L 86.41 208.91 C 86.41 209.79 87.13 210.49 88.00 210.48 C 88.87 210.48 89.58 209.76 89.57 208.89 L 89.56 207.85 C 89.56 206.97 88.85 206.27 87.97 206.28 C 87.10 206.28 86.39 207.00 86.40 207.87 Z M 86.41 208.94 L 86.43 209.99 C 86.46 210.86 87.18 211.55 88.06 211.53 C 88.93 211.51 89.62 210.78 89.60 209.91 L 89.57 208.86 C 89.55 207.99 88.82 207.30 87.95 207.32 C 87.07 207.34 86.38 208.07 86.41 208.94 Z M 86.43 210.05 L 86.50 211.06 C 86.55 211.93 87.30 212.60 88.18 212.54 C 89.05 212.49 89.72 211.74 89.66 210.86 L 89.60 209.85 C 89.55 208.98 88.79 208.31 87.92 208.37 C 87.05 208.42 86.38 209.17 86.43 210.05 Z M 86.50 211.15 L 86.61 212.09 C 86.72 212.96 87.51 213.58 88.38 213.48 C 89.25 213.38 89.87 212.59 89.77 211.72 L 89.66 210.77 C 89.55 209.90 88.76 209.28 87.89 209.38 C 87.02 209.49 86.40 210.28 86.50 211.15 Z M 86.64 212.25 L 86.86 213.25 C 87.05 214.10 87.90 214.65 88.76 214.46 C 89.61 214.27 90.16 213.42 89.97 212.56 L 89.74 211.56 C 89.55 210.70 88.70 210.16 87.85 210.35 C 86.99 210.54 86.45 211.39 86.64 212.25 Z M 86.93 213.48 L 87.30 214.46 C 87.62 215.28 88.54 215.68 89.36 215.37 C 90.18 215.05 90.59 214.13 90.28 213.31 L 89.90 212.33 C 89.58 211.51 88.66 211.10 87.84 211.42 C 87.02 211.73 86.61 212.66 86.93 213.48 Z M 87.40 214.66 L 87.86 215.48 C 88.29 216.25 89.26 216.53 90.03 216.10 C 90.80 215.67 91.07 214.69 90.64 213.93 L 90.18 213.10 C 89.75 212.33 88.78 212.06 88.01 212.49 C 87.24 212.92 86.97 213.89 87.40 214.66 Z M 87.92 215.59 L 88.37 216.28 C 88.86 217.01 89.86 217.21 90.59 216.72 C 91.33 216.23 91.53 215.24 91.04 214.50 L 90.58 213.82 C 90.09 213.08 89.10 212.88 88.36 213.37 C 87.63 213.86 87.43 214.86 87.92 215.59 Z"
      fill="black"
      fill-rule="nonzero" /><path d="M 96.30 98.39 L 96.21 97.13 C 96.14 96.28 95.39 95.63 94.53 95.70 C 93.67 95.76 93.03 96.51 93.09 97.37 L 93.19 98.63 C 93.25 99.49 94.00 100.14 94.86 100.07 C 95.72 100.00 96.37 99.25 96.30 98.39 Z M 96.21 97.24 L 96.20 96.13 C 96.20 95.27 95.49 94.58 94.63 94.58 C 93.77 94.59 93.07 95.29 93.08 96.16 L 93.09 97.26 C 93.10 98.13 93.80 98.82 94.66 98.81 C 95.52 98.81 96.22 98.10 96.21 97.24 Z M 96.17 96.46 L 96.34 95.66 C 96.51 94.81 95.97 93.99 95.12 93.81 C 94.28 93.64 93.45 94.18 93.28 95.02 L 93.11 95.83 C 92.94 96.67 93.48 97.50 94.33 97.67 C 95.17 97.85 96.00 97.31 96.17 96.46 Z M 95.81 96.54 L 96.23 96.19 C 96.89 95.64 96.98 94.65 96.43 93.99 C 95.87 93.33 94.89 93.24 94.23 93.79 L 93.81 94.14 C 93.15 94.69 93.06 95.68 93.61 96.34 C 94.16 97.00 95.14 97.09 95.81 96.54 Z M 94.93 96.52 L 95.60 96.66 C 96.45 96.82 97.27 96.27 97.43 95.43 C 97.60 94.58 97.05 93.76 96.20 93.59 L 95.53 93.46 C 94.68 93.29 93.86 93.84 93.70 94.69 C 93.53 95.54 94.08 96.36 94.93 96.52 Z M 95.10 96.46 L 95.97 96.98 C 96.71 97.43 97.67 97.19 98.11 96.45 C 98.55 95.71 98.31 94.75 97.57 94.31 L 96.70 93.79 C 95.97 93.34 95.01 93.58 94.56 94.32 C 94.12 95.06 94.36 96.02 95.10 96.46 Z M 95.77 96.85 L 96.76 97.66 C 97.43 98.21 98.41 98.12 98.96 97.45 C 99.51 96.79 99.41 95.81 98.75 95.26 L 97.76 94.44 C 97.10 93.89 96.12 93.98 95.57 94.65 C 95.02 95.31 95.11 96.30 95.77 96.85 Z M 96.67 97.58 L 97.44 98.33 C 98.06 98.93 99.05 98.92 99.65 98.30 C 100.25 97.68 100.24 96.69 99.62 96.09 L 98.84 95.34 C 98.22 94.74 97.24 94.75 96.63 95.37 C 96.03 95.99 96.05 96.98 96.67 97.58 Z M 97.39 98.28 L 98.04 98.97 C 98.64 99.60 99.62 99.63 100.25 99.04 C 100.88 98.45 100.91 97.46 100.32 96.83 L 99.67 96.14 C 99.07 95.51 98.09 95.48 97.46 96.08 C 96.83 96.67 96.80 97.65 97.39 98.28 Z M 98.01 98.94 L 98.67 99.67 C 99.24 100.32 100.23 100.38 100.87 99.81 C 101.52 99.23 101.57 98.25 101.00 97.60 L 100.35 96.86 C 99.77 96.22 98.79 96.16 98.14 96.73 C 97.50 97.31 97.44 98.29 98.01 98.94 Z M 98.65 99.65 L 99.31 100.42 C 99.86 101.08 100.85 101.16 101.51 100.60 C 102.16 100.04 102.24 99.06 101.68 98.40 L 101.02 97.63 C 100.47 96.97 99.48 96.89 98.82 97.45 C 98.17 98.01 98.09 98.99 98.65 99.65 Z M 99.29 100.41 L 99.95 101.21 C 100.50 101.87 101.49 101.97 102.15 101.42 C 102.82 100.87 102.91 99.88 102.36 99.22 L 101.70 98.42 C 101.15 97.75 100.16 97.66 99.50 98.21 C 98.83 98.76 98.74 99.74 99.29 100.41 Z M 99.95 101.20 L 100.61 102.01 C 101.15 102.68 102.14 102.78 102.81 102.24 C 103.47 101.69 103.58 100.71 103.03 100.04 L 102.37 99.23 C 101.82 98.56 100.84 98.46 100.17 99.00 C 99.50 99.55 99.40 100.53 99.95 101.20 Z M 100.61 102.01 L 100.83 102.28 C 101.37 102.95 102.35 103.05 103.02 102.51 C 103.69 101.97 103.80 100.99 103.25 100.32 L 103.03 100.04 C 102.49 99.38 101.51 99.27 100.84 99.82 C 100.17 100.36 100.06 101.34 100.61 102.01 Z"
      fill="black"
      fill-rule="nonzero" /><path d="M 187.62 145.24 L 186.57 145.21 C 185.71 145.19 184.99 145.87 184.96 146.73 C 184.94 147.59 185.62 148.31 186.48 148.33 L 187.54 148.36 C 188.40 148.39 189.12 147.71 189.14 146.85 C 189.16 145.98 188.48 145.27 187.62 145.24 Z M 186.49 145.21 L 185.47 145.24 C 184.61 145.26 183.92 145.97 183.94 146.83 C 183.96 147.69 184.68 148.38 185.54 148.36 L 186.56 148.33 C 187.42 148.31 188.11 147.60 188.09 146.74 C 188.07 145.88 187.35 145.19 186.49 145.21 Z M 185.30 145.25 L 184.34 145.38 C 183.49 145.49 182.89 146.28 183.00 147.13 C 183.12 147.99 183.91 148.59 184.76 148.47 L 185.71 148.34 C 186.57 148.23 187.17 147.44 187.05 146.59 C 186.94 145.73 186.15 145.13 185.30 145.25 Z M 184.06 145.44 L 183.21 145.73 C 182.39 146.00 181.95 146.89 182.22 147.70 C 182.49 148.52 183.38 148.96 184.20 148.69 L 185.05 148.41 C 185.86 148.13 186.31 147.25 186.03 146.43 C 185.76 145.61 184.87 145.17 184.06 145.44 Z M 182.87 145.89 L 182.12 146.36 C 181.39 146.82 181.17 147.78 181.62 148.51 C 182.08 149.24 183.05 149.46 183.78 149.01 L 184.53 148.53 C 185.26 148.07 185.48 147.11 185.02 146.38 C 184.56 145.65 183.60 145.43 182.87 145.89 Z M 181.86 146.56 L 181.15 147.25 C 180.53 147.85 180.51 148.84 181.11 149.46 C 181.71 150.08 182.70 150.09 183.32 149.49 L 184.03 148.81 C 184.65 148.21 184.67 147.22 184.07 146.60 C 183.47 145.98 182.48 145.96 181.86 146.56 Z M 181.00 147.42 L 180.29 148.34 C 179.76 149.02 179.88 150.00 180.57 150.53 C 181.25 151.06 182.23 150.93 182.76 150.25 L 183.47 149.33 C 184.00 148.65 183.87 147.66 183.19 147.14 C 182.51 146.61 181.53 146.73 181.00 147.42 Z M 180.22 148.43 L 179.72 149.18 C 179.24 149.90 179.44 150.87 180.16 151.35 C 180.88 151.82 181.84 151.63 182.32 150.91 L 182.82 150.16 C 183.30 149.44 183.10 148.47 182.39 147.99 C 181.67 147.52 180.70 147.71 180.22 148.43 Z M 179.69 149.23 L 179.18 150.06 C 178.73 150.80 178.96 151.76 179.70 152.21 C 180.43 152.66 181.40 152.43 181.85 151.69 L 182.35 150.86 C 182.80 150.13 182.57 149.17 181.84 148.72 C 181.10 148.27 180.14 148.50 179.69 149.23 Z M 179.16 150.10 L 178.65 150.98 C 178.22 151.73 178.47 152.69 179.22 153.12 C 179.97 153.55 180.92 153.29 181.35 152.54 L 181.87 151.66 C 182.30 150.91 182.04 149.95 181.29 149.52 C 180.55 149.09 179.59 149.35 179.16 150.10 Z M 178.63 151.01 L 178.13 151.93 C 177.71 152.68 177.99 153.63 178.74 154.05 C 179.50 154.47 180.45 154.19 180.86 153.44 L 181.37 152.52 C 181.79 151.76 181.51 150.81 180.76 150.40 C 180.00 149.98 179.05 150.25 178.63 151.01 Z M 178.12 151.95 L 177.63 152.87 C 177.22 153.63 177.51 154.58 178.27 154.98 C 179.03 155.39 179.98 155.10 180.38 154.34 L 180.87 153.42 C 181.28 152.66 180.99 151.71 180.23 151.30 C 179.47 150.90 178.52 151.19 178.12 151.95 Z M 177.62 152.89 L 177.15 153.79 C 176.75 154.55 177.05 155.50 177.82 155.89 C 178.58 156.29 179.52 155.99 179.92 155.23 L 180.39 154.32 C 180.79 153.56 180.49 152.62 179.72 152.22 C 178.96 151.82 178.01 152.12 177.62 152.89 Z M 177.14 153.80 L 176.70 154.68 C 176.30 155.45 176.61 156.39 177.38 156.78 C 178.15 157.17 179.09 156.87 179.48 156.10 L 179.93 155.22 C 180.32 154.45 180.01 153.51 179.24 153.12 C 178.47 152.73 177.53 153.03 177.14 153.80 Z M 176.69 154.69 L 176.25 155.57 C 175.87 156.34 176.18 157.27 176.95 157.66 C 177.72 158.04 178.66 157.73 179.05 156.96 L 179.48 156.09 C 179.87 155.32 179.56 154.38 178.79 153.99 C 178.01 153.61 177.08 153.92 176.69 154.69 Z M 176.25 155.57 L 175.81 156.45 C 175.43 157.23 175.75 158.16 176.52 158.54 C 177.30 158.93 178.23 158.61 178.61 157.84 L 179.05 156.95 C 179.43 156.18 179.12 155.25 178.34 154.86 C 177.57 154.48 176.63 154.80 176.25 155.57 Z M 175.81 156.46 L 175.37 157.36 C 174.99 158.14 175.31 159.07 176.08 159.45 C 176.85 159.83 177.79 159.52 178.17 158.74 L 178.62 157.83 C 179.00 157.06 178.68 156.13 177.90 155.74 C 177.13 155.36 176.19 155.68 175.81 156.46 Z M 175.37 157.36 L 174.92 158.26 C 174.54 159.03 174.86 159.97 175.63 160.35 C 176.41 160.73 177.34 160.41 177.73 159.64 L 178.17 158.74 C 178.55 157.97 178.23 157.03 177.46 156.65 C 176.69 156.27 175.75 156.59 175.37 157.36 Z M 174.93 158.26 L 174.52 159.08 C 174.14 159.85 174.45 160.79 175.23 161.17 C 176.00 161.55 176.93 161.24 177.32 160.47 L 177.72 159.64 C 178.11 158.87 177.79 157.93 177.02 157.55 C 176.24 157.17 175.31 157.49 174.93 158.26 Z M 174.52 159.08 L 174.10 159.93 C 173.71 160.70 174.03 161.64 174.80 162.03 C 175.57 162.41 176.51 162.09 176.89 161.32 L 177.32 160.47 C 177.70 159.70 177.39 158.76 176.61 158.38 C 175.84 157.99 174.90 158.31 174.52 159.08 Z M 174.10 159.93 L 173.65 160.82 C 173.27 161.59 173.58 162.53 174.35 162.91 C 175.13 163.30 176.06 162.98 176.45 162.21 L 176.89 161.33 C 177.28 160.55 176.96 159.62 176.19 159.23 C 175.42 158.85 174.48 159.16 174.10 159.93 Z M 173.66 160.81 L 173.20 161.73 C 172.81 162.50 173.12 163.44 173.89 163.82 C 174.67 164.21 175.60 163.90 175.99 163.13 L 176.45 162.21 C 176.83 161.44 176.52 160.50 175.75 160.12 C 174.98 159.73 174.04 160.04 173.66 160.81 Z M 173.20 161.73 L 172.73 162.67 C 172.34 163.44 172.65 164.38 173.42 164.76 C 174.19 165.15 175.13 164.84 175.52 164.07 L 175.99 163.13 C 176.38 162.36 176.06 161.42 175.29 161.03 C 174.52 160.65 173.59 160.96 173.20 161.73 Z M 172.73 162.67 L 172.24 163.63 C 171.85 164.40 172.16 165.34 172.93 165.73 C 173.70 166.12 174.64 165.81 175.03 165.04 L 175.51 164.07 C 175.90 163.30 175.59 162.36 174.82 161.97 C 174.05 161.59 173.11 161.90 172.73 162.67 Z M 172.24 163.63 L 171.81 164.48 C 171.42 165.25 171.73 166.19 172.50 166.58 C 173.27 166.97 174.21 166.66 174.60 165.89 L 175.03 165.04 C 175.42 164.27 175.11 163.33 174.34 162.94 C 173.57 162.55 172.63 162.86 172.24 163.63 Z M 171.81 164.48 L 171.38 165.33 C 170.99 166.10 171.30 167.04 172.06 167.43 C 172.83 167.82 173.77 167.51 174.16 166.74 L 174.59 165.89 C 174.98 165.13 174.68 164.19 173.91 163.80 C 173.14 163.41 172.20 163.71 171.81 164.48 Z M 171.38 165.33 L 170.94 166.19 C 170.55 166.96 170.85 167.90 171.62 168.29 C 172.39 168.69 173.33 168.38 173.72 167.61 L 174.16 166.75 C 174.55 165.98 174.25 165.04 173.48 164.65 C 172.71 164.26 171.77 164.56 171.38 165.33 Z M 170.94 166.19 L 170.49 167.07 C 170.09 167.84 170.40 168.78 171.16 169.17 C 171.93 169.57 172.87 169.26 173.27 168.50 L 173.72 167.62 C 174.11 166.85 173.81 165.91 173.04 165.51 C 172.27 165.12 171.33 165.42 170.94 166.19 Z M 170.49 167.07 L 170.03 167.97 C 169.63 168.73 169.93 169.67 170.70 170.07 C 171.46 170.46 172.40 170.16 172.80 169.40 L 173.26 168.50 C 173.66 167.74 173.36 166.79 172.59 166.40 C 171.83 166.00 170.89 166.30 170.49 167.07 Z M 170.03 167.96 L 169.55 168.87 C 169.15 169.64 169.45 170.58 170.22 170.98 C 170.98 171.38 171.92 171.08 172.32 170.32 L 172.80 169.40 C 173.20 168.64 172.90 167.70 172.13 167.30 C 171.37 166.90 170.43 167.20 170.03 167.96 Z M 169.56 168.87 L 169.07 169.80 C 168.67 170.56 168.96 171.51 169.72 171.91 C 170.49 172.31 171.43 172.01 171.83 171.25 L 172.32 170.32 C 172.72 169.56 172.43 168.61 171.66 168.21 C 170.90 167.81 169.96 168.11 169.56 168.87 Z M 169.07 169.79 L 168.58 170.72 C 168.18 171.48 168.47 172.42 169.23 172.83 C 169.99 173.23 170.93 172.94 171.34 172.18 L 171.83 171.26 C 172.23 170.50 171.94 169.55 171.18 169.15 C 170.42 168.74 169.47 169.03 169.07 169.79 Z M 168.58 170.71 L 168.12 171.58 C 167.71 172.34 168.00 173.29 168.76 173.69 C 169.52 174.10 170.46 173.81 170.87 173.05 L 171.34 172.19 C 171.74 171.43 171.46 170.48 170.70 170.07 C 169.94 169.67 168.99 169.95 168.58 170.71 Z M 168.12 171.57 L 167.65 172.45 C 167.24 173.21 167.52 174.16 168.28 174.57 C 169.04 174.98 169.98 174.69 170.39 173.94 L 170.87 173.06 C 171.28 172.30 171.00 171.35 170.24 170.94 C 169.48 170.53 168.53 170.82 168.12 171.57 Z M 167.65 172.45 L 167.17 173.33 C 166.76 174.09 167.03 175.03 167.79 175.45 C 168.55 175.86 169.50 175.58 169.91 174.82 L 170.39 173.94 C 170.80 173.18 170.52 172.24 169.77 171.82 C 169.01 171.41 168.06 171.69 167.65 172.45 Z M 167.17 173.32 L 166.68 174.21 C 166.27 174.96 166.54 175.91 167.30 176.33 C 168.06 176.75 169.00 176.47 169.42 175.71 L 169.91 174.83 C 170.32 174.07 170.05 173.12 169.29 172.71 C 168.54 172.29 167.59 172.57 167.17 173.32 Z M 166.69 174.20 L 166.20 175.09 C 165.78 175.84 166.05 176.79 166.80 177.21 C 167.56 177.63 168.51 177.36 168.93 176.60 L 169.42 175.72 C 169.84 174.97 169.56 174.01 168.81 173.60 C 168.06 173.18 167.11 173.45 166.69 174.20 Z M 166.20 175.08 L 165.71 175.96 C 165.29 176.72 165.55 177.67 166.31 178.09 C 167.06 178.51 168.01 178.24 168.43 177.49 L 168.92 176.61 C 169.35 175.86 169.08 174.90 168.32 174.48 C 167.57 174.06 166.62 174.33 166.20 175.08 Z M 165.71 175.96 L 165.22 176.83 C 164.79 177.58 165.06 178.53 165.81 178.96 C 166.56 179.38 167.51 179.12 167.94 178.36 L 168.43 177.49 C 168.85 176.74 168.59 175.79 167.84 175.37 C 167.09 174.94 166.13 175.21 165.71 175.96 Z M 165.22 176.82 L 164.73 177.68 C 164.30 178.43 164.56 179.39 165.31 179.81 C 166.06 180.24 167.02 179.98 167.44 179.23 L 167.93 178.37 C 168.36 177.62 168.10 176.67 167.35 176.24 C 166.60 175.81 165.65 176.07 165.22 176.82 Z M 164.73 177.68 L 164.22 178.57 C 163.79 179.32 164.04 180.28 164.79 180.71 C 165.54 181.14 166.49 180.88 166.92 180.13 L 167.44 179.24 C 167.87 178.49 167.61 177.54 166.87 177.11 C 166.12 176.67 165.16 176.93 164.73 177.68 Z M 164.22 178.57 L 163.70 179.46 C 163.27 180.20 163.52 181.16 164.27 181.59 C 165.01 182.03 165.97 181.77 166.40 181.03 L 166.92 180.14 C 167.35 179.39 167.10 178.44 166.36 178.00 C 165.61 177.57 164.65 177.82 164.22 178.57 Z M 163.71 179.45 L 163.19 180.33 C 162.76 181.07 163.01 182.03 163.75 182.47 C 164.49 182.90 165.45 182.65 165.89 181.91 L 166.40 181.03 C 166.84 180.29 166.59 179.33 165.84 178.90 C 165.10 178.46 164.14 178.71 163.71 179.45 Z M 163.20 180.33 L 162.68 181.19 C 162.25 181.93 162.49 182.89 163.23 183.33 C 163.98 183.77 164.93 183.52 165.37 182.78 L 165.88 181.91 C 166.32 181.17 166.08 180.21 165.33 179.78 C 164.59 179.34 163.63 179.58 163.20 180.33 Z M 162.69 181.18 L 162.18 182.04 C 161.74 182.78 161.98 183.74 162.72 184.18 C 163.46 184.62 164.42 184.37 164.86 183.63 L 165.37 182.78 C 165.81 182.04 165.57 181.08 164.83 180.64 C 164.09 180.20 163.13 180.44 162.69 181.18 Z M 162.18 182.03 L 161.68 182.88 C 161.24 183.62 161.48 184.58 162.22 185.02 C 162.96 185.46 163.92 185.22 164.36 184.48 L 164.86 183.64 C 165.30 182.90 165.06 181.94 164.32 181.50 C 163.58 181.05 162.62 181.29 162.18 182.03 Z M 161.68 182.88 L 161.18 183.71 C 160.73 184.45 160.97 185.41 161.71 185.85 C 162.45 186.30 163.41 186.06 163.86 185.32 L 164.36 184.48 C 164.80 183.74 164.56 182.78 163.82 182.34 C 163.08 181.90 162.12 182.14 161.68 182.88 Z M 161.18 183.71 L 160.68 184.54 C 160.24 185.28 160.47 186.24 161.21 186.68 C 161.95 187.13 162.91 186.89 163.36 186.15 L 163.85 185.32 C 164.30 184.58 164.06 183.62 163.32 183.18 C 162.58 182.73 161.62 182.97 161.18 183.71 Z M 160.68 184.54 L 160.15 185.41 C 159.71 186.15 159.95 187.11 160.69 187.56 C 161.42 188.00 162.38 187.76 162.83 187.02 L 163.35 186.15 C 163.80 185.41 163.56 184.45 162.82 184.01 C 162.08 183.56 161.12 183.80 160.68 184.54 Z M 160.15 185.41 L 159.63 186.28 C 159.18 187.02 159.42 187.98 160.16 188.43 C 160.90 188.87 161.86 188.63 162.30 187.89 L 162.83 187.02 C 163.27 186.29 163.04 185.33 162.30 184.88 C 161.56 184.44 160.60 184.67 160.15 185.41 Z M 159.63 186.28 L 159.11 187.14 C 158.66 187.88 158.90 188.84 159.64 189.29 C 160.37 189.73 161.33 189.50 161.78 188.76 L 162.30 187.90 C 162.75 187.16 162.51 186.20 161.77 185.75 C 161.04 185.31 160.08 185.54 159.63 186.28 Z M 159.11 187.14 L 158.59 188.00 C 158.14 188.74 158.38 189.70 159.11 190.14 C 159.85 190.59 160.81 190.36 161.26 189.62 L 161.78 188.76 C 162.23 188.03 161.99 187.07 161.25 186.62 C 160.52 186.17 159.56 186.41 159.11 187.14 Z M 158.59 188.00 L 158.07 188.85 C 157.62 189.58 157.86 190.54 158.59 190.99 C 159.33 191.44 160.29 191.21 160.74 190.47 L 161.26 189.62 C 161.70 188.89 161.47 187.93 160.74 187.48 C 160.00 187.03 159.04 187.26 158.59 188.00 Z M 158.07 188.85 L 157.56 189.69 C 157.11 190.42 157.34 191.38 158.07 191.83 C 158.81 192.28 159.77 192.05 160.22 191.32 L 160.74 190.48 C 161.19 189.74 160.96 188.78 160.22 188.33 C 159.48 187.88 158.52 188.11 158.07 188.85 Z M 157.56 189.68 L 157.05 190.52 C 156.60 191.25 156.82 192.21 157.56 192.66 C 158.29 193.12 159.25 192.89 159.71 192.15 L 160.22 191.32 C 160.67 190.59 160.44 189.62 159.71 189.17 C 158.97 188.72 158.01 188.95 157.56 189.68 Z M 157.05 190.51 L 156.52 191.37 C 156.06 192.10 156.29 193.07 157.02 193.52 C 157.76 193.97 158.72 193.75 159.17 193.02 L 159.70 192.16 C 160.16 191.42 159.93 190.46 159.20 190.01 C 158.47 189.55 157.50 189.78 157.05 190.51 Z M 156.52 191.37 L 155.98 192.24 C 155.52 192.97 155.74 193.93 156.47 194.39 C 157.21 194.85 158.17 194.62 158.62 193.89 L 159.17 193.02 C 159.63 192.29 159.40 191.33 158.67 190.87 C 157.94 190.41 156.98 190.64 156.52 191.37 Z M 155.98 192.24 L 155.44 193.10 C 154.98 193.83 155.20 194.79 155.93 195.25 C 156.66 195.71 157.62 195.49 158.08 194.76 L 158.62 193.90 C 159.08 193.17 158.86 192.20 158.13 191.74 C 157.40 191.29 156.44 191.51 155.98 192.24 Z M 155.44 193.10 L 154.90 193.95 C 154.44 194.68 154.66 195.64 155.39 196.10 C 156.12 196.56 157.09 196.34 157.55 195.61 L 158.08 194.76 C 158.54 194.03 158.32 193.07 157.59 192.61 C 156.86 192.15 155.90 192.37 155.44 193.10 Z M 154.90 193.95 L 154.37 194.79 C 153.91 195.51 154.13 196.48 154.86 196.94 C 155.59 197.40 156.55 197.18 157.01 196.45 L 157.54 195.61 C 158.00 194.88 157.79 193.92 157.06 193.46 C 156.33 193.00 155.36 193.22 154.90 193.95 Z M 154.37 194.79 L 153.85 195.61 C 153.39 196.34 153.61 197.31 154.34 197.77 C 155.07 198.23 156.03 198.01 156.49 197.28 L 157.01 196.45 C 157.47 195.72 157.26 194.76 156.53 194.30 C 155.80 193.84 154.83 194.06 154.37 194.79 Z M 153.85 195.61 L 153.33 196.43 C 152.87 197.16 153.09 198.12 153.82 198.58 C 154.55 199.05 155.51 198.83 155.97 198.10 L 156.49 197.28 C 156.95 196.55 156.73 195.59 156.00 195.13 C 155.28 194.67 154.31 194.88 153.85 195.61 Z M 153.33 196.43 L 152.79 197.29 C 152.33 198.02 152.55 198.99 153.28 199.45 C 154.01 199.91 154.97 199.69 155.43 198.96 L 155.98 198.10 C 156.44 197.37 156.22 196.40 155.49 195.94 C 154.76 195.48 153.79 195.70 153.33 196.43 Z M 152.79 197.29 L 152.24 198.17 C 151.78 198.90 152.00 199.86 152.73 200.32 C 153.46 200.78 154.43 200.56 154.89 199.83 L 155.44 198.96 C 155.90 198.23 155.68 197.26 154.94 196.80 C 154.21 196.34 153.25 196.56 152.79 197.29 Z M 152.24 198.16 L 151.70 199.02 C 151.24 199.76 151.46 200.72 152.19 201.18 C 152.92 201.64 153.89 201.42 154.35 200.69 L 154.89 199.83 C 155.35 199.10 155.13 198.13 154.40 197.67 C 153.66 197.21 152.70 197.43 152.24 198.16 Z M 151.69 199.02 L 151.16 199.87 C 150.70 200.60 150.92 201.57 151.66 202.03 C 152.39 202.49 153.36 202.27 153.82 201.54 L 154.35 200.69 C 154.81 199.96 154.59 198.99 153.86 198.53 C 153.12 198.07 152.15 198.29 151.69 199.02 Z M 151.16 199.87 L 150.64 200.70 C 150.18 201.43 150.40 202.40 151.13 202.87 C 151.87 203.33 152.84 203.11 153.30 202.37 L 153.82 201.54 C 154.28 200.80 154.06 199.83 153.33 199.37 C 152.59 198.91 151.62 199.13 151.16 199.87 Z M 150.64 200.70 L 150.12 201.52 C 149.66 202.25 149.88 203.22 150.61 203.69 C 151.35 204.15 152.32 203.93 152.78 203.19 L 153.30 202.37 C 153.76 201.64 153.54 200.67 152.81 200.20 C 152.07 199.74 151.10 199.96 150.64 200.70 Z M 150.12 201.51 L 149.60 202.34 C 149.13 203.08 149.35 204.05 150.09 204.52 C 150.82 204.98 151.80 204.76 152.26 204.03 L 152.79 203.20 C 153.25 202.46 153.03 201.49 152.29 201.02 C 151.56 200.56 150.58 200.78 150.12 201.51 Z M 149.60 202.34 L 149.05 203.20 C 148.59 203.93 148.80 204.91 149.54 205.37 C 150.28 205.84 151.25 205.62 151.72 204.89 L 152.26 204.03 C 152.73 203.29 152.51 202.32 151.77 201.85 C 151.04 201.39 150.06 201.61 149.60 202.34 Z M 149.05 203.19 L 148.52 204.04 C 148.05 204.77 148.26 205.75 149.00 206.22 C 149.73 206.69 150.71 206.47 151.18 205.73 L 151.72 204.89 C 152.19 204.15 151.97 203.18 151.24 202.71 C 150.50 202.24 149.52 202.46 149.05 203.19 Z M 148.52 204.03 L 147.98 204.87 C 147.51 205.60 147.72 206.58 148.46 207.05 C 149.19 207.53 150.17 207.31 150.64 206.58 L 151.18 205.74 C 151.65 205.00 151.44 204.03 150.70 203.55 C 149.97 203.08 148.99 203.30 148.52 204.03 Z M 147.98 204.86 L 147.44 205.70 C 146.97 206.43 147.18 207.41 147.91 207.89 C 148.65 208.36 149.63 208.15 150.10 207.41 L 150.64 206.58 C 151.12 205.85 150.91 204.87 150.17 204.39 C 149.44 203.92 148.46 204.13 147.98 204.86 Z M 147.44 205.69 L 146.90 206.52 C 146.42 207.25 146.63 208.24 147.36 208.72 C 148.10 209.19 149.08 208.99 149.56 208.25 L 150.10 207.42 C 150.58 206.69 150.37 205.70 149.64 205.23 C 148.91 204.75 147.92 204.95 147.44 205.69 Z M 146.90 206.51 L 146.34 207.37 C 145.86 208.10 146.06 209.09 146.79 209.57 C 147.53 210.05 148.51 209.85 148.99 209.12 L 149.56 208.26 C 150.04 207.53 149.84 206.54 149.10 206.06 C 148.37 205.58 147.39 205.78 146.90 206.51 Z M 146.34 207.36 L 145.76 208.23 C 145.28 208.96 145.47 209.95 146.20 210.44 C 146.94 210.92 147.92 210.73 148.41 210.00 L 148.99 209.13 C 149.48 208.40 149.28 207.41 148.55 206.92 C 147.82 206.43 146.83 206.63 146.34 207.36 Z M 145.77 208.22 L 145.19 209.07 C 144.69 209.80 144.88 210.79 145.61 211.29 C 146.34 211.78 147.33 211.59 147.82 210.86 L 148.40 210.01 C 148.90 209.28 148.71 208.29 147.98 207.80 C 147.25 207.30 146.26 207.49 145.77 208.22 Z M 145.20 209.06 L 144.62 209.88 C 144.12 210.61 144.30 211.60 145.02 212.10 C 145.75 212.61 146.74 212.43 147.24 211.71 L 147.82 210.88 C 148.32 210.16 148.14 209.16 147.42 208.66 C 146.69 208.16 145.70 208.33 145.20 209.06 Z M 144.63 209.86 L 144.07 210.65 C 143.56 211.37 143.72 212.36 144.44 212.88 C 145.15 213.39 146.15 213.23 146.67 212.51 L 147.23 211.73 C 147.75 211.01 147.58 210.01 146.86 209.50 C 146.15 208.98 145.15 209.15 144.63 209.86 Z M 144.09 210.62 L 143.53 211.36 C 143.00 212.07 143.15 213.08 143.86 213.60 C 144.57 214.13 145.57 213.99 146.10 213.28 L 146.65 212.54 C 147.18 211.83 147.04 210.83 146.33 210.30 C 145.62 209.77 144.62 209.91 144.09 210.62 Z M 143.56 211.32 L 142.92 212.13 C 142.37 212.82 142.48 213.83 143.18 214.38 C 143.87 214.93 144.88 214.82 145.43 214.13 L 146.07 213.32 C 146.62 212.63 146.51 211.62 145.81 211.07 C 145.12 210.52 144.11 210.63 143.56 211.32 Z M 142.97 212.07 L 142.32 212.80 C 141.74 213.46 141.80 214.48 142.46 215.06 C 143.13 215.65 144.14 215.59 144.73 214.92 L 145.38 214.19 C 145.96 213.53 145.90 212.51 145.24 211.93 C 144.57 211.34 143.56 211.40 142.97 212.07 Z M 142.40 212.72 L 141.71 213.39 C 141.08 214.02 141.07 215.03 141.69 215.67 C 142.32 216.30 143.33 216.31 143.97 215.68 L 144.65 215.01 C 145.28 214.38 145.29 213.37 144.67 212.73 C 144.05 212.10 143.03 212.09 142.40 212.72 Z M 141.80 213.31 L 141.04 213.95 C 140.36 214.52 140.27 215.54 140.85 216.22 C 141.42 216.90 142.43 216.98 143.11 216.41 L 143.87 215.77 C 144.55 215.20 144.64 214.18 144.07 213.50 C 143.50 212.82 142.48 212.74 141.80 213.31 Z M 141.13 213.88 L 140.35 214.44 C 139.63 214.96 139.47 215.97 139.99 216.69 C 140.51 217.41 141.51 217.57 142.24 217.05 L 143.02 216.48 C 143.74 215.96 143.90 214.96 143.38 214.24 C 142.86 213.52 141.85 213.35 141.13 213.88 Z M 140.42 214.39 L 139.64 214.89 C 138.89 215.38 138.67 216.38 139.15 217.12 C 139.63 217.87 140.63 218.09 141.38 217.61 L 142.16 217.11 C 142.91 216.62 143.13 215.62 142.65 214.87 C 142.17 214.13 141.17 213.91 140.42 214.39 Z M 139.68 214.86 L 138.84 215.36 C 138.07 215.82 137.82 216.81 138.27 217.58 C 138.73 218.35 139.72 218.60 140.49 218.14 L 141.33 217.64 C 142.10 217.19 142.36 216.20 141.90 215.43 C 141.44 214.66 140.45 214.40 139.68 214.86 Z M 138.87 215.34 L 137.98 215.83 C 137.20 216.27 136.92 217.26 137.36 218.04 C 137.79 218.82 138.78 219.10 139.56 218.67 L 140.46 218.17 C 141.24 217.73 141.52 216.74 141.08 215.96 C 140.64 215.18 139.65 214.90 138.87 215.34 Z M 138.00 215.82 L 137.08 216.31 C 136.29 216.74 135.99 217.73 136.42 218.52 C 136.84 219.31 137.83 219.61 138.62 219.18 L 139.54 218.68 C 140.33 218.26 140.63 217.27 140.20 216.48 C 139.78 215.69 138.79 215.39 138.00 215.82 Z M 137.09 216.30 L 136.15 216.80 C 135.35 217.22 135.05 218.21 135.47 219.00 C 135.89 219.80 136.87 220.11 137.67 219.69 L 138.61 219.19 C 139.41 218.77 139.71 217.78 139.29 216.99 C 138.87 216.19 137.88 215.88 137.09 216.30 Z M 136.15 216.80 L 136.03 216.86 C 135.23 217.28 134.92 218.27 135.34 219.07 C 135.76 219.87 136.75 220.17 137.55 219.75 L 137.67 219.69 C 138.47 219.27 138.77 218.28 138.35 217.48 C 137.93 216.69 136.95 216.38 136.15 216.80 Z"
      fill="black"
      fill-rule="nonzero" /><path d="M 132.43 141.46 L 133.22 142.17 C 133.86 142.75 134.85 142.70 135.42 142.05 C 136.00 141.41 135.94 140.43 135.30 139.85 L 134.51 139.14 C 133.87 138.56 132.89 138.62 132.31 139.26 C 131.73 139.90 131.79 140.89 132.43 141.46 Z M 133.22 142.17 L 134.00 142.88 C 134.64 143.45 135.63 143.40 136.20 142.76 C 136.78 142.12 136.73 141.13 136.09 140.55 L 135.30 139.85 C 134.66 139.27 133.68 139.33 133.10 139.97 C 132.52 140.61 132.58 141.59 133.22 142.17 Z M 134.00 142.87 L 134.76 143.57 C 135.40 144.14 136.39 144.09 136.97 143.45 C 137.55 142.81 137.50 141.83 136.86 141.25 L 136.09 140.56 C 135.45 139.98 134.46 140.03 133.88 140.67 C 133.31 141.31 133.36 142.30 134.00 142.87 Z M 134.76 143.56 L 135.51 144.24 C 136.15 144.82 137.13 144.77 137.71 144.13 C 138.29 143.50 138.25 142.51 137.61 141.93 L 136.86 141.25 C 136.22 140.67 135.23 140.72 134.65 141.36 C 134.08 142.00 134.12 142.98 134.76 143.56 Z M 135.50 144.24 L 136.22 144.89 C 136.86 145.48 137.85 145.43 138.43 144.80 C 139.01 144.16 138.97 143.17 138.33 142.59 L 137.61 141.93 C 136.97 141.35 135.99 141.40 135.41 142.03 C 134.82 142.67 134.87 143.66 135.50 144.24 Z M 136.22 144.89 L 136.90 145.52 C 137.53 146.10 138.52 146.07 139.11 145.43 C 139.69 144.80 139.65 143.81 139.02 143.23 L 138.34 142.60 C 137.70 142.01 136.71 142.05 136.13 142.68 C 135.54 143.32 135.58 144.30 136.22 144.89 Z M 136.89 145.51 L 137.61 146.19 C 138.24 146.78 139.23 146.75 139.82 146.12 C 140.41 145.49 140.38 144.50 139.75 143.91 L 139.03 143.23 C 138.40 142.64 137.41 142.67 136.82 143.30 C 136.23 143.93 136.26 144.92 136.89 145.51 Z M 137.60 146.18 L 138.36 146.91 C 138.98 147.51 139.97 147.49 140.57 146.86 C 141.17 146.24 141.15 145.25 140.52 144.65 L 139.77 143.92 C 139.14 143.32 138.15 143.34 137.55 143.97 C 136.95 144.59 136.97 145.58 137.60 146.18 Z M 138.33 146.90 L 139.04 147.59 C 139.66 148.21 140.65 148.20 141.26 147.58 C 141.88 146.97 141.87 145.97 141.25 145.36 L 140.55 144.66 C 139.93 144.05 138.93 144.05 138.32 144.67 C 137.71 145.29 137.72 146.28 138.33 146.90 Z M 139.02 147.58 L 139.69 148.27 C 140.30 148.89 141.30 148.91 141.92 148.30 C 142.54 147.69 142.56 146.69 141.95 146.07 L 141.28 145.38 C 140.67 144.75 139.67 144.74 139.05 145.35 C 138.42 145.95 138.41 146.95 139.02 147.58 Z M 139.66 148.25 L 140.32 148.95 C 140.91 149.59 141.92 149.62 142.55 149.02 C 143.19 148.43 143.23 147.42 142.63 146.79 L 141.98 146.09 C 141.38 145.45 140.38 145.41 139.74 146.01 C 139.10 146.61 139.06 147.61 139.66 148.25 Z M 140.29 148.93 L 140.92 149.63 C 141.51 150.29 142.51 150.34 143.17 149.75 C 143.82 149.17 143.87 148.16 143.29 147.51 L 142.66 146.81 C 142.07 146.15 141.07 146.10 140.41 146.68 C 139.76 147.27 139.71 148.27 140.29 148.93 Z M 140.90 149.61 L 141.51 150.32 C 142.09 150.98 143.09 151.05 143.75 150.48 C 144.42 149.91 144.49 148.90 143.92 148.24 L 143.31 147.53 C 142.74 146.87 141.73 146.79 141.07 147.37 C 140.40 147.94 140.33 148.95 140.90 149.61 Z M 141.49 150.30 L 142.11 151.04 C 142.67 151.71 143.68 151.80 144.35 151.24 C 145.03 150.68 145.12 149.67 144.55 149.00 L 143.94 148.26 C 143.37 147.58 142.37 147.49 141.70 148.06 C 141.02 148.62 140.93 149.62 141.49 150.30 Z M 142.10 151.02 L 142.72 151.80 C 143.28 152.48 144.28 152.59 144.96 152.04 C 145.64 151.49 145.75 150.48 145.20 149.80 L 144.57 149.02 C 144.02 148.34 143.02 148.23 142.34 148.78 C 141.65 149.33 141.54 150.33 142.10 151.02 Z M 142.71 151.78 L 143.35 152.60 C 143.89 153.29 144.89 153.41 145.58 152.87 C 146.27 152.33 146.40 151.33 145.86 150.64 L 145.22 149.82 C 144.68 149.13 143.68 149.01 142.98 149.55 C 142.29 150.09 142.17 151.09 142.71 151.78 Z M 143.34 152.58 L 143.99 153.44 C 144.52 154.14 145.52 154.28 146.22 153.75 C 146.92 153.22 147.05 152.22 146.52 151.52 L 145.87 150.66 C 145.34 149.96 144.34 149.82 143.64 150.35 C 142.94 150.88 142.81 151.88 143.34 152.58 Z M 143.98 153.43 L 144.53 154.18 C 145.05 154.88 146.05 155.04 146.75 154.51 C 147.46 153.99 147.61 153.00 147.09 152.29 L 146.54 151.54 C 146.02 150.83 145.02 150.68 144.31 151.20 C 143.61 151.72 143.45 152.72 143.98 153.43 Z M 144.52 154.16 L 145.07 154.92 C 145.58 155.64 146.57 155.80 147.29 155.28 C 148.00 154.77 148.16 153.78 147.65 153.06 L 147.10 152.31 C 146.59 151.59 145.59 151.43 144.88 151.94 C 144.17 152.46 144.01 153.45 144.52 154.16 Z M 145.06 154.91 L 145.61 155.70 C 146.12 156.42 147.11 156.59 147.83 156.08 C 148.55 155.58 148.72 154.59 148.21 153.87 L 147.66 153.08 C 147.15 152.36 146.16 152.19 145.44 152.69 C 144.72 153.20 144.55 154.19 145.06 154.91 Z M 145.60 155.69 L 146.17 156.51 C 146.67 157.23 147.66 157.41 148.38 156.91 C 149.10 156.41 149.29 155.42 148.79 154.70 L 148.22 153.88 C 147.72 153.16 146.73 152.98 146.01 153.47 C 145.29 153.97 145.11 154.96 145.60 155.69 Z M 146.16 156.49 L 146.74 157.35 C 147.23 158.07 148.22 158.27 148.95 157.77 C 149.67 157.28 149.86 156.29 149.37 155.57 L 148.80 154.71 C 148.30 153.99 147.32 153.79 146.59 154.29 C 145.86 154.78 145.67 155.77 146.16 156.49 Z M 146.73 157.34 L 147.32 158.22 C 147.80 158.95 148.79 159.15 149.52 158.67 C 150.25 158.18 150.45 157.19 149.97 156.46 L 149.38 155.58 C 148.90 154.85 147.91 154.65 147.18 155.13 C 146.44 155.62 146.24 156.60 146.73 157.34 Z M 147.31 158.21 L 147.90 159.12 C 148.38 159.85 149.36 160.06 150.10 159.58 C 150.84 159.10 151.05 158.12 150.57 157.38 L 149.97 156.47 C 149.50 155.74 148.51 155.53 147.77 156.01 C 147.04 156.49 146.83 157.47 147.31 158.21 Z M 147.89 159.11 L 148.38 159.87 C 148.86 160.61 149.84 160.83 150.58 160.35 C 151.32 159.88 151.54 158.90 151.06 158.16 L 150.57 157.39 C 150.10 156.65 149.12 156.44 148.38 156.91 C 147.64 157.39 147.42 158.37 147.89 159.11 Z M 148.38 159.86 L 148.88 160.65 C 149.35 161.39 150.33 161.62 151.07 161.15 C 151.81 160.68 152.03 159.69 151.56 158.95 L 151.07 158.16 C 150.60 157.42 149.62 157.20 148.87 157.67 C 148.13 158.14 147.91 159.12 148.38 159.86 Z M 148.87 160.64 L 149.38 161.45 C 149.84 162.20 150.83 162.43 151.57 161.96 C 152.32 161.49 152.54 160.51 152.08 159.77 L 151.57 158.96 C 151.10 158.21 150.12 157.99 149.38 158.45 C 148.63 158.92 148.41 159.90 148.87 160.64 Z M 149.38 161.45 L 149.89 162.28 C 150.35 163.03 151.33 163.26 152.08 162.80 C 152.83 162.34 153.06 161.36 152.60 160.61 L 152.08 159.78 C 151.62 159.03 150.64 158.80 149.89 159.26 C 149.14 159.72 148.91 160.70 149.38 161.45 Z M 149.89 162.28 L 150.41 163.13 C 150.87 163.88 151.85 164.12 152.60 163.66 C 153.35 163.20 153.58 162.22 153.12 161.47 L 152.60 160.61 C 152.14 159.87 151.16 159.63 150.41 160.09 C 149.66 160.55 149.43 161.53 149.89 162.28 Z M 150.41 163.13 L 150.95 164.01 C 151.40 164.76 152.38 165.00 153.13 164.54 C 153.88 164.09 154.12 163.11 153.66 162.36 L 153.13 161.48 C 152.67 160.73 151.69 160.49 150.94 160.94 C 150.19 161.40 149.95 162.38 150.41 163.13 Z M 150.95 164.01 L 151.49 164.91 C 151.95 165.67 152.93 165.91 153.68 165.45 C 154.43 165.00 154.67 164.02 154.22 163.27 L 153.67 162.36 C 153.21 161.61 152.24 161.37 151.48 161.82 C 150.73 162.28 150.49 163.26 150.95 164.01 Z M 151.49 164.91 L 152.05 165.84 C 152.50 166.60 153.48 166.84 154.23 166.39 C 154.99 165.93 155.23 164.96 154.78 164.21 L 154.22 163.27 C 153.76 162.52 152.79 162.28 152.04 162.73 C 151.28 163.18 151.04 164.16 151.49 164.91 Z M 152.05 165.84 L 152.57 166.71 C 153.02 167.46 154.00 167.71 154.75 167.26 C 155.50 166.81 155.75 165.83 155.30 165.08 L 154.78 164.21 C 154.33 163.45 153.35 163.21 152.60 163.66 C 151.84 164.11 151.60 165.09 152.05 165.84 Z M 152.57 166.71 L 153.06 167.53 C 153.51 168.28 154.48 168.53 155.24 168.08 C 155.99 167.63 156.24 166.66 155.79 165.90 L 155.30 165.08 C 154.85 164.32 153.87 164.08 153.12 164.53 C 152.37 164.98 152.12 165.95 152.57 166.71 Z M 153.06 167.53 L 153.56 168.37 C 154.01 169.12 154.98 169.37 155.74 168.92 C 156.49 168.47 156.74 167.50 156.29 166.74 L 155.79 165.90 C 155.34 165.15 154.37 164.90 153.61 165.35 C 152.86 165.80 152.61 166.77 153.06 167.53 Z M 153.56 168.37 L 154.06 169.22 C 154.51 169.97 155.48 170.22 156.24 169.77 C 156.99 169.33 157.24 168.35 156.80 167.59 L 156.29 166.74 C 155.84 165.99 154.87 165.74 154.11 166.19 C 153.36 166.64 153.11 167.61 153.56 168.37 Z M 154.06 169.22 L 154.57 170.08 C 155.02 170.83 155.99 171.08 156.75 170.64 C 157.50 170.19 157.75 169.21 157.31 168.46 L 156.80 167.60 C 156.35 166.84 155.37 166.59 154.62 167.04 C 153.86 167.49 153.61 168.46 154.06 169.22 Z M 154.57 170.08 L 155.08 170.95 C 155.53 171.70 156.51 171.95 157.26 171.51 C 158.02 171.06 158.27 170.08 157.82 169.33 L 157.31 168.46 C 156.86 167.70 155.88 167.45 155.13 167.90 C 154.37 168.35 154.12 169.32 154.57 170.08 Z M 155.08 170.95 L 155.60 171.82 C 156.05 172.58 157.03 172.83 157.78 172.38 C 158.54 171.93 158.79 170.96 158.34 170.20 L 157.82 169.33 C 157.37 168.57 156.40 168.32 155.64 168.77 C 154.89 169.22 154.64 170.19 155.08 170.95 Z M 155.60 171.82 L 156.12 172.70 C 156.57 173.46 157.55 173.71 158.30 173.26 C 159.06 172.81 159.31 171.84 158.86 171.08 L 158.34 170.20 C 157.89 169.45 156.92 169.20 156.16 169.64 C 155.41 170.09 155.16 171.07 155.60 171.82 Z M 156.12 172.70 L 156.65 173.58 C 157.09 174.34 158.07 174.59 158.82 174.14 C 159.58 173.69 159.83 172.72 159.38 171.96 L 158.86 171.08 C 158.41 170.33 157.44 170.08 156.68 170.52 C 155.93 170.97 155.68 171.95 156.12 172.70 Z M 156.65 173.58 L 157.17 174.46 C 157.62 175.22 158.59 175.47 159.35 175.02 C 160.10 174.57 160.35 173.60 159.90 172.84 L 159.38 171.96 C 158.93 171.21 157.96 170.96 157.20 171.41 C 156.45 171.85 156.20 172.83 156.65 173.58 Z M 157.17 174.47 L 157.69 175.34 C 158.14 176.09 159.11 176.34 159.87 175.89 C 160.62 175.45 160.87 174.47 160.42 173.72 L 159.90 172.84 C 159.45 172.09 158.48 171.84 157.72 172.29 C 156.97 172.74 156.72 173.71 157.17 174.47 Z M 157.69 175.34 L 158.20 176.20 C 158.65 176.96 159.63 177.21 160.38 176.76 C 161.14 176.31 161.38 175.33 160.93 174.58 L 160.42 173.71 C 159.97 172.96 158.99 172.71 158.24 173.16 C 157.49 173.61 157.24 174.59 157.69 175.34 Z M 158.21 176.21 L 158.72 177.07 C 159.17 177.82 160.15 178.07 160.90 177.62 C 161.65 177.17 161.90 176.19 161.45 175.44 L 160.93 174.58 C 160.48 173.83 159.51 173.58 158.75 174.03 C 158.00 174.48 157.76 175.45 158.21 176.21 Z M 158.72 177.07 L 159.24 177.93 C 159.69 178.68 160.66 178.92 161.41 178.47 C 162.17 178.02 162.41 177.05 161.96 176.30 L 161.44 175.44 C 160.99 174.69 160.02 174.44 159.27 174.89 C 158.52 175.34 158.27 176.32 158.72 177.07 Z M 159.24 177.93 L 159.76 178.79 C 160.21 179.54 161.18 179.78 161.93 179.33 C 162.68 178.87 162.92 177.90 162.47 177.15 L 161.96 176.29 C 161.50 175.54 160.53 175.30 159.78 175.75 C 159.03 176.21 158.79 177.18 159.24 177.93 Z M 159.76 178.79 L 160.28 179.64 C 160.73 180.39 161.71 180.63 162.45 180.18 C 163.20 179.72 163.44 178.75 162.99 178.00 L 162.47 177.15 C 162.02 176.40 161.04 176.16 160.29 176.61 C 159.54 177.07 159.31 178.04 159.76 178.79 Z M 160.28 179.65 L 160.80 180.50 C 161.26 181.24 162.23 181.48 162.98 181.02 C 163.72 180.57 163.96 179.59 163.50 178.85 L 162.98 178.00 C 162.53 177.25 161.55 177.01 160.81 177.47 C 160.06 177.93 159.83 178.90 160.28 179.65 Z M 160.81 180.50 L 161.33 181.35 C 161.79 182.09 162.76 182.32 163.50 181.87 C 164.25 181.41 164.48 180.43 164.02 179.69 L 163.50 178.84 C 163.04 178.10 162.07 177.87 161.32 178.32 C 160.58 178.78 160.35 179.76 160.81 180.50 Z M 161.33 181.35 L 161.86 182.20 C 162.32 182.94 163.29 183.17 164.04 182.71 C 164.78 182.25 165.00 181.27 164.54 180.53 L 164.02 179.68 C 163.56 178.94 162.58 178.72 161.84 179.18 C 161.10 179.64 160.87 180.61 161.33 181.35 Z M 161.86 182.21 L 162.39 183.05 C 162.86 183.79 163.83 184.01 164.57 183.55 C 165.31 183.08 165.53 182.11 165.07 181.37 L 164.54 180.53 C 164.08 179.79 163.10 179.56 162.36 180.03 C 161.62 180.49 161.40 181.47 161.86 182.21 Z M 162.40 183.06 L 162.93 183.90 C 163.40 184.64 164.38 184.85 165.11 184.39 C 165.85 183.92 166.07 182.94 165.60 182.21 L 165.07 181.36 C 164.60 180.63 163.62 180.41 162.89 180.88 C 162.15 181.34 161.93 182.32 162.40 183.06 Z M 162.94 183.91 L 163.48 184.75 C 163.95 185.48 164.93 185.70 165.66 185.23 C 166.39 184.75 166.61 183.78 166.14 183.04 L 165.60 182.20 C 165.13 181.47 164.15 181.25 163.41 181.72 C 162.68 182.19 162.46 183.17 162.94 183.91 Z M 163.48 184.76 L 164.02 185.60 C 164.50 186.33 165.48 186.54 166.21 186.06 C 166.95 185.59 167.15 184.61 166.68 183.87 L 166.13 183.03 C 165.66 182.30 164.68 182.09 163.95 182.57 C 163.21 183.04 163.00 184.02 163.48 184.76 Z M 164.02 185.60 L 164.57 186.44 C 165.05 187.17 166.04 187.38 166.77 186.90 C 167.50 186.42 167.71 185.44 167.23 184.70 L 166.68 183.87 C 166.20 183.13 165.21 182.93 164.48 183.41 C 163.75 183.89 163.54 184.87 164.02 185.60 Z M 164.57 186.45 L 165.13 187.28 C 165.61 188.02 166.60 188.22 167.33 187.73 C 168.06 187.25 168.26 186.26 167.78 185.53 L 167.22 184.70 C 166.74 183.97 165.76 183.76 165.02 184.25 C 164.29 184.73 164.09 185.72 164.57 186.45 Z M 165.13 187.29 L 165.69 188.12 C 166.17 188.85 167.16 189.05 167.89 188.56 C 168.62 188.08 168.82 187.09 168.33 186.36 L 167.77 185.53 C 167.29 184.79 166.30 184.60 165.57 185.09 C 164.84 185.57 164.64 186.56 165.13 187.29 Z M 165.69 188.13 L 166.25 188.96 C 166.74 189.69 167.73 189.88 168.46 189.39 C 169.19 188.90 169.38 187.91 168.89 187.18 L 168.33 186.35 C 167.84 185.62 166.85 185.43 166.12 185.92 C 165.39 186.41 165.20 187.40 165.69 188.13 Z M 166.25 188.97 L 166.81 189.80 C 167.30 190.52 168.30 190.71 169.02 190.22 C 169.75 189.73 169.94 188.73 169.45 188.00 L 168.89 187.18 C 168.39 186.45 167.40 186.26 166.67 186.75 C 165.94 187.25 165.75 188.24 166.25 188.97 Z M 166.81 189.80 L 167.37 190.63 C 167.87 191.35 168.87 191.54 169.60 191.04 C 170.32 190.54 170.51 189.55 170.01 188.82 L 169.45 188.00 C 168.95 187.27 167.96 187.08 167.23 187.58 C 166.50 188.08 166.31 189.07 166.81 189.80 Z M 167.38 190.63 L 167.94 191.45 C 168.44 192.18 169.44 192.36 170.17 191.86 C 170.90 191.36 171.08 190.37 170.58 189.64 L 170.01 188.82 C 169.51 188.09 168.51 187.91 167.78 188.41 C 167.06 188.91 166.87 189.91 167.38 190.63 Z M 167.94 191.46 L 168.51 192.28 C 169.02 193.01 170.02 193.19 170.74 192.68 C 171.47 192.18 171.65 191.18 171.15 190.45 L 170.58 189.63 C 170.07 188.90 169.07 188.72 168.35 189.23 C 167.62 189.73 167.44 190.73 167.94 191.46 Z M 168.52 192.29 L 169.10 193.12 C 169.61 193.85 170.61 194.03 171.33 193.52 C 172.06 193.01 172.24 192.01 171.73 191.28 L 171.15 190.45 C 170.64 189.72 169.64 189.55 168.91 190.05 C 168.19 190.56 168.01 191.56 168.52 192.29 Z M 169.10 193.13 L 169.69 193.96 C 170.20 194.68 171.20 194.86 171.92 194.35 C 172.65 193.84 172.82 192.84 172.31 192.11 L 171.73 191.28 C 171.22 190.55 170.22 190.38 169.49 190.89 C 168.77 191.40 168.59 192.40 169.10 193.13 Z M 169.69 193.96 L 170.28 194.79 C 170.79 195.51 171.79 195.69 172.52 195.17 C 173.24 194.66 173.41 193.66 172.90 192.93 L 172.31 192.11 C 171.80 191.38 170.79 191.21 170.07 191.72 C 169.35 192.24 169.18 193.24 169.69 193.96 Z M 170.28 194.80 L 170.86 195.62 C 171.38 196.34 172.38 196.51 173.11 195.99 C 173.83 195.47 174.00 194.47 173.48 193.75 L 172.89 192.93 C 172.38 192.20 171.37 192.04 170.65 192.55 C 169.93 193.07 169.76 194.07 170.28 194.80 Z M 170.87 195.62 L 171.45 196.44 C 171.97 197.16 172.97 197.32 173.70 196.80 C 174.42 196.29 174.58 195.28 174.06 194.56 L 173.48 193.74 C 172.96 193.02 171.95 192.86 171.23 193.38 C 170.51 193.89 170.35 194.90 170.87 195.62 Z M 171.45 196.44 L 172.04 197.25 C 172.56 197.97 173.56 198.13 174.29 197.61 C 175.01 197.09 175.17 196.08 174.65 195.36 L 174.06 194.55 C 173.54 193.83 172.53 193.67 171.81 194.19 C 171.09 194.71 170.93 195.72 171.45 196.44 Z M 172.04 197.25 L 172.62 198.06 C 173.15 198.78 174.15 198.93 174.87 198.41 C 175.59 197.89 175.75 196.88 175.23 196.16 L 174.65 195.36 C 174.12 194.64 173.11 194.48 172.39 195.00 C 171.67 195.53 171.52 196.53 172.04 197.25 Z M 172.62 198.06 L 173.21 198.86 C 173.73 199.57 174.74 199.73 175.46 199.20 C 176.18 198.68 176.33 197.67 175.81 196.95 L 175.23 196.16 C 174.70 195.44 173.69 195.28 172.97 195.81 C 172.25 196.33 172.10 197.34 172.62 198.06 Z M 173.21 198.86 L 173.79 199.65 C 174.32 200.37 175.33 200.52 176.04 199.99 C 176.76 199.46 176.92 198.45 176.39 197.73 L 175.81 196.95 C 175.28 196.23 174.27 196.07 173.55 196.60 C 172.83 197.13 172.68 198.14 173.21 198.86 Z M 173.79 199.65 L 174.38 200.45 C 174.91 201.17 175.92 201.32 176.64 200.79 C 177.36 200.26 177.51 199.25 176.98 198.53 L 176.39 197.73 C 175.85 197.01 174.84 196.86 174.13 197.39 C 173.41 197.92 173.26 198.93 173.79 199.65 Z M 174.38 200.46 L 175.00 201.29 C 175.54 202.01 176.55 202.15 177.27 201.62 C 177.98 201.09 178.13 200.07 177.60 199.36 L 176.98 198.52 C 176.44 197.81 175.43 197.66 174.71 198.19 C 174.00 198.73 173.85 199.74 174.38 200.46 Z M 175.00 201.29 L 175.62 202.12 C 176.15 202.83 177.17 202.98 177.89 202.44 C 178.60 201.90 178.75 200.89 178.21 200.17 L 177.60 199.35 C 177.06 198.63 176.04 198.49 175.33 199.02 C 174.61 199.56 174.46 200.58 175.00 201.29 Z M 175.62 202.12 L 176.23 202.94 C 176.77 203.65 177.79 203.79 178.51 203.25 C 179.22 202.71 179.37 201.70 178.83 200.98 L 178.21 200.17 C 177.67 199.45 176.65 199.31 175.94 199.85 C 175.22 200.39 175.08 201.41 175.62 202.12 Z M 176.23 202.94 L 176.84 203.74 C 177.38 204.46 178.40 204.60 179.12 204.06 C 179.84 203.51 179.98 202.49 179.43 201.78 L 178.83 200.97 C 178.28 200.26 177.26 200.12 176.54 200.66 C 175.83 201.20 175.69 202.22 176.23 202.94 Z M 176.84 203.75 L 177.44 204.54 C 177.99 205.26 179.01 205.40 179.73 204.85 C 180.45 204.31 180.59 203.28 180.04 202.56 L 179.43 201.77 C 178.89 201.05 177.86 200.92 177.15 201.46 C 176.43 202.01 176.29 203.03 176.84 203.75 Z M 177.44 204.55 L 178.04 205.33 C 178.59 206.05 179.62 206.19 180.34 205.64 C 181.05 205.09 181.19 204.06 180.64 203.34 L 180.04 202.56 C 179.49 201.84 178.46 201.71 177.75 202.26 C 177.03 202.80 176.89 203.83 177.44 204.55 Z M 178.04 205.34 L 178.64 206.11 C 179.19 206.83 180.22 206.96 180.94 206.41 C 181.66 205.86 181.79 204.83 181.24 204.11 L 180.64 203.34 C 180.09 202.62 179.06 202.49 178.34 203.04 C 177.62 203.59 177.49 204.62 178.04 205.34 Z M 178.64 206.12 L 179.23 206.88 C 179.79 207.60 180.82 207.73 181.54 207.18 C 182.25 206.62 182.38 205.59 181.83 204.87 L 181.24 204.11 C 180.68 203.39 179.65 203.26 178.93 203.81 C 178.22 204.37 178.08 205.40 178.64 206.12 Z M 179.23 206.89 L 179.83 207.65 C 180.39 208.37 181.42 208.50 182.14 207.94 C 182.85 207.39 182.98 206.35 182.43 205.63 L 181.83 204.87 C 181.27 204.15 180.24 204.02 179.52 204.58 C 178.80 205.14 178.67 206.17 179.23 206.89 Z M 179.83 207.66 L 180.46 208.47 C 181.02 209.18 182.06 209.31 182.77 208.75 C 183.49 208.19 183.62 207.16 183.06 206.44 L 182.43 205.63 C 181.87 204.91 180.83 204.78 180.11 205.35 C 179.39 205.91 179.27 206.94 179.83 207.66 Z M 180.46 208.47 L 181.09 209.27 C 181.65 209.99 182.69 210.11 183.40 209.55 C 184.12 208.99 184.25 207.95 183.68 207.23 L 183.06 206.43 C 182.49 205.72 181.46 205.59 180.74 206.15 C 180.02 206.72 179.90 207.75 180.46 208.47 Z M 181.09 209.27 L 181.71 210.07 C 182.28 210.78 183.31 210.91 184.03 210.34 C 184.75 209.78 184.87 208.74 184.31 208.02 L 183.68 207.23 C 183.12 206.51 182.08 206.39 181.36 206.95 C 180.65 207.52 180.52 208.56 181.09 209.27 Z M 181.71 210.07 L 182.33 210.85 C 182.90 211.57 183.94 211.69 184.65 211.13 C 185.37 210.56 185.49 209.52 184.93 208.80 L 184.31 208.02 C 183.74 207.30 182.70 207.18 181.98 207.75 C 181.27 208.31 181.14 209.35 181.71 210.07 Z M 182.33 210.86 L 182.95 211.63 C 183.51 212.35 184.56 212.47 185.27 211.90 C 185.99 211.34 186.11 210.30 185.54 209.58 L 184.93 208.80 C 184.36 208.08 183.32 207.96 182.60 208.53 C 181.88 209.10 181.76 210.14 182.33 210.86 Z M 182.95 211.64 L 183.56 212.41 C 184.13 213.13 185.17 213.25 185.89 212.68 C 186.61 212.11 186.73 211.07 186.16 210.35 L 185.54 209.58 C 184.97 208.86 183.93 208.74 183.21 209.31 C 182.50 209.88 182.38 210.92 182.95 211.64 Z M 183.56 212.41 L 184.17 213.18 C 184.74 213.90 185.79 214.02 186.50 213.45 C 187.22 212.88 187.34 211.84 186.77 211.12 L 186.16 210.35 C 185.59 209.63 184.54 209.51 183.83 210.08 C 183.11 210.65 182.99 211.70 183.56 212.41 Z M 184.17 213.19 L 184.78 213.96 C 185.36 214.67 186.40 214.79 187.12 214.22 C 187.84 213.65 187.96 212.60 187.38 211.89 L 186.77 211.12 C 186.20 210.40 185.16 210.28 184.44 210.85 C 183.72 211.42 183.60 212.47 184.17 213.19 Z M 184.78 213.96 L 185.40 214.74 C 185.97 215.46 187.02 215.58 187.74 215.00 C 188.46 214.43 188.58 213.38 188.01 212.66 L 187.39 211.88 C 186.81 211.17 185.77 211.05 185.05 211.62 C 184.33 212.19 184.21 213.24 184.78 213.96 Z M 185.40 214.74 L 186.02 215.52 C 186.59 216.24 187.64 216.36 188.37 215.79 C 189.09 215.21 189.21 214.16 188.63 213.44 L 188.01 212.66 C 187.44 211.94 186.39 211.82 185.66 212.39 C 184.94 212.97 184.82 214.02 185.40 214.74 Z M 186.02 215.53 L 186.64 216.31 C 187.21 217.03 188.27 217.15 188.99 216.58 C 189.72 216.00 189.84 214.95 189.26 214.22 L 188.64 213.44 C 188.06 212.72 187.01 212.60 186.28 213.17 C 185.56 213.75 185.44 214.80 186.02 215.53 Z M 186.64 216.31 L 187.26 217.09 C 187.84 217.82 188.89 217.94 189.62 217.36 C 190.34 216.78 190.46 215.73 189.89 215.00 L 189.26 214.22 C 188.69 213.49 187.63 213.37 186.90 213.95 C 186.18 214.53 186.06 215.58 186.64 216.31 Z M 187.25 217.10 L 187.88 217.88 C 188.46 218.61 189.52 218.73 190.24 218.15 C 190.97 217.57 191.09 216.51 190.51 215.78 L 189.89 215.00 C 189.31 214.27 188.25 214.15 187.52 214.73 C 186.80 215.31 186.67 216.37 187.25 217.10 Z M 187.87 217.88 L 188.50 218.66 C 189.08 219.39 190.14 219.52 190.87 218.93 C 191.60 218.35 191.72 217.29 191.14 216.56 L 190.52 215.78 C 189.94 215.05 188.87 214.93 188.14 215.51 C 187.41 216.09 187.29 217.15 187.87 217.88 Z M 188.49 218.67 L 189.11 219.45 C 189.70 220.18 190.76 220.30 191.49 219.72 C 192.23 219.14 192.35 218.07 191.77 217.34 L 191.14 216.56 C 190.56 215.83 189.49 215.70 188.76 216.29 C 188.03 216.87 187.91 217.94 188.49 218.67 Z M 189.11 219.45 L 189.73 220.24 C 190.32 220.97 191.39 221.09 192.12 220.51 C 192.85 219.92 192.98 218.85 192.39 218.12 L 191.77 217.34 C 191.19 216.60 190.12 216.48 189.38 217.07 C 188.65 217.65 188.53 218.72 189.11 219.45 Z M 189.73 220.24 L 190.09 220.69 C 190.68 221.43 191.75 221.55 192.49 220.97 C 193.22 220.38 193.34 219.31 192.76 218.57 L 192.40 218.12 C 191.81 217.38 190.74 217.26 190.00 217.84 C 189.27 218.43 189.14 219.50 189.73 220.24 Z"
      fill="black"
      fill-rule="nonzero" /></svg>