<svg xmlns="http://www.w3.org/2000/svg" width="300" height="300" viewBox="0 0 300 300">
<path d="M 101.52 121.19 L 100.79 119.98 C 100.35 119.24 99.39 119.00 98.65 119.45 C 97.91 119.89 97.67 120.85 98.12 121.59 L 98.84 122.80 C 99.29 123.54 100.25 123.78 100.99 123.33 C 101.73 122.89 101.97 121.93 101.52 121.19 Z M 100.79 119.98 L 100.20 119.00 C 99.75 118.26 98.79 118.03 98.06 118.47 C 97.32 118.92 97.08 119.88 97.53 120.62 L 98.12 121.59 C 98.57 122.33 99.53 122.57 100.27 122.12 C 101.00 121.67 101.24 120.71 100.79 119.98 Z M 100.19 118.98 L 99.86 118.47 C 99.41 117.74 98.44 117.52 97.71 117.98 C 96.98 118.44 96.76 119.40 97.22 120.13 L 97.54 120.64 C 98.00 121.37 98.97 121.59 99.70 121.13 C 100.43 120.67 100.65 119.70 100.19 118.98 Z M 97.10 119.89 L 97.17 120.07 C 97.50 120.86 98.41 121.25 99.21 120.92 C 100.01 120.59 100.39 119.68 100.06 118.89 L 99.99 118.71 C 99.66 117.91 98.75 117.53 97.95 117.85 C 97.16 118.18 96.77 119.09 97.10 119.89 Z M 97.23 120.19 L 97.66 121.02 C 98.05 121.79 98.99 122.09 99.76 121.70 C 100.52 121.30 100.83 120.36 100.43 119.59 L 100.01 118.76 C 99.61 118.00 98.67 117.69 97.90 118.09 C 97.14 118.48 96.83 119.42 97.23 120.19 Z M 97.64 121.00 L 98.28 122.28 C 98.66 123.06 99.60 123.37 100.37 122.99 C 101.15 122.61 101.46 121.67 101.08 120.90 L 100.44 119.61 C 100.06 118.84 99.12 118.53 98.35 118.91 C 97.58 119.29 97.26 120.23 97.64 121.00 Z M 98.26 122.25 L 98.74 123.27 C 99.10 124.05 100.03 124.39 100.81 124.03 C 101.60 123.66 101.93 122.74 101.57 121.95 L 101.10 120.93 C 100.73 120.15 99.80 119.81 99.02 120.18 C 98.24 120.54 97.90 121.47 98.26 122.25 Z M 98.73 123.25 L 99.14 124.18 C 99.49 124.97 100.42 125.33 101.20 124.98 C 101.99 124.63 102.35 123.71 102.00 122.92 L 101.58 121.98 C 101.23 121.19 100.31 120.84 99.52 121.19 C 98.73 121.53 98.38 122.46 98.73 123.25 Z M 99.14 124.17 L 99.55 125.12 C 99.89 125.91 100.80 126.28 101.60 125.94 C 102.39 125.60 102.76 124.68 102.42 123.89 L 102.01 122.94 C 101.67 122.14 100.75 121.78 99.96 122.12 C 99.16 122.46 98.80 123.37 99.14 124.17 Z M 99.54 125.11 L 99.93 126.04 C 100.27 126.84 101.18 127.21 101.98 126.88 C 102.77 126.55 103.15 125.63 102.81 124.84 L 102.42 123.90 C 102.09 123.11 101.17 122.73 100.38 123.06 C 99.58 123.40 99.21 124.31 99.54 125.11 Z M 99.93 126.03 L 100.29 126.92 C 100.62 127.72 101.53 128.10 102.33 127.77 C 103.13 127.45 103.51 126.53 103.18 125.74 L 102.82 124.85 C 102.49 124.05 101.58 123.67 100.78 124.00 C 99.98 124.32 99.60 125.24 99.93 126.03 Z M 100.29 126.92 L 100.69 127.91 C 101.02 128.71 101.93 129.09 102.72 128.77 C 103.52 128.44 103.91 127.53 103.59 126.73 L 103.18 125.74 C 102.86 124.94 101.95 124.56 101.15 124.88 C 100.35 125.21 99.97 126.12 100.29 126.92 Z M 100.69 127.90 L 101.07 128.87 C 101.39 129.67 102.30 130.06 103.10 129.74 C 103.90 129.43 104.29 128.52 103.98 127.72 L 103.59 126.75 C 103.27 125.94 102.37 125.55 101.56 125.87 C 100.76 126.19 100.37 127.09 100.69 127.90 Z M 101.06 128.85 L 101.40 129.74 C 101.71 130.54 102.61 130.95 103.42 130.64 C 104.22 130.33 104.63 129.43 104.32 128.63 L 103.98 127.74 C 103.68 126.93 102.77 126.53 101.97 126.83 C 101.16 127.14 100.76 128.04 101.06 128.85 Z M 101.39 129.71 L 101.70 130.57 C 102.00 131.38 102.89 131.80 103.70 131.51 C 104.51 131.22 104.93 130.32 104.64 129.51 L 104.33 128.65 C 104.04 127.84 103.14 127.42 102.33 127.71 C 101.52 128.01 101.10 128.90 101.39 129.71 Z M 101.69 130.54 L 102.00 131.45 C 102.28 132.27 103.16 132.70 103.98 132.43 C 104.80 132.15 105.24 131.26 104.96 130.45 L 104.65 129.54 C 104.37 128.72 103.49 128.28 102.67 128.56 C 101.85 128.84 101.42 129.72 101.69 130.54 Z M 101.99 131.43 L 102.30 132.37 C 102.56 133.19 103.44 133.64 104.26 133.38 C 105.09 133.11 105.54 132.23 105.27 131.41 L 104.97 130.47 C 104.70 129.65 103.82 129.20 103.00 129.46 C 102.18 129.73 101.73 130.61 101.99 131.43 Z M 102.30 132.36 L 102.60 133.33 C 102.86 134.15 103.74 134.61 104.56 134.35 C 105.38 134.09 105.84 133.21 105.58 132.39 L 105.27 131.42 C 105.01 130.60 104.14 130.14 103.31 130.40 C 102.49 130.66 102.04 131.54 102.30 132.36 Z M 102.60 133.32 L 102.91 134.30 C 103.16 135.12 104.04 135.58 104.86 135.32 C 105.69 135.06 106.14 134.18 105.88 133.36 L 105.58 132.39 C 105.32 131.57 104.44 131.11 103.62 131.37 C 102.80 131.63 102.34 132.50 102.60 133.32 Z M 102.91 134.30 L 103.21 135.24 C 103.47 136.06 104.34 136.52 105.17 136.26 C 105.99 136.00 106.44 135.12 106.18 134.30 L 105.88 133.36 C 105.62 132.53 104.74 132.08 103.92 132.34 C 103.10 132.60 102.65 133.48 102.91 134.30 Z M 103.21 135.25 L 103.52 136.20 C 103.78 137.02 104.66 137.47 105.48 137.21 C 106.30 136.94 106.75 136.06 106.49 135.24 L 106.18 134.29 C 105.91 133.47 105.03 133.02 104.21 133.28 C 103.39 133.55 102.94 134.43 103.21 135.25 Z M 103.52 136.21 L 103.84 137.17 C 104.11 137.99 104.99 138.43 105.81 138.16 C 106.63 137.89 107.07 137.01 106.80 136.19 L 106.48 135.23 C 106.21 134.41 105.33 133.97 104.51 134.24 C 103.69 134.51 103.25 135.39 103.52 136.21 Z M 103.84 137.18 L 104.16 138.13 C 104.44 138.95 105.32 139.38 106.14 139.11 C 106.96 138.83 107.39 137.95 107.12 137.13 L 106.80 136.18 C 106.52 135.36 105.63 134.93 104.82 135.20 C 104.00 135.48 103.56 136.36 103.84 137.18 Z M 104.16 138.14 L 104.48 139.07 C 104.76 139.89 105.65 140.32 106.47 140.04 C 107.28 139.76 107.72 138.87 107.44 138.05 L 107.12 137.12 C 106.83 136.31 105.95 135.87 105.13 136.15 C 104.32 136.43 103.88 137.32 104.16 138.14 Z M 104.48 139.07 L 104.81 140.01 C 105.09 140.83 105.98 141.26 106.79 140.98 C 107.61 140.70 108.04 139.81 107.76 139.00 L 107.44 138.06 C 107.16 137.24 106.27 136.81 105.45 137.09 C 104.64 137.37 104.20 138.25 104.48 139.07 Z M 104.80 140.00 L 105.13 140.96 C 105.40 141.78 106.29 142.22 107.10 141.94 C 107.92 141.67 108.36 140.78 108.09 139.96 L 107.76 139.01 C 107.49 138.19 106.60 137.75 105.79 138.03 C 104.97 138.30 104.53 139.19 104.80 140.00 Z M 105.12 140.94 L 105.43 141.89 C 105.69 142.71 106.57 143.16 107.39 142.89 C 108.21 142.63 108.66 141.75 108.40 140.93 L 108.09 139.98 C 107.83 139.16 106.95 138.71 106.13 138.98 C 105.31 139.24 104.86 140.12 105.12 140.94 Z M 105.42 141.87 L 105.71 142.79 C 105.96 143.61 106.84 144.08 107.66 143.82 C 108.48 143.56 108.94 142.69 108.69 141.87 L 108.40 140.94 C 108.15 140.12 107.27 139.66 106.45 139.92 C 105.63 140.17 105.17 141.05 105.42 141.87 Z M 105.70 142.78 L 105.99 143.73 C 106.24 144.55 107.11 145.02 107.93 144.77 C 108.76 144.52 109.23 143.65 108.98 142.83 L 108.69 141.88 C 108.44 141.05 107.57 140.59 106.75 140.83 C 105.92 141.08 105.45 141.95 105.70 142.78 Z M 105.99 143.72 L 106.28 144.70 C 106.52 145.52 107.39 146.00 108.22 145.75 C 109.05 145.50 109.52 144.63 109.27 143.81 L 108.98 142.83 C 108.73 142.01 107.86 141.53 107.04 141.78 C 106.21 142.03 105.74 142.90 105.99 143.72 Z M 106.28 144.70 L 106.58 145.70 C 106.82 146.53 107.69 147.00 108.52 146.75 C 109.34 146.51 109.81 145.64 109.57 144.81 L 109.27 143.81 C 109.02 142.98 108.16 142.51 107.33 142.76 C 106.50 143.00 106.03 143.87 106.28 144.70 Z M 106.58 145.70 L 106.86 146.65 C 107.11 147.47 107.98 147.94 108.80 147.69 C 109.63 147.44 110.10 146.57 109.85 145.75 L 109.57 144.81 C 109.32 143.98 108.45 143.51 107.62 143.76 C 106.80 144.01 106.33 144.88 106.58 145.70 Z M 106.86 146.65 L 107.15 147.61 C 107.40 148.44 108.28 148.90 109.10 148.65 C 109.93 148.40 110.39 147.53 110.14 146.70 L 109.85 145.74 C 109.60 144.92 108.72 144.45 107.90 144.70 C 107.08 144.95 106.61 145.83 106.86 146.65 Z M 107.15 147.62 L 107.45 148.58 C 107.71 149.41 108.58 149.87 109.41 149.61 C 110.23 149.36 110.69 148.48 110.44 147.66 L 110.14 146.69 C 109.88 145.87 109.01 145.41 108.19 145.66 C 107.36 145.92 106.90 146.79 107.15 147.62 Z M 107.46 148.59 L 107.76 149.55 C 108.02 150.37 108.89 150.83 109.72 150.57 C 110.54 150.31 111.00 149.44 110.74 148.61 L 110.43 147.65 C 110.18 146.83 109.30 146.37 108.48 146.63 C 107.65 146.89 107.20 147.77 107.46 148.59 Z M 107.76 149.56 L 108.07 150.52 C 108.33 151.34 109.21 151.79 110.03 151.52 C 110.85 151.26 111.31 150.38 111.04 149.56 L 110.73 148.60 C 110.47 147.78 109.59 147.33 108.77 147.60 C 107.95 147.86 107.50 148.74 107.76 149.56 Z M 108.07 150.53 L 108.39 151.49 C 108.66 152.31 109.54 152.75 110.36 152.48 C 111.18 152.21 111.62 151.33 111.35 150.51 L 111.04 149.55 C 110.77 148.73 109.89 148.29 109.07 148.56 C 108.25 148.83 107.80 149.71 108.07 150.53 Z M 108.39 151.49 L 108.71 152.44 C 108.98 153.26 109.86 153.70 110.68 153.43 C 111.50 153.15 111.94 152.27 111.67 151.45 L 111.35 150.50 C 111.08 149.69 110.19 149.25 109.38 149.52 C 108.56 149.79 108.12 150.68 108.39 151.49 Z M 108.71 152.44 L 109.02 153.38 C 109.30 154.20 110.18 154.64 111.00 154.37 C 111.82 154.09 112.26 153.20 111.98 152.39 L 111.67 151.45 C 111.39 150.63 110.51 150.19 109.69 150.47 C 108.87 150.74 108.43 151.63 108.71 152.44 Z M 109.02 153.38 L 109.34 154.32 C 109.61 155.14 110.50 155.58 111.32 155.31 C 112.13 155.03 112.57 154.15 112.30 153.33 L 111.98 152.39 C 111.71 151.57 110.82 151.13 110.01 151.41 C 109.19 151.68 108.75 152.57 109.02 153.38 Z M 109.34 154.32 L 109.65 155.26 C 109.92 156.08 110.81 156.52 111.62 156.25 C 112.44 155.98 112.89 155.09 112.61 154.27 L 112.30 153.33 C 112.03 152.52 111.15 152.07 110.33 152.35 C 109.51 152.62 109.07 153.50 109.34 154.32 Z M 109.65 155.25 L 109.96 156.20 C 110.23 157.02 111.11 157.46 111.93 157.19 C 112.75 156.92 113.20 156.04 112.93 155.22 L 112.62 154.28 C 112.35 153.46 111.46 153.01 110.64 153.28 C 109.83 153.55 109.38 154.43 109.65 155.25 Z M 109.96 156.19 L 110.27 157.15 C 110.54 157.97 111.42 158.41 112.24 158.15 C 113.06 157.88 113.50 157.00 113.24 156.18 L 112.93 155.23 C 112.66 154.41 111.78 153.96 110.96 154.23 C 110.14 154.49 109.69 155.37 109.96 156.19 Z M 110.27 157.14 L 110.58 158.10 C 110.84 158.92 111.73 159.37 112.55 159.10 C 113.37 158.84 113.81 157.96 113.55 157.14 L 113.24 156.18 C 112.97 155.36 112.09 154.91 111.27 155.18 C 110.45 155.44 110.00 156.32 110.27 157.14 Z M 110.58 158.10 L 110.89 159.06 C 111.15 159.88 112.03 160.33 112.85 160.06 C 113.68 159.80 114.12 158.92 113.86 158.10 L 113.55 157.14 C 113.28 156.32 112.40 155.87 111.58 156.13 C 110.76 156.40 110.31 157.28 110.58 158.10 Z M 110.89 159.06 L 111.20 160.02 C 111.46 160.84 112.34 161.29 113.17 161.02 C 113.99 160.76 114.44 159.88 114.17 159.06 L 113.86 158.10 C 113.59 157.28 112.71 156.83 111.89 157.09 C 111.07 157.36 110.62 158.24 110.89 159.06 Z M 111.20 160.02 L 111.51 160.98 C 111.78 161.80 112.66 162.24 113.48 161.98 C 114.30 161.71 114.75 160.83 114.48 160.01 L 114.17 159.05 C 113.90 158.23 113.02 157.78 112.20 158.05 C 111.38 158.32 110.93 159.20 111.20 160.02 Z M 111.51 160.98 L 111.83 161.93 C 112.10 162.75 112.98 163.20 113.80 162.93 C 114.62 162.65 115.06 161.77 114.79 160.95 L 114.48 160.00 C 114.21 159.18 113.32 158.74 112.51 159.01 C 111.69 159.28 111.24 160.16 111.51 160.98 Z M 111.83 161.94 L 112.15 162.88 C 112.42 163.70 113.31 164.14 114.13 163.87 C 114.94 163.59 115.38 162.70 115.11 161.89 L 114.79 160.94 C 114.51 160.13 113.63 159.69 112.81 159.96 C 111.99 160.24 111.55 161.12 111.83 161.94 Z M 112.15 162.90 L 112.48 163.84 C 112.76 164.65 113.65 165.09 114.46 164.80 C 115.28 164.52 115.71 163.63 115.43 162.82 L 115.10 161.88 C 114.82 161.06 113.93 160.63 113.12 160.91 C 112.30 161.19 111.87 162.08 112.15 162.90 Z M 112.48 163.85 L 112.82 164.81 C 113.11 165.62 114.01 166.05 114.82 165.76 C 115.63 165.47 116.06 164.57 115.77 163.76 L 115.42 162.80 C 115.13 161.99 114.24 161.57 113.43 161.86 C 112.62 162.15 112.19 163.04 112.48 163.85 Z M 112.83 164.82 L 113.18 165.77 C 113.47 166.58 114.37 166.99 115.18 166.70 C 115.99 166.40 116.40 165.50 116.11 164.69 L 115.76 163.75 C 115.46 162.94 114.57 162.52 113.76 162.82 C 112.95 163.12 112.53 164.01 112.83 164.82 Z M 113.18 165.78 L 113.53 166.71 C 113.83 167.52 114.73 167.93 115.54 167.62 C 116.35 167.32 116.75 166.42 116.45 165.61 L 116.10 164.68 C 115.80 163.87 114.90 163.47 114.09 163.77 C 113.29 164.07 112.88 164.97 113.18 165.78 Z M 113.53 166.72 L 113.88 167.64 C 114.19 168.44 115.09 168.85 115.90 168.54 C 116.70 168.23 117.11 167.33 116.80 166.52 L 116.45 165.60 C 116.14 164.80 115.24 164.40 114.43 164.70 C 113.63 165.01 113.22 165.91 113.53 166.72 Z M 113.89 167.65 L 114.25 168.58 C 114.56 169.38 115.46 169.78 116.27 169.47 C 117.07 169.16 117.47 168.25 117.16 167.45 L 116.80 166.52 C 116.48 165.71 115.58 165.31 114.78 165.63 C 113.97 165.94 113.57 166.84 113.89 167.65 Z M 114.25 168.58 L 114.62 169.51 C 114.93 170.32 115.84 170.71 116.64 170.40 C 117.44 170.08 117.84 169.17 117.52 168.37 L 117.16 167.44 C 116.84 166.64 115.93 166.24 115.13 166.56 C 114.33 166.88 113.93 167.78 114.25 168.58 Z M 114.62 169.52 L 114.99 170.45 C 115.31 171.25 116.22 171.64 117.02 171.32 C 117.82 171.00 118.21 170.09 117.89 169.29 L 117.52 168.36 C 117.20 167.56 116.29 167.17 115.49 167.49 C 114.69 167.81 114.30 168.72 114.62 169.52 Z M 114.99 170.45 L 115.37 171.38 C 115.69 172.18 116.60 172.56 117.40 172.24 C 118.20 171.92 118.58 171.01 118.26 170.21 L 117.89 169.28 C 117.56 168.48 116.65 168.10 115.85 168.42 C 115.05 168.74 114.67 169.65 114.99 170.45 Z M 115.37 171.38 L 115.74 172.30 C 116.07 173.10 116.98 173.48 117.78 173.15 C 118.58 172.83 118.96 171.91 118.63 171.12 L 118.26 170.20 C 117.93 169.40 117.02 169.02 116.22 169.35 C 115.42 169.67 115.04 170.59 115.37 171.38 Z M 115.75 172.31 L 116.12 173.21 C 116.46 174.01 117.37 174.38 118.17 174.05 C 118.96 173.72 119.34 172.80 119.01 172.01 L 118.63 171.11 C 118.30 170.31 117.38 169.93 116.59 170.27 C 115.79 170.60 115.42 171.51 115.75 172.31 Z M 116.13 173.23 L 116.53 174.14 C 116.87 174.93 117.79 175.29 118.58 174.95 C 119.37 174.61 119.74 173.69 119.39 172.90 L 119.00 171.99 C 118.65 171.20 117.73 170.83 116.94 171.18 C 116.15 171.52 115.79 172.44 116.13 173.23 Z M 116.54 174.17 L 116.96 175.09 C 117.33 175.87 118.25 176.21 119.04 175.85 C 119.82 175.49 120.16 174.56 119.80 173.78 L 119.38 172.86 C 119.02 172.08 118.09 171.74 117.31 172.10 C 116.52 172.46 116.18 173.39 116.54 174.17 Z M 116.98 175.13 L 117.44 176.05 C 117.83 176.82 118.76 177.14 119.53 176.75 C 120.31 176.37 120.62 175.43 120.24 174.66 L 119.78 173.74 C 119.40 172.97 118.46 172.65 117.69 173.04 C 116.92 173.42 116.60 174.36 116.98 175.13 Z M 117.47 176.10 L 117.96 177.01 C 118.37 177.77 119.32 178.05 120.08 177.64 C 120.83 177.23 121.12 176.28 120.71 175.52 L 120.21 174.61 C 119.80 173.85 118.85 173.57 118.10 173.98 C 117.34 174.39 117.06 175.34 117.47 176.10 Z M 117.99 177.07 L 118.53 177.96 C 118.97 178.70 119.93 178.94 120.67 178.49 C 121.41 178.05 121.65 177.09 121.20 176.35 L 120.67 175.46 C 120.23 174.72 119.27 174.48 118.53 174.93 C 117.79 175.37 117.55 176.33 117.99 177.07 Z M 118.58 178.03 L 119.15 178.87 C 119.64 179.58 120.61 179.77 121.32 179.28 C 122.03 178.80 122.21 177.83 121.73 177.11 L 121.16 176.27 C 120.67 175.56 119.70 175.38 118.99 175.86 C 118.27 176.35 118.09 177.32 118.58 178.03 Z M 119.22 178.97 L 119.83 179.73 C 120.37 180.40 121.35 180.51 122.02 179.97 C 122.70 179.43 122.80 178.45 122.27 177.78 L 121.66 177.02 C 121.12 176.34 120.13 176.24 119.46 176.77 C 118.79 177.31 118.68 178.30 119.22 178.97 Z M 119.94 179.85 L 120.64 180.55 C 121.25 181.16 122.23 181.16 122.84 180.55 C 123.45 179.94 123.46 178.95 122.85 178.34 L 122.15 177.65 C 121.54 177.04 120.55 177.04 119.94 177.65 C 119.33 178.26 119.33 179.24 119.94 179.85 Z M 120.84 180.72 L 121.71 181.34 C 122.42 181.84 123.39 181.68 123.89 180.97 C 124.39 180.27 124.22 179.29 123.52 178.80 L 122.65 178.17 C 121.94 177.67 120.97 177.84 120.47 178.54 C 119.97 179.25 120.13 180.22 120.84 180.72 Z M 122.05 181.52 L 122.95 181.88 C 123.76 182.19 124.66 181.80 124.98 180.99 C 125.29 180.19 124.90 179.28 124.09 178.97 L 123.19 178.62 C 122.38 178.30 121.48 178.70 121.16 179.50 C 120.85 180.30 121.25 181.21 122.05 181.52 Z M 123.43 181.98 L 124.35 182.03 C 125.21 182.08 125.95 181.43 126.00 180.56 C 126.05 179.70 125.39 178.97 124.53 178.92 L 123.61 178.86 C 122.75 178.82 122.01 179.47 121.96 180.33 C 121.92 181.20 122.57 181.93 123.43 181.98 Z M 124.87 181.98 L 125.67 181.75 C 126.50 181.51 126.98 180.65 126.74 179.82 C 126.50 178.99 125.64 178.51 124.81 178.75 L 124.01 178.97 C 123.18 179.21 122.70 180.07 122.94 180.90 C 123.18 181.73 124.04 182.21 124.87 181.98 Z M 126.05 181.58 L 126.79 181.13 C 127.53 180.69 127.77 179.73 127.32 178.99 C 126.87 178.25 125.91 178.02 125.17 178.46 L 124.43 178.91 C 123.69 179.36 123.46 180.32 123.90 181.06 C 124.35 181.80 125.31 182.03 126.05 181.58 Z M 127.04 180.95 L 127.77 180.28 C 128.40 179.69 128.45 178.71 127.86 178.07 C 127.28 177.44 126.29 177.39 125.66 177.98 L 124.93 178.65 C 124.29 179.23 124.25 180.22 124.83 180.85 C 125.42 181.49 126.40 181.53 127.04 180.95 Z M 127.93 180.11 L 128.64 179.23 C 129.18 178.56 129.08 177.58 128.41 177.04 C 127.74 176.49 126.76 176.59 126.22 177.26 L 125.50 178.14 C 124.96 178.81 125.06 179.79 125.73 180.34 C 126.40 180.88 127.38 180.78 127.93 180.11 Z M 128.74 179.10 L 129.34 178.18 C 129.81 177.46 129.61 176.49 128.89 176.02 C 128.16 175.55 127.20 175.75 126.73 176.47 L 126.12 177.39 C 125.65 178.12 125.85 179.08 126.57 179.55 C 127.30 180.03 128.26 179.82 128.74 179.10 Z M 129.39 178.09 L 129.85 177.27 C 130.28 176.52 130.01 175.57 129.26 175.15 C 128.51 174.72 127.56 174.99 127.13 175.74 L 126.67 176.56 C 126.25 177.31 126.51 178.26 127.26 178.68 C 128.02 179.11 128.97 178.84 129.39 178.09 Z M 129.89 177.21 L 130.33 176.33 C 130.73 175.56 130.42 174.62 129.65 174.23 C 128.88 173.84 127.94 174.15 127.55 174.92 L 127.10 175.80 C 126.71 176.57 127.02 177.51 127.79 177.90 C 128.55 178.29 129.49 177.98 129.89 177.21 Z M 130.36 176.29 L 130.79 175.36 C 131.16 174.58 130.82 173.65 130.04 173.29 C 129.26 172.92 128.33 173.26 127.96 174.04 L 127.53 174.96 C 127.16 175.74 127.50 176.67 128.28 177.04 C 129.06 177.40 129.99 177.07 130.36 176.29 Z M 130.81 175.33 L 131.22 174.38 C 131.57 173.59 131.21 172.66 130.42 172.32 C 129.63 171.97 128.71 172.33 128.36 173.12 L 127.95 174.07 C 127.60 174.86 127.96 175.78 128.75 176.13 C 129.54 176.47 130.46 176.12 130.81 175.33 Z M 131.24 174.35 L 131.63 173.39 C 131.96 172.59 131.59 171.68 130.79 171.35 C 129.99 171.02 129.08 171.40 128.75 172.19 L 128.35 173.15 C 128.02 173.95 128.40 174.86 129.19 175.19 C 129.99 175.52 130.90 175.14 131.24 174.35 Z M 131.64 173.37 L 132.02 172.41 C 132.34 171.61 131.95 170.70 131.15 170.38 C 130.35 170.06 129.44 170.45 129.12 171.25 L 128.74 172.21 C 128.42 173.01 128.81 173.92 129.61 174.24 C 130.41 174.56 131.32 174.17 131.64 173.37 Z M 132.03 172.39 L 132.44 171.34 C 132.75 170.53 132.35 169.63 131.54 169.32 C 130.74 169.01 129.83 169.41 129.52 170.22 L 129.12 171.27 C 128.81 172.08 129.21 172.98 130.01 173.29 C 130.82 173.60 131.72 173.20 132.03 172.39 Z M 132.44 171.32 L 132.82 170.31 C 133.12 169.50 132.71 168.60 131.90 168.30 C 131.09 168.00 130.19 168.41 129.89 169.22 L 129.52 170.23 C 129.22 171.04 129.63 171.94 130.44 172.24 C 131.24 172.54 132.14 172.13 132.44 171.32 Z M 132.82 170.30 L 133.17 169.34 C 133.46 168.53 133.04 167.64 132.23 167.34 C 131.42 167.05 130.52 167.47 130.23 168.28 L 129.89 169.24 C 129.59 170.05 130.02 170.94 130.83 171.24 C 131.64 171.53 132.53 171.11 132.82 170.30 Z M 133.17 169.33 L 133.49 168.43 C 133.77 167.62 133.34 166.73 132.53 166.44 C 131.71 166.16 130.82 166.59 130.54 167.40 L 130.23 168.30 C 129.94 169.11 130.37 170.00 131.18 170.29 C 132.00 170.57 132.89 170.14 133.17 169.33 Z M 133.49 168.42 L 133.77 167.59 C 134.05 166.78 133.61 165.89 132.80 165.61 C 131.98 165.33 131.09 165.77 130.82 166.59 L 130.54 167.41 C 130.26 168.23 130.69 169.12 131.51 169.39 C 132.33 169.67 133.21 169.24 133.49 168.42 Z M 133.78 167.58 L 134.11 166.59 C 134.38 165.77 133.93 164.89 133.11 164.62 C 132.30 164.34 131.41 164.79 131.14 165.61 L 130.81 166.60 C 130.54 167.42 130.99 168.30 131.80 168.57 C 132.62 168.84 133.51 168.40 133.78 167.58 Z M 134.11 166.58 L 134.43 165.58 C 134.69 164.76 134.24 163.88 133.42 163.62 C 132.60 163.35 131.72 163.80 131.46 164.62 L 131.14 165.62 C 130.87 166.44 131.32 167.32 132.14 167.58 C 132.96 167.85 133.84 167.40 134.11 166.58 Z M 134.43 165.58 L 134.72 164.68 C 134.98 163.85 134.52 162.98 133.70 162.71 C 132.88 162.45 132.00 162.91 131.74 163.73 L 131.46 164.63 C 131.19 165.45 131.65 166.33 132.47 166.59 C 133.29 166.85 134.17 166.40 134.43 165.58 Z M 134.72 164.68 L 134.99 163.82 C 135.26 163.00 134.80 162.12 133.98 161.86 C 133.16 161.59 132.28 162.05 132.02 162.87 L 131.74 163.72 C 131.48 164.54 131.93 165.42 132.75 165.69 C 133.57 165.95 134.45 165.50 134.72 164.68 Z M 134.99 163.84 L 135.30 162.90 C 135.57 162.08 135.13 161.20 134.31 160.93 C 133.49 160.66 132.61 161.10 132.34 161.92 L 132.02 162.85 C 131.75 163.67 132.20 164.55 133.01 164.83 C 133.83 165.10 134.72 164.66 134.99 163.84 Z M 135.29 162.92 L 135.62 161.98 C 135.90 161.16 135.46 160.27 134.65 159.99 C 133.83 159.71 132.94 160.15 132.66 160.96 L 132.34 161.90 C 132.06 162.72 132.49 163.61 133.31 163.89 C 134.13 164.17 135.01 163.73 135.29 162.92 Z M 135.61 161.98 L 135.95 161.03 C 136.23 160.21 135.81 159.32 134.99 159.04 C 134.18 158.75 133.29 159.18 133.00 159.99 L 132.67 160.95 C 132.38 161.77 132.81 162.66 133.62 162.94 C 134.44 163.23 135.33 162.80 135.61 161.98 Z M 135.95 161.03 L 136.27 160.12 C 136.56 159.30 136.14 158.41 135.32 158.12 C 134.51 157.83 133.62 158.26 133.33 159.07 L 133.00 159.99 C 132.72 160.80 133.14 161.69 133.95 161.98 C 134.77 162.27 135.66 161.85 135.95 161.03 Z M 136.27 160.12 L 136.60 159.19 C 136.89 158.38 136.47 157.49 135.65 157.20 C 134.84 156.91 133.95 157.33 133.66 158.15 L 133.33 159.07 C 133.04 159.88 133.46 160.78 134.28 161.06 C 135.09 161.35 135.98 160.93 136.27 160.12 Z M 136.60 159.19 L 136.94 158.24 C 137.23 157.43 136.81 156.53 135.99 156.24 C 135.18 155.95 134.29 156.38 134.00 157.19 L 133.66 158.15 C 133.37 158.96 133.79 159.85 134.61 160.14 C 135.42 160.43 136.31 160.01 136.60 159.19 Z M 136.94 158.23 L 137.29 157.26 C 137.57 156.45 137.15 155.55 136.33 155.27 C 135.52 154.98 134.63 155.41 134.34 156.22 L 134.00 157.19 C 133.71 158.01 134.14 158.90 134.95 159.19 C 135.76 159.47 136.65 159.05 136.94 158.23 Z M 137.29 157.26 L 137.62 156.32 C 137.90 155.51 137.47 154.62 136.66 154.33 C 135.85 154.04 134.96 154.47 134.67 155.29 L 134.34 156.22 C 134.05 157.04 134.48 157.93 135.30 158.21 C 136.11 158.50 137.00 158.07 137.29 157.26 Z M 137.61 156.33 L 137.95 155.37 C 138.24 154.56 137.82 153.67 137.00 153.38 C 136.19 153.09 135.30 153.52 135.01 154.33 L 134.67 155.28 C 134.38 156.09 134.81 156.99 135.62 157.27 C 136.43 157.56 137.33 157.14 137.61 156.33 Z M 137.95 155.39 L 138.29 154.44 C 138.59 153.63 138.17 152.74 137.36 152.44 C 136.55 152.14 135.66 152.56 135.36 153.37 L 135.01 154.32 C 134.72 155.13 135.13 156.02 135.94 156.32 C 136.75 156.61 137.65 156.20 137.95 155.39 Z M 138.28 154.47 L 138.64 153.53 C 138.95 152.72 138.55 151.82 137.75 151.51 C 136.94 151.20 136.04 151.60 135.73 152.41 L 135.37 153.35 C 135.06 154.15 135.46 155.05 136.27 155.36 C 137.07 155.67 137.97 155.27 138.28 154.47 Z M 138.63 153.56 L 139.01 152.62 C 139.34 151.82 138.96 150.91 138.16 150.59 C 137.36 150.26 136.45 150.64 136.12 151.44 L 135.74 152.38 C 135.42 153.18 135.80 154.09 136.60 154.42 C 137.40 154.74 138.31 154.36 138.63 153.56 Z M 139.01 152.64 L 139.39 151.72 C 139.73 150.93 139.36 150.01 138.56 149.68 C 137.77 149.34 136.85 149.71 136.52 150.51 L 136.13 151.42 C 135.79 152.22 136.17 153.13 136.96 153.47 C 137.75 153.80 138.67 153.43 139.01 152.64 Z M 139.39 151.73 L 139.78 150.83 C 140.12 150.03 139.76 149.12 138.97 148.77 C 138.17 148.43 137.26 148.80 136.91 149.59 L 136.52 150.50 C 136.18 151.29 136.55 152.21 137.34 152.55 C 138.13 152.89 139.05 152.53 139.39 151.73 Z M 139.78 150.83 L 140.17 149.92 C 140.51 149.13 140.15 148.21 139.35 147.87 C 138.56 147.53 137.64 147.90 137.30 148.69 L 136.91 149.59 C 136.57 150.38 136.94 151.30 137.73 151.64 C 138.52 151.98 139.44 151.62 139.78 150.83 Z M 140.17 149.92 L 140.56 149.02 C 140.90 148.22 140.53 147.31 139.74 146.97 C 138.95 146.63 138.03 146.99 137.69 147.78 L 137.30 148.69 C 136.96 149.48 137.33 150.40 138.12 150.74 C 138.91 151.08 139.83 150.71 140.17 149.92 Z M 140.56 149.02 L 140.95 148.10 C 141.30 147.31 140.93 146.39 140.14 146.05 C 139.35 145.71 138.43 146.07 138.09 146.86 L 137.69 147.78 C 137.35 148.57 137.71 149.49 138.51 149.83 C 139.30 150.17 140.22 149.81 140.56 149.02 Z M 140.95 148.11 L 141.36 147.17 C 141.71 146.38 141.35 145.46 140.56 145.12 C 139.77 144.77 138.85 145.13 138.50 145.92 L 138.09 146.85 C 137.75 147.64 138.11 148.57 138.90 148.91 C 139.69 149.26 140.61 148.90 140.95 148.11 Z M 141.36 147.18 L 141.76 146.29 C 142.11 145.50 141.76 144.58 140.97 144.23 C 140.18 143.87 139.26 144.23 138.91 145.01 L 138.51 145.91 C 138.15 146.70 138.51 147.62 139.29 147.97 C 140.08 148.32 141.00 147.97 141.36 147.18 Z M 141.75 146.30 L 142.16 145.40 C 142.52 144.62 142.17 143.69 141.39 143.33 C 140.60 142.98 139.68 143.32 139.32 144.11 L 138.91 145.00 C 138.55 145.79 138.90 146.71 139.68 147.07 C 140.47 147.43 141.39 147.08 141.75 146.30 Z M 142.16 145.41 L 142.58 144.49 C 142.94 143.71 142.60 142.78 141.81 142.42 C 141.03 142.06 140.10 142.40 139.74 143.19 L 139.32 144.10 C 138.96 144.88 139.30 145.81 140.09 146.17 C 140.87 146.53 141.80 146.19 142.16 145.41 Z M 142.58 144.50 L 143.01 143.57 C 143.37 142.79 143.03 141.86 142.25 141.50 C 141.47 141.13 140.54 141.47 140.18 142.25 L 139.74 143.18 C 139.38 143.97 139.72 144.89 140.50 145.26 C 141.28 145.62 142.21 145.28 142.58 144.50 Z M 143.01 143.57 L 143.42 142.68 C 143.79 141.90 143.45 140.97 142.67 140.60 C 141.88 140.24 140.96 140.58 140.59 141.36 L 140.18 142.25 C 139.81 143.03 140.15 143.96 140.93 144.33 C 141.71 144.69 142.64 144.35 143.01 143.57 Z M 143.42 142.68 L 143.84 141.79 C 144.20 141.01 143.86 140.08 143.08 139.72 C 142.30 139.35 141.37 139.69 141.01 140.47 L 140.59 141.36 C 140.23 142.14 140.57 143.07 141.35 143.43 C 142.13 143.80 143.06 143.46 143.42 142.68 Z M 143.84 141.79 L 144.26 140.89 C 144.63 140.11 144.29 139.18 143.51 138.81 C 142.73 138.45 141.80 138.78 141.43 139.56 L 141.01 140.47 C 140.64 141.25 140.98 142.18 141.76 142.54 C 142.54 142.91 143.47 142.57 143.84 141.79 Z M 144.26 140.89 L 144.69 139.97 C 145.06 139.19 144.73 138.26 143.95 137.89 C 143.17 137.52 142.24 137.86 141.87 138.64 L 141.43 139.56 C 141.07 140.34 141.40 141.27 142.18 141.64 C 142.96 142.01 143.89 141.67 144.26 140.89 Z M 144.69 139.97 L 145.12 139.06 C 145.49 138.29 145.16 137.35 144.38 136.98 C 143.60 136.61 142.67 136.95 142.30 137.72 L 141.87 138.63 C 141.50 139.41 141.83 140.34 142.61 140.71 C 143.39 141.08 144.32 140.75 144.69 139.97 Z M 145.12 139.07 L 145.53 138.22 C 145.90 137.44 145.57 136.51 144.80 136.13 C 144.02 135.76 143.09 136.09 142.71 136.87 L 142.30 137.72 C 141.93 138.50 142.26 139.43 143.04 139.80 C 143.82 140.18 144.75 139.85 145.12 139.07 Z M 145.53 138.22 L 145.95 137.34 C 146.32 136.57 146.00 135.63 145.22 135.26 C 144.44 134.88 143.51 135.21 143.14 135.99 L 142.71 136.86 C 142.34 137.64 142.67 138.57 143.44 138.95 C 144.22 139.32 145.15 139.00 145.53 138.22 Z M 145.95 137.35 L 146.39 136.44 C 146.76 135.66 146.44 134.73 145.66 134.36 C 144.88 133.98 143.95 134.30 143.57 135.08 L 143.14 135.99 C 142.76 136.76 143.09 137.70 143.86 138.07 C 144.64 138.45 145.57 138.12 145.95 137.35 Z M 146.38 136.44 L 146.84 135.50 C 147.22 134.73 146.89 133.79 146.12 133.42 C 145.34 133.04 144.41 133.37 144.03 134.14 L 143.58 135.08 C 143.20 135.86 143.52 136.79 144.30 137.17 C 145.07 137.54 146.01 137.22 146.38 136.44 Z M 146.84 135.51 L 147.29 134.57 C 147.67 133.79 147.35 132.86 146.57 132.48 C 145.80 132.11 144.86 132.43 144.49 133.21 L 144.03 134.14 C 143.65 134.92 143.98 135.85 144.75 136.23 C 145.53 136.60 146.46 136.28 146.84 135.51 Z M 147.29 134.57 L 147.72 133.70 C 148.10 132.92 147.77 131.99 147.00 131.61 C 146.22 131.23 145.29 131.56 144.91 132.33 L 144.49 133.21 C 144.11 133.98 144.43 134.91 145.21 135.29 C 145.98 135.67 146.92 135.35 147.29 134.57 Z M 147.72 133.69 L 148.15 132.80 C 148.53 132.02 148.21 131.09 147.43 130.71 C 146.66 130.34 145.72 130.66 145.35 131.44 L 144.91 132.33 C 144.53 133.11 144.86 134.04 145.63 134.42 C 146.41 134.79 147.34 134.47 147.72 133.69 Z M 148.16 132.80 L 148.60 131.88 C 148.97 131.11 148.64 130.17 147.87 129.80 C 147.09 129.43 146.16 129.75 145.78 130.53 L 145.34 131.44 C 144.97 132.21 145.30 133.15 146.07 133.52 C 146.85 133.90 147.78 133.57 148.16 132.80 Z M 148.60 131.88 L 149.04 130.96 C 149.41 130.19 149.08 129.25 148.30 128.88 C 147.53 128.51 146.59 128.84 146.22 129.61 L 145.78 130.53 C 145.41 131.31 145.74 132.24 146.52 132.61 C 147.29 132.99 148.23 132.66 148.60 131.88 Z M 149.04 130.96 L 149.47 130.04 C 149.84 129.26 149.51 128.33 148.73 127.96 C 147.95 127.59 147.02 127.92 146.65 128.70 L 146.22 129.62 C 145.85 130.40 146.18 131.33 146.96 131.70 C 147.74 132.07 148.67 131.74 149.04 130.96 Z M 149.48 130.03 L 149.91 129.11 C 150.27 128.33 149.94 127.40 149.16 127.04 C 148.37 126.67 147.45 127.01 147.08 127.79 L 146.65 128.71 C 146.28 129.49 146.62 130.42 147.40 130.79 C 148.18 131.15 149.11 130.81 149.48 130.03 Z M 149.91 129.11 L 150.34 128.19 C 150.70 127.41 150.35 126.48 149.57 126.12 C 148.79 125.76 147.86 126.10 147.50 126.88 L 147.08 127.80 C 146.72 128.58 147.06 129.51 147.84 129.87 C 148.62 130.23 149.55 129.89 149.91 129.11 Z M 150.34 128.18 L 150.75 127.27 C 151.11 126.49 150.77 125.56 149.98 125.20 C 149.20 124.85 148.27 125.19 147.91 125.98 L 147.50 126.89 C 147.14 127.67 147.48 128.60 148.27 128.95 C 149.05 129.31 149.98 128.97 150.34 128.18 Z M 150.75 127.27 L 151.17 126.37 C 151.52 125.58 151.17 124.65 150.39 124.30 C 149.60 123.94 148.68 124.29 148.32 125.07 L 147.91 125.98 C 147.56 126.76 147.90 127.69 148.69 128.05 C 149.47 128.40 150.40 128.06 150.75 127.27 Z M 151.17 126.36 L 151.58 125.46 C 151.93 124.68 151.58 123.75 150.80 123.39 C 150.01 123.04 149.09 123.39 148.73 124.17 L 148.32 125.08 C 147.97 125.86 148.31 126.79 149.10 127.14 C 149.89 127.50 150.81 127.15 151.17 126.36 Z M 151.57 125.46 L 151.98 124.56 C 152.34 123.77 151.99 122.85 151.21 122.49 C 150.42 122.14 149.50 122.48 149.14 123.27 L 148.73 124.17 C 148.38 124.96 148.72 125.88 149.51 126.24 C 150.29 126.59 151.22 126.25 151.57 125.46 Z M 151.98 124.56 L 152.39 123.66 C 152.75 122.88 152.40 121.95 151.62 121.60 C 150.83 121.24 149.91 121.59 149.55 122.37 L 149.14 123.27 C 148.78 124.05 149.13 124.98 149.92 125.33 C 150.70 125.69 151.63 125.35 151.98 124.56 Z M 152.39 123.67 L 152.80 122.77 C 153.16 121.99 152.82 121.06 152.04 120.70 C 151.25 120.34 150.33 120.68 149.97 121.47 L 149.55 122.37 C 149.19 123.15 149.54 124.08 150.32 124.44 C 151.10 124.80 152.03 124.45 152.39 123.67 Z M 152.80 122.78 L 153.22 121.87 C 153.58 121.09 153.24 120.16 152.46 119.80 C 151.68 119.44 150.75 119.77 150.39 120.56 L 149.97 121.46 C 149.60 122.24 149.94 123.17 150.73 123.53 C 151.51 123.90 152.44 123.56 152.80 122.78 Z M 153.22 121.88 L 153.64 120.97 C 154.01 120.19 153.68 119.26 152.90 118.90 C 152.12 118.53 151.19 118.86 150.82 119.64 L 150.39 120.55 C 150.02 121.33 150.36 122.26 151.14 122.63 C 151.92 122.99 152.85 122.66 153.22 121.88 Z M 153.64 120.98 L 154.08 120.07 C 154.45 119.29 154.12 118.36 153.35 117.99 C 152.57 117.62 151.64 117.94 151.26 118.72 L 150.82 119.63 C 150.45 120.41 150.78 121.34 151.56 121.71 C 152.33 122.09 153.27 121.76 153.64 120.98 Z M 154.07 120.08 L 154.52 119.18 C 154.90 118.40 154.58 117.47 153.80 117.09 C 153.03 116.71 152.09 117.03 151.71 117.80 L 151.27 118.71 C 150.89 119.48 151.21 120.42 151.98 120.80 C 152.76 121.18 153.69 120.86 154.07 120.08 Z M 154.51 119.19 L 154.95 118.31 C 155.34 117.54 155.03 116.60 154.25 116.21 C 153.48 115.83 152.55 116.14 152.16 116.91 L 151.72 117.79 C 151.33 118.56 151.64 119.50 152.42 119.88 C 153.19 120.27 154.12 119.96 154.51 119.19 Z M 154.95 118.32 L 155.40 117.44 C 155.79 116.67 155.49 115.73 154.72 115.34 C 153.95 114.94 153.01 115.25 152.62 116.01 L 152.17 116.90 C 151.77 117.67 152.08 118.61 152.84 119.00 C 153.61 119.39 154.55 119.09 154.95 118.32 Z M 155.39 117.45 L 155.85 116.57 C 156.25 115.80 155.96 114.86 155.19 114.46 C 154.43 114.06 153.49 114.35 153.09 115.12 L 152.62 116.00 C 152.22 116.77 152.52 117.71 153.28 118.11 C 154.05 118.51 154.99 118.21 155.39 117.45 Z M 155.85 116.58 L 156.32 115.69 C 156.73 114.93 156.44 113.98 155.68 113.58 C 154.92 113.17 153.97 113.46 153.57 114.22 L 153.09 115.11 C 152.69 115.87 152.97 116.81 153.73 117.22 C 154.49 117.62 155.44 117.34 155.85 116.58 Z M 156.31 115.70 L 156.80 114.82 C 157.21 114.06 156.93 113.11 156.18 112.70 C 155.42 112.28 154.47 112.56 154.06 113.32 L 153.57 114.21 C 153.16 114.96 153.44 115.91 154.20 116.33 C 154.95 116.74 155.90 116.46 156.31 115.70 Z M 156.79 114.83 L 157.29 113.95 C 157.71 113.19 157.44 112.24 156.68 111.82 C 155.93 111.40 154.98 111.67 154.56 112.42 L 154.07 113.31 C 153.65 114.06 153.91 115.01 154.67 115.43 C 155.42 115.85 156.37 115.58 156.79 114.83 Z M 157.28 113.96 L 157.77 113.10 C 158.20 112.35 157.94 111.39 157.19 110.97 C 156.44 110.54 155.49 110.80 155.06 111.55 L 154.57 112.41 C 154.14 113.16 154.40 114.11 155.15 114.54 C 155.90 114.97 156.85 114.71 157.28 113.96 Z M 157.76 113.11 L 158.27 112.25 C 158.70 111.50 158.45 110.55 157.70 110.11 C 156.96 109.68 156.00 109.93 155.57 110.68 L 155.06 111.54 C 154.63 112.28 154.88 113.24 155.63 113.67 C 156.37 114.11 157.33 113.86 157.76 113.11 Z M 158.26 112.26 L 158.77 111.40 C 159.21 110.66 158.97 109.70 158.23 109.26 C 157.48 108.82 156.52 109.06 156.08 109.80 L 155.57 110.66 C 155.13 111.41 155.38 112.36 156.12 112.81 C 156.86 113.25 157.82 113.00 158.26 112.26 Z M 158.76 111.41 L 159.28 110.56 C 159.73 109.82 159.49 108.86 158.76 108.41 C 158.02 107.96 157.06 108.20 156.61 108.94 L 156.09 109.79 C 155.64 110.53 155.88 111.49 156.62 111.94 C 157.36 112.39 158.32 112.15 158.76 111.41 Z M 159.28 110.57 L 159.81 109.71 C 160.26 108.98 160.03 108.01 159.30 107.56 C 158.56 107.11 157.60 107.33 157.14 108.07 L 156.62 108.92 C 156.16 109.66 156.39 110.62 157.13 111.08 C 157.86 111.53 158.82 111.30 159.28 110.57 Z M 159.80 109.72 L 160.33 108.87 C 160.79 108.14 160.57 107.17 159.84 106.71 C 159.11 106.25 158.14 106.48 157.68 107.21 L 157.15 108.06 C 156.69 108.79 156.91 109.76 157.64 110.21 C 158.37 110.67 159.34 110.45 159.80 109.72 Z M 160.33 108.88 L 160.85 108.06 C 161.32 107.33 161.10 106.36 160.37 105.90 C 159.65 105.43 158.68 105.65 158.21 106.38 L 157.69 107.20 C 157.22 107.93 157.44 108.89 158.17 109.36 C 158.89 109.82 159.86 109.61 160.33 108.88 Z M 160.85 108.07 L 161.38 107.25 C 161.85 106.52 161.64 105.55 160.92 105.08 C 160.19 104.61 159.22 104.82 158.75 105.54 L 158.22 106.37 C 157.75 107.09 157.96 108.06 158.68 108.53 C 159.41 109.00 160.38 108.79 160.85 108.07 Z M 161.37 107.25 L 161.91 106.43 C 162.39 105.71 162.19 104.74 161.47 104.26 C 160.75 103.79 159.78 103.99 159.30 104.71 L 158.76 105.54 C 158.29 106.26 158.49 107.23 159.21 107.70 C 159.93 108.18 160.90 107.98 161.37 107.25 Z M 161.91 106.44 L 162.46 105.61 C 162.94 104.89 162.75 103.92 162.03 103.44 C 161.31 102.96 160.34 103.15 159.86 103.87 L 159.31 104.70 C 158.83 105.42 159.02 106.39 159.74 106.87 C 160.46 107.35 161.43 107.15 161.91 106.44 Z M 162.46 105.61 L 163.02 104.77 C 163.51 104.06 163.32 103.09 162.60 102.60 C 161.89 102.12 160.92 102.31 160.43 103.02 L 159.87 103.87 C 159.39 104.58 159.57 105.55 160.29 106.03 C 161.00 106.52 161.98 106.33 162.46 105.61 Z M 163.02 104.78 L 163.60 103.92 C 164.09 103.21 163.90 102.24 163.19 101.75 C 162.48 101.27 161.51 101.45 161.02 102.17 L 160.44 103.02 C 159.95 103.73 160.14 104.70 160.85 105.19 C 161.56 105.67 162.53 105.49 163.02 104.78 Z M 163.60 103.93 L 164.17 103.10 C 164.66 102.39 164.48 101.42 163.76 100.93 C 163.05 100.44 162.08 100.62 161.59 101.33 L 161.02 102.16 C 160.53 102.87 160.71 103.84 161.43 104.33 C 162.14 104.82 163.11 104.64 163.60 103.93 Z M 164.17 103.11 L 164.73 102.29 C 165.23 101.58 165.05 100.61 164.34 100.11 C 163.63 99.62 162.65 99.80 162.16 100.51 L 161.59 101.33 C 161.10 102.04 161.28 103.01 161.99 103.51 C 162.70 104.00 163.67 103.82 164.17 103.11 Z M 164.73 102.30 L 165.31 101.48 C 165.81 100.77 165.64 99.79 164.92 99.29 C 164.21 98.79 163.23 98.96 162.74 99.67 L 162.16 100.50 C 161.66 101.21 161.83 102.19 162.55 102.69 C 163.26 103.18 164.24 103.01 164.73 102.30 Z M 165.31 101.49 L 165.89 100.66 C 166.40 99.95 166.23 98.97 165.52 98.46 C 164.81 97.96 163.82 98.13 163.32 98.84 L 162.74 99.67 C 162.23 100.38 162.40 101.36 163.11 101.86 C 163.82 102.36 164.81 102.20 165.31 101.49 Z M 165.89 100.67 L 166.48 99.85 C 166.99 99.14 166.82 98.15 166.11 97.64 C 165.40 97.14 164.42 97.30 163.91 98.01 L 163.32 98.83 C 162.81 99.54 162.98 100.53 163.69 101.04 C 164.40 101.54 165.39 101.38 165.89 100.67 Z M 166.48 99.86 L 167.07 99.05 C 167.58 98.34 167.42 97.35 166.71 96.83 C 166.00 96.32 165.01 96.48 164.50 97.19 L 163.91 98.00 C 163.40 98.71 163.56 99.70 164.27 100.21 C 164.97 100.73 165.96 100.57 166.48 99.86 Z M 167.06 99.06 L 167.65 98.26 C 168.17 97.55 168.01 96.56 167.31 96.04 C 166.60 95.52 165.60 95.67 165.09 96.38 L 164.50 97.18 C 163.98 97.89 164.13 98.88 164.84 99.40 C 165.55 99.92 166.54 99.76 167.06 99.06 Z M 167.64 98.27 L 168.26 97.45 C 168.78 96.74 168.64 95.75 167.93 95.22 C 167.23 94.70 166.23 94.84 165.70 95.55 L 165.09 96.37 C 164.56 97.07 164.71 98.07 165.42 98.60 C 166.12 99.12 167.12 98.98 167.64 98.27 Z M 168.25 97.46 L 168.86 96.65 C 169.39 95.95 169.25 94.95 168.55 94.42 C 167.85 93.89 166.85 94.02 166.32 94.73 L 165.71 95.54 C 165.18 96.24 165.32 97.24 166.02 97.77 C 166.72 98.30 167.72 98.16 168.25 97.46 Z M 168.86 96.65 L 169.47 95.86 C 170.00 95.16 169.87 94.16 169.17 93.63 C 168.47 93.09 167.47 93.22 166.94 93.92 L 166.33 94.72 C 165.79 95.42 165.93 96.42 166.62 96.95 C 167.32 97.49 168.32 97.35 168.86 96.65 Z M 169.46 95.87 L 170.07 95.08 C 170.61 94.39 170.48 93.39 169.78 92.85 C 169.09 92.31 168.09 92.44 167.55 93.13 L 166.94 93.92 C 166.40 94.61 166.53 95.61 167.23 96.15 C 167.92 96.69 168.92 96.56 169.46 95.87 Z M 170.06 95.09 L 170.67 94.31 C 171.21 93.62 171.09 92.61 170.39 92.07 C 169.70 91.53 168.70 91.66 168.16 92.35 L 167.55 93.13 C 167.01 93.82 167.14 94.82 167.83 95.36 C 168.52 95.90 169.52 95.78 170.06 95.09 Z M 170.67 94.31 L 171.27 93.54 C 171.82 92.85 171.70 91.84 171.00 91.30 C 170.31 90.76 169.31 90.88 168.77 91.57 L 168.16 92.35 C 167.62 93.04 167.74 94.04 168.43 94.58 C 169.12 95.12 170.12 95.00 170.67 94.31 Z M 171.27 93.54 L 171.88 92.76 C 172.43 92.07 172.31 91.07 171.62 90.53 C 170.92 89.98 169.92 90.10 169.38 90.79 L 168.77 91.57 C 168.23 92.26 168.35 93.26 169.04 93.81 C 169.73 94.35 170.73 94.23 171.27 93.54 Z M 171.89 92.76 L 172.50 91.98 C 173.04 91.29 172.92 90.29 172.23 89.74 C 171.54 89.20 170.54 89.32 169.99 90.01 L 169.38 90.79 C 168.83 91.49 168.95 92.49 169.65 93.03 C 170.34 93.58 171.34 93.46 171.89 92.76 Z M 172.50 91.98 L 173.12 91.20 C 173.66 90.50 173.54 89.50 172.84 88.96 C 172.15 88.41 171.15 88.54 170.60 89.23 L 169.99 90.01 C 169.45 90.71 169.57 91.71 170.26 92.25 C 170.96 92.80 171.96 92.68 172.50 91.98 Z M 173.12 91.19 L 173.74 90.41 C 174.28 89.71 174.15 88.71 173.46 88.16 C 172.76 87.62 171.76 87.75 171.21 88.44 L 170.60 89.23 C 170.06 89.93 170.18 90.93 170.88 91.47 C 171.58 92.02 172.58 91.89 173.12 91.19 Z M 173.74 90.40 L 174.35 89.61 C 174.89 88.91 174.76 87.90 174.06 87.36 C 173.36 86.82 172.36 86.95 171.82 87.65 L 171.21 88.45 C 170.67 89.15 170.80 90.15 171.50 90.69 C 172.20 91.23 173.20 91.10 173.74 90.40 Z M 174.36 89.60 L 174.97 88.80 C 175.51 88.10 175.37 87.09 174.67 86.56 C 173.96 86.02 172.96 86.16 172.42 86.86 L 171.81 87.66 C 171.28 88.36 171.41 89.37 172.12 89.90 C 172.82 90.44 173.83 90.30 174.36 89.60 Z M 174.98 88.79 L 175.58 87.99 C 176.11 87.28 175.97 86.27 175.26 85.74 C 174.55 85.21 173.55 85.35 173.02 86.06 L 172.41 86.87 C 171.88 87.58 172.03 88.58 172.73 89.11 C 173.44 89.64 174.45 89.50 174.98 88.79 Z M 175.59 87.98 L 176.19 87.17 C 176.71 86.45 176.56 85.45 175.85 84.92 C 175.13 84.40 174.13 84.55 173.60 85.26 L 173.01 86.07 C 172.48 86.79 172.63 87.79 173.35 88.32 C 174.06 88.84 175.07 88.69 175.59 87.98 Z M 176.19 87.16 L 176.78 86.34 C 177.30 85.63 177.14 84.62 176.42 84.10 C 175.71 83.58 174.70 83.74 174.18 84.46 L 173.60 85.28 C 173.08 85.99 173.24 87.00 173.95 87.52 C 174.67 88.03 175.67 87.87 176.19 87.16 Z M 176.79 86.33 L 177.37 85.52 C 177.89 84.80 177.72 83.79 177.00 83.28 C 176.28 82.77 175.27 82.93 174.76 83.65 L 174.18 84.47 C 173.66 85.19 173.83 86.19 174.55 86.71 C 175.27 87.22 176.28 87.05 176.79 86.33 Z M 177.38 85.51 L 177.95 84.69 C 178.46 83.96 178.29 82.96 177.56 82.45 C 176.84 81.95 175.84 82.12 175.33 82.84 L 174.75 83.66 C 174.24 84.39 174.42 85.39 175.14 85.90 C 175.87 86.41 176.87 86.23 177.38 85.51 Z M 177.96 84.68 L 178.53 83.86 C 179.03 83.14 178.85 82.14 178.13 81.63 C 177.40 81.13 176.40 81.31 175.90 82.03 L 175.33 82.85 C 174.82 83.58 175.00 84.58 175.73 85.08 C 176.45 85.59 177.45 85.41 177.96 84.68 Z M 178.53 83.86 L 179.10 83.04 C 179.60 82.31 179.41 81.31 178.68 80.81 C 177.95 80.31 176.96 80.49 176.45 81.22 L 175.89 82.04 C 175.39 82.77 175.57 83.77 176.30 84.27 C 177.03 84.77 178.03 84.59 178.53 83.86 Z M 179.10 83.03 L 179.67 82.20 C 180.17 81.47 179.98 80.47 179.25 79.97 C 178.52 79.47 177.52 79.66 177.02 80.39 L 176.45 81.23 C 175.95 81.96 176.14 82.95 176.87 83.45 C 177.60 83.95 178.60 83.76 179.10 83.03 Z M 179.67 82.19 L 180.25 81.35 C 180.74 80.61 180.55 79.62 179.82 79.12 C 179.08 78.62 178.09 78.81 177.59 79.55 L 177.02 80.39 C 176.52 81.13 176.71 82.12 177.45 82.62 C 178.18 83.12 179.18 82.93 179.67 82.19 Z M 180.25 81.34 L 180.82 80.51 C 181.31 79.77 181.12 78.77 180.38 78.28 C 179.64 77.78 178.64 77.98 178.15 78.71 L 177.58 79.55 C 177.09 80.29 177.28 81.29 178.02 81.78 C 178.76 82.28 179.76 82.08 180.25 81.34 Z M 180.82 80.50 L 181.38 79.67 C 181.87 78.93 181.67 77.93 180.93 77.44 C 180.19 76.94 179.19 77.14 178.70 77.88 L 178.14 78.72 C 177.65 79.45 177.85 80.45 178.59 80.95 C 179.33 81.44 180.33 81.24 180.82 80.50 Z M 181.38 79.67 L 181.93 78.84 C 182.42 78.10 182.22 77.10 181.47 76.61 C 180.73 76.12 179.73 76.32 179.24 77.06 L 178.70 77.89 C 178.20 78.63 178.41 79.63 179.15 80.12 C 179.89 80.61 180.89 80.41 181.38 79.67 Z M 181.93 78.84 L 182.47 78.02 C 182.96 77.28 182.75 76.28 182.01 75.79 C 181.26 75.30 180.26 75.50 179.78 76.25 L 179.24 77.06 C 178.75 77.81 178.95 78.81 179.70 79.30 C 180.44 79.79 181.44 79.58 181.93 78.84 Z M 182.47 78.02 L 183.02 77.19 C 183.50 76.44 183.29 75.44 182.55 74.95 C 181.80 74.46 180.80 74.67 180.31 75.42 L 179.77 76.25 C 179.28 77.00 179.49 78.00 180.24 78.48 C 180.99 78.97 181.99 78.76 182.47 78.02 Z M 183.02 77.18 L 183.57 76.33 C 184.05 75.58 183.84 74.59 183.09 74.10 C 182.35 73.62 181.35 73.83 180.86 74.58 L 180.31 75.43 C 179.83 76.17 180.04 77.17 180.79 77.66 C 181.53 78.14 182.53 77.93 183.02 77.18 Z M 183.57 76.33 L 184.11 75.49 C 184.60 74.74 184.38 73.74 183.63 73.26 C 182.88 72.77 181.88 72.99 181.40 73.74 L 180.86 74.58 C 180.38 75.33 180.59 76.33 181.34 76.81 C 182.09 77.29 183.09 77.08 183.57 76.33 Z M 184.12 75.48 L 184.65 74.64 C 185.13 73.89 184.91 72.89 184.16 72.41 C 183.41 71.94 182.41 72.16 181.93 72.91 L 181.40 73.75 C 180.92 74.50 181.14 75.49 181.89 75.97 C 182.64 76.45 183.64 76.23 184.12 75.48 Z M 184.65 74.64 L 185.18 73.80 C 185.66 73.04 185.44 72.05 184.68 71.57 C 183.93 71.10 182.93 71.32 182.46 72.07 L 181.93 72.91 C 181.45 73.67 181.68 74.66 182.43 75.14 C 183.18 75.61 184.18 75.39 184.65 74.64 Z M 185.19 73.79 L 185.71 72.95 C 186.19 72.20 185.96 71.20 185.20 70.73 C 184.45 70.26 183.45 70.48 182.98 71.24 L 182.46 72.08 C 181.98 72.83 182.21 73.83 182.97 74.30 C 183.72 74.77 184.71 74.55 185.19 73.79 Z M 185.72 72.94 L 186.26 72.06 C 186.73 71.31 186.50 70.31 185.74 69.84 C 184.99 69.38 183.99 69.61 183.52 70.36 L 182.98 71.24 C 182.51 72.00 182.74 72.99 183.50 73.46 C 184.26 73.93 185.25 73.70 185.72 72.94 Z M 186.27 72.06 L 186.82 71.16 C 187.29 70.40 187.05 69.41 186.29 68.94 C 185.53 68.48 184.54 68.71 184.07 69.47 L 183.52 70.37 C 183.05 71.13 183.29 72.12 184.05 72.59 C 184.81 73.05 185.80 72.82 186.27 72.06 Z M 186.82 71.15 L 187.36 70.27 C 187.83 69.51 187.58 68.52 186.82 68.05 C 186.06 67.59 185.07 67.83 184.60 68.59 L 184.07 69.48 C 183.60 70.24 183.85 71.23 184.61 71.70 C 185.37 72.16 186.36 71.92 186.82 71.15 Z M 187.37 70.26 L 187.88 69.40 C 188.34 68.64 188.10 67.65 187.33 67.19 C 186.57 66.73 185.58 66.98 185.12 67.74 L 184.60 68.60 C 184.14 69.36 184.39 70.36 185.15 70.82 C 185.92 71.28 186.91 71.03 187.37 70.26 Z M 187.89 69.40 L 188.38 68.58 C 188.83 67.81 188.58 66.82 187.81 66.36 C 187.04 65.91 186.05 66.16 185.60 66.93 L 185.11 67.75 C 184.65 68.52 184.91 69.51 185.68 69.96 C 186.44 70.42 187.44 70.16 187.89 69.40 Z M 188.38 68.57 L 188.86 67.74 C 189.32 66.97 189.05 65.98 188.28 65.53 C 187.51 65.08 186.52 65.34 186.07 66.11 L 185.59 66.94 C 185.14 67.71 185.40 68.70 186.17 69.15 C 186.94 69.60 187.93 69.34 188.38 68.57 Z M 188.87 67.73 L 189.43 66.75 C 189.87 65.97 189.60 64.98 188.82 64.54 C 188.05 64.10 187.06 64.37 186.62 65.15 L 186.06 66.13 C 185.62 66.90 185.89 67.89 186.67 68.33 C 187.44 68.77 188.43 68.50 188.87 67.73 Z M 189.44 66.73 L 189.93 65.84 C 190.36 65.06 190.07 64.08 189.29 63.65 C 188.50 63.22 187.52 63.50 187.09 64.29 L 186.61 65.17 C 186.18 65.95 186.47 66.94 187.25 67.37 C 188.03 67.79 189.01 67.51 189.44 66.73 Z M 189.94 65.81 L 190.37 64.99 C 190.78 64.20 190.47 63.23 189.68 62.82 C 188.89 62.40 187.92 62.71 187.51 63.50 L 187.08 64.32 C 186.67 65.11 186.97 66.08 187.76 66.49 C 188.55 66.91 189.53 66.60 189.94 65.81 Z M 190.38 64.96 L 190.77 64.18 C 191.16 63.38 190.84 62.41 190.04 62.02 C 189.24 61.62 188.27 61.95 187.88 62.75 L 187.49 63.53 C 187.10 64.33 187.42 65.30 188.22 65.69 C 189.02 66.09 189.99 65.76 190.38 64.96 Z M 190.79 64.15 L 191.16 63.34 C 191.54 62.54 191.19 61.58 190.38 61.20 C 189.57 60.82 188.61 61.18 188.23 61.98 L 187.86 62.78 C 187.48 63.59 187.83 64.55 188.64 64.93 C 189.45 65.30 190.41 64.95 190.79 64.15 Z M 191.18 63.31 L 191.56 62.45 C 191.92 61.63 191.54 60.68 190.73 60.32 C 189.91 59.96 188.95 60.33 188.60 61.15 L 188.22 62.01 C 187.86 62.83 188.23 63.79 189.05 64.14 C 189.86 64.50 190.82 64.13 191.18 63.31 Z M 191.57 62.43 L 191.99 61.42 C 192.34 60.60 191.95 59.65 191.13 59.30 C 190.30 58.95 189.35 59.34 189.01 60.16 L 188.58 61.17 C 188.24 61.99 188.62 62.94 189.45 63.29 C 190.27 63.64 191.22 63.25 191.57 62.43 Z M 192.00 61.41 L 192.39 60.47 C 192.73 59.64 192.33 58.69 191.50 58.35 C 190.68 58.01 189.73 58.41 189.39 59.23 L 189.00 60.17 C 188.66 61.00 189.05 61.95 189.88 62.29 C 190.71 62.63 191.66 62.24 192.00 61.41 Z M 192.39 60.46 L 192.72 59.64 C 193.06 58.81 192.67 57.86 191.84 57.53 C 191.01 57.19 190.06 57.58 189.73 58.41 L 189.39 59.24 C 189.05 60.07 189.45 61.01 190.27 61.35 C 191.10 61.69 192.05 61.29 192.39 60.46 Z M 192.72 59.63 L 193.09 58.74 C 193.42 57.91 193.03 56.97 192.20 56.63 C 191.37 56.29 190.43 56.69 190.09 57.52 L 189.73 58.42 C 189.39 59.24 189.79 60.19 190.61 60.52 C 191.44 60.86 192.39 60.46 192.72 59.63 Z M 193.09 58.74 L 193.47 57.79 C 193.81 56.96 193.41 56.02 192.58 55.68 C 191.75 55.35 190.81 55.75 190.48 56.57 L 190.09 57.52 C 189.76 58.35 190.15 59.29 190.98 59.63 C 191.81 59.96 192.75 59.57 193.09 58.74 Z M 193.47 57.79 L 193.87 56.80 C 194.20 55.97 193.81 55.03 192.98 54.70 C 192.15 54.36 191.21 54.76 190.88 55.59 L 190.48 56.58 C 190.14 57.40 190.54 58.34 191.37 58.68 C 192.19 59.01 193.14 58.61 193.47 57.79 Z M 193.87 56.80 L 194.28 55.79 C 194.61 54.96 194.21 54.02 193.39 53.69 C 192.56 53.35 191.62 53.75 191.29 54.58 L 190.88 55.59 C 190.54 56.42 190.94 57.36 191.77 57.69 C 192.59 58.02 193.53 57.62 193.87 56.80 Z M 194.28 55.79 L 194.51 55.21 C 194.84 54.38 194.45 53.44 193.62 53.11 C 192.80 52.77 191.86 53.17 191.52 54.00 L 191.29 54.58 C 190.95 55.40 191.35 56.34 192.18 56.68 C 193.00 57.01 193.94 56.61 194.28 55.79 Z"
      fill="black"
      fill-rule="nonzero" /><path d="M 139.55 93.68 L 138.57 93.44 C 137.74 93.23 136.89 93.74 136.68 94.58 C 136.47 95.42 136.99 96.26 137.82 96.47 L 138.80 96.71 C 139.64 96.92 140.48 96.41 140.69 95.57 C 140.90 94.73 140.39 93.89 139.55 93.68 Z M 138.55 93.43 L 137.57 93.21 C 136.73 93.01 135.90 93.54 135.70 94.38 C 135.51 95.22 136.03 96.06 136.87 96.25 L 137.84 96.48 C 138.68 96.67 139.52 96.15 139.72 95.31 C 139.91 94.47 139.39 93.63 138.55 93.43 Z M 137.53 93.20 L 136.55 93.00 C 135.71 92.83 134.88 93.38 134.72 94.23 C 134.55 95.07 135.09 95.89 135.94 96.06 L 136.91 96.26 C 137.76 96.43 138.58 95.88 138.75 95.04 C 138.92 94.19 138.37 93.37 137.53 93.20 Z M 136.49 92.99 L 135.21 92.79 C 134.36 92.66 133.56 93.24 133.43 94.09 C 133.30 94.95 133.88 95.74 134.73 95.88 L 136.00 96.08 C 136.86 96.21 137.66 95.63 137.79 94.77 C 137.92 93.92 137.34 93.12 136.49 92.99 Z M 135.34 92.82 L 134.70 92.66 C 133.86 92.45 133.02 92.97 132.81 93.80 C 132.61 94.64 133.12 95.49 133.96 95.69 L 134.60 95.85 C 135.44 96.06 136.28 95.54 136.49 94.71 C 136.69 93.87 136.18 93.02 135.34 92.82 Z M 134.65 95.70 L 135.12 95.61 C 135.96 95.43 136.50 94.60 136.32 93.76 C 136.14 92.91 135.31 92.37 134.47 92.55 L 134.00 92.65 C 133.16 92.83 132.62 93.66 132.80 94.50 C 132.98 95.34 133.81 95.88 134.65 95.70 Z M 134.94 95.63 L 135.62 95.57 C 136.48 95.49 137.11 94.72 137.03 93.87 C 136.95 93.01 136.19 92.38 135.33 92.46 L 134.65 92.52 C 133.79 92.61 133.16 93.37 133.24 94.23 C 133.32 95.08 134.08 95.71 134.94 95.63 Z M 135.59 95.57 L 136.52 95.50 C 137.38 95.43 138.03 94.69 137.96 93.83 C 137.90 92.97 137.15 92.32 136.29 92.39 L 135.36 92.46 C 134.50 92.52 133.85 93.27 133.92 94.13 C 133.98 94.99 134.73 95.63 135.59 95.57 Z M 136.51 95.50 L 137.63 95.42 C 138.49 95.37 139.14 94.62 139.08 93.76 C 139.02 92.90 138.27 92.25 137.41 92.31 L 136.30 92.39 C 135.44 92.44 134.79 93.19 134.85 94.05 C 134.90 94.91 135.65 95.56 136.51 95.50 Z M 137.62 95.42 L 138.87 95.34 C 139.73 95.28 140.39 94.54 140.33 93.68 C 140.27 92.82 139.53 92.17 138.67 92.23 L 137.42 92.31 C 136.56 92.37 135.91 93.11 135.96 93.97 C 136.02 94.83 136.76 95.48 137.62 95.42 Z M 138.88 95.34 L 140.20 95.25 C 141.06 95.19 141.71 94.45 141.65 93.58 C 141.59 92.72 140.85 92.08 139.99 92.13 L 138.66 92.23 C 137.80 92.28 137.15 93.03 137.21 93.89 C 137.27 94.75 138.02 95.40 138.88 95.34 Z M 140.21 95.25 L 141.29 95.17 C 142.15 95.11 142.79 94.36 142.73 93.50 C 142.67 92.64 141.92 91.99 141.06 92.06 L 139.98 92.13 C 139.12 92.20 138.47 92.95 138.54 93.81 C 138.60 94.67 139.35 95.31 140.21 95.25 Z M 141.29 95.17 L 142.37 95.09 C 143.23 95.02 143.88 94.27 143.81 93.41 C 143.74 92.55 143.00 91.91 142.14 91.97 L 141.06 92.06 C 140.20 92.12 139.55 92.87 139.62 93.73 C 139.68 94.59 140.43 95.24 141.29 95.17 Z M 142.37 95.09 L 143.43 95.01 C 144.29 94.94 144.94 94.19 144.87 93.33 C 144.80 92.47 144.05 91.83 143.19 91.89 L 142.13 91.98 C 141.27 92.04 140.63 92.79 140.70 93.65 C 140.76 94.51 141.51 95.15 142.37 95.09 Z M 143.44 95.01 L 144.46 94.92 C 145.32 94.86 145.96 94.11 145.90 93.25 C 145.83 92.39 145.08 91.74 144.22 91.81 L 143.19 91.89 C 142.33 91.96 141.69 92.71 141.76 93.57 C 141.83 94.43 142.58 95.07 143.44 95.01 Z M 144.46 94.92 L 145.44 94.85 C 146.30 94.78 146.94 94.03 146.87 93.17 C 146.81 92.31 146.06 91.67 145.20 91.74 L 144.22 91.81 C 143.36 91.88 142.72 92.63 142.78 93.49 C 142.85 94.35 143.60 94.99 144.46 94.92 Z M 145.44 94.85 L 146.35 94.78 C 147.21 94.71 147.85 93.96 147.79 93.10 C 147.72 92.24 146.97 91.60 146.11 91.66 L 145.20 91.74 C 144.34 91.80 143.70 92.55 143.76 93.41 C 143.83 94.27 144.58 94.91 145.44 94.85 Z M 146.35 94.78 L 147.21 94.71 C 148.07 94.65 148.71 93.90 148.65 93.04 C 148.58 92.18 147.84 91.54 146.98 91.60 L 146.11 91.66 C 145.25 91.73 144.61 92.48 144.67 93.34 C 144.74 94.20 145.49 94.84 146.35 94.78 Z M 147.20 94.71 L 148.42 94.63 C 149.28 94.57 149.93 93.83 149.87 92.97 C 149.81 92.11 149.07 91.46 148.21 91.52 L 146.99 91.60 C 146.13 91.66 145.48 92.40 145.53 93.26 C 145.59 94.12 146.34 94.77 147.20 94.71 Z M 148.41 94.63 L 149.42 94.57 C 150.29 94.52 150.94 93.78 150.89 92.92 C 150.84 92.06 150.10 91.40 149.24 91.46 L 148.22 91.52 C 147.36 91.57 146.70 92.31 146.76 93.17 C 146.81 94.03 147.55 94.68 148.41 94.63 Z M 149.42 94.57 L 150.31 94.52 C 151.17 94.48 151.83 93.74 151.78 92.88 C 151.73 92.02 151.00 91.36 150.14 91.41 L 149.25 91.46 C 148.39 91.50 147.73 92.24 147.77 93.10 C 147.82 93.96 148.56 94.62 149.42 94.57 Z M 150.31 94.52 L 151.15 94.48 C 152.01 94.43 152.67 93.69 152.62 92.83 C 152.57 91.97 151.84 91.31 150.98 91.36 L 150.13 91.41 C 149.27 91.45 148.62 92.19 148.66 93.05 C 148.71 93.91 149.45 94.57 150.31 94.52 Z M 151.16 94.48 L 152.10 94.42 C 152.96 94.36 153.62 93.62 153.56 92.76 C 153.51 91.90 152.77 91.25 151.91 91.30 L 150.97 91.36 C 150.11 91.41 149.45 92.16 149.51 93.02 C 149.56 93.88 150.30 94.53 151.16 94.48 Z M 152.11 94.42 L 153.09 94.35 C 153.95 94.29 154.60 93.55 154.54 92.69 C 154.49 91.83 153.74 91.18 152.88 91.23 L 151.90 91.30 C 151.04 91.36 150.39 92.10 150.45 92.96 C 150.51 93.82 151.25 94.47 152.11 94.42 Z M 153.09 94.35 L 154.12 94.28 C 154.98 94.22 155.63 93.47 155.57 92.61 C 155.51 91.75 154.77 91.11 153.91 91.16 L 152.88 91.24 C 152.02 91.29 151.37 92.04 151.43 92.90 C 151.49 93.76 152.23 94.41 153.09 94.35 Z M 154.12 94.28 L 155.14 94.21 C 156.00 94.15 156.65 93.41 156.59 92.55 C 156.54 91.69 155.79 91.04 154.93 91.10 L 153.91 91.16 C 153.05 91.22 152.40 91.97 152.45 92.83 C 152.51 93.69 153.26 94.34 154.12 94.28 Z M 155.14 94.21 L 156.11 94.15 C 156.97 94.09 157.62 93.35 157.56 92.49 C 157.51 91.63 156.77 90.98 155.91 91.03 L 154.94 91.10 C 154.08 91.15 153.42 91.89 153.48 92.75 C 153.53 93.61 154.27 94.27 155.14 94.21 Z M 156.10 94.15 L 157.10 94.09 C 157.96 94.04 158.62 93.30 158.56 92.44 C 158.51 91.58 157.77 90.92 156.91 90.97 L 155.91 91.03 C 155.05 91.08 154.40 91.82 154.45 92.68 C 154.50 93.54 155.24 94.20 156.10 94.15 Z M 157.09 94.09 L 158.11 94.04 C 158.97 93.99 159.63 93.25 159.58 92.39 C 159.54 91.53 158.80 90.87 157.94 90.92 L 156.92 90.97 C 156.06 91.02 155.40 91.76 155.45 92.62 C 155.49 93.48 156.23 94.14 157.09 94.09 Z M 158.10 94.04 L 159.12 93.99 C 159.98 93.95 160.65 93.21 160.61 92.35 C 160.56 91.49 159.83 90.83 158.97 90.87 L 157.95 90.92 C 157.09 90.96 156.42 91.69 156.47 92.55 C 156.51 93.41 157.24 94.08 158.10 94.04 Z M 159.11 93.99 L 160.08 93.95 C 160.94 93.91 161.61 93.18 161.58 92.32 C 161.54 91.46 160.82 90.79 159.95 90.83 L 158.98 90.87 C 158.12 90.90 157.45 91.63 157.49 92.49 C 157.52 93.35 158.25 94.02 159.11 93.99 Z M 160.07 93.95 L 161.06 93.91 C 161.92 93.88 162.59 93.16 162.56 92.30 C 162.53 91.43 161.81 90.76 160.94 90.79 L 159.96 90.83 C 159.10 90.86 158.43 91.58 158.46 92.44 C 158.49 93.31 159.21 93.98 160.07 93.95 Z M 161.05 93.91 L 162.05 93.88 C 162.91 93.85 163.59 93.13 163.56 92.27 C 163.53 91.41 162.81 90.73 161.95 90.76 L 160.95 90.79 C 160.09 90.82 159.41 91.54 159.44 92.40 C 159.47 93.26 160.19 93.94 161.05 93.91 Z M 162.05 93.88 L 163.07 93.85 C 163.93 93.82 164.61 93.11 164.59 92.24 C 164.56 91.38 163.84 90.70 162.98 90.73 L 161.95 90.76 C 161.09 90.78 160.41 91.50 160.44 92.37 C 160.46 93.23 161.18 93.91 162.05 93.88 Z M 163.07 93.85 L 164.06 93.82 C 164.92 93.80 165.60 93.08 165.57 92.22 C 165.55 91.36 164.83 90.68 163.97 90.70 L 162.98 90.73 C 162.12 90.75 161.44 91.47 161.47 92.33 C 161.49 93.19 162.21 93.87 163.07 93.85 Z M 164.06 93.82 L 165.02 93.80 C 165.88 93.77 166.56 93.05 166.54 92.19 C 166.52 91.33 165.80 90.65 164.94 90.68 L 163.97 90.70 C 163.11 90.73 162.43 91.44 162.45 92.31 C 162.48 93.17 163.19 93.85 164.06 93.82 Z M 165.02 93.80 L 166.02 93.77 C 166.88 93.74 167.56 93.02 167.53 92.16 C 167.51 91.30 166.79 90.62 165.93 90.65 L 164.94 90.68 C 164.07 90.70 163.39 91.42 163.42 92.28 C 163.44 93.14 164.16 93.82 165.02 93.80 Z M 166.02 93.77 L 167.03 93.74 C 167.90 93.71 168.57 92.99 168.55 92.13 C 168.52 91.27 167.80 90.59 166.94 90.62 L 165.92 90.65 C 165.06 90.67 164.38 91.39 164.41 92.25 C 164.44 93.12 165.16 93.79 166.02 93.77 Z M 167.04 93.74 L 168.07 93.70 C 168.93 93.67 169.61 92.95 169.58 92.09 C 169.55 91.23 168.83 90.55 167.97 90.58 L 166.93 90.62 C 166.07 90.64 165.40 91.37 165.43 92.23 C 165.45 93.09 166.18 93.77 167.04 93.74 Z M 168.08 93.70 L 169.09 93.67 C 169.95 93.63 170.62 92.91 170.59 92.05 C 170.56 91.19 169.83 90.51 168.97 90.54 L 167.96 90.58 C 167.10 90.61 166.43 91.34 166.46 92.20 C 166.49 93.06 167.22 93.73 168.08 93.70 Z M 169.09 93.66 L 170.07 93.63 C 170.93 93.59 171.60 92.86 171.57 92.00 C 171.54 91.14 170.81 90.47 169.95 90.51 L 168.97 90.55 C 168.11 90.58 167.44 91.31 167.47 92.17 C 167.50 93.03 168.23 93.70 169.09 93.66 Z M 170.07 93.63 L 171.07 93.58 C 171.93 93.55 172.60 92.82 172.56 91.96 C 172.53 91.10 171.80 90.43 170.94 90.46 L 169.95 90.51 C 169.08 90.54 168.41 91.27 168.45 92.13 C 168.49 92.99 169.21 93.66 170.07 93.63 Z M 171.07 93.58 L 172.07 93.54 C 172.93 93.51 173.60 92.78 173.56 91.92 C 173.53 91.06 172.80 90.39 171.94 90.42 L 170.94 90.46 C 170.08 90.50 169.41 91.23 169.44 92.09 C 169.48 92.95 170.20 93.62 171.07 93.58 Z M 172.07 93.54 L 173.08 93.50 C 173.94 93.47 174.61 92.74 174.58 91.88 C 174.54 91.02 173.82 90.35 172.95 90.38 L 171.94 90.42 C 171.08 90.46 170.41 91.18 170.44 92.05 C 170.48 92.91 171.21 93.58 172.07 93.54 Z M 173.07 93.50 L 174.10 93.46 C 174.96 93.43 175.63 92.71 175.60 91.85 C 175.57 90.98 174.84 90.31 173.98 90.34 L 172.96 90.38 C 172.10 90.41 171.42 91.14 171.46 92.00 C 171.49 92.86 172.21 93.53 173.07 93.50 Z M 174.09 93.46 L 175.09 93.43 C 175.95 93.40 176.62 92.68 176.60 91.82 C 176.57 90.96 175.85 90.28 174.98 90.31 L 173.99 90.34 C 173.13 90.37 172.45 91.09 172.48 91.96 C 172.51 92.82 173.23 93.49 174.09 93.46 Z M 175.08 93.43 L 176.08 93.40 C 176.94 93.38 177.62 92.66 177.60 91.80 C 177.57 90.93 176.85 90.26 175.99 90.28 L 174.99 90.31 C 174.13 90.34 173.45 91.06 173.48 91.92 C 173.50 92.78 174.22 93.46 175.08 93.43 Z M 176.08 93.40 L 177.08 93.38 C 177.94 93.35 178.62 92.63 178.60 91.77 C 178.58 90.91 177.86 90.23 177.00 90.25 L 175.99 90.28 C 175.13 90.30 174.45 91.02 174.48 91.88 C 174.50 92.75 175.22 93.43 176.08 93.40 Z M 177.08 93.38 L 178.08 93.35 C 178.94 93.33 179.62 92.61 179.60 91.75 C 179.58 90.89 178.87 90.21 178.00 90.23 L 177.00 90.25 C 176.14 90.28 175.46 90.99 175.48 91.85 C 175.50 92.72 176.22 93.40 177.08 93.38 Z M 178.08 93.35 L 179.08 93.33 C 179.94 93.31 180.62 92.59 180.60 91.73 C 180.58 90.87 179.87 90.18 179.01 90.21 L 178.01 90.23 C 177.14 90.25 176.46 90.96 176.48 91.83 C 176.50 92.69 177.22 93.37 178.08 93.35 Z M 179.08 93.33 L 180.08 93.30 C 180.94 93.28 181.62 92.57 181.60 91.71 C 181.58 90.84 180.87 90.16 180.00 90.18 L 179.01 90.21 C 178.14 90.23 177.46 90.94 177.48 91.80 C 177.50 92.66 178.22 93.35 179.08 93.33 Z M 180.08 93.30 L 181.08 93.28 C 181.94 93.26 182.63 92.55 182.61 91.68 C 182.59 90.82 181.87 90.14 181.01 90.16 L 180.00 90.18 C 179.14 90.20 178.46 90.92 178.48 91.78 C 178.50 92.64 179.21 93.32 180.08 93.30 Z M 181.08 93.28 L 182.08 93.26 C 182.94 93.24 183.63 92.52 183.61 91.66 C 183.59 90.80 182.87 90.12 182.01 90.14 L 181.01 90.16 C 180.15 90.18 179.47 90.89 179.49 91.75 C 179.51 92.62 180.22 93.30 181.08 93.28 Z M 182.08 93.26 L 183.08 93.24 C 183.94 93.22 184.62 92.51 184.61 91.64 C 184.59 90.78 183.87 90.10 183.01 90.12 L 182.01 90.14 C 181.15 90.15 180.47 90.87 180.49 91.73 C 180.50 92.59 181.22 93.28 182.08 93.26 Z M 183.07 93.24 L 184.07 93.22 C 184.93 93.20 185.62 92.49 185.60 91.63 C 185.59 90.77 184.87 90.08 184.01 90.10 L 183.02 90.12 C 182.15 90.13 181.47 90.84 181.48 91.71 C 181.50 92.57 182.21 93.25 183.07 93.24 Z M 184.06 93.22 L 185.06 93.20 C 185.92 93.19 186.61 92.48 186.60 91.62 C 186.59 90.76 185.88 90.07 185.01 90.08 L 184.02 90.10 C 183.15 90.11 182.47 90.82 182.48 91.68 C 182.49 92.54 183.20 93.23 184.06 93.22 Z M 185.06 93.20 L 186.08 93.19 C 186.94 93.18 187.63 92.47 187.62 91.61 C 187.61 90.75 186.90 90.06 186.04 90.07 L 185.02 90.08 C 184.16 90.09 183.47 90.80 183.48 91.66 C 183.49 92.52 184.19 93.21 185.06 93.20 Z M 186.07 93.19 L 187.11 93.18 C 187.97 93.18 188.66 92.47 188.65 91.61 C 188.65 90.75 187.94 90.05 187.08 90.06 L 186.05 90.07 C 185.18 90.08 184.49 90.78 184.50 91.64 C 184.50 92.50 185.21 93.20 186.07 93.19 Z M 187.10 93.18 L 188.12 93.18 C 188.99 93.18 189.68 92.47 189.68 91.61 C 189.67 90.75 188.97 90.05 188.11 90.06 L 187.09 90.06 C 186.22 90.07 185.53 90.77 185.53 91.63 C 185.54 92.49 186.24 93.19 187.10 93.18 Z M 188.12 93.18 L 189.12 93.18 C 189.99 93.17 190.68 92.47 190.68 91.61 C 190.68 90.75 189.98 90.05 189.12 90.05 L 188.11 90.06 C 187.25 90.06 186.55 90.76 186.56 91.62 C 186.56 92.48 187.26 93.18 188.12 93.18 Z M 189.12 93.18 L 190.10 93.18 C 190.96 93.18 191.66 92.48 191.66 91.61 C 191.65 90.75 190.96 90.05 190.09 90.05 L 189.12 90.05 C 188.26 90.06 187.56 90.75 187.56 91.62 C 187.56 92.48 188.26 93.18 189.12 93.18 Z M 190.09 93.18 L 191.04 93.18 C 191.90 93.18 192.60 92.48 192.60 91.61 C 192.60 90.75 191.90 90.05 191.04 90.05 L 190.09 90.05 C 189.23 90.05 188.53 90.75 188.53 91.61 C 188.53 92.48 189.23 93.18 190.09 93.18 Z M 191.04 93.18 L 192.04 93.18 C 192.90 93.18 193.60 92.48 193.60 91.61 C 193.60 90.75 192.90 90.05 192.04 90.05 L 191.04 90.05 C 190.18 90.05 189.48 90.75 189.48 91.61 C 189.48 92.48 190.18 93.18 191.04 93.18 Z M 192.04 93.18 L 193.01 93.18 C 193.88 93.18 194.57 92.48 194.57 91.61 C 194.57 90.75 193.88 90.05 193.01 90.05 L 192.04 90.05 C 191.18 90.05 190.48 90.75 190.48 91.61 C 190.48 92.48 191.18 93.18 192.04 93.18 Z M 193.01 93.18 L 193.99 93.18 C 194.85 93.18 195.55 92.48 195.55 91.61 C 195.55 90.75 194.85 90.05 193.99 90.05 L 193.01 90.05 C 192.15 90.05 191.45 90.75 191.45 91.61 C 191.45 92.48 192.15 93.18 193.01 93.18 Z M 193.99 93.18 L 195.00 93.18 C 195.86 93.18 196.56 92.48 196.56 91.61 C 196.56 90.75 195.86 90.05 195.00 90.05 L 193.99 90.05 C 193.13 90.05 192.43 90.75 192.43 91.61 C 192.43 92.48 193.13 93.18 193.99 93.18 Z M 195.00 93.18 L 196.02 93.18 C 196.89 93.18 197.58 92.48 197.58 91.61 C 197.58 90.75 196.89 90.05 196.02 90.05 L 195.00 90.05 C 194.13 90.05 193.43 90.75 193.43 91.61 C 193.43 92.48 194.13 93.18 195.00 93.18 Z M 196.02 93.18 L 197.01 93.18 C 197.87 93.18 198.57 92.48 198.57 91.62 C 198.58 90.76 197.88 90.06 197.02 90.06 L 196.03 90.05 C 195.17 90.05 194.46 90.75 194.46 91.61 C 194.46 92.47 195.16 93.17 196.02 93.18 Z M 197.00 93.18 L 198.02 93.19 C 198.88 93.20 199.59 92.51 199.60 91.65 C 199.61 90.78 198.92 90.08 198.05 90.07 L 197.03 90.06 C 196.17 90.05 195.46 90.74 195.45 91.60 C 195.44 92.46 196.13 93.17 197.00 93.18 Z M 197.99 93.19 L 199.02 93.22 C 199.88 93.24 200.60 92.56 200.63 91.70 C 200.65 90.84 199.97 90.12 199.11 90.10 L 198.08 90.07 C 197.22 90.05 196.50 90.72 196.47 91.59 C 196.45 92.45 197.13 93.17 197.99 93.19 Z M 198.99 93.22 L 200.00 93.27 C 200.86 93.31 201.59 92.65 201.64 91.79 C 201.68 90.93 201.02 90.19 200.16 90.15 L 199.14 90.10 C 198.28 90.05 197.55 90.72 197.51 91.58 C 197.46 92.44 198.12 93.17 198.99 93.22 Z M 199.95 93.26 L 200.91 93.35 C 201.77 93.42 202.53 92.78 202.60 91.92 C 202.67 91.06 202.04 90.31 201.18 90.23 L 200.21 90.15 C 199.35 90.08 198.59 90.72 198.52 91.58 C 198.45 92.44 199.09 93.19 199.95 93.26 Z M 200.83 93.34 L 201.92 93.48 C 202.78 93.60 203.56 93.00 203.68 92.15 C 203.80 91.29 203.20 90.51 202.34 90.39 L 201.26 90.24 C 200.40 90.13 199.61 90.72 199.50 91.58 C 199.38 92.43 199.98 93.22 200.83 93.34 Z M 201.82 93.47 L 202.86 93.68 C 203.71 93.85 204.53 93.30 204.70 92.46 C 204.88 91.61 204.33 90.79 203.48 90.62 L 202.44 90.41 C 201.60 90.24 200.77 90.78 200.60 91.63 C 200.43 92.47 200.98 93.30 201.82 93.47 Z M 202.76 93.66 L 203.71 93.91 C 204.54 94.14 205.40 93.65 205.63 92.82 C 205.85 91.98 205.36 91.13 204.53 90.90 L 203.58 90.64 C 202.75 90.42 201.89 90.91 201.67 91.74 C 201.44 92.57 201.93 93.43 202.76 93.66 Z M 203.62 93.88 L 204.48 94.18 C 205.30 94.45 206.19 94.02 206.46 93.20 C 206.74 92.38 206.30 91.50 205.49 91.22 L 204.62 90.93 C 203.81 90.65 202.92 91.09 202.64 91.90 C 202.36 92.72 202.80 93.61 203.62 93.88 Z M 204.40 94.15 L 205.29 94.51 C 206.09 94.83 207.00 94.44 207.32 93.64 C 207.64 92.84 207.26 91.93 206.46 91.61 L 205.57 91.25 C 204.77 90.93 203.86 91.32 203.54 92.12 C 203.22 92.92 203.60 93.83 204.40 94.15 Z M 205.22 94.47 L 206.14 94.90 C 206.93 95.27 207.85 94.93 208.22 94.14 C 208.58 93.36 208.24 92.43 207.46 92.07 L 206.53 91.64 C 205.75 91.28 204.82 91.62 204.46 92.40 C 204.09 93.18 204.43 94.11 205.22 94.47 Z M 206.09 94.88 L 206.96 95.33 C 207.73 95.72 208.67 95.42 209.07 94.65 C 209.46 93.88 209.16 92.94 208.39 92.55 L 207.51 92.10 C 206.75 91.70 205.81 92.01 205.41 92.77 C 205.02 93.54 205.32 94.48 206.09 94.88 Z M 206.93 95.31 L 207.78 95.77 C 208.54 96.18 209.49 95.90 209.90 95.14 C 210.31 94.38 210.03 93.43 209.27 93.02 L 208.42 92.56 C 207.66 92.15 206.71 92.44 206.30 93.19 C 205.89 93.95 206.18 94.90 206.93 95.31 Z"
      fill="black"
      fill-rule="nonzero" /></svg>