<svg xmlns="http://www.w3.org/2000/svg" width="300" height="300" viewBox="0 0 300 300">
<path d="M 178.48 45.08 L 177.58 45.13 C 176.72 45.17 176.06 45.91 176.10 46.77 C 176.15 47.63 176.88 48.29 177.74 48.25 L 178.64 48.20 C 179.50 48.16 180.16 47.42 180.12 46.56 C 180.08 45.70 179.34 45.04 178.48 45.08 Z M 177.50 45.14 L 176.56 45.24 C 175.70 45.33 175.08 46.10 175.17 46.96 C 175.26 47.81 176.03 48.43 176.89 48.34 L 177.83 48.24 C 178.69 48.15 179.31 47.38 179.22 46.52 C 179.12 45.66 178.35 45.04 177.50 45.14 Z M 176.41 45.26 L 175.38 45.47 C 174.53 45.65 173.99 46.47 174.17 47.32 C 174.34 48.16 175.16 48.70 176.01 48.53 L 177.04 48.32 C 177.88 48.15 178.43 47.32 178.25 46.47 C 178.08 45.63 177.25 45.09 176.41 45.26 Z M 175.22 45.51 L 174.21 45.83 C 173.39 46.10 172.93 46.97 173.19 47.79 C 173.45 48.62 174.33 49.07 175.15 48.81 L 176.17 48.49 C 176.99 48.23 177.44 47.35 177.18 46.53 C 176.92 45.71 176.04 45.25 175.22 45.51 Z M 174.12 45.87 L 173.21 46.22 C 172.41 46.53 172.01 47.43 172.32 48.24 C 172.63 49.04 173.54 49.44 174.34 49.13 L 175.25 48.78 C 176.05 48.47 176.45 47.56 176.14 46.76 C 175.83 45.96 174.92 45.56 174.12 45.87 Z M 173.20 46.22 L 172.25 46.60 C 171.45 46.92 171.06 47.82 171.37 48.62 C 171.69 49.43 172.60 49.82 173.40 49.50 L 174.35 49.12 C 175.15 48.81 175.55 47.90 175.23 47.10 C 174.91 46.30 174.00 45.90 173.20 46.22 Z M 172.30 46.58 L 171.32 46.93 C 170.51 47.22 170.09 48.12 170.38 48.93 C 170.67 49.74 171.57 50.16 172.38 49.87 L 173.35 49.52 C 174.17 49.23 174.59 48.33 174.30 47.52 C 174.00 46.71 173.11 46.29 172.30 46.58 Z M 171.43 46.90 L 170.46 47.17 C 169.63 47.40 169.14 48.26 169.37 49.09 C 169.61 49.92 170.47 50.41 171.30 50.17 L 172.27 49.90 C 173.10 49.67 173.59 48.81 173.36 47.98 C 173.13 47.15 172.26 46.66 171.43 46.90 Z M 170.66 47.12 L 169.65 47.27 C 168.80 47.39 168.20 48.18 168.32 49.03 C 168.45 49.89 169.24 50.48 170.09 50.36 L 171.10 50.22 C 171.95 50.09 172.55 49.30 172.42 48.45 C 172.30 47.60 171.51 47.00 170.66 47.12 Z M 169.90 47.25 L 168.87 47.23 C 168.00 47.22 167.29 47.90 167.28 48.76 C 167.26 49.63 167.95 50.34 168.81 50.35 L 169.84 50.37 C 170.70 50.39 171.42 49.71 171.43 48.84 C 171.45 47.98 170.76 47.27 169.90 47.25 Z M 169.06 47.25 L 168.07 47.10 C 167.22 46.98 166.43 47.57 166.30 48.42 C 166.18 49.28 166.77 50.07 167.62 50.19 L 168.61 50.34 C 169.46 50.46 170.26 49.87 170.38 49.02 C 170.51 48.17 169.92 47.37 169.06 47.25 Z M 168.19 47.13 L 167.24 46.91 C 166.40 46.72 165.56 47.25 165.38 48.10 C 165.19 48.94 165.72 49.77 166.56 49.96 L 167.51 50.17 C 168.35 50.36 169.18 49.83 169.37 48.99 C 169.56 48.15 169.03 47.31 168.19 47.13 Z M 167.27 46.92 L 166.35 46.69 C 165.51 46.49 164.66 47.00 164.46 47.84 C 164.26 48.68 164.77 49.52 165.61 49.73 L 166.53 49.95 C 167.37 50.16 168.21 49.64 168.42 48.81 C 168.62 47.97 168.11 47.12 167.27 46.92 Z M 166.30 46.68 L 165.30 46.47 C 164.46 46.30 163.63 46.83 163.45 47.68 C 163.28 48.52 163.82 49.35 164.66 49.53 L 165.65 49.74 C 166.50 49.92 167.33 49.38 167.50 48.53 C 167.68 47.69 167.14 46.86 166.30 46.68 Z M 165.24 46.46 L 164.26 46.30 C 163.41 46.16 162.61 46.73 162.47 47.58 C 162.32 48.43 162.90 49.24 163.75 49.38 L 164.73 49.54 C 165.58 49.68 166.38 49.11 166.52 48.26 C 166.66 47.41 166.09 46.60 165.24 46.46 Z M 164.19 46.29 L 163.21 46.17 C 162.36 46.07 161.58 46.68 161.48 47.54 C 161.37 48.39 161.98 49.17 162.84 49.27 L 163.82 49.39 C 164.68 49.49 165.45 48.88 165.56 48.03 C 165.66 47.17 165.05 46.39 164.19 46.29 Z M 163.15 46.17 L 162.15 46.09 C 161.29 46.02 160.54 46.66 160.47 47.52 C 160.40 48.38 161.05 49.13 161.91 49.20 L 162.91 49.28 C 163.76 49.35 164.52 48.70 164.58 47.84 C 164.65 46.98 164.01 46.23 163.15 46.17 Z M 162.10 46.08 L 161.09 46.04 C 160.23 46.00 159.50 46.67 159.46 47.53 C 159.42 48.39 160.09 49.12 160.95 49.16 L 161.96 49.20 C 162.82 49.24 163.55 48.57 163.59 47.71 C 163.63 46.85 162.96 46.12 162.10 46.08 Z M 161.06 46.04 L 160.04 46.02 C 159.18 46.00 158.46 46.68 158.45 47.55 C 158.43 48.41 159.11 49.12 159.97 49.14 L 160.99 49.16 C 161.85 49.18 162.57 48.49 162.58 47.63 C 162.60 46.77 161.92 46.06 161.06 46.04 Z M 160.02 46.02 L 159.02 46.01 C 158.15 46.00 157.45 46.70 157.44 47.56 C 157.44 48.42 158.13 49.13 158.99 49.13 L 160.00 49.14 C 160.86 49.15 161.56 48.45 161.57 47.59 C 161.57 46.73 160.88 46.02 160.02 46.02 Z M 159.01 46.01 L 158.01 46.01 C 157.14 46.01 156.44 46.71 156.44 47.57 C 156.44 48.43 157.14 49.13 158.00 49.13 L 159.00 49.13 C 159.87 49.13 160.57 48.43 160.57 47.57 C 160.57 46.71 159.87 46.01 159.01 46.01 Z M 158.00 46.01 L 156.96 46.01 C 156.10 46.01 155.40 46.71 155.40 47.58 C 155.40 48.44 156.10 49.14 156.97 49.13 L 158.01 49.13 C 158.87 49.13 159.57 48.43 159.57 47.57 C 159.56 46.71 158.86 46.01 158.00 46.01 Z M 156.95 46.01 L 155.96 46.02 C 155.09 46.03 154.40 46.74 154.41 47.60 C 154.42 48.46 155.13 49.15 155.99 49.14 L 156.98 49.13 C 157.84 49.12 158.53 48.42 158.52 47.56 C 158.51 46.69 157.81 46.00 156.95 46.01 Z M 155.93 46.02 L 154.98 46.05 C 154.11 46.07 153.43 46.79 153.46 47.65 C 153.48 48.51 154.20 49.19 155.06 49.17 L 156.01 49.14 C 156.88 49.12 157.56 48.40 157.53 47.54 C 157.51 46.68 156.79 46.00 155.93 46.02 Z M 154.94 46.05 L 153.95 46.10 C 153.09 46.14 152.43 46.87 152.47 47.73 C 152.51 48.59 153.24 49.26 154.11 49.22 L 155.09 49.17 C 155.96 49.13 156.62 48.39 156.58 47.53 C 156.53 46.67 155.80 46.01 154.94 46.05 Z M 153.91 46.10 L 152.92 46.17 C 152.06 46.24 151.41 46.99 151.48 47.85 C 151.54 48.71 152.29 49.35 153.15 49.29 L 154.15 49.21 C 155.01 49.15 155.65 48.40 155.59 47.54 C 155.52 46.68 154.77 46.04 153.91 46.10 Z M 152.88 46.18 L 151.88 46.28 C 151.03 46.36 150.40 47.13 150.49 47.99 C 150.57 48.84 151.34 49.47 152.20 49.38 L 153.19 49.28 C 154.05 49.20 154.67 48.43 154.59 47.58 C 154.50 46.72 153.74 46.09 152.88 46.18 Z M 151.85 46.28 L 150.87 46.40 C 150.01 46.51 149.40 47.29 149.51 48.14 C 149.61 49.00 150.39 49.61 151.25 49.50 L 152.23 49.38 C 153.09 49.27 153.70 48.49 153.59 47.64 C 153.48 46.78 152.70 46.18 151.85 46.28 Z M 150.85 46.41 L 149.87 46.54 C 149.01 46.66 148.41 47.45 148.53 48.30 C 148.65 49.15 149.44 49.75 150.29 49.63 L 151.27 49.50 C 152.12 49.38 152.72 48.59 152.60 47.74 C 152.49 46.89 151.70 46.29 150.85 46.41 Z M 149.87 46.54 L 148.87 46.68 C 148.02 46.79 147.42 47.58 147.53 48.43 C 147.65 49.29 148.44 49.89 149.29 49.77 L 150.29 49.63 C 151.14 49.52 151.74 48.73 151.62 47.88 C 151.51 47.02 150.72 46.42 149.87 46.54 Z M 148.89 46.67 L 147.89 46.80 C 147.03 46.90 146.42 47.68 146.53 48.53 C 146.63 49.39 147.41 50.00 148.26 49.90 L 149.27 49.77 C 150.13 49.67 150.74 48.89 150.63 48.03 C 150.53 47.18 149.75 46.57 148.89 46.67 Z M 147.92 46.79 L 146.93 46.89 C 146.08 46.98 145.45 47.74 145.54 48.60 C 145.62 49.46 146.39 50.08 147.25 50.00 L 148.23 49.90 C 149.09 49.81 149.71 49.05 149.63 48.19 C 149.54 47.33 148.78 46.71 147.92 46.79 Z M 146.96 46.89 L 145.96 46.97 C 145.10 47.05 144.46 47.80 144.54 48.66 C 144.61 49.52 145.37 50.16 146.22 50.09 L 147.22 50.00 C 148.08 49.93 148.72 49.17 148.65 48.31 C 148.57 47.45 147.82 46.82 146.96 46.89 Z M 145.97 46.97 L 144.97 47.05 C 144.11 47.12 143.46 47.87 143.53 48.73 C 143.60 49.59 144.35 50.23 145.21 50.16 L 146.21 50.09 C 147.07 50.02 147.71 49.27 147.65 48.41 C 147.58 47.55 146.83 46.91 145.97 46.97 Z M 144.97 47.05 L 143.97 47.12 C 143.11 47.19 142.47 47.94 142.53 48.80 C 142.59 49.66 143.34 50.30 144.20 50.24 L 145.20 50.16 C 146.06 50.10 146.71 49.35 146.64 48.49 C 146.58 47.63 145.83 46.99 144.97 47.05 Z M 143.98 47.12 L 142.99 47.19 C 142.13 47.25 141.48 48.00 141.54 48.86 C 141.60 49.72 142.34 50.37 143.20 50.31 L 144.20 50.24 C 145.06 50.18 145.71 49.43 145.65 48.57 C 145.59 47.71 144.84 47.06 143.98 47.12 Z M 143.00 47.19 L 142.00 47.25 C 141.14 47.30 140.49 48.04 140.54 48.90 C 140.59 49.76 141.33 50.42 142.19 50.37 L 143.19 50.31 C 144.05 50.26 144.70 49.52 144.65 48.66 C 144.60 47.80 143.86 47.14 143.00 47.19 Z M 142.03 47.25 L 141.02 47.30 C 140.16 47.33 139.49 48.06 139.53 48.92 C 139.57 49.79 140.30 50.45 141.16 50.41 L 142.17 50.37 C 143.03 50.33 143.69 49.60 143.66 48.74 C 143.62 47.88 142.89 47.21 142.03 47.25 Z M 141.05 47.29 L 140.07 47.32 C 139.21 47.34 138.53 48.06 138.55 48.92 C 138.57 49.78 139.29 50.46 140.15 50.44 L 141.13 50.42 C 141.99 50.39 142.67 49.68 142.65 48.81 C 142.63 47.95 141.91 47.27 141.05 47.29 Z M 140.09 47.32 L 139.10 47.33 C 138.23 47.34 137.54 48.05 137.55 48.91 C 137.57 49.77 138.27 50.47 139.13 50.45 L 140.13 50.44 C 140.99 50.43 141.68 49.72 141.67 48.86 C 141.66 48.00 140.95 47.31 140.09 47.32 Z M 139.11 47.33 L 138.10 47.34 C 137.24 47.34 136.54 48.04 136.55 48.90 C 136.55 49.77 137.25 50.46 138.11 50.46 L 139.12 50.45 C 139.98 50.45 140.68 49.75 140.68 48.89 C 140.67 48.03 139.97 47.33 139.11 47.33 Z M 138.11 47.34 L 137.09 47.34 C 136.23 47.34 135.53 48.04 135.53 48.90 C 135.53 49.76 136.23 50.46 137.09 50.46 L 138.11 50.46 C 138.97 50.46 139.67 49.76 139.67 48.90 C 139.67 48.03 138.97 47.34 138.11 47.34 Z M 137.09 47.34 L 136.09 47.34 C 135.23 47.34 134.53 48.04 134.53 48.90 C 134.53 49.76 135.23 50.46 136.09 50.46 L 137.09 50.46 C 137.95 50.46 138.65 49.76 138.65 48.90 C 138.65 48.04 137.95 47.34 137.09 47.34 Z M 136.09 47.34 L 135.08 47.34 C 134.22 47.34 133.52 48.04 133.52 48.90 C 133.52 49.76 134.22 50.46 135.08 50.46 L 136.09 50.46 C 136.95 50.46 137.65 49.76 137.65 48.90 C 137.65 48.04 136.95 47.34 136.09 47.34 Z M 135.08 47.34 L 134.08 47.34 C 133.22 47.34 132.52 48.04 132.52 48.90 C 132.52 49.76 133.22 50.46 134.08 50.46 L 135.08 50.46 C 135.94 50.46 136.64 49.76 136.64 48.90 C 136.64 48.04 135.94 47.34 135.08 47.34 Z M 134.08 47.34 L 133.07 47.34 C 132.21 47.34 131.51 48.04 131.51 48.90 C 131.51 49.76 132.21 50.46 133.07 50.46 L 134.08 50.46 C 134.94 50.46 135.64 49.76 135.64 48.90 C 135.64 48.04 134.94 47.34 134.08 47.34 Z M 133.07 47.34 L 132.06 47.34 C 131.20 47.34 130.50 48.04 130.50 48.90 C 130.50 49.76 131.20 50.46 132.06 50.46 L 133.07 50.46 C 133.94 50.46 134.64 49.76 134.64 48.90 C 134.64 48.04 133.94 47.34 133.07 47.34 Z M 132.06 47.34 L 131.06 47.34 C 130.20 47.34 129.50 48.04 129.50 48.90 C 129.50 49.76 130.20 50.46 131.06 50.46 L 132.06 50.46 C 132.92 50.46 133.62 49.76 133.62 48.90 C 133.62 48.04 132.92 47.34 132.06 47.34 Z M 131.06 47.34 L 130.09 47.34 C 129.22 47.34 128.52 48.04 128.52 48.90 C 128.52 49.76 129.22 50.46 130.09 50.46 L 131.06 50.46 C 131.93 50.46 132.62 49.76 132.62 48.90 C 132.62 48.04 131.93 47.34 131.06 47.34 Z M 130.09 47.34 L 129.08 47.34 C 128.22 47.34 127.52 48.04 127.52 48.90 C 127.52 49.76 128.22 50.46 129.08 50.46 L 130.09 50.46 C 130.95 50.46 131.65 49.76 131.65 48.90 C 131.65 48.04 130.95 47.34 130.09 47.34 Z M 129.08 47.34 L 128.07 47.34 C 127.21 47.34 126.51 48.04 126.51 48.90 C 126.51 49.76 127.21 50.46 128.07 50.46 L 129.08 50.46 C 129.94 50.46 130.64 49.76 130.64 48.90 C 130.64 48.04 129.94 47.34 129.08 47.34 Z M 128.07 47.34 L 127.08 47.34 C 126.22 47.34 125.52 48.04 125.52 48.90 C 125.52 49.76 126.22 50.46 127.08 50.46 L 128.07 50.46 C 128.94 50.46 129.64 49.76 129.64 48.90 C 129.64 48.04 128.94 47.34 128.07 47.34 Z M 127.08 47.34 L 126.11 47.34 C 125.25 47.34 124.55 48.04 124.55 48.90 C 124.55 49.76 125.25 50.46 126.11 50.46 L 127.08 50.46 C 127.94 50.46 128.64 49.76 128.64 48.90 C 128.64 48.04 127.94 47.34 127.08 47.34 Z M 126.11 47.34 L 125.16 47.34 C 124.29 47.34 123.60 48.04 123.60 48.91 C 123.60 49.77 124.31 50.47 125.17 50.46 L 126.12 50.46 C 126.98 50.46 127.68 49.75 127.67 48.89 C 127.67 48.03 126.97 47.33 126.11 47.34 Z M 125.14 47.34 L 124.15 47.36 C 123.29 47.37 122.60 48.08 122.61 48.94 C 122.63 49.80 123.34 50.49 124.20 50.48 L 125.19 50.46 C 126.05 50.45 126.74 49.74 126.72 48.88 C 126.71 48.01 126.00 47.33 125.14 47.34 Z M 124.12 47.36 L 123.06 47.39 C 122.20 47.42 121.53 48.14 121.56 49.01 C 121.59 49.87 122.31 50.54 123.17 50.51 L 124.23 50.48 C 125.09 50.45 125.76 49.73 125.74 48.86 C 125.71 48.00 124.98 47.33 124.12 47.36 Z M 123.03 47.39 L 121.99 47.45 C 121.13 47.50 120.47 48.24 120.52 49.10 C 120.57 49.96 121.31 50.62 122.17 50.57 L 123.21 50.51 C 124.07 50.46 124.72 49.72 124.67 48.86 C 124.62 48.00 123.89 47.34 123.03 47.39 Z M 121.91 47.46 L 120.88 47.58 C 120.02 47.67 119.40 48.44 119.50 49.30 C 119.59 50.16 120.36 50.77 121.22 50.68 L 122.25 50.56 C 123.11 50.47 123.73 49.70 123.63 48.84 C 123.54 47.98 122.77 47.37 121.91 47.46 Z M 120.72 47.60 L 119.73 47.81 C 118.89 47.99 118.35 48.82 118.53 49.66 C 118.70 50.50 119.53 51.04 120.38 50.86 L 121.37 50.65 C 122.21 50.48 122.75 49.65 122.57 48.80 C 122.40 47.96 121.57 47.42 120.72 47.60 Z M 119.48 47.88 L 118.60 48.23 C 117.80 48.54 117.40 49.45 117.72 50.25 C 118.03 51.06 118.94 51.45 119.74 51.14 L 120.62 50.79 C 121.42 50.48 121.82 49.57 121.51 48.77 C 121.19 47.96 120.29 47.57 119.48 47.88 Z M 118.23 48.44 L 117.47 49.01 C 116.78 49.53 116.64 50.51 117.16 51.20 C 117.68 51.89 118.66 52.02 119.35 51.51 L 120.11 50.93 C 120.80 50.41 120.94 49.43 120.42 48.74 C 119.90 48.05 118.92 47.92 118.23 48.44 Z M 117.14 49.35 L 116.57 50.14 C 116.07 50.84 116.23 51.81 116.93 52.32 C 117.63 52.82 118.60 52.66 119.10 51.96 L 119.67 51.17 C 120.18 50.47 120.02 49.49 119.32 48.99 C 118.62 48.49 117.64 48.65 117.14 49.35 Z M 116.40 50.44 L 116.01 51.36 C 115.67 52.16 116.04 53.07 116.84 53.41 C 117.63 53.75 118.55 53.37 118.88 52.58 L 119.27 51.66 C 119.61 50.86 119.24 49.95 118.45 49.61 C 117.65 49.28 116.74 49.65 116.40 50.44 Z M 115.94 51.57 L 115.68 52.55 C 115.46 53.38 115.95 54.24 116.79 54.46 C 117.62 54.68 118.47 54.19 118.70 53.35 L 118.96 52.37 C 119.18 51.54 118.68 50.68 117.85 50.46 C 117.02 50.24 116.16 50.74 115.94 51.57 Z M 115.65 52.67 L 115.48 53.62 C 115.33 54.46 115.89 55.28 116.74 55.43 C 117.59 55.58 118.40 55.02 118.55 54.17 L 118.72 53.23 C 118.88 52.38 118.31 51.57 117.46 51.41 C 116.61 51.26 115.80 51.83 115.65 52.67 Z M 115.47 53.71 L 115.36 54.68 C 115.26 55.53 115.87 56.31 116.73 56.41 C 117.58 56.51 118.36 55.89 118.46 55.04 L 118.57 54.07 C 118.67 53.21 118.05 52.44 117.20 52.34 C 116.34 52.24 115.57 52.86 115.47 53.71 Z M 115.35 54.75 L 115.28 55.77 C 115.22 56.63 115.87 57.37 116.73 57.43 C 117.59 57.49 118.34 56.84 118.39 55.98 L 118.46 54.96 C 118.52 54.10 117.87 53.36 117.01 53.30 C 116.15 53.24 115.41 53.89 115.35 54.75 Z M 115.28 55.81 L 115.24 56.87 C 115.21 57.73 115.88 58.45 116.74 58.48 C 117.60 58.52 118.33 57.84 118.36 56.98 L 118.40 55.93 C 118.43 55.07 117.76 54.34 116.90 54.31 C 116.03 54.28 115.31 54.95 115.28 55.81 Z M 115.24 56.89 L 115.22 57.90 C 115.20 58.76 115.88 59.48 116.74 59.49 C 117.61 59.51 118.32 58.83 118.34 57.97 L 118.36 56.96 C 118.38 56.09 117.69 55.38 116.83 55.36 C 115.97 55.34 115.25 56.03 115.24 56.89 Z M 115.22 57.92 L 115.20 58.95 C 115.20 59.81 115.89 60.52 116.75 60.52 C 117.61 60.53 118.32 59.84 118.33 58.98 L 118.34 57.95 C 118.35 57.09 117.66 56.38 116.79 56.37 C 115.93 56.36 115.22 57.05 115.22 57.92 Z M 115.20 58.96 L 115.20 59.97 C 115.20 60.83 115.89 61.54 116.75 61.54 C 117.62 61.54 118.32 60.85 118.32 59.99 L 118.33 58.97 C 118.33 58.11 117.63 57.41 116.77 57.40 C 115.91 57.40 115.21 58.09 115.20 58.96 Z M 115.20 59.98 L 115.20 60.94 C 115.20 61.80 115.90 62.50 116.76 62.50 C 117.62 62.50 118.32 61.80 118.32 60.94 L 118.32 59.98 C 118.32 59.12 117.62 58.42 116.76 58.42 C 115.90 58.42 115.20 59.12 115.20 59.98 Z M 115.20 60.94 L 115.20 62.02 C 115.20 62.88 115.90 63.58 116.76 63.58 C 117.62 63.58 118.32 62.88 118.32 62.02 L 118.32 60.94 C 118.32 60.08 117.62 59.38 116.76 59.38 C 115.90 59.38 115.20 60.08 115.20 60.94 Z M 115.20 62.02 L 115.20 63.01 C 115.20 63.88 115.90 64.58 116.76 64.58 C 117.62 64.58 118.32 63.88 118.32 63.01 L 118.32 62.02 C 118.32 61.15 117.62 60.45 116.76 60.45 C 115.90 60.45 115.20 61.15 115.20 62.02 Z M 115.20 63.01 L 115.20 63.96 C 115.20 64.82 115.90 65.52 116.76 65.52 C 117.62 65.52 118.32 64.82 118.32 63.96 L 118.32 63.01 C 118.32 62.15 117.62 61.45 116.76 61.45 C 115.90 61.45 115.20 62.15 115.20 63.01 Z M 115.20 63.96 L 115.20 64.91 C 115.20 65.77 115.90 66.47 116.76 66.47 C 117.62 66.47 118.32 65.77 118.32 64.91 L 118.32 63.96 C 118.32 63.10 117.62 62.40 116.76 62.40 C 115.90 62.40 115.20 63.10 115.20 63.96 Z M 115.20 64.91 L 115.20 65.88 C 115.20 66.74 115.90 67.44 116.76 67.44 C 117.62 67.44 118.32 66.74 118.32 65.88 L 118.32 64.91 C 118.32 64.04 117.62 63.35 116.76 63.35 C 115.90 63.35 115.20 64.04 115.20 64.91 Z M 115.20 65.88 L 115.20 66.89 C 115.20 67.75 115.90 68.45 116.76 68.45 C 117.62 68.45 118.32 67.75 118.32 66.89 L 118.32 65.88 C 118.32 65.02 117.62 64.32 116.76 64.32 C 115.90 64.32 115.20 65.02 115.20 65.88 Z M 115.20 66.89 L 115.20 67.93 C 115.20 68.79 115.90 69.49 116.76 69.49 C 117.62 69.49 118.32 68.79 118.32 67.93 L 118.32 66.89 C 118.32 66.03 117.62 65.33 116.76 65.33 C 115.90 65.33 115.20 66.03 115.20 66.89 Z M 115.20 67.93 L 115.20 68.87 C 115.20 69.73 115.90 70.43 116.76 70.43 C 117.62 70.43 118.32 69.73 118.32 68.87 L 118.32 67.93 C 118.32 67.07 117.62 66.37 116.76 66.37 C 115.90 66.37 115.20 67.07 115.20 67.93 Z M 115.20 68.87 L 115.20 69.85 C 115.20 70.71 115.90 71.41 116.76 71.41 C 117.62 71.41 118.32 70.71 118.32 69.85 L 118.32 68.87 C 118.32 68.01 117.62 67.31 116.76 67.31 C 115.90 67.31 115.20 68.01 115.20 68.87 Z M 115.20 69.85 L 115.20 70.86 C 115.20 71.73 115.90 72.43 116.76 72.43 C 117.62 72.43 118.32 71.73 118.32 70.86 L 118.32 69.85 C 118.32 68.98 117.62 68.28 116.76 68.28 C 115.90 68.28 115.20 68.98 115.20 69.85 Z M 115.20 70.86 L 115.20 71.93 C 115.20 72.79 115.90 73.49 116.76 73.49 C 117.62 73.49 118.32 72.79 118.32 71.93 L 118.32 70.86 C 118.32 70.00 117.62 69.30 116.76 69.30 C 115.90 69.30 115.20 70.00 115.20 70.86 Z M 115.20 71.93 L 115.20 72.88 C 115.20 73.75 115.90 74.45 116.76 74.45 C 117.62 74.45 118.32 73.75 118.32 72.88 L 118.32 71.93 C 118.32 71.06 117.62 70.36 116.76 70.36 C 115.90 70.36 115.20 71.06 115.20 71.93 Z M 115.20 72.88 L 115.20 73.88 C 115.20 74.74 115.90 75.44 116.76 75.44 C 117.62 75.44 118.32 74.74 118.32 73.88 L 118.32 72.88 C 118.32 72.02 117.62 71.32 116.76 71.32 C 115.90 71.32 115.20 72.02 115.20 72.88 Z M 115.20 73.88 L 115.20 74.89 C 115.20 75.75 115.90 76.45 116.76 76.45 C 117.62 76.45 118.32 75.75 118.32 74.89 L 118.32 73.88 C 118.32 73.01 117.62 72.32 116.76 72.32 C 115.90 72.32 115.20 73.01 115.20 73.88 Z M 115.20 74.89 L 115.20 75.92 C 115.20 76.78 115.90 77.48 116.76 77.48 C 117.62 77.48 118.32 76.78 118.32 75.92 L 118.32 74.89 C 118.32 74.03 117.62 73.33 116.76 73.33 C 115.90 73.33 115.20 74.03 115.20 74.89 Z M 115.20 75.92 L 115.20 76.93 C 115.20 77.79 115.90 78.49 116.76 78.49 C 117.62 78.49 118.32 77.79 118.32 76.93 L 118.32 75.92 C 118.32 75.05 117.62 74.35 116.76 74.35 C 115.90 74.35 115.20 75.05 115.20 75.92 Z M 115.20 76.93 L 115.20 77.92 C 115.20 78.79 115.90 79.49 116.76 79.49 C 117.62 79.49 118.32 78.79 118.32 77.92 L 118.32 76.93 C 118.32 76.07 117.62 75.37 116.76 75.37 C 115.90 75.37 115.20 76.07 115.20 76.93 Z M 115.20 77.92 L 115.20 78.92 C 115.20 79.78 115.90 80.48 116.76 80.48 C 117.62 80.48 118.32 79.78 118.32 78.92 L 118.32 77.92 C 118.32 77.06 117.62 76.36 116.76 76.36 C 115.90 76.36 115.20 77.06 115.20 77.92 Z M 115.20 78.92 L 115.20 79.92 C 115.20 80.78 115.90 81.48 116.76 81.48 C 117.62 81.48 118.32 80.78 118.32 79.92 L 118.32 78.92 C 118.32 78.06 117.62 77.36 116.76 77.36 C 115.90 77.36 115.20 78.06 115.20 78.92 Z M 115.20 79.92 L 115.20 80.93 C 115.20 81.79 115.90 82.49 116.76 82.49 C 117.62 82.49 118.32 81.79 118.32 80.93 L 118.32 79.92 C 118.32 79.06 117.62 78.36 116.76 78.36 C 115.90 78.36 115.20 79.06 115.20 79.92 Z M 115.20 80.93 L 115.20 81.91 C 115.20 82.77 115.90 83.47 116.76 83.47 C 117.62 83.47 118.32 82.77 118.32 81.91 L 118.32 80.93 C 118.32 80.06 117.62 79.36 116.76 79.36 C 115.90 79.36 115.20 80.06 115.20 80.93 Z M 115.20 81.91 L 115.20 82.89 C 115.20 83.75 115.90 84.45 116.76 84.45 C 117.62 84.45 118.32 83.75 118.32 82.89 L 118.32 81.91 C 118.32 81.05 117.62 80.35 116.76 80.35 C 115.90 80.35 115.20 81.05 115.20 81.91 Z M 115.20 82.89 L 115.20 83.89 C 115.20 84.75 115.90 85.45 116.76 85.45 C 117.62 85.45 118.32 84.75 118.32 83.89 L 118.32 82.89 C 118.32 82.03 117.62 81.33 116.76 81.33 C 115.90 81.33 115.20 82.03 115.20 82.89 Z M 115.20 83.89 L 115.20 84.90 C 115.20 85.76 115.90 86.46 116.76 86.46 C 117.62 86.46 118.32 85.76 118.32 84.90 L 118.32 83.89 C 118.32 83.03 117.62 82.33 116.76 82.33 C 115.90 82.33 115.20 83.03 115.20 83.89 Z M 115.20 84.90 L 115.20 85.92 C 115.20 86.78 115.90 87.48 116.76 87.48 C 117.62 87.48 118.32 86.78 118.32 85.92 L 118.32 84.90 C 118.32 84.04 117.62 83.34 116.76 83.34 C 115.90 83.34 115.20 84.04 115.20 84.90 Z M 115.20 85.92 L 115.20 86.91 C 115.20 87.77 115.90 88.47 116.76 88.47 C 117.62 88.47 118.32 87.77 118.32 86.91 L 118.32 85.92 C 118.32 85.06 117.62 84.36 116.76 84.36 C 115.90 84.36 115.20 85.06 115.20 85.92 Z M 115.20 86.91 L 115.20 87.90 C 115.20 88.76 115.90 89.46 116.76 89.46 C 117.62 89.46 118.32 88.76 118.32 87.90 L 118.32 86.91 C 118.32 86.05 117.62 85.35 116.76 85.35 C 115.90 85.35 115.20 86.05 115.20 86.91 Z M 115.20 87.90 L 115.20 88.90 C 115.20 89.76 115.90 90.46 116.76 90.46 C 117.62 90.46 118.32 89.76 118.32 88.90 L 118.32 87.90 C 118.32 87.03 117.62 86.34 116.76 86.34 C 115.90 86.34 115.20 87.03 115.20 87.90 Z M 115.20 88.90 L 115.20 89.90 C 115.20 90.77 115.90 91.47 116.76 91.47 C 117.62 91.47 118.32 90.77 118.32 89.90 L 118.32 88.90 C 118.32 88.03 117.62 87.33 116.76 87.33 C 115.90 87.33 115.20 88.03 115.20 88.90 Z M 115.20 89.90 L 115.20 90.92 C 115.20 91.78 115.90 92.48 116.76 92.48 C 117.62 92.48 118.32 91.78 118.32 90.92 L 118.32 89.90 C 118.32 89.04 117.62 88.34 116.76 88.34 C 115.90 88.34 115.20 89.04 115.20 89.90 Z M 115.20 90.92 L 115.20 91.92 C 115.20 92.78 115.90 93.48 116.76 93.48 C 117.62 93.48 118.32 92.78 118.32 91.92 L 118.32 90.92 C 118.32 90.06 117.62 89.36 116.76 89.36 C 115.90 89.36 115.20 90.06 115.20 90.92 Z M 115.20 91.92 L 115.20 92.91 C 115.20 93.78 115.90 94.48 116.76 94.48 C 117.62 94.48 118.32 93.78 118.32 92.92 L 118.32 91.92 C 118.32 91.06 117.62 90.36 116.76 90.36 C 115.90 90.36 115.20 91.06 115.20 91.92 Z M 115.20 92.91 L 115.20 93.91 C 115.20 94.77 115.89 95.47 116.76 95.47 C 117.62 95.47 118.32 94.78 118.32 93.91 L 118.32 92.92 C 118.32 92.06 117.63 91.36 116.76 91.35 C 115.90 91.35 115.20 92.05 115.20 92.91 Z M 115.20 93.91 L 115.19 94.91 C 115.19 95.77 115.89 96.47 116.75 96.47 C 117.61 96.48 118.31 95.78 118.32 94.92 L 118.32 93.92 C 118.32 93.06 117.63 92.35 116.76 92.35 C 115.90 92.35 115.20 93.04 115.20 93.91 Z M 115.19 94.90 L 115.19 95.91 C 115.18 96.77 115.87 97.47 116.74 97.48 C 117.60 97.49 118.30 96.79 118.31 95.93 L 118.32 94.92 C 118.32 94.06 117.63 93.36 116.76 93.35 C 115.90 93.35 115.20 94.04 115.19 94.90 Z M 115.19 95.90 L 115.18 96.91 C 115.17 97.77 115.86 98.48 116.72 98.49 C 117.58 98.50 118.29 97.80 118.30 96.94 L 118.31 95.94 C 118.32 95.07 117.63 94.37 116.76 94.36 C 115.90 94.35 115.20 95.04 115.19 95.90 Z M 115.18 96.90 L 115.16 97.87 C 115.15 98.74 115.84 99.45 116.70 99.46 C 117.56 99.47 118.27 98.78 118.28 97.92 L 118.30 96.95 C 118.31 96.09 117.62 95.38 116.76 95.36 C 115.90 95.35 115.19 96.04 115.18 96.90 Z M 115.16 97.87 L 115.14 98.85 C 115.13 99.71 115.81 100.42 116.68 100.44 C 117.54 100.45 118.25 99.77 118.27 98.91 L 118.28 97.93 C 118.30 97.06 117.61 96.35 116.75 96.34 C 115.89 96.32 115.18 97.01 115.16 97.87 Z M 115.14 98.84 L 115.12 99.83 C 115.10 100.70 115.78 101.41 116.65 101.43 C 117.51 101.45 118.22 100.77 118.24 99.90 L 118.27 98.91 C 118.28 98.05 117.60 97.34 116.74 97.32 C 115.88 97.30 115.16 97.98 115.14 98.84 Z M 115.12 99.83 L 115.09 100.84 C 115.07 101.70 115.75 102.41 116.61 102.44 C 117.48 102.46 118.19 101.78 118.22 100.92 L 118.24 99.91 C 118.27 99.05 117.59 98.33 116.72 98.31 C 115.86 98.29 115.14 98.97 115.12 99.83 Z M 115.10 100.83 L 115.06 101.86 C 115.04 102.72 115.72 103.44 116.58 103.46 C 117.44 103.49 118.16 102.81 118.19 101.95 L 118.22 100.92 C 118.24 100.06 117.56 99.34 116.70 99.32 C 115.84 99.29 115.12 99.97 115.10 100.83 Z M 115.06 101.85 L 115.03 102.87 C 115.00 103.73 115.68 104.45 116.54 104.48 C 117.40 104.51 118.12 103.83 118.15 102.97 L 118.19 101.95 C 118.21 101.09 117.54 100.37 116.68 100.34 C 115.81 100.31 115.09 100.99 115.06 101.85 Z M 115.03 102.86 L 115.00 103.85 C 114.96 104.71 115.64 105.44 116.50 105.47 C 117.36 105.50 118.09 104.83 118.12 103.96 L 118.15 102.97 C 118.18 102.11 117.51 101.39 116.65 101.36 C 115.79 101.33 115.06 102.00 115.03 102.86 Z M 115.00 103.85 L 114.96 104.85 C 114.92 105.71 115.60 106.44 116.46 106.47 C 117.32 106.50 118.05 105.83 118.08 104.97 L 118.12 103.97 C 118.15 103.11 117.48 102.38 116.62 102.35 C 115.75 102.32 115.03 102.99 115.00 103.85 Z M 114.96 104.85 L 114.92 105.86 C 114.88 106.72 115.55 107.45 116.42 107.48 C 117.28 107.51 118.00 106.84 118.04 105.98 L 118.08 104.97 C 118.11 104.11 117.44 103.39 116.58 103.35 C 115.72 103.32 114.99 103.99 114.96 104.85 Z M 114.92 105.85 L 114.88 106.86 C 114.84 107.72 115.51 108.45 116.37 108.49 C 117.23 108.52 117.96 107.85 118.00 106.99 L 118.04 105.98 C 118.07 105.12 117.40 104.40 116.54 104.36 C 115.68 104.32 114.95 104.99 114.92 105.85 Z M 114.88 106.86 L 114.83 107.86 C 114.80 108.72 115.46 109.45 116.33 109.49 C 117.19 109.53 117.92 108.86 117.95 108.00 L 118.00 106.99 C 118.03 106.13 117.36 105.40 116.50 105.37 C 115.64 105.33 114.91 106.00 114.88 106.86 Z M 114.83 107.86 L 114.79 108.86 C 114.75 109.72 115.42 110.45 116.28 110.49 C 117.14 110.53 117.87 109.86 117.91 109.00 L 117.95 108.00 C 117.99 107.14 117.32 106.41 116.46 106.37 C 115.60 106.33 114.87 107.00 114.83 107.86 Z M 114.79 108.86 L 114.74 109.88 C 114.71 110.74 115.37 111.47 116.23 111.50 C 117.09 111.54 117.82 110.88 117.86 110.01 L 117.91 109.00 C 117.95 108.14 117.28 107.41 116.42 107.37 C 115.56 107.33 114.83 108.00 114.79 108.86 Z M 114.74 109.87 L 114.70 110.87 C 114.66 111.74 115.32 112.47 116.19 112.51 C 117.05 112.55 117.78 111.88 117.82 111.02 L 117.86 110.02 C 117.90 109.16 117.24 108.43 116.38 108.39 C 115.51 108.35 114.78 109.01 114.74 109.87 Z M 114.70 110.87 L 114.65 111.87 C 114.61 112.73 115.27 113.46 116.13 113.50 C 117.00 113.54 117.73 112.88 117.77 112.02 L 117.82 111.02 C 117.86 110.16 117.19 109.43 116.33 109.39 C 115.47 109.35 114.74 110.01 114.70 110.87 Z M 114.65 111.86 L 114.60 112.85 C 114.56 113.71 115.22 114.44 116.08 114.49 C 116.94 114.53 117.67 113.87 117.72 113.01 L 117.77 112.02 C 117.81 111.16 117.15 110.42 116.29 110.38 C 115.43 110.34 114.69 111.00 114.65 111.86 Z M 114.60 112.85 L 114.55 113.84 C 114.50 114.70 115.16 115.43 116.02 115.48 C 116.88 115.52 117.62 114.86 117.67 114.00 L 117.72 113.01 C 117.76 112.15 117.10 111.42 116.24 111.37 C 115.38 111.32 114.65 111.99 114.60 112.85 Z M 114.55 113.83 L 114.49 114.81 C 114.44 115.67 115.10 116.41 115.96 116.46 C 116.82 116.51 117.56 115.85 117.61 114.99 L 117.67 114.01 C 117.71 113.15 117.06 112.41 116.19 112.36 C 115.33 112.31 114.60 112.97 114.55 113.83 Z M 114.49 114.81 L 114.43 115.79 C 114.38 116.65 115.04 117.39 115.90 117.44 C 116.76 117.49 117.50 116.83 117.55 115.97 L 117.61 114.99 C 117.66 114.13 117.00 113.39 116.14 113.34 C 115.28 113.29 114.54 113.95 114.49 114.81 Z M 114.43 115.78 L 114.37 116.77 C 114.32 117.63 114.98 118.37 115.84 118.42 C 116.70 118.47 117.44 117.82 117.49 116.96 L 117.55 115.97 C 117.60 115.11 116.95 114.37 116.09 114.32 C 115.23 114.27 114.49 114.92 114.43 115.78 Z M 114.37 116.77 L 114.31 117.76 C 114.26 118.63 114.92 119.37 115.78 119.42 C 116.64 119.47 117.38 118.81 117.43 117.95 L 117.49 116.96 C 117.54 116.10 116.89 115.36 116.03 115.31 C 115.17 115.25 114.43 115.91 114.37 116.77 Z M 114.31 117.77 L 114.25 118.77 C 114.20 119.63 114.86 120.37 115.72 120.43 C 116.58 120.48 117.32 119.82 117.37 118.96 L 117.43 117.95 C 117.48 117.09 116.83 116.35 115.97 116.30 C 115.10 116.25 114.37 116.91 114.31 117.77 Z M 114.25 118.78 L 114.20 119.80 C 114.15 120.66 114.80 121.40 115.67 121.45 C 116.53 121.49 117.26 120.84 117.31 119.98 L 117.37 118.96 C 117.42 118.09 116.76 117.36 115.90 117.31 C 115.04 117.26 114.30 117.92 114.25 118.78 Z M 114.20 119.80 L 114.14 120.81 C 114.10 121.67 114.76 122.41 115.62 122.45 C 116.48 122.50 117.21 121.84 117.26 120.98 L 117.31 119.97 C 117.36 119.11 116.70 118.37 115.84 118.33 C 114.98 118.28 114.24 118.94 114.20 119.80 Z M 114.14 120.82 L 114.09 121.80 C 114.05 122.66 114.71 123.39 115.57 123.44 C 116.43 123.48 117.17 122.82 117.21 121.95 L 117.26 120.97 C 117.30 120.11 116.64 119.38 115.78 119.33 C 114.92 119.29 114.18 119.95 114.14 120.82 Z M 114.09 121.80 L 114.04 122.79 C 114.00 123.65 114.67 124.39 115.53 124.43 C 116.39 124.47 117.12 123.80 117.16 122.94 L 117.21 121.95 C 117.25 121.09 116.59 120.36 115.73 120.32 C 114.86 120.28 114.13 120.94 114.09 121.80 Z M 114.04 122.80 L 114.00 123.80 C 113.96 124.66 114.62 125.39 115.48 125.43 C 116.35 125.47 117.08 124.80 117.12 123.94 L 117.16 122.94 C 117.20 122.08 116.54 121.35 115.68 121.31 C 114.82 121.27 114.08 121.93 114.04 122.80 Z M 114.00 123.80 L 113.95 124.80 C 113.91 125.66 114.58 126.39 115.44 126.43 C 116.30 126.47 117.03 125.81 117.07 124.95 L 117.12 123.94 C 117.16 123.08 116.49 122.35 115.63 122.31 C 114.77 122.27 114.04 122.93 114.00 123.80 Z M 113.95 124.80 L 113.90 125.81 C 113.86 126.67 114.53 127.40 115.39 127.44 C 116.25 127.49 116.98 126.82 117.02 125.96 L 117.07 124.95 C 117.11 124.09 116.45 123.36 115.58 123.32 C 114.72 123.27 113.99 123.94 113.95 124.80 Z M 113.90 125.81 L 113.85 126.82 C 113.81 127.68 114.47 128.41 115.34 128.46 C 116.20 128.50 116.93 127.84 116.97 126.97 L 117.02 125.96 C 117.06 125.10 116.40 124.37 115.54 124.33 C 114.68 124.28 113.95 124.95 113.90 125.81 Z M 113.85 126.82 L 113.80 127.82 C 113.76 128.68 114.42 129.42 115.28 129.46 C 116.14 129.51 116.87 128.84 116.92 127.98 L 116.97 126.98 C 117.02 126.12 116.36 125.38 115.49 125.34 C 114.63 125.29 113.90 125.95 113.85 126.82 Z M 113.80 127.82 L 113.75 128.82 C 113.70 129.68 114.36 130.42 115.22 130.46 C 116.08 130.51 116.82 129.85 116.86 128.99 L 116.92 127.99 C 116.97 127.13 116.31 126.39 115.45 126.34 C 114.59 126.30 113.85 126.96 113.80 127.82 Z M 113.75 128.82 L 113.69 129.82 C 113.64 130.68 114.30 131.42 115.16 131.47 C 116.02 131.52 116.76 130.86 116.81 130.00 L 116.86 129.00 C 116.91 128.13 116.25 127.40 115.39 127.35 C 114.53 127.30 113.80 127.96 113.75 128.82 Z M 113.69 129.82 L 113.63 130.81 C 113.58 131.68 114.23 132.41 115.09 132.47 C 115.96 132.52 116.69 131.86 116.75 131.00 L 116.81 130.00 C 116.86 129.14 116.20 128.40 115.34 128.35 C 114.48 128.30 113.74 128.95 113.69 129.82 Z M 113.63 130.81 L 113.57 131.81 C 113.52 132.67 114.17 133.41 115.03 133.46 C 115.89 133.51 116.63 132.86 116.69 132.00 L 116.75 131.00 C 116.80 130.14 116.14 129.40 115.28 129.35 C 114.42 129.30 113.68 129.95 113.63 130.81 Z M 113.57 131.81 L 113.51 132.80 C 113.45 133.66 114.11 134.40 114.97 134.45 C 115.83 134.50 116.57 133.85 116.62 132.99 L 116.69 132.00 C 116.74 131.14 116.08 130.40 115.22 130.34 C 114.36 130.29 113.62 130.95 113.57 131.81 Z M 113.51 132.80 L 113.45 133.79 C 113.39 134.65 114.05 135.39 114.91 135.44 C 115.77 135.50 116.51 134.84 116.56 133.98 L 116.62 132.99 C 116.68 132.13 116.02 131.39 115.16 131.33 C 114.30 131.28 113.56 131.93 113.51 132.80 Z M 113.45 133.79 L 113.38 134.79 C 113.33 135.65 113.98 136.39 114.84 136.44 C 115.70 136.49 116.45 135.84 116.50 134.98 L 116.56 133.98 C 116.62 133.12 115.96 132.38 115.10 132.33 C 114.24 132.27 113.50 132.93 113.45 133.79 Z M 113.38 134.79 L 113.32 135.78 C 113.27 136.64 113.92 137.38 114.78 137.43 C 115.64 137.49 116.38 136.83 116.44 135.97 L 116.50 134.98 C 116.55 134.12 115.90 133.38 115.04 133.32 C 114.18 133.27 113.44 133.93 113.38 134.79 Z M 113.32 135.78 L 113.26 136.78 C 113.21 137.64 113.86 138.38 114.73 138.43 C 115.59 138.48 116.33 137.83 116.38 136.96 L 116.44 135.97 C 116.49 135.11 115.83 134.37 114.97 134.32 C 114.11 134.27 113.37 134.92 113.32 135.78 Z M 113.26 136.78 L 113.20 137.78 C 113.15 138.64 113.81 139.37 114.67 139.43 C 115.53 139.48 116.27 138.82 116.32 137.96 L 116.38 136.96 C 116.43 136.10 115.77 135.36 114.91 135.31 C 114.05 135.26 113.31 135.92 113.26 136.78 Z M 113.20 137.78 L 113.15 138.78 C 113.10 139.64 113.76 140.38 114.62 140.43 C 115.48 140.47 116.22 139.82 116.26 138.96 L 116.32 137.95 C 116.37 137.09 115.71 136.36 114.85 136.31 C 113.99 136.26 113.25 136.92 113.20 137.78 Z M 113.15 138.79 L 113.09 139.80 C 113.05 140.66 113.71 141.39 114.57 141.44 C 115.43 141.48 116.17 140.82 116.21 139.96 L 116.26 138.95 C 116.31 138.09 115.65 137.35 114.79 137.31 C 113.93 137.26 113.19 137.92 113.15 138.79 Z M 113.09 139.80 L 113.04 140.84 C 113.00 141.70 113.66 142.43 114.52 142.47 C 115.39 142.51 116.12 141.85 116.16 140.99 L 116.21 139.96 C 116.25 139.09 115.59 138.36 114.73 138.32 C 113.87 138.28 113.13 138.94 113.09 139.80 Z M 113.04 140.84 L 113.00 141.87 C 112.96 142.73 113.62 143.46 114.48 143.50 C 115.35 143.54 116.08 142.87 116.11 142.01 L 116.16 140.98 C 116.20 140.12 115.53 139.39 114.67 139.35 C 113.81 139.31 113.08 139.98 113.04 140.84 Z M 112.99 141.88 L 112.95 142.90 C 112.92 143.76 113.59 144.49 114.45 144.52 C 115.31 144.56 116.04 143.89 116.07 143.03 L 116.11 142.01 C 116.15 141.15 115.48 140.42 114.62 140.38 C 113.76 140.35 113.03 141.02 112.99 141.88 Z M 112.95 142.91 L 112.92 143.91 C 112.88 144.77 113.56 145.50 114.42 145.53 C 115.28 145.56 116.00 144.89 116.04 144.02 L 116.07 143.02 C 116.10 142.16 115.43 141.44 114.57 141.40 C 113.71 141.37 112.98 142.05 112.95 142.91 Z M 112.92 143.92 L 112.88 144.89 C 112.86 145.75 113.53 146.47 114.39 146.50 C 115.26 146.53 115.98 145.85 116.01 144.99 L 116.04 144.02 C 116.06 143.15 115.39 142.43 114.53 142.41 C 113.66 142.38 112.94 143.05 112.92 143.92 Z M 112.88 144.90 L 112.86 145.84 C 112.84 146.70 113.52 147.42 114.38 147.44 C 115.24 147.46 115.96 146.78 115.98 145.92 L 116.01 144.98 C 116.03 144.12 115.35 143.40 114.49 143.38 C 113.62 143.36 112.91 144.04 112.88 144.90 Z M 112.86 145.85 L 112.84 146.93 C 112.82 147.79 113.50 148.50 114.37 148.52 C 115.23 148.54 115.94 147.85 115.96 146.99 L 115.98 145.91 C 116.00 145.05 115.31 144.33 114.45 144.32 C 113.59 144.30 112.88 144.98 112.86 145.85 Z M 112.84 146.94 L 112.82 147.98 C 112.81 148.84 113.50 149.55 114.36 149.56 C 115.23 149.57 115.93 148.89 115.95 148.02 L 115.96 146.98 C 115.97 146.12 115.28 145.41 114.42 145.40 C 113.56 145.39 112.85 146.08 112.84 146.94 Z M 112.82 147.99 L 112.82 148.98 C 112.81 149.85 113.50 150.55 114.37 150.56 C 115.23 150.56 115.93 149.87 115.94 149.01 L 115.95 148.01 C 115.95 147.15 115.26 146.45 114.40 146.44 C 113.53 146.43 112.83 147.13 112.82 147.99 Z M 112.82 148.99 L 112.81 149.94 C 112.81 150.81 113.51 151.51 114.37 151.51 C 115.23 151.51 115.93 150.82 115.94 149.95 L 115.94 149.00 C 115.94 148.14 115.24 147.44 114.38 147.43 C 113.52 147.43 112.82 148.13 112.82 148.99 Z M 112.81 149.95 L 112.81 150.88 C 112.81 151.74 113.51 152.44 114.37 152.44 C 115.23 152.44 115.93 151.74 115.93 150.88 L 115.94 149.95 C 115.94 149.09 115.24 148.39 114.37 148.39 C 113.51 148.39 112.81 149.09 112.81 149.95 Z M 112.81 150.88 L 112.81 151.89 C 112.81 152.76 113.51 153.46 114.37 153.46 C 115.24 153.46 115.93 152.76 115.93 151.89 L 115.93 150.88 C 115.93 150.02 115.24 149.32 114.37 149.32 C 113.51 149.32 112.81 150.02 112.81 150.88 Z M 112.81 151.89 L 112.81 152.91 C 112.81 153.77 113.51 154.47 114.37 154.47 C 115.24 154.47 115.93 153.77 115.93 152.91 L 115.93 151.89 C 115.93 151.03 115.24 150.33 114.37 150.33 C 113.51 150.33 112.81 151.03 112.81 151.89 Z M 112.81 152.91 L 112.81 153.91 C 112.81 154.77 113.51 155.47 114.37 155.47 C 115.24 155.47 115.93 154.77 115.93 153.91 L 115.93 152.91 C 115.93 152.05 115.24 151.35 114.37 151.35 C 113.51 151.35 112.81 152.05 112.81 152.91 Z M 112.81 153.91 L 112.81 154.89 C 112.81 155.75 113.51 156.45 114.37 156.45 C 115.24 156.45 115.93 155.75 115.93 154.89 L 115.93 153.91 C 115.93 153.05 115.24 152.35 114.37 152.35 C 113.51 152.35 112.81 153.05 112.81 153.91 Z M 112.81 154.89 L 112.81 155.88 C 112.81 156.74 113.51 157.44 114.37 157.44 C 115.24 157.44 115.93 156.74 115.93 155.88 L 115.93 154.89 C 115.93 154.03 115.24 153.33 114.37 153.33 C 113.51 153.33 112.81 154.03 112.81 154.89 Z M 112.81 155.88 L 112.81 156.90 C 112.81 157.76 113.51 158.46 114.37 158.46 C 115.24 158.46 115.93 157.76 115.93 156.90 L 115.93 155.88 C 115.93 155.02 115.24 154.32 114.37 154.32 C 113.51 154.32 112.81 155.02 112.81 155.88 Z M 112.81 156.90 L 112.81 157.90 C 112.81 158.76 113.51 159.46 114.37 159.46 C 115.24 159.46 115.93 158.76 115.93 157.90 L 115.93 156.90 C 115.93 156.04 115.24 155.34 114.37 155.34 C 113.51 155.34 112.81 156.04 112.81 156.90 Z M 112.81 157.90 L 112.81 158.89 C 112.81 159.75 113.51 160.45 114.37 160.45 C 115.24 160.45 115.93 159.75 115.93 158.89 L 115.93 157.90 C 115.93 157.04 115.24 156.34 114.37 156.34 C 113.51 156.34 112.81 157.04 112.81 157.90 Z M 112.81 158.89 L 112.81 159.87 C 112.81 160.73 113.51 161.43 114.37 161.43 C 115.24 161.43 115.93 160.73 115.93 159.87 L 115.93 158.89 C 115.93 158.03 115.24 157.33 114.37 157.33 C 113.51 157.33 112.81 158.03 112.81 158.89 Z M 112.81 159.87 L 112.81 160.88 C 112.81 161.74 113.51 162.44 114.37 162.44 C 115.24 162.44 115.93 161.74 115.93 160.88 L 115.93 159.87 C 115.93 159.01 115.24 158.31 114.37 158.31 C 113.51 158.31 112.81 159.01 112.81 159.87 Z M 112.81 160.88 L 112.81 161.88 C 112.81 162.74 113.51 163.44 114.37 163.44 C 115.24 163.44 115.93 162.74 115.93 161.88 L 115.93 160.88 C 115.93 160.02 115.24 159.32 114.37 159.32 C 113.51 159.32 112.81 160.02 112.81 160.88 Z M 112.81 161.88 L 112.81 162.87 C 112.81 163.74 113.51 164.43 114.37 164.43 C 115.24 164.43 115.93 163.74 115.93 162.87 L 115.93 161.88 C 115.93 161.02 115.24 160.32 114.37 160.32 C 113.51 160.32 112.81 161.02 112.81 161.88 Z M 112.81 162.87 L 112.81 163.87 C 112.81 164.73 113.51 165.43 114.37 165.43 C 115.24 165.43 115.93 164.73 115.93 163.87 L 115.93 162.87 C 115.93 162.01 115.24 161.31 114.37 161.31 C 113.51 161.31 112.81 162.01 112.81 162.87 Z M 112.81 163.87 L 112.81 164.85 C 112.81 165.71 113.51 166.41 114.37 166.41 C 115.24 166.41 115.94 165.71 115.94 164.85 L 115.93 163.87 C 115.93 163.00 115.23 162.30 114.37 162.30 C 113.51 162.31 112.81 163.00 112.81 163.87 Z M 112.81 164.86 L 112.82 165.85 C 112.82 166.71 113.52 167.41 114.38 167.41 C 115.24 167.40 115.94 166.70 115.94 165.84 L 115.94 164.85 C 115.93 163.98 115.23 163.29 114.37 163.29 C 113.51 163.29 112.81 163.99 112.81 164.86 Z M 112.82 165.86 L 112.82 166.86 C 112.83 167.72 113.53 168.42 114.40 168.41 C 115.26 168.40 115.95 167.70 115.95 166.84 L 115.94 165.83 C 115.93 164.97 115.23 164.28 114.37 164.28 C 113.50 164.29 112.81 164.99 112.82 165.86 Z M 112.82 166.87 L 112.84 167.89 C 112.85 168.75 113.56 169.44 114.42 169.43 C 115.28 169.42 115.97 168.71 115.96 167.85 L 115.95 166.83 C 115.93 165.97 115.23 165.28 114.36 165.29 C 113.50 165.30 112.81 166.01 112.82 166.87 Z M 112.84 167.90 L 112.86 168.92 C 112.88 169.79 113.59 170.47 114.45 170.45 C 115.31 170.43 116.00 169.72 115.98 168.86 L 115.96 167.84 C 115.94 166.98 115.23 166.29 114.37 166.31 C 113.50 166.33 112.82 167.04 112.84 167.90 Z M 112.86 168.94 L 112.89 169.96 C 112.91 170.82 113.63 171.50 114.49 171.47 C 115.35 171.45 116.03 170.73 116.01 169.87 L 115.98 168.85 C 115.96 167.99 115.24 167.31 114.38 167.33 C 113.51 167.36 112.83 168.07 112.86 168.94 Z M 112.89 169.97 L 112.93 170.97 C 112.96 171.83 113.68 172.50 114.54 172.47 C 115.40 172.44 116.08 171.71 116.05 170.85 L 116.01 169.85 C 115.98 168.99 115.25 168.32 114.39 168.35 C 113.53 168.38 112.86 169.11 112.89 169.97 Z M 112.93 170.98 L 112.97 171.94 C 113.01 172.81 113.74 173.47 114.60 173.43 C 115.46 173.39 116.13 172.66 116.09 171.80 L 116.04 170.84 C 116.00 169.98 115.27 169.31 114.41 169.35 C 113.55 169.39 112.89 170.12 112.93 170.98 Z M 112.97 171.96 L 113.03 173.03 C 113.09 173.89 113.82 174.55 114.68 174.50 C 115.55 174.45 116.20 173.71 116.15 172.85 L 116.09 171.78 C 116.04 170.92 115.30 170.26 114.44 170.31 C 113.58 170.36 112.92 171.10 112.97 171.96 Z M 113.04 173.05 L 113.11 174.05 C 113.17 174.91 113.91 175.56 114.77 175.50 C 115.63 175.44 116.28 174.69 116.22 173.83 L 116.15 172.83 C 116.09 171.97 115.34 171.32 114.48 171.38 C 113.62 171.44 112.97 172.19 113.04 173.05 Z M 113.11 174.06 L 113.18 175.01 C 113.25 175.87 114.00 176.51 114.86 176.45 C 115.72 176.38 116.36 175.63 116.30 174.77 L 116.22 173.82 C 116.15 172.96 115.40 172.32 114.54 172.38 C 113.68 172.45 113.04 173.20 113.11 174.06 Z M 113.18 175.02 L 113.26 175.95 C 113.33 176.81 114.09 177.44 114.95 177.37 C 115.81 177.30 116.44 176.55 116.37 175.69 L 116.29 174.76 C 116.22 173.90 115.47 173.26 114.61 173.33 C 113.75 173.41 113.11 174.16 113.18 175.02 Z M 113.26 175.95 L 113.35 176.89 C 113.42 177.75 114.18 178.39 115.04 178.31 C 115.90 178.23 116.53 177.48 116.46 176.62 L 116.37 175.68 C 116.29 174.82 115.54 174.18 114.68 174.26 C 113.82 174.34 113.18 175.10 113.26 175.95 Z M 113.35 176.91 L 113.45 177.91 C 113.53 178.77 114.30 179.39 115.15 179.31 C 116.01 179.22 116.64 178.46 116.55 177.60 L 116.45 176.60 C 116.37 175.74 115.60 175.12 114.75 175.20 C 113.89 175.29 113.26 176.05 113.35 176.91 Z M 113.45 177.93 L 113.57 178.98 C 113.66 179.84 114.43 180.46 115.29 180.36 C 116.15 180.27 116.76 179.49 116.67 178.64 L 116.55 177.58 C 116.46 176.73 115.68 176.11 114.83 176.20 C 113.97 176.30 113.35 177.07 113.45 177.93 Z M 113.57 179.00 L 113.67 179.84 C 113.77 180.70 114.55 181.31 115.41 181.20 C 116.26 181.10 116.87 180.32 116.77 179.47 L 116.67 178.62 C 116.56 177.77 115.79 177.16 114.93 177.26 C 114.07 177.36 113.46 178.14 113.57 179.00 Z M 113.67 179.85 L 113.79 180.77 C 113.89 181.63 114.68 182.23 115.53 182.12 C 116.39 182.02 116.99 181.24 116.88 180.38 L 116.77 179.46 C 116.66 178.60 115.88 178.00 115.03 178.11 C 114.17 178.21 113.56 178.99 113.67 179.85 Z M 113.79 180.77 L 113.91 181.77 C 114.02 182.63 114.80 183.23 115.66 183.12 C 116.51 183.02 117.12 182.23 117.01 181.38 L 116.88 180.38 C 116.78 179.52 115.99 178.92 115.14 179.03 C 114.28 179.13 113.68 179.92 113.79 180.77 Z M 113.91 181.77 L 114.05 182.86 C 114.16 183.71 114.94 184.32 115.79 184.21 C 116.65 184.10 117.26 183.32 117.15 182.47 L 117.01 181.38 C 116.90 180.53 116.12 179.92 115.27 180.03 C 114.41 180.13 113.81 180.92 113.91 181.77 Z M 114.05 182.85 L 114.19 183.99 C 114.29 184.85 115.07 185.46 115.93 185.35 C 116.78 185.25 117.39 184.47 117.29 183.61 L 117.15 182.47 C 117.04 181.62 116.27 181.01 115.41 181.11 C 114.55 181.22 113.94 182.00 114.05 182.85 Z M 114.19 183.98 L 114.31 184.99 C 114.41 185.85 115.19 186.46 116.04 186.36 C 116.90 186.26 117.51 185.48 117.41 184.62 L 117.29 183.62 C 117.19 182.76 116.41 182.15 115.55 182.25 C 114.70 182.35 114.09 183.13 114.19 183.98 Z M 114.31 184.99 L 114.43 186.02 C 114.53 186.88 115.30 187.50 116.16 187.40 C 117.01 187.30 117.63 186.52 117.53 185.67 L 117.41 184.63 C 117.31 183.77 116.54 183.16 115.68 183.26 C 114.82 183.36 114.21 184.13 114.31 184.99 Z M 114.43 186.02 L 114.54 187.06 C 114.64 187.92 115.41 188.53 116.27 188.44 C 117.13 188.34 117.74 187.57 117.65 186.71 L 117.53 185.67 C 117.43 184.81 116.66 184.20 115.80 184.29 C 114.95 184.39 114.33 185.16 114.43 186.02 Z M 114.54 187.06 L 114.66 188.07 C 114.75 188.93 115.52 189.55 116.38 189.46 C 117.23 189.36 117.85 188.59 117.76 187.73 L 117.65 186.72 C 117.55 185.86 116.78 185.24 115.92 185.33 C 115.07 185.43 114.45 186.20 114.54 187.06 Z M 114.65 188.07 L 114.76 189.04 C 114.85 189.90 115.62 190.52 116.48 190.43 C 117.33 190.34 117.95 189.57 117.86 188.71 L 117.76 187.74 C 117.67 186.88 116.90 186.26 116.04 186.35 C 115.18 186.44 114.56 187.21 114.65 188.07 Z M 114.76 189.04 L 114.85 189.93 C 114.94 190.79 115.71 191.41 116.56 191.32 C 117.42 191.24 118.04 190.47 117.96 189.61 L 117.86 188.71 C 117.77 187.86 117.01 187.23 116.15 187.32 C 115.29 187.41 114.67 188.18 114.76 189.04 Z M 114.85 189.92 L 114.96 191.10 C 115.05 191.96 115.81 192.59 116.67 192.51 C 117.53 192.42 118.16 191.66 118.07 190.80 L 117.96 189.62 C 117.87 188.76 117.11 188.13 116.25 188.22 C 115.39 188.30 114.77 189.07 114.85 189.92 Z M 114.96 191.09 L 115.05 192.11 C 115.13 192.97 115.88 193.61 116.74 193.53 C 117.60 193.46 118.24 192.70 118.16 191.84 L 118.07 190.82 C 118.00 189.96 117.24 189.32 116.38 189.40 C 115.53 189.47 114.89 190.23 114.96 191.09 Z M 115.05 192.09 L 115.11 193.00 C 115.17 193.86 115.92 194.51 116.78 194.45 C 117.64 194.39 118.29 193.64 118.23 192.78 L 118.16 191.87 C 118.10 191.01 117.36 190.36 116.50 190.42 C 115.64 190.48 114.99 191.23 115.05 192.09 Z M 115.11 192.97 L 115.15 193.84 C 115.20 194.70 115.93 195.37 116.79 195.32 C 117.65 195.28 118.32 194.55 118.27 193.69 L 118.23 192.82 C 118.19 191.95 117.45 191.29 116.59 191.33 C 115.73 191.38 115.07 192.11 115.11 192.97 Z M 115.15 193.81 L 115.18 194.80 C 115.21 195.66 115.93 196.34 116.79 196.32 C 117.65 196.29 118.33 195.57 118.30 194.71 L 118.27 193.72 C 118.25 192.86 117.53 192.18 116.67 192.20 C 115.81 192.23 115.13 192.95 115.15 193.81 Z M 115.18 194.78 L 115.20 195.79 C 115.21 196.65 115.92 197.34 116.78 197.33 C 117.64 197.32 118.33 196.61 118.32 195.75 L 118.30 194.74 C 118.29 193.87 117.58 193.18 116.72 193.20 C 115.86 193.21 115.17 193.92 115.18 194.78 Z M 115.20 195.78 L 115.20 196.78 C 115.20 197.64 115.90 198.33 116.77 198.33 C 117.63 198.33 118.32 197.63 118.32 196.76 L 118.32 195.76 C 118.31 194.90 117.61 194.21 116.75 194.21 C 115.89 194.21 115.19 194.92 115.20 195.78 Z M 115.20 196.77 L 115.20 197.72 C 115.20 198.58 115.90 199.28 116.76 199.28 C 117.62 199.28 118.32 198.58 118.32 197.72 L 118.32 196.77 C 118.32 195.91 117.62 195.21 116.76 195.21 C 115.90 195.21 115.20 195.91 115.20 196.77 Z M 115.20 197.72 L 115.20 198.64 C 115.20 199.50 115.90 200.20 116.76 200.20 C 117.62 200.20 118.32 199.50 118.32 198.64 L 118.32 197.72 C 118.32 196.86 117.62 196.16 116.76 196.16 C 115.90 196.16 115.20 196.86 115.20 197.72 Z M 115.20 198.64 L 115.20 199.60 C 115.20 200.47 115.90 201.17 116.76 201.17 C 117.62 201.17 118.32 200.47 118.32 199.60 L 118.32 198.64 C 118.32 197.77 117.62 197.08 116.76 197.08 C 115.90 197.08 115.20 197.77 115.20 198.64 Z M 115.20 199.60 L 115.20 200.70 C 115.20 201.56 115.90 202.26 116.76 202.26 C 117.62 202.26 118.32 201.56 118.32 200.70 L 118.32 199.60 C 118.32 198.74 117.62 198.04 116.76 198.04 C 115.90 198.04 115.20 198.74 115.20 199.60 Z M 115.20 200.70 L 115.20 201.70 C 115.20 202.56 115.90 203.26 116.76 203.26 C 117.62 203.26 118.32 202.56 118.32 201.70 L 118.32 200.70 C 118.32 199.84 117.62 199.14 116.76 199.14 C 115.90 199.14 115.20 199.83 115.20 200.70 Z M 115.20 201.69 L 115.20 202.69 C 115.19 203.55 115.89 204.25 116.75 204.25 C 117.62 204.25 118.32 203.56 118.32 202.69 L 118.32 201.70 C 118.32 200.84 117.63 200.14 116.76 200.14 C 115.90 200.13 115.20 200.83 115.20 201.69 Z M 115.20 202.68 L 115.19 203.72 C 115.18 204.58 115.88 205.28 116.74 205.29 C 117.60 205.29 118.30 204.60 118.31 203.74 L 118.32 202.70 C 118.33 201.84 117.63 201.14 116.77 201.13 C 115.91 201.12 115.20 201.82 115.20 202.68 Z M 115.19 203.70 L 115.17 204.74 C 115.16 205.60 115.85 206.31 116.71 206.33 C 117.57 206.34 118.28 205.65 118.30 204.79 L 118.31 203.75 C 118.32 202.89 117.64 202.18 116.77 202.17 C 115.91 202.15 115.20 202.84 115.19 203.70 Z M 115.17 204.72 L 115.15 205.73 C 115.12 206.59 115.80 207.30 116.66 207.33 C 117.53 207.35 118.24 206.67 118.27 205.81 L 118.29 204.81 C 118.32 203.95 117.64 203.23 116.78 203.21 C 115.91 203.18 115.20 203.86 115.17 204.72 Z M 115.15 205.70 L 115.09 206.95 C 115.06 207.81 115.72 208.54 116.59 208.58 C 117.45 208.62 118.18 207.95 118.21 207.09 L 118.27 205.84 C 118.30 204.97 117.64 204.25 116.77 204.21 C 115.91 204.17 115.18 204.84 115.15 205.70 Z M 115.09 207.03 L 115.10 208.16 C 115.10 209.02 115.80 209.72 116.66 209.72 C 117.53 209.71 118.22 209.01 118.22 208.15 L 118.21 207.01 C 118.21 206.15 117.51 205.45 116.65 205.46 C 115.78 205.46 115.09 206.16 115.09 207.03 Z M 115.18 208.65 L 115.41 209.34 C 115.68 210.15 116.56 210.59 117.38 210.32 C 118.20 210.05 118.64 209.16 118.37 208.35 L 118.14 207.66 C 117.86 206.84 116.98 206.40 116.16 206.67 C 115.34 206.95 114.90 207.83 115.18 208.65 Z M 116.55 210.37 L 117.10 210.49 C 117.94 210.67 118.77 210.14 118.96 209.30 C 119.15 208.46 118.61 207.62 117.77 207.44 L 117.22 207.32 C 116.38 207.13 115.55 207.66 115.36 208.50 C 115.18 209.35 115.71 210.18 116.55 210.37 Z M 117.99 210.42 L 118.78 210.12 C 119.59 209.82 119.99 208.92 119.69 208.11 C 119.38 207.30 118.48 206.90 117.68 207.20 L 116.88 207.50 C 116.08 207.81 115.67 208.71 115.98 209.51 C 116.28 210.32 117.18 210.73 117.99 210.42 Z M 118.99 210.02 L 119.95 209.49 C 120.70 209.07 120.97 208.12 120.54 207.37 C 120.12 206.61 119.17 206.34 118.42 206.77 L 117.47 207.30 C 116.71 207.72 116.44 208.67 116.87 209.43 C 117.29 210.18 118.24 210.45 118.99 210.02 Z M 120.00 209.46 L 121.00 208.85 C 121.73 208.40 121.96 207.44 121.51 206.70 C 121.06 205.97 120.10 205.74 119.36 206.19 L 118.37 206.80 C 117.63 207.25 117.40 208.21 117.85 208.94 C 118.30 209.68 119.26 209.91 120.00 209.46 Z M 120.96 208.87 L 121.93 208.31 C 122.68 207.88 122.94 206.92 122.51 206.18 C 122.07 205.43 121.12 205.17 120.37 205.60 L 119.40 206.17 C 118.65 206.60 118.40 207.55 118.83 208.30 C 119.26 209.04 120.21 209.30 120.96 208.87 Z M 121.85 208.35 L 122.75 207.91 C 123.53 207.52 123.84 206.59 123.46 205.81 C 123.08 205.04 122.14 204.73 121.37 205.11 L 120.46 205.56 C 119.69 205.94 119.37 206.88 119.75 207.65 C 120.14 208.42 121.07 208.74 121.85 208.35 Z M 122.65 207.95 L 123.52 207.60 C 124.32 207.27 124.71 206.36 124.38 205.56 C 124.06 204.76 123.15 204.38 122.35 204.70 L 121.47 205.06 C 120.67 205.38 120.29 206.30 120.61 207.09 C 120.94 207.89 121.85 208.28 122.65 207.95 Z M 123.42 207.63 L 124.32 207.34 C 125.14 207.07 125.58 206.19 125.31 205.37 C 125.04 204.55 124.16 204.11 123.34 204.37 L 122.45 204.67 C 121.63 204.94 121.18 205.82 121.45 206.64 C 121.72 207.46 122.60 207.90 123.42 207.63 Z M 124.24 207.37 L 125.14 207.12 C 125.97 206.90 126.47 206.04 126.24 205.21 C 126.02 204.37 125.16 203.88 124.33 204.11 L 123.42 204.35 C 122.59 204.58 122.10 205.43 122.32 206.26 C 122.55 207.10 123.40 207.59 124.24 207.37 Z M 125.07 207.14 L 126.04 206.93 C 126.88 206.74 127.41 205.91 127.22 205.06 C 127.04 204.22 126.20 203.69 125.36 203.88 L 124.40 204.09 C 123.55 204.28 123.02 205.11 123.21 205.95 C 123.39 206.79 124.23 207.32 125.07 207.14 Z M 125.97 206.94 L 126.99 206.76 C 127.84 206.61 128.41 205.80 128.26 204.95 C 128.11 204.10 127.30 203.53 126.46 203.68 L 125.43 203.86 C 124.58 204.01 124.01 204.82 124.16 205.67 C 124.31 206.52 125.12 207.09 125.97 206.94 Z M 126.93 206.77 L 127.94 206.63 C 128.80 206.52 129.40 205.73 129.28 204.88 C 129.17 204.02 128.38 203.42 127.53 203.54 L 126.52 203.67 C 125.66 203.79 125.06 204.57 125.18 205.43 C 125.29 206.28 126.08 206.88 126.93 206.77 Z M 127.89 206.64 L 128.83 206.54 C 129.69 206.46 130.31 205.69 130.23 204.83 C 130.14 203.98 129.37 203.35 128.52 203.44 L 127.58 203.53 C 126.72 203.62 126.09 204.38 126.18 205.24 C 126.27 206.10 127.03 206.72 127.89 206.64 Z M 128.79 206.55 L 129.77 206.47 C 130.63 206.41 131.28 205.66 131.21 204.80 C 131.15 203.94 130.40 203.30 129.54 203.36 L 128.56 203.43 C 127.70 203.50 127.05 204.25 127.12 205.11 C 127.18 205.97 127.93 206.61 128.79 206.55 Z M 129.74 206.48 L 130.76 206.42 C 131.62 206.38 132.28 205.64 132.24 204.78 C 132.19 203.92 131.45 203.26 130.59 203.30 L 129.57 203.36 C 128.71 203.40 128.05 204.14 128.10 205.00 C 128.14 205.86 128.88 206.52 129.74 206.48 Z M 130.73 206.42 L 131.80 206.38 C 132.66 206.35 133.33 205.63 133.30 204.77 C 133.27 203.91 132.55 203.23 131.69 203.26 L 130.62 203.30 C 129.76 203.33 129.09 204.06 129.12 204.92 C 129.15 205.78 129.87 206.45 130.73 206.42 Z M 131.78 206.39 L 132.81 206.36 C 133.68 206.34 134.36 205.63 134.34 204.77 C 134.32 203.90 133.60 203.22 132.74 203.24 L 131.71 203.26 C 130.84 203.28 130.16 204.00 130.18 204.86 C 130.20 205.72 130.92 206.40 131.78 206.39 Z M 132.80 206.36 L 133.84 206.35 C 134.70 206.34 135.39 205.63 135.38 204.77 C 135.37 203.91 134.66 203.22 133.80 203.23 L 132.76 203.24 C 131.90 203.25 131.21 203.96 131.22 204.82 C 131.23 205.68 131.94 206.37 132.80 206.36 Z M 133.82 206.35 L 134.85 206.34 C 135.72 206.34 136.41 205.64 136.41 204.78 C 136.40 203.91 135.70 203.22 134.84 203.22 L 133.81 203.23 C 132.95 203.23 132.25 203.93 132.26 204.79 C 132.26 205.66 132.96 206.35 133.82 206.35 Z M 134.84 206.34 L 135.83 206.35 C 136.69 206.35 137.39 205.65 137.40 204.79 C 137.40 203.93 136.70 203.23 135.84 203.23 L 134.85 203.22 C 133.99 203.22 133.29 203.92 133.29 204.78 C 133.28 205.64 133.98 206.34 134.84 206.34 Z M 135.82 206.35 L 136.74 206.36 C 137.61 206.37 138.31 205.68 138.32 204.81 C 138.33 203.95 137.64 203.25 136.78 203.24 L 135.85 203.23 C 134.99 203.22 134.29 203.91 134.28 204.77 C 134.27 205.63 134.96 206.34 135.82 206.35 Z M 136.73 206.36 L 137.64 206.38 C 138.51 206.40 139.22 205.71 139.24 204.85 C 139.26 203.99 138.57 203.27 137.71 203.26 L 136.79 203.24 C 135.93 203.22 135.22 203.90 135.20 204.76 C 135.18 205.63 135.87 206.34 136.73 206.36 Z M 137.61 206.38 L 138.50 206.41 C 139.36 206.45 140.09 205.78 140.13 204.92 C 140.16 204.06 139.49 203.33 138.63 203.29 L 137.74 203.26 C 136.88 203.22 136.15 203.89 136.12 204.75 C 136.08 205.61 136.75 206.34 137.61 206.38 Z M 138.46 206.41 L 139.40 206.48 C 140.26 206.54 141.01 205.89 141.07 205.03 C 141.13 204.17 140.48 203.42 139.62 203.36 L 138.68 203.30 C 137.82 203.24 137.07 203.88 137.01 204.74 C 136.95 205.60 137.60 206.35 138.46 206.41 Z M 139.36 206.47 L 140.45 206.58 C 141.31 206.66 142.07 206.04 142.16 205.18 C 142.24 204.32 141.61 203.56 140.75 203.47 L 139.67 203.37 C 138.81 203.28 138.04 203.91 137.96 204.77 C 137.88 205.62 138.50 206.39 139.36 206.47 Z M 140.42 206.58 L 141.48 206.70 C 142.34 206.81 143.11 206.20 143.22 205.34 C 143.32 204.48 142.71 203.71 141.85 203.60 L 140.79 203.48 C 139.93 203.37 139.15 203.99 139.05 204.84 C 138.95 205.70 139.56 206.47 140.42 206.58 Z M 141.46 206.70 L 142.36 206.82 C 143.21 206.93 144.00 206.33 144.11 205.47 C 144.22 204.62 143.62 203.84 142.76 203.72 L 141.87 203.61 C 141.01 203.49 140.23 204.10 140.12 204.95 C 140.01 205.81 140.61 206.59 141.46 206.70 Z M 142.35 206.82 L 143.31 206.95 C 144.17 207.07 144.95 206.47 145.07 205.62 C 145.19 204.76 144.59 203.98 143.74 203.86 L 142.77 203.72 C 141.92 203.61 141.13 204.20 141.01 205.06 C 140.90 205.91 141.49 206.70 142.35 206.82 Z M 143.30 206.95 L 144.32 207.09 C 145.17 207.22 145.96 206.62 146.08 205.77 C 146.21 204.91 145.61 204.12 144.76 204.00 L 143.74 203.86 C 142.89 203.74 142.10 204.33 141.98 205.18 C 141.86 206.04 142.45 206.83 143.30 206.95 Z M 144.31 207.09 L 145.36 207.24 C 146.21 207.37 147.00 206.78 147.13 205.92 C 147.25 205.07 146.66 204.28 145.81 204.16 L 144.76 204.00 C 143.91 203.88 143.12 204.47 142.99 205.32 C 142.87 206.18 143.46 206.97 144.31 207.09 Z M 145.35 207.24 L 146.40 207.40 C 147.26 207.52 148.05 206.93 148.18 206.08 C 148.30 205.23 147.71 204.44 146.86 204.31 L 145.81 204.16 C 144.96 204.03 144.16 204.62 144.04 205.47 C 143.91 206.33 144.50 207.12 145.35 207.24 Z M 146.40 207.40 L 147.44 207.55 C 148.29 207.68 149.09 207.09 149.21 206.24 C 149.34 205.38 148.75 204.59 147.90 204.46 L 146.86 204.31 C 146.01 204.18 145.21 204.77 145.09 205.63 C 144.96 206.48 145.55 207.27 146.40 207.40 Z M 147.44 207.55 L 148.45 207.70 C 149.31 207.83 150.10 207.24 150.23 206.38 C 150.35 205.53 149.76 204.74 148.91 204.61 L 147.89 204.46 C 147.04 204.34 146.25 204.93 146.12 205.78 C 146.00 206.63 146.59 207.43 147.44 207.55 Z M 148.46 207.70 L 149.64 207.87 C 150.49 208.00 151.29 207.41 151.41 206.55 C 151.53 205.70 150.94 204.91 150.09 204.78 L 148.91 204.61 C 148.05 204.49 147.26 205.08 147.14 205.93 C 147.01 206.79 147.60 207.58 148.46 207.70 Z M 149.65 207.87 L 150.74 208.03 C 151.60 208.15 152.39 207.56 152.51 206.70 C 152.63 205.85 152.04 205.06 151.18 204.94 L 150.08 204.78 C 149.23 204.66 148.44 205.26 148.32 206.11 C 148.20 206.96 148.79 207.75 149.65 207.87 Z M 150.75 208.03 L 151.77 208.17 C 152.62 208.29 153.41 207.69 153.53 206.84 C 153.64 205.98 153.05 205.19 152.19 205.08 L 151.18 204.94 C 150.32 204.82 149.53 205.42 149.42 206.27 C 149.30 207.13 149.90 207.91 150.75 208.03 Z M 151.78 208.17 L 152.72 208.29 C 153.57 208.41 154.35 207.80 154.47 206.95 C 154.58 206.09 153.97 205.31 153.12 205.20 L 152.18 205.08 C 151.33 204.97 150.54 205.57 150.43 206.42 C 150.32 207.28 150.92 208.06 151.78 208.17 Z M 152.73 208.30 L 153.59 208.40 C 154.45 208.50 155.23 207.89 155.33 207.04 C 155.43 206.18 154.82 205.40 153.97 205.30 L 153.10 205.20 C 152.25 205.09 151.47 205.70 151.37 206.56 C 151.26 207.42 151.88 208.19 152.73 208.30 Z M 153.61 208.40 L 154.47 208.49 C 155.32 208.59 156.09 207.96 156.18 207.11 C 156.28 206.25 155.66 205.48 154.80 205.39 L 153.95 205.30 C 153.09 205.21 152.32 205.83 152.23 206.68 C 152.14 207.54 152.76 208.31 153.61 208.40 Z M 154.50 208.50 L 155.51 208.58 C 156.37 208.66 157.13 208.02 157.20 207.16 C 157.28 206.30 156.64 205.55 155.78 205.47 L 154.77 205.39 C 153.91 205.31 153.15 205.95 153.08 206.81 C 153.00 207.67 153.64 208.42 154.50 208.50 Z M 155.55 208.59 L 156.51 208.65 C 157.37 208.70 158.11 208.04 158.16 207.18 C 158.22 206.32 157.56 205.58 156.70 205.53 L 155.74 205.47 C 154.88 205.42 154.14 206.07 154.09 206.94 C 154.04 207.80 154.69 208.54 155.55 208.59 Z M 156.55 208.65 L 157.52 208.68 C 158.38 208.71 159.10 208.04 159.13 207.18 C 159.16 206.32 158.49 205.59 157.63 205.56 L 156.66 205.53 C 155.80 205.50 155.08 206.17 155.05 207.03 C 155.01 207.89 155.69 208.62 156.55 208.65 Z M 157.54 208.68 L 158.57 208.70 C 159.43 208.72 160.14 208.04 160.16 207.17 C 160.18 206.31 159.49 205.60 158.63 205.58 L 157.60 205.56 C 156.74 205.54 156.03 206.23 156.01 207.09 C 155.99 207.95 156.68 208.67 157.54 208.68 Z M 158.58 208.70 L 159.47 208.71 C 160.33 208.72 161.04 208.03 161.05 207.17 C 161.06 206.31 160.37 205.60 159.51 205.59 L 158.62 205.58 C 157.75 205.57 157.05 206.26 157.04 207.13 C 157.03 207.99 157.72 208.69 158.58 208.70 Z M 159.48 208.71 L 160.44 208.72 C 161.30 208.72 162.01 208.03 162.01 207.17 C 162.02 206.30 161.32 205.60 160.46 205.60 L 159.50 205.59 C 158.64 205.59 157.93 206.28 157.93 207.14 C 157.92 208.01 158.62 208.71 159.48 208.71 Z M 160.45 208.72 L 161.46 208.72 C 162.32 208.72 163.02 208.02 163.02 207.16 C 163.02 206.30 162.33 205.60 161.46 205.60 L 160.45 205.60 C 159.59 205.60 158.89 206.29 158.89 207.16 C 158.89 208.02 159.59 208.72 160.45 208.72 Z M 161.47 208.72 L 162.52 208.71 C 163.38 208.71 164.08 208.01 164.07 207.15 C 164.07 206.28 163.37 205.59 162.51 205.59 L 161.46 205.60 C 160.59 205.60 159.90 206.30 159.90 207.16 C 159.90 208.03 160.61 208.72 161.47 208.72 Z M 162.53 208.71 L 163.60 208.71 C 164.46 208.70 165.16 207.99 165.15 207.13 C 165.14 206.27 164.44 205.58 163.58 205.58 L 162.50 205.59 C 161.64 205.60 160.95 206.30 160.95 207.17 C 160.96 208.03 161.66 208.72 162.53 208.71 Z M 163.61 208.71 L 164.62 208.69 C 165.49 208.68 166.18 207.97 166.16 207.11 C 166.15 206.25 165.45 205.56 164.58 205.57 L 163.57 205.58 C 162.71 205.59 162.02 206.30 162.03 207.16 C 162.04 208.03 162.75 208.72 163.61 208.71 Z M 164.63 208.69 L 165.63 208.67 C 166.49 208.66 167.18 207.94 167.16 207.08 C 167.14 206.22 166.43 205.54 165.57 205.55 L 164.57 205.57 C 163.71 205.59 163.03 206.30 163.04 207.16 C 163.06 208.02 163.77 208.71 164.63 208.69 Z M 165.64 208.67 L 166.64 208.64 C 167.50 208.62 168.18 207.90 168.16 207.04 C 168.13 206.18 167.41 205.50 166.55 205.52 L 165.55 205.55 C 164.69 205.58 164.01 206.30 164.04 207.16 C 164.06 208.02 164.78 208.70 165.64 208.67 Z M 166.66 208.64 L 167.66 208.60 C 168.52 208.57 169.19 207.84 169.16 206.98 C 169.12 206.11 168.39 205.45 167.53 205.48 L 166.53 205.52 C 165.67 205.56 165.00 206.29 165.04 207.15 C 165.07 208.01 165.80 208.68 166.66 208.64 Z M 167.69 208.60 L 168.69 208.54 C 169.55 208.49 170.21 207.75 170.16 206.89 C 170.11 206.03 169.37 205.37 168.51 205.42 L 167.51 205.48 C 166.65 205.53 165.99 206.27 166.04 207.13 C 166.09 207.99 166.83 208.65 167.69 208.60 Z M 168.72 208.54 L 169.72 208.46 C 170.58 208.39 171.23 207.64 171.16 206.78 C 171.09 205.92 170.34 205.28 169.48 205.35 L 168.48 205.43 C 167.62 205.49 166.98 206.25 167.04 207.11 C 167.11 207.96 167.86 208.61 168.72 208.54 Z M 169.76 208.46 L 170.76 208.36 C 171.62 208.27 172.25 207.50 172.16 206.65 C 172.07 205.79 171.31 205.16 170.45 205.25 L 169.44 205.35 C 168.59 205.44 167.96 206.20 168.05 207.06 C 168.14 207.92 168.90 208.54 169.76 208.46 Z M 170.80 208.35 L 171.80 208.23 C 172.66 208.12 173.26 207.34 173.16 206.48 C 173.05 205.63 172.27 205.02 171.41 205.13 L 170.41 205.25 C 169.56 205.36 168.95 206.14 169.06 207.00 C 169.16 207.85 169.94 208.46 170.80 208.35 Z M 171.84 208.22 L 172.83 208.07 C 173.69 207.94 174.27 207.15 174.14 206.29 C 174.02 205.44 173.22 204.85 172.37 204.98 L 171.37 205.13 C 170.52 205.26 169.93 206.06 170.06 206.91 C 170.19 207.76 170.99 208.35 171.84 208.22 Z M 172.88 208.06 L 173.86 207.89 C 174.71 207.74 175.27 206.92 175.12 206.08 C 174.97 205.23 174.16 204.66 173.31 204.81 L 172.33 204.99 C 171.48 205.14 170.91 205.95 171.06 206.80 C 171.22 207.65 172.03 208.22 172.88 208.06 Z M 173.90 207.88 L 174.88 207.68 C 175.72 207.50 176.26 206.67 176.09 205.83 C 175.91 204.99 175.08 204.44 174.24 204.62 L 173.27 204.82 C 172.42 205.00 171.88 205.83 172.06 206.67 C 172.23 207.51 173.06 208.06 173.90 207.88 Z M 174.92 207.67 L 175.89 207.43 C 176.73 207.23 177.25 206.39 177.04 205.55 C 176.84 204.71 176.00 204.20 175.16 204.40 L 174.19 204.63 C 173.35 204.83 172.84 205.68 173.04 206.51 C 173.24 207.35 174.08 207.87 174.92 207.67 Z M 175.94 207.42 L 176.99 207.13 C 177.83 206.90 178.31 206.04 178.08 205.21 C 177.85 204.38 176.99 203.89 176.16 204.12 L 175.11 204.41 C 174.28 204.64 173.79 205.50 174.02 206.33 C 174.25 207.16 175.11 207.65 175.94 207.42 Z M 177.05 207.11 L 178.06 206.79 C 178.88 206.54 179.34 205.66 179.08 204.84 C 178.82 204.01 177.94 203.56 177.12 203.82 L 176.11 204.14 C 175.29 204.39 174.83 205.27 175.09 206.09 C 175.35 206.92 176.23 207.37 177.05 207.11 Z M 178.11 206.78 L 179.07 206.44 C 179.88 206.15 180.30 205.26 180.01 204.44 C 179.72 203.63 178.83 203.21 178.02 203.50 L 177.07 203.83 C 176.25 204.12 175.83 205.02 176.12 205.83 C 176.41 206.64 177.30 207.07 178.11 206.78 Z M 179.12 206.42 L 180.01 206.06 C 180.81 205.74 181.20 204.83 180.88 204.03 C 180.56 203.23 179.65 202.84 178.85 203.16 L 177.96 203.52 C 177.16 203.84 176.77 204.75 177.09 205.55 C 177.41 206.35 178.32 206.74 179.12 206.42 Z M 180.07 206.04 L 180.87 205.68 C 181.65 205.32 182.00 204.40 181.65 203.61 C 181.29 202.83 180.37 202.48 179.58 202.83 L 178.78 203.19 C 178.00 203.54 177.65 204.47 178.00 205.26 C 178.36 206.04 179.28 206.39 180.07 206.04 Z M 180.98 205.62 L 182.01 205.05 C 182.77 204.63 183.04 203.69 182.63 202.93 C 182.21 202.17 181.26 201.90 180.51 202.32 L 179.47 202.89 C 178.72 203.30 178.44 204.25 178.86 205.01 C 179.27 205.76 180.22 206.04 180.98 205.62 Z M 182.27 204.87 L 183.02 204.24 C 183.67 203.68 183.76 202.70 183.20 202.04 C 182.64 201.38 181.66 201.30 181.00 201.86 L 180.25 202.49 C 179.59 203.05 179.51 204.03 180.07 204.69 C 180.63 205.35 181.61 205.43 182.27 204.87 Z M 183.39 203.78 L 183.79 203.03 C 184.19 202.27 183.90 201.32 183.14 200.92 C 182.38 200.51 181.43 200.80 181.03 201.57 L 180.63 202.32 C 180.23 203.08 180.51 204.02 181.28 204.43 C 182.04 204.83 182.98 204.54 183.39 203.78 Z M 183.97 202.34 L 183.99 201.53 C 184.02 200.67 183.34 199.95 182.48 199.92 C 181.62 199.90 180.90 200.57 180.87 201.44 L 180.85 202.25 C 180.82 203.11 181.50 203.83 182.36 203.86 C 183.22 203.88 183.94 203.21 183.97 202.34 Z M 183.94 201.09 L 183.71 200.20 C 183.50 199.37 182.65 198.86 181.81 199.08 C 180.98 199.29 180.47 200.15 180.69 200.98 L 180.92 201.87 C 181.13 202.71 181.99 203.21 182.82 202.99 C 183.66 202.78 184.16 201.93 183.94 201.09 Z M 183.65 200.00 L 183.25 199.03 C 182.92 198.23 182.01 197.85 181.21 198.18 C 180.41 198.50 180.03 199.42 180.36 200.21 L 180.76 201.18 C 181.08 201.98 182.00 202.36 182.79 202.04 C 183.59 201.71 183.97 200.80 183.65 200.00 Z M 183.21 198.94 L 182.72 197.93 C 182.34 197.15 181.41 196.83 180.63 197.20 C 179.86 197.58 179.53 198.51 179.91 199.29 L 180.40 200.30 C 180.77 201.08 181.71 201.40 182.48 201.03 C 183.26 200.65 183.58 199.72 183.21 198.94 Z M 182.71 197.91 L 182.61 197.71 C 182.22 196.94 181.29 196.63 180.52 197.01 C 179.74 197.40 179.43 198.33 179.82 199.11 L 179.92 199.30 C 180.30 200.08 181.24 200.39 182.01 200.00 C 182.78 199.62 183.10 198.68 182.71 197.91 Z"
      fill="black"
      fill-rule="nonzero" /><path d="M 152.44 44.97 L 151.51 44.11 C 150.88 43.52 149.89 43.55 149.31 44.18 C 148.72 44.81 148.75 45.80 149.38 46.39 L 150.31 47.25 C 150.94 47.84 151.93 47.81 152.52 47.18 C 153.10 46.55 153.07 45.56 152.44 44.97 Z M 151.49 44.08 L 150.60 43.29 C 149.96 42.72 148.97 42.78 148.40 43.42 C 147.82 44.06 147.88 45.05 148.52 45.62 L 149.41 46.41 C 150.05 46.99 151.04 46.93 151.61 46.29 C 152.19 45.64 152.13 44.65 151.49 44.08 Z M 150.53 43.24 L 149.73 42.60 C 149.05 42.06 148.07 42.18 147.54 42.85 C 147.00 43.53 147.11 44.51 147.79 45.05 L 148.59 45.68 C 149.27 46.22 150.25 46.10 150.79 45.43 C 151.32 44.75 151.21 43.77 150.53 43.24 Z M 149.56 42.48 L 148.89 42.08 C 148.15 41.63 147.19 41.87 146.74 42.61 C 146.30 43.35 146.54 44.31 147.28 44.75 L 147.95 45.16 C 148.69 45.60 149.65 45.37 150.10 44.63 C 150.54 43.89 150.30 42.93 149.56 42.48 Z M 148.30 41.87 L 147.70 41.78 C 146.84 41.66 146.05 42.26 145.93 43.11 C 145.81 43.96 146.41 44.75 147.26 44.87 L 147.86 44.96 C 148.72 45.08 149.51 44.49 149.63 43.63 C 149.75 42.78 149.15 41.99 148.30 41.87 Z M 146.21 42.41 L 145.78 43.02 C 145.27 43.71 145.43 44.69 146.13 45.20 C 146.82 45.70 147.80 45.55 148.31 44.85 L 148.74 44.24 C 149.25 43.55 149.09 42.57 148.39 42.06 C 147.70 41.56 146.72 41.71 146.21 42.41 Z M 145.49 43.74 L 145.35 44.83 C 145.25 45.69 145.85 46.47 146.71 46.58 C 147.56 46.69 148.34 46.08 148.45 45.22 L 148.59 44.13 C 148.70 43.27 148.09 42.49 147.24 42.38 C 146.38 42.27 145.60 42.88 145.49 43.74 Z M 145.34 44.99 L 145.32 46.11 C 145.30 46.97 145.98 47.68 146.84 47.70 C 147.70 47.72 148.42 47.04 148.44 46.18 L 148.46 45.06 C 148.48 44.20 147.80 43.49 146.94 43.47 C 146.08 43.45 145.36 44.13 145.34 44.99 Z M 145.32 46.13 L 145.31 47.12 C 145.30 47.98 145.99 48.69 146.85 48.70 C 147.72 48.70 148.42 48.01 148.43 47.15 L 148.44 46.16 C 148.45 45.30 147.76 44.59 146.89 44.58 C 146.03 44.57 145.33 45.27 145.32 46.13 Z M 145.31 47.13 L 145.30 48.12 C 145.30 48.98 146.00 49.68 146.86 49.68 C 147.72 49.69 148.42 48.99 148.43 48.13 L 148.43 47.14 C 148.43 46.28 147.74 45.58 146.87 45.57 C 146.01 45.57 145.31 46.27 145.31 47.13 Z M 145.30 48.12 L 145.30 49.11 C 145.30 49.97 146.00 50.67 146.86 50.67 C 147.73 50.67 148.43 49.97 148.43 49.11 L 148.43 48.12 C 148.43 47.26 147.73 46.56 146.87 46.56 C 146.00 46.56 145.30 47.26 145.30 48.12 Z M 145.30 49.11 L 145.30 50.04 C 145.30 50.90 146.00 51.60 146.87 51.60 C 147.73 51.60 148.43 50.90 148.43 50.04 L 148.43 49.11 C 148.43 48.25 147.73 47.55 146.87 47.55 C 146.00 47.55 145.30 48.25 145.30 49.11 Z M 145.30 50.04 L 145.30 51.03 C 145.30 51.89 146.00 52.59 146.87 52.59 C 147.73 52.59 148.43 51.89 148.43 51.03 L 148.43 50.04 C 148.43 49.18 147.73 48.48 146.87 48.48 C 146.00 48.48 145.30 49.18 145.30 50.04 Z M 145.30 51.03 L 145.30 52.08 C 145.30 52.94 146.00 53.64 146.87 53.64 C 147.73 53.64 148.43 52.94 148.43 52.08 L 148.43 51.03 C 148.43 50.17 147.73 49.47 146.87 49.47 C 146.00 49.47 145.30 50.17 145.30 51.03 Z M 145.30 52.08 L 145.30 53.09 C 145.30 53.95 146.00 54.65 146.87 54.65 C 147.73 54.65 148.43 53.95 148.43 53.09 L 148.43 52.08 C 148.43 51.22 147.73 50.52 146.87 50.52 C 146.00 50.52 145.30 51.22 145.30 52.08 Z M 145.30 53.09 L 145.30 54.02 C 145.30 54.88 146.00 55.58 146.87 55.58 C 147.73 55.58 148.43 54.88 148.43 54.02 L 148.43 53.09 C 148.43 52.22 147.73 51.52 146.87 51.52 C 146.00 51.52 145.30 52.22 145.30 53.09 Z M 145.30 54.02 L 145.30 55.00 C 145.30 55.86 146.00 56.56 146.87 56.56 C 147.73 56.56 148.43 55.86 148.43 55.00 L 148.43 54.02 C 148.43 53.16 147.73 52.46 146.87 52.46 C 146.00 52.46 145.30 53.16 145.30 54.02 Z M 145.30 55.00 L 145.30 56.03 C 145.30 56.89 146.00 57.59 146.87 57.59 C 147.73 57.59 148.43 56.89 148.43 56.03 L 148.43 55.00 C 148.43 54.14 147.73 53.44 146.87 53.44 C 146.00 53.44 145.30 54.14 145.30 55.00 Z M 145.30 56.03 L 145.30 57.10 C 145.30 57.96 146.00 58.66 146.87 58.66 C 147.73 58.66 148.43 57.96 148.43 57.10 L 148.43 56.03 C 148.43 55.17 147.73 54.47 146.87 54.47 C 146.00 54.47 145.30 55.17 145.30 56.03 Z M 145.30 57.10 L 145.30 58.08 C 145.30 58.94 146.00 59.64 146.87 59.64 C 147.73 59.64 148.43 58.94 148.43 58.08 L 148.43 57.10 C 148.43 56.24 147.73 55.54 146.87 55.54 C 146.00 55.54 145.30 56.24 145.30 57.10 Z M 145.30 58.08 L 145.30 59.04 C 145.31 59.90 146.00 60.60 146.87 60.60 C 147.73 60.60 148.43 59.90 148.43 59.03 L 148.43 58.08 C 148.43 57.22 147.73 56.52 146.86 56.52 C 146.00 56.52 145.30 57.22 145.30 58.08 Z M 145.30 59.04 L 145.31 60.02 C 145.31 60.88 146.01 61.58 146.87 61.58 C 147.73 61.58 148.43 60.88 148.43 60.01 L 148.43 59.03 C 148.43 58.17 147.73 57.47 146.86 57.47 C 146.00 57.47 145.30 58.18 145.30 59.04 Z M 145.31 60.02 L 145.31 61.03 C 145.31 61.89 146.01 62.59 146.88 62.59 C 147.74 62.59 148.44 61.88 148.43 61.02 L 148.43 60.01 C 148.43 59.15 147.72 58.45 146.86 58.46 C 146.00 58.46 145.30 59.16 145.31 60.02 Z M 145.31 61.04 L 145.32 62.07 C 145.32 62.94 146.02 63.63 146.89 63.62 C 147.75 63.62 148.44 62.92 148.44 62.05 L 148.43 61.02 C 148.43 60.16 147.72 59.46 146.86 59.47 C 146.00 59.47 145.30 60.17 145.31 61.04 Z M 145.32 62.08 L 145.33 63.14 C 145.33 64.00 146.04 64.69 146.90 64.69 C 147.76 64.68 148.45 63.97 148.45 63.11 L 148.44 62.05 C 148.43 61.19 147.73 60.50 146.86 60.50 C 146.00 60.51 145.31 61.22 145.32 62.08 Z M 145.32 63.14 L 145.34 64.09 C 145.35 64.95 146.05 65.64 146.92 65.63 C 147.78 65.62 148.47 64.92 148.46 64.05 L 148.45 63.11 C 148.44 62.24 147.73 61.55 146.87 61.56 C 146.01 61.57 145.31 62.28 145.32 63.14 Z M 145.33 64.09 L 145.35 65.05 C 145.36 65.91 146.07 66.60 146.93 66.59 C 147.80 66.57 148.49 65.86 148.47 65.00 L 148.46 64.05 C 148.45 63.19 147.74 62.50 146.88 62.51 C 146.01 62.52 145.32 63.23 145.33 64.09 Z M 145.35 65.05 L 145.36 66.02 C 145.38 66.88 146.09 67.57 146.95 67.56 C 147.81 67.55 148.50 66.83 148.49 65.97 L 148.47 65.00 C 148.46 64.13 147.75 63.45 146.89 63.46 C 146.02 63.47 145.33 64.18 145.35 65.05 Z M 145.36 66.02 L 145.38 67.02 C 145.39 67.88 146.11 68.57 146.97 68.56 C 147.83 68.54 148.52 67.83 148.51 66.97 L 148.49 65.97 C 148.48 65.10 147.76 64.42 146.90 64.43 C 146.04 64.45 145.35 65.16 145.36 66.02 Z M 145.38 67.02 L 145.40 68.04 C 145.41 68.91 146.13 69.60 146.99 69.58 C 147.86 69.57 148.54 68.85 148.53 67.99 L 148.51 66.96 C 148.49 66.10 147.78 65.41 146.92 65.43 C 146.05 65.44 145.36 66.16 145.38 67.02 Z M 145.40 68.04 L 145.41 69.09 C 145.43 69.96 146.14 70.65 147.01 70.63 C 147.88 70.62 148.56 69.90 148.55 69.04 L 148.53 67.99 C 148.51 67.12 147.80 66.43 146.93 66.45 C 146.07 66.46 145.38 67.18 145.40 68.04 Z M 145.41 69.09 L 145.43 70.15 C 145.45 71.01 146.16 71.70 147.03 71.69 C 147.89 71.67 148.58 70.96 148.57 70.09 L 148.55 69.04 C 148.53 68.17 147.82 67.48 146.95 67.50 C 146.09 67.51 145.40 68.23 145.41 69.09 Z M 145.43 70.15 L 145.45 71.08 C 145.46 71.95 146.18 72.63 147.05 72.62 C 147.91 72.60 148.60 71.89 148.59 71.02 L 148.57 70.09 C 148.55 69.22 147.84 68.53 146.97 68.55 C 146.11 68.56 145.42 69.28 145.43 70.15 Z M 145.45 71.08 L 145.46 72.03 C 145.48 72.90 146.19 73.59 147.06 73.57 C 147.93 73.56 148.62 72.84 148.60 71.98 L 148.59 71.02 C 148.57 70.16 147.86 69.47 146.99 69.48 C 146.12 69.50 145.43 70.21 145.45 71.08 Z M 145.46 72.03 L 145.48 73.01 C 145.50 73.87 146.21 74.57 147.08 74.55 C 147.95 74.53 148.64 73.82 148.62 72.95 L 148.61 71.98 C 148.59 71.11 147.87 70.42 147.01 70.43 C 146.14 70.45 145.45 71.16 145.46 72.03 Z M 145.48 73.01 L 145.50 74.00 C 145.51 74.87 146.23 75.56 147.10 75.55 C 147.97 75.53 148.66 74.81 148.64 73.95 L 148.62 72.95 C 148.61 72.08 147.89 71.39 147.02 71.41 C 146.15 71.42 145.46 72.14 145.48 73.01 Z M 145.50 74.00 L 145.52 75.02 C 145.53 75.89 146.25 76.58 147.12 76.56 C 147.99 76.55 148.68 75.83 148.66 74.96 L 148.64 73.94 C 148.63 73.07 147.91 72.38 147.04 72.40 C 146.17 72.42 145.48 73.13 145.50 74.00 Z M 145.51 75.02 L 145.53 76.05 C 145.55 76.92 146.27 77.61 147.14 77.60 C 148.01 77.58 148.70 76.86 148.68 75.99 L 148.66 74.96 C 148.65 74.09 147.93 73.40 147.06 73.41 C 146.19 73.43 145.50 74.15 145.51 75.02 Z M 145.53 76.05 L 145.56 77.11 C 145.57 77.98 146.29 78.67 147.17 78.65 C 148.04 78.63 148.73 77.91 148.71 77.04 L 148.69 75.99 C 148.67 75.12 147.95 74.43 147.08 74.45 C 146.21 74.46 145.52 75.18 145.53 76.05 Z M 145.55 77.11 L 145.58 78.16 C 145.60 79.03 146.32 79.72 147.19 79.70 C 148.06 79.68 148.75 78.96 148.73 78.09 L 148.71 77.04 C 148.69 76.17 147.97 75.48 147.10 75.50 C 146.23 75.51 145.54 76.24 145.55 77.11 Z M 145.58 78.16 L 145.60 79.12 C 145.62 79.99 146.34 80.68 147.22 80.66 C 148.09 80.64 148.78 79.92 148.76 79.05 L 148.73 78.09 C 148.71 77.21 147.99 76.53 147.12 76.55 C 146.25 76.57 145.56 77.29 145.58 78.16 Z M 145.60 79.12 L 145.62 80.10 C 145.65 80.97 146.37 81.66 147.24 81.64 C 148.11 81.62 148.80 80.89 148.78 80.02 L 148.76 79.05 C 148.74 78.17 148.01 77.48 147.14 77.51 C 146.27 77.53 145.58 78.25 145.60 79.12 Z M 145.62 80.10 L 145.65 81.08 C 145.67 81.96 146.40 82.64 147.27 82.62 C 148.14 82.60 148.83 81.88 148.81 81.00 L 148.78 80.02 C 148.76 79.15 148.04 78.46 147.16 78.48 C 146.29 78.50 145.60 79.23 145.62 80.10 Z M 145.65 81.08 L 145.67 82.08 C 145.69 82.95 146.42 83.64 147.29 83.62 C 148.17 83.60 148.86 82.87 148.83 82.00 L 148.81 81.00 C 148.79 80.13 148.06 79.44 147.19 79.46 C 146.31 79.48 145.62 80.21 145.65 81.08 Z M 145.67 82.08 L 145.70 83.08 C 145.72 83.96 146.45 84.65 147.32 84.62 C 148.19 84.60 148.88 83.87 148.86 83.00 L 148.83 82.00 C 148.81 81.12 148.09 80.43 147.21 80.46 C 146.34 80.48 145.65 81.20 145.67 82.08 Z M 145.70 83.08 L 145.72 84.09 C 145.74 84.97 146.47 85.66 147.34 85.64 C 148.22 85.61 148.91 84.89 148.89 84.01 L 148.86 83.00 C 148.84 82.13 148.11 81.44 147.24 81.46 C 146.36 81.48 145.67 82.21 145.70 83.08 Z M 145.72 84.09 L 145.75 85.11 C 145.77 85.99 146.49 86.68 147.37 86.66 C 148.24 86.64 148.93 85.91 148.91 85.03 L 148.89 84.01 C 148.87 83.14 148.14 82.45 147.27 82.47 C 146.39 82.49 145.70 83.22 145.72 84.09 Z M 145.74 85.11 L 145.77 86.14 C 145.79 87.01 146.51 87.70 147.39 87.68 C 148.27 87.66 148.96 86.94 148.94 86.06 L 148.91 85.04 C 148.89 84.16 148.17 83.47 147.29 83.49 C 146.42 83.51 145.72 84.23 145.74 85.11 Z M 145.77 86.13 L 145.79 87.16 C 145.81 88.04 146.53 88.73 147.41 88.71 C 148.29 88.69 148.98 87.97 148.96 87.09 L 148.94 86.06 C 148.92 85.19 148.19 84.49 147.32 84.51 C 146.44 84.53 145.75 85.26 145.77 86.13 Z M 145.79 87.16 L 145.81 88.14 C 145.83 89.02 146.55 89.72 147.43 89.70 C 148.30 89.68 149.00 88.96 148.98 88.08 L 148.96 87.09 C 148.94 86.22 148.22 85.52 147.34 85.54 C 146.47 85.56 145.77 86.28 145.79 87.16 Z M 145.81 88.14 L 145.83 89.13 C 145.84 90.01 146.57 90.71 147.44 90.69 C 148.32 90.67 149.02 89.95 149.00 89.07 L 148.98 88.08 C 148.97 87.21 148.24 86.51 147.37 86.52 C 146.49 86.54 145.79 87.27 145.81 88.14 Z M 145.83 89.13 L 145.84 90.12 C 145.86 91.00 146.58 91.70 147.46 91.68 C 148.34 91.67 149.04 90.95 149.02 90.07 L 149.00 89.07 C 148.99 88.20 148.26 87.50 147.39 87.51 C 146.51 87.53 145.81 88.25 145.83 89.13 Z M 145.84 90.12 L 145.86 91.12 C 145.87 92.00 146.60 92.70 147.48 92.68 C 148.35 92.67 149.05 91.94 149.04 91.07 L 149.02 90.07 C 149.01 89.19 148.28 88.49 147.41 88.51 C 146.53 88.52 145.83 89.25 145.84 90.12 Z M 145.86 91.12 L 145.88 92.12 C 145.89 93.00 146.61 93.70 147.49 93.68 C 148.37 93.67 149.07 92.95 149.05 92.07 L 149.04 91.07 C 149.02 90.19 148.30 89.49 147.42 89.50 C 146.55 89.52 145.85 90.24 145.86 91.12 Z M 145.88 92.12 L 145.89 93.12 C 145.90 94.00 146.63 94.70 147.50 94.69 C 148.38 94.67 149.08 93.95 149.07 93.07 L 149.05 92.07 C 149.04 91.19 148.32 90.49 147.44 90.50 C 146.56 90.52 145.86 91.24 145.88 92.12 Z M 145.89 93.12 L 145.90 94.13 C 145.92 95.00 146.64 95.71 147.52 95.69 C 148.40 95.68 149.10 94.96 149.08 94.08 L 149.07 93.07 C 149.06 92.20 148.33 91.49 147.46 91.51 C 146.58 91.52 145.88 92.24 145.89 93.12 Z M 145.90 94.13 L 145.92 95.13 C 145.93 96.01 146.65 96.71 147.53 96.70 C 148.41 96.69 149.11 95.97 149.10 95.09 L 149.08 94.08 C 149.07 93.20 148.35 92.50 147.47 92.51 C 146.59 92.53 145.89 93.25 145.90 94.13 Z M 145.92 95.13 L 145.93 96.14 C 145.94 97.02 146.67 97.72 147.54 97.71 C 148.42 97.70 149.13 96.98 149.11 96.10 L 149.10 95.09 C 149.09 94.21 148.37 93.51 147.49 93.52 C 146.61 93.53 145.91 94.25 145.92 95.13 Z M 145.93 96.14 L 145.94 97.14 C 145.96 98.01 146.68 98.72 147.56 98.71 C 148.44 98.69 149.14 97.97 149.13 97.09 L 149.11 96.10 C 149.10 95.22 148.38 94.52 147.50 94.53 C 146.62 94.54 145.92 95.26 145.93 96.14 Z M 145.94 97.14 L 145.96 98.11 C 145.97 98.99 146.69 99.70 147.57 99.69 C 148.45 99.67 149.15 98.95 149.14 98.07 L 149.13 97.09 C 149.12 96.21 148.39 95.51 147.51 95.52 C 146.63 95.53 145.93 96.26 145.94 97.14 Z M 145.96 98.11 L 145.97 99.10 C 145.98 99.98 146.70 100.68 147.58 100.67 C 148.47 100.66 149.17 99.93 149.16 99.05 L 149.14 98.07 C 149.13 97.19 148.41 96.49 147.53 96.50 C 146.65 96.51 145.94 97.23 145.96 98.11 Z M 145.97 99.10 L 145.98 100.08 C 145.99 100.96 146.72 101.67 147.60 101.66 C 148.48 101.64 149.18 100.92 149.17 100.04 L 149.16 99.05 C 149.15 98.17 148.42 97.47 147.54 97.48 C 146.66 97.49 145.96 98.22 145.97 99.10 Z M 145.98 100.08 L 145.99 101.07 C 146.01 101.96 146.73 102.66 147.61 102.65 C 148.49 102.64 149.20 101.91 149.19 101.03 L 149.17 100.04 C 149.16 99.16 148.44 98.45 147.55 98.47 C 146.67 98.48 145.97 99.20 145.98 100.08 Z M 145.99 101.07 L 146.01 102.07 C 146.02 102.95 146.74 103.66 147.63 103.65 C 148.51 103.63 149.21 102.91 149.20 102.03 L 149.19 101.03 C 149.17 100.15 148.45 99.44 147.57 99.46 C 146.69 99.47 145.98 100.19 145.99 101.07 Z M 146.01 102.07 L 146.02 103.08 C 146.03 103.96 146.76 104.66 147.64 104.65 C 148.52 104.64 149.23 103.91 149.21 103.03 L 149.20 102.03 C 149.19 101.15 148.46 100.44 147.58 100.45 C 146.70 100.46 145.99 101.19 146.01 102.07 Z M 146.02 103.08 L 146.03 104.09 C 146.04 104.97 146.77 105.68 147.65 105.66 C 148.53 105.65 149.24 104.93 149.23 104.04 L 149.22 103.03 C 149.20 102.15 148.48 101.44 147.60 101.46 C 146.71 101.47 146.01 102.19 146.02 103.08 Z M 146.03 104.09 L 146.04 105.11 C 146.06 105.99 146.78 106.70 147.67 106.69 C 148.55 106.67 149.26 105.95 149.24 105.06 L 149.23 104.04 C 149.22 103.16 148.49 102.45 147.61 102.47 C 146.73 102.48 146.02 103.20 146.03 104.09 Z M 146.04 105.11 L 146.06 106.14 C 146.07 107.02 146.79 107.73 147.68 107.72 C 148.56 107.71 149.27 106.98 149.26 106.09 L 149.24 105.06 C 149.23 104.18 148.51 103.47 147.62 103.48 C 146.74 103.50 146.03 104.22 146.04 105.11 Z M 146.06 106.14 L 146.07 107.14 C 146.08 108.03 146.81 108.73 147.69 108.72 C 148.58 108.71 149.28 107.98 149.27 107.10 L 149.26 106.10 C 149.25 105.21 148.52 104.50 147.64 104.51 C 146.75 104.53 146.04 105.25 146.06 106.14 Z M 146.07 107.14 L 146.08 108.14 C 146.09 109.03 146.82 109.73 147.70 109.72 C 148.59 109.71 149.30 108.98 149.29 108.10 L 149.27 107.10 C 149.26 106.21 148.54 105.51 147.65 105.52 C 146.76 105.53 146.06 106.26 146.07 107.14 Z M 146.08 108.14 L 146.09 109.15 C 146.10 110.03 146.83 110.74 147.72 110.73 C 148.60 110.72 149.31 109.99 149.30 109.11 L 149.29 108.10 C 149.28 107.21 148.55 106.51 147.66 106.52 C 146.78 106.53 146.07 107.25 146.08 108.14 Z M 146.09 109.14 L 146.10 110.15 C 146.11 111.04 146.84 111.75 147.73 111.74 C 148.61 111.73 149.32 111.00 149.31 110.12 L 149.30 109.11 C 149.29 108.22 148.56 107.51 147.68 107.52 C 146.79 107.53 146.08 108.26 146.09 109.14 Z M 146.10 110.15 L 146.11 111.16 C 146.12 112.05 146.85 112.76 147.74 112.75 C 148.62 112.74 149.34 112.01 149.32 111.13 L 149.31 110.12 C 149.30 109.23 148.58 108.52 147.69 108.53 C 146.80 108.54 146.09 109.27 146.10 110.15 Z M 146.11 111.16 L 146.12 112.17 C 146.13 113.06 146.86 113.77 147.75 113.76 C 148.64 113.75 149.35 113.02 149.34 112.14 L 149.33 111.13 C 149.32 110.24 148.59 109.53 147.70 109.54 C 146.81 109.55 146.10 110.28 146.11 111.16 Z M 146.12 112.17 L 146.13 113.18 C 146.14 114.07 146.87 114.78 147.76 114.77 C 148.65 114.76 149.36 114.03 149.35 113.15 L 149.34 112.14 C 149.33 111.25 148.60 110.54 147.71 110.55 C 146.83 110.56 146.11 111.28 146.12 112.17 Z M 146.13 113.18 L 146.14 114.18 C 146.15 115.07 146.88 115.78 147.77 115.77 C 148.65 115.76 149.37 115.04 149.36 114.15 L 149.35 113.15 C 149.34 112.26 148.61 111.55 147.73 111.55 C 146.84 111.56 146.12 112.29 146.13 113.18 Z M 146.14 114.18 L 146.15 115.17 C 146.16 116.06 146.89 116.77 147.77 116.77 C 148.66 116.76 149.38 116.03 149.37 115.14 L 149.36 114.15 C 149.35 113.26 148.63 112.55 147.74 112.55 C 146.85 112.56 146.13 113.29 146.14 114.18 Z M 146.15 115.17 L 146.16 116.15 C 146.16 117.04 146.89 117.76 147.78 117.75 C 148.67 117.74 149.38 117.02 149.38 116.13 L 149.37 115.14 C 149.36 114.26 148.64 113.54 147.75 113.55 C 146.86 113.55 146.14 114.28 146.15 115.17 Z M 146.16 116.15 L 146.16 117.16 C 146.17 118.05 146.90 118.76 147.78 118.76 C 148.67 118.75 149.39 118.03 149.38 117.14 L 149.38 116.13 C 149.37 115.24 148.65 114.52 147.76 114.53 C 146.87 114.54 146.15 115.26 146.16 116.15 Z M 146.16 117.16 L 146.17 118.20 C 146.17 119.09 146.90 119.81 147.79 119.81 C 148.68 119.80 149.40 119.08 149.39 118.19 L 149.39 117.14 C 149.38 116.25 148.65 115.53 147.77 115.54 C 146.88 115.54 146.16 116.27 146.16 117.16 Z M 146.17 118.20 L 146.17 119.23 C 146.18 120.12 146.90 120.84 147.79 120.84 C 148.68 120.83 149.40 120.11 149.40 119.22 L 149.39 118.19 C 149.39 117.30 148.66 116.58 147.77 116.58 C 146.88 116.59 146.16 117.31 146.17 118.20 Z M 146.17 119.23 L 146.18 120.25 C 146.18 121.14 146.90 121.86 147.79 121.86 C 148.68 121.85 149.40 121.13 149.40 120.24 L 149.40 119.22 C 149.39 118.33 148.67 117.61 147.78 117.61 C 146.89 117.62 146.17 118.34 146.17 119.23 Z M 146.18 120.25 L 146.18 121.25 C 146.18 122.14 146.90 122.86 147.79 122.86 C 148.68 122.86 149.40 122.14 149.40 121.25 L 149.40 120.24 C 149.40 119.35 148.67 118.63 147.78 118.63 C 146.89 118.63 146.17 119.36 146.18 120.25 Z M 146.18 121.25 L 146.18 122.25 C 146.18 123.14 146.90 123.86 147.79 123.86 C 148.68 123.85 149.41 123.13 149.40 122.24 L 149.40 121.25 C 149.40 120.36 148.68 119.64 147.79 119.64 C 146.90 119.64 146.18 120.36 146.18 121.25 Z M 146.18 122.25 L 146.18 123.23 C 146.18 124.12 146.90 124.84 147.79 124.84 C 148.69 124.84 149.41 124.12 149.41 123.23 L 149.40 122.24 C 149.40 121.35 148.68 120.63 147.79 120.63 C 146.90 120.63 146.18 121.35 146.18 122.25 Z M 146.18 123.23 L 146.18 124.20 C 146.18 125.09 146.90 125.81 147.79 125.81 C 148.69 125.81 149.41 125.09 149.41 124.20 L 149.41 123.23 C 149.41 122.34 148.68 121.61 147.79 121.61 C 146.90 121.61 146.18 122.34 146.18 123.23 Z M 146.18 124.20 L 146.18 125.17 C 146.18 126.06 146.90 126.78 147.79 126.78 C 148.68 126.78 149.41 126.06 149.41 125.17 L 149.41 124.20 C 149.41 123.31 148.68 122.59 147.79 122.59 C 146.90 122.59 146.18 123.31 146.18 124.20 Z M 146.18 125.17 L 146.18 126.13 C 146.18 127.02 146.90 127.74 147.79 127.74 C 148.68 127.74 149.41 127.02 149.41 126.13 L 149.41 125.17 C 149.41 124.28 148.68 123.55 147.79 123.55 C 146.90 123.55 146.18 124.28 146.18 125.17 Z M 146.18 126.13 L 146.18 127.16 C 146.18 128.05 146.90 128.77 147.79 128.77 C 148.69 128.77 149.41 128.05 149.41 127.16 L 149.41 126.13 C 149.41 125.23 148.69 124.51 147.79 124.51 C 146.90 124.51 146.18 125.23 146.18 126.13 Z M 146.18 127.16 L 146.18 128.18 C 146.18 129.07 146.90 129.80 147.79 129.80 C 148.69 129.80 149.41 129.07 149.41 128.18 L 149.41 127.16 C 149.41 126.26 148.69 125.54 147.79 125.54 C 146.90 125.54 146.18 126.26 146.18 127.16 Z M 146.18 128.18 L 146.18 129.20 C 146.18 130.09 146.90 130.81 147.79 130.81 C 148.69 130.81 149.41 130.09 149.41 129.20 L 149.41 128.18 C 149.41 127.29 148.69 126.57 147.79 126.57 C 146.90 126.57 146.18 127.29 146.18 128.18 Z M 146.18 129.20 L 146.18 130.21 C 146.18 131.10 146.90 131.82 147.79 131.82 C 148.69 131.82 149.41 131.10 149.41 130.21 L 149.41 129.20 C 149.41 128.31 148.69 127.58 147.79 127.58 C 146.90 127.58 146.18 128.31 146.18 129.20 Z M 146.18 130.21 L 146.18 131.21 C 146.18 132.10 146.90 132.82 147.79 132.82 C 148.69 132.82 149.41 132.10 149.41 131.21 L 149.41 130.21 C 149.41 129.31 148.69 128.59 147.79 128.59 C 146.90 128.59 146.18 129.31 146.18 130.21 Z M 146.18 131.21 L 146.18 132.20 C 146.18 133.09 146.90 133.81 147.79 133.81 C 148.69 133.81 149.41 133.09 149.41 132.20 L 149.41 131.21 C 149.41 130.31 148.69 129.59 147.79 129.59 C 146.90 129.59 146.18 130.31 146.18 131.21 Z M 146.18 132.20 L 146.18 133.18 C 146.18 134.07 146.90 134.79 147.79 134.79 C 148.69 134.79 149.41 134.07 149.41 133.18 L 149.41 132.20 C 149.41 131.31 148.69 130.58 147.79 130.58 C 146.90 130.58 146.18 131.31 146.18 132.20 Z M 146.18 133.18 L 146.18 134.15 C 146.18 135.04 146.90 135.77 147.79 135.77 C 148.69 135.77 149.41 135.04 149.41 134.15 L 149.41 133.18 C 149.41 132.29 148.69 131.56 147.79 131.56 C 146.90 131.56 146.18 132.29 146.18 133.18 Z M 146.18 134.15 L 146.18 135.14 C 146.18 136.03 146.90 136.75 147.79 136.75 C 148.69 136.75 149.41 136.03 149.41 135.14 L 149.41 134.15 C 149.41 133.26 148.69 132.54 147.79 132.54 C 146.90 132.54 146.18 133.26 146.18 134.15 Z M 146.18 135.14 L 146.18 136.18 C 146.18 137.08 146.90 137.80 147.79 137.80 C 148.69 137.80 149.41 137.08 149.41 136.18 L 149.41 135.14 C 149.41 134.25 148.69 133.52 147.79 133.52 C 146.90 133.52 146.18 134.25 146.18 135.14 Z M 146.17 136.18 L 146.17 137.22 C 146.17 138.11 146.90 138.84 147.79 138.84 C 148.69 138.84 149.41 138.11 149.41 137.22 L 149.41 136.18 C 149.41 135.29 148.69 134.56 147.79 134.56 C 146.90 134.56 146.17 135.29 146.17 136.18 Z M 146.17 137.22 L 146.17 138.24 C 146.17 139.13 146.90 139.86 147.79 139.86 C 148.69 139.86 149.42 139.13 149.42 138.24 L 149.42 137.22 C 149.42 136.32 148.69 135.59 147.79 135.59 C 146.90 135.59 146.17 136.32 146.17 137.22 Z M 146.17 138.24 L 146.17 139.24 C 146.17 140.14 146.90 140.87 147.79 140.87 C 148.69 140.87 149.42 140.14 149.42 139.24 L 149.42 138.24 C 149.42 137.34 148.69 136.61 147.79 136.61 C 146.90 136.61 146.17 137.34 146.17 138.24 Z M 146.17 139.24 L 146.17 140.23 C 146.17 141.13 146.89 141.86 147.79 141.86 C 148.69 141.86 149.42 141.13 149.42 140.23 L 149.42 139.24 C 149.42 138.34 148.69 137.61 147.79 137.61 C 146.89 137.61 146.17 138.34 146.17 139.24 Z M 146.16 140.23 L 146.16 141.20 C 146.16 142.10 146.89 142.83 147.79 142.83 C 148.69 142.83 149.42 142.10 149.42 141.20 L 149.42 140.23 C 149.42 139.33 148.69 138.60 147.79 138.60 C 146.89 138.60 146.16 139.33 146.16 140.23 Z M 146.16 141.20 L 146.16 142.16 C 146.16 143.06 146.89 143.79 147.79 143.79 C 148.70 143.79 149.43 143.06 149.43 142.16 L 149.43 141.20 C 149.43 140.30 148.70 139.57 147.79 139.57 C 146.89 139.57 146.16 140.30 146.16 141.20 Z M 146.16 142.16 L 146.16 143.15 C 146.16 144.05 146.89 144.78 147.79 144.78 C 148.70 144.78 149.43 144.05 149.43 143.15 L 149.43 142.16 C 149.43 141.26 148.70 140.53 147.79 140.53 C 146.89 140.53 146.16 141.26 146.16 142.16 Z M 146.16 143.15 L 146.16 144.20 C 146.16 145.11 146.89 145.84 147.79 145.84 C 148.70 145.84 149.43 145.11 149.43 144.20 L 149.43 143.15 C 149.43 142.25 148.70 141.51 147.79 141.51 C 146.89 141.51 146.16 142.24 146.16 143.15 Z M 146.16 144.20 L 146.16 145.24 C 146.16 146.14 146.89 146.87 147.79 146.87 C 148.70 146.87 149.43 146.14 149.43 145.24 L 149.43 144.20 C 149.43 143.30 148.70 142.57 147.79 142.57 C 146.89 142.57 146.16 143.30 146.16 144.20 Z M 146.16 145.23 L 146.15 146.25 C 146.15 147.15 146.88 147.88 147.79 147.89 C 148.69 147.89 149.43 147.16 149.43 146.25 L 149.43 145.24 C 149.43 144.34 148.70 143.60 147.80 143.60 C 146.89 143.60 146.16 144.33 146.16 145.23 Z M 146.15 146.24 L 146.15 147.24 C 146.15 148.14 146.88 148.87 147.78 148.88 C 148.69 148.88 149.42 148.15 149.42 147.25 L 149.43 146.25 C 149.43 145.35 148.70 144.61 147.80 144.61 C 146.89 144.61 146.16 145.34 146.15 146.24 Z M 146.15 147.23 L 146.15 148.20 C 146.14 149.11 146.87 149.84 147.78 149.85 C 148.68 149.85 149.42 149.12 149.42 148.22 L 149.42 147.25 C 149.43 146.34 148.70 145.61 147.80 145.60 C 146.89 145.60 146.16 146.33 146.15 147.23 Z M 146.15 148.20 L 146.14 149.15 C 146.13 150.05 146.86 150.79 147.76 150.80 C 148.67 150.81 149.41 150.08 149.41 149.17 L 149.42 148.22 C 149.43 147.32 148.70 146.58 147.80 146.57 C 146.89 146.57 146.15 147.30 146.15 148.20 Z M 146.14 149.15 L 146.13 150.12 C 146.12 151.03 146.85 151.77 147.75 151.78 C 148.65 151.79 149.39 151.06 149.40 150.16 L 149.41 149.18 C 149.42 148.27 148.70 147.53 147.79 147.52 C 146.89 147.52 146.15 148.24 146.14 149.15 Z M 146.13 150.12 L 146.11 151.14 C 146.10 152.05 146.83 152.79 147.73 152.80 C 148.64 152.81 149.38 152.09 149.39 151.19 L 149.41 150.16 C 149.42 149.26 148.69 148.51 147.79 148.50 C 146.88 148.49 146.14 149.21 146.13 150.12 Z M 146.11 151.14 L 146.10 152.14 C 146.08 153.05 146.80 153.79 147.71 153.81 C 148.62 153.82 149.36 153.10 149.38 152.20 L 149.39 151.19 C 149.41 150.28 148.69 149.54 147.78 149.52 C 146.87 149.51 146.13 150.23 146.11 151.14 Z M 146.09 152.14 L 146.08 153.13 C 146.06 154.04 146.78 154.79 147.69 154.80 C 148.59 154.82 149.34 154.10 149.36 153.19 L 149.38 152.20 C 149.40 151.29 148.67 150.54 147.77 150.53 C 146.86 150.51 146.11 151.23 146.09 152.14 Z M 146.07 153.13 L 146.05 154.12 C 146.04 155.02 146.76 155.77 147.66 155.79 C 148.57 155.81 149.32 155.09 149.34 154.18 L 149.36 153.20 C 149.38 152.29 148.66 151.54 147.75 151.52 C 146.84 151.50 146.09 152.22 146.07 153.13 Z M 146.05 154.11 L 146.03 155.10 C 146.01 156.01 146.73 156.76 147.64 156.78 C 148.55 156.80 149.30 156.08 149.32 155.17 L 149.34 154.18 C 149.36 153.28 148.64 152.52 147.73 152.50 C 146.82 152.48 146.07 153.21 146.05 154.11 Z M 146.03 155.10 L 146.01 156.10 C 145.99 157.01 146.71 157.76 147.62 157.78 C 148.53 157.80 149.28 157.08 149.30 156.17 L 149.32 155.17 C 149.34 154.26 148.62 153.51 147.71 153.49 C 146.80 153.47 146.05 154.19 146.03 155.10 Z M 146.01 156.10 L 145.99 157.14 C 145.97 158.05 146.69 158.80 147.60 158.82 C 148.51 158.84 149.26 158.12 149.28 157.21 L 149.30 156.17 C 149.32 155.26 148.60 154.51 147.69 154.49 C 146.78 154.47 146.03 155.19 146.01 156.10 Z M 145.99 157.14 L 145.96 158.17 C 145.94 159.08 146.67 159.83 147.57 159.85 C 148.48 159.87 149.24 159.15 149.26 158.24 L 149.28 157.21 C 149.30 156.30 148.58 155.55 147.67 155.53 C 146.76 155.51 146.01 156.23 145.99 157.14 Z M 145.97 158.17 L 145.94 159.19 C 145.92 160.10 146.64 160.85 147.55 160.87 C 148.46 160.89 149.21 160.17 149.23 159.26 L 149.25 158.24 C 149.27 157.34 148.55 156.58 147.65 156.56 C 146.74 156.54 145.99 157.26 145.97 158.17 Z M 145.94 159.19 L 145.92 160.18 C 145.90 161.09 146.62 161.84 147.53 161.86 C 148.44 161.88 149.19 161.16 149.21 160.26 L 149.23 159.26 C 149.25 158.36 148.53 157.60 147.62 157.58 C 146.72 157.56 145.96 158.28 145.94 159.19 Z M 145.92 160.18 L 145.90 161.13 C 145.88 162.04 146.60 162.79 147.50 162.82 C 148.41 162.84 149.16 162.12 149.19 161.21 L 149.21 160.26 C 149.23 159.35 148.51 158.60 147.60 158.57 C 146.70 158.55 145.94 159.27 145.92 160.18 Z M 145.90 161.13 L 145.88 162.13 C 145.85 163.04 146.57 163.79 147.48 163.81 C 148.38 163.83 149.14 163.12 149.16 162.21 L 149.18 161.21 C 149.21 160.31 148.49 159.55 147.58 159.53 C 146.68 159.51 145.92 160.23 145.90 161.13 Z M 145.87 162.13 L 145.85 163.20 C 145.82 164.11 146.54 164.86 147.45 164.89 C 148.35 164.91 149.11 164.19 149.13 163.29 L 149.16 162.21 C 149.18 161.31 148.47 160.55 147.56 160.53 C 146.65 160.50 145.90 161.22 145.87 162.13 Z M 145.84 163.20 L 145.82 164.21 C 145.79 165.11 146.51 165.87 147.41 165.90 C 148.32 165.92 149.08 165.21 149.11 164.30 L 149.13 163.29 C 149.16 162.38 148.44 161.62 147.54 161.60 C 146.63 161.57 145.87 162.29 145.84 163.20 Z M 145.81 164.20 L 145.79 165.17 C 145.76 166.07 146.47 166.83 147.38 166.86 C 148.29 166.89 149.05 166.17 149.08 165.26 L 149.11 164.30 C 149.13 163.39 148.42 162.63 147.51 162.61 C 146.60 162.58 145.84 163.30 145.81 164.20 Z M 145.78 165.16 L 145.76 166.09 C 145.73 167.00 146.44 167.76 147.35 167.79 C 148.26 167.82 149.02 167.10 149.05 166.19 L 149.08 165.26 C 149.11 164.36 148.39 163.60 147.48 163.57 C 146.57 163.54 145.81 164.25 145.78 165.16 Z M 145.76 166.09 L 145.73 167.08 C 145.70 167.99 146.41 168.75 147.32 168.78 C 148.23 168.81 148.99 168.10 149.02 167.19 L 149.05 166.19 C 149.08 165.28 148.36 164.52 147.45 164.50 C 146.55 164.47 145.78 165.18 145.76 166.09 Z M 145.73 167.09 L 145.70 168.09 C 145.67 169.00 146.38 169.76 147.29 169.79 C 148.20 169.82 148.96 169.10 148.99 168.19 L 149.02 167.19 C 149.04 166.28 148.33 165.52 147.42 165.49 C 146.51 165.46 145.76 166.18 145.73 167.09 Z M 145.70 168.10 L 145.67 169.10 C 145.65 170.00 146.36 170.76 147.27 170.78 C 148.18 170.81 148.93 170.09 148.96 169.19 L 148.98 168.19 C 149.01 167.28 148.29 166.53 147.39 166.50 C 146.48 166.48 145.73 167.19 145.70 168.10 Z M 145.68 169.10 L 145.65 170.09 C 145.63 170.99 146.35 171.74 147.26 171.77 C 148.16 171.79 148.91 171.07 148.93 170.16 L 148.95 169.18 C 148.97 168.27 148.26 167.52 147.35 167.50 C 146.45 167.48 145.70 168.20 145.68 169.10 Z M 145.66 170.10 L 145.64 171.11 C 145.63 172.02 146.35 172.76 147.25 172.77 C 148.15 172.79 148.90 172.07 148.91 171.16 L 148.93 170.15 C 148.94 169.25 148.22 168.50 147.32 168.49 C 146.41 168.48 145.67 169.20 145.66 170.10 Z M 145.64 171.12 L 145.63 172.14 C 145.62 173.05 146.35 173.78 147.25 173.79 C 148.16 173.80 148.89 173.07 148.90 172.17 L 148.91 171.15 C 148.92 170.25 148.19 169.51 147.29 169.50 C 146.39 169.49 145.65 170.22 145.64 171.12 Z M 145.63 172.15 L 145.63 173.15 C 145.63 174.05 146.36 174.79 147.26 174.79 C 148.16 174.80 148.90 174.07 148.90 173.16 L 148.90 172.16 C 148.91 171.26 148.18 170.53 147.27 170.52 C 146.37 170.52 145.64 171.25 145.63 172.15 Z M 145.63 173.16 L 145.63 174.13 C 145.63 175.03 146.36 175.77 147.26 175.77 C 148.16 175.77 148.90 175.04 148.90 174.13 L 148.90 173.16 C 148.90 172.26 148.17 171.53 147.27 171.52 C 146.36 171.52 145.63 172.25 145.63 173.16 Z M 145.63 174.13 L 145.63 175.16 C 145.63 176.06 146.36 176.79 147.26 176.79 C 148.16 176.79 148.89 176.06 148.89 175.16 L 148.89 174.13 C 148.89 173.23 148.16 172.50 147.26 172.50 C 146.36 172.50 145.63 173.23 145.63 174.13 Z M 145.64 175.16 L 145.64 176.18 C 145.64 177.07 146.37 177.80 147.26 177.80 C 148.16 177.80 148.89 177.07 148.89 176.18 L 148.89 175.16 C 148.89 174.26 148.16 173.53 147.26 173.53 C 146.37 173.53 145.64 174.26 145.64 175.16 Z M 145.64 176.18 L 145.64 177.16 C 145.64 178.05 146.37 178.78 147.26 178.78 C 148.16 178.78 148.88 178.05 148.88 177.16 L 148.88 176.18 C 148.88 175.28 148.16 174.56 147.26 174.56 C 146.37 174.56 145.64 175.28 145.64 176.18 Z M 145.65 177.16 L 145.65 178.11 C 145.65 179.00 146.37 179.72 147.26 179.72 C 148.15 179.72 148.88 179.00 148.88 178.11 L 148.88 177.16 C 148.88 176.27 148.15 175.54 147.26 175.54 C 146.37 175.54 145.65 176.27 145.65 177.16 Z M 145.65 178.11 L 145.65 179.07 C 145.65 179.96 146.37 180.68 147.26 180.68 C 148.15 180.68 148.87 179.96 148.87 179.07 L 148.87 178.11 C 148.87 177.22 148.15 176.50 147.26 176.50 C 146.37 176.50 145.65 177.22 145.65 178.11 Z M 145.66 179.07 L 145.66 180.05 C 145.66 180.94 146.37 181.66 147.26 181.66 C 148.15 181.66 148.87 180.94 148.87 180.05 L 148.87 179.07 C 148.87 178.18 148.15 177.46 147.26 177.46 C 146.37 177.46 145.66 178.18 145.66 179.07 Z M 145.66 180.05 L 145.66 181.10 C 145.66 181.99 146.38 182.71 147.26 182.71 C 148.15 182.71 148.87 181.99 148.87 181.10 L 148.87 180.05 C 148.87 179.16 148.15 178.44 147.26 178.44 C 146.38 178.44 145.66 179.16 145.66 180.05 Z M 145.66 181.11 L 145.67 182.10 C 145.67 182.99 146.39 183.70 147.28 183.69 C 148.16 183.69 148.88 182.97 148.87 182.08 L 148.86 181.09 C 148.86 180.21 148.14 179.49 147.25 179.50 C 146.37 179.50 145.66 180.23 145.66 181.11 Z M 145.68 182.17 L 145.73 183.18 C 145.77 184.06 146.52 184.74 147.40 184.69 C 148.28 184.65 148.96 183.90 148.91 183.02 L 148.86 182.01 C 148.82 181.13 148.07 180.46 147.19 180.50 C 146.31 180.55 145.63 181.30 145.68 182.17 Z M 145.75 183.34 L 145.90 184.34 C 146.04 185.21 146.85 185.80 147.71 185.67 C 148.58 185.54 149.17 184.73 149.04 183.86 L 148.89 182.86 C 148.76 182.00 147.95 181.40 147.08 181.53 C 146.21 181.67 145.62 182.48 145.75 183.34 Z M 145.97 184.60 L 146.28 185.54 C 146.55 186.37 147.44 186.82 148.27 186.55 C 149.10 186.27 149.55 185.38 149.28 184.55 L 148.97 183.61 C 148.70 182.78 147.81 182.33 146.98 182.60 C 146.15 182.88 145.70 183.77 145.97 184.60 Z M 146.44 185.86 L 146.93 186.67 C 147.38 187.42 148.34 187.65 149.09 187.21 C 149.83 186.76 150.07 185.79 149.62 185.05 L 149.13 184.23 C 148.68 183.49 147.71 183.25 146.97 183.70 C 146.22 184.15 145.99 185.12 146.44 185.86 Z M 147.11 186.92 L 147.77 187.63 C 148.35 188.27 149.34 188.32 149.98 187.73 C 150.63 187.15 150.67 186.16 150.09 185.52 L 149.43 184.80 C 148.85 184.16 147.86 184.12 147.21 184.70 C 146.57 185.28 146.53 186.28 147.11 186.92 Z M 147.91 187.77 L 148.68 188.42 C 149.34 188.98 150.33 188.90 150.89 188.24 C 151.45 187.58 151.37 186.59 150.71 186.03 L 149.94 185.38 C 149.28 184.82 148.29 184.90 147.73 185.56 C 147.17 186.22 147.25 187.21 147.91 187.77 Z M 148.77 188.49 L 149.61 189.10 C 150.30 189.61 151.28 189.46 151.79 188.77 C 152.30 188.07 152.15 187.09 151.46 186.58 L 150.62 185.97 C 149.93 185.45 148.95 185.60 148.44 186.30 C 147.92 187.00 148.07 187.97 148.77 188.49 Z M 149.63 189.12 L 149.94 189.34 C 150.65 189.83 151.62 189.67 152.12 188.96 C 152.62 188.26 152.45 187.28 151.74 186.78 L 151.43 186.56 C 150.73 186.07 149.75 186.24 149.26 186.94 C 148.76 187.64 148.93 188.62 149.63 189.12 Z"
      fill="black"
      fill-rule="nonzero" /></svg>