<svg xmlns="http://www.w3.org/2000/svg" width="300" height="300" viewBox="0 0 300 300">
<path d="M 160.09 54.50 L 158.97 54.53 C 158.11 54.55 157.43 55.27 157.45 56.13 C 157.47 56.99 158.19 57.67 159.05 57.65 L 160.17 57.62 C 161.03 57.60 161.71 56.88 161.69 56.02 C 161.67 55.16 160.95 54.48 160.09 54.50 Z M 158.94 54.53 L 157.85 54.58 C 156.99 54.62 156.32 55.34 156.36 56.21 C 156.40 57.07 157.13 57.73 157.99 57.70 L 159.08 57.65 C 159.94 57.61 160.61 56.88 160.57 56.02 C 160.53 55.16 159.80 54.49 158.94 54.53 Z M 157.79 54.58 L 156.76 54.67 C 155.90 54.74 155.26 55.49 155.34 56.35 C 155.41 57.21 156.16 57.85 157.02 57.78 L 158.05 57.69 C 158.91 57.62 159.55 56.87 159.48 56.01 C 159.40 55.15 158.65 54.51 157.79 54.58 Z M 156.66 54.68 L 155.72 54.82 C 154.87 54.95 154.28 55.75 154.41 56.60 C 154.54 57.45 155.34 58.04 156.19 57.91 L 157.13 57.77 C 157.98 57.64 158.56 56.84 158.43 55.99 C 158.30 55.14 157.51 54.55 156.66 54.68 Z M 155.55 54.86 L 154.73 55.08 C 153.90 55.30 153.41 56.16 153.63 56.99 C 153.85 57.82 154.71 58.32 155.54 58.09 L 156.36 57.87 C 157.19 57.65 157.69 56.79 157.46 55.96 C 157.24 55.13 156.38 54.63 155.55 54.86 Z M 154.44 55.19 L 153.61 55.60 C 152.84 55.99 152.53 56.93 152.91 57.70 C 153.30 58.47 154.24 58.78 155.01 58.40 L 155.84 57.98 C 156.61 57.59 156.92 56.66 156.53 55.89 C 156.15 55.11 155.21 54.80 154.44 55.19 Z M 153.25 55.85 L 152.58 56.46 C 151.95 57.05 151.91 58.03 152.49 58.67 C 153.07 59.30 154.06 59.35 154.70 58.76 L 155.36 58.15 C 156.00 57.57 156.04 56.58 155.46 55.94 C 154.87 55.31 153.89 55.27 153.25 55.85 Z M 152.35 56.73 L 151.80 57.54 C 151.32 58.25 151.50 59.22 152.22 59.71 C 152.93 60.19 153.90 60.01 154.39 59.29 L 154.93 58.49 C 155.42 57.78 155.23 56.81 154.52 56.32 C 153.81 55.84 152.84 56.02 152.35 56.73 Z M 151.71 57.70 L 151.19 58.70 C 150.80 59.47 151.10 60.41 151.87 60.80 C 152.63 61.20 153.58 60.89 153.97 60.13 L 154.48 59.13 C 154.88 58.36 154.58 57.42 153.81 57.03 C 153.04 56.63 152.10 56.93 151.71 57.70 Z M 151.17 58.75 L 150.76 59.63 C 150.39 60.41 150.73 61.34 151.51 61.70 C 152.29 62.07 153.22 61.73 153.58 60.95 L 154.00 60.08 C 154.36 59.29 154.02 58.37 153.24 58.00 C 152.46 57.63 151.53 57.97 151.17 58.75 Z M 150.75 59.65 L 150.33 60.58 C 149.97 61.36 150.32 62.29 151.11 62.64 C 151.90 63.00 152.82 62.65 153.17 61.86 L 153.59 60.93 C 153.95 60.15 153.60 59.22 152.81 58.87 C 152.03 58.51 151.10 58.86 150.75 59.65 Z M 150.32 60.59 L 149.90 61.55 C 149.55 62.34 149.91 63.26 150.70 63.61 C 151.49 63.96 152.41 63.60 152.76 62.81 L 153.18 61.85 C 153.53 61.06 153.17 60.14 152.38 59.79 C 151.59 59.44 150.67 59.80 150.32 60.59 Z M 149.90 61.56 L 149.49 62.51 C 149.15 63.31 149.52 64.23 150.31 64.56 C 151.10 64.90 152.02 64.54 152.36 63.74 L 152.77 62.79 C 153.11 62.00 152.74 61.08 151.95 60.74 C 151.15 60.40 150.23 60.77 149.90 61.56 Z M 149.48 62.53 L 149.11 63.43 C 148.77 64.22 149.15 65.14 149.94 65.47 C 150.74 65.80 151.65 65.43 151.99 64.63 L 152.36 63.73 C 152.70 62.94 152.32 62.02 151.53 61.69 C 150.73 61.36 149.82 61.73 149.48 62.53 Z M 149.10 63.44 L 148.69 64.46 C 148.36 65.26 148.75 66.17 149.55 66.49 C 150.35 66.82 151.26 66.43 151.58 65.63 L 151.99 64.62 C 152.32 63.82 151.93 62.91 151.13 62.58 C 150.34 62.26 149.43 62.64 149.10 63.44 Z M 148.68 64.47 L 148.30 65.45 C 147.98 66.25 148.38 67.16 149.18 67.48 C 149.98 67.79 150.89 67.40 151.20 66.60 L 151.59 65.62 C 151.90 64.82 151.51 63.91 150.71 63.59 C 149.90 63.28 149.00 63.67 148.68 64.47 Z M 148.29 65.46 L 147.96 66.33 C 147.64 67.14 148.04 68.04 148.85 68.35 C 149.65 68.66 150.55 68.27 150.87 67.46 L 151.21 66.59 C 151.52 65.78 151.12 64.88 150.31 64.57 C 149.51 64.26 148.61 64.66 148.29 65.46 Z M 147.96 66.32 L 147.63 67.16 C 147.31 67.96 147.71 68.86 148.51 69.18 C 149.31 69.50 150.22 69.10 150.53 68.30 L 150.86 67.47 C 151.18 66.67 150.79 65.76 149.98 65.44 C 149.18 65.13 148.28 65.52 147.96 66.32 Z M 147.64 67.13 L 147.28 68.00 C 146.95 68.80 147.33 69.71 148.13 70.04 C 148.93 70.37 149.84 69.99 150.17 69.19 L 150.53 68.32 C 150.85 67.53 150.47 66.61 149.68 66.29 C 148.88 65.96 147.97 66.34 147.64 67.13 Z M 147.29 67.98 L 146.91 68.88 C 146.57 69.67 146.94 70.59 147.73 70.93 C 148.52 71.27 149.44 70.90 149.78 70.11 L 150.16 69.21 C 150.50 68.41 150.13 67.50 149.34 67.16 C 148.55 66.82 147.63 67.19 147.29 67.98 Z M 146.91 68.87 L 146.50 69.81 C 146.16 70.60 146.52 71.52 147.31 71.87 C 148.10 72.21 149.02 71.85 149.37 71.06 L 149.77 70.12 C 150.12 69.32 149.76 68.41 148.96 68.06 C 148.17 67.72 147.25 68.08 146.91 68.87 Z M 146.50 69.81 L 146.09 70.75 C 145.75 71.54 146.11 72.46 146.90 72.81 C 147.69 73.15 148.61 72.79 148.95 72.00 L 149.37 71.06 C 149.71 70.27 149.35 69.35 148.56 69.00 C 147.77 68.66 146.85 69.02 146.50 69.81 Z M 146.09 70.75 L 145.72 71.61 C 145.37 72.40 145.74 73.32 146.53 73.66 C 147.32 74.01 148.24 73.65 148.58 72.86 L 148.95 72.00 C 149.30 71.21 148.94 70.29 148.15 69.95 C 147.36 69.60 146.44 69.96 146.09 70.75 Z M 145.72 71.60 L 145.33 72.50 C 144.98 73.29 145.34 74.21 146.13 74.55 C 146.92 74.90 147.84 74.54 148.19 73.75 L 148.58 72.86 C 148.93 72.07 148.57 71.15 147.78 70.80 C 146.99 70.46 146.07 70.81 145.72 71.60 Z M 145.33 72.49 L 144.91 73.42 C 144.56 74.21 144.92 75.13 145.70 75.49 C 146.49 75.84 147.41 75.48 147.77 74.70 L 148.18 73.76 C 148.53 72.97 148.18 72.05 147.39 71.70 C 146.61 71.35 145.68 71.70 145.33 72.49 Z M 144.92 73.41 L 144.47 74.39 C 144.12 75.18 144.46 76.10 145.25 76.46 C 146.03 76.82 146.96 76.47 147.32 75.69 L 147.76 74.71 C 148.12 73.92 147.77 73.00 146.99 72.64 C 146.20 72.28 145.28 72.63 144.92 73.41 Z M 144.48 74.38 L 144.07 75.26 C 143.71 76.04 144.04 76.97 144.83 77.33 C 145.61 77.70 146.54 77.36 146.90 76.58 L 147.31 75.70 C 147.67 74.92 147.34 73.99 146.55 73.62 C 145.77 73.26 144.84 73.60 144.48 74.38 Z M 144.08 75.25 L 143.66 76.13 C 143.29 76.91 143.62 77.84 144.39 78.21 C 145.17 78.58 146.10 78.25 146.48 77.47 L 146.89 76.59 C 147.27 75.81 146.93 74.88 146.16 74.51 C 145.38 74.14 144.45 74.47 144.08 75.25 Z M 143.66 76.12 L 143.22 77.02 C 142.85 77.79 143.17 78.73 143.94 79.10 C 144.72 79.48 145.65 79.16 146.03 78.38 L 146.47 77.48 C 146.85 76.71 146.52 75.77 145.75 75.39 C 144.97 75.02 144.04 75.34 143.66 76.12 Z M 143.23 77.01 L 142.77 77.92 C 142.39 78.69 142.71 79.63 143.48 80.01 C 144.25 80.40 145.19 80.08 145.57 79.31 L 146.02 78.40 C 146.41 77.62 146.09 76.69 145.32 76.30 C 144.55 75.92 143.61 76.23 143.23 77.01 Z M 142.78 77.91 L 142.31 78.83 C 141.92 79.59 142.23 80.53 143.00 80.93 C 143.76 81.32 144.70 81.01 145.10 80.24 L 145.56 79.32 C 145.95 78.55 145.65 77.61 144.88 77.22 C 144.11 76.83 143.17 77.14 142.78 77.91 Z M 142.32 78.81 L 141.85 79.71 C 141.46 80.47 141.75 81.41 142.52 81.81 C 143.28 82.21 144.22 81.91 144.62 81.15 L 145.09 80.26 C 145.49 79.49 145.19 78.55 144.43 78.15 C 143.66 77.75 142.72 78.05 142.32 78.81 Z M 141.86 79.69 L 141.40 80.56 C 140.99 81.33 141.28 82.27 142.04 82.68 C 142.80 83.08 143.74 82.80 144.15 82.03 L 144.62 81.16 C 145.02 80.40 144.73 79.46 143.97 79.05 C 143.21 78.64 142.27 78.93 141.86 79.69 Z M 141.40 80.55 L 140.93 81.42 C 140.51 82.18 140.79 83.13 141.55 83.54 C 142.31 83.95 143.26 83.68 143.67 82.92 L 144.14 82.05 C 144.56 81.29 144.28 80.34 143.52 79.93 C 142.76 79.52 141.82 79.80 141.40 80.55 Z M 140.93 81.41 L 140.45 82.28 C 140.03 83.04 140.30 83.99 141.05 84.41 C 141.81 84.83 142.76 84.56 143.18 83.80 L 143.66 82.93 C 144.08 82.18 143.81 81.23 143.06 80.81 C 142.30 80.39 141.35 80.66 140.93 81.41 Z M 140.45 82.27 L 139.96 83.15 C 139.53 83.90 139.79 84.85 140.54 85.28 C 141.29 85.70 142.25 85.44 142.67 84.69 L 143.17 83.81 C 143.60 83.06 143.33 82.11 142.58 81.69 C 141.83 81.26 140.88 81.52 140.45 82.27 Z M 139.96 83.14 L 139.45 84.02 C 139.02 84.77 139.28 85.72 140.03 86.16 C 140.77 86.59 141.73 86.33 142.16 85.58 L 142.67 84.70 C 143.10 83.95 142.84 83.00 142.09 82.57 C 141.35 82.14 140.39 82.39 139.96 83.14 Z M 139.46 84.01 L 138.97 84.86 C 138.53 85.60 138.78 86.56 139.52 86.99 C 140.27 87.43 141.22 87.18 141.66 86.44 L 142.15 85.59 C 142.59 84.85 142.34 83.89 141.60 83.46 C 140.85 83.02 139.89 83.27 139.46 84.01 Z M 138.97 84.85 L 138.46 85.70 C 138.02 86.44 138.27 87.40 139.01 87.84 C 139.75 88.28 140.71 88.04 141.15 87.29 L 141.65 86.44 C 142.09 85.70 141.85 84.74 141.11 84.30 C 140.37 83.86 139.41 84.11 138.97 84.85 Z M 138.47 85.69 L 137.95 86.55 C 137.51 87.29 137.75 88.24 138.49 88.69 C 139.22 89.13 140.18 88.90 140.63 88.16 L 141.14 87.30 C 141.59 86.56 141.35 85.60 140.61 85.16 C 139.87 84.71 138.91 84.95 138.47 85.69 Z M 137.96 86.54 L 137.43 87.40 C 136.98 88.13 137.22 89.09 137.95 89.54 C 138.69 89.99 139.65 89.76 140.10 89.03 L 140.62 88.17 C 141.07 87.43 140.84 86.47 140.11 86.02 C 139.37 85.57 138.41 85.80 137.96 86.54 Z M 137.44 87.39 L 136.91 88.25 C 136.45 88.98 136.68 89.95 137.41 90.40 C 138.14 90.85 139.10 90.63 139.56 89.90 L 140.09 89.03 C 140.55 88.30 140.32 87.34 139.59 86.88 C 138.86 86.43 137.89 86.66 137.44 87.39 Z M 136.91 88.24 L 136.37 89.10 C 135.91 89.83 136.13 90.79 136.86 91.25 C 137.59 91.71 138.56 91.49 139.02 90.76 L 139.55 89.90 C 140.01 89.17 139.79 88.21 139.06 87.75 C 138.33 87.29 137.37 87.51 136.91 88.24 Z M 136.38 89.09 L 135.85 89.92 C 135.38 90.65 135.60 91.61 136.32 92.08 C 137.05 92.54 138.02 92.33 138.48 91.60 L 139.01 90.77 C 139.47 90.04 139.26 89.08 138.53 88.61 C 137.81 88.15 136.84 88.36 136.38 89.09 Z M 135.85 89.91 L 135.31 90.74 C 134.84 91.47 135.05 92.43 135.77 92.90 C 136.50 93.37 137.46 93.17 137.93 92.44 L 138.47 91.61 C 138.94 90.89 138.74 89.92 138.01 89.45 C 137.29 88.98 136.32 89.19 135.85 89.91 Z M 135.32 90.73 L 134.77 91.57 C 134.30 92.29 134.49 93.25 135.21 93.73 C 135.93 94.20 136.90 94.01 137.38 93.29 L 137.93 92.45 C 138.40 91.73 138.20 90.77 137.48 90.29 C 136.76 89.82 135.80 90.01 135.32 90.73 Z M 134.78 91.55 L 134.22 92.39 C 133.74 93.10 133.93 94.07 134.64 94.55 C 135.36 95.03 136.33 94.84 136.81 94.13 L 137.37 93.30 C 137.85 92.58 137.66 91.61 136.95 91.13 C 136.23 90.65 135.26 90.84 134.78 91.55 Z M 134.23 92.37 L 133.66 93.20 C 133.17 93.91 133.35 94.89 134.06 95.38 C 134.77 95.86 135.74 95.69 136.23 94.97 L 136.80 94.14 C 137.29 93.43 137.11 92.46 136.40 91.97 C 135.69 91.48 134.72 91.66 134.23 92.37 Z M 133.67 93.19 L 133.08 94.02 C 132.59 94.72 132.75 95.70 133.46 96.19 C 134.16 96.69 135.14 96.52 135.64 95.82 L 136.22 94.99 C 136.71 94.28 136.55 93.31 135.84 92.81 C 135.14 92.32 134.16 92.49 133.67 93.19 Z M 133.09 94.00 L 132.52 94.80 C 132.01 95.50 132.17 96.48 132.87 96.98 C 133.57 97.49 134.54 97.33 135.05 96.63 L 135.63 95.83 C 136.13 95.13 135.97 94.15 135.27 93.65 C 134.57 93.15 133.60 93.30 133.09 94.00 Z M 132.52 94.79 L 131.94 95.59 C 131.42 96.29 131.57 97.26 132.27 97.77 C 132.96 98.29 133.94 98.14 134.45 97.44 L 135.04 96.64 C 135.55 95.95 135.40 94.97 134.71 94.46 C 134.01 93.95 133.04 94.10 132.52 94.79 Z M 131.94 95.58 L 131.34 96.38 C 130.83 97.07 130.97 98.05 131.65 98.56 C 132.34 99.08 133.32 98.94 133.84 98.25 L 134.44 97.46 C 134.96 96.77 134.82 95.79 134.13 95.27 C 133.44 94.75 132.46 94.89 131.94 95.58 Z M 131.35 96.37 L 130.74 97.16 C 130.22 97.85 130.35 98.83 131.03 99.35 C 131.72 99.88 132.70 99.75 133.22 99.06 L 133.83 98.27 C 134.36 97.58 134.23 96.60 133.54 96.08 C 132.86 95.55 131.88 95.68 131.35 96.37 Z M 130.75 97.15 L 130.13 97.95 C 129.60 98.63 129.72 99.61 130.40 100.14 C 131.08 100.67 132.06 100.55 132.59 99.87 L 133.21 99.07 C 133.74 98.39 133.62 97.41 132.94 96.88 C 132.26 96.35 131.28 96.47 130.75 97.15 Z M 130.14 97.94 L 129.51 98.73 C 128.98 99.41 129.09 100.39 129.77 100.92 C 130.44 101.46 131.42 101.34 131.96 100.67 L 132.59 99.88 C 133.12 99.20 133.01 98.22 132.33 97.68 C 131.66 97.15 130.67 97.26 130.14 97.94 Z M 129.52 98.72 L 128.90 99.49 C 128.36 100.16 128.47 101.14 129.14 101.68 C 129.81 102.22 130.79 102.12 131.34 101.45 L 131.95 100.68 C 132.49 100.01 132.39 99.02 131.71 98.48 C 131.04 97.94 130.06 98.05 129.52 98.72 Z M 128.91 99.48 L 128.29 100.25 C 127.74 100.91 127.84 101.90 128.51 102.44 C 129.18 102.99 130.16 102.89 130.71 102.22 L 131.33 101.45 C 131.87 100.79 131.77 99.80 131.10 99.26 C 130.44 98.71 129.45 98.81 128.91 99.48 Z M 128.29 100.24 L 127.66 101.00 C 127.11 101.67 127.21 102.65 127.87 103.20 C 128.54 103.75 129.52 103.65 130.07 102.99 L 130.70 102.22 C 131.25 101.56 131.16 100.58 130.49 100.03 C 129.82 99.48 128.84 99.57 128.29 100.24 Z M 127.67 100.99 L 127.03 101.76 C 126.48 102.42 126.57 103.41 127.23 103.96 C 127.89 104.51 128.88 104.42 129.43 103.76 L 130.07 102.99 C 130.62 102.33 130.53 101.35 129.87 100.80 C 129.20 100.24 128.22 100.33 127.67 100.99 Z M 127.03 101.75 L 126.39 102.52 C 125.83 103.18 125.91 104.17 126.57 104.72 C 127.23 105.28 128.22 105.20 128.77 104.54 L 129.42 103.77 C 129.98 103.11 129.89 102.12 129.23 101.57 C 128.57 101.01 127.59 101.10 127.03 101.75 Z M 126.39 102.52 L 125.73 103.30 C 125.17 103.95 125.25 104.94 125.91 105.50 C 126.57 106.05 127.55 105.97 128.11 105.32 L 128.77 104.54 C 129.33 103.88 129.25 102.90 128.59 102.34 C 127.93 101.78 126.95 101.86 126.39 102.52 Z M 125.73 103.29 L 125.07 104.07 C 124.51 104.72 124.59 105.71 125.24 106.27 C 125.90 106.83 126.88 106.75 127.44 106.10 L 128.11 105.32 C 128.67 104.67 128.59 103.68 127.94 103.12 C 127.28 102.56 126.29 102.64 125.73 103.29 Z M 125.07 104.06 L 124.41 104.83 C 123.85 105.48 123.92 106.47 124.58 107.03 C 125.23 107.60 126.22 107.52 126.78 106.87 L 127.44 106.10 C 128.00 105.45 127.93 104.46 127.27 103.90 C 126.62 103.34 125.64 103.41 125.07 104.06 Z M 124.41 104.83 L 123.75 105.60 C 123.18 106.25 123.26 107.24 123.91 107.80 C 124.56 108.36 125.55 108.29 126.11 107.64 L 126.78 106.87 C 127.34 106.22 127.27 105.23 126.62 104.67 C 125.96 104.11 124.98 104.18 124.41 104.83 Z M 123.75 105.60 L 123.08 106.36 C 122.52 107.01 122.59 108.00 123.24 108.56 C 123.89 109.13 124.88 109.06 125.44 108.41 L 126.11 107.64 C 126.67 106.99 126.60 106.01 125.95 105.44 C 125.30 104.88 124.32 104.94 123.75 105.60 Z M 123.09 106.36 L 122.42 107.12 C 121.86 107.77 121.93 108.76 122.58 109.32 C 123.23 109.89 124.21 109.82 124.78 109.17 L 125.44 108.41 C 126.01 107.76 125.94 106.78 125.29 106.21 C 124.64 105.64 123.65 105.71 123.09 106.36 Z M 122.43 107.12 L 121.77 107.87 C 121.21 108.52 121.27 109.50 121.92 110.07 C 122.57 110.64 123.56 110.57 124.12 109.92 L 124.78 109.17 C 125.34 108.52 125.28 107.54 124.63 106.97 C 123.98 106.40 122.99 106.47 122.43 107.12 Z M 121.77 107.87 L 121.13 108.60 C 120.57 109.24 120.63 110.23 121.28 110.80 C 121.93 111.37 122.92 111.30 123.49 110.65 L 124.12 109.92 C 124.69 109.27 124.63 108.29 123.98 107.72 C 123.33 107.15 122.34 107.22 121.77 107.87 Z M 121.14 108.60 L 120.46 109.37 C 119.89 110.02 119.95 111.01 120.60 111.57 C 121.25 112.14 122.24 112.08 122.81 111.43 L 123.49 110.65 C 124.05 110.00 123.99 109.02 123.34 108.45 C 122.69 107.88 121.70 107.95 121.14 108.60 Z M 120.46 109.37 L 119.77 110.16 C 119.20 110.81 119.27 111.80 119.92 112.36 C 120.57 112.93 121.55 112.86 122.12 112.21 L 122.81 111.43 C 123.37 110.78 123.31 109.79 122.66 109.22 C 122.01 108.66 121.02 108.72 120.46 109.37 Z M 119.77 110.16 L 119.10 110.93 C 118.54 111.58 118.61 112.56 119.26 113.13 C 119.91 113.69 120.89 113.63 121.46 112.97 L 122.12 112.21 C 122.69 111.56 122.62 110.57 121.97 110.01 C 121.32 109.44 120.33 109.51 119.77 110.16 Z M 119.10 110.93 L 118.45 111.68 C 117.89 112.33 117.96 113.32 118.62 113.88 C 119.27 114.44 120.26 114.37 120.82 113.72 L 121.46 112.97 C 122.03 112.32 121.95 111.33 121.30 110.77 C 120.65 110.21 119.66 110.28 119.10 110.93 Z M 118.45 111.69 L 117.82 112.42 C 117.26 113.08 117.34 114.06 118.00 114.62 C 118.65 115.18 119.64 115.10 120.20 114.45 L 120.83 113.71 C 121.38 113.05 121.30 112.07 120.65 111.51 C 119.99 110.95 119.01 111.03 118.45 111.69 Z M 117.81 112.43 L 117.20 113.16 C 116.65 113.82 116.74 114.81 117.40 115.36 C 118.06 115.91 119.04 115.83 119.60 115.17 L 120.21 114.44 C 120.76 113.78 120.67 112.79 120.01 112.24 C 119.35 111.68 118.37 111.77 117.81 112.43 Z M 117.19 113.17 L 116.56 113.95 C 116.01 114.61 116.10 115.60 116.77 116.14 C 117.44 116.69 118.42 116.60 118.97 115.93 L 119.60 115.16 C 120.15 114.49 120.06 113.51 119.39 112.96 C 118.72 112.41 117.74 112.51 117.19 113.17 Z M 116.55 113.96 L 115.91 114.75 C 115.37 115.42 115.48 116.40 116.15 116.94 C 116.82 117.48 117.80 117.38 118.34 116.70 L 118.98 115.92 C 119.52 115.25 119.41 114.26 118.74 113.72 C 118.07 113.18 117.09 113.29 116.55 113.96 Z M 115.90 114.76 L 115.28 115.54 C 114.75 116.22 114.86 117.20 115.54 117.74 C 116.21 118.27 117.20 118.16 117.73 117.48 L 118.35 116.69 C 118.89 116.02 118.77 115.03 118.10 114.50 C 117.42 113.97 116.44 114.08 115.90 114.76 Z M 115.27 115.55 L 114.66 116.34 C 114.13 117.02 114.26 118.00 114.94 118.53 C 115.62 119.06 116.60 118.94 117.13 118.25 L 117.74 117.47 C 118.27 116.79 118.14 115.81 117.46 115.28 C 116.78 114.75 115.80 114.87 115.27 115.55 Z M 114.65 116.35 L 114.06 117.14 C 113.53 117.82 113.66 118.80 114.35 119.32 C 115.03 119.85 116.01 119.72 116.54 119.03 L 117.14 118.24 C 117.66 117.56 117.53 116.58 116.84 116.06 C 116.16 115.53 115.18 115.66 114.65 116.35 Z M 114.05 117.15 L 113.45 117.95 C 112.93 118.63 113.07 119.61 113.76 120.13 C 114.45 120.65 115.43 120.51 115.94 119.82 L 116.54 119.02 C 117.06 118.33 116.92 117.35 116.23 116.83 C 115.54 116.32 114.57 116.46 114.05 117.15 Z M 113.44 117.96 L 112.84 118.77 C 112.32 119.47 112.47 120.44 113.16 120.96 C 113.86 121.47 114.84 121.32 115.35 120.63 L 115.95 119.81 C 116.46 119.12 116.32 118.14 115.62 117.63 C 114.93 117.11 113.95 117.26 113.44 117.96 Z M 112.83 118.79 L 112.24 119.60 C 111.73 120.30 111.89 121.28 112.59 121.78 C 113.28 122.29 114.26 122.13 114.77 121.43 L 115.36 120.62 C 115.86 119.92 115.71 118.94 115.01 118.44 C 114.31 117.93 113.33 118.09 112.83 118.79 Z M 112.23 119.62 L 111.65 120.43 C 111.15 121.13 111.32 122.11 112.02 122.61 C 112.72 123.11 113.70 122.94 114.20 122.24 L 114.77 121.42 C 115.27 120.72 115.11 119.74 114.40 119.24 C 113.70 118.75 112.72 118.91 112.23 119.62 Z M 111.64 120.45 L 111.08 121.26 C 110.59 121.97 110.77 122.94 111.48 123.43 C 112.18 123.92 113.16 123.74 113.65 123.03 L 114.21 122.22 C 114.70 121.51 114.52 120.54 113.81 120.05 C 113.10 119.56 112.13 119.74 111.64 120.45 Z M 111.07 121.27 L 110.52 122.09 C 110.03 122.81 110.23 123.78 110.94 124.26 C 111.66 124.74 112.63 124.55 113.11 123.84 L 113.66 123.01 C 114.14 122.30 113.95 121.33 113.23 120.85 C 112.52 120.37 111.55 120.56 111.07 121.27 Z M 110.50 122.11 L 109.94 122.98 C 109.47 123.70 109.68 124.67 110.40 125.14 C 111.12 125.61 112.09 125.40 112.56 124.68 L 113.12 123.82 C 113.59 123.09 113.39 122.13 112.66 121.66 C 111.94 121.19 110.97 121.39 110.50 122.11 Z M 109.93 123.00 L 109.39 123.85 C 108.93 124.58 109.15 125.55 109.88 126.01 C 110.61 126.46 111.58 126.24 112.03 125.51 L 112.57 124.66 C 113.03 123.93 112.81 122.96 112.08 122.51 C 111.35 122.05 110.39 122.27 109.93 123.00 Z M 109.38 123.87 L 108.86 124.73 C 108.42 125.46 108.65 126.42 109.39 126.87 C 110.13 127.32 111.09 127.08 111.53 126.34 L 112.05 125.49 C 112.49 124.75 112.26 123.79 111.52 123.35 C 110.78 122.90 109.82 123.14 109.38 123.87 Z M 108.85 124.75 L 108.36 125.59 C 107.92 126.34 108.17 127.29 108.92 127.73 C 109.66 128.16 110.62 127.91 111.05 127.17 L 111.55 126.32 C 111.98 125.58 111.73 124.62 110.98 124.19 C 110.24 123.75 109.28 124.00 108.85 124.75 Z M 108.34 125.62 L 107.86 126.48 C 107.44 127.23 107.71 128.18 108.46 128.60 C 109.21 129.02 110.17 128.75 110.59 128.00 L 111.07 127.14 C 111.49 126.39 111.22 125.44 110.47 125.02 C 109.71 124.60 108.76 124.86 108.34 125.62 Z M 107.85 126.50 L 107.37 127.39 C 106.96 128.15 107.25 129.10 108.01 129.50 C 108.77 129.91 109.71 129.63 110.12 128.87 L 110.60 127.98 C 111.01 127.22 110.72 126.27 109.96 125.86 C 109.20 125.46 108.26 125.74 107.85 126.50 Z M 107.36 127.41 L 106.90 128.30 C 106.50 129.06 106.80 130.01 107.57 130.40 C 108.34 130.80 109.28 130.50 109.67 129.73 L 110.13 128.85 C 110.53 128.08 110.23 127.14 109.46 126.74 C 108.70 126.35 107.76 126.65 107.36 127.41 Z M 106.89 128.31 L 106.45 129.20 C 106.06 129.97 106.37 130.91 107.14 131.30 C 107.91 131.68 108.85 131.37 109.23 130.60 L 109.68 129.72 C 110.07 128.95 109.76 128.01 108.99 127.62 C 108.22 127.23 107.28 127.54 106.89 128.31 Z M 106.44 129.21 L 106.00 130.10 C 105.62 130.87 105.93 131.81 106.71 132.19 C 107.48 132.57 108.42 132.26 108.80 131.48 L 109.24 130.59 C 109.62 129.82 109.31 128.89 108.53 128.50 C 107.76 128.12 106.82 128.44 106.44 129.21 Z M 106.00 130.11 L 105.57 130.98 C 105.19 131.75 105.51 132.69 106.29 133.07 C 107.06 133.44 108.00 133.12 108.38 132.35 L 108.80 131.48 C 109.18 130.70 108.86 129.77 108.09 129.39 C 107.31 129.01 106.38 129.33 106.00 130.11 Z M 105.57 130.99 L 105.14 131.87 C 104.77 132.64 105.10 133.58 105.87 133.95 C 106.65 134.32 107.58 134.00 107.96 133.22 L 108.38 132.34 C 108.75 131.56 108.43 130.63 107.65 130.26 C 106.87 129.88 105.94 130.21 105.57 130.99 Z M 105.14 131.88 L 104.71 132.78 C 104.35 133.57 104.69 134.49 105.47 134.86 C 106.25 135.22 107.18 134.89 107.54 134.11 L 107.96 133.21 C 108.33 132.42 107.99 131.50 107.21 131.13 C 106.43 130.76 105.50 131.10 105.14 131.88 Z M 104.70 132.81 L 104.29 133.74 C 103.93 134.52 104.28 135.45 105.07 135.80 C 105.86 136.15 106.78 135.80 107.13 135.01 L 107.55 134.09 C 107.91 133.30 107.55 132.37 106.77 132.02 C 105.98 131.67 105.06 132.02 104.70 132.81 Z M 104.27 133.76 L 103.87 134.72 C 103.53 135.51 103.90 136.43 104.69 136.77 C 105.48 137.10 106.40 136.74 106.74 135.94 L 107.15 134.99 C 107.48 134.20 107.12 133.28 106.32 132.94 C 105.53 132.60 104.61 132.97 104.27 133.76 Z M 103.86 134.74 L 103.47 135.69 C 103.15 136.49 103.53 137.40 104.33 137.72 C 105.13 138.05 106.04 137.66 106.37 136.86 L 106.75 135.92 C 107.07 135.12 106.69 134.21 105.89 133.88 C 105.09 133.56 104.18 133.94 103.86 134.74 Z M 103.46 135.71 L 103.09 136.67 C 102.78 137.48 103.18 138.38 103.99 138.69 C 104.79 139.00 105.70 138.60 106.01 137.79 L 106.38 136.84 C 106.69 136.03 106.29 135.13 105.48 134.82 C 104.68 134.51 103.77 134.91 103.46 135.71 Z M 103.08 136.70 L 102.73 137.65 C 102.44 138.46 102.85 139.36 103.66 139.65 C 104.47 139.95 105.37 139.53 105.67 138.72 L 106.02 137.77 C 106.31 136.96 105.90 136.06 105.09 135.77 C 104.28 135.47 103.38 135.89 103.08 136.70 Z M 102.73 137.67 L 102.40 138.60 C 102.12 139.42 102.55 140.31 103.36 140.59 C 104.18 140.87 105.07 140.44 105.35 139.63 L 105.68 138.70 C 105.96 137.89 105.53 137.00 104.71 136.71 C 103.90 136.43 103.01 136.86 102.73 137.67 Z M 102.39 138.63 L 102.09 139.55 C 101.82 140.37 102.27 141.25 103.09 141.52 C 103.91 141.79 104.79 141.34 105.06 140.52 L 105.36 139.60 C 105.63 138.78 105.18 137.90 104.36 137.63 C 103.54 137.36 102.66 137.81 102.39 138.63 Z M 102.08 139.59 L 101.79 140.57 C 101.54 141.39 102.01 142.26 102.83 142.51 C 103.66 142.76 104.53 142.29 104.78 141.46 L 105.07 140.48 C 105.32 139.66 104.85 138.79 104.02 138.54 C 103.20 138.29 102.33 138.76 102.08 139.59 Z M 101.77 140.63 L 101.53 141.57 C 101.31 142.41 101.82 143.26 102.65 143.47 C 103.49 143.69 104.34 143.18 104.55 142.35 L 104.79 141.40 C 105.01 140.57 104.51 139.72 103.67 139.50 C 102.84 139.29 101.98 139.79 101.77 140.63 Z M 101.51 141.65 L 101.32 142.60 C 101.14 143.45 101.69 144.27 102.54 144.44 C 103.38 144.62 104.20 144.07 104.38 143.22 L 104.57 142.27 C 104.74 141.42 104.20 140.60 103.35 140.43 C 102.51 140.26 101.68 140.80 101.51 141.65 Z M 101.30 142.69 L 101.15 143.69 C 101.03 144.54 101.62 145.34 102.47 145.46 C 103.33 145.59 104.12 145.00 104.24 144.14 L 104.39 143.14 C 104.52 142.29 103.93 141.49 103.07 141.37 C 102.22 141.24 101.43 141.83 101.30 142.69 Z M 101.14 143.77 L 101.05 144.77 C 100.97 145.63 101.60 146.39 102.46 146.48 C 103.32 146.56 104.08 145.93 104.16 145.07 L 104.25 144.06 C 104.33 143.20 103.70 142.44 102.85 142.36 C 101.99 142.28 101.23 142.91 101.14 143.77 Z M 101.04 144.85 L 101.00 145.89 C 100.96 146.75 101.63 147.48 102.49 147.52 C 103.35 147.56 104.08 146.89 104.12 146.03 L 104.16 144.99 C 104.20 144.13 103.53 143.40 102.67 143.36 C 101.81 143.32 101.08 143.99 101.04 144.85 Z M 101.00 145.98 L 101.01 147.00 C 101.02 147.87 101.73 148.56 102.60 148.54 C 103.46 148.53 104.15 147.82 104.13 146.96 L 104.12 145.94 C 104.11 145.07 103.40 144.39 102.54 144.40 C 101.67 144.41 100.99 145.12 101.00 145.98 Z M 101.02 147.12 L 101.10 148.09 C 101.18 148.94 101.94 149.58 102.79 149.50 C 103.65 149.43 104.29 148.67 104.21 147.81 L 104.13 146.85 C 104.05 145.99 103.30 145.35 102.44 145.43 C 101.58 145.50 100.94 146.26 101.02 147.12 Z M 101.13 148.25 L 101.32 149.21 C 101.48 150.06 102.30 150.61 103.15 150.44 C 104.00 150.28 104.55 149.46 104.38 148.61 L 104.19 147.65 C 104.02 146.80 103.20 146.25 102.36 146.42 C 101.51 146.58 100.96 147.41 101.13 148.25 Z M 101.37 149.43 L 101.70 150.35 C 101.98 151.17 102.88 151.59 103.69 151.31 C 104.50 151.02 104.93 150.13 104.64 149.32 L 104.32 148.39 C 104.04 147.58 103.14 147.15 102.33 147.44 C 101.52 147.72 101.09 148.62 101.37 149.43 Z M 101.78 150.54 L 102.21 151.39 C 102.60 152.16 103.54 152.47 104.31 152.09 C 105.08 151.70 105.39 150.76 105.00 149.99 L 104.57 149.13 C 104.18 148.36 103.24 148.05 102.47 148.44 C 101.70 148.83 101.39 149.77 101.78 150.54 Z M 102.27 151.50 L 102.79 152.37 C 103.24 153.11 104.20 153.35 104.93 152.90 C 105.67 152.46 105.91 151.50 105.47 150.76 L 104.94 149.89 C 104.50 149.15 103.54 148.91 102.80 149.35 C 102.06 149.80 101.82 150.76 102.27 151.50 Z M 102.81 152.40 L 103.29 153.16 C 103.74 153.88 104.71 154.10 105.44 153.64 C 106.17 153.18 106.39 152.22 105.93 151.49 L 105.45 150.73 C 104.99 150.01 104.03 149.79 103.30 150.25 C 102.57 150.71 102.35 151.67 102.81 152.40 Z M 103.29 153.16 L 103.79 153.95 C 104.25 154.68 105.22 154.89 105.95 154.43 C 106.67 153.96 106.89 153.00 106.42 152.27 L 105.92 151.48 C 105.46 150.76 104.50 150.54 103.77 151.01 C 103.04 151.47 102.83 152.43 103.29 153.16 Z M 103.79 153.95 L 104.33 154.80 C 104.80 155.52 105.76 155.73 106.49 155.27 C 107.22 154.80 107.43 153.84 106.96 153.11 L 106.42 152.27 C 105.96 151.54 104.99 151.33 104.27 151.80 C 103.54 152.26 103.33 153.23 103.79 153.95 Z M 104.33 154.80 L 104.91 155.70 C 105.38 156.42 106.34 156.63 107.07 156.16 C 107.79 155.70 108.00 154.73 107.54 154.01 L 106.96 153.11 C 106.50 152.39 105.53 152.17 104.80 152.64 C 104.08 153.11 103.87 154.07 104.33 154.80 Z M 104.91 155.70 L 105.51 156.63 C 105.98 157.36 106.95 157.57 107.67 157.10 C 108.40 156.64 108.61 155.67 108.14 154.94 L 107.54 154.01 C 107.07 153.28 106.11 153.07 105.38 153.54 C 104.65 154.00 104.44 154.97 104.91 155.70 Z M 105.51 156.63 L 106.06 157.48 C 106.52 158.20 107.49 158.41 108.21 157.95 C 108.94 157.48 109.15 156.52 108.68 155.79 L 108.14 154.95 C 107.67 154.22 106.71 154.01 105.98 154.48 C 105.26 154.94 105.05 155.91 105.51 156.63 Z M 106.05 157.47 L 106.61 158.34 C 107.07 159.06 108.04 159.27 108.76 158.81 C 109.49 158.35 109.70 157.38 109.24 156.65 L 108.68 155.79 C 108.22 155.07 107.25 154.85 106.53 155.32 C 105.80 155.78 105.59 156.75 106.05 157.47 Z M 106.60 158.33 L 107.16 159.20 C 107.62 159.93 108.58 160.14 109.31 159.68 C 110.04 159.21 110.25 158.25 109.79 157.52 L 109.24 156.66 C 108.77 155.93 107.81 155.72 107.08 156.18 C 106.35 156.64 106.14 157.61 106.60 158.33 Z M 107.15 159.20 L 107.69 160.05 C 108.15 160.78 109.12 160.99 109.85 160.53 C 110.58 160.07 110.79 159.10 110.33 158.38 L 109.79 157.52 C 109.33 156.80 108.36 156.58 107.64 157.04 C 106.91 157.50 106.69 158.47 107.15 159.20 Z M 107.69 160.04 L 108.21 160.87 C 108.67 161.60 109.63 161.82 110.36 161.36 C 111.09 160.90 111.31 159.94 110.85 159.21 L 110.33 158.38 C 109.88 157.65 108.91 157.43 108.18 157.89 C 107.45 158.35 107.23 159.31 107.69 160.04 Z M 108.20 160.86 L 108.74 161.72 C 109.19 162.45 110.15 162.68 110.89 162.22 C 111.62 161.77 111.84 160.80 111.39 160.07 L 110.86 159.21 C 110.40 158.48 109.44 158.26 108.71 158.71 C 107.97 159.17 107.75 160.13 108.20 160.86 Z M 108.73 161.71 L 109.28 162.60 C 109.73 163.34 110.69 163.57 111.42 163.12 C 112.16 162.67 112.39 161.71 111.94 160.97 L 111.40 160.08 C 110.94 159.35 109.98 159.11 109.25 159.56 C 108.51 160.01 108.28 160.98 108.73 161.71 Z M 109.27 162.59 L 109.78 163.44 C 110.23 164.18 111.19 164.41 111.93 163.97 C 112.67 163.52 112.90 162.56 112.46 161.82 L 111.94 160.98 C 111.50 160.24 110.54 160.00 109.80 160.45 C 109.06 160.90 108.83 161.86 109.27 162.59 Z M 109.78 163.44 L 110.28 164.26 C 110.72 165.00 111.68 165.24 112.42 164.79 C 113.16 164.35 113.40 163.39 112.95 162.65 L 112.46 161.83 C 112.01 161.09 111.06 160.85 110.32 161.29 C 109.58 161.74 109.34 162.70 109.78 163.44 Z M 110.28 164.26 L 110.77 165.09 C 111.22 165.83 112.18 166.06 112.92 165.62 C 113.66 165.18 113.90 164.22 113.45 163.48 L 112.95 162.65 C 112.51 161.91 111.55 161.67 110.81 162.12 C 110.07 162.56 109.83 163.52 110.28 164.26 Z M 110.78 165.09 L 111.27 165.90 C 111.71 166.64 112.67 166.88 113.41 166.43 C 114.15 165.98 114.39 165.03 113.94 164.29 L 113.45 163.47 C 113.00 162.74 112.04 162.50 111.31 162.95 C 110.57 163.39 110.33 164.35 110.78 165.09 Z M 111.27 165.91 L 111.77 166.74 C 112.22 167.47 113.18 167.71 113.92 167.26 C 114.66 166.81 114.89 165.85 114.44 165.12 L 113.94 164.28 C 113.49 163.55 112.53 163.31 111.79 163.76 C 111.06 164.21 110.82 165.17 111.27 165.91 Z M 111.78 166.74 L 112.29 167.59 C 112.74 168.33 113.70 168.56 114.44 168.11 C 115.18 167.66 115.41 166.70 114.96 165.97 L 114.44 165.11 C 113.99 164.38 113.03 164.14 112.30 164.59 C 111.56 165.04 111.33 166.00 111.78 166.74 Z M 112.29 167.59 L 112.83 168.47 C 113.28 169.20 114.24 169.44 114.97 168.99 C 115.71 168.54 115.94 167.58 115.50 166.84 L 114.96 165.97 C 114.51 165.23 113.55 165.00 112.82 165.45 C 112.08 165.89 111.85 166.85 112.29 167.59 Z M 112.83 168.47 L 113.37 169.36 C 113.82 170.10 114.78 170.33 115.51 169.88 C 116.25 169.44 116.49 168.48 116.04 167.74 L 115.50 166.85 C 115.05 166.11 114.09 165.87 113.35 166.32 C 112.61 166.77 112.38 167.73 112.83 168.47 Z M 113.37 169.36 L 113.86 170.17 C 114.30 170.91 115.26 171.14 116.00 170.70 C 116.74 170.25 116.98 169.29 116.53 168.55 L 116.04 167.74 C 115.59 167.00 114.63 166.77 113.90 167.21 C 113.16 167.66 112.92 168.62 113.37 169.36 Z M 113.86 170.17 L 114.36 171.00 C 114.80 171.73 115.76 171.97 116.50 171.53 C 117.24 171.08 117.48 170.12 117.03 169.38 L 116.53 168.55 C 116.09 167.82 115.13 167.58 114.39 168.02 C 113.65 168.47 113.41 169.43 113.86 170.17 Z M 114.36 170.99 L 114.87 171.84 C 115.31 172.58 116.27 172.82 117.01 172.38 C 117.75 171.93 117.99 170.97 117.54 170.23 L 117.03 169.38 C 116.59 168.64 115.63 168.41 114.89 168.85 C 114.15 169.30 113.91 170.26 114.36 170.99 Z M 114.87 171.84 L 115.40 172.72 C 115.84 173.46 116.80 173.69 117.54 173.25 C 118.28 172.80 118.51 171.84 118.07 171.11 L 117.54 170.23 C 117.10 169.49 116.14 169.26 115.40 169.70 C 114.66 170.15 114.42 171.11 114.87 171.84 Z M 115.40 172.72 L 115.94 173.61 C 116.38 174.35 117.34 174.59 118.08 174.14 C 118.82 173.70 119.06 172.74 118.61 172.00 L 118.07 171.10 C 117.62 170.37 116.66 170.13 115.93 170.57 C 115.19 171.02 114.95 171.98 115.40 172.72 Z M 115.94 173.62 L 116.47 174.49 C 116.91 175.23 117.87 175.46 118.61 175.02 C 119.35 174.57 119.58 173.61 119.14 172.87 L 118.61 172.00 C 118.16 171.26 117.20 171.03 116.47 171.47 C 115.73 171.92 115.49 172.88 115.94 173.62 Z M 116.47 174.49 L 116.98 175.34 C 117.43 176.08 118.39 176.31 119.13 175.86 C 119.87 175.42 120.10 174.46 119.65 173.72 L 119.14 172.87 C 118.69 172.13 117.73 171.90 116.99 172.35 C 116.25 172.79 116.02 173.75 116.47 174.49 Z M 116.99 175.34 L 117.51 176.20 C 117.96 176.94 118.92 177.17 119.66 176.72 C 120.39 176.27 120.63 175.31 120.18 174.58 L 119.65 173.72 C 119.20 172.98 118.24 172.75 117.50 173.20 C 116.77 173.65 116.54 174.61 116.99 175.34 Z M 117.51 176.21 L 118.05 177.07 C 118.50 177.81 119.46 178.03 120.19 177.58 C 120.93 177.13 121.16 176.17 120.70 175.43 L 120.17 174.57 C 119.72 173.84 118.76 173.61 118.03 174.06 C 117.29 174.51 117.06 175.48 117.51 176.21 Z M 118.05 177.08 L 118.58 177.93 C 119.04 178.67 120.00 178.89 120.73 178.43 C 121.46 177.98 121.69 177.02 121.23 176.28 L 120.70 175.43 C 120.24 174.70 119.28 174.47 118.55 174.93 C 117.82 175.38 117.59 176.35 118.05 177.08 Z M 118.59 177.94 L 119.12 178.78 C 119.58 179.51 120.54 179.73 121.27 179.27 C 122.00 178.81 122.22 177.85 121.76 177.12 L 121.23 176.28 C 120.77 175.55 119.80 175.33 119.08 175.79 C 118.35 176.25 118.13 177.21 118.59 177.94 Z M 119.12 178.79 L 119.67 179.65 C 120.13 180.37 121.10 180.58 121.83 180.12 C 122.55 179.65 122.76 178.69 122.30 177.96 L 121.75 177.11 C 121.29 176.38 120.32 176.17 119.60 176.64 C 118.87 177.10 118.66 178.07 119.12 178.79 Z M 119.68 179.66 L 120.23 180.51 C 120.70 181.24 121.67 181.44 122.39 180.97 C 123.12 180.50 123.32 179.53 122.85 178.81 L 122.29 177.95 C 121.82 177.23 120.86 177.03 120.13 177.50 C 119.41 177.97 119.21 178.93 119.68 179.66 Z M 120.24 180.52 L 120.79 181.36 C 121.27 182.08 122.24 182.28 122.96 181.80 C 123.68 181.33 123.87 180.36 123.40 179.64 L 122.84 178.80 C 122.37 178.08 121.40 177.88 120.68 178.36 C 119.96 178.83 119.76 179.80 120.24 180.52 Z M 120.80 181.37 L 121.35 182.19 C 121.83 182.91 122.80 183.10 123.51 182.62 C 124.23 182.14 124.42 181.17 123.94 180.45 L 123.39 179.63 C 122.91 178.91 121.94 178.72 121.23 179.20 C 120.51 179.68 120.32 180.65 120.80 181.37 Z M 121.35 182.19 L 121.90 183.01 C 122.38 183.72 123.36 183.91 124.07 183.43 C 124.78 182.95 124.97 181.98 124.49 181.26 L 123.94 180.45 C 123.46 179.73 122.49 179.54 121.77 180.03 C 121.06 180.51 120.87 181.48 121.35 182.19 Z M 121.90 183.01 L 122.46 183.82 C 122.94 184.54 123.91 184.72 124.62 184.24 C 125.34 183.75 125.52 182.78 125.04 182.07 L 124.49 181.26 C 124.00 180.54 123.03 180.36 122.32 180.84 C 121.61 181.33 121.42 182.30 121.90 183.01 Z M 122.46 183.83 L 123.02 184.65 C 123.50 185.36 124.47 185.55 125.19 185.06 C 125.90 184.57 126.08 183.60 125.60 182.89 L 125.04 182.07 C 124.55 181.36 123.58 181.17 122.87 181.66 C 122.16 182.14 121.97 183.11 122.46 183.83 Z M 123.02 184.65 L 123.58 185.48 C 124.07 186.19 125.04 186.37 125.75 185.89 C 126.46 185.40 126.65 184.43 126.16 183.72 L 125.60 182.89 C 125.11 182.18 124.14 181.99 123.43 182.48 C 122.72 182.97 122.53 183.94 123.02 184.65 Z M 123.58 185.48 L 124.15 186.30 C 124.64 187.02 125.61 187.20 126.32 186.71 C 127.03 186.23 127.21 185.26 126.73 184.54 L 126.16 183.72 C 125.67 183.00 124.70 182.82 123.99 183.31 C 123.28 183.79 123.10 184.76 123.58 185.48 Z M 124.15 186.30 L 124.71 187.13 C 125.20 187.84 126.17 188.03 126.88 187.54 C 127.60 187.05 127.78 186.08 127.29 185.37 L 126.73 184.54 C 126.24 183.83 125.27 183.65 124.56 184.13 C 123.85 184.62 123.66 185.59 124.15 186.30 Z M 124.71 187.13 L 125.28 187.96 C 125.76 188.67 126.73 188.85 127.45 188.37 C 128.16 187.88 128.34 186.91 127.86 186.20 L 127.29 185.37 C 126.81 184.66 125.84 184.48 125.12 184.96 C 124.41 185.45 124.23 186.42 124.71 187.13 Z M 125.28 187.96 L 125.84 188.78 C 126.33 189.50 127.30 189.68 128.01 189.20 C 128.72 188.71 128.91 187.74 128.42 187.03 L 127.86 186.20 C 127.37 185.49 126.40 185.30 125.69 185.79 C 124.98 186.27 124.79 187.24 125.28 187.96 Z M 125.84 188.78 L 126.41 189.62 C 126.89 190.33 127.86 190.52 128.58 190.03 C 129.29 189.55 129.48 188.58 128.99 187.87 L 128.42 187.03 C 127.94 186.32 126.97 186.13 126.25 186.61 C 125.54 187.10 125.36 188.07 125.84 188.78 Z M 126.41 189.62 L 126.97 190.45 C 127.46 191.17 128.43 191.35 129.14 190.87 C 129.85 190.38 130.04 189.41 129.56 188.70 L 128.99 187.87 C 128.51 187.15 127.54 186.97 126.82 187.45 C 126.11 187.93 125.92 188.91 126.41 189.62 Z M 126.97 190.45 L 127.53 191.28 C 128.01 191.99 128.98 192.18 129.70 191.70 C 130.41 191.21 130.60 190.24 130.12 189.53 L 129.56 188.70 C 129.07 187.99 128.10 187.80 127.39 188.28 C 126.68 188.76 126.49 189.74 126.97 190.45 Z M 127.53 191.28 L 128.08 192.10 C 128.57 192.81 129.54 193.00 130.25 192.52 C 130.97 192.04 131.16 191.07 130.67 190.35 L 130.12 189.53 C 129.64 188.82 128.67 188.63 127.95 189.11 C 127.24 189.59 127.05 190.56 127.53 191.28 Z M 128.08 192.10 L 128.63 192.92 C 129.12 193.63 130.09 193.82 130.80 193.34 C 131.52 192.86 131.71 191.89 131.23 191.17 L 130.67 190.36 C 130.19 189.64 129.22 189.45 128.51 189.93 C 127.79 190.41 127.60 191.38 128.08 192.10 Z M 128.63 192.92 L 129.20 193.76 C 129.68 194.47 130.65 194.66 131.36 194.18 C 132.08 193.70 132.27 192.73 131.79 192.02 L 131.23 191.18 C 130.75 190.46 129.78 190.27 129.06 190.75 C 128.34 191.23 128.15 192.20 128.63 192.92 Z M 129.20 193.75 L 129.76 194.59 C 130.24 195.31 131.20 195.50 131.92 195.03 C 132.64 194.55 132.83 193.58 132.35 192.86 L 131.79 192.02 C 131.31 191.30 130.34 191.11 129.63 191.59 C 128.91 192.07 128.72 193.04 129.20 193.75 Z M 129.75 194.59 L 130.31 195.43 C 130.79 196.14 131.75 196.34 132.47 195.86 C 133.19 195.39 133.39 194.42 132.91 193.70 L 132.36 192.86 C 131.88 192.15 130.91 191.95 130.19 192.43 C 129.47 192.90 129.28 193.87 129.75 194.59 Z M 130.31 195.42 L 130.85 196.25 C 131.33 196.97 132.30 197.17 133.02 196.70 C 133.74 196.22 133.93 195.25 133.46 194.53 L 132.91 193.70 C 132.44 192.98 131.47 192.78 130.75 193.26 C 130.03 193.73 129.83 194.70 130.31 195.42 Z M 130.85 196.25 L 131.39 197.07 C 131.86 197.79 132.83 198.00 133.55 197.53 C 134.27 197.05 134.47 196.09 134.00 195.37 L 133.46 194.54 C 132.99 193.82 132.03 193.61 131.30 194.09 C 130.58 194.56 130.38 195.52 130.85 196.25 Z M 131.38 197.06 L 131.92 197.90 C 132.39 198.63 133.36 198.83 134.08 198.37 C 134.81 197.90 135.01 196.93 134.55 196.21 L 134.01 195.37 C 133.54 194.65 132.57 194.44 131.85 194.91 C 131.12 195.37 130.92 196.34 131.38 197.06 Z M 131.92 197.89 L 132.46 198.74 C 132.92 199.47 133.88 199.68 134.61 199.22 C 135.34 198.75 135.55 197.79 135.09 197.06 L 134.55 196.22 C 134.09 195.49 133.12 195.28 132.40 195.74 C 131.67 196.20 131.46 197.17 131.92 197.89 Z M 132.45 198.73 L 132.98 199.57 C 133.44 200.30 134.40 200.52 135.13 200.07 C 135.86 199.61 136.08 198.64 135.62 197.91 L 135.09 197.07 C 134.64 196.34 133.67 196.12 132.94 196.58 C 132.21 197.04 131.99 198.00 132.45 198.73 Z M 132.98 199.57 L 133.50 200.41 C 133.96 201.15 134.92 201.37 135.65 200.92 C 136.38 200.46 136.61 199.50 136.15 198.77 L 135.63 197.92 C 135.17 197.19 134.21 196.96 133.48 197.42 C 132.75 197.87 132.52 198.83 132.98 199.57 Z M 133.50 200.41 L 134.02 201.26 C 134.47 201.99 135.43 202.22 136.17 201.77 C 136.90 201.32 137.13 200.36 136.68 199.63 L 136.16 198.77 C 135.71 198.04 134.75 197.81 134.01 198.26 C 133.28 198.71 133.05 199.67 133.50 200.41 Z M 134.02 201.25 L 134.54 202.12 C 134.99 202.86 135.95 203.10 136.69 202.65 C 137.43 202.20 137.66 201.24 137.21 200.51 L 136.69 199.63 C 136.24 198.90 135.28 198.66 134.54 199.11 C 133.80 199.55 133.57 200.51 134.02 201.25 Z M 134.54 202.12 L 135.07 203.00 C 135.51 203.74 136.47 203.98 137.21 203.54 C 137.95 203.10 138.19 202.14 137.75 201.40 L 137.22 200.51 C 136.77 199.77 135.82 199.53 135.08 199.98 C 134.34 200.42 134.10 201.38 134.54 202.12 Z M 135.07 203.00 L 135.59 203.88 C 136.03 204.62 136.99 204.86 137.73 204.42 C 138.47 203.98 138.72 203.02 138.27 202.28 L 137.75 201.40 C 137.31 200.66 136.35 200.42 135.61 200.86 C 134.87 201.30 134.63 202.26 135.07 203.00 Z M 135.59 203.87 L 136.10 204.73 C 136.54 205.47 137.50 205.72 138.24 205.28 C 138.98 204.84 139.22 203.88 138.78 203.14 L 138.28 202.28 C 137.84 201.54 136.88 201.30 136.14 201.74 C 135.39 202.17 135.15 203.13 135.59 203.87 Z M 136.10 204.73 L 136.59 205.56 C 137.03 206.30 137.98 206.55 138.73 206.11 C 139.47 205.67 139.71 204.71 139.27 203.97 L 138.78 203.14 C 138.35 202.40 137.39 202.15 136.65 202.59 C 135.90 203.03 135.66 203.99 136.10 204.73 Z M 136.59 205.56 L 137.11 206.45 C 137.55 207.19 138.51 207.43 139.25 206.99 C 140.00 206.55 140.24 205.60 139.80 204.85 L 139.27 203.97 C 138.83 203.23 137.88 202.98 137.13 203.42 C 136.39 203.86 136.15 204.82 136.59 205.56 Z M 137.12 206.45 L 137.65 207.35 C 138.10 208.09 139.05 208.34 139.79 207.90 C 140.53 207.45 140.78 206.50 140.34 205.76 L 139.80 204.85 C 139.36 204.11 138.40 203.87 137.66 204.31 C 136.92 204.75 136.67 205.71 137.12 206.45 Z M 137.65 207.35 L 138.16 208.20 C 138.60 208.94 139.56 209.18 140.30 208.74 C 141.04 208.30 141.28 207.34 140.84 206.60 L 140.34 205.75 C 139.89 205.01 138.94 204.77 138.19 205.21 C 137.45 205.66 137.21 206.61 137.65 207.35 Z M 138.16 208.20 L 138.64 209.01 C 139.08 209.75 140.04 209.99 140.78 209.55 C 141.52 209.11 141.76 208.15 141.32 207.41 L 140.84 206.60 C 140.40 205.86 139.44 205.62 138.70 206.06 C 137.96 206.50 137.72 207.46 138.16 208.20 Z M 138.64 209.01 L 139.12 209.81 C 139.56 210.55 140.52 210.79 141.26 210.35 C 142.00 209.91 142.24 208.95 141.80 208.21 L 141.32 207.41 C 140.88 206.67 139.92 206.43 139.18 206.87 C 138.44 207.31 138.20 208.27 138.64 209.01 Z M 139.12 209.81 L 139.61 210.63 C 140.05 211.37 141.01 211.61 141.75 211.17 C 142.49 210.72 142.73 209.77 142.29 209.03 L 141.80 208.21 C 141.36 207.47 140.40 207.23 139.66 207.67 C 138.92 208.11 138.68 209.07 139.12 209.81 Z M 139.61 210.64 L 140.12 211.48 C 140.57 212.22 141.53 212.45 142.27 212.00 C 143.01 211.55 143.24 210.59 142.79 209.86 L 142.28 209.02 C 141.83 208.28 140.87 208.04 140.14 208.49 C 139.40 208.94 139.17 209.90 139.61 210.64 Z M 140.13 211.49 L 140.70 212.39 C 141.15 213.13 142.11 213.35 142.85 212.89 C 143.58 212.44 143.80 211.48 143.35 210.74 L 142.78 209.84 C 142.33 209.11 141.37 208.89 140.63 209.34 C 139.90 209.80 139.68 210.76 140.13 211.49 Z M 140.71 212.41 L 141.24 213.25 C 141.71 213.97 142.67 214.19 143.40 213.72 C 144.13 213.26 144.34 212.29 143.87 211.56 L 143.33 210.73 C 142.87 210.00 141.90 209.79 141.18 210.26 C 140.45 210.72 140.24 211.69 140.71 212.41 Z M 141.26 213.27 L 141.82 214.11 C 142.30 214.83 143.27 215.02 143.98 214.54 C 144.70 214.06 144.89 213.09 144.41 212.37 L 143.85 211.54 C 143.38 210.82 142.41 210.63 141.69 211.11 C 140.97 211.59 140.78 212.56 141.26 213.27 Z M 141.84 214.15 L 142.44 214.98 C 142.94 215.69 143.92 215.85 144.62 215.35 C 145.32 214.85 145.48 213.87 144.98 213.17 L 144.39 212.33 C 143.89 211.63 142.91 211.47 142.21 211.97 C 141.51 212.47 141.34 213.45 141.84 214.15 Z M 142.48 215.04 L 143.11 215.84 C 143.64 216.52 144.62 216.64 145.30 216.11 C 145.98 215.58 146.10 214.60 145.57 213.92 L 144.94 213.12 C 144.41 212.44 143.43 212.32 142.75 212.85 C 142.07 213.38 141.95 214.36 142.48 215.04 Z M 143.17 215.92 L 143.84 216.67 C 144.41 217.32 145.40 217.38 146.04 216.80 C 146.69 216.23 146.75 215.25 146.18 214.60 L 145.51 213.85 C 144.94 213.20 143.95 213.14 143.30 213.71 C 142.66 214.28 142.60 215.27 143.17 215.92 Z M 143.96 216.79 L 144.83 217.58 C 145.47 218.16 146.45 218.12 147.03 217.48 C 147.61 216.84 147.57 215.86 146.93 215.28 L 146.06 214.48 C 145.42 213.90 144.43 213.95 143.85 214.58 C 143.27 215.22 143.32 216.21 143.96 216.79 Z M 145.07 217.77 L 145.94 218.29 C 146.68 218.73 147.64 218.49 148.08 217.75 C 148.52 217.01 148.29 216.06 147.55 215.61 L 146.68 215.09 C 145.95 214.65 144.99 214.89 144.54 215.63 C 144.10 216.36 144.34 217.32 145.07 217.77 Z M 146.45 218.48 L 147.27 218.64 C 148.12 218.81 148.94 218.25 149.10 217.40 C 149.27 216.56 148.71 215.74 147.87 215.58 L 147.04 215.42 C 146.19 215.25 145.37 215.81 145.21 216.65 C 145.05 217.50 145.60 218.32 146.45 218.48 Z M 148.08 218.58 L 148.82 218.33 C 149.63 218.04 150.06 217.15 149.78 216.34 C 149.49 215.53 148.60 215.10 147.79 215.38 L 147.06 215.63 C 146.24 215.92 145.81 216.81 146.10 217.62 C 146.38 218.44 147.27 218.87 148.08 218.58 Z M 149.36 218.01 L 150.01 217.41 C 150.64 216.83 150.69 215.84 150.11 215.20 C 149.52 214.57 148.54 214.52 147.90 215.10 L 147.25 215.70 C 146.61 216.28 146.57 217.27 147.15 217.91 C 147.73 218.54 148.72 218.59 149.36 218.01 Z M 150.21 217.18 L 150.83 216.34 C 151.34 215.65 151.19 214.67 150.49 214.16 C 149.80 213.65 148.82 213.80 148.31 214.50 L 147.70 215.33 C 147.19 216.03 147.34 217.00 148.03 217.51 C 148.72 218.03 149.70 217.88 150.21 217.18 Z M 150.90 216.24 L 151.50 215.26 C 151.95 214.53 151.71 213.57 150.98 213.12 C 150.24 212.67 149.28 212.90 148.83 213.63 L 148.24 214.60 C 147.79 215.34 148.02 216.30 148.75 216.75 C 149.49 217.20 150.45 216.97 150.90 216.24 Z M 151.51 215.24 L 151.66 214.98 C 152.10 214.24 151.85 213.28 151.10 212.85 C 150.36 212.41 149.40 212.66 148.97 213.40 L 148.82 213.66 C 148.38 214.40 148.63 215.36 149.37 215.80 C 150.12 216.23 151.07 215.98 151.51 215.24 Z"
      fill="black"
      fill-rule="nonzero" /><path d="M 191.02 60.47 L 190.00 60.47 C 189.14 60.48 188.45 61.18 188.45 62.04 C 188.45 62.90 189.15 63.60 190.02 63.60 L 191.03 63.59 C 191.90 63.59 192.59 62.89 192.59 62.02 C 192.59 61.16 191.88 60.47 191.02 60.47 Z M 189.97 60.47 L 188.96 60.50 C 188.10 60.53 187.42 61.25 187.44 62.11 C 187.47 62.97 188.18 63.65 189.05 63.62 L 190.05 63.60 C 190.92 63.57 191.60 62.85 191.57 61.99 C 191.55 61.13 190.83 60.45 189.97 60.47 Z M 188.88 60.51 L 187.89 60.58 C 187.03 60.65 186.39 61.40 186.46 62.26 C 186.52 63.12 187.27 63.76 188.13 63.70 L 189.12 63.62 C 189.98 63.55 190.63 62.80 190.56 61.94 C 190.49 61.08 189.74 60.44 188.88 60.51 Z M 187.77 60.60 L 186.80 60.75 C 185.95 60.89 185.36 61.68 185.50 62.54 C 185.63 63.39 186.43 63.97 187.28 63.84 L 188.25 63.68 C 189.11 63.55 189.69 62.75 189.55 61.90 C 189.42 61.05 188.62 60.47 187.77 60.60 Z M 186.64 60.78 L 185.64 61.05 C 184.80 61.27 184.31 62.12 184.53 62.96 C 184.75 63.79 185.60 64.29 186.44 64.07 L 187.44 63.80 C 188.27 63.58 188.77 62.73 188.55 61.90 C 188.33 61.06 187.48 60.56 186.64 60.78 Z M 185.49 61.10 L 184.54 61.45 C 183.73 61.76 183.33 62.66 183.63 63.46 C 183.93 64.27 184.83 64.68 185.64 64.38 L 186.59 64.02 C 187.39 63.72 187.80 62.82 187.50 62.01 C 187.20 61.20 186.29 60.79 185.49 61.10 Z M 184.41 61.51 L 183.53 61.94 C 182.75 62.32 182.43 63.25 182.81 64.02 C 183.19 64.80 184.12 65.12 184.90 64.75 L 185.77 64.32 C 186.55 63.94 186.87 63.01 186.49 62.23 C 186.12 61.46 185.18 61.13 184.41 61.51 Z M 183.40 62.01 L 182.58 62.51 C 181.84 62.95 181.61 63.91 182.05 64.65 C 182.50 65.39 183.46 65.62 184.20 65.18 L 185.02 64.68 C 185.76 64.23 186.00 63.27 185.55 62.53 C 185.10 61.79 184.14 61.56 183.40 62.01 Z M 182.46 62.59 L 181.68 63.16 C 180.99 63.68 180.84 64.65 181.35 65.35 C 181.86 66.04 182.84 66.19 183.53 65.67 L 184.32 65.10 C 185.01 64.58 185.16 63.61 184.64 62.91 C 184.13 62.22 183.15 62.07 182.46 62.59 Z M 181.59 63.24 L 180.84 63.89 C 180.18 64.45 180.11 65.44 180.68 66.09 C 181.24 66.74 182.23 66.81 182.88 66.25 L 183.63 65.60 C 184.28 65.04 184.35 64.05 183.79 63.40 C 183.22 62.75 182.24 62.67 181.59 63.24 Z M 180.78 63.94 L 180.03 64.65 C 179.41 65.24 179.39 66.23 179.98 66.86 C 180.58 67.48 181.57 67.50 182.19 66.91 L 182.94 66.20 C 183.56 65.60 183.58 64.61 182.99 63.99 C 182.39 63.36 181.40 63.34 180.78 63.94 Z M 180.01 64.67 L 179.31 65.37 C 178.70 65.98 178.70 66.97 179.31 67.58 C 179.92 68.19 180.91 68.19 181.52 67.58 L 182.21 66.88 C 182.82 66.27 182.83 65.29 182.22 64.68 C 181.61 64.07 180.62 64.06 180.01 64.67 Z M 179.30 65.38 L 178.59 66.11 C 177.98 66.73 177.99 67.71 178.61 68.32 C 179.22 68.92 180.21 68.91 180.82 68.30 L 181.53 67.57 C 182.13 66.95 182.12 65.96 181.51 65.36 C 180.89 64.76 179.90 64.77 179.30 65.38 Z M 178.58 66.12 L 177.87 66.84 C 177.27 67.46 177.29 68.45 177.91 69.05 C 178.52 69.65 179.51 69.64 180.11 69.02 L 180.82 68.29 C 181.42 67.67 181.41 66.68 180.79 66.08 C 180.17 65.48 179.18 65.50 178.58 66.12 Z M 177.87 66.84 L 177.17 67.57 C 176.56 68.19 176.58 69.18 177.19 69.78 C 177.81 70.38 178.80 70.37 179.40 69.75 L 180.11 69.02 C 180.71 68.40 180.70 67.41 180.08 66.81 C 179.46 66.21 178.48 66.22 177.87 66.84 Z M 177.17 67.57 L 176.45 68.31 C 175.84 68.92 175.85 69.91 176.47 70.51 C 177.09 71.12 178.07 71.11 178.68 70.49 L 179.40 69.75 C 180.00 69.14 179.99 68.15 179.38 67.54 C 178.76 66.94 177.77 66.95 177.17 67.57 Z M 176.44 68.31 L 175.76 69.02 C 175.16 69.64 175.17 70.63 175.79 71.22 C 176.41 71.82 177.40 71.81 178.00 71.19 L 178.68 70.48 C 179.28 69.86 179.27 68.88 178.65 68.28 C 178.03 67.68 177.04 67.69 176.44 68.31 Z M 175.74 69.03 L 175.08 69.73 C 174.49 70.36 174.52 71.35 175.15 71.94 C 175.78 72.53 176.77 72.50 177.36 71.87 L 178.02 71.17 C 178.61 70.54 178.58 69.56 177.95 68.97 C 177.32 68.37 176.33 68.41 175.74 69.03 Z M 175.06 69.76 L 174.42 70.47 C 173.84 71.12 173.90 72.10 174.54 72.68 C 175.18 73.25 176.17 73.20 176.74 72.56 L 177.38 71.85 C 177.96 71.20 177.91 70.22 177.26 69.64 C 176.62 69.07 175.64 69.12 175.06 69.76 Z M 174.40 70.49 L 173.76 71.24 C 173.19 71.89 173.26 72.87 173.91 73.44 C 174.56 74.00 175.55 73.93 176.11 73.28 L 176.76 72.54 C 177.33 71.89 177.26 70.90 176.60 70.34 C 175.95 69.77 174.97 69.84 174.40 70.49 Z M 173.75 71.25 L 173.08 72.02 C 172.52 72.68 172.60 73.66 173.25 74.23 C 173.91 74.79 174.89 74.71 175.45 74.05 L 176.12 73.28 C 176.68 72.62 176.61 71.63 175.95 71.07 C 175.30 70.51 174.31 70.59 173.75 71.25 Z M 173.08 72.02 L 172.44 72.77 C 171.88 73.43 171.96 74.41 172.61 74.97 C 173.26 75.54 174.25 75.46 174.81 74.81 L 175.45 74.06 C 176.01 73.40 175.94 72.42 175.28 71.85 C 174.63 71.29 173.64 71.37 173.08 72.02 Z M 172.44 72.77 L 171.82 73.50 C 171.25 74.15 171.33 75.14 171.98 75.70 C 172.63 76.26 173.62 76.19 174.18 75.54 L 174.81 74.81 C 175.37 74.15 175.30 73.17 174.64 72.61 C 173.99 72.04 173.00 72.12 172.44 72.77 Z M 171.81 73.50 L 171.16 74.26 C 170.60 74.92 170.67 75.90 171.33 76.47 C 171.98 77.03 172.97 76.95 173.53 76.30 L 174.18 75.53 C 174.74 74.88 174.67 73.89 174.02 73.33 C 173.36 72.77 172.38 72.85 171.81 73.50 Z M 171.16 74.27 L 170.48 75.06 C 169.92 75.72 170.00 76.71 170.66 77.26 C 171.31 77.82 172.30 77.74 172.86 77.09 L 173.53 76.29 C 174.09 75.64 174.01 74.65 173.36 74.09 C 172.70 73.53 171.71 73.61 171.16 74.27 Z M 170.47 75.07 L 169.82 75.84 C 169.27 76.50 169.36 77.49 170.02 78.04 C 170.68 78.60 171.66 78.51 172.22 77.85 L 172.86 77.08 C 173.42 76.42 173.33 75.43 172.67 74.88 C 172.01 74.33 171.03 74.41 170.47 75.07 Z M 169.82 75.85 L 169.19 76.60 C 168.64 77.27 168.74 78.25 169.40 78.80 C 170.06 79.35 171.05 79.26 171.60 78.60 L 172.22 77.84 C 172.77 77.18 172.68 76.20 172.02 75.65 C 171.35 75.10 170.37 75.19 169.82 75.85 Z M 169.19 76.61 L 168.56 77.38 C 168.01 78.05 168.10 79.03 168.77 79.58 C 169.44 80.13 170.42 80.03 170.97 79.36 L 171.60 78.59 C 172.15 77.93 172.05 76.94 171.39 76.39 C 170.72 75.85 169.74 75.94 169.19 76.61 Z M 168.55 77.38 L 167.91 78.17 C 167.36 78.84 167.46 79.82 168.13 80.37 C 168.80 80.91 169.78 80.81 170.33 80.15 L 170.97 79.36 C 171.52 78.69 171.42 77.71 170.75 77.16 C 170.08 76.62 169.10 76.72 168.55 77.38 Z M 167.91 78.17 L 167.26 78.97 C 166.71 79.63 166.81 80.62 167.48 81.16 C 168.15 81.71 169.13 81.61 169.67 80.94 L 170.33 80.15 C 170.87 79.48 170.77 78.50 170.11 77.95 C 169.44 77.40 168.45 77.50 167.91 78.17 Z M 167.26 78.97 L 166.64 79.73 C 166.09 80.39 166.19 81.38 166.86 81.92 C 167.52 82.47 168.51 82.37 169.05 81.70 L 169.67 80.94 C 170.22 80.28 170.12 79.29 169.45 78.75 C 168.79 78.20 167.80 78.30 167.26 78.97 Z M 166.64 79.73 L 166.01 80.49 C 165.46 81.16 165.56 82.14 166.23 82.69 C 166.90 83.24 167.88 83.14 168.42 82.47 L 169.05 81.70 C 169.60 81.04 169.50 80.05 168.83 79.51 C 168.17 78.96 167.18 79.06 166.64 79.73 Z M 166.01 80.49 L 165.38 81.27 C 164.83 81.94 164.93 82.92 165.60 83.46 C 166.26 84.01 167.25 83.91 167.79 83.24 L 168.43 82.47 C 168.97 81.80 168.87 80.82 168.20 80.27 C 167.54 79.73 166.55 79.83 166.01 80.49 Z M 165.37 81.27 L 164.74 82.05 C 164.19 82.72 164.29 83.70 164.96 84.25 C 165.63 84.79 166.61 84.69 167.16 84.03 L 167.79 83.24 C 168.34 82.57 168.24 81.59 167.57 81.05 C 166.90 80.50 165.92 80.60 165.37 81.27 Z M 164.73 82.06 L 164.10 82.84 C 163.55 83.51 163.65 84.49 164.32 85.04 C 164.99 85.58 165.98 85.48 166.52 84.81 L 167.16 84.02 C 167.70 83.35 167.60 82.37 166.93 81.83 C 166.26 81.28 165.28 81.39 164.73 82.06 Z M 164.09 82.84 L 163.48 83.60 C 162.94 84.27 163.04 85.26 163.72 85.80 C 164.39 86.34 165.37 86.23 165.91 85.56 L 166.52 84.81 C 167.06 84.13 166.96 83.15 166.29 82.61 C 165.62 82.07 164.63 82.17 164.09 82.84 Z M 163.48 83.60 L 162.86 84.37 C 162.32 85.05 162.43 86.03 163.10 86.57 C 163.77 87.11 164.76 87.00 165.30 86.33 L 165.91 85.56 C 166.45 84.89 166.35 83.91 165.67 83.37 C 165.00 82.83 164.02 82.93 163.48 83.60 Z M 162.86 84.38 L 162.23 85.16 C 161.70 85.83 161.81 86.81 162.48 87.35 C 163.15 87.89 164.13 87.78 164.67 87.11 L 165.30 86.33 C 165.84 85.65 165.73 84.67 165.05 84.13 C 164.38 83.59 163.40 83.70 162.86 84.38 Z M 162.23 85.16 L 161.60 85.95 C 161.06 86.63 161.17 87.61 161.85 88.15 C 162.52 88.68 163.50 88.57 164.04 87.90 L 164.67 87.11 C 165.21 86.43 165.10 85.45 164.43 84.91 C 163.75 84.37 162.77 84.48 162.23 85.16 Z M 161.60 85.95 L 160.96 86.76 C 160.42 87.44 160.53 88.42 161.21 88.96 C 161.88 89.49 162.87 89.38 163.40 88.70 L 164.04 87.90 C 164.58 87.22 164.47 86.24 163.79 85.70 C 163.12 85.17 162.13 85.28 161.60 85.95 Z M 160.96 86.76 L 160.32 87.56 C 159.79 88.24 159.90 89.22 160.58 89.76 C 161.25 90.29 162.24 90.18 162.77 89.50 L 163.40 88.70 C 163.94 88.03 163.82 87.04 163.15 86.51 C 162.47 85.97 161.49 86.09 160.96 86.76 Z M 160.32 87.56 L 159.69 88.37 C 159.15 89.04 159.27 90.03 159.95 90.56 C 160.62 91.09 161.61 90.98 162.14 90.30 L 162.77 89.50 C 163.31 88.82 163.19 87.84 162.51 87.31 C 161.84 86.77 160.86 86.89 160.32 87.56 Z M 159.69 88.37 L 159.06 89.17 C 158.53 89.85 158.65 90.83 159.33 91.36 C 160.00 91.89 160.99 91.77 161.52 91.10 L 162.14 90.30 C 162.67 89.62 162.56 88.64 161.88 88.11 C 161.20 87.57 160.22 87.69 159.69 88.37 Z M 159.06 89.17 L 158.44 89.96 C 157.92 90.64 158.04 91.62 158.72 92.15 C 159.40 92.68 160.38 92.56 160.91 91.88 L 161.52 91.09 C 162.05 90.41 161.93 89.43 161.25 88.90 C 160.57 88.37 159.58 88.49 159.06 89.17 Z M 158.44 89.97 L 157.85 90.73 C 157.33 91.41 157.45 92.39 158.14 92.92 C 158.82 93.45 159.80 93.32 160.33 92.63 L 160.91 91.87 C 161.44 91.19 161.31 90.21 160.63 89.68 C 159.95 89.16 158.97 89.28 158.44 89.97 Z M 157.85 90.74 L 157.21 91.57 C 156.69 92.26 156.83 93.24 157.51 93.76 C 158.20 94.28 159.18 94.15 159.70 93.46 L 160.33 92.63 C 160.85 91.94 160.72 90.96 160.03 90.44 C 159.35 89.92 158.37 90.05 157.85 90.74 Z M 157.21 91.58 L 156.59 92.41 C 156.07 93.10 156.21 94.08 156.90 94.59 C 157.59 95.11 158.57 94.97 159.09 94.28 L 159.71 93.45 C 160.22 92.76 160.08 91.78 159.39 91.27 C 158.70 90.75 157.72 90.89 157.21 91.58 Z M 156.58 92.42 L 156.00 93.21 C 155.48 93.91 155.63 94.88 156.32 95.39 C 157.02 95.91 158.00 95.76 158.51 95.07 L 159.10 94.27 C 159.61 93.58 159.46 92.60 158.77 92.09 C 158.07 91.57 157.09 91.72 156.58 92.42 Z M 155.99 93.22 L 155.43 93.99 C 154.92 94.69 155.07 95.66 155.77 96.17 C 156.46 96.68 157.44 96.53 157.95 95.83 L 158.51 95.06 C 159.02 94.36 158.87 93.39 158.17 92.88 C 157.48 92.37 156.50 92.52 155.99 93.22 Z M 155.42 93.99 L 154.85 94.78 C 154.35 95.48 154.50 96.45 155.20 96.96 C 155.90 97.47 156.87 97.31 157.38 96.61 L 157.95 95.83 C 158.46 95.13 158.30 94.16 157.60 93.65 C 156.91 93.14 155.93 93.30 155.42 93.99 Z M 154.85 94.78 L 154.25 95.61 C 153.75 96.31 153.91 97.28 154.61 97.79 C 155.30 98.29 156.28 98.14 156.79 97.44 L 157.38 96.61 C 157.89 95.91 157.73 94.94 157.03 94.43 C 156.33 93.93 155.36 94.08 154.85 94.78 Z M 154.25 95.61 L 153.67 96.43 C 153.16 97.13 153.32 98.10 154.02 98.61 C 154.72 99.11 155.70 98.95 156.20 98.25 L 156.79 97.43 C 157.29 96.73 157.13 95.76 156.43 95.26 C 155.73 94.75 154.76 94.91 154.25 95.61 Z M 153.66 96.43 L 153.09 97.23 C 152.59 97.94 152.75 98.91 153.45 99.41 C 154.15 99.91 155.13 99.75 155.63 99.05 L 156.20 98.25 C 156.70 97.55 156.54 96.57 155.84 96.07 C 155.14 95.57 154.16 95.73 153.66 96.43 Z M 153.09 97.24 L 152.51 98.05 C 152.01 98.75 152.18 99.72 152.88 100.22 C 153.59 100.72 154.56 100.56 155.06 99.85 L 155.63 99.05 C 156.13 98.34 155.97 97.37 155.26 96.87 C 154.56 96.37 153.58 96.54 153.09 97.24 Z M 152.51 98.05 L 151.91 98.90 C 151.42 99.60 151.59 100.58 152.30 101.07 C 153.00 101.57 153.97 101.40 154.47 100.69 L 155.06 99.85 C 155.56 99.14 155.39 98.17 154.68 97.67 C 153.98 97.18 153.00 97.35 152.51 98.05 Z M 151.91 98.91 L 151.34 99.73 C 150.85 100.44 151.02 101.41 151.73 101.91 C 152.44 102.40 153.42 102.22 153.91 101.51 L 154.48 100.68 C 154.97 99.97 154.79 99.00 154.08 98.51 C 153.37 98.02 152.40 98.20 151.91 98.91 Z M 151.33 99.75 L 150.78 100.55 C 150.30 101.27 150.49 102.24 151.20 102.72 C 151.92 103.20 152.89 103.02 153.37 102.30 L 153.91 101.50 C 154.40 100.78 154.21 99.81 153.50 99.33 C 152.78 98.84 151.81 99.03 151.33 99.75 Z M 150.77 100.57 L 150.22 101.41 C 149.75 102.13 149.95 103.10 150.67 103.57 C 151.39 104.04 152.36 103.84 152.83 103.12 L 153.38 102.28 C 153.85 101.56 153.65 100.60 152.93 100.12 C 152.21 99.65 151.25 99.85 150.77 100.57 Z M 150.21 101.43 L 149.66 102.29 C 149.20 103.02 149.42 103.98 150.14 104.44 C 150.87 104.90 151.84 104.69 152.30 103.96 L 152.84 103.10 C 153.31 102.37 153.09 101.41 152.36 100.95 C 151.63 100.49 150.67 100.70 150.21 101.43 Z M 149.65 102.31 L 149.13 103.15 C 148.68 103.89 148.91 104.85 149.65 105.30 C 150.38 105.75 151.35 105.52 151.80 104.78 L 152.31 103.94 C 152.76 103.20 152.53 102.24 151.80 101.79 C 151.06 101.34 150.10 101.57 149.65 102.31 Z M 149.12 103.17 L 148.63 104.01 C 148.19 104.75 148.43 105.71 149.18 106.15 C 149.92 106.59 150.88 106.34 151.31 105.60 L 151.81 104.76 C 152.25 104.02 152.00 103.06 151.26 102.62 C 150.52 102.18 149.56 102.43 149.12 103.17 Z M 148.61 104.03 L 148.12 104.90 C 147.69 105.65 147.95 106.60 148.70 107.03 C 149.45 107.46 150.40 107.20 150.83 106.45 L 151.32 105.58 C 151.75 104.83 151.49 103.88 150.74 103.45 C 150.00 103.02 149.04 103.28 148.61 104.03 Z M 148.11 104.91 L 147.62 105.78 C 147.20 106.53 147.47 107.48 148.22 107.90 C 148.97 108.33 149.93 108.06 150.35 107.31 L 150.83 106.44 C 151.26 105.69 150.99 104.73 150.24 104.31 C 149.48 103.89 148.53 104.16 148.11 104.91 Z M 147.62 105.78 L 147.14 106.64 C 146.72 107.39 146.99 108.34 147.74 108.77 C 148.50 109.19 149.45 108.92 149.87 108.16 L 150.35 107.30 C 150.77 106.55 150.50 105.60 149.75 105.18 C 149.00 104.76 148.04 105.03 147.62 105.78 Z M 147.14 106.64 L 146.69 107.44 C 146.27 108.19 146.54 109.15 147.29 109.57 C 148.04 109.99 149.00 109.72 149.42 108.97 L 149.87 108.17 C 150.29 107.41 150.02 106.46 149.27 106.04 C 148.52 105.62 147.56 105.89 147.14 106.64 Z M 146.69 107.46 L 146.22 108.31 C 145.80 109.07 146.08 110.02 146.84 110.43 C 147.60 110.84 148.55 110.57 148.96 109.81 L 149.43 108.95 C 149.84 108.20 149.56 107.25 148.80 106.83 C 148.05 106.42 147.10 106.70 146.69 107.46 Z M 146.20 108.34 L 145.71 109.29 C 145.31 110.06 145.61 111.00 146.38 111.40 C 147.14 111.79 148.09 111.50 148.48 110.73 L 148.97 109.78 C 149.37 109.01 149.07 108.07 148.31 107.68 C 147.54 107.28 146.60 107.58 146.20 108.34 Z M 145.69 109.33 L 145.26 110.21 C 144.89 110.98 145.21 111.92 145.98 112.30 C 146.76 112.67 147.69 112.35 148.07 111.58 L 148.50 110.70 C 148.88 109.92 148.55 108.99 147.78 108.61 C 147.00 108.23 146.07 108.55 145.69 109.33 Z M 145.25 110.24 L 144.85 111.11 C 144.49 111.89 144.83 112.82 145.62 113.18 C 146.40 113.54 147.33 113.19 147.69 112.41 L 148.09 111.54 C 148.45 110.76 148.10 109.83 147.32 109.47 C 146.53 109.11 145.61 109.46 145.25 110.24 Z M 144.84 111.14 L 144.44 112.06 C 144.09 112.86 144.46 113.77 145.25 114.12 C 146.04 114.46 146.96 114.09 147.30 113.30 L 147.70 112.38 C 148.04 111.59 147.68 110.67 146.89 110.33 C 146.10 109.98 145.18 110.35 144.84 111.14 Z M 144.42 112.10 L 144.03 113.07 C 143.71 113.87 144.10 114.78 144.90 115.10 C 145.70 115.42 146.61 115.03 146.93 114.23 L 147.32 113.26 C 147.64 112.46 147.25 111.56 146.45 111.23 C 145.65 110.91 144.74 111.30 144.42 112.10 Z M 144.02 113.11 L 143.65 114.11 C 143.35 114.92 143.76 115.82 144.57 116.11 C 145.38 116.41 146.28 116.00 146.58 115.19 L 146.95 114.19 C 147.24 113.38 146.83 112.49 146.02 112.19 C 145.21 111.89 144.31 112.30 144.02 113.11 Z M 143.63 114.15 L 143.33 115.05 C 143.06 115.87 143.50 116.75 144.32 117.03 C 145.13 117.30 146.02 116.86 146.29 116.04 L 146.59 115.15 C 146.87 114.33 146.43 113.44 145.61 113.17 C 144.79 112.89 143.91 113.34 143.63 114.15 Z M 143.32 115.09 L 143.04 116.01 C 142.79 116.84 143.25 117.71 144.08 117.96 C 144.90 118.21 145.77 117.75 146.02 116.92 L 146.31 116.00 C 146.56 115.18 146.09 114.30 145.27 114.05 C 144.44 113.80 143.57 114.27 143.32 115.09 Z M 143.03 116.05 L 142.76 117.00 C 142.54 117.83 143.02 118.69 143.85 118.92 C 144.69 119.15 145.55 118.66 145.77 117.83 L 146.04 116.88 C 146.27 116.05 145.78 115.19 144.95 114.96 C 144.12 114.73 143.26 115.22 143.03 116.05 Z M 142.75 117.04 L 142.51 118.03 C 142.30 118.87 142.81 119.71 143.65 119.92 C 144.48 120.13 145.33 119.62 145.54 118.78 L 145.78 117.79 C 145.99 116.96 145.48 116.11 144.65 115.90 C 143.81 115.69 142.96 116.20 142.75 117.04 Z M 142.50 118.06 L 142.27 119.10 C 142.08 119.94 142.60 120.77 143.45 120.96 C 144.29 121.15 145.12 120.63 145.31 119.79 L 145.55 118.75 C 145.74 117.91 145.21 117.07 144.37 116.88 C 143.53 116.69 142.69 117.22 142.50 118.06 Z M 142.26 119.13 L 142.05 120.15 C 141.88 120.99 142.42 121.82 143.27 121.99 C 144.11 122.16 144.94 121.62 145.11 120.77 L 145.32 119.76 C 145.49 118.91 144.95 118.09 144.10 117.91 C 143.26 117.74 142.43 118.28 142.26 119.13 Z M 142.05 120.17 L 141.85 121.19 C 141.69 122.04 142.25 122.86 143.10 123.02 C 143.95 123.18 144.76 122.62 144.92 121.77 L 145.11 120.75 C 145.27 119.90 144.72 119.09 143.87 118.93 C 143.02 118.77 142.21 119.32 142.05 120.17 Z M 141.85 121.22 L 141.67 122.24 C 141.52 123.09 142.09 123.90 142.94 124.05 C 143.79 124.20 144.60 123.63 144.75 122.78 L 144.93 121.75 C 145.07 120.90 144.50 120.09 143.65 119.94 C 142.80 119.80 142.00 120.37 141.85 121.22 Z M 141.67 122.27 L 141.51 123.28 C 141.37 124.13 141.96 124.93 142.81 125.06 C 143.66 125.20 144.46 124.61 144.59 123.76 L 144.75 122.75 C 144.89 121.90 144.30 121.10 143.45 120.97 C 142.60 120.83 141.80 121.42 141.67 122.27 Z M 141.50 123.30 L 141.37 124.27 C 141.25 125.13 141.84 125.92 142.70 126.04 C 143.55 126.16 144.34 125.56 144.46 124.71 L 144.60 123.74 C 144.72 122.88 144.12 122.09 143.27 121.97 C 142.41 121.85 141.62 122.45 141.50 123.30 Z M 141.36 124.30 L 141.26 125.21 C 141.15 126.06 141.76 126.84 142.62 126.95 C 143.48 127.05 144.25 126.44 144.36 125.58 L 144.46 124.68 C 144.57 123.82 143.96 123.04 143.10 122.94 C 142.25 122.84 141.47 123.45 141.36 124.30 Z M 141.25 125.25 L 141.15 126.39 C 141.07 127.25 141.70 128.01 142.56 128.09 C 143.42 128.16 144.18 127.53 144.26 126.67 L 144.36 125.54 C 144.44 124.68 143.81 123.92 142.95 123.84 C 142.09 123.76 141.33 124.40 141.25 125.25 Z M 141.14 126.45 L 141.09 127.47 C 141.04 128.33 141.70 129.07 142.56 129.12 C 143.42 129.16 144.16 128.50 144.21 127.64 L 144.26 126.62 C 144.31 125.76 143.65 125.02 142.79 124.97 C 141.93 124.93 141.19 125.59 141.14 126.45 Z M 141.09 127.52 L 141.06 128.46 C 141.04 129.32 141.73 130.03 142.59 130.05 C 143.45 130.07 144.17 129.39 144.19 128.53 L 144.21 127.59 C 144.23 126.73 143.54 126.02 142.68 126.00 C 141.82 125.98 141.11 126.66 141.09 127.52 Z M 141.06 128.49 L 141.06 129.38 C 141.06 130.24 141.75 130.94 142.62 130.95 C 143.48 130.95 144.18 130.26 144.18 129.39 L 144.19 128.50 C 144.19 127.64 143.49 126.93 142.63 126.93 C 141.77 126.93 141.07 127.62 141.06 128.49 Z M 141.06 129.39 L 141.06 130.35 C 141.06 131.21 141.76 131.91 142.62 131.91 C 143.48 131.91 144.18 131.21 144.18 130.35 L 144.18 129.39 C 144.18 128.52 143.48 127.83 142.62 127.83 C 141.76 127.83 141.06 128.52 141.06 129.39 Z M 141.06 130.35 L 141.06 131.34 C 141.06 132.20 141.76 132.90 142.62 132.90 C 143.48 132.90 144.18 132.20 144.18 131.34 L 144.18 130.35 C 144.18 129.49 143.48 128.79 142.62 128.79 C 141.76 128.79 141.06 129.49 141.06 130.35 Z M 141.06 131.34 L 141.06 132.35 C 141.06 133.21 141.76 133.91 142.62 133.91 C 143.48 133.91 144.18 133.21 144.18 132.35 L 144.18 131.34 C 144.18 130.47 143.48 129.77 142.62 129.77 C 141.76 129.77 141.06 130.47 141.06 131.34 Z M 141.06 132.35 L 141.06 133.37 C 141.06 134.23 141.76 134.93 142.62 134.93 C 143.48 134.93 144.18 134.23 144.18 133.37 L 144.18 132.35 C 144.18 131.49 143.48 130.79 142.62 130.79 C 141.76 130.79 141.06 131.49 141.06 132.35 Z M 141.06 133.37 L 141.06 134.35 C 141.07 135.21 141.77 135.91 142.63 135.90 C 143.49 135.90 144.19 135.20 144.19 134.34 L 144.18 133.37 C 144.18 132.50 143.48 131.81 142.62 131.81 C 141.76 131.81 141.06 132.51 141.06 133.37 Z M 141.06 134.36 L 141.08 135.36 C 141.09 136.22 141.80 136.91 142.66 136.90 C 143.52 136.88 144.21 136.17 144.20 135.31 L 144.18 134.32 C 144.17 133.46 143.46 132.77 142.60 132.78 C 141.74 132.79 141.05 133.50 141.06 134.36 Z M 141.08 135.39 L 141.11 136.40 C 141.14 137.26 141.86 137.94 142.73 137.91 C 143.59 137.88 144.26 137.16 144.23 136.29 L 144.20 135.28 C 144.17 134.42 143.45 133.74 142.58 133.77 C 141.72 133.80 141.05 134.53 141.08 135.39 Z M 141.11 136.45 L 141.18 137.47 C 141.23 138.33 141.98 138.98 142.84 138.93 C 143.70 138.87 144.35 138.13 144.30 137.27 L 144.23 136.25 C 144.18 135.39 143.43 134.73 142.57 134.79 C 141.71 134.84 141.06 135.59 141.11 136.45 Z M 141.18 137.52 L 141.28 138.49 C 141.36 139.35 142.13 139.98 142.98 139.89 C 143.84 139.81 144.47 139.04 144.39 138.19 L 144.29 137.22 C 144.21 136.36 143.44 135.73 142.59 135.82 C 141.73 135.90 141.10 136.66 141.18 137.52 Z M 141.28 138.54 L 141.41 139.52 C 141.52 140.37 142.30 140.98 143.16 140.87 C 144.01 140.76 144.62 139.97 144.51 139.12 L 144.38 138.14 C 144.27 137.28 143.49 136.68 142.63 136.79 C 141.78 136.90 141.17 137.68 141.28 138.54 Z M 141.42 139.56 L 141.57 140.56 C 141.71 141.41 142.51 141.99 143.36 141.85 C 144.21 141.72 144.79 140.92 144.66 140.07 L 144.50 139.07 C 144.37 138.22 143.57 137.64 142.71 137.78 C 141.86 137.91 141.28 138.71 141.42 139.56 Z M 141.58 140.60 L 141.77 141.60 C 141.92 142.45 142.74 143.01 143.59 142.85 C 144.43 142.70 144.99 141.88 144.84 141.04 L 144.65 140.03 C 144.49 139.18 143.68 138.62 142.83 138.78 C 141.98 138.93 141.42 139.75 141.58 140.60 Z M 141.77 141.64 L 141.97 142.59 C 142.15 143.44 142.98 143.98 143.82 143.80 C 144.66 143.63 145.20 142.80 145.03 141.95 L 144.83 141.00 C 144.65 140.16 143.83 139.61 142.98 139.79 C 142.14 139.97 141.60 140.79 141.77 141.64 Z M 141.98 142.62 L 142.19 143.56 C 142.38 144.40 143.22 144.92 144.06 144.73 C 144.90 144.54 145.43 143.70 145.24 142.86 L 145.02 141.93 C 144.83 141.09 143.99 140.56 143.15 140.75 C 142.31 140.94 141.79 141.78 141.98 142.62 Z M 142.20 143.58 L 142.43 144.53 C 142.63 145.37 143.48 145.89 144.32 145.68 C 145.15 145.48 145.67 144.63 145.46 143.79 L 145.23 142.84 C 145.03 142.00 144.18 141.49 143.34 141.69 C 142.51 141.90 141.99 142.74 142.20 143.58 Z M 142.43 144.55 L 142.69 145.54 C 142.90 146.37 143.75 146.88 144.59 146.66 C 145.42 146.45 145.93 145.60 145.71 144.76 L 145.46 143.78 C 145.25 142.94 144.40 142.44 143.56 142.65 C 142.72 142.87 142.22 143.72 142.43 144.55 Z M 142.69 145.55 L 142.96 146.57 C 143.18 147.40 144.04 147.90 144.87 147.68 C 145.70 147.46 146.20 146.60 145.98 145.77 L 145.71 144.75 C 145.49 143.92 144.63 143.42 143.80 143.64 C 142.97 143.86 142.47 144.72 142.69 145.55 Z M 142.96 146.58 L 143.22 147.54 C 143.45 148.37 144.30 148.86 145.14 148.64 C 145.97 148.41 146.46 147.55 146.24 146.72 L 145.98 145.76 C 145.75 144.93 144.90 144.44 144.06 144.66 C 143.23 144.89 142.74 145.74 142.96 146.58 Z M 143.22 147.54 L 143.48 148.49 C 143.71 149.32 144.57 149.81 145.40 149.58 C 146.23 149.35 146.72 148.50 146.49 147.66 L 146.23 146.72 C 146.01 145.88 145.15 145.39 144.32 145.62 C 143.48 145.85 142.99 146.71 143.22 147.54 Z M 143.49 148.50 L 143.76 149.46 C 143.99 150.29 144.85 150.78 145.68 150.55 C 146.51 150.32 146.99 149.45 146.76 148.62 L 146.49 147.66 C 146.26 146.83 145.40 146.34 144.57 146.57 C 143.74 146.81 143.25 147.67 143.49 148.50 Z M 143.76 149.47 L 144.04 150.45 C 144.27 151.28 145.14 151.76 145.97 151.52 C 146.80 151.28 147.28 150.42 147.04 149.59 L 146.76 148.62 C 146.52 147.79 145.66 147.31 144.83 147.54 C 144.00 147.78 143.52 148.64 143.76 149.47 Z M 144.04 150.46 L 144.33 151.43 C 144.57 152.26 145.43 152.74 146.26 152.49 C 147.09 152.25 147.56 151.38 147.32 150.56 L 147.04 149.58 C 146.79 148.75 145.93 148.28 145.10 148.52 C 144.27 148.76 143.80 149.63 144.04 150.46 Z M 144.33 151.45 L 144.62 152.41 C 144.87 153.24 145.74 153.71 146.56 153.46 C 147.39 153.21 147.86 152.34 147.61 151.51 L 147.32 150.55 C 147.07 149.72 146.20 149.25 145.37 149.50 C 144.55 149.75 144.08 150.62 144.33 151.45 Z M 144.62 152.43 L 144.92 153.38 C 145.17 154.20 146.05 154.67 146.87 154.41 C 147.70 154.16 148.16 153.28 147.90 152.46 L 147.61 151.50 C 147.35 150.68 146.48 150.22 145.65 150.47 C 144.83 150.73 144.37 151.60 144.62 152.43 Z M 144.92 153.39 L 145.22 154.34 C 145.48 155.16 146.36 155.61 147.18 155.35 C 148.01 155.09 148.46 154.21 148.20 153.39 L 147.90 152.45 C 147.64 151.63 146.76 151.17 145.94 151.43 C 145.12 151.69 144.66 152.57 144.92 153.39 Z M 145.23 154.34 L 145.53 155.29 C 145.79 156.11 146.67 156.56 147.50 156.29 C 148.32 156.03 148.77 155.15 148.50 154.33 L 148.20 153.39 C 147.93 152.57 147.05 152.11 146.23 152.38 C 145.41 152.64 144.96 153.52 145.23 154.34 Z M 145.53 155.29 L 145.84 156.24 C 146.11 157.06 146.99 157.51 147.81 157.24 C 148.63 156.97 149.08 156.09 148.81 155.27 L 148.50 154.32 C 148.23 153.51 147.35 153.06 146.53 153.32 C 145.71 153.59 145.26 154.47 145.53 155.29 Z M 145.84 156.24 L 146.15 157.20 C 146.42 158.02 147.30 158.47 148.12 158.20 C 148.94 157.93 149.39 157.05 149.12 156.23 L 148.81 155.27 C 148.54 154.45 147.66 154.00 146.84 154.27 C 146.02 154.54 145.57 155.42 145.84 156.24 Z M 146.15 157.20 L 146.46 158.14 C 146.73 158.96 147.61 159.40 148.43 159.14 C 149.25 158.87 149.69 157.99 149.43 157.17 L 149.12 156.23 C 148.86 155.41 147.97 154.96 147.15 155.23 C 146.33 155.50 145.89 156.38 146.15 157.20 Z M 146.46 158.13 L 146.75 159.05 C 147.02 159.87 147.90 160.32 148.72 160.05 C 149.54 159.79 149.99 158.91 149.72 158.09 L 149.43 157.17 C 149.16 156.35 148.28 155.90 147.46 156.17 C 146.64 156.43 146.19 157.31 146.46 158.13 Z M 146.75 159.05 L 147.05 159.98 C 147.32 160.80 148.20 161.25 149.02 160.99 C 149.84 160.72 150.29 159.84 150.02 159.02 L 149.72 158.09 C 149.46 157.27 148.58 156.82 147.76 157.08 C 146.94 157.35 146.49 158.23 146.75 159.05 Z M 147.05 159.98 L 147.36 160.93 C 147.62 161.75 148.50 162.20 149.32 161.94 C 150.14 161.67 150.59 160.79 150.33 159.97 L 150.03 159.02 C 149.76 158.20 148.88 157.75 148.06 158.01 C 147.24 158.28 146.79 159.16 147.05 159.98 Z M 147.36 160.93 L 147.67 161.89 C 147.93 162.71 148.81 163.17 149.63 162.90 C 150.45 162.64 150.90 161.76 150.64 160.94 L 150.33 159.97 C 150.07 159.15 149.19 158.70 148.37 158.96 C 147.55 159.23 147.09 160.11 147.36 160.93 Z M 147.67 161.89 L 147.98 162.88 C 148.25 163.70 149.13 164.15 149.95 163.89 C 150.77 163.62 151.22 162.74 150.96 161.92 L 150.64 160.94 C 150.38 160.12 149.50 159.67 148.68 159.93 C 147.86 160.19 147.40 161.07 147.67 161.89 Z M 147.98 162.88 L 148.30 163.85 C 148.56 164.67 149.44 165.13 150.26 164.86 C 151.08 164.60 151.53 163.72 151.27 162.90 L 150.96 161.92 C 150.69 161.10 149.81 160.65 148.99 160.92 C 148.17 161.18 147.72 162.06 147.98 162.88 Z M 148.30 163.86 L 148.60 164.78 C 148.86 165.60 149.74 166.05 150.56 165.78 C 151.38 165.52 151.83 164.64 151.57 163.82 L 151.27 162.89 C 151.00 162.07 150.12 161.62 149.30 161.89 C 148.48 162.16 148.03 163.04 148.30 163.86 Z M 148.60 164.78 L 148.90 165.72 C 149.17 166.54 150.05 166.98 150.87 166.72 C 151.69 166.45 152.14 165.57 151.87 164.75 L 151.57 163.82 C 151.30 163.00 150.42 162.55 149.60 162.81 C 148.78 163.08 148.33 163.96 148.60 164.78 Z M 148.90 165.72 L 149.21 166.66 C 149.48 167.48 150.36 167.93 151.18 167.66 C 152.00 167.40 152.45 166.52 152.18 165.70 L 151.87 164.75 C 151.60 163.93 150.72 163.48 149.90 163.75 C 149.08 164.02 148.63 164.90 148.90 165.72 Z M 149.21 166.67 L 149.52 167.62 C 149.79 168.44 150.67 168.89 151.49 168.62 C 152.31 168.35 152.76 167.47 152.49 166.65 L 152.18 165.70 C 151.91 164.88 151.03 164.43 150.21 164.70 C 149.39 164.96 148.94 165.85 149.21 166.67 Z M 149.52 167.62 L 149.84 168.59 C 150.11 169.41 150.99 169.86 151.81 169.59 C 152.63 169.32 153.08 168.44 152.81 167.62 L 152.49 166.65 C 152.22 165.83 151.34 165.39 150.52 165.65 C 149.70 165.92 149.26 166.80 149.52 167.62 Z M 149.84 168.59 L 150.16 169.57 C 150.43 170.38 151.31 170.83 152.13 170.56 C 152.95 170.29 153.40 169.41 153.13 168.59 L 152.81 167.62 C 152.54 166.80 151.66 166.35 150.84 166.62 C 150.02 166.89 149.57 167.77 149.84 168.59 Z M 150.16 169.57 L 150.48 170.53 C 150.75 171.35 151.63 171.79 152.45 171.52 C 153.27 171.25 153.71 170.37 153.44 169.55 L 153.13 168.59 C 152.86 167.77 151.97 167.32 151.16 167.59 C 150.34 167.87 149.89 168.75 150.16 169.57 Z M 150.48 170.53 L 150.79 171.48 C 151.06 172.30 151.95 172.74 152.77 172.47 C 153.59 172.20 154.03 171.31 153.76 170.50 L 153.44 169.55 C 153.17 168.73 152.29 168.29 151.47 168.56 C 150.65 168.83 150.21 169.71 150.48 170.53 Z M 150.79 171.48 L 151.11 172.43 C 151.38 173.25 152.27 173.69 153.09 173.42 C 153.90 173.15 154.35 172.26 154.07 171.44 L 153.76 170.49 C 153.48 169.68 152.60 169.23 151.78 169.51 C 150.96 169.78 150.52 170.66 150.79 171.48 Z M 151.11 172.43 L 151.43 173.39 C 151.71 174.20 152.59 174.64 153.41 174.37 C 154.23 174.09 154.67 173.21 154.39 172.39 L 154.07 171.44 C 153.80 170.62 152.91 170.18 152.10 170.46 C 151.28 170.73 150.84 171.62 151.11 172.43 Z M 151.43 173.39 L 151.76 174.34 C 152.03 175.16 152.92 175.59 153.74 175.32 C 154.55 175.04 154.99 174.15 154.71 173.34 L 154.39 172.39 C 154.11 171.57 153.23 171.13 152.41 171.41 C 151.59 171.69 151.16 172.57 151.43 173.39 Z M 151.76 174.35 L 152.08 175.29 C 152.36 176.11 153.25 176.54 154.07 176.26 C 154.88 175.98 155.32 175.09 155.04 174.28 L 154.71 173.33 C 154.43 172.52 153.54 172.08 152.73 172.36 C 151.91 172.64 151.48 173.53 151.76 174.35 Z M 152.08 175.30 L 152.41 176.24 C 152.70 177.05 153.59 177.48 154.40 177.20 C 155.21 176.92 155.64 176.03 155.36 175.21 L 155.03 174.27 C 154.75 173.46 153.86 173.03 153.05 173.31 C 152.23 173.59 151.80 174.48 152.08 175.30 Z M 152.41 176.25 L 152.75 177.20 C 153.04 178.01 153.93 178.44 154.74 178.15 C 155.56 177.86 155.98 176.97 155.69 176.16 L 155.36 175.21 C 155.07 174.39 154.18 173.97 153.37 174.26 C 152.55 174.54 152.13 175.43 152.41 176.25 Z M 152.75 177.20 L 153.10 178.16 C 153.39 178.97 154.28 179.39 155.09 179.10 C 155.91 178.81 156.33 177.92 156.03 177.10 L 155.69 176.15 C 155.40 175.34 154.51 174.92 153.69 175.21 C 152.88 175.50 152.46 176.39 152.75 177.20 Z M 153.10 178.17 L 153.44 179.11 C 153.74 179.92 154.64 180.34 155.45 180.05 C 156.26 179.75 156.67 178.85 156.38 178.04 L 156.03 177.10 C 155.74 176.29 154.84 175.87 154.03 176.16 C 153.22 176.46 152.80 177.36 153.10 178.17 Z M 153.45 179.12 L 153.79 180.06 C 154.09 180.87 154.99 181.28 155.80 180.98 C 156.61 180.68 157.02 179.79 156.72 178.98 L 156.38 178.04 C 156.08 177.23 155.18 176.82 154.37 177.11 C 153.56 177.41 153.15 178.31 153.45 179.12 Z M 153.80 180.07 L 154.14 181.00 C 154.45 181.81 155.35 182.22 156.15 181.91 C 156.96 181.61 157.37 180.71 157.07 179.91 L 156.72 178.97 C 156.42 178.16 155.52 177.75 154.71 178.06 C 153.90 178.36 153.49 179.26 153.80 180.07 Z M 154.15 181.00 L 154.50 181.93 C 154.80 182.74 155.70 183.14 156.51 182.84 C 157.31 182.53 157.72 181.63 157.42 180.83 L 157.07 179.90 C 156.76 179.09 155.86 178.69 155.06 178.99 C 154.25 179.30 153.84 180.20 154.15 181.00 Z M 154.50 181.93 L 154.85 182.85 C 155.15 183.66 156.06 184.06 156.86 183.76 C 157.67 183.45 158.07 182.55 157.77 181.74 L 157.42 180.82 C 157.11 180.02 156.21 179.61 155.40 179.92 C 154.60 180.23 154.19 181.13 154.50 181.93 Z M 154.85 182.86 L 155.21 183.78 C 155.51 184.59 156.42 184.99 157.22 184.68 C 158.03 184.37 158.43 183.47 158.12 182.67 L 157.76 181.74 C 157.46 180.93 156.55 180.53 155.75 180.84 C 154.94 181.15 154.54 182.05 154.85 182.86 Z M 155.21 183.79 L 155.57 184.72 C 155.88 185.52 156.78 185.92 157.59 185.61 C 158.39 185.30 158.79 184.40 158.48 183.59 L 158.12 182.66 C 157.81 181.86 156.90 181.46 156.10 181.77 C 155.30 182.08 154.90 182.98 155.21 183.79 Z M 155.57 184.72 L 155.93 185.65 C 156.24 186.45 157.15 186.85 157.95 186.54 C 158.76 186.22 159.15 185.32 158.84 184.51 L 158.48 183.59 C 158.16 182.78 157.26 182.39 156.45 182.70 C 155.65 183.02 155.25 183.92 155.57 184.72 Z M 155.93 185.66 L 156.30 186.58 C 156.62 187.38 157.53 187.78 158.33 187.46 C 159.13 187.14 159.52 186.23 159.20 185.43 L 158.84 184.51 C 158.52 183.70 157.61 183.31 156.81 183.63 C 156.01 183.95 155.62 184.86 155.93 185.66 Z M 156.30 186.59 L 156.68 187.52 C 157.00 188.32 157.91 188.70 158.71 188.38 C 159.51 188.06 159.90 187.15 159.57 186.35 L 159.20 185.42 C 158.88 184.62 157.97 184.24 157.17 184.56 C 156.37 184.88 155.98 185.79 156.30 186.59 Z M 156.68 187.53 L 157.06 188.46 C 157.39 189.25 158.30 189.63 159.10 189.30 C 159.90 188.98 160.28 188.06 159.95 187.27 L 159.57 186.34 C 159.24 185.54 158.33 185.16 157.53 185.49 C 156.73 185.82 156.35 186.73 156.68 187.53 Z M 157.07 188.47 L 157.46 189.40 C 157.80 190.19 158.71 190.57 159.51 190.23 C 160.30 189.90 160.67 188.98 160.34 188.19 L 159.95 187.26 C 159.61 186.46 158.70 186.09 157.90 186.42 C 157.11 186.76 156.73 187.67 157.07 188.47 Z M 157.47 189.41 L 157.87 190.35 C 158.21 191.15 159.13 191.51 159.92 191.17 C 160.72 190.83 161.08 189.91 160.74 189.12 L 160.33 188.18 C 159.99 187.38 159.07 187.02 158.28 187.36 C 157.49 187.70 157.13 188.62 157.47 189.41 Z M 157.88 190.36 L 158.29 191.31 C 158.64 192.10 159.56 192.45 160.35 192.11 C 161.14 191.76 161.50 190.84 161.15 190.05 L 160.74 189.11 C 160.39 188.32 159.47 187.96 158.68 188.31 C 157.89 188.65 157.53 189.58 157.88 190.36 Z M 158.30 191.32 L 158.71 192.25 C 159.07 193.04 159.99 193.39 160.78 193.04 C 161.56 192.68 161.92 191.76 161.56 190.97 L 161.14 190.04 C 160.79 189.25 159.87 188.90 159.08 189.25 C 158.29 189.61 157.94 190.53 158.30 191.32 Z M 158.72 192.26 L 159.14 193.18 C 159.50 193.96 160.42 194.31 161.21 193.95 C 161.99 193.59 162.34 192.67 161.98 191.88 L 161.56 190.96 C 161.20 190.18 160.27 189.83 159.49 190.19 C 158.71 190.55 158.36 191.48 158.72 192.26 Z M 159.14 193.19 L 159.56 194.09 C 159.92 194.87 160.85 195.21 161.63 194.84 C 162.42 194.48 162.76 193.55 162.39 192.77 L 161.97 191.87 C 161.61 191.09 160.68 190.75 159.90 191.11 C 159.12 191.48 158.78 192.41 159.14 193.19 Z M 159.56 194.09 L 159.98 194.96 C 160.34 195.74 161.27 196.08 162.05 195.71 C 162.83 195.34 163.17 194.41 162.80 193.63 L 162.39 192.76 C 162.02 191.98 161.09 191.65 160.31 192.02 C 159.53 192.38 159.20 193.32 159.56 194.09 Z M 159.98 194.97 L 160.41 195.88 C 160.79 196.65 161.72 196.98 162.50 196.61 C 163.28 196.23 163.60 195.30 163.23 194.52 L 162.79 193.62 C 162.42 192.84 161.49 192.52 160.71 192.89 C 159.93 193.26 159.61 194.20 159.98 194.97 Z M 160.42 195.89 L 160.89 196.84 C 161.27 197.62 162.20 197.94 162.98 197.56 C 163.75 197.18 164.07 196.24 163.69 195.47 L 163.22 194.51 C 162.84 193.74 161.91 193.42 161.13 193.80 C 160.36 194.18 160.04 195.11 160.42 195.89 Z M 160.89 196.86 L 161.35 197.77 C 161.74 198.54 162.68 198.85 163.45 198.46 C 164.22 198.08 164.53 197.14 164.14 196.37 L 163.69 195.46 C 163.30 194.69 162.36 194.37 161.59 194.76 C 160.82 195.15 160.51 196.08 160.89 196.86 Z M 161.36 197.78 L 161.80 198.65 C 162.19 199.42 163.14 199.73 163.90 199.34 C 164.67 198.94 164.98 198.00 164.59 197.24 L 164.14 196.36 C 163.75 195.59 162.81 195.29 162.04 195.68 C 161.27 196.07 160.96 197.01 161.36 197.78 Z M 161.81 198.66 L 162.25 199.51 C 162.64 200.28 163.59 200.58 164.35 200.18 C 165.12 199.78 165.42 198.84 165.02 198.07 L 164.58 197.23 C 164.18 196.46 163.24 196.16 162.48 196.56 C 161.71 196.96 161.41 197.90 161.81 198.66 Z M 162.25 199.52 L 162.69 200.35 C 163.09 201.11 164.03 201.41 164.80 201.01 C 165.56 200.60 165.85 199.66 165.45 198.90 L 165.02 198.07 C 164.61 197.30 163.67 197.01 162.91 197.41 C 162.14 197.81 161.85 198.76 162.25 199.52 Z M 162.69 200.36 L 163.17 201.25 C 163.57 202.01 164.52 202.30 165.28 201.89 C 166.04 201.49 166.33 200.54 165.92 199.78 L 165.45 198.89 C 165.04 198.13 164.10 197.84 163.34 198.24 C 162.58 198.65 162.29 199.60 162.69 200.36 Z M 163.17 201.26 L 163.65 202.15 C 164.06 202.91 165.01 203.19 165.77 202.78 C 166.53 202.37 166.81 201.42 166.40 200.66 L 165.92 199.77 C 165.51 199.01 164.56 198.73 163.80 199.14 C 163.04 199.55 162.76 200.50 163.17 201.26 Z M 163.65 202.16 L 164.13 203.03 C 164.55 203.79 165.50 204.07 166.26 203.65 C 167.01 203.24 167.29 202.29 166.88 201.53 L 166.40 200.65 C 165.98 199.89 165.03 199.62 164.27 200.03 C 163.51 200.45 163.24 201.40 163.65 202.16 Z M 164.14 203.04 L 164.62 203.91 C 165.04 204.67 166.00 204.94 166.75 204.51 C 167.51 204.09 167.78 203.14 167.36 202.38 L 166.87 201.52 C 166.45 200.76 165.50 200.49 164.74 200.91 C 163.99 201.33 163.72 202.29 164.14 203.04 Z M 164.63 203.92 L 165.11 204.78 C 165.54 205.53 166.50 205.79 167.25 205.36 C 168.01 204.93 168.27 203.98 167.84 203.22 L 167.35 202.37 C 166.92 201.62 165.96 201.36 165.21 201.78 C 164.46 202.21 164.20 203.17 164.63 203.92 Z M 165.12 204.79 L 165.63 205.67 C 166.07 206.42 167.03 206.67 167.78 206.23 C 168.53 205.80 168.78 204.84 168.34 204.09 L 167.83 203.21 C 167.39 202.46 166.43 202.21 165.69 202.65 C 164.94 203.08 164.69 204.04 165.12 204.79 Z M 165.64 205.68 L 166.16 206.55 C 166.61 207.30 167.57 207.54 168.31 207.09 C 169.06 206.65 169.30 205.69 168.85 204.94 L 168.33 204.08 C 167.89 203.33 166.93 203.09 166.18 203.53 C 165.44 203.98 165.20 204.94 165.64 205.68 Z M 166.17 206.57 L 166.69 207.42 C 167.14 208.16 168.11 208.39 168.85 207.94 C 169.59 207.49 169.82 206.52 169.37 205.78 L 168.84 204.93 C 168.39 204.19 167.43 203.96 166.69 204.41 C 165.95 204.86 165.72 205.83 166.17 206.57 Z M 166.70 207.43 L 167.23 208.27 C 167.69 209.00 168.65 209.23 169.39 208.77 C 170.12 208.31 170.34 207.34 169.88 206.61 L 169.36 205.77 C 168.90 205.04 167.93 204.82 167.20 205.27 C 166.47 205.73 166.24 206.70 166.70 207.43 Z M 167.24 208.28 L 167.77 209.11 C 168.23 209.84 169.20 210.06 169.93 209.59 C 170.66 209.13 170.87 208.16 170.41 207.43 L 169.87 206.60 C 169.41 205.87 168.44 205.66 167.71 206.12 C 166.98 206.59 166.77 207.56 167.24 208.28 Z M 167.77 209.13 L 168.34 210.00 C 168.81 210.72 169.78 210.92 170.51 210.45 C 171.23 209.98 171.44 209.01 170.96 208.28 L 170.40 207.42 C 169.92 206.69 168.95 206.49 168.23 206.96 C 167.51 207.43 167.30 208.40 167.77 209.13 Z M 168.35 210.01 L 168.91 210.85 C 169.39 211.57 170.36 211.77 171.08 211.29 C 171.80 210.81 172.00 209.84 171.52 209.12 L 170.96 208.27 C 170.48 207.55 169.50 207.35 168.78 207.83 C 168.06 208.31 167.87 209.29 168.35 210.01 Z M 168.91 210.86 L 169.47 211.69 C 169.96 212.40 170.93 212.59 171.65 212.11 C 172.37 211.62 172.56 210.64 172.07 209.93 L 171.51 209.10 C 171.03 208.39 170.05 208.20 169.33 208.68 C 168.62 209.17 168.43 210.15 168.91 210.86 Z M 169.47 211.70 L 170.02 212.49 C 170.51 213.21 171.49 213.39 172.21 212.90 C 172.92 212.41 173.10 211.43 172.61 210.72 L 172.07 209.92 C 171.58 209.20 170.60 209.02 169.88 209.51 C 169.17 210.00 168.98 210.98 169.47 211.70 Z M 170.03 212.50 L 170.60 213.33 C 171.10 214.05 172.08 214.22 172.79 213.73 C 173.50 213.23 173.68 212.26 173.19 211.54 L 172.61 210.71 C 172.11 209.99 171.13 209.82 170.42 210.31 C 169.71 210.81 169.53 211.79 170.03 212.50 Z M 170.61 213.34 L 171.20 214.17 C 171.70 214.88 172.67 215.05 173.38 214.56 C 174.09 214.06 174.26 213.08 173.77 212.37 L 173.18 211.54 C 172.68 210.83 171.70 210.66 170.99 211.15 C 170.28 211.65 170.11 212.63 170.61 213.34 Z M 171.21 214.18 L 171.78 214.99 C 172.28 215.69 173.26 215.86 173.97 215.35 C 174.67 214.85 174.84 213.87 174.33 213.17 L 173.76 212.36 C 173.25 211.66 172.28 211.49 171.57 212.00 C 170.87 212.50 170.70 213.48 171.21 214.18 Z M 171.79 215.00 L 172.36 215.78 C 172.87 216.48 173.85 216.64 174.55 216.13 C 175.25 215.62 175.40 214.64 174.89 213.94 L 174.32 213.16 C 173.81 212.46 172.84 212.30 172.14 212.81 C 171.44 213.32 171.28 214.30 171.79 215.00 Z M 172.37 215.80 L 172.97 216.59 C 173.48 217.29 174.46 217.43 175.15 216.91 C 175.85 216.40 175.99 215.42 175.47 214.73 L 174.88 213.93 C 174.37 213.24 173.39 213.09 172.69 213.61 C 172.00 214.12 171.86 215.10 172.37 215.80 Z M 172.98 216.62 L 173.60 217.41 C 174.13 218.09 175.11 218.21 175.79 217.68 C 176.47 217.15 176.60 216.17 176.07 215.49 L 175.46 214.70 C 174.93 214.02 173.94 213.89 173.26 214.42 C 172.58 214.95 172.45 215.94 172.98 216.62 Z M 173.63 217.45 L 174.27 218.21 C 174.82 218.88 175.81 218.97 176.47 218.41 C 177.14 217.86 177.23 216.87 176.67 216.21 L 176.03 215.44 C 175.48 214.78 174.49 214.69 173.83 215.24 C 173.16 215.80 173.08 216.79 173.63 217.45 Z M 174.32 218.27 L 174.99 219.01 C 175.58 219.65 176.57 219.69 177.21 219.10 C 177.85 218.52 177.89 217.53 177.30 216.89 L 176.62 216.15 C 176.04 215.51 175.05 215.47 174.41 216.06 C 173.77 216.64 173.73 217.63 174.32 218.27 Z M 175.06 219.08 L 175.79 219.78 C 176.41 220.38 177.40 220.36 178.00 219.74 C 178.60 219.12 178.59 218.13 177.97 217.53 L 177.24 216.82 C 176.62 216.22 175.62 216.24 175.02 216.86 C 174.42 217.48 174.44 218.47 175.06 219.08 Z M 175.87 219.85 L 176.65 220.50 C 177.31 221.06 178.30 220.97 178.85 220.31 C 179.41 219.64 179.32 218.66 178.66 218.10 L 177.88 217.45 C 177.22 216.90 176.23 216.99 175.68 217.65 C 175.12 218.31 175.21 219.30 175.87 219.85 Z M 176.76 220.59 L 177.58 221.16 C 178.29 221.65 179.26 221.47 179.75 220.76 C 180.25 220.05 180.07 219.08 179.36 218.59 L 178.55 218.02 C 177.84 217.53 176.86 217.70 176.37 218.41 C 175.88 219.12 176.05 220.09 176.76 220.59 Z M 177.73 221.25 L 178.59 221.71 C 179.35 222.12 180.30 221.84 180.71 221.08 C 181.12 220.32 180.83 219.37 180.07 218.96 L 179.21 218.50 C 178.45 218.09 177.50 218.37 177.10 219.13 C 176.69 219.89 176.97 220.84 177.73 221.25 Z M 178.78 221.79 L 179.71 222.15 C 180.52 222.46 181.42 222.06 181.73 221.25 C 182.04 220.45 181.64 219.55 180.83 219.24 L 179.89 218.88 C 179.09 218.57 178.18 218.97 177.88 219.78 C 177.57 220.58 177.97 221.49 178.78 221.79 Z M 179.86 222.20 L 180.82 222.46 C 181.66 222.69 182.51 222.20 182.74 221.37 C 182.97 220.53 182.47 219.68 181.64 219.45 L 180.68 219.19 C 179.85 218.96 178.99 219.45 178.77 220.29 C 178.54 221.12 179.03 221.98 179.86 222.20 Z M 180.91 222.48 L 181.88 222.69 C 182.73 222.87 183.56 222.33 183.73 221.48 C 183.91 220.64 183.37 219.81 182.53 219.63 L 181.55 219.43 C 180.71 219.25 179.88 219.79 179.71 220.64 C 179.53 221.48 180.07 222.31 180.91 222.48 Z M 181.91 222.69 L 182.24 222.76 C 183.09 222.92 183.91 222.37 184.07 221.52 C 184.24 220.68 183.68 219.86 182.84 219.69 L 182.50 219.63 C 181.66 219.46 180.84 220.02 180.67 220.87 C 180.51 221.71 181.06 222.53 181.91 222.69 Z"
      fill="black"
      fill-rule="nonzero" /></svg>