<svg xmlns="http://www.w3.org/2000/svg" width="300" height="300" viewBox="0 0 300 300">
<path d="M 154.65 69.87 L 154.23 68.95 C 153.87 68.17 152.94 67.82 152.16 68.18 C 151.37 68.54 151.03 69.47 151.39 70.25 L 151.81 71.17 C 152.17 71.96 153.10 72.30 153.88 71.94 C 154.67 71.58 155.01 70.65 154.65 69.87 Z M 154.23 68.95 L 153.81 68.04 C 153.45 67.25 152.52 66.91 151.74 67.27 C 150.96 67.63 150.61 68.55 150.97 69.34 L 151.39 70.25 C 151.75 71.03 152.67 71.38 153.46 71.02 C 154.24 70.66 154.59 69.73 154.23 68.95 Z M 153.81 68.04 L 153.40 67.13 C 153.04 66.35 152.11 66.01 151.33 66.36 C 150.54 66.72 150.20 67.65 150.56 68.43 L 150.97 69.33 C 151.33 70.12 152.26 70.46 153.04 70.11 C 153.82 69.75 154.17 68.82 153.81 68.04 Z M 153.40 67.13 L 152.89 66.03 C 152.53 65.24 151.60 64.90 150.82 65.26 C 150.03 65.62 149.69 66.55 150.05 67.33 L 150.56 68.44 C 150.92 69.22 151.85 69.56 152.63 69.20 C 153.41 68.84 153.76 67.91 153.40 67.13 Z M 152.81 65.89 L 152.29 65.00 C 151.86 64.26 150.90 64.01 150.16 64.45 C 149.41 64.88 149.16 65.84 149.60 66.58 L 150.12 67.47 C 150.56 68.21 151.52 68.46 152.26 68.03 C 153.00 67.59 153.25 66.63 152.81 65.89 Z M 150.51 64.29 L 150.18 64.39 C 149.36 64.63 148.88 65.50 149.13 66.33 C 149.37 67.16 150.24 67.63 151.07 67.39 L 151.39 67.29 C 152.22 67.05 152.69 66.18 152.45 65.35 C 152.20 64.52 151.33 64.05 150.51 64.29 Z M 149.08 65.63 L 148.96 66.32 C 148.82 67.18 149.40 67.98 150.26 68.12 C 151.11 68.26 151.92 67.69 152.06 66.83 L 152.17 66.14 C 152.31 65.29 151.74 64.48 150.88 64.34 C 150.03 64.20 149.22 64.78 149.08 65.63 Z M 148.94 66.50 L 148.88 67.55 C 148.84 68.42 149.51 69.16 150.38 69.20 C 151.25 69.24 151.99 68.57 152.04 67.70 L 152.09 66.65 C 152.13 65.78 151.46 65.04 150.59 65.00 C 149.72 64.96 148.98 65.63 148.94 66.50 Z M 148.87 67.61 L 148.86 68.84 C 148.85 69.72 149.55 70.44 150.43 70.45 C 151.31 70.46 152.02 69.76 152.03 68.88 L 152.05 67.64 C 152.06 66.77 151.36 66.05 150.48 66.04 C 149.60 66.03 148.88 66.73 148.87 67.61 Z M 148.85 68.86 L 148.85 70.01 C 148.85 70.89 149.56 71.61 150.45 71.61 C 151.33 71.61 152.04 70.90 152.04 70.01 L 152.04 68.86 C 152.05 67.98 151.33 67.26 150.45 67.26 C 149.56 67.26 148.85 67.98 148.85 68.86 Z M 148.84 70.01 L 148.84 71.00 C 148.84 71.89 149.56 72.61 150.45 72.61 C 151.33 72.61 152.06 71.89 152.06 71.00 L 152.06 70.01 C 152.06 69.12 151.33 68.40 150.45 68.40 C 149.56 68.40 148.84 69.12 148.84 70.01 Z M 148.82 71.00 L 148.82 71.97 C 148.82 72.87 149.55 73.59 150.45 73.59 C 151.34 73.59 152.07 72.87 152.07 71.97 L 152.07 71.00 C 152.07 70.10 151.34 69.38 150.45 69.38 C 149.55 69.38 148.82 70.10 148.82 71.00 Z M 148.81 71.97 L 148.81 72.96 C 148.81 73.86 149.54 74.60 150.45 74.60 C 151.35 74.60 152.08 73.86 152.08 72.96 L 152.08 71.97 C 152.08 71.07 151.35 70.34 150.45 70.34 C 149.54 70.34 148.81 71.07 148.81 71.97 Z M 148.80 72.96 L 148.80 73.99 C 148.80 74.90 149.54 75.64 150.45 75.64 C 151.35 75.64 152.09 74.90 152.09 73.99 L 152.09 72.96 C 152.09 72.05 151.35 71.32 150.45 71.32 C 149.54 71.32 148.80 72.05 148.80 72.96 Z M 148.79 73.99 L 148.79 74.94 C 148.79 75.85 149.53 76.59 150.45 76.59 C 151.36 76.59 152.10 75.85 152.10 74.94 L 152.10 73.99 C 152.10 73.08 151.36 72.34 150.45 72.34 C 149.53 72.34 148.79 73.08 148.79 73.99 Z M 148.79 74.94 L 148.79 75.88 C 148.79 76.80 149.53 77.54 150.45 77.54 C 151.36 77.54 152.10 76.80 152.10 75.88 L 152.10 74.93 C 152.10 74.02 151.36 73.28 150.44 73.28 C 149.53 73.28 148.79 74.02 148.79 74.94 Z M 148.79 75.88 L 148.79 76.87 C 148.79 77.79 149.53 78.53 150.45 78.53 C 151.37 78.53 152.11 77.78 152.11 76.86 L 152.11 75.88 C 152.10 74.96 151.36 74.22 150.44 74.22 C 149.53 74.22 148.79 74.97 148.79 75.88 Z M 148.79 76.87 L 148.79 77.90 C 148.79 78.81 149.54 79.55 150.46 79.55 C 151.38 79.55 152.12 78.80 152.11 77.88 L 152.11 76.86 C 152.11 75.94 151.36 75.20 150.44 75.20 C 149.52 75.21 148.78 75.96 148.79 76.87 Z M 148.79 77.90 L 148.79 78.95 C 148.80 79.87 149.55 80.61 150.47 80.61 C 151.39 80.60 152.13 79.85 152.12 78.93 L 152.12 77.88 C 152.11 76.96 151.36 76.22 150.44 76.22 C 149.52 76.23 148.78 76.98 148.79 77.90 Z M 148.79 78.96 L 148.80 80.02 C 148.81 80.94 149.56 81.68 150.48 81.67 C 151.41 81.66 152.15 80.91 152.14 79.99 L 152.13 78.92 C 152.12 78.00 151.36 77.26 150.44 77.27 C 149.52 77.28 148.78 78.03 148.79 78.96 Z M 148.80 80.02 L 148.81 80.98 C 148.82 81.90 149.58 82.64 150.50 82.63 C 151.42 82.61 152.16 81.86 152.15 80.93 L 152.14 79.98 C 152.13 79.06 151.37 78.32 150.45 78.33 C 149.53 78.35 148.79 79.10 148.80 80.02 Z M 148.81 80.98 L 148.82 81.95 C 148.84 82.87 149.60 83.61 150.52 83.60 C 151.44 83.58 152.18 82.82 152.17 81.90 L 152.15 80.93 C 152.14 80.01 151.38 79.27 150.46 79.28 C 149.53 79.30 148.80 80.06 148.81 80.98 Z M 148.82 81.95 L 148.84 82.93 C 148.85 83.86 149.61 84.60 150.53 84.58 C 151.46 84.57 152.20 83.81 152.18 82.88 L 152.17 81.90 C 152.15 80.97 151.39 80.24 150.47 80.25 C 149.55 80.26 148.81 81.03 148.82 81.95 Z M 148.83 82.93 L 148.85 83.94 C 148.86 84.86 149.62 85.60 150.55 85.59 C 151.47 85.57 152.21 84.81 152.20 83.89 L 152.18 82.88 C 152.17 81.96 151.41 81.22 150.48 81.23 C 149.56 81.25 148.82 82.01 148.83 82.93 Z M 148.85 83.94 L 148.86 84.96 C 148.88 85.89 149.64 86.63 150.56 86.61 C 151.49 86.60 152.23 85.84 152.22 84.91 L 152.20 83.89 C 152.19 82.96 151.43 82.22 150.50 82.24 C 149.58 82.25 148.84 83.01 148.85 83.94 Z M 148.86 84.96 L 148.87 86.00 C 148.88 86.93 149.64 87.67 150.57 87.66 C 151.50 87.65 152.24 86.89 152.23 85.96 L 152.22 84.92 C 152.21 83.99 151.45 83.25 150.52 83.26 C 149.59 83.27 148.85 84.03 148.86 84.96 Z M 148.87 86.00 L 148.88 86.99 C 148.89 87.92 149.65 88.66 150.58 88.66 C 151.50 88.65 152.25 87.89 152.24 86.96 L 152.23 85.97 C 152.22 85.04 151.46 84.29 150.54 84.30 C 149.61 84.31 148.86 85.07 148.87 86.00 Z M 148.88 86.99 L 148.89 87.94 C 148.89 88.87 149.65 89.62 150.58 89.61 C 151.51 89.60 152.26 88.84 152.25 87.92 L 152.24 86.96 C 152.24 86.03 151.48 85.29 150.55 85.29 C 149.62 85.30 148.87 86.06 148.88 86.99 Z M 148.88 87.94 L 148.89 88.91 C 148.89 89.83 149.65 90.58 150.58 90.58 C 151.51 90.58 152.26 89.82 152.26 88.89 L 152.25 87.92 C 152.25 86.99 151.49 86.24 150.56 86.24 C 149.63 86.25 148.88 87.01 148.88 87.94 Z M 148.89 88.90 L 148.89 89.89 C 148.89 90.82 149.65 91.57 150.58 91.57 C 151.51 91.57 152.26 90.81 152.26 89.88 L 152.26 88.89 C 152.25 87.96 151.50 87.21 150.57 87.21 C 149.64 87.22 148.88 87.97 148.89 88.90 Z M 148.89 89.89 L 148.89 90.89 C 148.89 91.82 149.65 92.58 150.58 92.58 C 151.51 92.57 152.26 91.82 152.26 90.89 L 152.26 89.88 C 152.26 88.95 151.50 88.20 150.57 88.20 C 149.64 88.20 148.89 88.96 148.89 89.89 Z M 148.89 90.89 L 148.89 91.91 C 148.89 92.85 149.65 93.60 150.58 93.60 C 151.51 93.60 152.27 92.84 152.27 91.91 L 152.26 90.89 C 152.26 89.96 151.51 89.20 150.58 89.20 C 149.64 89.20 148.89 89.96 148.89 90.89 Z M 148.89 91.91 L 148.89 92.95 C 148.89 93.89 149.65 94.64 150.58 94.64 C 151.51 94.64 152.27 93.89 152.27 92.95 L 152.27 91.91 C 152.27 90.98 151.51 90.22 150.58 90.22 C 149.65 90.22 148.89 90.98 148.89 91.91 Z M 148.89 92.95 L 148.89 94.00 C 148.89 94.93 149.65 95.69 150.58 95.69 C 151.51 95.69 152.27 94.93 152.27 94.00 L 152.27 92.95 C 152.27 92.02 151.51 91.26 150.58 91.26 C 149.64 91.26 148.89 92.02 148.89 92.95 Z M 148.89 94.00 L 148.89 94.93 C 148.89 95.86 149.64 96.62 150.58 96.62 C 151.51 96.62 152.27 95.86 152.27 94.93 L 152.27 94.00 C 152.27 93.07 151.51 92.31 150.58 92.31 C 149.64 92.31 148.89 93.07 148.89 94.00 Z M 148.89 94.93 L 148.89 95.87 C 148.89 96.80 149.64 97.56 150.58 97.56 C 151.51 97.56 152.27 96.80 152.27 95.87 L 152.27 94.93 C 152.27 93.99 151.51 93.23 150.58 93.23 C 149.64 93.23 148.89 93.99 148.89 94.93 Z M 148.88 95.87 L 148.88 96.82 C 148.88 97.76 149.64 98.52 150.58 98.52 C 151.51 98.52 152.27 97.76 152.27 96.82 L 152.27 95.87 C 152.27 94.93 151.51 94.17 150.58 94.17 C 149.64 94.17 148.88 94.93 148.88 95.87 Z M 148.88 96.82 L 148.88 97.80 C 148.88 98.74 149.64 99.50 150.58 99.50 C 151.51 99.50 152.27 98.74 152.27 97.80 L 152.27 96.82 C 152.27 95.89 151.51 95.13 150.58 95.13 C 149.64 95.13 148.88 95.89 148.88 96.82 Z M 148.88 97.80 L 148.88 98.80 C 148.88 99.74 149.64 100.50 150.58 100.50 C 151.52 100.50 152.28 99.74 152.28 98.80 L 152.28 97.80 C 152.28 96.87 151.52 96.11 150.58 96.11 C 149.64 96.11 148.88 96.87 148.88 97.80 Z M 148.88 98.80 L 148.88 99.83 C 148.88 100.76 149.64 101.52 150.58 101.52 C 151.52 101.52 152.28 100.76 152.28 99.83 L 152.28 98.80 C 152.28 97.86 151.52 97.10 150.58 97.10 C 149.64 97.10 148.88 97.86 148.88 98.80 Z M 148.88 99.83 L 148.88 100.87 C 148.88 101.81 149.64 102.57 150.58 102.57 C 151.52 102.57 152.28 101.81 152.28 100.87 L 152.28 99.83 C 152.28 98.89 151.52 98.13 150.58 98.13 C 149.64 98.13 148.88 98.89 148.88 99.83 Z M 148.88 100.87 L 148.88 101.95 C 148.88 102.89 149.64 103.65 150.58 103.65 C 151.52 103.65 152.28 102.89 152.28 101.95 L 152.28 100.87 C 152.28 99.94 151.52 99.17 150.58 99.17 C 149.64 99.17 148.88 99.94 148.88 100.87 Z M 148.88 101.95 L 148.88 102.97 C 148.88 103.91 149.64 104.67 150.58 104.67 C 151.52 104.67 152.28 103.91 152.28 102.97 L 152.28 101.95 C 152.28 101.01 151.52 100.25 150.58 100.25 C 149.64 100.25 148.88 101.01 148.88 101.95 Z M 148.88 102.97 L 148.88 103.88 C 148.88 104.82 149.64 105.58 150.58 105.58 C 151.52 105.58 152.28 104.82 152.28 103.88 L 152.28 102.97 C 152.28 102.03 151.52 101.26 150.58 101.26 C 149.64 101.26 148.88 102.03 148.88 102.97 Z M 148.87 103.88 L 148.87 104.81 C 148.87 105.75 149.64 106.52 150.58 106.52 C 151.52 106.52 152.28 105.75 152.28 104.81 L 152.28 103.88 C 152.28 102.94 151.52 102.18 150.58 102.18 C 149.64 102.18 148.87 102.94 148.87 103.88 Z M 148.87 104.81 L 148.87 105.76 C 148.87 106.71 149.64 107.47 150.58 107.47 C 151.52 107.47 152.28 106.71 152.28 105.76 L 152.28 104.81 C 152.28 103.87 151.52 103.11 150.58 103.11 C 149.64 103.11 148.87 103.87 148.87 104.81 Z M 148.87 105.76 L 148.87 106.74 C 148.87 107.68 149.64 108.44 150.58 108.44 C 151.52 108.44 152.28 107.68 152.28 106.74 L 152.28 105.76 C 152.28 104.82 151.52 104.06 150.58 104.06 C 149.64 104.06 148.87 104.82 148.87 105.76 Z M 148.87 106.74 L 148.87 107.73 C 148.87 108.67 149.64 109.43 150.58 109.43 C 151.52 109.43 152.28 108.67 152.28 107.73 L 152.28 106.74 C 152.28 105.79 151.52 105.03 150.58 105.03 C 149.64 105.03 148.87 105.79 148.87 106.74 Z M 148.87 107.73 L 148.87 108.74 C 148.87 109.68 149.64 110.44 150.58 110.44 C 151.52 110.44 152.29 109.68 152.29 108.74 L 152.29 107.73 C 152.29 106.78 151.52 106.02 150.58 106.02 C 149.64 106.02 148.87 106.78 148.87 107.73 Z M 148.87 108.74 L 148.87 109.77 C 148.87 110.71 149.64 111.47 150.58 111.47 C 151.52 111.47 152.29 110.71 152.29 109.77 L 152.29 108.74 C 152.29 107.79 151.52 107.03 150.58 107.03 C 149.64 107.03 148.87 107.79 148.87 108.74 Z M 148.87 109.77 L 148.87 110.82 C 148.87 111.76 149.64 112.52 150.58 112.52 C 151.52 112.52 152.29 111.76 152.29 110.82 L 152.29 109.77 C 152.29 108.82 151.52 108.06 150.58 108.06 C 149.64 108.06 148.87 108.82 148.87 109.77 Z M 148.87 110.82 L 148.87 111.88 C 148.87 112.83 149.63 113.59 150.58 113.59 C 151.52 113.59 152.29 112.83 152.29 111.88 L 152.29 110.82 C 152.29 109.87 151.52 109.11 150.58 109.11 C 149.63 109.11 148.87 109.87 148.87 110.82 Z M 148.87 111.88 L 148.87 112.97 C 148.87 113.92 149.63 114.68 150.58 114.68 C 151.52 114.68 152.29 113.92 152.29 112.97 L 152.29 111.88 C 152.29 110.94 151.52 110.17 150.58 110.17 C 149.63 110.17 148.87 110.94 148.87 111.88 Z M 148.87 112.97 L 148.87 113.95 C 148.87 114.90 149.63 115.66 150.58 115.66 C 151.52 115.66 152.29 114.90 152.29 113.95 L 152.29 112.97 C 152.29 112.03 151.52 111.26 150.58 111.26 C 149.63 111.26 148.87 112.03 148.87 112.97 Z M 148.87 113.95 L 148.87 114.88 C 148.87 115.83 149.63 116.59 150.58 116.59 C 151.52 116.59 152.29 115.83 152.29 114.88 L 152.29 113.95 C 152.29 113.01 151.52 112.24 150.58 112.24 C 149.63 112.24 148.87 113.01 148.87 113.95 Z M 148.87 114.88 L 148.87 115.82 C 148.87 116.77 149.63 117.54 150.58 117.54 C 151.52 117.54 152.29 116.77 152.29 115.82 L 152.29 114.88 C 152.29 113.94 151.52 113.17 150.58 113.17 C 149.63 113.17 148.87 113.94 148.87 114.88 Z M 148.87 115.82 L 148.87 116.78 C 148.87 117.73 149.63 118.49 150.58 118.49 C 151.52 118.49 152.29 117.73 152.29 116.78 L 152.29 115.82 C 152.29 114.88 151.52 114.11 150.58 114.11 C 149.63 114.11 148.87 114.88 148.87 115.82 Z M 148.86 116.78 L 148.86 117.75 C 148.86 118.70 149.63 119.46 150.58 119.46 C 151.52 119.46 152.29 118.70 152.29 117.75 L 152.29 116.78 C 152.29 115.83 151.52 115.07 150.58 115.07 C 149.63 115.07 148.86 115.83 148.86 116.78 Z M 148.86 117.75 L 148.86 118.73 C 148.86 119.68 149.63 120.45 150.58 120.45 C 151.53 120.45 152.29 119.68 152.29 118.73 L 152.29 117.75 C 152.29 116.80 151.53 116.03 150.58 116.03 C 149.63 116.03 148.86 116.80 148.86 117.75 Z M 148.86 118.73 L 148.86 119.73 C 148.86 120.67 149.63 121.44 150.58 121.44 C 151.53 121.44 152.29 120.67 152.29 119.73 L 152.29 118.73 C 152.29 117.78 151.53 117.02 150.58 117.02 C 149.63 117.02 148.86 117.78 148.86 118.73 Z M 148.86 119.73 L 148.86 120.74 C 148.86 121.68 149.63 122.45 150.58 122.45 C 151.53 122.45 152.29 121.68 152.29 120.74 L 152.29 119.73 C 152.29 118.78 151.53 118.01 150.58 118.01 C 149.63 118.01 148.86 118.78 148.86 119.73 Z M 148.86 120.74 L 148.86 121.76 C 148.86 122.71 149.63 123.47 150.58 123.47 C 151.53 123.47 152.29 122.71 152.29 121.76 L 152.29 120.74 C 152.29 119.79 151.53 119.02 150.58 119.02 C 149.63 119.02 148.86 119.79 148.86 120.74 Z M 148.86 121.76 L 148.86 122.79 C 148.86 123.74 149.63 124.51 150.58 124.51 C 151.53 124.51 152.30 123.74 152.30 122.79 L 152.30 121.76 C 152.30 120.81 151.53 120.04 150.58 120.04 C 149.63 120.04 148.86 120.81 148.86 121.76 Z M 148.86 122.79 L 148.86 123.84 C 148.86 124.79 149.63 125.56 150.58 125.56 C 151.53 125.56 152.30 124.79 152.30 123.84 L 152.30 122.79 C 152.30 121.84 151.53 121.07 150.58 121.07 C 149.63 121.07 148.86 121.84 148.86 122.79 Z M 148.86 123.84 L 148.86 124.90 C 148.86 125.85 149.63 126.62 150.58 126.62 C 151.53 126.62 152.30 125.85 152.30 124.90 L 152.30 123.84 C 152.30 122.89 151.53 122.12 150.58 122.12 C 149.63 122.12 148.86 122.89 148.86 123.84 Z M 148.86 124.90 L 148.86 125.98 C 148.86 126.93 149.63 127.70 150.58 127.70 C 151.53 127.70 152.30 126.93 152.30 125.98 L 152.30 124.90 C 152.30 123.95 151.53 123.18 150.58 123.18 C 149.63 123.18 148.86 123.95 148.86 124.90 Z M 148.86 125.98 L 148.86 126.99 C 148.86 127.94 149.63 128.71 150.58 128.71 C 151.53 128.71 152.30 127.94 152.30 126.99 L 152.30 125.98 C 152.30 125.03 151.53 124.26 150.58 124.26 C 149.63 124.26 148.86 125.03 148.86 125.98 Z M 148.86 126.99 L 148.86 127.96 C 148.86 128.91 149.63 129.68 150.58 129.68 C 151.53 129.68 152.30 128.91 152.30 127.96 L 152.30 126.99 C 152.30 126.04 151.53 125.27 150.58 125.27 C 149.63 125.27 148.86 126.04 148.86 126.99 Z M 148.86 127.96 L 148.86 128.95 C 148.86 129.90 149.63 130.67 150.58 130.67 C 151.53 130.67 152.30 129.90 152.30 128.95 L 152.30 127.96 C 152.30 127.01 151.53 126.24 150.58 126.24 C 149.63 126.24 148.86 127.01 148.86 127.96 Z M 148.86 128.95 L 148.86 129.94 C 148.86 130.89 149.63 131.66 150.58 131.66 C 151.53 131.66 152.30 130.89 152.30 129.94 L 152.30 128.95 C 152.30 127.99 151.53 127.22 150.58 127.22 C 149.63 127.22 148.86 127.99 148.86 128.95 Z M 148.86 129.94 L 148.86 130.93 C 148.86 131.89 149.63 132.66 150.58 132.66 C 151.53 132.66 152.30 131.89 152.30 130.93 L 152.30 129.94 C 152.30 128.99 151.53 128.21 150.58 128.21 C 149.63 128.21 148.86 128.99 148.86 129.94 Z M 148.86 130.93 L 148.86 131.94 C 148.86 132.89 149.63 133.66 150.58 133.66 C 151.53 133.66 152.30 132.89 152.30 131.94 L 152.30 130.93 C 152.30 129.98 151.53 129.21 150.58 129.21 C 149.63 129.21 148.86 129.98 148.86 130.93 Z M 148.86 131.94 L 148.86 132.94 C 148.86 133.90 149.63 134.67 150.58 134.67 C 151.53 134.67 152.30 133.90 152.30 132.94 L 152.30 131.94 C 152.30 130.99 151.53 130.21 150.58 130.21 C 149.63 130.21 148.86 130.99 148.86 131.94 Z M 148.86 132.94 L 148.86 133.95 C 148.86 134.91 149.63 135.68 150.58 135.68 C 151.53 135.68 152.30 134.91 152.30 133.95 L 152.30 132.94 C 152.30 131.99 151.53 131.22 150.58 131.22 C 149.63 131.22 148.86 131.99 148.86 132.94 Z M 148.85 133.95 L 148.85 134.97 C 148.85 135.92 149.63 136.69 150.58 136.69 C 151.53 136.69 152.30 135.92 152.30 134.97 L 152.30 133.95 C 152.30 133.00 151.53 132.23 150.58 132.23 C 149.63 132.23 148.85 133.00 148.85 133.95 Z M 148.85 134.97 L 148.85 135.98 C 148.85 136.93 149.63 137.70 150.58 137.70 C 151.53 137.70 152.30 136.93 152.30 135.98 L 152.30 134.97 C 152.30 134.01 151.53 133.24 150.58 133.24 C 149.63 133.24 148.85 134.01 148.85 134.97 Z M 148.85 135.98 L 148.85 136.99 C 148.85 137.94 149.63 138.71 150.58 138.71 C 151.53 138.71 152.30 137.94 152.30 136.99 L 152.30 135.98 C 152.30 135.02 151.53 134.25 150.58 134.25 C 149.63 134.25 148.85 135.02 148.85 135.98 Z M 148.85 136.99 L 148.85 138.00 C 148.85 138.95 149.63 139.72 150.58 139.72 C 151.53 139.72 152.30 138.95 152.30 138.00 L 152.30 136.99 C 152.30 136.04 151.53 135.26 150.58 135.26 C 149.63 135.26 148.85 136.04 148.85 136.99 Z M 148.85 138.00 L 148.85 139.01 C 148.85 139.96 149.63 140.73 150.58 140.73 C 151.53 140.73 152.30 139.96 152.30 139.01 L 152.30 138.00 C 152.30 137.05 151.53 136.27 150.58 136.27 C 149.63 136.27 148.85 137.05 148.85 138.00 Z M 148.85 139.01 L 148.85 140.01 C 148.85 140.96 149.63 141.74 150.58 141.74 C 151.53 141.74 152.31 140.96 152.31 140.01 L 152.31 139.01 C 152.31 138.05 151.53 137.28 150.58 137.28 C 149.63 137.28 148.85 138.05 148.85 139.01 Z M 148.85 140.01 L 148.85 141.01 C 148.85 141.96 149.62 142.74 150.58 142.74 C 151.53 142.74 152.31 141.96 152.31 141.01 L 152.31 140.01 C 152.31 139.06 151.53 138.28 150.58 138.28 C 149.62 138.28 148.85 139.06 148.85 140.01 Z M 148.85 141.01 L 148.85 142.02 C 148.85 142.98 149.62 143.75 150.58 143.75 C 151.53 143.75 152.31 142.98 152.31 142.02 L 152.31 141.01 C 152.31 140.05 151.53 139.28 150.58 139.28 C 149.62 139.28 148.85 140.05 148.85 141.01 Z M 148.85 142.02 L 148.85 143.03 C 148.85 143.99 149.62 144.76 150.58 144.76 C 151.53 144.76 152.31 143.99 152.31 143.03 L 152.31 142.02 C 152.31 141.07 151.53 140.29 150.58 140.29 C 149.62 140.29 148.85 141.07 148.85 142.02 Z M 148.85 143.03 L 148.85 144.04 C 148.85 144.99 149.62 145.77 150.58 145.77 C 151.53 145.77 152.31 144.99 152.31 144.04 L 152.31 143.03 C 152.31 142.08 151.53 141.30 150.58 141.30 C 149.62 141.30 148.85 142.08 148.85 143.03 Z M 148.85 144.04 L 148.85 145.04 C 148.85 145.99 149.62 146.77 150.58 146.77 C 151.53 146.77 152.31 145.99 152.31 145.04 L 152.31 144.04 C 152.31 143.08 151.53 142.31 150.58 142.31 C 149.62 142.31 148.85 143.08 148.85 144.04 Z M 148.85 145.04 L 148.85 146.04 C 148.85 146.99 149.62 147.77 150.58 147.77 C 151.53 147.77 152.31 146.99 152.31 146.04 L 152.31 145.04 C 152.31 144.08 151.53 143.31 150.58 143.31 C 149.62 143.31 148.85 144.08 148.85 145.04 Z M 148.85 146.04 L 148.85 147.03 C 148.85 147.99 149.62 148.76 150.58 148.76 C 151.54 148.76 152.31 147.99 152.31 147.03 L 152.31 146.04 C 152.31 145.08 151.54 144.30 150.58 144.30 C 149.62 144.30 148.85 145.08 148.85 146.04 Z M 148.85 147.03 L 148.85 148.03 C 148.85 148.98 149.62 149.76 150.58 149.76 C 151.54 149.76 152.31 148.98 152.31 148.03 L 152.31 147.03 C 152.31 146.08 151.54 145.30 150.58 145.30 C 149.62 145.30 148.85 146.08 148.85 147.03 Z M 148.84 148.03 L 148.84 149.02 C 148.84 149.98 149.62 150.75 150.58 150.75 C 151.54 150.75 152.31 149.98 152.31 149.02 L 152.31 148.03 C 152.31 147.07 151.54 146.29 150.58 146.29 C 149.62 146.29 148.84 147.07 148.84 148.03 Z M 148.84 149.02 L 148.84 150.01 C 148.84 150.97 149.62 151.75 150.58 151.75 C 151.54 151.75 152.31 150.97 152.31 150.01 L 152.31 149.02 C 152.31 148.06 151.54 147.28 150.58 147.28 C 149.62 147.28 148.84 148.06 148.84 149.02 Z M 148.84 150.01 L 148.84 151.01 C 148.84 151.96 149.62 152.74 150.58 152.74 C 151.54 152.74 152.31 151.96 152.31 151.01 L 152.31 150.01 C 152.31 149.05 151.54 148.28 150.58 148.28 C 149.62 148.28 148.84 149.05 148.84 150.01 Z M 148.84 151.01 L 148.84 152.00 C 148.84 152.96 149.62 153.74 150.58 153.74 C 151.54 153.74 152.31 152.96 152.31 152.00 L 152.31 151.01 C 152.31 150.05 151.54 149.27 150.58 149.27 C 149.62 149.27 148.84 150.05 148.84 151.01 Z M 148.84 152.00 L 148.84 153.00 C 148.84 153.96 149.62 154.74 150.58 154.74 C 151.54 154.74 152.32 153.96 152.32 153.00 L 152.32 152.00 C 152.32 151.04 151.54 150.26 150.58 150.26 C 149.62 150.26 148.84 151.04 148.84 152.00 Z M 148.84 153.00 L 148.84 154.00 C 148.84 154.96 149.62 155.74 150.58 155.74 C 151.54 155.74 152.32 154.96 152.32 154.00 L 152.32 153.00 C 152.32 152.04 151.54 151.26 150.58 151.26 C 149.62 151.26 148.84 152.04 148.84 153.00 Z M 148.84 154.00 L 148.84 155.01 C 148.84 155.97 149.62 156.74 150.58 156.74 C 151.54 156.74 152.32 155.97 152.32 155.01 L 152.32 154.00 C 152.32 153.04 151.54 152.26 150.58 152.26 C 149.62 152.26 148.84 153.04 148.84 154.00 Z M 148.84 155.01 L 148.84 156.00 C 148.84 156.96 149.62 157.74 150.58 157.74 C 151.54 157.74 152.32 156.96 152.32 156.00 L 152.32 155.01 C 152.32 154.04 151.54 153.27 150.58 153.27 C 149.62 153.27 148.84 154.04 148.84 155.01 Z M 148.84 156.00 L 148.84 156.99 C 148.84 157.95 149.62 158.73 150.58 158.73 C 151.54 158.73 152.32 157.95 152.32 156.99 L 152.32 156.00 C 152.32 155.04 151.54 154.26 150.58 154.26 C 149.62 154.26 148.84 155.04 148.84 156.00 Z M 148.84 156.99 L 148.84 157.98 C 148.84 158.94 149.62 159.72 150.58 159.72 C 151.54 159.72 152.32 158.94 152.32 157.98 L 152.32 156.99 C 152.32 156.03 151.54 155.25 150.58 155.25 C 149.62 155.25 148.84 156.03 148.84 156.99 Z M 148.84 157.98 L 148.84 158.98 C 148.84 159.94 149.62 160.72 150.58 160.72 C 151.54 160.72 152.32 159.94 152.32 158.98 L 152.32 157.98 C 152.32 157.02 151.54 156.24 150.58 156.24 C 149.62 156.24 148.84 157.02 148.84 157.98 Z M 148.84 158.98 L 148.84 159.98 C 148.84 160.94 149.62 161.72 150.58 161.72 C 151.54 161.72 152.32 160.94 152.32 159.98 L 152.32 158.98 C 152.32 158.01 151.54 157.24 150.58 157.24 C 149.62 157.24 148.84 158.01 148.84 158.98 Z M 148.84 159.98 L 148.84 160.98 C 148.84 161.94 149.62 162.72 150.58 162.72 C 151.54 162.72 152.32 161.94 152.32 160.98 L 152.32 159.98 C 152.32 159.01 151.54 158.23 150.58 158.23 C 149.62 158.23 148.84 159.01 148.84 159.98 Z M 148.84 160.98 L 148.84 161.98 C 148.84 162.94 149.62 163.72 150.58 163.72 C 151.54 163.72 152.32 162.94 152.32 161.98 L 152.32 160.98 C 152.32 160.02 151.54 159.24 150.58 159.24 C 149.62 159.24 148.84 160.02 148.84 160.98 Z M 148.84 161.98 L 148.84 162.98 C 148.84 163.95 149.62 164.73 150.58 164.73 C 151.54 164.73 152.32 163.95 152.32 162.98 L 152.32 161.98 C 152.32 161.02 151.54 160.24 150.58 160.24 C 149.62 160.24 148.84 161.02 148.84 161.98 Z M 148.84 162.98 L 148.84 163.99 C 148.84 164.95 149.62 165.73 150.58 165.73 C 151.54 165.73 152.32 164.95 152.32 163.99 L 152.32 162.98 C 152.32 162.02 151.54 161.24 150.58 161.24 C 149.62 161.24 148.84 162.02 148.84 162.98 Z M 148.84 163.99 L 148.84 165.00 C 148.84 165.96 149.62 166.74 150.58 166.74 C 151.54 166.74 152.32 165.96 152.32 165.00 L 152.32 163.99 C 152.32 163.03 151.54 162.25 150.58 162.25 C 149.62 162.25 148.84 163.03 148.84 163.99 Z M 148.84 165.00 L 148.84 166.00 C 148.84 166.96 149.62 167.74 150.58 167.74 C 151.54 167.74 152.32 166.96 152.32 166.00 L 152.32 165.00 C 152.32 164.03 151.54 163.25 150.58 163.25 C 149.62 163.25 148.84 164.03 148.84 165.00 Z M 148.84 166.00 L 148.84 167.01 C 148.84 167.97 149.62 168.75 150.58 168.75 C 151.54 168.75 152.32 167.97 152.32 167.01 L 152.32 166.00 C 152.32 165.04 151.54 164.26 150.58 164.26 C 149.62 164.26 148.84 165.04 148.84 166.00 Z M 148.84 167.01 L 148.84 168.01 C 148.84 168.97 149.62 169.75 150.58 169.75 C 151.54 169.75 152.32 168.97 152.32 168.01 L 152.32 167.01 C 152.32 166.04 151.54 165.26 150.58 165.26 C 149.62 165.26 148.84 166.04 148.84 167.01 Z M 148.84 168.01 L 148.84 169.01 C 148.84 169.97 149.62 170.75 150.58 170.75 C 151.54 170.75 152.32 169.97 152.32 169.01 L 152.32 168.01 C 152.32 167.05 151.54 166.27 150.58 166.27 C 149.62 166.27 148.84 167.05 148.84 168.01 Z M 148.84 169.01 L 148.84 170.01 C 148.84 170.97 149.62 171.75 150.58 171.75 C 151.54 171.75 152.32 170.97 152.32 170.01 L 152.32 169.01 C 152.32 168.05 151.54 167.27 150.58 167.27 C 149.62 167.27 148.84 168.05 148.84 169.01 Z M 148.84 170.01 L 148.84 171.04 C 148.84 172.00 149.62 172.78 150.58 172.78 C 151.54 172.78 152.32 172.00 152.32 171.04 L 152.32 170.01 C 152.32 169.05 151.54 168.27 150.58 168.27 C 149.62 168.27 148.84 169.05 148.84 170.01 Z M 148.84 171.04 L 148.84 172.07 C 148.84 173.03 149.62 173.81 150.58 173.81 C 151.54 173.81 152.32 173.03 152.32 172.07 L 152.32 171.04 C 152.32 170.08 151.54 169.30 150.58 169.30 C 149.62 169.30 148.84 170.08 148.84 171.04 Z M 148.84 172.07 L 148.84 173.09 C 148.84 174.06 149.62 174.84 150.58 174.84 C 151.54 174.84 152.32 174.06 152.32 173.09 L 152.32 172.07 C 152.32 171.11 151.54 170.33 150.58 170.33 C 149.62 170.33 148.84 171.11 148.84 172.07 Z M 148.84 173.09 L 148.83 174.11 C 148.83 175.08 149.61 175.86 150.58 175.86 C 151.54 175.86 152.32 175.08 152.32 174.12 L 152.32 173.09 C 152.32 172.13 151.54 171.35 150.58 171.35 C 149.62 171.35 148.84 172.13 148.84 173.09 Z M 148.84 174.11 L 148.83 175.13 C 148.83 176.09 149.61 176.87 150.58 176.87 C 151.54 176.87 152.32 176.10 152.32 175.13 L 152.32 174.12 C 152.32 173.15 151.54 172.37 150.58 172.37 C 149.62 172.37 148.84 173.15 148.84 174.11 Z M 148.83 175.13 L 148.83 176.14 C 148.83 177.10 149.61 177.88 150.57 177.88 C 151.54 177.89 152.32 177.11 152.32 176.14 L 152.32 175.13 C 152.32 174.17 151.54 173.39 150.58 173.39 C 149.62 173.39 148.84 174.17 148.83 175.13 Z M 148.83 176.14 L 148.83 177.15 C 148.83 178.11 149.61 178.89 150.57 178.89 C 151.53 178.89 152.31 178.11 152.32 177.15 L 152.32 176.15 C 152.32 175.18 151.54 174.40 150.58 174.40 C 149.62 174.40 148.83 175.18 148.83 176.14 Z M 148.83 177.14 L 148.83 178.14 C 148.83 179.11 149.60 179.89 150.57 179.89 C 151.53 179.89 152.31 179.12 152.31 178.15 L 152.32 177.15 C 152.32 176.19 151.54 175.41 150.58 175.41 C 149.62 175.40 148.83 176.18 148.83 177.14 Z M 148.83 178.14 L 148.83 179.14 C 148.82 180.10 149.60 180.88 150.56 180.89 C 151.52 180.89 152.31 180.11 152.31 179.15 L 152.31 178.16 C 152.32 177.19 151.54 176.41 150.58 176.41 C 149.61 176.40 148.83 177.18 148.83 178.14 Z M 148.83 179.14 L 148.82 180.12 C 148.82 181.09 149.59 181.87 150.56 181.87 C 151.52 181.88 152.30 181.10 152.30 180.14 L 152.31 179.15 C 152.31 178.19 151.54 177.41 150.57 177.40 C 149.61 177.40 148.83 178.17 148.83 179.14 Z M 148.82 180.12 L 148.82 181.10 C 148.81 182.07 149.59 182.85 150.55 182.86 C 151.51 182.86 152.29 182.08 152.30 181.12 L 152.30 180.14 C 152.31 179.18 151.53 178.40 150.57 178.39 C 149.61 178.39 148.83 179.16 148.82 180.12 Z M 148.82 181.10 L 148.81 182.08 C 148.80 183.04 149.58 183.82 150.54 183.83 C 151.50 183.84 152.29 183.06 152.29 182.10 L 152.30 181.13 C 152.31 180.16 151.53 179.38 150.57 179.37 C 149.61 179.37 148.82 180.14 148.82 181.10 Z M 148.81 182.08 L 148.80 183.04 C 148.80 184.01 149.57 184.79 150.53 184.80 C 151.49 184.81 152.28 184.03 152.29 183.07 L 152.29 182.10 C 152.30 181.14 151.53 180.36 150.56 180.35 C 149.60 180.34 148.82 181.11 148.81 182.08 Z M 148.80 183.04 L 148.80 184.00 C 148.79 184.96 149.56 185.75 150.52 185.76 C 151.48 185.77 152.27 184.99 152.28 184.03 L 152.29 183.07 C 152.29 182.11 151.52 181.32 150.56 181.32 C 149.60 181.31 148.81 182.08 148.80 183.04 Z M 148.80 184.00 L 148.78 185.03 C 148.77 186.00 149.55 186.78 150.51 186.79 C 151.47 186.80 152.26 186.03 152.27 185.07 L 152.28 184.03 C 152.29 183.07 151.52 182.29 150.55 182.28 C 149.59 182.27 148.81 183.04 148.80 184.00 Z M 148.78 185.03 L 148.77 186.08 C 148.76 187.04 149.53 187.83 150.49 187.84 C 151.45 187.85 152.24 187.08 152.25 186.12 L 152.27 185.07 C 152.28 184.11 151.51 183.32 150.55 183.31 C 149.58 183.30 148.80 184.07 148.78 185.03 Z M 148.77 186.07 L 148.76 187.11 C 148.75 188.07 149.52 188.86 150.48 188.87 C 151.44 188.89 152.23 188.12 152.24 187.16 L 152.25 186.12 C 152.27 185.16 151.50 184.37 150.54 184.36 C 149.58 184.34 148.79 185.11 148.77 186.07 Z M 148.76 187.11 L 148.74 188.14 C 148.73 189.10 149.50 189.89 150.46 189.90 C 151.42 189.92 152.21 189.15 152.22 188.19 L 152.24 187.16 C 152.25 186.20 151.49 185.41 150.52 185.39 C 149.56 185.38 148.77 186.15 148.76 187.11 Z M 148.74 188.13 L 148.73 189.15 C 148.71 190.11 149.48 190.90 150.44 190.92 C 151.40 190.93 152.19 190.17 152.21 189.21 L 152.22 188.19 C 152.24 187.23 151.47 186.44 150.51 186.42 C 149.55 186.41 148.76 187.17 148.74 188.13 Z M 148.73 189.15 L 148.71 190.16 C 148.69 191.12 149.46 191.91 150.42 191.93 C 151.38 191.94 152.17 191.18 152.19 190.22 L 152.21 189.21 C 152.22 188.25 151.46 187.46 150.50 187.44 C 149.54 187.42 148.74 188.19 148.73 189.15 Z M 148.71 190.16 L 148.69 191.16 C 148.68 192.12 149.44 192.91 150.40 192.93 C 151.36 192.95 152.16 192.18 152.17 191.22 L 152.19 190.22 C 152.21 189.26 151.44 188.47 150.48 188.45 C 149.52 188.43 148.73 189.20 148.71 190.16 Z M 148.69 191.16 L 148.67 192.15 C 148.66 193.11 149.42 193.90 150.38 193.92 C 151.34 193.94 152.14 193.17 152.15 192.21 L 152.17 191.22 C 152.19 190.26 151.43 189.47 150.47 189.45 C 149.51 189.43 148.71 190.19 148.69 191.16 Z M 148.67 192.14 L 148.66 193.13 C 148.64 194.09 149.40 194.88 150.36 194.90 C 151.32 194.92 152.12 194.16 152.13 193.20 L 152.15 192.21 C 152.17 191.25 151.41 190.46 150.45 190.44 C 149.49 190.42 148.69 191.18 148.67 192.14 Z M 148.66 193.13 L 148.64 194.10 C 148.62 195.06 149.38 195.85 150.34 195.87 C 151.30 195.89 152.09 195.13 152.11 194.17 L 152.13 193.20 C 152.15 192.24 151.39 191.44 150.43 191.42 C 149.47 191.40 148.68 192.17 148.66 193.13 Z M 148.64 194.10 L 148.62 195.06 C 148.60 196.02 149.36 196.82 150.32 196.84 C 151.28 196.86 152.07 196.10 152.09 195.14 L 152.11 194.17 C 152.13 193.21 151.37 192.42 150.41 192.40 C 149.45 192.38 148.66 193.14 148.64 194.10 Z M 148.62 195.06 L 148.59 196.02 C 148.57 196.98 149.34 197.77 150.30 197.80 C 151.26 197.82 152.05 197.05 152.07 196.09 L 152.09 195.14 C 152.11 194.18 151.35 193.38 150.39 193.36 C 149.43 193.34 148.64 194.10 148.62 195.06 Z M 148.60 196.02 L 148.57 196.97 C 148.55 197.93 149.31 198.72 150.27 198.75 C 151.24 198.77 152.03 198.00 152.05 197.04 L 152.07 196.09 C 152.09 195.13 151.33 194.34 150.37 194.32 C 149.41 194.30 148.62 195.06 148.60 196.02 Z M 148.57 196.97 L 148.55 198.00 C 148.53 198.96 149.29 199.75 150.25 199.77 C 151.21 199.79 152.01 199.03 152.03 198.07 L 152.05 197.04 C 152.07 196.08 151.31 195.29 150.35 195.27 C 149.39 195.25 148.60 196.01 148.57 196.97 Z M 148.55 197.99 L 148.53 199.01 C 148.51 199.97 149.27 200.77 150.23 200.79 C 151.19 200.81 151.98 200.05 152.01 199.09 L 152.03 198.07 C 152.05 197.11 151.29 196.32 150.33 196.29 C 149.37 196.27 148.57 197.03 148.55 197.99 Z M 148.53 199.01 L 148.51 200.02 C 148.48 200.98 149.25 201.78 150.21 201.80 C 151.17 201.82 151.96 201.06 151.98 200.10 L 152.01 199.09 C 152.03 198.13 151.27 197.34 150.31 197.31 C 149.35 197.29 148.55 198.05 148.53 199.01 Z M 148.51 200.02 L 148.48 201.03 C 148.46 201.99 149.22 202.78 150.18 202.81 C 151.14 202.83 151.94 202.07 151.96 201.11 L 151.98 200.10 C 152.01 199.14 151.24 198.35 150.28 198.32 C 149.32 198.30 148.53 199.06 148.51 200.02 Z M 148.48 201.03 L 148.46 202.03 C 148.44 202.99 149.20 203.78 150.16 203.80 C 151.12 203.83 151.91 203.07 151.94 202.11 L 151.96 201.11 C 151.98 200.15 151.22 199.35 150.26 199.33 C 149.30 199.31 148.51 200.07 148.48 201.03 Z M 148.46 202.02 L 148.44 203.02 C 148.41 203.98 149.17 204.78 150.13 204.80 C 151.09 204.82 151.89 204.06 151.91 203.10 L 151.94 202.11 C 151.96 201.15 151.20 200.35 150.24 200.33 C 149.28 200.30 148.48 201.06 148.46 202.02 Z M 148.44 203.02 L 148.41 204.01 C 148.39 204.97 149.15 205.77 150.11 205.79 C 151.07 205.81 151.86 205.06 151.89 204.10 L 151.91 203.10 C 151.94 202.14 151.18 201.35 150.22 201.32 C 149.26 201.30 148.46 202.06 148.44 203.02 Z M 148.41 204.01 L 148.39 205.00 C 148.36 205.96 149.12 206.76 150.08 206.78 C 151.04 206.80 151.84 206.05 151.86 205.09 L 151.89 204.10 C 151.91 203.14 151.15 202.34 150.19 202.31 C 149.23 202.29 148.44 203.05 148.41 204.01 Z M 148.39 205.00 L 148.36 205.99 C 148.34 206.95 149.09 207.74 150.05 207.77 C 151.01 207.79 151.81 207.04 151.84 206.08 L 151.86 205.09 C 151.89 204.13 151.13 203.33 150.17 203.30 C 149.21 203.28 148.41 204.04 148.39 205.00 Z M 148.36 205.98 L 148.33 206.97 C 148.31 207.93 149.07 208.73 150.03 208.76 C 150.99 208.78 151.78 208.03 151.81 207.07 L 151.84 206.08 C 151.86 205.12 151.11 204.32 150.15 204.29 C 149.19 204.27 148.39 205.02 148.36 205.98 Z M 148.33 206.97 L 148.31 207.96 C 148.28 208.92 149.04 209.72 150.00 209.75 C 150.96 209.77 151.76 209.02 151.78 208.06 L 151.81 207.07 C 151.84 206.11 151.08 205.31 150.12 205.28 C 149.16 205.25 148.36 206.01 148.33 206.97 Z M 148.31 207.96 L 148.28 208.97 C 148.25 209.93 149.01 210.73 149.97 210.76 C 150.93 210.78 151.73 210.03 151.75 209.07 L 151.78 208.06 C 151.81 207.10 151.05 206.30 150.09 206.27 C 149.13 206.24 148.33 207.00 148.31 207.96 Z M 148.28 208.97 L 148.25 210.02 C 148.22 210.98 148.98 211.78 149.93 211.81 C 150.89 211.83 151.69 211.08 151.72 210.12 L 151.75 209.07 C 151.78 208.11 151.03 207.31 150.07 207.28 C 149.11 207.25 148.31 208.01 148.28 208.97 Z M 148.25 210.02 L 148.22 211.07 C 148.19 212.02 148.94 212.83 149.90 212.85 C 150.86 212.88 151.66 212.13 151.69 211.17 L 151.72 210.12 C 151.75 209.16 151.00 208.36 150.04 208.33 C 149.08 208.30 148.28 209.06 148.25 210.02 Z M 148.22 211.06 L 148.19 212.11 C 148.16 213.07 148.91 213.87 149.87 213.90 C 150.82 213.93 151.63 213.18 151.66 212.22 L 151.69 211.17 C 151.72 210.21 150.97 209.41 150.01 209.38 C 149.05 209.35 148.25 210.11 148.22 211.06 Z M 148.19 212.11 L 148.15 213.14 C 148.12 214.10 148.87 214.90 149.83 214.93 C 150.79 214.97 151.59 214.22 151.62 213.26 L 151.65 212.22 C 151.69 211.26 150.94 210.46 149.98 210.43 C 149.02 210.40 148.22 211.15 148.19 212.11 Z M 148.15 213.14 L 148.12 214.17 C 148.09 215.12 148.83 215.93 149.79 215.96 C 150.75 215.99 151.55 215.24 151.58 214.29 L 151.62 213.26 C 151.65 212.30 150.90 211.50 149.95 211.47 C 148.99 211.44 148.19 212.18 148.15 213.14 Z M 148.12 214.16 L 148.08 215.18 C 148.05 216.13 148.80 216.94 149.75 216.97 C 150.71 217.00 151.51 216.26 151.55 215.30 L 151.58 214.29 C 151.62 213.33 150.87 212.53 149.91 212.50 C 148.96 212.46 148.15 213.21 148.12 214.16 Z M 148.08 215.17 L 148.05 216.17 C 148.01 217.12 148.76 217.93 149.71 217.96 C 150.67 218.00 151.47 217.25 151.51 216.30 L 151.55 215.30 C 151.58 214.35 150.84 213.54 149.88 213.51 C 148.92 213.47 148.12 214.22 148.08 215.17 Z M 148.05 216.16 L 148.01 217.14 C 147.97 218.09 148.72 218.90 149.67 218.94 C 150.63 218.97 151.43 218.23 151.47 217.27 L 151.51 216.30 C 151.55 215.35 150.80 214.54 149.85 214.50 C 148.89 214.47 148.09 215.21 148.05 216.16 Z M 148.01 217.13 L 147.97 218.08 C 147.93 219.04 148.67 219.84 149.63 219.88 C 150.58 219.92 151.39 219.18 151.43 218.23 L 151.47 217.28 C 151.51 216.32 150.77 215.52 149.81 215.48 C 148.86 215.44 148.05 216.18 148.01 217.13 Z M 147.97 218.08 L 147.93 219.00 C 147.89 219.95 148.63 220.76 149.58 220.80 C 150.54 220.84 151.34 220.10 151.39 219.15 L 151.43 218.23 C 151.47 217.28 150.73 216.47 149.78 216.43 C 148.82 216.38 148.01 217.12 147.97 218.08 Z M 147.93 218.99 L 147.89 219.96 C 147.84 220.91 148.58 221.72 149.53 221.77 C 150.49 221.81 151.29 221.08 151.34 220.12 L 151.39 219.16 C 151.43 218.20 150.69 217.39 149.74 217.35 C 148.79 217.30 147.98 218.04 147.93 218.99 Z M 147.89 219.95 L 147.83 221.10 C 147.78 222.05 148.52 222.87 149.47 222.91 C 150.42 222.96 151.23 222.23 151.28 221.28 L 151.34 220.13 C 151.39 219.18 150.65 218.37 149.70 218.32 C 148.75 218.27 147.94 219.00 147.89 219.95 Z M 147.83 221.10 L 147.77 222.19 C 147.72 223.14 148.45 223.95 149.40 224.00 C 150.35 224.06 151.17 223.33 151.22 222.38 L 151.28 221.28 C 151.33 220.33 150.60 219.52 149.65 219.47 C 148.70 219.42 147.89 220.14 147.83 221.10 Z M 147.78 222.18 L 147.71 223.22 C 147.66 224.17 148.38 224.99 149.33 225.05 C 150.28 225.10 151.10 224.38 151.15 223.43 L 151.22 222.38 C 151.27 221.43 150.55 220.62 149.60 220.56 C 148.65 220.51 147.83 221.23 147.78 222.18 Z M 147.72 223.22 L 147.65 224.22 C 147.60 225.16 148.32 225.98 149.26 226.04 C 150.21 226.10 151.03 225.38 151.09 224.43 L 151.15 223.43 C 151.21 222.48 150.49 221.67 149.54 221.61 C 148.59 221.55 147.78 222.27 147.72 223.22 Z M 147.66 224.21 L 147.59 225.17 C 147.53 226.12 148.25 226.93 149.19 227.00 C 150.14 227.06 150.96 226.34 151.02 225.40 L 151.09 224.44 C 151.15 223.49 150.43 222.67 149.49 222.61 C 148.54 222.55 147.72 223.26 147.66 224.21 Z M 147.60 225.16 L 147.53 226.09 C 147.47 227.03 148.18 227.85 149.13 227.92 C 150.07 227.98 150.89 227.27 150.96 226.32 L 151.02 225.40 C 151.09 224.45 150.37 223.63 149.43 223.57 C 148.48 223.50 147.66 224.22 147.60 225.16 Z M 147.53 226.08 L 147.47 226.98 C 147.40 227.92 148.11 228.74 149.06 228.81 C 150.00 228.88 150.82 228.17 150.89 227.22 L 150.95 226.33 C 151.02 225.38 150.31 224.56 149.37 224.49 C 148.42 224.43 147.60 225.14 147.53 226.08 Z M 147.47 226.97 L 147.40 227.86 C 147.33 228.80 148.04 229.62 148.99 229.69 C 149.93 229.76 150.75 229.06 150.82 228.11 L 150.89 227.23 C 150.96 226.28 150.25 225.46 149.31 225.39 C 148.36 225.32 147.54 226.03 147.47 226.97 Z M 147.41 227.85 L 147.32 228.92 C 147.25 229.87 147.96 230.69 148.90 230.76 C 149.84 230.83 150.66 230.13 150.74 229.19 L 150.82 228.12 C 150.89 227.17 150.19 226.35 149.24 226.28 C 148.30 226.21 147.48 226.91 147.41 227.85 Z M 147.33 228.92 L 147.24 229.96 C 147.17 230.90 147.87 231.72 148.81 231.80 C 149.75 231.88 150.58 231.17 150.65 230.23 L 150.73 229.19 C 150.81 228.25 150.11 227.43 149.17 227.35 C 148.23 227.28 147.40 227.98 147.33 228.92 Z M 147.25 229.95 L 147.16 230.96 C 147.08 231.90 147.78 232.73 148.72 232.81 C 149.66 232.89 150.48 232.19 150.56 231.25 L 150.65 230.24 C 150.73 229.30 150.03 228.47 149.09 228.40 C 148.15 228.32 147.33 229.01 147.25 229.95 Z M 147.16 230.96 L 147.08 231.94 C 146.99 232.88 147.68 233.71 148.62 233.79 C 149.56 233.87 150.39 233.18 150.47 232.24 L 150.56 231.26 C 150.64 230.32 149.95 229.49 149.01 229.41 C 148.08 229.33 147.25 230.02 147.16 230.96 Z M 147.08 231.93 L 146.99 232.89 C 146.90 233.82 147.58 234.65 148.52 234.74 C 149.45 234.84 150.29 234.15 150.38 233.21 L 150.47 232.26 C 150.56 231.32 149.87 230.49 148.94 230.40 C 148.00 230.31 147.17 230.99 147.08 231.93 Z M 146.99 232.87 L 146.89 233.81 C 146.80 234.74 147.47 235.58 148.41 235.68 C 149.34 235.77 150.18 235.09 150.28 234.16 L 150.37 233.23 C 150.47 232.29 149.79 231.46 148.86 231.36 C 147.92 231.26 147.09 231.94 146.99 232.87 Z M 146.90 233.79 L 146.78 234.80 C 146.68 235.73 147.35 236.57 148.28 236.68 C 149.21 236.78 150.05 236.11 150.16 235.18 L 150.27 234.18 C 150.38 233.24 149.71 232.40 148.78 232.30 C 147.84 232.19 147.00 232.86 146.90 233.79 Z M 146.79 234.78 L 146.66 235.82 C 146.54 236.75 147.20 237.60 148.13 237.71 C 149.06 237.83 149.91 237.17 150.02 236.24 L 150.15 235.20 C 150.27 234.27 149.61 233.42 148.68 233.31 C 147.75 233.19 146.90 233.85 146.79 234.78 Z M 146.66 235.81 L 146.53 236.82 C 146.41 237.74 147.06 238.59 147.99 238.71 C 148.91 238.84 149.76 238.19 149.88 237.26 L 150.02 236.25 C 150.14 235.32 149.49 234.47 148.56 234.35 C 147.64 234.23 146.79 234.88 146.66 235.81 Z M 146.54 236.81 L 146.40 237.79 C 146.27 238.71 146.92 239.56 147.84 239.69 C 148.76 239.82 149.62 239.17 149.74 238.25 L 149.88 237.27 C 150.01 236.35 149.36 235.49 148.44 235.37 C 147.52 235.24 146.66 235.88 146.54 236.81 Z M 146.40 237.78 L 146.27 238.73 C 146.14 239.65 146.78 240.51 147.70 240.64 C 148.62 240.77 149.47 240.13 149.60 239.21 L 149.74 238.26 C 149.87 237.33 149.23 236.48 148.31 236.35 C 147.39 236.22 146.54 236.86 146.40 237.78 Z M 146.27 238.73 L 146.14 239.67 C 146.00 240.59 146.64 241.44 147.56 241.57 C 148.48 241.71 149.33 241.07 149.46 240.15 L 149.60 239.21 C 149.73 238.29 149.10 237.44 148.18 237.31 C 147.26 237.17 146.40 237.81 146.27 238.73 Z M 146.14 239.67 L 145.99 240.71 C 145.86 241.62 146.49 242.48 147.41 242.61 C 148.33 242.74 149.18 242.11 149.31 241.19 L 149.46 240.15 C 149.59 239.23 148.96 238.38 148.04 238.25 C 147.12 238.12 146.27 238.75 146.14 239.67 Z M 145.99 240.71 L 145.85 241.71 C 145.71 242.63 146.35 243.48 147.26 243.61 C 148.17 243.74 149.02 243.11 149.16 242.20 L 149.30 241.19 C 149.44 240.28 148.80 239.43 147.89 239.29 C 146.98 239.16 146.13 239.79 145.99 240.71 Z M 145.85 241.71 L 145.71 242.69 C 145.57 243.60 146.20 244.45 147.11 244.58 C 148.02 244.72 148.87 244.09 149.00 243.18 L 149.15 242.20 C 149.29 241.29 148.66 240.44 147.75 240.31 C 146.84 240.17 145.99 240.80 145.85 241.71 Z M 145.71 242.68 L 145.57 243.64 C 145.42 244.54 146.05 245.39 146.95 245.53 C 147.86 245.67 148.71 245.05 148.85 244.15 L 149.00 243.19 C 149.14 242.28 148.52 241.43 147.61 241.29 C 146.70 241.15 145.85 241.77 145.71 242.68 Z M 145.57 243.62 L 145.42 244.59 C 145.27 245.49 145.88 246.34 146.78 246.49 C 147.69 246.64 148.54 246.02 148.69 245.12 L 148.84 244.16 C 148.99 243.25 148.38 242.40 147.47 242.26 C 146.57 242.11 145.72 242.72 145.57 243.62 Z M 145.42 244.58 L 145.25 245.58 C 145.10 246.48 145.70 247.33 146.60 247.48 C 147.50 247.64 148.35 247.03 148.51 246.13 L 148.68 245.13 C 148.83 244.24 148.23 243.38 147.33 243.23 C 146.43 243.07 145.58 243.68 145.42 244.58 Z M 145.26 245.57 L 145.09 246.55 C 144.93 247.45 145.53 248.30 146.42 248.46 C 147.31 248.62 148.17 248.02 148.32 247.13 L 148.50 246.14 C 148.66 245.25 148.06 244.39 147.17 244.24 C 146.27 244.08 145.42 244.67 145.26 245.57 Z M 145.09 246.55 L 144.92 247.53 C 144.76 248.42 145.36 249.27 146.25 249.43 C 147.14 249.59 147.99 248.99 148.14 248.10 L 148.32 247.13 C 148.48 246.24 147.88 245.39 146.99 245.23 C 146.10 245.07 145.25 245.66 145.09 246.55 Z M 144.93 247.54 L 144.76 248.51 C 144.60 249.39 145.19 250.24 146.08 250.39 C 146.97 250.55 147.81 249.96 147.97 249.07 L 148.14 248.10 C 148.29 247.21 147.70 246.36 146.81 246.21 C 145.93 246.05 145.08 246.65 144.93 247.54 Z M 144.76 248.52 L 144.60 249.46 C 144.45 250.35 145.05 251.19 145.93 251.34 C 146.81 251.49 147.65 250.89 147.80 250.01 L 147.96 249.06 C 148.11 248.17 147.52 247.34 146.63 247.19 C 145.75 247.04 144.91 247.63 144.76 248.52 Z M 144.61 249.46 L 144.44 250.42 C 144.30 251.30 144.89 252.14 145.77 252.29 C 146.65 252.44 147.48 251.84 147.63 250.96 L 147.80 250.00 C 147.95 249.12 147.35 248.29 146.47 248.14 C 145.59 247.99 144.76 248.58 144.61 249.46 Z M 144.45 250.41 L 144.28 251.39 C 144.13 252.27 144.71 253.10 145.59 253.26 C 146.46 253.41 147.30 252.83 147.45 251.95 L 147.62 250.97 C 147.78 250.10 147.19 249.26 146.32 249.11 C 145.44 248.95 144.61 249.54 144.45 250.41 Z M 144.29 251.37 L 144.10 252.39 C 143.93 253.26 144.50 254.10 145.37 254.26 C 146.24 254.43 147.08 253.86 147.25 252.99 L 147.44 251.97 C 147.61 251.10 147.03 250.26 146.16 250.10 C 145.29 249.93 144.46 250.50 144.29 251.37 Z M 144.11 252.36 L 143.90 253.38 C 143.72 254.25 144.27 255.09 145.14 255.27 C 146.00 255.45 146.85 254.90 147.02 254.03 L 147.24 253.01 C 147.42 252.15 146.86 251.30 146.00 251.13 C 145.13 250.95 144.29 251.50 144.11 252.36 Z M 143.91 253.35 L 143.68 254.36 C 143.48 255.21 144.02 256.07 144.87 256.26 C 145.73 256.46 146.58 255.93 146.78 255.07 L 147.01 254.06 C 147.21 253.21 146.67 252.36 145.82 252.16 C 144.96 251.96 144.11 252.50 143.91 253.35 Z M 143.70 254.32 L 143.44 255.32 C 143.22 256.17 143.73 257.03 144.58 257.25 C 145.42 257.47 146.29 256.96 146.51 256.11 L 146.76 255.11 C 146.98 254.26 146.47 253.40 145.63 253.18 C 144.78 252.96 143.92 253.47 143.70 254.32 Z M 143.46 255.27 L 143.17 256.24 C 142.92 257.07 143.40 257.95 144.24 258.20 C 145.07 258.45 145.95 257.97 146.20 257.13 L 146.48 256.17 C 146.73 255.33 146.26 254.45 145.42 254.21 C 144.58 253.96 143.71 254.43 143.46 255.27 Z M 143.20 256.17 L 142.89 257.07 C 142.60 257.89 143.03 258.79 143.85 259.07 C 144.67 259.36 145.57 258.93 145.85 258.11 L 146.17 257.20 C 146.45 256.38 146.02 255.49 145.20 255.20 C 144.38 254.92 143.49 255.35 143.20 256.17 Z M 142.94 256.95 L 142.46 258.03 C 142.11 258.82 142.47 259.74 143.26 260.10 C 144.05 260.45 144.97 260.09 145.33 259.30 L 145.80 258.23 C 146.15 257.43 145.80 256.51 145.01 256.16 C 144.22 255.81 143.29 256.16 142.94 256.95 Z M 142.59 257.79 L 141.98 258.71 C 141.50 259.43 141.69 260.40 142.40 260.88 C 143.12 261.37 144.09 261.17 144.58 260.46 L 145.19 259.53 C 145.67 258.82 145.48 257.84 144.76 257.36 C 144.05 256.88 143.07 257.07 142.59 257.79 Z M 142.44 258.27 L 141.79 258.68 C 141.07 259.14 140.85 260.10 141.31 260.83 C 141.78 261.56 142.74 261.78 143.47 261.31 L 144.11 260.90 C 144.84 260.44 145.06 259.48 144.59 258.75 C 144.13 258.02 143.17 257.80 142.44 258.27 Z M 143.11 258.51 L 142.50 258.31 C 141.68 258.05 140.80 258.51 140.54 259.33 C 140.28 260.15 140.73 261.03 141.55 261.29 L 142.16 261.48 C 142.98 261.74 143.86 261.29 144.12 260.47 C 144.38 259.65 143.93 258.77 143.11 258.51 Z M 143.21 258.79 L 142.64 258.12 C 142.08 257.47 141.10 257.39 140.44 257.95 C 139.79 258.51 139.71 259.50 140.27 260.15 L 140.84 260.82 C 141.40 261.47 142.39 261.55 143.04 260.99 C 143.70 260.43 143.77 259.44 143.21 258.79 Z M 142.81 258.36 L 142.25 257.38 C 141.81 256.63 140.86 256.38 140.11 256.81 C 139.37 257.24 139.11 258.20 139.54 258.94 L 140.11 259.92 C 140.54 260.66 141.49 260.92 142.24 260.49 C 142.99 260.06 143.24 259.10 142.81 258.36 Z M 142.29 257.46 L 141.77 256.42 C 141.38 255.65 140.45 255.34 139.68 255.72 C 138.90 256.11 138.59 257.04 138.98 257.82 L 139.50 258.86 C 139.88 259.63 140.82 259.94 141.59 259.56 C 142.36 259.17 142.68 258.24 142.29 257.46 Z M 141.78 256.44 L 141.35 255.55 C 140.97 254.78 140.04 254.45 139.26 254.83 C 138.49 255.20 138.16 256.14 138.54 256.91 L 138.97 257.80 C 139.34 258.57 140.28 258.90 141.05 258.52 C 141.83 258.15 142.15 257.21 141.78 256.44 Z M 141.35 255.55 L 140.91 254.65 C 140.54 253.88 139.60 253.55 138.83 253.93 C 138.05 254.31 137.73 255.24 138.10 256.02 L 138.54 256.91 C 138.92 257.69 139.85 258.01 140.62 257.64 C 141.40 257.26 141.72 256.33 141.35 255.55 Z M 140.91 254.64 L 140.46 253.74 C 140.08 252.97 139.14 252.65 138.37 253.03 C 137.60 253.41 137.28 254.35 137.66 255.12 L 138.11 256.03 C 138.49 256.80 139.43 257.12 140.20 256.73 C 140.97 256.35 141.29 255.42 140.91 254.64 Z M 140.45 253.72 L 139.99 252.81 C 139.59 252.05 138.65 251.74 137.89 252.14 C 137.12 252.53 136.82 253.47 137.21 254.24 L 137.67 255.14 C 138.06 255.91 139.00 256.21 139.77 255.82 C 140.54 255.43 140.84 254.49 140.45 253.72 Z M 139.97 252.79 L 139.50 251.91 C 139.09 251.15 138.15 250.86 137.39 251.27 C 136.63 251.68 136.34 252.63 136.75 253.39 L 137.22 254.26 C 137.63 255.02 138.58 255.31 139.34 254.90 C 140.10 254.49 140.38 253.55 139.97 252.79 Z M 139.49 251.88 L 139.00 251.01 C 138.57 250.26 137.62 249.99 136.87 250.42 C 136.12 250.84 135.85 251.79 136.28 252.54 L 136.77 253.41 C 137.19 254.17 138.14 254.43 138.89 254.01 C 139.64 253.59 139.91 252.63 139.49 251.88 Z M 138.98 250.99 L 138.48 250.12 C 138.04 249.38 137.08 249.13 136.34 249.57 C 135.60 250.01 135.35 250.96 135.78 251.71 L 136.29 252.57 C 136.73 253.31 137.68 253.56 138.43 253.12 C 139.17 252.69 139.42 251.73 138.98 250.99 Z M 138.46 250.10 L 137.94 249.25 C 137.49 248.51 136.53 248.28 135.79 248.73 C 135.06 249.17 134.83 250.14 135.27 250.87 L 135.80 251.73 C 136.25 252.46 137.21 252.70 137.94 252.25 C 138.68 251.80 138.91 250.84 138.46 250.10 Z M 137.93 249.23 L 137.40 248.39 C 136.94 247.66 135.97 247.44 135.24 247.90 C 134.52 248.36 134.30 249.32 134.76 250.05 L 135.29 250.89 C 135.75 251.62 136.71 251.84 137.44 251.38 C 138.17 250.92 138.39 249.95 137.93 249.23 Z M 137.39 248.37 L 136.85 247.54 C 136.38 246.82 135.41 246.62 134.69 247.08 C 133.97 247.55 133.76 248.52 134.23 249.24 L 134.77 250.07 C 135.24 250.79 136.21 251.00 136.93 250.53 C 137.65 250.06 137.86 249.09 137.39 248.37 Z M 136.84 247.53 L 136.29 246.70 C 135.82 245.99 134.85 245.79 134.13 246.27 C 133.41 246.74 133.22 247.71 133.69 248.43 L 134.24 249.26 C 134.72 249.98 135.69 250.17 136.40 249.69 C 137.12 249.22 137.32 248.25 136.84 247.53 Z M 136.29 246.70 L 135.73 245.86 C 135.25 245.14 134.28 244.95 133.56 245.44 C 132.84 245.92 132.65 246.89 133.14 247.60 L 133.70 248.44 C 134.18 249.15 135.15 249.34 135.86 248.86 C 136.58 248.38 136.77 247.41 136.29 246.70 Z M 135.72 245.86 L 135.15 245.01 C 134.67 244.29 133.70 244.11 132.98 244.59 C 132.27 245.07 132.08 246.04 132.56 246.76 L 133.14 247.61 C 133.62 248.32 134.59 248.51 135.31 248.02 C 136.02 247.54 136.21 246.57 135.72 245.86 Z M 135.15 245.01 L 134.57 244.15 C 134.08 243.43 133.11 243.25 132.40 243.73 C 131.68 244.21 131.50 245.18 131.98 245.90 L 132.56 246.76 C 133.05 247.47 134.02 247.66 134.73 247.18 C 135.45 246.69 135.63 245.72 135.15 245.01 Z M 134.57 244.15 L 133.99 243.29 C 133.50 242.57 132.53 242.38 131.82 242.87 C 131.10 243.35 130.92 244.32 131.40 245.03 L 131.98 245.90 C 132.46 246.61 133.43 246.80 134.15 246.32 C 134.86 245.83 135.05 244.86 134.57 244.15 Z M 133.99 243.29 L 133.42 242.45 C 132.94 241.73 131.98 241.54 131.26 242.02 C 130.54 242.50 130.35 243.47 130.83 244.19 L 131.39 245.03 C 131.87 245.74 132.84 245.94 133.56 245.46 C 134.28 244.98 134.47 244.01 133.99 243.29 Z M 133.43 242.46 L 132.90 241.65 C 132.42 240.93 131.45 240.73 130.73 241.21 C 130.01 241.68 129.82 242.65 130.29 243.37 L 130.83 244.18 C 131.30 244.90 132.27 245.09 132.99 244.62 C 133.71 244.14 133.91 243.17 133.43 242.46 Z M 132.91 241.66 L 132.36 240.82 C 131.89 240.10 130.93 239.89 130.20 240.36 C 129.48 240.83 129.27 241.80 129.74 242.52 L 130.28 243.36 C 130.75 244.08 131.72 244.29 132.44 243.82 C 133.17 243.35 133.37 242.39 132.91 241.66 Z M 132.37 240.84 L 131.80 239.94 C 131.34 239.21 130.38 238.99 129.65 239.45 C 128.92 239.91 128.70 240.88 129.16 241.61 L 129.73 242.51 C 130.19 243.24 131.16 243.45 131.89 242.99 C 132.61 242.53 132.83 241.57 132.37 240.84 Z M 131.81 239.95 L 131.30 239.13 C 130.84 238.40 129.88 238.17 129.15 238.63 C 128.41 239.08 128.19 240.05 128.65 240.78 L 129.16 241.60 C 129.61 242.33 130.58 242.55 131.31 242.10 C 132.04 241.64 132.26 240.68 131.81 239.95 Z M 131.29 239.12 L 130.80 238.35 C 130.34 237.62 129.38 237.40 128.65 237.86 C 127.92 238.32 127.70 239.28 128.16 240.01 L 128.65 240.79 C 129.11 241.52 130.08 241.73 130.80 241.27 C 131.53 240.81 131.75 239.85 131.29 239.12 Z M 130.79 238.33 L 130.25 237.49 C 129.77 236.77 128.81 236.56 128.08 237.04 C 127.36 237.51 127.16 238.47 127.63 239.20 L 128.18 240.03 C 128.65 240.75 129.62 240.96 130.34 240.49 C 131.06 240.02 131.26 239.05 130.79 238.33 Z M 130.23 237.47 L 129.68 236.64 C 129.20 235.93 128.23 235.74 127.51 236.22 C 126.79 236.70 126.60 237.67 127.08 238.38 L 127.64 239.21 C 128.12 239.93 129.09 240.12 129.81 239.64 C 130.52 239.16 130.71 238.19 130.23 237.47 Z M 129.67 236.63 L 129.11 235.81 C 128.62 235.10 127.65 234.91 126.94 235.40 C 126.23 235.88 126.04 236.86 126.53 237.57 L 127.09 238.39 C 127.58 239.10 128.55 239.29 129.26 238.80 C 129.97 238.32 130.16 237.35 129.67 236.63 Z M 129.11 235.81 L 129.06 235.73 C 128.57 235.02 127.60 234.84 126.89 235.33 C 126.17 235.81 125.99 236.78 126.48 237.50 L 126.53 237.57 C 127.02 238.28 127.99 238.46 128.70 237.98 C 129.41 237.49 129.59 236.52 129.11 235.81 Z"
      fill="black"
      fill-rule="nonzero" /><path d="M 96.49 143.71 L 95.54 143.44 C 94.71 143.21 93.85 143.69 93.62 144.52 C 93.39 145.35 93.87 146.21 94.70 146.45 L 95.65 146.71 C 96.48 146.95 97.34 146.46 97.58 145.63 C 97.81 144.80 97.32 143.94 96.49 143.71 Z M 95.50 143.43 L 94.54 143.19 C 93.70 142.98 92.85 143.49 92.65 144.33 C 92.44 145.16 92.95 146.01 93.78 146.22 L 94.74 146.46 C 95.58 146.67 96.43 146.16 96.64 145.32 C 96.85 144.49 96.34 143.64 95.50 143.43 Z M 94.45 143.17 L 93.47 142.98 C 92.62 142.82 91.80 143.38 91.64 144.22 C 91.48 145.07 92.04 145.89 92.89 146.05 L 93.87 146.24 C 94.72 146.40 95.53 145.84 95.69 145.00 C 95.86 144.15 95.30 143.33 94.45 143.17 Z M 93.34 142.96 L 92.33 142.86 C 91.47 142.77 90.71 143.39 90.62 144.24 C 90.52 145.10 91.15 145.87 92.00 145.96 L 93.01 146.07 C 93.87 146.16 94.64 145.54 94.73 144.68 C 94.82 143.82 94.20 143.06 93.34 142.96 Z M 92.18 142.85 L 91.20 142.84 C 90.34 142.84 89.64 143.53 89.63 144.40 C 89.63 145.26 90.32 145.96 91.19 145.97 L 92.16 145.97 C 93.02 145.98 93.72 145.28 93.73 144.42 C 93.73 143.56 93.04 142.85 92.18 142.85 Z M 91.02 142.85 L 90.03 142.97 C 89.18 143.06 88.56 143.84 88.66 144.69 C 88.76 145.55 89.53 146.17 90.39 146.07 L 91.37 145.96 C 92.23 145.86 92.84 145.08 92.75 144.23 C 92.65 143.37 91.87 142.76 91.02 142.85 Z M 89.81 143.01 L 88.84 143.26 C 88.01 143.48 87.51 144.34 87.73 145.17 C 87.95 146.01 88.81 146.50 89.64 146.28 L 90.61 146.03 C 91.44 145.81 91.94 144.95 91.72 144.12 C 91.50 143.28 90.65 142.79 89.81 143.01 Z M 88.59 143.35 L 87.66 143.78 C 86.88 144.14 86.53 145.07 86.89 145.85 C 87.25 146.63 88.18 146.98 88.96 146.62 L 89.89 146.19 C 90.68 145.83 91.02 144.91 90.66 144.12 C 90.30 143.34 89.37 142.99 88.59 143.35 Z M 87.42 143.92 L 86.62 144.47 C 85.91 144.96 85.74 145.94 86.23 146.65 C 86.72 147.35 87.70 147.53 88.40 147.04 L 89.20 146.48 C 89.91 145.99 90.08 145.02 89.59 144.31 C 89.10 143.60 88.13 143.43 87.42 143.92 Z M 86.46 144.61 L 85.72 145.28 C 85.09 145.86 85.05 146.85 85.63 147.49 C 86.21 148.12 87.20 148.16 87.84 147.58 L 88.57 146.90 C 89.20 146.32 89.24 145.33 88.66 144.70 C 88.08 144.06 87.09 144.02 86.46 144.61 Z M 85.62 145.39 L 84.94 146.14 C 84.36 146.78 84.41 147.77 85.06 148.35 C 85.70 148.92 86.68 148.87 87.26 148.23 L 87.94 147.47 C 88.52 146.83 88.46 145.84 87.82 145.27 C 87.18 144.69 86.19 144.74 85.62 145.39 Z M 84.87 146.22 L 84.24 147.02 C 83.71 147.70 83.82 148.68 84.50 149.21 C 85.18 149.75 86.16 149.63 86.69 148.95 L 87.32 148.15 C 87.86 147.48 87.74 146.49 87.07 145.96 C 86.39 145.43 85.41 145.54 84.87 146.22 Z M 84.21 147.07 L 83.62 147.88 C 83.11 148.58 83.26 149.55 83.96 150.06 C 84.66 150.57 85.63 150.41 86.14 149.72 L 86.73 148.90 C 87.24 148.21 87.08 147.23 86.39 146.72 C 85.69 146.22 84.71 146.37 84.21 147.07 Z M 83.59 147.91 L 83.01 148.76 C 82.52 149.47 82.69 150.44 83.40 150.93 C 84.11 151.42 85.08 151.24 85.58 150.53 L 86.16 149.69 C 86.65 148.98 86.48 148.00 85.77 147.51 C 85.06 147.02 84.08 147.20 83.59 147.91 Z M 82.98 148.79 L 82.44 149.62 C 81.97 150.34 82.17 151.31 82.90 151.78 C 83.62 152.25 84.58 152.05 85.06 151.33 L 85.60 150.50 C 86.07 149.78 85.87 148.81 85.15 148.34 C 84.42 147.87 83.46 148.07 82.98 148.79 Z M 82.42 149.66 L 81.91 150.49 C 81.46 151.23 81.69 152.19 82.43 152.64 C 83.16 153.09 84.12 152.86 84.57 152.12 L 85.08 151.29 C 85.53 150.55 85.30 149.59 84.56 149.14 C 83.83 148.69 82.87 148.93 82.42 149.66 Z M 81.88 150.54 L 81.39 151.40 C 80.97 152.15 81.23 153.10 81.98 153.53 C 82.73 153.95 83.68 153.69 84.11 152.94 L 84.60 152.08 C 85.02 151.33 84.76 150.38 84.01 149.95 C 83.26 149.53 82.31 149.79 81.88 150.54 Z M 81.37 151.44 L 80.93 152.26 C 80.53 153.02 80.82 153.97 81.58 154.37 C 82.34 154.78 83.29 154.49 83.69 153.72 L 84.13 152.90 C 84.53 152.14 84.24 151.19 83.48 150.79 C 82.72 150.39 81.78 150.68 81.37 151.44 Z M 80.92 152.29 L 80.49 153.15 C 80.10 153.92 80.41 154.86 81.18 155.25 C 81.96 155.63 82.89 155.32 83.28 154.55 L 83.71 153.69 C 84.10 152.92 83.78 151.98 83.01 151.60 C 82.24 151.21 81.30 151.52 80.92 152.29 Z M 80.48 153.18 L 80.05 154.08 C 79.67 154.86 80.00 155.79 80.78 156.16 C 81.56 156.53 82.49 156.20 82.86 155.42 L 83.29 154.52 C 83.66 153.75 83.34 152.81 82.56 152.44 C 81.78 152.07 80.85 152.40 80.48 153.18 Z M 80.04 154.10 L 79.60 155.04 C 79.24 155.83 79.58 156.75 80.37 157.11 C 81.15 157.47 82.08 157.13 82.44 156.35 L 82.87 155.40 C 83.23 154.62 82.89 153.69 82.11 153.33 C 81.32 152.97 80.40 153.31 80.04 154.10 Z M 79.59 155.06 L 79.16 156.02 C 78.81 156.81 79.16 157.73 79.95 158.09 C 80.73 158.44 81.66 158.09 82.01 157.30 L 82.44 156.33 C 82.80 155.55 82.44 154.62 81.66 154.27 C 80.87 153.92 79.95 154.27 79.59 155.06 Z M 79.16 156.03 L 78.78 156.88 C 78.44 157.67 78.80 158.59 79.58 158.94 C 80.37 159.29 81.30 158.93 81.64 158.14 L 82.02 157.29 C 82.36 156.50 82.00 155.58 81.21 155.23 C 80.42 154.88 79.50 155.24 79.16 156.03 Z M 78.78 156.90 L 78.40 157.78 C 78.06 158.57 78.42 159.49 79.21 159.83 C 80.01 160.17 80.93 159.81 81.27 159.01 L 81.65 158.13 C 81.99 157.34 81.62 156.42 80.83 156.08 C 80.04 155.74 79.12 156.10 78.78 156.90 Z M 78.39 157.79 L 78.01 158.71 C 77.67 159.50 78.05 160.42 78.84 160.75 C 79.64 161.09 80.55 160.71 80.89 159.92 L 81.27 159.00 C 81.61 158.21 81.23 157.29 80.44 156.96 C 79.64 156.62 78.73 157.00 78.39 157.79 Z M 78.00 158.72 L 77.61 159.67 C 77.29 160.47 77.67 161.38 78.46 161.70 C 79.26 162.03 80.17 161.65 80.50 160.85 L 80.89 159.90 C 81.22 159.11 80.84 158.20 80.04 157.87 C 79.24 157.54 78.33 157.92 78.00 158.72 Z M 77.61 159.68 L 77.22 160.66 C 76.90 161.46 77.29 162.37 78.09 162.69 C 78.89 163.01 79.80 162.62 80.12 161.82 L 80.51 160.84 C 80.83 160.04 80.44 159.13 79.64 158.81 C 78.84 158.49 77.93 158.88 77.61 159.68 Z M 77.21 160.68 L 76.84 161.63 C 76.53 162.43 76.93 163.34 77.73 163.65 C 78.54 163.96 79.44 163.56 79.75 162.76 L 80.12 161.80 C 80.43 161.00 80.03 160.10 79.23 159.78 C 78.43 159.47 77.52 159.87 77.21 160.68 Z M 76.84 161.64 L 76.50 162.54 C 76.19 163.35 76.60 164.25 77.41 164.55 C 78.21 164.86 79.11 164.45 79.42 163.64 L 79.76 162.75 C 80.06 161.94 79.65 161.04 78.85 160.73 C 78.04 160.43 77.14 160.84 76.84 161.64 Z M 76.49 162.55 L 76.15 163.47 C 75.85 164.27 76.27 165.17 77.08 165.47 C 77.88 165.77 78.78 165.36 79.08 164.55 L 79.42 163.63 C 79.72 162.83 79.31 161.93 78.50 161.63 C 77.69 161.33 76.79 161.74 76.49 162.55 Z M 76.15 163.47 L 75.81 164.41 C 75.51 165.22 75.93 166.11 76.74 166.41 C 77.55 166.71 78.45 166.29 78.74 165.48 L 79.08 164.54 C 79.38 163.73 78.96 162.84 78.15 162.54 C 77.34 162.25 76.45 162.66 76.15 163.47 Z M 75.81 164.41 L 75.46 165.36 C 75.17 166.17 75.59 167.07 76.40 167.36 C 77.21 167.66 78.10 167.24 78.40 166.43 L 78.74 165.48 C 79.04 164.67 78.62 163.77 77.81 163.48 C 77.00 163.18 76.10 163.60 75.81 164.41 Z M 75.46 165.37 L 75.11 166.33 C 74.82 167.14 75.24 168.04 76.05 168.33 C 76.86 168.62 77.76 168.20 78.05 167.39 L 78.40 166.43 C 78.69 165.62 78.27 164.72 77.46 164.43 C 76.65 164.13 75.76 164.55 75.46 165.37 Z M 75.11 166.33 L 74.76 167.31 C 74.47 168.12 74.89 169.01 75.70 169.31 C 76.51 169.60 77.40 169.18 77.70 168.37 L 78.05 167.39 C 78.34 166.58 77.92 165.69 77.11 165.39 C 76.30 165.10 75.41 165.52 75.11 166.33 Z M 74.76 167.30 L 74.42 168.25 C 74.12 169.06 74.54 169.95 75.35 170.25 C 76.16 170.54 77.06 170.13 77.35 169.32 L 77.69 168.37 C 77.99 167.56 77.57 166.67 76.76 166.37 C 75.95 166.08 75.06 166.49 74.76 167.30 Z M 74.42 168.25 L 74.08 169.18 C 73.78 169.99 74.20 170.89 75.01 171.18 C 75.81 171.48 76.71 171.06 77.01 170.25 L 77.35 169.32 C 77.65 168.51 77.23 167.61 76.42 167.32 C 75.61 167.02 74.71 167.44 74.42 168.25 Z M 74.08 169.18 L 73.73 170.12 C 73.43 170.93 73.85 171.83 74.66 172.12 C 75.47 172.42 76.37 172.00 76.66 171.20 L 77.01 170.26 C 77.30 169.45 76.89 168.55 76.08 168.25 C 75.27 167.96 74.37 168.37 74.08 169.18 Z M 73.73 170.12 L 73.39 171.06 C 73.09 171.87 73.50 172.77 74.31 173.07 C 75.12 173.36 76.02 172.95 76.32 172.14 L 76.66 171.20 C 76.96 170.39 76.54 169.49 75.74 169.19 C 74.93 168.89 74.03 169.31 73.73 170.12 Z M 73.38 171.06 L 73.04 172.01 C 72.74 172.82 73.16 173.71 73.97 174.01 C 74.78 174.31 75.67 173.89 75.97 173.08 L 76.32 172.14 C 76.61 171.33 76.20 170.43 75.39 170.13 C 74.58 169.84 73.68 170.25 73.38 171.06 Z M 73.04 172.01 L 72.69 172.95 C 72.40 173.76 72.82 174.66 73.63 174.95 C 74.44 175.25 75.33 174.83 75.63 174.02 L 75.97 173.08 C 76.27 172.27 75.85 171.37 75.04 171.08 C 74.23 170.78 73.33 171.20 73.04 172.01 Z M 72.69 172.95 L 72.35 173.89 C 72.06 174.70 72.48 175.60 73.29 175.89 C 74.10 176.19 74.99 175.77 75.29 174.96 L 75.63 174.02 C 75.92 173.21 75.50 172.31 74.69 172.02 C 73.88 171.72 72.99 172.14 72.69 172.95 Z M 72.35 173.90 L 72.01 174.84 C 71.72 175.65 72.14 176.55 72.95 176.84 C 73.76 177.13 74.66 176.71 74.95 175.90 L 75.29 174.95 C 75.58 174.14 75.16 173.25 74.35 172.96 C 73.54 172.67 72.64 173.09 72.35 173.90 Z M 72.01 174.85 L 71.67 175.79 C 71.38 176.61 71.81 177.50 72.62 177.79 C 73.43 178.08 74.32 177.65 74.61 176.84 L 74.95 175.90 C 75.24 175.08 74.82 174.19 74.00 173.90 C 73.19 173.61 72.30 174.04 72.01 174.85 Z M 71.67 175.80 L 71.34 176.74 C 71.05 177.55 71.47 178.44 72.29 178.73 C 73.10 179.02 73.99 178.59 74.28 177.78 L 74.61 176.84 C 74.90 176.03 74.48 175.13 73.67 174.85 C 72.85 174.56 71.96 174.98 71.67 175.80 Z M 71.34 176.74 L 71.00 177.68 C 70.72 178.49 71.14 179.38 71.95 179.67 C 72.77 179.96 73.66 179.53 73.95 178.72 L 74.28 177.78 C 74.57 176.97 74.14 176.08 73.33 175.79 C 72.52 175.50 71.63 175.93 71.34 176.74 Z M 71.00 177.68 L 70.67 178.62 C 70.38 179.43 70.81 180.32 71.62 180.61 C 72.43 180.90 73.33 180.47 73.61 179.66 L 73.95 178.72 C 74.24 177.91 73.81 177.02 73.00 176.73 C 72.19 176.44 71.29 176.86 71.00 177.68 Z M 70.67 178.61 L 70.34 179.55 C 70.05 180.36 70.47 181.26 71.28 181.55 C 72.09 181.84 72.99 181.41 73.28 180.60 L 73.61 179.66 C 73.90 178.85 73.48 177.96 72.67 177.67 C 71.86 177.38 70.96 177.80 70.67 178.61 Z M 70.34 179.55 L 70.00 180.49 C 69.71 181.30 70.13 182.19 70.94 182.49 C 71.75 182.78 72.65 182.36 72.94 181.55 L 73.28 180.61 C 73.57 179.80 73.15 178.90 72.34 178.61 C 71.53 178.32 70.63 178.74 70.34 179.55 Z M 70.00 180.48 L 69.65 181.44 C 69.36 182.26 69.77 183.15 70.58 183.45 C 71.39 183.74 72.29 183.32 72.59 182.51 L 72.94 181.55 C 73.23 180.74 72.81 179.85 72.00 179.55 C 71.19 179.26 70.30 179.67 70.00 180.48 Z M 69.65 181.44 L 69.30 182.41 C 69.00 183.22 69.41 184.12 70.22 184.41 C 71.03 184.71 71.93 184.30 72.23 183.49 L 72.58 182.52 C 72.88 181.71 72.47 180.81 71.66 180.51 C 70.85 180.22 69.95 180.63 69.65 181.44 Z M 69.30 182.41 L 68.94 183.37 C 68.64 184.18 69.05 185.08 69.86 185.38 C 70.67 185.68 71.57 185.26 71.87 184.46 L 72.23 183.49 C 72.52 182.68 72.11 181.79 71.30 181.49 C 70.50 181.19 69.60 181.60 69.30 182.41 Z M 68.94 183.37 L 68.59 184.32 C 68.29 185.13 68.70 186.03 69.51 186.33 C 70.31 186.63 71.21 186.22 71.51 185.41 L 71.87 184.46 C 72.17 183.65 71.76 182.75 70.95 182.45 C 70.14 182.15 69.24 182.56 68.94 183.37 Z M 68.59 184.32 L 68.24 185.25 C 67.94 186.06 68.35 186.96 69.16 187.26 C 69.97 187.56 70.87 187.15 71.17 186.34 L 71.51 185.41 C 71.81 184.60 71.40 183.70 70.59 183.40 C 69.79 183.10 68.89 183.51 68.59 184.32 Z M 68.24 185.26 L 67.90 186.17 C 67.60 186.98 68.02 187.87 68.83 188.17 C 69.63 188.47 70.53 188.06 70.83 187.25 L 71.17 186.34 C 71.47 185.53 71.05 184.63 70.24 184.33 C 69.44 184.04 68.54 184.45 68.24 185.26 Z M 67.90 186.17 L 67.58 187.05 C 67.28 187.86 67.70 188.76 68.51 189.06 C 69.32 189.35 70.21 188.94 70.51 188.13 L 70.83 187.25 C 71.13 186.44 70.71 185.54 69.90 185.24 C 69.09 184.95 68.20 185.36 67.90 186.17 Z M 67.57 187.06 L 67.21 188.08 C 66.91 188.89 67.33 189.79 68.15 190.08 C 68.96 190.37 69.85 189.95 70.14 189.14 L 70.51 188.12 C 70.80 187.31 70.38 186.42 69.57 186.12 C 68.76 185.83 67.87 186.25 67.57 187.06 Z M 67.20 188.09 L 66.85 189.08 C 66.57 189.89 66.99 190.78 67.80 191.07 C 68.62 191.36 69.51 190.93 69.80 190.12 L 70.15 189.13 C 70.44 188.32 70.01 187.43 69.20 187.14 C 68.38 186.85 67.49 187.28 67.20 188.09 Z M 66.85 189.09 L 66.52 190.04 C 66.24 190.85 66.67 191.74 67.48 192.02 C 68.30 192.31 69.19 191.88 69.47 191.06 L 69.80 190.11 C 70.08 189.30 69.65 188.41 68.84 188.13 C 68.02 187.84 67.13 188.27 66.85 189.09 Z M 66.52 190.04 L 66.20 190.96 C 65.92 191.77 66.36 192.66 67.18 192.94 C 67.99 193.22 68.88 192.79 69.16 191.97 L 69.47 191.06 C 69.75 190.24 69.32 189.35 68.50 189.07 C 67.68 188.79 66.80 189.23 66.52 190.04 Z M 66.20 190.97 L 65.90 191.85 C 65.63 192.67 66.07 193.56 66.88 193.83 C 67.70 194.11 68.58 193.67 68.86 192.85 L 69.16 191.96 C 69.44 191.15 69.00 190.26 68.18 189.99 C 67.36 189.71 66.48 190.15 66.20 190.97 Z M 65.90 191.86 L 65.59 192.78 C 65.32 193.60 65.76 194.48 66.58 194.76 C 67.40 195.03 68.28 194.59 68.55 193.77 L 68.86 192.85 C 69.14 192.03 68.69 191.14 67.88 190.87 C 67.06 190.60 66.17 191.04 65.90 191.86 Z M 65.59 192.79 L 65.27 193.77 C 65.00 194.59 65.44 195.47 66.26 195.74 C 67.08 196.01 67.96 195.57 68.23 194.75 L 68.56 193.76 C 68.83 192.95 68.38 192.06 67.56 191.79 C 66.74 191.52 65.86 191.97 65.59 192.79 Z M 65.26 193.78 L 64.95 194.74 C 64.68 195.56 65.13 196.44 65.95 196.71 C 66.77 196.98 67.65 196.53 67.92 195.71 L 68.23 194.74 C 68.50 193.92 68.05 193.04 67.23 192.78 C 66.41 192.51 65.53 192.96 65.26 193.78 Z M 64.95 194.75 L 64.65 195.69 C 64.38 196.51 64.84 197.39 65.66 197.65 C 66.48 197.91 67.36 197.46 67.62 196.64 L 67.92 195.70 C 68.19 194.88 67.73 194.00 66.91 193.74 C 66.09 193.47 65.21 193.93 64.95 194.75 Z M 64.65 195.69 L 64.36 196.61 C 64.10 197.43 64.55 198.31 65.37 198.57 C 66.19 198.83 67.07 198.37 67.33 197.55 L 67.62 196.63 C 67.88 195.81 67.43 194.94 66.60 194.67 C 65.78 194.41 64.91 194.87 64.65 195.69 Z M 64.35 196.61 L 64.07 197.52 C 63.82 198.34 64.27 199.22 65.10 199.47 C 65.92 199.73 66.80 199.27 67.05 198.45 L 67.33 197.54 C 67.59 196.72 67.13 195.84 66.31 195.59 C 65.48 195.33 64.61 195.79 64.35 196.61 Z M 64.07 197.53 L 63.79 198.44 C 63.54 199.26 64.01 200.13 64.83 200.38 C 65.66 200.63 66.53 200.17 66.78 199.34 L 67.06 198.44 C 67.31 197.61 66.84 196.74 66.02 196.49 C 65.19 196.24 64.32 196.71 64.07 197.53 Z M 63.79 198.45 L 63.52 199.38 C 63.28 200.21 63.75 201.08 64.58 201.32 C 65.41 201.56 66.27 201.08 66.51 200.26 L 66.79 199.33 C 67.03 198.50 66.55 197.63 65.73 197.39 C 64.90 197.15 64.03 197.62 63.79 198.45 Z M 63.51 199.40 L 63.24 200.38 C 63.01 201.21 63.49 202.07 64.32 202.30 C 65.15 202.54 66.02 202.05 66.25 201.22 L 66.52 200.24 C 66.75 199.41 66.27 198.55 65.43 198.31 C 64.60 198.08 63.74 198.57 63.51 199.40 Z M 63.23 200.40 L 62.95 201.46 C 62.73 202.30 63.23 203.15 64.07 203.37 C 64.90 203.59 65.75 203.09 65.97 202.26 L 66.25 201.20 C 66.47 200.36 65.97 199.51 65.14 199.29 C 64.31 199.07 63.45 199.57 63.23 200.40 Z M 62.95 201.48 L 62.72 202.41 C 62.51 203.25 63.02 204.09 63.85 204.30 C 64.69 204.51 65.54 204.00 65.75 203.17 L 65.98 202.24 C 66.19 201.41 65.68 200.56 64.84 200.35 C 64.01 200.14 63.16 200.65 62.95 201.48 Z M 62.71 202.43 L 62.48 203.40 C 62.28 204.24 62.80 205.08 63.64 205.28 C 64.48 205.48 65.32 204.96 65.52 204.12 L 65.75 203.15 C 65.95 202.31 65.43 201.47 64.59 201.27 C 63.75 201.07 62.91 201.59 62.71 202.43 Z M 62.48 203.42 L 62.25 204.42 C 62.06 205.26 62.59 206.10 63.43 206.29 C 64.27 206.48 65.11 205.95 65.30 205.11 L 65.52 204.10 C 65.71 203.26 65.18 202.43 64.34 202.24 C 63.50 202.05 62.66 202.58 62.48 203.42 Z M 62.25 204.45 L 62.04 205.45 C 61.86 206.30 62.40 207.13 63.25 207.30 C 64.09 207.48 64.92 206.94 65.09 206.09 L 65.30 205.08 C 65.48 204.24 64.94 203.41 64.09 203.24 C 63.25 203.06 62.42 203.60 62.25 204.45 Z M 62.03 205.48 L 61.84 206.47 C 61.68 207.32 62.24 208.14 63.08 208.30 C 63.93 208.46 64.75 207.90 64.91 207.06 L 65.10 206.06 C 65.26 205.22 64.70 204.40 63.85 204.24 C 63.01 204.08 62.19 204.63 62.03 205.48 Z M 61.84 206.51 L 61.67 207.50 C 61.53 208.35 62.11 209.16 62.96 209.30 C 63.81 209.44 64.61 208.86 64.75 208.01 L 64.92 207.02 C 65.06 206.17 64.48 205.36 63.63 205.22 C 62.78 205.08 61.98 205.66 61.84 206.51 Z M 61.66 207.55 L 61.52 208.62 C 61.40 209.47 62.00 210.26 62.86 210.38 C 63.71 210.49 64.50 209.89 64.62 209.04 L 64.76 207.97 C 64.88 207.11 64.28 206.32 63.42 206.21 C 62.57 206.09 61.78 206.69 61.66 207.55 Z M 61.51 208.66 L 61.40 209.67 C 61.31 210.54 61.94 211.31 62.80 211.40 C 63.66 211.49 64.43 210.86 64.52 210.00 L 64.63 208.99 C 64.72 208.13 64.09 207.36 63.23 207.27 C 62.37 207.18 61.60 207.80 61.51 208.66 Z M 61.39 209.71 L 61.32 210.68 C 61.24 211.54 61.89 212.30 62.75 212.37 C 63.62 212.44 64.38 211.80 64.45 210.94 L 64.53 209.97 C 64.60 209.10 63.95 208.34 63.09 208.27 C 62.22 208.20 61.46 208.85 61.39 209.71 Z M 61.31 210.70 L 61.25 211.65 C 61.19 212.51 61.85 213.26 62.72 213.32 C 63.58 213.38 64.33 212.72 64.39 211.85 L 64.45 210.91 C 64.51 210.04 63.85 209.29 62.98 209.24 C 62.12 209.18 61.37 209.84 61.31 210.70 Z M 61.24 211.66 L 61.21 212.24 C 61.16 213.11 61.82 213.86 62.69 213.91 C 63.56 213.96 64.31 213.30 64.36 212.43 L 64.39 211.84 C 64.45 210.97 63.78 210.23 62.91 210.17 C 62.04 210.12 61.30 210.79 61.24 211.66 Z"
      fill="black"
      fill-rule="nonzero" /><path d="M 197.10 147.95 L 197.89 148.69 C 198.52 149.29 199.52 149.26 200.12 148.63 C 200.72 147.99 200.69 146.99 200.06 146.40 L 199.27 145.65 C 198.64 145.06 197.64 145.08 197.04 145.72 C 196.44 146.35 196.47 147.35 197.10 147.95 Z M 197.88 148.69 L 198.66 149.42 C 199.29 150.02 200.29 150.00 200.89 149.36 C 201.49 148.73 201.47 147.73 200.83 147.13 L 200.06 146.40 C 199.43 145.79 198.43 145.82 197.83 146.45 C 197.22 147.09 197.25 148.09 197.88 148.69 Z M 198.65 149.42 L 199.40 150.14 C 200.04 150.74 201.04 150.72 201.64 150.09 C 202.24 149.45 202.22 148.45 201.59 147.85 L 200.84 147.13 C 200.21 146.53 199.20 146.55 198.60 147.18 C 198.00 147.81 198.02 148.82 198.65 149.42 Z M 199.40 150.13 L 200.12 150.83 C 200.75 151.43 201.75 151.42 202.36 150.79 C 202.96 150.16 202.94 149.15 202.32 148.55 L 201.60 147.85 C 200.97 147.25 199.96 147.26 199.36 147.89 C 198.75 148.52 198.77 149.52 199.40 150.13 Z M 200.11 150.82 L 200.78 151.48 C 201.41 152.10 202.41 152.09 203.02 151.46 C 203.64 150.83 203.63 149.83 203.00 149.22 L 202.33 148.55 C 201.70 147.94 200.70 147.95 200.08 148.58 C 199.47 149.20 199.48 150.21 200.11 150.82 Z M 200.77 151.47 L 201.39 152.10 C 202.01 152.72 203.02 152.72 203.64 152.10 C 204.26 151.48 204.26 150.48 203.64 149.86 L 203.02 149.23 C 202.40 148.61 201.39 148.61 200.77 149.23 C 200.15 149.85 200.15 150.85 200.77 151.47 Z M 201.37 152.08 L 202.12 152.86 C 202.73 153.49 203.74 153.51 204.37 152.90 C 205.00 152.29 205.02 151.29 204.41 150.66 L 203.66 149.88 C 203.05 149.24 202.05 149.23 201.42 149.83 C 200.79 150.44 200.77 151.44 201.37 152.08 Z M 202.10 152.83 L 202.78 153.57 C 203.37 154.21 204.37 154.25 205.02 153.66 C 205.66 153.07 205.71 152.07 205.11 151.43 L 204.43 150.68 C 203.84 150.04 202.84 150.00 202.20 150.59 C 201.55 151.18 201.51 152.18 202.10 152.83 Z M 202.76 153.54 L 203.39 154.26 C 203.96 154.91 204.96 154.98 205.62 154.40 C 206.27 153.83 206.34 152.83 205.77 152.17 L 205.14 151.45 C 204.56 150.80 203.56 150.73 202.91 151.31 C 202.25 151.88 202.18 152.88 202.76 153.54 Z M 203.37 154.23 L 203.98 154.96 C 204.54 155.63 205.54 155.71 206.21 155.15 C 206.87 154.59 206.96 153.59 206.40 152.93 L 205.78 152.20 C 205.22 151.53 204.22 151.45 203.56 152.01 C 202.89 152.57 202.81 153.56 203.37 154.23 Z M 203.97 154.95 L 204.56 155.66 C 205.12 156.33 206.11 156.43 206.78 155.88 C 207.45 155.32 207.55 154.33 207.00 153.66 L 206.41 152.94 C 205.85 152.27 204.86 152.17 204.19 152.73 C 203.52 153.28 203.42 154.27 203.97 154.95 Z M 204.56 155.65 L 205.14 156.37 C 205.69 157.04 206.68 157.15 207.36 156.60 C 208.03 156.05 208.13 155.06 207.58 154.38 L 207.00 153.67 C 206.45 152.99 205.46 152.89 204.79 153.44 C 204.11 153.99 204.01 154.98 204.56 155.65 Z M 205.14 156.37 L 205.75 157.12 C 206.30 157.80 207.29 157.91 207.97 157.36 C 208.64 156.81 208.75 155.82 208.20 155.14 L 207.59 154.38 C 207.04 153.71 206.05 153.60 205.37 154.15 C 204.70 154.70 204.59 155.69 205.14 156.37 Z M 205.75 157.12 L 206.39 157.92 C 206.94 158.60 207.93 158.71 208.61 158.16 C 209.29 157.61 209.39 156.62 208.85 155.95 L 208.20 155.15 C 207.66 154.47 206.67 154.36 205.99 154.91 C 205.31 155.45 205.20 156.44 205.75 157.12 Z M 206.39 157.92 L 207.07 158.76 C 207.61 159.44 208.60 159.54 209.28 159.00 C 209.96 158.46 210.07 157.46 209.52 156.79 L 208.85 155.95 C 208.30 155.27 207.31 155.16 206.63 155.71 C 205.96 156.25 205.85 157.24 206.39 157.92 Z M 207.07 158.76 L 207.71 159.56 C 208.26 160.23 209.25 160.34 209.92 159.79 C 210.60 159.25 210.71 158.26 210.16 157.58 L 209.52 156.79 C 208.98 156.11 207.99 156.00 207.31 156.55 C 206.63 157.09 206.52 158.08 207.07 158.76 Z M 207.71 159.56 L 208.30 160.28 C 208.85 160.96 209.84 161.07 210.51 160.52 C 211.19 159.98 211.29 158.99 210.75 158.31 L 210.16 157.58 C 209.61 156.90 208.62 156.80 207.95 157.34 C 207.27 157.89 207.17 158.88 207.71 159.56 Z M 208.30 160.28 L 208.91 161.04 C 209.45 161.71 210.44 161.82 211.12 161.27 C 211.79 160.73 211.90 159.74 211.35 159.06 L 210.75 158.31 C 210.20 157.63 209.21 157.53 208.54 158.07 C 207.86 158.62 207.76 159.61 208.30 160.28 Z M 208.91 161.03 L 209.53 161.81 C 210.07 162.49 211.06 162.59 211.74 162.05 C 212.42 161.51 212.52 160.52 211.98 159.84 L 211.36 159.07 C 210.81 158.39 209.82 158.28 209.15 158.83 C 208.47 159.37 208.36 160.36 208.91 161.03 Z M 209.53 161.81 L 210.17 162.61 C 210.71 163.28 211.70 163.39 212.38 162.85 C 213.05 162.31 213.16 161.32 212.62 160.64 L 211.98 159.84 C 211.44 159.17 210.45 159.06 209.77 159.60 C 209.10 160.14 208.99 161.13 209.53 161.81 Z M 210.17 162.60 L 210.82 163.43 C 211.36 164.11 212.35 164.22 213.03 163.68 C 213.71 163.14 213.82 162.15 213.28 161.47 L 212.62 160.65 C 212.08 159.97 211.10 159.86 210.42 160.40 C 209.74 160.94 209.63 161.93 210.17 162.60 Z M 210.82 163.42 L 211.47 164.25 C 212.01 164.93 213.00 165.04 213.68 164.50 C 214.36 163.97 214.47 162.98 213.93 162.30 L 213.28 161.48 C 212.74 160.80 211.76 160.68 211.08 161.22 C 210.40 161.76 210.28 162.74 210.82 163.42 Z M 211.47 164.24 L 212.05 164.98 C 212.59 165.66 213.57 165.78 214.26 165.25 C 214.94 164.71 215.05 163.72 214.52 163.04 L 213.94 162.30 C 213.40 161.62 212.41 161.50 211.73 162.04 C 211.05 162.58 210.93 163.56 211.47 164.24 Z M 212.05 164.98 L 212.64 165.74 C 213.18 166.42 214.16 166.54 214.85 166.00 C 215.53 165.47 215.65 164.48 215.11 163.80 L 214.52 163.04 C 213.99 162.36 213.00 162.24 212.32 162.78 C 211.63 163.31 211.51 164.30 212.05 164.98 Z M 212.64 165.74 L 213.24 166.51 C 213.78 167.19 214.76 167.31 215.45 166.78 C 216.13 166.24 216.25 165.26 215.72 164.57 L 215.12 163.80 C 214.58 163.12 213.59 162.99 212.91 163.53 C 212.22 164.06 212.10 165.05 212.64 165.74 Z M 213.24 166.51 L 213.85 167.30 C 214.39 167.98 215.38 168.10 216.06 167.57 C 216.75 167.03 216.87 166.04 216.34 165.36 L 215.72 164.57 C 215.19 163.89 214.20 163.76 213.51 164.30 C 212.83 164.83 212.70 165.82 213.24 166.51 Z M 213.85 167.30 L 214.48 168.10 C 215.02 168.79 216.01 168.91 216.69 168.37 C 217.38 167.84 217.50 166.85 216.96 166.16 L 216.34 165.36 C 215.80 164.67 214.81 164.55 214.13 165.09 C 213.44 165.62 213.32 166.61 213.85 167.30 Z M 214.48 168.10 L 215.12 168.92 C 215.66 169.61 216.65 169.73 217.33 169.19 C 218.02 168.65 218.14 167.66 217.60 166.98 L 216.96 166.16 C 216.43 165.47 215.44 165.35 214.75 165.89 C 214.07 166.43 213.94 167.42 214.48 168.10 Z M 215.12 168.92 L 215.78 169.76 C 216.31 170.44 217.31 170.56 217.99 170.02 C 218.68 169.49 218.80 168.49 218.26 167.81 L 217.60 166.98 C 217.07 166.29 216.07 166.17 215.39 166.71 C 214.70 167.25 214.58 168.24 215.12 168.92 Z M 215.78 169.76 L 216.40 170.55 C 216.94 171.24 217.93 171.35 218.62 170.81 C 219.30 170.27 219.42 169.28 218.88 168.60 L 218.26 167.81 C 217.72 167.12 216.72 167.00 216.04 167.54 C 215.36 168.08 215.24 169.08 215.78 169.76 Z M 216.40 170.55 L 217.02 171.34 C 217.56 172.02 218.56 172.14 219.24 171.60 C 219.92 171.06 220.04 170.06 219.50 169.38 L 218.88 168.59 C 218.34 167.91 217.34 167.79 216.66 168.34 C 215.98 168.88 215.86 169.87 216.40 170.55 Z M 217.03 171.34 L 217.65 172.13 C 218.20 172.81 219.19 172.93 219.87 172.39 C 220.55 171.84 220.67 170.85 220.13 170.17 L 219.50 169.38 C 218.96 168.69 217.96 168.58 217.28 169.12 C 216.60 169.67 216.48 170.66 217.03 171.34 Z M 217.65 172.13 L 218.29 172.93 C 218.83 173.61 219.82 173.72 220.51 173.18 C 221.19 172.63 221.30 171.64 220.76 170.96 L 220.12 170.17 C 219.58 169.48 218.59 169.37 217.90 169.92 C 217.22 170.46 217.11 171.45 217.65 172.13 Z M 218.29 172.93 L 218.92 173.72 C 219.47 174.40 220.46 174.51 221.14 173.96 C 221.82 173.42 221.93 172.43 221.39 171.75 L 220.75 170.96 C 220.21 170.27 219.22 170.16 218.53 170.71 C 217.85 171.25 217.74 172.25 218.29 172.93 Z M 218.92 173.72 L 219.55 174.51 C 220.10 175.19 221.09 175.29 221.77 174.75 C 222.45 174.20 222.56 173.21 222.01 172.53 L 221.38 171.74 C 220.84 171.06 219.84 170.96 219.16 171.50 C 218.48 172.05 218.38 173.04 218.92 173.72 Z M 219.56 174.51 L 220.18 175.28 C 220.73 175.96 221.72 176.07 222.40 175.52 C 223.08 174.97 223.19 173.98 222.64 173.30 L 222.01 172.53 C 221.47 171.85 220.47 171.74 219.79 172.29 C 219.11 172.84 219.01 173.83 219.56 174.51 Z M 220.18 175.29 L 220.80 176.05 C 221.35 176.72 222.34 176.83 223.02 176.28 C 223.70 175.73 223.80 174.74 223.25 174.06 L 222.64 173.30 C 222.09 172.62 221.09 172.52 220.41 173.06 C 219.74 173.61 219.63 174.61 220.18 175.29 Z M 220.80 176.05 L 221.45 176.85 C 222.00 177.53 223.00 177.63 223.67 177.08 C 224.35 176.53 224.45 175.53 223.90 174.86 L 223.25 174.06 C 222.70 173.38 221.71 173.28 221.03 173.83 C 220.35 174.38 220.25 175.37 220.80 176.05 Z M 221.46 176.85 L 222.11 177.66 C 222.66 178.33 223.66 178.43 224.33 177.88 C 225.01 177.33 225.11 176.33 224.56 175.66 L 223.90 174.85 C 223.35 174.18 222.35 174.08 221.68 174.63 C 221.00 175.18 220.90 176.18 221.46 176.85 Z M 222.11 177.66 L 222.76 178.44 C 223.31 179.12 224.31 179.22 224.98 178.66 C 225.66 178.11 225.75 177.11 225.20 176.44 L 224.55 175.65 C 224.00 174.98 223.01 174.88 222.33 175.44 C 221.66 175.99 221.56 176.99 222.11 177.66 Z M 222.76 178.45 L 223.40 179.22 C 223.95 179.89 224.95 179.98 225.62 179.43 C 226.29 178.87 226.39 177.88 225.83 177.21 L 225.20 176.44 C 224.64 175.76 223.65 175.67 222.97 176.22 C 222.30 176.78 222.21 177.77 222.76 178.45 Z M 223.40 179.22 L 224.03 179.98 C 224.59 180.65 225.58 180.74 226.25 180.19 C 226.92 179.63 227.02 178.63 226.46 177.96 L 225.83 177.20 C 225.27 176.53 224.28 176.44 223.61 177.00 C 222.94 177.55 222.84 178.55 223.40 179.22 Z M 224.03 179.98 L 224.65 180.73 C 225.21 181.40 226.21 181.49 226.88 180.93 C 227.55 180.37 227.64 179.38 227.08 178.71 L 226.46 177.96 C 225.90 177.29 224.90 177.20 224.23 177.76 C 223.56 178.31 223.47 179.31 224.03 179.98 Z M 224.66 180.73 L 225.28 181.47 C 225.84 182.14 226.83 182.23 227.50 181.67 C 228.17 181.11 228.26 180.12 227.70 179.45 L 227.08 178.71 C 226.52 178.04 225.52 177.95 224.85 178.51 C 224.19 179.07 224.10 180.06 224.66 180.73 Z M 225.28 181.48 L 225.91 182.23 C 226.47 182.90 227.47 182.99 228.14 182.43 C 228.81 181.87 228.89 180.87 228.33 180.20 L 227.70 179.45 C 227.14 178.78 226.14 178.69 225.47 179.25 C 224.80 179.81 224.72 180.81 225.28 181.48 Z M 225.92 182.24 L 226.57 183.02 C 227.13 183.68 228.13 183.77 228.80 183.21 C 229.47 182.64 229.55 181.65 228.99 180.98 L 228.33 180.20 C 227.77 179.53 226.77 179.45 226.11 180.01 C 225.44 180.57 225.35 181.57 225.92 182.24 Z M 226.58 183.02 L 227.23 183.79 C 227.79 184.46 228.79 184.54 229.46 183.98 C 230.12 183.42 230.21 182.42 229.64 181.75 L 228.99 180.98 C 228.42 180.31 227.43 180.23 226.76 180.79 C 226.10 181.36 226.01 182.35 226.58 183.02 Z M 227.23 183.80 L 227.89 184.56 C 228.45 185.23 229.45 185.31 230.11 184.75 C 230.78 184.18 230.86 183.19 230.29 182.52 L 229.64 181.75 C 229.08 181.09 228.08 181.01 227.41 181.57 C 226.75 182.14 226.67 183.13 227.23 183.80 Z M 227.89 184.57 L 228.54 185.33 C 229.10 185.99 230.10 186.07 230.76 185.50 C 231.43 184.94 231.50 183.94 230.94 183.28 L 230.29 182.52 C 229.72 181.85 228.73 181.78 228.06 182.34 C 227.40 182.91 227.32 183.90 227.89 184.57 Z M 228.54 185.33 L 229.18 186.08 C 229.75 186.74 230.75 186.82 231.41 186.25 C 232.07 185.68 232.15 184.69 231.58 184.02 L 230.94 183.28 C 230.37 182.61 229.37 182.54 228.71 183.10 C 228.05 183.67 227.97 184.67 228.54 185.33 Z M 229.18 186.08 L 229.82 186.82 C 230.39 187.48 231.39 187.56 232.05 186.99 C 232.71 186.42 232.78 185.42 232.21 184.76 L 231.58 184.02 C 231.01 183.36 230.01 183.29 229.35 183.86 C 228.69 184.43 228.61 185.42 229.18 186.08 Z M 229.82 186.82 L 230.49 187.59 C 231.06 188.25 232.06 188.32 232.71 187.75 C 233.37 187.18 233.44 186.18 232.87 185.52 L 232.21 184.76 C 231.64 184.10 230.64 184.03 229.98 184.60 C 229.32 185.17 229.25 186.17 229.82 186.82 Z M 230.49 187.59 L 231.17 188.37 C 231.74 189.03 232.74 189.10 233.40 188.52 C 234.05 187.95 234.12 186.95 233.55 186.30 L 232.87 185.52 C 232.30 184.86 231.30 184.79 230.64 185.37 C 229.98 185.94 229.92 186.94 230.49 187.59 Z M 231.17 188.38 L 231.84 189.14 C 232.42 189.79 233.41 189.86 234.07 189.28 C 234.73 188.71 234.79 187.71 234.22 187.06 L 233.55 186.29 C 232.97 185.64 231.97 185.57 231.32 186.15 C 230.66 186.72 230.60 187.72 231.17 188.38 Z M 231.84 189.14 L 232.51 189.89 C 233.08 190.54 234.08 190.61 234.73 190.03 C 235.39 189.45 235.45 188.46 234.87 187.80 L 234.21 187.05 C 233.64 186.40 232.64 186.34 231.98 186.91 C 231.33 187.49 231.27 188.49 231.84 189.14 Z M 232.51 189.89 L 233.16 190.63 C 233.74 191.28 234.74 191.34 235.39 190.76 C 236.04 190.18 236.10 189.19 235.52 188.53 L 234.87 187.80 C 234.29 187.15 233.29 187.09 232.64 187.66 C 231.99 188.24 231.93 189.24 232.51 189.89 Z M 233.16 190.63 L 233.81 191.36 C 234.39 192.01 235.39 192.06 236.04 191.48 C 236.69 190.90 236.75 189.91 236.17 189.26 L 235.52 188.53 C 234.94 187.88 233.94 187.82 233.29 188.40 C 232.64 188.98 232.58 189.98 233.16 190.63 Z M 233.81 191.36 L 234.47 192.09 C 235.05 192.74 236.05 192.80 236.70 192.22 C 237.35 191.64 237.40 190.64 236.82 189.99 L 236.16 189.25 C 235.58 188.60 234.58 188.55 233.93 189.13 C 233.28 189.71 233.23 190.71 233.81 191.36 Z M 234.47 192.10 L 235.16 192.86 C 235.74 193.51 236.74 193.56 237.39 192.98 C 238.04 192.40 238.09 191.40 237.51 190.75 L 236.82 189.98 C 236.24 189.34 235.24 189.28 234.59 189.87 C 233.94 190.45 233.89 191.45 234.47 192.10 Z M 235.16 192.87 L 235.84 193.62 C 236.43 194.26 237.43 194.31 238.07 193.73 C 238.72 193.14 238.77 192.15 238.18 191.50 L 237.50 190.75 C 236.92 190.10 235.92 190.05 235.27 190.64 C 234.63 191.22 234.58 192.22 235.16 192.87 Z M 235.85 193.62 L 236.52 194.36 C 237.11 195.01 238.11 195.05 238.75 194.46 C 239.40 193.87 239.44 192.88 238.85 192.23 L 238.18 191.49 C 237.59 190.85 236.59 190.80 235.95 191.39 C 235.30 191.98 235.26 192.98 235.85 193.62 Z M 236.53 194.37 L 237.20 195.09 C 237.79 195.73 238.79 195.77 239.43 195.18 C 240.07 194.59 240.11 193.59 239.52 192.95 L 238.85 192.23 C 238.26 191.59 237.26 191.55 236.62 192.14 C 235.98 192.73 235.94 193.73 236.53 194.37 Z M 237.20 195.10 L 237.87 195.81 C 238.46 196.45 239.46 196.48 240.10 195.88 C 240.74 195.29 240.77 194.29 240.17 193.65 L 239.51 192.94 C 238.91 192.31 237.91 192.27 237.28 192.87 C 236.64 193.46 236.61 194.46 237.20 195.10 Z M 237.88 195.82 L 238.56 196.54 C 239.16 197.17 240.16 197.19 240.79 196.59 C 241.42 195.99 241.45 194.99 240.85 194.36 L 240.16 193.64 C 239.56 193.01 238.56 192.99 237.93 193.59 C 237.30 194.19 237.28 195.19 237.88 195.82 Z M 238.57 196.55 L 239.27 197.26 C 239.88 197.89 240.87 197.90 241.50 197.30 C 242.12 196.69 242.14 195.69 241.53 195.07 L 240.83 194.35 C 240.23 193.73 239.23 193.71 238.61 194.32 C 237.98 194.92 237.97 195.92 238.57 196.55 Z M 239.28 197.28 L 239.98 197.98 C 240.60 198.60 241.59 198.60 242.21 197.99 C 242.83 197.37 242.83 196.38 242.22 195.76 L 241.52 195.06 C 240.90 194.44 239.91 194.44 239.29 195.05 C 238.67 195.66 238.67 196.66 239.28 197.28 Z M 240.00 197.99 L 240.71 198.69 C 241.33 199.30 242.32 199.29 242.93 198.67 C 243.54 198.05 243.53 197.05 242.91 196.44 L 242.20 195.75 C 241.58 195.14 240.59 195.15 239.98 195.77 C 239.37 196.39 239.38 197.39 240.00 197.99 Z M 240.73 198.70 L 241.45 199.39 C 242.08 199.99 243.07 199.97 243.67 199.34 C 244.27 198.71 244.25 197.72 243.62 197.12 L 242.89 196.43 C 242.27 195.83 241.27 195.85 240.67 196.48 C 240.08 197.11 240.10 198.10 240.73 198.70 Z M 241.47 199.41 L 242.21 200.09 C 242.84 200.68 243.83 200.64 244.42 200.01 C 245.01 199.37 244.98 198.38 244.34 197.79 L 243.60 197.10 C 242.96 196.52 241.97 196.55 241.38 197.19 C 240.79 197.82 240.83 198.82 241.47 199.41 Z M 242.22 200.11 L 242.98 200.79 C 243.62 201.37 244.62 201.31 245.20 200.67 C 245.77 200.02 245.72 199.03 245.08 198.45 L 244.32 197.77 C 243.68 197.19 242.68 197.25 242.10 197.89 C 241.52 198.54 241.58 199.53 242.22 200.11 Z M 242.99 200.81 L 243.76 201.47 C 244.42 202.05 245.41 201.98 245.98 201.32 C 246.55 200.66 246.48 199.67 245.83 199.10 L 245.06 198.43 C 244.40 197.86 243.41 197.93 242.84 198.59 C 242.27 199.24 242.34 200.24 242.99 200.81 Z M 243.78 201.50 L 244.56 202.15 C 245.23 202.71 246.22 202.62 246.78 201.95 C 247.34 201.28 247.25 200.29 246.58 199.73 L 245.81 199.08 C 245.14 198.52 244.14 198.61 243.58 199.27 C 243.03 199.94 243.11 200.94 243.78 201.50 Z M 244.58 202.17 L 245.36 202.79 C 246.04 203.34 247.04 203.23 247.58 202.55 C 248.13 201.87 248.02 200.87 247.34 200.33 L 246.56 199.70 C 245.88 199.16 244.88 199.26 244.34 199.95 C 243.79 200.63 243.90 201.62 244.58 202.17 Z M 245.39 202.82 L 246.16 203.41 C 246.85 203.94 247.85 203.81 248.38 203.11 C 248.91 202.42 248.78 201.42 248.08 200.89 L 247.31 200.30 C 246.61 199.77 245.62 199.90 245.09 200.60 C 244.56 201.29 244.69 202.29 245.39 202.82 Z M 246.19 203.44 L 247.03 204.04 C 247.74 204.55 248.73 204.39 249.24 203.67 C 249.75 202.96 249.59 201.97 248.88 201.46 L 248.05 200.86 C 247.33 200.35 246.34 200.51 245.83 201.22 C 245.32 201.94 245.48 202.93 246.19 203.44 Z M 247.07 204.07 L 247.91 204.64 C 248.64 205.12 249.63 204.93 250.12 204.20 C 250.61 203.47 250.41 202.48 249.68 201.99 L 248.84 201.43 C 248.11 200.94 247.12 201.13 246.63 201.86 C 246.14 202.59 246.34 203.58 247.07 204.07 Z M 247.95 204.66 L 248.79 205.19 C 249.54 205.66 250.52 205.43 250.99 204.69 C 251.46 203.94 251.23 202.96 250.49 202.49 L 249.64 201.96 C 248.90 201.50 247.92 201.72 247.45 202.47 C 246.98 203.21 247.21 204.20 247.95 204.66 Z M 248.83 205.22 L 249.68 205.71 C 250.43 206.16 251.41 205.90 251.86 205.14 C 252.30 204.39 252.05 203.41 251.29 202.96 L 250.45 202.47 C 249.69 202.02 248.71 202.27 248.26 203.03 C 247.82 203.79 248.07 204.77 248.83 205.22 Z M 249.71 205.73 L 250.56 206.21 C 251.33 206.63 252.30 206.36 252.73 205.59 C 253.16 204.82 252.88 203.84 252.11 203.41 L 251.26 202.94 C 250.49 202.51 249.52 202.79 249.09 203.56 C 248.66 204.33 248.94 205.30 249.71 205.73 Z M 250.59 206.22 L 251.45 206.69 C 252.23 207.10 253.20 206.80 253.62 206.02 C 254.03 205.24 253.74 204.27 252.96 203.86 L 252.09 203.40 C 251.31 202.98 250.34 203.28 249.92 204.06 C 249.51 204.84 249.80 205.81 250.59 206.22 Z M 251.47 206.70 L 252.36 207.15 C 253.15 207.56 254.11 207.25 254.52 206.46 C 254.92 205.67 254.61 204.70 253.82 204.29 L 252.94 203.84 C 252.15 203.44 251.18 203.75 250.77 204.54 C 250.37 205.33 250.68 206.30 251.47 206.70 Z M 252.37 207.17 L 253.27 207.61 C 254.06 208.01 255.03 207.68 255.43 206.89 C 255.82 206.09 255.50 205.12 254.70 204.73 L 253.81 204.28 C 253.01 203.88 252.04 204.21 251.65 205.01 C 251.25 205.80 251.57 206.77 252.37 207.17 Z M 253.28 207.62 L 254.18 208.06 C 254.99 208.45 255.95 208.12 256.34 207.32 C 256.73 206.51 256.40 205.55 255.60 205.16 L 254.69 204.72 C 253.89 204.32 252.92 204.66 252.53 205.46 C 252.14 206.27 252.47 207.23 253.28 207.62 Z M 254.19 208.07 L 255.10 208.51 C 255.91 208.90 256.88 208.56 257.27 207.75 C 257.65 206.94 257.31 205.97 256.50 205.59 L 255.59 205.15 C 254.78 204.76 253.82 205.10 253.43 205.91 C 253.04 206.72 253.38 207.68 254.19 208.07 Z M 255.11 208.51 L 256.00 208.94 C 256.81 209.33 257.78 208.98 258.17 208.17 C 258.55 207.36 258.21 206.39 257.40 206.01 L 256.50 205.58 C 255.69 205.20 254.72 205.54 254.34 206.35 C 253.95 207.16 254.30 208.13 255.11 208.51 Z M 256.01 208.94 L 256.91 209.37 C 257.72 209.75 258.69 209.40 259.07 208.59 C 259.45 207.78 259.11 206.81 258.29 206.43 L 257.39 206.01 C 256.58 205.63 255.61 205.97 255.23 206.78 C 254.85 207.60 255.20 208.56 256.01 208.94 Z M 256.92 209.37 L 257.83 209.79 C 258.64 210.17 259.61 209.81 259.98 209.00 C 260.36 208.19 260.01 207.22 259.19 206.85 L 258.29 206.43 C 257.47 206.05 256.51 206.41 256.13 207.22 C 255.76 208.03 256.11 209.00 256.92 209.37 Z M 257.84 209.80 L 258.76 210.21 C 259.57 210.58 260.53 210.22 260.90 209.40 C 261.27 208.59 260.91 207.63 260.09 207.26 L 259.18 206.84 C 258.37 206.48 257.41 206.84 257.04 207.65 C 256.67 208.47 257.03 209.43 257.84 209.80 Z M 258.77 210.22 L 259.69 210.62 C 260.51 210.98 261.47 210.61 261.83 209.79 C 262.19 208.97 261.82 208.02 261.00 207.66 L 260.08 207.25 C 259.26 206.89 258.31 207.26 257.94 208.08 C 257.58 208.90 257.95 209.86 258.77 210.22 Z M 259.71 210.63 L 260.63 211.02 C 261.46 211.37 262.41 210.99 262.76 210.17 C 263.11 209.35 262.73 208.40 261.91 208.04 L 260.98 207.65 C 260.16 207.30 259.21 207.68 258.86 208.50 C 258.50 209.33 258.89 210.28 259.71 210.63 Z M 260.65 211.03 L 261.57 211.42 C 262.40 211.76 263.35 211.37 263.69 210.54 C 264.04 209.71 263.65 208.77 262.82 208.42 L 261.89 208.04 C 261.06 207.69 260.12 208.08 259.77 208.91 C 259.43 209.74 259.82 210.69 260.65 211.03 Z M 261.59 211.42 L 262.51 211.80 C 263.34 212.14 264.29 211.74 264.63 210.91 C 264.96 210.08 264.56 209.13 263.73 208.79 L 262.81 208.42 C 261.98 208.08 261.03 208.48 260.69 209.31 C 260.36 210.14 260.76 211.09 261.59 211.42 Z M 262.52 211.80 L 263.45 212.17 C 264.28 212.51 265.23 212.10 265.56 211.27 C 265.89 210.43 265.49 209.49 264.65 209.16 L 263.73 208.79 C 262.89 208.45 261.95 208.86 261.61 209.69 C 261.28 210.53 261.69 211.47 262.52 211.80 Z M 263.46 212.18 L 264.38 212.54 C 265.22 212.87 266.16 212.46 266.49 211.62 C 266.82 210.79 266.41 209.84 265.57 209.51 L 264.65 209.15 C 263.81 208.82 262.87 209.23 262.54 210.07 C 262.21 210.91 262.62 211.85 263.46 212.18 Z M 264.39 212.54 L 265.32 212.91 C 266.16 213.23 267.10 212.82 267.43 211.98 C 267.75 211.15 267.34 210.21 266.50 209.88 L 265.57 209.51 C 264.73 209.19 263.79 209.60 263.46 210.44 C 263.14 211.28 263.55 212.22 264.39 212.54 Z M 265.33 212.91 L 266.26 213.27 C 267.10 213.59 268.04 213.18 268.36 212.34 C 268.68 211.50 268.27 210.57 267.43 210.24 L 266.50 209.88 C 265.66 209.56 264.73 209.97 264.40 210.81 C 264.08 211.64 264.49 212.58 265.33 212.91 Z M 266.27 213.27 L 267.20 213.62 C 268.03 213.94 268.97 213.53 269.29 212.69 C 269.61 211.86 269.20 210.92 268.36 210.60 L 267.43 210.25 C 266.60 209.92 265.66 210.34 265.34 211.17 C 265.02 212.01 265.43 212.94 266.27 213.27 Z M 267.20 213.62 L 268.13 213.98 C 268.97 214.30 269.90 213.88 270.22 213.05 C 270.54 212.21 270.12 211.28 269.29 210.96 L 268.36 210.61 C 267.53 210.29 266.59 210.70 266.27 211.54 C 265.95 212.37 266.37 213.30 267.20 213.62 Z M 268.13 213.97 L 268.83 214.24 C 269.66 214.56 270.59 214.14 270.91 213.31 C 271.23 212.48 270.81 211.55 269.98 211.23 L 269.29 210.96 C 268.45 210.65 267.52 211.06 267.21 211.89 C 266.89 212.72 267.30 213.66 268.13 213.97 Z"
      fill="black"
      fill-rule="nonzero" /></svg>