<svg xmlns="http://www.w3.org/2000/svg" width="300" height="300" viewBox="0 0 300 300">
<path d="M 109.41 69.74 L 108.51 70.10 C 107.71 70.42 107.33 71.33 107.65 72.13 C 107.97 72.93 108.88 73.32 109.68 73.00 L 110.58 72.63 C 111.38 72.31 111.77 71.40 111.44 70.60 C 111.12 69.80 110.21 69.41 109.41 69.74 Z M 108.37 70.16 L 107.52 70.61 C 106.75 71.01 106.46 71.96 106.86 72.72 C 107.26 73.48 108.20 73.78 108.96 73.38 L 109.82 72.93 C 110.58 72.53 110.88 71.59 110.48 70.82 C 110.08 70.06 109.14 69.77 108.37 70.16 Z M 107.26 70.78 L 106.49 71.40 C 105.82 71.94 105.71 72.92 106.25 73.59 C 106.79 74.26 107.77 74.37 108.45 73.83 L 109.22 73.21 C 109.89 72.67 110.00 71.69 109.46 71.02 C 108.92 70.35 107.93 70.24 107.26 70.78 Z M 106.22 71.68 L 105.61 72.50 C 105.09 73.19 105.24 74.17 105.93 74.68 C 106.62 75.20 107.60 75.05 108.11 74.36 L 108.72 73.55 C 109.24 72.86 109.09 71.88 108.40 71.36 C 107.71 70.85 106.73 70.99 106.22 71.68 Z M 105.44 72.77 L 105.07 73.58 C 104.71 74.37 105.05 75.29 105.83 75.66 C 106.61 76.02 107.54 75.68 107.90 74.90 L 108.28 74.09 C 108.64 73.30 108.30 72.38 107.52 72.01 C 106.74 71.65 105.81 71.99 105.44 72.77 Z M 105.00 73.76 L 104.70 74.69 C 104.43 75.51 104.88 76.39 105.70 76.66 C 106.52 76.92 107.40 76.47 107.67 75.65 L 107.97 74.72 C 108.24 73.90 107.79 73.02 106.97 72.76 C 106.15 72.49 105.27 72.94 105.00 73.76 Z M 104.67 74.80 L 104.42 75.81 C 104.22 76.65 104.73 77.49 105.57 77.70 C 106.41 77.90 107.25 77.38 107.46 76.55 L 107.70 75.54 C 107.90 74.70 107.39 73.86 106.55 73.65 C 105.71 73.45 104.87 73.97 104.67 74.80 Z M 104.40 75.89 L 104.21 76.93 C 104.05 77.78 104.60 78.60 105.45 78.76 C 106.30 78.92 107.11 78.36 107.27 77.51 L 107.47 76.47 C 107.63 75.62 107.08 74.81 106.23 74.65 C 105.38 74.49 104.57 75.04 104.40 75.89 Z M 104.20 76.98 L 104.03 78.02 C 103.90 78.87 104.48 79.67 105.33 79.80 C 106.18 79.94 106.98 79.36 107.12 78.51 L 107.28 77.47 C 107.42 76.62 106.84 75.82 105.99 75.68 C 105.13 75.55 104.33 76.13 104.20 76.98 Z M 104.03 78.04 L 103.88 79.06 C 103.76 79.91 104.35 80.71 105.21 80.83 C 106.06 80.95 106.85 80.36 106.97 79.51 L 107.12 78.48 C 107.24 77.63 106.65 76.84 105.80 76.72 C 104.95 76.59 104.15 77.19 104.03 78.04 Z M 103.88 79.08 L 103.75 80.07 C 103.64 80.92 104.24 81.71 105.09 81.82 C 105.95 81.93 106.73 81.33 106.84 80.48 L 106.98 79.49 C 107.09 78.64 106.49 77.85 105.63 77.74 C 104.78 77.62 104.00 78.22 103.88 79.08 Z M 103.75 80.08 L 103.63 81.05 C 103.52 81.91 104.13 82.69 104.98 82.79 C 105.84 82.90 106.62 82.29 106.73 81.44 L 106.85 80.46 C 106.95 79.61 106.35 78.83 105.49 78.72 C 104.63 78.62 103.85 79.22 103.75 80.08 Z M 103.63 81.06 L 103.51 82.04 C 103.41 82.89 104.02 83.67 104.88 83.77 C 105.73 83.87 106.51 83.26 106.61 82.41 L 106.73 81.43 C 106.83 80.57 106.22 79.80 105.36 79.70 C 104.50 79.59 103.73 80.21 103.63 81.06 Z M 103.51 82.04 L 103.39 83.04 C 103.29 83.90 103.91 84.67 104.77 84.77 C 105.62 84.87 106.40 84.26 106.50 83.40 L 106.61 82.40 C 106.71 81.54 106.10 80.77 105.24 80.67 C 104.38 80.57 103.61 81.19 103.51 82.04 Z M 103.39 83.04 L 103.29 83.98 C 103.19 84.83 103.80 85.61 104.66 85.71 C 105.51 85.81 106.29 85.19 106.39 84.34 L 106.50 83.40 C 106.59 82.54 105.98 81.77 105.12 81.67 C 104.27 81.57 103.49 82.18 103.39 83.04 Z M 103.29 83.97 L 103.17 84.93 C 103.07 85.79 103.69 86.57 104.54 86.67 C 105.40 86.77 106.17 86.15 106.27 85.30 L 106.39 84.34 C 106.49 83.48 105.87 82.71 105.02 82.61 C 104.16 82.51 103.39 83.12 103.29 83.97 Z M 103.17 84.93 L 103.06 85.92 C 102.95 86.77 103.57 87.55 104.42 87.65 C 105.28 87.75 106.05 87.14 106.16 86.29 L 106.27 85.30 C 106.38 84.44 105.77 83.67 104.91 83.56 C 104.05 83.46 103.28 84.07 103.17 84.93 Z M 103.06 85.91 L 102.93 86.92 C 102.83 87.78 103.44 88.56 104.29 88.66 C 105.15 88.77 105.93 88.16 106.03 87.30 L 106.16 86.29 C 106.26 85.44 105.65 84.66 104.80 84.55 C 103.94 84.45 103.16 85.05 103.06 85.91 Z M 102.93 86.91 L 102.80 87.95 C 102.69 88.80 103.30 89.58 104.16 89.69 C 105.01 89.80 105.79 89.20 105.90 88.34 L 106.03 87.31 C 106.14 86.45 105.53 85.67 104.68 85.56 C 103.82 85.45 103.04 86.06 102.93 86.91 Z M 102.80 87.94 L 102.67 88.96 C 102.56 89.82 103.16 90.60 104.01 90.71 C 104.87 90.83 105.65 90.23 105.76 89.37 L 105.90 88.35 C 106.01 87.49 105.41 86.71 104.56 86.60 C 103.70 86.48 102.92 87.08 102.80 87.94 Z M 102.67 88.95 L 102.54 89.91 C 102.42 90.77 103.02 91.55 103.87 91.67 C 104.73 91.79 105.51 91.19 105.63 90.34 L 105.76 89.38 C 105.88 88.52 105.28 87.74 104.43 87.62 C 103.57 87.50 102.79 88.10 102.67 88.95 Z M 102.54 89.90 L 102.40 90.87 C 102.28 91.73 102.87 92.52 103.73 92.64 C 104.58 92.76 105.37 92.17 105.49 91.31 L 105.63 90.34 C 105.75 89.49 105.16 88.70 104.31 88.58 C 103.45 88.46 102.66 89.05 102.54 89.90 Z M 102.40 90.87 L 102.26 91.85 C 102.13 92.70 102.72 93.50 103.58 93.62 C 104.43 93.75 105.22 93.16 105.35 92.30 L 105.49 91.32 C 105.62 90.47 105.03 89.67 104.17 89.55 C 103.32 89.42 102.53 90.01 102.40 90.87 Z M 102.26 91.84 L 102.11 92.84 C 101.98 93.69 102.56 94.49 103.42 94.62 C 104.27 94.75 105.07 94.16 105.20 93.31 L 105.35 92.31 C 105.48 91.46 104.89 90.66 104.04 90.53 C 103.18 90.40 102.39 90.99 102.26 91.84 Z M 102.11 92.83 L 101.95 93.84 C 101.82 94.70 102.40 95.49 103.25 95.63 C 104.10 95.76 104.90 95.18 105.04 94.33 L 105.19 93.32 C 105.33 92.46 104.74 91.67 103.89 91.53 C 103.04 91.40 102.24 91.98 102.11 92.83 Z M 101.95 93.84 L 101.79 94.86 C 101.65 95.71 102.23 96.51 103.08 96.65 C 103.93 96.79 104.73 96.21 104.87 95.36 L 105.03 94.33 C 105.17 93.48 104.59 92.68 103.74 92.54 C 102.89 92.41 102.09 92.99 101.95 93.84 Z M 101.79 94.86 L 101.63 95.82 C 101.49 96.67 102.06 97.48 102.91 97.62 C 103.77 97.76 104.57 97.18 104.71 96.33 L 104.87 95.36 C 105.01 94.51 104.43 93.71 103.58 93.57 C 102.73 93.43 101.93 94.00 101.79 94.86 Z M 101.63 95.82 L 101.47 96.79 C 101.32 97.64 101.89 98.44 102.74 98.59 C 103.59 98.73 104.40 98.16 104.54 97.31 L 104.71 96.34 C 104.85 95.49 104.28 94.68 103.43 94.54 C 102.58 94.39 101.77 94.96 101.63 95.82 Z M 101.47 96.78 L 101.30 97.76 C 101.15 98.61 101.72 99.42 102.57 99.57 C 103.42 99.72 104.22 99.15 104.37 98.30 L 104.54 97.32 C 104.69 96.47 104.12 95.66 103.27 95.51 C 102.42 95.36 101.61 95.93 101.47 96.78 Z M 101.30 97.76 L 101.12 98.74 C 100.97 99.59 101.53 100.40 102.38 100.56 C 103.23 100.71 104.04 100.14 104.19 99.29 L 104.37 98.30 C 104.52 97.46 103.96 96.64 103.11 96.49 C 102.26 96.34 101.45 96.91 101.30 97.76 Z M 101.12 98.74 L 100.94 99.73 C 100.78 100.58 101.35 101.39 102.19 101.55 C 103.04 101.70 103.86 101.14 104.01 100.29 L 104.19 99.30 C 104.35 98.45 103.79 97.64 102.94 97.48 C 102.09 97.33 101.28 97.89 101.12 98.74 Z M 100.94 99.72 L 100.75 100.72 C 100.59 101.56 101.15 102.38 102.00 102.54 C 102.85 102.70 103.66 102.14 103.82 101.30 L 104.01 100.30 C 104.17 99.45 103.61 98.64 102.76 98.48 C 101.92 98.32 101.10 98.87 100.94 99.72 Z M 100.76 100.71 L 100.56 101.70 C 100.40 102.55 100.95 103.37 101.80 103.53 C 102.64 103.69 103.46 103.14 103.63 102.30 L 103.82 101.30 C 103.98 100.46 103.43 99.64 102.59 99.47 C 101.74 99.31 100.92 99.86 100.76 100.71 Z M 100.56 101.69 L 100.37 102.65 C 100.20 103.50 100.75 104.32 101.60 104.49 C 102.44 104.66 103.26 104.11 103.43 103.27 L 103.63 102.30 C 103.79 101.46 103.25 100.64 102.40 100.47 C 101.56 100.30 100.73 100.85 100.56 101.69 Z M 100.37 102.65 L 100.18 103.61 C 100.00 104.46 100.55 105.28 101.39 105.45 C 102.24 105.63 103.06 105.08 103.23 104.24 L 103.43 103.27 C 103.61 102.43 103.06 101.60 102.22 101.43 C 101.37 101.26 100.55 101.80 100.37 102.65 Z M 100.18 103.60 L 99.97 104.57 C 99.80 105.42 100.33 106.24 101.18 106.42 C 102.02 106.60 102.85 106.06 103.03 105.22 L 103.23 104.25 C 103.41 103.40 102.87 102.58 102.03 102.40 C 101.18 102.22 100.36 102.76 100.18 103.60 Z M 99.97 104.56 L 99.76 105.54 C 99.58 106.38 100.12 107.21 100.96 107.39 C 101.80 107.58 102.63 107.04 102.82 106.20 L 103.03 105.22 C 103.21 104.38 102.67 103.55 101.83 103.37 C 100.99 103.19 100.16 103.72 99.97 104.56 Z M 99.77 105.53 L 99.55 106.51 C 99.36 107.35 99.89 108.19 100.73 108.38 C 101.58 108.56 102.41 108.03 102.60 107.19 L 102.81 106.21 C 103.00 105.36 102.47 104.53 101.63 104.34 C 100.79 104.16 99.95 104.69 99.77 105.53 Z M 99.55 106.51 L 99.32 107.50 C 99.13 108.34 99.66 109.18 100.50 109.37 C 101.34 109.56 102.18 109.03 102.37 108.19 L 102.59 107.20 C 102.79 106.36 102.26 105.52 101.42 105.33 C 100.58 105.14 99.74 105.66 99.55 106.51 Z M 99.33 107.49 L 99.09 108.49 C 98.90 109.33 99.42 110.17 100.26 110.36 C 101.10 110.56 101.94 110.03 102.14 109.19 L 102.37 108.20 C 102.56 107.36 102.04 106.52 101.20 106.32 C 100.36 106.13 99.52 106.65 99.33 107.49 Z M 99.10 108.48 L 98.87 109.46 C 98.67 110.29 99.19 111.14 100.03 111.33 C 100.86 111.53 101.71 111.01 101.90 110.17 L 102.13 109.20 C 102.33 108.36 101.81 107.52 100.98 107.32 C 100.14 107.12 99.29 107.64 99.10 108.48 Z M 98.87 109.45 L 98.63 110.43 C 98.43 111.27 98.94 112.11 99.78 112.31 C 100.62 112.51 101.46 112.00 101.67 111.16 L 101.90 110.18 C 102.11 109.34 101.59 108.50 100.75 108.30 C 99.91 108.09 99.07 108.61 98.87 109.45 Z M 98.63 110.42 L 98.39 111.40 C 98.18 112.24 98.69 113.08 99.53 113.29 C 100.37 113.50 101.21 112.99 101.42 112.15 L 101.66 111.17 C 101.87 110.33 101.36 109.49 100.52 109.28 C 99.69 109.07 98.84 109.58 98.63 110.42 Z M 98.39 111.39 L 98.14 112.37 C 97.93 113.21 98.44 114.06 99.27 114.27 C 100.11 114.48 100.96 113.97 101.17 113.14 L 101.42 112.16 C 101.63 111.32 101.12 110.47 100.29 110.26 C 99.45 110.05 98.60 110.56 98.39 111.39 Z M 98.15 112.36 L 97.89 113.34 C 97.68 114.17 98.18 115.02 99.01 115.24 C 99.85 115.46 100.70 114.96 100.92 114.12 L 101.17 113.15 C 101.39 112.31 100.88 111.46 100.05 111.24 C 99.22 111.03 98.36 111.53 98.15 112.36 Z M 97.90 113.33 L 97.64 114.29 C 97.42 115.12 97.91 115.97 98.75 116.20 C 99.58 116.42 100.43 115.92 100.66 115.09 L 100.91 114.13 C 101.14 113.30 100.64 112.44 99.81 112.22 C 98.98 112.00 98.12 112.49 97.90 113.33 Z M 97.64 114.27 L 97.38 115.22 C 97.15 116.05 97.64 116.91 98.47 117.14 C 99.31 117.37 100.17 116.88 100.39 116.05 L 100.65 115.10 C 100.88 114.27 100.39 113.41 99.56 113.18 C 98.73 112.95 97.87 113.44 97.64 114.27 Z M 97.39 115.21 L 97.11 116.19 C 96.87 117.02 97.35 117.88 98.18 118.12 C 99.01 118.36 99.87 117.87 100.11 117.05 L 100.39 116.06 C 100.63 115.23 100.15 114.37 99.32 114.13 C 98.49 113.90 97.62 114.38 97.39 115.21 Z M 97.11 116.18 L 96.82 117.16 C 96.58 117.98 97.05 118.85 97.88 119.09 C 98.71 119.34 99.57 118.87 99.82 118.04 L 100.11 117.06 C 100.35 116.23 99.88 115.36 99.05 115.12 C 98.22 114.88 97.35 115.35 97.11 116.18 Z M 96.83 117.14 L 96.53 118.10 C 96.28 118.93 96.75 119.80 97.57 120.05 C 98.40 120.30 99.27 119.84 99.52 119.01 L 99.81 118.05 C 100.06 117.23 99.60 116.36 98.78 116.10 C 97.95 115.85 97.08 116.32 96.83 117.14 Z M 96.54 118.09 L 96.24 119.04 C 95.98 119.86 96.44 120.74 97.26 120.99 C 98.08 121.25 98.96 120.80 99.22 119.97 L 99.52 119.03 C 99.78 118.21 99.32 117.33 98.50 117.07 C 97.67 116.81 96.80 117.27 96.54 118.09 Z M 96.24 119.02 L 95.94 119.96 C 95.67 120.78 96.12 121.66 96.94 121.93 C 97.76 122.19 98.64 121.74 98.91 120.92 L 99.21 119.99 C 99.48 119.17 99.03 118.29 98.21 118.02 C 97.39 117.75 96.51 118.20 96.24 119.02 Z M 95.94 119.95 L 95.63 120.88 C 95.36 121.70 95.80 122.58 96.62 122.85 C 97.44 123.13 98.32 122.69 98.59 121.87 L 98.91 120.94 C 99.18 120.12 98.74 119.23 97.92 118.96 C 97.10 118.69 96.22 119.13 95.94 119.95 Z M 95.64 120.87 L 95.32 121.80 C 95.04 122.61 95.47 123.50 96.29 123.78 C 97.10 124.06 97.99 123.63 98.27 122.81 L 98.59 121.88 C 98.87 121.06 98.44 120.18 97.62 119.90 C 96.80 119.62 95.92 120.05 95.64 120.87 Z M 95.32 121.79 L 94.99 122.73 C 94.70 123.54 95.13 124.43 95.95 124.72 C 96.76 125.00 97.65 124.58 97.94 123.76 L 98.27 122.82 C 98.55 122.01 98.13 121.12 97.31 120.83 C 96.50 120.54 95.61 120.97 95.32 121.79 Z M 94.99 122.71 L 94.66 123.66 C 94.36 124.47 94.78 125.36 95.60 125.65 C 96.41 125.95 97.30 125.53 97.59 124.71 L 97.93 123.77 C 98.22 122.96 97.80 122.07 96.99 121.78 C 96.18 121.48 95.29 121.90 94.99 122.71 Z M 94.66 123.65 L 94.31 124.59 C 94.01 125.39 94.43 126.29 95.24 126.59 C 96.05 126.89 96.94 126.48 97.24 125.67 L 97.59 124.73 C 97.89 123.92 97.47 123.02 96.66 122.72 C 95.86 122.42 94.96 122.84 94.66 123.65 Z M 94.32 124.57 L 93.96 125.51 C 93.66 126.32 94.06 127.22 94.87 127.52 C 95.68 127.83 96.58 127.42 96.88 126.62 L 97.24 125.68 C 97.54 124.87 97.14 123.97 96.33 123.67 C 95.52 123.36 94.62 123.77 94.32 124.57 Z M 93.97 125.50 L 93.61 126.44 C 93.29 127.24 93.69 128.14 94.50 128.45 C 95.30 128.77 96.21 128.37 96.52 127.56 L 96.88 126.63 C 97.19 125.82 96.79 124.92 95.99 124.61 C 95.18 124.30 94.28 124.70 93.97 125.50 Z M 93.61 126.42 L 93.24 127.35 C 92.92 128.15 93.32 129.06 94.12 129.38 C 94.92 129.70 95.83 129.30 96.14 128.50 L 96.51 127.57 C 96.83 126.77 96.44 125.87 95.64 125.55 C 94.84 125.23 93.93 125.62 93.61 126.42 Z M 93.25 127.34 L 92.87 128.27 C 92.54 129.07 92.93 129.98 93.73 130.30 C 94.53 130.63 95.44 130.24 95.76 129.45 L 96.14 128.52 C 96.46 127.72 96.08 126.81 95.28 126.48 C 94.48 126.16 93.57 126.54 93.25 127.34 Z M 92.87 128.26 L 92.48 129.20 C 92.15 129.99 92.52 130.91 93.32 131.24 C 94.12 131.57 95.03 131.20 95.36 130.40 L 95.76 129.46 C 96.09 128.66 95.71 127.75 94.92 127.41 C 94.12 127.08 93.20 127.46 92.87 128.26 Z M 92.48 129.19 L 92.08 130.12 C 91.75 130.91 92.12 131.83 92.91 132.17 C 93.70 132.51 94.62 132.14 94.96 131.35 L 95.36 130.41 C 95.70 129.62 95.33 128.70 94.54 128.36 C 93.74 128.02 92.82 128.39 92.48 129.19 Z M 92.09 130.10 L 91.69 131.03 C 91.34 131.82 91.70 132.74 92.50 133.09 C 93.29 133.44 94.21 133.07 94.56 132.28 L 94.96 131.36 C 95.31 130.56 94.94 129.64 94.15 129.29 C 93.36 128.95 92.43 129.31 92.09 130.10 Z M 91.69 131.01 L 91.28 131.93 C 90.93 132.72 91.29 133.64 92.08 134.00 C 92.87 134.35 93.80 133.99 94.15 133.20 L 94.56 132.29 C 94.91 131.50 94.55 130.57 93.76 130.22 C 92.97 129.87 92.04 130.22 91.69 131.01 Z M 91.29 131.91 L 90.88 132.81 C 90.52 133.60 90.87 134.54 91.66 134.89 C 92.45 135.25 93.38 134.90 93.74 134.11 L 94.15 133.21 C 94.51 132.42 94.16 131.49 93.37 131.13 C 92.58 130.77 91.64 131.12 91.29 131.91 Z M 90.88 132.80 L 90.47 133.69 C 90.11 134.48 90.46 135.41 91.24 135.78 C 92.03 136.14 92.97 135.80 93.33 135.01 L 93.74 134.12 C 94.10 133.33 93.76 132.40 92.97 132.03 C 92.18 131.67 91.24 132.01 90.88 132.80 Z M 90.48 133.68 L 90.04 134.62 C 89.67 135.40 90.01 136.34 90.80 136.71 C 91.59 137.08 92.52 136.74 92.89 135.95 L 93.33 135.02 C 93.70 134.23 93.36 133.29 92.57 132.92 C 91.78 132.55 90.84 132.89 90.48 133.68 Z M 90.04 134.61 L 89.60 135.54 C 89.22 136.33 89.56 137.27 90.35 137.64 C 91.13 138.01 92.07 137.68 92.45 136.89 L 92.89 135.96 C 93.26 135.17 92.93 134.23 92.14 133.86 C 91.36 133.48 90.41 133.82 90.04 134.61 Z M 89.60 135.53 L 89.16 136.44 C 88.78 137.23 89.11 138.17 89.89 138.55 C 90.68 138.93 91.62 138.60 92.00 137.82 L 92.44 136.90 C 92.82 136.12 92.49 135.17 91.71 134.79 C 90.92 134.41 89.98 134.74 89.60 135.53 Z M 89.16 136.43 L 88.72 137.33 C 88.34 138.11 88.66 139.06 89.44 139.44 C 90.23 139.83 91.17 139.50 91.56 138.72 L 92.00 137.83 C 92.38 137.04 92.06 136.10 91.28 135.71 C 90.50 135.33 89.55 135.65 89.16 136.43 Z M 88.73 137.31 L 88.29 138.19 C 87.90 138.97 88.21 139.92 88.99 140.31 C 89.78 140.70 90.73 140.39 91.12 139.61 L 91.56 138.73 C 91.95 137.95 91.63 137.00 90.85 136.61 C 90.07 136.22 89.12 136.53 88.73 137.31 Z M 88.29 138.17 L 87.86 139.02 C 87.46 139.80 87.77 140.75 88.55 141.15 C 89.33 141.55 90.28 141.24 90.68 140.47 L 91.11 139.62 C 91.51 138.84 91.20 137.88 90.43 137.49 C 89.65 137.09 88.69 137.40 88.29 138.17 Z M 87.86 139.01 L 87.38 139.93 C 86.97 140.71 87.27 141.67 88.05 142.07 C 88.82 142.48 89.78 142.18 90.19 141.41 L 90.67 140.48 C 91.08 139.70 90.78 138.75 90.01 138.34 C 89.23 137.93 88.27 138.23 87.86 139.01 Z M 87.38 139.92 L 86.89 140.83 C 86.48 141.60 86.77 142.57 87.54 142.98 C 88.32 143.40 89.28 143.11 89.70 142.34 L 90.19 141.42 C 90.60 140.65 90.31 139.68 89.54 139.27 C 88.76 138.85 87.80 139.14 87.38 139.92 Z M 86.89 140.82 L 86.41 141.70 C 85.99 142.47 86.27 143.44 87.04 143.86 C 87.82 144.29 88.79 144.00 89.21 143.23 L 89.69 142.35 C 90.12 141.58 89.83 140.61 89.06 140.18 C 88.29 139.76 87.32 140.04 86.89 140.82 Z M 86.41 141.69 L 85.94 142.54 C 85.51 143.31 85.78 144.29 86.55 144.72 C 87.33 145.15 88.30 144.87 88.73 144.10 L 89.21 143.24 C 89.64 142.47 89.36 141.50 88.59 141.07 C 87.82 140.64 86.84 140.91 86.41 141.69 Z M 85.94 142.53 L 85.47 143.35 C 85.03 144.13 85.30 145.11 86.08 145.54 C 86.85 145.98 87.83 145.71 88.26 144.94 L 88.73 144.11 C 89.17 143.34 88.90 142.36 88.12 141.92 C 87.35 141.49 86.37 141.76 85.94 142.53 Z M 85.47 143.35 L 84.97 144.22 C 84.53 144.99 84.80 145.97 85.57 146.41 C 86.34 146.85 87.32 146.59 87.76 145.82 L 88.26 144.94 C 88.70 144.17 88.44 143.19 87.67 142.75 C 86.89 142.31 85.91 142.58 85.47 143.35 Z M 84.97 144.21 L 84.46 145.09 C 84.01 145.86 84.28 146.85 85.05 147.30 C 85.82 147.74 86.80 147.48 87.25 146.71 L 87.76 145.83 C 88.21 145.06 87.94 144.07 87.17 143.62 C 86.41 143.18 85.42 143.44 84.97 144.21 Z M 84.46 145.08 L 83.96 145.94 C 83.50 146.71 83.76 147.70 84.53 148.15 C 85.29 148.60 86.28 148.35 86.74 147.58 L 87.24 146.72 C 87.70 145.95 87.44 144.97 86.67 144.51 C 85.91 144.06 84.92 144.32 84.46 145.08 Z M 83.96 145.93 L 83.46 146.77 C 83.00 147.53 83.24 148.52 84.01 148.98 C 84.77 149.44 85.76 149.20 86.23 148.43 L 86.73 147.60 C 87.19 146.83 86.94 145.84 86.18 145.38 C 85.42 144.92 84.42 145.16 83.96 145.93 Z M 83.47 146.75 L 82.96 147.57 C 82.49 148.33 82.72 149.33 83.48 149.80 C 84.24 150.27 85.24 150.03 85.71 149.27 L 86.22 148.45 C 86.69 147.69 86.45 146.69 85.69 146.22 C 84.93 145.76 83.93 145.99 83.47 146.75 Z M 82.97 147.55 L 82.47 148.34 C 81.99 149.09 82.21 150.10 82.97 150.58 C 83.72 151.06 84.72 150.83 85.20 150.08 L 85.70 149.29 C 86.18 148.53 85.96 147.53 85.20 147.05 C 84.45 146.57 83.45 146.80 82.97 147.55 Z M 82.47 148.32 L 81.95 149.11 C 81.46 149.87 81.67 150.87 82.43 151.36 C 83.18 151.86 84.19 151.64 84.68 150.89 L 85.20 150.10 C 85.69 149.34 85.48 148.34 84.72 147.85 C 83.97 147.35 82.96 147.57 82.47 148.32 Z M 81.96 149.09 L 81.41 149.92 C 80.91 150.67 81.11 151.68 81.86 152.18 C 82.60 152.68 83.62 152.48 84.12 151.73 L 84.67 150.91 C 85.17 150.16 84.97 149.15 84.22 148.65 C 83.48 148.15 82.46 148.35 81.96 149.09 Z M 81.41 149.90 L 80.82 150.77 C 80.31 151.52 80.50 152.53 81.24 153.05 C 81.99 153.56 83.00 153.37 83.51 152.62 L 84.11 151.75 C 84.62 151.01 84.43 149.99 83.69 149.48 C 82.94 148.97 81.93 149.16 81.41 149.90 Z M 80.82 150.76 L 80.23 151.60 C 79.71 152.35 79.89 153.37 80.63 153.89 C 81.38 154.41 82.40 154.23 82.92 153.48 L 83.51 152.64 C 84.03 151.89 83.85 150.87 83.11 150.35 C 82.36 149.83 81.34 150.02 80.82 150.76 Z M 80.24 151.60 L 79.70 152.35 C 79.18 153.09 79.35 154.12 80.09 154.64 C 80.83 155.16 81.85 154.99 82.38 154.25 L 82.91 153.49 C 83.44 152.75 83.26 151.73 82.52 151.21 C 81.78 150.68 80.76 150.86 80.24 151.60 Z M 79.70 152.35 L 79.14 153.14 C 78.61 153.88 78.78 154.90 79.52 155.43 C 80.26 155.95 81.28 155.78 81.81 155.04 L 82.37 154.25 C 82.90 153.52 82.73 152.49 81.99 151.97 C 81.25 151.44 80.23 151.61 79.70 152.35 Z M 79.14 153.14 L 78.55 153.95 C 78.03 154.69 78.19 155.71 78.93 156.24 C 79.66 156.77 80.69 156.60 81.21 155.87 L 81.80 155.05 C 82.33 154.31 82.16 153.29 81.43 152.76 C 80.69 152.23 79.67 152.40 79.14 153.14 Z M 78.56 153.95 L 77.95 154.79 C 77.42 155.52 77.59 156.55 78.32 157.08 C 79.05 157.61 80.08 157.44 80.61 156.71 L 81.21 155.87 C 81.74 155.14 81.58 154.11 80.84 153.58 C 80.11 153.05 79.09 153.22 78.56 153.95 Z M 77.95 154.79 L 77.34 155.64 C 76.81 156.38 76.97 157.40 77.70 157.93 C 78.43 158.46 79.46 158.29 79.99 157.56 L 80.60 156.71 C 81.13 155.98 80.97 154.95 80.24 154.43 C 79.51 153.90 78.48 154.06 77.95 154.79 Z M 77.34 155.64 L 76.84 156.32 C 76.31 157.05 76.48 158.08 77.21 158.61 C 77.94 159.14 78.96 158.97 79.49 158.24 L 79.98 157.56 C 80.51 156.83 80.35 155.81 79.62 155.28 C 78.89 154.75 77.87 154.91 77.34 155.64 Z"
      fill="black"
      fill-rule="nonzero" /><path d="M 112.10 113.87 L 112.75 113.13 C 113.31 112.48 113.25 111.49 112.60 110.93 C 111.95 110.36 110.97 110.42 110.40 111.07 L 109.75 111.81 C 109.18 112.46 109.25 113.45 109.90 114.02 C 110.55 114.58 111.53 114.52 112.10 113.87 Z M 112.68 113.20 L 113.37 112.50 C 113.98 111.89 113.98 110.90 113.36 110.29 C 112.75 109.69 111.76 109.69 111.16 110.30 L 110.46 111.00 C 109.86 111.61 109.86 112.60 110.47 113.21 C 111.09 113.82 112.07 113.81 112.68 113.20 Z M 113.23 112.63 L 114.01 112.01 C 114.69 111.48 114.81 110.50 114.28 109.82 C 113.74 109.14 112.76 109.03 112.08 109.56 L 111.30 110.18 C 110.62 110.71 110.50 111.69 111.04 112.37 C 111.57 113.05 112.55 113.16 113.23 112.63 Z M 113.79 112.16 L 114.68 111.68 C 115.43 111.27 115.72 110.32 115.31 109.56 C 114.89 108.81 113.95 108.52 113.19 108.93 L 112.31 109.41 C 111.55 109.82 111.27 110.77 111.68 111.53 C 112.09 112.29 113.04 112.57 113.79 112.16 Z M 114.45 111.78 L 115.35 111.47 C 116.16 111.18 116.59 110.29 116.31 109.48 C 116.02 108.66 115.13 108.23 114.32 108.52 L 113.42 108.83 C 112.60 109.12 112.17 110.01 112.46 110.82 C 112.74 111.64 113.63 112.07 114.45 111.78 Z M 115.19 111.51 L 116.17 111.28 C 117.01 111.09 117.53 110.25 117.33 109.41 C 117.14 108.57 116.30 108.05 115.46 108.24 L 114.48 108.47 C 113.64 108.67 113.12 109.51 113.31 110.35 C 113.51 111.19 114.35 111.71 115.19 111.51 Z M 116.06 111.30 L 117.08 111.14 C 117.93 111.01 118.51 110.21 118.37 109.36 C 118.24 108.51 117.44 107.92 116.59 108.06 L 115.57 108.22 C 114.72 108.36 114.14 109.15 114.27 110.01 C 114.41 110.86 115.21 111.44 116.06 111.30 Z M 117.00 111.15 L 118.02 111.04 C 118.88 110.95 119.50 110.18 119.40 109.32 C 119.31 108.46 118.54 107.84 117.68 107.94 L 116.66 108.05 C 115.80 108.14 115.19 108.92 115.28 109.77 C 115.37 110.63 116.15 111.25 117.00 111.15 Z M 117.98 111.05 L 118.98 110.96 C 119.84 110.89 120.48 110.14 120.41 109.28 C 120.34 108.42 119.59 107.78 118.73 107.85 L 117.72 107.93 C 116.86 108.00 116.22 108.76 116.29 109.62 C 116.36 110.48 117.12 111.12 117.98 111.05 Z M 118.95 110.97 L 119.94 110.91 C 120.80 110.85 121.45 110.11 121.40 109.25 C 121.35 108.39 120.61 107.74 119.75 107.79 L 118.76 107.85 C 117.90 107.90 117.25 108.64 117.30 109.50 C 117.35 110.36 118.09 111.02 118.95 110.97 Z M 119.91 110.91 L 120.90 110.86 C 121.76 110.83 122.42 110.10 122.39 109.24 C 122.35 108.37 121.62 107.71 120.76 107.74 L 119.77 107.79 C 118.91 107.83 118.25 108.56 118.28 109.42 C 118.32 110.28 119.05 110.95 119.91 110.91 Z M 120.88 110.86 L 121.88 110.83 C 122.75 110.80 123.42 110.08 123.39 109.22 C 123.36 108.36 122.64 107.68 121.78 107.71 L 120.77 107.74 C 119.91 107.77 119.24 108.50 119.27 109.36 C 119.30 110.22 120.02 110.89 120.88 110.86 Z M 121.88 110.83 L 122.84 110.80 C 123.70 110.78 124.38 110.06 124.35 109.20 C 124.33 108.33 123.61 107.66 122.75 107.68 L 121.79 107.71 C 120.92 107.74 120.25 108.46 120.27 109.32 C 120.30 110.18 121.02 110.86 121.88 110.83 Z M 122.84 110.80 L 123.78 110.78 C 124.65 110.75 125.32 110.03 125.30 109.17 C 125.28 108.31 124.56 107.63 123.70 107.65 L 122.75 107.68 C 121.89 107.71 121.21 108.42 121.23 109.29 C 121.26 110.15 121.97 110.83 122.84 110.80 Z M 123.78 110.78 L 124.77 110.75 C 125.63 110.72 126.31 110.01 126.29 109.15 C 126.26 108.28 125.55 107.60 124.68 107.63 L 123.70 107.65 C 122.84 107.68 122.16 108.40 122.18 109.26 C 122.20 110.12 122.92 110.80 123.78 110.78 Z M 124.77 110.75 L 125.79 110.72 C 126.66 110.70 127.34 109.98 127.31 109.12 C 127.29 108.26 126.57 107.58 125.71 107.60 L 124.69 107.63 C 123.82 107.65 123.14 108.37 123.17 109.23 C 123.19 110.09 123.91 110.77 124.77 110.75 Z M 125.79 110.72 L 126.86 110.69 C 127.72 110.67 128.40 109.96 128.38 109.09 C 128.35 108.23 127.64 107.55 126.78 107.57 L 125.71 107.60 C 124.85 107.62 124.17 108.34 124.19 109.20 C 124.21 110.06 124.93 110.74 125.79 110.72 Z M 126.85 110.69 L 127.83 110.67 C 128.69 110.65 129.37 109.93 129.35 109.07 C 129.33 108.21 128.61 107.53 127.75 107.55 L 126.78 107.57 C 125.92 107.59 125.23 108.31 125.26 109.17 C 125.28 110.03 125.99 110.72 126.85 110.69 Z M 127.83 110.67 L 128.78 110.65 C 129.64 110.63 130.33 109.91 130.31 109.05 C 130.28 108.19 129.57 107.51 128.71 107.53 L 127.75 107.55 C 126.89 107.57 126.21 108.29 126.23 109.15 C 126.25 110.01 126.97 110.69 127.83 110.67 Z M 128.78 110.65 L 129.76 110.63 C 130.62 110.61 131.31 109.89 131.29 109.03 C 131.27 108.17 130.55 107.48 129.69 107.50 L 128.71 107.53 C 127.85 107.55 127.16 108.26 127.18 109.12 C 127.20 109.99 127.92 110.67 128.78 110.65 Z M 129.76 110.63 L 130.77 110.60 C 131.63 110.58 132.31 109.87 132.29 109.01 C 132.27 108.14 131.56 107.46 130.70 107.48 L 129.69 107.50 C 128.83 107.52 128.15 108.24 128.16 109.10 C 128.18 109.96 128.90 110.64 129.76 110.63 Z M 130.77 110.60 L 131.80 110.58 C 132.66 110.56 133.35 109.85 133.33 108.98 C 133.31 108.12 132.60 107.44 131.73 107.46 L 130.70 107.48 C 129.84 107.50 129.15 108.21 129.17 109.08 C 129.19 109.94 129.91 110.62 130.77 110.60 Z M 131.80 110.58 L 132.86 110.56 C 133.73 110.54 134.41 109.82 134.39 108.96 C 134.37 108.10 133.66 107.42 132.80 107.44 L 131.73 107.46 C 130.87 107.48 130.19 108.19 130.21 109.05 C 130.23 109.91 130.94 110.60 131.80 110.58 Z M 132.86 110.56 L 133.86 110.54 C 134.72 110.52 135.41 109.80 135.39 108.94 C 135.37 108.08 134.66 107.40 133.80 107.41 L 132.80 107.44 C 131.94 107.45 131.25 108.17 131.27 109.03 C 131.29 109.89 132.00 110.58 132.86 110.56 Z M 133.86 110.54 L 134.87 110.51 C 135.73 110.50 136.41 109.78 136.39 108.92 C 136.37 108.06 135.66 107.37 134.80 107.39 L 133.80 107.41 C 132.93 107.43 132.25 108.15 132.27 109.01 C 132.29 109.87 133.00 110.55 133.86 110.54 Z M 134.87 110.51 L 135.88 110.49 C 136.74 110.47 137.42 109.76 137.40 108.89 C 137.38 108.03 136.67 107.35 135.81 107.37 L 134.80 107.39 C 133.93 107.41 133.25 108.13 133.27 108.99 C 133.29 109.85 134.01 110.53 134.87 110.51 Z M 135.88 110.49 L 136.90 110.46 C 137.76 110.44 138.44 109.73 138.42 108.86 C 138.39 108.00 137.68 107.32 136.81 107.34 L 135.80 107.37 C 134.94 107.39 134.26 108.11 134.28 108.97 C 134.30 109.83 135.02 110.51 135.88 110.49 Z M 136.90 110.46 L 137.91 110.43 C 138.77 110.41 139.45 109.69 139.42 108.83 C 139.39 107.96 138.67 107.29 137.81 107.31 L 136.81 107.34 C 135.95 107.37 135.27 108.09 135.29 108.95 C 135.32 109.81 136.04 110.49 136.90 110.46 Z M 137.91 110.43 L 138.91 110.40 C 139.77 110.37 140.44 109.65 140.41 108.78 C 140.38 107.92 139.66 107.25 138.80 107.28 L 137.80 107.31 C 136.94 107.34 136.27 108.07 136.30 108.93 C 136.33 109.79 137.05 110.46 137.91 110.43 Z M 138.92 110.40 L 139.93 110.36 C 140.79 110.32 141.46 109.59 141.42 108.73 C 141.39 107.87 140.66 107.20 139.80 107.24 L 138.78 107.28 C 137.92 107.32 137.25 108.04 137.29 108.90 C 137.33 109.77 138.06 110.43 138.92 110.40 Z M 139.94 110.35 L 140.98 110.30 C 141.84 110.26 142.50 109.53 142.46 108.67 C 142.42 107.80 141.69 107.14 140.82 107.18 L 139.79 107.24 C 138.92 107.28 138.26 108.01 138.30 108.87 C 138.35 109.74 139.08 110.40 139.94 110.35 Z M 140.99 110.30 L 142.01 110.24 C 142.87 110.20 143.52 109.46 143.47 108.60 C 143.43 107.74 142.69 107.08 141.83 107.13 L 140.81 107.19 C 139.95 107.23 139.29 107.97 139.34 108.83 C 139.39 109.69 140.13 110.35 140.99 110.30 Z M 142.01 110.24 L 143.01 110.18 C 143.87 110.13 144.52 109.39 144.47 108.53 C 144.41 107.66 143.67 107.01 142.81 107.07 L 141.82 107.13 C 140.96 107.18 140.30 107.92 140.36 108.78 C 140.41 109.64 141.15 110.30 142.01 110.24 Z M 143.01 110.18 L 143.99 110.12 C 144.85 110.06 145.50 109.31 145.44 108.45 C 145.38 107.59 144.64 106.94 143.78 107.00 L 142.80 107.07 C 141.94 107.12 141.29 107.87 141.35 108.73 C 141.41 109.59 142.15 110.24 143.01 110.18 Z M 143.99 110.12 L 144.95 110.05 C 145.81 109.99 146.46 109.24 146.40 108.38 C 146.34 107.52 145.60 106.87 144.74 106.93 L 143.77 107.00 C 142.91 107.06 142.27 107.81 142.33 108.67 C 142.39 109.53 143.13 110.18 143.99 110.12 Z M 144.96 110.05 L 145.94 109.98 C 146.80 109.92 147.45 109.17 147.39 108.31 C 147.33 107.45 146.58 106.80 145.72 106.86 L 144.73 106.93 C 143.87 106.99 143.23 107.74 143.29 108.60 C 143.35 109.46 144.10 110.11 144.96 110.05 Z M 145.95 109.98 L 146.95 109.90 C 147.81 109.84 148.46 109.09 148.39 108.23 C 148.33 107.38 147.59 106.73 146.73 106.79 L 145.72 106.86 C 144.86 106.92 144.21 107.67 144.28 108.53 C 144.34 109.39 145.09 110.04 145.95 109.98 Z M 146.95 109.90 L 147.95 109.83 C 148.81 109.77 149.46 109.02 149.39 108.16 C 149.33 107.30 148.58 106.66 147.72 106.72 L 146.72 106.79 C 145.86 106.85 145.22 107.60 145.28 108.46 C 145.34 109.32 146.09 109.97 146.95 109.90 Z M 147.95 109.83 L 148.94 109.76 C 149.80 109.70 150.45 108.95 150.39 108.09 C 150.32 107.23 149.58 106.58 148.72 106.65 L 147.72 106.72 C 146.86 106.78 146.22 107.53 146.28 108.39 C 146.34 109.25 147.09 109.89 147.95 109.83 Z M 148.94 109.76 L 149.94 109.69 C 150.79 109.62 151.44 108.88 151.38 108.02 C 151.32 107.16 150.57 106.51 149.71 106.57 L 148.72 106.65 C 147.86 106.71 147.21 107.46 147.27 108.32 C 147.34 109.18 148.08 109.82 148.94 109.76 Z M 149.94 109.69 L 150.92 109.61 C 151.78 109.55 152.43 108.80 152.37 107.94 C 152.30 107.08 151.56 106.44 150.70 106.50 L 149.71 106.57 C 148.85 106.64 148.20 107.38 148.26 108.24 C 148.33 109.10 149.08 109.75 149.94 109.69 Z M 150.92 109.61 L 151.91 109.54 C 152.77 109.48 153.42 108.73 153.36 107.87 C 153.29 107.01 152.55 106.36 151.69 106.43 L 150.70 106.50 C 149.84 106.56 149.19 107.31 149.25 108.17 C 149.32 109.03 150.07 109.68 150.92 109.61 Z M 151.92 109.54 L 152.91 109.47 C 153.77 109.40 154.41 108.66 154.35 107.80 C 154.28 106.94 153.54 106.29 152.68 106.35 L 151.68 106.43 C 150.82 106.49 150.18 107.24 150.24 108.10 C 150.31 108.96 151.06 109.61 151.92 109.54 Z M 152.91 109.47 L 153.90 109.39 C 154.76 109.33 155.41 108.58 155.34 107.72 C 155.28 106.86 154.53 106.21 153.67 106.28 L 152.67 106.35 C 151.81 106.42 151.17 107.17 151.23 108.03 C 151.30 108.89 152.05 109.53 152.91 109.47 Z M 153.91 109.39 L 154.91 109.32 C 155.77 109.25 156.41 108.50 156.34 107.64 C 156.27 106.78 155.52 106.14 154.66 106.20 L 153.66 106.28 C 152.81 106.35 152.16 107.10 152.23 107.96 C 152.30 108.82 153.05 109.46 153.91 109.39 Z M 154.91 109.31 L 155.92 109.23 C 156.78 109.17 157.42 108.41 157.35 107.55 C 157.28 106.69 156.53 106.05 155.67 106.12 L 154.66 106.20 C 153.80 106.27 153.16 107.02 153.23 107.88 C 153.30 108.74 154.05 109.38 154.91 109.31 Z M 155.92 109.23 L 156.91 109.15 C 157.77 109.08 158.40 108.32 158.33 107.47 C 158.26 106.61 157.51 105.97 156.65 106.04 L 155.66 106.12 C 154.80 106.19 154.16 106.95 154.24 107.81 C 154.31 108.67 155.06 109.31 155.92 109.23 Z M 156.91 109.15 L 157.89 109.07 C 158.75 108.99 159.38 108.24 159.31 107.38 C 159.23 106.52 158.48 105.88 157.62 105.96 L 156.64 106.04 C 155.78 106.11 155.15 106.87 155.22 107.73 C 155.30 108.59 156.05 109.23 156.91 109.15 Z M 157.89 109.07 L 158.87 108.98 C 159.73 108.90 160.37 108.14 160.29 107.29 C 160.22 106.43 159.46 105.79 158.60 105.87 L 157.61 105.96 C 156.75 106.03 156.12 106.79 156.20 107.65 C 156.27 108.51 157.03 109.14 157.89 109.07 Z M 158.88 108.98 L 159.87 108.89 C 160.73 108.81 161.37 108.05 161.29 107.19 C 161.21 106.34 160.45 105.70 159.59 105.78 L 158.60 105.87 C 157.74 105.95 157.10 106.70 157.18 107.56 C 157.26 108.42 158.02 109.06 158.88 108.98 Z M 159.87 108.89 L 160.88 108.80 C 161.74 108.72 162.38 107.96 162.30 107.10 C 162.22 106.24 161.46 105.61 160.60 105.69 L 159.59 105.78 C 158.73 105.86 158.10 106.62 158.18 107.47 C 158.26 108.33 159.02 108.97 159.87 108.89 Z M 160.88 108.80 L 161.91 108.71 C 162.77 108.63 163.40 107.87 163.32 107.01 C 163.25 106.15 162.49 105.52 161.63 105.60 L 160.60 105.69 C 159.75 105.77 159.11 106.52 159.19 107.38 C 159.27 108.24 160.02 108.88 160.88 108.80 Z M 161.91 108.71 L 162.87 108.62 C 163.73 108.55 164.36 107.79 164.28 106.93 C 164.21 106.07 163.45 105.44 162.59 105.51 L 161.63 105.60 C 160.77 105.67 160.14 106.43 160.21 107.29 C 160.29 108.15 161.05 108.78 161.91 108.71 Z M 162.86 108.62 L 163.82 108.54 C 164.68 108.46 165.32 107.71 165.24 106.85 C 165.17 105.99 164.41 105.35 163.55 105.43 L 162.59 105.51 C 161.73 105.59 161.10 106.34 161.17 107.20 C 161.25 108.06 162.01 108.70 162.86 108.62 Z M 163.82 108.54 L 164.80 108.45 C 165.66 108.38 166.30 107.63 166.22 106.77 C 166.15 105.91 165.39 105.27 164.53 105.34 L 163.56 105.43 C 162.70 105.50 162.06 106.26 162.13 107.12 C 162.21 107.98 162.96 108.61 163.82 108.54 Z M 164.80 108.45 L 165.79 108.37 C 166.65 108.30 167.29 107.54 167.22 106.68 C 167.15 105.83 166.39 105.19 165.53 105.26 L 164.54 105.34 C 163.68 105.42 163.04 106.17 163.11 107.03 C 163.18 107.89 163.94 108.53 164.80 108.45 Z M 165.79 108.37 L 166.81 108.29 C 167.67 108.22 168.31 107.46 168.24 106.60 C 168.17 105.74 167.41 105.11 166.55 105.18 L 165.53 105.26 C 164.68 105.33 164.04 106.08 164.11 106.94 C 164.18 107.80 164.93 108.44 165.79 108.37 Z M 166.81 108.29 L 167.85 108.20 C 168.71 108.14 169.35 107.38 169.28 106.52 C 169.21 105.66 168.46 105.02 167.60 105.09 L 166.55 105.18 C 165.70 105.24 165.05 106.00 165.12 106.86 C 165.19 107.72 165.95 108.36 166.81 108.29 Z M 167.84 108.20 L 168.86 108.12 C 169.72 108.06 170.36 107.31 170.30 106.45 C 170.23 105.59 169.48 104.94 168.62 105.01 L 167.60 105.09 C 166.74 105.16 166.10 105.91 166.16 106.77 C 166.23 107.63 166.98 108.27 167.84 108.20 Z M 168.86 108.12 L 169.85 108.05 C 170.71 107.98 171.35 107.23 171.29 106.37 C 171.22 105.51 170.47 104.87 169.61 104.94 L 168.62 105.01 C 167.76 105.08 167.12 105.83 167.18 106.69 C 167.25 107.55 168.00 108.19 168.86 108.12 Z M 169.85 108.05 L 170.85 107.97 C 171.71 107.91 172.35 107.16 172.29 106.30 C 172.22 105.44 171.47 104.79 170.61 104.86 L 169.61 104.94 C 168.75 105.00 168.11 105.75 168.17 106.61 C 168.24 107.47 168.99 108.11 169.85 108.05 Z M 170.85 107.97 L 171.86 107.90 C 172.72 107.83 173.36 107.08 173.30 106.22 C 173.23 105.36 172.48 104.72 171.62 104.78 L 170.61 104.86 C 169.75 104.92 169.11 105.67 169.18 106.53 C 169.24 107.39 169.99 108.04 170.85 107.97 Z M 171.86 107.90 L 172.87 107.82 C 173.73 107.76 174.37 107.01 174.31 106.15 C 174.24 105.29 173.49 104.64 172.63 104.71 L 171.62 104.78 C 170.76 104.85 170.12 105.60 170.18 106.46 C 170.25 107.32 171.00 107.96 171.86 107.90 Z M 172.87 107.82 L 173.87 107.74 C 174.73 107.68 175.37 106.93 175.31 106.07 C 175.24 105.21 174.49 104.56 173.63 104.63 L 172.63 104.71 C 171.77 104.77 171.13 105.52 171.19 106.38 C 171.26 107.24 172.01 107.89 172.87 107.82 Z M 173.87 107.74 L 174.86 107.67 C 175.72 107.60 176.36 106.85 176.30 105.99 C 176.23 105.13 175.48 104.49 174.62 104.55 L 173.63 104.63 C 172.77 104.70 172.13 105.45 172.20 106.31 C 172.26 107.17 173.01 107.81 173.87 107.74 Z M 174.86 107.67 L 175.89 107.59 C 176.75 107.52 177.39 106.77 177.32 105.91 C 177.25 105.05 176.50 104.41 175.64 104.47 L 174.62 104.55 C 173.76 104.62 173.12 105.37 173.19 106.23 C 173.25 107.09 174.00 107.73 174.86 107.67 Z M 175.89 107.59 L 176.93 107.50 C 177.79 107.43 178.43 106.68 178.36 105.82 C 178.30 104.96 177.54 104.32 176.68 104.39 L 175.64 104.47 C 174.78 104.54 174.14 105.30 174.21 106.16 C 174.28 107.01 175.03 107.66 175.89 107.59 Z M 176.93 107.50 L 177.95 107.42 C 178.81 107.35 179.45 106.60 179.38 105.74 C 179.31 104.88 178.56 104.24 177.70 104.31 L 176.68 104.39 C 175.82 104.46 175.18 105.21 175.25 106.07 C 175.32 106.93 176.08 107.57 176.93 107.50 Z M 177.95 107.42 L 178.95 107.34 C 179.81 107.27 180.45 106.51 180.38 105.66 C 180.31 104.80 179.56 104.16 178.70 104.23 L 177.70 104.31 C 176.84 104.38 176.20 105.13 176.27 105.99 C 176.34 106.85 177.10 107.49 177.95 107.42 Z M 178.95 107.34 L 179.93 107.26 C 180.79 107.19 181.43 106.44 181.36 105.58 C 181.29 104.72 180.53 104.08 179.67 104.15 L 178.70 104.23 C 177.84 104.30 177.20 105.05 177.27 105.91 C 177.34 106.77 178.09 107.41 178.95 107.34 Z M 179.93 107.26 L 180.88 107.18 C 181.74 107.11 182.38 106.36 182.31 105.50 C 182.24 104.64 181.49 104.00 180.63 104.07 L 179.67 104.15 C 178.82 104.22 178.18 104.97 178.24 105.83 C 178.31 106.69 179.07 107.33 179.93 107.26 Z M 180.88 107.18 L 181.85 107.11 C 182.71 107.04 183.35 106.29 183.28 105.43 C 183.21 104.57 182.46 103.92 181.60 103.99 L 180.63 104.07 C 179.77 104.14 179.13 104.89 179.20 105.75 C 179.27 106.61 180.02 107.25 180.88 107.18 Z M 181.84 107.11 L 182.89 107.02 C 183.75 106.96 184.40 106.21 184.33 105.35 C 184.26 104.49 183.51 103.85 182.65 103.91 L 181.60 103.99 C 180.74 104.06 180.10 104.81 180.17 105.67 C 180.23 106.53 180.98 107.17 181.84 107.11 Z M 182.89 107.03 L 183.91 106.95 C 184.77 106.89 185.42 106.14 185.36 105.28 C 185.29 104.42 184.55 103.77 183.69 103.84 L 182.66 103.91 C 181.80 103.97 181.15 104.72 181.22 105.58 C 181.28 106.44 182.03 107.09 182.89 107.03 Z M 183.91 106.95 L 184.91 106.88 C 185.77 106.82 186.42 106.08 186.36 105.22 C 186.30 104.36 185.55 103.71 184.69 103.77 L 183.69 103.84 C 182.83 103.90 182.18 104.64 182.24 105.50 C 182.30 106.36 183.05 107.01 183.91 106.95 Z M 184.90 106.88 L 185.87 106.82 C 186.74 106.76 187.39 106.02 187.33 105.16 C 187.28 104.30 186.54 103.65 185.68 103.70 L 184.70 103.77 C 183.84 103.82 183.19 104.56 183.24 105.42 C 183.30 106.28 184.04 106.94 184.90 106.88 Z M 185.87 106.82 L 186.81 106.77 C 187.67 106.72 188.33 105.98 188.28 105.12 C 188.23 104.26 187.49 103.60 186.63 103.65 L 185.68 103.70 C 184.82 103.75 184.17 104.49 184.22 105.35 C 184.27 106.21 185.00 106.87 185.87 106.82 Z M 186.80 106.77 L 187.83 106.71 C 188.69 106.67 189.36 105.94 189.31 105.08 C 189.27 104.22 188.54 103.55 187.68 103.60 L 186.64 103.65 C 185.78 103.69 185.12 104.42 185.16 105.29 C 185.21 106.15 185.94 106.81 186.80 106.77 Z M 187.82 106.71 L 188.87 106.67 C 189.73 106.63 190.40 105.91 190.36 105.04 C 190.33 104.18 189.60 103.51 188.74 103.55 L 187.69 103.60 C 186.83 103.63 186.16 104.36 186.19 105.22 C 186.23 106.08 186.96 106.75 187.82 106.71 Z M 188.86 106.67 L 189.87 106.63 C 190.73 106.60 191.40 105.88 191.37 105.02 C 191.34 104.15 190.61 103.48 189.75 103.51 L 188.75 103.55 C 187.88 103.58 187.21 104.31 187.24 105.17 C 187.27 106.03 188.00 106.70 188.86 106.67 Z M 189.86 106.63 L 190.82 106.60 C 191.68 106.57 192.36 105.85 192.33 104.99 C 192.30 104.13 191.58 103.45 190.72 103.48 L 189.76 103.51 C 188.90 103.54 188.22 104.26 188.25 105.12 C 188.28 105.99 189.00 106.66 189.86 106.63 Z M 190.82 106.60 L 191.74 106.57 C 192.61 106.55 193.28 105.83 193.25 104.96 C 193.23 104.10 192.51 103.43 191.65 103.45 L 190.72 103.48 C 189.86 103.51 189.18 104.23 189.21 105.09 C 189.24 105.95 189.96 106.63 190.82 106.60 Z M 191.74 106.57 L 192.74 106.54 C 193.60 106.51 194.28 105.79 194.25 104.93 C 194.22 104.07 193.50 103.39 192.64 103.42 L 191.64 103.45 C 190.78 103.48 190.11 104.20 190.13 105.06 C 190.16 105.92 190.88 106.60 191.74 106.57 Z M 192.74 106.54 L 193.71 106.51 C 194.57 106.48 195.25 105.76 195.22 104.90 C 195.19 104.04 194.47 103.36 193.61 103.39 L 192.64 103.42 C 191.78 103.45 191.10 104.17 191.13 105.03 C 191.15 105.89 191.87 106.57 192.74 106.54 Z M 193.70 106.51 L 194.69 106.49 C 195.55 106.46 196.23 105.75 196.21 104.88 C 196.19 104.02 195.47 103.34 194.61 103.36 L 193.62 103.39 C 192.76 103.41 192.08 104.13 192.10 104.99 C 192.12 105.85 192.84 106.53 193.70 106.51 Z M 194.68 106.49 L 195.72 106.47 C 196.58 106.45 197.26 105.74 197.25 104.87 C 197.23 104.01 196.52 103.33 195.65 103.34 L 194.62 103.36 C 193.76 103.38 193.07 104.09 193.09 104.96 C 193.10 105.82 193.82 106.50 194.68 106.49 Z M 195.70 106.47 L 196.73 106.46 C 197.59 106.45 198.28 105.74 198.27 104.88 C 198.27 104.02 197.56 103.33 196.70 103.33 L 195.67 103.34 C 194.81 103.35 194.12 104.06 194.12 104.92 C 194.13 105.78 194.84 106.47 195.70 106.47 Z M 196.68 106.46 L 197.73 106.48 C 198.59 106.49 199.31 105.81 199.32 104.94 C 199.34 104.08 198.65 103.37 197.79 103.35 L 196.74 103.33 C 195.88 103.32 195.17 104.00 195.15 104.87 C 195.14 105.73 195.82 106.44 196.68 106.46 Z M 197.65 106.47 L 198.68 106.54 C 199.54 106.60 200.28 105.96 200.34 105.10 C 200.40 104.24 199.75 103.49 198.89 103.43 L 197.87 103.36 C 197.01 103.30 196.26 103.95 196.20 104.81 C 196.14 105.67 196.79 106.41 197.65 106.47 Z M 198.54 106.53 L 199.49 106.68 C 200.34 106.81 201.14 106.23 201.28 105.38 C 201.41 104.53 200.83 103.73 199.98 103.59 L 199.03 103.44 C 198.17 103.31 197.38 103.89 197.24 104.75 C 197.11 105.60 197.69 106.40 198.54 106.53 Z M 199.26 106.62 L 200.20 106.92 C 201.02 107.18 201.90 106.72 202.16 105.90 C 202.42 105.08 201.96 104.20 201.14 103.94 L 200.20 103.65 C 199.38 103.39 198.50 103.84 198.25 104.67 C 197.99 105.49 198.44 106.36 199.26 106.62 Z M 199.87 106.77 L 200.72 107.28 C 201.46 107.73 202.42 107.49 202.87 106.75 C 203.31 106.01 203.07 105.05 202.33 104.60 L 201.47 104.09 C 200.73 103.65 199.77 103.89 199.33 104.63 C 198.89 105.37 199.13 106.33 199.87 106.77 Z M 200.42 107.05 L 201.10 107.73 C 201.71 108.34 202.70 108.33 203.31 107.72 C 203.92 107.11 203.92 106.13 203.31 105.52 L 202.63 104.84 C 202.02 104.23 201.03 104.23 200.42 104.84 C 199.81 105.45 199.81 106.44 200.42 107.05 Z M 200.92 107.51 L 201.48 108.31 C 201.97 109.02 202.94 109.20 203.65 108.71 C 204.36 108.22 204.54 107.25 204.05 106.54 L 203.49 105.73 C 203.00 105.02 202.03 104.85 201.32 105.34 C 200.61 105.83 200.43 106.80 200.92 107.51 Z M 201.39 108.17 L 201.81 108.95 C 202.22 109.71 203.17 109.99 203.93 109.57 C 204.69 109.16 204.97 108.22 204.56 107.46 L 204.13 106.68 C 203.72 105.92 202.77 105.64 202.02 106.05 C 201.26 106.46 200.98 107.41 201.39 108.17 Z M 201.76 108.83 L 202.14 109.71 C 202.49 110.49 203.41 110.85 204.20 110.50 C 204.99 110.16 205.34 109.23 205.00 108.44 L 204.61 107.57 C 204.26 106.78 203.34 106.43 202.55 106.77 C 201.76 107.12 201.41 108.04 201.76 108.83 Z M 202.10 109.60 L 202.45 110.58 C 202.74 111.40 203.64 111.82 204.45 111.52 C 205.26 111.23 205.68 110.34 205.39 109.53 L 205.04 108.55 C 204.75 107.74 203.85 107.31 203.04 107.61 C 202.23 107.90 201.81 108.79 202.10 109.60 Z M 202.42 110.50 L 202.74 111.58 C 202.99 112.41 203.86 112.88 204.68 112.64 C 205.51 112.39 205.98 111.52 205.74 110.70 L 205.42 109.61 C 205.17 108.79 204.31 108.31 203.48 108.56 C 202.65 108.80 202.18 109.67 202.42 110.50 Z M 202.73 111.52 L 202.97 112.48 C 203.18 113.31 204.02 113.82 204.86 113.61 C 205.70 113.40 206.20 112.55 206.00 111.72 L 205.76 110.76 C 205.55 109.92 204.70 109.41 203.86 109.62 C 203.03 109.83 202.52 110.68 202.73 111.52 Z M 202.96 112.43 L 203.18 113.44 C 203.36 114.28 204.20 114.81 205.04 114.63 C 205.88 114.44 206.41 113.61 206.23 112.76 L 206.01 111.76 C 205.82 110.92 204.99 110.39 204.14 110.57 C 203.30 110.76 202.77 111.59 202.96 112.43 Z M 203.17 113.41 L 203.37 114.42 C 203.54 115.27 204.36 115.81 205.21 115.65 C 206.06 115.48 206.60 114.66 206.44 113.81 L 206.23 112.80 C 206.07 111.95 205.24 111.40 204.40 111.57 C 203.55 111.74 203.00 112.56 203.17 113.41 Z M 203.37 114.39 L 203.55 115.39 C 203.70 116.23 204.52 116.80 205.37 116.64 C 206.21 116.49 206.78 115.67 206.62 114.83 L 206.44 113.84 C 206.29 112.99 205.47 112.42 204.63 112.58 C 203.78 112.73 203.21 113.55 203.37 114.39 Z M 203.55 115.36 L 203.70 116.30 C 203.85 117.15 204.65 117.72 205.50 117.58 C 206.35 117.44 206.92 116.63 206.78 115.78 L 206.63 114.85 C 206.48 114.00 205.68 113.42 204.83 113.57 C 203.98 113.71 203.40 114.51 203.55 115.36 Z M 203.70 116.28 L 203.87 117.37 C 204.00 118.22 204.79 118.81 205.65 118.67 C 206.50 118.54 207.08 117.75 206.95 116.90 L 206.79 115.80 C 206.66 114.95 205.86 114.37 205.01 114.50 C 204.15 114.63 203.57 115.42 203.70 116.28 Z M 203.86 117.34 L 203.99 118.33 C 204.11 119.18 204.89 119.78 205.75 119.67 C 206.60 119.55 207.20 118.77 207.09 117.91 L 206.96 116.92 C 206.84 116.07 206.06 115.47 205.20 115.58 C 204.35 115.70 203.75 116.48 203.86 117.34 Z M 203.99 118.29 L 204.10 119.23 C 204.19 120.09 204.97 120.71 205.82 120.61 C 206.68 120.51 207.30 119.74 207.20 118.88 L 207.09 117.94 C 207.00 117.09 206.22 116.47 205.37 116.57 C 204.51 116.66 203.89 117.44 203.99 118.29 Z M 204.09 119.21 L 204.18 120.14 C 204.26 121.00 205.03 121.63 205.88 121.55 C 206.74 121.47 207.37 120.71 207.29 119.85 L 207.20 118.91 C 207.12 118.05 206.36 117.42 205.50 117.50 C 204.64 117.59 204.01 118.35 204.09 119.21 Z M 204.18 120.12 L 204.26 121.06 C 204.33 121.92 205.08 122.56 205.94 122.49 C 206.80 122.42 207.44 121.66 207.37 120.80 L 207.29 119.87 C 207.22 119.01 206.47 118.37 205.61 118.44 C 204.75 118.51 204.11 119.26 204.18 120.12 Z M 204.25 121.04 L 204.32 122.02 C 204.38 122.88 205.13 123.53 205.99 123.47 C 206.85 123.41 207.50 122.66 207.44 121.80 L 207.37 120.82 C 207.31 119.96 206.57 119.31 205.70 119.37 C 204.84 119.43 204.19 120.18 204.25 121.04 Z M 204.32 122.00 L 204.38 123.03 C 204.43 123.89 205.17 124.55 206.03 124.50 C 206.89 124.45 207.55 123.71 207.50 122.84 L 207.44 121.82 C 207.39 120.96 206.65 120.30 205.79 120.35 C 204.93 120.40 204.27 121.14 204.32 122.00 Z M 204.38 123.01 L 204.43 124.07 C 204.47 124.93 205.21 125.60 206.07 125.56 C 206.93 125.52 207.60 124.78 207.55 123.92 L 207.50 122.86 C 207.46 122.00 206.73 121.33 205.86 121.37 C 205.00 121.42 204.34 122.15 204.38 123.01 Z M 204.43 124.06 L 204.47 125.01 C 204.50 125.87 205.23 126.54 206.10 126.50 C 206.96 126.47 207.63 125.74 207.59 124.88 L 207.56 123.93 C 207.52 123.07 206.79 122.40 205.93 122.43 C 205.07 122.47 204.39 123.20 204.43 124.06 Z M 204.47 125.00 L 204.50 125.97 C 204.54 126.84 205.26 127.51 206.12 127.48 C 206.99 127.45 207.66 126.72 207.63 125.86 L 207.59 124.88 C 207.56 124.02 206.84 123.35 205.97 123.38 C 205.11 123.41 204.44 124.14 204.47 125.00 Z M 204.50 125.97 L 204.54 126.97 C 204.57 127.84 205.29 128.51 206.16 128.48 C 207.02 128.45 207.70 127.73 207.67 126.87 L 207.63 125.86 C 207.60 125.00 206.88 124.32 206.01 124.35 C 205.15 124.38 204.47 125.11 204.50 125.97 Z M 204.54 126.97 L 204.58 128.01 C 204.61 128.87 205.33 129.55 206.19 129.52 C 207.06 129.48 207.73 128.76 207.70 127.90 L 207.67 126.86 C 207.64 126.00 206.91 125.33 206.05 125.36 C 205.18 125.39 204.51 126.11 204.54 126.97 Z M 204.58 128.01 L 204.61 129.04 C 204.65 129.90 205.37 130.58 206.24 130.54 C 207.10 130.51 207.77 129.79 207.74 128.92 L 207.70 127.89 C 207.67 127.03 206.94 126.36 206.08 126.39 C 205.22 126.42 204.54 127.15 204.58 128.01 Z M 204.61 129.05 L 204.65 130.01 C 204.69 130.87 205.42 131.54 206.28 131.51 C 207.15 131.47 207.82 130.74 207.78 129.88 L 207.74 128.92 C 207.71 128.05 206.98 127.38 206.11 127.42 C 205.25 127.45 204.58 128.18 204.61 129.05 Z M 204.65 130.02 L 204.70 131.00 C 204.74 131.86 205.47 132.53 206.33 132.49 C 207.20 132.45 207.87 131.72 207.83 130.86 L 207.78 129.87 C 207.74 129.01 207.01 128.34 206.15 128.38 C 205.28 128.42 204.61 129.15 204.65 130.02 Z M 204.70 131.00 L 204.75 132.01 C 204.79 132.87 205.52 133.54 206.39 133.49 C 207.25 133.45 207.92 132.72 207.88 131.85 L 207.83 130.85 C 207.79 129.98 207.05 129.32 206.19 129.36 C 205.32 129.40 204.65 130.14 204.70 131.00 Z M 204.75 132.01 L 204.80 133.03 C 204.85 133.90 205.58 134.56 206.45 134.51 C 207.31 134.47 207.98 133.73 207.93 132.86 L 207.88 131.85 C 207.83 130.98 207.09 130.32 206.23 130.36 C 205.36 130.41 204.70 131.15 204.75 132.01 Z M 204.80 133.04 L 204.86 134.07 C 204.91 134.94 205.65 135.60 206.51 135.55 C 207.38 135.50 208.04 134.76 207.99 133.89 L 207.93 132.86 C 207.89 131.99 207.14 131.33 206.28 131.38 C 205.41 131.43 204.75 132.17 204.80 133.04 Z M 204.86 134.08 L 204.91 135.04 C 204.97 135.91 205.71 136.57 206.58 136.52 C 207.44 136.47 208.10 135.72 208.05 134.86 L 207.99 133.89 C 207.94 133.02 207.20 132.36 206.33 132.41 C 205.46 132.47 204.80 133.21 204.86 134.08 Z M 204.92 135.05 L 204.98 136.01 C 205.03 136.88 205.77 137.54 206.64 137.48 C 207.51 137.43 208.16 136.68 208.11 135.82 L 208.05 134.85 C 208.00 133.99 207.25 133.33 206.38 133.38 C 205.52 133.44 204.86 134.18 204.92 135.05 Z M 204.98 136.02 L 205.04 137.00 C 205.09 137.87 205.84 138.52 206.71 138.47 C 207.57 138.41 208.23 137.67 208.17 136.80 L 208.11 135.82 C 208.05 134.95 207.31 134.29 206.44 134.35 C 205.58 134.41 204.92 135.15 204.98 136.02 Z M 205.04 137.00 L 205.10 138.00 C 205.16 138.87 205.91 139.52 206.77 139.47 C 207.64 139.41 208.29 138.67 208.24 137.80 L 208.17 136.80 C 208.12 135.93 207.37 135.28 206.50 135.33 C 205.64 135.39 204.98 136.14 205.04 137.00 Z M 205.11 138.00 L 205.17 139.03 C 205.23 139.89 205.97 140.55 206.84 140.49 C 207.70 140.43 208.36 139.69 208.30 138.82 L 208.24 137.80 C 208.18 136.94 207.43 136.28 206.57 136.34 C 205.70 136.39 205.05 137.14 205.11 138.00 Z M 205.17 139.02 L 205.24 140.07 C 205.29 140.94 206.04 141.59 206.90 141.54 C 207.77 141.48 208.42 140.74 208.37 139.87 L 208.30 138.82 C 208.25 137.96 207.50 137.30 206.64 137.36 C 205.77 137.42 205.12 138.16 205.17 139.02 Z M 205.24 140.07 L 205.30 141.05 C 205.35 141.91 206.10 142.57 206.96 142.52 C 207.83 142.46 208.49 141.72 208.43 140.85 L 208.37 139.87 C 208.32 139.01 207.57 138.35 206.71 138.41 C 205.84 138.46 205.18 139.20 205.24 140.07 Z M 205.30 141.05 L 205.36 142.04 C 205.41 142.90 206.16 143.56 207.02 143.51 C 207.89 143.46 208.55 142.71 208.49 141.84 L 208.43 140.85 C 208.38 139.99 207.63 139.33 206.77 139.38 C 205.90 139.44 205.24 140.18 205.30 141.05 Z M 205.36 142.04 L 205.42 143.04 C 205.47 143.91 206.22 144.57 207.09 144.51 C 207.95 144.46 208.61 143.71 208.56 142.84 L 208.50 141.84 C 208.44 140.98 207.70 140.32 206.83 140.37 C 205.96 140.43 205.30 141.17 205.36 142.04 Z M 205.42 143.04 L 205.48 144.05 C 205.53 144.92 206.28 145.58 207.15 145.52 C 208.02 145.47 208.68 144.72 208.62 143.85 L 208.56 142.84 C 208.51 141.97 207.76 141.32 206.89 141.37 C 206.02 141.43 205.36 142.17 205.42 143.04 Z M 205.48 144.05 L 205.54 145.06 C 205.60 145.93 206.35 146.59 207.22 146.53 C 208.09 146.48 208.75 145.73 208.69 144.86 L 208.63 143.85 C 208.57 142.98 207.82 142.32 206.95 142.38 C 206.08 142.43 205.42 143.18 205.48 144.05 Z M 205.54 145.07 L 205.61 146.07 C 205.67 146.94 206.42 147.60 207.29 147.54 C 208.16 147.48 208.82 146.73 208.76 145.86 L 208.69 144.85 C 208.64 143.98 207.88 143.32 207.01 143.38 C 206.14 143.44 205.48 144.20 205.54 145.07 Z M 205.61 146.08 L 205.68 147.08 C 205.74 147.95 206.50 148.60 207.37 148.54 C 208.24 148.48 208.90 147.72 208.83 146.85 L 208.76 145.85 C 208.70 144.98 207.95 144.32 207.07 144.39 C 206.20 144.45 205.55 145.20 205.61 146.08 Z M 205.68 147.08 L 205.75 148.08 C 205.82 148.95 206.58 149.60 207.45 149.54 C 208.32 149.47 208.98 148.71 208.91 147.84 L 208.84 146.85 C 208.77 145.97 208.01 145.32 207.14 145.38 C 206.27 145.45 205.61 146.21 205.68 147.08 Z M 205.75 148.08 L 205.83 149.07 C 205.90 149.94 206.66 150.60 207.53 150.53 C 208.41 150.46 209.06 149.70 208.99 148.82 L 208.91 147.83 C 208.84 146.96 208.08 146.31 207.21 146.38 C 206.33 146.44 205.68 147.21 205.75 148.08 Z M 205.83 149.08 L 205.91 150.06 C 205.98 150.94 206.74 151.59 207.62 151.52 C 208.49 151.45 209.14 150.68 209.07 149.80 L 208.99 148.82 C 208.92 147.94 208.15 147.29 207.28 147.36 C 206.40 147.43 205.75 148.20 205.83 149.08 Z M 205.90 150.07 L 205.99 151.06 C 206.06 151.93 206.83 152.58 207.71 152.51 C 208.58 152.44 209.23 151.67 209.16 150.79 L 209.07 149.80 C 209.00 148.92 208.23 148.27 207.36 148.35 C 206.48 148.42 205.83 149.19 205.90 150.07 Z M 205.99 151.06 L 206.07 152.06 C 206.15 152.94 206.92 153.59 207.80 153.51 C 208.68 153.44 209.32 152.66 209.25 151.79 L 209.16 150.79 C 209.08 149.91 208.31 149.26 207.44 149.34 C 206.56 149.41 205.91 150.19 205.99 151.06 Z M 206.07 152.07 L 206.16 153.08 C 206.24 153.96 207.01 154.61 207.89 154.53 C 208.77 154.45 209.42 153.67 209.34 152.80 L 209.25 151.78 C 209.17 150.91 208.40 150.26 207.52 150.34 C 206.64 150.41 205.99 151.19 206.07 152.07 Z M 206.16 153.08 L 206.25 154.03 C 206.33 154.91 207.10 155.56 207.98 155.48 C 208.86 155.40 209.51 154.62 209.43 153.74 L 209.34 152.79 C 209.26 151.92 208.48 151.27 207.61 151.35 C 206.73 151.43 206.08 152.20 206.16 153.08 Z M 206.25 154.03 L 206.33 154.99 C 206.41 155.87 207.19 156.51 208.07 156.43 C 208.95 156.35 209.59 155.58 209.51 154.70 L 209.43 153.74 C 209.35 152.86 208.57 152.22 207.69 152.30 C 206.81 152.38 206.17 153.15 206.25 154.03 Z M 206.33 154.99 L 206.42 155.96 C 206.51 156.84 207.28 157.49 208.16 157.41 C 209.04 157.33 209.69 156.55 209.60 155.67 L 209.51 154.70 C 209.43 153.82 208.65 153.17 207.78 153.25 C 206.90 153.33 206.25 154.11 206.33 154.99 Z M 206.42 155.97 L 206.52 156.96 C 206.60 157.84 207.38 158.48 208.26 158.40 C 209.13 158.32 209.78 157.54 209.70 156.66 L 209.60 155.67 C 209.52 154.79 208.74 154.14 207.87 154.23 C 206.99 154.31 206.34 155.09 206.42 155.97 Z M 206.52 156.96 L 206.61 157.97 C 206.70 158.85 207.47 159.49 208.35 159.41 C 209.23 159.33 209.88 158.55 209.79 157.67 L 209.70 156.66 C 209.61 155.78 208.84 155.13 207.96 155.22 C 207.08 155.30 206.43 156.08 206.52 156.96 Z M 206.61 157.97 L 206.71 159.00 C 206.79 159.88 207.57 160.52 208.45 160.44 C 209.33 160.35 209.98 159.57 209.89 158.70 L 209.79 157.67 C 209.71 156.79 208.93 156.14 208.05 156.23 C 207.17 156.31 206.53 157.09 206.61 157.97 Z M 206.71 159.00 L 206.81 160.05 C 206.90 160.93 207.68 161.57 208.55 161.49 C 209.43 161.40 210.08 160.62 209.99 159.74 L 209.89 158.70 C 209.81 157.82 209.03 157.17 208.15 157.26 C 207.27 157.34 206.63 158.12 206.71 159.00 Z M 206.81 160.05 L 206.90 161.02 C 206.99 161.90 207.77 162.54 208.65 162.46 C 209.53 162.37 210.17 161.59 210.09 160.71 L 209.99 159.74 C 209.91 158.87 209.13 158.22 208.25 158.31 C 207.37 158.39 206.73 159.17 206.81 160.05 Z M 206.90 161.02 L 207.00 161.98 C 207.08 162.86 207.86 163.50 208.74 163.41 C 209.62 163.33 210.26 162.55 210.18 161.67 L 210.09 160.71 C 210.00 159.83 209.22 159.19 208.34 159.27 C 207.46 159.36 206.82 160.14 206.90 161.02 Z M 207.00 161.98 L 207.09 162.95 C 207.18 163.83 207.96 164.47 208.84 164.39 C 209.72 164.30 210.36 163.52 210.27 162.64 L 210.18 161.67 C 210.09 160.79 209.31 160.15 208.43 160.23 C 207.56 160.32 206.91 161.10 207.00 161.98 Z M 207.09 162.95 L 207.19 163.94 C 207.27 164.82 208.05 165.46 208.93 165.38 C 209.81 165.29 210.46 164.51 210.37 163.63 L 210.27 162.64 C 210.19 161.76 209.41 161.12 208.53 161.21 C 207.65 161.29 207.01 162.07 207.09 162.95 Z M 207.19 163.94 L 207.28 164.94 C 207.37 165.82 208.15 166.46 209.03 166.38 C 209.91 166.29 210.55 165.51 210.47 164.63 L 210.37 163.63 C 210.28 162.75 209.50 162.11 208.62 162.19 C 207.75 162.28 207.10 163.06 207.19 163.94 Z M 207.28 164.94 L 207.38 165.95 C 207.47 166.83 208.25 167.48 209.13 167.39 C 210.01 167.31 210.65 166.52 210.56 165.65 L 210.47 164.63 C 210.38 163.75 209.60 163.11 208.72 163.19 C 207.84 163.28 207.20 164.06 207.28 164.94 Z M 207.38 165.95 L 207.48 166.98 C 207.56 167.86 208.34 168.50 209.22 168.42 C 210.10 168.33 210.75 167.55 210.66 166.67 L 210.56 165.65 C 210.48 164.77 209.70 164.12 208.82 164.21 C 207.94 164.29 207.30 165.07 207.38 165.95 Z M 207.48 166.98 L 207.58 168.01 C 207.66 168.89 208.44 169.54 209.32 169.45 C 210.20 169.37 210.85 168.59 210.76 167.71 L 210.66 166.67 C 210.58 165.79 209.80 165.15 208.92 165.23 C 208.04 165.32 207.40 166.10 207.48 166.98 Z M 207.58 168.01 L 207.67 169.01 C 207.75 169.89 208.53 170.53 209.41 170.45 C 210.29 170.37 210.94 169.59 210.86 168.71 L 210.76 167.71 C 210.68 166.83 209.90 166.19 209.02 166.27 C 208.14 166.35 207.50 167.13 207.58 168.01 Z M 207.67 169.01 L 207.76 169.99 C 207.85 170.87 208.63 171.52 209.51 171.43 C 210.38 171.35 211.03 170.57 210.95 169.69 L 210.86 168.71 C 210.77 167.83 209.99 167.18 209.11 167.26 C 208.24 167.35 207.59 168.13 207.67 169.01 Z M 207.76 169.99 L 207.86 170.98 C 207.94 171.86 208.72 172.51 209.60 172.42 C 210.48 172.34 211.12 171.56 211.04 170.68 L 210.95 169.69 C 210.87 168.81 210.09 168.17 209.21 168.25 C 208.33 168.33 207.68 169.11 207.76 169.99 Z M 207.86 170.98 L 207.95 171.98 C 208.04 172.86 208.82 173.50 209.69 173.42 C 210.57 173.34 211.22 172.56 211.13 171.68 L 211.04 170.68 C 210.96 169.80 210.18 169.16 209.30 169.24 C 208.42 169.32 207.78 170.10 207.86 170.98 Z M 207.95 171.98 L 208.05 172.98 C 208.13 173.86 208.91 174.50 209.79 174.42 C 210.67 174.33 211.31 173.55 211.23 172.68 L 211.13 171.68 C 211.05 170.80 210.27 170.15 209.39 170.24 C 208.51 170.32 207.87 171.10 207.95 171.98 Z M 208.05 172.98 L 208.15 173.98 C 208.23 174.86 209.01 175.50 209.89 175.42 C 210.77 175.33 211.41 174.55 211.33 173.67 L 211.23 172.67 C 211.14 171.79 210.36 171.15 209.48 171.24 C 208.61 171.32 207.96 172.10 208.05 172.98 Z M 208.15 173.99 L 208.25 174.99 C 208.34 175.87 209.12 176.51 210.00 176.42 C 210.87 176.33 211.51 175.55 211.43 174.67 L 211.33 173.67 C 211.24 172.79 210.46 172.15 209.58 172.24 C 208.70 172.33 208.06 173.11 208.15 173.99 Z M 208.25 174.99 L 208.35 176.00 C 208.44 176.87 209.23 177.51 210.10 177.42 C 210.98 177.33 211.62 176.55 211.53 175.67 L 211.43 174.67 C 211.34 173.79 210.55 173.15 209.67 173.24 C 208.80 173.33 208.16 174.12 208.25 174.99 Z M 208.35 176.00 L 208.46 177.00 C 208.55 177.88 209.34 178.51 210.21 178.42 C 211.09 178.33 211.73 177.54 211.63 176.66 L 211.53 175.66 C 211.43 174.79 210.65 174.15 209.77 174.24 C 208.89 174.34 208.26 175.12 208.35 176.00 Z M 208.46 177.01 L 208.57 177.99 C 208.66 178.87 209.45 179.50 210.33 179.41 C 211.21 179.31 211.84 178.52 211.74 177.65 L 211.63 176.66 C 211.54 175.78 210.75 175.15 209.87 175.24 C 209.00 175.34 208.36 176.13 208.46 177.01 Z M 208.57 178.00 L 208.68 178.99 C 208.78 179.86 209.57 180.49 210.45 180.39 C 211.32 180.29 211.95 179.50 211.85 178.63 L 211.74 177.64 C 211.64 176.76 210.85 176.13 209.98 176.23 C 209.10 176.33 208.47 177.12 208.57 178.00 Z M 208.68 178.99 L 208.80 179.98 C 208.90 180.85 209.69 181.48 210.56 181.38 C 211.44 181.28 212.07 180.48 211.97 179.61 L 211.85 178.62 C 211.75 177.75 210.96 177.12 210.08 177.22 C 209.21 177.32 208.58 178.11 208.68 178.99 Z M 208.80 179.98 L 208.91 180.97 C 209.02 181.84 209.81 182.47 210.68 182.37 C 211.56 182.26 212.19 181.47 212.08 180.59 L 211.97 179.61 C 211.86 178.73 211.07 178.10 210.19 178.21 C 209.32 178.31 208.69 179.10 208.80 179.98 Z M 208.91 180.97 L 209.03 181.96 C 209.14 182.83 209.93 183.46 210.81 183.35 C 211.68 183.25 212.31 182.45 212.20 181.58 L 212.08 180.59 C 211.98 179.72 211.18 179.09 210.31 179.20 C 209.43 179.30 208.81 180.09 208.91 180.97 Z M 209.03 181.96 L 209.15 182.95 C 209.26 183.83 210.05 184.45 210.93 184.35 C 211.80 184.24 212.43 183.45 212.32 182.57 L 212.20 181.58 C 212.09 180.70 211.30 180.08 210.42 180.19 C 209.55 180.29 208.93 181.09 209.03 181.96 Z M 209.15 182.95 L 209.27 183.95 C 209.38 184.83 210.17 185.45 211.05 185.34 C 211.92 185.24 212.55 184.44 212.44 183.57 L 212.32 182.57 C 212.21 181.70 211.42 181.07 210.54 181.18 C 209.67 181.28 209.05 182.08 209.15 182.95 Z M 209.27 183.95 L 209.39 184.96 C 209.50 185.83 210.30 186.46 211.17 186.35 C 212.04 186.24 212.67 185.45 212.56 184.57 L 212.44 183.57 C 212.33 182.69 211.54 182.07 210.66 182.18 C 209.79 182.28 209.17 183.08 209.27 183.95 Z M 209.39 184.96 L 209.52 185.97 C 209.62 186.84 210.42 187.47 211.29 187.36 C 212.17 187.26 212.79 186.46 212.68 185.59 L 212.56 184.57 C 212.46 183.70 211.66 183.08 210.79 183.18 C 209.91 183.29 209.29 184.08 209.39 184.96 Z M 209.52 185.97 L 209.64 186.98 C 209.74 187.86 210.54 188.48 211.41 188.38 C 212.29 188.27 212.91 187.48 212.81 186.60 L 212.68 185.59 C 212.58 184.71 211.79 184.09 210.91 184.19 C 210.04 184.30 209.41 185.09 209.52 185.97 Z M 209.64 186.98 L 209.76 188.00 C 209.86 188.88 210.66 189.50 211.53 189.40 C 212.41 189.29 213.03 188.50 212.93 187.63 L 212.81 186.61 C 212.70 185.73 211.91 185.11 211.03 185.21 C 210.16 185.31 209.53 186.11 209.64 186.98 Z M 209.76 188.00 L 209.88 189.02 C 209.98 189.89 210.77 190.52 211.65 190.41 C 212.52 190.31 213.15 189.52 213.05 188.64 L 212.93 187.63 C 212.82 186.75 212.03 186.13 211.16 186.23 C 210.28 186.33 209.65 187.12 209.76 188.00 Z M 209.88 189.02 L 210.00 190.03 C 210.10 190.90 210.89 191.53 211.77 191.43 C 212.64 191.32 213.27 190.53 213.17 189.66 L 213.05 188.64 C 212.94 187.77 212.15 187.14 211.28 187.25 C 210.40 187.35 209.78 188.14 209.88 189.02 Z M 210.00 190.03 L 210.11 191.03 C 210.22 191.90 211.01 192.53 211.88 192.43 C 212.76 192.33 213.38 191.53 213.28 190.66 L 213.17 189.66 C 213.06 188.78 212.27 188.16 211.40 188.26 C 210.52 188.36 209.89 189.15 210.00 190.03 Z M 210.11 191.03 L 210.23 192.01 C 210.33 192.89 211.12 193.51 212.00 193.41 C 212.87 193.31 213.50 192.52 213.40 191.64 L 213.28 190.66 C 213.18 189.78 212.39 189.16 211.51 189.26 C 210.64 189.36 210.01 190.15 210.11 191.03 Z M 210.23 192.01 L 210.34 192.98 C 210.44 193.85 211.23 194.48 212.11 194.38 C 212.98 194.28 213.61 193.49 213.51 192.61 L 213.40 191.65 C 213.30 190.77 212.50 190.14 211.63 190.24 C 210.75 190.35 210.13 191.14 210.23 192.01 Z M 210.34 192.98 L 210.45 193.92 C 210.55 194.80 211.34 195.42 212.22 195.32 C 213.09 195.22 213.72 194.43 213.62 193.55 L 213.51 192.61 C 213.41 191.74 212.62 191.11 211.74 191.21 C 210.87 191.31 210.24 192.10 210.34 192.98 Z M 210.45 193.92 L 210.57 194.95 C 210.67 195.82 211.46 196.45 212.34 196.35 C 213.21 196.25 213.84 195.46 213.74 194.58 L 213.62 193.55 C 213.52 192.68 212.73 192.05 211.85 192.15 C 210.98 192.25 210.35 193.05 210.45 193.92 Z M 210.57 194.95 L 210.69 196.00 C 210.79 196.87 211.58 197.50 212.46 197.40 C 213.33 197.30 213.96 196.51 213.86 195.63 L 213.74 194.58 C 213.64 193.71 212.84 193.08 211.97 193.18 C 211.09 193.28 210.47 194.07 210.57 194.95 Z M 210.69 196.00 L 210.81 197.01 C 210.91 197.89 211.70 198.52 212.57 198.41 C 213.45 198.31 214.08 197.52 213.98 196.65 L 213.86 195.63 C 213.76 194.76 212.97 194.13 212.09 194.23 C 211.22 194.33 210.59 195.12 210.69 196.00 Z M 210.81 197.01 L 210.92 198.00 C 211.02 198.88 211.81 199.51 212.69 199.41 C 213.56 199.30 214.19 198.51 214.09 197.64 L 213.98 196.65 C 213.87 195.77 213.08 195.15 212.21 195.25 C 211.33 195.35 210.71 196.14 210.81 197.01 Z M 210.92 198.00 L 211.03 198.97 C 211.13 199.85 211.92 200.48 212.80 200.38 C 213.67 200.28 214.30 199.49 214.20 198.61 L 214.09 197.64 C 213.99 196.76 213.20 196.14 212.32 196.24 C 211.45 196.34 210.82 197.13 210.92 198.00 Z M 211.03 198.97 L 211.14 199.93 C 211.24 200.81 212.03 201.44 212.91 201.33 C 213.78 201.23 214.41 200.44 214.31 199.57 L 214.20 198.61 C 214.10 197.74 213.31 197.11 212.43 197.21 C 211.56 197.31 210.93 198.10 211.03 198.97 Z M 211.14 199.93 L 211.25 200.88 C 211.35 201.76 212.14 202.38 213.02 202.28 C 213.89 202.18 214.52 201.39 214.42 200.52 L 214.31 199.57 C 214.21 198.69 213.42 198.07 212.55 198.17 C 211.67 198.27 211.04 199.06 211.14 199.93 Z M 211.25 200.88 L 211.36 201.84 C 211.46 202.72 212.25 203.35 213.13 203.25 C 214.00 203.15 214.63 202.35 214.53 201.48 L 214.42 200.52 C 214.32 199.64 213.53 199.02 212.65 199.12 C 211.78 199.22 211.15 200.01 211.25 200.88 Z M 211.36 201.84 L 211.47 202.83 C 211.57 203.71 212.36 204.33 213.24 204.23 C 214.11 204.14 214.74 203.35 214.64 202.47 L 214.53 201.48 C 214.43 200.61 213.64 199.98 212.77 200.08 C 211.89 200.18 211.26 200.97 211.36 201.84 Z M 211.47 202.83 L 211.59 203.82 C 211.68 204.70 212.47 205.32 213.35 205.23 C 214.22 205.13 214.85 204.34 214.75 203.46 L 214.64 202.47 C 214.54 201.60 213.75 200.97 212.88 201.07 C 212.01 201.17 211.38 201.95 211.47 202.83 Z M 211.59 203.82 L 211.70 204.81 C 211.79 205.69 212.58 206.32 213.45 206.22 C 214.33 206.12 214.96 205.34 214.86 204.46 L 214.75 203.47 C 214.66 202.59 213.87 201.96 212.99 202.06 C 212.12 202.16 211.49 202.94 211.59 203.82 Z M 211.70 204.81 L 211.80 205.80 C 211.90 206.68 212.68 207.31 213.56 207.22 C 214.43 207.12 215.06 206.34 214.97 205.46 L 214.86 204.47 C 214.77 203.59 213.98 202.96 213.11 203.05 C 212.23 203.15 211.60 203.93 211.70 204.81 Z M 211.80 205.80 L 211.91 206.79 C 212.00 207.67 212.78 208.30 213.66 208.21 C 214.53 208.12 215.16 207.34 215.07 206.46 L 214.97 205.47 C 214.88 204.59 214.10 203.96 213.22 204.05 C 212.35 204.14 211.71 204.92 211.80 205.80 Z M 211.91 206.79 L 212.01 207.78 C 212.10 208.66 212.88 209.30 213.75 209.21 C 214.62 209.12 215.26 208.34 215.17 207.47 L 215.07 206.47 C 214.99 205.60 214.21 204.96 213.33 205.05 C 212.46 205.13 211.82 205.91 211.91 206.79 Z M 212.01 207.78 L 212.10 208.78 C 212.19 209.65 212.96 210.29 213.84 210.21 C 214.71 210.12 215.35 209.35 215.27 208.47 L 215.17 207.47 C 215.09 206.60 214.31 205.96 213.44 206.04 C 212.57 206.13 211.92 206.90 212.01 207.78 Z M 212.10 208.77 L 212.19 209.77 C 212.27 210.65 213.05 211.29 213.92 211.21 C 214.79 211.14 215.44 210.36 215.36 209.49 L 215.27 208.48 C 215.19 207.61 214.42 206.96 213.54 207.04 C 212.67 207.12 212.02 207.89 212.10 208.77 Z M 212.20 209.77 L 212.28 210.77 C 212.36 211.65 213.12 212.29 214.00 212.22 C 214.87 212.14 215.52 211.37 215.44 210.50 L 215.36 209.50 C 215.28 208.62 214.52 207.98 213.64 208.05 C 212.77 208.12 212.12 208.89 212.20 209.77 Z M 212.28 210.76 L 212.36 211.77 C 212.43 212.64 213.20 213.29 214.07 213.22 C 214.95 213.15 215.60 212.38 215.53 211.51 L 215.44 210.51 C 215.37 209.63 214.61 208.98 213.73 209.06 C 212.86 209.13 212.21 209.89 212.28 210.76 Z M 212.36 211.76 L 212.44 212.76 C 212.51 213.63 213.27 214.28 214.14 214.22 C 215.02 214.15 215.67 213.39 215.60 212.51 L 215.52 211.52 C 215.46 210.64 214.69 209.99 213.82 210.06 C 212.95 210.13 212.30 210.89 212.36 211.76 Z M 212.44 212.75 L 212.52 213.75 C 212.58 214.62 213.34 215.27 214.21 215.21 C 215.08 215.14 215.74 214.38 215.67 213.51 L 215.60 212.52 C 215.54 211.65 214.78 210.99 213.90 211.06 C 213.03 211.12 212.38 211.88 212.44 212.75 Z M 212.52 213.74 L 212.59 214.73 C 212.65 215.60 213.41 216.26 214.28 216.19 C 215.15 216.13 215.81 215.38 215.74 214.50 L 215.67 213.52 C 215.61 212.65 214.85 211.99 213.98 212.05 C 213.11 212.11 212.46 212.87 212.52 213.74 Z M 212.59 214.72 L 212.66 215.72 C 212.72 216.59 213.47 217.25 214.34 217.19 C 215.21 217.13 215.87 216.37 215.81 215.50 L 215.74 214.51 C 215.68 213.64 214.93 212.98 214.06 213.04 C 213.19 213.10 212.53 213.85 212.59 214.72 Z M 212.66 215.72 L 212.72 216.74 C 212.78 217.61 213.53 218.27 214.41 218.22 C 215.28 218.16 215.93 217.41 215.88 216.54 L 215.81 215.51 C 215.75 214.64 215.00 213.98 214.13 214.04 C 213.26 214.09 212.60 214.84 212.66 215.72 Z M 212.73 216.74 L 212.79 217.76 C 212.84 218.63 213.59 219.29 214.46 219.23 C 215.33 219.18 216.00 218.43 215.94 217.56 L 215.88 216.54 C 215.82 215.67 215.07 215.01 214.20 215.06 C 213.33 215.12 212.67 215.87 212.73 216.74 Z M 212.79 217.75 L 212.85 218.76 C 212.90 219.63 213.65 220.29 214.52 220.24 C 215.39 220.19 216.05 219.44 216.00 218.57 L 215.94 217.56 C 215.89 216.69 215.14 216.03 214.27 216.08 C 213.40 216.13 212.74 216.88 212.79 217.75 Z M 212.85 218.75 L 212.91 219.74 C 212.96 220.61 213.70 221.28 214.57 221.23 C 215.44 221.18 216.10 220.44 216.05 219.57 L 216.00 218.57 C 215.95 217.71 215.21 217.04 214.34 217.09 C 213.47 217.14 212.80 217.88 212.85 218.75 Z M 212.91 219.74 L 212.96 220.72 C 213.00 221.59 213.74 222.26 214.61 222.21 C 215.48 222.17 216.15 221.43 216.10 220.56 L 216.05 219.58 C 216.01 218.71 215.27 218.04 214.40 218.08 C 213.53 218.13 212.86 218.87 212.91 219.74 Z M 212.96 220.71 L 213.00 221.68 C 213.04 222.55 213.78 223.22 214.65 223.18 C 215.52 223.14 216.19 222.40 216.15 221.53 L 216.10 220.56 C 216.06 219.70 215.33 219.02 214.46 219.07 C 213.59 219.11 212.92 219.84 212.96 220.71 Z M 213.00 221.67 L 213.05 222.68 C 213.08 223.55 213.81 224.22 214.68 224.19 C 215.55 224.15 216.22 223.42 216.19 222.55 L 216.15 221.54 C 216.11 220.67 215.38 220.00 214.51 220.03 C 213.64 220.07 212.97 220.80 213.00 221.67 Z M 213.05 222.67 L 213.08 223.70 C 213.11 224.56 213.84 225.24 214.71 225.21 C 215.58 225.18 216.25 224.45 216.22 223.58 L 216.19 222.56 C 216.16 221.69 215.43 221.02 214.56 221.05 C 213.70 221.08 213.02 221.80 213.05 222.67 Z M 213.09 223.69 L 213.12 224.70 C 213.14 225.56 213.87 226.24 214.73 226.22 C 215.60 226.19 216.28 225.47 216.25 224.60 L 216.22 223.59 C 216.20 222.73 215.47 222.04 214.61 222.07 C 213.74 222.10 213.06 222.82 213.09 223.69 Z M 213.12 224.69 L 213.15 225.69 C 213.17 226.55 213.89 227.23 214.75 227.21 C 215.62 227.19 216.30 226.47 216.28 225.60 L 216.25 224.61 C 216.23 223.74 215.51 223.06 214.64 223.08 C 213.78 223.10 213.09 223.83 213.12 224.69 Z M 213.15 225.68 L 213.17 226.66 C 213.19 227.53 213.91 228.21 214.77 228.19 C 215.64 228.17 216.32 227.45 216.30 226.59 L 216.28 225.60 C 216.26 224.74 215.54 224.06 214.67 224.08 C 213.81 224.10 213.13 224.82 213.15 225.68 Z M 213.17 226.66 L 213.20 227.64 C 213.22 228.50 213.93 229.18 214.79 229.16 C 215.66 229.14 216.34 228.43 216.32 227.56 L 216.30 226.59 C 216.28 225.73 215.56 225.04 214.70 225.06 C 213.84 225.08 213.15 225.80 213.17 226.66 Z M 213.20 227.64 L 213.22 228.62 C 213.24 229.48 213.95 230.16 214.82 230.14 C 215.68 230.12 216.36 229.41 216.34 228.55 L 216.32 227.56 C 216.30 226.70 215.59 226.02 214.72 226.04 C 213.86 226.06 213.18 226.77 213.20 227.64 Z M 213.22 228.62 L 213.24 229.60 C 213.26 230.47 213.98 231.15 214.84 231.13 C 215.70 231.11 216.38 230.40 216.36 229.53 L 216.34 228.55 C 216.32 227.68 215.61 227.00 214.75 227.02 C 213.88 227.04 213.20 227.75 213.22 228.62 Z M 213.24 229.60 L 213.26 230.59 C 213.28 231.45 213.99 232.14 214.86 232.12 C 215.72 232.10 216.40 231.39 216.39 230.52 L 216.36 229.54 C 216.35 228.67 215.63 227.99 214.77 228.01 C 213.91 228.03 213.22 228.74 213.24 229.60 Z M 213.26 230.59 L 213.28 231.58 C 213.30 232.44 214.01 233.13 214.87 233.11 C 215.74 233.10 216.42 232.38 216.40 231.52 L 216.39 230.53 C 216.37 229.66 215.66 228.98 214.79 229.00 C 213.93 229.01 213.25 229.73 213.26 230.59 Z M 213.28 231.58 L 213.30 232.58 C 213.31 233.45 214.02 234.13 214.89 234.12 C 215.75 234.10 216.44 233.39 216.42 232.53 L 216.40 231.53 C 216.39 230.66 215.68 229.98 214.82 229.99 C 213.95 230.00 213.27 230.72 213.28 231.58 Z M 213.30 232.58 L 213.31 233.60 C 213.32 234.46 214.03 235.15 214.90 235.14 C 215.76 235.13 216.45 234.42 216.44 233.56 L 216.42 232.54 C 216.41 231.67 215.70 230.98 214.84 231.00 C 213.98 231.01 213.29 231.72 213.30 232.58 Z M 213.31 233.59 L 213.32 234.61 C 213.33 235.47 214.04 236.16 214.90 236.15 C 215.76 236.14 216.45 235.44 216.44 234.58 L 216.44 233.56 C 216.43 232.70 215.72 232.01 214.86 232.02 C 214.00 232.03 213.30 232.73 213.31 233.59 Z M 213.32 234.60 L 213.33 235.61 C 213.33 236.47 214.03 237.17 214.89 237.17 C 215.75 237.17 216.45 236.47 216.45 235.61 L 216.44 234.59 C 216.44 233.73 215.74 233.03 214.88 233.03 C 214.02 233.03 213.32 233.73 213.32 234.60 Z M 213.33 235.59 L 213.32 236.61 C 213.31 237.48 214.00 238.18 214.86 238.19 C 215.73 238.20 216.43 237.51 216.44 236.64 L 216.45 235.62 C 216.46 234.76 215.76 234.06 214.90 234.05 C 214.04 234.04 213.33 234.73 213.33 235.59 Z M 213.32 236.59 L 213.29 237.60 C 213.27 238.46 213.95 239.18 214.81 239.20 C 215.67 239.22 216.39 238.54 216.41 237.68 L 216.44 236.67 C 216.46 235.81 215.78 235.09 214.92 235.07 C 214.05 235.05 213.34 235.73 213.32 236.59 Z M 213.29 237.57 L 213.25 238.56 C 213.20 239.42 213.87 240.15 214.73 240.20 C 215.59 240.24 216.32 239.57 216.36 238.71 L 216.41 237.71 C 216.45 236.85 215.79 236.12 214.92 236.08 C 214.06 236.04 213.33 236.71 213.29 237.57 Z M 213.25 238.52 L 213.18 239.48 C 213.11 240.34 213.76 241.09 214.62 241.16 C 215.48 241.22 216.22 240.58 216.29 239.72 L 216.36 238.75 C 216.43 237.89 215.78 237.14 214.92 237.08 C 214.06 237.01 213.31 237.66 213.25 238.52 Z M 213.18 239.43 L 213.06 240.47 C 212.97 241.32 213.58 242.10 214.44 242.19 C 215.30 242.29 216.07 241.67 216.17 240.82 L 216.28 239.78 C 216.38 238.92 215.76 238.15 214.91 238.05 C 214.05 237.95 213.28 238.57 213.18 239.43 Z M 213.07 240.40 L 212.91 241.44 C 212.77 242.30 213.35 243.10 214.20 243.23 C 215.05 243.37 215.85 242.79 215.99 241.94 L 216.16 240.89 C 216.29 240.04 215.71 239.24 214.86 239.10 C 214.01 238.97 213.21 239.55 213.07 240.40 Z M 212.92 241.37 L 212.71 242.36 C 212.54 243.21 213.08 244.03 213.92 244.21 C 214.76 244.39 215.59 243.85 215.77 243.00 L 215.98 242.01 C 216.15 241.17 215.61 240.34 214.77 240.16 C 213.92 239.99 213.10 240.53 212.92 241.37 Z M 212.73 242.29 L 212.48 243.23 C 212.27 244.06 212.77 244.91 213.60 245.13 C 214.43 245.35 215.29 244.85 215.50 244.02 L 215.75 243.08 C 215.97 242.24 215.47 241.39 214.64 241.17 C 213.80 240.95 212.95 241.45 212.73 242.29 Z M 212.51 243.15 L 212.23 244.04 C 211.97 244.86 212.42 245.74 213.24 246.00 C 214.07 246.26 214.94 245.80 215.20 244.98 L 215.48 244.09 C 215.74 243.27 215.29 242.39 214.46 242.13 C 213.64 241.87 212.76 242.33 212.51 243.15 Z M 212.25 243.96 L 211.90 244.91 C 211.60 245.72 212.00 246.61 212.81 246.92 C 213.62 247.22 214.52 246.81 214.82 246.00 L 215.18 245.06 C 215.48 244.25 215.07 243.35 214.26 243.05 C 213.45 242.74 212.55 243.15 212.25 243.96 Z M 211.93 244.82 L 211.50 245.79 C 211.15 246.58 211.51 247.50 212.30 247.85 C 213.09 248.20 214.01 247.85 214.36 247.06 L 214.79 246.09 C 215.14 245.30 214.78 244.38 213.99 244.03 C 213.20 243.68 212.28 244.03 211.93 244.82 Z M 211.55 245.70 L 211.08 246.59 C 210.68 247.36 210.98 248.30 211.74 248.70 C 212.51 249.10 213.45 248.80 213.85 248.04 L 214.31 247.15 C 214.71 246.38 214.42 245.44 213.65 245.04 C 212.89 244.64 211.95 244.94 211.55 245.70 Z M 211.13 246.50 L 210.64 247.31 C 210.19 248.04 210.42 249.00 211.16 249.45 C 211.89 249.90 212.86 249.67 213.31 248.93 L 213.80 248.13 C 214.25 247.39 214.02 246.43 213.28 245.98 C 212.54 245.53 211.58 245.76 211.13 246.50 Z M 210.71 247.21 L 210.14 247.99 C 209.63 248.69 209.79 249.67 210.49 250.17 C 211.19 250.68 212.16 250.52 212.67 249.82 L 213.24 249.03 C 213.74 248.34 213.59 247.36 212.89 246.85 C 212.19 246.35 211.21 246.51 210.71 247.21 Z M 210.23 247.88 L 209.55 248.65 C 208.98 249.29 209.04 250.28 209.69 250.85 C 210.34 251.42 211.32 251.36 211.89 250.71 L 212.57 249.94 C 213.14 249.29 213.08 248.31 212.44 247.74 C 211.79 247.17 210.80 247.23 210.23 247.88 Z M 209.68 248.52 L 208.95 249.18 C 208.31 249.75 208.27 250.74 208.84 251.38 C 209.42 252.02 210.41 252.07 211.05 251.49 L 211.77 250.84 C 212.41 250.26 212.46 249.27 211.88 248.63 C 211.30 247.99 210.31 247.94 209.68 248.52 Z M 209.09 249.07 L 208.32 249.62 C 207.62 250.13 207.46 251.10 207.96 251.80 C 208.47 252.50 209.44 252.66 210.14 252.16 L 210.91 251.60 C 211.61 251.09 211.77 250.12 211.27 249.42 C 210.76 248.72 209.79 248.56 209.09 249.07 Z M 208.45 249.54 L 207.62 250.02 C 206.88 250.45 206.62 251.40 207.05 252.15 C 207.48 252.89 208.44 253.15 209.18 252.72 L 210.01 252.24 C 210.76 251.81 211.01 250.85 210.58 250.11 C 210.15 249.36 209.19 249.11 208.45 249.54 Z M 207.75 249.95 L 206.85 250.37 C 206.07 250.73 205.73 251.66 206.09 252.44 C 206.45 253.22 207.38 253.56 208.16 253.20 L 209.06 252.78 C 209.84 252.42 210.18 251.49 209.82 250.71 C 209.46 249.93 208.53 249.59 207.75 249.95 Z M 206.96 250.32 L 205.97 250.69 C 205.17 250.99 204.76 251.89 205.06 252.70 C 205.36 253.51 206.26 253.92 207.07 253.61 L 208.05 253.25 C 208.86 252.94 209.27 252.04 208.97 251.24 C 208.66 250.43 207.77 250.02 206.96 250.32 Z M 206.06 250.66 L 205.14 250.94 C 204.31 251.20 203.85 252.07 204.11 252.90 C 204.36 253.72 205.24 254.18 206.06 253.93 L 206.98 253.64 C 207.81 253.39 208.27 252.52 208.01 251.69 C 207.76 250.87 206.88 250.41 206.06 250.66 Z M 205.21 250.92 L 204.26 251.17 C 203.42 251.38 202.92 252.23 203.13 253.06 C 203.34 253.90 204.19 254.40 205.03 254.19 L 205.98 253.95 C 206.82 253.74 207.32 252.89 207.11 252.05 C 206.90 251.21 206.05 250.71 205.21 250.92 Z M 204.34 251.15 L 203.34 251.35 C 202.49 251.52 201.95 252.34 202.12 253.19 C 202.29 254.03 203.11 254.58 203.96 254.41 L 204.95 254.21 C 205.80 254.04 206.35 253.22 206.18 252.37 C 206.00 251.52 205.18 250.98 204.34 251.15 Z M 203.42 251.34 L 202.39 251.49 C 201.54 251.61 200.95 252.41 201.07 253.26 C 201.20 254.11 201.99 254.70 202.84 254.58 L 203.87 254.43 C 204.73 254.30 205.32 253.51 205.19 252.65 C 205.07 251.80 204.27 251.21 203.42 251.34 Z M 202.47 251.48 L 201.50 251.57 C 200.64 251.65 200.01 252.41 200.09 253.27 C 200.17 254.12 200.93 254.76 201.78 254.68 L 202.76 254.59 C 203.62 254.51 204.25 253.75 204.17 252.89 C 204.09 252.03 203.33 251.40 202.47 251.48 Z M 201.57 251.56 L 200.58 251.61 C 199.72 251.65 199.06 252.38 199.10 253.24 C 199.14 254.11 199.87 254.77 200.73 254.73 L 201.72 254.68 C 202.58 254.64 203.24 253.91 203.20 253.05 C 203.16 252.19 202.43 251.52 201.57 251.56 Z M 200.63 251.61 L 199.63 251.62 C 198.77 251.64 198.08 252.35 198.09 253.21 C 198.11 254.07 198.82 254.76 199.68 254.75 L 200.68 254.73 C 201.54 254.72 202.23 254.01 202.22 253.14 C 202.20 252.28 201.49 251.59 200.63 251.61 Z M 199.66 251.62 L 198.64 251.62 C 197.78 251.62 197.07 252.31 197.07 253.17 C 197.07 254.04 197.76 254.74 198.62 254.74 L 199.65 254.75 C 200.51 254.75 201.21 254.06 201.21 253.19 C 201.22 252.33 200.52 251.63 199.66 251.62 Z M 198.66 251.62 L 197.74 251.60 C 196.87 251.59 196.16 252.28 196.15 253.14 C 196.14 254.00 196.82 254.71 197.69 254.73 L 198.61 254.74 C 199.47 254.76 200.18 254.07 200.19 253.21 C 200.21 252.34 199.52 251.63 198.66 251.62 Z M 197.76 251.61 L 196.88 251.58 C 196.02 251.55 195.30 252.22 195.27 253.09 C 195.24 253.95 195.92 254.67 196.78 254.70 L 197.66 254.73 C 198.52 254.75 199.24 254.08 199.27 253.22 C 199.30 252.36 198.62 251.63 197.76 251.61 Z M 196.93 251.58 L 195.99 251.52 C 195.13 251.46 194.39 252.12 194.34 252.98 C 194.28 253.84 194.93 254.58 195.79 254.63 L 196.73 254.69 C 197.59 254.75 198.33 254.10 198.39 253.24 C 198.44 252.38 197.79 251.63 196.93 251.58 Z M 196.06 251.52 L 195.05 251.42 C 194.19 251.33 193.42 251.95 193.33 252.81 C 193.24 253.67 193.86 254.43 194.72 254.52 L 195.73 254.63 C 196.59 254.72 197.36 254.10 197.45 253.24 C 197.54 252.38 196.91 251.61 196.06 251.52 Z M 195.12 251.43 L 194.01 251.26 C 193.16 251.13 192.36 251.72 192.23 252.57 C 192.10 253.42 192.69 254.22 193.54 254.35 L 194.65 254.51 C 195.50 254.64 196.30 254.06 196.43 253.21 C 196.56 252.35 195.97 251.56 195.12 251.43 Z M 194.08 251.27 L 192.99 251.06 C 192.14 250.89 191.32 251.44 191.15 252.29 C 190.99 253.13 191.54 253.95 192.38 254.12 L 193.47 254.33 C 194.32 254.50 195.14 253.95 195.31 253.10 C 195.47 252.26 194.92 251.44 194.08 251.27 Z M 193.04 251.07 L 192.07 250.84 C 191.23 250.65 190.39 251.17 190.20 252.01 C 190.00 252.85 190.53 253.69 191.37 253.88 L 192.33 254.11 C 193.17 254.30 194.01 253.78 194.21 252.94 C 194.40 252.10 193.88 251.26 193.04 251.07 Z M 192.11 250.85 L 191.10 250.59 C 190.27 250.38 189.42 250.88 189.20 251.72 C 188.99 252.56 189.49 253.41 190.33 253.62 L 191.33 253.88 C 192.17 254.09 193.02 253.59 193.23 252.75 C 193.45 251.92 192.94 251.06 192.11 250.85 Z M 191.13 250.60 L 190.11 250.32 C 189.28 250.09 188.42 250.58 188.19 251.41 C 187.97 252.24 188.45 253.10 189.29 253.33 L 190.30 253.61 C 191.13 253.84 191.99 253.35 192.22 252.52 C 192.45 251.69 191.96 250.83 191.13 250.60 Z M 190.14 250.33 L 189.13 250.03 C 188.30 249.79 187.43 250.27 187.19 251.10 C 186.95 251.93 187.43 252.79 188.26 253.03 L 189.26 253.33 C 190.09 253.57 190.96 253.09 191.20 252.26 C 191.44 251.44 190.96 250.57 190.14 250.33 Z M 189.15 250.04 L 188.18 249.74 C 187.35 249.49 186.48 249.96 186.23 250.78 C 185.97 251.61 186.44 252.48 187.26 252.73 L 188.24 253.03 C 189.06 253.28 189.93 252.81 190.19 251.99 C 190.44 251.16 189.97 250.29 189.15 250.04 Z M 188.19 249.75 L 187.28 249.46 C 186.46 249.20 185.58 249.65 185.32 250.47 C 185.06 251.30 185.51 252.17 186.33 252.43 L 187.25 252.73 C 188.07 252.99 188.95 252.53 189.21 251.71 C 189.47 250.89 189.01 250.01 188.19 249.75 Z M 187.30 249.47 L 186.34 249.15 C 185.52 248.88 184.64 249.32 184.37 250.14 C 184.10 250.96 184.54 251.84 185.36 252.11 L 186.32 252.43 C 187.13 252.70 188.02 252.26 188.29 251.44 C 188.56 250.62 188.12 249.74 187.30 249.47 Z M 186.36 249.16 L 185.23 248.76 C 184.42 248.48 183.53 248.90 183.24 249.72 C 182.96 250.53 183.39 251.42 184.20 251.71 L 185.33 252.10 C 186.15 252.39 187.04 251.96 187.32 251.15 C 187.61 250.33 187.18 249.44 186.36 249.16 Z M 185.27 248.77 L 184.32 248.42 C 183.51 248.12 182.61 248.53 182.31 249.33 C 182.01 250.14 182.42 251.04 183.23 251.34 L 184.17 251.70 C 184.98 252.00 185.88 251.59 186.18 250.78 C 186.48 249.97 186.07 249.07 185.27 248.77 Z M 184.35 248.43 L 183.52 248.10 C 182.72 247.78 181.81 248.18 181.50 248.98 C 181.18 249.78 181.57 250.69 182.37 251.00 L 183.20 251.33 C 184.00 251.65 184.91 251.26 185.22 250.46 C 185.54 249.65 185.15 248.75 184.35 248.43 Z M 183.54 248.11 L 182.77 247.79 C 181.97 247.47 181.06 247.85 180.73 248.64 C 180.40 249.44 180.79 250.35 181.58 250.68 L 182.36 251.00 C 183.15 251.32 184.07 250.94 184.39 250.14 C 184.72 249.35 184.34 248.44 183.54 248.11 Z M 182.77 247.79 L 181.90 247.44 C 181.10 247.11 180.19 247.49 179.86 248.29 C 179.54 249.08 179.92 249.99 180.71 250.32 L 181.58 250.68 C 182.38 251.01 183.29 250.63 183.62 249.83 C 183.95 249.03 183.57 248.12 182.77 247.79 Z M 181.90 247.44 L 181.00 247.06 C 180.20 246.73 179.29 247.11 178.96 247.91 C 178.63 248.70 179.01 249.62 179.80 249.95 L 180.71 250.32 C 181.51 250.65 182.42 250.27 182.75 249.48 C 183.08 248.68 182.70 247.77 181.90 247.44 Z M 181.01 247.07 L 180.07 246.67 C 179.28 246.34 178.36 246.71 178.03 247.51 C 177.69 248.30 178.07 249.22 178.86 249.55 L 179.80 249.94 C 180.59 250.28 181.51 249.90 181.84 249.11 C 182.17 248.31 181.80 247.40 181.01 247.07 Z M 180.09 246.68 L 179.13 246.26 C 178.33 245.92 177.42 246.29 177.07 247.08 C 176.73 247.87 177.10 248.79 177.89 249.13 L 178.85 249.55 C 179.64 249.89 180.56 249.52 180.90 248.73 C 181.24 247.94 180.88 247.02 180.09 246.68 Z M 179.14 246.27 L 178.26 245.88 C 177.47 245.53 176.54 245.88 176.19 246.67 C 175.84 247.46 176.20 248.38 176.99 248.73 L 177.87 249.12 C 178.66 249.47 179.58 249.12 179.93 248.33 C 180.28 247.54 179.93 246.62 179.14 246.27 Z M 178.27 245.88 L 177.37 245.47 C 176.58 245.11 175.66 245.46 175.30 246.24 C 174.94 247.03 175.28 247.95 176.07 248.31 L 176.97 248.72 C 177.76 249.08 178.68 248.74 179.04 247.95 C 179.40 247.17 179.05 246.24 178.27 245.88 Z M 177.38 245.48 L 176.46 245.05 C 175.68 244.68 174.75 245.02 174.39 245.80 C 174.02 246.58 174.36 247.51 175.14 247.88 L 176.06 248.30 C 176.84 248.67 177.77 248.33 178.13 247.55 C 178.50 246.77 178.16 245.84 177.38 245.48 Z M 176.48 245.05 L 175.55 244.61 C 174.78 244.24 173.84 244.57 173.47 245.35 C 173.10 246.13 173.43 247.06 174.21 247.43 L 175.13 247.87 C 175.91 248.24 176.84 247.91 177.21 247.13 C 177.58 246.36 177.25 245.42 176.48 245.05 Z M 175.56 244.62 L 174.67 244.18 C 173.89 243.81 172.96 244.13 172.58 244.91 C 172.21 245.68 172.53 246.62 173.30 246.99 L 174.20 247.43 C 174.98 247.80 175.91 247.48 176.29 246.70 C 176.66 245.93 176.34 245.00 175.56 244.62 Z M 174.68 244.19 L 173.79 243.75 C 173.02 243.37 172.08 243.68 171.70 244.46 C 171.32 245.23 171.64 246.17 172.41 246.55 L 173.29 246.99 C 174.07 247.37 175.00 247.05 175.38 246.28 C 175.77 245.51 175.45 244.57 174.68 244.19 Z M 173.81 243.76 L 172.92 243.31 C 172.15 242.92 171.21 243.22 170.82 243.99 C 170.43 244.76 170.74 245.70 171.50 246.09 L 172.39 246.54 C 173.16 246.93 174.10 246.63 174.49 245.86 C 174.88 245.09 174.58 244.15 173.81 243.76 Z M 172.94 243.32 L 172.05 242.85 C 171.29 242.44 170.34 242.74 169.94 243.50 C 169.54 244.26 169.83 245.21 170.59 245.61 L 171.48 246.08 C 172.25 246.48 173.19 246.19 173.59 245.43 C 174.00 244.66 173.70 243.72 172.94 243.32 Z M 172.07 242.86 L 171.18 242.37 C 170.43 241.96 169.48 242.23 169.06 242.99 C 168.65 243.74 168.92 244.69 169.68 245.11 L 170.57 245.60 C 171.32 246.01 172.27 245.73 172.69 244.98 C 173.10 244.22 172.83 243.27 172.07 242.86 Z M 171.21 242.38 L 170.35 241.90 C 169.61 241.47 168.65 241.73 168.22 242.48 C 167.80 243.22 168.06 244.18 168.80 244.61 L 169.66 245.09 C 170.41 245.52 171.36 245.26 171.79 244.51 C 172.22 243.77 171.96 242.81 171.21 242.38 Z M 170.37 241.91 L 169.51 241.40 C 168.77 240.96 167.81 241.21 167.38 241.95 C 166.94 242.69 167.18 243.65 167.93 244.09 L 168.79 244.60 C 169.53 245.03 170.49 244.79 170.92 244.04 C 171.36 243.30 171.11 242.34 170.37 241.91 Z M 169.53 241.41 L 168.66 240.89 C 167.93 240.44 166.97 240.68 166.52 241.42 C 166.08 242.16 166.32 243.12 167.05 243.56 L 167.92 244.08 C 168.65 244.53 169.61 244.29 170.06 243.55 C 170.50 242.81 170.26 241.85 169.53 241.41 Z M 168.67 240.89 L 167.81 240.37 C 167.07 239.92 166.11 240.15 165.66 240.89 C 165.21 241.62 165.45 242.58 166.18 243.03 L 167.05 243.56 C 167.78 244.01 168.74 243.77 169.19 243.04 C 169.64 242.30 169.41 241.34 168.67 240.89 Z M 167.81 240.37 L 167.31 240.06 C 166.57 239.61 165.61 239.84 165.16 240.57 C 164.71 241.31 164.94 242.27 165.68 242.72 L 166.18 243.03 C 166.92 243.48 167.88 243.25 168.33 242.51 C 168.78 241.78 168.55 240.82 167.81 240.37 Z"
      fill="black"
      fill-rule="nonzero" /></svg>