<svg xmlns="http://www.w3.org/2000/svg" width="300" height="300" viewBox="0 0 300 300">
<path d="M 92.31 126.00 L 91.03 125.45 C 90.24 125.11 89.32 125.48 88.98 126.27 C 88.64 127.06 89.01 127.98 89.80 128.32 L 91.08 128.87 C 91.87 129.21 92.79 128.84 93.13 128.05 C 93.47 127.26 93.10 126.34 92.31 126.00 Z M 91.04 125.45 L 89.95 124.98 C 89.15 124.64 88.24 125.00 87.89 125.80 C 87.55 126.59 87.92 127.51 88.71 127.85 L 89.80 128.32 C 90.59 128.66 91.51 128.30 91.85 127.50 C 92.19 126.71 91.83 125.79 91.04 125.45 Z M 89.96 124.99 L 89.24 124.67 C 88.45 124.32 87.53 124.68 87.18 125.47 C 86.83 126.26 87.19 127.18 87.98 127.53 L 88.70 127.84 C 89.48 128.19 90.41 127.83 90.75 127.05 C 91.10 126.26 90.75 125.33 89.96 124.99 Z M 89.40 124.75 L 89.27 124.67 C 88.53 124.24 87.57 124.48 87.13 125.23 C 86.69 125.97 86.94 126.93 87.69 127.36 L 87.82 127.44 C 88.56 127.88 89.52 127.63 89.96 126.89 C 90.39 126.15 90.15 125.19 89.40 124.75 Z M 87.93 127.48 L 88.62 127.74 C 89.43 128.05 90.33 127.64 90.63 126.83 C 90.94 126.02 90.53 125.12 89.72 124.82 L 89.03 124.56 C 88.22 124.25 87.32 124.66 87.02 125.47 C 86.71 126.28 87.12 127.18 87.93 127.48 Z M 88.60 127.73 L 89.85 128.23 C 90.65 128.54 91.56 128.15 91.87 127.35 C 92.19 126.55 91.80 125.64 91.00 125.32 L 89.75 124.83 C 88.94 124.51 88.04 124.91 87.72 125.71 C 87.40 126.51 87.80 127.42 88.60 127.73 Z M 89.84 128.22 L 90.88 128.64 C 91.68 128.96 92.59 128.57 92.91 127.77 C 93.23 126.97 92.84 126.06 92.04 125.74 L 91.00 125.32 C 90.20 125.00 89.29 125.39 88.97 126.19 C 88.65 126.99 89.04 127.90 89.84 128.22 Z M 90.88 128.64 L 91.77 129.00 C 92.57 129.32 93.48 128.93 93.80 128.13 C 94.12 127.33 93.73 126.42 92.93 126.10 L 92.04 125.74 C 91.24 125.42 90.33 125.81 90.01 126.61 C 89.69 127.41 90.08 128.32 90.88 128.64 Z M 91.78 129.00 L 92.70 129.36 C 93.51 129.68 94.41 129.29 94.73 128.48 C 95.05 127.68 94.65 126.78 93.85 126.46 L 92.93 126.09 C 92.12 125.78 91.22 126.17 90.90 126.97 C 90.58 127.78 90.98 128.68 91.78 129.00 Z M 92.72 129.37 L 93.68 129.74 C 94.48 130.05 95.38 129.65 95.69 128.84 C 96.00 128.04 95.60 127.13 94.80 126.82 L 93.84 126.45 C 93.03 126.14 92.13 126.55 91.82 127.35 C 91.51 128.15 91.91 129.06 92.72 129.37 Z M 93.69 129.74 L 94.69 130.11 C 95.50 130.42 96.39 130.01 96.70 129.20 C 97.00 128.39 96.59 127.49 95.78 127.19 L 94.78 126.82 C 93.97 126.52 93.08 126.93 92.77 127.74 C 92.47 128.54 92.88 129.44 93.69 129.74 Z M 94.71 130.12 L 95.68 130.47 C 96.49 130.76 97.39 130.34 97.68 129.53 C 97.97 128.72 97.55 127.82 96.73 127.53 L 95.76 127.18 C 94.95 126.89 94.05 127.31 93.76 128.13 C 93.47 128.94 93.89 129.83 94.71 130.12 Z M 95.70 130.48 L 96.68 130.82 C 97.50 131.10 98.39 130.66 98.67 129.85 C 98.95 129.03 98.52 128.15 97.70 127.86 L 96.72 127.53 C 95.90 127.24 95.01 127.68 94.73 128.49 C 94.45 129.31 94.88 130.20 95.70 130.48 Z M 96.70 130.82 L 97.67 131.14 C 98.49 131.41 99.38 130.97 99.65 130.15 C 99.92 129.33 99.47 128.45 98.65 128.18 L 97.68 127.86 C 96.86 127.59 95.98 128.03 95.71 128.85 C 95.44 129.67 95.88 130.55 96.70 130.82 Z M 97.69 131.15 L 98.62 131.44 C 99.45 131.70 100.32 131.25 100.58 130.42 C 100.84 129.60 100.39 128.73 99.56 128.47 L 98.63 128.17 C 97.81 127.91 96.93 128.37 96.67 129.19 C 96.42 130.01 96.87 130.89 97.69 131.15 Z M 98.65 131.45 L 99.56 131.72 C 100.39 131.97 101.26 131.50 101.50 130.67 C 101.75 129.84 101.28 128.98 100.45 128.73 L 99.54 128.46 C 98.71 128.21 97.84 128.68 97.60 129.51 C 97.35 130.34 97.82 131.21 98.65 131.45 Z M 99.60 131.73 L 100.67 132.02 C 101.50 132.25 102.36 131.76 102.58 130.92 C 102.81 130.09 102.31 129.23 101.48 129.01 L 100.42 128.72 C 99.58 128.49 98.73 128.99 98.50 129.82 C 98.28 130.65 98.77 131.51 99.60 131.73 Z M 100.71 132.03 L 101.66 132.26 C 102.50 132.47 103.34 131.95 103.55 131.11 C 103.75 130.28 103.24 129.43 102.40 129.23 L 101.44 129.00 C 100.60 128.80 99.76 129.31 99.56 130.15 C 99.35 130.99 99.87 131.83 100.71 132.03 Z M 101.69 132.27 L 102.59 132.47 C 103.43 132.66 104.26 132.12 104.45 131.28 C 104.64 130.44 104.10 129.61 103.26 129.42 L 102.37 129.22 C 101.53 129.04 100.69 129.57 100.51 130.41 C 100.32 131.25 100.85 132.08 101.69 132.27 Z M 102.60 132.47 L 103.52 132.67 C 104.36 132.85 105.19 132.31 105.37 131.46 C 105.55 130.62 105.01 129.79 104.17 129.61 L 103.25 129.42 C 102.41 129.24 101.58 129.78 101.40 130.62 C 101.22 131.46 101.76 132.29 102.60 132.47 Z M 103.53 132.67 L 104.49 132.87 C 105.33 133.04 106.16 132.49 106.33 131.65 C 106.50 130.81 105.96 129.98 105.12 129.81 L 104.16 129.61 C 103.31 129.44 102.49 129.98 102.31 130.83 C 102.14 131.67 102.69 132.50 103.53 132.67 Z M 104.51 132.87 L 105.50 133.06 C 106.35 133.22 107.17 132.67 107.33 131.82 C 107.49 130.97 106.94 130.16 106.09 129.99 L 105.10 129.80 C 104.25 129.64 103.43 130.20 103.27 131.04 C 103.11 131.89 103.66 132.71 104.51 132.87 Z M 105.53 133.07 L 106.52 133.24 C 107.37 133.39 108.18 132.82 108.33 131.97 C 108.47 131.12 107.91 130.31 107.06 130.16 L 106.06 129.99 C 105.21 129.84 104.41 130.41 104.26 131.26 C 104.11 132.11 104.68 132.92 105.53 133.07 Z M 106.55 133.24 L 107.47 133.39 C 108.32 133.52 109.12 132.94 109.26 132.09 C 109.39 131.24 108.81 130.44 107.96 130.30 L 107.03 130.16 C 106.18 130.02 105.38 130.61 105.25 131.46 C 105.11 132.31 105.70 133.11 106.55 133.24 Z M 107.49 133.39 L 108.47 133.53 C 109.32 133.65 110.11 133.06 110.24 132.21 C 110.36 131.35 109.76 130.56 108.91 130.44 L 107.93 130.30 C 107.08 130.18 106.29 130.77 106.17 131.62 C 106.05 132.48 106.64 133.27 107.49 133.39 Z M 108.49 133.53 L 109.52 133.67 C 110.38 133.78 111.16 133.18 111.27 132.32 C 111.38 131.47 110.78 130.69 109.93 130.57 L 108.89 130.44 C 108.04 130.32 107.25 130.93 107.14 131.78 C 107.03 132.64 107.63 133.42 108.49 133.53 Z M 109.53 133.67 L 110.56 133.80 C 111.42 133.90 112.19 133.29 112.30 132.44 C 112.40 131.58 111.80 130.80 110.94 130.70 L 109.91 130.57 C 109.06 130.47 108.28 131.07 108.17 131.93 C 108.07 132.79 108.68 133.57 109.53 133.67 Z M 110.57 133.80 L 111.51 133.91 C 112.37 134.00 113.14 133.39 113.24 132.53 C 113.34 131.68 112.73 130.90 111.87 130.80 L 110.93 130.70 C 110.07 130.60 109.30 131.21 109.20 132.07 C 109.10 132.92 109.71 133.70 110.57 133.80 Z M 111.53 133.91 L 112.51 134.01 C 113.36 134.10 114.13 133.48 114.22 132.62 C 114.31 131.77 113.69 131.00 112.83 130.91 L 111.85 130.80 C 111.00 130.71 110.23 131.33 110.14 132.19 C 110.05 133.05 110.67 133.82 111.53 133.91 Z M 112.52 134.01 L 113.54 134.11 C 114.39 134.19 115.16 133.56 115.24 132.70 C 115.32 131.84 114.69 131.08 113.83 131.00 L 112.82 130.90 C 111.96 130.82 111.20 131.45 111.11 132.31 C 111.03 133.17 111.66 133.93 112.52 134.01 Z M 113.56 134.11 L 114.60 134.19 C 115.46 134.26 116.21 133.62 116.28 132.76 C 116.35 131.90 115.71 131.15 114.85 131.08 L 113.81 131.00 C 112.95 130.93 112.20 131.57 112.13 132.43 C 112.06 133.29 112.70 134.04 113.56 134.11 Z M 114.63 134.20 L 115.62 134.26 C 116.48 134.32 117.23 133.66 117.28 132.80 C 117.34 131.94 116.68 131.20 115.82 131.14 L 114.83 131.08 C 113.97 131.02 113.22 131.68 113.17 132.54 C 113.11 133.40 113.76 134.14 114.63 134.20 Z M 115.65 134.26 L 116.59 134.31 C 117.45 134.35 118.19 133.69 118.23 132.83 C 118.27 131.97 117.61 131.23 116.75 131.19 L 115.80 131.14 C 114.94 131.10 114.21 131.76 114.16 132.62 C 114.12 133.48 114.78 134.22 115.65 134.26 Z M 116.61 134.31 L 117.58 134.35 C 118.44 134.38 119.17 133.71 119.20 132.85 C 119.24 131.98 118.56 131.26 117.70 131.23 L 116.73 131.19 C 115.87 131.16 115.14 131.83 115.11 132.69 C 115.08 133.55 115.75 134.28 116.61 134.31 Z M 117.60 134.35 L 118.60 134.38 C 119.46 134.40 120.18 133.72 120.20 132.86 C 120.23 132.00 119.55 131.28 118.69 131.25 L 117.69 131.23 C 116.82 131.20 116.11 131.88 116.08 132.74 C 116.06 133.60 116.74 134.32 117.60 134.35 Z M 118.61 134.38 L 119.64 134.40 C 120.51 134.41 121.22 133.73 121.24 132.87 C 121.25 132.00 120.57 131.29 119.71 131.27 L 118.67 131.25 C 117.81 131.24 117.10 131.92 117.08 132.78 C 117.06 133.65 117.75 134.36 118.61 134.38 Z M 119.65 134.40 L 120.73 134.41 C 121.59 134.42 122.30 133.73 122.31 132.87 C 122.32 132.01 121.63 131.30 120.77 131.29 L 119.70 131.27 C 118.83 131.26 118.13 131.95 118.11 132.81 C 118.10 133.68 118.79 134.38 119.65 134.40 Z M 120.73 134.41 L 121.67 134.42 C 122.54 134.43 123.24 133.74 123.25 132.87 C 123.26 132.01 122.57 131.31 121.70 131.30 L 120.76 131.29 C 119.90 131.28 119.19 131.97 119.19 132.83 C 119.18 133.70 119.87 134.40 120.73 134.41 Z M 121.68 134.42 L 122.64 134.43 C 123.50 134.43 124.20 133.74 124.21 132.87 C 124.21 132.01 123.52 131.31 122.66 131.30 L 121.70 131.30 C 120.84 131.29 120.13 131.99 120.13 132.85 C 120.12 133.71 120.82 134.41 121.68 134.42 Z M 122.64 134.43 L 123.62 134.43 C 124.49 134.43 125.19 133.74 125.19 132.88 C 125.19 132.01 124.50 131.31 123.64 131.31 L 122.65 131.30 C 121.79 131.30 121.09 132.00 121.09 132.86 C 121.08 133.72 121.78 134.42 122.64 134.43 Z M 123.63 134.43 L 124.63 134.43 C 125.49 134.43 126.19 133.74 126.20 132.87 C 126.20 132.01 125.50 131.31 124.64 131.31 L 123.63 131.31 C 122.77 131.31 122.07 132.00 122.07 132.87 C 122.07 133.73 122.76 134.43 123.63 134.43 Z M 124.63 134.43 L 125.66 134.43 C 126.52 134.43 127.22 133.74 127.22 132.87 C 127.23 132.01 126.53 131.31 125.66 131.31 L 124.64 131.31 C 123.77 131.31 123.08 132.01 123.07 132.87 C 123.07 133.73 123.77 134.43 124.63 134.43 Z M 125.66 134.43 L 126.71 134.43 C 127.57 134.43 128.27 133.74 128.27 132.87 C 128.27 132.01 127.57 131.31 126.71 131.31 L 125.66 131.31 C 124.80 131.31 124.10 132.01 124.10 132.87 C 124.10 133.73 124.80 134.43 125.66 134.43 Z M 126.71 134.43 L 127.74 134.43 C 128.61 134.43 129.30 133.74 129.30 132.87 C 129.30 132.01 128.61 131.31 127.74 131.31 L 126.71 131.31 C 125.85 131.31 125.15 132.01 125.15 132.87 C 125.15 133.74 125.85 134.43 126.71 134.43 Z M 127.74 134.43 L 128.71 134.43 C 129.58 134.43 130.28 133.73 130.28 132.87 C 130.27 132.01 129.57 131.31 128.71 131.31 L 127.74 131.31 C 126.88 131.31 126.18 132.01 126.18 132.87 C 126.18 133.74 126.88 134.44 127.74 134.43 Z M 128.72 134.44 L 129.70 134.43 C 130.56 134.43 131.26 133.73 131.26 132.86 C 131.25 132.00 130.55 131.30 129.69 131.31 L 128.71 131.31 C 127.84 131.31 127.15 132.01 127.15 132.88 C 127.15 133.74 127.85 134.44 128.72 134.44 Z M 129.71 134.43 L 130.70 134.43 C 131.56 134.42 132.26 133.71 132.25 132.85 C 132.24 131.99 131.54 131.29 130.67 131.30 L 129.68 131.30 C 128.82 131.31 128.12 132.02 128.13 132.88 C 128.14 133.74 128.84 134.44 129.71 134.43 Z M 130.71 134.43 L 131.71 134.41 C 132.57 134.40 133.27 133.69 133.25 132.82 C 133.24 131.96 132.53 131.27 131.67 131.28 L 130.66 131.30 C 129.80 131.31 129.11 132.02 129.12 132.88 C 129.13 133.75 129.84 134.44 130.71 134.43 Z M 131.72 134.41 L 132.73 134.39 C 133.60 134.37 134.28 133.65 134.26 132.79 C 134.25 131.93 133.53 131.24 132.66 131.26 L 131.65 131.28 C 130.79 131.30 130.10 132.02 130.12 132.88 C 130.14 133.75 130.86 134.43 131.72 134.41 Z M 132.75 134.39 L 133.77 134.36 C 134.63 134.33 135.31 133.61 135.29 132.74 C 135.26 131.88 134.53 131.20 133.67 131.23 L 132.65 131.26 C 131.78 131.29 131.11 132.01 131.13 132.88 C 131.16 133.74 131.89 134.42 132.75 134.39 Z M 133.79 134.36 L 134.82 134.31 C 135.68 134.27 136.35 133.54 136.31 132.68 C 136.27 131.81 135.54 131.14 134.68 131.18 L 133.65 131.23 C 132.79 131.26 132.12 132.00 132.15 132.86 C 132.19 133.73 132.92 134.40 133.79 134.36 Z M 134.84 134.31 L 135.83 134.26 C 136.69 134.21 137.35 133.46 137.30 132.60 C 137.26 131.73 136.51 131.07 135.65 131.12 L 134.66 131.18 C 133.79 131.23 133.13 131.97 133.18 132.84 C 133.23 133.70 133.97 134.36 134.84 134.31 Z M 135.85 134.26 L 136.84 134.19 C 137.70 134.13 138.36 133.38 138.30 132.51 C 138.24 131.65 137.49 130.99 136.62 131.05 L 135.63 131.12 C 134.76 131.18 134.11 131.93 134.17 132.80 C 134.23 133.66 134.98 134.32 135.85 134.26 Z M 136.86 134.19 L 137.85 134.11 C 138.72 134.03 139.36 133.28 139.29 132.41 C 139.22 131.55 138.46 130.90 137.60 130.97 L 136.60 131.05 C 135.74 131.12 135.09 131.88 135.16 132.75 C 135.23 133.61 135.99 134.26 136.86 134.19 Z M 137.87 134.11 L 138.87 134.01 C 139.73 133.93 140.37 133.17 140.29 132.30 C 140.21 131.43 139.44 130.80 138.58 130.88 L 137.58 130.97 C 136.71 131.05 136.08 131.82 136.16 132.68 C 136.24 133.55 137.01 134.19 137.87 134.11 Z M 138.89 134.01 L 139.89 133.91 C 140.75 133.82 141.38 133.04 141.29 132.18 C 141.20 131.31 140.42 130.69 139.56 130.78 L 138.56 130.88 C 137.69 130.97 137.07 131.74 137.16 132.61 C 137.25 133.47 138.02 134.10 138.89 134.01 Z M 139.90 133.91 L 140.90 133.79 C 141.77 133.70 142.39 132.91 142.29 132.05 C 142.19 131.18 141.41 130.56 140.54 130.66 L 139.54 130.78 C 138.68 130.87 138.06 131.66 138.16 132.52 C 138.25 133.39 139.04 134.01 139.90 133.91 Z M 140.92 133.79 L 141.91 133.67 C 142.78 133.56 143.39 132.77 143.28 131.91 C 143.18 131.04 142.39 130.43 141.52 130.54 L 140.53 130.66 C 139.66 130.77 139.05 131.56 139.15 132.42 C 139.26 133.29 140.05 133.90 140.92 133.79 Z M 141.93 133.67 L 142.92 133.54 C 143.78 133.42 144.39 132.62 144.28 131.76 C 144.16 130.89 143.36 130.29 142.50 130.40 L 141.51 130.54 C 140.64 130.65 140.03 131.45 140.15 132.31 C 140.27 133.18 141.06 133.79 141.93 133.67 Z M 142.93 133.54 L 143.91 133.40 C 144.77 133.27 145.37 132.47 145.25 131.61 C 145.12 130.74 144.32 130.14 143.46 130.26 L 142.48 130.40 C 141.62 130.53 141.02 131.33 141.14 132.20 C 141.27 133.06 142.07 133.66 142.93 133.54 Z M 143.92 133.39 L 144.89 133.25 C 145.76 133.12 146.35 132.31 146.22 131.44 C 146.09 130.58 145.28 129.99 144.42 130.12 L 143.44 130.27 C 142.58 130.40 141.99 131.20 142.12 132.07 C 142.25 132.93 143.06 133.53 143.92 133.39 Z M 144.90 133.25 L 145.88 133.09 C 146.74 132.95 147.33 132.14 147.19 131.28 C 147.05 130.41 146.24 129.83 145.38 129.96 L 144.41 130.12 C 143.54 130.26 142.95 131.07 143.09 131.93 C 143.23 132.80 144.04 133.38 144.90 133.25 Z M 145.89 133.09 L 146.86 132.93 C 147.73 132.79 148.31 131.97 148.17 131.11 C 148.03 130.24 147.21 129.66 146.35 129.80 L 145.37 129.96 C 144.51 130.11 143.92 130.92 144.06 131.79 C 144.21 132.65 145.02 133.23 145.89 133.09 Z M 146.87 132.93 L 147.86 132.76 C 148.72 132.61 149.30 131.79 149.15 130.93 C 149.01 130.07 148.19 129.49 147.32 129.63 L 146.34 129.80 C 145.48 129.95 144.90 130.77 145.04 131.63 C 145.19 132.50 146.01 133.08 146.87 132.93 Z M 147.86 132.76 L 148.86 132.59 C 149.72 132.43 150.30 131.61 150.15 130.75 C 150.00 129.89 149.17 129.31 148.31 129.46 L 147.32 129.63 C 146.45 129.79 145.88 130.61 146.03 131.47 C 146.18 132.33 147.00 132.91 147.86 132.76 Z M 148.86 132.59 L 149.87 132.41 C 150.73 132.25 151.31 131.43 151.15 130.57 C 151.00 129.70 150.18 129.13 149.31 129.28 L 148.31 129.46 C 147.44 129.61 146.87 130.44 147.02 131.30 C 147.18 132.16 148.00 132.74 148.86 132.59 Z M 149.87 132.41 L 150.88 132.23 C 151.74 132.07 152.32 131.24 152.16 130.38 C 152.01 129.52 151.18 128.94 150.32 129.10 L 149.31 129.28 C 148.45 129.44 147.87 130.26 148.03 131.13 C 148.18 131.99 149.01 132.56 149.87 132.41 Z M 150.88 132.23 L 151.86 132.05 C 152.72 131.89 153.29 131.07 153.14 130.20 C 152.98 129.34 152.15 128.76 151.29 128.92 L 150.31 129.10 C 149.45 129.25 148.88 130.08 149.03 130.95 C 149.19 131.81 150.02 132.38 150.88 132.23 Z M 151.86 132.05 L 152.84 131.87 C 153.71 131.71 154.28 130.88 154.12 130.02 C 153.96 129.15 153.13 128.58 152.27 128.74 L 151.29 128.92 C 150.42 129.08 149.85 129.91 150.01 130.77 C 150.16 131.64 150.99 132.21 151.86 132.05 Z M 152.85 131.87 L 153.84 131.69 C 154.70 131.53 155.27 130.70 155.11 129.83 C 154.95 128.97 154.12 128.40 153.26 128.56 L 152.27 128.74 C 151.40 128.90 150.83 129.73 150.99 130.60 C 151.15 131.46 151.98 132.03 152.85 131.87 Z M 153.84 131.69 L 154.83 131.50 C 155.70 131.34 156.27 130.51 156.11 129.64 C 155.94 128.78 155.11 128.21 154.25 128.37 L 153.25 128.56 C 152.39 128.72 151.82 129.55 151.98 130.42 C 152.14 131.28 152.98 131.85 153.84 131.69 Z M 154.84 131.50 L 155.83 131.31 C 156.70 131.15 157.27 130.31 157.10 129.45 C 156.94 128.58 156.10 128.01 155.23 128.18 L 154.24 128.37 C 153.38 128.53 152.81 129.37 152.97 130.23 C 153.14 131.10 153.97 131.67 154.84 131.50 Z M 155.84 131.31 L 156.82 131.12 C 157.69 130.95 158.26 130.12 158.09 129.25 C 157.92 128.38 157.08 127.82 156.22 127.99 L 155.23 128.18 C 154.36 128.35 153.80 129.19 153.96 130.05 C 154.13 130.92 154.97 131.48 155.84 131.31 Z M 156.83 131.12 L 157.81 130.93 C 158.68 130.76 159.24 129.92 159.07 129.05 C 158.89 128.18 158.05 127.62 157.19 127.79 L 156.21 127.99 C 155.34 128.16 154.78 129.00 154.95 129.87 C 155.12 130.73 155.96 131.29 156.83 131.12 Z M 157.82 130.93 L 158.78 130.73 C 159.65 130.56 160.21 129.71 160.03 128.85 C 159.86 127.98 159.01 127.42 158.15 127.60 L 157.18 127.79 C 156.31 127.97 155.75 128.81 155.93 129.68 C 156.11 130.55 156.95 131.10 157.82 130.93 Z M 158.79 130.73 L 159.80 130.52 C 160.67 130.34 161.23 129.49 161.04 128.63 C 160.86 127.76 160.02 127.20 159.15 127.39 L 158.14 127.60 C 157.27 127.78 156.72 128.63 156.90 129.49 C 157.08 130.36 157.93 130.91 158.79 130.73 Z M 159.81 130.52 L 160.82 130.30 C 161.68 130.12 162.24 129.27 162.05 128.40 C 161.86 127.54 161.01 126.99 160.15 127.17 L 159.14 127.39 C 158.28 127.57 157.73 128.42 157.91 129.29 C 158.10 130.15 158.95 130.71 159.81 130.52 Z M 160.83 130.30 L 161.82 130.09 C 162.68 129.90 163.23 129.04 163.04 128.18 C 162.85 127.31 162.00 126.77 161.13 126.95 L 160.14 127.17 C 159.28 127.36 158.73 128.22 158.92 129.08 C 159.11 129.95 159.96 130.49 160.83 130.30 Z M 161.82 130.09 L 162.80 129.87 C 163.66 129.68 164.21 128.82 164.02 127.96 C 163.82 127.09 162.97 126.55 162.10 126.74 L 161.13 126.96 C 160.26 127.15 159.72 128.00 159.91 128.87 C 160.10 129.73 160.96 130.28 161.82 130.09 Z M 162.80 129.87 L 163.77 129.65 C 164.63 129.46 165.18 128.60 164.98 127.73 C 164.79 126.87 163.93 126.33 163.06 126.52 L 162.10 126.74 C 161.23 126.93 160.69 127.79 160.88 128.66 C 161.08 129.52 161.94 130.06 162.80 129.87 Z M 163.77 129.65 L 164.73 129.44 C 165.59 129.24 166.14 128.38 165.94 127.52 C 165.74 126.65 164.88 126.11 164.02 126.30 L 163.06 126.52 C 162.20 126.72 161.65 127.58 161.85 128.44 C 162.05 129.31 162.91 129.85 163.77 129.65 Z M 164.73 129.44 L 165.68 129.22 C 166.54 129.03 167.09 128.16 166.89 127.30 C 166.70 126.43 165.83 125.89 164.97 126.09 L 164.02 126.30 C 163.15 126.50 162.61 127.36 162.81 128.23 C 163.00 129.09 163.86 129.63 164.73 129.44 Z M 165.68 129.22 L 166.63 129.01 C 167.49 128.81 168.04 127.95 167.84 127.09 C 167.65 126.22 166.79 125.68 165.92 125.87 L 164.97 126.09 C 164.10 126.28 163.56 127.14 163.76 128.01 C 163.95 128.87 164.81 129.42 165.68 129.22 Z M 166.63 129.01 L 167.61 128.79 C 168.48 128.59 169.03 127.73 168.83 126.87 C 168.64 126.00 167.78 125.45 166.91 125.65 L 165.92 125.87 C 165.05 126.06 164.51 126.93 164.70 127.79 C 164.90 128.66 165.76 129.21 166.63 129.01 Z M 167.61 128.79 L 168.60 128.57 C 169.46 128.38 170.01 127.52 169.82 126.65 C 169.63 125.78 168.76 125.23 167.90 125.43 L 166.91 125.65 C 166.04 125.84 165.49 126.70 165.69 127.57 C 165.88 128.44 166.74 128.99 167.61 128.79 Z M 168.59 128.58 L 169.58 128.36 C 170.45 128.17 171.00 127.31 170.80 126.44 C 170.61 125.56 169.75 125.01 168.88 125.21 L 167.90 125.42 C 167.03 125.61 166.48 126.48 166.67 127.35 C 166.86 128.22 167.72 128.77 168.59 128.58 Z M 169.57 128.36 L 170.55 128.15 C 171.42 127.96 171.98 127.10 171.79 126.22 C 171.59 125.35 170.73 124.80 169.86 124.99 L 168.88 125.20 C 168.01 125.39 167.46 126.26 167.65 127.13 C 167.84 128.00 168.70 128.56 169.57 128.36 Z M 170.55 128.15 L 171.52 127.94 C 172.40 127.75 172.95 126.89 172.76 126.01 C 172.57 125.14 171.71 124.58 170.84 124.77 L 169.86 124.99 C 168.99 125.18 168.43 126.04 168.62 126.91 C 168.81 127.79 169.67 128.34 170.55 128.15 Z M 171.52 127.94 L 172.49 127.74 C 173.37 127.55 173.93 126.68 173.74 125.81 C 173.55 124.93 172.68 124.37 171.81 124.56 L 170.84 124.77 C 169.96 124.96 169.40 125.82 169.59 126.70 C 169.78 127.58 170.65 128.13 171.52 127.94 Z M 172.49 127.74 L 173.46 127.53 C 174.34 127.34 174.90 126.48 174.71 125.60 C 174.52 124.72 173.65 124.16 172.78 124.35 L 171.81 124.56 C 170.93 124.75 170.37 125.61 170.56 126.49 C 170.75 127.37 171.61 127.93 172.49 127.74 Z M 173.46 127.53 L 174.45 127.32 C 175.33 127.14 175.89 126.27 175.70 125.39 C 175.52 124.51 174.65 123.95 173.77 124.14 L 172.78 124.35 C 171.90 124.53 171.34 125.40 171.52 126.28 C 171.71 127.16 172.58 127.72 173.46 127.53 Z M 174.45 127.33 L 175.45 127.11 C 176.33 126.93 176.90 126.06 176.71 125.18 C 176.52 124.30 175.66 123.73 174.78 123.92 L 173.77 124.13 C 172.89 124.32 172.33 125.19 172.51 126.07 C 172.70 126.95 173.57 127.51 174.45 127.33 Z M 175.45 127.11 L 176.45 126.90 C 177.33 126.72 177.90 125.85 177.71 124.97 C 177.52 124.09 176.66 123.52 175.78 123.71 L 174.78 123.92 C 173.90 124.10 173.33 124.97 173.52 125.85 C 173.70 126.74 174.57 127.30 175.45 127.11 Z M 176.45 126.91 L 177.44 126.70 C 178.32 126.51 178.88 125.65 178.70 124.76 C 178.51 123.88 177.65 123.31 176.76 123.50 L 175.78 123.71 C 174.89 123.89 174.33 124.76 174.51 125.64 C 174.70 126.53 175.56 127.09 176.45 126.91 Z M 177.44 126.70 L 178.41 126.50 C 179.29 126.31 179.86 125.44 179.68 124.56 C 179.49 123.67 178.62 123.11 177.74 123.29 L 176.76 123.50 C 175.88 123.68 175.31 124.55 175.50 125.44 C 175.68 126.32 176.55 126.89 177.44 126.70 Z M 178.41 126.50 L 179.37 126.29 C 180.26 126.11 180.82 125.24 180.64 124.35 C 180.45 123.47 179.58 122.90 178.70 123.09 L 177.74 123.29 C 176.85 123.48 176.29 124.35 176.47 125.23 C 176.66 126.12 177.53 126.68 178.41 126.50 Z M 179.37 126.30 L 180.32 126.10 C 181.20 125.91 181.77 125.04 181.58 124.15 C 181.40 123.27 180.53 122.70 179.64 122.89 L 178.70 123.09 C 177.81 123.27 177.24 124.14 177.43 125.03 C 177.62 125.92 178.49 126.48 179.37 126.30 Z M 180.32 126.10 L 181.32 125.89 C 182.21 125.70 182.77 124.83 182.59 123.94 C 182.40 123.05 181.53 122.49 180.64 122.67 L 179.64 122.89 C 178.75 123.07 178.19 123.95 178.37 124.83 C 178.56 125.72 179.43 126.29 180.32 126.10 Z M 181.32 125.89 L 182.36 125.67 C 183.25 125.48 183.81 124.60 183.62 123.72 C 183.43 122.83 182.56 122.26 181.67 122.45 L 180.64 122.67 C 179.75 122.86 179.18 123.74 179.37 124.62 C 179.56 125.51 180.43 126.08 181.32 125.89 Z M 182.36 125.67 L 183.37 125.46 C 184.26 125.26 184.82 124.39 184.63 123.50 C 184.44 122.61 183.56 122.04 182.67 122.23 L 181.67 122.45 C 180.78 122.64 180.21 123.52 180.40 124.41 C 180.59 125.30 181.47 125.86 182.36 125.67 Z M 183.37 125.46 L 184.35 125.25 C 185.24 125.05 185.81 124.17 185.62 123.28 C 185.42 122.39 184.54 121.82 183.65 122.02 L 182.67 122.23 C 181.78 122.42 181.21 123.30 181.40 124.19 C 181.60 125.08 182.48 125.65 183.37 125.46 Z M 184.35 125.25 L 185.30 125.04 C 186.20 124.85 186.77 123.97 186.57 123.07 C 186.38 122.18 185.50 121.61 184.60 121.81 L 183.65 122.01 C 182.76 122.21 182.19 123.09 182.38 123.98 C 182.58 124.88 183.46 125.44 184.35 125.25 Z M 185.31 125.05 L 186.23 124.85 C 187.12 124.65 187.69 123.77 187.50 122.87 C 187.30 121.98 186.42 121.41 185.52 121.60 L 184.60 121.80 C 183.71 122.00 183.14 122.88 183.33 123.78 C 183.53 124.67 184.41 125.24 185.31 125.05 Z M 186.23 124.85 L 187.15 124.65 C 188.05 124.45 188.62 123.57 188.43 122.67 C 188.23 121.77 187.35 121.20 186.45 121.40 L 185.52 121.60 C 184.63 121.79 184.06 122.68 184.25 123.58 C 184.45 124.48 185.33 125.05 186.23 124.85 Z M 187.16 124.65 L 188.11 124.44 C 189.01 124.25 189.58 123.36 189.38 122.46 C 189.19 121.56 188.30 120.99 187.40 121.19 L 186.45 121.40 C 185.55 121.59 184.98 122.48 185.17 123.38 C 185.37 124.28 186.26 124.85 187.16 124.65 Z M 188.11 124.44 L 189.06 124.24 C 189.96 124.04 190.52 123.15 190.33 122.25 C 190.13 121.35 189.24 120.79 188.34 120.98 L 187.40 121.19 C 186.50 121.39 185.93 122.28 186.13 123.17 C 186.33 124.07 187.22 124.64 188.11 124.44 Z M 189.06 124.23 L 190.02 124.02 C 190.91 123.82 191.48 122.93 191.28 122.03 C 191.08 121.13 190.18 120.57 189.29 120.77 L 188.34 120.98 C 187.44 121.18 186.87 122.08 187.07 122.97 C 187.28 123.87 188.17 124.44 189.06 124.23 Z M 190.02 124.02 L 191.00 123.79 C 191.90 123.59 192.46 122.69 192.25 121.80 C 192.05 120.90 191.15 120.34 190.26 120.55 L 189.28 120.77 C 188.38 120.98 187.82 121.87 188.03 122.77 C 188.23 123.67 189.13 124.23 190.02 124.02 Z M 191.01 123.79 L 192.04 123.55 C 192.93 123.34 193.49 122.44 193.28 121.55 C 193.07 120.65 192.17 120.10 191.27 120.31 L 190.25 120.55 C 189.35 120.76 188.80 121.66 189.01 122.55 C 189.22 123.45 190.12 124.00 191.01 123.79 Z M 192.05 123.55 L 192.98 123.32 C 193.87 123.11 194.42 122.20 194.20 121.31 C 193.99 120.41 193.08 119.87 192.19 120.08 L 191.26 120.31 C 190.37 120.53 189.82 121.43 190.04 122.32 C 190.25 123.22 191.15 123.77 192.05 123.55 Z M 192.99 123.32 L 193.90 123.10 C 194.79 122.88 195.34 121.97 195.12 121.07 C 194.90 120.18 193.99 119.63 193.09 119.86 L 192.18 120.08 C 191.29 120.30 190.74 121.21 190.96 122.11 C 191.18 123.00 192.09 123.55 192.99 123.32 Z M 193.91 123.10 L 194.85 122.86 C 195.75 122.63 196.29 121.73 196.07 120.83 C 195.84 119.93 194.93 119.39 194.04 119.62 L 193.09 119.85 C 192.19 120.08 191.65 120.99 191.87 121.89 C 192.10 122.78 193.01 123.32 193.91 123.10 Z M 194.86 122.86 L 195.83 122.61 C 196.73 122.38 197.27 121.47 197.04 120.58 C 196.82 119.68 195.90 119.14 195.01 119.37 L 194.03 119.61 C 193.13 119.84 192.59 120.75 192.82 121.65 C 193.05 122.55 193.96 123.09 194.86 122.86 Z M 195.84 122.62 L 196.84 122.36 C 197.73 122.13 198.27 121.21 198.04 120.32 C 197.81 119.42 196.90 118.88 196.00 119.11 L 195.00 119.36 C 194.10 119.59 193.56 120.51 193.79 121.41 C 194.03 122.30 194.94 122.85 195.84 122.62 Z M 196.84 122.36 L 197.85 122.10 C 198.75 121.87 199.29 120.95 199.06 120.05 C 198.83 119.15 197.91 118.61 197.01 118.84 L 196.00 119.10 C 195.10 119.34 194.56 120.25 194.79 121.15 C 195.02 122.05 195.94 122.59 196.84 122.36 Z M 197.85 122.10 L 198.87 121.84 C 199.77 121.60 200.32 120.68 200.08 119.78 C 199.85 118.88 198.93 118.34 198.03 118.58 L 197.01 118.84 C 196.11 119.07 195.57 119.99 195.80 120.89 C 196.03 121.79 196.95 122.34 197.85 122.10 Z M 198.87 121.84 L 199.14 121.77 C 200.04 121.54 200.59 120.62 200.35 119.71 C 200.12 118.81 199.20 118.27 198.30 118.50 L 198.03 118.57 C 197.13 118.81 196.58 119.73 196.82 120.63 C 197.05 121.53 197.97 122.07 198.87 121.84 Z"
      fill="black"
      fill-rule="nonzero" /><path d="M 151.20 97.03 L 150.38 97.68 C 149.70 98.22 149.59 99.20 150.12 99.87 C 150.66 100.55 151.64 100.66 152.32 100.12 L 153.14 99.47 C 153.82 98.93 153.93 97.95 153.39 97.28 C 152.86 96.60 151.87 96.49 151.20 97.03 Z M 150.32 97.72 L 149.55 98.39 C 148.90 98.96 148.83 99.94 149.39 100.60 C 149.96 101.25 150.95 101.32 151.60 100.75 L 152.37 100.08 C 153.02 99.52 153.09 98.53 152.53 97.88 C 151.96 97.23 150.97 97.16 150.32 97.72 Z M 149.44 98.50 L 148.77 99.20 C 148.18 99.82 148.20 100.81 148.83 101.41 C 149.45 102.00 150.44 101.98 151.03 101.35 L 151.70 100.65 C 152.30 100.03 152.27 99.04 151.65 98.44 C 151.03 97.85 150.04 97.87 149.44 98.50 Z M 148.62 99.39 L 148.09 100.15 C 147.61 100.86 147.79 101.84 148.50 102.32 C 149.21 102.81 150.18 102.63 150.67 101.92 L 151.19 101.16 C 151.68 100.45 151.50 99.48 150.79 98.99 C 150.08 98.50 149.10 98.68 148.62 99.39 Z M 147.94 100.44 L 147.58 101.29 C 147.25 102.08 147.63 103.00 148.42 103.33 C 149.22 103.66 150.13 103.29 150.47 102.49 L 150.82 101.64 C 151.15 100.84 150.78 99.93 149.98 99.60 C 149.19 99.26 148.27 99.64 147.94 100.44 Z M 147.50 101.55 L 147.29 102.50 C 147.10 103.34 147.63 104.18 148.47 104.36 C 149.31 104.55 150.15 104.02 150.33 103.18 L 150.55 102.23 C 150.74 101.39 150.21 100.55 149.37 100.37 C 148.53 100.18 147.69 100.71 147.50 101.55 Z M 147.26 102.67 L 147.14 103.75 C 147.05 104.61 147.67 105.38 148.52 105.47 C 149.38 105.57 150.15 104.95 150.25 104.09 L 150.36 103.01 C 150.46 102.15 149.84 101.38 148.98 101.29 C 148.12 101.20 147.35 101.81 147.26 102.67 Z M 147.13 103.83 L 147.08 104.82 C 147.03 105.68 147.69 106.42 148.55 106.47 C 149.41 106.51 150.15 105.85 150.20 104.99 L 150.25 104.01 C 150.30 103.14 149.64 102.41 148.78 102.36 C 147.92 102.31 147.18 102.97 147.13 103.83 Z M 147.08 104.86 L 147.05 105.86 C 147.03 106.73 147.71 107.44 148.57 107.47 C 149.43 107.49 150.15 106.81 150.17 105.95 L 150.20 104.95 C 150.22 104.09 149.54 103.37 148.68 103.35 C 147.82 103.32 147.10 104.00 147.08 104.86 Z M 147.05 105.90 L 147.04 106.92 C 147.04 107.79 147.73 108.49 148.59 108.50 C 149.46 108.50 150.16 107.81 150.17 106.95 L 150.17 105.92 C 150.18 105.06 149.49 104.35 148.62 104.35 C 147.76 104.34 147.06 105.03 147.05 105.90 Z M 147.04 106.95 L 147.05 107.98 C 147.06 108.84 147.77 109.53 148.63 109.52 C 149.49 109.51 150.18 108.81 150.18 107.94 L 150.17 106.92 C 150.16 106.06 149.45 105.37 148.59 105.37 C 147.73 105.38 147.03 106.09 147.04 106.95 Z M 147.05 108.00 L 147.08 109.00 C 147.10 109.86 147.82 110.55 148.68 110.52 C 149.54 110.50 150.22 109.79 150.20 108.92 L 150.18 107.92 C 150.15 107.06 149.44 106.38 148.57 106.40 C 147.71 106.42 147.03 107.14 147.05 108.00 Z M 147.08 109.03 L 147.13 110.05 C 147.16 110.91 147.89 111.58 148.75 111.54 C 149.61 111.50 150.28 110.77 150.24 109.91 L 150.20 108.89 C 150.16 108.03 149.43 107.37 148.57 107.40 C 147.71 107.44 147.04 108.17 147.08 109.03 Z M 147.13 110.09 L 147.20 111.06 C 147.26 111.92 148.00 112.57 148.86 112.51 C 149.72 112.45 150.37 111.71 150.31 110.85 L 150.24 109.87 C 150.18 109.01 149.44 108.36 148.58 108.42 C 147.72 108.48 147.07 109.23 147.13 110.09 Z M 147.20 111.11 L 147.30 112.09 C 147.39 112.95 148.15 113.57 149.01 113.48 C 149.87 113.39 150.49 112.63 150.41 111.77 L 150.31 110.80 C 150.22 109.94 149.45 109.31 148.59 109.40 C 147.74 109.49 147.11 110.26 147.20 111.11 Z M 147.31 112.14 L 147.44 113.14 C 147.56 114.00 148.35 114.59 149.20 114.48 C 150.06 114.36 150.65 113.57 150.54 112.72 L 150.40 111.72 C 150.28 110.86 149.49 110.26 148.64 110.38 C 147.79 110.50 147.19 111.29 147.31 112.14 Z M 147.45 113.19 L 147.60 114.10 C 147.75 114.95 148.55 115.52 149.40 115.38 C 150.25 115.24 150.83 114.43 150.68 113.58 L 150.53 112.67 C 150.39 111.82 149.58 111.25 148.73 111.39 C 147.88 111.53 147.31 112.34 147.45 113.19 Z M 147.61 114.13 L 147.79 115.09 C 147.95 115.93 148.77 116.49 149.62 116.33 C 150.46 116.17 151.02 115.35 150.86 114.50 L 150.68 113.55 C 150.52 112.70 149.70 112.15 148.85 112.31 C 148.00 112.47 147.45 113.29 147.61 114.13 Z M 147.80 115.11 L 148.00 116.10 C 148.18 116.94 149.00 117.49 149.85 117.31 C 150.69 117.13 151.24 116.31 151.06 115.46 L 150.85 114.47 C 150.68 113.63 149.85 113.09 149.01 113.26 C 148.16 113.44 147.62 114.27 147.80 115.11 Z M 148.01 116.12 L 148.23 117.14 C 148.42 117.98 149.25 118.51 150.09 118.32 C 150.94 118.14 151.47 117.31 151.28 116.46 L 151.06 115.44 C 150.87 114.60 150.04 114.07 149.19 114.26 C 148.35 114.44 147.82 115.28 148.01 116.12 Z M 148.24 117.15 L 148.47 118.17 C 148.66 119.01 149.50 119.54 150.34 119.34 C 151.18 119.15 151.71 118.31 151.51 117.47 L 151.28 116.45 C 151.08 115.61 150.25 115.09 149.41 115.28 C 148.57 115.47 148.04 116.31 148.24 117.15 Z M 148.47 118.18 L 148.69 119.11 C 148.89 119.95 149.73 120.46 150.57 120.26 C 151.41 120.07 151.93 119.22 151.73 118.38 L 151.51 117.46 C 151.31 116.62 150.47 116.10 149.63 116.30 C 148.79 116.50 148.27 117.34 148.47 118.18 Z M 148.69 119.11 L 148.92 120.06 C 149.13 120.89 149.97 121.41 150.81 121.20 C 151.65 121.00 152.16 120.16 151.96 119.32 L 151.73 118.38 C 151.52 117.54 150.68 117.03 149.84 117.23 C 149.00 117.43 148.49 118.28 148.69 119.11 Z M 148.93 120.06 L 149.16 121.03 C 149.37 121.86 150.22 122.37 151.06 122.16 C 151.89 121.96 152.40 121.11 152.19 120.27 L 151.96 119.31 C 151.75 118.47 150.90 117.96 150.06 118.17 C 149.23 118.38 148.72 119.23 148.93 120.06 Z M 149.17 121.03 L 149.42 122.02 C 149.63 122.86 150.48 123.36 151.31 123.15 C 152.15 122.94 152.65 122.09 152.44 121.25 L 152.19 120.27 C 151.98 119.43 151.13 118.92 150.30 119.14 C 149.46 119.35 148.95 120.20 149.17 121.03 Z M 149.42 122.03 L 149.68 123.04 C 149.89 123.88 150.75 124.38 151.58 124.16 C 152.42 123.95 152.92 123.10 152.70 122.26 L 152.44 121.25 C 152.23 120.41 151.38 119.91 150.54 120.12 C 149.71 120.34 149.20 121.19 149.42 122.03 Z M 149.68 123.05 L 149.93 124.01 C 150.15 124.84 151.00 125.34 151.84 125.12 C 152.67 124.91 153.17 124.05 152.95 123.22 L 152.70 122.26 C 152.48 121.42 151.63 120.92 150.80 121.14 C 149.96 121.36 149.46 122.21 149.68 123.05 Z M 149.93 124.01 L 150.18 124.94 C 150.40 125.77 151.25 126.27 152.09 126.05 C 152.92 125.82 153.42 124.97 153.20 124.14 L 152.95 123.21 C 152.73 122.38 151.88 121.88 151.04 122.10 C 150.21 122.33 149.71 123.18 149.93 124.01 Z M 150.18 124.94 L 150.43 125.88 C 150.66 126.72 151.51 127.21 152.35 126.99 C 153.18 126.76 153.67 125.91 153.45 125.07 L 153.19 124.13 C 152.97 123.30 152.11 122.80 151.28 123.03 C 150.45 123.25 149.96 124.11 150.18 124.94 Z M 150.43 125.89 L 150.70 126.85 C 150.92 127.69 151.78 128.18 152.61 127.95 C 153.45 127.72 153.94 126.86 153.71 126.03 L 153.45 125.07 C 153.22 124.24 152.36 123.75 151.53 123.97 C 150.70 124.20 150.21 125.06 150.43 125.89 Z M 150.70 126.86 L 150.97 127.84 C 151.20 128.67 152.06 129.16 152.89 128.93 C 153.72 128.70 154.21 127.84 153.98 127.01 L 153.71 126.03 C 153.48 125.20 152.62 124.71 151.79 124.94 C 150.96 125.17 150.47 126.03 150.70 126.86 Z M 150.97 127.85 L 151.26 128.85 C 151.49 129.68 152.35 130.16 153.18 129.93 C 154.01 129.69 154.49 128.83 154.26 128.00 L 153.98 127.00 C 153.74 126.17 152.88 125.69 152.05 125.92 C 151.22 126.16 150.74 127.02 150.97 127.85 Z M 151.26 128.86 L 151.55 129.86 C 151.79 130.69 152.65 131.17 153.48 130.93 C 154.31 130.69 154.79 129.83 154.55 129.00 L 154.26 127.99 C 154.02 127.16 153.16 126.69 152.33 126.92 C 151.50 127.16 151.02 128.03 151.26 128.86 Z M 151.55 129.87 L 151.82 130.80 C 152.06 131.63 152.93 132.10 153.76 131.86 C 154.59 131.62 155.06 130.75 154.82 129.92 L 154.55 128.99 C 154.30 128.17 153.44 127.69 152.61 127.93 C 151.78 128.18 151.31 129.04 151.55 129.87 Z M 151.82 130.81 L 152.11 131.75 C 152.35 132.58 153.22 133.04 154.05 132.80 C 154.88 132.55 155.34 131.68 155.10 130.85 L 154.82 129.91 C 154.57 129.09 153.70 128.62 152.87 128.87 C 152.05 129.11 151.58 129.98 151.82 130.81 Z M 152.11 131.76 L 152.40 132.71 C 152.65 133.53 153.53 133.99 154.35 133.74 C 155.18 133.49 155.64 132.61 155.38 131.79 L 155.09 130.84 C 154.84 130.02 153.97 129.56 153.14 129.81 C 152.32 130.06 151.86 130.94 152.11 131.76 Z M 152.40 132.72 L 152.71 133.67 C 152.97 134.50 153.84 134.95 154.67 134.69 C 155.49 134.43 155.94 133.55 155.68 132.73 L 155.38 131.78 C 155.12 130.95 154.24 130.50 153.42 130.76 C 152.60 131.02 152.14 131.90 152.40 132.72 Z M 152.71 133.69 L 153.03 134.65 C 153.29 135.47 154.18 135.91 155.00 135.65 C 155.81 135.38 156.26 134.50 155.99 133.68 L 155.68 132.72 C 155.41 131.90 154.53 131.45 153.71 131.72 C 152.89 131.99 152.44 132.87 152.71 133.69 Z M 153.03 134.66 L 153.36 135.63 C 153.64 136.45 154.52 136.88 155.34 136.61 C 156.16 136.33 156.59 135.44 156.32 134.63 L 155.99 133.66 C 155.71 132.84 154.82 132.41 154.01 132.68 C 153.19 132.96 152.75 133.85 153.03 134.66 Z M 153.36 135.65 L 153.71 136.62 C 153.99 137.43 154.89 137.86 155.70 137.57 C 156.51 137.28 156.94 136.39 156.65 135.58 L 156.31 134.61 C 156.02 133.80 155.13 133.37 154.32 133.66 C 153.50 133.94 153.08 134.83 153.36 135.65 Z M 153.71 136.63 L 154.05 137.56 C 154.35 138.37 155.25 138.79 156.06 138.49 C 156.87 138.19 157.28 137.30 156.99 136.49 L 156.64 135.56 C 156.35 134.75 155.45 134.33 154.64 134.63 C 153.83 134.93 153.42 135.83 153.71 136.63 Z M 154.06 137.58 L 154.41 138.51 C 154.72 139.31 155.62 139.72 156.43 139.41 C 157.23 139.10 157.64 138.20 157.33 137.40 L 156.98 136.47 C 156.67 135.66 155.77 135.26 154.96 135.57 C 154.16 135.87 153.75 136.78 154.06 137.58 Z M 154.42 138.52 L 154.78 139.45 C 155.10 140.25 156.01 140.65 156.81 140.33 C 157.61 140.01 158.00 139.11 157.69 138.31 L 157.32 137.38 C 157.01 136.58 156.10 136.18 155.30 136.50 C 154.50 136.81 154.10 137.72 154.42 138.52 Z M 154.79 139.46 L 155.17 140.39 C 155.49 141.19 156.40 141.58 157.20 141.25 C 158.00 140.93 158.38 140.02 158.06 139.22 L 157.68 138.29 C 157.36 137.49 156.45 137.11 155.65 137.43 C 154.85 137.75 154.47 138.66 154.79 139.46 Z M 155.17 140.40 L 155.56 141.33 C 155.89 142.13 156.80 142.50 157.60 142.17 C 158.39 141.84 158.77 140.93 158.44 140.13 L 158.05 139.20 C 157.72 138.41 156.81 138.03 156.01 138.36 C 155.22 138.70 154.84 139.61 155.17 140.40 Z M 155.56 141.34 L 155.96 142.27 C 156.30 143.06 157.21 143.43 158.01 143.09 C 158.80 142.76 159.17 141.84 158.83 141.04 L 158.43 140.12 C 158.10 139.33 157.18 138.96 156.39 139.30 C 155.59 139.63 155.22 140.55 155.56 141.34 Z M 155.96 142.28 L 156.37 143.21 C 156.71 144.00 157.63 144.36 158.42 144.01 C 159.21 143.67 159.57 142.75 159.23 141.96 L 158.82 141.03 C 158.48 140.24 157.56 139.88 156.77 140.23 C 155.98 140.57 155.62 141.49 155.96 142.28 Z M 156.37 143.22 L 156.78 144.13 C 157.13 144.92 158.05 145.27 158.84 144.92 C 159.63 144.57 159.98 143.65 159.63 142.86 L 159.22 141.95 C 158.87 141.16 157.95 140.81 157.16 141.16 C 156.37 141.51 156.02 142.43 156.37 143.22 Z M 156.78 144.14 L 157.19 145.04 C 157.55 145.82 158.47 146.17 159.26 145.81 C 160.04 145.45 160.39 144.53 160.03 143.74 L 159.63 142.85 C 159.27 142.07 158.34 141.72 157.56 142.08 C 156.77 142.43 156.43 143.36 156.78 144.14 Z M 157.19 145.05 L 157.61 145.94 C 157.97 146.72 158.90 147.06 159.68 146.70 C 160.46 146.33 160.80 145.41 160.44 144.62 L 160.03 143.73 C 159.66 142.95 158.74 142.61 157.95 142.97 C 157.17 143.34 156.83 144.26 157.19 145.05 Z M 157.61 145.95 L 158.04 146.84 C 158.41 147.62 159.34 147.95 160.12 147.59 C 160.90 147.22 161.23 146.29 160.86 145.51 L 160.44 144.61 C 160.07 143.83 159.14 143.50 158.36 143.87 C 157.58 144.24 157.25 145.17 157.61 145.95 Z M 158.04 146.85 L 158.48 147.75 C 158.85 148.53 159.79 148.85 160.56 148.48 C 161.34 148.10 161.66 147.17 161.29 146.39 L 160.85 145.49 C 160.48 144.72 159.54 144.39 158.77 144.77 C 157.99 145.14 157.67 146.08 158.04 146.85 Z M 158.48 147.76 L 158.93 148.66 C 159.31 149.43 160.24 149.75 161.02 149.37 C 161.79 148.99 162.11 148.05 161.73 147.28 L 161.28 146.38 C 160.90 145.60 159.96 145.29 159.19 145.67 C 158.42 146.05 158.10 146.99 158.48 147.76 Z M 158.93 148.67 L 159.39 149.58 C 159.78 150.35 160.72 150.66 161.49 150.27 C 162.26 149.88 162.57 148.94 162.18 148.17 L 161.72 147.27 C 161.33 146.50 160.39 146.19 159.62 146.58 C 158.85 146.96 158.54 147.90 158.93 148.67 Z M 159.40 149.59 L 159.87 150.50 C 160.26 151.27 161.20 151.57 161.97 151.17 C 162.74 150.78 163.04 149.84 162.64 149.07 L 162.17 148.16 C 161.77 147.39 160.83 147.09 160.07 147.49 C 159.30 147.88 159.00 148.82 159.40 149.59 Z M 159.87 150.51 L 160.35 151.41 C 160.75 152.17 161.69 152.47 162.46 152.06 C 163.22 151.66 163.51 150.72 163.11 149.95 L 162.63 149.06 C 162.23 148.29 161.29 148.00 160.53 148.41 C 159.76 148.81 159.47 149.75 159.87 150.51 Z M 160.35 151.42 L 160.83 152.31 C 161.24 153.07 162.19 153.35 162.95 152.94 C 163.70 152.53 163.99 151.59 163.58 150.83 L 163.10 149.94 C 162.69 149.18 161.75 148.90 160.99 149.31 C 160.23 149.72 159.94 150.67 160.35 151.42 Z M 160.84 152.32 L 161.32 153.21 C 161.74 153.96 162.69 154.24 163.44 153.82 C 164.20 153.41 164.48 152.46 164.06 151.70 L 163.57 150.82 C 163.16 150.06 162.21 149.78 161.45 150.20 C 160.70 150.62 160.42 151.56 160.84 152.32 Z M 161.33 153.22 L 161.83 154.10 C 162.25 154.86 163.20 155.12 163.95 154.70 C 164.70 154.28 164.97 153.33 164.55 152.58 L 164.05 151.69 C 163.63 150.94 162.68 150.67 161.93 151.09 C 161.18 151.51 160.91 152.47 161.33 153.22 Z M 161.83 154.11 L 162.33 154.99 C 162.76 155.74 163.72 156.00 164.46 155.57 C 165.21 155.15 165.47 154.19 165.05 153.44 L 164.54 152.57 C 164.12 151.82 163.16 151.56 162.41 151.98 C 161.67 152.41 161.41 153.37 161.83 154.11 Z M 162.34 155.00 L 162.85 155.87 C 163.28 156.62 164.24 156.87 164.98 156.44 C 165.73 156.00 165.98 155.05 165.55 154.30 L 165.04 153.43 C 164.61 152.69 163.65 152.44 162.90 152.87 C 162.16 153.30 161.91 154.26 162.34 155.00 Z M 162.85 155.88 L 163.36 156.74 C 163.80 157.48 164.76 157.73 165.50 157.29 C 166.24 156.85 166.49 155.89 166.05 155.15 L 165.54 154.29 C 165.10 153.55 164.14 153.31 163.40 153.75 C 162.66 154.19 162.41 155.14 162.85 155.88 Z M 163.37 156.75 L 163.88 157.59 C 164.32 158.33 165.28 158.56 166.02 158.12 C 166.76 157.67 166.99 156.71 166.55 155.97 L 166.04 155.13 C 165.59 154.40 164.63 154.16 163.90 154.61 C 163.16 155.05 162.92 156.01 163.37 156.75 Z M 163.88 157.60 L 164.41 158.46 C 164.86 159.19 165.83 159.42 166.56 158.96 C 167.29 158.51 167.52 157.55 167.07 156.81 L 166.54 155.96 C 166.09 155.23 165.12 155.00 164.39 155.45 C 163.66 155.91 163.43 156.87 163.88 157.60 Z M 164.42 158.47 L 164.98 159.35 C 165.44 160.08 166.41 160.30 167.13 159.84 C 167.86 159.38 168.08 158.41 167.62 157.68 L 167.06 156.80 C 166.60 156.07 165.63 155.85 164.90 156.31 C 164.18 156.78 163.96 157.74 164.42 158.47 Z M 164.99 159.37 L 165.54 160.23 C 166.01 160.95 166.98 161.16 167.70 160.69 C 168.43 160.22 168.63 159.25 168.17 158.53 L 167.61 157.67 C 167.14 156.95 166.17 156.74 165.45 157.21 C 164.73 157.68 164.52 158.64 164.99 159.37 Z M 165.55 160.24 L 166.11 161.08 C 166.58 161.79 167.55 161.99 168.27 161.51 C 168.99 161.04 169.19 160.07 168.71 159.35 L 168.16 158.51 C 167.68 157.80 166.71 157.60 165.99 158.07 C 165.27 158.55 165.08 159.52 165.55 160.24 Z M 166.12 161.09 L 166.67 161.91 C 167.15 162.62 168.13 162.81 168.84 162.32 C 169.55 161.84 169.74 160.87 169.26 160.16 L 168.70 159.34 C 168.22 158.62 167.25 158.44 166.53 158.92 C 165.82 159.40 165.63 160.37 166.12 161.09 Z M 166.68 161.92 L 167.23 162.72 C 167.73 163.43 168.70 163.61 169.41 163.12 C 170.12 162.63 170.29 161.66 169.80 160.95 L 169.25 160.14 C 168.76 159.43 167.79 159.26 167.08 159.75 C 166.37 160.24 166.19 161.21 166.68 161.92 Z M 167.24 162.73 L 167.80 163.53 C 168.30 164.23 169.27 164.40 169.98 163.90 C 170.68 163.41 170.85 162.43 170.35 161.73 L 169.80 160.94 C 169.30 160.23 168.33 160.06 167.62 160.56 C 166.92 161.06 166.75 162.03 167.24 162.73 Z M 167.81 163.54 L 168.37 164.32 C 168.87 165.03 169.85 165.19 170.55 164.68 C 171.25 164.18 171.41 163.21 170.91 162.51 L 170.35 161.72 C 169.84 161.02 168.87 160.86 168.17 161.36 C 167.47 161.86 167.31 162.84 167.81 163.54 Z M 168.38 164.33 L 168.98 165.16 C 169.48 165.85 170.46 166.01 171.16 165.50 C 171.85 164.99 172.01 164.02 171.50 163.32 L 170.90 162.50 C 170.40 161.80 169.42 161.65 168.72 162.15 C 168.03 162.66 167.87 163.64 168.38 164.33 Z M 168.98 165.16 L 169.58 165.98 C 170.10 166.67 171.07 166.82 171.77 166.31 C 172.46 165.80 172.61 164.82 172.10 164.13 L 171.49 163.31 C 170.98 162.62 170.01 162.47 169.31 162.98 C 168.62 163.49 168.47 164.47 168.98 165.16 Z M 169.59 165.99 L 170.19 166.79 C 170.71 167.48 171.69 167.63 172.38 167.11 C 173.07 166.59 173.21 165.62 172.69 164.93 L 172.09 164.12 C 171.57 163.43 170.60 163.29 169.91 163.80 C 169.21 164.32 169.07 165.30 169.59 165.99 Z M 170.20 166.80 L 170.80 167.60 C 171.32 168.29 172.30 168.42 172.99 167.91 C 173.68 167.39 173.81 166.41 173.29 165.72 L 172.69 164.92 C 172.17 164.23 171.19 164.09 170.50 164.61 C 169.81 165.13 169.68 166.11 170.20 166.80 Z M 170.81 167.61 L 171.41 168.40 C 171.93 169.08 172.91 169.21 173.60 168.69 C 174.28 168.17 174.41 167.19 173.89 166.50 L 173.29 165.71 C 172.77 165.03 171.79 164.90 171.10 165.42 C 170.42 165.94 170.28 166.92 170.81 167.61 Z M 171.41 168.40 L 172.01 169.18 C 172.54 169.87 173.52 169.99 174.20 169.47 C 174.89 168.94 175.01 167.96 174.49 167.28 L 173.89 166.50 C 173.36 165.82 172.38 165.69 171.70 166.21 C 171.02 166.74 170.89 167.72 171.41 168.40 Z M 172.02 169.19 L 172.62 169.97 C 173.15 170.65 174.13 170.78 174.81 170.25 C 175.49 169.72 175.62 168.74 175.09 168.06 L 174.49 167.28 C 173.96 166.59 172.98 166.47 172.30 167.00 C 171.61 167.52 171.49 168.50 172.02 169.19 Z M 172.62 169.97 L 173.26 170.80 C 173.79 171.48 174.77 171.60 175.45 171.07 C 176.13 170.54 176.26 169.56 175.73 168.88 L 175.09 168.06 C 174.56 167.37 173.58 167.25 172.90 167.78 C 172.22 168.31 172.09 169.29 172.62 169.97 Z M 173.27 170.80 L 173.90 171.61 C 174.43 172.29 175.41 172.41 176.09 171.88 C 176.77 171.34 176.89 170.36 176.36 169.68 L 175.73 168.88 C 175.19 168.20 174.21 168.08 173.53 168.61 C 172.85 169.14 172.74 170.12 173.27 170.80 Z M 173.90 171.61 L 174.53 172.41 C 175.06 173.08 176.04 173.20 176.72 172.67 C 177.40 172.13 177.51 171.15 176.98 170.47 L 176.36 169.68 C 175.82 169.00 174.84 168.89 174.16 169.42 C 173.49 169.95 173.37 170.94 173.90 171.61 Z M 174.53 172.41 L 175.15 173.19 C 175.69 173.86 176.67 173.98 177.34 173.44 C 178.02 172.90 178.13 171.92 177.60 171.25 L 176.98 170.47 C 176.44 169.79 175.46 169.68 174.78 170.22 C 174.11 170.75 174.00 171.74 174.53 172.41 Z M 175.15 173.19 L 175.76 173.95 C 176.30 174.63 177.28 174.74 177.96 174.20 C 178.63 173.66 178.74 172.68 178.20 172.00 L 177.59 171.24 C 177.05 170.57 176.07 170.46 175.40 171.00 C 174.72 171.54 174.62 172.52 175.15 173.19 Z M 175.77 173.96 L 176.37 174.70 C 176.91 175.37 177.89 175.48 178.56 174.93 C 179.23 174.39 179.34 173.41 178.80 172.74 L 178.20 172.00 C 177.65 171.33 176.67 171.22 176.00 171.76 C 175.33 172.31 175.23 173.29 175.77 173.96 Z M 176.37 174.71 L 177.03 175.52 C 177.58 176.18 178.56 176.28 179.23 175.74 C 179.90 175.19 180.00 174.21 179.45 173.54 L 178.79 172.73 C 178.24 172.06 177.26 171.97 176.59 172.51 C 175.93 173.06 175.83 174.04 176.37 174.71 Z M 177.04 175.52 L 177.70 176.33 C 178.25 176.99 179.24 177.09 179.90 176.54 C 180.57 175.99 180.66 175.00 180.11 174.34 L 179.45 173.53 C 178.90 172.87 177.91 172.78 177.25 173.33 C 176.58 173.87 176.49 174.86 177.04 175.52 Z M 177.71 176.33 L 178.36 177.11 C 178.91 177.77 179.90 177.86 180.56 177.31 C 181.22 176.76 181.31 175.77 180.75 175.11 L 180.10 174.33 C 179.55 173.67 178.57 173.58 177.91 174.13 C 177.24 174.69 177.16 175.67 177.71 176.33 Z M 178.36 177.12 L 179.00 177.87 C 179.56 178.53 180.54 178.61 181.20 178.06 C 181.86 177.50 181.94 176.52 181.38 175.86 L 180.75 175.10 C 180.19 174.45 179.21 174.36 178.55 174.92 C 177.89 175.47 177.81 176.46 178.36 177.12 Z M 179.00 177.88 L 179.62 178.60 C 180.18 179.26 181.17 179.34 181.82 178.78 C 182.48 178.22 182.56 177.23 182.00 176.58 L 181.38 175.85 C 180.82 175.20 179.84 175.12 179.18 175.68 C 178.52 176.24 178.44 177.22 179.00 177.88 Z M 179.63 178.61 L 180.26 179.34 C 180.82 180.00 181.81 180.07 182.46 179.51 C 183.11 178.94 183.19 177.96 182.63 177.31 L 181.99 176.57 C 181.43 175.92 180.45 175.84 179.79 176.41 C 179.14 176.97 179.07 177.96 179.63 178.61 Z M 180.26 179.35 L 180.95 180.14 C 181.52 180.79 182.50 180.86 183.15 180.29 C 183.80 179.73 183.87 178.74 183.31 178.09 L 182.62 177.30 C 182.05 176.65 181.07 176.58 180.42 177.14 C 179.77 177.71 179.70 178.70 180.26 179.35 Z M 180.96 180.15 L 181.63 180.91 C 182.20 181.56 183.18 181.62 183.83 181.05 C 184.48 180.48 184.54 179.49 183.97 178.85 L 183.30 178.09 C 182.73 177.44 181.75 177.37 181.10 177.94 C 180.45 178.51 180.39 179.50 180.96 180.15 Z M 181.63 180.92 L 182.29 181.65 C 182.86 182.29 183.85 182.35 184.49 181.78 C 185.14 181.20 185.19 180.22 184.62 179.57 L 183.97 178.84 C 183.39 178.20 182.40 178.14 181.76 178.71 C 181.12 179.29 181.06 180.27 181.63 180.92 Z M 182.30 181.66 L 182.94 182.37 C 183.52 183.01 184.50 183.06 185.14 182.48 C 185.78 181.90 185.83 180.91 185.25 180.28 L 184.61 179.56 C 184.03 178.93 183.05 178.88 182.41 179.45 C 181.77 180.03 181.72 181.02 182.30 181.66 Z M 182.95 182.38 L 183.62 183.11 C 184.20 183.74 185.19 183.79 185.83 183.20 C 186.46 182.62 186.50 181.63 185.92 181.00 L 185.25 180.27 C 184.66 179.63 183.67 179.59 183.04 180.17 C 182.40 180.76 182.36 181.74 182.95 182.38 Z M 183.63 183.12 L 184.33 183.86 C 184.92 184.49 185.90 184.52 186.53 183.93 C 187.16 183.34 187.19 182.35 186.60 181.73 L 185.91 180.98 C 185.32 180.36 184.33 180.32 183.70 180.92 C 183.07 181.51 183.04 182.49 183.63 183.12 Z M 184.34 183.88 L 185.04 184.60 C 185.63 185.22 186.62 185.23 187.24 184.64 C 187.86 184.04 187.88 183.05 187.28 182.43 L 186.59 181.71 C 185.99 181.09 185.00 181.07 184.38 181.67 C 183.76 182.27 183.74 183.26 184.34 183.88 Z M 185.05 184.62 L 185.75 185.31 C 186.36 185.92 187.35 185.92 187.96 185.31 C 188.57 184.71 188.57 183.72 187.96 183.11 L 187.26 182.41 C 186.65 181.80 185.67 181.80 185.06 182.41 C 184.45 183.02 184.44 184.01 185.05 184.62 Z M 185.77 185.34 L 186.56 186.09 C 187.18 186.69 188.17 186.67 188.77 186.05 C 189.37 185.43 189.35 184.44 188.73 183.84 L 187.94 183.08 C 187.31 182.49 186.32 182.51 185.73 183.13 C 185.13 183.75 185.15 184.74 185.77 185.34 Z M 186.61 186.14 L 187.56 186.97 C 188.21 187.54 189.20 187.48 189.77 186.83 C 190.34 186.18 190.27 185.20 189.62 184.63 L 188.67 183.79 C 188.03 183.23 187.04 183.29 186.47 183.94 C 185.90 184.59 185.97 185.57 186.61 186.14 Z M 187.74 187.11 L 188.51 187.61 C 189.23 188.08 190.19 187.88 190.67 187.15 C 191.14 186.43 190.93 185.46 190.21 184.99 L 189.45 184.49 C 188.73 184.02 187.76 184.23 187.29 184.95 C 186.81 185.67 187.02 186.64 187.74 187.11 Z M 189.61 187.84 L 190.05 187.77 C 190.90 187.63 191.48 186.83 191.34 185.97 C 191.20 185.12 190.40 184.55 189.55 184.69 L 189.11 184.76 C 188.25 184.90 187.68 185.70 187.82 186.55 C 187.96 187.40 188.76 187.98 189.61 187.84 Z M 191.36 186.14 L 191.32 185.34 C 191.27 184.48 190.53 183.82 189.67 183.86 C 188.81 183.91 188.15 184.65 188.20 185.51 L 188.24 186.31 C 188.29 187.17 189.02 187.83 189.89 187.79 C 190.75 187.74 191.41 187.00 191.36 186.14 Z M 191.16 184.73 L 190.62 183.65 C 190.24 182.88 189.31 182.56 188.53 182.94 C 187.76 183.32 187.44 184.25 187.82 185.03 L 188.36 186.11 C 188.74 186.89 189.67 187.20 190.45 186.82 C 191.22 186.44 191.54 185.51 191.16 184.73 Z M 190.34 183.25 L 189.64 182.54 C 189.04 181.92 188.05 181.91 187.44 182.51 C 186.82 183.12 186.81 184.11 187.41 184.72 L 188.11 185.43 C 188.71 186.05 189.70 186.06 190.32 185.45 C 190.93 184.85 190.94 183.86 190.34 183.25 Z M 189.32 182.28 L 188.50 181.81 C 187.76 181.37 186.80 181.62 186.37 182.36 C 185.93 183.11 186.18 184.06 186.93 184.50 L 187.74 184.98 C 188.48 185.41 189.44 185.16 189.88 184.42 C 190.31 183.68 190.06 182.72 189.32 182.28 Z M 188.26 181.69 L 187.30 181.33 C 186.50 181.03 185.60 181.43 185.29 182.24 C 184.99 183.05 185.40 183.95 186.20 184.25 L 187.17 184.61 C 187.97 184.92 188.87 184.51 189.18 183.70 C 189.48 182.90 189.07 182.00 188.26 181.69 Z M 187.16 181.28 L 186.14 181.01 C 185.30 180.78 184.45 181.27 184.22 182.10 C 183.99 182.94 184.49 183.79 185.32 184.02 L 186.34 184.30 C 187.18 184.52 188.03 184.03 188.26 183.20 C 188.49 182.37 188.00 181.51 187.16 181.28 Z M 186.07 180.99 L 185.19 180.79 C 184.35 180.60 183.51 181.13 183.32 181.97 C 183.13 182.81 183.66 183.65 184.50 183.84 L 185.39 184.04 C 186.23 184.22 187.06 183.70 187.25 182.85 C 187.44 182.01 186.91 181.18 186.07 180.99 Z M 185.14 180.78 L 184.20 180.60 C 183.35 180.44 182.53 180.99 182.37 181.84 C 182.21 182.68 182.76 183.50 183.61 183.67 L 184.55 183.85 C 185.40 184.01 186.22 183.46 186.38 182.61 C 186.54 181.76 185.99 180.94 185.14 180.78 Z M 184.16 180.59 L 183.15 180.43 C 182.30 180.28 181.50 180.86 181.36 181.71 C 181.22 182.56 181.79 183.37 182.64 183.51 L 183.65 183.67 C 184.50 183.81 185.30 183.24 185.44 182.39 C 185.58 181.54 185.01 180.73 184.16 180.59 Z M 183.12 180.42 L 182.05 180.27 C 181.20 180.15 180.41 180.74 180.29 181.59 C 180.16 182.45 180.76 183.24 181.61 183.36 L 182.68 183.51 C 183.53 183.63 184.32 183.04 184.44 182.19 C 184.57 181.33 183.97 180.54 183.12 180.42 Z M 182.03 180.26 L 180.97 180.13 C 180.11 180.03 179.33 180.63 179.23 181.49 C 179.12 182.34 179.73 183.12 180.58 183.23 L 181.64 183.36 C 182.49 183.47 183.27 182.86 183.38 182.01 C 183.49 181.15 182.88 180.37 182.03 180.26 Z M 180.95 180.13 L 179.94 180.02 C 179.08 179.92 178.31 180.54 178.21 181.40 C 178.12 182.25 178.74 183.03 179.59 183.12 L 180.60 183.23 C 181.46 183.33 182.23 182.71 182.33 181.85 C 182.42 181.00 181.81 180.22 180.95 180.13 Z M 179.92 180.02 L 178.90 179.91 C 178.04 179.83 177.27 180.45 177.19 181.31 C 177.10 182.17 177.73 182.93 178.58 183.02 L 179.61 183.12 C 180.47 183.21 181.23 182.58 181.32 181.73 C 181.41 180.87 180.78 180.10 179.92 180.02 Z M 178.88 179.91 L 177.87 179.82 C 177.01 179.74 176.25 180.37 176.17 181.23 C 176.09 182.09 176.72 182.85 177.58 182.93 L 178.60 183.02 C 179.45 183.10 180.22 182.47 180.29 181.61 C 180.37 180.75 179.74 179.99 178.88 179.91 Z M 177.86 179.82 L 176.87 179.73 C 176.01 179.66 175.25 180.29 175.18 181.15 C 175.10 182.01 175.74 182.77 176.60 182.84 L 177.59 182.93 C 178.45 183.00 179.20 182.37 179.28 181.51 C 179.35 180.65 178.71 179.89 177.86 179.82 Z M 176.86 179.73 L 175.92 179.65 C 175.06 179.58 174.31 180.22 174.24 181.08 C 174.17 181.94 174.81 182.69 175.66 182.77 L 176.60 182.84 C 177.46 182.91 178.22 182.27 178.29 181.41 C 178.36 180.55 177.72 179.80 176.86 179.73 Z M 175.91 179.65 L 174.79 179.56 C 173.93 179.50 173.18 180.14 173.11 181.00 C 173.04 181.86 173.69 182.61 174.54 182.68 L 175.67 182.77 C 176.53 182.83 177.28 182.19 177.35 181.33 C 177.42 180.47 176.77 179.72 175.91 179.65 Z M 174.78 179.56 L 173.75 179.49 C 172.89 179.43 172.14 180.07 172.08 180.93 C 172.01 181.79 172.66 182.54 173.52 182.60 L 174.55 182.68 C 175.41 182.74 176.16 182.09 176.22 181.23 C 176.29 180.37 175.64 179.63 174.78 179.56 Z M 173.74 179.49 L 172.78 179.42 C 171.92 179.37 171.18 180.02 171.12 180.88 C 171.06 181.74 171.72 182.48 172.58 182.54 L 173.53 182.60 C 174.39 182.66 175.13 182.01 175.19 181.15 C 175.25 180.29 174.60 179.55 173.74 179.49 Z M 172.77 179.42 L 171.87 179.37 C 171.01 179.32 170.27 179.97 170.22 180.84 C 170.17 181.70 170.83 182.44 171.69 182.49 L 172.59 182.54 C 173.45 182.59 174.19 181.94 174.24 181.08 C 174.29 180.21 173.63 179.48 172.77 179.42 Z M 171.86 179.37 L 170.87 179.32 C 170.01 179.27 169.28 179.93 169.23 180.80 C 169.19 181.66 169.85 182.39 170.71 182.44 L 171.70 182.49 C 172.56 182.53 173.29 181.87 173.34 181.01 C 173.38 180.15 172.72 179.41 171.86 179.37 Z M 170.86 179.32 L 169.86 179.27 C 169.00 179.23 168.27 179.90 168.23 180.76 C 168.19 181.62 168.86 182.35 169.72 182.39 L 170.72 182.44 C 171.58 182.48 172.31 181.81 172.35 180.95 C 172.39 180.09 171.72 179.36 170.86 179.32 Z M 169.85 179.27 L 168.86 179.23 C 168.00 179.20 167.28 179.87 167.24 180.73 C 167.21 181.59 167.88 182.32 168.74 182.35 L 169.73 182.39 C 170.59 182.43 171.32 181.76 171.35 180.89 C 171.39 180.03 170.72 179.31 169.85 179.27 Z M 168.86 179.23 L 167.87 179.19 C 167.01 179.16 166.29 179.83 166.26 180.70 C 166.22 181.56 166.89 182.28 167.76 182.31 L 168.74 182.35 C 169.60 182.38 170.33 181.71 170.36 180.85 C 170.39 179.99 169.72 179.26 168.86 179.23 Z M 167.87 179.19 L 166.89 179.16 C 166.03 179.13 165.30 179.80 165.27 180.66 C 165.24 181.52 165.91 182.25 166.77 182.28 L 167.76 182.31 C 168.62 182.35 169.34 181.67 169.38 180.81 C 169.41 179.95 168.74 179.23 167.87 179.19 Z M 166.89 179.16 L 165.89 179.12 C 165.03 179.09 164.31 179.76 164.27 180.62 C 164.24 181.48 164.92 182.21 165.78 182.24 L 166.77 182.28 C 167.64 182.31 168.36 181.64 168.39 180.78 C 168.42 179.91 167.75 179.19 166.89 179.16 Z M 165.89 179.12 L 164.88 179.08 C 164.02 179.05 163.29 179.73 163.26 180.59 C 163.23 181.45 163.90 182.17 164.76 182.20 L 165.78 182.24 C 166.64 182.27 167.36 181.60 167.40 180.74 C 167.43 179.88 166.75 179.15 165.89 179.12 Z M 164.88 179.08 L 163.87 179.05 C 163.01 179.02 162.29 179.69 162.26 180.55 C 162.23 181.41 162.90 182.14 163.76 182.17 L 164.77 182.20 C 165.63 182.24 166.35 181.56 166.38 180.70 C 166.41 179.84 165.74 179.11 164.88 179.08 Z M 163.87 179.05 L 162.87 179.01 C 162.01 178.98 161.28 179.66 161.25 180.52 C 161.22 181.38 161.90 182.10 162.76 182.13 L 163.76 182.17 C 164.62 182.20 165.35 181.52 165.38 180.66 C 165.41 179.80 164.73 179.08 163.87 179.05 Z M 162.87 179.01 L 161.86 178.98 C 161.00 178.95 160.28 179.62 160.25 180.48 C 160.22 181.34 160.89 182.07 161.75 182.10 L 162.76 182.13 C 163.62 182.16 164.34 181.49 164.37 180.63 C 164.40 179.77 163.73 179.04 162.87 179.01 Z M 161.87 178.98 L 160.87 178.94 C 160.01 178.91 159.28 179.59 159.25 180.45 C 159.22 181.31 159.90 182.03 160.76 182.06 L 161.75 182.10 C 162.62 182.13 163.34 181.45 163.37 180.59 C 163.40 179.73 162.73 179.01 161.87 178.98 Z M 160.87 178.94 L 159.85 178.91 C 158.99 178.88 158.27 179.55 158.24 180.41 C 158.20 181.27 158.88 182.00 159.74 182.03 L 160.76 182.06 C 161.62 182.09 162.34 181.42 162.37 180.56 C 162.40 179.70 161.73 178.97 160.87 178.94 Z M 159.85 178.91 L 158.84 178.87 C 157.98 178.84 157.26 179.52 157.23 180.38 C 157.20 181.24 157.88 181.96 158.74 181.99 L 159.74 182.03 C 160.60 182.06 161.33 181.38 161.36 180.52 C 161.38 179.66 160.71 178.94 159.85 178.91 Z M 158.84 178.87 L 157.85 178.84 C 156.98 178.82 156.27 179.50 156.24 180.36 C 156.22 181.22 156.89 181.94 157.76 181.96 L 158.75 181.99 C 159.61 182.02 160.33 181.34 160.35 180.48 C 160.38 179.62 159.70 178.90 158.84 178.87 Z M 157.83 178.84 L 156.85 178.82 C 155.99 178.80 155.28 179.49 155.26 180.35 C 155.24 181.21 155.92 181.93 156.79 181.94 L 157.77 181.96 C 158.63 181.98 159.34 181.30 159.36 180.44 C 159.38 179.57 158.70 178.86 157.83 178.84 Z M 156.84 178.82 L 155.85 178.81 C 154.98 178.80 154.28 179.49 154.27 180.35 C 154.26 181.22 154.95 181.92 155.81 181.93 L 156.80 181.94 C 157.66 181.95 158.37 181.26 158.38 180.40 C 158.39 179.54 157.70 178.83 156.84 178.82 Z M 155.84 178.81 L 154.84 178.81 C 153.98 178.80 153.28 179.50 153.27 180.36 C 153.27 181.22 153.96 181.92 154.83 181.93 L 155.82 181.93 C 156.68 181.94 157.39 181.24 157.39 180.38 C 157.39 179.52 156.70 178.81 155.84 178.81 Z M 154.84 178.81 L 153.82 178.80 C 152.96 178.80 152.26 179.50 152.26 180.36 C 152.26 181.23 152.96 181.93 153.82 181.93 L 154.83 181.93 C 155.69 181.93 156.39 181.23 156.40 180.37 C 156.40 179.51 155.70 178.81 154.84 178.81 Z M 153.82 178.80 L 152.87 178.80 C 152.01 178.80 151.31 179.50 151.31 180.37 C 151.31 181.23 152.01 181.93 152.87 181.93 L 153.82 181.93 C 154.69 181.93 155.38 181.23 155.38 180.37 C 155.38 179.50 154.69 178.80 153.82 178.80 Z M 152.87 178.80 L 151.91 178.80 C 151.05 178.80 150.35 179.50 150.35 180.37 C 150.35 181.23 151.05 181.93 151.91 181.93 L 152.87 181.93 C 153.73 181.93 154.43 181.23 154.43 180.37 C 154.43 179.50 153.73 178.80 152.87 178.80 Z M 151.91 178.80 L 150.91 178.80 C 150.04 178.80 149.35 179.50 149.35 180.37 C 149.35 181.23 150.04 181.93 150.91 181.93 L 151.91 181.93 C 152.77 181.93 153.47 181.23 153.47 180.37 C 153.47 179.50 152.77 178.80 151.91 178.80 Z M 150.91 178.80 L 149.84 178.80 C 148.98 178.80 148.28 179.50 148.28 180.37 C 148.28 181.23 148.98 181.93 149.84 181.93 L 150.91 181.93 C 151.77 181.93 152.47 181.23 152.47 180.37 C 152.47 179.50 151.77 178.80 150.91 178.80 Z M 149.84 178.80 L 148.82 178.80 C 147.96 178.81 147.26 179.50 147.26 180.37 C 147.26 181.23 147.96 181.93 148.82 181.93 L 149.84 181.93 C 150.70 181.93 151.40 181.23 151.40 180.37 C 151.40 179.50 150.70 178.80 149.84 178.80 Z M 148.82 178.80 L 147.79 178.81 C 146.93 178.81 146.23 179.51 146.24 180.37 C 146.24 181.23 146.94 181.93 147.80 181.93 L 148.82 181.93 C 149.69 181.93 150.38 181.22 150.38 180.36 C 150.38 179.50 149.68 178.80 148.82 178.80 Z M 147.79 178.81 L 146.76 178.81 C 145.90 178.82 145.21 179.52 145.21 180.39 C 145.22 181.25 145.92 181.94 146.78 181.94 L 147.81 181.93 C 148.67 181.92 149.37 181.22 149.36 180.36 C 149.35 179.50 148.65 178.80 147.79 178.81 Z M 146.75 178.81 L 145.75 178.83 C 144.89 178.84 144.20 179.55 144.21 180.41 C 144.23 181.28 144.94 181.96 145.80 181.95 L 146.80 181.94 C 147.66 181.92 148.35 181.21 148.33 180.35 C 148.32 179.49 147.61 178.80 146.75 178.81 Z M 145.73 178.83 L 144.74 178.86 C 143.88 178.88 143.20 179.60 143.23 180.46 C 143.25 181.32 143.97 182.00 144.83 181.98 L 145.82 181.95 C 146.68 181.93 147.36 181.21 147.34 180.35 C 147.31 179.49 146.59 178.81 145.73 178.83 Z M 144.71 178.86 L 143.64 178.91 C 142.78 178.95 142.11 179.68 142.15 180.54 C 142.19 181.40 142.92 182.07 143.78 182.03 L 144.86 181.98 C 145.72 181.94 146.39 181.21 146.35 180.35 C 146.31 179.49 145.58 178.82 144.71 178.86 Z M 143.61 178.91 L 142.63 178.97 C 141.77 179.03 141.11 179.77 141.17 180.63 C 141.22 181.49 141.97 182.14 142.83 182.09 L 143.81 182.03 C 144.67 181.97 145.33 181.23 145.27 180.37 C 145.22 179.51 144.47 178.85 143.61 178.91 Z M 142.61 178.97 L 141.67 179.05 C 140.81 179.11 140.17 179.86 140.24 180.72 C 140.30 181.58 141.05 182.22 141.91 182.16 L 142.84 182.09 C 143.70 182.02 144.35 181.27 144.28 180.41 C 144.22 179.55 143.47 178.91 142.61 178.97 Z M 141.67 179.05 L 141.30 179.07 C 140.44 179.14 139.80 179.90 139.87 180.76 C 139.94 181.61 140.69 182.26 141.55 182.19 L 141.92 182.16 C 142.78 182.09 143.42 181.34 143.35 180.48 C 143.28 179.62 142.53 178.98 141.67 179.05 Z"
      fill="black"
      fill-rule="nonzero" /><path d="M 94.10 182.81 L 93.22 183.44 C 92.52 183.94 92.36 184.92 92.86 185.62 C 93.36 186.32 94.34 186.48 95.04 185.98 L 95.92 185.35 C 96.62 184.85 96.78 183.87 96.28 183.17 C 95.78 182.47 94.80 182.31 94.10 182.81 Z M 93.21 183.45 L 92.35 184.07 C 91.66 184.58 91.50 185.55 92.01 186.25 C 92.51 186.95 93.49 187.11 94.19 186.60 L 95.05 185.97 C 95.75 185.47 95.90 184.49 95.39 183.79 C 94.89 183.10 93.91 182.94 93.21 183.45 Z M 92.34 184.08 L 91.51 184.70 C 90.82 185.21 90.68 186.19 91.20 186.88 C 91.71 187.57 92.69 187.72 93.38 187.20 L 94.20 186.59 C 94.89 186.07 95.04 185.09 94.52 184.40 C 94.01 183.71 93.03 183.57 92.34 184.08 Z M 91.49 184.72 L 90.72 185.32 C 90.04 185.85 89.92 186.83 90.45 187.51 C 90.98 188.19 91.96 188.31 92.64 187.78 L 93.41 187.18 C 94.09 186.65 94.21 185.67 93.68 184.99 C 93.15 184.31 92.17 184.19 91.49 184.72 Z M 90.68 185.35 L 89.99 185.92 C 89.33 186.48 89.24 187.46 89.80 188.12 C 90.35 188.78 91.33 188.87 92.00 188.32 L 92.68 187.74 C 93.35 187.19 93.43 186.21 92.88 185.54 C 92.33 184.88 91.34 184.80 90.68 185.35 Z M 89.92 185.98 L 89.20 186.66 C 88.58 187.25 88.55 188.24 89.14 188.87 C 89.73 189.50 90.72 189.53 91.34 188.94 L 92.06 188.26 C 92.69 187.67 92.72 186.68 92.13 186.05 C 91.54 185.42 90.55 185.39 89.92 185.98 Z M 89.09 186.79 L 88.47 187.51 C 87.91 188.17 87.99 189.16 88.64 189.71 C 89.30 190.27 90.28 190.20 90.84 189.54 L 91.46 188.81 C 92.02 188.15 91.94 187.17 91.29 186.61 C 90.63 186.05 89.65 186.13 89.09 186.79 Z M 88.33 187.71 L 87.83 188.51 C 87.38 189.25 87.61 190.21 88.34 190.66 C 89.07 191.11 90.04 190.88 90.49 190.15 L 90.98 189.35 C 91.44 188.61 91.21 187.65 90.47 187.20 C 89.74 186.74 88.78 186.97 88.33 187.71 Z M 87.72 188.73 L 87.32 189.68 C 86.98 190.47 87.36 191.39 88.15 191.72 C 88.95 192.06 89.86 191.69 90.20 190.89 L 90.60 189.94 C 90.93 189.14 90.56 188.23 89.76 187.89 C 88.97 187.56 88.05 187.93 87.72 188.73 Z M 87.26 189.84 L 86.99 190.76 C 86.74 191.58 87.21 192.45 88.04 192.70 C 88.87 192.94 89.74 192.47 89.98 191.65 L 90.25 190.73 C 90.50 189.90 90.03 189.03 89.20 188.79 C 88.38 188.54 87.51 189.01 87.26 189.84 Z M 86.96 190.85 L 86.75 191.80 C 86.55 192.64 87.08 193.48 87.92 193.67 C 88.76 193.86 89.60 193.34 89.79 192.50 L 90.01 191.55 C 90.20 190.71 89.67 189.87 88.83 189.68 C 87.99 189.49 87.16 190.01 86.96 190.85 Z M 86.73 191.87 L 86.55 192.88 C 86.39 193.73 86.95 194.54 87.80 194.70 C 88.65 194.85 89.46 194.29 89.62 193.44 L 89.80 192.43 C 89.96 191.58 89.40 190.77 88.55 190.61 C 87.70 190.46 86.89 191.02 86.73 191.87 Z M 86.54 192.93 L 86.38 193.97 C 86.26 194.82 86.85 195.62 87.70 195.74 C 88.55 195.87 89.35 195.28 89.47 194.43 L 89.63 193.39 C 89.75 192.54 89.16 191.74 88.31 191.62 C 87.46 191.49 86.67 192.08 86.54 192.93 Z M 86.38 194.01 L 86.26 195.04 C 86.15 195.90 86.76 196.67 87.62 196.78 C 88.48 196.88 89.25 196.27 89.36 195.41 L 89.48 194.39 C 89.58 193.53 88.97 192.75 88.11 192.65 C 87.26 192.55 86.48 193.16 86.38 194.01 Z M 86.25 195.08 L 86.16 196.11 C 86.08 196.97 86.71 197.73 87.57 197.81 C 88.42 197.89 89.18 197.26 89.26 196.40 L 89.36 195.37 C 89.44 194.51 88.81 193.75 87.95 193.67 C 87.09 193.59 86.33 194.22 86.25 195.08 Z M 86.15 196.15 L 86.08 197.22 C 86.03 198.08 86.68 198.82 87.54 198.87 C 88.40 198.93 89.14 198.28 89.20 197.42 L 89.27 196.35 C 89.32 195.49 88.67 194.75 87.81 194.70 C 86.95 194.64 86.21 195.29 86.15 196.15 Z M 86.08 197.26 L 86.04 198.25 C 86.01 199.12 86.68 199.84 87.54 199.87 C 88.41 199.91 89.13 199.23 89.16 198.37 L 89.20 197.38 C 89.23 196.51 88.56 195.79 87.70 195.76 C 86.84 195.72 86.11 196.40 86.08 197.26 Z M 86.04 198.29 L 86.03 199.25 C 86.01 200.11 86.70 200.82 87.56 200.83 C 88.42 200.85 89.13 200.16 89.15 199.30 L 89.16 198.34 C 89.18 197.48 88.49 196.77 87.63 196.75 C 86.77 196.74 86.06 197.42 86.04 198.29 Z M 86.03 199.27 L 86.02 200.22 C 86.02 201.08 86.72 201.78 87.58 201.78 C 88.44 201.79 89.14 201.09 89.15 200.23 L 89.15 199.28 C 89.15 198.41 88.46 197.71 87.59 197.71 C 86.73 197.71 86.03 198.40 86.03 199.27 Z M 86.02 200.22 L 86.02 201.17 C 86.02 202.03 86.72 202.73 87.58 202.73 C 88.45 202.73 89.15 202.03 89.15 201.17 L 89.15 200.22 C 89.15 199.36 88.45 198.66 87.58 198.66 C 86.72 198.66 86.02 199.36 86.02 200.22 Z M 86.02 201.17 L 86.02 202.13 C 86.02 202.99 86.72 203.69 87.59 203.69 C 88.45 203.69 89.15 202.99 89.15 202.13 L 89.15 201.16 C 89.14 200.30 88.45 199.60 87.58 199.61 C 86.72 199.61 86.02 200.31 86.02 201.17 Z M 86.02 202.13 L 86.03 203.13 C 86.03 203.99 86.73 204.68 87.59 204.68 C 88.46 204.68 89.15 203.98 89.15 203.12 L 89.15 202.12 C 89.14 201.26 88.44 200.56 87.58 200.57 C 86.72 200.57 86.02 201.27 86.02 202.13 Z M 86.03 203.13 L 86.03 204.15 C 86.04 205.02 86.74 205.71 87.60 205.71 C 88.47 205.70 89.16 205.00 89.16 204.14 L 89.15 203.11 C 89.14 202.25 88.44 201.55 87.58 201.56 C 86.72 201.56 86.02 202.27 86.03 203.13 Z M 86.03 204.16 L 86.04 205.22 C 86.05 206.08 86.76 206.77 87.62 206.76 C 88.48 206.76 89.17 206.05 89.17 205.19 L 89.16 204.13 C 89.15 203.27 88.44 202.58 87.58 202.58 C 86.72 202.59 86.02 203.30 86.03 204.16 Z M 86.04 205.23 L 86.06 206.18 C 86.07 207.04 86.78 207.73 87.64 207.71 C 88.50 207.70 89.19 206.99 89.18 206.13 L 89.17 205.18 C 89.15 204.32 88.44 203.63 87.58 203.64 C 86.72 203.66 86.03 204.36 86.04 205.23 Z M 86.06 206.19 L 86.08 207.15 C 86.10 208.01 86.81 208.69 87.68 208.67 C 88.54 208.65 89.22 207.94 89.20 207.08 L 89.18 206.12 C 89.16 205.26 88.45 204.57 87.58 204.59 C 86.72 204.61 86.04 205.33 86.06 206.19 Z M 86.08 207.16 L 86.11 208.15 C 86.14 209.01 86.86 209.69 87.73 209.66 C 88.59 209.63 89.26 208.91 89.23 208.05 L 89.20 207.06 C 89.17 206.20 88.45 205.52 87.59 205.55 C 86.73 205.58 86.05 206.30 86.08 207.16 Z M 86.11 208.17 L 86.16 209.19 C 86.20 210.05 86.94 210.71 87.80 210.67 C 88.66 210.63 89.32 209.90 89.28 209.04 L 89.23 208.03 C 89.19 207.16 88.46 206.50 87.60 206.54 C 86.74 206.58 86.07 207.31 86.11 208.17 Z M 86.16 209.21 L 86.23 210.26 C 86.29 211.12 87.03 211.77 87.89 211.71 C 88.75 211.66 89.40 210.92 89.35 210.06 L 89.28 209.01 C 89.22 208.15 88.48 207.50 87.62 207.56 C 86.76 207.61 86.11 208.35 86.16 209.21 Z M 86.23 210.29 L 86.32 211.33 C 86.39 212.18 87.15 212.82 88.01 212.75 C 88.87 212.68 89.50 211.92 89.43 211.07 L 89.35 210.03 C 89.27 209.17 88.52 208.53 87.66 208.60 C 86.80 208.67 86.16 209.43 86.23 210.29 Z M 86.32 211.35 L 86.42 212.34 C 86.51 213.20 87.28 213.82 88.14 213.73 C 88.99 213.65 89.62 212.88 89.53 212.02 L 89.43 211.04 C 89.34 210.18 88.57 209.55 87.72 209.64 C 86.86 209.73 86.24 210.50 86.32 211.35 Z M 86.43 212.37 L 86.55 213.36 C 86.65 214.22 87.43 214.83 88.28 214.73 C 89.14 214.63 89.75 213.85 89.65 212.99 L 89.53 212.00 C 89.43 211.14 88.65 210.53 87.79 210.63 C 86.94 210.73 86.32 211.51 86.43 212.37 Z M 86.55 213.39 L 86.69 214.39 C 86.80 215.25 87.59 215.84 88.44 215.73 C 89.30 215.61 89.90 214.83 89.78 213.97 L 89.64 212.97 C 89.53 212.11 88.74 211.52 87.89 211.63 C 87.03 211.75 86.43 212.53 86.55 213.39 Z M 86.69 214.41 L 86.84 215.41 C 86.97 216.27 87.76 216.85 88.62 216.73 C 89.47 216.60 90.06 215.80 89.93 214.95 L 89.78 213.95 C 89.65 213.10 88.85 212.51 88.00 212.64 C 87.15 212.77 86.56 213.56 86.69 214.41 Z M 86.84 215.44 L 87.01 216.43 C 87.15 217.28 87.95 217.85 88.80 217.71 C 89.66 217.57 90.23 216.76 90.09 215.91 L 89.92 214.93 C 89.78 214.07 88.98 213.50 88.13 213.64 C 87.28 213.78 86.70 214.59 86.84 215.44 Z M 87.01 216.45 L 87.19 217.42 C 87.34 218.27 88.16 218.83 89.01 218.68 C 89.85 218.53 90.42 217.71 90.26 216.86 L 90.08 215.89 C 89.93 215.04 89.12 214.48 88.27 214.63 C 87.42 214.79 86.86 215.60 87.01 216.45 Z M 87.19 217.45 L 87.40 218.47 C 87.57 219.32 88.39 219.87 89.23 219.70 C 90.08 219.53 90.63 218.71 90.46 217.86 L 90.26 216.84 C 90.09 215.99 89.27 215.44 88.42 215.61 C 87.58 215.78 87.03 216.60 87.19 217.45 Z M 87.40 218.50 L 87.62 219.49 C 87.80 220.34 88.64 220.87 89.48 220.69 C 90.32 220.51 90.85 219.67 90.67 218.83 L 90.45 217.84 C 90.27 216.99 89.44 216.46 88.60 216.64 C 87.76 216.83 87.22 217.66 87.40 218.50 Z M 87.63 219.52 L 87.86 220.49 C 88.06 221.33 88.90 221.85 89.74 221.65 C 90.57 221.46 91.09 220.61 90.90 219.78 L 90.67 218.80 C 90.47 217.96 89.63 217.45 88.79 217.64 C 87.95 217.84 87.43 218.68 87.63 219.52 Z M 87.86 220.52 L 88.11 221.48 C 88.32 222.31 89.17 222.81 90.01 222.60 C 90.84 222.39 91.35 221.54 91.13 220.70 L 90.89 219.75 C 90.67 218.91 89.82 218.41 88.99 218.62 C 88.15 218.84 87.65 219.69 87.86 220.52 Z M 88.12 221.50 L 88.37 222.44 C 88.60 223.27 89.46 223.76 90.30 223.53 C 91.13 223.30 91.61 222.44 91.38 221.61 L 91.12 220.67 C 90.90 219.84 90.04 219.35 89.20 219.58 C 88.37 219.81 87.89 220.67 88.12 221.50 Z M 88.38 222.47 L 88.66 223.41 C 88.91 224.24 89.78 224.71 90.60 224.47 C 91.43 224.22 91.90 223.35 91.66 222.52 L 91.38 221.58 C 91.13 220.75 90.26 220.28 89.44 220.53 C 88.61 220.77 88.14 221.64 88.38 222.47 Z M 88.67 223.44 L 88.98 224.41 C 89.24 225.23 90.12 225.68 90.94 225.42 C 91.76 225.16 92.21 224.28 91.95 223.46 L 91.65 222.50 C 91.39 221.67 90.51 221.22 89.69 221.48 C 88.86 221.74 88.41 222.62 88.67 223.44 Z M 88.99 224.44 L 89.31 225.39 C 89.59 226.21 90.47 226.64 91.29 226.37 C 92.11 226.09 92.54 225.20 92.27 224.39 L 91.94 223.43 C 91.67 222.62 90.78 222.18 89.96 222.46 C 89.15 222.73 88.71 223.62 88.99 224.44 Z M 89.32 225.42 L 89.66 226.36 C 89.95 227.17 90.85 227.59 91.66 227.30 C 92.47 227.01 92.89 226.11 92.60 225.30 L 92.26 224.36 C 91.97 223.55 91.07 223.13 90.26 223.42 C 89.45 223.71 89.03 224.61 89.32 225.42 Z M 89.67 226.39 L 90.02 227.31 C 90.33 228.12 91.24 228.52 92.04 228.22 C 92.85 227.91 93.25 227.01 92.94 226.20 L 92.59 225.27 C 92.28 224.47 91.38 224.06 90.57 224.37 C 89.77 224.68 89.36 225.58 89.67 226.39 Z M 90.04 227.34 L 90.40 228.25 C 90.73 229.05 91.64 229.44 92.44 229.12 C 93.24 228.79 93.62 227.88 93.30 227.08 L 92.93 226.17 C 92.61 225.37 91.70 224.99 90.90 225.31 C 90.10 225.63 89.71 226.54 90.04 227.34 Z M 90.42 228.28 L 90.82 229.23 C 91.16 230.02 92.08 230.39 92.87 230.05 C 93.66 229.71 94.03 228.79 93.69 228.00 L 93.29 227.05 C 92.95 226.26 92.03 225.89 91.24 226.23 C 90.44 226.57 90.08 227.49 90.42 228.28 Z M 90.84 229.26 L 91.26 230.19 C 91.61 230.97 92.54 231.32 93.32 230.96 C 94.11 230.60 94.46 229.68 94.10 228.89 L 93.68 227.97 C 93.32 227.18 92.39 226.83 91.61 227.19 C 90.82 227.55 90.48 228.47 90.84 229.26 Z M 91.27 230.22 L 91.71 231.12 C 92.09 231.90 93.02 232.22 93.80 231.85 C 94.57 231.47 94.90 230.54 94.52 229.76 L 94.08 228.86 C 93.71 228.08 92.77 227.76 92.00 228.13 C 91.22 228.51 90.90 229.44 91.27 230.22 Z M 91.73 231.16 L 92.18 232.04 C 92.57 232.80 93.52 233.10 94.28 232.71 C 95.05 232.31 95.35 231.37 94.96 230.61 L 94.50 229.73 C 94.11 228.96 93.17 228.66 92.40 229.06 C 91.63 229.45 91.33 230.39 91.73 231.16 Z M 92.20 232.07 L 92.67 232.92 C 93.08 233.68 94.03 233.95 94.79 233.54 C 95.54 233.12 95.82 232.17 95.40 231.42 L 94.94 230.57 C 94.52 229.81 93.57 229.54 92.82 229.95 C 92.06 230.37 91.78 231.32 92.20 232.07 Z M 92.69 232.96 L 93.21 233.84 C 93.65 234.59 94.60 234.83 95.35 234.39 C 96.09 233.96 96.34 233.00 95.90 232.26 L 95.38 231.38 C 94.94 230.64 93.98 230.39 93.24 230.83 C 92.50 231.26 92.25 232.22 92.69 232.96 Z M 93.24 233.89 L 93.78 234.75 C 94.25 235.48 95.21 235.69 95.94 235.23 C 96.67 234.77 96.88 233.80 96.42 233.07 L 95.87 232.21 C 95.41 231.49 94.44 231.27 93.72 231.73 C 92.99 232.19 92.77 233.16 93.24 233.89 Z M 93.81 234.79 L 94.38 235.62 C 94.87 236.33 95.84 236.51 96.55 236.02 C 97.26 235.54 97.44 234.57 96.95 233.85 L 96.39 233.03 C 95.90 232.32 94.93 232.14 94.22 232.62 C 93.51 233.11 93.33 234.08 93.81 234.79 Z M 94.41 235.67 L 95.00 236.45 C 95.51 237.15 96.49 237.29 97.18 236.78 C 97.87 236.27 98.02 235.29 97.51 234.60 L 96.92 233.81 C 96.41 233.11 95.43 232.97 94.74 233.48 C 94.04 233.99 93.90 234.97 94.41 235.67 Z M 95.03 236.50 L 95.64 237.26 C 96.18 237.93 97.16 238.04 97.83 237.50 C 98.50 236.96 98.61 235.98 98.07 235.31 L 97.47 234.55 C 96.93 233.88 95.95 233.77 95.27 234.31 C 94.60 234.85 94.49 235.83 95.03 236.50 Z M 95.68 237.30 L 96.34 238.07 C 96.91 238.72 97.89 238.79 98.54 238.23 C 99.19 237.66 99.27 236.68 98.70 236.03 L 98.04 235.26 C 97.47 234.61 96.48 234.54 95.83 235.10 C 95.18 235.67 95.11 236.65 95.68 237.30 Z M 96.38 238.12 L 97.06 238.85 C 97.65 239.48 98.64 239.51 99.27 238.92 C 99.90 238.33 99.93 237.35 99.35 236.72 L 98.66 235.98 C 98.07 235.35 97.08 235.32 96.45 235.91 C 95.82 236.50 95.79 237.49 96.38 238.12 Z M 97.10 238.88 L 97.80 239.59 C 98.41 240.20 99.40 240.20 100.01 239.59 C 100.62 238.98 100.62 237.99 100.01 237.38 L 99.31 236.68 C 98.70 236.07 97.71 236.07 97.10 236.68 C 96.49 237.28 96.49 238.27 97.10 238.88 Z M 97.83 239.62 L 98.55 240.30 C 99.17 240.89 100.16 240.87 100.76 240.24 C 101.35 239.62 101.32 238.63 100.70 238.04 L 99.98 237.35 C 99.36 236.76 98.37 236.79 97.77 237.41 C 97.18 238.04 97.21 239.02 97.83 239.62 Z M 98.57 240.32 L 99.34 241.01 C 99.97 241.59 100.96 241.54 101.54 240.91 C 102.12 240.27 102.07 239.28 101.43 238.70 L 100.67 238.01 C 100.03 237.43 99.05 237.48 98.47 238.12 C 97.89 238.76 97.94 239.74 98.57 240.32 Z M 99.37 241.04 L 100.15 241.71 C 100.80 242.28 101.79 242.20 102.35 241.55 C 102.91 240.89 102.84 239.91 102.18 239.35 L 101.40 238.67 C 100.75 238.11 99.76 238.19 99.20 238.84 C 98.64 239.49 98.71 240.48 99.37 241.04 Z M 100.19 241.75 L 100.97 242.38 C 101.65 242.92 102.63 242.81 103.17 242.13 C 103.71 241.46 103.60 240.48 102.93 239.94 L 102.14 239.31 C 101.47 238.77 100.49 238.88 99.95 239.55 C 99.41 240.23 99.52 241.21 100.19 241.75 Z M 101.03 242.42 L 101.81 242.99 C 102.51 243.50 103.48 243.34 103.99 242.64 C 104.50 241.95 104.35 240.97 103.65 240.46 L 102.87 239.90 C 102.17 239.39 101.20 239.54 100.69 240.24 C 100.18 240.94 100.33 241.91 101.03 242.42 Z M 101.89 243.04 L 102.75 243.59 C 103.48 244.05 104.44 243.83 104.90 243.10 C 105.36 242.37 105.15 241.41 104.42 240.95 L 103.56 240.41 C 102.84 239.95 101.87 240.16 101.41 240.89 C 100.95 241.62 101.17 242.58 101.89 243.04 Z M 102.86 243.65 L 103.76 244.12 C 104.52 244.53 105.47 244.23 105.87 243.47 C 106.27 242.71 105.98 241.76 105.22 241.36 L 104.31 240.89 C 103.55 240.48 102.60 240.78 102.20 241.54 C 101.80 242.30 102.09 243.25 102.86 243.65 Z M 103.87 244.18 L 104.77 244.56 C 105.56 244.90 106.48 244.53 106.82 243.74 C 107.16 242.95 106.79 242.03 106.00 241.69 L 105.10 241.31 C 104.31 240.97 103.39 241.34 103.05 242.13 C 102.71 242.92 103.08 243.84 103.87 244.18 Z M 104.88 244.60 L 105.78 244.91 C 106.59 245.20 107.48 244.76 107.77 243.95 C 108.05 243.13 107.62 242.25 106.80 241.96 L 105.90 241.65 C 105.08 241.37 104.19 241.80 103.91 242.62 C 103.63 243.43 104.06 244.32 104.88 244.60 Z M 105.87 244.94 L 106.82 245.21 C 107.65 245.44 108.51 244.95 108.74 244.12 C 108.97 243.29 108.48 242.43 107.65 242.20 L 106.71 241.93 C 105.87 241.71 105.01 242.19 104.79 243.02 C 104.56 243.85 105.04 244.71 105.87 244.94 Z M 106.92 245.23 L 107.89 245.43 C 108.74 245.61 109.56 245.06 109.74 244.22 C 109.91 243.38 109.37 242.55 108.53 242.37 L 107.56 242.17 C 106.71 242.00 105.88 242.54 105.71 243.38 C 105.53 244.23 106.08 245.05 106.92 245.23 Z M 107.99 245.45 L 109.00 245.59 C 109.85 245.71 110.64 245.12 110.76 244.26 C 110.88 243.41 110.29 242.62 109.44 242.50 L 108.43 242.36 C 107.57 242.24 106.78 242.83 106.66 243.69 C 106.54 244.54 107.14 245.33 107.99 245.45 Z M 109.09 245.60 L 110.04 245.68 C 110.90 245.75 111.66 245.11 111.73 244.25 C 111.80 243.39 111.16 242.64 110.30 242.57 L 109.34 242.49 C 108.49 242.42 107.73 243.06 107.66 243.92 C 107.59 244.78 108.23 245.53 109.09 245.60 Z M 110.11 245.68 L 111.08 245.72 C 111.94 245.75 112.67 245.08 112.70 244.22 C 112.73 243.36 112.06 242.63 111.20 242.60 L 110.23 242.56 C 109.37 242.53 108.64 243.20 108.61 244.06 C 108.58 244.92 109.25 245.65 110.11 245.68 Z M 111.12 245.72 L 112.14 245.74 C 113.00 245.75 113.71 245.06 113.72 244.20 C 113.73 243.33 113.04 242.63 112.18 242.61 L 111.16 242.60 C 110.30 242.59 109.59 243.28 109.58 244.14 C 109.57 245.00 110.26 245.71 111.12 245.72 Z M 112.15 245.74 L 113.21 245.74 C 114.08 245.74 114.78 245.04 114.78 244.18 C 114.78 243.32 114.08 242.62 113.22 242.62 L 112.16 242.61 C 111.30 242.61 110.60 243.31 110.60 244.17 C 110.59 245.03 111.29 245.73 112.15 245.74 Z M 113.22 245.74 L 114.15 245.74 C 115.01 245.74 115.71 245.04 115.71 244.17 C 115.71 243.31 115.01 242.61 114.15 242.61 L 113.22 242.62 C 112.35 242.62 111.65 243.32 111.66 244.18 C 111.66 245.04 112.36 245.74 113.22 245.74 Z M 114.16 245.74 L 115.14 245.73 C 116.00 245.72 116.69 245.01 116.68 244.15 C 116.67 243.29 115.97 242.60 115.11 242.61 L 114.14 242.61 C 113.27 242.62 112.58 243.33 112.59 244.19 C 112.60 245.05 113.30 245.74 114.16 245.74 Z M 115.16 245.73 L 116.17 245.70 C 117.03 245.68 117.71 244.97 117.69 244.11 C 117.67 243.24 116.96 242.56 116.10 242.58 L 115.08 242.61 C 114.22 242.63 113.54 243.34 113.56 244.20 C 113.58 245.06 114.30 245.75 115.16 245.73 Z M 116.20 245.70 L 117.25 245.66 C 118.11 245.62 118.78 244.89 118.74 244.03 C 118.70 243.17 117.98 242.50 117.11 242.54 L 116.06 242.58 C 115.20 242.62 114.53 243.35 114.57 244.21 C 114.61 245.07 115.34 245.74 116.20 245.70 Z M 117.29 245.65 L 118.28 245.59 C 119.14 245.53 119.79 244.79 119.73 243.93 C 119.67 243.07 118.93 242.41 118.07 242.47 L 117.08 242.54 C 116.22 242.60 115.57 243.34 115.62 244.20 C 115.68 245.06 116.43 245.71 117.29 245.65 Z M 118.31 245.59 L 119.25 245.50 C 120.11 245.42 120.74 244.66 120.66 243.80 C 120.58 242.95 119.82 242.31 118.97 242.39 L 118.03 242.48 C 117.17 242.55 116.54 243.31 116.62 244.17 C 116.70 245.03 117.45 245.66 118.31 245.59 Z M 119.28 245.50 L 120.25 245.39 C 121.11 245.29 121.72 244.52 121.62 243.66 C 121.53 242.80 120.76 242.19 119.90 242.29 L 118.93 242.39 C 118.08 242.49 117.46 243.26 117.56 244.12 C 117.65 244.98 118.43 245.59 119.28 245.50 Z M 120.28 245.38 L 121.28 245.25 C 122.13 245.14 122.73 244.35 122.62 243.50 C 122.51 242.64 121.72 242.04 120.87 242.16 L 119.87 242.29 C 119.01 242.40 118.41 243.19 118.53 244.04 C 118.64 244.90 119.43 245.50 120.28 245.38 Z M 121.31 245.25 L 122.35 245.09 C 123.20 244.96 123.78 244.16 123.65 243.31 C 123.52 242.45 122.72 241.87 121.87 242.00 L 120.84 242.16 C 119.98 242.29 119.40 243.09 119.53 243.94 C 119.66 244.79 120.46 245.38 121.31 245.25 Z M 122.37 245.08 L 123.43 244.90 C 124.28 244.75 124.85 243.95 124.70 243.10 C 124.56 242.25 123.75 241.68 122.90 241.82 L 121.84 242.01 C 120.99 242.15 120.42 242.96 120.57 243.81 C 120.72 244.66 121.52 245.23 122.37 245.08 Z M 123.45 244.90 L 124.40 244.72 C 125.25 244.56 125.81 243.74 125.65 242.89 C 125.49 242.05 124.67 241.49 123.82 241.65 L 122.87 241.83 C 122.03 241.99 121.47 242.80 121.63 243.65 C 121.79 244.50 122.61 245.06 123.45 244.90 Z M 124.42 244.71 L 125.39 244.52 C 126.24 244.34 126.78 243.52 126.61 242.68 C 126.44 241.83 125.62 241.28 124.77 241.46 L 123.80 241.65 C 122.96 241.82 122.41 242.65 122.58 243.49 C 122.75 244.34 123.58 244.88 124.42 244.71 Z M 125.41 244.51 L 126.39 244.30 C 127.24 244.12 127.77 243.29 127.59 242.45 C 127.41 241.60 126.58 241.07 125.73 241.25 L 124.75 241.46 C 123.91 241.64 123.37 242.47 123.55 243.32 C 123.74 244.16 124.57 244.69 125.41 244.51 Z M 126.41 244.30 L 127.40 244.07 C 128.24 243.88 128.77 243.04 128.58 242.20 C 128.39 241.36 127.55 240.84 126.71 241.03 L 125.72 241.25 C 124.88 241.44 124.35 242.28 124.54 243.12 C 124.73 243.96 125.57 244.49 126.41 244.30 Z M 127.42 244.07 L 128.41 243.83 C 129.25 243.63 129.76 242.79 129.56 241.95 C 129.36 241.11 128.52 240.59 127.68 240.79 L 126.69 241.03 C 125.85 241.23 125.34 242.07 125.54 242.91 C 125.74 243.75 126.58 244.27 127.42 244.07 Z M 128.42 243.83 L 129.41 243.58 C 130.24 243.37 130.75 242.52 130.54 241.69 C 130.33 240.85 129.48 240.34 128.65 240.55 L 127.67 240.80 C 126.83 241.01 126.32 241.85 126.53 242.69 C 126.74 243.53 127.59 244.04 128.42 243.83 Z M 129.42 243.58 L 130.41 243.32 C 131.24 243.10 131.74 242.25 131.52 241.41 C 131.31 240.58 130.45 240.08 129.62 240.30 L 128.63 240.56 C 127.80 240.77 127.30 241.63 127.52 242.46 C 127.73 243.30 128.59 243.80 129.42 243.58 Z M 130.42 243.32 L 131.40 243.05 C 132.23 242.82 132.72 241.97 132.50 241.13 C 132.27 240.30 131.41 239.81 130.58 240.04 L 129.60 240.30 C 128.77 240.53 128.28 241.39 128.51 242.22 C 128.73 243.05 129.59 243.54 130.42 243.32 Z M 131.41 243.05 L 132.38 242.77 C 133.21 242.54 133.69 241.68 133.46 240.85 C 133.22 240.02 132.36 239.54 131.53 239.77 L 130.57 240.04 C 129.74 240.27 129.25 241.14 129.49 241.97 C 129.72 242.80 130.58 243.28 131.41 243.05 Z M 132.39 242.77 L 133.35 242.49 C 134.17 242.25 134.65 241.39 134.41 240.56 C 134.17 239.73 133.30 239.26 132.48 239.50 L 131.52 239.77 C 130.69 240.01 130.22 240.88 130.46 241.71 C 130.70 242.53 131.56 243.01 132.39 242.77 Z M 133.36 242.49 L 134.30 242.21 C 135.13 241.96 135.60 241.09 135.36 240.27 C 135.11 239.44 134.24 238.97 133.42 239.22 L 132.47 239.50 C 131.64 239.74 131.17 240.61 131.41 241.44 C 131.66 242.27 132.53 242.74 133.36 242.49 Z M 134.31 242.21 L 135.26 241.92 C 136.08 241.67 136.55 240.80 136.30 239.97 C 136.05 239.15 135.18 238.68 134.35 238.93 L 133.41 239.22 C 132.58 239.47 132.12 240.34 132.37 241.17 C 132.62 241.99 133.49 242.46 134.31 242.21 Z M 135.26 241.92 L 136.22 241.62 C 137.04 241.37 137.51 240.50 137.25 239.67 C 137.00 238.85 136.13 238.39 135.30 238.64 L 134.35 238.93 C 133.52 239.19 133.06 240.06 133.31 240.89 C 133.57 241.71 134.44 242.17 135.26 241.92 Z M 136.23 241.62 L 137.19 241.32 C 138.01 241.07 138.47 240.19 138.22 239.37 C 137.96 238.54 137.09 238.09 136.26 238.34 L 135.30 238.64 C 134.47 238.90 134.01 239.77 134.27 240.60 C 134.53 241.42 135.40 241.88 136.23 241.62 Z M 137.20 241.32 L 138.16 241.02 C 138.98 240.76 139.44 239.88 139.18 239.06 C 138.92 238.24 138.04 237.78 137.22 238.04 L 136.26 238.34 C 135.44 238.60 134.98 239.48 135.24 240.30 C 135.50 241.12 136.37 241.58 137.20 241.32 Z M 138.16 241.02 L 139.12 240.71 C 139.94 240.45 140.39 239.57 140.13 238.75 C 139.87 237.93 138.99 237.47 138.17 237.74 L 137.21 238.04 C 136.39 238.30 135.94 239.18 136.20 240.00 C 136.46 240.83 137.34 241.28 138.16 241.02 Z M 139.13 240.71 L 140.07 240.40 C 140.89 240.14 141.34 239.26 141.08 238.44 C 140.81 237.62 139.93 237.17 139.11 237.43 L 138.16 237.74 C 137.34 238.00 136.89 238.88 137.16 239.70 C 137.43 240.52 138.31 240.97 139.13 240.71 Z M 140.08 240.40 L 141.02 240.09 C 141.83 239.82 142.28 238.94 142.01 238.12 C 141.74 237.30 140.86 236.86 140.04 237.13 L 139.10 237.43 C 138.29 237.70 137.84 238.59 138.11 239.40 C 138.38 240.22 139.26 240.67 140.08 240.40 Z M 141.02 240.09 L 141.98 239.77 C 142.80 239.50 143.24 238.61 142.97 237.79 C 142.70 236.98 141.81 236.54 140.99 236.81 L 140.03 237.13 C 139.22 237.40 138.77 238.29 139.05 239.10 C 139.32 239.92 140.20 240.36 141.02 240.09 Z M 141.99 239.77 L 142.96 239.44 C 143.78 239.16 144.22 238.27 143.94 237.46 C 143.66 236.64 142.78 236.20 141.96 236.48 L 140.99 236.81 C 140.17 237.09 139.73 237.97 140.01 238.79 C 140.29 239.61 141.17 240.04 141.99 239.77 Z M 142.97 239.43 L 143.93 239.11 C 144.74 238.83 145.18 237.94 144.90 237.12 C 144.62 236.31 143.73 235.87 142.91 236.15 L 141.96 236.48 C 141.14 236.76 140.71 237.65 140.99 238.47 C 141.27 239.28 142.15 239.72 142.97 239.43 Z M 143.93 239.10 L 144.87 238.78 C 145.69 238.49 146.12 237.60 145.84 236.79 C 145.55 235.97 144.66 235.54 143.85 235.83 L 142.91 236.15 C 142.09 236.44 141.66 237.33 141.95 238.14 C 142.23 238.96 143.12 239.39 143.93 239.10 Z M 144.88 238.77 L 145.80 238.45 C 146.62 238.16 147.04 237.27 146.76 236.46 C 146.47 235.65 145.58 235.22 144.77 235.50 L 143.84 235.83 C 143.03 236.11 142.60 237.01 142.89 237.82 C 143.17 238.63 144.07 239.06 144.88 238.77 Z M 145.81 238.45 L 146.71 238.13 C 147.53 237.84 147.95 236.95 147.66 236.13 C 147.38 235.32 146.48 234.90 145.67 235.18 L 144.76 235.51 C 143.95 235.79 143.53 236.69 143.81 237.50 C 144.10 238.31 144.99 238.74 145.81 238.45 Z M 146.72 238.13 L 147.70 237.78 C 148.51 237.49 148.93 236.59 148.64 235.78 C 148.36 234.97 147.46 234.55 146.65 234.84 L 145.67 235.19 C 144.86 235.47 144.43 236.37 144.72 237.18 C 145.01 237.99 145.90 238.42 146.72 238.13 Z M 147.70 237.78 L 148.67 237.43 C 149.48 237.14 149.90 236.24 149.61 235.43 C 149.32 234.62 148.42 234.20 147.61 234.49 L 146.65 234.84 C 145.84 235.13 145.41 236.02 145.70 236.83 C 146.00 237.65 146.89 238.07 147.70 237.78 Z M 148.67 237.43 L 149.61 237.09 C 150.43 236.79 150.84 235.90 150.55 235.09 C 150.26 234.28 149.36 233.86 148.55 234.15 L 147.61 234.49 C 146.80 234.79 146.38 235.68 146.67 236.49 C 146.97 237.30 147.86 237.72 148.67 237.43 Z M 149.62 237.08 L 150.54 236.75 C 151.35 236.45 151.76 235.55 151.47 234.74 C 151.17 233.94 150.28 233.52 149.47 233.82 L 148.55 234.15 C 147.74 234.45 147.32 235.34 147.62 236.15 C 147.91 236.96 148.81 237.38 149.62 237.08 Z M 150.54 236.75 L 151.44 236.41 C 152.25 236.11 152.66 235.22 152.36 234.41 C 152.06 233.60 151.16 233.19 150.35 233.49 L 149.46 233.82 C 148.65 234.12 148.24 235.01 148.54 235.82 C 148.84 236.63 149.74 237.04 150.54 236.75 Z M 151.45 236.41 L 152.39 236.06 C 153.20 235.75 153.61 234.85 153.30 234.05 C 153.00 233.24 152.10 232.83 151.29 233.13 L 150.35 233.49 C 149.54 233.79 149.13 234.69 149.44 235.50 C 149.74 236.31 150.64 236.71 151.45 236.41 Z M 152.39 236.06 L 153.33 235.70 C 154.13 235.40 154.54 234.50 154.24 233.69 C 153.93 232.88 153.03 232.48 152.22 232.78 L 151.29 233.14 C 150.48 233.44 150.08 234.34 150.38 235.15 C 150.69 235.95 151.59 236.36 152.39 236.06 Z M 153.33 235.70 L 154.25 235.35 C 155.06 235.05 155.47 234.15 155.16 233.34 C 154.86 232.54 153.96 232.13 153.15 232.43 L 152.22 232.78 C 151.42 233.09 151.01 233.99 151.32 234.79 C 151.62 235.60 152.52 236.01 153.33 235.70 Z M 154.25 235.36 L 155.18 235.01 C 155.99 234.71 156.40 233.81 156.09 233.00 C 155.79 232.19 154.89 231.78 154.09 232.08 L 153.16 232.43 C 152.35 232.73 151.94 233.63 152.24 234.44 C 152.54 235.25 153.44 235.66 154.25 235.36 Z M 155.17 235.01 L 156.11 234.67 C 156.92 234.37 157.34 233.48 157.04 232.67 C 156.75 231.86 155.85 231.44 155.04 231.74 L 154.10 232.08 C 153.29 232.38 152.87 233.27 153.17 234.08 C 153.46 234.89 154.36 235.31 155.17 235.01 Z M 156.10 234.67 L 157.05 234.33 C 157.87 234.04 158.29 233.15 158.00 232.34 C 157.71 231.52 156.82 231.10 156.01 231.39 L 155.05 231.73 C 154.24 232.02 153.82 232.91 154.10 233.73 C 154.39 234.54 155.29 234.96 156.10 234.67 Z M 157.04 234.34 L 158.00 234.00 C 158.82 233.72 159.25 232.83 158.97 232.02 C 158.68 231.20 157.79 230.77 156.98 231.05 L 156.02 231.39 C 155.20 231.67 154.77 232.56 155.06 233.37 C 155.34 234.19 156.23 234.62 157.04 234.34 Z M 157.99 234.01 L 158.94 233.68 C 159.76 233.41 160.20 232.52 159.92 231.71 C 159.65 230.89 158.76 230.45 157.95 230.73 L 156.99 231.05 C 156.18 231.32 155.74 232.21 156.01 233.03 C 156.29 233.84 157.17 234.28 157.99 234.01 Z M 158.93 233.69 L 159.86 233.38 C 160.68 233.12 161.13 232.23 160.86 231.42 C 160.59 230.60 159.71 230.15 158.89 230.42 L 157.96 230.72 C 157.14 230.99 156.69 231.87 156.96 232.69 C 157.23 233.51 158.11 233.96 158.93 233.69 Z M 159.84 233.39 L 160.82 233.08 C 161.64 232.82 162.10 231.95 161.84 231.12 C 161.58 230.30 160.70 229.85 159.88 230.11 L 158.91 230.41 C 158.08 230.67 157.63 231.55 157.89 232.37 C 158.15 233.19 159.02 233.65 159.84 233.39 Z M 160.80 233.09 L 161.77 232.80 C 162.60 232.55 163.07 231.68 162.82 230.85 C 162.57 230.03 161.70 229.56 160.87 229.81 L 159.90 230.10 C 159.07 230.35 158.60 231.22 158.85 232.04 C 159.10 232.87 159.97 233.34 160.80 233.09 Z M 161.75 232.80 L 162.69 232.54 C 163.52 232.30 164.01 231.44 163.77 230.61 C 163.54 229.78 162.68 229.30 161.85 229.53 L 160.90 229.80 C 160.07 230.03 159.59 230.89 159.82 231.72 C 160.05 232.55 160.92 233.04 161.75 232.80 Z M 162.67 232.55 L 163.61 232.30 C 164.44 232.08 164.94 231.23 164.72 230.40 C 164.50 229.56 163.65 229.06 162.82 229.28 L 161.88 229.52 C 161.04 229.74 160.54 230.59 160.76 231.43 C 160.98 232.26 161.83 232.76 162.67 232.55 Z M 163.58 232.31 L 164.53 232.08 C 165.37 231.88 165.88 231.03 165.68 230.20 C 165.48 229.36 164.64 228.84 163.80 229.04 L 162.85 229.27 C 162.01 229.47 161.49 230.32 161.69 231.15 C 161.89 231.99 162.74 232.51 163.58 232.31 Z M 164.50 232.08 L 165.47 231.87 C 166.32 231.68 166.85 230.85 166.66 230.01 C 166.47 229.16 165.64 228.63 164.80 228.82 L 163.83 229.04 C 162.98 229.22 162.45 230.06 162.64 230.90 C 162.83 231.74 163.66 232.27 164.50 232.08 Z M 165.46 231.87 L 166.44 231.67 C 167.28 231.49 167.82 230.66 167.64 229.82 C 167.47 228.97 166.64 228.43 165.80 228.61 L 164.81 228.82 C 163.97 228.99 163.43 229.82 163.61 230.67 C 163.78 231.51 164.61 232.05 165.46 231.87 Z M 166.43 231.67 L 167.41 231.47 C 168.26 231.30 168.80 230.47 168.63 229.63 C 168.46 228.78 167.64 228.24 166.79 228.41 L 165.81 228.61 C 164.96 228.78 164.41 229.60 164.59 230.45 C 164.76 231.29 165.58 231.84 166.43 231.67 Z M 167.41 231.47 L 168.40 231.27 C 169.24 231.10 169.79 230.28 169.62 229.44 C 169.45 228.59 168.63 228.04 167.79 228.21 L 166.80 228.41 C 165.95 228.58 165.40 229.40 165.57 230.25 C 165.74 231.09 166.56 231.64 167.41 231.47 Z M 168.39 231.27 L 169.38 231.08 C 170.23 230.91 170.78 230.09 170.61 229.25 C 170.44 228.40 169.62 227.85 168.78 228.02 L 167.79 228.21 C 166.94 228.38 166.39 229.20 166.56 230.04 C 166.73 230.89 167.55 231.44 168.39 231.27 Z M 169.37 231.08 L 170.35 230.90 C 171.20 230.74 171.76 229.92 171.60 229.07 C 171.44 228.23 170.62 227.67 169.78 227.83 L 168.79 228.01 C 167.94 228.17 167.39 228.99 167.54 229.84 C 167.70 230.68 168.52 231.24 169.37 231.08 Z M 170.33 230.90 L 171.31 230.73 C 172.16 230.58 172.73 229.78 172.58 228.93 C 172.43 228.08 171.63 227.51 170.78 227.65 L 169.80 227.82 C 168.95 227.97 168.38 228.78 168.53 229.63 C 168.67 230.48 169.48 231.05 170.33 230.90 Z M 171.28 230.74 L 172.27 230.59 C 173.13 230.46 173.71 229.66 173.58 228.81 C 173.45 227.96 172.66 227.37 171.81 227.50 L 170.81 227.65 C 169.96 227.78 169.37 228.58 169.50 229.43 C 169.63 230.28 170.42 230.87 171.28 230.74 Z M 172.24 230.59 L 173.25 230.46 C 174.11 230.35 174.71 229.57 174.60 228.71 C 174.49 227.86 173.70 227.25 172.85 227.36 L 171.84 227.49 C 170.98 227.60 170.38 228.39 170.49 229.24 C 170.60 230.10 171.39 230.70 172.24 230.59 Z M 173.22 230.46 L 174.22 230.35 C 175.07 230.26 175.69 229.48 175.60 228.63 C 175.50 227.77 174.73 227.15 173.87 227.25 L 172.88 227.36 C 172.02 227.45 171.40 228.23 171.50 229.08 C 171.59 229.94 172.37 230.56 173.22 230.46 Z M 174.20 230.35 L 175.17 230.26 C 176.03 230.17 176.66 229.41 176.57 228.55 C 176.49 227.69 175.72 227.07 174.86 227.15 L 173.89 227.25 C 173.03 227.33 172.41 228.09 172.49 228.95 C 172.58 229.81 173.34 230.44 174.20 230.35 Z M 175.16 230.26 L 176.16 230.17 C 177.02 230.09 177.65 229.33 177.58 228.48 C 177.50 227.62 176.74 226.98 175.88 227.06 L 174.88 227.15 C 174.02 227.23 173.39 227.98 173.46 228.84 C 173.54 229.70 174.30 230.34 175.16 230.26 Z M 176.15 230.17 L 177.15 230.09 C 178.01 230.02 178.65 229.27 178.58 228.41 C 178.51 227.55 177.76 226.91 176.90 226.98 L 175.89 227.06 C 175.04 227.13 174.40 227.88 174.46 228.74 C 174.53 229.60 175.29 230.24 176.15 230.17 Z M 177.14 230.09 L 178.12 230.02 C 178.98 229.96 179.63 229.21 179.57 228.35 C 179.51 227.49 178.76 226.84 177.90 226.91 L 176.91 226.98 C 176.05 227.04 175.41 227.78 175.47 228.64 C 175.53 229.50 176.28 230.15 177.14 230.09 Z M 178.11 230.02 L 179.07 229.96 C 179.93 229.91 180.59 229.17 180.54 228.31 C 180.48 227.45 179.74 226.79 178.88 226.84 L 177.92 226.90 C 177.05 226.96 176.40 227.70 176.45 228.56 C 176.51 229.42 177.25 230.07 178.11 230.02 Z M 179.06 229.96 L 179.97 229.92 C 180.83 229.87 181.49 229.14 181.45 228.28 C 181.40 227.42 180.67 226.75 179.81 226.80 L 178.90 226.84 C 178.04 226.89 177.37 227.62 177.42 228.48 C 177.46 229.34 178.19 230.01 179.06 229.96 Z M 179.95 229.92 L 180.91 229.88 C 181.77 229.85 182.44 229.12 182.41 228.26 C 182.37 227.40 181.65 226.73 180.79 226.76 L 179.83 226.80 C 178.97 226.83 178.30 227.56 178.33 228.42 C 178.36 229.28 179.09 229.95 179.95 229.92 Z M 180.89 229.88 L 181.94 229.85 C 182.80 229.83 183.48 229.11 183.45 228.25 C 183.43 227.39 182.71 226.71 181.85 226.73 L 180.81 226.76 C 179.94 226.78 179.26 227.50 179.29 228.36 C 179.31 229.22 180.03 229.90 180.89 229.88 Z M 181.92 229.85 L 182.97 229.84 C 183.84 229.82 184.52 229.11 184.51 228.25 C 184.49 227.39 183.78 226.70 182.92 226.71 L 181.87 226.73 C 181.01 226.75 180.32 227.46 180.33 228.32 C 180.35 229.18 181.06 229.87 181.92 229.85 Z M 182.96 229.84 L 183.88 229.83 C 184.74 229.82 185.44 229.11 185.43 228.25 C 185.42 227.39 184.71 226.70 183.85 226.71 L 182.93 226.71 C 182.07 226.72 181.38 227.43 181.39 228.29 C 181.39 229.15 182.10 229.84 182.96 229.84 Z M 183.88 229.83 L 184.86 229.82 C 185.72 229.82 186.41 229.11 186.41 228.25 C 186.40 227.39 185.70 226.69 184.84 226.70 L 183.86 226.71 C 183.00 226.71 182.30 227.41 182.31 228.27 C 182.31 229.14 183.01 229.83 183.88 229.83 Z M 184.85 229.82 L 185.87 229.82 C 186.74 229.82 187.43 229.12 187.43 228.25 C 187.43 227.39 186.73 226.69 185.87 226.70 L 184.84 226.70 C 183.98 226.70 183.28 227.40 183.29 228.27 C 183.29 229.13 183.99 229.82 184.85 229.82 Z M 185.87 229.82 L 186.93 229.82 C 187.79 229.82 188.49 229.12 188.49 228.26 C 188.48 227.39 187.78 226.70 186.92 226.70 L 185.87 226.70 C 185.01 226.70 184.31 227.40 184.31 228.26 C 184.31 229.12 185.01 229.82 185.87 229.82 Z M 186.92 229.82 L 187.98 229.82 C 188.84 229.82 189.54 229.12 189.54 228.26 C 189.54 227.39 188.84 226.70 187.98 226.70 L 186.92 226.70 C 186.06 226.70 185.36 227.40 185.36 228.26 C 185.36 229.12 186.06 229.82 186.92 229.82 Z"
      fill="black"
      fill-rule="nonzero" /></svg>