<svg xmlns="http://www.w3.org/2000/svg" width="300" height="300" viewBox="0 0 300 300">
<path d="M 107.39 114.87 L 106.79 113.80 C 106.38 113.04 105.43 112.77 104.67 113.19 C 103.92 113.60 103.64 114.55 104.06 115.31 L 104.65 116.38 C 105.07 117.14 106.02 117.41 106.77 116.99 C 107.53 116.58 107.80 115.63 107.39 114.87 Z M 106.83 113.88 L 106.35 112.87 C 105.98 112.09 105.04 111.77 104.27 112.14 C 103.49 112.51 103.16 113.45 103.54 114.22 L 104.02 115.23 C 104.39 116.01 105.33 116.33 106.10 115.96 C 106.88 115.59 107.21 114.65 106.83 113.88 Z M 106.43 113.09 L 106.17 112.22 C 105.92 111.40 105.04 110.93 104.22 111.19 C 103.39 111.44 102.93 112.31 103.18 113.14 L 103.45 114.01 C 103.70 114.83 104.58 115.29 105.40 115.04 C 106.22 114.79 106.69 113.91 106.43 113.09 Z M 106.23 112.83 L 106.29 112.16 C 106.37 111.30 105.74 110.54 104.89 110.46 C 104.03 110.38 103.27 111.01 103.19 111.86 L 103.12 112.53 C 103.04 113.39 103.67 114.15 104.53 114.23 C 105.39 114.31 106.15 113.68 106.23 112.83 Z M 105.73 113.22 L 106.29 112.76 C 106.95 112.21 107.05 111.23 106.50 110.56 C 105.95 109.89 104.97 109.80 104.30 110.35 L 103.75 110.80 C 103.08 111.35 102.99 112.34 103.53 113.00 C 104.08 113.67 105.07 113.76 105.73 113.22 Z M 105.63 113.08 L 106.58 112.87 C 107.43 112.68 107.96 111.85 107.77 111.01 C 107.59 110.16 106.75 109.63 105.91 109.82 L 104.96 110.03 C 104.12 110.21 103.59 111.05 103.77 111.89 C 103.96 112.73 104.79 113.26 105.63 113.08 Z M 106.33 112.90 L 107.52 112.84 C 108.38 112.79 109.04 112.05 108.99 111.19 C 108.94 110.33 108.21 109.67 107.35 109.72 L 106.16 109.78 C 105.30 109.83 104.64 110.57 104.69 111.43 C 104.74 112.29 105.47 112.95 106.33 112.90 Z M 107.45 112.84 L 108.55 112.82 C 109.41 112.81 110.10 112.10 110.09 111.24 C 110.08 110.38 109.37 109.69 108.51 109.70 L 107.41 109.72 C 106.55 109.73 105.86 110.44 105.87 111.30 C 105.88 112.16 106.59 112.85 107.45 112.84 Z M 108.54 112.82 L 109.57 112.81 C 110.44 112.81 111.13 112.10 111.12 111.24 C 111.12 110.38 110.41 109.69 109.55 109.69 L 108.52 109.70 C 107.66 109.71 106.96 110.41 106.97 111.27 C 106.98 112.14 107.68 112.83 108.54 112.82 Z M 109.57 112.81 L 110.58 112.81 C 111.44 112.81 112.14 112.11 112.13 111.24 C 112.13 110.38 111.43 109.69 110.57 109.69 L 109.56 109.69 C 108.70 109.69 108.00 110.40 108.00 111.26 C 108.00 112.12 108.71 112.82 109.57 112.81 Z M 110.57 112.81 L 111.54 112.81 C 112.40 112.81 113.10 112.11 113.10 111.25 C 113.10 110.39 112.40 109.69 111.53 109.69 L 110.57 109.69 C 109.71 109.69 109.01 110.39 109.01 111.25 C 109.01 112.11 109.71 112.81 110.57 112.81 Z M 111.54 112.81 L 112.54 112.81 C 113.41 112.81 114.10 112.11 114.10 111.25 C 114.10 110.39 113.41 109.69 112.54 109.69 L 111.54 109.69 C 110.67 109.69 109.97 110.39 109.97 111.25 C 109.97 112.11 110.67 112.81 111.54 112.81 Z M 112.54 112.81 L 113.54 112.81 C 114.41 112.81 115.11 112.12 115.11 111.25 C 115.11 110.39 114.41 109.69 113.55 109.69 L 112.55 109.69 C 111.68 109.69 110.98 110.38 110.98 111.25 C 110.98 112.11 111.68 112.81 112.54 112.81 Z M 113.53 112.81 L 114.50 112.82 C 115.37 112.83 116.07 112.13 116.08 111.27 C 116.08 110.41 115.39 109.70 114.53 109.70 L 113.56 109.69 C 112.70 109.68 111.99 110.38 111.99 111.24 C 111.98 112.10 112.67 112.81 113.53 112.81 Z M 114.49 112.82 L 115.46 112.84 C 116.32 112.85 117.03 112.16 117.04 111.30 C 117.06 110.44 116.37 109.73 115.51 109.71 L 114.54 109.70 C 113.68 109.68 112.97 110.37 112.96 111.23 C 112.94 112.09 113.63 112.81 114.49 112.82 Z M 115.44 112.84 L 116.38 112.86 C 117.24 112.88 117.96 112.20 117.98 111.34 C 118.00 110.48 117.32 109.76 116.46 109.74 L 115.52 109.71 C 114.66 109.69 113.94 110.37 113.92 111.23 C 113.90 112.10 114.58 112.81 115.44 112.84 Z M 116.36 112.86 L 117.35 112.89 C 118.21 112.92 118.94 112.25 118.97 111.39 C 118.99 110.52 118.32 109.80 117.46 109.77 L 116.47 109.74 C 115.61 109.71 114.89 110.38 114.86 111.25 C 114.83 112.11 115.50 112.83 116.36 112.86 Z M 117.34 112.89 L 118.39 112.94 C 119.25 112.97 119.97 112.30 120.01 111.44 C 120.05 110.58 119.38 109.85 118.52 109.82 L 117.47 109.77 C 116.61 109.74 115.88 110.41 115.84 111.27 C 115.81 112.13 116.48 112.86 117.34 112.89 Z M 118.38 112.94 L 119.39 112.98 C 120.25 113.02 120.98 112.36 121.02 111.50 C 121.06 110.64 120.40 109.91 119.54 109.86 L 118.52 109.82 C 117.66 109.78 116.93 110.44 116.89 111.30 C 116.85 112.16 117.52 112.90 118.38 112.94 Z M 119.39 112.98 L 120.33 113.03 C 121.20 113.07 121.93 112.41 121.97 111.55 C 122.01 110.69 121.35 109.96 120.49 109.91 L 119.54 109.86 C 118.68 109.82 117.95 110.49 117.90 111.35 C 117.86 112.21 118.52 112.94 119.39 112.98 Z M 120.34 113.03 L 121.33 113.08 C 122.19 113.12 122.92 112.46 122.96 111.59 C 123.00 110.73 122.34 110.00 121.47 109.96 L 120.49 109.91 C 119.63 109.87 118.89 110.54 118.85 111.40 C 118.81 112.26 119.48 112.99 120.34 113.03 Z M 121.33 113.08 L 122.36 113.12 C 123.22 113.16 123.95 112.49 123.99 111.63 C 124.02 110.77 123.35 110.04 122.49 110.00 L 121.47 109.96 C 120.60 109.92 119.88 110.59 119.84 111.45 C 119.80 112.31 120.47 113.04 121.33 113.08 Z M 122.37 113.12 L 123.43 113.16 C 124.29 113.19 125.02 112.51 125.05 111.65 C 125.07 110.79 124.40 110.07 123.54 110.04 L 122.48 110.00 C 121.62 109.97 120.89 110.65 120.87 111.51 C 120.84 112.37 121.51 113.09 122.37 113.12 Z M 123.45 113.16 L 124.40 113.18 C 125.26 113.20 125.98 112.52 126.00 111.66 C 126.02 110.79 125.34 110.08 124.47 110.06 L 123.52 110.04 C 122.66 110.02 121.94 110.70 121.92 111.56 C 121.90 112.42 122.59 113.14 123.45 113.16 Z M 124.42 113.18 L 125.37 113.20 C 126.23 113.21 126.94 112.52 126.96 111.66 C 126.97 110.79 126.28 110.09 125.42 110.07 L 124.46 110.06 C 123.60 110.05 122.89 110.74 122.88 111.60 C 122.86 112.46 123.55 113.17 124.42 113.18 Z M 125.38 113.20 L 126.37 113.20 C 127.23 113.21 127.93 112.52 127.94 111.65 C 127.95 110.79 127.25 110.09 126.39 110.08 L 125.41 110.07 C 124.54 110.07 123.84 110.76 123.83 111.62 C 123.83 112.48 124.52 113.19 125.38 113.20 Z M 126.37 113.20 L 127.39 113.21 C 128.25 113.21 128.96 112.51 128.96 111.65 C 128.96 110.79 128.27 110.09 127.40 110.08 L 126.39 110.08 C 125.52 110.08 124.82 110.77 124.82 111.64 C 124.82 112.50 125.51 113.20 126.37 113.20 Z M 127.40 113.21 L 128.45 113.21 C 129.31 113.21 130.01 112.51 130.01 111.65 C 130.01 110.79 129.32 110.09 128.45 110.09 L 127.40 110.08 C 126.54 110.08 125.84 110.78 125.84 111.64 C 125.84 112.51 126.53 113.21 127.40 113.21 Z M 128.45 113.21 L 129.47 113.21 C 130.33 113.21 131.03 112.51 131.03 111.65 C 131.03 110.78 130.34 110.09 129.47 110.09 L 128.45 110.09 C 127.59 110.09 126.89 110.78 126.89 111.65 C 126.89 112.51 127.59 113.21 128.45 113.21 Z M 129.47 113.21 L 130.44 113.21 C 131.30 113.21 132.00 112.51 132.00 111.65 C 132.00 110.78 131.30 110.09 130.44 110.09 L 129.47 110.09 C 128.61 110.09 127.91 110.78 127.91 111.65 C 127.91 112.51 128.61 113.21 129.47 113.21 Z M 130.44 113.21 L 131.43 113.21 C 132.30 113.21 133.00 112.51 133.00 111.65 C 133.00 110.78 132.30 110.09 131.43 110.09 L 130.44 110.09 C 129.58 110.09 128.88 110.78 128.88 111.65 C 128.88 112.51 129.58 113.21 130.44 113.21 Z M 131.43 113.21 L 132.44 113.21 C 133.30 113.21 134.00 112.51 134.00 111.65 C 134.00 110.78 133.30 110.09 132.44 110.09 L 131.43 110.09 C 130.57 110.09 129.87 110.78 129.87 111.65 C 129.87 112.51 130.57 113.21 131.43 113.21 Z M 132.44 113.21 L 133.46 113.21 C 134.32 113.21 135.02 112.51 135.02 111.65 C 135.02 110.78 134.32 110.09 133.46 110.09 L 132.44 110.09 C 131.58 110.09 130.88 110.78 130.88 111.65 C 130.88 112.51 131.58 113.21 132.44 113.21 Z M 133.46 113.21 L 134.48 113.21 C 135.34 113.21 136.04 112.51 136.04 111.65 C 136.04 110.78 135.34 110.09 134.48 110.09 L 133.46 110.09 C 132.60 110.09 131.90 110.78 131.90 111.65 C 131.90 112.51 132.60 113.21 133.46 113.21 Z M 134.48 113.21 L 135.50 113.21 C 136.36 113.21 137.06 112.51 137.06 111.65 C 137.06 110.78 136.36 110.09 135.50 110.09 L 134.48 110.09 C 133.62 110.09 132.92 110.78 132.92 111.65 C 132.92 112.51 133.62 113.21 134.48 113.21 Z M 135.50 113.21 L 136.50 113.21 C 137.36 113.21 138.06 112.51 138.06 111.65 C 138.06 110.78 137.36 110.09 136.50 110.09 L 135.50 110.09 C 134.64 110.09 133.94 110.78 133.94 111.65 C 133.94 112.51 134.64 113.21 135.50 113.21 Z M 136.50 113.21 L 137.50 113.21 C 138.36 113.21 139.06 112.51 139.06 111.65 C 139.06 110.78 138.36 110.09 137.50 110.09 L 136.50 110.09 C 135.64 110.09 134.94 110.78 134.94 111.65 C 134.94 112.51 135.64 113.21 136.50 113.21 Z M 137.50 113.21 L 138.50 113.21 C 139.36 113.21 140.06 112.51 140.06 111.65 C 140.06 110.78 139.36 110.09 138.50 110.09 L 137.50 110.09 C 136.64 110.09 135.94 110.78 135.94 111.65 C 135.94 112.51 136.64 113.21 137.50 113.21 Z M 138.50 113.21 L 139.49 113.21 C 140.35 113.21 141.05 112.51 141.05 111.65 C 141.05 110.78 140.35 110.09 139.49 110.09 L 138.50 110.09 C 137.63 110.09 136.93 110.78 136.93 111.65 C 136.93 112.51 137.63 113.21 138.50 113.21 Z M 139.49 113.21 L 140.49 113.21 C 141.35 113.21 142.05 112.51 142.05 111.65 C 142.05 110.78 141.35 110.09 140.49 110.09 L 139.49 110.09 C 138.63 110.09 137.93 110.78 137.93 111.65 C 137.93 112.51 138.63 113.21 139.49 113.21 Z M 140.49 113.21 L 141.50 113.21 C 142.36 113.21 143.06 112.51 143.06 111.65 C 143.06 110.78 142.36 110.09 141.50 110.09 L 140.49 110.09 C 139.63 110.09 138.93 110.78 138.93 111.65 C 138.93 112.51 139.63 113.21 140.49 113.21 Z M 141.50 113.21 L 142.48 113.21 C 143.34 113.21 144.04 112.51 144.04 111.65 C 144.04 110.78 143.34 110.09 142.48 110.09 L 141.50 110.09 C 140.63 110.09 139.93 110.78 139.93 111.65 C 139.93 112.51 140.63 113.21 141.50 113.21 Z M 142.48 113.21 L 143.47 113.21 C 144.33 113.21 145.03 112.51 145.03 111.65 C 145.03 110.78 144.33 110.08 143.47 110.09 L 142.48 110.09 C 141.62 110.09 140.92 110.79 140.92 111.65 C 140.92 112.51 141.62 113.21 142.48 113.21 Z M 143.47 113.21 L 144.47 113.21 C 145.33 113.20 146.03 112.50 146.02 111.64 C 146.02 110.78 145.32 110.08 144.46 110.08 L 143.47 110.09 C 142.60 110.09 141.91 110.79 141.91 111.65 C 141.91 112.51 142.61 113.21 143.47 113.21 Z M 144.47 113.21 L 145.47 113.20 C 146.33 113.20 147.03 112.50 147.03 111.64 C 147.02 110.78 146.32 110.08 145.46 110.08 L 144.46 110.08 C 143.60 110.09 142.90 110.79 142.90 111.65 C 142.90 112.51 143.61 113.21 144.47 113.21 Z M 145.47 113.20 L 146.48 113.20 C 147.34 113.19 148.04 112.49 148.03 111.63 C 148.03 110.77 147.33 110.07 146.46 110.08 L 145.46 110.08 C 144.59 110.08 143.90 110.79 143.90 111.65 C 143.91 112.51 144.61 113.21 145.47 113.20 Z M 146.48 113.20 L 147.50 113.19 C 148.36 113.19 149.05 112.48 149.05 111.62 C 149.04 110.76 148.34 110.06 147.47 110.07 L 146.46 110.08 C 145.60 110.08 144.90 110.79 144.91 111.65 C 144.92 112.51 145.62 113.20 146.48 113.20 Z M 147.50 113.19 L 148.50 113.18 C 149.36 113.17 150.06 112.47 150.05 111.61 C 150.04 110.74 149.33 110.05 148.47 110.06 L 147.47 110.07 C 146.61 110.08 145.92 110.78 145.92 111.65 C 145.93 112.51 146.64 113.20 147.50 113.19 Z M 148.51 113.18 L 149.49 113.17 C 150.35 113.16 151.04 112.45 151.03 111.59 C 151.01 110.72 150.31 110.04 149.44 110.05 L 148.47 110.06 C 147.60 110.07 146.91 110.78 146.92 111.64 C 146.94 112.50 147.64 113.19 148.51 113.18 Z M 149.49 113.17 L 150.48 113.15 C 151.34 113.13 152.03 112.42 152.01 111.56 C 152.00 110.70 151.28 110.01 150.42 110.03 L 149.44 110.05 C 148.57 110.06 147.89 110.77 147.90 111.64 C 147.92 112.50 148.63 113.18 149.49 113.17 Z M 150.49 113.15 L 151.48 113.12 C 152.35 113.10 153.03 112.39 153.00 111.52 C 152.98 110.66 152.27 109.98 151.40 110.00 L 150.41 110.03 C 149.55 110.05 148.87 110.77 148.89 111.63 C 148.91 112.49 149.63 113.17 150.49 113.15 Z M 151.50 113.12 L 152.50 113.09 C 153.36 113.06 154.04 112.34 154.01 111.48 C 153.98 110.62 153.26 109.94 152.39 109.97 L 151.39 110.00 C 150.53 110.03 149.85 110.75 149.88 111.62 C 149.91 112.48 150.63 113.15 151.50 113.12 Z M 152.51 113.09 L 153.53 113.05 C 154.39 113.01 155.05 112.28 155.02 111.42 C 154.98 110.56 154.25 109.89 153.39 109.93 L 152.38 109.97 C 151.52 110.01 150.85 110.74 150.89 111.60 C 150.92 112.46 151.65 113.13 152.51 113.09 Z M 153.54 113.05 L 154.56 112.99 C 155.43 112.94 156.08 112.21 156.04 111.35 C 155.99 110.48 155.25 109.83 154.39 109.87 L 153.37 109.93 C 152.51 109.97 151.85 110.71 151.90 111.57 C 151.95 112.43 152.68 113.09 153.54 113.05 Z M 154.58 112.99 L 155.57 112.92 C 156.43 112.86 157.08 112.12 157.03 111.26 C 156.97 110.40 156.23 109.75 155.37 109.81 L 154.37 109.87 C 153.51 109.93 152.86 110.67 152.92 111.53 C 152.98 112.40 153.72 113.05 154.58 112.99 Z M 155.59 112.92 L 156.56 112.85 C 157.42 112.78 158.06 112.03 158.00 111.17 C 157.93 110.31 157.18 109.67 156.32 109.73 L 155.35 109.81 C 154.49 109.88 153.85 110.63 153.91 111.49 C 153.98 112.35 154.73 112.99 155.59 112.92 Z M 156.58 112.84 L 157.56 112.76 C 158.41 112.68 159.05 111.93 158.97 111.07 C 158.90 110.21 158.14 109.57 157.28 109.65 L 156.30 109.73 C 155.44 109.81 154.81 110.57 154.88 111.43 C 154.96 112.28 155.72 112.92 156.58 112.84 Z M 157.57 112.76 L 158.56 112.66 C 159.42 112.58 160.04 111.82 159.96 110.96 C 159.88 110.10 159.12 109.47 158.26 109.55 L 157.27 109.65 C 156.41 109.73 155.78 110.49 155.86 111.35 C 155.95 112.21 156.71 112.84 157.57 112.76 Z M 158.57 112.66 L 159.57 112.56 C 160.42 112.47 161.05 111.70 160.96 110.85 C 160.87 109.99 160.11 109.36 159.25 109.45 L 158.25 109.55 C 157.39 109.64 156.77 110.41 156.85 111.27 C 156.94 112.12 157.71 112.75 158.57 112.66 Z M 159.57 112.56 L 160.58 112.45 C 161.44 112.36 162.06 111.59 161.97 110.73 C 161.88 109.87 161.11 109.25 160.25 109.34 L 159.24 109.45 C 158.38 109.55 157.76 110.32 157.86 111.17 C 157.95 112.03 158.72 112.65 159.57 112.56 Z M 160.59 112.45 L 161.61 112.33 C 162.47 112.24 163.08 111.47 162.99 110.61 C 162.89 109.75 162.12 109.14 161.26 109.23 L 160.24 109.35 C 159.39 109.44 158.77 110.21 158.86 111.07 C 158.96 111.93 159.73 112.54 160.59 112.45 Z M 161.61 112.33 L 162.62 112.22 C 163.48 112.12 164.09 111.35 164.00 110.49 C 163.90 109.64 163.13 109.02 162.27 109.12 L 161.26 109.23 C 160.40 109.33 159.79 110.10 159.88 110.96 C 159.98 111.82 160.76 112.43 161.61 112.33 Z M 162.62 112.22 L 163.59 112.11 C 164.44 112.01 165.06 111.24 164.96 110.38 C 164.86 109.52 164.09 108.91 163.23 109.01 L 162.27 109.12 C 161.41 109.22 160.80 109.99 160.89 110.85 C 160.99 111.70 161.77 112.32 162.62 112.22 Z M 163.59 112.11 L 164.56 112.00 C 165.42 111.90 166.03 111.12 165.93 110.26 C 165.83 109.41 165.06 108.79 164.20 108.89 L 163.23 109.01 C 162.37 109.11 161.76 109.88 161.86 110.74 C 161.96 111.59 162.73 112.21 163.59 112.11 Z M 164.56 112.00 L 165.54 111.88 C 166.40 111.78 167.01 111.00 166.91 110.15 C 166.81 109.29 166.04 108.68 165.18 108.78 L 164.20 108.89 C 163.34 108.99 162.73 109.77 162.83 110.63 C 162.93 111.48 163.71 112.10 164.56 112.00 Z M 165.55 111.88 L 166.54 111.76 C 167.39 111.66 168.00 110.89 167.90 110.03 C 167.80 109.17 167.03 108.56 166.17 108.66 L 165.18 108.78 C 164.32 108.88 163.71 109.66 163.81 110.51 C 163.91 111.37 164.69 111.98 165.55 111.88 Z M 166.54 111.76 L 167.54 111.64 C 168.39 111.54 169.00 110.76 168.90 109.91 C 168.80 109.05 168.02 108.44 167.17 108.54 L 166.17 108.66 C 165.31 108.76 164.70 109.54 164.80 110.40 C 164.90 111.25 165.68 111.87 166.54 111.76 Z M 167.54 111.64 L 168.55 111.52 C 169.40 111.42 170.02 110.64 169.91 109.79 C 169.81 108.93 169.03 108.32 168.18 108.42 L 167.17 108.54 C 166.31 108.65 165.70 109.42 165.80 110.28 C 165.91 111.14 166.68 111.75 167.54 111.64 Z M 168.55 111.52 L 169.57 111.40 C 170.43 111.29 171.04 110.52 170.93 109.66 C 170.83 108.81 170.05 108.20 169.20 108.30 L 168.17 108.42 C 167.32 108.53 166.71 109.30 166.81 110.16 C 166.92 111.02 167.69 111.63 168.55 111.52 Z M 169.57 111.40 L 170.59 111.27 C 171.45 111.17 172.06 110.39 171.95 109.54 C 171.85 108.68 171.07 108.07 170.22 108.17 L 169.19 108.30 C 168.34 108.40 167.73 109.18 167.83 110.04 C 167.94 110.89 168.72 111.50 169.57 111.40 Z M 170.60 111.27 L 171.61 111.15 C 172.47 111.04 173.07 110.27 172.97 109.41 C 172.86 108.55 172.09 107.95 171.23 108.05 L 170.21 108.17 C 169.36 108.28 168.75 109.06 168.86 109.91 C 168.96 110.77 169.74 111.38 170.60 111.27 Z M 171.61 111.15 L 172.63 111.02 C 173.49 110.92 174.09 110.14 173.99 109.28 C 173.88 108.43 173.10 107.82 172.25 107.92 L 171.23 108.05 C 170.37 108.16 169.76 108.94 169.87 109.79 C 169.98 110.65 170.76 111.25 171.61 111.15 Z M 172.63 111.02 L 173.65 110.90 C 174.50 110.79 175.11 110.01 175.00 109.15 C 174.90 108.30 174.12 107.69 173.26 107.80 L 172.24 107.92 C 171.39 108.03 170.78 108.81 170.89 109.67 C 171.00 110.52 171.78 111.13 172.63 111.02 Z M 173.65 110.90 L 174.66 110.77 C 175.51 110.66 176.12 109.88 176.01 109.02 C 175.90 108.17 175.12 107.56 174.27 107.67 L 173.26 107.80 C 172.40 107.91 171.80 108.69 171.90 109.54 C 172.01 110.40 172.79 111.00 173.65 110.90 Z M 174.66 110.77 L 175.65 110.64 C 176.51 110.53 177.12 109.75 177.01 108.90 C 176.90 108.04 176.12 107.44 175.26 107.54 L 174.26 107.67 C 173.41 107.78 172.80 108.56 172.91 109.42 C 173.02 110.27 173.80 110.88 174.66 110.77 Z M 175.66 110.64 L 176.63 110.51 C 177.49 110.40 178.09 109.62 177.98 108.77 C 177.87 107.91 177.09 107.31 176.23 107.42 L 175.26 107.54 C 174.40 107.66 173.80 108.44 173.91 109.29 C 174.02 110.15 174.80 110.75 175.66 110.64 Z M 176.64 110.51 L 177.59 110.39 C 178.45 110.28 179.05 109.49 178.94 108.64 C 178.82 107.78 178.04 107.18 177.19 107.29 L 176.23 107.42 C 175.38 107.53 174.77 108.31 174.89 109.17 C 175.00 110.02 175.78 110.63 176.64 110.51 Z M 177.60 110.39 L 178.57 110.26 C 179.43 110.14 180.03 109.36 179.91 108.50 C 179.80 107.65 179.02 107.05 178.16 107.16 L 177.18 107.29 C 176.33 107.41 175.73 108.19 175.84 109.05 C 175.96 109.90 176.74 110.50 177.60 110.39 Z M 178.58 110.26 L 179.66 110.11 C 180.52 109.99 181.12 109.21 181.00 108.35 C 180.88 107.50 180.10 106.90 179.24 107.02 L 178.16 107.16 C 177.30 107.28 176.70 108.07 176.82 108.92 C 176.94 109.78 177.72 110.37 178.58 110.26 Z M 179.67 110.11 L 180.71 109.97 C 181.56 109.85 182.16 109.06 182.04 108.21 C 181.92 107.35 181.13 106.75 180.28 106.87 L 179.24 107.02 C 178.38 107.13 177.79 107.92 177.91 108.78 C 178.02 109.63 178.81 110.23 179.67 110.11 Z M 180.71 109.97 L 181.71 109.83 C 182.57 109.71 183.16 108.92 183.04 108.06 C 182.92 107.21 182.14 106.61 181.28 106.73 L 180.28 106.87 C 179.42 106.99 178.83 107.78 178.95 108.64 C 179.07 109.49 179.86 110.08 180.71 109.97 Z M 181.71 109.83 L 182.68 109.69 C 183.54 109.57 184.13 108.78 184.01 107.93 C 183.89 107.07 183.10 106.48 182.25 106.60 L 181.28 106.73 C 180.43 106.85 179.83 107.64 179.95 108.50 C 180.07 109.35 180.86 109.94 181.71 109.83 Z M 182.68 109.69 L 183.62 109.56 C 184.47 109.44 185.07 108.65 184.95 107.80 C 184.83 106.94 184.04 106.35 183.19 106.47 L 182.25 106.60 C 181.40 106.72 180.80 107.51 180.92 108.36 C 181.04 109.21 181.83 109.81 182.68 109.69 Z M 183.62 109.56 L 184.53 109.43 C 185.38 109.32 185.98 108.53 185.86 107.68 C 185.74 106.82 184.96 106.22 184.10 106.34 L 183.19 106.47 C 182.34 106.58 181.74 107.37 181.86 108.23 C 181.97 109.08 182.76 109.68 183.62 109.56 Z M 184.52 109.44 L 185.53 109.30 C 186.39 109.18 186.99 108.40 186.87 107.54 C 186.76 106.69 185.97 106.09 185.12 106.20 L 184.11 106.34 C 183.25 106.46 182.65 107.24 182.77 108.10 C 182.88 108.95 183.67 109.55 184.52 109.44 Z M 185.53 109.30 L 186.58 109.16 C 187.43 109.05 188.04 108.27 187.93 107.41 C 187.81 106.56 187.03 105.96 186.18 106.07 L 185.12 106.20 C 184.27 106.32 183.67 107.10 183.78 107.95 C 183.89 108.81 184.67 109.41 185.53 109.30 Z M 186.58 109.16 L 187.59 109.03 C 188.45 108.92 189.05 108.14 188.94 107.29 C 188.83 106.43 188.05 105.83 187.20 105.94 L 186.18 106.07 C 185.33 106.18 184.72 106.96 184.83 107.81 C 184.94 108.67 185.72 109.27 186.58 109.16 Z M 187.59 109.03 L 188.57 108.91 C 189.42 108.80 190.03 108.02 189.92 107.17 C 189.81 106.31 189.03 105.71 188.18 105.81 L 187.20 105.94 C 186.34 106.04 185.74 106.82 185.85 107.68 C 185.95 108.54 186.73 109.14 187.59 109.03 Z M 188.57 108.91 L 189.50 108.79 C 190.36 108.69 190.97 107.91 190.86 107.05 C 190.75 106.20 189.97 105.59 189.12 105.70 L 188.18 105.81 C 187.32 105.92 186.72 106.70 186.82 107.56 C 186.93 108.41 187.71 109.02 188.57 108.91 Z M 189.50 108.80 L 190.43 108.68 C 191.28 108.57 191.89 107.79 191.78 106.94 C 191.68 106.08 190.89 105.47 190.04 105.58 L 189.12 105.70 C 188.26 105.80 187.65 106.58 187.76 107.44 C 187.87 108.29 188.65 108.90 189.50 108.80 Z M 190.43 108.68 L 191.41 108.56 C 192.26 108.45 192.87 107.67 192.76 106.81 C 192.65 105.96 191.87 105.35 191.02 105.46 L 190.04 105.58 C 189.18 105.69 188.57 106.47 188.68 107.32 C 188.79 108.18 189.57 108.79 190.43 108.68 Z M 191.40 108.56 L 192.36 108.44 C 193.22 108.34 193.83 107.56 193.72 106.70 C 193.62 105.84 192.84 105.23 191.98 105.34 L 191.02 105.46 C 190.16 105.56 189.55 106.34 189.66 107.20 C 189.76 108.06 190.55 108.67 191.40 108.56 Z M 192.35 108.44 L 193.33 108.33 C 194.19 108.23 194.80 107.45 194.70 106.59 C 194.60 105.73 193.82 105.12 192.96 105.22 L 191.99 105.33 C 191.13 105.44 190.51 106.21 190.62 107.07 C 190.72 107.93 191.50 108.55 192.35 108.44 Z M 193.32 108.33 L 194.33 108.22 C 195.20 108.12 195.82 107.35 195.72 106.49 C 195.62 105.63 194.85 105.01 193.99 105.10 L 192.97 105.22 C 192.11 105.31 191.49 106.09 191.59 106.95 C 191.68 107.81 192.46 108.43 193.32 108.33 Z M 194.32 108.22 L 195.44 108.11 C 196.30 108.02 196.92 107.25 196.84 106.39 C 196.75 105.53 195.98 104.90 195.12 104.99 L 194.00 105.10 C 193.14 105.19 192.51 105.96 192.60 106.82 C 192.69 107.68 193.46 108.31 194.32 108.22 Z M 195.41 108.11 L 196.58 108.01 C 197.44 107.94 198.09 107.18 198.02 106.32 C 197.94 105.46 197.19 104.82 196.32 104.89 L 195.15 104.98 C 194.28 105.06 193.64 105.81 193.71 106.68 C 193.78 107.54 194.54 108.18 195.41 108.11 Z M 196.52 108.02 L 197.63 107.97 C 198.49 107.94 199.17 107.21 199.13 106.34 C 199.10 105.48 198.37 104.80 197.50 104.84 L 196.39 104.88 C 195.52 104.92 194.85 105.65 194.89 106.51 C 194.92 107.38 195.65 108.05 196.52 108.02 Z M 197.50 107.97 L 198.44 108.01 C 199.30 108.05 200.04 107.38 200.08 106.52 C 200.11 105.65 199.45 104.92 198.58 104.88 L 197.64 104.84 C 196.77 104.80 196.04 105.47 196.00 106.34 C 195.96 107.20 196.63 107.93 197.50 107.97 Z M 198.14 107.97 L 198.80 108.13 C 199.64 108.34 200.49 107.83 200.70 106.99 C 200.90 106.15 200.39 105.30 199.55 105.09 L 198.89 104.93 C 198.05 104.72 197.20 105.23 196.99 106.07 C 196.78 106.91 197.30 107.76 198.14 107.97 Z M 197.81 107.38 L 198.14 107.96 C 198.56 108.72 199.52 108.98 200.27 108.56 C 201.02 108.14 201.29 107.18 200.87 106.43 L 200.54 105.85 C 200.12 105.09 199.16 104.83 198.41 105.25 C 197.66 105.67 197.39 106.63 197.81 107.38 Z M 198.07 106.57 L 197.68 107.46 C 197.34 108.26 197.70 109.18 198.50 109.52 C 199.29 109.86 200.21 109.50 200.55 108.71 L 200.94 107.82 C 201.28 107.03 200.92 106.11 200.13 105.76 C 199.33 105.42 198.41 105.78 198.07 106.57 Z M 197.83 107.20 L 197.30 107.98 C 196.81 108.69 196.99 109.66 197.70 110.15 C 198.41 110.64 199.39 110.46 199.87 109.74 L 200.41 108.97 C 200.89 108.26 200.71 107.29 200.00 106.80 C 199.29 106.31 198.32 106.49 197.83 107.20 Z"
      fill="black"
      fill-rule="nonzero" /><path d="M 77.80 197.65 L 78.82 197.36 C 79.65 197.13 80.13 196.27 79.89 195.44 C 79.66 194.61 78.79 194.13 77.96 194.36 L 76.95 194.65 C 76.12 194.89 75.64 195.75 75.87 196.58 C 76.11 197.41 76.97 197.89 77.80 197.65 Z M 78.81 197.37 L 79.81 197.09 C 80.64 196.86 81.13 196.00 80.90 195.17 C 80.67 194.34 79.81 193.85 78.98 194.08 L 77.97 194.36 C 77.14 194.59 76.66 195.45 76.89 196.28 C 77.12 197.11 77.98 197.60 78.81 197.37 Z M 79.79 197.10 L 80.78 196.84 C 81.61 196.62 82.11 195.77 81.90 194.93 C 81.68 194.10 80.83 193.60 79.99 193.82 L 79.00 194.07 C 78.17 194.29 77.67 195.14 77.89 195.98 C 78.10 196.81 78.96 197.31 79.79 197.10 Z M 80.74 196.85 L 81.70 196.62 C 82.54 196.42 83.06 195.58 82.86 194.74 C 82.67 193.90 81.82 193.38 80.99 193.58 L 80.03 193.81 C 79.19 194.01 78.67 194.85 78.87 195.68 C 79.06 196.52 79.90 197.04 80.74 196.85 Z M 81.65 196.63 L 82.57 196.45 C 83.42 196.28 83.96 195.46 83.79 194.61 C 83.63 193.77 82.80 193.22 81.96 193.39 L 81.04 193.57 C 80.19 193.74 79.64 194.56 79.81 195.41 C 79.98 196.25 80.80 196.80 81.65 196.63 Z M 82.49 196.46 L 83.48 196.32 C 84.33 196.19 84.92 195.40 84.80 194.54 C 84.67 193.69 83.88 193.10 83.02 193.23 L 82.04 193.37 C 81.18 193.50 80.59 194.29 80.72 195.14 C 80.84 196.00 81.64 196.59 82.49 196.46 Z M 83.38 196.33 L 84.41 196.24 C 85.27 196.17 85.91 195.42 85.84 194.56 C 85.76 193.70 85.01 193.06 84.15 193.13 L 83.12 193.21 C 82.26 193.29 81.62 194.04 81.69 194.90 C 81.77 195.76 82.52 196.40 83.38 196.33 Z M 84.32 196.25 L 85.30 196.22 C 86.17 196.20 86.85 195.48 86.82 194.62 C 86.80 193.75 86.08 193.07 85.22 193.10 L 84.24 193.12 C 83.37 193.15 82.69 193.86 82.72 194.73 C 82.74 195.59 83.46 196.27 84.32 196.25 Z M 85.24 196.22 L 86.21 196.23 C 87.07 196.24 87.78 195.55 87.79 194.69 C 87.80 193.83 87.11 193.12 86.24 193.11 L 85.28 193.10 C 84.42 193.08 83.71 193.78 83.70 194.64 C 83.69 195.50 84.38 196.21 85.24 196.22 Z M 86.18 196.23 L 87.14 196.26 C 88.01 196.29 88.73 195.61 88.75 194.75 C 88.78 193.88 88.10 193.16 87.24 193.14 L 86.27 193.11 C 85.41 193.08 84.69 193.76 84.66 194.62 C 84.63 195.49 85.31 196.21 86.18 196.23 Z M 87.14 196.26 L 88.11 196.29 C 88.97 196.32 89.70 195.64 89.72 194.78 C 89.75 193.91 89.07 193.19 88.21 193.16 L 87.24 193.13 C 86.37 193.11 85.65 193.79 85.62 194.65 C 85.60 195.51 86.28 196.24 87.14 196.26 Z M 88.11 196.30 L 89.10 196.33 C 89.96 196.36 90.69 195.68 90.71 194.81 C 90.74 193.95 90.06 193.22 89.20 193.19 L 88.21 193.16 C 87.34 193.14 86.62 193.81 86.59 194.68 C 86.56 195.54 87.24 196.27 88.11 196.30 Z M 89.09 196.33 L 90.10 196.36 C 90.97 196.39 91.70 195.72 91.73 194.85 C 91.76 193.98 91.08 193.26 90.21 193.23 L 89.20 193.19 C 88.34 193.16 87.61 193.84 87.58 194.71 C 87.55 195.57 88.23 196.30 89.09 196.33 Z M 90.10 196.36 L 91.12 196.40 C 91.99 196.44 92.72 195.76 92.75 194.90 C 92.79 194.03 92.11 193.30 91.25 193.27 L 90.22 193.23 C 89.35 193.19 88.62 193.87 88.59 194.74 C 88.56 195.60 89.23 196.33 90.10 196.36 Z M 91.12 196.41 L 92.11 196.45 C 92.98 196.49 93.71 195.82 93.75 194.95 C 93.79 194.08 93.11 193.35 92.25 193.31 L 91.25 193.27 C 90.39 193.23 89.65 193.90 89.62 194.77 C 89.58 195.63 90.25 196.37 91.12 196.41 Z M 92.11 196.45 L 93.09 196.50 C 93.96 196.54 94.69 195.87 94.73 195.00 C 94.77 194.13 94.10 193.40 93.24 193.35 L 92.25 193.31 C 91.38 193.27 90.65 193.94 90.61 194.81 C 90.57 195.67 91.24 196.41 92.11 196.45 Z M 93.09 196.50 L 94.09 196.54 C 94.96 196.58 95.69 195.91 95.73 195.04 C 95.77 194.17 95.10 193.44 94.23 193.40 L 93.24 193.35 C 92.37 193.31 91.63 193.99 91.59 194.85 C 91.55 195.72 92.22 196.46 93.09 196.50 Z M 94.10 196.54 L 95.11 196.59 C 95.97 196.62 96.71 195.95 96.74 195.08 C 96.78 194.21 96.10 193.47 95.23 193.44 L 94.23 193.40 C 93.36 193.36 92.62 194.04 92.59 194.91 C 92.55 195.78 93.23 196.51 94.10 196.54 Z M 95.12 196.59 L 96.14 196.62 C 97.01 196.65 97.74 195.97 97.77 195.10 C 97.79 194.23 97.11 193.50 96.24 193.47 L 95.22 193.44 C 94.35 193.41 93.62 194.09 93.59 194.96 C 93.57 195.83 94.25 196.56 95.12 196.59 Z M 96.15 196.62 L 97.10 196.64 C 97.97 196.66 98.69 195.97 98.71 195.10 C 98.73 194.23 98.04 193.51 97.17 193.49 L 96.23 193.47 C 95.35 193.45 94.63 194.14 94.61 195.01 C 94.59 195.88 95.28 196.60 96.15 196.62 Z M 97.12 196.65 L 98.07 196.66 C 98.95 196.67 99.66 195.97 99.68 195.10 C 99.69 194.23 98.99 193.51 98.12 193.50 L 97.16 193.49 C 96.29 193.48 95.57 194.17 95.56 195.04 C 95.55 195.92 96.24 196.63 97.12 196.65 Z M 98.09 196.66 L 99.07 196.67 C 99.94 196.67 100.66 195.97 100.66 195.10 C 100.67 194.23 99.97 193.51 99.09 193.51 L 98.11 193.50 C 97.24 193.49 96.52 194.20 96.52 195.07 C 96.51 195.94 97.21 196.65 98.09 196.66 Z M 99.08 196.67 L 100.10 196.67 C 100.97 196.68 101.68 195.97 101.68 195.10 C 101.69 194.22 100.98 193.51 100.11 193.51 L 99.09 193.51 C 98.21 193.50 97.50 194.21 97.50 195.08 C 97.50 195.96 98.20 196.67 99.08 196.67 Z M 100.10 196.68 L 101.16 196.68 C 102.04 196.68 102.75 195.97 102.75 195.09 C 102.75 194.22 102.04 193.51 101.16 193.51 L 100.10 193.51 C 99.23 193.51 98.52 194.21 98.52 195.09 C 98.52 195.96 99.23 196.67 100.10 196.68 Z M 101.16 196.68 L 102.14 196.68 C 103.02 196.68 103.73 195.97 103.73 195.09 C 103.73 194.22 103.02 193.51 102.14 193.51 L 101.16 193.51 C 100.29 193.51 99.58 194.22 99.58 195.09 C 99.58 195.97 100.29 196.68 101.16 196.68 Z M 102.14 196.68 L 103.10 196.68 C 103.97 196.68 104.68 195.97 104.68 195.09 C 104.68 194.22 103.97 193.51 103.10 193.51 L 102.14 193.51 C 101.27 193.51 100.56 194.22 100.56 195.09 C 100.56 195.97 101.27 196.68 102.14 196.68 Z M 103.10 196.68 L 104.08 196.68 C 104.96 196.68 105.67 195.97 105.67 195.09 C 105.67 194.22 104.96 193.51 104.08 193.51 L 103.10 193.51 C 102.22 193.51 101.51 194.22 101.51 195.09 C 101.51 195.97 102.22 196.68 103.10 196.68 Z M 104.08 196.68 L 105.09 196.68 C 105.97 196.68 106.67 195.97 106.67 195.09 C 106.67 194.22 105.97 193.51 105.09 193.51 L 104.08 193.51 C 103.21 193.51 102.50 194.22 102.50 195.09 C 102.50 195.97 103.21 196.68 104.08 196.68 Z M 105.09 196.67 L 106.12 196.67 C 106.99 196.67 107.70 195.97 107.70 195.09 C 107.70 194.22 106.99 193.51 106.12 193.51 L 105.09 193.51 C 104.22 193.51 103.51 194.22 103.51 195.09 C 103.51 195.97 104.22 196.67 105.09 196.67 Z M 106.12 196.67 L 107.16 196.67 C 108.04 196.67 108.74 195.97 108.74 195.09 C 108.74 194.22 108.04 193.51 107.16 193.51 L 106.12 193.51 C 105.25 193.51 104.54 194.22 104.54 195.09 C 104.54 195.97 105.25 196.67 106.12 196.67 Z M 107.16 196.67 L 108.17 196.67 C 109.04 196.67 109.75 195.97 109.75 195.09 C 109.75 194.22 109.04 193.51 108.17 193.51 L 107.16 193.51 C 106.29 193.51 105.58 194.22 105.58 195.09 C 105.58 195.97 106.29 196.67 107.16 196.67 Z M 108.17 196.67 L 109.12 196.67 C 110.00 196.67 110.71 195.97 110.71 195.09 C 110.71 194.22 110.00 193.51 109.12 193.51 L 108.17 193.51 C 107.30 193.51 106.59 194.22 106.59 195.09 C 106.59 195.97 107.30 196.67 108.17 196.67 Z M 109.12 196.68 L 110.09 196.68 C 110.96 196.68 111.67 195.97 111.67 195.09 C 111.67 194.22 110.96 193.51 110.09 193.51 L 109.12 193.51 C 108.25 193.51 107.54 194.22 107.54 195.09 C 107.54 195.97 108.25 196.68 109.12 196.68 Z M 110.09 196.68 L 111.07 196.68 C 111.94 196.68 112.65 195.97 112.65 195.09 C 112.65 194.22 111.94 193.51 111.07 193.51 L 110.09 193.51 C 109.21 193.51 108.50 194.22 108.50 195.09 C 108.50 195.97 109.21 196.68 110.09 196.68 Z M 111.07 196.68 L 112.07 196.68 C 112.94 196.68 113.66 195.97 113.66 195.09 C 113.66 194.21 112.94 193.50 112.07 193.50 L 111.07 193.50 C 110.19 193.50 109.48 194.21 109.48 195.09 C 109.48 195.97 110.19 196.68 111.07 196.68 Z M 112.07 196.68 L 113.09 196.68 C 113.97 196.68 114.68 195.97 114.68 195.09 C 114.68 194.21 113.97 193.50 113.09 193.50 L 112.07 193.50 C 111.19 193.50 110.48 194.21 110.48 195.09 C 110.48 195.97 111.19 196.68 112.07 196.68 Z M 113.09 196.68 L 114.14 196.68 C 115.02 196.68 115.74 195.97 115.74 195.09 C 115.74 194.21 115.02 193.50 114.14 193.50 L 113.09 193.50 C 112.21 193.50 111.50 194.21 111.50 195.09 C 111.50 195.97 112.21 196.68 113.09 196.68 Z M 114.14 196.68 L 115.16 196.68 C 116.04 196.68 116.75 195.97 116.75 195.09 C 116.75 194.21 116.04 193.50 115.16 193.50 L 114.14 193.50 C 113.26 193.50 112.55 194.21 112.55 195.09 C 112.55 195.97 113.26 196.68 114.14 196.68 Z M 115.16 196.69 L 116.08 196.68 C 116.96 196.68 117.68 195.97 117.68 195.09 C 117.68 194.21 116.96 193.50 116.08 193.50 L 115.15 193.50 C 114.27 193.50 113.56 194.21 113.56 195.09 C 113.56 195.97 114.28 196.69 115.16 196.69 Z M 116.09 196.69 L 117.04 196.68 C 117.92 196.68 118.63 195.97 118.63 195.09 C 118.63 194.20 117.91 193.49 117.03 193.49 L 116.08 193.50 C 115.20 193.50 114.49 194.21 114.49 195.09 C 114.49 195.97 115.21 196.69 116.09 196.69 Z M 117.04 196.68 L 118.01 196.68 C 118.89 196.68 119.61 195.96 119.60 195.08 C 119.60 194.20 118.88 193.48 118.00 193.49 L 117.02 193.49 C 116.14 193.50 115.43 194.22 115.44 195.10 C 115.44 195.98 116.16 196.69 117.04 196.68 Z M 118.02 196.68 L 119.01 196.67 C 119.90 196.66 120.60 195.94 120.60 195.06 C 120.59 194.18 119.87 193.47 118.99 193.48 L 117.99 193.49 C 117.11 193.50 116.40 194.22 116.41 195.10 C 116.42 195.98 117.14 196.69 118.02 196.68 Z M 119.02 196.67 L 120.04 196.66 C 120.92 196.65 121.63 195.92 121.61 195.04 C 121.60 194.16 120.88 193.45 120.00 193.47 L 118.98 193.48 C 118.10 193.49 117.39 194.21 117.40 195.10 C 117.41 195.98 118.14 196.68 119.02 196.67 Z M 120.05 196.66 L 121.08 196.64 C 121.97 196.62 122.67 195.90 122.65 195.01 C 122.64 194.13 121.91 193.43 121.02 193.44 L 119.99 193.46 C 119.10 193.48 118.40 194.21 118.42 195.09 C 118.44 195.97 119.16 196.68 120.05 196.66 Z M 121.09 196.64 L 122.15 196.62 C 123.03 196.59 123.73 195.86 123.71 194.98 C 123.69 194.09 122.95 193.40 122.07 193.42 L 121.01 193.44 C 120.13 193.47 119.43 194.20 119.46 195.08 C 119.48 195.97 120.21 196.66 121.09 196.64 Z M 122.16 196.62 L 123.24 196.58 C 124.12 196.55 124.82 195.81 124.79 194.93 C 124.76 194.05 124.02 193.35 123.14 193.38 L 122.06 193.42 C 121.18 193.45 120.48 194.18 120.51 195.07 C 120.54 195.95 121.28 196.64 122.16 196.62 Z M 123.25 196.58 L 124.21 196.54 C 125.10 196.51 125.78 195.76 125.75 194.88 C 125.71 194.00 124.97 193.31 124.09 193.34 L 123.12 193.38 C 122.24 193.42 121.55 194.16 121.59 195.04 C 121.62 195.93 122.37 196.62 123.25 196.58 Z M 124.22 196.54 L 125.19 196.50 C 126.08 196.46 126.76 195.71 126.72 194.83 C 126.68 193.94 125.93 193.26 125.05 193.30 L 124.08 193.34 C 123.19 193.38 122.51 194.13 122.55 195.02 C 122.59 195.90 123.34 196.59 124.22 196.54 Z M 125.20 196.50 L 126.19 196.45 C 127.07 196.40 127.75 195.65 127.71 194.76 C 127.66 193.88 126.90 193.20 126.02 193.25 L 125.04 193.30 C 124.15 193.34 123.47 194.10 123.52 194.98 C 123.56 195.87 124.32 196.55 125.20 196.50 Z M 126.20 196.45 L 127.19 196.39 C 128.07 196.34 128.75 195.58 128.70 194.70 C 128.65 193.81 127.89 193.14 127.00 193.19 L 126.01 193.24 C 125.12 193.30 124.45 194.06 124.50 194.94 C 124.55 195.83 125.31 196.50 126.20 196.45 Z M 127.20 196.39 L 128.20 196.33 C 129.09 196.27 129.76 195.51 129.70 194.62 C 129.65 193.74 128.88 193.07 128.00 193.12 L 126.99 193.19 C 126.11 193.24 125.44 194.01 125.49 194.89 C 125.55 195.78 126.31 196.45 127.20 196.39 Z M 128.21 196.33 L 129.22 196.26 C 130.10 196.20 130.77 195.43 130.71 194.55 C 130.65 193.66 129.88 192.99 128.99 193.05 L 127.99 193.12 C 127.10 193.18 126.43 193.95 126.49 194.84 C 126.55 195.72 127.32 196.39 128.21 196.33 Z M 129.22 196.26 L 130.24 196.19 C 131.12 196.12 131.79 195.35 131.72 194.46 C 131.66 193.58 130.89 192.91 130.00 192.98 L 128.99 193.05 C 128.10 193.12 127.43 193.89 127.50 194.78 C 127.56 195.66 128.34 196.33 129.22 196.26 Z M 130.24 196.19 L 131.26 196.11 C 132.15 196.04 132.81 195.26 132.74 194.38 C 132.67 193.49 131.90 192.83 131.01 192.90 L 129.99 192.98 C 129.10 193.04 128.44 193.82 128.51 194.71 C 128.58 195.60 129.36 196.26 130.24 196.19 Z M 131.27 196.11 L 132.29 196.03 C 133.18 195.95 133.84 195.17 133.76 194.28 C 133.69 193.40 132.91 192.74 132.02 192.81 L 131.00 192.89 C 130.11 192.97 129.45 193.75 129.53 194.64 C 129.60 195.52 130.38 196.18 131.27 196.11 Z M 132.30 196.03 L 133.31 195.94 C 134.20 195.86 134.86 195.08 134.78 194.19 C 134.70 193.30 133.92 192.64 133.03 192.72 L 132.02 192.81 C 131.13 192.89 130.47 193.67 130.55 194.56 C 130.62 195.45 131.41 196.10 132.30 196.03 Z M 133.32 195.94 L 134.32 195.85 C 135.21 195.77 135.86 194.98 135.78 194.09 C 135.70 193.20 134.91 192.55 134.02 192.63 L 133.02 192.72 C 132.13 192.80 131.48 193.59 131.56 194.48 C 131.64 195.37 132.43 196.02 133.32 195.94 Z M 134.32 195.85 L 135.32 195.75 C 136.21 195.67 136.87 194.88 136.78 193.99 C 136.70 193.10 135.91 192.45 135.02 192.53 L 134.02 192.63 C 133.13 192.71 132.48 193.50 132.56 194.39 C 132.65 195.28 133.43 195.93 134.32 195.85 Z M 135.33 195.75 L 136.33 195.65 C 137.22 195.57 137.87 194.77 137.78 193.89 C 137.69 193.00 136.90 192.35 136.01 192.43 L 135.01 192.53 C 134.12 192.62 133.47 193.41 133.56 194.30 C 133.65 195.19 134.44 195.84 135.33 195.75 Z M 136.33 195.65 L 137.33 195.55 C 138.22 195.46 138.87 194.67 138.78 193.78 C 138.69 192.89 137.89 192.24 137.00 192.33 L 136.01 192.43 C 135.12 192.52 134.47 193.32 134.56 194.21 C 134.65 195.10 135.45 195.75 136.33 195.65 Z M 137.34 195.55 L 138.33 195.45 C 139.22 195.35 139.87 194.56 139.78 193.67 C 139.68 192.78 138.89 192.13 138.00 192.23 L 137.00 192.33 C 136.11 192.43 135.46 193.22 135.56 194.11 C 135.65 195.00 136.45 195.65 137.34 195.55 Z M 138.34 195.45 L 139.33 195.34 C 140.22 195.25 140.87 194.45 140.77 193.56 C 140.67 192.67 139.87 192.02 138.99 192.12 L 137.99 192.23 C 137.10 192.32 136.46 193.12 136.55 194.01 C 136.65 194.90 137.45 195.54 138.34 195.45 Z M 139.34 195.34 L 140.33 195.23 C 141.22 195.13 141.86 194.33 141.76 193.44 C 141.66 192.55 140.86 191.91 139.97 192.01 L 138.98 192.12 C 138.09 192.22 137.45 193.02 137.55 193.91 C 137.65 194.80 138.45 195.44 139.34 195.34 Z M 140.33 195.23 L 141.32 195.12 C 142.21 195.02 142.85 194.22 142.75 193.33 C 142.65 192.44 141.85 191.80 140.96 191.90 L 139.97 192.01 C 139.08 192.11 138.44 192.91 138.54 193.80 C 138.64 194.69 139.44 195.33 140.33 195.23 Z M 141.32 195.12 L 142.31 195.01 C 143.20 194.90 143.84 194.10 143.74 193.21 C 143.63 192.32 142.83 191.68 141.94 191.78 L 140.95 191.90 C 140.06 192.00 139.42 192.80 139.53 193.69 C 139.63 194.59 140.43 195.22 141.32 195.12 Z M 142.31 195.01 L 143.30 194.89 C 144.19 194.79 144.83 193.98 144.72 193.09 C 144.62 192.20 143.81 191.56 142.92 191.67 L 141.93 191.78 C 141.04 191.89 140.41 192.69 140.51 193.58 C 140.61 194.48 141.42 195.11 142.31 195.01 Z M 143.30 194.89 L 144.29 194.78 C 145.18 194.67 145.81 193.86 145.71 192.97 C 145.60 192.08 144.79 191.44 143.90 191.55 L 142.92 191.66 C 142.02 191.77 141.39 192.58 141.49 193.47 C 141.60 194.36 142.41 195.00 143.30 194.89 Z M 144.29 194.78 L 145.27 194.66 C 146.16 194.55 146.80 193.74 146.69 192.85 C 146.58 191.96 145.77 191.32 144.88 191.43 L 143.90 191.55 C 143.00 191.65 142.37 192.46 142.48 193.36 C 142.58 194.25 143.40 194.89 144.29 194.78 Z M 145.27 194.66 L 146.26 194.54 C 147.15 194.43 147.79 193.62 147.68 192.73 C 147.57 191.83 146.75 191.20 145.86 191.31 L 144.88 191.43 C 143.98 191.53 143.35 192.35 143.46 193.24 C 143.57 194.13 144.38 194.77 145.27 194.66 Z M 146.26 194.54 L 147.24 194.42 C 148.14 194.31 148.77 193.50 148.66 192.60 C 148.55 191.71 147.74 191.07 146.84 191.18 L 145.86 191.30 C 144.96 191.41 144.33 192.23 144.44 193.12 C 144.55 194.02 145.36 194.65 146.26 194.54 Z M 147.24 194.42 L 148.23 194.30 C 149.13 194.19 149.76 193.37 149.65 192.48 C 149.54 191.58 148.72 190.95 147.83 191.06 L 146.84 191.18 C 145.94 191.29 145.31 192.11 145.42 193.00 C 145.53 193.90 146.35 194.54 147.24 194.42 Z M 148.23 194.30 L 149.22 194.18 C 150.12 194.07 150.76 193.25 150.64 192.35 C 150.53 191.45 149.71 190.82 148.82 190.93 L 147.83 191.06 C 146.93 191.17 146.29 191.99 146.41 192.88 C 146.52 193.78 147.34 194.41 148.23 194.30 Z M 149.23 194.18 L 150.22 194.05 C 151.12 193.94 151.76 193.12 151.64 192.22 C 151.53 191.33 150.71 190.69 149.81 190.80 L 148.82 190.93 C 147.92 191.04 147.28 191.86 147.39 192.76 C 147.51 193.66 148.33 194.29 149.23 194.18 Z M 150.22 194.06 L 151.23 193.93 C 152.13 193.82 152.76 192.99 152.65 192.10 C 152.54 191.20 151.72 190.56 150.82 190.67 L 149.81 190.80 C 148.91 190.91 148.28 191.74 148.39 192.63 C 148.50 193.53 149.32 194.17 150.22 194.06 Z M 151.23 193.93 L 152.24 193.80 C 153.14 193.69 153.78 192.87 153.67 191.97 C 153.55 191.07 152.73 190.43 151.83 190.54 L 150.82 190.67 C 149.92 190.79 149.28 191.61 149.39 192.51 C 149.51 193.41 150.33 194.05 151.23 193.93 Z M 152.25 193.80 L 153.23 193.68 C 154.13 193.57 154.77 192.74 154.65 191.84 C 154.54 190.94 153.72 190.30 152.82 190.42 L 151.83 190.54 C 150.93 190.66 150.29 191.48 150.41 192.38 C 150.52 193.28 151.34 193.92 152.25 193.80 Z M 153.23 193.68 L 154.21 193.56 C 155.12 193.44 155.75 192.62 155.64 191.72 C 155.53 190.82 154.70 190.18 153.80 190.29 L 152.82 190.42 C 151.91 190.53 151.28 191.35 151.39 192.25 C 151.50 193.16 152.33 193.79 153.23 193.68 Z M 154.21 193.56 L 155.21 193.43 C 156.11 193.32 156.75 192.49 156.63 191.59 C 156.52 190.69 155.69 190.05 154.79 190.17 L 153.80 190.29 C 152.90 190.40 152.26 191.23 152.37 192.13 C 152.49 193.03 153.31 193.67 154.21 193.56 Z M 155.20 193.43 L 156.20 193.31 C 157.10 193.19 157.74 192.37 157.63 191.47 C 157.52 190.56 156.69 189.93 155.79 190.04 L 154.79 190.16 C 153.89 190.28 153.25 191.10 153.36 192.00 C 153.48 192.91 154.30 193.55 155.20 193.43 Z M 156.20 193.31 L 157.20 193.18 C 158.10 193.07 158.74 192.25 158.63 191.34 C 158.52 190.44 157.69 189.80 156.79 189.91 L 155.79 190.04 C 154.89 190.15 154.25 190.97 154.36 191.88 C 154.47 192.78 155.30 193.42 156.20 193.31 Z M 157.20 193.18 L 158.20 193.06 C 159.10 192.95 159.74 192.12 159.63 191.22 C 159.52 190.32 158.69 189.67 157.79 189.79 L 156.79 189.91 C 155.89 190.02 155.25 190.85 155.36 191.75 C 155.47 192.66 156.29 193.30 157.20 193.18 Z M 158.20 193.06 L 159.20 192.94 C 160.10 192.82 160.74 192.00 160.63 191.10 C 160.52 190.19 159.70 189.55 158.79 189.66 L 157.79 189.79 C 156.89 189.90 156.25 190.72 156.36 191.63 C 156.47 192.53 157.29 193.17 158.20 193.06 Z M 159.20 192.94 L 160.19 192.82 C 161.10 192.70 161.74 191.88 161.63 190.98 C 161.52 190.07 160.70 189.43 159.79 189.54 L 158.79 189.66 C 157.89 189.77 157.24 190.60 157.36 191.50 C 157.47 192.41 158.29 193.05 159.20 192.94 Z M 160.19 192.82 L 161.18 192.70 C 162.09 192.59 162.74 191.76 162.63 190.86 C 162.51 189.95 161.69 189.31 160.79 189.42 L 159.79 189.54 C 158.89 189.65 158.24 190.47 158.35 191.38 C 158.46 192.28 159.29 192.93 160.19 192.82 Z M 161.18 192.70 L 162.17 192.58 C 163.08 192.47 163.72 191.65 163.61 190.74 C 163.50 189.83 162.68 189.19 161.77 189.30 L 160.79 189.41 C 159.88 189.52 159.23 190.35 159.34 191.25 C 159.45 192.16 160.28 192.81 161.18 192.70 Z M 162.17 192.58 L 163.17 192.46 C 164.08 192.35 164.73 191.53 164.62 190.62 C 164.51 189.71 163.69 189.07 162.78 189.17 L 161.78 189.29 C 160.87 189.40 160.22 190.22 160.33 191.13 C 160.44 192.04 161.26 192.69 162.17 192.58 Z M 163.17 192.46 L 164.19 192.34 C 165.09 192.24 165.75 191.41 165.64 190.50 C 165.53 189.60 164.71 188.95 163.80 189.05 L 162.78 189.17 C 161.88 189.28 161.23 190.10 161.33 191.01 C 161.44 191.92 162.26 192.57 163.17 192.46 Z M 164.18 192.35 L 165.19 192.23 C 166.10 192.12 166.75 191.30 166.65 190.39 C 166.54 189.48 165.72 188.83 164.81 188.93 L 163.80 189.05 C 162.89 189.16 162.24 189.98 162.34 190.89 C 162.45 191.80 163.27 192.45 164.18 192.35 Z M 165.19 192.23 L 166.19 192.12 C 167.10 192.01 167.76 191.19 167.65 190.28 C 167.55 189.36 166.72 188.71 165.81 188.81 L 164.81 188.93 C 163.90 189.03 163.24 189.86 163.35 190.77 C 163.45 191.68 164.28 192.34 165.19 192.23 Z M 166.19 192.12 L 167.18 192.01 C 168.10 191.90 168.75 191.08 168.65 190.16 C 168.54 189.25 167.72 188.59 166.80 188.70 L 165.81 188.81 C 164.90 188.92 164.24 189.74 164.35 190.65 C 164.45 191.57 165.27 192.22 166.19 192.12 Z M 167.18 192.01 L 168.17 191.90 C 169.08 191.79 169.74 190.97 169.64 190.05 C 169.53 189.14 168.71 188.48 167.79 188.58 L 166.81 188.70 C 165.89 188.80 165.23 189.62 165.34 190.54 C 165.44 191.45 166.27 192.11 167.18 192.01 Z M 168.17 191.90 L 169.15 191.79 C 170.07 191.69 170.73 190.86 170.63 189.94 C 170.52 189.03 169.70 188.37 168.78 188.47 L 167.80 188.58 C 166.88 188.68 166.22 189.51 166.32 190.43 C 166.43 191.34 167.25 192.00 168.17 191.90 Z M 169.15 191.79 L 170.13 191.68 C 171.05 191.58 171.71 190.75 171.61 189.83 C 171.51 188.92 170.68 188.26 169.76 188.36 L 168.78 188.47 C 167.86 188.57 167.20 189.40 167.30 190.32 C 167.41 191.23 168.23 191.89 169.15 191.79 Z M 170.13 191.68 L 171.11 191.58 C 172.03 191.47 172.69 190.64 172.59 189.73 C 172.49 188.81 171.66 188.14 170.74 188.25 L 169.76 188.36 C 168.84 188.46 168.18 189.29 168.28 190.21 C 168.39 191.12 169.21 191.79 170.13 191.68 Z M 171.11 191.58 L 172.09 191.47 C 173.01 191.37 173.67 190.54 173.57 189.62 C 173.47 188.70 172.64 188.03 171.72 188.14 L 170.74 188.24 C 169.82 188.35 169.16 189.18 169.26 190.10 C 169.36 191.02 170.19 191.68 171.11 191.58 Z M 172.09 191.47 L 173.09 191.36 C 174.02 191.26 174.68 190.43 174.58 189.51 C 174.47 188.58 173.64 187.92 172.72 188.02 L 171.72 188.13 C 170.80 188.24 170.13 189.07 170.24 189.99 C 170.34 190.91 171.17 191.57 172.09 191.47 Z M 173.09 191.36 L 174.10 191.25 C 175.02 191.15 175.69 190.32 175.59 189.39 C 175.48 188.47 174.65 187.81 173.73 187.91 L 172.72 188.02 C 171.80 188.12 171.13 188.95 171.24 189.88 C 171.34 190.80 172.17 191.46 173.09 191.36 Z M 174.10 191.25 L 175.11 191.14 C 176.03 191.04 176.69 190.21 176.59 189.28 C 176.49 188.36 175.66 187.69 174.73 187.80 L 173.73 187.91 C 172.81 188.01 172.14 188.84 172.24 189.76 C 172.35 190.69 173.18 191.35 174.10 191.25 Z M 175.11 191.14 L 176.11 191.03 C 177.03 190.93 177.70 190.09 177.60 189.17 C 177.49 188.25 176.66 187.58 175.74 187.68 L 174.73 187.79 C 173.81 187.90 173.14 188.73 173.25 189.65 C 173.35 190.58 174.18 191.24 175.11 191.14 Z M 176.11 191.03 L 177.11 190.92 C 178.03 190.82 178.70 189.99 178.60 189.06 C 178.49 188.14 177.66 187.47 176.74 187.57 L 175.74 187.68 C 174.81 187.78 174.15 188.62 174.25 189.54 C 174.35 190.47 175.18 191.13 176.11 191.03 Z M 177.11 190.92 L 178.10 190.81 C 179.03 190.71 179.69 189.88 179.59 188.95 C 179.49 188.03 178.66 187.36 177.73 187.46 L 176.74 187.57 C 175.81 187.67 175.14 188.51 175.25 189.43 C 175.35 190.36 176.18 191.02 177.11 190.92 Z M 178.10 190.81 L 179.09 190.70 C 180.02 190.60 180.68 189.77 180.58 188.84 C 180.48 187.92 179.65 187.25 178.72 187.35 L 177.73 187.46 C 176.81 187.56 176.14 188.39 176.24 189.32 C 176.34 190.25 177.18 190.91 178.10 190.81 Z M 179.09 190.71 L 180.07 190.60 C 181.00 190.50 181.67 189.66 181.57 188.74 C 181.47 187.81 180.63 187.14 179.70 187.24 L 178.72 187.35 C 177.79 187.45 177.13 188.28 177.23 189.21 C 177.33 190.14 178.16 190.81 179.09 190.71 Z M 180.07 190.60 L 181.05 190.49 C 181.98 190.39 182.64 189.56 182.54 188.63 C 182.44 187.70 181.61 187.03 180.68 187.13 L 179.70 187.24 C 178.78 187.34 178.11 188.18 178.21 189.10 C 178.31 190.03 179.14 190.70 180.07 190.60 Z M 181.05 190.49 L 182.05 190.38 C 182.97 190.28 183.65 189.45 183.54 188.52 C 183.44 187.59 182.61 186.92 181.68 187.02 L 180.68 187.13 C 179.75 187.23 179.08 188.07 179.18 189.00 C 179.28 189.92 180.12 190.59 181.05 190.49 Z M 182.05 190.39 L 183.09 190.27 C 184.02 190.17 184.69 189.34 184.59 188.41 C 184.49 187.48 183.66 186.81 182.73 186.91 L 181.68 187.02 C 180.75 187.12 180.08 187.96 180.18 188.89 C 180.28 189.82 181.12 190.49 182.05 190.39 Z M 183.09 190.28 L 184.12 190.16 C 185.06 190.06 185.73 189.23 185.63 188.30 C 185.53 187.37 184.69 186.69 183.76 186.79 L 182.73 186.91 C 181.80 187.01 181.12 187.84 181.22 188.77 C 181.32 189.70 182.16 190.38 183.09 190.28 Z M 184.12 190.17 L 185.14 190.06 C 186.08 189.96 186.75 189.12 186.65 188.19 C 186.55 187.26 185.72 186.58 184.78 186.68 L 183.76 186.79 C 182.83 186.89 182.16 187.73 182.26 188.66 C 182.36 189.59 183.19 190.27 184.12 190.17 Z M 185.14 190.06 L 186.15 189.95 C 187.08 189.85 187.76 189.02 187.66 188.09 C 187.56 187.15 186.72 186.48 185.79 186.58 L 184.78 186.68 C 183.85 186.78 183.18 187.62 183.27 188.55 C 183.37 189.48 184.21 190.16 185.14 190.06 Z M 186.15 189.96 L 187.14 189.85 C 188.07 189.75 188.75 188.92 188.65 187.98 C 188.55 187.05 187.72 186.37 186.78 186.47 L 185.79 186.57 C 184.86 186.67 184.18 187.51 184.28 188.44 C 184.38 189.38 185.21 190.05 186.15 189.96 Z M 187.13 189.85 L 188.11 189.75 C 189.04 189.66 189.72 188.82 189.62 187.88 C 189.53 186.95 188.69 186.27 187.76 186.37 L 186.78 186.47 C 185.85 186.56 185.17 187.40 185.27 188.34 C 185.36 189.27 186.20 189.95 187.13 189.85 Z M 188.11 189.75 L 189.06 189.66 C 190.00 189.56 190.68 188.72 190.58 187.79 C 190.49 186.85 189.65 186.17 188.71 186.27 L 187.76 186.36 C 186.82 186.46 186.14 187.30 186.24 188.23 C 186.33 189.17 187.17 189.85 188.11 189.75 Z M 189.06 189.66 L 189.99 189.56 C 190.93 189.47 191.61 188.63 191.52 187.70 C 191.42 186.76 190.59 186.07 189.65 186.17 L 188.71 186.26 C 187.78 186.36 187.09 187.20 187.19 188.13 C 187.28 189.07 188.12 189.75 189.06 189.66 Z M 189.99 189.57 L 191.02 189.46 C 191.96 189.37 192.65 188.53 192.55 187.59 C 192.46 186.66 191.62 185.97 190.68 186.07 L 189.65 186.17 C 188.71 186.26 188.03 187.10 188.12 188.04 C 188.21 188.97 189.05 189.66 189.99 189.57 Z M 191.02 189.46 L 192.08 189.36 C 193.02 189.27 193.70 188.43 193.61 187.49 C 193.52 186.55 192.68 185.87 191.74 185.96 L 190.69 186.06 C 189.75 186.16 189.06 186.99 189.15 187.93 C 189.25 188.87 190.08 189.56 191.02 189.46 Z M 192.08 189.36 L 193.11 189.26 C 194.04 189.17 194.73 188.33 194.64 187.40 C 194.55 186.46 193.71 185.77 192.78 185.86 L 191.75 185.96 C 190.81 186.05 190.12 186.89 190.21 187.83 C 190.30 188.76 191.14 189.45 192.08 189.36 Z M 193.10 189.26 L 194.11 189.16 C 195.05 189.07 195.74 188.24 195.64 187.30 C 195.55 186.36 194.72 185.67 193.78 185.76 L 192.78 185.86 C 191.84 185.95 191.15 186.79 191.24 187.72 C 191.33 188.66 192.17 189.35 193.10 189.26 Z M 194.11 189.16 L 195.09 189.07 C 196.03 188.98 196.71 188.14 196.62 187.21 C 196.53 186.27 195.70 185.58 194.76 185.67 L 193.78 185.76 C 192.84 185.85 192.15 186.69 192.24 187.63 C 192.34 188.57 193.17 189.25 194.11 189.16 Z M 195.09 189.07 L 196.04 188.98 C 196.98 188.89 197.67 188.05 197.58 187.11 C 197.49 186.17 196.65 185.49 195.71 185.58 L 194.76 185.67 C 193.82 185.76 193.13 186.60 193.22 187.53 C 193.31 188.47 194.15 189.16 195.09 189.07 Z M 196.04 188.98 L 196.98 188.88 C 197.92 188.79 198.60 187.96 198.51 187.02 C 198.42 186.08 197.58 185.39 196.64 185.49 L 195.71 185.58 C 194.77 185.67 194.09 186.50 194.18 187.44 C 194.27 188.38 195.11 189.07 196.04 188.98 Z M 196.98 188.89 L 197.94 188.79 C 198.88 188.70 199.57 187.86 199.47 186.92 C 199.38 185.98 198.54 185.30 197.60 185.39 L 196.64 185.48 C 195.70 185.58 195.02 186.42 195.11 187.35 C 195.20 188.29 196.04 188.98 196.98 188.89 Z M 197.95 188.79 L 198.95 188.69 C 199.89 188.59 200.58 187.75 200.48 186.81 C 200.39 185.87 199.55 185.19 198.61 185.28 L 197.60 185.39 C 196.66 185.48 195.97 186.32 196.07 187.26 C 196.17 188.20 197.01 188.89 197.95 188.79 Z M 198.96 188.69 L 199.95 188.59 C 200.89 188.49 201.58 187.65 201.48 186.71 C 201.38 185.77 200.54 185.08 199.60 185.18 L 198.60 185.28 C 197.66 185.38 196.98 186.22 197.08 187.16 C 197.17 188.10 198.02 188.79 198.96 188.69 Z M 199.95 188.59 L 200.94 188.49 C 201.88 188.39 202.56 187.54 202.47 186.60 C 202.37 185.66 201.52 184.97 200.58 185.07 L 199.60 185.18 C 198.65 185.27 197.97 186.12 198.07 187.06 C 198.17 188.00 199.01 188.69 199.95 188.59 Z M 200.94 188.49 L 201.92 188.39 C 202.86 188.29 203.55 187.44 203.45 186.50 C 203.35 185.55 202.51 184.87 201.56 184.97 L 200.58 185.07 C 199.63 185.17 198.95 186.02 199.05 186.96 C 199.15 187.90 199.99 188.59 200.94 188.49 Z M 201.92 188.39 L 202.91 188.29 C 203.85 188.19 204.54 187.34 204.44 186.40 C 204.34 185.45 203.50 184.76 202.55 184.86 L 201.56 184.96 C 200.62 185.06 199.93 185.91 200.03 186.86 C 200.13 187.80 200.97 188.49 201.92 188.39 Z M 202.90 188.29 L 203.90 188.19 C 204.85 188.09 205.54 187.24 205.44 186.29 C 205.35 185.35 204.50 184.66 203.55 184.76 L 202.55 184.86 C 201.60 184.96 200.91 185.80 201.01 186.75 C 201.11 187.70 201.96 188.39 202.90 188.29 Z M 203.90 188.19 L 204.91 188.09 C 205.86 187.99 206.55 187.14 206.45 186.20 C 206.36 185.25 205.51 184.56 204.56 184.65 L 203.55 184.75 C 202.61 184.85 201.91 185.70 202.01 186.65 C 202.11 187.59 202.95 188.28 203.90 188.19 Z M 204.90 188.09 L 205.92 187.99 C 206.87 187.89 207.56 187.05 207.47 186.10 C 207.37 185.15 206.53 184.46 205.58 184.55 L 204.56 184.65 C 203.62 184.75 202.92 185.59 203.02 186.54 C 203.11 187.49 203.96 188.18 204.90 188.09 Z M 205.92 187.99 L 206.93 187.89 C 207.88 187.79 208.58 186.95 208.48 186.00 C 208.39 185.05 207.55 184.36 206.60 184.45 L 205.58 184.55 C 204.64 184.64 203.94 185.49 204.03 186.44 C 204.13 187.38 204.97 188.08 205.92 187.99 Z M 206.93 187.89 L 207.94 187.79 C 208.89 187.70 209.58 186.86 209.49 185.91 C 209.40 184.96 208.56 184.27 207.61 184.36 L 206.60 184.45 C 205.66 184.54 204.96 185.39 205.05 186.33 C 205.14 187.28 205.98 187.98 206.93 187.89 Z M 207.94 187.79 L 208.93 187.70 C 209.87 187.61 210.57 186.77 210.48 185.82 C 210.39 184.87 209.55 184.18 208.61 184.27 L 207.62 184.36 C 206.67 184.45 205.97 185.29 206.06 186.23 C 206.15 187.18 206.99 187.88 207.94 187.79 Z M 208.92 187.70 L 209.89 187.61 C 210.83 187.52 211.53 186.69 211.45 185.74 C 211.36 184.79 210.52 184.09 209.58 184.18 L 208.61 184.27 C 207.66 184.35 206.97 185.19 207.05 186.14 C 207.14 187.08 207.98 187.78 208.92 187.70 Z M 209.88 187.61 L 210.89 187.52 C 211.84 187.44 212.54 186.60 212.45 185.65 C 212.37 184.71 211.54 184.01 210.59 184.09 L 209.58 184.18 C 208.63 184.26 207.93 185.10 208.02 186.04 C 208.10 186.99 208.94 187.69 209.88 187.61 Z M 210.88 187.52 L 211.94 187.43 C 212.88 187.35 213.59 186.52 213.51 185.57 C 213.43 184.62 212.60 183.92 211.65 184.00 L 210.60 184.09 C 209.65 184.17 208.94 185.00 209.02 185.95 C 209.10 186.90 209.94 187.60 210.88 187.52 Z M 211.93 187.44 L 212.94 187.36 C 213.89 187.28 214.60 186.45 214.52 185.50 C 214.45 184.55 213.62 183.84 212.67 183.92 L 211.66 184.00 C 210.71 184.07 210.00 184.90 210.07 185.85 C 210.15 186.80 210.98 187.51 211.93 187.44 Z M 212.93 187.36 L 213.90 187.29 C 214.86 187.22 215.57 186.39 215.50 185.44 C 215.44 184.49 214.61 183.77 213.66 183.84 L 212.68 183.91 C 211.73 183.98 211.01 184.81 211.08 185.76 C 211.15 186.71 211.97 187.43 212.93 187.36 Z M 213.89 187.29 L 214.85 187.23 C 215.80 187.17 216.53 186.35 216.46 185.39 C 216.40 184.44 215.58 183.72 214.63 183.78 L 213.67 183.84 C 212.71 183.90 211.99 184.72 212.05 185.68 C 212.11 186.63 212.94 187.36 213.89 187.29 Z M 214.83 187.24 L 215.78 187.18 C 216.74 187.13 217.47 186.31 217.41 185.35 C 217.36 184.40 216.54 183.67 215.59 183.72 L 214.64 183.77 C 213.68 183.83 212.95 184.65 213.01 185.60 C 213.06 186.56 213.88 187.29 214.83 187.24 Z M 215.76 187.18 L 216.78 187.14 C 217.74 187.09 218.48 186.28 218.43 185.32 C 218.39 184.37 217.58 183.63 216.62 183.67 L 215.60 183.72 C 214.65 183.77 213.91 184.58 213.95 185.53 C 214.00 186.49 214.81 187.23 215.76 187.18 Z M 216.77 187.13 L 217.79 187.09 C 218.74 187.06 219.48 186.25 219.45 185.30 C 219.41 184.34 218.61 183.60 217.65 183.64 L 216.64 183.68 C 215.68 183.71 214.94 184.52 214.97 185.47 C 215.01 186.43 215.82 187.17 216.77 187.13 Z M 217.78 187.09 L 218.78 187.06 C 219.73 187.03 220.48 186.23 220.45 185.28 C 220.42 184.32 219.62 183.57 218.67 183.61 L 217.66 183.64 C 216.71 183.67 215.96 184.47 215.99 185.42 C 216.02 186.38 216.82 187.12 217.78 187.09 Z M 218.77 187.06 L 219.76 187.03 C 220.72 187.00 221.47 186.20 221.44 185.25 C 221.41 184.30 220.62 183.55 219.66 183.58 L 218.67 183.61 C 217.72 183.64 216.97 184.43 217.00 185.38 C 217.03 186.33 217.82 187.08 218.77 187.06 Z M 219.76 187.02 L 220.73 187.00 C 221.68 186.97 222.43 186.18 222.40 185.23 C 222.38 184.28 221.59 183.53 220.64 183.56 L 219.67 183.58 C 218.72 183.61 217.97 184.40 217.99 185.35 C 218.02 186.30 218.81 187.05 219.76 187.02 Z M 220.73 187.00 L 221.78 186.97 C 222.73 186.94 223.48 186.15 223.45 185.20 C 223.43 184.25 222.64 183.50 221.69 183.53 L 220.64 183.56 C 219.69 183.58 218.94 184.37 218.96 185.32 C 218.99 186.27 219.78 187.02 220.73 187.00 Z M 221.78 186.97 L 222.81 186.94 C 223.76 186.91 224.51 186.12 224.48 185.17 C 224.46 184.22 223.66 183.47 222.71 183.50 L 221.69 183.53 C 220.74 183.55 219.99 184.34 220.01 185.29 C 220.04 186.24 220.83 186.99 221.78 186.97 Z M 222.80 186.94 L 223.80 186.92 C 224.75 186.89 225.50 186.10 225.48 185.15 C 225.45 184.20 224.66 183.45 223.71 183.47 L 222.72 183.50 C 221.77 183.52 221.01 184.31 221.04 185.26 C 221.06 186.21 221.85 186.97 222.80 186.94 Z M 223.79 186.92 L 224.75 186.90 C 225.71 186.88 226.46 186.09 226.44 185.14 C 226.42 184.18 225.63 183.43 224.68 183.45 L 223.72 183.47 C 222.77 183.49 222.01 184.28 222.03 185.23 C 222.05 186.18 222.84 186.94 223.79 186.92 Z M 224.74 186.90 L 225.73 186.88 C 226.68 186.86 227.44 186.08 227.42 185.13 C 227.40 184.18 226.62 183.42 225.67 183.44 L 224.69 183.45 C 223.74 183.47 222.98 184.25 222.99 185.20 C 223.01 186.15 223.79 186.91 224.74 186.90 Z M 225.72 186.88 L 226.74 186.87 C 227.69 186.86 228.45 186.08 228.44 185.13 C 228.43 184.18 227.65 183.42 226.70 183.43 L 225.68 183.44 C 224.73 183.45 223.97 184.23 223.98 185.17 C 223.99 186.12 224.77 186.88 225.72 186.88 Z M 226.73 186.86 L 227.72 186.85 C 228.67 186.85 229.43 186.08 229.43 185.14 C 229.42 184.19 228.65 183.43 227.71 183.43 L 226.71 183.44 C 225.77 183.44 225.00 184.21 225.01 185.16 C 225.01 186.10 225.78 186.86 226.73 186.86 Z M 227.72 186.85 L 228.70 186.85 C 229.64 186.85 230.40 186.08 230.40 185.14 C 230.40 184.20 229.63 183.44 228.69 183.44 L 227.71 183.44 C 226.77 183.44 226.01 184.20 226.01 185.15 C 226.01 186.09 226.78 186.85 227.72 186.85 Z M 228.69 186.84 L 229.22 186.84 C 230.16 186.84 230.92 186.08 230.92 185.14 C 230.92 184.20 230.16 183.44 229.22 183.44 L 228.69 183.44 C 227.75 183.44 226.99 184.20 226.99 185.14 C 226.99 186.08 227.76 186.84 228.69 186.84 Z"
      fill="black"
      fill-rule="nonzero" /></svg>