<svg xmlns="http://www.w3.org/2000/svg" width="300" height="300" viewBox="0 0 300 300">
<path d="M 109.81 90.45 L 110.65 90.18 C 111.47 89.91 111.93 89.03 111.66 88.21 C 111.40 87.39 110.52 86.94 109.69 87.20 L 108.85 87.48 C 108.03 87.74 107.58 88.62 107.85 89.44 C 108.11 90.26 108.99 90.71 109.81 90.45 Z M 110.57 90.20 L 111.47 89.96 C 112.31 89.74 112.80 88.88 112.58 88.05 C 112.36 87.22 111.51 86.72 110.67 86.94 L 109.77 87.18 C 108.94 87.40 108.44 88.26 108.67 89.09 C 108.89 89.92 109.74 90.42 110.57 90.20 Z M 111.34 89.99 L 112.35 89.82 C 113.20 89.67 113.78 88.87 113.63 88.02 C 113.49 87.17 112.68 86.60 111.83 86.74 L 110.81 86.91 C 109.96 87.06 109.39 87.86 109.54 88.71 C 109.68 89.56 110.49 90.13 111.34 89.99 Z M 112.19 89.84 L 113.31 89.76 C 114.18 89.71 114.83 88.97 114.77 88.11 C 114.72 87.25 113.97 86.59 113.11 86.65 L 111.99 86.72 C 111.13 86.78 110.48 87.52 110.53 88.38 C 110.59 89.24 111.33 89.89 112.19 89.84 Z M 113.19 89.77 L 114.10 89.78 C 114.97 89.79 115.67 89.10 115.68 88.24 C 115.70 87.38 115.01 86.67 114.14 86.66 L 113.24 86.65 C 112.37 86.63 111.66 87.32 111.65 88.19 C 111.64 89.05 112.33 89.76 113.19 89.77 Z M 114.03 89.78 L 115.01 89.83 C 115.88 89.88 116.61 89.23 116.66 88.37 C 116.71 87.50 116.06 86.77 115.19 86.72 L 114.21 86.66 C 113.35 86.61 112.62 87.27 112.57 88.13 C 112.52 88.99 113.17 89.73 114.03 89.78 Z M 114.97 89.83 L 115.99 89.92 C 116.85 90.00 117.61 89.36 117.68 88.50 C 117.76 87.64 117.13 86.89 116.27 86.81 L 115.24 86.72 C 114.38 86.64 113.62 87.28 113.55 88.14 C 113.47 89.00 114.11 89.75 114.97 89.83 Z M 115.96 89.92 L 117.00 90.03 C 117.86 90.12 118.63 89.51 118.72 88.65 C 118.82 87.79 118.20 87.02 117.34 86.93 L 116.30 86.81 C 115.44 86.72 114.67 87.34 114.58 88.20 C 114.48 89.05 115.10 89.82 115.96 89.92 Z M 116.98 90.03 L 118.02 90.15 C 118.87 90.26 119.65 89.65 119.76 88.79 C 119.86 87.94 119.25 87.16 118.40 87.06 L 117.36 86.93 C 116.50 86.83 115.73 87.43 115.62 88.29 C 115.52 89.15 116.13 89.92 116.98 90.03 Z M 118.01 90.15 L 119.03 90.28 C 119.89 90.39 120.67 89.79 120.78 88.93 C 120.89 88.08 120.28 87.30 119.43 87.19 L 118.40 87.06 C 117.55 86.95 116.77 87.55 116.66 88.41 C 116.55 89.26 117.15 90.04 118.01 90.15 Z M 119.03 90.28 L 120.03 90.41 C 120.88 90.53 121.67 89.92 121.78 89.07 C 121.89 88.21 121.29 87.43 120.43 87.32 L 119.43 87.19 C 118.57 87.08 117.79 87.68 117.68 88.53 C 117.57 89.39 118.17 90.17 119.03 90.28 Z M 120.02 90.41 L 121.00 90.54 C 121.85 90.66 122.64 90.06 122.75 89.20 C 122.87 88.35 122.27 87.56 121.41 87.45 L 120.44 87.32 C 119.58 87.20 118.80 87.81 118.68 88.66 C 118.57 89.52 119.17 90.30 120.02 90.41 Z M 121.00 90.54 L 121.96 90.67 C 122.82 90.79 123.61 90.19 123.72 89.34 C 123.84 88.48 123.24 87.70 122.38 87.58 L 121.41 87.45 C 120.56 87.33 119.77 87.93 119.66 88.79 C 119.54 89.64 120.14 90.43 121.00 90.54 Z M 121.96 90.67 L 122.94 90.81 C 123.79 90.93 124.58 90.33 124.70 89.48 C 124.82 88.62 124.22 87.83 123.37 87.72 L 122.39 87.58 C 121.53 87.46 120.75 88.06 120.63 88.91 C 120.51 89.77 121.11 90.56 121.96 90.67 Z M 122.94 90.81 L 123.95 90.95 C 124.80 91.07 125.59 90.47 125.71 89.62 C 125.83 88.77 125.23 87.98 124.38 87.86 L 123.37 87.72 C 122.52 87.60 121.73 88.19 121.61 89.05 C 121.49 89.90 122.08 90.69 122.94 90.81 Z M 123.94 90.95 L 124.87 91.08 C 125.73 91.20 126.52 90.61 126.64 89.75 C 126.76 88.90 126.17 88.11 125.31 87.99 L 124.38 87.86 C 123.53 87.74 122.74 88.33 122.62 89.18 C 122.50 90.04 123.09 90.83 123.94 90.95 Z M 124.87 91.08 L 125.83 91.22 C 126.69 91.34 127.48 90.75 127.60 89.89 C 127.72 89.04 127.13 88.25 126.28 88.13 L 125.31 87.99 C 124.46 87.87 123.67 88.46 123.55 89.31 C 123.43 90.17 124.02 90.96 124.87 91.08 Z M 125.83 91.22 L 126.82 91.36 C 127.67 91.48 128.46 90.89 128.59 90.04 C 128.71 89.19 128.12 88.39 127.26 88.27 L 126.28 88.13 C 125.42 88.00 124.63 88.60 124.51 89.45 C 124.39 90.30 124.98 91.10 125.83 91.22 Z M 126.82 91.36 L 127.82 91.51 C 128.68 91.63 129.47 91.04 129.59 90.19 C 129.72 89.33 129.13 88.54 128.27 88.42 L 127.27 88.27 C 126.41 88.15 125.62 88.74 125.50 89.59 C 125.37 90.44 125.96 91.24 126.82 91.36 Z M 127.82 91.51 L 128.84 91.66 C 129.70 91.78 130.49 91.19 130.61 90.34 C 130.74 89.48 130.15 88.69 129.29 88.57 L 128.27 88.42 C 127.42 88.29 126.63 88.88 126.50 89.74 C 126.38 90.59 126.97 91.38 127.82 91.51 Z M 128.84 91.66 L 129.87 91.80 C 130.72 91.93 131.52 91.34 131.64 90.49 C 131.76 89.63 131.17 88.84 130.32 88.72 L 129.29 88.57 C 128.44 88.44 127.65 89.03 127.52 89.88 C 127.40 90.74 127.99 91.53 128.84 91.66 Z M 129.87 91.80 L 130.86 91.95 C 131.72 92.07 132.51 91.48 132.63 90.63 C 132.76 89.78 132.17 88.98 131.31 88.86 L 130.32 88.72 C 129.47 88.59 128.67 89.18 128.55 90.03 C 128.43 90.89 129.02 91.68 129.87 91.80 Z M 130.86 91.95 L 131.85 92.09 C 132.70 92.22 133.49 91.63 133.62 90.77 C 133.74 89.92 133.15 89.13 132.30 89.00 L 131.31 88.86 C 130.46 88.74 129.67 89.33 129.54 90.18 C 129.42 91.03 130.01 91.83 130.86 91.95 Z M 131.85 92.09 L 132.83 92.23 C 133.69 92.36 134.48 91.77 134.60 90.91 C 134.73 90.06 134.13 89.27 133.28 89.14 L 132.29 89.00 C 131.44 88.88 130.65 89.47 130.53 90.32 C 130.40 91.18 131.00 91.97 131.85 92.09 Z M 132.84 92.24 L 133.83 92.38 C 134.68 92.50 135.47 91.90 135.59 91.05 C 135.71 90.20 135.12 89.41 134.27 89.28 L 133.28 89.14 C 132.42 89.02 131.63 89.62 131.51 90.47 C 131.39 91.32 131.98 92.11 132.84 92.24 Z M 133.83 92.38 L 134.82 92.52 C 135.68 92.63 136.47 92.04 136.58 91.19 C 136.70 90.33 136.11 89.54 135.25 89.42 L 134.26 89.28 C 133.41 89.16 132.62 89.76 132.50 90.61 C 132.38 91.47 132.98 92.26 133.83 92.38 Z M 134.83 92.52 L 135.82 92.65 C 136.68 92.77 137.47 92.17 137.58 91.32 C 137.70 90.46 137.10 89.68 136.25 89.56 L 135.25 89.42 C 134.40 89.31 133.61 89.90 133.49 90.76 C 133.37 91.61 133.97 92.40 134.83 92.52 Z M 135.83 92.65 L 136.83 92.79 C 137.68 92.90 138.47 92.30 138.58 91.45 C 138.69 90.59 138.09 89.81 137.24 89.69 L 136.24 89.56 C 135.39 89.44 134.60 90.04 134.49 90.90 C 134.37 91.75 134.97 92.54 135.83 92.65 Z M 136.83 92.79 L 137.82 92.92 C 138.68 93.03 139.46 92.42 139.57 91.57 C 139.68 90.71 139.08 89.93 138.22 89.82 L 137.23 89.69 C 136.38 89.58 135.59 90.18 135.48 91.04 C 135.37 91.89 135.98 92.68 136.83 92.79 Z M 137.83 92.92 L 138.82 93.04 C 139.68 93.15 140.46 92.54 140.57 91.69 C 140.67 90.83 140.07 90.05 139.21 89.94 L 138.22 89.82 C 137.36 89.71 136.58 90.32 136.47 91.17 C 136.37 92.03 136.97 92.81 137.83 92.92 Z M 138.83 93.04 L 139.82 93.16 C 140.68 93.27 141.46 92.66 141.56 91.80 C 141.67 90.95 141.06 90.17 140.20 90.06 L 139.21 89.94 C 138.35 89.84 137.57 90.45 137.47 91.30 C 137.36 92.16 137.97 92.94 138.83 93.04 Z M 139.83 93.16 L 140.82 93.28 C 141.68 93.39 142.46 92.78 142.56 91.92 C 142.66 91.06 142.05 90.29 141.19 90.18 L 140.20 90.06 C 139.34 89.96 138.56 90.57 138.46 91.43 C 138.36 92.29 138.97 93.06 139.83 93.16 Z M 140.83 93.28 L 141.82 93.40 C 142.68 93.50 143.45 92.89 143.55 92.03 C 143.65 91.17 143.04 90.40 142.18 90.30 L 141.19 90.18 C 140.33 90.08 139.56 90.70 139.46 91.55 C 139.36 92.41 139.97 93.18 140.83 93.28 Z M 141.82 93.40 L 142.81 93.51 C 143.67 93.61 144.45 93.00 144.54 92.14 C 144.64 91.28 144.03 90.51 143.17 90.41 L 142.18 90.30 C 141.32 90.20 140.55 90.82 140.45 91.67 C 140.35 92.53 140.97 93.30 141.82 93.40 Z M 142.82 93.51 L 143.82 93.63 C 144.68 93.72 145.45 93.10 145.54 92.25 C 145.64 91.39 145.02 90.62 144.17 90.52 L 143.17 90.41 C 142.31 90.32 141.54 90.93 141.44 91.79 C 141.34 92.65 141.96 93.42 142.82 93.51 Z M 143.82 93.63 L 144.82 93.74 C 145.68 93.83 146.45 93.21 146.55 92.35 C 146.64 91.50 146.02 90.73 145.16 90.63 L 144.16 90.52 C 143.31 90.43 142.53 91.05 142.44 91.90 C 142.35 92.76 142.97 93.53 143.82 93.63 Z M 144.83 93.74 L 145.82 93.84 C 146.68 93.94 147.45 93.32 147.54 92.46 C 147.63 91.60 147.01 90.83 146.16 90.74 L 145.16 90.63 C 144.30 90.54 143.53 91.16 143.44 92.02 C 143.35 92.87 143.97 93.64 144.83 93.74 Z M 145.82 93.84 L 146.82 93.95 C 147.67 94.04 148.44 93.42 148.53 92.56 C 148.63 91.70 148.00 90.94 147.15 90.84 L 146.15 90.74 C 145.30 90.65 144.53 91.27 144.44 92.13 C 144.35 92.98 144.97 93.75 145.82 93.84 Z M 146.82 93.95 L 147.81 94.05 C 148.67 94.14 149.43 93.52 149.52 92.66 C 149.62 91.81 148.99 91.04 148.14 90.95 L 147.15 90.84 C 146.29 90.75 145.52 91.38 145.43 92.23 C 145.34 93.09 145.96 93.86 146.82 93.95 Z M 147.81 94.05 L 148.80 94.16 C 149.66 94.25 150.42 93.62 150.51 92.77 C 150.60 91.91 149.98 91.14 149.12 91.05 L 148.13 90.95 C 147.28 90.86 146.51 91.48 146.42 92.34 C 146.33 93.20 146.95 93.96 147.81 94.05 Z M 148.80 94.16 L 149.79 94.26 C 150.65 94.35 151.41 93.73 151.50 92.87 C 151.59 92.01 150.97 91.24 150.11 91.15 L 149.12 91.05 C 148.26 90.96 147.50 91.58 147.41 92.44 C 147.32 93.30 147.94 94.07 148.80 94.16 Z M 149.79 94.26 L 150.78 94.36 C 151.64 94.45 152.41 93.83 152.49 92.97 C 152.58 92.11 151.96 91.35 151.10 91.26 L 150.11 91.15 C 149.25 91.07 148.49 91.69 148.40 92.55 C 148.31 93.40 148.93 94.17 149.79 94.26 Z M 150.78 94.36 L 151.78 94.46 C 152.63 94.55 153.40 93.93 153.49 93.07 C 153.57 92.21 152.95 91.45 152.09 91.36 L 151.10 91.26 C 150.24 91.17 149.48 91.79 149.39 92.65 C 149.30 93.51 149.92 94.28 150.78 94.36 Z M 151.78 94.47 L 152.77 94.56 C 153.63 94.65 154.40 94.02 154.48 93.17 C 154.57 92.31 153.94 91.54 153.08 91.46 L 152.09 91.36 C 151.23 91.27 150.47 91.90 150.38 92.76 C 150.29 93.61 150.92 94.38 151.78 94.47 Z M 152.78 94.57 L 153.77 94.66 C 154.63 94.74 155.39 94.12 155.48 93.26 C 155.56 92.40 154.93 91.64 154.07 91.55 L 153.08 91.46 C 152.22 91.37 151.46 92.00 151.37 92.86 C 151.29 93.72 151.92 94.48 152.78 94.57 Z M 153.78 94.66 L 154.78 94.75 C 155.64 94.83 156.40 94.20 156.48 93.34 C 156.55 92.48 155.92 91.72 155.06 91.64 L 154.07 91.55 C 153.21 91.47 152.45 92.11 152.37 92.96 C 152.29 93.82 152.92 94.58 153.78 94.66 Z M 154.79 94.75 L 155.79 94.84 C 156.65 94.91 157.40 94.28 157.48 93.42 C 157.55 92.56 156.91 91.80 156.06 91.73 L 155.06 91.64 C 154.20 91.57 153.44 92.21 153.37 93.06 C 153.29 93.92 153.93 94.68 154.79 94.75 Z M 155.80 94.84 L 156.78 94.92 C 157.63 94.99 158.39 94.35 158.46 93.49 C 158.53 92.63 157.88 91.88 157.02 91.81 L 156.05 91.73 C 155.19 91.66 154.43 92.30 154.37 93.16 C 154.30 94.02 154.94 94.77 155.80 94.84 Z M 156.78 94.92 L 157.76 94.99 C 158.62 95.06 159.37 94.41 159.44 93.55 C 159.50 92.69 158.86 91.94 158.00 91.88 L 157.02 91.81 C 156.16 91.74 155.41 92.39 155.34 93.25 C 155.28 94.11 155.92 94.86 156.78 94.92 Z M 157.77 94.99 L 158.76 95.06 C 159.62 95.13 160.36 94.48 160.42 93.62 C 160.49 92.76 159.84 92.01 158.98 91.95 L 157.99 91.88 C 157.13 91.82 156.38 92.47 156.32 93.33 C 156.26 94.19 156.91 94.93 157.77 94.99 Z M 158.76 95.06 L 159.76 95.13 C 160.62 95.19 161.36 94.54 161.42 93.68 C 161.48 92.82 160.83 92.08 159.97 92.02 L 158.97 91.95 C 158.11 91.89 157.37 92.54 157.31 93.40 C 157.25 94.26 157.90 95.01 158.76 95.06 Z M 159.76 95.13 L 160.76 95.20 C 161.62 95.26 162.37 94.61 162.42 93.75 C 162.48 92.89 161.83 92.14 160.97 92.08 L 159.97 92.02 C 159.11 91.96 158.36 92.61 158.30 93.47 C 158.25 94.33 158.90 95.08 159.76 95.13 Z M 160.76 95.20 L 161.78 95.27 C 162.64 95.32 163.38 94.67 163.44 93.81 C 163.50 92.95 162.85 92.21 161.99 92.15 L 160.97 92.08 C 160.11 92.03 159.37 92.68 159.31 93.54 C 159.25 94.40 159.90 95.14 160.76 95.20 Z M 161.78 95.27 L 162.80 95.34 C 163.66 95.39 164.41 94.74 164.46 93.88 C 164.52 93.02 163.87 92.28 163.01 92.22 L 161.99 92.15 C 161.13 92.09 160.38 92.74 160.33 93.60 C 160.27 94.46 160.92 95.21 161.78 95.27 Z M 162.80 95.34 L 163.81 95.41 C 164.67 95.47 165.41 94.82 165.47 93.96 C 165.53 93.10 164.88 92.35 164.02 92.29 L 163.01 92.22 C 162.15 92.16 161.41 92.81 161.35 93.67 C 161.29 94.53 161.94 95.28 162.80 95.34 Z M 163.81 95.41 L 164.82 95.48 C 165.68 95.54 166.43 94.89 166.49 94.03 C 166.55 93.17 165.90 92.42 165.04 92.36 L 164.03 92.29 C 163.17 92.23 162.42 92.88 162.36 93.74 C 162.30 94.60 162.95 95.35 163.81 95.41 Z M 164.82 95.48 L 165.83 95.55 C 166.69 95.61 167.44 94.96 167.50 94.10 C 167.56 93.24 166.92 92.50 166.06 92.44 L 165.04 92.36 C 164.18 92.30 163.44 92.95 163.37 93.81 C 163.31 94.67 163.96 95.42 164.82 95.48 Z M 165.83 95.55 L 166.84 95.62 C 167.70 95.69 168.45 95.04 168.51 94.18 C 168.57 93.32 167.92 92.57 167.06 92.51 L 166.06 92.44 C 165.20 92.37 164.45 93.02 164.39 93.88 C 164.33 94.74 164.97 95.49 165.83 95.55 Z M 166.84 95.62 L 167.83 95.69 C 168.69 95.76 169.44 95.11 169.50 94.25 C 169.56 93.39 168.92 92.64 168.06 92.58 L 167.06 92.51 C 166.20 92.45 165.46 93.09 165.39 93.95 C 165.33 94.81 165.98 95.56 166.84 95.62 Z M 167.83 95.69 L 168.80 95.77 C 169.66 95.83 170.41 95.18 170.47 94.32 C 170.53 93.46 169.89 92.71 169.03 92.65 L 168.06 92.58 C 167.20 92.52 166.45 93.16 166.39 94.02 C 166.32 94.88 166.97 95.63 167.83 95.69 Z M 168.80 95.77 L 169.81 95.84 C 170.67 95.90 171.42 95.25 171.48 94.39 C 171.54 93.53 170.90 92.79 170.04 92.72 L 169.03 92.65 C 168.17 92.59 167.42 93.24 167.36 94.10 C 167.30 94.96 167.94 95.70 168.80 95.77 Z M 169.81 95.84 L 170.87 95.91 C 171.73 95.98 172.47 95.33 172.54 94.47 C 172.60 93.61 171.95 92.86 171.09 92.80 L 170.04 92.72 C 169.18 92.66 168.43 93.31 168.37 94.17 C 168.31 95.03 168.95 95.78 169.81 95.84 Z M 170.87 95.91 L 171.88 95.99 C 172.74 96.05 173.49 95.40 173.55 94.54 C 173.62 93.68 172.97 92.94 172.11 92.87 L 171.09 92.80 C 170.23 92.74 169.48 93.38 169.42 94.24 C 169.36 95.10 170.01 95.85 170.87 95.91 Z M 171.88 95.99 L 172.87 96.06 C 173.73 96.12 174.48 95.48 174.54 94.62 C 174.61 93.76 173.96 93.01 173.10 92.95 L 172.11 92.87 C 171.25 92.81 170.50 93.46 170.44 94.32 C 170.38 95.18 171.02 95.92 171.88 95.99 Z M 172.87 96.06 L 173.83 96.13 C 174.69 96.20 175.44 95.56 175.51 94.70 C 175.58 93.84 174.93 93.09 174.07 93.02 L 173.11 92.95 C 172.25 92.88 171.50 93.53 171.43 94.38 C 171.36 95.24 172.01 95.99 172.87 96.06 Z M 173.83 96.13 L 174.77 96.21 C 175.63 96.28 176.39 95.64 176.46 94.78 C 176.52 93.92 175.88 93.17 175.02 93.10 L 174.08 93.02 C 173.22 92.95 172.47 93.59 172.40 94.45 C 172.33 95.31 172.97 96.07 173.83 96.13 Z M 174.77 96.21 L 175.76 96.29 C 176.62 96.37 177.38 95.73 177.45 94.87 C 177.53 94.01 176.89 93.26 176.03 93.18 L 175.03 93.10 C 174.17 93.02 173.42 93.66 173.34 94.52 C 173.27 95.38 173.91 96.14 174.77 96.21 Z M 175.76 96.30 L 176.79 96.39 C 177.65 96.47 178.41 95.83 178.49 94.97 C 178.56 94.11 177.93 93.35 177.07 93.28 L 176.04 93.18 C 175.18 93.10 174.42 93.74 174.34 94.60 C 174.26 95.46 174.90 96.22 175.76 96.30 Z M 176.78 96.39 L 177.79 96.49 C 178.65 96.57 179.41 95.94 179.50 95.08 C 179.58 94.22 178.95 93.46 178.09 93.37 L 177.08 93.27 C 176.22 93.19 175.45 93.82 175.37 94.68 C 175.29 95.54 175.92 96.31 176.78 96.39 Z M 177.78 96.49 L 178.77 96.59 C 179.63 96.68 180.40 96.06 180.49 95.20 C 180.58 94.34 179.95 93.57 179.09 93.48 L 178.10 93.37 C 177.24 93.28 176.47 93.91 176.38 94.77 C 176.29 95.63 176.92 96.40 177.78 96.49 Z M 178.75 96.59 L 179.71 96.70 C 180.57 96.80 181.35 96.18 181.45 95.32 C 181.54 94.46 180.93 93.68 180.06 93.58 L 179.10 93.47 C 178.24 93.38 177.47 94.00 177.37 94.86 C 177.27 95.72 177.89 96.50 178.75 96.59 Z M 179.70 96.70 L 180.68 96.82 C 181.54 96.93 182.33 96.31 182.43 95.45 C 182.54 94.59 181.92 93.81 181.06 93.70 L 180.08 93.58 C 179.22 93.48 178.43 94.09 178.33 94.95 C 178.22 95.81 178.84 96.60 179.70 96.70 Z M 180.67 96.82 L 181.73 96.96 C 182.59 97.08 183.38 96.47 183.49 95.61 C 183.61 94.75 183.00 93.96 182.14 93.84 L 181.08 93.70 C 180.22 93.59 179.43 94.19 179.31 95.05 C 179.20 95.92 179.80 96.71 180.67 96.82 Z M 181.71 96.96 L 182.72 97.11 C 183.58 97.23 184.38 96.63 184.50 95.77 C 184.63 94.91 184.03 94.11 183.17 93.99 L 182.16 93.84 C 181.30 93.72 180.50 94.32 180.37 95.18 C 180.25 96.04 180.85 96.84 181.71 96.96 Z M 182.70 97.11 L 183.66 97.26 C 184.52 97.39 185.33 96.80 185.46 95.94 C 185.60 95.08 185.01 94.27 184.14 94.14 L 183.19 93.99 C 182.32 93.85 181.52 94.44 181.38 95.31 C 181.25 96.17 181.84 96.97 182.70 97.11 Z M 183.64 97.26 L 184.55 97.41 C 185.41 97.55 186.22 96.97 186.37 96.11 C 186.51 95.24 185.93 94.43 185.07 94.29 L 184.16 94.14 C 183.30 93.99 182.48 94.58 182.34 95.44 C 182.20 96.30 182.78 97.11 183.64 97.26 Z M 184.52 97.41 L 185.50 97.58 C 186.36 97.74 187.18 97.17 187.34 96.31 C 187.50 95.45 186.93 94.62 186.07 94.47 L 185.09 94.29 C 184.23 94.13 183.41 94.70 183.25 95.56 C 183.09 96.42 183.66 97.25 184.52 97.41 Z M 185.42 97.57 L 186.37 97.79 C 187.22 97.99 188.08 97.46 188.28 96.61 C 188.48 95.75 187.94 94.90 187.09 94.70 L 186.14 94.48 C 185.29 94.28 184.43 94.81 184.23 95.66 C 184.03 96.52 184.57 97.37 185.42 97.57 Z M 186.23 97.76 L 187.17 98.07 C 188.01 98.34 188.91 97.88 189.18 97.04 C 189.45 96.20 188.99 95.30 188.16 95.03 L 187.22 94.73 C 186.38 94.46 185.48 94.92 185.21 95.75 C 184.94 96.59 185.40 97.49 186.23 97.76 Z M 187.01 98.01 L 187.95 98.43 C 188.75 98.79 189.70 98.43 190.06 97.62 C 190.42 96.81 190.06 95.87 189.25 95.51 L 188.32 95.09 C 187.51 94.73 186.56 95.09 186.20 95.90 C 185.84 96.70 186.20 97.65 187.01 98.01 Z M 187.81 98.37 L 188.61 98.81 C 189.38 99.25 190.36 98.97 190.79 98.20 C 191.23 97.43 190.95 96.45 190.18 96.02 L 189.39 95.57 C 188.61 95.14 187.64 95.41 187.20 96.18 C 186.77 96.95 187.04 97.93 187.81 98.37 Z M 188.53 98.77 L 189.35 99.29 C 190.10 99.77 191.09 99.56 191.57 98.81 C 192.05 98.06 191.83 97.07 191.08 96.59 L 190.26 96.06 C 189.52 95.59 188.52 95.80 188.04 96.55 C 187.57 97.30 187.78 98.29 188.53 98.77 Z M 189.30 99.26 L 190.14 99.85 C 190.87 100.35 191.87 100.17 192.38 99.45 C 192.88 98.72 192.70 97.71 191.98 97.21 L 191.14 96.62 C 190.41 96.12 189.40 96.30 188.90 97.02 C 188.39 97.75 188.57 98.75 189.30 99.26 Z M 190.11 99.83 L 190.96 100.45 C 191.68 100.97 192.69 100.81 193.21 100.10 C 193.74 99.38 193.58 98.37 192.86 97.85 L 192.01 97.23 C 191.29 96.70 190.28 96.86 189.76 97.58 C 189.23 98.30 189.39 99.31 190.11 99.83 Z M 190.95 100.44 L 191.53 100.87 C 192.24 101.40 193.25 101.25 193.78 100.53 C 194.31 99.82 194.16 98.81 193.45 98.28 L 192.87 97.85 C 192.16 97.32 191.15 97.47 190.62 98.19 C 190.09 98.90 190.24 99.91 190.95 100.44 Z"
      fill="black"
      fill-rule="nonzero" /><path d="M 98.92 151.91 L 97.59 151.62 C 96.74 151.44 95.91 151.98 95.73 152.82 C 95.55 153.67 96.09 154.50 96.93 154.68 L 98.27 154.96 C 99.11 155.14 99.94 154.60 100.12 153.76 C 100.30 152.92 99.76 152.09 98.92 151.91 Z M 97.63 151.63 L 96.44 151.35 C 95.61 151.14 94.76 151.66 94.56 152.49 C 94.36 153.33 94.87 154.18 95.71 154.38 L 96.89 154.67 C 97.73 154.87 98.57 154.36 98.78 153.52 C 98.98 152.68 98.47 151.84 97.63 151.63 Z M 96.57 151.38 L 95.67 151.09 C 94.85 150.82 93.97 151.26 93.70 152.08 C 93.43 152.90 93.87 153.78 94.69 154.05 L 95.59 154.35 C 96.41 154.62 97.29 154.17 97.56 153.35 C 97.83 152.53 97.38 151.65 96.57 151.38 Z M 96.05 151.27 L 95.60 150.97 C 94.88 150.49 93.91 150.68 93.43 151.39 C 92.95 152.11 93.14 153.08 93.86 153.56 L 94.31 153.86 C 95.03 154.35 96.00 154.15 96.48 153.44 C 96.96 152.72 96.77 151.75 96.05 151.27 Z M 96.19 152.81 L 96.32 152.48 C 96.62 151.67 96.21 150.77 95.41 150.46 C 94.60 150.16 93.70 150.57 93.40 151.37 L 93.27 151.71 C 92.96 152.52 93.37 153.42 94.18 153.72 C 94.98 154.03 95.88 153.62 96.19 152.81 Z M 95.56 153.32 L 96.26 152.96 C 97.03 152.57 97.34 151.63 96.94 150.86 C 96.55 150.09 95.61 149.79 94.84 150.18 L 94.15 150.53 C 93.38 150.92 93.07 151.87 93.46 152.63 C 93.86 153.40 94.80 153.71 95.56 153.32 Z M 96.04 153.05 L 97.14 152.69 C 97.96 152.42 98.40 151.54 98.13 150.72 C 97.86 149.90 96.98 149.46 96.16 149.73 L 95.07 150.09 C 94.25 150.36 93.80 151.24 94.07 152.06 C 94.34 152.88 95.22 153.32 96.04 153.05 Z M 97.06 152.72 L 98.39 152.36 C 99.22 152.13 99.71 151.27 99.48 150.44 C 99.26 149.61 98.40 149.12 97.57 149.34 L 96.24 149.70 C 95.41 149.93 94.92 150.78 95.14 151.62 C 95.37 152.45 96.23 152.94 97.06 152.72 Z M 98.36 152.36 L 99.41 152.10 C 100.25 151.88 100.76 151.03 100.54 150.20 C 100.33 149.36 99.48 148.86 98.65 149.07 L 97.59 149.34 C 96.76 149.55 96.25 150.40 96.46 151.23 C 96.67 152.07 97.52 152.57 98.36 152.36 Z M 99.40 152.10 L 100.41 151.85 C 101.25 151.64 101.76 150.80 101.56 149.96 C 101.35 149.12 100.50 148.61 99.67 148.82 L 98.66 149.07 C 97.82 149.27 97.31 150.12 97.51 150.95 C 97.72 151.79 98.57 152.30 99.40 152.10 Z M 100.41 151.85 L 101.40 151.61 C 102.24 151.41 102.76 150.56 102.56 149.73 C 102.35 148.89 101.51 148.37 100.67 148.58 L 99.67 148.82 C 98.84 149.02 98.32 149.86 98.52 150.70 C 98.72 151.54 99.57 152.05 100.41 151.85 Z M 101.40 151.61 L 102.37 151.38 C 103.21 151.18 103.73 150.34 103.53 149.50 C 103.33 148.66 102.48 148.14 101.65 148.34 L 100.68 148.57 C 99.84 148.77 99.32 149.62 99.52 150.45 C 99.72 151.29 100.56 151.81 101.40 151.61 Z M 102.37 151.38 L 103.30 151.16 C 104.14 150.96 104.65 150.12 104.46 149.28 C 104.26 148.44 103.41 147.92 102.57 148.12 L 101.65 148.34 C 100.81 148.54 100.29 149.38 100.49 150.22 C 100.69 151.06 101.53 151.58 102.37 151.38 Z M 103.30 151.16 L 104.26 150.93 C 105.10 150.73 105.62 149.88 105.42 149.05 C 105.22 148.21 104.38 147.69 103.54 147.89 L 102.57 148.12 C 101.73 148.32 101.22 149.17 101.42 150.00 C 101.62 150.84 102.46 151.36 103.30 151.16 Z M 104.27 150.93 L 105.28 150.68 C 106.11 150.48 106.63 149.64 106.43 148.80 C 106.22 147.96 105.38 147.45 104.54 147.65 L 103.53 147.89 C 102.70 148.09 102.18 148.94 102.38 149.78 C 102.59 150.61 103.43 151.13 104.27 150.93 Z M 105.27 150.68 L 106.23 150.45 C 107.07 150.25 107.58 149.41 107.38 148.57 C 107.18 147.73 106.34 147.22 105.50 147.42 L 104.54 147.65 C 103.71 147.85 103.19 148.69 103.39 149.53 C 103.59 150.37 104.44 150.89 105.27 150.68 Z M 106.22 150.46 L 107.16 150.24 C 107.99 150.04 108.52 149.20 108.32 148.36 C 108.12 147.52 107.28 147.00 106.44 147.20 L 105.51 147.42 C 104.67 147.61 104.15 148.45 104.34 149.29 C 104.54 150.13 105.38 150.65 106.22 150.46 Z M 107.14 150.24 L 108.09 150.03 C 108.93 149.84 109.45 149.00 109.26 148.16 C 109.07 147.32 108.24 146.79 107.40 146.98 L 106.45 147.19 C 105.61 147.38 105.09 148.22 105.28 149.06 C 105.47 149.90 106.30 150.43 107.14 150.24 Z M 108.07 150.03 L 108.98 149.83 C 109.82 149.65 110.36 148.82 110.17 147.98 C 109.99 147.13 109.16 146.60 108.32 146.78 L 107.41 146.98 C 106.57 147.16 106.03 147.99 106.21 148.83 C 106.40 149.68 107.23 150.21 108.07 150.03 Z M 108.97 149.83 L 109.92 149.64 C 110.76 149.46 111.30 148.63 111.13 147.79 C 110.95 146.95 110.12 146.40 109.28 146.58 L 108.33 146.78 C 107.49 146.95 106.94 147.78 107.12 148.62 C 107.30 149.47 108.12 150.01 108.97 149.83 Z M 109.91 149.64 L 110.90 149.44 C 111.74 149.27 112.29 148.44 112.12 147.60 C 111.95 146.75 111.12 146.21 110.28 146.38 L 109.29 146.58 C 108.44 146.75 107.90 147.57 108.07 148.42 C 108.24 149.26 109.06 149.81 109.91 149.64 Z M 110.89 149.44 L 111.92 149.24 C 112.77 149.07 113.32 148.25 113.15 147.40 C 112.98 146.56 112.16 146.01 111.32 146.17 L 110.28 146.38 C 109.44 146.54 108.89 147.37 109.06 148.21 C 109.22 149.06 110.04 149.61 110.89 149.44 Z M 111.92 149.24 L 112.92 149.04 C 113.76 148.88 114.32 148.06 114.15 147.21 C 113.98 146.36 113.17 145.81 112.32 145.98 L 111.32 146.17 C 110.47 146.34 109.92 147.16 110.09 148.00 C 110.25 148.85 111.07 149.40 111.92 149.24 Z M 112.91 149.04 L 113.83 148.86 C 114.68 148.70 115.23 147.88 115.07 147.04 C 114.90 146.19 114.08 145.64 113.24 145.80 L 112.32 145.98 C 111.47 146.14 110.92 146.96 111.09 147.81 C 111.25 148.65 112.07 149.21 112.91 149.04 Z M 113.83 148.86 L 114.78 148.68 C 115.62 148.52 116.18 147.70 116.01 146.85 C 115.85 146.01 115.03 145.45 114.18 145.62 L 113.24 145.80 C 112.39 145.96 111.84 146.78 112.00 147.63 C 112.16 148.47 112.98 149.03 113.83 148.86 Z M 114.77 148.68 L 115.75 148.50 C 116.60 148.33 117.16 147.51 116.99 146.67 C 116.83 145.82 116.01 145.27 115.17 145.43 L 114.19 145.62 C 113.34 145.78 112.78 146.60 112.95 147.44 C 113.11 148.29 113.93 148.85 114.77 148.68 Z M 115.75 148.50 L 116.77 148.30 C 117.62 148.14 118.17 147.32 118.01 146.47 C 117.85 145.63 117.03 145.07 116.18 145.23 L 115.17 145.43 C 114.32 145.59 113.76 146.41 113.93 147.26 C 114.09 148.10 114.91 148.66 115.75 148.50 Z M 116.77 148.30 L 117.82 148.10 C 118.67 147.94 119.22 147.12 119.06 146.27 C 118.90 145.43 118.08 144.87 117.23 145.03 L 116.18 145.23 C 115.33 145.40 114.78 146.21 114.94 147.06 C 115.10 147.91 115.92 148.46 116.77 148.30 Z M 117.82 148.10 L 118.80 147.91 C 119.64 147.75 120.20 146.93 120.04 146.09 C 119.87 145.24 119.06 144.68 118.21 144.85 L 117.23 145.03 C 116.39 145.19 115.83 146.01 115.99 146.86 C 116.16 147.71 116.97 148.26 117.82 148.10 Z M 118.80 147.91 L 119.73 147.73 C 120.58 147.57 121.14 146.75 120.97 145.91 C 120.81 145.06 119.99 144.50 119.15 144.67 L 118.21 144.85 C 117.36 145.01 116.81 145.83 116.97 146.67 C 117.13 147.52 117.95 148.07 118.80 147.91 Z M 119.73 147.73 L 120.70 147.55 C 121.54 147.39 122.10 146.57 121.94 145.72 C 121.78 144.88 120.96 144.32 120.11 144.48 L 119.15 144.67 C 118.30 144.83 117.75 145.64 117.91 146.49 C 118.07 147.34 118.89 147.89 119.73 147.73 Z M 120.69 147.55 L 121.68 147.36 C 122.52 147.20 123.08 146.39 122.92 145.54 C 122.76 144.69 121.94 144.14 121.10 144.30 L 120.11 144.48 C 119.27 144.64 118.71 145.46 118.87 146.31 C 119.03 147.15 119.85 147.71 120.69 147.55 Z M 121.67 147.37 L 122.67 147.18 C 123.52 147.02 124.08 146.20 123.92 145.36 C 123.76 144.51 122.95 143.95 122.10 144.11 L 121.10 144.30 C 120.25 144.45 119.69 145.27 119.85 146.12 C 120.01 146.96 120.83 147.52 121.67 147.37 Z M 122.67 147.18 L 123.69 146.99 C 124.53 146.84 125.09 146.02 124.94 145.17 C 124.78 144.33 123.97 143.77 123.12 143.92 L 122.11 144.11 C 121.26 144.26 120.70 145.08 120.85 145.93 C 121.01 146.77 121.82 147.34 122.67 147.18 Z M 123.68 146.99 L 124.71 146.81 C 125.56 146.65 126.12 145.84 125.97 144.99 C 125.81 144.15 125.00 143.58 124.15 143.74 L 123.13 143.92 C 122.28 144.07 121.71 144.89 121.87 145.73 C 122.02 146.58 122.83 147.15 123.68 146.99 Z M 124.70 146.81 L 125.68 146.64 C 126.53 146.49 127.09 145.68 126.94 144.83 C 126.79 143.98 125.98 143.41 125.13 143.56 L 124.16 143.73 C 123.31 143.88 122.74 144.69 122.89 145.54 C 123.04 146.39 123.85 146.96 124.70 146.81 Z M 125.67 146.64 L 126.64 146.47 C 127.49 146.32 128.06 145.52 127.91 144.67 C 127.76 143.82 126.96 143.25 126.11 143.39 L 125.14 143.56 C 124.29 143.71 123.72 144.52 123.87 145.37 C 124.02 146.22 124.82 146.78 125.67 146.64 Z M 126.63 146.47 L 127.61 146.31 C 128.46 146.16 129.03 145.36 128.89 144.51 C 128.74 143.66 127.94 143.08 127.09 143.23 L 126.11 143.39 C 125.26 143.54 124.69 144.34 124.83 145.19 C 124.98 146.04 125.78 146.62 126.63 146.47 Z M 127.60 146.31 L 128.59 146.14 C 129.44 146.00 130.01 145.20 129.87 144.35 C 129.73 143.50 128.92 142.92 128.07 143.06 L 127.09 143.23 C 126.24 143.37 125.66 144.17 125.81 145.02 C 125.95 145.87 126.75 146.45 127.60 146.31 Z M 128.58 146.14 L 129.57 145.98 C 130.42 145.84 131.00 145.04 130.86 144.19 C 130.72 143.34 129.92 142.76 129.07 142.90 L 128.08 143.06 C 127.23 143.20 126.65 144.01 126.79 144.86 C 126.93 145.71 127.73 146.28 128.58 146.14 Z M 129.57 145.98 L 130.57 145.82 C 131.42 145.68 132.00 144.88 131.86 144.03 C 131.72 143.18 130.92 142.60 130.07 142.74 L 129.07 142.90 C 128.22 143.04 127.64 143.84 127.78 144.69 C 127.92 145.54 128.72 146.12 129.57 145.98 Z M 130.57 145.82 L 131.57 145.66 C 132.43 145.52 133.01 144.72 132.87 143.87 C 132.73 143.02 131.93 142.44 131.08 142.58 L 130.07 142.74 C 129.22 142.87 128.64 143.67 128.78 144.53 C 128.91 145.38 129.71 145.96 130.57 145.82 Z M 131.57 145.66 L 132.57 145.50 C 133.42 145.37 134.00 144.57 133.87 143.72 C 133.73 142.86 132.93 142.28 132.08 142.42 L 131.08 142.58 C 130.23 142.71 129.65 143.51 129.79 144.36 C 129.92 145.21 130.72 145.79 131.57 145.66 Z M 132.57 145.50 L 133.54 145.35 C 134.40 145.22 134.98 144.42 134.85 143.57 C 134.71 142.71 133.91 142.13 133.06 142.26 L 132.09 142.42 C 131.23 142.55 130.65 143.35 130.78 144.20 C 130.92 145.05 131.72 145.64 132.57 145.50 Z M 133.54 145.35 L 134.52 145.20 C 135.38 145.07 135.96 144.27 135.83 143.42 C 135.70 142.56 134.90 141.98 134.05 142.11 L 133.06 142.26 C 132.21 142.40 131.63 143.19 131.76 144.05 C 131.89 144.90 132.69 145.48 133.54 145.35 Z M 134.52 145.20 L 135.51 145.05 C 136.36 144.92 136.95 144.12 136.82 143.27 C 136.69 142.42 135.89 141.83 135.04 141.96 L 134.05 142.11 C 133.20 142.24 132.61 143.04 132.74 143.89 C 132.87 144.74 133.67 145.33 134.52 145.20 Z M 135.51 145.05 L 136.50 144.90 C 137.35 144.77 137.94 143.98 137.81 143.12 C 137.68 142.27 136.89 141.68 136.04 141.81 L 135.04 141.96 C 134.19 142.09 133.60 142.88 133.73 143.74 C 133.86 144.59 134.65 145.18 135.51 145.05 Z M 136.49 144.90 L 137.49 144.75 C 138.34 144.63 138.93 143.83 138.81 142.98 C 138.68 142.13 137.89 141.54 137.03 141.66 L 136.04 141.81 C 135.19 141.94 134.60 142.73 134.72 143.58 C 134.85 144.44 135.64 145.03 136.49 144.90 Z M 137.48 144.75 L 138.48 144.61 C 139.33 144.49 139.93 143.70 139.80 142.84 C 139.68 141.99 138.89 141.40 138.04 141.52 L 137.04 141.66 C 136.19 141.79 135.59 142.58 135.72 143.43 C 135.84 144.28 136.63 144.88 137.48 144.75 Z M 138.48 144.61 L 139.47 144.47 C 140.33 144.35 140.92 143.56 140.80 142.71 C 140.68 141.85 139.89 141.26 139.04 141.38 L 138.04 141.52 C 137.19 141.64 136.59 142.43 136.71 143.28 C 136.83 144.14 137.62 144.73 138.48 144.61 Z M 139.47 144.47 L 140.46 144.34 C 141.32 144.22 141.91 143.43 141.80 142.58 C 141.68 141.72 140.89 141.13 140.04 141.24 L 139.04 141.38 C 138.19 141.50 137.59 142.28 137.71 143.14 C 137.82 143.99 138.61 144.59 139.47 144.47 Z M 140.45 144.34 L 141.45 144.21 C 142.30 144.09 142.90 143.31 142.79 142.45 C 142.68 141.60 141.89 141.00 141.04 141.11 L 140.05 141.24 C 139.19 141.35 138.59 142.14 138.70 142.99 C 138.81 143.85 139.60 144.45 140.45 144.34 Z M 141.44 144.21 L 142.43 144.08 C 143.29 143.97 143.89 143.19 143.79 142.33 C 143.68 141.48 142.89 140.87 142.04 140.98 L 141.05 141.11 C 140.19 141.22 139.59 142.00 139.69 142.86 C 139.80 143.71 140.59 144.32 141.44 144.21 Z M 142.43 144.08 L 143.42 143.96 C 144.27 143.86 144.88 143.08 144.78 142.22 C 144.67 141.36 143.89 140.75 143.04 140.86 L 142.05 140.98 C 141.19 141.09 140.58 141.87 140.69 142.72 C 140.79 143.58 141.57 144.19 142.43 144.08 Z M 143.41 143.96 L 144.40 143.85 C 145.26 143.75 145.87 142.97 145.77 142.11 C 145.67 141.26 144.90 140.64 144.04 140.74 L 143.05 140.86 C 142.19 140.96 141.58 141.73 141.68 142.59 C 141.78 143.45 142.55 144.06 143.41 143.96 Z M 144.39 143.85 L 145.39 143.74 C 146.24 143.64 146.86 142.87 146.77 142.01 C 146.67 141.15 145.90 140.54 145.04 140.63 L 144.05 140.74 C 143.19 140.84 142.57 141.61 142.67 142.47 C 142.76 143.32 143.54 143.94 144.39 143.85 Z M 145.38 143.74 L 146.37 143.63 C 147.23 143.54 147.85 142.77 147.76 141.92 C 147.67 141.06 146.90 140.43 146.04 140.52 L 145.05 140.63 C 144.19 140.72 143.57 141.49 143.66 142.35 C 143.75 143.21 144.52 143.83 145.38 143.74 Z M 146.36 143.63 L 147.35 143.54 C 148.21 143.45 148.84 142.69 148.76 141.83 C 148.67 140.97 147.91 140.34 147.05 140.43 L 146.05 140.52 C 145.19 140.61 144.56 141.37 144.65 142.23 C 144.73 143.09 145.50 143.72 146.36 143.63 Z M 147.34 143.54 L 148.34 143.45 C 149.20 143.37 149.83 142.61 149.75 141.75 C 149.67 140.89 148.91 140.25 148.05 140.33 L 147.06 140.42 C 146.20 140.50 145.56 141.26 145.64 142.12 C 145.72 142.98 146.48 143.62 147.34 143.54 Z M 148.33 143.45 L 149.33 143.37 C 150.19 143.29 150.83 142.53 150.75 141.67 C 150.68 140.81 149.92 140.17 149.06 140.24 L 148.06 140.33 C 147.20 140.40 146.56 141.16 146.63 142.02 C 146.71 142.88 147.47 143.52 148.33 143.45 Z M 149.32 143.37 L 150.31 143.29 C 151.18 143.22 151.82 142.47 151.76 141.60 C 151.69 140.74 150.93 140.09 150.07 140.16 L 149.07 140.24 C 148.20 140.31 147.56 141.06 147.63 141.93 C 147.70 142.79 148.45 143.44 149.32 143.37 Z M 150.30 143.29 L 151.30 143.22 C 152.17 143.16 152.82 142.41 152.76 141.54 C 152.70 140.67 151.94 140.02 151.08 140.08 L 150.08 140.16 C 149.21 140.22 148.56 140.97 148.62 141.84 C 148.68 142.70 149.44 143.36 150.30 143.29 Z M 151.29 143.23 L 152.29 143.16 C 153.16 143.10 153.82 142.35 153.76 141.48 C 153.70 140.62 152.95 139.96 152.09 140.01 L 151.09 140.08 C 150.22 140.14 149.56 140.89 149.62 141.76 C 149.67 142.62 150.42 143.28 151.29 143.23 Z M 152.28 143.16 L 153.28 143.10 C 154.15 143.05 154.81 142.31 154.76 141.44 C 154.71 140.56 153.96 139.90 153.09 139.95 L 152.10 140.01 C 151.22 140.06 150.56 140.81 150.61 141.68 C 150.66 142.55 151.41 143.22 152.28 143.16 Z M 153.27 143.11 L 154.27 143.06 C 155.14 143.01 155.81 142.27 155.76 141.39 C 155.72 140.52 154.97 139.85 154.10 139.90 L 153.10 139.95 C 152.23 139.99 151.56 140.74 151.61 141.61 C 151.65 142.48 152.40 143.15 153.27 143.11 Z M 154.26 143.06 L 155.25 143.01 C 156.13 142.97 156.80 142.23 156.76 141.36 C 156.72 140.48 155.98 139.81 155.11 139.85 L 154.11 139.89 C 153.24 139.93 152.56 140.67 152.60 141.55 C 152.64 142.42 153.38 143.10 154.26 143.06 Z M 155.24 143.02 L 156.23 142.98 C 157.10 142.94 157.78 142.20 157.75 141.33 C 157.71 140.45 156.98 139.77 156.10 139.80 L 155.12 139.84 C 154.24 139.88 153.56 140.62 153.59 141.49 C 153.63 142.37 154.37 143.05 155.24 143.02 Z M 156.22 142.98 L 157.20 142.95 C 158.08 142.92 158.76 142.18 158.73 141.30 C 158.70 140.43 157.97 139.74 157.09 139.77 L 156.11 139.80 C 155.23 139.83 154.54 140.57 154.57 141.44 C 154.60 142.32 155.34 143.01 156.22 142.98 Z M 157.19 142.95 L 158.18 142.92 C 159.05 142.90 159.75 142.16 159.72 141.29 C 159.70 140.41 158.96 139.71 158.09 139.74 L 157.10 139.77 C 156.22 139.79 155.53 140.52 155.55 141.40 C 155.58 142.28 156.31 142.97 157.19 142.95 Z M 158.17 142.92 L 159.16 142.90 C 160.04 142.88 160.73 142.15 160.71 141.27 C 160.69 140.39 159.96 139.69 159.08 139.71 L 158.09 139.74 C 157.21 139.76 156.52 140.49 156.54 141.37 C 156.56 142.25 157.29 142.94 158.17 142.92 Z M 159.15 142.90 L 160.15 142.88 C 161.03 142.87 161.73 142.14 161.71 141.26 C 161.70 140.38 160.97 139.68 160.09 139.69 L 159.09 139.71 C 158.21 139.73 157.51 140.46 157.52 141.34 C 157.54 142.22 158.27 142.92 159.15 142.90 Z M 160.14 142.89 L 161.15 142.87 C 162.03 142.86 162.74 142.13 162.72 141.25 C 162.71 140.37 161.99 139.66 161.10 139.67 L 160.09 139.69 C 159.21 139.70 158.51 140.43 158.52 141.31 C 158.53 142.20 159.26 142.90 160.14 142.89 Z M 161.14 142.87 L 162.17 142.86 C 163.05 142.85 163.76 142.13 163.75 141.24 C 163.74 140.36 163.01 139.65 162.13 139.66 L 161.11 139.67 C 160.22 139.68 159.51 140.41 159.53 141.29 C 159.54 142.18 160.26 142.88 161.14 142.87 Z M 162.16 142.86 L 163.19 142.86 C 164.08 142.85 164.79 142.12 164.78 141.24 C 164.77 140.35 164.05 139.64 163.16 139.65 L 162.13 139.66 C 161.25 139.67 160.54 140.39 160.54 141.28 C 160.55 142.16 161.28 142.87 162.16 142.86 Z M 163.19 142.86 L 164.20 142.85 C 165.08 142.84 165.80 142.12 165.79 141.23 C 165.78 140.35 165.06 139.63 164.17 139.64 L 163.17 139.65 C 162.28 139.65 161.57 140.38 161.57 141.26 C 161.58 142.15 162.30 142.86 163.19 142.86 Z M 164.19 142.85 L 165.21 142.85 C 166.10 142.85 166.81 142.12 166.81 141.24 C 166.81 140.35 166.08 139.63 165.20 139.63 L 164.18 139.64 C 163.29 139.64 162.57 140.36 162.58 141.25 C 162.58 142.14 163.30 142.86 164.19 142.85 Z M 165.20 142.85 L 166.22 142.85 C 167.11 142.85 167.83 142.13 167.83 141.24 C 167.83 140.36 167.11 139.63 166.23 139.63 L 165.20 139.63 C 164.32 139.63 163.59 140.35 163.59 141.24 C 163.59 142.13 164.31 142.85 165.20 142.85 Z M 166.21 142.85 L 167.23 142.86 C 168.12 142.87 168.85 142.15 168.85 141.26 C 168.86 140.37 168.14 139.64 167.25 139.64 L 166.23 139.63 C 165.34 139.63 164.62 140.34 164.61 141.23 C 164.61 142.12 165.32 142.85 166.21 142.85 Z M 167.22 142.86 L 168.23 142.88 C 169.12 142.89 169.86 142.18 169.87 141.28 C 169.88 140.39 169.17 139.66 168.28 139.65 L 167.26 139.64 C 166.37 139.62 165.64 140.34 165.63 141.23 C 165.62 142.12 166.33 142.85 167.22 142.86 Z M 168.22 142.88 L 169.22 142.90 C 170.11 142.92 170.85 142.21 170.87 141.32 C 170.89 140.43 170.18 139.69 169.29 139.67 L 168.29 139.65 C 167.40 139.63 166.66 140.34 166.64 141.23 C 166.62 142.12 167.33 142.86 168.22 142.88 Z M 169.20 142.90 L 170.18 142.93 C 171.07 142.96 171.82 142.26 171.85 141.37 C 171.87 140.47 171.17 139.73 170.28 139.70 L 169.30 139.67 C 168.41 139.64 167.66 140.34 167.63 141.23 C 167.61 142.13 168.31 142.87 169.20 142.90 Z M 170.16 142.93 L 171.11 142.97 C 172.01 143.01 172.76 142.32 172.80 141.43 C 172.84 140.53 172.15 139.78 171.25 139.74 L 170.30 139.70 C 169.41 139.66 168.65 140.35 168.61 141.25 C 168.57 142.14 169.27 142.89 170.16 142.93 Z M 171.09 142.98 L 172.16 143.04 C 173.06 143.09 173.82 142.41 173.88 141.51 C 173.93 140.62 173.25 139.85 172.35 139.80 L 171.28 139.74 C 170.38 139.69 169.62 140.37 169.57 141.26 C 169.51 142.16 170.20 142.92 171.09 142.98 Z M 172.13 143.04 L 173.19 143.12 C 174.08 143.19 174.86 142.52 174.93 141.62 C 175.00 140.73 174.33 139.95 173.44 139.88 L 172.38 139.80 C 171.49 139.73 170.71 140.40 170.64 141.29 C 170.57 142.19 171.24 142.97 172.13 143.04 Z M 173.16 143.12 L 174.18 143.22 C 175.07 143.30 175.86 142.65 175.95 141.76 C 176.04 140.86 175.38 140.07 174.49 139.98 L 173.47 139.88 C 172.58 139.80 171.78 140.45 171.70 141.34 C 171.61 142.24 172.26 143.03 173.16 143.12 Z M 174.14 143.21 L 175.13 143.33 C 176.02 143.44 176.83 142.80 176.93 141.91 C 177.04 141.02 176.40 140.21 175.51 140.10 L 174.53 139.99 C 173.63 139.88 172.83 140.51 172.72 141.41 C 172.61 142.30 173.25 143.11 174.14 143.21 Z M 175.09 143.33 L 176.04 143.47 C 176.93 143.59 177.76 142.98 177.89 142.09 C 178.02 141.20 177.40 140.37 176.51 140.25 L 175.55 140.11 C 174.66 139.98 173.84 140.60 173.71 141.49 C 173.58 142.38 174.20 143.20 175.09 143.33 Z M 176.00 143.46 L 176.94 143.62 C 177.82 143.77 178.66 143.17 178.82 142.29 C 178.97 141.40 178.37 140.56 177.48 140.41 L 176.55 140.25 C 175.66 140.10 174.82 140.70 174.67 141.58 C 174.52 142.47 175.12 143.31 176.00 143.46 Z M 176.89 143.61 L 177.81 143.79 C 178.69 143.97 179.55 143.39 179.72 142.51 C 179.89 141.63 179.32 140.77 178.44 140.60 L 177.53 140.42 C 176.64 140.24 175.78 140.82 175.61 141.70 C 175.44 142.58 176.01 143.44 176.89 143.61 Z M 177.76 143.79 L 178.77 144.02 C 179.65 144.22 180.53 143.67 180.73 142.79 C 180.93 141.91 180.38 141.03 179.50 140.83 L 178.48 140.60 C 177.60 140.40 176.73 140.95 176.53 141.83 C 176.33 142.71 176.88 143.59 177.76 143.79 Z M 178.72 144.01 L 179.72 144.27 C 180.59 144.50 181.49 143.97 181.72 143.10 C 181.94 142.22 181.42 141.33 180.54 141.10 L 179.55 140.84 C 178.67 140.61 177.78 141.14 177.55 142.01 C 177.33 142.89 177.85 143.78 178.72 144.01 Z M 179.67 144.26 L 180.64 144.54 C 181.51 144.80 182.42 144.30 182.68 143.43 C 182.93 142.56 182.43 141.65 181.57 141.40 L 180.59 141.11 C 179.73 140.86 178.81 141.36 178.56 142.22 C 178.31 143.09 178.80 144.00 179.67 144.26 Z M 180.59 144.53 L 181.54 144.84 C 182.40 145.12 183.33 144.65 183.61 143.79 C 183.89 142.93 183.42 142.00 182.56 141.72 L 181.61 141.41 C 180.75 141.13 179.83 141.60 179.54 142.46 C 179.26 143.32 179.73 144.25 180.59 144.53 Z M 181.49 144.83 L 182.41 145.16 C 183.26 145.46 184.20 145.02 184.51 144.17 C 184.82 143.31 184.38 142.37 183.52 142.06 L 182.61 141.73 C 181.75 141.42 180.81 141.87 180.50 142.72 C 180.19 143.57 180.64 144.52 181.49 144.83 Z M 182.36 145.14 L 183.24 145.49 C 184.09 145.83 185.05 145.41 185.38 144.57 C 185.72 143.72 185.30 142.76 184.46 142.43 L 183.57 142.08 C 182.73 141.74 181.77 142.16 181.43 143.00 C 181.10 143.85 181.51 144.81 182.36 145.14 Z M 183.19 145.47 L 184.15 145.89 C 184.99 146.26 185.96 145.87 186.33 145.04 C 186.69 144.20 186.31 143.23 185.47 142.86 L 184.51 142.45 C 183.67 142.08 182.70 142.46 182.33 143.30 C 181.97 144.14 182.35 145.11 183.19 145.47 Z M 184.10 145.87 L 185.03 146.32 C 185.85 146.71 186.84 146.37 187.24 145.54 C 187.63 144.72 187.28 143.73 186.46 143.33 L 185.53 142.89 C 184.70 142.49 183.72 142.84 183.32 143.66 C 182.92 144.49 183.27 145.48 184.10 145.87 Z M 184.97 146.29 L 185.86 146.76 C 186.67 147.19 187.67 146.88 188.10 146.07 C 188.53 145.26 188.22 144.26 187.41 143.83 L 186.52 143.36 C 185.71 142.93 184.70 143.24 184.28 144.05 C 183.85 144.86 184.16 145.86 184.97 146.29 Z M 185.80 146.73 L 186.65 147.22 C 187.44 147.68 188.46 147.41 188.92 146.62 C 189.38 145.82 189.11 144.81 188.31 144.35 L 187.47 143.86 C 186.67 143.40 185.66 143.67 185.20 144.46 C 184.74 145.26 185.01 146.27 185.80 146.73 Z M 186.59 147.19 L 187.39 147.70 C 188.17 148.19 189.19 147.96 189.69 147.19 C 190.18 146.41 189.95 145.38 189.17 144.89 L 188.37 144.38 C 187.60 143.89 186.57 144.12 186.07 144.89 C 185.58 145.67 185.81 146.70 186.59 147.19 Z M 187.33 147.66 L 188.15 148.24 C 188.91 148.77 189.95 148.58 190.47 147.83 C 191.00 147.07 190.82 146.03 190.06 145.51 L 189.24 144.93 C 188.48 144.40 187.44 144.59 186.92 145.34 C 186.39 146.09 186.57 147.13 187.33 147.66 Z M 188.08 148.19 L 188.89 148.82 C 189.62 149.39 190.67 149.26 191.23 148.53 C 191.80 147.80 191.67 146.75 190.94 146.19 L 190.13 145.56 C 189.41 144.99 188.36 145.12 187.79 145.85 C 187.22 146.57 187.35 147.62 188.08 148.19 Z M 188.81 148.76 L 189.57 149.42 C 190.26 150.03 191.32 149.96 191.92 149.27 C 192.53 148.57 192.46 147.52 191.77 146.91 L 191.02 146.25 C 190.33 145.64 189.27 145.71 188.66 146.40 C 188.05 147.09 188.12 148.15 188.81 148.76 Z M 189.49 149.35 L 190.18 150.04 C 190.83 150.69 191.89 150.69 192.55 150.04 C 193.20 149.38 193.20 148.32 192.54 147.67 L 191.85 146.98 C 191.20 146.33 190.14 146.33 189.49 146.98 C 188.83 147.64 188.83 148.69 189.49 149.35 Z M 190.10 149.95 L 190.73 150.68 C 191.34 151.38 192.40 151.45 193.09 150.84 C 193.79 150.24 193.86 149.18 193.26 148.48 L 192.62 147.75 C 192.02 147.06 190.96 146.98 190.26 147.59 C 189.56 148.20 189.49 149.26 190.10 149.95 Z M 190.65 150.58 L 191.24 151.37 C 191.80 152.11 192.85 152.26 193.59 151.71 C 194.33 151.15 194.48 150.10 193.92 149.36 L 193.33 148.58 C 192.78 147.84 191.73 147.69 190.99 148.24 C 190.25 148.79 190.10 149.84 190.65 150.58 Z M 191.17 151.27 L 191.71 152.10 C 192.21 152.88 193.24 153.10 194.02 152.60 C 194.80 152.10 195.02 151.06 194.52 150.28 L 193.99 149.46 C 193.49 148.68 192.45 148.46 191.67 148.96 C 190.90 149.46 190.67 150.50 191.17 151.27 Z M 191.65 152.01 L 192.14 152.88 C 192.60 153.69 193.62 153.97 194.42 153.52 C 195.23 153.07 195.51 152.05 195.06 151.24 L 194.57 150.37 C 194.12 149.57 193.10 149.28 192.30 149.73 C 191.49 150.19 191.20 151.21 191.65 152.01 Z M 192.10 152.80 L 192.56 153.72 C 192.97 154.54 193.97 154.88 194.80 154.47 C 195.63 154.06 195.96 153.06 195.55 152.23 L 195.10 151.32 C 194.69 150.49 193.69 150.15 192.86 150.56 C 192.03 150.97 191.69 151.98 192.10 152.80 Z M 192.53 153.66 L 192.94 154.57 C 193.31 155.41 194.30 155.79 195.15 155.41 C 195.99 155.04 196.37 154.05 195.99 153.20 L 195.58 152.29 C 195.20 151.45 194.21 151.07 193.37 151.44 C 192.53 151.82 192.15 152.81 192.53 153.66 Z M 192.91 154.52 L 193.28 155.42 C 193.63 156.28 194.60 156.69 195.46 156.35 C 196.32 156.00 196.73 155.02 196.38 154.17 L 196.02 153.26 C 195.67 152.40 194.69 151.99 193.84 152.34 C 192.98 152.68 192.57 153.66 192.91 154.52 Z M 193.25 155.36 L 193.59 156.30 C 193.90 157.17 194.86 157.62 195.73 157.31 C 196.61 157.00 197.06 156.04 196.75 155.17 L 196.41 154.23 C 196.10 153.36 195.14 152.91 194.27 153.22 C 193.40 153.53 192.94 154.49 193.25 155.36 Z M 193.57 156.23 L 193.86 157.19 C 194.13 158.08 195.07 158.58 195.96 158.30 C 196.84 158.03 197.34 157.10 197.07 156.21 L 196.77 155.24 C 196.50 154.36 195.56 153.86 194.68 154.13 C 193.79 154.40 193.29 155.34 193.57 156.23 Z M 193.84 157.10 L 194.08 158.09 C 194.30 158.99 195.21 159.54 196.11 159.32 C 197.01 159.10 197.56 158.19 197.34 157.29 L 197.09 156.30 C 196.87 155.40 195.96 154.85 195.06 155.07 C 194.16 155.29 193.61 156.20 193.84 157.10 Z M 194.06 157.99 L 194.24 158.96 C 194.41 159.87 195.28 160.48 196.19 160.31 C 197.11 160.14 197.71 159.26 197.54 158.35 L 197.36 157.38 C 197.19 156.47 196.32 155.87 195.40 156.04 C 194.49 156.21 193.89 157.08 194.06 157.99 Z M 194.22 158.87 L 194.34 159.82 C 194.46 160.74 195.30 161.39 196.22 161.27 C 197.14 161.16 197.79 160.32 197.68 159.40 L 197.55 158.44 C 197.44 157.53 196.60 156.87 195.68 156.99 C 194.76 157.11 194.11 157.95 194.22 158.87 Z M 194.34 159.75 L 194.42 160.72 C 194.49 161.64 195.30 162.33 196.23 162.25 C 197.15 162.18 197.84 161.37 197.76 160.44 L 197.68 159.47 C 197.61 158.55 196.80 157.86 195.87 157.94 C 194.95 158.01 194.26 158.82 194.34 159.75 Z M 194.42 160.66 L 194.46 161.66 C 194.51 162.59 195.30 163.30 196.22 163.26 C 197.15 163.21 197.86 162.43 197.81 161.50 L 197.77 160.50 C 197.72 159.58 196.93 158.86 196.01 158.91 C 195.08 158.95 194.37 159.74 194.42 160.66 Z M 194.46 161.63 L 194.49 162.66 C 194.51 163.59 195.28 164.32 196.21 164.29 C 197.13 164.27 197.87 163.50 197.84 162.57 L 197.81 161.54 C 197.79 160.61 197.02 159.88 196.10 159.91 C 195.17 159.93 194.44 160.70 194.46 161.63 Z M 194.49 162.64 L 194.50 163.68 C 194.52 164.60 195.28 165.34 196.20 165.33 C 197.13 165.32 197.87 164.56 197.85 163.63 L 197.84 162.59 C 197.83 161.67 197.07 160.93 196.14 160.94 C 195.22 160.95 194.48 161.71 194.49 162.64 Z M 194.51 163.67 L 194.51 164.61 C 194.52 165.53 195.27 166.28 196.20 166.27 C 197.12 166.26 197.87 165.51 197.86 164.58 L 197.85 163.64 C 197.85 162.72 197.09 161.97 196.17 161.98 C 195.24 161.99 194.50 162.74 194.51 163.67 Z M 194.51 164.59 L 194.51 165.56 C 194.51 166.49 195.26 167.24 196.18 167.24 C 197.11 167.24 197.86 166.49 197.86 165.57 L 197.86 164.60 C 197.86 163.68 197.11 162.93 196.19 162.92 C 195.27 162.92 194.52 163.67 194.51 164.59 Z M 194.51 165.54 L 194.50 166.53 C 194.49 167.46 195.22 168.22 196.15 168.23 C 197.07 168.24 197.83 167.51 197.84 166.58 L 197.86 165.59 C 197.87 164.67 197.13 163.91 196.21 163.89 C 195.29 163.88 194.53 164.62 194.51 165.54 Z M 194.50 166.51 L 194.47 167.52 C 194.44 168.44 195.16 169.21 196.09 169.24 C 197.01 169.27 197.78 168.55 197.81 167.63 L 197.84 166.61 C 197.87 165.69 197.14 164.92 196.22 164.89 C 195.30 164.86 194.53 165.59 194.50 166.51 Z M 194.47 167.49 L 194.42 168.52 C 194.37 169.44 195.08 170.23 196.00 170.28 C 196.92 170.32 197.70 169.62 197.75 168.70 L 197.80 167.66 C 197.85 166.74 197.14 165.96 196.22 165.91 C 195.30 165.86 194.52 166.57 194.47 167.49 Z M 194.42 168.48 L 194.34 169.54 C 194.27 170.45 194.96 171.25 195.88 171.32 C 196.80 171.39 197.60 170.70 197.67 169.79 L 197.75 168.74 C 197.82 167.82 197.13 167.02 196.21 166.95 C 195.29 166.88 194.49 167.57 194.42 168.48 Z M 194.35 169.49 L 194.25 170.46 C 194.16 171.37 194.83 172.19 195.74 172.28 C 196.65 172.37 197.47 171.71 197.56 170.79 L 197.66 169.83 C 197.75 168.91 197.09 168.10 196.17 168.01 C 195.26 167.91 194.44 168.58 194.35 169.49 Z M 194.26 170.42 L 194.14 171.39 C 194.02 172.30 194.67 173.13 195.58 173.24 C 196.49 173.36 197.32 172.71 197.44 171.80 L 197.56 170.83 C 197.67 169.92 197.02 169.09 196.11 168.98 C 195.20 168.86 194.37 169.51 194.26 170.42 Z M 194.14 171.35 L 194.00 172.33 C 193.87 173.24 194.50 174.08 195.40 174.22 C 196.31 174.35 197.16 173.72 197.29 172.81 L 197.43 171.83 C 197.56 170.93 196.93 170.08 196.03 169.95 C 195.12 169.82 194.28 170.45 194.14 171.35 Z M 194.01 172.30 L 193.84 173.29 C 193.69 174.19 194.30 175.05 195.21 175.20 C 196.11 175.35 196.97 174.74 197.12 173.83 L 197.28 172.85 C 197.43 171.94 196.82 171.09 195.92 170.94 C 195.01 170.79 194.16 171.40 194.01 172.30 Z M 193.85 173.26 L 193.67 174.25 C 193.50 175.15 194.09 176.02 194.99 176.19 C 195.89 176.35 196.76 175.76 196.93 174.86 L 197.11 173.86 C 197.28 172.96 196.68 172.10 195.78 171.93 C 194.88 171.76 194.02 172.36 193.85 173.26 Z M 193.67 174.23 L 193.47 175.23 C 193.29 176.13 193.87 177.00 194.76 177.18 C 195.66 177.36 196.53 176.78 196.72 175.89 L 196.92 174.88 C 197.10 173.99 196.52 173.11 195.62 172.93 C 194.73 172.75 193.85 173.33 193.67 174.23 Z M 193.48 175.20 L 193.26 176.21 C 193.06 177.11 193.63 177.99 194.52 178.18 C 195.41 178.38 196.29 177.81 196.49 176.92 L 196.71 175.91 C 196.90 175.02 196.34 174.14 195.45 173.94 C 194.55 173.75 193.67 174.31 193.48 175.20 Z M 193.26 176.19 L 193.04 177.14 C 192.83 178.03 193.39 178.92 194.27 179.13 C 195.16 179.34 196.05 178.78 196.26 177.90 L 196.48 176.94 C 196.69 176.05 196.14 175.16 195.25 174.96 C 194.36 174.75 193.47 175.30 193.26 176.19 Z M 193.05 177.12 L 192.81 178.08 C 192.59 178.97 193.13 179.86 194.02 180.08 C 194.90 180.30 195.80 179.76 196.02 178.87 L 196.25 177.92 C 196.47 177.03 195.93 176.14 195.05 175.92 C 194.16 175.70 193.27 176.24 193.05 177.12 Z M 192.82 178.06 L 192.56 179.02 C 192.33 179.90 192.86 180.80 193.74 181.03 C 194.63 181.27 195.53 180.74 195.76 179.86 L 196.01 178.90 C 196.24 178.01 195.71 177.11 194.83 176.88 C 193.95 176.65 193.05 177.18 192.82 178.06 Z M 192.57 179.00 L 192.30 179.96 C 192.06 180.84 192.58 181.75 193.46 181.99 C 194.33 182.23 195.24 181.72 195.49 180.84 L 195.75 179.88 C 195.99 179.00 195.48 178.09 194.60 177.85 C 193.72 177.60 192.81 178.12 192.57 179.00 Z M 192.31 179.94 L 192.03 180.91 C 191.78 181.78 192.28 182.70 193.15 182.95 C 194.03 183.20 194.94 182.70 195.20 181.83 L 195.48 180.86 C 195.73 179.99 195.23 179.07 194.36 178.82 C 193.48 178.56 192.57 179.07 192.31 179.94 Z M 192.04 180.89 L 191.74 181.85 C 191.48 182.72 191.97 183.65 192.84 183.91 C 193.71 184.18 194.63 183.69 194.90 182.82 L 195.19 181.85 C 195.46 180.98 194.97 180.06 194.10 179.79 C 193.23 179.53 192.30 180.02 192.04 180.89 Z M 191.75 181.83 L 191.44 182.80 C 191.16 183.67 191.64 184.59 192.51 184.87 C 193.37 185.15 194.30 184.67 194.58 183.81 L 194.89 182.84 C 195.17 181.97 194.69 181.04 193.82 180.77 C 192.95 180.49 192.03 180.97 191.75 181.83 Z M 191.45 182.78 L 191.13 183.72 C 190.84 184.59 191.31 185.52 192.17 185.81 C 193.03 186.09 193.97 185.63 194.26 184.77 L 194.57 183.83 C 194.86 182.96 194.39 182.03 193.53 181.74 C 192.67 181.45 191.74 181.92 191.45 182.78 Z M 191.14 183.70 L 190.82 184.63 C 190.52 185.49 190.97 186.43 191.83 186.72 C 192.69 187.02 193.62 186.57 193.92 185.71 L 194.25 184.79 C 194.55 183.93 194.09 182.99 193.24 182.69 C 192.38 182.39 191.44 182.85 191.14 183.70 Z M 190.83 184.61 L 190.49 185.54 C 190.18 186.39 190.62 187.33 191.48 187.64 C 192.33 187.95 193.27 187.51 193.58 186.66 L 193.92 185.73 C 194.22 184.88 193.78 183.94 192.93 183.63 C 192.08 183.32 191.14 183.76 190.83 184.61 Z M 190.50 185.52 L 190.15 186.45 C 189.83 187.30 190.26 188.25 191.11 188.56 C 191.96 188.88 192.91 188.45 193.22 187.60 L 193.57 186.67 C 193.89 185.83 193.46 184.88 192.61 184.56 C 191.76 184.24 190.82 184.67 190.50 185.52 Z M 190.16 186.44 L 189.80 187.37 C 189.47 188.21 189.89 189.16 190.74 189.49 C 191.58 189.82 192.53 189.40 192.86 188.55 L 193.22 187.62 C 193.54 186.77 193.12 185.83 192.28 185.50 C 191.43 185.17 190.49 185.59 190.16 186.44 Z M 189.81 187.36 L 189.43 188.29 C 189.10 189.13 189.51 190.08 190.35 190.42 C 191.19 190.75 192.14 190.34 192.48 189.50 L 192.85 188.57 C 193.18 187.73 192.77 186.77 191.93 186.44 C 191.09 186.11 190.14 186.52 189.81 187.36 Z M 189.44 188.28 L 189.06 189.22 C 188.72 190.06 189.12 191.01 189.95 191.35 C 190.79 191.69 191.74 191.29 192.08 190.46 L 192.47 189.51 C 192.81 188.68 192.41 187.72 191.57 187.38 C 190.74 187.04 189.78 187.44 189.44 188.28 Z M 189.06 189.21 L 188.67 190.16 C 188.32 190.99 188.71 191.95 189.55 192.29 C 190.38 192.64 191.33 192.25 191.68 191.41 L 192.08 190.47 C 192.43 189.64 192.03 188.68 191.20 188.33 C 190.37 187.98 189.41 188.38 189.06 189.21 Z M 188.67 190.15 L 188.28 191.07 C 187.93 191.90 188.31 192.86 189.14 193.21 C 189.97 193.56 190.93 193.18 191.28 192.35 L 191.68 191.43 C 192.03 190.60 191.64 189.64 190.81 189.28 C 189.99 188.93 189.03 189.32 188.67 190.15 Z M 188.29 191.06 L 187.89 191.98 C 187.53 192.80 187.90 193.76 188.73 194.12 C 189.55 194.48 190.51 194.11 190.87 193.28 L 191.27 192.36 C 191.63 191.53 191.26 190.57 190.43 190.21 C 189.61 189.86 188.65 190.23 188.29 191.06 Z M 187.89 191.97 L 187.48 192.89 C 187.12 193.71 187.49 194.67 188.31 195.04 C 189.13 195.40 190.09 195.03 190.46 194.21 L 190.87 193.29 C 191.23 192.47 190.86 191.51 190.04 191.14 C 189.22 190.78 188.26 191.15 187.89 191.97 Z M 187.49 192.88 L 187.07 193.79 C 186.70 194.61 187.06 195.57 187.87 195.95 C 188.69 196.32 189.65 195.96 190.03 195.15 L 190.45 194.23 C 190.82 193.41 190.46 192.45 189.64 192.07 C 188.83 191.70 187.86 192.06 187.49 192.88 Z M 187.08 193.78 L 186.65 194.69 C 186.27 195.50 186.62 196.47 187.43 196.85 C 188.24 197.23 189.21 196.88 189.59 196.07 L 190.02 195.16 C 190.40 194.35 190.05 193.38 189.24 193.00 C 188.43 192.62 187.46 192.97 187.08 193.78 Z M 186.66 194.68 L 186.23 195.58 C 185.84 196.38 186.18 197.35 186.98 197.74 C 187.79 198.13 188.76 197.79 189.14 196.99 L 189.58 196.09 C 189.97 195.28 189.63 194.31 188.83 193.92 C 188.02 193.53 187.05 193.87 186.66 194.68 Z M 186.24 195.56 L 185.79 196.45 C 185.40 197.25 185.72 198.22 186.52 198.62 C 187.32 199.02 188.29 198.69 188.69 197.89 L 189.13 197.01 C 189.53 196.21 189.21 195.23 188.41 194.84 C 187.61 194.44 186.64 194.76 186.24 195.56 Z M 185.81 196.43 L 185.36 197.30 C 184.95 198.09 185.26 199.07 186.05 199.48 C 186.85 199.89 187.82 199.58 188.23 198.78 L 188.68 197.91 C 189.09 197.12 188.78 196.14 187.98 195.74 C 187.19 195.33 186.22 195.64 185.81 196.43 Z M 185.37 197.28 L 184.89 198.18 C 184.47 198.96 184.76 199.94 185.55 200.36 C 186.34 200.78 187.31 200.49 187.73 199.70 L 188.22 198.80 C 188.64 198.02 188.34 197.04 187.56 196.62 C 186.77 196.20 185.79 196.50 185.37 197.28 Z M 184.90 198.16 L 184.41 199.04 C 183.98 199.82 184.26 200.80 185.03 201.24 C 185.81 201.67 186.79 201.39 187.23 200.61 L 187.72 199.72 C 188.15 198.95 187.87 197.97 187.10 197.53 C 186.32 197.10 185.34 197.38 184.90 198.16 Z M 184.42 199.02 L 183.92 199.89 C 183.48 200.66 183.74 201.65 184.51 202.09 C 185.28 202.54 186.27 202.27 186.71 201.50 L 187.21 200.63 C 187.66 199.86 187.39 198.88 186.62 198.43 C 185.85 197.99 184.87 198.25 184.42 199.02 Z M 183.94 199.87 L 183.43 200.73 C 182.97 201.49 183.22 202.48 183.98 202.93 C 184.74 203.39 185.73 203.14 186.19 202.38 L 186.70 201.52 C 187.15 200.76 186.90 199.77 186.14 199.32 C 185.38 198.86 184.39 199.11 183.94 199.87 Z M 183.44 200.71 L 182.92 201.55 C 182.45 202.31 182.69 203.29 183.44 203.76 C 184.20 204.23 185.19 203.99 185.65 203.24 L 186.17 202.39 C 186.64 201.64 186.40 200.65 185.65 200.18 C 184.89 199.72 183.91 199.95 183.44 200.71 Z M 182.93 201.53 L 182.40 202.37 C 181.93 203.12 182.15 204.11 182.90 204.58 C 183.65 205.06 184.64 204.84 185.11 204.09 L 185.64 203.25 C 186.12 202.51 185.89 201.51 185.15 201.04 C 184.40 200.56 183.41 200.79 182.93 201.53 Z M 182.41 202.35 L 181.87 203.18 C 181.39 203.92 181.60 204.92 182.34 205.40 C 183.08 205.88 184.08 205.67 184.56 204.93 L 185.10 204.10 C 185.58 203.36 185.37 202.37 184.63 201.89 C 183.89 201.40 182.90 201.61 182.41 202.35 Z M 181.88 203.17 L 181.34 203.99 C 180.85 204.73 181.04 205.72 181.78 206.21 C 182.52 206.70 183.51 206.50 184.00 205.77 L 184.55 204.95 C 185.04 204.21 184.84 203.22 184.11 202.73 C 183.37 202.23 182.38 202.43 181.88 203.17 Z M 181.35 203.98 L 180.79 204.79 C 180.30 205.52 180.48 206.52 181.21 207.02 C 181.94 207.51 182.94 207.32 183.44 206.59 L 183.99 205.78 C 184.49 205.05 184.30 204.05 183.57 203.56 C 182.84 203.06 181.84 203.25 181.35 203.98 Z M 180.80 204.78 L 180.24 205.59 C 179.73 206.32 179.91 207.32 180.64 207.82 C 181.37 208.32 182.36 208.14 182.86 207.42 L 183.43 206.60 C 183.93 205.88 183.75 204.88 183.03 204.38 C 182.30 203.88 181.30 204.06 180.80 204.78 Z M 180.25 205.58 L 179.67 206.40 C 179.16 207.12 179.34 208.11 180.06 208.62 C 180.78 209.13 181.77 208.96 182.28 208.24 L 182.86 207.43 C 183.36 206.71 183.19 205.71 182.47 205.20 C 181.75 204.69 180.75 204.86 180.25 205.58 Z M 179.68 206.39 L 179.10 207.20 C 178.58 207.92 178.75 208.91 179.46 209.43 C 180.18 209.94 181.18 209.78 181.69 209.06 L 182.27 208.25 C 182.79 207.53 182.62 206.54 181.91 206.02 C 181.19 205.51 180.19 205.67 179.68 206.39 Z M 179.10 207.19 L 178.51 208.01 C 177.99 208.72 178.15 209.72 178.86 210.23 C 179.58 210.75 180.57 210.60 181.09 209.88 L 181.68 209.07 C 182.20 208.36 182.04 207.36 181.33 206.84 C 180.62 206.32 179.62 206.48 179.10 207.19 Z M 178.52 208.00 L 177.92 208.81 C 177.40 209.52 177.55 210.52 178.26 211.04 C 178.96 211.56 179.96 211.41 180.48 210.70 L 181.08 209.89 C 181.61 209.18 181.46 208.19 180.75 207.66 C 180.04 207.14 179.04 207.29 178.52 208.00 Z M 177.93 208.80 L 177.32 209.62 C 176.79 210.32 176.94 211.32 177.64 211.85 C 178.35 212.37 179.34 212.23 179.87 211.52 L 180.48 210.71 C 181.00 210.01 180.86 209.01 180.16 208.48 C 179.45 207.96 178.45 208.10 177.93 208.80 Z M 177.32 209.61 L 176.72 210.41 C 176.19 211.11 176.33 212.11 177.03 212.64 C 177.73 213.17 178.73 213.03 179.26 212.33 L 179.86 211.53 C 180.39 210.83 180.25 209.83 179.55 209.30 C 178.85 208.77 177.85 208.91 177.32 209.61 Z M 176.73 210.40 L 176.12 211.19 C 175.59 211.89 175.72 212.89 176.42 213.42 C 177.12 213.95 178.12 213.82 178.65 213.12 L 179.25 212.33 C 179.79 211.64 179.65 210.64 178.96 210.11 C 178.26 209.57 177.26 209.71 176.73 210.40 Z M 176.13 211.19 L 175.52 211.97 C 174.98 212.67 175.11 213.67 175.81 214.20 C 176.50 214.74 177.50 214.61 178.03 213.92 L 178.64 213.13 C 179.18 212.44 179.05 211.44 178.36 210.90 C 177.67 210.36 176.67 210.49 176.13 211.19 Z M 175.53 211.97 L 174.91 212.75 C 174.37 213.44 174.49 214.44 175.18 214.98 C 175.87 215.52 176.87 215.40 177.41 214.71 L 178.03 213.92 C 178.57 213.23 178.45 212.24 177.76 211.70 C 177.07 211.15 176.07 211.28 175.53 211.97 Z M 174.92 212.75 L 174.30 213.53 C 173.75 214.22 173.87 215.22 174.55 215.76 C 175.24 216.30 176.24 216.19 176.78 215.50 L 177.41 214.72 C 177.95 214.03 177.83 213.03 177.15 212.49 C 176.46 211.94 175.46 212.06 174.92 212.75 Z M 174.30 213.52 L 173.68 214.31 C 173.13 214.99 173.24 215.99 173.92 216.53 C 174.60 217.08 175.60 216.97 176.15 216.29 L 176.78 215.51 C 177.32 214.83 177.22 213.83 176.53 213.28 C 175.85 212.73 174.85 212.84 174.30 213.52 Z M 173.68 214.30 L 173.05 215.08 C 172.50 215.76 172.60 216.75 173.28 217.31 C 173.95 217.86 174.95 217.76 175.50 217.08 L 176.14 216.30 C 176.69 215.62 176.59 214.62 175.91 214.07 C 175.23 213.52 174.24 213.62 173.68 214.30 Z M 173.06 215.07 L 172.42 215.84 C 171.86 216.52 171.95 217.52 172.63 218.07 C 173.30 218.63 174.30 218.54 174.86 217.86 L 175.50 217.09 C 176.05 216.41 175.96 215.42 175.29 214.86 C 174.61 214.30 173.61 214.40 173.06 215.07 Z M 172.42 215.84 L 171.77 216.61 C 171.21 217.28 171.30 218.28 171.97 218.84 C 172.64 219.40 173.64 219.31 174.20 218.64 L 174.85 217.87 C 175.41 217.20 175.32 216.20 174.65 215.64 C 173.98 215.08 172.99 215.17 172.42 215.84 Z M 171.78 216.60 L 171.12 217.37 C 170.56 218.04 170.64 219.03 171.30 219.60 C 171.97 220.17 172.97 220.09 173.53 219.42 L 174.19 218.65 C 174.76 217.99 174.68 216.99 174.01 216.42 C 173.35 215.86 172.35 215.94 171.78 216.60 Z M 171.13 217.36 L 170.47 218.12 C 169.90 218.78 169.97 219.78 170.63 220.36 C 171.29 220.93 172.29 220.86 172.86 220.20 L 173.53 219.44 C 174.10 218.77 174.03 217.77 173.37 217.20 C 172.71 216.63 171.70 216.70 171.13 217.36 Z M 170.48 218.11 L 169.81 218.87 C 169.23 219.52 169.30 220.53 169.95 221.11 C 170.61 221.68 171.61 221.62 172.19 220.96 L 172.86 220.21 C 173.44 219.55 173.37 218.55 172.72 217.97 C 172.06 217.39 171.06 217.46 170.48 218.11 Z M 169.82 218.86 L 169.15 219.60 C 168.57 220.25 168.62 221.26 169.27 221.84 C 169.92 222.43 170.93 222.37 171.51 221.72 L 172.18 220.98 C 172.77 220.32 172.71 219.32 172.06 218.74 C 171.41 218.15 170.41 218.20 169.82 218.86 Z M 169.16 219.59 L 168.49 220.33 C 167.90 220.97 167.94 221.98 168.59 222.57 C 169.24 223.16 170.24 223.12 170.83 222.47 L 171.50 221.73 C 172.10 221.09 172.05 220.08 171.40 219.49 C 170.76 218.90 169.75 218.94 169.16 219.59 Z M 168.50 220.31 L 167.82 221.04 C 167.23 221.68 167.26 222.68 167.90 223.28 C 168.55 223.88 169.55 223.85 170.15 223.20 L 170.82 222.48 C 171.42 221.84 171.38 220.83 170.74 220.23 C 170.10 219.64 169.10 219.67 168.50 220.31 Z M 167.83 221.03 L 167.16 221.73 C 166.55 222.37 166.58 223.38 167.22 223.98 C 167.85 224.59 168.86 224.56 169.46 223.93 L 170.14 223.22 C 170.74 222.58 170.72 221.57 170.08 220.97 C 169.45 220.36 168.44 220.39 167.83 221.03 Z M 167.17 221.72 L 166.46 222.45 C 165.85 223.08 165.87 224.09 166.50 224.70 C 167.13 225.31 168.13 225.30 168.75 224.67 L 169.45 223.94 C 170.06 223.31 170.05 222.30 169.42 221.69 C 168.79 221.08 167.78 221.09 167.17 221.72 Z M 166.48 222.44 L 165.76 223.16 C 165.15 223.78 165.15 224.79 165.77 225.40 C 166.40 226.02 167.40 226.02 168.02 225.39 L 168.73 224.68 C 169.35 224.05 169.35 223.05 168.72 222.43 C 168.10 221.81 167.09 221.81 166.48 222.44 Z M 165.77 223.15 L 165.06 223.85 C 164.44 224.47 164.43 225.48 165.05 226.10 C 165.67 226.72 166.68 226.73 167.30 226.11 L 168.01 225.40 C 168.64 224.79 168.64 223.78 168.02 223.16 C 167.40 222.53 166.40 222.53 165.77 223.15 Z M 165.07 223.84 L 164.36 224.54 C 163.73 225.15 163.72 226.16 164.33 226.79 C 164.94 227.42 165.95 227.43 166.58 226.81 L 167.29 226.12 C 167.92 225.50 167.93 224.50 167.32 223.87 C 166.70 223.24 165.70 223.23 165.07 223.84 Z M 164.36 224.53 L 163.65 225.22 C 163.02 225.83 163.00 226.84 163.61 227.47 C 164.22 228.10 165.23 228.12 165.86 227.51 L 166.57 226.82 C 167.20 226.21 167.22 225.21 166.61 224.57 C 166.00 223.94 165.00 223.93 164.36 224.53 Z M 163.65 225.22 L 162.94 225.91 C 162.31 226.51 162.28 227.52 162.89 228.15 C 163.50 228.79 164.50 228.81 165.14 228.20 L 165.85 227.52 C 166.49 226.91 166.51 225.90 165.90 225.27 C 165.29 224.64 164.29 224.61 163.65 225.22 Z M 162.94 225.90 L 162.22 226.59 C 161.59 227.19 161.56 228.20 162.17 228.83 C 162.78 229.47 163.78 229.49 164.42 228.89 L 165.13 228.20 C 165.77 227.60 165.79 226.59 165.19 225.96 C 164.58 225.32 163.58 225.30 162.94 225.90 Z M 162.23 226.59 L 161.49 227.29 C 160.85 227.89 160.83 228.90 161.43 229.53 C 162.04 230.17 163.04 230.19 163.68 229.59 L 164.41 228.89 C 165.05 228.28 165.08 227.28 164.47 226.64 C 163.87 226.01 162.86 225.98 162.23 226.59 Z M 161.49 227.29 L 160.73 228.01 C 160.09 228.62 160.06 229.62 160.67 230.26 C 161.27 230.89 162.28 230.92 162.91 230.32 L 163.68 229.59 C 164.31 228.99 164.34 227.98 163.74 227.34 C 163.13 226.71 162.12 226.68 161.49 227.29 Z M 160.73 228.01 L 159.97 228.73 C 159.33 229.33 159.30 230.34 159.91 230.98 C 160.51 231.61 161.52 231.64 162.15 231.04 L 162.91 230.32 C 163.55 229.71 163.58 228.71 162.97 228.07 C 162.37 227.43 161.36 227.41 160.73 228.01 Z M 159.97 228.72 L 159.22 229.43 C 158.58 230.03 158.55 231.04 159.15 231.68 C 159.75 232.32 160.76 232.35 161.40 231.75 L 162.15 231.04 C 162.79 230.44 162.82 229.43 162.22 228.79 C 161.62 228.15 160.61 228.12 159.97 228.72 Z M 159.22 229.42 L 158.49 230.11 C 157.85 230.71 157.81 231.72 158.41 232.36 C 159.01 233.00 160.02 233.04 160.66 232.44 L 161.40 231.75 C 162.04 231.15 162.07 230.14 161.47 229.50 C 160.88 228.86 159.87 228.82 159.22 229.42 Z M 158.50 230.10 L 157.78 230.76 C 157.13 231.36 157.09 232.37 157.69 233.02 C 158.28 233.66 159.29 233.70 159.94 233.11 L 160.66 232.45 C 161.30 231.85 161.34 230.84 160.75 230.19 C 160.15 229.55 159.14 229.51 158.50 230.10 Z M 157.79 230.76 L 157.10 231.38 C 156.44 231.98 156.39 232.98 156.99 233.64 C 157.58 234.29 158.59 234.34 159.24 233.74 L 159.93 233.12 C 160.58 232.52 160.63 231.52 160.04 230.86 C 159.45 230.21 158.44 230.16 157.79 230.76 Z M 157.11 231.37 L 156.36 232.03 C 155.70 232.62 155.64 233.62 156.23 234.28 C 156.81 234.94 157.82 235.00 158.48 234.42 L 159.22 233.76 C 159.88 233.17 159.94 232.16 159.36 231.51 C 158.77 230.85 157.77 230.79 157.11 231.37 Z M 156.38 232.02 L 155.54 232.74 C 154.87 233.31 154.80 234.32 155.37 234.99 C 155.95 235.66 156.95 235.73 157.62 235.16 L 158.46 234.43 C 159.13 233.86 159.20 232.85 158.63 232.18 C 158.06 231.52 157.05 231.44 156.38 232.02 Z M 155.56 232.72 L 154.77 233.39 C 154.09 233.95 154.00 234.95 154.56 235.63 C 155.13 236.31 156.13 236.40 156.81 235.83 L 157.60 235.17 C 158.28 234.61 158.37 233.60 157.81 232.93 C 157.24 232.25 156.24 232.16 155.56 232.72 Z M 154.79 233.37 L 154.03 233.98 C 153.35 234.53 153.24 235.54 153.79 236.22 C 154.35 236.90 155.35 237.01 156.03 236.46 L 156.79 235.85 C 157.47 235.30 157.58 234.29 157.03 233.61 C 156.47 232.92 155.47 232.82 154.79 233.37 Z M 154.05 233.97 L 153.32 234.54 C 152.63 235.08 152.51 236.08 153.06 236.77 C 153.60 237.46 154.60 237.58 155.29 237.04 L 156.02 236.47 C 156.71 235.93 156.83 234.93 156.28 234.24 C 155.74 233.55 154.74 233.43 154.05 233.97 Z M 153.34 234.53 L 152.61 235.09 C 151.92 235.62 151.79 236.62 152.32 237.32 C 152.86 238.01 153.86 238.14 154.55 237.61 L 155.28 237.05 C 155.97 236.52 156.10 235.52 155.57 234.82 C 155.03 234.12 154.03 233.99 153.34 234.53 Z M 152.62 235.08 L 151.78 235.72 C 151.07 236.25 150.93 237.24 151.46 237.95 C 151.99 238.65 152.99 238.79 153.69 238.26 L 154.54 237.62 C 155.24 237.09 155.38 236.09 154.85 235.39 C 154.32 234.69 153.33 234.55 152.62 235.08 Z M 151.79 235.71 L 150.96 236.32 C 150.26 236.84 150.11 237.84 150.63 238.54 C 151.15 239.25 152.15 239.40 152.86 238.88 L 153.68 238.27 C 154.39 237.74 154.54 236.75 154.01 236.04 C 153.49 235.33 152.49 235.19 151.79 235.71 Z M 150.98 236.31 L 150.18 236.88 C 149.47 237.40 149.31 238.40 149.83 239.11 C 150.35 239.82 151.34 239.98 152.05 239.46 L 152.85 238.88 C 153.56 238.37 153.72 237.37 153.20 236.66 C 152.68 235.95 151.69 235.79 150.98 236.31 Z M 150.20 236.87 L 149.44 237.41 C 148.72 237.92 148.55 238.92 149.06 239.63 C 149.57 240.35 150.57 240.52 151.28 240.01 L 152.04 239.47 C 152.76 238.96 152.93 237.97 152.42 237.25 C 151.91 236.53 150.91 236.36 150.20 236.87 Z M 149.45 237.40 L 148.64 237.96 C 147.92 238.46 147.74 239.45 148.24 240.18 C 148.74 240.90 149.73 241.08 150.45 240.58 L 151.26 240.02 C 151.99 239.52 152.17 238.53 151.67 237.81 C 151.17 237.08 150.18 236.90 149.45 237.40 Z M 148.69 237.94 L 147.87 238.46 C 147.13 238.94 146.92 239.92 147.40 240.66 C 147.87 241.40 148.86 241.61 149.59 241.13 L 150.41 240.61 C 151.15 240.13 151.36 239.15 150.88 238.41 C 150.41 237.67 149.42 237.46 148.69 237.94 Z M 147.94 238.42 L 147.08 238.91 C 146.32 239.35 146.06 240.32 146.50 241.08 C 146.93 241.84 147.90 242.10 148.66 241.67 L 149.52 241.17 C 150.28 240.74 150.54 239.77 150.11 239.01 C 149.67 238.25 148.70 237.99 147.94 238.42 Z M 147.17 238.87 L 146.25 239.32 C 145.47 239.71 145.15 240.66 145.53 241.44 C 145.92 242.23 146.87 242.55 147.65 242.16 L 148.57 241.71 C 149.36 241.32 149.68 240.38 149.29 239.59 C 148.91 238.81 147.96 238.48 147.17 238.87 Z M 146.34 239.29 L 145.48 239.65 C 144.67 239.98 144.29 240.91 144.63 241.72 C 144.97 242.52 145.89 242.90 146.70 242.57 L 147.56 242.20 C 148.37 241.87 148.75 240.94 148.41 240.13 C 148.07 239.33 147.15 238.95 146.34 239.29 Z M 145.58 239.61 L 144.64 239.93 C 143.81 240.21 143.37 241.11 143.66 241.94 C 143.94 242.76 144.84 243.20 145.66 242.92 L 146.60 242.60 C 147.43 242.32 147.87 241.42 147.58 240.59 C 147.30 239.77 146.40 239.33 145.58 239.61 Z M 144.76 239.89 L 143.77 240.15 C 142.92 240.36 142.41 241.22 142.63 242.07 C 142.85 242.92 143.71 243.43 144.56 243.21 L 145.55 242.96 C 146.39 242.74 146.90 241.88 146.69 241.03 C 146.47 240.19 145.61 239.68 144.76 239.89 Z M 143.92 240.12 L 142.89 240.28 C 142.02 240.42 141.43 241.23 141.57 242.09 C 141.71 242.95 142.52 243.54 143.38 243.40 L 144.41 243.24 C 145.27 243.10 145.86 242.30 145.72 241.43 C 145.59 240.57 144.78 239.98 143.92 240.12 Z M 143.06 240.26 L 142.00 240.31 C 141.13 240.35 140.46 241.09 140.50 241.96 C 140.54 242.83 141.28 243.51 142.15 243.47 L 143.20 243.42 C 144.07 243.38 144.75 242.64 144.71 241.77 C 144.67 240.90 143.93 240.22 143.06 240.26 Z M 142.20 240.32 L 141.15 240.23 C 140.28 240.17 139.52 240.81 139.46 241.68 C 139.39 242.55 140.04 243.31 140.90 243.38 L 141.95 243.46 C 142.82 243.53 143.58 242.88 143.65 242.01 C 143.72 241.14 143.07 240.39 142.20 240.32 Z M 141.37 240.27 L 140.37 240.05 C 139.52 239.86 138.68 240.40 138.50 241.25 C 138.31 242.10 138.84 242.93 139.69 243.12 L 140.69 243.34 C 141.54 243.53 142.38 242.99 142.56 242.15 C 142.75 241.30 142.21 240.46 141.37 240.27 Z M 140.62 240.13 L 139.72 239.77 C 138.92 239.44 138.01 239.83 137.68 240.63 C 137.36 241.44 137.74 242.35 138.54 242.68 L 139.44 243.04 C 140.24 243.36 141.16 242.98 141.48 242.18 C 141.81 241.37 141.42 240.46 140.62 240.13 Z M 140.02 239.93 L 139.26 239.42 C 138.55 238.93 137.58 239.11 137.09 239.82 C 136.60 240.54 136.78 241.51 137.50 242.00 L 138.25 242.51 C 138.96 243.00 139.94 242.82 140.42 242.10 C 140.91 241.39 140.73 240.42 140.02 239.93 Z M 139.57 239.69 L 138.95 238.98 C 138.39 238.32 137.41 238.24 136.75 238.80 C 136.10 239.36 136.02 240.35 136.58 241.00 L 137.19 241.72 C 137.75 242.38 138.74 242.45 139.39 241.89 C 140.05 241.33 140.13 240.35 139.57 239.69 Z M 139.15 239.27 L 138.70 238.41 C 138.31 237.65 137.36 237.35 136.60 237.75 C 135.83 238.15 135.54 239.09 135.94 239.85 L 136.38 240.71 C 136.78 241.48 137.72 241.77 138.49 241.37 C 139.25 240.98 139.55 240.03 139.15 239.27 Z M 138.80 238.62 L 138.46 237.67 C 138.18 236.85 137.29 236.42 136.48 236.70 C 135.66 236.99 135.23 237.88 135.51 238.69 L 135.85 239.64 C 136.13 240.46 137.02 240.89 137.83 240.61 C 138.65 240.32 139.08 239.44 138.80 238.62 Z M 138.50 237.78 L 138.23 236.77 C 138.01 235.94 137.16 235.44 136.33 235.66 C 135.49 235.88 134.99 236.73 135.21 237.57 L 135.48 238.58 C 135.70 239.41 136.55 239.91 137.39 239.69 C 138.22 239.47 138.72 238.61 138.50 237.78 Z M 138.24 236.80 L 138.17 236.51 C 137.97 235.67 137.12 235.16 136.28 235.36 C 135.45 235.57 134.93 236.41 135.14 237.25 L 135.21 237.54 C 135.41 238.38 136.26 238.89 137.09 238.69 C 137.93 238.48 138.44 237.64 138.24 236.80 Z"
      fill="black"
      fill-rule="nonzero" /></svg>