<svg xmlns="http://www.w3.org/2000/svg" width="300" height="300" viewBox="0 0 300 300">
<path d="M 107.85 93.72 L 108.30 94.50 C 108.73 95.25 109.68 95.50 110.43 95.07 C 111.18 94.64 111.43 93.69 111.00 92.94 L 110.55 92.16 C 110.12 91.41 109.17 91.16 108.42 91.59 C 107.67 92.02 107.42 92.97 107.85 93.72 Z M 108.32 94.53 L 108.81 95.34 C 109.26 96.08 110.22 96.31 110.96 95.86 C 111.69 95.41 111.93 94.45 111.48 93.72 L 110.98 92.91 C 110.53 92.17 109.57 91.94 108.84 92.39 C 108.10 92.84 107.87 93.80 108.32 94.53 Z M 108.85 95.40 L 109.43 96.27 C 109.91 96.99 110.88 97.18 111.60 96.70 C 112.32 96.22 112.51 95.25 112.03 94.53 L 111.44 93.66 C 110.96 92.94 109.99 92.75 109.27 93.23 C 108.56 93.71 108.37 94.68 108.85 95.40 Z M 109.48 96.33 L 110.12 97.19 C 110.63 97.88 111.61 98.03 112.30 97.52 C 112.99 97.00 113.14 96.02 112.62 95.33 L 111.98 94.47 C 111.47 93.78 110.49 93.63 109.80 94.15 C 109.11 94.66 108.96 95.64 109.48 96.33 Z M 110.15 97.24 L 110.76 98.00 C 111.30 98.68 112.29 98.78 112.96 98.25 C 113.63 97.71 113.74 96.72 113.20 96.05 L 112.59 95.29 C 112.05 94.61 111.07 94.50 110.39 95.04 C 109.72 95.58 109.61 96.56 110.15 97.24 Z M 110.79 98.03 L 111.45 98.82 C 112.01 99.48 112.99 99.56 113.65 99.01 C 114.31 98.45 114.39 97.47 113.84 96.81 L 113.18 96.02 C 112.62 95.36 111.64 95.28 110.98 95.83 C 110.32 96.39 110.23 97.37 110.79 98.03 Z M 111.47 98.84 L 112.15 99.62 C 112.72 100.27 113.71 100.34 114.36 99.77 C 115.01 99.20 115.07 98.21 114.50 97.56 L 113.82 96.79 C 113.25 96.14 112.26 96.07 111.62 96.64 C 110.97 97.21 110.90 98.19 111.47 98.84 Z M 112.17 99.64 L 112.85 100.39 C 113.43 101.02 114.41 101.07 115.05 100.49 C 115.69 99.91 115.74 98.93 115.16 98.29 L 114.48 97.54 C 113.90 96.91 112.92 96.86 112.28 97.44 C 111.64 98.02 111.59 99.01 112.17 99.64 Z M 112.87 100.41 L 113.60 101.18 C 114.19 101.81 115.18 101.84 115.81 101.25 C 116.43 100.66 116.46 99.67 115.87 99.04 L 115.14 98.27 C 114.55 97.64 113.56 97.61 112.93 98.20 C 112.30 98.79 112.28 99.78 112.87 100.41 Z M 113.63 101.21 L 114.38 101.97 C 114.98 102.58 115.97 102.59 116.58 101.98 C 117.20 101.37 117.20 100.39 116.59 99.77 L 115.84 99.01 C 115.24 98.40 114.25 98.40 113.64 99.00 C 113.02 99.61 113.02 100.60 113.63 101.21 Z M 114.41 102.00 L 115.11 102.67 C 115.73 103.26 116.72 103.24 117.31 102.62 C 117.91 102.00 117.89 101.01 117.26 100.41 L 116.56 99.74 C 115.94 99.15 114.95 99.17 114.36 99.79 C 113.76 100.42 113.78 101.40 114.41 102.00 Z M 115.14 102.70 L 115.81 103.31 C 116.45 103.88 117.44 103.83 118.02 103.19 C 118.59 102.55 118.54 101.57 117.91 100.99 L 117.23 100.38 C 116.59 99.80 115.61 99.85 115.03 100.49 C 114.45 101.13 114.50 102.12 115.14 102.70 Z M 115.84 103.33 L 116.58 103.97 C 117.24 104.53 118.22 104.45 118.78 103.80 C 119.34 103.14 119.27 102.16 118.61 101.59 L 117.87 100.96 C 117.22 100.40 116.23 100.48 115.67 101.13 C 115.11 101.79 115.19 102.77 115.84 103.33 Z M 116.61 103.99 L 117.39 104.62 C 118.05 105.16 119.04 105.06 119.58 104.39 C 120.12 103.72 120.02 102.74 119.35 102.19 L 118.58 101.57 C 117.91 101.02 116.93 101.13 116.39 101.80 C 115.84 102.47 115.94 103.45 116.61 103.99 Z M 117.42 104.64 L 118.21 105.25 C 118.89 105.78 119.87 105.65 120.40 104.97 C 120.92 104.28 120.80 103.30 120.11 102.78 L 119.32 102.17 C 118.64 101.64 117.66 101.77 117.13 102.45 C 116.61 103.14 116.73 104.12 117.42 104.64 Z M 118.24 105.27 L 119.03 105.86 C 119.73 106.37 120.70 106.22 121.21 105.52 C 121.72 104.83 121.57 103.85 120.88 103.34 L 120.08 102.76 C 119.39 102.25 118.41 102.40 117.90 103.09 C 117.39 103.79 117.54 104.76 118.24 105.27 Z M 119.06 105.88 L 119.85 106.44 C 120.56 106.93 121.53 106.76 122.03 106.06 C 122.52 105.35 122.36 104.38 121.65 103.88 L 120.85 103.32 C 120.15 102.83 119.17 103.00 118.68 103.70 C 118.18 104.41 118.35 105.38 119.06 105.88 Z M 119.88 106.45 L 120.71 107.02 C 121.43 107.50 122.40 107.31 122.88 106.59 C 123.36 105.88 123.17 104.91 122.46 104.42 L 121.62 103.86 C 120.91 103.38 119.94 103.57 119.46 104.29 C 118.98 105.00 119.16 105.97 119.88 106.45 Z M 120.74 107.03 L 121.61 107.59 C 122.34 108.06 123.30 107.85 123.77 107.12 C 124.24 106.40 124.03 105.43 123.30 104.97 L 122.43 104.41 C 121.70 103.94 120.74 104.15 120.27 104.88 C 119.81 105.60 120.01 106.57 120.74 107.03 Z M 121.64 107.61 L 122.47 108.12 C 123.20 108.57 124.16 108.34 124.62 107.61 C 125.07 106.88 124.84 105.91 124.10 105.46 L 123.27 104.95 C 122.54 104.50 121.58 104.73 121.13 105.46 C 120.67 106.20 120.90 107.16 121.64 107.61 Z M 122.49 108.13 L 123.34 108.64 C 124.08 109.08 125.04 108.83 125.48 108.09 C 125.92 107.35 125.67 106.39 124.93 105.95 L 124.08 105.45 C 123.34 105.01 122.38 105.25 121.94 105.99 C 121.50 106.74 121.75 107.69 122.49 108.13 Z M 123.36 108.65 L 124.23 109.15 C 124.98 109.58 125.93 109.33 126.36 108.58 C 126.80 107.83 126.54 106.88 125.79 106.45 L 124.92 105.94 C 124.17 105.51 123.21 105.77 122.78 106.52 C 122.35 107.26 122.61 108.22 123.36 108.65 Z M 124.25 109.16 L 125.15 109.67 C 125.90 110.09 126.85 109.82 127.27 109.07 C 127.69 108.32 127.43 107.37 126.67 106.94 L 125.78 106.44 C 125.03 106.02 124.07 106.28 123.65 107.04 C 123.23 107.79 123.50 108.74 124.25 109.16 Z M 125.16 109.67 L 126.02 110.15 C 126.78 110.57 127.73 110.29 128.14 109.54 C 128.56 108.78 128.28 107.83 127.53 107.41 L 126.66 106.94 C 125.91 106.52 124.96 106.80 124.54 107.55 C 124.13 108.31 124.40 109.26 125.16 109.67 Z M 126.03 110.15 L 126.91 110.63 C 127.67 111.04 128.61 110.76 129.02 110.00 C 129.43 109.24 129.15 108.29 128.39 107.88 L 127.52 107.41 C 126.76 107.00 125.81 107.28 125.40 108.04 C 124.99 108.80 125.27 109.74 126.03 110.15 Z M 126.92 110.63 L 127.81 111.11 C 128.57 111.51 129.51 111.22 129.92 110.46 C 130.32 109.69 130.03 108.75 129.27 108.35 L 128.38 107.88 C 127.62 107.47 126.68 107.76 126.27 108.52 C 125.87 109.29 126.16 110.23 126.92 110.63 Z M 127.82 111.11 L 128.72 111.58 C 129.48 111.97 130.43 111.67 130.82 110.91 C 131.22 110.14 130.92 109.20 130.15 108.80 L 129.26 108.34 C 128.49 107.94 127.55 108.24 127.15 109.01 C 126.76 109.77 127.06 110.72 127.82 111.11 Z M 128.73 111.58 L 129.62 112.03 C 130.39 112.42 131.32 112.11 131.71 111.34 C 132.10 110.57 131.80 109.63 131.03 109.25 L 130.14 108.80 C 129.37 108.41 128.43 108.72 128.04 109.49 C 127.65 110.26 127.96 111.19 128.73 111.58 Z M 129.63 112.04 L 130.51 112.48 C 131.29 112.86 132.22 112.54 132.61 111.77 C 132.99 111.00 132.67 110.06 131.90 109.68 L 131.01 109.24 C 130.24 108.86 129.31 109.17 128.92 109.94 C 128.54 110.72 128.86 111.65 129.63 112.04 Z M 130.52 112.48 L 131.42 112.92 C 132.19 113.30 133.13 112.98 133.51 112.20 C 133.89 111.43 133.57 110.49 132.79 110.11 L 131.89 109.68 C 131.12 109.30 130.18 109.62 129.81 110.39 C 129.43 111.17 129.75 112.10 130.52 112.48 Z M 131.42 112.92 L 132.33 113.36 C 133.11 113.74 134.04 113.41 134.42 112.64 C 134.80 111.86 134.47 110.93 133.70 110.55 L 132.79 110.11 C 132.01 109.74 131.08 110.06 130.70 110.84 C 130.32 111.61 130.65 112.55 131.42 112.92 Z M 132.34 113.36 L 133.25 113.81 C 134.03 114.18 134.96 113.86 135.34 113.08 C 135.71 112.31 135.39 111.37 134.61 111.00 L 133.69 110.55 C 132.92 110.18 131.98 110.50 131.61 111.28 C 131.23 112.05 131.56 112.99 132.34 113.36 Z M 133.25 113.81 L 134.17 114.25 C 134.95 114.63 135.88 114.30 136.26 113.53 C 136.64 112.75 136.31 111.82 135.53 111.44 L 134.61 111.00 C 133.84 110.62 132.90 110.95 132.53 111.72 C 132.15 112.50 132.48 113.43 133.25 113.81 Z M 134.17 114.25 L 135.09 114.70 C 135.86 115.07 136.80 114.75 137.17 113.97 C 137.55 113.20 137.23 112.26 136.45 111.89 L 135.54 111.44 C 134.76 111.07 133.83 111.39 133.45 112.17 C 133.07 112.94 133.40 113.88 134.17 114.25 Z M 135.08 114.69 L 135.98 115.13 C 136.75 115.51 137.69 115.18 138.06 114.41 C 138.44 113.63 138.12 112.70 137.34 112.32 L 136.45 111.89 C 135.68 111.51 134.74 111.83 134.36 112.61 C 133.99 113.38 134.31 114.32 135.08 114.69 Z M 135.97 115.13 L 136.85 115.55 C 137.62 115.93 138.56 115.61 138.93 114.84 C 139.31 114.07 138.99 113.13 138.22 112.75 L 137.35 112.32 C 136.57 111.94 135.64 112.26 135.26 113.04 C 134.88 113.81 135.20 114.75 135.97 115.13 Z M 136.84 115.55 L 137.80 116.02 C 138.57 116.41 139.51 116.09 139.89 115.31 C 140.27 114.54 139.95 113.60 139.18 113.22 L 138.22 112.75 C 137.45 112.37 136.51 112.69 136.13 113.46 C 135.75 114.24 136.07 115.17 136.84 115.55 Z M 137.80 116.02 L 138.70 116.47 C 139.47 116.85 140.41 116.53 140.79 115.76 C 141.17 114.99 140.85 114.05 140.08 113.67 L 139.18 113.22 C 138.40 112.84 137.47 113.16 137.09 113.93 C 136.71 114.71 137.02 115.64 137.80 116.02 Z M 138.70 116.47 L 139.56 116.89 C 140.34 117.27 141.27 116.95 141.65 116.17 C 142.03 115.40 141.71 114.46 140.94 114.09 L 140.07 113.67 C 139.30 113.29 138.37 113.61 137.99 114.38 C 137.61 115.16 137.93 116.09 138.70 116.47 Z M 139.58 116.90 L 140.42 117.30 C 141.20 117.67 142.13 117.35 142.50 116.57 C 142.88 115.79 142.55 114.86 141.77 114.49 L 140.92 114.08 C 140.15 113.71 139.21 114.04 138.84 114.81 C 138.47 115.59 138.80 116.52 139.58 116.90 Z M 140.43 117.30 L 141.28 117.71 C 142.06 118.08 142.99 117.74 143.36 116.96 C 143.73 116.19 143.40 115.25 142.62 114.89 L 141.76 114.48 C 140.98 114.11 140.05 114.45 139.68 115.23 C 139.32 116.01 139.65 116.94 140.43 117.30 Z M 141.28 117.71 L 142.17 118.13 C 142.94 118.50 143.88 118.18 144.25 117.40 C 144.62 116.62 144.29 115.69 143.51 115.32 L 142.62 114.89 C 141.85 114.52 140.91 114.85 140.54 115.62 C 140.17 116.40 140.50 117.33 141.28 117.71 Z M 142.15 118.12 L 143.11 118.60 C 143.88 118.98 144.82 118.67 145.20 117.89 C 145.58 117.12 145.27 116.18 144.50 115.80 L 143.53 115.32 C 142.76 114.94 141.82 115.26 141.44 116.03 C 141.06 116.80 141.37 117.74 142.15 118.12 Z M 143.09 118.59 L 143.94 119.03 C 144.71 119.43 145.65 119.13 146.05 118.36 C 146.44 117.59 146.14 116.65 145.38 116.26 L 144.52 115.81 C 143.75 115.42 142.81 115.72 142.42 116.48 C 142.02 117.25 142.32 118.19 143.09 118.59 Z M 143.92 119.02 L 144.80 119.49 C 145.56 119.90 146.51 119.61 146.91 118.85 C 147.32 118.09 147.04 117.15 146.28 116.74 L 145.40 116.27 C 144.64 115.86 143.69 116.14 143.28 116.90 C 142.88 117.66 143.16 118.61 143.92 119.02 Z M 144.77 119.48 L 145.67 119.98 C 146.42 120.40 147.37 120.13 147.79 119.38 C 148.22 118.63 147.95 117.68 147.20 117.26 L 146.30 116.75 C 145.55 116.33 144.60 116.60 144.18 117.35 C 143.75 118.10 144.02 119.05 144.77 119.48 Z M 145.64 119.96 L 146.52 120.48 C 147.27 120.92 148.22 120.67 148.66 119.93 C 149.10 119.19 148.85 118.23 148.11 117.79 L 147.23 117.27 C 146.48 116.83 145.53 117.08 145.09 117.82 C 144.65 118.57 144.90 119.52 145.64 119.96 Z M 146.49 120.46 L 147.36 121.01 C 148.09 121.46 149.05 121.24 149.51 120.51 C 149.97 119.78 149.75 118.82 149.02 118.36 L 148.15 117.82 C 147.42 117.36 146.45 117.58 145.99 118.31 C 145.54 119.04 145.76 120.00 146.49 120.46 Z M 147.32 120.98 L 148.18 121.56 C 148.89 122.04 149.86 121.85 150.34 121.13 C 150.82 120.41 150.63 119.44 149.92 118.96 L 149.06 118.39 C 148.34 117.91 147.37 118.10 146.89 118.81 C 146.41 119.53 146.60 120.50 147.32 120.98 Z M 148.14 121.53 L 148.96 122.11 C 149.66 122.61 150.63 122.44 151.13 121.74 C 151.63 121.04 151.47 120.06 150.76 119.56 L 149.95 118.99 C 149.25 118.49 148.27 118.65 147.77 119.36 C 147.28 120.06 147.44 121.04 148.14 121.53 Z M 148.93 122.09 L 149.72 122.67 C 150.41 123.18 151.39 123.03 151.90 122.34 C 152.41 121.65 152.26 120.67 151.57 120.16 L 150.79 119.58 C 150.09 119.07 149.11 119.22 148.60 119.91 C 148.09 120.61 148.24 121.58 148.93 122.09 Z M 149.71 122.66 L 150.31 123.11 C 151.00 123.63 151.97 123.49 152.49 122.80 C 153.01 122.11 152.87 121.13 152.18 120.61 L 151.58 120.16 C 150.89 119.65 149.91 119.79 149.39 120.48 C 148.88 121.17 149.02 122.15 149.71 122.66 Z"
      fill="black"
      fill-rule="nonzero" /><path d="M 94.48 140.60 L 93.30 140.60 C 92.44 140.60 91.74 141.30 91.74 142.17 C 91.74 143.03 92.45 143.73 93.31 143.72 L 94.48 143.72 C 95.35 143.72 96.04 143.02 96.04 142.16 C 96.04 141.29 95.34 140.60 94.48 140.60 Z M 93.28 140.60 L 92.13 140.62 C 91.27 140.64 90.58 141.35 90.60 142.21 C 90.61 143.07 91.32 143.76 92.18 143.74 L 93.33 143.72 C 94.19 143.71 94.88 143.00 94.86 142.13 C 94.85 141.27 94.14 140.59 93.28 140.60 Z M 92.08 140.62 L 90.99 140.68 C 90.13 140.72 89.47 141.45 89.51 142.31 C 89.56 143.18 90.29 143.84 91.15 143.80 L 92.23 143.74 C 93.10 143.70 93.76 142.97 93.72 142.10 C 93.67 141.24 92.94 140.58 92.08 140.62 Z M 90.91 140.68 L 89.91 140.79 C 89.05 140.88 88.43 141.65 88.52 142.51 C 88.62 143.36 89.38 143.99 90.24 143.89 L 91.24 143.79 C 92.09 143.70 92.71 142.93 92.62 142.07 C 92.53 141.21 91.76 140.59 90.91 140.68 Z M 89.77 140.81 L 88.90 140.98 C 88.05 141.15 87.51 141.98 87.67 142.82 C 87.84 143.67 88.66 144.22 89.51 144.05 L 90.38 143.87 C 91.23 143.70 91.78 142.88 91.61 142.04 C 91.44 141.19 90.62 140.64 89.77 140.81 Z M 88.68 141.05 L 87.96 141.31 C 87.14 141.60 86.72 142.49 87.02 143.31 C 87.31 144.12 88.20 144.54 89.01 144.24 L 89.73 143.98 C 90.55 143.69 90.97 142.80 90.67 141.99 C 90.38 141.17 89.49 140.75 88.68 141.05 Z M 87.54 141.54 L 86.81 142.09 C 86.13 142.62 86.00 143.60 86.52 144.28 C 87.05 144.97 88.03 145.09 88.71 144.57 L 89.43 144.01 C 90.12 143.49 90.25 142.51 89.72 141.83 C 89.20 141.14 88.22 141.01 87.54 141.54 Z M 86.34 142.68 L 85.96 143.51 C 85.60 144.29 85.94 145.22 86.72 145.58 C 87.50 145.94 88.43 145.60 88.79 144.82 L 89.18 143.99 C 89.54 143.20 89.20 142.28 88.41 141.91 C 87.63 141.55 86.70 141.89 86.34 142.68 Z M 85.81 144.16 L 85.81 145.13 C 85.81 145.99 86.51 146.69 87.37 146.69 C 88.23 146.69 88.93 145.99 88.94 145.13 L 88.94 144.17 C 88.94 143.30 88.24 142.60 87.38 142.60 C 86.52 142.60 85.82 143.30 85.81 144.16 Z M 85.88 145.58 L 86.19 146.60 C 86.44 147.42 87.31 147.89 88.13 147.64 C 88.96 147.39 89.43 146.52 89.18 145.69 L 88.87 144.68 C 88.62 143.85 87.75 143.39 86.92 143.64 C 86.10 143.89 85.63 144.76 85.88 145.58 Z M 86.30 146.88 L 86.74 147.70 C 87.15 148.46 88.10 148.75 88.86 148.34 C 89.62 147.93 89.90 146.99 89.50 146.23 L 89.06 145.41 C 88.65 144.65 87.71 144.36 86.95 144.77 C 86.18 145.17 85.90 146.12 86.30 146.88 Z M 86.86 147.88 L 87.41 148.64 C 87.92 149.34 88.89 149.50 89.59 148.99 C 90.29 148.48 90.45 147.51 89.94 146.81 L 89.38 146.05 C 88.88 145.35 87.90 145.19 87.20 145.70 C 86.50 146.21 86.35 147.18 86.86 147.88 Z M 87.51 148.77 L 88.18 149.51 C 88.75 150.15 89.74 150.21 90.38 149.64 C 91.02 149.06 91.08 148.07 90.50 147.43 L 89.84 146.69 C 89.27 146.04 88.28 145.99 87.64 146.56 C 86.99 147.14 86.94 148.12 87.51 148.77 Z M 88.25 149.59 L 89.01 150.32 C 89.63 150.92 90.62 150.91 91.22 150.29 C 91.82 149.67 91.80 148.68 91.18 148.08 L 90.43 147.35 C 89.81 146.75 88.82 146.77 88.22 147.39 C 87.62 148.01 87.63 148.99 88.25 149.59 Z M 89.06 150.37 L 89.88 151.09 C 90.53 151.66 91.51 151.60 92.08 150.95 C 92.65 150.30 92.59 149.32 91.94 148.75 L 91.12 148.03 C 90.48 147.46 89.49 147.52 88.92 148.17 C 88.35 148.82 88.42 149.81 89.06 150.37 Z M 89.92 151.12 L 90.71 151.78 C 91.37 152.33 92.36 152.23 92.91 151.57 C 93.46 150.91 93.36 149.92 92.70 149.37 L 91.91 148.72 C 91.24 148.17 90.26 148.26 89.71 148.92 C 89.16 149.59 89.25 150.57 89.92 151.12 Z M 90.74 151.80 L 91.55 152.44 C 92.23 152.98 93.21 152.86 93.74 152.19 C 94.28 151.51 94.16 150.53 93.49 149.99 L 92.67 149.35 C 92.00 148.82 91.01 148.93 90.48 149.61 C 89.95 150.28 90.06 151.27 90.74 151.80 Z M 91.57 152.46 L 92.39 153.08 C 93.08 153.60 94.06 153.47 94.58 152.79 C 95.10 152.10 94.97 151.12 94.28 150.60 L 93.46 149.98 C 92.78 149.45 91.80 149.59 91.28 150.27 C 90.76 150.96 90.89 151.94 91.57 152.46 Z M 92.41 153.10 L 93.21 153.68 C 93.90 154.19 94.88 154.05 95.39 153.35 C 95.90 152.66 95.75 151.68 95.06 151.17 L 94.26 150.58 C 93.57 150.07 92.59 150.22 92.08 150.91 C 91.57 151.61 91.72 152.59 92.41 153.10 Z M 93.22 153.70 L 93.98 154.24 C 94.68 154.74 95.66 154.58 96.16 153.88 C 96.66 153.17 96.50 152.20 95.80 151.70 L 95.04 151.16 C 94.34 150.65 93.36 150.82 92.86 151.52 C 92.36 152.22 92.52 153.20 93.22 153.70 Z M 94.00 154.25 L 94.84 154.83 C 95.55 155.32 96.52 155.15 97.01 154.44 C 97.51 153.73 97.33 152.76 96.62 152.27 L 95.78 151.68 C 95.07 151.19 94.10 151.37 93.61 152.08 C 93.11 152.79 93.29 153.76 94.00 154.25 Z M 94.87 154.85 L 95.69 155.39 C 96.41 155.86 97.38 155.66 97.85 154.94 C 98.32 154.22 98.12 153.25 97.40 152.78 L 96.59 152.25 C 95.87 151.77 94.90 151.97 94.43 152.69 C 93.95 153.41 94.15 154.38 94.87 154.85 Z M 95.73 155.41 L 96.54 155.92 C 97.28 156.37 98.24 156.14 98.69 155.41 C 99.14 154.67 98.91 153.71 98.18 153.26 L 97.36 152.76 C 96.63 152.30 95.67 152.53 95.22 153.27 C 94.76 154.00 94.99 154.96 95.73 155.41 Z M 96.59 155.94 L 97.46 156.44 C 98.21 156.87 99.16 156.61 99.59 155.86 C 100.02 155.11 99.76 154.16 99.01 153.73 L 98.14 153.23 C 97.39 152.80 96.44 153.06 96.01 153.81 C 95.58 154.56 95.84 155.51 96.59 155.94 Z M 97.49 156.46 L 98.32 156.91 C 99.08 157.32 100.03 157.03 100.44 156.28 C 100.85 155.52 100.57 154.57 99.81 154.16 L 98.97 153.71 C 98.21 153.30 97.27 153.59 96.86 154.35 C 96.45 155.10 96.73 156.05 97.49 156.46 Z M 98.35 156.92 L 99.18 157.35 C 99.95 157.75 100.89 157.44 101.28 156.68 C 101.68 155.91 101.38 154.97 100.61 154.58 L 99.78 154.15 C 99.01 153.75 98.07 154.05 97.68 154.82 C 97.28 155.59 97.58 156.53 98.35 156.92 Z M 99.20 157.36 L 100.09 157.80 C 100.86 158.19 101.80 157.87 102.18 157.10 C 102.56 156.33 102.25 155.39 101.48 155.01 L 100.59 154.57 C 99.82 154.18 98.88 154.50 98.50 155.27 C 98.11 156.04 98.43 156.98 99.20 157.36 Z M 100.11 157.81 L 101.04 158.26 C 101.81 158.63 102.75 158.31 103.12 157.53 C 103.49 156.75 103.17 155.82 102.39 155.45 L 101.46 155.00 C 100.68 154.62 99.75 154.95 99.38 155.73 C 99.00 156.50 99.33 157.44 100.11 157.81 Z M 101.05 158.27 L 102.02 158.72 C 102.80 159.08 103.73 158.74 104.09 157.96 C 104.46 157.18 104.12 156.25 103.34 155.89 L 102.37 155.44 C 101.59 155.07 100.66 155.41 100.30 156.19 C 99.93 156.97 100.27 157.90 101.05 158.27 Z M 102.03 158.72 L 103.01 159.17 C 103.80 159.53 104.72 159.18 105.08 158.39 C 105.44 157.61 105.09 156.68 104.30 156.33 L 103.32 155.88 C 102.54 155.52 101.61 155.87 101.25 156.66 C 100.90 157.44 101.25 158.37 102.03 158.72 Z M 103.03 159.18 L 104.01 159.61 C 104.80 159.96 105.72 159.60 106.07 158.81 C 106.42 158.02 106.06 157.10 105.27 156.75 L 104.29 156.32 C 103.50 155.97 102.58 156.33 102.23 157.12 C 101.88 157.91 102.24 158.83 103.03 159.18 Z M 104.03 159.62 L 105.00 160.03 C 105.79 160.37 106.71 160.00 107.05 159.21 C 107.39 158.42 107.02 157.50 106.23 157.16 L 105.26 156.75 C 104.46 156.41 103.55 156.77 103.21 157.57 C 102.87 158.36 103.24 159.28 104.03 159.62 Z M 105.01 160.04 L 105.96 160.43 C 106.75 160.76 107.67 160.39 108.00 159.59 C 108.33 158.79 107.95 157.88 107.16 157.55 L 106.21 157.16 C 105.42 156.82 104.51 157.20 104.17 158.00 C 103.84 158.79 104.22 159.71 105.01 160.04 Z M 105.97 160.44 L 106.86 160.80 C 107.66 161.12 108.57 160.73 108.90 159.94 C 109.22 159.14 108.83 158.23 108.03 157.90 L 107.14 157.54 C 106.34 157.22 105.43 157.61 105.11 158.40 C 104.79 159.20 105.17 160.11 105.97 160.44 Z M 106.88 160.80 L 107.71 161.13 C 108.51 161.44 109.41 161.04 109.73 160.24 C 110.04 159.44 109.65 158.53 108.84 158.22 L 108.02 157.90 C 107.21 157.58 106.31 157.98 105.99 158.78 C 105.68 159.58 106.08 160.49 106.88 160.80 Z M 107.73 161.14 L 108.77 161.52 C 109.58 161.82 110.47 161.41 110.77 160.60 C 111.08 159.79 110.66 158.90 109.86 158.60 L 108.82 158.21 C 108.01 157.91 107.11 158.32 106.81 159.13 C 106.51 159.94 106.92 160.84 107.73 161.14 Z M 108.80 161.53 L 109.75 161.87 C 110.57 162.15 111.46 161.72 111.74 160.90 C 112.02 160.09 111.59 159.20 110.78 158.92 L 109.82 158.58 C 109.01 158.30 108.12 158.73 107.84 159.55 C 107.55 160.36 107.98 161.25 108.80 161.53 Z M 109.78 161.87 L 110.66 162.16 C 111.48 162.43 112.36 161.98 112.63 161.16 C 112.90 160.34 112.45 159.46 111.63 159.19 L 110.75 158.91 C 109.93 158.64 109.05 159.09 108.78 159.91 C 108.51 160.73 108.96 161.61 109.78 161.87 Z M 110.68 162.17 L 111.56 162.44 C 112.38 162.70 113.26 162.25 113.52 161.42 C 113.78 160.60 113.32 159.72 112.50 159.47 L 111.62 159.19 C 110.79 158.93 109.92 159.39 109.66 160.21 C 109.40 161.03 109.86 161.91 110.68 162.17 Z M 111.57 162.45 L 112.51 162.74 C 113.33 162.99 114.20 162.53 114.46 161.70 C 114.71 160.88 114.25 160.00 113.42 159.75 L 112.49 159.46 C 111.66 159.21 110.79 159.67 110.54 160.50 C 110.28 161.32 110.74 162.19 111.57 162.45 Z M 112.53 162.74 L 113.49 163.03 C 114.32 163.27 115.19 162.79 115.43 161.97 C 115.67 161.14 115.20 160.27 114.37 160.03 L 113.41 159.75 C 112.58 159.50 111.71 159.98 111.47 160.80 C 111.22 161.63 111.70 162.50 112.53 162.74 Z M 113.52 163.03 L 114.50 163.30 C 115.34 163.53 116.19 163.04 116.42 162.20 C 116.65 161.37 116.16 160.51 115.32 160.29 L 114.34 160.02 C 113.51 159.79 112.65 160.29 112.43 161.12 C 112.20 161.95 112.69 162.81 113.52 163.03 Z M 114.54 163.31 L 115.52 163.55 C 116.36 163.75 117.21 163.24 117.41 162.40 C 117.61 161.56 117.10 160.72 116.26 160.52 L 115.28 160.28 C 114.44 160.07 113.60 160.59 113.40 161.43 C 113.19 162.26 113.71 163.11 114.54 163.31 Z M 115.56 163.56 L 116.54 163.77 C 117.38 163.95 118.21 163.42 118.40 162.58 C 118.58 161.73 118.05 160.90 117.20 160.72 L 116.22 160.51 C 115.38 160.32 114.55 160.86 114.37 161.70 C 114.18 162.54 114.72 163.38 115.56 163.56 Z M 116.56 163.78 L 117.54 163.97 C 118.39 164.14 119.21 163.59 119.38 162.75 C 119.55 161.90 119.00 161.08 118.16 160.91 L 117.18 160.71 C 116.33 160.54 115.51 161.09 115.34 161.94 C 115.17 162.78 115.72 163.61 116.56 163.78 Z M 117.55 163.97 L 118.32 164.12 C 119.17 164.29 119.99 163.73 120.15 162.89 C 120.31 162.04 119.76 161.22 118.91 161.06 L 118.15 160.91 C 117.30 160.74 116.48 161.30 116.32 162.14 C 116.15 162.99 116.71 163.81 117.55 163.97 Z"
      fill="black"
      fill-rule="nonzero" /><path d="M 214.62 146.97 L 213.61 146.90 C 212.75 146.83 212.00 147.48 211.94 148.34 C 211.88 149.20 212.52 149.95 213.38 150.01 L 214.39 150.08 C 215.25 150.15 215.99 149.50 216.06 148.64 C 216.12 147.78 215.48 147.03 214.62 146.97 Z M 213.58 146.89 L 212.58 146.84 C 211.72 146.79 210.98 147.45 210.94 148.31 C 210.89 149.17 211.55 149.91 212.41 149.96 L 213.41 150.01 C 214.27 150.06 215.01 149.40 215.06 148.54 C 215.10 147.68 214.44 146.94 213.58 146.89 Z M 212.52 146.84 L 211.52 146.82 C 210.66 146.81 209.95 147.50 209.94 148.36 C 209.93 149.22 210.62 149.93 211.48 149.94 L 212.47 149.96 C 213.33 149.97 214.04 149.28 214.06 148.42 C 214.07 147.56 213.38 146.85 212.52 146.84 Z M 211.43 146.82 L 210.42 146.87 C 209.56 146.91 208.89 147.64 208.93 148.50 C 208.97 149.36 209.70 150.03 210.56 149.99 L 211.57 149.94 C 212.43 149.90 213.10 149.17 213.06 148.31 C 213.02 147.45 212.29 146.78 211.43 146.82 Z M 210.27 146.89 L 209.26 147.03 C 208.41 147.16 207.82 147.95 207.94 148.80 C 208.07 149.65 208.86 150.25 209.71 150.12 L 210.71 149.98 C 211.57 149.85 212.16 149.06 212.03 148.21 C 211.91 147.35 211.12 146.76 210.27 146.89 Z M 209.04 147.08 L 208.09 147.37 C 207.27 147.62 206.80 148.49 207.05 149.31 C 207.30 150.14 208.17 150.61 209.00 150.36 L 209.94 150.07 C 210.77 149.82 211.23 148.95 210.98 148.12 C 210.73 147.30 209.86 146.83 209.04 147.08 Z M 207.80 147.49 L 206.97 147.94 C 206.21 148.35 205.93 149.30 206.35 150.06 C 206.76 150.81 207.70 151.09 208.46 150.68 L 209.29 150.23 C 210.05 149.82 210.33 148.87 209.92 148.12 C 209.51 147.36 208.56 147.08 207.80 147.49 Z M 206.70 148.13 L 206.01 148.71 C 205.36 149.27 205.28 150.26 205.84 150.91 C 206.40 151.57 207.39 151.65 208.04 151.09 L 208.73 150.50 C 209.39 149.94 209.46 148.95 208.90 148.30 C 208.34 147.64 207.36 147.56 206.70 148.13 Z M 205.85 148.88 L 205.21 149.63 C 204.64 150.28 204.72 151.27 205.37 151.83 C 206.03 152.39 207.01 152.32 207.57 151.66 L 208.21 150.92 C 208.78 150.26 208.70 149.28 208.05 148.72 C 207.39 148.15 206.41 148.23 205.85 148.88 Z M 205.11 149.75 L 204.49 150.64 C 203.99 151.34 204.16 152.31 204.87 152.81 C 205.57 153.31 206.54 153.14 207.04 152.43 L 207.67 151.54 C 208.16 150.84 207.99 149.86 207.29 149.37 C 206.58 148.87 205.61 149.04 205.11 149.75 Z M 204.44 150.70 L 203.89 151.57 C 203.43 152.30 203.65 153.26 204.38 153.73 C 205.11 154.19 206.07 153.97 206.53 153.24 L 207.08 152.37 C 207.54 151.64 207.33 150.67 206.60 150.21 C 205.87 149.75 204.90 149.97 204.44 150.70 Z M 203.87 151.61 L 203.36 152.47 C 202.92 153.21 203.16 154.17 203.90 154.61 C 204.64 155.05 205.60 154.81 206.04 154.07 L 206.56 153.20 C 207.00 152.46 206.75 151.50 206.01 151.06 C 205.27 150.62 204.31 150.87 203.87 151.61 Z M 203.34 152.50 L 202.84 153.40 C 202.41 154.15 202.68 155.10 203.43 155.52 C 204.18 155.95 205.13 155.68 205.56 154.93 L 206.06 154.04 C 206.48 153.28 206.22 152.33 205.47 151.91 C 204.72 151.49 203.76 151.75 203.34 152.50 Z M 202.82 153.43 L 202.34 154.32 C 201.93 155.08 202.22 156.03 202.98 156.44 C 203.74 156.84 204.68 156.56 205.09 155.80 L 205.57 154.90 C 205.98 154.14 205.69 153.19 204.93 152.79 C 204.17 152.38 203.23 152.67 202.82 153.43 Z M 202.32 154.36 L 201.88 155.23 C 201.49 156.00 201.80 156.94 202.57 157.33 C 203.34 157.72 204.28 157.41 204.67 156.64 L 205.11 155.77 C 205.50 155.00 205.19 154.06 204.42 153.67 C 203.65 153.28 202.71 153.59 202.32 154.36 Z M 201.86 155.27 L 201.42 156.21 C 201.05 156.99 201.38 157.92 202.16 158.29 C 202.94 158.66 203.87 158.32 204.24 157.54 L 204.68 156.60 C 205.05 155.82 204.72 154.89 203.94 154.52 C 203.16 154.16 202.23 154.49 201.86 155.27 Z M 201.40 156.25 L 201.00 157.16 C 200.66 157.95 201.02 158.87 201.81 159.21 C 202.59 159.56 203.52 159.20 203.86 158.41 L 204.26 157.51 C 204.60 156.72 204.24 155.80 203.45 155.45 C 202.66 155.10 201.74 155.46 201.40 156.25 Z M 200.99 157.18 L 200.62 158.08 C 200.29 158.88 200.66 159.79 201.46 160.12 C 202.26 160.45 203.17 160.07 203.50 159.28 L 203.87 158.38 C 204.20 157.58 203.83 156.67 203.03 156.34 C 202.23 156.01 201.32 156.39 200.99 157.18 Z M 200.61 158.09 L 200.24 159.01 C 199.92 159.81 200.30 160.72 201.10 161.05 C 201.90 161.37 202.81 160.98 203.13 160.18 L 203.51 159.27 C 203.83 158.47 203.44 157.56 202.64 157.23 C 201.85 156.91 200.94 157.29 200.61 158.09 Z M 200.24 159.02 L 199.88 159.89 C 199.56 160.69 199.95 161.60 200.75 161.93 C 201.55 162.25 202.46 161.86 202.78 161.06 L 203.14 160.18 C 203.46 159.38 203.07 158.47 202.27 158.15 C 201.47 157.83 200.56 158.22 200.24 159.02 Z M 199.88 159.90 L 199.52 160.82 C 199.20 161.62 199.59 162.53 200.39 162.85 C 201.19 163.17 202.09 162.78 202.42 161.98 L 202.78 161.06 C 203.10 160.26 202.71 159.35 201.91 159.03 C 201.11 158.71 200.20 159.10 199.88 159.90 Z M 199.51 160.83 L 199.14 161.77 C 198.83 162.58 199.22 163.48 200.02 163.80 C 200.83 164.11 201.73 163.72 202.05 162.91 L 202.42 161.97 C 202.73 161.17 202.34 160.26 201.54 159.94 C 200.73 159.63 199.83 160.02 199.51 160.83 Z M 199.14 161.79 L 198.77 162.75 C 198.46 163.56 198.86 164.46 199.67 164.77 C 200.47 165.08 201.38 164.67 201.68 163.87 L 202.05 162.90 C 202.36 162.09 201.96 161.19 201.15 160.88 C 200.35 160.58 199.44 160.98 199.14 161.79 Z M 198.76 162.77 L 198.41 163.71 C 198.12 164.52 198.53 165.42 199.34 165.71 C 200.15 166.01 201.05 165.60 201.35 164.79 L 201.69 163.85 C 201.99 163.04 201.57 162.14 200.76 161.84 C 199.95 161.55 199.06 161.96 198.76 162.77 Z M 198.41 163.73 L 198.08 164.65 C 197.79 165.47 198.22 166.36 199.03 166.65 C 199.84 166.93 200.74 166.51 201.02 165.70 L 201.35 164.77 C 201.64 163.96 201.21 163.07 200.40 162.78 C 199.59 162.49 198.70 162.91 198.41 163.73 Z M 198.08 164.66 L 197.75 165.60 C 197.47 166.42 197.90 167.31 198.72 167.59 C 199.53 167.87 200.42 167.44 200.70 166.62 L 201.03 165.68 C 201.31 164.87 200.88 163.98 200.06 163.70 C 199.25 163.42 198.36 163.85 198.08 164.66 Z M 197.75 165.61 L 197.42 166.56 C 197.15 167.38 197.58 168.26 198.40 168.54 C 199.21 168.82 200.10 168.39 200.38 167.57 L 200.70 166.62 C 200.98 165.80 200.55 164.91 199.73 164.63 C 198.92 164.36 198.03 164.79 197.75 165.61 Z M 197.42 166.56 L 197.09 167.53 C 196.81 168.35 197.25 169.24 198.06 169.52 C 198.88 169.80 199.77 169.36 200.05 168.54 L 200.38 167.57 C 200.66 166.75 200.22 165.87 199.41 165.59 C 198.59 165.31 197.70 165.75 197.42 166.56 Z M 197.09 167.53 L 196.78 168.45 C 196.50 169.27 196.93 170.16 197.74 170.44 C 198.56 170.72 199.45 170.28 199.73 169.47 L 200.05 168.55 C 200.33 167.73 199.89 166.84 199.08 166.56 C 198.26 166.28 197.37 166.72 197.09 167.53 Z M 196.78 168.45 L 196.45 169.38 C 196.17 170.19 196.60 171.08 197.42 171.37 C 198.23 171.65 199.12 171.22 199.40 170.40 L 199.73 169.47 C 200.01 168.66 199.58 167.77 198.76 167.48 C 197.95 167.20 197.06 167.63 196.78 168.45 Z M 196.46 169.38 L 196.13 170.32 C 195.84 171.14 196.27 172.03 197.09 172.31 C 197.90 172.59 198.79 172.16 199.08 171.35 L 199.40 170.40 C 199.69 169.59 199.26 168.70 198.44 168.42 C 197.63 168.13 196.74 168.56 196.46 169.38 Z M 196.13 170.32 L 195.79 171.28 C 195.51 172.10 195.94 172.99 196.75 173.27 C 197.57 173.55 198.46 173.12 198.74 172.31 L 199.07 171.35 C 199.36 170.54 198.93 169.65 198.11 169.36 C 197.30 169.08 196.41 169.51 196.13 170.32 Z M 195.79 171.28 L 195.46 172.25 C 195.17 173.06 195.60 173.95 196.42 174.24 C 197.23 174.52 198.12 174.09 198.41 173.27 L 198.74 172.31 C 199.02 171.49 198.59 170.60 197.78 170.32 C 196.97 170.04 196.08 170.47 195.79 171.28 Z M 195.46 172.25 L 195.13 173.19 C 194.85 174.00 195.28 174.89 196.10 175.18 C 196.91 175.46 197.80 175.03 198.08 174.21 L 198.41 173.27 C 198.69 172.46 198.26 171.57 197.44 171.29 C 196.63 171.00 195.74 171.44 195.46 172.25 Z M 195.13 173.19 L 194.81 174.12 C 194.52 174.94 194.96 175.83 195.77 176.11 C 196.58 176.39 197.47 175.96 197.76 175.15 L 198.08 174.21 C 198.36 173.40 197.93 172.51 197.12 172.23 C 196.30 171.94 195.41 172.37 195.13 173.19 Z M 194.81 174.12 L 194.48 175.06 C 194.19 175.88 194.62 176.77 195.44 177.05 C 196.25 177.34 197.14 176.91 197.43 176.09 L 197.75 175.15 C 198.04 174.34 197.61 173.45 196.80 173.16 C 195.98 172.88 195.09 173.31 194.81 174.12 Z M 194.48 175.05 L 194.14 176.00 C 193.86 176.81 194.28 177.70 195.09 177.99 C 195.90 178.28 196.80 177.86 197.09 177.05 L 197.42 176.10 C 197.71 175.29 197.29 174.40 196.48 174.11 C 195.66 173.82 194.77 174.24 194.48 175.05 Z M 194.15 175.99 L 193.80 176.94 C 193.51 177.75 193.92 178.64 194.73 178.94 C 195.54 179.23 196.44 178.82 196.74 178.01 L 197.08 177.06 C 197.38 176.25 196.96 175.35 196.15 175.06 C 195.34 174.76 194.44 175.18 194.15 175.99 Z M 193.81 176.92 L 193.45 177.86 C 193.15 178.67 193.56 179.57 194.37 179.87 C 195.17 180.18 196.07 179.77 196.38 178.96 L 196.73 178.02 C 197.03 177.21 196.63 176.31 195.82 176.01 C 195.01 175.71 194.11 176.12 193.81 176.92 Z M 193.46 177.85 L 193.10 178.78 C 192.79 179.58 193.19 180.48 193.99 180.80 C 194.79 181.11 195.70 180.71 196.01 179.91 L 196.37 178.98 C 196.68 178.17 196.28 177.27 195.48 176.96 C 194.68 176.65 193.77 177.04 193.46 177.85 Z M 193.11 178.76 L 192.73 179.69 C 192.41 180.49 192.80 181.40 193.60 181.72 C 194.40 182.04 195.31 181.65 195.63 180.85 L 196.00 179.92 C 196.33 179.12 195.94 178.21 195.14 177.89 C 194.34 177.57 193.43 177.96 193.11 178.76 Z M 192.74 179.67 L 192.36 180.60 C 192.03 181.40 192.41 182.31 193.20 182.64 C 194.00 182.97 194.91 182.59 195.24 181.79 L 195.63 180.87 C 195.96 180.07 195.58 179.16 194.78 178.83 C 193.98 178.50 193.07 178.88 192.74 179.67 Z M 192.36 180.58 L 191.97 181.51 C 191.63 182.30 192.00 183.22 192.79 183.56 C 193.59 183.89 194.51 183.53 194.84 182.73 L 195.24 181.81 C 195.57 181.02 195.21 180.10 194.41 179.76 C 193.62 179.42 192.70 179.79 192.36 180.58 Z M 191.98 181.49 L 191.57 182.41 C 191.23 183.20 191.59 184.12 192.38 184.47 C 193.17 184.81 194.09 184.45 194.43 183.67 L 194.84 182.75 C 195.18 181.96 194.82 181.04 194.03 180.69 C 193.25 180.34 192.32 180.70 191.98 181.49 Z M 191.58 182.39 L 191.18 183.29 C 190.82 184.07 191.17 185.00 191.95 185.35 C 192.74 185.71 193.66 185.36 194.02 184.58 L 194.43 183.68 C 194.78 182.90 194.43 181.97 193.65 181.62 C 192.86 181.26 191.94 181.61 191.58 182.39 Z M 191.18 183.27 L 190.77 184.16 C 190.40 184.94 190.74 185.87 191.52 186.24 C 192.30 186.60 193.23 186.27 193.60 185.48 L 194.01 184.59 C 194.38 183.81 194.04 182.88 193.26 182.52 C 192.48 182.15 191.55 182.49 191.18 183.27 Z M 190.78 184.14 L 190.35 185.03 C 189.97 185.81 190.30 186.74 191.07 187.12 C 191.85 187.49 192.78 187.17 193.16 186.39 L 193.59 185.50 C 193.96 184.73 193.64 183.79 192.86 183.42 C 192.09 183.04 191.15 183.37 190.78 184.14 Z M 190.35 185.02 L 189.91 185.91 C 189.52 186.68 189.83 187.62 190.60 188.00 C 191.38 188.39 192.31 188.08 192.70 187.31 L 193.15 186.41 C 193.53 185.64 193.22 184.70 192.45 184.32 C 191.68 183.93 190.74 184.24 190.35 185.02 Z M 189.92 185.89 L 189.45 186.80 C 189.05 187.56 189.35 188.50 190.12 188.90 C 190.88 189.30 191.83 189.00 192.22 188.23 L 192.69 187.33 C 193.09 186.56 192.79 185.62 192.02 185.22 C 191.25 184.83 190.31 185.13 189.92 185.89 Z M 189.46 186.78 L 188.98 187.68 C 188.57 188.44 188.86 189.38 189.62 189.79 C 190.38 190.19 191.33 189.91 191.73 189.15 L 192.21 188.25 C 192.62 187.49 192.33 186.54 191.57 186.14 C 190.81 185.73 189.87 186.02 189.46 186.78 Z M 188.99 187.66 L 188.51 188.52 C 188.09 189.28 188.37 190.23 189.12 190.65 C 189.88 191.06 190.83 190.79 191.24 190.03 L 191.72 189.17 C 192.14 188.41 191.86 187.46 191.11 187.04 C 190.35 186.63 189.40 186.90 188.99 187.66 Z M 188.52 188.50 L 188.02 189.38 C 187.59 190.13 187.86 191.08 188.61 191.51 C 189.35 191.94 190.31 191.67 190.74 190.92 L 191.23 190.05 C 191.66 189.30 191.40 188.35 190.65 187.92 C 189.90 187.49 188.95 187.75 188.52 188.50 Z M 188.03 189.36 L 187.52 190.23 C 187.08 190.97 187.33 191.93 188.07 192.37 C 188.81 192.81 189.77 192.56 190.21 191.82 L 190.73 190.95 C 191.16 190.20 190.92 189.24 190.17 188.80 C 189.43 188.37 188.47 188.61 188.03 189.36 Z M 187.53 190.20 L 187.00 191.06 C 186.55 191.80 186.78 192.76 187.52 193.21 C 188.26 193.67 189.22 193.44 189.67 192.70 L 190.20 191.84 C 190.65 191.10 190.42 190.14 189.68 189.69 C 188.95 189.24 187.98 189.47 187.53 190.20 Z M 187.02 191.04 L 186.48 191.88 C 186.01 192.61 186.23 193.58 186.96 194.04 C 187.69 194.51 188.65 194.30 189.12 193.57 L 189.66 192.72 C 190.12 191.99 189.91 191.03 189.18 190.56 C 188.45 190.10 187.48 190.31 187.02 191.04 Z M 186.50 191.85 L 185.94 192.69 C 185.46 193.40 185.65 194.38 186.37 194.86 C 187.09 195.34 188.07 195.15 188.55 194.43 L 189.10 193.60 C 189.58 192.88 189.39 191.90 188.67 191.42 C 187.95 190.94 186.98 191.14 186.50 191.85 Z M 185.96 192.65 L 185.38 193.49 C 184.88 194.20 185.05 195.17 185.76 195.67 C 186.47 196.17 187.44 196.00 187.94 195.29 L 188.53 194.46 C 189.02 193.75 188.85 192.77 188.14 192.27 C 187.44 191.78 186.46 191.95 185.96 192.65 Z M 185.40 193.46 L 184.80 194.26 C 184.29 194.96 184.44 195.94 185.13 196.46 C 185.83 196.97 186.81 196.82 187.33 196.13 L 187.92 195.32 C 188.44 194.62 188.29 193.64 187.59 193.13 C 186.89 192.61 185.91 192.76 185.40 193.46 Z M 184.82 194.23 L 184.21 195.02 C 183.68 195.70 183.81 196.69 184.49 197.22 C 185.18 197.75 186.17 197.63 186.70 196.94 L 187.30 196.16 C 187.84 195.47 187.71 194.48 187.03 193.95 C 186.34 193.42 185.35 193.55 184.82 194.23 Z M 184.24 194.99 L 183.61 195.76 C 183.07 196.43 183.17 197.42 183.84 197.97 C 184.52 198.51 185.51 198.41 186.05 197.74 L 186.68 196.97 C 187.22 196.29 187.12 195.30 186.44 194.76 C 185.77 194.21 184.78 194.32 184.24 194.99 Z M 183.63 195.73 L 182.99 196.49 C 182.43 197.15 182.51 198.15 183.18 198.71 C 183.84 199.27 184.83 199.18 185.39 198.52 L 186.03 197.76 C 186.59 197.10 186.51 196.11 185.85 195.55 C 185.18 194.99 184.19 195.07 183.63 195.73 Z M 183.01 196.47 L 182.36 197.20 C 181.79 197.86 181.86 198.85 182.51 199.42 C 183.16 200.00 184.16 199.93 184.73 199.28 L 185.37 198.54 C 185.95 197.89 185.88 196.90 185.23 196.32 C 184.58 195.75 183.58 195.81 183.01 196.47 Z M 182.38 197.18 L 181.73 197.90 C 181.14 198.55 181.19 199.54 181.83 200.13 C 182.48 200.71 183.47 200.66 184.06 200.02 L 184.71 199.30 C 185.30 198.66 185.25 197.66 184.61 197.08 C 183.96 196.49 182.97 196.54 182.38 197.18 Z M 181.74 197.88 L 181.07 198.60 C 180.47 199.23 180.50 200.23 181.14 200.83 C 181.77 201.42 182.77 201.39 183.37 200.76 L 184.04 200.04 C 184.64 199.41 184.61 198.41 183.97 197.81 C 183.34 197.22 182.34 197.25 181.74 197.88 Z M 181.09 198.58 L 180.39 199.29 C 179.78 199.92 179.79 200.92 180.42 201.52 C 181.04 202.13 182.04 202.12 182.65 201.50 L 183.35 200.78 C 183.96 200.16 183.94 199.16 183.32 198.55 C 182.69 197.94 181.69 197.95 181.09 198.58 Z M 180.41 199.27 L 179.69 199.99 C 179.07 200.60 179.06 201.60 179.68 202.22 C 180.29 202.84 181.29 202.84 181.91 202.23 L 182.63 201.52 C 183.25 200.90 183.26 199.90 182.64 199.28 C 182.03 198.66 181.03 198.66 180.41 199.27 Z M 179.71 199.97 L 178.96 200.68 C 178.33 201.28 178.31 202.28 178.91 202.91 C 179.52 203.55 180.52 203.57 181.15 202.96 L 181.89 202.25 C 182.53 201.65 182.55 200.64 181.94 200.01 C 181.34 199.38 180.34 199.36 179.71 199.97 Z M 178.98 200.66 L 178.25 201.34 C 177.61 201.93 177.57 202.93 178.16 203.57 C 178.76 204.22 179.76 204.25 180.40 203.66 L 181.13 202.98 C 181.77 202.39 181.81 201.39 181.22 200.74 C 180.62 200.10 179.62 200.06 178.98 200.66 Z M 178.27 201.32 L 177.54 201.97 C 176.89 202.55 176.84 203.56 177.42 204.21 C 178.01 204.86 179.01 204.91 179.66 204.33 L 180.38 203.68 C 181.04 203.09 181.09 202.09 180.50 201.44 C 179.92 200.79 178.92 200.73 178.27 201.32 Z M 177.56 201.95 L 176.81 202.60 C 176.15 203.18 176.09 204.18 176.66 204.84 C 177.24 205.50 178.24 205.57 178.90 204.99 L 179.65 204.34 C 180.31 203.77 180.37 202.76 179.80 202.10 C 179.22 201.44 178.22 201.38 177.56 201.95 Z M 176.83 202.59 L 176.07 203.24 C 175.40 203.80 175.32 204.81 175.89 205.47 C 176.46 206.14 177.46 206.22 178.13 205.65 L 178.89 205.01 C 179.56 204.44 179.64 203.44 179.07 202.77 C 178.50 202.10 177.50 202.02 176.83 202.59 Z M 176.08 203.22 L 175.30 203.87 C 174.63 204.43 174.54 205.43 175.10 206.11 C 175.66 206.78 176.66 206.87 177.33 206.31 L 178.11 205.67 C 178.79 205.11 178.88 204.10 178.32 203.43 C 177.76 202.75 176.76 202.66 176.08 203.22 Z M 175.32 203.86 L 174.52 204.50 C 173.84 205.06 173.74 206.06 174.29 206.74 C 174.85 207.42 175.85 207.52 176.53 206.97 L 177.32 206.33 C 178.00 205.77 178.11 204.77 177.55 204.09 C 177.00 203.41 176.00 203.30 175.32 203.86 Z M 174.54 204.49 L 173.73 205.13 C 173.04 205.68 172.93 206.68 173.48 207.37 C 174.02 208.05 175.02 208.17 175.71 207.62 L 176.52 206.98 C 177.20 206.43 177.32 205.43 176.77 204.75 C 176.22 204.06 175.22 203.94 174.54 204.49 Z M 173.74 205.12 L 172.97 205.72 C 172.28 206.26 172.15 207.26 172.69 207.96 C 173.24 208.65 174.24 208.77 174.93 208.23 L 175.70 207.63 C 176.39 207.09 176.52 206.09 175.98 205.40 C 175.44 204.70 174.44 204.58 173.74 205.12 Z M 172.98 205.71 L 172.20 206.31 C 171.50 206.85 171.37 207.85 171.90 208.55 C 172.44 209.24 173.44 209.38 174.14 208.84 L 174.92 208.24 C 175.62 207.71 175.75 206.71 175.21 206.01 C 174.68 205.31 173.68 205.18 172.98 205.71 Z M 172.21 206.31 L 171.42 206.90 C 170.71 207.43 170.58 208.43 171.11 209.13 C 171.64 209.84 172.63 209.98 173.34 209.45 L 174.13 208.85 C 174.83 208.32 174.97 207.32 174.44 206.62 C 173.91 205.91 172.91 205.78 172.21 206.31 Z M 171.42 206.90 L 170.62 207.50 C 169.92 208.02 169.77 209.02 170.30 209.73 C 170.82 210.43 171.82 210.58 172.53 210.05 L 173.33 209.45 C 174.03 208.93 174.18 207.93 173.65 207.22 C 173.13 206.52 172.13 206.37 171.42 206.90 Z M 170.63 207.49 L 169.82 208.09 C 169.11 208.61 168.96 209.61 169.48 210.32 C 170.00 211.03 171.00 211.18 171.71 210.65 L 172.52 210.06 C 173.23 209.53 173.38 208.54 172.86 207.83 C 172.33 207.12 171.34 206.97 170.63 207.49 Z M 169.82 208.08 L 169.00 208.68 C 168.29 209.20 168.14 210.20 168.66 210.91 C 169.18 211.62 170.17 211.78 170.88 211.26 L 171.70 210.66 C 172.42 210.14 172.57 209.14 172.05 208.43 C 171.53 207.72 170.53 207.56 169.82 208.08 Z M 169.01 208.68 L 168.18 209.28 C 167.47 209.80 167.31 210.79 167.83 211.51 C 168.35 212.22 169.34 212.38 170.06 211.86 L 170.88 211.26 C 171.59 210.74 171.75 209.75 171.23 209.03 C 170.72 208.32 169.72 208.16 169.01 208.68 Z M 168.19 209.28 L 167.39 209.85 C 166.68 210.36 166.52 211.36 167.03 212.07 C 167.55 212.79 168.55 212.95 169.26 212.43 L 170.05 211.86 C 170.77 211.35 170.93 210.35 170.41 209.63 C 169.90 208.92 168.90 208.76 168.19 209.28 Z M 167.40 209.85 L 166.60 210.42 C 165.88 210.94 165.72 211.93 166.23 212.65 C 166.75 213.36 167.75 213.53 168.46 213.01 L 169.26 212.44 C 169.98 211.92 170.14 210.92 169.62 210.21 C 169.11 209.49 168.11 209.33 167.40 209.85 Z M 166.60 210.42 L 165.79 211.00 C 165.08 211.51 164.91 212.51 165.43 213.23 C 165.94 213.94 166.94 214.11 167.66 213.59 L 168.46 213.01 C 169.18 212.50 169.34 211.50 168.83 210.78 C 168.31 210.07 167.31 209.90 166.60 210.42 Z M 165.79 211.00 L 164.98 211.58 C 164.27 212.10 164.10 213.09 164.62 213.81 C 165.13 214.53 166.13 214.69 166.85 214.17 L 167.66 213.59 C 168.37 213.08 168.54 212.08 168.02 211.36 C 167.51 210.65 166.51 210.48 165.79 211.00 Z M 164.98 211.58 L 164.16 212.17 C 163.45 212.69 163.28 213.68 163.80 214.40 C 164.31 215.12 165.31 215.28 166.03 214.76 L 166.85 214.17 C 167.56 213.66 167.72 212.66 167.21 211.94 C 166.69 211.23 165.70 211.07 164.98 211.58 Z M 164.16 212.17 L 163.34 212.77 C 162.62 213.28 162.46 214.28 162.98 215.00 C 163.49 215.71 164.49 215.87 165.21 215.36 L 166.03 214.76 C 166.75 214.24 166.91 213.25 166.39 212.53 C 165.87 211.82 164.88 211.65 164.16 212.17 Z M 163.33 212.77 L 162.51 213.37 C 161.79 213.89 161.63 214.89 162.15 215.60 C 162.67 216.32 163.67 216.47 164.38 215.96 L 165.21 215.35 C 165.93 214.84 166.08 213.84 165.57 213.12 C 165.05 212.41 164.05 212.25 163.33 212.77 Z M 162.50 213.37 L 161.67 213.98 C 160.96 214.50 160.80 215.50 161.32 216.21 C 161.84 216.92 162.84 217.08 163.56 216.56 L 164.39 215.95 C 165.10 215.43 165.26 214.43 164.74 213.72 C 164.22 213.01 163.22 212.85 162.50 213.37 Z M 161.67 213.98 L 160.84 214.59 C 160.13 215.11 159.97 216.11 160.50 216.82 C 161.02 217.53 162.02 217.69 162.73 217.16 L 163.56 216.56 C 164.27 216.03 164.43 215.03 163.90 214.32 C 163.38 213.61 162.38 213.46 161.67 213.98 Z M 160.84 214.59 L 160.01 215.20 C 159.30 215.72 159.15 216.72 159.67 217.43 C 160.19 218.14 161.19 218.29 161.90 217.77 L 162.73 217.16 C 163.44 216.64 163.59 215.64 163.07 214.93 C 162.55 214.22 161.55 214.07 160.84 214.59 Z M 160.01 215.20 L 159.19 215.80 C 158.48 216.32 158.33 217.32 158.85 218.03 C 159.37 218.75 160.37 218.90 161.08 218.37 L 161.90 217.77 C 162.61 217.25 162.77 216.25 162.24 215.54 C 161.72 214.83 160.72 214.67 160.01 215.20 Z M 159.19 215.80 L 158.38 216.40 C 157.67 216.92 157.52 217.92 158.04 218.63 C 158.56 219.34 159.56 219.49 160.27 218.97 L 161.08 218.37 C 161.79 217.85 161.95 216.85 161.42 216.14 C 160.90 215.43 159.90 215.28 159.19 215.80 Z M 158.38 216.39 L 157.59 216.98 C 156.88 217.50 156.72 218.50 157.25 219.21 C 157.77 219.92 158.77 220.07 159.48 219.55 L 160.27 218.97 C 160.98 218.45 161.14 217.45 160.62 216.74 C 160.09 216.03 159.09 215.87 158.38 216.39 Z M 157.59 216.97 L 156.82 217.54 C 156.11 218.06 155.95 219.06 156.47 219.77 C 156.99 220.48 157.99 220.64 158.70 220.12 L 159.48 219.55 C 160.19 219.03 160.34 218.04 159.82 217.32 C 159.31 216.61 158.31 216.45 157.59 216.97 Z M 156.83 217.53 L 156.01 218.12 C 155.30 218.64 155.14 219.64 155.65 220.35 C 156.17 221.07 157.17 221.23 157.88 220.71 L 158.70 220.12 C 159.41 219.60 159.57 218.61 159.06 217.89 C 158.54 217.18 157.54 217.02 156.83 217.53 Z M 156.02 218.12 L 155.15 218.74 C 154.43 219.26 154.26 220.25 154.78 220.97 C 155.29 221.69 156.29 221.85 157.01 221.34 L 157.88 220.71 C 158.59 220.20 158.76 219.20 158.25 218.49 C 157.73 217.77 156.74 217.60 156.02 218.12 Z M 155.15 218.74 L 154.31 219.33 C 153.59 219.84 153.42 220.84 153.93 221.56 C 154.44 222.28 155.44 222.45 156.16 221.94 L 157.00 221.34 C 157.72 220.83 157.89 219.84 157.38 219.12 C 156.87 218.40 155.87 218.23 155.15 218.74 Z M 154.32 219.33 L 153.51 219.90 C 152.78 220.40 152.61 221.40 153.12 222.12 C 153.62 222.84 154.62 223.02 155.34 222.51 L 156.15 221.94 C 156.87 221.44 157.05 220.44 156.54 219.72 C 156.04 219.00 155.04 218.82 154.32 219.33 Z M 153.51 219.90 L 152.72 220.45 C 152.00 220.95 151.82 221.94 152.32 222.67 C 152.82 223.39 153.82 223.57 154.54 223.07 L 155.33 222.52 C 156.06 222.01 156.24 221.02 155.73 220.29 C 155.23 219.57 154.24 219.39 153.51 219.90 Z M 152.72 220.44 L 151.95 220.98 C 151.22 221.48 151.04 222.47 151.54 223.20 C 152.04 223.92 153.04 224.11 153.76 223.61 L 154.54 223.07 C 155.26 222.57 155.44 221.57 154.94 220.85 C 154.44 220.12 153.45 219.94 152.72 220.44 Z M 151.95 220.98 L 151.16 221.52 C 150.43 222.02 150.25 223.01 150.75 223.74 C 151.25 224.47 152.24 224.65 152.96 224.15 L 153.76 223.61 C 154.48 223.11 154.67 222.12 154.17 221.39 C 153.67 220.66 152.68 220.48 151.95 220.98 Z M 151.16 221.52 L 150.32 222.09 C 149.60 222.59 149.41 223.58 149.90 224.31 C 150.40 225.04 151.39 225.22 152.12 224.73 L 152.96 224.15 C 153.69 223.66 153.88 222.66 153.38 221.94 C 152.88 221.21 151.89 221.02 151.16 221.52 Z M 150.33 222.09 L 149.49 222.66 C 148.77 223.15 148.58 224.14 149.07 224.87 C 149.56 225.60 150.55 225.79 151.28 225.29 L 152.12 224.73 C 152.84 224.24 153.03 223.24 152.54 222.52 C 152.05 221.79 151.06 221.60 150.33 222.09 Z M 149.50 222.65 L 148.67 223.21 C 147.94 223.70 147.75 224.69 148.24 225.42 C 148.73 226.15 149.72 226.34 150.45 225.85 L 151.28 225.30 C 152.01 224.81 152.20 223.82 151.71 223.09 C 151.22 222.36 150.23 222.16 149.50 222.65 Z M 148.68 223.20 L 147.86 223.75 C 147.12 224.24 146.92 225.22 147.41 225.96 C 147.90 226.69 148.88 226.89 149.61 226.40 L 150.44 225.86 C 151.17 225.37 151.37 224.38 150.89 223.65 C 150.40 222.92 149.41 222.72 148.68 223.20 Z M 147.87 223.75 L 147.04 224.29 C 146.31 224.77 146.10 225.75 146.58 226.48 C 147.06 227.22 148.05 227.43 148.78 226.95 L 149.60 226.41 C 150.34 225.93 150.55 224.94 150.06 224.21 C 149.58 223.47 148.60 223.27 147.87 223.75 Z M 147.05 224.28 L 146.22 224.82 C 145.48 225.29 145.27 226.27 145.74 227.01 C 146.21 227.75 147.20 227.96 147.93 227.49 L 148.77 226.95 C 149.51 226.48 149.72 225.49 149.25 224.76 C 148.77 224.02 147.79 223.81 147.05 224.28 Z M 146.23 224.81 L 145.39 225.34 C 144.65 225.81 144.43 226.79 144.89 227.53 C 145.36 228.27 146.34 228.49 147.08 228.03 L 147.92 227.49 C 148.66 227.03 148.88 226.05 148.42 225.31 C 147.95 224.57 146.97 224.35 146.23 224.81 Z M 145.40 225.33 L 144.56 225.86 C 143.81 226.31 143.58 227.29 144.04 228.03 C 144.49 228.78 145.47 229.01 146.21 228.55 L 147.06 228.03 C 147.81 227.58 148.04 226.60 147.58 225.85 C 147.13 225.11 146.15 224.88 145.40 225.33 Z M 144.57 225.85 L 143.72 226.36 C 142.97 226.81 142.72 227.78 143.17 228.53 C 143.62 229.28 144.59 229.52 145.34 229.08 L 146.20 228.56 C 146.95 228.12 147.19 227.14 146.74 226.39 C 146.30 225.64 145.32 225.40 144.57 225.85 Z M 143.74 226.35 L 142.87 226.85 C 142.11 227.29 141.85 228.25 142.29 229.01 C 142.72 229.77 143.69 230.03 144.45 229.59 L 145.32 229.09 C 146.07 228.65 146.33 227.68 145.90 226.93 C 145.46 226.17 144.49 225.91 143.74 226.35 Z M 142.89 226.84 L 142.02 227.32 C 141.26 227.75 140.98 228.71 141.41 229.47 C 141.83 230.23 142.79 230.51 143.56 230.08 L 144.42 229.60 C 145.19 229.18 145.46 228.21 145.04 227.45 C 144.61 226.69 143.65 226.42 142.89 226.84 Z M 142.04 227.31 L 141.18 227.77 C 140.41 228.19 140.12 229.14 140.53 229.91 C 140.95 230.68 141.90 230.97 142.67 230.56 L 143.53 230.09 C 144.30 229.68 144.59 228.73 144.18 227.96 C 143.77 227.19 142.81 226.90 142.04 227.31 Z M 141.20 227.76 L 140.32 228.22 C 139.55 228.62 139.24 229.57 139.64 230.34 C 140.04 231.12 140.99 231.42 141.77 231.02 L 142.65 230.57 C 143.42 230.17 143.73 229.22 143.33 228.44 C 142.93 227.67 141.98 227.36 141.20 227.76 Z M 140.34 228.21 L 139.45 228.65 C 138.67 229.04 138.35 229.99 138.74 230.77 C 139.12 231.55 140.07 231.87 140.85 231.48 L 141.75 231.03 C 142.53 230.64 142.84 229.70 142.46 228.92 C 142.07 228.14 141.12 227.82 140.34 228.21 Z M 139.47 228.64 L 138.55 229.08 C 137.77 229.46 137.44 230.40 137.81 231.18 C 138.19 231.97 139.13 232.30 139.92 231.92 L 140.83 231.49 C 141.61 231.11 141.95 230.17 141.57 229.38 C 141.19 228.60 140.25 228.27 139.47 228.64 Z M 138.57 229.07 L 137.64 229.50 C 136.85 229.87 136.51 230.80 136.87 231.59 C 137.24 232.38 138.17 232.73 138.96 232.36 L 139.89 231.93 C 140.69 231.57 141.03 230.63 140.67 229.84 C 140.30 229.05 139.36 228.71 138.57 229.07 Z M 137.66 229.49 L 136.78 229.89 C 135.98 230.24 135.63 231.17 135.98 231.97 C 136.33 232.76 137.26 233.12 138.06 232.76 L 138.94 232.37 C 139.74 232.02 140.10 231.09 139.74 230.29 C 139.39 229.50 138.46 229.14 137.66 229.49 Z M 136.80 229.88 L 135.91 230.26 C 135.11 230.61 134.74 231.53 135.08 232.33 C 135.42 233.13 136.35 233.50 137.15 233.15 L 138.04 232.77 C 138.84 232.43 139.21 231.50 138.86 230.71 C 138.52 229.91 137.60 229.54 136.80 229.88 Z M 135.93 230.26 L 135.02 230.63 C 134.22 230.96 133.83 231.88 134.17 232.69 C 134.50 233.49 135.42 233.87 136.22 233.54 L 137.13 233.16 C 137.93 232.83 138.31 231.91 137.98 231.11 C 137.65 230.31 136.73 229.92 135.93 230.26 Z M 135.04 230.63 L 134.11 231.00 C 133.30 231.32 132.91 232.23 133.23 233.04 C 133.55 233.84 134.46 234.24 135.27 233.91 L 136.20 233.54 C 137.01 233.22 137.40 232.31 137.08 231.50 C 136.76 230.70 135.84 230.30 135.04 230.63 Z M 134.13 230.99 L 133.17 231.36 C 132.36 231.67 131.96 232.57 132.27 233.38 C 132.58 234.19 133.49 234.60 134.30 234.29 L 135.25 233.92 C 136.06 233.61 136.46 232.70 136.15 231.89 C 135.84 231.08 134.93 230.68 134.13 230.99 Z M 133.19 231.35 L 132.21 231.71 C 131.40 232.01 130.99 232.91 131.29 233.73 C 131.59 234.54 132.49 234.95 133.30 234.65 L 134.28 234.29 C 135.09 233.99 135.50 233.09 135.20 232.28 C 134.90 231.47 134.00 231.05 133.19 231.35 Z M 132.23 231.71 L 131.28 232.05 C 130.47 232.34 130.04 233.23 130.33 234.05 C 130.62 234.86 131.52 235.29 132.33 235.00 L 133.28 234.66 C 134.10 234.37 134.52 233.47 134.23 232.66 C 133.94 231.84 133.05 231.42 132.23 231.71 Z M 131.30 232.04 L 130.35 232.37 C 129.53 232.65 129.10 233.54 129.38 234.36 C 129.66 235.17 130.55 235.61 131.36 235.33 L 132.31 235.00 C 133.13 234.72 133.57 233.83 133.29 233.01 C 133.00 232.20 132.11 231.76 131.30 232.04 Z M 130.36 232.36 L 129.40 232.68 C 128.58 232.95 128.14 233.84 128.41 234.66 C 128.68 235.48 129.57 235.92 130.39 235.65 L 131.35 235.33 C 132.17 235.06 132.61 234.17 132.34 233.35 C 132.07 232.53 131.18 232.09 130.36 232.36 Z M 129.42 232.68 L 128.45 232.99 C 127.63 233.25 127.18 234.13 127.44 234.95 C 127.71 235.78 128.59 236.23 129.41 235.97 L 130.37 235.66 C 131.20 235.39 131.65 234.51 131.38 233.69 C 131.12 232.87 130.24 232.41 129.42 232.68 Z M 128.47 232.98 L 127.51 233.28 C 126.68 233.54 126.22 234.41 126.48 235.24 C 126.73 236.06 127.61 236.52 128.43 236.27 L 129.39 235.97 C 130.22 235.71 130.68 234.84 130.42 234.01 C 130.17 233.19 129.29 232.73 128.47 232.98 Z M 127.52 233.28 L 126.57 233.56 C 125.74 233.81 125.27 234.68 125.52 235.51 C 125.77 236.33 126.64 236.80 127.46 236.56 L 128.42 236.27 C 129.24 236.02 129.71 235.15 129.46 234.33 C 129.22 233.50 128.35 233.03 127.52 233.28 Z M 126.59 233.56 L 125.64 233.83 C 124.81 234.07 124.33 234.93 124.57 235.76 C 124.80 236.59 125.67 237.07 126.50 236.83 L 127.45 236.56 C 128.28 236.32 128.76 235.46 128.52 234.63 C 128.28 233.80 127.42 233.32 126.59 233.56 Z M 125.66 233.83 L 124.64 234.10 C 123.81 234.33 123.32 235.19 123.55 236.02 C 123.77 236.85 124.63 237.34 125.46 237.12 L 126.48 236.84 C 127.31 236.61 127.80 235.75 127.57 234.92 C 127.35 234.09 126.49 233.60 125.66 233.83 Z M 124.66 234.10 L 123.67 234.36 C 122.83 234.57 122.33 235.43 122.55 236.26 C 122.77 237.10 123.62 237.60 124.46 237.38 L 125.45 237.12 C 126.28 236.90 126.78 236.05 126.56 235.22 C 126.34 234.38 125.49 233.88 124.66 234.10 Z M 123.68 234.35 L 122.72 234.59 C 121.88 234.80 121.37 235.65 121.58 236.49 C 121.78 237.32 122.63 237.83 123.47 237.62 L 124.44 237.38 C 125.27 237.17 125.78 236.33 125.58 235.49 C 125.37 234.65 124.52 234.14 123.68 234.35 Z M 122.73 234.59 L 121.78 234.82 C 120.94 235.02 120.42 235.86 120.62 236.70 C 120.82 237.53 121.66 238.05 122.50 237.85 L 123.45 237.63 C 124.29 237.43 124.81 236.59 124.61 235.75 C 124.41 234.91 123.57 234.39 122.73 234.59 Z M 121.79 234.81 L 120.85 235.03 C 120.01 235.22 119.48 236.05 119.67 236.90 C 119.87 237.74 120.70 238.26 121.54 238.07 L 122.48 237.86 C 123.33 237.67 123.85 236.83 123.66 235.99 C 123.47 235.15 122.63 234.62 121.79 234.81 Z M 120.86 235.02 L 119.91 235.23 C 119.07 235.42 118.53 236.25 118.72 237.09 C 118.90 237.93 119.73 238.47 120.58 238.28 L 121.53 238.07 C 122.37 237.89 122.91 237.06 122.72 236.22 C 122.54 235.37 121.71 234.84 120.86 235.02 Z M 119.92 235.23 L 118.91 235.44 C 118.07 235.62 117.53 236.45 117.71 237.29 C 117.88 238.14 118.71 238.68 119.56 238.50 L 120.57 238.29 C 121.41 238.11 121.95 237.28 121.77 236.44 C 121.59 235.59 120.76 235.05 119.92 235.23 Z M 118.92 235.44 L 117.92 235.65 C 117.08 235.82 116.53 236.64 116.71 237.49 C 116.88 238.33 117.70 238.88 118.55 238.70 L 119.55 238.50 C 120.39 238.33 120.94 237.50 120.76 236.66 C 120.59 235.81 119.77 235.27 118.92 235.44 Z M 117.93 235.64 L 116.95 235.84 C 116.10 236.01 115.55 236.83 115.72 237.67 C 115.89 238.52 116.71 239.07 117.55 238.90 L 118.54 238.71 C 119.38 238.54 119.93 237.72 119.77 236.87 C 119.60 236.03 118.78 235.48 117.93 235.64 Z M 116.96 235.84 L 115.99 236.02 C 115.14 236.19 114.59 237.00 114.75 237.85 C 114.91 238.70 115.73 239.25 116.58 239.09 L 117.55 238.90 C 118.39 238.74 118.95 237.92 118.78 237.08 C 118.62 236.23 117.80 235.67 116.96 235.84 Z M 116.00 236.02 L 115.05 236.20 C 114.20 236.36 113.64 237.17 113.80 238.02 C 113.96 238.87 114.78 239.43 115.63 239.27 L 116.57 239.09 C 117.42 238.93 117.98 238.12 117.82 237.27 C 117.66 236.42 116.84 235.86 116.00 236.02 Z M 115.06 236.20 L 114.02 236.39 C 113.18 236.54 112.61 237.35 112.77 238.20 C 112.92 239.05 113.74 239.61 114.59 239.46 L 115.62 239.27 C 116.47 239.11 117.03 238.30 116.87 237.45 C 116.72 236.60 115.91 236.04 115.06 236.20 Z M 114.03 236.38 L 113.01 236.57 C 112.16 236.72 111.59 237.53 111.75 238.38 C 111.90 239.22 112.71 239.79 113.56 239.64 L 114.58 239.46 C 115.43 239.31 115.99 238.50 115.84 237.65 C 115.69 236.80 114.88 236.23 114.03 236.38 Z M 113.02 236.56 L 112.03 236.73 C 111.18 236.88 110.61 237.69 110.76 238.54 C 110.90 239.39 111.71 239.96 112.56 239.81 L 113.55 239.64 C 114.40 239.50 114.97 238.69 114.82 237.84 C 114.68 236.99 113.87 236.42 113.02 236.56 Z M 112.04 236.73 L 111.09 236.89 C 110.24 237.03 109.66 237.83 109.80 238.69 C 109.95 239.54 110.75 240.11 111.60 239.97 L 112.55 239.81 C 113.40 239.67 113.98 238.87 113.84 238.02 C 113.69 237.17 112.89 236.59 112.04 236.73 Z M 111.10 236.89 L 110.16 237.04 C 109.31 237.17 108.73 237.97 108.87 238.82 C 109.00 239.68 109.80 240.26 110.65 240.12 L 111.59 239.97 C 112.44 239.84 113.02 239.04 112.89 238.19 C 112.75 237.33 111.95 236.75 111.10 236.89 Z M 110.18 237.04 L 109.12 237.19 C 108.27 237.32 107.68 238.12 107.81 238.97 C 107.94 239.82 108.73 240.41 109.59 240.28 L 110.64 240.12 C 111.49 239.99 112.08 239.20 111.95 238.35 C 111.82 237.49 111.03 236.91 110.18 237.04 Z M 109.14 237.19 L 108.13 237.33 C 107.28 237.45 106.68 238.24 106.80 239.09 C 106.92 239.94 107.71 240.54 108.56 240.42 L 109.57 240.28 C 110.42 240.17 111.02 239.38 110.90 238.52 C 110.78 237.67 109.99 237.07 109.14 237.19 Z M 108.16 237.33 L 107.20 237.44 C 106.34 237.55 105.73 238.33 105.84 239.18 C 105.94 240.04 106.72 240.65 107.58 240.54 L 108.54 240.43 C 109.39 240.32 110.00 239.54 109.90 238.69 C 109.79 237.83 109.01 237.22 108.16 237.33 Z M 107.23 237.44 L 106.29 237.54 C 105.43 237.62 104.80 238.39 104.89 239.25 C 104.97 240.10 105.74 240.73 106.60 240.64 L 107.54 240.55 C 108.40 240.46 109.03 239.69 108.94 238.84 C 108.85 237.98 108.09 237.35 107.23 237.44 Z M 106.32 237.53 L 105.30 237.61 C 104.44 237.67 103.80 238.42 103.86 239.28 C 103.93 240.14 104.68 240.79 105.54 240.72 L 106.56 240.65 C 107.42 240.58 108.06 239.83 108.00 238.97 C 107.93 238.11 107.18 237.47 106.32 237.53 Z M 105.33 237.61 L 104.35 237.66 C 103.49 237.71 102.83 238.45 102.87 239.31 C 102.92 240.17 103.66 240.83 104.52 240.78 L 105.51 240.73 C 106.37 240.68 107.03 239.94 106.98 239.08 C 106.93 238.22 106.19 237.56 105.33 237.61 Z M 104.36 237.66 L 103.39 237.70 C 102.53 237.74 101.86 238.47 101.90 239.33 C 101.93 240.19 102.66 240.86 103.52 240.82 L 104.50 240.78 C 105.36 240.74 106.03 240.01 105.99 239.15 C 105.95 238.29 105.23 237.62 104.36 237.66 Z M 103.39 237.70 L 102.44 237.74 C 101.58 237.78 100.91 238.50 100.94 239.36 C 100.98 240.22 101.70 240.90 102.57 240.86 L 103.52 240.82 C 104.38 240.79 105.05 240.06 105.02 239.20 C 104.98 238.34 104.26 237.67 103.39 237.70 Z M 102.45 237.74 L 101.48 237.77 C 100.61 237.80 99.94 238.52 99.97 239.38 C 99.99 240.25 100.72 240.92 101.58 240.89 L 102.55 240.86 C 103.42 240.83 104.09 240.11 104.06 239.25 C 104.04 238.39 103.31 237.71 102.45 237.74 Z M 101.50 237.77 L 100.47 237.79 C 99.61 237.81 98.92 238.52 98.94 239.38 C 98.96 240.25 99.67 240.93 100.53 240.91 L 101.56 240.89 C 102.42 240.88 103.10 240.17 103.09 239.30 C 103.07 238.44 102.36 237.76 101.50 237.77 Z M 100.50 237.79 L 99.47 237.79 C 98.61 237.79 97.91 238.49 97.92 239.36 C 97.92 240.22 98.62 240.92 99.48 240.92 L 100.50 240.91 C 101.37 240.91 102.06 240.21 102.06 239.35 C 102.06 238.49 101.36 237.79 100.50 237.79 Z M 99.52 237.79 L 98.53 237.77 C 97.67 237.74 96.95 238.42 96.92 239.28 C 96.90 240.14 97.58 240.86 98.44 240.89 L 99.43 240.91 C 100.29 240.94 101.01 240.26 101.04 239.40 C 101.06 238.54 100.38 237.82 99.52 237.79 Z M 98.62 237.77 L 97.61 237.68 C 96.75 237.61 95.99 238.25 95.92 239.11 C 95.85 239.97 96.49 240.72 97.34 240.80 L 98.35 240.88 C 99.21 240.95 99.97 240.32 100.04 239.46 C 100.11 238.60 99.47 237.84 98.62 237.77 Z M 97.74 237.70 L 96.74 237.53 C 95.89 237.39 95.09 237.96 94.94 238.81 C 94.80 239.66 95.37 240.47 96.22 240.61 L 97.21 240.78 C 98.06 240.92 98.87 240.35 99.02 239.50 C 99.16 238.65 98.59 237.85 97.74 237.70 Z M 96.92 237.57 L 95.98 237.30 C 95.15 237.05 94.28 237.53 94.04 238.36 C 93.80 239.18 94.27 240.05 95.10 240.29 L 96.04 240.57 C 96.87 240.81 97.74 240.34 97.98 239.51 C 98.22 238.68 97.75 237.82 96.92 237.57 Z M 96.20 237.38 L 95.33 236.98 C 94.55 236.61 93.62 236.95 93.26 237.73 C 92.89 238.51 93.23 239.44 94.01 239.81 L 94.88 240.21 C 95.66 240.57 96.59 240.24 96.95 239.45 C 97.32 238.67 96.98 237.74 96.20 237.38 Z M 95.57 237.11 L 94.77 236.56 C 94.07 236.06 93.09 236.23 92.60 236.93 C 92.10 237.64 92.27 238.61 92.98 239.11 L 93.77 239.67 C 94.48 240.16 95.45 239.99 95.95 239.29 C 96.44 238.58 96.27 237.61 95.57 237.11 Z M 95.00 236.75 L 94.29 236.01 C 93.69 235.39 92.70 235.37 92.08 235.97 C 91.46 236.57 91.44 237.56 92.04 238.18 L 92.75 238.92 C 93.35 239.54 94.34 239.55 94.96 238.96 C 95.58 238.36 95.60 237.37 95.00 236.75 Z M 94.47 236.23 L 93.90 235.38 C 93.42 234.66 92.45 234.46 91.73 234.94 C 91.02 235.42 90.82 236.39 91.30 237.11 L 91.87 237.96 C 92.34 238.68 93.31 238.87 94.03 238.40 C 94.75 237.92 94.94 236.95 94.47 236.23 Z M 94.01 235.57 L 93.59 234.70 C 93.22 233.93 92.29 233.60 91.51 233.97 C 90.74 234.34 90.41 235.27 90.78 236.05 L 91.19 236.91 C 91.56 237.69 92.49 238.02 93.27 237.65 C 94.05 237.28 94.38 236.35 94.01 235.57 Z M 93.66 234.87 L 93.33 233.92 C 93.05 233.10 92.17 232.67 91.35 232.95 C 90.54 233.23 90.10 234.12 90.38 234.93 L 90.71 235.88 C 90.99 236.70 91.88 237.13 92.69 236.85 C 93.51 236.57 93.94 235.68 93.66 234.87 Z M 93.38 234.08 L 93.15 233.08 C 92.96 232.23 92.13 231.71 91.29 231.90 C 90.45 232.09 89.92 232.92 90.11 233.76 L 90.34 234.77 C 90.53 235.61 91.36 236.14 92.20 235.95 C 93.04 235.76 93.57 234.92 93.38 234.08 Z M 93.18 233.25 L 93.07 232.23 C 92.98 231.37 92.20 230.75 91.35 230.85 C 90.49 230.94 89.87 231.71 89.97 232.57 L 90.08 233.59 C 90.17 234.45 90.94 235.07 91.80 234.97 C 92.66 234.88 93.28 234.11 93.18 233.25 Z M 93.08 232.43 L 93.10 231.42 C 93.11 230.55 92.43 229.84 91.56 229.83 C 90.70 229.81 89.99 230.50 89.98 231.36 L 89.96 232.37 C 89.94 233.23 90.63 233.94 91.49 233.96 C 92.35 233.97 93.06 233.29 93.08 232.43 Z M 93.08 231.63 L 93.23 230.64 C 93.37 229.79 92.78 228.99 91.93 228.86 C 91.08 228.72 90.28 229.30 90.15 230.16 L 89.99 231.15 C 89.86 232.00 90.44 232.80 91.30 232.93 C 92.15 233.06 92.95 232.48 93.08 231.63 Z M 93.19 230.82 L 93.46 229.86 C 93.69 229.03 93.21 228.17 92.38 227.94 C 91.55 227.71 90.69 228.19 90.45 229.02 L 90.19 229.98 C 89.96 230.81 90.44 231.67 91.27 231.90 C 92.10 232.13 92.96 231.65 93.19 230.82 Z M 93.42 229.99 L 93.77 229.06 C 94.07 228.25 93.66 227.35 92.86 227.05 C 92.05 226.75 91.15 227.16 90.85 227.96 L 90.50 228.89 C 90.19 229.70 90.60 230.60 91.41 230.90 C 92.22 231.21 93.12 230.80 93.42 229.99 Z M 93.74 229.14 L 94.14 228.23 C 94.49 227.44 94.13 226.52 93.34 226.17 C 92.55 225.82 91.63 226.18 91.28 226.97 L 90.88 227.88 C 90.53 228.67 90.89 229.59 91.68 229.94 C 92.47 230.29 93.39 229.93 93.74 229.14 Z M 94.12 228.26 L 94.44 227.59 C 94.80 226.81 94.46 225.88 93.68 225.52 C 92.90 225.15 91.97 225.49 91.61 226.27 L 91.29 226.94 C 90.93 227.72 91.27 228.65 92.05 229.01 C 92.83 229.38 93.76 229.04 94.12 228.26 Z"
      fill="black"
      fill-rule="nonzero" /></svg>