<svg xmlns="http://www.w3.org/2000/svg" width="300" height="300" viewBox="0 0 300 300">
<path d="M 114.02 97.71 L 112.98 97.77 C 112.10 97.82 111.43 98.57 111.48 99.45 C 111.52 100.33 112.28 101.01 113.16 100.96 L 114.19 100.91 C 115.08 100.86 115.75 100.10 115.70 99.22 C 115.66 98.34 114.90 97.66 114.02 97.71 Z M 112.81 97.78 L 111.83 97.94 C 110.95 98.09 110.36 98.91 110.50 99.79 C 110.65 100.66 111.47 101.26 112.35 101.11 L 113.33 100.95 C 114.21 100.81 114.80 99.98 114.66 99.10 C 114.51 98.23 113.69 97.63 112.81 97.78 Z M 111.46 98.04 L 110.58 98.41 C 109.76 98.76 109.37 99.71 109.72 100.53 C 110.07 101.35 111.02 101.74 111.84 101.39 L 112.72 101.02 C 113.54 100.67 113.93 99.72 113.58 98.89 C 113.23 98.07 112.28 97.69 111.46 98.04 Z M 110.11 98.70 L 109.45 99.30 C 108.79 99.91 108.74 100.94 109.35 101.60 C 109.95 102.26 110.98 102.31 111.65 101.70 L 112.31 101.10 C 112.97 100.50 113.01 99.47 112.41 98.80 C 111.80 98.14 110.78 98.10 110.11 98.70 Z M 109.17 99.64 L 108.68 100.42 C 108.20 101.18 108.43 102.19 109.20 102.67 C 109.96 103.14 110.97 102.91 111.44 102.15 L 111.93 101.37 C 112.41 100.60 112.18 99.60 111.41 99.12 C 110.65 98.64 109.64 98.88 109.17 99.64 Z M 108.55 100.66 L 108.16 101.60 C 107.81 102.43 108.21 103.39 109.04 103.73 C 109.88 104.08 110.84 103.68 111.18 102.85 L 111.57 101.91 C 111.92 101.08 111.52 100.12 110.69 99.77 C 109.85 99.43 108.90 99.82 108.55 100.66 Z M 108.10 101.76 L 107.79 102.79 C 107.53 103.66 108.03 104.57 108.89 104.83 C 109.76 105.09 110.68 104.60 110.94 103.73 L 111.24 102.69 C 111.50 101.82 111.01 100.91 110.14 100.65 C 109.27 100.39 108.36 100.89 108.10 101.76 Z M 107.76 102.89 L 107.53 103.89 C 107.33 104.77 107.88 105.66 108.77 105.86 C 109.65 106.06 110.54 105.51 110.74 104.62 L 110.97 103.63 C 111.17 102.74 110.61 101.86 109.73 101.66 C 108.84 101.45 107.96 102.01 107.76 102.89 Z M 107.52 103.96 L 107.35 104.87 C 107.18 105.77 107.77 106.63 108.67 106.79 C 109.56 106.96 110.42 106.36 110.59 105.47 L 110.75 104.55 C 110.92 103.66 110.33 102.80 109.43 102.64 C 108.54 102.47 107.68 103.06 107.52 103.96 Z M 107.34 104.93 L 107.19 105.87 C 107.06 106.77 107.68 107.61 108.58 107.75 C 109.48 107.88 110.32 107.26 110.45 106.36 L 110.60 105.41 C 110.73 104.51 110.11 103.68 109.21 103.54 C 108.31 103.41 107.47 104.03 107.34 104.93 Z M 107.19 105.92 L 107.06 106.92 C 106.95 107.82 107.60 108.64 108.50 108.75 C 109.40 108.87 110.23 108.22 110.34 107.32 L 110.46 106.32 C 110.57 105.41 109.93 104.59 109.03 104.48 C 108.12 104.37 107.30 105.01 107.19 105.92 Z M 107.06 106.95 L 106.95 108.01 C 106.85 108.92 107.51 109.73 108.42 109.83 C 109.33 109.92 110.14 109.26 110.23 108.36 L 110.34 107.29 C 110.44 106.38 109.78 105.57 108.87 105.47 C 107.97 105.38 107.15 106.04 107.06 106.95 Z M 106.94 108.03 L 106.85 109.01 C 106.77 109.92 107.44 110.73 108.34 110.81 C 109.25 110.90 110.06 110.23 110.14 109.32 L 110.23 108.34 C 110.32 107.43 109.65 106.63 108.74 106.54 C 107.84 106.46 107.03 107.12 106.94 108.03 Z M 106.85 109.02 L 106.77 109.90 C 106.69 110.81 107.37 111.61 108.28 111.69 C 109.19 111.77 109.99 111.10 110.07 110.19 L 110.14 109.31 C 110.22 108.40 109.55 107.60 108.64 107.52 C 107.73 107.44 106.93 108.11 106.85 109.02 Z M 106.77 109.91 L 106.70 110.84 C 106.62 111.75 107.30 112.55 108.20 112.62 C 109.11 112.70 109.91 112.03 109.99 111.12 L 110.07 110.19 C 110.14 109.28 109.47 108.48 108.56 108.40 C 107.65 108.33 106.85 109.00 106.77 109.91 Z M 106.70 110.84 L 106.62 111.82 C 106.54 112.73 107.22 113.53 108.13 113.60 C 109.04 113.68 109.84 113.00 109.91 112.09 L 109.99 111.11 C 110.06 110.20 109.39 109.40 108.48 109.33 C 107.57 109.26 106.77 109.94 106.70 110.84 Z M 106.62 111.83 L 106.54 112.85 C 106.46 113.76 107.14 114.56 108.05 114.63 C 108.96 114.70 109.76 114.02 109.83 113.11 L 109.91 112.09 C 109.98 111.18 109.30 110.38 108.39 110.31 C 107.48 110.24 106.69 110.92 106.62 111.83 Z M 106.54 112.86 L 106.45 113.93 C 106.38 114.84 107.06 115.63 107.97 115.70 C 108.88 115.77 109.68 115.09 109.75 114.18 L 109.83 113.11 C 109.90 112.20 109.22 111.40 108.31 111.33 C 107.40 111.27 106.61 111.95 106.54 112.86 Z M 106.45 113.93 L 106.37 115.05 C 106.30 115.96 106.98 116.75 107.89 116.82 C 108.80 116.89 109.60 116.21 109.66 115.30 L 109.75 114.18 C 109.82 113.27 109.14 112.48 108.23 112.41 C 107.32 112.34 106.52 113.02 106.45 113.93 Z M 106.37 115.05 L 106.29 116.06 C 106.22 116.97 106.91 117.76 107.82 117.83 C 108.73 117.89 109.52 117.21 109.59 116.30 L 109.66 115.30 C 109.73 114.39 109.05 113.59 108.14 113.53 C 107.23 113.46 106.44 114.14 106.37 115.05 Z M 106.29 116.06 L 106.22 117.00 C 106.15 117.91 106.84 118.71 107.75 118.77 C 108.66 118.84 109.45 118.16 109.52 117.25 L 109.59 116.30 C 109.66 115.39 108.97 114.60 108.06 114.53 C 107.15 114.46 106.36 115.15 106.29 116.06 Z M 106.22 117.00 L 106.15 117.97 C 106.08 118.88 106.77 119.68 107.68 119.74 C 108.59 119.81 109.38 119.13 109.45 118.22 L 109.52 117.25 C 109.59 116.34 108.90 115.54 107.99 115.48 C 107.08 115.41 106.29 116.09 106.22 117.00 Z M 106.15 117.97 L 106.08 118.96 C 106.01 119.87 106.70 120.67 107.61 120.73 C 108.52 120.80 109.31 120.11 109.38 119.20 L 109.45 118.21 C 109.52 117.30 108.83 116.51 107.92 116.44 C 107.01 116.38 106.22 117.06 106.15 117.97 Z M 106.08 118.96 L 106.00 119.97 C 105.94 120.88 106.62 121.67 107.54 121.74 C 108.45 121.80 109.24 121.12 109.31 120.21 L 109.38 119.20 C 109.44 118.29 108.76 117.50 107.85 117.43 C 106.93 117.37 106.14 118.05 106.08 118.96 Z M 106.00 119.97 L 105.93 120.99 C 105.87 121.90 106.55 122.69 107.46 122.76 C 108.38 122.82 109.17 122.13 109.23 121.22 L 109.31 120.20 C 109.37 119.29 108.68 118.50 107.77 118.43 C 106.86 118.37 106.07 119.06 106.00 119.97 Z M 105.93 120.99 L 105.86 122.02 C 105.79 122.93 106.48 123.72 107.39 123.78 C 108.31 123.85 109.10 123.16 109.16 122.25 L 109.23 121.22 C 109.30 120.31 108.61 119.52 107.70 119.45 C 106.79 119.39 105.99 120.08 105.93 120.99 Z M 105.86 122.02 L 105.79 123.05 C 105.72 123.97 106.41 124.76 107.33 124.82 C 108.24 124.88 109.03 124.19 109.09 123.28 L 109.16 122.24 C 109.23 121.33 108.54 120.54 107.62 120.48 C 106.71 120.42 105.92 121.11 105.86 122.02 Z M 105.79 123.05 L 105.72 124.09 C 105.65 125.01 106.35 125.80 107.26 125.86 C 108.17 125.92 108.96 125.23 109.02 124.31 L 109.09 123.28 C 109.15 122.36 108.46 121.57 107.55 121.51 C 106.64 121.45 105.85 122.14 105.79 123.05 Z M 105.72 124.09 L 105.65 125.09 C 105.59 126.00 106.28 126.79 107.20 126.85 C 108.11 126.91 108.90 126.22 108.96 125.30 L 109.02 124.31 C 109.08 123.40 108.39 122.61 107.48 122.55 C 106.56 122.49 105.78 123.18 105.72 124.09 Z M 105.65 125.09 L 105.59 126.08 C 105.53 126.99 106.22 127.78 107.13 127.84 C 108.05 127.90 108.84 127.21 108.90 126.29 L 108.96 125.30 C 109.02 124.39 108.33 123.60 107.41 123.54 C 106.50 123.48 105.71 124.18 105.65 125.09 Z M 105.59 126.08 L 105.52 127.07 C 105.46 127.99 106.16 128.78 107.07 128.83 C 107.99 128.89 108.78 128.20 108.83 127.28 L 108.90 126.29 C 108.95 125.38 108.26 124.59 107.35 124.53 C 106.43 124.47 105.64 125.17 105.59 126.08 Z M 105.52 127.07 L 105.46 128.07 C 105.40 128.98 106.09 129.77 107.01 129.83 C 107.92 129.89 108.71 129.19 108.77 128.28 L 108.83 127.28 C 108.89 126.37 108.20 125.58 107.28 125.52 C 106.37 125.47 105.58 126.16 105.52 127.07 Z M 105.46 128.07 L 105.39 129.06 C 105.34 129.98 106.03 130.77 106.95 130.83 C 107.86 130.88 108.65 130.19 108.71 129.27 L 108.77 128.28 C 108.83 127.36 108.14 126.58 107.22 126.52 C 106.31 126.46 105.52 127.15 105.46 128.07 Z M 105.39 129.06 L 105.33 130.06 C 105.27 130.97 105.96 131.76 106.88 131.82 C 107.79 131.88 108.58 131.19 108.64 130.27 L 108.71 129.28 C 108.77 128.36 108.07 127.57 107.16 127.51 C 106.24 127.45 105.45 128.15 105.39 129.06 Z M 105.33 130.06 L 105.26 131.06 C 105.20 131.97 105.90 132.77 106.81 132.83 C 107.73 132.89 108.52 132.19 108.58 131.28 L 108.64 130.28 C 108.70 129.36 108.01 128.57 107.10 128.51 C 106.18 128.45 105.39 129.14 105.33 130.06 Z M 105.26 131.06 L 105.19 132.06 C 105.13 132.98 105.82 133.77 106.74 133.83 C 107.65 133.89 108.45 133.20 108.51 132.29 L 108.58 131.28 C 108.64 130.37 107.95 129.57 107.03 129.51 C 106.12 129.45 105.33 130.14 105.26 131.06 Z M 105.19 132.06 L 105.12 133.07 C 105.06 133.98 105.75 134.78 106.66 134.84 C 107.58 134.90 108.37 134.22 108.44 133.30 L 108.51 132.29 C 108.57 131.38 107.88 130.58 106.97 130.52 C 106.05 130.45 105.26 131.14 105.19 132.06 Z M 105.12 133.06 L 105.05 134.05 C 104.99 134.96 105.67 135.76 106.59 135.83 C 107.50 135.89 108.30 135.21 108.37 134.29 L 108.44 133.30 C 108.50 132.39 107.82 131.59 106.90 131.53 C 105.99 131.46 105.19 132.15 105.12 133.06 Z M 105.05 134.05 L 104.98 135.03 C 104.91 135.95 105.60 136.74 106.51 136.81 C 107.42 136.88 108.22 136.20 108.29 135.28 L 108.36 134.29 C 108.43 133.38 107.75 132.58 106.83 132.51 C 105.92 132.45 105.12 133.13 105.05 134.05 Z M 104.98 135.03 L 104.90 136.02 C 104.83 136.93 105.52 137.73 106.43 137.80 C 107.34 137.87 108.14 137.19 108.21 136.27 L 108.29 135.28 C 108.36 134.37 107.68 133.57 106.76 133.50 C 105.85 133.43 105.05 134.11 104.98 135.03 Z M 104.91 136.02 L 104.83 137.01 C 104.75 137.92 105.44 138.72 106.35 138.79 C 107.26 138.86 108.06 138.18 108.13 137.27 L 108.21 136.28 C 108.28 135.36 107.60 134.57 106.69 134.49 C 105.78 134.42 104.98 135.10 104.91 136.02 Z M 104.83 137.01 L 104.75 138.00 C 104.67 138.92 105.35 139.71 106.27 139.79 C 107.18 139.86 107.98 139.18 108.05 138.27 L 108.13 137.27 C 108.20 136.36 107.52 135.56 106.61 135.49 C 105.70 135.42 104.90 136.09 104.83 137.01 Z M 104.75 138.00 L 104.67 139.00 C 104.59 139.91 105.27 140.71 106.18 140.79 C 107.09 140.86 107.89 140.18 107.97 139.27 L 108.05 138.27 C 108.12 137.36 107.45 136.56 106.53 136.49 C 105.62 136.41 104.82 137.09 104.75 138.00 Z M 104.67 139.00 L 104.59 140.00 C 104.51 140.91 105.19 141.71 106.10 141.79 C 107.01 141.86 107.81 141.19 107.88 140.28 L 107.97 139.27 C 108.04 138.36 107.36 137.56 106.45 137.49 C 105.54 137.41 104.74 138.09 104.67 139.00 Z M 104.59 140.00 L 104.50 141.01 C 104.43 141.92 105.10 142.72 106.01 142.79 C 106.92 142.87 107.72 142.19 107.80 141.28 L 107.88 140.28 C 107.96 139.37 107.28 138.57 106.37 138.49 C 105.46 138.42 104.66 139.09 104.59 140.00 Z M 104.50 141.01 L 104.42 142.01 C 104.34 142.92 105.02 143.72 105.93 143.80 C 106.84 143.87 107.64 143.20 107.71 142.29 L 107.80 141.28 C 107.87 140.37 107.20 139.57 106.29 139.50 C 105.38 139.42 104.58 140.10 104.50 141.01 Z M 104.42 142.01 L 104.34 143.01 C 104.26 143.92 104.94 144.72 105.84 144.79 C 106.75 144.87 107.55 144.20 107.63 143.29 L 107.71 142.29 C 107.79 141.38 107.11 140.58 106.20 140.51 C 105.30 140.43 104.50 141.10 104.42 142.01 Z M 104.34 143.01 L 104.25 144.00 C 104.18 144.91 104.85 145.71 105.76 145.78 C 106.67 145.86 107.47 145.18 107.54 144.28 L 107.63 143.29 C 107.70 142.38 107.03 141.58 106.12 141.51 C 105.21 141.43 104.41 142.10 104.34 143.01 Z M 104.25 144.00 L 104.17 144.99 C 104.09 145.90 104.77 146.70 105.68 146.77 C 106.58 146.85 107.38 146.17 107.46 145.27 L 107.54 144.28 C 107.62 143.37 106.95 142.57 106.04 142.49 C 105.13 142.42 104.33 143.09 104.25 144.00 Z M 104.17 144.99 L 104.09 145.98 C 104.01 146.89 104.68 147.69 105.59 147.76 C 106.50 147.84 107.30 147.17 107.37 146.26 L 107.46 145.27 C 107.54 144.36 106.86 143.56 105.95 143.48 C 105.05 143.41 104.25 144.08 104.17 144.99 Z M 104.09 145.98 L 104.00 146.97 C 103.93 147.88 104.60 148.68 105.51 148.76 C 106.41 148.83 107.21 148.16 107.29 147.25 L 107.37 146.26 C 107.45 145.35 106.78 144.55 105.87 144.48 C 104.96 144.40 104.17 145.07 104.09 145.98 Z M 104.00 146.97 L 103.92 147.97 C 103.84 148.87 104.51 149.67 105.42 149.75 C 106.32 149.83 107.12 149.16 107.20 148.25 L 107.29 147.26 C 107.37 146.35 106.70 145.55 105.79 145.47 C 104.88 145.39 104.08 146.06 104.00 146.97 Z M 103.92 147.96 L 103.83 148.96 C 103.75 149.87 104.42 150.67 105.33 150.75 C 106.23 150.83 107.03 150.16 107.11 149.25 L 107.20 148.25 C 107.28 147.35 106.61 146.55 105.70 146.47 C 104.80 146.39 104.00 147.06 103.92 147.96 Z M 103.83 148.96 L 103.74 149.96 C 103.66 150.87 104.33 151.67 105.23 151.75 C 106.14 151.83 106.94 151.16 107.02 150.26 L 107.11 149.26 C 107.20 148.35 106.53 147.55 105.62 147.47 C 104.71 147.38 103.91 148.05 103.83 148.96 Z M 103.74 149.96 L 103.65 150.96 C 103.56 151.87 104.23 152.67 105.14 152.75 C 106.04 152.84 106.85 152.17 106.93 151.26 L 107.02 150.26 C 107.11 149.35 106.44 148.55 105.53 148.47 C 104.63 148.38 103.82 149.05 103.74 149.96 Z M 103.65 150.96 L 103.55 151.96 C 103.47 152.87 104.13 153.67 105.04 153.76 C 105.95 153.84 106.75 153.18 106.84 152.27 L 106.93 151.27 C 107.02 150.36 106.35 149.56 105.44 149.47 C 104.54 149.39 103.73 150.05 103.65 150.96 Z M 103.55 151.96 L 103.46 152.95 C 103.37 153.85 104.03 154.66 104.94 154.75 C 105.85 154.83 106.65 154.17 106.74 153.26 L 106.83 152.28 C 106.92 151.37 106.26 150.56 105.35 150.48 C 104.45 150.39 103.64 151.05 103.55 151.96 Z M 103.46 152.94 L 103.36 153.93 C 103.27 154.84 103.93 155.64 104.84 155.73 C 105.74 155.82 106.55 155.16 106.64 154.25 L 106.74 153.27 C 106.83 152.36 106.17 151.56 105.26 151.47 C 104.36 151.38 103.55 152.04 103.46 152.94 Z M 103.36 153.93 L 103.26 154.92 C 103.17 155.82 103.83 156.63 104.74 156.72 C 105.64 156.81 106.45 156.15 106.54 155.25 L 106.64 154.26 C 106.73 153.35 106.07 152.55 105.17 152.45 C 104.26 152.36 103.45 153.02 103.36 153.93 Z M 103.26 154.91 L 103.16 155.91 C 103.07 156.81 103.73 157.62 104.63 157.71 C 105.54 157.80 106.34 157.15 106.44 156.24 L 106.54 155.25 C 106.63 154.35 105.97 153.54 105.07 153.44 C 104.17 153.35 103.36 154.01 103.26 154.91 Z M 103.16 155.90 L 103.06 156.90 C 102.97 157.80 103.62 158.61 104.53 158.70 C 105.43 158.80 106.24 158.14 106.33 157.24 L 106.44 156.24 C 106.53 155.34 105.87 154.53 104.97 154.44 C 104.07 154.34 103.26 155.00 103.16 155.90 Z M 103.06 156.90 L 102.96 157.89 C 102.86 158.79 103.52 159.60 104.42 159.70 C 105.32 159.79 106.13 159.14 106.23 158.24 L 106.33 157.24 C 106.43 156.34 105.77 155.53 104.87 155.43 C 103.97 155.34 103.16 155.99 103.06 156.90 Z M 102.96 157.89 L 102.85 158.89 C 102.75 159.79 103.41 160.60 104.31 160.70 C 105.21 160.79 106.02 160.14 106.12 159.24 L 106.23 158.24 C 106.32 157.33 105.67 156.52 104.76 156.43 C 103.86 156.33 103.05 156.99 102.96 157.89 Z M 102.85 158.89 L 102.74 159.89 C 102.65 160.79 103.30 161.60 104.20 161.70 C 105.11 161.79 105.92 161.14 106.01 160.24 L 106.12 159.24 C 106.22 158.33 105.56 157.52 104.66 157.43 C 103.76 157.33 102.95 157.98 102.85 158.89 Z M 102.75 159.89 L 102.64 160.89 C 102.54 161.79 103.19 162.60 104.10 162.70 C 105.00 162.79 105.81 162.14 105.90 161.24 L 106.01 160.24 C 106.11 159.33 105.46 158.52 104.55 158.43 C 103.65 158.33 102.84 158.98 102.75 159.89 Z M 102.64 160.89 L 102.53 161.89 C 102.43 162.79 103.09 163.60 103.99 163.70 C 104.89 163.80 105.70 163.14 105.80 162.24 L 105.90 161.24 C 106.00 160.34 105.35 159.53 104.45 159.43 C 103.54 159.33 102.74 159.99 102.64 160.89 Z M 102.53 161.89 L 102.43 162.87 C 102.33 163.78 102.98 164.58 103.88 164.68 C 104.78 164.78 105.59 164.13 105.69 163.22 L 105.80 162.24 C 105.89 161.34 105.24 160.53 104.34 160.43 C 103.44 160.34 102.63 160.99 102.53 161.89 Z M 102.43 162.87 L 102.32 163.86 C 102.22 164.76 102.88 165.57 103.78 165.67 C 104.68 165.76 105.49 165.11 105.58 164.21 L 105.69 163.22 C 105.79 162.32 105.13 161.51 104.23 161.42 C 103.33 161.32 102.52 161.97 102.43 162.87 Z M 102.32 163.86 L 102.21 164.85 C 102.12 165.75 102.77 166.56 103.67 166.65 C 104.57 166.75 105.38 166.10 105.48 165.20 L 105.58 164.21 C 105.68 163.31 105.03 162.50 104.13 162.40 C 103.23 162.31 102.42 162.96 102.32 163.86 Z M 102.21 164.85 L 102.11 165.83 C 102.01 166.74 102.66 167.54 103.56 167.64 C 104.46 167.74 105.27 167.09 105.37 166.19 L 105.48 165.20 C 105.57 164.30 104.92 163.49 104.02 163.39 C 103.12 163.29 102.31 163.94 102.21 164.85 Z M 102.11 165.83 L 102.00 166.82 C 101.90 167.73 102.55 168.53 103.45 168.63 C 104.35 168.73 105.16 168.08 105.26 167.18 L 105.37 166.19 C 105.47 165.29 104.82 164.48 103.92 164.38 C 103.02 164.28 102.21 164.93 102.11 165.83 Z M 102.00 166.82 L 101.89 167.82 C 101.79 168.72 102.44 169.53 103.34 169.63 C 104.24 169.73 105.05 169.08 105.15 168.18 L 105.26 167.18 C 105.36 166.28 104.71 165.47 103.81 165.37 C 102.91 165.27 102.10 165.92 102.00 166.82 Z M 101.89 167.81 L 101.78 168.81 C 101.68 169.71 102.33 170.52 103.23 170.62 C 104.13 170.72 104.94 170.07 105.04 169.17 L 105.15 168.18 C 105.25 167.28 104.60 166.47 103.70 166.37 C 102.80 166.27 101.99 166.91 101.89 167.81 Z M 101.78 168.81 L 101.67 169.81 C 101.57 170.71 102.21 171.52 103.11 171.62 C 104.01 171.72 104.82 171.08 104.93 170.18 L 105.04 169.18 C 105.14 168.28 104.49 167.47 103.59 167.36 C 102.69 167.26 101.88 167.91 101.78 168.81 Z M 101.67 169.81 L 101.55 170.81 C 101.45 171.71 102.10 172.52 103.00 172.63 C 103.90 172.73 104.71 172.08 104.81 171.18 L 104.93 170.18 C 105.03 169.28 104.38 168.47 103.48 168.36 C 102.58 168.26 101.77 168.91 101.67 169.81 Z M 101.55 170.81 L 101.44 171.81 C 101.33 172.71 101.98 173.53 102.88 173.63 C 103.77 173.74 104.59 173.09 104.69 172.19 L 104.81 171.19 C 104.91 170.29 104.27 169.47 103.37 169.37 C 102.47 169.26 101.66 169.91 101.55 170.81 Z M 101.44 171.81 L 101.32 172.83 C 101.21 173.73 101.85 174.55 102.75 174.65 C 103.65 174.76 104.46 174.12 104.57 173.22 L 104.69 172.20 C 104.80 171.30 104.16 170.48 103.26 170.38 C 102.36 170.27 101.54 170.91 101.44 171.81 Z M 101.32 172.83 L 101.19 173.85 C 101.08 174.75 101.72 175.57 102.62 175.68 C 103.52 175.79 104.34 175.15 104.45 174.25 L 104.57 173.22 C 104.68 172.32 104.04 171.51 103.14 171.40 C 102.24 171.29 101.42 171.93 101.32 172.83 Z M 101.19 173.85 L 101.07 174.87 C 100.95 175.77 101.59 176.59 102.49 176.70 C 103.39 176.81 104.21 176.17 104.32 175.28 L 104.45 174.25 C 104.56 173.35 103.92 172.54 103.02 172.42 C 102.12 172.31 101.30 172.95 101.19 173.85 Z M 101.07 174.87 L 100.94 175.89 C 100.82 176.79 101.46 177.61 102.36 177.72 C 103.26 177.83 104.08 177.20 104.19 176.30 L 104.32 175.28 C 104.43 174.38 103.80 173.56 102.90 173.45 C 102.00 173.33 101.18 173.97 101.07 174.87 Z M 100.94 175.88 L 100.81 176.89 C 100.69 177.79 101.32 178.61 102.22 178.73 C 103.12 178.85 103.94 178.21 104.06 177.31 L 104.19 176.30 C 104.31 175.40 103.67 174.58 102.78 174.47 C 101.88 174.35 101.05 174.98 100.94 175.88 Z M 100.81 176.89 L 100.67 177.88 C 100.55 178.78 101.19 179.61 102.08 179.73 C 102.98 179.85 103.81 179.22 103.93 178.32 L 104.06 177.32 C 104.18 176.42 103.55 175.60 102.65 175.48 C 101.75 175.36 100.93 175.99 100.81 176.89 Z M 100.67 177.88 L 100.54 178.86 C 100.42 179.76 101.05 180.59 101.94 180.71 C 102.84 180.83 103.67 180.21 103.79 179.31 L 103.93 178.32 C 104.05 177.43 103.42 176.60 102.52 176.47 C 101.63 176.35 100.80 176.98 100.67 177.88 Z M 100.54 178.85 L 100.40 179.82 C 100.28 180.72 100.90 181.55 101.80 181.68 C 102.70 181.80 103.53 181.18 103.66 180.28 L 103.79 179.31 C 103.92 178.42 103.29 177.59 102.40 177.46 C 101.50 177.33 100.67 177.96 100.54 178.85 Z M 100.40 179.81 L 100.27 180.76 C 100.14 181.66 100.76 182.49 101.65 182.62 C 102.55 182.75 103.39 182.13 103.52 181.23 L 103.65 180.29 C 103.79 179.39 103.16 178.56 102.27 178.43 C 101.37 178.29 100.54 178.92 100.40 179.81 Z M 100.27 180.75 L 100.13 181.67 C 99.99 182.57 100.61 183.41 101.51 183.54 C 102.40 183.68 103.24 183.06 103.38 182.16 L 103.52 181.24 C 103.65 180.35 103.03 179.51 102.14 179.37 C 101.24 179.24 100.40 179.85 100.27 180.75 Z M 100.13 181.66 L 99.96 182.74 C 99.82 183.64 100.43 184.48 101.32 184.62 C 102.22 184.77 103.06 184.15 103.20 183.26 L 103.37 182.18 C 103.52 181.28 102.90 180.44 102.01 180.30 C 101.11 180.15 100.27 180.77 100.13 181.66 Z M 99.96 182.73 L 99.79 183.78 C 99.64 184.67 100.24 185.52 101.14 185.67 C 102.03 185.82 102.88 185.21 103.03 184.32 L 103.20 183.27 C 103.35 182.37 102.74 181.53 101.85 181.38 C 100.95 181.23 100.11 181.84 99.96 182.73 Z M 99.79 183.77 L 99.61 184.78 C 99.46 185.67 100.05 186.53 100.95 186.68 C 101.84 186.84 102.69 186.24 102.85 185.34 L 103.03 184.33 C 103.18 183.43 102.58 182.58 101.69 182.43 C 100.79 182.27 99.94 182.87 99.79 183.77 Z M 99.61 184.77 L 99.43 185.75 C 99.27 186.65 99.86 187.50 100.76 187.67 C 101.65 187.83 102.50 187.24 102.67 186.34 L 102.85 185.36 C 103.01 184.46 102.42 183.61 101.53 183.45 C 100.63 183.28 99.78 183.87 99.61 184.77 Z M 99.44 185.74 L 99.25 186.70 C 99.08 187.60 99.67 188.46 100.56 188.63 C 101.45 188.80 102.31 188.21 102.48 187.32 L 102.67 186.36 C 102.84 185.47 102.25 184.60 101.36 184.43 C 100.47 184.26 99.61 184.85 99.44 185.74 Z M 99.25 186.69 L 99.07 187.63 C 98.89 188.52 99.47 189.39 100.36 189.57 C 101.25 189.74 102.11 189.17 102.29 188.28 L 102.48 187.33 C 102.66 186.44 102.08 185.58 101.19 185.40 C 100.30 185.22 99.43 185.80 99.25 186.69 Z M 99.07 187.62 L 98.88 188.54 C 98.69 189.43 99.26 190.31 100.15 190.49 C 101.04 190.68 101.91 190.11 102.10 189.22 L 102.29 188.29 C 102.47 187.40 101.90 186.53 101.01 186.34 C 100.12 186.16 99.25 186.73 99.07 187.62 Z M 98.88 188.53 L 98.68 189.45 C 98.49 190.33 99.05 191.21 99.94 191.40 C 100.83 191.59 101.70 191.03 101.89 190.14 L 102.09 189.23 C 102.29 188.34 101.72 187.47 100.83 187.27 C 99.95 187.08 99.07 187.64 98.88 188.53 Z M 98.68 189.43 L 98.46 190.41 C 98.26 191.29 98.82 192.18 99.70 192.38 C 100.59 192.58 101.47 192.02 101.67 191.13 L 101.89 190.16 C 102.09 189.27 101.54 188.39 100.65 188.19 C 99.76 187.99 98.88 188.54 98.68 189.43 Z M 98.46 190.39 L 98.23 191.38 C 98.02 192.26 98.57 193.15 99.46 193.36 C 100.34 193.57 101.23 193.02 101.44 192.13 L 101.67 191.15 C 101.88 190.26 101.33 189.38 100.44 189.17 C 99.56 188.96 98.67 189.51 98.46 190.39 Z M 98.23 191.36 L 98.00 192.34 C 97.78 193.23 98.32 194.12 99.21 194.33 C 100.09 194.55 100.98 194.01 101.20 193.12 L 101.44 192.15 C 101.65 191.26 101.11 190.37 100.22 190.15 C 99.34 189.94 98.45 190.48 98.23 191.36 Z M 98.00 192.33 L 97.75 193.30 C 97.53 194.18 98.07 195.08 98.95 195.30 C 99.83 195.52 100.73 194.99 100.95 194.10 L 101.20 193.13 C 101.42 192.25 100.88 191.36 100.00 191.13 C 99.12 190.91 98.22 191.45 98.00 192.33 Z M 97.76 193.29 L 97.51 194.25 C 97.28 195.13 97.81 196.03 98.69 196.26 C 99.57 196.49 100.47 195.96 100.70 195.08 L 100.95 194.12 C 101.18 193.23 100.65 192.33 99.77 192.10 C 98.88 191.88 97.98 192.40 97.76 193.29 Z M 97.51 194.24 L 97.25 195.20 C 97.02 196.08 97.54 196.98 98.42 197.22 C 99.30 197.45 100.21 196.93 100.44 196.05 L 100.70 195.09 C 100.93 194.21 100.41 193.30 99.53 193.07 C 98.65 192.83 97.74 193.36 97.51 194.24 Z M 97.25 195.19 L 96.99 196.14 C 96.75 197.02 97.27 197.93 98.15 198.17 C 99.03 198.41 99.94 197.89 100.18 197.01 L 100.44 196.06 C 100.68 195.18 100.16 194.27 99.28 194.03 C 98.40 193.79 97.49 194.31 97.25 195.19 Z M 96.99 196.13 L 96.73 197.09 C 96.48 197.97 96.99 198.88 97.87 199.13 C 98.75 199.37 99.66 198.86 99.91 197.98 L 100.18 197.02 C 100.42 196.14 99.91 195.23 99.03 194.99 C 98.15 194.74 97.24 195.25 96.99 196.13 Z M 96.73 197.08 L 96.45 198.04 C 96.20 198.92 96.71 199.84 97.59 200.09 C 98.47 200.34 99.38 199.83 99.63 198.95 L 99.91 197.99 C 100.16 197.11 99.65 196.20 98.77 195.95 C 97.89 195.70 96.98 196.20 96.73 197.08 Z M 96.46 198.04 L 96.18 199.00 C 95.92 199.87 96.42 200.79 97.30 201.05 C 98.18 201.30 99.09 200.80 99.35 199.92 L 99.63 198.96 C 99.89 198.08 99.38 197.17 98.51 196.91 C 97.63 196.66 96.71 197.16 96.46 198.04 Z M 96.18 198.99 L 95.89 199.95 C 95.63 200.82 96.13 201.74 97.00 202.00 C 97.88 202.26 98.80 201.76 99.06 200.89 L 99.35 199.93 C 99.61 199.06 99.11 198.14 98.24 197.88 C 97.36 197.62 96.44 198.11 96.18 198.99 Z M 95.90 199.94 L 95.61 200.89 C 95.34 201.76 95.83 202.69 96.70 202.95 C 97.58 203.22 98.50 202.73 98.76 201.86 L 99.06 200.90 C 99.32 200.03 98.83 199.10 97.96 198.84 C 97.09 198.57 96.16 199.06 95.90 199.94 Z M 95.61 200.88 L 95.31 201.83 C 95.04 202.70 95.52 203.63 96.39 203.90 C 97.26 204.18 98.19 203.69 98.46 202.82 L 98.76 201.87 C 99.03 201.00 98.55 200.07 97.68 199.80 C 96.81 199.53 95.88 200.01 95.61 200.88 Z M 95.31 201.82 L 95.01 202.77 C 94.73 203.64 95.21 204.57 96.08 204.85 C 96.95 205.13 97.88 204.65 98.15 203.78 L 98.46 202.83 C 98.74 201.96 98.26 201.03 97.39 200.75 C 96.52 200.48 95.59 200.95 95.31 201.82 Z M 95.01 202.76 L 94.70 203.71 C 94.42 204.58 94.89 205.51 95.75 205.79 C 96.62 206.08 97.55 205.61 97.84 204.74 L 98.15 203.79 C 98.43 202.93 97.96 201.99 97.10 201.71 C 96.23 201.42 95.30 201.90 95.01 202.76 Z M 94.71 203.70 L 94.39 204.65 C 94.09 205.51 94.56 206.45 95.42 206.74 C 96.29 207.03 97.22 206.56 97.51 205.70 L 97.83 204.75 C 98.12 203.89 97.66 202.95 96.80 202.66 C 95.93 202.37 95.00 202.84 94.71 203.70 Z M 94.39 204.63 L 94.06 205.58 C 93.77 206.44 94.22 207.38 95.09 207.68 C 95.95 207.97 96.89 207.52 97.18 206.66 L 97.51 205.71 C 97.81 204.85 97.35 203.91 96.49 203.61 C 95.63 203.32 94.69 203.77 94.39 204.63 Z M 94.07 205.57 L 93.74 206.51 C 93.43 207.37 93.88 208.31 94.74 208.62 C 95.60 208.92 96.55 208.47 96.85 207.61 L 97.18 206.67 C 97.48 205.81 97.03 204.86 96.17 204.56 C 95.31 204.26 94.37 204.71 94.07 205.57 Z M 93.74 206.50 L 93.40 207.44 C 93.10 208.30 93.54 209.25 94.40 209.55 C 95.26 209.86 96.20 209.41 96.51 208.56 L 96.84 207.62 C 97.15 206.76 96.71 205.82 95.85 205.51 C 94.99 205.20 94.05 205.65 93.74 206.50 Z M 93.41 207.44 L 93.06 208.38 C 92.75 209.23 93.19 210.18 94.05 210.49 C 94.90 210.80 95.85 210.36 96.16 209.50 L 96.50 208.56 C 96.81 207.71 96.37 206.76 95.52 206.45 C 94.66 206.14 93.72 206.58 93.41 207.44 Z M 93.07 208.37 L 92.72 209.31 C 92.41 210.16 92.84 211.11 93.70 211.43 C 94.55 211.74 95.50 211.30 95.81 210.45 L 96.16 209.51 C 96.47 208.66 96.04 207.71 95.18 207.39 C 94.33 207.08 93.38 207.52 93.07 208.37 Z M 92.72 209.31 L 92.37 210.24 C 92.06 211.10 92.49 212.04 93.34 212.36 C 94.19 212.68 95.14 212.25 95.46 211.39 L 95.81 210.45 C 96.13 209.60 95.69 208.65 94.84 208.34 C 93.99 208.02 93.04 208.45 92.72 209.31 Z M 92.38 210.24 L 92.03 211.17 C 91.71 212.03 92.14 212.97 92.99 213.29 C 93.84 213.61 94.79 213.18 95.11 212.33 L 95.46 211.40 C 95.78 210.55 95.35 209.60 94.50 209.28 C 93.64 208.96 92.70 209.39 92.38 210.24 Z M 92.03 211.17 L 91.68 212.10 C 91.35 212.95 91.78 213.90 92.63 214.22 C 93.48 214.54 94.43 214.12 94.75 213.27 L 95.10 212.34 C 95.43 211.49 95.00 210.54 94.15 210.22 C 93.30 209.89 92.35 210.32 92.03 211.17 Z M 91.68 212.10 L 91.32 213.03 C 91.00 213.88 91.42 214.83 92.27 215.15 C 93.11 215.48 94.06 215.05 94.39 214.21 L 94.75 213.27 C 95.07 212.43 94.65 211.48 93.80 211.15 C 92.95 210.83 92.00 211.25 91.68 212.10 Z M 91.33 213.02 L 90.97 213.95 C 90.64 214.80 91.06 215.75 91.90 216.08 C 92.74 216.41 93.69 215.99 94.02 215.14 L 94.38 214.21 C 94.71 213.37 94.29 212.42 93.45 212.09 C 92.61 211.76 91.66 212.18 91.33 213.02 Z M 90.97 213.95 L 90.60 214.88 C 90.27 215.72 90.68 216.67 91.52 217.00 C 92.36 217.33 93.31 216.92 93.65 216.08 L 94.02 215.15 C 94.35 214.31 93.94 213.36 93.10 213.03 C 92.26 212.69 91.30 213.11 90.97 213.95 Z M 90.61 214.87 L 90.23 215.79 C 89.90 216.63 90.30 217.59 91.14 217.92 C 91.97 218.26 92.93 217.86 93.27 217.02 L 93.64 216.09 C 93.98 215.25 93.58 214.30 92.74 213.96 C 91.90 213.62 90.95 214.03 90.61 214.87 Z M 90.24 215.78 L 89.86 216.71 C 89.51 217.54 89.91 218.50 90.74 218.84 C 91.58 219.19 92.53 218.79 92.88 217.96 L 93.26 217.03 C 93.60 216.20 93.21 215.24 92.37 214.90 C 91.54 214.55 90.59 214.95 90.24 215.78 Z M 89.87 216.70 L 89.47 217.63 C 89.12 218.46 89.50 219.42 90.33 219.77 C 91.16 220.12 92.12 219.73 92.47 218.91 L 92.87 217.97 C 93.22 217.14 92.83 216.18 92.00 215.83 C 91.17 215.48 90.22 215.87 89.87 216.70 Z M 89.48 217.62 L 89.06 218.57 C 88.70 219.40 89.08 220.36 89.90 220.72 C 90.73 221.08 91.69 220.70 92.05 219.88 L 92.46 218.92 C 92.82 218.09 92.45 217.13 91.62 216.77 C 90.80 216.41 89.84 216.79 89.48 217.62 Z M 89.06 218.56 L 88.64 219.51 C 88.27 220.33 88.64 221.29 89.46 221.66 C 90.28 222.03 91.25 221.66 91.62 220.84 L 92.04 219.89 C 92.41 219.07 92.04 218.11 91.22 217.74 C 90.40 217.37 89.43 217.74 89.06 218.56 Z M 88.65 219.50 L 88.22 220.43 C 87.84 221.25 88.20 222.21 89.02 222.59 C 89.84 222.96 90.80 222.61 91.18 221.79 L 91.61 220.85 C 91.98 220.04 91.63 219.07 90.81 218.69 C 89.99 218.32 89.02 218.68 88.65 219.50 Z M 88.23 220.41 L 87.80 221.33 C 87.41 222.14 87.76 223.11 88.58 223.49 C 89.39 223.88 90.36 223.53 90.74 222.71 L 91.17 221.80 C 91.56 220.99 91.21 220.02 90.39 219.63 C 89.58 219.25 88.61 219.60 88.23 220.41 Z M 87.80 221.31 L 87.38 222.20 C 86.99 223.01 87.33 223.98 88.14 224.37 C 88.95 224.76 89.92 224.42 90.31 223.61 L 90.74 222.73 C 91.13 221.92 90.79 220.94 89.98 220.55 C 89.17 220.16 88.19 220.50 87.80 221.31 Z M 87.38 222.19 L 86.96 223.04 C 86.56 223.85 86.89 224.82 87.70 225.22 C 88.51 225.62 89.48 225.29 89.88 224.48 L 90.30 223.63 C 90.70 222.82 90.37 221.85 89.56 221.45 C 88.76 221.05 87.78 221.38 87.38 222.19 Z M 86.97 223.03 L 86.54 223.87 C 86.13 224.68 86.45 225.66 87.25 226.06 C 88.06 226.47 89.04 226.15 89.44 225.35 L 89.87 224.50 C 90.28 223.70 89.96 222.72 89.16 222.31 C 88.36 221.90 87.38 222.22 86.97 223.03 Z M 86.55 223.86 L 86.04 224.83 C 85.63 225.62 85.93 226.60 86.73 227.02 C 87.53 227.44 88.51 227.13 88.92 226.33 L 89.43 225.36 C 89.85 224.57 89.54 223.59 88.74 223.17 C 87.95 222.75 86.97 223.06 86.55 223.86 Z M 86.06 224.80 L 85.56 225.72 C 85.13 226.51 85.42 227.49 86.21 227.92 C 87.00 228.35 87.99 228.05 88.42 227.27 L 88.91 226.35 C 89.34 225.57 89.05 224.58 88.26 224.15 C 87.47 223.72 86.48 224.02 86.06 224.80 Z M 85.58 225.69 L 85.09 226.56 C 84.65 227.34 84.92 228.33 85.70 228.77 C 86.48 229.21 87.47 228.93 87.91 228.15 L 88.40 227.29 C 88.84 226.51 88.56 225.52 87.78 225.08 C 87.01 224.64 86.02 224.92 85.58 225.69 Z M 85.10 226.54 L 84.62 227.36 C 84.17 228.13 84.42 229.13 85.19 229.58 C 85.96 230.03 86.96 229.77 87.41 229.00 L 87.90 228.18 C 88.35 227.41 88.09 226.41 87.32 225.96 C 86.55 225.51 85.56 225.77 85.10 226.54 Z M 84.63 227.34 L 84.15 228.14 C 83.68 228.90 83.92 229.89 84.68 230.36 C 85.44 230.83 86.44 230.59 86.91 229.82 L 87.39 229.03 C 87.86 228.27 87.62 227.27 86.86 226.80 C 86.10 226.34 85.10 226.58 84.63 227.34 Z M 84.16 228.11 L 83.64 228.94 C 83.16 229.69 83.38 230.69 84.13 231.17 C 84.88 231.65 85.88 231.43 86.36 230.67 L 86.89 229.85 C 87.37 229.10 87.15 228.10 86.39 227.62 C 85.64 227.14 84.64 227.36 84.16 228.11 Z M 83.66 228.92 L 83.09 229.77 C 82.60 230.51 82.80 231.51 83.54 232.01 C 84.28 232.50 85.28 232.30 85.78 231.55 L 86.34 230.70 C 86.84 229.96 86.63 228.96 85.89 228.46 C 85.15 227.97 84.15 228.17 83.66 228.92 Z M 83.10 229.75 L 82.53 230.58 C 82.03 231.31 82.21 232.32 82.94 232.82 C 83.68 233.33 84.68 233.14 85.19 232.41 L 85.76 231.58 C 86.27 230.84 86.08 229.84 85.35 229.33 C 84.61 228.83 83.61 229.02 83.10 229.75 Z M 82.55 230.56 L 81.97 231.37 C 81.45 232.09 81.62 233.10 82.35 233.62 C 83.07 234.13 84.08 233.96 84.60 233.24 L 85.17 232.43 C 85.69 231.71 85.52 230.70 84.79 230.18 C 84.07 229.67 83.06 229.84 82.55 230.56 Z M 81.98 231.35 L 81.41 232.13 C 80.88 232.85 81.04 233.86 81.75 234.39 C 82.47 234.91 83.48 234.76 84.01 234.04 L 84.58 233.26 C 85.11 232.54 84.95 231.53 84.24 231.01 C 83.52 230.48 82.51 230.63 81.98 231.35 Z M 81.42 232.12 L 80.82 232.92 C 80.28 233.63 80.42 234.64 81.13 235.17 C 81.84 235.71 82.85 235.57 83.39 234.86 L 83.99 234.06 C 84.53 233.35 84.39 232.34 83.68 231.80 C 82.97 231.27 81.96 231.41 81.42 232.12 Z M 80.83 232.91 L 80.20 233.72 C 79.66 234.42 79.79 235.43 80.49 235.97 C 81.19 236.52 82.20 236.39 82.74 235.69 L 83.37 234.87 C 83.91 234.17 83.79 233.17 83.09 232.62 C 82.39 232.08 81.38 232.21 80.83 232.91 Z M 80.22 233.71 L 79.59 234.49 C 79.04 235.18 79.16 236.19 79.85 236.74 C 80.54 237.29 81.55 237.18 82.10 236.49 L 82.72 235.70 C 83.27 235.01 83.16 234.00 82.47 233.45 C 81.78 232.90 80.77 233.01 80.22 233.71 Z M 79.61 234.48 L 78.99 235.24 C 78.43 235.92 78.53 236.93 79.22 237.49 C 79.90 238.05 80.91 237.94 81.47 237.26 L 82.08 236.50 C 82.64 235.81 82.54 234.81 81.85 234.25 C 81.17 233.69 80.16 233.80 79.61 234.48 Z M 79.00 235.23 L 78.39 235.97 C 77.82 236.65 77.92 237.65 78.59 238.22 C 79.27 238.78 80.28 238.69 80.84 238.01 L 81.45 237.27 C 82.02 236.59 81.92 235.58 81.25 235.02 C 80.57 234.46 79.56 234.55 79.00 235.23 Z M 78.40 235.96 L 77.72 236.76 C 77.16 237.43 77.24 238.43 77.91 239.00 C 78.58 239.57 79.59 239.48 80.15 238.81 L 80.83 238.02 C 81.39 237.35 81.31 236.34 80.64 235.78 C 79.97 235.21 78.96 235.29 78.40 235.96 Z M 77.74 236.75 L 77.07 237.52 C 76.50 238.18 76.58 239.19 77.24 239.76 C 77.91 240.33 78.91 240.26 79.48 239.59 L 80.14 238.82 C 80.72 238.16 80.64 237.15 79.98 236.58 C 79.31 236.01 78.31 236.08 77.74 236.75 Z M 77.08 237.51 L 76.43 238.25 C 75.86 238.91 75.92 239.91 76.58 240.49 C 77.24 241.07 78.24 241.00 78.82 240.34 L 79.47 239.60 C 80.05 238.94 79.98 237.94 79.32 237.36 C 78.67 236.78 77.66 236.85 77.08 237.51 Z M 76.45 238.24 L 75.81 238.95 C 75.22 239.60 75.28 240.61 75.93 241.19 C 76.58 241.77 77.59 241.72 78.17 241.07 L 78.81 240.35 C 79.39 239.70 79.34 238.70 78.69 238.11 C 78.03 237.53 77.03 237.59 76.45 238.24 Z M 75.82 238.94 L 75.12 239.70 C 74.53 240.35 74.58 241.35 75.22 241.94 C 75.86 242.53 76.86 242.48 77.45 241.84 L 78.15 241.08 C 78.74 240.43 78.70 239.43 78.06 238.84 C 77.41 238.25 76.41 238.30 75.82 238.94 Z M 75.15 239.69 L 74.46 240.42 C 73.86 241.05 73.89 242.04 74.52 242.64 C 75.15 243.24 76.15 243.21 76.74 242.58 L 77.43 241.85 C 78.03 241.22 78.00 240.23 77.37 239.63 C 76.74 239.03 75.74 239.06 75.15 239.69 Z M 74.48 240.40 L 73.80 241.10 C 73.19 241.71 73.20 242.71 73.82 243.31 C 74.43 243.92 75.43 243.91 76.03 243.30 L 76.72 242.60 C 77.33 241.98 77.32 240.99 76.70 240.38 C 76.08 239.77 75.09 239.78 74.48 240.40 Z M 73.82 241.07 L 73.15 241.73 C 72.53 242.33 72.52 243.32 73.12 243.94 C 73.72 244.56 74.71 244.58 75.33 243.97 L 76.01 243.32 C 76.63 242.71 76.64 241.72 76.04 241.11 C 75.43 240.49 74.44 240.47 73.82 241.07 Z M 73.20 241.69 L 72.50 242.31 C 71.86 242.89 71.81 243.88 72.38 244.52 C 72.96 245.16 73.95 245.21 74.59 244.64 L 75.28 244.02 C 75.93 243.44 75.98 242.45 75.40 241.81 C 74.83 241.17 73.84 241.11 73.20 241.69 Z M 72.58 242.25 L 71.81 242.85 C 71.13 243.39 71.01 244.37 71.54 245.05 C 72.07 245.73 73.06 245.84 73.74 245.31 L 74.51 244.70 C 75.19 244.17 75.31 243.19 74.78 242.51 C 74.24 241.83 73.26 241.71 72.58 242.25 Z M 71.91 242.78 L 71.01 243.37 C 70.29 243.85 70.09 244.81 70.56 245.53 C 71.03 246.26 72.00 246.46 72.72 245.98 L 73.63 245.39 C 74.35 244.91 74.55 243.95 74.08 243.23 C 73.60 242.50 72.64 242.30 71.91 242.78 Z M 71.12 243.31 L 70.16 243.83 C 69.40 244.24 69.12 245.19 69.54 245.94 C 69.95 246.70 70.90 246.98 71.65 246.57 L 72.61 246.05 C 73.37 245.64 73.65 244.69 73.24 243.93 C 72.83 243.17 71.88 242.89 71.12 243.31 Z M 70.28 243.77 L 69.28 244.21 C 68.49 244.56 68.13 245.48 68.47 246.27 C 68.82 247.06 69.74 247.42 70.53 247.07 L 71.53 246.63 C 72.32 246.28 72.68 245.36 72.34 244.57 C 71.99 243.78 71.07 243.42 70.28 243.77 Z M 69.44 244.15 L 68.45 244.45 C 67.62 244.71 67.16 245.58 67.42 246.40 C 67.67 247.23 68.54 247.69 69.37 247.44 L 70.36 247.13 C 71.19 246.88 71.65 246.00 71.40 245.18 C 71.14 244.36 70.27 243.89 69.44 244.15 Z M 68.74 244.39 L 67.84 244.49 C 66.98 244.59 66.36 245.36 66.46 246.22 C 66.55 247.07 67.32 247.69 68.18 247.60 L 69.08 247.50 C 69.94 247.40 70.55 246.63 70.46 245.77 C 70.36 244.92 69.59 244.30 68.74 244.39 Z M 68.43 244.54 L 67.64 244.32 C 66.81 244.09 65.95 244.58 65.71 245.41 C 65.48 246.24 65.97 247.10 66.80 247.33 L 67.59 247.55 C 68.42 247.78 69.28 247.29 69.51 246.46 C 69.74 245.63 69.26 244.77 68.43 244.54 Z M 68.37 244.77 L 67.77 244.12 C 67.19 243.49 66.20 243.44 65.57 244.03 C 64.93 244.61 64.89 245.60 65.47 246.23 L 66.07 246.88 C 66.65 247.52 67.64 247.56 68.27 246.98 C 68.91 246.39 68.95 245.40 68.37 244.77 Z M 68.06 244.58 L 67.68 243.64 C 67.35 242.85 66.43 242.47 65.64 242.80 C 64.84 243.13 64.46 244.04 64.79 244.84 L 65.18 245.77 C 65.51 246.57 66.42 246.95 67.22 246.62 C 68.02 246.29 68.39 245.38 68.06 244.58 Z M 67.74 243.84 L 67.47 242.84 C 67.25 242.01 66.39 241.52 65.56 241.74 C 64.73 241.96 64.24 242.82 64.46 243.65 L 64.73 244.65 C 64.95 245.48 65.81 245.97 66.64 245.75 C 67.47 245.52 67.97 244.67 67.74 243.84 Z"
      fill="black"
      fill-rule="nonzero" /><path d="M 147.36 116.59 L 147.99 117.40 C 148.52 118.08 149.50 118.20 150.18 117.67 C 150.86 117.14 150.99 116.16 150.46 115.48 L 149.82 114.67 C 149.29 113.99 148.31 113.87 147.63 114.39 C 146.95 114.92 146.83 115.91 147.36 116.59 Z M 147.97 117.37 L 148.58 118.19 C 149.09 118.89 150.07 119.03 150.76 118.52 C 151.45 118.01 151.60 117.03 151.09 116.34 L 150.48 115.51 C 149.97 114.82 148.99 114.67 148.30 115.19 C 147.60 115.70 147.46 116.68 147.97 117.37 Z M 148.53 118.13 L 149.08 118.96 C 149.56 119.68 150.53 119.87 151.25 119.40 C 151.96 118.92 152.16 117.95 151.69 117.23 L 151.13 116.40 C 150.66 115.68 149.69 115.49 148.97 115.96 C 148.25 116.44 148.05 117.41 148.53 118.13 Z M 149.02 118.85 L 149.48 119.70 C 149.90 120.45 150.85 120.73 151.60 120.31 C 152.36 119.90 152.63 118.95 152.22 118.19 L 151.75 117.34 C 151.34 116.59 150.39 116.31 149.63 116.73 C 148.88 117.14 148.60 118.09 149.02 118.85 Z M 149.41 119.54 L 149.77 120.42 C 150.09 121.22 151.00 121.60 151.80 121.28 C 152.60 120.95 152.98 120.04 152.66 119.24 L 152.30 118.36 C 151.97 117.56 151.06 117.18 150.26 117.50 C 149.46 117.83 149.08 118.74 149.41 119.54 Z M 149.70 120.23 L 149.95 121.16 C 150.17 122.00 151.03 122.49 151.86 122.27 C 152.69 122.05 153.19 121.19 152.97 120.36 L 152.72 119.43 C 152.50 118.60 151.64 118.10 150.81 118.32 C 149.98 118.54 149.48 119.40 149.70 120.23 Z M 149.92 121.01 L 150.07 121.98 C 150.21 122.83 151.01 123.41 151.86 123.27 C 152.71 123.13 153.29 122.33 153.16 121.48 L 153.00 120.51 C 152.86 119.66 152.06 119.08 151.21 119.22 C 150.36 119.36 149.78 120.16 149.92 121.01 Z M 150.06 121.87 L 150.15 122.88 C 150.24 123.74 151.00 124.37 151.86 124.29 C 152.71 124.21 153.34 123.45 153.26 122.59 L 153.17 121.58 C 153.09 120.72 152.33 120.09 151.47 120.17 C 150.61 120.25 149.98 121.01 150.06 121.87 Z M 150.15 122.83 L 150.22 123.88 C 150.27 124.74 151.01 125.40 151.87 125.35 C 152.73 125.29 153.38 124.55 153.33 123.69 L 153.27 122.64 C 153.21 121.78 152.47 121.12 151.61 121.18 C 150.75 121.23 150.10 121.97 150.15 122.83 Z M 150.21 123.87 L 150.26 124.80 C 150.31 125.66 151.05 126.32 151.91 126.27 C 152.77 126.23 153.43 125.49 153.38 124.63 L 153.33 123.70 C 153.29 122.84 152.55 122.18 151.69 122.23 C 150.83 122.27 150.17 123.01 150.21 123.87 Z M 150.26 124.79 L 150.31 125.76 C 150.36 126.62 151.09 127.28 151.95 127.24 C 152.81 127.19 153.48 126.46 153.43 125.60 L 153.38 124.63 C 153.34 123.77 152.60 123.11 151.74 123.15 C 150.88 123.20 150.22 123.93 150.26 124.79 Z M 150.31 125.75 L 150.36 126.75 C 150.40 127.61 151.13 128.27 151.99 128.23 C 152.86 128.19 153.52 127.46 153.48 126.60 L 153.43 125.60 C 153.39 124.74 152.66 124.08 151.80 124.12 C 150.94 124.16 150.27 124.89 150.31 125.75 Z M 150.36 126.74 L 150.41 127.77 C 150.44 128.63 151.17 129.30 152.03 129.26 C 152.89 129.23 153.56 128.50 153.52 127.64 L 153.48 126.61 C 153.44 125.74 152.71 125.08 151.85 125.11 C 150.99 125.15 150.32 125.88 150.36 126.74 Z M 150.40 127.76 L 150.45 128.82 C 150.48 129.69 151.20 130.36 152.07 130.32 C 152.93 130.29 153.60 129.57 153.57 128.70 L 153.52 127.64 C 153.49 126.78 152.77 126.11 151.90 126.14 C 151.04 126.18 150.37 126.90 150.40 127.76 Z M 150.45 128.82 L 150.48 129.78 C 150.51 130.64 151.23 131.31 152.09 131.29 C 152.95 131.26 153.63 130.53 153.60 129.67 L 153.57 128.71 C 153.54 127.85 152.81 127.18 151.95 127.20 C 151.09 127.23 150.42 127.96 150.45 128.82 Z M 150.48 129.77 L 150.51 130.71 C 150.53 131.58 151.25 132.25 152.11 132.23 C 152.97 132.20 153.65 131.48 153.63 130.62 L 153.60 129.68 C 153.57 128.82 152.85 128.14 151.99 128.16 C 151.13 128.19 150.45 128.91 150.48 129.77 Z M 150.51 130.71 L 150.53 131.68 C 150.55 132.54 151.27 133.22 152.13 133.20 C 153.00 133.18 153.68 132.46 153.65 131.60 L 153.63 130.63 C 153.60 129.77 152.89 129.08 152.03 129.11 C 151.16 129.13 150.48 129.85 150.51 130.71 Z M 150.53 131.67 L 150.56 132.67 C 150.58 133.54 151.29 134.22 152.15 134.20 C 153.01 134.18 153.70 133.46 153.68 132.60 L 153.65 131.60 C 153.63 130.74 152.92 130.06 152.06 130.08 C 151.19 130.10 150.51 130.81 150.53 131.67 Z M 150.56 132.67 L 150.58 133.70 C 150.60 134.56 151.31 135.25 152.17 135.23 C 153.03 135.21 153.72 134.50 153.70 133.63 L 153.68 132.60 C 153.66 131.74 152.94 131.06 152.08 131.08 C 151.22 131.09 150.54 131.81 150.56 132.67 Z M 150.58 133.70 L 150.60 134.77 C 150.62 135.63 151.33 136.31 152.19 136.30 C 153.05 136.28 153.74 135.57 153.72 134.70 L 153.70 133.64 C 153.68 132.77 152.97 132.09 152.11 132.11 C 151.24 132.12 150.56 132.84 150.58 133.70 Z M 150.60 134.77 L 150.62 135.77 C 150.63 136.64 151.35 137.32 152.21 137.30 C 153.07 137.29 153.76 136.58 153.74 135.71 L 153.72 134.71 C 153.70 133.84 152.99 133.16 152.13 133.17 C 151.27 133.19 150.58 133.90 150.60 134.77 Z M 150.62 135.77 L 150.64 136.72 C 150.65 137.58 151.36 138.27 152.23 138.25 C 153.09 138.24 153.77 137.52 153.76 136.66 L 153.74 135.72 C 153.72 134.85 153.01 134.17 152.15 134.18 C 151.29 134.20 150.60 134.91 150.62 135.77 Z M 150.64 136.72 L 150.65 137.69 C 150.67 138.55 151.38 139.24 152.24 139.22 C 153.10 139.21 153.79 138.50 153.77 137.64 L 153.76 136.66 C 153.74 135.80 153.03 135.12 152.17 135.13 C 151.31 135.15 150.62 135.86 150.64 136.72 Z M 150.65 137.69 L 150.67 138.68 C 150.68 139.54 151.39 140.23 152.26 140.22 C 153.12 140.20 153.81 139.49 153.79 138.63 L 153.77 137.64 C 153.76 136.78 153.05 136.09 152.19 136.10 C 151.33 136.12 150.64 136.83 150.65 137.69 Z M 150.67 138.68 L 150.68 139.69 C 150.70 140.55 151.41 141.24 152.27 141.23 C 153.13 141.22 153.82 140.51 153.81 139.64 L 153.79 138.63 C 153.78 137.77 153.07 137.08 152.21 137.10 C 151.34 137.11 150.66 137.82 150.67 138.68 Z M 150.68 139.69 L 150.70 140.71 C 150.71 141.58 151.42 142.27 152.28 142.25 C 153.14 142.24 153.83 141.54 153.82 140.67 L 153.81 139.65 C 153.79 138.78 153.09 138.09 152.22 138.11 C 151.36 138.12 150.67 138.83 150.68 139.69 Z M 150.70 140.71 L 150.71 141.75 C 150.72 142.61 151.43 143.30 152.29 143.29 C 153.15 143.28 153.84 142.58 153.83 141.72 L 153.82 140.68 C 153.81 139.81 153.10 139.12 152.24 139.13 C 151.38 139.14 150.69 139.85 150.70 140.71 Z M 150.71 141.75 L 150.72 142.79 C 150.73 143.66 151.43 144.35 152.30 144.34 C 153.16 144.33 153.85 143.63 153.84 142.77 L 153.83 141.72 C 153.82 140.86 153.12 140.16 152.26 140.17 C 151.39 140.18 150.70 140.89 150.71 141.75 Z M 150.72 142.79 L 150.73 143.75 C 150.73 144.61 151.44 145.31 152.30 145.30 C 153.16 145.30 153.86 144.59 153.85 143.73 L 153.84 142.77 C 153.84 141.91 153.13 141.21 152.27 141.22 C 151.41 141.23 150.71 141.93 150.72 142.79 Z M 150.73 143.75 L 150.73 144.72 C 150.74 145.58 151.44 146.27 152.30 146.27 C 153.16 146.26 153.86 145.56 153.85 144.70 L 153.85 143.73 C 153.84 142.87 153.14 142.17 152.28 142.18 C 151.42 142.18 150.72 142.89 150.73 143.75 Z M 150.73 144.71 L 150.74 145.69 C 150.74 146.55 151.44 147.25 152.30 147.25 C 153.17 147.24 153.86 146.54 153.86 145.68 L 153.85 144.70 C 153.85 143.84 153.15 143.14 152.29 143.15 C 151.42 143.15 150.73 143.85 150.73 144.71 Z M 150.74 145.69 L 150.74 146.68 C 150.74 147.54 151.44 148.24 152.30 148.23 C 153.17 148.23 153.86 147.53 153.86 146.67 L 153.86 145.68 C 153.86 144.82 153.15 144.12 152.29 144.12 C 151.43 144.13 150.73 144.83 150.74 145.69 Z M 150.74 146.68 L 150.74 147.68 C 150.74 148.54 151.44 149.24 152.30 149.24 C 153.17 149.23 153.86 148.53 153.86 147.67 L 153.86 146.67 C 153.86 145.81 153.16 145.11 152.30 145.11 C 151.43 145.11 150.74 145.81 150.74 146.68 Z M 150.74 147.68 L 150.74 148.69 C 150.74 149.55 151.44 150.25 152.30 150.25 C 153.17 150.25 153.86 149.55 153.86 148.69 L 153.86 147.67 C 153.86 146.81 153.16 146.11 152.30 146.11 C 151.44 146.11 150.74 146.81 150.74 147.68 Z M 150.74 148.69 L 150.74 149.72 C 150.74 150.58 151.44 151.28 152.30 151.28 C 153.17 151.28 153.86 150.58 153.86 149.72 L 153.86 148.69 C 153.86 147.83 153.16 147.13 152.30 147.13 C 151.44 147.13 150.74 147.83 150.74 148.69 Z M 150.74 149.72 L 150.74 150.77 C 150.74 151.63 151.44 152.33 152.30 152.33 C 153.16 152.33 153.86 151.63 153.86 150.77 L 153.86 149.72 C 153.86 148.86 153.16 148.16 152.30 148.16 C 151.44 148.16 150.74 148.86 150.74 149.72 Z M 150.74 150.77 L 150.74 151.73 C 150.74 152.60 151.44 153.30 152.30 153.30 C 153.16 153.30 153.86 152.60 153.86 151.73 L 153.86 150.77 C 153.86 149.91 153.16 149.21 152.30 149.21 C 151.44 149.21 150.74 149.91 150.74 150.77 Z M 150.74 151.73 L 150.74 152.69 C 150.74 153.55 151.44 154.25 152.30 154.25 C 153.16 154.25 153.86 153.55 153.86 152.69 L 153.86 151.73 C 153.86 150.87 153.16 150.17 152.30 150.17 C 151.44 150.17 150.74 150.87 150.74 151.73 Z M 150.74 152.69 L 150.74 153.65 C 150.74 154.52 151.44 155.22 152.30 155.22 C 153.16 155.22 153.86 154.52 153.86 153.65 L 153.86 152.69 C 153.86 151.82 153.16 151.13 152.30 151.13 C 151.44 151.13 150.74 151.82 150.74 152.69 Z M 150.74 153.65 L 150.74 154.64 C 150.74 155.50 151.44 156.20 152.30 156.20 C 153.16 156.20 153.86 155.50 153.86 154.64 L 153.86 153.65 C 153.86 152.79 153.16 152.09 152.30 152.09 C 151.44 152.09 150.74 152.79 150.74 153.65 Z M 150.74 154.64 L 150.74 155.63 C 150.74 156.49 151.44 157.19 152.30 157.19 C 153.16 157.19 153.86 156.49 153.86 155.63 L 153.86 154.64 C 153.86 153.77 153.16 153.08 152.30 153.08 C 151.44 153.08 150.74 153.77 150.74 154.64 Z M 150.74 155.63 L 150.74 156.64 C 150.74 157.50 151.44 158.20 152.30 158.20 C 153.16 158.20 153.86 157.50 153.86 156.64 L 153.86 155.63 C 153.86 154.77 153.16 154.07 152.30 154.07 C 151.44 154.07 150.74 154.77 150.74 155.63 Z M 150.74 156.64 L 150.74 157.66 C 150.74 158.53 151.44 159.22 152.30 159.22 C 153.16 159.22 153.86 158.53 153.86 157.66 L 153.86 156.64 C 153.86 155.78 153.16 155.08 152.30 155.08 C 151.44 155.08 150.74 155.78 150.74 156.64 Z M 150.74 157.66 L 150.74 158.70 C 150.74 159.56 151.44 160.26 152.30 160.26 C 153.16 160.26 153.86 159.56 153.86 158.70 L 153.86 157.66 C 153.86 156.80 153.16 156.10 152.30 156.10 C 151.44 156.10 150.74 156.80 150.74 157.66 Z M 150.74 158.70 L 150.74 159.75 C 150.74 160.61 151.44 161.31 152.30 161.31 C 153.16 161.31 153.86 160.61 153.86 159.75 L 153.86 158.70 C 153.86 157.84 153.16 157.14 152.30 157.14 C 151.44 157.14 150.74 157.84 150.74 158.70 Z M 150.74 159.75 L 150.74 160.77 C 150.74 161.63 151.44 162.33 152.30 162.33 C 153.16 162.33 153.86 161.63 153.86 160.77 L 153.86 159.75 C 153.86 158.88 153.16 158.19 152.30 158.19 C 151.44 158.19 150.74 158.88 150.74 159.75 Z M 150.74 160.77 L 150.74 161.75 C 150.74 162.61 151.44 163.31 152.30 163.31 C 153.16 163.31 153.86 162.61 153.86 161.75 L 153.86 160.77 C 153.86 159.91 153.16 159.21 152.30 159.21 C 151.44 159.21 150.74 159.91 150.74 160.77 Z M 150.74 161.75 L 150.74 162.73 C 150.74 163.59 151.44 164.29 152.30 164.29 C 153.16 164.29 153.86 163.59 153.86 162.73 L 153.86 161.75 C 153.86 160.88 153.16 160.18 152.30 160.18 C 151.44 160.18 150.74 160.88 150.74 161.75 Z M 150.74 162.73 L 150.74 163.72 C 150.74 164.58 151.44 165.28 152.30 165.28 C 153.16 165.28 153.86 164.58 153.86 163.72 L 153.86 162.73 C 153.86 161.87 153.16 161.17 152.30 161.17 C 151.44 161.17 150.74 161.87 150.74 162.73 Z M 150.74 163.72 L 150.74 164.72 C 150.74 165.58 151.44 166.28 152.30 166.28 C 153.16 166.28 153.86 165.58 153.86 164.72 L 153.86 163.72 C 153.86 162.86 153.16 162.16 152.30 162.16 C 151.44 162.16 150.74 162.86 150.74 163.72 Z M 150.74 164.72 L 150.74 165.72 C 150.74 166.59 151.44 167.29 152.30 167.29 C 153.16 167.29 153.86 166.59 153.86 165.72 L 153.86 164.72 C 153.86 163.86 153.16 163.16 152.30 163.16 C 151.44 163.16 150.74 163.86 150.74 164.72 Z M 150.74 165.72 L 150.74 166.73 C 150.74 167.59 151.44 168.29 152.30 168.29 C 153.16 168.29 153.86 167.59 153.86 166.73 L 153.86 165.72 C 153.86 164.86 153.16 164.16 152.30 164.16 C 151.44 164.16 150.74 164.86 150.74 165.72 Z M 150.74 166.73 L 150.74 167.74 C 150.74 168.61 151.44 169.30 152.30 169.30 C 153.16 169.30 153.86 168.61 153.86 167.74 L 153.86 166.73 C 153.86 165.87 153.16 165.17 152.30 165.17 C 151.44 165.17 150.74 165.87 150.74 166.73 Z M 150.74 167.74 L 150.74 168.76 C 150.74 169.62 151.44 170.32 152.30 170.32 C 153.16 170.32 153.86 169.62 153.86 168.76 L 153.86 167.74 C 153.86 166.88 153.16 166.18 152.30 166.18 C 151.44 166.18 150.74 166.88 150.74 167.74 Z M 150.74 168.76 L 150.74 169.77 C 150.74 170.63 151.44 171.33 152.30 171.33 C 153.16 171.33 153.86 170.63 153.86 169.77 L 153.86 168.76 C 153.86 167.89 153.16 167.19 152.30 167.19 C 151.44 167.19 150.74 167.89 150.74 168.76 Z M 150.74 169.77 L 150.74 170.78 C 150.74 171.64 151.44 172.34 152.30 172.34 C 153.16 172.34 153.86 171.64 153.86 170.78 L 153.86 169.77 C 153.86 168.91 153.16 168.21 152.30 168.21 C 151.44 168.21 150.74 168.91 150.74 169.77 Z M 150.74 170.78 L 150.74 171.80 C 150.74 172.66 151.44 173.36 152.30 173.36 C 153.16 173.36 153.86 172.66 153.86 171.80 L 153.86 170.78 C 153.86 169.92 153.16 169.22 152.30 169.22 C 151.44 169.22 150.74 169.92 150.74 170.78 Z M 150.74 171.80 L 150.74 172.81 C 150.74 173.67 151.44 174.37 152.30 174.37 C 153.16 174.37 153.86 173.67 153.86 172.81 L 153.86 171.80 C 153.86 170.93 153.16 170.24 152.30 170.24 C 151.44 170.24 150.74 170.93 150.74 171.80 Z M 150.74 172.81 L 150.74 173.82 C 150.74 174.68 151.44 175.38 152.30 175.38 C 153.16 175.38 153.86 174.68 153.86 173.82 L 153.86 172.81 C 153.86 171.95 153.16 171.25 152.30 171.25 C 151.44 171.25 150.74 171.95 150.74 172.81 Z M 150.74 173.82 L 150.74 174.83 C 150.74 175.69 151.44 176.39 152.30 176.39 C 153.16 176.39 153.86 175.69 153.86 174.83 L 153.86 173.82 C 153.86 172.96 153.16 172.26 152.30 172.26 C 151.44 172.26 150.74 172.96 150.74 173.82 Z M 150.74 174.83 L 150.74 175.83 C 150.74 176.69 151.44 177.39 152.30 177.39 C 153.16 177.39 153.86 176.69 153.86 175.83 L 153.86 174.83 C 153.86 173.96 153.16 173.27 152.30 173.27 C 151.44 173.27 150.74 173.96 150.74 174.83 Z M 150.74 175.83 L 150.74 176.83 C 150.74 177.69 151.44 178.39 152.30 178.39 C 153.16 178.39 153.86 177.69 153.86 176.83 L 153.86 175.83 C 153.86 174.97 153.16 174.27 152.30 174.27 C 151.44 174.27 150.74 174.97 150.74 175.83 Z M 150.74 176.83 L 150.74 177.83 C 150.74 178.69 151.44 179.39 152.30 179.39 C 153.16 179.39 153.86 178.69 153.86 177.83 L 153.86 176.83 C 153.86 175.97 153.16 175.27 152.30 175.27 C 151.44 175.27 150.74 175.97 150.74 176.83 Z M 150.74 177.83 L 150.74 178.82 C 150.74 179.68 151.44 180.38 152.30 180.38 C 153.16 180.38 153.86 179.68 153.86 178.82 L 153.86 177.83 C 153.86 176.96 153.16 176.27 152.30 176.27 C 151.44 176.27 150.74 176.96 150.74 177.83 Z M 150.74 178.82 L 150.74 179.80 C 150.74 180.67 151.44 181.37 152.30 181.37 C 153.16 181.37 153.86 180.67 153.86 179.80 L 153.86 178.82 C 153.86 177.96 153.16 177.26 152.30 177.26 C 151.44 177.26 150.74 177.96 150.74 178.82 Z M 150.74 179.80 L 150.74 180.78 C 150.74 181.65 151.44 182.35 152.30 182.35 C 153.16 182.35 153.86 181.65 153.86 180.78 L 153.86 179.80 C 153.86 178.94 153.16 178.24 152.30 178.24 C 151.44 178.24 150.74 178.94 150.74 179.80 Z M 150.74 180.78 L 150.74 181.80 C 150.74 182.66 151.44 183.36 152.30 183.36 C 153.16 183.36 153.86 182.66 153.86 181.80 L 153.86 180.78 C 153.86 179.92 153.16 179.22 152.30 179.22 C 151.44 179.22 150.74 179.92 150.74 180.78 Z M 150.74 181.80 L 150.74 182.82 C 150.74 183.68 151.44 184.38 152.30 184.38 C 153.16 184.38 153.86 183.68 153.86 182.82 L 153.86 181.80 C 153.86 180.94 153.16 180.24 152.30 180.24 C 151.44 180.24 150.74 180.94 150.74 181.80 Z M 150.74 182.82 L 150.74 183.83 C 150.74 184.69 151.44 185.39 152.30 185.39 C 153.16 185.39 153.86 184.69 153.86 183.83 L 153.86 182.82 C 153.86 181.95 153.16 181.25 152.30 181.25 C 151.44 181.25 150.74 181.95 150.74 182.82 Z M 150.74 183.83 L 150.74 184.83 C 150.74 185.69 151.44 186.39 152.30 186.39 C 153.16 186.39 153.86 185.69 153.86 184.83 L 153.86 183.83 C 153.86 182.96 153.16 182.26 152.30 182.26 C 151.44 182.26 150.74 182.96 150.74 183.83 Z M 150.74 184.83 L 150.74 185.83 C 150.74 186.69 151.44 187.39 152.30 187.39 C 153.16 187.39 153.86 186.69 153.86 185.83 L 153.86 184.83 C 153.86 183.97 153.16 183.27 152.30 183.27 C 151.44 183.27 150.74 183.97 150.74 184.83 Z M 150.74 185.83 L 150.74 186.83 C 150.74 187.69 151.44 188.39 152.30 188.39 C 153.16 188.39 153.86 187.69 153.86 186.83 L 153.86 185.83 C 153.86 184.97 153.16 184.27 152.30 184.27 C 151.44 184.27 150.74 184.97 150.74 185.83 Z M 150.74 186.83 L 150.74 187.82 C 150.74 188.68 151.44 189.38 152.30 189.38 C 153.16 189.38 153.86 188.68 153.86 187.82 L 153.86 186.83 C 153.86 185.96 153.16 185.27 152.30 185.27 C 151.44 185.27 150.74 185.96 150.74 186.83 Z M 150.74 187.82 L 150.74 188.81 C 150.74 189.67 151.44 190.37 152.30 190.37 C 153.16 190.37 153.86 189.67 153.86 188.81 L 153.86 187.82 C 153.86 186.96 153.16 186.26 152.30 186.26 C 151.44 186.26 150.74 186.96 150.74 187.82 Z M 150.74 188.81 L 150.74 189.79 C 150.74 190.66 151.44 191.36 152.30 191.36 C 153.16 191.36 153.86 190.66 153.86 189.79 L 153.86 188.81 C 153.86 187.95 153.16 187.25 152.30 187.25 C 151.44 187.25 150.74 187.95 150.74 188.81 Z M 150.74 189.79 L 150.74 190.79 C 150.74 191.65 151.44 192.35 152.30 192.35 C 153.16 192.35 153.86 191.65 153.86 190.79 L 153.86 189.79 C 153.86 188.93 153.16 188.23 152.30 188.23 C 151.44 188.23 150.74 188.93 150.74 189.79 Z M 150.74 190.79 L 150.74 191.84 C 150.74 192.70 151.44 193.40 152.30 193.40 C 153.16 193.40 153.86 192.70 153.86 191.84 L 153.86 190.79 C 153.86 189.92 153.16 189.22 152.30 189.22 C 151.44 189.22 150.74 189.92 150.74 190.79 Z M 150.74 191.84 L 150.74 192.89 C 150.74 193.76 151.44 194.45 152.30 194.45 C 153.16 194.45 153.86 193.76 153.86 192.89 L 153.86 191.84 C 153.86 190.98 153.16 190.28 152.30 190.28 C 151.44 190.28 150.74 190.98 150.74 191.84 Z M 150.74 192.89 L 150.74 193.94 C 150.74 194.80 151.44 195.50 152.30 195.50 C 153.16 195.50 153.86 194.80 153.86 193.94 L 153.86 192.89 C 153.86 192.03 153.16 191.33 152.30 191.33 C 151.44 191.33 150.74 192.03 150.74 192.89 Z M 150.74 193.94 L 150.74 194.96 C 150.74 195.83 151.44 196.53 152.30 196.53 C 153.16 196.53 153.86 195.83 153.86 194.96 L 153.86 193.94 C 153.86 193.07 153.16 192.37 152.30 192.37 C 151.44 192.37 150.74 193.07 150.74 193.94 Z M 150.74 194.96 L 150.74 195.98 C 150.74 196.84 151.44 197.54 152.30 197.54 C 153.16 197.54 153.86 196.84 153.86 195.98 L 153.86 194.96 C 153.86 194.10 153.16 193.40 152.30 193.40 C 151.44 193.40 150.74 194.10 150.74 194.96 Z M 150.74 195.98 L 150.74 196.97 C 150.74 197.83 151.44 198.53 152.30 198.53 C 153.16 198.53 153.86 197.83 153.86 196.97 L 153.86 195.98 C 153.86 195.11 153.16 194.41 152.30 194.41 C 151.44 194.41 150.74 195.11 150.74 195.98 Z M 150.74 196.97 L 150.74 197.93 C 150.74 198.80 151.44 199.50 152.30 199.50 C 153.16 199.50 153.86 198.80 153.86 197.93 L 153.86 196.97 C 153.86 196.10 153.16 195.41 152.30 195.41 C 151.44 195.41 150.74 196.10 150.74 196.97 Z M 150.74 197.93 L 150.74 198.87 C 150.74 199.74 151.44 200.43 152.30 200.43 C 153.16 200.43 153.86 199.74 153.86 198.87 L 153.86 197.93 C 153.86 197.07 153.16 196.37 152.30 196.37 C 151.44 196.37 150.74 197.07 150.74 197.93 Z M 150.74 198.87 L 150.74 199.78 C 150.74 200.64 151.44 201.34 152.30 201.34 C 153.16 201.34 153.86 200.64 153.86 199.78 L 153.86 198.87 C 153.86 198.01 153.16 197.31 152.30 197.31 C 151.44 197.31 150.74 198.01 150.74 198.87 Z M 150.74 199.78 L 150.74 200.91 C 150.74 201.77 151.44 202.47 152.30 202.47 C 153.17 202.47 153.86 201.77 153.86 200.91 L 153.86 199.78 C 153.86 198.92 153.16 198.22 152.30 198.22 C 151.44 198.22 150.74 198.92 150.74 199.78 Z M 150.74 200.91 L 150.74 201.99 C 150.74 202.85 151.44 203.55 152.30 203.55 C 153.17 203.55 153.87 202.85 153.86 201.99 L 153.86 200.91 C 153.86 200.05 153.16 199.35 152.30 199.35 C 151.44 199.35 150.74 200.05 150.74 200.91 Z M 150.74 201.99 L 150.74 203.02 C 150.74 203.88 151.44 204.58 152.31 204.58 C 153.17 204.58 153.87 203.88 153.87 203.01 L 153.87 201.98 C 153.86 201.12 153.16 200.42 152.30 200.42 C 151.44 200.43 150.74 201.13 150.74 201.99 Z M 150.74 203.02 L 150.74 204.01 C 150.75 204.87 151.45 205.57 152.31 205.56 C 153.17 205.56 153.87 204.86 153.87 204.00 L 153.87 203.01 C 153.86 202.15 153.16 201.45 152.30 201.45 C 151.44 201.45 150.74 202.16 150.74 203.02 Z M 150.74 204.01 L 150.75 204.96 C 150.75 205.82 151.45 206.52 152.32 206.52 C 153.18 206.51 153.88 205.81 153.87 204.95 L 153.87 204.00 C 153.87 203.13 153.16 202.44 152.30 202.44 C 151.44 202.44 150.74 203.15 150.74 204.01 Z M 150.75 204.96 L 150.75 205.89 C 150.76 206.75 151.46 207.45 152.33 207.44 C 153.19 207.44 153.89 206.73 153.88 205.87 L 153.87 204.94 C 153.87 204.08 153.16 203.39 152.30 203.39 C 151.44 203.40 150.74 204.10 150.75 204.96 Z M 150.75 205.89 L 150.76 206.80 C 150.77 207.66 151.48 208.35 152.34 208.35 C 153.20 208.34 153.90 207.63 153.89 206.77 L 153.88 205.86 C 153.87 205.00 153.17 204.31 152.30 204.31 C 151.44 204.32 150.75 205.03 150.75 205.89 Z M 150.76 206.80 L 150.77 207.86 C 150.78 208.73 151.49 209.42 152.36 209.41 C 153.22 209.39 153.91 208.69 153.90 207.82 L 153.89 206.76 C 153.88 205.90 153.17 205.21 152.31 205.22 C 151.44 205.23 150.75 205.94 150.76 206.80 Z M 150.77 207.87 L 150.79 208.90 C 150.80 209.77 151.52 210.46 152.38 210.44 C 153.24 210.43 153.93 209.72 153.92 208.85 L 153.90 207.82 C 153.89 206.95 153.18 206.26 152.31 206.28 C 151.45 206.29 150.76 207.00 150.77 207.87 Z M 150.79 208.91 L 150.81 209.92 C 150.82 210.78 151.54 211.47 152.40 211.45 C 153.27 211.44 153.96 210.72 153.94 209.86 L 153.92 208.85 C 153.90 207.98 153.19 207.30 152.33 207.31 C 151.46 207.33 150.77 208.04 150.79 208.91 Z M 150.81 209.92 L 150.83 210.91 C 150.85 211.77 151.56 212.46 152.43 212.44 C 153.29 212.42 153.98 211.70 153.96 210.84 L 153.94 209.85 C 153.92 208.99 153.21 208.30 152.34 208.32 C 151.48 208.34 150.79 209.06 150.81 209.92 Z M 150.83 210.91 L 150.85 211.87 C 150.87 212.73 151.59 213.42 152.45 213.40 C 153.32 213.38 154.00 212.66 153.98 211.80 L 153.96 210.84 C 153.94 209.97 153.22 209.29 152.36 209.31 C 151.49 209.33 150.81 210.04 150.83 210.91 Z M 150.85 211.87 L 150.87 212.83 C 150.89 213.70 151.61 214.39 152.48 214.36 C 153.34 214.34 154.03 213.62 154.01 212.76 L 153.98 211.79 C 153.96 210.93 153.24 210.24 152.38 210.26 C 151.51 210.29 150.83 211.00 150.85 211.87 Z M 150.87 212.84 L 150.90 213.90 C 150.92 214.77 151.64 215.45 152.51 215.43 C 153.37 215.41 154.06 214.69 154.04 213.82 L 154.01 212.76 C 153.99 211.89 153.27 211.21 152.40 211.23 C 151.53 211.25 150.85 211.97 150.87 212.84 Z M 150.90 213.90 L 150.93 214.93 C 150.95 215.80 151.67 216.48 152.54 216.45 C 153.41 216.43 154.09 215.71 154.06 214.84 L 154.04 213.82 C 154.01 212.95 153.29 212.27 152.42 212.29 C 151.56 212.32 150.88 213.04 150.90 213.90 Z M 150.93 214.93 L 150.96 215.92 C 150.99 216.79 151.71 217.47 152.58 217.44 C 153.44 217.42 154.12 216.69 154.10 215.83 L 154.07 214.84 C 154.04 213.97 153.31 213.29 152.45 213.32 C 151.58 213.34 150.90 214.07 150.93 214.93 Z M 150.96 215.93 L 150.99 216.89 C 151.02 217.75 151.75 218.43 152.62 218.40 C 153.48 218.37 154.16 217.64 154.13 216.77 L 154.10 215.82 C 154.06 214.95 153.34 214.28 152.47 214.31 C 151.60 214.34 150.93 215.07 150.96 215.93 Z M 150.99 216.90 L 151.03 217.87 C 151.07 218.74 151.80 219.41 152.67 219.37 C 153.54 219.34 154.21 218.60 154.17 217.74 L 154.13 216.76 C 154.09 215.90 153.36 215.23 152.49 215.26 C 151.63 215.30 150.96 216.03 150.99 216.90 Z M 151.04 217.89 L 151.09 218.95 C 151.14 219.82 151.87 220.48 152.74 220.44 C 153.61 220.39 154.27 219.66 154.23 218.79 L 154.17 217.72 C 154.13 216.86 153.39 216.19 152.52 216.24 C 151.66 216.28 150.99 217.02 151.04 217.89 Z M 151.09 218.97 L 151.16 219.99 C 151.22 220.85 151.96 221.51 152.83 221.45 C 153.69 221.40 154.35 220.65 154.29 219.78 L 154.22 218.77 C 154.17 217.90 153.42 217.25 152.56 217.31 C 151.69 217.36 151.04 218.11 151.09 218.97 Z M 151.16 220.01 L 151.24 220.97 C 151.31 221.84 152.07 222.48 152.93 222.41 C 153.79 222.34 154.44 221.58 154.37 220.72 L 154.29 219.76 C 154.22 218.90 153.46 218.25 152.60 218.32 C 151.73 218.39 151.09 219.15 151.16 220.01 Z M 151.24 221.01 L 151.34 221.93 C 151.43 222.79 152.20 223.42 153.06 223.33 C 153.92 223.24 154.55 222.47 154.46 221.61 L 154.36 220.68 C 154.27 219.82 153.50 219.20 152.64 219.29 C 151.78 219.38 151.15 220.15 151.24 221.01 Z M 151.35 221.98 L 151.48 222.97 C 151.60 223.83 152.39 224.43 153.24 224.31 C 154.10 224.19 154.70 223.40 154.59 222.55 L 154.45 221.56 C 154.33 220.70 153.54 220.10 152.69 220.22 C 151.83 220.34 151.23 221.13 151.35 221.98 Z M 151.49 223.04 L 151.67 224.00 C 151.82 224.85 152.64 225.41 153.49 225.25 C 154.34 225.10 154.90 224.28 154.75 223.43 L 154.57 222.48 C 154.42 221.63 153.60 221.06 152.75 221.22 C 151.90 221.37 151.34 222.19 151.49 223.04 Z M 151.69 224.08 L 151.92 225.06 C 152.12 225.90 152.96 226.42 153.80 226.22 C 154.64 226.02 155.16 225.18 154.96 224.34 L 154.73 223.36 C 154.53 222.52 153.69 221.99 152.85 222.19 C 152.01 222.39 151.49 223.23 151.69 224.08 Z M 151.94 225.13 L 152.22 226.10 C 152.46 226.93 153.33 227.41 154.16 227.17 C 154.99 226.93 155.46 226.06 155.22 225.23 L 154.94 224.26 C 154.70 223.43 153.83 222.96 153.01 223.20 C 152.18 223.44 151.70 224.30 151.94 225.13 Z M 152.26 226.21 L 152.61 227.17 C 152.91 227.98 153.81 228.39 154.62 228.09 C 155.43 227.79 155.84 226.89 155.54 226.08 L 155.19 225.12 C 154.89 224.32 153.99 223.90 153.18 224.20 C 152.37 224.50 151.96 225.40 152.26 226.21 Z M 152.69 227.34 L 153.15 228.24 C 153.55 229.01 154.49 229.31 155.25 228.91 C 156.02 228.52 156.32 227.58 155.93 226.81 L 155.47 225.91 C 155.07 225.15 154.13 224.84 153.36 225.24 C 152.60 225.63 152.29 226.57 152.69 227.34 Z M 153.31 228.49 L 153.91 229.25 C 154.44 229.93 155.42 230.05 156.10 229.52 C 156.78 228.98 156.90 228.00 156.36 227.32 L 155.77 226.56 C 155.24 225.88 154.26 225.76 153.58 226.30 C 152.90 226.83 152.78 227.81 153.31 228.49 Z M 154.20 229.54 L 154.96 230.10 C 155.65 230.62 156.63 230.47 157.14 229.78 C 157.66 229.09 157.52 228.11 156.82 227.60 L 156.07 227.03 C 155.38 226.52 154.40 226.66 153.88 227.35 C 153.37 228.04 153.51 229.02 154.20 229.54 Z M 155.30 230.29 L 156.19 230.66 C 156.99 230.99 157.90 230.60 158.23 229.81 C 158.55 229.01 158.17 228.10 157.38 227.77 L 156.48 227.40 C 155.69 227.08 154.77 227.46 154.45 228.26 C 154.12 229.05 154.50 229.97 155.30 230.29 Z M 156.47 230.74 L 157.46 230.95 C 158.31 231.12 159.13 230.58 159.31 229.73 C 159.48 228.89 158.94 228.06 158.09 227.89 L 157.10 227.69 C 156.25 227.51 155.43 228.06 155.25 228.90 C 155.08 229.75 155.62 230.57 156.47 230.74 Z M 157.66 230.98 L 158.71 231.05 C 159.57 231.12 160.32 230.47 160.38 229.61 C 160.45 228.75 159.80 228.00 158.94 227.94 L 157.89 227.86 C 157.03 227.80 156.29 228.44 156.22 229.30 C 156.16 230.16 156.80 230.91 157.66 230.98 Z M 158.84 231.06 L 159.77 231.05 C 160.63 231.04 161.32 230.33 161.31 229.47 C 161.30 228.61 160.60 227.92 159.73 227.93 L 158.81 227.94 C 157.95 227.95 157.26 228.65 157.27 229.51 C 157.28 230.38 157.98 231.07 158.84 231.06 Z M 159.89 231.04 L 160.85 230.96 C 161.71 230.88 162.34 230.12 162.26 229.26 C 162.19 228.40 161.43 227.77 160.57 227.85 L 159.61 227.93 C 158.75 228.01 158.12 228.77 158.20 229.63 C 158.27 230.49 159.03 231.12 159.89 231.04 Z M 160.97 230.94 L 161.97 230.77 C 162.81 230.62 163.38 229.81 163.24 228.96 C 163.09 228.11 162.28 227.54 161.43 227.69 L 160.44 227.86 C 159.59 228.01 159.02 228.82 159.17 229.67 C 159.32 230.52 160.12 231.09 160.97 230.94 Z M 162.09 230.74 L 163.12 230.47 C 163.96 230.26 164.46 229.40 164.24 228.57 C 164.02 227.73 163.17 227.23 162.34 227.45 L 161.31 227.72 C 160.47 227.94 159.97 228.79 160.19 229.62 C 160.40 230.46 161.26 230.96 162.09 230.74 Z M 163.24 230.44 L 164.22 230.10 C 165.03 229.82 165.47 228.93 165.19 228.12 C 164.91 227.30 164.02 226.87 163.20 227.15 L 162.22 227.49 C 161.41 227.77 160.97 228.65 161.25 229.47 C 161.53 230.28 162.42 230.72 163.24 230.44 Z M 164.30 230.07 L 165.24 229.68 C 166.03 229.36 166.41 228.44 166.09 227.65 C 165.76 226.85 164.85 226.47 164.05 226.80 L 163.12 227.18 C 162.32 227.51 161.94 228.42 162.27 229.22 C 162.59 230.02 163.51 230.40 164.30 230.07 Z M 165.30 229.66 L 166.23 229.23 C 167.02 228.86 167.36 227.94 166.99 227.15 C 166.63 226.37 165.70 226.03 164.92 226.39 L 163.99 226.82 C 163.21 227.19 162.86 228.11 163.23 228.90 C 163.59 229.68 164.52 230.02 165.30 229.66 Z M 166.28 229.20 L 167.19 228.74 C 167.96 228.36 168.27 227.42 167.89 226.65 C 167.50 225.88 166.56 225.57 165.79 225.95 L 164.88 226.41 C 164.11 226.80 163.79 227.74 164.18 228.51 C 164.57 229.28 165.51 229.59 166.28 229.20 Z M 167.23 228.73 L 168.10 228.26 C 168.86 227.85 169.15 226.91 168.74 226.15 C 168.34 225.39 167.39 225.10 166.63 225.50 L 165.76 225.97 C 165.00 226.38 164.71 227.32 165.11 228.08 C 165.52 228.84 166.47 229.13 167.23 228.73 Z M 168.13 228.24 L 169.00 227.76 C 169.75 227.34 170.02 226.39 169.60 225.64 C 169.18 224.88 168.23 224.61 167.47 225.03 L 166.61 225.52 C 165.85 225.94 165.58 226.89 166.00 227.64 C 166.42 228.39 167.38 228.66 168.13 228.24 Z M 169.02 227.75 L 169.96 227.20 C 170.70 226.77 170.96 225.81 170.52 225.07 C 170.09 224.32 169.14 224.07 168.39 224.50 L 167.45 225.05 C 166.71 225.48 166.45 226.44 166.89 227.18 C 167.32 227.93 168.27 228.18 169.02 227.75 Z M 169.99 227.18 L 170.84 226.66 C 171.58 226.22 171.81 225.26 171.36 224.52 C 170.91 223.78 169.95 223.55 169.21 224.00 L 168.36 224.52 C 167.63 224.97 167.39 225.93 167.84 226.66 C 168.29 227.40 169.25 227.63 169.99 227.18 Z M 170.87 226.65 L 171.67 226.13 C 172.39 225.67 172.60 224.70 172.14 223.98 C 171.67 223.25 170.71 223.04 169.98 223.51 L 169.18 224.02 C 168.46 224.48 168.25 225.45 168.71 226.18 C 169.18 226.90 170.14 227.11 170.87 226.65 Z M 171.70 226.12 L 172.47 225.60 C 173.18 225.11 173.37 224.14 172.89 223.43 C 172.41 222.71 171.44 222.52 170.72 223.01 L 169.95 223.53 C 169.24 224.01 169.05 224.98 169.53 225.69 C 170.01 226.41 170.98 226.60 171.70 226.12 Z M 172.49 225.58 L 173.29 225.02 C 173.99 224.52 174.16 223.54 173.66 222.84 C 173.17 222.14 172.19 221.97 171.49 222.47 L 170.69 223.03 C 169.99 223.52 169.82 224.50 170.32 225.20 C 170.82 225.91 171.79 226.07 172.49 225.58 Z M 173.31 225.00 L 174.11 224.41 C 174.80 223.90 174.95 222.92 174.44 222.23 C 173.93 221.53 172.95 221.38 172.26 221.90 L 171.46 222.48 C 170.77 223.00 170.62 223.97 171.13 224.67 C 171.64 225.36 172.62 225.51 173.31 225.00 Z M 174.14 224.39 L 174.94 223.77 C 175.62 223.25 175.75 222.27 175.22 221.58 C 174.70 220.90 173.72 220.77 173.03 221.30 L 172.23 221.92 C 171.55 222.44 171.42 223.42 171.95 224.11 C 172.47 224.79 173.45 224.92 174.14 224.39 Z M 174.96 223.75 L 175.76 223.11 C 176.44 222.57 176.54 221.59 176.00 220.92 C 175.46 220.24 174.48 220.14 173.81 220.68 L 173.01 221.32 C 172.34 221.86 172.23 222.84 172.77 223.51 C 173.31 224.19 174.29 224.29 174.96 223.75 Z M 175.78 223.09 L 176.52 222.48 C 177.18 221.93 177.27 220.95 176.72 220.28 C 176.17 219.62 175.18 219.53 174.52 220.08 L 173.79 220.69 C 173.12 221.25 173.03 222.23 173.59 222.89 C 174.14 223.56 175.12 223.65 175.78 223.09 Z M 176.54 222.47 L 177.28 221.83 C 177.94 221.27 178.01 220.28 177.45 219.63 C 176.89 218.97 175.90 218.90 175.25 219.46 L 174.50 220.10 C 173.85 220.66 173.77 221.64 174.34 222.30 C 174.90 222.95 175.88 223.03 176.54 222.47 Z M 177.29 221.82 L 178.05 221.15 C 178.70 220.58 178.76 219.60 178.20 218.95 C 177.63 218.30 176.64 218.24 175.99 218.81 L 175.23 219.47 C 174.59 220.04 174.52 221.03 175.09 221.67 C 175.66 222.32 176.65 222.39 177.29 221.82 Z M 178.06 221.14 L 178.84 220.45 C 179.48 219.88 179.53 218.89 178.96 218.25 C 178.38 217.60 177.40 217.55 176.75 218.12 L 175.98 218.82 C 175.34 219.39 175.28 220.38 175.86 221.02 C 176.43 221.66 177.42 221.72 178.06 221.14 Z M 178.84 220.44 L 179.59 219.77 C 180.23 219.19 180.28 218.20 179.70 217.56 C 179.12 216.92 178.13 216.87 177.49 217.45 L 176.75 218.13 C 176.11 218.71 176.06 219.70 176.64 220.34 C 177.22 220.98 178.21 221.02 178.84 220.44 Z M 179.60 219.76 L 180.33 219.08 C 180.97 218.50 181.01 217.51 180.42 216.88 C 179.84 216.24 178.85 216.20 178.22 216.79 L 177.49 217.46 C 176.85 218.04 176.81 219.03 177.39 219.67 C 177.98 220.30 178.97 220.34 179.60 219.76 Z M 180.34 219.07 L 181.08 218.38 C 181.71 217.79 181.74 216.81 181.15 216.18 C 180.56 215.55 179.57 215.52 178.94 216.11 L 178.21 216.80 C 177.58 217.39 177.55 218.37 178.14 219.00 C 178.73 219.63 179.72 219.66 180.34 219.07 Z M 181.09 218.37 L 181.82 217.67 C 182.44 217.07 182.46 216.09 181.86 215.46 C 181.27 214.84 180.28 214.82 179.66 215.42 L 178.93 216.12 C 178.31 216.72 178.29 217.71 178.89 218.33 C 179.48 218.95 180.47 218.97 181.09 218.37 Z M 181.84 217.65 L 182.55 216.95 C 183.16 216.34 183.17 215.35 182.56 214.74 C 181.95 214.13 180.96 214.12 180.35 214.73 L 179.64 215.44 C 179.03 216.04 179.02 217.03 179.63 217.65 C 180.24 218.26 181.23 218.26 181.84 217.65 Z M 182.57 216.93 L 183.27 216.20 C 183.87 215.59 183.86 214.60 183.24 214.00 C 182.62 213.40 181.63 213.41 181.03 214.03 L 180.33 214.75 C 179.73 215.37 179.74 216.36 180.36 216.96 C 180.98 217.56 181.97 217.55 182.57 216.93 Z M 183.29 216.18 L 183.98 215.45 C 184.57 214.82 184.53 213.83 183.90 213.24 C 183.27 212.65 182.28 212.69 181.69 213.32 L 181.01 214.05 C 180.42 214.68 180.46 215.67 181.09 216.26 C 181.72 216.85 182.71 216.81 183.29 216.18 Z M 184.00 215.43 L 184.66 214.69 C 185.24 214.05 185.19 213.06 184.54 212.48 C 183.90 211.91 182.92 211.96 182.34 212.60 L 181.68 213.34 C 181.10 213.98 181.15 214.97 181.79 215.54 C 182.43 216.12 183.42 216.07 184.00 215.43 Z M 184.68 214.67 L 185.33 213.92 C 185.90 213.27 185.83 212.28 185.18 211.72 C 184.53 211.15 183.54 211.22 182.98 211.87 L 182.32 212.62 C 181.76 213.27 181.83 214.26 182.48 214.82 C 183.13 215.39 184.11 215.32 184.68 214.67 Z M 185.34 213.90 L 185.99 213.14 C 186.55 212.48 186.47 211.50 185.81 210.94 C 185.15 210.38 184.16 210.47 183.61 211.12 L 182.96 211.89 C 182.40 212.55 182.49 213.53 183.14 214.09 C 183.80 214.64 184.79 214.56 185.34 213.90 Z M 186.00 213.13 L 186.63 212.37 C 187.18 211.70 187.09 210.72 186.42 210.17 C 185.76 209.62 184.77 209.72 184.22 210.38 L 183.60 211.14 C 183.05 211.80 183.14 212.79 183.80 213.34 C 184.47 213.89 185.45 213.79 186.00 213.13 Z M 186.64 212.36 L 187.27 211.58 C 187.81 210.91 187.70 209.93 187.03 209.39 C 186.36 208.85 185.38 208.95 184.84 209.62 L 184.21 210.39 C 183.67 211.06 183.77 212.05 184.44 212.59 C 185.11 213.13 186.10 213.03 186.64 212.36 Z M 187.27 211.57 L 187.90 210.79 C 188.43 210.11 188.32 209.13 187.65 208.59 C 186.97 208.06 185.99 208.17 185.45 208.85 L 184.83 209.63 C 184.29 210.31 184.41 211.29 185.08 211.82 C 185.76 212.36 186.74 212.25 187.27 211.57 Z M 187.91 210.78 L 188.53 209.98 C 189.06 209.30 188.94 208.32 188.26 207.79 C 187.58 207.26 186.60 207.38 186.07 208.06 L 185.45 208.86 C 184.91 209.54 185.04 210.52 185.72 211.05 C 186.40 211.58 187.38 211.46 187.91 210.78 Z M 188.54 209.97 L 189.15 209.17 C 189.67 208.49 189.55 207.51 188.86 206.98 C 188.18 206.46 187.20 206.59 186.67 207.27 L 186.06 208.07 C 185.53 208.76 185.66 209.74 186.35 210.26 C 187.03 210.78 188.01 210.66 188.54 209.97 Z M 189.16 209.16 L 189.76 208.36 C 190.28 207.67 190.14 206.69 189.45 206.17 C 188.76 205.66 187.79 205.79 187.27 206.48 L 186.66 207.28 C 186.15 207.97 186.28 208.95 186.97 209.47 C 187.66 209.99 188.64 209.85 189.16 209.16 Z M 189.77 208.35 L 190.36 207.55 C 190.88 206.85 190.73 205.88 190.04 205.36 C 189.35 204.85 188.37 204.99 187.85 205.69 L 187.26 206.49 C 186.75 207.18 186.89 208.16 187.58 208.68 C 188.28 209.19 189.25 209.04 189.77 208.35 Z M 190.37 207.53 L 190.96 206.72 C 191.47 206.03 191.31 205.05 190.61 204.54 C 189.92 204.04 188.94 204.19 188.43 204.89 L 187.85 205.70 C 187.34 206.40 187.49 207.37 188.19 207.88 C 188.89 208.39 189.87 208.23 190.37 207.53 Z M 190.97 206.71 L 191.55 205.90 C 192.05 205.19 191.88 204.22 191.18 203.72 C 190.48 203.22 189.50 203.39 189.00 204.09 L 188.42 204.90 C 187.92 205.61 188.09 206.58 188.79 207.08 C 189.50 207.58 190.47 207.41 190.97 206.71 Z M 191.56 205.88 L 192.13 205.06 C 192.62 204.35 192.44 203.38 191.73 202.89 C 191.03 202.40 190.05 202.57 189.56 203.28 L 188.99 204.10 C 188.50 204.81 188.68 205.78 189.39 206.28 C 190.09 206.77 191.07 206.59 191.56 205.88 Z M 192.14 205.04 L 192.70 204.21 C 193.18 203.50 193.00 202.53 192.28 202.05 C 191.57 201.56 190.60 201.75 190.11 202.46 L 189.55 203.30 C 189.07 204.01 189.26 204.98 189.97 205.46 C 190.69 205.95 191.66 205.76 192.14 205.04 Z M 192.71 204.20 L 193.26 203.36 C 193.74 202.64 193.54 201.68 192.82 201.20 C 192.10 200.73 191.13 200.92 190.66 201.64 L 190.10 202.48 C 189.63 203.20 189.83 204.17 190.55 204.64 C 191.27 205.12 192.23 204.92 192.71 204.20 Z M 193.27 203.35 L 193.81 202.51 C 194.28 201.79 194.08 200.82 193.35 200.35 C 192.63 199.89 191.66 200.09 191.19 200.82 L 190.65 201.65 C 190.18 202.38 190.39 203.34 191.11 203.81 C 191.83 204.28 192.80 204.08 193.27 203.35 Z M 193.82 202.50 L 194.36 201.66 C 194.82 200.94 194.61 199.97 193.88 199.51 C 193.15 199.04 192.19 199.26 191.72 199.98 L 191.19 200.82 C 190.72 201.55 190.94 202.52 191.66 202.98 C 192.39 203.44 193.36 203.23 193.82 202.50 Z M 194.36 201.66 L 194.89 200.82 C 195.35 200.09 195.13 199.12 194.40 198.66 C 193.67 198.21 192.71 198.42 192.25 199.15 L 191.72 199.99 C 191.26 200.72 191.48 201.69 192.21 202.14 C 192.94 202.60 193.90 202.39 194.36 201.66 Z M 194.89 200.81 L 195.41 199.98 C 195.87 199.25 195.65 198.28 194.91 197.83 C 194.18 197.37 193.22 197.59 192.76 198.33 L 192.24 199.16 C 191.79 199.89 192.01 200.85 192.74 201.31 C 193.47 201.77 194.44 201.54 194.89 200.81 Z M 195.41 199.98 L 195.94 199.14 C 196.39 198.40 196.16 197.44 195.43 196.99 C 194.70 196.53 193.74 196.76 193.28 197.49 L 192.76 198.33 C 192.31 199.06 192.53 200.02 193.27 200.48 C 194.00 200.93 194.96 200.71 195.41 199.98 Z M 195.94 199.13 L 196.46 198.28 C 196.92 197.55 196.69 196.59 195.96 196.14 C 195.22 195.68 194.26 195.91 193.81 196.64 L 193.28 197.49 C 192.83 198.23 193.05 199.19 193.79 199.64 C 194.52 200.09 195.48 199.87 195.94 199.13 Z M 196.46 198.28 L 197.00 197.42 C 197.45 196.69 197.22 195.73 196.49 195.27 C 195.76 194.82 194.79 195.04 194.34 195.78 L 193.81 196.64 C 193.35 197.38 193.58 198.34 194.31 198.79 C 195.05 199.24 196.01 199.02 196.46 198.28 Z M 197.00 197.42 L 197.53 196.56 C 197.99 195.82 197.76 194.86 197.03 194.41 C 196.30 193.95 195.34 194.18 194.88 194.91 L 194.34 195.78 C 193.89 196.51 194.11 197.47 194.85 197.93 C 195.58 198.38 196.54 198.16 197.00 197.42 Z M 197.53 196.56 L 198.07 195.70 C 198.52 194.97 198.30 194.01 197.57 193.55 C 196.83 193.09 195.87 193.32 195.42 194.05 L 194.88 194.91 C 194.43 195.64 194.65 196.60 195.38 197.06 C 196.11 197.51 197.08 197.29 197.53 196.56 Z M 198.07 195.70 L 198.60 194.84 C 199.06 194.11 198.84 193.14 198.11 192.69 C 197.37 192.23 196.41 192.45 195.96 193.19 L 195.42 194.05 C 194.96 194.78 195.18 195.74 195.91 196.20 C 196.65 196.66 197.61 196.43 198.07 195.70 Z M 198.60 194.84 L 199.14 193.98 C 199.60 193.25 199.37 192.29 198.64 191.83 C 197.91 191.37 196.95 191.60 196.49 192.33 L 195.96 193.19 C 195.50 193.92 195.72 194.88 196.45 195.34 C 197.18 195.79 198.15 195.57 198.60 194.84 Z M 199.14 193.98 L 199.66 193.14 C 200.12 192.41 199.90 191.44 199.16 190.99 C 198.43 190.53 197.47 190.76 197.01 191.49 L 196.49 192.33 C 196.03 193.06 196.26 194.02 196.99 194.48 C 197.72 194.94 198.68 194.71 199.14 193.98 Z M 199.67 193.14 L 200.19 192.30 C 200.64 191.56 200.41 190.60 199.68 190.15 C 198.95 189.69 197.99 189.92 197.53 190.65 L 197.01 191.49 C 196.56 192.22 196.78 193.19 197.52 193.64 C 198.25 194.09 199.21 193.87 199.67 193.14 Z M 200.19 192.29 L 200.74 191.40 C 201.19 190.66 200.96 189.70 200.23 189.25 C 199.50 188.80 198.53 189.02 198.08 189.76 L 197.53 190.65 C 197.08 191.39 197.31 192.35 198.04 192.80 C 198.77 193.25 199.74 193.03 200.19 192.29 Z M 200.74 191.39 L 201.27 190.53 C 201.72 189.80 201.49 188.84 200.76 188.39 C 200.02 187.94 199.06 188.17 198.61 188.90 L 198.08 189.76 C 197.63 190.50 197.86 191.46 198.59 191.91 C 199.33 192.36 200.29 192.13 200.74 191.39 Z M 201.27 190.53 L 201.78 189.70 C 202.23 188.96 202.00 188.00 201.27 187.55 C 200.53 187.10 199.57 187.33 199.12 188.07 L 198.61 188.90 C 198.16 189.64 198.39 190.60 199.12 191.05 C 199.86 191.50 200.82 191.27 201.27 190.53 Z M 201.78 189.70 L 202.28 188.88 C 202.73 188.15 202.50 187.19 201.77 186.74 C 201.04 186.29 200.07 186.51 199.62 187.25 L 199.12 188.07 C 198.67 188.80 198.90 189.76 199.63 190.21 C 200.37 190.66 201.33 190.44 201.78 189.70 Z M 202.28 188.89 L 202.80 188.05 C 203.26 187.31 203.03 186.35 202.30 185.90 C 201.56 185.44 200.60 185.67 200.15 186.40 L 199.63 187.24 C 199.17 187.98 199.40 188.94 200.13 189.39 C 200.86 189.85 201.83 189.62 202.28 188.89 Z M 202.80 188.05 L 203.33 187.20 C 203.79 186.47 203.57 185.51 202.83 185.05 C 202.10 184.59 201.14 184.81 200.68 185.55 L 200.15 186.40 C 199.69 187.13 199.91 188.09 200.65 188.55 C 201.38 189.01 202.34 188.78 202.80 188.05 Z M 203.32 187.21 L 203.86 186.37 C 204.32 185.64 204.11 184.67 203.38 184.21 C 202.65 183.75 201.69 183.97 201.22 184.69 L 200.69 185.54 C 200.23 186.27 200.44 187.23 201.17 187.69 C 201.90 188.15 202.86 187.94 203.32 187.21 Z M 203.85 186.38 L 204.39 185.54 C 204.86 184.82 204.65 183.85 203.93 183.38 C 203.20 182.92 202.24 183.12 201.77 183.85 L 201.23 184.68 C 200.76 185.41 200.97 186.37 201.69 186.84 C 202.42 187.31 203.39 187.10 203.85 186.38 Z M 204.39 185.55 L 204.93 184.72 C 205.41 184.00 205.21 183.03 204.49 182.56 C 203.77 182.08 202.80 182.28 202.33 183.00 L 201.78 183.83 C 201.30 184.55 201.50 185.52 202.22 186.00 C 202.94 186.47 203.91 186.27 204.39 185.55 Z M 204.92 184.74 L 205.48 183.91 C 205.96 183.19 205.78 182.22 205.06 181.74 C 204.35 181.26 203.38 181.45 202.89 182.16 L 202.34 182.99 C 201.85 183.71 202.04 184.68 202.76 185.16 C 203.47 185.64 204.44 185.45 204.92 184.74 Z M 205.47 183.92 L 206.04 183.10 C 206.53 182.38 206.35 181.41 205.64 180.92 C 204.93 180.44 203.95 180.62 203.47 181.33 L 202.90 182.15 C 202.41 182.86 202.59 183.83 203.30 184.32 C 204.02 184.81 204.99 184.63 205.47 183.92 Z M 206.03 183.11 L 206.61 182.29 C 207.10 181.58 206.93 180.61 206.22 180.11 C 205.51 179.62 204.54 179.79 204.05 180.50 L 203.47 181.32 C 202.98 182.02 203.15 183.00 203.86 183.49 C 204.57 183.99 205.54 183.81 206.03 183.11 Z M 206.60 182.29 L 207.18 181.48 C 207.68 180.77 207.51 179.80 206.81 179.30 C 206.10 178.80 205.13 178.97 204.63 179.67 L 204.05 180.49 C 203.55 181.19 203.72 182.17 204.42 182.66 C 205.13 183.16 206.10 183.00 206.60 182.29 Z M 207.17 181.49 L 207.76 180.67 C 208.26 179.97 208.10 179.00 207.40 178.50 C 206.70 177.99 205.72 178.15 205.22 178.85 L 204.64 179.66 C 204.13 180.36 204.29 181.34 204.99 181.84 C 205.69 182.35 206.67 182.19 207.17 181.49 Z M 207.75 180.68 L 208.34 179.88 C 208.85 179.18 208.69 178.20 208.00 177.69 C 207.30 177.19 206.32 177.34 205.82 178.04 L 205.23 178.84 C 204.72 179.54 204.87 180.52 205.57 181.03 C 206.26 181.53 207.24 181.38 207.75 180.68 Z M 208.33 179.89 L 208.93 179.08 C 209.44 178.39 209.30 177.41 208.60 176.90 C 207.91 176.38 206.93 176.53 206.42 177.22 L 205.82 178.03 C 205.31 178.72 205.45 179.70 206.15 180.21 C 206.84 180.72 207.82 180.58 208.33 179.89 Z M 208.92 179.09 L 209.52 178.29 C 210.04 177.61 209.91 176.63 209.22 176.11 C 208.53 175.59 207.55 175.72 207.03 176.41 L 206.43 177.21 C 205.91 177.90 206.04 178.88 206.73 179.40 C 207.42 179.92 208.40 179.78 208.92 179.09 Z M 209.51 178.31 L 210.13 177.51 C 210.65 176.83 210.53 175.85 209.84 175.32 C 209.16 174.80 208.18 174.92 207.65 175.61 L 207.04 176.40 C 206.52 177.08 206.64 178.06 207.32 178.59 C 208.01 179.12 208.99 178.99 209.51 178.31 Z M 210.12 177.52 L 210.74 176.74 C 211.27 176.06 211.15 175.08 210.47 174.54 C 209.79 174.01 208.81 174.13 208.28 174.81 L 207.66 175.60 C 207.13 176.28 207.25 177.26 207.93 177.79 C 208.60 178.32 209.59 178.20 210.12 177.52 Z M 210.73 176.74 L 211.35 175.96 C 211.89 175.28 211.77 174.30 211.10 173.77 C 210.42 173.23 209.44 173.34 208.91 174.02 L 208.28 174.80 C 207.75 175.48 207.86 176.46 208.54 177.00 C 209.21 177.53 210.19 177.42 210.73 176.74 Z M 211.35 175.96 L 211.97 175.18 C 212.51 174.51 212.40 173.53 211.73 172.99 C 211.05 172.45 210.07 172.56 209.53 173.24 L 208.91 174.02 C 208.37 174.69 208.48 175.67 209.15 176.21 C 209.83 176.75 210.81 176.64 211.35 175.96 Z M 211.97 175.18 L 212.14 174.97 C 212.68 174.30 212.57 173.32 211.90 172.78 C 211.22 172.24 210.24 172.35 209.70 173.02 L 209.53 173.23 C 208.99 173.91 209.10 174.89 209.78 175.43 C 210.45 175.97 211.43 175.86 211.97 175.18 Z"
      fill="black"
      fill-rule="nonzero" /></svg>