<svg xmlns="http://www.w3.org/2000/svg" width="300" height="300" viewBox="0 0 300 300">
<path d="M 166.54 81.97 L 165.93 82.84 C 165.44 83.55 165.61 84.52 166.32 85.01 C 167.02 85.51 168.00 85.33 168.49 84.63 L 169.10 83.75 C 169.59 83.04 169.42 82.07 168.71 81.58 C 168.01 81.09 167.03 81.26 166.54 81.97 Z M 165.91 82.87 L 165.33 83.74 C 164.86 84.46 165.06 85.43 165.77 85.90 C 166.49 86.38 167.46 86.18 167.94 85.46 L 168.51 84.59 C 168.99 83.88 168.79 82.91 168.07 82.43 C 167.35 81.96 166.38 82.15 165.91 82.87 Z M 165.29 83.81 L 164.79 84.66 C 164.35 85.41 164.60 86.36 165.35 86.80 C 166.09 87.23 167.05 86.99 167.48 86.24 L 167.98 85.39 C 168.42 84.65 168.17 83.69 167.43 83.25 C 166.68 82.82 165.73 83.07 165.29 83.81 Z M 164.72 84.79 L 164.33 85.62 C 163.97 86.40 164.30 87.33 165.08 87.69 C 165.86 88.06 166.79 87.72 167.16 86.94 L 167.55 86.12 C 167.92 85.34 167.58 84.41 166.80 84.04 C 166.02 83.67 165.09 84.01 164.72 84.79 Z M 164.25 85.83 L 163.97 86.78 C 163.72 87.61 164.19 88.48 165.02 88.73 C 165.84 88.97 166.71 88.50 166.96 87.68 L 167.24 86.73 C 167.49 85.90 167.02 85.03 166.19 84.78 C 165.37 84.54 164.50 85.01 164.25 85.83 Z M 163.92 87.02 L 163.79 87.98 C 163.67 88.83 164.27 89.62 165.13 89.74 C 165.98 89.85 166.77 89.25 166.88 88.40 L 167.01 87.44 C 167.13 86.58 166.53 85.80 165.67 85.68 C 164.82 85.57 164.03 86.17 163.92 87.02 Z M 163.77 88.14 L 163.74 89.13 C 163.71 90.00 164.39 90.72 165.25 90.75 C 166.11 90.78 166.83 90.10 166.86 89.24 L 166.89 88.24 C 166.92 87.38 166.25 86.66 165.39 86.63 C 164.53 86.60 163.80 87.27 163.77 88.14 Z M 163.74 89.18 L 163.74 90.15 C 163.74 91.01 164.44 91.71 165.30 91.71 C 166.16 91.71 166.86 91.02 166.86 90.15 L 166.86 89.19 C 166.86 88.33 166.16 87.63 165.30 87.63 C 164.44 87.62 163.74 88.32 163.74 89.18 Z M 163.74 90.15 L 163.74 91.09 C 163.74 91.95 164.44 92.65 165.30 92.65 C 166.16 92.65 166.86 91.95 166.86 91.09 L 166.86 90.15 C 166.86 89.29 166.16 88.59 165.30 88.59 C 164.44 88.59 163.74 89.29 163.74 90.15 Z M 163.74 91.09 L 163.74 92.09 C 163.74 92.95 164.44 93.65 165.30 93.65 C 166.16 93.65 166.86 92.95 166.86 92.09 L 166.86 91.09 C 166.86 90.23 166.16 89.53 165.30 89.53 C 164.44 89.53 163.74 90.23 163.74 91.09 Z M 163.74 92.09 L 163.74 93.14 C 163.74 94.00 164.44 94.70 165.30 94.70 C 166.16 94.70 166.86 94.00 166.86 93.14 L 166.86 92.09 C 166.86 91.22 166.16 90.52 165.30 90.52 C 164.44 90.52 163.74 91.22 163.74 92.09 Z M 163.74 93.14 L 163.74 94.18 C 163.74 95.05 164.44 95.74 165.30 95.74 C 166.16 95.74 166.86 95.05 166.86 94.18 L 166.86 93.14 C 166.86 92.28 166.16 91.58 165.30 91.58 C 164.44 91.58 163.74 92.28 163.74 93.14 Z M 163.74 94.18 L 163.74 95.12 C 163.74 95.98 164.44 96.68 165.30 96.68 C 166.16 96.68 166.86 95.98 166.86 95.12 L 166.86 94.18 C 166.86 93.32 166.16 92.62 165.30 92.62 C 164.44 92.62 163.74 93.32 163.74 94.18 Z M 163.74 95.12 L 163.74 96.09 C 163.74 96.95 164.44 97.65 165.30 97.65 C 166.16 97.65 166.86 96.95 166.86 96.09 L 166.86 95.12 C 166.86 94.26 166.16 93.56 165.30 93.56 C 164.44 93.56 163.74 94.26 163.74 95.12 Z M 163.74 96.09 L 163.74 97.10 C 163.74 97.96 164.44 98.66 165.30 98.66 C 166.16 98.66 166.86 97.96 166.86 97.10 L 166.86 96.09 C 166.86 95.23 166.16 94.53 165.30 94.53 C 164.44 94.53 163.74 95.23 163.74 96.09 Z M 163.74 97.10 L 163.74 98.14 C 163.74 99.00 164.44 99.70 165.30 99.70 C 166.16 99.70 166.86 99.00 166.86 98.14 L 166.86 97.10 C 166.86 96.23 166.16 95.53 165.30 95.53 C 164.44 95.53 163.74 96.23 163.74 97.10 Z M 163.74 98.14 L 163.74 99.20 C 163.74 100.06 164.44 100.76 165.30 100.76 C 166.16 100.76 166.86 100.06 166.86 99.20 L 166.86 98.14 C 166.86 97.28 166.16 96.58 165.30 96.58 C 164.44 96.58 163.74 97.28 163.74 98.14 Z M 163.74 99.20 L 163.74 100.14 C 163.74 101.00 164.44 101.70 165.30 101.70 C 166.16 101.70 166.86 101.00 166.86 100.14 L 166.86 99.20 C 166.86 98.34 166.16 97.64 165.30 97.64 C 164.44 97.64 163.74 98.34 163.74 99.20 Z M 163.74 100.14 L 163.74 101.11 C 163.74 101.97 164.44 102.67 165.30 102.67 C 166.16 102.67 166.86 101.97 166.86 101.11 L 166.86 100.14 C 166.86 99.28 166.16 98.58 165.30 98.58 C 164.44 98.58 163.74 99.28 163.74 100.14 Z M 163.74 101.11 L 163.74 102.10 C 163.74 102.96 164.44 103.66 165.30 103.66 C 166.16 103.66 166.86 102.96 166.86 102.10 L 166.86 101.11 C 166.86 100.24 166.16 99.54 165.30 99.54 C 164.44 99.54 163.74 100.24 163.74 101.11 Z M 163.74 102.10 L 163.74 103.11 C 163.74 103.97 164.44 104.67 165.30 104.67 C 166.16 104.67 166.86 103.97 166.86 103.11 L 166.86 102.10 C 166.86 101.23 166.16 100.53 165.30 100.53 C 164.44 100.53 163.74 101.23 163.74 102.10 Z M 163.74 103.11 L 163.74 104.15 C 163.74 105.01 164.44 105.71 165.30 105.71 C 166.16 105.71 166.86 105.01 166.86 104.15 L 166.86 103.11 C 166.86 102.25 166.16 101.55 165.30 101.55 C 164.44 101.55 163.74 102.25 163.74 103.11 Z M 163.74 104.15 L 163.74 105.21 C 163.74 106.07 164.44 106.77 165.30 106.77 C 166.16 106.77 166.86 106.07 166.86 105.21 L 166.86 104.15 C 166.86 103.29 166.16 102.59 165.30 102.59 C 164.44 102.59 163.74 103.29 163.74 104.15 Z M 163.74 105.21 L 163.74 106.15 C 163.74 107.01 164.44 107.71 165.30 107.71 C 166.16 107.71 166.86 107.01 166.86 106.15 L 166.86 105.21 C 166.86 104.34 166.16 103.65 165.30 103.65 C 164.44 103.65 163.74 104.34 163.74 105.21 Z M 163.74 106.15 L 163.74 107.10 C 163.74 107.96 164.44 108.66 165.30 108.66 C 166.16 108.66 166.86 107.96 166.86 107.10 L 166.86 106.15 C 166.86 105.29 166.16 104.59 165.30 104.59 C 164.44 104.59 163.74 105.29 163.74 106.15 Z M 163.74 107.10 L 163.74 108.07 C 163.74 108.93 164.44 109.63 165.30 109.63 C 166.16 109.63 166.86 108.93 166.86 108.07 L 166.86 107.10 C 166.86 106.24 166.16 105.54 165.30 105.54 C 164.44 105.54 163.74 106.24 163.74 107.10 Z M 163.74 108.07 L 163.74 109.06 C 163.74 109.92 164.44 110.62 165.30 110.62 C 166.16 110.62 166.86 109.92 166.86 109.06 L 166.86 108.07 C 166.86 107.21 166.16 106.51 165.30 106.51 C 164.44 106.51 163.74 107.21 163.74 108.07 Z M 163.74 109.06 L 163.74 110.08 C 163.74 110.94 164.44 111.64 165.30 111.64 C 166.16 111.64 166.86 110.94 166.86 110.08 L 166.86 109.06 C 166.86 108.20 166.16 107.50 165.30 107.50 C 164.44 107.50 163.74 108.20 163.74 109.06 Z M 163.74 110.08 L 163.74 111.12 C 163.74 111.98 164.44 112.68 165.30 112.68 C 166.16 112.68 166.86 111.98 166.86 111.12 L 166.86 110.08 C 166.86 109.22 166.16 108.52 165.30 108.52 C 164.44 108.52 163.74 109.22 163.74 110.08 Z M 163.74 111.12 L 163.74 112.19 C 163.74 113.05 164.44 113.75 165.30 113.75 C 166.16 113.75 166.86 113.05 166.86 112.19 L 166.86 111.12 C 166.86 110.26 166.16 109.56 165.30 109.56 C 164.44 109.56 163.74 110.26 163.74 111.12 Z M 163.74 112.19 L 163.74 113.18 C 163.74 114.04 164.44 114.74 165.30 114.74 C 166.16 114.74 166.86 114.04 166.86 113.18 L 166.86 112.19 C 166.86 111.33 166.16 110.63 165.30 110.63 C 164.44 110.63 163.74 111.33 163.74 112.19 Z M 163.74 113.18 L 163.74 114.15 C 163.74 115.01 164.44 115.71 165.30 115.71 C 166.16 115.71 166.86 115.01 166.86 114.15 L 166.86 113.18 C 166.86 112.31 166.16 111.62 165.30 111.62 C 164.44 111.62 163.74 112.31 163.74 113.18 Z M 163.74 114.15 L 163.74 115.14 C 163.74 116.00 164.44 116.70 165.30 116.70 C 166.16 116.70 166.86 116.00 166.86 115.14 L 166.86 114.15 C 166.86 113.29 166.16 112.59 165.30 112.59 C 164.44 112.59 163.74 113.29 163.74 114.15 Z M 163.74 115.14 L 163.74 116.14 C 163.74 117.00 164.44 117.70 165.30 117.70 C 166.16 117.70 166.86 117.00 166.86 116.14 L 166.86 115.14 C 166.86 114.28 166.16 113.58 165.30 113.58 C 164.44 113.58 163.74 114.28 163.74 115.14 Z M 163.74 116.14 L 163.74 117.15 C 163.74 118.02 164.44 118.71 165.30 118.71 C 166.16 118.71 166.86 118.02 166.86 117.15 L 166.86 116.14 C 166.86 115.28 166.16 114.58 165.30 114.58 C 164.44 114.58 163.74 115.28 163.74 116.14 Z M 163.74 117.15 L 163.74 118.17 C 163.74 119.03 164.44 119.73 165.30 119.73 C 166.16 119.73 166.86 119.03 166.86 118.17 L 166.86 117.15 C 166.86 116.29 166.16 115.59 165.30 115.59 C 164.44 115.59 163.74 116.29 163.74 117.15 Z M 163.74 118.17 L 163.74 119.19 C 163.74 120.05 164.44 120.75 165.30 120.75 C 166.16 120.75 166.86 120.05 166.86 119.19 L 166.86 118.17 C 166.86 117.31 166.16 116.61 165.30 116.61 C 164.44 116.61 163.74 117.31 163.74 118.17 Z M 163.74 119.19 L 163.74 120.21 C 163.74 121.07 164.44 121.77 165.30 121.77 C 166.16 121.77 166.86 121.07 166.86 120.21 L 166.86 119.19 C 166.86 118.33 166.16 117.63 165.30 117.63 C 164.44 117.63 163.74 118.33 163.74 119.19 Z M 163.74 120.21 L 163.74 121.22 C 163.74 122.08 164.44 122.78 165.30 122.78 C 166.16 122.78 166.86 122.08 166.86 121.22 L 166.86 120.21 C 166.86 119.34 166.16 118.64 165.30 118.64 C 164.44 118.64 163.74 119.34 163.74 120.21 Z M 163.74 121.22 L 163.74 122.24 C 163.74 123.10 164.44 123.80 165.30 123.80 C 166.16 123.80 166.86 123.10 166.86 122.24 L 166.86 121.22 C 166.86 120.36 166.16 119.66 165.30 119.66 C 164.44 119.66 163.74 120.36 163.74 121.22 Z M 163.74 122.24 L 163.74 123.25 C 163.74 124.11 164.44 124.81 165.30 124.81 C 166.16 124.81 166.86 124.11 166.86 123.25 L 166.86 122.24 C 166.86 121.38 166.16 120.68 165.30 120.68 C 164.44 120.68 163.74 121.38 163.74 122.24 Z M 163.74 123.25 L 163.74 124.25 C 163.74 125.12 164.44 125.81 165.30 125.81 C 166.16 125.81 166.86 125.12 166.86 124.25 L 166.86 123.25 C 166.86 122.39 166.16 121.69 165.30 121.69 C 164.44 121.69 163.74 122.39 163.74 123.25 Z M 163.74 124.25 L 163.74 125.25 C 163.74 126.11 164.44 126.81 165.30 126.81 C 166.16 126.81 166.86 126.11 166.86 125.25 L 166.86 124.25 C 166.86 123.39 166.16 122.69 165.30 122.69 C 164.44 122.69 163.74 123.39 163.74 124.25 Z M 163.74 125.25 L 163.74 126.25 C 163.74 127.11 164.44 127.81 165.30 127.81 C 166.16 127.81 166.86 127.11 166.86 126.25 L 166.86 125.25 C 166.86 124.39 166.16 123.69 165.30 123.69 C 164.44 123.69 163.74 124.39 163.74 125.25 Z M 163.74 126.25 L 163.74 127.24 C 163.74 128.10 164.44 128.80 165.30 128.80 C 166.16 128.80 166.86 128.10 166.86 127.24 L 166.86 126.25 C 166.86 125.38 166.16 124.68 165.30 124.68 C 164.44 124.68 163.74 125.38 163.74 126.25 Z M 163.74 127.24 L 163.74 128.22 C 163.74 129.08 164.44 129.78 165.30 129.78 C 166.16 129.78 166.86 129.08 166.86 128.22 L 166.86 127.24 C 166.86 126.37 166.16 125.67 165.30 125.67 C 164.44 125.67 163.74 126.37 163.74 127.24 Z M 163.74 128.22 L 163.74 129.22 C 163.74 130.08 164.44 130.78 165.30 130.78 C 166.16 130.78 166.86 130.08 166.86 129.22 L 166.86 128.22 C 166.86 127.36 166.16 126.66 165.30 126.66 C 164.44 126.66 163.74 127.36 163.74 128.22 Z M 163.74 129.22 L 163.74 130.22 C 163.74 131.09 164.44 131.79 165.30 131.79 C 166.16 131.79 166.86 131.09 166.86 130.22 L 166.86 129.22 C 166.86 128.35 166.16 127.65 165.30 127.65 C 164.44 127.65 163.74 128.35 163.74 129.22 Z M 163.74 130.22 L 163.74 131.23 C 163.74 132.09 164.44 132.79 165.30 132.79 C 166.16 132.79 166.86 132.09 166.86 131.23 L 166.86 130.22 C 166.86 129.36 166.16 128.66 165.30 128.66 C 164.44 128.66 163.74 129.36 163.74 130.22 Z M 163.74 131.23 L 163.74 132.24 C 163.74 133.10 164.44 133.80 165.30 133.80 C 166.16 133.80 166.86 133.10 166.86 132.24 L 166.86 131.23 C 166.86 130.37 166.16 129.67 165.30 129.67 C 164.44 129.67 163.74 130.37 163.74 131.23 Z M 163.74 132.24 L 163.74 133.24 C 163.74 134.10 164.44 134.80 165.30 134.80 C 166.16 134.80 166.86 134.10 166.86 133.24 L 166.86 132.24 C 166.86 131.37 166.16 130.67 165.30 130.67 C 164.44 130.67 163.74 131.37 163.74 132.24 Z M 163.74 133.24 L 163.74 134.23 C 163.74 135.10 164.44 135.80 165.30 135.80 C 166.16 135.80 166.86 135.10 166.86 134.23 L 166.86 133.24 C 166.86 132.37 166.16 131.68 165.30 131.68 C 164.44 131.68 163.74 132.37 163.74 133.24 Z M 163.74 134.23 L 163.74 135.23 C 163.74 136.09 164.44 136.79 165.30 136.79 C 166.16 136.79 166.86 136.09 166.86 135.23 L 166.86 134.23 C 166.86 133.37 166.16 132.67 165.30 132.67 C 164.44 132.67 163.74 133.37 163.74 134.23 Z M 163.74 135.23 L 163.74 136.22 C 163.74 137.08 164.44 137.78 165.30 137.78 C 166.16 137.78 166.86 137.08 166.86 136.22 L 166.86 135.23 C 166.86 134.37 166.16 133.67 165.30 133.67 C 164.44 133.67 163.74 134.37 163.74 135.23 Z M 163.74 136.22 L 163.74 137.22 C 163.74 138.08 164.44 138.78 165.30 138.78 C 166.16 138.78 166.86 138.08 166.86 137.22 L 166.86 136.22 C 166.86 135.36 166.16 134.66 165.30 134.66 C 164.44 134.66 163.74 135.36 163.74 136.22 Z M 163.74 137.22 L 163.74 138.24 C 163.74 139.11 164.44 139.80 165.30 139.80 C 166.16 139.80 166.86 139.11 166.86 138.24 L 166.86 137.22 C 166.86 136.36 166.16 135.66 165.30 135.66 C 164.44 135.66 163.74 136.36 163.74 137.22 Z M 163.74 138.24 L 163.74 139.26 C 163.74 140.12 164.44 140.82 165.30 140.82 C 166.16 140.82 166.86 140.12 166.86 139.26 L 166.86 138.24 C 166.86 137.38 166.16 136.68 165.30 136.68 C 164.44 136.68 163.74 137.38 163.74 138.24 Z M 163.74 139.26 L 163.74 140.27 C 163.74 141.13 164.44 141.83 165.30 141.83 C 166.16 141.83 166.86 141.13 166.86 140.27 L 166.86 139.26 C 166.86 138.40 166.16 137.70 165.30 137.70 C 164.44 137.70 163.74 138.40 163.74 139.26 Z M 163.74 140.27 L 163.74 141.27 C 163.74 142.13 164.44 142.83 165.30 142.83 C 166.16 142.83 166.86 142.13 166.86 141.27 L 166.86 140.27 C 166.86 139.41 166.16 138.71 165.30 138.71 C 164.44 138.71 163.74 139.41 163.74 140.27 Z M 163.74 141.27 L 163.74 142.26 C 163.74 143.12 164.44 143.82 165.30 143.82 C 166.16 143.82 166.86 143.12 166.86 142.26 L 166.86 141.27 C 166.86 140.41 166.16 139.71 165.30 139.71 C 164.44 139.71 163.74 140.41 163.74 141.27 Z M 163.74 142.26 L 163.74 143.25 C 163.74 144.11 164.44 144.81 165.30 144.81 C 166.16 144.81 166.86 144.11 166.86 143.25 L 166.86 142.26 C 166.86 141.40 166.16 140.70 165.30 140.70 C 164.44 140.70 163.74 141.40 163.74 142.26 Z M 163.74 143.25 L 163.74 144.22 C 163.74 145.08 164.44 145.78 165.30 145.78 C 166.16 145.78 166.86 145.08 166.86 144.22 L 166.86 143.25 C 166.86 142.38 166.16 141.68 165.30 141.68 C 164.44 141.68 163.74 142.38 163.74 143.25 Z M 163.74 144.22 L 163.74 145.24 C 163.74 146.11 164.44 146.81 165.30 146.81 C 166.16 146.81 166.86 146.11 166.86 145.24 L 166.86 144.22 C 166.86 143.36 166.16 142.66 165.30 142.66 C 164.44 142.66 163.74 143.36 163.74 144.22 Z M 163.74 145.24 L 163.74 146.27 C 163.74 147.14 164.44 147.84 165.30 147.84 C 166.16 147.84 166.86 147.14 166.86 146.27 L 166.86 145.24 C 166.86 144.38 166.16 143.68 165.30 143.68 C 164.44 143.68 163.74 144.38 163.74 145.24 Z M 163.74 146.27 L 163.74 147.29 C 163.74 148.15 164.44 148.85 165.30 148.85 C 166.16 148.85 166.86 148.15 166.86 147.29 L 166.86 146.27 C 166.86 145.41 166.16 144.71 165.30 144.71 C 164.44 144.71 163.74 145.41 163.74 146.27 Z M 163.74 147.29 L 163.74 148.29 C 163.74 149.16 164.44 149.86 165.30 149.86 C 166.16 149.86 166.86 149.16 166.86 148.29 L 166.86 147.29 C 166.86 146.43 166.16 145.73 165.30 145.73 C 164.44 145.73 163.74 146.43 163.74 147.29 Z M 163.74 148.29 L 163.74 149.28 C 163.74 150.15 164.44 150.85 165.30 150.85 C 166.16 150.85 166.86 150.15 166.86 149.28 L 166.86 148.29 C 166.86 147.43 166.16 146.73 165.30 146.73 C 164.44 146.73 163.74 147.43 163.74 148.29 Z M 163.74 149.28 L 163.74 150.26 C 163.74 151.12 164.44 151.82 165.30 151.82 C 166.16 151.82 166.86 151.12 166.86 150.26 L 166.86 149.28 C 166.86 148.42 166.16 147.72 165.30 147.72 C 164.44 147.72 163.74 148.42 163.74 149.28 Z M 163.74 150.26 L 163.74 151.22 C 163.74 152.09 164.44 152.78 165.30 152.78 C 166.16 152.78 166.86 152.09 166.86 151.22 L 166.86 150.26 C 166.86 149.40 166.16 148.70 165.30 148.70 C 164.44 148.70 163.74 149.40 163.74 150.26 Z M 163.74 151.22 L 163.74 152.22 C 163.74 153.08 164.44 153.78 165.30 153.78 C 166.16 153.78 166.86 153.08 166.86 152.22 L 166.86 151.22 C 166.86 150.36 166.16 149.66 165.30 149.66 C 164.44 149.66 163.74 150.36 163.74 151.22 Z M 163.74 152.22 L 163.74 153.22 C 163.74 154.08 164.44 154.78 165.30 154.78 C 166.16 154.78 166.86 154.08 166.86 153.22 L 166.86 152.22 C 166.86 151.36 166.16 150.66 165.30 150.66 C 164.44 150.66 163.74 151.36 163.74 152.22 Z M 163.74 153.22 L 163.74 154.22 C 163.74 155.08 164.44 155.78 165.30 155.78 C 166.16 155.78 166.86 155.08 166.86 154.22 L 166.86 153.22 C 166.86 152.36 166.16 151.66 165.30 151.66 C 164.44 151.66 163.74 152.36 163.74 153.22 Z M 163.74 154.22 L 163.74 155.21 C 163.74 156.07 164.44 156.77 165.30 156.77 C 166.16 156.77 166.86 156.07 166.86 155.21 L 166.86 154.22 C 166.86 153.35 166.16 152.65 165.30 152.65 C 164.44 152.65 163.74 153.35 163.74 154.22 Z M 163.74 155.21 L 163.74 156.20 C 163.74 157.06 164.44 157.76 165.30 157.76 C 166.16 157.76 166.86 157.06 166.86 156.20 L 166.86 155.21 C 166.86 154.35 166.16 153.65 165.30 153.65 C 164.44 153.65 163.74 154.35 163.74 155.21 Z M 163.74 156.20 L 163.74 157.20 C 163.74 158.06 164.44 158.76 165.30 158.76 C 166.16 158.76 166.86 158.06 166.86 157.20 L 166.86 156.20 C 166.86 155.34 166.16 154.64 165.30 154.64 C 164.44 154.64 163.74 155.34 163.74 156.20 Z M 163.74 157.20 L 163.74 158.21 C 163.74 159.08 164.44 159.78 165.30 159.78 C 166.16 159.78 166.86 159.08 166.86 158.21 L 166.86 157.20 C 166.86 156.34 166.16 155.64 165.30 155.64 C 164.44 155.64 163.74 156.34 163.74 157.20 Z M 163.74 158.21 L 163.74 159.23 C 163.74 160.10 164.44 160.80 165.30 160.80 C 166.16 160.80 166.86 160.10 166.86 159.23 L 166.86 158.21 C 166.86 157.35 166.16 156.65 165.30 156.65 C 164.44 156.65 163.74 157.35 163.74 158.21 Z M 163.74 159.23 L 163.74 160.26 C 163.74 161.12 164.44 161.82 165.30 161.82 C 166.16 161.82 166.86 161.12 166.86 160.26 L 166.86 159.23 C 166.86 158.37 166.16 157.67 165.30 157.67 C 164.44 157.67 163.74 158.37 163.74 159.23 Z M 163.74 160.26 L 163.74 161.28 C 163.74 162.15 164.44 162.84 165.30 162.84 C 166.16 162.84 166.86 162.15 166.86 161.28 L 166.86 160.26 C 166.86 159.40 166.16 158.70 165.30 158.70 C 164.44 158.70 163.74 159.40 163.74 160.26 Z M 163.74 161.28 L 163.74 162.29 C 163.74 163.16 164.44 163.86 165.30 163.86 C 166.16 163.86 166.86 163.16 166.86 162.29 L 166.86 161.28 C 166.86 160.42 166.16 159.72 165.30 159.72 C 164.44 159.72 163.74 160.42 163.74 161.28 Z M 163.74 162.29 L 163.74 163.28 C 163.74 164.15 164.44 164.84 165.30 164.84 C 166.16 164.84 166.86 164.15 166.86 163.28 L 166.86 162.29 C 166.86 161.43 166.16 160.73 165.30 160.73 C 164.44 160.73 163.74 161.43 163.74 162.29 Z M 163.74 163.28 L 163.74 164.24 C 163.74 165.10 164.44 165.80 165.30 165.80 C 166.16 165.80 166.86 165.10 166.86 164.24 L 166.86 163.28 C 166.86 162.42 166.16 161.72 165.30 161.72 C 164.44 161.72 163.74 162.42 163.74 163.28 Z M 163.74 164.24 L 163.74 165.27 C 163.74 166.13 164.44 166.83 165.30 166.83 C 166.16 166.83 166.86 166.13 166.86 165.27 L 166.86 164.24 C 166.86 163.38 166.16 162.68 165.30 162.68 C 164.44 162.68 163.74 163.38 163.74 164.24 Z M 163.74 165.27 L 163.74 166.32 C 163.74 167.19 164.44 167.89 165.30 167.89 C 166.16 167.89 166.86 167.19 166.86 166.33 L 166.86 165.27 C 166.86 164.41 166.16 163.71 165.30 163.71 C 164.44 163.70 163.74 164.40 163.74 165.27 Z M 163.74 166.32 L 163.74 167.34 C 163.73 168.20 164.43 168.90 165.29 168.90 C 166.16 168.90 166.86 168.20 166.86 167.34 L 166.86 166.33 C 166.86 165.47 166.16 164.77 165.30 164.76 C 164.44 164.76 163.74 165.46 163.74 166.32 Z M 163.74 167.33 L 163.73 168.31 C 163.73 169.17 164.42 169.87 165.29 169.88 C 166.15 169.88 166.85 169.18 166.85 168.32 L 166.86 167.34 C 166.86 166.48 166.17 165.78 165.30 165.78 C 164.44 165.77 163.74 166.47 163.74 167.33 Z M 163.73 168.30 L 163.73 169.26 C 163.72 170.12 164.41 170.82 165.28 170.83 C 166.14 170.83 166.84 170.14 166.85 169.28 L 166.85 168.33 C 166.86 167.46 166.17 166.76 165.30 166.75 C 164.44 166.75 163.74 167.44 163.73 168.30 Z M 163.73 169.25 L 163.71 170.20 C 163.71 171.06 164.40 171.76 165.26 171.77 C 166.12 171.78 166.83 171.09 166.84 170.23 L 166.85 169.28 C 166.86 168.42 166.17 167.72 165.30 167.71 C 164.44 167.70 163.73 168.39 163.73 169.25 Z M 163.72 170.19 L 163.70 171.21 C 163.68 172.07 164.37 172.78 165.23 172.79 C 166.10 172.81 166.81 172.12 166.82 171.26 L 166.84 170.24 C 166.85 169.38 166.16 168.67 165.30 168.65 C 164.44 168.64 163.73 169.33 163.72 170.19 Z M 163.70 171.20 L 163.68 172.21 C 163.66 173.07 164.34 173.78 165.20 173.80 C 166.07 173.82 166.78 173.14 166.80 172.28 L 166.82 171.26 C 166.84 170.40 166.16 169.69 165.29 169.67 C 164.43 169.65 163.72 170.34 163.70 171.20 Z M 163.68 172.20 L 163.65 173.20 C 163.63 174.06 164.31 174.78 165.17 174.80 C 166.03 174.83 166.75 174.15 166.77 173.28 L 166.80 172.28 C 166.82 171.42 166.14 170.70 165.28 170.68 C 164.42 170.66 163.70 171.34 163.68 172.20 Z M 163.65 173.19 L 163.62 174.18 C 163.59 175.04 164.27 175.76 165.13 175.79 C 165.99 175.82 166.71 175.14 166.74 174.28 L 166.77 173.29 C 166.80 172.43 166.12 171.71 165.26 171.68 C 164.40 171.65 163.68 172.33 163.65 173.19 Z M 163.62 174.17 L 163.58 175.15 C 163.55 176.02 164.22 176.74 165.08 176.77 C 165.94 176.81 166.67 176.14 166.70 175.27 L 166.74 174.29 C 166.77 173.43 166.10 172.71 165.24 172.67 C 164.38 172.64 163.65 173.31 163.62 174.17 Z M 163.58 175.14 L 163.53 176.19 C 163.50 177.05 164.16 177.78 165.02 177.82 C 165.89 177.86 166.62 177.19 166.65 176.33 L 166.70 175.28 C 166.74 174.42 166.07 173.69 165.21 173.65 C 164.35 173.62 163.62 174.28 163.58 175.14 Z M 163.54 176.18 L 163.49 177.20 C 163.44 178.07 164.11 178.80 164.97 178.84 C 165.83 178.88 166.56 178.22 166.60 177.36 L 166.65 176.34 C 166.70 175.47 166.03 174.74 165.17 174.70 C 164.31 174.66 163.58 175.32 163.54 176.18 Z M 163.49 177.20 L 163.43 178.20 C 163.39 179.06 164.05 179.79 164.92 179.83 C 165.78 179.88 166.51 179.21 166.55 178.35 L 166.60 177.36 C 166.65 176.50 165.98 175.76 165.12 175.72 C 164.26 175.68 163.53 176.34 163.49 177.20 Z M 163.43 178.20 L 163.39 179.16 C 163.34 180.02 164.01 180.75 164.87 180.80 C 165.73 180.84 166.46 180.18 166.51 179.31 L 166.55 178.35 C 166.60 177.49 165.93 176.76 165.07 176.71 C 164.21 176.67 163.48 177.33 163.43 178.20 Z M 163.39 179.16 L 163.34 180.17 C 163.30 181.03 163.96 181.76 164.83 181.80 C 165.69 181.84 166.42 181.18 166.46 180.32 L 166.51 179.31 C 166.55 178.45 165.88 177.72 165.02 177.68 C 164.16 177.64 163.43 178.30 163.39 179.16 Z M 163.34 180.18 L 163.30 181.22 C 163.26 182.08 163.93 182.81 164.79 182.84 C 165.65 182.88 166.38 182.21 166.42 181.35 L 166.46 180.31 C 166.49 179.45 165.83 178.72 164.96 178.68 C 164.10 178.65 163.38 179.32 163.34 180.18 Z M 163.30 181.22 L 163.26 182.22 C 163.22 183.08 163.90 183.80 164.76 183.84 C 165.62 183.87 166.34 183.20 166.38 182.34 L 166.42 181.34 C 166.45 180.48 165.78 179.76 164.92 179.72 C 164.05 179.69 163.33 180.36 163.30 181.22 Z M 163.26 182.22 L 163.22 183.17 C 163.19 184.03 163.86 184.76 164.72 184.79 C 165.59 184.82 166.31 184.15 166.34 183.29 L 166.38 182.33 C 166.41 181.47 165.74 180.75 164.87 180.72 C 164.01 180.69 163.29 181.36 163.26 182.22 Z M 163.22 183.17 L 163.18 184.17 C 163.15 185.04 163.83 185.76 164.69 185.79 C 165.55 185.82 166.27 185.15 166.31 184.29 L 166.34 183.29 C 166.37 182.43 165.70 181.70 164.84 181.67 C 163.98 181.64 163.25 182.31 163.22 183.17 Z M 163.18 184.18 L 163.15 185.19 C 163.12 186.05 163.79 186.78 164.65 186.81 C 165.51 186.84 166.24 186.17 166.27 185.31 L 166.31 184.29 C 166.34 183.43 165.66 182.70 164.80 182.67 C 163.94 182.64 163.22 183.31 163.18 184.18 Z M 163.15 185.20 L 163.12 186.18 C 163.09 187.04 163.76 187.76 164.63 187.79 C 165.49 187.82 166.21 187.14 166.24 186.28 L 166.27 185.30 C 166.30 184.44 165.62 183.72 164.76 183.69 C 163.90 183.66 163.18 184.34 163.15 185.20 Z M 163.12 186.20 L 163.09 187.17 C 163.07 188.03 163.75 188.74 164.62 188.76 C 165.48 188.78 166.19 188.10 166.21 187.24 L 166.24 186.27 C 166.26 185.41 165.57 184.69 164.71 184.67 C 163.85 184.65 163.14 185.33 163.12 186.20 Z M 163.09 187.18 L 163.08 188.19 C 163.07 189.05 163.76 189.76 164.62 189.77 C 165.48 189.78 166.19 189.09 166.20 188.23 L 166.21 187.22 C 166.23 186.36 165.54 185.65 164.67 185.64 C 163.81 185.63 163.10 186.32 163.09 187.18 Z M 163.08 188.20 L 163.08 189.20 C 163.07 190.06 163.77 190.76 164.63 190.76 C 165.49 190.77 166.19 190.07 166.20 189.21 L 166.20 188.22 C 166.21 187.35 165.51 186.65 164.65 186.65 C 163.79 186.64 163.08 187.34 163.08 188.20 Z M 163.08 189.20 L 163.08 190.19 C 163.07 191.05 163.77 191.75 164.64 191.75 C 165.50 191.75 166.20 191.06 166.20 190.19 L 166.20 189.20 C 166.20 188.34 165.50 187.64 164.64 187.64 C 163.78 187.64 163.08 188.34 163.08 189.20 Z M 163.08 190.20 L 163.08 191.15 C 163.08 192.02 163.78 192.71 164.64 192.71 C 165.51 192.71 166.20 192.01 166.20 191.15 L 166.20 190.19 C 166.20 189.33 165.49 188.63 164.63 188.63 C 163.77 188.63 163.07 189.33 163.08 190.20 Z M 163.08 191.17 L 163.09 192.17 C 163.11 193.03 163.82 193.72 164.68 193.70 C 165.54 193.69 166.23 192.98 166.22 192.12 L 166.20 191.13 C 166.19 190.26 165.48 189.58 164.62 189.59 C 163.75 189.60 163.06 190.31 163.08 191.17 Z M 163.09 192.20 L 163.13 193.24 C 163.16 194.10 163.89 194.78 164.75 194.74 C 165.61 194.71 166.29 193.99 166.25 193.13 L 166.21 192.08 C 166.18 191.22 165.46 190.55 164.60 190.58 C 163.73 190.61 163.06 191.34 163.09 192.20 Z M 163.14 193.30 L 163.21 194.36 C 163.27 195.22 164.02 195.87 164.88 195.81 C 165.74 195.74 166.39 195.00 166.33 194.14 L 166.25 193.07 C 166.19 192.21 165.44 191.57 164.58 191.63 C 163.72 191.69 163.07 192.44 163.14 193.30 Z M 163.23 194.49 L 163.39 195.53 C 163.53 196.38 164.33 196.96 165.18 196.82 C 166.03 196.69 166.61 195.89 166.47 195.04 L 166.31 194.00 C 166.18 193.15 165.38 192.57 164.52 192.71 C 163.67 192.84 163.09 193.64 163.23 194.49 Z M 163.46 195.80 L 163.78 196.70 C 164.07 197.52 164.96 197.94 165.77 197.66 C 166.58 197.37 167.01 196.48 166.72 195.67 L 166.41 194.76 C 166.12 193.95 165.23 193.52 164.41 193.81 C 163.60 194.10 163.17 194.99 163.46 195.80 Z M 164.04 197.17 L 164.60 197.85 C 165.15 198.52 166.13 198.62 166.80 198.07 C 167.46 197.53 167.56 196.54 167.02 195.88 L 166.46 195.20 C 165.91 194.53 164.93 194.43 164.26 194.98 C 163.60 195.52 163.50 196.51 164.04 197.17 Z M 165.12 198.27 L 165.95 198.67 C 166.73 199.05 167.66 198.73 168.04 197.96 C 168.42 197.18 168.10 196.25 167.33 195.87 L 166.49 195.46 C 165.72 195.08 164.78 195.41 164.41 196.18 C 164.03 196.95 164.35 197.89 165.12 198.27 Z M 166.37 198.81 L 167.38 198.99 C 168.23 199.13 169.04 198.57 169.18 197.72 C 169.33 196.87 168.76 196.06 167.91 195.91 L 166.91 195.73 C 166.06 195.59 165.25 196.15 165.10 197.00 C 164.95 197.85 165.52 198.66 166.37 198.81 Z M 167.60 199.01 L 168.67 199.04 C 169.53 199.06 170.25 198.38 170.27 197.52 C 170.30 196.66 169.62 195.94 168.76 195.92 L 167.69 195.89 C 166.83 195.86 166.11 196.54 166.09 197.40 C 166.06 198.27 166.74 198.98 167.60 199.01 Z M 168.78 199.04 L 169.78 199.00 C 170.64 198.96 171.31 198.24 171.28 197.38 C 171.24 196.52 170.52 195.84 169.65 195.88 L 168.65 195.92 C 167.79 195.95 167.12 196.68 167.15 197.54 C 167.19 198.40 167.91 199.07 168.78 199.04 Z M 169.84 199.00 L 170.84 198.92 C 171.70 198.85 172.34 198.10 172.27 197.24 C 172.21 196.38 171.46 195.74 170.60 195.80 L 169.60 195.88 C 168.74 195.95 168.09 196.70 168.16 197.56 C 168.23 198.42 168.98 199.06 169.84 199.00 Z M 170.87 198.92 L 171.86 198.82 C 172.72 198.74 173.35 197.98 173.26 197.12 C 173.18 196.26 172.42 195.63 171.56 195.71 L 170.57 195.81 C 169.71 195.89 169.08 196.65 169.16 197.51 C 169.25 198.37 170.01 199.00 170.87 198.92 Z M 171.86 198.82 L 172.84 198.73 C 173.69 198.65 174.32 197.89 174.24 197.03 C 174.16 196.17 173.40 195.54 172.54 195.62 L 171.56 195.71 C 170.71 195.79 170.07 196.55 170.16 197.41 C 170.24 198.27 171.00 198.90 171.86 198.82 Z M 172.82 198.73 L 173.79 198.65 C 174.65 198.58 175.29 197.83 175.22 196.97 C 175.15 196.11 174.40 195.47 173.54 195.54 L 172.56 195.62 C 171.70 195.69 171.06 196.44 171.13 197.30 C 171.20 198.16 171.96 198.80 172.82 198.73 Z M 173.77 198.65 L 174.76 198.59 C 175.62 198.53 176.28 197.79 176.22 196.93 C 176.17 196.07 175.43 195.42 174.57 195.47 L 173.57 195.54 C 172.71 195.59 172.05 196.33 172.11 197.19 C 172.16 198.05 172.91 198.71 173.77 198.65 Z M 174.73 198.59 L 175.75 198.55 C 176.61 198.51 177.28 197.78 177.24 196.92 C 177.20 196.06 176.47 195.39 175.61 195.43 L 174.60 195.47 C 173.74 195.51 173.07 196.24 173.11 197.10 C 173.14 197.96 173.87 198.63 174.73 198.59 Z M 175.72 198.55 L 176.66 198.53 C 177.52 198.50 178.20 197.79 178.18 196.93 C 178.16 196.06 177.44 195.38 176.58 195.40 L 175.64 195.43 C 174.78 195.45 174.10 196.16 174.12 197.02 C 174.14 197.89 174.85 198.57 175.72 198.55 Z M 176.64 198.53 L 177.62 198.51 C 178.48 198.50 179.18 197.80 179.17 196.94 C 179.16 196.07 178.45 195.38 177.59 195.39 L 176.60 195.40 C 175.74 195.41 175.05 196.12 175.06 196.98 C 175.07 197.84 175.77 198.54 176.64 198.53 Z M 177.61 198.51 L 178.64 198.51 C 179.50 198.51 180.20 197.81 180.19 196.94 C 180.19 196.08 179.49 195.38 178.63 195.39 L 177.60 195.39 C 176.74 195.40 176.04 196.10 176.04 196.96 C 176.05 197.82 176.75 198.52 177.61 198.51 Z M 178.63 198.51 L 179.69 198.51 C 180.55 198.51 181.25 197.81 181.25 196.95 C 181.25 196.09 180.55 195.39 179.69 195.39 L 178.63 195.39 C 177.77 195.39 177.07 196.09 177.07 196.95 C 177.07 197.81 177.77 198.51 178.63 198.51 Z M 179.69 198.51 L 180.63 198.51 C 181.50 198.51 182.20 197.81 182.20 196.95 C 182.20 196.09 181.50 195.39 180.64 195.39 L 179.69 195.39 C 178.83 195.39 178.13 196.08 178.13 196.95 C 178.13 197.81 178.82 198.51 179.69 198.51 Z M 180.63 198.51 L 181.60 198.52 C 182.46 198.52 183.17 197.83 183.17 196.97 C 183.18 196.10 182.48 195.40 181.62 195.39 L 180.65 195.39 C 179.78 195.38 179.08 196.08 179.07 196.94 C 179.07 197.80 179.76 198.51 180.63 198.51 Z M 181.59 198.52 L 182.59 198.53 C 183.45 198.55 184.16 197.86 184.18 197.00 C 184.19 196.14 183.51 195.43 182.64 195.41 L 181.64 195.40 C 180.78 195.38 180.07 196.07 180.05 196.93 C 180.04 197.79 180.72 198.50 181.59 198.52 Z M 182.57 198.53 L 183.60 198.56 C 184.47 198.59 185.19 197.91 185.21 197.05 C 185.24 196.19 184.56 195.47 183.70 195.44 L 182.67 195.41 C 181.80 195.39 181.08 196.06 181.06 196.92 C 181.03 197.79 181.71 198.51 182.57 198.53 Z M 183.58 198.56 L 184.61 198.61 C 185.47 198.66 186.20 197.99 186.25 197.13 C 186.29 196.27 185.62 195.54 184.76 195.49 L 183.73 195.45 C 182.87 195.40 182.13 196.07 182.09 196.93 C 182.05 197.79 182.72 198.52 183.58 198.56 Z M 184.58 198.61 L 185.58 198.68 C 186.44 198.74 187.18 198.09 187.24 197.23 C 187.30 196.37 186.65 195.62 185.78 195.56 L 184.79 195.50 C 183.93 195.44 183.19 196.09 183.13 196.95 C 183.07 197.81 183.72 198.55 184.58 198.61 Z M 185.55 198.68 L 186.55 198.76 C 187.41 198.84 188.17 198.20 188.24 197.34 C 188.31 196.48 187.68 195.73 186.82 195.65 L 185.81 195.57 C 184.95 195.49 184.20 196.13 184.12 196.99 C 184.05 197.85 184.69 198.60 185.55 198.68 Z M 186.52 198.76 L 187.53 198.87 C 188.38 198.96 189.15 198.33 189.24 197.48 C 189.33 196.62 188.71 195.85 187.85 195.76 L 186.85 195.65 C 185.99 195.56 185.22 196.19 185.13 197.04 C 185.04 197.90 185.66 198.67 186.52 198.76 Z M 187.49 198.86 L 188.49 198.99 C 189.35 199.09 190.13 198.49 190.23 197.63 C 190.34 196.78 189.73 196.00 188.88 195.89 L 187.88 195.76 C 187.03 195.66 186.25 196.26 186.14 197.12 C 186.03 197.97 186.64 198.75 187.49 198.86 Z M 188.46 198.98 L 189.43 199.13 C 190.29 199.25 191.08 198.66 191.21 197.81 C 191.33 196.96 190.74 196.16 189.89 196.04 L 188.91 195.89 C 188.06 195.77 187.27 196.36 187.14 197.21 C 187.01 198.06 187.60 198.86 188.46 198.98 Z M 189.40 199.12 L 190.38 199.29 C 191.23 199.44 192.04 198.87 192.18 198.02 C 192.33 197.17 191.76 196.36 190.91 196.21 L 189.93 196.04 C 189.08 195.90 188.27 196.47 188.12 197.32 C 187.98 198.17 188.55 198.98 189.40 199.12 Z M 190.35 199.28 L 191.32 199.47 C 192.16 199.63 192.98 199.07 193.14 198.23 C 193.30 197.38 192.75 196.56 191.90 196.40 L 190.93 196.22 C 190.09 196.06 189.27 196.61 189.11 197.46 C 188.95 198.31 189.50 199.12 190.35 199.28 Z M 191.30 199.47 L 192.27 199.66 C 193.11 199.83 193.94 199.28 194.11 198.43 C 194.28 197.59 193.73 196.77 192.88 196.60 L 191.91 196.40 C 191.07 196.23 190.25 196.78 190.08 197.63 C 189.91 198.47 190.46 199.30 191.30 199.47 Z M 192.27 199.66 L 193.25 199.86 C 194.10 200.03 194.92 199.48 195.09 198.64 C 195.26 197.79 194.71 196.97 193.87 196.80 L 192.88 196.60 C 192.04 196.43 191.22 196.97 191.05 197.82 C 190.87 198.66 191.42 199.49 192.27 199.66 Z M 193.26 199.86 L 194.27 200.06 C 195.12 200.22 195.94 199.67 196.10 198.82 C 196.27 197.98 195.72 197.16 194.87 196.99 L 193.86 196.79 C 193.01 196.63 192.19 197.18 192.03 198.03 C 191.86 198.87 192.41 199.69 193.26 199.86 Z M 194.29 200.06 L 195.26 200.24 C 196.11 200.39 196.92 199.83 197.07 198.98 C 197.23 198.13 196.67 197.32 195.82 197.17 L 194.85 196.99 C 194.00 196.83 193.19 197.39 193.04 198.24 C 192.88 199.09 193.44 199.90 194.29 200.06 Z M 195.28 200.24 L 196.27 200.41 C 197.12 200.55 197.93 199.98 198.07 199.13 C 198.21 198.28 197.64 197.47 196.79 197.33 L 195.80 197.16 C 194.95 197.02 194.14 197.59 194.00 198.44 C 193.86 199.29 194.43 200.10 195.28 200.24 Z M 196.29 200.41 L 197.30 200.57 C 198.15 200.70 198.95 200.11 199.08 199.26 C 199.21 198.41 198.62 197.61 197.77 197.48 L 196.77 197.33 C 195.92 197.20 195.12 197.78 194.99 198.63 C 194.86 199.48 195.44 200.28 196.29 200.41 Z M 197.33 200.57 L 198.33 200.71 C 199.18 200.82 199.97 200.22 200.09 199.37 C 200.20 198.51 199.60 197.73 198.75 197.61 L 197.74 197.48 C 196.89 197.36 196.10 197.96 195.99 198.81 C 195.87 199.67 196.47 200.45 197.33 200.57 Z M 198.36 200.71 L 199.35 200.82 C 200.21 200.92 200.98 200.30 201.08 199.45 C 201.18 198.59 200.56 197.82 199.70 197.72 L 198.71 197.61 C 197.86 197.51 197.08 198.13 196.99 198.98 C 196.89 199.84 197.51 200.61 198.36 200.71 Z M 199.40 200.83 L 200.48 200.92 C 201.34 200.99 202.09 200.35 202.16 199.49 C 202.24 198.63 201.60 197.88 200.74 197.81 L 199.66 197.71 C 198.80 197.64 198.04 198.28 197.97 199.14 C 197.90 200.00 198.54 200.75 199.40 200.83 Z M 200.55 200.92 L 201.68 200.96 C 202.54 201.00 203.27 200.32 203.30 199.46 C 203.33 198.60 202.66 197.88 201.80 197.84 L 200.67 197.80 C 199.80 197.77 199.08 198.44 199.05 199.30 C 199.02 200.16 199.69 200.89 200.55 200.92 Z M 201.81 200.96 L 202.84 200.92 C 203.70 200.88 204.36 200.15 204.33 199.29 C 204.29 198.43 203.56 197.76 202.70 197.80 L 201.67 197.84 C 200.81 197.88 200.14 198.61 200.18 199.47 C 200.22 200.33 200.94 201.00 201.81 200.96 Z M 203.04 200.90 L 203.94 200.74 C 204.79 200.59 205.35 199.78 205.20 198.93 C 205.05 198.08 204.24 197.51 203.39 197.66 L 202.50 197.82 C 201.65 197.97 201.08 198.78 201.23 199.63 C 201.38 200.48 202.19 201.05 203.04 200.90 Z M 204.26 200.64 L 205.01 200.33 C 205.81 200.00 206.19 199.09 205.86 198.29 C 205.53 197.50 204.62 197.12 203.83 197.45 L 203.07 197.76 C 202.27 198.09 201.89 199.00 202.22 199.80 C 202.55 200.59 203.46 200.97 204.26 200.64 Z M 205.48 200.03 L 206.18 199.39 C 206.81 198.80 206.84 197.81 206.26 197.18 C 205.67 196.55 204.68 196.51 204.05 197.10 L 203.36 197.75 C 202.73 198.33 202.69 199.32 203.28 199.95 C 203.86 200.58 204.85 200.62 205.48 200.03 Z M 206.52 198.92 L 206.94 198.05 C 207.31 197.27 206.98 196.34 206.21 195.97 C 205.43 195.59 204.50 195.92 204.12 196.70 L 203.71 197.57 C 203.33 198.35 203.66 199.28 204.44 199.65 C 205.22 200.02 206.15 199.70 206.52 198.92 Z M 207.06 197.67 L 207.26 196.64 C 207.43 195.80 206.87 194.98 206.03 194.81 C 205.18 194.65 204.36 195.20 204.20 196.05 L 204.00 197.08 C 203.83 197.93 204.39 198.74 205.23 198.91 C 206.08 199.07 206.90 198.52 207.06 197.67 Z M 207.29 196.41 L 207.33 195.50 C 207.37 194.64 206.70 193.91 205.84 193.88 C 204.98 193.84 204.25 194.51 204.21 195.37 L 204.17 196.28 C 204.13 197.14 204.80 197.87 205.66 197.91 C 206.52 197.94 207.25 197.28 207.29 196.41 Z M 207.33 195.35 L 207.28 194.43 C 207.23 193.57 206.49 192.91 205.63 192.96 C 204.77 193.01 204.11 193.75 204.16 194.61 L 204.21 195.52 C 204.26 196.39 205.00 197.04 205.86 196.99 C 206.72 196.94 207.38 196.21 207.33 195.35 Z M 207.26 194.29 L 207.12 193.31 C 207.00 192.45 206.20 191.86 205.35 191.98 C 204.50 192.11 203.91 192.90 204.03 193.75 L 204.17 194.74 C 204.30 195.60 205.09 196.19 205.94 196.06 C 206.79 195.94 207.39 195.15 207.26 194.29 Z M 207.10 193.19 L 206.86 192.12 C 206.67 191.28 205.84 190.75 205.00 190.94 C 204.16 191.12 203.63 191.96 203.81 192.80 L 204.05 193.87 C 204.24 194.71 205.07 195.24 205.91 195.05 C 206.75 194.87 207.28 194.03 207.10 193.19 Z M 206.84 192.03 L 206.55 191.02 C 206.32 190.19 205.45 189.71 204.62 189.95 C 203.79 190.18 203.31 191.05 203.55 191.88 L 203.83 192.89 C 204.07 193.72 204.93 194.20 205.76 193.96 C 206.59 193.73 207.07 192.86 206.84 192.03 Z M 206.53 190.97 L 206.24 190.07 C 205.97 189.25 205.09 188.80 204.27 189.06 C 203.45 189.33 203.00 190.21 203.27 191.03 L 203.57 191.93 C 203.83 192.75 204.71 193.20 205.53 192.93 C 206.35 192.67 206.80 191.79 206.53 190.97 Z M 206.23 190.03 L 205.90 189.09 C 205.62 188.28 204.72 187.85 203.91 188.14 C 203.10 188.42 202.67 189.31 202.95 190.13 L 203.28 191.07 C 203.57 191.88 204.46 192.31 205.27 192.02 C 206.09 191.74 206.51 190.84 206.23 190.03 Z M 205.89 189.07 L 205.54 188.11 C 205.24 187.30 204.35 186.89 203.54 187.19 C 202.73 187.48 202.31 188.38 202.61 189.19 L 202.96 190.15 C 203.26 190.96 204.16 191.37 204.96 191.08 C 205.77 190.78 206.19 189.88 205.89 189.07 Z M 205.54 188.11 L 205.18 187.13 C 204.87 186.33 203.97 185.92 203.17 186.22 C 202.36 186.52 201.95 187.42 202.25 188.23 L 202.61 189.20 C 202.91 190.01 203.81 190.42 204.62 190.11 C 205.43 189.81 205.84 188.91 205.54 188.11 Z M 205.18 187.14 L 204.82 186.17 C 204.51 185.36 203.62 184.95 202.81 185.25 C 202.00 185.55 201.59 186.45 201.89 187.26 L 202.25 188.23 C 202.55 189.03 203.45 189.44 204.26 189.14 C 205.07 188.84 205.48 187.94 205.18 187.14 Z M 204.82 186.18 L 204.45 185.17 C 204.16 184.36 203.26 183.94 202.45 184.23 C 201.64 184.53 201.22 185.42 201.52 186.23 L 201.89 187.24 C 202.18 188.05 203.07 188.47 203.89 188.18 C 204.70 187.88 205.11 186.99 204.82 186.18 Z M 204.46 185.19 L 204.10 184.17 C 203.82 183.35 202.93 182.92 202.11 183.21 C 201.30 183.49 200.87 184.38 201.15 185.20 L 201.51 186.22 C 201.80 187.03 202.69 187.46 203.50 187.18 C 204.32 186.89 204.74 186.00 204.46 185.19 Z M 204.11 184.18 L 203.77 183.20 C 203.50 182.38 202.61 181.94 201.79 182.22 C 200.98 182.50 200.54 183.38 200.82 184.20 L 201.15 185.18 C 201.43 186.00 202.31 186.44 203.13 186.16 C 203.95 185.88 204.38 185.00 204.11 184.18 Z M 203.78 183.21 L 203.47 182.27 C 203.20 181.45 202.32 181.01 201.50 181.28 C 200.68 181.54 200.23 182.43 200.50 183.25 L 200.81 184.18 C 201.08 185.00 201.96 185.45 202.78 185.18 C 203.60 184.91 204.05 184.03 203.78 183.21 Z M 203.47 182.28 L 203.19 181.40 C 202.93 180.58 202.05 180.12 201.23 180.39 C 200.41 180.65 199.96 181.53 200.22 182.35 L 200.50 183.23 C 200.76 184.05 201.64 184.51 202.46 184.25 C 203.28 183.98 203.74 183.11 203.47 182.28 Z M 203.20 181.41 L 202.92 180.52 C 202.67 179.70 201.79 179.24 200.97 179.49 C 200.14 179.75 199.68 180.62 199.94 181.45 L 200.21 182.34 C 200.47 183.16 201.34 183.62 202.17 183.36 C 202.99 183.11 203.45 182.24 203.20 181.41 Z M 202.93 180.54 L 202.62 179.51 C 202.37 178.69 201.50 178.22 200.68 178.47 C 199.85 178.71 199.38 179.58 199.63 180.41 L 199.93 181.43 C 200.18 182.26 201.05 182.73 201.88 182.48 C 202.70 182.24 203.17 181.37 202.93 180.54 Z M 202.63 179.54 L 202.36 178.59 C 202.13 177.76 201.26 177.28 200.43 177.51 C 199.60 177.74 199.12 178.61 199.35 179.44 L 199.62 180.38 C 199.86 181.21 200.72 181.70 201.55 181.46 C 202.38 181.23 202.86 180.37 202.63 179.54 Z M 202.37 178.62 L 202.13 177.70 C 201.91 176.87 201.06 176.37 200.22 176.59 C 199.39 176.80 198.89 177.66 199.11 178.49 L 199.35 179.41 C 199.56 180.24 200.42 180.74 201.25 180.52 C 202.09 180.31 202.59 179.45 202.37 178.62 Z M 202.14 177.73 L 201.92 176.82 C 201.72 175.98 200.87 175.46 200.03 175.67 C 199.20 175.87 198.68 176.71 198.88 177.55 L 199.10 178.46 C 199.30 179.30 200.14 179.82 200.98 179.61 C 201.82 179.41 202.34 178.57 202.14 177.73 Z M 201.92 176.84 L 201.72 175.93 C 201.53 175.09 200.70 174.56 199.86 174.74 C 199.01 174.93 198.48 175.76 198.67 176.60 L 198.87 177.52 C 199.06 178.36 199.90 178.89 200.74 178.71 C 201.58 178.52 202.11 177.69 201.92 176.84 Z M 201.72 175.95 L 201.52 174.98 C 201.35 174.14 200.52 173.60 199.68 173.77 C 198.83 173.95 198.29 174.78 198.47 175.62 L 198.67 176.59 C 198.84 177.43 199.67 177.97 200.51 177.79 C 201.36 177.62 201.90 176.79 201.72 175.95 Z M 201.53 175.00 L 201.32 173.98 C 201.16 173.14 200.33 172.59 199.49 172.76 C 198.64 172.93 198.09 173.75 198.26 174.59 L 198.46 175.61 C 198.63 176.45 199.45 177.00 200.30 176.83 C 201.14 176.67 201.69 175.84 201.53 175.00 Z M 201.33 173.99 L 201.13 172.95 C 200.96 172.11 200.14 171.55 199.30 171.72 C 198.45 171.88 197.90 172.70 198.06 173.54 L 198.26 174.58 C 198.42 175.43 199.24 175.98 200.09 175.82 C 200.93 175.66 201.49 174.84 201.33 173.99 Z M 201.13 172.96 L 200.95 172.01 C 200.79 171.16 199.97 170.61 199.12 170.76 C 198.28 170.92 197.72 171.74 197.88 172.59 L 198.06 173.54 C 198.22 174.38 199.03 174.94 199.88 174.78 C 200.73 174.62 201.29 173.81 201.13 172.96 Z M 200.95 172.02 L 200.77 171.04 C 200.62 170.19 199.80 169.63 198.95 169.78 C 198.11 169.94 197.54 170.75 197.70 171.60 L 197.88 172.58 C 198.03 173.43 198.85 173.99 199.69 173.83 C 200.54 173.68 201.10 172.87 200.95 172.02 Z M 200.77 171.05 L 200.60 170.05 C 200.45 169.20 199.64 168.63 198.79 168.78 C 197.94 168.93 197.37 169.74 197.52 170.59 L 197.70 171.59 C 197.84 172.44 198.65 173.01 199.50 172.86 C 200.35 172.71 200.92 171.90 200.77 171.05 Z M 200.60 170.07 L 200.44 169.06 C 200.30 168.21 199.49 167.63 198.64 167.77 C 197.79 167.91 197.21 168.71 197.35 169.56 L 197.52 170.57 C 197.66 171.42 198.46 172.00 199.31 171.86 C 200.16 171.72 200.74 170.92 200.60 170.07 Z M 200.44 169.08 L 200.29 168.07 C 200.16 167.22 199.36 166.64 198.51 166.76 C 197.66 166.89 197.07 167.69 197.20 168.54 L 197.35 169.55 C 197.48 170.40 198.28 170.98 199.13 170.85 C 199.98 170.73 200.57 169.93 200.44 169.08 Z M 200.29 168.10 L 200.15 167.11 C 200.04 166.25 199.25 165.65 198.39 165.77 C 197.54 165.89 196.94 166.68 197.06 167.53 L 197.20 168.52 C 197.31 169.38 198.10 169.97 198.96 169.86 C 199.81 169.74 200.41 168.95 200.29 168.10 Z M 200.16 167.12 L 200.03 166.14 C 199.92 165.28 199.14 164.67 198.29 164.78 C 197.43 164.89 196.83 165.67 196.93 166.53 L 197.06 167.51 C 197.17 168.37 197.95 168.97 198.80 168.87 C 199.66 168.76 200.26 167.98 200.16 167.12 Z M 200.03 166.15 L 199.92 165.16 C 199.82 164.31 199.04 163.69 198.19 163.79 C 197.33 163.89 196.72 164.67 196.82 165.52 L 196.93 166.51 C 197.03 167.37 197.81 167.98 198.66 167.88 C 199.52 167.78 200.13 167.01 200.03 166.15 Z M 199.92 165.17 L 199.81 164.18 C 199.71 163.32 198.94 162.70 198.09 162.80 C 197.23 162.89 196.61 163.66 196.70 164.52 L 196.81 165.51 C 196.91 166.37 197.68 166.99 198.54 166.89 C 199.40 166.80 200.01 166.03 199.92 165.17 Z M 199.81 164.18 L 199.70 163.19 C 199.61 162.34 198.84 161.71 197.98 161.81 C 197.13 161.90 196.51 162.67 196.60 163.52 L 196.70 164.51 C 196.80 165.37 197.57 165.99 198.42 165.90 C 199.28 165.81 199.90 165.04 199.81 164.18 Z M 199.70 163.20 L 199.60 162.23 C 199.51 161.37 198.75 160.75 197.89 160.84 C 197.03 160.93 196.41 161.69 196.50 162.55 L 196.60 163.52 C 196.69 164.38 197.46 165.00 198.31 164.91 C 199.17 164.82 199.79 164.05 199.70 163.20 Z M 199.60 162.23 L 199.50 161.25 C 199.42 160.39 198.65 159.76 197.80 159.85 C 196.94 159.94 196.31 160.70 196.40 161.56 L 196.50 162.54 C 196.58 163.40 197.35 164.03 198.21 163.94 C 199.06 163.86 199.69 163.09 199.60 162.23 Z M 199.51 161.26 L 199.41 160.26 C 199.33 159.40 198.57 158.77 197.71 158.85 C 196.85 158.93 196.22 159.69 196.30 160.55 L 196.40 161.55 C 196.48 162.41 197.24 163.04 198.10 162.96 C 198.96 162.88 199.59 162.12 199.51 161.26 Z M 199.41 160.27 L 199.32 159.26 C 199.25 158.40 198.49 157.76 197.63 157.83 C 196.78 157.91 196.14 158.67 196.21 159.52 L 196.30 160.54 C 196.38 161.40 197.13 162.03 197.99 161.96 C 198.85 161.89 199.49 161.13 199.41 160.27 Z M 199.33 159.27 L 199.25 158.25 C 199.18 157.39 198.43 156.75 197.57 156.81 C 196.71 156.88 196.07 157.63 196.13 158.49 L 196.21 159.51 C 196.28 160.37 197.03 161.01 197.89 160.95 C 198.75 160.88 199.39 160.13 199.33 159.27 Z M 199.25 158.27 L 199.18 157.28 C 199.12 156.42 198.38 155.77 197.52 155.83 C 196.66 155.88 196.01 156.63 196.07 157.49 L 196.13 158.48 C 196.19 159.34 196.94 159.99 197.80 159.93 C 198.66 159.87 199.31 159.13 199.25 158.27 Z M 199.18 157.29 L 199.12 156.30 C 199.07 155.44 198.33 154.78 197.47 154.83 C 196.61 154.88 195.96 155.62 196.01 156.48 L 196.06 157.48 C 196.12 158.34 196.85 158.99 197.72 158.94 C 198.58 158.89 199.23 158.15 199.18 157.29 Z M 199.12 156.31 L 199.07 155.31 C 199.03 154.44 198.29 153.78 197.43 153.83 C 196.57 153.87 195.91 154.61 195.95 155.47 L 196.01 156.47 C 196.05 157.33 196.78 157.99 197.65 157.95 C 198.51 157.90 199.17 157.17 199.12 156.31 Z M 199.07 155.32 L 199.03 154.31 C 198.99 153.45 198.26 152.78 197.40 152.82 C 196.54 152.86 195.87 153.59 195.91 154.45 L 195.95 155.46 C 195.99 156.32 196.72 156.98 197.58 156.95 C 198.44 156.91 199.11 156.18 199.07 155.32 Z M 199.03 154.32 L 198.99 153.31 C 198.95 152.45 198.23 151.78 197.36 151.82 C 196.50 151.85 195.83 152.58 195.87 153.44 L 195.91 154.44 C 195.94 155.30 196.67 155.98 197.53 155.94 C 198.39 155.91 199.06 155.18 199.03 154.32 Z M 198.99 153.32 L 198.95 152.32 C 198.92 151.45 198.20 150.78 197.34 150.81 C 196.47 150.84 195.80 151.56 195.83 152.43 L 195.87 153.43 C 195.90 154.29 196.62 154.97 197.48 154.94 C 198.34 154.91 199.02 154.18 198.99 153.32 Z M 198.95 152.32 L 198.92 151.32 C 198.89 150.46 198.17 149.78 197.31 149.81 C 196.45 149.83 195.77 150.55 195.80 151.42 L 195.83 152.42 C 195.86 153.28 196.58 153.96 197.44 153.93 C 198.30 153.90 198.98 153.18 198.95 152.32 Z M 198.92 151.33 L 198.89 150.33 C 198.87 149.46 198.15 148.78 197.29 148.81 C 196.43 148.83 195.75 149.55 195.77 150.41 L 195.80 151.41 C 195.82 152.27 196.54 152.95 197.40 152.93 C 198.26 152.90 198.94 152.19 198.92 151.33 Z M 198.89 150.33 L 198.87 149.33 C 198.85 148.47 198.14 147.79 197.28 147.81 C 196.41 147.83 195.73 148.54 195.75 149.40 L 195.77 150.40 C 195.79 151.26 196.51 151.95 197.37 151.93 C 198.23 151.91 198.91 151.19 198.89 150.33 Z M 198.87 149.34 L 198.85 148.35 C 198.84 147.48 198.13 146.80 197.27 146.81 C 196.40 146.83 195.72 147.54 195.73 148.40 L 195.75 149.40 C 195.77 150.26 196.48 150.95 197.34 150.93 C 198.20 150.92 198.89 150.20 198.87 149.34 Z M 198.85 148.35 L 198.84 147.36 C 198.83 146.50 198.12 145.81 197.26 145.82 C 196.40 145.83 195.71 146.54 195.72 147.40 L 195.73 148.39 C 195.74 149.26 196.45 149.95 197.31 149.93 C 198.18 149.92 198.87 149.21 198.85 148.35 Z M 198.84 147.37 L 198.83 146.38 C 198.82 145.52 198.12 144.83 197.26 144.83 C 196.39 144.84 195.70 145.55 195.71 146.41 L 195.72 147.39 C 195.73 148.26 196.43 148.95 197.29 148.94 C 198.16 148.93 198.85 148.23 198.84 147.37 Z M 198.83 146.39 L 198.83 145.40 C 198.82 144.54 198.12 143.84 197.26 143.85 C 196.39 143.85 195.70 144.55 195.70 145.42 L 195.71 146.40 C 195.71 147.27 196.42 147.96 197.28 147.96 C 198.14 147.95 198.84 147.25 198.83 146.39 Z M 198.83 145.40 L 198.82 144.41 C 198.82 143.54 198.12 142.85 197.26 142.85 C 196.40 142.85 195.70 143.55 195.70 144.42 L 195.70 145.41 C 195.71 146.27 196.41 146.97 197.27 146.97 C 198.13 146.96 198.83 146.26 198.83 145.40 Z M 198.82 144.41 L 198.82 143.40 C 198.82 142.54 198.12 141.84 197.26 141.84 C 196.40 141.84 195.70 142.54 195.70 143.41 L 195.70 144.41 C 195.70 145.27 196.40 145.97 197.26 145.97 C 198.13 145.97 198.82 145.27 198.82 144.41 Z M 198.82 143.40 L 198.82 142.39 C 198.82 141.52 198.12 140.82 197.26 140.82 C 196.40 140.82 195.70 141.52 195.70 142.39 L 195.70 143.41 C 195.70 144.27 196.40 144.97 197.26 144.97 C 198.12 144.97 198.82 144.27 198.82 143.40 Z M 198.82 142.39 L 198.82 141.37 C 198.82 140.51 198.12 139.81 197.26 139.81 C 196.40 139.81 195.70 140.51 195.70 141.37 L 195.70 142.39 C 195.70 143.25 196.40 143.95 197.26 143.95 C 198.12 143.95 198.82 143.25 198.82 142.39 Z M 198.82 141.37 L 198.82 140.35 C 198.82 139.49 198.12 138.79 197.26 138.79 C 196.40 138.79 195.70 139.49 195.70 140.35 L 195.70 141.37 C 195.70 142.23 196.40 142.93 197.26 142.93 C 198.12 142.93 198.82 142.23 198.82 141.37 Z M 198.82 140.35 L 198.82 139.34 C 198.82 138.47 198.12 137.78 197.26 137.78 C 196.40 137.78 195.70 138.47 195.70 139.34 L 195.70 140.35 C 195.70 141.22 196.40 141.92 197.26 141.92 C 198.12 141.92 198.82 141.22 198.82 140.35 Z M 198.82 139.34 L 198.82 138.33 C 198.82 137.47 198.12 136.77 197.26 136.77 C 196.40 136.77 195.70 137.47 195.70 138.33 L 195.70 139.34 C 195.70 140.20 196.40 140.90 197.26 140.90 C 198.12 140.90 198.82 140.20 198.82 139.34 Z M 198.82 138.33 L 198.82 137.34 C 198.82 136.48 198.12 135.78 197.26 135.78 C 196.40 135.78 195.70 136.48 195.70 137.34 L 195.70 138.33 C 195.70 139.19 196.40 139.89 197.26 139.89 C 198.12 139.89 198.82 139.19 198.82 138.33 Z M 198.82 137.34 L 198.82 136.38 C 198.82 135.51 198.12 134.81 197.26 134.81 C 196.40 134.81 195.70 135.51 195.70 136.38 L 195.70 137.34 C 195.70 138.20 196.40 138.90 197.26 138.90 C 198.12 138.90 198.82 138.20 198.82 137.34 Z M 198.82 136.38 L 198.82 135.31 C 198.82 134.45 198.12 133.75 197.26 133.75 C 196.40 133.75 195.70 134.45 195.70 135.31 L 195.70 136.38 C 195.70 137.24 196.40 137.94 197.26 137.94 C 198.12 137.94 198.82 137.24 198.82 136.38 Z M 198.82 135.31 L 198.82 134.29 C 198.82 133.42 198.12 132.72 197.26 132.72 C 196.40 132.72 195.70 133.42 195.70 134.29 L 195.70 135.31 C 195.70 136.17 196.40 136.87 197.26 136.87 C 198.12 136.87 198.82 136.17 198.82 135.31 Z M 198.82 134.29 L 198.82 133.29 C 198.82 132.43 198.12 131.73 197.26 131.73 C 196.40 131.73 195.70 132.43 195.70 133.29 L 195.70 134.29 C 195.70 135.15 196.40 135.85 197.26 135.85 C 198.12 135.85 198.82 135.15 198.82 134.29 Z M 198.82 133.29 L 198.82 132.33 C 198.82 131.47 198.12 130.77 197.26 130.77 C 196.40 130.77 195.70 131.47 195.70 132.33 L 195.70 133.29 C 195.70 134.16 196.40 134.86 197.26 134.86 C 198.12 134.86 198.82 134.16 198.82 133.29 Z M 198.82 132.33 L 198.82 131.37 C 198.82 130.51 198.12 129.81 197.26 129.81 C 196.40 129.81 195.70 130.51 195.70 131.37 L 195.70 132.33 C 195.70 133.19 196.40 133.89 197.26 133.89 C 198.12 133.89 198.82 133.19 198.82 132.33 Z M 198.82 131.37 L 198.82 130.35 C 198.82 129.49 198.12 128.79 197.26 128.79 C 196.40 128.79 195.70 129.49 195.70 130.35 L 195.70 131.37 C 195.70 132.24 196.40 132.94 197.26 132.94 C 198.12 132.94 198.82 132.24 198.82 131.37 Z M 198.82 130.35 L 198.82 129.34 C 198.82 128.48 198.12 127.78 197.26 127.78 C 196.40 127.78 195.70 128.48 195.70 129.34 L 195.70 130.35 C 195.70 131.21 196.40 131.91 197.26 131.91 C 198.12 131.91 198.82 131.21 198.82 130.35 Z M 198.82 129.34 L 198.82 128.35 C 198.82 127.49 198.12 126.79 197.26 126.79 C 196.40 126.79 195.70 127.49 195.70 128.35 L 195.70 129.34 C 195.70 130.21 196.40 130.90 197.26 130.90 C 198.12 130.90 198.82 130.21 198.82 129.34 Z M 198.82 128.35 L 198.82 127.37 C 198.82 126.50 198.12 125.80 197.26 125.80 C 196.40 125.80 195.70 126.50 195.70 127.37 L 195.70 128.35 C 195.70 129.21 196.40 129.91 197.26 129.91 C 198.12 129.91 198.82 129.21 198.82 128.35 Z M 198.82 127.37 L 198.82 126.35 C 198.82 125.49 198.12 124.79 197.26 124.79 C 196.40 124.79 195.70 125.49 195.70 126.35 L 195.70 127.37 C 195.70 128.23 196.40 128.93 197.26 128.93 C 198.12 128.93 198.82 128.23 198.82 127.37 Z M 198.82 126.35 L 198.82 125.33 C 198.82 124.46 198.13 123.76 197.26 123.76 C 196.40 123.76 195.70 124.46 195.70 125.32 L 195.70 126.35 C 195.70 127.21 196.40 127.91 197.26 127.91 C 198.12 127.91 198.82 127.22 198.82 126.35 Z M 198.82 125.33 L 198.83 124.33 C 198.83 123.46 198.13 122.76 197.27 122.76 C 196.41 122.76 195.71 123.45 195.70 124.31 L 195.70 125.32 C 195.70 126.18 196.39 126.88 197.26 126.89 C 198.12 126.89 198.82 126.19 198.82 125.33 Z M 198.83 124.33 L 198.84 123.36 C 198.84 122.50 198.15 121.79 197.29 121.78 C 196.43 121.78 195.72 122.47 195.71 123.33 L 195.70 124.31 C 195.70 125.17 196.39 125.87 197.25 125.88 C 198.11 125.89 198.82 125.20 198.83 124.33 Z M 198.84 123.37 L 198.85 122.37 C 198.87 121.51 198.18 120.80 197.32 120.79 C 196.45 120.77 195.74 121.46 195.73 122.32 L 195.71 123.32 C 195.70 124.18 196.39 124.89 197.25 124.91 C 198.11 124.92 198.82 124.23 198.84 123.37 Z M 198.85 122.39 L 198.88 121.35 C 198.90 120.49 198.22 119.77 197.36 119.75 C 196.50 119.72 195.78 120.40 195.76 121.27 L 195.73 122.31 C 195.71 123.17 196.39 123.89 197.25 123.91 C 198.11 123.93 198.83 123.25 198.85 122.39 Z M 198.88 121.37 L 198.92 120.37 C 198.95 119.51 198.28 118.79 197.41 118.75 C 196.55 118.72 195.83 119.39 195.80 120.25 L 195.76 121.25 C 195.73 122.11 196.40 122.83 197.26 122.87 C 198.12 122.90 198.85 122.23 198.88 121.37 Z M 198.92 120.39 L 198.96 119.44 C 199.01 118.58 198.34 117.85 197.48 117.80 C 196.62 117.76 195.89 118.42 195.84 119.28 L 195.80 120.23 C 195.75 121.10 196.42 121.83 197.28 121.87 C 198.14 121.92 198.87 121.25 198.92 120.39 Z M 198.96 119.46 L 199.03 118.46 C 199.08 117.60 198.43 116.85 197.57 116.80 C 196.71 116.74 195.96 117.40 195.91 118.26 L 195.85 119.26 C 195.79 120.12 196.44 120.87 197.30 120.92 C 198.16 120.98 198.91 120.32 198.96 119.46 Z M 199.03 118.47 L 199.10 117.47 C 199.16 116.61 198.51 115.87 197.65 115.80 C 196.79 115.74 196.05 116.39 195.98 117.25 L 195.91 118.24 C 195.85 119.10 196.49 119.85 197.35 119.91 C 198.21 119.98 198.96 119.33 199.03 118.47 Z M 199.10 117.47 L 199.17 116.49 C 199.23 115.63 198.58 114.89 197.72 114.82 C 196.86 114.76 196.12 115.41 196.05 116.27 L 195.98 117.25 C 195.92 118.11 196.57 118.86 197.43 118.92 C 198.29 118.98 199.04 118.33 199.10 117.47 Z M 199.17 116.48 L 199.23 115.49 C 199.28 114.63 198.63 113.89 197.77 113.83 C 196.91 113.78 196.17 114.43 196.11 115.29 L 196.05 116.28 C 196.00 117.14 196.65 117.88 197.51 117.94 C 198.37 117.99 199.12 117.34 199.17 116.48 Z M 199.23 115.47 L 199.28 114.47 C 199.33 113.61 198.66 112.87 197.80 112.83 C 196.94 112.79 196.21 113.45 196.16 114.31 L 196.11 115.31 C 196.07 116.17 196.73 116.91 197.59 116.95 C 198.45 116.99 199.19 116.33 199.23 115.47 Z M 199.28 114.46 L 199.33 113.46 C 199.37 112.60 198.70 111.87 197.84 111.83 C 196.98 111.79 196.25 112.46 196.21 113.32 L 196.16 114.32 C 196.13 115.18 196.79 115.91 197.65 115.95 C 198.52 115.99 199.25 115.32 199.28 114.46 Z M 199.33 113.45 L 199.37 112.48 C 199.41 111.62 198.74 110.89 197.88 110.86 C 197.01 110.82 196.29 111.49 196.25 112.35 L 196.21 113.32 C 196.17 114.18 196.84 114.91 197.70 114.95 C 198.56 114.98 199.29 114.32 199.33 113.45 Z M 199.37 112.47 L 199.40 111.52 C 199.43 110.65 198.76 109.93 197.90 109.90 C 197.03 109.87 196.31 110.55 196.28 111.41 L 196.25 112.36 C 196.22 113.23 196.89 113.95 197.76 113.98 C 198.62 114.01 199.34 113.33 199.37 112.47 Z M 199.40 111.48 L 199.41 110.48 C 199.42 109.61 198.73 108.91 197.87 108.90 C 197.01 108.89 196.30 109.58 196.29 110.44 L 196.28 111.45 C 196.27 112.31 196.96 113.01 197.83 113.02 C 198.69 113.03 199.39 112.34 199.40 111.48 Z M 199.41 110.42 L 199.39 109.35 C 199.37 108.49 198.65 107.81 197.79 107.83 C 196.93 107.85 196.25 108.56 196.27 109.42 L 196.29 110.50 C 196.31 111.36 197.03 112.04 197.89 112.02 C 198.75 112.00 199.43 111.29 199.41 110.42 Z M 199.39 109.33 L 199.35 108.28 C 199.32 107.41 198.60 106.74 197.74 106.77 C 196.87 106.80 196.20 107.53 196.23 108.39 L 196.27 109.44 C 196.30 110.31 197.02 110.98 197.88 110.95 C 198.75 110.92 199.42 110.19 199.39 109.33 Z M 199.35 108.38 L 199.39 107.35 C 199.41 106.48 198.74 105.76 197.88 105.73 C 197.02 105.71 196.29 106.38 196.27 107.24 L 196.23 108.28 C 196.20 109.14 196.88 109.86 197.74 109.89 C 198.60 109.92 199.32 109.25 199.35 108.38 Z M 199.35 107.63 L 199.55 106.71 C 199.74 105.87 199.21 105.04 198.36 104.85 C 197.52 104.67 196.69 105.20 196.50 106.04 L 196.30 106.96 C 196.12 107.80 196.65 108.63 197.49 108.82 C 198.33 109.00 199.17 108.47 199.35 107.63 Z M 199.33 107.24 L 199.80 106.53 C 200.27 105.81 200.07 104.84 199.35 104.37 C 198.63 103.89 197.66 104.09 197.19 104.81 L 196.72 105.52 C 196.25 106.24 196.45 107.21 197.17 107.68 C 197.89 108.15 198.86 107.96 199.33 107.24 Z M 199.33 106.99 L 200.08 106.51 C 200.81 106.05 201.02 105.09 200.56 104.36 C 200.10 103.63 199.14 103.41 198.41 103.88 L 197.66 104.35 C 196.93 104.81 196.71 105.78 197.17 106.51 C 197.64 107.23 198.60 107.45 199.33 106.99 Z M 199.71 106.68 L 200.68 106.38 C 201.50 106.13 201.96 105.25 201.70 104.43 C 201.44 103.60 200.57 103.14 199.75 103.40 L 198.78 103.70 C 197.95 103.96 197.50 104.84 197.75 105.66 C 198.01 106.48 198.89 106.94 199.71 106.68 Z M 200.48 106.43 L 201.60 106.23 C 202.45 106.08 203.02 105.27 202.87 104.42 C 202.72 103.57 201.91 103.01 201.06 103.16 L 199.94 103.35 C 199.09 103.50 198.52 104.31 198.67 105.16 C 198.82 106.01 199.63 106.58 200.48 106.43 Z M 201.53 106.24 L 202.49 106.12 C 203.34 106.01 203.95 105.22 203.84 104.37 C 203.73 103.51 202.94 102.91 202.09 103.02 L 201.13 103.15 C 200.27 103.26 199.67 104.04 199.78 104.90 C 199.89 105.75 200.68 106.35 201.53 106.24 Z M 202.46 106.12 L 203.44 106.01 C 204.29 105.92 204.91 105.15 204.82 104.29 C 204.72 103.44 203.95 102.82 203.10 102.91 L 202.12 103.02 C 201.26 103.11 200.64 103.88 200.74 104.74 C 200.83 105.60 201.60 106.22 202.46 106.12 Z M 203.41 106.02 L 204.42 105.92 C 205.28 105.84 205.91 105.08 205.83 104.22 C 205.74 103.36 204.98 102.73 204.12 102.81 L 203.12 102.91 C 202.26 102.99 201.63 103.75 201.71 104.61 C 201.79 105.47 202.56 106.10 203.41 106.02 Z M 204.41 105.92 L 205.43 105.83 C 206.29 105.76 206.93 105.00 206.85 104.14 C 206.78 103.28 206.02 102.65 205.16 102.72 L 204.14 102.81 C 203.28 102.89 202.64 103.64 202.72 104.50 C 202.79 105.36 203.55 106.00 204.41 105.92 Z M 205.43 105.83 L 206.44 105.75 C 207.29 105.68 207.93 104.92 207.86 104.06 C 207.79 103.20 207.03 102.57 206.18 102.64 L 205.17 102.72 C 204.31 102.79 203.67 103.55 203.74 104.41 C 203.81 105.27 204.57 105.91 205.43 105.83 Z M 206.44 105.75 L 207.39 105.67 C 208.25 105.60 208.89 104.84 208.82 103.98 C 208.75 103.12 207.99 102.49 207.13 102.56 L 206.18 102.64 C 205.32 102.71 204.68 103.46 204.75 104.32 C 204.82 105.18 205.58 105.82 206.44 105.75 Z M 207.39 105.67 L 208.36 105.59 C 209.22 105.52 209.86 104.76 209.79 103.90 C 209.72 103.04 208.96 102.40 208.10 102.48 L 207.13 102.56 C 206.27 102.63 205.63 103.38 205.71 104.24 C 205.78 105.10 206.53 105.74 207.39 105.67 Z M 208.36 105.59 L 209.36 105.50 C 210.22 105.43 210.85 104.68 210.78 103.82 C 210.71 102.96 209.95 102.32 209.10 102.39 L 208.10 102.48 C 207.24 102.55 206.60 103.30 206.68 104.16 C 206.75 105.02 207.50 105.66 208.36 105.59 Z M 209.36 105.50 L 210.39 105.42 C 211.25 105.34 211.88 104.59 211.81 103.73 C 211.74 102.87 210.98 102.23 210.12 102.31 L 209.09 102.39 C 208.24 102.47 207.60 103.22 207.67 104.08 C 207.74 104.94 208.50 105.58 209.36 105.50 Z M 210.39 105.42 L 211.44 105.33 C 212.30 105.25 212.93 104.50 212.86 103.64 C 212.79 102.78 212.03 102.14 211.17 102.22 L 210.12 102.31 C 209.26 102.38 208.63 103.14 208.70 103.99 C 208.77 104.85 209.53 105.49 210.39 105.42 Z M 211.44 105.33 L 212.46 105.24 C 213.32 105.17 213.96 104.41 213.89 103.55 C 213.81 102.69 213.06 102.05 212.20 102.13 L 211.17 102.22 C 210.31 102.29 209.67 103.05 209.75 103.91 C 209.82 104.77 210.58 105.40 211.44 105.33 Z M 212.47 105.24 L 213.50 105.15 C 214.36 105.07 215.00 104.32 214.92 103.46 C 214.85 102.60 214.09 101.96 213.23 102.04 L 212.19 102.13 C 211.34 102.20 210.70 102.96 210.78 103.82 C 210.85 104.68 211.61 105.31 212.47 105.24 Z M 213.51 105.15 L 214.53 105.06 C 215.39 104.98 216.03 104.22 215.95 103.36 C 215.87 102.50 215.11 101.87 214.25 101.95 L 213.23 102.04 C 212.37 102.11 211.74 102.87 211.81 103.73 C 211.89 104.59 212.65 105.22 213.51 105.15 Z M 214.54 105.06 L 215.52 104.97 C 216.38 104.89 217.01 104.13 216.93 103.27 C 216.85 102.41 216.09 101.78 215.24 101.86 L 214.25 101.95 C 213.39 102.03 212.76 102.79 212.84 103.64 C 212.92 104.50 213.68 105.14 214.54 105.06 Z M 215.53 104.97 L 216.45 104.88 C 217.31 104.80 217.93 104.03 217.85 103.17 C 217.77 102.32 217.01 101.69 216.15 101.77 L 215.23 101.86 C 214.37 101.94 213.74 102.70 213.82 103.56 C 213.91 104.42 214.67 105.05 215.53 104.97 Z M 216.46 104.88 L 217.56 104.76 C 218.41 104.68 219.04 103.91 218.95 103.05 C 218.86 102.20 218.10 101.57 217.24 101.66 L 216.14 101.77 C 215.28 101.86 214.66 102.62 214.75 103.48 C 214.83 104.34 215.60 104.96 216.46 104.88 Z M 217.57 104.76 L 218.58 104.65 C 219.44 104.56 220.06 103.79 219.96 102.93 C 219.87 102.07 219.10 101.45 218.24 101.55 L 217.23 101.66 C 216.37 101.75 215.75 102.53 215.85 103.38 C 215.94 104.24 216.71 104.86 217.57 104.76 Z M 218.60 104.65 L 219.53 104.54 C 220.39 104.44 221.00 103.66 220.90 102.80 C 220.80 101.95 220.02 101.34 219.16 101.44 L 218.23 101.55 C 217.37 101.65 216.76 102.43 216.86 103.28 C 216.96 104.14 217.74 104.75 218.60 104.65 Z M 219.54 104.54 L 220.45 104.42 C 221.31 104.31 221.92 103.53 221.81 102.68 C 221.70 101.82 220.92 101.22 220.06 101.32 L 219.15 101.44 C 218.30 101.55 217.69 102.33 217.80 103.18 C 217.91 104.04 218.69 104.65 219.54 104.54 Z M 220.46 104.42 L 221.45 104.29 C 222.30 104.18 222.90 103.39 222.79 102.54 C 222.68 101.69 221.90 101.08 221.04 101.20 L 220.05 101.33 C 219.20 101.44 218.60 102.22 218.71 103.08 C 218.82 103.93 219.61 104.53 220.46 104.42 Z M 221.45 104.29 L 222.46 104.16 C 223.31 104.04 223.91 103.26 223.80 102.40 C 223.68 101.55 222.89 100.95 222.04 101.06 L 221.04 101.20 C 220.18 101.31 219.58 102.10 219.70 102.95 C 219.81 103.81 220.60 104.41 221.45 104.29 Z M 222.46 104.16 L 223.45 104.02 C 224.31 103.91 224.91 103.12 224.79 102.27 C 224.68 101.41 223.89 100.81 223.04 100.93 L 222.04 101.06 C 221.19 101.18 220.59 101.96 220.70 102.82 C 220.82 103.67 221.60 104.27 222.46 104.16 Z M 223.45 104.02 L 224.41 103.90 C 225.26 103.78 225.86 103.00 225.75 102.14 C 225.63 101.29 224.85 100.69 223.99 100.80 L 223.04 100.93 C 222.18 101.04 221.58 101.83 221.70 102.68 C 221.81 103.54 222.59 104.14 223.45 104.02 Z M 224.40 103.90 L 225.32 103.78 C 226.17 103.66 226.77 102.88 226.66 102.02 C 226.55 101.17 225.76 100.57 224.91 100.68 L 224.00 100.80 C 223.14 100.91 222.54 101.70 222.65 102.55 C 222.77 103.41 223.55 104.01 224.40 103.90 Z M 225.32 103.77 L 226.27 103.64 C 227.13 103.53 227.72 102.74 227.61 101.89 C 227.49 101.03 226.70 100.43 225.85 100.55 L 224.90 100.68 C 224.05 100.80 223.45 101.59 223.57 102.44 C 223.68 103.29 224.47 103.89 225.32 103.77 Z M 226.29 103.64 L 227.33 103.49 C 228.18 103.36 228.77 102.57 228.65 101.72 C 228.52 100.86 227.73 100.27 226.88 100.40 L 225.83 100.55 C 224.98 100.68 224.39 101.47 224.51 102.33 C 224.64 103.18 225.43 103.77 226.29 103.64 Z M 227.35 103.49 L 228.34 103.33 C 229.19 103.19 229.77 102.39 229.64 101.54 C 229.51 100.69 228.71 100.11 227.85 100.25 L 226.86 100.40 C 226.01 100.54 225.43 101.34 225.56 102.19 C 225.70 103.04 226.50 103.62 227.35 103.49 Z M 228.36 103.33 L 229.24 103.18 C 230.09 103.04 230.66 102.23 230.52 101.38 C 230.37 100.53 229.57 99.96 228.72 100.10 L 227.84 100.25 C 226.99 100.39 226.42 101.19 226.56 102.05 C 226.70 102.90 227.51 103.47 228.36 103.33 Z M 229.25 103.18 L 230.20 103.01 C 231.05 102.86 231.61 102.05 231.46 101.20 C 231.31 100.35 230.50 99.79 229.66 99.94 L 228.71 100.10 C 227.86 100.25 227.29 101.06 227.44 101.91 C 227.59 102.76 228.40 103.33 229.25 103.18 Z M 230.21 103.01 L 231.21 102.82 C 232.06 102.67 232.62 101.85 232.47 101.00 C 232.31 100.16 231.50 99.60 230.65 99.75 L 229.64 99.94 C 228.79 100.09 228.23 100.91 228.39 101.76 C 228.55 102.60 229.36 103.16 230.21 103.01 Z M 231.23 102.82 L 232.28 102.62 C 233.12 102.45 233.68 101.63 233.51 100.79 C 233.35 99.94 232.53 99.39 231.69 99.55 L 230.63 99.75 C 229.79 99.92 229.23 100.74 229.40 101.58 C 229.56 102.43 230.38 102.98 231.23 102.82 Z M 232.29 102.61 L 233.38 102.39 C 234.22 102.22 234.77 101.40 234.60 100.55 C 234.43 99.71 233.60 99.16 232.76 99.33 L 231.67 99.55 C 230.83 99.73 230.28 100.55 230.45 101.39 C 230.62 102.24 231.45 102.79 232.29 102.61 Z M 233.39 102.39 L 234.45 102.16 C 235.29 101.98 235.83 101.16 235.65 100.31 C 235.47 99.47 234.64 98.93 233.80 99.11 L 232.74 99.34 C 231.90 99.52 231.36 100.35 231.54 101.19 C 231.72 102.03 232.55 102.57 233.39 102.39 Z M 234.47 102.16 L 235.51 101.92 C 236.35 101.73 236.88 100.90 236.69 100.06 C 236.50 99.22 235.67 98.69 234.83 98.88 L 233.78 99.12 C 232.94 99.30 232.41 100.14 232.60 100.98 C 232.79 101.82 233.63 102.35 234.47 102.16 Z M 235.54 101.92 L 236.56 101.67 C 237.40 101.47 237.92 100.63 237.71 99.79 C 237.51 98.95 236.67 98.44 235.83 98.64 L 234.80 98.88 C 233.97 99.09 233.45 99.93 233.65 100.77 C 233.85 101.61 234.70 102.12 235.54 101.92 Z M 236.59 101.67 L 237.57 101.41 C 238.41 101.19 238.91 100.34 238.69 99.50 C 238.48 98.67 237.62 98.17 236.79 98.39 L 235.80 98.64 C 234.97 98.86 234.47 99.71 234.68 100.55 C 234.90 101.38 235.75 101.88 236.59 101.67 Z M 237.61 101.40 L 238.54 101.13 C 239.36 100.90 239.84 100.03 239.61 99.20 C 239.37 98.38 238.51 97.90 237.68 98.13 L 236.75 98.40 C 235.92 98.63 235.44 99.50 235.68 100.33 C 235.92 101.16 236.78 101.64 237.61 101.40 Z M 238.58 101.12 L 239.43 100.85 C 240.25 100.59 240.70 99.71 240.44 98.89 C 240.17 98.07 239.30 97.61 238.47 97.88 L 237.63 98.15 C 236.81 98.41 236.36 99.29 236.62 100.11 C 236.88 100.93 237.76 101.38 238.58 101.12 Z M 239.52 100.82 L 240.63 100.39 C 241.43 100.07 241.83 99.17 241.52 98.37 C 241.20 97.56 240.30 97.16 239.50 97.48 L 238.39 97.91 C 237.58 98.22 237.18 99.12 237.50 99.93 C 237.81 100.73 238.71 101.13 239.52 100.82 Z M 240.81 100.30 L 241.76 99.78 C 242.52 99.36 242.79 98.41 242.38 97.66 C 241.96 96.90 241.01 96.63 240.26 97.04 L 239.31 97.56 C 238.55 97.98 238.28 98.93 238.69 99.68 C 239.11 100.44 240.06 100.71 240.81 100.30 Z M 242.08 99.55 L 242.70 98.97 C 243.33 98.38 243.36 97.39 242.77 96.76 C 242.18 96.13 241.19 96.10 240.56 96.69 L 239.94 97.27 C 239.31 97.86 239.28 98.85 239.87 99.48 C 240.46 100.11 241.45 100.14 242.08 99.55 Z M 243.07 98.44 L 243.37 97.73 C 243.71 96.93 243.34 96.02 242.54 95.68 C 241.75 95.34 240.83 95.71 240.49 96.51 L 240.19 97.22 C 239.85 98.01 240.23 98.93 241.02 99.27 C 241.81 99.60 242.73 99.23 243.07 98.44 Z M 243.49 97.03 L 243.44 96.09 C 243.39 95.23 242.65 94.58 241.79 94.63 C 240.93 94.68 240.27 95.41 240.32 96.28 L 240.37 97.21 C 240.42 98.07 241.16 98.73 242.02 98.67 C 242.88 98.62 243.54 97.89 243.49 97.03 Z M 243.34 95.65 L 242.99 94.67 C 242.69 93.86 241.80 93.44 240.99 93.74 C 240.18 94.03 239.76 94.93 240.05 95.74 L 240.41 96.72 C 240.71 97.53 241.60 97.95 242.41 97.65 C 243.22 97.36 243.64 96.46 243.34 95.65 Z M 242.89 94.45 L 242.40 93.56 C 241.99 92.80 241.04 92.53 240.28 92.94 C 239.53 93.35 239.25 94.30 239.66 95.06 L 240.15 95.95 C 240.57 96.71 241.51 96.99 242.27 96.57 C 243.03 96.16 243.30 95.21 242.89 94.45 Z M 242.34 93.46 L 241.81 92.64 C 241.34 91.92 240.37 91.72 239.65 92.19 C 238.92 92.66 238.72 93.63 239.19 94.35 L 239.72 95.16 C 240.20 95.89 241.16 96.09 241.88 95.62 C 242.61 95.15 242.81 94.18 242.34 93.46 Z M 241.79 92.61 L 241.21 91.78 C 240.72 91.07 239.75 90.89 239.04 91.38 C 238.33 91.87 238.15 92.84 238.64 93.55 L 239.21 94.38 C 239.70 95.09 240.67 95.27 241.38 94.78 C 242.09 94.29 242.27 93.32 241.79 92.61 Z M 241.23 91.81 L 240.67 90.95 C 240.20 90.23 239.23 90.03 238.51 90.51 C 237.79 90.98 237.59 91.95 238.06 92.67 L 238.62 93.52 C 239.10 94.24 240.06 94.44 240.78 93.97 C 241.51 93.49 241.70 92.53 241.23 91.81 Z M 240.70 91.01 L 240.19 90.16 C 239.75 89.42 238.79 89.18 238.05 89.63 C 237.31 90.07 237.07 91.03 237.52 91.77 L 238.03 92.62 C 238.47 93.36 239.43 93.59 240.17 93.15 C 240.91 92.70 241.15 91.74 240.70 91.01 Z M 240.22 90.21 L 239.73 89.32 C 239.32 88.57 238.37 88.29 237.61 88.71 C 236.86 89.13 236.58 90.08 237.00 90.83 L 237.49 91.72 C 237.91 92.47 238.86 92.75 239.61 92.33 C 240.37 91.91 240.64 90.96 240.22 90.21 Z M 239.76 89.37 L 239.30 88.47 C 238.92 87.70 237.98 87.39 237.21 87.78 C 236.44 88.17 236.13 89.11 236.52 89.88 L 236.97 90.78 C 237.36 91.55 238.30 91.86 239.07 91.47 C 239.84 91.08 240.15 90.14 239.76 89.37 Z M 239.33 88.53 L 238.91 87.61 C 238.56 86.82 237.63 86.47 236.85 86.83 C 236.06 87.19 235.71 88.11 236.07 88.90 L 236.49 89.82 C 236.84 90.60 237.77 90.95 238.55 90.59 C 239.34 90.24 239.69 89.31 239.33 88.53 Z M 238.94 87.67 L 238.57 86.75 C 238.25 85.95 237.34 85.56 236.54 85.88 C 235.74 86.20 235.35 87.11 235.67 87.91 L 236.04 88.83 C 236.36 89.63 237.27 90.02 238.07 89.70 C 238.87 89.38 239.26 88.47 238.94 87.67 Z M 238.59 86.81 L 238.27 85.87 C 237.98 85.06 237.09 84.63 236.28 84.92 C 235.46 85.20 235.03 86.09 235.32 86.91 L 235.65 87.84 C 235.93 88.66 236.82 89.09 237.64 88.80 C 238.45 88.51 238.88 87.62 238.59 86.81 Z M 238.29 85.94 L 238.00 84.99 C 237.75 84.17 236.88 83.70 236.05 83.95 C 235.23 84.20 234.76 85.07 235.01 85.90 L 235.30 86.84 C 235.55 87.67 236.42 88.13 237.25 87.88 C 238.07 87.63 238.54 86.76 238.29 85.94 Z M 238.01 85.05 L 237.77 84.10 C 237.55 83.27 236.69 82.77 235.86 82.99 C 235.03 83.21 234.53 84.06 234.75 84.90 L 235.00 85.84 C 235.21 86.67 236.07 87.17 236.90 86.95 C 237.74 86.73 238.23 85.88 238.01 85.05 Z M 237.78 84.15 L 237.56 83.18 C 237.36 82.34 236.53 81.81 235.69 82.01 C 234.85 82.20 234.32 83.03 234.51 83.88 L 234.73 84.85 C 234.93 85.69 235.76 86.21 236.60 86.02 C 237.45 85.83 237.97 84.99 237.78 84.15 Z M 237.57 83.22 L 237.37 82.22 C 237.20 81.38 236.38 80.83 235.53 80.99 C 234.69 81.16 234.14 81.98 234.30 82.83 L 234.50 83.83 C 234.67 84.68 235.49 85.23 236.34 85.06 C 237.18 84.89 237.73 84.07 237.57 83.22 Z M 237.37 82.26 L 237.20 81.28 C 237.06 80.43 236.25 79.86 235.40 80.01 C 234.55 80.15 233.98 80.96 234.13 81.81 L 234.30 82.79 C 234.44 83.64 235.25 84.21 236.10 84.06 C 236.95 83.92 237.52 83.11 237.37 82.26 Z M 237.21 81.31 L 237.06 80.34 C 236.93 79.48 236.13 78.90 235.28 79.03 C 234.43 79.16 233.84 79.96 233.97 80.81 L 234.12 81.78 C 234.25 82.63 235.05 83.22 235.90 83.09 C 236.75 82.96 237.34 82.16 237.21 81.31 Z M 237.06 80.36 L 236.93 79.37 C 236.81 78.51 236.02 77.92 235.17 78.03 C 234.32 78.15 233.72 78.94 233.83 79.79 L 233.97 80.78 C 234.09 81.64 234.87 82.24 235.73 82.12 C 236.58 82.00 237.18 81.22 237.06 80.36 Z M 236.93 79.39 L 236.81 78.37 C 236.70 77.52 235.92 76.91 235.07 77.02 C 234.21 77.12 233.60 77.90 233.71 78.76 L 233.83 79.77 C 233.94 80.62 234.72 81.23 235.57 81.13 C 236.43 81.02 237.04 80.24 236.93 79.39 Z M 236.81 78.39 L 236.70 77.38 C 236.60 76.52 235.83 75.90 234.97 76.00 C 234.11 76.10 233.50 76.87 233.59 77.73 L 233.71 78.74 C 233.80 79.60 234.57 80.21 235.43 80.12 C 236.29 80.02 236.90 79.25 236.81 78.39 Z M 236.70 77.40 L 236.60 76.39 C 236.51 75.53 235.74 74.90 234.89 74.99 C 234.03 75.07 233.40 75.84 233.49 76.70 L 233.59 77.71 C 233.68 78.57 234.44 79.19 235.30 79.11 C 236.16 79.02 236.78 78.25 236.70 77.40 Z M 236.60 76.41 L 236.51 75.40 C 236.43 74.54 235.68 73.91 234.82 73.98 C 233.96 74.06 233.32 74.81 233.40 75.67 L 233.49 76.68 C 233.56 77.54 234.32 78.17 235.18 78.10 C 236.04 78.02 236.67 77.26 236.60 76.41 Z M 236.51 75.43 L 236.44 74.44 C 236.38 73.58 235.63 72.93 234.77 73.00 C 233.91 73.06 233.27 73.80 233.33 74.66 L 233.40 75.65 C 233.46 76.51 234.20 77.16 235.06 77.09 C 235.92 77.03 236.57 76.29 236.51 75.43 Z M 236.44 74.47 L 236.39 73.46 C 236.35 72.60 235.62 71.93 234.76 71.97 C 233.89 72.02 233.23 72.75 233.27 73.61 L 233.33 74.63 C 233.37 75.49 234.10 76.15 234.96 76.11 C 235.82 76.07 236.49 75.34 236.44 74.47 Z M 236.39 73.49 L 236.37 72.45 C 236.34 71.59 235.62 70.91 234.76 70.94 C 233.90 70.96 233.22 71.68 233.24 72.54 L 233.27 73.58 C 233.30 74.44 234.02 75.12 234.88 75.09 C 235.74 75.07 236.42 74.35 236.39 73.49 Z M 236.37 72.48 L 236.35 71.49 C 236.35 70.63 235.64 69.94 234.78 69.95 C 233.91 69.96 233.22 70.67 233.23 71.53 L 233.24 72.52 C 233.25 73.38 233.96 74.07 234.82 74.06 C 235.68 74.05 236.38 73.34 236.37 72.48 Z M 236.35 71.51 L 236.35 70.56 C 236.35 69.70 235.65 69.00 234.79 69.00 C 233.93 69.01 233.23 69.71 233.23 70.57 L 233.23 71.51 C 233.23 72.37 233.93 73.07 234.80 73.07 C 235.66 73.07 236.36 72.37 236.35 71.51 Z M 236.35 70.56 L 236.35 69.57 C 236.35 68.71 235.65 68.01 234.79 68.01 C 233.93 68.01 233.23 68.71 233.23 69.58 L 233.23 70.57 C 233.23 71.43 233.93 72.13 234.79 72.13 C 235.65 72.13 236.35 71.43 236.35 70.56 Z M 236.35 69.57 L 236.35 68.59 C 236.35 67.72 235.64 67.03 234.78 67.03 C 233.92 67.04 233.22 67.74 233.23 68.60 L 233.23 69.58 C 233.23 70.44 233.94 71.14 234.80 71.14 C 235.66 71.13 236.36 70.43 236.35 69.57 Z M 236.35 68.58 L 236.34 67.57 C 236.33 66.71 235.62 66.02 234.76 66.03 C 233.90 66.04 233.21 66.74 233.22 67.60 L 233.23 68.61 C 233.24 69.47 233.94 70.16 234.80 70.15 C 235.67 70.14 236.36 69.44 236.35 68.58 Z M 236.34 67.55 L 236.31 66.48 C 236.29 65.62 235.57 64.94 234.71 64.96 C 233.84 64.98 233.16 65.70 233.19 66.56 L 233.22 67.63 C 233.24 68.49 233.96 69.17 234.82 69.15 C 235.68 69.12 236.36 68.41 236.34 67.55 Z M 236.29 66.31 L 236.15 65.28 C 236.04 64.42 235.25 63.82 234.40 63.94 C 233.54 64.06 232.94 64.84 233.06 65.70 L 233.20 66.73 C 233.32 67.59 234.10 68.18 234.96 68.07 C 235.81 67.95 236.41 67.16 236.29 66.31 Z M 236.00 64.79 L 235.60 63.98 C 235.21 63.21 234.27 62.89 233.50 63.28 C 232.73 63.67 232.42 64.60 232.80 65.37 L 233.21 66.19 C 233.60 66.96 234.53 67.27 235.31 66.88 C 236.08 66.50 236.39 65.56 236.00 64.79 Z M 234.96 63.31 L 234.26 62.92 C 233.51 62.50 232.56 62.78 232.14 63.53 C 231.72 64.28 231.99 65.23 232.75 65.65 L 233.44 66.04 C 234.20 66.46 235.15 66.19 235.57 65.43 C 235.98 64.68 235.71 63.73 234.96 63.31 Z M 233.62 62.73 L 232.80 62.67 C 231.94 62.61 231.20 63.25 231.13 64.11 C 231.07 64.97 231.72 65.72 232.58 65.79 L 233.39 65.84 C 234.25 65.91 235.00 65.26 235.06 64.40 C 235.12 63.54 234.48 62.79 233.62 62.73 Z M 232.53 62.68 L 231.54 62.78 C 230.69 62.87 230.06 63.64 230.15 64.49 C 230.24 65.35 231.01 65.97 231.87 65.88 L 232.85 65.78 C 233.71 65.69 234.33 64.92 234.24 64.07 C 234.15 63.21 233.38 62.59 232.53 62.68 Z M 231.43 62.80 L 230.34 62.99 C 229.49 63.15 228.93 63.96 229.08 64.81 C 229.24 65.66 230.05 66.22 230.90 66.07 L 231.99 65.87 C 232.84 65.71 233.40 64.90 233.24 64.05 C 233.09 63.20 232.27 62.64 231.43 62.80 Z M 230.31 63.00 L 229.17 63.23 C 228.33 63.40 227.78 64.23 227.95 65.07 C 228.13 65.92 228.95 66.46 229.79 66.29 L 230.93 66.06 C 231.77 65.89 232.32 65.06 232.15 64.22 C 231.98 63.37 231.15 62.83 230.31 63.00 Z M 229.20 63.23 L 228.16 63.42 C 227.31 63.57 226.75 64.38 226.90 65.23 C 227.05 66.08 227.87 66.64 228.72 66.49 L 229.76 66.30 C 230.61 66.14 231.17 65.33 231.02 64.48 C 230.87 63.63 230.05 63.07 229.20 63.23 Z M 228.20 63.41 L 227.19 63.56 C 226.34 63.69 225.75 64.49 225.88 65.34 C 226.01 66.19 226.81 66.78 227.66 66.65 L 228.67 66.49 C 229.52 66.37 230.11 65.57 229.98 64.72 C 229.85 63.86 229.05 63.28 228.20 63.41 Z M 227.23 63.56 L 226.24 63.68 C 225.38 63.79 224.77 64.57 224.88 65.42 C 224.99 66.28 225.77 66.88 226.62 66.78 L 227.62 66.65 C 228.47 66.55 229.08 65.77 228.97 64.91 C 228.87 64.06 228.09 63.45 227.23 63.56 Z M 226.27 63.68 L 225.30 63.77 C 224.44 63.86 223.82 64.63 223.90 65.49 C 223.99 66.34 224.76 66.97 225.61 66.88 L 226.59 66.78 C 227.45 66.70 228.07 65.93 227.98 65.07 C 227.90 64.21 227.13 63.59 226.27 63.68 Z M 225.33 63.77 L 224.37 63.85 C 223.51 63.92 222.87 64.67 222.94 65.53 C 223.01 66.39 223.77 67.03 224.62 66.96 L 225.58 66.88 C 226.44 66.81 227.08 66.06 227.01 65.20 C 226.94 64.34 226.19 63.70 225.33 63.77 Z M 224.40 63.85 L 223.45 63.91 C 222.59 63.96 221.94 64.71 222.00 65.57 C 222.05 66.43 222.80 67.08 223.66 67.02 L 224.60 66.96 C 225.46 66.91 226.11 66.16 226.06 65.30 C 226.00 64.44 225.26 63.79 224.40 63.85 Z M 223.47 63.91 L 222.53 63.96 C 221.67 64.01 221.01 64.74 221.05 65.60 C 221.10 66.46 221.83 67.12 222.69 67.08 L 223.64 67.03 C 224.50 66.98 225.16 66.24 225.12 65.38 C 225.07 64.52 224.33 63.86 223.47 63.91 Z M 222.54 63.96 L 221.56 64.01 C 220.70 64.05 220.04 64.78 220.08 65.64 C 220.12 66.50 220.85 67.17 221.71 67.12 L 222.69 67.08 C 223.55 67.04 224.21 66.30 224.17 65.44 C 224.13 64.58 223.40 63.92 222.54 63.96 Z M 221.56 64.01 L 220.54 64.05 C 219.68 64.10 219.02 64.83 219.06 65.69 C 219.10 66.55 219.83 67.22 220.69 67.17 L 221.71 67.12 C 222.58 67.08 223.24 66.35 223.20 65.49 C 223.16 64.63 222.42 63.96 221.56 64.01 Z M 220.54 64.06 L 219.44 64.11 C 218.58 64.16 217.92 64.89 217.97 65.76 C 218.01 66.62 218.75 67.28 219.61 67.23 L 220.70 67.17 C 221.56 67.13 222.22 66.39 222.18 65.53 C 222.13 64.67 221.40 64.01 220.54 64.06 Z M 219.43 64.11 L 218.47 64.17 C 217.61 64.22 216.96 64.96 217.01 65.83 C 217.06 66.69 217.80 67.34 218.66 67.29 L 219.62 67.23 C 220.48 67.18 221.14 66.44 221.08 65.58 C 221.03 64.72 220.29 64.06 219.43 64.11 Z M 218.46 64.17 L 217.48 64.24 C 216.62 64.30 215.97 65.04 216.03 65.90 C 216.09 66.76 216.83 67.41 217.69 67.35 L 218.67 67.29 C 219.53 67.23 220.18 66.49 220.13 65.63 C 220.07 64.77 219.32 64.12 218.46 64.17 Z M 217.47 64.24 L 216.46 64.31 C 215.60 64.38 214.96 65.13 215.02 65.99 C 215.08 66.85 215.83 67.49 216.69 67.43 L 217.70 67.35 C 218.56 67.29 219.21 66.54 219.14 65.68 C 219.08 64.82 218.33 64.18 217.47 64.24 Z M 216.45 64.31 L 215.43 64.40 C 214.57 64.46 213.93 65.22 214.00 66.08 C 214.06 66.94 214.82 67.58 215.68 67.51 L 216.70 67.43 C 217.56 67.36 218.20 66.61 218.13 65.75 C 218.06 64.89 217.31 64.25 216.45 64.31 Z M 215.42 64.40 L 214.40 64.48 C 213.54 64.56 212.90 65.31 212.97 66.17 C 213.05 67.03 213.80 67.67 214.66 67.60 L 215.68 67.51 C 216.54 67.43 217.18 66.68 217.11 65.82 C 217.03 64.96 216.28 64.32 215.42 64.40 Z M 214.39 64.49 L 213.38 64.58 C 212.52 64.66 211.89 65.42 211.97 66.27 C 212.05 67.13 212.81 67.77 213.67 67.69 L 214.67 67.59 C 215.53 67.52 216.16 66.76 216.08 65.90 C 216.00 65.04 215.25 64.41 214.39 64.49 Z M 213.37 64.58 L 212.34 64.68 C 211.48 64.77 210.86 65.53 210.94 66.39 C 211.03 67.25 211.79 67.87 212.65 67.79 L 213.68 67.69 C 214.54 67.60 215.16 66.84 215.08 65.98 C 214.99 65.12 214.23 64.49 213.37 64.58 Z M 212.33 64.68 L 211.31 64.79 C 210.45 64.88 209.83 65.65 209.92 66.51 C 210.01 67.37 210.78 67.99 211.64 67.90 L 212.66 67.79 C 213.52 67.69 214.14 66.92 214.05 66.07 C 213.96 65.21 213.19 64.59 212.33 64.68 Z M 211.29 64.79 L 210.30 64.91 C 209.45 65.01 208.83 65.78 208.93 66.64 C 209.03 67.50 209.81 68.11 210.66 68.01 L 211.65 67.89 C 212.51 67.80 213.12 67.02 213.02 66.16 C 212.93 65.31 212.15 64.69 211.29 64.79 Z M 210.29 64.91 L 209.32 65.03 C 208.46 65.14 207.85 65.92 207.96 66.77 C 208.07 67.63 208.85 68.24 209.70 68.13 L 210.67 68.01 C 211.53 67.90 212.14 67.12 212.03 66.27 C 211.92 65.41 211.14 64.80 210.29 64.91 Z M 209.30 65.03 L 208.34 65.16 C 207.48 65.27 206.88 66.06 206.99 66.91 C 207.11 67.77 207.89 68.37 208.75 68.26 L 209.71 68.13 C 210.57 68.01 211.17 67.23 211.06 66.38 C 210.94 65.52 210.16 64.92 209.30 65.03 Z M 208.33 65.16 L 207.36 65.30 C 206.50 65.42 205.91 66.20 206.03 67.06 C 206.14 67.91 206.93 68.51 207.79 68.39 L 208.76 68.25 C 209.61 68.14 210.21 67.35 210.09 66.49 C 209.97 65.64 209.18 65.04 208.33 65.16 Z M 207.35 65.30 L 206.49 65.42 C 205.64 65.55 205.05 66.34 205.17 67.19 C 205.30 68.05 206.09 68.64 206.94 68.51 L 207.80 68.39 C 208.65 68.26 209.24 67.47 209.12 66.62 C 208.99 65.77 208.20 65.17 207.35 65.30 Z M 206.48 65.42 L 205.61 65.56 C 204.76 65.68 204.17 66.48 204.30 67.33 C 204.43 68.19 205.23 68.77 206.08 68.64 L 206.95 68.51 C 207.80 68.38 208.39 67.59 208.26 66.73 C 208.13 65.88 207.34 65.29 206.48 65.42 Z M 205.60 65.56 L 204.69 65.70 C 203.84 65.84 203.25 66.64 203.39 67.49 C 203.52 68.34 204.32 68.92 205.17 68.79 L 206.09 68.64 C 206.94 68.51 207.52 67.71 207.39 66.86 C 207.25 66.00 206.45 65.42 205.60 65.56 Z M 204.68 65.70 L 203.71 65.86 C 202.86 66.00 202.28 66.81 202.42 67.66 C 202.56 68.51 203.37 69.08 204.22 68.94 L 205.18 68.78 C 206.04 68.64 206.61 67.84 206.47 66.99 C 206.33 66.14 205.53 65.56 204.68 65.70 Z M 203.70 65.87 L 202.66 66.04 C 201.81 66.19 201.24 67.00 201.39 67.85 C 201.53 68.70 202.34 69.27 203.19 69.12 L 204.23 68.94 C 205.08 68.80 205.65 67.99 205.50 67.14 C 205.35 66.29 204.55 65.72 203.70 65.87 Z M 202.65 66.05 L 201.53 66.25 C 200.68 66.40 200.11 67.21 200.27 68.06 C 200.42 68.91 201.23 69.47 202.08 69.32 L 203.20 69.12 C 204.05 68.97 204.61 68.16 204.46 67.31 C 204.31 66.46 203.50 65.89 202.65 66.05 Z M 201.52 66.25 L 200.40 66.45 C 199.55 66.61 198.99 67.42 199.15 68.27 C 199.31 69.12 200.12 69.68 200.97 69.52 L 202.09 69.32 C 202.93 69.16 203.49 68.35 203.34 67.50 C 203.18 66.65 202.37 66.09 201.52 66.25 Z M 200.40 66.45 L 199.43 66.64 C 198.59 66.80 198.03 67.61 198.19 68.46 C 198.35 69.31 199.16 69.86 200.01 69.70 L 200.97 69.52 C 201.82 69.36 202.38 68.55 202.22 67.70 C 202.06 66.85 201.24 66.29 200.40 66.45 Z M 199.43 66.64 L 198.43 66.83 C 197.58 66.99 197.02 67.81 197.19 68.66 C 197.35 69.50 198.17 70.06 199.01 69.89 L 200.02 69.70 C 200.86 69.54 201.42 68.72 201.26 67.88 C 201.09 67.03 200.28 66.47 199.43 66.64 Z M 198.42 66.83 L 197.40 67.03 C 196.55 67.19 196.00 68.01 196.16 68.86 C 196.33 69.70 197.14 70.26 197.99 70.09 L 199.02 69.89 C 199.86 69.73 200.42 68.91 200.25 68.06 C 200.09 67.22 199.27 66.66 198.42 66.83 Z M 197.40 67.03 L 196.36 67.23 C 195.51 67.39 194.96 68.21 195.13 69.06 C 195.29 69.91 196.11 70.46 196.96 70.29 L 197.99 70.09 C 198.84 69.93 199.39 69.11 199.23 68.26 C 199.06 67.42 198.24 66.86 197.40 67.03 Z M 196.36 67.23 L 195.33 67.43 C 194.48 67.60 193.93 68.42 194.10 69.26 C 194.26 70.11 195.08 70.66 195.93 70.50 L 196.96 70.29 C 197.81 70.13 198.36 69.31 198.19 68.46 C 198.03 67.62 197.20 67.06 196.36 67.23 Z M 195.33 67.43 L 194.32 67.63 C 193.48 67.80 192.93 68.62 193.09 69.46 C 193.26 70.31 194.08 70.86 194.93 70.69 L 195.93 70.50 C 196.78 70.33 197.33 69.51 197.16 68.66 C 197.00 67.82 196.18 67.27 195.33 67.43 Z M 194.32 67.63 L 193.35 67.82 C 192.51 67.99 191.96 68.81 192.12 69.65 C 192.29 70.50 193.11 71.05 193.96 70.88 L 194.93 70.69 C 195.77 70.53 196.32 69.71 196.16 68.86 C 195.99 68.01 195.17 67.46 194.32 67.63 Z M 193.36 67.82 L 192.44 68.00 C 191.59 68.17 191.04 68.99 191.21 69.83 C 191.37 70.68 192.19 71.23 193.04 71.06 L 193.96 70.88 C 194.80 70.72 195.35 69.90 195.19 69.05 C 195.02 68.21 194.20 67.65 193.36 67.82 Z M 192.44 68.00 L 191.41 68.20 C 190.56 68.37 190.01 69.18 190.17 70.03 C 190.34 70.88 191.16 71.43 192.00 71.27 L 193.04 71.06 C 193.88 70.90 194.44 70.08 194.27 69.23 C 194.11 68.39 193.29 67.83 192.44 68.00 Z M 191.41 68.20 L 190.21 68.43 C 189.37 68.59 188.81 69.41 188.97 70.26 C 189.14 71.10 189.96 71.66 190.80 71.50 L 192.00 71.27 C 192.85 71.10 193.40 70.29 193.24 69.44 C 193.08 68.59 192.26 68.04 191.41 68.20 Z M 190.22 68.43 L 189.18 68.62 C 188.33 68.78 187.77 69.60 187.93 70.44 C 188.09 71.29 188.90 71.85 189.75 71.69 L 190.79 71.50 C 191.64 71.34 192.20 70.52 192.04 69.68 C 191.88 68.83 191.07 68.27 190.22 68.43 Z M 189.19 68.62 L 188.26 68.79 C 187.41 68.94 186.85 69.75 187.00 70.60 C 187.15 71.45 187.96 72.01 188.81 71.86 L 189.74 71.69 C 190.59 71.54 191.15 70.73 191.00 69.88 C 190.85 69.03 190.04 68.47 189.19 68.62 Z M 188.28 68.78 L 187.43 68.93 C 186.58 69.07 186.01 69.88 186.15 70.73 C 186.30 71.58 187.10 72.15 187.95 72.01 L 188.80 71.86 C 189.65 71.72 190.22 70.91 190.08 70.06 C 189.93 69.21 189.13 68.64 188.28 68.78 Z M 187.45 68.92 L 186.64 69.05 C 185.79 69.19 185.21 69.99 185.35 70.84 C 185.48 71.69 186.28 72.27 187.13 72.14 L 187.94 72.01 C 188.79 71.87 189.37 71.07 189.23 70.22 C 189.10 69.37 188.30 68.79 187.45 68.92 Z M 186.66 69.05 L 185.70 69.19 C 184.85 69.31 184.25 70.11 184.38 70.96 C 184.50 71.81 185.30 72.40 186.15 72.28 L 187.11 72.14 C 187.97 72.01 188.56 71.22 188.43 70.37 C 188.31 69.51 187.51 68.92 186.66 69.05 Z M 185.72 69.19 L 184.73 69.32 C 183.88 69.43 183.27 70.22 183.39 71.07 C 183.50 71.93 184.29 72.53 185.14 72.41 L 186.13 72.28 C 186.98 72.17 187.59 71.38 187.47 70.53 C 187.36 69.67 186.57 69.07 185.72 69.19 Z M 184.75 69.32 L 183.76 69.43 C 182.90 69.54 182.29 70.31 182.39 71.17 C 182.49 72.02 183.27 72.64 184.13 72.53 L 185.12 72.42 C 185.98 72.31 186.59 71.54 186.49 70.68 C 186.38 69.83 185.61 69.21 184.75 69.32 Z M 183.78 69.43 L 182.78 69.54 C 181.93 69.62 181.30 70.39 181.39 71.25 C 181.48 72.11 182.25 72.73 183.11 72.64 L 184.11 72.54 C 184.96 72.45 185.59 71.68 185.50 70.82 C 185.41 69.96 184.64 69.34 183.78 69.43 Z M 182.81 69.53 L 181.79 69.63 C 180.93 69.70 180.30 70.46 180.37 71.32 C 180.45 72.18 181.21 72.81 182.07 72.73 L 183.09 72.64 C 183.95 72.56 184.58 71.81 184.50 70.95 C 184.42 70.09 183.66 69.46 182.81 69.53 Z M 181.80 69.62 L 180.76 69.71 C 179.90 69.79 179.27 70.54 179.34 71.40 C 179.41 72.26 180.17 72.90 181.03 72.82 L 182.06 72.74 C 182.92 72.66 183.56 71.91 183.48 71.05 C 183.41 70.19 182.66 69.55 181.80 69.62 Z M 180.74 69.71 L 179.73 69.82 C 178.87 69.90 178.24 70.67 178.33 71.52 C 178.41 72.38 179.18 73.01 180.04 72.92 L 181.05 72.82 C 181.91 72.74 182.53 71.97 182.45 71.11 C 182.36 70.26 181.60 69.63 180.74 69.71 Z M 179.67 69.82 L 178.70 69.95 C 177.85 70.07 177.25 70.86 177.36 71.71 C 177.48 72.56 178.27 73.16 179.12 73.05 L 180.09 72.92 C 180.94 72.80 181.54 72.01 181.43 71.16 C 181.31 70.31 180.53 69.71 179.67 69.82 Z M 178.60 69.97 L 177.67 70.16 C 176.82 70.33 176.27 71.15 176.44 72.00 C 176.61 72.84 177.43 73.39 178.28 73.22 L 179.22 73.03 C 180.06 72.86 180.61 72.04 180.44 71.19 C 180.27 70.35 179.45 69.80 178.60 69.97 Z M 177.52 70.19 L 176.52 70.49 C 175.70 70.74 175.23 71.61 175.48 72.44 C 175.72 73.26 176.59 73.73 177.42 73.48 L 178.42 73.18 C 179.25 72.94 179.72 72.07 179.47 71.24 C 179.22 70.41 178.35 69.95 177.52 70.19 Z M 176.40 70.54 L 175.48 70.90 C 174.67 71.22 174.28 72.12 174.60 72.93 C 174.91 73.73 175.82 74.12 176.62 73.80 L 177.55 73.44 C 178.35 73.12 178.74 72.22 178.42 71.42 C 178.11 70.61 177.20 70.22 176.40 70.54 Z M 175.40 70.93 L 174.52 71.33 C 173.74 71.69 173.40 72.62 173.75 73.40 C 174.11 74.19 175.04 74.53 175.82 74.17 L 176.70 73.77 C 177.48 73.41 177.83 72.49 177.47 71.70 C 177.11 70.92 176.18 70.57 175.40 70.93 Z M 174.50 71.34 L 174.18 71.50 C 173.40 71.87 173.07 72.80 173.44 73.58 C 173.81 74.36 174.74 74.69 175.52 74.32 L 175.85 74.16 C 176.62 73.79 176.95 72.86 176.58 72.08 C 176.21 71.30 175.28 70.97 174.50 71.34 Z"
      fill="black"
      fill-rule="nonzero" /></svg>