<svg xmlns="http://www.w3.org/2000/svg" width="300" height="300" viewBox="0 0 300 300">
<path d="M 119.89 116.27 L 119.13 116.88 C 118.47 117.43 118.36 118.41 118.91 119.08 C 119.45 119.75 120.43 119.85 121.10 119.31 L 121.86 118.70 C 122.53 118.15 122.63 117.17 122.08 116.50 C 121.54 115.83 120.56 115.73 119.89 116.27 Z M 119.11 116.90 L 118.37 117.53 C 117.71 118.09 117.62 119.07 118.18 119.73 C 118.73 120.39 119.72 120.47 120.38 119.92 L 121.12 119.29 C 121.78 118.74 121.87 117.75 121.31 117.09 C 120.76 116.43 119.77 116.35 119.11 116.90 Z M 118.33 117.56 L 117.59 118.23 C 116.95 118.81 116.89 119.79 117.47 120.43 C 118.05 121.08 119.03 121.13 119.67 120.55 L 120.41 119.89 C 121.06 119.31 121.11 118.32 120.53 117.68 C 119.95 117.04 118.97 116.99 118.33 117.56 Z M 117.53 118.28 L 116.80 119.00 C 116.19 119.61 116.19 120.60 116.79 121.21 C 117.40 121.82 118.39 121.83 119.00 121.22 L 119.73 120.50 C 120.34 119.89 120.35 118.91 119.74 118.29 C 119.13 117.68 118.15 117.67 117.53 118.28 Z M 116.74 119.07 L 116.06 119.82 C 115.48 120.46 115.53 121.45 116.17 122.03 C 116.81 122.61 117.80 122.55 118.38 121.91 L 119.06 121.16 C 119.64 120.52 119.59 119.53 118.95 118.95 C 118.31 118.37 117.32 118.42 116.74 119.07 Z M 116.00 119.89 L 115.38 120.67 C 114.84 121.34 114.94 122.32 115.61 122.86 C 116.29 123.40 117.27 123.30 117.81 122.63 L 118.44 121.85 C 118.98 121.18 118.87 120.19 118.20 119.65 C 117.53 119.11 116.54 119.22 116.00 119.89 Z M 115.33 120.73 L 114.73 121.55 C 114.22 122.24 114.38 123.22 115.07 123.73 C 115.77 124.24 116.75 124.08 117.26 123.39 L 117.86 122.57 C 118.36 121.87 118.21 120.89 117.51 120.38 C 116.82 119.88 115.84 120.03 115.33 120.73 Z M 114.69 121.60 L 114.13 122.45 C 113.65 123.16 113.85 124.13 114.57 124.61 C 115.28 125.09 116.26 124.90 116.73 124.18 L 117.30 123.33 C 117.77 122.61 117.58 121.64 116.86 121.17 C 116.14 120.69 115.17 120.88 114.69 121.60 Z M 114.10 122.50 L 113.58 123.35 C 113.13 124.09 113.36 125.05 114.10 125.50 C 114.84 125.95 115.80 125.72 116.25 124.98 L 116.77 124.12 C 117.22 123.39 116.98 122.42 116.24 121.98 C 115.51 121.53 114.55 121.76 114.10 122.50 Z M 113.54 123.41 L 113.06 124.29 C 112.64 125.04 112.92 126.00 113.67 126.41 C 114.43 126.83 115.38 126.56 115.80 125.80 L 116.28 124.92 C 116.70 124.16 116.43 123.21 115.67 122.80 C 114.91 122.38 113.96 122.65 113.54 123.41 Z M 113.03 124.35 L 112.57 125.27 C 112.19 126.05 112.50 126.98 113.28 127.37 C 114.05 127.75 114.99 127.43 115.37 126.66 L 115.83 125.74 C 116.21 124.96 115.90 124.03 115.12 123.64 C 114.35 123.26 113.41 123.58 113.03 124.35 Z M 112.54 125.34 L 112.14 126.25 C 111.79 127.04 112.15 127.96 112.94 128.31 C 113.73 128.66 114.66 128.30 115.01 127.50 L 115.41 126.59 C 115.75 125.80 115.39 124.88 114.60 124.53 C 113.81 124.18 112.89 124.54 112.54 125.34 Z M 112.11 126.31 L 111.76 127.22 C 111.44 128.02 111.84 128.93 112.65 129.25 C 113.45 129.56 114.36 129.16 114.68 128.36 L 115.03 127.44 C 115.35 126.64 114.95 125.73 114.14 125.42 C 113.34 125.10 112.43 125.50 112.11 126.31 Z M 111.74 127.27 L 111.42 128.19 C 111.13 129.01 111.56 129.90 112.38 130.19 C 113.19 130.48 114.09 130.04 114.37 129.23 L 114.69 128.30 C 114.98 127.49 114.55 126.59 113.73 126.31 C 112.92 126.02 112.02 126.45 111.74 127.27 Z M 111.40 128.24 L 111.11 129.15 C 110.85 129.98 111.30 130.86 112.13 131.12 C 112.95 131.38 113.83 130.93 114.09 130.10 L 114.39 129.19 C 114.65 128.36 114.19 127.48 113.37 127.22 C 112.54 126.96 111.66 127.41 111.40 128.24 Z M 111.10 129.19 L 110.82 130.12 C 110.58 130.95 111.06 131.82 111.88 132.07 C 112.71 132.31 113.58 131.83 113.83 131.01 L 114.10 130.07 C 114.35 129.24 113.87 128.37 113.04 128.13 C 112.21 127.88 111.34 128.36 111.10 129.19 Z M 110.82 130.15 L 110.55 131.11 C 110.32 131.94 110.81 132.81 111.65 133.04 C 112.48 133.26 113.34 132.77 113.57 131.94 L 113.84 130.98 C 114.07 130.14 113.58 129.28 112.74 129.05 C 111.91 128.82 111.05 129.31 110.82 130.15 Z M 110.55 131.13 L 110.29 132.12 C 110.07 132.96 110.57 133.81 111.41 134.03 C 112.25 134.25 113.10 133.75 113.32 132.91 L 113.58 131.92 C 113.79 131.08 113.29 130.23 112.46 130.01 C 111.62 129.79 110.76 130.29 110.55 131.13 Z M 110.29 132.14 L 110.04 133.14 C 109.83 133.98 110.34 134.83 111.18 135.04 C 112.02 135.24 112.86 134.73 113.07 133.90 L 113.32 132.89 C 113.53 132.06 113.02 131.21 112.18 131.00 C 111.34 130.79 110.50 131.30 110.29 132.14 Z M 110.03 133.15 L 109.81 134.07 C 109.61 134.91 110.12 135.76 110.96 135.96 C 111.80 136.17 112.65 135.65 112.85 134.81 L 113.08 133.89 C 113.28 133.05 112.76 132.20 111.92 132.00 C 111.08 131.79 110.24 132.31 110.03 133.15 Z M 109.81 134.08 L 109.58 135.03 C 109.38 135.87 109.90 136.71 110.74 136.91 C 111.58 137.11 112.42 136.59 112.63 135.75 L 112.85 134.81 C 113.05 133.96 112.53 133.12 111.69 132.92 C 110.85 132.72 110.01 133.24 109.81 134.08 Z M 109.58 135.03 L 109.35 136.00 C 109.15 136.84 109.67 137.69 110.51 137.88 C 111.35 138.08 112.20 137.56 112.39 136.72 L 112.63 135.75 C 112.82 134.91 112.31 134.07 111.46 133.87 C 110.62 133.67 109.78 134.19 109.58 135.03 Z M 109.35 136.00 L 109.12 137.00 C 108.92 137.84 109.44 138.68 110.28 138.88 C 111.12 139.08 111.96 138.56 112.16 137.72 L 112.39 136.72 C 112.59 135.88 112.07 135.04 111.23 134.84 C 110.39 134.64 109.55 135.16 109.35 136.00 Z M 109.12 137.00 L 108.87 138.01 C 108.67 138.85 109.19 139.70 110.03 139.90 C 110.87 140.10 111.71 139.58 111.91 138.74 L 112.16 137.72 C 112.36 136.88 111.84 136.04 111.00 135.84 C 110.16 135.64 109.32 136.16 109.12 137.00 Z M 108.87 138.01 L 108.64 138.96 C 108.44 139.80 108.96 140.64 109.80 140.85 C 110.64 141.05 111.48 140.53 111.68 139.70 L 111.91 138.75 C 112.12 137.91 111.60 137.06 110.76 136.86 C 109.92 136.66 109.08 137.17 108.87 138.01 Z M 108.65 138.96 L 108.41 139.91 C 108.21 140.74 108.72 141.59 109.56 141.80 C 110.40 142.00 111.24 141.49 111.45 140.65 L 111.68 139.70 C 111.89 138.86 111.37 138.01 110.54 137.81 C 109.70 137.60 108.85 138.12 108.65 138.96 Z M 108.41 139.90 L 108.17 140.87 C 107.97 141.70 108.48 142.55 109.32 142.76 C 110.15 142.97 111.00 142.45 111.21 141.62 L 111.45 140.65 C 111.66 139.81 111.14 138.97 110.31 138.76 C 109.47 138.55 108.62 139.06 108.41 139.90 Z M 108.18 140.86 L 107.93 141.84 C 107.72 142.68 108.23 143.53 109.07 143.74 C 109.91 143.94 110.76 143.44 110.96 142.60 L 111.21 141.62 C 111.42 140.78 110.91 139.93 110.07 139.72 C 109.23 139.51 108.39 140.02 108.18 140.86 Z M 107.93 141.84 L 107.68 142.83 C 107.47 143.66 107.98 144.51 108.82 144.72 C 109.65 144.94 110.50 144.43 110.71 143.59 L 110.96 142.60 C 111.18 141.76 110.67 140.91 109.83 140.70 C 108.99 140.49 108.14 141.00 107.93 141.84 Z M 107.68 142.82 L 107.43 143.82 C 107.22 144.66 107.72 145.51 108.56 145.72 C 109.40 145.93 110.25 145.43 110.46 144.59 L 110.71 143.59 C 110.93 142.76 110.42 141.91 109.58 141.69 C 108.75 141.48 107.90 141.99 107.68 142.82 Z M 107.43 143.82 L 107.19 144.77 C 106.97 145.61 107.48 146.46 108.31 146.67 C 109.15 146.89 110.00 146.38 110.22 145.55 L 110.46 144.59 C 110.67 143.76 110.17 142.91 109.33 142.69 C 108.50 142.48 107.64 142.98 107.43 143.82 Z M 107.19 144.77 L 106.94 145.72 C 106.73 146.56 107.23 147.41 108.06 147.62 C 108.90 147.84 109.75 147.34 109.97 146.50 L 110.21 145.55 C 110.43 144.71 109.93 143.86 109.09 143.65 C 108.26 143.43 107.40 143.93 107.19 144.77 Z M 106.94 145.72 L 106.69 146.68 C 106.47 147.51 106.97 148.37 107.81 148.58 C 108.65 148.80 109.50 148.30 109.72 147.47 L 109.97 146.51 C 110.18 145.67 109.68 144.82 108.85 144.60 C 108.01 144.38 107.16 144.88 106.94 145.72 Z M 106.69 146.67 L 106.44 147.64 C 106.22 148.48 106.72 149.33 107.55 149.55 C 108.39 149.77 109.24 149.27 109.46 148.44 L 109.72 147.47 C 109.93 146.63 109.44 145.78 108.60 145.56 C 107.77 145.34 106.91 145.84 106.69 146.67 Z M 106.44 147.64 L 106.18 148.61 C 105.96 149.45 106.45 150.30 107.29 150.52 C 108.12 150.75 108.98 150.25 109.20 149.42 L 109.46 148.44 C 109.68 147.61 109.19 146.75 108.35 146.53 C 107.52 146.31 106.66 146.80 106.44 147.64 Z M 106.18 148.61 L 105.92 149.59 C 105.69 150.43 106.18 151.28 107.02 151.51 C 107.85 151.73 108.71 151.24 108.93 150.41 L 109.20 149.42 C 109.42 148.59 108.93 147.73 108.10 147.51 C 107.26 147.28 106.41 147.78 106.18 148.61 Z M 105.92 149.59 L 105.66 150.54 C 105.43 151.37 105.92 152.23 106.75 152.46 C 107.58 152.69 108.44 152.20 108.67 151.37 L 108.93 150.41 C 109.16 149.58 108.67 148.72 107.84 148.50 C 107.00 148.27 106.14 148.76 105.92 149.59 Z M 105.66 150.54 L 105.40 151.47 C 105.17 152.30 105.66 153.16 106.49 153.39 C 107.32 153.62 108.18 153.13 108.41 152.30 L 108.67 151.37 C 108.90 150.54 108.41 149.68 107.58 149.45 C 106.75 149.22 105.89 149.71 105.66 150.54 Z M 105.40 151.46 L 105.14 152.40 C 104.90 153.23 105.39 154.09 106.22 154.33 C 107.05 154.56 107.91 154.08 108.14 153.25 L 108.41 152.31 C 108.64 151.48 108.16 150.61 107.33 150.38 C 106.50 150.15 105.64 150.63 105.40 151.46 Z M 105.14 152.39 L 104.87 153.35 C 104.63 154.18 105.11 155.04 105.94 155.28 C 106.77 155.51 107.63 155.03 107.87 154.20 L 108.14 153.25 C 108.38 152.42 107.90 151.56 107.07 151.32 C 106.24 151.09 105.38 151.56 105.14 152.39 Z M 104.87 153.34 L 104.59 154.31 C 104.35 155.13 104.82 156.00 105.65 156.24 C 106.48 156.48 107.34 156.01 107.59 155.18 L 107.87 154.21 C 108.11 153.38 107.63 152.52 106.80 152.28 C 105.97 152.04 105.11 152.51 104.87 153.34 Z M 104.59 154.30 L 104.30 155.28 C 104.05 156.11 104.53 156.98 105.35 157.22 C 106.18 157.47 107.05 156.99 107.29 156.17 L 107.58 155.18 C 107.83 154.36 107.36 153.49 106.53 153.25 C 105.70 153.00 104.83 153.47 104.59 154.30 Z M 104.30 155.28 L 104.00 156.28 C 103.75 157.10 104.22 157.97 105.05 158.22 C 105.87 158.47 106.74 158.00 106.99 157.17 L 107.29 156.17 C 107.54 155.35 107.07 154.48 106.24 154.23 C 105.42 153.98 104.55 154.45 104.30 155.28 Z M 104.00 156.27 L 103.71 157.23 C 103.46 158.06 103.92 158.93 104.75 159.18 C 105.57 159.43 106.44 158.97 106.69 158.14 L 106.99 157.18 C 107.24 156.36 106.78 155.48 105.95 155.23 C 105.13 154.98 104.25 155.44 104.00 156.27 Z M 103.71 157.22 L 103.42 158.17 C 103.16 159.00 103.62 159.87 104.44 160.13 C 105.27 160.38 106.14 159.92 106.40 159.10 L 106.69 158.15 C 106.95 157.33 106.49 156.45 105.66 156.20 C 104.84 155.94 103.97 156.40 103.71 157.22 Z M 103.42 158.17 L 103.12 159.13 C 102.86 159.95 103.31 160.82 104.13 161.08 C 104.96 161.34 105.83 160.89 106.09 160.06 L 106.40 159.11 C 106.65 158.28 106.20 157.41 105.38 157.15 C 104.55 156.89 103.68 157.34 103.42 158.17 Z M 103.12 159.12 L 102.81 160.08 C 102.55 160.90 103.00 161.78 103.82 162.04 C 104.64 162.31 105.52 161.85 105.78 161.03 L 106.09 160.07 C 106.35 159.25 105.90 158.37 105.08 158.11 C 104.26 157.85 103.38 158.30 103.12 159.12 Z M 102.81 160.07 L 102.50 161.03 C 102.23 161.85 102.68 162.74 103.50 163.00 C 104.32 163.27 105.20 162.82 105.47 162.00 L 105.78 161.04 C 106.05 160.22 105.60 159.34 104.78 159.07 C 103.96 158.81 103.08 159.25 102.81 160.07 Z M 102.50 161.03 L 102.18 161.98 C 101.91 162.80 102.36 163.68 103.18 163.96 C 103.99 164.23 104.88 163.78 105.15 162.96 L 105.46 162.01 C 105.74 161.19 105.29 160.31 104.47 160.04 C 103.66 159.77 102.77 160.21 102.50 161.03 Z M 102.19 161.97 L 101.87 162.92 C 101.59 163.74 102.03 164.62 102.85 164.90 C 103.67 165.17 104.55 164.73 104.83 163.92 L 105.15 162.97 C 105.42 162.16 104.98 161.27 104.17 160.99 C 103.35 160.72 102.46 161.16 102.19 161.97 Z M 101.87 162.91 L 101.55 163.85 C 101.27 164.67 101.70 165.56 102.51 165.84 C 103.33 166.12 104.22 165.68 104.50 164.87 L 104.82 163.93 C 105.10 163.11 104.67 162.22 103.86 161.94 C 103.04 161.66 102.15 162.10 101.87 162.91 Z M 101.55 163.84 L 101.21 164.81 C 100.92 165.62 101.35 166.52 102.16 166.80 C 102.98 167.09 103.87 166.66 104.16 165.85 L 104.50 164.88 C 104.78 164.07 104.35 163.17 103.54 162.89 C 102.73 162.60 101.84 163.03 101.55 163.84 Z M 101.21 164.80 L 100.87 165.75 C 100.58 166.56 101.00 167.46 101.81 167.75 C 102.62 168.04 103.52 167.62 103.81 166.81 L 104.15 165.86 C 104.44 165.05 104.02 164.15 103.21 163.86 C 102.40 163.57 101.51 163.99 101.21 164.80 Z M 100.88 165.74 L 100.53 166.68 C 100.23 167.49 100.64 168.38 101.45 168.68 C 102.26 168.98 103.16 168.57 103.46 167.76 L 103.80 166.82 C 104.10 166.01 103.69 165.11 102.88 164.82 C 102.07 164.52 101.17 164.93 100.88 165.74 Z M 100.53 166.66 L 100.18 167.59 C 99.88 168.40 100.28 169.30 101.09 169.60 C 101.90 169.91 102.80 169.50 103.10 168.70 L 103.45 167.77 C 103.76 166.96 103.35 166.06 102.55 165.76 C 101.74 165.45 100.84 165.86 100.53 166.66 Z M 100.19 167.58 L 99.83 168.50 C 99.52 169.30 99.92 170.21 100.72 170.52 C 101.52 170.83 102.43 170.43 102.74 169.63 L 103.10 168.71 C 103.41 167.91 103.01 167.00 102.21 166.69 C 101.40 166.38 100.50 166.77 100.19 167.58 Z M 99.84 168.49 L 99.47 169.40 C 99.15 170.20 99.54 171.11 100.34 171.43 C 101.14 171.75 102.05 171.36 102.37 170.56 L 102.74 169.64 C 103.06 168.84 102.67 167.93 101.86 167.61 C 101.06 167.29 100.16 167.68 99.84 168.49 Z M 99.48 169.39 L 99.10 170.31 C 98.77 171.10 99.16 172.02 99.95 172.34 C 100.75 172.67 101.66 172.29 101.99 171.49 L 102.37 170.57 C 102.69 169.77 102.31 168.86 101.51 168.53 C 100.71 168.21 99.80 168.59 99.48 169.39 Z M 99.11 170.29 L 98.72 171.21 C 98.39 172.01 98.76 172.92 99.55 173.26 C 100.35 173.59 101.26 173.22 101.60 172.42 L 101.98 171.50 C 102.32 170.71 101.94 169.79 101.15 169.46 C 100.35 169.12 99.44 169.50 99.11 170.29 Z M 98.72 171.20 L 98.33 172.12 C 97.99 172.92 98.35 173.83 99.14 174.17 C 99.94 174.52 100.85 174.15 101.20 173.36 L 101.59 172.44 C 101.93 171.64 101.57 170.73 100.78 170.39 C 99.98 170.04 99.07 170.41 98.72 171.20 Z M 98.33 172.11 L 97.93 173.03 C 97.58 173.82 97.94 174.74 98.72 175.09 C 99.51 175.44 100.43 175.08 100.78 174.29 L 101.19 173.37 C 101.54 172.58 101.18 171.66 100.39 171.31 C 99.60 170.96 98.68 171.32 98.33 172.11 Z M 97.93 173.02 L 97.52 173.93 C 97.16 174.72 97.51 175.64 98.30 176.00 C 99.08 176.35 100.01 176.00 100.36 175.22 L 100.78 174.30 C 101.13 173.52 100.78 172.59 100.00 172.24 C 99.21 171.88 98.29 172.23 97.93 173.02 Z M 97.52 173.92 L 97.10 174.82 C 96.74 175.61 97.08 176.53 97.86 176.90 C 98.64 177.26 99.57 176.92 99.93 176.14 L 100.36 175.23 C 100.72 174.45 100.38 173.52 99.60 173.16 C 98.82 172.80 97.89 173.14 97.52 173.92 Z M 97.11 174.81 L 96.68 175.71 C 96.31 176.49 96.64 177.42 97.42 177.79 C 98.19 178.16 99.13 177.83 99.50 177.05 L 99.93 176.16 C 100.30 175.38 99.97 174.45 99.19 174.07 C 98.41 173.70 97.48 174.03 97.11 174.81 Z M 96.69 175.69 L 96.25 176.59 C 95.87 177.36 96.19 178.30 96.96 178.68 C 97.74 179.06 98.67 178.74 99.05 177.97 L 99.49 177.07 C 99.87 176.29 99.55 175.36 98.78 174.98 C 98.00 174.60 97.07 174.92 96.69 175.69 Z M 96.26 176.57 L 95.79 177.50 C 95.40 178.26 95.71 179.20 96.48 179.59 C 97.25 179.98 98.19 179.67 98.58 178.90 L 99.04 177.98 C 99.43 177.21 99.12 176.27 98.35 175.88 C 97.58 175.50 96.64 175.80 96.26 176.57 Z M 95.80 177.48 L 95.33 178.38 C 94.93 179.15 95.23 180.09 95.99 180.49 C 96.76 180.89 97.70 180.59 98.10 179.82 L 98.57 178.92 C 98.97 178.15 98.67 177.21 97.90 176.81 C 97.14 176.42 96.20 176.71 95.80 177.48 Z M 95.34 178.37 L 94.86 179.26 C 94.45 180.02 94.74 180.96 95.50 181.37 C 96.26 181.78 97.21 181.49 97.62 180.73 L 98.09 179.84 C 98.50 179.08 98.21 178.13 97.45 177.73 C 96.69 177.32 95.74 177.61 95.34 178.37 Z M 94.87 179.24 L 94.39 180.11 C 93.97 180.87 94.25 181.82 95.00 182.23 C 95.76 182.65 96.71 182.37 97.13 181.62 L 97.61 180.75 C 98.02 179.99 97.75 179.04 96.99 178.62 C 96.24 178.21 95.29 178.48 94.87 179.24 Z M 94.40 180.10 L 93.91 180.95 C 93.49 181.70 93.75 182.66 94.50 183.08 C 95.25 183.51 96.21 183.24 96.63 182.49 L 97.12 181.64 C 97.54 180.88 97.28 179.93 96.53 179.51 C 95.78 179.08 94.82 179.34 94.40 180.10 Z M 93.92 180.93 L 93.44 181.77 C 93.00 182.52 93.25 183.47 94.00 183.91 C 94.75 184.34 95.70 184.09 96.14 183.34 L 96.62 182.51 C 97.06 181.76 96.81 180.80 96.06 180.37 C 95.31 179.93 94.36 180.19 93.92 180.93 Z M 93.44 181.75 L 92.92 182.62 C 92.48 183.36 92.72 184.32 93.46 184.77 C 94.20 185.21 95.16 184.97 95.61 184.23 L 96.13 183.36 C 96.57 182.62 96.33 181.66 95.59 181.22 C 94.85 180.77 93.89 181.01 93.44 181.75 Z M 92.93 182.60 L 92.39 183.48 C 91.94 184.21 92.17 185.18 92.90 185.63 C 93.64 186.09 94.60 185.86 95.06 185.12 L 95.60 184.25 C 96.05 183.51 95.82 182.55 95.09 182.09 C 94.35 181.64 93.39 181.87 92.93 182.60 Z M 92.40 183.46 L 91.86 184.32 C 91.39 185.05 91.61 186.02 92.34 186.48 C 93.07 186.94 94.04 186.73 94.50 186.00 L 95.05 185.14 C 95.51 184.41 95.30 183.44 94.57 182.98 C 93.84 182.51 92.87 182.73 92.40 183.46 Z M 91.87 184.30 L 91.32 185.13 C 90.85 185.86 91.05 186.83 91.78 187.31 C 92.50 187.78 93.47 187.58 93.95 186.85 L 94.49 186.02 C 94.97 185.29 94.76 184.32 94.04 183.84 C 93.31 183.37 92.34 183.57 91.87 184.30 Z M 91.33 185.12 L 90.78 185.93 C 90.30 186.65 90.49 187.63 91.21 188.11 C 91.93 188.60 92.91 188.40 93.39 187.68 L 93.94 186.87 C 94.42 186.15 94.23 185.17 93.51 184.69 C 92.79 184.20 91.81 184.40 91.33 185.12 Z M 90.79 185.92 L 90.24 186.71 C 89.75 187.43 89.93 188.41 90.65 188.90 C 91.36 189.39 92.34 189.21 92.83 188.50 L 93.38 187.70 C 93.88 186.98 93.69 186.01 92.98 185.51 C 92.26 185.02 91.28 185.20 90.79 185.92 Z M 90.25 186.70 L 89.68 187.52 C 89.17 188.23 89.34 189.21 90.06 189.71 C 90.77 190.21 91.75 190.04 92.25 189.33 L 92.83 188.51 C 93.33 187.80 93.16 186.82 92.45 186.32 C 91.74 185.82 90.75 185.99 90.25 186.70 Z M 89.69 187.50 L 89.09 188.33 C 88.58 189.03 88.74 190.02 89.44 190.53 C 90.15 191.04 91.13 190.88 91.64 190.17 L 92.24 189.34 C 92.75 188.64 92.59 187.65 91.88 187.15 C 91.18 186.64 90.19 186.79 89.69 187.50 Z M 89.10 188.31 L 88.50 189.12 C 87.98 189.82 88.13 190.81 88.83 191.33 C 89.53 191.85 90.52 191.70 91.04 191.00 L 91.63 190.19 C 92.15 189.49 92.00 188.50 91.30 187.98 C 90.60 187.46 89.61 187.61 89.10 188.31 Z M 88.51 189.11 L 87.91 189.91 C 87.38 190.60 87.52 191.59 88.22 192.12 C 88.92 192.64 89.91 192.50 90.43 191.80 L 91.03 191.01 C 91.55 190.31 91.41 189.32 90.72 188.80 C 90.02 188.28 89.03 188.42 88.51 189.11 Z M 87.91 189.89 L 87.32 190.68 C 86.79 191.37 86.92 192.36 87.61 192.89 C 88.30 193.42 89.29 193.29 89.82 192.60 L 90.42 191.81 C 90.95 191.12 90.82 190.13 90.13 189.60 C 89.44 189.07 88.45 189.20 87.91 189.89 Z M 87.32 190.67 L 86.72 191.44 C 86.19 192.13 86.31 193.12 87.00 193.66 C 87.69 194.19 88.69 194.07 89.22 193.38 L 89.82 192.60 C 90.35 191.92 90.23 190.92 89.54 190.39 C 88.85 189.85 87.86 189.98 87.32 190.67 Z M 86.73 191.43 L 86.07 192.26 C 85.53 192.95 85.65 193.94 86.34 194.48 C 87.03 195.02 88.02 194.90 88.56 194.22 L 89.22 193.39 C 89.76 192.70 89.64 191.70 88.95 191.16 C 88.26 190.62 87.27 190.74 86.73 191.43 Z M 86.08 192.25 L 85.43 193.06 C 84.88 193.75 84.99 194.74 85.68 195.29 C 86.36 195.84 87.36 195.73 87.91 195.04 L 88.56 194.23 C 89.10 193.54 88.99 192.55 88.31 192.00 C 87.62 191.45 86.63 191.56 86.08 192.25 Z M 85.44 193.05 L 84.80 193.83 C 84.24 194.51 84.34 195.51 85.03 196.07 C 85.71 196.62 86.71 196.52 87.26 195.84 L 87.90 195.06 C 88.45 194.38 88.35 193.37 87.67 192.82 C 86.99 192.26 85.99 192.37 85.44 193.05 Z M 84.81 193.81 L 84.18 194.56 C 83.62 195.23 83.71 196.24 84.38 196.80 C 85.06 197.37 86.06 197.28 86.63 196.60 L 87.25 195.86 C 87.82 195.18 87.73 194.18 87.05 193.61 C 86.38 193.05 85.37 193.14 84.81 193.81 Z M 84.20 194.54 L 83.60 195.23 C 83.02 195.90 83.09 196.91 83.76 197.49 C 84.43 198.06 85.43 197.99 86.01 197.32 L 86.61 196.62 C 87.19 195.96 87.12 194.95 86.45 194.37 C 85.78 193.80 84.77 193.87 84.20 194.54 Z M 83.62 195.21 L 82.96 195.94 C 82.37 196.59 82.42 197.60 83.07 198.19 C 83.73 198.79 84.74 198.73 85.33 198.08 L 85.99 197.35 C 86.58 196.69 86.53 195.68 85.87 195.09 C 85.22 194.50 84.21 194.55 83.62 195.21 Z M 82.99 195.91 L 82.33 196.60 C 81.72 197.24 81.74 198.25 82.38 198.86 C 83.02 199.47 84.03 199.44 84.64 198.80 L 85.30 198.11 C 85.91 197.47 85.88 196.46 85.24 195.85 C 84.61 195.24 83.60 195.27 82.99 195.91 Z M 82.36 196.57 L 81.67 197.25 C 81.04 197.87 81.04 198.89 81.66 199.51 C 82.28 200.14 83.29 200.14 83.92 199.52 L 84.61 198.83 C 85.23 198.21 85.24 197.20 84.62 196.58 C 83.99 195.95 82.98 195.95 82.36 196.57 Z M 81.70 197.23 L 80.95 197.94 C 80.31 198.54 80.28 199.55 80.88 200.19 C 81.49 200.83 82.50 200.86 83.14 200.25 L 83.89 199.55 C 84.53 198.94 84.56 197.93 83.95 197.29 C 83.35 196.65 82.34 196.62 81.70 197.23 Z M 80.97 197.92 L 80.23 198.59 C 79.58 199.18 79.53 200.19 80.13 200.84 C 80.72 201.49 81.73 201.54 82.38 200.95 L 83.12 200.27 C 83.77 199.68 83.82 198.67 83.22 198.02 C 82.63 197.37 81.62 197.32 80.97 197.92 Z M 80.25 198.57 L 79.53 199.21 C 78.87 199.79 78.81 200.80 79.39 201.46 C 79.98 202.12 80.98 202.18 81.64 201.60 L 82.36 200.97 C 83.02 200.38 83.08 199.37 82.50 198.71 C 81.92 198.05 80.91 197.99 80.25 198.57 Z M 79.55 199.18 L 78.79 199.83 C 78.12 200.40 78.04 201.41 78.61 202.08 C 79.18 202.76 80.18 202.84 80.86 202.27 L 81.62 201.62 C 82.29 201.05 82.38 200.04 81.81 199.37 C 81.23 198.70 80.23 198.61 79.55 199.18 Z M 78.82 199.81 L 78.02 200.45 C 77.33 201.01 77.22 202.01 77.78 202.70 C 78.33 203.39 79.34 203.50 80.03 202.94 L 80.83 202.30 C 81.51 201.74 81.62 200.73 81.07 200.05 C 80.51 199.36 79.51 199.25 78.82 199.81 Z M 78.06 200.42 L 77.23 201.05 C 76.53 201.58 76.39 202.58 76.92 203.29 C 77.45 203.99 78.46 204.13 79.16 203.60 L 79.99 202.97 C 80.69 202.44 80.83 201.44 80.30 200.73 C 79.76 200.03 78.76 199.89 78.06 200.42 Z M 77.28 201.01 L 76.44 201.59 C 75.72 202.10 75.54 203.10 76.04 203.82 C 76.55 204.55 77.55 204.73 78.27 204.22 L 79.11 203.64 C 79.84 203.13 80.02 202.13 79.51 201.41 C 79.00 200.68 78.01 200.50 77.28 201.01 Z M 76.51 201.55 L 75.62 202.10 C 74.87 202.57 74.65 203.56 75.12 204.31 C 75.59 205.06 76.58 205.29 77.33 204.82 L 78.21 204.27 C 78.96 203.80 79.18 202.81 78.71 202.06 C 78.25 201.31 77.26 201.08 76.51 201.55 Z M 75.69 202.06 L 74.80 202.56 C 74.03 203.00 73.76 203.97 74.19 204.74 C 74.62 205.51 75.60 205.79 76.37 205.36 L 77.26 204.86 C 78.03 204.42 78.30 203.45 77.87 202.68 C 77.44 201.90 76.46 201.63 75.69 202.06 Z M 74.86 202.53 L 73.97 202.99 C 73.18 203.39 72.87 204.35 73.27 205.14 C 73.68 205.93 74.64 206.24 75.43 205.84 L 76.32 205.38 C 77.10 204.98 77.41 204.02 77.01 203.23 C 76.61 202.44 75.65 202.13 74.86 202.53 Z M 74.01 202.97 L 73.13 203.39 C 72.33 203.77 71.99 204.72 72.37 205.52 C 72.74 206.32 73.70 206.66 74.50 206.28 L 75.38 205.86 C 76.18 205.48 76.52 204.52 76.14 203.73 C 75.77 202.93 74.81 202.59 74.01 202.97 Z M 73.15 203.38 L 72.26 203.78 C 71.46 204.14 71.10 205.09 71.47 205.89 C 71.83 206.70 72.78 207.06 73.58 206.69 L 74.47 206.29 C 75.27 205.93 75.63 204.98 75.27 204.17 C 74.90 203.37 73.96 203.01 73.15 203.38 Z M 72.27 203.78 L 71.82 203.98 C 71.01 204.34 70.65 205.28 71.01 206.09 C 71.36 206.90 72.31 207.26 73.12 206.90 L 73.57 206.70 C 74.38 206.34 74.74 205.39 74.38 204.59 C 74.02 203.78 73.08 203.42 72.27 203.78 Z"
      fill="black"
      fill-rule="nonzero" /><path d="M 109.13 167.12 L 109.82 166.41 C 110.41 165.79 110.39 164.80 109.77 164.20 C 109.15 163.60 108.16 163.62 107.56 164.25 L 106.88 164.96 C 106.28 165.58 106.30 166.57 106.93 167.16 C 107.55 167.76 108.54 167.74 109.13 167.12 Z M 109.79 166.44 L 110.49 165.74 C 111.11 165.14 111.11 164.15 110.51 163.54 C 109.90 162.92 108.91 162.92 108.30 163.52 L 107.59 164.22 C 106.98 164.82 106.97 165.81 107.58 166.42 C 108.18 167.04 109.17 167.04 109.79 166.44 Z M 110.43 165.80 L 111.18 165.14 C 111.83 164.57 111.89 163.58 111.31 162.93 C 110.74 162.29 109.76 162.23 109.11 162.80 L 108.36 163.46 C 107.72 164.04 107.66 165.02 108.23 165.67 C 108.80 166.31 109.79 166.37 110.43 165.80 Z M 111.09 165.21 L 111.89 164.60 C 112.58 164.08 112.72 163.10 112.20 162.42 C 111.68 161.73 110.70 161.59 110.01 162.11 L 109.20 162.72 C 108.52 163.24 108.38 164.22 108.90 164.91 C 109.42 165.60 110.40 165.73 111.09 165.21 Z M 111.78 164.68 L 112.55 164.19 C 113.28 163.74 113.50 162.77 113.05 162.04 C 112.59 161.31 111.62 161.09 110.89 161.55 L 110.12 162.04 C 109.39 162.50 109.17 163.46 109.63 164.19 C 110.09 164.92 111.05 165.14 111.78 164.68 Z M 112.44 164.26 L 113.29 163.82 C 114.05 163.42 114.35 162.48 113.96 161.72 C 113.56 160.95 112.62 160.65 111.85 161.05 L 111.01 161.49 C 110.24 161.88 109.94 162.83 110.34 163.59 C 110.73 164.36 111.68 164.66 112.44 164.26 Z M 113.18 163.87 L 114.11 163.48 C 114.90 163.15 115.27 162.23 114.94 161.44 C 114.61 160.64 113.69 160.27 112.90 160.60 L 111.97 160.99 C 111.17 161.33 110.80 162.24 111.13 163.04 C 111.47 163.83 112.38 164.21 113.18 163.87 Z M 114.00 163.52 L 115.02 163.18 C 115.83 162.91 116.28 162.03 116.00 161.21 C 115.73 160.39 114.85 159.95 114.03 160.22 L 113.01 160.56 C 112.19 160.84 111.75 161.72 112.02 162.54 C 112.29 163.36 113.18 163.80 114.00 163.52 Z M 114.92 163.21 L 115.92 162.95 C 116.76 162.73 117.26 161.88 117.04 161.04 C 116.82 160.21 115.97 159.71 115.13 159.93 L 114.13 160.19 C 113.29 160.41 112.79 161.26 113.01 162.10 C 113.23 162.93 114.08 163.43 114.92 163.21 Z M 115.85 162.97 L 116.83 162.76 C 117.67 162.58 118.21 161.76 118.04 160.91 C 117.86 160.07 117.03 159.53 116.19 159.71 L 115.21 159.91 C 114.36 160.09 113.82 160.92 114.00 161.76 C 114.18 162.60 115.00 163.14 115.85 162.97 Z M 116.77 162.77 L 117.79 162.60 C 118.64 162.45 119.21 161.64 119.06 160.79 C 118.91 159.94 118.11 159.37 117.26 159.52 L 116.24 159.69 C 115.39 159.84 114.82 160.65 114.97 161.50 C 115.12 162.35 115.92 162.92 116.77 162.77 Z M 117.74 162.60 L 118.76 162.46 C 119.61 162.34 120.20 161.55 120.08 160.69 C 119.96 159.84 119.17 159.25 118.32 159.37 L 117.30 159.51 C 116.45 159.64 115.85 160.43 115.98 161.28 C 116.10 162.13 116.89 162.73 117.74 162.60 Z M 118.72 162.46 L 119.72 162.35 C 120.57 162.24 121.18 161.47 121.08 160.61 C 120.98 159.75 120.20 159.14 119.35 159.25 L 118.35 159.36 C 117.50 159.47 116.88 160.24 116.99 161.10 C 117.09 161.95 117.87 162.57 118.72 162.46 Z M 119.69 162.35 L 120.65 162.25 C 121.51 162.17 122.14 161.40 122.05 160.55 C 121.97 159.69 121.20 159.06 120.35 159.15 L 119.38 159.24 C 118.52 159.33 117.89 160.09 117.98 160.95 C 118.06 161.81 118.83 162.43 119.69 162.35 Z M 120.62 162.26 L 121.71 162.17 C 122.57 162.10 123.21 161.35 123.14 160.49 C 123.07 159.63 122.32 158.99 121.46 159.06 L 120.38 159.14 C 119.52 159.21 118.88 159.96 118.94 160.82 C 119.01 161.68 119.76 162.32 120.62 162.26 Z M 121.68 162.17 L 122.68 162.11 C 123.54 162.06 124.20 161.32 124.15 160.46 C 124.10 159.60 123.36 158.95 122.50 159.00 L 121.49 159.05 C 120.63 159.10 119.98 159.84 120.03 160.70 C 120.08 161.56 120.82 162.22 121.68 162.17 Z M 122.65 162.11 L 123.61 162.08 C 124.48 162.04 125.15 161.32 125.11 160.46 C 125.08 159.59 124.35 158.92 123.49 158.96 L 122.53 158.99 C 121.67 159.03 121.00 159.75 121.03 160.62 C 121.07 161.48 121.79 162.15 122.65 162.11 Z M 123.59 162.08 L 124.53 162.05 C 125.40 162.03 126.08 161.32 126.06 160.46 C 126.04 159.59 125.32 158.91 124.46 158.93 L 123.52 158.96 C 122.65 158.98 121.97 159.69 121.99 160.55 C 122.01 161.42 122.73 162.10 123.59 162.08 Z M 124.52 162.05 L 125.48 162.04 C 126.34 162.03 127.03 161.32 127.02 160.46 C 127.00 159.59 126.30 158.91 125.43 158.92 L 124.47 158.93 C 123.61 158.95 122.92 159.65 122.94 160.52 C 122.95 161.38 123.66 162.07 124.52 162.05 Z M 125.47 162.04 L 126.45 162.03 C 127.31 162.03 128.01 161.32 128.00 160.46 C 127.99 159.60 127.29 158.90 126.43 158.91 L 125.44 158.92 C 124.58 158.93 123.89 159.63 123.90 160.49 C 123.90 161.35 124.61 162.05 125.47 162.04 Z M 126.45 162.03 L 127.45 162.03 C 128.31 162.03 129.01 161.32 129.00 160.46 C 129.00 159.60 128.30 158.90 127.44 158.91 L 126.43 158.91 C 125.57 158.91 124.88 159.62 124.88 160.48 C 124.88 161.34 125.58 162.04 126.45 162.03 Z M 127.44 162.03 L 128.46 162.03 C 129.32 162.03 130.02 161.33 130.02 160.46 C 130.02 159.60 129.32 158.90 128.46 158.91 L 127.44 158.91 C 126.58 158.91 125.88 159.61 125.88 160.47 C 125.88 161.33 126.58 162.03 127.44 162.03 Z M 128.46 162.03 L 129.47 162.03 C 130.33 162.03 131.03 161.33 131.03 160.47 C 131.03 159.60 130.33 158.91 129.47 158.91 L 128.46 158.91 C 127.60 158.91 126.90 159.60 126.90 160.47 C 126.90 161.33 127.60 162.03 128.46 162.03 Z M 129.47 162.03 L 130.45 162.03 C 131.31 162.03 132.01 161.33 132.01 160.47 C 132.01 159.60 131.31 158.91 130.45 158.91 L 129.47 158.91 C 128.61 158.91 127.91 159.60 127.91 160.47 C 127.91 161.33 128.61 162.03 129.47 162.03 Z M 130.45 162.03 L 131.45 162.03 C 132.31 162.03 133.01 161.33 133.01 160.47 C 133.01 159.60 132.31 158.91 131.45 158.91 L 130.45 158.91 C 129.59 158.91 128.89 159.60 128.89 160.47 C 128.89 161.33 129.59 162.03 130.45 162.03 Z M 131.45 162.03 L 132.45 162.03 C 133.31 162.03 134.01 161.33 134.01 160.47 C 134.01 159.60 133.31 158.91 132.45 158.91 L 131.45 158.91 C 130.58 158.91 129.89 159.60 129.89 160.47 C 129.89 161.33 130.58 162.03 131.45 162.03 Z M 132.45 162.03 L 133.47 162.03 C 134.33 162.03 135.03 161.33 135.03 160.47 C 135.03 159.60 134.33 158.91 133.47 158.91 L 132.45 158.91 C 131.59 158.91 130.89 159.60 130.89 160.47 C 130.89 161.33 131.59 162.03 132.45 162.03 Z M 133.47 162.03 L 134.46 162.03 C 135.32 162.03 136.02 161.33 136.02 160.47 C 136.02 159.60 135.32 158.91 134.46 158.91 L 133.47 158.91 C 132.61 158.91 131.91 159.60 131.91 160.47 C 131.91 161.33 132.61 162.03 133.47 162.03 Z M 134.46 162.03 L 135.44 162.03 C 136.30 162.03 137.00 161.33 137.00 160.47 C 137.00 159.60 136.30 158.91 135.44 158.91 L 134.46 158.91 C 133.60 158.91 132.90 159.60 132.90 160.47 C 132.90 161.33 133.60 162.03 134.46 162.03 Z M 135.44 162.03 L 136.43 162.03 C 137.29 162.03 137.99 161.33 137.99 160.47 C 137.99 159.60 137.29 158.91 136.43 158.91 L 135.44 158.91 C 134.57 158.91 133.88 159.60 133.88 160.47 C 133.88 161.33 134.57 162.03 135.44 162.03 Z M 136.43 162.03 L 137.44 162.03 C 138.30 162.03 139.00 161.33 139.00 160.47 C 139.00 159.60 138.30 158.91 137.44 158.91 L 136.43 158.91 C 135.57 158.91 134.87 159.60 134.87 160.47 C 134.87 161.33 135.57 162.03 136.43 162.03 Z M 137.44 162.03 L 138.47 162.03 C 139.33 162.03 140.03 161.33 140.03 160.47 C 140.03 159.60 139.33 158.91 138.47 158.91 L 137.44 158.91 C 136.58 158.91 135.88 159.60 135.88 160.47 C 135.88 161.33 136.58 162.03 137.44 162.03 Z M 138.47 162.03 L 139.49 162.03 C 140.35 162.03 141.05 161.33 141.05 160.47 C 141.05 159.60 140.35 158.91 139.49 158.91 L 138.47 158.91 C 137.61 158.91 136.91 159.60 136.91 160.47 C 136.91 161.33 137.61 162.03 138.47 162.03 Z M 139.49 162.03 L 140.51 162.03 C 141.37 162.03 142.07 161.33 142.07 160.47 C 142.07 159.60 141.37 158.91 140.51 158.91 L 139.49 158.91 C 138.63 158.91 137.93 159.60 137.93 160.47 C 137.93 161.33 138.63 162.03 139.49 162.03 Z M 140.51 162.03 L 141.52 162.03 C 142.39 162.03 143.08 161.33 143.08 160.47 C 143.08 159.60 142.39 158.91 141.52 158.91 L 140.51 158.91 C 139.64 158.91 138.95 159.60 138.95 160.47 C 138.95 161.33 139.64 162.03 140.51 162.03 Z M 141.52 162.03 L 142.53 162.03 C 143.39 162.03 144.09 161.33 144.09 160.47 C 144.09 159.60 143.39 158.91 142.53 158.91 L 141.52 158.91 C 140.66 158.91 139.96 159.60 139.96 160.47 C 139.96 161.33 140.66 162.03 141.52 162.03 Z M 142.53 162.03 L 143.50 162.03 C 144.36 162.03 145.06 161.33 145.06 160.47 C 145.06 159.60 144.36 158.91 143.50 158.91 L 142.53 158.91 C 141.66 158.91 140.96 159.60 140.96 160.47 C 140.96 161.33 141.66 162.03 142.53 162.03 Z M 143.50 162.03 L 144.53 162.03 C 145.39 162.03 146.09 161.33 146.09 160.47 C 146.09 159.60 145.39 158.91 144.53 158.91 L 143.50 158.91 C 142.64 158.91 141.94 159.60 141.94 160.47 C 141.94 161.33 142.64 162.03 143.50 162.03 Z M 144.53 162.03 L 145.56 162.03 C 146.42 162.03 147.12 161.33 147.12 160.47 C 147.12 159.60 146.42 158.91 145.56 158.91 L 144.53 158.91 C 143.66 158.91 142.96 159.60 142.96 160.47 C 142.96 161.33 143.66 162.03 144.53 162.03 Z M 145.56 162.03 L 146.56 162.03 C 147.42 162.03 148.12 161.33 148.12 160.47 C 148.12 159.60 147.42 158.91 146.56 158.91 L 145.56 158.91 C 144.70 158.91 144.00 159.60 144.00 160.47 C 144.00 161.33 144.70 162.03 145.56 162.03 Z M 146.56 162.03 L 147.52 162.03 C 148.38 162.03 149.08 161.33 149.08 160.47 C 149.08 159.60 148.38 158.91 147.52 158.91 L 146.56 158.91 C 145.69 158.91 144.99 159.60 144.99 160.47 C 144.99 161.33 145.69 162.03 146.56 162.03 Z M 147.52 162.03 L 148.48 162.03 C 149.34 162.03 150.04 161.33 150.04 160.47 C 150.04 159.60 149.34 158.91 148.48 158.91 L 147.52 158.91 C 146.66 158.91 145.96 159.60 145.96 160.47 C 145.96 161.33 146.66 162.03 147.52 162.03 Z M 148.48 162.03 L 149.49 162.03 C 150.36 162.03 151.05 161.33 151.05 160.47 C 151.05 159.60 150.36 158.91 149.49 158.91 L 148.48 158.91 C 147.62 158.91 146.92 159.60 146.92 160.47 C 146.92 161.33 147.62 162.03 148.48 162.03 Z M 149.49 162.03 L 150.50 162.03 C 151.36 162.03 152.06 161.33 152.06 160.47 C 152.06 159.60 151.36 158.91 150.50 158.91 L 149.49 158.91 C 148.63 158.91 147.93 159.60 147.93 160.47 C 147.93 161.33 148.63 162.03 149.49 162.03 Z M 150.50 162.03 L 151.49 162.03 C 152.35 162.03 153.05 161.33 153.05 160.47 C 153.05 159.60 152.35 158.91 151.49 158.91 L 150.50 158.91 C 149.63 158.91 148.93 159.60 148.93 160.47 C 148.93 161.33 149.63 162.03 150.50 162.03 Z M 151.49 162.03 L 152.48 162.03 C 153.34 162.03 154.04 161.33 154.04 160.47 C 154.04 159.60 153.34 158.91 152.48 158.91 L 151.49 158.91 C 150.63 158.91 149.93 159.60 149.93 160.47 C 149.93 161.33 150.63 162.03 151.49 162.03 Z M 152.48 162.03 L 153.47 162.03 C 154.33 162.03 155.03 161.33 155.03 160.47 C 155.03 159.60 154.33 158.90 153.47 158.90 L 152.48 158.91 C 151.62 158.91 150.92 159.60 150.92 160.47 C 150.92 161.33 151.62 162.03 152.48 162.03 Z M 153.47 162.03 L 154.47 162.02 C 155.33 162.02 156.03 161.32 156.02 160.46 C 156.02 159.60 155.32 158.90 154.46 158.90 L 153.47 158.90 C 152.60 158.91 151.91 159.61 151.91 160.47 C 151.91 161.33 152.61 162.03 153.47 162.03 Z M 154.47 162.02 L 155.47 162.02 C 156.34 162.01 157.03 161.31 157.02 160.45 C 157.02 159.58 156.31 158.89 155.45 158.90 L 154.45 158.90 C 153.59 158.91 152.90 159.61 152.90 160.47 C 152.91 161.34 153.61 162.03 154.47 162.02 Z M 155.48 162.02 L 156.50 162.01 C 157.36 161.99 158.05 161.29 158.04 160.43 C 158.03 159.56 157.32 158.87 156.46 158.88 L 155.44 158.90 C 154.58 158.91 153.89 159.61 153.90 160.48 C 153.91 161.34 154.62 162.03 155.48 162.02 Z M 156.51 162.01 L 157.47 161.99 C 158.33 161.97 159.02 161.26 159.00 160.40 C 158.98 159.53 158.27 158.85 157.41 158.87 L 156.45 158.88 C 155.59 158.90 154.90 159.61 154.92 160.47 C 154.93 161.34 155.65 162.02 156.51 162.01 Z M 157.48 161.99 L 158.46 161.96 C 159.32 161.94 160.00 161.23 159.98 160.37 C 159.96 159.50 159.25 158.82 158.38 158.84 L 157.40 158.87 C 156.54 158.89 155.86 159.60 155.88 160.46 C 155.90 161.33 156.61 162.01 157.48 161.99 Z M 158.46 161.96 L 159.47 161.94 C 160.33 161.91 161.01 161.19 160.99 160.33 C 160.96 159.47 160.25 158.79 159.38 158.81 L 158.38 158.84 C 157.52 158.87 156.84 159.58 156.86 160.44 C 156.88 161.31 157.60 161.99 158.46 161.96 Z M 159.47 161.94 L 160.50 161.91 C 161.36 161.88 162.04 161.16 162.02 160.30 C 161.99 159.44 161.28 158.76 160.41 158.79 L 159.38 158.81 C 158.52 158.84 157.84 159.56 157.87 160.42 C 157.89 161.28 158.61 161.96 159.47 161.94 Z M 160.50 161.91 L 161.48 161.88 C 162.35 161.85 163.02 161.14 163.00 160.27 C 162.98 159.41 162.26 158.73 161.39 158.76 L 160.41 158.79 C 159.55 158.81 158.87 159.53 158.90 160.39 C 158.92 161.25 159.64 161.93 160.50 161.91 Z M 161.48 161.88 L 162.44 161.85 C 163.30 161.83 163.98 161.11 163.95 160.25 C 163.93 159.39 163.21 158.71 162.35 158.73 L 161.40 158.76 C 160.53 158.78 159.85 159.50 159.88 160.36 C 159.90 161.22 160.62 161.90 161.48 161.88 Z M 162.44 161.85 L 163.42 161.83 C 164.28 161.80 164.96 161.08 164.94 160.22 C 164.91 159.36 164.20 158.68 163.34 158.70 L 162.35 158.73 C 161.49 158.75 160.81 159.47 160.83 160.33 C 160.86 161.20 161.57 161.88 162.44 161.85 Z M 163.42 161.83 L 164.43 161.80 C 165.30 161.78 165.98 161.06 165.95 160.20 C 165.93 159.34 165.21 158.66 164.35 158.68 L 163.34 158.70 C 162.47 158.73 161.79 159.44 161.82 160.31 C 161.84 161.17 162.56 161.85 163.42 161.83 Z M 164.43 161.80 L 165.48 161.77 C 166.35 161.75 167.03 161.03 167.01 160.17 C 166.98 159.31 166.27 158.63 165.41 158.65 L 164.35 158.68 C 163.49 158.70 162.81 159.42 162.83 160.28 C 162.85 161.14 163.57 161.82 164.43 161.80 Z M 165.48 161.77 L 166.50 161.75 C 167.36 161.73 168.04 161.01 168.02 160.15 C 168.00 159.29 167.29 158.61 166.42 158.63 L 165.41 158.65 C 164.54 158.67 163.86 159.39 163.88 160.25 C 163.90 161.11 164.62 161.79 165.48 161.77 Z M 166.50 161.75 L 167.50 161.72 C 168.36 161.70 169.04 160.99 169.02 160.13 C 169.00 159.26 168.29 158.58 167.42 158.60 L 166.43 158.63 C 165.56 158.65 164.88 159.36 164.90 160.22 C 164.92 161.09 165.64 161.77 166.50 161.75 Z M 167.50 161.72 L 168.51 161.70 C 169.37 161.68 170.05 160.97 170.03 160.10 C 170.01 159.24 169.30 158.56 168.44 158.58 L 167.42 158.60 C 166.56 158.62 165.88 159.34 165.90 160.20 C 165.92 161.06 166.63 161.74 167.50 161.72 Z M 168.51 161.70 L 169.52 161.68 C 170.38 161.66 171.07 160.94 171.05 160.08 C 171.03 159.22 170.31 158.54 169.45 158.56 L 168.44 158.58 C 167.57 158.60 166.89 159.31 166.91 160.18 C 166.93 161.04 167.65 161.72 168.51 161.70 Z M 169.52 161.68 L 170.53 161.65 C 171.39 161.63 172.07 160.92 172.05 160.06 C 172.03 159.19 171.32 158.51 170.45 158.53 L 169.45 158.56 C 168.59 158.58 167.91 159.29 167.93 160.15 C 167.95 161.01 168.66 161.70 169.52 161.68 Z M 170.53 161.65 L 171.51 161.63 C 172.37 161.61 173.06 160.89 173.04 160.03 C 173.02 159.17 172.30 158.49 171.44 158.51 L 170.45 158.53 C 169.59 158.55 168.91 159.27 168.93 160.13 C 168.95 160.99 169.67 161.67 170.53 161.65 Z M 171.51 161.63 L 172.56 161.60 C 173.42 161.58 174.11 160.87 174.08 160.00 C 174.06 159.14 173.35 158.46 172.49 158.48 L 171.44 158.51 C 170.57 158.53 169.89 159.25 169.91 160.11 C 169.94 160.97 170.65 161.65 171.51 161.63 Z M 172.56 161.60 L 173.58 161.58 C 174.44 161.56 175.12 160.84 175.10 159.98 C 175.08 159.11 174.36 158.43 173.50 158.46 L 172.48 158.48 C 171.62 158.50 170.94 159.22 170.96 160.08 C 170.99 160.94 171.70 161.63 172.56 161.60 Z M 173.58 161.58 L 174.58 161.55 C 175.44 161.53 176.12 160.81 176.09 159.95 C 176.07 159.09 175.36 158.41 174.49 158.43 L 173.50 158.46 C 172.64 158.48 171.96 159.20 171.98 160.06 C 172.00 160.92 172.72 161.60 173.58 161.58 Z M 174.58 161.55 L 175.55 161.53 C 176.41 161.50 177.09 160.78 177.07 159.92 C 177.05 159.06 176.33 158.38 175.47 158.40 L 174.49 158.43 C 173.63 158.45 172.95 159.17 172.97 160.03 C 173.00 160.89 173.71 161.57 174.58 161.55 Z M 175.55 161.53 L 176.52 161.50 C 177.38 161.48 178.06 160.76 178.04 159.90 C 178.01 159.03 177.30 158.35 176.43 158.38 L 175.47 158.40 C 174.61 158.43 173.93 159.14 173.95 160.01 C 173.97 160.87 174.69 161.55 175.55 161.53 Z M 176.52 161.50 L 177.53 161.47 C 178.39 161.45 179.07 160.73 179.05 159.87 C 179.02 159.01 178.30 158.33 177.44 158.35 L 176.43 158.38 C 175.57 158.40 174.89 159.12 174.92 159.98 C 174.94 160.84 175.66 161.52 176.52 161.50 Z M 177.53 161.47 L 178.54 161.44 C 179.40 161.42 180.08 160.70 180.05 159.84 C 180.03 158.98 179.31 158.30 178.45 158.32 L 177.44 158.35 C 176.58 158.37 175.90 159.09 175.92 159.95 C 175.95 160.82 176.66 161.50 177.53 161.47 Z M 178.54 161.44 L 179.54 161.42 C 180.40 161.39 181.08 160.68 181.06 159.81 C 181.03 158.95 180.32 158.27 179.45 158.30 L 178.45 158.32 C 177.59 158.35 176.91 159.06 176.93 159.93 C 176.96 160.79 177.67 161.47 178.54 161.44 Z M 179.54 161.42 L 180.53 161.39 C 181.40 161.37 182.07 160.65 182.05 159.79 C 182.03 158.92 181.31 158.24 180.45 158.27 L 179.45 158.30 C 178.59 158.32 177.91 159.04 177.94 159.90 C 177.96 160.76 178.68 161.44 179.54 161.42 Z M 180.53 161.39 L 181.52 161.36 C 182.38 161.34 183.06 160.62 183.04 159.76 C 183.01 158.90 182.29 158.22 181.43 158.24 L 180.45 158.27 C 179.58 158.29 178.91 159.01 178.93 159.87 C 178.95 160.73 179.67 161.41 180.53 161.39 Z M 181.52 161.36 L 182.57 161.33 C 183.43 161.31 184.11 160.59 184.08 159.73 C 184.06 158.87 183.34 158.19 182.48 158.21 L 181.43 158.24 C 180.57 158.27 179.89 158.98 179.91 159.85 C 179.94 160.71 180.66 161.39 181.52 161.36 Z M 182.56 161.33 L 183.59 161.30 C 184.45 161.28 185.13 160.56 185.10 159.70 C 185.08 158.84 184.36 158.16 183.50 158.18 L 182.48 158.21 C 181.62 158.23 180.94 158.95 180.96 159.81 C 180.98 160.68 181.70 161.36 182.56 161.33 Z M 183.58 161.30 L 184.58 161.28 C 185.44 161.26 186.12 160.54 186.10 159.68 C 186.08 158.82 185.36 158.14 184.50 158.16 L 183.50 158.18 C 182.64 158.20 181.96 158.92 181.98 159.78 C 182.00 160.64 182.72 161.33 183.58 161.30 Z M 184.57 161.28 L 185.53 161.26 C 186.39 161.24 187.07 160.53 187.06 159.67 C 187.04 158.80 186.32 158.12 185.46 158.14 L 184.50 158.16 C 183.64 158.18 182.96 158.89 182.98 159.75 C 182.99 160.61 183.71 161.30 184.57 161.28 Z M 185.52 161.26 L 186.54 161.24 C 187.41 161.23 188.09 160.52 188.08 159.66 C 188.07 158.80 187.36 158.11 186.50 158.12 L 185.47 158.14 C 184.61 158.15 183.92 158.86 183.93 159.72 C 183.95 160.58 184.66 161.27 185.52 161.26 Z M 186.53 161.24 L 187.57 161.24 C 188.43 161.23 189.13 160.52 189.12 159.66 C 189.11 158.80 188.41 158.11 187.55 158.11 L 186.51 158.12 C 185.65 158.13 184.95 158.83 184.96 159.70 C 184.97 160.56 185.67 161.25 186.53 161.24 Z M 187.56 161.24 L 188.55 161.23 C 189.41 161.23 190.11 160.53 190.11 159.67 C 190.10 158.80 189.40 158.11 188.54 158.11 L 187.55 158.11 C 186.69 158.12 186.00 158.82 186.00 159.68 C 186.00 160.54 186.70 161.24 187.56 161.24 Z M 188.55 161.23 L 189.48 161.23 C 190.34 161.23 191.04 160.53 191.04 159.67 C 191.04 158.81 190.34 158.11 189.48 158.11 L 188.54 158.11 C 187.68 158.11 186.98 158.81 186.98 159.67 C 186.98 160.53 187.68 161.23 188.55 161.23 Z M 189.48 161.23 L 190.43 161.23 C 191.29 161.23 191.99 160.53 191.99 159.67 C 191.99 158.81 191.29 158.11 190.43 158.11 L 189.48 158.11 C 188.62 158.11 187.92 158.81 187.92 159.67 C 187.92 160.53 188.62 161.23 189.48 161.23 Z M 190.43 161.23 L 191.39 161.23 C 192.25 161.23 192.95 160.53 192.95 159.67 C 192.95 158.81 192.25 158.11 191.39 158.11 L 190.43 158.11 C 189.57 158.11 188.87 158.81 188.87 159.67 C 188.87 160.53 189.57 161.23 190.43 161.23 Z M 191.39 161.23 L 192.41 161.23 C 193.27 161.23 193.97 160.53 193.97 159.67 C 193.97 158.81 193.27 158.11 192.41 158.11 L 191.39 158.11 C 190.53 158.11 189.83 158.81 189.83 159.67 C 189.83 160.53 190.53 161.23 191.39 161.23 Z M 192.41 161.23 L 193.59 161.23 C 194.45 161.23 195.15 160.53 195.15 159.67 C 195.15 158.81 194.45 158.11 193.59 158.11 L 192.41 158.11 C 191.55 158.11 190.85 158.81 190.85 159.67 C 190.85 160.53 191.55 161.23 192.41 161.23 Z M 193.58 161.23 L 194.86 161.24 C 195.72 161.24 196.42 160.54 196.42 159.68 C 196.43 158.82 195.73 158.12 194.87 158.11 L 193.59 158.11 C 192.73 158.11 192.03 158.80 192.03 159.67 C 192.02 160.53 192.72 161.23 193.58 161.23 Z M 194.84 161.24 L 195.83 161.25 C 196.70 161.26 197.41 160.58 197.42 159.71 C 197.43 158.85 196.74 158.14 195.88 158.13 L 194.89 158.11 C 194.02 158.10 193.32 158.79 193.30 159.65 C 193.29 160.51 193.98 161.22 194.84 161.24 Z M 195.70 161.24 L 196.08 161.28 C 196.93 161.37 197.70 160.75 197.79 159.89 C 197.88 159.03 197.26 158.27 196.40 158.18 L 196.02 158.14 C 195.16 158.05 194.39 158.67 194.30 159.53 C 194.22 160.39 194.84 161.15 195.70 161.24 Z M 196.06 158.18 L 195.39 158.26 C 194.53 158.36 193.92 159.13 194.02 159.99 C 194.12 160.85 194.90 161.46 195.75 161.36 L 196.42 161.28 C 197.28 161.18 197.89 160.40 197.79 159.55 C 197.69 158.69 196.91 158.08 196.06 158.18 Z M 195.48 158.25 L 194.15 158.33 C 193.29 158.37 192.63 159.11 192.68 159.97 C 192.73 160.83 193.47 161.49 194.33 161.44 L 195.66 161.37 C 196.52 161.32 197.18 160.58 197.13 159.72 C 197.08 158.86 196.34 158.20 195.48 158.25 Z M 194.19 158.32 L 193.12 158.36 C 192.26 158.38 191.58 159.10 191.61 159.96 C 191.63 160.82 192.35 161.50 193.22 161.48 L 194.28 161.44 C 195.15 161.42 195.82 160.70 195.80 159.84 C 195.77 158.98 195.05 158.30 194.19 158.32 Z M 193.18 158.35 L 192.20 158.35 C 191.33 158.34 190.63 159.03 190.62 159.89 C 190.61 160.76 191.31 161.46 192.17 161.47 L 193.16 161.48 C 194.02 161.48 194.72 160.79 194.73 159.93 C 194.74 159.07 194.05 158.36 193.18 158.35 Z M 192.28 158.35 L 191.29 158.29 C 190.43 158.23 189.69 158.89 189.63 159.75 C 189.58 160.61 190.23 161.35 191.09 161.40 L 192.08 161.47 C 192.94 161.52 193.69 160.87 193.74 160.01 C 193.79 159.15 193.14 158.40 192.28 158.35 Z M 191.39 158.30 L 190.41 158.17 C 189.56 158.07 188.78 158.67 188.67 159.53 C 188.56 160.38 189.17 161.16 190.03 161.27 L 191.00 161.39 C 191.85 161.50 192.63 160.89 192.74 160.04 C 192.85 159.18 192.24 158.40 191.39 158.30 Z M 190.48 158.18 L 189.50 158.02 C 188.65 157.88 187.85 158.45 187.70 159.30 C 187.56 160.15 188.14 160.96 188.99 161.10 L 189.96 161.26 C 190.81 161.40 191.62 160.83 191.76 159.98 C 191.90 159.13 191.33 158.33 190.48 158.18 Z M 189.52 158.02 L 188.52 157.84 C 187.67 157.69 186.86 158.26 186.71 159.11 C 186.56 159.95 187.12 160.77 187.97 160.92 L 188.97 161.10 C 189.82 161.25 190.63 160.68 190.78 159.83 C 190.93 158.99 190.37 158.17 189.52 158.02 Z M 188.50 157.84 L 187.49 157.68 C 186.64 157.54 185.83 158.12 185.70 158.97 C 185.56 159.82 186.14 160.62 186.99 160.76 L 188.00 160.92 C 188.85 161.06 189.65 160.48 189.79 159.63 C 189.92 158.78 189.35 157.98 188.50 157.84 Z M 187.41 157.67 L 186.43 157.55 C 185.57 157.46 184.80 158.07 184.70 158.93 C 184.60 159.78 185.22 160.56 186.07 160.66 L 187.06 160.77 C 187.92 160.87 188.69 160.25 188.79 159.39 C 188.89 158.54 188.27 157.76 187.41 157.67 Z M 186.28 157.54 L 185.29 157.53 C 184.43 157.51 183.72 158.20 183.70 159.06 C 183.68 159.92 184.37 160.63 185.23 160.65 L 186.22 160.67 C 187.08 160.68 187.79 160.00 187.81 159.13 C 187.83 158.27 187.14 157.56 186.28 157.54 Z M 185.06 157.54 L 184.07 157.66 C 183.22 157.77 182.61 158.56 182.72 159.41 C 182.83 160.27 183.62 160.87 184.47 160.76 L 185.46 160.63 C 186.31 160.53 186.92 159.74 186.81 158.89 C 186.70 158.03 185.92 157.43 185.06 157.54 Z M 183.80 157.72 L 182.89 158.01 C 182.06 158.27 181.61 159.15 181.87 159.97 C 182.13 160.80 183.00 161.25 183.83 160.99 L 184.74 160.70 C 185.57 160.44 186.02 159.56 185.76 158.74 C 185.50 157.92 184.62 157.46 183.80 157.72 Z M 182.65 158.11 L 181.82 158.53 C 181.05 158.92 180.75 159.86 181.14 160.63 C 181.52 161.39 182.46 161.70 183.23 161.31 L 184.06 160.90 C 184.83 160.51 185.14 159.57 184.75 158.80 C 184.36 158.03 183.42 157.72 182.65 158.11 Z M 181.66 158.63 L 180.84 159.18 C 180.12 159.66 179.93 160.63 180.41 161.34 C 180.89 162.06 181.86 162.25 182.58 161.77 L 183.40 161.22 C 184.11 160.74 184.31 159.77 183.82 159.05 C 183.34 158.33 182.37 158.14 181.66 158.63 Z M 180.71 159.27 L 179.91 159.94 C 179.24 160.48 179.15 161.47 179.70 162.13 C 180.25 162.80 181.23 162.89 181.89 162.34 L 182.70 161.68 C 183.37 161.13 183.46 160.14 182.91 159.48 C 182.36 158.81 181.38 158.72 180.71 159.27 Z M 179.81 160.02 L 179.03 160.77 C 178.41 161.37 178.40 162.36 179.00 162.98 C 179.60 163.60 180.59 163.62 181.21 163.02 L 181.99 162.26 C 182.61 161.66 182.62 160.67 182.02 160.05 C 181.42 159.43 180.43 159.42 179.81 160.02 Z M 178.97 160.84 L 178.27 161.61 C 177.69 162.24 177.73 163.23 178.37 163.81 C 179.01 164.39 179.99 164.35 180.58 163.71 L 181.27 162.95 C 181.85 162.31 181.81 161.32 181.17 160.74 C 180.54 160.16 179.55 160.21 178.97 160.84 Z M 178.22 161.66 L 177.56 162.46 C 177.01 163.12 177.10 164.11 177.76 164.66 C 178.42 165.21 179.41 165.12 179.96 164.46 L 180.62 163.66 C 181.17 162.99 181.08 162.01 180.42 161.46 C 179.76 160.91 178.77 161.00 178.22 161.66 Z M 177.52 162.51 L 176.90 163.31 C 176.37 164.00 176.50 164.98 177.18 165.50 C 177.87 166.03 178.85 165.90 179.37 165.22 L 179.99 164.41 C 180.52 163.73 180.39 162.75 179.71 162.22 C 179.03 161.70 178.05 161.82 177.52 162.51 Z M 176.87 163.35 L 176.31 164.14 C 175.80 164.84 175.96 165.81 176.66 166.31 C 177.36 166.82 178.33 166.66 178.84 165.96 L 179.40 165.18 C 179.91 164.48 179.75 163.50 179.05 163.00 C 178.35 162.49 177.37 162.65 176.87 163.35 Z M 176.28 164.17 L 175.72 165.01 C 175.23 165.72 175.42 166.69 176.14 167.17 C 176.85 167.66 177.82 167.47 178.30 166.75 L 178.87 165.92 C 179.35 165.21 179.16 164.24 178.45 163.75 C 177.73 163.27 176.76 163.46 176.28 164.17 Z M 175.69 165.05 L 175.13 165.95 C 174.67 166.68 174.89 167.64 175.62 168.10 C 176.35 168.56 177.32 168.34 177.77 167.60 L 178.33 166.71 C 178.79 165.98 178.57 165.01 177.84 164.56 C 177.11 164.10 176.14 164.32 175.69 165.05 Z M 175.10 166.00 L 174.62 166.83 C 174.19 167.57 174.44 168.53 175.19 168.96 C 175.94 169.39 176.89 169.13 177.32 168.39 L 177.80 167.56 C 178.23 166.81 177.98 165.86 177.23 165.42 C 176.48 164.99 175.53 165.25 175.10 166.00 Z M 174.60 166.86 L 174.16 167.67 C 173.74 168.43 174.02 169.38 174.78 169.79 C 175.54 170.20 176.49 169.92 176.90 169.17 L 177.34 168.35 C 177.75 167.60 177.47 166.65 176.72 166.24 C 175.96 165.82 175.01 166.10 174.60 166.86 Z M 174.15 167.69 L 173.70 168.53 C 173.30 169.29 173.59 170.24 174.35 170.64 C 175.11 171.05 176.05 170.76 176.46 169.99 L 176.91 169.15 C 177.31 168.39 177.02 167.45 176.26 167.04 C 175.50 166.64 174.55 166.93 174.15 167.69 Z M 173.70 168.54 L 173.24 169.41 C 172.84 170.18 173.13 171.12 173.90 171.52 C 174.66 171.92 175.60 171.63 176.00 170.86 L 176.46 169.99 C 176.86 169.22 176.57 168.28 175.80 167.88 C 175.04 167.48 174.10 167.77 173.70 168.54 Z M 173.23 169.42 L 172.76 170.33 C 172.37 171.10 172.67 172.04 173.43 172.44 C 174.20 172.83 175.14 172.53 175.54 171.77 L 176.01 170.86 C 176.40 170.09 176.10 169.15 175.34 168.75 C 174.57 168.36 173.63 168.66 173.23 169.42 Z M 172.76 170.34 L 172.30 171.23 C 171.91 172.00 172.22 172.94 172.99 173.33 C 173.75 173.72 174.69 173.42 175.09 172.65 L 175.54 171.76 C 175.93 170.99 175.63 170.05 174.86 169.66 C 174.09 169.27 173.15 169.57 172.76 170.34 Z M 172.30 171.24 L 171.86 172.10 C 171.48 172.87 171.79 173.81 172.56 174.20 C 173.33 174.59 174.26 174.28 174.65 173.51 L 175.09 172.64 C 175.48 171.87 175.17 170.94 174.40 170.55 C 173.63 170.16 172.69 170.47 172.30 171.24 Z M 171.86 172.11 L 171.42 173.01 C 171.03 173.78 171.35 174.72 172.12 175.10 C 172.89 175.48 173.83 175.17 174.21 174.40 L 174.66 173.50 C 175.04 172.73 174.73 171.79 173.95 171.41 C 173.18 171.03 172.24 171.34 171.86 172.11 Z M 171.41 173.02 L 170.96 173.94 C 170.58 174.72 170.90 175.65 171.67 176.03 C 172.45 176.41 173.38 176.09 173.76 175.32 L 174.22 174.39 C 174.60 173.61 174.27 172.68 173.50 172.30 C 172.73 171.92 171.79 172.24 171.41 173.02 Z M 170.95 173.95 L 170.53 174.84 C 170.15 175.61 170.48 176.55 171.26 176.92 C 172.03 177.29 172.97 176.97 173.34 176.19 L 173.77 175.31 C 174.14 174.53 173.81 173.60 173.04 173.22 C 172.26 172.85 171.33 173.18 170.95 173.95 Z M 170.52 174.84 L 170.12 175.70 C 169.74 176.48 170.08 177.41 170.85 177.78 C 171.63 178.15 172.56 177.82 172.93 177.04 L 173.34 176.18 C 173.71 175.41 173.38 174.47 172.61 174.10 C 171.83 173.73 170.90 174.06 170.52 174.84 Z M 170.11 175.71 L 169.69 176.60 C 169.32 177.38 169.65 178.31 170.43 178.68 C 171.21 179.05 172.14 178.72 172.51 177.94 L 172.94 177.04 C 173.30 176.26 172.97 175.33 172.19 174.96 C 171.41 174.59 170.48 174.93 170.11 175.71 Z M 169.69 176.60 L 169.25 177.53 C 168.88 178.31 169.21 179.24 169.99 179.61 C 170.77 179.98 171.70 179.65 172.07 178.87 L 172.51 177.94 C 172.88 177.16 172.55 176.23 171.77 175.86 C 170.99 175.49 170.06 175.82 169.69 176.60 Z M 169.25 177.53 L 168.79 178.49 C 168.42 179.27 168.75 180.20 169.53 180.57 C 170.31 180.94 171.24 180.61 171.61 179.83 L 172.07 178.87 C 172.44 178.09 172.11 177.16 171.33 176.79 C 170.55 176.42 169.62 176.75 169.25 177.53 Z M 168.80 178.48 L 168.38 179.36 C 168.01 180.13 168.33 181.07 169.11 181.44 C 169.89 181.81 170.82 181.48 171.19 180.71 L 171.61 179.83 C 171.98 179.06 171.66 178.12 170.88 177.75 C 170.10 177.38 169.17 177.71 168.80 178.48 Z M 168.38 179.36 L 167.95 180.25 C 167.58 181.03 167.90 181.96 168.68 182.34 C 169.46 182.71 170.39 182.38 170.76 181.60 L 171.19 180.71 C 171.57 179.93 171.24 179.00 170.46 178.62 C 169.68 178.25 168.75 178.58 168.38 179.36 Z M 167.95 180.26 L 167.51 181.17 C 167.14 181.95 167.47 182.88 168.25 183.25 C 169.03 183.62 169.96 183.29 170.33 182.51 L 170.77 181.60 C 171.14 180.82 170.81 179.89 170.03 179.52 C 169.25 179.15 168.32 179.48 167.95 180.26 Z M 167.51 181.17 L 167.07 182.09 C 166.71 182.87 167.04 183.81 167.82 184.17 C 168.60 184.54 169.53 184.21 169.90 183.43 L 170.33 182.51 C 170.70 181.73 170.37 180.80 169.59 180.43 C 168.81 180.06 167.88 180.39 167.51 181.17 Z M 167.07 182.10 L 166.64 183.02 C 166.28 183.81 166.62 184.73 167.40 185.10 C 168.18 185.46 169.11 185.12 169.47 184.34 L 169.90 183.42 C 170.27 182.64 169.93 181.71 169.14 181.35 C 168.36 180.98 167.43 181.32 167.07 182.10 Z M 166.64 183.04 L 166.22 183.95 C 165.87 184.73 166.22 185.66 167.00 186.01 C 167.79 186.37 168.71 186.02 169.07 185.24 L 169.48 184.33 C 169.84 183.54 169.49 182.62 168.70 182.26 C 167.92 181.90 166.99 182.25 166.64 183.04 Z M 166.22 183.96 L 165.82 184.86 C 165.47 185.65 165.82 186.57 166.61 186.92 C 167.40 187.27 168.32 186.92 168.67 186.13 L 169.07 185.22 C 169.42 184.44 169.07 183.51 168.28 183.16 C 167.49 182.81 166.57 183.17 166.22 183.96 Z M 165.81 184.87 L 165.42 185.78 C 165.07 186.57 165.43 187.49 166.22 187.83 C 167.01 188.18 167.93 187.82 168.28 187.03 L 168.67 186.12 C 169.02 185.33 168.66 184.41 167.87 184.07 C 167.08 183.72 166.16 184.08 165.81 184.87 Z M 165.41 185.78 L 165.02 186.70 C 164.68 187.49 165.04 188.41 165.83 188.75 C 166.63 189.09 167.54 188.73 167.89 187.94 L 168.28 187.02 C 168.62 186.23 168.26 185.31 167.47 184.97 C 166.67 184.63 165.76 184.99 165.41 185.78 Z M 165.02 186.71 L 164.62 187.64 C 164.28 188.43 164.65 189.35 165.44 189.69 C 166.23 190.03 167.15 189.66 167.49 188.87 L 167.89 187.93 C 168.23 187.14 167.86 186.22 167.07 185.88 C 166.27 185.55 165.36 185.91 165.02 186.71 Z M 164.62 187.64 L 164.23 188.54 C 163.89 189.33 164.26 190.25 165.06 190.59 C 165.85 190.93 166.77 190.56 167.10 189.77 L 167.49 188.86 C 167.83 188.07 167.46 187.15 166.67 186.82 C 165.87 186.48 164.96 186.85 164.62 187.64 Z M 164.23 188.54 L 163.85 189.44 C 163.51 190.23 163.88 191.15 164.68 191.49 C 165.47 191.82 166.39 191.45 166.72 190.66 L 167.10 189.77 C 167.44 188.97 167.07 188.06 166.28 187.72 C 165.49 187.38 164.57 187.75 164.23 188.54 Z M 163.85 189.44 L 163.46 190.35 C 163.12 191.14 163.49 192.06 164.29 192.40 C 165.08 192.74 166.00 192.37 166.33 191.57 L 166.72 190.66 C 167.06 189.87 166.69 188.95 165.90 188.61 C 165.11 188.28 164.19 188.64 163.85 189.44 Z M 163.46 190.35 L 163.07 191.28 C 162.73 192.07 163.10 192.99 163.89 193.33 C 164.69 193.66 165.60 193.29 165.94 192.50 L 166.33 191.57 C 166.67 190.78 166.30 189.86 165.51 189.53 C 164.72 189.19 163.80 189.56 163.46 190.35 Z M 163.07 191.28 L 162.67 192.22 C 162.33 193.01 162.70 193.93 163.49 194.27 C 164.28 194.60 165.20 194.23 165.54 193.44 L 165.94 192.50 C 166.28 191.71 165.91 190.79 165.12 190.45 C 164.32 190.12 163.41 190.48 163.07 191.28 Z M 162.67 192.22 L 162.26 193.17 C 161.92 193.96 162.29 194.88 163.09 195.22 C 163.88 195.55 164.80 195.19 165.13 194.39 L 165.54 193.44 C 165.88 192.65 165.51 191.73 164.72 191.39 C 163.92 191.06 163.01 191.42 162.67 192.22 Z M 162.26 193.17 L 161.88 194.06 C 161.54 194.85 161.91 195.77 162.70 196.11 C 163.50 196.45 164.41 196.08 164.75 195.29 L 165.13 194.39 C 165.47 193.60 165.10 192.68 164.31 192.34 C 163.52 192.01 162.60 192.37 162.26 193.17 Z M 161.88 194.06 L 161.50 194.96 C 161.16 195.75 161.53 196.67 162.32 197.01 C 163.11 197.35 164.03 196.98 164.37 196.19 L 164.75 195.29 C 165.09 194.49 164.72 193.58 163.93 193.24 C 163.14 192.90 162.22 193.27 161.88 194.06 Z M 161.50 194.96 L 161.11 195.87 C 160.77 196.67 161.14 197.58 161.93 197.92 C 162.73 198.26 163.64 197.89 163.98 197.10 L 164.37 196.19 C 164.71 195.39 164.34 194.48 163.54 194.14 C 162.75 193.80 161.83 194.17 161.50 194.96 Z M 161.11 195.88 L 160.72 196.80 C 160.38 197.59 160.75 198.51 161.54 198.85 C 162.34 199.18 163.25 198.81 163.59 198.02 L 163.98 197.09 C 164.32 196.30 163.95 195.38 163.15 195.05 C 162.36 194.71 161.44 195.08 161.11 195.88 Z M 160.71 196.80 L 160.32 197.74 C 159.99 198.53 160.36 199.45 161.15 199.79 C 161.95 200.12 162.86 199.75 163.20 198.95 L 163.59 198.01 C 163.93 197.22 163.55 196.30 162.76 195.97 C 161.96 195.64 161.05 196.01 160.71 196.80 Z M 160.32 197.74 L 159.92 198.70 C 159.59 199.49 159.96 200.41 160.76 200.74 C 161.55 201.07 162.47 200.70 162.80 199.90 L 163.20 198.95 C 163.53 198.15 163.16 197.24 162.36 196.91 C 161.57 196.57 160.65 196.95 160.32 197.74 Z M 159.92 198.70 L 159.54 199.60 C 159.21 200.40 159.59 201.31 160.39 201.64 C 161.18 201.97 162.10 201.60 162.43 200.80 L 162.80 199.90 C 163.13 199.10 162.75 198.19 161.96 197.86 C 161.16 197.53 160.25 197.91 159.92 198.70 Z M 159.54 199.61 L 159.17 200.51 C 158.84 201.31 159.22 202.22 160.02 202.55 C 160.82 202.88 161.73 202.50 162.06 201.70 L 162.43 200.80 C 162.76 200.00 162.38 199.09 161.58 198.76 C 160.78 198.43 159.87 198.81 159.54 199.61 Z M 159.17 200.52 L 158.79 201.43 C 158.47 202.23 158.85 203.14 159.65 203.47 C 160.45 203.80 161.36 203.41 161.68 202.62 L 162.06 201.70 C 162.39 200.90 162.00 199.99 161.20 199.66 C 160.41 199.34 159.50 199.72 159.17 200.52 Z M 158.79 201.44 L 158.41 202.36 C 158.09 203.16 158.47 204.07 159.27 204.40 C 160.07 204.72 160.98 204.34 161.31 203.54 L 161.68 202.61 C 162.01 201.81 161.63 200.90 160.83 200.58 C 160.03 200.25 159.12 200.64 158.79 201.44 Z M 158.41 202.36 L 158.03 203.30 C 157.71 204.10 158.09 205.01 158.89 205.34 C 159.69 205.66 160.60 205.28 160.93 204.48 L 161.31 203.54 C 161.63 202.74 161.25 201.83 160.45 201.51 C 159.65 201.18 158.74 201.57 158.41 202.36 Z M 158.03 203.30 L 157.65 204.25 C 157.32 205.05 157.71 205.96 158.51 206.28 C 159.31 206.61 160.22 206.22 160.54 205.42 L 160.93 204.48 C 161.25 203.68 160.87 202.77 160.07 202.44 C 159.27 202.12 158.36 202.50 158.03 203.30 Z M 157.65 204.25 L 157.27 205.19 C 156.94 205.99 157.33 206.90 158.12 207.23 C 158.92 207.55 159.83 207.17 160.16 206.37 L 160.54 205.42 C 160.87 204.63 160.48 203.72 159.68 203.39 C 158.88 203.07 157.97 203.45 157.65 204.25 Z M 157.27 205.19 L 156.90 206.10 C 156.57 206.90 156.96 207.81 157.76 208.13 C 158.56 208.46 159.47 208.07 159.79 207.27 L 160.16 206.37 C 160.48 205.57 160.10 204.66 159.30 204.33 C 158.50 204.01 157.59 204.39 157.27 205.19 Z M 156.90 206.10 L 156.53 207.01 C 156.20 207.81 156.59 208.72 157.38 209.04 C 158.18 209.37 159.09 208.98 159.42 208.18 L 159.79 207.27 C 160.12 206.48 159.73 205.56 158.93 205.24 C 158.13 204.91 157.22 205.30 156.90 206.10 Z M 156.53 207.01 L 156.15 207.92 C 155.83 208.72 156.21 209.63 157.01 209.96 C 157.81 210.28 158.72 209.90 159.04 209.10 L 159.42 208.19 C 159.74 207.39 159.36 206.48 158.56 206.15 C 157.76 205.82 156.85 206.21 156.53 207.01 Z M 156.15 207.92 L 155.78 208.85 C 155.45 209.65 155.83 210.56 156.63 210.88 C 157.43 211.21 158.34 210.83 158.67 210.03 L 159.04 209.10 C 159.37 208.31 158.99 207.39 158.19 207.07 C 157.39 206.74 156.48 207.12 156.15 207.92 Z M 155.78 208.85 L 155.39 209.78 C 155.07 210.58 155.45 211.49 156.25 211.82 C 157.05 212.14 157.96 211.76 158.28 210.96 L 158.67 210.03 C 158.99 209.23 158.61 208.32 157.81 207.99 C 157.01 207.67 156.10 208.05 155.78 208.85 Z M 155.39 209.78 L 155.01 210.72 C 154.68 211.52 155.06 212.43 155.86 212.76 C 156.66 213.09 157.57 212.71 157.90 211.91 L 158.28 210.97 C 158.61 210.17 158.23 209.26 157.43 208.93 C 156.63 208.60 155.72 208.98 155.39 209.78 Z M 155.01 210.72 L 154.62 211.67 C 154.29 212.47 154.67 213.38 155.47 213.71 C 156.26 214.04 157.18 213.66 157.50 212.86 L 157.90 211.91 C 158.22 211.11 157.84 210.20 157.05 209.87 C 156.25 209.54 155.34 209.92 155.01 210.72 Z M 154.62 211.67 L 154.23 212.61 C 153.90 213.41 154.28 214.32 155.08 214.65 C 155.88 214.98 156.79 214.60 157.12 213.80 L 157.50 212.86 C 157.83 212.06 157.45 211.15 156.66 210.82 C 155.86 210.49 154.95 210.87 154.62 211.67 Z M 154.23 212.61 L 153.84 213.55 C 153.51 214.35 153.89 215.26 154.69 215.59 C 155.49 215.92 156.40 215.54 156.73 214.74 L 157.12 213.80 C 157.45 213.00 157.07 212.09 156.27 211.76 C 155.47 211.43 154.56 211.81 154.23 212.61 Z M 153.84 213.55 L 153.45 214.49 C 153.12 215.29 153.50 216.20 154.30 216.53 C 155.10 216.86 156.01 216.48 156.34 215.69 L 156.73 214.74 C 157.06 213.95 156.68 213.03 155.88 212.70 C 155.08 212.38 154.17 212.75 153.84 213.55 Z M 153.45 214.49 L 153.07 215.43 C 152.74 216.23 153.12 217.14 153.91 217.47 C 154.71 217.80 155.62 217.42 155.95 216.62 L 156.34 215.69 C 156.67 214.89 156.29 213.98 155.49 213.65 C 154.69 213.32 153.78 213.70 153.45 214.49 Z M 153.07 215.43 L 152.68 216.35 C 152.36 217.15 152.74 218.06 153.53 218.39 C 154.33 218.72 155.24 218.34 155.57 217.55 L 155.95 216.62 C 156.28 215.82 155.90 214.91 155.10 214.58 C 154.31 214.25 153.40 214.63 153.07 215.43 Z M 152.68 216.35 L 152.31 217.26 C 151.98 218.06 152.36 218.97 153.16 219.30 C 153.96 219.63 154.87 219.25 155.20 218.45 L 155.57 217.54 C 155.90 216.75 155.52 215.83 154.72 215.51 C 153.93 215.18 153.01 215.56 152.68 216.35 Z M 152.31 217.26 L 151.95 218.15 C 151.62 218.95 152.00 219.86 152.80 220.19 C 153.59 220.52 154.51 220.13 154.83 219.34 L 155.20 218.45 C 155.53 217.65 155.14 216.74 154.35 216.41 C 153.55 216.09 152.64 216.47 152.31 217.26 Z M 151.94 218.15 L 151.54 219.14 C 151.21 219.94 151.60 220.85 152.39 221.17 C 153.19 221.50 154.10 221.12 154.43 220.32 L 154.83 219.34 C 155.16 218.54 154.78 217.63 153.98 217.30 C 153.18 216.97 152.27 217.35 151.94 218.15 Z M 151.54 219.14 L 151.14 220.11 C 150.82 220.91 151.20 221.82 152.00 222.15 C 152.79 222.47 153.71 222.09 154.03 221.29 L 154.43 220.32 C 154.76 219.52 154.37 218.61 153.58 218.29 C 152.78 217.96 151.87 218.34 151.54 219.14 Z M 151.14 220.11 L 150.76 221.05 C 150.43 221.85 150.81 222.76 151.61 223.08 C 152.41 223.41 153.32 223.03 153.65 222.23 L 154.03 221.29 C 154.36 220.50 153.98 219.58 153.18 219.26 C 152.38 218.93 151.47 219.31 151.14 220.11 Z M 150.76 221.04 L 150.38 221.96 C 150.05 222.75 150.43 223.67 151.23 223.99 C 152.03 224.32 152.94 223.94 153.27 223.15 L 153.64 222.24 C 153.97 221.44 153.59 220.53 152.80 220.20 C 152.00 219.87 151.09 220.25 150.76 221.04 Z M 150.38 221.95 L 150.01 222.84 C 149.68 223.63 150.06 224.55 150.85 224.88 C 151.65 225.21 152.56 224.83 152.90 224.04 L 153.27 223.15 C 153.60 222.36 153.22 221.44 152.43 221.11 C 151.63 220.78 150.72 221.15 150.38 221.95 Z M 150.02 222.83 L 149.65 223.69 C 149.32 224.49 149.69 225.40 150.48 225.74 C 151.27 226.07 152.19 225.70 152.53 224.91 L 152.89 224.05 C 153.23 223.25 152.86 222.34 152.06 222.00 C 151.27 221.66 150.35 222.03 150.02 222.83 Z M 149.66 223.68 L 149.26 224.61 C 148.91 225.40 149.28 226.32 150.07 226.66 C 150.86 227.00 151.78 226.64 152.12 225.85 L 152.52 224.92 C 152.86 224.13 152.50 223.21 151.71 222.87 C 150.92 222.53 150.00 222.89 149.66 223.68 Z M 149.26 224.59 L 148.85 225.53 C 148.50 226.32 148.85 227.24 149.64 227.59 C 150.43 227.94 151.35 227.58 151.70 226.80 L 152.12 225.86 C 152.47 225.07 152.11 224.15 151.32 223.80 C 150.53 223.45 149.61 223.80 149.26 224.59 Z M 148.85 225.52 L 148.44 226.44 C 148.08 227.22 148.43 228.15 149.21 228.50 C 150.00 228.86 150.92 228.51 151.28 227.73 L 151.70 226.81 C 152.05 226.03 151.70 225.10 150.92 224.74 C 150.14 224.39 149.21 224.73 148.85 225.52 Z M 148.44 226.42 L 148.02 227.32 C 147.66 228.10 148.00 229.03 148.78 229.39 C 149.56 229.76 150.49 229.42 150.85 228.64 L 151.27 227.74 C 151.64 226.96 151.30 226.03 150.52 225.67 C 149.74 225.30 148.81 225.64 148.44 226.42 Z M 148.03 227.30 L 147.61 228.18 C 147.23 228.96 147.56 229.89 148.34 230.26 C 149.12 230.64 150.05 230.31 150.42 229.53 L 150.84 228.66 C 151.22 227.88 150.89 226.95 150.11 226.57 C 149.34 226.20 148.40 226.53 148.03 227.30 Z M 147.62 228.16 L 147.18 229.04 C 146.80 229.82 147.11 230.75 147.88 231.14 C 148.66 231.52 149.59 231.20 149.98 230.43 L 150.41 229.55 C 150.80 228.78 150.48 227.84 149.71 227.46 C 148.94 227.07 148.00 227.39 147.62 228.16 Z M 147.19 229.02 L 146.72 229.94 C 146.32 230.71 146.63 231.65 147.39 232.04 C 148.16 232.44 149.10 232.14 149.49 231.37 L 149.97 230.45 C 150.36 229.68 150.06 228.74 149.29 228.35 C 148.53 227.95 147.58 228.26 147.19 229.02 Z M 146.73 229.92 L 146.25 230.81 C 145.84 231.57 146.13 232.52 146.89 232.93 C 147.65 233.33 148.60 233.05 149.00 232.29 L 149.48 231.39 C 149.89 230.63 149.60 229.69 148.84 229.28 C 148.08 228.87 147.14 229.16 146.73 229.92 Z M 146.27 230.79 L 145.78 231.65 C 145.36 232.41 145.62 233.36 146.38 233.78 C 147.13 234.20 148.08 233.93 148.50 233.18 L 148.99 232.31 C 149.41 231.56 149.14 230.61 148.39 230.19 C 147.64 229.77 146.69 230.03 146.27 230.79 Z M 145.80 231.62 L 145.30 232.46 C 144.86 233.21 145.11 234.16 145.85 234.60 C 146.59 235.04 147.55 234.79 147.99 234.05 L 148.48 233.21 C 148.92 232.47 148.68 231.51 147.93 231.07 C 147.19 230.64 146.23 230.88 145.80 231.62 Z M 145.32 232.43 L 144.80 233.26 C 144.34 234.00 144.56 234.96 145.29 235.42 C 146.02 235.87 146.99 235.65 147.44 234.92 L 147.97 234.09 C 148.43 233.36 148.20 232.39 147.47 231.93 C 146.74 231.48 145.78 231.70 145.32 232.43 Z M 144.82 233.23 L 144.25 234.09 C 143.77 234.80 143.96 235.77 144.68 236.25 C 145.40 236.73 146.37 236.54 146.85 235.82 L 147.42 234.96 C 147.90 234.24 147.71 233.27 146.99 232.79 C 146.27 232.32 145.30 232.51 144.82 233.23 Z M 144.28 234.05 L 143.69 234.87 C 143.19 235.57 143.35 236.55 144.06 237.05 C 144.76 237.55 145.73 237.38 146.23 236.68 L 146.82 235.86 C 147.32 235.16 147.16 234.18 146.45 233.68 C 145.75 233.18 144.78 233.34 144.28 234.05 Z M 143.72 234.83 L 143.12 235.62 C 142.60 236.30 142.74 237.28 143.42 237.80 C 144.11 238.33 145.09 238.19 145.61 237.50 L 146.21 236.72 C 146.73 236.03 146.59 235.05 145.90 234.53 C 145.22 234.01 144.24 234.14 143.72 234.83 Z M 143.15 235.58 L 142.55 236.33 C 142.00 237.00 142.11 237.99 142.78 238.53 C 143.45 239.07 144.44 238.96 144.98 238.29 L 145.58 237.54 C 146.12 236.87 146.02 235.89 145.34 235.34 C 144.67 234.80 143.69 234.91 143.15 235.58 Z M 142.57 236.30 L 141.93 237.06 C 141.37 237.71 141.44 238.70 142.10 239.26 C 142.75 239.82 143.74 239.74 144.30 239.09 L 144.95 238.33 C 145.51 237.67 145.43 236.68 144.78 236.12 C 144.12 235.56 143.13 235.64 142.57 236.30 Z M 141.96 237.02 L 141.29 237.76 C 140.71 238.39 140.75 239.38 141.39 239.96 C 142.03 240.54 143.02 240.50 143.60 239.86 L 144.27 239.12 C 144.85 238.48 144.80 237.50 144.16 236.92 C 143.53 236.34 142.54 236.38 141.96 237.02 Z M 141.32 237.72 L 140.63 238.43 C 140.03 239.05 140.04 240.04 140.66 240.64 C 141.28 241.24 142.27 241.23 142.87 240.61 L 143.56 239.90 C 144.16 239.28 144.15 238.29 143.53 237.69 C 142.91 237.09 141.92 237.10 141.32 237.72 Z M 140.67 238.40 L 139.95 239.09 C 139.33 239.69 139.31 240.68 139.91 241.30 C 140.51 241.92 141.49 241.94 142.11 241.34 L 142.83 240.64 C 143.46 240.04 143.47 239.06 142.87 238.44 C 142.28 237.82 141.29 237.80 140.67 238.40 Z M 139.98 239.06 L 139.23 239.74 C 138.59 240.32 138.54 241.30 139.12 241.94 C 139.70 242.58 140.69 242.63 141.33 242.05 L 142.08 241.37 C 142.72 240.79 142.77 239.81 142.19 239.17 C 141.61 238.53 140.62 238.48 139.98 239.06 Z M 139.27 239.70 L 138.49 240.36 C 137.83 240.92 137.75 241.91 138.31 242.56 C 138.87 243.22 139.85 243.30 140.51 242.74 L 141.29 242.08 C 141.95 241.53 142.03 240.54 141.47 239.88 C 140.91 239.23 139.93 239.15 139.27 239.70 Z M 138.54 240.33 L 137.74 240.95 C 137.06 241.48 136.95 242.47 137.48 243.14 C 138.01 243.82 138.99 243.94 139.67 243.41 L 140.47 242.78 C 141.14 242.25 141.26 241.27 140.73 240.59 C 140.20 239.91 139.21 239.79 138.54 240.33 Z M 137.80 240.91 L 137.00 241.48 C 136.30 241.99 136.14 242.96 136.64 243.66 C 137.14 244.36 138.12 244.52 138.82 244.02 L 139.62 243.45 C 140.32 242.94 140.48 241.97 139.97 241.27 C 139.47 240.57 138.50 240.41 137.80 240.91 Z M 137.07 241.44 L 136.22 241.98 C 135.49 242.44 135.28 243.41 135.74 244.14 C 136.21 244.86 137.17 245.07 137.90 244.61 L 138.75 244.07 C 139.47 243.60 139.69 242.64 139.22 241.91 C 138.76 241.19 137.79 240.97 137.07 241.44 Z M 136.30 241.93 L 135.41 242.42 C 134.65 242.84 134.38 243.79 134.80 244.55 C 135.21 245.30 136.16 245.57 136.92 245.16 L 137.81 244.66 C 138.57 244.24 138.84 243.29 138.43 242.54 C 138.01 241.78 137.06 241.51 136.30 241.93 Z M 135.49 242.38 L 134.60 242.81 C 133.82 243.18 133.49 244.11 133.86 244.89 C 134.24 245.66 135.17 245.99 135.95 245.62 L 136.83 245.20 C 137.61 244.83 137.94 243.90 137.57 243.12 C 137.20 242.34 136.27 242.01 135.49 242.38 Z M 134.67 242.77 L 133.78 243.15 C 132.99 243.48 132.61 244.39 132.94 245.19 C 133.28 245.98 134.19 246.36 134.99 246.03 L 135.88 245.66 C 136.67 245.32 137.05 244.41 136.71 243.61 C 136.38 242.82 135.47 242.44 134.67 242.77 Z M 133.84 243.12 L 132.90 243.47 C 132.09 243.78 131.68 244.68 131.99 245.48 C 132.29 246.29 133.19 246.70 134.00 246.40 L 134.93 246.05 C 135.74 245.75 136.15 244.85 135.85 244.04 C 135.54 243.23 134.64 242.82 133.84 243.12 Z M 132.95 243.46 L 132.00 243.78 C 131.18 244.05 130.74 244.94 131.02 245.75 C 131.29 246.57 132.18 247.01 133.00 246.74 L 133.95 246.42 C 134.76 246.14 135.20 245.26 134.93 244.44 C 134.65 243.62 133.77 243.18 132.95 243.46 Z M 132.05 243.76 L 131.10 244.05 C 130.27 244.29 129.80 245.16 130.05 245.99 C 130.29 246.82 131.16 247.28 131.99 247.04 L 132.95 246.75 C 133.77 246.50 134.24 245.63 133.99 244.81 C 133.75 243.98 132.88 243.51 132.05 243.76 Z M 131.14 244.03 L 130.18 244.29 C 129.35 244.51 128.85 245.36 129.07 246.19 C 129.29 247.03 130.15 247.53 130.98 247.30 L 131.94 247.05 C 132.78 246.83 133.27 245.98 133.05 245.14 C 132.83 244.31 131.98 243.81 131.14 244.03 Z M 130.23 244.27 L 129.26 244.50 C 128.42 244.69 127.90 245.53 128.09 246.37 C 128.28 247.21 129.12 247.73 129.96 247.54 L 130.93 247.32 C 131.77 247.12 132.30 246.29 132.10 245.45 C 131.91 244.61 131.07 244.08 130.23 244.27 Z M 129.31 244.49 L 128.33 244.68 C 127.49 244.85 126.94 245.67 127.10 246.52 C 127.27 247.36 128.09 247.91 128.94 247.74 L 129.92 247.55 C 130.76 247.38 131.31 246.56 131.14 245.72 C 130.98 244.87 130.16 244.32 129.31 244.49 Z M 128.37 244.67 L 127.38 244.84 C 126.53 244.98 125.96 245.79 126.10 246.64 C 126.24 247.49 127.05 248.06 127.90 247.92 L 128.89 247.75 C 129.74 247.61 130.32 246.80 130.17 245.95 C 130.03 245.10 129.22 244.53 128.37 244.67 Z M 127.42 244.83 L 126.43 244.98 C 125.58 245.10 124.98 245.89 125.11 246.74 C 125.23 247.60 126.02 248.19 126.87 248.07 L 127.86 247.93 C 128.72 247.80 129.31 247.01 129.19 246.16 C 129.06 245.30 128.27 244.71 127.42 244.83 Z M 126.46 244.97 L 125.46 245.10 C 124.61 245.20 124.00 245.98 124.10 246.84 C 124.21 247.69 124.99 248.30 125.84 248.19 L 126.84 248.07 C 127.70 247.97 128.31 247.19 128.20 246.33 C 128.09 245.47 127.32 244.87 126.46 244.97 Z M 125.49 245.09 L 124.49 245.20 C 123.63 245.29 123.01 246.06 123.11 246.92 C 123.20 247.78 123.97 248.40 124.83 248.30 L 125.82 248.20 C 126.68 248.10 127.30 247.33 127.21 246.48 C 127.11 245.62 126.34 245.00 125.49 245.09 Z M 124.51 245.20 L 123.52 245.29 C 122.66 245.38 122.03 246.14 122.11 247.00 C 122.20 247.86 122.96 248.49 123.82 248.40 L 124.81 248.31 C 125.67 248.22 126.29 247.46 126.21 246.60 C 126.13 245.74 125.37 245.12 124.51 245.20 Z M 123.53 245.29 L 122.54 245.38 C 121.68 245.46 121.05 246.21 121.12 247.07 C 121.20 247.93 121.96 248.57 122.81 248.49 L 123.80 248.40 C 124.66 248.33 125.30 247.57 125.22 246.71 C 125.15 245.85 124.39 245.22 123.53 245.29 Z M 122.55 245.38 L 121.56 245.46 C 120.70 245.53 120.06 246.28 120.13 247.14 C 120.20 248.00 120.95 248.64 121.81 248.57 L 122.80 248.49 C 123.66 248.42 124.30 247.67 124.23 246.81 C 124.16 245.95 123.41 245.31 122.55 245.38 Z M 121.57 245.46 L 120.56 245.54 C 119.70 245.60 119.06 246.36 119.12 247.21 C 119.19 248.07 119.94 248.72 120.80 248.65 L 121.81 248.57 C 122.67 248.51 123.31 247.76 123.24 246.90 C 123.18 246.04 122.43 245.39 121.57 245.46 Z M 120.56 245.54 L 119.69 245.60 C 118.83 245.66 118.18 246.41 118.24 247.27 C 118.31 248.13 119.06 248.78 119.92 248.72 L 120.79 248.65 C 121.65 248.59 122.30 247.84 122.23 246.98 C 122.17 246.12 121.42 245.47 120.56 245.54 Z M 119.70 245.60 L 118.77 245.66 C 117.91 245.72 117.26 246.46 117.31 247.32 C 117.37 248.18 118.11 248.83 118.97 248.78 L 119.90 248.72 C 120.76 248.66 121.42 247.92 121.36 247.06 C 121.30 246.20 120.56 245.55 119.70 245.60 Z M 118.79 245.66 L 117.77 245.71 C 116.91 245.76 116.25 246.49 116.29 247.35 C 116.33 248.21 117.07 248.88 117.93 248.83 L 118.95 248.78 C 119.81 248.73 120.47 248.00 120.43 247.14 C 120.38 246.28 119.65 245.62 118.79 245.66 Z M 117.79 245.71 L 116.65 245.75 C 115.79 245.78 115.12 246.51 115.15 247.37 C 115.18 248.23 115.90 248.90 116.76 248.87 L 117.91 248.83 C 118.77 248.80 119.44 248.08 119.41 247.22 C 119.38 246.35 118.66 245.68 117.79 245.71 Z M 116.67 245.75 L 115.67 245.77 C 114.81 245.79 114.13 246.51 114.15 247.37 C 114.17 248.23 114.88 248.91 115.74 248.89 L 116.74 248.87 C 117.60 248.86 118.29 248.14 118.27 247.28 C 118.25 246.42 117.54 245.73 116.67 245.75 Z M 115.70 245.77 L 114.67 245.78 C 113.81 245.79 113.11 246.49 113.12 247.35 C 113.13 248.22 113.83 248.91 114.69 248.90 L 115.72 248.90 C 116.58 248.89 117.28 248.18 117.27 247.32 C 117.26 246.46 116.56 245.77 115.70 245.77 Z M 114.70 245.78 L 113.65 245.77 C 112.79 245.76 112.08 246.45 112.07 247.32 C 112.07 248.18 112.76 248.88 113.62 248.89 L 114.67 248.90 C 115.53 248.91 116.23 248.22 116.24 247.36 C 116.25 246.49 115.56 245.79 114.70 245.78 Z M 113.68 245.77 L 112.66 245.74 C 111.80 245.71 111.08 246.39 111.05 247.25 C 111.02 248.11 111.70 248.83 112.56 248.86 L 113.59 248.89 C 114.45 248.92 115.17 248.24 115.20 247.38 C 115.22 246.52 114.55 245.80 113.68 245.77 Z M 112.70 245.74 L 111.73 245.68 C 110.87 245.63 110.13 246.29 110.08 247.15 C 110.03 248.01 110.69 248.75 111.55 248.80 L 112.52 248.86 C 113.38 248.91 114.12 248.25 114.17 247.39 C 114.22 246.53 113.56 245.79 112.70 245.74 Z M 111.81 245.69 L 110.74 245.58 C 109.88 245.49 109.11 246.11 109.02 246.97 C 108.93 247.82 109.56 248.59 110.41 248.68 L 111.48 248.80 C 112.34 248.89 113.10 248.26 113.19 247.41 C 113.29 246.55 112.66 245.78 111.81 245.69 Z M 110.84 245.59 L 109.78 245.41 C 108.93 245.26 108.12 245.83 107.98 246.68 C 107.83 247.53 108.40 248.34 109.25 248.48 L 110.31 248.67 C 111.16 248.82 111.97 248.25 112.11 247.40 C 112.26 246.55 111.69 245.74 110.84 245.59 Z M 109.88 245.43 L 108.96 245.20 C 108.13 245.00 107.28 245.51 107.08 246.35 C 106.87 247.19 107.39 248.03 108.22 248.24 L 109.14 248.46 C 109.98 248.67 110.83 248.15 111.03 247.32 C 111.24 246.48 110.72 245.63 109.88 245.43 Z M 109.03 245.22 L 108.19 244.98 C 107.36 244.73 106.49 245.21 106.25 246.04 C 106.01 246.86 106.48 247.73 107.31 247.97 L 108.16 248.22 C 108.98 248.46 109.85 247.99 110.09 247.16 C 110.33 246.33 109.86 245.46 109.03 245.22 Z M 108.20 244.98 L 108.06 244.94 C 107.24 244.69 106.37 245.15 106.12 245.98 C 105.87 246.80 106.33 247.67 107.16 247.93 L 107.30 247.97 C 108.12 248.22 108.99 247.75 109.24 246.93 C 109.49 246.10 109.03 245.23 108.20 244.98 Z"
      fill="black"
      fill-rule="nonzero" /></svg>