<svg xmlns="http://www.w3.org/2000/svg" width="300" height="300" viewBox="0 0 300 300">
<path d="M 120.26 140.21 L 118.91 140.05 C 118.06 139.95 117.28 140.56 117.18 141.42 C 117.08 142.27 117.69 143.05 118.55 143.15 L 119.89 143.31 C 120.75 143.41 121.52 142.80 121.63 141.95 C 121.73 141.09 121.12 140.31 120.26 140.21 Z M 118.91 140.05 L 117.65 139.91 C 116.80 139.81 116.02 140.43 115.93 141.28 C 115.83 142.14 116.44 142.91 117.30 143.01 L 118.55 143.15 C 119.41 143.25 120.18 142.63 120.28 141.78 C 120.38 140.92 119.76 140.15 118.91 140.05 Z M 117.63 139.91 L 116.56 139.80 C 115.71 139.72 114.94 140.34 114.86 141.20 C 114.77 142.06 115.40 142.82 116.26 142.91 L 117.32 143.01 C 118.18 143.10 118.95 142.47 119.03 141.61 C 119.12 140.75 118.49 139.99 117.63 139.91 Z M 116.51 139.80 L 115.72 139.75 C 114.86 139.69 114.12 140.34 114.06 141.20 C 114.01 142.06 114.66 142.81 115.52 142.86 L 116.31 142.91 C 117.17 142.97 117.91 142.31 117.97 141.45 C 118.02 140.59 117.37 139.85 116.51 139.80 Z M 115.52 139.75 L 115.09 139.77 C 114.23 139.83 113.58 140.57 113.64 141.43 C 113.69 142.29 114.43 142.94 115.29 142.89 L 115.72 142.86 C 116.58 142.81 117.24 142.06 117.18 141.20 C 117.12 140.34 116.38 139.69 115.52 139.75 Z M 114.10 142.44 L 114.29 142.63 C 114.90 143.23 115.89 143.23 116.50 142.61 C 117.10 142.00 117.09 141.01 116.48 140.40 L 116.29 140.22 C 115.67 139.61 114.68 139.62 114.08 140.24 C 113.48 140.85 113.49 141.84 114.10 142.44 Z M 114.92 143.01 L 115.84 143.30 C 116.67 143.55 117.54 143.09 117.80 142.27 C 118.06 141.45 117.60 140.57 116.77 140.32 L 115.85 140.03 C 115.03 139.77 114.15 140.23 113.89 141.05 C 113.64 141.87 114.09 142.75 114.92 143.01 Z M 115.98 143.33 L 117.41 143.64 C 118.25 143.83 119.08 143.29 119.26 142.45 C 119.45 141.61 118.91 140.77 118.07 140.59 L 116.64 140.28 C 115.80 140.10 114.97 140.63 114.78 141.47 C 114.60 142.32 115.13 143.15 115.98 143.33 Z M 117.49 143.66 L 118.54 143.83 C 119.39 143.97 120.19 143.39 120.33 142.54 C 120.47 141.69 119.89 140.88 119.04 140.75 L 117.99 140.58 C 117.14 140.44 116.33 141.02 116.20 141.87 C 116.06 142.72 116.64 143.52 117.49 143.66 Z M 118.59 143.83 L 119.58 143.96 C 120.44 144.08 121.22 143.47 121.33 142.62 C 121.44 141.76 120.84 140.98 119.99 140.87 L 118.99 140.74 C 118.13 140.63 117.35 141.23 117.24 142.09 C 117.13 142.94 117.73 143.72 118.59 143.83 Z M 119.62 143.97 L 120.64 144.08 C 121.50 144.17 122.27 143.55 122.36 142.69 C 122.45 141.84 121.83 141.07 120.98 140.97 L 119.95 140.86 C 119.09 140.77 118.32 141.39 118.23 142.25 C 118.14 143.11 118.76 143.88 119.62 143.97 Z M 120.67 144.08 L 121.70 144.17 C 122.56 144.25 123.31 143.62 123.39 142.76 C 123.47 141.90 122.84 141.14 121.98 141.06 L 120.95 140.97 C 120.09 140.89 119.33 141.53 119.26 142.39 C 119.18 143.25 119.81 144.00 120.67 144.08 Z M 121.72 144.18 L 122.72 144.25 C 123.58 144.32 124.33 143.67 124.40 142.81 C 124.46 141.95 123.82 141.20 122.96 141.14 L 121.96 141.06 C 121.10 141.00 120.35 141.64 120.28 142.50 C 120.21 143.36 120.86 144.11 121.72 144.18 Z M 122.74 144.25 L 123.70 144.32 C 124.56 144.37 125.30 143.72 125.36 142.86 C 125.41 142.00 124.76 141.26 123.90 141.20 L 122.94 141.14 C 122.08 141.08 121.34 141.73 121.28 142.59 C 121.22 143.45 121.88 144.20 122.74 144.25 Z M 123.71 144.32 L 124.81 144.38 C 125.67 144.43 126.41 143.77 126.46 142.91 C 126.51 142.05 125.85 141.31 124.99 141.26 L 123.89 141.20 C 123.03 141.15 122.29 141.81 122.24 142.67 C 122.19 143.53 122.85 144.27 123.71 144.32 Z M 124.83 144.38 L 125.84 144.43 C 126.71 144.47 127.44 143.80 127.48 142.94 C 127.51 142.08 126.85 141.35 125.99 141.31 L 124.97 141.26 C 124.11 141.22 123.38 141.89 123.34 142.75 C 123.30 143.61 123.97 144.34 124.83 144.38 Z M 125.86 144.43 L 126.83 144.46 C 127.69 144.49 128.41 143.82 128.44 142.95 C 128.47 142.09 127.80 141.37 126.93 141.34 L 125.97 141.31 C 125.11 141.28 124.39 141.95 124.36 142.81 C 124.33 143.67 125.00 144.40 125.86 144.43 Z M 126.84 144.46 L 127.78 144.48 C 128.65 144.50 129.36 143.82 129.38 142.96 C 129.40 142.10 128.72 141.38 127.86 141.36 L 126.92 141.34 C 126.06 141.32 125.34 142.00 125.32 142.86 C 125.30 143.72 125.98 144.44 126.84 144.46 Z M 127.80 144.48 L 128.75 144.50 C 129.61 144.51 130.32 143.82 130.33 142.96 C 130.34 142.10 129.66 141.39 128.79 141.38 L 127.85 141.36 C 126.99 141.35 126.28 142.04 126.26 142.90 C 126.25 143.76 126.94 144.47 127.80 144.48 Z M 128.75 144.50 L 129.72 144.51 C 130.58 144.52 131.29 143.82 131.30 142.96 C 131.30 142.10 130.61 141.39 129.75 141.39 L 128.79 141.38 C 127.92 141.37 127.22 142.06 127.21 142.92 C 127.20 143.78 127.89 144.49 128.75 144.50 Z M 129.73 144.51 L 130.72 144.51 C 131.58 144.52 132.28 143.82 132.29 142.96 C 132.29 142.10 131.60 141.40 130.73 141.39 L 129.74 141.39 C 128.88 141.38 128.18 142.08 128.17 142.94 C 128.17 143.80 128.86 144.50 129.73 144.51 Z M 130.72 144.51 L 131.74 144.52 C 132.60 144.52 133.30 143.82 133.30 142.96 C 133.30 142.10 132.60 141.40 131.74 141.39 L 130.73 141.39 C 129.87 141.39 129.17 142.09 129.16 142.95 C 129.16 143.81 129.86 144.51 130.72 144.51 Z M 131.74 144.52 L 132.77 144.52 C 133.64 144.52 134.33 143.82 134.34 142.96 C 134.34 142.09 133.64 141.39 132.77 141.39 L 131.74 141.39 C 130.88 141.39 130.18 142.09 130.18 142.95 C 130.18 143.82 130.88 144.52 131.74 144.52 Z M 132.77 144.52 L 133.77 144.52 C 134.64 144.52 135.34 143.82 135.34 142.95 C 135.34 142.09 134.64 141.39 133.77 141.39 L 132.77 141.39 C 131.91 141.39 131.21 142.09 131.21 142.96 C 131.21 143.82 131.91 144.52 132.77 144.52 Z M 133.78 144.52 L 134.76 144.52 C 135.62 144.51 136.32 143.82 136.32 142.95 C 136.32 142.09 135.62 141.39 134.76 141.39 L 133.77 141.39 C 132.91 141.39 132.21 142.09 132.21 142.96 C 132.21 143.82 132.91 144.52 133.78 144.52 Z M 134.76 144.52 L 135.76 144.51 C 136.62 144.51 137.32 143.81 137.32 142.95 C 137.32 142.09 136.62 141.39 135.75 141.39 L 134.76 141.39 C 133.89 141.40 133.20 142.10 133.20 142.96 C 133.20 143.82 133.90 144.52 134.76 144.52 Z M 135.77 144.51 L 136.77 144.51 C 137.64 144.50 138.33 143.80 138.33 142.94 C 138.32 142.08 137.62 141.38 136.76 141.39 L 135.75 141.39 C 134.89 141.40 134.19 142.10 134.20 142.96 C 134.20 143.82 134.90 144.52 135.77 144.51 Z M 136.78 144.51 L 137.79 144.50 C 138.66 144.49 139.35 143.79 139.34 142.93 C 139.34 142.06 138.63 141.37 137.77 141.38 L 136.75 141.39 C 135.89 141.39 135.20 142.10 135.20 142.96 C 135.21 143.82 135.92 144.52 136.78 144.51 Z M 137.80 144.50 L 138.80 144.49 C 139.67 144.48 140.36 143.77 140.35 142.91 C 140.33 142.04 139.63 141.35 138.76 141.36 L 137.76 141.38 C 136.90 141.39 136.21 142.10 136.22 142.96 C 136.23 143.82 136.94 144.51 137.80 144.50 Z M 138.81 144.49 L 139.81 144.47 C 140.67 144.45 141.35 143.74 141.34 142.88 C 141.32 142.01 140.61 141.33 139.75 141.35 L 138.75 141.36 C 137.89 141.38 137.21 142.09 137.22 142.96 C 137.24 143.82 137.95 144.50 138.81 144.49 Z M 139.82 144.47 L 140.82 144.44 C 141.68 144.41 142.36 143.69 142.33 142.83 C 142.31 141.97 141.59 141.29 140.73 141.32 L 139.73 141.35 C 138.87 141.37 138.19 142.09 138.22 142.95 C 138.24 143.81 138.96 144.49 139.82 144.47 Z M 140.84 144.44 L 141.84 144.39 C 142.70 144.36 143.37 143.63 143.33 142.77 C 143.29 141.91 142.57 141.24 141.70 141.27 L 140.70 141.32 C 139.84 141.35 139.17 142.08 139.21 142.94 C 139.25 143.81 139.98 144.47 140.84 144.44 Z M 141.87 144.39 L 142.87 144.33 C 143.73 144.28 144.39 143.54 144.34 142.68 C 144.28 141.82 143.54 141.16 142.68 141.22 L 141.68 141.28 C 140.82 141.33 140.16 142.07 140.21 142.93 C 140.27 143.79 141.00 144.44 141.87 144.39 Z M 142.90 144.33 L 143.90 144.25 C 144.76 144.18 145.40 143.43 145.33 142.57 C 145.26 141.71 144.51 141.07 143.65 141.14 L 142.65 141.22 C 141.79 141.29 141.15 142.04 141.22 142.90 C 141.29 143.76 142.04 144.40 142.90 144.33 Z M 143.93 144.25 L 144.88 144.15 C 145.73 144.07 146.36 143.30 146.27 142.44 C 146.19 141.58 145.42 140.96 144.56 141.05 L 143.62 141.14 C 142.76 141.23 142.13 141.99 142.22 142.85 C 142.31 143.71 143.07 144.33 143.93 144.25 Z M 144.90 144.15 L 145.86 144.04 C 146.72 143.94 147.33 143.16 147.23 142.30 C 147.13 141.45 146.35 140.83 145.49 140.94 L 144.54 141.05 C 143.68 141.15 143.07 141.93 143.17 142.78 C 143.27 143.64 144.05 144.25 144.90 144.15 Z M 145.88 144.03 L 146.86 143.90 C 147.71 143.79 148.32 143.01 148.20 142.15 C 148.09 141.30 147.31 140.70 146.45 140.81 L 145.47 140.94 C 144.62 141.05 144.02 141.83 144.13 142.69 C 144.24 143.54 145.03 144.15 145.88 144.03 Z M 146.87 143.90 L 147.88 143.76 C 148.73 143.64 149.33 142.85 149.21 142.00 C 149.09 141.14 148.30 140.55 147.44 140.67 L 146.44 140.81 C 145.58 140.93 144.99 141.72 145.11 142.58 C 145.23 143.43 146.02 144.02 146.87 143.90 Z M 147.89 143.76 L 148.93 143.61 C 149.78 143.48 150.37 142.69 150.25 141.83 C 150.12 140.98 149.33 140.39 148.47 140.52 L 147.43 140.67 C 146.58 140.80 145.99 141.59 146.12 142.44 C 146.24 143.30 147.04 143.89 147.89 143.76 Z M 148.93 143.61 L 149.93 143.46 C 150.78 143.33 151.37 142.53 151.24 141.68 C 151.11 140.83 150.32 140.24 149.46 140.37 L 148.47 140.52 C 147.62 140.65 147.03 141.44 147.16 142.29 C 147.29 143.15 148.08 143.73 148.93 143.61 Z M 149.93 143.46 L 150.87 143.31 C 151.72 143.18 152.31 142.39 152.18 141.54 C 152.05 140.68 151.25 140.10 150.40 140.23 L 149.46 140.37 C 148.61 140.50 148.02 141.29 148.15 142.15 C 148.28 143.00 149.08 143.58 149.93 143.46 Z M 150.87 143.31 L 151.84 143.16 C 152.69 143.03 153.27 142.24 153.14 141.39 C 153.01 140.53 152.22 139.95 151.36 140.08 L 150.40 140.23 C 149.55 140.36 148.96 141.15 149.09 142.01 C 149.22 142.86 150.02 143.44 150.87 143.31 Z M 151.84 143.16 L 152.83 143.01 C 153.68 142.88 154.26 142.08 154.13 141.23 C 154.00 140.38 153.20 139.79 152.35 139.93 L 151.36 140.08 C 150.51 140.21 149.93 141.01 150.06 141.86 C 150.19 142.71 150.99 143.30 151.84 143.16 Z M 152.83 143.01 L 153.84 142.86 C 154.69 142.72 155.27 141.92 155.14 141.07 C 155.00 140.22 154.21 139.64 153.35 139.77 L 152.35 139.93 C 151.50 140.06 150.91 140.86 151.05 141.71 C 151.18 142.56 151.98 143.14 152.83 143.01 Z M 153.84 142.85 L 154.86 142.69 C 155.71 142.56 156.29 141.76 156.16 140.91 C 156.02 140.06 155.22 139.48 154.37 139.61 L 153.35 139.77 C 152.50 139.90 151.92 140.70 152.05 141.56 C 152.19 142.41 152.99 142.99 153.84 142.85 Z M 154.86 142.69 L 155.89 142.53 C 156.74 142.39 157.32 141.59 157.19 140.74 C 157.05 139.89 156.25 139.31 155.40 139.45 L 154.37 139.61 C 153.52 139.75 152.94 140.55 153.07 141.40 C 153.21 142.25 154.01 142.83 154.86 142.69 Z M 155.89 142.53 L 156.87 142.37 C 157.73 142.23 158.30 141.43 158.17 140.58 C 158.03 139.73 157.23 139.15 156.38 139.29 L 155.40 139.45 C 154.55 139.58 153.97 140.38 154.11 141.24 C 154.24 142.09 155.04 142.67 155.89 142.53 Z M 156.88 142.37 L 157.84 142.21 C 158.69 142.08 159.27 141.27 159.13 140.42 C 158.99 139.57 158.19 138.99 157.34 139.13 L 156.38 139.29 C 155.52 139.43 154.95 140.23 155.09 141.08 C 155.22 141.93 156.03 142.51 156.88 142.37 Z M 157.84 142.21 L 158.81 142.05 C 159.66 141.91 160.24 141.11 160.10 140.26 C 159.96 139.41 159.16 138.83 158.31 138.97 L 157.34 139.13 C 156.49 139.27 155.91 140.08 156.05 140.93 C 156.19 141.78 156.99 142.35 157.84 142.21 Z M 158.82 142.05 L 159.80 141.89 C 160.65 141.75 161.22 140.94 161.08 140.09 C 160.94 139.24 160.13 138.67 159.28 138.81 L 158.30 138.97 C 157.45 139.12 156.88 139.92 157.02 140.77 C 157.16 141.62 157.97 142.20 158.82 142.05 Z M 159.80 141.89 L 160.79 141.72 C 161.64 141.58 162.21 140.77 162.07 139.92 C 161.92 139.07 161.12 138.50 160.27 138.64 L 159.28 138.81 C 158.43 138.95 157.86 139.76 158.00 140.61 C 158.14 141.46 158.95 142.03 159.80 141.89 Z M 160.79 141.72 L 161.79 141.55 C 162.64 141.41 163.21 140.60 163.07 139.75 C 162.92 138.90 162.11 138.33 161.26 138.47 L 160.26 138.65 C 159.41 138.79 158.84 139.60 158.99 140.45 C 159.13 141.30 159.94 141.87 160.79 141.72 Z M 161.79 141.55 L 162.81 141.38 C 163.66 141.23 164.23 140.42 164.08 139.57 C 163.93 138.72 163.12 138.15 162.27 138.30 L 161.26 138.48 C 160.41 138.62 159.84 139.43 159.99 140.28 C 160.14 141.13 160.94 141.70 161.79 141.55 Z M 162.81 141.38 L 163.81 141.20 C 164.66 141.05 165.22 140.24 165.07 139.39 C 164.93 138.55 164.12 137.98 163.27 138.13 L 162.27 138.30 C 161.42 138.45 160.85 139.26 161.00 140.11 C 161.15 140.96 161.96 141.52 162.81 141.38 Z M 163.81 141.20 L 164.77 141.03 C 165.62 140.88 166.18 140.07 166.03 139.22 C 165.88 138.37 165.07 137.81 164.22 137.96 L 163.26 138.13 C 162.41 138.28 161.85 139.09 162.00 139.94 C 162.15 140.79 162.96 141.35 163.81 141.20 Z M 164.77 141.03 L 165.74 140.86 C 166.59 140.70 167.15 139.89 167.00 139.04 C 166.85 138.20 166.04 137.63 165.19 137.78 L 164.22 137.96 C 163.37 138.11 162.81 138.92 162.96 139.77 C 163.11 140.62 163.92 141.18 164.77 141.03 Z M 165.74 140.86 L 166.72 140.68 C 167.57 140.53 168.13 139.71 167.98 138.86 C 167.82 138.02 167.01 137.45 166.16 137.61 L 165.18 137.78 C 164.34 137.94 163.77 138.75 163.93 139.60 C 164.08 140.45 164.89 141.01 165.74 140.86 Z M 166.72 140.68 L 167.71 140.50 C 168.56 140.34 169.12 139.53 168.96 138.68 C 168.81 137.83 167.99 137.27 167.15 137.43 L 166.16 137.61 C 165.31 137.76 164.75 138.58 164.91 139.42 C 165.06 140.27 165.87 140.83 166.72 140.68 Z M 167.71 140.50 L 168.70 140.31 C 169.55 140.16 170.11 139.34 169.96 138.50 C 169.80 137.65 168.98 137.09 168.14 137.24 L 167.14 137.43 C 166.30 137.58 165.74 138.40 165.89 139.25 C 166.05 140.09 166.86 140.65 167.71 140.50 Z M 168.71 140.31 L 169.71 140.13 C 170.55 139.97 171.11 139.15 170.95 138.31 C 170.80 137.46 169.98 136.90 169.13 137.06 L 168.13 137.24 C 167.29 137.40 166.73 138.22 166.89 139.07 C 167.04 139.91 167.86 140.47 168.71 140.31 Z M 169.71 140.13 L 170.71 139.94 C 171.56 139.78 172.12 138.96 171.96 138.12 C 171.80 137.27 170.98 136.71 170.13 136.87 L 169.13 137.06 C 168.28 137.22 167.73 138.03 167.88 138.88 C 168.04 139.73 168.86 140.29 169.71 140.13 Z M 170.71 139.94 L 171.71 139.75 C 172.56 139.59 173.11 138.77 172.95 137.92 C 172.79 137.08 171.97 136.52 171.13 136.68 L 170.13 136.87 C 169.28 137.03 168.73 137.85 168.89 138.70 C 169.05 139.54 169.87 140.10 170.71 139.94 Z M 171.71 139.75 L 172.70 139.56 C 173.54 139.40 174.10 138.58 173.94 137.73 C 173.78 136.89 172.96 136.33 172.11 136.49 L 171.13 136.68 C 170.28 136.84 169.72 137.66 169.89 138.51 C 170.05 139.36 170.87 139.91 171.71 139.75 Z M 172.70 139.56 L 173.69 139.37 C 174.53 139.21 175.09 138.39 174.92 137.54 C 174.76 136.69 173.94 136.14 173.10 136.30 L 172.11 136.49 C 171.26 136.66 170.71 137.47 170.87 138.32 C 171.03 139.17 171.85 139.72 172.70 139.56 Z M 173.69 139.37 L 174.67 139.18 C 175.52 139.01 176.07 138.19 175.91 137.35 C 175.75 136.50 174.93 135.95 174.08 136.11 L 173.09 136.30 C 172.25 136.47 171.69 137.29 171.86 138.13 C 172.02 138.98 172.84 139.53 173.69 139.37 Z M 174.67 139.18 L 175.66 138.99 C 176.51 138.82 177.06 138.00 176.89 137.16 C 176.73 136.31 175.91 135.76 175.06 135.92 L 174.08 136.11 C 173.23 136.28 172.68 137.10 172.84 137.94 C 173.01 138.79 173.83 139.34 174.67 139.18 Z M 175.66 138.99 L 176.64 138.79 C 177.49 138.63 178.04 137.81 177.88 136.96 C 177.71 136.12 176.89 135.57 176.05 135.73 L 175.06 135.92 C 174.22 136.09 173.66 136.91 173.83 137.75 C 173.99 138.60 174.81 139.15 175.66 138.99 Z M 176.64 138.79 L 177.62 138.60 C 178.47 138.44 179.02 137.62 178.86 136.77 C 178.69 135.93 177.87 135.38 177.03 135.54 L 176.05 135.73 C 175.20 135.89 174.65 136.71 174.81 137.56 C 174.98 138.41 175.80 138.96 176.64 138.79 Z M 177.62 138.60 L 178.60 138.42 C 179.44 138.25 180.00 137.43 179.83 136.59 C 179.67 135.74 178.85 135.19 178.00 135.35 L 177.03 135.54 C 176.18 135.70 175.63 136.52 175.79 137.37 C 175.96 138.22 176.77 138.77 177.62 138.60 Z M 178.60 138.42 L 179.58 138.23 C 180.43 138.06 180.98 137.24 180.82 136.40 C 180.65 135.55 179.83 135.00 178.99 135.16 L 178.00 135.35 C 177.16 135.51 176.60 136.33 176.77 137.18 C 176.93 138.03 177.75 138.58 178.60 138.42 Z M 179.58 138.23 L 180.60 138.03 C 181.44 137.87 182.00 137.05 181.84 136.20 C 181.67 135.35 180.85 134.80 180.01 134.96 L 178.99 135.16 C 178.14 135.32 177.59 136.14 177.75 136.99 C 177.91 137.83 178.73 138.39 179.58 138.23 Z M 180.60 138.03 L 181.61 137.84 C 182.45 137.67 183.01 136.86 182.85 136.01 C 182.69 135.16 181.87 134.61 181.02 134.77 L 180.01 134.96 C 179.16 135.12 178.61 135.94 178.77 136.79 C 178.93 137.64 179.75 138.19 180.60 138.03 Z M 181.61 137.84 L 182.61 137.65 C 183.45 137.49 184.01 136.67 183.85 135.82 C 183.69 134.97 182.87 134.42 182.02 134.58 L 181.02 134.77 C 180.18 134.93 179.62 135.75 179.78 136.59 C 179.94 137.44 180.76 138.00 181.61 137.84 Z M 182.60 137.65 L 183.59 137.46 C 184.44 137.30 185.00 136.49 184.84 135.64 C 184.68 134.79 183.86 134.23 183.02 134.39 L 182.03 134.58 C 181.18 134.74 180.62 135.55 180.78 136.40 C 180.94 137.25 181.76 137.81 182.60 137.65 Z M 183.59 137.46 L 184.56 137.28 C 185.41 137.12 185.97 136.31 185.81 135.46 C 185.66 134.61 184.84 134.05 183.99 134.21 L 183.02 134.39 C 182.17 134.55 181.61 135.36 181.77 136.21 C 181.93 137.06 182.74 137.62 183.59 137.46 Z M 184.56 137.28 L 185.52 137.11 C 186.37 136.95 186.93 136.14 186.77 135.29 C 186.62 134.44 185.80 133.88 184.95 134.03 L 184.00 134.21 C 183.15 134.37 182.59 135.18 182.74 136.03 C 182.90 136.88 183.71 137.44 184.56 137.28 Z M 185.51 137.11 L 186.45 136.94 C 187.30 136.78 187.87 135.97 187.71 135.12 C 187.56 134.27 186.75 133.71 185.90 133.86 L 184.96 134.03 C 184.11 134.19 183.55 135.00 183.70 135.85 C 183.85 136.70 184.67 137.26 185.51 137.11 Z M 186.45 136.94 L 187.44 136.76 C 188.29 136.61 188.86 135.80 188.71 134.95 C 188.56 134.10 187.74 133.54 186.90 133.69 L 185.90 133.86 C 185.06 134.01 184.49 134.82 184.64 135.67 C 184.79 136.52 185.60 137.09 186.45 136.94 Z M 187.44 136.76 L 188.46 136.59 C 189.31 136.44 189.88 135.63 189.73 134.78 C 189.58 133.93 188.77 133.36 187.92 133.51 L 186.90 133.69 C 186.05 133.83 185.48 134.64 185.63 135.49 C 185.78 136.34 186.59 136.91 187.44 136.76 Z M 188.45 136.59 L 189.46 136.42 C 190.31 136.27 190.88 135.47 190.73 134.61 C 190.59 133.76 189.78 133.19 188.93 133.34 L 187.93 133.51 C 187.08 133.65 186.51 134.46 186.65 135.31 C 186.80 136.16 187.60 136.73 188.45 136.59 Z M 189.45 136.42 L 190.43 136.25 C 191.29 136.11 191.86 135.31 191.72 134.46 C 191.58 133.60 190.77 133.03 189.92 133.17 L 188.94 133.33 C 188.09 133.48 187.51 134.28 187.65 135.13 C 187.79 135.98 188.60 136.56 189.45 136.42 Z M 190.43 136.26 L 191.40 136.10 C 192.25 135.96 192.83 135.16 192.69 134.30 C 192.55 133.45 191.75 132.87 190.90 133.01 L 189.93 133.17 C 189.07 133.31 188.50 134.11 188.63 134.96 C 188.77 135.82 189.58 136.40 190.43 136.26 Z M 191.40 136.10 L 192.36 135.95 C 193.21 135.81 193.79 135.01 193.66 134.15 C 193.52 133.30 192.72 132.72 191.86 132.86 L 190.90 133.01 C 190.05 133.15 189.47 133.95 189.60 134.80 C 189.74 135.65 190.54 136.24 191.40 136.10 Z M 192.35 135.95 L 193.31 135.80 C 194.16 135.66 194.74 134.86 194.61 134.01 C 194.48 133.16 193.68 132.57 192.82 132.71 L 191.87 132.85 C 191.01 132.99 190.43 133.79 190.56 134.64 C 190.70 135.50 191.50 136.08 192.35 135.95 Z M 193.30 135.80 L 194.34 135.64 C 195.20 135.51 195.78 134.71 195.65 133.85 C 195.52 133.00 194.72 132.41 193.86 132.54 L 192.83 132.70 C 191.97 132.83 191.38 133.63 191.52 134.49 C 191.65 135.35 192.45 135.93 193.30 135.80 Z M 194.33 135.64 L 195.39 135.49 C 196.24 135.36 196.83 134.56 196.71 133.70 C 196.58 132.85 195.78 132.25 194.92 132.38 L 193.87 132.54 C 193.01 132.67 192.42 133.47 192.55 134.32 C 192.68 135.18 193.48 135.77 194.33 135.64 Z M 195.38 135.49 L 196.41 135.34 C 197.26 135.22 197.86 134.42 197.74 133.56 C 197.61 132.70 196.82 132.11 195.96 132.23 L 194.93 132.38 C 194.07 132.50 193.47 133.30 193.60 134.16 C 193.72 135.02 194.52 135.62 195.38 135.49 Z M 196.39 135.35 L 197.39 135.21 C 198.25 135.09 198.86 134.30 198.74 133.44 C 198.62 132.58 197.83 131.97 196.96 132.09 L 195.97 132.23 C 195.11 132.34 194.50 133.14 194.62 134.00 C 194.74 134.86 195.53 135.47 196.39 135.35 Z M 197.38 135.22 L 198.33 135.09 C 199.19 134.98 199.81 134.19 199.70 133.33 C 199.59 132.47 198.80 131.85 197.93 131.96 L 196.98 132.09 C 196.11 132.20 195.50 132.98 195.61 133.85 C 195.72 134.71 196.51 135.33 197.38 135.22 Z M 198.31 135.10 L 199.21 135.00 C 200.08 134.90 200.70 134.11 200.60 133.25 C 200.50 132.38 199.72 131.76 198.85 131.86 L 197.95 131.96 C 197.08 132.06 196.46 132.84 196.56 133.71 C 196.66 134.58 197.44 135.20 198.31 135.10 Z M 199.18 135.00 L 200.21 134.90 C 201.08 134.82 201.72 134.05 201.64 133.18 C 201.55 132.31 200.78 131.67 199.91 131.75 L 198.88 131.85 C 198.01 131.93 197.37 132.71 197.46 133.58 C 197.54 134.45 198.31 135.09 199.18 135.00 Z M 200.17 134.91 L 201.19 134.84 C 202.06 134.78 202.72 134.02 202.66 133.14 C 202.59 132.27 201.84 131.61 200.96 131.67 L 199.95 131.75 C 199.08 131.81 198.42 132.57 198.48 133.44 C 198.54 134.31 199.30 134.97 200.17 134.91 Z M 201.14 134.84 L 202.11 134.80 C 202.99 134.76 203.67 134.02 203.63 133.15 C 203.59 132.27 202.85 131.59 201.98 131.63 L 201.01 131.67 C 200.13 131.71 199.45 132.45 199.49 133.32 C 199.53 134.20 200.27 134.88 201.14 134.84 Z M 202.07 134.80 L 203.03 134.79 C 203.91 134.77 204.61 134.05 204.59 133.17 C 204.58 132.30 203.86 131.60 202.98 131.61 L 202.02 131.63 C 201.14 131.64 200.44 132.36 200.45 133.24 C 200.47 134.12 201.19 134.82 202.07 134.80 Z M 202.99 134.79 L 203.98 134.80 C 204.86 134.80 205.58 134.10 205.58 133.22 C 205.59 132.34 204.88 131.62 204.00 131.61 L 203.01 131.61 C 202.14 131.60 201.42 132.31 201.41 133.19 C 201.40 134.07 202.11 134.78 202.99 134.79 Z M 203.94 134.80 L 204.97 134.83 C 205.85 134.86 206.59 134.17 206.62 133.29 C 206.65 132.41 205.96 131.68 205.08 131.65 L 204.04 131.61 C 203.16 131.58 202.43 132.27 202.40 133.15 C 202.37 134.03 203.06 134.77 203.94 134.80 Z M 204.89 134.83 L 205.93 134.92 C 206.81 135.00 207.59 134.34 207.66 133.47 C 207.74 132.59 207.08 131.81 206.20 131.74 L 205.16 131.65 C 204.28 131.57 203.51 132.23 203.43 133.11 C 203.36 133.99 204.01 134.76 204.89 134.83 Z M 205.79 134.91 L 206.79 135.08 C 207.66 135.23 208.49 134.65 208.64 133.78 C 208.79 132.91 208.21 132.08 207.34 131.92 L 206.34 131.75 C 205.47 131.60 204.64 132.18 204.49 133.05 C 204.34 133.93 204.92 134.76 205.79 134.91 Z M 206.57 135.03 L 207.47 135.32 C 208.31 135.60 209.22 135.13 209.49 134.29 C 209.76 133.44 209.30 132.54 208.46 132.27 L 207.56 131.97 C 206.71 131.70 205.81 132.16 205.53 133.01 C 205.26 133.85 205.72 134.76 206.57 135.03 Z M 207.15 135.18 L 207.94 135.65 C 208.70 136.10 209.69 135.84 210.14 135.07 C 210.59 134.31 210.33 133.32 209.57 132.87 L 208.78 132.40 C 208.01 131.95 207.02 132.21 206.57 132.98 C 206.12 133.75 206.38 134.73 207.15 135.18 Z M 207.58 135.37 L 208.22 136.04 C 208.83 136.68 209.86 136.71 210.50 136.09 C 211.15 135.47 211.17 134.45 210.55 133.81 L 209.92 133.14 C 209.30 132.50 208.28 132.47 207.64 133.09 C 206.99 133.71 206.97 134.73 207.58 135.37 Z M 207.97 135.70 L 208.43 136.54 C 208.86 137.33 209.84 137.61 210.63 137.18 C 211.41 136.75 211.70 135.77 211.27 134.98 L 210.81 134.14 C 210.38 133.36 209.39 133.07 208.61 133.50 C 207.82 133.93 207.54 134.92 207.97 135.70 Z M 208.29 136.23 L 208.60 137.24 C 208.86 138.10 209.77 138.58 210.62 138.32 C 211.48 138.06 211.97 137.15 211.71 136.29 L 211.40 135.29 C 211.14 134.43 210.23 133.95 209.37 134.21 C 208.52 134.47 208.03 135.38 208.29 136.23 Z M 208.54 137.00 L 208.70 138.07 C 208.83 138.96 209.66 139.57 210.55 139.44 C 211.44 139.30 212.05 138.48 211.92 137.59 L 211.76 136.52 C 211.63 135.64 210.80 135.02 209.91 135.15 C 209.02 135.29 208.41 136.11 208.54 137.00 Z M 208.68 137.91 L 208.73 138.86 C 208.77 139.76 209.54 140.46 210.44 140.41 C 211.34 140.37 212.03 139.60 211.99 138.70 L 211.94 137.74 C 211.89 136.84 211.13 136.15 210.23 136.20 C 209.33 136.24 208.63 137.01 208.68 137.91 Z M 208.72 138.75 L 208.70 139.75 C 208.68 140.65 209.40 141.40 210.30 141.42 C 211.20 141.44 211.95 140.72 211.97 139.82 L 211.99 138.82 C 212.01 137.91 211.30 137.17 210.39 137.15 C 209.49 137.13 208.74 137.84 208.72 138.75 Z M 208.71 139.64 L 208.62 140.66 C 208.54 141.57 209.20 142.36 210.10 142.44 C 211.00 142.52 211.80 141.85 211.88 140.95 L 211.97 139.93 C 212.05 139.03 211.38 138.23 210.48 138.15 C 209.58 138.07 208.78 138.74 208.71 139.64 Z M 208.63 140.56 L 208.47 141.58 C 208.33 142.47 208.95 143.31 209.84 143.45 C 210.74 143.58 211.58 142.97 211.71 142.07 L 211.87 141.06 C 212.01 140.16 211.39 139.32 210.49 139.19 C 209.60 139.05 208.76 139.66 208.63 140.56 Z M 208.49 141.47 L 208.27 142.45 C 208.07 143.34 208.63 144.22 209.52 144.42 C 210.40 144.61 211.28 144.05 211.48 143.17 L 211.70 142.18 C 211.89 141.30 211.33 140.42 210.45 140.22 C 209.56 140.02 208.68 140.58 208.49 141.47 Z M 208.30 142.33 L 208.01 143.30 C 207.74 144.17 208.23 145.09 209.10 145.35 C 209.97 145.62 210.89 145.12 211.15 144.26 L 211.45 143.29 C 211.71 142.42 211.22 141.50 210.35 141.24 C 209.48 140.97 208.56 141.47 208.30 142.33 Z M 208.05 143.18 L 207.69 144.11 C 207.36 144.95 207.78 145.90 208.63 146.23 C 209.47 146.56 210.42 146.14 210.75 145.30 L 211.11 144.37 C 211.44 143.53 211.02 142.58 210.17 142.25 C 209.33 141.92 208.38 142.34 208.05 143.18 Z M 207.73 144.01 L 207.32 144.89 C 206.94 145.71 207.29 146.69 208.11 147.07 C 208.93 147.46 209.91 147.10 210.29 146.28 L 210.71 145.40 C 211.09 144.58 210.74 143.60 209.92 143.21 C 209.09 142.83 208.12 143.19 207.73 144.01 Z M 207.36 144.82 L 206.90 145.69 C 206.47 146.49 206.77 147.48 207.57 147.91 C 208.37 148.33 209.36 148.03 209.79 147.23 L 210.25 146.36 C 210.68 145.56 210.38 144.57 209.58 144.14 C 208.78 143.72 207.79 144.02 207.36 144.82 Z M 206.93 145.64 L 206.42 146.51 C 205.96 147.29 206.23 148.30 207.01 148.75 C 207.80 149.20 208.80 148.94 209.25 148.15 L 209.76 147.28 C 210.21 146.50 209.95 145.50 209.16 145.04 C 208.38 144.59 207.38 144.85 206.93 145.64 Z M 206.44 146.49 L 205.93 147.32 C 205.46 148.09 205.71 149.10 206.49 149.56 C 207.26 150.03 208.26 149.78 208.73 149.01 L 209.24 148.18 C 209.70 147.41 209.46 146.40 208.68 145.93 C 207.91 145.47 206.90 145.71 206.44 146.49 Z M 205.94 147.31 L 205.45 148.11 C 204.97 148.88 205.21 149.88 205.98 150.36 C 206.75 150.83 207.76 150.59 208.23 149.82 L 208.72 149.02 C 209.20 148.25 208.96 147.25 208.19 146.77 C 207.42 146.30 206.41 146.54 205.94 147.31 Z M 205.45 148.10 L 204.94 148.93 C 204.46 149.69 204.69 150.70 205.46 151.17 C 206.22 151.65 207.23 151.42 207.71 150.65 L 208.22 149.83 C 208.70 149.07 208.47 148.06 207.70 147.58 C 206.94 147.10 205.93 147.34 205.45 148.10 Z M 204.94 148.92 L 204.41 149.77 C 203.93 150.53 204.16 151.54 204.92 152.02 C 205.68 152.50 206.69 152.27 207.17 151.51 L 207.70 150.66 C 208.18 149.90 207.95 148.89 207.19 148.41 C 206.43 147.93 205.42 148.16 204.94 148.92 Z M 204.41 149.77 L 203.86 150.64 C 203.38 151.40 203.61 152.40 204.37 152.89 C 205.13 153.37 206.13 153.14 206.61 152.38 L 207.17 151.51 C 207.65 150.75 207.42 149.74 206.66 149.26 C 205.90 148.78 204.89 149.01 204.41 149.77 Z M 203.86 150.64 L 203.30 151.53 C 202.82 152.29 203.04 153.30 203.80 153.78 C 204.56 154.26 205.57 154.03 206.05 153.27 L 206.61 152.38 C 207.09 151.62 206.87 150.61 206.11 150.13 C 205.35 149.65 204.34 149.88 203.86 150.64 Z M 203.30 151.54 L 202.76 152.39 C 202.28 153.15 202.51 154.16 203.26 154.64 C 204.02 155.11 205.03 154.89 205.51 154.13 L 206.05 153.27 C 206.53 152.51 206.30 151.51 205.54 151.03 C 204.78 150.55 203.78 150.78 203.30 151.54 Z M 202.76 152.40 L 202.25 153.20 C 201.77 153.96 202.00 154.97 202.76 155.44 C 203.52 155.92 204.52 155.69 205.00 154.93 L 205.51 154.13 C 205.98 153.37 205.75 152.36 205.00 151.89 C 204.24 151.41 203.23 151.64 202.76 152.40 Z M 202.25 153.21 L 201.73 154.03 C 201.26 154.79 201.49 155.79 202.25 156.27 C 203.01 156.74 204.01 156.51 204.48 155.75 L 205.00 154.93 C 205.48 154.17 205.25 153.17 204.49 152.69 C 203.73 152.22 202.72 152.45 202.25 153.21 Z M 201.73 154.03 L 201.21 154.87 C 200.73 155.63 200.96 156.63 201.72 157.10 C 202.48 157.58 203.49 157.35 203.96 156.59 L 204.48 155.75 C 204.96 154.99 204.73 153.99 203.97 153.51 C 203.21 153.04 202.21 153.27 201.73 154.03 Z M 201.21 154.87 L 200.68 155.72 C 200.20 156.48 200.43 157.48 201.19 157.96 C 201.95 158.43 202.95 158.20 203.43 157.44 L 203.96 156.59 C 204.43 155.83 204.20 154.83 203.44 154.35 C 202.68 153.88 201.68 154.11 201.21 154.87 Z M 200.68 155.72 L 200.13 156.60 C 199.66 157.35 199.89 158.36 200.65 158.83 C 201.41 159.30 202.41 159.07 202.88 158.31 L 203.43 157.44 C 203.90 156.68 203.67 155.68 202.91 155.21 C 202.15 154.73 201.15 154.97 200.68 155.72 Z M 200.13 156.60 L 199.58 157.48 C 199.11 158.24 199.34 159.24 200.10 159.72 C 200.85 160.19 201.85 159.96 202.33 159.20 L 202.88 158.31 C 203.36 157.55 203.12 156.55 202.37 156.08 C 201.61 155.61 200.61 155.84 200.13 156.60 Z M 199.58 157.48 L 199.05 158.34 C 198.57 159.10 198.80 160.10 199.56 160.57 C 200.32 161.04 201.32 160.81 201.79 160.06 L 202.33 159.20 C 202.80 158.44 202.57 157.44 201.81 156.97 C 201.05 156.49 200.05 156.72 199.58 157.48 Z M 199.05 158.34 L 198.54 159.14 C 198.07 159.90 198.30 160.90 199.06 161.37 C 199.82 161.85 200.81 161.62 201.29 160.86 L 201.79 160.06 C 202.26 159.30 202.03 158.30 201.28 157.82 C 200.52 157.35 199.52 157.58 199.05 158.34 Z M 198.55 159.14 L 198.04 159.96 C 197.56 160.71 197.79 161.71 198.55 162.19 C 199.30 162.66 200.30 162.43 200.78 161.67 L 201.29 160.86 C 201.76 160.10 201.53 159.10 200.78 158.63 C 200.02 158.16 199.02 158.38 198.55 159.14 Z M 198.04 159.96 L 197.52 160.79 C 197.04 161.54 197.27 162.54 198.03 163.01 C 198.78 163.49 199.78 163.26 200.25 162.50 L 200.77 161.67 C 201.25 160.92 201.02 159.92 200.26 159.45 C 199.51 158.97 198.51 159.20 198.04 159.96 Z M 197.52 160.79 L 196.99 161.63 C 196.51 162.38 196.74 163.38 197.50 163.85 C 198.25 164.33 199.25 164.10 199.72 163.35 L 200.25 162.50 C 200.73 161.75 200.50 160.75 199.74 160.28 C 198.99 159.80 197.99 160.03 197.52 160.79 Z M 196.99 161.63 L 196.45 162.49 C 195.98 163.24 196.20 164.23 196.95 164.71 C 197.71 165.18 198.70 164.96 199.18 164.21 L 199.72 163.35 C 200.19 162.59 199.97 161.60 199.21 161.12 C 198.46 160.65 197.47 160.87 196.99 161.63 Z M 196.45 162.48 L 195.90 163.36 C 195.43 164.11 195.65 165.10 196.40 165.58 C 197.15 166.05 198.15 165.83 198.62 165.08 L 199.18 164.21 C 199.65 163.45 199.43 162.46 198.67 161.98 C 197.92 161.51 196.93 161.73 196.45 162.48 Z M 195.90 163.36 L 195.34 164.24 C 194.87 165.00 195.09 165.99 195.84 166.47 C 196.59 166.94 197.58 166.72 198.06 165.97 L 198.62 165.08 C 199.10 164.33 198.87 163.33 198.12 162.86 C 197.37 162.38 196.38 162.61 195.90 163.36 Z M 195.34 164.24 L 194.79 165.12 C 194.31 165.87 194.53 166.86 195.28 167.34 C 196.03 167.81 197.03 167.59 197.50 166.84 L 198.06 165.97 C 198.53 165.22 198.31 164.23 197.56 163.75 C 196.81 163.27 195.82 163.49 195.34 164.24 Z M 194.79 165.11 L 194.26 165.94 C 193.78 166.69 194.00 167.68 194.75 168.16 C 195.50 168.64 196.49 168.42 196.97 167.67 L 197.50 166.84 C 197.98 166.10 197.76 165.10 197.01 164.62 C 196.26 164.15 195.27 164.37 194.79 165.11 Z M 194.26 165.94 L 193.73 166.78 C 193.25 167.52 193.46 168.52 194.21 169.00 C 194.96 169.48 195.95 169.26 196.43 168.51 L 196.97 167.67 C 197.45 166.93 197.23 165.93 196.48 165.45 C 195.74 164.97 194.74 165.19 194.26 165.94 Z M 193.73 166.77 L 193.18 167.61 C 192.70 168.36 192.92 169.36 193.66 169.84 C 194.41 170.32 195.41 170.10 195.89 169.36 L 196.43 168.52 C 196.91 167.77 196.70 166.77 195.95 166.29 C 195.21 165.81 194.21 166.02 193.73 166.77 Z M 193.19 167.61 L 192.64 168.45 C 192.15 169.20 192.36 170.20 193.11 170.68 C 193.85 171.16 194.85 170.95 195.33 170.21 L 195.88 169.36 C 196.37 168.62 196.16 167.62 195.41 167.14 C 194.67 166.65 193.67 166.86 193.19 167.61 Z M 192.64 168.45 L 192.09 169.29 C 191.60 170.04 191.80 171.03 192.55 171.52 C 193.29 172.01 194.29 171.80 194.77 171.06 L 195.33 170.22 C 195.82 169.47 195.61 168.48 194.87 167.99 C 194.13 167.50 193.13 167.70 192.64 168.45 Z M 192.09 169.28 L 191.53 170.13 C 191.04 170.87 191.24 171.87 191.98 172.36 C 192.72 172.85 193.72 172.65 194.21 171.91 L 194.77 171.07 C 195.26 170.33 195.06 169.33 194.32 168.84 C 193.58 168.34 192.58 168.54 192.09 169.28 Z M 191.53 170.12 L 190.97 170.95 C 190.48 171.69 190.67 172.69 191.41 173.19 C 192.15 173.68 193.15 173.49 193.64 172.75 L 194.21 171.92 C 194.70 171.18 194.51 170.18 193.77 169.68 C 193.03 169.19 192.03 169.38 191.53 170.12 Z M 190.98 170.94 L 190.41 171.77 C 189.91 172.50 190.10 173.50 190.83 174.01 C 191.57 174.51 192.57 174.32 193.07 173.59 L 193.64 172.76 C 194.14 172.03 193.95 171.03 193.22 170.52 C 192.48 170.02 191.48 170.21 190.98 170.94 Z M 190.42 171.76 L 189.85 172.58 C 189.34 173.31 189.52 174.32 190.25 174.82 C 190.98 175.33 191.98 175.15 192.49 174.42 L 193.07 173.60 C 193.57 172.87 193.39 171.86 192.66 171.35 C 191.93 170.85 190.93 171.03 190.42 171.76 Z M 189.85 172.57 L 189.27 173.40 C 188.75 174.12 188.92 175.13 189.65 175.65 C 190.37 176.16 191.38 175.99 191.89 175.26 L 192.48 174.44 C 193.00 173.71 192.83 172.70 192.10 172.19 C 191.38 171.67 190.37 171.84 189.85 172.57 Z M 189.28 173.39 L 188.68 174.20 C 188.16 174.92 188.32 175.93 189.04 176.45 C 189.76 176.97 190.77 176.81 191.29 176.09 L 191.88 175.28 C 192.41 174.56 192.25 173.55 191.53 173.03 C 190.80 172.50 189.80 172.67 189.28 173.39 Z M 188.69 174.19 L 188.10 174.99 C 187.57 175.71 187.72 176.72 188.44 177.25 C 189.15 177.78 190.16 177.62 190.69 176.91 L 191.28 176.11 C 191.81 175.39 191.66 174.38 190.95 173.85 C 190.23 173.32 189.22 173.47 188.69 174.19 Z M 188.11 174.98 L 187.51 175.77 C 186.97 176.48 187.11 177.49 187.82 178.03 C 188.53 178.57 189.54 178.43 190.08 177.72 L 190.68 176.92 C 191.22 176.21 191.08 175.20 190.37 174.67 C 189.66 174.13 188.65 174.27 188.11 174.98 Z M 187.52 175.76 L 186.91 176.54 C 186.37 177.25 186.50 178.26 187.20 178.80 C 187.91 179.35 188.92 179.22 189.46 178.51 L 190.07 177.73 C 190.61 177.03 190.48 176.01 189.78 175.47 C 189.08 174.92 188.06 175.05 187.52 175.76 Z M 186.92 176.53 L 186.31 177.31 C 185.76 178.00 185.88 179.02 186.58 179.57 C 187.27 180.12 188.29 180.00 188.84 179.30 L 189.45 178.53 C 190.00 177.83 189.89 176.82 189.19 176.26 C 188.49 175.71 187.48 175.83 186.92 176.53 Z M 186.32 177.29 L 185.70 178.06 C 185.14 178.76 185.25 179.77 185.94 180.33 C 186.63 180.89 187.64 180.78 188.20 180.09 L 188.83 179.32 C 189.39 178.63 189.28 177.61 188.59 177.05 C 187.89 176.49 186.88 176.60 186.32 177.29 Z M 185.71 178.05 L 185.07 178.82 C 184.51 179.50 184.60 180.52 185.29 181.09 C 185.98 181.65 186.99 181.56 187.56 180.87 L 188.19 180.10 C 188.76 179.42 188.66 178.40 187.98 177.84 C 187.29 177.27 186.28 177.36 185.71 178.05 Z M 185.08 178.81 L 184.45 179.55 C 183.88 180.23 183.96 181.25 184.64 181.83 C 185.32 182.40 186.34 182.31 186.91 181.63 L 187.55 180.88 C 188.12 180.20 188.03 179.19 187.36 178.61 C 186.68 178.04 185.66 178.13 185.08 178.81 Z M 184.46 179.54 L 183.82 180.29 C 183.24 180.96 183.31 181.98 183.99 182.56 C 184.66 183.14 185.68 183.07 186.26 182.39 L 186.90 181.65 C 187.48 180.97 187.41 179.96 186.74 179.37 C 186.06 178.79 185.04 178.87 184.46 179.54 Z M 183.83 180.27 L 183.17 181.02 C 182.59 181.68 182.65 182.70 183.32 183.29 C 183.99 183.88 185.01 183.82 185.59 183.15 L 186.25 182.41 C 186.84 181.74 186.77 180.72 186.11 180.13 C 185.44 179.54 184.42 179.60 183.83 180.27 Z M 183.19 181.00 L 182.52 181.74 C 181.92 182.40 181.98 183.43 182.64 184.02 C 183.30 184.62 184.32 184.56 184.92 183.90 L 185.58 183.16 C 186.18 182.50 186.13 181.48 185.46 180.88 C 184.80 180.29 183.78 180.34 183.19 181.00 Z M 182.53 181.73 L 181.85 182.47 C 181.25 183.12 181.29 184.14 181.95 184.75 C 182.60 185.35 183.63 185.31 184.23 184.65 L 184.91 183.92 C 185.51 183.26 185.47 182.24 184.81 181.63 C 184.15 181.03 183.13 181.07 182.53 181.73 Z M 181.86 182.45 L 181.17 183.19 C 180.56 183.84 180.60 184.86 181.25 185.47 C 181.90 186.08 182.92 186.05 183.53 185.40 L 184.22 184.67 C 184.83 184.01 184.80 182.99 184.15 182.38 C 183.50 181.77 182.47 181.80 181.86 182.45 Z M 181.19 183.17 L 180.49 183.90 C 179.87 184.55 179.89 185.57 180.53 186.19 C 181.18 186.81 182.20 186.78 182.82 186.14 L 183.52 185.41 C 184.14 184.77 184.11 183.74 183.47 183.13 C 182.83 182.51 181.80 182.53 181.19 183.17 Z M 180.50 183.89 L 179.79 184.61 C 179.16 185.25 179.17 186.28 179.81 186.90 C 180.45 187.53 181.47 187.52 182.10 186.88 L 182.81 186.15 C 183.43 185.52 183.42 184.49 182.78 183.87 C 182.15 183.24 181.12 183.25 180.50 183.89 Z M 179.80 184.60 L 179.08 185.32 C 178.45 185.95 178.45 186.97 179.08 187.61 C 179.71 188.24 180.73 188.24 181.37 187.61 L 182.09 186.89 C 182.72 186.26 182.72 185.23 182.09 184.60 C 181.46 183.97 180.43 183.97 179.80 184.60 Z M 179.09 185.31 L 178.38 186.00 C 177.75 186.62 177.73 187.65 178.36 188.29 C 178.98 188.93 180.01 188.94 180.65 188.31 L 181.36 187.62 C 181.99 187.00 182.01 185.97 181.38 185.33 C 180.76 184.69 179.73 184.68 179.09 185.31 Z M 178.39 185.99 L 177.68 186.67 C 177.03 187.29 177.01 188.32 177.63 188.96 C 178.25 189.61 179.28 189.63 179.92 189.01 L 180.64 188.32 C 181.28 187.70 181.30 186.68 180.68 186.03 C 180.07 185.39 179.04 185.37 178.39 185.99 Z M 177.69 186.66 L 176.96 187.35 C 176.31 187.96 176.28 188.99 176.90 189.64 C 177.51 190.29 178.54 190.32 179.19 189.70 L 179.91 189.02 C 180.56 188.41 180.59 187.38 179.98 186.73 C 179.37 186.08 178.34 186.05 177.69 186.66 Z M 176.97 187.34 L 176.24 188.02 C 175.59 188.63 175.55 189.65 176.16 190.31 C 176.77 190.96 177.79 191.00 178.45 190.39 L 179.18 189.71 C 179.84 189.10 179.87 188.08 179.26 187.42 C 178.66 186.77 177.63 186.73 176.97 187.34 Z M 176.25 188.01 L 175.51 188.68 C 174.85 189.29 174.81 190.31 175.41 190.98 C 176.02 191.64 177.04 191.68 177.70 191.08 L 178.44 190.40 C 179.10 189.80 179.15 188.77 178.54 188.11 C 177.94 187.45 176.91 187.40 176.25 188.01 Z M 175.52 188.68 L 174.77 189.35 C 174.11 189.95 174.06 190.98 174.66 191.64 C 175.26 192.31 176.29 192.36 176.95 191.76 L 177.70 191.08 C 178.36 190.48 178.41 189.46 177.81 188.79 C 177.21 188.13 176.18 188.07 175.52 188.68 Z M 174.78 189.34 L 174.03 190.01 C 173.36 190.61 173.30 191.64 173.90 192.31 C 174.50 192.97 175.53 193.03 176.20 192.43 L 176.95 191.76 C 177.61 191.17 177.67 190.14 177.07 189.47 C 176.48 188.80 175.45 188.74 174.78 189.34 Z M 174.04 190.01 L 173.28 190.67 C 172.61 191.27 172.55 192.30 173.14 192.97 C 173.74 193.64 174.76 193.70 175.44 193.11 L 176.19 192.44 C 176.86 191.84 176.92 190.82 176.33 190.15 C 175.73 189.47 174.71 189.41 174.04 190.01 Z M 173.29 190.67 L 172.53 191.34 C 171.85 191.93 171.79 192.96 172.38 193.63 C 172.97 194.30 174.00 194.37 174.67 193.78 L 175.43 193.11 C 176.11 192.52 176.17 191.49 175.58 190.82 C 174.99 190.14 173.96 190.08 173.29 190.67 Z M 172.53 191.33 L 171.78 191.99 C 171.10 192.58 171.03 193.61 171.62 194.28 C 172.21 194.96 173.24 195.03 173.92 194.44 L 174.67 193.78 C 175.35 193.19 175.42 192.16 174.83 191.49 C 174.24 190.81 173.21 190.74 172.53 191.33 Z M 171.78 191.98 L 171.02 192.64 C 170.34 193.23 170.27 194.26 170.86 194.94 C 171.45 195.62 172.48 195.69 173.16 195.10 L 173.91 194.45 C 174.59 193.86 174.67 192.83 174.08 192.15 C 173.49 191.47 172.46 191.40 171.78 191.98 Z M 171.02 192.64 L 170.26 193.29 C 169.58 193.88 169.51 194.91 170.09 195.59 C 170.68 196.27 171.71 196.35 172.39 195.76 L 173.15 195.11 C 173.84 194.52 173.91 193.49 173.32 192.81 C 172.74 192.12 171.71 192.05 171.02 192.64 Z M 170.27 193.29 L 169.51 193.94 C 168.82 194.53 168.74 195.56 169.33 196.24 C 169.92 196.93 170.95 197.01 171.63 196.42 L 172.39 195.77 C 173.08 195.18 173.16 194.15 172.57 193.46 C 171.98 192.78 170.95 192.70 170.27 193.29 Z M 169.51 193.94 L 168.75 194.59 C 168.06 195.17 167.98 196.20 168.56 196.89 C 169.15 197.58 170.18 197.66 170.87 197.07 L 171.63 196.42 C 172.32 195.84 172.40 194.80 171.81 194.12 C 171.23 193.43 170.19 193.35 169.51 193.94 Z M 168.75 194.58 L 167.98 195.23 C 167.30 195.81 167.21 196.85 167.80 197.54 C 168.38 198.23 169.41 198.31 170.10 197.72 L 170.87 197.08 C 171.55 196.49 171.64 195.46 171.05 194.77 C 170.47 194.08 169.44 194.00 168.75 194.58 Z M 167.99 195.23 L 167.22 195.87 C 166.53 196.46 166.45 197.49 167.03 198.18 C 167.61 198.87 168.65 198.96 169.34 198.37 L 170.10 197.73 C 170.79 197.14 170.88 196.11 170.29 195.42 C 169.71 194.73 168.68 194.64 167.99 195.23 Z M 167.22 195.87 L 166.46 196.51 C 165.77 197.09 165.68 198.13 166.26 198.82 C 166.85 199.51 167.88 199.60 168.58 199.02 L 169.34 198.38 C 170.03 197.79 170.12 196.76 169.54 196.07 C 168.95 195.37 167.92 195.28 167.22 195.87 Z M 166.46 196.51 L 165.70 197.15 C 165.01 197.73 164.92 198.77 165.50 199.46 C 166.08 200.16 167.12 200.25 167.81 199.66 L 168.58 199.02 C 169.27 198.44 169.36 197.40 168.78 196.71 C 168.19 196.01 167.16 195.92 166.46 196.51 Z M 165.70 197.14 L 164.93 197.79 C 164.24 198.37 164.15 199.41 164.73 200.10 C 165.31 200.80 166.35 200.89 167.05 200.31 L 167.81 199.66 C 168.51 199.08 168.60 198.04 168.02 197.35 C 167.43 196.65 166.40 196.56 165.70 197.14 Z M 164.93 197.79 L 164.17 198.43 C 163.47 199.01 163.38 200.05 163.96 200.74 C 164.54 201.44 165.58 201.53 166.28 200.95 L 167.05 200.31 C 167.74 199.73 167.83 198.69 167.25 197.99 C 166.67 197.29 165.63 197.20 164.93 197.79 Z M 164.17 198.43 L 163.40 199.07 C 162.70 199.65 162.61 200.69 163.20 201.39 C 163.78 202.08 164.82 202.17 165.51 201.59 L 166.28 200.95 C 166.98 200.37 167.07 199.33 166.48 198.63 C 165.90 197.94 164.86 197.84 164.17 198.43 Z M 163.40 199.07 L 162.63 199.71 C 161.94 200.29 161.85 201.33 162.43 202.03 C 163.02 202.73 164.06 202.82 164.75 202.23 L 165.52 201.59 C 166.21 201.01 166.30 199.97 165.72 199.27 C 165.13 198.57 164.10 198.48 163.40 199.07 Z M 162.63 199.71 L 161.87 200.35 C 161.17 200.94 161.09 201.98 161.67 202.68 C 162.26 203.37 163.30 203.46 163.99 202.87 L 164.76 202.23 C 165.45 201.64 165.54 200.60 164.95 199.91 C 164.37 199.21 163.33 199.13 162.63 199.71 Z M 161.86 200.36 L 161.10 201.00 C 160.41 201.59 160.33 202.63 160.91 203.33 C 161.50 204.02 162.54 204.10 163.24 203.52 L 164.00 202.87 C 164.69 202.28 164.78 201.24 164.19 200.55 C 163.60 199.85 162.56 199.77 161.86 200.36 Z M 161.10 201.01 L 160.34 201.66 C 159.65 202.25 159.57 203.29 160.16 203.98 C 160.75 204.67 161.79 204.75 162.48 204.16 L 163.24 203.51 C 163.93 202.92 164.01 201.88 163.42 201.19 C 162.83 200.50 161.79 200.42 161.10 201.01 Z M 160.33 201.66 L 159.57 202.32 C 158.89 202.91 158.81 203.95 159.41 204.64 C 160.00 205.33 161.04 205.41 161.73 204.81 L 162.49 204.16 C 163.18 203.56 163.25 202.52 162.66 201.83 C 162.06 201.14 161.02 201.07 160.33 201.66 Z M 159.57 202.32 L 158.81 202.98 C 158.13 203.58 158.06 204.63 158.66 205.31 C 159.26 206.00 160.30 206.07 160.99 205.47 L 161.74 204.81 C 162.43 204.21 162.50 203.16 161.90 202.48 C 161.30 201.79 160.25 201.72 159.57 202.32 Z M 158.80 202.99 L 158.03 203.68 C 157.35 204.28 157.28 205.33 157.89 206.01 C 158.49 206.69 159.54 206.75 160.22 206.15 L 160.99 205.46 C 161.68 204.86 161.74 203.81 161.13 203.13 C 160.53 202.45 159.48 202.39 158.80 202.99 Z M 158.02 203.68 L 157.24 204.38 C 156.56 204.99 156.51 206.04 157.12 206.72 C 157.73 207.39 158.78 207.45 159.46 206.84 L 160.23 206.14 C 160.91 205.53 160.96 204.49 160.35 203.81 C 159.74 203.13 158.70 203.07 158.02 203.68 Z M 157.23 204.39 L 156.47 205.09 C 155.79 205.70 155.74 206.75 156.36 207.42 C 156.98 208.10 158.02 208.15 158.70 207.53 L 159.46 206.83 C 160.14 206.22 160.19 205.17 159.57 204.50 C 158.96 203.82 157.91 203.77 157.23 204.39 Z M 156.46 205.09 L 155.70 205.79 C 155.03 206.41 154.99 207.46 155.61 208.13 C 156.23 208.80 157.28 208.85 157.95 208.23 L 158.71 207.53 C 159.38 206.91 159.42 205.86 158.80 205.19 C 158.18 204.51 157.13 204.47 156.46 205.09 Z M 155.69 205.79 L 154.95 206.49 C 154.28 207.11 154.24 208.16 154.87 208.83 C 155.50 209.50 156.54 209.54 157.21 208.91 L 157.96 208.22 C 158.63 207.60 158.66 206.55 158.04 205.88 C 157.41 205.21 156.36 205.17 155.69 205.79 Z M 154.94 206.49 L 154.22 207.18 C 153.55 207.81 153.52 208.86 154.15 209.53 C 154.78 210.19 155.83 210.22 156.50 209.59 L 157.22 208.91 C 157.89 208.28 157.92 207.23 157.29 206.56 C 156.66 205.89 155.61 205.86 154.94 206.49 Z M 154.21 207.18 L 153.50 207.85 C 152.84 208.49 152.81 209.54 153.45 210.21 C 154.08 210.87 155.13 210.90 155.80 210.26 L 156.50 209.59 C 157.17 208.96 157.19 207.90 156.56 207.24 C 155.93 206.57 154.87 206.55 154.21 207.18 Z M 153.50 207.86 L 152.81 208.52 C 152.15 209.15 152.13 210.21 152.77 210.87 C 153.41 211.53 154.46 211.55 155.12 210.92 L 155.81 210.26 C 156.47 209.62 156.49 208.57 155.85 207.90 C 155.21 207.24 154.16 207.22 153.50 207.86 Z M 152.81 208.52 L 152.14 209.17 C 151.48 209.81 151.47 210.86 152.11 211.52 C 152.75 212.18 153.81 212.20 154.47 211.56 L 155.13 210.91 C 155.79 210.27 155.81 209.21 155.16 208.55 C 154.52 207.89 153.47 207.88 152.81 208.52 Z M 152.13 209.17 L 151.33 209.97 C 150.67 210.61 150.66 211.67 151.31 212.33 C 151.95 212.98 153.01 212.99 153.67 212.35 L 154.47 211.55 C 155.13 210.91 155.14 209.85 154.49 209.19 C 153.85 208.54 152.79 208.53 152.13 209.17 Z M 151.32 209.97 L 150.55 210.74 C 149.90 211.39 149.90 212.44 150.55 213.10 C 151.20 213.75 152.26 213.75 152.91 213.10 L 153.67 212.34 C 154.33 211.69 154.33 210.63 153.68 209.98 C 153.03 209.33 151.97 209.32 151.32 209.97 Z M 150.54 210.74 L 149.82 211.47 C 149.17 212.13 149.18 213.19 149.83 213.84 C 150.49 214.49 151.55 214.48 152.20 213.82 L 152.92 213.09 C 153.57 212.44 153.56 211.38 152.91 210.73 C 152.25 210.08 151.19 210.09 150.54 210.74 Z M 149.81 211.48 L 149.13 212.18 C 148.48 212.84 148.49 213.90 149.15 214.55 C 149.81 215.19 150.87 215.18 151.52 214.52 L 152.21 213.82 C 152.85 213.16 152.84 212.10 152.18 211.45 C 151.52 210.81 150.46 210.82 149.81 211.48 Z M 149.12 212.19 L 148.46 212.87 C 147.82 213.53 147.84 214.59 148.51 215.24 C 149.17 215.88 150.23 215.86 150.87 215.19 L 151.53 214.51 C 152.17 213.85 152.15 212.79 151.48 212.15 C 150.82 211.50 149.76 211.52 149.12 212.19 Z M 148.45 212.88 L 147.83 213.53 C 147.19 214.20 147.21 215.27 147.89 215.90 C 148.56 216.54 149.62 216.52 150.26 215.85 L 150.88 215.19 C 151.52 214.52 151.49 213.45 150.82 212.82 C 150.15 212.18 149.09 212.20 148.45 212.88 Z M 147.82 213.54 L 147.17 214.23 C 146.54 214.90 146.57 215.97 147.24 216.60 C 147.92 217.24 148.98 217.20 149.62 216.53 L 150.26 215.84 C 150.90 215.16 150.87 214.10 150.19 213.47 C 149.52 212.83 148.45 212.86 147.82 213.54 Z M 147.16 214.23 L 146.43 215.02 C 145.80 215.70 145.84 216.76 146.52 217.40 C 147.20 218.03 148.27 217.99 148.90 217.31 L 149.63 216.52 C 150.26 215.84 150.22 214.78 149.54 214.15 C 148.86 213.51 147.79 213.55 147.16 214.23 Z M 146.42 215.02 L 145.72 215.79 C 145.09 216.47 145.14 217.54 145.83 218.17 C 146.52 218.80 147.58 218.75 148.21 218.06 L 148.91 217.30 C 149.54 216.61 149.49 215.55 148.80 214.92 C 148.12 214.29 147.05 214.34 146.42 215.02 Z M 145.71 215.79 L 145.05 216.53 C 144.42 217.22 144.47 218.29 145.17 218.92 C 145.86 219.55 146.93 219.49 147.56 218.80 L 148.22 218.06 C 148.85 217.37 148.79 216.30 148.10 215.67 C 147.41 215.04 146.34 215.10 145.71 215.79 Z M 145.03 216.54 L 144.40 217.25 C 143.77 217.95 143.84 219.02 144.54 219.65 C 145.23 220.27 146.31 220.21 146.93 219.51 L 147.57 218.79 C 148.19 218.09 148.13 217.02 147.43 216.40 C 146.73 215.77 145.66 215.84 145.03 216.54 Z M 144.39 217.26 L 143.78 217.95 C 143.16 218.66 143.23 219.73 143.93 220.35 C 144.64 220.97 145.71 220.90 146.33 220.20 L 146.94 219.50 C 147.56 218.80 147.49 217.72 146.79 217.10 C 146.08 216.48 145.01 216.55 144.39 217.26 Z M 143.77 217.96 L 143.06 218.77 C 142.44 219.48 142.52 220.56 143.23 221.17 C 143.94 221.79 145.02 221.71 145.63 221.00 L 146.34 220.19 C 146.96 219.48 146.88 218.40 146.17 217.79 C 145.46 217.17 144.38 217.25 143.77 217.96 Z M 143.06 218.78 L 142.38 219.57 C 141.77 220.28 141.85 221.36 142.56 221.97 C 143.27 222.58 144.35 222.50 144.96 221.79 L 145.64 221.00 C 146.25 220.28 146.17 219.21 145.46 218.60 C 144.74 217.99 143.67 218.07 143.06 218.78 Z M 142.38 219.57 L 141.74 220.32 C 141.12 221.03 141.21 222.10 141.92 222.72 C 142.63 223.33 143.70 223.25 144.32 222.53 L 144.96 221.79 C 145.57 221.07 145.49 220.00 144.78 219.39 C 144.06 218.78 142.99 218.86 142.38 219.57 Z M 141.74 220.31 L 141.13 221.01 C 140.52 221.72 140.59 222.80 141.30 223.41 C 142.01 224.03 143.09 223.95 143.70 223.24 L 144.31 222.54 C 144.92 221.83 144.85 220.76 144.14 220.14 C 143.43 219.53 142.36 219.60 141.74 220.31 Z M 141.15 221.00 L 140.49 221.74 C 139.87 222.44 139.93 223.52 140.63 224.14 C 141.34 224.76 142.41 224.70 143.03 223.99 L 143.69 223.26 C 144.31 222.55 144.25 221.48 143.54 220.86 C 142.84 220.23 141.77 220.30 141.15 221.00 Z M 140.50 221.72 L 139.82 222.47 C 139.19 223.16 139.24 224.24 139.94 224.87 C 140.63 225.50 141.71 225.45 142.34 224.76 L 143.02 224.01 C 143.65 223.32 143.60 222.24 142.91 221.61 C 142.21 220.98 141.13 221.03 140.50 221.72 Z M 139.83 222.45 L 139.17 223.17 C 138.53 223.86 138.57 224.94 139.26 225.58 C 139.95 226.22 141.03 226.18 141.67 225.49 L 142.34 224.77 C 142.98 224.08 142.93 223.00 142.24 222.36 C 141.55 221.72 140.47 221.76 139.83 222.45 Z M 139.17 223.17 L 138.50 223.89 C 137.86 224.58 137.90 225.66 138.59 226.30 C 139.28 226.95 140.37 226.90 141.01 226.21 L 141.67 225.49 C 142.32 224.80 142.27 223.72 141.58 223.08 C 140.89 222.43 139.81 222.48 139.17 223.17 Z M 138.49 223.89 L 137.83 224.61 C 137.20 225.31 137.24 226.39 137.94 227.03 C 138.63 227.66 139.71 227.62 140.35 226.92 L 141.01 226.20 C 141.65 225.51 141.60 224.43 140.91 223.79 C 140.21 223.15 139.13 223.20 138.49 223.89 Z M 137.83 224.62 L 137.16 225.36 C 136.53 226.06 136.58 227.13 137.27 227.77 C 137.97 228.40 139.05 228.35 139.68 227.65 L 140.35 226.91 C 140.99 226.22 140.94 225.14 140.24 224.51 C 139.55 223.87 138.47 223.92 137.83 224.62 Z M 137.16 225.37 L 136.48 226.12 C 135.85 226.81 135.90 227.89 136.60 228.52 C 137.29 229.15 138.37 229.10 139.00 228.40 L 139.68 227.65 C 140.31 226.95 140.26 225.88 139.56 225.25 C 138.87 224.62 137.79 224.67 137.16 225.37 Z M 136.48 226.12 L 136.06 226.59 C 135.43 227.28 135.48 228.36 136.18 228.98 C 136.87 229.61 137.95 229.56 138.57 228.86 L 139.00 228.40 C 139.63 227.70 139.57 226.63 138.88 226.00 C 138.18 225.37 137.11 225.43 136.48 226.12 Z"
      fill="black"
      fill-rule="nonzero" /></svg>