<svg xmlns="http://www.w3.org/2000/svg" width="300" height="300" viewBox="0 0 300 300">
<path d="M 138.99 96.73 L 138.12 97.18 C 137.36 97.57 137.06 98.52 137.46 99.28 C 137.85 100.05 138.79 100.35 139.56 99.95 L 140.42 99.50 C 141.19 99.10 141.49 98.16 141.09 97.40 C 140.69 96.63 139.75 96.33 138.99 96.73 Z M 138.10 97.19 L 137.24 97.65 C 136.48 98.06 136.20 99.00 136.60 99.76 C 137.01 100.52 137.96 100.81 138.72 100.40 L 139.58 99.94 C 140.34 99.53 140.62 98.58 140.22 97.82 C 139.81 97.06 138.86 96.78 138.10 97.19 Z M 137.20 97.67 L 136.34 98.16 C 135.60 98.59 135.34 99.55 135.77 100.29 C 136.19 101.04 137.15 101.30 137.90 100.87 L 138.76 100.38 C 139.50 99.95 139.76 99.00 139.33 98.25 C 138.91 97.50 137.95 97.24 137.20 97.67 Z M 136.29 98.20 L 135.43 98.73 C 134.70 99.19 134.48 100.16 134.94 100.89 C 135.40 101.62 136.37 101.84 137.10 101.38 L 137.95 100.84 C 138.68 100.38 138.90 99.42 138.44 98.69 C 137.98 97.96 137.02 97.74 136.29 98.20 Z M 135.37 98.78 L 134.51 99.38 C 133.81 99.87 133.64 100.85 134.13 101.55 C 134.63 102.26 135.60 102.43 136.31 101.93 L 137.16 101.33 C 137.87 100.84 138.04 99.86 137.54 99.16 C 137.04 98.45 136.07 98.28 135.37 98.78 Z M 134.44 99.43 L 133.65 100.05 C 132.98 100.59 132.86 101.57 133.40 102.25 C 133.93 102.92 134.91 103.04 135.59 102.50 L 136.38 101.88 C 137.06 101.35 137.17 100.36 136.64 99.69 C 136.10 99.01 135.12 98.90 134.44 99.43 Z M 133.60 100.10 L 132.83 100.77 C 132.18 101.34 132.11 102.32 132.67 102.97 C 133.24 103.62 134.22 103.69 134.87 103.13 L 135.65 102.46 C 136.30 101.89 136.37 100.91 135.80 100.26 C 135.24 99.60 134.25 99.54 133.60 100.10 Z M 132.78 100.81 L 132.03 101.51 C 131.41 102.10 131.37 103.09 131.96 103.72 C 132.55 104.35 133.54 104.38 134.17 103.79 L 134.92 103.09 C 135.55 102.50 135.58 101.51 134.99 100.88 C 134.40 100.25 133.41 100.22 132.78 100.81 Z M 132.00 101.54 L 131.28 102.26 C 130.67 102.86 130.67 103.85 131.28 104.46 C 131.89 105.07 132.88 105.08 133.49 104.47 L 134.20 103.76 C 134.81 103.15 134.82 102.16 134.21 101.55 C 133.60 100.94 132.61 100.93 132.00 101.54 Z M 131.26 102.28 L 130.58 102.99 C 129.99 103.61 130.01 104.60 130.64 105.20 C 131.26 105.79 132.25 105.77 132.84 105.14 L 133.52 104.44 C 134.11 103.82 134.09 102.83 133.46 102.23 C 132.84 101.64 131.85 101.66 131.26 102.28 Z M 130.56 103.02 L 129.88 103.76 C 129.30 104.40 129.35 105.39 129.98 105.97 C 130.62 106.55 131.61 106.50 132.19 105.86 L 132.87 105.12 C 133.45 104.48 133.40 103.49 132.76 102.91 C 132.13 102.33 131.14 102.38 130.56 103.02 Z M 129.86 103.79 L 129.18 104.57 C 128.61 105.22 128.68 106.21 129.33 106.77 C 129.99 107.34 130.97 107.27 131.54 106.62 L 132.21 105.83 C 132.78 105.18 132.71 104.20 132.06 103.63 C 131.41 103.07 130.42 103.14 129.86 103.79 Z M 129.15 104.60 L 128.53 105.36 C 127.98 106.02 128.07 107.00 128.74 107.55 C 129.40 108.10 130.38 108.01 130.93 107.35 L 131.56 106.59 C 132.11 105.92 132.02 104.94 131.35 104.39 C 130.69 103.84 129.70 103.93 129.15 104.60 Z M 128.51 105.38 L 127.91 106.14 C 127.37 106.81 127.49 107.80 128.16 108.33 C 128.84 108.87 129.82 108.75 130.35 108.08 L 130.95 107.32 C 131.49 106.65 131.38 105.66 130.70 105.13 C 130.02 104.59 129.04 104.71 128.51 105.38 Z M 127.89 106.16 L 127.30 106.93 C 126.77 107.61 126.90 108.59 127.59 109.12 C 128.27 109.64 129.25 109.52 129.77 108.83 L 130.37 108.06 C 130.89 107.37 130.77 106.39 130.08 105.87 C 129.40 105.34 128.42 105.47 127.89 106.16 Z M 127.29 106.94 L 126.73 107.68 C 126.21 108.37 126.35 109.35 127.04 109.87 C 127.73 110.39 128.70 110.25 129.22 109.56 L 129.78 108.82 C 130.30 108.13 130.16 107.15 129.48 106.63 C 128.79 106.12 127.81 106.25 127.29 106.94 Z M 126.73 107.69 L 126.15 108.46 C 125.64 109.15 125.78 110.13 126.47 110.64 C 127.16 111.16 128.14 111.01 128.66 110.32 L 129.23 109.56 C 129.74 108.86 129.60 107.89 128.91 107.37 C 128.22 106.85 127.24 107.00 126.73 107.69 Z M 126.15 108.46 L 125.56 109.26 C 125.04 109.95 125.19 110.93 125.88 111.44 C 126.57 111.96 127.55 111.81 128.06 111.12 L 128.66 110.32 C 129.17 109.63 129.03 108.65 128.33 108.14 C 127.64 107.62 126.66 107.77 126.15 108.46 Z M 125.56 109.26 L 124.94 110.10 C 124.43 110.79 124.57 111.77 125.27 112.28 C 125.96 112.79 126.94 112.65 127.45 111.95 L 128.07 111.12 C 128.58 110.43 128.43 109.45 127.74 108.94 C 127.05 108.42 126.07 108.57 125.56 109.26 Z M 124.94 110.09 L 124.30 110.96 C 123.78 111.65 123.93 112.63 124.62 113.14 C 125.32 113.66 126.29 113.51 126.81 112.82 L 127.45 111.95 C 127.96 111.26 127.82 110.28 127.12 109.77 C 126.43 109.26 125.45 109.40 124.94 110.09 Z M 124.30 110.96 L 123.73 111.73 C 123.21 112.42 123.36 113.40 124.05 113.91 C 124.74 114.43 125.72 114.28 126.23 113.59 L 126.81 112.82 C 127.32 112.13 127.18 111.15 126.48 110.64 C 125.79 110.12 124.81 110.27 124.30 110.96 Z M 123.73 111.73 L 123.14 112.52 C 122.63 113.21 122.77 114.19 123.46 114.70 C 124.16 115.22 125.13 115.07 125.65 114.38 L 126.23 113.59 C 126.75 112.90 126.60 111.92 125.91 111.41 C 125.22 110.89 124.24 111.04 123.73 111.73 Z M 123.14 112.52 L 122.54 113.33 C 122.03 114.02 122.18 115.00 122.87 115.51 C 123.57 116.03 124.54 115.88 125.06 115.18 L 125.65 114.38 C 126.16 113.68 126.01 112.71 125.32 112.19 C 124.63 111.68 123.65 111.83 123.14 112.52 Z M 122.54 113.34 L 121.94 114.16 C 121.43 114.85 121.58 115.83 122.28 116.34 C 122.98 116.85 123.95 116.69 124.46 116.00 L 125.06 115.18 C 125.57 114.48 125.42 113.50 124.72 113.00 C 124.02 112.49 123.05 112.64 122.54 113.34 Z M 121.93 114.17 L 121.34 115.00 C 120.83 115.70 120.99 116.67 121.69 117.18 C 122.39 117.68 123.37 117.52 123.87 116.82 L 124.47 115.99 C 124.97 115.29 124.81 114.31 124.11 113.81 C 123.41 113.31 122.44 113.47 121.93 114.17 Z M 121.33 115.01 L 120.74 115.84 C 120.25 116.55 120.42 117.52 121.12 118.02 C 121.83 118.51 122.80 118.34 123.30 117.64 L 123.88 116.81 C 124.38 116.10 124.21 115.13 123.50 114.63 C 122.80 114.13 121.82 114.30 121.33 115.01 Z M 120.73 115.85 L 120.17 116.67 C 119.69 117.38 119.87 118.35 120.58 118.84 C 121.29 119.33 122.26 119.15 122.75 118.44 L 123.31 117.62 C 123.79 116.91 123.61 115.94 122.90 115.45 C 122.19 114.96 121.22 115.14 120.73 115.85 Z M 120.17 116.68 L 119.61 117.50 C 119.13 118.21 119.32 119.18 120.04 119.66 C 120.75 120.15 121.72 119.96 122.20 119.24 L 122.75 118.42 C 123.24 117.71 123.05 116.74 122.33 116.26 C 121.62 115.77 120.65 115.96 120.17 116.68 Z M 119.61 117.51 L 119.06 118.33 C 118.58 119.05 118.78 120.02 119.50 120.50 C 120.21 120.97 121.18 120.78 121.66 120.06 L 122.21 119.23 C 122.69 118.52 122.49 117.55 121.77 117.07 C 121.05 116.59 120.09 116.79 119.61 117.51 Z M 119.05 118.34 L 118.50 119.18 C 118.03 119.90 118.23 120.86 118.95 121.34 C 119.67 121.81 120.64 121.61 121.11 120.89 L 121.66 120.05 C 122.14 119.33 121.94 118.37 121.22 117.89 C 120.50 117.42 119.53 117.62 119.05 118.34 Z M 118.50 119.18 L 117.95 120.03 C 117.48 120.75 117.68 121.72 118.40 122.19 C 119.12 122.66 120.09 122.46 120.56 121.74 L 121.12 120.89 C 121.59 120.17 121.39 119.20 120.66 118.73 C 119.94 118.26 118.97 118.46 118.50 119.18 Z M 117.95 120.03 L 117.39 120.88 C 116.92 121.60 117.12 122.56 117.85 123.04 C 118.57 123.51 119.54 123.31 120.01 122.58 L 120.56 121.74 C 121.03 121.01 120.83 120.05 120.11 119.57 C 119.39 119.10 118.42 119.31 117.95 120.03 Z M 117.39 120.87 L 116.86 121.69 C 116.39 122.41 116.59 123.38 117.31 123.85 C 118.03 124.32 119.00 124.12 119.47 123.40 L 120.01 122.58 C 120.48 121.86 120.28 120.90 119.55 120.42 C 118.83 119.95 117.87 120.15 117.39 120.87 Z M 116.86 121.69 L 116.32 122.51 C 115.85 123.24 116.05 124.20 116.77 124.68 C 117.50 125.15 118.46 124.95 118.93 124.22 L 119.47 123.40 C 119.95 122.68 119.74 121.71 119.02 121.24 C 118.30 120.77 117.33 120.97 116.86 121.69 Z M 116.32 122.52 L 115.78 123.35 C 115.30 124.08 115.51 125.04 116.23 125.51 C 116.95 125.98 117.92 125.78 118.39 125.06 L 118.94 124.22 C 119.41 123.50 119.20 122.53 118.48 122.06 C 117.76 121.59 116.79 121.79 116.32 122.52 Z M 115.77 123.36 L 115.22 124.20 C 114.76 124.93 114.96 125.89 115.69 126.36 C 116.41 126.83 117.38 126.62 117.85 125.90 L 118.39 125.05 C 118.86 124.33 118.66 123.36 117.93 122.90 C 117.21 122.43 116.24 122.63 115.77 123.36 Z M 115.22 124.21 L 114.67 125.06 C 114.21 125.79 114.42 126.75 115.14 127.22 C 115.87 127.69 116.83 127.48 117.30 126.75 L 117.85 125.90 C 118.31 125.17 118.10 124.20 117.38 123.74 C 116.65 123.27 115.69 123.48 115.22 124.21 Z M 114.67 125.07 L 114.12 125.93 C 113.66 126.66 113.87 127.62 114.60 128.09 C 115.33 128.55 116.29 128.33 116.75 127.61 L 117.30 126.74 C 117.77 126.02 117.55 125.05 116.82 124.59 C 116.10 124.13 115.13 124.34 114.67 125.07 Z M 114.12 125.94 L 113.58 126.79 C 113.12 127.52 113.34 128.48 114.07 128.94 C 114.80 129.40 115.77 129.18 116.22 128.45 L 116.76 127.60 C 117.22 126.87 117.00 125.90 116.27 125.45 C 115.54 124.99 114.57 125.21 114.12 125.94 Z M 113.58 126.80 L 113.05 127.65 C 112.59 128.38 112.82 129.34 113.55 129.80 C 114.28 130.25 115.25 130.03 115.70 129.29 L 116.23 128.44 C 116.68 127.71 116.46 126.75 115.73 126.29 C 114.99 125.84 114.03 126.06 113.58 126.80 Z M 113.04 127.65 L 112.52 128.51 C 112.07 129.24 112.30 130.20 113.03 130.66 C 113.77 131.11 114.73 130.88 115.18 130.14 L 115.70 129.29 C 116.16 128.55 115.93 127.59 115.19 127.14 C 114.46 126.69 113.49 126.92 113.04 127.65 Z M 112.51 128.51 L 111.99 129.37 C 111.55 130.11 111.78 131.07 112.52 131.52 C 113.26 131.96 114.22 131.73 114.66 130.99 L 115.18 130.13 C 115.63 129.40 115.40 128.44 114.66 127.99 C 113.92 127.54 112.96 127.78 112.51 128.51 Z M 111.99 129.38 L 111.48 130.24 C 111.03 130.97 111.27 131.93 112.01 132.38 C 112.75 132.82 113.71 132.58 114.15 131.84 L 114.67 130.99 C 115.11 130.25 114.87 129.29 114.13 128.84 C 113.39 128.40 112.44 128.64 111.99 129.38 Z M 111.47 130.24 L 110.96 131.10 C 110.52 131.84 110.76 132.80 111.51 133.24 C 112.25 133.68 113.20 133.44 113.65 132.70 L 114.16 131.84 C 114.60 131.10 114.35 130.14 113.61 129.70 C 112.87 129.26 111.91 129.50 111.47 130.24 Z M 110.96 131.10 L 110.45 131.97 C 110.01 132.71 110.26 133.66 111.00 134.10 C 111.75 134.54 112.70 134.29 113.14 133.55 L 113.65 132.69 C 114.09 131.95 113.84 130.99 113.10 130.55 C 112.35 130.11 111.40 130.36 110.96 131.10 Z M 110.45 131.97 L 109.93 132.85 C 109.50 133.60 109.75 134.55 110.49 134.99 C 111.24 135.42 112.19 135.17 112.63 134.43 L 113.14 133.55 C 113.58 132.80 113.33 131.85 112.58 131.41 C 111.84 130.98 110.88 131.23 110.45 131.97 Z M 109.93 132.86 L 109.42 133.73 C 108.99 134.48 109.24 135.43 109.99 135.87 C 110.73 136.30 111.69 136.05 112.12 135.30 L 112.63 134.42 C 113.06 133.68 112.81 132.72 112.06 132.29 C 111.32 131.86 110.36 132.11 109.93 132.86 Z M 109.42 133.74 L 108.92 134.61 C 108.49 135.36 108.74 136.31 109.49 136.74 C 110.24 137.17 111.19 136.91 111.62 136.17 L 112.13 135.30 C 112.56 134.55 112.30 133.59 111.55 133.16 C 110.80 132.73 109.85 132.99 109.42 133.74 Z M 108.92 134.61 L 108.42 135.48 C 107.99 136.22 108.25 137.18 109.00 137.61 C 109.75 138.04 110.70 137.78 111.13 137.03 L 111.62 136.16 C 112.05 135.42 111.79 134.46 111.05 134.03 C 110.30 133.60 109.34 133.86 108.92 134.61 Z M 108.42 135.48 L 107.93 136.34 C 107.50 137.08 107.76 138.04 108.51 138.47 C 109.26 138.89 110.21 138.63 110.64 137.88 L 111.13 137.03 C 111.56 136.28 111.30 135.32 110.55 134.90 C 109.80 134.47 108.85 134.73 108.42 135.48 Z M 107.93 136.34 L 107.45 137.19 C 107.02 137.94 107.28 138.89 108.03 139.32 C 108.78 139.74 109.73 139.48 110.16 138.73 L 110.64 137.88 C 111.07 137.13 110.81 136.18 110.06 135.75 C 109.31 135.33 108.35 135.59 107.93 136.34 Z M 107.44 137.19 L 106.95 138.06 C 106.52 138.81 106.79 139.76 107.54 140.19 C 108.29 140.62 109.24 140.35 109.66 139.60 L 110.16 138.73 C 110.59 137.98 110.32 137.03 109.57 136.60 C 108.82 136.18 107.87 136.44 107.44 137.19 Z M 106.95 138.06 L 106.45 138.93 C 106.03 139.68 106.29 140.64 107.04 141.06 C 107.79 141.49 108.74 141.23 109.17 140.48 L 109.66 139.60 C 110.09 138.85 109.83 137.90 109.08 137.47 C 108.33 137.05 107.37 137.31 106.95 138.06 Z M 106.45 138.93 L 105.96 139.80 C 105.53 140.55 105.80 141.50 106.54 141.93 C 107.29 142.35 108.25 142.09 108.67 141.34 L 109.17 140.48 C 109.59 139.73 109.33 138.78 108.58 138.35 C 107.84 137.92 106.88 138.18 106.45 138.93 Z M 105.96 139.79 L 105.47 140.66 C 105.04 141.40 105.30 142.36 106.05 142.79 C 106.79 143.22 107.75 142.96 108.18 142.21 L 108.67 141.35 C 109.10 140.60 108.84 139.65 108.09 139.22 C 107.35 138.79 106.39 139.05 105.96 139.79 Z M 105.47 140.65 L 104.97 141.51 C 104.54 142.26 104.79 143.21 105.54 143.64 C 106.29 144.08 107.24 143.82 107.67 143.08 L 108.17 142.22 C 108.61 141.47 108.35 140.52 107.61 140.08 C 106.86 139.65 105.90 139.90 105.47 140.65 Z M 104.98 141.50 L 104.47 142.36 C 104.03 143.11 104.28 144.06 105.03 144.50 C 105.77 144.94 106.73 144.69 107.16 143.95 L 107.67 143.09 C 108.11 142.34 107.86 141.39 107.11 140.95 C 106.37 140.51 105.41 140.76 104.98 141.50 Z M 104.48 142.36 L 103.95 143.23 C 103.51 143.97 103.75 144.93 104.49 145.37 C 105.23 145.82 106.19 145.57 106.63 144.83 L 107.16 143.96 C 107.60 143.22 107.36 142.26 106.62 141.82 C 105.88 141.37 104.92 141.61 104.48 142.36 Z M 103.96 143.22 L 103.42 144.10 C 102.98 144.84 103.21 145.80 103.95 146.25 C 104.69 146.69 105.65 146.46 106.09 145.72 L 106.63 144.84 C 107.08 144.10 106.84 143.14 106.10 142.70 C 105.37 142.25 104.41 142.49 103.96 143.22 Z M 103.43 144.10 L 102.89 144.97 C 102.44 145.70 102.67 146.66 103.41 147.12 C 104.14 147.57 105.10 147.34 105.56 146.60 L 106.09 145.73 C 106.54 144.99 106.31 144.03 105.58 143.58 C 104.84 143.13 103.88 143.36 103.43 144.10 Z M 102.90 144.96 L 102.37 145.82 C 101.91 146.55 102.14 147.51 102.87 147.97 C 103.61 148.42 104.57 148.20 105.02 147.46 L 105.55 146.61 C 106.01 145.87 105.78 144.91 105.05 144.46 C 104.31 144.00 103.35 144.23 102.90 144.96 Z M 102.37 145.82 L 101.85 146.65 C 101.39 147.38 101.62 148.34 102.35 148.80 C 103.08 149.26 104.04 149.03 104.50 148.30 L 105.02 147.47 C 105.48 146.74 105.25 145.77 104.52 145.32 C 103.79 144.86 102.83 145.08 102.37 145.82 Z M 101.85 146.65 L 101.35 147.45 C 100.89 148.18 101.11 149.15 101.84 149.60 C 102.57 150.06 103.53 149.84 103.99 149.11 L 104.50 148.31 C 104.95 147.57 104.73 146.61 104.00 146.15 C 103.27 145.70 102.31 145.92 101.85 146.65 Z M 101.35 147.45 L 100.79 148.34 C 100.33 149.07 100.55 150.03 101.28 150.49 C 102.01 150.95 102.97 150.73 103.43 150.00 L 103.99 149.11 C 104.45 148.38 104.23 147.42 103.50 146.96 C 102.77 146.50 101.81 146.72 101.35 147.45 Z M 100.79 148.33 L 100.24 149.21 C 99.78 149.93 99.99 150.90 100.72 151.36 C 101.45 151.82 102.42 151.60 102.88 150.88 L 103.43 150.00 C 103.89 149.28 103.67 148.31 102.95 147.85 C 102.22 147.39 101.25 147.60 100.79 148.33 Z M 100.24 149.20 L 99.71 150.04 C 99.24 150.76 99.45 151.73 100.18 152.19 C 100.91 152.66 101.87 152.45 102.34 151.72 L 102.87 150.88 C 103.34 150.16 103.13 149.19 102.40 148.73 C 101.67 148.26 100.71 148.47 100.24 149.20 Z M 99.71 150.02 L 99.19 150.83 C 98.72 151.56 98.92 152.52 99.64 153.00 C 100.36 153.47 101.33 153.26 101.80 152.54 L 102.33 151.73 C 102.80 151.01 102.60 150.04 101.87 149.57 C 101.15 149.10 100.19 149.30 99.71 150.02 Z M 99.20 150.82 L 98.67 151.61 C 98.19 152.33 98.38 153.30 99.10 153.78 C 99.82 154.26 100.79 154.06 101.27 153.35 L 101.79 152.55 C 102.27 151.84 102.08 150.87 101.36 150.39 C 100.64 149.91 99.67 150.10 99.20 150.82 Z M 98.68 151.60 L 98.12 152.42 C 97.63 153.13 97.81 154.10 98.52 154.59 C 99.24 155.07 100.21 154.89 100.69 154.18 L 101.26 153.36 C 101.74 152.65 101.56 151.68 100.85 151.19 C 100.14 150.70 99.16 150.89 98.68 151.60 Z M 98.13 152.40 L 97.55 153.22 C 97.06 153.93 97.23 154.90 97.94 155.40 C 98.64 155.89 99.62 155.72 100.11 155.02 L 100.68 154.20 C 101.18 153.49 101.01 152.52 100.30 152.02 C 99.60 151.53 98.62 151.70 98.13 152.40 Z M 97.56 153.21 L 96.98 154.03 C 96.48 154.73 96.64 155.70 97.34 156.20 C 98.04 156.71 99.02 156.54 99.52 155.84 L 100.10 155.03 C 100.60 154.33 100.44 153.35 99.74 152.85 C 99.04 152.35 98.06 152.51 97.56 153.21 Z M 96.99 154.02 L 96.40 154.83 C 95.89 155.52 96.05 156.50 96.74 157.01 C 97.44 157.51 98.42 157.36 98.93 156.66 L 99.51 155.85 C 100.02 155.15 99.86 154.18 99.17 153.67 C 98.47 153.16 97.49 153.32 96.99 154.02 Z M 96.40 154.82 L 95.81 155.62 C 95.30 156.32 95.45 157.30 96.15 157.81 C 96.84 158.32 97.82 158.17 98.33 157.47 L 98.92 156.67 C 99.43 155.97 99.28 155.00 98.59 154.48 C 97.89 153.97 96.91 154.12 96.40 154.82 Z M 95.82 155.62 L 95.21 156.44 C 94.70 157.13 94.84 158.11 95.54 158.62 C 96.23 159.13 97.21 158.99 97.72 158.29 L 98.33 157.48 C 98.84 156.78 98.69 155.81 98.00 155.29 C 97.31 154.78 96.33 154.93 95.82 155.62 Z M 95.22 156.43 L 94.61 157.24 C 94.10 157.93 94.24 158.90 94.93 159.42 C 95.62 159.94 96.59 159.80 97.11 159.11 L 97.72 158.30 C 98.23 157.61 98.09 156.63 97.40 156.11 C 96.71 155.60 95.73 155.74 95.22 156.43 Z M 94.62 157.23 L 94.02 158.02 C 93.49 158.71 93.63 159.69 94.31 160.21 C 95.00 160.73 95.98 160.60 96.50 159.91 L 97.11 159.12 C 97.63 158.43 97.49 157.45 96.81 156.93 C 96.12 156.41 95.14 156.54 94.62 157.23 Z M 94.02 158.01 L 93.42 158.79 C 92.89 159.47 93.02 160.45 93.70 160.98 C 94.38 161.51 95.36 161.38 95.89 160.70 L 96.49 159.92 C 97.02 159.24 96.90 158.26 96.21 157.73 C 95.53 157.20 94.55 157.33 94.02 158.01 Z M 93.43 158.78 L 92.81 159.57 C 92.27 160.24 92.38 161.22 93.06 161.76 C 93.74 162.29 94.72 162.18 95.25 161.50 L 95.88 160.72 C 96.41 160.04 96.30 159.06 95.62 158.52 C 94.95 157.99 93.97 158.10 93.43 158.78 Z M 92.82 159.55 L 92.17 160.35 C 91.63 161.02 91.73 162.00 92.40 162.54 C 93.07 163.08 94.06 162.98 94.60 162.31 L 95.24 161.52 C 95.78 160.85 95.68 159.86 95.01 159.32 C 94.34 158.78 93.36 158.88 92.82 159.55 Z M 92.18 160.34 L 91.54 161.11 C 91.00 161.78 91.09 162.76 91.76 163.31 C 92.42 163.86 93.41 163.76 93.95 163.10 L 94.59 162.32 C 95.14 161.66 95.04 160.67 94.38 160.12 C 93.71 159.57 92.73 159.67 92.18 160.34 Z M 91.55 161.10 L 90.92 161.86 C 90.37 162.52 90.46 163.51 91.12 164.06 C 91.78 164.61 92.77 164.52 93.32 163.86 L 93.95 163.10 C 94.50 162.44 94.41 161.45 93.75 160.90 C 93.08 160.35 92.10 160.44 91.55 161.10 Z M 90.92 161.86 L 90.29 162.61 C 89.74 163.27 89.83 164.26 90.49 164.81 C 91.15 165.36 92.14 165.27 92.69 164.61 L 93.32 163.86 C 93.87 163.20 93.78 162.21 93.12 161.66 C 92.46 161.11 91.47 161.20 90.92 161.86 Z M 90.29 162.61 L 89.64 163.40 C 89.09 164.06 89.18 165.04 89.84 165.59 C 90.51 166.15 91.49 166.06 92.04 165.39 L 92.69 164.61 C 93.24 163.95 93.15 162.96 92.49 162.41 C 91.83 161.86 90.84 161.95 90.29 162.61 Z M 89.64 163.39 L 89.00 164.16 C 88.45 164.82 88.54 165.81 89.20 166.36 C 89.86 166.91 90.84 166.82 91.40 166.16 L 92.04 165.39 C 92.59 164.73 92.50 163.75 91.84 163.20 C 91.18 162.64 90.20 162.73 89.64 163.39 Z M 89.01 164.15 L 88.37 164.91 C 87.81 165.57 87.89 166.55 88.55 167.11 C 89.21 167.67 90.20 167.58 90.75 166.93 L 91.39 166.17 C 91.95 165.51 91.87 164.53 91.21 163.97 C 90.55 163.41 89.56 163.50 89.01 164.15 Z M 88.38 164.90 L 87.74 165.65 C 87.17 166.30 87.25 167.29 87.90 167.85 C 88.55 168.41 89.54 168.34 90.10 167.68 L 90.74 166.94 C 91.31 166.28 91.23 165.30 90.58 164.73 C 89.93 164.17 88.94 164.25 88.38 164.90 Z M 87.75 165.63 L 87.10 166.37 C 86.53 167.02 86.59 168.01 87.24 168.58 C 87.88 169.15 88.87 169.08 89.44 168.44 L 90.09 167.69 C 90.66 167.05 90.60 166.06 89.95 165.49 C 89.30 164.92 88.32 164.99 87.75 165.63 Z M 87.10 166.36 L 86.44 167.10 C 85.87 167.75 85.92 168.73 86.57 169.31 C 87.21 169.88 88.19 169.83 88.77 169.19 L 89.43 168.45 C 90.01 167.80 89.95 166.82 89.31 166.24 C 88.67 165.67 87.68 165.72 87.10 166.36 Z M 86.45 167.10 L 85.77 167.84 C 85.20 168.48 85.24 169.47 85.88 170.05 C 86.52 170.63 87.51 170.58 88.09 169.94 L 88.76 169.19 C 89.34 168.55 89.29 167.57 88.65 166.99 C 88.01 166.41 87.03 166.46 86.45 167.10 Z M 85.78 167.84 L 85.09 168.59 C 84.51 169.23 84.55 170.22 85.19 170.80 C 85.83 171.38 86.82 171.33 87.40 170.70 L 88.09 169.94 C 88.67 169.30 88.62 168.32 87.98 167.74 C 87.35 167.16 86.36 167.20 85.78 167.84 Z M 85.09 168.60 L 84.39 169.36 C 83.81 170.00 83.86 170.99 84.50 171.57 C 85.14 172.15 86.12 172.10 86.70 171.46 L 87.40 170.70 C 87.98 170.06 87.93 169.07 87.29 168.49 C 86.65 167.91 85.67 167.96 85.09 168.60 Z M 84.38 169.37 L 83.70 170.14 C 83.13 170.79 83.19 171.77 83.83 172.34 C 84.47 172.92 85.46 172.86 86.03 172.21 L 86.72 171.45 C 87.29 170.80 87.23 169.82 86.58 169.24 C 85.94 168.67 84.95 168.73 84.38 169.37 Z M 83.68 170.17 L 83.03 170.93 C 82.48 171.58 82.56 172.57 83.22 173.13 C 83.88 173.68 84.86 173.60 85.42 172.94 L 86.06 172.19 C 86.62 171.53 86.53 170.54 85.88 169.99 C 85.22 169.43 84.23 169.51 83.68 170.17 Z M 82.99 170.97 L 82.39 171.75 C 81.86 172.43 81.99 173.41 82.67 173.94 C 83.35 174.47 84.33 174.35 84.86 173.67 L 85.46 172.89 C 85.99 172.21 85.87 171.23 85.19 170.70 C 84.51 170.17 83.52 170.29 82.99 170.97 Z M 82.31 171.86 L 81.68 172.85 C 81.21 173.58 81.42 174.54 82.15 175.01 C 82.88 175.47 83.84 175.26 84.31 174.54 L 84.94 173.55 C 85.40 172.82 85.19 171.86 84.47 171.39 C 83.74 170.93 82.78 171.14 82.31 171.86 Z M 81.52 173.19 L 81.21 174.06 C 80.93 174.88 81.37 175.77 82.18 176.05 C 83.00 176.33 83.89 175.90 84.17 175.08 L 84.47 174.20 C 84.75 173.38 84.32 172.50 83.50 172.22 C 82.68 171.94 81.80 172.37 81.52 173.19 Z M 81.16 174.89 L 81.31 175.62 C 81.49 176.47 82.32 177.01 83.16 176.83 C 84.00 176.66 84.55 175.83 84.37 174.98 L 84.22 174.25 C 84.04 173.41 83.22 172.87 82.37 173.04 C 81.53 173.22 80.99 174.05 81.16 174.89 Z M 81.77 176.44 L 82.38 177.01 C 83.01 177.61 84.00 177.58 84.59 176.95 C 85.18 176.32 85.15 175.34 84.52 174.74 L 83.91 174.17 C 83.29 173.58 82.30 173.60 81.71 174.23 C 81.11 174.86 81.14 175.85 81.77 176.44 Z M 82.73 177.26 L 83.68 177.76 C 84.44 178.16 85.39 177.87 85.79 177.10 C 86.19 176.34 85.89 175.39 85.13 174.99 L 84.18 174.50 C 83.41 174.10 82.47 174.39 82.07 175.15 C 81.67 175.92 81.96 176.86 82.73 177.26 Z M 83.81 177.82 L 84.82 178.24 C 85.62 178.57 86.53 178.19 86.86 177.39 C 87.19 176.60 86.81 175.68 86.01 175.35 L 85.00 174.93 C 84.20 174.60 83.29 174.98 82.96 175.78 C 82.63 176.58 83.01 177.49 83.81 177.82 Z M 84.84 178.25 L 85.70 178.59 C 86.50 178.90 87.41 178.51 87.73 177.71 C 88.04 176.90 87.65 176.00 86.85 175.68 L 85.99 175.34 C 85.19 175.03 84.28 175.42 83.96 176.22 C 83.65 177.03 84.04 177.93 84.84 178.25 Z M 85.70 178.59 L 86.61 178.95 C 87.41 179.26 88.32 178.87 88.64 178.07 C 88.95 177.27 88.56 176.36 87.76 176.04 L 86.85 175.68 C 86.05 175.37 85.14 175.76 84.82 176.56 C 84.50 177.36 84.90 178.27 85.70 178.59 Z M 86.59 178.94 L 87.56 179.34 C 88.36 179.66 89.27 179.28 89.60 178.48 C 89.92 177.69 89.54 176.77 88.75 176.45 L 87.78 176.05 C 86.98 175.72 86.07 176.10 85.74 176.90 C 85.41 177.70 85.80 178.61 86.59 178.94 Z M 87.53 179.32 L 88.54 179.76 C 89.33 180.10 90.25 179.74 90.59 178.95 C 90.93 178.16 90.57 177.24 89.78 176.90 L 88.78 176.46 C 87.99 176.12 87.07 176.48 86.72 177.27 C 86.38 178.06 86.74 178.98 87.53 179.32 Z M 88.50 179.75 L 89.43 180.18 C 90.21 180.54 91.14 180.20 91.50 179.42 C 91.86 178.64 91.52 177.71 90.74 177.34 L 89.82 176.91 C 89.03 176.55 88.11 176.89 87.74 177.67 C 87.38 178.45 87.72 179.38 88.50 179.75 Z M 89.40 180.16 L 90.33 180.62 C 91.11 181.00 92.04 180.68 92.42 179.90 C 92.80 179.13 92.48 178.19 91.71 177.82 L 90.77 177.36 C 90.00 176.98 89.06 177.30 88.68 178.07 C 88.30 178.85 88.62 179.78 89.40 180.16 Z M 90.31 180.61 L 91.22 181.07 C 91.99 181.47 92.93 181.17 93.32 180.40 C 93.71 179.63 93.41 178.69 92.64 178.30 L 91.73 177.83 C 90.96 177.43 90.02 177.74 89.63 178.50 C 89.24 179.27 89.54 180.21 90.31 180.61 Z M 91.19 181.06 L 92.06 181.52 C 92.82 181.93 93.76 181.65 94.17 180.89 C 94.58 180.13 94.29 179.18 93.53 178.77 L 92.67 178.31 C 91.91 177.90 90.96 178.19 90.56 178.95 C 90.15 179.71 90.43 180.65 91.19 181.06 Z M 92.03 181.51 L 92.88 181.99 C 93.63 182.41 94.58 182.15 95.01 181.40 C 95.43 180.65 95.17 179.69 94.41 179.27 L 93.56 178.79 C 92.81 178.37 91.86 178.63 91.44 179.38 C 91.01 180.13 91.28 181.09 92.03 181.51 Z M 92.84 181.97 L 93.78 182.54 C 94.52 182.98 95.48 182.75 95.93 182.01 C 96.37 181.27 96.14 180.31 95.40 179.86 L 94.45 179.29 C 93.72 178.85 92.76 179.08 92.31 179.82 C 91.86 180.56 92.10 181.52 92.84 181.97 Z M 93.74 182.51 L 94.56 183.04 C 95.28 183.51 96.24 183.31 96.72 182.58 C 97.19 181.86 96.98 180.89 96.26 180.42 L 95.44 179.89 C 94.72 179.42 93.75 179.63 93.28 180.35 C 92.81 181.07 93.02 182.04 93.74 182.51 Z M 94.52 183.02 L 95.26 183.53 C 95.97 184.02 96.95 183.84 97.44 183.13 C 97.93 182.43 97.75 181.45 97.04 180.96 L 96.30 180.45 C 95.59 179.96 94.61 180.13 94.12 180.84 C 93.63 181.55 93.81 182.53 94.52 183.02 Z M 95.24 183.52 L 96.02 184.07 C 96.72 184.58 97.70 184.41 98.20 183.71 C 98.70 183.01 98.54 182.04 97.84 181.54 L 97.06 180.98 C 96.36 180.48 95.38 180.64 94.88 181.34 C 94.38 182.04 94.54 183.01 95.24 183.52 Z M 96.00 184.06 L 96.80 184.65 C 97.49 185.16 98.47 185.02 98.98 184.32 C 99.50 183.63 99.35 182.65 98.66 182.14 L 97.86 181.55 C 97.17 181.04 96.19 181.18 95.68 181.88 C 95.16 182.57 95.31 183.55 96.00 184.06 Z M 96.77 184.63 L 97.57 185.25 C 98.25 185.78 99.23 185.65 99.76 184.97 C 100.29 184.29 100.17 183.31 99.48 182.78 L 98.69 182.16 C 98.00 181.63 97.02 181.76 96.50 182.44 C 95.97 183.12 96.09 184.10 96.77 184.63 Z M 97.54 185.22 L 98.31 185.85 C 98.98 186.40 99.96 186.30 100.51 185.64 C 101.05 184.97 100.95 183.98 100.29 183.44 L 99.52 182.81 C 98.85 182.26 97.87 182.36 97.32 183.02 C 96.77 183.69 96.87 184.67 97.54 185.22 Z M 98.28 185.83 L 99.03 186.48 C 99.68 187.04 100.66 186.97 101.23 186.32 C 101.79 185.67 101.72 184.68 101.07 184.12 L 100.32 183.47 C 99.67 182.90 98.68 182.97 98.12 183.62 C 97.55 184.27 97.62 185.26 98.28 185.83 Z M 99.00 186.45 L 99.74 187.13 C 100.38 187.71 101.36 187.66 101.94 187.03 C 102.53 186.39 102.48 185.40 101.84 184.82 L 101.10 184.14 C 100.46 183.56 99.48 183.61 98.90 184.24 C 98.31 184.88 98.36 185.87 99.00 186.45 Z M 99.71 187.10 L 100.44 187.80 C 101.06 188.39 102.05 188.37 102.64 187.75 C 103.24 187.13 103.22 186.14 102.60 185.55 L 101.87 184.85 C 101.25 184.25 100.26 184.27 99.67 184.89 C 99.07 185.52 99.09 186.50 99.71 187.10 Z M 100.41 187.77 L 101.09 188.46 C 101.70 189.07 102.69 189.07 103.30 188.47 C 103.91 187.86 103.91 186.87 103.31 186.26 L 102.62 185.57 C 102.02 184.96 101.03 184.96 100.42 185.56 C 99.80 186.17 99.80 187.16 100.41 187.77 Z M 101.07 188.43 L 101.75 189.15 C 102.35 189.78 103.33 189.80 103.96 189.21 C 104.58 188.62 104.61 187.63 104.01 187.00 L 103.33 186.28 C 102.74 185.66 101.75 185.63 101.12 186.23 C 100.50 186.82 100.47 187.81 101.07 188.43 Z M 101.73 189.13 L 102.42 189.89 C 103.00 190.53 103.99 190.57 104.63 189.99 C 105.26 189.41 105.31 188.42 104.73 187.79 L 104.04 187.03 C 103.46 186.39 102.47 186.34 101.83 186.92 C 101.19 187.51 101.15 188.49 101.73 189.13 Z M 102.40 189.87 L 103.07 190.62 C 103.64 191.27 104.62 191.33 105.27 190.77 C 105.92 190.20 105.98 189.21 105.41 188.56 L 104.75 187.81 C 104.18 187.16 103.19 187.10 102.54 187.67 C 101.90 188.23 101.83 189.22 102.40 189.87 Z M 103.05 190.61 L 103.70 191.37 C 104.26 192.02 105.25 192.10 105.90 191.54 C 106.56 190.98 106.64 190.00 106.08 189.34 L 105.43 188.58 C 104.87 187.92 103.88 187.85 103.23 188.40 C 102.57 188.96 102.49 189.95 103.05 190.61 Z M 103.69 191.35 L 104.33 192.13 C 104.88 192.80 105.87 192.89 106.53 192.34 C 107.19 191.79 107.29 190.81 106.74 190.14 L 106.09 189.36 C 105.54 188.70 104.56 188.60 103.89 189.15 C 103.23 189.70 103.14 190.69 103.69 191.35 Z M 104.32 192.11 L 104.94 192.90 C 105.48 193.57 106.47 193.68 107.14 193.14 C 107.81 192.60 107.92 191.61 107.38 190.94 L 106.75 190.16 C 106.21 189.49 105.23 189.38 104.56 189.92 C 103.89 190.46 103.78 191.44 104.32 192.11 Z M 104.93 192.88 L 105.55 193.68 C 106.08 194.36 107.06 194.48 107.74 193.96 C 108.42 193.43 108.55 192.45 108.02 191.77 L 107.40 190.96 C 106.87 190.28 105.89 190.16 105.21 190.68 C 104.52 191.21 104.40 192.19 104.93 192.88 Z M 105.54 193.66 L 106.14 194.46 C 106.66 195.15 107.64 195.29 108.33 194.78 C 109.02 194.26 109.16 193.28 108.64 192.59 L 108.04 191.79 C 107.52 191.10 106.54 190.96 105.85 191.47 C 105.16 191.99 105.02 192.97 105.54 193.66 Z M 106.13 194.45 L 106.71 195.25 C 107.22 195.94 108.20 196.09 108.89 195.59 C 109.59 195.08 109.74 194.10 109.23 193.40 L 108.65 192.61 C 108.14 191.91 107.17 191.76 106.47 192.27 C 105.77 192.77 105.62 193.75 106.13 194.45 Z M 106.70 195.23 L 107.28 196.03 C 107.78 196.73 108.75 196.90 109.46 196.39 C 110.16 195.89 110.32 194.92 109.82 194.22 L 109.24 193.42 C 108.74 192.71 107.77 192.55 107.06 193.06 C 106.36 193.56 106.20 194.53 106.70 195.23 Z M 107.27 196.03 L 107.84 196.83 C 108.34 197.53 109.31 197.70 110.01 197.20 C 110.72 196.70 110.89 195.73 110.39 195.03 L 109.82 194.22 C 109.32 193.52 108.35 193.35 107.65 193.85 C 106.94 194.35 106.77 195.32 107.27 196.03 Z M 107.83 196.82 L 108.40 197.64 C 108.90 198.34 109.87 198.51 110.58 198.02 C 111.28 197.53 111.46 196.55 110.96 195.85 L 110.39 195.03 C 109.90 194.33 108.92 194.15 108.22 194.65 C 107.51 195.14 107.34 196.12 107.83 196.82 Z M 108.40 197.63 L 108.97 198.46 C 109.46 199.17 110.44 199.34 111.15 198.85 C 111.85 198.36 112.03 197.39 111.54 196.68 L 110.97 195.85 C 110.47 195.14 109.50 194.97 108.79 195.46 C 108.08 195.95 107.91 196.92 108.40 197.63 Z M 108.97 198.45 L 109.54 199.29 C 110.03 200.00 111.00 200.18 111.72 199.69 C 112.43 199.20 112.60 198.23 112.12 197.52 L 111.54 196.68 C 111.05 195.97 110.08 195.79 109.37 196.28 C 108.66 196.77 108.48 197.74 108.97 198.45 Z M 109.54 199.28 L 110.10 200.10 C 110.59 200.81 111.56 200.99 112.27 200.51 C 112.98 200.02 113.16 199.05 112.68 198.34 L 112.12 197.52 C 111.63 196.81 110.66 196.63 109.95 197.11 C 109.24 197.60 109.05 198.57 109.54 199.28 Z M 110.10 200.10 L 110.66 200.92 C 111.15 201.64 112.12 201.82 112.83 201.33 C 113.54 200.85 113.73 199.88 113.24 199.16 L 112.68 198.34 C 112.19 197.63 111.22 197.44 110.51 197.93 C 109.80 198.41 109.61 199.38 110.10 200.10 Z M 110.66 200.92 L 111.23 201.76 C 111.71 202.47 112.68 202.65 113.40 202.17 C 114.11 201.68 114.30 200.71 113.81 200.00 L 113.24 199.17 C 112.76 198.45 111.79 198.27 111.07 198.75 C 110.36 199.24 110.18 200.21 110.66 200.92 Z M 111.23 201.76 L 111.79 202.59 C 112.28 203.30 113.25 203.49 113.96 203.00 C 114.68 202.52 114.86 201.54 114.38 200.83 L 113.81 200.00 C 113.33 199.29 112.35 199.10 111.64 199.59 C 110.93 200.07 110.74 201.04 111.23 201.76 Z M 111.79 202.59 L 112.35 203.41 C 112.84 204.12 113.81 204.30 114.52 203.82 C 115.23 203.33 115.42 202.36 114.93 201.65 L 114.38 200.83 C 113.89 200.12 112.92 199.93 112.21 200.42 C 111.49 200.90 111.31 201.88 111.79 202.59 Z M 112.35 203.41 L 112.92 204.23 C 113.40 204.94 114.38 205.12 115.09 204.64 C 115.80 204.15 115.98 203.18 115.49 202.47 L 114.93 201.65 C 114.44 200.93 113.47 200.75 112.76 201.24 C 112.05 201.73 111.87 202.70 112.35 203.41 Z M 112.92 204.24 L 113.49 205.06 C 113.98 205.77 114.96 205.95 115.67 205.46 C 116.37 204.97 116.55 204.00 116.06 203.29 L 115.49 202.46 C 115.00 201.75 114.03 201.58 113.32 202.07 C 112.61 202.56 112.43 203.53 112.92 204.24 Z M 113.50 205.07 L 114.07 205.89 C 114.57 206.60 115.54 206.77 116.25 206.27 C 116.95 205.78 117.12 204.80 116.63 204.10 L 116.05 203.28 C 115.56 202.57 114.59 202.40 113.88 202.90 C 113.17 203.39 113.00 204.37 113.50 205.07 Z M 114.08 205.90 L 114.64 206.68 C 115.14 207.38 116.12 207.55 116.82 207.05 C 117.52 206.54 117.68 205.57 117.18 204.87 L 116.62 204.09 C 116.12 203.38 115.15 203.22 114.44 203.72 C 113.74 204.22 113.58 205.20 114.08 205.90 Z M 114.65 206.69 L 115.23 207.49 C 115.74 208.19 116.71 208.34 117.41 207.83 C 118.11 207.32 118.26 206.35 117.75 205.65 L 117.17 204.86 C 116.66 204.16 115.69 204.01 114.99 204.51 C 114.29 205.02 114.14 206.00 114.65 206.69 Z M 115.24 207.50 L 115.84 208.31 C 116.35 209.01 117.33 209.15 118.02 208.64 C 118.72 208.12 118.86 207.14 118.35 206.45 L 117.74 205.64 C 117.23 204.95 116.25 204.80 115.56 205.32 C 114.87 205.83 114.72 206.81 115.24 207.50 Z M 115.85 208.33 L 116.48 209.16 C 117.00 209.85 117.98 209.98 118.67 209.46 C 119.36 208.94 119.49 207.96 118.97 207.27 L 118.34 206.44 C 117.82 205.75 116.84 205.62 116.15 206.14 C 115.46 206.66 115.33 207.64 115.85 208.33 Z M 116.49 209.17 L 117.10 209.96 C 117.63 210.65 118.61 210.77 119.29 210.24 C 119.97 209.72 120.10 208.74 119.57 208.05 L 118.96 207.26 C 118.43 206.58 117.45 206.46 116.77 206.98 C 116.09 207.51 115.96 208.49 116.49 209.17 Z M 117.11 209.97 L 117.74 210.77 C 118.27 211.44 119.25 211.56 119.93 211.03 C 120.61 210.49 120.72 209.51 120.19 208.84 L 119.56 208.04 C 119.03 207.36 118.05 207.25 117.37 207.78 C 116.69 208.32 116.58 209.30 117.11 209.97 Z M 117.74 210.78 L 118.38 211.57 C 118.92 212.24 119.90 212.35 120.58 211.81 C 121.25 211.27 121.35 210.29 120.81 209.62 L 120.18 208.82 C 119.64 208.15 118.66 208.04 117.98 208.58 C 117.31 209.12 117.20 210.11 117.74 210.78 Z M 118.39 211.58 L 119.03 212.36 C 119.57 213.03 120.56 213.12 121.22 212.58 C 121.89 212.03 121.99 211.05 121.44 210.38 L 120.80 209.60 C 120.26 208.94 119.27 208.84 118.61 209.39 C 117.94 209.93 117.84 210.92 118.39 211.58 Z M 119.04 212.37 L 119.67 213.13 C 120.23 213.79 121.21 213.87 121.87 213.32 C 122.53 212.77 122.62 211.78 122.06 211.12 L 121.43 210.36 C 120.88 209.70 119.89 209.62 119.23 210.17 C 118.57 210.73 118.48 211.71 119.04 212.37 Z M 119.69 213.15 L 120.38 213.94 C 120.94 214.59 121.92 214.66 122.58 214.10 C 123.23 213.54 123.30 212.55 122.74 211.90 L 122.05 211.10 C 121.49 210.45 120.50 210.38 119.85 210.94 C 119.20 211.51 119.12 212.49 119.69 213.15 Z M 120.39 213.96 L 121.06 214.71 C 121.64 215.36 122.63 215.41 123.27 214.84 C 123.91 214.26 123.97 213.28 123.39 212.63 L 122.72 211.88 C 122.15 211.24 121.16 211.18 120.52 211.76 C 119.87 212.33 119.82 213.32 120.39 213.96 Z M 121.08 214.73 L 121.75 215.45 C 122.33 216.08 123.32 216.12 123.95 215.54 C 124.59 214.95 124.63 213.97 124.04 213.33 L 123.38 212.61 C 122.79 211.98 121.80 211.94 121.17 212.53 C 120.54 213.11 120.50 214.10 121.08 214.73 Z M 121.76 215.47 L 122.43 216.17 C 123.02 216.79 124.01 216.81 124.64 216.22 C 125.26 215.62 125.28 214.63 124.69 214.01 L 124.02 213.31 C 123.43 212.69 122.44 212.67 121.82 213.26 C 121.19 213.86 121.17 214.85 121.76 215.47 Z M 122.45 216.18 L 123.15 216.89 C 123.75 217.51 124.74 217.51 125.35 216.91 C 125.97 216.30 125.97 215.31 125.37 214.70 L 124.67 213.99 C 124.06 213.38 123.07 213.37 122.46 213.98 C 121.85 214.58 121.84 215.57 122.45 216.18 Z M 123.17 216.92 L 123.89 217.61 C 124.51 218.21 125.49 218.20 126.10 217.58 C 126.70 216.96 126.68 215.97 126.06 215.37 L 125.35 214.68 C 124.73 214.07 123.74 214.09 123.14 214.71 C 122.54 215.33 122.55 216.31 123.17 216.92 Z M 123.92 217.64 L 124.65 218.32 C 125.28 218.90 126.27 218.86 126.86 218.23 C 127.44 217.60 127.40 216.61 126.77 216.02 L 126.03 215.35 C 125.40 214.76 124.41 214.80 123.83 215.43 C 123.24 216.07 123.28 217.05 123.92 217.64 Z M 124.68 218.35 L 125.44 219.00 C 126.09 219.57 127.07 219.50 127.64 218.85 C 128.20 218.20 128.14 217.21 127.49 216.65 L 126.73 215.99 C 126.08 215.43 125.10 215.49 124.53 216.14 C 123.96 216.79 124.03 217.78 124.68 218.35 Z M 125.47 219.04 L 126.25 219.67 C 126.92 220.22 127.91 220.12 128.45 219.45 C 129.00 218.78 128.89 217.79 128.23 217.25 L 127.45 216.61 C 126.78 216.07 125.80 216.17 125.25 216.84 C 124.71 217.51 124.81 218.49 125.47 219.04 Z M 126.29 219.70 L 127.09 220.31 C 127.78 220.84 128.76 220.70 129.28 220.02 C 129.81 219.33 129.67 218.35 128.99 217.83 L 128.19 217.22 C 127.50 216.70 126.52 216.83 126.00 217.51 C 125.48 218.20 125.61 219.18 126.29 219.70 Z M 127.13 220.34 L 127.95 220.92 C 128.65 221.42 129.62 221.26 130.13 220.56 C 130.63 219.86 130.47 218.88 129.76 218.38 L 128.95 217.80 C 128.25 217.30 127.27 217.46 126.77 218.16 C 126.27 218.86 126.43 219.84 127.13 220.34 Z M 127.99 220.95 L 128.81 221.50 C 129.52 221.98 130.49 221.79 130.97 221.07 C 131.46 220.36 131.26 219.39 130.55 218.91 L 129.73 218.36 C 129.01 217.88 128.04 218.07 127.56 218.78 C 127.08 219.50 127.27 220.47 127.99 220.95 Z M 128.85 221.53 L 129.69 222.06 C 130.42 222.52 131.39 222.30 131.85 221.57 C 132.31 220.84 132.09 219.88 131.36 219.42 L 130.51 218.88 C 129.78 218.42 128.82 218.64 128.36 219.37 C 127.90 220.10 128.12 221.07 128.85 221.53 Z M 129.74 222.09 L 130.60 222.59 C 131.34 223.03 132.30 222.78 132.74 222.04 C 133.17 221.29 132.92 220.34 132.18 219.90 L 131.32 219.39 C 130.57 218.96 129.62 219.21 129.18 219.95 C 128.74 220.69 128.99 221.65 129.74 222.09 Z M 130.64 222.62 L 131.52 223.09 C 132.28 223.50 133.22 223.22 133.63 222.47 C 134.05 221.71 133.77 220.76 133.01 220.35 L 132.13 219.87 C 131.38 219.46 130.43 219.74 130.02 220.50 C 129.61 221.26 129.89 222.21 130.64 222.62 Z M 131.57 223.12 L 132.46 223.56 C 133.23 223.95 134.17 223.63 134.55 222.86 C 134.94 222.09 134.62 221.15 133.85 220.77 L 132.96 220.32 C 132.19 219.94 131.25 220.25 130.87 221.02 C 130.48 221.79 130.79 222.73 131.57 223.12 Z M 132.51 223.59 L 133.41 224.00 C 134.19 224.36 135.12 224.01 135.47 223.23 C 135.83 222.44 135.49 221.52 134.70 221.16 L 133.80 220.75 C 133.02 220.39 132.09 220.73 131.74 221.52 C 131.38 222.30 131.72 223.23 132.51 223.59 Z M 133.44 224.01 L 134.36 224.40 C 135.15 224.74 136.07 224.37 136.41 223.58 C 136.75 222.79 136.38 221.87 135.58 221.53 L 134.67 221.14 C 133.87 220.80 132.96 221.17 132.62 221.97 C 132.28 222.76 132.65 223.68 133.44 224.01 Z M 134.39 224.41 L 135.32 224.79 C 136.12 225.12 137.03 224.73 137.35 223.93 C 137.67 223.13 137.29 222.22 136.49 221.90 L 135.56 221.52 C 134.76 221.20 133.85 221.58 133.53 222.38 C 133.20 223.18 133.59 224.09 134.39 224.41 Z M 135.33 224.80 L 136.27 225.17 C 137.07 225.48 137.98 225.09 138.29 224.29 C 138.61 223.49 138.22 222.58 137.41 222.26 L 136.48 221.89 C 135.68 221.58 134.77 221.97 134.45 222.77 C 134.13 223.57 134.53 224.48 135.33 224.80 Z M 136.27 225.17 L 136.35 225.20 C 137.15 225.51 138.06 225.12 138.37 224.32 C 138.69 223.51 138.29 222.61 137.49 222.29 L 137.41 222.26 C 136.61 221.95 135.70 222.34 135.39 223.15 C 135.07 223.95 135.47 224.85 136.27 225.17 Z"
      fill="black"
      fill-rule="nonzero" /><path d="M 194.38 107.45 L 193.38 107.60 C 192.52 107.72 191.93 108.51 192.06 109.37 C 192.18 110.22 192.98 110.81 193.83 110.68 L 194.83 110.54 C 195.69 110.41 196.28 109.62 196.15 108.77 C 196.03 107.92 195.24 107.32 194.38 107.45 Z M 193.35 107.60 L 192.35 107.76 C 191.50 107.90 190.93 108.70 191.07 109.55 C 191.20 110.41 192.01 110.98 192.86 110.84 L 193.85 110.68 C 194.71 110.54 195.28 109.74 195.14 108.89 C 195.01 108.04 194.20 107.46 193.35 107.60 Z M 192.30 107.77 L 191.32 107.97 C 190.48 108.14 189.93 108.96 190.09 109.80 C 190.26 110.65 191.08 111.20 191.93 111.03 L 192.91 110.83 C 193.76 110.67 194.31 109.84 194.14 109.00 C 193.97 108.15 193.15 107.60 192.30 107.77 Z M 191.24 107.99 L 190.28 108.23 C 189.45 108.44 188.94 109.29 189.16 110.13 C 189.37 110.96 190.22 111.47 191.06 111.25 L 192.01 111.01 C 192.85 110.80 193.35 109.95 193.14 109.11 C 192.93 108.28 192.08 107.77 191.24 107.99 Z M 190.18 108.26 L 189.27 108.56 C 188.45 108.83 188.01 109.72 188.28 110.54 C 188.55 111.35 189.44 111.80 190.26 111.52 L 191.16 111.22 C 191.98 110.95 192.42 110.07 192.15 109.25 C 191.88 108.43 190.99 107.99 190.18 108.26 Z M 189.15 108.61 L 188.30 108.97 C 187.51 109.31 187.14 110.22 187.47 111.02 C 187.81 111.81 188.73 112.18 189.52 111.84 L 190.37 111.48 C 191.17 111.14 191.54 110.23 191.20 109.43 C 190.86 108.64 189.95 108.27 189.15 108.61 Z M 188.19 109.02 L 187.35 109.46 C 186.58 109.85 186.28 110.80 186.68 111.56 C 187.08 112.33 188.02 112.63 188.78 112.23 L 189.63 111.79 C 190.39 111.40 190.69 110.45 190.30 109.69 C 189.90 108.92 188.96 108.62 188.19 109.02 Z M 187.26 109.51 L 186.40 110.03 C 185.66 110.47 185.42 111.43 185.87 112.17 C 186.32 112.91 187.28 113.15 188.01 112.70 L 188.87 112.18 C 189.61 111.73 189.85 110.77 189.40 110.04 C 188.96 109.30 188.00 109.06 187.26 109.51 Z M 186.33 110.07 L 185.44 110.68 C 184.72 111.16 184.54 112.13 185.02 112.85 C 185.51 113.56 186.48 113.75 187.19 113.26 L 188.08 112.65 C 188.80 112.17 188.98 111.20 188.50 110.49 C 188.01 109.77 187.04 109.59 186.33 110.07 Z M 185.39 110.71 L 184.53 111.34 C 183.84 111.86 183.69 112.83 184.20 113.53 C 184.72 114.22 185.69 114.37 186.39 113.86 L 187.24 113.23 C 187.94 112.71 188.08 111.74 187.57 111.04 C 187.06 110.35 186.08 110.20 185.39 110.71 Z M 184.50 111.37 L 183.69 112.00 C 183.01 112.53 182.89 113.51 183.42 114.19 C 183.95 114.87 184.93 114.99 185.61 114.46 L 186.42 113.83 C 187.10 113.30 187.22 112.32 186.69 111.64 C 186.16 110.96 185.18 110.84 184.50 111.37 Z M 183.67 112.02 L 182.85 112.68 C 182.18 113.22 182.08 114.20 182.62 114.87 C 183.16 115.54 184.15 115.65 184.82 115.10 L 185.63 114.44 C 186.30 113.90 186.41 112.92 185.87 112.25 C 185.32 111.58 184.34 111.47 183.67 112.02 Z M 182.84 112.69 L 182.03 113.36 C 181.37 113.91 181.28 114.90 181.84 115.56 C 182.39 116.22 183.37 116.31 184.03 115.76 L 184.83 115.09 C 185.50 114.54 185.59 113.55 185.03 112.89 C 184.48 112.23 183.50 112.14 182.84 112.69 Z M 182.02 113.37 L 181.26 114.02 C 180.60 114.59 180.53 115.57 181.09 116.23 C 181.65 116.88 182.63 116.96 183.29 116.40 L 184.05 115.74 C 184.70 115.18 184.78 114.20 184.22 113.54 C 183.66 112.89 182.67 112.81 182.02 113.37 Z M 181.24 114.04 L 180.54 114.65 C 179.89 115.22 179.83 116.20 180.40 116.85 C 180.96 117.50 181.95 117.57 182.60 117.00 L 183.30 116.39 C 183.95 115.82 184.01 114.83 183.45 114.18 C 182.88 113.53 181.89 113.47 181.24 114.04 Z M 180.53 114.66 L 179.70 115.41 C 179.06 115.99 179.00 116.98 179.58 117.62 C 180.16 118.26 181.14 118.31 181.79 117.73 L 182.62 116.99 C 183.26 116.41 183.31 115.42 182.73 114.78 C 182.15 114.14 181.17 114.09 180.53 114.66 Z M 179.68 115.43 L 178.90 116.16 C 178.26 116.75 178.23 117.74 178.82 118.37 C 179.41 119.00 180.40 119.03 181.03 118.44 L 181.81 117.71 C 182.44 117.12 182.47 116.14 181.88 115.51 C 181.29 114.88 180.31 114.84 179.68 115.43 Z M 178.87 116.18 L 178.21 116.82 C 177.59 117.42 177.58 118.41 178.18 119.03 C 178.78 119.65 179.77 119.66 180.39 119.06 L 181.05 118.42 C 181.67 117.82 181.68 116.83 181.08 116.21 C 180.48 115.59 179.49 115.58 178.87 116.18 Z M 178.20 116.84 L 177.59 117.44 C 176.98 118.05 176.98 119.04 177.58 119.65 C 178.19 120.26 179.18 120.26 179.79 119.65 L 180.40 119.05 C 181.01 118.44 181.01 117.45 180.41 116.84 C 179.80 116.23 178.81 116.23 178.20 116.84 Z M 177.59 117.44 L 176.92 118.12 C 176.31 118.73 176.31 119.71 176.92 120.32 C 177.53 120.93 178.52 120.93 179.13 120.32 L 179.80 119.65 C 180.41 119.04 180.40 118.05 179.79 117.44 C 179.18 116.83 178.20 116.83 177.59 117.44 Z M 176.91 118.12 L 176.22 118.82 C 175.61 119.43 175.61 120.42 176.22 121.03 C 176.83 121.63 177.82 121.63 178.43 121.02 L 179.13 120.32 C 179.74 119.71 179.73 118.72 179.12 118.11 C 178.51 117.50 177.52 117.51 176.91 118.12 Z M 176.21 118.82 L 175.49 119.56 C 174.89 120.17 174.89 121.16 175.51 121.76 C 176.12 122.37 177.11 122.36 177.71 121.75 L 178.44 121.02 C 179.04 120.40 179.03 119.41 178.42 118.81 C 177.81 118.20 176.82 118.21 176.21 118.82 Z M 175.48 119.56 L 174.79 120.28 C 174.19 120.90 174.20 121.88 174.82 122.49 C 175.43 123.09 176.42 123.07 177.02 122.46 L 177.72 121.74 C 178.32 121.12 178.31 120.13 177.69 119.53 C 177.07 118.93 176.09 118.94 175.48 119.56 Z M 174.78 120.28 L 174.10 120.99 C 173.51 121.61 173.52 122.59 174.15 123.19 C 174.77 123.79 175.75 123.77 176.35 123.15 L 177.03 122.45 C 177.63 121.83 177.61 120.84 176.99 120.24 C 176.37 119.64 175.38 119.66 174.78 120.28 Z M 174.10 120.99 L 173.41 121.72 C 172.81 122.34 172.83 123.33 173.45 123.92 C 174.08 124.52 175.07 124.50 175.66 123.87 L 176.36 123.15 C 176.95 122.53 176.93 121.54 176.31 120.94 C 175.69 120.35 174.70 120.37 174.10 120.99 Z M 173.41 121.72 L 172.69 122.46 C 172.10 123.09 172.12 124.08 172.74 124.67 C 173.37 125.27 174.36 125.24 174.95 124.62 L 175.66 123.87 C 176.26 123.25 176.24 122.26 175.61 121.67 C 174.99 121.07 174.00 121.09 173.41 121.72 Z M 172.69 122.46 L 172.00 123.19 C 171.41 123.81 171.43 124.80 172.05 125.39 C 172.68 125.99 173.67 125.97 174.26 125.34 L 174.95 124.62 C 175.55 124.00 175.52 123.01 174.90 122.41 C 174.28 121.82 173.29 121.84 172.69 122.46 Z M 172.00 123.19 L 171.32 123.90 C 170.72 124.53 170.75 125.51 171.37 126.11 C 171.99 126.71 172.98 126.68 173.58 126.06 L 174.26 125.34 C 174.86 124.72 174.83 123.73 174.21 123.13 C 173.59 122.54 172.60 122.56 172.00 123.19 Z M 171.32 123.90 L 170.62 124.63 C 170.03 125.25 170.05 126.24 170.67 126.84 C 171.30 127.43 172.29 127.41 172.88 126.79 L 173.58 126.06 C 174.17 125.44 174.15 124.45 173.53 123.85 C 172.90 123.26 171.91 123.28 171.32 123.90 Z M 170.62 124.63 L 169.92 125.36 C 169.33 125.98 169.35 126.97 169.97 127.57 C 170.60 128.16 171.59 128.14 172.18 127.52 L 172.88 126.79 C 173.48 126.16 173.45 125.17 172.83 124.58 C 172.21 123.98 171.22 124.01 170.62 124.63 Z M 169.92 125.36 L 169.24 126.08 C 168.64 126.70 168.66 127.69 169.29 128.29 C 169.91 128.88 170.90 128.86 171.49 128.24 L 172.18 127.52 C 172.78 126.89 172.76 125.91 172.13 125.31 C 171.51 124.71 170.52 124.74 169.92 125.36 Z M 169.24 126.08 L 168.55 126.79 C 167.96 127.42 167.98 128.41 168.61 129.00 C 169.23 129.60 170.22 129.57 170.81 128.95 L 171.49 128.24 C 172.09 127.61 172.07 126.63 171.44 126.03 C 170.82 125.44 169.83 125.46 169.24 126.08 Z M 168.55 126.80 L 167.87 127.52 C 167.27 128.14 167.30 129.13 167.92 129.72 C 168.55 130.32 169.53 130.29 170.13 129.67 L 170.81 128.95 C 171.41 128.32 171.38 127.34 170.76 126.74 C 170.14 126.15 169.15 126.17 168.55 126.80 Z M 167.86 127.52 L 167.17 128.25 C 166.58 128.88 166.60 129.87 167.23 130.46 C 167.86 131.05 168.84 131.02 169.44 130.40 L 170.13 129.67 C 170.72 129.04 170.70 128.05 170.07 127.46 C 169.45 126.87 168.46 126.89 167.86 127.52 Z M 167.17 128.26 L 166.47 129.00 C 165.88 129.63 165.91 130.62 166.53 131.21 C 167.16 131.80 168.15 131.77 168.74 131.14 L 169.44 130.39 C 170.03 129.77 170.00 128.78 169.37 128.19 C 168.75 127.60 167.76 127.63 167.17 128.26 Z M 166.46 129.00 L 165.77 129.75 C 165.18 130.38 165.21 131.37 165.85 131.95 C 166.48 132.54 167.46 132.51 168.05 131.88 L 168.74 131.14 C 169.33 130.51 169.30 129.52 168.67 128.93 C 168.04 128.34 167.05 128.37 166.46 129.00 Z M 165.77 129.75 L 165.07 130.49 C 164.49 131.13 164.52 132.11 165.15 132.70 C 165.79 133.29 166.77 133.25 167.36 132.62 L 168.05 131.88 C 168.64 131.24 168.61 130.26 167.97 129.67 C 167.34 129.08 166.35 129.12 165.77 129.75 Z M 165.07 130.50 L 164.39 131.23 C 163.80 131.86 163.84 132.85 164.47 133.44 C 165.10 134.02 166.09 133.99 166.68 133.36 L 167.36 132.62 C 167.95 131.99 167.91 131.00 167.28 130.41 C 166.65 129.83 165.66 129.86 165.07 130.50 Z M 164.39 131.23 L 163.73 131.94 C 163.14 132.57 163.18 133.56 163.81 134.15 C 164.44 134.73 165.43 134.70 166.01 134.07 L 166.68 133.36 C 167.26 132.73 167.23 131.74 166.60 131.15 C 165.97 130.56 164.98 130.60 164.39 131.23 Z M 163.73 131.94 L 163.01 132.71 C 162.42 133.34 162.45 134.33 163.08 134.92 C 163.71 135.50 164.70 135.47 165.29 134.84 L 166.01 134.07 C 166.60 133.44 166.57 132.45 165.94 131.86 C 165.31 131.28 164.32 131.31 163.73 131.94 Z M 163.01 132.71 L 162.31 133.46 C 161.72 134.08 161.75 135.07 162.38 135.66 C 163.01 136.25 163.99 136.22 164.58 135.59 L 165.29 134.84 C 165.88 134.22 165.85 133.23 165.22 132.64 C 164.59 132.05 163.60 132.08 163.01 132.71 Z M 162.31 133.46 L 161.64 134.17 C 161.05 134.80 161.09 135.78 161.71 136.37 C 162.34 136.96 163.33 136.93 163.92 136.30 L 164.59 135.59 C 165.18 134.96 165.14 133.97 164.51 133.38 C 163.88 132.80 162.90 132.83 162.31 133.46 Z M 161.64 134.17 L 161.00 134.85 C 160.42 135.49 160.46 136.47 161.09 137.06 C 161.72 137.65 162.71 137.61 163.29 136.98 L 163.93 136.29 C 164.51 135.66 164.48 134.67 163.84 134.09 C 163.21 133.50 162.22 133.54 161.64 134.17 Z M 160.99 134.87 L 160.37 135.56 C 159.79 136.19 159.83 137.18 160.47 137.76 C 161.11 138.34 162.10 138.29 162.68 137.66 L 163.30 136.97 C 163.88 136.33 163.84 135.34 163.20 134.76 C 162.56 134.18 161.57 134.23 160.99 134.87 Z M 160.35 135.57 L 159.72 136.29 C 159.15 136.94 159.21 137.92 159.86 138.49 C 160.50 139.06 161.49 139.00 162.06 138.36 L 162.69 137.64 C 163.26 136.99 163.20 136.01 162.55 135.44 C 161.91 134.87 160.92 134.93 160.35 135.57 Z M 159.70 136.31 L 159.03 137.10 C 158.47 137.76 158.55 138.74 159.21 139.30 C 159.86 139.86 160.85 139.78 161.41 139.12 L 162.08 138.34 C 162.64 137.68 162.56 136.69 161.90 136.14 C 161.24 135.58 160.26 135.66 159.70 136.31 Z M 159.01 137.12 L 158.35 137.92 C 157.81 138.58 157.90 139.57 158.57 140.12 C 159.23 140.66 160.22 140.57 160.76 139.90 L 161.42 139.10 C 161.97 138.44 161.88 137.45 161.21 136.91 C 160.54 136.36 159.56 136.45 159.01 137.12 Z M 158.34 137.94 L 157.75 138.68 C 157.21 139.35 157.31 140.33 157.99 140.87 C 158.66 141.41 159.64 141.30 160.18 140.63 L 160.78 139.89 C 161.32 139.21 161.21 138.23 160.54 137.69 C 159.86 137.15 158.88 137.26 158.34 137.94 Z M 157.73 138.69 L 157.11 139.49 C 156.58 140.17 156.70 141.15 157.38 141.68 C 158.06 142.21 159.04 142.09 159.57 141.41 L 160.19 140.62 C 160.72 139.94 160.60 138.95 159.92 138.42 C 159.24 137.89 158.26 138.01 157.73 138.69 Z M 157.10 139.50 L 156.47 140.33 C 155.95 141.02 156.09 142.00 156.77 142.52 C 157.46 143.04 158.44 142.90 158.96 142.22 L 159.59 141.39 C 160.11 140.70 159.97 139.73 159.29 139.20 C 158.60 138.68 157.62 138.82 157.10 139.50 Z M 156.46 140.35 L 155.85 141.19 C 155.34 141.88 155.49 142.86 156.18 143.37 C 156.88 143.88 157.85 143.73 158.36 143.03 L 158.98 142.20 C 159.49 141.50 159.34 140.52 158.64 140.01 C 157.95 139.50 156.97 139.65 156.46 140.35 Z M 155.83 141.21 L 155.21 142.09 C 154.72 142.79 154.89 143.77 155.59 144.26 C 156.30 144.76 157.27 144.59 157.77 143.88 L 158.38 143.01 C 158.88 142.30 158.71 141.33 158.00 140.83 C 157.30 140.34 156.32 140.51 155.83 141.21 Z M 155.19 142.12 L 154.60 143.01 C 154.12 143.73 154.32 144.70 155.04 145.17 C 155.76 145.65 156.72 145.45 157.20 144.74 L 157.79 143.85 C 158.27 143.13 158.07 142.16 157.36 141.68 C 156.64 141.21 155.67 141.40 155.19 142.12 Z M 154.57 143.05 L 154.04 143.91 C 153.59 144.65 153.81 145.61 154.54 146.06 C 155.28 146.52 156.24 146.29 156.69 145.56 L 157.23 144.69 C 157.68 143.96 157.46 143.00 156.72 142.55 C 155.99 142.09 155.03 142.32 154.57 143.05 Z M 154.01 143.96 L 153.54 144.79 C 153.11 145.54 153.38 146.50 154.13 146.92 C 154.87 147.35 155.83 147.09 156.25 146.34 L 156.72 145.51 C 157.15 144.76 156.89 143.80 156.14 143.38 C 155.39 142.95 154.43 143.21 154.01 143.96 Z M 153.50 144.86 L 153.09 145.67 C 152.70 146.44 153.01 147.38 153.78 147.77 C 154.55 148.16 155.49 147.85 155.88 147.08 L 156.29 146.27 C 156.68 145.50 156.37 144.56 155.60 144.17 C 154.83 143.78 153.89 144.09 153.50 144.86 Z M 153.05 145.76 L 152.67 146.66 C 152.33 147.45 152.70 148.37 153.50 148.71 C 154.29 149.04 155.21 148.67 155.54 147.88 L 155.92 146.98 C 156.26 146.19 155.89 145.27 155.10 144.94 C 154.30 144.60 153.39 144.97 153.05 145.76 Z M 152.62 146.79 L 152.33 147.69 C 152.06 148.51 152.51 149.39 153.33 149.66 C 154.15 149.93 155.03 149.48 155.30 148.66 L 155.59 147.75 C 155.86 146.93 155.41 146.05 154.59 145.78 C 153.77 145.52 152.89 145.97 152.62 146.79 Z M 152.29 147.83 L 152.07 148.81 C 151.88 149.65 152.40 150.49 153.24 150.68 C 154.08 150.87 154.92 150.34 155.11 149.50 L 155.33 148.52 C 155.53 147.68 155.00 146.84 154.16 146.65 C 153.32 146.46 152.48 146.99 152.29 147.83 Z M 152.05 148.92 L 151.89 149.93 C 151.76 150.79 152.35 151.58 153.20 151.71 C 154.05 151.84 154.85 151.25 154.98 150.40 L 155.13 149.39 C 155.26 148.54 154.68 147.74 153.82 147.61 C 152.97 147.48 152.18 148.07 152.05 148.92 Z M 151.88 150.01 L 151.79 150.92 C 151.70 151.78 152.32 152.55 153.18 152.63 C 154.04 152.72 154.80 152.10 154.89 151.24 L 154.99 150.33 C 155.08 149.47 154.45 148.70 153.60 148.61 C 152.74 148.53 151.97 149.15 151.88 150.01 Z M 151.78 150.97 L 151.72 151.96 C 151.66 152.82 152.30 153.56 153.16 153.62 C 154.02 153.68 154.77 153.03 154.83 152.17 L 154.90 151.19 C 154.96 150.33 154.31 149.58 153.45 149.52 C 152.59 149.46 151.84 150.11 151.78 150.97 Z M 151.71 152.00 L 151.67 153.03 C 151.64 153.90 152.31 154.62 153.17 154.66 C 154.03 154.69 154.76 154.02 154.79 153.16 L 154.83 152.13 C 154.87 151.27 154.20 150.54 153.33 150.51 C 152.47 150.47 151.75 151.14 151.71 152.00 Z M 151.67 153.08 L 151.66 154.14 C 151.65 155.00 152.34 155.71 153.20 155.71 C 154.06 155.72 154.77 155.03 154.78 154.17 L 154.79 153.11 C 154.80 152.25 154.11 151.54 153.25 151.54 C 152.39 151.53 151.68 152.22 151.67 153.08 Z M 151.66 154.18 L 151.68 155.25 C 151.69 156.11 152.40 156.80 153.26 156.78 C 154.13 156.77 154.81 156.06 154.80 155.20 L 154.78 154.13 C 154.77 153.27 154.06 152.58 153.19 152.59 C 152.33 152.61 151.64 153.32 151.66 154.18 Z M 151.68 155.29 L 151.73 156.36 C 151.77 157.22 152.50 157.89 153.36 157.85 C 154.22 157.81 154.89 157.08 154.85 156.22 L 154.80 155.15 C 154.76 154.29 154.03 153.62 153.17 153.66 C 152.30 153.70 151.64 154.43 151.68 155.29 Z M 151.73 156.41 L 151.81 157.45 C 151.88 158.31 152.63 158.95 153.49 158.89 C 154.35 158.82 154.99 158.07 154.92 157.21 L 154.84 156.17 C 154.78 155.31 154.03 154.67 153.17 154.73 C 152.31 154.80 151.66 155.55 151.73 156.41 Z M 151.82 157.51 L 151.93 158.50 C 152.02 159.36 152.80 159.98 153.65 159.88 C 154.51 159.78 155.13 159.01 155.03 158.15 L 154.92 157.16 C 154.82 156.30 154.05 155.68 153.19 155.78 C 152.34 155.88 151.72 156.65 151.82 157.51 Z M 151.94 158.56 L 152.08 159.50 C 152.21 160.36 153.00 160.94 153.86 160.81 C 154.71 160.68 155.30 159.89 155.17 159.03 L 155.02 158.09 C 154.89 157.24 154.10 156.66 153.24 156.79 C 152.39 156.92 151.81 157.71 151.94 158.56 Z M 152.09 159.58 L 152.28 160.50 C 152.45 161.34 153.27 161.89 154.12 161.72 C 154.96 161.54 155.51 160.72 155.34 159.88 L 155.15 158.96 C 154.98 158.11 154.16 157.57 153.31 157.74 C 152.47 157.91 151.92 158.73 152.09 159.58 Z M 152.30 160.59 L 152.58 161.61 C 152.80 162.45 153.66 162.94 154.49 162.71 C 155.32 162.49 155.82 161.63 155.59 160.80 L 155.31 159.78 C 155.09 158.95 154.23 158.45 153.40 158.68 C 152.57 158.90 152.08 159.76 152.30 160.59 Z M 152.61 161.71 L 152.93 162.64 C 153.21 163.46 154.09 163.89 154.91 163.61 C 155.73 163.33 156.16 162.45 155.88 161.63 L 155.56 160.70 C 155.28 159.88 154.39 159.45 153.58 159.73 C 152.76 160.01 152.33 160.90 152.61 161.71 Z M 152.95 162.71 L 153.30 163.60 C 153.62 164.40 154.53 164.80 155.33 164.48 C 156.13 164.16 156.53 163.25 156.21 162.45 L 155.85 161.56 C 155.54 160.76 154.63 160.37 153.83 160.69 C 153.03 161.00 152.63 161.91 152.95 162.71 Z M 153.32 163.63 L 153.69 164.51 C 154.02 165.31 154.94 165.68 155.73 165.34 C 156.53 165.01 156.90 164.09 156.56 163.30 L 156.20 162.42 C 155.86 161.63 154.95 161.25 154.15 161.59 C 153.36 161.92 152.98 162.84 153.32 163.63 Z M 153.69 164.52 L 154.06 165.40 C 154.40 166.19 155.32 166.56 156.11 166.22 C 156.91 165.88 157.28 164.97 156.94 164.17 L 156.56 163.29 C 156.22 162.50 155.31 162.13 154.51 162.47 C 153.72 162.81 153.35 163.72 153.69 164.52 Z M 154.07 165.40 L 154.46 166.32 C 154.80 167.11 155.72 167.47 156.51 167.13 C 157.30 166.79 157.67 165.87 157.33 165.08 L 156.93 164.17 C 156.59 163.37 155.67 163.01 154.88 163.35 C 154.09 163.69 153.73 164.61 154.07 165.40 Z M 154.46 166.32 L 154.88 167.27 C 155.23 168.06 156.15 168.42 156.94 168.07 C 157.73 167.72 158.08 166.80 157.74 166.01 L 157.32 165.07 C 156.98 164.28 156.06 163.92 155.27 164.27 C 154.48 164.61 154.12 165.53 154.46 166.32 Z M 154.88 167.28 L 155.30 168.21 C 155.66 169.00 156.58 169.35 157.37 169.00 C 158.15 168.65 158.51 167.73 158.15 166.94 L 157.73 166.00 C 157.38 165.22 156.46 164.86 155.67 165.22 C 154.88 165.57 154.53 166.49 154.88 167.28 Z M 155.31 168.23 L 155.71 169.10 C 156.06 169.88 156.99 170.22 157.78 169.87 C 158.56 169.51 158.90 168.58 158.55 167.80 L 158.15 166.93 C 157.79 166.14 156.86 165.80 156.08 166.16 C 155.29 166.52 154.95 167.44 155.31 168.23 Z M 155.71 169.11 L 156.13 170.00 C 156.49 170.78 157.42 171.12 158.21 170.75 C 158.99 170.39 159.32 169.46 158.96 168.68 L 158.54 167.78 C 158.17 167.00 157.24 166.67 156.46 167.03 C 155.68 167.40 155.35 168.33 155.71 169.11 Z M 156.14 170.01 L 156.57 170.93 C 156.95 171.71 157.88 172.03 158.66 171.66 C 159.44 171.29 159.76 170.35 159.39 169.58 L 158.95 168.66 C 158.58 167.89 157.64 167.56 156.87 167.93 C 156.09 168.30 155.76 169.24 156.14 170.01 Z M 156.58 170.94 L 157.04 171.88 C 157.43 172.65 158.36 172.97 159.13 172.59 C 159.91 172.20 160.22 171.27 159.84 170.49 L 159.38 169.56 C 159.00 168.79 158.06 168.47 157.29 168.85 C 156.52 169.23 156.20 170.17 156.58 170.94 Z M 157.05 171.89 L 157.50 172.77 C 157.89 173.54 158.83 173.85 159.60 173.46 C 160.37 173.07 160.67 172.13 160.28 171.36 L 159.83 170.48 C 159.44 169.71 158.50 169.40 157.74 169.79 C 156.97 170.18 156.66 171.12 157.05 171.89 Z M 157.51 172.79 L 157.95 173.64 C 158.35 174.40 159.29 174.70 160.06 174.30 C 160.82 173.90 161.12 172.96 160.72 172.19 L 160.27 171.34 C 159.87 170.58 158.93 170.28 158.17 170.68 C 157.40 171.08 157.11 172.02 157.51 172.79 Z M 157.96 173.65 L 158.42 174.52 C 158.83 175.28 159.78 175.57 160.54 175.16 C 161.30 174.75 161.58 173.80 161.18 173.04 L 160.71 172.18 C 160.30 171.42 159.36 171.13 158.60 171.54 C 157.84 171.95 157.55 172.89 157.96 173.65 Z M 158.43 174.53 L 158.92 175.42 C 159.33 176.17 160.28 176.45 161.03 176.04 C 161.79 175.62 162.07 174.67 161.65 173.92 L 161.17 173.03 C 160.75 172.28 159.81 172.00 159.05 172.41 C 158.29 172.83 158.02 173.78 158.43 174.53 Z M 158.92 175.43 L 159.43 176.34 C 159.85 177.09 160.80 177.36 161.55 176.94 C 162.31 176.51 162.57 175.56 162.15 174.81 L 161.65 173.90 C 161.23 173.15 160.27 172.88 159.52 173.31 C 158.77 173.73 158.50 174.68 158.92 175.43 Z M 159.44 176.35 L 159.95 177.25 C 160.38 178.00 161.33 178.26 162.08 177.83 C 162.83 177.40 163.09 176.45 162.66 175.70 L 162.15 174.80 C 161.72 174.05 160.77 173.79 160.02 174.22 C 159.27 174.64 159.01 175.60 159.44 176.35 Z M 159.96 177.26 L 160.45 178.11 C 160.88 178.85 161.84 179.11 162.58 178.67 C 163.33 178.24 163.58 177.28 163.15 176.54 L 162.66 175.69 C 162.22 174.94 161.27 174.69 160.52 175.12 C 159.78 175.56 159.52 176.51 159.96 177.26 Z M 160.45 178.12 L 160.96 178.98 C 161.40 179.72 162.36 179.97 163.10 179.53 C 163.84 179.09 164.09 178.13 163.65 177.39 L 163.14 176.53 C 162.70 175.79 161.75 175.54 161.00 175.98 C 160.26 176.42 160.02 177.38 160.45 178.12 Z M 160.97 178.99 L 161.49 179.85 C 161.93 180.59 162.89 180.83 163.63 180.39 C 164.37 179.94 164.61 178.98 164.16 178.24 L 163.65 177.38 C 163.20 176.64 162.24 176.40 161.50 176.85 C 160.76 177.29 160.52 178.25 160.97 178.99 Z M 161.50 179.86 L 162.02 180.73 C 162.47 181.46 163.43 181.69 164.17 181.24 C 164.91 180.79 165.14 179.83 164.69 179.10 L 164.16 178.23 C 163.71 177.50 162.75 177.27 162.01 177.72 C 161.28 178.17 161.05 179.13 161.50 179.86 Z M 162.03 180.74 L 162.56 181.59 C 163.02 182.32 163.98 182.55 164.72 182.09 C 165.45 181.63 165.67 180.67 165.21 179.94 L 164.68 179.08 C 164.22 178.35 163.26 178.13 162.53 178.59 C 161.80 179.04 161.57 180.01 162.03 180.74 Z M 162.57 181.61 L 163.11 182.45 C 163.58 183.18 164.54 183.39 165.27 182.93 C 166.00 182.47 166.21 181.50 165.75 180.77 L 165.20 179.93 C 164.74 179.20 163.78 178.99 163.05 179.45 C 162.32 179.91 162.11 180.88 162.57 181.61 Z M 163.12 182.47 L 163.67 183.31 C 164.15 184.03 165.11 184.24 165.83 183.77 C 166.56 183.29 166.76 182.33 166.29 181.60 L 165.74 180.76 C 165.26 180.04 164.30 179.83 163.58 180.31 C 162.85 180.78 162.65 181.75 163.12 182.47 Z M 163.68 183.33 L 164.24 184.16 C 164.72 184.87 165.69 185.06 166.41 184.58 C 167.12 184.10 167.31 183.13 166.83 182.42 L 166.28 181.59 C 165.80 180.87 164.83 180.68 164.11 181.16 C 163.40 181.64 163.20 182.61 163.68 183.33 Z M 164.25 184.17 L 164.82 184.99 C 165.31 185.70 166.28 185.88 166.99 185.39 C 167.70 184.90 167.88 183.93 167.39 183.22 L 166.82 182.40 C 166.33 181.69 165.36 181.51 164.65 182.00 C 163.94 182.49 163.76 183.46 164.25 184.17 Z M 164.83 185.01 L 165.40 185.82 C 165.90 186.52 166.88 186.69 167.58 186.19 C 168.28 185.69 168.45 184.71 167.95 184.01 L 167.37 183.20 C 166.87 182.50 165.90 182.33 165.20 182.83 C 164.49 183.33 164.33 184.31 164.83 185.01 Z M 165.42 185.84 L 166.01 186.64 C 166.52 187.34 167.50 187.49 168.19 186.98 C 168.89 186.47 169.04 185.49 168.53 184.79 L 167.94 183.99 C 167.42 183.30 166.45 183.15 165.75 183.66 C 165.06 184.17 164.91 185.14 165.42 185.84 Z M 166.02 186.66 L 166.62 187.45 C 167.14 188.14 168.12 188.27 168.81 187.75 C 169.49 187.23 169.63 186.25 169.11 185.56 L 168.51 184.78 C 167.99 184.09 167.01 183.95 166.32 184.47 C 165.64 185.00 165.50 185.97 166.02 186.66 Z M 166.63 187.47 L 167.24 188.24 C 167.77 188.92 168.75 189.04 169.43 188.51 C 170.11 187.98 170.23 187.00 169.70 186.32 L 169.10 185.55 C 168.56 184.87 167.58 184.74 166.90 185.27 C 166.22 185.81 166.10 186.79 166.63 187.47 Z M 167.25 188.25 L 167.87 189.03 C 168.41 189.71 169.39 189.82 170.06 189.28 C 170.74 188.74 170.85 187.76 170.31 187.08 L 169.69 186.31 C 169.15 185.63 168.17 185.52 167.50 186.06 C 166.82 186.60 166.71 187.58 167.25 188.25 Z M 167.88 189.04 L 168.51 189.82 C 169.05 190.49 170.03 190.59 170.70 190.05 C 171.37 189.50 171.48 188.52 170.93 187.85 L 170.30 187.07 C 169.76 186.40 168.77 186.30 168.10 186.85 C 167.43 187.39 167.33 188.37 167.88 189.04 Z M 168.51 189.83 L 169.15 190.61 C 169.70 191.27 170.69 191.37 171.35 190.82 C 172.02 190.27 172.11 189.29 171.57 188.62 L 170.93 187.84 C 170.38 187.18 169.39 187.08 168.73 187.63 C 168.06 188.18 167.97 189.16 168.51 189.83 Z M 169.16 190.61 L 169.81 191.39 C 170.36 192.06 171.34 192.15 172.01 191.60 C 172.67 191.05 172.76 190.07 172.21 189.40 L 171.56 188.62 C 171.01 187.96 170.03 187.86 169.37 188.41 C 168.70 188.96 168.61 189.95 169.16 190.61 Z M 169.81 191.40 L 170.45 192.17 C 171.00 192.83 171.98 192.92 172.65 192.37 C 173.31 191.82 173.40 190.83 172.85 190.17 L 172.21 189.40 C 171.66 188.74 170.68 188.65 170.01 189.20 C 169.35 189.75 169.26 190.73 169.81 191.40 Z M 170.45 192.17 L 171.08 192.93 C 171.63 193.59 172.62 193.68 173.28 193.13 C 173.94 192.58 174.03 191.59 173.48 190.93 L 172.85 190.17 C 172.30 189.51 171.31 189.42 170.65 189.97 C 169.99 190.52 169.90 191.51 170.45 192.17 Z M 171.08 192.93 L 171.72 193.69 C 172.28 194.36 173.26 194.45 173.92 193.89 C 174.58 193.34 174.67 192.36 174.12 191.69 L 173.48 190.93 C 172.93 190.27 171.94 190.18 171.28 190.73 C 170.62 191.28 170.53 192.27 171.08 192.93 Z M 171.73 193.70 L 172.37 194.46 C 172.92 195.12 173.91 195.21 174.57 194.66 C 175.23 194.10 175.31 193.12 174.76 192.46 L 174.12 191.69 C 173.56 191.03 172.58 190.94 171.92 191.50 C 171.26 192.05 171.17 193.04 171.73 193.70 Z M 172.37 194.47 L 173.02 195.23 C 173.58 195.89 174.56 195.98 175.22 195.42 C 175.88 194.86 175.96 193.88 175.40 193.22 L 174.76 192.45 C 174.20 191.79 173.22 191.71 172.56 192.27 C 171.90 192.82 171.81 193.81 172.37 194.47 Z M 173.02 195.24 L 173.68 196.01 C 174.24 196.66 175.22 196.74 175.88 196.18 C 176.54 195.63 176.61 194.64 176.05 193.98 L 175.40 193.22 C 174.84 192.56 173.86 192.48 173.20 193.04 C 172.54 193.60 172.46 194.58 173.02 195.24 Z M 173.68 196.01 L 174.34 196.78 C 174.90 197.43 175.89 197.50 176.54 196.94 C 177.19 196.38 177.27 195.39 176.71 194.74 L 176.05 193.98 C 175.49 193.32 174.50 193.25 173.85 193.81 C 173.19 194.37 173.12 195.36 173.68 196.01 Z M 174.34 196.78 L 174.99 197.53 C 175.56 198.18 176.55 198.25 177.20 197.69 C 177.85 197.12 177.92 196.14 177.35 195.49 L 176.70 194.73 C 176.14 194.08 175.15 194.01 174.50 194.58 C 173.85 195.14 173.78 196.13 174.34 196.78 Z M 175.00 197.54 L 175.65 198.29 C 176.22 198.94 177.21 199.00 177.86 198.44 C 178.51 197.87 178.57 196.88 178.01 196.23 L 177.35 195.48 C 176.78 194.83 175.79 194.77 175.15 195.33 C 174.50 195.90 174.43 196.89 175.00 197.54 Z M 175.66 198.29 L 176.32 199.04 C 176.89 199.69 177.88 199.75 178.52 199.18 C 179.17 198.61 179.23 197.63 178.66 196.98 L 178.00 196.23 C 177.43 195.58 176.45 195.52 175.80 196.09 C 175.15 196.66 175.09 197.64 175.66 198.29 Z M 176.32 199.04 L 176.99 199.80 C 177.56 200.44 178.54 200.50 179.19 199.93 C 179.84 199.36 179.90 198.37 179.32 197.73 L 178.66 196.98 C 178.09 196.33 177.10 196.27 176.46 196.84 C 175.81 197.41 175.75 198.40 176.32 199.04 Z M 176.99 199.80 L 177.65 200.55 C 178.23 201.19 179.21 201.25 179.86 200.68 C 180.50 200.11 180.56 199.12 179.99 198.48 L 179.32 197.73 C 178.75 197.08 177.76 197.02 177.12 197.59 C 176.47 198.17 176.41 199.15 176.99 199.80 Z M 177.65 200.55 L 178.32 201.30 C 178.89 201.95 179.88 202.00 180.53 201.43 C 181.17 200.86 181.23 199.87 180.66 199.23 L 179.99 198.48 C 179.42 197.83 178.43 197.77 177.78 198.35 C 177.14 198.92 177.08 199.90 177.65 200.55 Z M 178.32 201.30 L 178.97 202.04 C 179.55 202.68 180.53 202.74 181.18 202.17 C 181.82 201.59 181.88 200.61 181.31 199.96 L 180.66 199.23 C 180.08 198.58 179.10 198.52 178.45 199.10 C 177.81 199.67 177.75 200.66 178.32 201.30 Z M 178.97 202.03 L 179.63 202.77 C 180.20 203.42 181.19 203.48 181.83 202.90 C 182.48 202.33 182.54 201.35 181.96 200.70 L 181.31 199.96 C 180.74 199.32 179.75 199.26 179.11 199.83 C 178.46 200.40 178.40 201.39 178.97 202.03 Z M 179.63 202.77 L 180.28 203.51 C 180.85 204.16 181.84 204.22 182.48 203.65 C 183.13 203.08 183.19 202.09 182.62 201.44 L 181.96 200.70 C 181.39 200.06 180.41 200.00 179.76 200.57 C 179.12 201.14 179.05 202.12 179.63 202.77 Z M 180.28 203.51 L 180.94 204.26 C 181.51 204.91 182.49 204.97 183.14 204.40 C 183.79 203.83 183.85 202.84 183.28 202.20 L 182.62 201.45 C 182.05 200.80 181.07 200.74 180.42 201.31 C 179.77 201.87 179.71 202.86 180.28 203.51 Z M 180.93 204.25 L 181.60 205.01 C 182.16 205.66 183.15 205.73 183.80 205.16 C 184.45 204.60 184.52 203.61 183.95 202.96 L 183.29 202.20 C 182.72 201.55 181.73 201.48 181.08 202.05 C 180.43 202.62 180.37 203.60 180.93 204.25 Z M 181.59 205.01 L 182.26 205.78 C 182.82 206.43 183.81 206.50 184.46 205.94 C 185.11 205.37 185.18 204.39 184.62 203.74 L 183.95 202.97 C 183.39 202.31 182.40 202.24 181.75 202.81 C 181.10 203.37 181.03 204.36 181.59 205.01 Z M 182.25 205.77 L 182.92 206.55 C 183.48 207.20 184.46 207.28 185.12 206.72 C 185.77 206.16 185.85 205.17 185.29 204.52 L 184.63 203.74 C 184.06 203.09 183.08 203.01 182.42 203.57 C 181.77 204.13 181.69 205.12 182.25 205.77 Z M 182.91 206.54 L 183.57 207.32 C 184.13 207.97 185.11 208.05 185.77 207.50 C 186.43 206.94 186.51 205.95 185.95 205.30 L 185.29 204.52 C 184.74 203.86 183.75 203.78 183.09 204.34 C 182.44 204.90 182.35 205.88 182.91 206.54 Z M 183.56 207.31 L 184.22 208.09 C 184.77 208.75 185.76 208.84 186.42 208.28 C 187.08 207.73 187.16 206.74 186.61 206.08 L 185.95 205.30 C 185.40 204.64 184.41 204.56 183.75 205.11 C 183.09 205.67 183.01 206.65 183.56 207.31 Z M 184.22 208.09 L 184.87 208.87 C 185.42 209.53 186.40 209.62 187.07 209.06 C 187.73 208.51 187.82 207.53 187.26 206.87 L 186.61 206.09 C 186.06 205.42 185.08 205.33 184.41 205.89 C 183.75 206.44 183.66 207.42 184.22 208.09 Z M 184.86 208.86 L 185.50 209.64 C 186.05 210.30 187.04 210.39 187.70 209.84 C 188.37 209.29 188.46 208.31 187.91 207.65 L 187.27 206.87 C 186.72 206.21 185.73 206.11 185.07 206.66 C 184.41 207.21 184.31 208.20 184.86 208.86 Z M 185.50 209.63 L 186.13 210.40 C 186.67 211.06 187.66 211.16 188.32 210.61 C 188.99 210.06 189.09 209.08 188.54 208.41 L 187.91 207.65 C 187.37 206.98 186.38 206.89 185.72 207.43 C 185.05 207.98 184.95 208.96 185.50 209.63 Z M 186.12 210.39 L 186.73 211.14 C 187.28 211.81 188.26 211.91 188.93 211.36 C 189.60 210.82 189.70 209.83 189.15 209.17 L 188.54 208.42 C 188.00 207.75 187.02 207.65 186.35 208.19 C 185.68 208.74 185.58 209.72 186.12 210.39 Z M 186.73 211.13 L 187.39 211.95 C 187.93 212.62 188.91 212.72 189.58 212.18 C 190.26 211.64 190.36 210.66 189.82 209.99 L 189.16 209.17 C 188.61 208.50 187.63 208.40 186.96 208.94 C 186.29 209.48 186.19 210.46 186.73 211.13 Z M 187.39 211.95 L 188.04 212.76 C 188.58 213.43 189.56 213.54 190.23 213.00 C 190.90 212.46 191.01 211.48 190.47 210.80 L 189.82 209.99 C 189.28 209.32 188.30 209.21 187.63 209.75 C 186.95 210.29 186.85 211.27 187.39 211.95 Z M 188.04 212.76 L 188.66 213.54 C 189.20 214.22 190.18 214.33 190.86 213.79 C 191.53 213.25 191.64 212.27 191.10 211.60 L 190.48 210.81 C 189.94 210.13 188.96 210.02 188.28 210.56 C 187.61 211.10 187.50 212.08 188.04 212.76 Z M 188.66 213.54 L 189.27 214.31 C 189.81 214.98 190.79 215.10 191.47 214.56 C 192.14 214.02 192.25 213.04 191.72 212.37 L 191.11 211.60 C 190.57 210.92 189.59 210.81 188.91 211.35 C 188.24 211.88 188.13 212.87 188.66 213.54 Z M 189.27 214.31 L 189.87 215.06 C 190.41 215.74 191.39 215.85 192.06 215.31 C 192.74 214.78 192.85 213.79 192.31 213.12 L 191.72 212.37 C 191.18 211.69 190.20 211.58 189.52 212.12 C 188.85 212.65 188.74 213.63 189.27 214.31 Z M 189.87 215.06 L 190.46 215.80 C 191.00 216.48 191.98 216.59 192.65 216.05 C 193.33 215.52 193.44 214.53 192.90 213.86 L 192.31 213.12 C 191.78 212.44 190.80 212.33 190.12 212.87 C 189.45 213.40 189.33 214.39 189.87 215.06 Z M 190.46 215.80 L 191.10 216.61 C 191.64 217.28 192.62 217.39 193.30 216.85 C 193.97 216.31 194.08 215.33 193.54 214.66 L 192.90 213.86 C 192.36 213.18 191.38 213.07 190.71 213.61 C 190.03 214.15 189.92 215.13 190.46 215.80 Z M 191.10 216.61 L 191.74 217.40 C 192.27 218.07 193.26 218.18 193.93 217.64 C 194.60 217.10 194.71 216.12 194.17 215.45 L 193.54 214.66 C 193.00 213.98 192.02 213.87 191.34 214.41 C 190.67 214.95 190.56 215.93 191.10 216.61 Z M 191.74 217.40 L 192.36 218.18 C 192.90 218.86 193.89 218.96 194.56 218.42 C 195.23 217.88 195.34 216.90 194.80 216.23 L 194.17 215.44 C 193.63 214.77 192.65 214.66 191.98 215.20 C 191.30 215.74 191.20 216.73 191.74 217.40 Z M 192.36 218.18 L 192.98 218.95 C 193.52 219.63 194.51 219.74 195.18 219.20 C 195.85 218.66 195.96 217.67 195.42 217.00 L 194.80 216.23 C 194.26 215.55 193.28 215.44 192.60 215.98 C 191.93 216.53 191.82 217.51 192.36 218.18 Z M 192.98 218.95 L 193.59 219.72 C 194.13 220.39 195.12 220.50 195.79 219.96 C 196.46 219.42 196.57 218.44 196.03 217.76 L 195.42 217.00 C 194.88 216.32 193.90 216.22 193.22 216.76 C 192.55 217.30 192.44 218.28 192.98 218.95 Z M 193.59 219.72 L 194.22 220.51 C 194.76 221.18 195.75 221.29 196.42 220.75 C 197.10 220.21 197.21 219.23 196.67 218.56 L 196.03 217.76 C 195.49 217.09 194.51 216.98 193.84 217.52 C 193.16 218.06 193.05 219.04 193.59 219.72 Z M 194.22 220.51 L 194.86 221.30 C 195.40 221.98 196.38 222.09 197.06 221.55 C 197.73 221.01 197.84 220.02 197.30 219.35 L 196.67 218.56 C 196.13 217.88 195.14 217.77 194.47 218.31 C 193.79 218.85 193.68 219.83 194.22 220.51 Z M 194.86 221.31 L 195.49 222.09 C 196.03 222.76 197.01 222.87 197.69 222.33 C 198.36 221.78 198.47 220.80 197.93 220.13 L 197.30 219.35 C 196.76 218.67 195.77 218.57 195.10 219.11 C 194.43 219.65 194.32 220.63 194.86 221.31 Z M 195.50 222.09 L 196.12 222.86 C 196.66 223.53 197.65 223.63 198.32 223.09 C 198.99 222.54 199.09 221.56 198.54 220.89 L 197.92 220.12 C 197.38 219.45 196.39 219.35 195.72 219.89 C 195.05 220.44 194.95 221.42 195.50 222.09 Z M 196.13 222.87 L 196.75 223.62 C 197.30 224.29 198.28 224.38 198.95 223.83 C 199.61 223.28 199.71 222.30 199.16 221.63 L 198.54 220.88 C 197.99 220.21 197.00 220.12 196.34 220.67 C 195.67 221.22 195.58 222.20 196.13 222.87 Z M 196.76 223.63 L 197.41 224.41 C 197.97 225.07 198.96 225.16 199.62 224.60 C 200.28 224.04 200.36 223.06 199.80 222.40 L 199.15 221.62 C 198.59 220.96 197.60 220.88 196.94 221.43 C 196.28 221.99 196.20 222.97 196.76 223.63 Z M 197.43 224.43 L 198.09 225.20 C 198.66 225.85 199.64 225.92 200.30 225.36 C 200.95 224.79 201.02 223.80 200.46 223.15 L 199.79 222.38 C 199.23 221.73 198.24 221.66 197.59 222.22 C 196.93 222.79 196.86 223.78 197.43 224.43 Z M 198.10 225.22 L 198.77 225.96 C 199.34 226.61 200.33 226.67 200.98 226.09 C 201.63 225.52 201.68 224.53 201.11 223.88 L 200.44 223.13 C 199.87 222.49 198.88 222.43 198.23 223.00 C 197.59 223.58 197.53 224.57 198.10 225.22 Z M 198.78 225.98 L 199.45 226.71 C 200.03 227.34 201.03 227.39 201.66 226.80 C 202.30 226.22 202.34 225.22 201.76 224.59 L 201.09 223.86 C 200.51 223.22 199.52 223.18 198.88 223.77 C 198.24 224.35 198.20 225.34 198.78 225.98 Z M 199.47 226.73 L 200.14 227.44 C 200.74 228.06 201.73 228.09 202.36 227.49 C 202.99 226.90 203.01 225.90 202.42 225.28 L 201.74 224.57 C 201.14 223.94 200.15 223.91 199.52 224.51 C 198.90 225.11 198.87 226.10 199.47 226.73 Z M 200.16 227.46 L 200.87 228.17 C 201.48 228.79 202.47 228.80 203.09 228.19 C 203.70 227.58 203.71 226.59 203.10 225.97 L 202.39 225.25 C 201.79 224.64 200.79 224.63 200.18 225.24 C 199.56 225.85 199.55 226.84 200.16 227.46 Z M 200.89 228.20 L 201.61 228.89 C 202.23 229.49 203.22 229.48 203.82 228.86 C 204.42 228.24 204.41 227.24 203.79 226.64 L 203.07 225.95 C 202.45 225.35 201.46 225.36 200.86 225.98 C 200.26 226.60 200.27 227.59 200.89 228.20 Z M 201.63 228.91 L 202.36 229.59 C 203.00 230.18 203.99 230.14 204.57 229.50 C 205.16 228.87 205.12 227.88 204.49 227.29 L 203.76 226.62 C 203.13 226.03 202.14 226.07 201.55 226.70 C 200.96 227.33 201.00 228.32 201.63 228.91 Z M 202.39 229.61 L 203.14 230.28 C 203.79 230.85 204.78 230.79 205.35 230.14 C 205.92 229.49 205.86 228.51 205.21 227.93 L 204.46 227.27 C 203.82 226.70 202.83 226.76 202.26 227.40 C 201.68 228.05 201.74 229.04 202.39 229.61 Z M 203.17 230.30 L 203.96 230.97 C 204.62 231.52 205.60 231.44 206.16 230.78 C 206.72 230.12 206.63 229.13 205.97 228.58 L 205.18 227.91 C 204.52 227.35 203.54 227.44 202.98 228.10 C 202.43 228.76 202.51 229.74 203.17 230.30 Z M 203.99 230.99 L 204.79 231.64 C 205.46 232.18 206.45 232.07 206.99 231.40 C 207.53 230.73 207.42 229.74 206.75 229.20 L 205.95 228.55 C 205.28 228.01 204.29 228.12 203.75 228.79 C 203.21 229.46 203.31 230.45 203.99 230.99 Z M 204.82 231.66 L 205.61 232.27 C 206.30 232.80 207.28 232.67 207.81 231.99 C 208.33 231.30 208.21 230.32 207.52 229.79 L 206.73 229.18 C 206.04 228.65 205.06 228.78 204.53 229.46 C 204.01 230.15 204.13 231.13 204.82 231.66 Z M 205.64 232.29 L 206.41 232.86 C 207.11 233.37 208.09 233.22 208.60 232.53 C 209.11 231.83 208.96 230.85 208.26 230.34 L 207.49 229.77 C 206.80 229.26 205.82 229.41 205.31 230.11 C 204.80 230.80 204.95 231.78 205.64 232.29 Z M 206.45 232.89 L 207.23 233.43 C 207.94 233.92 208.92 233.75 209.41 233.03 C 209.90 232.32 209.73 231.35 209.02 230.86 L 208.23 230.31 C 207.52 229.82 206.55 230.00 206.05 230.71 C 205.56 231.42 205.74 232.39 206.45 232.89 Z M 207.28 233.46 L 208.08 233.97 C 208.80 234.43 209.77 234.22 210.24 233.50 C 210.70 232.77 210.49 231.80 209.76 231.34 L 208.97 230.83 C 208.24 230.36 207.27 230.57 206.81 231.30 C 206.34 232.03 206.55 233.00 207.28 233.46 Z M 208.13 234.00 L 208.97 234.49 C 209.72 234.93 210.67 234.68 211.11 233.93 C 211.54 233.19 211.29 232.23 210.55 231.79 L 209.71 231.30 C 208.96 230.87 208.00 231.12 207.57 231.86 C 207.13 232.61 207.39 233.57 208.13 234.00 Z M 209.02 234.52 L 209.97 235.03 C 210.73 235.44 211.68 235.15 212.08 234.39 C 212.49 233.64 212.21 232.69 211.45 232.28 L 210.50 231.77 C 209.74 231.36 208.79 231.64 208.38 232.40 C 207.97 233.16 208.26 234.11 209.02 234.52 Z M 210.00 235.05 L 210.83 235.47 C 211.59 235.86 212.53 235.55 212.93 234.78 C 213.32 234.01 213.01 233.07 212.24 232.68 L 211.42 232.26 C 210.65 231.87 209.71 232.18 209.32 232.95 C 208.93 233.71 209.23 234.65 210.00 235.05 Z M 210.85 235.48 L 211.72 235.90 C 212.49 236.28 213.43 235.96 213.81 235.18 C 214.18 234.41 213.86 233.47 213.09 233.10 L 212.22 232.67 C 211.45 232.29 210.51 232.61 210.13 233.39 C 209.75 234.16 210.07 235.10 210.85 235.48 Z M 211.74 235.91 L 212.66 236.34 C 213.44 236.71 214.37 236.37 214.74 235.59 C 215.10 234.81 214.77 233.88 213.99 233.52 L 213.06 233.09 C 212.28 232.72 211.35 233.06 210.99 233.84 C 210.62 234.62 210.96 235.55 211.74 235.91 Z M 212.69 236.36 L 213.65 236.78 C 214.43 237.13 215.36 236.78 215.71 235.99 C 216.06 235.21 215.70 234.28 214.92 233.93 L 213.96 233.51 C 213.17 233.15 212.25 233.51 211.90 234.30 C 211.55 235.08 211.90 236.01 212.69 236.36 Z M 213.68 236.80 L 214.64 237.20 C 215.44 237.54 216.35 237.16 216.69 236.37 C 217.02 235.57 216.65 234.66 215.85 234.32 L 214.89 233.92 C 214.09 233.58 213.18 233.96 212.84 234.75 C 212.51 235.55 212.88 236.46 213.68 236.80 Z M 214.68 237.22 L 215.65 237.60 C 216.45 237.91 217.36 237.51 217.67 236.71 C 217.99 235.91 217.59 235.00 216.79 234.69 L 215.82 234.31 C 215.01 234.00 214.11 234.39 213.79 235.20 C 213.48 236.00 213.88 236.90 214.68 237.22 Z M 215.69 237.61 L 216.65 237.96 C 217.46 238.25 218.36 237.83 218.65 237.02 C 218.94 236.21 218.52 235.32 217.71 235.02 L 216.75 234.67 C 215.94 234.38 215.04 234.80 214.75 235.61 C 214.46 236.42 214.88 237.32 215.69 237.61 Z M 216.68 237.97 L 217.63 238.29 C 218.45 238.57 219.33 238.13 219.61 237.31 C 219.88 236.49 219.44 235.61 218.63 235.33 L 217.68 235.01 C 216.86 234.74 215.98 235.17 215.70 235.99 C 215.43 236.81 215.86 237.69 216.68 237.97 Z M 217.65 238.30 L 218.59 238.60 C 219.41 238.86 220.29 238.41 220.55 237.59 C 220.82 236.77 220.36 235.89 219.54 235.62 L 218.60 235.32 C 217.78 235.06 216.90 235.51 216.64 236.33 C 216.38 237.16 216.83 238.03 217.65 238.30 Z M 218.61 238.60 L 219.54 238.89 C 220.36 239.15 221.24 238.68 221.49 237.86 C 221.75 237.04 221.28 236.16 220.46 235.91 L 219.53 235.62 C 218.70 235.36 217.83 235.83 217.58 236.65 C 217.32 237.47 217.78 238.35 218.61 238.60 Z M 219.54 238.89 L 220.01 239.04 C 220.84 239.29 221.71 238.82 221.96 238.00 C 222.21 237.18 221.75 236.30 220.93 236.05 L 220.46 235.91 C 219.63 235.65 218.76 236.12 218.51 236.94 C 218.25 237.77 218.72 238.64 219.54 238.89 Z"
      fill="black"
      fill-rule="nonzero" /></svg>