<svg xmlns="http://www.w3.org/2000/svg" width="300" height="300" viewBox="0 0 300 300">
<path d="M 104.34 143.02 L 103.21 142.45 C 102.44 142.06 101.50 142.36 101.11 143.13 C 100.72 143.90 101.02 144.84 101.79 145.23 L 102.92 145.81 C 103.69 146.20 104.63 145.89 105.02 145.12 C 105.41 144.36 105.11 143.42 104.34 143.02 Z M 103.28 142.49 L 102.31 141.92 C 101.56 141.49 100.61 141.75 100.18 142.49 C 99.74 143.24 100.00 144.19 100.75 144.63 L 101.72 145.19 C 102.46 145.62 103.42 145.37 103.85 144.62 C 104.28 143.87 104.03 142.92 103.28 142.49 Z M 102.52 142.07 L 101.86 141.53 C 101.20 140.98 100.21 141.08 99.67 141.75 C 99.12 142.42 99.22 143.40 99.88 143.95 L 100.54 144.48 C 101.21 145.03 102.19 144.93 102.74 144.26 C 103.28 143.60 103.18 142.61 102.52 142.07 Z M 102.35 142.25 L 102.18 141.72 C 101.91 140.90 101.02 140.46 100.21 140.73 C 99.39 141.01 98.95 141.89 99.22 142.71 L 99.39 143.23 C 99.66 144.05 100.55 144.49 101.37 144.22 C 102.18 143.95 102.63 143.06 102.35 142.25 Z M 101.85 143.27 L 102.33 142.75 C 102.91 142.11 102.86 141.12 102.23 140.54 C 101.59 139.96 100.60 140.01 100.02 140.64 L 99.55 141.16 C 98.96 141.80 99.01 142.79 99.65 143.37 C 100.28 143.95 101.27 143.90 101.85 143.27 Z M 101.85 143.10 L 102.83 142.63 C 103.61 142.26 103.94 141.33 103.57 140.55 C 103.20 139.77 102.26 139.44 101.49 139.82 L 100.50 140.29 C 99.72 140.66 99.39 141.59 99.77 142.37 C 100.14 143.15 101.07 143.48 101.85 143.10 Z M 102.66 142.70 L 103.86 142.30 C 104.68 142.02 105.11 141.13 104.83 140.31 C 104.56 139.50 103.67 139.06 102.85 139.34 L 101.66 139.75 C 100.84 140.02 100.40 140.91 100.68 141.73 C 100.96 142.54 101.85 142.98 102.66 142.70 Z M 103.80 142.31 L 104.77 142.03 C 105.60 141.78 106.07 140.91 105.82 140.09 C 105.58 139.26 104.71 138.79 103.88 139.03 L 102.91 139.32 C 102.09 139.57 101.61 140.43 101.86 141.26 C 102.10 142.09 102.97 142.56 103.80 142.31 Z M 104.74 142.04 L 105.73 141.77 C 106.56 141.54 107.05 140.68 106.82 139.85 C 106.60 139.02 105.74 138.53 104.91 138.75 L 103.92 139.02 C 103.08 139.25 102.59 140.11 102.82 140.94 C 103.05 141.77 103.90 142.26 104.74 142.04 Z M 105.70 141.77 L 106.69 141.52 C 107.52 141.31 108.03 140.46 107.81 139.62 C 107.60 138.79 106.75 138.28 105.91 138.50 L 104.93 138.75 C 104.10 138.96 103.59 139.81 103.80 140.65 C 104.02 141.48 104.87 141.99 105.70 141.77 Z M 106.67 141.53 L 107.61 141.30 C 108.45 141.10 108.96 140.25 108.76 139.42 C 108.56 138.58 107.71 138.06 106.88 138.26 L 105.93 138.49 C 105.10 138.69 104.58 139.54 104.78 140.38 C 104.98 141.21 105.83 141.73 106.67 141.53 Z M 107.59 141.30 L 108.59 141.07 C 109.43 140.88 109.96 140.04 109.76 139.20 C 109.57 138.36 108.73 137.84 107.89 138.03 L 106.89 138.26 C 106.05 138.46 105.53 139.29 105.72 140.13 C 105.91 140.97 106.75 141.50 107.59 141.30 Z M 108.58 141.08 L 109.55 140.86 C 110.39 140.67 110.92 139.84 110.73 138.99 C 110.55 138.15 109.71 137.62 108.87 137.81 L 107.90 138.03 C 107.06 138.22 106.53 139.05 106.72 139.89 C 106.91 140.73 107.74 141.26 108.58 141.08 Z M 109.55 140.86 L 110.49 140.65 C 111.33 140.46 111.87 139.63 111.68 138.79 C 111.49 137.94 110.66 137.41 109.82 137.60 L 108.87 137.81 C 108.03 138.00 107.50 138.83 107.69 139.67 C 107.87 140.52 108.71 141.05 109.55 140.86 Z M 110.50 140.65 L 111.47 140.43 C 112.31 140.23 112.84 139.40 112.64 138.56 C 112.45 137.72 111.62 137.19 110.78 137.38 L 109.81 137.60 C 108.97 137.79 108.44 138.63 108.63 139.47 C 108.82 140.31 109.66 140.84 110.50 140.65 Z M 111.48 140.42 L 112.38 140.21 C 113.22 140.01 113.74 139.17 113.54 138.33 C 113.35 137.49 112.50 136.97 111.67 137.17 L 110.76 137.38 C 109.92 137.58 109.40 138.42 109.60 139.26 C 109.80 140.10 110.64 140.62 111.48 140.42 Z M 112.39 140.21 L 113.34 139.98 C 114.18 139.78 114.70 138.93 114.49 138.09 C 114.29 137.26 113.45 136.74 112.61 136.94 L 111.66 137.17 C 110.82 137.38 110.30 138.22 110.51 139.06 C 110.71 139.90 111.55 140.41 112.39 140.21 Z M 113.35 139.98 L 114.34 139.74 C 115.18 139.53 115.69 138.69 115.49 137.85 C 115.28 137.01 114.44 136.50 113.60 136.70 L 112.61 136.94 C 111.77 137.15 111.26 137.99 111.46 138.83 C 111.66 139.67 112.51 140.18 113.35 139.98 Z M 114.34 139.74 L 115.36 139.49 C 116.20 139.29 116.72 138.44 116.51 137.60 C 116.31 136.77 115.47 136.25 114.63 136.45 L 113.60 136.70 C 112.77 136.90 112.25 137.75 112.45 138.59 C 112.66 139.42 113.50 139.94 114.34 139.74 Z M 115.36 139.49 L 116.31 139.26 C 117.15 139.06 117.67 138.22 117.47 137.38 C 117.27 136.55 116.42 136.03 115.59 136.23 L 114.64 136.45 C 113.80 136.65 113.28 137.49 113.48 138.33 C 113.68 139.17 114.52 139.69 115.36 139.49 Z M 116.30 139.27 L 117.24 139.05 C 118.08 138.85 118.60 138.01 118.41 137.17 C 118.21 136.33 117.37 135.81 116.53 136.01 L 115.59 136.22 C 114.75 136.42 114.23 137.26 114.43 138.10 C 114.62 138.94 115.46 139.46 116.30 139.27 Z M 117.24 139.05 L 118.20 138.83 C 119.04 138.63 119.57 137.79 119.38 136.95 C 119.18 136.11 118.35 135.59 117.50 135.78 L 116.54 136.00 C 115.70 136.20 115.17 137.03 115.37 137.87 C 115.56 138.72 116.40 139.24 117.24 139.05 Z M 118.20 138.83 L 119.19 138.60 C 120.03 138.41 120.56 137.58 120.37 136.73 C 120.18 135.89 119.35 135.37 118.51 135.56 L 117.51 135.78 C 116.67 135.97 116.14 136.81 116.33 137.65 C 116.52 138.49 117.36 139.02 118.20 138.83 Z M 119.19 138.60 L 120.22 138.37 C 121.06 138.19 121.59 137.35 121.40 136.51 C 121.22 135.67 120.38 135.14 119.54 135.33 L 118.51 135.55 C 117.67 135.74 117.14 136.58 117.33 137.42 C 117.51 138.26 118.35 138.79 119.19 138.60 Z M 120.22 138.37 L 121.15 138.17 C 121.99 137.98 122.52 137.15 122.33 136.31 C 122.15 135.47 121.32 134.93 120.47 135.12 L 119.54 135.32 C 118.70 135.51 118.17 136.34 118.36 137.18 C 118.54 138.03 119.37 138.56 120.22 138.37 Z M 121.14 138.17 L 122.09 137.96 C 122.93 137.78 123.46 136.95 123.28 136.10 C 123.10 135.26 122.26 134.73 121.42 134.91 L 120.48 135.12 C 119.63 135.30 119.10 136.14 119.28 136.98 C 119.47 137.82 120.30 138.35 121.14 138.17 Z M 122.09 137.96 L 123.06 137.75 C 123.90 137.57 124.43 136.73 124.25 135.89 C 124.07 135.05 123.23 134.52 122.39 134.70 L 121.42 134.91 C 120.58 135.10 120.05 135.93 120.23 136.77 C 120.41 137.61 121.25 138.15 122.09 137.96 Z M 123.06 137.75 L 124.05 137.53 C 124.90 137.35 125.43 136.51 125.24 135.67 C 125.06 134.83 124.22 134.30 123.38 134.48 L 122.39 134.70 C 121.55 134.89 121.01 135.72 121.20 136.56 C 121.39 137.40 122.22 137.94 123.06 137.75 Z M 124.06 137.53 L 125.07 137.31 C 125.91 137.12 126.44 136.28 126.25 135.44 C 126.07 134.60 125.23 134.07 124.39 134.26 L 123.38 134.48 C 122.54 134.67 122.01 135.50 122.19 136.35 C 122.38 137.19 123.22 137.72 124.06 137.53 Z M 125.08 137.30 L 126.08 137.08 C 126.92 136.89 127.44 136.05 127.25 135.21 C 127.06 134.37 126.23 133.84 125.39 134.03 L 124.39 134.26 C 123.54 134.45 123.02 135.28 123.21 136.13 C 123.40 136.97 124.23 137.49 125.08 137.30 Z M 126.08 137.08 L 127.02 136.86 C 127.86 136.67 128.38 135.83 128.19 134.99 C 128.00 134.15 127.16 133.62 126.32 133.82 L 125.38 134.03 C 124.54 134.23 124.02 135.06 124.21 135.91 C 124.40 136.75 125.24 137.27 126.08 137.08 Z M 127.02 136.86 L 127.98 136.64 C 128.82 136.44 129.34 135.60 129.14 134.76 C 128.94 133.92 128.10 133.40 127.27 133.60 L 126.31 133.82 C 125.47 134.01 124.95 134.85 125.15 135.69 C 125.35 136.53 126.19 137.06 127.02 136.86 Z M 127.98 136.63 L 128.95 136.41 C 129.79 136.21 130.31 135.36 130.11 134.53 C 129.91 133.69 129.07 133.17 128.23 133.37 L 127.26 133.60 C 126.42 133.80 125.90 134.64 126.10 135.48 C 126.30 136.32 127.14 136.83 127.98 136.63 Z M 128.95 136.40 L 129.93 136.17 C 130.77 135.97 131.29 135.12 131.09 134.29 C 130.89 133.45 130.04 132.93 129.20 133.13 L 128.22 133.37 C 127.38 133.57 126.87 134.41 127.07 135.25 C 127.27 136.09 128.11 136.61 128.95 136.40 Z M 129.94 136.17 L 130.94 135.92 C 131.77 135.72 132.29 134.88 132.08 134.04 C 131.88 133.20 131.03 132.69 130.20 132.89 L 129.20 133.13 C 128.36 133.34 127.85 134.18 128.05 135.02 C 128.26 135.86 129.10 136.37 129.94 136.17 Z M 130.94 135.92 L 131.95 135.67 C 132.79 135.47 133.30 134.62 133.10 133.78 C 132.89 132.95 132.04 132.44 131.21 132.64 L 130.19 132.89 C 129.36 133.10 128.84 133.94 129.05 134.78 C 129.26 135.62 130.10 136.13 130.94 135.92 Z M 131.96 135.67 L 132.90 135.44 C 133.74 135.23 134.25 134.38 134.04 133.55 C 133.83 132.71 132.98 132.20 132.15 132.41 L 131.20 132.64 C 130.37 132.85 129.86 133.70 130.06 134.53 C 130.27 135.37 131.12 135.88 131.96 135.67 Z M 132.90 135.44 L 133.86 135.20 C 134.69 134.99 135.20 134.14 134.99 133.30 C 134.78 132.47 133.93 131.96 133.10 132.17 L 132.14 132.41 C 131.31 132.62 130.80 133.47 131.01 134.30 C 131.22 135.14 132.07 135.65 132.90 135.44 Z M 133.86 135.20 L 134.83 134.95 C 135.66 134.74 136.17 133.89 135.95 133.05 C 135.74 132.22 134.89 131.71 134.06 131.93 L 133.09 132.17 C 132.26 132.38 131.75 133.23 131.96 134.07 C 132.18 134.90 133.03 135.41 133.86 135.20 Z M 134.83 134.95 L 135.80 134.70 C 136.64 134.48 137.14 133.63 136.93 132.80 C 136.71 131.96 135.86 131.46 135.02 131.68 L 134.05 131.93 C 133.22 132.14 132.71 132.99 132.93 133.83 C 133.15 134.66 134.00 135.17 134.83 134.95 Z M 135.81 134.70 L 136.79 134.44 C 137.62 134.22 138.12 133.37 137.90 132.53 C 137.68 131.70 136.83 131.20 136.00 131.42 L 135.02 131.68 C 134.18 131.90 133.69 132.75 133.90 133.58 C 134.12 134.42 134.98 134.92 135.81 134.70 Z M 136.80 134.44 L 137.78 134.18 C 138.61 133.95 139.10 133.10 138.88 132.26 C 138.66 131.43 137.80 130.94 136.97 131.16 L 135.99 131.42 C 135.16 131.64 134.66 132.50 134.88 133.33 C 135.11 134.17 135.96 134.66 136.80 134.44 Z M 137.78 134.17 L 138.76 133.91 C 139.60 133.68 140.09 132.82 139.86 131.99 C 139.63 131.16 138.78 130.67 137.94 130.89 L 136.96 131.16 C 136.13 131.39 135.64 132.25 135.87 133.08 C 136.09 133.91 136.95 134.40 137.78 134.17 Z M 138.77 133.90 L 139.72 133.64 C 140.55 133.41 141.04 132.55 140.81 131.72 C 140.58 130.89 139.72 130.40 138.89 130.63 L 137.94 130.90 C 137.11 131.13 136.62 131.99 136.85 132.82 C 137.08 133.65 137.94 134.14 138.77 133.90 Z M 139.73 133.64 L 140.68 133.37 C 141.51 133.14 141.99 132.27 141.76 131.44 C 141.52 130.61 140.66 130.13 139.83 130.37 L 138.88 130.63 C 138.05 130.87 137.57 131.73 137.80 132.56 C 138.03 133.39 138.90 133.87 139.73 133.64 Z M 140.68 133.37 L 141.64 133.10 C 142.47 132.86 142.95 132.00 142.71 131.17 C 142.47 130.34 141.61 129.86 140.78 130.09 L 139.82 130.37 C 139.00 130.60 138.52 131.47 138.75 132.30 C 138.99 133.13 139.85 133.61 140.68 133.37 Z M 141.64 133.10 L 142.60 132.82 C 143.43 132.58 143.91 131.71 143.67 130.89 C 143.43 130.06 142.56 129.58 141.73 129.82 L 140.77 130.10 C 139.95 130.34 139.47 131.20 139.71 132.03 C 139.95 132.86 140.81 133.33 141.64 133.10 Z M 142.60 132.82 L 143.57 132.54 C 144.39 132.30 144.87 131.43 144.63 130.60 C 144.39 129.77 143.52 129.30 142.69 129.54 L 141.73 129.82 C 140.90 130.06 140.43 130.93 140.67 131.75 C 140.91 132.58 141.77 133.06 142.60 132.82 Z M 143.57 132.54 L 144.54 132.25 C 145.37 132.01 145.84 131.14 145.60 130.32 C 145.36 129.49 144.49 129.01 143.66 129.26 L 142.69 129.54 C 141.86 129.78 141.39 130.65 141.63 131.48 C 141.87 132.30 142.74 132.78 143.57 132.54 Z M 144.54 132.25 L 145.52 131.97 C 146.35 131.72 146.82 130.86 146.58 130.03 C 146.34 129.20 145.47 128.73 144.64 128.97 L 143.66 129.26 C 142.84 129.50 142.36 130.36 142.60 131.19 C 142.85 132.02 143.71 132.49 144.54 132.25 Z M 145.52 131.97 L 146.49 131.68 C 147.32 131.44 147.79 130.57 147.55 129.75 C 147.31 128.92 146.44 128.44 145.61 128.69 L 144.64 128.97 C 143.82 129.21 143.34 130.08 143.58 130.90 C 143.83 131.73 144.69 132.21 145.52 131.97 Z M 146.49 131.68 L 147.46 131.40 C 148.29 131.16 148.77 130.29 148.52 129.46 C 148.28 128.64 147.42 128.16 146.59 128.40 L 145.61 128.68 C 144.79 128.93 144.31 129.79 144.55 130.62 C 144.79 131.45 145.66 131.92 146.49 131.68 Z M 147.46 131.40 L 148.44 131.12 C 149.26 130.88 149.74 130.01 149.50 129.18 C 149.26 128.35 148.39 127.88 147.57 128.12 L 146.59 128.40 C 145.76 128.64 145.29 129.51 145.53 130.33 C 145.77 131.16 146.63 131.64 147.46 131.40 Z M 148.43 131.12 L 149.40 130.84 C 150.23 130.60 150.71 129.73 150.47 128.90 C 150.23 128.08 149.37 127.60 148.54 127.84 L 147.57 128.12 C 146.74 128.36 146.26 129.22 146.50 130.05 C 146.74 130.88 147.60 131.36 148.43 131.12 Z M 149.40 130.84 L 150.37 130.56 C 151.19 130.32 151.67 129.46 151.44 128.63 C 151.20 127.80 150.34 127.32 149.51 127.56 L 148.54 127.84 C 147.71 128.07 147.23 128.94 147.47 129.77 C 147.71 130.60 148.57 131.07 149.40 130.84 Z M 150.36 130.56 L 151.31 130.29 C 152.14 130.06 152.63 129.19 152.39 128.36 C 152.15 127.54 151.29 127.05 150.46 127.29 L 149.51 127.56 C 148.68 127.79 148.20 128.66 148.43 129.49 C 148.67 130.32 149.53 130.80 150.36 130.56 Z M 151.31 130.29 L 152.24 130.03 C 153.07 129.80 153.56 128.94 153.33 128.11 C 153.09 127.28 152.23 126.79 151.40 127.03 L 150.47 127.29 C 149.64 127.52 149.15 128.38 149.38 129.21 C 149.62 130.04 150.48 130.53 151.31 130.29 Z M 152.24 130.03 L 153.23 129.76 C 154.06 129.53 154.55 128.67 154.32 127.84 C 154.09 127.01 153.23 126.52 152.40 126.75 L 151.41 127.02 C 150.58 127.25 150.09 128.11 150.32 128.94 C 150.55 129.78 151.41 130.26 152.24 130.03 Z M 153.22 129.76 L 154.22 129.49 C 155.05 129.26 155.54 128.41 155.32 127.57 C 155.09 126.74 154.23 126.25 153.40 126.48 L 152.40 126.75 C 151.57 126.97 151.08 127.83 151.31 128.66 C 151.53 129.50 152.39 129.99 153.22 129.76 Z M 154.21 129.49 L 155.19 129.23 C 156.02 129.01 156.52 128.15 156.30 127.32 C 156.07 126.49 155.22 125.99 154.38 126.21 L 153.41 126.48 C 152.57 126.70 152.08 127.55 152.30 128.39 C 152.52 129.22 153.38 129.71 154.21 129.49 Z M 155.18 129.23 L 156.14 128.98 C 156.98 128.76 157.48 127.91 157.26 127.07 C 157.04 126.24 156.18 125.74 155.35 125.96 L 154.39 126.21 C 153.56 126.43 153.06 127.29 153.28 128.12 C 153.50 128.95 154.35 129.45 155.18 129.23 Z M 156.14 128.98 L 157.09 128.74 C 157.92 128.52 158.42 127.67 158.21 126.83 C 157.99 126.00 157.14 125.50 156.30 125.71 L 155.36 125.96 C 154.52 126.17 154.02 127.03 154.24 127.86 C 154.45 128.70 155.30 129.20 156.14 128.98 Z M 157.08 128.74 L 158.02 128.50 C 158.86 128.29 159.36 127.44 159.15 126.60 C 158.94 125.76 158.09 125.26 157.25 125.47 L 156.31 125.71 C 155.47 125.92 154.97 126.77 155.18 127.61 C 155.40 128.45 156.25 128.95 157.08 128.74 Z M 158.02 128.50 L 158.96 128.26 C 159.80 128.05 160.31 127.20 160.10 126.37 C 159.89 125.53 159.04 125.02 158.20 125.23 L 157.26 125.47 C 156.42 125.68 155.91 126.53 156.12 127.37 C 156.33 128.20 157.18 128.71 158.02 128.50 Z M 158.96 128.26 L 159.94 128.02 C 160.77 127.81 161.29 126.97 161.08 126.13 C 160.87 125.29 160.02 124.78 159.19 124.99 L 158.21 125.23 C 157.37 125.44 156.86 126.29 157.07 127.12 C 157.27 127.96 158.12 128.47 158.96 128.26 Z M 159.93 128.02 L 160.91 127.79 C 161.75 127.58 162.26 126.74 162.06 125.90 C 161.86 125.06 161.01 124.55 160.18 124.75 L 159.20 124.99 C 158.36 125.19 157.84 126.03 158.05 126.87 C 158.25 127.71 159.09 128.23 159.93 128.02 Z M 160.90 127.79 L 161.88 127.56 C 162.72 127.36 163.24 126.52 163.04 125.68 C 162.84 124.84 162.00 124.32 161.16 124.52 L 160.18 124.75 C 159.35 124.95 158.83 125.79 159.02 126.63 C 159.22 127.47 160.06 127.99 160.90 127.79 Z M 161.87 127.56 L 162.84 127.34 C 163.68 127.15 164.21 126.31 164.02 125.47 C 163.83 124.63 162.99 124.10 162.15 124.29 L 161.17 124.52 C 160.33 124.71 159.81 125.54 160.00 126.38 C 160.19 127.22 161.03 127.75 161.87 127.56 Z M 162.83 127.34 L 163.80 127.13 C 164.64 126.95 165.17 126.12 164.99 125.27 C 164.81 124.43 163.97 123.90 163.13 124.08 L 162.16 124.29 C 161.32 124.47 160.79 125.31 160.97 126.15 C 161.15 126.99 161.98 127.53 162.83 127.34 Z M 163.78 127.13 L 164.74 126.93 C 165.59 126.76 166.13 125.93 165.96 125.09 C 165.78 124.25 164.96 123.70 164.11 123.88 L 163.15 124.08 C 162.30 124.25 161.76 125.08 161.93 125.92 C 162.11 126.77 162.94 127.31 163.78 127.13 Z M 164.72 126.94 L 165.74 126.74 C 166.59 126.58 167.14 125.76 166.98 124.91 C 166.81 124.07 165.99 123.51 165.15 123.68 L 164.13 123.87 C 163.28 124.04 162.73 124.86 162.89 125.70 C 163.06 126.55 163.88 127.10 164.72 126.94 Z M 165.72 126.75 L 166.73 126.56 C 167.58 126.41 168.14 125.60 167.99 124.75 C 167.83 123.90 167.02 123.34 166.17 123.49 L 165.17 123.67 C 164.32 123.83 163.75 124.64 163.91 125.49 C 164.06 126.33 164.87 126.90 165.72 126.75 Z M 166.71 126.57 L 167.70 126.40 C 168.55 126.26 169.13 125.46 168.99 124.61 C 168.84 123.75 168.04 123.18 167.19 123.32 L 166.19 123.49 C 165.34 123.63 164.77 124.43 164.91 125.28 C 165.05 126.13 165.86 126.71 166.71 126.57 Z M 167.68 126.40 L 168.66 126.25 C 169.52 126.12 170.10 125.33 169.97 124.47 C 169.84 123.62 169.04 123.04 168.19 123.17 L 167.21 123.32 C 166.36 123.45 165.77 124.25 165.90 125.10 C 166.03 125.95 166.83 126.54 167.68 126.40 Z M 168.64 126.26 L 169.61 126.12 C 170.46 126.00 171.06 125.21 170.94 124.36 C 170.82 123.51 170.03 122.91 169.18 123.03 L 168.21 123.17 C 167.36 123.28 166.76 124.07 166.88 124.93 C 167.00 125.78 167.79 126.38 168.64 126.26 Z M 169.59 126.13 L 170.55 126.00 C 171.41 125.90 172.02 125.12 171.91 124.26 C 171.80 123.41 171.02 122.80 170.16 122.91 L 169.20 123.03 C 168.34 123.13 167.74 123.92 167.85 124.77 C 167.95 125.63 168.73 126.23 169.59 126.13 Z M 170.53 126.01 L 171.58 125.89 C 172.44 125.80 173.06 125.02 172.96 124.17 C 172.87 123.31 172.10 122.69 171.24 122.79 L 170.19 122.90 C 169.33 123.00 168.71 123.77 168.81 124.63 C 168.90 125.48 169.67 126.10 170.53 126.01 Z M 171.56 125.89 L 172.59 125.80 C 173.45 125.71 174.08 124.95 173.99 124.09 C 173.91 123.23 173.15 122.60 172.29 122.69 L 171.26 122.78 C 170.40 122.86 169.77 123.63 169.86 124.49 C 169.94 125.35 170.70 125.98 171.56 125.89 Z M 172.56 125.80 L 173.56 125.72 C 174.42 125.65 175.06 124.90 174.99 124.04 C 174.92 123.18 174.17 122.53 173.31 122.60 L 172.31 122.68 C 171.45 122.75 170.81 123.50 170.88 124.37 C 170.95 125.23 171.70 125.87 172.56 125.80 Z M 173.54 125.72 L 174.50 125.66 C 175.36 125.60 176.02 124.86 175.96 124.00 C 175.91 123.13 175.16 122.48 174.30 122.54 L 173.33 122.60 C 172.47 122.66 171.82 123.40 171.87 124.26 C 171.93 125.12 172.67 125.78 173.54 125.72 Z M 174.48 125.66 L 175.41 125.61 C 176.28 125.57 176.94 124.84 176.90 123.97 C 176.85 123.11 176.12 122.45 175.26 122.49 L 174.32 122.54 C 173.46 122.58 172.79 123.31 172.84 124.18 C 172.88 125.04 173.62 125.70 174.48 125.66 Z M 175.39 125.62 L 176.45 125.58 C 177.32 125.55 178.00 124.83 177.97 123.96 C 177.94 123.10 177.21 122.42 176.34 122.45 L 175.28 122.48 C 174.41 122.51 173.74 123.24 173.77 124.11 C 173.80 124.97 174.52 125.65 175.39 125.62 Z M 176.43 125.59 L 177.45 125.57 C 178.32 125.55 179.01 124.83 179.00 123.96 C 178.98 123.09 178.26 122.40 177.39 122.42 L 176.37 122.44 C 175.50 122.46 174.81 123.18 174.82 124.05 C 174.84 124.92 175.56 125.61 176.43 125.59 Z M 177.44 125.57 L 178.42 125.57 C 179.29 125.56 179.99 124.85 179.99 123.97 C 179.98 123.10 179.27 122.40 178.39 122.41 L 177.41 122.42 C 176.54 122.42 175.84 123.14 175.84 124.01 C 175.85 124.88 176.56 125.58 177.44 125.57 Z M 178.41 125.57 L 179.36 125.57 C 180.23 125.57 180.94 124.86 180.94 123.98 C 180.94 123.11 180.23 122.40 179.35 122.40 L 178.40 122.40 C 177.53 122.40 176.82 123.11 176.82 123.99 C 176.82 124.87 177.53 125.57 178.41 125.57 Z M 179.35 125.58 L 180.38 125.58 C 181.25 125.58 181.97 124.87 181.97 123.99 C 181.98 123.12 181.27 122.40 180.39 122.40 L 179.36 122.39 C 178.48 122.39 177.77 123.10 177.76 123.98 C 177.76 124.86 178.47 125.57 179.35 125.58 Z M 180.29 125.58 L 181.32 125.64 C 182.20 125.69 182.95 125.01 183.00 124.13 C 183.05 123.25 182.38 122.50 181.50 122.45 L 180.47 122.40 C 179.59 122.35 178.84 123.02 178.79 123.90 C 178.74 124.78 179.41 125.53 180.29 125.58 Z M 181.10 125.61 L 182.04 125.80 C 182.91 125.98 183.75 125.42 183.93 124.55 C 184.10 123.68 183.54 122.84 182.67 122.67 L 181.72 122.48 C 180.86 122.30 180.02 122.87 179.84 123.73 C 179.67 124.60 180.23 125.44 181.10 125.61 Z M 181.67 125.68 L 182.51 126.08 C 183.30 126.46 184.26 126.13 184.64 125.33 C 185.02 124.53 184.69 123.57 183.89 123.19 L 183.05 122.79 C 182.25 122.41 181.29 122.75 180.91 123.54 C 180.53 124.34 180.87 125.30 181.67 125.68 Z M 182.12 125.82 L 182.74 126.39 C 183.40 126.99 184.41 126.94 185.01 126.29 C 185.61 125.63 185.56 124.62 184.90 124.02 L 184.28 123.45 C 183.62 122.85 182.61 122.90 182.01 123.56 C 181.41 124.21 181.46 125.23 182.12 125.82 Z M 182.48 126.09 L 182.99 126.87 C 183.48 127.61 184.48 127.81 185.22 127.32 C 185.96 126.83 186.16 125.83 185.67 125.09 L 185.16 124.32 C 184.67 123.58 183.68 123.38 182.94 123.87 C 182.20 124.36 181.99 125.35 182.48 126.09 Z M 182.84 126.57 L 183.22 127.53 C 183.55 128.36 184.48 128.76 185.31 128.43 C 186.13 128.10 186.54 127.17 186.21 126.34 L 185.83 125.39 C 185.50 124.56 184.57 124.16 183.74 124.48 C 182.91 124.81 182.51 125.75 182.84 126.57 Z M 183.14 127.26 L 183.37 128.39 C 183.55 129.26 184.40 129.82 185.27 129.64 C 186.14 129.46 186.70 128.61 186.52 127.74 L 186.29 126.61 C 186.11 125.74 185.26 125.18 184.39 125.36 C 183.52 125.54 182.96 126.39 183.14 127.26 Z M 183.34 128.18 L 183.41 129.16 C 183.48 130.05 184.25 130.72 185.13 130.65 C 186.02 130.59 186.69 129.82 186.63 128.93 L 186.55 127.95 C 186.49 127.06 185.72 126.39 184.83 126.46 C 183.94 126.52 183.28 127.29 183.34 128.18 Z M 183.41 129.02 L 183.39 130.01 C 183.37 130.90 184.08 131.63 184.97 131.65 C 185.86 131.66 186.60 130.95 186.61 130.06 L 186.63 129.08 C 186.65 128.18 185.94 127.45 185.05 127.43 C 184.16 127.42 183.42 128.13 183.41 129.02 Z M 183.39 129.89 L 183.30 130.91 C 183.23 131.80 183.88 132.58 184.77 132.66 C 185.66 132.74 186.44 132.08 186.52 131.19 L 186.61 130.17 C 186.69 129.29 186.03 128.50 185.14 128.42 C 184.25 128.35 183.47 129.00 183.39 129.89 Z M 183.31 130.81 L 183.16 131.84 C 183.03 132.72 183.64 133.54 184.52 133.67 C 185.41 133.80 186.23 133.19 186.36 132.31 L 186.51 131.29 C 186.64 130.41 186.03 129.58 185.15 129.45 C 184.27 129.32 183.44 129.93 183.31 130.81 Z M 183.18 131.75 L 182.97 132.75 C 182.79 133.62 183.35 134.48 184.23 134.66 C 185.10 134.84 185.96 134.28 186.14 133.40 L 186.34 132.40 C 186.52 131.52 185.96 130.67 185.09 130.49 C 184.21 130.31 183.36 130.87 183.18 131.75 Z M 182.99 132.66 L 182.73 133.62 C 182.51 134.49 183.02 135.38 183.89 135.60 C 184.75 135.83 185.64 135.31 185.87 134.45 L 186.12 133.49 C 186.35 132.62 185.83 131.74 184.97 131.51 C 184.10 131.28 183.22 131.80 182.99 132.66 Z M 182.76 133.53 L 182.43 134.52 C 182.15 135.37 182.62 136.29 183.47 136.57 C 184.32 136.85 185.23 136.39 185.51 135.54 L 185.84 134.54 C 186.12 133.69 185.66 132.78 184.81 132.50 C 183.96 132.22 183.04 132.68 182.76 133.53 Z M 182.47 134.43 L 182.10 135.36 C 181.77 136.19 182.17 137.13 183.00 137.46 C 183.84 137.80 184.78 137.39 185.11 136.56 L 185.48 135.63 C 185.81 134.80 185.41 133.85 184.57 133.52 C 183.74 133.19 182.80 133.60 182.47 134.43 Z M 182.13 135.28 L 181.72 136.16 C 181.35 136.97 181.70 137.94 182.51 138.32 C 183.33 138.69 184.29 138.34 184.67 137.52 L 185.08 136.64 C 185.45 135.82 185.10 134.86 184.29 134.48 C 183.47 134.11 182.51 134.46 182.13 135.28 Z M 181.75 136.10 L 181.30 136.97 C 180.89 137.77 181.21 138.75 182.01 139.16 C 182.81 139.56 183.79 139.25 184.20 138.45 L 184.64 137.58 C 185.05 136.79 184.74 135.81 183.94 135.40 C 183.14 134.99 182.16 135.30 181.75 136.10 Z M 181.32 136.93 L 180.84 137.80 C 180.41 138.59 180.70 139.58 181.49 140.01 C 182.28 140.44 183.27 140.15 183.70 139.37 L 184.18 138.49 C 184.61 137.70 184.32 136.71 183.53 136.28 C 182.74 135.85 181.76 136.14 181.32 136.93 Z M 180.86 137.78 L 180.39 138.61 C 179.94 139.39 180.22 140.38 181.00 140.83 C 181.78 141.27 182.77 140.99 183.22 140.21 L 183.69 139.38 C 184.13 138.60 183.85 137.61 183.07 137.17 C 182.29 136.73 181.30 137.00 180.86 137.78 Z M 180.40 138.59 L 179.90 139.44 C 179.45 140.21 179.71 141.21 180.49 141.66 C 181.26 142.11 182.26 141.85 182.71 141.08 L 183.21 140.23 C 183.66 139.45 183.40 138.46 182.62 138.01 C 181.85 137.56 180.85 137.82 180.40 138.59 Z M 179.92 139.42 L 179.40 140.28 C 178.94 141.04 179.18 142.04 179.95 142.51 C 180.72 142.97 181.72 142.72 182.18 141.96 L 182.70 141.10 C 183.16 140.33 182.92 139.33 182.15 138.87 C 181.38 138.40 180.38 138.65 179.92 139.42 Z M 179.42 140.25 L 178.87 141.12 C 178.40 141.88 178.63 142.88 179.39 143.35 C 180.14 143.83 181.15 143.60 181.62 142.84 L 182.16 141.98 C 182.64 141.22 182.41 140.22 181.65 139.74 C 180.89 139.27 179.89 139.49 179.42 140.25 Z M 178.89 141.09 L 178.33 141.95 C 177.84 142.70 178.05 143.70 178.79 144.20 C 179.54 144.69 180.55 144.48 181.04 143.73 L 181.60 142.87 C 182.09 142.12 181.89 141.11 181.14 140.62 C 180.39 140.13 179.38 140.34 178.89 141.09 Z M 178.35 141.92 L 177.78 142.75 C 177.27 143.48 177.46 144.49 178.19 145.00 C 178.93 145.51 179.94 145.32 180.45 144.59 L 181.02 143.76 C 181.53 143.02 181.34 142.01 180.60 141.51 C 179.87 141.00 178.86 141.18 178.35 141.92 Z M 177.80 142.72 L 177.23 143.51 C 176.71 144.23 176.87 145.25 177.60 145.77 C 178.32 146.29 179.33 146.13 179.86 145.41 L 180.43 144.62 C 180.95 143.89 180.79 142.88 180.06 142.35 C 179.34 141.83 178.32 141.99 177.80 142.72 Z M 177.25 143.48 L 176.66 144.27 C 176.12 144.98 176.26 146.00 176.98 146.54 C 177.70 147.08 178.71 146.93 179.25 146.22 L 179.84 145.43 C 180.38 144.71 180.24 143.70 179.52 143.16 C 178.80 142.62 177.79 142.77 177.25 143.48 Z M 176.67 144.24 L 176.06 145.03 C 175.51 145.74 175.64 146.76 176.35 147.31 C 177.05 147.86 178.07 147.73 178.63 147.02 L 179.24 146.24 C 179.79 145.53 179.66 144.51 178.95 143.96 C 178.24 143.41 177.22 143.54 176.67 144.24 Z M 176.07 145.01 L 175.44 145.80 C 174.88 146.50 174.99 147.52 175.69 148.08 C 176.40 148.65 177.42 148.53 177.98 147.83 L 178.61 147.04 C 179.17 146.34 179.06 145.32 178.36 144.76 C 177.66 144.20 176.64 144.31 176.07 145.01 Z M 175.45 145.78 L 174.80 146.58 C 174.23 147.28 174.33 148.30 175.03 148.87 C 175.72 149.44 176.75 149.34 177.32 148.65 L 177.97 147.85 C 178.54 147.15 178.44 146.13 177.74 145.56 C 177.05 144.99 176.02 145.09 175.45 145.78 Z M 174.81 146.57 L 174.17 147.33 C 173.60 148.02 173.69 149.05 174.38 149.62 C 175.07 150.20 176.10 150.11 176.68 149.41 L 177.31 148.66 C 177.88 147.97 177.79 146.94 177.10 146.36 C 176.41 145.79 175.38 145.88 174.81 146.57 Z M 174.18 147.32 L 173.56 148.05 C 172.98 148.74 173.07 149.77 173.75 150.35 C 174.44 150.93 175.47 150.84 176.05 150.16 L 176.67 149.42 C 177.25 148.74 177.16 147.71 176.48 147.13 C 175.79 146.55 174.76 146.63 174.18 147.32 Z M 173.57 148.05 L 172.93 148.79 C 172.35 149.48 172.43 150.50 173.11 151.09 C 173.80 151.67 174.82 151.59 175.41 150.91 L 176.04 150.16 C 176.63 149.48 176.55 148.45 175.86 147.87 C 175.18 147.28 174.15 147.36 173.57 148.05 Z M 172.94 148.79 L 172.29 149.54 C 171.70 150.22 171.77 151.25 172.45 151.84 C 173.14 152.43 174.16 152.35 174.75 151.67 L 175.40 150.91 C 175.99 150.23 175.92 149.20 175.23 148.62 C 174.55 148.03 173.52 148.10 172.94 148.79 Z M 172.29 149.54 L 171.62 150.30 C 171.03 150.98 171.10 152.01 171.78 152.60 C 172.46 153.19 173.49 153.12 174.08 152.44 L 174.75 151.67 C 175.34 151.00 175.27 149.97 174.59 149.38 C 173.91 148.79 172.88 148.86 172.29 149.54 Z M 171.63 150.30 L 170.95 151.07 C 170.35 151.75 170.42 152.78 171.10 153.37 C 171.77 153.96 172.80 153.90 173.40 153.22 L 174.08 152.44 C 174.67 151.77 174.60 150.74 173.93 150.15 C 173.25 149.55 172.22 149.62 171.63 150.30 Z M 170.95 151.07 L 170.26 151.85 C 169.66 152.53 169.73 153.56 170.40 154.15 C 171.08 154.75 172.10 154.68 172.70 154.01 L 173.39 153.22 C 173.99 152.55 173.92 151.52 173.25 150.93 C 172.58 150.33 171.55 150.39 170.95 151.07 Z M 170.26 151.85 L 169.62 152.57 C 169.02 153.25 169.08 154.27 169.76 154.87 C 170.43 155.47 171.46 155.41 172.06 154.73 L 172.70 154.01 C 173.29 153.34 173.23 152.31 172.56 151.71 C 171.89 151.12 170.86 151.18 170.26 151.85 Z M 169.62 152.57 L 168.98 153.30 C 168.38 153.97 168.44 155.00 169.11 155.60 C 169.78 156.19 170.81 156.13 171.41 155.46 L 172.05 154.74 C 172.65 154.07 172.59 153.04 171.92 152.44 C 171.25 151.84 170.22 151.90 169.62 152.57 Z M 168.98 153.30 L 168.32 154.03 C 167.72 154.70 167.78 155.73 168.45 156.33 C 169.12 156.93 170.15 156.87 170.75 156.20 L 171.41 155.46 C 172.00 154.79 171.94 153.76 171.27 153.17 C 170.60 152.57 169.57 152.63 168.98 153.30 Z M 168.32 154.03 L 167.66 154.78 C 167.06 155.45 167.12 156.48 167.79 157.07 C 168.46 157.67 169.49 157.61 170.09 156.94 L 170.75 156.20 C 171.35 155.53 171.29 154.50 170.62 153.90 C 169.95 153.30 168.92 153.36 168.32 154.03 Z M 167.66 154.78 L 166.99 155.53 C 166.39 156.21 166.45 157.23 167.12 157.83 C 167.79 158.43 168.82 158.37 169.42 157.69 L 170.09 156.94 C 170.68 156.27 170.62 155.24 169.95 154.64 C 169.28 154.05 168.25 154.11 167.66 154.78 Z M 166.98 155.54 L 166.31 156.30 C 165.71 156.98 165.78 158.00 166.45 158.60 C 167.12 159.19 168.15 159.13 168.74 158.46 L 169.42 157.69 C 170.01 157.02 169.95 155.99 169.28 155.40 C 168.61 154.80 167.58 154.87 166.98 155.54 Z M 166.30 156.31 L 165.62 157.08 C 165.03 157.76 165.10 158.78 165.77 159.38 C 166.44 159.97 167.47 159.90 168.06 159.23 L 168.74 158.45 C 169.34 157.78 169.27 156.75 168.60 156.16 C 167.92 155.57 166.90 155.63 166.30 156.31 Z M 165.62 157.09 L 164.96 157.84 C 164.37 158.52 164.44 159.54 165.12 160.13 C 165.80 160.72 166.82 160.65 167.41 159.97 L 168.06 159.22 C 168.65 158.55 168.58 157.52 167.91 156.93 C 167.23 156.34 166.21 156.41 165.62 157.09 Z M 164.96 157.84 L 164.32 158.58 C 163.74 159.26 163.81 160.28 164.49 160.87 C 165.16 161.46 166.19 161.38 166.78 160.71 L 167.41 159.97 C 168.00 159.29 167.93 158.27 167.25 157.68 C 166.57 157.09 165.55 157.17 164.96 157.84 Z M 164.32 158.59 L 163.68 159.33 C 163.09 160.01 163.17 161.04 163.85 161.62 C 164.53 162.21 165.56 162.13 166.14 161.45 L 166.78 160.70 C 167.36 160.02 167.29 159.00 166.61 158.41 C 165.93 157.83 164.90 157.91 164.32 158.59 Z M 163.67 159.34 L 163.03 160.10 C 162.45 160.78 162.53 161.80 163.21 162.38 C 163.90 162.96 164.92 162.88 165.50 162.20 L 166.14 161.44 C 166.72 160.76 166.64 159.74 165.96 159.16 C 165.28 158.58 164.25 158.66 163.67 159.34 Z M 163.02 160.10 L 162.38 160.87 C 161.80 161.55 161.89 162.58 162.57 163.15 C 163.26 163.73 164.28 163.64 164.86 162.96 L 165.50 162.19 C 166.08 161.51 165.99 160.49 165.31 159.91 C 164.62 159.33 163.60 159.42 163.02 160.10 Z M 162.37 160.88 L 161.73 161.65 C 161.15 162.34 161.24 163.36 161.93 163.93 C 162.62 164.51 163.64 164.42 164.21 163.73 L 164.86 162.95 C 165.43 162.27 165.34 161.24 164.66 160.67 C 163.97 160.10 162.95 160.19 162.37 160.88 Z M 161.72 161.66 L 161.07 162.44 C 160.50 163.13 160.60 164.15 161.29 164.72 C 161.98 165.29 163.00 165.20 163.57 164.51 L 164.22 163.72 C 164.79 163.03 164.69 162.01 164.00 161.44 C 163.31 160.87 162.29 160.97 161.72 161.66 Z M 161.07 162.45 L 160.42 163.24 C 159.85 163.93 159.95 164.95 160.64 165.52 C 161.34 166.09 162.36 165.99 162.92 165.29 L 163.57 164.50 C 164.14 163.81 164.04 162.79 163.35 162.22 C 162.65 161.66 161.63 161.76 161.07 162.45 Z M 160.41 163.25 L 159.79 164.02 C 159.23 164.71 159.33 165.73 160.03 166.29 C 160.72 166.86 161.74 166.75 162.30 166.06 L 162.93 165.29 C 163.49 164.59 163.38 163.57 162.69 163.01 C 162.00 162.45 160.98 162.55 160.41 163.25 Z M 159.78 164.02 L 159.17 164.78 C 158.61 165.48 158.73 166.50 159.42 167.06 C 160.12 167.62 161.14 167.51 161.70 166.81 L 162.31 166.05 C 162.87 165.35 162.76 164.33 162.06 163.77 C 161.36 163.21 160.34 163.32 159.78 164.02 Z M 159.17 164.79 L 158.56 165.55 C 158.00 166.25 158.12 167.28 158.82 167.83 C 159.52 168.39 160.54 168.27 161.10 167.57 L 161.71 166.81 C 162.27 166.10 162.15 165.08 161.45 164.53 C 160.75 163.97 159.73 164.08 159.17 164.79 Z M 158.55 165.56 L 157.94 166.33 C 157.38 167.04 157.51 168.06 158.21 168.62 C 158.92 169.17 159.94 169.05 160.49 168.34 L 161.10 167.57 C 161.66 166.86 161.54 165.84 160.83 165.29 C 160.13 164.73 159.11 164.85 158.55 165.56 Z M 157.93 166.34 L 157.32 167.13 C 156.77 167.83 156.90 168.86 157.60 169.41 C 158.31 169.96 159.33 169.83 159.89 169.13 L 160.50 168.34 C 161.05 167.63 160.92 166.61 160.22 166.06 C 159.51 165.50 158.49 165.63 157.93 166.34 Z M 157.31 167.13 L 156.70 167.93 C 156.15 168.64 156.28 169.66 156.99 170.21 C 157.71 170.76 158.73 170.63 159.28 169.92 L 159.89 169.12 C 160.44 168.41 160.31 167.39 159.60 166.84 C 158.89 166.29 157.86 166.42 157.31 167.13 Z M 156.69 167.93 L 156.08 168.74 C 155.53 169.46 155.67 170.48 156.38 171.03 C 157.10 171.57 158.12 171.44 158.67 170.72 L 159.28 169.91 C 159.83 169.20 159.69 168.17 158.98 167.63 C 158.26 167.08 157.24 167.22 156.69 167.93 Z M 156.07 168.74 L 155.45 169.56 C 154.90 170.28 155.05 171.31 155.77 171.85 C 156.48 172.40 157.51 172.25 158.05 171.53 L 158.67 170.72 C 159.22 170.00 159.08 168.97 158.36 168.43 C 157.64 167.88 156.61 168.03 156.07 168.74 Z M 155.44 169.57 L 154.82 170.39 C 154.28 171.12 154.43 172.14 155.15 172.68 C 155.87 173.22 156.90 173.08 157.44 172.36 L 158.06 171.53 C 158.60 170.81 158.45 169.78 157.73 169.24 C 157.01 168.70 155.98 168.85 155.44 169.57 Z M 154.82 170.40 L 154.22 171.21 C 153.68 171.93 153.83 172.95 154.56 173.49 C 155.28 174.03 156.31 173.88 156.85 173.16 L 157.45 172.35 C 157.98 171.62 157.83 170.60 157.11 170.06 C 156.38 169.52 155.36 169.67 154.82 170.40 Z M 154.22 171.21 L 153.62 172.02 C 153.08 172.75 153.24 173.78 153.96 174.31 C 154.69 174.85 155.71 174.69 156.25 173.97 L 156.85 173.15 C 157.39 172.42 157.23 171.40 156.50 170.86 C 155.78 170.33 154.75 170.48 154.22 171.21 Z M 153.61 172.03 L 153.01 172.85 C 152.48 173.58 152.64 174.60 153.37 175.13 C 154.10 175.67 155.12 175.51 155.65 174.78 L 156.25 173.96 C 156.79 173.23 156.63 172.21 155.90 171.68 C 155.17 171.14 154.15 171.30 153.61 172.03 Z M 153.01 172.85 L 152.41 173.67 C 151.88 174.40 152.04 175.43 152.77 175.96 C 153.50 176.49 154.53 176.33 155.06 175.60 L 155.66 174.78 C 156.19 174.05 156.03 173.02 155.30 172.49 C 154.56 171.96 153.54 172.12 153.01 172.85 Z M 152.41 173.68 L 151.82 174.50 C 151.29 175.23 151.45 176.25 152.19 176.78 C 152.92 177.31 153.94 177.14 154.47 176.41 L 155.06 175.59 C 155.59 174.86 155.43 173.84 154.69 173.31 C 153.96 172.78 152.94 172.94 152.41 173.68 Z M 151.82 174.50 L 151.23 175.31 C 150.70 176.05 150.87 177.07 151.60 177.60 C 152.34 178.12 153.36 177.96 153.89 177.22 L 154.47 176.41 C 155.00 175.68 154.83 174.65 154.10 174.13 C 153.37 173.60 152.34 173.77 151.82 174.50 Z M 151.23 175.32 L 150.65 176.12 C 150.12 176.86 150.29 177.88 151.03 178.40 C 151.76 178.93 152.78 178.76 153.31 178.03 L 153.89 177.22 C 154.41 176.49 154.25 175.46 153.51 174.94 C 152.78 174.41 151.75 174.58 151.23 175.32 Z M 150.65 176.12 L 150.08 176.92 C 149.56 177.65 149.73 178.68 150.46 179.20 C 151.20 179.73 152.22 179.55 152.74 178.82 L 153.31 178.02 C 153.84 177.29 153.67 176.27 152.93 175.74 C 152.20 175.22 151.17 175.39 150.65 176.12 Z M 150.08 176.92 L 149.51 177.73 C 148.98 178.46 149.15 179.49 149.89 180.01 C 150.63 180.53 151.65 180.36 152.17 179.62 L 152.75 178.82 C 153.27 178.08 153.10 177.06 152.36 176.54 C 151.63 176.01 150.60 176.18 150.08 176.92 Z M 149.50 177.73 L 148.90 178.58 C 148.37 179.32 148.55 180.34 149.28 180.87 C 150.02 181.39 151.04 181.22 151.57 180.48 L 152.17 179.62 C 152.70 178.89 152.52 177.86 151.79 177.34 C 151.05 176.82 150.03 176.99 149.50 177.73 Z M 148.89 178.58 L 148.30 179.42 C 147.78 180.16 147.95 181.18 148.69 181.70 C 149.43 182.23 150.45 182.05 150.98 181.32 L 151.57 180.48 C 152.09 179.74 151.92 178.72 151.18 178.19 C 150.44 177.67 149.42 177.84 148.89 178.58 Z M 148.30 179.42 L 147.72 180.24 C 147.19 180.98 147.37 182.00 148.11 182.53 C 148.85 183.05 149.87 182.88 150.39 182.14 L 150.98 181.32 C 151.50 180.58 151.33 179.55 150.59 179.03 C 149.85 178.51 148.82 178.68 148.30 179.42 Z M 147.72 180.24 L 147.14 181.05 C 146.62 181.79 146.79 182.81 147.53 183.34 C 148.27 183.86 149.30 183.69 149.82 182.95 L 150.40 182.14 C 150.92 181.40 150.75 180.38 150.01 179.85 C 149.27 179.33 148.24 179.50 147.72 180.24 Z M 147.14 181.05 L 146.57 181.85 C 146.05 182.59 146.22 183.61 146.96 184.14 C 147.70 184.66 148.73 184.49 149.25 183.75 L 149.82 182.95 C 150.35 182.21 150.17 181.19 149.43 180.66 C 148.69 180.13 147.67 180.31 147.14 181.05 Z M 146.57 181.84 L 146.01 182.64 C 145.48 183.38 145.65 184.40 146.39 184.93 C 147.13 185.46 148.16 185.29 148.69 184.55 L 149.25 183.75 C 149.78 183.02 149.61 181.99 148.87 181.46 C 148.13 180.93 147.10 181.10 146.57 181.84 Z M 146.01 182.63 L 145.44 183.42 C 144.91 184.16 145.08 185.19 145.82 185.72 C 146.56 186.25 147.59 186.08 148.12 185.34 L 148.68 184.55 C 149.21 183.81 149.05 182.78 148.31 182.25 C 147.57 181.72 146.54 181.89 146.01 182.63 Z M 145.45 183.42 L 144.87 184.21 C 144.34 184.94 144.51 185.97 145.24 186.51 C 145.98 187.04 147.01 186.87 147.54 186.14 L 148.12 185.35 C 148.65 184.61 148.48 183.58 147.75 183.04 C 147.01 182.51 145.98 182.68 145.45 183.42 Z M 144.88 184.20 L 144.29 185.00 C 143.76 185.74 143.92 186.77 144.66 187.31 C 145.39 187.84 146.42 187.68 146.96 186.94 L 147.54 186.14 C 148.08 185.41 147.92 184.38 147.18 183.84 C 146.44 183.30 145.41 183.47 144.88 184.20 Z M 144.30 185.00 L 143.71 185.80 C 143.17 186.53 143.33 187.56 144.06 188.10 C 144.80 188.64 145.83 188.48 146.37 187.75 L 146.96 186.95 C 147.49 186.21 147.34 185.18 146.60 184.64 C 145.87 184.10 144.84 184.26 144.30 185.00 Z M 143.71 185.79 L 143.12 186.59 C 142.58 187.33 142.73 188.36 143.46 188.90 C 144.20 189.44 145.23 189.29 145.77 188.56 L 146.36 187.76 C 146.91 187.02 146.75 185.99 146.02 185.45 C 145.29 184.90 144.25 185.06 143.71 185.79 Z M 143.12 186.59 L 142.52 187.39 C 141.98 188.12 142.13 189.15 142.86 189.70 C 143.59 190.24 144.62 190.09 145.17 189.36 L 145.77 188.56 C 146.31 187.83 146.16 186.80 145.43 186.25 C 144.70 185.71 143.67 185.86 143.12 186.59 Z M 142.53 187.38 L 141.92 188.18 C 141.38 188.91 141.52 189.95 142.25 190.50 C 142.98 191.04 144.01 190.90 144.56 190.17 L 145.17 189.37 C 145.72 188.64 145.57 187.61 144.84 187.06 C 144.11 186.51 143.08 186.65 142.53 187.38 Z M 141.93 188.17 L 141.32 188.98 C 140.77 189.70 140.91 190.74 141.63 191.29 C 142.36 191.84 143.40 191.70 143.95 190.98 L 144.56 190.18 C 145.11 189.45 144.97 188.41 144.24 187.86 C 143.52 187.31 142.48 187.45 141.93 188.17 Z M 141.32 188.97 L 140.71 189.77 C 140.15 190.49 140.29 191.53 141.01 192.09 C 141.73 192.65 142.77 192.51 143.33 191.79 L 143.94 190.98 C 144.50 190.26 144.37 189.22 143.64 188.67 C 142.92 188.11 141.88 188.24 141.32 188.97 Z M 140.71 189.76 L 140.10 190.55 C 139.54 191.27 139.67 192.31 140.39 192.87 C 141.11 193.43 142.15 193.30 142.71 192.58 L 143.32 191.79 C 143.89 191.07 143.76 190.03 143.03 189.47 C 142.31 188.91 141.27 189.04 140.71 189.76 Z M 140.10 190.54 L 139.49 191.32 C 138.93 192.04 139.05 193.08 139.77 193.65 C 140.49 194.21 141.53 194.08 142.10 193.37 L 142.71 192.59 C 143.27 191.87 143.15 190.83 142.43 190.26 C 141.71 189.70 140.67 189.82 140.10 190.54 Z M 139.50 191.31 L 138.88 192.09 C 138.31 192.81 138.43 193.85 139.15 194.42 C 139.87 194.99 140.91 194.87 141.48 194.15 L 142.10 193.37 C 142.66 192.65 142.54 191.61 141.83 191.04 C 141.11 190.47 140.07 190.59 139.50 191.31 Z M 138.88 192.08 L 138.26 192.86 C 137.69 193.58 137.80 194.62 138.52 195.19 C 139.23 195.77 140.28 195.65 140.85 194.94 L 141.48 194.16 C 142.05 193.44 141.93 192.40 141.22 191.82 C 140.50 191.25 139.46 191.37 138.88 192.08 Z M 138.26 192.85 L 137.64 193.63 C 137.06 194.34 137.17 195.39 137.88 195.97 C 138.60 196.54 139.64 196.43 140.22 195.72 L 140.85 194.94 C 141.43 194.23 141.32 193.18 140.60 192.61 C 139.89 192.03 138.84 192.14 138.26 192.85 Z M 137.64 193.62 L 137.00 194.40 C 136.42 195.11 136.53 196.16 137.24 196.74 C 137.95 197.32 139.00 197.22 139.58 196.51 L 140.22 195.73 C 140.80 195.02 140.69 193.97 139.98 193.39 C 139.27 192.81 138.22 192.91 137.64 193.62 Z M 137.01 194.39 L 136.37 195.17 C 135.78 195.88 135.88 196.93 136.59 197.52 C 137.30 198.10 138.35 198.00 138.94 197.29 L 139.58 196.51 C 140.16 195.80 140.06 194.75 139.35 194.17 C 138.64 193.58 137.59 193.68 137.01 194.39 Z M 136.37 195.16 L 135.72 195.94 C 135.13 196.65 135.23 197.70 135.94 198.29 C 136.64 198.88 137.70 198.78 138.28 198.08 L 138.93 197.30 C 139.52 196.59 139.43 195.54 138.72 194.95 C 138.01 194.36 136.96 194.46 136.37 195.16 Z M 135.73 195.93 L 135.08 196.70 C 134.49 197.41 134.58 198.46 135.29 199.05 C 135.99 199.64 137.04 199.55 137.64 198.85 L 138.28 198.08 C 138.87 197.38 138.78 196.32 138.08 195.73 C 137.37 195.14 136.32 195.23 135.73 195.93 Z M 135.09 196.69 L 134.44 197.45 C 133.85 198.15 133.93 199.21 134.64 199.80 C 135.34 200.40 136.40 200.31 136.99 199.61 L 137.63 198.85 C 138.23 198.15 138.14 197.10 137.44 196.50 C 136.74 195.90 135.68 195.99 135.09 196.69 Z M 134.45 197.44 L 133.80 198.20 C 133.20 198.90 133.28 199.96 133.99 200.56 C 134.69 201.16 135.74 201.07 136.34 200.37 L 136.99 199.62 C 137.59 198.91 137.51 197.86 136.80 197.26 C 136.10 196.66 135.05 196.74 134.45 197.44 Z M 133.80 198.20 L 133.15 198.95 C 132.55 199.65 132.63 200.71 133.33 201.31 C 134.03 201.91 135.09 201.83 135.69 201.13 L 136.34 200.38 C 136.94 199.68 136.86 198.62 136.16 198.02 C 135.46 197.42 134.41 197.50 133.80 198.20 Z M 133.16 198.95 L 132.50 199.70 C 131.90 200.40 131.97 201.46 132.67 202.06 C 133.37 202.67 134.43 202.59 135.03 201.90 L 135.69 201.14 C 136.29 200.44 136.22 199.38 135.52 198.78 C 134.82 198.17 133.76 198.25 133.16 198.95 Z M 132.50 199.70 L 131.84 200.46 C 131.24 201.15 131.31 202.21 132.01 202.82 C 132.70 203.43 133.76 203.35 134.37 202.66 L 135.03 201.90 C 135.64 201.20 135.56 200.14 134.87 199.54 C 134.17 198.93 133.11 199.00 132.50 199.70 Z M 131.85 200.45 L 131.18 201.21 C 130.57 201.90 130.64 202.96 131.34 203.57 C 132.04 204.18 133.10 204.11 133.71 203.42 L 134.37 202.66 C 134.98 201.96 134.91 200.90 134.21 200.29 C 133.51 199.68 132.46 199.76 131.85 200.45 Z M 131.18 201.20 L 130.52 201.96 C 129.91 202.66 129.98 203.72 130.67 204.33 C 131.37 204.94 132.43 204.87 133.04 204.18 L 133.70 203.42 C 134.32 202.72 134.25 201.66 133.55 201.05 C 132.86 200.44 131.80 200.51 131.18 201.20 Z M 130.52 201.96 L 129.86 202.71 C 129.25 203.40 129.31 204.46 130.01 205.08 C 130.70 205.69 131.76 205.62 132.38 204.93 L 133.04 204.18 C 133.65 203.48 133.58 202.42 132.89 201.81 C 132.19 201.20 131.13 201.26 130.52 201.96 Z M 129.86 202.70 L 129.21 203.44 C 128.59 204.13 128.66 205.20 129.35 205.81 C 130.05 206.43 131.11 206.36 131.73 205.67 L 132.38 204.93 C 132.99 204.24 132.93 203.17 132.23 202.56 C 131.54 201.94 130.47 202.01 129.86 202.70 Z M 129.21 203.44 L 128.56 204.17 C 127.94 204.87 128.00 205.93 128.70 206.55 C 129.39 207.17 130.46 207.10 131.07 206.41 L 131.73 205.67 C 132.34 204.97 132.28 203.91 131.58 203.29 C 130.89 202.68 129.83 202.74 129.21 203.44 Z M 128.55 204.17 L 127.90 204.91 C 127.28 205.60 127.34 206.67 128.04 207.29 C 128.74 207.91 129.80 207.84 130.42 207.15 L 131.08 206.41 C 131.69 205.71 131.63 204.65 130.93 204.03 C 130.24 203.41 129.17 203.47 128.55 204.17 Z M 127.90 204.91 L 127.24 205.65 C 126.62 206.35 126.68 207.41 127.38 208.03 C 128.07 208.65 129.14 208.59 129.76 207.89 L 130.42 207.15 C 131.04 206.45 130.98 205.39 130.28 204.77 C 129.58 204.15 128.52 204.21 127.90 204.91 Z M 127.24 205.65 L 126.57 206.39 C 125.95 207.09 126.01 208.16 126.71 208.78 C 127.41 209.40 128.48 209.34 129.10 208.64 L 129.76 207.89 C 130.38 207.20 130.32 206.13 129.62 205.51 C 128.93 204.89 127.86 204.95 127.24 205.65 Z M 126.57 206.39 L 125.90 207.14 C 125.28 207.84 125.34 208.91 126.04 209.54 C 126.74 210.16 127.81 210.10 128.43 209.40 L 129.10 208.64 C 129.72 207.95 129.66 206.87 128.96 206.25 C 128.26 205.63 127.19 205.69 126.57 206.39 Z M 125.90 207.14 L 125.22 207.90 C 124.60 208.60 124.66 209.68 125.36 210.30 C 126.06 210.92 127.13 210.86 127.75 210.16 L 128.43 209.40 C 129.05 208.70 128.99 207.63 128.29 207.00 C 127.59 206.38 126.52 206.44 125.90 207.14 Z M 125.22 207.90 L 124.53 208.67 C 123.91 209.37 123.97 210.44 124.68 211.07 C 125.38 211.69 126.45 211.63 127.07 210.93 L 127.76 210.16 C 128.38 209.46 128.32 208.38 127.62 207.76 C 126.92 207.14 125.84 207.20 125.22 207.90 Z M 124.53 208.67 L 123.85 209.44 C 123.23 210.14 123.29 211.21 123.99 211.84 C 124.70 212.46 125.77 212.40 126.39 211.70 L 127.08 210.93 C 127.70 210.23 127.64 209.15 126.93 208.53 C 126.23 207.90 125.16 207.97 124.53 208.67 Z M 123.85 209.44 L 123.17 210.21 C 122.54 210.91 122.61 211.99 123.31 212.61 C 124.01 213.23 125.09 213.17 125.71 212.47 L 126.39 211.70 C 127.02 210.99 126.95 209.92 126.25 209.29 C 125.55 208.67 124.47 208.74 123.85 209.44 Z M 123.17 210.21 L 122.48 210.98 C 121.86 211.69 121.92 212.76 122.62 213.38 C 123.33 214.01 124.40 213.94 125.02 213.24 L 125.71 212.47 C 126.33 211.76 126.27 210.69 125.57 210.07 C 124.86 209.44 123.79 209.51 123.17 210.21 Z M 122.48 210.98 L 121.80 211.75 C 121.18 212.46 121.24 213.53 121.94 214.15 C 122.65 214.77 123.72 214.71 124.34 214.01 L 125.02 213.24 C 125.65 212.54 125.58 211.46 124.88 210.84 C 124.18 210.22 123.10 210.28 122.48 210.98 Z M 121.80 211.75 L 121.12 212.51 C 120.50 213.22 120.57 214.29 121.27 214.91 C 121.97 215.54 123.05 215.47 123.67 214.77 L 124.34 214.01 C 124.97 213.30 124.90 212.23 124.20 211.61 C 123.50 210.99 122.42 211.05 121.80 211.75 Z M 121.12 212.52 L 120.46 213.26 C 119.84 213.97 119.90 215.04 120.61 215.66 C 121.31 216.28 122.38 216.22 123.01 215.52 L 123.67 214.77 C 124.29 214.07 124.23 212.99 123.52 212.37 C 122.82 211.75 121.75 211.81 121.12 212.52 Z M 120.46 213.26 L 119.81 214.00 C 119.19 214.70 119.26 215.77 119.96 216.39 C 120.66 217.02 121.73 216.95 122.36 216.25 L 123.00 215.52 C 123.63 214.81 123.56 213.74 122.86 213.12 C 122.16 212.50 121.08 212.56 120.46 213.26 Z M 119.81 214.00 L 119.18 214.71 C 118.56 215.41 118.63 216.48 119.33 217.11 C 120.03 217.73 121.10 217.66 121.73 216.96 L 122.36 216.25 C 122.98 215.55 122.91 214.47 122.21 213.85 C 121.51 213.23 120.44 213.30 119.81 214.00 Z M 119.18 214.71 L 118.54 215.44 C 117.91 216.14 117.98 217.22 118.68 217.84 C 119.38 218.46 120.46 218.39 121.08 217.69 L 121.73 216.96 C 122.35 216.26 122.28 215.19 121.58 214.56 C 120.88 213.94 119.81 214.01 119.18 214.71 Z M 118.53 215.44 L 117.79 216.28 C 117.17 216.98 117.23 218.05 117.94 218.68 C 118.64 219.30 119.71 219.24 120.33 218.53 L 121.08 217.69 C 121.70 216.99 121.64 215.92 120.93 215.29 C 120.23 214.67 119.16 214.74 118.53 215.44 Z M 117.79 216.28 L 117.08 217.07 C 116.46 217.78 116.52 218.85 117.23 219.48 C 117.93 220.10 119.01 220.04 119.63 219.33 L 120.34 218.53 C 120.96 217.83 120.89 216.75 120.19 216.13 C 119.49 215.51 118.41 215.57 117.79 216.28 Z M 117.08 217.07 L 116.41 217.84 C 115.78 218.54 115.85 219.62 116.55 220.24 C 117.26 220.87 118.34 220.80 118.96 220.09 L 119.63 219.33 C 120.26 218.63 120.19 217.55 119.48 216.93 C 118.78 216.30 117.70 216.37 117.08 217.07 Z M 116.40 217.84 L 115.76 218.57 C 115.14 219.27 115.20 220.35 115.91 220.98 C 116.62 221.60 117.70 221.53 118.32 220.82 L 118.96 220.09 C 119.59 219.39 119.52 218.31 118.81 217.68 C 118.10 217.06 117.03 217.13 116.40 217.84 Z M 115.75 218.57 L 115.14 219.27 C 114.51 219.98 114.59 221.06 115.30 221.68 C 116.01 222.31 117.09 222.23 117.71 221.53 L 118.32 220.82 C 118.95 220.11 118.88 219.03 118.17 218.41 C 117.46 217.79 116.38 217.86 115.75 218.57 Z M 115.13 219.27 L 114.54 219.95 C 113.92 220.67 113.99 221.75 114.70 222.37 C 115.42 222.99 116.50 222.92 117.12 222.20 L 117.71 221.52 C 118.33 220.81 118.26 219.73 117.55 219.11 C 116.84 218.49 115.75 218.56 115.13 219.27 Z M 114.53 219.96 L 113.88 220.71 C 113.26 221.43 113.34 222.51 114.05 223.13 C 114.77 223.75 115.85 223.67 116.47 222.96 L 117.13 222.20 C 117.74 221.48 117.67 220.40 116.95 219.78 C 116.23 219.16 115.15 219.24 114.53 219.96 Z M 113.87 220.72 L 113.18 221.53 C 112.56 222.25 112.65 223.34 113.37 223.95 C 114.09 224.56 115.17 224.48 115.78 223.76 L 116.48 222.95 C 117.09 222.23 117.01 221.15 116.29 220.53 C 115.57 219.92 114.49 220.00 113.87 220.72 Z M 113.17 221.54 L 112.51 222.33 C 111.90 223.05 111.99 224.13 112.71 224.74 C 113.43 225.35 114.51 225.26 115.12 224.54 L 115.79 223.75 C 116.40 223.03 116.31 221.95 115.58 221.34 C 114.86 220.73 113.78 220.82 113.17 221.54 Z M 112.50 222.34 L 111.87 223.10 C 111.27 223.82 111.37 224.90 112.09 225.51 C 112.82 226.11 113.90 226.01 114.50 225.29 L 115.13 224.53 C 115.74 223.80 115.64 222.72 114.91 222.12 C 114.18 221.51 113.11 221.61 112.50 222.34 Z M 111.86 223.11 L 111.27 223.84 C 110.67 224.57 110.78 225.64 111.51 226.24 C 112.24 226.84 113.31 226.73 113.91 226.00 L 114.51 225.27 C 115.11 224.54 115.00 223.47 114.27 222.87 C 113.54 222.27 112.46 222.38 111.86 223.11 Z M 111.26 223.85 L 110.67 224.58 C 110.08 225.31 110.20 226.39 110.94 226.98 C 111.67 227.57 112.75 227.45 113.34 226.72 L 113.92 225.99 C 114.51 225.25 114.40 224.18 113.66 223.59 C 112.92 223.00 111.85 223.11 111.26 223.85 Z M 110.66 224.60 L 110.04 225.39 C 109.46 226.14 109.59 227.21 110.33 227.79 C 111.08 228.37 112.15 228.24 112.73 227.50 L 113.35 226.70 C 113.93 225.95 113.80 224.88 113.06 224.30 C 112.31 223.72 111.24 223.85 110.66 224.60 Z M 110.01 225.43 L 109.42 226.22 C 108.86 226.98 109.03 228.05 109.79 228.61 C 110.55 229.17 111.62 229.01 112.18 228.25 L 112.76 227.46 C 113.32 226.70 113.16 225.63 112.40 225.07 C 111.64 224.51 110.57 224.67 110.01 225.43 Z M 109.39 226.27 L 108.83 227.08 C 108.30 227.86 108.51 228.93 109.29 229.46 C 110.07 229.99 111.14 229.79 111.67 229.01 L 112.22 228.20 C 112.75 227.41 112.55 226.35 111.77 225.82 C 110.98 225.28 109.92 225.49 109.39 226.27 Z M 108.79 227.14 L 108.26 228.00 C 107.76 228.81 108.01 229.87 108.82 230.36 C 109.63 230.86 110.68 230.61 111.18 229.80 L 111.71 228.94 C 112.21 228.14 111.96 227.08 111.15 226.58 C 110.35 226.08 109.29 226.33 108.79 227.14 Z M 108.22 228.06 L 107.76 228.89 C 107.30 229.72 107.59 230.77 108.42 231.23 C 109.25 231.69 110.29 231.40 110.76 230.57 L 111.22 229.74 C 111.68 228.91 111.39 227.87 110.56 227.40 C 109.73 226.94 108.68 227.24 108.22 228.06 Z M 107.74 228.94 L 107.29 229.80 C 106.86 230.64 107.18 231.68 108.03 232.11 C 108.87 232.55 109.90 232.22 110.34 231.38 L 110.78 230.52 C 111.22 229.68 110.89 228.64 110.05 228.21 C 109.21 227.77 108.17 228.10 107.74 228.94 Z M 107.28 229.84 L 106.83 230.74 C 106.42 231.59 106.77 232.61 107.62 233.03 C 108.47 233.44 109.49 233.09 109.91 232.24 L 110.35 231.34 C 110.77 230.49 110.42 229.47 109.57 229.05 C 108.72 228.64 107.69 228.99 107.28 229.84 Z M 106.83 230.76 L 106.39 231.69 C 105.98 232.55 106.35 233.56 107.20 233.97 C 108.06 234.37 109.08 234.00 109.48 233.15 L 109.92 232.22 C 110.32 231.37 109.95 230.35 109.10 229.95 C 108.25 229.54 107.23 229.91 106.83 230.76 Z M 106.38 231.71 L 105.95 232.65 C 105.55 233.51 105.92 234.52 106.78 234.92 C 107.63 235.31 108.65 234.94 109.04 234.08 L 109.48 233.14 C 109.88 232.28 109.50 231.27 108.65 230.87 C 107.79 230.48 106.78 230.85 106.38 231.71 Z M 105.95 232.66 L 105.80 232.98 C 105.40 233.84 105.78 234.85 106.63 235.24 C 107.49 235.64 108.50 235.26 108.89 234.41 L 109.04 234.08 C 109.44 233.22 109.06 232.21 108.21 231.82 C 107.35 231.43 106.34 231.80 105.95 232.66 Z"
      fill="black"
      fill-rule="nonzero" /><path d="M 146.43 194.93 L 147.43 194.86 C 148.29 194.81 148.95 194.07 148.90 193.21 C 148.84 192.35 148.10 191.69 147.24 191.75 L 146.24 191.81 C 145.38 191.86 144.72 192.60 144.78 193.46 C 144.83 194.32 145.57 194.98 146.43 194.93 Z M 147.36 194.87 L 148.36 194.85 C 149.22 194.84 149.91 194.13 149.90 193.27 C 149.88 192.41 149.18 191.72 148.31 191.73 L 147.32 191.74 C 146.45 191.76 145.76 192.47 145.78 193.33 C 145.79 194.19 146.50 194.88 147.36 194.87 Z M 148.21 194.85 L 149.20 194.93 C 150.06 195.00 150.81 194.36 150.88 193.50 C 150.95 192.64 150.31 191.88 149.45 191.82 L 148.46 191.74 C 147.60 191.67 146.85 192.31 146.78 193.17 C 146.71 194.02 147.35 194.78 148.21 194.85 Z M 148.98 194.89 L 149.95 195.11 C 150.79 195.30 151.63 194.78 151.82 193.94 C 152.01 193.10 151.48 192.26 150.64 192.07 L 149.67 191.85 C 148.83 191.66 147.99 192.19 147.80 193.03 C 147.61 193.87 148.14 194.70 148.98 194.89 Z M 149.71 195.04 L 150.63 195.41 C 151.43 195.73 152.34 195.34 152.66 194.54 C 152.98 193.74 152.60 192.83 151.80 192.51 L 150.87 192.14 C 150.07 191.82 149.17 192.21 148.84 193.01 C 148.52 193.81 148.91 194.72 149.71 195.04 Z M 150.46 195.33 L 151.35 195.82 C 152.10 196.23 153.05 195.96 153.47 195.20 C 153.88 194.44 153.61 193.50 152.85 193.08 L 151.97 192.59 C 151.21 192.18 150.26 192.45 149.85 193.21 C 149.43 193.96 149.71 194.91 150.46 195.33 Z M 151.23 195.74 L 152.07 196.31 C 152.78 196.79 153.75 196.60 154.23 195.88 C 154.71 195.17 154.53 194.20 153.81 193.72 L 152.97 193.15 C 152.26 192.67 151.29 192.86 150.81 193.58 C 150.32 194.29 150.51 195.26 151.23 195.74 Z M 151.98 196.25 L 152.77 196.85 C 153.45 197.38 154.43 197.26 154.96 196.57 C 155.48 195.89 155.36 194.91 154.68 194.38 L 153.89 193.78 C 153.21 193.25 152.23 193.37 151.70 194.06 C 151.18 194.74 151.30 195.72 151.98 196.25 Z M 152.70 196.80 L 153.46 197.45 C 154.11 198.01 155.10 197.94 155.66 197.29 C 156.22 196.63 156.15 195.65 155.49 195.08 L 154.74 194.44 C 154.09 193.87 153.10 193.95 152.54 194.60 C 151.98 195.25 152.05 196.24 152.70 196.80 Z M 153.40 197.40 L 154.12 198.07 C 154.74 198.67 155.73 198.64 156.32 198.01 C 156.91 197.38 156.89 196.39 156.26 195.80 L 155.55 195.13 C 154.92 194.54 153.93 194.57 153.34 195.20 C 152.75 195.82 152.78 196.81 153.40 197.40 Z M 154.08 198.04 L 154.78 198.75 C 155.39 199.36 156.38 199.36 156.99 198.76 C 157.60 198.15 157.61 197.16 157.00 196.55 L 156.30 195.84 C 155.69 195.23 154.70 195.22 154.09 195.83 C 153.48 196.44 153.47 197.42 154.08 198.04 Z M 154.76 198.73 L 155.43 199.42 C 156.02 200.05 157.01 200.07 157.63 199.47 C 158.26 198.88 158.28 197.89 157.69 197.27 L 157.02 196.57 C 156.42 195.95 155.44 195.92 154.81 196.52 C 154.19 197.12 154.17 198.10 154.76 198.73 Z M 155.42 199.41 L 156.05 200.08 C 156.64 200.71 157.62 200.75 158.25 200.16 C 158.88 199.57 158.91 198.58 158.32 197.95 L 157.70 197.28 C 157.11 196.65 156.12 196.62 155.49 197.21 C 154.86 197.79 154.83 198.78 155.42 199.41 Z M 156.04 200.07 L 156.70 200.80 C 157.28 201.43 158.27 201.47 158.91 200.89 C 159.54 200.30 159.58 199.32 159.00 198.68 L 158.33 197.96 C 157.75 197.33 156.76 197.28 156.13 197.87 C 155.49 198.45 155.45 199.44 156.04 200.07 Z M 156.69 200.79 L 157.39 201.56 C 157.97 202.20 158.96 202.25 159.60 201.67 C 160.23 201.09 160.28 200.10 159.71 199.46 L 159.01 198.69 C 158.43 198.05 157.44 198.00 156.80 198.58 C 156.16 199.16 156.11 200.15 156.69 200.79 Z M 157.38 201.55 L 158.12 202.38 C 158.69 203.02 159.68 203.08 160.32 202.51 C 160.97 201.93 161.02 200.95 160.45 200.30 L 159.71 199.47 C 159.14 198.83 158.15 198.77 157.51 199.34 C 156.87 199.92 156.81 200.90 157.38 201.55 Z M 158.11 202.37 L 158.72 203.06 C 159.29 203.71 160.27 203.77 160.92 203.21 C 161.57 202.64 161.63 201.65 161.06 201.00 L 160.46 200.31 C 159.89 199.66 158.90 199.60 158.25 200.16 C 157.61 200.73 157.54 201.72 158.11 202.37 Z M 158.71 203.05 L 159.33 203.77 C 159.89 204.42 160.88 204.49 161.53 203.92 C 162.18 203.36 162.25 202.37 161.69 201.72 L 161.07 201.01 C 160.51 200.36 159.52 200.29 158.87 200.85 C 158.22 201.42 158.15 202.40 158.71 203.05 Z M 159.33 203.76 L 159.97 204.51 C 160.53 205.16 161.51 205.24 162.17 204.68 C 162.82 204.11 162.90 203.13 162.33 202.47 L 161.69 201.73 C 161.13 201.07 160.15 201.00 159.49 201.56 C 158.84 202.12 158.76 203.11 159.33 203.76 Z M 159.96 204.50 L 160.62 205.28 C 161.18 205.94 162.17 206.02 162.82 205.46 C 163.48 204.90 163.56 203.91 163.00 203.26 L 162.34 202.48 C 161.78 201.82 160.79 201.74 160.14 202.30 C 159.48 202.86 159.40 203.85 159.96 204.50 Z M 160.62 205.28 L 161.30 206.08 C 161.86 206.74 162.84 206.82 163.50 206.27 C 164.16 205.71 164.24 204.72 163.69 204.07 L 163.00 203.26 C 162.45 202.60 161.46 202.52 160.80 203.08 C 160.15 203.63 160.06 204.62 160.62 205.28 Z M 161.30 206.08 L 161.99 206.91 C 162.55 207.56 163.53 207.65 164.19 207.09 C 164.85 206.54 164.94 205.55 164.38 204.89 L 163.69 204.07 C 163.13 203.41 162.15 203.32 161.49 203.88 C 160.83 204.43 160.74 205.42 161.30 206.08 Z M 161.99 206.90 L 162.60 207.62 C 163.15 208.28 164.13 208.37 164.80 207.82 C 165.46 207.26 165.54 206.28 164.99 205.62 L 164.39 204.90 C 163.83 204.24 162.85 204.15 162.19 204.70 C 161.53 205.26 161.44 206.24 161.99 206.90 Z M 162.59 207.62 L 163.21 208.36 C 163.76 209.02 164.75 209.11 165.41 208.55 C 166.07 208.00 166.16 207.02 165.61 206.35 L 164.99 205.62 C 164.44 204.96 163.45 204.87 162.79 205.42 C 162.13 205.98 162.04 206.96 162.59 207.62 Z M 163.21 208.36 L 163.84 209.11 C 164.39 209.77 165.38 209.86 166.04 209.31 C 166.70 208.76 166.79 207.77 166.24 207.11 L 165.61 206.36 C 165.05 205.69 164.07 205.61 163.41 206.16 C 162.75 206.71 162.66 207.70 163.21 208.36 Z M 163.84 209.11 L 164.49 209.88 C 165.04 210.54 166.02 210.63 166.68 210.08 C 167.35 209.52 167.43 208.54 166.88 207.88 L 166.24 207.11 C 165.68 206.45 164.70 206.36 164.04 206.91 C 163.38 207.47 163.29 208.45 163.84 209.11 Z M 164.49 209.88 L 165.14 210.67 C 165.70 211.33 166.68 211.41 167.34 210.86 C 168.00 210.30 168.09 209.32 167.54 208.66 L 166.88 207.88 C 166.32 207.22 165.34 207.13 164.68 207.68 C 164.02 208.24 163.93 209.22 164.49 209.88 Z M 165.15 210.67 L 165.82 211.46 C 166.37 212.12 167.36 212.21 168.02 211.65 C 168.68 211.10 168.76 210.11 168.20 209.45 L 167.53 208.66 C 166.98 208.00 165.99 207.91 165.33 208.47 C 164.67 209.02 164.59 210.01 165.15 210.67 Z M 165.82 211.47 L 166.50 212.27 C 167.06 212.93 168.04 213.01 168.70 212.46 C 169.36 211.90 169.44 210.91 168.88 210.25 L 168.20 209.45 C 167.64 208.79 166.66 208.71 166.00 209.27 C 165.34 209.82 165.26 210.81 165.82 211.47 Z M 166.50 212.28 L 167.13 213.01 C 167.68 213.66 168.67 213.74 169.33 213.18 C 169.98 212.63 170.06 211.64 169.50 210.98 L 168.88 210.25 C 168.32 209.59 167.34 209.52 166.68 210.07 C 166.02 210.63 165.94 211.62 166.50 212.28 Z M 167.13 213.01 L 167.76 213.75 C 168.32 214.41 169.31 214.48 169.96 213.92 C 170.62 213.36 170.69 212.38 170.13 211.72 L 169.50 210.98 C 168.94 210.33 167.95 210.25 167.30 210.81 C 166.64 211.37 166.57 212.36 167.13 213.01 Z M 167.76 213.75 L 168.41 214.50 C 168.97 215.16 169.96 215.23 170.61 214.67 C 171.26 214.11 171.34 213.12 170.78 212.47 L 170.13 211.72 C 169.57 211.06 168.58 210.99 167.93 211.55 C 167.28 212.11 167.20 213.10 167.76 213.75 Z M 168.41 214.51 L 169.06 215.26 C 169.63 215.91 170.61 215.98 171.26 215.42 C 171.92 214.86 171.99 213.87 171.43 213.22 L 170.77 212.46 C 170.21 211.81 169.22 211.74 168.57 212.30 C 167.92 212.87 167.85 213.85 168.41 214.51 Z M 169.07 215.26 L 169.73 216.02 C 170.29 216.68 171.28 216.75 171.93 216.18 C 172.58 215.61 172.65 214.63 172.08 213.98 L 171.42 213.22 C 170.86 212.57 169.87 212.50 169.22 213.06 C 168.57 213.63 168.50 214.61 169.07 215.26 Z M 169.73 216.03 L 170.40 216.79 C 170.96 217.44 171.95 217.51 172.60 216.95 C 173.25 216.38 173.32 215.39 172.75 214.74 L 172.08 213.98 C 171.52 213.33 170.53 213.26 169.88 213.82 C 169.23 214.39 169.16 215.38 169.73 216.03 Z M 170.40 216.80 L 171.08 217.57 C 171.64 218.22 172.63 218.28 173.28 217.72 C 173.93 217.15 173.99 216.16 173.43 215.51 L 172.75 214.74 C 172.18 214.09 171.19 214.03 170.55 214.59 C 169.90 215.16 169.83 216.15 170.40 216.80 Z M 171.08 217.57 L 171.76 218.35 C 172.33 218.99 173.31 219.06 173.96 218.49 C 174.61 217.92 174.67 216.93 174.10 216.28 L 173.42 215.51 C 172.85 214.86 171.87 214.80 171.22 215.37 C 170.57 215.94 170.51 216.92 171.08 217.57 Z M 171.76 218.35 L 172.43 219.11 C 173.00 219.76 173.99 219.82 174.64 219.25 C 175.28 218.68 175.34 217.69 174.77 217.04 L 174.10 216.28 C 173.53 215.64 172.54 215.57 171.90 216.14 C 171.25 216.71 171.19 217.70 171.76 218.35 Z M 172.43 219.11 L 173.11 219.87 C 173.68 220.52 174.67 220.58 175.31 220.01 C 175.96 219.43 176.02 218.45 175.45 217.80 L 174.77 217.04 C 174.20 216.40 173.21 216.34 172.57 216.91 C 171.92 217.48 171.86 218.47 172.43 219.11 Z M 173.11 219.88 L 173.79 220.64 C 174.36 221.28 175.35 221.34 175.99 220.76 C 176.64 220.19 176.70 219.20 176.12 218.56 L 175.44 217.80 C 174.87 217.16 173.88 217.10 173.24 217.67 C 172.60 218.25 172.54 219.23 173.11 219.88 Z M 173.79 220.64 L 174.47 221.39 C 175.04 222.04 176.03 222.09 176.67 221.51 C 177.32 220.94 177.37 219.95 176.79 219.31 L 176.12 218.56 C 175.54 217.91 174.56 217.86 173.91 218.44 C 173.27 219.01 173.22 220.00 173.79 220.64 Z M 174.47 221.40 L 175.14 222.14 C 175.72 222.78 176.71 222.83 177.35 222.26 C 177.99 221.68 178.04 220.69 177.46 220.05 L 176.79 219.31 C 176.21 218.67 175.23 218.62 174.59 219.19 C 173.95 219.77 173.90 220.76 174.47 221.40 Z M 175.15 222.15 L 175.82 222.88 C 176.40 223.52 177.38 223.57 178.02 222.99 C 178.66 222.41 178.71 221.42 178.13 220.78 L 177.46 220.05 C 176.88 219.41 175.89 219.36 175.25 219.94 C 174.62 220.52 174.57 221.51 175.15 222.15 Z M 175.82 222.89 L 176.48 223.60 C 177.06 224.24 178.05 224.28 178.68 223.70 C 179.32 223.12 179.36 222.13 178.78 221.49 L 178.12 220.78 C 177.54 220.14 176.55 220.10 175.92 220.68 C 175.28 221.26 175.24 222.25 175.82 222.89 Z M 176.48 223.61 L 177.15 224.33 C 177.73 224.96 178.72 225.00 179.35 224.41 C 179.99 223.83 180.02 222.84 179.44 222.21 L 178.77 221.49 C 178.19 220.86 177.20 220.82 176.57 221.40 C 175.94 221.99 175.90 222.98 176.48 223.61 Z M 177.15 224.33 L 177.88 225.11 C 178.47 225.74 179.46 225.77 180.09 225.18 C 180.72 224.60 180.75 223.61 180.16 222.98 L 179.43 222.20 C 178.84 221.57 177.86 221.54 177.23 222.13 C 176.60 222.72 176.56 223.70 177.15 224.33 Z M 177.89 225.12 L 178.60 225.87 C 179.19 226.50 180.18 226.53 180.81 225.93 C 181.43 225.34 181.46 224.35 180.87 223.73 L 180.16 222.97 C 179.56 222.35 178.57 222.32 177.95 222.91 C 177.32 223.50 177.29 224.49 177.89 225.12 Z M 178.60 225.88 L 179.30 226.61 C 179.90 227.23 180.89 227.26 181.51 226.66 C 182.13 226.07 182.16 225.08 181.56 224.45 L 180.86 223.72 C 180.27 223.10 179.28 223.07 178.66 223.67 C 178.03 224.26 178.01 225.25 178.60 225.88 Z M 179.31 226.61 L 179.99 227.33 C 180.59 227.95 181.58 227.97 182.20 227.37 C 182.82 226.77 182.84 225.79 182.24 225.16 L 181.56 224.45 C 180.96 223.83 179.97 223.81 179.35 224.41 C 178.73 225.00 178.71 225.99 179.31 226.61 Z M 180.00 227.33 L 180.67 228.03 C 181.27 228.65 182.26 228.67 182.88 228.07 C 183.50 227.47 183.52 226.48 182.92 225.86 L 182.24 225.16 C 181.64 224.54 180.65 224.52 180.03 225.12 C 179.41 225.72 179.40 226.71 180.00 227.33 Z M 180.67 228.03 L 181.34 228.72 C 181.94 229.34 182.93 229.35 183.55 228.75 C 184.17 228.15 184.18 227.16 183.58 226.54 L 182.92 225.86 C 182.31 225.24 181.33 225.22 180.71 225.82 C 180.09 226.42 180.07 227.41 180.67 228.03 Z M 181.34 228.72 L 182.01 229.41 C 182.61 230.03 183.60 230.04 184.22 229.44 C 184.84 228.84 184.85 227.85 184.25 227.23 L 183.58 226.54 C 182.98 225.92 181.99 225.91 181.37 226.51 C 180.75 227.11 180.74 228.10 181.34 228.72 Z M 182.01 229.41 L 182.74 230.16 C 183.34 230.77 184.33 230.79 184.94 230.19 C 185.56 229.59 185.58 228.60 184.98 227.98 L 184.25 227.23 C 183.65 226.61 182.66 226.60 182.04 227.20 C 181.42 227.80 181.41 228.79 182.01 229.41 Z M 182.74 230.16 L 183.45 230.89 C 184.05 231.51 185.04 231.52 185.66 230.92 C 186.28 230.32 186.29 229.33 185.69 228.72 L 184.98 227.98 C 184.37 227.36 183.39 227.35 182.77 227.95 C 182.15 228.55 182.14 229.54 182.74 230.16 Z M 183.45 230.89 L 184.16 231.62 C 184.76 232.23 185.75 232.25 186.36 231.65 C 186.98 231.05 187.00 230.06 186.39 229.44 L 185.69 228.72 C 185.09 228.10 184.10 228.08 183.48 228.68 C 182.86 229.29 182.85 230.27 183.45 230.89 Z M 184.16 231.62 L 184.85 232.33 C 185.45 232.94 186.44 232.96 187.06 232.36 C 187.67 231.75 187.69 230.77 187.09 230.15 L 186.39 229.44 C 185.79 228.82 184.80 228.81 184.19 229.41 C 183.57 230.01 183.56 231.00 184.16 231.62 Z M 184.85 232.33 L 185.53 233.02 C 186.13 233.64 187.12 233.65 187.74 233.05 C 188.36 232.45 188.37 231.46 187.76 230.84 L 187.08 230.15 C 186.48 229.53 185.49 229.52 184.88 230.12 C 184.26 230.72 184.25 231.71 184.85 232.33 Z M 185.53 233.03 L 186.20 233.71 C 186.80 234.32 187.79 234.33 188.41 233.73 C 189.02 233.12 189.03 232.13 188.43 231.52 L 187.76 230.84 C 187.16 230.22 186.17 230.21 185.55 230.82 C 184.94 231.42 184.93 232.41 185.53 233.03 Z M 186.20 233.71 L 186.94 234.46 C 187.55 235.07 188.53 235.08 189.15 234.47 C 189.76 233.87 189.77 232.88 189.16 232.26 L 188.43 231.52 C 187.82 230.90 186.83 230.90 186.22 231.50 C 185.60 232.11 185.60 233.09 186.20 233.71 Z M 186.94 234.46 L 187.67 235.19 C 188.27 235.81 189.26 235.81 189.88 235.20 C 190.49 234.60 190.49 233.61 189.89 233.00 L 189.16 232.26 C 188.56 231.65 187.57 231.64 186.95 232.25 C 186.34 232.86 186.34 233.85 186.94 234.46 Z M 187.67 235.19 L 188.38 235.91 C 188.98 236.52 189.97 236.52 190.59 235.92 C 191.20 235.31 191.20 234.32 190.60 233.71 L 189.89 233.00 C 189.28 232.38 188.29 232.38 187.68 232.99 C 187.07 233.59 187.06 234.58 187.67 235.19 Z M 188.38 235.91 L 189.07 236.60 C 189.67 237.22 190.66 237.22 191.28 236.62 C 191.89 236.01 191.89 235.02 191.29 234.41 L 190.60 233.71 C 189.99 233.10 189.00 233.09 188.39 233.70 C 187.77 234.31 187.77 235.29 188.38 235.91 Z M 189.07 236.60 L 189.74 237.28 C 190.34 237.90 191.33 237.90 191.95 237.30 C 192.56 236.69 192.57 235.70 191.96 235.09 L 191.29 234.41 C 190.68 233.80 189.69 233.79 189.08 234.40 C 188.47 235.00 188.46 235.99 189.07 236.60 Z M 189.74 237.28 L 190.44 237.99 C 191.04 238.61 192.03 238.62 192.64 238.02 C 193.26 237.41 193.27 236.42 192.66 235.81 L 191.96 235.09 C 191.36 234.48 190.37 234.47 189.76 235.07 C 189.14 235.68 189.13 236.67 189.74 237.28 Z M 190.43 237.99 L 191.16 238.74 C 191.76 239.36 192.75 239.37 193.37 238.77 C 193.99 238.17 194.00 237.18 193.40 236.56 L 192.67 235.81 C 192.07 235.19 191.08 235.18 190.46 235.78 C 189.84 236.38 189.83 237.37 190.43 237.99 Z M 191.16 238.73 L 191.86 239.47 C 192.46 240.09 193.45 240.10 194.07 239.51 C 194.69 238.91 194.71 237.92 194.11 237.30 L 193.40 236.57 C 192.80 235.95 191.82 235.93 191.20 236.53 C 190.58 237.13 190.56 238.11 191.16 238.73 Z M 191.86 239.46 L 192.53 240.17 C 193.13 240.79 194.12 240.82 194.74 240.22 C 195.36 239.62 195.39 238.64 194.79 238.01 L 194.11 237.30 C 193.52 236.68 192.53 236.66 191.91 237.25 C 191.28 237.85 191.26 238.84 191.86 239.46 Z M 192.53 240.16 L 193.18 240.85 C 193.77 241.48 194.76 241.51 195.39 240.91 C 196.01 240.32 196.04 239.33 195.45 238.71 L 194.80 238.02 C 194.20 237.39 193.22 237.36 192.59 237.96 C 191.96 238.55 191.94 239.54 192.53 240.16 Z M 193.17 240.85 L 193.85 241.58 C 194.44 242.21 195.43 242.24 196.06 241.65 C 196.69 241.06 196.73 240.07 196.14 239.44 L 195.45 238.71 C 194.87 238.08 193.88 238.05 193.25 238.64 C 192.62 239.23 192.58 240.22 193.17 240.85 Z M 193.85 241.57 L 194.53 242.31 C 195.11 242.94 196.10 242.98 196.74 242.39 C 197.37 241.81 197.41 240.82 196.82 240.18 L 196.14 239.45 C 195.56 238.81 194.57 238.77 193.93 239.36 C 193.30 239.95 193.26 240.94 193.85 241.57 Z M 194.52 242.30 L 195.19 243.03 C 195.77 243.67 196.76 243.71 197.40 243.13 C 198.04 242.54 198.08 241.55 197.50 240.91 L 196.83 240.18 C 196.24 239.55 195.25 239.50 194.62 240.09 C 193.98 240.67 193.94 241.67 194.52 242.30 Z M 195.18 243.03 L 195.85 243.76 C 196.44 244.40 197.43 244.44 198.07 243.86 C 198.71 243.28 198.75 242.28 198.17 241.64 L 197.50 240.91 C 196.92 240.27 195.92 240.23 195.28 240.81 C 194.64 241.40 194.60 242.39 195.18 243.03 Z M 195.85 243.76 L 196.53 244.51 C 197.12 245.15 198.11 245.19 198.75 244.61 C 199.39 244.02 199.44 243.02 198.85 242.38 L 198.17 241.64 C 197.58 241.00 196.59 240.96 195.95 241.54 C 195.31 242.13 195.26 243.12 195.85 243.76 Z M 196.53 244.51 L 197.22 245.26 C 197.81 245.90 198.81 245.95 199.45 245.36 C 200.09 244.77 200.13 243.77 199.54 243.13 L 198.85 242.38 C 198.26 241.74 197.26 241.70 196.62 242.29 C 195.98 242.88 195.94 243.87 196.53 244.51 Z M 197.23 245.27 L 197.92 246.02 C 198.51 246.66 199.51 246.69 200.15 246.10 C 200.79 245.50 200.82 244.51 200.23 243.87 L 199.54 243.12 C 198.94 242.49 197.95 242.45 197.31 243.04 C 196.67 243.64 196.63 244.63 197.23 245.27 Z M 197.93 246.03 L 198.61 246.75 C 199.21 247.38 200.21 247.41 200.84 246.81 C 201.47 246.21 201.50 245.21 200.90 244.58 L 200.22 243.86 C 199.62 243.22 198.62 243.20 197.99 243.80 C 197.36 244.40 197.33 245.40 197.93 246.03 Z M 198.62 246.76 L 199.31 247.48 C 199.92 248.10 200.92 248.12 201.55 247.51 C 202.18 246.90 202.19 245.90 201.58 245.27 L 200.89 244.56 C 200.28 243.93 199.28 243.92 198.65 244.53 C 198.03 245.14 198.01 246.14 198.62 246.76 Z M 199.33 247.50 L 200.06 248.23 C 200.69 248.85 201.69 248.84 202.31 248.22 C 202.93 247.59 202.92 246.59 202.30 245.97 L 201.56 245.25 C 200.94 244.63 199.94 244.63 199.32 245.26 C 198.70 245.88 198.71 246.88 199.33 247.50 Z M 200.09 248.26 L 200.80 248.93 C 201.44 249.54 202.45 249.51 203.05 248.87 C 203.66 248.23 203.63 247.22 202.99 246.62 L 202.28 245.94 C 201.64 245.34 200.63 245.37 200.02 246.01 C 199.42 246.65 199.45 247.65 200.09 248.26 Z M 200.82 248.96 L 201.54 249.61 C 202.20 250.20 203.21 250.15 203.80 249.49 C 204.39 248.83 204.34 247.82 203.68 247.23 L 202.97 246.59 C 202.31 245.99 201.30 246.05 200.71 246.70 C 200.11 247.36 200.17 248.37 200.82 248.96 Z M 201.56 249.63 L 202.30 250.27 C 202.97 250.85 203.99 250.78 204.57 250.11 C 205.14 249.43 205.07 248.42 204.40 247.84 L 203.66 247.20 C 202.99 246.63 201.97 246.70 201.40 247.37 C 200.82 248.04 200.89 249.06 201.56 249.63 Z M 202.32 250.29 L 203.09 250.93 C 203.77 251.50 204.78 251.40 205.35 250.72 C 205.92 250.04 205.82 249.03 205.14 248.46 L 204.38 247.83 C 203.70 247.26 202.69 247.35 202.12 248.03 C 201.55 248.71 201.64 249.72 202.32 250.29 Z M 203.10 250.94 L 203.88 251.58 C 204.57 252.14 205.58 252.03 206.14 251.35 C 206.70 250.66 206.60 249.65 205.91 249.09 L 205.13 248.46 C 204.45 247.90 203.44 248.00 202.88 248.68 C 202.32 249.37 202.42 250.38 203.10 250.94 Z M 203.89 251.58 L 204.47 252.05 C 205.16 252.61 206.17 252.51 206.73 251.82 C 207.28 251.13 207.18 250.12 206.49 249.57 L 205.91 249.09 C 205.22 248.53 204.21 248.64 203.65 249.33 C 203.10 250.01 203.20 251.02 203.89 251.58 Z"
      fill="black"
      fill-rule="nonzero" /></svg>