<svg xmlns="http://www.w3.org/2000/svg" width="300" height="300" viewBox="0 0 300 300">
<path d="M 84.26 154.53 L 82.84 154.42 C 81.98 154.36 81.23 155.00 81.16 155.86 C 81.10 156.72 81.74 157.47 82.60 157.54 L 84.02 157.65 C 84.88 157.71 85.63 157.07 85.69 156.21 C 85.76 155.35 85.11 154.60 84.26 154.53 Z M 82.78 154.42 L 81.66 154.38 C 80.79 154.34 80.07 155.01 80.03 155.87 C 80.00 156.74 80.67 157.46 81.53 157.50 L 82.66 157.54 C 83.52 157.57 84.24 156.90 84.28 156.04 C 84.31 155.18 83.64 154.45 82.78 154.42 Z M 81.35 154.39 L 80.82 154.48 C 79.97 154.61 79.38 155.41 79.52 156.26 C 79.65 157.11 80.45 157.69 81.30 157.56 L 81.83 157.48 C 82.69 157.35 83.27 156.55 83.14 155.70 C 83.00 154.84 82.20 154.26 81.35 154.39 Z M 79.95 157.12 L 80.16 157.33 C 80.77 157.95 81.76 157.95 82.37 157.34 C 82.98 156.73 82.99 155.75 82.38 155.13 L 82.17 154.92 C 81.56 154.31 80.57 154.30 79.96 154.91 C 79.35 155.52 79.34 156.51 79.95 157.12 Z M 80.66 157.67 L 81.36 157.97 C 82.15 158.31 83.07 157.94 83.41 157.14 C 83.75 156.35 83.38 155.43 82.59 155.10 L 81.88 154.80 C 81.09 154.46 80.17 154.83 79.84 155.62 C 79.50 156.42 79.87 157.33 80.66 157.67 Z M 81.46 158.01 L 82.50 158.37 C 83.32 158.65 84.21 158.21 84.49 157.40 C 84.77 156.58 84.34 155.70 83.52 155.41 L 82.48 155.06 C 81.67 154.78 80.78 155.21 80.50 156.02 C 80.22 156.84 80.65 157.73 81.46 158.01 Z M 82.56 158.38 L 83.79 158.76 C 84.61 159.01 85.48 158.55 85.74 157.73 C 85.99 156.90 85.53 156.03 84.70 155.78 L 83.47 155.40 C 82.65 155.15 81.77 155.61 81.52 156.43 C 81.27 157.26 81.73 158.13 82.56 158.38 Z M 83.82 158.77 L 85.05 159.12 C 85.89 159.35 86.75 158.86 86.98 158.03 C 87.21 157.20 86.73 156.34 85.90 156.11 L 84.66 155.77 C 83.83 155.53 82.97 156.02 82.74 156.85 C 82.51 157.68 82.99 158.54 83.82 158.77 Z M 85.09 159.13 L 86.16 159.40 C 87.00 159.62 87.85 159.11 88.06 158.28 C 88.28 157.44 87.77 156.59 86.94 156.38 L 85.86 156.10 C 85.03 155.89 84.18 156.39 83.96 157.22 C 83.75 158.06 84.25 158.91 85.09 159.13 Z M 86.19 159.41 L 87.21 159.65 C 88.05 159.85 88.89 159.33 89.09 158.49 C 89.29 157.65 88.77 156.81 87.93 156.61 L 86.91 156.37 C 86.07 156.17 85.23 156.69 85.03 157.53 C 84.83 158.37 85.35 159.21 86.19 159.41 Z M 87.24 159.66 L 88.20 159.87 C 89.04 160.06 89.87 159.53 90.06 158.68 C 90.25 157.84 89.72 157.01 88.87 156.82 L 87.91 156.61 C 87.07 156.42 86.24 156.95 86.05 157.79 C 85.86 158.64 86.39 159.47 87.24 159.66 Z M 88.22 159.87 L 89.12 160.06 C 89.96 160.24 90.79 159.70 90.96 158.85 C 91.14 158.01 90.60 157.18 89.75 157.00 L 88.86 156.82 C 88.01 156.64 87.18 157.18 87.01 158.03 C 86.83 158.87 87.37 159.70 88.22 159.87 Z M 89.13 160.06 L 90.05 160.25 C 90.90 160.41 91.72 159.86 91.89 159.02 C 92.05 158.17 91.50 157.35 90.66 157.18 L 89.74 157.00 C 88.89 156.83 88.07 157.38 87.90 158.23 C 87.74 159.08 88.29 159.90 89.13 160.06 Z M 90.06 160.25 L 91.12 160.45 C 91.96 160.61 92.78 160.05 92.94 159.20 C 93.10 158.36 92.54 157.54 91.70 157.38 L 90.64 157.18 C 89.80 157.02 88.98 157.58 88.82 158.43 C 88.66 159.27 89.22 160.09 90.06 160.25 Z M 91.13 160.45 L 92.09 160.62 C 92.94 160.77 93.75 160.21 93.90 159.36 C 94.05 158.51 93.49 157.70 92.64 157.55 L 91.68 157.38 C 90.83 157.23 90.02 157.79 89.87 158.64 C 89.72 159.49 90.28 160.30 91.13 160.45 Z M 92.10 160.62 L 93.01 160.78 C 93.86 160.93 94.67 160.35 94.82 159.50 C 94.96 158.65 94.39 157.85 93.54 157.70 L 92.63 157.55 C 91.78 157.40 90.97 157.97 90.82 158.82 C 90.68 159.67 91.25 160.48 92.10 160.62 Z M 93.02 160.78 L 93.97 160.94 C 94.82 161.08 95.63 160.50 95.77 159.65 C 95.91 158.80 95.33 158.00 94.48 157.86 L 93.53 157.70 C 92.68 157.56 91.88 158.14 91.74 158.99 C 91.60 159.84 92.17 160.64 93.02 160.78 Z M 93.98 160.94 L 94.96 161.10 C 95.81 161.23 96.61 160.65 96.75 159.80 C 96.88 158.95 96.30 158.15 95.45 158.01 L 94.47 157.86 C 93.62 157.72 92.82 158.30 92.68 159.15 C 92.55 160.01 93.13 160.81 93.98 160.94 Z M 94.98 161.10 L 95.98 161.25 C 96.83 161.37 97.63 160.78 97.75 159.93 C 97.88 159.08 97.29 158.28 96.44 158.16 L 95.43 158.01 C 94.58 157.88 93.79 158.47 93.66 159.32 C 93.53 160.18 94.12 160.97 94.98 161.10 Z M 96.00 161.25 L 96.99 161.38 C 97.84 161.50 98.63 160.90 98.75 160.05 C 98.86 159.19 98.26 158.41 97.41 158.29 L 96.42 158.16 C 95.56 158.04 94.78 158.64 94.66 159.49 C 94.55 160.35 95.14 161.13 96.00 161.25 Z M 97.01 161.39 L 97.97 161.50 C 98.83 161.61 99.61 161.00 99.71 160.15 C 99.82 159.29 99.21 158.51 98.36 158.41 L 97.39 158.29 C 96.53 158.18 95.75 158.79 95.65 159.65 C 95.54 160.50 96.15 161.28 97.01 161.39 Z M 97.99 161.51 L 98.98 161.62 C 99.84 161.72 100.61 161.10 100.71 160.25 C 100.81 159.39 100.19 158.62 99.34 158.52 L 98.34 158.40 C 97.48 158.31 96.71 158.92 96.61 159.78 C 96.52 160.64 97.13 161.41 97.99 161.51 Z M 98.99 161.62 L 100.02 161.73 C 100.88 161.82 101.65 161.20 101.74 160.34 C 101.83 159.49 101.21 158.72 100.35 158.63 L 99.32 158.52 C 98.47 158.42 97.70 159.05 97.61 159.90 C 97.51 160.76 98.14 161.53 98.99 161.62 Z M 100.03 161.73 L 101.00 161.83 C 101.86 161.92 102.63 161.29 102.71 160.44 C 102.80 159.58 102.18 158.81 101.32 158.72 L 100.34 158.63 C 99.49 158.54 98.72 159.16 98.63 160.02 C 98.55 160.88 99.17 161.64 100.03 161.73 Z M 101.01 161.83 L 101.99 161.93 C 102.85 162.01 103.61 161.38 103.69 160.52 C 103.78 159.66 103.15 158.90 102.29 158.82 L 101.31 158.72 C 100.45 158.64 99.69 159.27 99.61 160.13 C 99.52 160.99 100.15 161.75 101.01 161.83 Z M 102.00 161.93 L 103.01 162.01 C 103.87 162.09 104.63 161.45 104.70 160.59 C 104.77 159.74 104.14 158.98 103.28 158.90 L 102.27 158.82 C 101.42 158.74 100.66 159.38 100.58 160.24 C 100.51 161.10 101.15 161.85 102.00 161.93 Z M 103.03 162.02 L 104.05 162.09 C 104.91 162.16 105.66 161.51 105.73 160.65 C 105.79 159.79 105.15 159.04 104.29 158.98 L 103.26 158.90 C 102.40 158.84 101.65 159.48 101.59 160.34 C 101.52 161.20 102.17 161.95 103.03 162.02 Z M 104.08 162.09 L 105.05 162.15 C 105.91 162.20 106.65 161.55 106.70 160.69 C 106.75 159.83 106.10 159.09 105.24 159.04 L 104.26 158.98 C 103.40 158.93 102.66 159.58 102.61 160.44 C 102.56 161.30 103.22 162.04 104.08 162.09 Z M 105.07 162.15 L 106.03 162.20 C 106.89 162.24 107.63 161.57 107.66 160.71 C 107.70 159.85 107.04 159.12 106.18 159.08 L 105.21 159.03 C 104.35 158.99 103.62 159.66 103.58 160.52 C 103.54 161.38 104.21 162.11 105.07 162.15 Z M 106.05 162.20 L 107.04 162.23 C 107.90 162.26 108.63 161.59 108.66 160.72 C 108.69 159.86 108.01 159.14 107.15 159.11 L 106.16 159.08 C 105.30 159.05 104.57 159.72 104.54 160.58 C 104.52 161.45 105.19 162.17 106.05 162.20 Z M 107.06 162.23 L 108.09 162.26 C 108.95 162.28 109.66 161.59 109.68 160.73 C 109.70 159.87 109.02 159.16 108.16 159.13 L 107.13 159.11 C 106.27 159.09 105.56 159.77 105.54 160.63 C 105.51 161.50 106.20 162.21 107.06 162.23 Z M 108.10 162.26 L 109.13 162.27 C 109.99 162.29 110.70 161.60 110.72 160.74 C 110.73 159.87 110.04 159.16 109.18 159.15 L 108.15 159.13 C 107.29 159.12 106.58 159.81 106.56 160.67 C 106.55 161.53 107.24 162.24 108.10 162.26 Z M 109.14 162.27 L 110.05 162.28 C 110.92 162.29 111.62 161.60 111.63 160.74 C 111.64 159.87 110.95 159.17 110.08 159.16 L 109.17 159.15 C 108.31 159.14 107.60 159.83 107.59 160.70 C 107.58 161.56 108.28 162.27 109.14 162.27 Z M 110.06 162.29 L 111.01 162.29 C 111.88 162.30 112.58 161.60 112.58 160.74 C 112.59 159.87 111.89 159.17 111.03 159.16 L 110.08 159.16 C 109.21 159.15 108.51 159.85 108.50 160.71 C 108.50 161.58 109.20 162.28 110.06 162.29 Z M 111.02 162.29 L 112.01 162.30 C 112.87 162.30 113.58 161.60 113.58 160.74 C 113.58 159.87 112.88 159.17 112.02 159.16 L 111.03 159.16 C 110.16 159.16 109.46 159.86 109.45 160.72 C 109.45 161.59 110.15 162.29 111.02 162.29 Z M 112.01 162.30 L 113.05 162.30 C 113.92 162.30 114.62 161.60 114.62 160.73 C 114.62 159.87 113.92 159.16 113.05 159.16 L 112.02 159.16 C 111.15 159.16 110.45 159.86 110.45 160.73 C 110.45 161.59 111.15 162.30 112.01 162.30 Z M 113.05 162.30 L 114.14 162.30 C 115.00 162.30 115.71 161.60 115.71 160.73 C 115.71 159.87 115.01 159.16 114.14 159.16 L 113.05 159.16 C 112.19 159.16 111.48 159.86 111.48 160.73 C 111.48 161.60 112.18 162.30 113.05 162.30 Z M 114.14 162.30 L 115.12 162.30 C 115.98 162.30 116.69 161.60 116.69 160.73 C 116.69 159.86 115.98 159.16 115.12 159.16 L 114.14 159.16 C 113.27 159.16 112.57 159.86 112.57 160.73 C 112.57 161.60 113.27 162.30 114.14 162.30 Z M 115.12 162.30 L 116.05 162.30 C 116.92 162.30 117.62 161.60 117.62 160.73 C 117.62 159.86 116.92 159.16 116.05 159.16 L 115.12 159.16 C 114.25 159.16 113.54 159.86 113.54 160.73 C 113.54 161.60 114.25 162.30 115.12 162.30 Z M 116.05 162.31 L 117.02 162.31 C 117.89 162.31 118.59 161.60 118.59 160.73 C 118.59 159.86 117.89 159.16 117.02 159.16 L 116.05 159.16 C 115.18 159.16 114.48 159.86 114.48 160.73 C 114.48 161.60 115.18 162.31 116.05 162.31 Z M 117.02 162.31 L 118.01 162.31 C 118.88 162.31 119.59 161.60 119.59 160.73 C 119.59 159.86 118.88 159.16 118.01 159.16 L 117.02 159.16 C 116.15 159.16 115.44 159.86 115.44 160.73 C 115.44 161.60 116.15 162.31 117.02 162.31 Z M 118.01 162.31 L 119.03 162.31 C 119.91 162.31 120.61 161.60 120.61 160.73 C 120.61 159.86 119.91 159.16 119.03 159.16 L 118.01 159.16 C 117.14 159.16 116.44 159.86 116.44 160.73 C 116.44 161.60 117.14 162.31 118.01 162.31 Z M 119.03 162.31 L 120.08 162.31 C 120.95 162.31 121.66 161.60 121.66 160.73 C 121.66 159.86 120.95 159.15 120.08 159.15 L 119.03 159.15 C 118.16 159.15 117.46 159.86 117.46 160.73 C 117.46 161.60 118.16 162.31 119.03 162.31 Z M 120.08 162.31 L 121.15 162.31 C 122.03 162.31 122.73 161.60 122.73 160.73 C 122.73 159.86 122.03 159.15 121.15 159.15 L 120.08 159.15 C 119.21 159.15 118.50 159.86 118.50 160.73 C 118.50 161.60 119.21 162.31 120.08 162.31 Z M 121.15 162.31 L 122.14 162.31 C 123.01 162.31 123.72 161.60 123.72 160.73 C 123.72 159.86 123.01 159.15 122.14 159.15 L 121.15 159.15 C 120.28 159.15 119.57 159.86 119.57 160.73 C 119.57 161.60 120.28 162.31 121.15 162.31 Z M 122.14 162.31 L 123.10 162.31 C 123.97 162.31 124.68 161.60 124.68 160.73 C 124.68 159.86 123.97 159.15 123.10 159.15 L 122.14 159.15 C 121.27 159.15 120.56 159.86 120.56 160.73 C 120.56 161.60 121.27 162.31 122.14 162.31 Z M 123.10 162.31 L 124.08 162.31 C 124.95 162.31 125.66 161.61 125.66 160.73 C 125.66 159.86 124.95 159.15 124.08 159.15 L 123.10 159.15 C 122.23 159.15 121.52 159.86 121.52 160.73 C 121.52 161.61 122.23 162.31 123.10 162.31 Z M 124.08 162.31 L 125.07 162.31 C 125.94 162.31 126.65 161.61 126.65 160.73 C 126.65 159.86 125.94 159.15 125.07 159.15 L 124.08 159.15 C 123.20 159.15 122.50 159.86 122.50 160.73 C 122.50 161.61 123.20 162.31 124.08 162.31 Z M 125.07 162.31 L 126.07 162.31 C 126.95 162.31 127.66 161.61 127.66 160.73 C 127.66 159.86 126.95 159.15 126.07 159.15 L 125.07 159.15 C 124.20 159.15 123.49 159.86 123.49 160.73 C 123.49 161.61 124.20 162.31 125.07 162.31 Z M 126.07 162.32 L 127.09 162.32 C 127.97 162.32 128.68 161.61 128.68 160.73 C 128.68 159.86 127.97 159.15 127.09 159.15 L 126.07 159.15 C 125.20 159.15 124.49 159.86 124.49 160.73 C 124.49 161.61 125.20 162.32 126.07 162.32 Z M 127.09 162.32 L 128.12 162.32 C 129.00 162.32 129.71 161.61 129.71 160.73 C 129.71 159.86 129.00 159.15 128.12 159.15 L 127.09 159.15 C 126.22 159.15 125.51 159.86 125.51 160.73 C 125.51 161.61 126.22 162.32 127.09 162.32 Z M 128.12 162.32 L 129.16 162.32 C 130.04 162.32 130.75 161.61 130.75 160.73 C 130.75 159.86 130.04 159.15 129.16 159.15 L 128.12 159.15 C 127.25 159.15 126.54 159.86 126.54 160.73 C 126.54 161.61 127.25 162.32 128.12 162.32 Z M 129.16 162.32 L 130.15 162.32 C 131.03 162.32 131.74 161.61 131.74 160.73 C 131.74 159.86 131.03 159.15 130.15 159.15 L 129.16 159.15 C 128.29 159.15 127.58 159.86 127.58 160.73 C 127.58 161.61 128.29 162.32 129.16 162.32 Z M 130.15 162.32 L 131.12 162.32 C 132.00 162.32 132.71 161.61 132.71 160.73 C 132.71 159.86 132.00 159.15 131.12 159.15 L 130.15 159.15 C 129.27 159.15 128.56 159.86 128.56 160.73 C 128.56 161.61 129.28 162.32 130.15 162.32 Z M 131.12 162.32 L 132.10 162.32 C 132.98 162.32 133.69 161.61 133.69 160.73 C 133.69 159.85 132.98 159.14 132.10 159.14 L 131.12 159.14 C 130.24 159.14 129.53 159.86 129.53 160.73 C 129.53 161.61 130.25 162.32 131.12 162.32 Z M 132.10 162.32 L 133.09 162.32 C 133.97 162.32 134.68 161.61 134.68 160.73 C 134.68 159.85 133.96 159.14 133.09 159.14 L 132.10 159.14 C 131.22 159.14 130.51 159.86 130.51 160.73 C 130.51 161.61 131.22 162.32 132.10 162.32 Z M 133.09 162.32 L 134.09 162.32 C 134.97 162.32 135.68 161.60 135.68 160.73 C 135.67 159.85 134.96 159.14 134.08 159.14 L 133.09 159.14 C 132.21 159.14 131.50 159.85 131.50 160.73 C 131.50 161.61 132.21 162.32 133.09 162.32 Z M 134.09 162.32 L 135.10 162.32 C 135.98 162.31 136.69 161.60 136.68 160.72 C 136.68 159.84 135.97 159.13 135.09 159.13 L 134.08 159.14 C 133.20 159.14 132.49 159.85 132.50 160.73 C 132.50 161.61 133.21 162.32 134.09 162.32 Z M 135.10 162.32 L 136.12 162.31 C 137.00 162.31 137.71 161.60 137.70 160.72 C 137.70 159.84 136.98 159.13 136.10 159.13 L 135.09 159.13 C 134.21 159.14 133.50 159.85 133.50 160.73 C 133.50 161.61 134.22 162.32 135.10 162.32 Z M 136.12 162.32 L 137.15 162.31 C 138.03 162.31 138.74 161.59 138.73 160.71 C 138.73 159.83 138.01 159.12 137.13 159.12 L 136.10 159.13 C 135.22 159.13 134.51 159.85 134.52 160.73 C 134.52 161.61 135.24 162.32 136.12 162.32 Z M 137.15 162.31 L 138.18 162.30 C 139.07 162.30 139.77 161.58 139.77 160.70 C 139.76 159.82 139.04 159.11 138.16 159.12 L 137.13 159.12 C 136.25 159.13 135.54 159.85 135.54 160.73 C 135.55 161.61 136.27 162.32 137.15 162.31 Z M 138.19 162.31 L 139.19 162.30 C 140.07 162.29 140.78 161.57 140.77 160.69 C 140.77 159.81 140.05 159.10 139.17 159.11 L 138.16 159.11 C 137.28 159.12 136.57 159.84 136.58 160.72 C 136.59 161.60 137.31 162.31 138.19 162.31 Z M 139.19 162.30 L 140.20 162.29 C 141.08 162.28 141.79 161.56 141.78 160.68 C 141.77 159.80 141.05 159.09 140.17 159.10 L 139.16 159.11 C 138.28 159.11 137.57 159.84 137.58 160.72 C 137.59 161.60 138.31 162.31 139.19 162.30 Z M 140.20 162.29 L 141.22 162.28 C 142.10 162.27 142.81 161.54 142.80 160.66 C 142.79 159.78 142.06 159.07 141.18 159.08 L 140.17 159.10 C 139.29 159.11 138.58 159.83 138.59 160.71 C 138.60 161.59 139.32 162.30 140.20 162.29 Z M 141.22 162.28 L 142.23 162.27 C 143.11 162.25 143.82 161.53 143.81 160.65 C 143.80 159.76 143.07 159.06 142.19 159.07 L 141.18 159.08 C 140.29 159.09 139.59 159.82 139.60 160.70 C 139.61 161.59 140.34 162.29 141.22 162.28 Z M 142.24 162.27 L 143.25 162.25 C 144.13 162.24 144.83 161.51 144.82 160.63 C 144.81 159.74 144.08 159.04 143.20 159.05 L 142.19 159.07 C 141.30 159.08 140.60 159.81 140.61 160.69 C 140.63 161.58 141.35 162.28 142.24 162.27 Z M 143.25 162.25 L 144.26 162.23 C 145.14 162.22 145.84 161.49 145.83 160.60 C 145.81 159.72 145.08 159.02 144.20 159.03 L 143.19 159.05 C 142.31 159.07 141.61 159.80 141.62 160.68 C 141.64 161.56 142.37 162.27 143.25 162.25 Z M 144.26 162.23 L 145.26 162.21 C 146.14 162.19 146.84 161.46 146.83 160.58 C 146.81 159.69 146.08 158.99 145.19 159.01 L 144.19 159.03 C 143.31 159.05 142.61 159.78 142.63 160.67 C 142.64 161.55 143.38 162.25 144.26 162.23 Z M 145.26 162.21 L 146.25 162.19 C 147.13 162.17 147.83 161.43 147.81 160.55 C 147.79 159.67 147.06 158.97 146.17 158.99 L 145.19 159.01 C 144.30 159.03 143.60 159.77 143.62 160.65 C 143.64 161.54 144.38 162.24 145.26 162.21 Z M 146.26 162.19 L 147.23 162.16 C 148.11 162.14 148.81 161.40 148.79 160.52 C 148.76 159.63 148.03 158.94 147.14 158.96 L 146.17 158.99 C 145.28 159.01 144.58 159.75 144.61 160.63 C 144.63 161.52 145.37 162.22 146.26 162.19 Z M 147.23 162.17 L 148.26 162.13 C 149.14 162.11 149.84 161.37 149.81 160.48 C 149.78 159.59 149.04 158.90 148.16 158.93 L 147.13 158.96 C 146.25 158.99 145.55 159.73 145.58 160.61 C 145.61 161.50 146.35 162.19 147.23 162.17 Z M 148.26 162.13 L 149.28 162.10 C 150.17 162.07 150.86 161.32 150.83 160.44 C 150.80 159.55 150.06 158.86 149.17 158.89 L 148.15 158.93 C 147.26 158.96 146.57 159.70 146.60 160.59 C 146.63 161.47 147.38 162.17 148.26 162.13 Z M 149.29 162.10 L 150.30 162.06 C 151.19 162.03 151.88 161.28 151.84 160.39 C 151.81 159.51 151.06 158.82 150.18 158.85 L 149.17 158.89 C 148.28 158.92 147.59 159.67 147.62 160.56 C 147.66 161.44 148.40 162.13 149.29 162.10 Z M 150.30 162.06 L 151.30 162.02 C 152.19 161.98 152.88 161.23 152.84 160.35 C 152.80 159.46 152.05 158.77 151.17 158.81 L 150.17 158.85 C 149.28 158.89 148.59 159.63 148.63 160.52 C 148.67 161.41 149.42 162.10 150.30 162.06 Z M 151.30 162.02 L 152.29 161.98 C 153.18 161.94 153.87 161.19 153.83 160.30 C 153.79 159.41 153.04 158.72 152.15 158.76 L 151.16 158.81 C 150.28 158.85 149.59 159.60 149.63 160.48 C 149.67 161.37 150.42 162.06 151.30 162.02 Z M 152.30 161.98 L 153.28 161.93 C 154.17 161.89 154.86 161.14 154.82 160.25 C 154.78 159.36 154.02 158.68 153.13 158.72 L 152.15 158.76 C 151.26 158.80 150.57 159.56 150.62 160.44 C 150.66 161.33 151.41 162.02 152.30 161.98 Z M 153.28 161.94 L 154.27 161.89 C 155.15 161.85 155.84 161.09 155.80 160.20 C 155.76 159.32 155.00 158.63 154.12 158.67 L 153.13 158.72 C 152.24 158.76 151.56 159.51 151.60 160.40 C 151.64 161.29 152.39 161.98 153.28 161.94 Z M 154.27 161.89 L 155.25 161.84 C 156.14 161.80 156.83 161.05 156.79 160.16 C 156.74 159.27 155.99 158.58 155.10 158.62 L 154.11 158.67 C 153.22 158.71 152.54 159.47 152.58 160.36 C 152.62 161.25 153.38 161.93 154.27 161.89 Z M 155.25 161.84 L 156.24 161.80 C 157.13 161.75 157.81 161.00 157.77 160.11 C 157.73 159.22 156.97 158.53 156.08 158.57 L 155.10 158.62 C 154.21 158.66 153.52 159.42 153.56 160.31 C 153.61 161.20 154.36 161.89 155.25 161.84 Z M 156.24 161.80 L 157.21 161.75 C 158.10 161.71 158.79 160.95 158.75 160.06 C 158.71 159.17 157.95 158.49 157.06 158.53 L 156.08 158.57 C 155.19 158.62 154.50 159.37 154.55 160.26 C 154.59 161.15 155.35 161.84 156.24 161.80 Z M 157.21 161.75 L 158.19 161.71 C 159.09 161.66 159.77 160.91 159.73 160.02 C 159.69 159.13 158.93 158.44 158.04 158.48 L 157.06 158.53 C 156.17 158.57 155.48 159.33 155.52 160.22 C 155.57 161.11 156.32 161.79 157.21 161.75 Z M 158.19 161.71 L 159.18 161.66 C 160.07 161.62 160.76 160.86 160.72 159.97 C 160.68 159.08 159.92 158.39 159.03 158.43 L 158.04 158.48 C 157.15 158.52 156.46 159.28 156.51 160.17 C 156.55 161.06 157.30 161.75 158.19 161.71 Z M 159.18 161.66 L 160.18 161.61 C 161.07 161.57 161.76 160.82 161.72 159.93 C 161.68 159.04 160.92 158.35 160.03 158.39 L 159.03 158.43 C 158.14 158.48 157.46 159.23 157.50 160.12 C 157.54 161.01 158.29 161.70 159.18 161.66 Z M 160.18 161.61 L 161.18 161.57 C 162.07 161.53 162.76 160.77 162.72 159.88 C 162.68 158.99 161.92 158.30 161.03 158.34 L 160.03 158.39 C 159.14 158.43 158.45 159.18 158.49 160.08 C 158.53 160.97 159.29 161.65 160.18 161.61 Z M 161.18 161.57 L 162.19 161.52 C 163.08 161.48 163.77 160.73 163.73 159.83 C 163.69 158.94 162.93 158.25 162.04 158.30 L 161.03 158.34 C 160.14 158.38 159.45 159.14 159.50 160.03 C 159.54 160.92 160.29 161.61 161.18 161.57 Z M 162.19 161.52 L 163.21 161.48 C 164.10 161.43 164.79 160.68 164.75 159.79 C 164.70 158.90 163.95 158.21 163.06 158.25 L 162.04 158.30 C 161.15 158.34 160.46 159.09 160.50 159.98 C 160.54 160.87 161.30 161.56 162.19 161.52 Z M 163.21 161.48 L 164.23 161.43 C 165.12 161.39 165.81 160.63 165.77 159.74 C 165.73 158.85 164.97 158.16 164.08 158.20 L 163.06 158.25 C 162.17 158.29 161.48 159.04 161.52 159.94 C 161.56 160.83 162.31 161.52 163.21 161.48 Z M 164.23 161.43 L 165.22 161.38 C 166.11 161.34 166.80 160.59 166.76 159.70 C 166.72 158.81 165.97 158.12 165.08 158.16 L 164.08 158.20 C 163.19 158.24 162.50 159.00 162.54 159.89 C 162.58 160.78 163.33 161.47 164.23 161.43 Z M 165.22 161.38 L 166.21 161.34 C 167.10 161.30 167.79 160.55 167.75 159.65 C 167.71 158.76 166.96 158.07 166.07 158.11 L 165.08 158.16 C 164.19 158.20 163.50 158.95 163.54 159.84 C 163.58 160.73 164.33 161.42 165.22 161.38 Z M 166.21 161.34 L 167.20 161.29 C 168.09 161.26 168.78 160.50 168.74 159.61 C 168.71 158.72 167.95 158.03 167.06 158.07 L 166.07 158.11 C 165.18 158.15 164.49 158.91 164.53 159.80 C 164.57 160.69 165.32 161.38 166.21 161.34 Z M 167.20 161.29 L 168.20 161.25 C 169.09 161.21 169.78 160.46 169.74 159.57 C 169.70 158.68 168.95 157.99 168.06 158.03 L 167.06 158.07 C 166.17 158.11 165.48 158.86 165.52 159.75 C 165.56 160.64 166.31 161.33 167.20 161.29 Z M 168.20 161.25 L 169.20 161.21 C 170.09 161.17 170.78 160.42 170.74 159.53 C 170.70 158.64 169.95 157.95 169.06 157.99 L 168.06 158.03 C 167.17 158.07 166.48 158.82 166.52 159.71 C 166.56 160.60 167.31 161.29 168.20 161.25 Z M 169.20 161.21 L 170.20 161.16 C 171.09 161.13 171.78 160.38 171.74 159.49 C 171.71 158.60 170.95 157.91 170.07 157.95 L 169.06 157.99 C 168.17 158.02 167.48 158.77 167.52 159.66 C 167.56 160.55 168.31 161.24 169.20 161.21 Z M 170.20 161.16 L 171.20 161.12 C 172.09 161.09 172.78 160.34 172.75 159.45 C 172.71 158.56 171.96 157.87 171.07 157.90 L 170.07 157.95 C 169.18 157.98 168.49 158.73 168.52 159.62 C 168.56 160.51 169.31 161.20 170.20 161.16 Z M 171.20 161.12 L 172.21 161.08 C 173.09 161.05 173.79 160.30 173.75 159.41 C 173.72 158.52 172.97 157.83 172.08 157.87 L 171.07 157.91 C 170.19 157.94 169.49 158.69 169.53 159.58 C 169.56 160.47 170.31 161.16 171.20 161.12 Z M 172.20 161.08 L 173.21 161.04 C 174.10 161.01 174.79 160.26 174.76 159.38 C 174.72 158.49 173.98 157.79 173.09 157.83 L 172.08 157.87 C 171.19 157.90 170.50 158.65 170.54 159.54 C 170.57 160.42 171.32 161.12 172.20 161.08 Z M 173.21 161.04 L 174.22 161.01 C 175.11 160.97 175.80 160.23 175.77 159.34 C 175.74 158.45 174.99 157.76 174.11 157.79 L 173.09 157.83 C 172.20 157.86 171.51 158.61 171.54 159.49 C 171.57 160.38 172.32 161.08 173.21 161.04 Z M 174.22 161.01 L 175.24 160.97 C 176.13 160.94 176.82 160.20 176.79 159.31 C 176.76 158.42 176.02 157.73 175.13 157.76 L 174.11 157.79 C 173.22 157.82 172.53 158.57 172.56 159.45 C 172.59 160.34 173.33 161.04 174.22 161.01 Z M 175.24 160.97 L 176.25 160.94 C 177.14 160.91 177.83 160.16 177.81 159.28 C 177.78 158.39 177.03 157.70 176.15 157.72 L 175.13 157.76 C 174.24 157.79 173.55 158.53 173.58 159.42 C 173.61 160.30 174.35 161.00 175.24 160.97 Z M 176.25 160.93 L 177.26 160.90 C 178.15 160.88 178.84 160.13 178.82 159.25 C 178.79 158.36 178.05 157.67 177.16 157.69 L 176.15 157.73 C 175.26 157.75 174.57 158.49 174.59 159.38 C 174.62 160.27 175.36 160.96 176.25 160.93 Z M 177.26 160.90 L 178.26 160.87 C 179.15 160.85 179.85 160.11 179.82 159.22 C 179.79 158.33 179.05 157.64 178.17 157.66 L 177.16 157.69 C 176.28 157.72 175.58 158.46 175.61 159.35 C 175.63 160.23 176.37 160.93 177.26 160.90 Z M 178.26 160.87 L 179.26 160.84 C 180.15 160.82 180.84 160.08 180.82 159.19 C 180.79 158.31 180.05 157.61 179.17 157.64 L 178.17 157.66 C 177.29 157.69 176.59 158.43 176.61 159.31 C 176.64 160.20 177.38 160.90 178.26 160.87 Z M 179.26 160.84 L 180.25 160.82 C 181.13 160.79 181.83 160.05 181.81 159.17 C 181.78 158.28 181.05 157.59 180.16 157.61 L 179.17 157.64 C 178.29 157.66 177.59 158.40 177.61 159.28 C 177.64 160.17 178.37 160.87 179.26 160.84 Z M 180.25 160.81 L 181.22 160.79 C 182.11 160.77 182.81 160.03 182.79 159.15 C 182.76 158.26 182.03 157.56 181.14 157.59 L 180.16 157.61 C 179.28 157.63 178.58 158.37 178.60 159.25 C 178.62 160.14 179.36 160.84 180.25 160.81 Z M 181.22 160.79 L 182.19 160.77 C 183.07 160.74 183.77 160.01 183.75 159.12 C 183.73 158.24 183.00 157.54 182.11 157.56 L 181.14 157.59 C 180.26 157.61 179.56 158.34 179.58 159.23 C 179.60 160.11 180.34 160.81 181.22 160.79 Z M 182.19 160.76 L 183.22 160.74 C 184.10 160.72 184.80 159.99 184.78 159.10 C 184.76 158.22 184.03 157.52 183.15 157.54 L 182.11 157.56 C 181.23 157.58 180.53 158.32 180.55 159.20 C 180.57 160.08 181.30 160.78 182.19 160.76 Z M 183.22 160.74 L 184.24 160.72 C 185.13 160.70 185.83 159.97 185.81 159.08 C 185.79 158.20 185.06 157.50 184.17 157.52 L 183.15 157.54 C 182.26 157.56 181.56 158.29 181.58 159.17 C 181.60 160.06 182.33 160.76 183.22 160.74 Z M 184.24 160.72 L 185.25 160.70 C 186.14 160.68 186.84 159.95 186.82 159.06 C 186.80 158.18 186.07 157.48 185.19 157.50 L 184.17 157.52 C 183.29 157.54 182.59 158.27 182.61 159.15 C 182.63 160.03 183.36 160.74 184.24 160.72 Z M 185.25 160.70 L 186.25 160.67 C 187.14 160.66 187.84 159.93 187.82 159.04 C 187.80 158.16 187.07 157.46 186.19 157.48 L 185.19 157.50 C 184.30 157.52 183.60 158.25 183.62 159.13 C 183.64 160.01 184.37 160.71 185.25 160.70 Z M 186.25 160.67 L 187.25 160.65 C 188.13 160.64 188.83 159.91 188.81 159.02 C 188.79 158.14 188.06 157.44 187.18 157.46 L 186.19 157.48 C 185.31 157.50 184.61 158.23 184.62 159.11 C 184.64 159.99 185.37 160.69 186.25 160.67 Z M 187.25 160.65 L 188.23 160.63 C 189.11 160.61 189.81 159.88 189.79 159.00 C 189.78 158.12 189.05 157.42 188.16 157.44 L 187.18 157.46 C 186.30 157.48 185.60 158.21 185.62 159.09 C 185.64 159.97 186.37 160.67 187.25 160.65 Z M 188.23 160.63 L 189.21 160.61 C 190.09 160.59 190.79 159.86 190.77 158.98 C 190.75 158.10 190.02 157.40 189.14 157.42 L 188.16 157.44 C 187.28 157.46 186.58 158.19 186.60 159.07 C 186.62 159.95 187.35 160.65 188.23 160.63 Z M 189.21 160.61 L 190.19 160.59 C 191.07 160.56 191.77 159.83 191.75 158.95 C 191.72 158.07 190.99 157.37 190.11 157.39 L 189.14 157.42 C 188.26 157.44 187.56 158.17 187.58 159.05 C 187.60 159.93 188.33 160.63 189.21 160.61 Z M 190.19 160.58 L 191.24 160.56 C 192.12 160.53 192.82 159.80 192.80 158.92 C 192.77 158.04 192.04 157.35 191.16 157.37 L 190.11 157.40 C 189.23 157.42 188.53 158.15 188.56 159.03 C 188.58 159.91 189.31 160.61 190.19 160.58 Z M 191.25 160.56 L 192.31 160.53 C 193.19 160.50 193.88 159.77 193.86 158.89 C 193.83 158.01 193.10 157.32 192.22 157.34 L 191.16 157.37 C 190.28 157.39 189.58 158.13 189.61 159.01 C 189.63 159.89 190.37 160.58 191.25 160.56 Z M 192.31 160.52 L 193.36 160.49 C 194.24 160.47 194.93 159.73 194.90 158.86 C 194.88 157.98 194.14 157.29 193.26 157.31 L 192.22 157.34 C 191.34 157.37 190.65 158.10 190.67 158.98 C 190.70 159.86 191.43 160.55 192.31 160.52 Z M 193.36 160.49 L 194.38 160.46 C 195.26 160.43 195.95 159.70 195.92 158.82 C 195.90 157.94 195.16 157.25 194.29 157.28 L 193.26 157.31 C 192.38 157.34 191.69 158.07 191.72 158.95 C 191.75 159.83 192.48 160.52 193.36 160.49 Z M 194.39 160.46 L 195.38 160.43 C 196.26 160.40 196.95 159.67 196.92 158.79 C 196.89 157.91 196.16 157.22 195.28 157.25 L 194.29 157.28 C 193.41 157.31 192.72 158.04 192.75 158.92 C 192.78 159.80 193.51 160.49 194.39 160.46 Z M 195.38 160.43 L 196.34 160.39 C 197.22 160.37 197.91 159.63 197.88 158.76 C 197.85 157.88 197.12 157.20 196.24 157.22 L 195.28 157.25 C 194.41 157.28 193.72 158.01 193.75 158.89 C 193.77 159.77 194.51 160.45 195.38 160.43 Z M 196.34 160.39 L 197.26 160.36 C 198.13 160.34 198.82 159.60 198.79 158.73 C 198.77 157.85 198.03 157.17 197.16 157.20 L 196.24 157.22 C 195.37 157.25 194.68 157.98 194.71 158.86 C 194.74 159.73 195.47 160.42 196.34 160.39 Z M 197.26 160.36 L 198.26 160.33 C 199.14 160.30 199.82 159.57 199.80 158.70 C 199.77 157.82 199.04 157.14 198.16 157.17 L 197.16 157.20 C 196.29 157.22 195.60 157.95 195.63 158.83 C 195.65 159.70 196.38 160.39 197.26 160.36 Z M 198.26 160.33 L 199.36 160.30 C 200.23 160.27 200.92 159.54 200.89 158.67 C 200.87 157.79 200.14 157.11 199.26 157.13 L 198.17 157.17 C 197.29 157.19 196.61 157.92 196.63 158.80 C 196.66 159.67 197.39 160.36 198.26 160.33 Z M 199.36 160.29 L 200.38 160.26 C 201.25 160.24 201.94 159.51 201.91 158.64 C 201.89 157.77 201.16 157.08 200.29 157.11 L 199.27 157.14 C 198.39 157.16 197.71 157.89 197.73 158.76 C 197.76 159.63 198.49 160.32 199.36 160.29 Z M 200.38 160.26 L 201.35 160.24 C 202.22 160.21 202.90 159.48 202.88 158.61 C 202.85 157.74 202.13 157.06 201.26 157.08 L 200.29 157.11 C 199.42 157.13 198.73 157.86 198.76 158.73 C 198.78 159.60 199.51 160.29 200.38 160.26 Z M 201.34 160.23 L 202.27 160.21 C 203.14 160.18 203.83 159.46 203.80 158.59 C 203.78 157.72 203.05 157.03 202.18 157.06 L 201.26 157.08 C 200.39 157.11 199.70 157.83 199.72 158.70 C 199.75 159.57 200.47 160.26 201.34 160.23 Z M 202.27 160.21 L 203.18 160.18 C 204.05 160.16 204.74 159.43 204.72 158.56 C 204.69 157.69 203.97 157.01 203.10 157.03 L 202.18 157.06 C 201.31 157.08 200.63 157.81 200.65 158.68 C 200.68 159.55 201.40 160.23 202.27 160.21 Z M 203.18 160.18 L 204.19 160.15 C 205.06 160.13 205.75 159.40 205.72 158.54 C 205.70 157.67 204.98 156.98 204.11 157.01 L 203.10 157.03 C 202.23 157.06 201.54 157.78 201.57 158.65 C 201.59 159.52 202.31 160.21 203.18 160.18 Z M 204.20 160.15 L 205.20 160.12 C 206.07 160.10 206.75 159.37 206.73 158.50 C 206.70 157.64 205.98 156.95 205.11 156.98 L 204.10 157.01 C 203.24 157.03 202.55 157.76 202.58 158.63 C 202.60 159.49 203.33 160.18 204.20 160.15 Z M 205.20 160.12 L 206.20 160.09 C 207.07 160.06 207.75 159.34 207.72 158.47 C 207.70 157.60 206.97 156.92 206.10 156.95 L 205.10 156.98 C 204.24 157.01 203.56 157.73 203.58 158.60 C 203.61 159.47 204.34 160.15 205.20 160.12 Z M 206.21 160.09 L 207.20 160.05 C 208.07 160.02 208.75 159.29 208.72 158.43 C 208.68 157.56 207.96 156.88 207.09 156.91 L 206.10 156.95 C 205.23 156.98 204.55 157.71 204.58 158.57 C 204.61 159.44 205.34 160.12 206.21 160.09 Z M 207.21 160.05 L 208.20 160.01 C 209.07 159.97 209.74 159.24 209.71 158.38 C 209.67 157.51 208.94 156.84 208.08 156.87 L 207.08 156.91 C 206.22 156.95 205.54 157.68 205.58 158.55 C 205.61 159.41 206.34 160.09 207.21 160.05 Z M 208.21 160.01 L 209.22 159.96 C 210.09 159.92 210.76 159.19 210.72 158.32 C 210.68 157.46 209.94 156.79 209.08 156.83 L 208.07 156.87 C 207.20 156.91 206.53 157.65 206.57 158.51 C 206.61 159.38 207.35 160.05 208.21 160.01 Z M 209.23 159.96 L 210.23 159.91 C 211.09 159.87 211.76 159.13 211.72 158.27 C 211.68 157.40 210.94 156.74 210.07 156.78 L 209.07 156.83 C 208.21 156.87 207.54 157.61 207.58 158.47 C 207.62 159.34 208.36 160.00 209.23 159.96 Z M 210.23 159.91 L 211.22 159.86 C 212.09 159.82 212.76 159.08 212.71 158.22 C 212.67 157.35 211.93 156.69 211.07 156.73 L 210.07 156.78 C 209.21 156.82 208.54 157.56 208.58 158.42 C 208.63 159.29 209.36 159.96 210.23 159.91 Z M 211.22 159.86 L 212.21 159.82 C 213.08 159.78 213.75 159.04 213.70 158.17 C 213.66 157.31 212.93 156.64 212.06 156.68 L 211.07 156.73 C 210.21 156.77 209.54 157.50 209.58 158.37 C 209.62 159.24 210.36 159.90 211.22 159.86 Z M 212.20 159.82 L 213.21 159.77 C 214.08 159.74 214.75 159.00 214.71 158.14 C 214.68 157.27 213.94 156.60 213.08 156.64 L 212.07 156.68 C 211.20 156.72 210.53 157.45 210.57 158.32 C 210.61 159.18 211.34 159.85 212.20 159.82 Z M 213.21 159.77 L 214.22 159.73 C 215.08 159.70 215.76 158.97 215.73 158.11 C 215.69 157.24 214.96 156.57 214.10 156.60 L 213.09 156.64 C 212.22 156.67 211.55 157.40 211.58 158.27 C 211.61 159.13 212.34 159.81 213.21 159.77 Z M 214.22 159.73 L 215.22 159.69 C 216.08 159.66 216.76 158.94 216.73 158.07 C 216.69 157.21 215.97 156.53 215.10 156.57 L 214.10 156.60 C 213.24 156.63 212.56 157.36 212.60 158.23 C 212.63 159.09 213.35 159.76 214.22 159.73 Z M 215.22 159.69 L 216.21 159.65 C 217.07 159.62 217.75 158.89 217.71 158.03 C 217.68 157.17 216.95 156.50 216.09 156.53 L 215.10 156.57 C 214.24 156.60 213.57 157.33 213.60 158.19 C 213.63 159.05 214.36 159.73 215.22 159.69 Z M 216.22 159.65 L 217.20 159.61 C 218.06 159.57 218.73 158.84 218.69 157.98 C 218.66 157.12 217.93 156.45 217.06 156.49 L 216.08 156.53 C 215.22 156.57 214.55 157.30 214.59 158.16 C 214.63 159.02 215.36 159.69 216.22 159.65 Z M 217.21 159.61 L 218.23 159.56 C 219.09 159.51 219.75 158.78 219.71 157.92 C 219.66 157.06 218.93 156.39 218.07 156.44 L 217.05 156.49 C 216.19 156.53 215.53 157.27 215.57 158.13 C 215.62 158.99 216.35 159.65 217.21 159.61 Z M 218.24 159.56 L 219.24 159.50 C 220.10 159.45 220.76 158.72 220.71 157.86 C 220.66 156.99 219.92 156.34 219.06 156.38 L 218.06 156.44 C 217.20 156.48 216.54 157.22 216.59 158.08 C 216.64 158.94 217.37 159.60 218.24 159.56 Z M 219.24 159.50 L 220.22 159.45 C 221.09 159.40 221.75 158.66 221.70 157.80 C 221.65 156.94 220.91 156.28 220.05 156.33 L 219.06 156.38 C 218.20 156.43 217.54 157.17 217.59 158.03 C 217.64 158.89 218.37 159.55 219.24 159.50 Z M 220.22 159.45 L 221.20 159.39 C 222.06 159.35 222.73 158.62 222.68 157.76 C 222.64 156.89 221.90 156.23 221.04 156.28 L 220.06 156.33 C 219.20 156.37 218.54 157.11 218.58 157.97 C 218.62 158.83 219.36 159.49 220.22 159.45 Z M 221.19 159.40 L 222.17 159.35 C 223.03 159.31 223.70 158.58 223.66 157.72 C 223.62 156.86 222.89 156.19 222.03 156.23 L 221.05 156.28 C 220.19 156.32 219.52 157.05 219.56 157.91 C 219.60 158.77 220.33 159.43 221.19 159.40 Z M 222.17 159.35 L 223.16 159.31 C 224.02 159.27 224.69 158.54 224.65 157.68 C 224.61 156.82 223.88 156.15 223.02 156.19 L 222.03 156.23 C 221.17 156.27 220.50 157.00 220.54 157.86 C 220.58 158.72 221.31 159.39 222.17 159.35 Z M 223.17 159.31 L 224.17 159.25 C 225.03 159.21 225.69 158.48 225.65 157.62 C 225.60 156.75 224.87 156.09 224.01 156.14 L 223.01 156.19 C 222.15 156.23 221.48 156.97 221.53 157.83 C 221.57 158.69 222.31 159.35 223.17 159.31 Z M 224.19 159.25 L 225.21 159.19 C 226.07 159.13 226.72 158.39 226.67 157.53 C 226.61 156.67 225.87 156.02 225.01 156.07 L 223.99 156.14 C 223.13 156.19 222.47 156.93 222.53 157.79 C 222.58 158.66 223.33 159.31 224.19 159.25 Z M 225.24 159.19 L 226.55 159.08 C 227.41 159.01 228.05 158.25 227.98 157.39 C 227.91 156.53 227.15 155.89 226.29 155.97 L 224.98 156.07 C 224.12 156.15 223.48 156.90 223.55 157.76 C 223.62 158.62 224.38 159.26 225.24 159.19 Z M 226.59 159.07 L 227.80 158.95 C 228.65 158.85 229.27 158.09 229.18 157.23 C 229.09 156.37 228.32 155.75 227.47 155.84 L 226.26 155.97 C 225.40 156.06 224.78 156.83 224.87 157.69 C 224.96 158.54 225.73 159.16 226.59 159.07 Z M 227.86 158.94 L 228.58 158.83 C 229.43 158.70 230.02 157.91 229.89 157.06 C 229.76 156.20 228.97 155.61 228.12 155.74 L 227.40 155.85 C 226.55 155.98 225.96 156.77 226.09 157.62 C 226.21 158.48 227.01 159.06 227.86 158.94 Z M 229.16 155.95 L 229.07 155.90 C 228.34 155.45 227.38 155.68 226.93 156.42 C 226.48 157.15 226.71 158.11 227.44 158.56 L 227.53 158.62 C 228.27 159.07 229.23 158.84 229.68 158.10 C 230.13 157.36 229.90 156.40 229.16 155.95 Z M 228.25 155.67 L 227.30 155.68 C 226.44 155.68 225.75 156.39 225.75 157.25 C 225.76 158.11 226.46 158.80 227.32 158.80 L 228.27 158.79 C 229.13 158.79 229.82 158.08 229.82 157.22 C 229.81 156.36 229.11 155.66 228.25 155.67 Z M 227.27 155.68 L 225.86 155.72 C 225.00 155.74 224.32 156.46 224.35 157.32 C 224.37 158.19 225.09 158.86 225.96 158.84 L 227.36 158.80 C 228.22 158.77 228.90 158.05 228.87 157.19 C 228.85 156.33 228.13 155.65 227.27 155.68 Z M 225.86 155.72 L 225.72 155.72 C 224.86 155.75 224.19 156.47 224.21 157.33 C 224.24 158.19 224.96 158.87 225.82 158.84 L 225.96 158.84 C 226.82 158.81 227.50 158.09 227.47 157.23 C 227.44 156.37 226.72 155.69 225.86 155.72 Z"
      fill="black"
      fill-rule="nonzero" /></svg>