<svg xmlns="http://www.w3.org/2000/svg" width="300" height="300" viewBox="0 0 300 300">
<path d="M 102.69 99.49 L 101.38 99.28 C 100.53 99.14 99.73 99.71 99.59 100.56 C 99.45 101.41 100.02 102.22 100.87 102.36 L 102.18 102.57 C 103.03 102.71 103.84 102.14 103.98 101.29 C 104.12 100.44 103.54 99.63 102.69 99.49 Z M 101.54 99.31 L 100.66 99.07 C 99.82 98.84 98.97 99.33 98.74 100.16 C 98.51 100.99 99.00 101.85 99.83 102.08 L 100.71 102.32 C 101.55 102.55 102.40 102.06 102.63 101.23 C 102.86 100.40 102.37 99.54 101.54 99.31 Z M 101.79 100.38 L 101.76 100.08 C 101.65 99.23 100.87 98.62 100.01 98.72 C 99.16 98.83 98.55 99.61 98.66 100.47 L 98.69 100.77 C 98.80 101.62 99.58 102.23 100.43 102.12 C 101.29 102.02 101.90 101.24 101.79 100.38 Z M 100.81 101.71 L 101.67 101.35 C 102.47 101.02 102.84 100.10 102.51 99.31 C 102.17 98.51 101.26 98.14 100.46 98.47 L 99.60 98.83 C 98.81 99.17 98.43 100.08 98.77 100.88 C 99.10 101.67 100.02 102.05 100.81 101.71 Z M 101.51 101.41 L 102.76 101.04 C 103.58 100.79 104.05 99.92 103.81 99.10 C 103.56 98.27 102.69 97.80 101.87 98.04 L 100.62 98.42 C 99.79 98.66 99.32 99.53 99.57 100.36 C 99.82 101.18 100.68 101.65 101.51 101.41 Z M 102.74 101.04 L 103.64 100.79 C 104.47 100.55 104.95 99.69 104.71 98.86 C 104.48 98.03 103.61 97.55 102.79 97.78 L 101.88 98.04 C 101.05 98.28 100.57 99.14 100.81 99.97 C 101.04 100.80 101.91 101.28 102.74 101.04 Z M 103.64 100.79 L 104.58 100.52 C 105.41 100.29 105.89 99.42 105.65 98.60 C 105.42 97.77 104.56 97.28 103.73 97.52 L 102.79 97.78 C 101.96 98.02 101.48 98.88 101.71 99.71 C 101.94 100.54 102.81 101.02 103.64 100.79 Z M 104.58 100.52 L 105.58 100.24 C 106.41 100.00 106.89 99.14 106.66 98.31 C 106.42 97.48 105.56 97.00 104.73 97.23 L 103.73 97.52 C 102.90 97.75 102.41 98.61 102.65 99.44 C 102.88 100.27 103.75 100.76 104.58 100.52 Z M 105.58 100.24 L 106.58 99.95 C 107.41 99.72 107.90 98.86 107.66 98.03 C 107.43 97.20 106.56 96.71 105.73 96.95 L 104.73 97.23 C 103.90 97.47 103.42 98.33 103.65 99.16 C 103.89 99.99 104.75 100.47 105.58 100.24 Z M 106.59 99.95 L 107.56 99.68 C 108.39 99.44 108.87 98.58 108.63 97.75 C 108.40 96.92 107.53 96.44 106.70 96.67 L 105.73 96.95 C 104.90 97.19 104.42 98.05 104.66 98.88 C 104.89 99.71 105.76 100.19 106.59 99.95 Z M 107.56 99.67 L 108.55 99.39 C 109.38 99.15 109.86 98.29 109.62 97.46 C 109.38 96.63 108.52 96.15 107.69 96.39 L 106.70 96.67 C 105.87 96.91 105.39 97.78 105.63 98.61 C 105.87 99.43 106.74 99.91 107.56 99.67 Z M 108.56 99.39 L 109.53 99.11 C 110.35 98.87 110.83 98.00 110.59 97.17 C 110.35 96.34 109.48 95.87 108.65 96.11 L 107.69 96.39 C 106.86 96.63 106.38 97.50 106.62 98.33 C 106.86 99.15 107.73 99.63 108.56 99.39 Z M 109.53 99.10 L 110.47 98.83 C 111.30 98.58 111.77 97.71 111.53 96.89 C 111.28 96.06 110.41 95.59 109.59 95.83 L 108.65 96.11 C 107.82 96.36 107.35 97.23 107.59 98.05 C 107.84 98.88 108.71 99.35 109.53 99.10 Z M 110.48 98.82 L 111.49 98.52 C 112.32 98.27 112.78 97.39 112.53 96.57 C 112.28 95.74 111.41 95.28 110.59 95.53 L 109.58 95.84 C 108.75 96.09 108.29 96.96 108.54 97.78 C 108.79 98.61 109.66 99.07 110.48 98.82 Z M 111.50 98.51 L 112.43 98.23 C 113.26 97.97 113.72 97.10 113.46 96.27 C 113.21 95.45 112.33 94.99 111.51 95.24 L 110.58 95.53 C 109.75 95.79 109.29 96.66 109.55 97.48 C 109.80 98.31 110.68 98.77 111.50 98.51 Z M 112.43 98.23 L 113.35 97.94 C 114.17 97.69 114.63 96.81 114.38 95.99 C 114.12 95.17 113.25 94.71 112.42 94.96 L 111.51 95.24 C 110.69 95.50 110.23 96.37 110.48 97.20 C 110.74 98.02 111.61 98.48 112.43 98.23 Z M 113.34 97.95 L 114.26 97.67 C 115.08 97.41 115.55 96.54 115.30 95.72 C 115.05 94.89 114.17 94.43 113.35 94.68 L 112.43 94.96 C 111.61 95.21 111.14 96.08 111.39 96.91 C 111.64 97.73 112.52 98.20 113.34 97.95 Z M 114.25 97.67 L 115.20 97.38 C 116.03 97.13 116.49 96.26 116.25 95.44 C 116.00 94.61 115.13 94.14 114.30 94.39 L 113.35 94.68 C 112.53 94.92 112.06 95.80 112.31 96.62 C 112.56 97.45 113.43 97.92 114.25 97.67 Z M 115.20 97.38 L 116.17 97.09 C 117.00 96.85 117.47 95.98 117.22 95.15 C 116.98 94.33 116.11 93.85 115.28 94.10 L 114.31 94.39 C 113.48 94.64 113.01 95.51 113.25 96.33 C 113.50 97.16 114.37 97.63 115.20 97.38 Z M 116.17 97.09 L 117.15 96.80 C 117.98 96.56 118.45 95.69 118.20 94.86 C 117.96 94.04 117.09 93.56 116.26 93.81 L 115.28 94.10 C 114.45 94.35 113.98 95.21 114.23 96.04 C 114.47 96.87 115.34 97.34 116.17 97.09 Z M 117.15 96.80 L 118.09 96.52 C 118.92 96.28 119.39 95.41 119.14 94.59 C 118.90 93.76 118.03 93.29 117.20 93.53 L 116.26 93.81 C 115.44 94.05 114.97 94.92 115.21 95.75 C 115.45 96.58 116.32 97.05 117.15 96.80 Z M 118.09 96.53 L 119.04 96.25 C 119.86 96.01 120.34 95.14 120.10 94.31 C 119.85 93.48 118.99 93.01 118.16 93.25 L 117.21 93.53 C 116.38 93.77 115.91 94.64 116.15 95.47 C 116.39 96.29 117.26 96.77 118.09 96.53 Z M 119.03 96.25 L 120.00 95.97 C 120.83 95.74 121.30 94.87 121.07 94.04 C 120.83 93.21 119.97 92.73 119.14 92.97 L 118.17 93.25 C 117.34 93.49 116.86 94.35 117.10 95.18 C 117.33 96.01 118.20 96.49 119.03 96.25 Z M 119.98 95.98 L 120.95 95.71 C 121.79 95.48 122.27 94.61 122.04 93.78 C 121.81 92.95 120.95 92.47 120.12 92.70 L 119.15 92.97 C 118.32 93.20 117.83 94.06 118.06 94.89 C 118.29 95.72 119.15 96.21 119.98 95.98 Z M 120.94 95.71 L 121.87 95.46 C 122.70 95.24 123.19 94.38 122.97 93.55 C 122.74 92.71 121.88 92.22 121.05 92.45 L 120.13 92.70 C 119.30 92.92 118.80 93.78 119.03 94.61 C 119.25 95.44 120.11 95.93 120.94 95.71 Z M 121.86 95.46 L 122.81 95.21 C 123.65 94.99 124.14 94.13 123.92 93.30 C 123.70 92.46 122.84 91.97 122.01 92.19 L 121.06 92.44 C 120.22 92.67 119.73 93.52 119.95 94.35 C 120.17 95.19 121.03 95.68 121.86 95.46 Z M 122.81 95.21 L 123.80 94.95 C 124.63 94.73 125.13 93.87 124.91 93.04 C 124.68 92.21 123.83 91.71 123.00 91.93 L 122.01 92.19 C 121.18 92.41 120.68 93.27 120.90 94.10 C 121.12 94.93 121.98 95.43 122.81 95.21 Z M 123.80 94.95 L 124.82 94.67 C 125.65 94.45 126.15 93.60 125.92 92.76 C 125.70 91.93 124.85 91.44 124.01 91.66 L 122.99 91.93 C 122.16 92.15 121.67 93.01 121.89 93.84 C 122.11 94.67 122.97 95.17 123.80 94.95 Z M 124.82 94.67 L 125.75 94.42 C 126.58 94.20 127.07 93.34 126.85 92.51 C 126.62 91.68 125.76 91.18 124.93 91.41 L 124.01 91.66 C 123.18 91.88 122.68 92.74 122.91 93.57 C 123.13 94.41 123.99 94.90 124.82 94.67 Z M 125.75 94.42 L 126.69 94.17 C 127.53 93.94 128.02 93.08 127.79 92.25 C 127.57 91.42 126.71 90.93 125.88 91.15 L 124.93 91.41 C 124.10 91.64 123.61 92.49 123.83 93.33 C 124.06 94.16 124.92 94.65 125.75 94.42 Z M 126.69 94.17 L 127.66 93.91 C 128.49 93.68 128.99 92.83 128.76 91.99 C 128.54 91.16 127.68 90.67 126.85 90.89 L 125.88 91.15 C 125.05 91.38 124.55 92.23 124.78 93.07 C 125.00 93.90 125.86 94.39 126.69 94.17 Z M 127.65 93.91 L 128.64 93.65 C 129.48 93.43 129.97 92.57 129.75 91.74 C 129.53 90.91 128.68 90.41 127.85 90.63 L 126.86 90.89 C 126.02 91.11 125.52 91.97 125.74 92.80 C 125.97 93.63 126.82 94.13 127.65 93.91 Z M 128.63 93.65 L 129.64 93.39 C 130.47 93.18 130.97 92.33 130.76 91.49 C 130.54 90.66 129.69 90.15 128.86 90.37 L 127.86 90.63 C 127.02 90.84 126.52 91.69 126.73 92.53 C 126.95 93.36 127.80 93.86 128.63 93.65 Z M 129.62 93.40 L 130.57 93.16 C 131.41 92.95 131.92 92.10 131.71 91.27 C 131.50 90.43 130.66 89.92 129.82 90.13 L 128.87 90.37 C 128.03 90.57 127.52 91.42 127.73 92.26 C 127.94 93.09 128.79 93.60 129.62 93.40 Z M 130.57 93.16 L 131.53 92.93 C 132.37 92.72 132.88 91.88 132.68 91.04 C 132.47 90.20 131.63 89.69 130.79 89.89 L 129.83 90.13 C 128.99 90.33 128.48 91.17 128.68 92.01 C 128.88 92.85 129.73 93.36 130.57 93.16 Z M 131.52 92.93 L 132.50 92.70 C 133.34 92.50 133.85 91.65 133.65 90.81 C 133.45 89.98 132.61 89.46 131.77 89.66 L 130.80 89.89 C 129.96 90.09 129.44 90.93 129.64 91.77 C 129.84 92.61 130.68 93.13 131.52 92.93 Z M 132.50 92.70 L 133.48 92.46 C 134.32 92.26 134.83 91.42 134.64 90.58 C 134.44 89.74 133.59 89.23 132.76 89.43 L 131.77 89.66 C 130.93 89.86 130.42 90.70 130.62 91.54 C 130.81 92.38 131.66 92.90 132.50 92.70 Z M 133.48 92.46 L 134.47 92.23 C 135.31 92.03 135.82 91.18 135.62 90.35 C 135.42 89.51 134.58 88.99 133.74 89.19 L 132.75 89.43 C 131.92 89.63 131.40 90.47 131.60 91.31 C 131.80 92.15 132.64 92.66 133.48 92.46 Z M 134.47 92.23 L 135.43 91.99 C 136.27 91.79 136.79 90.95 136.58 90.11 C 136.38 89.27 135.54 88.76 134.70 88.96 L 133.74 89.19 C 132.90 89.39 132.39 90.24 132.59 91.07 C 132.79 91.91 133.63 92.43 134.47 92.23 Z M 135.44 91.99 L 136.40 91.76 C 137.23 91.55 137.75 90.71 137.54 89.87 C 137.34 89.03 136.49 88.52 135.65 88.73 L 134.70 88.96 C 133.86 89.16 133.35 90.01 133.55 90.85 C 133.75 91.68 134.60 92.20 135.44 91.99 Z M 136.40 91.76 L 137.36 91.52 C 138.20 91.32 138.71 90.47 138.51 89.63 C 138.30 88.80 137.46 88.28 136.62 88.49 L 135.65 88.73 C 134.82 88.93 134.30 89.78 134.51 90.61 C 134.71 91.45 135.56 91.96 136.40 91.76 Z M 137.36 91.52 L 138.34 91.28 C 139.17 91.08 139.69 90.23 139.48 89.39 C 139.28 88.56 138.43 88.04 137.59 88.25 L 136.62 88.49 C 135.78 88.69 135.27 89.54 135.47 90.38 C 135.68 91.21 136.53 91.73 137.36 91.52 Z M 138.34 91.28 L 139.32 91.04 C 140.16 90.84 140.67 89.99 140.47 89.16 C 140.26 88.32 139.42 87.80 138.58 88.01 L 137.60 88.25 C 136.76 88.45 136.24 89.30 136.45 90.14 C 136.65 90.97 137.50 91.49 138.34 91.28 Z M 139.32 91.04 L 140.31 90.80 C 141.15 90.60 141.66 89.76 141.46 88.92 C 141.26 88.08 140.41 87.57 139.58 87.77 L 138.58 88.01 C 137.75 88.21 137.23 89.05 137.43 89.89 C 137.64 90.73 138.48 91.25 139.32 91.04 Z M 140.30 90.80 L 141.29 90.57 C 142.13 90.37 142.65 89.53 142.45 88.69 C 142.25 87.85 141.41 87.33 140.57 87.53 L 139.58 87.77 C 138.74 87.97 138.22 88.81 138.42 89.65 C 138.62 90.49 139.47 91.00 140.30 90.80 Z M 141.29 90.57 L 142.28 90.34 C 143.12 90.14 143.64 89.30 143.44 88.46 C 143.25 87.62 142.41 87.10 141.57 87.30 L 140.57 87.53 C 139.74 87.73 139.21 88.57 139.41 89.41 C 139.61 90.25 140.45 90.77 141.29 90.57 Z M 142.27 90.34 L 143.26 90.11 C 144.10 89.92 144.62 89.08 144.43 88.24 C 144.23 87.40 143.40 86.87 142.56 87.07 L 141.57 87.30 C 140.73 87.49 140.21 88.33 140.40 89.17 C 140.60 90.01 141.43 90.53 142.27 90.34 Z M 143.25 90.11 L 144.22 89.89 C 145.06 89.70 145.59 88.86 145.40 88.02 C 145.21 87.18 144.37 86.66 143.53 86.85 L 142.56 87.07 C 141.72 87.26 141.19 88.09 141.39 88.94 C 141.58 89.78 142.41 90.30 143.25 90.11 Z M 144.22 89.89 L 145.16 89.68 C 146.01 89.50 146.54 88.66 146.35 87.82 C 146.16 86.98 145.33 86.45 144.49 86.63 L 143.54 86.85 C 142.70 87.03 142.17 87.87 142.35 88.71 C 142.54 89.55 143.38 90.08 144.22 89.89 Z M 145.16 89.68 L 146.17 89.47 C 147.01 89.28 147.54 88.45 147.36 87.61 C 147.18 86.77 146.35 86.23 145.51 86.41 L 144.49 86.63 C 143.65 86.82 143.12 87.65 143.30 88.49 C 143.48 89.33 144.31 89.87 145.16 89.68 Z M 146.16 89.47 L 147.17 89.25 C 148.01 89.08 148.55 88.25 148.38 87.40 C 148.20 86.56 147.37 86.02 146.53 86.20 L 145.51 86.41 C 144.67 86.59 144.13 87.42 144.31 88.26 C 144.49 89.11 145.31 89.65 146.16 89.47 Z M 147.16 89.25 L 148.14 89.05 C 148.99 88.88 149.53 88.05 149.36 87.21 C 149.18 86.36 148.35 85.82 147.51 85.99 L 146.53 86.20 C 145.69 86.37 145.14 87.20 145.32 88.04 C 145.49 88.89 146.32 89.43 147.16 89.25 Z M 148.14 89.05 L 149.09 88.86 C 149.94 88.68 150.48 87.86 150.31 87.01 C 150.14 86.17 149.31 85.63 148.47 85.80 L 147.51 85.99 C 146.67 86.17 146.12 86.99 146.30 87.84 C 146.47 88.68 147.30 89.23 148.14 89.05 Z M 149.09 88.86 L 150.03 88.67 C 150.87 88.49 151.42 87.67 151.24 86.82 C 151.07 85.98 150.25 85.43 149.40 85.61 L 148.47 85.80 C 147.62 85.97 147.08 86.80 147.25 87.64 C 147.42 88.49 148.25 89.03 149.09 88.86 Z M 150.03 88.67 L 151.01 88.46 C 151.85 88.29 152.40 87.46 152.22 86.62 C 152.05 85.77 151.22 85.23 150.38 85.41 L 149.40 85.61 C 148.55 85.78 148.01 86.61 148.18 87.45 C 148.36 88.30 149.19 88.84 150.03 88.67 Z M 151.01 88.46 L 151.99 88.26 C 152.83 88.09 153.38 87.26 153.20 86.42 C 153.03 85.57 152.20 85.03 151.36 85.20 L 150.38 85.41 C 149.53 85.58 148.99 86.40 149.16 87.25 C 149.34 88.09 150.16 88.64 151.01 88.46 Z M 151.98 88.26 L 152.96 88.07 C 153.81 87.89 154.35 87.07 154.18 86.23 C 154.01 85.38 153.19 84.83 152.34 85.00 L 151.37 85.20 C 150.52 85.37 149.97 86.20 150.15 87.04 C 150.32 87.89 151.14 88.43 151.98 88.26 Z M 152.95 88.07 L 153.93 87.88 C 154.77 87.71 155.33 86.90 155.16 86.05 C 155.00 85.20 154.18 84.65 153.33 84.81 L 152.36 85.00 C 151.51 85.17 150.96 85.99 151.12 86.83 C 151.28 87.68 152.10 88.23 152.95 88.07 Z M 153.91 87.88 L 154.89 87.70 C 155.74 87.55 156.30 86.74 156.14 85.89 C 155.99 85.04 155.18 84.48 154.33 84.63 L 153.35 84.81 C 152.50 84.96 151.94 85.78 152.09 86.63 C 152.25 87.47 153.06 88.04 153.91 87.88 Z M 154.87 87.71 L 155.85 87.54 C 156.70 87.40 157.27 86.59 157.13 85.74 C 156.99 84.89 156.18 84.32 155.33 84.46 L 154.35 84.63 C 153.50 84.77 152.93 85.58 153.07 86.43 C 153.21 87.28 154.02 87.85 154.87 87.71 Z M 155.83 87.54 L 156.82 87.39 C 157.67 87.26 158.25 86.46 158.12 85.61 C 157.99 84.75 157.19 84.17 156.34 84.31 L 155.35 84.46 C 154.50 84.59 153.92 85.39 154.05 86.24 C 154.18 87.10 154.98 87.68 155.83 87.54 Z M 156.80 87.39 L 157.80 87.25 C 158.65 87.12 159.24 86.33 159.11 85.48 C 158.99 84.62 158.20 84.03 157.34 84.16 L 156.35 84.30 C 155.50 84.43 154.91 85.22 155.03 86.07 C 155.16 86.93 155.95 87.52 156.80 87.39 Z M 157.78 87.25 L 158.78 87.11 C 159.63 87.00 160.23 86.21 160.11 85.35 C 159.99 84.50 159.20 83.90 158.35 84.02 L 157.36 84.16 C 156.50 84.27 155.91 85.06 156.02 85.92 C 156.14 86.77 156.93 87.37 157.78 87.25 Z M 158.77 87.11 L 159.75 86.99 C 160.61 86.87 161.21 86.09 161.10 85.23 C 160.99 84.38 160.20 83.78 159.35 83.89 L 158.36 84.02 C 157.51 84.13 156.90 84.91 157.01 85.77 C 157.13 86.62 157.91 87.23 158.77 87.11 Z M 159.74 86.99 L 160.73 86.86 C 161.58 86.76 162.19 85.98 162.08 85.12 C 161.98 84.27 161.20 83.66 160.34 83.77 L 159.36 83.89 C 158.50 83.99 157.89 84.77 158.00 85.63 C 158.11 86.48 158.89 87.09 159.74 86.99 Z M 160.72 86.87 L 161.71 86.75 C 162.56 86.65 163.18 85.87 163.08 85.02 C 162.98 84.16 162.20 83.55 161.34 83.65 L 160.35 83.76 C 159.50 83.86 158.88 84.64 158.98 85.50 C 159.08 86.35 159.86 86.97 160.72 86.87 Z M 161.70 86.75 L 162.69 86.64 C 163.55 86.55 164.17 85.78 164.08 84.92 C 163.98 84.06 163.21 83.44 162.35 83.54 L 161.36 83.65 C 160.50 83.74 159.88 84.51 159.97 85.37 C 160.07 86.23 160.84 86.84 161.70 86.75 Z M 162.68 86.64 L 163.68 86.54 C 164.54 86.45 165.16 85.69 165.07 84.83 C 164.99 83.97 164.22 83.35 163.36 83.43 L 162.36 83.54 C 161.51 83.62 160.88 84.39 160.97 85.25 C 161.06 86.11 161.83 86.73 162.68 86.64 Z M 163.67 86.54 L 164.63 86.45 C 165.49 86.37 166.12 85.60 166.04 84.75 C 165.95 83.89 165.19 83.26 164.33 83.34 L 163.37 83.43 C 162.51 83.52 161.89 84.28 161.97 85.14 C 162.05 85.99 162.81 86.62 163.67 86.54 Z M 164.62 86.45 L 165.60 86.36 C 166.46 86.28 167.09 85.52 167.01 84.66 C 166.93 83.81 166.17 83.17 165.32 83.25 L 164.34 83.34 C 163.48 83.42 162.85 84.18 162.93 85.04 C 163.00 85.90 163.76 86.53 164.62 86.45 Z M 165.59 86.36 L 166.59 86.27 C 167.45 86.20 168.09 85.44 168.01 84.58 C 167.93 83.72 167.17 83.09 166.32 83.16 L 165.32 83.25 C 164.46 83.33 163.83 84.09 163.90 84.94 C 163.98 85.80 164.74 86.44 165.59 86.36 Z M 166.59 86.27 L 167.61 86.18 C 168.47 86.11 169.11 85.35 169.03 84.49 C 168.96 83.63 168.20 83.00 167.34 83.07 L 166.32 83.16 C 165.46 83.24 164.82 84.00 164.90 84.85 C 164.97 85.71 165.73 86.35 166.59 86.27 Z M 167.62 86.18 L 168.64 86.09 C 169.50 86.01 170.14 85.26 170.06 84.40 C 169.98 83.54 169.22 82.90 168.36 82.98 L 167.34 83.07 C 166.48 83.15 165.84 83.91 165.92 84.77 C 166.00 85.63 166.76 86.26 167.62 86.18 Z M 168.65 86.09 L 169.64 86.00 C 170.50 85.92 171.13 85.16 171.05 84.30 C 170.97 83.44 170.21 82.81 169.35 82.89 L 168.36 82.98 C 167.50 83.06 166.87 83.82 166.95 84.68 C 167.03 85.54 167.79 86.17 168.65 86.09 Z M 169.64 86.00 L 170.65 85.90 C 171.51 85.82 172.14 85.06 172.06 84.20 C 171.98 83.35 171.22 82.72 170.36 82.80 L 169.35 82.89 C 168.49 82.97 167.86 83.73 167.94 84.59 C 168.02 85.45 168.78 86.08 169.64 86.00 Z M 170.65 85.90 L 171.66 85.81 C 172.52 85.72 173.15 84.96 173.06 84.10 C 172.98 83.25 172.22 82.62 171.36 82.70 L 170.35 82.80 C 169.49 82.88 168.87 83.64 168.95 84.50 C 169.03 85.36 169.79 85.99 170.65 85.90 Z M 171.66 85.81 L 172.66 85.71 C 173.52 85.62 174.15 84.86 174.06 84.00 C 173.98 83.14 173.21 82.52 172.36 82.60 L 171.36 82.70 C 170.50 82.78 169.87 83.55 169.96 84.41 C 170.04 85.27 170.81 85.89 171.66 85.81 Z M 172.67 85.71 L 173.64 85.61 C 174.50 85.52 175.13 84.75 175.04 83.90 C 174.95 83.04 174.19 82.41 173.33 82.50 L 172.35 82.60 C 171.49 82.69 170.87 83.46 170.96 84.31 C 171.04 85.17 171.81 85.79 172.67 85.71 Z M 173.65 85.61 L 174.69 85.50 C 175.55 85.41 176.17 84.64 176.08 83.78 C 175.99 82.92 175.22 82.30 174.37 82.39 L 173.32 82.50 C 172.46 82.59 171.84 83.36 171.93 84.22 C 172.02 85.08 172.79 85.70 173.65 85.61 Z M 174.70 85.50 L 175.71 85.39 C 176.57 85.29 177.19 84.52 177.09 83.66 C 177.00 82.81 176.23 82.19 175.37 82.28 L 174.36 82.39 C 173.50 82.49 172.88 83.26 172.98 84.11 C 173.07 84.97 173.84 85.59 174.70 85.50 Z M 175.71 85.38 L 176.70 85.27 C 177.56 85.18 178.17 84.41 178.08 83.55 C 177.98 82.69 177.21 82.08 176.35 82.17 L 175.37 82.28 C 174.51 82.38 173.89 83.15 173.99 84.01 C 174.09 84.86 174.86 85.48 175.71 85.38 Z M 176.70 85.27 L 177.67 85.16 C 178.53 85.07 179.14 84.29 179.04 83.44 C 178.95 82.58 178.17 81.96 177.32 82.06 L 176.35 82.17 C 175.49 82.27 174.88 83.04 174.97 83.90 C 175.07 84.76 175.85 85.37 176.70 85.27 Z M 177.67 85.16 L 178.64 85.05 C 179.49 84.95 180.11 84.18 180.01 83.32 C 179.91 82.47 179.13 81.85 178.28 81.95 L 177.31 82.06 C 176.46 82.16 175.84 82.94 175.94 83.79 C 176.04 84.65 176.82 85.26 177.67 85.16 Z M 178.64 85.05 L 179.64 84.93 C 180.50 84.83 181.11 84.06 181.01 83.20 C 180.91 82.35 180.13 81.73 179.28 81.83 L 178.28 81.95 C 177.42 82.05 176.81 82.83 176.91 83.68 C 177.01 84.54 177.78 85.15 178.64 85.05 Z M 179.65 84.93 L 180.64 84.81 C 181.50 84.71 182.11 83.93 182.00 83.07 C 181.90 82.22 181.12 81.61 180.27 81.71 L 179.27 81.83 C 178.42 81.94 177.81 82.72 177.91 83.57 C 178.01 84.43 178.79 85.04 179.65 84.93 Z M 180.65 84.81 L 181.64 84.68 C 182.50 84.57 183.10 83.79 182.99 82.94 C 182.88 82.08 182.10 81.48 181.25 81.59 L 180.26 81.71 C 179.40 81.82 178.80 82.61 178.91 83.46 C 179.02 84.32 179.80 84.92 180.65 84.81 Z M 181.66 84.68 L 182.64 84.55 C 183.50 84.43 184.09 83.64 183.97 82.79 C 183.86 81.93 183.07 81.33 182.21 81.45 L 181.23 81.59 C 180.38 81.71 179.78 82.50 179.90 83.35 C 180.02 84.20 180.80 84.80 181.66 84.68 Z M 182.66 84.54 L 183.66 84.39 C 184.51 84.26 185.10 83.47 184.97 82.61 C 184.84 81.76 184.05 81.18 183.19 81.30 L 182.19 81.46 C 181.34 81.59 180.75 82.38 180.88 83.23 C 181.01 84.09 181.81 84.67 182.66 84.54 Z M 183.68 84.39 L 184.69 84.22 C 185.54 84.08 186.11 83.28 185.97 82.43 C 185.83 81.58 185.03 81.00 184.18 81.14 L 183.17 81.31 C 182.32 81.45 181.75 82.25 181.89 83.10 C 182.03 83.95 182.83 84.53 183.68 84.39 Z M 184.70 84.22 L 185.69 84.05 C 186.54 83.90 187.11 83.09 186.96 82.24 C 186.81 81.39 186.00 80.82 185.15 80.97 L 184.16 81.15 C 183.31 81.29 182.75 82.10 182.89 82.95 C 183.04 83.80 183.85 84.37 184.70 84.22 Z M 185.71 84.04 L 186.68 83.87 C 187.52 83.71 188.08 82.89 187.93 82.05 C 187.77 81.20 186.96 80.64 186.11 80.79 L 185.14 80.97 C 184.29 81.13 183.73 81.95 183.89 82.79 C 184.04 83.64 184.86 84.20 185.71 84.04 Z M 186.69 83.86 L 187.66 83.68 C 188.50 83.51 189.06 82.70 188.89 81.85 C 188.73 81.00 187.91 80.45 187.07 80.61 L 186.10 80.80 C 185.25 80.96 184.70 81.78 184.86 82.62 C 185.02 83.47 185.84 84.03 186.69 83.86 Z M 187.67 83.67 L 188.68 83.47 C 189.52 83.30 190.07 82.48 189.90 81.64 C 189.73 80.79 188.91 80.24 188.06 80.41 L 187.06 80.61 C 186.21 80.78 185.66 81.60 185.83 82.45 C 186.00 83.29 186.82 83.84 187.67 83.67 Z M 188.69 83.47 L 189.67 83.26 C 190.52 83.09 191.06 82.26 190.88 81.41 C 190.70 80.57 189.87 80.03 189.03 80.21 L 188.05 80.41 C 187.20 80.59 186.66 81.42 186.84 82.26 C 187.02 83.11 187.85 83.65 188.69 83.47 Z M 189.70 83.26 L 190.65 83.04 C 191.49 82.85 192.02 82.02 191.83 81.18 C 191.64 80.33 190.80 79.81 189.96 80.00 L 189.01 80.21 C 188.17 80.40 187.64 81.24 187.83 82.08 C 188.02 82.92 188.85 83.45 189.70 83.26 Z M 190.68 83.04 L 191.63 82.80 C 192.47 82.60 192.98 81.75 192.78 80.91 C 192.57 80.08 191.73 79.56 190.89 79.77 L 189.94 80.00 C 189.10 80.21 188.59 81.05 188.79 81.89 C 189.00 82.73 189.84 83.24 190.68 83.04 Z M 191.66 82.79 L 192.64 82.53 C 193.47 82.31 193.97 81.45 193.74 80.62 C 193.52 79.79 192.67 79.29 191.83 79.52 L 190.86 79.78 C 190.02 80.00 189.53 80.86 189.75 81.69 C 189.98 82.52 190.83 83.02 191.66 82.79 Z M 192.67 82.52 L 193.63 82.25 C 194.46 82.01 194.94 81.14 194.70 80.31 C 194.46 79.49 193.59 79.01 192.76 79.25 L 191.80 79.52 C 190.98 79.76 190.50 80.63 190.74 81.46 C 190.98 82.28 191.84 82.76 192.67 82.52 Z M 193.65 82.24 L 194.60 81.95 C 195.43 81.70 195.89 80.82 195.64 80.00 C 195.38 79.17 194.51 78.71 193.69 78.96 L 192.74 79.25 C 191.92 79.51 191.45 80.38 191.70 81.20 C 191.96 82.03 192.83 82.49 193.65 82.24 Z M 194.62 81.94 L 195.51 81.66 C 196.33 81.39 196.78 80.52 196.52 79.69 C 196.25 78.87 195.38 78.42 194.55 78.69 L 193.67 78.97 C 192.85 79.23 192.39 80.11 192.66 80.93 C 192.92 81.75 193.80 82.21 194.62 81.94 Z M 195.53 81.65 L 196.39 81.36 C 197.21 81.08 197.64 80.20 197.37 79.38 C 197.09 78.56 196.20 78.13 195.39 78.40 L 194.53 78.69 C 193.71 78.97 193.28 79.86 193.55 80.67 C 193.83 81.49 194.72 81.93 195.53 81.65 Z M 196.42 81.35 L 197.33 81.02 C 198.14 80.72 198.56 79.82 198.26 79.01 C 197.96 78.20 197.07 77.79 196.26 78.08 L 195.35 78.42 C 194.54 78.71 194.13 79.61 194.42 80.42 C 194.72 81.23 195.61 81.64 196.42 81.35 Z M 197.37 81.00 L 198.36 80.61 C 199.17 80.29 199.56 79.38 199.24 78.58 C 198.92 77.78 198.02 77.39 197.21 77.70 L 196.22 78.10 C 195.42 78.42 195.02 79.32 195.34 80.12 C 195.66 80.93 196.57 81.32 197.37 81.00 Z M 198.40 80.59 L 199.40 80.17 C 200.20 79.83 200.57 78.91 200.23 78.12 C 199.89 77.32 198.98 76.95 198.18 77.29 L 197.18 77.72 C 196.38 78.06 196.01 78.97 196.35 79.77 C 196.69 80.56 197.61 80.93 198.40 80.59 Z M 199.43 80.15 L 200.31 79.76 C 201.10 79.41 201.45 78.49 201.10 77.70 C 200.75 76.91 199.83 76.56 199.04 76.91 L 198.16 77.30 C 197.37 77.65 197.02 78.58 197.37 79.36 C 197.72 80.15 198.64 80.51 199.43 80.15 Z M 200.33 79.75 L 201.25 79.33 C 202.04 78.97 202.38 78.04 202.02 77.26 C 201.66 76.47 200.73 76.13 199.95 76.49 L 199.02 76.92 C 198.24 77.28 197.90 78.20 198.26 78.99 C 198.62 79.77 199.55 80.11 200.33 79.75 Z M 201.27 79.32 L 202.21 78.88 C 202.99 78.51 203.32 77.58 202.96 76.80 C 202.59 76.02 201.66 75.69 200.88 76.05 L 199.94 76.50 C 199.16 76.86 198.82 77.79 199.19 78.57 C 199.56 79.35 200.49 79.69 201.27 79.32 Z M 202.22 78.87 L 203.15 78.43 C 203.93 78.05 204.25 77.12 203.88 76.34 C 203.51 75.57 202.58 75.24 201.80 75.61 L 200.87 76.06 C 200.09 76.43 199.76 77.36 200.14 78.14 C 200.51 78.92 201.44 79.25 202.22 78.87 Z M 203.16 78.42 L 204.05 77.99 C 204.83 77.61 205.15 76.68 204.77 75.90 C 204.39 75.13 203.46 74.80 202.68 75.18 L 201.79 75.62 C 201.02 75.99 200.69 76.93 201.07 77.70 C 201.45 78.48 202.38 78.80 203.16 78.42 Z M 204.06 77.98 L 205.23 77.40 C 206.01 77.02 206.32 76.08 205.94 75.31 C 205.56 74.54 204.62 74.22 203.85 74.60 L 202.68 75.19 C 201.90 75.57 201.59 76.50 201.97 77.28 C 202.35 78.05 203.29 78.37 204.06 77.98 Z M 205.25 77.40 L 206.41 76.81 C 207.18 76.41 207.48 75.47 207.09 74.71 C 206.70 73.94 205.76 73.63 204.99 74.02 L 203.83 74.61 C 203.06 75.00 202.76 75.94 203.15 76.71 C 203.54 77.48 204.48 77.79 205.25 77.40 Z M 206.44 76.79 L 207.17 76.40 C 207.93 75.99 208.21 75.04 207.80 74.28 C 207.39 73.52 206.44 73.24 205.68 73.65 L 204.96 74.04 C 204.20 74.45 203.92 75.40 204.33 76.16 C 204.74 76.91 205.68 77.20 206.44 76.79 Z M 207.44 76.21 L 207.60 76.08 C 208.25 75.51 208.32 74.53 207.76 73.87 C 207.20 73.22 206.21 73.15 205.56 73.71 L 205.41 73.84 C 204.75 74.40 204.68 75.39 205.24 76.04 C 205.80 76.69 206.79 76.77 207.44 76.21 Z M 206.02 73.43 L 205.30 73.71 C 204.49 74.02 204.09 74.92 204.40 75.73 C 204.71 76.53 205.61 76.94 206.41 76.63 L 207.14 76.35 C 207.94 76.04 208.34 75.14 208.04 74.33 C 207.73 73.53 206.82 73.12 206.02 73.43 Z M 205.22 73.74 L 203.94 74.31 C 203.16 74.67 202.80 75.59 203.16 76.38 C 203.51 77.16 204.43 77.52 205.22 77.16 L 206.49 76.59 C 207.28 76.24 207.63 75.32 207.28 74.53 C 206.93 73.74 206.00 73.39 205.22 73.74 Z M 203.90 74.33 L 203.10 74.72 C 202.33 75.09 202.00 76.02 202.37 76.80 C 202.75 77.58 203.68 77.90 204.46 77.53 L 205.26 77.15 C 206.03 76.77 206.36 75.84 205.99 75.06 C 205.61 74.29 204.68 73.96 203.90 74.33 Z M 203.08 74.73 L 202.26 75.14 C 201.49 75.53 201.18 76.47 201.57 77.24 C 201.95 78.01 202.89 78.32 203.66 77.93 L 204.48 77.52 C 205.25 77.13 205.56 76.19 205.18 75.42 C 204.79 74.65 203.85 74.34 203.08 74.73 Z M 202.24 75.15 L 201.35 75.61 C 200.58 76.01 200.28 76.95 200.68 77.72 C 201.08 78.48 202.02 78.78 202.78 78.39 L 203.68 77.92 C 204.45 77.52 204.74 76.58 204.35 75.82 C 203.95 75.05 203.01 74.75 202.24 75.15 Z M 201.33 75.62 L 200.32 76.16 C 199.56 76.56 199.27 77.50 199.68 78.27 C 200.08 79.03 201.03 79.32 201.79 78.91 L 202.80 78.38 C 203.56 77.98 203.85 77.03 203.44 76.27 C 203.04 75.51 202.09 75.22 201.33 75.62 Z M 200.32 76.16 L 199.44 76.63 C 198.68 77.04 198.39 77.98 198.80 78.74 C 199.21 79.50 200.15 79.79 200.91 79.38 L 201.79 78.91 C 202.55 78.50 202.84 77.56 202.43 76.80 C 202.02 76.04 201.08 75.75 200.32 76.16 Z M 199.44 76.63 L 198.58 77.09 C 197.82 77.50 197.53 78.45 197.94 79.21 C 198.35 79.97 199.30 80.25 200.06 79.84 L 200.91 79.38 C 201.67 78.97 201.96 78.03 201.55 77.27 C 201.14 76.51 200.20 76.22 199.44 76.63 Z M 198.58 77.09 L 197.68 77.57 C 196.92 77.98 196.63 78.93 197.04 79.69 C 197.45 80.45 198.40 80.73 199.16 80.33 L 200.05 79.84 C 200.81 79.44 201.10 78.49 200.69 77.73 C 200.28 76.97 199.34 76.69 198.58 77.09 Z M 197.68 77.57 L 196.77 78.06 C 196.01 78.47 195.72 79.41 196.12 80.17 C 196.53 80.94 197.48 81.22 198.24 80.82 L 199.15 80.33 C 199.91 79.92 200.20 78.98 199.80 78.22 C 199.39 77.45 198.44 77.17 197.68 77.57 Z M 196.77 78.06 L 195.86 78.54 C 195.10 78.95 194.80 79.89 195.21 80.65 C 195.61 81.41 196.56 81.71 197.32 81.30 L 198.23 80.82 C 198.99 80.42 199.28 79.47 198.88 78.71 C 198.48 77.95 197.53 77.66 196.77 78.06 Z M 195.87 78.54 L 194.98 79.00 C 194.21 79.40 193.91 80.34 194.31 81.11 C 194.71 81.87 195.65 82.17 196.42 81.77 L 197.31 81.31 C 198.07 80.91 198.37 79.97 197.97 79.20 C 197.57 78.44 196.63 78.14 195.87 78.54 Z M 194.99 79.00 L 194.03 79.48 C 193.26 79.88 192.96 80.82 193.35 81.58 C 193.74 82.35 194.68 82.66 195.45 82.27 L 196.41 81.78 C 197.17 81.39 197.48 80.45 197.09 79.68 C 196.70 78.91 195.76 78.60 194.99 79.00 Z M 194.04 79.48 L 193.10 79.95 C 192.33 80.33 192.01 81.27 192.40 82.04 C 192.78 82.81 193.72 83.13 194.49 82.74 L 195.43 82.27 C 196.21 81.89 196.52 80.95 196.14 80.18 C 195.75 79.41 194.82 79.09 194.04 79.48 Z M 193.11 79.94 L 192.22 80.38 C 191.44 80.75 191.12 81.69 191.49 82.46 C 191.87 83.24 192.80 83.56 193.58 83.18 L 194.47 82.75 C 195.25 82.37 195.57 81.44 195.20 80.66 C 194.82 79.89 193.89 79.56 193.11 79.94 Z M 192.23 80.37 L 191.36 80.78 C 190.58 81.15 190.25 82.08 190.62 82.86 C 190.99 83.64 191.93 83.97 192.70 83.60 L 193.57 83.19 C 194.35 82.82 194.68 81.89 194.31 81.11 C 193.94 80.33 193.00 80.00 192.23 80.37 Z M 191.37 80.78 L 190.52 81.18 C 189.74 81.54 189.41 82.47 189.78 83.25 C 190.14 84.03 191.07 84.37 191.85 84.00 L 192.70 83.60 C 193.48 83.24 193.81 82.31 193.45 81.53 C 193.08 80.75 192.15 80.41 191.37 80.78 Z M 190.53 81.18 L 190.23 81.31 C 189.45 81.68 189.12 82.61 189.48 83.39 C 189.85 84.17 190.78 84.51 191.56 84.14 L 191.85 84.00 C 192.63 83.64 192.97 82.71 192.60 81.93 C 192.24 81.14 191.31 80.81 190.53 81.18 Z"
      fill="black"
      fill-rule="nonzero" /><path d="M 166.56 89.60 L 165.81 90.38 C 165.22 91.00 165.23 91.99 165.85 92.59 C 166.47 93.18 167.46 93.17 168.06 92.55 L 168.81 91.77 C 169.41 91.15 169.39 90.16 168.77 89.56 C 168.15 88.96 167.16 88.98 166.56 89.60 Z M 165.81 90.38 L 165.08 91.15 C 164.48 91.77 164.50 92.76 165.12 93.35 C 165.75 93.95 166.73 93.93 167.33 93.31 L 168.06 92.54 C 168.66 91.92 168.64 90.93 168.02 90.34 C 167.39 89.74 166.41 89.76 165.81 90.38 Z M 165.07 91.16 L 164.37 91.90 C 163.78 92.53 163.80 93.51 164.43 94.11 C 165.06 94.70 166.05 94.67 166.64 94.04 L 167.34 93.30 C 167.93 92.67 167.90 91.68 167.28 91.09 C 166.65 90.50 165.66 90.53 165.07 91.16 Z M 164.35 91.91 L 163.70 92.62 C 163.12 93.26 163.16 94.25 163.79 94.83 C 164.43 95.41 165.41 95.37 166.00 94.74 L 166.65 94.03 C 167.23 93.39 167.19 92.41 166.56 91.82 C 165.92 91.24 164.94 91.28 164.35 91.91 Z M 163.68 92.65 L 163.09 93.31 C 162.52 93.96 162.58 94.95 163.22 95.52 C 163.87 96.09 164.85 96.03 165.43 95.38 L 166.02 94.72 C 166.59 94.07 166.53 93.08 165.88 92.51 C 165.24 91.94 164.25 92.00 163.68 92.65 Z M 163.05 93.35 L 162.35 94.21 C 161.80 94.87 161.89 95.86 162.56 96.41 C 163.22 96.96 164.21 96.86 164.76 96.20 L 165.46 95.34 C 166.01 94.68 165.92 93.69 165.25 93.14 C 164.59 92.59 163.60 92.69 163.05 93.35 Z M 162.30 94.26 L 161.69 95.07 C 161.18 95.76 161.32 96.75 162.01 97.27 C 162.71 97.78 163.69 97.64 164.21 96.95 L 164.81 96.14 C 165.33 95.45 165.19 94.46 164.49 93.94 C 163.80 93.43 162.81 93.57 162.30 94.26 Z M 161.64 95.13 L 161.13 95.90 C 160.64 96.62 160.83 97.60 161.56 98.09 C 162.28 98.57 163.26 98.38 163.74 97.66 L 164.26 96.89 C 164.74 96.16 164.55 95.19 163.83 94.70 C 163.11 94.22 162.13 94.41 161.64 95.13 Z M 161.09 95.95 L 160.60 96.74 C 160.15 97.49 160.38 98.46 161.12 98.92 C 161.86 99.37 162.84 99.14 163.29 98.40 L 163.78 97.61 C 164.24 96.86 164.01 95.89 163.26 95.43 C 162.52 94.97 161.55 95.21 161.09 95.95 Z M 160.57 96.78 L 160.09 97.64 C 159.65 98.39 159.92 99.36 160.67 99.80 C 161.43 100.23 162.40 99.97 162.83 99.21 L 163.32 98.36 C 163.76 97.60 163.49 96.63 162.73 96.20 C 161.98 95.76 161.01 96.02 160.57 96.78 Z M 160.06 97.68 L 159.59 98.57 C 159.18 99.34 159.48 100.30 160.25 100.71 C 161.02 101.12 161.98 100.82 162.39 100.05 L 162.86 99.16 C 163.27 98.39 162.98 97.43 162.20 97.02 C 161.43 96.61 160.47 96.91 160.06 97.68 Z M 159.56 98.62 L 159.12 99.53 C 158.73 100.32 159.06 101.27 159.85 101.65 C 160.64 102.04 161.58 101.71 161.97 100.92 L 162.42 100.00 C 162.80 99.22 162.47 98.27 161.68 97.88 C 160.90 97.50 159.95 97.83 159.56 98.62 Z M 159.09 99.58 L 158.71 100.45 C 158.35 101.25 158.71 102.19 159.51 102.54 C 160.31 102.90 161.25 102.54 161.61 101.74 L 161.99 100.88 C 162.35 100.08 161.99 99.14 161.19 98.78 C 160.39 98.42 159.45 98.78 159.09 99.58 Z M 158.69 100.48 L 158.31 101.39 C 157.97 102.20 158.36 103.13 159.17 103.47 C 159.98 103.81 160.91 103.42 161.25 102.61 L 161.63 101.70 C 161.96 100.89 161.58 99.96 160.77 99.62 C 159.95 99.29 159.02 99.67 158.69 100.48 Z M 158.29 101.42 L 157.92 102.38 C 157.60 103.20 158.01 104.13 158.83 104.45 C 159.65 104.77 160.57 104.36 160.89 103.54 L 161.27 102.58 C 161.59 101.76 161.18 100.83 160.36 100.51 C 159.54 100.19 158.61 100.60 158.29 101.42 Z M 157.91 102.40 L 157.55 103.36 C 157.25 104.19 157.67 105.11 158.50 105.42 C 159.32 105.72 160.24 105.30 160.55 104.47 L 160.91 103.51 C 161.21 102.69 160.79 101.77 159.96 101.46 C 159.13 101.15 158.21 101.58 157.91 102.40 Z M 157.54 103.38 L 157.22 104.29 C 156.92 105.13 157.36 106.04 158.19 106.34 C 159.02 106.64 159.94 106.20 160.24 105.37 L 160.56 104.45 C 160.86 103.62 160.42 102.70 159.59 102.41 C 158.75 102.11 157.84 102.55 157.54 103.38 Z M 157.21 104.32 L 156.89 105.27 C 156.60 106.11 157.05 107.02 157.89 107.30 C 158.73 107.58 159.65 107.13 159.93 106.29 L 160.25 105.34 C 160.53 104.50 160.08 103.59 159.24 103.31 C 158.40 103.03 157.49 103.48 157.21 104.32 Z M 156.87 105.30 L 156.57 106.27 C 156.30 107.12 156.77 108.02 157.62 108.29 C 158.46 108.56 159.37 108.09 159.63 107.24 L 159.94 106.26 C 160.21 105.42 159.74 104.51 158.89 104.25 C 158.04 103.98 157.14 104.45 156.87 105.30 Z M 156.55 106.31 L 156.26 107.29 C 156.02 108.15 156.51 109.04 157.36 109.29 C 158.22 109.54 159.11 109.05 159.36 108.19 L 159.65 107.20 C 159.90 106.35 159.40 105.45 158.55 105.21 C 157.69 104.96 156.80 105.45 156.55 106.31 Z M 156.25 107.33 L 156.01 108.27 C 155.78 109.14 156.30 110.02 157.16 110.24 C 158.02 110.47 158.90 109.95 159.13 109.09 L 159.37 108.15 C 159.60 107.29 159.08 106.41 158.22 106.18 C 157.36 105.96 156.48 106.47 156.25 107.33 Z M 156.00 108.31 L 155.77 109.26 C 155.56 110.13 156.10 111.00 156.96 111.20 C 157.83 111.41 158.70 110.88 158.91 110.01 L 159.13 109.06 C 159.34 108.19 158.81 107.32 157.94 107.12 C 157.08 106.91 156.21 107.44 156.00 108.31 Z M 155.77 109.29 L 155.55 110.26 C 155.36 111.13 155.90 111.99 156.77 112.18 C 157.64 112.38 158.50 111.83 158.69 110.96 L 158.91 109.99 C 159.10 109.12 158.56 108.26 157.69 108.07 C 156.82 107.87 155.96 108.42 155.77 109.29 Z M 155.55 110.28 L 155.33 111.28 C 155.15 112.15 155.70 113.00 156.57 113.19 C 157.44 113.37 158.30 112.82 158.48 111.95 L 158.69 110.95 C 158.88 110.08 158.33 109.22 157.46 109.04 C 156.59 108.85 155.73 109.41 155.55 110.28 Z M 155.33 111.28 L 155.13 112.25 C 154.95 113.12 155.51 113.98 156.38 114.16 C 157.25 114.34 158.10 113.78 158.28 112.91 L 158.48 111.94 C 158.66 111.07 158.11 110.22 157.24 110.04 C 156.37 109.86 155.51 110.42 155.33 111.28 Z M 155.13 112.26 L 154.94 113.18 C 154.76 114.05 155.32 114.90 156.19 115.08 C 157.06 115.26 157.91 114.70 158.09 113.83 L 158.28 112.91 C 158.46 112.04 157.90 111.19 157.03 111.01 C 156.16 110.83 155.31 111.39 155.13 112.26 Z M 154.94 113.18 L 154.75 114.14 C 154.57 115.01 155.13 115.86 156.00 116.03 C 156.87 116.21 157.72 115.65 157.90 114.78 L 158.09 113.82 C 158.27 112.95 157.71 112.11 156.84 111.93 C 155.96 111.75 155.12 112.31 154.94 113.18 Z M 154.74 114.14 L 154.55 115.13 C 154.38 116.00 154.94 116.85 155.81 117.02 C 156.68 117.20 157.53 116.63 157.70 115.76 L 157.90 114.77 C 158.07 113.90 157.51 113.05 156.63 112.88 C 155.76 112.71 154.92 113.27 154.74 114.14 Z M 154.55 115.14 L 154.35 116.17 C 154.18 117.04 154.75 117.88 155.62 118.05 C 156.50 118.22 157.34 117.65 157.51 116.77 L 157.70 115.75 C 157.87 114.88 157.30 114.03 156.43 113.87 C 155.56 113.70 154.71 114.27 154.55 115.14 Z M 154.35 116.17 L 154.15 117.22 C 153.99 118.09 154.56 118.93 155.44 119.10 C 156.31 119.26 157.15 118.68 157.31 117.81 L 157.51 116.76 C 157.67 115.89 157.10 115.05 156.22 114.89 C 155.35 114.73 154.51 115.30 154.35 116.17 Z M 154.15 117.23 L 153.98 118.15 C 153.83 119.02 154.41 119.86 155.28 120.02 C 156.16 120.18 156.99 119.60 157.15 118.72 L 157.32 117.80 C 157.47 116.93 156.89 116.09 156.02 115.93 C 155.14 115.77 154.31 116.35 154.15 117.23 Z M 153.98 118.16 L 153.82 119.11 C 153.66 119.98 154.25 120.81 155.12 120.97 C 156.00 121.12 156.83 120.54 156.99 119.66 L 157.15 118.71 C 157.30 117.84 156.72 117.00 155.84 116.85 C 154.97 116.70 154.14 117.28 153.98 118.16 Z M 153.81 119.11 L 153.65 120.09 C 153.50 120.96 154.09 121.79 154.96 121.94 C 155.84 122.09 156.67 121.50 156.82 120.63 L 156.99 119.65 C 157.14 118.78 156.55 117.95 155.67 117.80 C 154.80 117.65 153.96 118.24 153.81 119.11 Z M 153.65 120.09 L 153.48 121.09 C 153.34 121.97 153.93 122.80 154.80 122.94 C 155.68 123.09 156.51 122.50 156.66 121.62 L 156.82 120.62 C 156.97 119.74 156.38 118.92 155.50 118.77 C 154.62 118.62 153.79 119.22 153.65 120.09 Z M 153.48 121.10 L 153.31 122.12 C 153.17 123.00 153.77 123.82 154.64 123.97 C 155.52 124.11 156.35 123.51 156.49 122.64 L 156.66 121.61 C 156.80 120.74 156.20 119.91 155.33 119.77 C 154.45 119.62 153.62 120.22 153.48 121.10 Z M 153.31 122.12 L 153.15 123.17 C 153.01 124.05 153.61 124.87 154.48 125.01 C 155.36 125.15 156.19 124.55 156.33 123.67 L 156.49 122.63 C 156.63 121.75 156.03 120.93 155.16 120.79 C 154.28 120.65 153.45 121.25 153.31 122.12 Z M 153.15 123.17 L 152.99 124.15 C 152.86 125.03 153.46 125.85 154.34 125.99 C 155.21 126.13 156.04 125.53 156.17 124.65 L 156.33 123.67 C 156.46 122.79 155.86 121.97 154.99 121.83 C 154.11 121.69 153.28 122.29 153.15 123.17 Z M 152.99 124.15 L 152.85 125.11 C 152.71 125.99 153.31 126.82 154.19 126.95 C 155.07 127.09 155.89 126.48 156.03 125.60 L 156.17 124.64 C 156.31 123.77 155.71 122.94 154.83 122.81 C 153.95 122.67 153.13 123.28 152.99 124.15 Z M 152.84 125.12 L 152.70 126.09 C 152.56 126.97 153.17 127.79 154.05 127.93 C 154.93 128.06 155.75 127.45 155.88 126.58 L 156.03 125.60 C 156.16 124.72 155.56 123.90 154.68 123.77 C 153.80 123.64 152.98 124.24 152.84 125.12 Z M 152.70 126.10 L 152.55 127.08 C 152.42 127.96 153.02 128.78 153.90 128.91 C 154.78 129.04 155.60 128.44 155.73 127.56 L 155.88 126.57 C 156.01 125.69 155.41 124.87 154.53 124.74 C 153.65 124.61 152.83 125.22 152.70 126.10 Z M 152.55 127.09 L 152.40 128.08 C 152.27 128.96 152.88 129.78 153.76 129.91 C 154.64 130.04 155.45 129.43 155.58 128.56 L 155.73 127.56 C 155.86 126.68 155.26 125.86 154.38 125.73 C 153.50 125.60 152.68 126.21 152.55 127.09 Z M 152.40 128.09 L 152.25 129.09 C 152.12 129.97 152.73 130.79 153.61 130.92 C 154.49 131.05 155.31 130.44 155.44 129.56 L 155.58 128.55 C 155.71 127.67 155.11 126.86 154.23 126.73 C 153.35 126.60 152.53 127.21 152.40 128.09 Z M 152.25 129.10 L 152.10 130.11 C 151.98 130.99 152.59 131.81 153.47 131.94 C 154.34 132.07 155.16 131.46 155.29 130.58 L 155.44 129.56 C 155.56 128.68 154.96 127.86 154.08 127.74 C 153.20 127.61 152.38 128.22 152.25 129.10 Z M 152.10 130.12 L 151.96 131.10 C 151.84 131.98 152.45 132.80 153.32 132.93 C 154.20 133.05 155.02 132.44 155.15 131.56 L 155.29 130.58 C 155.42 129.70 154.81 128.88 153.93 128.75 C 153.05 128.63 152.23 129.24 152.10 130.12 Z M 151.96 131.11 L 151.82 132.07 C 151.70 132.95 152.31 133.76 153.19 133.89 C 154.07 134.01 154.88 133.40 155.01 132.53 L 155.15 131.56 C 155.27 130.68 154.66 129.87 153.78 129.74 C 152.90 129.62 152.09 130.23 151.96 131.11 Z M 151.83 132.07 L 151.69 133.04 C 151.56 133.92 152.17 134.73 153.05 134.86 C 153.93 134.98 154.74 134.37 154.87 133.50 L 155.01 132.52 C 155.13 131.65 154.52 130.83 153.64 130.71 C 152.76 130.58 151.95 131.19 151.83 132.07 Z M 151.69 133.04 L 151.55 134.02 C 151.42 134.90 152.04 135.71 152.91 135.84 C 153.79 135.96 154.60 135.35 154.73 134.47 L 154.87 133.49 C 154.99 132.62 154.38 131.80 153.50 131.68 C 152.63 131.55 151.81 132.17 151.69 133.04 Z M 151.55 134.02 L 151.41 135.01 C 151.29 135.89 151.90 136.70 152.77 136.83 C 153.65 136.95 154.46 136.34 154.59 135.46 L 154.73 134.47 C 154.85 133.60 154.24 132.78 153.36 132.66 C 152.49 132.54 151.67 133.15 151.55 134.02 Z M 151.41 135.01 L 151.27 136.01 C 151.15 136.89 151.76 137.70 152.63 137.83 C 153.51 137.95 154.32 137.34 154.45 136.46 L 154.59 135.46 C 154.71 134.59 154.10 133.77 153.22 133.65 C 152.35 133.53 151.54 134.14 151.41 135.01 Z M 151.27 136.01 L 151.13 137.03 C 151.00 137.90 151.61 138.71 152.49 138.84 C 153.37 138.96 154.18 138.35 154.30 137.48 L 154.44 136.46 C 154.57 135.59 153.96 134.78 153.08 134.65 C 152.21 134.53 151.40 135.14 151.27 136.01 Z M 151.13 137.03 L 150.98 138.05 C 150.86 138.93 151.47 139.74 152.35 139.86 C 153.22 139.98 154.03 139.38 154.15 138.50 L 154.30 137.48 C 154.42 136.60 153.81 135.79 152.94 135.67 C 152.06 135.54 151.25 136.15 151.13 137.03 Z M 150.99 138.05 L 150.84 139.05 C 150.72 139.92 151.33 140.73 152.20 140.86 C 153.08 140.98 153.89 140.37 154.01 139.50 L 154.15 138.50 C 154.28 137.63 153.67 136.82 152.79 136.69 C 151.92 136.57 151.11 137.18 150.99 138.05 Z M 150.84 139.05 L 150.70 140.04 C 150.58 140.92 151.19 141.73 152.06 141.85 C 152.94 141.98 153.75 141.37 153.87 140.49 L 154.01 139.50 C 154.14 138.62 153.53 137.81 152.65 137.69 C 151.78 137.56 150.97 138.17 150.84 139.05 Z M 150.70 140.04 L 150.56 141.05 C 150.44 141.92 151.05 142.73 151.92 142.85 C 152.79 142.98 153.60 142.37 153.73 141.50 L 153.87 140.49 C 153.99 139.62 153.39 138.81 152.51 138.69 C 151.64 138.56 150.83 139.17 150.70 140.04 Z M 150.56 141.05 L 150.42 142.05 C 150.30 142.92 150.90 143.73 151.78 143.86 C 152.65 143.98 153.46 143.37 153.59 142.50 L 153.73 141.50 C 153.85 140.62 153.24 139.81 152.37 139.69 C 151.49 139.56 150.69 140.17 150.56 141.05 Z M 150.42 142.05 L 150.28 143.05 C 150.16 143.92 150.76 144.73 151.64 144.86 C 152.51 144.98 153.32 144.37 153.44 143.50 L 153.59 142.50 C 153.71 141.62 153.10 140.81 152.23 140.69 C 151.35 140.57 150.54 141.18 150.42 142.05 Z M 150.28 143.05 L 150.14 144.04 C 150.02 144.92 150.63 145.73 151.50 145.85 C 152.37 145.97 153.18 145.36 153.30 144.49 L 153.44 143.50 C 153.57 142.62 152.96 141.81 152.08 141.69 C 151.21 141.57 150.40 142.18 150.28 143.05 Z M 150.14 144.04 L 150.00 145.03 C 149.88 145.90 150.49 146.71 151.36 146.83 C 152.24 146.95 153.05 146.34 153.17 145.47 L 153.30 144.49 C 153.43 143.61 152.82 142.81 151.94 142.68 C 151.07 142.56 150.26 143.17 150.14 144.04 Z M 150.00 145.03 L 149.87 145.99 C 149.75 146.87 150.36 147.67 151.23 147.80 C 152.11 147.92 152.91 147.31 153.03 146.43 L 153.17 145.47 C 153.29 144.59 152.68 143.79 151.80 143.66 C 150.93 143.54 150.12 144.15 150.00 145.03 Z M 149.87 146.00 L 149.73 147.01 C 149.61 147.89 150.22 148.69 151.09 148.81 C 151.97 148.93 152.77 148.32 152.89 147.45 L 153.03 146.43 C 153.15 145.56 152.54 144.75 151.67 144.63 C 150.79 144.51 149.99 145.12 149.87 146.00 Z M 149.73 147.01 L 149.59 148.03 C 149.47 148.91 150.08 149.71 150.96 149.83 C 151.83 149.95 152.64 149.34 152.76 148.46 L 152.89 147.44 C 153.01 146.57 152.40 145.77 151.53 145.65 C 150.65 145.53 149.85 146.14 149.73 147.01 Z M 149.59 148.03 L 149.46 149.03 C 149.34 149.91 149.95 150.71 150.82 150.83 C 151.70 150.95 152.50 150.33 152.62 149.46 L 152.76 148.46 C 152.87 147.59 152.26 146.78 151.39 146.66 C 150.51 146.55 149.71 147.16 149.59 148.03 Z M 149.46 149.04 L 149.32 150.02 C 149.21 150.90 149.82 151.70 150.69 151.82 C 151.57 151.93 152.37 151.32 152.49 150.45 L 152.62 149.46 C 152.74 148.58 152.12 147.78 151.25 147.66 C 150.38 147.55 149.57 148.16 149.46 149.04 Z M 149.32 150.02 L 149.19 151.00 C 149.08 151.88 149.69 152.68 150.57 152.79 C 151.44 152.91 152.24 152.30 152.36 151.42 L 152.49 150.44 C 152.60 149.57 151.99 148.77 151.12 148.65 C 150.24 148.54 149.44 149.15 149.32 150.02 Z M 149.19 151.00 L 149.07 151.98 C 148.95 152.85 149.57 153.65 150.44 153.77 C 151.32 153.88 152.12 153.27 152.23 152.39 L 152.36 151.42 C 152.47 150.55 151.86 149.74 150.98 149.63 C 150.11 149.51 149.31 150.13 149.19 151.00 Z M 149.07 151.98 L 148.94 152.95 C 148.83 153.82 149.44 154.62 150.32 154.74 C 151.19 154.85 151.99 154.23 152.11 153.36 L 152.23 152.39 C 152.35 151.52 151.73 150.72 150.86 150.60 C 149.98 150.49 149.18 151.10 149.07 151.98 Z M 148.94 152.95 L 148.81 153.92 C 148.70 154.79 149.32 155.59 150.19 155.71 C 151.07 155.82 151.87 155.20 151.98 154.33 L 152.11 153.36 C 152.22 152.49 151.60 151.68 150.73 151.57 C 149.85 151.46 149.05 152.07 148.94 152.95 Z M 148.81 153.92 L 148.69 154.89 C 148.57 155.77 149.19 156.57 150.07 156.68 C 150.94 156.79 151.74 156.18 151.85 155.30 L 151.98 154.33 C 152.09 153.45 151.48 152.65 150.60 152.54 C 149.73 152.43 148.93 153.05 148.81 153.92 Z M 148.69 154.89 L 148.56 155.87 C 148.45 156.75 149.07 157.55 149.94 157.66 C 150.82 157.77 151.62 157.16 151.73 156.28 L 151.86 155.30 C 151.97 154.43 151.35 153.63 150.48 153.51 C 149.60 153.40 148.80 154.02 148.69 154.89 Z M 148.56 155.87 L 148.43 156.86 C 148.32 157.73 148.94 158.53 149.81 158.65 C 150.69 158.76 151.49 158.14 151.60 157.26 L 151.73 156.28 C 151.84 155.40 151.23 154.60 150.35 154.49 C 149.47 154.38 148.67 155.00 148.56 155.87 Z M 148.43 156.86 L 148.30 157.85 C 148.19 158.72 148.81 159.53 149.69 159.64 C 150.56 159.75 151.36 159.13 151.48 158.26 L 151.61 157.26 C 151.72 156.39 151.10 155.59 150.22 155.47 C 149.35 155.36 148.54 155.98 148.43 156.86 Z M 148.30 157.85 L 148.17 158.85 C 148.06 159.72 148.68 160.53 149.56 160.64 C 150.43 160.75 151.24 160.13 151.35 159.26 L 151.48 158.26 C 151.59 157.38 150.97 156.58 150.10 156.46 C 149.22 156.35 148.42 156.97 148.30 157.85 Z M 148.17 158.84 L 148.04 159.85 C 147.93 160.73 148.55 161.53 149.42 161.65 C 150.30 161.76 151.11 161.14 151.22 160.27 L 151.35 159.26 C 151.46 158.38 150.85 157.58 149.97 157.46 C 149.09 157.35 148.29 157.97 148.17 158.84 Z M 148.04 159.85 L 147.91 160.87 C 147.79 161.75 148.41 162.55 149.29 162.67 C 150.17 162.78 150.97 162.16 151.09 161.28 L 151.22 160.27 C 151.34 159.39 150.72 158.58 149.84 158.47 C 148.96 158.35 148.15 158.97 148.04 159.85 Z M 147.91 160.87 L 147.78 161.83 C 147.66 162.71 148.28 163.52 149.16 163.63 C 150.04 163.75 150.85 163.13 150.96 162.25 L 151.09 161.29 C 151.20 160.41 150.59 159.60 149.71 159.48 C 148.83 159.37 148.02 159.99 147.91 160.87 Z M 147.78 161.83 L 147.65 162.80 C 147.53 163.68 148.15 164.49 149.03 164.61 C 149.91 164.72 150.72 164.11 150.83 163.23 L 150.96 162.25 C 151.08 161.37 150.46 160.56 149.58 160.45 C 148.70 160.33 147.89 160.95 147.78 161.83 Z M 147.65 162.80 L 147.52 163.79 C 147.40 164.67 148.02 165.48 148.90 165.59 C 149.78 165.71 150.59 165.09 150.71 164.21 L 150.84 163.22 C 150.95 162.34 150.33 161.54 149.45 161.42 C 148.57 161.30 147.76 161.92 147.65 162.80 Z M 147.51 163.79 L 147.38 164.78 C 147.27 165.66 147.89 166.47 148.77 166.58 C 149.66 166.70 150.47 166.08 150.58 165.19 L 150.71 164.20 C 150.82 163.32 150.20 162.51 149.32 162.40 C 148.44 162.28 147.63 162.91 147.51 163.79 Z M 147.38 164.78 L 147.25 165.78 C 147.14 166.66 147.77 167.47 148.65 167.58 C 149.53 167.70 150.34 167.07 150.46 166.19 L 150.58 165.19 C 150.70 164.31 150.07 163.50 149.19 163.39 C 148.30 163.27 147.50 163.90 147.38 164.78 Z M 147.25 165.78 L 147.13 166.79 C 147.02 167.67 147.64 168.48 148.53 168.59 C 149.41 168.70 150.22 168.07 150.33 167.19 L 150.46 166.18 C 150.57 165.30 149.94 164.49 149.06 164.38 C 148.17 164.27 147.36 164.90 147.25 165.78 Z M 147.12 166.79 L 147.00 167.80 C 146.89 168.69 147.52 169.49 148.41 169.60 C 149.30 169.71 150.10 169.08 150.21 168.19 L 150.33 167.18 C 150.44 166.30 149.81 165.49 148.92 165.38 C 148.04 165.27 147.23 165.90 147.12 166.79 Z M 147.00 167.81 L 146.88 168.82 C 146.77 169.71 147.41 170.52 148.30 170.62 C 149.19 170.72 149.99 170.09 150.09 169.20 L 150.21 168.19 C 150.32 167.30 149.68 166.49 148.79 166.39 C 147.91 166.29 147.10 166.92 147.00 167.81 Z M 146.88 168.83 L 146.76 169.82 C 146.66 170.71 147.30 171.52 148.19 171.62 C 149.08 171.72 149.88 171.08 149.98 170.19 L 150.10 169.19 C 150.20 168.30 149.56 167.50 148.67 167.40 C 147.78 167.30 146.98 167.94 146.88 168.83 Z M 146.76 169.83 L 146.65 170.83 C 146.56 171.72 147.20 172.52 148.09 172.62 C 148.98 172.71 149.78 172.07 149.88 171.18 L 149.99 170.18 C 150.08 169.29 149.44 168.49 148.55 168.40 C 147.66 168.30 146.86 168.94 146.76 169.83 Z M 146.65 170.83 L 146.55 171.83 C 146.45 172.72 147.10 173.52 147.99 173.62 C 148.88 173.71 149.68 173.07 149.77 172.18 L 149.88 171.18 C 149.97 170.29 149.33 169.49 148.44 169.39 C 147.55 169.30 146.75 169.94 146.65 170.83 Z M 146.55 171.84 L 146.44 172.84 C 146.35 173.73 146.99 174.52 147.88 174.62 C 148.77 174.71 149.57 174.07 149.67 173.18 L 149.77 172.17 C 149.86 171.28 149.22 170.49 148.33 170.39 C 147.44 170.30 146.64 170.95 146.55 171.84 Z M 146.44 172.84 L 146.34 173.84 C 146.24 174.73 146.89 175.52 147.78 175.62 C 148.67 175.71 149.47 175.06 149.56 174.17 L 149.67 173.17 C 149.76 172.28 149.11 171.49 148.22 171.39 C 147.33 171.30 146.53 171.95 146.44 172.84 Z M 146.34 173.84 L 146.23 174.83 C 146.14 175.72 146.79 176.52 147.68 176.61 C 148.57 176.70 149.37 176.06 149.46 175.17 L 149.56 174.17 C 149.66 173.28 149.01 172.48 148.12 172.39 C 147.23 172.30 146.43 172.95 146.34 173.84 Z M 146.23 174.83 L 146.13 175.82 C 146.03 176.71 146.68 177.50 147.57 177.60 C 148.46 177.69 149.26 177.05 149.35 176.16 L 149.46 175.17 C 149.55 174.28 148.91 173.48 148.02 173.39 C 147.13 173.29 146.33 173.94 146.23 174.83 Z M 146.13 175.81 L 146.02 176.79 C 145.93 177.68 146.57 178.48 147.46 178.58 C 148.35 178.68 149.15 178.03 149.25 177.14 L 149.35 176.16 C 149.45 175.27 148.81 174.47 147.92 174.37 C 147.02 174.28 146.23 174.92 146.13 175.81 Z M 146.02 176.79 L 145.91 177.80 C 145.81 178.69 146.45 179.49 147.35 179.59 C 148.24 179.69 149.04 179.04 149.14 178.15 L 149.25 177.15 C 149.35 176.25 148.71 175.45 147.81 175.35 C 146.92 175.26 146.12 175.90 146.02 176.79 Z M 145.91 177.79 L 145.80 178.79 C 145.70 179.68 146.34 180.49 147.23 180.59 C 148.12 180.69 148.92 180.05 149.02 179.16 L 149.14 178.16 C 149.24 177.27 148.60 176.46 147.71 176.36 C 146.82 176.26 146.01 176.90 145.91 177.79 Z M 145.80 178.79 L 145.68 179.78 C 145.58 180.67 146.22 181.48 147.11 181.58 C 148.00 181.69 148.81 181.05 148.91 180.15 L 149.03 179.16 C 149.13 178.27 148.49 177.46 147.60 177.36 C 146.70 177.26 145.90 177.90 145.80 178.79 Z M 145.68 179.78 L 145.56 180.77 C 145.46 181.66 146.10 182.47 146.99 182.57 C 147.89 182.68 148.69 182.04 148.80 181.14 L 148.91 180.16 C 149.02 179.26 148.38 178.45 147.48 178.35 C 146.59 178.25 145.78 178.89 145.68 179.78 Z M 145.56 180.77 L 145.45 181.75 C 145.34 182.65 145.98 183.46 146.88 183.56 C 147.77 183.67 148.58 183.03 148.69 182.13 L 148.80 181.14 C 148.90 180.25 148.26 179.44 147.37 179.34 C 146.48 179.23 145.67 179.87 145.56 180.77 Z M 145.45 181.76 L 145.33 182.74 C 145.23 183.64 145.87 184.45 146.77 184.55 C 147.66 184.65 148.47 184.01 148.57 183.12 L 148.69 182.13 C 148.79 181.24 148.15 180.43 147.25 180.32 C 146.36 180.22 145.55 180.86 145.45 181.76 Z M 145.33 182.75 L 145.22 183.74 C 145.11 184.63 145.76 185.44 146.65 185.54 C 147.55 185.65 148.36 185.00 148.46 184.11 L 148.57 183.12 C 148.68 182.22 148.03 181.41 147.14 181.31 C 146.24 181.21 145.43 181.85 145.33 182.75 Z M 145.22 183.74 L 145.10 184.74 C 145.00 185.64 145.65 186.45 146.55 186.55 C 147.44 186.65 148.25 186.00 148.35 185.10 L 148.46 184.10 C 148.56 183.20 147.92 182.40 147.02 182.30 C 146.12 182.20 145.32 182.84 145.22 183.74 Z M 145.10 184.74 L 144.99 185.77 C 144.89 186.67 145.54 187.48 146.44 187.57 C 147.34 187.67 148.14 187.02 148.24 186.13 L 148.35 185.10 C 148.45 184.20 147.80 183.39 146.90 183.30 C 146.01 183.20 145.20 183.85 145.10 184.74 Z M 144.99 185.78 L 144.88 186.80 C 144.79 187.70 145.44 188.51 146.33 188.60 C 147.23 188.70 148.04 188.05 148.13 187.15 L 148.24 186.12 C 148.34 185.22 147.69 184.42 146.79 184.32 C 145.89 184.23 145.09 184.88 144.99 185.78 Z M 144.88 186.81 L 144.77 187.83 C 144.68 188.73 145.33 189.53 146.23 189.62 C 147.13 189.72 147.93 189.06 148.03 188.17 L 148.13 187.15 C 148.23 186.25 147.57 185.44 146.68 185.35 C 145.78 185.26 144.97 185.91 144.88 186.81 Z M 144.77 187.83 L 144.67 188.84 C 144.58 189.74 145.23 190.54 146.13 190.63 C 147.03 190.72 147.83 190.07 147.92 189.17 L 148.03 188.16 C 148.12 187.26 147.46 186.46 146.57 186.37 C 145.67 186.28 144.87 186.93 144.77 187.83 Z M 144.67 188.84 L 144.57 189.83 C 144.48 190.73 145.14 191.53 146.03 191.62 C 146.93 191.71 147.73 191.06 147.82 190.16 L 147.92 189.17 C 148.01 188.27 147.36 187.47 146.46 187.38 C 145.56 187.29 144.76 187.95 144.67 188.84 Z M 144.57 189.84 L 144.48 190.81 C 144.39 191.70 145.04 192.50 145.94 192.59 C 146.84 192.68 147.64 192.02 147.73 191.13 L 147.82 190.16 C 147.91 189.26 147.26 188.46 146.36 188.37 C 145.46 188.28 144.66 188.94 144.57 189.84 Z M 144.48 190.81 L 144.38 191.75 C 144.30 192.65 144.95 193.44 145.85 193.53 C 146.75 193.62 147.55 192.96 147.64 192.06 L 147.73 191.12 C 147.82 190.23 147.16 189.43 146.26 189.34 C 145.36 189.25 144.56 189.91 144.48 190.81 Z M 144.38 191.75 L 144.28 192.79 C 144.20 193.69 144.86 194.49 145.76 194.57 C 146.65 194.66 147.45 194.00 147.54 193.10 L 147.64 192.06 C 147.72 191.16 147.07 190.36 146.17 190.28 C 145.27 190.19 144.47 190.85 144.38 191.75 Z M 144.28 192.79 L 144.18 193.85 C 144.10 194.75 144.76 195.55 145.66 195.64 C 146.56 195.72 147.36 195.06 147.44 194.16 L 147.54 193.10 C 147.63 192.20 146.96 191.40 146.07 191.32 C 145.17 191.23 144.37 191.89 144.28 192.79 Z M 144.18 193.86 L 144.09 194.87 C 144.00 195.78 144.67 196.57 145.57 196.66 C 146.47 196.74 147.27 196.08 147.35 195.18 L 147.44 194.16 C 147.53 193.26 146.86 192.46 145.96 192.38 C 145.06 192.29 144.26 192.95 144.18 193.86 Z M 144.08 194.88 L 143.99 195.86 C 143.91 196.76 144.58 197.56 145.48 197.64 C 146.38 197.72 147.18 197.06 147.26 196.15 L 147.35 195.17 C 147.43 194.27 146.77 193.47 145.86 193.39 C 144.96 193.31 144.16 193.98 144.08 194.88 Z M 143.99 195.86 L 143.91 196.82 C 143.83 197.72 144.50 198.52 145.40 198.60 C 146.31 198.68 147.10 198.01 147.18 197.10 L 147.27 196.15 C 147.34 195.25 146.68 194.45 145.77 194.37 C 144.87 194.29 144.07 194.96 143.99 195.86 Z M 143.91 196.82 L 143.83 197.75 C 143.75 198.66 144.42 199.45 145.33 199.53 C 146.23 199.61 147.03 198.94 147.11 198.03 L 147.18 197.10 C 147.26 196.19 146.59 195.40 145.68 195.32 C 144.78 195.24 143.98 195.91 143.91 196.82 Z M 143.82 197.76 L 143.74 198.73 C 143.67 199.63 144.34 200.43 145.25 200.50 C 146.16 200.58 146.95 199.90 147.03 199.00 L 147.11 198.03 C 147.18 197.12 146.51 196.32 145.60 196.25 C 144.69 196.18 143.90 196.85 143.82 197.76 Z M 143.74 198.73 L 143.66 199.74 C 143.59 200.65 144.27 201.44 145.18 201.51 C 146.08 201.58 146.88 200.91 146.95 200.00 L 147.03 198.99 C 147.10 198.08 146.42 197.29 145.52 197.22 C 144.61 197.15 143.82 197.82 143.74 198.73 Z M 143.67 199.74 L 143.59 200.74 C 143.52 201.65 144.20 202.44 145.10 202.51 C 146.01 202.58 146.80 201.90 146.87 201.00 L 146.95 200.00 C 147.02 199.09 146.34 198.30 145.43 198.23 C 144.53 198.16 143.73 198.84 143.67 199.74 Z M 143.59 200.75 L 143.51 201.74 C 143.45 202.64 144.13 203.43 145.03 203.50 C 145.94 203.57 146.73 202.89 146.79 201.99 L 146.87 200.99 C 146.94 200.09 146.26 199.30 145.35 199.23 C 144.45 199.16 143.66 199.84 143.59 200.75 Z M 143.51 201.74 L 143.44 202.73 C 143.37 203.63 144.05 204.42 144.96 204.49 C 145.87 204.56 146.65 203.88 146.72 202.97 L 146.79 201.98 C 146.86 201.08 146.18 200.29 145.28 200.22 C 144.37 200.16 143.58 200.84 143.51 201.74 Z M 143.44 202.73 L 143.37 203.72 C 143.30 204.62 143.98 205.41 144.89 205.47 C 145.79 205.54 146.58 204.86 146.65 203.96 L 146.72 202.97 C 146.79 202.07 146.11 201.28 145.20 201.21 C 144.30 201.14 143.51 201.82 143.44 202.73 Z M 143.37 203.72 L 143.30 204.73 C 143.23 205.63 143.91 206.42 144.82 206.49 C 145.72 206.55 146.51 205.87 146.57 204.97 L 146.65 203.96 C 146.71 203.05 146.03 202.26 145.13 202.20 C 144.22 202.13 143.44 202.81 143.37 203.72 Z M 143.29 204.73 L 143.22 205.74 C 143.16 206.65 143.84 207.44 144.75 207.50 C 145.65 207.56 146.44 206.88 146.50 205.98 L 146.58 204.97 C 146.64 204.06 145.96 203.27 145.05 203.21 C 144.15 203.14 143.36 203.83 143.29 204.73 Z M 143.22 205.75 L 143.15 206.75 C 143.09 207.66 143.77 208.44 144.68 208.51 C 145.59 208.57 146.37 207.88 146.44 206.98 L 146.51 205.97 C 146.57 205.06 145.88 204.28 144.98 204.22 C 144.07 204.15 143.28 204.84 143.22 205.75 Z M 143.15 206.76 L 143.09 207.75 C 143.03 208.66 143.72 209.44 144.63 209.50 C 145.53 209.56 146.32 208.87 146.37 207.96 L 146.44 206.97 C 146.50 206.06 145.81 205.28 144.90 205.22 C 143.99 205.16 143.21 205.85 143.15 206.76 Z M 143.08 207.76 L 143.03 208.74 C 142.98 209.65 143.67 210.43 144.58 210.48 C 145.49 210.53 146.27 209.84 146.32 208.93 L 146.38 207.95 C 146.43 207.04 145.74 206.26 144.83 206.21 C 143.92 206.16 143.14 206.85 143.08 207.76 Z M 143.03 208.75 L 142.98 209.77 C 142.93 210.68 143.63 211.45 144.54 211.50 C 145.45 211.55 146.22 210.84 146.27 209.94 L 146.32 208.92 C 146.37 208.01 145.67 207.23 144.76 207.19 C 143.85 207.14 143.07 207.84 143.03 208.75 Z M 142.98 209.78 L 142.93 210.81 C 142.90 211.72 143.60 212.49 144.51 212.53 C 145.42 212.57 146.19 211.86 146.23 210.95 L 146.27 209.92 C 146.31 209.01 145.60 208.24 144.69 208.21 C 143.78 208.17 143.01 208.88 142.98 209.78 Z M 142.94 210.83 L 142.90 211.83 C 142.87 212.74 143.59 213.50 144.49 213.53 C 145.40 213.56 146.16 212.85 146.19 211.94 L 146.23 210.94 C 146.26 210.03 145.54 209.27 144.64 209.24 C 143.73 209.21 142.97 209.92 142.94 210.83 Z M 142.91 211.85 L 142.88 212.83 C 142.86 213.74 143.57 214.49 144.48 214.52 C 145.39 214.54 146.14 213.82 146.16 212.91 L 146.19 211.93 C 146.21 211.02 145.50 210.27 144.59 210.25 C 143.68 210.22 142.93 210.94 142.91 211.85 Z M 142.88 212.84 L 142.86 213.80 C 142.85 214.71 143.57 215.46 144.47 215.48 C 145.38 215.49 146.13 214.77 146.14 213.87 L 146.16 212.90 C 146.18 212.00 145.46 211.25 144.55 211.23 C 143.65 211.22 142.90 211.94 142.88 212.84 Z M 142.86 213.81 L 142.85 214.85 C 142.84 215.75 143.56 216.50 144.47 216.51 C 145.38 216.52 146.12 215.79 146.13 214.89 L 146.14 213.86 C 146.16 212.95 145.43 212.21 144.53 212.20 C 143.62 212.18 142.88 212.91 142.86 213.81 Z M 142.85 214.86 L 142.84 215.89 C 142.84 216.80 143.56 217.54 144.47 217.55 C 145.38 217.55 146.12 216.82 146.12 215.92 L 146.13 214.88 C 146.14 213.98 145.41 213.24 144.50 213.23 C 143.60 213.22 142.86 213.95 142.85 214.86 Z M 142.84 215.90 L 142.84 216.90 C 142.84 217.81 143.57 218.54 144.47 218.55 C 145.38 218.55 146.12 217.82 146.12 216.91 L 146.12 215.91 C 146.13 215.01 145.39 214.27 144.49 214.27 C 143.58 214.26 142.85 214.99 142.84 215.90 Z M 142.84 216.91 L 142.84 217.87 C 142.84 218.77 143.57 219.51 144.48 219.51 C 145.38 219.51 146.12 218.78 146.12 217.87 L 146.12 216.91 C 146.12 216.00 145.39 215.27 144.48 215.27 C 143.57 215.27 142.84 216.00 142.84 216.91 Z M 142.84 217.87 L 142.84 218.83 C 142.84 219.73 143.57 220.47 144.48 220.47 C 145.38 220.47 146.12 219.73 146.12 218.83 L 146.12 217.87 C 146.12 216.96 145.38 216.23 144.48 216.23 C 143.57 216.23 142.84 216.96 142.84 217.87 Z M 142.84 218.83 L 142.84 219.81 C 142.85 220.72 143.58 221.45 144.48 221.45 C 145.39 221.44 146.12 220.71 146.12 219.81 L 146.12 218.82 C 146.11 217.92 145.38 217.19 144.47 217.19 C 143.57 217.19 142.84 217.92 142.84 218.83 Z M 142.85 219.82 L 142.86 220.80 C 142.86 221.70 143.60 222.43 144.50 222.42 C 145.41 222.41 146.13 221.67 146.12 220.77 L 146.11 219.79 C 146.10 218.89 145.37 218.17 144.47 218.18 C 143.56 218.18 142.84 218.92 142.85 219.82 Z M 142.86 220.82 L 142.88 221.83 C 142.90 222.73 143.64 223.44 144.54 223.42 C 145.44 223.41 146.15 222.66 146.14 221.76 L 146.12 220.75 C 146.10 219.85 145.36 219.14 144.46 219.16 C 143.56 219.18 142.84 219.92 142.86 220.82 Z M 142.89 221.85 L 142.92 222.83 C 142.95 223.72 143.70 224.43 144.59 224.40 C 145.49 224.37 146.19 223.62 146.17 222.72 L 146.13 221.74 C 146.10 220.85 145.35 220.14 144.46 220.17 C 143.56 220.20 142.86 220.95 142.89 221.85 Z M 142.92 222.84 L 142.96 223.80 C 143.00 224.70 143.75 225.40 144.65 225.36 C 145.55 225.32 146.24 224.56 146.21 223.67 L 146.16 222.70 C 146.13 221.81 145.37 221.11 144.47 221.15 C 143.58 221.19 142.88 221.95 142.92 222.84 Z M 142.96 223.82 L 143.01 224.82 C 143.05 225.72 143.81 226.41 144.71 226.36 C 145.61 226.32 146.30 225.56 146.26 224.66 L 146.21 223.66 C 146.16 222.76 145.40 222.07 144.50 222.11 C 143.61 222.16 142.91 222.92 142.96 223.82 Z M 143.01 224.83 L 143.06 225.86 C 143.11 226.75 143.88 227.44 144.77 227.40 C 145.67 227.35 146.36 226.58 146.31 225.68 L 146.26 224.65 C 146.21 223.76 145.44 223.07 144.54 223.11 C 143.65 223.16 142.96 223.93 143.01 224.83 Z M 143.06 225.86 L 143.12 226.89 C 143.17 227.79 143.94 228.47 144.83 228.42 C 145.73 228.37 146.42 227.61 146.37 226.71 L 146.31 225.68 C 146.26 224.78 145.49 224.10 144.60 224.15 C 143.70 224.19 143.01 224.96 143.06 225.86 Z"
      fill="black"
      fill-rule="nonzero" /><path d="M 152.06 146.40 L 152.96 146.06 C 153.77 145.76 154.17 144.85 153.87 144.05 C 153.56 143.24 152.66 142.84 151.85 143.14 L 150.95 143.49 C 150.15 143.79 149.74 144.69 150.05 145.50 C 150.35 146.31 151.26 146.71 152.06 146.40 Z M 152.86 146.10 L 153.79 145.81 C 154.62 145.56 155.08 144.69 154.83 143.86 C 154.58 143.04 153.70 142.57 152.88 142.83 L 151.95 143.11 C 151.13 143.36 150.66 144.23 150.92 145.06 C 151.17 145.88 152.04 146.35 152.86 146.10 Z M 153.59 145.86 L 154.57 145.70 C 155.42 145.55 155.99 144.75 155.85 143.90 C 155.71 143.05 154.90 142.47 154.05 142.62 L 153.08 142.78 C 152.23 142.92 151.65 143.73 151.80 144.58 C 151.94 145.43 152.74 146.00 153.59 145.86 Z M 154.28 145.72 L 155.33 145.73 C 156.19 145.75 156.90 145.06 156.92 144.20 C 156.93 143.34 156.25 142.63 155.38 142.61 L 154.34 142.60 C 153.47 142.58 152.76 143.27 152.75 144.13 C 152.73 144.99 153.42 145.70 154.28 145.72 Z M 155.06 145.71 L 155.97 145.89 C 156.82 146.05 157.64 145.50 157.80 144.66 C 157.97 143.81 157.42 142.99 156.57 142.82 L 155.66 142.64 C 154.81 142.48 153.99 143.03 153.83 143.87 C 153.66 144.72 154.21 145.54 155.06 145.71 Z M 155.79 145.84 L 156.72 146.14 C 157.54 146.40 158.42 145.95 158.68 145.13 C 158.95 144.31 158.49 143.43 157.67 143.17 L 156.75 142.87 C 155.93 142.60 155.05 143.05 154.79 143.87 C 154.52 144.69 154.97 145.57 155.79 145.84 Z M 156.60 146.10 L 157.55 146.48 C 158.35 146.81 159.26 146.43 159.58 145.63 C 159.91 144.83 159.53 143.92 158.73 143.59 L 157.79 143.21 C 156.99 142.88 156.08 143.26 155.75 144.06 C 155.42 144.86 155.80 145.77 156.60 146.10 Z M 157.48 146.45 L 158.42 146.90 C 159.20 147.26 160.13 146.93 160.50 146.15 C 160.86 145.37 160.53 144.44 159.75 144.07 L 158.80 143.63 C 158.02 143.26 157.09 143.59 156.73 144.37 C 156.36 145.16 156.70 146.09 157.48 146.45 Z M 158.38 146.88 L 159.30 147.34 C 160.07 147.73 161.01 147.42 161.40 146.66 C 161.79 145.89 161.48 144.95 160.71 144.56 L 159.79 144.09 C 159.02 143.70 158.08 144.01 157.69 144.78 C 157.30 145.55 157.61 146.49 158.38 146.88 Z M 159.29 147.33 L 160.22 147.82 C 160.98 148.22 161.93 147.92 162.32 147.16 C 162.72 146.39 162.43 145.45 161.66 145.05 L 160.73 144.57 C 159.97 144.17 159.02 144.46 158.62 145.23 C 158.23 145.99 158.52 146.94 159.29 147.33 Z M 160.21 147.82 L 161.13 148.30 C 161.90 148.70 162.84 148.41 163.24 147.64 C 163.64 146.88 163.35 145.94 162.58 145.54 L 161.67 145.05 C 160.90 144.65 159.96 144.95 159.56 145.71 C 159.16 146.47 159.45 147.42 160.21 147.82 Z M 161.13 148.30 L 162.01 148.76 C 162.77 149.17 163.72 148.88 164.12 148.11 C 164.52 147.35 164.23 146.41 163.47 146.00 L 162.59 145.54 C 161.83 145.14 160.88 145.43 160.48 146.19 C 160.08 146.95 160.37 147.90 161.13 148.30 Z M 162.01 148.76 L 162.86 149.22 C 163.62 149.62 164.57 149.33 164.97 148.57 C 165.38 147.81 165.09 146.86 164.33 146.46 L 163.47 146.00 C 162.71 145.60 161.76 145.89 161.36 146.65 C 160.96 147.41 161.24 148.36 162.01 148.76 Z M 162.86 149.22 L 163.71 149.67 C 164.47 150.07 165.42 149.78 165.82 149.02 C 166.23 148.26 165.94 147.32 165.18 146.91 L 164.33 146.46 C 163.57 146.06 162.62 146.34 162.22 147.11 C 161.81 147.87 162.10 148.81 162.86 149.22 Z M 163.71 149.67 L 164.56 150.12 C 165.32 150.53 166.27 150.24 166.67 149.48 C 167.08 148.72 166.79 147.77 166.03 147.36 L 165.18 146.91 C 164.42 146.51 163.47 146.80 163.07 147.56 C 162.66 148.32 162.95 149.26 163.71 149.67 Z M 164.56 150.12 L 165.42 150.58 C 166.18 150.98 167.13 150.70 167.53 149.94 C 167.94 149.17 167.65 148.23 166.89 147.82 L 166.03 147.36 C 165.27 146.96 164.32 147.25 163.92 148.01 C 163.51 148.77 163.80 149.71 164.56 150.12 Z M 165.42 150.58 L 166.29 151.05 C 167.05 151.45 168.00 151.17 168.41 150.41 C 168.81 149.64 168.53 148.70 167.77 148.29 L 166.89 147.82 C 166.13 147.42 165.18 147.70 164.78 148.47 C 164.37 149.23 164.66 150.17 165.42 150.58 Z M 166.29 151.04 L 167.18 151.52 C 167.94 151.93 168.89 151.65 169.30 150.89 C 169.71 150.13 169.42 149.18 168.66 148.77 L 167.77 148.29 C 167.01 147.89 166.06 148.17 165.65 148.93 C 165.25 149.69 165.53 150.64 166.29 151.04 Z M 167.18 151.52 L 168.09 152.02 C 168.85 152.43 169.80 152.14 170.21 151.39 C 170.62 150.63 170.34 149.68 169.58 149.27 L 168.67 148.78 C 167.91 148.37 166.96 148.65 166.55 149.41 C 166.14 150.16 166.42 151.11 167.18 151.52 Z M 168.09 152.01 L 168.94 152.48 C 169.70 152.89 170.65 152.62 171.06 151.86 C 171.47 151.10 171.20 150.15 170.44 149.74 L 169.58 149.27 C 168.83 148.86 167.88 149.14 167.46 149.90 C 167.05 150.65 167.33 151.60 168.09 152.01 Z M 168.94 152.48 L 169.80 152.95 C 170.55 153.37 171.50 153.09 171.92 152.34 C 172.33 151.58 172.06 150.63 171.30 150.22 L 170.44 149.74 C 169.69 149.33 168.74 149.60 168.32 150.36 C 167.91 151.11 168.18 152.06 168.94 152.48 Z M 169.79 152.95 L 170.66 153.43 C 171.42 153.85 172.37 153.58 172.78 152.83 C 173.20 152.07 172.93 151.12 172.18 150.70 L 171.31 150.22 C 170.55 149.80 169.60 150.07 169.18 150.82 C 168.77 151.58 169.04 152.53 169.79 152.95 Z M 170.66 153.43 L 171.54 153.93 C 172.29 154.35 173.24 154.08 173.66 153.33 C 174.09 152.58 173.82 151.63 173.07 151.20 L 172.19 150.71 C 171.43 150.28 170.48 150.55 170.06 151.30 C 169.64 152.05 169.90 153.01 170.66 153.43 Z M 171.53 153.92 L 172.42 154.43 C 173.17 154.85 174.13 154.59 174.55 153.84 C 174.98 153.09 174.72 152.14 173.97 151.71 L 173.07 151.21 C 172.33 150.78 171.37 151.04 170.95 151.79 C 170.52 152.54 170.78 153.50 171.53 153.92 Z M 172.42 154.42 L 173.29 154.93 C 174.04 155.36 175.00 155.10 175.43 154.35 C 175.85 153.61 175.60 152.65 174.85 152.22 L 173.97 151.72 C 173.23 151.29 172.27 151.54 171.84 152.29 C 171.41 153.04 171.67 153.99 172.42 154.42 Z M 173.29 154.92 L 174.14 155.42 C 174.89 155.86 175.85 155.60 176.28 154.86 C 176.71 154.11 176.46 153.16 175.71 152.72 L 174.86 152.23 C 174.11 151.79 173.16 152.04 172.72 152.79 C 172.29 153.54 172.54 154.49 173.29 154.92 Z M 174.14 155.42 L 175.00 155.93 C 175.74 156.36 176.70 156.11 177.14 155.37 C 177.57 154.62 177.32 153.67 176.58 153.23 L 175.72 152.73 C 174.98 152.29 174.02 152.54 173.58 153.28 C 173.15 154.03 173.40 154.98 174.14 155.42 Z M 175.00 155.92 L 175.86 156.43 C 176.60 156.87 177.56 156.62 178.00 155.88 C 178.44 155.14 178.19 154.18 177.45 153.74 L 176.58 153.23 C 175.84 152.80 174.88 153.04 174.45 153.79 C 174.01 154.53 174.25 155.48 175.00 155.92 Z M 175.86 156.43 L 176.72 156.94 C 177.46 157.38 178.42 157.14 178.86 156.40 C 179.30 155.66 179.06 154.70 178.31 154.26 L 177.45 153.75 C 176.71 153.31 175.75 153.55 175.31 154.29 C 174.87 155.03 175.12 155.99 175.86 156.43 Z M 176.72 156.94 L 177.59 157.46 C 178.33 157.90 179.28 157.65 179.73 156.91 C 180.17 156.17 179.92 155.21 179.18 154.77 L 178.32 154.26 C 177.57 153.82 176.62 154.06 176.18 154.80 C 175.74 155.54 175.98 156.50 176.72 156.94 Z M 177.59 157.46 L 178.45 157.97 C 179.19 158.41 180.15 158.17 180.59 157.43 C 181.03 156.69 180.79 155.73 180.05 155.29 L 179.18 154.77 C 178.44 154.33 177.48 154.58 177.04 155.32 C 176.60 156.06 176.84 157.02 177.59 157.46 Z M 178.45 157.97 L 179.31 158.49 C 180.05 158.93 181.01 158.68 181.45 157.94 C 181.90 157.20 181.65 156.24 180.91 155.80 L 180.05 155.29 C 179.31 154.85 178.35 155.09 177.91 155.83 C 177.47 156.57 177.71 157.53 178.45 157.97 Z M 179.31 158.49 L 180.17 159.00 C 180.91 159.44 181.87 159.20 182.31 158.46 C 182.76 157.72 182.51 156.76 181.77 156.32 L 180.91 155.80 C 180.17 155.36 179.21 155.60 178.77 156.34 C 178.33 157.08 178.57 158.04 179.31 158.49 Z M 180.17 159.00 L 181.03 159.51 C 181.77 159.96 182.73 159.72 183.17 158.98 C 183.61 158.24 183.37 157.28 182.63 156.84 L 181.78 156.32 C 181.04 155.88 180.08 156.12 179.64 156.86 C 179.19 157.60 179.43 158.55 180.17 159.00 Z M 181.02 159.51 L 181.88 160.02 C 182.61 160.47 183.57 160.23 184.02 159.50 C 184.47 158.76 184.23 157.80 183.49 157.35 L 182.64 156.84 C 181.90 156.39 180.94 156.63 180.49 157.37 C 180.05 158.10 180.29 159.06 181.02 159.51 Z M 181.87 160.02 L 182.72 160.54 C 183.45 160.99 184.41 160.75 184.86 160.02 C 185.31 159.28 185.08 158.32 184.34 157.87 L 183.50 157.36 C 182.76 156.91 181.80 157.14 181.35 157.88 C 180.90 158.61 181.13 159.57 181.87 160.02 Z M 182.71 160.53 L 183.57 161.06 C 184.30 161.51 185.26 161.28 185.72 160.55 C 186.17 159.82 185.94 158.85 185.20 158.40 L 184.35 157.88 C 183.61 157.42 182.65 157.65 182.20 158.39 C 181.75 159.12 181.98 160.08 182.71 160.53 Z M 183.56 161.06 L 184.41 161.59 C 185.14 162.04 186.11 161.82 186.56 161.09 C 187.02 160.35 186.79 159.39 186.06 158.93 L 185.21 158.41 C 184.48 157.95 183.52 158.17 183.06 158.91 C 182.61 159.64 182.83 160.60 183.56 161.06 Z M 184.40 161.58 L 185.25 162.11 C 185.98 162.57 186.94 162.35 187.40 161.62 C 187.86 160.89 187.64 159.93 186.91 159.47 L 186.07 158.94 C 185.34 158.48 184.37 158.70 183.91 159.43 C 183.45 160.16 183.67 161.12 184.40 161.58 Z M 185.24 162.11 L 186.08 162.64 C 186.81 163.11 187.77 162.90 188.24 162.17 C 188.70 161.44 188.49 160.48 187.76 160.01 L 186.92 159.48 C 186.19 159.01 185.23 159.22 184.76 159.95 C 184.30 160.68 184.51 161.64 185.24 162.11 Z M 186.07 162.64 L 186.91 163.18 C 187.63 163.65 188.60 163.44 189.07 162.72 C 189.54 162.00 189.33 161.03 188.61 160.56 L 187.77 160.02 C 187.05 159.55 186.08 159.76 185.61 160.48 C 185.14 161.20 185.35 162.17 186.07 162.64 Z M 186.90 163.18 L 187.76 163.74 C 188.48 164.21 189.44 164.01 189.92 163.29 C 190.39 162.57 190.19 161.61 189.47 161.13 L 188.62 160.57 C 187.90 160.09 186.93 160.29 186.45 161.01 C 185.98 161.73 186.18 162.70 186.90 163.18 Z M 187.75 163.73 L 188.61 164.31 C 189.33 164.79 190.30 164.60 190.78 163.88 C 191.26 163.16 191.06 162.20 190.35 161.72 L 189.48 161.14 C 188.76 160.66 187.80 160.85 187.32 161.57 C 186.84 162.28 187.03 163.25 187.75 163.73 Z M 188.60 164.31 L 189.45 164.88 C 190.17 165.37 191.14 165.18 191.62 164.47 C 192.10 163.75 191.92 162.78 191.21 162.30 L 190.36 161.72 C 189.64 161.24 188.67 161.42 188.19 162.14 C 187.70 162.85 187.89 163.82 188.60 164.31 Z M 189.44 164.88 L 190.27 165.44 C 190.98 165.93 191.95 165.75 192.44 165.04 C 192.93 164.33 192.75 163.36 192.04 162.87 L 191.21 162.30 C 190.50 161.82 189.53 162.00 189.04 162.71 C 188.55 163.42 188.73 164.39 189.44 164.88 Z M 190.26 165.44 L 191.05 165.99 C 191.76 166.48 192.73 166.31 193.22 165.60 C 193.72 164.90 193.55 163.92 192.84 163.43 L 192.05 162.88 C 191.34 162.38 190.37 162.56 189.87 163.26 C 189.38 163.97 189.55 164.94 190.26 165.44 Z M 191.04 165.98 L 191.82 166.53 C 192.52 167.03 193.50 166.87 193.99 166.16 C 194.49 165.46 194.33 164.49 193.62 163.99 L 192.85 163.44 C 192.14 162.94 191.17 163.10 190.67 163.81 C 190.17 164.51 190.34 165.48 191.04 165.98 Z M 191.81 166.53 L 192.62 167.11 C 193.32 167.62 194.30 167.46 194.80 166.76 C 195.31 166.06 195.15 165.09 194.45 164.58 L 193.64 164.00 C 192.94 163.49 191.96 163.65 191.46 164.35 C 190.95 165.05 191.11 166.02 191.81 166.53 Z M 192.61 167.11 L 193.39 167.68 C 194.09 168.19 195.06 168.05 195.57 167.35 C 196.09 166.66 195.94 165.68 195.24 165.17 L 194.46 164.59 C 193.77 164.08 192.79 164.23 192.28 164.92 C 191.77 165.62 191.91 166.60 192.61 167.11 Z M 193.38 167.68 L 194.16 168.26 C 194.85 168.78 195.83 168.64 196.35 167.95 C 196.87 167.26 196.72 166.28 196.03 165.76 L 195.25 165.18 C 194.56 164.66 193.58 164.80 193.07 165.49 C 192.55 166.18 192.69 167.16 193.38 167.68 Z M 194.16 168.25 L 194.97 168.87 C 195.65 169.39 196.63 169.26 197.15 168.57 C 197.67 167.88 197.54 166.90 196.85 166.38 L 196.04 165.77 C 195.35 165.25 194.38 165.38 193.85 166.07 C 193.33 166.75 193.47 167.73 194.16 168.25 Z M 194.96 168.87 L 195.77 169.48 C 196.45 170.00 197.43 169.87 197.96 169.19 C 198.48 168.50 198.35 167.52 197.66 167.00 L 196.86 166.38 C 196.17 165.86 195.19 165.99 194.67 166.68 C 194.15 167.36 194.28 168.34 194.96 168.87 Z M 195.77 169.48 L 196.58 170.11 C 197.27 170.63 198.25 170.50 198.77 169.82 C 199.30 169.13 199.17 168.15 198.48 167.63 L 197.67 167.00 C 196.98 166.48 196.00 166.61 195.48 167.29 C 194.95 167.97 195.08 168.95 195.77 169.48 Z M 196.58 170.10 L 197.41 170.74 C 198.09 171.27 199.07 171.14 199.60 170.45 C 200.12 169.77 199.99 168.79 199.31 168.26 L 198.48 167.63 C 197.80 167.10 196.82 167.23 196.30 167.92 C 195.77 168.60 195.90 169.58 196.58 170.10 Z M 197.40 170.74 L 198.21 171.36 C 198.89 171.89 199.87 171.76 200.40 171.08 C 200.93 170.39 200.80 169.41 200.12 168.89 L 199.31 168.27 C 198.63 167.74 197.65 167.87 197.12 168.55 C 196.60 169.23 196.72 170.21 197.40 170.74 Z M 198.21 171.36 L 198.97 171.94 C 199.65 172.47 200.63 172.35 201.16 171.66 C 201.68 170.98 201.56 170.00 200.88 169.47 L 200.12 168.89 C 199.44 168.36 198.46 168.49 197.93 169.17 C 197.40 169.85 197.53 170.83 198.21 171.36 Z M 198.97 171.94 L 199.82 172.61 C 200.50 173.13 201.49 173.01 202.01 172.33 C 202.54 171.65 202.42 170.67 201.73 170.14 L 200.88 169.47 C 200.20 168.95 199.22 169.07 198.69 169.75 C 198.16 170.44 198.28 171.42 198.97 171.94 Z M 199.82 172.61 L 200.66 173.25 C 201.34 173.78 202.32 173.66 202.85 172.98 C 203.38 172.30 203.25 171.32 202.57 170.79 L 201.74 170.14 C 201.05 169.61 200.07 169.73 199.54 170.42 C 199.02 171.10 199.14 172.08 199.82 172.61 Z M 200.66 173.25 L 201.39 173.82 C 202.07 174.35 203.05 174.23 203.58 173.55 C 204.11 172.87 203.99 171.89 203.31 171.36 L 202.57 170.79 C 201.89 170.26 200.91 170.38 200.38 171.06 C 199.85 171.74 199.98 172.72 200.66 173.25 Z M 201.39 173.82 L 202.00 174.30 C 202.69 174.83 203.67 174.71 204.20 174.03 C 204.72 173.35 204.60 172.37 203.92 171.84 L 203.31 171.36 C 202.63 170.83 201.65 170.95 201.12 171.63 C 200.59 172.31 200.71 173.29 201.39 173.82 Z"
      fill="black"
      fill-rule="nonzero" /></svg>