<svg xmlns="http://www.w3.org/2000/svg" width="300" height="300" viewBox="0 0 300 300">
<path d="M 120.41 100.73 L 119.96 99.84 C 119.57 99.07 118.63 98.76 117.86 99.15 C 117.09 99.54 116.78 100.48 117.17 101.25 L 117.62 102.14 C 118.01 102.91 118.95 103.21 119.72 102.82 C 120.49 102.43 120.80 101.49 120.41 100.73 Z M 120.01 99.95 L 119.63 99.03 C 119.30 98.24 118.39 97.86 117.59 98.19 C 116.79 98.52 116.41 99.43 116.74 100.22 L 117.12 101.14 C 117.45 101.94 118.36 102.32 119.16 101.99 C 119.96 101.66 120.34 100.75 120.01 99.95 Z M 119.70 99.26 L 119.47 98.29 C 119.27 97.45 118.42 96.93 117.59 97.14 C 116.75 97.34 116.23 98.18 116.43 99.02 L 116.67 100.00 C 116.87 100.83 117.72 101.35 118.55 101.15 C 119.39 100.94 119.91 100.10 119.70 99.26 Z M 119.51 98.60 L 119.48 97.62 C 119.45 96.75 118.73 96.08 117.87 96.11 C 117.01 96.13 116.33 96.85 116.36 97.72 L 116.39 98.70 C 116.42 99.57 117.14 100.24 118.00 100.21 C 118.86 100.19 119.54 99.47 119.51 98.60 Z M 119.46 97.93 L 119.63 96.94 C 119.78 96.09 119.21 95.28 118.36 95.13 C 117.51 94.99 116.70 95.56 116.55 96.41 L 116.38 97.40 C 116.23 98.25 116.80 99.06 117.65 99.20 C 118.50 99.35 119.31 98.78 119.46 97.93 Z M 119.54 97.26 L 119.92 96.33 C 120.24 95.54 119.86 94.62 119.06 94.30 C 118.26 93.97 117.35 94.36 117.02 95.15 L 116.65 96.08 C 116.32 96.88 116.70 97.79 117.50 98.12 C 118.30 98.44 119.21 98.06 119.54 97.26 Z M 119.73 96.67 L 120.27 95.93 C 120.78 95.24 120.63 94.26 119.93 93.75 C 119.24 93.24 118.26 93.39 117.75 94.09 L 117.21 94.82 C 116.70 95.51 116.85 96.49 117.55 97.00 C 118.24 97.51 119.22 97.36 119.73 96.67 Z M 120.01 96.21 L 120.66 95.67 C 121.32 95.12 121.41 94.13 120.85 93.47 C 120.30 92.81 119.32 92.72 118.66 93.27 L 118.01 93.81 C 117.35 94.36 117.26 95.35 117.81 96.01 C 118.36 96.67 119.35 96.76 120.01 96.21 Z M 120.42 95.83 L 121.24 95.37 C 122.00 94.95 122.26 94.00 121.84 93.25 C 121.42 92.49 120.47 92.22 119.72 92.65 L 118.89 93.11 C 118.14 93.53 117.87 94.48 118.29 95.23 C 118.72 95.99 119.67 96.25 120.42 95.83 Z M 121.07 95.45 L 122.09 95.04 C 122.89 94.71 123.27 93.80 122.95 93.00 C 122.63 92.21 121.71 91.82 120.92 92.15 L 119.89 92.56 C 119.09 92.89 118.71 93.80 119.03 94.60 C 119.36 95.39 120.27 95.78 121.07 95.45 Z M 121.99 95.08 L 123.08 94.72 C 123.89 94.45 124.34 93.57 124.07 92.75 C 123.81 91.93 122.92 91.49 122.11 91.75 L 121.02 92.11 C 120.20 92.38 119.75 93.26 120.02 94.08 C 120.29 94.90 121.17 95.34 121.99 95.08 Z M 123.02 94.74 L 123.90 94.48 C 124.73 94.24 125.21 93.38 124.97 92.55 C 124.73 91.72 123.87 91.24 123.04 91.48 L 122.16 91.74 C 121.33 91.98 120.85 92.84 121.09 93.67 C 121.33 94.50 122.19 94.98 123.02 94.74 Z M 123.87 94.49 L 124.82 94.24 C 125.65 94.02 126.15 93.17 125.93 92.34 C 125.71 91.50 124.86 91.01 124.02 91.22 L 123.07 91.47 C 122.24 91.69 121.74 92.55 121.96 93.38 C 122.18 94.21 123.03 94.71 123.87 94.49 Z M 124.78 94.25 L 125.78 94.01 C 126.61 93.81 127.13 92.97 126.93 92.13 C 126.73 91.29 125.89 90.78 125.05 90.98 L 124.06 91.22 C 123.22 91.42 122.70 92.26 122.90 93.10 C 123.10 93.94 123.94 94.45 124.78 94.25 Z M 125.74 94.02 L 126.76 93.80 C 127.61 93.62 128.14 92.79 127.96 91.95 C 127.78 91.10 126.95 90.57 126.10 90.75 L 125.08 90.97 C 124.24 91.15 123.70 91.98 123.89 92.83 C 124.07 93.67 124.90 94.20 125.74 94.02 Z M 126.73 93.81 L 127.76 93.61 C 128.60 93.45 129.16 92.63 129.00 91.79 C 128.83 90.94 128.02 90.38 127.17 90.55 L 126.14 90.74 C 125.29 90.90 124.74 91.72 124.90 92.57 C 125.06 93.42 125.88 93.97 126.73 93.81 Z M 127.72 93.62 L 128.73 93.45 C 129.58 93.31 130.16 92.51 130.02 91.66 C 129.88 90.81 129.08 90.23 128.22 90.37 L 127.21 90.54 C 126.36 90.68 125.78 91.48 125.92 92.33 C 126.06 93.18 126.87 93.76 127.72 93.62 Z M 128.68 93.46 L 129.80 93.31 C 130.65 93.20 131.25 92.41 131.14 91.56 C 131.03 90.71 130.24 90.10 129.39 90.22 L 128.27 90.36 C 127.42 90.48 126.82 91.26 126.93 92.12 C 127.04 92.97 127.83 93.57 128.68 93.46 Z M 129.75 93.32 L 130.84 93.21 C 131.70 93.13 132.33 92.36 132.24 91.50 C 132.16 90.64 131.39 90.02 130.54 90.10 L 129.44 90.21 C 128.58 90.30 127.95 91.06 128.04 91.92 C 128.12 92.78 128.89 93.40 129.75 93.32 Z M 130.80 93.21 L 131.83 93.14 C 132.69 93.08 133.34 92.34 133.28 91.48 C 133.22 90.62 132.48 89.97 131.62 90.03 L 130.58 90.10 C 129.72 90.16 129.07 90.90 129.13 91.76 C 129.19 92.62 129.94 93.27 130.80 93.21 Z M 131.80 93.14 L 132.77 93.10 C 133.63 93.06 134.29 92.33 134.26 91.47 C 134.22 90.61 133.49 89.94 132.62 89.98 L 131.66 90.02 C 130.79 90.06 130.13 90.79 130.17 91.66 C 130.21 92.52 130.94 93.18 131.80 93.14 Z M 132.74 93.10 L 133.64 93.08 C 134.50 93.05 135.18 92.33 135.15 91.47 C 135.13 90.61 134.41 89.93 133.55 89.95 L 132.65 89.98 C 131.79 90.00 131.11 90.72 131.14 91.58 C 131.16 92.45 131.88 93.12 132.74 93.10 Z M 133.62 93.08 L 134.53 93.06 C 135.40 93.05 136.08 92.34 136.07 91.47 C 136.05 90.61 135.34 89.93 134.48 89.94 L 133.57 89.95 C 132.71 89.97 132.02 90.68 132.03 91.54 C 132.05 92.40 132.76 93.09 133.62 93.08 Z M 134.52 93.06 L 135.64 93.05 C 136.50 93.04 137.19 92.33 137.18 91.47 C 137.18 90.61 136.47 89.92 135.61 89.93 L 134.49 89.94 C 133.63 89.95 132.94 90.65 132.95 91.52 C 132.96 92.38 133.66 93.07 134.52 93.06 Z M 135.63 93.05 L 136.61 93.04 C 137.48 93.04 138.17 92.34 138.17 91.48 C 138.16 90.61 137.46 89.92 136.60 89.92 L 135.62 89.93 C 134.75 89.93 134.06 90.63 134.06 91.50 C 134.07 92.36 134.77 93.05 135.63 93.05 Z M 136.61 93.04 L 137.51 93.04 C 138.37 93.04 139.07 92.34 139.07 91.48 C 139.07 90.62 138.37 89.92 137.50 89.92 L 136.60 89.92 C 135.74 89.92 135.04 90.62 135.04 91.49 C 135.05 92.35 135.75 93.05 136.61 93.04 Z M 137.50 93.04 L 138.46 93.04 C 139.33 93.05 140.03 92.35 140.03 91.48 C 140.03 90.62 139.33 89.92 138.47 89.92 L 137.51 89.92 C 136.65 89.92 135.95 90.62 135.95 91.48 C 135.94 92.34 136.64 93.04 137.50 93.04 Z M 138.44 93.04 L 139.44 93.06 C 140.30 93.07 141.01 92.39 141.03 91.52 C 141.04 90.66 140.35 89.95 139.49 89.94 L 138.49 89.92 C 137.63 89.91 136.92 90.60 136.90 91.46 C 136.89 92.32 137.58 93.03 138.44 93.04 Z M 139.38 93.06 L 140.38 93.11 C 141.24 93.16 141.97 92.50 142.02 91.63 C 142.06 90.77 141.40 90.04 140.54 89.99 L 139.55 89.94 C 138.69 89.89 137.95 90.55 137.91 91.42 C 137.86 92.28 138.52 93.01 139.38 93.06 Z M 140.29 93.10 L 141.26 93.21 C 142.12 93.31 142.89 92.69 142.99 91.84 C 143.08 90.98 142.47 90.21 141.61 90.11 L 140.63 90.00 C 139.78 89.90 139.00 90.52 138.91 91.38 C 138.81 92.23 139.43 93.01 140.29 93.10 Z M 141.16 93.20 L 142.13 93.37 C 142.98 93.52 143.79 92.96 143.94 92.11 C 144.09 91.26 143.53 90.45 142.68 90.30 L 141.71 90.12 C 140.86 89.97 140.05 90.54 139.90 91.39 C 139.75 92.24 140.31 93.05 141.16 93.20 Z M 142.05 93.35 L 143.03 93.59 C 143.87 93.78 144.71 93.26 144.91 92.43 C 145.11 91.59 144.59 90.75 143.75 90.55 L 142.76 90.31 C 141.93 90.12 141.08 90.64 140.89 91.47 C 140.69 92.31 141.21 93.15 142.05 93.35 Z M 142.96 93.57 L 143.89 93.83 C 144.72 94.07 145.59 93.59 145.82 92.76 C 146.06 91.93 145.58 91.07 144.75 90.83 L 143.82 90.56 C 142.99 90.33 142.12 90.81 141.89 91.64 C 141.65 92.47 142.13 93.33 142.96 93.57 Z M 143.82 93.81 L 144.69 94.10 C 145.50 94.38 146.39 93.94 146.66 93.12 C 146.94 92.31 146.50 91.42 145.68 91.14 L 144.82 90.85 C 144.01 90.58 143.12 91.02 142.84 91.83 C 142.57 92.65 143.01 93.54 143.82 93.81 Z M 144.59 94.07 L 145.50 94.44 C 146.30 94.77 147.21 94.38 147.54 93.59 C 147.86 92.79 147.48 91.88 146.68 91.55 L 145.78 91.18 C 144.98 90.85 144.07 91.23 143.74 92.03 C 143.41 92.83 143.80 93.74 144.59 94.07 Z M 145.40 94.39 L 146.37 94.88 C 147.14 95.26 148.08 94.94 148.46 94.17 C 148.84 93.40 148.53 92.46 147.76 92.08 L 146.79 91.60 C 146.01 91.21 145.08 91.53 144.69 92.30 C 144.31 93.07 144.62 94.01 145.40 94.39 Z M 146.27 94.82 L 147.18 95.35 C 147.92 95.79 148.88 95.54 149.31 94.80 C 149.75 94.05 149.50 93.10 148.76 92.66 L 147.85 92.13 C 147.11 91.69 146.15 91.94 145.72 92.69 C 145.28 93.43 145.53 94.39 146.27 94.82 Z M 147.11 95.31 L 147.95 95.86 C 148.67 96.34 149.64 96.14 150.11 95.42 C 150.59 94.70 150.38 93.73 149.66 93.25 L 148.82 92.70 C 148.10 92.23 147.14 92.43 146.66 93.15 C 146.19 93.87 146.39 94.84 147.11 95.31 Z M 147.90 95.83 L 148.74 96.43 C 149.44 96.94 150.42 96.77 150.92 96.07 C 151.42 95.37 151.26 94.40 150.56 93.90 L 149.72 93.29 C 149.02 92.79 148.04 92.95 147.54 93.65 C 147.04 94.35 147.20 95.33 147.90 95.83 Z M 148.69 96.40 L 149.50 97.03 C 150.18 97.56 151.17 97.43 151.69 96.75 C 152.22 96.07 152.10 95.09 151.42 94.56 L 150.61 93.93 C 149.93 93.40 148.95 93.53 148.42 94.21 C 147.89 94.89 148.01 95.87 148.69 96.40 Z M 149.45 96.99 L 150.20 97.62 C 150.86 98.18 151.85 98.10 152.40 97.44 C 152.96 96.78 152.88 95.79 152.22 95.24 L 151.47 94.60 C 150.81 94.05 149.83 94.13 149.27 94.79 C 148.71 95.45 148.80 96.43 149.45 96.99 Z M 150.14 97.56 L 150.91 98.29 C 151.54 98.89 152.53 98.86 153.12 98.23 C 153.71 97.60 153.68 96.62 153.06 96.02 L 152.28 95.29 C 151.66 94.70 150.67 94.73 150.08 95.36 C 149.48 95.98 149.51 96.97 150.14 97.56 Z M 150.83 98.21 L 151.53 98.98 C 152.11 99.61 153.10 99.66 153.74 99.08 C 154.37 98.50 154.42 97.51 153.84 96.87 L 153.14 96.11 C 152.56 95.47 151.57 95.43 150.93 96.01 C 150.30 96.59 150.25 97.58 150.83 98.21 Z M 151.45 98.88 L 152.04 99.64 C 152.56 100.32 153.54 100.44 154.23 99.91 C 154.91 99.38 155.03 98.40 154.50 97.72 L 153.92 96.97 C 153.39 96.29 152.41 96.16 151.73 96.69 C 151.05 97.22 150.92 98.20 151.45 98.88 Z M 151.97 99.55 L 152.49 100.32 C 152.97 101.03 153.94 101.22 154.65 100.74 C 155.37 100.26 155.56 99.30 155.08 98.58 L 154.57 97.81 C 154.09 97.09 153.12 96.90 152.40 97.38 C 151.68 97.86 151.49 98.83 151.97 99.55 Z M 152.45 100.25 L 152.93 101.06 C 153.37 101.80 154.33 102.04 155.07 101.59 C 155.81 101.15 156.05 100.19 155.61 99.45 L 155.12 98.64 C 154.68 97.91 153.72 97.67 152.98 98.11 C 152.24 98.55 152.00 99.51 152.45 100.25 Z M 152.90 101.00 L 153.36 101.86 C 153.77 102.62 154.72 102.90 155.48 102.49 C 156.24 102.07 156.52 101.13 156.11 100.37 L 155.64 99.51 C 155.23 98.75 154.28 98.47 153.52 98.88 C 152.77 99.29 152.49 100.24 152.90 101.00 Z M 153.33 101.80 L 153.78 102.71 C 154.16 103.49 155.09 103.81 155.87 103.43 C 156.64 103.05 156.96 102.11 156.58 101.34 L 156.14 100.43 C 155.76 99.65 154.82 99.33 154.05 99.71 C 153.27 100.09 152.95 101.03 153.33 101.80 Z M 153.75 102.66 L 154.18 103.61 C 154.52 104.40 155.44 104.76 156.23 104.41 C 157.02 104.07 157.38 103.14 157.03 102.36 L 156.61 101.40 C 156.26 100.61 155.34 100.25 154.55 100.60 C 153.76 100.95 153.41 101.87 153.75 102.66 Z M 154.15 103.57 L 154.50 104.42 C 154.82 105.22 155.73 105.61 156.53 105.29 C 157.33 104.97 157.72 104.06 157.40 103.26 L 157.05 102.40 C 156.73 101.60 155.82 101.21 155.02 101.54 C 154.22 101.86 153.83 102.76 154.15 103.57 Z M 154.48 104.39 L 154.82 105.29 C 155.12 106.10 156.02 106.51 156.83 106.21 C 157.64 105.91 158.05 105.01 157.75 104.20 L 157.41 103.30 C 157.11 102.49 156.21 102.08 155.40 102.38 C 154.59 102.68 154.18 103.58 154.48 104.39 Z M 154.81 105.26 L 155.14 106.22 C 155.43 107.03 156.32 107.46 157.14 107.17 C 157.95 106.89 158.38 105.99 158.09 105.18 L 157.76 104.23 C 157.47 103.41 156.58 102.98 155.76 103.27 C 154.95 103.56 154.52 104.45 154.81 105.26 Z M 155.14 106.20 L 155.47 107.20 C 155.75 108.02 156.64 108.46 157.46 108.19 C 158.27 107.91 158.71 107.02 158.44 106.21 L 158.10 105.20 C 157.82 104.38 156.94 103.94 156.12 104.22 C 155.30 104.49 154.86 105.38 155.14 106.20 Z M 155.47 107.19 L 155.79 108.15 C 156.06 108.98 156.94 109.42 157.76 109.15 C 158.58 108.88 159.03 108.00 158.76 107.18 L 158.44 106.22 C 158.17 105.40 157.29 104.95 156.47 105.22 C 155.65 105.49 155.20 106.37 155.47 107.19 Z M 155.78 108.14 L 156.07 109.05 C 156.34 109.88 157.22 110.33 158.04 110.07 C 158.87 109.80 159.32 108.92 159.06 108.10 L 158.76 107.19 C 158.50 106.36 157.62 105.91 156.79 106.17 C 155.97 106.44 155.52 107.32 155.78 108.14 Z M 156.07 109.04 L 156.36 109.98 C 156.62 110.81 157.50 111.27 158.32 111.01 C 159.15 110.76 159.61 109.88 159.35 109.05 L 159.06 108.11 C 158.80 107.28 157.93 106.82 157.10 107.08 C 156.27 107.33 155.81 108.21 156.07 109.04 Z M 156.35 109.96 L 156.64 110.93 C 156.89 111.76 157.76 112.24 158.59 111.99 C 159.42 111.74 159.89 110.87 159.65 110.04 L 159.36 109.07 C 159.12 108.24 158.24 107.77 157.41 108.01 C 156.58 108.26 156.11 109.13 156.35 109.96 Z M 156.63 110.91 L 156.91 111.90 C 157.14 112.74 158.01 113.23 158.84 112.99 C 159.68 112.76 160.17 111.90 159.93 111.06 L 159.66 110.07 C 159.42 109.23 158.56 108.74 157.72 108.97 C 156.89 109.21 156.40 110.07 156.63 110.91 Z M 156.90 111.87 L 157.16 112.89 C 157.38 113.73 158.23 114.24 159.07 114.02 C 159.91 113.80 160.42 112.95 160.20 112.11 L 159.94 111.09 C 159.73 110.25 158.87 109.75 158.03 109.96 C 157.19 110.18 156.68 111.03 156.90 111.87 Z M 157.15 112.86 L 157.37 113.79 C 157.57 114.64 158.41 115.17 159.26 114.97 C 160.11 114.77 160.63 113.92 160.43 113.08 L 160.21 112.14 C 160.02 111.30 159.17 110.77 158.32 110.97 C 157.48 111.17 156.95 112.01 157.15 112.86 Z M 157.36 113.77 L 157.57 114.72 C 157.75 115.57 158.59 116.11 159.44 115.93 C 160.29 115.74 160.83 114.91 160.65 114.06 L 160.44 113.11 C 160.26 112.26 159.42 111.71 158.57 111.90 C 157.72 112.08 157.18 112.92 157.36 113.77 Z M 157.56 114.69 L 157.75 115.66 C 157.92 116.51 158.75 117.07 159.60 116.90 C 160.46 116.73 161.01 115.90 160.84 115.05 L 160.65 114.08 C 160.48 113.23 159.65 112.67 158.80 112.84 C 157.95 113.01 157.39 113.84 157.56 114.69 Z M 157.75 115.64 L 157.93 116.63 C 158.09 117.49 158.91 118.05 159.77 117.89 C 160.63 117.73 161.19 116.91 161.03 116.05 L 160.85 115.07 C 160.69 114.21 159.87 113.64 159.01 113.80 C 158.15 113.96 157.59 114.78 157.75 115.64 Z M 157.92 116.61 L 158.10 117.62 C 158.25 118.48 159.07 119.05 159.93 118.90 C 160.79 118.75 161.36 117.93 161.21 117.07 L 161.04 116.07 C 160.89 115.21 160.07 114.63 159.21 114.78 C 158.35 114.93 157.77 115.75 157.92 116.61 Z M 158.10 117.61 L 158.27 118.64 C 158.42 119.50 159.23 120.08 160.09 119.94 C 160.95 119.79 161.54 118.98 161.39 118.12 L 161.22 117.09 C 161.07 116.22 160.26 115.64 159.39 115.79 C 158.53 115.93 157.95 116.75 158.10 117.61 Z M 158.27 118.63 L 158.42 119.58 C 158.56 120.45 159.38 121.03 160.24 120.89 C 161.11 120.75 161.69 119.93 161.55 119.07 L 161.39 118.12 C 161.25 117.26 160.44 116.67 159.57 116.81 C 158.71 116.96 158.13 117.77 158.27 118.63 Z M 158.42 119.58 L 158.57 120.53 C 158.71 121.39 159.53 121.98 160.39 121.84 C 161.25 121.70 161.84 120.89 161.70 120.02 L 161.55 119.08 C 161.41 118.21 160.60 117.62 159.73 117.76 C 158.87 117.90 158.28 118.72 158.42 119.58 Z M 158.57 120.52 L 158.73 121.49 C 158.86 122.35 159.67 122.94 160.54 122.81 C 161.40 122.67 161.99 121.86 161.86 120.99 L 161.70 120.03 C 161.57 119.16 160.76 118.57 159.89 118.71 C 159.03 118.85 158.44 119.66 158.57 120.52 Z M 158.72 121.48 L 158.88 122.47 C 159.01 123.34 159.83 123.93 160.69 123.79 C 161.56 123.66 162.15 122.84 162.01 121.98 L 161.86 120.99 C 161.72 120.13 160.91 119.54 160.05 119.67 C 159.18 119.81 158.59 120.62 158.72 121.48 Z M 158.88 122.47 L 159.03 123.47 C 159.17 124.34 159.98 124.93 160.84 124.80 C 161.71 124.66 162.30 123.85 162.17 122.98 L 162.01 121.98 C 161.88 121.11 161.07 120.52 160.20 120.66 C 159.34 120.79 158.74 121.60 158.88 122.47 Z M 159.03 123.47 L 159.19 124.49 C 159.32 125.36 160.13 125.95 161.00 125.82 C 161.87 125.69 162.46 124.88 162.33 124.01 L 162.17 122.99 C 162.04 122.12 161.23 121.52 160.36 121.66 C 159.49 121.79 158.90 122.60 159.03 123.47 Z M 159.19 124.49 L 159.35 125.53 C 159.48 126.40 160.29 127.00 161.16 126.86 C 162.03 126.73 162.62 125.92 162.49 125.05 L 162.33 124.01 C 162.20 123.14 161.39 122.55 160.52 122.68 C 159.65 122.81 159.05 123.62 159.19 124.49 Z M 159.35 125.53 L 159.49 126.50 C 159.63 127.36 160.44 127.96 161.31 127.83 C 162.17 127.69 162.77 126.88 162.64 126.02 L 162.49 125.05 C 162.36 124.18 161.55 123.59 160.68 123.72 C 159.81 123.85 159.21 124.66 159.35 125.53 Z M 159.49 126.50 L 159.64 127.46 C 159.77 128.32 160.59 128.92 161.45 128.79 C 162.32 128.65 162.92 127.84 162.79 126.97 L 162.64 126.01 C 162.50 125.15 161.69 124.55 160.82 124.68 C 159.96 124.82 159.36 125.63 159.49 126.50 Z M 159.64 127.46 L 159.79 128.43 C 159.92 129.30 160.74 129.89 161.60 129.76 C 162.47 129.63 163.07 128.81 162.94 127.95 L 162.79 126.97 C 162.65 126.10 161.84 125.51 160.97 125.64 C 160.10 125.78 159.51 126.59 159.64 127.46 Z M 159.79 128.43 L 159.94 129.42 C 160.08 130.28 160.89 130.88 161.76 130.74 C 162.63 130.61 163.22 129.80 163.09 128.93 L 162.94 127.94 C 162.80 127.07 161.99 126.48 161.12 126.61 C 160.25 126.75 159.66 127.56 159.79 128.43 Z M 159.94 129.42 L 160.10 130.41 C 160.23 131.28 161.05 131.88 161.92 131.74 C 162.79 131.60 163.38 130.79 163.24 129.92 L 163.09 128.93 C 162.95 128.06 162.14 127.46 161.27 127.60 C 160.40 127.73 159.81 128.55 159.94 129.42 Z M 160.10 130.42 L 160.26 131.42 C 160.40 132.29 161.21 132.88 162.08 132.74 C 162.95 132.61 163.54 131.79 163.40 130.92 L 163.24 129.92 C 163.11 129.05 162.29 128.46 161.42 128.59 C 160.55 128.73 159.96 129.55 160.10 130.42 Z M 160.26 131.42 L 160.42 132.44 C 160.56 133.31 161.38 133.90 162.25 133.76 C 163.12 133.62 163.71 132.80 163.57 131.93 L 163.40 130.92 C 163.26 130.05 162.45 129.46 161.58 129.60 C 160.71 129.74 160.12 130.56 160.26 131.42 Z M 160.42 132.44 L 160.59 133.46 C 160.73 134.33 161.55 134.92 162.42 134.78 C 163.29 134.64 163.88 133.82 163.73 132.95 L 163.57 131.93 C 163.42 131.06 162.60 130.47 161.74 130.61 C 160.87 130.75 160.28 131.57 160.42 132.44 Z M 160.59 133.47 L 160.75 134.44 C 160.90 135.31 161.72 135.89 162.59 135.75 C 163.45 135.60 164.04 134.78 163.89 133.91 L 163.73 132.94 C 163.59 132.08 162.77 131.49 161.90 131.63 C 161.03 131.78 160.44 132.60 160.59 133.47 Z M 160.75 134.44 L 160.92 135.42 C 161.07 136.29 161.89 136.87 162.76 136.72 C 163.62 136.58 164.21 135.75 164.06 134.89 L 163.89 133.91 C 163.75 133.04 162.92 132.46 162.06 132.61 C 161.19 132.75 160.60 133.58 160.75 134.44 Z M 160.92 135.43 L 161.09 136.41 C 161.24 137.27 162.06 137.85 162.93 137.70 C 163.80 137.55 164.38 136.73 164.23 135.86 L 164.06 134.88 C 163.91 134.01 163.08 133.43 162.22 133.58 C 161.35 133.73 160.77 134.56 160.92 135.43 Z M 161.09 136.41 L 161.27 137.40 C 161.42 138.26 162.25 138.84 163.11 138.68 C 163.98 138.53 164.56 137.70 164.40 136.84 L 164.23 135.85 C 164.07 134.99 163.25 134.41 162.38 134.56 C 161.51 134.72 160.94 135.55 161.09 136.41 Z M 161.27 137.40 L 161.45 138.39 C 161.60 139.25 162.43 139.83 163.30 139.67 C 164.16 139.51 164.74 138.68 164.58 137.82 L 164.40 136.83 C 164.24 135.97 163.41 135.39 162.55 135.55 C 161.68 135.71 161.11 136.54 161.27 137.40 Z M 161.45 138.40 L 161.63 139.38 C 161.79 140.25 162.63 140.82 163.49 140.66 C 164.36 140.50 164.93 139.66 164.76 138.80 L 164.58 137.81 C 164.42 136.95 163.59 136.38 162.72 136.54 C 161.86 136.70 161.29 137.53 161.45 138.40 Z M 161.63 139.39 L 161.82 140.38 C 161.99 141.25 162.82 141.81 163.69 141.65 C 164.55 141.48 165.12 140.65 164.95 139.78 L 164.76 138.79 C 164.60 137.93 163.76 137.36 162.90 137.53 C 162.03 137.69 161.47 138.53 161.63 139.39 Z M 161.83 140.39 L 162.02 141.38 C 162.19 142.25 163.03 142.81 163.89 142.64 C 164.75 142.47 165.32 141.63 165.15 140.77 L 164.95 139.78 C 164.78 138.91 163.94 138.35 163.08 138.52 C 162.22 138.69 161.66 139.53 161.83 140.39 Z M 162.02 141.39 L 162.22 142.36 C 162.39 143.22 163.23 143.78 164.10 143.61 C 164.96 143.43 165.52 142.59 165.34 141.73 L 165.14 140.76 C 164.97 139.90 164.13 139.34 163.27 139.51 C 162.41 139.69 161.85 140.53 162.02 141.39 Z M 162.22 142.37 L 162.42 143.33 C 162.60 144.19 163.45 144.75 164.31 144.57 C 165.17 144.39 165.72 143.54 165.54 142.68 L 165.34 141.72 C 165.16 140.86 164.32 140.31 163.46 140.49 C 162.59 140.67 162.04 141.51 162.22 142.37 Z M 162.42 143.34 L 162.63 144.31 C 162.82 145.17 163.66 145.71 164.52 145.53 C 165.38 145.35 165.93 144.50 165.75 143.64 L 165.54 142.67 C 165.35 141.81 164.51 141.27 163.65 141.45 C 162.79 141.63 162.24 142.48 162.42 143.34 Z M 162.63 144.32 L 162.85 145.28 C 163.04 146.14 163.89 146.69 164.75 146.50 C 165.60 146.31 166.15 145.46 165.96 144.60 L 165.74 143.63 C 165.55 142.77 164.70 142.23 163.84 142.42 C 162.99 142.61 162.44 143.46 162.63 144.32 Z M 162.85 145.29 L 163.07 146.26 C 163.26 147.12 164.12 147.66 164.98 147.47 C 165.83 147.27 166.37 146.42 166.18 145.56 L 165.96 144.59 C 165.76 143.73 164.91 143.19 164.05 143.39 C 163.19 143.58 162.65 144.43 162.85 145.29 Z M 163.07 146.27 L 163.30 147.25 C 163.50 148.11 164.36 148.64 165.21 148.44 C 166.07 148.24 166.60 147.38 166.40 146.53 L 166.18 145.55 C 165.98 144.69 165.12 144.16 164.26 144.36 C 163.40 144.56 162.87 145.42 163.07 146.27 Z M 163.30 147.26 L 163.53 148.24 C 163.74 149.10 164.60 149.63 165.46 149.42 C 166.32 149.22 166.84 148.35 166.64 147.50 L 166.40 146.52 C 166.20 145.66 165.33 145.13 164.48 145.34 C 163.62 145.54 163.09 146.40 163.30 147.26 Z M 163.54 148.25 L 163.78 149.24 C 163.99 150.10 164.86 150.62 165.71 150.41 C 166.57 150.20 167.09 149.33 166.88 148.48 L 166.64 147.49 C 166.42 146.63 165.56 146.11 164.70 146.32 C 163.85 146.53 163.33 147.40 163.54 148.25 Z M 163.78 149.25 L 164.03 150.24 C 164.25 151.10 165.12 151.62 165.97 151.40 C 166.83 151.18 167.35 150.31 167.13 149.46 L 166.88 148.47 C 166.66 147.61 165.79 147.10 164.94 147.31 C 164.08 147.53 163.57 148.40 163.78 149.25 Z M 164.04 150.25 L 164.29 151.23 C 164.51 152.08 165.38 152.59 166.24 152.37 C 167.09 152.15 167.60 151.28 167.38 150.42 L 167.13 149.45 C 166.91 148.60 166.03 148.08 165.18 148.31 C 164.33 148.53 163.81 149.40 164.04 150.25 Z M 164.29 151.24 L 164.55 152.21 C 164.78 153.07 165.66 153.57 166.51 153.35 C 167.36 153.12 167.87 152.24 167.64 151.39 L 167.38 150.41 C 167.15 149.56 166.28 149.05 165.42 149.28 C 164.57 149.51 164.06 150.38 164.29 151.24 Z M 164.55 152.22 L 164.82 153.20 C 165.06 154.05 165.93 154.55 166.79 154.32 C 167.64 154.09 168.14 153.21 167.90 152.36 L 167.64 151.38 C 167.40 150.53 166.52 150.03 165.67 150.26 C 164.82 150.49 164.32 151.37 164.55 152.22 Z M 164.83 153.21 L 165.10 154.19 C 165.34 155.04 166.22 155.53 167.07 155.29 C 167.92 155.05 168.42 154.17 168.18 153.32 L 167.90 152.35 C 167.66 151.50 166.78 151.00 165.93 151.24 C 165.08 151.48 164.59 152.36 164.83 153.21 Z M 165.10 154.20 L 165.38 155.17 C 165.63 156.02 166.52 156.51 167.36 156.26 C 168.21 156.02 168.70 155.13 168.45 154.28 L 168.17 153.31 C 167.93 152.46 167.04 151.98 166.19 152.22 C 165.35 152.47 164.86 153.35 165.10 154.20 Z M 165.39 155.18 L 165.67 156.14 C 165.93 156.99 166.82 157.47 167.66 157.22 C 168.51 156.97 168.99 156.08 168.74 155.23 L 168.45 154.27 C 168.20 153.42 167.31 152.94 166.46 153.20 C 165.62 153.45 165.14 154.34 165.39 155.18 Z M 165.68 156.16 L 165.97 157.10 C 166.23 157.95 167.12 158.42 167.97 158.16 C 168.81 157.90 169.28 157.01 169.02 156.17 L 168.73 155.22 C 168.47 154.37 167.58 153.90 166.74 154.16 C 165.89 154.42 165.42 155.31 165.68 156.16 Z M 165.97 157.12 L 166.27 158.05 C 166.54 158.89 167.43 159.36 168.28 159.09 C 169.12 158.82 169.58 157.92 169.32 157.08 L 169.02 156.15 C 168.75 155.31 167.85 154.84 167.01 155.11 C 166.17 155.38 165.71 156.28 165.97 157.12 Z M 166.27 158.06 L 166.58 159.01 C 166.86 159.85 167.76 160.30 168.60 160.03 C 169.44 159.75 169.90 158.85 169.62 158.01 L 169.31 157.07 C 169.03 156.23 168.13 155.77 167.29 156.05 C 166.46 156.32 166.00 157.23 166.27 158.06 Z M 166.59 159.03 L 166.93 160.02 C 167.21 160.85 168.12 161.30 168.96 161.01 C 169.79 160.73 170.24 159.82 169.95 158.99 L 169.61 157.99 C 169.33 157.16 168.42 156.71 167.59 157.00 C 166.75 157.28 166.31 158.19 166.59 159.03 Z M 166.94 160.04 L 167.28 161.00 C 167.58 161.84 168.49 162.27 169.32 161.97 C 170.15 161.68 170.59 160.76 170.29 159.93 L 169.95 158.97 C 169.65 158.14 168.74 157.70 167.91 158.00 C 167.07 158.29 166.64 159.21 166.94 160.04 Z M 167.29 161.02 L 167.64 161.97 C 167.95 162.80 168.86 163.22 169.69 162.91 C 170.52 162.60 170.94 161.69 170.63 160.86 L 170.28 159.91 C 169.98 159.09 169.06 158.67 168.23 158.97 C 167.40 159.28 166.98 160.20 167.29 161.02 Z M 167.65 161.99 L 168.01 162.92 C 168.32 163.74 169.25 164.15 170.07 163.83 C 170.89 163.51 171.30 162.59 170.98 161.77 L 170.62 160.84 C 170.31 160.02 169.38 159.61 168.56 159.93 C 167.74 160.24 167.33 161.17 167.65 161.99 Z M 168.01 162.94 L 168.38 163.85 C 168.71 164.67 169.64 165.06 170.46 164.73 C 171.28 164.40 171.67 163.47 171.34 162.66 L 170.97 161.74 C 170.64 160.93 169.72 160.53 168.90 160.86 C 168.08 161.19 167.69 162.12 168.01 162.94 Z M 168.39 163.87 L 168.77 164.77 C 169.11 165.58 170.04 165.96 170.86 165.62 C 171.67 165.28 172.05 164.34 171.71 163.53 L 171.33 162.63 C 170.99 161.82 170.06 161.44 169.24 161.78 C 168.43 162.12 168.05 163.06 168.39 163.87 Z M 168.78 164.79 L 169.17 165.68 C 169.52 166.48 170.46 166.85 171.27 166.50 C 172.07 166.15 172.44 165.21 172.09 164.40 L 171.70 163.51 C 171.35 162.70 170.41 162.34 169.60 162.69 C 168.79 163.04 168.43 163.98 168.78 164.79 Z M 169.18 165.70 L 169.58 166.59 C 169.95 167.39 170.89 167.75 171.69 167.38 C 172.50 167.02 172.85 166.07 172.49 165.27 L 172.08 164.38 C 171.71 163.58 170.77 163.22 169.97 163.59 C 169.17 163.95 168.81 164.90 169.18 165.70 Z M 169.59 166.61 L 170.02 167.53 C 170.40 168.32 171.35 168.66 172.15 168.28 C 172.94 167.91 173.28 166.96 172.91 166.16 L 172.48 165.25 C 172.10 164.45 171.15 164.11 170.35 164.49 C 169.56 164.87 169.22 165.82 169.59 166.61 Z M 170.03 167.55 L 170.48 168.45 C 170.87 169.24 171.82 169.57 172.61 169.18 C 173.40 168.79 173.73 167.83 173.34 167.04 L 172.90 166.14 C 172.51 165.35 171.55 165.02 170.76 165.41 C 169.97 165.80 169.65 166.76 170.03 167.55 Z M 170.49 168.47 L 170.94 169.37 C 171.34 170.15 172.30 170.46 173.09 170.06 C 173.87 169.66 174.19 168.70 173.79 167.92 L 173.33 167.02 C 172.93 166.24 171.97 165.93 171.19 166.33 C 170.40 166.73 170.09 167.69 170.49 168.47 Z M 170.95 169.39 L 171.42 170.27 C 171.83 171.05 172.79 171.35 173.57 170.94 C 174.35 170.53 174.65 169.57 174.24 168.79 L 173.78 167.90 C 173.37 167.12 172.40 166.82 171.62 167.23 C 170.84 167.64 170.54 168.61 170.95 169.39 Z M 171.43 170.29 L 171.90 171.17 C 172.33 171.94 173.29 172.23 174.07 171.81 C 174.84 171.39 175.13 170.42 174.71 169.64 L 174.23 168.77 C 173.81 167.99 172.84 167.71 172.07 168.13 C 171.30 168.55 171.01 169.52 171.43 170.29 Z M 171.91 171.19 L 172.40 172.05 C 172.83 172.82 173.80 173.10 174.57 172.67 C 175.34 172.23 175.62 171.26 175.19 170.49 L 174.70 169.63 C 174.27 168.86 173.30 168.58 172.53 169.01 C 171.76 169.44 171.48 170.42 171.91 171.19 Z M 172.41 172.07 L 172.90 172.93 C 173.34 173.69 174.32 173.95 175.08 173.51 C 175.85 173.07 176.11 172.10 175.67 171.33 L 175.18 170.48 C 174.74 169.71 173.76 169.45 173.00 169.89 C 172.23 170.33 171.97 171.31 172.41 172.07 Z M 172.91 172.94 L 173.43 173.82 C 173.88 174.58 174.86 174.83 175.62 174.38 C 176.38 173.93 176.63 172.95 176.18 172.19 L 175.66 171.31 C 175.21 170.55 174.23 170.30 173.47 170.75 C 172.71 171.20 172.46 172.18 172.91 172.94 Z M 173.44 173.84 L 173.97 174.71 C 174.43 175.46 175.41 175.70 176.17 175.24 C 176.92 174.78 177.16 173.79 176.70 173.04 L 176.17 172.17 C 175.71 171.42 174.73 171.18 173.97 171.64 C 173.22 172.10 172.98 173.08 173.44 173.84 Z M 173.98 174.73 L 174.52 175.58 C 174.99 176.33 175.98 176.55 176.73 176.08 C 177.47 175.61 177.70 174.63 177.23 173.88 L 176.69 173.02 C 176.22 172.27 175.23 172.05 174.48 172.52 C 173.74 172.99 173.51 173.98 173.98 174.73 Z M 174.53 175.60 L 175.08 176.44 C 175.56 177.18 176.55 177.40 177.29 176.91 C 178.03 176.43 178.24 175.44 177.76 174.70 L 177.22 173.86 C 176.74 173.12 175.74 172.91 175.00 173.39 C 174.26 173.87 174.05 174.86 174.53 175.60 Z M 175.09 176.46 L 175.64 177.29 C 176.14 178.02 177.13 178.22 177.87 177.73 C 178.60 177.24 178.80 176.24 178.30 175.51 L 177.75 174.68 C 177.26 173.95 176.26 173.75 175.53 174.24 C 174.79 174.73 174.60 175.73 175.09 176.46 Z M 175.66 177.31 L 176.22 178.12 C 176.72 178.85 177.72 179.03 178.45 178.53 C 179.18 178.02 179.36 177.02 178.85 176.30 L 178.29 175.49 C 177.79 174.76 176.79 174.58 176.06 175.08 C 175.33 175.59 175.15 176.58 175.66 177.31 Z M 176.23 178.14 L 176.80 178.94 C 177.32 179.66 178.32 179.82 179.04 179.31 C 179.76 178.79 179.92 177.79 179.41 177.07 L 178.84 176.28 C 178.32 175.56 177.32 175.39 176.60 175.91 C 175.88 176.42 175.72 177.42 176.23 178.14 Z M 176.82 178.96 L 177.42 179.77 C 177.95 180.48 178.95 180.63 179.66 180.10 C 180.37 179.57 180.52 178.57 179.99 177.86 L 179.39 177.05 C 178.86 176.34 177.86 176.19 177.15 176.72 C 176.44 177.24 176.29 178.25 176.82 178.96 Z M 177.44 179.79 L 178.07 180.61 C 178.61 181.31 179.61 181.44 180.31 180.90 C 181.02 180.36 181.15 179.35 180.61 178.65 L 179.98 177.83 C 179.44 177.13 178.43 177.00 177.73 177.54 C 177.03 178.08 176.90 179.09 177.44 179.79 Z M 178.08 180.63 L 178.72 181.43 C 179.27 182.12 180.28 182.23 180.97 181.68 C 181.66 181.13 181.78 180.12 181.22 179.43 L 180.59 178.63 C 180.04 177.94 179.03 177.82 178.34 178.38 C 177.64 178.93 177.53 179.94 178.08 180.63 Z M 178.73 181.45 L 179.37 182.22 C 179.94 182.91 180.95 183.00 181.63 182.44 C 182.31 181.88 182.41 180.87 181.85 180.18 L 181.21 179.41 C 180.64 178.72 179.63 178.63 178.95 179.19 C 178.27 179.75 178.17 180.76 178.73 181.45 Z M 179.39 182.24 L 180.03 183.00 C 180.61 183.67 181.62 183.75 182.29 183.18 C 182.97 182.61 183.05 181.59 182.47 180.92 L 181.83 180.16 C 181.26 179.49 180.25 179.41 179.57 179.98 C 178.90 180.56 178.82 181.57 179.39 182.24 Z M 180.05 183.01 L 180.69 183.75 C 181.28 184.41 182.29 184.48 182.95 183.90 C 183.62 183.32 183.69 182.30 183.10 181.64 L 182.46 180.90 C 181.88 180.24 180.86 180.17 180.20 180.75 C 179.53 181.34 179.47 182.35 180.05 183.01 Z M 180.71 183.76 L 181.35 184.48 C 181.94 185.14 182.95 185.19 183.61 184.60 C 184.27 184.01 184.32 182.99 183.73 182.34 L 183.09 181.62 C 182.50 180.96 181.48 180.91 180.83 181.50 C 180.17 182.09 180.12 183.11 180.71 183.76 Z M 181.36 184.49 L 182.07 185.26 C 182.67 185.91 183.68 185.95 184.33 185.35 C 184.98 184.75 185.02 183.73 184.42 183.08 L 183.72 182.32 C 183.12 181.67 182.10 181.63 181.45 182.23 C 180.80 182.83 180.76 183.84 181.36 184.49 Z M 182.09 185.27 L 182.80 186.02 C 183.41 186.66 184.42 186.69 185.06 186.08 C 185.70 185.47 185.73 184.46 185.12 183.82 L 184.41 183.07 C 183.80 182.43 182.78 182.40 182.14 183.01 C 181.50 183.62 181.48 184.63 182.09 185.27 Z M 182.82 186.04 L 183.53 186.77 C 184.14 187.40 185.15 187.41 185.79 186.79 C 186.42 186.17 186.43 185.16 185.81 184.53 L 185.10 183.80 C 184.49 183.17 183.47 183.16 182.84 183.78 C 182.21 184.40 182.20 185.41 182.82 186.04 Z M 183.54 186.78 L 184.25 187.48 C 184.87 188.10 185.88 188.10 186.51 187.48 C 187.13 186.85 187.13 185.84 186.50 185.22 L 185.80 184.52 C 185.17 183.89 184.16 183.90 183.54 184.52 C 182.91 185.15 182.92 186.16 183.54 186.78 Z M 184.26 187.50 L 184.96 188.17 C 185.60 188.78 186.61 188.77 187.22 188.13 C 187.83 187.50 187.81 186.49 187.18 185.87 L 186.48 185.20 C 185.85 184.59 184.84 184.61 184.22 185.24 C 183.61 185.87 183.63 186.88 184.26 187.50 Z M 184.98 188.19 L 185.67 188.83 C 186.31 189.44 187.32 189.41 187.93 188.76 C 188.53 188.12 188.50 187.11 187.85 186.51 L 187.16 185.86 C 186.52 185.26 185.51 185.29 184.91 185.93 C 184.30 186.57 184.34 187.58 184.98 188.19 Z M 185.69 188.85 L 186.44 189.54 C 187.10 190.13 188.10 190.08 188.70 189.43 C 189.29 188.78 189.24 187.77 188.59 187.18 L 187.83 186.49 C 187.18 185.90 186.17 185.95 185.58 186.60 C 184.99 187.25 185.04 188.26 185.69 188.85 Z M 186.46 189.55 L 187.23 190.22 C 187.89 190.80 188.89 190.74 189.47 190.08 C 190.05 189.42 189.99 188.41 189.33 187.83 L 188.57 187.16 C 187.91 186.58 186.90 186.65 186.32 187.31 C 185.74 187.97 185.81 188.97 186.46 189.55 Z M 187.25 190.24 L 188.01 190.88 C 188.67 191.45 189.68 191.37 190.25 190.71 C 190.82 190.04 190.74 189.03 190.07 188.46 L 189.31 187.82 C 188.64 187.25 187.64 187.33 187.07 188.00 C 186.50 188.66 186.58 189.67 187.25 190.24 Z M 188.02 190.90 L 188.78 191.53 C 189.46 192.08 190.46 191.99 191.02 191.32 C 191.58 190.64 191.48 189.64 190.81 189.08 L 190.05 188.45 C 189.37 187.89 188.37 187.99 187.81 188.66 C 187.26 189.34 187.35 190.34 188.02 190.90 Z M 188.80 191.54 L 189.56 192.15 C 190.24 192.70 191.24 192.60 191.79 191.92 C 192.34 191.24 192.24 190.24 191.56 189.69 L 190.79 189.07 C 190.11 188.52 189.11 188.63 188.56 189.31 C 188.01 189.99 188.12 190.99 188.80 191.54 Z M 189.58 192.16 L 190.38 192.79 C 191.06 193.33 192.06 193.22 192.60 192.53 C 193.14 191.85 193.02 190.85 192.34 190.31 L 191.54 189.68 C 190.85 189.14 189.86 189.25 189.32 189.94 C 188.77 190.62 188.89 191.62 189.58 192.16 Z M 190.39 192.80 L 191.22 193.44 C 191.91 193.98 192.90 193.85 193.44 193.16 C 193.97 192.47 193.84 191.47 193.15 190.94 L 192.32 190.30 C 191.63 189.77 190.64 189.89 190.11 190.58 C 189.57 191.27 189.70 192.27 190.39 192.80 Z M 191.23 193.45 L 192.05 194.07 C 192.75 194.60 193.74 194.46 194.27 193.76 C 194.79 193.07 194.65 192.08 193.96 191.55 L 193.14 190.93 C 192.44 190.40 191.45 190.54 190.92 191.24 C 190.40 191.93 190.54 192.92 191.23 193.45 Z M 192.07 194.08 L 192.87 194.67 C 193.57 195.19 194.56 195.04 195.08 194.34 C 195.59 193.64 195.45 192.65 194.74 192.13 L 193.94 191.54 C 193.24 191.02 192.25 191.17 191.73 191.87 C 191.22 192.58 191.37 193.56 192.07 194.08 Z M 192.89 194.68 L 193.66 195.24 C 194.37 195.74 195.35 195.58 195.86 194.87 C 196.37 194.16 196.20 193.18 195.50 192.67 L 194.72 192.12 C 194.02 191.61 193.03 191.78 192.53 192.49 C 192.02 193.19 192.18 194.18 192.89 194.68 Z M 193.69 195.25 L 194.52 195.83 C 195.24 196.32 196.22 196.14 196.71 195.42 C 197.20 194.71 197.02 193.73 196.31 193.23 L 195.47 192.66 C 194.76 192.17 193.78 192.35 193.28 193.06 C 192.79 193.78 192.97 194.76 193.69 195.25 Z M 194.56 195.85 L 195.43 196.42 C 196.16 196.89 197.14 196.69 197.61 195.96 C 198.08 195.23 197.88 194.26 197.15 193.78 L 196.27 193.21 C 195.55 192.74 194.57 192.95 194.10 193.67 C 193.62 194.40 193.83 195.37 194.56 195.85 Z M 195.48 196.44 L 196.31 196.95 C 197.05 197.40 198.02 197.16 198.47 196.42 C 198.92 195.68 198.68 194.72 197.94 194.27 L 197.11 193.76 C 196.36 193.31 195.40 193.55 194.95 194.29 C 194.50 195.03 194.74 195.99 195.48 196.44 Z M 196.36 196.98 L 197.18 197.43 C 197.94 197.86 198.89 197.59 199.31 196.83 C 199.74 196.08 199.47 195.12 198.71 194.70 L 197.89 194.24 C 197.14 193.82 196.18 194.09 195.76 194.84 C 195.34 195.60 195.61 196.55 196.36 196.98 Z M 197.23 197.46 L 198.09 197.90 C 198.86 198.30 199.80 197.99 200.20 197.23 C 200.59 196.46 200.29 195.51 199.52 195.12 L 198.66 194.68 C 197.89 194.28 196.95 194.58 196.56 195.35 C 196.16 196.12 196.46 197.06 197.23 197.46 Z M 198.14 197.92 L 199.03 198.35 C 199.81 198.72 200.75 198.39 201.12 197.61 C 201.49 196.83 201.16 195.90 200.38 195.53 L 199.48 195.10 C 198.70 194.73 197.77 195.06 197.40 195.84 C 197.03 196.62 197.36 197.55 198.14 197.92 Z M 199.06 198.36 L 199.98 198.77 C 200.76 199.13 201.69 198.78 202.04 197.99 C 202.40 197.20 202.05 196.28 201.26 195.93 L 200.35 195.51 C 199.56 195.16 198.64 195.51 198.28 196.30 C 197.93 197.08 198.28 198.01 199.06 198.36 Z M 200.00 198.78 L 200.92 199.18 C 201.71 199.53 202.63 199.17 202.98 198.38 C 203.32 197.59 202.96 196.67 202.17 196.32 L 201.24 195.92 C 200.45 195.57 199.53 195.94 199.19 196.73 C 198.84 197.52 199.21 198.44 200.00 198.78 Z M 200.93 199.19 L 201.84 199.58 C 202.63 199.92 203.55 199.55 203.89 198.76 C 204.23 197.97 203.86 197.05 203.07 196.71 L 202.16 196.32 C 201.37 195.98 200.45 196.35 200.11 197.14 C 199.77 197.93 200.14 198.85 200.93 199.19 Z M 201.85 199.58 L 202.77 199.97 C 203.56 200.30 204.48 199.93 204.81 199.14 C 205.15 198.34 204.78 197.43 203.98 197.09 L 203.06 196.70 C 202.27 196.37 201.35 196.74 201.02 197.54 C 200.68 198.33 201.05 199.25 201.85 199.58 Z M 202.78 199.97 L 203.71 200.36 C 204.51 200.68 205.42 200.30 205.75 199.51 C 206.08 198.71 205.70 197.80 204.90 197.47 L 203.97 197.09 C 203.17 196.76 202.26 197.14 201.93 197.94 C 201.60 198.73 201.98 199.65 202.78 199.97 Z M 203.73 200.36 L 204.66 200.74 C 205.46 201.05 206.37 200.66 206.69 199.86 C 207.01 199.06 206.62 198.16 205.82 197.84 L 204.88 197.46 C 204.08 197.14 203.17 197.53 202.85 198.33 C 202.53 199.13 202.92 200.04 203.73 200.36 Z M 204.67 200.74 L 205.60 201.10 C 206.40 201.41 207.31 201.01 207.62 200.21 C 207.93 199.40 207.53 198.50 206.73 198.19 L 205.80 197.83 C 205.00 197.52 204.09 197.92 203.78 198.72 C 203.47 199.53 203.87 200.43 204.67 200.74 Z M 205.61 201.10 L 206.55 201.46 C 207.35 201.76 208.25 201.35 208.56 200.54 C 208.86 199.74 208.45 198.84 207.65 198.53 L 206.71 198.18 C 205.91 197.88 205.00 198.29 204.70 199.09 C 204.40 199.90 204.81 200.80 205.61 201.10 Z M 206.56 201.46 L 207.50 201.81 C 208.31 202.11 209.21 201.69 209.51 200.88 C 209.80 200.07 209.39 199.18 208.58 198.88 L 207.64 198.53 C 206.83 198.23 205.93 198.65 205.63 199.45 C 205.33 200.26 205.75 201.16 206.56 201.46 Z M 207.51 201.81 L 208.40 202.13 C 209.21 202.43 210.10 202.01 210.40 201.20 C 210.69 200.39 210.28 199.50 209.47 199.20 L 208.57 198.88 C 207.76 198.58 206.87 199.00 206.57 199.81 C 206.28 200.62 206.70 201.51 207.51 201.81 Z M 208.41 202.14 L 209.25 202.44 C 210.07 202.73 210.96 202.30 211.25 201.49 C 211.54 200.68 211.11 199.79 210.30 199.50 L 209.46 199.20 C 208.64 198.91 207.75 199.33 207.46 200.14 C 207.17 200.96 207.60 201.85 208.41 202.14 Z M 209.27 202.45 L 210.17 202.75 C 210.99 203.03 211.88 202.60 212.16 201.78 C 212.43 200.96 212.00 200.08 211.18 199.80 L 210.28 199.49 C 209.46 199.21 208.58 199.65 208.30 200.46 C 208.02 201.28 208.46 202.17 209.27 202.45 Z M 210.20 202.76 L 211.19 203.08 C 212.02 203.34 212.89 202.89 213.16 202.07 C 213.42 201.25 212.97 200.37 212.15 200.11 L 211.15 199.79 C 210.33 199.53 209.45 199.98 209.19 200.80 C 208.93 201.62 209.38 202.50 210.20 202.76 Z M 211.22 203.09 L 212.34 203.42 C 213.17 203.67 214.04 203.20 214.28 202.37 C 214.53 201.55 214.06 200.68 213.23 200.43 L 212.12 200.10 C 211.29 199.85 210.42 200.32 210.18 201.15 C 209.93 201.97 210.40 202.84 211.22 203.09 Z M 212.37 203.43 L 213.26 203.68 C 214.09 203.91 214.95 203.43 215.18 202.60 C 215.41 201.77 214.93 200.90 214.10 200.67 L 213.21 200.42 C 212.38 200.19 211.52 200.68 211.28 201.51 C 211.05 202.34 211.54 203.20 212.37 203.43 Z M 213.28 203.68 L 214.23 203.94 C 215.06 204.16 215.92 203.66 216.14 202.83 C 216.36 201.99 215.86 201.14 215.03 200.92 L 214.08 200.67 C 213.24 200.45 212.39 200.94 212.17 201.78 C 211.95 202.61 212.44 203.46 213.28 203.68 Z M 214.25 203.94 L 215.24 204.19 C 216.08 204.40 216.93 203.89 217.13 203.05 C 217.34 202.22 216.84 201.37 216.00 201.16 L 215.01 200.91 C 214.17 200.70 213.32 201.21 213.11 202.05 C 212.90 202.89 213.41 203.73 214.25 203.94 Z M 215.26 204.20 L 216.27 204.43 C 217.11 204.63 217.95 204.11 218.15 203.27 C 218.35 202.43 217.83 201.59 216.99 201.39 L 215.98 201.16 C 215.14 200.96 214.30 201.48 214.10 202.32 C 213.90 203.16 214.42 204.00 215.26 204.20 Z M 216.30 204.44 L 217.31 204.66 C 218.15 204.84 218.98 204.30 219.17 203.46 C 219.35 202.62 218.81 201.79 217.97 201.60 L 216.96 201.39 C 216.12 201.20 215.29 201.74 215.10 202.58 C 214.92 203.42 215.46 204.26 216.30 204.44 Z M 217.34 204.66 L 218.33 204.86 C 219.17 205.02 219.99 204.47 220.16 203.62 C 220.32 202.78 219.77 201.96 218.93 201.79 L 217.94 201.60 C 217.09 201.43 216.27 201.98 216.11 202.83 C 215.94 203.68 216.49 204.50 217.34 204.66 Z M 218.37 204.86 L 219.47 205.05 C 220.32 205.19 221.12 204.62 221.27 203.77 C 221.41 202.92 220.84 202.11 219.99 201.97 L 218.88 201.78 C 218.03 201.64 217.23 202.21 217.09 203.06 C 216.94 203.92 217.52 204.72 218.37 204.86 Z M 219.52 205.06 L 220.60 205.20 C 221.45 205.31 222.24 204.71 222.35 203.86 C 222.47 203.00 221.87 202.22 221.01 202.10 L 219.93 201.96 C 219.08 201.85 218.29 202.45 218.18 203.30 C 218.07 204.16 218.67 204.94 219.52 205.06 Z M 220.66 205.21 L 221.67 205.30 C 222.53 205.39 223.29 204.76 223.37 203.90 C 223.45 203.04 222.82 202.28 221.96 202.20 L 220.95 202.10 C 220.10 202.02 219.33 202.64 219.25 203.50 C 219.17 204.36 219.80 205.12 220.66 205.21 Z M 221.73 205.31 L 222.68 205.36 C 223.54 205.41 224.27 204.75 224.32 203.89 C 224.37 203.03 223.71 202.29 222.85 202.24 L 221.90 202.19 C 221.04 202.14 220.30 202.80 220.26 203.66 C 220.21 204.52 220.87 205.26 221.73 205.31 Z M 222.75 205.36 L 223.63 205.37 C 224.49 205.38 225.19 204.69 225.20 203.82 C 225.21 202.96 224.52 202.26 223.66 202.25 L 222.78 202.24 C 221.91 202.23 221.21 202.92 221.20 203.79 C 221.19 204.65 221.88 205.35 222.75 205.36 Z M 223.72 205.37 L 224.74 205.32 C 225.60 205.28 226.27 204.54 226.22 203.68 C 226.18 202.82 225.45 202.16 224.59 202.20 L 223.57 202.25 C 222.70 202.29 222.04 203.02 222.08 203.89 C 222.13 204.75 222.86 205.41 223.72 205.37 Z M 224.90 205.30 L 225.92 205.14 C 226.77 205.01 227.35 204.21 227.22 203.36 C 227.09 202.51 226.29 201.93 225.44 202.06 L 224.42 202.22 C 223.57 202.35 222.99 203.15 223.12 204.00 C 223.25 204.85 224.05 205.43 224.90 205.30 Z M 226.18 205.08 L 227.08 204.77 C 227.90 204.49 228.34 203.61 228.06 202.79 C 227.78 201.98 226.90 201.54 226.08 201.82 L 225.18 202.12 C 224.36 202.40 223.92 203.29 224.20 204.10 C 224.48 204.92 225.37 205.36 226.18 205.08 Z M 227.41 204.62 L 228.20 204.12 C 228.94 203.66 229.16 202.70 228.70 201.97 C 228.24 201.24 227.27 201.02 226.54 201.47 L 225.75 201.97 C 225.02 202.43 224.80 203.39 225.26 204.12 C 225.72 204.85 226.68 205.07 227.41 204.62 Z M 228.50 203.88 L 229.18 203.17 C 229.78 202.55 229.76 201.56 229.14 200.96 C 228.52 200.37 227.53 200.38 226.93 201.00 L 226.25 201.71 C 225.65 202.33 225.67 203.32 226.29 203.92 C 226.91 204.52 227.90 204.50 228.50 203.88 Z M 229.35 202.96 L 229.92 202.10 C 230.40 201.39 230.21 200.42 229.50 199.94 C 228.78 199.46 227.81 199.65 227.33 200.37 L 226.76 201.22 C 226.28 201.94 226.47 202.91 227.19 203.39 C 227.91 203.87 228.87 203.67 229.35 202.96 Z M 230.02 201.93 L 230.48 201.03 C 230.86 200.25 230.55 199.32 229.78 198.93 C 229.01 198.55 228.07 198.86 227.68 199.63 L 227.23 200.54 C 226.85 201.31 227.16 202.25 227.93 202.63 C 228.70 203.02 229.64 202.71 230.02 201.93 Z M 230.54 200.87 L 230.90 199.92 C 231.20 199.12 230.79 198.22 229.98 197.92 C 229.18 197.61 228.28 198.02 227.97 198.83 L 227.62 199.78 C 227.32 200.59 227.73 201.49 228.53 201.79 C 229.34 202.09 230.24 201.68 230.54 200.87 Z M 230.95 199.76 L 231.21 198.73 C 231.42 197.90 230.91 197.05 230.08 196.84 C 229.24 196.63 228.39 197.14 228.18 197.97 L 227.92 199.00 C 227.71 199.83 228.22 200.68 229.06 200.89 C 229.89 201.10 230.74 200.59 230.95 199.76 Z M 231.24 198.58 L 231.38 197.65 C 231.50 196.80 230.92 196.00 230.06 195.88 C 229.21 195.75 228.42 196.34 228.29 197.19 L 228.15 198.12 C 228.02 198.98 228.61 199.77 229.47 199.90 C 230.32 200.02 231.11 199.44 231.24 198.58 Z M 231.39 197.59 L 231.44 197.12 C 231.53 196.26 230.91 195.49 230.05 195.40 C 229.20 195.30 228.43 195.92 228.33 196.78 L 228.28 197.25 C 228.19 198.11 228.81 198.88 229.66 198.97 C 230.52 199.07 231.29 198.45 231.39 197.59 Z"
      fill="black"
      fill-rule="nonzero" /><path d="M 157.29 104.42 L 156.52 105.03 C 155.82 105.57 155.70 106.57 156.24 107.26 C 156.78 107.96 157.79 108.08 158.48 107.54 L 159.25 106.93 C 159.95 106.39 160.07 105.39 159.53 104.69 C 158.98 104.00 157.98 103.88 157.29 104.42 Z M 156.49 105.04 L 155.73 105.66 C 155.04 106.21 154.93 107.22 155.49 107.90 C 156.04 108.59 157.05 108.70 157.73 108.14 L 158.50 107.52 C 159.19 106.97 159.30 105.96 158.74 105.28 C 158.19 104.59 157.18 104.48 156.49 105.04 Z M 155.69 105.68 L 154.93 106.33 C 154.26 106.91 154.18 107.92 154.76 108.59 C 155.33 109.26 156.34 109.34 157.02 108.76 L 157.77 108.12 C 158.44 107.54 158.52 106.53 157.95 105.86 C 157.37 105.19 156.36 105.11 155.69 105.68 Z M 154.88 106.38 L 154.14 107.07 C 153.49 107.67 153.46 108.69 154.06 109.34 C 154.67 109.98 155.68 110.02 156.33 109.41 L 157.07 108.72 C 157.72 108.12 157.75 107.10 157.15 106.45 C 156.54 105.80 155.53 105.77 154.88 106.38 Z M 154.07 107.13 L 153.36 107.87 C 152.75 108.51 152.77 109.53 153.41 110.14 C 154.05 110.76 155.07 110.74 155.69 110.10 L 156.40 109.35 C 157.01 108.71 156.99 107.69 156.35 107.08 C 155.71 106.46 154.69 106.49 154.07 107.13 Z M 153.30 107.93 L 152.63 108.71 C 152.05 109.39 152.13 110.41 152.81 110.99 C 153.48 111.57 154.50 111.49 155.08 110.81 L 155.75 110.03 C 156.33 109.36 156.25 108.34 155.57 107.76 C 154.90 107.18 153.88 107.25 153.30 107.93 Z M 152.58 108.77 L 151.95 109.58 C 151.40 110.28 151.52 111.30 152.23 111.85 C 152.94 112.40 153.95 112.27 154.50 111.57 L 155.13 110.76 C 155.68 110.05 155.56 109.03 154.85 108.48 C 154.14 107.93 153.13 108.06 152.58 108.77 Z M 151.90 109.63 L 151.32 110.45 C 150.79 111.18 150.96 112.20 151.69 112.72 C 152.43 113.24 153.44 113.07 153.96 112.34 L 154.55 111.52 C 155.07 110.79 154.90 109.77 154.17 109.25 C 153.44 108.73 152.42 108.90 151.90 109.63 Z M 151.28 110.50 L 150.75 111.30 C 150.25 112.06 150.46 113.07 151.21 113.56 C 151.97 114.06 152.98 113.85 153.47 113.10 L 154.00 112.29 C 154.50 111.54 154.29 110.52 153.53 110.03 C 152.78 109.53 151.77 109.74 151.28 110.50 Z M 150.71 111.36 L 150.19 112.22 C 149.72 113.00 149.98 114.00 150.75 114.47 C 151.52 114.93 152.53 114.68 152.99 113.90 L 153.51 113.04 C 153.98 112.27 153.73 111.26 152.95 110.80 C 152.18 110.33 151.17 110.58 150.71 111.36 Z M 150.15 112.28 L 149.67 113.17 C 149.24 113.97 149.54 114.96 150.33 115.39 C 151.13 115.82 152.12 115.52 152.55 114.73 L 153.03 113.84 C 153.46 113.05 153.17 112.05 152.37 111.62 C 151.57 111.19 150.58 111.49 150.15 112.28 Z M 149.64 113.23 L 149.21 114.11 C 148.82 114.92 149.16 115.90 149.97 116.30 C 150.79 116.69 151.77 116.35 152.16 115.54 L 152.59 114.67 C 152.98 113.85 152.64 112.87 151.83 112.47 C 151.02 112.08 150.03 112.42 149.64 113.23 Z M 149.19 114.15 L 148.79 115.05 C 148.42 115.87 148.79 116.84 149.62 117.21 C 150.45 117.58 151.42 117.21 151.79 116.39 L 152.19 115.49 C 152.56 114.67 152.19 113.69 151.36 113.32 C 150.53 112.95 149.56 113.32 149.19 114.15 Z M 148.78 115.07 L 148.41 115.93 C 148.05 116.76 148.44 117.73 149.28 118.08 C 150.11 118.44 151.08 118.05 151.43 117.22 L 151.80 116.36 C 152.16 115.53 151.77 114.56 150.93 114.21 C 150.10 113.85 149.13 114.24 148.78 115.07 Z M 148.41 115.94 L 148.05 116.79 C 147.70 117.63 148.09 118.59 148.93 118.94 C 149.77 119.29 150.73 118.90 151.08 118.06 L 151.44 117.21 C 151.79 116.37 151.39 115.40 150.56 115.05 C 149.72 114.70 148.76 115.10 148.41 115.94 Z M 148.04 116.80 L 147.67 117.71 C 147.32 118.55 147.73 119.51 148.57 119.86 C 149.41 120.20 150.37 119.80 150.71 118.96 L 151.09 118.05 C 151.43 117.21 151.03 116.25 150.19 115.90 C 149.35 115.56 148.39 115.96 148.04 116.80 Z M 147.67 117.72 L 147.27 118.69 C 146.93 119.53 147.34 120.49 148.18 120.83 C 149.02 121.17 149.98 120.77 150.33 119.92 L 150.72 118.95 C 151.06 118.11 150.65 117.15 149.81 116.81 C 148.97 116.47 148.01 116.87 147.67 117.72 Z M 147.27 118.69 L 146.86 119.72 C 146.52 120.57 146.93 121.53 147.77 121.87 C 148.62 122.21 149.58 121.80 149.92 120.95 L 150.33 119.92 C 150.67 119.07 150.26 118.11 149.41 117.77 C 148.57 117.44 147.61 117.85 147.27 118.69 Z M 146.85 119.73 L 146.51 120.59 C 146.17 121.44 146.58 122.39 147.43 122.73 C 148.28 123.07 149.24 122.66 149.57 121.81 L 149.92 120.95 C 150.25 120.10 149.84 119.14 149.00 118.81 C 148.15 118.47 147.19 118.88 146.85 119.73 Z M 146.51 120.59 L 146.16 121.49 C 145.82 122.33 146.24 123.29 147.08 123.62 C 147.93 123.96 148.89 123.54 149.22 122.70 L 149.57 121.81 C 149.91 120.96 149.49 120.00 148.65 119.67 C 147.80 119.33 146.84 119.75 146.51 120.59 Z M 146.16 121.49 L 145.79 122.42 C 145.46 123.26 145.88 124.22 146.73 124.55 C 147.57 124.88 148.53 124.46 148.86 123.62 L 149.22 122.69 C 149.55 121.85 149.13 120.89 148.29 120.56 C 147.44 120.23 146.49 120.65 146.16 121.49 Z M 145.79 122.42 L 145.43 123.38 C 145.10 124.22 145.52 125.18 146.37 125.50 C 147.22 125.83 148.17 125.41 148.49 124.56 L 148.86 123.61 C 149.19 122.76 148.77 121.81 147.92 121.48 C 147.07 121.16 146.12 121.58 145.79 122.42 Z M 145.42 123.39 L 145.05 124.36 C 144.73 125.21 145.16 126.16 146.01 126.48 C 146.86 126.80 147.80 126.37 148.13 125.53 L 148.50 124.55 C 148.82 123.70 148.39 122.75 147.54 122.43 C 146.69 122.11 145.74 122.54 145.42 123.39 Z M 145.05 124.37 L 144.68 125.37 C 144.37 126.22 144.80 127.16 145.65 127.48 C 146.50 127.79 147.44 127.36 147.76 126.51 L 148.13 125.51 C 148.44 124.66 148.01 123.72 147.16 123.41 C 146.31 123.09 145.37 123.52 145.05 124.37 Z M 144.68 125.38 L 144.35 126.28 C 144.04 127.13 144.48 128.07 145.34 128.38 C 146.19 128.69 147.13 128.25 147.44 127.40 L 147.76 126.50 C 148.07 125.65 147.63 124.71 146.78 124.40 C 145.93 124.09 144.99 124.53 144.68 125.38 Z M 144.35 126.29 L 144.02 127.20 C 143.72 128.05 144.16 128.99 145.02 129.29 C 145.87 129.60 146.81 129.16 147.11 128.30 L 147.44 127.39 C 147.74 126.54 147.30 125.60 146.45 125.29 C 145.59 124.99 144.66 125.43 144.35 126.29 Z M 144.02 127.20 L 143.69 128.13 C 143.39 128.98 143.83 129.92 144.69 130.22 C 145.54 130.53 146.48 130.08 146.78 129.23 L 147.11 128.30 C 147.42 127.45 146.97 126.51 146.12 126.21 C 145.27 125.90 144.33 126.35 144.02 127.20 Z M 143.69 128.13 L 143.36 129.07 C 143.05 129.92 143.50 130.86 144.35 131.16 C 145.20 131.47 146.14 131.02 146.44 130.17 L 146.78 129.23 C 147.09 128.38 146.64 127.44 145.79 127.13 C 144.94 126.83 144.00 127.27 143.69 128.13 Z M 143.36 129.06 L 143.01 130.02 C 142.71 130.87 143.15 131.81 144.00 132.12 C 144.85 132.42 145.79 131.98 146.10 131.13 L 146.44 130.18 C 146.75 129.32 146.31 128.39 145.46 128.08 C 144.61 127.77 143.67 128.21 143.36 129.06 Z M 143.02 130.01 L 142.66 130.98 C 142.35 131.83 142.78 132.77 143.63 133.08 C 144.48 133.40 145.42 132.96 145.73 132.11 L 146.09 131.14 C 146.41 130.29 145.97 129.35 145.12 129.04 C 144.27 128.72 143.33 129.16 143.02 130.01 Z M 142.66 130.97 L 142.31 131.92 C 141.99 132.77 142.41 133.71 143.26 134.03 C 144.10 134.35 145.05 133.92 145.37 133.08 L 145.73 132.13 C 146.05 131.28 145.62 130.34 144.78 130.02 C 143.93 129.70 142.98 130.12 142.66 130.97 Z M 142.31 131.91 L 141.97 132.79 C 141.64 133.63 142.06 134.58 142.90 134.91 C 143.74 135.24 144.69 134.82 145.02 133.97 L 145.36 133.09 C 145.69 132.25 145.27 131.30 144.43 130.97 C 143.59 130.64 142.64 131.06 142.31 131.91 Z M 141.97 132.78 L 141.62 133.68 C 141.28 134.52 141.69 135.47 142.53 135.80 C 143.37 136.14 144.32 135.72 144.66 134.89 L 145.01 133.99 C 145.35 133.15 144.94 132.20 144.10 131.86 C 143.26 131.53 142.31 131.94 141.97 132.78 Z M 141.62 133.66 L 141.25 134.58 C 140.91 135.41 141.31 136.37 142.15 136.71 C 142.99 137.05 143.94 136.65 144.28 135.81 L 144.65 134.90 C 144.99 134.06 144.59 133.11 143.75 132.77 C 142.92 132.43 141.96 132.83 141.62 133.66 Z M 141.26 134.56 L 140.87 135.49 C 140.53 136.32 140.92 137.28 141.75 137.62 C 142.59 137.97 143.54 137.58 143.89 136.74 L 144.27 135.82 C 144.62 134.99 144.23 134.03 143.39 133.68 C 142.56 133.34 141.60 133.73 141.26 134.56 Z M 140.88 135.48 L 140.48 136.41 C 140.13 137.24 140.51 138.20 141.34 138.56 C 142.17 138.91 143.13 138.52 143.49 137.69 L 143.88 136.76 C 144.24 135.93 143.85 134.97 143.02 134.61 C 142.19 134.26 141.23 134.65 140.88 135.48 Z M 140.49 136.40 L 140.07 137.35 C 139.72 138.18 140.09 139.14 140.92 139.50 C 141.75 139.86 142.71 139.48 143.07 138.65 L 143.48 137.70 C 143.84 136.88 143.46 135.92 142.63 135.56 C 141.81 135.20 140.85 135.58 140.49 136.40 Z M 140.08 137.34 L 139.65 138.30 C 139.29 139.13 139.66 140.09 140.48 140.45 C 141.31 140.82 142.27 140.45 142.63 139.62 L 143.06 138.66 C 143.43 137.84 143.05 136.88 142.23 136.51 C 141.41 136.15 140.45 136.52 140.08 137.34 Z M 139.66 138.29 L 139.25 139.19 C 138.88 140.01 139.25 140.97 140.07 141.34 C 140.89 141.71 141.85 141.35 142.22 140.53 L 142.63 139.63 C 143.00 138.81 142.64 137.85 141.82 137.48 C 141.00 137.11 140.03 137.47 139.66 138.29 Z M 139.26 139.18 L 138.86 140.05 C 138.48 140.87 138.84 141.84 139.66 142.22 C 140.47 142.59 141.44 142.23 141.82 141.42 L 142.22 140.54 C 142.60 139.72 142.24 138.75 141.42 138.38 C 140.60 138.00 139.64 138.36 139.26 139.18 Z M 138.86 140.04 L 138.45 140.93 C 138.06 141.74 138.42 142.71 139.23 143.10 C 140.05 143.48 141.02 143.13 141.40 142.31 L 141.81 141.43 C 142.19 140.61 141.84 139.64 141.03 139.26 C 140.21 138.88 139.24 139.23 138.86 140.04 Z M 138.45 140.92 L 138.03 141.81 C 137.64 142.62 137.98 143.60 138.80 143.98 C 139.61 144.37 140.58 144.03 140.97 143.21 L 141.39 142.32 C 141.78 141.51 141.44 140.54 140.62 140.15 C 139.81 139.76 138.84 140.11 138.45 140.92 Z M 138.03 141.80 L 137.59 142.70 C 137.20 143.51 137.54 144.49 138.35 144.88 C 139.16 145.27 140.13 144.93 140.53 144.12 L 140.96 143.22 C 141.36 142.41 141.02 141.44 140.21 141.05 C 139.40 140.65 138.42 140.99 138.03 141.80 Z M 137.60 142.69 L 137.15 143.60 C 136.75 144.41 137.08 145.39 137.89 145.78 C 138.70 146.18 139.68 145.85 140.07 145.04 L 140.52 144.13 C 140.92 143.33 140.59 142.35 139.78 141.95 C 138.97 141.55 138.00 141.89 137.60 142.69 Z M 137.16 143.59 L 136.70 144.51 C 136.29 145.31 136.62 146.29 137.42 146.69 C 138.23 147.10 139.21 146.77 139.61 145.97 L 140.07 145.05 C 140.47 144.25 140.15 143.27 139.34 142.86 C 138.54 142.46 137.56 142.79 137.16 143.59 Z M 136.70 144.50 L 136.23 145.42 C 135.82 146.22 136.14 147.20 136.94 147.61 C 137.75 148.02 138.73 147.70 139.14 146.90 L 139.61 145.98 C 140.02 145.17 139.70 144.19 138.89 143.78 C 138.09 143.38 137.11 143.69 136.70 144.50 Z M 136.24 145.41 L 135.77 146.32 C 135.35 147.11 135.66 148.10 136.46 148.51 C 137.26 148.93 138.25 148.62 138.66 147.82 L 139.13 146.91 C 139.55 146.11 139.23 145.12 138.44 144.71 C 137.64 144.30 136.65 144.61 136.24 145.41 Z M 135.77 146.31 L 135.32 147.16 C 134.90 147.96 135.21 148.94 136.00 149.36 C 136.80 149.78 137.79 149.48 138.21 148.68 L 138.66 147.82 C 139.07 147.03 138.77 146.04 137.97 145.62 C 137.18 145.20 136.19 145.51 135.77 146.31 Z M 135.33 147.15 L 134.87 148.01 C 134.45 148.81 134.74 149.79 135.54 150.22 C 136.33 150.64 137.32 150.34 137.74 149.55 L 138.20 148.69 C 138.62 147.89 138.32 146.91 137.53 146.48 C 136.74 146.06 135.75 146.36 135.33 147.15 Z M 134.87 148.01 L 134.41 148.87 C 133.98 149.66 134.27 150.65 135.06 151.07 C 135.85 151.50 136.84 151.21 137.27 150.42 L 137.73 149.55 C 138.16 148.76 137.87 147.78 137.08 147.35 C 136.29 146.92 135.30 147.22 134.87 148.01 Z M 134.41 148.86 L 133.94 149.73 C 133.50 150.52 133.79 151.51 134.58 151.94 C 135.37 152.37 136.35 152.08 136.78 151.29 L 137.26 150.43 C 137.69 149.64 137.40 148.65 136.62 148.22 C 135.83 147.79 134.84 148.08 134.41 148.86 Z M 133.94 149.73 L 133.45 150.60 C 133.02 151.39 133.30 152.37 134.09 152.81 C 134.87 153.24 135.86 152.96 136.29 152.18 L 136.78 151.30 C 137.21 150.52 136.93 149.53 136.15 149.09 C 135.36 148.66 134.38 148.94 133.94 149.73 Z M 133.46 150.60 L 132.97 151.48 C 132.53 152.26 132.81 153.25 133.59 153.68 C 134.37 154.12 135.36 153.84 135.80 153.06 L 136.29 152.18 C 136.73 151.40 136.45 150.41 135.67 149.97 C 134.89 149.54 133.90 149.81 133.46 150.60 Z M 132.97 151.47 L 132.47 152.36 C 132.03 153.14 132.30 154.12 133.08 154.57 C 133.86 155.01 134.85 154.73 135.29 153.95 L 135.79 153.07 C 136.23 152.29 135.96 151.30 135.18 150.86 C 134.40 150.42 133.41 150.69 132.97 151.47 Z M 132.47 152.35 L 131.96 153.24 C 131.52 154.02 131.79 155.01 132.57 155.45 C 133.34 155.90 134.33 155.63 134.77 154.85 L 135.28 153.96 C 135.73 153.18 135.46 152.19 134.68 151.75 C 133.91 151.31 132.92 151.58 132.47 152.35 Z M 131.97 153.24 L 131.45 154.14 C 131.00 154.91 131.27 155.90 132.04 156.35 C 132.82 156.79 133.81 156.53 134.25 155.75 L 134.77 154.86 C 135.22 154.08 134.95 153.09 134.18 152.65 C 133.40 152.20 132.41 152.47 131.97 153.24 Z M 131.45 154.13 L 130.97 154.96 C 130.52 155.73 130.79 156.72 131.56 157.17 C 132.33 157.62 133.32 157.36 133.77 156.58 L 134.25 155.76 C 134.70 154.99 134.44 154.00 133.66 153.55 C 132.89 153.10 131.90 153.36 131.45 154.13 Z M 130.98 154.96 L 130.49 155.78 C 130.04 156.56 130.30 157.55 131.07 158.00 C 131.84 158.45 132.83 158.19 133.28 157.42 L 133.77 156.59 C 134.22 155.82 133.96 154.83 133.19 154.38 C 132.42 153.93 131.43 154.19 130.98 154.96 Z M 130.49 155.78 L 130.00 156.62 C 129.55 157.39 129.81 158.38 130.58 158.83 C 131.35 159.28 132.34 159.02 132.79 158.25 L 133.28 157.42 C 133.73 156.65 133.47 155.66 132.71 155.21 C 131.94 154.75 130.95 155.01 130.49 155.78 Z M 130.00 156.62 L 129.51 157.46 C 129.05 158.23 129.31 159.22 130.08 159.67 C 130.85 160.12 131.84 159.87 132.29 159.10 L 132.79 158.26 C 133.24 157.49 132.99 156.50 132.22 156.04 C 131.45 155.59 130.46 155.85 130.00 156.62 Z M 129.51 157.46 L 129.01 158.31 C 128.55 159.08 128.81 160.07 129.57 160.52 C 130.34 160.98 131.33 160.72 131.79 159.95 L 132.29 159.10 C 132.74 158.33 132.49 157.34 131.72 156.89 C 130.95 156.43 129.96 156.69 129.51 157.46 Z M 129.01 158.31 L 128.50 159.17 C 128.04 159.94 128.30 160.93 129.06 161.38 C 129.83 161.84 130.82 161.58 131.27 160.81 L 131.78 159.95 C 132.24 159.19 131.99 158.20 131.22 157.74 C 130.45 157.29 129.46 157.54 129.01 158.31 Z M 128.50 159.17 L 127.98 160.04 C 127.53 160.81 127.78 161.80 128.55 162.25 C 129.31 162.71 130.30 162.45 130.76 161.69 L 131.27 160.82 C 131.73 160.05 131.48 159.06 130.71 158.60 C 129.94 158.15 128.95 158.40 128.50 159.17 Z M 127.98 160.04 L 127.46 160.92 C 127.00 161.69 127.26 162.68 128.02 163.14 C 128.79 163.59 129.78 163.34 130.24 162.57 L 130.76 161.69 C 131.21 160.92 130.96 159.93 130.19 159.48 C 129.42 159.02 128.43 159.27 127.98 160.04 Z M 127.46 160.93 L 126.93 161.82 C 126.47 162.59 126.73 163.58 127.50 164.03 C 128.26 164.48 129.25 164.23 129.71 163.46 L 130.24 162.57 C 130.69 161.80 130.43 160.81 129.67 160.36 C 128.90 159.90 127.91 160.16 127.46 160.93 Z M 126.93 161.82 L 126.39 162.73 C 125.94 163.50 126.19 164.49 126.96 164.94 C 127.73 165.39 128.72 165.14 129.17 164.37 L 129.71 163.46 C 130.16 162.69 129.90 161.71 129.14 161.25 C 128.37 160.80 127.38 161.06 126.93 161.82 Z M 126.39 162.73 L 125.88 163.60 C 125.43 164.37 125.69 165.36 126.45 165.81 C 127.22 166.26 128.21 166.00 128.66 165.24 L 129.17 164.37 C 129.62 163.60 129.37 162.61 128.60 162.16 C 127.83 161.71 126.84 161.96 126.39 162.73 Z M 125.88 163.60 L 125.38 164.46 C 124.92 165.23 125.18 166.22 125.95 166.67 C 126.72 167.12 127.71 166.86 128.16 166.10 L 128.66 165.23 C 129.11 164.47 128.86 163.48 128.09 163.03 C 127.32 162.58 126.33 162.83 125.88 163.60 Z M 125.37 164.47 L 124.87 165.33 C 124.42 166.10 124.67 167.09 125.44 167.54 C 126.21 167.99 127.20 167.73 127.65 166.96 L 128.16 166.09 C 128.61 165.33 128.35 164.34 127.58 163.89 C 126.81 163.44 125.82 163.70 125.37 164.47 Z M 124.87 165.34 L 124.35 166.21 C 123.90 166.98 124.16 167.97 124.93 168.42 C 125.70 168.86 126.69 168.61 127.14 167.84 L 127.65 166.96 C 128.10 166.19 127.84 165.21 127.07 164.76 C 126.30 164.31 125.31 164.57 124.87 165.34 Z M 124.35 166.21 L 123.84 167.09 C 123.39 167.86 123.65 168.84 124.42 169.29 C 125.19 169.74 126.18 169.48 126.63 168.71 L 127.14 167.84 C 127.59 167.07 127.33 166.08 126.56 165.63 C 125.79 165.18 124.80 165.44 124.35 166.21 Z M 123.84 167.09 L 123.33 167.96 C 122.88 168.73 123.14 169.72 123.91 170.17 C 124.68 170.62 125.67 170.36 126.12 169.59 L 126.63 168.71 C 127.08 167.94 126.82 166.96 126.05 166.51 C 125.28 166.06 124.29 166.32 123.84 167.09 Z M 123.33 167.96 L 122.82 168.84 C 122.37 169.60 122.63 170.59 123.40 171.04 C 124.17 171.49 125.16 171.23 125.60 170.46 L 126.11 169.59 C 126.56 168.82 126.31 167.83 125.54 167.38 C 124.77 166.93 123.78 167.19 123.33 167.96 Z M 122.82 168.84 L 122.31 169.70 C 121.86 170.47 122.12 171.46 122.89 171.91 C 123.66 172.36 124.65 172.10 125.10 171.33 L 125.60 170.46 C 126.05 169.69 125.80 168.71 125.03 168.26 C 124.26 167.81 123.27 168.07 122.82 168.84 Z M 122.31 169.70 L 121.81 170.56 C 121.36 171.33 121.62 172.32 122.39 172.77 C 123.15 173.22 124.14 172.96 124.59 172.19 L 125.10 171.33 C 125.55 170.56 125.29 169.58 124.52 169.13 C 123.75 168.68 122.76 168.93 122.31 169.70 Z M 121.81 170.56 L 121.31 171.41 C 120.86 172.18 121.12 173.17 121.89 173.62 C 122.65 174.07 123.64 173.81 124.09 173.04 L 124.59 172.19 C 125.04 171.43 124.79 170.44 124.02 169.99 C 123.25 169.54 122.26 169.79 121.81 170.56 Z M 121.31 171.41 L 120.82 172.24 C 120.37 173.01 120.62 174.00 121.39 174.45 C 122.16 174.90 123.15 174.65 123.60 173.88 L 124.09 173.04 C 124.54 172.28 124.29 171.29 123.52 170.84 C 122.75 170.39 121.77 170.64 121.31 171.41 Z M 120.82 172.24 L 120.29 173.14 C 119.83 173.91 120.09 174.90 120.85 175.35 C 121.62 175.81 122.61 175.55 123.06 174.79 L 123.60 173.88 C 124.05 173.12 123.80 172.13 123.03 171.67 C 122.26 171.22 121.27 171.47 120.82 172.24 Z M 120.29 173.14 L 119.75 174.05 C 119.29 174.82 119.54 175.81 120.31 176.26 C 121.07 176.72 122.07 176.47 122.52 175.70 L 123.06 174.79 C 123.52 174.02 123.27 173.03 122.50 172.58 C 121.73 172.12 120.74 172.37 120.29 173.14 Z M 119.74 174.05 L 119.21 174.94 C 118.75 175.71 119.00 176.70 119.77 177.16 C 120.54 177.62 121.53 177.36 121.99 176.60 L 122.52 175.71 C 122.98 174.94 122.73 173.94 121.96 173.49 C 121.20 173.03 120.20 173.28 119.74 174.05 Z M 119.21 174.93 L 118.69 175.81 C 118.23 176.58 118.47 177.57 119.24 178.03 C 120.01 178.49 121.00 178.24 121.47 177.48 L 121.99 176.60 C 122.45 175.83 122.20 174.84 121.43 174.38 C 120.67 173.92 119.67 174.17 119.21 174.93 Z M 118.69 175.80 L 118.17 176.66 C 117.70 177.43 117.95 178.43 118.72 178.89 C 119.49 179.36 120.49 179.11 120.95 178.34 L 121.47 177.48 C 121.93 176.71 121.68 175.72 120.91 175.25 C 120.15 174.79 119.15 175.04 118.69 175.80 Z M 118.17 176.66 L 117.66 177.51 C 117.19 178.27 117.44 179.27 118.20 179.74 C 118.97 180.20 119.97 179.96 120.44 179.19 L 120.95 178.34 C 121.41 177.58 121.17 176.58 120.40 176.11 C 119.63 175.65 118.63 175.89 118.17 176.66 Z M 117.65 177.50 L 117.15 178.33 C 116.68 179.10 116.93 180.10 117.69 180.57 C 118.46 181.04 119.47 180.79 119.93 180.03 L 120.44 179.19 C 120.91 178.42 120.66 177.42 119.89 176.96 C 119.12 176.49 118.12 176.73 117.65 177.50 Z M 117.15 178.33 L 116.65 179.15 C 116.18 179.92 116.42 180.92 117.19 181.39 C 117.96 181.86 118.96 181.62 119.43 180.85 L 119.93 180.03 C 120.40 179.26 120.16 178.26 119.39 177.79 C 118.62 177.32 117.62 177.56 117.15 178.33 Z M 116.65 179.15 L 116.15 179.96 C 115.68 180.73 115.92 181.73 116.69 182.21 C 117.46 182.68 118.47 182.43 118.94 181.66 L 119.43 180.85 C 119.90 180.08 119.66 179.08 118.89 178.61 C 118.12 178.14 117.12 178.38 116.65 179.15 Z M 116.15 179.95 L 115.65 180.76 C 115.18 181.53 115.42 182.54 116.19 183.01 C 116.96 183.49 117.97 183.24 118.44 182.47 L 118.94 181.67 C 119.41 180.90 119.17 179.89 118.40 179.42 C 117.63 178.94 116.62 179.18 116.15 179.95 Z M 115.65 180.76 L 115.11 181.65 C 114.63 182.42 114.87 183.43 115.64 183.90 C 116.41 184.38 117.42 184.14 117.90 183.37 L 118.44 182.48 C 118.92 181.71 118.68 180.70 117.91 180.22 C 117.14 179.75 116.13 179.99 115.65 180.76 Z M 115.10 181.64 L 114.56 182.52 C 114.09 183.29 114.32 184.30 115.09 184.78 C 115.87 185.26 116.88 185.02 117.35 184.25 L 117.90 183.37 C 118.37 182.60 118.13 181.59 117.36 181.11 C 116.59 180.63 115.58 180.87 115.10 181.64 Z M 114.56 182.52 L 114.02 183.39 C 113.54 184.16 113.78 185.17 114.55 185.65 C 115.32 186.13 116.34 185.89 116.81 185.12 L 117.35 184.25 C 117.83 183.48 117.59 182.47 116.82 181.99 C 116.05 181.51 115.04 181.75 114.56 182.52 Z M 114.02 183.39 L 113.49 184.25 C 113.01 185.02 113.25 186.03 114.02 186.51 C 114.79 186.99 115.80 186.75 116.28 185.98 L 116.82 185.12 C 117.29 184.35 117.06 183.34 116.28 182.86 C 115.51 182.38 114.50 182.62 114.02 183.39 Z M 113.49 184.25 L 112.96 185.10 C 112.48 185.87 112.72 186.88 113.49 187.36 C 114.26 187.84 115.28 187.60 115.76 186.83 L 116.28 185.98 C 116.76 185.21 116.53 184.20 115.75 183.72 C 114.98 183.24 113.97 183.47 113.49 184.25 Z M 112.96 185.10 L 112.44 185.93 C 111.96 186.71 112.19 187.72 112.97 188.20 C 113.74 188.68 114.76 188.44 115.24 187.67 L 115.76 186.83 C 116.24 186.06 116.00 185.05 115.23 184.56 C 114.45 184.08 113.44 184.32 112.96 185.10 Z M 112.44 185.93 L 111.92 186.76 C 111.44 187.53 111.68 188.55 112.45 189.03 C 113.23 189.51 114.24 189.27 114.72 188.50 L 115.24 187.67 C 115.72 186.90 115.48 185.88 114.71 185.40 C 113.93 184.92 112.92 185.16 112.44 185.93 Z M 111.92 186.76 L 111.41 187.58 C 110.93 188.35 111.17 189.37 111.95 189.85 C 112.72 190.33 113.74 190.09 114.22 189.32 L 114.73 188.50 C 115.21 187.73 114.97 186.71 114.19 186.23 C 113.42 185.75 112.40 185.99 111.92 186.76 Z M 111.41 187.58 L 110.89 188.42 C 110.41 189.19 110.65 190.21 111.43 190.69 C 112.20 191.17 113.22 190.93 113.70 190.16 L 114.22 189.32 C 114.70 188.54 114.46 187.52 113.69 187.04 C 112.91 186.56 111.89 186.80 111.41 187.58 Z M 110.89 188.42 L 110.33 189.32 C 109.85 190.09 110.10 191.11 110.87 191.59 C 111.65 192.07 112.67 191.83 113.15 191.05 L 113.70 190.16 C 114.18 189.38 113.94 188.36 113.16 187.88 C 112.39 187.40 111.37 187.64 110.89 188.42 Z M 110.33 189.32 L 109.79 190.20 C 109.31 190.98 109.55 192.00 110.33 192.48 C 111.11 192.96 112.13 192.71 112.61 191.94 L 113.15 191.05 C 113.63 190.27 113.39 189.26 112.61 188.78 C 111.83 188.30 110.81 188.54 110.33 189.32 Z M 109.79 190.20 L 109.25 191.07 C 108.78 191.85 109.02 192.87 109.80 193.35 C 110.58 193.83 111.60 193.58 112.08 192.80 L 112.61 191.93 C 113.09 191.15 112.84 190.13 112.06 189.66 C 111.28 189.18 110.26 189.42 109.79 190.20 Z M 109.25 191.07 L 108.73 191.92 C 108.26 192.71 108.50 193.73 109.28 194.20 C 110.06 194.68 111.08 194.43 111.56 193.65 L 112.08 192.80 C 112.56 192.02 112.31 191.00 111.53 190.52 C 110.75 190.04 109.73 190.29 109.25 191.07 Z M 108.73 191.93 L 108.22 192.77 C 107.74 193.55 107.99 194.57 108.78 195.04 C 109.56 195.52 110.58 195.27 111.06 194.49 L 111.56 193.65 C 112.04 192.87 111.79 191.85 111.01 191.37 C 110.22 190.90 109.20 191.14 108.73 191.93 Z M 108.22 192.77 L 107.72 193.59 C 107.25 194.38 107.50 195.40 108.28 195.87 C 109.07 196.34 110.09 196.09 110.56 195.31 L 111.06 194.48 C 111.53 193.70 111.28 192.68 110.50 192.21 C 109.71 191.73 108.69 191.98 108.22 192.77 Z M 107.72 193.59 L 107.23 194.40 C 106.76 195.19 107.01 196.21 107.80 196.68 C 108.58 197.16 109.61 196.90 110.08 196.11 L 110.56 195.31 C 111.04 194.52 110.78 193.50 110.00 193.03 C 109.21 192.55 108.19 192.81 107.72 193.59 Z M 107.23 194.41 L 106.70 195.29 C 106.23 196.08 106.49 197.10 107.28 197.57 C 108.07 198.04 109.09 197.78 109.56 196.99 L 110.08 196.11 C 110.55 195.32 110.29 194.30 109.51 193.83 C 108.72 193.36 107.70 193.62 107.23 194.41 Z M 106.70 195.29 L 106.16 196.19 C 105.69 196.98 105.96 198.00 106.75 198.47 C 107.54 198.94 108.56 198.68 109.03 197.89 L 109.56 196.99 C 110.03 196.20 109.77 195.18 108.98 194.71 C 108.19 194.24 107.17 194.50 106.70 195.29 Z M 106.16 196.19 L 105.64 197.06 C 105.17 197.86 105.43 198.88 106.23 199.35 C 107.02 199.82 108.04 199.56 108.51 198.77 L 109.03 197.89 C 109.50 197.09 109.24 196.07 108.45 195.60 C 107.65 195.13 106.63 195.39 106.16 196.19 Z M 105.64 197.06 L 105.13 197.92 C 104.66 198.72 104.92 199.74 105.71 200.21 C 106.51 200.69 107.53 200.42 108.00 199.63 L 108.51 198.77 C 108.99 197.97 108.72 196.95 107.93 196.48 C 107.13 196.01 106.11 196.27 105.64 197.06 Z M 105.13 197.92 L 104.62 198.76 C 104.15 199.56 104.41 200.58 105.21 201.06 C 106.00 201.53 107.03 201.27 107.50 200.48 L 108.01 199.63 C 108.48 198.84 108.22 197.81 107.42 197.34 C 106.63 196.86 105.60 197.12 105.13 197.92 Z M 104.63 198.75 L 104.13 199.58 C 103.65 200.37 103.91 201.40 104.70 201.88 C 105.50 202.36 106.53 202.10 107.01 201.31 L 107.50 200.48 C 107.98 199.69 107.72 198.66 106.93 198.18 C 106.13 197.70 105.10 197.96 104.63 198.75 Z M 104.13 199.57 L 103.64 200.38 C 103.15 201.17 103.41 202.21 104.20 202.69 C 104.99 203.17 106.03 202.92 106.51 202.13 L 107.01 201.32 C 107.49 200.52 107.24 199.49 106.44 199.01 C 105.65 198.52 104.61 198.78 104.13 199.57 Z M 103.64 200.37 L 103.10 201.24 C 102.61 202.03 102.86 203.07 103.65 203.56 C 104.44 204.05 105.48 203.80 105.97 203.01 L 106.51 202.14 C 106.99 201.35 106.75 200.31 105.96 199.82 C 105.17 199.33 104.13 199.58 103.64 200.37 Z M 103.11 201.23 L 102.57 202.09 C 102.08 202.87 102.31 203.91 103.10 204.41 C 103.89 204.90 104.93 204.67 105.42 203.88 L 105.96 203.03 C 106.45 202.24 106.22 201.20 105.43 200.70 C 104.64 200.21 103.61 200.44 103.11 201.23 Z M 102.58 202.07 L 102.04 202.91 C 101.54 203.70 101.77 204.74 102.55 205.24 C 103.33 205.74 104.37 205.51 104.88 204.73 L 105.41 203.89 C 105.92 203.11 105.69 202.07 104.90 201.57 C 104.12 201.06 103.08 201.29 102.58 202.07 Z M 102.05 202.90 L 101.51 203.73 C 101.00 204.51 101.22 205.56 102.00 206.06 C 102.78 206.57 103.82 206.35 104.33 205.57 L 104.87 204.74 C 105.38 203.96 105.16 202.92 104.38 202.41 C 103.60 201.91 102.55 202.13 102.05 202.90 Z M 101.51 203.72 L 100.97 204.55 C 100.46 205.32 100.67 206.37 101.44 206.88 C 102.22 207.39 103.26 207.18 103.78 206.40 L 104.32 205.58 C 104.83 204.81 104.62 203.76 103.85 203.25 C 103.07 202.74 102.03 202.95 101.51 203.72 Z M 100.98 204.54 L 100.42 205.36 C 99.91 206.13 100.11 207.18 100.88 207.69 C 101.65 208.21 102.70 208.01 103.22 207.23 L 103.77 206.41 C 104.29 205.64 104.08 204.60 103.31 204.08 C 102.54 203.56 101.49 203.76 100.98 204.54 Z M 100.43 205.35 L 99.85 206.20 C 99.32 206.97 99.52 208.02 100.29 208.54 C 101.06 209.07 102.11 208.87 102.63 208.10 L 103.21 207.24 C 103.74 206.48 103.54 205.43 102.77 204.90 C 102.00 204.38 100.95 204.58 100.43 205.35 Z M 99.85 206.19 L 99.27 207.04 C 98.74 207.80 98.93 208.85 99.69 209.38 C 100.46 209.91 101.51 209.72 102.04 208.96 L 102.63 208.11 C 103.16 207.35 102.97 206.29 102.20 205.76 C 101.43 205.23 100.38 205.42 99.85 206.19 Z M 99.28 207.02 L 98.69 207.85 C 98.15 208.61 98.33 209.67 99.09 210.20 C 99.85 210.74 100.91 210.56 101.45 209.80 L 102.03 208.97 C 102.57 208.21 102.39 207.16 101.63 206.62 C 100.87 206.08 99.81 206.26 99.28 207.02 Z M 98.70 207.83 L 98.11 208.64 C 97.57 209.40 97.73 210.45 98.49 211.00 C 99.25 211.55 100.30 211.38 100.85 210.62 L 101.44 209.82 C 101.98 209.06 101.82 208.00 101.06 207.46 C 100.30 206.91 99.25 207.08 98.70 207.83 Z M 98.13 208.62 L 97.55 209.39 C 96.99 210.14 97.14 211.20 97.89 211.76 C 98.64 212.32 99.70 212.17 100.26 211.42 L 100.84 210.64 C 101.40 209.89 101.24 208.83 100.50 208.27 C 99.75 207.72 98.69 207.87 98.13 208.62 Z M 97.56 209.37 L 96.96 210.15 C 96.39 210.89 96.52 211.96 97.26 212.53 C 98.00 213.10 99.07 212.97 99.64 212.23 L 100.24 211.44 C 100.82 210.70 100.68 209.64 99.94 209.07 C 99.20 208.49 98.14 208.63 97.56 209.37 Z M 96.98 210.12 L 96.32 210.95 C 95.73 211.67 95.84 212.74 96.57 213.33 C 97.29 213.92 98.36 213.81 98.95 213.08 L 99.62 212.25 C 100.20 211.53 100.09 210.46 99.36 209.87 C 98.64 209.28 97.57 209.40 96.98 210.12 Z M 96.34 210.92 L 95.69 211.69 C 95.08 212.40 95.17 213.47 95.88 214.07 C 96.59 214.68 97.66 214.59 98.27 213.88 L 98.92 213.11 C 99.53 212.40 99.44 211.33 98.73 210.72 C 98.02 210.12 96.95 210.20 96.34 210.92 Z M 95.72 211.66 L 95.07 212.39 C 94.44 213.08 94.50 214.15 95.20 214.77 C 95.90 215.40 96.97 215.34 97.59 214.64 L 98.24 213.91 C 98.86 213.21 98.80 212.15 98.10 211.52 C 97.41 210.90 96.34 210.96 95.72 211.66 Z M 95.09 212.36 L 94.44 213.05 C 93.81 213.73 93.84 214.80 94.52 215.44 C 95.20 216.08 96.27 216.04 96.91 215.36 L 97.56 214.67 C 98.20 213.99 98.16 212.92 97.48 212.28 C 96.80 211.64 95.73 211.68 95.09 212.36 Z M 94.47 213.02 L 93.78 213.72 C 93.13 214.39 93.14 215.46 93.80 216.11 C 94.47 216.77 95.54 216.76 96.19 216.09 L 96.88 215.39 C 97.54 214.72 97.53 213.65 96.86 213.00 C 96.20 212.34 95.13 212.35 94.47 213.02 Z M 93.81 213.70 L 93.08 214.41 C 92.41 215.06 92.39 216.13 93.04 216.80 C 93.69 217.47 94.76 217.48 95.43 216.83 L 96.16 216.12 C 96.83 215.47 96.85 214.40 96.20 213.73 C 95.55 213.06 94.48 213.05 93.81 213.70 Z M 93.11 214.38 L 92.37 215.06 C 91.68 215.69 91.64 216.76 92.28 217.45 C 92.91 218.13 93.98 218.18 94.67 217.54 L 95.40 216.86 C 96.09 216.22 96.13 215.15 95.50 214.47 C 94.86 213.78 93.79 213.74 93.11 214.38 Z M 92.40 215.03 L 91.66 215.68 C 90.96 216.30 90.89 217.37 91.51 218.07 C 92.13 218.77 93.20 218.84 93.90 218.22 L 94.64 217.57 C 95.34 216.95 95.41 215.88 94.79 215.18 C 94.17 214.48 93.10 214.41 92.40 215.03 Z M 91.69 215.66 L 90.93 216.29 C 90.22 216.90 90.13 217.97 90.73 218.68 C 91.33 219.40 92.40 219.49 93.12 218.89 L 93.87 218.25 C 94.59 217.64 94.68 216.58 94.08 215.86 C 93.47 215.14 92.41 215.05 91.69 215.66 Z M 90.97 216.27 L 90.16 216.92 C 89.43 217.50 89.31 218.57 89.89 219.30 C 90.48 220.03 91.54 220.14 92.27 219.56 L 93.08 218.91 C 93.81 218.33 93.93 217.26 93.34 216.53 C 92.76 215.80 91.70 215.69 90.97 216.27 Z M 90.19 216.89 L 89.39 217.50 C 88.65 218.07 88.50 219.13 89.06 219.87 C 89.63 220.61 90.68 220.76 91.43 220.20 L 92.23 219.59 C 92.98 219.02 93.12 217.96 92.56 217.22 C 92.00 216.48 90.94 216.33 90.19 216.89 Z M 89.43 217.48 L 88.64 218.04 C 87.88 218.58 87.70 219.63 88.24 220.39 C 88.78 221.15 89.83 221.33 90.59 220.79 L 91.38 220.22 C 92.14 219.68 92.32 218.63 91.78 217.87 C 91.24 217.12 90.19 216.94 89.43 217.48 Z M 88.69 218.01 L 87.90 218.53 C 87.12 219.05 86.91 220.09 87.42 220.86 C 87.93 221.64 88.97 221.85 89.75 221.34 L 90.54 220.82 C 91.31 220.31 91.53 219.26 91.02 218.49 C 90.50 217.71 89.46 217.50 88.69 218.01 Z M 87.97 218.49 L 87.16 218.97 C 86.36 219.44 86.09 220.47 86.56 221.27 C 87.03 222.07 88.06 222.33 88.86 221.86 L 89.67 221.38 C 90.47 220.91 90.74 219.88 90.27 219.09 C 89.80 218.29 88.77 218.02 87.97 218.49 Z M 87.28 218.90 L 86.41 219.32 C 85.58 219.72 85.22 220.72 85.62 221.56 C 86.02 222.39 87.03 222.75 87.86 222.35 L 88.73 221.93 C 89.57 221.53 89.92 220.53 89.52 219.69 C 89.12 218.85 88.12 218.50 87.28 218.90 Z M 86.58 219.25 L 85.59 219.60 C 84.72 219.91 84.26 220.87 84.57 221.74 C 84.88 222.62 85.84 223.07 86.72 222.76 L 87.70 222.41 C 88.58 222.10 89.03 221.14 88.72 220.27 C 88.41 219.39 87.45 218.94 86.58 219.25 Z M 85.75 219.55 L 84.79 219.79 C 83.89 220.01 83.35 220.93 83.57 221.83 C 83.80 222.72 84.71 223.27 85.61 223.05 L 86.56 222.81 C 87.46 222.58 88.01 221.67 87.79 220.77 C 87.56 219.87 86.65 219.33 85.75 219.55 Z M 84.90 219.77 L 83.99 219.94 C 83.08 220.10 82.48 220.97 82.64 221.88 C 82.81 222.79 83.68 223.40 84.59 223.23 L 85.50 223.07 C 86.41 222.90 87.01 222.03 86.85 221.12 C 86.68 220.21 85.81 219.61 84.90 219.77 Z M 84.06 219.93 L 83.08 220.07 C 82.17 220.20 81.53 221.04 81.66 221.96 C 81.79 222.87 82.64 223.50 83.55 223.37 L 84.53 223.24 C 85.44 223.11 86.07 222.26 85.94 221.35 C 85.82 220.44 84.97 219.80 84.06 219.93 Z M 83.12 220.07 L 82.09 220.19 C 81.18 220.29 80.53 221.12 80.63 222.03 C 80.74 222.94 81.56 223.60 82.48 223.49 L 83.50 223.37 C 84.42 223.27 85.07 222.44 84.97 221.53 C 84.86 220.62 84.04 219.96 83.12 220.07 Z M 82.12 220.19 L 81.06 220.30 C 80.15 220.39 79.48 221.20 79.57 222.11 C 79.66 223.02 80.48 223.69 81.39 223.60 L 82.45 223.49 C 83.36 223.40 84.03 222.59 83.93 221.68 C 83.84 220.76 83.03 220.10 82.12 220.19 Z M 81.07 220.30 L 80.27 220.38 C 79.36 220.46 78.69 221.27 78.78 222.18 C 78.86 223.09 79.67 223.75 80.58 223.67 L 81.38 223.59 C 82.29 223.51 82.95 222.70 82.87 221.79 C 82.78 220.88 81.98 220.22 81.07 220.30 Z"
      fill="black"
      fill-rule="nonzero" /></svg>