<svg xmlns="http://www.w3.org/2000/svg" width="300" height="300" viewBox="0 0 300 300">
<path d="M 165.26 130.48 L 165.34 129.49 C 165.41 128.63 164.77 127.88 163.91 127.81 C 163.05 127.74 162.30 128.38 162.23 129.24 L 162.15 130.23 C 162.08 131.09 162.72 131.84 163.58 131.91 C 164.44 131.98 165.19 131.34 165.26 130.48 Z M 165.35 129.47 L 165.41 128.48 C 165.47 127.62 164.82 126.87 163.96 126.82 C 163.10 126.76 162.36 127.41 162.30 128.27 L 162.23 129.26 C 162.17 130.12 162.82 130.86 163.68 130.92 C 164.54 130.98 165.29 130.33 165.35 129.47 Z M 165.42 128.44 L 165.46 127.43 C 165.50 126.57 164.83 125.84 163.97 125.80 C 163.11 125.77 162.38 126.43 162.34 127.29 L 162.30 128.30 C 162.26 129.17 162.93 129.89 163.79 129.93 C 164.65 129.97 165.38 129.30 165.42 128.44 Z M 165.46 127.37 L 165.46 126.30 C 165.46 125.44 164.77 124.74 163.90 124.74 C 163.04 124.74 162.34 125.44 162.34 126.30 L 162.34 127.36 C 162.34 128.22 163.04 128.92 163.90 128.93 C 164.76 128.93 165.46 128.23 165.46 127.37 Z M 165.45 126.11 L 165.32 125.09 C 165.22 124.23 164.44 123.63 163.58 123.73 C 162.73 123.84 162.12 124.62 162.23 125.48 L 162.35 126.49 C 162.46 127.35 163.24 127.96 164.10 127.85 C 164.95 127.74 165.56 126.96 165.45 126.11 Z M 165.21 124.66 L 164.83 123.81 C 164.49 123.02 163.57 122.66 162.78 123.01 C 161.99 123.35 161.63 124.28 161.98 125.06 L 162.35 125.91 C 162.69 126.70 163.61 127.06 164.40 126.71 C 165.19 126.37 165.55 125.45 165.21 124.66 Z M 164.39 123.23 L 163.72 122.68 C 163.05 122.14 162.07 122.24 161.52 122.91 C 160.98 123.57 161.08 124.56 161.75 125.10 L 162.42 125.65 C 163.09 126.19 164.07 126.09 164.62 125.42 C 165.16 124.76 165.06 123.77 164.39 123.23 Z M 163.18 122.40 L 162.27 122.12 C 161.44 121.87 160.57 122.34 160.32 123.17 C 160.07 123.99 160.54 124.86 161.37 125.11 L 162.29 125.39 C 163.11 125.63 163.98 125.17 164.23 124.34 C 164.48 123.51 164.01 122.64 163.18 122.40 Z M 161.89 122.06 L 160.83 122.01 C 159.97 121.96 159.24 122.63 159.20 123.49 C 159.16 124.35 159.82 125.08 160.68 125.12 L 161.74 125.18 C 162.60 125.22 163.33 124.55 163.38 123.69 C 163.42 122.83 162.75 122.10 161.89 122.06 Z M 160.56 122.02 L 159.51 122.15 C 158.65 122.26 158.05 123.04 158.15 123.89 C 158.26 124.75 159.04 125.35 159.90 125.25 L 160.95 125.11 C 161.81 125.01 162.41 124.23 162.31 123.37 C 162.20 122.51 161.42 121.91 160.56 122.02 Z M 159.29 122.19 L 158.32 122.46 C 157.48 122.69 157.00 123.55 157.23 124.38 C 157.46 125.21 158.32 125.70 159.15 125.47 L 160.12 125.20 C 160.95 124.97 161.44 124.11 161.21 123.28 C 160.98 122.45 160.12 121.96 159.29 122.19 Z M 158.14 122.52 L 157.22 122.90 C 156.42 123.23 156.04 124.14 156.36 124.94 C 156.69 125.73 157.60 126.12 158.40 125.79 L 159.32 125.41 C 160.12 125.08 160.50 124.17 160.18 123.37 C 159.85 122.58 158.94 122.19 158.14 122.52 Z M 157.08 122.96 L 156.20 123.43 C 155.44 123.83 155.15 124.77 155.55 125.54 C 155.95 126.30 156.90 126.59 157.66 126.19 L 158.54 125.72 C 159.30 125.32 159.59 124.38 159.19 123.61 C 158.79 122.85 157.84 122.56 157.08 122.96 Z M 156.10 123.49 L 155.26 124.01 C 154.54 124.48 154.32 125.44 154.78 126.17 C 155.24 126.90 156.21 127.11 156.93 126.65 L 157.77 126.13 C 158.50 125.66 158.71 124.70 158.25 123.97 C 157.79 123.24 156.83 123.03 156.10 123.49 Z M 155.18 124.07 L 154.38 124.66 C 153.69 125.17 153.53 126.14 154.04 126.84 C 154.55 127.53 155.53 127.69 156.23 127.18 L 157.02 126.59 C 157.72 126.08 157.87 125.11 157.36 124.41 C 156.85 123.72 155.87 123.56 155.18 124.07 Z M 154.31 124.71 L 153.54 125.35 C 152.87 125.89 152.77 126.88 153.32 127.54 C 153.87 128.21 154.85 128.31 155.52 127.76 L 156.29 127.12 C 156.96 126.58 157.06 125.59 156.51 124.93 C 155.96 124.26 154.98 124.16 154.31 124.71 Z M 153.49 125.39 L 152.74 126.05 C 152.10 126.63 152.04 127.61 152.61 128.26 C 153.19 128.90 154.17 128.96 154.82 128.38 L 155.57 127.72 C 156.21 127.14 156.27 126.16 155.69 125.51 C 155.12 124.87 154.13 124.81 153.49 125.39 Z M 152.71 126.08 L 152.01 126.75 C 151.38 127.34 151.35 128.33 151.94 128.96 C 152.54 129.58 153.53 129.61 154.15 129.02 L 154.85 128.35 C 155.48 127.76 155.51 126.77 154.91 126.15 C 154.32 125.52 153.33 125.49 152.71 126.08 Z M 151.97 126.78 L 151.27 127.49 C 150.66 128.10 150.66 129.09 151.27 129.70 C 151.88 130.30 152.87 130.30 153.48 129.69 L 154.19 128.98 C 154.79 128.37 154.79 127.38 154.18 126.78 C 153.57 126.17 152.58 126.17 151.97 126.78 Z M 151.24 127.52 L 150.53 128.27 C 149.94 128.90 149.98 129.89 150.61 130.48 C 151.24 131.07 152.22 131.04 152.81 130.41 L 153.52 129.66 C 154.10 129.03 154.07 128.04 153.44 127.45 C 152.81 126.86 151.82 126.89 151.24 127.52 Z M 150.50 128.31 L 149.83 129.07 C 149.27 129.71 149.33 130.70 149.98 131.27 C 150.62 131.84 151.61 131.78 152.18 131.13 L 152.85 130.37 C 153.42 129.72 153.35 128.73 152.70 128.17 C 152.06 127.60 151.07 127.66 150.50 128.31 Z M 149.80 129.10 L 149.19 129.85 C 148.64 130.51 148.73 131.50 149.40 132.05 C 150.06 132.60 151.04 132.50 151.59 131.84 L 152.21 131.09 C 152.76 130.43 152.67 129.44 152.00 128.89 C 151.34 128.34 150.35 128.44 149.80 129.10 Z M 149.16 129.88 L 148.55 130.66 C 148.02 131.34 148.14 132.32 148.81 132.85 C 149.49 133.38 150.47 133.27 151.01 132.59 L 151.62 131.81 C 152.15 131.13 152.03 130.15 151.35 129.61 C 150.68 129.08 149.69 129.20 149.16 129.88 Z M 148.53 130.69 L 147.92 131.50 C 147.40 132.19 147.54 133.17 148.23 133.69 C 148.93 134.21 149.90 134.06 150.42 133.37 L 151.03 132.56 C 151.54 131.87 151.40 130.89 150.71 130.37 C 150.02 129.86 149.04 130.00 148.53 130.69 Z M 147.90 131.53 L 147.29 132.38 C 146.79 133.08 146.95 134.05 147.66 134.56 C 148.36 135.06 149.33 134.89 149.83 134.19 L 150.44 133.35 C 150.94 132.65 150.78 131.67 150.08 131.17 C 149.38 130.67 148.40 130.83 147.90 131.53 Z M 147.28 132.40 L 146.72 133.21 C 146.23 133.92 146.41 134.89 147.12 135.38 C 147.83 135.87 148.81 135.69 149.29 134.98 L 149.85 134.17 C 150.34 133.46 150.16 132.49 149.45 132.00 C 148.74 131.51 147.76 131.69 147.28 132.40 Z M 146.70 133.23 L 146.15 134.07 C 145.68 134.79 145.88 135.76 146.60 136.23 C 147.32 136.71 148.29 136.51 148.76 135.79 L 149.31 134.95 C 149.79 134.23 149.59 133.27 148.87 132.79 C 148.15 132.32 147.18 132.52 146.70 133.23 Z M 146.14 134.10 L 145.60 134.95 C 145.14 135.68 145.36 136.64 146.09 137.10 C 146.82 137.56 147.78 137.34 148.24 136.61 L 148.78 135.76 C 149.24 135.03 149.02 134.07 148.29 133.61 C 147.56 133.15 146.60 133.37 146.14 134.10 Z M 145.58 134.98 L 145.06 135.85 C 144.62 136.59 144.86 137.54 145.60 137.99 C 146.34 138.43 147.30 138.19 147.74 137.45 L 148.26 136.58 C 148.70 135.84 148.46 134.88 147.72 134.44 C 146.98 134.00 146.02 134.24 145.58 134.98 Z M 145.04 135.88 L 144.55 136.76 C 144.12 137.51 144.39 138.46 145.14 138.89 C 145.89 139.31 146.85 139.04 147.27 138.29 L 147.76 137.41 C 148.19 136.66 147.92 135.71 147.17 135.29 C 146.42 134.86 145.47 135.13 145.04 135.88 Z M 144.53 136.80 L 144.06 137.69 C 143.65 138.45 143.95 139.40 144.71 139.80 C 145.47 140.20 146.42 139.91 146.82 139.15 L 147.29 138.25 C 147.69 137.49 147.40 136.55 146.64 136.14 C 145.87 135.74 144.93 136.04 144.53 136.80 Z M 144.04 137.73 L 143.59 138.63 C 143.21 139.40 143.53 140.34 144.31 140.72 C 145.08 141.10 146.02 140.78 146.40 140.01 L 146.84 139.11 C 147.22 138.33 146.90 137.40 146.13 137.02 C 145.35 136.64 144.42 136.96 144.04 137.73 Z M 143.58 138.67 L 143.16 139.57 C 142.80 140.36 143.15 141.28 143.93 141.64 C 144.71 142.00 145.64 141.66 146.00 140.88 L 146.41 139.97 C 146.77 139.19 146.43 138.26 145.65 137.90 C 144.86 137.54 143.94 137.88 143.58 138.67 Z M 143.14 139.61 L 142.76 140.52 C 142.42 141.32 142.78 142.23 143.58 142.57 C 144.37 142.91 145.29 142.54 145.63 141.75 L 146.02 140.84 C 146.35 140.04 145.99 139.13 145.19 138.79 C 144.40 138.45 143.48 138.82 143.14 139.61 Z M 142.74 140.56 L 142.38 141.47 C 142.06 142.27 142.45 143.18 143.25 143.50 C 144.05 143.82 144.96 143.43 145.28 142.63 L 145.64 141.71 C 145.96 140.91 145.57 140.00 144.77 139.69 C 143.97 139.37 143.06 139.76 142.74 140.56 Z M 142.36 141.51 L 142.02 142.43 C 141.73 143.24 142.14 144.13 142.95 144.43 C 143.76 144.73 144.66 144.32 144.95 143.51 L 145.29 142.59 C 145.59 141.78 145.18 140.88 144.37 140.58 C 143.56 140.29 142.66 140.70 142.36 141.51 Z M 142.01 142.47 L 141.69 143.40 C 141.42 144.22 141.86 145.11 142.67 145.38 C 143.49 145.66 144.38 145.22 144.65 144.40 L 144.97 143.47 C 145.25 142.65 144.81 141.76 143.99 141.49 C 143.17 141.21 142.29 141.65 142.01 142.47 Z M 141.68 143.44 L 141.38 144.40 C 141.13 145.23 141.59 146.10 142.42 146.36 C 143.24 146.61 144.11 146.15 144.37 145.32 L 144.67 144.36 C 144.92 143.54 144.46 142.67 143.63 142.41 C 142.81 142.16 141.94 142.62 141.68 143.44 Z M 141.37 144.45 L 141.10 145.44 C 140.86 146.27 141.35 147.13 142.18 147.36 C 143.01 147.59 143.87 147.11 144.10 146.28 L 144.38 145.28 C 144.61 144.45 144.13 143.59 143.30 143.36 C 142.47 143.13 141.60 143.61 141.37 144.45 Z M 141.09 145.48 L 140.85 146.43 C 140.64 147.27 141.14 148.11 141.98 148.32 C 142.81 148.54 143.66 148.03 143.87 147.19 L 144.11 146.24 C 144.32 145.40 143.82 144.56 142.98 144.34 C 142.14 144.13 141.30 144.64 141.09 145.48 Z M 140.84 146.47 L 140.62 147.43 C 140.43 148.27 140.95 149.11 141.80 149.30 C 142.64 149.49 143.47 148.96 143.66 148.12 L 143.88 147.16 C 144.07 146.32 143.55 145.48 142.71 145.29 C 141.86 145.10 141.03 145.62 140.84 146.47 Z M 140.61 147.47 L 140.41 148.45 C 140.24 149.30 140.79 150.12 141.63 150.29 C 142.48 150.46 143.30 149.91 143.47 149.07 L 143.67 148.08 C 143.84 147.24 143.30 146.42 142.45 146.25 C 141.61 146.07 140.78 146.62 140.61 147.47 Z M 140.40 148.49 L 140.23 149.49 C 140.08 150.33 140.64 151.14 141.49 151.30 C 142.34 151.45 143.15 150.88 143.30 150.03 L 143.48 149.03 C 143.63 148.18 143.06 147.37 142.21 147.22 C 141.36 147.07 140.55 147.64 140.40 148.49 Z M 140.22 149.52 L 140.07 150.53 C 139.94 151.38 140.53 152.18 141.38 152.30 C 142.23 152.43 143.03 151.85 143.16 150.99 L 143.31 149.99 C 143.44 149.14 142.85 148.34 142.00 148.21 C 141.15 148.09 140.35 148.67 140.22 149.52 Z M 140.06 150.57 L 139.94 151.57 C 139.83 152.42 140.44 153.20 141.30 153.31 C 142.15 153.41 142.93 152.80 143.04 151.95 L 143.16 150.95 C 143.27 150.10 142.66 149.32 141.80 149.21 C 140.95 149.11 140.17 149.71 140.06 150.57 Z M 139.94 151.61 L 139.84 152.60 C 139.76 153.45 140.38 154.22 141.24 154.30 C 142.10 154.38 142.86 153.76 142.95 152.90 L 143.04 151.91 C 143.13 151.05 142.50 150.29 141.64 150.20 C 140.78 150.12 140.02 150.75 139.94 151.61 Z M 139.84 152.63 L 139.76 153.62 C 139.70 154.48 140.34 155.23 141.20 155.30 C 142.06 155.36 142.81 154.71 142.88 153.85 L 142.95 152.86 C 143.01 152.00 142.37 151.25 141.51 151.19 C 140.65 151.13 139.90 151.77 139.84 152.63 Z M 139.76 153.65 L 139.71 154.65 C 139.66 155.51 140.32 156.25 141.18 156.29 C 142.04 156.34 142.78 155.68 142.82 154.82 L 142.88 153.82 C 142.93 152.96 142.27 152.23 141.40 152.18 C 140.54 152.13 139.81 152.79 139.76 153.65 Z M 139.70 154.67 L 139.67 155.68 C 139.63 156.54 140.30 157.27 141.17 157.30 C 142.03 157.33 142.75 156.66 142.79 155.80 L 142.82 154.80 C 142.86 153.93 142.19 153.21 141.33 153.17 C 140.46 153.14 139.74 153.81 139.70 154.67 Z M 139.67 155.70 L 139.64 156.69 C 139.62 157.55 140.30 158.27 141.16 158.29 C 142.02 158.32 142.74 157.64 142.76 156.77 L 142.79 155.78 C 142.81 154.92 142.13 154.20 141.27 154.18 C 140.41 154.16 139.69 154.84 139.67 155.70 Z M 139.64 156.71 L 139.62 157.67 C 139.61 158.53 140.30 159.24 141.16 159.26 C 142.02 159.27 142.73 158.58 142.75 157.72 L 142.76 156.76 C 142.77 155.90 142.09 155.19 141.22 155.17 C 140.36 155.16 139.65 155.85 139.64 156.71 Z M 139.62 157.69 L 139.62 158.67 C 139.62 159.53 140.32 160.23 141.18 160.24 C 142.04 160.24 142.74 159.54 142.74 158.68 L 142.75 157.70 C 142.75 156.84 142.05 156.14 141.19 156.14 C 140.33 156.13 139.62 156.83 139.62 157.69 Z M 139.62 158.70 L 139.64 159.70 C 139.65 160.56 140.36 161.25 141.22 161.23 C 142.08 161.22 142.77 160.51 142.76 159.65 L 142.74 158.65 C 142.73 157.79 142.02 157.10 141.16 157.11 C 140.30 157.13 139.61 157.84 139.62 158.70 Z M 139.64 159.73 L 139.67 160.74 C 139.70 161.60 140.43 162.28 141.29 162.25 C 142.15 162.22 142.82 161.50 142.79 160.63 L 142.76 159.62 C 142.73 158.76 142.00 158.08 141.14 158.11 C 140.28 158.14 139.61 158.87 139.64 159.73 Z M 139.67 160.78 L 139.73 161.82 C 139.78 162.68 140.52 163.34 141.38 163.29 C 142.24 163.24 142.90 162.50 142.85 161.64 L 142.79 160.60 C 142.74 159.74 142.00 159.08 141.14 159.13 C 140.28 159.18 139.62 159.92 139.67 160.78 Z M 139.74 161.85 L 139.82 162.86 C 139.89 163.72 140.64 164.35 141.50 164.28 C 142.36 164.21 143.00 163.46 142.93 162.60 L 142.85 161.60 C 142.78 160.74 142.02 160.10 141.17 160.17 C 140.31 160.24 139.67 161.00 139.74 161.85 Z M 139.82 162.89 L 139.93 163.88 C 140.02 164.74 140.78 165.36 141.64 165.27 C 142.50 165.18 143.12 164.41 143.03 163.56 L 142.93 162.57 C 142.84 161.71 142.07 161.09 141.21 161.18 C 140.35 161.27 139.73 162.03 139.82 162.89 Z M 139.93 163.92 L 140.06 164.91 C 140.16 165.77 140.95 166.38 141.80 166.27 C 142.66 166.16 143.26 165.38 143.15 164.52 L 143.03 163.52 C 142.92 162.67 142.14 162.06 141.28 162.17 C 140.43 162.28 139.82 163.06 139.93 163.92 Z M 140.06 164.95 L 140.21 165.95 C 140.33 166.80 141.13 167.39 141.98 167.26 C 142.83 167.14 143.42 166.34 143.30 165.49 L 143.15 164.49 C 143.02 163.64 142.23 163.05 141.38 163.17 C 140.52 163.30 139.93 164.09 140.06 164.95 Z M 140.21 165.98 L 140.38 166.97 C 140.53 167.82 141.33 168.39 142.18 168.25 C 143.03 168.11 143.60 167.30 143.46 166.45 L 143.29 165.46 C 143.15 164.61 142.34 164.03 141.49 164.18 C 140.64 164.32 140.07 165.13 140.21 165.98 Z M 140.39 167.00 L 140.58 167.98 C 140.74 168.83 141.55 169.39 142.40 169.23 C 143.25 169.06 143.80 168.25 143.64 167.40 L 143.45 166.42 C 143.29 165.57 142.47 165.02 141.63 165.18 C 140.78 165.34 140.23 166.16 140.39 167.00 Z M 140.58 168.02 L 140.79 168.98 C 140.97 169.82 141.80 170.36 142.64 170.18 C 143.48 170.00 144.02 169.17 143.84 168.32 L 143.63 167.36 C 143.45 166.52 142.62 165.98 141.78 166.17 C 140.94 166.35 140.40 167.18 140.58 168.02 Z M 140.80 169.01 L 141.02 169.95 C 141.22 170.79 142.06 171.31 142.90 171.11 C 143.74 170.91 144.26 170.07 144.06 169.23 L 143.83 168.29 C 143.63 167.45 142.79 166.93 141.95 167.13 C 141.11 167.33 140.60 168.17 140.80 169.01 Z M 141.03 169.98 L 141.27 170.92 C 141.49 171.76 142.34 172.26 143.17 172.04 C 144.01 171.82 144.51 170.97 144.29 170.14 L 144.05 169.20 C 143.83 168.37 142.98 167.87 142.15 168.08 C 141.31 168.30 140.81 169.15 141.03 169.98 Z M 141.28 170.95 L 141.54 171.89 C 141.77 172.72 142.63 173.21 143.46 172.98 C 144.29 172.74 144.78 171.88 144.55 171.05 L 144.28 170.11 C 144.05 169.28 143.19 168.79 142.36 169.03 C 141.53 169.26 141.05 170.12 141.28 170.95 Z M 141.55 171.92 L 141.83 172.88 C 142.08 173.71 142.94 174.18 143.77 173.93 C 144.60 173.69 145.07 172.82 144.83 171.99 L 144.54 171.03 C 144.30 170.20 143.43 169.73 142.60 169.98 C 141.77 170.22 141.30 171.09 141.55 171.92 Z M 141.84 172.90 L 142.15 173.89 C 142.40 174.72 143.27 175.18 144.10 174.92 C 144.92 174.67 145.38 173.80 145.13 172.97 L 144.82 171.98 C 144.57 171.15 143.69 170.69 142.87 170.94 C 142.04 171.20 141.58 172.07 141.84 172.90 Z M 142.15 173.91 L 142.46 174.89 C 142.72 175.71 143.60 176.17 144.42 175.90 C 145.25 175.64 145.70 174.77 145.44 173.94 L 145.12 172.96 C 144.86 172.14 143.98 171.68 143.16 171.94 C 142.34 172.21 141.89 173.08 142.15 173.91 Z M 142.47 174.90 L 142.77 175.83 C 143.03 176.65 143.91 177.10 144.73 176.84 C 145.55 176.57 146.00 175.69 145.74 174.87 L 145.44 173.94 C 145.17 173.12 144.29 172.67 143.47 172.93 C 142.65 173.20 142.20 174.08 142.47 174.90 Z M 142.77 175.84 L 143.08 176.80 C 143.35 177.61 144.23 178.06 145.05 177.79 C 145.87 177.52 146.32 176.64 146.05 175.82 L 145.74 174.86 C 145.47 174.05 144.59 173.60 143.77 173.87 C 142.95 174.14 142.50 175.02 142.77 175.84 Z M 143.08 176.80 L 143.40 177.77 C 143.67 178.59 144.56 179.03 145.38 178.76 C 146.19 178.49 146.64 177.61 146.37 176.79 L 146.05 175.82 C 145.78 175.00 144.90 174.56 144.08 174.83 C 143.26 175.10 142.81 175.98 143.08 176.80 Z M 143.40 177.77 L 143.73 178.74 C 144.00 179.56 144.88 180.01 145.70 179.74 C 146.52 179.47 146.96 178.58 146.69 177.76 L 146.37 176.79 C 146.10 175.97 145.22 175.53 144.40 175.80 C 143.58 176.07 143.13 176.95 143.40 177.77 Z M 143.72 178.74 L 144.04 179.70 C 144.31 180.52 145.19 180.97 146.01 180.70 C 146.83 180.43 147.28 179.55 147.01 178.73 L 146.69 177.77 C 146.42 176.95 145.54 176.50 144.72 176.77 C 143.90 177.04 143.46 177.92 143.72 178.74 Z M 144.04 179.70 L 144.35 180.64 C 144.61 181.46 145.50 181.91 146.32 181.64 C 147.13 181.38 147.58 180.50 147.32 179.68 L 147.01 178.73 C 146.74 177.91 145.86 177.46 145.04 177.73 C 144.22 178.00 143.77 178.88 144.04 179.70 Z M 144.35 180.64 L 144.65 181.60 C 144.92 182.42 145.80 182.87 146.62 182.61 C 147.44 182.35 147.89 181.47 147.63 180.65 L 147.32 179.68 C 147.06 178.86 146.18 178.41 145.36 178.67 C 144.53 178.94 144.08 179.82 144.35 180.64 Z M 144.65 181.59 L 144.98 182.64 C 145.23 183.46 146.11 183.92 146.93 183.66 C 147.76 183.41 148.22 182.53 147.96 181.71 L 147.63 180.66 C 147.37 179.83 146.50 179.37 145.68 179.63 C 144.85 179.89 144.39 180.76 144.65 181.59 Z M 144.97 182.62 L 145.27 183.62 C 145.52 184.45 146.39 184.92 147.21 184.67 C 148.04 184.42 148.51 183.55 148.26 182.73 L 147.96 181.73 C 147.72 180.90 146.85 180.43 146.02 180.68 C 145.19 180.92 144.73 181.79 144.97 182.62 Z M 145.26 183.60 L 145.53 184.56 C 145.77 185.39 146.63 185.87 147.46 185.64 C 148.29 185.40 148.77 184.54 148.54 183.71 L 148.27 182.75 C 148.04 181.92 147.18 181.44 146.35 181.67 C 145.52 181.90 145.03 182.77 145.26 183.60 Z M 145.53 184.52 L 145.76 185.45 C 145.98 186.29 146.83 186.79 147.67 186.57 C 148.50 186.36 149.00 185.51 148.79 184.67 L 148.55 183.75 C 148.33 182.91 147.48 182.41 146.65 182.62 C 145.81 182.84 145.31 183.69 145.53 184.52 Z M 145.75 185.41 L 145.96 186.31 C 146.15 187.15 146.99 187.68 147.83 187.48 C 148.67 187.29 149.20 186.45 149.00 185.61 L 148.80 184.71 C 148.60 183.87 147.77 183.35 146.93 183.54 C 146.09 183.73 145.56 184.57 145.75 185.41 Z M 145.95 186.26 L 146.14 187.25 C 146.31 188.09 147.13 188.64 147.97 188.48 C 148.82 188.32 149.37 187.50 149.21 186.65 L 149.02 185.66 C 148.85 184.82 148.03 184.26 147.19 184.43 C 146.34 184.59 145.79 185.41 145.95 186.26 Z M 146.13 187.16 L 146.28 188.29 C 146.40 189.14 147.19 189.74 148.05 189.62 C 148.90 189.50 149.50 188.71 149.38 187.86 L 149.22 186.73 C 149.10 185.88 148.31 185.28 147.46 185.40 C 146.60 185.52 146.01 186.31 146.13 187.16 Z M 146.27 188.15 L 146.32 189.19 C 146.36 190.05 147.10 190.72 147.96 190.68 C 148.82 190.64 149.48 189.90 149.44 189.04 L 149.39 188.00 C 149.35 187.14 148.62 186.47 147.76 186.51 C 146.89 186.55 146.23 187.29 146.27 188.15 Z M 146.33 188.97 L 146.24 189.90 C 146.16 190.76 146.79 191.52 147.64 191.60 C 148.50 191.68 149.27 191.05 149.35 190.19 L 149.44 189.27 C 149.52 188.41 148.89 187.65 148.03 187.56 C 147.17 187.48 146.41 188.11 146.33 188.97 Z M 146.31 189.55 L 146.05 190.32 C 145.78 191.14 146.22 192.02 147.03 192.30 C 147.85 192.58 148.74 192.14 149.01 191.32 L 149.27 190.54 C 149.55 189.73 149.11 188.84 148.29 188.57 C 147.47 188.29 146.59 188.73 146.31 189.55 Z M 146.33 189.82 L 145.74 190.53 C 145.19 191.19 145.28 192.18 145.95 192.73 C 146.61 193.28 147.59 193.19 148.15 192.52 L 148.73 191.82 C 149.28 191.16 149.19 190.17 148.53 189.62 C 147.87 189.07 146.88 189.16 146.33 189.82 Z M 146.16 190.18 L 145.33 190.66 C 144.58 191.09 144.33 192.05 144.76 192.79 C 145.20 193.54 146.15 193.79 146.90 193.36 L 147.73 192.88 C 148.47 192.44 148.73 191.49 148.30 190.74 C 147.86 190.00 146.91 189.74 146.16 190.18 Z M 145.63 190.53 L 144.65 190.85 C 143.83 191.11 143.38 192.00 143.65 192.82 C 143.92 193.63 144.80 194.08 145.62 193.81 L 146.60 193.49 C 147.42 193.22 147.87 192.34 147.60 191.52 C 147.33 190.70 146.45 190.26 145.63 190.53 Z M 144.79 190.81 L 143.77 191.04 C 142.92 191.22 142.39 192.06 142.58 192.90 C 142.77 193.74 143.61 194.27 144.45 194.08 L 145.47 193.85 C 146.31 193.66 146.84 192.83 146.66 191.99 C 146.47 191.15 145.63 190.62 144.79 190.81 Z M 143.82 191.02 L 142.82 191.21 C 141.97 191.37 141.41 192.19 141.57 193.03 C 141.73 193.88 142.54 194.44 143.39 194.28 L 144.39 194.09 C 145.24 193.94 145.80 193.12 145.64 192.27 C 145.48 191.43 144.67 190.87 143.82 191.02 Z M 142.84 191.21 L 141.85 191.37 C 141.00 191.52 140.43 192.32 140.57 193.17 C 140.72 194.02 141.52 194.60 142.37 194.45 L 143.36 194.29 C 144.21 194.14 144.79 193.34 144.64 192.49 C 144.50 191.64 143.69 191.06 142.84 191.21 Z M 141.86 191.37 L 140.89 191.53 C 140.04 191.67 139.47 192.48 139.61 193.33 C 139.75 194.18 140.55 194.75 141.40 194.61 L 142.37 194.45 C 143.22 194.31 143.79 193.51 143.65 192.66 C 143.51 191.81 142.71 191.23 141.86 191.37 Z M 140.88 191.54 L 139.92 191.70 C 139.07 191.85 138.51 192.66 138.66 193.51 C 138.81 194.36 139.62 194.93 140.46 194.78 L 141.42 194.61 C 142.27 194.46 142.84 193.65 142.69 192.80 C 142.54 191.95 141.73 191.39 140.88 191.54 Z M 139.89 191.71 L 138.94 191.90 C 138.10 192.06 137.54 192.88 137.71 193.73 C 137.87 194.57 138.69 195.12 139.54 194.96 L 140.49 194.77 C 141.34 194.61 141.89 193.79 141.72 192.94 C 141.56 192.10 140.74 191.54 139.89 191.71 Z M 138.92 191.90 L 137.94 192.11 C 137.10 192.28 136.56 193.11 136.74 193.96 C 136.92 194.80 137.74 195.34 138.59 195.16 L 139.56 194.96 C 140.41 194.78 140.95 193.95 140.77 193.10 C 140.59 192.26 139.76 191.72 138.92 191.90 Z M 137.92 192.11 L 136.91 192.34 C 136.07 192.53 135.54 193.36 135.73 194.20 C 135.92 195.04 136.75 195.57 137.60 195.38 L 138.61 195.16 C 139.45 194.97 139.98 194.13 139.79 193.29 C 139.60 192.45 138.76 191.92 137.92 192.11 Z M 136.90 192.34 L 135.97 192.56 C 135.13 192.75 134.61 193.59 134.81 194.43 C 135.01 195.27 135.85 195.79 136.68 195.60 L 137.61 195.38 C 138.45 195.18 138.97 194.34 138.77 193.51 C 138.58 192.67 137.74 192.14 136.90 192.34 Z M 135.96 192.56 L 134.99 192.80 C 134.15 193.00 133.64 193.84 133.84 194.68 C 134.05 195.52 134.89 196.03 135.73 195.83 L 136.70 195.59 C 137.54 195.39 138.05 194.54 137.85 193.71 C 137.64 192.87 136.80 192.36 135.96 192.56 Z M 134.97 192.80 L 133.98 193.05 C 133.15 193.27 132.64 194.12 132.85 194.95 C 133.07 195.79 133.92 196.29 134.75 196.08 L 135.75 195.83 C 136.58 195.61 137.09 194.76 136.87 193.93 C 136.66 193.09 135.81 192.59 134.97 192.80 Z M 133.96 193.06 L 132.96 193.33 C 132.13 193.56 131.63 194.41 131.86 195.25 C 132.09 196.08 132.94 196.57 133.77 196.34 L 134.78 196.07 C 135.61 195.85 136.10 194.99 135.87 194.16 C 135.65 193.33 134.79 192.83 133.96 193.06 Z M 132.93 193.34 L 131.95 193.62 C 131.12 193.86 130.65 194.73 130.88 195.55 C 131.12 196.38 131.99 196.86 132.82 196.62 L 133.80 196.34 C 134.63 196.10 135.11 195.23 134.87 194.40 C 134.63 193.58 133.76 193.10 132.93 193.34 Z M 131.93 193.63 L 130.96 193.93 C 130.14 194.18 129.67 195.05 129.93 195.88 C 130.18 196.70 131.06 197.16 131.88 196.91 L 132.84 196.61 C 133.67 196.36 134.13 195.49 133.88 194.66 C 133.62 193.84 132.75 193.37 131.93 193.63 Z M 130.93 193.94 L 129.98 194.25 C 129.16 194.52 128.72 195.40 128.99 196.22 C 129.26 197.04 130.14 197.48 130.96 197.21 L 131.91 196.90 C 132.73 196.63 133.17 195.75 132.90 194.93 C 132.63 194.11 131.75 193.67 130.93 193.94 Z M 129.95 194.26 L 129.03 194.58 C 128.21 194.87 127.78 195.76 128.07 196.57 C 128.36 197.39 129.25 197.81 130.06 197.53 L 130.99 197.20 C 131.80 196.92 132.23 196.03 131.94 195.21 C 131.66 194.40 130.77 193.97 129.95 194.26 Z M 128.99 194.60 L 127.86 195.02 C 127.05 195.33 126.65 196.23 126.95 197.04 C 127.26 197.84 128.16 198.25 128.97 197.94 L 130.10 197.52 C 130.90 197.21 131.31 196.31 131.00 195.50 C 130.70 194.70 129.80 194.29 128.99 194.60 Z M 127.80 195.05 L 126.69 195.53 C 125.89 195.87 125.53 196.78 125.87 197.58 C 126.21 198.37 127.12 198.74 127.92 198.40 L 129.03 197.92 C 129.82 197.58 130.19 196.66 129.85 195.87 C 129.51 195.08 128.59 194.71 127.80 195.05 Z M 126.52 195.61 L 125.83 196.00 C 125.09 196.43 124.83 197.39 125.26 198.14 C 125.69 198.88 126.64 199.14 127.39 198.71 L 128.08 198.31 C 128.83 197.88 129.08 196.93 128.65 196.18 C 128.22 195.44 127.27 195.18 126.52 195.61 Z M 125.05 197.47 L 125.07 197.75 C 125.13 198.61 125.88 199.25 126.74 199.19 C 127.60 199.13 128.25 198.39 128.19 197.53 L 128.17 197.25 C 128.11 196.39 127.36 195.74 126.50 195.80 C 125.64 195.86 124.99 196.61 125.05 197.47 Z M 126.47 199.19 L 127.42 199.29 C 128.28 199.38 129.04 198.76 129.13 197.90 C 129.23 197.04 128.60 196.27 127.75 196.18 L 126.80 196.08 C 125.94 195.99 125.17 196.61 125.08 197.47 C 124.99 198.33 125.61 199.10 126.47 199.19 Z M 127.57 199.30 L 128.88 199.31 C 129.74 199.31 130.44 198.62 130.45 197.75 C 130.45 196.89 129.76 196.19 128.90 196.18 L 127.59 196.18 C 126.73 196.17 126.03 196.87 126.02 197.73 C 126.02 198.59 126.71 199.29 127.57 199.30 Z M 128.88 199.31 L 129.88 199.31 C 130.74 199.31 131.44 198.61 131.45 197.75 C 131.45 196.88 130.75 196.19 129.89 196.18 L 128.89 196.18 C 128.03 196.18 127.33 196.88 127.32 197.74 C 127.32 198.61 128.02 199.31 128.88 199.31 Z M 129.88 199.31 L 130.90 199.31 C 131.76 199.31 132.46 198.62 132.47 197.76 C 132.47 196.89 131.77 196.19 130.91 196.19 L 129.89 196.18 C 129.03 196.18 128.33 196.88 128.32 197.74 C 128.32 198.60 129.02 199.30 129.88 199.31 Z M 130.89 199.31 L 131.90 199.32 C 132.76 199.33 133.46 198.64 133.47 197.77 C 133.48 196.91 132.79 196.21 131.93 196.20 L 130.92 196.19 C 130.06 196.18 129.35 196.87 129.34 197.73 C 129.34 198.60 130.03 199.30 130.89 199.31 Z M 131.88 199.32 L 132.88 199.34 C 133.74 199.36 134.45 198.67 134.47 197.81 C 134.48 196.95 133.80 196.24 132.94 196.22 L 131.94 196.20 C 131.08 196.18 130.37 196.87 130.35 197.73 C 130.33 198.59 131.02 199.30 131.88 199.32 Z M 132.84 199.34 L 133.82 199.38 C 134.68 199.42 135.41 198.75 135.45 197.89 C 135.48 197.03 134.82 196.30 133.95 196.26 L 132.97 196.22 C 132.11 196.18 131.38 196.85 131.35 197.71 C 131.31 198.57 131.98 199.30 132.84 199.34 Z M 133.75 199.38 L 134.73 199.46 C 135.59 199.53 136.34 198.90 136.42 198.04 C 136.49 197.18 135.85 196.42 135.00 196.35 L 134.02 196.27 C 133.16 196.19 132.41 196.83 132.33 197.69 C 132.26 198.55 132.90 199.30 133.75 199.38 Z M 134.65 199.45 L 135.66 199.59 C 136.51 199.71 137.30 199.12 137.42 198.26 C 137.54 197.41 136.94 196.62 136.09 196.50 L 135.08 196.36 C 134.22 196.24 133.44 196.83 133.32 197.69 C 133.20 198.54 133.79 199.33 134.65 199.45 Z M 135.58 199.58 L 136.49 199.75 C 137.34 199.92 138.16 199.36 138.32 198.52 C 138.48 197.67 137.93 196.85 137.08 196.69 L 136.17 196.51 C 135.32 196.35 134.50 196.90 134.34 197.75 C 134.18 198.60 134.73 199.42 135.58 199.58 Z M 136.43 199.74 L 137.39 199.97 C 138.23 200.17 139.07 199.65 139.27 198.81 C 139.47 197.98 138.95 197.13 138.11 196.93 L 137.15 196.70 C 136.31 196.50 135.47 197.02 135.27 197.86 C 135.07 198.70 135.59 199.54 136.43 199.74 Z M 137.32 199.95 L 138.31 200.24 C 139.14 200.47 140.01 199.99 140.24 199.17 C 140.48 198.34 140.00 197.47 139.17 197.23 L 138.18 196.95 C 137.35 196.71 136.49 197.19 136.25 198.02 C 136.01 198.85 136.49 199.71 137.32 199.95 Z M 138.24 200.21 L 139.24 200.55 C 140.05 200.83 140.94 200.39 141.22 199.58 C 141.49 198.76 141.06 197.87 140.24 197.60 L 139.24 197.26 C 138.43 196.98 137.54 197.42 137.26 198.23 C 136.99 199.05 137.42 199.94 138.24 200.21 Z M 139.16 200.52 L 140.10 200.90 C 140.90 201.22 141.81 200.83 142.13 200.03 C 142.45 199.23 142.06 198.32 141.26 198.00 L 140.32 197.62 C 139.52 197.30 138.61 197.69 138.29 198.50 C 137.97 199.30 138.36 200.20 139.16 200.52 Z M 140.02 200.86 L 140.93 201.29 C 141.71 201.66 142.64 201.32 143.01 200.54 C 143.37 199.76 143.04 198.83 142.26 198.46 L 141.34 198.04 C 140.56 197.67 139.63 198.01 139.27 198.79 C 138.90 199.57 139.24 200.50 140.02 200.86 Z M 140.83 201.24 L 141.71 201.73 C 142.46 202.15 143.41 201.88 143.83 201.12 C 144.25 200.37 143.98 199.42 143.23 199.00 L 142.35 198.51 C 141.60 198.09 140.65 198.36 140.23 199.12 C 139.81 199.87 140.08 200.82 140.83 201.24 Z M 141.60 201.66 L 142.42 202.21 C 143.13 202.69 144.10 202.50 144.58 201.78 C 145.06 201.07 144.87 200.10 144.16 199.62 L 143.33 199.07 C 142.62 198.59 141.65 198.78 141.17 199.49 C 140.69 200.21 140.88 201.18 141.60 201.66 Z M 142.30 202.12 L 143.08 202.76 C 143.75 203.31 144.73 203.21 145.28 202.55 C 145.83 201.88 145.73 200.90 145.06 200.35 L 144.28 199.71 C 143.61 199.16 142.63 199.26 142.08 199.92 C 141.53 200.59 141.63 201.57 142.30 202.12 Z M 142.97 202.66 L 143.69 203.39 C 144.30 204.00 145.29 204.00 145.90 203.39 C 146.51 202.78 146.51 201.79 145.90 201.18 L 145.18 200.46 C 144.57 199.84 143.58 199.84 142.97 200.45 C 142.36 201.06 142.36 202.05 142.97 202.66 Z M 143.60 203.28 L 144.24 204.05 C 144.79 204.72 145.77 204.81 146.44 204.26 C 147.10 203.71 147.19 202.72 146.64 202.06 L 146.00 201.29 C 145.45 200.62 144.46 200.53 143.80 201.08 C 143.14 201.64 143.05 202.62 143.60 203.28 Z M 144.16 203.95 L 144.72 204.75 C 145.21 205.45 146.18 205.63 146.89 205.13 C 147.60 204.64 147.77 203.66 147.28 202.96 L 146.72 202.16 C 146.22 201.46 145.25 201.28 144.54 201.78 C 143.84 202.27 143.67 203.25 144.16 203.95 Z M 144.65 204.64 L 145.15 205.50 C 145.59 206.24 146.54 206.50 147.29 206.06 C 148.03 205.63 148.28 204.67 147.85 203.93 L 147.34 203.07 C 146.91 202.32 145.95 202.07 145.21 202.50 C 144.46 202.94 144.21 203.90 144.65 204.64 Z M 145.09 205.38 L 145.52 206.29 C 145.88 207.07 146.81 207.40 147.59 207.04 C 148.37 206.67 148.71 205.74 148.34 204.96 L 147.91 204.05 C 147.54 203.27 146.61 202.93 145.83 203.30 C 145.05 203.67 144.72 204.60 145.09 205.38 Z M 145.46 206.16 L 145.80 207.08 C 146.09 207.89 146.99 208.31 147.80 208.01 C 148.61 207.72 149.03 206.82 148.73 206.01 L 148.39 205.09 C 148.10 204.28 147.20 203.86 146.39 204.16 C 145.58 204.45 145.17 205.35 145.46 206.16 Z M 145.76 206.96 L 146.02 207.91 C 146.24 208.74 147.10 209.23 147.93 209.00 C 148.77 208.78 149.26 207.92 149.03 207.09 L 148.77 206.14 C 148.54 205.30 147.69 204.81 146.85 205.04 C 146.02 205.27 145.53 206.13 145.76 206.96 Z M 145.99 207.80 L 146.18 208.74 C 146.35 209.59 147.17 210.14 148.02 209.97 C 148.86 209.80 149.41 208.98 149.24 208.13 L 149.05 207.19 C 148.89 206.35 148.06 205.80 147.22 205.97 C 146.37 206.13 145.82 206.96 145.99 207.80 Z M 146.17 208.66 L 146.31 209.63 C 146.43 210.49 147.22 211.08 148.07 210.96 C 148.93 210.83 149.52 210.04 149.40 209.19 L 149.26 208.21 C 149.13 207.36 148.34 206.77 147.49 206.89 C 146.64 207.01 146.04 207.80 146.17 208.66 Z M 146.30 209.57 L 146.40 210.58 C 146.49 211.44 147.25 212.07 148.11 211.98 C 148.97 211.89 149.59 211.12 149.51 210.27 L 149.40 209.25 C 149.32 208.40 148.55 207.77 147.69 207.86 C 146.83 207.95 146.21 208.71 146.30 209.57 Z M 146.40 210.54 L 146.47 211.55 C 146.53 212.41 147.28 213.05 148.14 212.99 C 149.00 212.93 149.65 212.18 149.58 211.32 L 149.51 210.31 C 149.45 209.45 148.70 208.81 147.84 208.87 C 146.98 208.93 146.33 209.68 146.40 210.54 Z M 146.47 211.52 L 146.52 212.42 C 146.57 213.28 147.30 213.94 148.16 213.89 C 149.02 213.85 149.68 213.11 149.64 212.25 L 149.59 211.35 C 149.54 210.49 148.80 209.83 147.94 209.87 C 147.08 209.92 146.42 210.66 146.47 211.52 Z M 146.52 212.40 L 146.56 213.35 C 146.59 214.21 147.32 214.88 148.18 214.85 C 149.04 214.81 149.71 214.08 149.68 213.22 L 149.64 212.27 C 149.60 211.41 148.88 210.74 148.01 210.78 C 147.15 210.81 146.48 211.54 146.52 212.40 Z M 146.55 213.33 L 146.58 214.35 C 146.61 215.21 147.33 215.89 148.19 215.86 C 149.05 215.84 149.73 215.12 149.70 214.26 L 149.68 213.24 C 149.65 212.38 148.93 211.70 148.07 211.73 C 147.21 211.75 146.53 212.47 146.55 213.33 Z M 146.58 214.33 L 146.60 215.44 C 146.62 216.30 147.33 216.98 148.19 216.97 C 149.06 216.95 149.74 216.24 149.73 215.38 L 149.71 214.27 C 149.69 213.41 148.98 212.73 148.12 212.74 C 147.25 212.76 146.57 213.47 146.58 214.33 Z M 146.60 215.42 L 146.61 216.42 C 146.62 217.29 147.33 217.98 148.19 217.97 C 149.06 217.96 149.75 217.25 149.74 216.39 L 149.73 215.39 C 149.72 214.53 149.01 213.84 148.15 213.85 C 147.28 213.86 146.59 214.56 146.60 215.42 Z M 146.61 216.41 L 146.62 217.38 C 146.63 218.24 147.33 218.94 148.19 218.93 C 149.05 218.93 149.75 218.23 149.74 217.36 L 149.74 216.40 C 149.73 215.53 149.03 214.84 148.17 214.84 C 147.30 214.85 146.61 215.55 146.61 216.41 Z M 146.62 217.37 L 146.62 218.38 C 146.62 219.24 147.32 219.94 148.18 219.94 C 149.04 219.94 149.74 219.24 149.74 218.38 L 149.74 217.37 C 149.74 216.51 149.04 215.81 148.18 215.81 C 147.32 215.81 146.62 216.51 146.62 217.37 Z M 146.62 218.37 L 146.61 219.39 C 146.61 220.25 147.30 220.96 148.16 220.96 C 149.03 220.97 149.73 220.28 149.74 219.41 L 149.74 218.39 C 149.75 217.53 149.05 216.82 148.19 216.82 C 147.33 216.81 146.63 217.50 146.62 218.37 Z M 146.61 219.38 L 146.60 220.41 C 146.58 221.27 147.27 221.98 148.13 222.00 C 149.00 222.01 149.71 221.32 149.72 220.46 L 149.74 219.43 C 149.75 218.56 149.06 217.85 148.20 217.84 C 147.34 217.83 146.63 218.52 146.61 219.38 Z M 146.60 220.40 L 146.57 221.42 C 146.55 222.28 147.23 222.99 148.09 223.02 C 148.96 223.04 149.67 222.36 149.69 221.49 L 149.72 220.47 C 149.74 219.61 149.06 218.89 148.20 218.87 C 147.34 218.85 146.62 219.53 146.60 220.40 Z M 146.57 221.40 L 146.53 222.49 C 146.50 223.35 147.17 224.08 148.04 224.11 C 148.90 224.14 149.62 223.47 149.65 222.61 L 149.69 221.51 C 149.72 220.65 149.05 219.93 148.19 219.90 C 147.33 219.86 146.60 220.54 146.57 221.40 Z M 146.53 222.47 L 146.48 223.56 C 146.44 224.42 147.11 225.15 147.97 225.19 C 148.83 225.23 149.56 224.57 149.60 223.71 L 149.65 222.62 C 149.69 221.76 149.03 221.03 148.17 220.99 C 147.31 220.95 146.57 221.61 146.53 222.47 Z M 146.48 223.55 L 146.43 224.58 C 146.38 225.44 147.04 226.17 147.90 226.22 C 148.76 226.27 149.50 225.61 149.54 224.75 L 149.60 223.72 C 149.65 222.86 148.99 222.12 148.13 222.07 C 147.27 222.03 146.53 222.69 146.48 223.55 Z M 146.43 224.57 L 146.37 225.54 C 146.32 226.40 146.98 227.14 147.84 227.19 C 148.70 227.24 149.44 226.58 149.49 225.72 L 149.54 224.75 C 149.59 223.89 148.94 223.15 148.07 223.10 C 147.21 223.05 146.48 223.71 146.43 224.57 Z M 146.37 225.54 L 146.32 226.44 C 146.27 227.30 146.93 228.04 147.79 228.09 C 148.66 228.14 149.39 227.48 149.44 226.62 L 149.49 225.72 C 149.54 224.85 148.88 224.12 148.02 224.07 C 147.15 224.02 146.42 224.68 146.37 225.54 Z M 146.32 226.46 L 146.28 227.46 C 146.24 228.33 146.90 229.06 147.77 229.09 C 148.63 229.13 149.36 228.46 149.40 227.60 L 149.44 226.60 C 149.48 225.74 148.81 225.01 147.95 224.97 C 147.09 224.93 146.36 225.60 146.32 226.46 Z M 146.28 227.49 L 146.25 228.55 C 146.22 229.41 146.90 230.13 147.76 230.15 C 148.63 230.18 149.34 229.50 149.37 228.64 L 149.40 227.58 C 149.42 226.72 148.74 226.00 147.88 225.97 C 147.02 225.95 146.30 226.63 146.28 227.49 Z M 146.25 228.58 L 146.23 229.53 C 146.22 230.40 146.91 231.10 147.78 231.11 C 148.64 231.12 149.35 230.43 149.36 229.57 L 149.37 228.61 C 149.38 227.75 148.69 227.04 147.82 227.03 C 146.96 227.02 146.26 227.71 146.25 228.58 Z M 146.23 229.55 L 146.23 230.45 C 146.23 231.31 146.93 232.02 147.79 232.02 C 148.65 232.02 149.35 231.32 149.35 230.46 L 149.36 229.55 C 149.36 228.69 148.66 227.99 147.80 227.99 C 146.94 227.99 146.24 228.69 146.23 229.55 Z M 146.23 230.47 L 146.24 231.46 C 146.25 232.33 146.95 233.02 147.81 233.02 C 148.67 233.01 149.37 232.31 149.36 231.44 L 149.35 230.44 C 149.35 229.58 148.64 228.89 147.78 228.89 C 146.92 228.90 146.23 229.60 146.23 230.47 Z M 146.24 231.54 L 146.30 232.54 C 146.34 233.40 147.08 234.06 147.94 234.01 C 148.80 233.96 149.46 233.23 149.41 232.37 L 149.36 231.37 C 149.31 230.51 148.58 229.85 147.72 229.90 C 146.86 229.94 146.19 230.68 146.24 231.54 Z M 146.31 232.69 L 146.46 233.67 C 146.59 234.52 147.39 235.11 148.24 234.98 C 149.10 234.84 149.68 234.05 149.55 233.20 L 149.40 232.21 C 149.27 231.36 148.47 230.78 147.62 230.91 C 146.76 231.04 146.18 231.84 146.31 232.69 Z M 146.51 233.88 L 146.78 234.77 C 147.03 235.60 147.90 236.07 148.72 235.82 C 149.55 235.57 150.02 234.70 149.77 233.88 L 149.50 232.98 C 149.25 232.16 148.38 231.69 147.56 231.94 C 146.73 232.19 146.26 233.06 146.51 233.88 Z M 146.85 234.96 L 147.23 235.83 C 147.58 236.62 148.51 236.97 149.29 236.62 C 150.08 236.27 150.44 235.35 150.09 234.56 L 149.70 233.69 C 149.35 232.90 148.43 232.55 147.64 232.90 C 146.85 233.25 146.50 234.17 146.85 234.96 Z M 147.30 235.96 L 147.80 236.86 C 148.22 237.61 149.17 237.88 149.92 237.46 C 150.68 237.04 150.95 236.09 150.53 235.34 L 150.02 234.44 C 149.61 233.68 148.65 233.41 147.90 233.83 C 147.15 234.25 146.88 235.20 147.30 235.96 Z M 147.84 236.93 L 148.41 237.83 C 148.88 238.56 149.84 238.78 150.57 238.32 C 151.30 237.86 151.51 236.89 151.05 236.16 L 150.48 235.26 C 150.02 234.53 149.06 234.32 148.33 234.78 C 147.60 235.24 147.38 236.20 147.84 236.93 Z M 148.44 237.87 L 148.99 238.69 C 149.47 239.41 150.44 239.60 151.15 239.12 C 151.87 238.64 152.06 237.67 151.58 236.95 L 151.03 236.13 C 150.55 235.41 149.58 235.22 148.86 235.70 C 148.15 236.18 147.96 237.15 148.44 237.87 Z M 149.00 238.70 L 149.57 239.55 C 150.06 240.26 151.03 240.44 151.74 239.96 C 152.45 239.47 152.64 238.50 152.15 237.79 L 151.58 236.94 C 151.09 236.23 150.12 236.05 149.41 236.53 C 148.69 237.02 148.51 237.99 149.00 238.70 Z M 149.56 239.54 L 150.13 240.38 C 150.61 241.10 151.58 241.29 152.30 240.81 C 153.01 240.33 153.21 239.36 152.73 238.65 L 152.16 237.80 C 151.68 237.08 150.71 236.89 149.99 237.37 C 149.28 237.85 149.08 238.82 149.56 239.54 Z M 150.11 240.36 L 150.64 241.18 C 151.11 241.91 152.07 242.12 152.80 241.66 C 153.52 241.19 153.74 240.23 153.27 239.50 L 152.74 238.68 C 152.28 237.95 151.32 237.74 150.59 238.20 C 149.86 238.66 149.65 239.63 150.11 240.36 Z M 150.61 241.14 L 151.18 242.08 C 151.62 242.82 152.57 243.07 153.32 242.63 C 154.06 242.19 154.30 241.23 153.86 240.49 L 153.30 239.54 C 152.86 238.80 151.90 238.56 151.16 239.00 C 150.42 239.44 150.17 240.40 150.61 241.14 Z M 151.19 242.11 L 151.72 242.96 C 152.17 243.69 153.13 243.92 153.87 243.47 C 154.60 243.01 154.83 242.05 154.37 241.32 L 153.85 240.46 C 153.39 239.73 152.43 239.50 151.70 239.96 C 150.96 240.41 150.74 241.37 151.19 242.11 Z M 151.81 243.09 L 152.37 243.83 C 152.90 244.51 153.88 244.64 154.56 244.12 C 155.25 243.59 155.38 242.61 154.85 241.93 L 154.28 241.19 C 153.76 240.51 152.78 240.38 152.10 240.90 C 151.41 241.42 151.28 242.40 151.81 243.09 Z M 152.58 244.05 L 153.27 244.66 C 153.91 245.23 154.90 245.18 155.47 244.53 C 156.05 243.89 155.99 242.90 155.34 242.33 L 154.65 241.71 C 154.00 241.14 153.02 241.20 152.45 241.84 C 151.87 242.49 151.93 243.48 152.58 244.05 Z M 153.52 244.84 L 154.36 245.33 C 155.10 245.77 156.06 245.52 156.49 244.77 C 156.93 244.03 156.68 243.07 155.93 242.64 L 155.09 242.15 C 154.35 241.71 153.39 241.96 152.96 242.71 C 152.52 243.45 152.77 244.41 153.52 244.84 Z M 154.53 245.42 L 155.46 245.82 C 156.25 246.16 157.17 245.80 157.51 245.00 C 157.85 244.21 157.49 243.29 156.69 242.95 L 155.76 242.55 C 154.97 242.21 154.05 242.58 153.71 243.37 C 153.37 244.16 153.74 245.08 154.53 245.42 Z M 155.54 245.85 L 156.40 246.17 C 157.21 246.47 158.11 246.06 158.41 245.25 C 158.71 244.44 158.29 243.54 157.48 243.24 L 156.62 242.92 C 155.81 242.62 154.91 243.04 154.61 243.85 C 154.31 244.66 154.73 245.55 155.54 245.85 Z"
      fill="black"
      fill-rule="nonzero" /></svg>