<svg xmlns="http://www.w3.org/2000/svg" width="300" height="300" viewBox="0 0 300 300">
<path d="M 54.59 68.80 L 54.60 69.75 C 54.60 70.61 55.30 71.31 56.16 71.31 C 57.03 71.30 57.72 70.60 57.72 69.74 L 57.71 68.79 C 57.71 67.93 57.01 67.23 56.15 67.24 C 55.28 67.24 54.59 67.94 54.59 68.80 Z M 54.60 69.79 L 54.63 70.75 C 54.65 71.61 55.37 72.29 56.23 72.26 C 57.09 72.24 57.77 71.52 57.75 70.66 L 57.72 69.70 C 57.69 68.84 56.97 68.16 56.11 68.18 C 55.25 68.21 54.57 68.93 54.60 69.79 Z M 54.63 70.83 L 54.71 71.81 C 54.77 72.67 55.53 73.31 56.39 73.25 C 57.25 73.18 57.89 72.43 57.82 71.57 L 57.74 70.58 C 57.67 69.72 56.92 69.08 56.06 69.15 C 55.20 69.22 54.56 69.97 54.63 70.83 Z M 54.72 71.92 L 54.87 72.94 C 55.00 73.79 55.79 74.38 56.64 74.25 C 57.50 74.13 58.08 73.33 57.96 72.48 L 57.81 71.46 C 57.68 70.61 56.89 70.02 56.04 70.14 C 55.18 70.27 54.59 71.06 54.72 71.92 Z M 54.89 73.06 L 55.13 74.09 C 55.32 74.93 56.16 75.45 57.00 75.26 C 57.84 75.07 58.37 74.23 58.17 73.39 L 57.94 72.36 C 57.74 71.52 56.90 70.99 56.06 71.19 C 55.22 71.38 54.70 72.22 54.89 73.06 Z M 55.16 74.20 L 55.45 75.13 C 55.70 75.96 56.57 76.42 57.40 76.17 C 58.22 75.91 58.68 75.04 58.43 74.22 L 58.14 73.28 C 57.89 72.46 57.02 71.99 56.19 72.25 C 55.37 72.50 54.91 73.37 55.16 74.20 Z M 55.47 75.21 L 55.82 76.16 C 56.11 76.97 57.01 77.39 57.82 77.10 C 58.63 76.80 59.05 75.91 58.75 75.10 L 58.41 74.14 C 58.11 73.33 57.22 72.91 56.41 73.21 C 55.60 73.50 55.18 74.40 55.47 75.21 Z M 55.84 76.21 L 56.22 77.17 C 56.54 77.97 57.45 78.35 58.25 78.03 C 59.05 77.71 59.44 76.80 59.12 76.00 L 58.73 75.05 C 58.41 74.25 57.50 73.86 56.70 74.18 C 55.90 74.50 55.51 75.41 55.84 76.21 Z M 56.23 77.20 L 56.64 78.14 C 56.98 78.93 57.90 79.30 58.69 78.96 C 59.48 78.61 59.85 77.70 59.51 76.90 L 59.10 75.97 C 58.76 75.17 57.84 74.81 57.05 75.15 C 56.26 75.49 55.89 76.41 56.23 77.20 Z M 56.65 78.16 L 57.05 79.06 C 57.40 79.85 58.32 80.20 59.11 79.85 C 59.90 79.50 60.25 78.57 59.90 77.79 L 59.50 76.88 C 59.15 76.10 58.22 75.74 57.44 76.10 C 56.65 76.45 56.30 77.37 56.65 78.16 Z M 57.05 79.07 L 57.48 80.01 C 57.84 80.80 58.76 81.15 59.55 80.79 C 60.33 80.44 60.68 79.51 60.33 78.73 L 59.90 77.78 C 59.54 77.00 58.62 76.65 57.83 77.00 C 57.05 77.36 56.70 78.28 57.05 79.07 Z M 57.48 80.01 L 57.91 80.97 C 58.26 81.75 59.19 82.10 59.97 81.75 C 60.76 81.40 61.11 80.47 60.76 79.69 L 60.33 78.73 C 59.97 77.94 59.05 77.59 58.26 77.95 C 57.48 78.30 57.13 79.22 57.48 80.01 Z M 57.91 80.96 L 58.31 81.87 C 58.66 82.65 59.59 83.01 60.37 82.65 C 61.16 82.30 61.51 81.38 61.16 80.59 L 60.76 79.69 C 60.41 78.90 59.48 78.55 58.70 78.90 C 57.91 79.25 57.56 80.18 57.91 80.96 Z M 58.31 81.86 L 58.70 82.74 C 59.05 83.52 59.97 83.88 60.76 83.53 C 61.54 83.18 61.90 82.26 61.55 81.47 L 61.16 80.60 C 60.81 79.81 59.89 79.45 59.10 79.80 C 58.32 80.15 57.96 81.07 58.31 81.86 Z M 58.69 82.73 L 59.08 83.60 C 59.42 84.39 60.34 84.75 61.13 84.40 C 61.92 84.06 62.28 83.14 61.94 82.35 L 61.55 81.48 C 61.21 80.69 60.29 80.33 59.50 80.67 C 58.71 81.02 58.35 81.94 58.69 82.73 Z M 59.07 83.60 L 59.46 84.50 C 59.81 85.29 60.73 85.65 61.52 85.31 C 62.31 84.96 62.67 84.04 62.33 83.25 L 61.94 82.35 C 61.59 81.56 60.68 81.20 59.88 81.54 C 59.09 81.88 58.73 82.80 59.07 83.60 Z M 59.46 84.49 L 59.86 85.41 C 60.20 86.20 61.12 86.57 61.91 86.23 C 62.70 85.88 63.07 84.97 62.73 84.17 L 62.33 83.26 C 61.99 82.46 61.07 82.10 60.28 82.44 C 59.49 82.78 59.12 83.70 59.46 84.49 Z M 59.86 85.41 L 60.26 86.34 C 60.60 87.13 61.52 87.49 62.31 87.15 C 63.10 86.81 63.47 85.89 63.13 85.10 L 62.73 84.17 C 62.38 83.38 61.46 83.02 60.67 83.36 C 59.88 83.70 59.52 84.62 59.86 85.41 Z M 60.26 86.34 L 60.66 87.26 C 61.01 88.05 61.93 88.42 62.72 88.07 C 63.51 87.73 63.87 86.81 63.53 86.02 L 63.12 85.09 C 62.78 84.30 61.86 83.94 61.07 84.29 C 60.28 84.63 59.92 85.55 60.26 86.34 Z M 60.67 87.27 L 61.07 88.19 C 61.42 88.98 62.34 89.34 63.13 88.99 C 63.92 88.64 64.28 87.72 63.93 86.93 L 63.52 86.01 C 63.17 85.22 62.25 84.86 61.46 85.21 C 60.67 85.56 60.32 86.48 60.67 87.27 Z M 61.08 88.20 L 61.50 89.13 C 61.85 89.91 62.77 90.26 63.56 89.91 C 64.35 89.55 64.70 88.63 64.34 87.84 L 63.92 86.92 C 63.57 86.13 62.65 85.78 61.86 86.14 C 61.07 86.49 60.72 87.42 61.08 88.20 Z M 61.50 89.14 L 61.92 90.05 C 62.28 90.83 63.20 91.17 63.99 90.81 C 64.77 90.46 65.11 89.53 64.75 88.75 L 64.34 87.83 C 63.98 87.05 63.05 86.71 62.27 87.07 C 61.48 87.42 61.14 88.35 61.50 89.14 Z M 61.92 90.05 L 62.34 90.95 C 62.70 91.73 63.63 92.07 64.41 91.71 C 65.19 91.35 65.53 90.42 65.17 89.64 L 64.75 88.74 C 64.39 87.96 63.46 87.62 62.68 87.98 C 61.90 88.34 61.56 89.27 61.92 90.05 Z M 62.34 90.96 L 62.75 91.85 C 63.12 92.63 64.05 92.97 64.83 92.61 C 65.61 92.24 65.95 91.31 65.58 90.53 L 65.17 89.64 C 64.80 88.86 63.87 88.52 63.09 88.88 C 62.31 89.24 61.97 90.17 62.34 90.96 Z M 62.75 91.85 L 63.18 92.75 C 63.54 93.54 64.47 93.87 65.25 93.51 C 66.03 93.14 66.37 92.21 66.01 91.43 L 65.58 90.53 C 65.22 89.75 64.29 89.41 63.51 89.78 C 62.73 90.14 62.39 91.07 62.75 91.85 Z M 63.18 92.76 L 63.60 93.66 C 63.97 94.44 64.89 94.78 65.68 94.41 C 66.46 94.05 66.79 93.12 66.43 92.34 L 66.00 91.43 C 65.64 90.65 64.71 90.31 63.93 90.68 C 63.15 91.05 62.81 91.97 63.18 92.76 Z M 63.60 93.66 L 64.03 94.57 C 64.40 95.35 65.33 95.68 66.11 95.31 C 66.89 94.95 67.22 94.02 66.85 93.24 L 66.43 92.33 C 66.06 91.55 65.13 91.22 64.35 91.59 C 63.57 91.95 63.23 92.88 63.60 93.66 Z M 64.03 94.57 L 64.46 95.48 C 64.83 96.26 65.76 96.59 66.54 96.22 C 67.32 95.85 67.65 94.91 67.28 94.14 L 66.85 93.23 C 66.48 92.45 65.55 92.12 64.77 92.49 C 63.99 92.86 63.66 93.79 64.03 94.57 Z M 64.46 95.48 L 64.90 96.39 C 65.28 97.17 66.21 97.49 66.99 97.12 C 67.76 96.74 68.09 95.81 67.71 95.03 L 67.28 94.13 C 66.90 93.35 65.97 93.03 65.19 93.40 C 64.42 93.78 64.09 94.71 64.46 95.48 Z M 64.91 96.40 L 65.35 97.31 C 65.73 98.08 66.67 98.40 67.44 98.02 C 68.21 97.64 68.53 96.71 68.15 95.93 L 67.71 95.02 C 67.33 94.25 66.39 93.93 65.62 94.31 C 64.85 94.69 64.53 95.63 64.91 96.40 Z M 65.36 97.32 L 65.81 98.22 C 66.19 98.99 67.13 99.30 67.90 98.92 C 68.67 98.53 68.98 97.59 68.60 96.82 L 68.15 95.92 C 67.76 95.15 66.83 94.84 66.05 95.22 C 65.28 95.61 64.97 96.54 65.36 97.32 Z M 65.81 98.23 L 66.26 99.12 C 66.65 99.88 67.59 100.19 68.36 99.80 C 69.13 99.41 69.44 98.47 69.05 97.70 L 68.59 96.81 C 68.20 96.04 67.26 95.74 66.49 96.13 C 65.72 96.52 65.42 97.46 65.81 98.23 Z M 66.27 99.13 L 66.72 100.00 C 67.12 100.77 68.07 101.06 68.83 100.67 C 69.59 100.27 69.89 99.32 69.49 98.56 L 69.04 97.69 C 68.64 96.92 67.70 96.62 66.93 97.02 C 66.17 97.42 65.87 98.36 66.27 99.13 Z M 66.73 100.02 L 67.22 100.93 C 67.62 101.69 68.57 101.97 69.33 101.57 C 70.09 101.16 70.38 100.22 69.97 99.46 L 69.49 98.55 C 69.08 97.79 68.14 97.50 67.37 97.90 C 66.61 98.31 66.33 99.26 66.73 100.02 Z M 67.23 100.94 L 67.71 101.83 C 68.13 102.58 69.07 102.86 69.83 102.45 C 70.59 102.03 70.86 101.08 70.45 100.33 L 69.96 99.44 C 69.55 98.68 68.60 98.41 67.84 98.82 C 67.09 99.24 66.81 100.18 67.23 100.94 Z M 67.72 101.84 L 68.21 102.71 C 68.63 103.46 69.58 103.72 70.33 103.30 C 71.08 102.88 71.35 101.93 70.93 101.17 L 70.44 100.31 C 70.02 99.56 69.07 99.29 68.31 99.72 C 67.56 100.14 67.30 101.09 67.72 101.84 Z M 68.21 102.72 L 68.70 103.56 C 69.13 104.31 70.09 104.56 70.83 104.13 C 71.58 103.70 71.83 102.74 71.40 102.00 L 70.92 101.16 C 70.49 100.41 69.53 100.16 68.78 100.59 C 68.04 101.02 67.78 101.98 68.21 102.72 Z M 68.71 103.58 L 69.23 104.45 C 69.67 105.19 70.63 105.43 71.37 104.99 C 72.11 104.55 72.35 103.59 71.91 102.85 L 71.39 101.98 C 70.95 101.24 69.99 101.00 69.25 101.44 C 68.51 101.88 68.27 102.84 68.71 103.58 Z M 69.24 104.46 L 69.76 105.32 C 70.21 106.05 71.17 106.28 71.91 105.83 C 72.64 105.38 72.87 104.42 72.42 103.69 L 71.90 102.83 C 71.45 102.10 70.49 101.87 69.75 102.32 C 69.02 102.77 68.79 103.73 69.24 104.46 Z M 69.77 105.33 L 70.30 106.17 C 70.76 106.90 71.72 107.12 72.45 106.66 C 73.18 106.21 73.40 105.24 72.94 104.51 L 72.42 103.67 C 71.96 102.94 70.99 102.72 70.26 103.18 C 69.53 103.64 69.31 104.60 69.77 105.33 Z M 70.31 106.18 L 70.84 107.01 C 71.30 107.74 72.27 107.95 72.99 107.49 C 73.72 107.02 73.93 106.05 73.47 105.33 L 72.93 104.50 C 72.47 103.77 71.50 103.56 70.78 104.03 C 70.05 104.49 69.84 105.46 70.31 106.18 Z M 70.85 107.03 L 71.37 107.82 C 71.84 108.54 72.81 108.74 73.53 108.27 C 74.25 107.80 74.45 106.83 73.98 106.11 L 73.46 105.32 C 72.99 104.59 72.02 104.39 71.30 104.86 C 70.58 105.34 70.37 106.31 70.85 107.03 Z M 71.38 107.84 L 71.93 108.65 C 72.41 109.36 73.38 109.55 74.10 109.06 C 74.81 108.58 75.00 107.61 74.51 106.90 L 73.96 106.09 C 73.48 105.38 72.51 105.19 71.80 105.67 C 71.08 106.16 70.90 107.13 71.38 107.84 Z M 71.95 108.68 L 72.54 109.51 C 73.04 110.21 74.01 110.37 74.72 109.87 C 75.42 109.37 75.58 108.40 75.08 107.69 L 74.49 106.87 C 73.99 106.16 73.02 106.00 72.31 106.50 C 71.61 107.00 71.45 107.98 71.95 108.68 Z M 72.56 109.54 L 73.20 110.39 C 73.72 111.08 74.70 111.21 75.39 110.69 C 76.08 110.17 76.22 109.20 75.70 108.51 L 75.06 107.66 C 74.54 106.97 73.56 106.83 72.87 107.35 C 72.18 107.87 72.04 108.85 72.56 109.54 Z M 73.23 110.42 L 73.85 111.20 C 74.39 111.87 75.37 111.99 76.04 111.45 C 76.72 110.91 76.83 109.93 76.29 109.25 L 75.67 108.47 C 75.13 107.80 74.15 107.69 73.48 108.23 C 72.80 108.76 72.69 109.75 73.23 110.42 Z M 73.87 111.23 L 74.53 112.01 C 75.08 112.67 76.06 112.76 76.72 112.21 C 77.39 111.66 77.48 110.68 76.93 110.01 L 76.27 109.23 C 75.72 108.57 74.73 108.48 74.07 109.03 C 73.41 109.58 73.32 110.56 73.87 111.23 Z M 74.55 112.04 L 75.21 112.81 C 75.78 113.46 76.76 113.53 77.42 112.97 C 78.07 112.40 78.14 111.41 77.57 110.76 L 76.91 109.99 C 76.34 109.34 75.36 109.27 74.70 109.83 C 74.05 110.40 73.98 111.38 74.55 112.04 Z M 75.23 112.83 L 75.89 113.56 C 76.47 114.21 77.46 114.26 78.10 113.68 C 78.74 113.10 78.79 112.12 78.22 111.48 L 77.55 110.74 C 76.98 110.10 75.99 110.05 75.35 110.62 C 74.71 111.20 74.66 112.19 75.23 112.83 Z M 75.92 113.59 L 76.63 114.34 C 77.22 114.97 78.20 115.00 78.83 114.41 C 79.46 113.82 79.49 112.83 78.90 112.21 L 78.19 111.45 C 77.60 110.82 76.61 110.79 75.99 111.38 C 75.36 111.97 75.33 112.96 75.92 113.59 Z M 76.66 114.38 L 77.41 115.12 C 78.02 115.73 79.01 115.72 79.62 115.11 C 80.22 114.50 80.22 113.51 79.60 112.90 L 78.86 112.16 C 78.25 111.56 77.26 111.56 76.65 112.18 C 76.05 112.79 76.05 113.78 76.66 114.38 Z M 77.48 115.18 L 78.21 115.83 C 78.86 116.39 79.84 116.33 80.41 115.68 C 80.98 115.03 80.92 114.05 80.27 113.48 L 79.54 112.84 C 78.89 112.27 77.90 112.33 77.33 112.98 C 76.76 113.63 76.83 114.61 77.48 115.18 Z M 78.31 115.91 L 79.06 116.46 C 79.75 116.98 80.73 116.83 81.24 116.14 C 81.76 115.44 81.61 114.47 80.92 113.95 L 80.17 113.40 C 79.47 112.88 78.50 113.03 77.98 113.72 C 77.47 114.42 77.62 115.39 78.31 115.91 Z M 79.21 116.56 L 80.16 117.11 C 80.91 117.54 81.86 117.29 82.29 116.54 C 82.73 115.80 82.47 114.84 81.73 114.41 L 80.77 113.86 C 80.03 113.42 79.07 113.68 78.64 114.43 C 78.21 115.17 78.46 116.13 79.21 116.56 Z M 80.40 117.22 L 81.39 117.59 C 82.20 117.89 83.09 117.48 83.39 116.67 C 83.69 115.86 83.28 114.96 82.47 114.66 L 81.49 114.30 C 80.68 114.00 79.78 114.41 79.48 115.22 C 79.18 116.03 79.59 116.92 80.40 117.22 Z M 81.87 117.69 L 82.73 117.72 C 83.59 117.75 84.31 117.07 84.34 116.21 C 84.37 115.35 83.70 114.63 82.84 114.60 L 81.99 114.57 C 81.12 114.53 80.40 115.21 80.37 116.07 C 80.34 116.93 81.01 117.65 81.87 117.69 Z M 83.67 117.44 L 84.34 116.98 C 85.05 116.49 85.22 115.52 84.73 114.81 C 84.24 114.10 83.27 113.92 82.56 114.41 L 81.89 114.87 C 81.18 115.36 81.01 116.34 81.50 117.04 C 81.99 117.75 82.96 117.93 83.67 117.44 Z M 84.81 116.46 L 85.29 115.60 C 85.72 114.85 85.45 113.90 84.70 113.47 C 83.95 113.05 83.00 113.32 82.57 114.07 L 82.09 114.93 C 81.66 115.68 81.93 116.63 82.68 117.06 C 83.43 117.48 84.38 117.21 84.81 116.46 Z M 85.34 115.51 L 85.81 114.53 C 86.19 113.76 85.87 112.83 85.09 112.45 C 84.31 112.07 83.38 112.40 83.00 113.17 L 82.53 114.15 C 82.15 114.93 82.48 115.86 83.25 116.24 C 84.03 116.61 84.96 116.29 85.34 115.51 Z M 85.71 114.72 L 86.25 113.91 C 86.72 113.19 86.53 112.22 85.81 111.74 C 85.09 111.27 84.13 111.46 83.65 112.18 L 83.11 112.99 C 82.63 113.71 82.83 114.68 83.54 115.15 C 84.26 115.63 85.23 115.44 85.71 114.72 Z M 86.06 114.14 L 86.76 113.43 C 87.36 112.81 87.35 111.83 86.73 111.22 C 86.12 110.62 85.13 110.63 84.53 111.24 L 83.83 111.95 C 83.23 112.57 83.24 113.56 83.85 114.16 C 84.47 114.76 85.46 114.75 86.06 114.14 Z M 86.49 113.65 L 87.35 113.09 C 88.08 112.62 88.28 111.65 87.81 110.93 C 87.34 110.21 86.38 110.00 85.65 110.47 L 84.79 111.03 C 84.07 111.50 83.86 112.46 84.33 113.19 C 84.80 113.91 85.77 114.12 86.49 113.65 Z M 87.08 113.23 L 87.89 112.90 C 88.69 112.58 89.08 111.67 88.76 110.87 C 88.44 110.07 87.53 109.68 86.73 110.00 L 85.92 110.33 C 85.12 110.65 84.73 111.56 85.05 112.36 C 85.37 113.16 86.28 113.55 87.08 113.23 Z M 87.71 112.96 L 88.63 112.72 C 89.47 112.51 89.97 111.65 89.75 110.82 C 89.53 109.98 88.68 109.48 87.84 109.70 L 86.92 109.94 C 86.08 110.16 85.58 111.01 85.80 111.85 C 86.02 112.68 86.87 113.18 87.71 112.96 Z M 88.51 112.75 L 89.54 112.57 C 90.39 112.42 90.96 111.61 90.81 110.76 C 90.66 109.91 89.85 109.35 89.00 109.49 L 87.97 109.68 C 87.12 109.82 86.55 110.63 86.70 111.48 C 86.85 112.33 87.66 112.90 88.51 112.75 Z M 89.46 112.58 L 90.58 112.44 C 91.44 112.33 92.04 111.55 91.93 110.69 C 91.83 109.84 91.04 109.23 90.19 109.34 L 89.07 109.48 C 88.22 109.59 87.61 110.37 87.72 111.23 C 87.83 112.08 88.61 112.69 89.46 112.58 Z M 90.55 112.44 L 91.44 112.35 C 92.30 112.26 92.92 111.49 92.83 110.64 C 92.75 109.78 91.98 109.16 91.12 109.24 L 90.22 109.34 C 89.37 109.43 88.74 110.19 88.83 111.05 C 88.92 111.91 89.69 112.53 90.55 112.44 Z M 91.42 112.35 L 92.36 112.27 C 93.22 112.19 93.86 111.44 93.78 110.58 C 93.71 109.72 92.95 109.08 92.09 109.16 L 91.15 109.24 C 90.29 109.32 89.65 110.08 89.73 110.93 C 89.80 111.79 90.56 112.43 91.42 112.35 Z M 92.34 112.27 L 93.33 112.20 C 94.19 112.14 94.84 111.39 94.78 110.53 C 94.71 109.67 93.97 109.02 93.11 109.09 L 92.11 109.16 C 91.25 109.22 90.61 109.97 90.67 110.83 C 90.73 111.69 91.48 112.33 92.34 112.27 Z M 93.31 112.20 L 94.35 112.14 C 95.21 112.09 95.87 111.35 95.81 110.49 C 95.76 109.63 95.03 108.97 94.17 109.02 L 93.13 109.08 C 92.27 109.13 91.61 109.87 91.66 110.73 C 91.71 111.59 92.45 112.25 93.31 112.20 Z M 94.33 112.14 L 95.41 112.09 C 96.27 112.05 96.93 111.33 96.90 110.46 C 96.86 109.60 96.13 108.94 95.27 108.97 L 94.19 109.02 C 93.33 109.06 92.66 109.79 92.70 110.65 C 92.74 111.51 93.46 112.18 94.33 112.14 Z M 95.39 112.09 L 96.41 112.06 C 97.27 112.03 97.95 111.31 97.92 110.45 C 97.90 109.59 97.18 108.91 96.31 108.94 L 95.29 108.97 C 94.42 109.00 93.75 109.72 93.78 110.58 C 93.80 111.44 94.52 112.12 95.39 112.09 Z M 96.40 112.06 L 97.40 112.04 C 98.26 112.02 98.94 111.31 98.92 110.45 C 98.91 109.58 98.19 108.90 97.33 108.92 L 96.33 108.94 C 95.47 108.96 94.78 109.67 94.80 110.53 C 94.82 111.40 95.53 112.08 96.40 112.06 Z M 97.38 112.04 L 98.40 112.03 C 99.26 112.01 99.95 111.31 99.94 110.44 C 99.93 109.58 99.22 108.89 98.35 108.90 L 97.34 108.92 C 96.48 108.93 95.79 109.64 95.80 110.50 C 95.81 111.36 96.52 112.05 97.38 112.04 Z M 98.39 112.03 L 99.40 112.02 C 100.27 112.01 100.96 111.31 100.95 110.45 C 100.95 109.58 100.24 108.89 99.38 108.90 L 98.36 108.90 C 97.50 108.91 96.81 109.62 96.81 110.48 C 96.82 111.34 97.53 112.03 98.39 112.03 Z M 99.40 112.02 L 100.41 112.02 C 101.27 112.01 101.97 111.31 101.96 110.45 C 101.96 109.59 101.26 108.89 100.40 108.89 L 99.39 108.90 C 98.52 108.90 97.83 109.60 97.83 110.46 C 97.83 111.33 98.54 112.02 99.40 112.02 Z M 100.40 112.02 L 101.39 112.01 C 102.26 112.01 102.95 111.31 102.95 110.45 C 102.95 109.59 102.25 108.89 101.39 108.89 L 100.40 108.89 C 99.54 108.89 98.84 109.59 98.84 110.46 C 98.84 111.32 99.54 112.02 100.40 112.02 Z M 101.39 112.01 L 102.40 112.01 C 103.26 112.01 103.96 111.31 103.96 110.45 C 103.96 109.59 103.26 108.89 102.40 108.89 L 101.39 108.89 C 100.53 108.89 99.83 109.59 99.83 110.45 C 99.83 111.32 100.53 112.01 101.39 112.01 Z M 102.40 112.01 L 103.43 112.01 C 104.29 112.01 104.99 111.31 104.99 110.45 C 104.99 109.59 104.29 108.89 103.43 108.89 L 102.40 108.89 C 101.54 108.89 100.84 109.59 100.84 110.45 C 100.84 111.31 101.54 112.01 102.40 112.01 Z M 103.43 112.01 L 104.44 112.01 C 105.30 112.01 106.00 111.31 106.00 110.45 C 106.00 109.59 105.30 108.89 104.44 108.89 L 103.43 108.89 C 102.57 108.89 101.87 109.59 101.87 110.45 C 101.87 111.31 102.57 112.01 103.43 112.01 Z M 104.44 112.01 L 105.42 112.01 C 106.28 112.01 106.98 111.31 106.98 110.45 C 106.98 109.59 106.28 108.89 105.42 108.89 L 104.44 108.89 C 103.57 108.89 102.88 109.59 102.88 110.45 C 102.88 111.31 103.57 112.01 104.44 112.01 Z M 105.42 112.01 L 106.40 112.01 C 107.26 112.01 107.96 111.31 107.96 110.45 C 107.96 109.59 107.26 108.89 106.40 108.89 L 105.42 108.89 C 104.56 108.89 103.86 109.59 103.86 110.45 C 103.86 111.31 104.56 112.01 105.42 112.01 Z M 106.40 112.01 L 107.38 112.01 C 108.24 112.01 108.94 111.31 108.94 110.45 C 108.94 109.59 108.24 108.89 107.38 108.89 L 106.40 108.89 C 105.54 108.89 104.84 109.59 104.84 110.45 C 104.84 111.31 105.54 112.01 106.40 112.01 Z M 107.38 112.01 L 108.42 112.01 C 109.28 112.01 109.98 111.32 109.98 110.45 C 109.98 109.59 109.28 108.89 108.42 108.89 L 107.38 108.89 C 106.52 108.89 105.82 109.59 105.82 110.45 C 105.82 111.31 106.52 112.01 107.38 112.01 Z M 108.41 112.01 L 109.46 112.02 C 110.32 112.02 111.02 111.32 111.03 110.46 C 111.03 109.59 110.33 108.89 109.47 108.89 L 108.42 108.89 C 107.56 108.89 106.86 109.59 106.86 110.45 C 106.85 111.31 107.55 112.01 108.41 112.01 Z M 109.46 112.02 L 110.49 112.02 C 111.35 112.03 112.05 111.33 112.06 110.47 C 112.06 109.61 111.36 108.90 110.50 108.90 L 109.47 108.89 C 108.61 108.89 107.91 109.58 107.90 110.45 C 107.90 111.31 108.60 112.01 109.46 112.02 Z M 110.48 112.02 L 111.47 112.03 C 112.33 112.04 113.04 111.35 113.05 110.49 C 113.06 109.62 112.36 108.92 111.50 108.91 L 110.51 108.90 C 109.65 108.89 108.94 109.58 108.93 110.44 C 108.92 111.31 109.62 112.01 110.48 112.02 Z M 111.46 112.03 L 112.39 112.05 C 113.26 112.06 113.97 111.38 113.98 110.52 C 114.00 109.65 113.31 108.94 112.45 108.93 L 111.52 108.91 C 110.65 108.89 109.94 109.58 109.93 110.44 C 109.91 111.30 110.60 112.01 111.46 112.03 Z M 112.37 112.05 L 113.41 112.08 C 114.27 112.11 114.99 111.43 115.02 110.57 C 115.05 109.71 114.37 108.99 113.51 108.96 L 112.47 108.93 C 111.61 108.90 110.89 109.58 110.86 110.44 C 110.84 111.30 111.51 112.02 112.37 112.05 Z M 113.38 112.08 L 114.43 112.13 C 115.29 112.17 116.03 111.51 116.07 110.65 C 116.11 109.78 115.45 109.05 114.58 109.01 L 113.53 108.96 C 112.67 108.92 111.94 109.58 111.90 110.44 C 111.86 111.31 112.52 112.04 113.38 112.08 Z M 114.41 112.13 L 115.37 112.19 C 116.23 112.24 116.98 111.59 117.03 110.73 C 117.09 109.87 116.43 109.13 115.57 109.07 L 114.61 109.01 C 113.75 108.96 113.01 109.61 112.95 110.47 C 112.90 111.33 113.55 112.07 114.41 112.13 Z M 115.36 112.19 L 116.28 112.26 C 117.14 112.32 117.89 111.67 117.95 110.81 C 118.01 109.95 117.37 109.20 116.51 109.14 L 115.59 109.07 C 114.73 109.01 113.98 109.66 113.92 110.52 C 113.85 111.38 114.50 112.13 115.36 112.19 Z M 116.28 112.26 L 117.23 112.33 C 118.08 112.39 118.83 111.75 118.90 110.89 C 118.96 110.03 118.32 109.28 117.46 109.21 L 116.51 109.14 C 115.65 109.08 114.90 109.72 114.84 110.58 C 114.77 111.44 115.42 112.19 116.28 112.26 Z M 117.22 112.33 L 118.20 112.40 C 119.06 112.47 119.81 111.82 119.88 110.96 C 119.94 110.10 119.30 109.35 118.44 109.29 L 117.46 109.21 C 116.60 109.15 115.85 109.79 115.79 110.65 C 115.72 111.51 116.36 112.26 117.22 112.33 Z M 118.20 112.40 L 119.20 112.48 C 120.06 112.55 120.81 111.91 120.88 111.05 C 120.95 110.19 120.31 109.44 119.45 109.37 L 118.44 109.29 C 117.59 109.22 116.83 109.86 116.77 110.72 C 116.70 111.58 117.34 112.33 118.20 112.40 Z M 119.19 112.48 L 120.22 112.57 C 121.08 112.64 121.84 112.00 121.91 111.14 C 121.98 110.28 121.34 109.53 120.48 109.45 L 119.45 109.37 C 118.60 109.30 117.84 109.93 117.77 110.79 C 117.70 111.65 118.34 112.41 119.19 112.48 Z M 120.21 112.57 L 121.15 112.65 C 122.01 112.72 122.77 112.09 122.85 111.23 C 122.92 110.37 122.29 109.61 121.43 109.54 L 120.49 109.46 C 119.63 109.38 118.87 110.01 118.80 110.87 C 118.72 111.73 119.35 112.49 120.21 112.57 Z M 121.15 112.65 L 122.12 112.74 C 122.98 112.82 123.74 112.18 123.82 111.32 C 123.90 110.47 123.27 109.71 122.41 109.63 L 121.43 109.54 C 120.57 109.46 119.82 110.09 119.74 110.95 C 119.66 111.81 120.29 112.57 121.15 112.65 Z M 122.12 112.74 L 123.13 112.83 C 123.99 112.91 124.75 112.28 124.83 111.42 C 124.91 110.56 124.28 109.80 123.42 109.72 L 122.41 109.63 C 121.55 109.55 120.79 110.18 120.71 111.04 C 120.63 111.90 121.26 112.66 122.12 112.74 Z M 123.14 112.83 L 124.19 112.93 C 125.05 113.00 125.81 112.37 125.89 111.51 C 125.96 110.65 125.33 109.89 124.47 109.82 L 123.42 109.72 C 122.56 109.64 121.80 110.28 121.72 111.14 C 121.64 111.99 122.28 112.75 123.14 112.83 Z M 124.20 112.93 L 125.18 113.01 C 126.04 113.09 126.80 112.45 126.87 111.59 C 126.95 110.73 126.31 109.98 125.45 109.90 L 124.47 109.82 C 123.61 109.74 122.85 110.38 122.78 111.24 C 122.70 112.09 123.34 112.85 124.20 112.93 Z M 125.19 113.01 L 126.18 113.10 C 127.04 113.17 127.80 112.53 127.87 111.67 C 127.94 110.81 127.30 110.06 126.44 109.98 L 125.45 109.90 C 124.59 109.83 123.83 110.47 123.76 111.33 C 123.69 112.19 124.33 112.94 125.19 113.01 Z M 126.19 113.10 L 127.20 113.18 C 128.05 113.25 128.81 112.61 128.88 111.75 C 128.95 110.89 128.30 110.13 127.45 110.06 L 126.44 109.98 C 125.58 109.91 124.83 110.56 124.76 111.41 C 124.69 112.27 125.33 113.03 126.19 113.10 Z M 127.20 113.18 L 128.21 113.25 C 129.07 113.32 129.82 112.68 129.88 111.82 C 129.95 110.96 129.31 110.21 128.45 110.14 L 127.44 110.06 C 126.58 110.00 125.83 110.64 125.76 111.50 C 125.70 112.36 126.34 113.11 127.20 113.18 Z M 128.21 113.26 L 129.22 113.33 C 130.08 113.39 130.82 112.74 130.89 111.88 C 130.95 111.02 130.30 110.28 129.44 110.21 L 128.44 110.14 C 127.58 110.08 126.83 110.72 126.77 111.58 C 126.71 112.44 127.35 113.19 128.21 113.26 Z M 129.22 113.33 L 130.24 113.40 C 131.10 113.46 131.84 112.81 131.90 111.95 C 131.96 111.09 131.31 110.34 130.45 110.28 L 129.44 110.21 C 128.58 110.15 127.83 110.80 127.77 111.66 C 127.71 112.52 128.36 113.27 129.22 113.33 Z M 130.24 113.40 L 131.24 113.47 C 132.10 113.52 132.84 112.87 132.90 112.01 C 132.96 111.15 132.31 110.41 131.45 110.35 L 130.45 110.28 C 129.59 110.23 128.85 110.88 128.79 111.74 C 128.73 112.60 129.38 113.34 130.24 113.40 Z M 131.24 113.47 L 132.23 113.53 C 133.09 113.59 133.83 112.94 133.89 112.08 C 133.95 111.22 133.30 110.48 132.44 110.42 L 131.45 110.35 C 130.59 110.29 129.84 110.94 129.79 111.80 C 129.73 112.66 130.38 113.41 131.24 113.47 Z M 132.22 113.53 L 133.21 113.60 C 134.07 113.66 134.81 113.01 134.88 112.15 C 134.94 111.29 134.29 110.55 133.43 110.49 L 132.44 110.42 C 131.58 110.36 130.84 111.00 130.78 111.86 C 130.71 112.72 131.36 113.47 132.22 113.53 Z M 133.20 113.60 L 134.19 113.68 C 135.05 113.74 135.80 113.10 135.87 112.24 C 135.93 111.38 135.29 110.63 134.43 110.56 L 133.44 110.49 C 132.58 110.42 131.83 111.07 131.76 111.93 C 131.70 112.79 132.34 113.54 133.20 113.60 Z M 134.18 113.68 L 135.18 113.76 C 136.04 113.83 136.79 113.19 136.86 112.33 C 136.93 111.47 136.29 110.72 135.43 110.65 L 134.44 110.56 C 133.58 110.49 132.82 111.13 132.75 111.99 C 132.68 112.85 133.32 113.60 134.18 113.68 Z M 135.17 113.76 L 136.17 113.84 C 137.03 113.92 137.78 113.29 137.86 112.43 C 137.94 111.57 137.30 110.81 136.44 110.73 L 135.44 110.65 C 134.58 110.57 133.83 111.20 133.75 112.06 C 133.67 112.92 134.31 113.68 135.17 113.76 Z M 136.16 113.84 L 137.15 113.94 C 138.01 114.02 138.77 113.39 138.86 112.53 C 138.94 111.67 138.31 110.91 137.45 110.83 L 136.45 110.74 C 135.59 110.65 134.83 111.28 134.75 112.14 C 134.67 113.00 135.30 113.76 136.16 113.84 Z M 137.14 113.94 L 138.14 114.04 C 139.00 114.13 139.76 113.50 139.85 112.65 C 139.94 111.79 139.32 111.02 138.46 110.93 L 137.46 110.83 C 136.60 110.74 135.84 111.37 135.75 112.23 C 135.66 113.08 136.28 113.85 137.14 113.94 Z M 138.13 114.04 L 139.14 114.15 C 140.00 114.24 140.77 113.62 140.86 112.77 C 140.96 111.91 140.34 111.14 139.48 111.05 L 138.47 110.93 C 137.61 110.84 136.84 111.46 136.75 112.32 C 136.65 113.17 137.27 113.95 138.13 114.04 Z M 139.14 114.15 L 140.14 114.26 C 141.00 114.36 141.77 113.74 141.87 112.89 C 141.96 112.03 141.35 111.26 140.49 111.16 L 139.49 111.05 C 138.63 110.95 137.86 111.56 137.76 112.42 C 137.66 113.28 138.28 114.05 139.14 114.15 Z M 140.14 114.26 L 141.13 114.38 C 141.98 114.47 142.76 113.86 142.85 113.00 C 142.95 112.15 142.34 111.37 141.48 111.27 L 140.49 111.16 C 139.64 111.06 138.86 111.68 138.76 112.53 C 138.67 113.39 139.28 114.16 140.14 114.26 Z M 141.13 114.38 L 142.10 114.49 C 142.96 114.58 143.73 113.97 143.83 113.11 C 143.92 112.25 143.31 111.48 142.45 111.38 L 141.48 111.27 C 140.62 111.18 139.85 111.79 139.75 112.65 C 139.66 113.51 140.27 114.28 141.13 114.38 Z M 142.10 114.49 L 143.13 114.60 C 143.98 114.69 144.76 114.07 144.85 113.22 C 144.94 112.36 144.32 111.59 143.47 111.49 L 142.44 111.38 C 141.59 111.29 140.82 111.91 140.72 112.76 C 140.63 113.62 141.25 114.39 142.10 114.49 Z M 143.13 114.60 L 144.14 114.71 C 145.00 114.80 145.77 114.18 145.86 113.32 C 145.95 112.46 145.33 111.69 144.47 111.60 L 143.46 111.49 C 142.60 111.40 141.84 112.03 141.74 112.88 C 141.65 113.74 142.28 114.51 143.13 114.60 Z M 144.15 114.71 L 145.13 114.81 C 145.99 114.90 146.76 114.27 146.85 113.42 C 146.94 112.56 146.31 111.79 145.45 111.70 L 144.47 111.60 C 143.61 111.51 142.84 112.13 142.75 112.99 C 142.67 113.85 143.29 114.62 144.15 114.71 Z M 145.13 114.81 L 146.09 114.91 C 146.95 115.00 147.72 114.38 147.81 113.52 C 147.90 112.66 147.27 111.89 146.42 111.80 L 145.46 111.70 C 144.60 111.61 143.83 112.24 143.74 113.09 C 143.65 113.95 144.27 114.72 145.13 114.81 Z M 146.09 114.91 L 147.09 115.01 C 147.94 115.11 148.71 114.48 148.80 113.63 C 148.90 112.77 148.27 112.00 147.42 111.91 L 146.42 111.80 C 145.56 111.71 144.79 112.33 144.70 113.19 C 144.61 114.05 145.23 114.82 146.09 114.91 Z M 147.08 115.01 L 148.07 115.12 C 148.93 115.22 149.70 114.60 149.79 113.74 C 149.89 112.89 149.27 112.11 148.41 112.02 L 147.42 111.91 C 146.57 111.82 145.80 112.43 145.70 113.29 C 145.61 114.15 146.22 114.92 147.08 115.01 Z M 148.06 115.12 L 149.05 115.24 C 149.91 115.34 150.68 114.72 150.78 113.87 C 150.88 113.01 150.27 112.23 149.41 112.14 L 148.42 112.02 C 147.57 111.92 146.79 112.54 146.69 113.39 C 146.59 114.25 147.21 115.02 148.06 115.12 Z M 149.04 115.24 L 150.02 115.36 C 150.88 115.46 151.66 114.85 151.76 114.00 C 151.87 113.14 151.26 112.36 150.40 112.26 L 149.42 112.14 C 148.56 112.03 147.78 112.64 147.68 113.50 C 147.57 114.35 148.18 115.13 149.04 115.24 Z M 150.01 115.35 L 150.94 115.47 C 151.80 115.58 152.58 114.98 152.69 114.12 C 152.80 113.27 152.20 112.49 151.34 112.38 L 150.41 112.26 C 149.55 112.15 148.77 112.75 148.66 113.61 C 148.55 114.46 149.16 115.25 150.01 115.35 Z M 150.94 115.47 L 151.90 115.60 C 152.76 115.71 153.54 115.11 153.65 114.25 C 153.76 113.40 153.16 112.61 152.31 112.50 L 151.34 112.38 C 150.49 112.27 149.70 112.87 149.59 113.72 C 149.48 114.58 150.09 115.36 150.94 115.47 Z M 151.91 115.60 L 152.92 115.73 C 153.78 115.84 154.56 115.23 154.67 114.38 C 154.78 113.52 154.17 112.74 153.32 112.63 L 152.30 112.50 C 151.45 112.39 150.67 113.00 150.56 113.85 C 150.45 114.71 151.05 115.49 151.91 115.60 Z M 152.93 115.73 L 153.99 115.86 C 154.85 115.96 155.62 115.35 155.73 114.49 C 155.83 113.64 155.22 112.86 154.37 112.76 L 153.31 112.63 C 152.45 112.53 151.67 113.14 151.57 113.99 C 151.47 114.85 152.08 115.63 152.93 115.73 Z M 154.00 115.86 L 154.87 115.96 C 155.72 116.05 156.50 115.44 156.59 114.58 C 156.69 113.72 156.07 112.95 155.22 112.85 L 154.35 112.76 C 153.50 112.66 152.72 113.27 152.63 114.13 C 152.53 114.99 153.15 115.76 154.00 115.86 Z M 154.88 115.96 L 155.80 116.05 C 156.66 116.14 157.42 115.52 157.51 114.66 C 157.60 113.80 156.98 113.04 156.12 112.95 L 155.20 112.85 C 154.35 112.76 153.58 113.39 153.49 114.24 C 153.40 115.10 154.02 115.87 154.88 115.96 Z M 155.82 116.06 L 156.80 116.14 C 157.66 116.22 158.42 115.59 158.49 114.73 C 158.57 113.87 157.94 113.11 157.08 113.04 L 156.10 112.95 C 155.24 112.87 154.48 113.50 154.41 114.36 C 154.33 115.22 154.96 115.98 155.82 116.06 Z M 156.82 116.15 L 157.87 116.23 C 158.73 116.30 159.48 115.65 159.54 114.79 C 159.61 113.93 158.97 113.18 158.11 113.12 L 157.06 113.03 C 156.20 112.97 155.45 113.61 155.38 114.47 C 155.32 115.33 155.96 116.08 156.82 116.15 Z M 157.89 116.23 L 159.01 116.30 C 159.87 116.36 160.62 115.70 160.67 114.84 C 160.73 113.98 160.07 113.24 159.21 113.19 L 158.09 113.11 C 157.23 113.06 156.48 113.71 156.43 114.57 C 156.37 115.43 157.03 116.18 157.89 116.23 Z M 159.03 116.30 L 160.05 116.35 C 160.91 116.40 161.65 115.73 161.69 114.87 C 161.73 114.01 161.07 113.28 160.21 113.24 L 159.19 113.18 C 158.33 113.14 157.60 113.81 157.55 114.67 C 157.51 115.53 158.17 116.26 159.03 116.30 Z M 160.07 116.36 L 161.05 116.39 C 161.91 116.43 162.63 115.76 162.67 114.90 C 162.70 114.03 162.03 113.31 161.17 113.27 L 160.19 113.24 C 159.33 113.20 158.60 113.87 158.57 114.73 C 158.54 115.60 159.21 116.32 160.07 116.36 Z M 161.06 116.39 L 162.07 116.43 C 162.93 116.45 163.65 115.78 163.68 114.91 C 163.70 114.05 163.03 113.33 162.17 113.30 L 161.16 113.27 C 160.30 113.25 159.58 113.92 159.55 114.78 C 159.52 115.65 160.20 116.37 161.06 116.39 Z M 162.08 116.43 L 163.10 116.45 C 163.96 116.47 164.68 115.79 164.70 114.93 C 164.72 114.07 164.04 113.35 163.18 113.33 L 162.16 113.30 C 161.29 113.28 160.58 113.96 160.56 114.83 C 160.53 115.69 161.22 116.40 162.08 116.43 Z M 163.11 116.45 L 164.14 116.47 C 165.00 116.49 165.71 115.80 165.73 114.94 C 165.74 114.08 165.06 113.37 164.20 113.35 L 163.17 113.33 C 162.31 113.31 161.60 114.00 161.58 114.86 C 161.56 115.72 162.25 116.43 163.11 116.45 Z M 164.14 116.47 L 165.16 116.49 C 166.02 116.50 166.73 115.81 166.74 114.95 C 166.76 114.09 166.07 113.38 165.21 113.37 L 164.19 113.35 C 163.33 113.34 162.62 114.02 162.61 114.89 C 162.59 115.75 163.28 116.46 164.14 116.47 Z M 165.16 116.49 L 166.16 116.50 C 167.02 116.51 167.72 115.82 167.74 114.96 C 167.75 114.10 167.06 113.39 166.19 113.38 L 165.20 113.37 C 164.34 113.36 163.63 114.05 163.62 114.91 C 163.61 115.77 164.30 116.48 165.16 116.49 Z M 166.16 116.50 L 167.23 116.51 C 168.09 116.52 168.80 115.82 168.81 114.96 C 168.81 114.10 168.12 113.40 167.26 113.39 L 166.19 113.38 C 165.33 113.37 164.62 114.06 164.61 114.92 C 164.61 115.79 165.30 116.49 166.16 116.50 Z M 167.23 116.51 L 168.30 116.52 C 169.16 116.52 169.86 115.83 169.87 114.97 C 169.87 114.10 169.18 113.40 168.32 113.39 L 167.26 113.39 C 166.39 113.38 165.69 114.08 165.68 114.94 C 165.68 115.80 166.37 116.50 167.23 116.51 Z M 168.30 116.52 L 169.32 116.52 C 170.18 116.52 170.88 115.83 170.89 114.97 C 170.89 114.10 170.19 113.40 169.33 113.40 L 168.31 113.39 C 167.45 113.39 166.75 114.09 166.75 114.95 C 166.74 115.81 167.44 116.51 168.30 116.52 Z M 169.32 116.52 L 170.30 116.52 C 171.16 116.53 171.87 115.83 171.87 114.97 C 171.87 114.10 171.17 113.40 170.31 113.40 L 169.33 113.40 C 168.47 113.40 167.77 114.09 167.76 114.96 C 167.76 115.82 168.46 116.52 169.32 116.52 Z M 170.30 116.52 L 171.25 116.52 C 172.12 116.53 172.82 115.83 172.82 114.96 C 172.82 114.10 172.12 113.40 171.26 113.40 L 170.31 113.40 C 169.45 113.40 168.75 114.10 168.74 114.96 C 168.74 115.82 169.44 116.52 170.30 116.52 Z M 171.26 116.52 L 172.18 116.52 C 173.05 116.52 173.74 115.83 173.74 114.96 C 173.74 114.10 173.05 113.40 172.18 113.40 L 171.26 113.40 C 170.39 113.40 169.70 114.10 169.70 114.96 C 169.70 115.83 170.39 116.52 171.26 116.52 Z M 172.18 116.52 L 173.19 116.52 C 174.06 116.52 174.76 115.83 174.76 114.96 C 174.76 114.10 174.06 113.40 173.19 113.40 L 172.18 113.40 C 171.32 113.40 170.62 114.10 170.62 114.96 C 170.62 115.83 171.32 116.52 172.18 116.52 Z M 173.19 116.52 L 174.21 116.52 C 175.08 116.52 175.77 115.83 175.77 114.96 C 175.77 114.10 175.08 113.40 174.21 113.40 L 173.19 113.40 C 172.33 113.40 171.63 114.10 171.63 114.96 C 171.63 115.83 172.33 116.52 173.19 116.52 Z M 174.21 116.52 L 175.22 116.52 C 176.08 116.52 176.78 115.83 176.78 114.96 C 176.78 114.10 176.08 113.40 175.22 113.40 L 174.21 113.40 C 173.35 113.40 172.65 114.10 172.65 114.96 C 172.65 115.83 173.35 116.52 174.21 116.52 Z M 175.22 116.52 L 176.20 116.52 C 177.07 116.52 177.76 115.83 177.76 114.96 C 177.76 114.10 177.07 113.40 176.20 113.40 L 175.22 113.40 C 174.35 113.40 173.65 114.10 173.65 114.96 C 173.65 115.83 174.35 116.52 175.22 116.52 Z M 176.20 116.52 L 177.18 116.52 C 178.04 116.52 178.74 115.83 178.74 114.96 C 178.74 114.10 178.04 113.40 177.18 113.40 L 176.20 113.40 C 175.34 113.40 174.64 114.10 174.64 114.96 C 174.64 115.83 175.34 116.52 176.20 116.52 Z M 177.18 116.52 L 178.18 116.52 C 179.04 116.52 179.74 115.83 179.74 114.96 C 179.74 114.10 179.04 113.40 178.18 113.40 L 177.18 113.40 C 176.32 113.40 175.62 114.10 175.62 114.96 C 175.62 115.83 176.32 116.52 177.18 116.52 Z M 178.18 116.52 L 179.20 116.52 C 180.06 116.52 180.76 115.83 180.76 114.96 C 180.76 114.10 180.06 113.40 179.20 113.40 L 178.18 113.40 C 177.32 113.40 176.62 114.10 176.62 114.96 C 176.62 115.83 177.32 116.52 178.18 116.52 Z M 179.20 116.52 L 180.21 116.52 C 181.07 116.52 181.77 115.83 181.77 114.96 C 181.77 114.10 181.07 113.40 180.21 113.40 L 179.20 113.40 C 178.34 113.40 177.64 114.10 177.64 114.96 C 177.64 115.83 178.34 116.52 179.20 116.52 Z M 180.21 116.52 L 181.20 116.52 C 182.06 116.52 182.76 115.83 182.76 114.96 C 182.76 114.10 182.06 113.40 181.20 113.40 L 180.21 113.40 C 179.35 113.40 178.65 114.10 178.65 114.96 C 178.65 115.83 179.35 116.52 180.21 116.52 Z M 181.20 116.52 L 182.18 116.52 C 183.04 116.52 183.74 115.83 183.74 114.96 C 183.74 114.10 183.04 113.40 182.18 113.40 L 181.20 113.40 C 180.34 113.40 179.64 114.10 179.64 114.96 C 179.64 115.83 180.34 116.52 181.20 116.52 Z M 182.18 116.52 L 183.18 116.52 C 184.04 116.53 184.74 115.83 184.74 114.96 C 184.74 114.10 184.04 113.40 183.18 113.40 L 182.18 113.40 C 181.31 113.40 180.62 114.10 180.62 114.96 C 180.62 115.83 181.31 116.52 182.18 116.52 Z M 183.17 116.52 L 184.18 116.53 C 185.04 116.53 185.74 115.84 185.75 114.97 C 185.75 114.11 185.05 113.41 184.19 113.41 L 183.18 113.40 C 182.32 113.40 181.62 114.10 181.62 114.96 C 181.61 115.82 182.31 116.52 183.17 116.52 Z M 184.16 116.53 L 185.16 116.54 C 186.02 116.55 186.73 115.86 186.74 115.00 C 186.75 114.14 186.06 113.43 185.20 113.42 L 184.20 113.41 C 183.34 113.40 182.63 114.08 182.62 114.95 C 182.61 115.81 183.30 116.52 184.16 116.53 Z M 185.14 116.54 L 186.13 116.57 C 186.99 116.59 187.71 115.92 187.73 115.05 C 187.76 114.19 187.08 113.47 186.22 113.45 L 185.22 113.42 C 184.36 113.40 183.64 114.08 183.62 114.94 C 183.59 115.80 184.27 116.52 185.14 116.54 Z M 186.10 116.57 L 187.08 116.62 C 187.94 116.66 188.68 115.99 188.72 115.13 C 188.76 114.27 188.10 113.54 187.23 113.50 L 186.25 113.45 C 185.39 113.41 184.65 114.07 184.61 114.93 C 184.57 115.79 185.23 116.53 186.10 116.57 Z M 187.05 116.61 L 187.99 116.68 C 188.85 116.74 189.60 116.10 189.66 115.24 C 189.73 114.38 189.08 113.63 188.22 113.57 L 187.27 113.50 C 186.41 113.44 185.66 114.08 185.60 114.94 C 185.54 115.80 186.19 116.55 187.05 116.61 Z M 187.96 116.68 L 188.92 116.77 C 189.78 116.86 190.54 116.23 190.62 115.37 C 190.71 114.51 190.08 113.75 189.22 113.67 L 188.26 113.57 C 187.40 113.49 186.64 114.12 186.55 114.97 C 186.47 115.83 187.10 116.60 187.96 116.68 Z M 188.88 116.77 L 189.87 116.89 C 190.73 116.99 191.50 116.39 191.61 115.53 C 191.71 114.67 191.10 113.89 190.25 113.79 L 189.26 113.67 C 188.40 113.56 187.63 114.17 187.52 115.03 C 187.42 115.89 188.02 116.66 188.88 116.77 Z M 189.83 116.88 L 190.85 117.04 C 191.71 117.16 192.50 116.57 192.63 115.72 C 192.75 114.86 192.16 114.07 191.31 113.95 L 190.29 113.80 C 189.43 113.67 188.64 114.26 188.51 115.11 C 188.39 115.97 188.98 116.76 189.83 116.88 Z M 190.82 117.03 L 191.86 117.21 C 192.71 117.35 193.52 116.78 193.67 115.93 C 193.81 115.08 193.24 114.28 192.39 114.13 L 191.34 113.95 C 190.49 113.81 189.69 114.38 189.54 115.23 C 189.40 116.08 189.97 116.88 190.82 117.03 Z M 191.83 117.20 L 192.85 117.40 C 193.69 117.56 194.51 117.00 194.67 116.16 C 194.83 115.31 194.28 114.49 193.43 114.33 L 192.42 114.14 C 191.57 113.97 190.76 114.53 190.59 115.38 C 190.43 116.22 190.99 117.04 191.83 117.20 Z M 192.82 117.39 L 193.84 117.60 C 194.69 117.78 195.51 117.24 195.69 116.39 C 195.86 115.55 195.32 114.72 194.48 114.55 L 193.46 114.33 C 192.61 114.16 191.79 114.70 191.61 115.55 C 191.43 116.39 191.98 117.22 192.82 117.39 Z M 193.82 117.60 L 194.83 117.82 C 195.67 118.01 196.50 117.48 196.69 116.64 C 196.88 115.79 196.34 114.96 195.50 114.77 L 194.50 114.55 C 193.66 114.36 192.82 114.90 192.64 115.74 C 192.45 116.58 192.98 117.41 193.82 117.60 Z M 194.81 117.82 L 195.77 118.04 C 196.61 118.24 197.45 117.72 197.64 116.88 C 197.84 116.04 197.32 115.20 196.48 115.00 L 195.52 114.78 C 194.68 114.58 193.84 115.10 193.64 115.94 C 193.45 116.78 193.97 117.62 194.81 117.82 Z M 195.75 118.04 L 196.64 118.26 C 197.48 118.46 198.32 117.95 198.53 117.12 C 198.74 116.28 198.22 115.43 197.39 115.23 L 196.50 115.01 C 195.66 114.80 194.82 115.31 194.61 116.15 C 194.40 116.99 194.91 117.83 195.75 118.04 Z M 196.62 118.25 L 197.64 118.52 C 198.47 118.73 199.33 118.23 199.54 117.40 C 199.76 116.56 199.26 115.71 198.42 115.50 L 197.41 115.23 C 196.57 115.01 195.72 115.52 195.50 116.35 C 195.29 117.18 195.79 118.04 196.62 118.25 Z M 197.64 118.52 L 198.58 118.76 C 199.41 118.98 200.26 118.48 200.48 117.65 C 200.70 116.81 200.20 115.96 199.37 115.74 L 198.43 115.50 C 197.59 115.28 196.74 115.78 196.52 116.61 C 196.30 117.45 196.80 118.30 197.64 118.52 Z M 198.60 118.77 L 199.52 118.99 C 200.36 119.20 201.21 118.68 201.41 117.85 C 201.62 117.01 201.10 116.16 200.26 115.96 L 199.34 115.74 C 198.50 115.53 197.66 116.04 197.45 116.88 C 197.25 117.72 197.76 118.56 198.60 118.77 Z M 199.58 119.01 L 200.56 119.21 C 201.41 119.39 202.24 118.85 202.41 118.00 C 202.59 117.16 202.05 116.33 201.20 116.16 L 200.21 115.95 C 199.37 115.77 198.54 116.31 198.37 117.16 C 198.19 118.00 198.73 118.83 199.58 119.01 Z M 200.62 119.22 L 201.56 119.38 C 202.41 119.53 203.22 118.96 203.36 118.11 C 203.51 117.26 202.94 116.45 202.09 116.31 L 201.15 116.15 C 200.30 116.00 199.49 116.57 199.35 117.42 C 199.20 118.27 199.77 119.08 200.62 119.22 Z M 201.60 119.39 L 202.59 119.53 C 203.45 119.66 204.24 119.06 204.36 118.21 C 204.48 117.36 203.89 116.57 203.04 116.44 L 202.05 116.30 C 201.19 116.18 200.40 116.77 200.28 117.62 C 200.16 118.48 200.75 119.27 201.60 119.39 Z M 202.63 119.54 L 203.66 119.66 C 204.51 119.76 205.29 119.15 205.39 118.30 C 205.50 117.44 204.89 116.66 204.03 116.56 L 203.00 116.44 C 202.15 116.34 201.37 116.95 201.27 117.80 C 201.16 118.66 201.77 119.44 202.63 119.54 Z M 203.69 119.67 L 204.72 119.76 C 205.58 119.85 206.34 119.22 206.42 118.36 C 206.51 117.50 205.88 116.74 205.02 116.66 L 203.99 116.56 C 203.14 116.48 202.37 117.10 202.29 117.96 C 202.21 118.82 202.84 119.58 203.69 119.67 Z M 204.76 119.77 L 205.75 119.84 C 206.61 119.90 207.35 119.25 207.41 118.39 C 207.47 117.53 206.83 116.78 205.97 116.72 L 204.98 116.65 C 204.12 116.59 203.37 117.24 203.31 118.10 C 203.25 118.96 203.90 119.71 204.76 119.77 Z M 205.81 119.84 L 206.94 119.88 C 207.80 119.91 208.52 119.23 208.55 118.37 C 208.57 117.51 207.90 116.79 207.04 116.76 L 205.91 116.72 C 205.04 116.69 204.32 117.37 204.30 118.23 C 204.27 119.09 204.94 119.81 205.81 119.84 Z M 207.05 119.88 L 208.07 119.84 C 208.93 119.80 209.60 119.08 209.57 118.21 C 209.53 117.35 208.81 116.68 207.95 116.72 L 206.92 116.76 C 206.06 116.79 205.39 117.52 205.43 118.38 C 205.46 119.24 206.19 119.91 207.05 119.88 Z M 208.25 119.82 L 209.17 119.68 C 210.02 119.55 210.61 118.75 210.48 117.90 C 210.35 117.04 209.55 116.46 208.70 116.59 L 207.77 116.73 C 206.92 116.87 206.33 117.66 206.47 118.51 C 206.60 119.37 207.39 119.95 208.25 119.82 Z M 209.41 119.62 L 210.27 119.35 C 211.09 119.08 211.54 118.20 211.28 117.38 C 211.02 116.56 210.14 116.11 209.32 116.37 L 208.46 116.65 C 207.64 116.91 207.18 117.79 207.45 118.61 C 207.71 119.43 208.59 119.88 209.41 119.62 Z M 210.53 119.23 L 211.40 118.76 C 212.16 118.35 212.44 117.40 212.03 116.65 C 211.62 115.89 210.68 115.61 209.92 116.02 L 209.05 116.49 C 208.29 116.90 208.01 117.84 208.42 118.60 C 208.83 119.36 209.78 119.64 210.53 119.23 Z M 211.61 118.63 L 212.40 118.03 C 213.09 117.50 213.22 116.52 212.70 115.84 C 212.17 115.15 211.19 115.02 210.51 115.54 L 209.71 116.15 C 209.03 116.67 208.90 117.65 209.42 118.33 C 209.94 119.02 210.92 119.15 211.61 118.63 Z M 212.53 117.92 L 213.26 117.23 C 213.89 116.64 213.91 115.65 213.32 115.02 C 212.73 114.39 211.74 114.37 211.12 114.96 L 210.38 115.65 C 209.76 116.24 209.73 117.23 210.32 117.86 C 210.91 118.48 211.90 118.51 212.53 117.92 Z M 213.33 117.16 L 213.99 116.45 C 214.58 115.82 214.55 114.83 213.92 114.24 C 213.29 113.65 212.30 113.69 211.71 114.32 L 211.05 115.03 C 210.46 115.66 210.49 116.64 211.12 117.23 C 211.75 117.82 212.74 117.79 213.33 117.16 Z M 214.03 116.40 L 214.66 115.67 C 215.23 115.02 215.15 114.03 214.50 113.47 C 213.85 112.91 212.86 112.98 212.30 113.63 L 211.67 114.36 C 211.11 115.02 211.18 116.00 211.83 116.57 C 212.49 117.13 213.47 117.05 214.03 116.40 Z M 214.69 115.64 L 215.32 114.86 C 215.87 114.19 215.76 113.20 215.09 112.66 C 214.42 112.12 213.44 112.22 212.90 112.89 L 212.27 113.67 C 211.72 114.34 211.83 115.32 212.50 115.87 C 213.17 116.41 214.15 116.30 214.69 115.64 Z M 215.34 114.83 L 215.99 114.00 C 216.52 113.32 216.40 112.34 215.72 111.81 C 215.04 111.28 214.06 111.40 213.53 112.08 L 212.88 112.91 C 212.35 113.59 212.47 114.58 213.15 115.11 C 213.83 115.64 214.81 115.51 215.34 114.83 Z M 216.00 113.99 L 216.55 113.27 C 217.07 112.59 216.94 111.61 216.25 111.09 C 215.57 110.56 214.59 110.69 214.07 111.38 L 213.52 112.09 C 213.00 112.77 213.13 113.75 213.81 114.28 C 214.50 114.80 215.48 114.67 216.00 113.99 Z M 216.55 113.27 L 217.13 112.50 C 217.65 111.81 217.51 110.84 216.82 110.32 C 216.13 109.80 215.15 109.94 214.63 110.63 L 214.06 111.39 C 213.54 112.08 213.68 113.06 214.37 113.57 C 215.06 114.09 216.04 113.95 216.55 113.27 Z M 217.14 112.49 L 217.74 111.68 C 218.25 110.99 218.10 110.01 217.41 109.50 C 216.72 108.98 215.74 109.13 215.23 109.82 L 214.62 110.64 C 214.11 111.33 214.26 112.31 214.95 112.82 C 215.65 113.33 216.62 113.19 217.14 112.49 Z M 217.75 111.67 L 218.37 110.80 C 218.88 110.10 218.72 109.13 218.03 108.62 C 217.33 108.11 216.35 108.27 215.85 108.97 L 215.22 109.83 C 214.71 110.53 214.87 111.51 215.57 112.02 C 216.26 112.52 217.24 112.36 217.75 111.67 Z M 218.38 110.79 L 219.01 109.91 C 219.51 109.20 219.34 108.23 218.64 107.73 C 217.93 107.23 216.96 107.40 216.46 108.10 L 215.84 108.98 C 215.34 109.68 215.50 110.66 216.21 111.16 C 216.91 111.66 217.88 111.49 218.38 110.79 Z M 219.01 109.90 L 219.61 109.04 C 220.10 108.34 219.93 107.36 219.22 106.87 C 218.51 106.38 217.54 106.55 217.05 107.26 L 216.45 108.11 C 215.96 108.82 216.13 109.79 216.84 110.28 C 217.55 110.78 218.52 110.60 219.01 109.90 Z M 219.61 109.04 L 220.21 108.18 C 220.70 107.47 220.52 106.49 219.81 106.00 C 219.10 105.52 218.12 105.69 217.63 106.41 L 217.04 107.27 C 216.55 107.98 216.73 108.95 217.44 109.44 C 218.15 109.93 219.12 109.75 219.61 109.04 Z M 220.21 108.17 L 220.79 107.33 C 221.27 106.61 221.09 105.64 220.38 105.16 C 219.67 104.67 218.69 104.85 218.21 105.57 L 217.63 106.41 C 217.15 107.12 217.33 108.09 218.04 108.58 C 218.75 109.07 219.72 108.88 220.21 108.17 Z M 220.79 107.32 L 221.33 106.52 C 221.82 105.81 221.63 104.83 220.92 104.35 C 220.21 103.87 219.24 104.05 218.75 104.76 L 218.21 105.57 C 217.72 106.28 217.91 107.25 218.62 107.74 C 219.33 108.22 220.30 108.04 220.79 107.32 Z M 221.34 106.52 L 221.87 105.73 C 222.35 105.01 222.17 104.04 221.45 103.56 C 220.74 103.08 219.77 103.26 219.29 103.98 L 218.75 104.77 C 218.27 105.48 218.45 106.45 219.17 106.93 C 219.88 107.42 220.85 107.23 221.34 106.52 Z M 221.87 105.73 L 222.51 104.79 C 222.99 104.08 222.81 103.11 222.10 102.62 C 221.38 102.14 220.41 102.32 219.93 103.03 L 219.29 103.97 C 218.80 104.69 218.99 105.66 219.70 106.14 C 220.41 106.63 221.39 106.44 221.87 105.73 Z M 222.51 104.79 L 223.06 103.98 C 223.55 103.27 223.36 102.30 222.65 101.81 C 221.94 101.33 220.97 101.51 220.48 102.22 L 219.93 103.03 C 219.44 103.74 219.63 104.72 220.34 105.20 C 221.05 105.69 222.02 105.50 222.51 104.79 Z M 223.06 103.98 L 223.56 103.24 C 224.05 102.53 223.87 101.56 223.16 101.08 C 222.44 100.59 221.47 100.77 220.99 101.48 L 220.48 102.22 C 220.00 102.93 220.18 103.90 220.89 104.39 C 221.60 104.88 222.57 104.69 223.06 103.98 Z M 223.56 103.25 L 224.10 102.46 C 224.58 101.75 224.40 100.78 223.69 100.29 C 222.98 99.81 222.01 99.99 221.52 100.70 L 220.99 101.48 C 220.50 102.19 220.68 103.17 221.39 103.65 C 222.10 104.14 223.08 103.96 223.56 103.25 Z M 224.10 102.46 L 224.66 101.64 C 225.15 100.93 224.96 99.95 224.25 99.47 C 223.54 98.98 222.56 99.17 222.08 99.88 L 221.52 100.70 C 221.03 101.42 221.22 102.39 221.93 102.87 C 222.64 103.36 223.61 103.17 224.10 102.46 Z M 224.66 101.63 L 225.22 100.80 C 225.71 100.09 225.52 99.12 224.80 98.63 C 224.09 98.15 223.12 98.34 222.64 99.05 L 222.08 99.89 C 221.59 100.60 221.78 101.57 222.50 102.05 C 223.21 102.54 224.18 102.35 224.66 101.63 Z M 225.23 100.79 L 225.79 99.96 C 226.26 99.24 226.07 98.27 225.35 97.80 C 224.63 97.32 223.66 97.51 223.19 98.23 L 222.63 99.06 C 222.15 99.78 222.35 100.75 223.07 101.23 C 223.78 101.71 224.75 101.51 225.23 100.79 Z M 225.79 99.95 L 226.34 99.11 C 226.81 98.39 226.61 97.42 225.89 96.95 C 225.17 96.48 224.20 96.68 223.73 97.40 L 223.18 98.24 C 222.71 98.96 222.91 99.93 223.63 100.40 C 224.35 100.87 225.32 100.67 225.79 99.95 Z M 226.35 99.10 L 226.89 98.26 C 227.35 97.53 227.14 96.56 226.42 96.10 C 225.69 95.63 224.73 95.85 224.26 96.57 L 223.72 97.42 C 223.25 98.14 223.47 99.11 224.19 99.57 C 224.92 100.04 225.88 99.83 226.35 99.10 Z M 226.90 98.24 L 227.43 97.39 C 227.89 96.66 227.66 95.70 226.93 95.24 C 226.20 94.78 225.24 95.01 224.78 95.74 L 224.25 96.59 C 223.79 97.32 224.01 98.28 224.75 98.74 C 225.48 99.19 226.44 98.97 226.90 98.24 Z M 227.44 97.38 L 227.96 96.53 C 228.41 95.80 228.18 94.84 227.45 94.38 C 226.71 93.93 225.75 94.16 225.30 94.90 L 224.78 95.75 C 224.32 96.48 224.55 97.44 225.29 97.90 C 226.02 98.35 226.98 98.12 227.44 97.38 Z M 227.96 96.53 L 228.48 95.68 C 228.93 94.94 228.70 93.98 227.97 93.53 C 227.23 93.08 226.27 93.31 225.82 94.05 L 225.30 94.90 C 224.85 95.63 225.08 96.59 225.81 97.04 C 226.55 97.50 227.51 97.27 227.96 96.53 Z M 228.48 95.69 L 229.00 94.84 C 229.46 94.11 229.23 93.15 228.50 92.69 C 227.77 92.24 226.81 92.46 226.35 93.19 L 225.83 94.04 C 225.37 94.77 225.59 95.73 226.33 96.19 C 227.06 96.64 228.02 96.42 228.48 95.69 Z M 229.00 94.85 L 229.53 94.01 C 229.99 93.29 229.77 92.32 229.05 91.86 C 228.32 91.40 227.35 91.61 226.89 92.34 L 226.36 93.18 C 225.90 93.91 226.11 94.87 226.84 95.33 C 227.57 95.80 228.53 95.58 229.00 94.85 Z M 229.52 94.02 L 230.06 93.18 C 230.53 92.45 230.32 91.48 229.59 91.02 C 228.86 90.55 227.90 90.77 227.43 91.49 L 226.89 92.34 C 226.43 93.06 226.64 94.03 227.37 94.49 C 228.09 94.96 229.06 94.75 229.52 94.02 Z M 230.07 93.17 L 230.60 92.34 C 231.06 91.61 230.85 90.65 230.12 90.18 C 229.39 89.72 228.43 89.94 227.96 90.66 L 227.43 91.50 C 226.97 92.22 227.18 93.19 227.91 93.65 C 228.64 94.11 229.60 93.90 230.07 93.17 Z M 230.60 92.33 L 231.05 91.61 C 231.51 90.88 231.29 89.92 230.56 89.46 C 229.82 89.00 228.86 89.23 228.40 89.96 L 227.96 90.67 C 227.50 91.41 227.72 92.37 228.45 92.83 C 229.18 93.28 230.15 93.06 230.60 92.33 Z M 231.07 91.59 L 231.54 90.80 C 231.99 90.06 231.75 89.10 231.01 88.65 C 230.27 88.21 229.31 88.45 228.87 89.19 L 228.39 89.98 C 227.95 90.72 228.18 91.68 228.92 92.12 C 229.66 92.57 230.62 92.33 231.07 91.59 Z M 231.56 90.77 L 232.09 89.84 C 232.52 89.09 232.26 88.14 231.51 87.71 C 230.76 87.28 229.81 87.54 229.38 88.29 L 228.85 89.22 C 228.42 89.97 228.68 90.92 229.43 91.35 C 230.18 91.77 231.13 91.51 231.56 90.77 Z M 232.10 89.81 L 232.66 88.79 C 233.07 88.03 232.79 87.09 232.03 86.67 C 231.28 86.26 230.33 86.54 229.92 87.30 L 229.36 88.32 C 228.95 89.08 229.23 90.03 229.99 90.44 C 230.74 90.85 231.69 90.57 232.10 89.81 Z M 232.67 88.77 L 233.11 87.93 C 233.51 87.16 233.22 86.22 232.46 85.82 C 231.69 85.42 230.75 85.71 230.35 86.48 L 229.91 87.32 C 229.51 88.08 229.80 89.03 230.56 89.43 C 231.33 89.83 232.27 89.53 232.67 88.77 Z M 233.12 87.91 L 233.59 87.00 C 233.98 86.24 233.67 85.29 232.91 84.90 C 232.14 84.51 231.20 84.81 230.81 85.58 L 230.34 86.49 C 229.95 87.26 230.25 88.20 231.02 88.59 C 231.79 88.98 232.73 88.68 233.12 87.91 Z M 233.59 86.99 L 234.06 86.05 C 234.45 85.28 234.13 84.34 233.36 83.96 C 232.59 83.57 231.65 83.88 231.27 84.66 L 230.80 85.59 C 230.41 86.37 230.73 87.30 231.50 87.69 C 232.27 88.07 233.21 87.76 233.59 86.99 Z M 234.07 86.04 L 234.53 85.10 C 234.90 84.32 234.58 83.39 233.80 83.01 C 233.03 82.63 232.10 82.96 231.72 83.73 L 231.26 84.67 C 230.88 85.44 231.21 86.38 231.98 86.76 C 232.76 87.13 233.69 86.81 234.07 86.04 Z M 234.53 85.08 L 234.96 84.18 C 235.33 83.40 234.99 82.47 234.22 82.10 C 233.44 81.73 232.50 82.07 232.14 82.85 L 231.71 83.75 C 231.34 84.53 231.68 85.46 232.45 85.83 C 233.23 86.20 234.16 85.86 234.53 85.08 Z M 234.97 84.16 L 235.40 83.22 C 235.75 82.43 235.40 81.51 234.62 81.15 C 233.83 80.80 232.91 81.14 232.55 81.93 L 232.13 82.87 C 231.77 83.65 232.12 84.58 232.90 84.94 C 233.69 85.29 234.61 84.94 234.97 84.16 Z M 235.41 83.18 L 235.84 82.18 C 236.17 81.38 235.80 80.47 235.01 80.13 C 234.21 79.79 233.30 80.16 232.96 80.96 L 232.54 81.97 C 232.20 82.76 232.57 83.68 233.37 84.01 C 234.16 84.35 235.08 83.98 235.41 83.18 Z M 235.86 82.13 L 236.21 81.21 C 236.52 80.41 236.11 79.50 235.31 79.20 C 234.50 78.89 233.60 79.29 233.29 80.10 L 232.94 81.01 C 232.63 81.81 233.04 82.72 233.84 83.03 C 234.65 83.33 235.55 82.93 235.86 82.13 Z M 236.23 81.16 L 236.53 80.28 C 236.80 79.47 236.37 78.58 235.55 78.30 C 234.73 78.02 233.85 78.46 233.57 79.28 L 233.27 80.15 C 232.99 80.97 233.43 81.85 234.25 82.13 C 235.06 82.41 235.95 81.97 236.23 81.16 Z M 236.54 80.23 L 236.81 79.34 C 237.06 78.52 236.59 77.65 235.77 77.40 C 234.94 77.15 234.07 77.61 233.82 78.44 L 233.55 79.33 C 233.30 80.15 233.77 81.02 234.60 81.27 C 235.42 81.52 236.29 81.06 236.54 80.23 Z M 236.82 79.30 L 237.07 78.39 C 237.30 77.56 236.81 76.70 235.98 76.47 C 235.15 76.25 234.29 76.74 234.06 77.57 L 233.81 78.48 C 233.58 79.31 234.07 80.17 234.90 80.40 C 235.73 80.63 236.59 80.14 236.82 79.30 Z M 237.08 78.37 L 237.32 77.41 C 237.54 76.57 237.03 75.72 236.20 75.51 C 235.36 75.30 234.51 75.80 234.30 76.64 L 234.05 77.59 C 233.84 78.43 234.34 79.28 235.18 79.49 C 236.01 79.71 236.86 79.20 237.08 78.37 Z M 237.33 77.39 L 237.57 76.40 C 237.77 75.57 237.26 74.72 236.42 74.52 C 235.58 74.31 234.74 74.83 234.54 75.66 L 234.29 76.65 C 234.09 77.49 234.60 78.34 235.44 78.54 C 236.28 78.74 237.12 78.23 237.33 77.39 Z M 237.57 76.39 L 237.81 75.38 C 238.01 74.55 237.49 73.70 236.65 73.51 C 235.81 73.31 234.97 73.83 234.77 74.66 L 234.53 75.67 C 234.33 76.51 234.85 77.35 235.69 77.55 C 236.53 77.75 237.37 77.23 237.57 76.39 Z M 237.81 75.38 L 237.90 74.99 C 238.10 74.15 237.58 73.31 236.74 73.11 C 235.90 72.92 235.06 73.44 234.86 74.28 L 234.77 74.67 C 234.57 75.51 235.09 76.35 235.93 76.54 C 236.77 76.74 237.61 76.22 237.81 75.38 Z"
      fill="black"
      fill-rule="nonzero" /></svg>