<svg xmlns="http://www.w3.org/2000/svg" width="300" height="300" viewBox="0 0 300 300">
<path d="M 109.12 102.22 L 108.95 103.16 C 108.80 104.01 109.37 104.82 110.21 104.97 C 111.06 105.13 111.87 104.56 112.03 103.71 L 112.20 102.77 C 112.35 101.92 111.78 101.11 110.94 100.96 C 110.09 100.80 109.28 101.37 109.12 102.22 Z M 108.95 103.18 L 108.79 104.14 C 108.65 104.99 109.23 105.79 110.08 105.94 C 110.93 106.08 111.73 105.50 111.87 104.65 L 112.03 103.69 C 112.17 102.84 111.60 102.04 110.75 101.90 C 109.90 101.76 109.09 102.33 108.95 103.18 Z M 108.79 104.18 L 108.65 105.16 C 108.53 106.02 109.12 106.81 109.98 106.93 C 110.83 107.05 111.62 106.45 111.74 105.60 L 111.88 104.61 C 112.00 103.76 111.40 102.97 110.55 102.85 C 109.69 102.73 108.90 103.33 108.79 104.18 Z M 108.64 105.22 L 108.53 106.24 C 108.45 107.10 109.07 107.87 109.93 107.96 C 110.78 108.05 111.55 107.42 111.64 106.57 L 111.75 105.54 C 111.84 104.68 111.21 103.92 110.35 103.83 C 109.50 103.74 108.73 104.36 108.64 105.22 Z M 108.53 106.31 L 108.47 107.31 C 108.42 108.17 109.07 108.91 109.93 108.96 C 110.79 109.01 111.53 108.36 111.59 107.50 L 111.65 106.50 C 111.70 105.64 111.04 104.90 110.18 104.85 C 109.32 104.79 108.58 105.45 108.53 106.31 Z M 108.46 107.37 L 108.44 108.27 C 108.42 109.14 109.11 109.85 109.97 109.87 C 110.83 109.89 111.55 109.21 111.57 108.34 L 111.59 107.44 C 111.61 106.58 110.93 105.86 110.06 105.84 C 109.20 105.82 108.48 106.50 108.46 107.37 Z M 108.44 108.32 L 108.44 109.26 C 108.45 110.13 109.15 110.83 110.02 110.82 C 110.88 110.82 111.58 110.11 111.58 109.25 L 111.57 108.30 C 111.57 107.44 110.86 106.74 110.00 106.74 C 109.13 106.75 108.44 107.45 108.44 108.32 Z M 108.44 109.29 L 108.47 110.29 C 108.49 111.15 109.21 111.84 110.07 111.82 C 110.94 111.80 111.62 111.08 111.60 110.21 L 111.58 109.22 C 111.56 108.35 110.84 107.67 109.97 107.69 C 109.11 107.71 108.42 108.43 108.44 109.29 Z M 108.47 110.31 L 108.51 111.35 C 108.54 112.22 109.27 112.89 110.14 112.86 C 111.00 112.83 111.68 112.10 111.65 111.23 L 111.60 110.19 C 111.57 109.32 110.84 108.65 109.97 108.68 C 109.11 108.71 108.43 109.44 108.47 110.31 Z M 108.50 111.36 L 108.56 112.46 C 108.60 113.33 109.33 114.00 110.20 113.96 C 111.07 113.92 111.74 113.18 111.70 112.31 L 111.65 111.22 C 111.61 110.35 110.87 109.68 110.00 109.72 C 109.13 109.76 108.46 110.50 108.50 111.36 Z M 108.55 112.46 L 108.60 113.46 C 108.65 114.33 109.39 115.00 110.26 114.96 C 111.12 114.91 111.79 114.17 111.75 113.30 L 111.70 112.31 C 111.66 111.44 110.92 110.77 110.05 110.81 C 109.18 110.86 108.51 111.59 108.55 112.46 Z M 108.60 113.46 L 108.65 114.38 C 108.69 115.25 109.43 115.92 110.30 115.87 C 111.17 115.83 111.84 115.09 111.80 114.22 L 111.75 113.30 C 111.71 112.43 110.97 111.76 110.10 111.81 C 109.23 111.85 108.56 112.59 108.60 113.46 Z M 108.65 114.38 L 108.70 115.33 C 108.74 116.20 109.48 116.86 110.35 116.82 C 111.22 116.78 111.89 116.03 111.85 115.16 L 111.80 114.22 C 111.75 113.35 111.01 112.68 110.14 112.72 C 109.27 112.77 108.60 113.51 108.65 114.38 Z M 108.69 115.33 L 108.74 116.30 C 108.79 117.17 109.53 117.84 110.40 117.80 C 111.27 117.76 111.94 117.01 111.90 116.14 L 111.85 115.16 C 111.80 114.29 111.06 113.62 110.19 113.67 C 109.32 113.71 108.65 114.45 108.69 115.33 Z M 108.74 116.30 L 108.79 117.31 C 108.84 118.18 109.58 118.85 110.45 118.81 C 111.32 118.77 111.99 118.02 111.95 117.15 L 111.90 116.14 C 111.85 115.27 111.11 114.60 110.24 114.65 C 109.37 114.69 108.70 115.43 108.74 116.30 Z M 108.79 117.31 L 108.84 118.35 C 108.89 119.22 109.63 119.89 110.50 119.85 C 111.37 119.81 112.05 119.07 112.00 118.19 L 111.95 117.15 C 111.91 116.28 111.17 115.61 110.29 115.65 C 109.42 115.70 108.75 116.44 108.79 117.31 Z M 108.84 118.35 L 108.90 119.42 C 108.94 120.29 109.68 120.96 110.55 120.92 C 111.43 120.88 112.10 120.14 112.06 119.26 L 112.00 118.19 C 111.96 117.32 111.22 116.65 110.35 116.69 C 109.47 116.73 108.80 117.48 108.84 118.35 Z M 108.89 119.42 L 108.95 120.51 C 108.99 121.38 109.73 122.05 110.60 122.01 C 111.48 121.97 112.15 121.23 112.11 120.35 L 112.06 119.26 C 112.02 118.39 111.27 117.72 110.40 117.76 C 109.53 117.80 108.85 118.54 108.89 119.42 Z M 108.95 120.51 L 108.99 121.42 C 109.03 122.29 109.77 122.97 110.65 122.93 C 111.52 122.89 112.19 122.15 112.15 121.27 L 112.11 120.36 C 112.07 119.48 111.33 118.81 110.45 118.85 C 109.58 118.89 108.91 119.63 108.95 120.51 Z M 108.99 121.42 L 109.03 122.35 C 109.07 123.23 109.81 123.90 110.69 123.86 C 111.56 123.82 112.24 123.08 112.20 122.21 L 112.15 121.27 C 112.11 120.40 111.37 119.73 110.50 119.77 C 109.63 119.81 108.95 120.55 108.99 121.42 Z M 109.03 122.35 L 109.08 123.31 C 109.12 124.18 109.86 124.85 110.73 124.82 C 111.60 124.78 112.28 124.04 112.24 123.17 L 112.19 122.21 C 112.16 121.34 111.42 120.66 110.54 120.70 C 109.67 120.74 109.00 121.48 109.03 122.35 Z M 109.08 123.30 L 109.12 124.28 C 109.16 125.15 109.90 125.83 110.77 125.79 C 111.64 125.75 112.32 125.01 112.28 124.14 L 112.24 123.17 C 112.20 122.30 111.46 121.62 110.59 121.66 C 109.72 121.69 109.04 122.43 109.08 123.30 Z M 109.12 124.28 L 109.16 125.27 C 109.20 126.14 109.93 126.82 110.81 126.78 C 111.68 126.75 112.35 126.01 112.32 125.14 L 112.28 124.15 C 112.24 123.27 111.51 122.60 110.63 122.63 C 109.76 122.67 109.09 123.41 109.12 124.28 Z M 109.16 125.27 L 109.20 126.29 C 109.24 127.16 109.97 127.84 110.84 127.80 C 111.72 127.77 112.39 127.03 112.36 126.16 L 112.32 125.14 C 112.28 124.27 111.55 123.60 110.68 123.63 C 109.81 123.66 109.13 124.40 109.16 125.27 Z M 109.21 126.28 L 109.25 127.32 C 109.28 128.19 110.01 128.87 110.88 128.84 C 111.75 128.81 112.43 128.07 112.40 127.20 L 112.36 126.16 C 112.32 125.29 111.59 124.61 110.72 124.65 C 109.85 124.68 109.17 125.41 109.21 126.28 Z M 109.25 127.32 L 109.28 128.38 C 109.32 129.25 110.05 129.93 110.92 129.90 C 111.79 129.87 112.47 129.14 112.43 128.27 L 112.40 127.21 C 112.36 126.34 111.63 125.66 110.76 125.69 C 109.89 125.72 109.21 126.45 109.25 127.32 Z M 109.29 128.38 L 109.32 129.46 C 109.35 130.33 110.08 131.01 110.95 130.98 C 111.82 130.95 112.50 130.22 112.47 129.35 L 112.43 128.27 C 112.40 127.40 111.67 126.72 110.81 126.75 C 109.94 126.78 109.26 127.51 109.29 128.38 Z M 109.32 129.46 L 109.35 130.43 C 109.38 131.30 110.11 131.98 110.98 131.96 C 111.85 131.93 112.53 131.20 112.50 130.33 L 112.47 129.36 C 112.44 128.49 111.71 127.81 110.85 127.83 C 109.98 127.86 109.30 128.59 109.32 129.46 Z M 109.36 130.43 L 109.38 131.39 C 109.41 132.26 110.14 132.94 111.00 132.92 C 111.87 132.89 112.56 132.16 112.53 131.30 L 112.50 130.34 C 112.47 129.47 111.75 128.78 110.88 128.81 C 110.01 128.84 109.33 129.56 109.36 130.43 Z M 109.39 131.39 L 109.41 132.36 C 109.44 133.23 110.16 133.92 111.03 133.89 C 111.90 133.87 112.58 133.14 112.56 132.27 L 112.53 131.30 C 112.50 130.43 111.78 129.75 110.91 129.77 C 110.04 129.80 109.36 130.52 109.39 131.39 Z M 109.41 132.36 L 109.44 133.35 C 109.46 134.22 110.19 134.90 111.05 134.88 C 111.92 134.85 112.61 134.13 112.58 133.26 L 112.56 132.28 C 112.53 131.41 111.81 130.72 110.94 130.75 C 110.07 130.77 109.39 131.49 109.41 132.36 Z M 109.44 133.35 L 109.47 134.35 C 109.49 135.21 110.21 135.90 111.08 135.88 C 111.95 135.85 112.63 135.13 112.61 134.26 L 112.58 133.27 C 112.56 132.40 111.84 131.71 110.97 131.74 C 110.10 131.76 109.42 132.48 109.44 133.35 Z M 109.47 134.34 L 109.49 135.35 C 109.51 136.22 110.23 136.90 111.10 136.88 C 111.97 136.86 112.65 136.14 112.63 135.27 L 112.61 134.27 C 112.59 133.40 111.87 132.71 111.00 132.74 C 110.13 132.76 109.45 133.48 109.47 134.34 Z M 109.49 135.35 L 109.52 136.36 C 109.54 137.23 110.26 137.92 111.12 137.90 C 111.99 137.88 112.67 137.16 112.65 136.29 L 112.63 135.28 C 112.61 134.41 111.89 133.72 111.03 133.74 C 110.16 133.76 109.47 134.48 109.49 135.35 Z M 109.52 136.36 L 109.54 137.38 C 109.56 138.25 110.28 138.93 111.14 138.91 C 112.01 138.90 112.70 138.18 112.68 137.31 L 112.65 136.29 C 112.63 135.43 111.92 134.74 111.05 134.76 C 110.19 134.78 109.50 135.49 109.52 136.36 Z M 109.54 137.38 L 109.56 138.40 C 109.58 139.27 110.30 139.96 111.16 139.94 C 112.03 139.92 112.71 139.20 112.70 138.34 L 112.68 137.31 C 112.66 136.45 111.94 135.76 111.08 135.78 C 110.21 135.80 109.52 136.51 109.54 137.38 Z M 109.56 138.40 L 109.58 139.43 C 109.60 140.29 110.32 140.98 111.18 140.96 C 112.05 140.95 112.73 140.23 112.72 139.37 L 112.70 138.34 C 112.68 137.47 111.96 136.79 111.10 136.80 C 110.23 136.82 109.55 137.54 109.56 138.40 Z M 109.58 139.43 L 109.60 140.45 C 109.62 141.32 110.33 142.00 111.20 141.99 C 112.06 141.97 112.75 141.26 112.73 140.39 L 112.72 139.37 C 112.70 138.50 111.99 137.81 111.12 137.83 C 110.26 137.85 109.57 138.56 109.58 139.43 Z M 109.60 140.45 L 109.62 141.44 C 109.63 142.31 110.35 143.00 111.21 142.98 C 112.08 142.97 112.77 142.25 112.75 141.39 L 112.73 140.40 C 112.72 139.53 112.01 138.84 111.14 138.86 C 110.28 138.87 109.59 139.58 109.60 140.45 Z M 109.62 141.44 L 109.63 142.43 C 109.65 143.30 110.36 143.99 111.23 143.98 C 112.09 143.96 112.78 143.25 112.77 142.38 L 112.75 141.39 C 112.74 140.52 112.03 139.83 111.16 139.85 C 110.29 139.86 109.60 140.58 109.62 141.44 Z M 109.63 142.43 L 109.65 143.43 C 109.66 144.29 110.38 144.98 111.24 144.97 C 112.11 144.96 112.80 144.24 112.79 143.38 L 112.77 142.38 C 112.76 141.52 112.04 140.83 111.18 140.84 C 110.31 140.85 109.62 141.57 109.63 142.43 Z M 109.65 143.43 L 109.66 144.42 C 109.67 145.29 110.39 145.98 111.26 145.97 C 112.12 145.95 112.82 145.24 112.80 144.37 L 112.79 143.38 C 112.78 142.51 112.06 141.82 111.19 141.83 C 110.33 141.84 109.63 142.56 109.65 143.43 Z M 109.66 144.42 L 109.67 145.41 C 109.69 146.28 110.40 146.98 111.27 146.96 C 112.14 146.95 112.83 146.24 112.82 145.37 L 112.80 144.37 C 112.79 143.51 112.08 142.81 111.21 142.82 C 110.34 142.84 109.65 143.55 109.66 144.42 Z M 109.67 145.41 L 109.69 146.41 C 109.70 147.28 110.41 147.97 111.28 147.96 C 112.15 147.95 112.85 147.24 112.83 146.37 L 112.82 145.37 C 112.81 144.50 112.09 143.81 111.23 143.82 C 110.36 143.83 109.66 144.54 109.67 145.41 Z M 109.68 146.41 L 109.70 147.41 C 109.71 148.28 110.42 148.97 111.29 148.96 C 112.16 148.95 112.86 148.24 112.85 147.37 L 112.84 146.37 C 112.82 145.50 112.11 144.80 111.24 144.81 C 110.37 144.82 109.67 145.54 109.68 146.41 Z M 109.70 147.41 L 109.71 148.41 C 109.72 149.28 110.43 149.98 111.31 149.97 C 112.18 149.95 112.87 149.24 112.86 148.37 L 112.85 147.37 C 112.84 146.50 112.12 145.80 111.25 145.81 C 110.38 145.82 109.69 146.54 109.70 147.41 Z M 109.71 148.41 L 109.72 149.41 C 109.73 150.29 110.45 150.98 111.32 150.97 C 112.19 150.96 112.89 150.25 112.88 149.38 L 112.86 148.37 C 112.85 147.50 112.14 146.80 111.27 146.81 C 110.39 146.82 109.70 147.54 109.71 148.41 Z M 109.72 149.41 L 109.73 150.42 C 109.74 151.30 110.46 151.99 111.33 151.98 C 112.20 151.97 112.90 151.26 112.89 150.39 L 112.88 149.38 C 112.87 148.50 112.15 147.80 111.28 147.82 C 110.41 147.83 109.71 148.54 109.72 149.41 Z M 109.73 150.42 L 109.74 151.44 C 109.75 152.31 110.47 153.01 111.34 153.00 C 112.21 152.99 112.91 152.27 112.90 151.40 L 112.89 150.39 C 112.88 149.51 112.16 148.81 111.29 148.82 C 110.42 148.83 109.72 149.55 109.73 150.42 Z M 109.74 151.44 L 109.75 152.43 C 109.76 153.30 110.48 154.00 111.35 153.99 C 112.23 153.98 112.93 153.27 112.92 152.39 L 112.90 151.40 C 112.89 150.53 112.18 149.83 111.30 149.84 C 110.43 149.85 109.73 150.56 109.74 151.44 Z M 109.75 152.43 L 109.76 153.42 C 109.77 154.29 110.49 154.99 111.36 154.98 C 112.24 154.97 112.94 154.26 112.93 153.38 L 112.92 152.39 C 112.91 151.52 112.19 150.82 111.31 150.83 C 110.44 150.84 109.74 151.55 109.75 152.43 Z M 109.76 153.42 L 109.77 154.41 C 109.78 155.29 110.50 155.99 111.37 155.98 C 112.25 155.97 112.95 155.25 112.94 154.38 L 112.93 153.38 C 112.92 152.51 112.20 151.81 111.33 151.82 C 110.45 151.83 109.75 152.54 109.76 153.42 Z M 109.77 154.41 L 109.78 155.41 C 109.79 156.29 110.51 156.99 111.38 156.98 C 112.26 156.97 112.96 156.25 112.95 155.38 L 112.94 154.38 C 112.93 153.50 112.21 152.80 111.34 152.81 C 110.46 152.82 109.76 153.54 109.77 154.41 Z M 109.78 155.41 L 109.79 156.41 C 109.80 157.29 110.52 157.99 111.39 157.98 C 112.27 157.97 112.97 157.25 112.96 156.38 L 112.95 155.38 C 112.94 154.50 112.23 153.80 111.35 153.81 C 110.47 153.82 109.77 154.54 109.78 155.41 Z M 109.79 156.41 L 109.80 157.41 C 109.81 158.29 110.53 158.99 111.40 158.98 C 112.28 158.97 112.98 158.26 112.97 157.38 L 112.96 156.38 C 112.95 155.50 112.24 154.80 111.36 154.81 C 110.49 154.82 109.78 155.53 109.79 156.41 Z M 109.80 157.41 L 109.81 158.42 C 109.82 159.29 110.54 160.00 111.41 159.99 C 112.29 159.98 112.99 159.26 112.98 158.39 L 112.97 157.38 C 112.97 156.51 112.25 155.80 111.37 155.81 C 110.50 155.82 109.79 156.54 109.80 157.41 Z M 109.81 158.42 L 109.82 159.42 C 109.83 160.30 110.54 161.00 111.42 160.99 C 112.30 160.99 113.00 160.27 112.99 159.39 L 112.98 158.39 C 112.98 157.51 112.26 156.81 111.38 156.81 C 110.51 156.82 109.80 157.54 109.81 158.42 Z M 109.82 159.42 L 109.83 160.42 C 109.83 161.30 110.55 162.01 111.43 162.00 C 112.31 161.99 113.01 161.27 113.00 160.40 L 112.99 159.39 C 112.99 158.52 112.27 157.81 111.39 157.82 C 110.52 157.83 109.81 158.54 109.82 159.42 Z M 109.83 160.42 L 109.83 161.43 C 109.84 162.31 110.56 163.01 111.44 163.00 C 112.31 163.00 113.02 162.28 113.01 161.40 L 113.00 160.40 C 113.00 159.52 112.28 158.82 111.40 158.82 C 110.53 158.83 109.82 159.55 109.83 160.42 Z M 109.83 161.43 L 109.84 162.43 C 109.85 163.31 110.56 164.01 111.44 164.01 C 112.32 164.00 113.03 163.29 113.02 162.41 L 113.01 161.40 C 113.01 160.53 112.29 159.82 111.41 159.83 C 110.53 159.83 109.83 160.55 109.83 161.43 Z M 109.84 162.43 L 109.85 163.44 C 109.85 164.32 110.57 165.03 111.45 165.02 C 112.32 165.01 113.03 164.30 113.03 163.42 L 113.02 162.41 C 113.01 161.53 112.30 160.82 111.42 160.83 C 110.54 160.83 109.83 161.55 109.84 162.43 Z M 109.84 163.44 L 109.85 164.46 C 109.85 165.34 110.57 166.05 111.45 166.05 C 112.33 166.04 113.04 165.32 113.03 164.45 L 113.03 163.42 C 113.02 162.54 112.31 161.83 111.43 161.84 C 110.55 161.84 109.84 162.56 109.84 163.44 Z M 109.85 164.46 L 109.85 165.48 C 109.85 166.36 110.57 167.07 111.45 167.07 C 112.33 167.06 113.04 166.35 113.04 165.47 L 113.03 164.45 C 113.03 163.57 112.31 162.86 111.43 162.86 C 110.55 162.86 109.84 163.58 109.85 164.46 Z M 109.85 165.48 L 109.85 166.50 C 109.86 167.38 110.57 168.09 111.45 168.09 C 112.33 168.08 113.05 167.37 113.04 166.49 L 113.04 165.47 C 113.04 164.59 112.32 163.88 111.44 163.88 C 110.56 163.88 109.85 164.60 109.85 165.48 Z M 109.85 166.49 L 109.85 167.51 C 109.86 168.39 110.57 169.10 111.45 169.10 C 112.34 169.10 113.05 168.38 113.05 167.50 L 113.05 166.49 C 113.04 165.60 112.33 164.89 111.44 164.89 C 110.56 164.90 109.85 165.61 109.85 166.49 Z M 109.85 167.51 L 109.85 168.51 C 109.86 169.40 110.57 170.11 111.46 170.11 C 112.34 170.11 113.05 169.39 113.05 168.51 L 113.05 167.50 C 113.05 166.62 112.33 165.90 111.45 165.90 C 110.56 165.91 109.85 166.62 109.85 167.51 Z M 109.85 168.51 L 109.85 169.52 C 109.85 170.40 110.57 171.11 111.46 171.11 C 112.34 171.11 113.06 170.39 113.05 169.51 L 113.05 168.51 C 113.05 167.62 112.33 166.91 111.45 166.91 C 110.57 166.91 109.85 167.63 109.85 168.51 Z M 109.85 169.51 L 109.85 170.51 C 109.85 171.40 110.57 172.11 111.46 172.11 C 112.34 172.11 113.06 171.39 113.06 170.51 L 113.06 169.51 C 113.06 168.63 112.34 167.91 111.45 167.91 C 110.57 167.91 109.85 168.63 109.85 169.51 Z M 109.85 170.51 L 109.85 171.50 C 109.85 172.38 110.57 173.10 111.46 173.10 C 112.34 173.10 113.06 172.38 113.06 171.50 L 113.06 170.51 C 113.06 169.62 112.34 168.90 111.45 168.91 C 110.57 168.91 109.85 169.62 109.85 170.51 Z M 109.85 171.50 L 109.85 172.48 C 109.85 173.37 110.57 174.09 111.46 174.09 C 112.34 174.08 113.06 173.37 113.06 172.48 L 113.06 171.50 C 113.06 170.61 112.34 169.89 111.45 169.89 C 110.57 169.89 109.85 170.61 109.85 171.50 Z M 109.85 172.48 L 109.85 173.45 C 109.85 174.34 110.57 175.06 111.46 175.06 C 112.34 175.06 113.06 174.34 113.06 173.45 L 113.06 172.48 C 113.06 171.59 112.34 170.87 111.46 170.87 C 110.57 170.87 109.85 171.59 109.85 172.48 Z M 109.85 173.45 L 109.85 174.43 C 109.85 175.32 110.57 176.04 111.46 176.04 C 112.34 176.04 113.06 175.32 113.06 174.43 L 113.06 173.45 C 113.06 172.56 112.34 171.84 111.46 171.84 C 110.57 171.84 109.85 172.56 109.85 173.45 Z M 109.85 174.43 L 109.85 175.48 C 109.85 176.37 110.57 177.09 111.46 177.09 C 112.35 177.09 113.07 176.37 113.07 175.48 L 113.07 174.43 C 113.07 173.54 112.35 172.82 111.46 172.82 C 110.57 172.82 109.85 173.54 109.85 174.43 Z M 109.84 175.48 L 109.84 176.52 C 109.84 177.41 110.57 178.13 111.46 178.13 C 112.35 178.13 113.07 177.41 113.07 176.52 L 113.07 175.48 C 113.07 174.59 112.35 173.87 111.46 173.87 C 110.57 173.87 109.84 174.59 109.84 175.48 Z M 109.84 176.52 L 109.84 177.55 C 109.84 178.44 110.57 179.17 111.46 179.17 C 112.35 179.17 113.07 178.44 113.07 177.55 L 113.07 176.52 C 113.07 175.63 112.35 174.91 111.46 174.91 C 110.57 174.91 109.84 175.63 109.84 176.52 Z M 109.84 177.55 L 109.84 178.57 C 109.84 179.46 110.56 180.19 111.46 180.19 C 112.35 180.19 113.07 179.46 113.07 178.57 L 113.07 177.55 C 113.07 176.66 112.35 175.94 111.46 175.94 C 110.56 175.94 109.84 176.66 109.84 177.55 Z M 109.84 178.57 L 109.84 179.58 C 109.84 180.47 110.56 181.19 111.46 181.19 C 112.35 181.19 113.07 180.47 113.07 179.58 L 113.07 178.57 C 113.07 177.68 112.35 176.96 111.46 176.96 C 110.56 176.96 109.84 177.68 109.84 178.57 Z M 109.84 179.58 L 109.84 180.57 C 109.84 181.47 110.56 182.19 111.46 182.19 C 112.35 182.19 113.07 181.47 113.07 180.57 L 113.07 179.58 C 113.07 178.69 112.35 177.96 111.46 177.96 C 110.56 177.96 109.84 178.69 109.84 179.58 Z M 109.84 180.57 L 109.84 181.56 C 109.84 182.45 110.56 183.17 111.46 183.17 C 112.35 183.17 113.07 182.45 113.07 181.56 L 113.07 180.57 C 113.07 179.68 112.35 178.96 111.46 178.96 C 110.56 178.96 109.84 179.68 109.84 180.57 Z M 109.84 181.56 L 109.84 182.53 C 109.84 183.42 110.56 184.14 111.46 184.14 C 112.35 184.14 113.07 183.42 113.07 182.53 L 113.07 181.56 C 113.07 180.66 112.35 179.94 111.46 179.94 C 110.56 179.94 109.84 180.66 109.84 181.56 Z M 109.84 182.53 L 109.84 183.48 C 109.84 184.38 110.56 185.10 111.46 185.10 C 112.35 185.10 113.07 184.38 113.07 183.48 L 113.07 182.53 C 113.07 181.63 112.35 180.91 111.46 180.91 C 110.56 180.91 109.84 181.63 109.84 182.53 Z M 109.84 183.48 L 109.84 184.43 C 109.84 185.32 110.56 186.05 111.46 186.05 C 112.35 186.05 113.08 185.32 113.08 184.43 L 113.08 183.48 C 113.08 182.59 112.35 181.86 111.46 181.86 C 110.56 181.86 109.84 182.59 109.84 183.48 Z M 109.83 184.43 L 109.83 185.47 C 109.83 186.36 110.56 187.09 111.46 187.09 C 112.35 187.09 113.08 186.36 113.08 185.47 L 113.08 184.43 C 113.08 183.53 112.35 182.81 111.46 182.81 C 110.56 182.81 109.83 183.53 109.83 184.43 Z M 109.83 185.47 L 109.83 186.50 C 109.83 187.40 110.56 188.12 111.46 188.12 C 112.35 188.12 113.08 187.40 113.08 186.50 L 113.08 185.47 C 113.08 184.57 112.35 183.84 111.46 183.84 C 110.56 183.84 109.83 184.57 109.83 185.47 Z M 109.83 186.50 L 109.83 187.52 C 109.83 188.42 110.56 189.15 111.46 189.15 C 112.35 189.15 113.08 188.42 113.08 187.52 L 113.08 186.50 C 113.08 185.60 112.35 184.87 111.46 184.87 C 110.56 184.87 109.83 185.60 109.83 186.50 Z M 109.83 187.52 L 109.83 188.53 C 109.83 189.43 110.56 190.16 111.46 190.16 C 112.36 190.16 113.08 189.43 113.08 188.53 L 113.08 187.52 C 113.08 186.62 112.36 185.89 111.46 185.89 C 110.56 185.89 109.83 186.62 109.83 187.52 Z M 109.82 188.53 L 109.82 189.53 C 109.82 190.43 110.55 191.16 111.46 191.16 C 112.36 191.16 113.09 190.43 113.09 189.53 L 113.09 188.53 C 113.09 187.63 112.36 186.90 111.46 186.90 C 110.55 186.90 109.82 187.63 109.82 188.53 Z M 109.82 189.53 L 109.82 190.51 C 109.82 191.42 110.55 192.15 111.46 192.15 C 112.36 192.15 113.09 191.42 113.09 190.51 L 113.09 189.53 C 113.09 188.62 112.36 187.89 111.46 187.89 C 110.55 187.89 109.82 188.62 109.82 189.53 Z M 109.82 190.51 L 109.82 191.49 C 109.82 192.40 110.55 193.13 111.46 193.13 C 112.36 193.13 113.09 192.40 113.09 191.49 L 113.09 190.51 C 113.09 189.61 112.36 188.88 111.46 188.88 C 110.55 188.88 109.82 189.61 109.82 190.51 Z M 109.82 191.49 L 109.82 192.46 C 109.82 193.37 110.55 194.10 111.46 194.10 C 112.36 194.10 113.10 193.37 113.10 192.46 L 113.10 191.49 C 113.10 190.59 112.36 189.85 111.46 189.85 C 110.55 189.85 109.82 190.59 109.82 191.49 Z M 109.81 192.46 L 109.81 193.43 C 109.81 194.33 110.55 195.07 111.46 195.07 C 112.36 195.07 113.10 194.33 113.10 193.43 L 113.10 192.46 C 113.10 191.56 112.36 190.82 111.46 190.82 C 110.55 190.82 109.81 191.56 109.81 192.46 Z M 109.81 193.43 L 109.81 194.48 C 109.81 195.39 110.55 196.13 111.46 196.13 C 112.36 196.13 113.10 195.39 113.10 194.48 L 113.10 193.43 C 113.10 192.52 112.36 191.78 111.46 191.78 C 110.55 191.78 109.81 192.52 109.81 193.43 Z M 109.81 194.48 L 109.81 195.55 C 109.81 196.46 110.55 197.19 111.46 197.19 C 112.36 197.19 113.10 196.46 113.10 195.55 L 113.10 194.48 C 113.10 193.57 112.36 192.84 111.46 192.84 C 110.55 192.84 109.81 193.57 109.81 194.48 Z M 109.81 195.55 L 109.81 196.60 C 109.81 197.51 110.55 198.24 111.46 198.24 C 112.37 198.24 113.10 197.51 113.10 196.60 L 113.10 195.55 C 113.10 194.64 112.37 193.90 111.46 193.90 C 110.55 193.90 109.81 194.64 109.81 195.55 Z M 109.81 196.60 L 109.81 197.63 C 109.81 198.54 110.55 199.27 111.46 199.27 C 112.37 199.27 113.10 198.54 113.10 197.63 L 113.10 196.60 C 113.10 195.69 112.37 194.95 111.46 194.95 C 110.55 194.95 109.81 195.69 109.81 196.60 Z M 109.81 197.63 L 109.81 198.63 C 109.81 199.54 110.54 200.28 111.46 200.28 C 112.37 200.28 113.11 199.54 113.11 198.63 L 113.11 197.63 C 113.11 196.71 112.37 195.98 111.46 195.98 C 110.54 195.98 109.81 196.71 109.81 197.63 Z M 109.80 198.63 L 109.80 199.60 C 109.80 200.52 110.54 201.26 111.46 201.26 C 112.37 201.26 113.11 200.52 113.11 199.60 L 113.11 198.63 C 113.11 197.72 112.37 196.98 111.46 196.98 C 110.54 196.98 109.80 197.72 109.80 198.63 Z M 109.80 199.60 L 109.80 200.55 C 109.80 201.46 110.54 202.20 111.46 202.20 C 112.37 202.20 113.11 201.46 113.11 200.55 L 113.11 199.60 C 113.11 198.69 112.37 197.95 111.46 197.95 C 110.54 197.95 109.80 198.69 109.80 199.60 Z M 109.80 200.55 L 109.80 201.45 C 109.80 202.36 110.54 203.10 111.46 203.10 C 112.37 203.10 113.11 202.36 113.11 201.45 L 113.11 200.55 C 113.11 199.63 112.37 198.89 111.46 198.89 C 110.54 198.89 109.80 199.63 109.80 200.55 Z M 109.80 201.45 L 109.80 202.54 C 109.80 203.45 110.54 204.19 111.46 204.19 C 112.37 204.19 113.11 203.45 113.11 202.54 L 113.11 201.45 C 113.11 200.53 112.37 199.79 111.46 199.79 C 110.54 199.79 109.80 200.53 109.80 201.45 Z M 109.79 202.54 L 109.79 203.62 C 109.79 204.54 110.54 205.28 111.45 205.28 C 112.37 205.28 113.12 204.54 113.12 203.62 L 113.12 202.54 C 113.12 201.62 112.37 200.87 111.46 200.87 C 110.54 200.87 109.79 201.62 109.79 202.54 Z M 109.79 203.62 L 109.79 204.64 C 109.78 205.56 110.53 206.30 111.45 206.31 C 112.37 206.31 113.12 205.56 113.12 204.64 L 113.12 203.62 C 113.12 202.70 112.38 201.95 111.46 201.95 C 110.54 201.95 109.79 202.70 109.79 203.62 Z M 109.78 204.63 L 109.78 205.60 C 109.77 206.53 110.52 207.28 111.44 207.28 C 112.37 207.28 113.12 206.54 113.12 205.61 L 113.13 204.64 C 113.13 203.72 112.38 202.97 111.46 202.97 C 110.54 202.96 109.78 203.71 109.78 204.63 Z M 109.77 205.60 L 109.77 206.53 C 109.76 207.45 110.51 208.21 111.43 208.22 C 112.36 208.22 113.12 207.48 113.12 206.55 L 113.13 205.62 C 113.13 204.69 112.39 203.94 111.46 203.93 C 110.53 203.93 109.78 204.67 109.77 205.60 Z M 109.76 206.52 L 109.75 207.42 C 109.74 208.35 110.49 209.11 111.42 209.12 C 112.35 209.13 113.11 208.39 113.12 207.46 L 113.13 206.56 C 113.14 205.63 112.39 204.87 111.46 204.86 C 110.53 204.85 109.77 205.59 109.76 206.52 Z M 109.75 207.42 L 109.74 208.43 C 109.72 209.36 110.47 210.13 111.40 210.14 C 112.33 210.15 113.09 209.41 113.11 208.48 L 113.12 207.46 C 113.13 206.53 112.39 205.77 111.46 205.76 C 110.53 205.74 109.76 206.49 109.75 207.42 Z M 109.73 208.42 L 109.71 209.44 C 109.70 210.38 110.44 211.15 111.37 211.16 C 112.31 211.18 113.08 210.44 113.09 209.50 L 113.11 208.48 C 113.13 207.55 112.38 206.78 111.45 206.76 C 110.52 206.75 109.75 207.49 109.73 208.42 Z M 109.71 209.44 L 109.69 210.44 C 109.67 211.38 110.42 212.15 111.35 212.17 C 112.29 212.19 113.06 211.44 113.08 210.51 L 113.10 209.51 C 113.11 208.57 112.37 207.80 111.44 207.78 C 110.50 207.76 109.73 208.51 109.71 209.44 Z M 109.69 210.44 L 109.67 211.43 C 109.65 212.37 110.40 213.14 111.33 213.16 C 112.27 213.18 113.04 212.43 113.06 211.49 L 113.08 210.51 C 113.10 209.57 112.35 208.80 111.42 208.78 C 110.48 208.76 109.71 209.51 109.69 210.44 Z M 109.67 211.43 L 109.65 212.40 C 109.63 213.34 110.38 214.11 111.32 214.13 C 112.26 214.14 113.03 213.40 113.05 212.46 L 113.06 211.49 C 113.08 210.55 112.33 209.78 111.39 209.76 C 110.46 209.75 109.68 210.50 109.67 211.43 Z M 109.65 212.41 L 109.63 213.36 C 109.62 214.30 110.38 215.08 111.32 215.09 C 112.26 215.10 113.03 214.35 113.04 213.41 L 113.05 212.45 C 113.06 211.51 112.31 210.74 111.37 210.73 C 110.43 210.72 109.66 211.47 109.65 212.41 Z M 109.63 213.37 L 109.62 214.32 C 109.61 215.27 110.37 216.04 111.32 216.05 C 112.26 216.05 113.03 215.29 113.04 214.35 L 113.05 213.40 C 113.05 212.45 112.29 211.68 111.35 211.67 C 110.41 211.67 109.63 212.43 109.63 213.37 Z M 109.61 214.33 L 109.61 215.30 C 109.60 216.25 110.37 217.02 111.32 217.03 C 112.27 217.03 113.04 216.26 113.04 215.32 L 113.05 214.34 C 113.05 213.40 112.29 212.62 111.34 212.62 C 110.39 212.62 109.62 213.38 109.61 214.33 Z M 109.60 215.31 L 109.60 216.31 C 109.60 217.27 110.37 218.04 111.32 218.04 C 112.27 218.04 113.05 217.27 113.05 216.32 L 113.05 215.31 C 113.05 214.36 112.28 213.59 111.33 213.58 C 110.38 213.58 109.60 214.35 109.60 215.31 Z M 109.59 216.32 L 109.59 217.38 C 109.59 218.34 110.37 219.12 111.32 219.12 C 112.28 219.12 113.06 218.34 113.06 217.38 L 113.06 216.32 C 113.06 215.36 112.28 214.59 111.32 214.59 C 110.37 214.59 109.59 215.36 109.59 216.32 Z M 109.59 217.38 L 109.59 218.40 C 109.59 219.36 110.36 220.13 111.32 220.13 C 112.28 220.13 113.06 219.36 113.06 218.40 L 113.06 217.38 C 113.06 216.42 112.28 215.65 111.32 215.65 C 110.36 215.65 109.59 216.43 109.59 217.38 Z M 109.59 218.40 L 109.59 219.40 C 109.59 220.36 110.37 221.14 111.33 221.14 C 112.29 221.13 113.07 220.35 113.06 219.39 L 113.06 218.39 C 113.06 217.43 112.28 216.66 111.32 216.66 C 110.36 216.66 109.58 217.44 109.59 218.40 Z M 109.59 219.42 L 109.60 220.44 C 109.61 221.40 110.40 222.17 111.35 222.16 C 112.31 222.15 113.08 221.37 113.07 220.41 L 113.06 219.38 C 113.05 218.42 112.27 217.65 111.31 217.66 C 110.35 217.67 109.58 218.46 109.59 219.42 Z M 109.60 220.46 L 109.63 221.49 C 109.65 222.45 110.44 223.21 111.40 223.19 C 112.35 223.17 113.11 222.37 113.09 221.42 L 113.07 220.39 C 113.05 219.43 112.26 218.67 111.30 218.69 C 110.34 218.71 109.58 219.50 109.60 220.46 Z M 109.63 221.52 L 109.67 222.53 C 109.70 223.48 110.50 224.23 111.46 224.19 C 112.42 224.16 113.16 223.36 113.13 222.40 L 113.09 221.39 C 113.05 220.43 112.25 219.69 111.29 219.72 C 110.34 219.76 109.59 220.56 109.63 221.52 Z M 109.67 222.57 L 109.73 223.54 C 109.78 224.49 110.60 225.22 111.56 225.16 C 112.51 225.11 113.24 224.29 113.18 223.33 L 113.12 222.36 C 113.07 221.41 112.25 220.68 111.29 220.74 C 110.34 220.79 109.61 221.61 109.67 222.57 Z M 109.73 223.59 L 109.83 224.65 C 109.92 225.60 110.76 226.30 111.71 226.22 C 112.66 226.13 113.36 225.29 113.27 224.34 L 113.17 223.28 C 113.09 222.33 112.25 221.63 111.30 221.72 C 110.35 221.80 109.65 222.64 109.73 223.59 Z M 109.84 224.72 L 109.98 225.76 C 110.10 226.71 110.97 227.37 111.91 227.25 C 112.85 227.13 113.52 226.26 113.40 225.32 L 113.26 224.27 C 113.14 223.33 112.27 222.66 111.33 222.79 C 110.38 222.91 109.72 223.77 109.84 224.72 Z M 109.99 225.82 L 110.15 226.80 C 110.31 227.74 111.19 228.37 112.13 228.22 C 113.07 228.06 113.70 227.18 113.54 226.24 L 113.38 225.26 C 113.23 224.33 112.34 223.69 111.41 223.85 C 110.47 224.00 109.84 224.89 109.99 225.82 Z M 110.17 226.85 L 110.35 227.78 C 110.53 228.71 111.42 229.32 112.35 229.14 C 113.28 228.96 113.89 228.06 113.71 227.13 L 113.53 226.20 C 113.35 225.27 112.45 224.66 111.53 224.84 C 110.60 225.02 109.99 225.92 110.17 226.85 Z M 110.36 227.80 L 110.55 228.71 C 110.74 229.64 111.64 230.23 112.57 230.04 C 113.49 229.85 114.08 228.94 113.89 228.02 L 113.70 227.11 C 113.51 226.18 112.60 225.59 111.68 225.78 C 110.76 225.98 110.16 226.88 110.36 227.80 Z M 110.55 228.72 L 110.58 228.88 C 110.78 229.80 111.68 230.39 112.61 230.19 C 113.53 229.99 114.11 229.09 113.92 228.17 L 113.89 228.01 C 113.69 227.09 112.79 226.50 111.86 226.70 C 110.94 226.89 110.36 227.80 110.55 228.72 Z"
      fill="black"
      fill-rule="nonzero" /><path d="M 120.97 111.38 L 120.98 110.48 C 120.98 109.62 120.28 108.92 119.42 108.92 C 118.55 108.92 117.85 109.61 117.85 110.48 L 117.85 111.38 C 117.85 112.24 118.55 112.94 119.41 112.94 C 120.27 112.94 120.97 112.25 120.97 111.38 Z M 120.98 110.49 L 120.98 109.54 C 120.99 108.68 120.29 107.97 119.43 107.97 C 118.57 107.96 117.87 108.65 117.86 109.51 L 117.85 110.47 C 117.85 111.33 118.54 112.03 119.40 112.04 C 120.26 112.05 120.97 111.35 120.98 110.49 Z M 120.98 109.55 L 121.00 108.50 C 121.02 107.64 120.33 106.93 119.47 106.91 C 118.60 106.90 117.89 107.58 117.88 108.45 L 117.86 109.50 C 117.84 110.36 118.53 111.07 119.39 111.09 C 120.26 111.10 120.97 110.42 120.98 109.55 Z M 121.00 108.52 L 121.03 107.46 C 121.06 106.59 120.38 105.87 119.52 105.85 C 118.66 105.82 117.94 106.50 117.91 107.36 L 117.88 108.43 C 117.85 109.29 118.53 110.01 119.39 110.03 C 120.26 110.06 120.97 109.38 121.00 108.52 Z M 121.03 107.48 L 121.08 106.49 C 121.12 105.63 120.45 104.90 119.59 104.86 C 118.73 104.82 118.00 105.49 117.96 106.35 L 117.91 107.34 C 117.87 108.20 118.54 108.93 119.40 108.97 C 120.26 109.01 120.99 108.34 121.03 107.48 Z M 121.07 106.54 L 121.15 105.52 C 121.22 104.66 120.58 103.90 119.72 103.84 C 118.86 103.77 118.11 104.41 118.04 105.27 L 117.96 106.30 C 117.89 107.16 118.54 107.91 119.40 107.98 C 120.26 108.04 121.01 107.40 121.07 106.54 Z M 121.15 105.59 L 121.28 104.57 C 121.39 103.71 120.78 102.93 119.93 102.82 C 119.07 102.71 118.29 103.32 118.18 104.18 L 118.05 105.20 C 117.94 106.05 118.55 106.83 119.40 106.94 C 120.26 107.05 121.04 106.45 121.15 105.59 Z M 121.26 104.68 L 121.45 103.71 C 121.62 102.86 121.07 102.04 120.23 101.87 C 119.38 101.70 118.56 102.25 118.39 103.10 L 118.20 104.07 C 118.03 104.91 118.58 105.73 119.42 105.90 C 120.27 106.07 121.09 105.52 121.26 104.68 Z M 121.41 103.88 L 121.73 102.89 C 121.99 102.07 121.54 101.19 120.72 100.93 C 119.89 100.66 119.02 101.12 118.75 101.94 L 118.44 102.93 C 118.17 103.75 118.63 104.63 119.45 104.89 C 120.27 105.15 121.15 104.70 121.41 103.88 Z M 121.64 103.11 L 122.08 102.21 C 122.47 101.43 122.15 100.50 121.38 100.11 C 120.61 99.73 119.67 100.05 119.29 100.82 L 118.84 101.72 C 118.46 102.49 118.77 103.43 119.55 103.81 C 120.32 104.19 121.26 103.88 121.64 103.11 Z M 121.95 102.42 L 122.52 101.64 C 123.02 100.94 122.86 99.96 122.16 99.46 C 121.46 98.96 120.49 99.12 119.98 99.82 L 119.42 100.60 C 118.91 101.30 119.07 102.28 119.77 102.78 C 120.47 103.28 121.45 103.12 121.95 102.42 Z M 122.36 101.82 L 123.04 101.13 C 123.65 100.52 123.64 99.53 123.03 98.92 C 122.42 98.32 121.43 98.32 120.82 98.94 L 120.14 99.63 C 119.53 100.24 119.54 101.23 120.15 101.84 C 120.77 102.44 121.76 102.44 122.36 101.82 Z M 122.89 101.26 L 123.61 100.70 C 124.29 100.17 124.41 99.19 123.88 98.51 C 123.35 97.83 122.37 97.71 121.69 98.24 L 120.97 98.80 C 120.29 99.33 120.17 100.32 120.70 101.00 C 121.23 101.67 122.21 101.80 122.89 101.26 Z M 123.48 100.80 L 124.26 100.31 C 124.99 99.85 125.22 98.89 124.76 98.16 C 124.30 97.43 123.34 97.20 122.61 97.66 L 121.82 98.15 C 121.09 98.61 120.87 99.57 121.33 100.30 C 121.78 101.03 122.74 101.26 123.48 100.80 Z M 124.14 100.38 L 125.02 99.93 C 125.79 99.55 126.10 98.61 125.71 97.84 C 125.33 97.07 124.39 96.76 123.62 97.14 L 122.73 97.59 C 121.96 97.98 121.65 98.92 122.04 99.69 C 122.43 100.46 123.37 100.77 124.14 100.38 Z M 124.91 99.98 L 125.89 99.58 C 126.69 99.26 127.07 98.35 126.75 97.55 C 126.42 96.75 125.51 96.37 124.71 96.69 L 123.73 97.09 C 122.93 97.42 122.55 98.33 122.87 99.13 C 123.20 99.93 124.11 100.31 124.91 99.98 Z M 125.80 99.62 L 126.84 99.27 C 127.66 99.00 128.10 98.12 127.83 97.30 C 127.56 96.48 126.68 96.04 125.86 96.31 L 124.81 96.66 C 123.99 96.93 123.55 97.81 123.82 98.63 C 124.09 99.45 124.98 99.89 125.80 99.62 Z M 126.77 99.29 L 127.74 99.02 C 128.57 98.79 129.05 97.93 128.82 97.10 C 128.59 96.27 127.73 95.79 126.90 96.02 L 125.93 96.29 C 125.10 96.52 124.62 97.38 124.85 98.21 C 125.08 99.04 125.94 99.52 126.77 99.29 Z M 127.68 99.04 L 128.69 98.80 C 129.53 98.60 130.04 97.75 129.84 96.91 C 129.64 96.08 128.80 95.56 127.96 95.76 L 126.96 96.00 C 126.12 96.20 125.60 97.05 125.80 97.88 C 126.00 98.72 126.85 99.24 127.68 99.04 Z M 128.64 98.81 L 129.66 98.60 C 130.50 98.42 131.04 97.59 130.87 96.75 C 130.69 95.90 129.86 95.36 129.02 95.54 L 128.01 95.75 C 127.16 95.93 126.62 96.75 126.80 97.60 C 126.97 98.44 127.80 98.98 128.64 98.81 Z M 129.62 98.60 L 130.61 98.42 C 131.46 98.27 132.02 97.46 131.87 96.61 C 131.71 95.76 130.90 95.20 130.05 95.35 L 129.06 95.53 C 128.21 95.69 127.65 96.50 127.80 97.35 C 127.96 98.20 128.77 98.76 129.62 98.60 Z M 130.57 98.43 L 131.51 98.28 C 132.37 98.15 132.95 97.35 132.81 96.50 C 132.68 95.64 131.88 95.06 131.03 95.20 L 130.09 95.34 C 129.24 95.48 128.66 96.28 128.79 97.13 C 128.92 97.98 129.72 98.56 130.57 98.43 Z M 131.47 98.29 L 132.55 98.15 C 133.40 98.04 134.01 97.26 133.90 96.40 C 133.79 95.55 133.01 94.94 132.15 95.05 L 131.07 95.19 C 130.22 95.30 129.61 96.08 129.72 96.94 C 129.83 97.79 130.62 98.40 131.47 98.29 Z M 132.50 98.15 L 133.54 98.06 C 134.40 97.98 135.03 97.21 134.95 96.36 C 134.87 95.50 134.11 94.87 133.25 94.95 L 132.20 95.05 C 131.35 95.13 130.71 95.89 130.80 96.75 C 130.88 97.60 131.64 98.23 132.50 98.15 Z M 133.49 98.06 L 134.44 98.00 C 135.30 97.95 135.96 97.22 135.90 96.35 C 135.85 95.49 135.12 94.84 134.26 94.89 L 133.30 94.94 C 132.44 94.99 131.79 95.73 131.84 96.59 C 131.89 97.45 132.63 98.11 133.49 98.06 Z M 134.40 98.01 L 135.30 97.98 C 136.16 97.95 136.84 97.23 136.81 96.37 C 136.79 95.51 136.07 94.83 135.20 94.86 L 134.30 94.89 C 133.44 94.91 132.76 95.63 132.79 96.50 C 132.81 97.36 133.53 98.03 134.40 98.01 Z M 135.28 97.98 L 136.23 97.96 C 137.10 97.95 137.78 97.24 137.77 96.38 C 137.75 95.51 137.04 94.83 136.18 94.84 L 135.23 94.86 C 134.36 94.87 133.68 95.58 133.69 96.44 C 133.71 97.31 134.42 97.99 135.28 97.98 Z M 136.22 97.96 L 137.21 97.96 C 138.07 97.95 138.77 97.24 138.76 96.38 C 138.75 95.52 138.05 94.83 137.19 94.83 L 136.19 94.84 C 135.33 94.85 134.64 95.55 134.65 96.41 C 134.65 97.28 135.36 97.97 136.22 97.96 Z M 137.20 97.96 L 138.21 97.95 C 139.07 97.95 139.77 97.25 139.77 96.39 C 139.76 95.52 139.06 94.83 138.20 94.83 L 137.19 94.83 C 136.33 94.84 135.64 95.54 135.64 96.40 C 135.64 97.26 136.34 97.96 137.20 97.96 Z M 138.21 97.95 L 139.22 97.95 C 140.09 97.95 140.79 97.25 140.78 96.39 C 140.78 95.53 140.09 94.83 139.22 94.83 L 138.21 94.83 C 137.34 94.83 136.64 95.53 136.64 96.39 C 136.65 97.25 137.34 97.95 138.21 97.95 Z M 139.22 97.95 L 140.22 97.95 C 141.08 97.95 141.78 97.25 141.78 96.39 C 141.78 95.53 141.08 94.83 140.22 94.83 L 139.22 94.83 C 138.36 94.83 137.66 95.53 137.66 96.39 C 137.66 97.25 138.36 97.95 139.22 97.95 Z M 140.22 97.95 L 141.22 97.95 C 142.08 97.95 142.78 97.25 142.78 96.39 C 142.78 95.53 142.08 94.83 141.22 94.83 L 140.22 94.83 C 139.35 94.83 138.66 95.53 138.66 96.39 C 138.66 97.25 139.35 97.95 140.22 97.95 Z M 141.22 97.95 L 142.22 97.95 C 143.08 97.95 143.78 97.25 143.78 96.39 C 143.78 95.53 143.08 94.83 142.22 94.83 L 141.22 94.83 C 140.35 94.83 139.65 95.53 139.65 96.39 C 139.65 97.25 140.35 97.95 141.22 97.95 Z M 142.22 97.95 L 143.23 97.95 C 144.09 97.95 144.79 97.25 144.79 96.39 C 144.79 95.53 144.09 94.83 143.23 94.83 L 142.22 94.83 C 141.36 94.83 140.66 95.53 140.66 96.39 C 140.66 97.25 141.36 97.95 142.22 97.95 Z M 143.22 97.95 L 144.22 97.96 C 145.08 97.96 145.79 97.26 145.79 96.40 C 145.79 95.54 145.10 94.84 144.24 94.83 L 143.23 94.83 C 142.37 94.83 141.67 95.52 141.66 96.38 C 141.66 97.25 142.36 97.95 143.22 97.95 Z M 144.20 97.96 L 145.20 97.98 C 146.06 97.99 146.77 97.31 146.79 96.45 C 146.81 95.59 146.13 94.87 145.26 94.86 L 144.26 94.83 C 143.40 94.82 142.69 95.50 142.67 96.36 C 142.65 97.22 143.33 97.94 144.20 97.96 Z M 145.15 97.97 L 146.14 98.03 C 147.00 98.07 147.74 97.41 147.78 96.55 C 147.83 95.69 147.17 94.95 146.31 94.91 L 145.31 94.86 C 144.45 94.81 143.72 95.47 143.67 96.33 C 143.63 97.19 144.29 97.93 145.15 97.97 Z M 146.07 98.02 L 147.05 98.12 C 147.91 98.20 148.68 97.58 148.76 96.72 C 148.84 95.86 148.22 95.10 147.36 95.01 L 146.38 94.91 C 145.52 94.83 144.76 95.46 144.67 96.32 C 144.59 97.17 145.21 97.94 146.07 98.02 Z M 146.98 98.11 L 147.94 98.25 C 148.80 98.38 149.59 97.79 149.72 96.94 C 149.84 96.08 149.25 95.29 148.40 95.16 L 147.44 95.02 C 146.58 94.89 145.79 95.48 145.66 96.34 C 145.54 97.19 146.13 97.98 146.98 98.11 Z M 147.89 98.24 L 148.86 98.42 C 149.71 98.58 150.53 98.02 150.68 97.17 C 150.84 96.32 150.28 95.51 149.43 95.35 L 148.45 95.17 C 147.61 95.02 146.79 95.58 146.64 96.43 C 146.48 97.27 147.04 98.09 147.89 98.24 Z M 148.83 98.42 L 149.83 98.62 C 150.67 98.80 151.50 98.25 151.67 97.41 C 151.85 96.56 151.30 95.74 150.46 95.56 L 149.46 95.36 C 148.62 95.18 147.79 95.73 147.62 96.57 C 147.44 97.42 147.99 98.24 148.83 98.42 Z M 149.82 98.62 L 150.81 98.83 C 151.66 99.01 152.48 98.47 152.66 97.63 C 152.84 96.79 152.31 95.96 151.46 95.78 L 150.47 95.57 C 149.63 95.39 148.80 95.92 148.62 96.77 C 148.44 97.61 148.98 98.44 149.82 98.62 Z M 150.81 98.83 L 151.79 99.04 C 152.63 99.22 153.46 98.68 153.64 97.84 C 153.82 97.00 153.28 96.17 152.44 95.99 L 151.46 95.78 C 150.62 95.60 149.79 96.13 149.61 96.98 C 149.43 97.82 149.97 98.65 150.81 98.83 Z M 151.78 99.04 L 152.77 99.26 C 153.61 99.44 154.44 98.91 154.63 98.07 C 154.81 97.22 154.28 96.39 153.44 96.21 L 152.45 95.99 C 151.61 95.80 150.77 96.34 150.59 97.18 C 150.40 98.02 150.94 98.85 151.78 99.04 Z M 152.75 99.25 L 153.74 99.48 C 154.58 99.67 155.41 99.14 155.61 98.30 C 155.80 97.46 155.27 96.62 154.43 96.43 L 153.45 96.21 C 152.61 96.02 151.77 96.54 151.58 97.38 C 151.39 98.22 151.91 99.06 152.75 99.25 Z M 153.72 99.47 L 154.69 99.71 C 155.53 99.91 156.37 99.39 156.57 98.56 C 156.77 97.72 156.26 96.87 155.42 96.67 L 154.45 96.44 C 153.61 96.23 152.77 96.75 152.57 97.59 C 152.36 98.43 152.88 99.27 153.72 99.47 Z M 154.66 99.70 L 155.64 99.95 C 156.48 100.17 157.33 99.67 157.54 98.83 C 157.76 98.00 157.26 97.15 156.42 96.93 L 155.44 96.68 C 154.61 96.46 153.76 96.96 153.54 97.80 C 153.33 98.63 153.83 99.49 154.66 99.70 Z M 155.62 99.95 L 156.58 100.21 C 157.41 100.44 158.27 99.94 158.50 99.11 C 158.72 98.28 158.23 97.42 157.40 97.20 L 156.44 96.94 C 155.61 96.71 154.75 97.20 154.53 98.03 C 154.30 98.86 154.79 99.72 155.62 99.95 Z M 156.57 100.20 L 157.52 100.47 C 158.35 100.71 159.21 100.22 159.45 99.40 C 159.68 98.57 159.20 97.70 158.37 97.47 L 157.41 97.20 C 156.58 96.97 155.72 97.45 155.49 98.28 C 155.25 99.11 155.74 99.97 156.57 100.20 Z M 157.51 100.47 L 158.47 100.75 C 159.30 100.98 160.16 100.51 160.40 99.68 C 160.64 98.85 160.16 97.98 159.33 97.75 L 158.37 97.47 C 157.55 97.23 156.68 97.71 156.44 98.54 C 156.20 99.37 156.68 100.23 157.51 100.47 Z M 158.46 100.75 L 159.40 101.02 C 160.23 101.26 161.09 100.78 161.33 99.95 C 161.57 99.12 161.10 98.26 160.27 98.02 L 159.33 97.75 C 158.50 97.51 157.64 97.98 157.40 98.81 C 157.16 99.64 157.64 100.51 158.46 100.75 Z M 159.39 101.01 L 160.35 101.29 C 161.17 101.54 162.04 101.06 162.28 100.24 C 162.53 99.41 162.05 98.54 161.23 98.30 L 160.27 98.02 C 159.45 97.78 158.58 98.25 158.34 99.08 C 158.09 99.90 158.57 100.77 159.39 101.01 Z M 160.34 101.29 L 161.30 101.58 C 162.13 101.83 163.00 101.36 163.25 100.54 C 163.50 99.71 163.03 98.84 162.21 98.59 L 161.24 98.30 C 160.41 98.05 159.54 98.52 159.29 99.35 C 159.04 100.17 159.51 101.04 160.34 101.29 Z M 161.29 101.58 L 162.27 101.88 C 163.09 102.14 163.97 101.68 164.23 100.86 C 164.48 100.03 164.02 99.16 163.20 98.90 L 162.22 98.60 C 161.40 98.34 160.52 98.80 160.26 99.63 C 160.01 100.45 160.47 101.32 161.29 101.58 Z M 162.26 101.88 L 163.20 102.18 C 164.02 102.45 164.90 102.00 165.16 101.18 C 165.43 100.36 164.98 99.48 164.16 99.21 L 163.21 98.91 C 162.39 98.64 161.51 99.09 161.25 99.91 C 160.98 100.73 161.43 101.61 162.26 101.88 Z M 163.19 102.18 L 164.13 102.49 C 164.95 102.76 165.83 102.32 166.11 101.50 C 166.38 100.68 165.93 99.80 165.12 99.53 L 164.17 99.22 C 163.35 98.94 162.47 99.39 162.20 100.21 C 161.93 101.02 162.37 101.91 163.19 102.18 Z M 164.12 102.49 L 165.07 102.81 C 165.89 103.09 166.78 102.65 167.05 101.83 C 167.33 101.02 166.89 100.13 166.07 99.85 L 165.12 99.53 C 164.31 99.26 163.42 99.69 163.15 100.51 C 162.87 101.33 163.31 102.21 164.12 102.49 Z M 165.07 102.81 L 166.02 103.14 C 166.84 103.42 167.72 102.98 168.00 102.16 C 168.28 101.35 167.85 100.46 167.03 100.18 L 166.08 99.86 C 165.26 99.58 164.38 100.01 164.10 100.83 C 163.82 101.64 164.25 102.53 165.07 102.81 Z M 166.02 103.14 L 166.97 103.46 C 167.79 103.74 168.68 103.31 168.96 102.49 C 169.24 101.68 168.80 100.79 167.99 100.51 L 167.03 100.18 C 166.22 99.90 165.33 100.34 165.05 101.15 C 164.77 101.97 165.20 102.85 166.02 103.14 Z M 166.97 103.46 L 167.92 103.79 C 168.74 104.07 169.63 103.64 169.91 102.82 C 170.19 102.01 169.76 101.12 168.94 100.84 L 167.99 100.51 C 167.17 100.23 166.29 100.66 166.00 101.48 C 165.72 102.29 166.16 103.18 166.97 103.46 Z M 167.92 103.79 L 168.86 104.12 C 169.68 104.40 170.57 103.97 170.85 103.16 C 171.14 102.35 170.71 101.46 169.89 101.17 L 168.95 100.84 C 168.13 100.56 167.24 100.99 166.96 101.80 C 166.67 102.61 167.10 103.50 167.92 103.79 Z M 168.85 104.12 L 169.79 104.45 C 170.61 104.74 171.50 104.32 171.79 103.50 C 172.08 102.69 171.65 101.80 170.84 101.51 L 169.90 101.18 C 169.09 100.89 168.20 101.31 167.91 102.12 C 167.62 102.93 168.04 103.83 168.85 104.12 Z M 169.78 104.45 L 170.71 104.79 C 171.52 105.08 172.42 104.67 172.71 103.86 C 173.01 103.05 172.59 102.15 171.78 101.85 L 170.85 101.51 C 170.04 101.22 169.15 101.63 168.85 102.44 C 168.56 103.25 168.97 104.15 169.78 104.45 Z M 170.70 104.78 L 171.64 105.14 C 172.44 105.44 173.34 105.03 173.65 104.23 C 173.95 103.42 173.55 102.52 172.74 102.22 L 171.80 101.86 C 170.99 101.55 170.09 101.96 169.79 102.77 C 169.48 103.57 169.89 104.48 170.70 104.78 Z M 171.62 105.13 L 172.55 105.49 C 173.35 105.81 174.26 105.41 174.57 104.61 C 174.89 103.81 174.49 102.90 173.69 102.59 L 172.76 102.22 C 171.96 101.91 171.05 102.30 170.74 103.11 C 170.42 103.91 170.82 104.82 171.62 105.13 Z M 172.53 105.49 L 173.46 105.86 C 174.25 106.19 175.16 105.80 175.49 105.00 C 175.81 104.20 175.43 103.29 174.63 102.97 L 173.71 102.59 C 172.91 102.27 172.00 102.65 171.67 103.45 C 171.35 104.25 171.73 105.16 172.53 105.49 Z M 173.44 105.85 L 174.36 106.24 C 175.15 106.58 176.07 106.20 176.40 105.41 C 176.74 104.61 176.36 103.70 175.57 103.36 L 174.65 102.98 C 173.85 102.64 172.94 103.02 172.60 103.81 C 172.27 104.60 172.64 105.52 173.44 105.85 Z M 174.34 106.23 L 175.23 106.63 C 176.02 106.97 176.94 106.61 177.29 105.82 C 177.64 105.03 177.27 104.11 176.48 103.76 L 175.59 103.37 C 174.80 103.03 173.88 103.39 173.53 104.18 C 173.19 104.97 173.55 105.89 174.34 106.23 Z M 175.20 106.61 L 176.09 107.02 C 176.87 107.39 177.80 107.05 178.16 106.26 C 178.53 105.48 178.19 104.55 177.40 104.19 L 176.52 103.78 C 175.73 103.42 174.81 103.76 174.44 104.54 C 174.08 105.32 174.42 106.25 175.20 106.61 Z M 176.04 107.00 L 176.92 107.45 C 177.69 107.84 178.63 107.53 179.02 106.77 C 179.41 106.00 179.11 105.06 178.34 104.67 L 177.45 104.22 C 176.69 103.82 175.75 104.13 175.36 104.90 C 174.96 105.67 175.27 106.61 176.04 107.00 Z M 176.86 107.41 L 177.74 107.92 C 178.49 108.34 179.44 108.08 179.87 107.34 C 180.30 106.59 180.04 105.63 179.29 105.21 L 178.41 104.70 C 177.66 104.27 176.70 104.53 176.28 105.28 C 175.85 106.03 176.11 106.99 176.86 107.41 Z M 177.66 107.87 L 178.52 108.43 C 179.25 108.90 180.21 108.70 180.69 107.98 C 181.16 107.25 180.95 106.29 180.23 105.82 L 179.37 105.25 C 178.64 104.78 177.68 104.99 177.21 105.71 C 176.73 106.43 176.94 107.40 177.66 107.87 Z M 178.44 108.37 L 179.25 108.98 C 179.94 109.50 180.92 109.36 181.43 108.67 C 181.95 107.98 181.81 107.00 181.12 106.48 L 180.31 105.87 C 179.62 105.36 178.64 105.50 178.13 106.19 C 177.61 106.88 177.75 107.86 178.44 108.37 Z M 179.16 108.91 L 179.92 109.57 C 180.57 110.14 181.56 110.07 182.13 109.43 C 182.69 108.78 182.63 107.79 181.98 107.22 L 181.21 106.55 C 180.56 105.99 179.58 106.05 179.01 106.70 C 178.44 107.35 178.51 108.34 179.16 108.91 Z M 179.82 109.48 L 180.52 110.21 C 181.11 110.83 182.10 110.85 182.73 110.26 C 183.35 109.66 183.37 108.67 182.78 108.05 L 182.08 107.32 C 181.49 106.70 180.50 106.67 179.87 107.27 C 179.25 107.86 179.23 108.85 179.82 109.48 Z M 180.40 110.07 L 181.00 110.85 C 181.52 111.54 182.50 111.67 183.19 111.15 C 183.87 110.63 184.01 109.65 183.49 108.97 L 182.89 108.18 C 182.37 107.50 181.39 107.36 180.70 107.88 C 180.02 108.41 179.88 109.39 180.40 110.07 Z M 180.88 110.67 L 181.37 111.55 C 181.78 112.30 182.73 112.58 183.49 112.16 C 184.24 111.74 184.52 110.79 184.10 110.04 L 183.61 109.15 C 183.19 108.40 182.24 108.13 181.49 108.54 C 180.73 108.96 180.46 109.91 180.88 110.67 Z M 181.26 111.32 L 181.62 112.31 C 181.91 113.12 182.81 113.54 183.62 113.24 C 184.43 112.95 184.85 112.06 184.56 111.25 L 184.20 110.26 C 183.91 109.45 183.01 109.03 182.20 109.32 C 181.39 109.62 180.97 110.51 181.26 111.32 Z M 181.56 112.10 L 181.77 113.09 C 181.94 113.93 182.77 114.47 183.61 114.30 C 184.46 114.12 185.00 113.29 184.82 112.45 L 184.62 111.46 C 184.44 110.61 183.61 110.07 182.77 110.25 C 181.92 110.42 181.38 111.25 181.56 112.10 Z M 181.74 112.91 L 181.82 113.87 C 181.90 114.73 182.66 115.37 183.52 115.29 C 184.38 115.21 185.01 114.46 184.94 113.60 L 184.85 112.63 C 184.77 111.77 184.02 111.14 183.16 111.21 C 182.30 111.29 181.66 112.05 181.74 112.91 Z M 181.82 113.71 L 181.81 114.66 C 181.80 115.52 182.49 116.23 183.35 116.24 C 184.21 116.26 184.92 115.57 184.93 114.70 L 184.94 113.75 C 184.95 112.89 184.26 112.18 183.40 112.17 C 182.54 112.16 181.83 112.85 181.82 113.71 Z M 181.82 114.50 L 181.70 115.50 C 181.59 116.35 182.20 117.13 183.06 117.23 C 183.91 117.34 184.69 116.73 184.80 115.87 L 184.92 114.87 C 185.02 114.01 184.41 113.24 183.56 113.13 C 182.70 113.03 181.92 113.64 181.82 114.50 Z M 181.73 115.31 L 181.50 116.25 C 181.29 117.08 181.80 117.93 182.64 118.14 C 183.47 118.35 184.32 117.84 184.53 117.00 L 184.76 116.06 C 184.97 115.22 184.46 114.38 183.62 114.17 C 182.79 113.96 181.94 114.47 181.73 115.31 Z M 181.55 116.08 L 181.20 117.02 C 180.90 117.83 181.32 118.72 182.12 119.02 C 182.93 119.32 183.83 118.91 184.13 118.10 L 184.48 117.16 C 184.78 116.36 184.36 115.46 183.55 115.16 C 182.75 114.86 181.85 115.27 181.55 116.08 Z M 181.25 116.91 L 180.86 117.75 C 180.50 118.54 180.84 119.47 181.62 119.83 C 182.41 120.19 183.33 119.84 183.69 119.06 L 184.08 118.21 C 184.44 117.43 184.10 116.50 183.32 116.14 C 182.53 115.78 181.61 116.12 181.25 116.91 Z M 180.90 117.68 L 180.45 118.53 C 180.04 119.29 180.33 120.24 181.09 120.64 C 181.86 121.04 182.80 120.75 183.20 119.99 L 183.66 119.14 C 184.06 118.38 183.77 117.43 183.01 117.03 C 182.24 116.62 181.30 116.91 180.90 117.68 Z M 180.48 118.46 L 179.96 119.33 C 179.52 120.07 179.76 121.03 180.50 121.47 C 181.24 121.92 182.20 121.67 182.64 120.93 L 183.17 120.06 C 183.61 119.32 183.37 118.36 182.62 117.92 C 181.88 117.48 180.93 117.72 180.48 118.46 Z M 180.00 119.27 L 179.41 120.15 C 178.94 120.87 179.13 121.84 179.85 122.32 C 180.57 122.80 181.53 122.60 182.01 121.88 L 182.60 121.00 C 183.08 120.28 182.89 119.31 182.17 118.83 C 181.45 118.36 180.48 118.55 180.00 119.27 Z M 179.46 120.09 L 178.87 120.89 C 178.36 121.58 178.51 122.56 179.20 123.07 C 179.90 123.58 180.87 123.43 181.39 122.74 L 181.97 121.94 C 182.48 121.25 182.33 120.27 181.64 119.76 C 180.94 119.25 179.97 119.40 179.46 120.09 Z M 178.91 120.84 L 178.31 121.59 C 177.77 122.26 177.88 123.24 178.55 123.78 C 179.23 124.32 180.21 124.21 180.75 123.54 L 181.35 122.79 C 181.89 122.12 181.78 121.13 181.10 120.59 C 180.43 120.06 179.45 120.17 178.91 120.84 Z M 178.34 121.55 L 177.70 122.30 C 177.14 122.96 177.22 123.94 177.87 124.50 C 178.53 125.06 179.51 124.98 180.07 124.33 L 180.72 123.58 C 181.28 122.92 181.20 121.94 180.54 121.38 C 179.89 120.82 178.90 120.89 178.34 121.55 Z M 177.73 122.27 L 177.04 123.03 C 176.47 123.67 176.52 124.65 177.16 125.23 C 177.80 125.81 178.78 125.76 179.36 125.12 L 180.05 124.36 C 180.62 123.72 180.57 122.73 179.93 122.16 C 179.29 121.58 178.31 121.63 177.73 122.27 Z M 177.07 123.00 L 176.34 123.77 C 175.75 124.40 175.78 125.39 176.41 125.98 C 177.03 126.57 178.02 126.54 178.61 125.91 L 179.34 125.14 C 179.93 124.52 179.90 123.53 179.27 122.94 C 178.65 122.35 177.66 122.37 177.07 123.00 Z M 176.36 123.75 L 175.68 124.45 C 175.08 125.07 175.10 126.05 175.71 126.65 C 176.33 127.26 177.32 127.24 177.92 126.62 L 178.60 125.93 C 179.20 125.31 179.18 124.32 178.57 123.72 C 177.95 123.12 176.96 123.14 176.36 123.75 Z M 175.70 124.43 L 175.01 125.12 C 174.41 125.73 174.41 126.72 175.02 127.33 C 175.63 127.94 176.62 127.93 177.23 127.32 L 177.91 126.64 C 178.52 126.03 178.52 125.04 177.91 124.43 C 177.29 123.82 176.31 123.82 175.70 124.43 Z M 175.03 125.11 L 174.32 125.80 C 173.70 126.41 173.69 127.39 174.30 128.01 C 174.90 128.62 175.89 128.63 176.51 128.03 L 177.21 127.33 C 177.83 126.73 177.84 125.74 177.23 125.13 C 176.63 124.51 175.64 124.50 175.03 125.11 Z M 174.33 125.79 L 173.60 126.49 C 172.98 127.09 172.96 128.08 173.56 128.70 C 174.15 129.32 175.14 129.34 175.76 128.74 L 176.50 128.04 C 177.12 127.44 177.14 126.45 176.54 125.83 C 175.94 125.21 174.95 125.19 174.33 125.79 Z M 173.61 126.48 L 172.86 127.19 C 172.23 127.79 172.20 128.77 172.80 129.40 C 173.39 130.03 174.38 130.06 175.00 129.46 L 175.75 128.75 C 176.38 128.16 176.41 127.17 175.82 126.55 C 175.22 125.92 174.24 125.89 173.61 126.48 Z M 172.87 127.19 L 172.11 127.89 C 171.48 128.48 171.44 129.46 172.03 130.10 C 172.62 130.73 173.60 130.76 174.23 130.18 L 174.99 129.47 C 175.63 128.89 175.66 127.90 175.07 127.27 C 174.49 126.63 173.50 126.60 172.87 127.19 Z M 172.12 127.88 L 171.40 128.54 C 170.76 129.13 170.72 130.11 171.30 130.75 C 171.88 131.38 172.87 131.43 173.50 130.85 L 174.23 130.19 C 174.86 129.60 174.91 128.62 174.32 127.98 C 173.74 127.34 172.75 127.30 172.12 127.88 Z M 171.40 128.54 L 170.67 129.20 C 170.03 129.78 169.98 130.76 170.56 131.40 C 171.13 132.04 172.12 132.09 172.76 131.52 L 173.50 130.85 C 174.14 130.28 174.19 129.29 173.61 128.65 C 173.03 128.01 172.04 127.96 171.40 128.54 Z M 170.68 129.19 L 169.93 129.86 C 169.29 130.43 169.23 131.42 169.80 132.06 C 170.38 132.70 171.36 132.76 172.01 132.19 L 172.75 131.52 C 173.40 130.95 173.45 129.96 172.88 129.32 C 172.31 128.68 171.32 128.62 170.68 129.19 Z M 169.94 129.85 L 169.18 130.51 C 168.53 131.08 168.47 132.07 169.04 132.72 C 169.61 133.36 170.59 133.43 171.24 132.86 L 172.00 132.20 C 172.65 131.63 172.71 130.64 172.14 129.99 C 171.57 129.34 170.59 129.28 169.94 129.85 Z M 169.19 130.51 L 168.42 131.17 C 167.77 131.73 167.70 132.72 168.27 133.37 C 168.83 134.02 169.82 134.09 170.47 133.53 L 171.23 132.87 C 171.89 132.30 171.96 131.32 171.39 130.67 C 170.83 130.01 169.84 129.94 169.19 130.51 Z M 168.43 131.16 L 167.66 131.82 C 167.00 132.38 166.93 133.37 167.48 134.02 C 168.04 134.68 169.03 134.76 169.69 134.20 L 170.46 133.54 C 171.12 132.98 171.19 131.99 170.63 131.34 C 170.07 130.68 169.09 130.60 168.43 131.16 Z M 167.67 131.81 L 166.90 132.46 C 166.24 133.01 166.16 134.00 166.71 134.66 C 167.27 135.32 168.25 135.40 168.91 134.85 L 169.68 134.20 C 170.34 133.65 170.42 132.66 169.87 132.00 C 169.31 131.34 168.33 131.26 167.67 131.81 Z M 166.91 132.45 L 166.14 133.09 C 165.48 133.64 165.38 134.63 165.94 135.29 C 166.49 135.95 167.47 136.04 168.13 135.49 L 168.90 134.85 C 169.57 134.30 169.66 133.32 169.11 132.66 C 168.56 131.99 167.57 131.90 166.91 132.45 Z M 166.15 133.08 L 165.37 133.72 C 164.71 134.27 164.61 135.25 165.15 135.92 C 165.70 136.58 166.68 136.68 167.35 136.13 L 168.13 135.50 C 168.79 134.95 168.89 133.97 168.34 133.30 C 167.80 132.64 166.81 132.54 166.15 133.08 Z M 165.38 133.71 L 164.60 134.34 C 163.93 134.89 163.83 135.87 164.37 136.54 C 164.91 137.21 165.90 137.31 166.57 136.77 L 167.34 136.14 C 168.01 135.60 168.12 134.62 167.58 133.95 C 167.03 133.27 166.05 133.17 165.38 133.71 Z M 164.61 134.34 L 163.83 134.96 C 163.15 135.50 163.04 136.48 163.58 137.16 C 164.12 137.83 165.10 137.94 165.78 137.40 L 166.56 136.78 C 167.23 136.24 167.34 135.26 166.80 134.58 C 166.26 133.91 165.28 133.80 164.61 134.34 Z M 163.83 134.96 L 163.05 135.58 C 162.38 136.11 162.26 137.09 162.80 137.77 C 163.33 138.44 164.31 138.56 164.99 138.02 L 165.77 137.41 C 166.45 136.87 166.56 135.89 166.03 135.21 C 165.49 134.54 164.51 134.42 163.83 134.96 Z M 163.06 135.57 L 162.27 136.19 C 161.59 136.72 161.47 137.70 162.00 138.38 C 162.53 139.06 163.52 139.18 164.19 138.65 L 164.98 138.03 C 165.66 137.50 165.78 136.52 165.25 135.84 C 164.72 135.16 163.74 135.04 163.06 135.57 Z M 162.28 136.18 L 161.49 136.79 C 160.81 137.32 160.68 138.30 161.21 138.98 C 161.74 139.67 162.72 139.79 163.40 139.26 L 164.19 138.65 C 164.87 138.12 164.99 137.14 164.47 136.46 C 163.94 135.78 162.96 135.65 162.28 136.18 Z M 161.49 136.79 L 160.70 137.40 C 160.02 137.93 159.89 138.91 160.42 139.59 C 160.95 140.27 161.93 140.40 162.61 139.87 L 163.40 139.26 C 164.08 138.73 164.21 137.75 163.68 137.07 C 163.15 136.39 162.17 136.27 161.49 136.79 Z M 160.70 137.40 L 159.91 138.01 C 159.23 138.54 159.10 139.52 159.63 140.20 C 160.16 140.89 161.14 141.01 161.82 140.48 L 162.61 139.87 C 163.29 139.34 163.42 138.36 162.89 137.68 C 162.36 137.00 161.38 136.88 160.70 137.40 Z M 159.91 138.02 L 159.12 138.63 C 158.44 139.16 158.32 140.14 158.85 140.82 C 159.38 141.50 160.36 141.62 161.04 141.09 L 161.83 140.48 C 162.51 139.95 162.63 138.97 162.10 138.29 C 161.57 137.61 160.59 137.49 159.91 138.02 Z M 159.11 138.64 L 158.32 139.26 C 157.65 139.79 157.53 140.77 158.06 141.45 C 158.60 142.13 159.58 142.24 160.26 141.71 L 161.04 141.09 C 161.72 140.56 161.84 139.57 161.31 138.90 C 160.77 138.22 159.79 138.10 159.11 138.64 Z M 158.32 139.26 L 157.52 139.90 C 156.84 140.44 156.73 141.42 157.27 142.09 C 157.81 142.77 158.79 142.88 159.47 142.34 L 160.26 141.70 C 160.94 141.17 161.05 140.18 160.51 139.51 C 159.97 138.84 158.99 138.73 158.32 139.26 Z M 157.51 139.91 L 156.71 140.56 C 156.04 141.10 155.93 142.08 156.47 142.75 C 157.02 143.42 158.00 143.53 158.67 142.98 L 159.47 142.33 C 160.14 141.79 160.25 140.81 159.71 140.14 C 159.16 139.47 158.18 139.36 157.51 139.91 Z M 156.70 140.56 L 155.90 141.21 C 155.24 141.75 155.14 142.74 155.68 143.41 C 156.23 144.07 157.21 144.17 157.88 143.63 L 158.67 142.98 C 159.34 142.44 159.44 141.45 158.90 140.78 C 158.35 140.12 157.37 140.02 156.70 140.56 Z M 155.90 141.21 L 155.12 141.85 C 154.45 142.40 154.35 143.38 154.90 144.05 C 155.44 144.71 156.43 144.81 157.09 144.27 L 157.88 143.63 C 158.55 143.08 158.65 142.10 158.10 141.43 C 157.56 140.76 156.57 140.66 155.90 141.21 Z M 155.12 141.85 L 154.35 142.47 C 153.69 143.02 153.58 144.00 154.13 144.67 C 154.67 145.34 155.65 145.44 156.32 144.90 L 157.09 144.27 C 157.76 143.73 157.86 142.74 157.32 142.08 C 156.77 141.41 155.79 141.30 155.12 141.85 Z M 154.36 142.47 L 153.61 143.07 C 152.94 143.61 152.84 144.59 153.38 145.26 C 153.92 145.93 154.90 146.04 155.57 145.50 L 156.32 144.90 C 156.99 144.36 157.10 143.38 156.56 142.71 C 156.02 142.03 155.03 141.93 154.36 142.47 Z M 153.63 143.06 L 152.83 143.68 C 152.15 144.22 152.04 145.20 152.57 145.88 C 153.10 146.55 154.09 146.67 154.76 146.14 L 155.56 145.51 C 156.24 144.98 156.35 143.99 155.82 143.32 C 155.29 142.64 154.30 142.52 153.63 143.06 Z M 152.85 143.67 L 152.00 144.32 C 151.32 144.84 151.19 145.82 151.71 146.51 C 152.24 147.19 153.22 147.32 153.90 146.80 L 154.75 146.15 C 155.43 145.62 155.56 144.64 155.04 143.96 C 154.51 143.28 153.53 143.15 152.85 143.67 Z M 152.02 144.31 L 151.21 144.91 C 150.51 145.43 150.37 146.41 150.89 147.10 C 151.40 147.79 152.38 147.93 153.07 147.42 L 153.88 146.81 C 154.58 146.29 154.72 145.32 154.20 144.63 C 153.69 143.93 152.71 143.79 152.02 144.31 Z M 151.22 144.90 L 150.44 145.47 C 149.74 145.98 149.58 146.95 150.09 147.65 C 150.60 148.35 151.57 148.50 152.27 148.00 L 153.06 147.43 C 153.75 146.92 153.91 145.94 153.40 145.25 C 152.89 144.55 151.92 144.39 151.22 144.90 Z M 150.45 145.46 L 149.69 146.00 C 148.98 146.50 148.82 147.48 149.32 148.18 C 149.81 148.88 150.79 149.05 151.49 148.55 L 152.26 148.01 C 152.96 147.51 153.13 146.53 152.63 145.83 C 152.13 145.13 151.15 144.96 150.45 145.46 Z M 149.70 146.00 L 148.89 146.56 C 148.18 147.05 148.01 148.03 148.50 148.73 C 148.99 149.44 149.96 149.61 150.67 149.12 L 151.48 148.56 C 152.19 148.07 152.36 147.09 151.87 146.39 C 151.38 145.68 150.40 145.50 149.70 146.00 Z M 148.90 146.55 L 148.05 147.13 C 147.34 147.62 147.15 148.59 147.64 149.30 C 148.13 150.02 149.10 150.20 149.81 149.71 L 150.66 149.13 C 151.37 148.64 151.55 147.67 151.07 146.96 C 150.58 146.25 149.61 146.07 148.90 146.55 Z M 148.06 147.13 L 147.22 147.69 C 146.51 148.17 146.32 149.14 146.80 149.85 C 147.28 150.57 148.25 150.76 148.96 150.28 L 149.80 149.72 C 150.51 149.24 150.70 148.27 150.22 147.55 C 149.74 146.84 148.77 146.65 148.06 147.13 Z M 147.23 147.68 L 146.42 148.22 C 145.70 148.69 145.50 149.66 145.98 150.38 C 146.45 151.10 147.42 151.30 148.14 150.82 L 148.95 150.29 C 149.67 149.81 149.87 148.84 149.40 148.12 C 148.92 147.40 147.95 147.20 147.23 147.68 Z M 146.43 148.21 L 145.63 148.73 C 144.91 149.20 144.70 150.17 145.17 150.89 C 145.64 151.61 146.61 151.82 147.33 151.35 L 148.13 150.83 C 148.85 150.36 149.06 149.39 148.59 148.67 C 148.12 147.95 147.15 147.74 146.43 148.21 Z M 145.64 148.72 L 144.85 149.23 C 144.12 149.69 143.91 150.65 144.37 151.38 C 144.83 152.11 145.79 152.32 146.52 151.86 L 147.32 151.36 C 148.05 150.89 148.26 149.93 147.80 149.20 C 147.34 148.47 146.37 148.26 145.64 148.72 Z M 144.88 149.21 L 144.06 149.71 C 143.32 150.15 143.08 151.11 143.53 151.85 C 143.98 152.59 144.94 152.82 145.67 152.38 L 146.49 151.88 C 147.23 151.43 147.47 150.47 147.02 149.74 C 146.57 149.00 145.61 148.76 144.88 149.21 Z M 144.10 149.68 L 143.22 150.18 C 142.47 150.60 142.20 151.56 142.63 152.31 C 143.05 153.06 144.00 153.32 144.76 152.90 L 145.63 152.40 C 146.39 151.98 146.65 151.02 146.23 150.27 C 145.80 149.52 144.85 149.26 144.10 149.68 Z M 143.27 150.15 L 142.29 150.66 C 141.53 151.06 141.23 152.00 141.63 152.77 C 142.03 153.53 142.97 153.83 143.73 153.43 L 144.71 152.92 C 145.47 152.52 145.77 151.58 145.37 150.82 C 144.97 150.05 144.03 149.75 143.27 150.15 Z M 142.33 150.64 L 141.50 151.04 C 140.72 151.42 140.39 152.35 140.77 153.13 C 141.14 153.91 142.08 154.23 142.85 153.86 L 143.69 153.45 C 144.47 153.08 144.79 152.14 144.42 151.37 C 144.04 150.59 143.11 150.27 142.33 150.64 Z M 141.54 151.03 L 140.64 151.43 C 139.85 151.78 139.50 152.71 139.85 153.49 C 140.20 154.28 141.13 154.63 141.91 154.28 L 142.81 153.88 C 143.60 153.52 143.95 152.60 143.60 151.81 C 143.25 151.03 142.32 150.67 141.54 151.03 Z M 140.68 151.41 L 139.74 151.80 C 138.94 152.12 138.56 153.04 138.89 153.83 C 139.21 154.63 140.13 155.01 140.92 154.68 L 141.87 154.30 C 142.67 153.97 143.05 153.06 142.72 152.26 C 142.39 151.46 141.48 151.08 140.68 151.41 Z M 139.79 151.78 L 138.82 152.13 C 138.01 152.43 137.60 153.33 137.90 154.14 C 138.19 154.94 139.09 155.36 139.90 155.06 L 140.87 154.71 C 141.68 154.41 142.09 153.51 141.80 152.70 C 141.50 151.89 140.60 151.48 139.79 151.78 Z M 138.89 152.11 L 137.91 152.42 C 137.09 152.68 136.63 153.56 136.90 154.38 C 137.16 155.20 138.04 155.66 138.86 155.40 L 139.84 155.08 C 140.66 154.82 141.11 153.95 140.85 153.12 C 140.59 152.30 139.71 151.85 138.89 152.11 Z M 138.00 152.40 L 136.85 152.69 C 136.02 152.90 135.51 153.75 135.73 154.58 C 135.94 155.42 136.79 155.92 137.62 155.71 L 138.77 155.42 C 139.60 155.21 140.11 154.36 139.90 153.52 C 139.68 152.69 138.83 152.18 138.00 152.40 Z M 136.97 152.66 L 135.76 152.87 C 134.91 153.02 134.34 153.83 134.48 154.68 C 134.63 155.53 135.44 156.10 136.29 155.95 L 137.50 155.74 C 138.35 155.59 138.92 154.78 138.78 153.93 C 138.63 153.08 137.82 152.51 136.97 152.66 Z M 135.91 152.85 L 134.88 152.92 C 134.01 152.98 133.37 153.73 133.43 154.59 C 133.48 155.45 134.23 156.10 135.09 156.04 L 136.13 155.97 C 136.99 155.91 137.64 155.16 137.58 154.30 C 137.52 153.44 136.77 152.79 135.91 152.85 Z M 135.14 152.93 L 134.38 152.85 C 133.52 152.76 132.75 153.39 132.66 154.24 C 132.58 155.10 133.20 155.87 134.06 155.96 L 134.82 156.03 C 135.68 156.12 136.45 155.50 136.54 154.64 C 136.62 153.78 136.00 153.02 135.14 152.93 Z M 135.17 153.17 L 134.73 152.83 C 134.05 152.30 133.07 152.42 132.54 153.10 C 132.01 153.79 132.14 154.77 132.82 155.29 L 133.26 155.64 C 133.94 156.17 134.92 156.04 135.45 155.36 C 135.98 154.68 135.85 153.70 135.17 153.17 Z M 135.20 154.70 L 135.51 154.00 C 135.87 153.21 135.52 152.29 134.73 151.93 C 133.95 151.58 133.02 151.93 132.67 152.71 L 132.35 153.42 C 132.00 154.20 132.35 155.13 133.13 155.48 C 133.92 155.84 134.84 155.49 135.20 154.70 Z M 135.00 154.62 L 136.06 153.86 C 136.76 153.36 136.92 152.39 136.41 151.69 C 135.91 150.99 134.93 150.83 134.23 151.33 L 133.18 152.09 C 132.48 152.59 132.32 153.57 132.82 154.27 C 133.33 154.97 134.30 155.13 135.00 154.62 Z M 135.77 154.03 L 136.64 153.65 C 137.43 153.31 137.79 152.39 137.45 151.60 C 137.10 150.81 136.18 150.45 135.39 150.79 L 134.52 151.17 C 133.73 151.51 133.37 152.43 133.71 153.22 C 134.06 154.01 134.98 154.37 135.77 154.03 Z M 136.48 153.71 L 137.45 153.40 C 138.28 153.15 138.73 152.27 138.47 151.45 C 138.21 150.62 137.34 150.17 136.52 150.43 L 135.55 150.73 C 134.72 150.99 134.27 151.87 134.53 152.69 C 134.78 153.51 135.66 153.97 136.48 153.71 Z M 137.35 153.43 L 138.36 153.19 C 139.20 152.99 139.71 152.15 139.51 151.31 C 139.31 150.47 138.47 149.96 137.63 150.16 L 136.62 150.40 C 135.78 150.60 135.27 151.44 135.47 152.28 C 135.67 153.12 136.51 153.63 137.35 153.43 Z M 138.28 153.21 L 139.26 153.03 C 140.11 152.87 140.67 152.06 140.52 151.21 C 140.36 150.36 139.55 149.80 138.70 149.96 L 137.71 150.14 C 136.87 150.29 136.30 151.11 136.46 151.96 C 136.61 152.80 137.43 153.37 138.28 153.21 Z M 139.19 153.04 L 140.27 152.89 C 141.12 152.78 141.72 151.99 141.60 151.14 C 141.49 150.28 140.70 149.68 139.85 149.80 L 138.77 149.95 C 137.92 150.06 137.32 150.85 137.43 151.70 C 137.55 152.56 138.34 153.16 139.19 153.04 Z M 140.19 152.90 L 141.20 152.81 C 142.06 152.74 142.69 151.98 142.62 151.12 C 142.54 150.26 141.78 149.63 140.92 149.70 L 139.92 149.79 C 139.06 149.87 138.43 150.63 138.50 151.48 C 138.58 152.34 139.33 152.98 140.19 152.90 Z M 141.13 152.82 L 142.07 152.77 C 142.94 152.73 143.60 152.00 143.56 151.14 C 143.52 150.28 142.79 149.62 141.93 149.66 L 140.99 149.70 C 140.13 149.74 139.46 150.47 139.50 151.33 C 139.54 152.19 140.27 152.86 141.13 152.82 Z M 142.04 152.78 L 142.99 152.75 C 143.85 152.74 144.53 152.02 144.51 151.16 C 144.49 150.30 143.78 149.61 142.92 149.63 L 141.97 149.65 C 141.10 149.67 140.42 150.39 140.44 151.25 C 140.46 152.11 141.17 152.80 142.04 152.78 Z M 142.97 152.76 L 143.96 152.74 C 144.82 152.74 145.51 152.03 145.50 151.17 C 145.49 150.31 144.79 149.61 143.93 149.62 L 142.93 149.63 C 142.07 149.64 141.38 150.35 141.39 151.21 C 141.40 152.07 142.10 152.76 142.97 152.76 Z M 143.95 152.74 L 144.95 152.74 C 145.81 152.74 146.51 152.04 146.51 151.18 C 146.51 150.31 145.80 149.62 144.94 149.62 L 143.94 149.62 C 143.07 149.63 142.38 150.33 142.38 151.19 C 142.38 152.05 143.09 152.75 143.95 152.74 Z M 144.95 152.74 L 145.95 152.74 C 146.81 152.74 147.51 152.04 147.51 151.18 C 147.51 150.32 146.81 149.62 145.95 149.62 L 144.95 149.62 C 144.08 149.62 143.39 150.32 143.39 151.18 C 143.39 152.04 144.08 152.74 144.95 152.74 Z M 145.95 152.74 L 146.93 152.74 C 147.79 152.74 148.49 152.05 148.49 151.18 C 148.49 150.32 147.79 149.62 146.93 149.62 L 145.95 149.62 C 145.09 149.62 144.39 150.32 144.39 151.18 C 144.39 152.04 145.09 152.74 145.95 152.74 Z M 146.92 152.74 L 147.92 152.75 C 148.78 152.75 149.48 152.06 149.49 151.20 C 149.49 150.33 148.80 149.63 147.94 149.63 L 146.94 149.62 C 146.08 149.62 145.37 150.31 145.37 151.17 C 145.36 152.03 146.06 152.74 146.92 152.74 Z M 147.91 152.75 L 148.93 152.76 C 149.80 152.77 150.50 152.08 150.52 151.22 C 150.53 150.36 149.84 149.65 148.97 149.64 L 147.95 149.63 C 147.09 149.61 146.38 150.30 146.37 151.17 C 146.36 152.03 147.04 152.74 147.91 152.75 Z M 148.91 152.76 L 149.90 152.79 C 150.77 152.81 151.48 152.13 151.50 151.26 C 151.53 150.40 150.84 149.69 149.98 149.66 L 148.99 149.64 C 148.13 149.62 147.42 150.30 147.39 151.16 C 147.37 152.02 148.05 152.74 148.91 152.76 Z M 149.86 152.78 L 150.86 152.84 C 151.72 152.88 152.46 152.22 152.50 151.36 C 152.55 150.50 151.89 149.76 151.02 149.72 L 150.03 149.67 C 149.16 149.62 148.43 150.28 148.38 151.14 C 148.34 152.00 149.00 152.74 149.86 152.78 Z M 150.79 152.83 L 151.79 152.93 C 152.65 153.02 153.41 152.39 153.50 151.53 C 153.58 150.68 152.96 149.91 152.10 149.82 L 151.10 149.72 C 150.24 149.64 149.47 150.27 149.39 151.12 C 149.30 151.98 149.93 152.75 150.79 152.83 Z M 151.69 152.92 L 152.67 153.08 C 153.52 153.23 154.33 152.65 154.47 151.80 C 154.61 150.95 154.04 150.15 153.19 150.00 L 152.20 149.84 C 151.35 149.70 150.55 150.27 150.41 151.12 C 150.26 151.97 150.84 152.78 151.69 152.92 Z M 152.56 153.06 L 153.51 153.29 C 154.34 153.50 155.19 152.98 155.39 152.15 C 155.60 151.31 155.09 150.46 154.25 150.26 L 153.30 150.03 C 152.46 149.82 151.62 150.34 151.41 151.17 C 151.21 152.01 151.72 152.86 152.56 153.06 Z M 153.42 153.27 L 154.37 153.56 C 155.20 153.81 156.07 153.34 156.32 152.52 C 156.57 151.69 156.10 150.82 155.28 150.57 L 154.33 150.28 C 153.51 150.03 152.63 150.50 152.38 151.32 C 152.13 152.15 152.60 153.02 153.42 153.27 Z M 154.32 153.54 L 155.29 153.87 C 156.10 154.15 156.99 153.71 157.27 152.90 C 157.55 152.08 157.11 151.19 156.29 150.91 L 155.33 150.59 C 154.51 150.31 153.63 150.74 153.35 151.56 C 153.07 152.37 153.51 153.26 154.32 153.54 Z M 155.26 153.86 L 156.20 154.20 C 157.01 154.49 157.90 154.06 158.19 153.25 C 158.48 152.44 158.06 151.55 157.25 151.26 L 156.31 150.92 C 155.50 150.63 154.61 151.06 154.32 151.87 C 154.03 152.68 154.45 153.57 155.26 153.86 Z M 156.19 154.19 L 157.10 154.52 C 157.91 154.82 158.80 154.40 159.10 153.59 C 159.40 152.78 158.98 151.89 158.17 151.59 L 157.26 151.26 C 156.45 150.96 155.55 151.38 155.26 152.19 C 154.96 153.00 155.38 153.90 156.19 154.19 Z M 157.08 154.52 L 158.02 154.87 C 158.82 155.18 159.72 154.77 160.03 153.96 C 160.33 153.16 159.93 152.26 159.12 151.95 L 158.18 151.60 C 157.38 151.29 156.48 151.70 156.17 152.51 C 155.87 153.31 156.28 154.21 157.08 154.52 Z M 158.00 154.86 L 158.95 155.24 C 159.75 155.56 160.66 155.16 160.98 154.36 C 161.29 153.56 160.90 152.65 160.10 152.34 L 159.14 151.96 C 158.34 151.64 157.43 152.04 157.12 152.84 C 156.80 153.64 157.19 154.55 158.00 154.86 Z M 158.93 155.23 L 159.87 155.62 C 160.66 155.95 161.58 155.57 161.91 154.78 C 162.24 153.98 161.86 153.07 161.06 152.74 L 160.12 152.35 C 159.33 152.02 158.41 152.39 158.08 153.19 C 157.75 153.99 158.13 154.90 158.93 155.23 Z M 159.84 155.61 L 160.73 156.00 C 161.52 156.34 162.44 155.98 162.79 155.19 C 163.13 154.40 162.77 153.48 161.98 153.14 L 161.09 152.75 C 160.30 152.40 159.38 152.76 159.04 153.55 C 158.69 154.34 159.05 155.26 159.84 155.61 Z M 160.70 155.99 L 161.60 156.40 C 162.39 156.76 163.32 156.42 163.68 155.63 C 164.04 154.85 163.69 153.92 162.91 153.56 L 162.01 153.15 C 161.22 152.79 160.30 153.13 159.94 153.92 C 159.58 154.70 159.92 155.63 160.70 155.99 Z M 161.58 156.39 L 162.49 156.83 C 163.27 157.20 164.20 156.88 164.57 156.10 C 164.95 155.32 164.62 154.39 163.84 154.01 L 162.93 153.58 C 162.16 153.20 161.22 153.53 160.85 154.31 C 160.48 155.08 160.80 156.01 161.58 156.39 Z M 162.46 156.82 L 163.38 157.28 C 164.15 157.67 165.09 157.36 165.48 156.59 C 165.87 155.82 165.56 154.88 164.79 154.49 L 163.87 154.03 C 163.10 153.64 162.16 153.95 161.77 154.72 C 161.38 155.49 161.69 156.43 162.46 156.82 Z M 163.36 157.27 L 164.23 157.73 C 165.00 158.13 165.94 157.84 166.34 157.07 C 166.74 156.31 166.45 155.37 165.69 154.96 L 164.81 154.50 C 164.05 154.10 163.10 154.39 162.70 155.16 C 162.30 155.92 162.59 156.86 163.36 157.27 Z M 164.21 157.72 L 165.07 158.19 C 165.83 158.60 166.78 158.32 167.19 157.57 C 167.60 156.81 167.33 155.86 166.57 155.45 L 165.71 154.98 C 164.96 154.56 164.01 154.84 163.59 155.60 C 163.18 156.35 163.46 157.30 164.21 157.72 Z M 165.05 158.17 L 165.91 158.67 C 166.66 159.09 167.62 158.83 168.04 158.08 C 168.47 157.33 168.21 156.38 167.46 155.95 L 166.59 155.46 C 165.84 155.03 164.89 155.30 164.46 156.04 C 164.04 156.79 164.30 157.75 165.05 158.17 Z M 165.89 158.65 L 166.76 159.17 C 167.51 159.60 168.46 159.36 168.90 158.61 C 169.34 157.87 169.09 156.91 168.35 156.48 L 167.48 155.96 C 166.73 155.53 165.78 155.77 165.34 156.52 C 164.90 157.26 165.15 158.22 165.89 158.65 Z M 166.74 159.15 L 167.62 159.69 C 168.35 160.14 169.31 159.90 169.76 159.17 C 170.21 158.43 169.98 157.47 169.24 157.02 L 168.37 156.49 C 167.63 156.04 166.67 156.27 166.22 157.01 C 165.77 157.74 166.01 158.70 166.74 159.15 Z M 167.60 159.67 L 168.43 160.20 C 169.16 160.66 170.13 160.44 170.59 159.71 C 171.05 158.98 170.83 158.02 170.10 157.56 L 169.26 157.03 C 168.53 156.57 167.57 156.79 167.11 157.52 C 166.65 158.25 166.87 159.22 167.60 159.67 Z M 168.42 160.19 L 169.23 160.72 C 169.95 161.18 170.92 160.98 171.39 160.25 C 171.86 159.53 171.65 158.56 170.93 158.09 L 170.11 157.57 C 169.39 157.10 168.42 157.31 167.95 158.03 C 167.49 158.75 167.69 159.72 168.42 160.19 Z M 169.21 160.70 L 170.03 161.25 C 170.75 161.73 171.72 161.53 172.20 160.82 C 172.67 160.10 172.48 159.13 171.76 158.65 L 170.94 158.11 C 170.23 157.63 169.26 157.82 168.78 158.54 C 168.30 159.26 168.49 160.23 169.21 160.70 Z M 170.01 161.24 L 170.84 161.81 C 171.55 162.29 172.53 162.11 173.01 161.40 C 173.50 160.69 173.32 159.72 172.61 159.23 L 171.78 158.66 C 171.07 158.18 170.10 158.36 169.61 159.07 C 169.12 159.78 169.30 160.75 170.01 161.24 Z M 170.83 161.80 L 171.66 162.39 C 172.37 162.88 173.34 162.72 173.84 162.01 C 174.34 161.31 174.17 160.33 173.46 159.84 L 172.63 159.24 C 171.92 158.75 170.95 158.92 170.45 159.62 C 169.95 160.32 170.12 161.30 170.83 161.80 Z M 171.65 162.37 L 172.49 162.99 C 173.19 163.49 174.17 163.34 174.67 162.64 C 175.18 161.94 175.02 160.96 174.32 160.46 L 173.48 159.85 C 172.78 159.34 171.81 159.50 171.30 160.19 C 170.79 160.89 170.95 161.87 171.65 162.37 Z M 172.48 162.97 L 173.28 163.57 C 173.97 164.09 174.95 163.94 175.46 163.25 C 175.98 162.56 175.83 161.58 175.14 161.07 L 174.34 160.47 C 173.65 159.96 172.67 160.10 172.16 160.79 C 171.64 161.48 171.78 162.46 172.48 162.97 Z M 173.26 163.56 L 174.06 164.17 C 174.75 164.70 175.73 164.57 176.25 163.88 C 176.77 163.20 176.64 162.22 175.96 161.69 L 175.16 161.08 C 174.47 160.56 173.49 160.68 172.97 161.37 C 172.44 162.05 172.57 163.03 173.26 163.56 Z M 174.04 164.16 L 174.84 164.79 C 175.51 165.32 176.49 165.21 177.03 164.53 C 177.56 163.86 177.45 162.87 176.77 162.34 L 175.98 161.71 C 175.30 161.17 174.32 161.29 173.79 161.96 C 173.25 162.64 173.37 163.62 174.04 164.16 Z M 174.81 164.77 L 175.59 165.41 C 176.26 165.96 177.24 165.86 177.79 165.19 C 178.34 164.53 178.24 163.54 177.58 163.00 L 176.80 162.36 C 176.13 161.81 175.15 161.91 174.60 162.57 C 174.05 163.24 174.15 164.22 174.81 164.77 Z M 175.57 165.39 L 176.32 166.03 C 176.97 166.60 177.96 166.52 178.52 165.87 C 179.08 165.21 179.01 164.23 178.35 163.67 L 177.60 163.02 C 176.95 162.46 175.96 162.53 175.40 163.19 C 174.84 163.84 174.91 164.82 175.57 165.39 Z M 176.29 166.01 L 177.02 166.67 C 177.66 167.25 178.65 167.20 179.23 166.56 C 179.81 165.92 179.76 164.94 179.12 164.36 L 178.38 163.69 C 177.75 163.11 176.76 163.16 176.18 163.80 C 175.60 164.44 175.65 165.43 176.29 166.01 Z M 176.99 166.64 L 177.74 167.37 C 178.36 167.97 179.35 167.95 179.95 167.33 C 180.55 166.71 180.53 165.72 179.91 165.12 L 179.16 164.39 C 178.53 163.79 177.55 163.81 176.95 164.43 C 176.35 165.05 176.37 166.04 176.99 166.64 Z M 177.71 167.33 L 178.42 168.06 C 179.02 168.68 180.01 168.70 180.62 168.10 C 181.24 167.50 181.26 166.51 180.66 165.89 L 179.95 165.16 C 179.35 164.54 178.36 164.52 177.74 165.12 C 177.12 165.72 177.11 166.71 177.71 167.33 Z M 178.38 168.02 L 179.05 168.76 C 179.63 169.40 180.61 169.45 181.25 168.87 C 181.89 168.29 181.94 167.30 181.36 166.66 L 180.69 165.93 C 180.11 165.29 179.13 165.24 178.49 165.82 C 177.85 166.40 177.80 167.39 178.38 168.02 Z M 179.01 168.72 L 179.64 169.46 C 180.20 170.12 181.19 170.20 181.84 169.64 C 182.50 169.08 182.58 168.10 182.02 167.44 L 181.39 166.70 C 180.84 166.04 179.85 165.96 179.19 166.52 C 178.54 167.08 178.46 168.06 179.01 168.72 Z M 179.61 169.42 L 180.21 170.17 C 180.74 170.85 181.73 170.96 182.40 170.42 C 183.07 169.89 183.19 168.90 182.65 168.23 L 182.05 167.48 C 181.52 166.81 180.54 166.69 179.86 167.23 C 179.19 167.77 179.07 168.75 179.61 169.42 Z M 180.18 170.13 L 180.79 170.95 C 181.30 171.64 182.28 171.79 182.97 171.27 C 183.66 170.76 183.81 169.78 183.29 169.09 L 182.68 168.27 C 182.17 167.58 181.19 167.43 180.50 167.95 C 179.80 168.46 179.66 169.44 180.18 170.13 Z M 180.76 170.91 L 181.34 171.75 C 181.83 172.45 182.80 172.63 183.51 172.14 C 184.22 171.64 184.39 170.67 183.90 169.96 L 183.32 169.13 C 182.83 168.42 181.86 168.25 181.15 168.74 C 180.44 169.23 180.26 170.20 180.76 170.91 Z M 181.31 171.70 L 181.85 172.54 C 182.32 173.27 183.29 173.47 184.01 173.01 C 184.73 172.54 184.94 171.57 184.47 170.85 L 183.93 170.01 C 183.46 169.28 182.49 169.07 181.77 169.54 C 181.05 170.01 180.84 170.98 181.31 171.70 Z M 181.82 172.50 L 182.33 173.34 C 182.77 174.08 183.73 174.32 184.47 173.88 C 185.21 173.44 185.45 172.48 185.01 171.74 L 184.50 170.89 C 184.06 170.15 183.10 169.91 182.36 170.36 C 181.62 170.80 181.38 171.76 181.82 172.50 Z M 182.30 173.29 L 182.77 174.15 C 183.19 174.90 184.14 175.18 184.89 174.76 C 185.65 174.34 185.92 173.39 185.51 172.64 L 185.04 171.79 C 184.62 171.03 183.67 170.76 182.91 171.17 C 182.16 171.59 181.89 172.54 182.30 173.29 Z M 182.75 174.09 L 183.21 175.02 C 183.60 175.79 184.54 176.10 185.31 175.72 C 186.08 175.33 186.39 174.39 186.00 173.62 L 185.53 172.69 C 185.15 171.92 184.21 171.61 183.44 172.00 C 182.67 172.39 182.36 173.32 182.75 174.09 Z M 183.18 174.96 L 183.60 175.89 C 183.95 176.67 184.88 177.02 185.66 176.67 C 186.45 176.32 186.80 175.39 186.45 174.61 L 186.03 173.68 C 185.68 172.89 184.75 172.54 183.97 172.90 C 183.18 173.25 182.83 174.17 183.18 174.96 Z M 183.57 175.82 L 183.93 176.74 C 184.25 177.54 185.15 177.94 185.96 177.62 C 186.76 177.31 187.15 176.40 186.84 175.60 L 186.48 174.68 C 186.16 173.87 185.25 173.48 184.45 173.79 C 183.65 174.11 183.25 175.02 183.57 175.82 Z M 183.90 176.66 L 184.21 177.58 C 184.48 178.40 185.37 178.84 186.18 178.57 C 187.00 178.30 187.44 177.41 187.17 176.60 L 186.87 175.68 C 186.59 174.86 185.71 174.42 184.89 174.69 C 184.07 174.96 183.63 175.85 183.90 176.66 Z M 184.18 177.49 L 184.44 178.46 C 184.67 179.29 185.52 179.79 186.36 179.56 C 187.19 179.34 187.68 178.48 187.46 177.65 L 187.20 176.68 C 186.98 175.85 186.12 175.36 185.29 175.58 C 184.45 175.80 183.96 176.66 184.18 177.49 Z M 184.42 178.37 L 184.62 179.36 C 184.80 180.21 185.62 180.75 186.47 180.58 C 187.31 180.41 187.86 179.58 187.68 178.74 L 187.48 177.74 C 187.31 176.90 186.48 176.35 185.64 176.53 C 184.79 176.70 184.25 177.52 184.42 178.37 Z M 184.61 179.28 L 184.76 180.26 C 184.88 181.12 185.68 181.71 186.53 181.58 C 187.38 181.45 187.97 180.66 187.85 179.80 L 187.70 178.82 C 187.57 177.97 186.78 177.38 185.92 177.50 C 185.07 177.63 184.48 178.43 184.61 179.28 Z M 184.75 180.19 L 184.85 181.17 C 184.93 182.03 185.70 182.65 186.56 182.56 C 187.42 182.48 188.04 181.71 187.95 180.85 L 187.85 179.88 C 187.77 179.02 187.00 178.39 186.14 178.48 C 185.28 178.57 184.66 179.33 184.75 180.19 Z M 184.84 181.11 L 184.90 182.09 C 184.96 182.95 185.70 183.61 186.56 183.55 C 187.42 183.50 188.08 182.75 188.02 181.89 L 187.96 180.91 C 187.90 180.05 187.16 179.40 186.30 179.45 C 185.44 179.51 184.79 180.25 184.84 181.11 Z M 184.90 182.03 L 184.92 183.02 C 184.94 183.88 185.66 184.57 186.53 184.55 C 187.39 184.52 188.07 183.81 188.05 182.94 L 188.03 181.95 C 188.01 181.09 187.29 180.41 186.42 180.43 C 185.56 180.45 184.88 181.17 184.90 182.03 Z M 184.92 182.94 L 184.90 183.94 C 184.88 184.80 185.56 185.52 186.43 185.54 C 187.29 185.56 188.01 184.88 188.03 184.01 L 188.06 183.02 C 188.08 182.15 187.39 181.43 186.53 181.41 C 185.66 181.39 184.94 182.08 184.92 182.94 Z M 184.90 183.85 L 184.82 184.86 C 184.75 185.72 185.40 186.48 186.26 186.55 C 187.13 186.62 187.88 185.97 187.95 185.11 L 188.03 184.10 C 188.10 183.23 187.45 182.48 186.59 182.41 C 185.72 182.34 184.97 182.99 184.90 183.85 Z M 184.83 184.77 L 184.69 185.75 C 184.57 186.61 185.17 187.40 186.03 187.52 C 186.89 187.64 187.69 187.04 187.81 186.18 L 187.94 185.20 C 188.06 184.34 187.46 183.54 186.60 183.42 C 185.74 183.30 184.95 183.90 184.83 184.77 Z M 184.70 185.65 L 184.50 186.61 C 184.33 187.47 184.88 188.30 185.73 188.48 C 186.58 188.65 187.41 188.10 187.59 187.25 L 187.79 186.28 C 187.97 185.43 187.42 184.60 186.57 184.42 C 185.71 184.25 184.88 184.79 184.70 185.65 Z M 184.53 186.50 L 184.25 187.46 C 184.01 188.30 184.50 189.17 185.34 189.41 C 186.17 189.65 187.05 189.17 187.29 188.33 L 187.56 187.37 C 187.80 186.53 187.32 185.66 186.48 185.42 C 185.64 185.18 184.77 185.66 184.53 186.50 Z M 184.30 187.33 L 183.93 188.28 C 183.62 189.09 184.03 190.00 184.84 190.32 C 185.66 190.63 186.57 190.22 186.88 189.41 L 187.24 188.46 C 187.56 187.65 187.15 186.74 186.34 186.42 C 185.52 186.11 184.61 186.52 184.30 187.33 Z M 184.00 188.13 L 183.55 189.02 C 183.16 189.80 183.47 190.75 184.25 191.14 C 185.03 191.53 185.98 191.22 186.37 190.44 L 186.82 189.55 C 187.21 188.77 186.90 187.83 186.12 187.43 C 185.34 187.04 184.39 187.35 184.00 188.13 Z M 183.63 188.89 L 183.11 189.70 C 182.64 190.44 182.86 191.42 183.60 191.88 C 184.34 192.35 185.32 192.13 185.78 191.39 L 186.30 190.57 C 186.76 189.84 186.54 188.86 185.81 188.39 C 185.07 187.93 184.09 188.15 183.63 188.89 Z M 183.18 189.60 L 182.59 190.39 C 182.07 191.09 182.21 192.08 182.91 192.60 C 183.61 193.12 184.60 192.98 185.12 192.28 L 185.71 191.49 C 186.23 190.80 186.09 189.80 185.39 189.28 C 184.70 188.76 183.70 188.90 183.18 189.60 Z M 182.65 190.31 L 181.99 191.08 C 181.43 191.75 181.51 192.74 182.17 193.31 C 182.84 193.88 183.83 193.80 184.40 193.13 L 185.06 192.36 C 185.62 191.70 185.55 190.70 184.88 190.13 C 184.22 189.57 183.22 189.65 182.65 190.31 Z M 182.04 191.03 L 181.33 191.79 C 180.73 192.42 180.76 193.42 181.40 194.02 C 182.04 194.62 183.04 194.59 183.64 193.95 L 184.35 193.19 C 184.95 192.55 184.92 191.55 184.28 190.95 C 183.64 190.36 182.64 190.39 182.04 191.03 Z M 181.36 191.75 L 180.69 192.43 C 180.07 193.05 180.07 194.05 180.69 194.67 C 181.31 195.28 182.31 195.28 182.93 194.66 L 183.60 193.99 C 184.22 193.37 184.22 192.37 183.60 191.75 C 182.98 191.13 181.98 191.13 181.36 191.75 Z M 180.72 192.40 L 180.02 193.07 C 179.38 193.67 179.36 194.67 179.96 195.30 C 180.56 195.94 181.56 195.96 182.20 195.36 L 182.90 194.69 C 183.53 194.09 183.55 193.09 182.95 192.46 C 182.35 191.82 181.35 191.80 180.72 192.40 Z M 180.04 193.04 L 179.31 193.71 C 178.66 194.30 178.62 195.30 179.20 195.94 C 179.79 196.59 180.79 196.64 181.44 196.05 L 182.17 195.38 C 182.82 194.79 182.86 193.79 182.28 193.15 C 181.69 192.50 180.69 192.46 180.04 193.04 Z M 179.33 193.69 L 178.56 194.36 C 177.91 194.93 177.84 195.93 178.41 196.59 C 178.99 197.25 179.98 197.32 180.64 196.74 L 181.41 196.07 C 182.07 195.50 182.14 194.50 181.56 193.84 C 180.99 193.18 179.99 193.12 179.33 193.69 Z M 178.59 194.34 L 177.78 195.02 C 177.12 195.58 177.03 196.57 177.59 197.24 C 178.15 197.91 179.15 198.00 179.82 197.44 L 180.62 196.76 C 181.29 196.20 181.37 195.20 180.81 194.54 C 180.25 193.87 179.26 193.78 178.59 194.34 Z M 177.80 195.00 L 177.04 195.62 C 176.36 196.17 176.26 197.16 176.81 197.84 C 177.36 198.52 178.35 198.62 179.03 198.07 L 179.80 197.45 C 180.47 196.90 180.58 195.91 180.03 195.23 C 179.48 194.55 178.48 194.45 177.80 195.00 Z M 177.06 195.61 L 176.30 196.20 C 175.62 196.74 175.50 197.74 176.04 198.42 C 176.58 199.11 177.57 199.22 178.26 198.68 L 179.01 198.09 C 179.70 197.55 179.82 196.55 179.28 195.87 C 178.74 195.18 177.74 195.07 177.06 195.61 Z M 176.32 196.19 L 175.53 196.79 C 174.84 197.32 174.71 198.32 175.25 199.01 C 175.78 199.70 176.77 199.83 177.46 199.30 L 178.24 198.70 C 178.94 198.16 179.06 197.17 178.53 196.48 C 178.00 195.79 177.01 195.66 176.32 196.19 Z M 175.55 196.78 L 174.74 197.38 C 174.05 197.91 173.91 198.90 174.43 199.60 C 174.96 200.30 175.95 200.44 176.65 199.91 L 177.45 199.31 C 178.15 198.78 178.29 197.79 177.76 197.09 C 177.24 196.40 176.25 196.25 175.55 196.78 Z M 174.76 197.37 L 173.93 197.98 C 173.23 198.50 173.08 199.49 173.60 200.19 C 174.11 200.90 175.10 201.05 175.81 200.53 L 176.63 199.92 C 177.34 199.40 177.49 198.41 176.97 197.71 C 176.45 197.01 175.46 196.86 174.76 197.37 Z M 173.94 197.97 L 173.10 198.59 C 172.39 199.10 172.23 200.09 172.74 200.80 C 173.25 201.50 174.24 201.66 174.95 201.15 L 175.80 200.54 C 176.51 200.03 176.66 199.04 176.15 198.33 C 175.64 197.62 174.65 197.46 173.94 197.97 Z M 173.11 198.58 L 172.30 199.15 C 171.59 199.66 171.42 200.65 171.93 201.36 C 172.43 202.07 173.42 202.24 174.13 201.73 L 174.94 201.16 C 175.65 200.65 175.82 199.66 175.31 198.95 C 174.81 198.24 173.82 198.07 173.11 198.58 Z M 172.31 199.15 L 171.50 199.71 C 170.79 200.21 170.62 201.20 171.12 201.92 C 171.62 202.63 172.61 202.80 173.32 202.30 L 174.13 201.74 C 174.84 201.24 175.01 200.25 174.51 199.53 C 174.01 198.82 173.02 198.65 172.31 199.15 Z M 171.51 199.71 L 170.70 200.27 C 169.98 200.77 169.80 201.75 170.30 202.47 C 170.79 203.19 171.78 203.37 172.50 202.87 L 173.31 202.31 C 174.03 201.81 174.21 200.82 173.71 200.11 C 173.22 199.39 172.23 199.21 171.51 199.71 Z M 170.70 200.27 L 169.88 200.83 C 169.16 201.33 168.97 202.31 169.46 203.03 C 169.96 203.75 170.94 203.94 171.66 203.44 L 172.49 202.88 C 173.21 202.39 173.39 201.40 172.90 200.68 C 172.41 199.96 171.43 199.77 170.70 200.27 Z M 169.88 200.83 L 169.05 201.39 C 168.32 201.88 168.13 202.86 168.62 203.59 C 169.11 204.31 170.09 204.50 170.81 204.01 L 171.65 203.45 C 172.38 202.96 172.57 201.98 172.08 201.25 C 171.59 200.53 170.61 200.34 169.88 200.83 Z M 169.05 201.39 L 168.21 201.95 C 167.48 202.44 167.28 203.42 167.77 204.14 C 168.25 204.87 169.23 205.07 169.96 204.58 L 170.81 204.02 C 171.53 203.54 171.73 202.55 171.25 201.83 C 170.76 201.10 169.78 200.91 169.05 201.39 Z M 168.22 201.95 L 167.37 202.50 C 166.64 202.98 166.44 203.96 166.92 204.69 C 167.40 205.42 168.38 205.62 169.11 205.14 L 169.95 204.59 C 170.68 204.11 170.88 203.13 170.40 202.40 C 169.92 201.67 168.94 201.47 168.22 201.95 Z M 167.38 202.50 L 166.56 203.03 C 165.83 203.51 165.62 204.48 166.10 205.22 C 166.57 205.95 167.55 206.15 168.28 205.68 L 169.10 205.15 C 169.83 204.67 170.04 203.69 169.56 202.96 C 169.09 202.23 168.11 202.02 167.38 202.50 Z M 166.56 203.03 L 165.74 203.56 C 165.01 204.03 164.79 205.01 165.27 205.74 C 165.74 206.47 166.71 206.69 167.45 206.21 L 168.27 205.68 C 169.01 205.21 169.22 204.23 168.75 203.50 C 168.27 202.77 167.30 202.56 166.56 203.03 Z M 165.74 203.56 L 164.91 204.09 C 164.17 204.56 163.96 205.54 164.43 206.27 C 164.90 207.01 165.88 207.22 166.61 206.75 L 167.44 206.22 C 168.18 205.75 168.39 204.77 167.92 204.04 C 167.45 203.30 166.48 203.09 165.74 203.56 Z M 164.91 204.09 L 164.07 204.63 C 163.33 205.10 163.12 206.07 163.59 206.81 C 164.06 207.54 165.03 207.76 165.76 207.29 L 166.61 206.75 C 167.34 206.28 167.55 205.31 167.09 204.57 C 166.62 203.84 165.64 203.63 164.91 204.09 Z M 164.07 204.63 L 163.22 205.18 C 162.48 205.65 162.27 206.62 162.74 207.35 C 163.20 208.08 164.18 208.30 164.91 207.83 L 165.76 207.29 C 166.50 206.82 166.71 205.85 166.24 205.11 C 165.77 204.38 164.80 204.16 164.07 204.63 Z M 163.21 205.18 L 162.35 205.73 C 161.62 206.20 161.41 207.17 161.88 207.91 C 162.35 208.64 163.32 208.85 164.05 208.38 L 164.91 207.83 C 165.64 207.36 165.86 206.39 165.39 205.65 C 164.92 204.92 163.95 204.71 163.21 205.18 Z M 162.35 205.73 L 161.49 206.29 C 160.76 206.76 160.55 207.73 161.02 208.46 C 161.49 209.19 162.46 209.40 163.19 208.93 L 164.05 208.38 C 164.78 207.91 164.99 206.93 164.52 206.20 C 164.05 205.47 163.08 205.26 162.35 205.73 Z M 161.49 206.29 L 160.64 206.84 C 159.91 207.32 159.70 208.29 160.17 209.02 C 160.64 209.74 161.62 209.95 162.35 209.48 L 163.20 208.93 C 163.92 208.46 164.13 207.48 163.66 206.76 C 163.19 206.03 162.22 205.82 161.49 206.29 Z M 160.63 206.85 L 159.78 207.40 C 159.05 207.88 158.85 208.85 159.32 209.57 C 159.80 210.30 160.77 210.51 161.49 210.03 L 162.35 209.48 C 163.07 209.00 163.28 208.03 162.81 207.30 C 162.33 206.58 161.36 206.37 160.63 206.85 Z M 159.78 207.41 L 158.93 207.96 C 158.20 208.44 158.00 209.41 158.47 210.13 C 158.95 210.86 159.92 211.06 160.64 210.59 L 161.50 210.03 C 162.22 209.56 162.42 208.58 161.95 207.86 C 161.48 207.14 160.50 206.93 159.78 207.41 Z M 158.93 207.96 L 158.08 208.52 C 157.36 208.99 157.16 209.96 157.63 210.69 C 158.10 211.41 159.08 211.61 159.80 211.14 L 160.64 210.59 C 161.37 210.11 161.57 209.14 161.10 208.42 C 160.62 207.69 159.65 207.49 158.93 207.96 Z M 158.08 208.52 L 157.25 209.07 C 156.53 209.54 156.33 210.51 156.80 211.23 C 157.27 211.96 158.24 212.16 158.97 211.68 L 159.80 211.14 C 160.52 210.66 160.72 209.69 160.25 208.97 C 159.77 208.25 158.80 208.05 158.08 208.52 Z M 157.25 209.07 L 156.44 209.60 C 155.72 210.08 155.51 211.04 155.99 211.77 C 156.46 212.49 157.43 212.69 158.15 212.22 L 158.97 211.68 C 159.69 211.21 159.89 210.24 159.42 209.52 C 158.94 208.80 157.97 208.59 157.25 209.07 Z M 156.44 209.60 L 155.61 210.15 C 154.88 210.62 154.68 211.59 155.15 212.31 C 155.63 213.03 156.60 213.23 157.32 212.76 L 158.15 212.22 C 158.87 211.74 159.07 210.77 158.60 210.05 C 158.13 209.33 157.16 209.13 156.44 209.60 Z M 155.61 210.15 L 154.72 210.73 C 154.00 211.20 153.80 212.17 154.27 212.89 C 154.74 213.61 155.71 213.81 156.43 213.34 L 157.32 212.76 C 158.04 212.29 158.24 211.32 157.77 210.60 C 157.30 209.88 156.33 209.68 155.61 210.15 Z M 154.72 210.73 L 153.87 211.29 C 153.14 211.76 152.94 212.72 153.41 213.45 C 153.88 214.17 154.85 214.37 155.57 213.90 L 156.43 213.34 C 157.15 212.87 157.35 211.90 156.88 211.18 C 156.41 210.46 155.44 210.25 154.72 210.73 Z M 153.87 211.29 L 153.03 211.83 C 152.31 212.30 152.11 213.27 152.58 213.99 C 153.05 214.71 154.02 214.92 154.74 214.44 L 155.57 213.90 C 156.29 213.43 156.50 212.46 156.03 211.74 C 155.56 211.02 154.59 210.81 153.87 211.29 Z M 153.03 211.83 L 152.22 212.36 C 151.50 212.83 151.29 213.80 151.76 214.52 C 152.24 215.24 153.20 215.45 153.92 214.98 L 154.74 214.44 C 155.46 213.97 155.66 213.00 155.19 212.28 C 154.72 211.56 153.75 211.36 153.03 211.83 Z M 152.22 212.36 L 151.41 212.89 C 150.69 213.36 150.49 214.33 150.96 215.05 C 151.43 215.77 152.40 215.97 153.12 215.50 L 153.93 214.98 C 154.65 214.50 154.85 213.54 154.38 212.81 C 153.90 212.09 152.94 211.89 152.22 212.36 Z M 151.41 212.89 L 150.60 213.42 C 149.88 213.89 149.68 214.86 150.16 215.58 C 150.63 216.30 151.60 216.50 152.32 216.03 L 153.13 215.50 C 153.85 215.03 154.05 214.06 153.57 213.34 C 153.10 212.62 152.13 212.42 151.41 212.89 Z M 150.60 213.42 L 149.76 213.97 C 149.04 214.45 148.85 215.42 149.32 216.14 C 149.79 216.86 150.76 217.06 151.48 216.58 L 152.32 216.03 C 153.04 215.55 153.24 214.58 152.77 213.86 C 152.29 213.14 151.32 212.95 150.60 213.42 Z M 149.76 213.97 L 148.93 214.53 C 148.21 215.00 148.01 215.97 148.48 216.69 C 148.96 217.41 149.93 217.61 150.65 217.13 L 151.48 216.58 C 152.20 216.11 152.40 215.14 151.93 214.42 C 151.45 213.70 150.48 213.50 149.76 213.97 Z M 148.93 214.52 L 148.09 215.07 C 147.37 215.54 147.17 216.51 147.64 217.23 C 148.12 217.95 149.09 218.16 149.81 217.68 L 150.64 217.13 C 151.36 216.66 151.56 215.69 151.09 214.97 C 150.62 214.25 149.65 214.05 148.93 214.52 Z M 148.10 215.07 L 147.26 215.61 C 146.54 216.08 146.33 217.05 146.80 217.77 C 147.27 218.49 148.24 218.70 148.96 218.23 L 149.80 217.69 C 150.52 217.22 150.73 216.25 150.26 215.53 C 149.79 214.80 148.82 214.60 148.10 215.07 Z M 147.27 215.61 L 146.43 216.14 C 145.71 216.61 145.50 217.58 145.96 218.30 C 146.43 219.03 147.39 219.24 148.12 218.77 L 148.96 218.23 C 149.68 217.77 149.89 216.80 149.43 216.08 C 148.96 215.35 148.00 215.14 147.27 215.61 Z M 146.44 216.14 L 145.60 216.67 C 144.87 217.13 144.65 218.09 145.11 218.82 C 145.57 219.55 146.53 219.77 147.26 219.31 L 148.11 218.78 C 148.84 218.32 149.06 217.36 148.60 216.63 C 148.14 215.90 147.17 215.68 146.44 216.14 Z M 145.61 216.66 L 144.76 217.19 C 144.03 217.64 143.80 218.60 144.25 219.34 C 144.70 220.07 145.67 220.30 146.40 219.84 L 147.25 219.32 C 147.99 218.87 148.21 217.90 147.76 217.17 C 147.31 216.44 146.35 216.21 145.61 216.66 Z M 144.77 217.18 L 143.92 217.69 C 143.18 218.14 142.94 219.10 143.39 219.84 C 143.83 220.58 144.79 220.81 145.53 220.37 L 146.39 219.85 C 147.12 219.41 147.36 218.45 146.92 217.71 C 146.47 216.97 145.51 216.73 144.77 217.18 Z M 143.93 217.69 L 143.07 218.19 C 142.33 218.63 142.08 219.59 142.52 220.33 C 142.95 221.07 143.91 221.32 144.65 220.88 L 145.52 220.38 C 146.26 219.94 146.51 218.98 146.07 218.24 C 145.63 217.50 144.68 217.25 143.93 217.69 Z M 143.09 218.18 L 142.22 218.68 C 141.47 219.11 141.21 220.06 141.64 220.81 C 142.07 221.56 143.02 221.82 143.77 221.39 L 144.64 220.89 C 145.39 220.47 145.65 219.51 145.22 218.76 C 144.79 218.02 143.84 217.75 143.09 218.18 Z M 142.24 218.67 L 141.36 219.15 C 140.61 219.57 140.34 220.52 140.75 221.27 C 141.17 222.03 142.12 222.30 142.87 221.88 L 143.75 221.40 C 144.50 220.98 144.78 220.03 144.36 219.28 C 143.94 218.52 142.99 218.25 142.24 218.67 Z M 141.38 219.14 L 140.50 219.61 C 139.74 220.02 139.45 220.97 139.86 221.73 C 140.26 222.49 141.21 222.77 141.97 222.37 L 142.85 221.89 C 143.61 221.49 143.90 220.54 143.50 219.78 C 143.09 219.02 142.14 218.73 141.38 219.14 Z M 140.52 219.60 L 139.63 220.06 C 138.86 220.46 138.56 221.40 138.96 222.16 C 139.35 222.93 140.29 223.23 141.06 222.84 L 141.95 222.38 C 142.72 221.98 143.02 221.04 142.62 220.28 C 142.23 219.51 141.29 219.21 140.52 219.60 Z M 139.65 220.05 L 138.75 220.49 C 137.98 220.88 137.66 221.81 138.05 222.59 C 138.43 223.36 139.37 223.68 140.14 223.29 L 141.04 222.85 C 141.81 222.47 142.13 221.53 141.74 220.76 C 141.36 219.98 140.42 219.67 139.65 220.05 Z M 138.78 220.48 L 137.87 220.91 C 137.09 221.28 136.76 222.21 137.13 222.99 C 137.50 223.77 138.43 224.10 139.21 223.73 L 140.11 223.30 C 140.89 222.94 141.23 222.00 140.86 221.23 C 140.49 220.45 139.56 220.11 138.78 220.48 Z M 137.90 220.90 L 136.99 221.31 C 136.20 221.66 135.85 222.59 136.21 223.38 C 136.56 224.16 137.49 224.51 138.27 224.16 L 139.18 223.74 C 139.97 223.39 140.32 222.47 139.96 221.68 C 139.61 220.89 138.68 220.54 137.90 220.90 Z M 137.02 221.30 L 136.10 221.69 C 135.31 222.03 134.94 222.95 135.28 223.74 C 135.62 224.53 136.54 224.90 137.33 224.56 L 138.25 224.17 C 139.04 223.83 139.41 222.91 139.07 222.12 C 138.73 221.33 137.81 220.96 137.02 221.30 Z M 136.13 221.68 L 135.22 222.05 C 134.42 222.37 134.03 223.28 134.35 224.08 C 134.68 224.88 135.59 225.27 136.39 224.94 L 137.30 224.57 C 138.10 224.25 138.49 223.34 138.16 222.54 C 137.84 221.74 136.93 221.35 136.13 221.68 Z M 135.24 222.04 L 134.32 222.39 C 133.51 222.70 133.11 223.60 133.42 224.41 C 133.73 225.21 134.63 225.62 135.44 225.31 L 136.36 224.95 C 137.17 224.64 137.57 223.74 137.26 222.94 C 136.95 222.13 136.05 221.73 135.24 222.04 Z M 134.34 222.38 L 133.41 222.72 C 132.60 223.02 132.18 223.91 132.48 224.72 C 132.77 225.53 133.67 225.95 134.48 225.66 L 135.41 225.32 C 136.22 225.02 136.64 224.13 136.35 223.32 C 136.05 222.51 135.15 222.09 134.34 222.38 Z M 133.43 222.71 L 132.49 223.04 C 131.67 223.32 131.24 224.21 131.52 225.03 C 131.81 225.84 132.70 226.27 133.51 225.99 L 134.46 225.66 C 135.27 225.38 135.70 224.49 135.42 223.68 C 135.14 222.86 134.25 222.43 133.43 222.71 Z M 132.51 223.04 L 131.55 223.35 C 130.73 223.63 130.29 224.51 130.56 225.33 C 130.83 226.15 131.71 226.59 132.53 226.32 L 133.49 226.00 C 134.31 225.73 134.75 224.84 134.48 224.02 C 134.21 223.21 133.33 222.76 132.51 223.04 Z M 131.56 223.35 L 130.59 223.66 C 129.77 223.92 129.32 224.80 129.58 225.62 C 129.84 226.44 130.72 226.90 131.54 226.63 L 132.51 226.32 C 133.34 226.06 133.79 225.18 133.53 224.36 C 133.26 223.54 132.38 223.09 131.56 223.35 Z M 130.60 223.66 L 129.63 223.96 C 128.80 224.21 128.34 225.09 128.59 225.91 C 128.85 226.73 129.72 227.20 130.55 226.94 L 131.53 226.64 C 132.35 226.38 132.81 225.51 132.56 224.69 C 132.30 223.86 131.43 223.40 130.60 223.66 Z M 129.64 223.95 L 128.66 224.25 C 127.83 224.49 127.36 225.36 127.61 226.19 C 127.85 227.01 128.72 227.48 129.55 227.24 L 130.53 226.95 C 131.36 226.70 131.83 225.83 131.58 225.01 C 131.34 224.18 130.47 223.71 129.64 223.95 Z M 128.68 224.24 L 127.70 224.52 C 126.87 224.75 126.39 225.62 126.62 226.45 C 126.86 227.27 127.72 227.76 128.55 227.52 L 129.53 227.24 C 130.36 227.01 130.84 226.15 130.60 225.32 C 130.37 224.49 129.51 224.00 128.68 224.24 Z M 127.72 224.51 L 126.76 224.77 C 125.92 224.99 125.43 225.85 125.65 226.68 C 125.88 227.51 126.73 228.01 127.57 227.79 L 128.53 227.53 C 129.36 227.30 129.86 226.45 129.63 225.62 C 129.41 224.78 128.55 224.29 127.72 224.51 Z M 126.78 224.76 L 125.85 225.00 C 125.01 225.21 124.50 226.05 124.71 226.89 C 124.92 227.73 125.77 228.23 126.60 228.03 L 127.54 227.79 C 128.38 227.58 128.89 226.74 128.68 225.90 C 128.47 225.06 127.62 224.55 126.78 224.76 Z M 125.88 224.99 L 124.88 225.21 C 124.04 225.41 123.52 226.24 123.71 227.08 C 123.90 227.92 124.73 228.45 125.58 228.26 L 126.57 228.03 C 127.41 227.84 127.94 227.01 127.75 226.17 C 127.56 225.32 126.72 224.80 125.88 224.99 Z M 124.93 225.21 L 123.88 225.41 C 123.04 225.58 122.49 226.40 122.65 227.25 C 122.82 228.10 123.64 228.64 124.49 228.48 L 125.53 228.27 C 126.38 228.10 126.93 227.28 126.76 226.43 C 126.59 225.59 125.77 225.04 124.93 225.21 Z M 123.93 225.41 L 122.93 225.57 C 122.08 225.72 121.51 226.52 121.65 227.37 C 121.79 228.22 122.60 228.80 123.45 228.65 L 124.45 228.48 C 125.30 228.34 125.87 227.54 125.73 226.68 C 125.58 225.83 124.78 225.26 123.93 225.41 Z M 122.97 225.57 L 122.02 225.70 C 121.17 225.82 120.57 226.61 120.69 227.46 C 120.81 228.32 121.60 228.91 122.45 228.79 L 123.41 228.66 C 124.26 228.54 124.86 227.75 124.74 226.90 C 124.62 226.04 123.83 225.45 122.97 225.57 Z M 122.06 225.69 L 121.14 225.80 C 120.28 225.89 119.66 226.67 119.76 227.52 C 119.86 228.38 120.63 229.00 121.49 228.90 L 122.41 228.80 C 123.27 228.70 123.88 227.93 123.79 227.07 C 123.69 226.22 122.92 225.60 122.06 225.69 Z M 121.18 225.79 L 120.24 225.87 C 119.38 225.95 118.75 226.71 118.82 227.56 C 118.89 228.42 119.65 229.06 120.51 228.99 L 121.45 228.91 C 122.31 228.83 122.94 228.07 122.87 227.22 C 122.79 226.36 122.04 225.72 121.18 225.79 Z M 120.28 225.87 L 119.33 225.93 C 118.47 225.98 117.82 226.72 117.87 227.58 C 117.92 228.44 118.66 229.10 119.52 229.05 L 120.47 228.99 C 121.33 228.94 121.99 228.20 121.93 227.33 C 121.88 226.47 121.14 225.82 120.28 225.87 Z M 119.37 225.93 L 118.39 225.97 C 117.53 226.00 116.86 226.72 116.89 227.59 C 116.93 228.45 117.65 229.12 118.51 229.09 L 119.49 229.05 C 120.35 229.02 121.02 228.29 120.99 227.43 C 120.96 226.57 120.23 225.90 119.37 225.93 Z M 118.42 225.96 L 117.39 225.98 C 116.53 226.00 115.85 226.71 115.86 227.57 C 115.88 228.44 116.59 229.12 117.45 229.11 L 118.48 229.09 C 119.34 229.07 120.03 228.36 120.01 227.50 C 120.00 226.63 119.29 225.95 118.42 225.96 Z M 117.42 225.98 L 116.35 225.99 C 115.49 225.99 114.79 226.69 114.79 227.56 C 114.80 228.42 115.50 229.11 116.36 229.11 L 117.43 229.11 C 118.29 229.10 118.99 228.40 118.98 227.54 C 118.98 226.68 118.28 225.98 117.42 225.98 Z M 116.37 225.99 L 115.40 225.98 C 114.54 225.97 113.83 226.66 113.82 227.52 C 113.81 228.38 114.50 229.09 115.36 229.10 L 116.34 229.11 C 117.20 229.12 117.90 228.43 117.91 227.57 C 117.92 226.71 117.23 226.00 116.37 225.99 Z M 115.45 225.98 L 114.44 225.94 C 113.58 225.90 112.85 226.57 112.81 227.43 C 112.78 228.29 113.45 229.02 114.31 229.06 L 115.32 229.10 C 116.18 229.13 116.91 228.46 116.94 227.60 C 116.98 226.74 116.31 226.01 115.45 225.98 Z M 114.51 225.94 L 113.49 225.85 C 112.64 225.77 111.88 226.41 111.80 227.26 C 111.72 228.12 112.36 228.88 113.21 228.96 L 114.23 229.05 C 115.09 229.13 115.85 228.49 115.93 227.64 C 116.01 226.78 115.37 226.02 114.51 225.94 Z M 113.60 225.86 L 112.60 225.70 C 111.74 225.57 110.94 226.15 110.81 227.00 C 110.67 227.85 111.25 228.65 112.11 228.79 L 113.11 228.95 C 113.96 229.08 114.76 228.50 114.90 227.65 C 115.03 226.80 114.45 226.00 113.60 225.86 Z M 112.74 225.73 L 111.77 225.49 C 110.94 225.27 110.09 225.78 109.88 226.61 C 109.66 227.45 110.17 228.30 111.00 228.51 L 111.96 228.76 C 112.80 228.97 113.65 228.47 113.86 227.63 C 114.08 226.80 113.57 225.95 112.74 225.73 Z M 111.96 225.55 L 110.98 225.16 C 110.18 224.84 109.27 225.23 108.95 226.03 C 108.64 226.83 109.03 227.74 109.83 228.06 L 110.81 228.45 C 111.61 228.77 112.52 228.38 112.84 227.58 C 113.16 226.77 112.77 225.87 111.96 225.55 Z M 111.18 225.26 L 110.26 224.72 C 109.51 224.29 108.55 224.55 108.12 225.29 C 107.69 226.04 107.95 227.00 108.70 227.43 L 109.62 227.96 C 110.37 228.39 111.33 228.13 111.76 227.39 C 112.19 226.64 111.93 225.69 111.18 225.26 Z M 110.43 224.84 L 109.62 224.21 C 108.94 223.68 107.96 223.81 107.43 224.49 C 106.90 225.18 107.03 226.16 107.71 226.68 L 108.52 227.31 C 109.20 227.84 110.18 227.71 110.71 227.03 C 111.24 226.35 111.11 225.36 110.43 224.84 Z M 109.77 224.34 L 109.08 223.66 C 108.47 223.05 107.48 223.05 106.88 223.67 C 106.27 224.28 106.27 225.26 106.88 225.87 L 107.56 226.55 C 108.18 227.16 109.16 227.16 109.77 226.55 C 110.38 225.94 110.38 224.95 109.77 224.34 Z M 109.21 223.80 L 108.66 223.10 C 108.13 222.43 107.15 222.31 106.47 222.84 C 105.79 223.37 105.67 224.35 106.21 225.03 L 106.75 225.73 C 107.29 226.41 108.27 226.53 108.95 226.00 C 109.62 225.46 109.74 224.48 109.21 223.80 Z M 108.79 223.30 L 108.27 222.37 C 107.84 221.62 106.89 221.35 106.14 221.78 C 105.39 222.20 105.12 223.16 105.55 223.91 L 106.08 224.84 C 106.50 225.59 107.45 225.85 108.20 225.43 C 108.95 225.00 109.22 224.05 108.79 223.30 Z M 108.38 222.61 L 108.04 221.67 C 107.75 220.86 106.85 220.44 106.04 220.73 C 105.23 221.02 104.81 221.92 105.10 222.73 L 105.44 223.67 C 105.73 224.48 106.62 224.90 107.44 224.61 C 108.25 224.32 108.67 223.42 108.38 222.61 Z M 108.09 221.86 L 107.89 220.94 C 107.70 220.10 106.86 219.57 106.02 219.76 C 105.18 219.95 104.65 220.78 104.84 221.62 L 105.05 222.54 C 105.24 223.38 106.07 223.91 106.91 223.72 C 107.75 223.53 108.28 222.70 108.09 221.86 Z M 107.90 221.01 L 107.82 220.55 C 107.67 219.71 106.86 219.14 106.01 219.29 C 105.16 219.44 104.60 220.25 104.75 221.10 L 104.83 221.56 C 104.98 222.40 105.79 222.97 106.64 222.82 C 107.49 222.67 108.05 221.86 107.90 221.01 Z"
      fill="black"
      fill-rule="nonzero" /></svg>