<svg xmlns="http://www.w3.org/2000/svg" width="300" height="300" viewBox="0 0 300 300">
<path d="M 113.16 182.01 L 111.85 181.80 C 111.00 181.67 110.20 182.25 110.07 183.10 C 109.93 183.95 110.51 184.75 111.37 184.89 L 112.67 185.09 C 113.52 185.23 114.32 184.64 114.46 183.79 C 114.59 182.94 114.01 182.14 113.16 182.01 Z M 111.55 181.78 L 110.82 181.81 C 109.96 181.84 109.29 182.57 109.32 183.43 C 109.36 184.29 110.08 184.96 110.94 184.93 L 111.67 184.90 C 112.53 184.87 113.20 184.15 113.17 183.29 C 113.14 182.42 112.41 181.75 111.55 181.78 Z M 109.55 184.19 L 109.76 184.53 C 110.21 185.26 111.17 185.49 111.91 185.04 C 112.64 184.59 112.87 183.63 112.42 182.90 L 112.21 182.56 C 111.76 181.82 110.80 181.59 110.07 182.04 C 109.33 182.49 109.10 183.45 109.55 184.19 Z M 110.25 185.03 L 111.11 185.57 C 111.83 186.03 112.80 185.82 113.26 185.09 C 113.72 184.37 113.51 183.40 112.78 182.94 L 111.93 182.40 C 111.20 181.93 110.24 182.15 109.77 182.87 C 109.31 183.60 109.53 184.57 110.25 185.03 Z M 111.27 185.66 L 112.52 186.27 C 113.30 186.64 114.23 186.31 114.61 185.54 C 114.98 184.76 114.66 183.83 113.88 183.45 L 112.62 182.85 C 111.84 182.47 110.91 182.80 110.54 183.58 C 110.16 184.35 110.49 185.29 111.27 185.66 Z M 112.62 186.31 L 113.52 186.67 C 114.32 186.99 115.23 186.60 115.55 185.80 C 115.87 185.00 115.48 184.09 114.68 183.77 L 113.78 183.41 C 112.98 183.09 112.07 183.48 111.75 184.28 C 111.43 185.08 111.82 185.99 112.62 186.31 Z M 113.58 186.69 L 114.54 187.03 C 115.35 187.32 116.24 186.90 116.53 186.09 C 116.82 185.28 116.40 184.38 115.59 184.09 L 114.63 183.75 C 113.81 183.46 112.92 183.89 112.63 184.70 C 112.34 185.51 112.77 186.40 113.58 186.69 Z M 114.58 187.05 L 115.56 187.37 C 116.38 187.63 117.26 187.18 117.53 186.36 C 117.79 185.54 117.34 184.66 116.52 184.39 L 115.54 184.08 C 114.72 183.81 113.84 184.26 113.58 185.08 C 113.31 185.91 113.76 186.78 114.58 187.05 Z M 115.60 187.38 L 116.57 187.66 C 117.39 187.90 118.26 187.43 118.51 186.60 C 118.75 185.78 118.28 184.91 117.45 184.67 L 116.48 184.38 C 115.66 184.14 114.79 184.61 114.54 185.44 C 114.30 186.27 114.77 187.13 115.60 187.38 Z M 116.61 187.67 L 117.59 187.94 C 118.43 188.16 119.28 187.66 119.51 186.83 C 119.73 186.00 119.23 185.14 118.40 184.92 L 117.41 184.66 C 116.58 184.43 115.72 184.93 115.50 185.76 C 115.28 186.59 115.77 187.45 116.61 187.67 Z M 117.64 187.95 L 118.65 188.19 C 119.49 188.39 120.33 187.87 120.53 187.03 C 120.73 186.19 120.21 185.35 119.38 185.15 L 118.36 184.91 C 117.52 184.71 116.68 185.23 116.48 186.07 C 116.28 186.91 116.80 187.75 117.64 187.95 Z M 118.70 188.20 L 119.66 188.40 C 120.50 188.57 121.33 188.03 121.50 187.19 C 121.68 186.34 121.13 185.51 120.29 185.34 L 119.33 185.14 C 118.49 184.97 117.66 185.51 117.49 186.35 C 117.31 187.20 117.85 188.02 118.70 188.20 Z M 119.69 188.40 L 120.63 188.57 C 121.48 188.73 122.29 188.17 122.45 187.32 C 122.60 186.47 122.04 185.66 121.19 185.50 L 120.25 185.33 C 119.40 185.18 118.59 185.74 118.44 186.59 C 118.28 187.44 118.85 188.25 119.69 188.40 Z M 120.66 188.58 L 121.60 188.73 C 122.45 188.87 123.25 188.29 123.39 187.44 C 123.53 186.59 122.95 185.79 122.10 185.65 L 121.16 185.50 C 120.31 185.36 119.51 185.94 119.37 186.79 C 119.23 187.64 119.81 188.44 120.66 188.58 Z M 121.62 188.74 L 122.58 188.88 C 123.43 189.01 124.23 188.42 124.36 187.57 C 124.48 186.71 123.90 185.92 123.04 185.79 L 122.08 185.65 C 121.23 185.52 120.43 186.11 120.31 186.96 C 120.18 187.81 120.77 188.61 121.62 188.74 Z M 122.60 188.88 L 123.59 189.02 C 124.45 189.13 125.23 188.54 125.35 187.68 C 125.47 186.83 124.87 186.04 124.01 185.92 L 123.02 185.79 C 122.17 185.67 121.38 186.27 121.27 187.12 C 121.15 187.98 121.75 188.77 122.60 188.88 Z M 123.61 189.02 L 124.64 189.15 C 125.49 189.25 126.27 188.64 126.38 187.79 C 126.48 186.93 125.88 186.15 125.02 186.05 L 124.00 185.92 C 123.14 185.82 122.36 186.42 122.25 187.28 C 122.15 188.13 122.76 188.91 123.61 189.02 Z M 124.65 189.15 L 125.64 189.26 C 126.50 189.35 127.27 188.74 127.36 187.88 C 127.46 187.02 126.84 186.25 125.99 186.16 L 125.00 186.05 C 124.14 185.95 123.37 186.57 123.28 187.42 C 123.18 188.28 123.80 189.05 124.65 189.15 Z M 125.65 189.26 L 126.63 189.36 C 127.48 189.45 128.25 188.82 128.34 187.96 C 128.42 187.10 127.80 186.34 126.94 186.25 L 125.97 186.15 C 125.11 186.07 124.35 186.69 124.26 187.55 C 124.17 188.41 124.80 189.17 125.65 189.26 Z M 126.64 189.36 L 127.64 189.45 C 128.49 189.53 129.25 188.90 129.33 188.04 C 129.41 187.18 128.78 186.42 127.92 186.34 L 126.93 186.25 C 126.07 186.17 125.31 186.80 125.23 187.66 C 125.15 188.52 125.78 189.28 126.64 189.36 Z M 127.65 189.45 L 128.67 189.54 C 129.53 189.61 130.28 188.97 130.35 188.11 C 130.43 187.25 129.79 186.50 128.93 186.42 L 127.91 186.34 C 127.05 186.27 126.29 186.91 126.22 187.77 C 126.15 188.63 126.79 189.38 127.65 189.45 Z M 128.68 189.54 L 129.70 189.61 C 130.56 189.68 131.31 189.03 131.37 188.17 C 131.44 187.31 130.79 186.56 129.93 186.50 L 128.91 186.42 C 128.05 186.36 127.31 187.01 127.24 187.86 C 127.18 188.72 127.82 189.47 128.68 189.54 Z M 129.71 189.61 L 130.69 189.68 C 131.55 189.74 132.30 189.09 132.35 188.23 C 132.41 187.37 131.76 186.62 130.90 186.56 L 129.92 186.50 C 129.06 186.44 128.32 187.09 128.26 187.95 C 128.20 188.81 128.85 189.56 129.71 189.61 Z M 130.70 189.68 L 131.70 189.74 C 132.56 189.79 133.30 189.14 133.35 188.28 C 133.40 187.41 132.74 186.67 131.88 186.62 L 130.89 186.56 C 130.03 186.51 129.29 187.17 129.24 188.03 C 129.19 188.89 129.84 189.63 130.70 189.68 Z M 131.71 189.74 L 132.71 189.79 C 133.57 189.84 134.31 189.18 134.35 188.32 C 134.40 187.46 133.74 186.72 132.88 186.68 L 131.87 186.62 C 131.01 186.58 130.28 187.24 130.23 188.10 C 130.18 188.96 130.85 189.69 131.71 189.74 Z M 132.72 189.79 L 133.74 189.84 C 134.60 189.88 135.33 189.22 135.37 188.36 C 135.41 187.50 134.74 186.76 133.88 186.72 L 132.87 186.68 C 132.01 186.64 131.28 187.30 131.24 188.16 C 131.19 189.02 131.86 189.75 132.72 189.79 Z M 133.75 189.84 L 134.75 189.88 C 135.61 189.92 136.34 189.25 136.37 188.39 C 136.41 187.53 135.74 186.80 134.88 186.76 L 133.87 186.72 C 133.01 186.69 132.28 187.36 132.25 188.22 C 132.21 189.08 132.88 189.81 133.75 189.84 Z M 134.76 189.88 L 135.75 189.92 C 136.61 189.95 137.33 189.28 137.36 188.41 C 137.39 187.55 136.72 186.83 135.86 186.80 L 134.87 186.76 C 134.01 186.73 133.28 187.41 133.25 188.27 C 133.22 189.13 133.90 189.85 134.76 189.88 Z M 135.76 189.92 L 136.76 189.95 C 137.62 189.97 138.34 189.30 138.36 188.43 C 138.39 187.57 137.71 186.85 136.85 186.83 L 135.85 186.80 C 134.99 186.77 134.27 187.45 134.24 188.31 C 134.22 189.17 134.90 189.89 135.76 189.92 Z M 136.76 189.95 L 137.77 189.97 C 138.63 189.99 139.34 189.31 139.36 188.45 C 139.39 187.59 138.70 186.87 137.84 186.85 L 136.84 186.83 C 135.98 186.81 135.26 187.49 135.24 188.35 C 135.22 189.21 135.90 189.93 136.76 189.95 Z M 137.78 189.97 L 138.78 189.99 C 139.65 190.01 140.36 189.32 140.37 188.46 C 140.39 187.60 139.70 186.89 138.84 186.87 L 137.83 186.85 C 136.97 186.84 136.26 187.52 136.24 188.38 C 136.23 189.25 136.91 189.96 137.78 189.97 Z M 138.79 189.99 L 139.78 190.00 C 140.64 190.02 141.35 189.33 141.36 188.46 C 141.37 187.60 140.68 186.89 139.82 186.88 L 138.83 186.87 C 137.97 186.86 137.26 187.55 137.25 188.41 C 137.24 189.27 137.93 189.98 138.79 189.99 Z M 139.79 190.00 L 140.76 190.01 C 141.63 190.02 142.33 189.33 142.34 188.46 C 142.35 187.60 141.65 186.90 140.79 186.89 L 139.81 186.88 C 138.95 186.88 138.25 187.57 138.24 188.43 C 138.23 189.29 138.92 190.00 139.79 190.00 Z M 140.77 190.01 L 141.76 190.02 C 142.62 190.02 143.32 189.32 143.33 188.46 C 143.33 187.60 142.64 186.90 141.77 186.89 L 140.78 186.89 C 139.92 186.89 139.22 187.58 139.22 188.44 C 139.21 189.31 139.91 190.01 140.77 190.01 Z M 141.76 190.02 L 142.77 190.02 C 143.63 190.02 144.33 189.32 144.33 188.46 C 144.33 187.60 143.64 186.90 142.77 186.90 L 141.77 186.89 C 140.91 186.89 140.21 187.59 140.21 188.45 C 140.20 189.31 140.90 190.02 141.76 190.02 Z M 142.77 190.02 L 143.80 190.02 C 144.66 190.02 145.36 189.32 145.36 188.46 C 145.36 187.60 144.66 186.90 143.80 186.90 L 142.77 186.90 C 141.91 186.90 141.21 187.59 141.21 188.46 C 141.21 189.32 141.91 190.02 142.77 190.02 Z M 143.80 190.02 L 144.81 190.02 C 145.67 190.02 146.37 189.32 146.37 188.46 C 146.37 187.60 145.67 186.90 144.81 186.90 L 143.80 186.90 C 142.93 186.90 142.23 187.60 142.23 188.46 C 142.23 189.32 142.93 190.02 143.80 190.02 Z M 144.81 190.02 L 145.81 190.02 C 146.67 190.02 147.37 189.32 147.37 188.46 C 147.37 187.60 146.67 186.90 145.81 186.90 L 144.81 186.90 C 143.95 186.90 143.25 187.60 143.25 188.46 C 143.25 189.32 143.95 190.02 144.81 190.02 Z M 145.81 190.02 L 146.81 190.02 C 147.68 190.02 148.38 189.32 148.38 188.46 C 148.38 187.60 147.68 186.90 146.81 186.90 L 145.81 186.90 C 144.94 186.90 144.25 187.60 144.25 188.46 C 144.25 189.32 144.94 190.02 145.81 190.02 Z M 146.81 190.02 L 147.82 190.02 C 148.69 190.02 149.38 189.32 149.38 188.46 C 149.38 187.60 148.69 186.90 147.82 186.90 L 146.81 186.90 C 145.95 186.90 145.25 187.60 145.25 188.46 C 145.25 189.32 145.95 190.02 146.81 190.02 Z M 147.82 190.02 L 148.83 190.02 C 149.69 190.02 150.39 189.32 150.39 188.46 C 150.39 187.60 149.69 186.90 148.83 186.90 L 147.82 186.90 C 146.96 186.90 146.26 187.60 146.26 188.46 C 146.26 189.32 146.96 190.02 147.82 190.02 Z M 148.83 190.02 L 149.82 190.02 C 150.68 190.02 151.38 189.32 151.38 188.46 C 151.38 187.60 150.68 186.90 149.82 186.90 L 148.83 186.90 C 147.97 186.90 147.27 187.60 147.27 188.46 C 147.27 189.32 147.97 190.02 148.83 190.02 Z M 149.82 190.02 L 150.84 190.02 C 151.71 190.02 152.41 189.32 152.40 188.46 C 152.40 187.59 151.70 186.90 150.84 186.90 L 149.82 186.90 C 148.95 186.90 148.26 187.60 148.26 188.46 C 148.26 189.32 148.96 190.02 149.82 190.02 Z M 150.85 190.02 L 151.86 190.01 C 152.72 190.01 153.42 189.31 153.41 188.44 C 153.41 187.58 152.70 186.89 151.84 186.89 L 150.83 186.90 C 149.97 186.90 149.28 187.60 149.28 188.47 C 149.29 189.33 149.99 190.02 150.85 190.02 Z M 151.87 190.01 L 152.87 190.00 C 153.73 189.98 154.42 189.27 154.41 188.41 C 154.39 187.55 153.68 186.86 152.82 186.88 L 151.83 186.89 C 150.96 186.90 150.28 187.61 150.29 188.48 C 150.30 189.34 151.01 190.03 151.87 190.01 Z M 152.89 190.00 L 153.88 189.97 C 154.74 189.94 155.42 189.22 155.39 188.36 C 155.37 187.50 154.65 186.82 153.78 186.85 L 152.80 186.88 C 151.94 186.90 151.26 187.62 151.28 188.48 C 151.31 189.35 152.03 190.02 152.89 190.00 Z M 153.91 189.97 L 154.89 189.92 C 155.76 189.87 156.42 189.14 156.38 188.28 C 156.33 187.42 155.60 186.76 154.74 186.80 L 153.75 186.85 C 152.89 186.89 152.23 187.62 152.27 188.48 C 152.32 189.35 153.05 190.01 153.91 189.97 Z M 154.93 189.91 L 155.92 189.84 C 156.78 189.78 157.43 189.03 157.36 188.17 C 157.30 187.31 156.55 186.67 155.69 186.73 L 154.70 186.80 C 153.84 186.86 153.20 187.61 153.26 188.47 C 153.32 189.33 154.07 189.98 154.93 189.91 Z M 155.96 189.84 L 156.95 189.74 C 157.81 189.66 158.44 188.90 158.35 188.04 C 158.27 187.18 157.51 186.55 156.65 186.64 L 155.66 186.73 C 154.80 186.81 154.17 187.58 154.25 188.44 C 154.33 189.29 155.10 189.92 155.96 189.84 Z M 156.98 189.74 L 157.98 189.62 C 158.83 189.52 159.44 188.75 159.34 187.89 C 159.24 187.03 158.47 186.42 157.61 186.52 L 156.62 186.64 C 155.76 186.74 155.15 187.52 155.25 188.37 C 155.35 189.23 156.12 189.84 156.98 189.74 Z M 158.01 189.62 L 159.00 189.48 C 159.85 189.37 160.45 188.58 160.33 187.72 C 160.22 186.87 159.43 186.27 158.57 186.39 L 157.58 186.53 C 156.73 186.64 156.13 187.43 156.25 188.29 C 156.36 189.14 157.15 189.74 158.01 189.62 Z M 159.03 189.48 L 160.02 189.33 C 160.87 189.19 161.45 188.40 161.32 187.54 C 161.19 186.69 160.39 186.11 159.54 186.24 L 158.55 186.39 C 157.70 186.53 157.11 187.32 157.24 188.18 C 157.38 189.03 158.17 189.61 159.03 189.48 Z M 160.04 189.32 L 161.03 189.15 C 161.88 189.01 162.45 188.20 162.31 187.35 C 162.16 186.50 161.35 185.93 160.51 186.07 L 159.51 186.24 C 158.66 186.39 158.09 187.20 158.24 188.05 C 158.39 188.90 159.19 189.47 160.04 189.32 Z M 161.05 189.15 L 162.04 188.96 C 162.89 188.81 163.45 187.99 163.29 187.14 C 163.13 186.30 162.32 185.74 161.47 185.89 L 160.48 186.08 C 159.64 186.24 159.08 187.05 159.23 187.90 C 159.39 188.75 160.21 189.31 161.05 189.15 Z M 162.06 188.96 L 163.04 188.76 C 163.89 188.60 164.44 187.77 164.27 186.93 C 164.10 186.08 163.28 185.53 162.43 185.70 L 161.45 185.90 C 160.61 186.07 160.06 186.89 160.23 187.73 C 160.39 188.58 161.22 189.13 162.06 188.96 Z M 163.06 188.76 L 164.04 188.56 C 164.88 188.38 165.42 187.55 165.24 186.71 C 165.07 185.86 164.24 185.32 163.39 185.50 L 162.42 185.71 C 161.57 185.88 161.03 186.71 161.21 187.55 C 161.39 188.40 162.22 188.94 163.06 188.76 Z M 164.05 188.55 L 165.02 188.34 C 165.86 188.15 166.40 187.32 166.21 186.48 C 166.03 185.64 165.19 185.10 164.35 185.29 L 163.38 185.50 C 162.54 185.69 162.01 186.52 162.19 187.36 C 162.38 188.20 163.21 188.74 164.05 188.55 Z M 165.03 188.34 L 166.02 188.11 C 166.86 187.92 167.38 187.09 167.19 186.25 C 167.00 185.40 166.17 184.88 165.33 185.07 L 164.34 185.29 C 163.50 185.48 162.97 186.32 163.17 187.16 C 163.36 188.00 164.19 188.53 165.03 188.34 Z M 166.03 188.11 L 167.02 187.88 C 167.86 187.68 168.38 186.84 168.18 186.01 C 167.99 185.17 167.15 184.64 166.31 184.84 L 165.32 185.07 C 164.48 185.27 163.95 186.11 164.15 186.95 C 164.35 187.79 165.19 188.31 166.03 188.11 Z M 167.03 187.88 L 168.01 187.64 C 168.85 187.44 169.36 186.60 169.16 185.76 C 168.96 184.92 168.12 184.41 167.28 184.61 L 166.30 184.84 C 165.46 185.04 164.94 185.89 165.14 186.72 C 165.34 187.56 166.19 188.08 167.03 187.88 Z M 168.02 187.64 L 168.98 187.40 C 169.82 187.20 170.33 186.35 170.13 185.51 C 169.92 184.68 169.08 184.17 168.24 184.37 L 167.27 184.61 C 166.43 184.81 165.92 185.66 166.13 186.50 C 166.33 187.33 167.18 187.85 168.02 187.64 Z M 168.99 187.40 L 169.94 187.16 C 170.78 186.95 171.29 186.10 171.08 185.27 C 170.86 184.43 170.02 183.92 169.18 184.13 L 168.23 184.37 C 167.39 184.58 166.89 185.43 167.10 186.27 C 167.31 187.10 168.16 187.61 168.99 187.40 Z M 169.95 187.16 L 170.92 186.91 C 171.75 186.70 172.25 185.84 172.04 185.01 C 171.82 184.17 170.97 183.67 170.14 183.89 L 169.17 184.14 C 168.34 184.35 167.83 185.20 168.05 186.04 C 168.26 186.87 169.12 187.38 169.95 187.16 Z M 170.93 186.91 L 171.90 186.65 C 172.74 186.43 173.23 185.58 173.01 184.74 C 172.79 183.91 171.94 183.41 171.10 183.63 L 170.13 183.89 C 169.29 184.11 168.80 184.97 169.02 185.80 C 169.24 186.63 170.09 187.13 170.93 186.91 Z M 171.91 186.65 L 172.87 186.39 C 173.71 186.16 174.20 185.30 173.97 184.47 C 173.74 183.64 172.89 183.15 172.05 183.37 L 171.09 183.64 C 170.26 183.86 169.77 184.72 170.00 185.55 C 170.22 186.38 171.08 186.87 171.91 186.65 Z M 172.89 186.38 L 173.84 186.11 C 174.67 185.88 175.15 185.02 174.92 184.19 C 174.69 183.36 173.82 182.87 172.99 183.11 L 172.04 183.38 C 171.21 183.61 170.73 184.47 170.96 185.30 C 171.20 186.13 172.06 186.62 172.89 186.38 Z M 173.86 186.11 L 174.81 185.83 C 175.63 185.59 176.11 184.72 175.87 183.89 C 175.63 183.07 174.76 182.59 173.93 182.83 L 172.98 183.11 C 172.15 183.35 171.68 184.22 171.92 185.05 C 172.16 185.88 173.03 186.35 173.86 186.11 Z M 174.82 185.83 L 175.76 185.54 C 176.58 185.29 177.05 184.42 176.80 183.59 C 176.54 182.77 175.67 182.30 174.85 182.55 L 173.92 182.84 C 173.09 183.09 172.62 183.96 172.88 184.79 C 173.13 185.61 174.00 186.08 174.82 185.83 Z M 175.79 185.53 L 176.72 185.23 C 177.54 184.96 177.99 184.08 177.72 183.26 C 177.45 182.44 176.57 181.99 175.75 182.26 L 174.82 182.56 C 174.00 182.83 173.55 183.71 173.82 184.53 C 174.08 185.35 174.97 185.80 175.79 185.53 Z M 176.76 185.21 L 177.70 184.88 C 178.51 184.59 178.93 183.69 178.64 182.88 C 178.35 182.07 177.46 181.65 176.65 181.94 L 175.71 182.27 C 174.90 182.57 174.48 183.46 174.77 184.27 C 175.06 185.08 175.95 185.50 176.76 185.21 Z M 177.76 184.86 L 178.70 184.48 C 179.50 184.15 179.88 183.24 179.56 182.45 C 179.24 181.65 178.33 181.26 177.53 181.58 L 176.59 181.96 C 175.79 182.28 175.40 183.19 175.73 183.99 C 176.05 184.79 176.96 185.18 177.76 184.86 Z M 178.77 184.45 L 179.71 184.01 C 180.49 183.65 180.83 182.73 180.47 181.94 C 180.11 181.16 179.19 180.82 178.40 181.18 L 177.46 181.61 C 176.68 181.97 176.34 182.90 176.70 183.68 C 177.06 184.46 177.98 184.81 178.77 184.45 Z M 179.78 183.98 L 180.71 183.49 C 181.47 183.09 181.76 182.14 181.36 181.38 C 180.96 180.62 180.01 180.33 179.25 180.73 L 178.33 181.22 C 177.56 181.62 177.27 182.56 177.67 183.32 C 178.08 184.09 179.02 184.38 179.78 183.98 Z M 180.78 183.45 L 181.68 182.91 C 182.42 182.47 182.66 181.51 182.21 180.77 C 181.77 180.03 180.81 179.79 180.07 180.23 L 179.17 180.77 C 178.44 181.22 178.20 182.18 178.64 182.91 C 179.09 183.65 180.05 183.89 180.78 183.45 Z M 181.76 182.86 L 182.60 182.28 C 183.31 181.79 183.48 180.81 182.99 180.11 C 182.50 179.40 181.53 179.22 180.82 179.71 L 179.98 180.29 C 179.28 180.78 179.10 181.75 179.59 182.46 C 180.08 183.17 181.05 183.35 181.76 182.86 Z M 182.69 182.21 L 183.44 181.60 C 184.11 181.06 184.21 180.07 183.67 179.40 C 183.12 178.73 182.14 178.63 181.47 179.17 L 180.72 179.78 C 180.05 180.33 179.95 181.31 180.50 181.98 C 181.04 182.65 182.02 182.75 182.69 182.21 Z M 183.56 181.49 L 184.24 180.81 C 184.85 180.20 184.85 179.21 184.24 178.60 C 183.63 177.99 182.64 177.99 182.03 178.60 L 181.35 179.28 C 180.74 179.89 180.74 180.88 181.35 181.49 C 181.96 182.10 182.95 182.10 183.56 181.49 Z M 184.39 180.63 L 185.02 179.78 C 185.53 179.09 185.38 178.11 184.69 177.60 C 183.99 177.09 183.01 177.24 182.50 177.93 L 181.88 178.78 C 181.37 179.48 181.52 180.45 182.21 180.97 C 182.91 181.48 183.88 181.33 184.39 180.63 Z M 185.17 179.53 L 185.59 178.65 C 185.96 177.88 185.64 176.94 184.86 176.57 C 184.08 176.20 183.15 176.53 182.78 177.30 L 182.35 178.18 C 181.98 178.96 182.31 179.89 183.08 180.27 C 183.86 180.64 184.79 180.31 185.17 179.53 Z M 185.69 178.38 L 185.94 177.47 C 186.16 176.63 185.67 175.78 184.83 175.55 C 184.00 175.33 183.14 175.82 182.92 176.66 L 182.67 177.57 C 182.45 178.41 182.95 179.26 183.78 179.49 C 184.61 179.71 185.47 179.22 185.69 178.38 Z M 185.98 177.22 L 186.08 176.29 C 186.16 175.44 185.54 174.67 184.68 174.58 C 183.82 174.50 183.06 175.12 182.97 175.98 L 182.88 176.90 C 182.79 177.76 183.41 178.53 184.27 178.61 C 185.13 178.70 185.89 178.08 185.98 177.22 Z M 186.08 176.05 L 186.03 175.11 C 185.98 174.25 185.24 173.59 184.38 173.64 C 183.52 173.69 182.86 174.43 182.91 175.29 L 182.96 176.22 C 183.01 177.09 183.75 177.74 184.61 177.70 C 185.47 177.65 186.13 176.91 186.08 176.05 Z M 185.99 174.84 L 185.76 173.88 C 185.56 173.04 184.72 172.52 183.88 172.72 C 183.04 172.92 182.52 173.76 182.72 174.60 L 182.95 175.56 C 183.15 176.40 183.99 176.92 184.83 176.72 C 185.67 176.52 186.19 175.68 185.99 174.84 Z M 185.66 173.60 L 185.22 172.62 C 184.87 171.83 183.94 171.49 183.16 171.84 C 182.37 172.19 182.02 173.12 182.38 173.91 L 182.82 174.88 C 183.17 175.67 184.10 176.02 184.88 175.66 C 185.67 175.31 186.02 174.38 185.66 173.60 Z M 185.09 172.39 L 184.53 171.56 C 184.05 170.84 183.08 170.66 182.36 171.14 C 181.65 171.62 181.46 172.59 181.94 173.31 L 182.51 174.14 C 182.99 174.85 183.96 175.04 184.68 174.56 C 185.39 174.07 185.58 173.10 185.09 172.39 Z M 184.42 171.41 L 183.77 170.66 C 183.21 170.01 182.22 169.94 181.57 170.50 C 180.92 171.06 180.85 172.05 181.41 172.70 L 182.06 173.45 C 182.62 174.10 183.60 174.18 184.26 173.61 C 184.91 173.05 184.98 172.06 184.42 171.41 Z M 183.69 170.58 L 182.96 169.85 C 182.35 169.24 181.36 169.24 180.75 169.85 C 180.15 170.46 180.15 171.45 180.76 172.06 L 181.49 172.79 C 182.10 173.40 183.09 173.39 183.70 172.78 C 184.31 172.17 184.30 171.18 183.69 170.58 Z M 182.90 169.79 L 182.13 169.10 C 181.49 168.53 180.50 168.58 179.93 169.22 C 179.35 169.86 179.41 170.85 180.05 171.43 L 180.82 172.12 C 181.46 172.69 182.45 172.64 183.02 172.00 C 183.60 171.36 183.55 170.37 182.90 169.79 Z M 182.09 169.07 L 181.32 168.42 C 180.66 167.87 179.68 167.96 179.12 168.62 C 178.57 169.28 178.66 170.27 179.32 170.82 L 180.09 171.46 C 180.75 172.01 181.73 171.93 182.29 171.27 C 182.84 170.60 182.75 169.62 182.09 169.07 Z M 181.30 168.40 L 180.46 167.73 C 179.79 167.19 178.80 167.30 178.27 167.98 C 177.73 168.65 177.84 169.63 178.51 170.17 L 179.35 170.84 C 180.02 171.38 181.00 171.27 181.54 170.60 C 182.08 169.92 181.97 168.94 181.30 168.40 Z M 180.44 167.71 L 179.60 167.07 C 178.91 166.55 177.93 166.68 177.41 167.36 C 176.88 168.04 177.01 169.02 177.70 169.55 L 178.54 170.19 C 179.22 170.72 180.20 170.59 180.72 169.90 C 181.25 169.22 181.12 168.24 180.44 167.71 Z M 179.57 167.05 L 178.78 166.48 C 178.09 165.97 177.11 166.12 176.60 166.82 C 176.09 167.52 176.25 168.49 176.94 169.00 L 177.73 169.57 C 178.43 170.08 179.40 169.93 179.91 169.23 C 180.42 168.53 180.26 167.55 179.57 167.05 Z M 178.75 166.45 L 177.99 165.93 C 177.28 165.44 176.31 165.62 175.82 166.33 C 175.33 167.04 175.51 168.01 176.22 168.50 L 176.98 169.02 C 177.69 169.51 178.66 169.33 179.15 168.62 C 179.64 167.91 179.46 166.94 178.75 166.45 Z M 177.95 165.91 L 177.15 165.39 C 176.43 164.92 175.46 165.12 174.99 165.85 C 174.52 166.57 174.73 167.54 175.45 168.01 L 176.25 168.53 C 176.98 168.99 177.94 168.79 178.41 168.07 C 178.88 167.34 178.68 166.38 177.95 165.91 Z M 177.12 165.37 L 176.28 164.85 C 175.54 164.40 174.58 164.63 174.13 165.36 C 173.68 166.09 173.91 167.06 174.64 167.51 L 175.49 168.03 C 176.22 168.48 177.18 168.25 177.63 167.51 C 178.08 166.78 177.86 165.82 177.12 165.37 Z M 176.25 164.83 L 175.39 164.32 C 174.65 163.89 173.69 164.14 173.25 164.88 C 172.81 165.62 173.06 166.58 173.80 167.02 L 174.67 167.52 C 175.41 167.96 176.37 167.71 176.81 166.97 C 177.24 166.23 176.99 165.27 176.25 164.83 Z M 175.37 164.31 L 174.49 163.81 C 173.74 163.39 172.78 163.65 172.36 164.40 C 171.93 165.15 172.19 166.10 172.94 166.53 L 173.82 167.03 C 174.57 167.45 175.53 167.19 175.95 166.44 C 176.38 165.69 176.12 164.74 175.37 164.31 Z M 174.47 163.80 L 173.61 163.33 C 172.86 162.91 171.91 163.18 171.49 163.93 C 171.07 164.69 171.34 165.64 172.10 166.06 L 172.96 166.53 C 173.71 166.95 174.66 166.68 175.08 165.93 C 175.50 165.17 175.23 164.22 174.47 163.80 Z M 173.60 163.32 L 172.73 162.85 C 171.98 162.43 171.03 162.71 170.61 163.47 C 170.20 164.23 170.48 165.18 171.24 165.59 L 172.11 166.06 C 172.87 166.47 173.81 166.20 174.23 165.44 C 174.64 164.68 174.36 163.73 173.60 163.32 Z M 172.72 162.84 L 171.83 162.37 C 171.07 161.96 170.13 162.25 169.72 163.01 C 169.31 163.77 169.60 164.71 170.36 165.12 L 171.25 165.59 C 172.01 166.00 172.96 165.71 173.36 164.95 C 173.77 164.19 173.48 163.25 172.72 162.84 Z M 171.82 162.36 L 170.92 161.89 C 170.15 161.49 169.21 161.78 168.81 162.54 C 168.41 163.31 168.70 164.25 169.47 164.65 L 170.37 165.13 C 171.14 165.53 172.08 165.23 172.48 164.47 C 172.88 163.70 172.59 162.76 171.82 162.36 Z M 170.91 161.88 L 170.01 161.42 C 169.24 161.02 168.30 161.33 167.91 162.09 C 167.51 162.86 167.82 163.80 168.58 164.20 L 169.48 164.66 C 170.25 165.05 171.19 164.75 171.58 163.98 C 171.98 163.22 171.67 162.27 170.91 161.88 Z M 170.00 161.41 L 169.10 160.96 C 168.33 160.57 167.39 160.88 167.00 161.65 C 166.61 162.42 166.92 163.36 167.69 163.75 L 168.59 164.20 C 169.36 164.59 170.30 164.28 170.69 163.51 C 171.08 162.74 170.77 161.80 170.00 161.41 Z M 169.08 160.95 L 168.18 160.51 C 167.41 160.13 166.47 160.45 166.09 161.22 C 165.71 161.99 166.03 162.93 166.80 163.31 L 167.70 163.75 C 168.48 164.13 169.41 163.82 169.79 163.04 C 170.17 162.27 169.86 161.33 169.08 160.95 Z M 168.17 160.50 L 167.28 160.08 C 166.51 159.70 165.57 160.03 165.20 160.81 C 164.83 161.59 165.16 162.52 165.93 162.89 L 166.82 163.32 C 167.60 163.69 168.53 163.36 168.90 162.59 C 169.27 161.81 168.95 160.88 168.17 160.50 Z M 167.27 160.07 L 166.34 159.64 C 165.55 159.27 164.63 159.61 164.26 160.39 C 163.90 161.18 164.24 162.10 165.02 162.47 L 165.95 162.90 C 166.73 163.26 167.66 162.93 168.02 162.14 C 168.39 161.36 168.05 160.43 167.27 160.07 Z M 166.32 159.63 L 165.41 159.22 C 164.62 158.86 163.70 159.21 163.34 159.99 C 162.99 160.78 163.33 161.70 164.12 162.06 L 165.03 162.47 C 165.82 162.83 166.74 162.48 167.10 161.70 C 167.46 160.91 167.11 159.99 166.32 159.63 Z M 165.40 159.21 L 164.50 158.81 C 163.71 158.46 162.79 158.82 162.44 159.60 C 162.09 160.39 162.44 161.31 163.23 161.67 L 164.13 162.06 C 164.92 162.41 165.84 162.06 166.19 161.27 C 166.54 160.48 166.19 159.56 165.40 159.21 Z M 164.49 158.81 L 163.59 158.41 C 162.80 158.07 161.88 158.42 161.54 159.21 C 161.19 160.00 161.55 160.92 162.34 161.27 L 163.23 161.67 C 164.02 162.01 164.94 161.66 165.29 160.87 C 165.64 160.08 165.28 159.16 164.49 158.81 Z M 163.59 158.41 L 162.68 158.01 C 161.89 157.66 160.97 158.02 160.62 158.81 C 160.27 159.60 160.63 160.52 161.42 160.87 L 162.34 161.27 C 163.12 161.62 164.05 161.26 164.39 160.47 C 164.74 159.68 164.38 158.76 163.59 158.41 Z M 162.68 158.01 L 161.76 157.61 C 160.97 157.26 160.05 157.62 159.71 158.41 C 159.36 159.20 159.72 160.12 160.51 160.47 L 161.42 160.87 C 162.21 161.22 163.13 160.86 163.48 160.07 C 163.83 159.28 163.47 158.36 162.68 158.01 Z M 161.76 157.61 L 160.85 157.20 C 160.06 156.86 159.14 157.22 158.79 158.00 C 158.44 158.79 158.80 159.72 159.59 160.06 L 160.51 160.47 C 161.29 160.81 162.22 160.45 162.56 159.67 C 162.91 158.88 162.55 157.95 161.76 157.61 Z M 160.85 157.20 L 159.93 156.80 C 159.14 156.45 158.22 156.81 157.87 157.60 C 157.52 158.39 157.88 159.31 158.67 159.66 L 159.59 160.06 C 160.38 160.41 161.30 160.05 161.65 159.26 C 162.00 158.47 161.64 157.55 160.85 157.20 Z M 159.93 156.80 L 159.01 156.40 C 158.22 156.05 157.30 156.41 156.95 157.19 C 156.61 157.98 156.96 158.90 157.75 159.25 L 158.67 159.66 C 159.46 160.01 160.38 159.65 160.73 158.86 C 161.08 158.07 160.72 157.15 159.93 156.80 Z M 159.01 156.40 L 158.10 155.99 C 157.31 155.64 156.39 156.00 156.04 156.79 C 155.69 157.57 156.05 158.50 156.84 158.85 L 157.75 159.25 C 158.54 159.60 159.46 159.25 159.81 158.46 C 160.16 157.67 159.80 156.75 159.01 156.40 Z M 158.10 155.99 L 157.20 155.59 C 156.41 155.24 155.49 155.59 155.14 156.38 C 154.78 157.16 155.14 158.09 155.92 158.44 L 156.83 158.84 C 157.62 159.20 158.54 158.84 158.89 158.06 C 159.25 157.27 158.89 156.35 158.10 155.99 Z M 157.20 155.59 L 156.27 155.17 C 155.49 154.82 154.56 155.17 154.21 155.95 C 153.85 156.74 154.20 157.66 154.99 158.02 L 155.92 158.44 C 156.70 158.79 157.63 158.44 157.98 157.66 C 158.34 156.87 157.99 155.95 157.20 155.59 Z M 156.28 155.17 L 155.36 154.76 C 154.58 154.40 153.65 154.75 153.30 155.53 C 152.94 156.32 153.28 157.24 154.07 157.60 L 154.98 158.02 C 155.77 158.37 156.70 158.03 157.05 157.24 C 157.41 156.46 157.06 155.53 156.28 155.17 Z M 155.36 154.76 L 154.47 154.35 C 153.68 153.99 152.76 154.33 152.40 155.12 C 152.04 155.90 152.39 156.83 153.17 157.19 L 154.07 157.60 C 154.85 157.96 155.78 157.61 156.14 156.83 C 156.49 156.04 156.15 155.12 155.36 154.76 Z M 154.47 154.35 L 153.58 153.94 C 152.79 153.58 151.87 153.93 151.51 154.71 C 151.15 155.50 151.49 156.42 152.28 156.78 L 153.17 157.19 C 153.95 157.55 154.88 157.20 155.24 156.42 C 155.60 155.63 155.25 154.71 154.47 154.35 Z M 153.58 153.94 L 152.69 153.53 C 151.90 153.17 150.97 153.52 150.62 154.30 C 150.26 155.09 150.60 156.01 151.39 156.37 L 152.28 156.78 C 153.06 157.14 153.99 156.79 154.35 156.01 C 154.71 155.23 154.36 154.30 153.58 153.94 Z M 152.69 153.54 L 151.78 153.12 C 151.00 152.76 150.07 153.10 149.71 153.88 C 149.35 154.67 149.69 155.59 150.48 155.95 L 151.38 156.37 C 152.17 156.73 153.09 156.39 153.45 155.61 C 153.81 154.82 153.47 153.90 152.69 153.54 Z M 151.79 153.12 L 150.88 152.69 C 150.10 152.33 149.17 152.67 148.80 153.45 C 148.44 154.23 148.77 155.16 149.56 155.52 L 150.47 155.95 C 151.25 156.32 152.18 155.98 152.55 155.20 C 152.91 154.42 152.57 153.49 151.79 153.12 Z M 150.88 152.70 L 150.08 152.32 C 149.30 151.95 148.37 152.28 148.00 153.06 C 147.63 153.84 147.96 154.77 148.74 155.14 L 149.55 155.52 C 150.33 155.89 151.26 155.55 151.63 154.77 C 152.00 153.99 151.66 153.06 150.88 152.70 Z M 150.07 152.32 L 149.21 151.91 C 148.43 151.54 147.50 151.88 147.13 152.66 C 146.77 153.44 147.10 154.37 147.88 154.74 L 148.75 155.14 C 149.53 155.51 150.46 155.17 150.82 154.39 C 151.19 153.61 150.85 152.68 150.07 152.32 Z M 149.20 151.90 L 148.25 151.47 C 147.47 151.11 146.54 151.46 146.18 152.24 C 145.83 153.03 146.17 153.95 146.95 154.31 L 147.90 154.74 C 148.68 155.10 149.61 154.76 149.96 153.97 C 150.32 153.19 149.98 152.26 149.20 151.90 Z M 148.24 151.47 L 147.20 151.01 C 146.41 150.66 145.49 151.01 145.14 151.80 C 144.79 152.59 145.15 153.51 145.93 153.86 L 146.97 154.32 C 147.76 154.67 148.68 154.31 149.03 153.53 C 149.38 152.74 149.03 151.82 148.24 151.47 Z M 147.18 151.00 L 146.34 150.64 C 145.55 150.30 144.63 150.66 144.29 151.46 C 143.95 152.25 144.32 153.17 145.11 153.51 L 145.95 153.87 C 146.74 154.21 147.66 153.84 148.00 153.05 C 148.34 152.26 147.98 151.34 147.18 151.00 Z M 146.32 150.63 L 145.43 150.26 C 144.64 149.93 143.73 150.31 143.39 151.11 C 143.06 151.90 143.44 152.82 144.24 153.15 L 145.13 153.51 C 145.92 153.84 146.84 153.47 147.17 152.67 C 147.50 151.87 147.12 150.96 146.32 150.63 Z M 145.42 150.25 L 144.49 149.88 C 143.68 149.56 142.78 149.95 142.46 150.75 C 142.14 151.55 142.53 152.46 143.33 152.78 L 144.26 153.15 C 145.06 153.47 145.97 153.08 146.29 152.28 C 146.61 151.48 146.22 150.57 145.42 150.25 Z M 144.46 149.87 L 143.50 149.51 C 142.69 149.20 141.79 149.60 141.48 150.41 C 141.18 151.21 141.58 152.11 142.39 152.42 L 143.35 152.79 C 144.15 153.10 145.06 152.69 145.36 151.89 C 145.67 151.08 145.27 150.18 144.46 149.87 Z M 143.48 149.50 L 142.49 149.14 C 141.68 148.84 140.78 149.26 140.49 150.07 C 140.19 150.88 140.61 151.78 141.42 152.07 L 142.41 152.43 C 143.22 152.73 144.12 152.31 144.41 151.50 C 144.70 150.69 144.29 149.79 143.48 149.50 Z M 142.46 149.13 L 141.45 148.78 C 140.63 148.50 139.74 148.94 139.47 149.75 C 139.19 150.57 139.62 151.46 140.44 151.74 L 141.45 152.08 C 142.26 152.36 143.15 151.93 143.43 151.11 C 143.71 150.29 143.27 149.41 142.46 149.13 Z M 141.42 148.77 L 140.39 148.44 C 139.56 148.18 138.69 148.63 138.42 149.46 C 138.16 150.28 138.62 151.16 139.44 151.42 L 140.47 151.75 C 141.29 152.01 142.17 151.56 142.43 150.73 C 142.69 149.91 142.24 149.03 141.42 148.77 Z M 140.36 148.43 L 139.34 148.13 C 138.51 147.89 137.64 148.36 137.40 149.18 C 137.15 150.01 137.62 150.88 138.45 151.12 L 139.47 151.43 C 140.29 151.67 141.16 151.20 141.41 150.38 C 141.65 149.55 141.18 148.68 140.36 148.43 Z M 139.31 148.12 L 138.33 147.85 C 137.50 147.62 136.64 148.11 136.41 148.94 C 136.18 149.77 136.66 150.63 137.50 150.86 L 138.48 151.13 C 139.31 151.36 140.17 150.87 140.40 150.04 C 140.63 149.21 140.14 148.35 139.31 148.12 Z M 138.30 147.84 L 137.36 147.61 C 136.53 147.39 135.68 147.90 135.47 148.74 C 135.25 149.57 135.76 150.42 136.59 150.63 L 137.53 150.87 C 138.36 151.08 139.21 150.58 139.42 149.74 C 139.64 148.91 139.13 148.06 138.30 147.84 Z M 137.33 147.60 L 136.46 147.40 C 135.62 147.21 134.79 147.73 134.59 148.57 C 134.40 149.41 134.92 150.25 135.76 150.44 L 136.63 150.64 C 137.47 150.83 138.31 150.31 138.50 149.47 C 138.69 148.63 138.17 147.79 137.33 147.60 Z M 136.42 147.39 L 135.44 147.20 C 134.59 147.03 133.77 147.58 133.61 148.43 C 133.44 149.27 133.99 150.10 134.84 150.26 L 135.81 150.45 C 136.66 150.62 137.48 150.07 137.65 149.22 C 137.81 148.38 137.26 147.56 136.42 147.39 Z M 135.37 147.19 L 134.42 147.04 C 133.57 146.92 132.78 147.51 132.65 148.36 C 132.52 149.21 133.11 150.01 133.96 150.13 L 134.91 150.27 C 135.76 150.40 136.56 149.81 136.68 148.96 C 136.81 148.11 136.22 147.31 135.37 147.19 Z M 134.35 147.04 L 133.41 146.94 C 132.55 146.86 131.79 147.48 131.70 148.34 C 131.62 149.20 132.24 149.96 133.10 150.05 L 134.04 150.14 C 134.90 150.23 135.66 149.60 135.75 148.74 C 135.83 147.88 135.21 147.12 134.35 147.04 Z M 133.35 146.94 L 132.33 146.88 C 131.47 146.82 130.73 147.48 130.68 148.34 C 130.62 149.20 131.28 149.94 132.14 149.99 L 133.16 150.05 C 134.02 150.11 134.76 149.45 134.81 148.59 C 134.87 147.73 134.21 146.99 133.35 146.94 Z M 132.30 146.87 L 131.34 146.84 C 130.48 146.80 129.75 147.47 129.72 148.33 C 129.68 149.19 130.35 149.92 131.21 149.96 L 132.17 149.99 C 133.03 150.03 133.76 149.36 133.79 148.50 C 133.83 147.64 133.16 146.91 132.30 146.87 Z M 131.31 146.83 L 130.38 146.81 C 129.52 146.79 128.80 147.48 128.78 148.34 C 128.76 149.20 129.45 149.92 130.31 149.93 L 131.24 149.96 C 132.10 149.98 132.82 149.29 132.84 148.43 C 132.86 147.57 132.18 146.85 131.31 146.83 Z M 130.34 146.81 L 129.34 146.82 C 128.48 146.82 127.78 147.52 127.79 148.38 C 127.79 149.25 128.49 149.94 129.35 149.94 L 130.35 149.94 C 131.21 149.93 131.91 149.23 131.91 148.37 C 131.90 147.51 131.20 146.81 130.34 146.81 Z M 129.29 146.82 L 128.25 146.86 C 127.39 146.89 126.72 147.62 126.75 148.48 C 126.78 149.34 127.51 150.01 128.37 149.98 L 129.41 149.94 C 130.27 149.90 130.94 149.18 130.91 148.32 C 130.87 147.45 130.15 146.78 129.29 146.82 Z M 128.18 146.86 L 127.12 146.95 C 126.26 147.03 125.63 147.78 125.70 148.64 C 125.78 149.50 126.53 150.14 127.39 150.06 L 128.44 149.97 C 129.30 149.90 129.94 149.14 129.87 148.28 C 129.79 147.43 129.04 146.79 128.18 146.86 Z M 127.03 146.96 L 125.99 147.12 C 125.13 147.24 124.54 148.04 124.67 148.89 C 124.79 149.74 125.59 150.33 126.44 150.21 L 127.48 150.05 C 128.34 149.93 128.93 149.14 128.80 148.28 C 128.68 147.43 127.88 146.84 127.03 146.96 Z M 125.87 147.14 L 124.81 147.38 C 123.97 147.57 123.44 148.40 123.63 149.24 C 123.81 150.08 124.65 150.61 125.49 150.42 L 126.56 150.19 C 127.40 150.00 127.93 149.16 127.74 148.32 C 127.55 147.48 126.71 146.95 125.87 147.14 Z M 124.69 147.41 L 123.67 147.72 C 122.85 147.97 122.38 148.84 122.64 149.67 C 122.89 150.49 123.76 150.96 124.58 150.71 L 125.61 150.39 C 126.43 150.14 126.89 149.27 126.64 148.45 C 126.39 147.62 125.52 147.16 124.69 147.41 Z M 123.57 147.76 L 122.61 148.12 C 121.80 148.43 121.40 149.33 121.71 150.14 C 122.02 150.94 122.92 151.35 123.73 151.04 L 124.69 150.67 C 125.49 150.36 125.89 149.46 125.59 148.65 C 125.28 147.85 124.37 147.45 123.57 147.76 Z M 122.52 148.16 L 121.63 148.57 C 120.85 148.93 120.50 149.86 120.86 150.64 C 121.22 151.42 122.15 151.77 122.93 151.41 L 123.82 151.00 C 124.60 150.64 124.95 149.71 124.59 148.93 C 124.23 148.15 123.30 147.80 122.52 148.16 Z M 121.54 148.61 L 120.74 149.04 C 119.98 149.45 119.69 150.40 120.10 151.16 C 120.51 151.92 121.45 152.20 122.21 151.80 L 123.02 151.36 C 123.78 150.96 124.06 150.01 123.66 149.25 C 123.25 148.49 122.30 148.21 121.54 148.61 Z M 120.65 149.10 L 119.80 149.63 C 119.07 150.09 118.85 151.05 119.31 151.78 C 119.77 152.51 120.73 152.73 121.46 152.27 L 122.31 151.74 C 123.04 151.28 123.26 150.32 122.80 149.59 C 122.34 148.86 121.38 148.64 120.65 149.10 Z M 119.69 149.70 L 118.85 150.34 C 118.16 150.86 118.03 151.84 118.55 152.52 C 119.07 153.21 120.04 153.35 120.73 152.83 L 121.57 152.20 C 122.26 151.68 122.40 150.70 121.88 150.01 C 121.36 149.32 120.38 149.18 119.69 149.70 Z M 118.74 150.43 L 118.03 151.08 C 117.39 151.66 117.35 152.65 117.93 153.29 C 118.51 153.92 119.50 153.97 120.13 153.39 L 120.85 152.74 C 121.48 152.15 121.53 151.17 120.94 150.53 C 120.36 149.89 119.38 149.85 118.74 150.43 Z M 117.94 151.17 L 117.30 151.85 C 116.71 152.48 116.75 153.47 117.38 154.06 C 118.01 154.64 118.99 154.61 119.58 153.98 L 120.22 153.30 C 120.81 152.67 120.78 151.68 120.15 151.09 C 119.52 150.50 118.53 150.54 117.94 151.17 Z M 117.25 151.91 L 116.65 152.63 C 116.09 153.29 116.17 154.27 116.83 154.83 C 117.49 155.38 118.48 155.30 119.03 154.64 L 119.64 153.92 C 120.19 153.26 120.11 152.28 119.45 151.72 C 118.79 151.17 117.80 151.25 117.25 151.91 Z M 116.61 152.67 L 116.01 153.44 C 115.48 154.12 115.60 155.10 116.28 155.63 C 116.96 156.16 117.95 156.03 118.48 155.35 L 119.07 154.59 C 119.60 153.91 119.48 152.93 118.80 152.40 C 118.12 151.87 117.14 151.99 116.61 152.67 Z M 115.98 153.48 L 115.39 154.30 C 114.88 155.00 115.04 155.97 115.74 156.48 C 116.44 156.98 117.41 156.82 117.92 156.13 L 118.51 155.31 C 119.01 154.61 118.86 153.64 118.16 153.13 C 117.46 152.62 116.48 152.78 115.98 153.48 Z M 115.36 154.34 L 114.77 155.21 C 114.29 155.93 114.48 156.90 115.20 157.38 C 115.91 157.86 116.88 157.67 117.36 156.95 L 117.95 156.08 C 118.43 155.37 118.24 154.40 117.53 153.92 C 116.81 153.43 115.84 153.62 115.36 154.34 Z M 114.75 155.25 L 114.23 156.08 C 113.77 156.81 113.99 157.77 114.72 158.23 C 115.45 158.69 116.41 158.47 116.87 157.74 L 117.39 156.92 C 117.85 156.19 117.63 155.22 116.90 154.76 C 116.17 154.30 115.21 154.52 114.75 155.25 Z M 114.20 156.12 L 113.71 156.96 C 113.27 157.71 113.52 158.66 114.26 159.10 C 115.00 159.54 115.96 159.29 116.40 158.55 L 116.89 157.70 C 117.33 156.96 117.08 156.00 116.34 155.56 C 115.60 155.13 114.64 155.37 114.20 156.12 Z M 113.68 157.01 L 113.20 157.90 C 112.79 158.65 113.07 159.60 113.82 160.01 C 114.58 160.42 115.53 160.14 115.94 159.39 L 116.42 158.50 C 116.83 157.74 116.55 156.80 115.80 156.38 C 115.04 155.97 114.09 156.25 113.68 157.01 Z M 113.17 157.95 L 112.72 158.87 C 112.33 159.64 112.65 160.58 113.42 160.96 C 114.19 161.34 115.13 161.03 115.51 160.25 L 115.97 159.33 C 116.35 158.56 116.04 157.63 115.26 157.24 C 114.49 156.86 113.55 157.18 113.17 157.95 Z M 112.69 158.93 L 112.28 159.85 C 111.93 160.64 112.28 161.56 113.07 161.91 C 113.86 162.26 114.78 161.91 115.13 161.12 L 115.54 160.20 C 115.89 159.41 115.54 158.48 114.75 158.13 C 113.96 157.78 113.04 158.14 112.69 158.93 Z M 112.25 159.91 L 111.89 160.82 C 111.57 161.62 111.97 162.52 112.77 162.84 C 113.57 163.16 114.48 162.77 114.79 161.97 L 115.15 161.06 C 115.47 160.26 115.08 159.35 114.28 159.03 C 113.48 158.72 112.57 159.11 112.25 159.91 Z M 111.87 160.87 L 111.54 161.80 C 111.25 162.61 111.68 163.50 112.49 163.79 C 113.30 164.08 114.19 163.66 114.48 162.84 L 114.81 161.91 C 115.10 161.10 114.68 160.21 113.87 159.92 C 113.05 159.63 112.16 160.05 111.87 160.87 Z M 111.53 161.84 L 111.22 162.80 C 110.95 163.62 111.41 164.50 112.23 164.76 C 113.05 165.03 113.93 164.58 114.19 163.76 L 114.50 162.80 C 114.76 161.98 114.31 161.10 113.49 160.84 C 112.67 160.57 111.79 161.02 111.53 161.84 Z M 111.21 162.84 L 110.92 163.82 C 110.67 164.65 111.15 165.52 111.97 165.76 C 112.80 166.00 113.67 165.53 113.91 164.70 L 114.20 163.72 C 114.45 162.89 113.97 162.02 113.15 161.78 C 112.32 161.54 111.45 162.01 111.21 162.84 Z M 110.91 163.85 L 110.65 164.81 C 110.42 165.64 110.91 166.50 111.74 166.73 C 112.57 166.95 113.43 166.46 113.66 165.63 L 113.92 164.67 C 114.15 163.84 113.66 162.98 112.83 162.76 C 111.99 162.53 111.14 163.02 110.91 163.85 Z M 110.64 164.84 L 110.40 165.78 C 110.19 166.62 110.69 167.47 111.53 167.68 C 112.36 167.89 113.21 167.39 113.42 166.55 L 113.67 165.61 C 113.88 164.77 113.37 163.92 112.54 163.71 C 111.70 163.50 110.85 164.00 110.64 164.84 Z M 110.39 165.80 L 110.16 166.77 C 109.96 167.61 110.48 168.45 111.32 168.65 C 112.16 168.85 113.00 168.33 113.20 167.49 L 113.43 166.53 C 113.63 165.69 113.11 164.85 112.27 164.65 C 111.43 164.45 110.59 164.97 110.39 165.80 Z M 110.16 166.79 L 109.94 167.78 C 109.75 168.62 110.28 169.45 111.13 169.64 C 111.97 169.83 112.80 169.30 112.99 168.45 L 113.21 167.47 C 113.39 166.63 112.86 165.79 112.02 165.61 C 111.18 165.42 110.34 165.95 110.16 166.79 Z M 109.93 167.80 L 109.73 168.81 C 109.56 169.65 110.10 170.48 110.94 170.65 C 111.79 170.82 112.61 170.28 112.79 169.43 L 112.99 168.43 C 113.17 167.59 112.62 166.76 111.78 166.59 C 110.93 166.41 110.11 166.96 109.93 167.80 Z M 109.72 168.83 L 109.54 169.83 C 109.38 170.68 109.93 171.49 110.78 171.65 C 111.63 171.81 112.44 171.25 112.60 170.41 L 112.79 169.41 C 112.95 168.56 112.39 167.74 111.55 167.59 C 110.70 167.43 109.88 167.98 109.72 168.83 Z M 109.53 169.85 L 109.36 170.82 C 109.22 171.67 109.79 172.48 110.64 172.62 C 111.49 172.77 112.29 172.20 112.44 171.35 L 112.61 170.38 C 112.75 169.53 112.19 168.73 111.34 168.58 C 110.49 168.43 109.68 169.00 109.53 169.85 Z M 109.36 170.84 L 109.20 171.82 C 109.07 172.67 109.65 173.47 110.50 173.61 C 111.35 173.74 112.15 173.16 112.29 172.31 L 112.44 171.33 C 112.58 170.48 112.00 169.68 111.15 169.54 C 110.30 169.41 109.50 169.99 109.36 170.84 Z M 109.20 171.84 L 109.06 172.83 C 108.93 173.68 109.52 174.47 110.38 174.60 C 111.23 174.72 112.02 174.13 112.15 173.28 L 112.29 172.29 C 112.42 171.44 111.83 170.64 110.97 170.52 C 110.12 170.39 109.33 170.99 109.20 171.84 Z M 109.05 172.85 L 108.92 173.85 C 108.81 174.70 109.40 175.49 110.26 175.60 C 111.11 175.72 111.90 175.12 112.01 174.26 L 112.15 173.26 C 112.26 172.41 111.66 171.62 110.81 171.51 C 109.96 171.39 109.17 171.99 109.05 172.85 Z M 108.92 173.86 L 108.79 174.87 C 108.69 175.73 109.29 176.51 110.15 176.61 C 111.01 176.72 111.79 176.11 111.89 175.26 L 112.02 174.25 C 112.12 173.39 111.52 172.61 110.66 172.51 C 109.80 172.40 109.02 173.01 108.92 173.86 Z M 108.79 174.89 L 108.68 175.88 C 108.58 176.73 109.19 177.51 110.05 177.61 C 110.91 177.70 111.68 177.09 111.78 176.23 L 111.89 175.24 C 111.99 174.39 111.38 173.61 110.52 173.51 C 109.66 173.41 108.89 174.03 108.79 174.89 Z M 108.67 175.89 L 108.57 176.88 C 108.48 177.74 109.10 178.51 109.96 178.60 C 110.82 178.69 111.59 178.06 111.68 177.20 L 111.78 176.22 C 111.87 175.36 111.25 174.59 110.39 174.50 C 109.53 174.41 108.76 175.03 108.67 175.89 Z M 108.57 176.89 L 108.47 177.88 C 108.39 178.75 109.02 179.51 109.88 179.59 C 110.74 179.67 111.51 179.04 111.59 178.18 L 111.68 177.19 C 111.77 176.33 111.13 175.57 110.27 175.48 C 109.41 175.40 108.65 176.03 108.57 176.89 Z M 108.47 177.90 L 108.38 178.90 C 108.31 179.76 108.95 180.52 109.81 180.59 C 110.67 180.67 111.43 180.03 111.51 179.17 L 111.59 178.17 C 111.66 177.30 111.03 176.55 110.16 176.47 C 109.30 176.40 108.54 177.04 108.47 177.90 Z M 108.38 178.92 L 108.31 179.92 C 108.24 180.78 108.89 181.54 109.75 181.60 C 110.62 181.66 111.37 181.02 111.43 180.15 L 111.51 179.15 C 111.57 178.29 110.93 177.53 110.06 177.47 C 109.20 177.40 108.45 178.05 108.38 178.92 Z M 108.30 179.94 L 108.24 180.95 C 108.18 181.81 108.84 182.56 109.71 182.61 C 110.57 182.67 111.32 182.01 111.37 181.14 L 111.44 180.14 C 111.49 179.27 110.83 178.52 109.97 178.47 C 109.10 178.41 108.36 179.07 108.30 179.94 Z M 108.24 180.96 L 108.19 181.93 C 108.14 182.80 108.81 183.54 109.67 183.58 C 110.54 183.63 111.28 182.96 111.32 182.10 L 111.38 181.13 C 111.42 180.26 110.75 179.52 109.89 179.48 C 109.02 179.43 108.28 180.10 108.24 180.96 Z M 108.18 181.95 L 108.14 182.92 C 108.11 183.78 108.78 184.52 109.65 184.55 C 110.52 184.59 111.25 183.92 111.29 183.05 L 111.33 182.08 C 111.36 181.21 110.69 180.48 109.82 180.44 C 108.95 180.41 108.22 181.08 108.18 181.95 Z M 108.14 182.93 L 108.11 183.91 C 108.08 184.78 108.76 185.51 109.63 185.54 C 110.50 185.57 111.23 184.88 111.26 184.02 L 111.29 183.03 C 111.32 182.17 110.64 181.44 109.77 181.41 C 108.90 181.38 108.17 182.06 108.14 182.93 Z M 108.11 183.92 L 108.08 184.92 C 108.06 185.79 108.75 186.51 109.62 186.54 C 110.49 186.56 111.21 185.87 111.23 185.00 L 111.26 184.00 C 111.28 183.13 110.59 182.41 109.72 182.39 C 108.85 182.37 108.13 183.05 108.11 183.92 Z M 108.08 184.93 L 108.06 185.95 C 108.05 186.82 108.74 187.54 109.61 187.56 C 110.48 187.57 111.20 186.88 111.22 186.01 L 111.23 184.99 C 111.25 184.12 110.56 183.40 109.69 183.38 C 108.82 183.37 108.10 184.06 108.08 184.93 Z M 108.06 185.96 L 108.05 187.00 C 108.03 187.88 108.73 188.59 109.60 188.60 C 110.47 188.61 111.19 187.92 111.20 187.05 L 111.22 186.00 C 111.23 185.13 110.53 184.41 109.66 184.40 C 108.79 184.39 108.07 185.09 108.06 185.96 Z M 108.05 187.01 L 108.04 188.01 C 108.03 188.88 108.73 189.59 109.60 189.60 C 110.47 189.61 111.19 188.91 111.19 188.04 L 111.20 187.04 C 111.21 186.17 110.51 185.45 109.64 185.45 C 108.77 185.44 108.05 186.14 108.05 187.01 Z M 108.04 188.01 L 108.03 189.00 C 108.02 189.87 108.73 190.59 109.60 190.59 C 110.47 190.60 111.18 189.90 111.19 189.02 L 111.19 188.03 C 111.20 187.16 110.50 186.45 109.63 186.45 C 108.75 186.44 108.04 187.14 108.04 188.01 Z M 108.03 189.01 L 108.03 190.01 C 108.02 190.88 108.73 191.59 109.60 191.60 C 110.47 191.60 111.18 190.90 111.18 190.03 L 111.19 189.02 C 111.19 188.15 110.49 187.44 109.62 187.44 C 108.74 187.43 108.04 188.14 108.03 189.01 Z M 108.03 190.01 L 108.03 191.03 C 108.02 191.90 108.73 192.60 109.60 192.61 C 110.47 192.61 111.17 191.90 111.18 191.03 L 111.18 190.02 C 111.18 189.15 110.48 188.45 109.61 188.44 C 108.74 188.44 108.03 189.14 108.03 190.01 Z M 108.03 191.03 L 108.03 192.04 C 108.02 192.91 108.73 193.62 109.60 193.62 C 110.47 193.62 111.17 192.92 111.17 192.05 L 111.18 191.03 C 111.18 190.16 110.47 189.46 109.60 189.46 C 108.73 189.45 108.03 190.16 108.03 191.03 Z M 108.03 192.04 L 108.03 193.05 C 108.03 193.92 108.73 194.62 109.60 194.62 C 110.47 194.62 111.17 193.92 111.17 193.05 L 111.17 192.04 C 111.17 191.18 110.47 190.47 109.60 190.47 C 108.73 190.47 108.03 191.17 108.03 192.04 Z M 108.03 193.05 L 108.03 194.04 C 108.03 194.91 108.73 195.62 109.60 195.62 C 110.47 195.62 111.17 194.91 111.17 194.04 L 111.17 193.05 C 111.17 192.18 110.47 191.48 109.60 191.48 C 108.73 191.48 108.03 192.18 108.03 193.05 Z M 108.03 194.05 L 108.03 195.07 C 108.03 195.94 108.73 196.65 109.60 196.65 C 110.47 196.65 111.17 195.94 111.17 195.07 L 111.17 194.04 C 111.17 193.17 110.47 192.47 109.60 192.47 C 108.73 192.47 108.03 193.18 108.03 194.05 Z M 108.03 195.08 L 108.03 196.10 C 108.04 196.97 108.74 197.67 109.61 197.66 C 110.48 197.66 111.18 196.95 111.18 196.08 L 111.17 195.07 C 111.17 194.20 110.46 193.49 109.59 193.50 C 108.72 193.50 108.02 194.21 108.03 195.08 Z M 108.03 196.11 L 108.04 197.11 C 108.06 197.98 108.77 198.68 109.64 198.67 C 110.51 198.65 111.21 197.94 111.20 197.07 L 111.18 196.07 C 111.17 195.20 110.45 194.50 109.58 194.51 C 108.71 194.53 108.02 195.24 108.03 196.11 Z M 108.04 197.14 L 108.07 198.13 C 108.10 199.00 108.82 199.68 109.70 199.66 C 110.57 199.63 111.25 198.91 111.23 198.03 L 111.20 197.04 C 111.17 196.17 110.44 195.49 109.57 195.51 C 108.70 195.54 108.02 196.27 108.04 197.14 Z M 108.07 198.16 L 108.12 199.14 C 108.16 200.01 108.90 200.69 109.78 200.64 C 110.65 200.60 111.32 199.86 111.27 198.99 L 111.23 198.00 C 111.18 197.13 110.44 196.46 109.57 196.50 C 108.70 196.55 108.03 197.29 108.07 198.16 Z M 108.12 199.18 L 108.19 200.16 C 108.26 201.03 109.02 201.69 109.89 201.62 C 110.76 201.56 111.41 200.80 111.35 199.93 L 111.27 198.95 C 111.21 198.08 110.45 197.42 109.58 197.49 C 108.71 197.55 108.06 198.31 108.12 199.18 Z M 108.20 200.21 L 108.30 201.19 C 108.39 202.06 109.17 202.69 110.04 202.60 C 110.91 202.50 111.54 201.73 111.45 200.86 L 111.35 199.88 C 111.25 199.01 110.48 198.38 109.61 198.47 C 108.74 198.56 108.11 199.34 108.20 200.21 Z M 108.30 201.23 L 108.43 202.21 C 108.55 203.07 109.35 203.68 110.22 203.56 C 111.09 203.45 111.69 202.65 111.58 201.78 L 111.44 200.81 C 111.33 199.94 110.53 199.33 109.66 199.45 C 108.79 199.57 108.19 200.37 108.30 201.23 Z M 108.44 202.25 L 108.60 203.23 C 108.74 204.09 109.56 204.68 110.42 204.54 C 111.29 204.39 111.87 203.58 111.73 202.71 L 111.57 201.74 C 111.43 200.87 110.61 200.29 109.75 200.43 C 108.88 200.57 108.30 201.39 108.44 202.25 Z M 108.61 203.27 L 108.79 204.25 C 108.96 205.11 109.79 205.68 110.65 205.51 C 111.51 205.35 112.08 204.51 111.91 203.65 L 111.73 202.67 C 111.56 201.81 110.73 201.25 109.87 201.41 C 109.01 201.58 108.44 202.41 108.61 203.27 Z M 108.80 204.29 L 109.01 205.27 C 109.20 206.13 110.04 206.67 110.90 206.49 C 111.76 206.30 112.30 205.46 112.12 204.60 L 111.91 203.62 C 111.72 202.76 110.88 202.21 110.02 202.40 C 109.16 202.58 108.61 203.43 108.80 204.29 Z M 109.02 205.30 L 109.25 206.29 C 109.46 207.14 110.31 207.67 111.17 207.47 C 112.02 207.26 112.55 206.41 112.35 205.55 L 112.11 204.57 C 111.91 203.71 111.05 203.18 110.20 203.39 C 109.34 203.59 108.81 204.45 109.02 205.30 Z M 109.26 206.32 L 109.51 207.31 C 109.73 208.16 110.60 208.67 111.45 208.45 C 112.30 208.23 112.82 207.36 112.60 206.51 L 112.34 205.52 C 112.12 204.67 111.25 204.16 110.40 204.38 C 109.55 204.60 109.04 205.47 109.26 206.32 Z M 109.52 207.33 L 109.78 208.29 C 110.02 209.14 110.90 209.63 111.74 209.40 C 112.59 209.16 113.09 208.29 112.86 207.44 L 112.59 206.48 C 112.36 205.64 111.48 205.14 110.63 205.37 C 109.78 205.61 109.28 206.49 109.52 207.33 Z M 109.79 208.31 L 110.07 209.27 C 110.32 210.11 111.21 210.60 112.05 210.35 C 112.90 210.10 113.38 209.21 113.13 208.37 L 112.85 207.41 C 112.60 206.57 111.71 206.08 110.87 206.33 C 110.02 206.58 109.54 207.47 109.79 208.31 Z M 110.08 209.29 L 110.37 210.25 C 110.64 211.09 111.53 211.56 112.38 211.30 C 113.22 211.03 113.69 210.14 113.42 209.29 L 113.12 208.34 C 112.86 207.50 111.96 207.03 111.12 207.29 C 110.28 207.56 109.81 208.45 110.08 209.29 Z M 110.38 210.28 L 110.70 211.23 C 110.97 212.06 111.88 212.52 112.72 212.24 C 113.56 211.96 114.01 211.06 113.73 210.22 L 113.42 209.27 C 113.14 208.43 112.23 207.98 111.39 208.25 C 110.56 208.53 110.10 209.44 110.38 210.28 Z M 110.70 211.25 L 111.04 212.20 C 111.33 213.04 112.24 213.47 113.08 213.18 C 113.91 212.89 114.35 211.97 114.06 211.14 L 113.72 210.19 C 113.43 209.36 112.52 208.92 111.68 209.21 C 110.85 209.51 110.41 210.42 110.70 211.25 Z M 111.05 212.23 L 111.40 213.17 C 111.71 214.00 112.63 214.42 113.46 214.11 C 114.29 213.81 114.71 212.88 114.40 212.05 L 114.05 211.11 C 113.74 210.28 112.82 209.86 111.99 210.17 C 111.16 210.48 110.74 211.40 111.05 212.23 Z M 111.41 213.20 L 111.78 214.14 C 112.10 214.96 113.03 215.37 113.86 215.04 C 114.68 214.72 115.08 213.79 114.76 212.96 L 114.39 212.03 C 114.07 211.20 113.13 210.80 112.31 211.12 C 111.49 211.45 111.08 212.38 111.41 213.20 Z M 111.79 214.17 L 112.18 215.10 C 112.52 215.92 113.46 216.31 114.27 215.97 C 115.09 215.63 115.48 214.69 115.14 213.87 L 114.75 212.93 C 114.41 212.11 113.47 211.73 112.65 212.07 C 111.83 212.41 111.45 213.35 111.79 214.17 Z M 112.19 215.13 L 112.60 216.06 C 112.95 216.87 113.90 217.24 114.71 216.88 C 115.52 216.52 115.89 215.58 115.53 214.76 L 115.13 213.84 C 114.77 213.03 113.82 212.66 113.01 213.02 C 112.20 213.37 111.83 214.32 112.19 215.13 Z M 112.61 216.09 L 113.03 217.00 C 113.41 217.81 114.36 218.15 115.17 217.78 C 115.97 217.41 116.32 216.45 115.95 215.65 L 115.52 214.73 C 115.15 213.93 114.19 213.58 113.39 213.95 C 112.58 214.33 112.23 215.28 112.61 216.09 Z M 113.05 217.03 L 113.49 217.93 C 113.88 218.73 114.84 219.06 115.64 218.66 C 116.44 218.27 116.76 217.31 116.37 216.51 L 115.93 215.61 C 115.54 214.82 114.58 214.49 113.78 214.88 C 112.98 215.27 112.65 216.23 113.05 217.03 Z M 113.50 217.96 L 113.96 218.84 C 114.37 219.63 115.34 219.94 116.13 219.53 C 116.92 219.12 117.22 218.15 116.81 217.36 L 116.36 216.48 C 115.95 215.69 114.98 215.38 114.19 215.79 C 113.40 216.20 113.09 217.17 113.50 217.96 Z M 113.97 218.87 L 114.45 219.74 C 114.87 220.52 115.85 220.80 116.63 220.38 C 117.41 219.95 117.70 218.97 117.27 218.19 L 116.80 217.33 C 116.37 216.55 115.39 216.26 114.61 216.69 C 113.83 217.12 113.55 218.09 113.97 218.87 Z M 114.46 219.77 L 114.96 220.63 C 115.41 221.40 116.39 221.67 117.16 221.22 C 117.93 220.77 118.20 219.79 117.75 219.02 L 117.25 218.16 C 116.81 217.39 115.82 217.12 115.05 217.57 C 114.28 218.02 114.02 219.00 114.46 219.77 Z M 114.98 220.67 L 115.50 221.52 C 115.97 222.28 116.96 222.52 117.72 222.05 C 118.48 221.59 118.72 220.60 118.25 219.84 L 117.73 218.98 C 117.27 218.22 116.27 217.98 115.51 218.45 C 114.75 218.91 114.51 219.91 114.98 220.67 Z M 115.52 221.56 L 116.06 222.39 C 116.55 223.14 117.55 223.36 118.30 222.87 C 119.05 222.38 119.26 221.38 118.78 220.63 L 118.23 219.80 C 117.75 219.05 116.75 218.84 116.00 219.32 C 115.25 219.81 115.04 220.81 115.52 221.56 Z M 116.08 222.43 L 116.65 223.25 C 117.15 223.99 118.16 224.17 118.90 223.67 C 119.64 223.16 119.82 222.15 119.32 221.41 L 118.75 220.60 C 118.25 219.86 117.24 219.67 116.50 220.18 C 115.77 220.68 115.58 221.69 116.08 222.43 Z M 116.67 223.29 L 117.26 224.09 C 117.78 224.82 118.80 224.98 119.52 224.45 C 120.25 223.92 120.41 222.91 119.88 222.18 L 119.29 221.38 C 118.77 220.65 117.75 220.49 117.03 221.02 C 116.30 221.55 116.14 222.56 116.67 223.29 Z M 117.28 224.13 L 117.89 224.92 C 118.44 225.63 119.46 225.77 120.17 225.22 C 120.88 224.67 121.01 223.65 120.47 222.94 L 119.86 222.15 C 119.31 221.43 118.29 221.30 117.58 221.85 C 116.87 222.40 116.73 223.42 117.28 224.13 Z M 117.91 224.96 L 118.55 225.74 C 119.12 226.44 120.14 226.55 120.84 225.98 C 121.54 225.41 121.65 224.39 121.08 223.69 L 120.44 222.91 C 119.88 222.21 118.85 222.10 118.15 222.67 C 117.45 223.23 117.35 224.26 117.91 224.96 Z M 118.58 225.77 L 119.23 226.54 C 119.82 227.23 120.85 227.31 121.53 226.72 C 122.21 226.14 122.29 225.11 121.71 224.42 L 121.05 223.66 C 120.47 222.97 119.44 222.89 118.76 223.48 C 118.07 224.06 117.99 225.09 118.58 225.77 Z M 119.26 226.58 L 119.95 227.33 C 120.55 228.00 121.58 228.05 122.25 227.45 C 122.91 226.84 122.97 225.81 122.36 225.15 L 121.68 224.39 C 121.08 223.72 120.05 223.67 119.38 224.28 C 118.71 224.88 118.66 225.91 119.26 226.58 Z M 119.98 227.36 L 120.68 228.10 C 121.30 228.75 122.34 228.77 122.98 228.15 C 123.63 227.52 123.65 226.49 123.03 225.84 L 122.33 225.11 C 121.71 224.46 120.68 224.44 120.03 225.06 C 119.38 225.69 119.36 226.72 119.98 227.36 Z M 120.72 228.13 L 121.44 228.84 C 122.08 229.47 123.11 229.45 123.74 228.81 C 124.37 228.17 124.36 227.14 123.72 226.51 L 122.99 225.81 C 122.35 225.18 121.32 225.19 120.69 225.83 C 120.06 226.48 120.08 227.51 120.72 228.13 Z M 121.48 228.88 L 122.22 229.55 C 122.88 230.15 123.91 230.10 124.52 229.44 C 125.12 228.77 125.07 227.74 124.41 227.14 L 123.67 226.47 C 123.01 225.86 121.98 225.91 121.37 226.58 C 120.77 227.24 120.82 228.27 121.48 228.88 Z M 122.27 229.59 L 123.01 230.21 C 123.70 230.79 124.73 230.70 125.31 230.01 C 125.88 229.32 125.79 228.30 125.10 227.72 L 124.36 227.09 C 123.67 226.52 122.64 226.61 122.07 227.30 C 121.49 227.99 121.58 229.01 122.27 229.59 Z M 123.07 230.26 L 123.87 230.87 C 124.59 231.42 125.61 231.28 126.15 230.56 C 126.70 229.85 126.56 228.83 125.85 228.28 L 125.04 227.67 C 124.33 227.13 123.31 227.27 122.76 227.98 C 122.22 228.70 122.36 229.72 123.07 230.26 Z M 123.94 230.92 L 124.79 231.50 C 125.53 232.00 126.54 231.81 127.05 231.07 C 127.56 230.33 127.36 229.31 126.62 228.81 L 125.78 228.23 C 125.03 227.72 124.02 227.92 123.51 228.66 C 123.01 229.40 123.20 230.42 123.94 230.92 Z M 124.86 231.55 L 125.71 232.07 C 126.48 232.53 127.48 232.29 127.95 231.52 C 128.42 230.75 128.17 229.74 127.40 229.28 L 126.55 228.76 C 125.78 228.29 124.78 228.54 124.31 229.31 C 123.84 230.08 124.09 231.08 124.86 231.55 Z M 125.78 232.11 L 126.65 232.58 C 127.45 233.00 128.44 232.71 128.86 231.92 C 129.29 231.12 129.00 230.13 128.20 229.70 L 127.33 229.23 C 126.54 228.81 125.55 229.10 125.12 229.90 C 124.69 230.69 124.99 231.68 125.78 232.11 Z M 126.72 232.61 L 127.61 233.04 C 128.42 233.43 129.40 233.09 129.79 232.27 C 130.18 231.46 129.83 230.48 129.02 230.09 L 128.13 229.67 C 127.32 229.28 126.34 229.62 125.95 230.43 C 125.56 231.25 125.91 232.22 126.72 232.61 Z M 127.67 233.07 L 128.58 233.46 C 129.41 233.81 130.37 233.43 130.72 232.59 C 131.08 231.76 130.69 230.80 129.86 230.45 L 128.96 230.06 C 128.13 229.71 127.16 230.09 126.81 230.92 C 126.46 231.75 126.84 232.71 127.67 233.07 Z M 128.64 233.48 L 129.56 233.83 C 130.40 234.15 131.35 233.73 131.67 232.89 C 131.99 232.04 131.57 231.10 130.72 230.77 L 129.80 230.42 C 128.96 230.10 128.01 230.52 127.69 231.37 C 127.37 232.21 127.79 233.16 128.64 233.48 Z M 129.61 233.85 L 130.55 234.17 C 131.40 234.47 132.33 234.01 132.62 233.16 C 132.92 232.30 132.46 231.37 131.61 231.08 L 130.67 230.76 C 129.82 230.46 128.89 230.92 128.59 231.77 C 128.30 232.63 128.75 233.56 129.61 233.85 Z M 130.60 234.19 L 131.55 234.48 C 132.41 234.75 133.33 234.26 133.59 233.40 C 133.86 232.54 133.37 231.62 132.51 231.35 L 131.56 231.06 C 130.69 230.80 129.78 231.28 129.51 232.14 C 129.25 233.01 129.73 233.92 130.60 234.19 Z M 131.60 234.49 L 132.56 234.76 C 133.43 235.00 134.33 234.49 134.57 233.62 C 134.81 232.75 134.30 231.85 133.43 231.61 L 132.47 231.34 C 131.59 231.10 130.69 231.61 130.45 232.48 C 130.21 233.35 130.73 234.25 131.60 234.49 Z M 132.61 234.77 L 133.58 235.01 C 134.46 235.23 135.35 234.69 135.56 233.82 C 135.78 232.94 135.24 232.06 134.37 231.84 L 133.39 231.60 C 132.51 231.38 131.63 231.92 131.41 232.79 C 131.19 233.67 131.73 234.56 132.61 234.77 Z M 133.62 235.02 L 134.61 235.24 C 135.49 235.43 136.36 234.88 136.56 234.00 C 136.75 233.11 136.20 232.24 135.31 232.05 L 134.33 231.83 C 133.45 231.64 132.58 232.19 132.38 233.07 C 132.19 233.96 132.74 234.83 133.62 235.02 Z M 134.65 235.25 L 135.64 235.44 C 136.52 235.62 137.38 235.04 137.55 234.15 C 137.73 233.27 137.15 232.41 136.27 232.23 L 135.28 232.04 C 134.39 231.87 133.53 232.44 133.36 233.33 C 133.18 234.21 133.76 235.07 134.65 235.25 Z M 135.67 235.45 L 136.66 235.62 C 137.55 235.78 138.40 235.18 138.55 234.29 C 138.71 233.40 138.11 232.55 137.22 232.40 L 136.23 232.23 C 135.34 232.07 134.49 232.67 134.34 233.56 C 134.19 234.45 134.78 235.30 135.67 235.45 Z M 136.70 235.63 L 137.69 235.78 C 138.58 235.91 139.42 235.30 139.55 234.40 C 139.69 233.51 139.07 232.68 138.18 232.54 L 137.19 232.39 C 136.29 232.26 135.46 232.87 135.32 233.77 C 135.19 234.66 135.80 235.49 136.70 235.63 Z M 137.72 235.78 L 138.72 235.91 C 139.61 236.03 140.43 235.39 140.55 234.50 C 140.67 233.60 140.03 232.78 139.13 232.66 L 138.14 232.54 C 137.24 232.42 136.42 233.05 136.31 233.95 C 136.19 234.85 136.83 235.67 137.72 235.78 Z M 138.75 235.92 L 139.74 236.02 C 140.64 236.12 141.45 235.47 141.55 234.57 C 141.64 233.67 140.99 232.86 140.09 232.76 L 139.10 232.66 C 138.20 232.56 137.39 233.21 137.30 234.11 C 137.20 235.01 137.85 235.82 138.75 235.92 Z M 139.78 236.03 L 140.77 236.11 C 141.67 236.19 142.46 235.52 142.54 234.61 C 142.62 233.71 141.95 232.92 141.04 232.84 L 140.05 232.76 C 139.15 232.68 138.36 233.35 138.28 234.26 C 138.21 235.16 138.88 235.95 139.78 236.03 Z M 140.80 236.11 L 141.82 236.18 C 142.72 236.23 143.50 235.54 143.56 234.64 C 143.61 233.73 142.92 232.96 142.02 232.90 L 141.01 232.84 C 140.10 232.78 139.32 233.47 139.27 234.37 C 139.21 235.28 139.90 236.06 140.80 236.11 Z M 141.85 236.18 L 142.87 236.22 C 143.77 236.26 144.54 235.55 144.57 234.65 C 144.61 233.74 143.91 232.98 143.00 232.94 L 141.99 232.90 C 141.08 232.86 140.32 233.56 140.28 234.47 C 140.24 235.38 140.94 236.14 141.85 236.18 Z M 142.89 236.22 L 143.90 236.25 C 144.81 236.27 145.56 235.55 145.58 234.65 C 145.60 233.74 144.89 232.99 143.98 232.97 L 142.98 232.94 C 142.07 232.92 141.32 233.63 141.29 234.54 C 141.27 235.44 141.99 236.20 142.89 236.22 Z M 143.92 236.24 L 144.92 236.26 C 145.82 236.27 146.57 235.55 146.58 234.64 C 146.59 233.74 145.87 232.99 144.96 232.98 L 143.96 232.97 C 143.06 232.96 142.32 233.68 142.30 234.58 C 142.29 235.49 143.02 236.23 143.92 236.24 Z M 144.93 236.26 L 145.92 236.26 C 146.82 236.27 147.56 235.54 147.56 234.63 C 147.57 233.73 146.84 232.99 145.94 232.99 L 144.95 232.98 C 144.04 232.98 143.31 233.71 143.30 234.61 C 143.30 235.52 144.03 236.25 144.93 236.26 Z M 145.93 236.26 L 146.90 236.26 C 147.80 236.26 148.54 235.53 148.54 234.63 C 148.54 233.72 147.80 232.99 146.90 232.99 L 145.93 232.99 C 145.02 232.99 144.29 233.72 144.29 234.62 C 144.29 235.53 145.02 236.26 145.93 236.26 Z M 146.90 236.26 L 147.90 236.26 C 148.80 236.26 149.54 235.53 149.54 234.62 C 149.53 233.72 148.80 232.99 147.90 232.99 L 146.90 232.99 C 145.99 232.99 145.26 233.72 145.26 234.63 C 145.26 235.53 146.00 236.26 146.90 236.26 Z M 147.91 236.26 L 148.90 236.25 C 149.81 236.25 150.53 235.51 150.53 234.60 C 150.52 233.70 149.78 232.97 148.88 232.98 L 147.89 232.99 C 146.98 232.99 146.25 233.73 146.26 234.64 C 146.27 235.54 147.01 236.27 147.91 236.26 Z M 148.93 236.26 L 149.91 236.23 C 150.82 236.21 151.54 235.46 151.52 234.56 C 151.50 233.65 150.75 232.93 149.84 232.95 L 148.85 232.98 C 147.95 233.00 147.23 233.75 147.25 234.65 C 147.27 235.56 148.02 236.28 148.93 236.26 Z M 149.95 236.23 L 150.94 236.19 C 151.85 236.15 152.55 235.38 152.51 234.48 C 152.47 233.57 151.71 232.87 150.80 232.91 L 149.81 232.95 C 148.90 232.99 148.20 233.76 148.24 234.66 C 148.28 235.57 149.04 236.27 149.95 236.23 Z M 150.99 236.19 L 152.00 236.12 C 152.90 236.05 153.58 235.27 153.52 234.36 C 153.45 233.46 152.67 232.78 151.76 232.84 L 150.76 232.91 C 149.85 232.98 149.17 233.76 149.23 234.67 C 149.30 235.57 150.08 236.25 150.99 236.19 Z M 152.05 236.11 L 153.05 236.01 C 153.95 235.92 154.61 235.11 154.51 234.21 C 154.42 233.31 153.61 232.65 152.71 232.74 L 151.71 232.84 C 150.81 232.94 150.15 233.74 150.24 234.65 C 150.34 235.55 151.14 236.21 152.05 236.11 Z M 153.10 236.00 L 154.08 235.87 C 154.98 235.75 155.61 234.92 155.49 234.02 C 155.37 233.12 154.54 232.49 153.64 232.62 L 152.66 232.75 C 151.76 232.87 151.13 233.70 151.25 234.60 C 151.37 235.50 152.20 236.13 153.10 236.00 Z M 154.13 235.86 L 155.12 235.70 C 156.02 235.55 156.62 234.70 156.47 233.81 C 156.32 232.91 155.48 232.31 154.58 232.46 L 153.59 232.62 C 152.70 232.77 152.09 233.62 152.24 234.51 C 152.39 235.41 153.24 236.01 154.13 235.86 Z M 155.17 235.69 L 156.16 235.49 C 157.05 235.31 157.63 234.45 157.45 233.56 C 157.28 232.68 156.41 232.10 155.53 232.27 L 154.53 232.47 C 153.65 232.65 153.07 233.51 153.24 234.40 C 153.42 235.28 154.28 235.86 155.17 235.69 Z M 156.21 235.48 L 157.19 235.25 C 158.08 235.05 158.63 234.17 158.42 233.29 C 158.22 232.41 157.34 231.86 156.46 232.06 L 155.48 232.29 C 154.60 232.49 154.05 233.37 154.25 234.25 C 154.45 235.13 155.33 235.68 156.21 235.48 Z M 157.24 235.24 L 158.21 234.98 C 159.08 234.75 159.61 233.86 159.38 232.98 C 159.15 232.11 158.25 231.59 157.38 231.82 L 156.41 232.07 C 155.54 232.30 155.02 233.20 155.25 234.07 C 155.48 234.95 156.37 235.47 157.24 235.24 Z M 158.26 234.97 L 159.23 234.68 C 160.09 234.42 160.58 233.51 160.32 232.64 C 160.06 231.78 159.15 231.29 158.29 231.55 L 157.33 231.84 C 156.46 232.09 155.97 233.01 156.23 233.87 C 156.49 234.74 157.40 235.23 158.26 234.97 Z M 159.28 234.66 L 160.23 234.34 C 161.09 234.05 161.54 233.12 161.26 232.27 C 160.97 231.41 160.04 230.95 159.18 231.24 L 158.23 231.56 C 157.38 231.85 156.92 232.78 157.21 233.64 C 157.50 234.49 158.42 234.95 159.28 234.66 Z M 160.28 234.33 L 161.21 233.98 C 162.06 233.66 162.49 232.72 162.17 231.87 C 161.85 231.02 160.91 230.59 160.06 230.91 L 159.13 231.26 C 158.29 231.57 157.86 232.52 158.17 233.36 C 158.49 234.21 159.43 234.64 160.28 234.33 Z M 161.25 233.96 L 162.17 233.59 C 163.01 233.25 163.41 232.29 163.07 231.45 C 162.73 230.62 161.78 230.21 160.94 230.55 L 160.02 230.93 C 159.18 231.27 158.78 232.22 159.12 233.06 C 159.46 233.90 160.41 234.30 161.25 233.96 Z M 162.21 233.58 L 163.12 233.18 C 163.95 232.82 164.33 231.85 163.97 231.02 C 163.61 230.19 162.64 229.81 161.81 230.17 L 160.90 230.57 C 160.07 230.93 159.69 231.89 160.05 232.72 C 160.41 233.56 161.38 233.94 162.21 233.58 Z M 163.15 233.17 L 164.06 232.75 C 164.89 232.37 165.25 231.40 164.88 230.57 C 164.50 229.75 163.52 229.39 162.70 229.76 L 161.78 230.18 C 160.96 230.56 160.60 231.53 160.97 232.36 C 161.35 233.18 162.32 233.55 163.15 233.17 Z M 164.09 232.74 L 164.96 232.33 C 165.78 231.94 166.13 230.96 165.74 230.14 C 165.35 229.32 164.37 228.97 163.55 229.36 L 162.68 229.77 C 161.86 230.16 161.51 231.14 161.90 231.96 C 162.29 232.78 163.27 233.13 164.09 232.74 Z M 164.97 232.32 L 165.85 231.89 C 166.66 231.50 167.00 230.51 166.60 229.70 C 166.21 228.88 165.23 228.55 164.41 228.94 L 163.54 229.37 C 162.72 229.77 162.38 230.75 162.78 231.56 C 163.18 232.38 164.16 232.72 164.97 232.32 Z M 165.86 231.88 L 166.75 231.44 C 167.56 231.04 167.89 230.05 167.48 229.24 C 167.08 228.43 166.09 228.10 165.28 228.51 L 164.40 228.95 C 163.59 229.36 163.26 230.34 163.66 231.15 C 164.07 231.96 165.05 232.29 165.86 231.88 Z M 166.76 231.43 L 167.65 230.98 C 168.46 230.57 168.78 229.58 168.37 228.78 C 167.96 227.97 166.97 227.65 166.17 228.06 L 165.27 228.52 C 164.47 228.93 164.15 229.91 164.56 230.72 C 164.97 231.52 165.95 231.85 166.76 231.43 Z M 167.66 230.97 L 168.57 230.50 C 169.37 230.09 169.69 229.10 169.27 228.30 C 168.86 227.49 167.87 227.18 167.07 227.60 L 166.16 228.07 C 165.36 228.48 165.04 229.47 165.46 230.27 C 165.87 231.07 166.86 231.39 167.66 230.97 Z M 168.58 230.50 L 169.50 230.01 C 170.29 229.59 170.60 228.61 170.18 227.81 C 169.76 227.01 168.77 226.70 167.98 227.12 L 167.06 227.60 C 166.26 228.02 165.95 229.01 166.37 229.81 C 166.79 230.61 167.78 230.92 168.58 230.50 Z M 169.50 230.01 L 170.37 229.55 C 171.17 229.13 171.47 228.14 171.05 227.34 C 170.62 226.54 169.64 226.24 168.84 226.66 L 167.97 227.12 C 167.17 227.55 166.87 228.54 167.29 229.33 C 167.72 230.13 168.71 230.43 169.50 230.01 Z M 170.38 229.55 L 171.24 229.08 C 172.03 228.66 172.33 227.66 171.91 226.87 C 171.48 226.07 170.49 225.78 169.69 226.20 L 168.83 226.67 C 168.04 227.09 167.74 228.08 168.17 228.88 C 168.59 229.67 169.58 229.97 170.38 229.55 Z M 171.25 229.08 L 172.12 228.61 C 172.91 228.17 173.20 227.18 172.77 226.39 C 172.34 225.59 171.34 225.30 170.55 225.73 L 169.68 226.21 C 168.89 226.64 168.60 227.63 169.03 228.43 C 169.46 229.22 170.46 229.51 171.25 229.08 Z M 172.13 228.60 L 173.00 228.12 C 173.79 227.68 174.08 226.68 173.64 225.89 C 173.20 225.10 172.21 224.82 171.42 225.25 L 170.54 225.74 C 169.75 226.18 169.47 227.17 169.90 227.96 C 170.34 228.75 171.34 229.04 172.13 228.60 Z M 173.01 228.11 L 173.89 227.61 C 174.68 227.17 174.96 226.17 174.51 225.38 C 174.07 224.60 173.07 224.32 172.28 224.76 L 171.40 225.26 C 170.62 225.70 170.34 226.70 170.78 227.49 C 171.23 228.28 172.23 228.56 173.01 228.11 Z M 173.91 227.61 L 174.79 227.10 C 175.58 226.64 175.85 225.64 175.39 224.86 C 174.94 224.08 173.94 223.81 173.16 224.26 L 172.27 224.77 C 171.49 225.22 171.22 226.22 171.67 227.01 C 172.12 227.79 173.12 228.06 173.91 227.61 Z M 174.81 227.09 L 175.69 226.57 C 176.47 226.11 176.73 225.10 176.27 224.32 C 175.81 223.55 174.80 223.29 174.02 223.75 L 173.14 224.27 C 172.36 224.73 172.10 225.73 172.56 226.51 C 173.02 227.29 174.03 227.55 174.81 227.09 Z M 175.70 226.56 L 176.53 226.06 C 177.31 225.59 177.56 224.58 177.09 223.81 C 176.62 223.03 175.61 222.78 174.84 223.25 L 174.01 223.76 C 173.23 224.23 172.99 225.23 173.45 226.01 C 173.92 226.78 174.93 227.03 175.70 226.56 Z M 176.55 226.04 L 177.38 225.53 C 178.15 225.05 178.39 224.04 177.91 223.27 C 177.43 222.50 176.42 222.27 175.65 222.75 L 174.82 223.27 C 174.05 223.74 173.82 224.75 174.30 225.52 C 174.77 226.29 175.78 226.52 176.55 226.04 Z M 177.40 225.51 L 178.24 224.98 C 179.00 224.49 179.22 223.48 178.73 222.72 C 178.24 221.96 177.23 221.74 176.47 222.23 L 175.63 222.76 C 174.88 223.25 174.66 224.26 175.14 225.02 C 175.63 225.78 176.64 226.00 177.40 225.51 Z M 178.26 224.96 L 179.09 224.40 C 179.84 223.90 180.04 222.89 179.54 222.14 C 179.04 221.39 178.03 221.19 177.28 221.69 L 176.45 222.24 C 175.70 222.74 175.49 223.76 175.99 224.51 C 176.49 225.26 177.51 225.46 178.26 224.96 Z M 179.11 224.39 L 179.94 223.81 C 180.68 223.30 180.87 222.28 180.36 221.54 C 179.84 220.80 178.83 220.62 178.09 221.13 L 177.25 221.70 C 176.51 222.22 176.33 223.23 176.84 223.98 C 177.36 224.72 178.37 224.90 179.11 224.39 Z M 179.97 223.79 L 180.80 223.19 C 181.53 222.67 181.69 221.65 181.16 220.92 C 180.63 220.19 179.62 220.02 178.89 220.55 L 178.06 221.15 C 177.33 221.68 177.17 222.70 177.69 223.43 C 178.22 224.15 179.24 224.32 179.97 223.79 Z M 180.82 223.17 L 181.64 222.55 C 182.36 222.01 182.50 220.99 181.96 220.27 C 181.42 219.55 180.40 219.41 179.68 219.95 L 178.86 220.57 C 178.14 221.12 178.00 222.14 178.54 222.85 C 179.09 223.57 180.11 223.71 180.82 223.17 Z M 181.67 222.53 L 182.44 221.92 C 183.14 221.37 183.26 220.34 182.71 219.64 C 182.15 218.93 181.13 218.81 180.42 219.37 L 179.65 219.97 C 178.95 220.53 178.83 221.56 179.39 222.26 C 179.94 222.97 180.97 223.09 181.67 222.53 Z M 182.46 221.90 L 183.23 221.28 C 183.92 220.71 184.02 219.68 183.45 218.99 C 182.88 218.29 181.85 218.19 181.16 218.76 L 180.40 219.39 C 179.70 219.96 179.60 220.98 180.17 221.68 C 180.74 222.37 181.77 222.48 182.46 221.90 Z M 183.25 221.26 L 184.00 220.62 C 184.69 220.04 184.78 219.01 184.20 218.32 C 183.61 217.64 182.58 217.55 181.90 218.13 L 181.14 218.78 C 180.45 219.36 180.37 220.39 180.95 221.07 C 181.53 221.76 182.56 221.85 183.25 221.26 Z M 184.02 220.61 L 184.78 219.95 C 185.46 219.36 185.53 218.33 184.94 217.65 C 184.35 216.97 183.32 216.90 182.64 217.49 L 181.88 218.14 C 181.20 218.74 181.13 219.77 181.72 220.45 C 182.31 221.13 183.34 221.20 184.02 220.61 Z M 184.79 219.94 L 185.54 219.28 C 186.22 218.68 186.28 217.65 185.68 216.97 C 185.09 216.30 184.06 216.23 183.38 216.83 L 182.63 217.50 C 181.95 218.10 181.89 219.13 182.48 219.80 C 183.08 220.48 184.11 220.54 184.79 219.94 Z M 185.55 219.27 L 186.31 218.59 C 186.98 217.99 187.03 216.96 186.43 216.29 C 185.83 215.61 184.80 215.56 184.12 216.16 L 183.37 216.84 C 182.70 217.44 182.64 218.47 183.25 219.14 C 183.85 219.82 184.88 219.87 185.55 219.27 Z M 186.31 218.59 L 187.06 217.91 C 187.73 217.30 187.78 216.27 187.18 215.60 C 186.57 214.93 185.54 214.88 184.87 215.49 L 184.12 216.16 C 183.45 216.77 183.40 217.80 184.00 218.47 C 184.61 219.14 185.64 219.20 186.31 218.59 Z M 187.07 217.91 L 187.48 217.53 C 188.15 216.92 188.20 215.89 187.60 215.22 C 186.99 214.55 185.96 214.50 185.29 215.11 L 184.87 215.49 C 184.20 216.09 184.15 217.13 184.75 217.80 C 185.36 218.47 186.40 218.52 187.07 217.91 Z"
      fill="black"
      fill-rule="nonzero" /></svg>