<svg xmlns="http://www.w3.org/2000/svg" width="300" height="300" viewBox="0 0 300 300">
<path d="M 97.04 103.49 L 95.96 102.94 C 95.19 102.55 94.25 102.85 93.86 103.62 C 93.47 104.39 93.77 105.33 94.54 105.72 L 95.63 106.27 C 96.40 106.66 97.34 106.36 97.73 105.59 C 98.12 104.82 97.81 103.88 97.04 103.49 Z M 95.90 102.91 L 94.88 102.44 C 94.10 102.08 93.17 102.43 92.81 103.21 C 92.45 103.99 92.79 104.92 93.58 105.28 L 94.60 105.75 C 95.38 106.11 96.31 105.76 96.67 104.98 C 97.03 104.20 96.68 103.27 95.90 102.91 Z M 94.73 102.38 L 93.84 102.08 C 93.03 101.80 92.14 102.24 91.86 103.06 C 91.59 103.88 92.02 104.76 92.84 105.04 L 93.73 105.34 C 94.54 105.62 95.43 105.18 95.71 104.36 C 95.98 103.54 95.55 102.66 94.73 102.38 Z M 93.45 102.00 L 92.76 101.96 C 91.90 101.90 91.15 102.55 91.09 103.41 C 91.04 104.27 91.69 105.01 92.55 105.07 L 93.24 105.12 C 94.10 105.18 94.84 104.53 94.90 103.67 C 94.96 102.81 94.31 102.06 93.45 102.00 Z M 91.62 102.35 L 91.03 102.86 C 90.39 103.44 90.33 104.42 90.90 105.07 C 91.47 105.71 92.46 105.77 93.10 105.20 L 93.69 104.68 C 94.33 104.11 94.39 103.12 93.82 102.48 C 93.25 101.83 92.26 101.77 91.62 102.35 Z M 90.53 103.77 L 90.36 104.78 C 90.21 105.63 90.78 106.44 91.63 106.58 C 92.48 106.72 93.29 106.15 93.43 105.30 L 93.61 104.29 C 93.75 103.44 93.18 102.64 92.33 102.49 C 91.48 102.35 90.67 102.92 90.53 103.77 Z M 90.33 105.06 L 90.35 106.13 C 90.35 107.00 91.06 107.69 91.92 107.68 C 92.79 107.67 93.48 106.96 93.47 106.10 L 93.46 105.02 C 93.45 104.16 92.74 103.47 91.88 103.48 C 91.02 103.49 90.33 104.20 90.33 105.06 Z M 90.35 106.21 L 90.40 107.16 C 90.45 108.02 91.19 108.68 92.05 108.63 C 92.91 108.58 93.57 107.84 93.52 106.98 L 93.47 106.03 C 93.42 105.17 92.68 104.51 91.82 104.56 C 90.96 104.61 90.30 105.35 90.35 106.21 Z M 90.41 107.22 L 90.50 108.22 C 90.58 109.08 91.35 109.71 92.21 109.63 C 93.07 109.54 93.70 108.78 93.61 107.92 L 93.52 106.92 C 93.44 106.06 92.67 105.43 91.81 105.51 C 90.95 105.60 90.32 106.36 90.41 107.22 Z M 90.51 108.27 L 90.64 109.32 C 90.75 110.18 91.54 110.78 92.39 110.67 C 93.25 110.56 93.86 109.77 93.74 108.92 L 93.61 107.87 C 93.50 107.01 92.71 106.41 91.86 106.52 C 91.00 106.63 90.40 107.42 90.51 108.27 Z M 90.65 109.36 L 90.78 110.24 C 90.92 111.09 91.71 111.68 92.57 111.54 C 93.42 111.41 94.01 110.61 93.88 109.76 L 93.74 108.88 C 93.61 108.03 92.81 107.44 91.95 107.57 C 91.10 107.70 90.52 108.50 90.65 109.36 Z M 90.79 110.26 L 90.94 111.20 C 91.09 112.05 91.90 112.62 92.75 112.48 C 93.60 112.34 94.17 111.53 94.03 110.68 L 93.87 109.74 C 93.73 108.89 92.92 108.31 92.07 108.45 C 91.22 108.60 90.64 109.40 90.79 110.26 Z M 90.95 111.21 L 91.12 112.22 C 91.27 113.07 92.08 113.64 92.93 113.49 C 93.78 113.34 94.35 112.53 94.21 111.68 L 94.03 110.67 C 93.88 109.82 93.07 109.25 92.22 109.40 C 91.37 109.54 90.80 110.36 90.95 111.21 Z M 91.12 112.22 L 91.31 113.30 C 91.46 114.15 92.27 114.72 93.12 114.57 C 93.97 114.42 94.54 113.61 94.40 112.76 L 94.21 111.68 C 94.06 110.83 93.25 110.26 92.39 110.40 C 91.54 110.55 90.97 111.36 91.12 112.22 Z M 91.31 113.29 L 91.47 114.26 C 91.62 115.11 92.43 115.68 93.28 115.54 C 94.13 115.39 94.71 114.58 94.56 113.73 L 94.40 112.77 C 94.25 111.91 93.44 111.34 92.59 111.49 C 91.74 111.63 91.16 112.44 91.31 113.29 Z M 91.47 114.25 L 91.62 115.18 C 91.76 116.03 92.57 116.61 93.43 116.47 C 94.28 116.33 94.86 115.52 94.72 114.66 L 94.56 113.74 C 94.42 112.88 93.61 112.31 92.76 112.45 C 91.91 112.59 91.33 113.40 91.47 114.25 Z M 91.62 115.17 L 91.78 116.14 C 91.92 116.99 92.72 117.57 93.58 117.44 C 94.43 117.30 95.01 116.49 94.88 115.64 L 94.72 114.67 C 94.58 113.81 93.78 113.23 92.92 113.37 C 92.06 113.51 91.48 114.32 91.62 115.17 Z M 91.78 116.13 L 91.93 117.14 C 92.07 117.99 92.87 118.58 93.73 118.44 C 94.59 118.31 95.17 117.50 95.04 116.65 L 94.88 115.64 C 94.74 114.79 93.94 114.20 93.08 114.34 C 92.23 114.47 91.64 115.28 91.78 116.13 Z M 91.93 117.13 L 92.09 118.17 C 92.22 119.03 93.03 119.61 93.88 119.48 C 94.74 119.35 95.33 118.55 95.20 117.69 L 95.04 116.65 C 94.91 115.79 94.10 115.21 93.25 115.34 C 92.39 115.47 91.80 116.27 91.93 117.13 Z M 92.09 118.16 L 92.25 119.23 C 92.38 120.09 93.18 120.68 94.04 120.55 C 94.90 120.42 95.49 119.62 95.36 118.76 L 95.20 117.69 C 95.07 116.84 94.27 116.24 93.41 116.37 C 92.55 116.50 91.96 117.30 92.09 118.16 Z M 92.25 119.22 L 92.39 120.16 C 92.51 121.02 93.31 121.61 94.17 121.49 C 95.03 121.36 95.63 120.56 95.50 119.70 L 95.36 118.76 C 95.23 117.90 94.43 117.31 93.58 117.44 C 92.72 117.56 92.12 118.36 92.25 119.22 Z M 92.39 120.16 L 92.53 121.10 C 92.65 121.96 93.45 122.56 94.31 122.43 C 95.17 122.31 95.76 121.51 95.64 120.65 L 95.50 119.71 C 95.37 118.85 94.58 118.25 93.72 118.38 C 92.86 118.50 92.26 119.30 92.39 120.16 Z M 92.53 121.10 L 92.66 122.06 C 92.79 122.92 93.58 123.52 94.44 123.40 C 95.30 123.27 95.90 122.48 95.77 121.62 L 95.64 120.65 C 95.51 119.80 94.72 119.20 93.86 119.32 C 93.00 119.44 92.40 120.24 92.53 121.10 Z M 92.66 122.06 L 92.80 123.05 C 92.92 123.91 93.72 124.51 94.58 124.38 C 95.44 124.26 96.03 123.47 95.91 122.61 L 95.77 121.62 C 95.65 120.76 94.86 120.17 94.00 120.29 C 93.14 120.41 92.54 121.20 92.66 122.06 Z M 92.80 123.05 L 92.95 124.06 C 93.06 124.92 93.86 125.51 94.72 125.39 C 95.57 125.28 96.17 124.48 96.05 123.62 L 95.91 122.61 C 95.79 121.76 95.00 121.16 94.14 121.28 C 93.28 121.40 92.69 122.19 92.80 123.05 Z M 92.95 124.06 L 93.09 125.09 C 93.21 125.95 94.00 126.55 94.86 126.43 C 95.71 126.31 96.31 125.52 96.20 124.66 L 96.05 123.63 C 95.93 122.77 95.14 122.17 94.29 122.29 C 93.43 122.41 92.83 123.20 92.95 124.06 Z M 93.09 125.09 L 93.23 126.13 C 93.35 126.99 94.14 127.59 95.00 127.47 C 95.85 127.36 96.45 126.57 96.34 125.71 L 96.19 124.67 C 96.08 123.81 95.29 123.21 94.43 123.33 C 93.57 123.44 92.97 124.23 93.09 125.09 Z M 93.23 126.13 L 93.36 127.06 C 93.48 127.92 94.26 128.52 95.12 128.40 C 95.98 128.28 96.58 127.49 96.46 126.64 L 96.34 125.71 C 96.22 124.85 95.43 124.25 94.57 124.37 C 93.72 124.49 93.12 125.27 93.23 126.13 Z M 93.36 127.06 L 93.49 128.00 C 93.60 128.86 94.39 129.46 95.25 129.35 C 96.10 129.23 96.70 128.44 96.59 127.59 L 96.46 126.64 C 96.35 125.78 95.56 125.18 94.70 125.30 C 93.84 125.41 93.24 126.20 93.36 127.06 Z M 93.49 128.00 L 93.62 128.97 C 93.73 129.83 94.52 130.43 95.37 130.31 C 96.23 130.20 96.83 129.41 96.72 128.56 L 96.59 127.59 C 96.47 126.73 95.69 126.13 94.83 126.24 C 93.97 126.36 93.37 127.15 93.49 128.00 Z M 93.62 128.97 L 93.75 129.95 C 93.86 130.81 94.65 131.41 95.50 131.30 C 96.36 131.19 96.96 130.40 96.85 129.54 L 96.72 128.56 C 96.60 127.70 95.82 127.10 94.96 127.21 C 94.11 127.33 93.50 128.11 93.62 128.97 Z M 93.75 129.95 L 93.88 130.96 C 93.99 131.81 94.78 132.42 95.63 132.30 C 96.49 132.19 97.09 131.41 96.98 130.55 L 96.85 129.55 C 96.74 128.69 95.95 128.09 95.10 128.20 C 94.24 128.31 93.64 129.10 93.75 129.95 Z M 93.88 130.95 L 94.01 131.98 C 94.12 132.83 94.91 133.44 95.76 133.33 C 96.62 133.22 97.22 132.43 97.11 131.58 L 96.98 130.55 C 96.87 129.70 96.08 129.09 95.23 129.20 C 94.37 129.31 93.77 130.10 93.88 130.95 Z M 94.01 131.97 L 94.14 133.01 C 94.25 133.87 95.04 134.48 95.89 134.37 C 96.75 134.26 97.35 133.48 97.24 132.62 L 97.11 131.58 C 97.00 130.72 96.22 130.12 95.36 130.23 C 94.51 130.34 93.90 131.12 94.01 131.97 Z M 94.14 133.01 L 94.28 134.05 C 94.38 134.91 95.16 135.51 96.02 135.41 C 96.87 135.30 97.48 134.52 97.37 133.66 L 97.24 132.62 C 97.14 131.77 96.36 131.16 95.50 131.27 C 94.64 131.37 94.04 132.16 94.14 133.01 Z M 94.27 134.05 L 94.39 135.00 C 94.50 135.86 95.28 136.47 96.13 136.36 C 96.99 136.26 97.60 135.48 97.49 134.62 L 97.37 133.66 C 97.27 132.81 96.49 132.20 95.63 132.31 C 94.78 132.41 94.17 133.19 94.27 134.05 Z M 94.39 135.00 L 94.51 135.97 C 94.61 136.82 95.39 137.43 96.25 137.33 C 97.11 137.22 97.72 136.44 97.61 135.59 L 97.49 134.62 C 97.39 133.76 96.61 133.15 95.75 133.26 C 94.90 133.36 94.29 134.14 94.39 135.00 Z M 94.51 135.97 L 94.63 136.94 C 94.73 137.80 95.51 138.41 96.37 138.31 C 97.22 138.21 97.84 137.43 97.73 136.57 L 97.61 135.59 C 97.51 134.73 96.73 134.12 95.87 134.22 C 95.02 134.33 94.40 135.11 94.51 135.97 Z M 94.62 136.94 L 94.74 137.93 C 94.85 138.79 95.62 139.40 96.48 139.30 C 97.34 139.20 97.95 138.42 97.85 137.56 L 97.73 136.57 C 97.63 135.71 96.85 135.10 95.99 135.20 C 95.13 135.30 94.52 136.08 94.62 136.94 Z M 94.74 137.93 L 94.86 138.93 C 94.96 139.79 95.74 140.40 96.60 140.30 C 97.46 140.20 98.07 139.42 97.97 138.56 L 97.85 137.56 C 97.75 136.70 96.97 136.09 96.11 136.19 C 95.25 136.29 94.64 137.07 94.74 137.93 Z M 94.86 138.92 L 94.98 139.93 C 95.08 140.79 95.86 141.41 96.72 141.30 C 97.58 141.20 98.19 140.42 98.09 139.56 L 97.97 138.56 C 97.87 137.70 97.09 137.08 96.23 137.18 C 95.37 137.28 94.76 138.06 94.86 138.92 Z M 94.98 139.93 L 95.09 140.94 C 95.19 141.80 95.97 142.42 96.83 142.32 C 97.70 142.22 98.31 141.44 98.21 140.58 L 98.09 139.57 C 97.99 138.70 97.21 138.09 96.35 138.19 C 95.49 138.29 94.87 139.07 94.98 139.93 Z M 95.09 140.94 L 95.21 141.96 C 95.31 142.82 96.09 143.44 96.95 143.34 C 97.81 143.24 98.43 142.46 98.33 141.60 L 98.21 140.58 C 98.11 139.72 97.33 139.10 96.47 139.20 C 95.61 139.30 94.99 140.08 95.09 140.94 Z M 95.21 141.96 L 95.33 142.98 C 95.43 143.84 96.21 144.46 97.07 144.36 C 97.93 144.26 98.55 143.48 98.45 142.62 L 98.33 141.60 C 98.23 140.74 97.45 140.12 96.59 140.22 C 95.73 140.32 95.11 141.10 95.21 141.96 Z M 95.33 142.98 L 95.44 143.95 C 95.54 144.81 96.32 145.43 97.18 145.33 C 98.04 145.23 98.66 144.45 98.56 143.59 L 98.45 142.62 C 98.35 141.75 97.57 141.14 96.71 141.23 C 95.85 141.33 95.23 142.11 95.33 142.98 Z M 95.44 143.95 L 95.55 144.93 C 95.65 145.79 96.43 146.41 97.29 146.31 C 98.15 146.21 98.77 145.43 98.67 144.57 L 98.56 143.59 C 98.46 142.73 97.68 142.11 96.82 142.21 C 95.96 142.31 95.34 143.09 95.44 143.95 Z M 95.55 144.93 L 95.66 145.91 C 95.76 146.77 96.54 147.39 97.40 147.29 C 98.26 147.20 98.88 146.42 98.78 145.56 L 98.67 144.57 C 98.58 143.71 97.80 143.09 96.93 143.19 C 96.07 143.28 95.45 144.06 95.55 144.93 Z M 95.66 145.91 L 95.77 146.89 C 95.87 147.76 96.64 148.38 97.51 148.28 C 98.37 148.19 98.99 147.41 98.90 146.54 L 98.78 145.56 C 98.69 144.69 97.91 144.07 97.05 144.17 C 96.18 144.27 95.56 145.04 95.66 145.91 Z M 95.77 146.89 L 95.88 147.89 C 95.98 148.75 96.75 149.37 97.62 149.28 C 98.48 149.18 99.10 148.40 99.01 147.54 L 98.90 146.55 C 98.80 145.68 98.02 145.06 97.16 145.16 C 96.30 145.25 95.67 146.03 95.77 146.89 Z M 95.88 147.88 L 95.99 148.88 C 96.08 149.75 96.86 150.37 97.72 150.27 C 98.59 150.18 99.21 149.40 99.11 148.54 L 99.01 147.54 C 98.91 146.68 98.13 146.06 97.27 146.15 C 96.41 146.24 95.79 147.02 95.88 147.88 Z M 95.99 148.88 L 96.10 149.88 C 96.19 150.75 96.97 151.37 97.83 151.28 C 98.69 151.18 99.32 150.41 99.22 149.55 L 99.11 148.54 C 99.02 147.68 98.25 147.05 97.38 147.15 C 96.52 147.24 95.90 148.02 95.99 148.88 Z M 96.10 149.88 L 96.20 150.89 C 96.30 151.75 97.07 152.38 97.93 152.29 C 98.80 152.20 99.42 151.42 99.33 150.56 L 99.22 149.55 C 99.13 148.69 98.36 148.06 97.49 148.15 C 96.63 148.24 96.00 149.02 96.10 149.88 Z M 96.20 150.89 L 96.31 151.90 C 96.40 152.77 97.17 153.39 98.04 153.30 C 98.90 153.21 99.53 152.44 99.44 151.58 L 99.33 150.56 C 99.24 149.70 98.47 149.07 97.60 149.16 C 96.74 149.25 96.11 150.02 96.20 150.89 Z M 96.31 151.90 L 96.41 152.88 C 96.50 153.74 97.27 154.37 98.13 154.28 C 99.00 154.19 99.63 153.42 99.54 152.56 L 99.44 151.58 C 99.35 150.71 98.58 150.09 97.71 150.17 C 96.85 150.26 96.22 151.03 96.31 151.90 Z M 96.41 152.87 L 96.50 153.84 C 96.59 154.71 97.36 155.34 98.23 155.25 C 99.09 155.16 99.72 154.39 99.64 153.53 L 99.54 152.56 C 99.45 151.70 98.68 151.06 97.82 151.15 C 96.95 151.24 96.32 152.01 96.41 152.87 Z M 96.50 153.84 L 96.60 154.81 C 96.68 155.68 97.45 156.31 98.32 156.22 C 99.19 156.14 99.82 155.37 99.73 154.50 L 99.64 153.53 C 99.55 152.66 98.78 152.03 97.92 152.11 C 97.05 152.20 96.42 152.97 96.50 153.84 Z M 96.59 154.81 L 96.69 155.78 C 96.77 156.65 97.54 157.29 98.41 157.20 C 99.28 157.12 99.91 156.35 99.83 155.48 L 99.74 154.50 C 99.65 153.64 98.88 153.00 98.01 153.08 C 97.15 153.17 96.51 153.94 96.59 154.81 Z M 96.69 155.78 L 96.78 156.77 C 96.86 157.64 97.63 158.27 98.50 158.19 C 99.37 158.11 100.01 157.34 99.93 156.47 L 99.83 155.48 C 99.75 154.62 98.98 153.98 98.11 154.06 C 97.24 154.14 96.61 154.91 96.69 155.78 Z M 96.78 156.76 L 96.87 157.76 C 96.95 158.63 97.72 159.27 98.59 159.19 C 99.46 159.11 100.10 158.34 100.02 157.47 L 99.93 156.47 C 99.85 155.60 99.08 154.96 98.21 155.04 C 97.34 155.12 96.70 155.89 96.78 156.76 Z M 96.87 157.75 L 96.96 158.76 C 97.04 159.63 97.81 160.27 98.68 160.19 C 99.55 160.11 100.19 159.34 100.11 158.47 L 100.02 157.47 C 99.94 156.60 99.17 155.96 98.30 156.04 C 97.43 156.11 96.79 156.88 96.87 157.75 Z M 96.96 158.75 L 97.04 159.77 C 97.12 160.64 97.89 161.28 98.76 161.21 C 99.64 161.13 100.28 160.36 100.20 159.49 L 100.11 158.48 C 100.04 157.60 99.27 156.96 98.40 157.04 C 97.52 157.11 96.88 157.88 96.96 158.75 Z M 97.04 159.76 L 97.13 160.79 C 97.21 161.66 97.97 162.31 98.85 162.23 C 99.72 162.16 100.37 161.39 100.29 160.51 L 100.21 159.49 C 100.13 158.62 99.36 157.97 98.49 158.05 C 97.62 158.12 96.97 158.89 97.04 159.76 Z M 97.13 160.78 L 97.22 161.82 C 97.29 162.69 98.06 163.34 98.93 163.27 C 99.81 163.19 100.46 162.43 100.38 161.55 L 100.30 160.52 C 100.22 159.64 99.45 158.99 98.58 159.07 C 97.70 159.14 97.06 159.91 97.13 160.78 Z M 97.21 161.81 L 97.30 162.83 C 97.37 163.71 98.14 164.36 99.01 164.29 C 99.89 164.22 100.54 163.45 100.47 162.57 L 100.38 161.55 C 100.31 160.68 99.54 160.03 98.67 160.10 C 97.79 160.17 97.14 160.94 97.21 161.81 Z M 97.30 162.83 L 97.38 163.84 C 97.45 164.71 98.21 165.37 99.09 165.30 C 99.96 165.23 100.62 164.46 100.55 163.59 L 100.47 162.58 C 100.40 161.70 99.63 161.05 98.76 161.12 C 97.88 161.19 97.23 161.95 97.30 162.83 Z M 97.37 163.84 L 97.45 164.85 C 97.52 165.73 98.29 166.38 99.17 166.31 C 100.04 166.25 100.70 165.48 100.63 164.60 L 100.55 163.59 C 100.48 162.71 99.72 162.06 98.84 162.12 C 97.96 162.19 97.31 162.96 97.37 163.84 Z M 97.45 164.85 L 97.53 165.87 C 97.60 166.74 98.36 167.40 99.24 167.33 C 100.12 167.26 100.78 166.50 100.71 165.62 L 100.63 164.60 C 100.56 163.73 99.80 163.07 98.92 163.14 C 98.04 163.20 97.39 163.97 97.45 164.85 Z M 97.53 165.86 L 97.61 166.88 C 97.67 167.76 98.44 168.42 99.32 168.35 C 100.19 168.28 100.85 167.52 100.79 166.64 L 100.71 165.62 C 100.64 164.75 99.88 164.09 99.00 164.15 C 98.12 164.22 97.46 164.99 97.53 165.86 Z M 97.61 166.88 L 97.68 167.89 C 97.75 168.77 98.51 169.43 99.39 169.36 C 100.27 169.30 100.93 168.53 100.86 167.65 L 100.79 166.64 C 100.72 165.76 99.96 165.10 99.08 165.17 C 98.20 165.24 97.54 166.00 97.61 166.88 Z M 97.68 167.89 L 97.75 168.90 C 97.82 169.78 98.59 170.44 99.46 170.37 C 100.34 170.31 101.00 169.54 100.94 168.66 L 100.86 167.66 C 100.80 166.78 100.03 166.12 99.15 166.18 C 98.28 166.25 97.62 167.01 97.68 167.89 Z M 97.75 168.90 L 97.83 169.89 C 97.89 170.77 98.66 171.43 99.54 171.37 C 100.42 171.30 101.08 170.54 101.01 169.66 L 100.94 168.66 C 100.87 167.78 100.11 167.12 99.23 167.19 C 98.35 167.25 97.69 168.02 97.75 168.90 Z M 97.83 169.89 L 97.90 170.87 C 97.96 171.75 98.73 172.42 99.61 172.35 C 100.49 172.29 101.15 171.52 101.08 170.64 L 101.01 169.66 C 100.95 168.78 100.18 168.12 99.30 168.18 C 98.42 168.25 97.76 169.01 97.83 169.89 Z M 97.90 170.87 L 97.97 171.84 C 98.03 172.72 98.80 173.38 99.68 173.32 C 100.56 173.25 101.22 172.49 101.16 171.61 L 101.09 170.64 C 101.02 169.76 100.26 169.10 99.37 169.16 C 98.49 169.23 97.83 169.99 97.90 170.87 Z M 97.97 171.84 L 98.04 172.79 C 98.10 173.67 98.87 174.33 99.75 174.27 C 100.63 174.20 101.29 173.44 101.23 172.56 L 101.16 171.61 C 101.09 170.73 100.33 170.06 99.45 170.13 C 98.56 170.19 97.90 170.96 97.97 171.84 Z M 98.04 172.79 L 98.12 173.88 C 98.18 174.76 98.95 175.43 99.83 175.36 C 100.71 175.30 101.37 174.53 101.31 173.65 L 101.23 172.56 C 101.16 171.67 100.40 171.01 99.51 171.08 C 98.63 171.14 97.97 171.91 98.04 172.79 Z M 98.11 173.88 L 98.19 174.94 C 98.26 175.83 99.03 176.49 99.91 176.42 C 100.79 176.36 101.46 175.59 101.39 174.71 L 101.31 173.65 C 101.25 172.76 100.48 172.10 99.59 172.17 C 98.71 172.23 98.05 173.00 98.11 173.88 Z M 98.19 174.94 L 98.27 175.98 C 98.33 176.86 99.10 177.53 99.99 177.46 C 100.87 177.40 101.54 176.63 101.47 175.74 L 101.39 174.71 C 101.33 173.82 100.56 173.16 99.67 173.22 C 98.79 173.29 98.13 174.06 98.19 174.94 Z M 98.27 175.98 L 98.34 176.99 C 98.41 177.87 99.18 178.54 100.06 178.47 C 100.95 178.41 101.61 177.64 101.55 176.75 L 101.47 175.74 C 101.41 174.86 100.64 174.19 99.75 174.26 C 98.86 174.32 98.20 175.09 98.27 175.98 Z M 98.34 176.99 L 98.41 177.98 C 98.47 178.86 99.25 179.53 100.13 179.46 C 101.02 179.40 101.69 178.63 101.62 177.74 L 101.55 176.75 C 101.48 175.87 100.71 175.20 99.83 175.26 C 98.94 175.33 98.27 176.10 98.34 176.99 Z M 98.41 177.97 L 98.48 178.94 C 98.54 179.83 99.31 180.50 100.20 180.44 C 101.09 180.37 101.76 179.60 101.69 178.71 L 101.62 177.74 C 101.56 176.85 100.79 176.19 99.90 176.25 C 99.01 176.31 98.34 177.09 98.41 177.97 Z M 98.47 178.94 L 98.54 179.89 C 98.60 180.78 99.38 181.45 100.27 181.39 C 101.15 181.33 101.83 180.56 101.76 179.67 L 101.70 178.71 C 101.63 177.82 100.86 177.15 99.97 177.22 C 99.08 177.28 98.41 178.05 98.47 178.94 Z M 98.54 179.89 L 98.60 180.83 C 98.66 181.72 99.44 182.39 100.33 182.33 C 101.22 182.27 101.89 181.50 101.83 180.61 L 101.77 179.67 C 101.70 178.78 100.93 178.11 100.04 178.17 C 99.15 178.23 98.48 179.00 98.54 179.89 Z M 98.60 180.82 L 98.66 181.76 C 98.72 182.65 99.49 183.33 100.38 183.27 C 101.28 183.21 101.95 182.44 101.89 181.55 L 101.83 180.61 C 101.77 179.72 101.00 179.04 100.11 179.10 C 99.22 179.16 98.54 179.93 98.60 180.82 Z M 98.66 181.75 L 98.73 182.80 C 98.78 183.69 99.55 184.37 100.44 184.32 C 101.34 184.26 102.02 183.49 101.96 182.60 L 101.90 181.55 C 101.84 180.66 101.07 179.98 100.18 180.04 C 99.28 180.09 98.60 180.86 98.66 181.75 Z M 98.72 182.79 L 98.79 183.83 C 98.84 184.72 99.61 185.40 100.50 185.35 C 101.39 185.29 102.08 184.53 102.02 183.63 L 101.96 182.60 C 101.91 181.71 101.14 181.03 100.25 181.08 C 99.35 181.13 98.67 181.90 98.72 182.79 Z M 98.78 183.82 L 98.84 184.84 C 98.89 185.73 99.66 186.42 100.55 186.37 C 101.45 186.32 102.13 185.55 102.08 184.65 L 102.02 183.64 C 101.97 182.74 101.21 182.06 100.31 182.11 C 99.42 182.16 98.73 182.93 98.78 183.82 Z M 98.84 184.83 L 98.89 185.84 C 98.94 186.73 99.71 187.42 100.60 187.37 C 101.50 187.32 102.19 186.56 102.14 185.66 L 102.08 184.66 C 102.04 183.76 101.27 183.08 100.37 183.12 C 99.48 183.17 98.79 183.94 98.84 184.83 Z M 98.89 185.83 L 98.94 186.82 C 98.99 187.72 99.75 188.41 100.65 188.36 C 101.55 188.32 102.24 187.55 102.19 186.66 L 102.14 185.67 C 102.09 184.77 101.33 184.08 100.43 184.13 C 99.54 184.17 98.85 184.94 98.89 185.83 Z M 98.94 186.82 L 98.99 187.79 C 99.03 188.69 99.80 189.38 100.69 189.34 C 101.59 189.30 102.28 188.53 102.24 187.64 L 102.19 186.66 C 102.15 185.76 101.38 185.07 100.49 185.12 C 99.59 185.16 98.90 185.92 98.94 186.82 Z M 98.99 187.79 L 99.03 188.75 C 99.08 189.65 99.84 190.34 100.74 190.30 C 101.63 190.26 102.33 189.50 102.29 188.60 L 102.24 187.64 C 102.20 186.74 101.44 186.05 100.54 186.09 C 99.64 186.13 98.95 186.89 98.99 187.79 Z M 99.03 188.75 L 99.08 189.73 C 99.12 190.63 99.88 191.32 100.78 191.28 C 101.68 191.24 102.37 190.48 102.33 189.58 L 102.29 188.60 C 102.25 187.70 101.49 187.01 100.59 187.05 C 99.69 187.09 98.99 187.85 99.03 188.75 Z M 99.07 189.72 L 99.12 190.77 C 99.16 191.67 99.92 192.37 100.82 192.33 C 101.72 192.29 102.42 191.53 102.38 190.63 L 102.33 189.58 C 102.30 188.68 101.53 187.98 100.63 188.02 C 99.73 188.06 99.03 188.82 99.07 189.72 Z M 99.12 190.77 L 99.16 191.79 C 99.20 192.70 99.96 193.40 100.86 193.36 C 101.76 193.32 102.47 192.56 102.43 191.66 L 102.38 190.63 C 102.35 189.73 101.58 189.03 100.68 189.06 C 99.78 189.10 99.08 189.86 99.12 190.77 Z M 99.16 191.79 L 99.20 192.80 C 99.24 193.71 100.00 194.41 100.90 194.37 C 101.81 194.33 102.51 193.57 102.47 192.67 L 102.43 191.66 C 102.39 190.75 101.63 190.05 100.73 190.09 C 99.82 190.13 99.12 190.89 99.16 191.79 Z M 99.20 192.80 L 99.24 193.79 C 99.27 194.70 100.04 195.40 100.94 195.37 C 101.85 195.33 102.55 194.57 102.51 193.66 L 102.47 192.67 C 102.44 191.76 101.67 191.06 100.77 191.09 C 99.86 191.13 99.16 191.89 99.20 192.80 Z M 99.23 193.79 L 99.27 194.77 C 99.31 195.68 100.07 196.38 100.98 196.35 C 101.89 196.31 102.59 195.54 102.56 194.64 L 102.52 193.66 C 102.48 192.75 101.72 192.05 100.81 192.08 C 99.90 192.12 99.20 192.89 99.23 193.79 Z M 99.27 194.77 L 99.31 195.73 C 99.34 196.64 100.11 197.35 101.02 197.31 C 101.93 197.27 102.64 196.51 102.60 195.60 L 102.56 194.64 C 102.52 193.73 101.76 193.02 100.85 193.06 C 99.94 193.09 99.23 193.86 99.27 194.77 Z M 99.30 195.73 L 99.34 196.71 C 99.38 197.62 100.15 198.33 101.06 198.29 C 101.97 198.26 102.68 197.49 102.64 196.58 L 102.60 195.60 C 102.56 194.69 101.80 193.98 100.89 194.02 C 99.98 194.05 99.27 194.82 99.30 195.73 Z M 99.34 196.71 L 99.38 197.75 C 99.42 198.66 100.19 199.37 101.10 199.33 C 102.01 199.29 102.72 198.53 102.69 197.61 L 102.64 196.58 C 102.61 195.67 101.84 194.96 100.93 195.00 C 100.01 195.03 99.30 195.80 99.34 196.71 Z M 99.38 197.75 L 99.42 198.77 C 99.46 199.68 100.23 200.39 101.14 200.35 C 102.06 200.32 102.77 199.55 102.73 198.63 L 102.69 197.61 C 102.65 196.70 101.88 195.99 100.97 196.03 C 100.05 196.07 99.35 196.84 99.38 197.75 Z M 99.42 198.77 L 99.46 199.77 C 99.50 200.68 100.27 201.39 101.18 201.36 C 102.10 201.32 102.81 200.55 102.77 199.64 L 102.73 198.63 C 102.69 197.72 101.92 197.01 101.01 197.05 C 100.10 197.08 99.39 197.85 99.42 198.77 Z M 99.46 199.77 L 99.50 200.76 C 99.53 201.67 100.30 202.38 101.22 202.35 C 102.13 202.31 102.85 201.54 102.81 200.63 L 102.77 199.64 C 102.74 198.72 101.97 198.01 101.05 198.05 C 100.14 198.08 99.42 198.85 99.46 199.77 Z M 99.50 200.75 L 99.53 201.73 C 99.57 202.64 100.34 203.36 101.25 203.32 C 102.17 203.29 102.88 202.52 102.85 201.60 L 102.81 200.63 C 102.78 199.71 102.01 199.00 101.09 199.03 C 100.18 199.07 99.46 199.84 99.50 200.75 Z M 99.53 201.72 L 99.56 202.68 C 99.60 203.60 100.36 204.32 101.28 204.29 C 102.20 204.26 102.92 203.49 102.88 202.57 L 102.85 201.61 C 102.82 200.69 102.05 199.97 101.13 200.00 C 100.22 200.04 99.50 200.80 99.53 201.72 Z M 99.56 202.68 L 99.59 203.69 C 99.62 204.61 100.39 205.33 101.31 205.30 C 102.23 205.27 102.95 204.50 102.92 203.59 L 102.89 202.58 C 102.86 201.66 102.09 200.94 101.17 200.96 C 100.25 200.99 99.53 201.76 99.56 202.68 Z M 99.59 203.69 L 99.62 204.69 C 99.65 205.61 100.41 206.33 101.33 206.30 C 102.25 206.28 102.98 205.51 102.95 204.59 L 102.92 203.59 C 102.90 202.67 102.13 201.95 101.21 201.97 C 100.29 202.00 99.56 202.77 99.59 203.69 Z M 99.62 204.68 L 99.64 205.68 C 99.67 206.60 100.43 207.33 101.35 207.30 C 102.28 207.28 103.00 206.51 102.98 205.59 L 102.95 204.59 C 102.93 203.67 102.16 202.95 101.24 202.97 C 100.32 202.99 99.59 203.76 99.62 204.68 Z M 99.64 205.67 L 99.66 206.67 C 99.69 207.59 100.45 208.32 101.38 208.30 C 102.30 208.28 103.03 207.51 103.01 206.58 L 102.98 205.59 C 102.96 204.67 102.19 203.94 101.27 203.96 C 100.35 203.98 99.62 204.75 99.64 205.67 Z M 99.66 206.66 L 99.68 207.66 C 99.70 208.59 100.47 209.32 101.40 209.30 C 102.32 209.28 103.06 208.51 103.03 207.58 L 103.01 206.59 C 102.99 205.66 102.22 204.93 101.30 204.95 C 100.37 204.97 99.64 205.74 99.66 206.66 Z M 99.68 207.66 L 99.70 208.67 C 99.72 209.60 100.49 210.33 101.42 210.31 C 102.35 210.29 103.08 209.52 103.06 208.59 L 103.04 207.58 C 103.02 206.66 102.25 205.92 101.32 205.94 C 100.39 205.97 99.66 206.73 99.68 207.66 Z M 99.70 208.67 L 99.73 209.70 C 99.75 210.63 100.52 211.37 101.44 211.34 C 102.37 211.32 103.10 210.56 103.08 209.63 L 103.06 208.59 C 103.04 207.67 102.27 206.93 101.34 206.95 C 100.42 206.97 99.68 207.74 99.70 208.67 Z M 99.73 209.70 L 99.75 210.74 C 99.77 211.66 100.54 212.40 101.47 212.38 C 102.39 212.36 103.13 211.59 103.11 210.66 L 103.08 209.63 C 103.06 208.70 102.29 207.97 101.37 207.99 C 100.44 208.01 99.71 208.78 99.73 209.70 Z M 99.75 210.74 L 99.77 211.76 C 99.80 212.68 100.56 213.42 101.49 213.40 C 102.41 213.37 103.15 212.61 103.13 211.68 L 103.10 210.66 C 103.08 209.74 102.32 209.00 101.39 209.02 C 100.46 209.04 99.73 209.81 99.75 210.74 Z M 99.78 211.76 L 99.80 212.75 C 99.82 213.68 100.59 214.41 101.51 214.39 C 102.44 214.37 103.17 213.60 103.15 212.67 L 103.13 211.68 C 103.10 210.75 102.34 210.02 101.41 210.04 C 100.49 210.06 99.75 210.83 99.78 211.76 Z M 99.80 212.75 L 99.82 213.71 C 99.84 214.63 100.61 215.36 101.54 215.34 C 102.46 215.32 103.19 214.55 103.17 213.63 L 103.15 212.67 C 103.13 211.75 102.36 211.01 101.43 211.04 C 100.51 211.06 99.78 211.83 99.80 212.75 Z M 99.82 213.71 L 99.85 214.69 C 99.87 215.61 100.64 216.34 101.57 216.32 C 102.49 216.30 103.22 215.53 103.20 214.60 L 103.17 213.62 C 103.15 212.70 102.38 211.97 101.45 211.99 C 100.53 212.02 99.80 212.78 99.82 213.71 Z M 99.85 214.69 L 99.87 215.70 C 99.90 216.62 100.67 217.35 101.59 217.33 C 102.52 217.31 103.25 216.54 103.22 215.61 L 103.20 214.60 C 103.17 213.68 102.40 212.95 101.48 212.97 C 100.55 213.00 99.82 213.77 99.85 214.69 Z M 99.87 215.70 L 99.90 216.67 C 99.92 217.60 100.69 218.33 101.62 218.31 C 102.54 218.28 103.28 217.51 103.25 216.59 L 103.23 215.61 C 103.20 214.68 102.43 213.95 101.51 213.98 C 100.58 214.00 99.85 214.77 99.87 215.70 Z M 99.89 216.67 L 99.92 217.64 C 99.94 218.57 100.71 219.30 101.63 219.28 C 102.56 219.26 103.30 218.49 103.28 217.56 L 103.25 216.59 C 103.23 215.66 102.46 214.93 101.54 214.95 C 100.61 214.97 99.87 215.74 99.89 216.67 Z M 99.91 217.63 L 99.93 218.64 C 99.95 219.57 100.72 220.31 101.64 220.29 C 102.57 220.27 103.31 219.50 103.30 218.58 L 103.28 217.57 C 103.26 216.64 102.49 215.90 101.57 215.92 C 100.64 215.94 99.90 216.70 99.91 217.63 Z M 99.93 218.63 L 99.94 219.63 C 99.96 220.56 100.72 221.31 101.65 221.30 C 102.58 221.28 103.32 220.52 103.31 219.59 L 103.30 218.58 C 103.29 217.66 102.52 216.91 101.59 216.92 C 100.66 216.93 99.92 217.70 99.93 218.63 Z M 99.95 219.63 L 99.96 220.65 C 99.97 221.58 100.73 222.33 101.66 222.31 C 102.59 222.30 103.33 221.54 103.32 220.61 L 103.31 219.59 C 103.30 218.67 102.54 217.92 101.61 217.93 C 100.68 217.94 99.94 218.71 99.95 219.63 Z M 99.96 220.66 L 99.98 221.70 C 100.00 222.63 100.76 223.36 101.69 223.35 C 102.62 223.33 103.35 222.56 103.34 221.64 L 103.32 220.60 C 103.30 219.68 102.53 218.94 101.61 218.96 C 100.68 218.97 99.94 219.74 99.96 220.66 Z M 99.98 221.72 L 100.02 222.74 C 100.05 223.67 100.82 224.39 101.75 224.36 C 102.67 224.33 103.40 223.56 103.37 222.63 L 103.33 221.61 C 103.30 220.69 102.53 219.96 101.60 219.99 C 100.68 220.02 99.95 220.80 99.98 221.72 Z M 100.02 222.78 L 100.08 223.76 C 100.13 224.68 100.92 225.39 101.84 225.34 C 102.76 225.28 103.47 224.49 103.42 223.57 L 103.36 222.60 C 103.31 221.67 102.52 220.97 101.60 221.02 C 100.68 221.07 99.97 221.86 100.02 222.78 Z M 100.08 223.82 L 100.18 224.83 C 100.27 225.75 101.08 226.42 102.00 226.34 C 102.92 226.25 103.59 225.43 103.50 224.52 L 103.41 223.51 C 103.32 222.59 102.51 221.92 101.59 222.00 C 100.67 222.09 100.00 222.91 100.08 223.82 Z M 100.20 224.93 L 100.36 225.99 C 100.50 226.90 101.35 227.53 102.26 227.39 C 103.16 227.25 103.79 226.40 103.65 225.49 L 103.49 224.43 C 103.35 223.52 102.50 222.89 101.59 223.03 C 100.68 223.17 100.06 224.02 100.20 224.93 Z M 100.38 226.08 L 100.58 227.05 C 100.77 227.94 101.65 228.52 102.55 228.33 C 103.44 228.14 104.02 227.27 103.83 226.37 L 103.63 225.41 C 103.44 224.51 102.56 223.93 101.67 224.12 C 100.77 224.31 100.19 225.19 100.38 226.08 Z M 100.60 227.11 L 100.83 228.01 C 101.05 228.89 101.95 229.43 102.83 229.21 C 103.72 228.99 104.26 228.09 104.04 227.21 L 103.81 226.31 C 103.59 225.42 102.69 224.88 101.80 225.11 C 100.92 225.33 100.38 226.22 100.60 227.11 Z M 100.84 228.03 L 100.98 228.55 C 101.21 229.43 102.12 229.95 103.00 229.72 C 103.88 229.48 104.40 228.58 104.16 227.70 L 104.02 227.18 C 103.79 226.30 102.89 225.78 102.01 226.01 C 101.13 226.25 100.60 227.15 100.84 228.03 Z"
      fill="black"
      fill-rule="nonzero" /><path d="M 180.29 98.04 L 179.25 97.85 C 178.41 97.70 177.59 98.27 177.44 99.11 C 177.29 99.96 177.86 100.77 178.71 100.93 L 179.75 101.11 C 180.59 101.26 181.41 100.70 181.56 99.85 C 181.71 99.00 181.14 98.19 180.29 98.04 Z M 179.22 97.85 L 178.20 97.68 C 177.35 97.55 176.55 98.13 176.42 98.98 C 176.28 99.83 176.86 100.63 177.71 100.77 L 178.73 100.93 C 179.59 101.07 180.39 100.49 180.52 99.63 C 180.66 98.78 180.08 97.98 179.22 97.85 Z M 178.14 97.68 L 177.15 97.56 C 176.30 97.46 175.52 98.07 175.42 98.93 C 175.32 99.78 175.93 100.56 176.79 100.66 L 177.78 100.78 C 178.63 100.88 179.41 100.26 179.51 99.41 C 179.61 98.55 179.00 97.78 178.14 97.68 Z M 177.05 97.55 L 176.11 97.51 C 175.25 97.46 174.52 98.13 174.48 98.99 C 174.44 99.85 175.10 100.58 175.96 100.62 L 176.89 100.67 C 177.76 100.71 178.49 100.05 178.53 99.19 C 178.57 98.33 177.91 97.59 177.05 97.55 Z M 175.95 97.51 L 175.00 97.56 C 174.14 97.61 173.48 98.35 173.53 99.21 C 173.58 100.07 174.32 100.73 175.18 100.68 L 176.13 100.62 C 176.99 100.57 177.65 99.83 177.60 98.97 C 177.55 98.11 176.81 97.46 175.95 97.51 Z M 174.78 97.59 L 173.86 97.78 C 173.01 97.95 172.46 98.77 172.63 99.62 C 172.81 100.46 173.63 101.01 174.47 100.84 L 175.40 100.65 C 176.24 100.48 176.79 99.66 176.62 98.81 C 176.45 97.97 175.63 97.42 174.78 97.59 Z M 173.65 97.83 L 172.72 98.16 C 171.90 98.44 171.47 99.33 171.76 100.14 C 172.04 100.96 172.93 101.39 173.74 101.11 L 174.68 100.78 C 175.49 100.50 175.92 99.61 175.64 98.80 C 175.36 97.98 174.47 97.55 173.65 97.83 Z M 172.57 98.22 L 171.58 98.68 C 170.80 99.04 170.47 99.97 170.83 100.75 C 171.20 101.53 172.12 101.87 172.91 101.51 L 173.89 101.05 C 174.67 100.68 175.01 99.75 174.65 98.97 C 174.28 98.19 173.35 97.85 172.57 98.22 Z M 171.50 98.72 L 170.67 99.17 C 169.91 99.58 169.63 100.53 170.04 101.29 C 170.45 102.05 171.40 102.33 172.15 101.92 L 172.99 101.46 C 173.75 101.05 174.03 100.11 173.62 99.35 C 173.21 98.59 172.26 98.31 171.50 98.72 Z M 170.62 99.20 L 169.74 99.72 C 169.00 100.15 168.75 101.11 169.19 101.85 C 169.63 102.60 170.59 102.84 171.33 102.40 L 172.20 101.89 C 172.95 101.45 173.19 100.49 172.75 99.75 C 172.32 99.01 171.36 98.76 170.62 99.20 Z M 169.71 99.74 L 168.83 100.29 C 168.10 100.75 167.88 101.71 168.33 102.44 C 168.79 103.17 169.76 103.39 170.49 102.93 L 171.37 102.38 C 172.10 101.92 172.32 100.96 171.86 100.23 C 171.40 99.50 170.44 99.28 169.71 99.74 Z M 168.80 100.31 L 167.94 100.87 C 167.22 101.35 167.03 102.32 167.50 103.04 C 167.98 103.76 168.94 103.95 169.66 103.48 L 170.52 102.91 C 171.24 102.44 171.43 101.47 170.96 100.75 C 170.48 100.03 169.52 99.83 168.80 100.31 Z M 167.91 100.89 L 167.09 101.47 C 166.38 101.96 166.20 102.93 166.69 103.64 C 167.18 104.35 168.16 104.52 168.86 104.03 L 169.69 103.46 C 170.40 102.97 170.58 102.00 170.09 101.29 C 169.60 100.58 168.62 100.40 167.91 100.89 Z M 167.05 101.49 L 166.19 102.12 C 165.49 102.63 165.34 103.61 165.85 104.30 C 166.36 105.00 167.33 105.15 168.03 104.64 L 168.90 104.01 C 169.59 103.50 169.74 102.52 169.24 101.83 C 168.73 101.13 167.75 100.98 167.05 101.49 Z M 166.15 102.15 L 165.37 102.75 C 164.69 103.28 164.56 104.26 165.09 104.94 C 165.62 105.63 166.60 105.75 167.28 105.22 L 168.07 104.62 C 168.75 104.09 168.87 103.11 168.34 102.43 C 167.82 101.74 166.84 101.62 166.15 102.15 Z M 165.34 102.78 L 164.60 103.38 C 163.93 103.93 163.84 104.91 164.38 105.58 C 164.93 106.25 165.91 106.35 166.58 105.80 L 167.31 105.20 C 167.98 104.65 168.08 103.67 167.53 103.00 C 166.99 102.33 166.00 102.23 165.34 102.78 Z M 164.58 103.40 L 163.86 104.02 C 163.20 104.58 163.12 105.56 163.68 106.22 C 164.24 106.88 165.23 106.95 165.88 106.39 L 166.60 105.78 C 167.26 105.22 167.34 104.23 166.78 103.58 C 166.22 102.92 165.23 102.84 164.58 103.40 Z M 163.84 104.03 L 163.12 104.66 C 162.48 105.23 162.41 106.22 162.98 106.87 C 163.55 107.51 164.54 107.58 165.19 107.01 L 165.90 106.38 C 166.55 105.81 166.61 104.82 166.04 104.18 C 165.47 103.53 164.49 103.46 163.84 104.03 Z M 163.11 104.68 L 162.38 105.33 C 161.74 105.91 161.69 106.90 162.26 107.54 C 162.84 108.18 163.83 108.23 164.47 107.65 L 165.20 106.99 C 165.84 106.42 165.89 105.43 165.31 104.79 C 164.74 104.15 163.75 104.10 163.11 104.68 Z M 162.37 105.34 L 161.62 106.03 C 160.98 106.62 160.94 107.61 161.52 108.24 C 162.11 108.88 163.09 108.92 163.73 108.33 L 164.48 107.64 C 165.11 107.06 165.16 106.07 164.57 105.44 C 163.99 104.80 163.00 104.76 162.37 105.34 Z M 161.61 106.04 L 160.84 106.76 C 160.21 107.35 160.17 108.34 160.76 108.97 C 161.35 109.60 162.34 109.63 162.97 109.04 L 163.74 108.33 C 164.37 107.74 164.40 106.75 163.81 106.12 C 163.22 105.49 162.24 105.45 161.61 106.04 Z M 160.83 106.77 L 160.14 107.42 C 159.51 108.01 159.48 109.00 160.08 109.63 C 160.67 110.25 161.66 110.28 162.28 109.69 L 162.97 109.04 C 163.60 108.45 163.63 107.46 163.04 106.83 C 162.44 106.20 161.46 106.18 160.83 106.77 Z M 160.13 107.43 L 159.43 108.11 C 158.80 108.70 158.78 109.69 159.38 110.31 C 159.98 110.94 160.97 110.96 161.59 110.36 L 162.29 109.68 C 162.91 109.08 162.93 108.10 162.34 107.47 C 161.74 106.85 160.75 106.83 160.13 107.43 Z M 159.41 108.12 L 158.70 108.82 C 158.08 109.42 158.07 110.41 158.67 111.03 C 159.28 111.64 160.26 111.65 160.88 111.05 L 161.60 110.35 C 162.21 109.74 162.22 108.76 161.62 108.14 C 161.02 107.52 160.03 107.51 159.41 108.12 Z M 158.68 108.83 L 157.96 109.56 C 157.35 110.17 157.35 111.16 157.96 111.77 C 158.57 112.38 159.56 112.38 160.17 111.77 L 160.89 111.04 C 161.50 110.43 161.50 109.44 160.89 108.83 C 160.28 108.22 159.29 108.22 158.68 108.83 Z M 157.94 109.58 L 157.22 110.32 C 156.62 110.93 156.64 111.92 157.26 112.52 C 157.88 113.12 158.86 113.11 159.46 112.49 L 160.18 111.75 C 160.78 111.13 160.77 110.14 160.15 109.54 C 159.53 108.94 158.54 108.96 157.94 109.58 Z M 157.21 110.33 L 156.54 111.04 C 155.95 111.66 155.98 112.65 156.61 113.24 C 157.23 113.83 158.22 113.81 158.81 113.18 L 159.48 112.47 C 160.07 111.85 160.04 110.86 159.42 110.27 C 158.79 109.68 157.80 109.70 157.21 110.33 Z M 156.53 111.05 L 155.86 111.78 C 155.28 112.41 155.32 113.40 155.95 113.98 C 156.59 114.57 157.57 114.53 158.16 113.89 L 158.83 113.17 C 159.41 112.53 159.37 111.54 158.74 110.96 C 158.10 110.38 157.12 110.42 156.53 111.05 Z M 155.85 111.79 L 155.18 112.53 C 154.60 113.17 154.65 114.16 155.29 114.74 C 155.93 115.32 156.92 115.26 157.50 114.62 L 158.17 113.88 C 158.75 113.24 158.70 112.25 158.05 111.67 C 157.41 111.10 156.43 111.15 155.85 111.79 Z M 155.17 112.55 L 154.49 113.31 C 153.92 113.96 153.98 114.94 154.63 115.51 C 155.28 116.08 156.26 116.02 156.83 115.38 L 157.51 114.61 C 158.08 113.97 158.02 112.98 157.37 112.41 C 156.72 111.84 155.74 111.90 155.17 112.55 Z M 154.48 113.32 L 153.81 114.10 C 153.25 114.75 153.32 115.74 153.97 116.30 C 154.62 116.87 155.61 116.80 156.17 116.14 L 156.84 115.36 C 157.41 114.71 157.34 113.73 156.69 113.16 C 156.03 112.60 155.05 112.67 154.48 113.32 Z M 153.80 114.11 L 153.18 114.84 C 152.62 115.50 152.70 116.49 153.35 117.04 C 154.01 117.60 155.00 117.52 155.55 116.87 L 156.18 116.13 C 156.74 115.48 156.66 114.49 156.00 113.93 C 155.34 113.37 154.36 113.45 153.80 114.11 Z M 153.17 114.85 L 152.54 115.60 C 151.99 116.26 152.08 117.24 152.74 117.80 C 153.40 118.35 154.38 118.26 154.94 117.60 L 155.56 116.86 C 156.12 116.20 156.03 115.21 155.37 114.66 C 154.71 114.11 153.72 114.19 153.17 114.85 Z M 152.54 115.60 L 151.91 116.37 C 151.36 117.03 151.45 118.01 152.12 118.56 C 152.78 119.11 153.76 119.02 154.31 118.36 L 154.94 117.60 C 155.49 116.93 155.40 115.95 154.74 115.40 C 154.07 114.85 153.09 114.94 152.54 115.60 Z M 151.90 116.37 L 151.27 117.15 C 150.72 117.82 150.82 118.80 151.48 119.35 C 152.15 119.89 153.13 119.80 153.68 119.13 L 154.32 118.35 C 154.87 117.68 154.77 116.70 154.10 116.15 C 153.43 115.61 152.45 115.70 151.90 116.37 Z M 151.26 117.16 L 150.61 117.95 C 150.07 118.62 150.17 119.61 150.84 120.15 C 151.51 120.69 152.49 120.59 153.04 119.92 L 153.69 119.12 C 154.23 118.45 154.13 117.47 153.46 116.93 C 152.79 116.38 151.80 116.49 151.26 117.16 Z M 150.61 117.96 L 149.96 118.77 C 149.42 119.44 149.52 120.42 150.19 120.96 C 150.86 121.50 151.85 121.40 152.39 120.73 L 153.04 119.92 C 153.58 119.25 153.48 118.27 152.80 117.72 C 152.13 117.18 151.15 117.29 150.61 117.96 Z M 149.96 118.77 L 149.34 119.54 C 148.80 120.21 148.90 121.20 149.58 121.74 C 150.25 122.28 151.23 122.17 151.77 121.50 L 152.39 120.72 C 152.93 120.05 152.82 119.07 152.15 118.53 C 151.48 117.99 150.49 118.10 149.96 118.77 Z M 149.33 119.54 L 148.71 120.33 C 148.17 121.00 148.28 121.98 148.95 122.52 C 149.63 123.06 150.61 122.95 151.15 122.28 L 151.77 121.49 C 152.31 120.82 152.20 119.84 151.53 119.30 C 150.85 118.76 149.87 118.87 149.33 119.54 Z M 148.71 120.33 L 148.08 121.12 C 147.54 121.80 147.65 122.78 148.33 123.32 C 149.00 123.85 149.98 123.74 150.52 123.07 L 151.15 122.27 C 151.69 121.60 151.57 120.62 150.90 120.08 C 150.22 119.54 149.24 119.66 148.71 120.33 Z M 148.07 121.12 L 147.45 121.92 C 146.91 122.59 147.02 123.58 147.70 124.11 C 148.38 124.65 149.36 124.53 149.89 123.86 L 150.52 123.06 C 151.06 122.39 150.94 121.40 150.27 120.87 C 149.59 120.33 148.61 120.45 148.07 121.12 Z M 147.44 121.92 L 146.82 122.71 C 146.29 123.39 146.41 124.37 147.08 124.90 C 147.76 125.43 148.74 125.32 149.28 124.64 L 149.90 123.85 C 150.43 123.18 150.31 122.19 149.64 121.66 C 148.96 121.13 147.98 121.24 147.44 121.92 Z M 146.82 122.71 L 146.21 123.49 C 145.68 124.17 145.80 125.15 146.48 125.68 C 147.16 126.21 148.14 126.09 148.67 125.42 L 149.28 124.64 C 149.81 123.96 149.69 122.98 149.01 122.45 C 148.33 121.91 147.35 122.03 146.82 122.71 Z M 146.21 123.49 L 145.57 124.31 C 145.04 124.99 145.16 125.97 145.84 126.50 C 146.52 127.03 147.50 126.91 148.03 126.23 L 148.67 125.41 C 149.20 124.73 149.08 123.75 148.40 123.22 C 147.72 122.69 146.74 122.81 146.21 123.49 Z M 145.57 124.32 L 144.94 125.12 C 144.41 125.80 144.54 126.79 145.22 127.31 C 145.90 127.84 146.88 127.72 147.41 127.04 L 148.04 126.23 C 148.56 125.55 148.44 124.57 147.76 124.04 C 147.08 123.51 146.10 123.63 145.57 124.32 Z M 144.94 125.13 L 144.33 125.92 C 143.80 126.60 143.93 127.58 144.61 128.11 C 145.29 128.64 146.27 128.51 146.80 127.83 L 147.41 127.03 C 147.94 126.35 147.81 125.37 147.13 124.84 C 146.45 124.32 145.47 124.44 144.94 125.13 Z M 144.33 125.92 L 143.72 126.70 C 143.20 127.38 143.32 128.36 144.01 128.89 C 144.69 129.42 145.67 129.29 146.20 128.61 L 146.80 127.83 C 147.33 127.14 147.20 126.16 146.52 125.64 C 145.83 125.11 144.85 125.24 144.33 125.92 Z M 143.72 126.70 L 143.13 127.47 C 142.60 128.16 142.73 129.14 143.41 129.66 C 144.09 130.19 145.07 130.06 145.60 129.38 L 146.20 128.61 C 146.72 127.93 146.60 126.95 145.91 126.42 C 145.23 125.89 144.25 126.02 143.72 126.70 Z M 143.13 127.47 L 142.53 128.24 C 142.01 128.92 142.13 129.90 142.81 130.43 C 143.49 130.96 144.47 130.83 145.00 130.15 L 145.60 129.38 C 146.13 128.70 146.00 127.72 145.32 127.19 C 144.64 126.67 143.66 126.79 143.13 127.47 Z M 142.54 128.24 L 141.92 129.03 C 141.39 129.71 141.51 130.69 142.19 131.22 C 142.87 131.75 143.85 131.63 144.38 130.95 L 145.00 130.16 C 145.53 129.48 145.41 128.49 144.73 127.96 C 144.05 127.43 143.07 127.56 142.54 128.24 Z M 141.93 129.02 L 141.31 129.81 C 140.77 130.49 140.89 131.47 141.57 132.00 C 142.24 132.53 143.23 132.42 143.76 131.74 L 144.38 130.95 C 144.91 130.28 144.79 129.29 144.12 128.76 C 143.44 128.23 142.46 128.34 141.93 129.02 Z M 141.31 129.80 L 140.69 130.58 C 140.15 131.25 140.26 132.24 140.93 132.77 C 141.61 133.31 142.59 133.20 143.13 132.53 L 143.75 131.75 C 144.29 131.07 144.18 130.09 143.51 129.55 C 142.83 129.02 141.85 129.13 141.31 129.80 Z M 140.70 130.57 L 140.07 131.34 C 139.52 132.01 139.62 132.99 140.29 133.54 C 140.96 134.08 141.94 133.98 142.49 133.31 L 143.12 132.54 C 143.66 131.87 143.56 130.89 142.90 130.34 C 142.23 129.80 141.24 129.90 140.70 130.57 Z M 140.08 131.33 L 139.44 132.09 C 138.89 132.76 138.98 133.74 139.64 134.29 C 140.30 134.85 141.28 134.76 141.84 134.10 L 142.48 133.33 C 143.03 132.67 142.94 131.68 142.28 131.13 C 141.62 130.58 140.63 130.67 140.08 131.33 Z M 139.45 132.08 L 138.80 132.84 C 138.24 133.49 138.31 134.48 138.97 135.04 C 139.62 135.60 140.61 135.53 141.17 134.87 L 141.82 134.11 C 142.38 133.46 142.31 132.47 141.66 131.91 C 141.00 131.35 140.02 131.42 139.45 132.08 Z M 138.82 132.82 L 138.15 133.57 C 137.58 134.22 137.64 135.21 138.29 135.78 C 138.93 136.35 139.92 136.29 140.49 135.64 L 141.16 134.89 C 141.73 134.24 141.67 133.26 141.02 132.69 C 140.37 132.11 139.39 132.18 138.82 132.82 Z M 138.16 133.56 L 137.49 134.30 C 136.91 134.94 136.96 135.93 137.59 136.51 C 138.23 137.09 139.22 137.04 139.80 136.40 L 140.48 135.66 C 141.06 135.02 141.01 134.03 140.37 133.45 C 139.73 132.87 138.74 132.92 138.16 133.56 Z M 137.50 134.29 L 136.82 135.02 C 136.23 135.65 136.27 136.64 136.90 137.23 C 137.53 137.82 138.52 137.78 139.10 137.15 L 139.79 136.42 C 140.37 135.79 140.34 134.80 139.71 134.21 C 139.08 133.62 138.09 133.66 137.50 134.29 Z M 136.83 135.01 L 136.14 135.73 C 135.55 136.36 135.57 137.34 136.20 137.94 C 136.82 138.53 137.81 138.51 138.40 137.88 L 139.09 137.16 C 139.69 136.54 139.66 135.55 139.04 134.95 C 138.41 134.36 137.43 134.38 136.83 135.01 Z M 136.15 135.72 L 135.46 136.43 C 134.86 137.05 134.88 138.04 135.50 138.64 C 136.11 139.24 137.10 139.22 137.70 138.61 L 138.39 137.90 C 138.99 137.28 138.98 136.29 138.36 135.69 C 137.74 135.09 136.76 135.10 136.15 135.72 Z M 135.48 136.42 L 134.75 137.15 C 134.15 137.76 134.15 138.75 134.77 139.35 C 135.38 139.96 136.37 139.96 136.97 139.34 L 137.69 138.62 C 138.30 138.00 138.30 137.02 137.68 136.41 C 137.07 135.80 136.08 135.81 135.48 136.42 Z M 134.77 137.14 L 134.04 137.85 C 133.43 138.46 133.43 139.45 134.03 140.06 C 134.64 140.67 135.63 140.68 136.24 140.07 L 136.96 139.35 C 137.58 138.75 137.58 137.76 136.97 137.15 C 136.37 136.53 135.38 136.53 134.77 137.14 Z M 134.05 137.84 L 133.33 138.54 C 132.71 139.14 132.70 140.13 133.30 140.75 C 133.90 141.37 134.89 141.38 135.51 140.78 L 136.23 140.08 C 136.85 139.48 136.86 138.49 136.26 137.87 C 135.66 137.25 134.67 137.24 134.05 137.84 Z M 133.34 138.53 L 132.63 139.21 C 132.00 139.81 131.98 140.79 132.57 141.42 C 133.17 142.04 134.15 142.07 134.78 141.47 L 135.50 140.79 C 136.12 140.20 136.15 139.21 135.55 138.58 C 134.96 137.96 133.97 137.93 133.34 138.53 Z M 132.64 139.20 L 131.92 139.87 C 131.29 140.45 131.26 141.44 131.85 142.07 C 132.43 142.70 133.42 142.74 134.05 142.15 L 134.77 141.49 C 135.40 140.90 135.43 139.91 134.85 139.28 C 134.26 138.65 133.27 138.61 132.64 139.20 Z M 131.94 139.85 L 131.20 140.52 C 130.56 141.10 130.52 142.09 131.10 142.73 C 131.68 143.37 132.67 143.41 133.30 142.83 L 134.04 142.16 C 134.68 141.58 134.72 140.59 134.14 139.96 C 133.56 139.32 132.57 139.27 131.94 139.85 Z M 131.22 140.51 L 130.47 141.18 C 129.82 141.75 129.77 142.74 130.34 143.38 C 130.91 144.02 131.90 144.08 132.54 143.51 L 133.29 142.84 C 133.94 142.27 133.99 141.28 133.42 140.64 C 132.85 139.99 131.86 139.94 131.22 140.51 Z M 130.48 141.17 L 129.73 141.82 C 129.08 142.39 129.01 143.37 129.58 144.02 C 130.15 144.67 131.13 144.74 131.78 144.17 L 132.53 143.52 C 133.18 142.95 133.25 141.97 132.68 141.32 C 132.12 140.67 131.13 140.60 130.48 141.17 Z M 129.74 141.81 L 128.99 142.46 C 128.33 143.02 128.25 144.00 128.81 144.66 C 129.37 145.31 130.36 145.39 131.02 144.83 L 131.77 144.18 C 132.43 143.62 132.50 142.64 131.94 141.98 C 131.38 141.33 130.40 141.25 129.74 141.81 Z M 129.00 142.45 L 128.23 143.09 C 127.57 143.65 127.49 144.63 128.04 145.29 C 128.60 145.95 129.58 146.04 130.24 145.48 L 131.01 144.84 C 131.67 144.28 131.75 143.30 131.19 142.64 C 130.64 141.98 129.65 141.89 129.00 142.45 Z M 128.24 143.08 L 127.45 143.74 C 126.79 144.29 126.70 145.27 127.25 145.93 C 127.80 146.60 128.78 146.69 129.45 146.14 L 130.23 145.49 C 130.90 144.94 130.99 143.95 130.44 143.29 C 129.89 142.63 128.90 142.53 128.24 143.08 Z M 127.46 143.73 L 126.66 144.38 C 125.99 144.93 125.90 145.92 126.44 146.58 C 126.99 147.25 127.97 147.35 128.64 146.80 L 129.44 146.14 C 130.11 145.60 130.20 144.61 129.66 143.95 C 129.11 143.28 128.13 143.18 127.46 143.73 Z M 126.67 144.38 L 125.87 145.02 C 125.20 145.56 125.10 146.55 125.64 147.22 C 126.18 147.89 127.16 147.99 127.83 147.45 L 128.63 146.81 C 129.30 146.27 129.41 145.28 128.87 144.61 C 128.32 143.94 127.34 143.84 126.67 144.38 Z M 125.88 145.01 L 125.10 145.63 C 124.43 146.17 124.31 147.15 124.85 147.83 C 125.38 148.50 126.37 148.62 127.04 148.08 L 127.82 147.46 C 128.50 146.92 128.61 145.94 128.08 145.27 C 127.54 144.59 126.56 144.48 125.88 145.01 Z M 125.11 145.62 L 124.36 146.21 C 123.68 146.74 123.55 147.72 124.08 148.40 C 124.61 149.08 125.59 149.21 126.27 148.68 L 127.03 148.09 C 127.71 147.56 127.83 146.58 127.30 145.90 C 126.77 145.22 125.79 145.10 125.11 145.62 Z M 124.37 146.20 L 123.60 146.78 C 122.91 147.30 122.78 148.28 123.30 148.97 C 123.82 149.66 124.80 149.79 125.48 149.27 L 126.26 148.69 C 126.94 148.17 127.08 147.19 126.56 146.50 C 126.04 145.82 125.06 145.68 124.37 146.20 Z M 123.62 146.77 L 122.84 147.34 C 122.15 147.85 122.00 148.83 122.51 149.53 C 123.02 150.22 124.00 150.37 124.69 149.86 L 125.47 149.29 C 126.16 148.78 126.31 147.80 125.80 147.10 C 125.29 146.41 124.31 146.26 123.62 146.77 Z M 122.85 147.33 L 122.07 147.90 C 121.37 148.40 121.22 149.38 121.72 150.08 C 122.22 150.77 123.20 150.93 123.90 150.43 L 124.68 149.87 C 125.38 149.36 125.54 148.39 125.03 147.69 C 124.53 146.99 123.55 146.83 122.85 147.33 Z M 122.08 147.89 L 121.26 148.48 C 120.56 148.98 120.40 149.96 120.90 150.66 C 121.40 151.36 122.38 151.52 123.08 151.02 L 123.90 150.43 C 124.60 149.93 124.76 148.95 124.26 148.25 C 123.75 147.55 122.78 147.39 122.08 147.89 Z M 121.26 148.48 L 120.41 149.09 C 119.71 149.60 119.55 150.57 120.05 151.27 C 120.55 151.97 121.53 152.13 122.23 151.63 L 123.08 151.02 C 123.78 150.51 123.94 149.54 123.44 148.84 C 122.93 148.14 121.96 147.98 121.26 148.48 Z M 120.40 149.10 L 119.63 149.66 C 118.93 150.16 118.78 151.14 119.28 151.84 C 119.79 152.54 120.77 152.69 121.47 152.18 L 122.23 151.62 C 122.93 151.12 123.09 150.14 122.58 149.44 C 122.07 148.75 121.10 148.59 120.40 149.10 Z M 119.62 149.66 L 118.82 150.26 C 118.12 150.77 117.97 151.74 118.48 152.44 C 118.99 153.13 119.97 153.28 120.66 152.77 L 121.47 152.18 C 122.17 151.67 122.32 150.69 121.81 150.00 C 121.30 149.30 120.32 149.15 119.62 149.66 Z M 118.81 150.26 L 117.98 150.88 C 117.29 151.39 117.15 152.37 117.66 153.06 C 118.17 153.75 119.15 153.90 119.84 153.38 L 120.67 152.77 C 121.36 152.25 121.51 151.27 120.99 150.58 C 120.48 149.89 119.50 149.75 118.81 150.26 Z M 117.97 150.88 L 117.15 151.50 C 116.46 152.02 116.32 153.00 116.84 153.69 C 117.36 154.38 118.34 154.52 119.03 154.00 L 119.85 153.37 C 120.54 152.86 120.68 151.88 120.16 151.19 C 119.64 150.50 118.66 150.36 117.97 150.88 Z M 117.14 151.51 L 116.34 152.13 C 115.65 152.65 115.52 153.63 116.05 154.31 C 116.57 155.00 117.55 155.13 118.24 154.60 L 119.04 153.99 C 119.72 153.46 119.85 152.48 119.33 151.80 C 118.80 151.12 117.82 150.99 117.14 151.51 Z M 116.32 152.14 L 115.48 152.80 C 114.80 153.34 114.68 154.32 115.21 155.00 C 115.75 155.67 116.73 155.79 117.41 155.26 L 118.25 154.59 C 118.93 154.06 119.05 153.08 118.51 152.40 C 117.98 151.72 117.00 151.60 116.32 152.14 Z M 115.45 152.83 L 114.63 153.50 C 113.96 154.05 113.87 155.03 114.41 155.70 C 114.96 156.37 115.95 156.46 116.61 155.91 L 117.43 155.24 C 118.10 154.69 118.19 153.70 117.65 153.04 C 117.10 152.37 116.11 152.28 115.45 152.83 Z M 114.58 153.54 L 113.83 154.21 C 113.19 154.78 113.13 155.77 113.70 156.41 C 114.28 157.05 115.26 157.11 115.91 156.54 L 116.66 155.87 C 117.30 155.30 117.36 154.31 116.79 153.67 C 116.21 153.03 115.23 152.97 114.58 153.54 Z M 113.77 154.26 L 113.10 154.93 C 112.49 155.54 112.48 156.53 113.09 157.14 C 113.70 157.75 114.69 157.75 115.30 157.15 L 115.97 156.48 C 116.58 155.87 116.59 154.88 115.98 154.27 C 115.37 153.66 114.38 153.66 113.77 154.26 Z M 113.02 155.01 L 112.43 155.70 C 111.86 156.35 111.93 157.33 112.58 157.90 C 113.23 158.47 114.22 158.40 114.78 157.75 L 115.38 157.06 C 115.94 156.41 115.88 155.43 115.22 154.86 C 114.57 154.30 113.59 154.36 113.02 155.01 Z M 112.32 155.83 L 111.66 156.79 C 111.17 157.50 111.35 158.47 112.06 158.96 C 112.76 159.45 113.74 159.28 114.23 158.57 L 114.89 157.61 C 115.38 156.90 115.20 155.93 114.49 155.44 C 113.79 154.95 112.81 155.12 112.32 155.83 Z M 111.52 157.04 L 111.10 157.99 C 110.74 158.77 111.10 159.70 111.88 160.05 C 112.67 160.40 113.59 160.05 113.95 159.26 L 114.37 158.32 C 114.72 157.53 114.37 156.61 113.58 156.25 C 112.79 155.90 111.87 156.25 111.52 157.04 Z M 110.97 158.47 L 110.88 159.33 C 110.80 160.19 111.43 160.95 112.29 161.04 C 113.15 161.12 113.91 160.49 113.99 159.63 L 114.08 158.77 C 114.16 157.92 113.53 157.15 112.67 157.07 C 111.81 156.99 111.05 157.62 110.97 158.47 Z M 111.03 160.15 L 111.34 160.82 C 111.71 161.60 112.64 161.93 113.42 161.56 C 114.20 161.20 114.54 160.26 114.17 159.49 L 113.85 158.82 C 113.48 158.04 112.55 157.70 111.77 158.07 C 110.99 158.44 110.66 159.37 111.03 160.15 Z M 111.80 161.39 L 112.46 161.90 C 113.14 162.42 114.12 162.30 114.65 161.62 C 115.17 160.93 115.05 159.95 114.37 159.43 L 113.71 158.92 C 113.03 158.39 112.05 158.52 111.52 159.20 C 110.99 159.88 111.12 160.86 111.80 161.39 Z M 112.76 162.08 L 113.69 162.51 C 114.47 162.87 115.40 162.52 115.76 161.74 C 116.12 160.96 115.77 160.03 114.99 159.67 L 114.06 159.24 C 113.28 158.88 112.35 159.23 111.99 160.01 C 111.63 160.79 111.98 161.72 112.76 162.08 Z M 113.82 162.56 L 114.95 162.95 C 115.76 163.24 116.65 162.81 116.94 162.00 C 117.22 161.18 116.79 160.29 115.98 160.01 L 114.85 159.61 C 114.04 159.33 113.15 159.76 112.87 160.57 C 112.58 161.39 113.01 162.28 113.82 162.56 Z M 114.98 162.97 L 115.99 163.29 C 116.81 163.56 117.69 163.11 117.96 162.29 C 118.23 161.47 117.78 160.59 116.96 160.32 L 115.94 160.00 C 115.12 159.73 114.24 160.18 113.98 161.00 C 113.71 161.82 114.16 162.70 114.98 162.97 Z M 116.00 163.29 L 116.96 163.61 C 117.78 163.87 118.66 163.42 118.92 162.60 C 119.19 161.78 118.74 160.90 117.92 160.63 L 116.96 160.32 C 116.13 160.06 115.25 160.51 114.99 161.33 C 114.72 162.15 115.18 163.03 116.00 163.29 Z M 116.96 163.60 L 117.93 163.92 C 118.75 164.19 119.63 163.74 119.90 162.92 C 120.17 162.10 119.72 161.22 118.90 160.95 L 117.92 160.64 C 117.10 160.37 116.22 160.82 115.95 161.64 C 115.69 162.46 116.14 163.34 116.96 163.60 Z M 117.92 163.92 L 118.89 164.24 C 119.71 164.51 120.59 164.07 120.86 163.25 C 121.13 162.43 120.69 161.55 119.87 161.28 L 118.91 160.96 C 118.09 160.68 117.20 161.13 116.93 161.95 C 116.66 162.77 117.11 163.65 117.92 163.92 Z M 118.88 164.24 L 119.81 164.55 C 120.62 164.83 121.51 164.39 121.79 163.58 C 122.07 162.76 121.63 161.87 120.81 161.60 L 119.88 161.28 C 119.07 161.00 118.18 161.44 117.90 162.25 C 117.62 163.07 118.06 163.96 118.88 164.24 Z M 119.79 164.54 L 120.75 164.89 C 121.57 165.18 122.46 164.75 122.75 163.94 C 123.04 163.13 122.61 162.23 121.80 161.95 L 120.83 161.60 C 120.02 161.31 119.13 161.74 118.84 162.55 C 118.55 163.36 118.98 164.26 119.79 164.54 Z M 120.73 164.88 L 121.69 165.24 C 122.50 165.54 123.40 165.13 123.70 164.32 C 124.00 163.52 123.59 162.62 122.79 162.31 L 121.82 161.95 C 121.02 161.65 120.12 162.06 119.81 162.87 C 119.51 163.68 119.92 164.58 120.73 164.88 Z M 121.66 165.23 L 122.57 165.59 C 123.38 165.90 124.28 165.51 124.60 164.71 C 124.92 163.91 124.52 163.00 123.72 162.68 L 122.81 162.32 C 122.01 162.01 121.10 162.40 120.78 163.20 C 120.47 164.01 120.86 164.91 121.66 165.23 Z M 122.55 165.58 L 123.45 165.95 C 124.24 166.27 125.16 165.89 125.48 165.09 C 125.81 164.30 125.43 163.38 124.63 163.06 L 123.74 162.69 C 122.94 162.36 122.03 162.75 121.70 163.54 C 121.38 164.34 121.76 165.25 122.55 165.58 Z M 123.43 165.94 L 124.32 166.31 C 125.11 166.65 126.03 166.28 126.36 165.48 C 126.70 164.69 126.32 163.77 125.53 163.44 L 124.65 163.06 C 123.85 162.73 122.94 163.10 122.60 163.89 C 122.27 164.69 122.64 165.61 123.43 165.94 Z M 124.31 166.31 L 125.17 166.68 C 125.96 167.02 126.88 166.65 127.22 165.86 C 127.56 165.07 127.19 164.15 126.40 163.81 L 125.54 163.44 C 124.75 163.10 123.83 163.47 123.49 164.26 C 123.15 165.05 123.51 165.97 124.31 166.31 Z M 125.16 166.67 L 126.05 167.07 C 126.84 167.41 127.76 167.05 128.11 166.26 C 128.45 165.47 128.09 164.55 127.30 164.21 L 126.41 163.81 C 125.62 163.47 124.70 163.83 124.35 164.62 C 124.01 165.41 124.37 166.33 125.16 166.67 Z M 126.04 167.06 L 126.97 167.48 C 127.75 167.83 128.68 167.48 129.03 166.69 C 129.38 165.90 129.03 164.98 128.24 164.63 L 127.32 164.21 C 126.53 163.86 125.61 164.21 125.25 165.00 C 124.90 165.78 125.25 166.71 126.04 167.06 Z M 126.95 167.47 L 127.91 167.91 C 128.70 168.27 129.62 167.93 129.98 167.15 C 130.34 166.36 130.00 165.44 129.22 165.08 L 128.26 164.63 C 127.47 164.27 126.55 164.62 126.19 165.40 C 125.83 166.18 126.17 167.11 126.95 167.47 Z M 127.90 167.91 L 128.81 168.34 C 129.59 168.71 130.52 168.37 130.89 167.59 C 131.26 166.81 130.93 165.88 130.15 165.51 L 129.23 165.08 C 128.45 164.71 127.52 165.05 127.15 165.83 C 126.79 166.61 127.12 167.54 127.90 167.91 Z M 128.80 168.33 L 129.68 168.76 C 130.46 169.13 131.39 168.81 131.77 168.03 C 132.14 167.26 131.82 166.32 131.04 165.95 L 130.16 165.52 C 129.38 165.14 128.45 165.47 128.07 166.25 C 127.70 167.02 128.02 167.96 128.80 168.33 Z M 129.67 168.75 L 130.57 169.20 C 131.34 169.58 132.27 169.26 132.66 168.49 C 133.04 167.72 132.72 166.78 131.95 166.40 L 131.05 165.95 C 130.28 165.57 129.34 165.89 128.96 166.66 C 128.58 167.43 128.90 168.37 129.67 168.75 Z M 130.55 169.19 L 131.46 169.65 C 132.23 170.04 133.17 169.73 133.56 168.96 C 133.94 168.19 133.64 167.25 132.87 166.86 L 131.96 166.40 C 131.19 166.01 130.25 166.32 129.87 167.09 C 129.48 167.86 129.78 168.80 130.55 169.19 Z M 131.44 169.64 L 132.35 170.11 C 133.11 170.51 134.06 170.21 134.45 169.44 C 134.85 168.68 134.55 167.73 133.79 167.34 L 132.88 166.87 C 132.11 166.47 131.17 166.77 130.78 167.54 C 130.38 168.30 130.68 169.24 131.44 169.64 Z M 132.34 170.10 L 133.23 170.58 C 133.99 170.98 134.94 170.69 135.34 169.93 C 135.75 169.17 135.46 168.22 134.69 167.82 L 133.80 167.34 C 133.04 166.94 132.09 167.23 131.69 167.99 C 131.28 168.75 131.57 169.70 132.34 170.10 Z M 133.22 170.57 L 134.09 171.05 C 134.85 171.46 135.80 171.18 136.21 170.42 C 136.62 169.66 136.34 168.71 135.58 168.30 L 134.71 167.83 C 133.95 167.41 133.00 167.69 132.59 168.45 C 132.18 169.21 132.46 170.16 133.22 170.57 Z M 134.08 171.04 L 134.95 171.52 C 135.70 171.94 136.65 171.67 137.07 170.92 C 137.49 170.16 137.22 169.21 136.47 168.79 L 135.60 168.31 C 134.85 167.89 133.89 168.16 133.47 168.91 C 133.05 169.67 133.33 170.62 134.08 171.04 Z M 134.93 171.51 L 135.79 172.01 C 136.54 172.43 137.50 172.17 137.92 171.42 C 138.35 170.68 138.09 169.72 137.34 169.29 L 136.48 168.80 C 135.73 168.37 134.78 168.63 134.35 169.38 C 133.92 170.13 134.18 171.08 134.93 171.51 Z M 135.78 172.00 L 136.64 172.50 C 137.39 172.94 138.34 172.69 138.78 171.94 C 139.21 171.20 138.96 170.24 138.22 169.81 L 137.36 169.30 C 136.61 168.87 135.66 169.12 135.22 169.86 C 134.79 170.61 135.04 171.56 135.78 172.00 Z M 136.63 172.49 L 137.49 173.01 C 138.23 173.46 139.19 173.22 139.64 172.48 C 140.08 171.74 139.84 170.78 139.10 170.34 L 138.23 169.82 C 137.50 169.37 136.54 169.61 136.09 170.35 C 135.65 171.09 135.89 172.05 136.63 172.49 Z M 137.48 173.01 L 138.32 173.52 C 139.06 173.97 140.02 173.74 140.47 173.01 C 140.92 172.27 140.69 171.31 139.96 170.86 L 139.11 170.34 C 138.38 169.89 137.42 170.12 136.97 170.86 C 136.52 171.59 136.75 172.55 137.48 173.01 Z M 138.31 173.52 L 139.15 174.04 C 139.88 174.50 140.84 174.28 141.30 173.55 C 141.76 172.82 141.54 171.85 140.81 171.39 L 139.97 170.87 C 139.24 170.41 138.28 170.63 137.82 171.36 C 137.36 172.09 137.58 173.06 138.31 173.52 Z M 139.14 174.03 L 139.98 174.57 C 140.71 175.03 141.67 174.82 142.14 174.09 C 142.60 173.37 142.39 172.40 141.66 171.94 L 140.82 171.40 C 140.09 170.94 139.13 171.15 138.66 171.88 C 138.20 172.60 138.41 173.57 139.14 174.03 Z M 139.97 174.56 L 140.81 175.11 C 141.54 175.58 142.50 175.37 142.97 174.65 C 143.44 173.93 143.24 172.96 142.51 172.49 L 141.67 171.94 C 140.95 171.48 139.98 171.68 139.51 172.40 C 139.04 173.13 139.25 174.09 139.97 174.56 Z M 140.81 175.11 L 141.65 175.66 C 142.37 176.14 143.34 175.94 143.81 175.22 C 144.29 174.50 144.09 173.53 143.37 173.05 L 142.52 172.50 C 141.80 172.02 140.83 172.22 140.36 172.94 C 139.89 173.66 140.09 174.63 140.81 175.11 Z M 141.64 175.66 L 142.48 176.22 C 143.20 176.70 144.17 176.50 144.65 175.79 C 145.13 175.07 144.93 174.10 144.22 173.62 L 143.37 173.06 C 142.66 172.58 141.69 172.77 141.21 173.49 C 140.73 174.21 140.92 175.18 141.64 175.66 Z M 142.48 176.21 L 143.30 176.77 C 144.02 177.25 144.99 177.07 145.47 176.35 C 145.95 175.64 145.77 174.67 145.05 174.18 L 144.22 173.63 C 143.51 173.14 142.54 173.33 142.06 174.05 C 141.57 174.76 141.76 175.73 142.48 176.21 Z M 143.30 176.77 L 144.12 177.33 C 144.83 177.82 145.80 177.63 146.29 176.92 C 146.78 176.21 146.59 175.24 145.88 174.75 L 145.06 174.19 C 144.35 173.70 143.38 173.88 142.89 174.60 C 142.40 175.31 142.59 176.28 143.30 176.77 Z M 144.11 177.32 L 144.93 177.89 C 145.64 178.38 146.62 178.20 147.11 177.50 C 147.60 176.79 147.42 175.81 146.71 175.32 L 145.89 174.76 C 145.18 174.27 144.21 174.44 143.72 175.15 C 143.23 175.86 143.40 176.83 144.11 177.32 Z M 144.93 177.89 L 145.75 178.46 C 146.45 178.95 147.43 178.78 147.92 178.08 C 148.41 177.37 148.24 176.40 147.54 175.90 L 146.72 175.33 C 146.01 174.83 145.04 175.01 144.54 175.71 C 144.05 176.42 144.22 177.39 144.93 177.89 Z M 145.74 178.45 L 146.56 179.03 C 147.26 179.53 148.23 179.37 148.73 178.66 C 149.23 177.96 149.07 176.99 148.36 176.49 L 147.54 175.91 C 146.84 175.41 145.87 175.57 145.37 176.28 C 144.87 176.98 145.03 177.96 145.74 178.45 Z M 146.55 179.03 L 147.36 179.61 C 148.06 180.12 149.04 179.96 149.54 179.26 C 150.04 178.56 149.88 177.58 149.18 177.08 L 148.37 176.49 C 147.67 175.99 146.69 176.15 146.19 176.85 C 145.69 177.55 145.85 178.53 146.55 179.03 Z M 147.36 179.61 L 148.15 180.19 C 148.85 180.70 149.83 180.54 150.34 179.85 C 150.84 179.15 150.69 178.17 149.99 177.67 L 149.19 177.08 C 148.49 176.58 147.52 176.73 147.01 177.43 C 146.50 178.13 146.66 179.10 147.36 179.61 Z M 148.15 180.19 L 148.95 180.77 C 149.64 181.28 150.62 181.13 151.13 180.44 C 151.64 179.74 151.49 178.77 150.80 178.26 L 150.00 177.67 C 149.30 177.16 148.32 177.31 147.81 178.00 C 147.30 178.70 147.45 179.68 148.15 180.19 Z M 148.95 180.77 L 149.75 181.36 C 150.44 181.88 151.42 181.73 151.93 181.03 C 152.44 180.34 152.30 179.36 151.60 178.85 L 150.80 178.26 C 150.11 177.75 149.13 177.89 148.62 178.59 C 148.10 179.28 148.25 180.26 148.95 180.77 Z M 149.75 181.36 L 150.56 181.96 C 151.25 182.47 152.23 182.32 152.74 181.63 C 153.25 180.94 153.10 179.96 152.41 179.45 L 151.60 178.85 C 150.91 178.34 149.93 178.49 149.42 179.18 C 148.91 179.87 149.05 180.85 149.75 181.36 Z M 150.56 181.96 L 151.37 182.56 C 152.06 183.07 153.04 182.92 153.55 182.23 C 154.06 181.53 153.91 180.56 153.22 180.04 L 152.41 179.45 C 151.71 178.93 150.74 179.08 150.23 179.78 C 149.71 180.47 149.86 181.45 150.56 181.96 Z M 151.37 182.56 L 152.18 183.16 C 152.88 183.67 153.86 183.51 154.37 182.82 C 154.88 182.12 154.72 181.15 154.03 180.64 L 153.22 180.04 C 152.52 179.53 151.54 179.68 151.03 180.38 C 150.53 181.07 150.68 182.05 151.37 182.56 Z M 152.19 183.16 L 152.97 183.73 C 153.67 184.23 154.64 184.08 155.15 183.38 C 155.66 182.68 155.50 181.71 154.81 181.20 L 154.02 180.63 C 153.33 180.13 152.35 180.28 151.84 180.98 C 151.34 181.68 151.49 182.65 152.19 183.16 Z M 152.98 183.73 L 153.77 184.30 C 154.47 184.80 155.44 184.64 155.94 183.94 C 156.45 183.25 156.29 182.27 155.59 181.77 L 154.80 181.20 C 154.10 180.69 153.12 180.85 152.62 181.55 C 152.12 182.25 152.28 183.23 152.98 183.73 Z M 153.77 184.30 L 154.57 184.88 C 155.27 185.38 156.25 185.22 156.75 184.51 C 157.25 183.81 157.09 182.84 156.39 182.34 L 155.59 181.76 C 154.88 181.26 153.91 181.42 153.41 182.12 C 152.91 182.83 153.07 183.80 153.77 184.30 Z M 154.58 184.88 L 155.39 185.46 C 156.10 185.96 157.07 185.79 157.57 185.09 C 158.07 184.39 157.90 183.41 157.20 182.91 L 156.38 182.33 C 155.68 181.83 154.71 182.00 154.21 182.70 C 153.71 183.41 153.87 184.38 154.58 184.88 Z M 155.40 185.46 L 156.23 186.05 C 156.94 186.55 157.91 186.38 158.41 185.67 C 158.91 184.97 158.74 184.00 158.03 183.50 L 157.20 182.91 C 156.49 182.41 155.52 182.58 155.02 183.29 C 154.52 183.99 154.69 184.96 155.40 185.46 Z M 156.24 186.05 L 157.09 186.65 C 157.80 187.15 158.77 186.98 159.27 186.27 C 159.76 185.57 159.59 184.59 158.88 184.10 L 158.03 183.50 C 157.32 183.00 156.35 183.17 155.85 183.88 C 155.36 184.58 155.53 185.56 156.24 186.05 Z M 157.09 186.65 L 157.91 187.22 C 158.62 187.72 159.59 187.54 160.08 186.84 C 160.58 186.13 160.40 185.16 159.70 184.66 L 158.88 184.09 C 158.17 183.60 157.20 183.77 156.71 184.48 C 156.21 185.19 156.39 186.16 157.09 186.65 Z M 157.91 187.23 L 158.73 187.79 C 159.44 188.29 160.41 188.11 160.90 187.40 C 161.39 186.69 161.22 185.72 160.51 185.23 L 159.69 184.66 C 158.99 184.17 158.01 184.35 157.52 185.05 C 157.03 185.76 157.20 186.73 157.91 187.23 Z M 158.73 187.80 L 159.56 188.37 C 160.27 188.86 161.24 188.68 161.73 187.97 C 162.22 187.26 162.04 186.29 161.34 185.80 L 160.51 185.23 C 159.80 184.74 158.83 184.91 158.34 185.62 C 157.85 186.33 158.02 187.31 158.73 187.80 Z M 159.56 188.37 L 160.40 188.94 C 161.11 189.43 162.08 189.25 162.57 188.54 C 163.06 187.83 162.88 186.86 162.17 186.37 L 161.33 185.80 C 160.62 185.31 159.65 185.49 159.16 186.20 C 158.67 186.91 158.85 187.88 159.56 188.37 Z M 160.40 188.95 L 161.23 189.52 C 161.95 190.00 162.92 189.82 163.40 189.11 C 163.89 188.40 163.71 187.42 163.00 186.94 L 162.16 186.37 C 161.45 185.88 160.48 186.06 159.99 186.78 C 159.51 187.49 159.69 188.46 160.40 188.95 Z M 161.24 189.52 L 162.07 190.08 C 162.78 190.57 163.75 190.38 164.24 189.67 C 164.72 188.96 164.54 187.98 163.82 187.50 L 162.99 186.94 C 162.28 186.45 161.31 186.64 160.82 187.35 C 160.34 188.06 160.52 189.03 161.24 189.52 Z M 162.07 190.09 L 162.90 190.64 C 163.61 191.12 164.58 190.93 165.06 190.22 C 165.54 189.50 165.36 188.53 164.64 188.05 L 163.82 187.50 C 163.10 187.01 162.13 187.20 161.65 187.92 C 161.17 188.63 161.36 189.60 162.07 190.09 Z M 162.90 190.64 L 163.76 191.22 C 164.47 191.69 165.44 191.50 165.92 190.78 C 166.40 190.07 166.21 189.10 165.49 188.62 L 164.64 188.05 C 163.92 187.57 162.95 187.76 162.47 188.48 C 161.99 189.19 162.18 190.16 162.90 190.64 Z M 163.76 191.22 L 164.61 191.78 C 165.33 192.26 166.30 192.06 166.77 191.34 C 167.25 190.62 167.05 189.65 166.33 189.18 L 165.48 188.62 C 164.77 188.14 163.80 188.34 163.32 189.06 C 162.85 189.77 163.04 190.74 163.76 191.22 Z M 164.62 191.78 L 165.45 192.33 C 166.18 192.81 167.14 192.60 167.62 191.88 C 168.09 191.16 167.89 190.19 167.17 189.72 L 166.33 189.17 C 165.61 188.70 164.64 188.90 164.17 189.62 C 163.69 190.34 163.89 191.31 164.62 191.78 Z M 165.46 192.34 L 166.29 192.88 C 167.02 193.35 167.98 193.14 168.45 192.42 C 168.92 191.69 168.71 190.73 167.99 190.26 L 167.16 189.72 C 166.43 189.25 165.47 189.46 165.00 190.18 C 164.53 190.90 164.74 191.87 165.46 192.34 Z M 166.30 192.88 L 167.13 193.41 C 167.86 193.88 168.82 193.67 169.29 192.94 C 169.75 192.21 169.54 191.25 168.81 190.78 L 167.98 190.25 C 167.26 189.79 166.29 190.00 165.83 190.73 C 165.36 191.45 165.58 192.42 166.30 192.88 Z M 167.14 193.42 L 167.97 193.94 C 168.70 194.40 169.66 194.19 170.12 193.46 C 170.58 192.73 170.37 191.76 169.64 191.30 L 168.81 190.78 C 168.08 190.32 167.11 190.54 166.65 191.26 C 166.19 191.99 166.41 192.96 167.14 193.42 Z M 167.98 193.95 L 168.82 194.47 C 169.55 194.93 170.51 194.70 170.97 193.97 C 171.42 193.24 171.20 192.28 170.47 191.82 L 169.63 191.30 C 168.90 190.84 167.93 191.07 167.48 191.80 C 167.02 192.53 167.25 193.49 167.98 193.95 Z M 168.82 194.48 L 169.68 195.00 C 170.41 195.45 171.37 195.22 171.82 194.49 C 172.27 193.75 172.05 192.79 171.31 192.34 L 170.46 191.82 C 169.73 191.36 168.76 191.59 168.31 192.33 C 167.86 193.06 168.09 194.02 168.82 194.48 Z M 169.68 195.00 L 170.54 195.52 C 171.28 195.97 172.24 195.73 172.68 195.00 C 173.13 194.26 172.90 193.30 172.16 192.85 L 171.30 192.33 C 170.57 191.89 169.61 192.12 169.16 192.86 C 168.71 193.60 168.95 194.56 169.68 195.00 Z M 170.55 195.53 L 171.41 196.04 C 172.15 196.48 173.10 196.24 173.55 195.50 C 173.99 194.76 173.75 193.81 173.01 193.36 L 172.15 192.85 C 171.41 192.40 170.45 192.65 170.01 193.39 C 169.57 194.13 169.81 195.08 170.55 195.53 Z M 171.41 196.05 L 172.28 196.56 C 173.02 196.99 173.98 196.75 174.41 196.01 C 174.85 195.26 174.61 194.31 173.86 193.87 L 173.00 193.36 C 172.26 192.92 171.30 193.17 170.86 193.91 C 170.43 194.65 170.67 195.61 171.41 196.05 Z M 172.28 196.56 L 173.15 197.06 C 173.89 197.50 174.85 197.25 175.28 196.50 C 175.72 195.76 175.47 194.80 174.72 194.37 L 173.86 193.86 C 173.11 193.43 172.16 193.68 171.72 194.42 C 171.29 195.17 171.54 196.13 172.28 196.56 Z M 173.16 197.07 L 174.02 197.57 C 174.77 198.00 175.72 197.74 176.15 196.99 C 176.58 196.25 176.33 195.29 175.58 194.86 L 174.71 194.36 C 173.97 193.93 173.01 194.19 172.58 194.94 C 172.15 195.68 172.41 196.64 173.16 197.07 Z M 174.03 197.57 L 174.91 198.07 C 175.66 198.50 176.61 198.24 177.04 197.49 C 177.47 196.74 177.20 195.78 176.45 195.36 L 175.57 194.86 C 174.82 194.43 173.87 194.69 173.44 195.44 C 173.02 196.19 173.28 197.15 174.03 197.57 Z M 174.92 198.08 L 175.80 198.57 C 176.55 199.00 177.50 198.73 177.93 197.98 C 178.35 197.23 178.08 196.27 177.33 195.85 L 176.45 195.35 C 175.70 194.93 174.74 195.20 174.32 195.95 C 173.90 196.70 174.17 197.65 174.92 198.08 Z M 175.80 198.58 L 176.68 199.07 C 177.44 199.49 178.39 199.22 178.81 198.46 C 179.23 197.71 178.96 196.76 178.20 196.34 L 177.33 195.85 C 176.57 195.43 175.62 195.70 175.20 196.45 C 174.78 197.20 175.05 198.15 175.80 198.58 Z M 176.69 199.07 L 177.56 199.55 C 178.31 199.97 179.26 199.70 179.68 198.95 C 180.10 198.19 179.83 197.24 179.08 196.82 L 178.20 196.34 C 177.45 195.92 176.50 196.19 176.08 196.94 C 175.66 197.70 175.93 198.65 176.69 199.07 Z M 177.56 199.55 L 178.43 200.03 C 179.18 200.45 180.13 200.18 180.55 199.42 C 180.97 198.67 180.70 197.72 179.94 197.30 L 179.07 196.82 C 178.32 196.40 177.37 196.68 176.95 197.43 C 176.53 198.18 176.81 199.14 177.56 199.55 Z M 178.43 200.03 L 179.29 200.51 C 180.04 200.93 180.99 200.66 181.41 199.90 C 181.83 199.15 181.56 198.20 180.80 197.78 L 179.94 197.30 C 179.19 196.88 178.24 197.16 177.82 197.91 C 177.40 198.67 177.67 199.62 178.43 200.03 Z M 179.29 200.51 L 180.18 201.01 C 180.93 201.43 181.88 201.15 182.30 200.40 C 182.72 199.65 182.45 198.69 181.70 198.27 L 180.80 197.78 C 180.05 197.36 179.10 197.63 178.68 198.38 C 178.26 199.14 178.53 200.09 179.29 200.51 Z M 180.17 201.01 L 181.08 201.51 C 181.83 201.93 182.78 201.66 183.20 200.91 C 183.63 200.15 183.36 199.20 182.60 198.78 L 181.70 198.28 C 180.95 197.85 179.99 198.12 179.57 198.88 C 179.15 199.63 179.42 200.58 180.17 201.01 Z M 181.07 201.51 L 181.96 202.01 C 182.71 202.43 183.67 202.16 184.09 201.41 C 184.51 200.65 184.25 199.70 183.49 199.28 L 182.60 198.78 C 181.85 198.36 180.90 198.62 180.47 199.38 C 180.05 200.13 180.32 201.09 181.07 201.51 Z M 181.96 202.01 L 182.83 202.50 C 183.58 202.92 184.54 202.66 184.96 201.90 C 185.39 201.15 185.12 200.19 184.37 199.77 L 183.50 199.28 C 182.74 198.85 181.79 199.12 181.36 199.87 C 180.94 200.63 181.20 201.58 181.96 202.01 Z M 182.82 202.50 L 183.68 202.98 C 184.43 203.41 185.39 203.14 185.81 202.39 C 186.24 201.63 185.97 200.68 185.22 200.25 L 184.37 199.77 C 183.62 199.34 182.66 199.61 182.23 200.36 C 181.81 201.11 182.07 202.07 182.82 202.50 Z M 183.67 202.98 L 184.50 203.45 C 185.26 203.88 186.21 203.61 186.64 202.86 C 187.07 202.11 186.81 201.15 186.05 200.72 L 185.22 200.25 C 184.47 199.82 183.51 200.09 183.08 200.84 C 182.66 201.59 182.92 202.55 183.67 202.98 Z M 184.50 203.45 L 185.39 203.96 C 186.14 204.39 187.10 204.13 187.53 203.37 C 187.96 202.62 187.70 201.66 186.95 201.23 L 186.06 200.72 C 185.30 200.29 184.35 200.56 183.92 201.31 C 183.49 202.06 183.75 203.02 184.50 203.45 Z M 185.39 203.96 L 186.27 204.47 C 187.02 204.90 187.98 204.64 188.42 203.89 C 188.85 203.14 188.59 202.18 187.84 201.74 L 186.95 201.23 C 186.20 200.80 185.24 201.06 184.81 201.81 C 184.37 202.56 184.63 203.52 185.39 203.96 Z M 186.26 204.46 L 187.13 204.97 C 187.88 205.40 188.84 205.15 189.28 204.40 C 189.72 203.65 189.46 202.69 188.71 202.25 L 187.85 201.75 C 187.10 201.31 186.13 201.56 185.70 202.31 C 185.26 203.06 185.51 204.03 186.26 204.46 Z M 187.11 204.96 L 187.96 205.46 C 188.71 205.91 189.67 205.66 190.12 204.91 C 190.56 204.17 190.32 203.20 189.57 202.76 L 188.72 202.26 C 187.98 201.81 187.01 202.06 186.57 202.80 C 186.12 203.55 186.37 204.52 187.11 204.96 Z M 187.94 205.46 L 188.77 205.96 C 189.52 206.41 190.49 206.18 190.94 205.44 C 191.39 204.69 191.16 203.72 190.41 203.27 L 189.58 202.76 C 188.84 202.31 187.87 202.55 187.42 203.29 C 186.97 204.03 187.20 205.00 187.94 205.46 Z M 188.76 205.95 L 189.63 206.50 C 190.37 206.96 191.34 206.74 191.80 206.00 C 192.26 205.26 192.04 204.29 191.30 203.83 L 190.43 203.28 C 189.69 202.82 188.72 203.04 188.26 203.78 C 187.80 204.51 188.02 205.49 188.76 205.95 Z M 189.61 206.49 L 190.50 207.06 C 191.23 207.53 192.20 207.33 192.68 206.60 C 193.15 205.87 192.94 204.89 192.21 204.42 L 191.32 203.84 C 190.59 203.37 189.62 203.58 189.14 204.31 C 188.67 205.04 188.88 206.01 189.61 206.49 Z M 190.48 207.05 L 191.34 207.62 C 192.06 208.10 193.04 207.90 193.52 207.18 C 194.00 206.46 193.80 205.48 193.08 205.00 L 192.23 204.43 C 191.50 203.95 190.53 204.14 190.05 204.87 C 189.56 205.59 189.76 206.57 190.48 207.05 Z M 191.32 207.61 L 192.12 208.16 C 192.84 208.65 193.82 208.46 194.31 207.75 C 194.80 207.03 194.62 206.05 193.90 205.56 L 193.10 205.01 C 192.38 204.52 191.40 204.70 190.91 205.42 C 190.42 206.14 190.60 207.11 191.32 207.61 Z M 192.11 208.14 L 192.85 208.66 C 193.56 209.16 194.54 208.99 195.04 208.28 C 195.54 207.57 195.36 206.59 194.66 206.10 L 193.92 205.57 C 193.21 205.08 192.23 205.25 191.73 205.96 C 191.23 206.66 191.40 207.64 192.11 208.14 Z M 192.83 208.65 L 193.67 209.26 C 194.37 209.77 195.35 209.62 195.86 208.92 C 196.37 208.22 196.22 207.23 195.52 206.72 L 194.68 206.11 C 193.98 205.60 192.99 205.75 192.48 206.45 C 191.97 207.16 192.13 208.14 192.83 208.65 Z M 193.63 209.24 L 194.40 209.83 C 195.09 210.36 196.08 210.24 196.61 209.55 C 197.14 208.86 197.01 207.87 196.33 207.34 L 195.55 206.75 C 194.87 206.22 193.88 206.34 193.35 207.03 C 192.82 207.72 192.95 208.71 193.63 209.24 Z M 194.36 209.80 L 195.10 210.42 C 195.77 210.97 196.76 210.88 197.32 210.21 C 197.87 209.55 197.78 208.55 197.11 208.00 L 196.37 207.38 C 195.70 206.82 194.71 206.91 194.15 207.58 C 193.60 208.25 193.69 209.24 194.36 209.80 Z M 195.06 210.38 L 195.80 211.04 C 196.45 211.62 197.44 211.57 198.02 210.92 C 198.60 210.27 198.55 209.28 197.90 208.70 L 197.16 208.03 C 196.51 207.45 195.51 207.51 194.93 208.16 C 194.35 208.80 194.41 209.80 195.06 210.38 Z M 195.78 211.02 L 196.51 211.71 C 197.15 212.30 198.14 212.26 198.73 211.63 C 199.33 210.99 199.29 210.00 198.66 209.40 L 197.92 208.72 C 197.29 208.13 196.29 208.16 195.70 208.80 C 195.11 209.43 195.14 210.43 195.78 211.02 Z M 196.52 211.71 L 197.27 212.41 C 197.91 213.00 198.90 212.96 199.49 212.32 C 200.08 211.69 200.04 210.69 199.41 210.10 L 198.65 209.40 C 198.01 208.81 197.02 208.85 196.43 209.49 C 195.84 210.12 195.88 211.12 196.52 211.71 Z M 197.30 212.43 L 198.06 213.10 C 198.71 213.67 199.70 213.60 200.27 212.95 C 200.85 212.30 200.78 211.31 200.13 210.74 L 199.37 210.08 C 198.72 209.50 197.73 209.57 197.16 210.22 C 196.59 210.87 196.65 211.86 197.30 212.43 Z M 198.13 213.15 L 198.93 213.78 C 199.62 214.31 200.60 214.19 201.13 213.51 C 201.67 212.83 201.54 211.84 200.86 211.31 L 200.06 210.69 C 199.38 210.15 198.40 210.27 197.86 210.95 C 197.33 211.64 197.45 212.62 198.13 213.15 Z M 199.04 213.86 L 199.92 214.43 C 200.64 214.90 201.61 214.69 202.08 213.97 C 202.55 213.25 202.35 212.28 201.63 211.81 L 200.75 211.24 C 200.03 210.76 199.06 210.97 198.59 211.69 C 198.12 212.41 198.32 213.38 199.04 213.86 Z M 200.02 214.48 L 200.86 214.95 C 201.62 215.37 202.57 215.09 202.98 214.34 C 203.40 213.58 203.13 212.63 202.37 212.22 L 201.53 211.75 C 200.77 211.33 199.82 211.60 199.40 212.36 C 198.99 213.12 199.26 214.07 200.02 214.48 Z M 200.91 214.98 L 201.59 215.32 C 202.36 215.71 203.30 215.40 203.69 214.64 C 204.08 213.87 203.78 212.93 203.01 212.54 L 202.32 212.19 C 201.55 211.80 200.61 212.11 200.22 212.88 C 199.83 213.65 200.14 214.59 200.91 214.98 Z"
      fill="black"
      fill-rule="nonzero" /></svg>