<svg xmlns="http://www.w3.org/2000/svg" width="300" height="300" viewBox="0 0 300 300">
<path d="M 108.76 136.81 L 107.71 136.23 C 106.95 135.82 106.00 136.09 105.59 136.85 C 105.17 137.60 105.45 138.55 106.20 138.97 L 107.26 139.55 C 108.01 139.96 108.96 139.69 109.38 138.93 C 109.79 138.18 109.52 137.23 108.76 136.81 Z M 107.58 136.17 L 106.60 135.74 C 105.81 135.39 104.89 135.75 104.54 136.53 C 104.19 137.32 104.55 138.25 105.34 138.59 L 106.32 139.03 C 107.11 139.38 108.03 139.02 108.38 138.23 C 108.73 137.44 108.37 136.52 107.58 136.17 Z M 106.23 135.63 L 105.38 135.48 C 104.53 135.34 103.72 135.91 103.58 136.76 C 103.44 137.61 104.01 138.42 104.86 138.56 L 105.71 138.70 C 106.56 138.85 107.36 138.28 107.51 137.43 C 107.65 136.57 107.08 135.77 106.23 135.63 Z M 104.49 135.59 L 103.86 135.87 C 103.07 136.22 102.71 137.14 103.06 137.93 C 103.41 138.72 104.33 139.08 105.12 138.73 L 105.75 138.45 C 106.54 138.10 106.90 137.18 106.55 136.39 C 106.20 135.60 105.28 135.24 104.49 135.59 Z M 103.13 136.52 L 102.75 137.18 C 102.31 137.94 102.57 138.90 103.33 139.33 C 104.08 139.76 105.04 139.50 105.47 138.75 L 105.85 138.08 C 106.29 137.33 106.03 136.37 105.27 135.94 C 104.52 135.50 103.56 135.76 103.13 136.52 Z M 102.57 137.59 L 102.34 138.55 C 102.13 139.40 102.65 140.26 103.51 140.46 C 104.36 140.67 105.21 140.15 105.42 139.29 L 105.65 138.34 C 105.85 137.49 105.33 136.63 104.48 136.43 C 103.63 136.22 102.77 136.74 102.57 137.59 Z M 102.29 138.75 L 102.16 139.87 C 102.07 140.75 102.70 141.54 103.58 141.64 C 104.46 141.73 105.24 141.10 105.34 140.22 L 105.47 139.10 C 105.56 138.22 104.93 137.43 104.05 137.33 C 103.17 137.24 102.39 137.87 102.29 138.75 Z M 102.14 139.96 L 102.08 141.12 C 102.04 142.01 102.72 142.77 103.61 142.81 C 104.50 142.86 105.25 142.18 105.30 141.29 L 105.36 140.13 C 105.41 139.25 104.73 138.49 103.84 138.44 C 102.95 138.39 102.19 139.08 102.14 139.96 Z M 102.07 141.16 L 102.04 142.15 C 102.01 143.05 102.72 143.79 103.61 143.82 C 104.50 143.85 105.25 143.15 105.28 142.26 L 105.31 141.26 C 105.34 140.36 104.64 139.62 103.74 139.59 C 102.85 139.56 102.10 140.26 102.07 141.16 Z M 102.04 142.17 L 102.02 143.15 C 102.00 144.05 102.72 144.79 103.61 144.81 C 104.51 144.82 105.25 144.11 105.26 143.21 L 105.28 142.23 C 105.30 141.34 104.59 140.60 103.69 140.58 C 102.79 140.57 102.06 141.28 102.04 142.17 Z M 102.02 143.17 L 102.01 144.15 C 102.00 145.05 102.72 145.79 103.62 145.79 C 104.52 145.80 105.25 145.08 105.26 144.18 L 105.27 143.20 C 105.28 142.30 104.55 141.57 103.66 141.56 C 102.76 141.55 102.02 142.27 102.02 143.17 Z M 102.00 144.16 L 102.00 145.17 C 102.00 146.07 102.73 146.80 103.63 146.81 C 104.53 146.81 105.26 146.08 105.26 145.18 L 105.26 144.17 C 105.27 143.27 104.54 142.54 103.64 142.54 C 102.74 142.54 102.01 143.26 102.00 144.16 Z M 102.00 145.18 L 102.00 146.15 C 102.00 147.06 102.73 147.79 103.63 147.79 C 104.53 147.79 105.26 147.06 105.26 146.15 L 105.26 145.18 C 105.26 144.27 104.53 143.54 103.63 143.54 C 102.73 143.54 102.00 144.27 102.00 145.18 Z M 102.00 146.15 L 102.00 147.05 C 102.00 147.95 102.73 148.68 103.63 148.68 C 104.53 148.68 105.26 147.95 105.26 147.05 L 105.26 146.15 C 105.26 145.25 104.53 144.52 103.63 144.52 C 102.73 144.52 102.00 145.25 102.00 146.15 Z M 102.00 147.05 L 102.00 147.99 C 102.00 148.89 102.73 149.62 103.63 149.62 C 104.53 149.62 105.26 148.89 105.26 147.99 L 105.26 147.05 C 105.26 146.15 104.53 145.42 103.63 145.42 C 102.73 145.42 102.00 146.15 102.00 147.05 Z M 102.00 147.99 L 102.00 148.98 C 102.00 149.88 102.73 150.61 103.63 150.61 C 104.53 150.61 105.26 149.88 105.26 148.98 L 105.26 147.99 C 105.26 147.09 104.53 146.36 103.63 146.36 C 102.73 146.36 102.00 147.09 102.00 147.99 Z M 102.00 148.98 L 102.00 150.03 C 102.00 150.93 102.73 151.66 103.63 151.66 C 104.53 151.66 105.26 150.93 105.26 150.03 L 105.26 148.98 C 105.26 148.08 104.53 147.35 103.63 147.35 C 102.73 147.35 102.00 148.08 102.00 148.98 Z M 102.00 150.03 L 102.00 151.13 C 102.00 152.03 102.73 152.76 103.63 152.76 C 104.53 152.76 105.26 152.03 105.26 151.13 L 105.26 150.03 C 105.26 149.13 104.53 148.40 103.63 148.40 C 102.73 148.40 102.00 149.13 102.00 150.03 Z M 102.00 151.13 L 102.00 152.14 C 102.00 153.04 102.73 153.77 103.63 153.77 C 104.53 153.77 105.26 153.04 105.26 152.14 L 105.26 151.13 C 105.26 150.23 104.53 149.50 103.63 149.50 C 102.73 149.50 102.00 150.23 102.00 151.13 Z M 102.00 152.14 L 102.00 153.05 C 102.00 153.95 102.73 154.68 103.63 154.68 C 104.53 154.68 105.26 153.95 105.26 153.05 L 105.26 152.14 C 105.26 151.24 104.53 150.51 103.63 150.52 C 102.73 150.52 102.00 151.24 102.00 152.14 Z M 102.00 153.05 L 102.00 154.00 C 102.00 154.90 102.73 155.62 103.63 155.62 C 104.53 155.62 105.26 154.89 105.26 153.99 L 105.26 153.05 C 105.26 152.15 104.53 151.42 103.63 151.42 C 102.73 151.42 102.00 152.15 102.00 153.05 Z M 102.00 154.00 L 102.00 154.97 C 102.01 155.87 102.74 156.60 103.64 156.60 C 104.53 156.60 105.26 155.87 105.26 154.97 L 105.26 153.99 C 105.26 153.09 104.53 152.37 103.63 152.37 C 102.73 152.37 102.00 153.10 102.00 154.00 Z M 102.00 154.98 L 102.01 155.98 C 102.01 156.88 102.74 157.61 103.64 157.61 C 104.54 157.61 105.27 156.88 105.26 155.98 L 105.26 154.97 C 105.26 154.07 104.53 153.34 103.63 153.34 C 102.73 153.34 102.00 154.08 102.00 154.98 Z M 102.01 155.98 L 102.01 157.02 C 102.01 157.92 102.74 158.65 103.64 158.65 C 104.54 158.64 105.27 157.91 105.27 157.01 L 105.27 155.97 C 105.26 155.07 104.53 154.35 103.63 154.35 C 102.73 154.35 102.00 155.08 102.01 155.98 Z M 102.01 157.02 L 102.01 158.09 C 102.02 158.99 102.75 159.71 103.65 159.71 C 104.55 159.71 105.28 158.97 105.27 158.07 L 105.27 157.01 C 105.27 156.11 104.53 155.38 103.63 155.39 C 102.73 155.39 102.00 156.12 102.01 157.02 Z M 102.01 158.09 L 102.02 159.18 C 102.03 160.08 102.76 160.81 103.66 160.80 C 104.56 160.80 105.29 160.06 105.28 159.16 L 105.27 158.07 C 105.27 157.17 104.53 156.44 103.63 156.45 C 102.73 156.46 102.01 157.19 102.01 158.09 Z M 102.02 159.18 L 102.03 160.16 C 102.03 161.06 102.77 161.79 103.67 161.78 C 104.57 161.77 105.30 161.04 105.29 160.14 L 105.28 159.16 C 105.27 158.26 104.54 157.53 103.64 157.54 C 102.74 157.55 102.01 158.28 102.02 159.18 Z M 102.03 160.17 L 102.04 161.10 C 102.05 162.00 102.78 162.73 103.68 162.72 C 104.58 162.71 105.31 161.97 105.30 161.07 L 105.29 160.14 C 105.28 159.24 104.54 158.51 103.64 158.52 C 102.74 158.53 102.02 159.27 102.03 160.17 Z M 102.04 161.11 L 102.05 162.06 C 102.06 162.96 102.79 163.68 103.69 163.67 C 104.59 163.66 105.32 162.93 105.31 162.03 L 105.30 161.07 C 105.29 160.17 104.55 159.45 103.65 159.46 C 102.75 159.47 102.03 160.21 102.04 161.11 Z M 102.05 162.06 L 102.06 163.03 C 102.07 163.93 102.81 164.65 103.71 164.64 C 104.61 164.63 105.33 163.90 105.32 163.00 L 105.31 162.03 C 105.30 161.13 104.56 160.40 103.66 160.42 C 102.76 160.43 102.04 161.16 102.05 162.06 Z M 102.06 163.03 L 102.07 164.02 C 102.08 164.92 102.82 165.64 103.72 165.63 C 104.62 165.62 105.34 164.88 105.33 163.98 L 105.32 163.00 C 105.30 162.10 104.57 161.38 103.67 161.39 C 102.77 161.40 102.05 162.14 102.06 163.03 Z M 102.07 164.02 L 102.09 165.03 C 102.10 165.93 102.83 166.65 103.73 166.64 C 104.63 166.63 105.35 165.89 105.34 164.99 L 105.33 163.98 C 105.32 163.09 104.58 162.37 103.68 162.38 C 102.78 162.39 102.06 163.13 102.07 164.02 Z M 102.09 165.03 L 102.10 166.06 C 102.11 166.96 102.85 167.67 103.75 167.66 C 104.64 167.65 105.36 166.91 105.35 166.02 L 105.34 164.99 C 105.33 164.09 104.59 163.37 103.69 163.39 C 102.79 163.40 102.07 164.13 102.09 165.03 Z M 102.10 166.06 L 102.11 167.10 C 102.13 168.00 102.86 168.72 103.76 168.70 C 104.66 168.69 105.38 167.96 105.36 167.06 L 105.35 166.02 C 105.34 165.12 104.60 164.40 103.70 164.41 C 102.81 164.42 102.09 165.16 102.10 166.06 Z M 102.11 167.10 L 102.13 168.16 C 102.14 169.06 102.88 169.78 103.77 169.77 C 104.67 169.75 105.39 169.02 105.38 168.12 L 105.36 167.06 C 105.35 166.16 104.61 165.44 103.72 165.46 C 102.82 165.47 102.10 166.20 102.11 167.10 Z M 102.13 168.16 L 102.14 169.21 C 102.15 170.11 102.89 170.82 103.79 170.81 C 104.68 170.80 105.40 170.06 105.39 169.17 L 105.38 168.12 C 105.36 167.22 104.63 166.51 103.73 166.52 C 102.84 166.53 102.12 167.27 102.13 168.16 Z M 102.14 169.21 L 102.16 170.16 C 102.17 171.05 102.90 171.77 103.80 171.76 C 104.70 171.75 105.41 171.01 105.40 170.12 L 105.39 169.17 C 105.38 168.27 104.64 167.56 103.75 167.57 C 102.85 167.58 102.13 168.31 102.14 169.21 Z M 102.16 170.16 L 102.17 171.12 C 102.18 172.01 102.92 172.73 103.81 172.72 C 104.71 172.71 105.42 171.97 105.41 171.08 L 105.40 170.12 C 105.39 169.22 104.65 168.50 103.76 168.52 C 102.86 168.53 102.15 169.26 102.16 170.16 Z M 102.17 171.12 L 102.18 172.09 C 102.19 172.99 102.93 173.70 103.83 173.69 C 104.72 173.68 105.44 172.94 105.42 172.05 L 105.41 171.08 C 105.40 170.18 104.66 169.46 103.77 169.48 C 102.87 169.49 102.16 170.22 102.17 171.12 Z M 102.18 172.09 L 102.20 173.08 C 102.21 173.97 102.94 174.69 103.84 174.68 C 104.73 174.66 105.45 173.93 105.44 173.03 L 105.42 172.05 C 105.41 171.15 104.68 170.44 103.78 170.45 C 102.89 170.46 102.17 171.20 102.18 172.09 Z M 102.20 173.08 L 102.21 174.08 C 102.23 174.97 102.96 175.68 103.86 175.67 C 104.75 175.66 105.46 174.92 105.45 174.03 L 105.44 173.03 C 105.42 172.14 104.69 171.42 103.79 171.44 C 102.90 171.45 102.19 172.19 102.20 173.08 Z M 102.21 174.08 L 102.23 175.08 C 102.24 175.98 102.98 176.69 103.87 176.68 C 104.77 176.66 105.48 175.93 105.47 175.03 L 105.45 174.03 C 105.44 173.13 104.70 172.42 103.81 172.43 C 102.91 172.45 102.20 173.18 102.21 174.08 Z M 102.23 175.09 L 102.25 176.10 C 102.26 176.99 103.00 177.71 103.89 177.69 C 104.78 177.68 105.50 176.94 105.48 176.05 L 105.46 175.03 C 105.45 174.14 104.71 173.43 103.82 173.44 C 102.93 173.46 102.22 174.19 102.23 175.09 Z M 102.25 176.10 L 102.27 177.13 C 102.28 178.02 103.02 178.73 103.91 178.71 C 104.80 178.70 105.51 177.96 105.50 177.07 L 105.48 176.05 C 105.46 175.15 104.73 174.44 103.84 174.46 C 102.94 174.47 102.23 175.21 102.25 176.10 Z M 102.27 177.13 L 102.29 178.16 C 102.30 179.05 103.04 179.76 103.93 179.75 C 104.82 179.73 105.53 178.99 105.52 178.10 L 105.50 177.07 C 105.48 176.17 104.74 175.47 103.85 175.48 C 102.96 175.50 102.25 176.24 102.27 177.13 Z M 102.29 178.16 L 102.31 179.20 C 102.33 180.09 103.07 180.80 103.96 180.78 C 104.85 180.76 105.56 180.03 105.54 179.14 L 105.52 178.10 C 105.50 177.20 104.76 176.50 103.87 176.52 C 102.98 176.53 102.27 177.27 102.29 178.16 Z M 102.31 179.21 L 102.33 180.23 C 102.35 181.12 103.09 181.83 103.98 181.81 C 104.87 181.79 105.58 181.05 105.56 180.16 L 105.54 179.13 C 105.52 178.24 104.78 177.53 103.89 177.55 C 103.00 177.57 102.29 178.31 102.31 179.21 Z M 102.33 180.23 L 102.36 181.21 C 102.38 182.10 103.12 182.81 104.01 182.79 C 104.90 182.77 105.61 182.03 105.58 181.13 L 105.56 180.16 C 105.54 179.26 104.80 178.56 103.91 178.58 C 103.02 178.60 102.31 179.34 102.33 180.23 Z M 102.36 181.22 L 102.38 182.20 C 102.41 183.09 103.15 183.79 104.04 183.77 C 104.93 183.75 105.63 183.01 105.61 182.12 L 105.58 181.13 C 105.56 180.24 104.82 179.54 103.93 179.56 C 103.04 179.58 102.33 180.32 102.36 181.22 Z M 102.38 182.20 L 102.41 183.19 C 102.43 184.08 103.18 184.78 104.07 184.76 C 104.96 184.73 105.66 183.99 105.64 183.10 L 105.61 182.11 C 105.59 181.22 104.84 180.52 103.95 180.54 C 103.06 180.57 102.36 181.31 102.38 182.20 Z M 102.41 183.19 L 102.44 184.18 C 102.46 185.07 103.21 185.78 104.10 185.75 C 104.99 185.73 105.69 184.98 105.66 184.09 L 105.64 183.10 C 105.61 182.21 104.87 181.51 103.98 181.53 C 103.09 181.56 102.38 182.30 102.41 183.19 Z M 102.44 184.18 L 102.47 185.18 C 102.49 186.07 103.24 186.77 104.13 186.75 C 105.02 186.72 105.72 185.98 105.69 185.09 L 105.66 184.09 C 105.64 183.20 104.90 182.50 104.00 182.52 C 103.11 182.55 102.41 183.29 102.44 184.18 Z M 102.47 185.18 L 102.50 186.18 C 102.52 187.07 103.27 187.77 104.16 187.75 C 105.05 187.72 105.75 186.98 105.72 186.09 L 105.69 185.09 C 105.67 184.19 104.92 183.49 104.03 183.52 C 103.14 183.55 102.44 184.29 102.47 185.18 Z M 102.50 186.18 L 102.53 187.19 C 102.55 188.08 103.30 188.78 104.19 188.75 C 105.08 188.72 105.78 187.98 105.75 187.09 L 105.72 186.09 C 105.70 185.19 104.95 184.49 104.06 184.52 C 103.17 184.55 102.47 185.29 102.50 186.18 Z M 102.53 187.19 L 102.56 188.19 C 102.58 189.08 103.33 189.78 104.22 189.76 C 105.11 189.73 105.81 188.99 105.78 188.10 L 105.75 187.09 C 105.73 186.20 104.98 185.50 104.09 185.52 C 103.20 185.55 102.50 186.29 102.53 187.19 Z M 102.56 188.19 L 102.59 189.20 C 102.61 190.09 103.36 190.80 104.25 190.77 C 105.14 190.74 105.84 190.00 105.81 189.11 L 105.78 188.10 C 105.76 187.21 105.01 186.50 104.12 186.53 C 103.23 186.56 102.53 187.30 102.56 188.19 Z M 102.59 189.20 L 102.61 190.22 C 102.64 191.11 103.38 191.81 104.28 191.78 C 105.17 191.76 105.87 191.01 105.84 190.12 L 105.81 189.11 C 105.79 188.22 105.04 187.52 104.15 187.54 C 103.26 187.57 102.56 188.31 102.59 189.20 Z M 102.61 190.22 L 102.64 191.23 C 102.67 192.12 103.41 192.83 104.30 192.80 C 105.20 192.78 105.90 192.03 105.87 191.14 L 105.84 190.12 C 105.82 189.23 105.07 188.53 104.18 188.56 C 103.29 188.58 102.59 189.32 102.61 190.22 Z M 102.64 191.23 L 102.67 192.23 C 102.70 193.13 103.44 193.83 104.33 193.80 C 105.22 193.78 105.92 193.04 105.90 192.15 L 105.87 191.14 C 105.85 190.25 105.10 189.55 104.21 189.57 C 103.32 189.60 102.62 190.34 102.64 191.23 Z M 102.67 192.23 L 102.70 193.22 C 102.72 194.11 103.46 194.82 104.35 194.79 C 105.25 194.77 105.95 194.03 105.93 193.13 L 105.90 192.15 C 105.88 191.26 105.13 190.55 104.24 190.58 C 103.35 190.60 102.65 191.34 102.67 192.23 Z M 102.70 193.22 L 102.72 194.21 C 102.75 195.10 103.49 195.81 104.38 195.78 C 105.27 195.76 105.98 195.02 105.95 194.13 L 105.93 193.14 C 105.90 192.24 105.16 191.54 104.27 191.56 C 103.38 191.59 102.67 192.33 102.70 193.22 Z M 102.72 194.21 L 102.75 195.20 C 102.77 196.09 103.51 196.80 104.40 196.78 C 105.30 196.75 106.00 196.01 105.98 195.12 L 105.95 194.13 C 105.93 193.24 105.19 192.53 104.30 192.55 C 103.40 192.58 102.70 193.32 102.72 194.21 Z M 102.75 195.20 L 102.77 196.20 C 102.80 197.09 103.54 197.79 104.43 197.77 C 105.32 197.75 106.02 197.01 106.00 196.12 L 105.98 195.12 C 105.95 194.23 105.21 193.52 104.32 193.55 C 103.43 193.57 102.73 194.31 102.75 195.20 Z M 102.77 196.20 L 102.80 197.19 C 102.82 198.09 103.56 198.79 104.45 198.77 C 105.34 198.75 106.05 198.01 106.03 197.11 L 106.00 196.12 C 105.98 195.22 105.24 194.52 104.35 194.54 C 103.46 194.56 102.75 195.30 102.77 196.20 Z M 102.80 197.19 L 102.82 198.19 C 102.84 199.08 103.58 199.79 104.48 199.77 C 105.37 199.75 106.07 199.01 106.05 198.11 L 106.03 197.11 C 106.00 196.22 105.26 195.52 104.37 195.54 C 103.48 195.56 102.78 196.30 102.80 197.19 Z M 102.82 198.19 L 102.85 199.20 C 102.87 200.09 103.61 200.79 104.50 200.77 C 105.39 200.75 106.10 200.01 106.08 199.12 L 106.05 198.11 C 106.03 197.22 105.29 196.52 104.40 196.54 C 103.51 196.56 102.80 197.30 102.82 198.19 Z M 102.85 199.20 L 102.87 200.20 C 102.89 201.09 103.63 201.80 104.53 201.77 C 105.42 201.75 106.12 201.01 106.10 200.12 L 106.08 199.12 C 106.05 198.22 105.31 197.52 104.42 197.54 C 103.53 197.56 102.82 198.30 102.85 199.20 Z M 102.87 200.20 L 102.90 201.21 C 102.92 202.10 103.66 202.80 104.55 202.78 C 105.44 202.76 106.15 202.02 106.13 201.13 L 106.10 200.12 C 106.08 199.23 105.34 198.52 104.45 198.55 C 103.55 198.57 102.85 199.31 102.87 200.20 Z M 102.90 201.21 L 102.92 202.22 C 102.94 203.11 103.69 203.81 104.58 203.79 C 105.47 203.77 106.17 203.03 106.15 202.13 L 106.13 201.13 C 106.10 200.23 105.36 199.53 104.47 199.55 C 103.58 199.57 102.87 200.32 102.90 201.21 Z M 102.92 202.22 L 102.95 203.23 C 102.97 204.12 103.71 204.82 104.60 204.80 C 105.50 204.78 106.20 204.03 106.18 203.14 L 106.15 202.13 C 106.13 201.24 105.39 200.54 104.49 200.56 C 103.60 200.58 102.90 201.32 102.92 202.22 Z M 102.95 203.23 L 102.98 204.23 C 103.00 205.13 103.74 205.83 104.63 205.81 C 105.52 205.78 106.23 205.04 106.20 204.15 L 106.18 203.14 C 106.15 202.25 105.41 201.55 104.52 201.57 C 103.63 201.59 102.92 202.34 102.95 203.23 Z M 102.98 204.23 L 103.00 205.23 C 103.03 206.12 103.77 206.82 104.66 206.80 C 105.55 206.77 106.26 206.03 106.23 205.14 L 106.20 204.15 C 106.18 203.25 105.44 202.55 104.55 202.58 C 103.65 202.60 102.95 203.34 102.98 204.23 Z M 103.00 205.23 L 103.03 206.23 C 103.06 207.12 103.80 207.82 104.69 207.79 C 105.58 207.77 106.28 207.03 106.26 206.13 L 106.23 205.14 C 106.21 204.25 105.46 203.54 104.57 203.57 C 103.68 203.59 102.98 204.34 103.00 205.23 Z M 103.03 206.23 L 103.06 207.22 C 103.08 208.11 103.83 208.82 104.72 208.79 C 105.61 208.77 106.31 208.02 106.29 207.13 L 106.26 206.13 C 106.23 205.24 105.49 204.54 104.60 204.56 C 103.71 204.59 103.00 205.33 103.03 206.23 Z M 103.06 207.22 L 103.09 208.22 C 103.11 209.11 103.86 209.82 104.75 209.79 C 105.64 209.76 106.34 209.02 106.32 208.13 L 106.29 207.13 C 106.26 206.24 105.52 205.54 104.63 205.56 C 103.73 205.59 103.03 206.33 103.06 207.22 Z M 103.09 208.22 L 103.12 209.22 C 103.14 210.11 103.89 210.81 104.78 210.79 C 105.67 210.76 106.37 210.02 106.35 209.13 L 106.32 208.13 C 106.29 207.24 105.55 206.53 104.66 206.56 C 103.76 206.59 103.06 207.33 103.09 208.22 Z M 103.12 209.22 L 103.15 210.22 C 103.17 211.11 103.92 211.81 104.81 211.79 C 105.70 211.76 106.40 211.02 106.38 210.13 L 106.35 209.13 C 106.32 208.23 105.58 207.53 104.68 207.56 C 103.79 207.58 103.09 208.33 103.12 209.22 Z M 103.15 210.22 L 103.18 211.22 C 103.20 212.11 103.95 212.82 104.84 212.79 C 105.73 212.76 106.43 212.02 106.41 211.13 L 106.38 210.13 C 106.35 209.23 105.61 208.53 104.71 208.56 C 103.82 208.58 103.12 209.33 103.15 210.22 Z M 103.18 211.22 L 103.20 212.22 C 103.23 213.12 103.97 213.82 104.87 213.79 C 105.76 213.77 106.46 213.02 106.43 212.13 L 106.41 211.13 C 106.38 210.24 105.64 209.53 104.74 209.56 C 103.85 209.59 103.15 210.33 103.18 211.22 Z M 103.20 212.22 L 103.23 213.23 C 103.26 214.12 104.00 214.82 104.89 214.79 C 105.79 214.77 106.49 214.02 106.46 213.13 L 106.43 212.13 C 106.41 211.24 105.67 210.54 104.77 210.56 C 103.88 210.59 103.18 211.33 103.20 212.22 Z M 103.23 213.22 L 103.26 214.23 C 103.29 215.12 104.03 215.82 104.92 215.80 C 105.81 215.77 106.52 215.03 106.49 214.14 L 106.46 213.13 C 106.44 212.24 105.69 211.54 104.80 211.56 C 103.91 211.59 103.21 212.33 103.23 213.22 Z M 103.26 214.23 L 103.29 215.23 C 103.31 216.12 104.06 216.82 104.95 216.80 C 105.84 216.77 106.54 216.03 106.52 215.14 L 106.49 214.14 C 106.47 213.24 105.72 212.54 104.83 212.57 C 103.94 212.59 103.24 213.33 103.26 214.23 Z M 103.29 215.23 L 103.32 216.23 C 103.34 217.12 104.08 217.83 104.98 217.80 C 105.87 217.78 106.57 217.04 106.55 216.14 L 106.52 215.14 C 106.50 214.25 105.75 213.54 104.86 213.57 C 103.97 213.59 103.27 214.34 103.29 215.23 Z M 103.32 216.23 L 103.34 217.27 C 103.37 218.17 104.11 218.87 105.00 218.85 C 105.89 218.82 106.60 218.08 106.57 217.19 L 106.55 216.14 C 106.52 215.25 105.78 214.55 104.89 214.57 C 104.00 214.60 103.29 215.34 103.32 216.23 Z M 103.34 217.27 L 103.37 218.32 C 103.39 219.21 104.14 219.92 105.03 219.89 C 105.92 219.87 106.62 219.13 106.60 218.24 L 106.57 217.19 C 106.55 216.30 105.81 215.59 104.92 215.62 C 104.03 215.64 103.32 216.38 103.34 217.27 Z M 103.37 218.32 L 103.40 219.36 C 103.42 220.26 104.16 220.96 105.05 220.94 C 105.95 220.92 106.65 220.17 106.63 219.28 L 106.60 218.24 C 106.58 217.35 105.84 216.64 104.95 216.66 C 104.05 216.69 103.35 217.43 103.37 218.32 Z M 103.40 219.36 L 103.42 220.40 C 103.44 221.29 104.19 222.00 105.08 221.98 C 105.97 221.95 106.68 221.21 106.65 220.32 L 106.63 219.28 C 106.61 218.39 105.86 217.68 104.97 217.71 C 104.08 217.73 103.37 218.47 103.40 219.36 Z M 103.42 220.40 L 103.45 221.43 C 103.47 222.32 104.21 223.03 105.10 223.01 C 106.00 222.98 106.70 222.24 106.68 221.35 L 106.65 220.32 C 106.63 219.43 105.89 218.72 105.00 218.74 C 104.11 218.77 103.40 219.51 103.42 220.40 Z M 103.45 221.43 L 103.47 222.45 C 103.49 223.34 104.24 224.05 105.13 224.02 C 106.02 224.00 106.73 223.26 106.70 222.37 L 106.68 221.35 C 106.66 220.46 105.92 219.75 105.02 219.77 C 104.13 219.80 103.43 220.54 103.45 221.43 Z M 103.47 222.45 L 103.50 223.46 C 103.52 224.35 104.26 225.05 105.15 225.03 C 106.05 225.01 106.75 224.27 106.73 223.37 L 106.70 222.37 C 106.68 221.48 105.94 220.77 105.05 220.79 C 104.16 220.82 103.45 221.56 103.47 222.45 Z M 103.50 223.46 L 103.52 224.45 C 103.55 225.34 104.29 226.05 105.18 226.02 C 106.07 226.00 106.78 225.26 106.75 224.37 L 106.73 223.37 C 106.71 222.48 105.96 221.78 105.07 221.80 C 104.18 221.82 103.47 222.56 103.50 223.46 Z M 103.52 224.45 L 103.55 225.42 C 103.57 226.32 104.31 227.02 105.21 227.00 C 106.10 226.97 106.80 226.23 106.78 225.34 L 106.75 224.36 C 106.73 223.47 105.99 222.77 105.10 222.79 C 104.20 222.81 103.50 223.56 103.52 224.45 Z M 103.55 225.43 L 103.57 226.38 C 103.60 227.27 104.34 227.98 105.23 227.95 C 106.13 227.93 106.83 227.19 106.81 226.29 L 106.78 225.34 C 106.76 224.45 106.01 223.74 105.12 223.77 C 104.23 223.79 103.52 224.53 103.55 225.43 Z M 103.57 226.38 L 103.60 227.32 C 103.63 228.21 104.37 228.91 105.26 228.89 C 106.16 228.86 106.86 228.12 106.83 227.23 L 106.81 226.29 C 106.78 225.40 106.04 224.70 105.14 224.72 C 104.25 224.75 103.55 225.49 103.57 226.38 Z M 103.60 227.32 L 103.63 228.23 C 103.66 229.13 104.40 229.83 105.29 229.80 C 106.19 229.77 106.89 229.03 106.86 228.14 L 106.83 227.22 C 106.81 226.33 106.06 225.63 105.17 225.66 C 104.28 225.68 103.57 226.43 103.60 227.32 Z M 103.63 228.24 L 103.66 229.36 C 103.69 230.25 104.44 230.95 105.33 230.92 C 106.23 230.89 106.93 230.15 106.90 229.25 L 106.86 228.13 C 106.83 227.24 106.08 226.54 105.19 226.57 C 104.30 226.60 103.60 227.34 103.63 228.24 Z M 103.66 229.36 L 103.70 230.45 C 103.73 231.34 104.48 232.04 105.37 232.01 C 106.27 231.98 106.97 231.23 106.93 230.34 L 106.90 229.25 C 106.87 228.36 106.12 227.66 105.22 227.69 C 104.33 227.72 103.63 228.47 103.66 229.36 Z M 103.70 230.45 L 103.74 231.50 C 103.77 232.40 104.52 233.09 105.42 233.06 C 106.31 233.03 107.01 232.28 106.97 231.38 L 106.93 230.33 C 106.90 229.44 106.15 228.74 105.26 228.78 C 104.37 228.81 103.67 229.56 103.70 230.45 Z M 103.74 231.51 L 103.78 232.53 C 103.82 233.42 104.57 234.11 105.46 234.08 C 106.35 234.05 107.05 233.29 107.01 232.40 L 106.97 231.38 C 106.94 230.49 106.19 229.79 105.29 229.83 C 104.40 229.86 103.71 230.61 103.74 231.51 Z M 103.78 232.53 L 103.82 233.52 C 103.86 234.42 104.61 235.11 105.50 235.07 C 106.40 235.04 107.09 234.28 107.05 233.39 L 107.01 232.40 C 106.98 231.51 106.22 230.81 105.33 230.85 C 104.44 230.88 103.74 231.64 103.78 232.53 Z M 103.82 233.53 L 103.86 234.49 C 103.90 235.39 104.66 236.08 105.55 236.04 C 106.44 236.00 107.13 235.25 107.09 234.35 L 107.05 233.39 C 107.02 232.49 106.26 231.80 105.37 231.84 C 104.48 231.88 103.78 232.63 103.82 233.53 Z M 103.86 234.50 L 103.91 235.44 C 103.94 236.33 104.70 237.02 105.59 236.99 C 106.49 236.95 107.18 236.19 107.14 235.30 L 107.09 234.35 C 107.06 233.46 106.30 232.77 105.41 232.81 C 104.51 232.85 103.82 233.60 103.86 234.50 Z M 103.91 235.44 L 103.95 236.37 C 103.99 237.26 104.74 237.95 105.64 237.91 C 106.53 237.87 107.22 237.12 107.18 236.22 L 107.14 235.30 C 107.10 234.40 106.34 233.71 105.45 233.75 C 104.55 233.79 103.86 234.55 103.91 235.44 Z M 103.95 236.37 L 103.99 237.28 C 104.03 238.18 104.79 238.87 105.68 238.83 C 106.57 238.78 107.26 238.03 107.22 237.13 L 107.18 236.22 C 107.14 235.33 106.38 234.64 105.49 234.68 C 104.60 234.72 103.91 235.48 103.95 236.37 Z M 103.99 237.29 L 104.04 238.28 C 104.08 239.18 104.84 239.87 105.73 239.82 C 106.62 239.78 107.31 239.02 107.27 238.13 L 107.22 237.13 C 107.18 236.24 106.42 235.55 105.53 235.59 C 104.64 235.64 103.95 236.39 103.99 237.29 Z M 104.04 238.29 L 104.09 239.32 C 104.13 240.22 104.89 240.90 105.78 240.86 C 106.67 240.82 107.36 240.06 107.32 239.17 L 107.27 238.13 C 107.23 237.24 106.47 236.55 105.58 236.59 C 104.68 236.63 103.99 237.39 104.04 238.29 Z M 104.09 239.32 L 104.14 240.35 C 104.18 241.24 104.94 241.93 105.83 241.89 C 106.72 241.84 107.41 241.08 107.37 240.19 L 107.32 239.17 C 107.28 238.27 106.52 237.59 105.62 237.63 C 104.73 237.67 104.04 238.43 104.09 239.32 Z M 104.14 240.35 L 104.19 241.36 C 104.23 242.25 104.99 242.94 105.88 242.89 C 106.77 242.85 107.46 242.09 107.42 241.20 L 107.37 240.19 C 107.32 239.30 106.57 238.61 105.67 238.65 C 104.78 238.70 104.09 239.46 104.14 240.35 Z M 104.19 241.36 L 104.24 242.36 C 104.28 243.25 105.04 243.94 105.93 243.89 C 106.83 243.85 107.51 243.09 107.47 242.19 L 107.42 241.20 C 107.37 240.31 106.61 239.62 105.72 239.66 C 104.83 239.71 104.14 240.47 104.19 241.36 Z M 104.24 242.36 L 104.29 243.34 C 104.33 244.23 105.09 244.92 105.98 244.87 C 106.88 244.83 107.56 244.07 107.52 243.18 L 107.47 242.19 C 107.42 241.30 106.66 240.61 105.77 240.66 C 104.88 240.70 104.19 241.46 104.24 242.36 Z M 104.29 243.34 L 104.34 244.31 C 104.38 245.20 105.14 245.89 106.03 245.84 C 106.93 245.80 107.61 245.04 107.57 244.14 L 107.52 243.17 C 107.47 242.28 106.71 241.59 105.82 241.64 C 104.93 241.69 104.24 242.45 104.29 243.34 Z M 104.34 244.31 L 104.39 245.27 C 104.43 246.16 105.19 246.85 106.09 246.80 C 106.98 246.75 107.66 245.99 107.62 245.10 L 107.57 244.14 C 107.52 243.25 106.76 242.56 105.87 242.61 C 104.97 242.66 104.29 243.42 104.34 244.31 Z M 104.39 245.27 L 104.44 246.28 C 104.49 247.17 105.25 247.86 106.14 247.81 C 107.03 247.76 107.72 247.00 107.67 246.11 L 107.62 245.10 C 107.57 244.21 106.81 243.52 105.92 243.57 C 105.02 243.61 104.34 244.38 104.39 245.27 Z M 104.44 246.28 L 104.49 247.31 C 104.54 248.20 105.30 248.89 106.20 248.84 C 107.09 248.79 107.77 248.03 107.73 247.14 L 107.67 246.11 C 107.62 245.22 106.86 244.53 105.97 244.58 C 105.08 244.63 104.39 245.39 104.44 246.28 Z M 104.49 247.31 L 104.55 248.33 C 104.60 249.22 105.36 249.91 106.25 249.86 C 107.15 249.81 107.83 249.05 107.78 248.15 L 107.73 247.14 C 107.68 246.24 106.91 245.56 106.02 245.61 C 105.13 245.66 104.45 246.42 104.49 247.31 Z M 104.55 248.33 L 104.60 249.33 C 104.65 250.22 105.42 250.91 106.31 250.86 C 107.20 250.81 107.89 250.05 107.84 249.15 L 107.78 248.15 C 107.73 247.26 106.97 246.58 106.08 246.62 C 105.18 246.67 104.50 247.44 104.55 248.33 Z M 104.60 249.33 L 104.66 250.32 C 104.71 251.22 105.47 251.90 106.37 251.85 C 107.26 251.80 107.94 251.04 107.89 250.14 L 107.84 249.15 C 107.79 248.26 107.02 247.58 106.13 247.63 C 105.24 247.68 104.55 248.44 104.60 249.33 Z M 104.66 250.32 L 104.71 251.30 C 104.76 252.19 105.53 252.88 106.42 252.83 C 107.31 252.78 108.00 252.01 107.95 251.12 L 107.89 250.14 C 107.84 249.25 107.08 248.57 106.18 248.62 C 105.29 248.67 104.61 249.43 104.66 250.32 Z M 104.71 251.30 L 104.77 252.27 C 104.82 253.16 105.59 253.84 106.48 253.79 C 107.37 253.74 108.05 252.98 108.00 252.09 L 107.95 251.12 C 107.90 250.23 107.13 249.54 106.24 249.60 C 105.35 249.65 104.66 250.41 104.71 251.30 Z M 104.77 252.27 L 104.83 253.27 C 104.88 254.16 105.64 254.84 106.54 254.79 C 107.43 254.74 108.11 253.97 108.06 253.08 L 108.00 252.09 C 107.95 251.19 107.18 250.51 106.29 250.56 C 105.40 250.61 104.72 251.38 104.77 252.27 Z M 104.83 253.27 L 104.89 254.30 C 104.94 255.19 105.70 255.87 106.60 255.82 C 107.49 255.77 108.17 255.01 108.12 254.11 L 108.06 253.08 C 108.01 252.19 107.24 251.51 106.35 251.56 C 105.46 251.61 104.78 252.38 104.83 253.27 Z M 104.89 254.30 L 104.95 255.32 C 105.00 256.21 105.76 256.89 106.66 256.84 C 107.55 256.79 108.23 256.03 108.18 255.13 L 108.12 254.11 C 108.07 253.22 107.30 252.54 106.41 252.59 C 105.52 252.64 104.84 253.41 104.89 254.30 Z M 104.95 255.32 L 105.01 256.33 C 105.06 257.22 105.82 257.90 106.71 257.85 C 107.61 257.80 108.29 257.03 108.24 256.14 L 108.18 255.13 C 108.13 254.24 107.36 253.56 106.47 253.61 C 105.58 253.66 104.90 254.43 104.95 255.32 Z M 105.00 256.32 L 105.06 257.32 C 105.11 258.21 105.88 258.89 106.77 258.84 C 107.66 258.79 108.34 258.02 108.29 257.13 L 108.24 256.14 C 108.19 255.25 107.42 254.57 106.53 254.62 C 105.64 254.67 104.95 255.43 105.00 256.32 Z M 105.06 257.31 L 105.12 258.29 C 105.17 259.18 105.93 259.86 106.82 259.81 C 107.72 259.76 108.40 259.00 108.35 258.11 L 108.29 257.13 C 108.24 256.24 107.48 255.56 106.59 255.61 C 105.69 255.66 105.01 256.42 105.06 257.31 Z M 105.12 258.28 L 105.17 259.24 C 105.22 260.13 105.98 260.82 106.87 260.77 C 107.76 260.72 108.45 259.96 108.40 259.06 L 108.35 258.11 C 108.30 257.22 107.54 256.53 106.64 256.58 C 105.75 256.63 105.07 257.39 105.12 258.28 Z M 105.17 259.24 L 105.22 260.27 C 105.27 261.16 106.03 261.85 106.92 261.80 C 107.82 261.75 108.50 260.99 108.45 260.10 L 108.40 259.07 C 108.35 258.18 107.59 257.49 106.70 257.54 C 105.81 257.58 105.12 258.35 105.17 259.24 Z M 105.22 260.27 L 105.28 261.30 C 105.32 262.19 106.08 262.87 106.97 262.83 C 107.86 262.78 108.55 262.02 108.51 261.13 L 108.45 260.10 C 108.41 259.21 107.65 258.53 106.76 258.57 C 105.86 258.62 105.18 259.38 105.22 260.27 Z M 105.28 261.30 L 105.33 262.30 C 105.37 263.20 106.13 263.88 107.02 263.84 C 107.91 263.79 108.60 263.03 108.55 262.14 L 108.50 261.13 C 108.46 260.24 107.70 259.56 106.81 259.60 C 105.92 259.65 105.23 260.41 105.28 261.30 Z M 105.33 262.31 L 105.38 263.30 C 105.43 264.19 106.19 264.87 107.08 264.82 C 107.97 264.78 108.65 264.02 108.60 263.13 L 108.55 262.14 C 108.51 261.25 107.75 260.57 106.86 260.61 C 105.97 260.66 105.28 261.42 105.33 262.31 Z M 105.38 263.30 L 105.43 264.27 C 105.48 265.16 106.24 265.84 107.13 265.79 C 108.02 265.75 108.70 264.99 108.65 264.10 L 108.60 263.13 C 108.55 262.24 107.80 261.56 106.91 261.60 C 106.02 261.65 105.34 262.41 105.38 263.30 Z M 105.44 264.28 L 105.49 265.23 C 105.54 266.12 106.30 266.80 107.19 266.75 C 108.08 266.70 108.76 265.93 108.71 265.05 L 108.65 264.09 C 108.60 263.20 107.84 262.53 106.95 262.58 C 106.06 262.63 105.39 263.39 105.44 264.28 Z M 105.49 265.24 L 105.56 266.26 C 105.61 267.15 106.38 267.82 107.26 267.77 C 108.15 267.71 108.82 266.95 108.77 266.06 L 108.70 265.04 C 108.65 264.15 107.89 263.48 107.00 263.53 C 106.11 263.59 105.44 264.35 105.49 265.24 Z M 105.56 266.27 L 105.63 267.28 C 105.69 268.17 106.46 268.83 107.35 268.77 C 108.23 268.71 108.90 267.94 108.84 267.06 L 108.77 266.05 C 108.70 265.16 107.94 264.49 107.05 264.56 C 106.16 264.62 105.50 265.39 105.56 266.27 Z M 105.63 267.30 L 105.71 268.29 C 105.79 269.18 106.56 269.84 107.44 269.76 C 108.33 269.69 108.99 268.92 108.91 268.04 L 108.83 267.04 C 108.76 266.16 107.99 265.50 107.10 265.57 C 106.22 265.64 105.56 266.41 105.63 267.30 Z M 105.72 268.31 L 105.81 269.30 C 105.89 270.18 106.67 270.83 107.56 270.75 C 108.44 270.66 109.09 269.88 109.00 269.00 L 108.91 268.02 C 108.83 267.13 108.05 266.49 107.16 266.57 C 106.28 266.65 105.64 267.43 105.72 268.31 Z M 105.81 269.32 L 105.92 270.30 C 106.02 271.18 106.81 271.82 107.69 271.72 C 108.57 271.62 109.20 270.83 109.11 269.95 L 109.00 268.98 C 108.90 268.10 108.11 267.46 107.23 267.56 C 106.35 267.65 105.72 268.45 105.81 269.32 Z M 105.93 270.33 L 106.09 271.55 C 106.20 272.43 107.00 273.05 107.88 272.93 C 108.76 272.82 109.37 272.01 109.26 271.14 L 109.10 269.92 C 108.99 269.04 108.18 268.43 107.31 268.54 C 106.43 268.66 105.81 269.46 105.93 270.33 Z M 106.10 271.60 L 106.31 272.90 C 106.45 273.77 107.27 274.36 108.14 274.21 C 109.01 274.07 109.60 273.25 109.46 272.38 L 109.25 271.09 C 109.11 270.22 108.28 269.63 107.41 269.77 C 106.54 269.91 105.95 270.73 106.10 271.60 Z M 106.33 273.00 L 106.56 273.97 C 106.76 274.82 107.62 275.36 108.47 275.16 C 109.33 274.96 109.87 274.10 109.67 273.24 L 109.44 272.27 C 109.24 271.41 108.38 270.88 107.52 271.08 C 106.66 271.28 106.13 272.14 106.33 273.00 Z M 106.69 274.33 L 106.92 274.77 C 107.32 275.55 108.28 275.86 109.06 275.46 C 109.85 275.06 110.16 274.10 109.75 273.31 L 109.53 272.87 C 109.13 272.09 108.17 271.78 107.38 272.18 C 106.60 272.58 106.29 273.55 106.69 274.33 Z M 109.55 275.07 L 109.76 274.82 C 110.32 274.15 110.24 273.15 109.57 272.58 C 108.90 272.01 107.90 272.10 107.33 272.77 L 107.12 273.01 C 106.55 273.68 106.64 274.69 107.31 275.25 C 107.98 275.82 108.98 275.74 109.55 275.07 Z M 110.09 274.14 L 110.27 273.31 C 110.46 272.45 109.93 271.61 109.07 271.42 C 108.22 271.23 107.37 271.77 107.18 272.62 L 107.00 273.45 C 106.81 274.30 107.35 275.15 108.20 275.34 C 109.05 275.53 109.90 274.99 110.09 274.14 Z M 110.29 273.17 L 110.45 271.93 C 110.56 271.07 109.95 270.28 109.09 270.16 C 108.23 270.05 107.44 270.66 107.33 271.52 L 107.17 272.76 C 107.06 273.62 107.66 274.41 108.53 274.52 C 109.39 274.63 110.18 274.03 110.29 273.17 Z M 110.45 271.87 L 110.58 270.49 C 110.66 269.63 110.02 268.87 109.16 268.79 C 108.30 268.71 107.54 269.34 107.46 270.20 L 107.33 271.58 C 107.25 272.44 107.89 273.20 108.75 273.28 C 109.61 273.36 110.37 272.73 110.45 271.87 Z M 110.57 270.46 L 110.65 269.43 C 110.71 268.57 110.07 267.83 109.21 267.76 C 108.35 267.70 107.60 268.35 107.54 269.21 L 107.46 270.23 C 107.40 271.09 108.04 271.84 108.90 271.91 C 109.76 271.97 110.51 271.32 110.57 270.46 Z M 110.65 269.42 L 110.71 268.38 C 110.77 267.52 110.11 266.78 109.25 266.72 C 108.39 266.67 107.65 267.33 107.60 268.19 L 107.53 269.23 C 107.48 270.09 108.14 270.83 109.00 270.88 C 109.86 270.93 110.60 270.28 110.65 269.42 Z M 110.72 268.36 L 110.77 267.33 C 110.81 266.47 110.15 265.74 109.29 265.70 C 108.43 265.65 107.69 266.32 107.65 267.18 L 107.60 268.20 C 107.55 269.06 108.22 269.80 109.08 269.84 C 109.94 269.88 110.67 269.22 110.72 268.36 Z M 110.77 267.32 L 110.81 266.33 C 110.85 265.47 110.18 264.74 109.31 264.70 C 108.45 264.67 107.73 265.34 107.69 266.20 L 107.65 267.19 C 107.61 268.05 108.28 268.78 109.14 268.82 C 110.00 268.85 110.73 268.18 110.77 267.32 Z M 110.81 266.31 L 110.84 265.38 C 110.87 264.51 110.20 263.79 109.33 263.76 C 108.47 263.73 107.75 264.41 107.72 265.27 L 107.69 266.21 C 107.66 267.07 108.34 267.79 109.20 267.82 C 110.06 267.85 110.78 267.18 110.81 266.31 Z M 110.84 265.36 L 110.87 264.29 C 110.89 263.43 110.21 262.71 109.35 262.69 C 108.49 262.67 107.77 263.35 107.75 264.21 L 107.72 265.28 C 107.70 266.15 108.38 266.86 109.24 266.88 C 110.10 266.91 110.82 266.22 110.84 265.36 Z M 110.87 264.28 L 110.89 263.22 C 110.90 262.36 110.21 261.65 109.35 261.64 C 108.49 261.62 107.78 262.31 107.76 263.17 L 107.75 264.23 C 107.73 265.09 108.42 265.80 109.28 265.81 C 110.15 265.83 110.86 265.14 110.87 264.28 Z M 110.89 263.21 L 110.89 262.25 C 110.90 261.38 110.21 260.68 109.34 260.67 C 108.48 260.67 107.78 261.36 107.77 262.22 L 107.76 263.19 C 107.76 264.05 108.45 264.75 109.31 264.76 C 110.18 264.77 110.88 264.07 110.89 263.21 Z M 110.89 262.24 L 110.90 261.33 C 110.90 260.47 110.20 259.77 109.34 259.76 C 108.47 259.76 107.77 260.46 107.77 261.32 L 107.77 262.23 C 107.77 263.09 108.47 263.79 109.33 263.80 C 110.19 263.80 110.89 263.10 110.89 262.24 Z M 110.90 261.33 L 110.90 261.02 C 110.90 260.16 110.20 259.46 109.33 259.46 C 108.47 259.46 107.77 260.16 107.77 261.02 L 107.77 261.32 C 107.77 262.19 108.47 262.89 109.33 262.89 C 110.20 262.89 110.89 262.19 110.90 261.33 Z"
      fill="black"
      fill-rule="nonzero" /><path d="M 119.24 150.51 L 119.33 149.49 C 119.40 148.63 118.76 147.88 117.90 147.80 C 117.05 147.73 116.29 148.37 116.22 149.23 L 116.13 150.25 C 116.06 151.11 116.70 151.87 117.56 151.94 C 118.42 152.01 119.17 151.37 119.24 150.51 Z M 119.33 149.51 L 119.43 148.50 C 119.51 147.64 118.89 146.88 118.03 146.79 C 117.17 146.71 116.41 147.33 116.32 148.19 L 116.22 149.21 C 116.14 150.07 116.76 150.83 117.62 150.91 C 118.48 151.00 119.24 150.37 119.33 149.51 Z M 119.42 148.55 L 119.55 147.55 C 119.66 146.70 119.06 145.91 118.20 145.80 C 117.35 145.69 116.57 146.30 116.46 147.15 L 116.33 148.15 C 116.22 149.00 116.82 149.78 117.67 149.89 C 118.53 150.01 119.31 149.40 119.42 148.55 Z M 119.54 147.63 L 119.71 146.66 C 119.86 145.81 119.30 145.00 118.45 144.85 C 117.60 144.70 116.79 145.26 116.64 146.11 L 116.47 147.08 C 116.32 147.93 116.88 148.74 117.73 148.89 C 118.58 149.04 119.39 148.47 119.54 147.63 Z M 119.69 146.76 L 119.93 145.82 C 120.14 144.98 119.63 144.14 118.79 143.93 C 117.95 143.72 117.11 144.23 116.90 145.06 L 116.66 146.01 C 116.45 146.84 116.96 147.69 117.80 147.90 C 118.63 148.11 119.48 147.60 119.69 146.76 Z M 119.89 145.96 L 120.22 145.00 C 120.50 144.18 120.07 143.29 119.26 143.01 C 118.45 142.73 117.56 143.16 117.27 143.97 L 116.94 144.93 C 116.65 145.74 117.08 146.63 117.90 146.92 C 118.71 147.20 119.60 146.77 119.89 145.96 Z M 120.15 145.16 L 120.58 144.26 C 120.95 143.48 120.62 142.55 119.85 142.18 C 119.07 141.81 118.14 142.14 117.76 142.92 L 117.34 143.81 C 116.97 144.59 117.29 145.52 118.07 145.89 C 118.85 146.26 119.78 145.93 120.15 145.16 Z M 120.49 144.43 L 121.02 143.60 C 121.48 142.87 121.27 141.91 120.55 141.44 C 119.82 140.98 118.85 141.19 118.39 141.92 L 117.86 142.75 C 117.39 143.47 117.61 144.44 118.33 144.90 C 119.06 145.37 120.02 145.16 120.49 144.43 Z M 120.90 143.77 L 121.54 143.01 C 122.10 142.35 122.02 141.36 121.36 140.81 C 120.70 140.25 119.71 140.33 119.16 140.99 L 118.51 141.75 C 117.96 142.41 118.04 143.39 118.70 143.95 C 119.35 144.51 120.34 144.42 120.90 143.77 Z M 121.39 143.16 L 122.14 142.49 C 122.78 141.91 122.83 140.92 122.25 140.28 C 121.67 139.64 120.69 139.59 120.05 140.17 L 119.30 140.84 C 118.66 141.42 118.61 142.40 119.19 143.04 C 119.77 143.68 120.75 143.73 121.39 143.16 Z M 122.00 142.59 L 122.83 142.00 C 123.53 141.49 123.69 140.52 123.18 139.82 C 122.68 139.12 121.70 138.96 121.00 139.47 L 120.18 140.06 C 119.48 140.57 119.32 141.54 119.83 142.24 C 120.33 142.94 121.31 143.10 122.00 142.59 Z M 122.72 142.07 L 123.59 141.55 C 124.33 141.10 124.57 140.14 124.13 139.40 C 123.69 138.66 122.73 138.42 121.99 138.87 L 121.11 139.39 C 120.37 139.84 120.13 140.79 120.58 141.53 C 121.02 142.27 121.98 142.51 122.72 142.07 Z M 123.50 141.60 L 124.39 141.14 C 125.15 140.75 125.46 139.81 125.07 139.04 C 124.67 138.28 123.73 137.97 122.97 138.36 L 122.08 138.82 C 121.31 139.21 121.01 140.15 121.40 140.92 C 121.79 141.69 122.73 141.99 123.50 141.60 Z M 124.31 141.18 L 125.21 140.78 C 126.00 140.43 126.36 139.51 126.01 138.72 C 125.66 137.94 124.74 137.58 123.95 137.93 L 123.05 138.33 C 122.26 138.67 121.90 139.60 122.25 140.39 C 122.60 141.17 123.52 141.53 124.31 141.18 Z M 125.13 140.82 L 126.09 140.45 C 126.90 140.15 127.31 139.25 127.00 138.44 C 126.70 137.64 125.80 137.23 124.99 137.53 L 124.03 137.89 C 123.22 138.20 122.82 139.10 123.12 139.91 C 123.43 140.71 124.33 141.12 125.13 140.82 Z M 126.01 140.48 L 126.94 140.19 C 127.76 139.93 128.22 139.06 127.96 138.23 C 127.71 137.41 126.83 136.95 126.01 137.21 L 125.07 137.50 C 124.25 137.76 123.79 138.64 124.05 139.46 C 124.31 140.28 125.19 140.74 126.01 140.48 Z M 126.87 140.21 L 127.81 139.96 C 128.65 139.74 129.14 138.89 128.93 138.06 C 128.71 137.22 127.85 136.72 127.02 136.94 L 126.08 137.19 C 125.24 137.41 124.74 138.26 124.96 139.10 C 125.18 139.93 126.04 140.43 126.87 140.21 Z M 127.77 139.97 L 128.70 139.76 C 129.54 139.57 130.06 138.73 129.87 137.89 C 129.68 137.05 128.84 136.52 128.00 136.72 L 127.07 136.93 C 126.23 137.12 125.70 137.96 125.89 138.80 C 126.09 139.64 126.92 140.17 127.77 139.97 Z M 128.67 139.77 L 129.60 139.57 C 130.44 139.40 130.98 138.57 130.81 137.73 C 130.63 136.88 129.80 136.34 128.96 136.52 L 128.03 136.71 C 127.19 136.89 126.64 137.71 126.82 138.56 C 127.00 139.40 127.82 139.94 128.67 139.77 Z M 129.57 139.58 L 130.55 139.39 C 131.39 139.23 131.95 138.41 131.79 137.57 C 131.62 136.72 130.81 136.16 129.96 136.33 L 128.98 136.51 C 128.14 136.67 127.58 137.49 127.74 138.34 C 127.91 139.19 128.72 139.74 129.57 139.58 Z M 130.52 139.40 L 131.54 139.22 C 132.39 139.07 132.96 138.26 132.81 137.41 C 132.66 136.56 131.85 135.99 131.01 136.14 L 129.98 136.32 C 129.13 136.47 128.57 137.28 128.72 138.13 C 128.86 138.98 129.67 139.55 130.52 139.40 Z M 131.52 139.22 L 132.57 139.05 C 133.42 138.91 134.00 138.11 133.86 137.26 C 133.72 136.41 132.92 135.83 132.07 135.97 L 131.03 136.14 C 130.17 136.28 129.60 137.08 129.73 137.93 C 129.87 138.78 130.67 139.36 131.52 139.22 Z M 132.55 139.05 L 133.52 138.91 C 134.37 138.78 134.96 137.99 134.83 137.14 C 134.71 136.28 133.91 135.69 133.06 135.82 L 132.09 135.97 C 131.23 136.09 130.65 136.89 130.77 137.74 C 130.90 138.59 131.70 139.18 132.55 139.05 Z M 133.50 138.91 L 134.49 138.78 C 135.35 138.66 135.95 137.87 135.83 137.02 C 135.71 136.16 134.92 135.56 134.07 135.68 L 133.08 135.82 C 132.22 135.94 131.62 136.72 131.74 137.58 C 131.86 138.43 132.65 139.03 133.50 138.91 Z M 134.48 138.78 L 135.48 138.65 C 136.33 138.54 136.94 137.76 136.83 136.91 C 136.73 136.05 135.94 135.45 135.09 135.55 L 134.09 135.68 C 133.23 135.79 132.62 136.57 132.73 137.42 C 132.84 138.28 133.62 138.89 134.48 138.78 Z M 135.46 138.65 L 136.46 138.54 C 137.32 138.44 137.94 137.67 137.84 136.81 C 137.74 135.96 136.97 135.34 136.11 135.44 L 135.11 135.55 C 134.25 135.65 133.64 136.42 133.73 137.28 C 133.83 138.13 134.60 138.75 135.46 138.65 Z M 136.44 138.54 L 137.44 138.44 C 138.30 138.36 138.93 137.59 138.84 136.74 C 138.76 135.88 138.00 135.25 137.14 135.34 L 136.13 135.44 C 135.28 135.52 134.65 136.28 134.73 137.14 C 134.82 138.00 135.58 138.63 136.44 138.54 Z M 137.42 138.45 L 138.43 138.36 C 139.29 138.29 139.93 137.53 139.86 136.68 C 139.78 135.82 139.03 135.18 138.17 135.25 L 137.16 135.33 C 136.30 135.41 135.66 136.16 135.74 137.02 C 135.81 137.88 136.56 138.52 137.42 138.45 Z M 138.41 138.36 L 139.41 138.29 C 140.27 138.23 140.92 137.49 140.85 136.63 C 140.79 135.77 140.05 135.12 139.19 135.18 L 138.19 135.25 C 137.33 135.31 136.68 136.06 136.74 136.92 C 136.80 137.78 137.55 138.42 138.41 138.36 Z M 139.39 138.29 L 140.38 138.24 C 141.24 138.19 141.90 137.45 141.85 136.59 C 141.80 135.72 141.06 135.07 140.20 135.12 L 139.21 135.18 C 138.35 135.23 137.69 135.97 137.74 136.83 C 137.79 137.69 138.53 138.34 139.39 138.29 Z M 140.37 138.24 L 141.36 138.19 C 142.22 138.15 142.88 137.41 142.84 136.55 C 142.80 135.69 142.06 135.03 141.20 135.07 L 140.21 135.12 C 139.35 135.16 138.69 135.89 138.73 136.75 C 138.77 137.62 139.50 138.28 140.37 138.24 Z M 141.34 138.19 L 142.34 138.15 C 143.20 138.11 143.87 137.38 143.84 136.52 C 143.80 135.66 143.07 134.99 142.21 135.03 L 141.21 135.07 C 140.35 135.10 139.68 135.83 139.72 136.69 C 139.75 137.56 140.48 138.22 141.34 138.19 Z M 142.33 138.15 L 143.34 138.11 C 144.20 138.08 144.87 137.36 144.84 136.49 C 144.81 135.63 144.09 134.96 143.22 134.99 L 142.22 135.03 C 141.36 135.06 140.68 135.78 140.72 136.64 C 140.75 137.50 141.47 138.18 142.33 138.15 Z M 143.33 138.11 L 144.33 138.08 C 145.19 138.06 145.87 137.34 145.84 136.47 C 145.82 135.61 145.10 134.93 144.24 134.96 L 143.23 134.99 C 142.37 135.02 141.69 135.74 141.72 136.60 C 141.74 137.46 142.46 138.14 143.33 138.11 Z M 144.32 138.08 L 145.32 138.06 C 146.18 138.04 146.86 137.32 146.84 136.46 C 146.82 135.60 146.11 134.92 145.25 134.94 L 144.25 134.96 C 143.38 134.98 142.70 135.70 142.72 136.56 C 142.74 137.42 143.46 138.10 144.32 138.08 Z M 145.31 138.06 L 146.30 138.04 C 147.17 138.02 147.85 137.31 147.84 136.45 C 147.82 135.59 147.11 134.90 146.25 134.92 L 145.25 134.94 C 144.39 134.95 143.71 135.66 143.72 136.53 C 143.74 137.39 144.45 138.07 145.31 138.06 Z M 146.29 138.04 L 147.30 138.03 C 148.16 138.02 148.85 137.31 148.84 136.45 C 148.83 135.59 148.12 134.90 147.26 134.91 L 146.26 134.92 C 145.39 134.93 144.70 135.64 144.71 136.50 C 144.72 137.36 145.43 138.05 146.29 138.04 Z M 147.29 138.03 L 148.29 138.02 C 149.15 138.02 149.85 137.32 149.84 136.46 C 149.84 135.59 149.14 134.90 148.28 134.90 L 147.27 134.91 C 146.41 134.91 145.72 135.61 145.72 136.47 C 145.72 137.34 146.43 138.03 147.29 138.03 Z M 148.28 138.02 L 149.27 138.03 C 150.13 138.03 150.84 137.34 150.84 136.47 C 150.84 135.61 150.15 134.91 149.29 134.91 L 148.29 134.90 C 147.43 134.90 146.72 135.59 146.72 136.46 C 146.72 137.32 147.41 138.02 148.28 138.02 Z M 149.26 138.03 L 150.25 138.04 C 151.11 138.05 151.82 137.37 151.84 136.50 C 151.85 135.64 151.16 134.93 150.30 134.92 L 149.30 134.91 C 148.44 134.89 147.73 135.58 147.72 136.44 C 147.71 137.31 148.39 138.01 149.26 138.03 Z M 150.23 138.04 L 151.23 138.07 C 152.09 138.09 152.81 137.41 152.83 136.55 C 152.85 135.69 152.17 134.97 151.31 134.95 L 150.32 134.92 C 149.45 134.90 148.74 135.58 148.71 136.44 C 148.69 137.30 149.37 138.02 150.23 138.04 Z M 151.20 138.07 L 152.19 138.11 C 153.05 138.14 153.78 137.47 153.81 136.61 C 153.85 135.75 153.18 135.02 152.32 134.99 L 151.33 134.95 C 150.47 134.91 149.74 135.58 149.71 136.44 C 149.67 137.30 150.34 138.03 151.20 138.07 Z M 152.16 138.11 L 153.15 138.17 C 154.01 138.22 154.75 137.57 154.80 136.71 C 154.86 135.85 154.20 135.11 153.34 135.05 L 152.35 134.99 C 151.49 134.94 150.75 135.59 150.70 136.45 C 150.64 137.31 151.29 138.05 152.16 138.11 Z M 153.10 138.16 L 154.10 138.26 C 154.96 138.34 155.72 137.71 155.80 136.85 C 155.88 135.99 155.25 135.23 154.39 135.15 L 153.39 135.06 C 152.53 134.98 151.77 135.61 151.69 136.47 C 151.61 137.32 152.24 138.09 153.10 138.16 Z M 154.04 138.25 L 155.05 138.38 C 155.90 138.49 156.68 137.89 156.80 137.04 C 156.91 136.18 156.30 135.40 155.45 135.29 L 154.45 135.16 C 153.59 135.04 152.81 135.65 152.70 136.50 C 152.58 137.36 153.19 138.14 154.04 138.25 Z M 154.98 138.37 L 155.94 138.54 C 156.79 138.68 157.60 138.12 157.74 137.27 C 157.89 136.42 157.32 135.61 156.47 135.46 L 155.51 135.30 C 154.66 135.15 153.86 135.72 153.71 136.57 C 153.56 137.42 154.13 138.23 154.98 138.37 Z M 155.88 138.53 L 156.82 138.72 C 157.66 138.90 158.49 138.36 158.67 137.52 C 158.85 136.68 158.31 135.85 157.46 135.67 L 156.53 135.47 C 155.69 135.29 154.86 135.83 154.68 136.68 C 154.50 137.52 155.04 138.35 155.88 138.53 Z M 156.77 138.71 L 157.72 138.95 C 158.56 139.15 159.41 138.63 159.61 137.80 C 159.81 136.96 159.30 136.11 158.46 135.91 L 157.51 135.68 C 156.67 135.48 155.83 135.99 155.62 136.83 C 155.42 137.67 155.93 138.51 156.77 138.71 Z M 157.69 138.94 L 158.67 139.20 C 159.50 139.42 160.36 138.92 160.58 138.09 C 160.80 137.25 160.30 136.40 159.47 136.18 L 158.49 135.92 C 157.66 135.70 156.80 136.20 156.58 137.03 C 156.36 137.86 156.86 138.72 157.69 138.94 Z M 158.65 139.19 L 159.66 139.47 C 160.49 139.70 161.35 139.22 161.58 138.39 C 161.82 137.56 161.33 136.70 160.50 136.46 L 159.49 136.18 C 158.66 135.95 157.80 136.44 157.56 137.27 C 157.33 138.10 157.82 138.96 158.65 139.19 Z M 159.65 139.47 L 160.63 139.75 C 161.46 139.98 162.33 139.50 162.56 138.67 C 162.80 137.84 162.31 136.98 161.49 136.74 L 160.51 136.47 C 159.68 136.23 158.81 136.71 158.58 137.54 C 158.34 138.37 158.82 139.23 159.65 139.47 Z M 160.63 139.75 L 161.57 140.02 C 162.40 140.25 163.26 139.77 163.50 138.95 C 163.74 138.12 163.26 137.25 162.43 137.01 L 161.49 136.75 C 160.66 136.51 159.80 136.99 159.56 137.82 C 159.32 138.64 159.80 139.51 160.63 139.75 Z M 161.56 140.01 L 162.52 140.29 C 163.35 140.54 164.21 140.06 164.46 139.23 C 164.70 138.40 164.22 137.54 163.39 137.30 L 162.43 137.02 C 161.61 136.78 160.74 137.25 160.50 138.08 C 160.26 138.91 160.73 139.77 161.56 140.01 Z M 162.51 140.29 L 163.48 140.58 C 164.31 140.83 165.18 140.36 165.42 139.53 C 165.67 138.70 165.20 137.84 164.37 137.59 L 163.40 137.30 C 162.58 137.05 161.71 137.52 161.46 138.35 C 161.21 139.18 161.68 140.04 162.51 140.29 Z M 163.47 140.58 L 164.44 140.88 C 165.27 141.13 166.14 140.67 166.39 139.84 C 166.65 139.02 166.18 138.14 165.36 137.89 L 164.39 137.59 C 163.56 137.34 162.69 137.80 162.43 138.63 C 162.18 139.45 162.64 140.32 163.47 140.58 Z M 164.43 140.87 L 165.39 141.18 C 166.22 141.44 167.09 140.98 167.35 140.16 C 167.62 139.34 167.16 138.46 166.34 138.20 L 165.37 137.90 C 164.55 137.63 163.67 138.09 163.41 138.91 C 163.15 139.73 163.61 140.61 164.43 140.87 Z M 165.38 141.17 L 166.34 141.49 C 167.15 141.76 168.04 141.32 168.31 140.50 C 168.58 139.68 168.14 138.80 167.32 138.53 L 166.36 138.21 C 165.54 137.94 164.66 138.38 164.39 139.20 C 164.11 140.02 164.56 140.90 165.38 141.17 Z M 166.32 141.48 L 167.27 141.81 C 168.08 142.09 168.97 141.66 169.25 140.85 C 169.53 140.03 169.10 139.14 168.29 138.86 L 167.34 138.53 C 166.52 138.25 165.63 138.68 165.35 139.50 C 165.07 140.31 165.50 141.20 166.32 141.48 Z M 167.25 141.80 L 168.18 142.14 C 168.99 142.44 169.89 142.02 170.18 141.20 C 170.47 140.39 170.05 139.50 169.24 139.21 L 168.31 138.87 C 167.49 138.58 166.60 139.00 166.31 139.81 C 166.01 140.62 166.43 141.51 167.25 141.80 Z M 168.16 142.14 L 169.09 142.49 C 169.90 142.79 170.80 142.38 171.10 141.57 C 171.41 140.77 171.00 139.87 170.19 139.56 L 169.26 139.21 C 168.45 138.91 167.55 139.32 167.25 140.13 C 166.95 140.93 167.36 141.83 168.16 142.14 Z M 169.07 142.48 L 170.00 142.84 C 170.80 143.15 171.71 142.76 172.02 141.95 C 172.34 141.15 171.94 140.25 171.14 139.93 L 170.21 139.57 C 169.41 139.26 168.50 139.65 168.19 140.46 C 167.87 141.26 168.27 142.16 169.07 142.48 Z M 169.98 142.83 L 170.91 143.21 C 171.71 143.53 172.62 143.15 172.94 142.35 C 173.27 141.55 172.88 140.64 172.08 140.31 L 171.15 139.94 C 170.36 139.62 169.45 140.00 169.12 140.80 C 168.80 141.60 169.18 142.51 169.98 142.83 Z M 170.90 143.20 L 171.80 143.58 C 172.60 143.92 173.51 143.54 173.85 142.74 C 174.18 141.95 173.80 141.03 173.01 140.70 L 172.10 140.32 C 171.30 139.99 170.39 140.36 170.06 141.16 C 169.72 141.96 170.10 142.87 170.90 143.20 Z M 171.79 143.58 L 172.70 143.97 C 173.49 144.31 174.41 143.94 174.75 143.15 C 175.09 142.36 174.72 141.44 173.93 141.10 L 173.02 140.71 C 172.23 140.37 171.31 140.73 170.97 141.52 C 170.63 142.32 171.00 143.23 171.79 143.58 Z M 172.68 143.96 L 173.59 144.36 C 174.38 144.71 175.30 144.36 175.65 143.57 C 176.00 142.78 175.65 141.86 174.86 141.51 L 173.95 141.11 C 173.16 140.76 172.24 141.11 171.89 141.90 C 171.54 142.69 171.89 143.61 172.68 143.96 Z M 173.58 144.36 L 174.49 144.77 C 175.27 145.13 176.20 144.79 176.56 144.00 C 176.92 143.22 176.57 142.29 175.79 141.93 L 174.87 141.52 C 174.09 141.16 173.16 141.50 172.80 142.29 C 172.45 143.07 172.79 144.00 173.58 144.36 Z M 174.47 144.77 L 175.39 145.20 C 176.17 145.56 177.10 145.23 177.46 144.45 C 177.83 143.67 177.50 142.74 176.72 142.37 L 175.80 141.94 C 175.02 141.58 174.09 141.91 173.73 142.69 C 173.36 143.47 173.69 144.40 174.47 144.77 Z M 175.37 145.19 L 176.29 145.63 C 177.06 146.01 177.99 145.68 178.37 144.91 C 178.75 144.13 178.42 143.20 177.64 142.82 L 176.73 142.38 C 175.96 142.00 175.02 142.33 174.65 143.10 C 174.27 143.88 174.60 144.81 175.37 145.19 Z M 176.27 145.62 L 177.18 146.07 C 177.95 146.46 178.88 146.14 179.27 145.37 C 179.65 144.60 179.34 143.66 178.57 143.28 L 177.66 142.83 C 176.89 142.44 175.95 142.76 175.57 143.53 C 175.18 144.30 175.50 145.24 176.27 145.62 Z M 177.16 146.07 L 178.06 146.53 C 178.83 146.92 179.77 146.61 180.16 145.84 C 180.55 145.08 180.25 144.14 179.48 143.74 L 178.58 143.29 C 177.81 142.89 176.87 143.20 176.48 143.97 C 176.09 144.73 176.39 145.67 177.16 146.07 Z M 178.05 146.52 L 178.94 146.99 C 179.70 147.38 180.65 147.09 181.05 146.32 C 181.44 145.56 181.15 144.62 180.39 144.22 L 179.49 143.75 C 178.73 143.35 177.79 143.65 177.39 144.41 C 176.99 145.18 177.28 146.12 178.05 146.52 Z M 178.93 146.98 L 179.81 147.45 C 180.57 147.86 181.52 147.57 181.92 146.81 C 182.33 146.05 182.04 145.10 181.28 144.70 L 180.40 144.22 C 179.64 143.82 178.69 144.11 178.28 144.87 C 177.88 145.63 178.17 146.57 178.93 146.98 Z M 179.80 147.44 L 180.67 147.92 C 181.43 148.33 182.38 148.06 182.79 147.30 C 183.20 146.54 182.92 145.59 182.17 145.18 L 181.29 144.70 C 180.54 144.29 179.59 144.57 179.18 145.33 C 178.76 146.08 179.04 147.03 179.80 147.44 Z M 180.66 147.92 L 181.52 148.39 C 182.28 148.81 183.23 148.54 183.65 147.79 C 184.06 147.03 183.79 146.08 183.04 145.67 L 182.18 145.19 C 181.42 144.77 180.47 145.04 180.06 145.79 C 179.64 146.55 179.91 147.50 180.66 147.92 Z M 181.51 148.39 L 182.40 148.89 C 183.15 149.31 184.10 149.05 184.53 148.30 C 184.95 147.55 184.69 146.60 183.94 146.17 L 183.05 145.67 C 182.30 145.25 181.35 145.51 180.92 146.26 C 180.50 147.01 180.76 147.96 181.51 148.39 Z M 182.39 148.88 L 183.27 149.40 C 184.02 149.83 184.98 149.57 185.41 148.83 C 185.84 148.08 185.58 147.12 184.84 146.69 L 183.95 146.18 C 183.20 145.75 182.25 146.00 181.81 146.75 C 181.38 147.50 181.64 148.45 182.39 148.88 Z M 183.26 149.39 L 184.13 149.90 C 184.87 150.34 185.83 150.10 186.27 149.36 C 186.71 148.61 186.46 147.66 185.72 147.22 L 184.85 146.70 C 184.11 146.26 183.15 146.51 182.71 147.25 C 182.27 147.99 182.52 148.95 183.26 149.39 Z M 184.11 149.89 L 184.96 150.41 C 185.69 150.86 186.66 150.63 187.11 149.89 C 187.56 149.16 187.32 148.20 186.59 147.75 L 185.74 147.23 C 185.00 146.78 184.04 147.01 183.59 147.75 C 183.14 148.48 183.37 149.44 184.11 149.89 Z M 184.94 150.40 L 185.77 150.92 C 186.49 151.39 187.46 151.17 187.92 150.44 C 188.38 149.71 188.17 148.75 187.44 148.29 L 186.61 147.76 C 185.88 147.30 184.92 147.51 184.45 148.24 C 183.99 148.97 184.21 149.94 184.94 150.40 Z M 185.74 150.91 L 186.55 151.44 C 187.27 151.92 188.24 151.72 188.71 151.00 C 189.19 150.28 188.99 149.31 188.27 148.83 L 187.46 148.30 C 186.74 147.83 185.77 148.02 185.30 148.74 C 184.82 149.46 185.02 150.43 185.74 150.91 Z M 186.52 151.42 L 187.35 152.00 C 188.06 152.49 189.03 152.31 189.52 151.60 C 190.02 150.89 189.84 149.92 189.13 149.43 L 188.30 148.85 C 187.59 148.36 186.61 148.54 186.12 149.25 C 185.63 149.96 185.81 150.93 186.52 151.42 Z M 187.32 151.98 L 188.13 152.57 C 188.83 153.07 189.81 152.92 190.32 152.22 C 190.82 151.52 190.67 150.54 189.97 150.04 L 189.16 149.45 C 188.46 148.94 187.48 149.10 186.98 149.79 C 186.47 150.49 186.62 151.47 187.32 151.98 Z M 188.11 152.55 L 188.90 153.15 C 189.59 153.67 190.57 153.54 191.09 152.85 C 191.61 152.16 191.48 151.18 190.79 150.66 L 190.00 150.06 C 189.31 149.54 188.33 149.67 187.81 150.36 C 187.29 151.04 187.42 152.02 188.11 152.55 Z M 188.87 153.13 L 189.65 153.74 C 190.33 154.28 191.31 154.17 191.84 153.49 C 192.38 152.82 192.27 151.83 191.59 151.30 L 190.81 150.68 C 190.14 150.14 189.16 150.26 188.62 150.93 C 188.08 151.61 188.20 152.59 188.87 153.13 Z M 189.63 153.72 L 190.39 154.36 C 191.06 154.91 192.04 154.81 192.59 154.15 C 193.14 153.48 193.05 152.50 192.38 151.95 L 191.62 151.32 C 190.95 150.77 189.97 150.86 189.42 151.53 C 188.87 152.19 188.96 153.18 189.63 153.72 Z M 190.37 154.34 L 191.15 155.01 C 191.80 155.57 192.79 155.49 193.35 154.84 C 193.91 154.18 193.84 153.19 193.18 152.63 L 192.41 151.97 C 191.75 151.41 190.76 151.48 190.20 152.14 C 189.64 152.79 189.72 153.78 190.37 154.34 Z M 191.12 154.99 L 191.90 155.68 C 192.54 156.25 193.53 156.20 194.11 155.55 C 194.68 154.90 194.63 153.91 193.98 153.34 L 193.21 152.65 C 192.56 152.07 191.57 152.13 191.00 152.78 C 190.42 153.42 190.48 154.41 191.12 154.99 Z M 191.87 155.66 L 192.62 156.36 C 193.26 156.95 194.25 156.91 194.84 156.27 C 195.43 155.64 195.39 154.65 194.76 154.06 L 194.01 153.36 C 193.37 152.77 192.38 152.81 191.79 153.44 C 191.20 154.08 191.24 155.07 191.87 155.66 Z M 192.59 156.33 L 193.30 157.03 C 193.93 157.64 194.92 157.62 195.53 157.00 C 196.14 156.38 196.13 155.38 195.50 154.78 L 194.79 154.08 C 194.17 153.47 193.17 153.48 192.56 154.11 C 191.96 154.73 191.97 155.73 192.59 156.33 Z M 193.27 157.00 L 193.94 157.69 C 194.54 158.32 195.54 158.33 196.17 157.72 C 196.79 157.12 196.81 156.12 196.20 155.49 L 195.54 154.80 C 194.93 154.18 193.93 154.16 193.31 154.77 C 192.68 155.37 192.66 156.37 193.27 157.00 Z M 193.89 157.65 L 194.57 158.40 C 195.16 159.05 196.16 159.11 196.81 158.52 C 197.46 157.94 197.51 156.94 196.93 156.29 L 196.25 155.53 C 195.66 154.88 194.66 154.83 194.01 155.41 C 193.36 156.00 193.31 157.00 193.89 157.65 Z M 194.52 158.35 L 195.18 159.16 C 195.74 159.84 196.74 159.94 197.41 159.39 C 198.09 158.83 198.19 157.84 197.64 157.16 L 196.98 156.34 C 196.42 155.66 195.43 155.56 194.75 156.12 C 194.07 156.67 193.97 157.67 194.52 158.35 Z M 195.13 159.09 L 195.71 159.89 C 196.23 160.60 197.22 160.76 197.93 160.24 C 198.64 159.73 198.79 158.74 198.28 158.03 L 197.70 157.23 C 197.18 156.52 196.19 156.36 195.48 156.88 C 194.77 157.39 194.61 158.38 195.13 159.09 Z M 195.66 159.82 L 196.17 160.62 C 196.64 161.36 197.63 161.57 198.37 161.09 C 199.11 160.62 199.32 159.64 198.84 158.90 L 198.33 158.10 C 197.86 157.36 196.87 157.15 196.13 157.62 C 195.40 158.10 195.18 159.08 195.66 159.82 Z M 196.12 160.54 L 196.60 161.38 C 197.03 162.14 198.00 162.41 198.77 161.98 C 199.53 161.55 199.80 160.57 199.37 159.81 L 198.89 158.97 C 198.46 158.21 197.49 157.94 196.72 158.37 C 195.96 158.80 195.69 159.78 196.12 160.54 Z M 196.55 161.30 L 197.00 162.20 C 197.39 162.99 198.35 163.31 199.14 162.92 C 199.93 162.53 200.25 161.57 199.86 160.79 L 199.41 159.88 C 199.02 159.10 198.06 158.77 197.27 159.17 C 196.48 159.56 196.16 160.51 196.55 161.30 Z M 196.96 162.13 L 197.36 163.05 C 197.71 163.85 198.65 164.23 199.46 163.87 C 200.27 163.52 200.64 162.58 200.29 161.77 L 199.89 160.86 C 199.54 160.05 198.60 159.68 197.79 160.03 C 196.98 160.38 196.61 161.32 196.96 162.13 Z M 197.33 162.98 L 197.68 163.91 C 198.00 164.73 198.92 165.15 199.75 164.83 C 200.57 164.52 200.99 163.60 200.67 162.77 L 200.32 161.84 C 200.01 161.02 199.08 160.60 198.26 160.92 C 197.43 161.23 197.02 162.15 197.33 162.98 Z M 197.66 163.84 L 197.97 164.79 C 198.25 165.63 199.16 166.08 200.00 165.80 C 200.84 165.52 201.29 164.62 201.01 163.78 L 200.70 162.83 C 200.42 162.00 199.51 161.54 198.67 161.82 C 197.83 162.10 197.38 163.01 197.66 163.84 Z M 197.95 164.72 L 198.23 165.68 C 198.47 166.53 199.36 167.03 200.21 166.78 C 201.06 166.54 201.55 165.65 201.31 164.80 L 201.03 163.84 C 200.79 162.99 199.90 162.50 199.05 162.74 C 198.20 162.99 197.71 163.87 197.95 164.72 Z M 198.21 165.61 L 198.43 166.58 C 198.63 167.44 199.50 167.98 200.36 167.78 C 201.22 167.57 201.75 166.71 201.55 165.85 L 201.33 164.88 C 201.13 164.02 200.26 163.48 199.40 163.68 C 198.54 163.88 198.01 164.74 198.21 165.61 Z M 198.42 166.49 L 198.59 167.48 C 198.74 168.35 199.58 168.94 200.45 168.78 C 201.32 168.63 201.90 167.80 201.75 166.93 L 201.57 165.94 C 201.42 165.07 200.59 164.48 199.71 164.64 C 198.84 164.79 198.26 165.62 198.42 166.49 Z M 198.58 167.40 L 198.69 168.36 C 198.80 169.24 199.60 169.87 200.47 169.76 C 201.35 169.66 201.98 168.86 201.88 167.98 L 201.76 167.01 C 201.65 166.13 200.86 165.51 199.98 165.61 C 199.10 165.72 198.47 166.52 198.58 167.40 Z M 198.68 168.29 L 198.76 169.28 C 198.82 170.16 199.59 170.83 200.48 170.76 C 201.36 170.69 202.02 169.92 201.96 169.04 L 201.89 168.05 C 201.82 167.17 201.05 166.50 200.16 166.57 C 199.28 166.64 198.62 167.41 198.68 168.29 Z M 198.75 169.23 L 198.79 170.23 C 198.83 171.12 199.58 171.81 200.47 171.77 C 201.36 171.74 202.04 170.99 202.01 170.10 L 201.97 169.09 C 201.93 168.20 201.18 167.51 200.29 167.55 C 199.40 167.59 198.71 168.34 198.75 169.23 Z M 198.79 170.20 L 198.81 171.23 C 198.83 172.12 199.57 172.82 200.46 172.80 C 201.35 172.78 202.05 172.05 202.03 171.16 L 202.01 170.13 C 201.99 169.24 201.25 168.53 200.36 168.55 C 199.47 168.57 198.77 169.31 198.79 170.20 Z M 198.81 171.21 L 198.82 172.16 C 198.83 173.05 199.56 173.77 200.45 173.76 C 201.34 173.75 202.05 173.02 202.05 172.13 L 202.04 171.17 C 202.03 170.28 201.30 169.57 200.41 169.58 C 199.51 169.59 198.80 170.32 198.81 171.21 Z M 198.82 172.13 L 198.81 173.11 C 198.80 174.00 199.52 174.73 200.41 174.74 C 201.30 174.75 202.03 174.03 202.04 173.14 L 202.05 172.16 C 202.05 171.27 201.34 170.54 200.45 170.53 C 199.55 170.52 198.82 171.24 198.82 172.13 Z M 198.81 173.07 L 198.77 174.08 C 198.74 174.97 199.44 175.72 200.33 175.75 C 201.22 175.78 201.97 175.08 202.00 174.19 L 202.04 173.18 C 202.07 172.29 201.37 171.54 200.48 171.51 C 199.59 171.48 198.84 172.18 198.81 173.07 Z M 198.78 174.02 L 198.70 175.06 C 198.64 175.95 199.31 176.72 200.20 176.79 C 201.09 176.85 201.86 176.18 201.93 175.29 L 202.00 174.25 C 202.06 173.36 201.39 172.58 200.50 172.52 C 199.61 172.46 198.84 173.13 198.78 174.02 Z M 198.71 175.00 L 198.60 175.99 C 198.50 176.87 199.14 177.67 200.03 177.77 C 200.91 177.87 201.71 177.23 201.81 176.34 L 201.92 175.35 C 202.02 174.46 201.38 173.66 200.49 173.57 C 199.60 173.47 198.81 174.11 198.71 175.00 Z M 198.60 175.92 L 198.45 176.90 C 198.32 177.79 198.93 178.61 199.81 178.75 C 200.69 178.88 201.52 178.28 201.65 177.39 L 201.80 176.41 C 201.94 175.53 201.33 174.70 200.45 174.57 C 199.56 174.43 198.74 175.04 198.60 175.92 Z M 198.47 176.84 L 198.27 177.82 C 198.10 178.70 198.67 179.55 199.55 179.73 C 200.42 179.90 201.27 179.33 201.45 178.45 L 201.64 177.46 C 201.81 176.58 201.24 175.73 200.37 175.56 C 199.49 175.39 198.64 175.96 198.47 176.84 Z M 198.29 177.75 L 198.04 178.73 C 197.83 179.60 198.36 180.48 199.23 180.69 C 200.10 180.91 200.97 180.38 201.19 179.51 L 201.43 178.53 C 201.64 177.66 201.11 176.78 200.25 176.57 C 199.38 176.35 198.50 176.88 198.29 177.75 Z M 198.07 178.65 L 197.77 179.61 C 197.51 180.46 198.00 181.37 198.85 181.63 C 199.71 181.89 200.61 181.41 200.87 180.55 L 201.16 179.59 C 201.43 178.74 200.94 177.83 200.09 177.57 C 199.23 177.31 198.33 177.79 198.07 178.65 Z M 197.80 179.52 L 197.46 180.45 C 197.15 181.29 197.58 182.22 198.42 182.53 C 199.26 182.84 200.19 182.41 200.50 181.57 L 200.84 180.64 C 201.15 179.80 200.72 178.87 199.89 178.56 C 199.05 178.25 198.12 178.68 197.80 179.52 Z M 197.50 180.36 L 197.10 181.27 C 196.75 182.09 197.12 183.04 197.94 183.40 C 198.76 183.75 199.71 183.38 200.07 182.56 L 200.46 181.66 C 200.82 180.84 200.44 179.88 199.63 179.53 C 198.81 179.17 197.85 179.54 197.50 180.36 Z M 197.14 181.19 L 196.70 182.08 C 196.30 182.88 196.62 183.85 197.42 184.25 C 198.22 184.65 199.19 184.32 199.59 183.52 L 200.03 182.63 C 200.43 181.83 200.10 180.86 199.31 180.46 C 198.51 180.07 197.53 180.39 197.14 181.19 Z M 196.73 182.02 L 196.24 182.90 C 195.81 183.68 196.10 184.67 196.88 185.10 C 197.66 185.53 198.64 185.25 199.07 184.46 L 199.56 183.58 C 199.99 182.80 199.71 181.82 198.92 181.39 C 198.14 180.95 197.16 181.24 196.73 182.02 Z M 196.27 182.86 L 195.75 183.72 C 195.30 184.49 195.55 185.48 196.31 185.94 C 197.08 186.40 198.07 186.15 198.53 185.38 L 199.04 184.51 C 199.50 183.74 199.25 182.75 198.49 182.30 C 197.72 181.84 196.73 182.09 196.27 182.86 Z M 195.78 183.69 L 195.26 184.49 C 194.79 185.25 195.01 186.25 195.76 186.72 C 196.52 187.20 197.52 186.98 197.99 186.22 L 198.50 185.42 C 198.98 184.66 198.76 183.66 198.00 183.19 C 197.25 182.71 196.25 182.93 195.78 183.69 Z M 195.29 184.46 L 194.74 185.28 C 194.25 186.02 194.45 187.02 195.19 187.51 C 195.93 188.01 196.93 187.81 197.43 187.07 L 197.97 186.25 C 198.47 185.51 198.27 184.51 197.53 184.02 C 196.78 183.52 195.78 183.72 195.29 184.46 Z M 194.77 185.24 L 194.19 186.06 C 193.68 186.79 193.85 187.80 194.58 188.31 C 195.31 188.82 196.31 188.65 196.83 187.92 L 197.40 187.10 C 197.92 186.37 197.74 185.37 197.01 184.85 C 196.29 184.34 195.28 184.51 194.77 185.24 Z M 194.21 186.03 L 193.60 186.85 C 193.07 187.57 193.22 188.58 193.94 189.11 C 194.65 189.64 195.66 189.49 196.19 188.78 L 196.80 187.95 C 197.34 187.24 197.18 186.23 196.47 185.69 C 195.75 185.16 194.74 185.31 194.21 186.03 Z M 193.63 186.82 L 192.98 187.65 C 192.44 188.35 192.56 189.36 193.26 189.91 C 193.97 190.46 194.98 190.33 195.53 189.63 L 196.17 188.81 C 196.72 188.10 196.59 187.09 195.89 186.54 C 195.19 185.99 194.17 186.12 193.63 186.82 Z M 193.01 187.62 L 192.40 188.36 C 191.84 189.05 191.94 190.07 192.63 190.63 C 193.32 191.20 194.33 191.09 194.90 190.40 L 195.50 189.66 C 196.07 188.97 195.97 187.95 195.28 187.39 C 194.59 186.83 193.57 186.93 193.01 187.62 Z M 192.42 188.34 L 191.80 189.07 C 191.22 189.75 191.30 190.77 191.98 191.34 C 192.65 191.92 193.67 191.84 194.25 191.16 L 194.88 190.43 C 195.45 189.75 195.37 188.73 194.69 188.16 C 194.02 187.58 193.00 187.66 192.42 188.34 Z M 191.82 189.05 L 191.16 189.79 C 190.57 190.45 190.63 191.47 191.30 192.06 C 191.97 192.65 192.98 192.59 193.57 191.92 L 194.23 191.19 C 194.82 190.52 194.76 189.50 194.09 188.91 C 193.42 188.32 192.41 188.38 191.82 189.05 Z M 191.18 189.77 L 190.50 190.51 C 189.90 191.16 189.94 192.18 190.60 192.78 C 191.25 193.38 192.27 193.34 192.87 192.69 L 193.55 191.95 C 194.16 191.29 194.11 190.27 193.46 189.67 C 192.80 189.07 191.79 189.11 191.18 189.77 Z M 190.52 190.49 L 189.81 191.23 C 189.20 191.88 189.22 192.90 189.87 193.51 C 190.51 194.12 191.53 194.10 192.14 193.45 L 192.85 192.71 C 193.47 192.06 193.44 191.04 192.80 190.43 C 192.15 189.82 191.13 189.84 190.52 190.49 Z M 189.83 191.21 L 189.09 191.97 C 188.47 192.60 188.48 193.62 189.11 194.24 C 189.74 194.86 190.76 194.86 191.39 194.22 L 192.13 193.47 C 192.75 192.84 192.74 191.82 192.11 191.19 C 191.47 190.57 190.45 190.58 189.83 191.21 Z M 189.11 191.95 L 188.43 192.62 C 187.80 193.24 187.80 194.26 188.42 194.89 C 189.05 195.52 190.06 195.53 190.70 194.90 L 191.37 194.24 C 192.00 193.61 192.01 192.59 191.38 191.96 C 190.76 191.33 189.74 191.33 189.11 191.95 Z M 188.45 192.60 L 187.76 193.27 C 187.12 193.88 187.10 194.90 187.72 195.54 C 188.33 196.18 189.35 196.20 189.99 195.58 L 190.68 194.92 C 191.32 194.30 191.34 193.29 190.72 192.65 C 190.11 192.01 189.09 191.99 188.45 192.60 Z M 187.78 193.25 L 187.06 193.92 C 186.41 194.53 186.38 195.54 186.99 196.19 C 187.59 196.84 188.61 196.87 189.26 196.27 L 189.97 195.60 C 190.62 194.99 190.65 193.98 190.05 193.33 C 189.44 192.68 188.42 192.65 187.78 193.25 Z M 187.08 193.91 L 186.34 194.58 C 185.68 195.18 185.64 196.19 186.23 196.85 C 186.83 197.50 187.84 197.55 188.50 196.95 L 189.24 196.28 C 189.89 195.69 189.94 194.67 189.35 194.02 C 188.75 193.36 187.74 193.31 187.08 193.91 Z M 186.36 194.56 L 185.59 195.24 C 184.93 195.82 184.86 196.84 185.45 197.50 C 186.04 198.17 187.05 198.23 187.71 197.65 L 188.48 196.97 C 189.14 196.38 189.21 195.37 188.62 194.71 C 188.04 194.04 187.02 193.98 186.36 194.56 Z M 185.61 195.22 L 184.82 195.90 C 184.15 196.47 184.07 197.49 184.64 198.16 C 185.22 198.83 186.23 198.91 186.90 198.34 L 187.69 197.66 C 188.37 197.09 188.45 196.07 187.87 195.40 C 187.30 194.73 186.29 194.65 185.61 195.22 Z M 184.84 195.88 L 184.03 196.55 C 183.35 197.12 183.25 198.13 183.82 198.81 C 184.38 199.49 185.39 199.59 186.07 199.02 L 186.88 198.35 C 187.56 197.79 187.66 196.78 187.10 196.10 C 186.53 195.41 185.52 195.32 184.84 195.88 Z M 184.05 196.54 L 183.32 197.12 C 182.63 197.68 182.52 198.68 183.07 199.37 C 183.62 200.06 184.63 200.18 185.32 199.62 L 186.05 199.04 C 186.74 198.48 186.85 197.48 186.30 196.79 C 185.75 196.10 184.74 195.98 184.05 196.54 Z M 183.34 197.11 L 182.59 197.70 C 181.89 198.24 181.76 199.25 182.31 199.94 C 182.85 200.64 183.86 200.76 184.56 200.22 L 185.31 199.63 C 186.00 199.09 186.13 198.08 185.58 197.39 C 185.04 196.69 184.03 196.57 183.34 197.11 Z M 182.60 197.69 L 181.83 198.28 C 181.13 198.81 180.99 199.81 181.53 200.52 C 182.06 201.22 183.07 201.35 183.77 200.82 L 184.54 200.23 C 185.24 199.69 185.38 198.69 184.84 197.99 C 184.31 197.29 183.30 197.15 182.60 197.69 Z M 181.84 198.27 L 181.05 198.86 C 180.34 199.39 180.20 200.39 180.73 201.10 C 181.25 201.80 182.26 201.95 182.96 201.42 L 183.76 200.83 C 184.46 200.30 184.61 199.30 184.08 198.59 C 183.55 197.88 182.55 197.74 181.84 198.27 Z M 181.06 198.85 L 180.25 199.45 C 179.53 199.97 179.38 200.97 179.91 201.68 C 180.43 202.40 181.43 202.55 182.14 202.03 L 182.95 201.43 C 183.66 200.90 183.82 199.90 183.29 199.19 C 182.77 198.48 181.77 198.33 181.06 198.85 Z M 180.26 199.45 L 179.42 200.05 C 178.71 200.57 178.55 201.57 179.06 202.28 C 179.58 202.99 180.58 203.15 181.29 202.64 L 182.13 202.03 C 182.84 201.51 183.00 200.52 182.49 199.80 C 181.97 199.09 180.97 198.93 180.26 199.45 Z M 179.43 200.05 L 178.57 200.66 C 177.86 201.17 177.69 202.17 178.20 202.89 C 178.72 203.60 179.71 203.77 180.43 203.25 L 181.29 202.64 C 182.00 202.13 182.17 201.13 181.66 200.41 C 181.14 199.70 180.14 199.53 179.43 200.05 Z M 178.58 200.66 L 177.71 201.27 C 177.00 201.78 176.83 202.77 177.34 203.49 C 177.85 204.21 178.84 204.38 179.56 203.87 L 180.43 203.26 C 181.14 202.75 181.31 201.75 180.80 201.03 C 180.29 200.31 179.30 200.15 178.58 200.66 Z M 177.72 201.26 L 176.92 201.83 C 176.20 202.33 176.03 203.33 176.54 204.05 C 177.05 204.77 178.04 204.94 178.76 204.43 L 179.56 203.87 C 180.28 203.37 180.45 202.37 179.94 201.65 C 179.43 200.93 178.44 200.76 177.72 201.26 Z M 176.93 201.82 L 176.12 202.39 C 175.39 202.89 175.22 203.89 175.72 204.61 C 176.23 205.34 177.23 205.51 177.95 205.01 L 178.76 204.44 C 179.48 203.93 179.66 202.94 179.15 202.21 C 178.64 201.49 177.65 201.32 176.93 201.82 Z M 176.12 202.38 L 175.30 202.95 C 174.57 203.46 174.39 204.46 174.90 205.18 C 175.40 205.91 176.40 206.09 177.12 205.58 L 177.95 205.01 C 178.67 204.51 178.85 203.51 178.35 202.78 C 177.84 202.06 176.84 201.88 176.12 202.38 Z M 175.30 202.95 L 174.47 203.52 C 173.74 204.02 173.56 205.02 174.06 205.75 C 174.57 206.48 175.56 206.66 176.29 206.16 L 177.12 205.59 C 177.85 205.08 178.03 204.09 177.53 203.36 C 177.03 202.63 176.03 202.45 175.30 202.95 Z M 174.48 203.52 L 173.64 204.09 C 172.91 204.59 172.72 205.58 173.22 206.32 C 173.72 207.05 174.72 207.23 175.45 206.73 L 176.29 206.16 C 177.02 205.66 177.21 204.67 176.71 203.93 C 176.21 203.20 175.21 203.02 174.48 203.52 Z M 173.65 204.08 L 172.81 204.65 C 172.07 205.15 171.88 206.14 172.38 206.88 C 172.88 207.61 173.87 207.80 174.61 207.31 L 175.45 206.74 C 176.18 206.24 176.37 205.24 175.88 204.51 C 175.38 203.78 174.38 203.58 173.65 204.08 Z M 172.81 204.64 L 171.97 205.21 C 171.24 205.70 171.04 206.70 171.53 207.44 C 172.03 208.17 173.03 208.37 173.76 207.88 L 174.60 207.31 C 175.34 206.82 175.54 205.82 175.04 205.08 C 174.55 204.35 173.55 204.15 172.81 204.64 Z M 171.98 205.20 L 171.14 205.75 C 170.40 206.25 170.20 207.24 170.69 207.98 C 171.18 208.73 172.18 208.93 172.92 208.44 L 173.76 207.88 C 174.50 207.39 174.70 206.39 174.21 205.65 C 173.72 204.91 172.72 204.71 171.98 205.20 Z M 171.15 205.75 L 170.31 206.30 C 169.57 206.79 169.36 207.78 169.84 208.53 C 170.33 209.27 171.33 209.48 172.07 208.99 L 172.91 208.44 C 173.66 207.96 173.87 206.96 173.38 206.21 C 172.89 205.47 171.89 205.26 171.15 205.75 Z M 170.32 206.29 L 169.45 206.85 C 168.70 207.34 168.49 208.33 168.97 209.08 C 169.45 209.83 170.45 210.04 171.20 209.56 L 172.07 209.00 C 172.81 208.52 173.03 207.52 172.55 206.77 C 172.06 206.02 171.07 205.81 170.32 206.29 Z M 169.46 206.85 L 168.60 207.40 C 167.85 207.88 167.63 208.87 168.11 209.62 C 168.58 210.37 169.58 210.59 170.33 210.11 L 171.19 209.56 C 171.94 209.09 172.16 208.09 171.68 207.34 C 171.20 206.59 170.21 206.37 169.46 206.85 Z M 168.60 207.39 L 167.75 207.93 C 167.00 208.41 166.77 209.40 167.25 210.16 C 167.72 210.91 168.72 211.13 169.47 210.66 L 170.32 210.12 C 171.08 209.64 171.30 208.65 170.83 207.89 C 170.35 207.14 169.36 206.92 168.60 207.39 Z M 167.75 207.93 L 166.91 208.46 C 166.15 208.94 165.92 209.93 166.40 210.68 C 166.87 211.44 167.86 211.66 168.62 211.19 L 169.47 210.66 C 170.22 210.19 170.45 209.19 169.97 208.44 C 169.50 207.69 168.51 207.46 167.75 207.93 Z M 166.91 208.46 L 166.07 208.99 C 165.31 209.46 165.08 210.45 165.55 211.20 C 166.02 211.96 167.02 212.19 167.77 211.72 L 168.61 211.19 C 169.37 210.72 169.60 209.73 169.13 208.98 C 168.66 208.22 167.66 207.99 166.91 208.46 Z M 166.07 208.98 L 165.23 209.50 C 164.48 209.97 164.24 210.97 164.71 211.72 C 165.18 212.48 166.18 212.71 166.93 212.24 L 167.77 211.72 C 168.52 211.25 168.76 210.26 168.29 209.50 C 167.82 208.75 166.82 208.51 166.07 208.98 Z M 165.23 209.50 L 164.40 210.02 C 163.64 210.49 163.41 211.48 163.88 212.24 C 164.35 212.99 165.34 213.23 166.10 212.76 L 166.93 212.24 C 167.69 211.77 167.92 210.78 167.45 210.02 C 166.98 209.27 165.99 209.04 165.23 209.50 Z M 164.40 210.02 L 163.57 210.54 C 162.81 211.01 162.58 212.00 163.05 212.75 C 163.52 213.51 164.51 213.74 165.27 213.27 L 166.10 212.76 C 166.85 212.29 167.09 211.30 166.62 210.54 C 166.15 209.78 165.15 209.55 164.40 210.02 Z M 163.57 210.54 L 162.71 211.07 C 161.96 211.54 161.73 212.53 162.20 213.29 C 162.67 214.04 163.66 214.27 164.42 213.80 L 165.27 213.27 C 166.03 212.80 166.26 211.81 165.79 211.05 C 165.32 210.30 164.32 210.07 163.57 210.54 Z M 162.71 211.07 L 161.85 211.61 C 161.09 212.08 160.86 213.08 161.34 213.83 C 161.81 214.59 162.80 214.82 163.56 214.34 L 164.42 213.80 C 165.18 213.33 165.40 212.34 164.93 211.58 C 164.46 210.83 163.46 210.60 162.71 211.07 Z M 161.84 211.61 L 160.99 212.15 C 160.23 212.62 160.00 213.62 160.48 214.37 C 160.95 215.13 161.95 215.36 162.70 214.88 L 163.56 214.34 C 164.32 213.87 164.54 212.87 164.07 212.12 C 163.59 211.36 162.60 211.14 161.84 211.61 Z M 160.98 212.15 L 160.13 212.69 C 159.38 213.16 159.15 214.16 159.62 214.91 C 160.10 215.67 161.10 215.90 161.85 215.42 L 162.70 214.88 C 163.46 214.41 163.69 213.41 163.21 212.66 C 162.74 211.90 161.74 211.67 160.98 212.15 Z M 160.13 212.69 L 159.28 213.22 C 158.53 213.70 158.30 214.69 158.78 215.45 C 159.25 216.20 160.25 216.43 161.01 215.95 L 161.85 215.42 C 162.61 214.94 162.84 213.95 162.36 213.19 C 161.88 212.44 160.88 212.21 160.13 212.69 Z M 159.28 213.22 L 158.44 213.75 C 157.68 214.23 157.46 215.23 157.94 215.98 C 158.41 216.74 159.41 216.96 160.17 216.49 L 161.01 215.96 C 161.76 215.48 161.99 214.48 161.51 213.72 C 161.04 212.97 160.04 212.74 159.28 213.22 Z M 158.44 213.75 L 157.61 214.27 C 156.85 214.75 156.62 215.75 157.10 216.51 C 157.58 217.27 158.58 217.49 159.33 217.01 L 160.17 216.49 C 160.93 216.01 161.15 215.01 160.67 214.25 C 160.20 213.50 159.20 213.27 158.44 213.75 Z M 157.60 214.27 L 156.78 214.79 C 156.02 215.27 155.79 216.27 156.27 217.03 C 156.75 217.79 157.75 218.01 158.51 217.54 L 159.34 217.02 C 160.09 216.54 160.32 215.54 159.84 214.78 C 159.36 214.02 158.36 213.80 157.60 214.27 Z M 156.78 214.79 L 155.92 215.33 C 155.17 215.81 154.94 216.81 155.42 217.57 C 155.89 218.33 156.90 218.55 157.65 218.08 L 158.51 217.54 C 159.27 217.06 159.49 216.06 159.02 215.30 C 158.54 214.54 157.54 214.32 156.78 214.79 Z M 155.93 215.33 L 155.05 215.88 C 154.29 216.36 154.07 217.36 154.54 218.12 C 155.02 218.87 156.02 219.10 156.78 218.63 L 157.65 218.08 C 158.41 217.60 158.64 216.60 158.16 215.84 C 157.69 215.08 156.68 214.85 155.93 215.33 Z M 155.06 215.88 L 154.19 216.42 C 153.43 216.89 153.20 217.89 153.68 218.65 C 154.15 219.41 155.15 219.64 155.91 219.17 L 156.78 218.63 C 157.54 218.15 157.77 217.15 157.29 216.39 C 156.82 215.63 155.81 215.40 155.06 215.88 Z M 154.19 216.42 L 153.34 216.95 C 152.58 217.42 152.35 218.42 152.82 219.18 C 153.29 219.95 154.30 220.18 155.06 219.70 L 155.91 219.17 C 156.67 218.70 156.90 217.70 156.43 216.93 C 155.96 216.17 154.96 215.94 154.19 216.42 Z M 153.34 216.95 L 152.50 217.47 C 151.73 217.94 151.50 218.94 151.97 219.71 C 152.44 220.47 153.44 220.70 154.21 220.23 L 155.05 219.71 C 155.81 219.23 156.05 218.23 155.58 217.47 C 155.11 216.71 154.10 216.47 153.34 216.95 Z M 152.50 217.47 L 151.66 217.98 C 150.90 218.45 150.66 219.45 151.13 220.22 C 151.60 220.98 152.60 221.22 153.36 220.75 L 154.20 220.23 C 154.97 219.76 155.20 218.76 154.73 218.00 C 154.26 217.24 153.26 217.00 152.50 217.47 Z M 151.67 217.98 L 150.84 218.49 C 150.07 218.96 149.83 219.96 150.30 220.72 C 150.76 221.49 151.76 221.73 152.53 221.26 L 153.36 220.75 C 154.12 220.29 154.37 219.29 153.90 218.52 C 153.43 217.76 152.43 217.51 151.67 217.98 Z M 150.84 218.49 L 150.01 218.99 C 149.25 219.45 149.00 220.45 149.46 221.22 C 149.93 221.98 150.93 222.23 151.69 221.76 L 152.52 221.26 C 153.29 220.80 153.53 219.80 153.07 219.03 C 152.61 218.27 151.61 218.02 150.84 218.49 Z M 150.02 218.98 L 149.13 219.52 C 148.36 219.98 148.11 220.97 148.57 221.74 C 149.03 222.51 150.02 222.76 150.79 222.30 L 151.69 221.77 C 152.46 221.31 152.71 220.31 152.25 219.54 C 151.79 218.77 150.79 218.52 150.02 218.98 Z M 149.13 219.51 L 148.25 220.03 C 147.48 220.49 147.22 221.49 147.68 222.26 C 148.13 223.03 149.13 223.29 149.90 222.83 L 150.79 222.31 C 151.56 221.85 151.82 220.86 151.36 220.08 C 150.90 219.31 149.91 219.05 149.13 219.51 Z M 148.26 220.02 L 147.38 220.53 C 146.60 220.98 146.34 221.98 146.79 222.76 C 147.24 223.54 148.24 223.80 149.02 223.35 L 149.89 222.84 C 150.67 222.39 150.94 221.39 150.48 220.61 C 150.03 219.84 149.04 219.57 148.26 220.02 Z M 147.39 220.52 L 146.52 221.02 C 145.74 221.47 145.47 222.46 145.92 223.24 C 146.36 224.03 147.36 224.30 148.14 223.85 L 149.01 223.36 C 149.79 222.91 150.06 221.91 149.62 221.13 C 149.17 220.35 148.17 220.08 147.39 220.52 Z M 146.54 221.01 L 145.68 221.49 C 144.89 221.93 144.61 222.93 145.05 223.71 C 145.49 224.50 146.48 224.78 147.27 224.34 L 148.13 223.86 C 148.92 223.42 149.20 222.43 148.76 221.64 C 148.32 220.85 147.32 220.57 146.54 221.01 Z M 145.69 221.48 L 144.84 221.95 C 144.05 222.38 143.76 223.37 144.19 224.17 C 144.62 224.96 145.62 225.25 146.41 224.82 L 147.26 224.35 C 148.05 223.92 148.34 222.92 147.91 222.13 C 147.47 221.34 146.48 221.05 145.69 221.48 Z M 144.85 221.94 L 144.00 222.39 C 143.20 222.82 142.90 223.81 143.33 224.61 C 143.75 225.41 144.74 225.71 145.54 225.28 L 146.39 224.83 C 147.19 224.40 147.49 223.41 147.07 222.61 C 146.64 221.81 145.65 221.51 144.85 221.94 Z M 144.02 222.38 L 143.13 222.84 C 142.32 223.26 142.01 224.25 142.42 225.05 C 142.84 225.85 143.83 226.17 144.63 225.75 L 145.52 225.29 C 146.33 224.88 146.64 223.89 146.22 223.08 C 145.81 222.28 144.82 221.97 144.02 222.38 Z M 143.15 222.83 L 142.26 223.28 C 141.45 223.68 141.12 224.67 141.52 225.48 C 141.93 226.29 142.91 226.61 143.72 226.21 L 144.61 225.76 C 145.42 225.36 145.75 224.37 145.34 223.57 C 144.94 222.76 143.95 222.43 143.15 222.83 Z M 142.28 223.27 L 141.39 223.70 C 140.57 224.09 140.23 225.07 140.62 225.89 C 141.02 226.70 141.99 227.04 142.81 226.65 L 143.70 226.22 C 144.51 225.83 144.86 224.85 144.46 224.03 C 144.07 223.22 143.09 222.88 142.28 223.27 Z M 141.41 223.69 L 140.51 224.11 C 139.69 224.49 139.33 225.46 139.71 226.28 C 140.09 227.10 141.07 227.46 141.89 227.08 L 142.79 226.66 C 143.61 226.28 143.96 225.31 143.58 224.49 C 143.20 223.66 142.23 223.31 141.41 223.69 Z M 140.53 224.10 L 139.62 224.50 C 138.79 224.87 138.42 225.84 138.79 226.66 C 139.16 227.49 140.13 227.86 140.95 227.49 L 141.86 227.09 C 142.69 226.72 143.06 225.75 142.69 224.93 C 142.33 224.10 141.36 223.73 140.53 224.10 Z M 139.64 224.49 L 138.71 224.89 C 137.88 225.24 137.49 226.21 137.85 227.04 C 138.20 227.87 139.16 228.26 140.00 227.90 L 140.93 227.50 C 141.76 227.15 142.15 226.19 141.79 225.36 C 141.44 224.52 140.47 224.14 139.64 224.49 Z M 138.73 224.88 L 137.79 225.26 C 136.96 225.60 136.56 226.56 136.90 227.40 C 137.24 228.24 138.20 228.64 139.03 228.29 L 139.97 227.91 C 140.81 227.57 141.21 226.61 140.87 225.78 C 140.53 224.94 139.57 224.54 138.73 224.88 Z M 137.82 225.25 L 136.86 225.62 C 136.02 225.95 135.60 226.90 135.93 227.75 C 136.26 228.59 137.21 229.01 138.06 228.68 L 139.01 228.31 C 139.85 227.98 140.27 227.03 139.94 226.18 C 139.61 225.34 138.66 224.92 137.82 225.25 Z M 136.89 225.61 L 135.93 225.97 C 135.08 226.29 134.65 227.23 134.96 228.08 C 135.28 228.93 136.22 229.36 137.07 229.05 L 138.03 228.69 C 138.88 228.37 139.32 227.43 139.00 226.58 C 138.68 225.73 137.74 225.30 136.89 225.61 Z M 135.95 225.96 L 134.99 226.30 C 134.14 226.60 133.69 227.54 133.99 228.40 C 134.29 229.25 135.23 229.70 136.09 229.40 L 137.05 229.06 C 137.90 228.76 138.35 227.82 138.05 226.96 C 137.75 226.11 136.81 225.66 135.95 225.96 Z M 135.02 226.29 L 134.07 226.60 C 133.21 226.89 132.74 227.82 133.03 228.68 C 133.32 229.54 134.25 230.01 135.11 229.72 L 136.06 229.41 C 136.92 229.12 137.39 228.19 137.10 227.33 C 136.81 226.47 135.88 226.00 135.02 226.29 Z M 134.11 226.59 L 133.18 226.88 C 132.31 227.14 131.82 228.07 132.09 228.94 C 132.36 229.80 133.28 230.29 134.15 230.02 L 135.08 229.74 C 135.95 229.47 136.43 228.55 136.16 227.68 C 135.90 226.81 134.97 226.32 134.11 226.59 Z M 133.22 226.86 L 132.27 227.13 C 131.40 227.37 130.89 228.28 131.13 229.16 C 131.38 230.04 132.29 230.55 133.17 230.30 L 134.11 230.04 C 134.98 229.79 135.50 228.88 135.25 228.00 C 135.00 227.13 134.09 226.62 133.22 226.86 Z M 132.33 227.11 L 131.26 227.37 C 130.38 227.59 129.84 228.49 130.06 229.37 C 130.28 230.26 131.17 230.80 132.05 230.58 L 133.12 230.32 C 134.00 230.10 134.54 229.20 134.32 228.32 C 134.10 227.43 133.21 226.89 132.33 227.11 Z M 131.32 227.36 L 130.31 227.57 C 129.42 227.76 128.84 228.63 129.03 229.52 C 129.22 230.42 130.09 230.99 130.98 230.80 L 132.00 230.59 C 132.89 230.40 133.46 229.53 133.27 228.64 C 133.09 227.75 132.21 227.18 131.32 227.36 Z M 130.37 227.56 L 129.39 227.73 C 128.49 227.88 127.89 228.74 128.05 229.63 C 128.20 230.53 129.05 231.13 129.95 230.98 L 130.92 230.81 C 131.82 230.66 132.42 229.81 132.27 228.91 C 132.11 228.01 131.26 227.41 130.37 227.56 Z M 129.45 227.72 L 128.51 227.85 C 127.61 227.97 126.98 228.80 127.10 229.70 C 127.22 230.61 128.05 231.24 128.95 231.12 L 129.89 230.99 C 130.79 230.87 131.43 230.04 131.30 229.13 C 131.18 228.23 130.35 227.60 129.45 227.72 Z M 128.56 227.84 L 127.65 227.94 C 126.75 228.03 126.09 228.84 126.18 229.74 C 126.27 230.65 127.08 231.31 127.99 231.21 L 128.90 231.12 C 129.80 231.03 130.46 230.22 130.37 229.31 C 130.28 228.41 129.47 227.75 128.56 227.84 Z M 127.70 227.93 L 126.67 228.00 C 125.76 228.07 125.08 228.85 125.14 229.76 C 125.21 230.67 125.99 231.36 126.90 231.29 L 127.93 231.22 C 128.84 231.16 129.53 230.37 129.46 229.46 C 129.40 228.55 128.61 227.87 127.70 227.93 Z M 126.72 228.00 L 125.70 228.04 C 124.79 228.07 124.08 228.84 124.12 229.75 C 124.15 230.67 124.92 231.38 125.83 231.34 L 126.85 231.30 C 127.77 231.26 128.47 230.49 128.44 229.58 C 128.40 228.67 127.63 227.96 126.72 228.00 Z M 125.74 228.03 L 124.74 228.05 C 123.83 228.06 123.10 228.82 123.11 229.73 C 123.13 230.64 123.88 231.37 124.80 231.36 L 125.79 231.34 C 126.71 231.33 127.44 230.58 127.42 229.66 C 127.41 228.75 126.65 228.02 125.74 228.03 Z M 124.77 228.05 L 123.81 228.04 C 122.89 228.04 122.14 228.78 122.14 229.70 C 122.14 230.61 122.88 231.36 123.80 231.36 L 124.77 231.36 C 125.68 231.37 126.43 230.62 126.43 229.71 C 126.43 228.79 125.69 228.05 124.77 228.05 Z M 123.83 228.04 L 122.83 228.03 C 121.91 228.01 121.16 228.74 121.14 229.66 C 121.13 230.58 121.86 231.33 122.78 231.35 L 123.78 231.36 C 124.69 231.38 125.45 230.64 125.46 229.73 C 125.48 228.81 124.74 228.05 123.83 228.04 Z M 122.86 228.03 L 121.81 227.99 C 120.89 227.97 120.13 228.69 120.10 229.60 C 120.07 230.52 120.79 231.29 121.71 231.31 L 122.75 231.35 C 123.67 231.38 124.44 230.66 124.46 229.74 C 124.49 228.82 123.77 228.06 122.86 228.03 Z M 121.87 228.00 L 120.87 227.93 C 119.96 227.87 119.16 228.56 119.10 229.47 C 119.04 230.39 119.73 231.18 120.64 231.24 L 121.65 231.31 C 122.56 231.37 123.35 230.68 123.41 229.77 C 123.48 228.85 122.79 228.06 121.87 228.00 Z M 120.97 227.94 L 120.02 227.82 C 119.11 227.70 118.28 228.34 118.16 229.25 C 118.04 230.16 118.68 230.99 119.59 231.10 L 120.54 231.23 C 121.45 231.35 122.28 230.71 122.40 229.80 C 122.52 228.89 121.88 228.06 120.97 227.94 Z M 120.17 227.85 L 119.25 227.64 C 118.36 227.44 117.48 228.01 117.28 228.90 C 117.08 229.79 117.64 230.68 118.53 230.87 L 119.44 231.08 C 120.34 231.28 121.22 230.71 121.42 229.82 C 121.62 228.93 121.06 228.04 120.17 227.85 Z M 119.47 227.70 L 118.59 227.38 C 117.73 227.07 116.78 227.51 116.47 228.37 C 116.15 229.23 116.59 230.18 117.45 230.49 L 118.32 230.81 C 119.18 231.13 120.13 230.69 120.45 229.83 C 120.76 228.97 120.32 228.02 119.47 227.70 Z M 118.85 227.50 L 118.02 227.02 C 117.23 226.56 116.21 226.83 115.75 227.62 C 115.29 228.41 115.56 229.43 116.35 229.89 L 117.19 230.37 C 117.98 230.83 119.00 230.56 119.46 229.77 C 119.92 228.98 119.65 227.96 118.85 227.50 Z M 118.27 227.19 L 117.46 226.50 C 116.76 225.90 115.71 225.98 115.11 226.68 C 114.52 227.38 114.60 228.43 115.30 229.02 L 116.11 229.72 C 116.80 230.31 117.85 230.23 118.45 229.54 C 119.05 228.84 118.97 227.79 118.27 227.19 Z M 117.63 226.67 L 117.00 225.95 C 116.40 225.25 115.34 225.18 114.65 225.79 C 113.96 226.39 113.89 227.44 114.49 228.13 L 115.12 228.85 C 115.73 229.55 116.78 229.62 117.47 229.01 C 118.16 228.41 118.23 227.36 117.63 226.67 Z M 117.09 226.06 L 116.55 225.32 C 116.01 224.58 114.97 224.42 114.23 224.96 C 113.49 225.51 113.33 226.55 113.87 227.29 L 114.41 228.02 C 114.95 228.76 115.99 228.92 116.73 228.38 C 117.47 227.84 117.63 226.80 117.09 226.06 Z M 116.60 225.40 L 116.06 224.58 C 115.56 223.81 114.53 223.60 113.77 224.10 C 113.00 224.60 112.78 225.62 113.29 226.39 L 113.82 227.21 C 114.32 227.98 115.35 228.19 116.12 227.69 C 116.88 227.19 117.10 226.16 116.60 225.40 Z M 116.09 224.63 L 115.55 223.74 C 115.08 222.96 114.06 222.71 113.28 223.18 C 112.50 223.65 112.25 224.67 112.72 225.45 L 113.26 226.34 C 113.73 227.12 114.75 227.37 115.53 226.90 C 116.31 226.43 116.56 225.41 116.09 224.63 Z M 115.57 223.77 L 115.03 222.84 C 114.57 222.05 113.56 221.78 112.77 222.23 C 111.98 222.69 111.71 223.70 112.17 224.49 L 112.71 225.42 C 113.16 226.21 114.17 226.48 114.96 226.03 C 115.75 225.57 116.02 224.56 115.57 223.77 Z M 115.03 222.86 L 114.50 221.90 C 114.05 221.11 113.05 220.83 112.25 221.28 C 111.46 221.72 111.18 222.73 111.63 223.52 L 112.16 224.47 C 112.61 225.27 113.61 225.55 114.41 225.10 C 115.20 224.65 115.48 223.65 115.03 222.86 Z"
      fill="black"
      fill-rule="nonzero" /></svg>