<svg xmlns="http://www.w3.org/2000/svg" width="300" height="300" viewBox="0 0 300 300">
<path d="M 160.23 91.74 L 160.22 90.83 C 160.22 89.96 159.51 89.27 158.65 89.28 C 157.79 89.28 157.10 89.98 157.10 90.85 L 157.11 91.76 C 157.11 92.62 157.82 93.31 158.68 93.31 C 159.54 93.30 160.23 92.60 160.23 91.74 Z M 160.22 90.77 L 160.18 89.82 C 160.14 88.96 159.42 88.29 158.55 88.33 C 157.69 88.36 157.03 89.09 157.06 89.95 L 157.10 90.90 C 157.14 91.76 157.87 92.43 158.73 92.40 C 159.59 92.36 160.26 91.63 160.22 90.77 Z M 160.17 89.72 L 160.06 88.69 C 159.97 87.83 159.20 87.21 158.34 87.30 C 157.49 87.39 156.87 88.16 156.96 89.02 L 157.07 90.05 C 157.16 90.91 157.93 91.53 158.79 91.44 C 159.65 91.35 160.27 90.58 160.17 89.72 Z M 160.05 88.57 L 159.83 87.42 C 159.67 86.57 158.86 86.01 158.01 86.17 C 157.16 86.33 156.60 87.14 156.76 87.99 L 156.98 89.14 C 157.13 89.99 157.95 90.55 158.80 90.39 C 159.65 90.23 160.20 89.41 160.05 88.57 Z M 159.81 87.30 L 159.48 86.10 C 159.26 85.26 158.41 84.77 157.57 84.99 C 156.74 85.21 156.25 86.07 156.47 86.90 L 156.79 88.10 C 157.01 88.94 157.86 89.43 158.70 89.21 C 159.53 88.99 160.03 88.13 159.81 87.30 Z M 159.44 85.96 L 159.07 84.93 C 158.77 84.12 157.87 83.70 157.06 84.00 C 156.25 84.29 155.84 85.19 156.13 86.00 L 156.51 87.03 C 156.80 87.84 157.70 88.26 158.51 87.96 C 159.32 87.67 159.74 86.77 159.44 85.96 Z M 158.93 84.65 L 158.55 84.03 C 158.11 83.29 157.15 83.06 156.41 83.50 C 155.67 83.95 155.44 84.91 155.88 85.65 L 156.26 86.27 C 156.71 87.01 157.67 87.25 158.41 86.80 C 159.15 86.35 159.38 85.39 158.93 84.65 Z M 157.04 83.29 L 156.67 83.33 C 155.81 83.43 155.20 84.20 155.30 85.06 C 155.40 85.92 156.18 86.53 157.03 86.43 L 157.40 86.39 C 158.26 86.29 158.87 85.51 158.77 84.66 C 158.67 83.80 157.89 83.19 157.04 83.29 Z M 155.39 84.33 L 155.09 85.12 C 154.78 85.93 155.19 86.83 155.99 87.14 C 156.80 87.44 157.70 87.04 158.01 86.23 L 158.31 85.44 C 158.62 84.63 158.21 83.73 157.41 83.42 C 156.60 83.11 155.70 83.52 155.39 84.33 Z M 155.01 85.39 L 154.79 86.62 C 154.63 87.46 155.19 88.28 156.03 88.44 C 156.88 88.60 157.70 88.04 157.85 87.19 L 158.08 85.96 C 158.24 85.12 157.68 84.30 156.84 84.14 C 155.99 83.98 155.17 84.54 155.01 85.39 Z M 154.77 86.70 L 154.62 87.86 C 154.51 88.71 155.11 89.50 155.97 89.61 C 156.82 89.72 157.61 89.12 157.72 88.26 L 157.87 87.11 C 157.98 86.25 157.38 85.47 156.52 85.36 C 155.67 85.24 154.88 85.85 154.77 86.70 Z M 154.62 87.90 L 154.51 88.89 C 154.42 89.75 155.04 90.51 155.90 90.60 C 156.76 90.69 157.53 90.07 157.62 89.21 L 157.72 88.22 C 157.81 87.37 157.19 86.60 156.33 86.51 C 155.47 86.42 154.71 87.04 154.62 87.90 Z M 154.51 88.91 L 154.42 89.89 C 154.35 90.75 154.98 91.51 155.84 91.59 C 156.70 91.66 157.46 91.03 157.53 90.17 L 157.62 89.19 C 157.70 88.33 157.06 87.57 156.20 87.50 C 155.34 87.42 154.59 88.05 154.51 88.91 Z M 154.42 89.91 L 154.34 90.90 C 154.27 91.76 154.91 92.51 155.77 92.58 C 156.63 92.65 157.38 92.01 157.45 91.15 L 157.53 90.16 C 157.60 89.30 156.96 88.54 156.10 88.48 C 155.24 88.41 154.49 89.05 154.42 89.91 Z M 154.34 90.90 L 154.26 91.86 C 154.19 92.72 154.84 93.47 155.69 93.54 C 156.55 93.61 157.31 92.97 157.38 92.11 L 157.45 91.15 C 157.52 90.29 156.88 89.54 156.02 89.47 C 155.16 89.40 154.41 90.04 154.34 90.90 Z M 154.26 91.85 L 154.19 92.79 C 154.11 93.65 154.75 94.41 155.61 94.48 C 156.47 94.55 157.22 93.91 157.30 93.06 L 157.38 92.11 C 157.45 91.26 156.81 90.50 155.95 90.43 C 155.09 90.36 154.34 90.99 154.26 91.85 Z M 154.19 92.79 L 154.10 93.77 C 154.03 94.63 154.66 95.39 155.52 95.46 C 156.38 95.54 157.14 94.90 157.21 94.04 L 157.30 93.06 C 157.37 92.20 156.74 91.44 155.88 91.37 C 155.02 91.29 154.26 91.93 154.19 92.79 Z M 154.10 93.77 L 154.01 94.80 C 153.93 95.66 154.57 96.42 155.42 96.49 C 156.28 96.57 157.04 95.93 157.12 95.08 L 157.21 94.05 C 157.29 93.19 156.65 92.43 155.79 92.35 C 154.94 92.28 154.18 92.91 154.10 93.77 Z M 154.01 94.79 L 153.91 95.87 C 153.83 96.73 154.47 97.49 155.32 97.57 C 156.18 97.65 156.94 97.01 157.02 96.16 L 157.12 95.08 C 157.20 94.22 156.56 93.46 155.71 93.38 C 154.85 93.30 154.09 93.94 154.01 94.79 Z M 153.91 95.87 L 153.82 96.81 C 153.74 97.67 154.38 98.43 155.23 98.51 C 156.09 98.59 156.85 97.96 156.93 97.10 L 157.02 96.16 C 157.10 95.30 156.47 94.54 155.61 94.46 C 154.75 94.38 153.99 95.01 153.91 95.87 Z M 153.82 96.81 L 153.73 97.78 C 153.65 98.64 154.28 99.40 155.14 99.48 C 156.00 99.56 156.76 98.93 156.84 98.07 L 156.93 97.10 C 157.01 96.24 156.38 95.48 155.52 95.40 C 154.66 95.32 153.90 95.95 153.82 96.81 Z M 153.73 97.78 L 153.64 98.78 C 153.56 99.63 154.19 100.40 155.05 100.48 C 155.91 100.56 156.67 99.93 156.75 99.07 L 156.84 98.07 C 156.92 97.21 156.29 96.45 155.43 96.37 C 154.57 96.29 153.81 96.92 153.73 97.78 Z M 153.64 98.78 L 153.54 99.79 C 153.46 100.65 154.09 101.41 154.95 101.49 C 155.81 101.57 156.57 100.94 156.65 100.08 L 156.75 99.07 C 156.83 98.21 156.20 97.45 155.34 97.37 C 154.48 97.29 153.72 97.92 153.64 98.78 Z M 153.54 99.79 L 153.45 100.83 C 153.37 101.68 154.00 102.45 154.86 102.53 C 155.71 102.61 156.48 101.98 156.56 101.12 L 156.65 100.08 C 156.73 99.23 156.10 98.46 155.24 98.38 C 154.39 98.30 153.62 98.93 153.54 99.79 Z M 153.45 100.83 L 153.35 101.83 C 153.27 102.69 153.91 103.45 154.76 103.53 C 155.62 103.61 156.38 102.97 156.46 102.12 L 156.56 101.12 C 156.64 100.26 156.01 99.50 155.15 99.42 C 154.29 99.34 153.53 99.97 153.45 100.83 Z M 153.35 101.83 L 153.27 102.80 C 153.19 103.65 153.82 104.42 154.68 104.49 C 155.54 104.57 156.30 103.94 156.37 103.08 L 156.46 102.11 C 156.54 101.26 155.91 100.50 155.05 100.42 C 154.19 100.34 153.43 100.97 153.35 101.83 Z M 153.27 102.80 L 153.18 103.78 C 153.10 104.64 153.73 105.40 154.59 105.47 C 155.45 105.55 156.21 104.92 156.29 104.06 L 156.37 103.08 C 156.45 102.22 155.82 101.46 154.96 101.38 C 154.10 101.31 153.34 101.94 153.27 102.80 Z M 153.18 103.78 L 153.09 104.77 C 153.01 105.63 153.64 106.39 154.50 106.47 C 155.36 106.54 156.12 105.91 156.20 105.05 L 156.29 104.06 C 156.36 103.20 155.73 102.44 154.87 102.36 C 154.01 102.29 153.25 102.92 153.18 103.78 Z M 153.09 104.77 L 153.00 105.78 C 152.92 106.64 153.56 107.40 154.41 107.48 C 155.27 107.55 156.03 106.92 156.11 106.06 L 156.20 105.05 C 156.27 104.19 155.64 103.43 154.78 103.36 C 153.92 103.28 153.16 103.92 153.09 104.77 Z M 153.00 105.79 L 152.91 106.81 C 152.83 107.67 153.47 108.43 154.33 108.50 C 155.19 108.58 155.94 107.94 156.02 107.08 L 156.11 106.06 C 156.18 105.20 155.55 104.44 154.69 104.37 C 153.83 104.29 153.07 104.93 153.00 105.79 Z M 152.91 106.82 L 152.82 107.80 C 152.75 108.66 153.39 109.42 154.25 109.49 C 155.11 109.57 155.86 108.93 155.93 108.07 L 156.02 107.08 C 156.09 106.22 155.45 105.47 154.60 105.39 C 153.74 105.32 152.98 105.96 152.91 106.82 Z M 152.82 107.81 L 152.74 108.76 C 152.67 109.62 153.31 110.38 154.17 110.45 C 155.03 110.52 155.78 109.89 155.85 109.03 L 155.93 108.07 C 156.01 107.21 155.37 106.45 154.51 106.38 C 153.65 106.31 152.90 106.95 152.82 107.81 Z M 152.74 108.76 L 152.66 109.74 C 152.59 110.60 153.23 111.35 154.09 111.43 C 154.95 111.50 155.70 110.86 155.77 110.00 L 155.85 109.03 C 155.93 108.17 155.29 107.41 154.43 107.34 C 153.57 107.27 152.82 107.91 152.74 108.76 Z M 152.66 109.74 L 152.58 110.73 C 152.50 111.59 153.14 112.35 154.00 112.42 C 154.86 112.49 155.62 111.86 155.69 111.00 L 155.77 110.00 C 155.85 109.14 155.21 108.39 154.35 108.32 C 153.49 108.24 152.73 108.88 152.66 109.74 Z M 152.58 110.73 L 152.49 111.74 C 152.42 112.60 153.05 113.35 153.91 113.43 C 154.77 113.50 155.53 112.87 155.60 112.01 L 155.69 111.00 C 155.76 110.14 155.13 109.38 154.27 109.31 C 153.41 109.23 152.65 109.87 152.58 110.73 Z M 152.49 111.73 L 152.40 112.76 C 152.32 113.62 152.96 114.38 153.81 114.45 C 154.67 114.53 155.43 113.90 155.51 113.04 L 155.60 112.01 C 155.68 111.15 155.04 110.40 154.18 110.32 C 153.33 110.24 152.57 110.88 152.49 111.73 Z M 152.40 112.75 L 152.30 113.80 C 152.22 114.65 152.85 115.41 153.71 115.49 C 154.57 115.57 155.33 114.94 155.41 114.08 L 155.51 113.04 C 155.59 112.18 154.96 111.42 154.10 111.34 C 153.24 111.26 152.48 111.90 152.40 112.75 Z M 152.30 113.79 L 152.21 114.75 C 152.13 115.61 152.75 116.37 153.61 116.46 C 154.47 116.54 155.23 115.91 155.32 115.05 L 155.41 114.09 C 155.49 113.23 154.87 112.47 154.01 112.39 C 153.15 112.30 152.39 112.93 152.30 113.79 Z M 152.21 114.75 L 152.11 115.72 C 152.03 116.58 152.65 117.34 153.51 117.43 C 154.37 117.51 155.13 116.89 155.22 116.03 L 155.32 115.06 C 155.40 114.20 154.78 113.44 153.92 113.35 C 153.06 113.26 152.30 113.89 152.21 114.75 Z M 152.11 115.71 L 152.01 116.70 C 151.92 117.55 152.55 118.32 153.41 118.41 C 154.26 118.50 155.03 117.87 155.12 117.01 L 155.22 116.03 C 155.31 115.18 154.68 114.41 153.83 114.32 C 152.97 114.23 152.20 114.86 152.11 115.71 Z M 152.01 116.69 L 151.91 117.69 C 151.82 118.54 152.44 119.31 153.30 119.40 C 154.16 119.49 154.93 118.87 155.01 118.01 L 155.12 117.02 C 155.21 116.16 154.59 115.39 153.73 115.30 C 152.87 115.21 152.10 115.84 152.01 116.69 Z M 151.91 117.68 L 151.80 118.69 C 151.71 119.55 152.33 120.31 153.19 120.40 C 154.05 120.50 154.82 119.87 154.91 119.02 L 155.01 118.01 C 155.11 117.15 154.48 116.39 153.63 116.30 C 152.77 116.21 152.00 116.83 151.91 117.68 Z M 151.80 118.69 L 151.70 119.70 C 151.61 120.56 152.23 121.33 153.08 121.42 C 153.94 121.51 154.71 120.89 154.80 120.03 L 154.91 119.02 C 155.00 118.16 154.38 117.39 153.52 117.30 C 152.66 117.21 151.89 117.83 151.80 118.69 Z M 151.70 119.70 L 151.59 120.73 C 151.50 121.59 152.12 122.35 152.98 122.44 C 153.83 122.54 154.60 121.91 154.69 121.06 L 154.80 120.03 C 154.89 119.17 154.27 118.41 153.41 118.31 C 152.56 118.22 151.79 118.85 151.70 119.70 Z M 151.59 120.73 L 151.48 121.72 C 151.39 122.58 152.01 123.35 152.87 123.44 C 153.73 123.53 154.50 122.90 154.59 122.05 L 154.69 121.06 C 154.78 120.20 154.16 119.43 153.30 119.34 C 152.45 119.25 151.68 119.87 151.59 120.73 Z M 151.48 121.72 L 151.38 122.70 C 151.29 123.55 151.91 124.32 152.77 124.41 C 153.63 124.50 154.40 123.88 154.49 123.02 L 154.59 122.05 C 154.68 121.19 154.06 120.42 153.20 120.33 C 152.34 120.24 151.57 120.86 151.48 121.72 Z M 151.38 122.70 L 151.28 123.68 C 151.19 124.54 151.81 125.30 152.67 125.39 C 153.53 125.48 154.30 124.86 154.39 124.00 L 154.49 123.02 C 154.58 122.16 153.95 121.39 153.09 121.30 C 152.24 121.22 151.47 121.84 151.38 122.70 Z M 151.28 123.68 L 151.18 124.67 C 151.09 125.53 151.71 126.29 152.57 126.38 C 153.43 126.47 154.20 125.84 154.28 124.99 L 154.39 124.00 C 154.47 123.14 153.85 122.37 152.99 122.29 C 152.13 122.20 151.37 122.82 151.28 123.68 Z M 151.18 124.67 L 151.08 125.67 C 150.99 126.52 151.61 127.29 152.47 127.38 C 153.33 127.47 154.10 126.84 154.18 125.98 L 154.28 124.99 C 154.37 124.13 153.75 123.36 152.89 123.27 C 152.03 123.19 151.27 123.81 151.18 124.67 Z M 151.08 125.67 L 150.98 126.67 C 150.89 127.53 151.51 128.30 152.37 128.38 C 153.23 128.47 154.00 127.84 154.08 126.99 L 154.18 125.98 C 154.27 125.12 153.64 124.36 152.79 124.27 C 151.93 124.18 151.16 124.81 151.08 125.67 Z M 150.98 126.67 L 150.87 127.68 C 150.79 128.54 151.41 129.31 152.27 129.39 C 153.13 129.48 153.89 128.85 153.98 128.00 L 154.08 126.98 C 154.17 126.13 153.54 125.36 152.68 125.28 C 151.83 125.19 151.06 125.82 150.98 126.67 Z M 150.87 127.69 L 150.77 128.70 C 150.69 129.56 151.31 130.33 152.17 130.41 C 153.03 130.50 153.79 129.87 153.88 129.01 L 153.98 128.00 C 154.07 127.14 153.44 126.37 152.58 126.29 C 151.72 126.20 150.96 126.83 150.87 127.69 Z M 150.77 128.71 L 150.68 129.68 C 150.59 130.54 151.22 131.31 152.08 131.39 C 152.93 131.48 153.70 130.85 153.78 129.99 L 153.88 129.01 C 153.96 128.15 153.34 127.39 152.48 127.31 C 151.62 127.22 150.86 127.85 150.77 128.71 Z M 150.68 129.68 L 150.58 130.66 C 150.49 131.51 151.12 132.28 151.98 132.36 C 152.84 132.45 153.60 131.82 153.69 130.96 L 153.78 129.99 C 153.87 129.13 153.24 128.37 152.38 128.28 C 151.52 128.20 150.76 128.83 150.68 129.68 Z M 150.58 130.66 L 150.48 131.63 C 150.40 132.49 151.03 133.26 151.88 133.34 C 152.74 133.42 153.51 132.80 153.59 131.94 L 153.69 130.96 C 153.77 130.10 153.14 129.34 152.29 129.25 C 151.43 129.17 150.66 129.80 150.58 130.66 Z M 150.48 131.63 L 150.39 132.62 C 150.30 133.48 150.93 134.24 151.79 134.33 C 152.65 134.41 153.41 133.78 153.49 132.92 L 153.59 131.94 C 153.67 131.08 153.05 130.32 152.19 130.23 C 151.33 130.15 150.57 130.78 150.48 131.63 Z M 150.39 132.62 L 150.29 133.61 C 150.20 134.47 150.83 135.24 151.69 135.32 C 152.55 135.40 153.31 134.78 153.40 133.92 L 153.49 132.93 C 153.58 132.07 152.95 131.30 152.09 131.22 C 151.23 131.13 150.47 131.76 150.39 132.62 Z M 150.29 133.61 L 150.19 134.62 C 150.11 135.47 150.73 136.24 151.59 136.32 C 152.45 136.41 153.21 135.78 153.30 134.92 L 153.40 133.92 C 153.48 133.06 152.85 132.30 152.00 132.21 C 151.14 132.13 150.37 132.76 150.29 133.61 Z M 150.19 134.62 L 150.09 135.63 C 150.01 136.49 150.63 137.25 151.49 137.34 C 152.35 137.42 153.11 136.79 153.20 135.94 L 153.30 134.92 C 153.38 134.07 152.76 133.30 151.90 133.22 C 151.04 133.13 150.28 133.76 150.19 134.62 Z M 150.09 135.63 L 149.99 136.65 C 149.90 137.51 150.53 138.27 151.39 138.36 C 152.25 138.44 153.01 137.82 153.10 136.96 L 153.20 135.94 C 153.28 135.08 152.66 134.31 151.80 134.23 C 150.94 134.14 150.18 134.77 150.09 135.63 Z M 149.99 136.65 L 149.89 137.67 C 149.80 138.53 150.43 139.29 151.29 139.38 C 152.14 139.46 152.91 138.84 152.99 137.98 L 153.10 136.96 C 153.18 136.10 152.56 135.34 151.70 135.25 C 150.84 135.17 150.07 135.79 149.99 136.65 Z M 149.89 137.67 L 149.78 138.67 C 149.70 139.53 150.32 140.30 151.18 140.38 C 152.04 140.47 152.81 139.84 152.89 138.99 L 153.00 137.98 C 153.08 137.12 152.46 136.36 151.60 136.27 C 150.74 136.18 149.97 136.81 149.89 137.67 Z M 149.78 138.67 L 149.68 139.68 C 149.59 140.54 150.22 141.31 151.08 141.39 C 151.94 141.48 152.71 140.86 152.79 140.00 L 152.90 138.99 C 152.98 138.13 152.36 137.36 151.50 137.27 C 150.64 137.19 149.87 137.81 149.78 138.67 Z M 149.68 139.68 L 149.58 140.69 C 149.49 141.55 150.11 142.32 150.97 142.41 C 151.83 142.50 152.60 141.87 152.69 141.01 L 152.79 140.00 C 152.88 139.14 152.26 138.37 151.40 138.28 C 150.54 138.19 149.77 138.82 149.68 139.68 Z M 149.57 140.69 L 149.47 141.70 C 149.38 142.56 150.00 143.33 150.87 143.42 C 151.73 143.51 152.50 142.88 152.59 142.02 L 152.69 141.01 C 152.78 140.15 152.16 139.38 151.30 139.29 C 150.43 139.20 149.66 139.83 149.57 140.69 Z M 149.47 141.69 L 149.36 142.70 C 149.27 143.56 149.90 144.33 150.76 144.42 C 151.62 144.51 152.39 143.89 152.48 143.03 L 152.59 142.02 C 152.68 141.16 152.05 140.39 151.19 140.30 C 150.33 140.21 149.56 140.83 149.47 141.69 Z M 149.36 142.69 L 149.25 143.68 C 149.16 144.55 149.79 145.32 150.65 145.41 C 151.51 145.51 152.28 144.88 152.38 144.02 L 152.48 143.03 C 152.58 142.17 151.95 141.39 151.09 141.30 C 150.23 141.21 149.45 141.83 149.36 142.69 Z M 149.25 143.68 L 149.15 144.66 C 149.05 145.52 149.67 146.30 150.54 146.39 C 151.40 146.49 152.18 145.86 152.27 145.00 L 152.38 144.02 C 152.47 143.16 151.85 142.38 150.99 142.29 C 150.12 142.20 149.35 142.82 149.25 143.68 Z M 149.14 144.65 L 149.04 145.61 C 148.94 146.48 149.56 147.25 150.43 147.35 C 151.29 147.45 152.07 146.83 152.16 145.96 L 152.27 145.00 C 152.37 144.14 151.75 143.36 150.88 143.27 C 150.02 143.17 149.24 143.79 149.14 144.65 Z M 149.04 145.61 L 148.92 146.65 C 148.82 147.51 149.44 148.30 150.30 148.39 C 151.17 148.49 151.95 147.87 152.05 147.01 L 152.16 145.97 C 152.26 145.10 151.64 144.32 150.78 144.22 C 149.92 144.12 149.14 144.74 149.04 145.61 Z M 148.92 146.65 L 148.79 147.69 C 148.69 148.55 149.31 149.34 150.17 149.44 C 151.04 149.54 151.82 148.92 151.92 148.06 L 152.05 147.01 C 152.15 146.15 151.53 145.37 150.67 145.27 C 149.80 145.16 149.02 145.78 148.92 146.65 Z M 148.79 147.69 L 148.67 148.71 C 148.57 149.57 149.18 150.36 150.05 150.46 C 150.91 150.56 151.70 149.95 151.80 149.08 L 151.92 148.06 C 152.03 147.20 151.41 146.41 150.55 146.31 C 149.68 146.21 148.90 146.82 148.79 147.69 Z M 148.67 148.70 L 148.55 149.70 C 148.44 150.56 149.06 151.35 149.92 151.46 C 150.79 151.56 151.58 150.95 151.68 150.08 L 151.80 149.08 C 151.91 148.22 151.29 147.43 150.43 147.33 C 149.56 147.22 148.78 147.84 148.67 148.70 Z M 148.55 149.70 L 148.43 150.67 C 148.32 151.54 148.94 152.33 149.80 152.43 C 150.67 152.54 151.46 151.92 151.56 151.06 L 151.68 150.08 C 151.79 149.22 151.17 148.43 150.31 148.32 C 149.44 148.22 148.65 148.83 148.55 149.70 Z M 148.43 150.67 L 148.31 151.63 C 148.20 152.50 148.82 153.29 149.68 153.39 C 150.55 153.50 151.34 152.89 151.45 152.02 L 151.56 151.06 C 151.67 150.19 151.06 149.40 150.19 149.30 C 149.32 149.19 148.53 149.81 148.43 150.67 Z M 148.31 151.63 L 148.19 152.58 C 148.08 153.44 148.70 154.23 149.57 154.34 C 150.43 154.45 151.22 153.83 151.33 152.96 L 151.45 152.02 C 151.55 151.15 150.94 150.36 150.07 150.26 C 149.20 150.15 148.41 150.76 148.31 151.63 Z M 148.19 152.58 L 148.07 153.54 C 147.96 154.40 148.58 155.19 149.45 155.30 C 150.32 155.41 151.11 154.79 151.21 153.92 L 151.33 152.96 C 151.44 152.10 150.82 151.31 149.95 151.20 C 149.08 151.09 148.29 151.71 148.19 152.58 Z M 148.07 153.54 L 147.94 154.56 C 147.84 155.43 148.46 156.23 149.33 156.33 C 150.20 156.44 150.99 155.82 151.09 154.95 L 151.22 153.92 C 151.32 153.05 150.70 152.26 149.83 152.16 C 148.96 152.05 148.17 152.67 148.07 153.54 Z M 147.94 154.57 L 147.82 155.58 C 147.71 156.45 148.33 157.24 149.21 157.35 C 150.08 157.45 150.87 156.83 150.97 155.96 L 151.09 154.95 C 151.20 154.07 150.58 153.28 149.71 153.18 C 148.83 153.07 148.04 153.70 147.94 154.57 Z M 147.81 155.58 L 147.69 156.59 C 147.59 157.46 148.21 158.25 149.09 158.35 C 149.96 158.46 150.75 157.83 150.86 156.96 L 150.98 155.96 C 151.08 155.09 150.46 154.29 149.58 154.19 C 148.71 154.09 147.92 154.71 147.81 155.58 Z M 147.69 156.59 L 147.57 157.58 C 147.47 158.45 148.10 159.24 148.97 159.35 C 149.85 159.45 150.64 158.82 150.74 157.95 L 150.86 156.96 C 150.96 156.08 150.34 155.29 149.46 155.19 C 148.59 155.09 147.79 155.71 147.69 156.59 Z M 147.57 157.58 L 147.46 158.55 C 147.36 159.43 147.98 160.23 148.86 160.33 C 149.74 160.43 150.53 159.80 150.63 158.92 L 150.75 157.95 C 150.85 157.07 150.22 156.28 149.34 156.17 C 148.47 156.07 147.67 156.70 147.57 157.58 Z M 147.45 158.56 L 147.34 159.52 C 147.24 160.40 147.87 161.19 148.75 161.29 C 149.63 161.39 150.43 160.76 150.53 159.88 L 150.64 158.92 C 150.74 158.04 150.11 157.25 149.23 157.15 C 148.35 157.05 147.56 157.68 147.45 158.56 Z M 147.34 159.52 L 147.23 160.52 C 147.13 161.40 147.76 162.19 148.64 162.29 C 149.52 162.39 150.32 161.76 150.42 160.88 L 150.53 159.88 C 150.63 159.00 150.00 158.21 149.12 158.11 C 148.24 158.01 147.44 158.64 147.34 159.52 Z M 147.23 160.52 L 147.11 161.55 C 147.01 162.44 147.65 163.23 148.53 163.33 C 149.41 163.43 150.21 162.79 150.31 161.91 L 150.42 160.87 C 150.52 159.99 149.88 159.20 149.00 159.10 C 148.12 159.00 147.32 159.64 147.23 160.52 Z M 147.11 161.56 L 147.00 162.57 C 146.90 163.46 147.54 164.25 148.42 164.35 C 149.30 164.44 150.10 163.81 150.20 162.92 L 150.31 161.91 C 150.40 161.02 149.77 160.23 148.88 160.13 C 148.00 160.03 147.20 160.67 147.11 161.56 Z M 146.99 162.58 L 146.89 163.57 C 146.79 164.46 147.43 165.25 148.32 165.35 C 149.20 165.44 150.00 164.80 150.09 163.92 L 150.20 162.92 C 150.29 162.03 149.65 161.24 148.77 161.15 C 147.88 161.05 147.09 161.69 146.99 162.58 Z M 146.89 163.58 L 146.78 164.56 C 146.69 165.44 147.34 166.24 148.22 166.33 C 149.11 166.42 149.90 165.77 149.99 164.89 L 150.09 163.91 C 150.19 163.02 149.54 162.23 148.66 162.14 C 147.77 162.05 146.98 162.69 146.89 163.58 Z M 146.78 164.56 L 146.69 165.52 C 146.60 166.41 147.25 167.20 148.14 167.29 C 149.02 167.38 149.81 166.73 149.90 165.84 L 150.00 164.88 C 150.08 163.99 149.44 163.20 148.55 163.12 C 147.66 163.03 146.87 163.68 146.78 164.56 Z M 146.68 165.53 L 146.59 166.51 C 146.51 167.40 147.16 168.19 148.05 168.27 C 148.94 168.36 149.73 167.70 149.81 166.82 L 149.90 165.83 C 149.99 164.94 149.33 164.15 148.45 164.07 C 147.56 163.99 146.77 164.64 146.68 165.53 Z M 146.59 166.52 L 146.49 167.57 C 146.42 168.47 147.08 169.25 147.97 169.33 C 148.86 169.41 149.65 168.75 149.72 167.86 L 149.82 166.81 C 149.90 165.91 149.24 165.13 148.34 165.05 C 147.45 164.97 146.67 165.63 146.59 166.52 Z M 146.49 167.58 L 146.40 168.61 C 146.33 169.50 147.00 170.29 147.89 170.36 C 148.79 170.43 149.57 169.77 149.65 168.87 L 149.73 167.85 C 149.80 166.96 149.14 166.17 148.24 166.10 C 147.35 166.02 146.56 166.69 146.49 167.58 Z M 146.40 168.61 L 146.32 169.61 C 146.25 170.50 146.92 171.29 147.82 171.36 C 148.72 171.43 149.51 170.76 149.58 169.86 L 149.65 168.87 C 149.72 167.97 149.05 167.18 148.15 167.11 C 147.25 167.04 146.47 167.71 146.40 168.61 Z M 146.32 169.61 L 146.25 170.57 C 146.18 171.47 146.86 172.26 147.76 172.32 C 148.66 172.39 149.44 171.71 149.51 170.81 L 149.58 169.85 C 149.65 168.95 148.97 168.16 148.07 168.10 C 147.17 168.03 146.38 168.71 146.32 169.61 Z M 146.24 170.58 L 146.17 171.51 C 146.11 172.42 146.79 173.20 147.70 173.26 C 148.60 173.33 149.39 172.65 149.45 171.74 L 149.52 170.81 C 149.58 169.90 148.90 169.12 147.99 169.05 C 147.09 168.99 146.30 169.67 146.24 170.58 Z M 146.17 171.52 L 146.10 172.57 C 146.04 173.48 146.73 174.26 147.63 174.32 C 148.54 174.38 149.32 173.70 149.38 172.79 L 149.45 171.74 C 149.51 170.83 148.83 170.05 147.92 169.99 C 147.02 169.93 146.23 170.61 146.17 171.52 Z M 146.10 172.58 L 146.04 173.59 C 145.98 174.50 146.67 175.28 147.58 175.34 C 148.48 175.39 149.26 174.70 149.32 173.80 L 149.38 172.78 C 149.44 171.88 148.75 171.10 147.85 171.04 C 146.94 170.98 146.16 171.67 146.10 172.58 Z M 146.04 173.60 L 145.98 174.58 C 145.93 175.49 146.62 176.27 147.53 176.32 C 148.43 176.37 149.21 175.68 149.26 174.77 L 149.32 173.79 C 149.37 172.88 148.68 172.11 147.77 172.05 C 146.87 172.00 146.09 172.69 146.04 173.60 Z M 145.98 174.59 L 145.93 175.55 C 145.88 176.46 146.58 177.23 147.49 177.28 C 148.39 177.33 149.16 176.63 149.21 175.73 L 149.26 174.77 C 149.31 173.86 148.61 173.09 147.71 173.04 C 146.80 172.99 146.03 173.69 145.98 174.59 Z M 145.93 175.56 L 145.88 176.55 C 145.84 177.46 146.54 178.23 147.45 178.27 C 148.36 178.31 149.13 177.61 149.17 176.70 L 149.21 175.72 C 149.26 174.81 148.55 174.04 147.65 174.00 C 146.74 173.96 145.97 174.66 145.93 175.56 Z M 145.88 176.56 L 145.84 177.57 C 145.80 178.48 146.51 179.24 147.42 179.28 C 148.33 179.31 149.10 178.61 149.13 177.70 L 149.17 176.69 C 149.21 175.78 148.50 175.02 147.59 174.98 C 146.68 174.94 145.92 175.65 145.88 176.56 Z M 145.84 177.58 L 145.80 178.58 C 145.77 179.49 146.49 180.25 147.40 180.28 C 148.31 180.31 149.07 179.59 149.10 178.68 L 149.14 177.69 C 149.16 176.77 148.45 176.01 147.54 175.98 C 146.63 175.95 145.87 176.67 145.84 177.58 Z M 145.80 178.59 L 145.78 179.58 C 145.75 180.49 146.48 181.25 147.39 181.27 C 148.30 181.30 149.06 180.57 149.08 179.66 L 149.11 178.67 C 149.13 177.76 148.41 177.00 147.49 176.98 C 146.58 176.95 145.82 177.68 145.80 178.59 Z M 145.77 179.59 L 145.76 180.59 C 145.74 181.50 146.47 182.25 147.38 182.27 C 148.30 182.29 149.05 181.56 149.07 180.64 L 149.09 179.65 C 149.10 178.73 148.37 177.98 147.46 177.96 C 146.54 177.95 145.79 178.68 145.77 179.59 Z M 145.76 180.60 L 145.75 181.60 C 145.74 182.51 146.47 183.26 147.39 183.27 C 148.30 183.28 149.05 182.54 149.06 181.63 L 149.07 180.63 C 149.08 179.72 148.34 178.97 147.43 178.96 C 146.51 178.95 145.77 179.68 145.76 180.60 Z M 145.75 181.61 L 145.74 182.61 C 145.74 183.52 146.48 184.26 147.39 184.27 C 148.30 184.27 149.05 183.54 149.05 182.62 L 149.06 181.62 C 149.06 180.71 148.32 179.96 147.41 179.96 C 146.50 179.96 145.75 180.69 145.75 181.61 Z M 145.75 182.61 L 145.74 183.61 C 145.74 184.52 146.48 185.26 147.39 185.27 C 148.31 185.27 149.05 184.53 149.05 183.62 L 149.05 182.62 C 149.05 181.70 148.31 180.96 147.40 180.96 C 146.49 180.96 145.75 181.70 145.75 182.61 Z M 145.75 183.61 L 145.75 184.35 C 145.75 185.26 146.48 186.00 147.40 186.00 C 148.31 186.00 149.05 185.26 149.05 184.35 L 149.05 183.61 C 149.05 182.70 148.31 181.96 147.40 181.96 C 146.48 181.96 145.75 182.70 145.75 183.61 Z"
      fill="black"
      fill-rule="nonzero" /><path d="M 135.60 225.04 L 135.03 225.95 C 134.57 226.68 134.79 227.65 135.52 228.10 C 136.25 228.56 137.21 228.34 137.67 227.61 L 138.24 226.70 C 138.70 225.97 138.48 225.00 137.75 224.55 C 137.02 224.09 136.05 224.31 135.60 225.04 Z M 135.02 225.96 L 134.46 226.86 C 134.01 227.60 134.24 228.56 134.97 229.01 C 135.70 229.47 136.67 229.24 137.12 228.50 L 137.68 227.60 C 138.13 226.87 137.90 225.90 137.17 225.45 C 136.43 225.00 135.47 225.23 135.02 225.96 Z M 134.45 226.88 L 133.92 227.77 C 133.48 228.51 133.72 229.47 134.46 229.92 C 135.20 230.36 136.15 230.12 136.60 229.38 L 137.13 228.49 C 137.57 227.75 137.33 226.79 136.59 226.34 C 135.85 225.90 134.89 226.14 134.45 226.88 Z M 133.90 227.80 L 133.40 228.68 C 132.98 229.43 133.24 230.38 133.99 230.80 C 134.74 231.23 135.69 230.97 136.12 230.22 L 136.61 229.35 C 137.04 228.60 136.78 227.64 136.03 227.22 C 135.28 226.79 134.33 227.05 133.90 227.80 Z M 133.38 228.72 L 132.94 229.57 C 132.53 230.33 132.83 231.27 133.59 231.67 C 134.35 232.08 135.30 231.78 135.70 231.02 L 136.14 230.18 C 136.55 229.41 136.25 228.47 135.49 228.07 C 134.73 227.66 133.78 227.96 133.38 228.72 Z M 132.90 229.63 L 132.52 230.44 C 132.15 231.22 132.49 232.15 133.27 232.52 C 134.05 232.89 134.98 232.55 135.34 231.77 L 135.73 230.96 C 136.10 230.18 135.76 229.25 134.98 228.88 C 134.20 228.51 133.27 228.85 132.90 229.63 Z M 132.48 230.55 L 132.07 231.61 C 131.76 232.42 132.16 233.32 132.97 233.63 C 133.77 233.94 134.67 233.53 134.98 232.73 L 135.39 231.67 C 135.70 230.86 135.30 229.96 134.49 229.65 C 133.69 229.34 132.78 229.74 132.48 230.55 Z M 132.01 231.79 L 131.74 232.86 C 131.54 233.69 132.04 234.54 132.88 234.75 C 133.72 234.96 134.57 234.45 134.77 233.61 L 135.04 232.55 C 135.25 231.71 134.74 230.86 133.90 230.65 C 133.07 230.45 132.22 230.95 132.01 231.79 Z M 131.70 233.13 L 131.64 234.08 C 131.58 234.94 132.22 235.69 133.08 235.74 C 133.95 235.80 134.69 235.16 134.75 234.30 L 134.82 233.34 C 134.88 232.48 134.23 231.74 133.37 231.68 C 132.51 231.62 131.76 232.27 131.70 233.13 Z M 131.66 234.46 L 131.80 235.28 C 131.95 236.13 132.76 236.70 133.61 236.55 C 134.46 236.40 135.02 235.59 134.88 234.74 L 134.73 233.92 C 134.58 233.07 133.77 232.50 132.92 232.65 C 132.07 232.80 131.51 233.61 131.66 234.46 Z M 131.97 235.77 L 132.39 236.52 C 132.80 237.28 133.75 237.55 134.51 237.14 C 135.26 236.72 135.54 235.77 135.12 235.02 L 134.71 234.26 C 134.29 233.51 133.34 233.23 132.59 233.65 C 131.83 234.06 131.55 235.01 131.97 235.77 Z M 132.71 236.93 L 133.41 237.56 C 134.05 238.14 135.04 238.08 135.62 237.44 C 136.19 236.80 136.14 235.81 135.50 235.24 L 134.80 234.61 C 134.16 234.03 133.17 234.09 132.59 234.73 C 132.02 235.37 132.07 236.36 132.71 236.93 Z M 133.73 237.78 L 134.63 238.26 C 135.39 238.66 136.34 238.37 136.74 237.60 C 137.14 236.84 136.85 235.90 136.08 235.49 L 135.18 235.02 C 134.42 234.62 133.48 234.91 133.07 235.67 C 132.67 236.43 132.96 237.38 133.73 237.78 Z M 134.86 238.36 L 135.89 238.70 C 136.70 238.97 137.59 238.53 137.86 237.71 C 138.14 236.90 137.69 236.01 136.88 235.74 L 135.85 235.39 C 135.04 235.12 134.15 235.56 133.88 236.38 C 133.60 237.20 134.04 238.08 134.86 238.36 Z M 136.04 238.74 L 137.03 238.96 C 137.87 239.15 138.71 238.62 138.89 237.78 C 139.08 236.93 138.55 236.10 137.71 235.91 L 136.72 235.69 C 135.88 235.51 135.04 236.04 134.86 236.88 C 134.67 237.72 135.20 238.56 136.04 238.74 Z M 137.15 238.98 L 138.16 239.13 C 139.02 239.25 139.81 238.65 139.93 237.80 C 140.05 236.95 139.45 236.16 138.60 236.04 L 137.59 235.89 C 136.74 235.77 135.95 236.36 135.83 237.22 C 135.70 238.07 136.30 238.86 137.15 238.98 Z M 138.26 239.14 L 139.26 239.21 C 140.12 239.28 140.87 238.64 140.94 237.78 C 141.00 236.92 140.36 236.17 139.50 236.10 L 138.50 236.02 C 137.64 235.96 136.89 236.60 136.83 237.46 C 136.76 238.32 137.40 239.07 138.26 239.14 Z M 139.35 239.22 L 140.33 239.24 C 141.20 239.25 141.91 238.56 141.92 237.70 C 141.94 236.84 141.25 236.13 140.39 236.11 L 139.41 236.10 C 138.54 236.08 137.83 236.77 137.82 237.63 C 137.80 238.49 138.49 239.20 139.35 239.22 Z M 140.43 239.23 L 141.48 239.19 C 142.34 239.15 143.01 238.43 142.97 237.56 C 142.94 236.70 142.21 236.03 141.35 236.07 L 140.30 236.12 C 139.43 236.15 138.77 236.88 138.80 237.74 C 138.84 238.60 139.57 239.27 140.43 239.23 Z M 141.56 239.18 L 142.54 239.09 C 143.40 239.01 144.03 238.25 143.95 237.39 C 143.87 236.53 143.10 235.90 142.25 235.98 L 141.27 236.08 C 140.41 236.16 139.78 236.92 139.86 237.78 C 139.94 238.64 140.70 239.27 141.56 239.18 Z M 142.58 239.09 L 143.53 238.97 C 144.38 238.86 144.99 238.08 144.88 237.23 C 144.78 236.37 144.00 235.77 143.14 235.87 L 142.20 235.99 C 141.34 236.10 140.74 236.88 140.84 237.73 C 140.95 238.59 141.73 239.19 142.58 239.09 Z M 143.54 238.97 L 143.62 238.96 C 144.47 238.85 145.08 238.06 144.97 237.21 C 144.85 236.35 144.07 235.75 143.22 235.86 L 143.13 235.87 C 142.28 235.99 141.67 236.77 141.79 237.62 C 141.90 238.48 142.68 239.08 143.54 238.97 Z"
      fill="black"
      fill-rule="nonzero" /></svg>