<svg xmlns="http://www.w3.org/2000/svg" width="300" height="300" viewBox="0 0 300 300">
<path d="M 189.43 142.73 L 188.57 142.66 C 187.71 142.59 186.96 143.23 186.89 144.09 C 186.82 144.95 187.46 145.70 188.32 145.77 L 189.18 145.84 C 190.04 145.91 190.79 145.27 190.86 144.41 C 190.93 143.55 190.29 142.80 189.43 142.73 Z M 188.58 142.66 L 187.66 142.58 C 186.80 142.51 186.05 143.14 185.97 144.00 C 185.90 144.86 186.54 145.62 187.40 145.69 L 188.31 145.77 C 189.17 145.84 189.93 145.20 190.00 144.35 C 190.07 143.49 189.44 142.73 188.58 142.66 Z M 187.67 142.58 L 186.64 142.48 C 185.78 142.40 185.02 143.03 184.94 143.89 C 184.86 144.75 185.49 145.51 186.35 145.59 L 187.38 145.69 C 188.24 145.77 189.00 145.14 189.08 144.28 C 189.16 143.42 188.53 142.66 187.67 142.58 Z M 186.65 142.48 L 185.50 142.37 C 184.64 142.28 183.88 142.90 183.79 143.76 C 183.70 144.62 184.33 145.39 185.18 145.47 L 186.34 145.59 C 187.20 145.68 187.96 145.05 188.05 144.20 C 188.14 143.34 187.51 142.57 186.65 142.48 Z M 185.51 142.37 L 184.71 142.28 C 183.85 142.19 183.08 142.81 182.99 143.66 C 182.90 144.52 183.52 145.29 184.37 145.39 L 185.17 145.47 C 186.03 145.57 186.80 144.95 186.89 144.09 C 186.99 143.23 186.37 142.46 185.51 142.37 Z M 184.72 142.28 L 183.85 142.18 C 182.99 142.08 182.22 142.69 182.12 143.55 C 182.02 144.41 182.63 145.18 183.49 145.28 L 184.36 145.38 C 185.22 145.48 185.99 144.87 186.09 144.02 C 186.19 143.16 185.58 142.38 184.72 142.28 Z M 183.87 142.18 L 182.92 142.06 C 182.07 141.95 181.29 142.56 181.18 143.41 C 181.07 144.27 181.67 145.05 182.53 145.16 L 183.47 145.28 C 184.33 145.39 185.11 144.78 185.22 143.93 C 185.33 143.07 184.72 142.29 183.87 142.18 Z M 182.94 142.06 L 181.93 141.92 C 181.08 141.80 180.29 142.40 180.17 143.25 C 180.05 144.10 180.64 144.89 181.50 145.01 L 182.51 145.16 C 183.36 145.28 184.15 144.68 184.27 143.83 C 184.39 142.97 183.80 142.18 182.94 142.06 Z M 181.95 141.92 L 180.88 141.76 C 180.02 141.63 179.23 142.21 179.09 143.06 C 178.96 143.91 179.54 144.71 180.40 144.84 L 181.47 145.01 C 182.33 145.14 183.12 144.56 183.26 143.71 C 183.39 142.85 182.80 142.06 181.95 141.92 Z M 180.90 141.76 L 179.76 141.57 C 178.91 141.42 178.10 141.99 177.96 142.84 C 177.81 143.69 178.38 144.50 179.23 144.64 L 180.37 144.84 C 181.22 144.98 182.03 144.41 182.17 143.56 C 182.32 142.71 181.75 141.91 180.90 141.76 Z M 179.79 141.57 L 178.69 141.37 C 177.85 141.21 177.03 141.76 176.87 142.61 C 176.71 143.46 177.27 144.28 178.12 144.43 L 179.21 144.64 C 180.06 144.80 180.87 144.24 181.03 143.39 C 181.19 142.55 180.63 141.73 179.79 141.57 Z M 178.71 141.37 L 177.73 141.17 C 176.88 141.00 176.06 141.55 175.89 142.39 C 175.72 143.24 176.27 144.06 177.11 144.23 L 178.10 144.43 C 178.94 144.60 179.76 144.05 179.94 143.21 C 180.11 142.36 179.56 141.54 178.71 141.37 Z M 177.74 141.17 L 176.74 140.96 C 175.90 140.78 175.07 141.32 174.89 142.16 C 174.71 143.01 175.25 143.83 176.09 144.01 L 177.10 144.23 C 177.94 144.41 178.77 143.87 178.95 143.03 C 179.13 142.18 178.59 141.35 177.74 141.17 Z M 176.75 140.96 L 175.74 140.74 C 174.90 140.55 174.06 141.08 173.88 141.93 C 173.69 142.77 174.22 143.60 175.06 143.79 L 176.08 144.01 C 176.92 144.20 177.75 143.67 177.94 142.82 C 178.13 141.98 177.59 141.15 176.75 140.96 Z M 175.75 140.74 L 174.74 140.51 C 173.90 140.32 173.06 140.85 172.87 141.69 C 172.68 142.53 173.20 143.36 174.04 143.55 L 175.06 143.79 C 175.90 143.98 176.73 143.45 176.92 142.61 C 177.12 141.77 176.59 140.93 175.75 140.74 Z M 174.75 140.51 L 173.75 140.28 C 172.91 140.08 172.07 140.61 171.87 141.45 C 171.68 142.29 172.20 143.13 173.04 143.32 L 174.04 143.55 C 174.88 143.75 175.72 143.23 175.91 142.39 C 176.11 141.55 175.59 140.71 174.75 140.51 Z M 173.75 140.28 L 172.78 140.05 C 171.94 139.85 171.10 140.37 170.90 141.21 C 170.70 142.05 171.22 142.89 172.06 143.09 L 173.04 143.32 C 173.87 143.52 174.72 143.00 174.91 142.16 C 175.11 141.32 174.59 140.48 173.75 140.28 Z M 172.78 140.05 L 171.85 139.83 C 171.01 139.63 170.17 140.15 169.97 140.99 C 169.77 141.82 170.29 142.67 171.12 142.87 L 172.06 143.09 C 172.90 143.29 173.74 142.77 173.94 141.93 C 174.14 141.09 173.62 140.25 172.78 140.05 Z M 171.85 139.83 L 170.95 139.61 C 170.11 139.41 169.27 139.93 169.07 140.77 C 168.87 141.61 169.39 142.45 170.23 142.65 L 171.12 142.87 C 171.96 143.07 172.80 142.55 173.01 141.71 C 173.21 140.87 172.69 140.03 171.85 139.83 Z M 170.95 139.61 L 169.80 139.34 C 168.96 139.14 168.12 139.66 167.92 140.50 C 167.72 141.34 168.24 142.18 169.08 142.38 L 170.23 142.65 C 171.07 142.85 171.91 142.33 172.11 141.49 C 172.31 140.65 171.79 139.81 170.95 139.61 Z M 169.80 139.34 L 168.75 139.09 C 167.91 138.90 167.07 139.42 166.87 140.26 C 166.67 141.10 167.19 141.94 168.03 142.13 L 169.09 142.38 C 169.92 142.58 170.77 142.06 170.96 141.22 C 171.16 140.38 170.64 139.54 169.80 139.34 Z M 168.74 139.09 L 167.77 138.87 C 166.93 138.67 166.09 139.19 165.89 140.03 C 165.70 140.87 166.22 141.71 167.06 141.91 L 168.04 142.13 C 168.88 142.33 169.72 141.81 169.91 140.97 C 170.11 140.13 169.58 139.29 168.74 139.09 Z M 167.76 138.87 L 166.84 138.66 C 166.00 138.46 165.17 138.99 164.97 139.83 C 164.78 140.67 165.31 141.51 166.15 141.70 L 167.07 141.91 C 167.91 142.10 168.75 141.58 168.94 140.73 C 169.13 139.89 168.60 139.06 167.76 138.87 Z M 166.84 138.65 L 165.96 138.46 C 165.11 138.27 164.28 138.80 164.09 139.64 C 163.90 140.48 164.43 141.31 165.27 141.50 L 166.15 141.70 C 167.00 141.89 167.83 141.36 168.02 140.52 C 168.21 139.68 167.68 138.84 166.84 138.65 Z M 165.95 138.45 L 165.08 138.26 C 164.24 138.08 163.41 138.61 163.22 139.45 C 163.04 140.30 163.57 141.13 164.41 141.31 L 165.28 141.50 C 166.12 141.69 166.95 141.16 167.14 140.31 C 167.32 139.47 166.79 138.64 165.95 138.45 Z M 165.08 138.26 L 164.10 138.05 C 163.25 137.87 162.42 138.41 162.24 139.25 C 162.06 140.09 162.60 140.92 163.44 141.10 L 164.42 141.32 C 165.26 141.50 166.09 140.96 166.27 140.12 C 166.46 139.27 165.92 138.44 165.08 138.26 Z M 164.09 138.05 L 163.10 137.84 C 162.26 137.67 161.43 138.21 161.26 139.05 C 161.08 139.90 161.62 140.73 162.47 140.90 L 163.45 141.11 C 164.29 141.28 165.12 140.74 165.30 139.90 C 165.47 139.05 164.93 138.23 164.09 138.05 Z M 163.09 137.84 L 162.11 137.65 C 161.27 137.48 160.44 138.03 160.27 138.87 C 160.11 139.72 160.65 140.54 161.50 140.71 L 162.48 140.90 C 163.33 141.07 164.15 140.52 164.32 139.68 C 164.49 138.83 163.94 138.01 163.09 137.84 Z M 162.10 137.64 L 161.11 137.46 C 160.27 137.30 159.45 137.85 159.29 138.70 C 159.13 139.55 159.69 140.36 160.53 140.53 L 161.51 140.71 C 162.36 140.87 163.18 140.31 163.34 139.47 C 163.50 138.62 162.94 137.80 162.10 137.64 Z M 161.10 137.45 L 160.12 137.28 C 159.27 137.13 158.46 137.70 158.31 138.55 C 158.16 139.39 158.72 140.20 159.57 140.35 L 160.55 140.53 C 161.40 140.68 162.21 140.11 162.36 139.26 C 162.51 138.41 161.95 137.60 161.10 137.45 Z M 160.09 137.28 L 159.16 137.12 C 158.31 136.99 157.51 137.56 157.37 138.41 C 157.23 139.26 157.81 140.07 158.66 140.21 L 159.59 140.36 C 160.44 140.50 161.24 139.92 161.38 139.07 C 161.52 138.22 160.95 137.42 160.09 137.28 Z M 159.13 137.12 L 158.20 136.98 C 157.35 136.86 156.56 137.45 156.43 138.30 C 156.31 139.16 156.90 139.95 157.75 140.07 L 158.68 140.21 C 159.53 140.33 160.33 139.74 160.45 138.89 C 160.58 138.04 159.99 137.25 159.13 137.12 Z M 158.17 136.98 L 157.22 136.86 C 156.36 136.75 155.58 137.36 155.47 138.21 C 155.36 139.07 155.97 139.85 156.83 139.96 L 157.78 140.08 C 158.64 140.19 159.42 139.58 159.53 138.73 C 159.63 137.87 159.03 137.09 158.17 136.98 Z M 157.19 136.86 L 156.19 136.75 C 155.33 136.66 154.57 137.28 154.48 138.14 C 154.39 139.00 155.01 139.77 155.86 139.86 L 156.86 139.96 C 157.72 140.05 158.48 139.43 158.57 138.57 C 158.66 137.71 158.04 136.95 157.19 136.86 Z M 156.16 136.75 L 155.11 136.66 C 154.25 136.59 153.50 137.23 153.43 138.09 C 153.35 138.95 153.99 139.70 154.85 139.77 L 155.90 139.86 C 156.76 139.93 157.51 139.29 157.58 138.43 C 157.65 137.57 157.02 136.82 156.16 136.75 Z M 155.08 136.66 L 153.99 136.59 C 153.12 136.54 152.39 137.20 152.33 138.06 C 152.28 138.92 152.94 139.66 153.80 139.71 L 154.89 139.78 C 155.75 139.83 156.49 139.17 156.54 138.31 C 156.59 137.45 155.94 136.71 155.08 136.66 Z M 153.95 136.59 L 152.98 136.55 C 152.12 136.52 151.40 137.19 151.36 138.05 C 151.33 138.91 152.00 139.64 152.86 139.67 L 153.83 139.71 C 154.69 139.75 155.42 139.07 155.45 138.21 C 155.49 137.35 154.81 136.63 153.95 136.59 Z M 152.95 136.55 L 151.94 136.54 C 151.08 136.52 150.37 137.21 150.36 138.08 C 150.35 138.94 151.03 139.65 151.90 139.66 L 152.90 139.67 C 153.76 139.69 154.47 139.00 154.48 138.14 C 154.50 137.27 153.81 136.57 152.95 136.55 Z M 151.90 136.54 L 150.87 136.55 C 150.01 136.57 149.32 137.28 149.34 138.14 C 149.35 139.00 150.06 139.69 150.92 139.68 L 151.94 139.66 C 152.81 139.65 153.49 138.94 153.48 138.07 C 153.47 137.21 152.76 136.52 151.90 136.54 Z M 150.81 136.56 L 149.79 136.61 C 148.93 136.66 148.27 137.39 148.31 138.25 C 148.36 139.11 149.09 139.77 149.96 139.73 L 150.98 139.67 C 151.84 139.63 152.50 138.89 152.46 138.03 C 152.41 137.17 151.68 136.51 150.81 136.56 Z M 149.72 136.62 L 148.71 136.72 C 147.85 136.80 147.22 137.57 147.31 138.43 C 147.39 139.28 148.16 139.91 149.02 139.82 L 150.03 139.72 C 150.89 139.64 151.51 138.87 151.43 138.01 C 151.34 137.16 150.57 136.53 149.72 136.62 Z M 148.62 136.73 L 147.64 136.88 C 146.79 137.02 146.21 137.82 146.34 138.67 C 146.48 139.52 147.27 140.10 148.13 139.97 L 149.11 139.81 C 149.96 139.68 150.54 138.88 150.40 138.03 C 150.27 137.17 149.47 136.59 148.62 136.73 Z M 147.52 136.91 L 146.54 137.14 C 145.70 137.33 145.18 138.18 145.38 139.01 C 145.58 139.85 146.42 140.37 147.26 140.18 L 148.24 139.94 C 149.08 139.75 149.60 138.91 149.40 138.07 C 149.20 137.23 148.36 136.71 147.52 136.91 Z M 146.40 137.18 L 145.36 137.53 C 144.54 137.80 144.10 138.68 144.37 139.50 C 144.65 140.32 145.53 140.76 146.35 140.49 L 147.39 140.14 C 148.21 139.86 148.65 138.98 148.38 138.16 C 148.11 137.34 147.22 136.90 146.40 137.18 Z M 145.23 137.58 L 144.26 138.00 C 143.47 138.35 143.11 139.27 143.46 140.06 C 143.81 140.85 144.73 141.21 145.52 140.86 L 146.48 140.44 C 147.27 140.09 147.63 139.17 147.28 138.38 C 146.94 137.59 146.02 137.23 145.23 137.58 Z M 144.15 138.05 L 143.27 138.53 C 142.51 138.93 142.22 139.88 142.63 140.64 C 143.03 141.40 143.98 141.69 144.74 141.28 L 145.63 140.81 C 146.39 140.40 146.67 139.45 146.27 138.69 C 145.86 137.93 144.91 137.65 144.15 138.05 Z M 143.18 138.58 L 142.37 139.08 C 141.64 139.53 141.41 140.50 141.87 141.23 C 142.32 141.96 143.28 142.19 144.02 141.73 L 144.83 141.23 C 145.56 140.77 145.79 139.81 145.33 139.08 C 144.88 138.35 143.91 138.12 143.18 138.58 Z M 142.30 139.12 L 141.57 139.64 C 140.86 140.13 140.68 141.10 141.17 141.81 C 141.66 142.52 142.63 142.69 143.34 142.20 L 144.08 141.69 C 144.79 141.20 144.97 140.23 144.48 139.52 C 143.99 138.81 143.01 138.63 142.30 139.12 Z M 141.52 139.67 L 140.71 140.28 C 140.02 140.79 139.88 141.77 140.40 142.46 C 140.92 143.15 141.89 143.29 142.58 142.77 L 143.39 142.17 C 144.08 141.65 144.22 140.67 143.70 139.98 C 143.19 139.29 142.21 139.15 141.52 139.67 Z M 140.67 140.31 L 139.86 140.96 C 139.19 141.50 139.09 142.49 139.63 143.16 C 140.17 143.83 141.15 143.93 141.82 143.39 L 142.63 142.74 C 143.30 142.20 143.40 141.21 142.86 140.54 C 142.32 139.87 141.34 139.77 140.67 140.31 Z M 139.81 141.00 L 139.08 141.64 C 138.43 142.21 138.37 143.20 138.93 143.85 C 139.50 144.49 140.49 144.56 141.14 143.99 L 141.87 143.35 C 142.52 142.78 142.58 141.79 142.02 141.15 C 141.45 140.50 140.46 140.43 139.81 141.00 Z M 139.04 141.68 L 138.35 142.33 C 137.72 142.92 137.69 143.91 138.28 144.54 C 138.87 145.17 139.86 145.20 140.49 144.61 L 141.18 143.95 C 141.81 143.36 141.84 142.37 141.25 141.75 C 140.65 141.12 139.67 141.09 139.04 141.68 Z M 138.32 142.36 L 137.65 143.03 C 137.04 143.63 137.04 144.62 137.64 145.23 C 138.25 145.84 139.24 145.85 139.85 145.24 L 140.52 144.57 C 141.13 143.97 141.13 142.98 140.52 142.37 C 139.92 141.76 138.93 141.75 138.32 142.36 Z M 137.62 143.05 L 136.97 143.73 C 136.37 144.35 136.39 145.34 137.02 145.94 C 137.64 146.54 138.63 146.52 139.22 145.89 L 139.88 145.21 C 140.47 144.59 140.45 143.60 139.83 143.01 C 139.21 142.41 138.22 142.43 137.62 143.05 Z M 136.95 143.76 L 136.28 144.48 C 135.70 145.11 135.74 146.10 136.38 146.68 C 137.01 147.27 138.00 147.23 138.58 146.59 L 139.25 145.87 C 139.83 145.23 139.79 144.25 139.15 143.66 C 138.52 143.08 137.53 143.12 136.95 143.76 Z M 136.26 144.50 L 135.58 145.28 C 135.01 145.92 135.08 146.91 135.72 147.48 C 136.37 148.05 137.36 147.98 137.93 147.34 L 138.60 146.57 C 139.17 145.92 139.11 144.93 138.46 144.36 C 137.82 143.79 136.83 143.86 136.26 144.50 Z M 135.56 145.30 L 134.86 146.13 C 134.31 146.79 134.39 147.77 135.05 148.33 C 135.71 148.88 136.70 148.80 137.25 148.14 L 137.95 147.31 C 138.50 146.65 138.42 145.67 137.76 145.11 C 137.10 144.56 136.11 144.64 135.56 145.30 Z M 134.84 146.15 L 134.25 146.89 C 133.71 147.56 133.81 148.54 134.48 149.08 C 135.15 149.62 136.13 149.52 136.68 148.85 L 137.27 148.12 C 137.81 147.45 137.71 146.46 137.04 145.92 C 136.37 145.38 135.39 145.48 134.84 146.15 Z M 134.23 146.91 L 133.63 147.68 C 133.10 148.36 133.22 149.34 133.90 149.87 C 134.58 150.40 135.56 150.28 136.09 149.60 L 136.69 148.83 C 137.22 148.15 137.10 147.17 136.42 146.64 C 135.74 146.11 134.76 146.23 134.23 146.91 Z M 133.61 147.70 L 133.01 148.50 C 132.49 149.19 132.63 150.17 133.32 150.69 C 134.01 151.21 134.99 151.07 135.50 150.38 L 136.11 149.58 C 136.63 148.89 136.49 147.91 135.80 147.39 C 135.11 146.87 134.13 147.01 133.61 147.70 Z M 132.99 148.53 L 132.39 149.36 C 131.89 150.06 132.04 151.03 132.74 151.54 C 133.44 152.04 134.42 151.89 134.92 151.19 L 135.52 150.36 C 136.03 149.66 135.87 148.68 135.17 148.18 C 134.47 147.67 133.50 147.83 132.99 148.53 Z M 132.37 149.38 L 131.78 150.24 C 131.29 150.94 131.47 151.92 132.18 152.41 C 132.89 152.90 133.86 152.72 134.35 152.01 L 134.94 151.16 C 135.43 150.45 135.25 149.48 134.54 148.99 C 133.84 148.50 132.86 148.68 132.37 149.38 Z M 131.76 150.26 L 131.22 151.09 C 130.74 151.81 130.94 152.78 131.66 153.25 C 132.38 153.73 133.35 153.53 133.82 152.81 L 134.37 151.98 C 134.85 151.26 134.65 150.30 133.93 149.82 C 133.21 149.35 132.24 149.54 131.76 150.26 Z M 131.20 151.12 L 130.68 151.94 C 130.22 152.67 130.44 153.64 131.17 154.09 C 131.90 154.55 132.86 154.34 133.32 153.61 L 133.84 152.78 C 134.30 152.05 134.08 151.09 133.35 150.63 C 132.62 150.17 131.66 150.39 131.20 151.12 Z M 130.66 151.97 L 130.16 152.81 C 129.71 153.55 129.95 154.51 130.69 154.96 C 131.43 155.40 132.39 155.16 132.84 154.42 L 133.34 153.58 C 133.79 152.84 133.55 151.88 132.81 151.43 C 132.07 150.99 131.11 151.23 130.66 151.97 Z M 130.14 152.84 L 129.65 153.71 C 129.22 154.46 129.48 155.41 130.23 155.84 C 130.98 156.27 131.93 156.01 132.36 155.26 L 132.85 154.39 C 133.28 153.64 133.02 152.69 132.27 152.26 C 131.52 151.83 130.57 152.09 130.14 152.84 Z M 129.63 153.74 L 129.14 154.64 C 128.73 155.39 129.01 156.34 129.77 156.75 C 130.53 157.16 131.47 156.88 131.89 156.13 L 132.37 155.23 C 132.78 154.47 132.50 153.53 131.75 153.11 C 130.99 152.70 130.04 152.98 129.63 153.74 Z M 129.13 154.66 L 128.65 155.59 C 128.25 156.36 128.55 157.30 129.32 157.69 C 130.08 158.09 131.02 157.79 131.42 157.03 L 131.90 156.10 C 132.30 155.33 132.00 154.39 131.23 153.99 C 130.47 153.60 129.52 153.90 129.13 154.66 Z M 128.64 155.61 L 128.22 156.46 C 127.84 157.23 128.15 158.16 128.93 158.55 C 129.70 158.93 130.63 158.61 131.02 157.84 L 131.43 157.00 C 131.82 156.23 131.50 155.29 130.73 154.91 C 129.95 154.53 129.02 154.84 128.64 155.61 Z M 128.21 156.48 L 127.80 157.35 C 127.43 158.12 127.76 159.06 128.54 159.43 C 129.31 159.80 130.25 159.46 130.62 158.69 L 131.03 157.82 C 131.40 157.04 131.07 156.11 130.29 155.74 C 129.51 155.37 128.58 155.70 128.21 156.48 Z M 127.79 157.37 L 127.38 158.26 C 127.02 159.05 127.37 159.97 128.15 160.33 C 128.93 160.69 129.86 160.34 130.22 159.56 L 130.63 158.66 C 130.98 157.88 130.64 156.95 129.85 156.60 C 129.07 156.24 128.14 156.58 127.79 157.37 Z M 127.37 158.29 L 126.96 159.21 C 126.62 160.00 126.98 160.92 127.77 161.26 C 128.56 161.61 129.48 161.25 129.82 160.46 L 130.23 159.54 C 130.57 158.75 130.21 157.83 129.42 157.48 C 128.63 157.14 127.71 157.50 127.37 158.29 Z M 126.95 159.23 L 126.56 160.18 C 126.22 160.97 126.60 161.89 127.39 162.22 C 128.18 162.56 129.10 162.18 129.43 161.39 L 129.83 160.44 C 130.17 159.64 129.79 158.73 129.00 158.39 C 128.20 158.06 127.29 158.43 126.95 159.23 Z M 126.55 160.20 L 126.15 161.17 C 125.83 161.97 126.22 162.88 127.02 163.20 C 127.82 163.53 128.73 163.14 129.05 162.34 L 129.44 161.37 C 129.77 160.57 129.38 159.66 128.58 159.33 C 127.78 159.01 126.87 159.40 126.55 160.20 Z M 126.15 161.19 L 125.78 162.13 C 125.47 162.94 125.87 163.84 126.67 164.15 C 127.48 164.46 128.38 164.06 128.69 163.26 L 129.06 162.32 C 129.37 161.52 128.97 160.61 128.17 160.30 C 127.36 159.99 126.46 160.39 126.15 161.19 Z M 125.77 162.15 L 125.44 163.05 C 125.14 163.86 125.55 164.76 126.35 165.06 C 127.16 165.36 128.06 164.95 128.36 164.15 L 128.70 163.24 C 129.00 162.43 128.59 161.53 127.78 161.23 C 126.98 160.93 126.08 161.34 125.77 162.15 Z M 125.43 163.07 L 125.10 163.99 C 124.81 164.80 125.23 165.70 126.04 165.99 C 126.85 166.28 127.75 165.86 128.04 165.05 L 128.37 164.13 C 128.66 163.32 128.24 162.42 127.43 162.13 C 126.62 161.84 125.72 162.26 125.43 163.07 Z M 125.09 164.01 L 124.77 164.95 C 124.49 165.76 124.92 166.65 125.73 166.94 C 126.55 167.22 127.44 166.79 127.72 165.97 L 128.04 165.03 C 128.33 164.22 127.89 163.33 127.08 163.05 C 126.26 162.76 125.38 163.20 125.09 164.01 Z M 124.76 164.97 L 124.44 165.92 C 124.17 166.74 124.62 167.62 125.43 167.90 C 126.25 168.17 127.14 167.73 127.41 166.91 L 127.73 165.95 C 128.00 165.14 127.55 164.25 126.74 163.98 C 125.92 163.71 125.03 164.15 124.76 164.97 Z M 124.44 165.94 L 124.13 166.91 C 123.87 167.73 124.32 168.61 125.14 168.87 C 125.96 169.14 126.84 168.68 127.10 167.86 L 127.41 166.89 C 127.68 166.07 127.22 165.19 126.40 164.93 C 125.58 164.67 124.70 165.12 124.44 165.94 Z M 124.12 166.93 L 123.82 167.91 C 123.57 168.74 124.03 169.61 124.86 169.86 C 125.68 170.12 126.56 169.65 126.81 168.83 L 127.11 167.84 C 127.36 167.02 126.90 166.15 126.07 165.89 C 125.25 165.64 124.38 166.10 124.12 166.93 Z M 123.82 167.93 L 123.53 168.92 C 123.29 169.75 123.76 170.61 124.59 170.86 C 125.42 171.10 126.28 170.62 126.52 169.80 L 126.81 168.81 C 127.06 167.98 126.58 167.11 125.75 166.87 C 124.93 166.63 124.06 167.10 123.82 167.93 Z M 123.52 168.94 L 123.26 169.88 C 123.02 170.71 123.51 171.58 124.34 171.81 C 125.17 172.04 126.03 171.56 126.26 170.73 L 126.53 169.78 C 126.76 168.95 126.28 168.09 125.45 167.85 C 124.62 167.62 123.75 168.11 123.52 168.94 Z M 123.25 169.90 L 123.00 170.86 C 122.77 171.69 123.27 172.55 124.10 172.77 C 124.93 172.99 125.79 172.50 126.01 171.67 L 126.27 170.71 C 126.49 169.88 126.00 169.02 125.17 168.80 C 124.33 168.57 123.48 169.07 123.25 169.90 Z M 122.99 170.87 L 122.74 171.84 C 122.53 172.67 123.03 173.53 123.87 173.74 C 124.70 173.95 125.56 173.45 125.77 172.62 L 126.02 171.65 C 126.23 170.81 125.73 169.96 124.89 169.75 C 124.06 169.53 123.21 170.04 122.99 170.87 Z M 122.74 171.85 L 122.50 172.82 C 122.29 173.66 122.80 174.51 123.64 174.72 C 124.48 174.92 125.33 174.41 125.54 173.57 L 125.78 172.60 C 125.98 171.76 125.47 170.91 124.63 170.71 C 123.79 170.50 122.94 171.01 122.74 171.85 Z M 122.49 172.84 L 122.26 173.82 C 122.07 174.66 122.59 175.50 123.43 175.70 C 124.27 175.90 125.11 175.38 125.31 174.54 L 125.54 173.56 C 125.74 172.72 125.22 171.87 124.38 171.68 C 123.54 171.48 122.69 172.00 122.49 172.84 Z M 122.26 173.83 L 122.04 174.82 C 121.85 175.66 122.38 176.50 123.22 176.69 C 124.06 176.88 124.90 176.35 125.09 175.51 L 125.31 174.52 C 125.50 173.68 124.97 172.84 124.13 172.65 C 123.29 172.46 122.45 172.99 122.26 173.83 Z M 122.03 174.83 L 121.82 175.82 C 121.64 176.66 122.18 177.50 123.02 177.68 C 123.87 177.86 124.70 177.32 124.88 176.48 L 125.10 175.49 C 125.28 174.65 124.74 173.81 123.90 173.63 C 123.05 173.45 122.22 173.98 122.03 174.83 Z M 121.82 175.83 L 121.61 176.81 C 121.44 177.66 121.98 178.49 122.83 178.67 C 123.68 178.84 124.51 178.30 124.68 177.45 L 124.89 176.47 C 125.06 175.62 124.52 174.79 123.67 174.61 C 122.82 174.44 121.99 174.98 121.82 175.83 Z M 121.61 176.83 L 121.42 177.80 C 121.25 178.64 121.80 179.47 122.65 179.64 C 123.50 179.80 124.33 179.25 124.49 178.40 L 124.69 177.43 C 124.85 176.59 124.30 175.76 123.45 175.59 C 122.60 175.43 121.78 175.98 121.61 176.83 Z M 121.42 177.81 L 121.23 178.78 C 121.07 179.63 121.63 180.45 122.48 180.61 C 123.33 180.77 124.15 180.21 124.31 179.36 L 124.50 178.39 C 124.66 177.54 124.10 176.72 123.25 176.56 C 122.40 176.40 121.58 176.96 121.42 177.81 Z M 121.23 178.79 L 121.06 179.77 C 120.90 180.62 121.47 181.44 122.32 181.59 C 123.17 181.74 123.99 181.18 124.14 180.33 L 124.32 179.35 C 124.47 178.50 123.90 177.68 123.05 177.53 C 122.20 177.38 121.38 177.94 121.23 178.79 Z M 121.05 179.78 L 120.88 180.76 C 120.74 181.62 121.31 182.43 122.16 182.57 C 123.02 182.72 123.83 182.15 123.97 181.29 L 124.14 180.31 C 124.29 179.46 123.72 178.65 122.86 178.50 C 122.01 178.36 121.20 178.93 121.05 179.78 Z M 120.88 180.78 L 120.72 181.76 C 120.58 182.62 121.16 183.43 122.02 183.56 C 122.87 183.70 123.68 183.12 123.81 182.27 L 123.98 181.28 C 124.12 180.43 123.54 179.62 122.68 179.48 C 121.83 179.34 121.02 179.92 120.88 180.78 Z M 120.72 181.78 L 120.56 182.77 C 120.43 183.63 121.02 184.43 121.87 184.56 C 122.73 184.70 123.53 184.11 123.66 183.25 L 123.82 182.26 C 123.95 181.40 123.36 180.60 122.51 180.47 C 121.65 180.34 120.85 180.92 120.72 181.78 Z M 120.56 182.79 L 120.41 183.79 C 120.29 184.65 120.88 185.44 121.74 185.57 C 122.59 185.70 123.39 185.10 123.52 184.25 L 123.66 183.24 C 123.79 182.39 123.20 181.59 122.34 181.46 C 121.49 181.34 120.69 181.93 120.56 182.79 Z M 120.41 183.80 L 120.27 184.81 C 120.15 185.67 120.75 186.46 121.61 186.58 C 122.47 186.70 123.26 186.10 123.38 185.24 L 123.52 184.23 C 123.64 183.38 123.04 182.58 122.18 182.47 C 121.32 182.35 120.53 182.94 120.41 183.80 Z M 120.27 184.82 L 120.14 185.83 C 120.02 186.69 120.63 187.48 121.49 187.59 C 122.34 187.70 123.13 187.10 123.25 186.24 L 123.38 185.23 C 123.49 184.37 122.89 183.59 122.03 183.47 C 121.17 183.36 120.38 183.96 120.27 184.82 Z M 120.13 185.84 L 120.01 186.86 C 119.90 187.72 120.51 188.50 121.37 188.61 C 122.23 188.71 123.01 188.10 123.12 187.24 L 123.25 186.23 C 123.35 185.37 122.74 184.59 121.88 184.48 C 121.02 184.37 120.24 184.98 120.13 185.84 Z M 120.01 186.87 L 119.89 187.88 C 119.79 188.74 120.41 189.52 121.27 189.62 C 122.13 189.72 122.91 189.11 123.01 188.24 L 123.12 187.23 C 123.22 186.37 122.61 185.59 121.75 185.49 C 120.89 185.39 120.11 186.01 120.01 186.87 Z M 119.89 187.90 L 119.78 188.90 C 119.69 189.77 120.31 190.54 121.17 190.63 C 122.03 190.72 122.81 190.10 122.90 189.24 L 123.01 188.23 C 123.10 187.37 122.48 186.59 121.62 186.50 C 120.75 186.41 119.98 187.03 119.89 187.90 Z M 119.78 188.92 L 119.68 189.92 C 119.59 190.78 120.22 191.55 121.09 191.63 C 121.95 191.72 122.72 191.09 122.80 190.22 L 122.90 189.23 C 122.99 188.36 122.36 187.59 121.49 187.51 C 120.63 187.42 119.86 188.05 119.78 188.92 Z M 119.68 189.93 L 119.59 190.92 C 119.51 191.78 120.15 192.55 121.02 192.62 C 121.88 192.70 122.64 192.06 122.72 191.19 L 122.81 190.21 C 122.88 189.34 122.24 188.58 121.38 188.51 C 120.51 188.43 119.75 189.07 119.68 189.93 Z M 119.59 190.94 L 119.51 191.90 C 119.45 192.77 120.09 193.52 120.96 193.59 C 121.82 193.66 122.58 193.01 122.65 192.15 L 122.72 191.18 C 122.79 190.31 122.14 189.56 121.27 189.49 C 120.41 189.42 119.65 190.07 119.59 190.94 Z M 119.51 191.92 L 119.45 192.89 C 119.39 193.76 120.05 194.51 120.91 194.56 C 121.78 194.62 122.53 193.96 122.58 193.10 L 122.65 192.13 C 122.70 191.26 122.05 190.51 121.18 190.46 C 120.31 190.40 119.57 191.06 119.51 191.92 Z M 119.44 192.92 L 119.39 193.98 C 119.35 194.85 120.01 195.59 120.88 195.63 C 121.75 195.68 122.49 195.01 122.53 194.14 L 122.59 193.08 C 122.63 192.21 121.96 191.47 121.10 191.42 C 120.23 191.38 119.49 192.05 119.44 192.92 Z M 119.39 194.00 L 119.35 195.04 C 119.32 195.91 120.00 196.64 120.87 196.67 C 121.74 196.70 122.47 196.02 122.50 195.15 L 122.54 194.12 C 122.57 193.25 121.89 192.52 121.02 192.49 C 120.15 192.45 119.42 193.13 119.39 194.00 Z M 119.34 195.06 L 119.32 196.07 C 119.30 196.94 119.99 197.66 120.86 197.68 C 121.73 197.71 122.46 197.02 122.48 196.14 L 122.50 195.13 C 122.52 194.26 121.83 193.54 120.96 193.52 C 120.09 193.50 119.37 194.19 119.34 195.06 Z M 119.32 196.09 L 119.30 197.07 C 119.29 197.95 119.99 198.66 120.87 198.68 C 121.74 198.69 122.46 197.99 122.47 197.11 L 122.48 196.13 C 122.49 195.25 121.79 194.54 120.92 194.52 C 120.05 194.51 119.33 195.21 119.32 196.09 Z M 119.30 197.09 L 119.30 198.06 C 119.30 198.93 120.00 199.65 120.88 199.65 C 121.75 199.65 122.46 198.94 122.47 198.07 L 122.47 197.10 C 122.47 196.22 121.77 195.51 120.89 195.51 C 120.02 195.51 119.31 196.21 119.30 197.09 Z M 119.30 198.07 L 119.30 199.03 C 119.30 199.90 120.02 200.61 120.89 200.61 C 121.77 200.61 122.48 199.89 122.47 199.02 L 122.47 198.06 C 122.47 197.18 121.75 196.47 120.88 196.48 C 120.00 196.48 119.29 197.19 119.30 198.07 Z M 119.30 199.04 L 119.31 200.00 C 119.31 200.87 120.03 201.58 120.91 201.57 C 121.79 201.56 122.49 200.85 122.49 199.97 L 122.48 199.01 C 122.47 198.13 121.75 197.42 120.87 197.43 C 120.00 197.44 119.29 198.16 119.30 199.04 Z M 119.30 200.00 L 119.32 201.02 C 119.33 201.90 120.05 202.60 120.93 202.59 C 121.81 202.58 122.51 201.86 122.50 200.98 L 122.49 199.96 C 122.48 199.08 121.75 198.38 120.87 198.39 C 120.00 198.40 119.29 199.12 119.30 200.00 Z M 119.31 201.03 L 119.34 202.04 C 119.35 202.92 120.08 203.62 120.96 203.60 C 121.85 203.59 122.54 202.86 122.52 201.98 L 122.50 200.96 C 122.48 200.08 121.76 199.39 120.87 199.40 C 119.99 199.42 119.30 200.15 119.31 201.03 Z M 119.33 202.06 L 119.37 203.07 C 119.40 203.95 120.14 204.64 121.02 204.61 C 121.90 204.58 122.59 203.84 122.56 202.96 L 122.53 201.96 C 122.50 201.07 121.76 200.38 120.88 200.41 C 119.99 200.44 119.30 201.18 119.33 202.06 Z M 119.37 203.10 L 119.42 204.09 C 119.46 204.97 120.22 205.65 121.10 205.61 C 121.98 205.56 122.66 204.81 122.61 203.93 L 122.56 202.93 C 122.52 202.05 121.76 201.37 120.88 201.42 C 120.00 201.46 119.32 202.21 119.37 203.10 Z M 119.42 204.13 L 119.49 205.11 C 119.56 206.00 120.32 206.66 121.21 206.59 C 122.09 206.53 122.75 205.76 122.69 204.88 L 122.61 203.89 C 122.55 203.01 121.78 202.35 120.90 202.41 C 120.02 202.48 119.35 203.24 119.42 204.13 Z M 119.49 205.16 L 119.59 206.13 C 119.68 207.02 120.46 207.66 121.35 207.57 C 122.23 207.48 122.87 206.70 122.78 205.81 L 122.68 204.84 C 122.60 203.95 121.81 203.31 120.93 203.40 C 120.05 203.49 119.40 204.27 119.49 205.16 Z M 119.59 206.19 L 119.73 207.18 C 119.84 208.06 120.65 208.68 121.53 208.57 C 122.41 208.45 123.03 207.64 122.91 206.76 L 122.78 205.76 C 122.66 204.88 121.85 204.27 120.98 204.38 C 120.10 204.50 119.48 205.31 119.59 206.19 Z M 119.73 207.24 L 119.90 208.24 C 120.04 209.12 120.87 209.71 121.75 209.57 C 122.62 209.42 123.22 208.59 123.07 207.72 L 122.91 206.71 C 122.76 205.83 121.93 205.24 121.05 205.39 C 120.18 205.53 119.59 206.36 119.73 207.24 Z M 119.90 208.29 L 120.10 209.28 C 120.27 210.16 121.12 210.72 122.00 210.55 C 122.87 210.38 123.44 209.53 123.26 208.66 L 123.07 207.67 C 122.89 206.79 122.04 206.23 121.17 206.40 C 120.30 206.57 119.73 207.42 119.90 208.29 Z M 120.11 209.33 L 120.33 210.31 C 120.53 211.17 121.40 211.72 122.27 211.52 C 123.13 211.32 123.68 210.45 123.48 209.59 L 123.25 208.61 C 123.06 207.74 122.19 207.20 121.32 207.40 C 120.45 207.60 119.91 208.46 120.11 209.33 Z M 120.34 210.35 L 120.59 211.31 C 120.81 212.17 121.69 212.69 122.56 212.47 C 123.42 212.25 123.94 211.36 123.72 210.50 L 123.47 209.54 C 123.25 208.68 122.36 208.16 121.50 208.38 C 120.64 208.60 120.12 209.49 120.34 210.35 Z M 120.60 211.35 L 120.87 212.29 C 121.11 213.15 122.01 213.65 122.87 213.40 C 123.73 213.16 124.22 212.26 123.98 211.40 L 123.71 210.46 C 123.46 209.60 122.57 209.10 121.71 209.35 C 120.85 209.60 120.35 210.49 120.60 211.35 Z M 120.88 212.33 L 121.18 213.29 C 121.45 214.15 122.36 214.62 123.21 214.35 C 124.06 214.09 124.54 213.18 124.27 212.32 L 123.97 211.36 C 123.70 210.51 122.79 210.03 121.94 210.30 C 121.08 210.57 120.61 211.48 120.88 212.33 Z M 121.19 213.33 L 121.53 214.31 C 121.82 215.16 122.74 215.61 123.59 215.32 C 124.43 215.03 124.89 214.11 124.59 213.26 L 124.26 212.28 C 123.97 211.44 123.05 210.98 122.20 211.27 C 121.35 211.56 120.90 212.49 121.19 213.33 Z M 121.54 214.36 L 121.90 215.31 C 122.21 216.15 123.15 216.58 123.99 216.26 C 124.83 215.95 125.25 215.01 124.94 214.17 L 124.58 213.22 C 124.27 212.38 123.33 211.95 122.49 212.27 C 121.65 212.58 121.23 213.52 121.54 214.36 Z M 121.92 215.36 L 122.30 216.28 C 122.64 217.11 123.59 217.51 124.42 217.17 C 125.25 216.83 125.64 215.88 125.30 215.05 L 124.92 214.12 C 124.58 213.29 123.63 212.90 122.80 213.24 C 121.97 213.58 121.57 214.53 121.92 215.36 Z M 122.32 216.34 L 122.72 217.23 C 123.09 218.04 124.06 218.41 124.87 218.04 C 125.69 217.67 126.05 216.70 125.68 215.88 L 125.28 214.99 C 124.91 214.18 123.95 213.81 123.13 214.18 C 122.31 214.55 121.95 215.52 122.32 216.34 Z M 122.75 217.28 L 123.17 218.14 C 123.57 218.94 124.55 219.27 125.36 218.87 C 126.16 218.47 126.49 217.49 126.09 216.68 L 125.66 215.83 C 125.26 215.02 124.28 214.70 123.48 215.10 C 122.67 215.50 122.34 216.48 122.75 217.28 Z M 123.20 218.20 L 123.69 219.09 C 124.13 219.88 125.12 220.16 125.91 219.73 C 126.70 219.29 126.98 218.30 126.55 217.51 L 126.06 216.62 C 125.62 215.83 124.63 215.55 123.84 215.99 C 123.05 216.42 122.77 217.41 123.20 218.20 Z M 123.73 219.15 L 124.26 220.02 C 124.73 220.79 125.74 221.03 126.51 220.55 C 127.28 220.08 127.52 219.07 127.04 218.31 L 126.51 217.44 C 126.04 216.67 125.03 216.44 124.27 216.91 C 123.50 217.38 123.26 218.39 123.73 219.15 Z M 124.30 220.08 L 124.86 220.91 C 125.37 221.65 126.39 221.85 127.13 221.34 C 127.88 220.83 128.07 219.81 127.57 219.07 L 127.00 218.24 C 126.50 217.49 125.48 217.30 124.73 217.81 C 123.98 218.32 123.79 219.34 124.30 220.08 Z M 124.90 220.97 L 125.49 221.76 C 126.03 222.49 127.06 222.63 127.79 222.09 C 128.51 221.55 128.66 220.52 128.12 219.79 L 127.53 219.00 C 126.98 218.28 125.96 218.13 125.23 218.67 C 124.51 219.22 124.36 220.24 124.90 220.97 Z M 125.53 221.82 L 126.15 222.58 C 126.73 223.28 127.76 223.38 128.47 222.81 C 129.17 222.23 129.27 221.20 128.70 220.50 L 128.08 219.74 C 127.50 219.03 126.47 218.93 125.76 219.51 C 125.06 220.08 124.96 221.12 125.53 221.82 Z M 126.20 222.63 L 126.88 223.39 C 127.48 224.07 128.52 224.13 129.20 223.53 C 129.88 222.92 129.94 221.88 129.33 221.20 L 128.66 220.44 C 128.05 219.76 127.01 219.70 126.33 220.31 C 125.65 220.91 125.59 221.95 126.20 222.63 Z M 126.93 223.45 L 127.65 224.19 C 128.28 224.84 129.33 224.85 129.98 224.21 C 130.63 223.58 130.64 222.53 130.00 221.88 L 129.28 221.15 C 128.65 220.49 127.60 220.48 126.95 221.12 C 126.30 221.76 126.29 222.80 126.93 223.45 Z M 127.71 224.25 L 128.46 224.94 C 129.13 225.55 130.17 225.51 130.79 224.84 C 131.40 224.16 131.36 223.12 130.69 222.51 L 129.94 221.82 C 129.27 221.20 128.23 221.25 127.61 221.92 C 126.99 222.59 127.04 223.63 127.71 224.25 Z M 128.54 225.01 L 129.30 225.63 C 130.01 226.20 131.05 226.09 131.63 225.38 C 132.20 224.67 132.09 223.63 131.38 223.05 L 130.61 222.44 C 129.90 221.86 128.86 221.97 128.29 222.68 C 127.71 223.39 127.83 224.43 128.54 225.01 Z M 129.40 225.70 L 130.19 226.24 C 130.94 226.76 131.97 226.57 132.49 225.82 C 133.00 225.06 132.81 224.04 132.06 223.52 L 131.28 222.98 C 130.53 222.46 129.50 222.65 128.98 223.40 C 128.46 224.16 128.65 225.18 129.40 225.70 Z M 130.32 226.33 L 131.21 226.82 C 132.00 227.26 133.01 226.97 133.45 226.17 C 133.90 225.37 133.61 224.37 132.81 223.92 L 131.93 223.43 C 131.13 222.99 130.12 223.28 129.68 224.08 C 129.24 224.88 129.52 225.88 130.32 226.33 Z M 131.36 226.89 L 132.28 227.28 C 133.12 227.64 134.09 227.25 134.45 226.41 C 134.81 225.57 134.41 224.59 133.57 224.24 L 132.66 223.85 C 131.81 223.49 130.84 223.88 130.49 224.72 C 130.13 225.56 130.52 226.54 131.36 226.89 Z M 132.44 227.34 L 133.38 227.63 C 134.25 227.90 135.18 227.42 135.45 226.54 C 135.72 225.67 135.23 224.74 134.36 224.47 L 133.42 224.18 C 132.54 223.91 131.62 224.40 131.35 225.27 C 131.07 226.14 131.56 227.07 132.44 227.34 Z M 133.52 227.67 L 134.49 227.88 C 135.38 228.07 136.26 227.50 136.46 226.61 C 136.65 225.71 136.08 224.83 135.18 224.64 L 134.21 224.43 C 133.32 224.24 132.44 224.81 132.25 225.70 C 132.06 226.60 132.63 227.48 133.52 227.67 Z M 134.61 227.90 L 135.59 228.04 C 136.49 228.16 137.33 227.53 137.45 226.62 C 137.58 225.72 136.94 224.88 136.04 224.76 L 135.06 224.62 C 134.16 224.50 133.32 225.13 133.20 226.03 C 133.07 226.94 133.70 227.78 134.61 227.90 Z M 135.68 228.04 L 136.66 228.12 C 137.57 228.20 138.37 227.52 138.44 226.61 C 138.51 225.70 137.83 224.90 136.92 224.82 L 135.95 224.75 C 135.03 224.67 134.24 225.35 134.16 226.26 C 134.09 227.17 134.77 227.97 135.68 228.04 Z M 136.72 228.13 L 137.72 228.17 C 138.63 228.20 139.40 227.49 139.44 226.58 C 139.48 225.67 138.77 224.90 137.86 224.86 L 136.86 224.82 C 135.94 224.78 135.17 225.49 135.14 226.41 C 135.10 227.32 135.81 228.09 136.72 228.13 Z M 137.77 228.17 L 138.78 228.18 C 139.69 228.20 140.44 227.47 140.46 226.55 C 140.47 225.64 139.74 224.89 138.83 224.88 L 137.81 224.86 C 136.90 224.85 136.15 225.58 136.14 226.49 C 136.12 227.40 136.85 228.15 137.77 228.17 Z M 138.80 228.18 L 139.82 228.18 C 140.73 228.19 141.47 227.45 141.48 226.54 C 141.48 225.62 140.74 224.88 139.83 224.88 L 138.81 224.88 C 137.90 224.88 137.15 225.61 137.15 226.53 C 137.15 227.44 137.89 228.18 138.80 228.18 Z M 139.83 228.18 L 140.83 228.18 C 141.74 228.18 142.48 227.44 142.48 226.52 C 142.47 225.61 141.73 224.88 140.82 224.88 L 139.82 224.88 C 138.91 224.88 138.17 225.63 138.17 226.54 C 138.18 227.45 138.92 228.19 139.83 228.18 Z M 140.86 228.18 L 141.86 228.16 C 142.77 228.14 143.49 227.38 143.47 226.47 C 143.45 225.56 142.70 224.83 141.78 224.86 L 140.79 224.88 C 139.87 224.90 139.15 225.66 139.17 226.57 C 139.19 227.48 139.95 228.20 140.86 228.18 Z M 141.93 228.16 L 142.92 228.09 C 143.83 228.04 144.52 227.25 144.47 226.34 C 144.41 225.43 143.63 224.74 142.71 224.79 L 141.72 224.86 C 140.81 224.91 140.12 225.70 140.17 226.61 C 140.23 227.52 141.02 228.21 141.93 228.16 Z M 143.02 228.08 L 144.01 227.96 C 144.92 227.85 145.56 227.03 145.45 226.12 C 145.34 225.21 144.51 224.57 143.61 224.68 L 142.62 224.80 C 141.71 224.91 141.07 225.74 141.18 226.65 C 141.29 227.55 142.11 228.20 143.02 228.08 Z M 144.14 227.94 L 145.11 227.75 C 146.00 227.56 146.58 226.69 146.40 225.80 C 146.22 224.90 145.34 224.32 144.45 224.51 L 143.48 224.70 C 142.59 224.88 142.01 225.76 142.19 226.65 C 142.37 227.55 143.24 228.12 144.14 227.94 Z M 145.24 227.71 L 146.16 227.44 C 147.04 227.19 147.54 226.27 147.29 225.40 C 147.03 224.52 146.12 224.02 145.24 224.27 L 144.32 224.54 C 143.44 224.79 142.94 225.71 143.19 226.59 C 143.45 227.46 144.36 227.97 145.24 227.71 Z M 146.28 227.40 L 147.20 227.06 C 148.05 226.74 148.49 225.79 148.17 224.94 C 147.85 224.09 146.91 223.65 146.05 223.97 L 145.13 224.31 C 144.28 224.63 143.84 225.58 144.16 226.43 C 144.47 227.28 145.42 227.72 146.28 227.40 Z M 147.29 227.02 L 148.21 226.61 C 149.04 226.24 149.42 225.27 149.05 224.44 C 148.68 223.61 147.71 223.23 146.88 223.60 L 145.96 224.01 C 145.13 224.38 144.75 225.35 145.12 226.18 C 145.49 227.01 146.46 227.39 147.29 227.02 Z M 148.29 226.57 L 149.21 226.10 C 150.02 225.69 150.34 224.70 149.93 223.89 C 149.51 223.08 148.52 222.76 147.72 223.17 L 146.80 223.64 C 145.99 224.05 145.67 225.04 146.08 225.85 C 146.50 226.66 147.49 226.98 148.29 226.57 Z M 149.27 226.06 L 150.14 225.57 C 150.93 225.12 151.21 224.12 150.76 223.33 C 150.31 222.54 149.31 222.27 148.52 222.72 L 147.65 223.21 C 146.86 223.66 146.59 224.66 147.04 225.45 C 147.48 226.23 148.49 226.51 149.27 226.06 Z M 150.19 225.54 L 151.00 225.04 C 151.77 224.57 152.01 223.56 151.53 222.79 C 151.06 222.02 150.05 221.78 149.28 222.25 L 148.47 222.75 C 147.70 223.22 147.46 224.23 147.94 225.00 C 148.41 225.77 149.42 226.01 150.19 225.54 Z M 151.04 225.01 L 151.85 224.47 C 152.60 223.98 152.81 222.96 152.31 222.21 C 151.81 221.45 150.80 221.25 150.04 221.75 L 149.23 222.28 C 148.48 222.78 148.27 223.80 148.77 224.55 C 149.27 225.30 150.29 225.51 151.04 225.01 Z M 151.89 224.45 L 152.70 223.87 C 153.44 223.35 153.62 222.33 153.10 221.59 C 152.58 220.86 151.56 220.68 150.82 221.20 L 150.00 221.77 C 149.27 222.29 149.09 223.31 149.61 224.05 C 150.13 224.79 151.15 224.97 151.89 224.45 Z M 152.74 223.84 L 153.56 223.23 C 154.29 222.69 154.44 221.67 153.90 220.94 C 153.36 220.22 152.34 220.07 151.61 220.61 L 150.79 221.23 C 150.06 221.76 149.91 222.79 150.45 223.51 C 150.99 224.23 152.01 224.38 152.74 223.84 Z M 153.59 223.20 L 154.43 222.55 C 155.14 221.99 155.27 220.97 154.71 220.26 C 154.16 219.55 153.13 219.42 152.43 219.98 L 151.59 220.63 C 150.88 221.19 150.75 222.21 151.31 222.92 C 151.86 223.63 152.88 223.76 153.59 223.20 Z M 154.46 222.52 L 155.21 221.91 C 155.91 221.34 156.02 220.32 155.45 219.62 C 154.88 218.92 153.85 218.82 153.16 219.38 L 152.40 220.00 C 151.70 220.57 151.60 221.59 152.17 222.29 C 152.74 222.99 153.76 223.09 154.46 222.52 Z M 155.23 221.89 L 155.98 221.26 C 156.66 220.68 156.75 219.66 156.17 218.97 C 155.59 218.29 154.57 218.20 153.88 218.78 L 153.14 219.40 C 152.45 219.98 152.36 221.01 152.94 221.69 C 153.52 222.38 154.55 222.47 155.23 221.89 Z M 155.99 221.24 L 156.74 220.59 C 157.42 220.00 157.49 218.98 156.90 218.30 C 156.31 217.63 155.28 217.56 154.61 218.15 L 153.86 218.80 C 153.18 219.39 153.11 220.41 153.70 221.09 C 154.29 221.76 155.32 221.83 155.99 221.24 Z M 156.76 220.57 L 157.51 219.90 C 158.17 219.30 158.23 218.28 157.63 217.61 C 157.03 216.94 156.00 216.89 155.34 217.49 L 154.59 218.16 C 153.92 218.76 153.87 219.79 154.47 220.45 C 155.07 221.12 156.09 221.17 156.76 220.57 Z M 157.53 219.88 L 158.27 219.19 C 158.93 218.58 158.97 217.55 158.36 216.90 C 157.75 216.24 156.72 216.21 156.07 216.81 L 155.32 217.51 C 154.67 218.12 154.63 219.14 155.24 219.80 C 155.85 220.45 156.87 220.49 157.53 219.88 Z M 158.29 219.17 L 159.03 218.45 C 159.68 217.84 159.70 216.81 159.08 216.17 C 158.46 215.52 157.44 215.50 156.79 216.12 L 156.05 216.83 C 155.41 217.45 155.39 218.48 156.01 219.12 C 156.62 219.76 157.65 219.78 158.29 219.17 Z M 159.05 218.43 L 159.77 217.72 C 160.40 217.09 160.41 216.07 159.78 215.43 C 159.15 214.80 158.13 214.80 157.50 215.43 L 156.78 216.14 C 156.14 216.77 156.14 217.79 156.77 218.42 C 157.40 219.06 158.42 219.06 159.05 218.43 Z M 159.79 217.70 L 160.47 217.00 C 161.09 216.36 161.08 215.34 160.45 214.72 C 159.81 214.09 158.79 214.11 158.16 214.74 L 157.48 215.44 C 156.86 216.08 156.87 217.10 157.51 217.73 C 158.15 218.35 159.17 218.33 159.79 217.70 Z M 160.49 216.98 L 161.16 216.27 C 161.78 215.62 161.75 214.60 161.10 213.99 C 160.46 213.38 159.44 213.40 158.83 214.05 L 158.15 214.76 C 157.54 215.41 157.56 216.43 158.21 217.04 C 158.86 217.65 159.88 217.62 160.49 216.98 Z M 161.18 216.25 L 161.85 215.52 C 162.45 214.87 162.41 213.85 161.76 213.25 C 161.11 212.65 160.09 212.69 159.49 213.34 L 158.81 214.06 C 158.21 214.72 158.25 215.74 158.90 216.34 C 159.55 216.94 160.57 216.90 161.18 216.25 Z M 161.86 215.51 L 162.53 214.77 C 163.13 214.11 163.08 213.10 162.42 212.50 C 161.76 211.90 160.74 211.95 160.14 212.61 L 159.47 213.35 C 158.88 214.01 158.93 215.03 159.59 215.62 C 160.25 216.22 161.26 216.17 161.86 215.51 Z M 162.54 214.76 L 163.21 214.01 C 163.80 213.34 163.74 212.33 163.08 211.74 C 162.41 211.15 161.40 211.21 160.81 211.87 L 160.14 212.62 C 159.55 213.29 159.61 214.30 160.27 214.89 C 160.93 215.48 161.95 215.42 162.54 214.76 Z M 163.22 214.00 L 163.89 213.23 C 164.48 212.56 164.41 211.54 163.74 210.96 C 163.07 210.37 162.06 210.44 161.47 211.11 L 160.80 211.88 C 160.22 212.55 160.28 213.56 160.95 214.15 C 161.62 214.73 162.63 214.66 163.22 214.00 Z M 163.90 213.22 L 164.55 212.46 C 165.14 211.79 165.06 210.77 164.39 210.19 C 163.72 209.61 162.71 209.69 162.13 210.36 L 161.47 211.12 C 160.89 211.79 160.96 212.80 161.63 213.38 C 162.30 213.96 163.31 213.89 163.90 213.22 Z M 164.56 212.45 L 165.19 211.72 C 165.76 211.05 165.69 210.04 165.02 209.46 C 164.35 208.88 163.33 208.96 162.76 209.63 L 162.13 210.36 C 161.55 211.03 161.63 212.05 162.30 212.62 C 162.97 213.20 163.98 213.12 164.56 212.45 Z M 165.19 211.71 L 165.83 210.97 C 166.40 210.30 166.32 209.28 165.65 208.71 C 164.97 208.14 163.96 208.22 163.39 208.89 L 162.75 209.63 C 162.18 210.31 162.26 211.32 162.93 211.89 C 163.61 212.47 164.62 212.39 165.19 211.71 Z M 165.83 210.96 L 166.47 210.21 C 167.04 209.53 166.96 208.52 166.28 207.95 C 165.61 207.38 164.60 207.46 164.03 208.14 L 163.39 208.90 C 162.82 209.57 162.90 210.58 163.57 211.15 C 164.25 211.72 165.26 211.64 165.83 210.96 Z M 166.47 210.20 L 167.12 209.43 C 167.69 208.76 167.60 207.75 166.92 207.18 C 166.25 206.61 165.24 206.70 164.67 207.38 L 164.03 208.14 C 163.46 208.82 163.55 209.83 164.22 210.39 C 164.90 210.96 165.90 210.88 166.47 210.20 Z M 167.12 209.43 L 167.77 208.65 C 168.34 207.97 168.25 206.97 167.57 206.40 C 166.89 205.84 165.89 205.93 165.32 206.60 L 164.67 207.38 C 164.11 208.06 164.20 209.06 164.87 209.63 C 165.55 210.19 166.55 210.10 167.12 209.43 Z M 167.77 208.65 L 168.43 207.86 C 168.99 207.18 168.90 206.18 168.22 205.61 C 167.54 205.05 166.54 205.14 165.97 205.82 L 165.32 206.61 C 164.76 207.28 164.85 208.29 165.53 208.85 C 166.20 209.41 167.21 209.32 167.77 208.65 Z M 168.43 207.85 L 169.08 207.06 C 169.64 206.38 169.55 205.38 168.87 204.82 C 168.19 204.26 167.19 204.35 166.63 205.03 L 165.97 205.83 C 165.41 206.50 165.51 207.51 166.19 208.07 C 166.86 208.63 167.87 208.53 168.43 207.85 Z M 169.09 207.05 L 169.72 206.29 C 170.27 205.61 170.18 204.61 169.50 204.05 C 168.82 203.49 167.82 203.59 167.26 204.27 L 166.63 205.03 C 166.07 205.71 166.17 206.71 166.85 207.27 C 167.53 207.83 168.53 207.73 169.09 207.05 Z M 169.72 206.28 L 170.34 205.52 C 170.90 204.84 170.80 203.84 170.12 203.28 C 169.44 202.73 168.44 202.83 167.89 203.51 L 167.26 204.27 C 166.70 204.95 166.80 205.95 167.48 206.51 C 168.16 207.06 169.16 206.96 169.72 206.28 Z M 170.35 205.52 L 170.97 204.74 C 171.53 204.07 171.43 203.07 170.75 202.51 C 170.07 201.96 169.07 202.06 168.51 202.74 L 167.88 203.51 C 167.33 204.19 167.43 205.19 168.11 205.74 C 168.79 206.30 169.79 206.20 170.35 205.52 Z M 170.97 204.74 L 171.60 203.97 C 172.16 203.29 172.05 202.29 171.37 201.74 C 170.69 201.18 169.69 201.29 169.14 201.97 L 168.51 202.74 C 167.96 203.42 168.06 204.42 168.74 204.97 C 169.42 205.53 170.42 205.42 170.97 204.74 Z M 171.60 203.96 L 172.24 203.18 C 172.79 202.50 172.68 201.51 172.00 200.95 C 171.32 200.40 170.32 200.51 169.77 201.19 L 169.14 201.97 C 168.59 202.65 168.70 203.65 169.38 204.20 C 170.06 204.75 171.05 204.64 171.60 203.96 Z M 172.24 203.18 L 172.87 202.40 C 173.42 201.72 173.31 200.72 172.63 200.17 C 171.95 199.62 170.95 199.73 170.40 200.41 L 169.77 201.19 C 169.22 201.87 169.33 202.87 170.01 203.42 C 170.69 203.97 171.69 203.86 172.24 203.18 Z M 172.87 202.39 L 173.50 201.61 C 174.05 200.93 173.94 199.93 173.26 199.38 C 172.58 198.84 171.58 198.94 171.03 199.63 L 170.40 200.41 C 169.85 201.09 169.96 202.09 170.64 202.64 C 171.32 203.18 172.32 203.08 172.87 202.39 Z M 173.50 201.61 L 174.13 200.82 C 174.68 200.13 174.57 199.14 173.89 198.59 C 173.21 198.05 172.21 198.16 171.67 198.84 L 171.03 199.63 C 170.49 200.31 170.60 201.30 171.28 201.85 C 171.96 202.40 172.95 202.29 173.50 201.61 Z M 174.13 200.81 L 174.76 200.03 C 175.30 199.35 175.19 198.36 174.51 197.81 C 173.83 197.27 172.83 197.38 172.29 198.06 L 171.67 198.84 C 171.12 199.52 171.23 200.52 171.91 201.06 C 172.59 201.61 173.59 201.50 174.13 200.81 Z M 174.76 200.03 L 175.38 199.25 C 175.93 198.56 175.81 197.57 175.13 197.03 C 174.45 196.48 173.46 196.60 172.91 197.28 L 172.29 198.06 C 171.75 198.74 171.86 199.74 172.54 200.28 C 173.22 200.82 174.22 200.71 174.76 200.03 Z M 175.38 199.24 L 176.01 198.46 C 176.55 197.78 176.43 196.78 175.75 196.24 C 175.07 195.70 174.08 195.82 173.54 196.50 L 172.91 197.28 C 172.37 197.96 172.49 198.96 173.17 199.50 C 173.85 200.04 174.84 199.92 175.38 199.24 Z M 176.01 198.45 L 176.63 197.67 C 177.17 196.99 177.05 196.00 176.37 195.46 C 175.69 194.92 174.70 195.03 174.16 195.72 L 173.53 196.50 C 173.00 197.18 173.11 198.17 173.79 198.71 C 174.48 199.25 175.47 199.14 176.01 198.45 Z M 176.63 197.67 L 177.25 196.88 C 177.78 196.20 177.67 195.21 176.98 194.67 C 176.30 194.13 175.31 194.25 174.77 194.93 L 174.15 195.72 C 173.62 196.40 173.74 197.39 174.42 197.93 C 175.10 198.47 176.09 198.35 176.63 197.67 Z M 177.25 196.88 L 177.87 196.09 C 178.40 195.40 178.28 194.42 177.60 193.88 C 176.91 193.34 175.93 193.46 175.39 194.15 L 174.77 194.94 C 174.24 195.62 174.36 196.61 175.04 197.14 C 175.72 197.68 176.71 197.56 177.25 196.88 Z M 177.87 196.08 L 178.48 195.30 C 179.01 194.61 178.89 193.62 178.21 193.09 C 177.52 192.56 176.54 192.68 176.00 193.36 L 175.39 194.15 C 174.86 194.84 174.98 195.82 175.66 196.36 C 176.35 196.89 177.33 196.77 177.87 196.08 Z M 178.48 195.29 L 179.09 194.50 C 179.62 193.82 179.50 192.83 178.81 192.30 C 178.13 191.77 177.14 191.90 176.61 192.58 L 176.00 193.37 C 175.47 194.05 175.60 195.04 176.28 195.57 C 176.97 196.10 177.95 195.98 178.48 195.29 Z M 179.09 194.50 L 179.70 193.71 C 180.23 193.02 180.10 192.04 179.42 191.51 C 178.73 190.98 177.75 191.11 177.22 191.79 L 176.61 192.59 C 176.08 193.27 176.21 194.26 176.90 194.78 C 177.58 195.31 178.57 195.18 179.09 194.50 Z M 179.71 193.70 L 180.31 192.91 C 180.84 192.22 180.71 191.24 180.02 190.71 C 179.33 190.19 178.35 190.32 177.82 191.01 L 177.21 191.80 C 176.69 192.49 176.82 193.47 177.51 194.00 C 178.20 194.52 179.18 194.39 179.71 193.70 Z M 180.31 192.90 L 180.92 192.11 C 181.44 191.42 181.30 190.44 180.62 189.92 C 179.93 189.39 178.94 189.53 178.42 190.22 L 177.82 191.01 C 177.30 191.70 177.43 192.68 178.12 193.21 C 178.81 193.73 179.79 193.59 180.31 192.90 Z M 180.92 192.10 L 181.52 191.31 C 182.04 190.62 181.90 189.64 181.21 189.12 C 180.52 188.60 179.54 188.73 179.02 189.43 L 178.42 190.22 C 177.90 190.91 178.04 191.89 178.73 192.41 C 179.42 192.93 180.40 192.80 180.92 192.10 Z M 181.52 191.30 L 182.12 190.50 C 182.64 189.81 182.49 188.83 181.80 188.31 C 181.11 187.80 180.13 187.94 179.61 188.63 L 179.02 189.43 C 178.50 190.12 178.64 191.10 179.33 191.62 C 180.02 192.14 181.00 192.00 181.52 191.30 Z M 182.12 190.50 L 182.72 189.70 C 183.23 189.00 183.09 188.02 182.39 187.51 C 181.70 186.99 180.72 187.14 180.21 187.83 L 179.61 188.64 C 179.10 189.33 179.24 190.31 179.93 190.82 C 180.63 191.34 181.61 191.19 182.12 190.50 Z M 182.72 189.69 L 183.31 188.88 C 183.83 188.19 183.68 187.21 182.98 186.70 C 182.29 186.19 181.31 186.34 180.80 187.03 L 180.20 187.84 C 179.69 188.53 179.84 189.51 180.53 190.02 C 181.23 190.53 182.21 190.39 182.72 189.69 Z M 183.32 188.88 L 183.91 188.07 C 184.42 187.37 184.27 186.39 183.57 185.88 C 182.88 185.38 181.90 185.53 181.39 186.22 L 180.80 187.04 C 180.29 187.73 180.44 188.71 181.13 189.22 C 181.83 189.73 182.81 189.58 183.32 188.88 Z M 183.91 188.06 L 184.52 187.23 C 185.02 186.53 184.87 185.56 184.17 185.05 C 183.47 184.55 182.49 184.70 181.99 185.40 L 181.39 186.23 C 180.88 186.93 181.04 187.90 181.73 188.41 C 182.43 188.92 183.41 188.76 183.91 188.06 Z M 184.52 187.23 L 185.12 186.39 C 185.63 185.69 185.47 184.72 184.77 184.21 C 184.07 183.71 183.09 183.87 182.59 184.57 L 181.98 185.40 C 181.48 186.10 181.64 187.08 182.34 187.58 C 183.04 188.09 184.02 187.93 184.52 187.23 Z M 185.13 186.38 L 185.72 185.55 C 186.22 184.85 186.06 183.87 185.36 183.37 C 184.65 182.87 183.68 183.03 183.18 183.74 L 182.58 184.57 C 182.08 185.28 182.25 186.25 182.95 186.75 C 183.65 187.25 184.63 187.09 185.13 186.38 Z M 185.73 185.54 L 186.31 184.71 C 186.81 184.00 186.64 183.03 185.94 182.53 C 185.23 182.03 184.26 182.20 183.76 182.91 L 183.17 183.74 C 182.68 184.45 182.85 185.42 183.55 185.92 C 184.26 186.41 185.23 186.25 185.73 185.54 Z M 186.32 184.70 L 186.90 183.87 C 187.39 183.16 187.21 182.19 186.51 181.70 C 185.80 181.21 184.83 181.38 184.33 182.09 L 183.76 182.92 C 183.26 183.62 183.44 184.60 184.15 185.09 C 184.85 185.58 185.83 185.41 186.32 184.70 Z M 186.90 183.86 L 187.46 183.05 C 187.95 182.34 187.77 181.36 187.06 180.88 C 186.35 180.39 185.37 180.57 184.89 181.28 L 184.33 182.10 C 183.84 182.81 184.02 183.78 184.73 184.27 C 185.44 184.76 186.41 184.57 186.90 183.86 Z M 187.47 183.04 L 188.01 182.23 C 188.49 181.52 188.30 180.55 187.59 180.07 C 186.87 179.58 185.90 179.77 185.42 180.49 L 184.88 181.29 C 184.40 182.01 184.59 182.98 185.30 183.46 C 186.02 183.94 186.99 183.75 187.47 183.04 Z M 188.02 182.22 L 188.54 181.44 C 189.01 180.72 188.82 179.75 188.10 179.27 C 187.38 178.80 186.41 178.99 185.93 179.71 L 185.41 180.50 C 184.94 181.22 185.14 182.19 185.85 182.66 C 186.57 183.14 187.54 182.94 188.02 182.22 Z M 188.55 181.42 L 189.12 180.53 C 189.59 179.80 189.38 178.84 188.66 178.37 C 187.94 177.90 186.97 178.11 186.50 178.83 L 185.92 179.73 C 185.46 180.45 185.67 181.42 186.39 181.89 C 187.11 182.35 188.08 182.14 188.55 181.42 Z M 189.14 180.51 L 189.69 179.62 C 190.15 178.89 189.93 177.92 189.20 177.47 C 188.47 177.01 187.51 177.23 187.05 177.96 L 186.49 178.85 C 186.03 179.58 186.25 180.54 186.98 181.00 C 187.71 181.46 188.68 181.24 189.14 180.51 Z M 189.71 179.60 L 190.23 178.73 C 190.68 177.99 190.45 177.03 189.71 176.58 C 188.97 176.14 188.01 176.37 187.57 177.11 L 187.04 177.98 C 186.59 178.71 186.82 179.68 187.56 180.12 C 188.30 180.57 189.26 180.34 189.71 179.60 Z M 190.25 178.71 L 190.75 177.86 C 191.18 177.11 190.93 176.16 190.19 175.72 C 189.45 175.28 188.49 175.53 188.05 176.28 L 187.55 177.13 C 187.12 177.87 187.37 178.83 188.11 179.26 C 188.85 179.70 189.81 179.45 190.25 178.71 Z M 190.76 177.84 L 191.23 177.00 C 191.66 176.25 191.40 175.30 190.65 174.87 C 189.90 174.44 188.94 174.71 188.52 175.46 L 188.04 176.30 C 187.62 177.05 187.88 178.00 188.63 178.42 C 189.38 178.85 190.33 178.59 190.76 177.84 Z M 191.25 176.98 L 191.70 176.15 C 192.12 175.39 191.84 174.44 191.08 174.03 C 190.33 173.61 189.38 173.89 188.96 174.65 L 188.51 175.48 C 188.09 176.23 188.37 177.18 189.13 177.60 C 189.88 178.01 190.83 177.73 191.25 176.98 Z M 191.71 176.13 L 192.16 175.27 C 192.57 174.51 192.27 173.57 191.51 173.16 C 190.75 172.76 189.80 173.05 189.40 173.81 L 188.95 174.67 C 188.55 175.43 188.84 176.37 189.60 176.78 C 190.36 177.18 191.31 176.89 191.71 176.13 Z M 192.17 175.25 L 192.64 174.33 C 193.03 173.56 192.73 172.62 191.96 172.23 C 191.19 171.84 190.25 172.15 189.86 172.92 L 189.39 173.84 C 189.00 174.60 189.31 175.54 190.07 175.94 C 190.84 176.33 191.78 176.02 192.17 175.25 Z M 192.65 174.31 L 193.10 173.40 C 193.48 172.62 193.16 171.69 192.38 171.31 C 191.61 170.93 190.68 171.25 190.30 172.02 L 189.85 172.94 C 189.47 173.71 189.79 174.65 190.56 175.03 C 191.34 175.41 192.27 175.09 192.65 174.31 Z M 193.11 173.38 L 193.54 172.47 C 193.91 171.69 193.57 170.76 192.79 170.39 C 192.01 170.02 191.08 170.35 190.72 171.13 L 190.29 172.04 C 189.92 172.82 190.25 173.75 191.03 174.12 C 191.81 174.49 192.74 174.16 193.11 173.38 Z M 193.55 172.45 L 193.96 171.55 C 194.32 170.76 193.97 169.84 193.19 169.48 C 192.40 169.12 191.47 169.47 191.12 170.25 L 190.71 171.15 C 190.35 171.94 190.70 172.86 191.48 173.22 C 192.26 173.58 193.19 173.23 193.55 172.45 Z M 193.97 171.53 L 194.36 170.64 C 194.71 169.85 194.35 168.93 193.56 168.58 C 192.77 168.23 191.85 168.59 191.50 169.38 L 191.11 170.27 C 190.76 171.06 191.12 171.98 191.91 172.33 C 192.70 172.68 193.62 172.32 193.97 171.53 Z M 194.37 170.62 L 194.76 169.70 C 195.09 168.91 194.72 167.99 193.93 167.65 C 193.14 167.32 192.22 167.69 191.88 168.48 L 191.49 169.40 C 191.16 170.19 191.53 171.11 192.32 171.45 C 193.11 171.78 194.03 171.41 194.37 170.62 Z M 194.76 169.68 L 195.16 168.71 C 195.49 167.91 195.11 167.00 194.31 166.67 C 193.51 166.35 192.60 166.73 192.27 167.53 L 191.87 168.50 C 191.55 169.30 191.93 170.21 192.73 170.54 C 193.53 170.86 194.44 170.48 194.76 169.68 Z M 195.17 168.69 L 195.54 167.73 C 195.86 166.93 195.46 166.02 194.66 165.71 C 193.85 165.40 192.95 165.79 192.64 166.60 L 192.26 167.55 C 191.95 168.35 192.35 169.26 193.15 169.57 C 193.95 169.89 194.86 169.49 195.17 168.69 Z M 195.55 167.71 L 195.90 166.78 C 196.20 165.97 195.79 165.07 194.98 164.77 C 194.17 164.47 193.27 164.88 192.97 165.69 L 192.63 166.62 C 192.33 167.43 192.74 168.33 193.55 168.63 C 194.35 168.93 195.25 168.52 195.55 167.71 Z M 195.91 166.75 L 196.23 165.84 C 196.51 165.03 196.08 164.14 195.27 163.85 C 194.46 163.57 193.56 163.99 193.28 164.81 L 192.96 165.72 C 192.68 166.53 193.10 167.42 193.92 167.71 C 194.73 167.99 195.62 167.56 195.91 166.75 Z M 196.24 165.81 L 196.54 164.90 C 196.80 164.08 196.36 163.20 195.54 162.93 C 194.72 162.66 193.83 163.11 193.57 163.93 L 193.27 164.84 C 193.00 165.66 193.45 166.54 194.27 166.81 C 195.09 167.08 195.97 166.63 196.24 165.81 Z M 196.55 164.87 L 196.86 163.84 C 197.11 163.01 196.64 162.14 195.81 161.89 C 194.98 161.64 194.11 162.11 193.86 162.94 L 193.55 163.96 C 193.31 164.79 193.77 165.66 194.60 165.91 C 195.43 166.16 196.30 165.69 196.55 164.87 Z M 196.87 163.80 L 197.14 162.81 C 197.37 161.98 196.88 161.12 196.05 160.89 C 195.22 160.66 194.36 161.15 194.13 161.98 L 193.85 162.97 C 193.62 163.80 194.11 164.66 194.94 164.89 C 195.78 165.12 196.64 164.63 196.87 163.80 Z M 197.15 162.78 L 197.39 161.83 C 197.60 161.00 197.10 160.15 196.26 159.93 C 195.42 159.72 194.57 160.22 194.36 161.06 L 194.12 162.01 C 193.90 162.85 194.41 163.70 195.25 163.91 C 196.09 164.13 196.94 163.62 197.15 162.78 Z M 197.40 161.81 L 197.61 160.91 C 197.81 160.07 197.29 159.22 196.45 159.02 C 195.61 158.82 194.77 159.34 194.57 160.18 L 194.35 161.09 C 194.15 161.93 194.67 162.77 195.51 162.97 C 196.35 163.17 197.20 162.65 197.40 161.81 Z M 197.62 160.89 L 197.84 159.89 C 198.03 159.05 197.50 158.21 196.65 158.02 C 195.81 157.84 194.97 158.37 194.78 159.21 L 194.56 160.20 C 194.37 161.05 194.90 161.89 195.75 162.07 C 196.59 162.26 197.43 161.73 197.62 160.89 Z M 197.85 159.87 L 198.05 158.88 C 198.22 158.03 197.67 157.21 196.82 157.03 C 195.98 156.86 195.15 157.41 194.98 158.26 L 194.78 159.24 C 194.60 160.09 195.15 160.92 196.00 161.09 C 196.85 161.26 197.67 160.71 197.85 159.87 Z M 198.06 158.84 L 198.23 157.88 C 198.38 157.03 197.81 156.21 196.95 156.06 C 196.10 155.91 195.29 156.48 195.14 157.34 L 194.97 158.30 C 194.82 159.15 195.39 159.96 196.24 160.11 C 197.09 160.26 197.91 159.69 198.06 158.84 Z M 198.23 157.83 L 198.38 156.78 C 198.50 155.92 197.91 155.13 197.05 155.01 C 196.19 154.88 195.40 155.48 195.28 156.34 L 195.13 157.39 C 195.01 158.25 195.60 159.04 196.46 159.16 C 197.32 159.28 198.11 158.69 198.23 157.83 Z M 198.39 156.69 L 198.51 155.40 C 198.58 154.53 197.94 153.77 197.08 153.70 C 196.21 153.62 195.45 154.26 195.38 155.13 L 195.27 156.42 C 195.19 157.29 195.83 158.05 196.69 158.12 C 197.56 158.20 198.32 157.56 198.39 156.69 Z M 198.50 155.07 L 198.42 154.39 C 198.31 153.53 197.52 152.91 196.66 153.02 C 195.80 153.13 195.19 153.92 195.30 154.78 L 195.38 155.46 C 195.49 156.32 196.28 156.93 197.14 156.82 C 198.00 156.71 198.61 155.93 198.50 155.07 Z M 195.78 153.44 L 195.50 153.70 C 194.87 154.29 194.84 155.29 195.44 155.92 C 196.03 156.55 197.03 156.58 197.66 155.98 L 197.93 155.72 C 198.57 155.13 198.59 154.13 198.00 153.50 C 197.40 152.87 196.41 152.84 195.78 153.44 Z M 195.16 154.18 L 194.79 154.98 C 194.42 155.76 194.77 156.70 195.55 157.06 C 196.34 157.43 197.27 157.08 197.64 156.30 L 198.01 155.50 C 198.37 154.71 198.03 153.78 197.24 153.42 C 196.46 153.05 195.52 153.39 195.16 154.18 Z M 194.74 155.09 L 194.32 156.22 C 194.02 157.03 194.44 157.94 195.25 158.24 C 196.06 158.54 196.96 158.12 197.26 157.31 L 197.68 156.18 C 197.98 155.37 197.57 154.47 196.76 154.17 C 195.94 153.87 195.04 154.28 194.74 155.09 Z M 194.30 156.30 L 193.92 157.52 C 193.66 158.34 194.11 159.22 194.94 159.48 C 195.77 159.74 196.64 159.28 196.90 158.46 L 197.29 157.24 C 197.55 156.41 197.09 155.53 196.26 155.27 C 195.44 155.01 194.56 155.47 194.30 156.30 Z M 193.90 157.58 L 193.64 158.55 C 193.42 159.39 193.91 160.25 194.75 160.47 C 195.58 160.69 196.44 160.20 196.66 159.36 L 196.92 158.39 C 197.15 157.56 196.65 156.70 195.81 156.48 C 194.98 156.25 194.12 156.75 193.90 157.58 Z M 193.63 158.61 L 193.41 159.57 C 193.21 160.41 193.74 161.25 194.58 161.44 C 195.42 161.64 196.26 161.11 196.46 160.27 L 196.68 159.31 C 196.87 158.46 196.34 157.63 195.50 157.43 C 194.66 157.24 193.82 157.77 193.63 158.61 Z M 193.40 159.62 L 193.21 160.59 C 193.04 161.44 193.59 162.26 194.44 162.42 C 195.29 162.59 196.11 162.04 196.27 161.19 L 196.46 160.22 C 196.63 159.37 196.08 158.55 195.23 158.39 C 194.38 158.22 193.56 158.77 193.40 159.62 Z M 193.20 160.63 L 193.03 161.62 C 192.89 162.47 193.46 163.27 194.31 163.42 C 195.16 163.57 195.97 162.99 196.11 162.14 L 196.28 161.15 C 196.43 160.30 195.85 159.49 195.00 159.35 C 194.15 159.20 193.35 159.77 193.20 160.63 Z M 193.03 161.64 L 192.88 162.60 C 192.75 163.45 193.33 164.25 194.18 164.38 C 195.04 164.51 195.83 163.93 195.97 163.08 L 196.11 162.12 C 196.25 161.27 195.66 160.47 194.81 160.34 C 193.96 160.20 193.16 160.79 193.03 161.64 Z M 192.88 162.62 L 192.74 163.56 C 192.62 164.41 193.21 165.20 194.07 165.32 C 194.92 165.45 195.71 164.85 195.83 164.00 L 195.97 163.06 C 196.09 162.21 195.50 161.42 194.64 161.29 C 193.79 161.17 193.00 161.76 192.88 162.62 Z M 192.74 163.57 L 192.61 164.54 C 192.50 165.40 193.10 166.18 193.95 166.30 C 194.81 166.41 195.59 165.81 195.71 164.96 L 195.84 163.98 C 195.95 163.13 195.35 162.34 194.49 162.23 C 193.64 162.12 192.85 162.72 192.74 163.57 Z M 192.61 164.56 L 192.48 165.56 C 192.38 166.42 192.98 167.20 193.84 167.31 C 194.70 167.41 195.48 166.80 195.58 165.95 L 195.71 164.94 C 195.81 164.09 195.21 163.31 194.35 163.20 C 193.49 163.09 192.72 163.70 192.61 164.56 Z M 192.48 165.58 L 192.36 166.62 C 192.26 167.48 192.88 168.25 193.73 168.35 C 194.59 168.45 195.36 167.83 195.46 166.98 L 195.58 165.94 C 195.68 165.08 195.07 164.30 194.21 164.21 C 193.36 164.11 192.58 164.72 192.48 165.58 Z M 192.36 166.63 L 192.25 167.66 C 192.16 168.51 192.78 169.28 193.64 169.38 C 194.49 169.47 195.26 168.85 195.35 167.99 L 195.47 166.96 C 195.56 166.11 194.94 165.34 194.08 165.25 C 193.22 165.15 192.45 165.77 192.36 166.63 Z M 192.25 167.67 L 192.15 168.62 C 192.07 169.48 192.69 170.24 193.55 170.33 C 194.41 170.42 195.17 169.79 195.26 168.93 L 195.36 167.98 C 195.44 167.12 194.82 166.36 193.96 166.27 C 193.10 166.18 192.34 166.81 192.25 167.67 Z M 192.15 168.63 L 192.06 169.61 C 191.98 170.46 192.61 171.23 193.46 171.31 C 194.32 171.39 195.09 170.76 195.17 169.90 L 195.26 168.93 C 195.34 168.07 194.71 167.31 193.85 167.22 C 193.00 167.14 192.23 167.77 192.15 168.63 Z M 192.06 169.61 L 191.97 170.61 C 191.89 171.47 192.52 172.23 193.38 172.30 C 194.24 172.38 195.00 171.75 195.08 170.89 L 195.17 169.90 C 195.25 169.04 194.61 168.28 193.76 168.20 C 192.90 168.12 192.14 168.75 192.06 169.61 Z M 191.97 170.61 L 191.88 171.63 C 191.80 172.48 192.44 173.24 193.30 173.32 C 194.15 173.39 194.91 172.76 194.99 171.90 L 195.08 170.89 C 195.15 170.03 194.52 169.27 193.66 169.19 C 192.80 169.12 192.04 169.75 191.97 170.61 Z M 191.88 171.63 L 191.79 172.66 C 191.72 173.52 192.35 174.27 193.21 174.35 C 194.07 174.42 194.83 173.78 194.90 172.92 L 194.99 171.90 C 195.06 171.04 194.43 170.28 193.57 170.21 C 192.71 170.13 191.95 170.77 191.88 171.63 Z M 191.79 172.66 L 191.70 173.68 C 191.63 174.54 192.27 175.29 193.13 175.37 C 193.99 175.44 194.74 174.80 194.81 173.94 L 194.90 172.92 C 194.97 172.06 194.34 171.31 193.48 171.24 C 192.62 171.16 191.86 171.80 191.79 172.66 Z M 191.70 173.68 L 191.62 174.66 C 191.55 175.52 192.19 176.28 193.05 176.35 C 193.91 176.42 194.66 175.78 194.73 174.92 L 194.81 173.94 C 194.89 173.08 194.25 172.33 193.39 172.26 C 192.53 172.18 191.77 172.82 191.70 173.68 Z M 191.62 174.66 L 191.54 175.65 C 191.47 176.51 192.11 177.27 192.97 177.34 C 193.83 177.41 194.58 176.77 194.65 175.91 L 194.73 174.92 C 194.80 174.06 194.16 173.31 193.30 173.24 C 192.45 173.17 191.69 173.80 191.62 174.66 Z M 191.54 175.66 L 191.46 176.65 C 191.39 177.51 192.03 178.26 192.89 178.33 C 193.75 178.40 194.50 177.76 194.57 176.90 L 194.65 175.91 C 194.72 175.05 194.08 174.29 193.22 174.22 C 192.36 174.15 191.61 174.80 191.54 175.66 Z M 191.46 176.65 L 191.38 177.66 C 191.31 178.52 191.96 179.27 192.82 179.33 C 193.68 179.40 194.43 178.76 194.49 177.90 L 194.57 176.90 C 194.64 176.04 194.00 175.29 193.14 175.22 C 192.28 175.15 191.53 175.79 191.46 176.65 Z M 191.38 177.66 L 191.30 178.67 C 191.24 179.53 191.88 180.28 192.74 180.34 C 193.60 180.41 194.35 179.76 194.42 178.90 L 194.49 177.90 C 194.56 177.04 193.92 176.29 193.06 176.22 C 192.20 176.16 191.45 176.80 191.38 177.66 Z M 191.30 178.67 L 191.23 179.68 C 191.17 180.54 191.81 181.29 192.67 181.35 C 193.53 181.42 194.28 180.77 194.34 179.91 L 194.42 178.90 C 194.48 178.04 193.83 177.29 192.97 177.23 C 192.11 177.17 191.37 177.81 191.30 178.67 Z M 191.23 179.69 L 191.16 180.68 C 191.10 181.54 191.75 182.29 192.61 182.35 C 193.47 182.41 194.22 181.76 194.28 180.90 L 194.34 179.90 C 194.40 179.04 193.76 178.30 192.90 178.24 C 192.04 178.18 191.29 178.83 191.23 179.69 Z M 191.16 180.69 L 191.09 181.69 C 191.04 182.55 191.69 183.29 192.55 183.35 C 193.41 183.40 194.15 182.75 194.21 181.89 L 194.28 180.90 C 194.33 180.04 193.68 179.29 192.82 179.24 C 191.96 179.18 191.22 179.83 191.16 180.69 Z M 191.09 181.69 L 191.03 182.69 C 190.98 183.55 191.63 184.29 192.49 184.34 C 193.35 184.40 194.10 183.74 194.15 182.88 L 194.21 181.88 C 194.26 181.02 193.61 180.28 192.75 180.23 C 191.89 180.18 191.15 180.83 191.09 181.69 Z M 191.03 182.70 L 190.97 183.70 C 190.92 184.56 191.58 185.29 192.44 185.34 C 193.30 185.39 194.04 184.74 194.09 183.87 L 194.15 182.88 C 194.20 182.01 193.54 181.28 192.68 181.23 C 191.82 181.18 191.08 181.84 191.03 182.70 Z M 190.97 183.70 L 190.92 184.70 C 190.88 185.56 191.54 186.30 192.40 186.34 C 193.26 186.39 193.99 185.73 194.04 184.87 L 194.09 183.87 C 194.14 183.01 193.48 182.27 192.62 182.23 C 191.75 182.18 191.02 182.84 190.97 183.70 Z M 190.92 184.71 L 190.87 185.71 C 190.83 186.57 191.50 187.31 192.36 187.35 C 193.22 187.39 193.95 186.72 193.99 185.86 L 194.04 184.86 C 194.08 184.00 193.42 183.27 192.55 183.23 C 191.69 183.19 190.96 183.85 190.92 184.71 Z M 190.87 185.72 L 190.83 186.72 C 190.79 187.58 191.46 188.31 192.33 188.34 C 193.19 188.38 193.91 187.71 193.95 186.85 L 193.99 185.85 C 194.03 184.99 193.36 184.26 192.50 184.23 C 191.64 184.19 190.91 184.86 190.87 185.72 Z M 190.83 186.73 L 190.80 187.70 C 190.76 188.56 191.44 189.28 192.30 189.31 C 193.16 189.35 193.88 188.67 193.92 187.81 L 193.95 186.84 C 193.98 185.98 193.31 185.25 192.45 185.22 C 191.59 185.19 190.86 185.86 190.83 186.73 Z M 190.80 187.71 L 190.77 188.68 C 190.74 189.54 191.42 190.26 192.28 190.29 C 193.14 190.32 193.86 189.64 193.89 188.78 L 193.92 187.80 C 193.94 186.94 193.27 186.22 192.40 186.19 C 191.54 186.17 190.82 186.84 190.80 187.71 Z M 190.77 188.69 L 190.74 189.67 C 190.72 190.54 191.40 191.25 192.26 191.28 C 193.12 191.30 193.84 190.62 193.86 189.75 L 193.89 188.77 C 193.91 187.91 193.23 187.19 192.37 187.17 C 191.50 187.15 190.79 187.83 190.77 188.69 Z M 190.74 189.68 L 190.72 190.68 C 190.70 191.54 191.39 192.25 192.25 192.27 C 193.11 192.29 193.82 191.61 193.84 190.74 L 193.86 189.75 C 193.88 188.88 193.20 188.17 192.33 188.15 C 191.47 188.14 190.76 188.82 190.74 189.68 Z M 190.72 190.68 L 190.70 191.70 C 190.69 192.56 191.38 193.27 192.24 193.28 C 193.10 193.30 193.81 192.61 193.82 191.75 L 193.84 190.74 C 193.86 189.87 193.17 189.16 192.31 189.15 C 191.44 189.14 190.73 189.82 190.72 190.68 Z M 190.70 191.70 L 190.69 192.73 C 190.68 193.60 191.37 194.30 192.23 194.31 C 193.09 194.33 193.80 193.64 193.81 192.77 L 193.82 191.74 C 193.84 190.88 193.15 190.17 192.28 190.16 C 191.42 190.15 190.71 190.84 190.70 191.70 Z M 190.69 192.74 L 190.68 193.76 C 190.67 194.62 191.36 195.33 192.23 195.34 C 193.09 195.35 193.79 194.65 193.80 193.79 L 193.81 192.77 C 193.82 191.91 193.13 191.20 192.27 191.19 C 191.40 191.18 190.70 191.88 190.69 192.74 Z M 190.68 193.77 L 190.67 194.75 C 190.67 195.61 191.36 196.32 192.22 196.32 C 193.08 196.33 193.79 195.64 193.79 194.77 L 193.80 193.79 C 193.81 192.93 193.11 192.22 192.25 192.22 C 191.39 192.21 190.69 192.90 190.68 193.77 Z M 190.67 194.76 L 190.67 195.76 C 190.66 196.62 191.36 197.32 192.22 197.32 C 193.08 197.33 193.78 196.63 193.79 195.77 L 193.79 194.77 C 193.80 193.91 193.10 193.21 192.24 193.20 C 191.38 193.20 190.68 193.89 190.67 194.76 Z M 190.67 195.76 L 190.66 196.77 C 190.66 197.63 191.36 198.33 192.22 198.33 C 193.08 198.34 193.78 197.64 193.79 196.78 L 193.79 195.77 C 193.79 194.91 193.10 194.21 192.23 194.20 C 191.37 194.20 190.67 194.90 190.67 195.76 Z M 190.66 196.77 L 190.66 197.78 C 190.66 198.64 191.36 199.34 192.22 199.35 C 193.08 199.35 193.78 198.65 193.78 197.79 L 193.79 196.78 C 193.79 195.91 193.09 195.21 192.23 195.21 C 191.37 195.21 190.67 195.91 190.66 196.77 Z M 190.66 197.78 L 190.66 198.79 C 190.66 199.66 191.36 200.36 192.22 200.36 C 193.08 200.36 193.78 199.66 193.78 198.80 L 193.78 197.79 C 193.78 196.92 193.09 196.23 192.22 196.22 C 191.36 196.22 190.66 196.92 190.66 197.78 Z M 190.66 198.80 L 190.66 199.80 C 190.66 200.66 191.36 201.36 192.22 201.36 C 193.08 201.36 193.78 200.66 193.78 199.80 L 193.78 198.80 C 193.78 197.93 193.08 197.23 192.22 197.23 C 191.36 197.23 190.66 197.93 190.66 198.80 Z M 190.66 199.80 L 190.66 200.79 C 190.66 201.65 191.36 202.35 192.22 202.35 C 193.08 202.35 193.78 201.65 193.78 200.79 L 193.78 199.80 C 193.78 198.94 193.08 198.24 192.22 198.24 C 191.36 198.24 190.66 198.94 190.66 199.80 Z M 190.66 200.79 L 190.66 201.82 C 190.66 202.69 191.36 203.38 192.22 203.38 C 193.08 203.38 193.78 202.69 193.78 201.82 L 193.78 200.79 C 193.78 199.93 193.08 199.23 192.22 199.23 C 191.36 199.23 190.66 199.93 190.66 200.79 Z M 190.66 201.82 L 190.66 202.85 C 190.66 203.71 191.36 204.41 192.22 204.41 C 193.08 204.41 193.78 203.71 193.78 202.85 L 193.78 201.82 C 193.78 200.96 193.08 200.26 192.22 200.26 C 191.36 200.26 190.66 200.96 190.66 201.82 Z M 190.66 202.85 L 190.66 203.86 C 190.66 204.72 191.36 205.42 192.22 205.42 C 193.09 205.41 193.78 204.71 193.78 203.85 L 193.78 202.84 C 193.78 201.98 193.08 201.28 192.22 201.29 C 191.36 201.29 190.66 201.99 190.66 202.85 Z M 190.66 203.86 L 190.66 204.85 C 190.67 205.71 191.37 206.41 192.23 206.41 C 193.09 206.41 193.79 205.71 193.79 204.84 L 193.78 203.85 C 193.78 202.99 193.08 202.29 192.22 202.29 C 191.36 202.29 190.66 203.00 190.66 203.86 Z M 190.66 204.85 L 190.67 205.84 C 190.67 206.70 191.37 207.40 192.23 207.39 C 193.10 207.39 193.79 206.69 193.79 205.83 L 193.79 204.84 C 193.78 203.98 193.08 203.28 192.22 203.29 C 191.36 203.29 190.66 203.99 190.66 204.85 Z M 190.67 205.84 L 190.67 206.82 C 190.68 207.68 191.38 208.38 192.24 208.37 C 193.11 208.37 193.80 207.66 193.80 206.80 L 193.79 205.82 C 193.78 204.96 193.08 204.27 192.22 204.27 C 191.36 204.28 190.66 204.98 190.67 205.84 Z M 190.67 206.82 L 190.68 207.80 C 190.69 208.66 191.39 209.36 192.26 209.35 C 193.12 209.34 193.81 208.64 193.80 207.77 L 193.80 206.80 C 193.79 205.94 193.08 205.24 192.22 205.25 C 191.36 205.26 190.67 205.96 190.67 206.82 Z M 190.68 207.80 L 190.69 208.82 C 190.70 209.68 191.41 210.37 192.27 210.36 C 193.13 210.35 193.83 209.64 193.82 208.78 L 193.80 207.77 C 193.79 206.91 193.09 206.22 192.22 206.23 C 191.36 206.24 190.67 206.94 190.68 207.80 Z M 190.69 208.82 L 190.71 209.83 C 190.73 210.70 191.44 211.38 192.30 211.37 C 193.16 211.35 193.85 210.64 193.83 209.78 L 193.82 208.77 C 193.80 207.91 193.09 207.22 192.23 207.24 C 191.37 207.25 190.68 207.96 190.69 208.82 Z M 190.71 209.85 L 190.74 210.85 C 190.76 211.72 191.47 212.40 192.34 212.37 C 193.20 212.35 193.88 211.64 193.86 210.77 L 193.83 209.77 C 193.81 208.91 193.09 208.22 192.23 208.25 C 191.37 208.27 190.69 208.98 190.71 209.85 Z M 190.74 210.87 L 190.77 211.87 C 190.80 212.73 191.53 213.41 192.39 213.38 C 193.25 213.34 193.92 212.62 193.89 211.76 L 193.86 210.76 C 193.83 209.90 193.10 209.22 192.24 209.25 C 191.38 209.28 190.71 210.01 190.74 210.87 Z M 190.77 211.89 L 190.82 212.89 C 190.87 213.75 191.60 214.41 192.46 214.37 C 193.32 214.33 193.99 213.59 193.94 212.73 L 193.89 211.74 C 193.85 210.88 193.12 210.21 192.26 210.26 C 191.39 210.30 190.73 211.03 190.77 211.89 Z M 190.83 212.91 L 190.89 213.90 C 190.95 214.76 191.69 215.41 192.55 215.35 C 193.41 215.30 194.06 214.55 194.01 213.69 L 193.94 212.71 C 193.88 211.85 193.14 211.19 192.28 211.25 C 191.42 211.31 190.77 212.05 190.83 212.91 Z M 190.89 213.93 L 190.98 214.92 C 191.05 215.78 191.81 216.42 192.67 216.34 C 193.53 216.27 194.17 215.51 194.09 214.65 L 194.00 213.66 C 193.93 212.80 193.17 212.16 192.31 212.24 C 191.45 212.31 190.82 213.07 190.89 213.93 Z M 190.98 214.96 L 191.10 215.99 C 191.19 216.85 191.96 217.46 192.82 217.37 C 193.68 217.28 194.30 216.50 194.20 215.65 L 194.09 214.62 C 193.99 213.76 193.22 213.14 192.36 213.24 C 191.51 213.33 190.89 214.10 190.98 214.96 Z M 191.10 216.02 L 191.23 217.04 C 191.35 217.89 192.13 218.49 192.99 218.38 C 193.85 218.27 194.45 217.48 194.33 216.62 L 194.20 215.61 C 194.08 214.75 193.30 214.15 192.44 214.27 C 191.59 214.38 190.98 215.17 191.10 216.02 Z M 191.24 217.07 L 191.39 218.07 C 191.53 218.92 192.33 219.50 193.18 219.37 C 194.03 219.24 194.62 218.44 194.49 217.58 L 194.33 216.59 C 194.20 215.74 193.40 215.15 192.54 215.28 C 191.69 215.42 191.10 216.22 191.24 217.07 Z M 191.40 218.10 L 191.57 219.08 C 191.72 219.93 192.53 220.50 193.39 220.34 C 194.24 220.19 194.81 219.38 194.65 218.53 L 194.48 217.55 C 194.33 216.70 193.52 216.13 192.66 216.28 C 191.81 216.43 191.24 217.25 191.40 218.10 Z M 191.57 219.11 L 191.76 220.06 C 191.93 220.91 192.76 221.47 193.61 221.30 C 194.46 221.13 195.01 220.30 194.84 219.45 L 194.65 218.50 C 194.48 217.65 193.66 217.10 192.81 217.26 C 191.96 217.43 191.41 218.26 191.57 219.11 Z M 191.77 220.10 L 191.98 221.03 C 192.16 221.88 193.00 222.41 193.85 222.23 C 194.69 222.04 195.23 221.20 195.04 220.36 L 194.83 219.42 C 194.65 218.57 193.81 218.04 192.97 218.23 C 192.12 218.41 191.58 219.25 191.77 220.10 Z M 191.98 221.06 L 192.23 222.10 C 192.43 222.94 193.28 223.46 194.13 223.25 C 194.97 223.05 195.49 222.20 195.28 221.36 L 195.03 220.33 C 194.83 219.48 193.98 218.96 193.14 219.17 C 192.30 219.37 191.78 220.22 191.98 221.06 Z M 192.24 222.13 L 192.50 223.13 C 192.73 223.97 193.59 224.47 194.43 224.25 C 195.27 224.02 195.77 223.16 195.54 222.32 L 195.28 221.32 C 195.05 220.48 194.19 219.98 193.35 220.21 C 192.51 220.43 192.01 221.29 192.24 222.13 Z M 192.51 223.16 L 192.79 224.13 C 193.03 224.97 193.90 225.45 194.74 225.21 C 195.57 224.96 196.06 224.09 195.82 223.26 L 195.54 222.29 C 195.29 221.45 194.42 220.97 193.59 221.21 C 192.75 221.46 192.27 222.33 192.51 223.16 Z M 192.80 224.16 L 193.09 225.10 C 193.35 225.93 194.23 226.39 195.07 226.13 C 195.90 225.87 196.36 224.99 196.10 224.16 L 195.81 223.22 C 195.55 222.39 194.66 221.93 193.83 222.19 C 193.00 222.45 192.54 223.33 192.80 224.16 Z M 193.10 225.13 L 193.40 226.03 C 193.68 226.86 194.58 227.30 195.40 227.02 C 196.23 226.75 196.67 225.85 196.39 225.03 L 196.09 224.13 C 195.81 223.30 194.92 222.86 194.09 223.13 C 193.27 223.41 192.82 224.31 193.10 225.13 Z M 193.41 226.07 L 193.75 227.00 C 194.05 227.82 194.95 228.24 195.77 227.95 C 196.59 227.65 197.02 226.74 196.72 225.92 L 196.38 224.99 C 196.09 224.17 195.18 223.75 194.36 224.04 C 193.54 224.34 193.12 225.25 193.41 226.07 Z M 193.76 227.04 L 194.14 228.00 C 194.46 228.81 195.38 229.21 196.19 228.89 C 197.00 228.57 197.41 227.65 197.09 226.84 L 196.71 225.88 C 196.39 225.07 195.47 224.67 194.66 224.99 C 193.84 225.31 193.44 226.23 193.76 227.04 Z M 194.15 228.05 L 194.55 228.96 C 194.90 229.77 195.83 230.14 196.64 229.79 C 197.44 229.44 197.81 228.51 197.47 227.70 L 197.07 226.79 C 196.72 225.98 195.79 225.61 194.98 225.96 C 194.18 226.31 193.81 227.24 194.15 228.05 Z M 194.57 229.02 L 194.99 229.91 C 195.37 230.70 196.32 231.03 197.12 230.66 C 197.91 230.28 198.25 229.33 197.87 228.53 L 197.44 227.65 C 197.07 226.85 196.12 226.52 195.32 226.90 C 194.53 227.28 194.19 228.23 194.57 229.02 Z M 195.02 229.97 L 195.48 230.83 C 195.89 231.61 196.85 231.90 197.63 231.49 C 198.41 231.08 198.71 230.11 198.30 229.33 L 197.84 228.47 C 197.43 227.69 196.46 227.40 195.68 227.81 C 194.90 228.22 194.61 229.19 195.02 229.97 Z M 195.51 230.89 L 196.03 231.78 C 196.48 232.54 197.46 232.79 198.22 232.34 C 198.98 231.90 199.23 230.92 198.79 230.15 L 198.26 229.27 C 197.82 228.51 196.83 228.25 196.07 228.70 C 195.31 229.15 195.06 230.13 195.51 230.89 Z M 196.07 231.85 L 196.65 232.72 C 197.13 233.46 198.13 233.66 198.87 233.17 C 199.61 232.68 199.81 231.69 199.32 230.95 L 198.74 230.08 C 198.26 229.34 197.26 229.14 196.52 229.63 C 195.78 230.12 195.58 231.11 196.07 231.85 Z M 196.70 232.80 L 197.31 233.61 C 197.85 234.32 198.85 234.46 199.56 233.92 C 200.27 233.39 200.41 232.38 199.87 231.67 L 199.26 230.87 C 198.73 230.16 197.72 230.02 197.01 230.55 C 196.31 231.09 196.17 232.09 196.70 232.80 Z M 197.39 233.70 L 198.03 234.43 C 198.62 235.10 199.63 235.16 200.30 234.57 C 200.96 233.98 201.03 232.97 200.44 232.30 L 199.80 231.58 C 199.21 230.91 198.19 230.85 197.53 231.44 C 196.86 232.02 196.80 233.04 197.39 233.70 Z M 198.14 234.55 L 198.84 235.20 C 199.49 235.80 200.51 235.77 201.12 235.11 C 201.72 234.46 201.68 233.44 201.03 232.84 L 200.33 232.19 C 199.68 231.58 198.66 231.62 198.05 232.27 C 197.45 232.92 197.49 233.94 198.14 234.55 Z M 199.00 235.33 L 199.83 235.92 C 200.56 236.44 201.56 236.26 202.08 235.54 C 202.59 234.81 202.42 233.80 201.70 233.29 L 200.87 232.70 C 200.14 232.19 199.14 232.36 198.62 233.09 C 198.10 233.81 198.28 234.82 199.00 235.33 Z M 200.03 236.05 L 200.90 236.49 C 201.70 236.89 202.67 236.58 203.08 235.78 C 203.48 234.99 203.16 234.01 202.37 233.61 L 201.50 233.16 C 200.70 232.76 199.73 233.08 199.32 233.87 C 198.92 234.67 199.23 235.64 200.03 236.05 Z M 201.10 236.58 L 202.03 236.90 C 202.88 237.20 203.80 236.75 204.09 235.91 C 204.39 235.06 203.94 234.14 203.10 233.84 L 202.17 233.52 C 201.32 233.22 200.40 233.67 200.11 234.52 C 199.81 235.36 200.26 236.28 201.10 236.58 Z M 202.20 236.95 L 203.15 237.17 C 204.02 237.37 204.89 236.83 205.09 235.96 C 205.29 235.08 204.75 234.21 203.88 234.01 L 202.93 233.79 C 202.06 233.59 201.19 234.14 200.98 235.01 C 200.78 235.88 201.33 236.75 202.20 236.95 Z M 203.27 237.19 L 204.23 237.34 C 205.12 237.47 205.94 236.87 206.08 235.98 C 206.21 235.10 205.60 234.27 204.72 234.14 L 203.76 233.99 C 202.87 233.86 202.04 234.46 201.91 235.35 C 201.78 236.23 202.38 237.06 203.27 237.19 Z M 204.31 237.35 L 205.31 237.45 C 206.20 237.54 207.00 236.89 207.09 236.00 C 207.18 235.12 206.53 234.32 205.64 234.23 L 204.64 234.13 C 203.75 234.04 202.96 234.69 202.87 235.57 C 202.78 236.46 203.42 237.26 204.31 237.35 Z M 205.36 237.45 L 206.39 237.53 C 207.28 237.59 208.05 236.92 208.11 236.03 C 208.18 235.14 207.51 234.37 206.62 234.30 L 205.60 234.23 C 204.71 234.16 203.93 234.83 203.87 235.72 C 203.80 236.61 204.47 237.39 205.36 237.45 Z M 206.40 237.52 L 206.97 237.56 C 207.86 237.62 208.63 236.94 208.68 236.05 C 208.74 235.16 208.07 234.40 207.18 234.34 L 206.61 234.31 C 205.72 234.25 204.95 234.92 204.89 235.81 C 204.84 236.70 205.51 237.47 206.40 237.52 Z"
      fill="black"
      fill-rule="nonzero" /></svg>