<svg xmlns="http://www.w3.org/2000/svg" width="300" height="300" viewBox="0 0 300 300">
<path d="M 155.35 60.35 L 154.53 59.40 C 153.97 58.74 152.98 58.67 152.33 59.23 C 151.67 59.79 151.59 60.77 152.16 61.43 L 152.97 62.38 C 153.53 63.04 154.52 63.11 155.17 62.55 C 155.83 61.99 155.91 61.01 155.35 60.35 Z M 154.46 59.32 L 153.69 58.54 C 153.09 57.93 152.10 57.92 151.49 58.52 C 150.87 59.12 150.86 60.11 151.46 60.73 L 152.23 61.50 C 152.83 62.12 153.82 62.13 154.43 61.53 C 155.05 60.92 155.06 59.94 154.46 59.32 Z M 153.43 58.33 L 152.78 57.90 C 152.06 57.43 151.09 57.64 150.62 58.36 C 150.15 59.08 150.35 60.05 151.08 60.52 L 151.73 60.94 C 152.45 61.41 153.42 61.21 153.89 60.49 C 154.36 59.76 154.15 58.80 153.43 58.33 Z M 151.58 57.69 L 151.07 57.80 C 150.23 57.99 149.71 58.83 149.90 59.67 C 150.09 60.51 150.92 61.04 151.76 60.85 L 152.27 60.73 C 153.11 60.54 153.64 59.71 153.45 58.86 C 153.26 58.02 152.42 57.50 151.58 57.69 Z M 150.02 58.64 L 149.67 59.36 C 149.29 60.13 149.61 61.07 150.39 61.44 C 151.16 61.82 152.10 61.50 152.48 60.72 L 152.82 60.01 C 153.20 59.23 152.88 58.30 152.10 57.92 C 151.33 57.54 150.39 57.87 150.02 58.64 Z M 149.54 59.74 L 149.31 60.92 C 149.15 61.77 149.70 62.59 150.54 62.75 C 151.39 62.92 152.21 62.37 152.37 61.52 L 152.60 60.34 C 152.77 59.49 152.22 58.67 151.37 58.51 C 150.52 58.34 149.70 58.90 149.54 59.74 Z M 149.29 61.04 L 149.15 62.21 C 149.05 63.07 149.67 63.84 150.52 63.94 C 151.38 64.04 152.15 63.43 152.26 62.58 L 152.39 61.40 C 152.49 60.55 151.88 59.77 151.02 59.67 C 150.17 59.57 149.39 60.18 149.29 61.04 Z M 149.15 62.25 L 149.06 63.22 C 148.98 64.08 149.61 64.84 150.47 64.92 C 151.33 65.00 152.09 64.37 152.17 63.51 L 152.26 62.54 C 152.34 61.68 151.71 60.92 150.85 60.84 C 149.99 60.76 149.23 61.39 149.15 62.25 Z M 149.06 63.24 L 148.98 64.26 C 148.91 65.12 149.55 65.87 150.41 65.94 C 151.27 66.01 152.02 65.37 152.09 64.51 L 152.17 63.49 C 152.24 62.63 151.60 61.88 150.74 61.81 C 149.88 61.74 149.13 62.38 149.06 63.24 Z M 148.97 64.27 L 148.90 65.31 C 148.84 66.17 149.49 66.91 150.35 66.97 C 151.21 67.03 151.96 66.38 152.02 65.52 L 152.09 64.49 C 152.15 63.63 151.50 62.89 150.64 62.83 C 149.78 62.77 149.03 63.41 148.97 64.27 Z M 148.90 65.32 L 148.84 66.34 C 148.79 67.20 149.44 67.94 150.30 67.99 C 151.16 68.05 151.90 67.39 151.96 66.53 L 152.02 65.51 C 152.07 64.65 151.42 63.91 150.56 63.86 C 149.69 63.81 148.95 64.46 148.90 65.32 Z M 148.84 66.35 L 148.78 67.36 C 148.74 68.22 149.40 68.96 150.26 69.00 C 151.12 69.05 151.86 68.39 151.90 67.53 L 151.96 66.52 C 152.00 65.66 151.34 64.92 150.48 64.88 C 149.62 64.83 148.89 65.49 148.84 66.35 Z M 148.78 67.37 L 148.73 68.41 C 148.69 69.27 149.36 70.01 150.22 70.05 C 151.08 70.09 151.81 69.42 151.85 68.56 L 151.90 67.52 C 151.94 66.66 151.28 65.92 150.42 65.88 C 149.56 65.84 148.82 66.51 148.78 67.37 Z M 148.73 68.42 L 148.69 69.41 C 148.66 70.28 149.33 71.00 150.19 71.04 C 151.05 71.07 151.78 70.40 151.81 69.54 L 151.85 68.55 C 151.89 67.69 151.22 66.96 150.36 66.93 C 149.50 66.89 148.77 67.56 148.73 68.42 Z M 148.69 69.42 L 148.66 70.39 C 148.63 71.25 149.30 71.98 150.17 72.01 C 151.03 72.04 151.75 71.36 151.78 70.50 L 151.81 69.53 C 151.84 68.67 151.17 67.95 150.31 67.92 C 149.45 67.89 148.72 68.56 148.69 69.42 Z M 148.66 70.40 L 148.63 71.37 C 148.60 72.23 149.28 72.95 150.14 72.98 C 151.00 73.01 151.72 72.33 151.75 71.47 L 151.78 70.49 C 151.81 69.63 151.13 68.91 150.27 68.88 C 149.41 68.86 148.69 69.53 148.66 70.40 Z M 148.63 71.37 L 148.60 72.32 C 148.58 73.18 149.25 73.90 150.12 73.92 C 150.98 73.95 151.70 73.27 151.73 72.41 L 151.75 71.46 C 151.78 70.60 151.10 69.88 150.24 69.86 C 149.37 69.83 148.65 70.51 148.63 71.37 Z M 148.60 72.32 L 148.57 73.27 C 148.55 74.13 149.23 74.85 150.09 74.88 C 150.96 74.90 151.68 74.22 151.70 73.36 L 151.73 72.41 C 151.75 71.54 151.07 70.82 150.21 70.80 C 149.34 70.77 148.62 71.45 148.60 72.32 Z M 148.57 73.27 L 148.54 74.25 C 148.51 75.12 149.19 75.84 150.06 75.87 C 150.93 75.89 151.65 75.21 151.68 74.35 L 151.71 73.36 C 151.73 72.49 151.05 71.77 150.18 71.74 C 149.31 71.72 148.59 72.40 148.57 73.27 Z M 148.53 74.25 L 148.50 75.27 C 148.47 76.14 149.16 76.87 150.03 76.90 C 150.90 76.92 151.62 76.24 151.65 75.37 L 151.68 74.35 C 151.71 73.48 151.02 72.75 150.16 72.73 C 149.29 72.70 148.56 73.38 148.53 74.25 Z M 148.50 75.27 L 148.46 76.33 C 148.43 77.20 149.12 77.93 149.99 77.96 C 150.86 77.99 151.59 77.31 151.62 76.44 L 151.65 75.38 C 151.68 74.50 151.00 73.77 150.13 73.75 C 149.26 73.72 148.53 74.40 148.50 75.27 Z M 148.46 76.33 L 148.42 77.31 C 148.39 78.18 149.07 78.92 149.95 78.95 C 150.82 78.98 151.55 78.30 151.58 77.42 L 151.62 76.44 C 151.65 75.57 150.97 74.83 150.10 74.80 C 149.22 74.77 148.49 75.45 148.46 76.33 Z M 148.42 77.31 L 148.38 78.25 C 148.35 79.13 149.03 79.86 149.91 79.90 C 150.78 79.93 151.52 79.25 151.55 78.38 L 151.59 77.43 C 151.62 76.56 150.94 75.82 150.07 75.78 C 149.19 75.75 148.46 76.43 148.42 77.31 Z M 148.38 78.25 L 148.34 79.23 C 148.31 80.10 148.99 80.84 149.86 80.87 C 150.74 80.91 151.48 80.23 151.51 79.35 L 151.55 78.38 C 151.59 77.50 150.91 76.77 150.03 76.73 C 149.16 76.70 148.42 77.38 148.38 78.25 Z M 148.34 79.22 L 148.30 80.23 C 148.26 81.10 148.94 81.84 149.82 81.88 C 150.70 81.91 151.44 81.23 151.47 80.36 L 151.51 79.36 C 151.55 78.48 150.87 77.74 149.99 77.70 C 149.12 77.67 148.38 78.35 148.34 79.22 Z M 148.30 80.23 L 148.25 81.26 C 148.22 82.13 148.90 82.87 149.78 82.91 C 150.65 82.95 151.39 82.27 151.43 81.39 L 151.47 80.36 C 151.51 79.48 150.83 78.74 149.95 78.70 C 149.08 78.67 148.33 79.35 148.30 80.23 Z M 148.25 81.26 L 148.21 82.31 C 148.17 83.19 148.85 83.93 149.73 83.97 C 150.61 84.01 151.35 83.33 151.39 82.45 L 151.43 81.39 C 151.47 80.51 150.79 79.77 149.91 79.73 C 149.03 79.70 148.29 80.38 148.25 81.26 Z M 148.21 82.32 L 148.17 83.29 C 148.13 84.17 148.81 84.91 149.69 84.95 C 150.57 84.99 151.32 84.30 151.35 83.42 L 151.39 82.45 C 151.43 81.57 150.74 80.82 149.86 80.79 C 148.98 80.75 148.24 81.44 148.21 82.32 Z M 148.16 83.29 L 148.13 84.23 C 148.09 85.11 148.78 85.86 149.66 85.89 C 150.54 85.93 151.28 85.24 151.32 84.36 L 151.35 83.42 C 151.39 82.54 150.70 81.80 149.82 81.76 C 148.94 81.73 148.20 82.41 148.16 83.29 Z M 148.12 84.23 L 148.09 85.19 C 148.05 86.08 148.74 86.82 149.62 86.85 C 150.51 86.89 151.25 86.20 151.28 85.32 L 151.32 84.36 C 151.35 83.47 150.67 82.73 149.78 82.70 C 148.90 82.66 148.16 83.35 148.12 84.23 Z M 148.08 85.19 L 148.05 86.18 C 148.01 87.06 148.70 87.81 149.59 87.84 C 150.47 87.88 151.22 87.19 151.25 86.30 L 151.29 85.32 C 151.32 84.43 150.63 83.69 149.75 83.65 C 148.86 83.62 148.12 84.31 148.08 85.19 Z M 148.04 86.18 L 148.01 87.19 C 147.97 88.08 148.67 88.82 149.55 88.86 C 150.44 88.89 151.18 88.20 151.21 87.31 L 151.25 86.30 C 151.28 85.41 150.59 84.67 149.71 84.64 C 148.82 84.60 148.08 85.30 148.04 86.18 Z M 148.00 87.19 L 147.97 88.23 C 147.93 89.12 148.63 89.87 149.52 89.90 C 150.40 89.93 151.15 89.24 151.18 88.35 L 151.22 87.31 C 151.25 86.42 150.56 85.68 149.67 85.65 C 148.78 85.61 148.03 86.31 148.00 87.19 Z M 147.96 88.24 L 147.93 89.30 C 147.89 90.19 148.59 90.94 149.48 90.97 C 150.37 91.00 151.11 90.31 151.15 89.42 L 151.18 88.35 C 151.21 87.46 150.52 86.71 149.63 86.68 C 148.74 86.65 147.99 87.35 147.96 88.24 Z M 147.92 89.31 L 147.89 90.32 C 147.86 91.21 148.56 91.96 149.45 91.99 C 150.34 92.02 151.08 91.32 151.11 90.43 L 151.15 89.41 C 151.18 88.52 150.48 87.78 149.59 87.75 C 148.70 87.72 147.95 88.41 147.92 89.31 Z M 147.89 90.32 L 147.86 91.27 C 147.83 92.17 148.52 92.91 149.42 92.94 C 150.31 92.97 151.05 92.27 151.08 91.38 L 151.12 90.43 C 151.15 89.53 150.45 88.79 149.55 88.76 C 148.66 88.73 147.92 89.43 147.89 90.32 Z M 147.85 91.28 L 147.82 92.25 C 147.79 93.14 148.49 93.89 149.39 93.92 C 150.28 93.95 151.03 93.25 151.05 92.35 L 151.09 91.38 C 151.12 90.49 150.41 89.74 149.52 89.71 C 148.63 89.68 147.88 90.38 147.85 91.28 Z M 147.82 92.25 L 147.79 93.24 C 147.76 94.14 148.46 94.88 149.35 94.91 C 150.25 94.94 151.00 94.24 151.02 93.34 L 151.06 92.35 C 151.09 91.46 150.38 90.71 149.49 90.68 C 148.60 90.66 147.85 91.36 147.82 92.25 Z M 147.79 93.24 L 147.75 94.25 C 147.73 95.14 148.43 95.89 149.32 95.92 C 150.22 95.95 150.97 95.24 151.00 94.35 L 151.03 93.34 C 151.05 92.45 150.35 91.70 149.46 91.67 C 148.56 91.64 147.81 92.35 147.79 93.24 Z M 147.75 94.25 L 147.72 95.26 C 147.69 96.16 148.40 96.91 149.29 96.94 C 150.19 96.96 150.94 96.26 150.97 95.36 L 151.00 94.35 C 151.02 93.45 150.32 92.70 149.43 92.67 C 148.53 92.65 147.78 93.35 147.75 94.25 Z M 147.72 95.26 L 147.69 96.29 C 147.66 97.18 148.36 97.93 149.26 97.96 C 150.16 97.99 150.91 97.29 150.94 96.39 L 150.97 95.36 C 151.00 94.47 150.29 93.72 149.39 93.69 C 148.50 93.66 147.75 94.37 147.72 95.26 Z M 147.69 96.29 L 147.65 97.32 C 147.63 98.22 148.33 98.97 149.23 99.00 C 150.13 99.02 150.88 98.32 150.91 97.42 L 150.94 96.39 C 150.97 95.49 150.26 94.74 149.36 94.71 C 148.46 94.68 147.71 95.39 147.69 96.29 Z M 147.65 97.32 L 147.62 98.35 C 147.59 99.25 148.30 100.00 149.20 100.02 C 150.10 100.05 150.85 99.35 150.88 98.45 L 150.91 97.42 C 150.94 96.52 150.23 95.77 149.33 95.74 C 148.43 95.71 147.68 96.42 147.65 97.32 Z M 147.62 98.35 L 147.59 99.32 C 147.56 100.22 148.27 100.97 149.17 101.00 C 150.07 101.03 150.82 100.32 150.85 99.42 L 150.88 98.45 C 150.91 97.55 150.20 96.79 149.30 96.77 C 148.40 96.74 147.65 97.45 147.62 98.35 Z M 147.59 99.32 L 147.56 100.30 C 147.53 101.20 148.24 101.95 149.14 101.98 C 150.04 102.01 150.79 101.30 150.82 100.40 L 150.85 99.42 C 150.88 98.52 150.17 97.77 149.27 97.74 C 148.37 97.71 147.62 98.42 147.59 99.32 Z M 147.56 100.30 L 147.53 101.28 C 147.50 102.18 148.21 102.94 149.11 102.96 C 150.01 102.99 150.77 102.28 150.79 101.38 L 150.82 100.40 C 150.85 99.49 150.14 98.74 149.24 98.72 C 148.34 98.69 147.58 99.40 147.56 100.30 Z M 147.53 101.28 L 147.50 102.27 C 147.47 103.17 148.18 103.93 149.08 103.95 C 149.99 103.98 150.74 103.27 150.77 102.36 L 150.79 101.38 C 150.82 100.47 150.11 99.72 149.21 99.70 C 148.31 99.67 147.55 100.38 147.53 101.28 Z M 147.50 102.27 L 147.47 103.27 C 147.44 104.17 148.16 104.92 149.06 104.95 C 149.96 104.97 150.71 104.26 150.74 103.36 L 150.77 102.36 C 150.79 101.46 150.08 100.71 149.18 100.68 C 148.27 100.66 147.52 101.37 147.50 102.27 Z M 147.47 103.27 L 147.44 104.28 C 147.42 105.18 148.13 105.93 149.03 105.96 C 149.94 105.98 150.69 105.27 150.71 104.36 L 150.74 103.36 C 150.76 102.45 150.05 101.70 149.15 101.68 C 148.24 101.65 147.49 102.37 147.47 103.27 Z M 147.44 104.28 L 147.41 105.29 C 147.39 106.20 148.11 106.95 149.01 106.97 C 149.92 107.00 150.67 106.28 150.69 105.38 L 150.72 104.36 C 150.74 103.46 150.02 102.70 149.12 102.68 C 148.21 102.66 147.46 103.37 147.44 104.28 Z M 147.41 105.30 L 147.39 106.33 C 147.37 107.23 148.08 107.98 148.99 108.00 C 149.89 108.02 150.65 107.31 150.67 106.40 L 150.69 105.37 C 150.71 104.47 150.00 103.72 149.09 103.70 C 148.19 103.68 147.43 104.39 147.41 105.30 Z M 147.39 106.33 L 147.36 107.35 C 147.35 108.26 148.06 109.01 148.97 109.03 C 149.88 109.05 150.63 108.33 150.65 107.42 L 150.67 106.40 C 150.69 105.49 149.97 104.74 149.06 104.72 C 148.16 104.70 147.41 105.42 147.39 106.33 Z M 147.36 107.35 L 147.34 108.31 C 147.33 109.21 148.05 109.96 148.95 109.98 C 149.86 110.00 150.61 109.28 150.63 108.37 L 150.65 107.42 C 150.67 106.51 149.94 105.76 149.04 105.74 C 148.13 105.73 147.38 106.45 147.36 107.35 Z M 147.34 108.31 L 147.33 109.27 C 147.31 110.18 148.03 110.93 148.94 110.95 C 149.84 110.96 150.59 110.24 150.61 109.33 L 150.63 108.37 C 150.65 107.46 149.92 106.71 149.02 106.70 C 148.11 106.68 147.36 107.40 147.34 108.31 Z M 147.32 109.27 L 147.31 110.25 C 147.29 111.16 148.01 111.91 148.92 111.92 C 149.83 111.94 150.58 111.22 150.59 110.31 L 150.61 109.33 C 150.63 108.42 149.90 107.68 149.00 107.66 C 148.09 107.64 147.34 108.37 147.32 109.27 Z M 147.31 110.25 L 147.29 111.24 C 147.27 112.15 148.00 112.89 148.91 112.91 C 149.81 112.93 150.56 112.20 150.58 111.29 L 150.59 110.31 C 150.61 109.40 149.89 108.65 148.98 108.63 C 148.07 108.62 147.32 109.34 147.31 110.25 Z M 147.29 111.24 L 147.27 112.24 C 147.26 113.14 147.98 113.89 148.89 113.91 C 149.80 113.92 150.55 113.20 150.56 112.29 L 150.58 111.29 C 150.59 110.39 149.87 109.64 148.96 109.62 C 148.05 109.61 147.30 110.33 147.29 111.24 Z M 147.27 112.24 L 147.25 113.25 C 147.24 114.15 147.96 114.90 148.87 114.92 C 149.78 114.93 150.53 114.21 150.55 113.30 L 150.56 112.29 C 150.58 111.38 149.85 110.63 148.94 110.62 C 148.04 110.60 147.29 111.33 147.27 112.24 Z M 147.25 113.25 L 147.24 114.26 C 147.22 115.17 147.95 115.92 148.86 115.94 C 149.76 115.95 150.51 115.23 150.53 114.32 L 150.55 113.30 C 150.56 112.39 149.84 111.64 148.93 111.63 C 148.02 111.61 147.27 112.34 147.25 113.25 Z M 147.24 114.26 L 147.22 115.29 C 147.20 116.20 147.93 116.95 148.84 116.97 C 149.75 116.98 150.50 116.26 150.51 115.35 L 150.53 114.32 C 150.55 113.41 149.82 112.66 148.91 112.64 C 148.00 112.63 147.25 113.35 147.24 114.26 Z M 147.22 115.29 L 147.20 116.33 C 147.18 117.24 147.91 117.99 148.82 118.01 C 149.73 118.03 150.48 117.30 150.49 116.39 L 150.51 115.35 C 150.53 114.44 149.80 113.69 148.89 113.67 C 147.98 113.66 147.23 114.38 147.22 115.29 Z M 147.20 116.33 L 147.18 117.36 C 147.16 118.27 147.89 119.02 148.80 119.04 C 149.71 119.05 150.46 118.33 150.48 117.42 L 150.50 116.39 C 150.51 115.48 149.79 114.73 148.88 114.71 C 147.97 114.70 147.21 115.42 147.20 116.33 Z M 147.18 117.35 L 147.16 118.33 C 147.14 119.24 147.86 120.00 148.77 120.01 C 149.69 120.03 150.44 119.31 150.46 118.40 L 150.48 117.42 C 150.49 116.51 149.77 115.76 148.86 115.74 C 147.95 115.72 147.20 116.44 147.18 117.35 Z M 147.16 118.33 L 147.14 119.31 C 147.12 120.23 147.84 120.98 148.75 121.00 C 149.67 121.02 150.42 120.29 150.44 119.38 L 150.46 118.40 C 150.48 117.49 149.75 116.73 148.84 116.71 C 147.93 116.69 147.18 117.42 147.16 118.33 Z M 147.14 119.31 L 147.11 120.30 C 147.10 121.22 147.82 121.97 148.73 121.99 C 149.64 122.01 150.40 121.29 150.42 120.37 L 150.44 119.38 C 150.46 118.47 149.73 117.72 148.82 117.70 C 147.91 117.68 147.15 118.40 147.14 119.31 Z M 147.11 120.30 L 147.09 121.30 C 147.07 122.21 147.80 122.97 148.71 122.99 C 149.62 123.01 150.38 122.28 150.40 121.37 L 150.42 120.37 C 150.44 119.46 149.71 118.71 148.80 118.69 C 147.89 118.67 147.13 119.39 147.11 120.30 Z M 147.09 121.30 L 147.07 122.30 C 147.05 123.21 147.77 123.97 148.69 123.99 C 149.60 124.01 150.36 123.28 150.38 122.37 L 150.40 121.37 C 150.42 120.46 149.69 119.70 148.78 119.68 C 147.87 119.66 147.11 120.39 147.09 121.30 Z M 147.07 122.30 L 147.05 123.31 C 147.03 124.22 147.75 124.98 148.67 125.00 C 149.58 125.02 150.34 124.29 150.36 123.38 L 150.38 122.37 C 150.40 121.46 149.67 120.70 148.76 120.68 C 147.85 120.66 147.09 121.39 147.07 122.30 Z M 147.05 123.31 L 147.02 124.31 C 147.00 125.23 147.73 125.99 148.65 126.01 C 149.56 126.02 150.32 125.30 150.34 124.38 L 150.36 123.38 C 150.38 122.46 149.65 121.70 148.74 121.68 C 147.82 121.67 147.07 122.39 147.05 123.31 Z M 147.02 124.31 L 147.00 125.33 C 146.98 126.24 147.71 127.00 148.63 127.02 C 149.54 127.04 150.30 126.31 150.32 125.39 L 150.34 124.38 C 150.36 123.47 149.63 122.71 148.71 122.69 C 147.80 122.67 147.04 123.40 147.02 124.31 Z M 147.00 125.33 L 146.98 126.34 C 146.96 127.26 147.69 128.01 148.61 128.03 C 149.52 128.05 150.28 127.32 150.30 126.41 L 150.32 125.39 C 150.34 124.48 149.61 123.72 148.69 123.70 C 147.78 123.68 147.02 124.41 147.00 125.33 Z M 146.98 126.34 L 146.96 127.35 C 146.94 128.27 147.67 129.03 148.59 129.05 C 149.50 129.06 150.26 128.34 150.28 127.42 L 150.30 126.40 C 150.32 125.49 149.59 124.73 148.67 124.71 C 147.75 124.70 147.00 125.42 146.98 126.34 Z M 146.96 127.36 L 146.94 128.37 C 146.92 129.28 147.65 130.04 148.57 130.06 C 149.49 130.07 150.25 129.34 150.26 128.43 L 150.28 127.42 C 150.30 126.50 149.57 125.74 148.65 125.73 C 147.73 125.71 146.98 126.44 146.96 127.36 Z M 146.94 128.37 L 146.92 129.37 C 146.91 130.29 147.64 131.05 148.56 131.06 C 149.47 131.08 150.23 130.35 150.25 129.43 L 150.26 128.42 C 150.28 127.51 149.55 126.75 148.63 126.73 C 147.71 126.72 146.96 127.45 146.94 128.37 Z M 146.92 129.37 L 146.91 130.38 C 146.89 131.30 147.62 132.05 148.54 132.07 C 149.46 132.08 150.21 131.35 150.23 130.43 L 150.25 129.43 C 150.26 128.51 149.53 127.75 148.61 127.74 C 147.69 127.72 146.94 128.46 146.92 129.37 Z M 146.90 130.38 L 146.89 131.39 C 146.87 132.30 147.61 133.06 148.53 133.08 C 149.44 133.09 150.20 132.36 150.21 131.44 L 150.23 130.43 C 150.25 129.52 149.51 128.76 148.59 128.74 C 147.68 128.73 146.92 129.46 146.90 130.38 Z M 146.89 131.39 L 146.87 132.39 C 146.86 133.31 147.59 134.07 148.51 134.08 C 149.43 134.09 150.19 133.36 150.20 132.44 L 150.22 131.44 C 150.23 130.52 149.50 129.76 148.58 129.75 C 147.66 129.73 146.90 130.47 146.89 131.39 Z M 146.87 132.39 L 146.86 133.39 C 146.84 134.31 147.58 135.07 148.50 135.08 C 149.41 135.10 150.17 134.36 150.19 133.44 L 150.20 132.44 C 150.21 131.52 149.48 130.76 148.56 130.75 C 147.64 130.74 146.89 131.47 146.87 132.39 Z M 146.85 133.39 L 146.84 134.39 C 146.83 135.31 147.56 136.07 148.48 136.08 C 149.40 136.10 150.16 135.36 150.17 134.44 L 150.19 133.44 C 150.20 132.52 149.47 131.77 148.55 131.75 C 147.63 131.74 146.87 132.47 146.85 133.39 Z M 146.84 134.39 L 146.82 135.39 C 146.81 136.31 147.54 137.07 148.46 137.08 C 149.38 137.10 150.14 136.36 150.16 135.44 L 150.17 134.44 C 150.19 133.52 149.45 132.77 148.53 132.75 C 147.61 132.74 146.85 133.47 146.84 134.39 Z M 146.82 135.39 L 146.81 136.38 C 146.79 137.31 147.53 138.06 148.45 138.08 C 149.37 138.09 150.13 137.36 150.14 136.44 L 150.16 135.44 C 150.17 134.52 149.44 133.76 148.52 133.75 C 147.60 133.73 146.84 134.47 146.82 135.39 Z M 146.81 136.38 L 146.79 137.38 C 146.77 138.30 147.51 139.06 148.43 139.07 C 149.35 139.09 150.11 138.35 150.12 137.43 L 150.14 136.44 C 150.16 135.52 149.42 134.76 148.50 134.74 C 147.58 134.73 146.82 135.46 146.81 136.38 Z M 146.79 137.37 L 146.77 138.36 C 146.75 139.29 147.49 140.05 148.41 140.06 C 149.33 140.08 150.09 139.35 150.11 138.42 L 150.13 137.43 C 150.14 136.51 149.41 135.75 148.49 135.74 C 147.56 135.72 146.80 136.45 146.79 137.37 Z M 146.77 138.36 L 146.75 139.36 C 146.73 140.28 147.47 141.04 148.39 141.06 C 149.31 141.08 150.07 140.34 150.09 139.42 L 150.11 138.43 C 150.13 137.50 149.39 136.74 148.47 136.73 C 147.55 136.71 146.79 137.44 146.77 138.36 Z M 146.75 139.36 L 146.73 140.35 C 146.71 141.28 147.44 142.04 148.37 142.06 C 149.29 142.07 150.05 141.34 150.07 140.42 L 150.09 139.42 C 150.11 138.50 149.38 137.74 148.45 137.72 C 147.53 137.70 146.77 138.43 146.75 139.36 Z M 146.73 140.35 L 146.71 141.35 C 146.69 142.27 147.42 143.03 148.34 143.05 C 149.27 143.07 150.03 142.34 150.05 141.42 L 150.07 140.42 C 150.09 139.50 149.36 138.74 148.44 138.72 C 147.51 138.70 146.75 139.43 146.73 140.35 Z M 146.71 141.35 L 146.69 142.34 C 146.67 143.26 147.40 144.03 148.32 144.05 C 149.25 144.07 150.01 143.33 150.03 142.41 L 150.05 141.42 C 150.07 140.49 149.34 139.73 148.42 139.71 C 147.49 139.69 146.73 140.42 146.71 141.35 Z M 146.69 142.34 L 146.67 143.33 C 146.65 144.26 147.38 145.02 148.30 145.04 C 149.22 145.06 149.99 144.33 150.01 143.40 L 150.03 142.41 C 150.05 141.49 149.32 140.72 148.39 140.70 C 147.47 140.68 146.71 141.42 146.69 142.34 Z M 146.67 143.33 L 146.64 144.33 C 146.62 145.25 147.36 146.02 148.28 146.04 C 149.20 146.06 149.97 145.32 149.99 144.40 L 150.01 143.41 C 150.03 142.48 149.30 141.72 148.37 141.70 C 147.45 141.68 146.69 142.41 146.67 143.33 Z M 146.64 144.33 L 146.62 145.32 C 146.60 146.25 147.33 147.01 148.26 147.03 C 149.18 147.05 149.95 146.32 149.97 145.40 L 149.99 144.40 C 150.01 143.48 149.27 142.71 148.35 142.69 C 147.43 142.67 146.66 143.40 146.64 144.33 Z M 146.62 145.33 L 146.60 146.33 C 146.58 147.25 147.31 148.01 148.24 148.03 C 149.16 148.05 149.93 147.32 149.94 146.40 L 149.97 145.40 C 149.99 144.47 149.25 143.71 148.33 143.69 C 147.41 143.67 146.64 144.40 146.62 145.33 Z M 146.60 146.33 L 146.58 147.33 C 146.56 148.25 147.29 149.02 148.22 149.04 C 149.14 149.06 149.91 148.32 149.92 147.40 L 149.95 146.40 C 149.96 145.47 149.23 144.71 148.31 144.69 C 147.38 144.67 146.62 145.40 146.60 146.33 Z M 146.58 147.33 L 146.56 148.34 C 146.54 149.27 147.27 150.03 148.20 150.05 C 149.12 150.07 149.89 149.33 149.91 148.41 L 149.93 147.40 C 149.94 146.47 149.21 145.71 148.28 145.69 C 147.36 145.67 146.60 146.41 146.58 147.33 Z M 146.56 148.34 L 146.54 149.36 C 146.52 150.28 147.26 151.05 148.18 151.06 C 149.11 151.08 149.87 150.35 149.89 149.42 L 149.91 148.41 C 149.92 147.48 149.19 146.72 148.26 146.70 C 147.34 146.68 146.57 147.42 146.56 148.34 Z M 146.54 149.36 L 146.52 150.37 C 146.50 151.29 147.24 152.06 148.17 152.07 C 149.09 152.09 149.85 151.35 149.87 150.43 L 149.89 149.42 C 149.90 148.49 149.17 147.73 148.24 147.71 C 147.32 147.70 146.55 148.44 146.54 149.36 Z M 146.52 150.37 L 146.50 151.39 C 146.49 152.31 147.23 153.07 148.15 153.09 C 149.08 153.10 149.84 152.37 149.85 151.44 L 149.87 150.43 C 149.88 149.50 149.15 148.74 148.22 148.72 C 147.30 148.71 146.53 149.45 146.52 150.37 Z M 146.50 151.39 L 146.49 152.40 C 146.47 153.33 147.21 154.09 148.14 154.10 C 149.06 154.12 149.82 153.38 149.84 152.45 L 149.85 151.44 C 149.87 150.51 149.13 149.75 148.20 149.74 C 147.28 149.72 146.52 150.46 146.50 151.39 Z M 146.49 152.41 L 146.47 153.42 C 146.46 154.35 147.20 155.11 148.12 155.12 C 149.05 155.13 149.81 154.39 149.82 153.47 L 149.84 152.45 C 149.85 151.53 149.11 150.77 148.19 150.75 C 147.26 150.74 146.50 151.48 146.49 152.41 Z M 146.47 153.42 L 146.46 154.44 C 146.45 155.36 147.19 156.12 148.11 156.14 C 149.04 156.15 149.80 155.41 149.81 154.48 L 149.82 153.47 C 149.84 152.54 149.10 151.78 148.17 151.77 C 147.24 151.76 146.48 152.50 146.47 153.42 Z M 146.46 154.44 L 146.45 155.45 C 146.44 156.38 147.18 157.13 148.10 157.15 C 149.03 157.16 149.79 156.42 149.80 155.49 L 149.81 154.48 C 149.82 153.55 149.08 152.79 148.15 152.78 C 147.23 152.77 146.47 153.51 146.46 154.44 Z M 146.45 155.45 L 146.43 156.45 C 146.42 157.38 147.17 158.14 148.09 158.15 C 149.02 158.16 149.78 157.42 149.79 156.49 L 149.80 155.49 C 149.81 154.56 149.07 153.80 148.14 153.79 C 147.21 153.78 146.46 154.52 146.45 155.45 Z M 146.43 156.46 L 146.42 157.45 C 146.42 158.38 147.16 159.13 148.09 159.14 C 149.01 159.15 149.77 158.41 149.78 157.48 L 149.79 156.49 C 149.80 155.56 149.05 154.80 148.13 154.79 C 147.20 154.79 146.44 155.53 146.43 156.46 Z M 146.42 157.45 L 146.42 158.44 C 146.41 159.36 147.15 160.12 148.08 160.13 C 149.01 160.14 149.76 159.39 149.77 158.46 L 149.78 157.48 C 149.79 156.55 149.04 155.80 148.12 155.79 C 147.19 155.78 146.43 156.53 146.42 157.45 Z M 146.42 158.44 L 146.41 159.41 C 146.40 160.33 147.15 161.09 148.07 161.10 C 149.00 161.11 149.76 160.36 149.76 159.43 L 149.77 158.46 C 149.78 157.54 149.03 156.78 148.11 156.77 C 147.18 156.76 146.42 157.51 146.42 158.44 Z M 146.41 159.41 L 146.40 160.40 C 146.39 161.32 147.14 162.08 148.07 162.08 C 148.99 162.09 149.75 161.34 149.76 160.42 L 149.76 159.43 C 149.77 158.50 149.02 157.75 148.10 157.74 C 147.17 157.74 146.41 158.48 146.41 159.41 Z M 146.40 160.40 L 146.39 161.46 C 146.39 162.38 147.14 163.14 148.06 163.14 C 148.99 163.15 149.75 162.40 149.75 161.47 L 149.76 160.42 C 149.76 159.49 149.02 158.73 148.09 158.73 C 147.16 158.72 146.41 159.47 146.40 160.40 Z M 146.39 161.46 L 146.39 162.50 C 146.38 163.42 147.13 164.18 148.06 164.18 C 148.99 164.19 149.74 163.44 149.75 162.51 L 149.75 161.47 C 149.76 160.54 149.01 159.79 148.08 159.78 C 147.15 159.78 146.40 160.53 146.39 161.46 Z M 146.39 162.50 L 146.38 163.52 C 146.38 164.45 147.13 165.20 148.06 165.21 C 148.99 165.21 149.74 164.46 149.74 163.53 L 149.75 162.51 C 149.75 161.58 149.00 160.83 148.08 160.82 C 147.15 160.82 146.39 161.57 146.39 162.50 Z M 146.38 163.52 L 146.38 164.53 C 146.38 165.45 147.13 166.21 148.05 166.21 C 148.98 166.22 149.74 165.47 149.74 164.54 L 149.74 163.53 C 149.75 162.60 149.00 161.85 148.07 161.84 C 147.14 161.84 146.39 162.59 146.38 163.52 Z M 146.38 164.53 L 146.38 165.52 C 146.37 166.45 147.12 167.20 148.05 167.21 C 148.98 167.21 149.74 166.46 149.74 165.53 L 149.74 164.54 C 149.75 163.61 149.00 162.85 148.07 162.85 C 147.14 162.85 146.38 163.60 146.38 164.53 Z M 146.38 165.52 L 146.37 166.50 C 146.37 167.43 147.12 168.18 148.05 168.19 C 148.98 168.19 149.73 167.44 149.74 166.51 L 149.74 165.53 C 149.74 164.60 148.99 163.85 148.06 163.84 C 147.13 163.84 146.38 164.59 146.38 165.52 Z M 146.37 166.50 L 146.37 167.47 C 146.36 168.40 147.11 169.16 148.04 169.16 C 148.97 169.16 149.73 168.41 149.73 167.49 L 149.74 166.51 C 149.74 165.58 148.99 164.83 148.06 164.82 C 147.13 164.82 146.37 165.57 146.37 166.50 Z M 146.37 167.47 L 146.36 168.43 C 146.36 169.36 147.11 170.12 148.04 170.13 C 148.97 170.13 149.72 169.38 149.73 168.45 L 149.73 167.49 C 149.74 166.56 148.99 165.80 148.06 165.80 C 147.13 165.79 146.37 166.54 146.37 167.47 Z M 146.36 168.43 L 146.36 169.39 C 146.35 170.32 147.10 171.08 148.03 171.09 C 148.96 171.09 149.72 170.34 149.72 169.41 L 149.73 168.45 C 149.73 167.52 148.98 166.76 148.05 166.76 C 147.13 166.75 146.37 167.50 146.36 168.43 Z M 146.35 169.39 L 146.35 170.39 C 146.34 171.32 147.09 172.08 148.02 172.09 C 148.95 172.10 149.71 171.35 149.72 170.42 L 149.72 169.41 C 149.73 168.48 148.98 167.72 148.05 167.72 C 147.12 167.71 146.36 168.46 146.35 169.39 Z M 146.35 170.39 L 146.34 171.41 C 146.33 172.34 147.08 173.10 148.01 173.11 C 148.94 173.12 149.70 172.37 149.71 171.44 L 149.72 170.42 C 149.72 169.49 148.98 168.73 148.05 168.72 C 147.12 168.71 146.35 169.46 146.35 170.39 Z M 146.34 171.41 L 146.33 172.42 C 146.32 173.35 147.06 174.12 148.00 174.13 C 148.93 174.13 149.69 173.39 149.70 172.46 L 149.71 171.44 C 149.72 170.51 148.97 169.75 148.04 169.74 C 147.11 169.73 146.35 170.48 146.34 171.41 Z M 146.33 172.42 L 146.32 173.43 C 146.31 174.36 147.05 175.13 147.98 175.14 C 148.91 175.15 149.68 174.40 149.69 173.47 L 149.70 172.46 C 149.71 171.53 148.96 170.76 148.03 170.75 C 147.10 170.74 146.34 171.49 146.33 172.42 Z M 146.31 173.43 L 146.30 174.44 C 146.29 175.37 147.04 176.13 147.97 176.14 C 148.90 176.15 149.67 175.40 149.68 174.47 L 149.69 173.47 C 149.70 172.54 148.95 171.77 148.02 171.76 C 147.09 171.75 146.33 172.50 146.31 173.43 Z M 146.30 174.44 L 146.29 175.43 C 146.28 176.37 147.03 177.13 147.96 177.14 C 148.89 177.15 149.66 176.40 149.67 175.47 L 149.68 174.47 C 149.69 173.54 148.94 172.78 148.01 172.77 C 147.08 172.76 146.31 173.50 146.30 174.44 Z M 146.29 175.43 L 146.28 176.42 C 146.27 177.36 147.02 178.12 147.95 178.13 C 148.88 178.14 149.65 177.39 149.66 176.46 L 149.67 175.47 C 149.68 174.54 148.93 173.77 148.00 173.76 C 147.07 173.75 146.30 174.50 146.29 175.43 Z M 146.28 176.43 L 146.27 177.41 C 146.26 178.34 147.01 179.10 147.94 179.11 C 148.87 179.12 149.64 178.37 149.65 177.44 L 149.66 176.46 C 149.67 175.53 148.92 174.76 147.99 174.75 C 147.05 174.74 146.29 175.49 146.28 176.43 Z M 146.27 177.41 L 146.26 178.38 C 146.25 179.31 147.00 180.08 147.94 180.08 C 148.87 180.09 149.63 179.34 149.64 178.41 L 149.65 177.44 C 149.66 176.51 148.91 175.74 147.97 175.73 C 147.04 175.73 146.28 176.48 146.27 177.41 Z M 146.26 178.38 L 146.25 179.41 C 146.25 180.34 147.00 181.10 147.93 181.11 C 148.86 181.12 149.63 180.37 149.63 179.43 L 149.64 178.41 C 149.65 177.48 148.90 176.71 147.96 176.71 C 147.03 176.70 146.27 177.45 146.26 178.38 Z M 146.25 179.41 L 146.25 180.45 C 146.24 181.38 146.99 182.14 147.93 182.15 C 148.86 182.15 149.62 181.40 149.63 180.47 L 149.63 179.43 C 149.64 178.50 148.88 177.74 147.95 177.73 C 147.02 177.73 146.26 178.48 146.25 179.41 Z M 146.25 180.45 L 146.24 181.48 C 146.24 182.41 146.99 183.17 147.93 183.17 C 148.86 183.17 149.62 182.42 149.62 181.49 L 149.63 180.47 C 149.63 179.53 148.88 178.77 147.94 178.77 C 147.01 178.77 146.25 179.52 146.25 180.45 Z M 146.24 181.48 L 146.24 182.49 C 146.24 183.42 146.99 184.18 147.92 184.18 C 148.86 184.18 149.61 183.43 149.62 182.50 L 149.62 181.49 C 149.62 180.56 148.87 179.80 147.94 179.80 C 147.01 179.79 146.25 180.55 146.24 181.48 Z M 146.24 182.49 L 146.24 183.49 C 146.24 184.42 146.99 185.18 147.92 185.18 C 148.86 185.18 149.61 184.43 149.61 183.50 L 149.62 182.50 C 149.62 181.57 148.86 180.81 147.93 180.81 C 147.00 180.81 146.24 181.56 146.24 182.49 Z M 146.24 183.49 L 146.24 184.48 C 146.24 185.41 146.99 186.16 147.92 186.17 C 148.86 186.17 149.61 185.41 149.61 184.48 L 149.61 183.49 C 149.62 182.56 148.86 181.81 147.93 181.81 C 147.00 181.81 146.24 182.56 146.24 183.49 Z M 146.24 184.48 L 146.24 185.45 C 146.24 186.38 146.99 187.14 147.93 187.14 C 148.86 187.14 149.61 186.38 149.61 185.45 L 149.61 184.48 C 149.61 183.55 148.86 182.79 147.93 182.79 C 147.00 182.79 146.24 183.55 146.24 184.48 Z M 146.24 185.45 L 146.24 186.41 C 146.24 187.34 146.99 188.10 147.93 188.10 C 148.86 188.10 149.61 187.34 149.61 186.41 L 149.61 185.45 C 149.61 184.52 148.86 183.77 147.93 183.77 C 147.00 183.77 146.24 184.52 146.24 185.45 Z M 146.24 186.41 L 146.24 187.42 C 146.24 188.35 147.00 189.10 147.93 189.10 C 148.86 189.10 149.61 188.35 149.61 187.42 L 149.61 186.41 C 149.61 185.48 148.86 184.73 147.93 184.73 C 147.00 184.73 146.24 185.48 146.24 186.41 Z M 146.24 187.42 L 146.24 188.46 C 146.24 189.39 147.00 190.14 147.93 190.14 C 148.86 190.14 149.61 189.39 149.61 188.46 L 149.61 187.42 C 149.61 186.49 148.86 185.73 147.93 185.73 C 147.00 185.73 146.24 186.49 146.24 187.42 Z M 146.24 188.46 L 146.24 189.49 C 146.24 190.41 147.00 191.17 147.93 191.17 C 148.85 191.17 149.61 190.41 149.61 189.49 L 149.61 188.46 C 149.61 187.53 148.85 186.78 147.93 186.78 C 147.00 186.78 146.24 187.53 146.24 188.46 Z M 146.25 189.49 L 146.25 190.50 C 146.25 191.42 147.00 192.18 147.93 192.18 C 148.85 192.18 149.61 191.42 149.61 190.50 L 149.61 189.49 C 149.61 188.56 148.85 187.81 147.93 187.81 C 147.00 187.81 146.25 188.56 146.25 189.49 Z M 146.25 190.50 L 146.25 191.49 C 146.25 192.42 147.00 193.17 147.93 193.17 C 148.85 193.17 149.60 192.42 149.60 191.49 L 149.60 190.50 C 149.60 189.57 148.85 188.82 147.93 188.82 C 147.00 188.82 146.25 189.57 146.25 190.50 Z M 146.25 191.49 L 146.25 192.47 C 146.25 193.39 147.00 194.14 147.93 194.14 C 148.85 194.14 149.60 193.39 149.60 192.47 L 149.60 191.49 C 149.60 190.56 148.85 189.81 147.93 189.81 C 147.00 189.81 146.25 190.56 146.25 191.49 Z M 146.25 192.47 L 146.25 193.43 C 146.25 194.35 147.00 195.10 147.93 195.10 C 148.85 195.10 149.60 194.35 149.60 193.43 L 149.60 192.47 C 149.60 191.54 148.85 190.79 147.93 190.79 C 147.00 190.79 146.25 191.54 146.25 192.47 Z M 146.25 193.43 L 146.25 194.39 C 146.25 195.32 147.00 196.07 147.93 196.07 C 148.85 196.07 149.60 195.32 149.60 194.39 L 149.60 193.43 C 149.60 192.50 148.85 191.75 147.93 191.75 C 147.00 191.75 146.25 192.50 146.25 193.43 Z M 146.25 194.39 L 146.25 195.42 C 146.25 196.34 147.00 197.09 147.93 197.09 C 148.85 197.09 149.60 196.34 149.60 195.42 L 149.60 194.39 C 149.60 193.47 148.85 192.72 147.93 192.72 C 147.00 192.72 146.25 193.47 146.25 194.39 Z M 146.26 195.42 L 146.26 196.42 C 146.26 197.35 147.00 198.09 147.93 198.09 C 148.85 198.09 149.60 197.35 149.60 196.42 L 149.60 195.42 C 149.60 194.49 148.85 193.75 147.93 193.75 C 147.00 193.75 146.26 194.49 146.26 195.42 Z M 146.26 196.42 L 146.26 197.42 C 146.26 198.34 147.01 199.09 147.93 199.09 C 148.85 199.09 149.59 198.34 149.59 197.42 L 149.59 196.42 C 149.59 195.50 148.85 194.76 147.93 194.76 C 147.01 194.76 146.26 195.50 146.26 196.42 Z M 146.26 197.42 L 146.26 198.41 C 146.26 199.33 147.01 200.08 147.93 200.08 C 148.85 200.08 149.59 199.33 149.59 198.41 L 149.59 197.42 C 149.59 196.50 148.85 195.76 147.93 195.76 C 147.01 195.76 146.26 196.50 146.26 197.42 Z M 146.26 198.41 L 146.26 199.40 C 146.26 200.32 147.01 201.07 147.93 201.07 C 148.85 201.07 149.59 200.32 149.59 199.40 L 149.59 198.41 C 149.59 197.49 148.85 196.75 147.93 196.75 C 147.01 196.75 146.26 197.49 146.26 198.41 Z M 146.26 199.40 L 146.26 200.39 C 146.26 201.31 147.01 202.05 147.93 202.05 C 148.84 202.05 149.59 201.31 149.59 200.39 L 149.59 199.40 C 149.59 198.48 148.84 197.74 147.93 197.74 C 147.01 197.74 146.26 198.48 146.26 199.40 Z M 146.27 200.39 L 146.27 201.40 C 146.27 202.32 147.01 203.06 147.93 203.06 C 148.84 203.06 149.59 202.32 149.59 201.40 L 149.59 200.39 C 149.59 199.47 148.84 198.73 147.93 198.73 C 147.01 198.73 146.27 199.47 146.27 200.39 Z M 146.27 201.40 L 146.27 202.43 C 146.27 203.35 147.01 204.09 147.93 204.09 C 148.84 204.09 149.58 203.35 149.58 202.43 L 149.58 201.40 C 149.58 200.49 148.84 199.75 147.93 199.75 C 147.01 199.75 146.27 200.49 146.27 201.40 Z M 146.27 202.43 L 146.27 203.46 C 146.27 204.37 147.01 205.11 147.93 205.11 C 148.84 205.11 149.58 204.37 149.58 203.46 L 149.58 202.43 C 149.58 201.52 148.84 200.78 147.93 200.78 C 147.01 200.78 146.27 201.52 146.27 202.43 Z M 146.28 203.46 L 146.28 204.47 C 146.28 205.39 147.01 206.12 147.93 206.12 C 148.84 206.12 149.58 205.39 149.58 204.47 L 149.58 203.46 C 149.58 202.55 148.84 201.81 147.93 201.81 C 147.01 201.81 146.28 202.55 146.28 203.46 Z M 146.28 204.47 L 146.28 205.47 C 146.28 206.38 147.02 207.12 147.93 207.12 C 148.84 207.12 149.57 206.38 149.57 205.47 L 149.57 204.47 C 149.57 203.56 148.84 202.83 147.93 202.83 C 147.02 202.83 146.28 203.56 146.28 204.47 Z M 146.28 205.47 L 146.28 206.44 C 146.28 207.35 147.02 208.09 147.93 208.09 C 148.83 208.09 149.57 207.35 149.57 206.44 L 149.57 205.47 C 149.57 204.56 148.83 203.82 147.93 203.82 C 147.02 203.82 146.28 204.56 146.28 205.47 Z M 146.28 206.44 L 146.28 207.40 C 146.28 208.30 147.02 209.04 147.93 209.04 C 148.83 209.04 149.57 208.30 149.57 207.40 L 149.57 206.44 C 149.57 205.53 148.83 204.80 147.93 204.80 C 147.02 204.80 146.28 205.53 146.28 206.44 Z M 146.29 207.40 L 146.29 208.46 C 146.29 209.37 147.02 210.10 147.93 210.10 C 148.83 210.10 149.56 209.37 149.56 208.46 L 149.56 207.40 C 149.56 206.49 148.83 205.76 147.93 205.76 C 147.02 205.76 146.29 206.49 146.29 207.40 Z M 146.29 208.46 L 146.29 209.49 C 146.29 210.39 147.02 211.12 147.93 211.12 C 148.83 211.12 149.56 210.39 149.56 209.49 L 149.56 208.46 C 149.56 207.56 148.83 206.83 147.93 206.83 C 147.02 206.83 146.29 207.56 146.29 208.46 Z M 146.29 209.49 L 146.29 210.48 C 146.29 211.38 147.03 212.11 147.93 212.11 C 148.83 212.11 149.56 211.38 149.56 210.48 L 149.56 209.49 C 149.56 208.59 148.83 207.86 147.93 207.86 C 147.03 207.86 146.29 208.59 146.29 209.49 Z M 146.30 210.48 L 146.30 211.45 C 146.30 212.35 147.03 213.08 147.93 213.08 C 148.83 213.08 149.55 212.35 149.55 211.45 L 149.55 210.48 C 149.55 209.58 148.83 208.85 147.93 208.85 C 147.03 208.85 146.30 209.58 146.30 210.48 Z M 146.30 211.45 L 146.30 212.40 C 146.30 213.30 147.03 214.03 147.93 214.03 C 148.82 214.03 149.55 213.30 149.55 212.40 L 149.55 211.45 C 149.55 210.55 148.82 209.83 147.93 209.83 C 147.03 209.83 146.30 210.55 146.30 211.45 Z M 146.31 212.40 L 146.31 213.39 C 146.31 214.28 147.03 215.01 147.93 215.01 C 148.82 215.01 149.55 214.28 149.55 213.39 L 149.55 212.40 C 149.55 211.51 148.82 210.78 147.93 210.78 C 147.03 210.78 146.31 211.51 146.31 212.40 Z M 146.31 213.39 L 146.31 214.39 C 146.31 215.29 147.03 216.01 147.93 216.01 C 148.82 216.01 149.54 215.29 149.54 214.39 L 149.54 213.39 C 149.54 212.50 148.82 211.77 147.93 211.77 C 147.03 211.77 146.31 212.50 146.31 213.39 Z M 146.32 214.39 L 146.32 215.40 C 146.32 216.29 147.04 217.01 147.93 217.01 C 148.82 217.01 149.54 216.29 149.54 215.40 L 149.54 214.39 C 149.54 213.50 148.82 212.78 147.93 212.78 C 147.04 212.78 146.32 213.50 146.32 214.39 Z M 146.32 215.40 L 146.32 216.40 C 146.32 217.28 147.04 218.00 147.93 218.00 C 148.81 218.00 149.53 217.28 149.53 216.40 L 149.53 215.40 C 149.53 214.51 148.81 213.79 147.93 213.79 C 147.04 213.79 146.32 214.51 146.32 215.40 Z M 146.32 216.40 L 146.32 217.39 C 146.32 218.28 147.04 218.99 147.93 218.99 C 148.81 218.99 149.53 218.28 149.53 217.39 L 149.53 216.40 C 149.53 215.51 148.81 214.79 147.93 214.79 C 147.04 214.79 146.32 215.51 146.32 216.40 Z M 146.33 217.39 L 146.33 218.40 C 146.33 219.28 147.04 220.00 147.93 220.00 C 148.81 220.00 149.52 219.28 149.52 218.40 L 149.52 217.39 C 149.52 216.51 148.81 215.79 147.93 215.79 C 147.04 215.79 146.33 216.51 146.33 217.39 Z M 146.33 218.40 L 146.33 219.43 C 146.33 220.30 147.05 221.02 147.93 221.02 C 148.81 221.02 149.52 220.30 149.52 219.43 L 149.52 218.40 C 149.52 217.52 148.81 216.81 147.93 216.81 C 147.05 216.81 146.33 217.52 146.33 218.40 Z M 146.34 219.43 L 146.34 220.44 C 146.34 221.31 147.05 222.02 147.93 222.02 C 148.80 222.02 149.51 221.31 149.51 220.44 L 149.51 219.43 C 149.51 218.55 148.80 217.84 147.93 217.84 C 147.05 217.84 146.34 218.55 146.34 219.43 Z M 146.35 220.44 L 146.35 221.43 C 146.35 222.31 147.05 223.01 147.93 223.01 C 148.80 223.01 149.51 222.31 149.51 221.43 L 149.51 220.44 C 149.51 219.56 148.80 218.86 147.93 218.86 C 147.05 218.86 146.35 219.56 146.35 220.44 Z M 146.35 221.43 L 146.35 222.41 C 146.35 223.28 147.06 223.98 147.93 223.98 C 148.80 223.98 149.50 223.28 149.50 222.41 L 149.50 221.43 C 149.50 220.56 148.80 219.86 147.93 219.86 C 147.06 219.86 146.35 220.56 146.35 221.43 Z M 146.36 222.41 L 146.36 223.42 C 146.36 224.29 147.06 224.99 147.93 224.99 C 148.79 224.99 149.50 224.29 149.50 223.42 L 149.50 222.41 C 149.50 221.54 148.79 220.84 147.93 220.84 C 147.06 220.84 146.36 221.54 146.36 222.41 Z M 146.36 223.42 L 146.36 224.45 C 146.36 225.32 147.06 226.02 147.93 226.02 C 148.79 226.02 149.49 225.32 149.49 224.45 L 149.49 223.42 C 149.49 222.55 148.79 221.85 147.93 221.85 C 147.06 221.85 146.36 222.55 146.36 223.42 Z M 146.36 224.45 L 146.36 225.45 C 146.36 226.32 147.06 227.02 147.93 227.02 C 148.79 227.02 149.49 226.32 149.49 225.45 L 149.49 224.45 C 149.49 223.58 148.79 222.88 147.93 222.88 C 147.06 222.88 146.36 223.58 146.36 224.45 Z M 146.36 225.45 L 146.36 226.43 C 146.36 227.29 147.06 227.99 147.93 227.99 C 148.79 227.99 149.49 227.29 149.49 226.43 L 149.49 225.45 C 149.49 224.59 148.79 223.89 147.93 223.89 C 147.06 223.89 146.36 224.59 146.36 225.45 Z M 146.36 226.43 L 146.36 227.39 C 146.36 228.25 147.06 228.95 147.93 228.95 C 148.79 228.95 149.49 228.25 149.49 227.39 L 149.49 226.43 C 149.49 225.56 148.79 224.87 147.93 224.87 C 147.06 224.87 146.36 225.56 146.36 226.43 Z M 146.36 227.39 L 146.36 228.40 C 146.36 229.27 147.06 229.97 147.93 229.97 C 148.79 229.97 149.49 229.27 149.49 228.40 L 149.49 227.39 C 149.49 226.53 148.79 225.83 147.93 225.83 C 147.06 225.83 146.36 226.53 146.36 227.39 Z M 146.36 228.40 L 146.36 229.40 C 146.36 230.27 147.06 230.96 147.93 230.96 C 148.79 230.96 149.49 230.27 149.49 229.40 L 149.49 228.40 C 149.49 227.54 148.79 226.84 147.93 226.84 C 147.06 226.84 146.36 227.54 146.36 228.40 Z M 146.36 229.40 L 146.36 230.40 C 146.36 231.26 147.06 231.96 147.93 231.96 C 148.79 231.96 149.49 231.26 149.49 230.40 L 149.49 229.40 C 149.49 228.54 148.79 227.84 147.93 227.84 C 147.06 227.84 146.36 228.54 146.36 229.40 Z M 146.36 230.40 L 146.36 231.38 C 146.36 232.25 147.06 232.95 147.93 232.95 C 148.79 232.95 149.49 232.25 149.49 231.38 L 149.49 230.40 C 149.49 229.53 148.79 228.83 147.93 228.83 C 147.06 228.83 146.36 229.53 146.36 230.40 Z M 146.36 231.38 L 146.36 232.33 C 146.36 233.20 147.06 233.90 147.93 233.90 C 148.79 233.90 149.49 233.20 149.49 232.33 L 149.49 231.38 C 149.49 230.52 148.79 229.82 147.93 229.82 C 147.06 229.82 146.36 230.52 146.36 231.38 Z M 146.36 232.33 L 146.36 233.31 C 146.36 234.17 147.06 234.87 147.93 234.87 C 148.79 234.87 149.49 234.17 149.49 233.31 L 149.49 232.33 C 149.49 231.47 148.79 230.77 147.93 230.77 C 147.06 230.77 146.36 231.47 146.36 232.33 Z M 146.36 233.31 L 146.36 234.31 C 146.36 235.17 147.06 235.87 147.93 235.87 C 148.79 235.87 149.49 235.17 149.49 234.31 L 149.49 233.31 C 149.49 232.44 148.79 231.74 147.93 231.74 C 147.06 231.74 146.36 232.44 146.36 233.31 Z M 146.36 234.31 L 146.36 235.37 C 146.36 236.23 147.06 236.93 147.93 236.93 C 148.79 236.93 149.49 236.23 149.49 235.37 L 149.49 234.31 C 149.49 233.45 148.79 232.75 147.93 232.75 C 147.06 232.75 146.36 233.45 146.36 234.31 Z M 146.36 235.37 L 146.36 236.36 C 146.36 237.23 147.06 237.92 147.93 237.92 C 148.79 237.92 149.49 237.23 149.49 236.36 L 149.49 235.37 C 149.49 234.50 148.79 233.81 147.93 233.81 C 147.06 233.81 146.36 234.50 146.36 235.37 Z M 146.36 236.36 L 146.36 237.36 C 146.36 238.22 147.06 238.92 147.93 238.92 C 148.79 238.92 149.49 238.22 149.49 237.36 L 149.49 236.36 C 149.49 235.50 148.79 234.80 147.93 234.80 C 147.06 234.80 146.36 235.50 146.36 236.36 Z M 146.36 237.36 L 146.36 238.38 C 146.36 239.24 147.06 239.94 147.93 239.94 C 148.79 239.94 149.49 239.24 149.49 238.38 L 149.49 237.36 C 149.49 236.50 148.79 235.80 147.93 235.80 C 147.06 235.80 146.36 236.50 146.36 237.36 Z M 146.36 238.38 L 146.36 239.39 C 146.36 240.25 147.06 240.95 147.93 240.95 C 148.79 240.95 149.49 240.25 149.49 239.39 L 149.49 238.38 C 149.49 237.51 148.79 236.82 147.93 236.82 C 147.06 236.82 146.36 237.51 146.36 238.38 Z M 146.36 239.39 L 146.36 240.39 C 146.36 241.25 147.06 241.95 147.93 241.95 C 148.79 241.95 149.49 241.25 149.49 240.39 L 149.49 239.39 C 149.49 238.53 148.79 237.83 147.93 237.83 C 147.06 237.83 146.36 238.53 146.36 239.39 Z M 146.36 240.39 L 146.36 241.42 C 146.36 242.28 147.06 242.98 147.93 242.98 C 148.79 242.98 149.49 242.28 149.49 241.42 L 149.49 240.39 C 149.49 239.53 148.79 238.83 147.93 238.83 C 147.06 238.83 146.36 239.53 146.36 240.39 Z M 146.36 241.42 L 146.36 242.43 C 146.36 243.29 147.06 243.99 147.93 243.99 C 148.79 243.99 149.49 243.29 149.49 242.43 L 149.49 241.42 C 149.49 240.56 148.79 239.86 147.93 239.86 C 147.06 239.86 146.36 240.56 146.36 241.42 Z M 146.36 242.43 L 146.36 243.42 C 146.36 244.28 147.06 244.98 147.93 244.98 C 148.79 244.98 149.49 244.28 149.49 243.42 L 149.49 242.43 C 149.49 241.57 148.79 240.87 147.93 240.87 C 147.06 240.87 146.36 241.57 146.36 242.43 Z M 146.36 243.42 L 146.36 244.40 C 146.36 245.26 147.06 245.96 147.93 245.96 C 148.79 245.96 149.49 245.26 149.49 244.40 L 149.49 243.42 C 149.49 242.56 148.79 241.86 147.93 241.86 C 147.06 241.86 146.36 242.56 146.36 243.42 Z M 146.36 244.40 L 146.36 245.48 C 146.36 246.35 147.06 247.05 147.93 247.05 C 148.79 247.05 149.49 246.35 149.49 245.48 L 149.49 244.40 C 149.49 243.54 148.79 242.84 147.93 242.84 C 147.06 242.84 146.36 243.54 146.36 244.40 Z M 146.36 245.48 L 146.36 246.83 C 146.36 247.69 147.06 248.39 147.93 248.39 C 148.79 248.39 149.49 247.69 149.49 246.83 L 149.49 245.48 C 149.49 244.62 148.79 243.92 147.93 243.92 C 147.06 243.92 146.36 244.62 146.36 245.48 Z M 146.36 246.83 L 146.36 247.87 C 146.36 248.74 147.06 249.44 147.93 249.44 C 148.79 249.44 149.49 248.74 149.49 247.87 L 149.49 246.83 C 149.49 245.97 148.79 245.27 147.93 245.27 C 147.06 245.27 146.36 245.97 146.36 246.83 Z M 146.36 247.87 L 146.36 248.36 C 146.36 249.22 147.06 249.92 147.93 249.92 C 148.79 249.92 149.49 249.22 149.49 248.36 L 149.49 247.87 C 149.49 247.01 148.79 246.31 147.93 246.31 C 147.06 246.31 146.36 247.01 146.36 247.87 Z M 149.49 248.32 L 149.48 247.85 C 149.46 246.99 148.74 246.31 147.88 246.33 C 147.02 246.35 146.33 247.06 146.35 247.93 L 146.37 248.40 C 146.39 249.26 147.10 249.94 147.96 249.92 C 148.82 249.90 149.51 249.19 149.49 248.32 Z M 149.47 247.80 L 149.40 246.54 C 149.35 245.68 148.61 245.02 147.75 245.07 C 146.89 245.12 146.23 245.86 146.28 246.72 L 146.36 247.98 C 146.41 248.84 147.14 249.50 148.00 249.45 C 148.87 249.40 149.52 248.66 149.47 247.80 Z M 149.39 246.44 L 149.25 245.29 C 149.14 244.44 148.36 243.83 147.51 243.94 C 146.65 244.05 146.04 244.83 146.15 245.68 L 146.29 246.82 C 146.40 247.68 147.18 248.29 148.04 248.18 C 148.89 248.07 149.50 247.29 149.39 246.44 Z M 149.23 245.17 L 149.03 244.21 C 148.86 243.36 148.03 242.82 147.19 242.99 C 146.34 243.17 145.80 243.99 145.97 244.84 L 146.17 245.80 C 146.34 246.65 147.17 247.19 148.01 247.02 C 148.86 246.84 149.40 246.02 149.23 245.17 Z M 149.01 244.11 L 148.74 243.15 C 148.51 242.32 147.65 241.83 146.82 242.06 C 145.99 242.29 145.50 243.15 145.73 243.98 L 146.00 244.94 C 146.22 245.77 147.08 246.26 147.92 246.03 C 148.75 245.80 149.23 244.94 149.01 244.11 Z M 148.72 243.08 L 148.40 242.12 C 148.13 241.30 147.25 240.85 146.43 241.12 C 145.61 241.39 145.17 242.28 145.44 243.10 L 145.75 244.05 C 146.03 244.87 146.91 245.32 147.73 245.05 C 148.55 244.78 148.99 243.89 148.72 243.08 Z M 148.38 242.06 L 148.04 241.13 C 147.74 240.32 146.84 239.91 146.03 240.21 C 145.22 240.51 144.81 241.41 145.11 242.21 L 145.46 243.15 C 145.76 243.96 146.66 244.37 147.46 244.07 C 148.27 243.77 148.68 242.87 148.38 242.06 Z M 148.02 241.08 L 147.64 240.14 C 147.31 239.34 146.40 238.96 145.60 239.29 C 144.80 239.61 144.42 240.52 144.74 241.32 L 145.13 242.26 C 145.45 243.06 146.36 243.44 147.16 243.12 C 147.96 242.79 148.34 241.88 148.02 241.08 Z M 147.62 240.10 L 147.21 239.18 C 146.86 238.39 145.94 238.04 145.15 238.39 C 144.36 238.74 144.01 239.66 144.36 240.45 L 144.76 241.37 C 145.11 242.15 146.04 242.51 146.83 242.16 C 147.61 241.81 147.97 240.88 147.62 240.10 Z M 147.19 239.13 L 146.74 238.23 C 146.37 237.45 145.43 237.13 144.66 237.51 C 143.88 237.89 143.56 238.82 143.94 239.59 L 144.38 240.50 C 144.76 241.27 145.69 241.60 146.47 241.22 C 147.24 240.84 147.56 239.91 147.19 239.13 Z M 146.72 238.18 L 146.25 237.30 C 145.85 236.54 144.90 236.25 144.14 236.66 C 143.38 237.06 143.09 238.01 143.50 238.77 L 143.96 239.64 C 144.37 240.40 145.31 240.69 146.07 240.29 C 146.84 239.88 147.12 238.94 146.72 238.18 Z M 146.23 237.26 L 145.74 236.40 C 145.32 235.65 144.36 235.39 143.61 235.82 C 142.86 236.25 142.60 237.20 143.03 237.95 L 143.52 238.81 C 143.95 239.56 144.90 239.82 145.65 239.39 C 146.40 238.96 146.66 238.01 146.23 237.26 Z M 145.73 236.38 L 145.25 235.57 C 144.81 234.83 143.85 234.59 143.11 235.03 C 142.37 235.47 142.12 236.43 142.56 237.17 L 143.04 237.97 C 143.48 238.71 144.44 238.96 145.18 238.52 C 145.92 238.08 146.17 237.12 145.73 236.38 Z M 145.24 235.56 L 144.83 234.88 C 144.38 234.14 143.42 233.91 142.68 234.36 C 141.94 234.81 141.71 235.77 142.16 236.51 L 142.57 237.18 C 143.02 237.92 143.98 238.15 144.72 237.70 C 145.45 237.25 145.69 236.29 145.24 235.56 Z M 144.82 234.86 L 144.35 234.11 C 143.89 233.38 142.93 233.16 142.20 233.62 C 141.46 234.08 141.24 235.04 141.70 235.77 L 142.17 236.52 C 142.63 237.25 143.59 237.47 144.32 237.02 C 145.05 236.56 145.27 235.60 144.82 234.86 Z M 144.34 234.10 L 143.78 233.23 C 143.32 232.51 142.35 232.29 141.63 232.76 C 140.90 233.22 140.69 234.19 141.15 234.92 L 141.71 235.78 C 142.17 236.51 143.14 236.72 143.87 236.26 C 144.59 235.79 144.80 234.83 144.34 234.10 Z M 143.77 233.22 L 143.10 232.19 C 142.63 231.47 141.66 231.27 140.94 231.74 C 140.22 232.21 140.02 233.18 140.49 233.90 L 141.16 234.93 C 141.63 235.65 142.60 235.85 143.32 235.38 C 144.04 234.91 144.25 233.94 143.77 233.22 Z M 143.10 232.18 L 142.55 231.35 C 142.07 230.63 141.10 230.44 140.38 230.91 C 139.66 231.39 139.47 232.36 139.94 233.08 L 140.49 233.91 C 140.97 234.63 141.94 234.82 142.66 234.35 C 143.38 233.87 143.57 232.90 143.10 232.18 Z M 142.54 231.35 L 142.07 230.63 C 141.59 229.91 140.62 229.72 139.90 230.20 C 139.18 230.68 138.99 231.64 139.47 232.36 L 139.94 233.08 C 140.42 233.80 141.39 233.99 142.11 233.51 C 142.83 233.03 143.02 232.07 142.54 231.35 Z M 142.06 230.63 L 141.55 229.86 C 141.07 229.14 140.10 228.95 139.39 229.43 C 138.67 229.91 138.48 230.88 138.95 231.59 L 139.47 232.36 C 139.95 233.08 140.92 233.27 141.63 232.79 C 142.35 232.32 142.54 231.35 142.06 230.63 Z M 141.55 229.86 L 141.01 229.05 C 140.53 228.33 139.56 228.14 138.84 228.61 C 138.13 229.09 137.93 230.06 138.41 230.78 L 138.95 231.59 C 139.43 232.31 140.40 232.50 141.12 232.03 C 141.84 231.55 142.03 230.58 141.55 229.86 Z M 141.01 229.05 L 140.44 228.20 C 139.96 227.48 139.00 227.28 138.28 227.76 C 137.56 228.24 137.36 229.21 137.84 229.92 L 138.41 230.78 C 138.89 231.50 139.86 231.69 140.57 231.21 C 141.29 230.74 141.49 229.77 141.01 229.05 Z M 140.44 228.20 L 139.86 227.31 C 139.38 226.60 138.41 226.40 137.70 226.87 C 136.98 227.35 136.78 228.32 137.26 229.04 L 137.84 229.92 C 138.32 230.64 139.28 230.84 140.00 230.36 C 140.72 229.89 140.92 228.92 140.44 228.20 Z M 139.86 227.32 L 139.27 226.41 C 138.79 225.69 137.82 225.49 137.10 225.96 C 136.38 226.44 136.18 227.41 136.66 228.13 L 137.25 229.03 C 137.73 229.75 138.69 229.95 139.41 229.48 C 140.14 229.01 140.34 228.04 139.86 227.32 Z M 139.27 226.42 L 138.67 225.49 C 138.20 224.77 137.23 224.57 136.51 225.04 C 135.78 225.51 135.58 226.47 136.05 227.20 L 136.65 228.12 C 137.12 228.84 138.09 229.05 138.81 228.58 C 139.54 228.11 139.74 227.14 139.27 226.42 Z M 138.67 225.50 L 138.07 224.56 C 137.60 223.84 136.64 223.63 135.91 224.10 C 135.19 224.56 134.98 225.53 135.44 226.25 L 136.05 227.19 C 136.51 227.91 137.48 228.12 138.20 227.66 C 138.93 227.19 139.14 226.22 138.67 225.50 Z M 138.07 224.57 L 137.47 223.63 C 137.01 222.90 136.04 222.68 135.32 223.15 C 134.59 223.61 134.37 224.57 134.84 225.30 L 135.44 226.25 C 135.90 226.97 136.87 227.19 137.59 226.73 C 138.32 226.26 138.54 225.30 138.07 224.57 Z M 137.48 223.63 L 136.89 222.69 C 136.43 221.96 135.46 221.74 134.73 222.20 C 134.00 222.66 133.78 223.63 134.24 224.36 L 134.83 225.29 C 135.29 226.02 136.26 226.24 136.99 225.79 C 137.72 225.33 137.94 224.36 137.48 223.63 Z M 136.89 222.70 L 136.32 221.78 C 135.86 221.05 134.90 220.82 134.17 221.28 C 133.43 221.73 133.21 222.70 133.66 223.43 L 134.24 224.35 C 134.69 225.08 135.66 225.31 136.39 224.85 C 137.12 224.39 137.35 223.43 136.89 222.70 Z M 136.32 221.78 L 135.77 220.89 C 135.31 220.15 134.35 219.93 133.62 220.38 C 132.88 220.83 132.66 221.79 133.11 222.53 L 133.66 223.42 C 134.11 224.16 135.08 224.38 135.81 223.93 C 136.54 223.48 136.77 222.52 136.32 221.78 Z M 135.77 220.89 L 135.24 220.03 C 134.79 219.30 133.83 219.06 133.10 219.51 C 132.36 219.96 132.13 220.93 132.58 221.66 L 133.11 222.52 C 133.56 223.26 134.52 223.49 135.25 223.04 C 135.99 222.59 136.22 221.63 135.77 220.89 Z M 135.24 220.03 L 134.75 219.22 C 134.30 218.48 133.34 218.25 132.60 218.69 C 131.87 219.14 131.63 220.10 132.08 220.84 L 132.58 221.66 C 133.02 222.39 133.98 222.63 134.72 222.18 C 135.46 221.73 135.69 220.77 135.24 220.03 Z M 134.75 219.22 L 134.29 218.46 C 133.84 217.72 132.88 217.48 132.15 217.93 C 131.41 218.37 131.17 219.33 131.62 220.07 L 132.08 220.84 C 132.52 221.57 133.48 221.81 134.22 221.37 C 134.96 220.92 135.20 219.96 134.75 219.22 Z M 134.29 218.46 L 133.87 217.76 C 133.43 217.02 132.47 216.78 131.73 217.23 C 130.99 217.67 130.75 218.63 131.19 219.37 L 131.61 220.07 C 132.06 220.81 133.02 221.05 133.76 220.60 C 134.50 220.16 134.74 219.20 134.29 218.46 Z M 133.87 217.77 L 133.25 216.73 C 132.81 215.98 131.86 215.74 131.11 216.18 C 130.37 216.62 130.13 217.58 130.57 218.32 L 131.19 219.36 C 131.63 220.11 132.59 220.35 133.33 219.91 C 134.07 219.47 134.32 218.51 133.87 217.77 Z M 133.26 216.73 L 132.69 215.76 C 132.25 215.02 131.29 214.77 130.55 215.21 C 129.81 215.64 129.56 216.60 130.00 217.34 L 130.57 218.32 C 131.01 219.06 131.96 219.31 132.71 218.87 C 133.45 218.43 133.70 217.48 133.26 216.73 Z M 132.69 215.77 L 132.23 214.97 C 131.79 214.23 130.84 213.97 130.09 214.40 C 129.35 214.84 129.09 215.79 129.53 216.54 L 129.99 217.34 C 130.42 218.08 131.38 218.34 132.13 217.90 C 132.87 217.47 133.12 216.51 132.69 215.77 Z M 132.23 214.98 L 131.83 214.28 C 131.40 213.54 130.45 213.28 129.70 213.71 C 128.95 214.14 128.70 215.09 129.13 215.84 L 129.52 216.53 C 129.95 217.28 130.91 217.54 131.66 217.11 C 132.40 216.68 132.66 215.73 132.23 214.98 Z M 131.84 214.29 L 131.40 213.53 C 130.97 212.78 130.02 212.52 129.27 212.95 C 128.52 213.37 128.26 214.33 128.69 215.08 L 129.12 215.84 C 129.55 216.58 130.51 216.84 131.25 216.42 C 132.00 215.99 132.26 215.04 131.84 214.29 Z M 131.40 213.52 L 130.90 212.66 C 130.47 211.91 129.52 211.65 128.77 212.08 C 128.02 212.51 127.77 213.47 128.20 214.21 L 128.69 215.08 C 129.12 215.83 130.07 216.08 130.82 215.66 C 131.57 215.23 131.83 214.27 131.40 213.52 Z M 130.90 212.65 L 130.40 211.79 C 129.96 211.04 129.01 210.79 128.26 211.22 C 127.52 211.65 127.26 212.61 127.70 213.35 L 128.20 214.22 C 128.63 214.97 129.59 215.22 130.33 214.79 C 131.08 214.35 131.33 213.40 130.90 212.65 Z M 130.39 211.78 L 129.88 210.91 C 129.44 210.17 128.48 209.93 127.74 210.37 C 127.00 210.81 126.75 211.76 127.19 212.51 L 127.70 213.37 C 128.14 214.11 129.10 214.35 129.84 213.91 C 130.58 213.48 130.83 212.52 130.39 211.78 Z M 129.87 210.90 L 129.36 210.05 C 128.92 209.32 127.96 209.08 127.22 209.52 C 126.48 209.97 126.24 210.93 126.69 211.67 L 127.20 212.52 C 127.65 213.26 128.61 213.49 129.34 213.05 C 130.08 212.60 130.32 211.64 129.87 210.90 Z M 129.36 210.05 L 128.84 209.19 C 128.39 208.46 127.43 208.22 126.69 208.67 C 125.96 209.12 125.72 210.08 126.17 210.82 L 126.69 211.67 C 127.14 212.41 128.10 212.64 128.84 212.19 C 129.57 211.75 129.81 210.78 129.36 210.05 Z M 128.84 209.20 L 128.31 208.33 C 127.87 207.60 126.91 207.36 126.17 207.81 C 125.43 208.26 125.20 209.22 125.65 209.95 L 126.17 210.82 C 126.62 211.55 127.58 211.79 128.31 211.34 C 129.05 210.89 129.29 209.93 128.84 209.20 Z M 128.32 208.34 L 127.88 207.61 C 127.43 206.87 126.47 206.63 125.73 207.08 C 124.99 207.52 124.76 208.48 125.20 209.22 L 125.64 209.95 C 126.09 210.69 127.05 210.93 127.79 210.48 C 128.52 210.03 128.76 209.08 128.32 208.34 Z M 127.87 207.60 L 127.40 206.82 C 126.95 206.09 125.99 205.85 125.25 206.30 C 124.52 206.75 124.28 207.71 124.73 208.45 L 125.21 209.22 C 125.65 209.96 126.61 210.20 127.35 209.75 C 128.09 209.30 128.32 208.34 127.87 207.60 Z M 127.39 206.81 L 126.85 205.93 C 126.39 205.20 125.43 204.98 124.70 205.43 C 123.96 205.89 123.74 206.85 124.20 207.58 L 124.74 208.46 C 125.20 209.19 126.16 209.42 126.89 208.96 C 127.62 208.50 127.85 207.54 127.39 206.81 Z M 126.83 205.92 L 126.18 204.90 C 125.72 204.18 124.75 203.97 124.03 204.43 C 123.30 204.90 123.09 205.86 123.56 206.59 L 124.21 207.60 C 124.67 208.33 125.64 208.54 126.36 208.07 C 127.09 207.61 127.30 206.64 126.83 205.92 Z M 126.17 204.89 L 125.67 204.12 C 125.19 203.40 124.23 203.20 123.50 203.67 C 122.78 204.14 122.59 205.11 123.06 205.83 L 123.57 206.60 C 124.04 207.32 125.01 207.52 125.73 207.05 C 126.45 206.58 126.65 205.61 126.17 204.89 Z M 125.66 204.10 L 125.10 203.28 C 124.62 202.56 123.65 202.37 122.94 202.85 C 122.22 203.34 122.03 204.31 122.51 205.02 L 123.07 205.85 C 123.55 206.56 124.52 206.75 125.23 206.27 C 125.95 205.79 126.14 204.82 125.66 204.10 Z M 125.10 203.27 L 124.51 202.41 C 124.02 201.70 123.05 201.52 122.34 202.01 C 121.63 202.50 121.45 203.47 121.94 204.18 L 122.52 205.03 C 123.01 205.74 123.98 205.92 124.69 205.44 C 125.40 204.95 125.58 203.98 125.10 203.27 Z M 124.50 202.40 L 123.89 201.54 C 123.40 200.84 122.42 200.67 121.72 201.17 C 121.01 201.66 120.85 202.64 121.34 203.34 L 121.95 204.20 C 122.44 204.90 123.42 205.07 124.12 204.57 C 124.83 204.08 124.99 203.10 124.50 202.40 Z M 123.88 201.52 L 123.28 200.69 C 122.77 200.00 121.79 199.84 121.10 200.35 C 120.40 200.86 120.25 201.83 120.75 202.53 L 121.36 203.36 C 121.86 204.06 122.84 204.21 123.54 203.70 C 124.24 203.20 124.39 202.22 123.88 201.52 Z M 123.26 200.67 L 122.66 199.89 C 122.14 199.20 121.16 199.06 120.48 199.59 C 119.79 200.11 119.66 201.09 120.18 201.77 L 120.77 202.56 C 121.29 203.24 122.27 203.38 122.96 202.86 C 123.65 202.34 123.78 201.36 123.26 200.67 Z M 122.64 199.85 L 121.93 198.97 C 121.39 198.29 120.40 198.19 119.73 198.73 C 119.06 199.27 118.95 200.25 119.49 200.92 L 120.20 201.81 C 120.74 202.48 121.73 202.59 122.40 202.05 C 123.07 201.51 123.18 200.52 122.64 199.85 Z M 121.89 198.93 L 121.22 198.14 C 120.66 197.49 119.67 197.41 119.02 197.97 C 118.36 198.53 118.29 199.52 118.85 200.17 L 119.52 200.96 C 120.08 201.61 121.07 201.69 121.72 201.13 C 122.38 200.57 122.46 199.58 121.89 198.93 Z M 121.19 198.11 L 120.55 197.39 C 119.97 196.76 118.98 196.71 118.34 197.28 C 117.70 197.86 117.65 198.85 118.23 199.49 L 118.88 200.20 C 119.46 200.84 120.44 200.89 121.08 200.31 C 121.72 199.74 121.77 198.75 121.19 198.11 Z M 120.53 197.37 L 119.90 196.70 C 119.30 196.07 118.32 196.04 117.69 196.63 C 117.06 197.22 117.03 198.21 117.62 198.84 L 118.25 199.51 C 118.84 200.14 119.83 200.17 120.46 199.58 C 121.09 198.99 121.12 198.00 120.53 197.37 Z M 119.89 196.69 L 119.48 196.27 C 118.89 195.65 117.90 195.62 117.27 196.22 C 116.65 196.81 116.63 197.80 117.22 198.42 L 117.63 198.85 C 118.22 199.47 119.21 199.50 119.84 198.90 C 120.46 198.31 120.48 197.32 119.89 196.69 Z"
      fill="black"
      fill-rule="nonzero" /><path d="M 145.53 243.32 L 144.40 244.17 C 143.71 244.69 143.57 245.66 144.09 246.35 C 144.60 247.05 145.58 247.19 146.27 246.67 L 147.40 245.82 C 148.09 245.31 148.23 244.33 147.72 243.64 C 147.20 242.95 146.22 242.81 145.53 243.32 Z M 144.42 244.16 L 143.44 244.87 C 142.74 245.38 142.59 246.35 143.09 247.05 C 143.60 247.75 144.58 247.90 145.28 247.39 L 146.25 246.68 C 146.95 246.18 147.11 245.20 146.60 244.50 C 146.09 243.80 145.11 243.65 144.42 244.16 Z M 143.50 244.83 L 142.83 245.27 C 142.11 245.74 141.91 246.71 142.38 247.43 C 142.86 248.15 143.82 248.35 144.54 247.88 L 145.22 247.44 C 145.94 246.96 146.14 245.99 145.66 245.27 C 145.19 244.55 144.22 244.35 143.50 244.83 Z M 143.45 245.03 L 143.23 245.06 C 142.38 245.20 141.80 245.99 141.93 246.85 C 142.06 247.70 142.86 248.28 143.71 248.15 L 143.93 248.12 C 144.78 247.98 145.36 247.19 145.23 246.33 C 145.10 245.48 144.30 244.90 143.45 245.03 Z M 144.73 247.53 L 145.09 247.05 C 145.60 246.35 145.45 245.38 144.75 244.87 C 144.06 244.36 143.08 244.51 142.57 245.20 L 142.21 245.68 C 141.70 246.38 141.86 247.36 142.55 247.87 C 143.25 248.38 144.22 248.23 144.73 247.53 Z M 145.00 247.15 L 145.76 246.28 C 146.33 245.64 146.27 244.65 145.62 244.08 C 144.97 243.51 143.98 243.58 143.42 244.23 L 142.65 245.10 C 142.09 245.74 142.15 246.73 142.80 247.30 C 143.45 247.87 144.43 247.80 145.00 247.15 Z M 145.76 246.28 L 146.71 245.20 C 147.28 244.56 147.22 243.57 146.57 243.00 C 145.92 242.43 144.93 242.50 144.36 243.14 L 143.42 244.23 C 142.85 244.87 142.91 245.86 143.56 246.43 C 144.21 247.00 145.19 246.93 145.76 246.28 Z M 146.73 245.18 L 147.40 244.38 C 147.96 243.72 147.87 242.73 147.21 242.18 C 146.55 241.63 145.57 241.71 145.01 242.37 L 144.34 243.17 C 143.79 243.83 143.87 244.81 144.53 245.37 C 145.19 245.92 146.18 245.84 146.73 245.18 Z M 147.42 244.36 L 148.08 243.55 C 148.62 242.88 148.52 241.90 147.85 241.35 C 147.18 240.81 146.19 240.91 145.65 241.58 L 145.00 242.39 C 144.45 243.06 144.56 244.05 145.23 244.59 C 145.90 245.13 146.88 245.03 147.42 244.36 Z M 148.09 243.53 L 148.72 242.73 C 149.25 242.06 149.13 241.07 148.46 240.54 C 147.78 240.01 146.80 240.13 146.26 240.80 L 145.64 241.60 C 145.10 242.28 145.22 243.26 145.90 243.79 C 146.58 244.33 147.56 244.21 148.09 243.53 Z M 148.73 242.72 L 149.32 241.95 C 149.84 241.26 149.71 240.28 149.03 239.76 C 148.35 239.24 147.37 239.37 146.84 240.05 L 146.25 240.82 C 145.73 241.50 145.86 242.48 146.54 243.01 C 147.23 243.53 148.21 243.40 148.73 242.72 Z M 149.33 241.94 L 149.91 241.16 C 150.42 240.47 150.28 239.49 149.59 238.98 C 148.90 238.46 147.93 238.60 147.41 239.29 L 146.83 240.06 C 146.31 240.75 146.45 241.73 147.15 242.25 C 147.84 242.77 148.81 242.63 149.33 241.94 Z M 149.92 241.15 L 150.55 240.29 C 151.06 239.59 150.91 238.61 150.21 238.11 C 149.52 237.60 148.54 237.75 148.03 238.44 L 147.40 239.31 C 146.89 240.00 147.04 240.98 147.74 241.49 C 148.43 242.00 149.41 241.85 149.92 241.15 Z M 150.56 240.28 L 151.13 239.48 C 151.63 238.78 151.47 237.80 150.77 237.30 C 150.07 236.80 149.10 236.96 148.59 237.66 L 148.02 238.45 C 147.52 239.15 147.68 240.13 148.38 240.63 C 149.08 241.14 150.06 240.98 150.56 240.28 Z M 151.13 239.47 L 151.68 238.71 C 152.18 238.01 152.01 237.03 151.31 236.53 C 150.61 236.03 149.63 236.19 149.13 236.90 L 148.59 237.66 C 148.09 238.37 148.25 239.34 148.96 239.84 C 149.66 240.34 150.63 240.18 151.13 239.47 Z M 151.68 238.71 L 152.23 237.94 C 152.73 237.24 152.57 236.26 151.87 235.76 C 151.16 235.26 150.19 235.42 149.69 236.12 L 149.14 236.89 C 148.64 237.60 148.80 238.57 149.50 239.07 C 150.20 239.57 151.18 239.41 151.68 238.71 Z M 152.22 237.94 L 152.80 237.15 C 153.30 236.45 153.14 235.48 152.44 234.97 C 151.74 234.47 150.77 234.63 150.26 235.33 L 149.69 236.12 C 149.19 236.82 149.35 237.79 150.05 238.30 C 150.74 238.80 151.72 238.64 152.22 237.94 Z M 152.79 237.15 L 153.38 236.34 C 153.89 235.64 153.73 234.66 153.03 234.16 C 152.34 233.65 151.36 233.81 150.85 234.51 L 150.26 235.32 C 149.76 236.02 149.91 237.00 150.61 237.50 C 151.31 238.01 152.29 237.85 152.79 237.15 Z M 153.38 236.34 L 154.00 235.49 C 154.50 234.79 154.34 233.82 153.65 233.31 C 152.95 232.81 151.97 232.96 151.47 233.66 L 150.85 234.51 C 150.35 235.21 150.51 236.18 151.20 236.69 C 151.90 237.19 152.88 237.04 153.38 236.34 Z M 154.00 235.49 L 154.55 234.73 C 155.05 234.03 154.90 233.05 154.20 232.55 C 153.50 232.04 152.52 232.20 152.02 232.90 L 151.47 233.66 C 150.96 234.36 151.12 235.34 151.82 235.84 C 152.51 236.35 153.49 236.19 154.00 235.49 Z M 154.55 234.73 L 155.12 233.94 C 155.62 233.25 155.47 232.27 154.77 231.76 C 154.07 231.26 153.10 231.41 152.59 232.11 L 152.02 232.90 C 151.51 233.60 151.67 234.57 152.37 235.08 C 153.06 235.58 154.04 235.43 154.55 234.73 Z M 155.11 233.95 L 155.71 233.13 C 156.22 232.43 156.07 231.46 155.37 230.95 C 154.67 230.44 153.70 230.59 153.19 231.29 L 152.59 232.11 C 152.08 232.80 152.24 233.78 152.93 234.29 C 153.63 234.80 154.61 234.64 155.11 233.95 Z M 155.71 233.14 L 156.33 232.29 C 156.85 231.59 156.70 230.61 156.01 230.10 C 155.31 229.59 154.34 229.74 153.82 230.43 L 153.19 231.28 C 152.68 231.98 152.83 232.95 153.52 233.47 C 154.22 233.98 155.19 233.83 155.71 233.14 Z M 156.33 232.29 L 156.91 231.51 C 157.43 230.82 157.29 229.84 156.60 229.33 C 155.91 228.81 154.93 228.95 154.41 229.64 L 153.83 230.42 C 153.31 231.11 153.45 232.09 154.14 232.61 C 154.83 233.12 155.81 232.98 156.33 232.29 Z M 156.91 231.52 L 157.50 230.73 C 158.02 230.05 157.88 229.07 157.20 228.55 C 156.51 228.03 155.53 228.16 155.01 228.85 L 154.42 229.63 C 153.90 230.32 154.03 231.30 154.72 231.82 C 155.41 232.34 156.39 232.20 156.91 231.52 Z M 157.50 230.74 L 158.11 229.94 C 158.63 229.25 158.50 228.27 157.81 227.75 C 157.12 227.23 156.14 227.36 155.62 228.05 L 155.01 228.85 C 154.49 229.53 154.62 230.51 155.31 231.04 C 156.00 231.56 156.98 231.42 157.50 230.74 Z M 158.10 229.94 L 158.72 229.13 C 159.25 228.44 159.12 227.46 158.43 226.94 C 157.75 226.42 156.77 226.55 156.24 227.23 L 155.62 228.05 C 155.10 228.73 155.23 229.71 155.92 230.23 C 156.60 230.76 157.58 230.63 158.10 229.94 Z M 158.72 229.13 L 159.35 228.31 C 159.87 227.63 159.74 226.65 159.06 226.12 C 158.38 225.60 157.40 225.73 156.87 226.41 L 156.24 227.23 C 155.72 227.92 155.85 228.90 156.53 229.42 C 157.22 229.95 158.20 229.82 158.72 229.13 Z M 159.35 228.31 L 159.95 227.54 C 160.47 226.85 160.34 225.87 159.66 225.35 C 158.97 224.82 157.99 224.95 157.47 225.64 L 156.87 226.41 C 156.35 227.10 156.48 228.08 157.16 228.60 C 157.85 229.13 158.83 229.00 159.35 228.31 Z M 159.94 227.54 L 160.54 226.76 C 161.07 226.07 160.94 225.09 160.26 224.57 C 159.57 224.04 158.59 224.17 158.07 224.86 L 157.47 225.64 C 156.94 226.32 157.07 227.30 157.76 227.82 C 158.44 228.35 159.42 228.22 159.94 227.54 Z M 160.54 226.76 L 161.15 225.97 C 161.67 225.29 161.55 224.31 160.86 223.78 C 160.18 223.26 159.20 223.39 158.67 224.07 L 158.07 224.86 C 157.54 225.54 157.67 226.52 158.35 227.04 C 159.04 227.57 160.02 227.44 160.54 226.76 Z M 161.15 225.98 L 161.76 225.18 C 162.29 224.50 162.16 223.52 161.48 222.99 C 160.80 222.46 159.82 222.59 159.29 223.27 L 158.68 224.07 C 158.15 224.75 158.27 225.73 158.96 226.26 C 159.64 226.78 160.62 226.66 161.15 225.98 Z M 161.76 225.18 L 162.39 224.37 C 162.92 223.69 162.80 222.71 162.12 222.18 C 161.44 221.65 160.46 221.77 159.93 222.45 L 159.29 223.26 C 158.77 223.95 158.89 224.93 159.57 225.46 C 160.25 225.98 161.23 225.86 161.76 225.18 Z M 162.39 224.37 L 162.98 223.61 C 163.51 222.93 163.39 221.95 162.72 221.42 C 162.04 220.89 161.06 221.01 160.52 221.69 L 159.93 222.45 C 159.40 223.13 159.52 224.11 160.20 224.64 C 160.88 225.17 161.86 225.05 162.39 224.37 Z M 162.98 223.61 L 163.58 222.85 C 164.11 222.18 163.99 221.19 163.31 220.66 C 162.64 220.13 161.65 220.25 161.12 220.93 L 160.53 221.69 C 159.99 222.36 160.11 223.35 160.79 223.88 C 161.47 224.41 162.45 224.29 162.98 223.61 Z M 163.58 222.85 L 164.19 222.08 C 164.72 221.40 164.60 220.42 163.92 219.88 C 163.25 219.35 162.26 219.47 161.73 220.15 L 161.12 220.93 C 160.59 221.60 160.71 222.59 161.39 223.12 C 162.07 223.65 163.05 223.53 163.58 222.85 Z M 164.19 222.07 L 164.81 221.28 C 165.34 220.60 165.22 219.62 164.54 219.09 C 163.87 218.56 162.88 218.68 162.35 219.35 L 161.73 220.15 C 161.20 220.83 161.32 221.81 162.00 222.34 C 162.68 222.87 163.66 222.75 164.19 222.07 Z M 164.82 221.27 L 165.45 220.46 C 165.98 219.78 165.85 218.80 165.17 218.27 C 164.49 217.74 163.51 217.86 162.98 218.54 L 162.35 219.36 C 161.82 220.04 161.94 221.02 162.62 221.55 C 163.31 222.08 164.29 221.96 164.82 221.27 Z M 165.45 220.46 L 166.09 219.63 C 166.62 218.94 166.49 217.96 165.81 217.44 C 165.12 216.91 164.14 217.04 163.62 217.72 L 162.98 218.55 C 162.45 219.23 162.58 220.21 163.26 220.74 C 163.95 221.27 164.93 221.14 165.45 220.46 Z M 166.09 219.62 L 166.68 218.86 C 167.20 218.17 167.07 217.19 166.38 216.67 C 165.70 216.15 164.72 216.28 164.20 216.96 L 163.61 217.73 C 163.09 218.41 163.22 219.39 163.91 219.92 C 164.59 220.44 165.57 220.31 166.09 219.62 Z M 166.68 218.85 L 167.27 218.07 C 167.79 217.39 167.66 216.41 166.97 215.89 C 166.29 215.37 165.31 215.50 164.79 216.19 L 164.19 216.97 C 163.67 217.65 163.81 218.63 164.49 219.15 C 165.18 219.67 166.16 219.54 166.68 218.85 Z M 167.27 218.07 L 167.87 217.28 C 168.39 216.60 168.26 215.62 167.57 215.10 C 166.88 214.57 165.91 214.71 165.38 215.40 L 164.78 216.19 C 164.26 216.87 164.40 217.85 165.09 218.37 C 165.77 218.90 166.75 218.76 167.27 218.07 Z M 167.87 217.28 L 168.48 216.48 C 169.00 215.80 168.87 214.82 168.18 214.30 C 167.50 213.77 166.52 213.91 166.00 214.59 L 165.39 215.39 C 164.86 216.08 165.00 217.06 165.68 217.58 C 166.37 218.10 167.35 217.97 167.87 217.28 Z M 168.48 216.49 L 169.10 215.68 C 169.62 214.99 169.49 214.02 168.81 213.49 C 168.12 212.97 167.14 213.10 166.62 213.78 L 166.00 214.59 C 165.47 215.27 165.60 216.25 166.29 216.78 C 166.97 217.30 167.95 217.17 168.48 216.49 Z M 169.09 215.69 L 169.72 214.87 C 170.25 214.19 170.13 213.21 169.45 212.68 C 168.76 212.15 167.78 212.28 167.26 212.96 L 166.62 213.77 C 166.10 214.45 166.22 215.44 166.90 215.96 C 167.58 216.49 168.56 216.37 169.09 215.69 Z M 169.72 214.88 L 170.33 214.09 C 170.87 213.42 170.75 212.43 170.07 211.90 C 169.39 211.37 168.41 211.49 167.88 212.16 L 167.26 212.95 C 166.73 213.63 166.85 214.61 167.52 215.14 C 168.20 215.67 169.18 215.56 169.72 214.88 Z M 170.33 214.10 L 170.94 213.33 C 171.48 212.66 171.37 211.67 170.70 211.14 C 170.02 210.60 169.04 210.71 168.50 211.38 L 167.89 212.16 C 167.35 212.83 167.46 213.81 168.13 214.35 C 168.81 214.89 169.79 214.78 170.33 214.10 Z M 170.94 213.34 L 171.56 212.56 C 172.10 211.89 172.00 210.91 171.33 210.37 C 170.66 209.83 169.67 209.93 169.13 210.60 L 168.51 211.38 C 167.97 212.05 168.07 213.03 168.74 213.57 C 169.41 214.11 170.40 214.01 170.94 213.34 Z M 171.56 212.57 L 172.19 211.80 C 172.73 211.13 172.64 210.14 171.97 209.60 C 171.30 209.05 170.32 209.15 169.77 209.82 L 169.14 210.60 C 168.59 211.27 168.69 212.25 169.36 212.79 C 170.03 213.34 171.01 213.24 171.56 212.57 Z M 172.19 211.80 L 172.82 211.02 C 173.37 210.36 173.28 209.37 172.61 208.83 C 171.95 208.28 170.96 208.37 170.41 209.04 L 169.77 209.82 C 169.23 210.48 169.32 211.47 169.99 212.01 C 170.65 212.56 171.64 212.47 172.19 211.80 Z M 172.82 211.03 L 173.47 210.25 C 174.02 209.59 173.92 208.60 173.26 208.05 C 172.60 207.50 171.61 207.59 171.06 208.26 L 170.42 209.04 C 169.87 209.70 169.96 210.68 170.62 211.23 C 171.29 211.78 172.27 211.69 172.82 211.03 Z M 173.46 210.25 L 174.11 209.48 C 174.66 208.81 174.58 207.83 173.91 207.28 C 173.25 206.73 172.27 206.81 171.72 207.48 L 171.07 208.25 C 170.51 208.92 170.60 209.90 171.26 210.45 C 171.93 211.01 172.91 210.92 173.46 210.25 Z M 174.11 209.48 L 174.74 208.73 C 175.29 208.07 175.21 207.08 174.55 206.53 C 173.89 205.97 172.90 206.06 172.35 206.72 L 171.72 207.47 C 171.16 208.13 171.25 209.12 171.91 209.67 C 172.57 210.23 173.56 210.14 174.11 209.48 Z M 174.74 208.73 L 175.37 207.98 C 175.92 207.32 175.84 206.34 175.18 205.78 C 174.52 205.23 173.53 205.31 172.98 205.97 L 172.35 206.72 C 171.79 207.38 171.88 208.37 172.54 208.92 C 173.20 209.48 174.18 209.39 174.74 208.73 Z M 175.37 207.98 L 176.00 207.23 C 176.56 206.57 176.47 205.58 175.81 205.03 C 175.15 204.47 174.16 204.56 173.61 205.22 L 172.98 205.97 C 172.42 206.63 172.51 207.62 173.17 208.17 C 173.83 208.73 174.81 208.64 175.37 207.98 Z M 176.00 207.23 L 176.64 206.46 C 177.19 205.80 177.11 204.82 176.45 204.27 C 175.79 203.71 174.80 203.80 174.25 204.46 L 173.61 205.22 C 173.06 205.88 173.14 206.87 173.80 207.42 C 174.46 207.97 175.45 207.89 176.00 207.23 Z M 176.64 206.46 L 177.29 205.69 C 177.84 205.03 177.75 204.05 177.09 203.49 C 176.42 202.94 175.44 203.03 174.89 203.69 L 174.24 204.46 C 173.69 205.12 173.78 206.11 174.44 206.66 C 175.11 207.21 176.09 207.12 176.64 206.46 Z M 177.29 205.69 L 177.94 204.90 C 178.49 204.24 178.40 203.26 177.73 202.71 C 177.07 202.16 176.08 202.25 175.53 202.91 L 174.88 203.69 C 174.33 204.36 174.43 205.34 175.09 205.89 C 175.75 206.44 176.74 206.35 177.29 205.69 Z M 177.94 204.90 L 178.60 204.10 C 179.15 203.43 179.05 202.45 178.38 201.90 C 177.72 201.36 176.73 201.45 176.19 202.12 L 175.53 202.92 C 174.98 203.58 175.08 204.57 175.74 205.11 C 176.41 205.66 177.39 205.57 177.94 204.90 Z M 178.60 204.10 L 179.23 203.33 C 179.77 202.66 179.67 201.68 179.00 201.13 C 178.33 200.59 177.35 200.69 176.80 201.36 L 176.18 202.12 C 175.64 202.79 175.74 203.78 176.41 204.32 C 177.08 204.86 178.06 204.76 178.60 204.10 Z M 179.23 203.33 L 179.84 202.57 C 180.38 201.89 180.28 200.91 179.61 200.37 C 178.94 199.83 177.95 199.93 177.41 200.61 L 176.80 201.36 C 176.26 202.04 176.36 203.02 177.03 203.56 C 177.71 204.10 178.69 204.00 179.23 203.33 Z M 179.85 202.56 L 180.46 201.79 C 181.00 201.12 180.90 200.13 180.22 199.60 C 179.55 199.06 178.57 199.16 178.03 199.84 L 177.41 200.61 C 176.87 201.28 176.98 202.26 177.65 202.80 C 178.32 203.34 179.31 203.23 179.85 202.56 Z M 180.47 201.79 L 181.09 201.00 C 181.63 200.33 181.52 199.35 180.84 198.81 C 180.17 198.27 179.18 198.38 178.65 199.06 L 178.02 199.84 C 177.49 200.52 177.60 201.50 178.27 202.03 C 178.95 202.57 179.93 202.46 180.47 201.79 Z M 181.09 201.00 L 181.72 200.21 C 182.25 199.54 182.14 198.55 181.46 198.02 C 180.79 197.48 179.81 197.60 179.27 198.27 L 178.65 199.06 C 178.11 199.74 178.22 200.72 178.90 201.26 C 179.57 201.79 180.56 201.68 181.09 201.00 Z M 181.72 200.21 L 182.35 199.41 C 182.88 198.74 182.77 197.76 182.09 197.22 C 181.41 196.69 180.43 196.80 179.90 197.48 L 179.27 198.27 C 178.74 198.95 178.85 199.93 179.53 200.47 C 180.20 201.00 181.19 200.89 181.72 200.21 Z M 182.35 199.41 L 182.98 198.61 C 183.51 197.94 183.40 196.95 182.72 196.42 C 182.04 195.89 181.06 196.00 180.53 196.68 L 179.90 197.48 C 179.36 198.16 179.48 199.14 180.16 199.67 C 180.83 200.21 181.82 200.09 182.35 199.41 Z M 182.98 198.61 L 183.61 197.81 C 184.14 197.13 184.03 196.15 183.35 195.62 C 182.67 195.08 181.69 195.20 181.16 195.88 L 180.53 196.68 C 179.99 197.36 180.11 198.34 180.79 198.87 C 181.47 199.41 182.45 199.29 182.98 198.61 Z"
      fill="black"
      fill-rule="nonzero" /></svg>