<svg xmlns="http://www.w3.org/2000/svg" width="300" height="300" viewBox="0 0 300 300">
<path d="M 159.62 84.62 L 158.97 85.36 C 158.40 86.01 158.46 86.99 159.11 87.56 C 159.76 88.13 160.75 88.06 161.32 87.41 L 161.96 86.67 C 162.53 86.02 162.47 85.04 161.82 84.47 C 161.17 83.90 160.18 83.97 159.62 84.62 Z M 158.76 85.65 L 158.32 86.48 C 157.92 87.25 158.21 88.19 158.97 88.59 C 159.73 89.00 160.68 88.71 161.08 87.95 L 161.52 87.12 C 161.92 86.36 161.64 85.41 160.87 85.01 C 160.11 84.60 159.17 84.89 158.76 85.65 Z M 158.14 87.18 L 158.12 88.19 C 158.10 89.05 158.78 89.76 159.64 89.78 C 160.50 89.80 161.22 89.12 161.24 88.26 L 161.26 87.25 C 161.28 86.39 160.60 85.68 159.74 85.65 C 158.88 85.63 158.16 86.32 158.14 87.18 Z M 158.22 88.77 L 158.51 89.56 C 158.81 90.37 159.71 90.78 160.52 90.47 C 161.33 90.17 161.74 89.27 161.43 88.46 L 161.14 87.67 C 160.84 86.87 159.94 86.46 159.13 86.76 C 158.32 87.06 157.91 87.96 158.22 88.77 Z M 158.63 89.80 L 159.11 90.61 C 159.54 91.36 160.50 91.61 161.24 91.17 C 161.99 90.73 162.23 89.77 161.80 89.03 L 161.32 88.22 C 160.88 87.48 159.92 87.23 159.18 87.67 C 158.44 88.10 158.19 89.06 158.63 89.80 Z M 159.19 90.74 L 159.81 91.59 C 160.32 92.28 161.29 92.43 161.99 91.93 C 162.68 91.42 162.84 90.44 162.33 89.74 L 161.71 88.90 C 161.20 88.21 160.23 88.05 159.53 88.56 C 158.83 89.07 158.68 90.05 159.19 90.74 Z M 159.87 91.67 L 160.57 92.50 C 161.12 93.17 162.11 93.25 162.77 92.70 C 163.43 92.15 163.52 91.16 162.97 90.50 L 162.27 89.66 C 161.71 89.00 160.73 88.91 160.07 89.47 C 159.40 90.02 159.32 91.00 159.87 91.67 Z M 160.62 92.56 L 161.34 93.35 C 161.93 93.99 162.91 94.03 163.55 93.45 C 164.19 92.87 164.23 91.88 163.65 91.24 L 162.92 90.45 C 162.34 89.81 161.35 89.77 160.71 90.35 C 160.08 90.94 160.03 91.92 160.62 92.56 Z M 161.38 93.39 L 162.16 94.18 C 162.77 94.80 163.76 94.80 164.37 94.20 C 164.98 93.59 164.99 92.60 164.38 91.99 L 163.61 91.20 C 163.00 90.59 162.01 90.58 161.40 91.19 C 160.78 91.79 160.78 92.78 161.38 93.39 Z M 162.20 94.22 L 162.96 94.94 C 163.59 95.53 164.58 95.50 165.17 94.87 C 165.76 94.24 165.73 93.26 165.10 92.66 L 164.34 91.95 C 163.72 91.36 162.73 91.39 162.14 92.01 C 161.55 92.64 161.58 93.63 162.20 94.22 Z M 163.00 94.97 L 163.73 95.62 C 164.37 96.19 165.36 96.13 165.93 95.48 C 166.50 94.84 166.44 93.85 165.80 93.28 L 165.07 92.63 C 164.42 92.06 163.44 92.12 162.86 92.76 C 162.29 93.41 162.35 94.40 163.00 94.97 Z M 163.75 95.64 L 164.46 96.24 C 165.12 96.80 166.11 96.72 166.66 96.07 C 167.22 95.41 167.14 94.42 166.49 93.87 L 165.77 93.26 C 165.12 92.70 164.13 92.78 163.57 93.44 C 163.01 94.09 163.09 95.08 163.75 95.64 Z M 164.47 96.25 L 164.96 96.66 C 165.62 97.21 166.61 97.12 167.16 96.46 C 167.71 95.80 167.62 94.82 166.96 94.26 L 166.48 93.86 C 165.81 93.30 164.83 93.39 164.28 94.05 C 163.72 94.72 163.81 95.70 164.47 96.25 Z"
      fill="black"
      fill-rule="nonzero" /><path d="M 163.11 140.25 L 162.61 141.23 C 162.22 142.01 162.52 142.95 163.29 143.34 C 164.07 143.74 165.01 143.43 165.40 142.66 L 165.90 141.68 C 166.29 140.90 165.99 139.96 165.21 139.57 C 164.44 139.17 163.50 139.48 163.11 140.25 Z M 162.61 141.24 L 162.12 142.21 C 161.73 142.98 162.04 143.93 162.81 144.32 C 163.58 144.71 164.53 144.40 164.92 143.62 L 165.41 142.65 C 165.80 141.88 165.48 140.93 164.71 140.54 C 163.94 140.15 163.00 140.47 162.61 141.24 Z M 162.11 142.22 L 161.64 143.17 C 161.25 143.95 161.57 144.89 162.35 145.27 C 163.12 145.66 164.06 145.34 164.45 144.57 L 164.92 143.61 C 165.31 142.84 164.99 141.90 164.21 141.51 C 163.44 141.13 162.50 141.44 162.11 142.22 Z M 161.63 143.19 L 161.18 144.11 C 160.81 144.89 161.14 145.83 161.92 146.21 C 162.70 146.58 163.63 146.26 164.01 145.48 L 164.46 144.55 C 164.83 143.77 164.50 142.83 163.72 142.46 C 162.94 142.08 162.01 142.41 161.63 143.19 Z M 161.17 144.14 L 160.76 145.02 C 160.40 145.81 160.74 146.74 161.53 147.11 C 162.31 147.47 163.24 147.13 163.61 146.34 L 164.02 145.45 C 164.38 144.67 164.04 143.73 163.26 143.37 C 162.47 143.01 161.54 143.35 161.17 144.14 Z M 160.75 145.06 L 160.38 145.90 C 160.03 146.69 160.40 147.62 161.19 147.97 C 161.98 148.31 162.91 147.95 163.25 147.16 L 163.62 146.31 C 163.97 145.52 163.61 144.59 162.81 144.25 C 162.02 143.90 161.09 144.26 160.75 145.06 Z M 160.36 145.94 L 160.04 146.74 C 159.72 147.54 160.11 148.45 160.92 148.78 C 161.72 149.10 162.63 148.71 162.96 147.90 L 163.27 147.11 C 163.60 146.31 163.20 145.39 162.40 145.07 C 161.60 144.75 160.68 145.14 160.36 145.94 Z M 160.01 146.81 L 159.64 147.89 C 159.36 148.71 159.80 149.61 160.63 149.89 C 161.45 150.17 162.34 149.73 162.62 148.91 L 162.99 147.82 C 163.27 147.00 162.83 146.11 162.01 145.83 C 161.18 145.55 160.29 145.99 160.01 146.81 Z M 159.60 148.01 L 159.34 149.03 C 159.13 149.88 159.63 150.74 160.48 150.95 C 161.32 151.17 162.18 150.66 162.40 149.82 L 162.66 148.79 C 162.88 147.95 162.37 147.09 161.52 146.87 C 160.68 146.65 159.82 147.16 159.60 148.01 Z M 159.31 149.16 L 159.15 150.09 C 159.00 150.96 159.58 151.77 160.45 151.92 C 161.31 152.07 162.13 151.49 162.27 150.62 L 162.43 149.69 C 162.58 148.83 162.00 148.01 161.14 147.86 C 160.27 147.71 159.45 148.30 159.31 149.16 Z M 159.13 150.20 L 159.04 151.09 C 158.95 151.96 159.59 152.74 160.47 152.83 C 161.34 152.92 162.12 152.28 162.21 151.40 L 162.30 150.52 C 162.38 149.64 161.74 148.86 160.87 148.77 C 159.99 148.69 159.21 149.33 159.13 150.20 Z M 159.03 151.16 L 158.98 152.06 C 158.93 152.94 159.61 153.70 160.49 153.75 C 161.37 153.79 162.12 153.12 162.17 152.24 L 162.22 151.33 C 162.27 150.45 161.59 149.70 160.71 149.65 C 159.83 149.60 159.08 150.28 159.03 151.16 Z M 158.98 152.10 L 158.95 153.07 C 158.92 153.95 159.62 154.68 160.50 154.71 C 161.38 154.74 162.12 154.04 162.14 153.16 L 162.17 152.20 C 162.20 151.32 161.50 150.58 160.62 150.55 C 159.74 150.53 159.00 151.22 158.98 152.10 Z M 158.95 153.10 L 158.94 154.09 C 158.93 154.97 159.64 155.69 160.52 155.70 C 161.40 155.71 162.12 155.00 162.13 154.12 L 162.14 153.13 C 162.15 152.25 161.44 151.53 160.56 151.52 C 159.68 151.51 158.96 152.22 158.95 153.10 Z M 158.94 154.11 L 158.95 155.13 C 158.95 156.01 159.66 156.72 160.54 156.72 C 161.42 156.72 162.13 156.00 162.13 155.12 L 162.13 154.10 C 162.12 153.22 161.41 152.51 160.53 152.51 C 159.65 152.52 158.94 153.23 158.94 154.11 Z M 158.95 155.15 L 158.96 156.17 C 158.97 157.05 159.69 157.75 160.57 157.74 C 161.45 157.73 162.15 157.01 162.14 156.13 L 162.13 155.11 C 162.12 154.23 161.39 153.53 160.52 153.54 C 159.64 153.55 158.94 154.27 158.95 155.15 Z M 158.96 156.18 L 158.98 157.12 C 159.00 158.00 159.72 158.70 160.60 158.68 C 161.48 158.66 162.18 157.94 162.16 157.06 L 162.14 156.12 C 162.12 155.24 161.40 154.55 160.52 154.56 C 159.64 154.58 158.94 155.31 158.96 156.18 Z M 158.98 157.14 L 159.01 158.11 C 159.04 158.99 159.77 159.68 160.65 159.65 C 161.52 159.62 162.21 158.89 162.19 158.01 L 162.16 157.04 C 162.13 156.17 161.40 155.48 160.52 155.50 C 159.65 155.53 158.96 156.26 158.98 157.14 Z M 159.01 158.13 L 159.05 159.14 C 159.09 160.01 159.83 160.69 160.71 160.66 C 161.58 160.62 162.26 159.88 162.23 159.00 L 162.19 158.00 C 162.15 157.12 161.41 156.44 160.53 156.48 C 159.66 156.51 158.97 157.25 159.01 158.13 Z M 159.05 159.16 L 159.11 160.21 C 159.16 161.08 159.91 161.75 160.79 161.70 C 161.67 161.65 162.34 160.90 162.29 160.03 L 162.23 158.98 C 162.18 158.10 161.43 157.43 160.55 157.48 C 159.67 157.53 159.01 158.28 159.05 159.16 Z M 159.12 160.23 L 159.19 161.25 C 159.25 162.12 160.01 162.78 160.89 162.72 C 161.76 162.65 162.42 161.89 162.36 161.02 L 162.28 160.00 C 162.22 159.13 161.46 158.47 160.59 158.53 C 159.71 158.60 159.05 159.36 159.12 160.23 Z M 159.19 161.27 L 159.27 162.21 C 159.35 163.08 160.12 163.73 160.99 163.65 C 161.87 163.58 162.51 162.81 162.44 161.93 L 162.36 161.00 C 162.28 160.12 161.51 159.48 160.64 159.55 C 159.76 159.63 159.12 160.40 159.19 161.27 Z M 159.27 162.23 L 159.37 163.19 C 159.45 164.07 160.23 164.71 161.10 164.62 C 161.98 164.54 162.61 163.76 162.53 162.89 L 162.44 161.92 C 162.35 161.05 161.57 160.41 160.70 160.49 C 159.83 160.58 159.19 161.35 159.27 162.23 Z M 159.37 163.21 L 159.48 164.20 C 159.57 165.07 160.35 165.71 161.22 165.61 C 162.09 165.52 162.73 164.74 162.63 163.87 L 162.53 162.87 C 162.44 162.00 161.65 161.37 160.78 161.46 C 159.91 161.55 159.28 162.33 159.37 163.21 Z M 159.48 164.21 L 159.59 165.23 C 159.69 166.11 160.47 166.73 161.34 166.64 C 162.22 166.54 162.84 165.75 162.75 164.88 L 162.63 163.86 C 162.54 162.99 161.75 162.36 160.88 162.46 C 160.01 162.56 159.38 163.34 159.48 164.21 Z M 159.59 165.24 L 159.71 166.29 C 159.81 167.16 160.60 167.78 161.47 167.68 C 162.34 167.58 162.97 166.80 162.87 165.92 L 162.74 164.88 C 162.64 164.01 161.86 163.38 160.99 163.48 C 160.12 163.58 159.49 164.37 159.59 165.24 Z M 159.71 166.29 L 159.83 167.29 C 159.93 168.16 160.72 168.78 161.59 168.68 C 162.46 168.58 163.08 167.79 162.98 166.92 L 162.86 165.92 C 162.76 165.05 161.97 164.43 161.10 164.53 C 160.23 164.63 159.61 165.42 159.71 166.29 Z M 159.83 167.29 L 159.94 168.25 C 160.05 169.12 160.83 169.75 161.70 169.64 C 162.57 169.54 163.20 168.75 163.09 167.88 L 162.98 166.92 C 162.88 166.05 162.09 165.43 161.22 165.53 C 160.35 165.63 159.73 166.42 159.83 167.29 Z M 159.94 168.25 L 160.06 169.23 C 160.16 170.10 160.95 170.72 161.82 170.62 C 162.69 170.52 163.31 169.73 163.21 168.86 L 163.09 167.88 C 162.99 167.01 162.20 166.39 161.33 166.49 C 160.46 166.59 159.84 167.38 159.94 168.25 Z M 160.06 169.23 L 160.17 170.22 C 160.27 171.09 161.06 171.71 161.93 171.61 C 162.80 171.51 163.43 170.73 163.32 169.86 L 163.21 168.86 C 163.11 167.99 162.32 167.37 161.45 167.47 C 160.58 167.57 159.96 168.36 160.06 169.23 Z M 160.17 170.22 L 160.29 171.22 C 160.39 172.09 161.17 172.72 162.04 172.62 C 162.91 172.52 163.54 171.73 163.44 170.86 L 163.32 169.86 C 163.22 168.99 162.44 168.36 161.57 168.46 C 160.70 168.56 160.07 169.35 160.17 170.22 Z M 160.29 171.22 L 160.40 172.24 C 160.50 173.11 161.28 173.73 162.15 173.64 C 163.02 173.54 163.65 172.76 163.55 171.89 L 163.44 170.87 C 163.34 170.00 162.56 169.37 161.69 169.47 C 160.82 169.57 160.19 170.35 160.29 171.22 Z M 160.40 172.23 L 160.51 173.26 C 160.61 174.13 161.39 174.76 162.26 174.67 C 163.13 174.57 163.76 173.79 163.67 172.92 L 163.55 171.89 C 163.46 171.02 162.68 170.39 161.81 170.49 C 160.94 170.58 160.31 171.36 160.40 172.23 Z M 160.51 173.26 L 160.62 174.22 C 160.71 175.09 161.49 175.72 162.36 175.63 C 163.23 175.54 163.86 174.76 163.77 173.89 L 163.67 172.92 C 163.57 172.05 162.79 171.42 161.92 171.51 C 161.05 171.61 160.42 172.39 160.51 173.26 Z M 160.62 174.22 L 160.71 175.19 C 160.80 176.06 161.58 176.69 162.45 176.60 C 163.32 176.51 163.95 175.74 163.87 174.87 L 163.77 173.90 C 163.68 173.03 162.90 172.39 162.03 172.48 C 161.16 172.57 160.53 173.35 160.62 174.22 Z M 160.72 175.18 L 160.81 176.16 C 160.90 177.03 161.67 177.67 162.54 177.58 C 163.41 177.50 164.05 176.72 163.96 175.85 L 163.86 174.87 C 163.78 174.00 163.00 173.37 162.13 173.45 C 161.26 173.54 160.63 174.31 160.72 175.18 Z M 160.81 176.16 L 160.91 177.15 C 160.99 178.02 161.76 178.66 162.63 178.57 C 163.50 178.49 164.14 177.72 164.06 176.85 L 163.96 175.86 C 163.88 174.99 163.10 174.35 162.24 174.43 C 161.37 174.52 160.73 175.29 160.81 176.16 Z M 160.91 177.15 L 161.00 178.15 C 161.09 179.02 161.86 179.66 162.72 179.58 C 163.59 179.49 164.23 178.72 164.15 177.86 L 164.06 176.85 C 163.97 175.98 163.20 175.34 162.33 175.43 C 161.47 175.51 160.83 176.28 160.91 177.15 Z M 161.00 178.15 L 161.10 179.16 C 161.18 180.03 161.95 180.67 162.81 180.59 C 163.68 180.51 164.32 179.74 164.24 178.88 L 164.15 177.86 C 164.07 176.99 163.30 176.35 162.43 176.43 C 161.56 176.51 160.92 177.28 161.00 178.15 Z M 161.10 179.16 L 161.19 180.19 C 161.27 181.06 162.04 181.70 162.91 181.62 C 163.77 181.54 164.41 180.78 164.33 179.91 L 164.24 178.88 C 164.16 178.01 163.40 177.37 162.53 177.45 C 161.66 177.53 161.02 178.29 161.10 179.16 Z M 161.19 180.19 L 161.28 181.19 C 161.36 182.06 162.12 182.70 162.99 182.63 C 163.86 182.55 164.50 181.78 164.42 180.92 L 164.33 179.91 C 164.26 179.04 163.49 178.40 162.62 178.48 C 161.76 178.56 161.12 179.32 161.19 180.19 Z M 161.28 181.19 L 161.37 182.20 C 161.45 183.06 162.21 183.71 163.08 183.63 C 163.94 183.55 164.59 182.79 164.51 181.92 L 164.42 180.92 C 164.35 180.05 163.58 179.41 162.72 179.49 C 161.85 179.56 161.21 180.33 161.28 181.19 Z M 161.37 182.20 L 161.46 183.20 C 161.53 184.07 162.29 184.71 163.16 184.64 C 164.03 184.57 164.67 183.80 164.60 182.94 L 164.51 181.93 C 164.44 181.06 163.67 180.42 162.81 180.49 C 161.94 180.56 161.30 181.33 161.37 182.20 Z M 161.46 183.20 L 161.54 184.21 C 161.61 185.08 162.38 185.72 163.24 185.65 C 164.11 185.58 164.75 184.81 164.68 183.95 L 164.60 182.94 C 164.52 182.07 163.76 181.43 162.89 181.50 C 162.03 181.57 161.38 182.33 161.46 183.20 Z M 161.54 184.21 L 161.62 185.21 C 161.70 186.08 162.46 186.73 163.32 186.65 C 164.19 186.58 164.84 185.82 164.76 184.96 L 164.68 183.95 C 164.61 183.08 163.85 182.44 162.98 182.51 C 162.12 182.58 161.47 183.34 161.54 184.21 Z M 161.62 185.21 L 161.70 186.20 C 161.77 187.07 162.53 187.72 163.40 187.65 C 164.27 187.58 164.91 186.82 164.84 185.95 L 164.76 184.96 C 164.69 184.09 163.94 183.45 163.07 183.51 C 162.20 183.58 161.56 184.34 161.62 185.21 Z M 161.70 186.20 L 161.78 187.18 C 161.85 188.05 162.60 188.70 163.47 188.63 C 164.34 188.56 164.99 187.80 164.92 186.94 L 164.84 185.96 C 164.78 185.09 164.02 184.44 163.15 184.51 C 162.29 184.58 161.64 185.33 161.70 186.20 Z M 161.78 187.18 L 161.85 188.17 C 161.92 189.03 162.67 189.68 163.54 189.62 C 164.41 189.55 165.06 188.80 164.99 187.93 L 164.92 186.94 C 164.85 186.07 164.10 185.42 163.23 185.49 C 162.37 185.55 161.72 186.31 161.78 187.18 Z M 161.85 188.16 L 161.93 189.19 C 161.99 190.06 162.74 190.71 163.61 190.65 C 164.48 190.59 165.13 189.84 165.07 188.97 L 164.99 187.94 C 164.93 187.07 164.18 186.42 163.31 186.48 C 162.45 186.54 161.79 187.29 161.85 188.16 Z M 161.93 189.19 L 162.00 190.20 C 162.05 191.06 162.80 191.72 163.67 191.66 C 164.54 191.60 165.19 190.85 165.13 189.99 L 165.07 188.98 C 165.01 188.11 164.26 187.45 163.39 187.51 C 162.53 187.57 161.87 188.32 161.93 189.19 Z M 162.00 190.19 L 162.06 191.18 C 162.11 192.05 162.86 192.71 163.72 192.65 C 164.59 192.60 165.25 191.85 165.19 190.99 L 165.13 189.99 C 165.08 189.13 164.33 188.47 163.47 188.52 C 162.60 188.58 161.94 189.32 162.00 190.19 Z M 162.06 191.18 L 162.11 192.16 C 162.16 193.03 162.91 193.69 163.77 193.64 C 164.64 193.59 165.30 192.85 165.25 191.98 L 165.19 191.00 C 165.15 190.13 164.40 189.47 163.54 189.52 C 162.67 189.57 162.01 190.31 162.06 191.18 Z M 162.11 192.15 L 162.16 193.13 C 162.21 194.00 162.95 194.66 163.81 194.62 C 164.68 194.57 165.35 193.83 165.30 192.97 L 165.25 191.99 C 165.21 191.12 164.47 190.46 163.60 190.50 C 162.74 190.55 162.07 191.28 162.11 192.15 Z M 162.17 193.12 L 162.21 194.10 C 162.25 194.97 162.98 195.64 163.85 195.60 C 164.71 195.56 165.38 194.82 165.34 193.96 L 165.30 192.98 C 165.26 192.11 164.53 191.44 163.66 191.48 C 162.80 191.52 162.13 192.25 162.17 193.12 Z M 162.21 194.09 L 162.25 195.07 C 162.28 195.93 163.01 196.61 163.88 196.57 C 164.74 196.54 165.42 195.81 165.38 194.95 L 165.34 193.97 C 165.31 193.10 164.58 192.43 163.72 192.46 C 162.85 192.50 162.18 193.23 162.21 194.09 Z M 162.25 195.06 L 162.28 196.04 C 162.31 196.91 163.04 197.58 163.90 197.56 C 164.77 197.53 165.45 196.80 165.42 195.93 L 165.38 194.95 C 165.36 194.09 164.63 193.41 163.76 193.44 C 162.90 193.47 162.22 194.19 162.25 195.06 Z M 162.28 196.03 L 162.31 197.02 C 162.33 197.89 163.06 198.57 163.92 198.54 C 164.79 198.52 165.47 197.80 165.45 196.93 L 165.42 195.94 C 165.39 195.07 164.67 194.39 163.80 194.42 C 162.94 194.44 162.25 195.17 162.28 196.03 Z M 162.31 197.01 L 162.33 198.01 C 162.35 198.88 163.08 199.56 163.94 199.54 C 164.81 199.52 165.50 198.80 165.47 197.93 L 165.45 196.93 C 165.43 196.07 164.71 195.38 163.84 195.40 C 162.97 195.42 162.28 196.15 162.31 197.01 Z M 162.33 198.01 L 162.35 199.01 C 162.37 199.88 163.09 200.57 163.96 200.55 C 164.83 200.53 165.52 199.81 165.50 198.94 L 165.48 197.93 C 165.46 197.07 164.74 196.38 163.87 196.40 C 163.00 196.42 162.31 197.14 162.33 198.01 Z M 162.35 199.01 L 162.37 200.02 C 162.39 200.89 163.11 201.58 163.98 201.56 C 164.85 201.54 165.54 200.82 165.52 199.96 L 165.50 198.94 C 165.48 198.07 164.76 197.38 163.89 197.40 C 163.02 197.42 162.33 198.14 162.35 199.01 Z M 162.37 200.02 L 162.39 201.04 C 162.41 201.91 163.13 202.60 164.00 202.58 C 164.87 202.57 165.56 201.85 165.54 200.98 L 165.52 199.96 C 165.51 199.09 164.79 198.40 163.92 198.41 C 163.05 198.43 162.35 199.15 162.37 200.02 Z M 162.39 201.04 L 162.41 202.04 C 162.43 202.91 163.14 203.60 164.01 203.58 C 164.88 203.57 165.58 202.85 165.56 201.98 L 165.54 200.98 C 165.53 200.11 164.81 199.42 163.94 199.43 C 163.07 199.45 162.37 200.17 162.39 201.04 Z M 162.41 202.04 L 162.43 203.02 C 162.44 203.89 163.16 204.58 164.03 204.57 C 164.90 204.55 165.59 203.83 165.58 202.96 L 165.56 201.98 C 165.54 201.11 164.83 200.42 163.96 200.43 C 163.09 200.45 162.39 201.17 162.41 202.04 Z M 162.43 203.02 L 162.45 204.02 C 162.46 204.88 163.18 205.58 164.05 205.56 C 164.92 205.54 165.61 204.83 165.59 203.96 L 165.58 202.96 C 165.56 202.10 164.84 201.40 163.97 201.42 C 163.10 201.44 162.41 202.15 162.43 203.02 Z M 162.45 204.02 L 162.47 205.01 C 162.48 205.88 163.20 206.57 164.07 206.56 C 164.94 206.54 165.63 205.82 165.61 204.96 L 165.59 203.96 C 165.58 203.09 164.86 202.40 163.99 202.41 C 163.12 202.43 162.43 203.15 162.45 204.02 Z M 162.47 205.01 L 162.49 206.02 C 162.50 206.89 163.22 207.58 164.09 207.56 C 164.95 207.54 165.64 206.83 165.63 205.96 L 165.61 204.96 C 165.59 204.09 164.88 203.40 164.01 203.41 C 163.14 203.43 162.45 204.15 162.47 205.01 Z M 162.49 206.02 L 162.51 207.03 C 162.52 207.89 163.24 208.58 164.10 208.57 C 164.97 208.55 165.66 207.84 165.65 206.97 L 165.63 205.96 C 165.61 205.09 164.90 204.40 164.03 204.42 C 163.16 204.43 162.47 205.15 162.49 206.02 Z M 162.51 207.03 L 162.53 208.04 C 162.54 208.90 163.26 209.59 164.12 209.58 C 164.99 209.56 165.68 208.85 165.66 207.98 L 165.64 206.97 C 165.63 206.10 164.91 205.41 164.05 205.43 C 163.18 205.44 162.49 206.16 162.51 207.03 Z M 162.53 208.04 L 162.54 209.05 C 162.56 209.91 163.27 210.60 164.14 210.59 C 165.01 210.57 165.70 209.86 165.68 208.99 L 165.66 207.98 C 165.65 207.11 164.93 206.42 164.07 206.44 C 163.20 206.46 162.51 207.17 162.53 208.04 Z M 162.54 209.05 L 162.56 210.06 C 162.58 210.92 163.29 211.61 164.16 211.60 C 165.02 211.58 165.71 210.87 165.70 210.00 L 165.68 208.99 C 165.66 208.13 164.95 207.44 164.08 207.45 C 163.22 207.47 162.53 208.18 162.54 209.05 Z M 162.56 210.05 L 162.58 211.06 C 162.59 211.93 163.31 212.62 164.18 212.60 C 165.04 212.59 165.73 211.87 165.72 211.01 L 165.70 210.00 C 165.68 209.13 164.97 208.44 164.10 208.46 C 163.24 208.47 162.55 209.19 162.56 210.05 Z M 162.58 211.06 L 162.60 212.07 C 162.61 212.93 163.32 213.62 164.19 213.61 C 165.06 213.60 165.75 212.88 165.73 212.01 L 165.72 211.01 C 165.70 210.14 164.99 209.45 164.12 209.47 C 163.26 209.48 162.56 210.19 162.58 211.06 Z M 162.59 212.07 L 162.61 213.07 C 162.62 213.93 163.34 214.63 164.20 214.61 C 165.07 214.60 165.76 213.89 165.75 213.02 L 165.73 212.02 C 165.72 211.15 165.01 210.46 164.14 210.47 C 163.27 210.48 162.58 211.20 162.59 212.07 Z M 162.61 213.07 L 162.62 214.06 C 162.64 214.93 163.35 215.62 164.22 215.61 C 165.08 215.60 165.78 214.89 165.76 214.02 L 165.75 213.02 C 165.74 212.15 165.03 211.46 164.16 211.47 C 163.29 211.49 162.60 212.20 162.61 213.07 Z M 162.62 214.06 L 162.64 215.05 C 162.65 215.92 163.36 216.61 164.23 216.60 C 165.09 216.59 165.79 215.88 165.78 215.01 L 165.77 214.02 C 165.75 213.15 165.04 212.46 164.17 212.47 C 163.31 212.48 162.61 213.19 162.62 214.06 Z M 162.64 215.05 L 162.65 216.03 C 162.65 216.90 163.37 217.60 164.23 217.59 C 165.10 217.58 165.80 216.87 165.79 216.00 L 165.78 215.02 C 165.77 214.15 165.06 213.45 164.19 213.46 C 163.32 213.47 162.63 214.18 162.64 215.05 Z M 162.64 216.03 L 162.65 217.05 C 162.66 217.92 163.37 218.61 164.24 218.61 C 165.11 218.60 165.80 217.89 165.80 217.02 L 165.79 216.01 C 165.78 215.14 165.07 214.44 164.20 214.45 C 163.34 214.45 162.64 215.16 162.64 216.03 Z M 162.65 217.04 L 162.66 218.05 C 162.66 218.92 163.37 219.62 164.24 219.62 C 165.11 219.61 165.81 218.90 165.80 218.03 L 165.80 217.03 C 165.79 216.16 165.08 215.46 164.22 215.46 C 163.35 215.47 162.65 216.17 162.65 217.04 Z M 162.66 218.05 L 162.66 219.05 C 162.66 219.92 163.37 220.62 164.24 220.62 C 165.11 220.61 165.81 219.91 165.81 219.04 L 165.81 218.04 C 165.80 217.17 165.09 216.46 164.22 216.47 C 163.35 216.47 162.65 217.18 162.66 218.05 Z M 162.66 219.05 L 162.66 220.04 C 162.66 220.91 163.37 221.62 164.24 221.61 C 165.11 221.61 165.81 220.91 165.81 220.04 L 165.81 219.04 C 165.81 218.17 165.10 217.46 164.23 217.47 C 163.36 217.47 162.66 218.18 162.66 219.05 Z M 162.66 220.04 L 162.66 221.03 C 162.66 221.90 163.37 222.61 164.24 222.61 C 165.11 222.61 165.82 221.90 165.82 221.03 L 165.81 220.04 C 165.81 219.17 165.11 218.46 164.23 218.46 C 163.36 218.46 162.66 219.17 162.66 220.04 Z M 162.66 221.03 L 162.66 222.02 C 162.66 222.90 163.37 223.60 164.24 223.60 C 165.11 223.60 165.82 222.89 165.82 222.02 L 165.82 221.03 C 165.82 220.16 165.11 219.45 164.24 219.45 C 163.37 219.45 162.66 220.16 162.66 221.03 Z M 162.66 222.02 L 162.66 223.02 C 162.66 223.89 163.37 224.60 164.24 224.60 C 165.11 224.60 165.82 223.89 165.82 223.02 L 165.82 222.02 C 165.82 221.15 165.11 220.44 164.24 220.44 C 163.37 220.44 162.66 221.15 162.66 222.02 Z M 162.66 223.02 L 162.66 224.07 C 162.66 224.94 163.37 225.65 164.24 225.65 C 165.11 225.65 165.82 224.94 165.82 224.07 L 165.82 223.02 C 165.82 222.15 165.11 221.44 164.24 221.44 C 163.37 221.44 162.66 222.15 162.66 223.02 Z M 162.66 224.07 L 162.66 225.11 C 162.66 225.99 163.36 226.69 164.24 226.69 C 165.11 226.69 165.82 225.99 165.82 225.11 L 165.82 224.07 C 165.82 223.20 165.11 222.49 164.24 222.49 C 163.36 222.49 162.66 223.20 162.66 224.07 Z M 162.66 225.11 L 162.66 226.14 C 162.66 227.02 163.36 227.73 164.24 227.73 C 165.11 227.73 165.82 227.02 165.82 226.14 L 165.82 225.11 C 165.82 224.24 165.11 223.53 164.24 223.53 C 163.36 223.53 162.66 224.24 162.66 225.11 Z M 162.66 226.14 L 162.66 227.15 C 162.66 228.03 163.36 228.74 164.24 228.74 C 165.11 228.74 165.82 228.03 165.82 227.15 L 165.82 226.14 C 165.82 225.27 165.11 224.56 164.24 224.56 C 163.36 224.56 162.66 225.27 162.66 226.14 Z M 162.66 227.15 L 162.66 228.13 C 162.66 229.01 163.36 229.72 164.24 229.72 C 165.11 229.72 165.82 229.01 165.82 228.13 L 165.82 227.15 C 165.82 226.28 165.11 225.57 164.24 225.57 C 163.36 225.57 162.66 226.28 162.66 227.15 Z M 162.65 228.13 L 162.65 229.07 C 162.65 229.95 163.36 230.66 164.24 230.66 C 165.11 230.66 165.82 229.95 165.82 229.07 L 165.82 228.13 C 165.82 227.26 165.11 226.55 164.24 226.55 C 163.36 226.55 162.65 227.26 162.65 228.13 Z M 162.65 229.07 L 162.65 230.08 C 162.65 230.95 163.36 231.66 164.24 231.66 C 165.11 231.66 165.82 230.95 165.82 230.08 L 165.82 229.07 C 165.82 228.20 165.11 227.49 164.24 227.49 C 163.36 227.49 162.65 228.20 162.65 229.07 Z M 162.65 230.08 L 162.65 231.16 C 162.65 232.04 163.36 232.75 164.24 232.75 C 165.11 232.75 165.82 232.04 165.82 231.16 L 165.82 230.08 C 165.82 229.20 165.11 228.49 164.24 228.49 C 163.36 228.49 162.65 229.20 162.65 230.08 Z M 162.65 231.16 L 162.65 232.18 C 162.65 233.06 163.36 233.77 164.24 233.77 C 165.11 233.77 165.82 233.06 165.82 232.18 L 165.82 231.16 C 165.82 230.29 165.11 229.58 164.24 229.58 C 163.36 229.58 162.65 230.29 162.65 231.16 Z M 162.65 232.18 L 162.65 233.15 C 162.65 234.03 163.36 234.74 164.24 234.74 C 165.11 234.74 165.82 234.03 165.82 233.15 L 165.82 232.18 C 165.82 231.31 165.11 230.60 164.24 230.60 C 163.36 230.60 162.65 231.31 162.65 232.18 Z M 162.65 233.15 L 162.65 234.08 C 162.65 234.96 163.36 235.67 164.24 235.67 C 165.11 235.67 165.82 234.96 165.82 234.08 L 165.82 233.15 C 165.82 232.28 165.11 231.57 164.24 231.57 C 163.36 231.57 162.65 232.28 162.65 233.15 Z M 162.65 234.08 L 162.65 235.03 C 162.65 235.90 163.36 236.61 164.24 236.61 C 165.11 236.61 165.82 235.90 165.82 235.03 L 165.82 234.08 C 165.82 233.20 165.11 232.49 164.24 232.49 C 163.36 232.49 162.65 233.20 162.65 234.08 Z M 162.65 235.02 L 162.65 236.04 C 162.65 236.92 163.36 237.63 164.23 237.63 C 165.11 237.63 165.82 236.93 165.82 236.05 L 165.82 235.03 C 165.83 234.16 165.12 233.44 164.24 233.44 C 163.37 233.44 162.66 234.15 162.65 235.02 Z M 162.65 236.02 L 162.64 237.03 C 162.63 237.90 163.33 238.62 164.20 238.63 C 165.08 238.64 165.79 237.94 165.81 237.07 L 165.82 236.07 C 165.83 235.19 165.13 234.47 164.26 234.46 C 163.38 234.45 162.66 235.15 162.65 236.02 Z M 162.64 237.00 L 162.61 237.99 C 162.58 238.86 163.27 239.59 164.14 239.62 C 165.01 239.64 165.74 238.96 165.77 238.09 L 165.80 237.10 C 165.83 236.22 165.14 235.49 164.27 235.47 C 163.40 235.44 162.67 236.13 162.64 237.00 Z M 162.61 237.95 L 162.56 238.93 C 162.51 239.80 163.17 240.54 164.04 240.59 C 164.92 240.64 165.66 239.98 165.71 239.11 L 165.77 238.13 C 165.82 237.26 165.15 236.51 164.28 236.46 C 163.41 236.41 162.66 237.08 162.61 237.95 Z M 162.56 238.87 L 162.47 239.87 C 162.39 240.74 163.03 241.50 163.90 241.58 C 164.77 241.66 165.54 241.02 165.62 240.15 L 165.71 239.16 C 165.79 238.29 165.15 237.52 164.28 237.44 C 163.41 237.37 162.64 238.01 162.56 238.87 Z M 162.48 239.82 L 162.36 240.81 C 162.25 241.68 162.87 242.46 163.73 242.57 C 164.60 242.67 165.38 242.06 165.49 241.19 L 165.61 240.20 C 165.71 239.34 165.10 238.55 164.23 238.45 C 163.37 238.34 162.58 238.96 162.48 239.82 Z M 162.37 240.78 L 162.22 241.77 C 162.10 242.63 162.69 243.43 163.56 243.55 C 164.42 243.68 165.22 243.08 165.34 242.22 L 165.48 241.23 C 165.61 240.37 165.01 239.57 164.15 239.45 C 163.29 239.32 162.49 239.92 162.37 240.78 Z M 162.23 241.74 L 162.07 242.73 C 161.93 243.59 162.51 244.39 163.37 244.53 C 164.23 244.67 165.04 244.09 165.17 243.23 L 165.33 242.24 C 165.47 241.39 164.89 240.58 164.03 240.44 C 163.17 240.30 162.37 240.88 162.23 241.74 Z M 162.07 242.71 L 161.90 243.69 C 161.76 244.55 162.33 245.36 163.18 245.51 C 164.04 245.66 164.85 245.08 165.00 244.23 L 165.17 243.25 C 165.32 242.39 164.74 241.58 163.89 241.43 C 163.03 241.28 162.22 241.86 162.07 242.71 Z M 161.91 243.68 L 161.73 244.66 C 161.57 245.51 162.14 246.33 162.99 246.49 C 163.85 246.64 164.66 246.08 164.82 245.22 L 165.00 244.24 C 165.15 243.39 164.59 242.57 163.73 242.42 C 162.88 242.26 162.06 242.83 161.91 243.68 Z M 161.74 244.64 L 161.54 245.62 C 161.38 246.47 161.93 247.30 162.78 247.46 C 163.63 247.63 164.46 247.07 164.62 246.22 L 164.81 245.24 C 164.98 244.39 164.42 243.57 163.57 243.40 C 162.72 243.24 161.90 243.79 161.74 244.64 Z M 161.55 245.60 L 161.35 246.58 C 161.17 247.43 161.71 248.26 162.55 248.44 C 163.40 248.61 164.23 248.07 164.41 247.23 L 164.61 246.25 C 164.79 245.40 164.25 244.57 163.40 244.39 C 162.56 244.22 161.73 244.76 161.55 245.60 Z M 161.35 246.56 L 161.13 247.52 C 160.94 248.37 161.46 249.20 162.31 249.40 C 163.15 249.59 163.98 249.06 164.18 248.22 L 164.40 247.25 C 164.59 246.41 164.07 245.57 163.23 245.38 C 162.38 245.19 161.55 245.71 161.35 246.56 Z M 161.14 247.50 L 160.91 248.44 C 160.70 249.27 161.21 250.12 162.04 250.33 C 162.88 250.54 163.73 250.03 163.94 249.19 L 164.17 248.25 C 164.38 247.41 163.87 246.57 163.03 246.36 C 162.19 246.15 161.35 246.66 161.14 247.50 Z M 160.91 248.41 L 160.66 249.36 C 160.44 250.20 160.94 251.05 161.77 251.27 C 162.60 251.49 163.46 251.00 163.68 250.16 L 163.93 249.21 C 164.15 248.38 163.65 247.52 162.82 247.30 C 161.99 247.08 161.13 247.58 160.91 248.41 Z M 160.66 249.35 L 160.40 250.32 C 160.17 251.15 160.66 252.01 161.49 252.24 C 162.32 252.47 163.18 251.98 163.41 251.15 L 163.67 250.18 C 163.90 249.35 163.42 248.49 162.58 248.26 C 161.75 248.03 160.89 248.52 160.66 249.35 Z M 160.40 250.31 L 160.12 251.31 C 159.88 252.14 160.36 253.00 161.19 253.23 C 162.02 253.47 162.89 252.99 163.12 252.16 L 163.40 251.16 C 163.64 250.33 163.16 249.47 162.33 249.23 C 161.50 249.00 160.63 249.48 160.40 250.31 Z M 160.12 251.30 L 159.84 252.27 C 159.61 253.10 160.08 253.96 160.91 254.20 C 161.74 254.43 162.61 253.95 162.84 253.13 L 163.12 252.16 C 163.36 251.33 162.88 250.47 162.05 250.23 C 161.22 249.99 160.36 250.47 160.12 251.30 Z M 159.84 252.26 L 159.56 253.22 C 159.32 254.05 159.80 254.92 160.63 255.16 C 161.46 255.40 162.32 254.92 162.56 254.09 L 162.84 253.13 C 163.08 252.30 162.61 251.44 161.78 251.20 C 160.95 250.96 160.08 251.43 159.84 252.26 Z M 159.57 253.22 L 159.28 254.19 C 159.03 255.01 159.50 255.88 160.33 256.13 C 161.16 256.37 162.03 255.90 162.27 255.07 L 162.56 254.10 C 162.81 253.28 162.33 252.41 161.51 252.16 C 160.68 251.92 159.81 252.39 159.57 253.22 Z M 159.28 254.17 L 158.99 255.14 C 158.73 255.96 159.20 256.84 160.02 257.09 C 160.85 257.34 161.72 256.88 161.97 256.05 L 162.27 255.09 C 162.52 254.26 162.06 253.39 161.23 253.14 C 160.41 252.89 159.54 253.35 159.28 254.17 Z M 158.99 255.12 L 158.69 256.06 C 158.43 256.89 158.88 257.76 159.70 258.03 C 160.52 258.29 161.40 257.84 161.66 257.02 L 161.97 256.07 C 162.23 255.25 161.78 254.37 160.96 254.11 C 160.13 253.85 159.26 254.30 158.99 255.12 Z M 158.70 256.04 L 158.37 257.02 C 158.09 257.83 158.53 258.72 159.34 259.00 C 160.16 259.27 161.05 258.84 161.32 258.02 L 161.66 257.04 C 161.93 256.23 161.49 255.34 160.68 255.06 C 159.86 254.79 158.98 255.22 158.70 256.04 Z M 158.38 256.99 L 158.03 257.95 C 157.74 258.76 158.16 259.65 158.97 259.95 C 159.78 260.24 160.68 259.82 160.97 259.00 L 161.31 258.05 C 161.61 257.23 161.18 256.34 160.37 256.05 C 159.56 255.76 158.67 256.18 158.38 256.99 Z M 158.04 257.93 L 157.69 258.85 C 157.39 259.66 157.79 260.56 158.60 260.87 C 159.41 261.17 160.31 260.76 160.61 259.96 L 160.96 259.03 C 161.27 258.22 160.86 257.32 160.05 257.02 C 159.25 256.71 158.35 257.12 158.04 257.93 Z M 157.70 258.83 L 157.34 259.74 C 157.02 260.54 157.42 261.45 158.22 261.77 C 159.02 262.08 159.93 261.69 160.25 260.89 L 160.60 259.98 C 160.92 259.18 160.52 258.27 159.72 257.95 C 158.92 257.64 158.01 258.03 157.70 258.83 Z M 157.35 259.73 L 156.98 260.63 C 156.65 261.43 157.04 262.34 157.84 262.67 C 158.63 262.99 159.55 262.61 159.87 261.81 L 160.24 260.90 C 160.56 260.10 160.18 259.19 159.38 258.87 C 158.58 258.54 157.67 258.93 157.35 259.73 Z M 156.98 260.62 L 156.59 261.55 C 156.26 262.35 156.64 263.26 157.43 263.59 C 158.23 263.93 159.14 263.55 159.47 262.76 L 159.86 261.82 C 160.20 261.03 159.82 260.11 159.03 259.78 C 158.23 259.45 157.32 259.82 156.98 260.62 Z M 156.60 261.53 L 156.20 262.45 C 155.86 263.24 156.22 264.16 157.01 264.51 C 157.80 264.85 158.72 264.49 159.07 263.70 L 159.47 262.77 C 159.81 261.98 159.45 261.06 158.65 260.72 C 157.86 260.38 156.94 260.74 156.60 261.53 Z M 156.21 262.43 L 155.80 263.34 C 155.45 264.12 155.79 265.05 156.58 265.40 C 157.36 265.76 158.29 265.41 158.65 264.63 L 159.06 263.72 C 159.41 262.93 159.06 262.01 158.28 261.65 C 157.49 261.30 156.57 261.65 156.21 262.43 Z M 155.81 263.31 L 155.39 264.20 C 155.02 264.98 155.35 265.91 156.13 266.28 C 156.91 266.65 157.84 266.32 158.21 265.54 L 158.63 264.65 C 159.00 263.87 158.67 262.94 157.89 262.57 C 157.12 262.20 156.18 262.53 155.81 263.31 Z M 155.41 264.17 L 154.94 265.09 C 154.56 265.86 154.87 266.80 155.64 267.18 C 156.41 267.57 157.34 267.26 157.73 266.49 L 158.19 265.57 C 158.58 264.80 158.27 263.87 157.50 263.48 C 156.73 263.09 155.79 263.40 155.41 264.17 Z M 154.96 265.06 L 154.48 265.95 C 154.08 266.71 154.37 267.66 155.13 268.06 C 155.89 268.47 156.83 268.18 157.24 267.42 L 157.72 266.52 C 158.12 265.76 157.83 264.82 157.07 264.41 C 156.31 264.01 155.36 264.29 154.96 265.06 Z M 154.50 265.92 L 154.01 266.79 C 153.59 267.54 153.86 268.49 154.62 268.91 C 155.37 269.34 156.32 269.07 156.74 268.31 L 157.22 267.45 C 157.65 266.69 157.38 265.74 156.62 265.32 C 155.87 264.90 154.92 265.17 154.50 265.92 Z M 154.03 266.76 L 153.54 267.60 C 153.10 268.35 153.36 269.30 154.10 269.74 C 154.84 270.17 155.80 269.92 156.24 269.18 L 156.72 268.34 C 157.16 267.59 156.91 266.64 156.16 266.20 C 155.42 265.77 154.46 266.02 154.03 266.76 Z M 153.55 267.58 L 153.02 268.46 C 152.57 269.20 152.80 270.16 153.54 270.60 C 154.27 271.05 155.23 270.82 155.68 270.08 L 156.22 269.20 C 156.67 268.47 156.44 267.50 155.70 267.06 C 154.96 266.61 154.00 266.84 153.55 267.58 Z M 153.03 268.43 L 152.49 269.29 C 152.02 270.01 152.24 270.98 152.96 271.44 C 153.69 271.91 154.66 271.69 155.12 270.97 L 155.67 270.11 C 156.13 269.39 155.92 268.42 155.19 267.96 C 154.46 267.49 153.50 267.71 153.03 268.43 Z M 152.51 269.26 L 151.96 270.07 C 151.48 270.79 151.67 271.76 152.39 272.24 C 153.11 272.72 154.07 272.53 154.55 271.81 L 155.10 271.00 C 155.58 270.28 155.39 269.31 154.67 268.83 C 153.95 268.35 152.99 268.54 152.51 269.26 Z M 151.98 270.04 L 151.42 270.84 C 150.93 271.54 151.10 272.52 151.80 273.01 C 152.51 273.51 153.48 273.34 153.98 272.63 L 154.53 271.84 C 155.03 271.14 154.86 270.16 154.16 269.67 C 153.45 269.17 152.48 269.34 151.98 270.04 Z M 151.45 270.80 L 150.85 271.61 C 150.33 272.30 150.47 273.28 151.16 273.80 C 151.86 274.31 152.83 274.17 153.35 273.48 L 153.95 272.67 C 154.47 271.98 154.32 271.00 153.63 270.48 C 152.94 269.97 151.96 270.11 151.45 270.80 Z M 150.87 271.57 L 150.26 272.35 C 149.72 273.03 149.84 274.01 150.51 274.55 C 151.19 275.08 152.17 274.97 152.71 274.29 L 153.32 273.51 C 153.86 272.84 153.74 271.85 153.07 271.32 C 152.39 270.78 151.41 270.90 150.87 271.57 Z M 150.29 272.32 L 149.65 273.08 C 149.09 273.74 149.18 274.72 149.84 275.28 C 150.50 275.83 151.48 275.75 152.04 275.09 L 152.68 274.32 C 153.23 273.66 153.15 272.68 152.49 272.13 C 151.83 271.57 150.84 271.66 150.29 272.32 Z M 149.68 273.04 L 149.05 273.74 C 148.48 274.39 148.53 275.37 149.18 275.95 C 149.82 276.52 150.81 276.47 151.38 275.82 L 152.01 275.12 C 152.58 274.48 152.53 273.49 151.88 272.92 C 151.24 272.34 150.25 272.40 149.68 273.04 Z M 149.11 273.68 L 148.43 274.37 C 147.82 274.98 147.83 275.97 148.44 276.58 C 149.05 277.19 150.04 277.18 150.65 276.57 L 151.33 275.88 C 151.93 275.27 151.93 274.28 151.32 273.67 C 150.70 273.07 149.71 273.07 149.11 273.68 Z M 148.51 274.29 L 147.74 274.96 C 147.09 275.53 147.02 276.51 147.58 277.16 C 148.15 277.82 149.13 277.89 149.79 277.32 L 150.56 276.65 C 151.21 276.09 151.28 275.10 150.72 274.45 C 150.15 273.80 149.17 273.73 148.51 274.29 Z M 147.85 274.88 L 147.01 275.48 C 146.31 275.99 146.15 276.96 146.66 277.66 C 147.16 278.36 148.14 278.52 148.84 278.01 L 149.68 277.41 C 150.38 276.90 150.53 275.93 150.03 275.23 C 149.52 274.53 148.55 274.37 147.85 274.88 Z M 147.11 275.41 L 146.32 275.89 C 145.58 276.34 145.34 277.30 145.79 278.04 C 146.23 278.77 147.19 279.01 147.93 278.57 L 148.73 278.09 C 149.47 277.64 149.70 276.68 149.26 275.94 C 148.81 275.20 147.85 274.97 147.11 275.41 Z M 146.42 275.84 L 145.54 276.28 C 144.77 276.67 144.47 277.61 144.86 278.38 C 145.24 279.15 146.18 279.46 146.95 279.07 L 147.83 278.62 C 148.60 278.23 148.91 277.29 148.52 276.52 C 148.13 275.76 147.19 275.45 146.42 275.84 Z M 145.65 276.23 L 144.70 276.62 C 143.91 276.95 143.53 277.86 143.86 278.66 C 144.19 279.46 145.10 279.84 145.90 279.51 L 146.85 279.12 C 147.64 278.79 148.02 277.87 147.69 277.08 C 147.36 276.28 146.45 275.90 145.65 276.23 Z M 144.82 276.58 L 143.81 276.90 C 142.99 277.17 142.54 278.05 142.81 278.87 C 143.07 279.69 143.95 280.14 144.77 279.88 L 145.78 279.55 C 146.60 279.29 147.05 278.41 146.79 277.59 C 146.52 276.76 145.64 276.31 144.82 276.58 Z M 143.94 276.87 L 142.91 277.11 C 142.07 277.31 141.55 278.15 141.75 278.99 C 141.94 279.83 142.78 280.35 143.62 280.15 L 144.65 279.91 C 145.49 279.71 146.01 278.87 145.81 278.04 C 145.62 277.20 144.78 276.67 143.94 276.87 Z M 143.02 277.09 L 141.99 277.25 C 141.14 277.39 140.56 278.19 140.69 279.04 C 140.83 279.89 141.63 280.47 142.48 280.34 L 143.51 280.17 C 144.37 280.04 144.94 279.23 144.81 278.38 C 144.67 277.53 143.87 276.95 143.02 277.09 Z M 142.07 277.24 L 141.04 277.35 C 140.18 277.45 139.56 278.22 139.66 279.07 C 139.75 279.93 140.52 280.55 141.37 280.46 L 142.40 280.35 C 143.26 280.26 143.88 279.49 143.79 278.63 C 143.70 277.77 142.93 277.15 142.07 277.24 Z M 141.10 277.35 L 140.11 277.42 C 139.25 277.48 138.60 278.22 138.66 279.08 C 138.72 279.94 139.46 280.59 140.32 280.53 L 141.32 280.46 C 142.18 280.40 142.82 279.66 142.77 278.80 C 142.71 277.94 141.96 277.29 141.10 277.35 Z M 140.15 277.41 L 139.21 277.45 C 138.35 277.49 137.68 278.22 137.72 279.08 C 137.76 279.94 138.49 280.61 139.35 280.57 L 140.28 280.53 C 141.14 280.50 141.81 279.77 141.77 278.91 C 141.74 278.05 141.01 277.38 140.15 277.41 Z M 139.24 277.45 L 138.18 277.48 C 137.31 277.50 136.63 278.22 136.66 279.08 C 136.68 279.95 137.40 280.63 138.26 280.60 L 139.32 280.58 C 140.18 280.55 140.86 279.84 140.84 278.97 C 140.82 278.11 140.10 277.43 139.24 277.45 Z M 138.23 277.48 L 137.21 277.48 C 136.35 277.47 135.65 278.17 135.64 279.03 C 135.64 279.89 136.33 280.59 137.19 280.60 L 138.21 280.60 C 139.07 280.61 139.77 279.91 139.78 279.05 C 139.78 278.19 139.09 277.49 138.23 277.48 Z M 137.30 277.48 L 136.37 277.42 C 135.51 277.36 134.76 278.01 134.71 278.87 C 134.65 279.73 135.30 280.48 136.16 280.53 L 137.10 280.60 C 137.96 280.65 138.70 280.00 138.76 279.14 C 138.82 278.28 138.17 277.54 137.30 277.48 Z M 136.50 277.43 L 135.57 277.29 C 134.72 277.16 133.92 277.75 133.79 278.60 C 133.67 279.46 134.25 280.25 135.11 280.38 L 136.03 280.52 C 136.88 280.65 137.68 280.06 137.81 279.21 C 137.94 278.36 137.35 277.56 136.50 277.43 Z M 135.70 277.32 L 134.75 277.09 C 133.92 276.89 133.07 277.41 132.87 278.24 C 132.67 279.08 133.19 279.92 134.02 280.13 L 134.97 280.35 C 135.81 280.56 136.65 280.04 136.86 279.20 C 137.06 278.36 136.54 277.52 135.70 277.32 Z M 134.87 277.12 L 133.91 276.81 C 133.09 276.55 132.21 277.00 131.95 277.82 C 131.68 278.64 132.13 279.52 132.95 279.78 L 133.91 280.09 C 134.73 280.36 135.61 279.91 135.87 279.09 C 136.14 278.27 135.69 277.39 134.87 277.12 Z M 134.02 276.85 L 133.08 276.47 C 132.28 276.14 131.37 276.52 131.04 277.32 C 130.72 278.12 131.10 279.03 131.90 279.36 L 132.84 279.74 C 133.64 280.07 134.55 279.69 134.88 278.89 C 135.20 278.09 134.82 277.18 134.02 276.85 Z M 133.18 276.51 L 132.29 276.07 C 131.52 275.68 130.58 276.00 130.20 276.77 C 129.81 277.54 130.12 278.48 130.90 278.86 L 131.79 279.31 C 132.56 279.69 133.50 279.38 133.88 278.61 C 134.27 277.84 133.96 276.90 133.18 276.51 Z M 132.39 276.12 L 131.54 275.62 C 130.80 275.18 129.84 275.43 129.40 276.17 C 128.96 276.91 129.21 277.87 129.95 278.31 L 130.80 278.81 C 131.54 279.25 132.50 279.00 132.94 278.26 C 133.37 277.52 133.13 276.56 132.39 276.12 Z M 131.62 275.67 L 130.79 275.11 C 130.08 274.63 129.11 274.82 128.62 275.53 C 128.14 276.24 128.33 277.22 129.04 277.70 L 129.87 278.26 C 130.58 278.74 131.55 278.55 132.04 277.84 C 132.52 277.12 132.33 276.15 131.62 275.67 Z M 130.85 275.15 L 130.03 274.54 C 129.34 274.03 128.36 274.17 127.85 274.86 C 127.33 275.55 127.47 276.53 128.17 277.04 L 128.98 277.66 C 129.67 278.17 130.65 278.03 131.17 277.34 C 131.68 276.65 131.54 275.67 130.85 275.15 Z M 130.08 274.58 L 129.33 273.98 C 128.66 273.44 127.67 273.55 127.13 274.22 C 126.60 274.89 126.70 275.88 127.38 276.41 L 128.12 277.01 C 128.80 277.55 129.78 277.44 130.32 276.77 C 130.86 276.10 130.75 275.11 130.08 274.58 Z M 129.37 274.01 L 128.62 273.37 C 127.96 272.81 126.98 272.89 126.42 273.54 C 125.86 274.20 125.94 275.18 126.59 275.74 L 127.34 276.38 C 128.00 276.94 128.98 276.87 129.54 276.21 C 130.10 275.55 130.02 274.57 129.37 274.01 Z M 128.66 273.40 L 127.91 272.72 C 127.27 272.14 126.28 272.18 125.70 272.82 C 125.12 273.46 125.17 274.45 125.80 275.03 L 126.55 275.71 C 127.19 276.29 128.18 276.25 128.76 275.61 C 129.34 274.97 129.29 273.99 128.66 273.40 Z M 127.95 272.76 L 127.20 272.03 C 126.59 271.42 125.60 271.43 125.00 272.05 C 124.39 272.67 124.40 273.65 125.02 274.26 L 125.76 274.99 C 126.38 275.59 127.37 275.58 127.97 274.97 C 128.57 274.35 128.56 273.36 127.95 272.76 Z M 127.24 272.07 L 126.58 271.37 C 125.99 270.74 125.00 270.72 124.37 271.31 C 123.75 271.91 123.72 272.89 124.32 273.52 L 124.98 274.22 C 125.57 274.84 126.56 274.87 127.19 274.28 C 127.81 273.68 127.84 272.69 127.24 272.07 Z M 126.62 271.41 L 125.96 270.67 C 125.39 270.03 124.40 269.97 123.76 270.54 C 123.12 271.12 123.06 272.10 123.63 272.75 L 124.28 273.48 C 124.85 274.13 125.84 274.18 126.48 273.61 C 127.13 273.04 127.19 272.05 126.62 271.41 Z M 126.00 270.71 L 125.36 269.94 C 124.80 269.28 123.82 269.19 123.16 269.74 C 122.49 270.29 122.40 271.27 122.95 271.94 L 123.60 272.71 C 124.15 273.37 125.13 273.46 125.79 272.91 C 126.46 272.36 126.55 271.38 126.00 270.71 Z M 125.39 269.98 L 124.76 269.17 C 124.23 268.49 123.25 268.36 122.57 268.89 C 121.89 269.42 121.76 270.40 122.29 271.08 L 122.92 271.90 C 123.45 272.58 124.43 272.70 125.11 272.17 C 125.79 271.64 125.92 270.66 125.39 269.98 Z M 124.79 269.21 L 124.19 268.39 C 123.69 267.70 122.71 267.54 122.01 268.05 C 121.32 268.56 121.16 269.54 121.67 270.23 L 122.26 271.05 C 122.77 271.74 123.75 271.90 124.44 271.39 C 125.14 270.88 125.29 269.90 124.79 269.21 Z M 124.22 268.43 L 123.68 267.64 C 123.19 266.92 122.22 266.74 121.51 267.23 C 120.79 267.72 120.61 268.69 121.10 269.40 L 121.64 270.20 C 122.13 270.91 123.10 271.09 123.81 270.60 C 124.52 270.12 124.71 269.14 124.22 268.43 Z M 123.70 267.67 L 123.17 266.84 C 122.70 266.12 121.74 265.91 121.01 266.37 C 120.29 266.84 120.08 267.81 120.54 268.53 L 121.07 269.36 C 121.54 270.09 122.51 270.30 123.23 269.83 C 123.96 269.37 124.17 268.40 123.70 267.67 Z M 123.19 266.88 L 122.67 266.02 C 122.23 265.28 121.27 265.04 120.53 265.49 C 119.79 265.93 119.55 266.89 120.00 267.63 L 120.52 268.49 C 120.96 269.23 121.92 269.47 122.66 269.03 C 123.40 268.58 123.64 267.62 123.19 266.88 Z M 122.70 266.06 L 122.19 265.16 C 121.77 264.41 120.82 264.14 120.06 264.56 C 119.31 264.99 119.05 265.94 119.47 266.69 L 119.97 267.59 C 120.40 268.34 121.35 268.61 122.10 268.18 C 122.85 267.76 123.12 266.81 122.70 266.06 Z M 122.21 265.20 L 121.75 264.31 C 121.35 263.55 120.40 263.26 119.64 263.66 C 118.88 264.06 118.58 265.00 118.98 265.76 L 119.45 266.65 C 119.85 267.41 120.79 267.71 121.56 267.31 C 122.32 266.91 122.61 265.96 122.21 265.20 Z M 121.77 264.35 L 121.35 263.50 C 120.97 262.73 120.03 262.41 119.26 262.79 C 118.49 263.17 118.17 264.11 118.55 264.88 L 118.96 265.73 C 119.34 266.50 120.28 266.82 121.05 266.44 C 121.83 266.06 122.15 265.12 121.77 264.35 Z M 121.37 263.54 L 120.96 262.66 C 120.60 261.88 119.68 261.53 118.89 261.89 C 118.11 262.25 117.77 263.18 118.13 263.96 L 118.53 264.84 C 118.89 265.63 119.82 265.97 120.60 265.61 C 121.38 265.25 121.73 264.32 121.37 263.54 Z M 120.98 262.70 L 120.59 261.78 C 120.25 260.99 119.33 260.62 118.54 260.96 C 117.75 261.30 117.38 262.22 117.72 263.01 L 118.11 263.93 C 118.45 264.72 119.37 265.09 120.16 264.75 C 120.95 264.41 121.32 263.49 120.98 262.70 Z M 120.60 261.82 L 120.23 260.87 C 119.91 260.06 119.00 259.67 118.20 259.99 C 117.40 260.31 117.01 261.22 117.32 262.02 L 117.70 262.97 C 118.02 263.78 118.93 264.17 119.73 263.85 C 120.53 263.53 120.92 262.62 120.60 261.82 Z M 120.24 260.90 L 119.87 259.90 C 119.57 259.09 118.68 258.68 117.87 258.98 C 117.06 259.28 116.64 260.17 116.94 260.98 L 117.31 261.98 C 117.61 262.79 118.50 263.20 119.31 262.91 C 120.12 262.61 120.54 261.71 120.24 260.90 Z M 119.88 259.94 L 119.56 259.00 C 119.29 258.18 118.40 257.75 117.58 258.03 C 116.77 258.31 116.33 259.19 116.61 260.01 L 116.93 260.95 C 117.21 261.76 118.10 262.20 118.91 261.92 C 119.73 261.64 120.16 260.75 119.88 259.94 Z M 119.57 259.03 L 119.28 258.11 C 119.02 257.29 118.14 256.84 117.32 257.10 C 116.49 257.36 116.04 258.24 116.31 259.06 L 116.60 259.98 C 116.86 260.80 117.74 261.25 118.56 260.99 C 119.38 260.73 119.84 259.85 119.57 259.03 Z M 119.29 258.13 L 119.00 257.19 C 118.75 256.36 117.87 255.90 117.05 256.15 C 116.23 256.40 115.76 257.27 116.01 258.10 L 116.30 259.04 C 116.55 259.87 117.42 260.33 118.25 260.08 C 119.07 259.83 119.54 258.96 119.29 258.13 Z M 119.00 257.21 L 118.72 256.24 C 118.48 255.41 117.61 254.94 116.78 255.18 C 115.96 255.42 115.48 256.29 115.72 257.12 L 116.01 258.08 C 116.25 258.91 117.12 259.38 117.94 259.14 C 118.77 258.90 119.25 258.03 119.00 257.21 Z M 118.72 256.25 L 118.45 255.27 C 118.21 254.44 117.35 253.96 116.52 254.20 C 115.69 254.43 115.21 255.30 115.44 256.13 L 115.72 257.11 C 115.96 257.94 116.82 258.42 117.65 258.18 C 118.48 257.95 118.96 257.08 118.72 256.25 Z M 118.45 255.28 L 118.17 254.29 C 117.94 253.46 117.08 252.97 116.25 253.20 C 115.42 253.44 114.93 254.30 115.16 255.13 L 115.44 256.12 C 115.67 256.95 116.53 257.43 117.36 257.20 C 118.19 256.97 118.68 256.11 118.45 255.28 Z M 118.17 254.29 L 117.90 253.30 C 117.67 252.47 116.81 251.98 115.98 252.21 C 115.15 252.44 114.66 253.29 114.89 254.13 L 115.16 255.12 C 115.39 255.95 116.25 256.44 117.08 256.21 C 117.91 255.99 118.40 255.13 118.17 254.29 Z M 117.90 253.30 L 117.87 253.18 C 117.64 252.35 116.78 251.86 115.95 252.09 C 115.12 252.32 114.63 253.18 114.86 254.01 L 114.89 254.13 C 115.12 254.96 115.98 255.45 116.81 255.22 C 117.64 254.99 118.13 254.13 117.90 253.30 Z"
      fill="black"
      fill-rule="nonzero" /></svg>