<svg xmlns="http://www.w3.org/2000/svg" width="300" height="300" viewBox="0 0 300 300">
<path d="M 107.17 72.09 L 106.56 72.88 C 106.03 73.57 106.16 74.55 106.84 75.07 C 107.52 75.60 108.50 75.47 109.03 74.79 L 109.64 74.00 C 110.17 73.31 110.04 72.33 109.36 71.81 C 108.68 71.28 107.70 71.41 107.17 72.09 Z M 106.49 72.97 L 105.94 73.80 C 105.46 74.52 105.66 75.49 106.37 75.97 C 107.09 76.44 108.06 76.25 108.54 75.53 L 109.09 74.70 C 109.57 73.99 109.38 73.02 108.66 72.54 C 107.94 72.06 106.97 72.25 106.49 72.97 Z M 105.83 73.99 L 105.40 74.89 C 105.03 75.66 105.36 76.59 106.13 76.97 C 106.91 77.34 107.84 77.01 108.22 76.24 L 108.65 75.34 C 109.02 74.57 108.69 73.63 107.92 73.26 C 107.14 72.89 106.21 73.21 105.83 73.99 Z M 105.29 75.15 L 105.06 76.03 C 104.83 76.86 105.33 77.72 106.17 77.95 C 107.00 78.18 107.86 77.68 108.09 76.84 L 108.33 75.97 C 108.55 75.13 108.06 74.27 107.22 74.05 C 106.38 73.82 105.52 74.32 105.29 75.15 Z M 105.00 76.25 L 104.89 77.19 C 104.79 78.06 105.41 78.85 106.28 78.95 C 107.15 79.05 107.94 78.42 108.04 77.55 L 108.15 76.62 C 108.25 75.75 107.63 74.96 106.76 74.86 C 105.89 74.76 105.10 75.38 105.00 76.25 Z M 104.86 77.33 L 104.83 78.36 C 104.81 79.25 105.51 79.99 106.40 80.01 C 107.29 80.03 108.03 79.33 108.05 78.44 L 108.07 77.41 C 108.10 76.52 107.39 75.78 106.51 75.76 C 105.62 75.74 104.88 76.44 104.86 77.33 Z M 104.81 78.44 L 104.84 79.54 C 104.85 80.43 105.60 81.15 106.50 81.13 C 107.40 81.11 108.11 80.37 108.09 79.47 L 108.07 78.37 C 108.05 77.47 107.31 76.75 106.41 76.77 C 105.51 76.79 104.79 77.54 104.81 78.44 Z M 104.83 79.56 L 104.86 80.43 C 104.89 81.34 105.65 82.04 106.55 82.01 C 107.46 81.98 108.16 81.22 108.13 80.31 L 108.10 79.44 C 108.07 78.54 107.31 77.83 106.40 77.87 C 105.50 77.90 104.79 78.66 104.83 79.56 Z M 104.86 80.45 L 104.90 81.39 C 104.95 82.29 105.71 82.99 106.62 82.94 C 107.52 82.90 108.22 82.13 108.18 81.23 L 108.13 80.30 C 108.09 79.39 107.32 78.70 106.42 78.74 C 105.51 78.78 104.82 79.55 104.86 80.45 Z M 104.91 81.41 L 104.97 82.40 C 105.02 83.30 105.80 83.99 106.70 83.94 C 107.60 83.88 108.29 83.11 108.23 82.20 L 108.17 81.21 C 108.12 80.31 107.34 79.62 106.44 79.67 C 105.54 79.73 104.85 80.50 104.91 81.41 Z M 104.97 82.42 L 105.05 83.48 C 105.11 84.39 105.90 85.06 106.80 85.00 C 107.70 84.93 108.38 84.14 108.31 83.24 L 108.23 82.18 C 108.17 81.28 107.38 80.60 106.48 80.67 C 105.58 80.74 104.90 81.52 104.97 82.42 Z M 105.05 83.51 L 105.15 84.63 C 105.23 85.53 106.02 86.20 106.92 86.12 C 107.82 86.04 108.49 85.24 108.41 84.34 L 108.31 83.22 C 108.23 82.32 107.44 81.65 106.53 81.73 C 105.63 81.81 104.97 82.61 105.05 83.51 Z M 105.15 84.65 L 105.24 85.57 C 105.33 86.47 106.14 87.12 107.04 87.03 C 107.94 86.94 108.59 86.14 108.50 85.24 L 108.41 84.32 C 108.32 83.42 107.51 82.77 106.61 82.86 C 105.71 82.95 105.06 83.75 105.15 84.65 Z M 105.24 85.58 L 105.35 86.50 C 105.44 87.40 106.25 88.05 107.15 87.95 C 108.05 87.85 108.70 87.04 108.60 86.14 L 108.50 85.22 C 108.40 84.32 107.59 83.68 106.69 83.77 C 105.79 83.87 105.14 84.68 105.24 85.58 Z M 105.35 86.51 L 105.46 87.46 C 105.56 88.36 106.38 89.00 107.28 88.90 C 108.17 88.79 108.82 87.98 108.71 87.08 L 108.60 86.13 C 108.49 85.23 107.68 84.59 106.78 84.69 C 105.88 84.80 105.24 85.61 105.35 86.51 Z M 105.46 87.47 L 105.58 88.46 C 105.69 89.35 106.51 89.99 107.40 89.88 C 108.30 89.77 108.94 88.96 108.83 88.06 L 108.71 87.07 C 108.60 86.17 107.78 85.54 106.89 85.64 C 105.99 85.75 105.35 86.57 105.46 87.47 Z M 105.58 88.46 L 105.71 89.49 C 105.82 90.38 106.64 91.02 107.54 90.91 C 108.43 90.79 109.07 89.98 108.96 89.08 L 108.83 88.05 C 108.72 87.16 107.90 86.52 107.00 86.63 C 106.11 86.75 105.47 87.56 105.58 88.46 Z M 105.71 89.49 L 105.84 90.55 C 105.96 91.44 106.78 92.08 107.67 91.97 C 108.57 91.85 109.20 91.03 109.09 90.14 L 108.96 89.08 C 108.84 88.18 108.02 87.55 107.13 87.66 C 106.23 87.77 105.60 88.59 105.71 89.49 Z M 105.84 90.55 L 105.98 91.64 C 106.10 92.54 106.92 93.17 107.81 93.06 C 108.71 92.95 109.34 92.13 109.23 91.23 L 109.09 90.14 C 108.98 89.24 108.16 88.60 107.26 88.72 C 106.37 88.83 105.73 89.65 105.84 90.55 Z M 105.98 91.64 L 106.10 92.58 C 106.21 93.47 107.03 94.11 107.93 93.99 C 108.82 93.88 109.46 93.06 109.35 92.17 L 109.23 91.23 C 109.12 90.34 108.30 89.70 107.40 89.81 C 106.51 89.93 105.87 90.74 105.98 91.64 Z M 106.10 92.57 L 106.21 93.49 C 106.32 94.39 107.14 95.02 108.04 94.91 C 108.94 94.80 109.57 93.98 109.46 93.09 L 109.35 92.17 C 109.24 91.27 108.42 90.64 107.52 90.75 C 106.63 90.86 105.99 91.68 106.10 92.57 Z M 106.21 93.49 L 106.33 94.42 C 106.44 95.32 107.25 95.96 108.15 95.85 C 109.05 95.74 109.69 94.93 109.58 94.03 L 109.46 93.09 C 109.35 92.19 108.54 91.55 107.64 91.66 C 106.74 91.77 106.10 92.59 106.21 93.49 Z M 106.33 94.42 L 106.44 95.38 C 106.55 96.28 107.36 96.92 108.26 96.82 C 109.16 96.71 109.80 95.89 109.69 94.99 L 109.58 94.03 C 109.47 93.13 108.66 92.49 107.76 92.60 C 106.86 92.71 106.22 93.52 106.33 94.42 Z M 106.44 95.38 L 106.56 96.37 C 106.66 97.27 107.47 97.91 108.37 97.80 C 109.27 97.70 109.92 96.89 109.81 95.99 L 109.69 95.00 C 109.59 94.10 108.78 93.46 107.88 93.56 C 106.98 93.67 106.34 94.48 106.44 95.38 Z M 106.55 96.36 L 106.67 97.38 C 106.77 98.27 107.58 98.92 108.48 98.82 C 109.38 98.72 110.03 97.90 109.93 97.00 L 109.81 95.99 C 109.71 95.09 108.90 94.45 108.00 94.55 C 107.10 94.65 106.45 95.46 106.55 96.36 Z M 106.67 97.37 L 106.78 98.41 C 106.88 99.31 107.69 99.96 108.59 99.86 C 109.49 99.76 110.14 98.95 110.04 98.05 L 109.93 97.01 C 109.83 96.11 109.02 95.46 108.12 95.56 C 107.22 95.66 106.57 96.47 106.67 97.37 Z M 106.78 98.40 L 106.90 99.47 C 106.99 100.37 107.80 101.02 108.70 100.93 C 109.60 100.83 110.25 100.02 110.16 99.12 L 110.04 98.06 C 109.95 97.15 109.14 96.50 108.24 96.60 C 107.34 96.69 106.69 97.50 106.78 98.40 Z M 106.89 99.46 L 107.01 100.56 C 107.10 101.46 107.91 102.11 108.81 102.02 C 109.71 101.93 110.36 101.12 110.27 100.22 L 110.16 99.13 C 110.07 98.23 109.26 97.57 108.36 97.66 C 107.46 97.76 106.80 98.56 106.89 99.46 Z M 107.01 100.55 L 107.10 101.50 C 107.19 102.40 107.99 103.06 108.90 102.97 C 109.80 102.88 110.46 102.07 110.37 101.17 L 110.27 100.23 C 110.18 99.33 109.38 98.67 108.48 98.76 C 107.58 98.85 106.92 99.65 107.01 100.55 Z M 107.10 101.49 L 107.19 102.44 C 107.28 103.34 108.08 104.00 108.98 103.91 C 109.88 103.83 110.54 103.02 110.46 102.12 L 110.37 101.18 C 110.28 100.27 109.48 99.61 108.58 99.70 C 107.67 99.79 107.01 100.59 107.10 101.49 Z M 107.19 102.43 L 107.28 103.39 C 107.36 104.30 108.16 104.96 109.07 104.88 C 109.97 104.79 110.63 103.99 110.55 103.09 L 110.46 102.13 C 110.37 101.23 109.57 100.56 108.67 100.65 C 107.77 100.73 107.11 101.53 107.19 102.43 Z M 107.28 103.39 L 107.37 104.37 C 107.45 105.27 108.25 105.93 109.15 105.85 C 110.05 105.77 110.72 104.98 110.63 104.07 L 110.55 103.10 C 110.46 102.19 109.67 101.53 108.77 101.61 C 107.87 101.69 107.20 102.49 107.28 103.39 Z M 107.37 104.36 L 107.46 105.35 C 107.53 106.26 108.33 106.92 109.23 106.84 C 110.13 106.77 110.80 105.97 110.72 105.07 L 110.63 104.08 C 110.56 103.18 109.76 102.51 108.86 102.59 C 107.96 102.67 107.29 103.46 107.37 104.36 Z M 107.46 105.35 L 107.54 106.35 C 107.62 107.26 108.41 107.92 109.31 107.85 C 110.21 107.77 110.88 106.98 110.80 106.08 L 110.72 105.07 C 110.64 104.17 109.85 103.50 108.95 103.58 C 108.05 103.66 107.38 104.45 107.46 105.35 Z M 107.54 106.35 L 107.62 107.36 C 107.70 108.27 108.49 108.94 109.39 108.86 C 110.29 108.79 110.96 108.00 110.89 107.10 L 110.80 106.08 C 110.73 105.18 109.94 104.51 109.04 104.59 C 108.14 104.66 107.47 105.45 107.54 106.35 Z M 107.62 107.36 L 107.71 108.38 C 107.78 109.29 108.57 109.96 109.47 109.89 C 110.37 109.82 111.04 109.03 110.97 108.13 L 110.89 107.10 C 110.82 106.20 110.03 105.53 109.13 105.60 C 108.23 105.67 107.55 106.46 107.62 107.36 Z M 107.71 108.38 L 107.78 109.41 C 107.85 110.31 108.64 110.99 109.54 110.92 C 110.44 110.85 111.12 110.06 111.05 109.16 L 110.97 108.13 C 110.90 107.23 110.11 106.56 109.21 106.62 C 108.31 106.69 107.64 107.48 107.71 108.38 Z M 107.79 109.41 L 107.86 110.45 C 107.93 111.35 108.71 112.02 109.61 111.96 C 110.51 111.89 111.19 111.10 111.12 110.20 L 111.05 109.17 C 110.98 108.27 110.20 107.59 109.30 107.66 C 108.39 107.72 107.72 108.51 107.79 109.41 Z M 107.86 110.44 L 107.94 111.47 C 108.00 112.37 108.78 113.05 109.68 112.99 C 110.58 112.92 111.26 112.14 111.20 111.24 L 111.12 110.21 C 111.06 109.31 110.28 108.63 109.38 108.69 C 108.48 108.76 107.80 109.54 107.86 110.44 Z M 107.94 111.47 L 108.00 112.45 C 108.07 113.35 108.85 114.03 109.75 113.97 C 110.65 113.90 111.33 113.12 111.27 112.22 L 111.20 111.24 C 111.14 110.34 110.35 109.66 109.45 109.72 C 108.55 109.79 107.87 110.57 107.94 111.47 Z M 108.00 112.44 L 108.07 113.43 C 108.13 114.33 108.91 115.01 109.81 114.95 C 110.71 114.89 111.39 114.11 111.33 113.21 L 111.27 112.23 C 111.21 111.32 110.43 110.64 109.53 110.70 C 108.63 110.76 107.94 111.54 108.00 112.44 Z M 108.07 113.42 L 108.13 114.41 C 108.19 115.31 108.97 115.99 109.87 115.93 C 110.77 115.88 111.45 115.10 111.40 114.20 L 111.33 113.21 C 111.27 112.31 110.50 111.63 109.60 111.69 C 108.69 111.74 108.01 112.52 108.07 113.42 Z M 108.13 114.41 L 108.20 115.39 C 108.25 116.30 109.03 116.98 109.93 116.92 C 110.83 116.87 111.51 116.09 111.46 115.19 L 111.40 114.20 C 111.34 113.30 110.56 112.62 109.66 112.67 C 108.76 112.73 108.08 113.50 108.13 114.41 Z M 108.20 115.39 L 108.26 116.38 C 108.31 117.28 109.08 117.97 109.99 117.92 C 110.89 117.86 111.57 117.09 111.52 116.19 L 111.46 115.19 C 111.40 114.29 110.63 113.61 109.73 113.66 C 108.83 113.72 108.14 114.49 108.20 115.39 Z M 108.26 116.38 L 108.31 117.38 C 108.37 118.28 109.14 118.97 110.04 118.91 C 110.94 118.86 111.63 118.09 111.58 117.19 L 111.52 116.19 C 111.47 115.29 110.69 114.60 109.79 114.65 C 108.89 114.71 108.20 115.48 108.26 116.38 Z M 108.31 117.37 L 108.37 118.38 C 108.42 119.28 109.19 119.97 110.09 119.91 C 110.99 119.86 111.68 119.09 111.63 118.19 L 111.58 117.19 C 111.53 116.29 110.75 115.60 109.85 115.65 C 108.95 115.70 108.26 116.47 108.31 117.37 Z M 108.37 118.37 L 108.42 119.38 C 108.47 120.28 109.24 120.97 110.14 120.92 C 111.04 120.87 111.73 120.10 111.69 119.20 L 111.63 118.20 C 111.58 117.30 110.81 116.60 109.91 116.65 C 109.01 116.70 108.32 117.47 108.37 118.37 Z M 108.42 119.37 L 108.48 120.38 C 108.52 121.28 109.29 121.98 110.19 121.93 C 111.09 121.88 111.78 121.12 111.74 120.22 L 111.69 119.21 C 111.64 118.30 110.87 117.61 109.97 117.66 C 109.07 117.70 108.38 118.47 108.42 119.37 Z M 108.48 120.38 L 108.53 121.39 C 108.57 122.30 109.34 122.99 110.24 122.95 C 111.14 122.90 111.83 122.13 111.79 121.23 L 111.74 120.22 C 111.69 119.32 110.93 118.62 110.03 118.67 C 109.13 118.71 108.43 119.48 108.48 120.38 Z M 108.53 121.39 L 108.57 122.41 C 108.62 123.31 109.38 124.01 110.28 123.96 C 111.18 123.92 111.88 123.16 111.84 122.26 L 111.79 121.24 C 111.75 120.34 110.98 119.64 110.08 119.68 C 109.18 119.73 108.48 120.49 108.53 121.39 Z M 108.57 122.41 L 108.62 123.40 C 108.66 124.30 109.42 125.00 110.32 124.96 C 111.22 124.92 111.92 124.16 111.88 123.26 L 111.84 122.26 C 111.80 121.36 111.03 120.66 110.13 120.70 C 109.23 120.74 108.53 121.51 108.57 122.41 Z M 108.62 123.40 L 108.66 124.39 C 108.70 125.29 109.46 125.99 110.36 125.95 C 111.26 125.91 111.96 125.15 111.92 124.25 L 111.88 123.26 C 111.84 122.36 111.08 121.66 110.18 121.70 C 109.28 121.74 108.58 122.50 108.62 123.40 Z M 108.66 124.39 L 108.70 125.38 C 108.74 126.28 109.50 126.98 110.40 126.95 C 111.30 126.91 112.00 126.15 111.96 125.25 L 111.92 124.25 C 111.89 123.35 111.13 122.65 110.22 122.69 C 109.32 122.73 108.62 123.49 108.66 124.39 Z M 108.70 125.38 L 108.74 126.37 C 108.77 127.28 109.53 127.98 110.43 127.94 C 111.34 127.91 112.04 127.15 112.00 126.25 L 111.96 125.25 C 111.93 124.35 111.17 123.65 110.27 123.68 C 109.37 123.72 108.66 124.48 108.70 125.38 Z M 108.74 126.37 L 108.78 127.37 C 108.81 128.27 109.57 128.98 110.47 128.94 C 111.37 128.91 112.07 128.15 112.04 127.25 L 112.00 126.25 C 111.97 125.35 111.21 124.64 110.31 124.68 C 109.41 124.71 108.70 125.47 108.74 126.37 Z M 108.78 127.37 L 108.81 128.37 C 108.84 129.27 109.60 129.98 110.50 129.94 C 111.40 129.91 112.11 129.15 112.08 128.25 L 112.04 127.25 C 112.01 126.35 111.25 125.64 110.35 125.68 C 109.45 125.71 108.74 126.47 108.78 127.37 Z M 108.81 128.37 L 108.85 129.37 C 108.88 130.27 109.63 130.98 110.53 130.95 C 111.44 130.92 112.14 130.16 112.11 129.26 L 112.08 128.25 C 112.05 127.35 111.29 126.65 110.39 126.68 C 109.49 126.71 108.78 127.47 108.81 128.37 Z M 108.85 129.37 L 108.88 130.37 C 108.91 131.27 109.66 131.98 110.57 131.95 C 111.47 131.92 112.17 131.17 112.14 130.26 L 112.11 129.26 C 112.08 128.36 111.33 127.65 110.42 127.68 C 109.52 127.71 108.82 128.47 108.85 129.37 Z M 108.88 130.37 L 108.91 131.37 C 108.94 132.28 109.69 132.98 110.59 132.96 C 111.50 132.93 112.21 132.17 112.18 131.27 L 112.14 130.27 C 112.12 129.36 111.36 128.66 110.46 128.68 C 109.56 128.71 108.85 129.47 108.88 130.37 Z M 108.91 131.37 L 108.94 132.38 C 108.97 133.28 109.72 133.99 110.62 133.96 C 111.53 133.93 112.23 133.18 112.21 132.28 L 112.18 131.27 C 112.15 130.37 111.40 129.66 110.49 129.69 C 109.59 129.72 108.88 130.47 108.91 131.37 Z M 108.94 132.37 L 108.97 133.38 C 109.00 134.28 109.75 134.99 110.65 134.96 C 111.55 134.94 112.26 134.18 112.24 133.28 L 112.21 132.28 C 112.18 131.38 111.43 130.67 110.53 130.69 C 109.62 130.72 108.91 131.47 108.94 132.37 Z M 108.97 133.38 L 109.00 134.38 C 109.02 135.28 109.78 135.99 110.68 135.97 C 111.58 135.94 112.29 135.19 112.27 134.29 L 112.24 133.28 C 112.21 132.38 111.46 131.67 110.56 131.70 C 109.65 131.72 108.94 132.47 108.97 133.38 Z M 109.00 134.38 L 109.03 135.39 C 109.05 136.30 109.80 137.01 110.70 136.98 C 111.61 136.96 112.32 136.21 112.29 135.30 L 112.27 134.29 C 112.24 133.38 111.49 132.67 110.59 132.70 C 109.68 132.72 108.97 133.47 109.00 134.38 Z M 109.02 135.39 L 109.05 136.41 C 109.08 137.31 109.83 138.02 110.73 138.00 C 111.63 137.98 112.35 137.23 112.32 136.32 L 112.29 135.30 C 112.27 134.40 111.52 133.69 110.62 133.71 C 109.71 133.74 109.00 134.49 109.02 135.39 Z M 109.05 136.41 L 109.08 137.42 C 109.10 138.33 109.85 139.04 110.76 139.02 C 111.66 138.99 112.37 138.24 112.35 137.34 L 112.32 136.32 C 112.30 135.42 111.55 134.71 110.64 134.73 C 109.74 134.75 109.03 135.50 109.05 136.41 Z M 109.08 137.42 L 109.10 138.43 C 109.12 139.34 109.87 140.05 110.78 140.03 C 111.68 140.01 112.40 139.26 112.37 138.35 L 112.35 137.34 C 112.33 136.44 111.58 135.72 110.67 135.74 C 109.77 135.77 109.05 136.52 109.08 137.42 Z M 109.10 138.43 L 109.12 139.44 C 109.15 140.34 109.90 141.06 110.80 141.04 C 111.71 141.02 112.42 140.27 112.40 139.36 L 112.38 138.35 C 112.35 137.45 111.60 136.73 110.70 136.76 C 109.79 136.78 109.08 137.53 109.10 138.43 Z M 109.12 139.44 L 109.15 140.44 C 109.17 141.35 109.92 142.06 110.82 142.04 C 111.73 142.02 112.44 141.27 112.42 140.37 L 112.40 139.36 C 112.38 138.46 111.63 137.74 110.72 137.76 C 109.82 137.78 109.10 138.53 109.12 139.44 Z M 109.15 140.44 L 109.17 141.44 C 109.19 142.35 109.94 143.06 110.84 143.04 C 111.75 143.02 112.47 142.27 112.45 141.37 L 112.42 140.37 C 112.40 139.46 111.65 138.75 110.75 138.77 C 109.84 138.79 109.13 139.54 109.15 140.44 Z M 109.17 141.44 L 109.19 142.44 C 109.21 143.34 109.96 144.06 110.86 144.04 C 111.77 144.02 112.49 143.27 112.47 142.37 L 112.45 141.37 C 112.43 140.46 111.68 139.75 110.77 139.77 C 109.87 139.79 109.15 140.53 109.17 141.44 Z M 109.19 142.43 L 109.21 143.42 C 109.23 144.33 109.98 145.05 110.88 145.03 C 111.79 145.01 112.51 144.26 112.49 143.36 L 112.47 142.37 C 112.45 141.46 111.70 140.74 110.80 140.76 C 109.89 140.78 109.17 141.53 109.19 142.43 Z M 109.21 143.42 L 109.23 144.41 C 109.25 145.31 109.99 146.04 110.90 146.02 C 111.81 146.00 112.53 145.25 112.51 144.34 L 112.49 143.36 C 112.47 142.45 111.72 141.73 110.82 141.75 C 109.91 141.77 109.19 142.52 109.21 143.42 Z M 109.23 144.41 L 109.24 145.39 C 109.26 146.29 110.01 147.01 110.92 147.00 C 111.83 146.98 112.55 146.23 112.53 145.32 L 112.51 144.35 C 112.49 143.44 111.74 142.72 110.84 142.73 C 109.93 142.75 109.21 143.50 109.23 144.41 Z M 109.24 145.38 L 109.26 146.36 C 109.28 147.27 110.03 147.99 110.93 147.98 C 111.84 147.96 112.56 147.21 112.55 146.30 L 112.53 145.33 C 112.51 144.42 111.77 143.70 110.86 143.71 C 109.95 143.73 109.23 144.48 109.24 145.38 Z M 109.26 146.36 L 109.28 147.39 C 109.29 148.30 110.04 149.03 110.95 149.01 C 111.86 148.99 112.58 148.25 112.57 147.34 L 112.55 146.30 C 112.53 145.40 111.78 144.67 110.88 144.69 C 109.97 144.70 109.25 145.45 109.26 146.36 Z M 109.28 147.39 L 109.29 148.42 C 109.31 149.33 110.06 150.05 110.97 150.04 C 111.87 150.02 112.60 149.27 112.58 148.37 L 112.57 147.34 C 112.55 146.43 111.80 145.71 110.90 145.72 C 109.99 145.74 109.26 146.48 109.28 147.39 Z M 109.29 148.42 L 109.31 149.44 C 109.32 150.34 110.07 151.07 110.98 151.06 C 111.89 151.04 112.61 150.30 112.60 149.39 L 112.58 148.37 C 112.57 147.46 111.82 146.73 110.91 146.75 C 110.01 146.76 109.28 147.51 109.29 148.42 Z M 109.31 149.43 L 109.32 150.45 C 109.34 151.35 110.08 152.08 110.99 152.07 C 111.90 152.06 112.63 151.31 112.61 150.40 L 112.60 149.39 C 112.59 148.48 111.84 147.75 110.93 147.77 C 110.02 147.78 109.30 148.53 109.31 149.43 Z M 109.32 150.45 L 109.34 151.45 C 109.35 152.36 110.09 153.08 111.00 153.07 C 111.91 153.06 112.64 152.32 112.63 151.41 L 112.61 150.40 C 112.60 149.49 111.86 148.77 110.95 148.78 C 110.04 148.79 109.31 149.54 109.32 150.45 Z M 109.34 151.45 L 109.35 152.45 C 109.36 153.35 110.10 154.08 111.01 154.07 C 111.92 154.06 112.65 153.32 112.64 152.41 L 112.63 151.41 C 112.62 150.50 111.87 149.77 110.96 149.78 C 110.05 149.79 109.33 150.54 109.34 151.45 Z M 109.35 152.44 L 109.36 153.44 C 109.37 154.34 110.11 155.07 111.02 155.06 C 111.93 155.05 112.66 154.31 112.65 153.40 L 112.64 152.41 C 112.63 151.50 111.88 150.77 110.98 150.78 C 110.07 150.79 109.34 151.54 109.35 152.44 Z M 109.36 153.43 L 109.37 154.42 C 109.38 155.33 110.12 156.06 111.03 156.05 C 111.94 156.04 112.67 155.30 112.66 154.39 L 112.65 153.40 C 112.64 152.49 111.90 151.76 110.99 151.77 C 110.08 151.78 109.35 152.53 109.36 153.43 Z M 109.37 154.42 L 109.38 155.40 C 109.39 156.31 110.13 157.04 111.04 157.03 C 111.95 157.02 112.68 156.28 112.67 155.37 L 112.66 154.39 C 112.65 153.48 111.91 152.75 111.00 152.76 C 110.09 152.77 109.36 153.51 109.37 154.42 Z M 109.38 155.40 L 109.38 156.37 C 109.39 157.28 110.13 158.01 111.04 158.00 C 111.95 157.99 112.68 157.25 112.68 156.34 L 112.67 155.37 C 112.66 154.46 111.92 153.73 111.01 153.74 C 110.10 153.74 109.37 154.49 109.38 155.40 Z M 109.38 156.37 L 109.39 157.34 C 109.40 158.25 110.14 158.98 111.05 158.98 C 111.96 158.97 112.69 158.23 112.68 157.32 L 112.68 156.34 C 112.67 155.44 111.93 154.70 111.02 154.71 C 110.11 154.72 109.38 155.46 109.38 156.37 Z M 109.39 157.34 L 109.40 158.35 C 109.40 159.26 110.14 159.99 111.05 159.98 C 111.96 159.98 112.69 159.24 112.69 158.33 L 112.68 157.32 C 112.68 156.41 111.94 155.68 111.03 155.68 C 110.12 155.69 109.39 156.43 109.39 157.34 Z M 109.40 158.34 L 109.40 159.35 C 109.40 160.26 110.15 160.99 111.05 160.99 C 111.96 160.98 112.70 160.24 112.69 159.33 L 112.69 158.33 C 112.68 157.42 111.94 156.69 111.03 156.69 C 110.13 156.70 109.39 157.44 109.40 158.34 Z M 109.40 159.35 L 109.40 160.34 C 109.41 161.25 110.15 161.99 111.06 161.98 C 111.97 161.98 112.70 161.24 112.70 160.33 L 112.69 159.33 C 112.69 158.42 111.95 157.69 111.04 157.69 C 110.13 157.70 109.40 158.44 109.40 159.35 Z M 109.40 160.34 L 109.41 161.34 C 109.41 162.25 110.15 162.98 111.06 162.98 C 111.97 162.98 112.70 162.24 112.70 161.33 L 112.70 160.33 C 112.69 159.42 111.95 158.69 111.05 158.69 C 110.14 158.69 109.40 159.43 109.40 160.34 Z M 109.41 161.34 L 109.41 162.33 C 109.41 163.24 110.15 163.98 111.06 163.97 C 111.97 163.97 112.70 163.23 112.70 162.33 L 112.70 161.33 C 112.70 160.42 111.96 159.69 111.05 159.69 C 110.14 159.69 109.41 160.43 109.41 161.34 Z M 109.41 162.33 L 109.41 163.33 C 109.41 164.23 110.15 164.97 111.06 164.97 C 111.97 164.97 112.70 164.23 112.70 163.32 L 112.70 162.33 C 112.70 161.42 111.96 160.68 111.05 160.68 C 110.14 160.68 109.41 161.42 109.41 162.33 Z M 109.41 163.33 L 109.41 164.32 C 109.41 165.23 110.15 165.97 111.06 165.96 C 111.97 165.96 112.70 165.23 112.70 164.32 L 112.70 163.32 C 112.70 162.41 111.96 161.68 111.05 161.68 C 110.15 161.68 109.41 162.42 109.41 163.33 Z M 109.41 164.32 L 109.41 165.32 C 109.41 166.23 110.15 166.96 111.06 166.96 C 111.97 166.96 112.70 166.23 112.70 165.32 L 112.70 164.32 C 112.70 163.41 111.96 162.67 111.06 162.67 C 110.15 162.68 109.41 163.41 109.41 164.32 Z M 109.41 165.32 L 109.41 166.32 C 109.41 167.23 110.15 167.96 111.06 167.96 C 111.97 167.96 112.70 167.23 112.70 166.32 L 112.70 165.32 C 112.70 164.41 111.97 163.67 111.06 163.67 C 110.15 163.67 109.41 164.41 109.41 165.32 Z M 109.41 166.32 L 109.41 167.33 C 109.41 168.23 110.15 168.97 111.06 168.97 C 111.97 168.97 112.70 168.23 112.70 167.33 L 112.70 166.32 C 112.70 165.41 111.97 164.68 111.06 164.68 C 110.15 164.68 109.41 165.41 109.41 166.32 Z M 109.41 167.33 L 109.41 168.35 C 109.41 169.26 110.15 170.00 111.06 170.00 C 111.97 170.00 112.70 169.26 112.70 168.35 L 112.70 167.33 C 112.70 166.42 111.97 165.68 111.06 165.68 C 110.15 165.68 109.41 166.42 109.41 167.33 Z M 109.41 168.35 L 109.41 169.39 C 109.41 170.30 110.15 171.03 111.06 171.03 C 111.97 171.03 112.70 170.30 112.70 169.39 L 112.70 168.35 C 112.70 167.44 111.97 166.70 111.06 166.70 C 110.15 166.70 109.41 167.44 109.41 168.35 Z M 109.41 169.39 L 109.41 170.42 C 109.41 171.33 110.15 172.07 111.06 172.07 C 111.97 172.07 112.71 171.33 112.71 170.42 L 112.71 169.39 C 112.71 168.48 111.97 167.74 111.06 167.74 C 110.15 167.74 109.41 168.48 109.41 169.39 Z M 109.41 170.42 L 109.41 171.45 C 109.41 172.37 110.15 173.11 111.06 173.11 C 111.97 173.11 112.71 172.37 112.71 171.45 L 112.71 170.42 C 112.71 169.51 111.97 168.77 111.06 168.77 C 110.15 168.77 109.41 169.51 109.41 170.42 Z M 109.40 171.45 L 109.40 172.48 C 109.40 173.39 110.14 174.13 111.06 174.13 C 111.97 174.13 112.71 173.39 112.71 172.48 L 112.71 171.45 C 112.71 170.54 111.97 169.80 111.06 169.80 C 110.14 169.80 109.40 170.54 109.40 171.45 Z M 109.40 172.48 L 109.40 173.49 C 109.40 174.41 110.14 175.15 111.06 175.15 C 111.97 175.15 112.71 174.41 112.71 173.49 L 112.71 172.48 C 112.71 171.56 111.97 170.82 111.06 170.82 C 110.14 170.82 109.40 171.56 109.40 172.48 Z M 109.40 173.49 L 109.40 174.49 C 109.40 175.41 110.14 176.15 111.06 176.15 C 111.97 176.15 112.72 175.41 112.72 174.49 L 112.72 173.49 C 112.72 172.58 111.97 171.84 111.06 171.84 C 110.14 171.84 109.40 172.58 109.40 173.49 Z M 109.40 174.49 L 109.40 175.48 C 109.40 176.39 110.14 177.14 111.06 177.14 C 111.97 177.14 112.72 176.39 112.72 175.48 L 112.72 174.49 C 112.72 173.58 111.97 172.83 111.06 172.83 C 110.14 172.83 109.40 173.58 109.40 174.49 Z M 109.40 175.48 L 109.40 176.44 C 109.40 177.35 110.14 178.10 111.06 178.10 C 111.98 178.10 112.72 177.35 112.72 176.44 L 112.72 175.48 C 112.72 174.56 111.98 173.81 111.06 173.81 C 110.14 173.81 109.40 174.56 109.40 175.48 Z M 109.39 176.44 L 109.39 177.37 C 109.39 178.29 110.14 179.04 111.06 179.04 C 111.98 179.04 112.72 178.29 112.72 177.37 L 112.72 176.44 C 112.72 175.52 111.98 174.77 111.06 174.77 C 110.14 174.77 109.39 175.52 109.39 176.44 Z M 109.39 177.37 L 109.39 178.39 C 109.39 179.31 110.14 180.06 111.06 180.06 C 111.98 180.06 112.72 179.31 112.72 178.39 L 112.72 177.37 C 112.72 176.45 111.98 175.71 111.06 175.71 C 110.14 175.71 109.39 176.45 109.39 177.37 Z M 109.39 178.39 L 109.39 179.50 C 109.39 180.42 110.14 181.16 111.06 181.16 C 111.98 181.16 112.72 180.42 112.72 179.50 L 112.72 178.39 C 112.73 177.47 111.98 176.73 111.06 176.73 C 110.14 176.73 109.39 177.47 109.39 178.39 Z M 109.39 179.49 L 109.39 180.55 C 109.39 181.48 110.13 182.22 111.05 182.22 C 111.97 182.23 112.72 181.48 112.72 180.56 L 112.73 179.50 C 112.73 178.58 111.98 177.83 111.06 177.83 C 110.14 177.83 109.39 178.57 109.39 179.49 Z M 109.39 180.55 L 109.38 181.57 C 109.38 182.50 110.13 183.25 111.05 183.25 C 111.97 183.25 112.72 182.51 112.72 181.58 L 112.73 180.56 C 112.73 179.64 111.98 178.89 111.06 178.89 C 110.14 178.88 109.39 179.63 109.39 180.55 Z M 109.38 181.57 L 109.38 182.56 C 109.37 183.48 110.11 184.23 111.04 184.24 C 111.96 184.24 112.71 183.50 112.72 182.58 L 112.72 181.59 C 112.73 180.67 111.99 179.91 111.06 179.91 C 110.14 179.90 109.39 180.65 109.38 181.57 Z M 109.37 182.55 L 109.37 183.51 C 109.36 184.44 110.10 185.19 111.02 185.20 C 111.94 185.21 112.70 184.47 112.71 183.55 L 112.72 182.59 C 112.73 181.66 111.99 180.91 111.06 180.90 C 110.14 180.89 109.38 181.63 109.37 182.55 Z M 109.36 183.51 L 109.35 184.44 C 109.34 185.37 110.08 186.13 111.00 186.14 C 111.92 186.15 112.68 185.42 112.70 184.49 L 112.71 183.55 C 112.72 182.63 111.99 181.87 111.06 181.86 C 110.14 181.84 109.38 182.58 109.36 183.51 Z M 109.35 184.43 L 109.33 185.35 C 109.31 186.28 110.05 187.04 110.97 187.06 C 111.90 187.08 112.66 186.34 112.68 185.42 L 112.70 184.50 C 112.72 183.58 111.98 182.81 111.06 182.79 C 110.13 182.78 109.37 183.51 109.35 184.43 Z M 109.33 185.34 L 109.30 186.30 C 109.28 187.23 110.01 188.00 110.93 188.02 C 111.86 188.05 112.63 187.32 112.66 186.39 L 112.68 185.43 C 112.71 184.51 111.98 183.73 111.05 183.71 C 110.13 183.69 109.35 184.42 109.33 185.34 Z M 109.30 186.29 L 109.27 187.33 C 109.23 188.25 109.96 189.03 110.89 189.06 C 111.81 189.10 112.59 188.37 112.62 187.44 L 112.66 186.41 C 112.69 185.48 111.96 184.70 111.04 184.67 C 110.11 184.64 109.33 185.36 109.30 186.29 Z M 109.26 187.31 L 109.22 188.34 C 109.18 189.26 109.90 190.05 110.83 190.09 C 111.76 190.13 112.54 189.41 112.58 188.48 L 112.62 187.46 C 112.66 186.53 111.94 185.74 111.02 185.70 C 110.09 185.66 109.30 186.39 109.26 187.31 Z M 109.22 188.32 L 109.17 189.33 C 109.12 190.26 109.83 191.05 110.76 191.10 C 111.69 191.14 112.49 190.43 112.53 189.50 L 112.58 188.49 C 112.63 187.56 111.92 186.77 110.99 186.72 C 110.06 186.68 109.26 187.39 109.22 188.32 Z M 109.16 189.32 L 109.10 190.31 C 109.05 191.24 109.76 192.04 110.69 192.09 C 111.62 192.15 112.42 191.44 112.48 190.50 L 112.54 189.51 C 112.59 188.58 111.88 187.78 110.95 187.73 C 110.02 187.67 109.22 188.38 109.16 189.32 Z M 109.10 190.29 L 109.04 191.27 C 108.98 192.20 109.68 193.01 110.62 193.07 C 111.55 193.13 112.36 192.43 112.42 191.49 L 112.48 190.52 C 112.54 189.58 111.84 188.78 110.90 188.72 C 109.97 188.65 109.16 189.36 109.10 190.29 Z M 109.03 191.26 L 108.96 192.22 C 108.90 193.15 109.60 193.97 110.53 194.04 C 111.47 194.10 112.28 193.40 112.35 192.47 L 112.42 191.51 C 112.49 190.57 111.79 189.76 110.85 189.69 C 109.92 189.62 109.10 190.32 109.03 191.26 Z M 108.96 192.21 L 108.88 193.20 C 108.81 194.13 109.50 194.95 110.44 195.03 C 111.38 195.10 112.20 194.40 112.27 193.47 L 112.35 192.48 C 112.43 191.54 111.73 190.72 110.79 190.65 C 109.86 190.57 109.04 191.27 108.96 192.21 Z M 108.88 193.18 L 108.79 194.21 C 108.71 195.14 109.40 195.97 110.34 196.05 C 111.27 196.13 112.10 195.44 112.18 194.50 L 112.27 193.48 C 112.35 192.55 111.66 191.72 110.73 191.64 C 109.79 191.56 108.96 192.25 108.88 193.18 Z M 108.79 194.20 L 108.70 195.20 C 108.61 196.14 109.30 196.97 110.23 197.05 C 111.17 197.14 112.00 196.46 112.09 195.52 L 112.18 194.51 C 112.27 193.58 111.58 192.75 110.65 192.66 C 109.71 192.57 108.88 193.26 108.79 194.20 Z M 108.70 195.19 L 108.60 196.19 C 108.51 197.12 109.19 197.96 110.13 198.05 C 111.06 198.14 111.89 197.46 111.99 196.52 L 112.08 195.53 C 112.18 194.60 111.49 193.76 110.56 193.67 C 109.63 193.58 108.79 194.26 108.70 195.19 Z M 108.60 196.18 L 108.50 197.17 C 108.40 198.10 109.08 198.94 110.02 199.03 C 110.95 199.13 111.79 198.45 111.88 197.52 L 111.98 196.53 C 112.08 195.60 111.40 194.76 110.47 194.67 C 109.53 194.57 108.70 195.25 108.60 196.18 Z M 108.50 197.16 L 108.40 198.14 C 108.30 199.07 108.97 199.91 109.91 200.01 C 110.84 200.11 111.68 199.43 111.78 198.50 L 111.88 197.52 C 111.98 196.59 111.31 195.75 110.37 195.65 C 109.44 195.55 108.60 196.23 108.50 197.16 Z M 108.40 198.13 L 108.29 199.11 C 108.19 200.04 108.87 200.88 109.80 200.98 C 110.73 201.08 111.57 200.40 111.67 199.47 L 111.78 198.50 C 111.88 197.56 111.20 196.73 110.27 196.63 C 109.34 196.52 108.50 197.20 108.40 198.13 Z M 108.29 199.10 L 108.18 200.12 C 108.08 201.05 108.75 201.89 109.69 201.99 C 110.62 202.09 111.46 201.42 111.56 200.48 L 111.67 199.47 C 111.78 198.54 111.10 197.70 110.17 197.60 C 109.23 197.50 108.39 198.17 108.29 199.10 Z M 108.18 200.12 L 108.07 201.12 C 107.97 202.05 108.64 202.89 109.58 203.00 C 110.51 203.10 111.35 202.42 111.46 201.49 L 111.56 200.48 C 111.67 199.55 110.99 198.71 110.06 198.61 C 109.12 198.51 108.28 199.18 108.18 200.12 Z M 108.07 201.12 L 107.96 202.12 C 107.86 203.05 108.54 203.89 109.47 204.00 C 110.41 204.10 111.25 203.42 111.35 202.49 L 111.46 201.49 C 111.56 200.55 110.88 199.71 109.95 199.61 C 109.01 199.51 108.17 200.19 108.07 201.12 Z M 107.96 202.12 L 107.85 203.11 C 107.75 204.05 108.43 204.89 109.37 204.99 C 110.30 205.09 111.14 204.41 111.24 203.47 L 111.35 202.48 C 111.45 201.55 110.77 200.71 109.84 200.61 C 108.90 200.51 108.06 201.18 107.96 202.12 Z M 107.85 203.11 L 107.75 204.09 C 107.65 205.03 108.33 205.87 109.27 205.97 C 110.20 206.07 111.04 205.39 111.14 204.45 L 111.25 203.47 C 111.34 202.53 110.66 201.69 109.73 201.59 C 108.79 201.50 107.95 202.17 107.85 203.11 Z M 107.75 204.10 L 107.65 205.08 C 107.55 206.01 108.23 206.85 109.17 206.95 C 110.11 207.05 110.94 206.37 111.04 205.43 L 111.14 204.45 C 111.24 203.51 110.56 202.67 109.62 202.58 C 108.68 202.48 107.84 203.16 107.75 204.10 Z M 107.65 205.08 L 107.55 206.08 C 107.45 207.02 108.14 207.85 109.07 207.95 C 110.01 208.04 110.85 207.36 110.94 206.42 L 111.04 205.42 C 111.14 204.48 110.45 203.65 109.51 203.55 C 108.58 203.46 107.74 204.14 107.65 205.08 Z M 107.55 206.09 L 107.45 207.08 C 107.36 208.01 108.05 208.85 108.99 208.94 C 109.92 209.03 110.76 208.34 110.85 207.40 L 110.94 206.41 C 111.03 205.47 110.34 204.64 109.41 204.55 C 108.47 204.46 107.64 205.15 107.55 206.09 Z M 107.45 207.09 L 107.36 208.08 C 107.28 209.01 107.97 209.84 108.91 209.93 C 109.84 210.01 110.67 209.32 110.75 208.38 L 110.84 207.39 C 110.93 206.46 110.24 205.63 109.30 205.54 C 108.37 205.46 107.54 206.15 107.45 207.09 Z M 107.37 208.09 L 107.28 209.08 C 107.20 210.02 107.90 210.84 108.83 210.92 C 109.77 211.00 110.59 210.30 110.67 209.37 L 110.75 208.37 C 110.83 207.44 110.14 206.62 109.20 206.54 C 108.27 206.46 107.44 207.15 107.37 208.09 Z M 107.28 209.09 L 107.21 210.09 C 107.13 211.03 107.83 211.84 108.77 211.92 C 109.70 211.99 110.52 211.29 110.59 210.35 L 110.67 209.36 C 110.74 208.42 110.04 207.60 109.11 207.53 C 108.17 207.46 107.36 208.16 107.28 209.09 Z M 107.21 210.11 L 107.14 211.12 C 107.07 212.06 107.78 212.87 108.71 212.93 C 109.65 213.00 110.45 212.29 110.52 211.36 L 110.59 210.34 C 110.65 209.41 109.95 208.60 109.02 208.53 C 108.08 208.47 107.27 209.17 107.21 210.11 Z M 107.14 211.14 L 107.07 212.18 C 107.02 213.11 107.73 213.92 108.66 213.97 C 109.59 214.03 110.40 213.32 110.45 212.39 L 110.52 211.34 C 110.58 210.41 109.87 209.61 108.93 209.55 C 108.00 209.49 107.19 210.20 107.14 211.14 Z M 107.07 212.19 L 107.02 213.23 C 106.97 214.16 107.68 214.96 108.62 215.01 C 109.55 215.06 110.35 214.35 110.40 213.41 L 110.45 212.38 C 110.51 211.44 109.79 210.64 108.86 210.59 C 107.92 210.54 107.12 211.26 107.07 212.19 Z M 107.02 213.24 L 106.97 214.26 C 106.92 215.19 107.64 215.98 108.57 216.03 C 109.51 216.07 110.30 215.35 110.35 214.42 L 110.40 213.40 C 110.44 212.47 109.72 211.68 108.79 211.63 C 107.86 211.58 107.06 212.30 107.02 213.24 Z M 106.97 214.26 L 106.92 215.25 C 106.88 216.18 107.60 216.97 108.54 217.01 C 109.47 217.06 110.26 216.33 110.30 215.40 L 110.35 214.41 C 110.39 213.48 109.67 212.69 108.73 212.65 C 107.80 212.61 107.01 213.33 106.97 214.26 Z M 106.92 215.25 L 106.89 216.19 C 106.85 217.13 107.57 217.91 108.50 217.95 C 109.44 217.99 110.23 217.27 110.26 216.33 L 110.30 215.39 C 110.34 214.46 109.62 213.67 108.68 213.63 C 107.75 213.60 106.96 214.32 106.92 215.25 Z M 106.89 216.20 L 106.85 217.25 C 106.81 218.18 107.54 218.97 108.47 219.00 C 109.40 219.04 110.18 218.31 110.22 217.38 L 110.26 216.33 C 110.30 215.40 109.57 214.61 108.64 214.58 C 107.71 214.54 106.92 215.27 106.89 216.20 Z M 106.85 217.26 L 106.81 218.33 C 106.78 219.26 107.50 220.04 108.43 220.07 C 109.36 220.11 110.14 219.38 110.18 218.45 L 110.22 217.38 C 110.25 216.45 109.52 215.67 108.59 215.63 C 107.67 215.60 106.88 216.33 106.85 217.26 Z M 106.82 218.34 L 106.79 219.33 C 106.76 220.25 107.48 221.03 108.41 221.06 C 109.34 221.09 110.11 220.36 110.14 219.43 L 110.17 218.45 C 110.20 217.52 109.47 216.74 108.55 216.72 C 107.62 216.69 106.85 217.41 106.82 218.34 Z M 106.79 219.34 L 106.77 220.25 C 106.74 221.18 107.47 221.94 108.40 221.97 C 109.32 221.99 110.09 221.26 110.11 220.34 L 110.13 219.42 C 110.16 218.50 109.43 217.73 108.51 217.71 C 107.58 217.68 106.82 218.41 106.79 219.34 Z M 106.77 220.27 L 106.76 221.20 C 106.74 222.12 107.47 222.88 108.39 222.89 C 109.31 222.91 110.07 222.18 110.09 221.26 L 110.10 220.33 C 110.12 219.41 109.39 218.65 108.47 218.63 C 107.55 218.61 106.79 219.35 106.77 220.27 Z M 106.76 221.21 L 106.75 222.21 C 106.74 223.13 107.48 223.88 108.39 223.89 C 109.31 223.90 110.06 223.16 110.07 222.24 L 110.08 221.25 C 110.09 220.33 109.36 219.58 108.44 219.57 C 107.52 219.56 106.77 220.29 106.76 221.21 Z M 106.75 222.22 L 106.75 223.20 C 106.74 224.12 107.48 224.87 108.40 224.87 C 109.31 224.87 110.06 224.13 110.06 223.22 L 110.07 222.23 C 110.07 221.32 109.33 220.57 108.42 220.57 C 107.50 220.56 106.76 221.30 106.75 222.22 Z M 106.75 223.21 L 106.75 224.21 C 106.75 225.13 107.49 225.87 108.40 225.87 C 109.32 225.87 110.06 225.13 110.06 224.22 L 110.06 223.21 C 110.06 222.30 109.32 221.56 108.41 221.56 C 107.49 221.56 106.75 222.30 106.75 223.21 Z M 106.76 224.22 L 106.76 225.30 C 106.76 226.21 107.50 226.94 108.41 226.94 C 109.32 226.94 110.06 226.20 110.06 225.29 L 110.05 224.21 C 110.05 223.30 109.31 222.56 108.40 222.57 C 107.49 222.57 106.76 223.31 106.76 224.22 Z M 106.77 225.33 L 106.79 226.39 C 106.81 227.30 107.56 228.02 108.46 228.00 C 109.37 227.98 110.09 227.23 110.07 226.33 L 110.05 225.26 C 110.03 224.35 109.28 223.64 108.37 223.65 C 107.47 223.67 106.75 224.42 106.77 225.33 Z M 106.80 226.47 L 106.87 227.43 C 106.93 228.33 107.71 229.01 108.61 228.94 C 109.51 228.88 110.18 228.10 110.12 227.21 L 110.06 226.25 C 109.99 225.35 109.22 224.67 108.32 224.74 C 107.42 224.80 106.74 225.57 106.80 226.47 Z M 106.91 227.65 L 107.12 228.65 C 107.30 229.52 108.16 230.08 109.03 229.90 C 109.91 229.72 110.47 228.86 110.29 227.99 L 110.08 226.99 C 109.90 226.12 109.04 225.55 108.17 225.73 C 107.29 225.92 106.73 226.77 106.91 227.65 Z M 107.32 229.11 L 107.78 229.92 C 108.22 230.68 109.20 230.94 109.96 230.50 C 110.72 230.07 110.99 229.09 110.55 228.33 L 110.09 227.52 C 109.65 226.76 108.67 226.50 107.91 226.93 C 107.14 227.37 106.88 228.35 107.32 229.11 Z M 107.97 230.15 L 108.14 230.34 C 108.70 231.01 109.70 231.08 110.36 230.52 C 111.02 229.95 111.10 228.95 110.53 228.29 L 110.36 228.10 C 109.80 227.43 108.80 227.36 108.14 227.92 C 107.48 228.49 107.40 229.49 107.97 230.15 Z"
      fill="black"
      fill-rule="nonzero" /><path d="M 165.54 144.45 L 164.65 144.05 C 163.86 143.70 162.94 144.05 162.59 144.83 C 162.23 145.62 162.59 146.54 163.37 146.90 L 164.26 147.30 C 165.05 147.65 165.97 147.30 166.33 146.51 C 166.68 145.73 166.33 144.80 165.54 144.45 Z M 164.59 144.02 L 163.67 143.66 C 162.87 143.34 161.96 143.73 161.64 144.54 C 161.33 145.34 161.72 146.25 162.52 146.56 L 163.44 146.93 C 164.24 147.24 165.15 146.85 165.46 146.05 C 165.78 145.25 165.39 144.34 164.59 144.02 Z M 163.54 143.62 L 162.58 143.33 C 161.75 143.08 160.88 143.55 160.63 144.38 C 160.39 145.20 160.86 146.07 161.68 146.32 L 162.65 146.61 C 163.48 146.85 164.35 146.38 164.59 145.56 C 164.84 144.73 164.37 143.86 163.54 143.62 Z M 162.40 143.28 L 161.41 143.11 C 160.56 142.97 159.75 143.53 159.61 144.38 C 159.46 145.23 160.03 146.04 160.88 146.19 L 161.86 146.36 C 162.71 146.51 163.52 145.94 163.67 145.09 C 163.82 144.24 163.25 143.43 162.40 143.28 Z M 161.23 143.09 L 160.27 143.04 C 159.41 142.99 158.67 143.65 158.62 144.51 C 158.58 145.38 159.24 146.11 160.10 146.16 L 161.06 146.21 C 161.92 146.26 162.66 145.60 162.70 144.74 C 162.75 143.88 162.09 143.14 161.23 143.09 Z M 160.10 143.04 L 159.10 143.09 C 158.24 143.13 157.58 143.87 157.62 144.73 C 157.67 145.59 158.40 146.25 159.26 146.21 L 160.26 146.16 C 161.12 146.12 161.78 145.38 161.74 144.52 C 161.70 143.66 160.97 143.00 160.10 143.04 Z M 158.95 143.11 L 157.93 143.26 C 157.08 143.39 156.49 144.19 156.62 145.04 C 156.75 145.89 157.55 146.48 158.40 146.35 L 159.42 146.19 C 160.27 146.06 160.85 145.27 160.73 144.41 C 160.60 143.56 159.80 142.98 158.95 143.11 Z M 157.78 143.29 L 156.80 143.54 C 155.96 143.76 155.46 144.61 155.67 145.44 C 155.89 146.28 156.74 146.78 157.57 146.57 L 158.55 146.32 C 159.39 146.10 159.89 145.25 159.68 144.42 C 159.46 143.58 158.61 143.08 157.78 143.29 Z M 156.66 143.59 L 155.78 143.90 C 154.97 144.19 154.55 145.08 154.84 145.90 C 155.13 146.71 156.03 147.13 156.84 146.84 L 157.71 146.53 C 158.52 146.23 158.95 145.34 158.66 144.53 C 158.36 143.72 157.47 143.29 156.66 143.59 Z M 155.67 143.94 L 154.80 144.34 C 154.01 144.69 153.66 145.61 154.01 146.40 C 154.36 147.19 155.29 147.54 156.07 147.19 L 156.95 146.79 C 157.74 146.44 158.09 145.52 157.74 144.73 C 157.38 143.94 156.46 143.59 155.67 143.94 Z M 154.71 144.38 L 153.82 144.84 C 153.06 145.24 152.76 146.19 153.16 146.95 C 153.56 147.71 154.50 148.01 155.27 147.61 L 156.16 147.14 C 156.92 146.74 157.22 145.80 156.82 145.04 C 156.42 144.27 155.48 143.98 154.71 144.38 Z M 153.76 144.88 L 152.84 145.41 C 152.09 145.85 151.84 146.80 152.27 147.55 C 152.71 148.29 153.66 148.55 154.41 148.11 L 155.33 147.58 C 156.08 147.14 156.33 146.19 155.89 145.44 C 155.46 144.70 154.50 144.44 153.76 144.88 Z M 152.80 145.44 L 151.91 145.99 C 151.18 146.45 150.95 147.41 151.41 148.14 C 151.86 148.87 152.83 149.10 153.56 148.64 L 154.45 148.09 C 155.18 147.63 155.40 146.67 154.95 145.94 C 154.49 145.21 153.53 144.98 152.80 145.44 Z M 151.89 146.01 L 151.04 146.56 C 150.31 147.02 150.11 147.99 150.58 148.71 C 151.05 149.44 152.01 149.64 152.74 149.18 L 153.58 148.63 C 154.31 148.16 154.51 147.19 154.04 146.47 C 153.58 145.74 152.61 145.54 151.89 146.01 Z M 151.02 146.57 L 150.16 147.14 C 149.45 147.62 149.25 148.58 149.73 149.30 C 150.21 150.02 151.18 150.21 151.90 149.74 L 152.75 149.16 C 153.47 148.69 153.66 147.72 153.19 147.00 C 152.71 146.28 151.74 146.09 151.02 146.57 Z M 150.15 147.15 L 149.30 147.72 C 148.59 148.21 148.40 149.18 148.89 149.89 C 149.37 150.60 150.35 150.79 151.06 150.31 L 151.91 149.73 C 152.62 149.24 152.81 148.27 152.32 147.56 C 151.84 146.85 150.87 146.66 150.15 147.15 Z M 149.29 147.73 L 148.47 148.30 C 147.76 148.79 147.58 149.76 148.07 150.47 C 148.56 151.18 149.53 151.36 150.24 150.87 L 151.07 150.30 C 151.78 149.81 151.96 148.84 151.47 148.13 C 150.98 147.42 150.00 147.24 149.29 147.73 Z M 148.46 148.30 L 147.68 148.84 C 146.98 149.34 146.80 150.31 147.30 151.02 C 147.79 151.73 148.76 151.90 149.47 151.41 L 150.25 150.86 C 150.96 150.37 151.13 149.40 150.64 148.69 C 150.15 147.98 149.17 147.81 148.46 148.30 Z M 147.68 148.85 L 146.80 149.47 C 146.09 149.96 145.92 150.93 146.41 151.64 C 146.91 152.35 147.88 152.52 148.59 152.02 L 149.47 151.40 C 150.18 150.91 150.35 149.94 149.86 149.23 C 149.36 148.52 148.39 148.35 147.68 148.85 Z M 146.79 149.47 L 145.96 150.05 C 145.26 150.54 145.09 151.52 145.58 152.22 C 146.08 152.93 147.05 153.10 147.76 152.61 L 148.59 152.02 C 149.29 151.53 149.46 150.56 148.97 149.85 C 148.47 149.14 147.50 148.97 146.79 149.47 Z M 145.97 150.05 L 145.18 150.60 C 144.47 151.09 144.30 152.07 144.79 152.77 C 145.28 153.48 146.26 153.65 146.96 153.16 L 147.75 152.61 C 148.46 152.11 148.63 151.14 148.14 150.43 C 147.65 149.73 146.67 149.55 145.97 150.05 Z M 145.18 150.60 L 144.40 151.14 C 143.69 151.63 143.51 152.60 144.01 153.31 C 144.50 154.02 145.47 154.20 146.18 153.70 L 146.96 153.16 C 147.67 152.67 147.84 151.70 147.35 150.99 C 146.86 150.28 145.89 150.11 145.18 150.60 Z M 144.41 151.13 L 143.61 151.68 C 142.90 152.17 142.72 153.14 143.21 153.85 C 143.69 154.56 144.67 154.74 145.38 154.25 L 146.17 153.71 C 146.88 153.22 147.06 152.25 146.58 151.54 C 146.09 150.83 145.12 150.65 144.41 151.13 Z M 143.62 151.67 L 142.80 152.23 C 142.09 152.71 141.90 153.68 142.39 154.39 C 142.87 155.11 143.84 155.29 144.56 154.81 L 145.37 154.26 C 146.08 153.78 146.27 152.80 145.79 152.09 C 145.30 151.38 144.33 151.19 143.62 151.67 Z M 142.81 152.22 L 141.97 152.78 C 141.26 153.26 141.07 154.23 141.55 154.95 C 142.03 155.66 143.00 155.86 143.71 155.38 L 144.55 154.81 C 145.27 154.33 145.46 153.37 144.98 152.65 C 144.50 151.93 143.53 151.74 142.81 152.22 Z M 141.98 152.78 L 141.13 153.34 C 140.42 153.82 140.22 154.79 140.70 155.50 C 141.17 156.22 142.14 156.42 142.86 155.94 L 143.71 155.38 C 144.43 154.90 144.62 153.93 144.14 153.21 C 143.67 152.50 142.70 152.30 141.98 152.78 Z M 141.14 153.34 L 140.29 153.89 C 139.57 154.37 139.37 155.34 139.85 156.06 C 140.32 156.78 141.29 156.98 142.01 156.50 L 142.86 155.94 C 143.58 155.47 143.78 154.50 143.30 153.78 C 142.83 153.06 141.86 152.86 141.14 153.34 Z M 140.30 153.89 L 139.45 154.44 C 138.73 154.91 138.53 155.88 139.00 156.60 C 139.47 157.32 140.44 157.53 141.16 157.06 L 142.01 156.50 C 142.73 156.03 142.93 155.07 142.46 154.34 C 141.99 153.62 141.02 153.42 140.30 153.89 Z M 139.46 154.44 L 138.62 154.98 C 137.90 155.45 137.69 156.42 138.16 157.14 C 138.63 157.87 139.60 158.07 140.32 157.60 L 141.16 157.06 C 141.88 156.59 142.09 155.62 141.62 154.90 C 141.15 154.17 140.18 153.97 139.46 154.44 Z M 138.62 154.98 L 137.79 155.52 C 137.07 155.99 136.86 156.96 137.33 157.68 C 137.80 158.41 138.77 158.61 139.49 158.14 L 140.32 157.60 C 141.05 157.13 141.25 156.16 140.78 155.44 C 140.31 154.72 139.35 154.51 138.62 154.98 Z M 137.79 155.52 L 136.95 156.07 C 136.23 156.54 136.02 157.51 136.49 158.23 C 136.97 158.95 137.93 159.16 138.65 158.69 L 139.49 158.14 C 140.21 157.67 140.42 156.70 139.95 155.98 C 139.48 155.26 138.51 155.05 137.79 155.52 Z M 136.95 156.07 L 136.11 156.62 C 135.39 157.09 135.19 158.06 135.66 158.78 C 136.13 159.50 137.10 159.70 137.82 159.23 L 138.66 158.68 C 139.38 158.21 139.58 157.24 139.11 156.52 C 138.64 155.80 137.67 155.60 136.95 156.07 Z M 136.11 156.62 L 135.28 157.17 C 134.56 157.64 134.36 158.61 134.84 159.33 C 135.31 160.05 136.28 160.25 137.00 159.77 L 137.83 159.23 C 138.55 158.75 138.75 157.79 138.27 157.07 C 137.80 156.35 136.83 156.15 136.11 156.62 Z M 135.28 157.17 L 134.45 157.72 C 133.72 158.19 133.52 159.16 134.00 159.88 C 134.47 160.60 135.44 160.80 136.16 160.32 L 137.00 159.77 C 137.72 159.30 137.92 158.33 137.44 157.61 C 136.97 156.89 136.00 156.69 135.28 157.17 Z M 134.45 157.71 L 133.61 158.26 C 132.88 158.73 132.68 159.70 133.15 160.42 C 133.62 161.14 134.59 161.35 135.31 160.88 L 136.16 160.33 C 136.88 159.86 137.08 158.89 136.61 158.17 C 136.14 157.44 135.17 157.24 134.45 157.71 Z M 133.61 158.26 L 132.77 158.80 C 132.04 159.27 131.83 160.23 132.30 160.96 C 132.77 161.68 133.73 161.89 134.46 161.43 L 135.30 160.88 C 136.03 160.42 136.24 159.45 135.77 158.72 C 135.31 158.00 134.34 157.79 133.61 158.26 Z M 132.78 158.79 L 131.92 159.34 C 131.19 159.80 130.97 160.76 131.43 161.49 C 131.89 162.22 132.86 162.44 133.59 161.98 L 134.45 161.43 C 135.18 160.97 135.39 160.01 134.93 159.28 C 134.47 158.55 133.51 158.33 132.78 158.79 Z M 131.93 159.33 L 131.07 159.86 C 130.34 160.32 130.11 161.28 130.56 162.01 C 131.02 162.75 131.98 162.97 132.71 162.52 L 133.58 161.98 C 134.31 161.53 134.54 160.57 134.08 159.83 C 133.63 159.10 132.66 158.88 131.93 159.33 Z M 131.08 159.86 L 130.22 160.38 C 129.48 160.84 129.25 161.80 129.70 162.53 C 130.15 163.27 131.12 163.50 131.85 163.05 L 132.71 162.52 C 133.44 162.07 133.67 161.11 133.22 160.38 C 132.77 159.64 131.81 159.41 131.08 159.86 Z M 130.22 160.38 L 129.38 160.90 C 128.64 161.35 128.41 162.31 128.86 163.04 C 129.31 163.78 130.27 164.01 131.00 163.56 L 131.85 163.05 C 132.58 162.60 132.82 161.64 132.37 160.90 C 131.92 160.17 130.96 159.93 130.22 160.38 Z M 129.38 160.90 L 128.54 161.41 C 127.80 161.86 127.57 162.82 128.02 163.56 C 128.47 164.29 129.43 164.53 130.17 164.07 L 131.01 163.56 C 131.74 163.11 131.97 162.15 131.52 161.42 C 131.07 160.68 130.11 160.45 129.38 160.90 Z M 128.53 161.42 L 127.65 161.96 C 126.91 162.42 126.69 163.38 127.14 164.11 C 127.59 164.85 128.56 165.07 129.29 164.62 L 130.18 164.07 C 130.91 163.62 131.14 162.66 130.68 161.92 C 130.23 161.19 129.27 160.96 128.53 161.42 Z M 127.64 161.97 L 126.78 162.51 C 126.05 162.96 125.83 163.93 126.28 164.66 C 126.74 165.39 127.70 165.61 128.43 165.15 L 129.30 164.62 C 130.03 164.16 130.25 163.20 129.79 162.46 C 129.34 161.73 128.37 161.51 127.64 161.97 Z M 126.77 162.51 L 125.94 163.04 C 125.21 163.50 124.99 164.46 125.45 165.19 C 125.91 165.92 126.88 166.14 127.60 165.68 L 128.44 165.15 C 129.17 164.69 129.39 163.73 128.93 163.00 C 128.47 162.27 127.50 162.05 126.77 162.51 Z M 125.93 163.04 L 125.13 163.55 C 124.40 164.02 124.18 164.98 124.65 165.71 C 125.11 166.44 126.07 166.65 126.80 166.19 L 127.61 165.67 C 128.34 165.21 128.55 164.25 128.09 163.52 C 127.62 162.79 126.66 162.58 125.93 163.04 Z M 125.12 163.56 L 124.25 164.11 C 123.53 164.58 123.32 165.54 123.78 166.27 C 124.25 167.00 125.22 167.21 125.94 166.74 L 126.81 166.18 C 127.53 165.72 127.74 164.75 127.28 164.03 C 126.81 163.30 125.85 163.09 125.12 163.56 Z M 124.25 164.11 L 123.41 164.66 C 122.68 165.12 122.47 166.09 122.93 166.81 C 123.40 167.54 124.36 167.75 125.09 167.29 L 125.94 166.74 C 126.67 166.28 126.88 165.31 126.41 164.58 C 125.95 163.86 124.98 163.65 124.25 164.11 Z M 123.41 164.65 L 122.58 165.18 C 121.85 165.64 121.64 166.60 122.10 167.33 C 122.56 168.06 123.52 168.28 124.25 167.82 L 125.08 167.29 C 125.81 166.83 126.03 165.87 125.57 165.14 C 125.11 164.41 124.14 164.19 123.41 164.65 Z M 122.60 165.17 L 121.77 165.68 C 121.04 166.13 120.81 167.09 121.26 167.83 C 121.71 168.56 122.67 168.79 123.41 168.34 L 124.24 167.83 C 124.97 167.37 125.20 166.41 124.75 165.68 C 124.29 164.94 123.33 164.72 122.60 165.17 Z M 121.78 165.67 L 120.92 166.19 C 120.18 166.63 119.94 167.59 120.38 168.33 C 120.83 169.07 121.79 169.31 122.53 168.87 L 123.39 168.35 C 124.13 167.90 124.37 166.94 123.93 166.20 C 123.48 165.46 122.52 165.23 121.78 165.67 Z M 120.90 166.20 L 120.05 166.72 C 119.32 167.17 119.09 168.14 119.54 168.87 C 119.99 169.60 120.95 169.83 121.69 169.38 L 122.54 168.86 C 123.27 168.41 123.50 167.44 123.05 166.71 C 122.60 165.98 121.64 165.75 120.90 166.20 Z M 120.01 166.75 L 119.18 167.30 C 118.46 167.78 118.27 168.75 118.75 169.47 C 119.22 170.18 120.19 170.38 120.91 169.90 L 121.74 169.35 C 122.45 168.87 122.65 167.91 122.17 167.19 C 121.69 166.47 120.72 166.27 120.01 166.75 Z M 119.09 167.36 L 118.24 168.02 C 117.56 168.54 117.43 169.52 117.96 170.21 C 118.48 170.89 119.46 171.02 120.15 170.49 L 121.00 169.84 C 121.68 169.31 121.81 168.33 121.28 167.65 C 120.76 166.97 119.78 166.84 119.09 167.36 Z M 118.05 168.20 L 117.35 168.95 C 116.77 169.59 116.81 170.57 117.44 171.16 C 118.07 171.74 119.06 171.70 119.64 171.07 L 120.34 170.31 C 120.93 169.68 120.89 168.69 120.25 168.11 C 119.62 167.52 118.63 167.56 118.05 168.20 Z M 117.03 169.49 L 116.73 170.32 C 116.44 171.13 116.86 172.03 117.67 172.32 C 118.49 172.61 119.38 172.18 119.67 171.37 L 119.97 170.54 C 120.26 169.72 119.83 168.83 119.02 168.54 C 118.21 168.25 117.32 168.67 117.03 169.49 Z M 116.69 171.26 L 116.91 172.05 C 117.14 172.88 118.00 173.37 118.83 173.14 C 119.66 172.91 120.15 172.05 119.92 171.22 L 119.70 170.43 C 119.47 169.60 118.62 169.11 117.78 169.34 C 116.95 169.57 116.47 170.43 116.69 171.26 Z M 117.17 172.57 L 117.73 173.31 C 118.25 174.00 119.23 174.13 119.91 173.61 C 120.60 173.09 120.74 172.11 120.22 171.43 L 119.66 170.69 C 119.14 170.00 118.16 169.87 117.48 170.39 C 116.79 170.91 116.65 171.89 117.17 172.57 Z M 117.90 173.50 L 118.67 174.23 C 119.30 174.82 120.29 174.79 120.88 174.16 C 121.47 173.54 121.44 172.55 120.81 171.96 L 120.04 171.23 C 119.41 170.64 118.43 170.67 117.84 171.30 C 117.24 171.92 117.27 172.91 117.90 173.50 Z M 118.77 174.32 L 119.64 175.00 C 120.32 175.54 121.30 175.42 121.83 174.75 C 122.37 174.07 122.25 173.09 121.58 172.55 L 120.71 171.87 C 120.03 171.33 119.05 171.45 118.52 172.13 C 117.98 172.80 118.10 173.78 118.77 174.32 Z M 119.70 175.04 L 120.57 175.68 C 121.27 176.18 122.25 176.02 122.75 175.32 C 123.26 174.62 123.10 173.65 122.40 173.14 L 121.52 172.51 C 120.82 172.01 119.85 172.17 119.34 172.86 C 118.84 173.56 119.00 174.54 119.70 175.04 Z M 120.61 175.70 L 121.45 176.27 C 122.17 176.75 123.14 176.56 123.62 175.85 C 124.10 175.13 123.91 174.16 123.20 173.68 L 122.36 173.11 C 121.64 172.63 120.67 172.82 120.19 173.54 C 119.71 174.25 119.90 175.22 120.61 175.70 Z M 121.49 176.30 L 122.31 176.81 C 123.04 177.27 124.00 177.05 124.46 176.32 C 124.92 175.59 124.70 174.63 123.97 174.17 L 123.16 173.65 C 122.43 173.19 121.46 173.41 121.00 174.14 C 120.55 174.87 120.76 175.84 121.49 176.30 Z M 122.34 176.83 L 123.17 177.33 C 123.91 177.77 124.87 177.53 125.32 176.79 C 125.76 176.04 125.51 175.09 124.77 174.64 L 123.94 174.15 C 123.20 173.71 122.24 173.95 121.80 174.69 C 121.36 175.43 121.60 176.39 122.34 176.83 Z M 123.19 177.34 L 124.01 177.81 C 124.75 178.24 125.71 177.98 126.14 177.24 C 126.57 176.49 126.32 175.54 125.57 175.11 L 124.76 174.63 C 124.01 174.20 123.05 174.46 122.62 175.20 C 122.19 175.95 122.45 176.90 123.19 177.34 Z M 124.01 177.81 L 124.86 178.30 C 125.61 178.73 126.57 178.47 126.99 177.72 C 127.42 176.97 127.16 176.01 126.41 175.59 L 125.56 175.10 C 124.82 174.67 123.86 174.93 123.43 175.68 C 123.01 176.43 123.27 177.38 124.01 177.81 Z M 124.86 178.30 L 125.75 178.80 C 126.50 179.23 127.45 178.97 127.88 178.22 C 128.31 177.48 128.05 176.52 127.30 176.09 L 126.42 175.59 C 125.67 175.16 124.71 175.42 124.28 176.17 C 123.86 176.92 124.12 177.87 124.86 178.30 Z M 125.74 178.80 L 126.65 179.33 C 127.39 179.76 128.35 179.51 128.78 178.76 C 129.22 178.02 128.96 177.06 128.22 176.63 L 127.31 176.10 C 126.56 175.67 125.61 175.92 125.17 176.66 C 124.74 177.41 124.99 178.37 125.74 178.80 Z M 126.63 179.32 L 127.47 179.81 C 128.21 180.25 129.17 180.01 129.61 179.27 C 130.05 178.53 129.80 177.57 129.06 177.13 L 128.23 176.64 C 127.49 176.19 126.53 176.44 126.09 177.18 C 125.65 177.92 125.89 178.88 126.63 179.32 Z M 127.45 179.81 L 128.29 180.31 C 129.02 180.76 129.98 180.53 130.43 179.79 C 130.88 179.06 130.65 178.10 129.91 177.65 L 129.08 177.14 C 128.34 176.69 127.38 176.92 126.93 177.66 C 126.48 178.40 126.72 179.36 127.45 179.81 Z M 128.27 180.30 L 129.12 180.83 C 129.85 181.29 130.82 181.07 131.27 180.34 C 131.73 179.60 131.51 178.64 130.77 178.19 L 129.93 177.66 C 129.19 177.20 128.23 177.42 127.77 178.15 C 127.32 178.89 127.54 179.85 128.27 180.30 Z M 129.11 180.83 L 129.97 181.38 C 130.70 181.84 131.67 181.63 132.13 180.90 C 132.59 180.18 132.38 179.21 131.65 178.75 L 130.79 178.19 C 130.06 177.73 129.10 177.94 128.63 178.67 C 128.17 179.40 128.38 180.36 129.11 180.83 Z M 129.96 181.37 L 130.81 181.93 C 131.53 182.40 132.50 182.19 132.97 181.47 C 133.44 180.75 133.24 179.78 132.52 179.31 L 131.67 178.76 C 130.95 178.28 129.98 178.49 129.51 179.21 C 129.04 179.93 129.24 180.90 129.96 181.37 Z M 130.80 181.92 L 131.60 182.45 C 132.32 182.93 133.29 182.73 133.76 182.02 C 134.24 181.30 134.05 180.33 133.33 179.85 L 132.53 179.32 C 131.81 178.84 130.84 179.04 130.37 179.75 C 129.89 180.47 130.08 181.44 130.80 181.92 Z M 131.59 182.44 L 132.41 183.00 C 133.12 183.48 134.09 183.29 134.57 182.58 C 135.06 181.86 134.87 180.89 134.15 180.41 L 133.34 179.86 C 132.63 179.38 131.66 179.56 131.17 180.28 C 130.69 180.99 130.88 181.96 131.59 182.44 Z M 132.40 182.99 L 133.23 183.56 C 133.94 184.05 134.91 183.87 135.40 183.16 C 135.88 182.44 135.70 181.47 134.99 180.98 L 134.16 180.42 C 133.45 179.93 132.48 180.11 131.99 180.82 C 131.50 181.53 131.69 182.50 132.40 182.99 Z M 133.22 183.55 L 134.06 184.14 C 134.77 184.63 135.75 184.46 136.24 183.75 C 136.73 183.04 136.55 182.07 135.84 181.58 L 135.00 180.99 C 134.29 180.50 133.32 180.67 132.83 181.38 C 132.34 182.09 132.51 183.06 133.22 183.55 Z M 134.06 184.14 L 134.91 184.73 C 135.61 185.23 136.59 185.05 137.08 184.35 C 137.58 183.64 137.40 182.67 136.70 182.17 L 135.85 181.58 C 135.14 181.08 134.17 181.26 133.68 181.96 C 133.18 182.67 133.35 183.64 134.06 184.14 Z M 134.90 184.73 L 135.71 185.30 C 136.42 185.80 137.39 185.63 137.89 184.92 C 138.39 184.22 138.22 183.25 137.51 182.75 L 136.70 182.18 C 136.00 181.68 135.02 181.85 134.53 182.55 C 134.03 183.26 134.20 184.23 134.90 184.73 Z M 135.71 185.30 L 136.53 185.88 C 137.23 186.38 138.20 186.21 138.70 185.51 C 139.20 184.81 139.04 183.83 138.34 183.33 L 137.52 182.75 C 136.82 182.25 135.84 182.42 135.34 183.12 C 134.84 183.82 135.01 184.80 135.71 185.30 Z M 136.52 185.87 L 137.34 186.46 C 138.04 186.96 139.02 186.80 139.52 186.10 C 140.02 185.40 139.86 184.43 139.16 183.92 L 138.34 183.34 C 137.64 182.83 136.67 182.99 136.16 183.70 C 135.66 184.40 135.82 185.37 136.52 185.87 Z M 137.33 186.46 L 138.15 187.05 C 138.85 187.55 139.82 187.40 140.33 186.70 C 140.83 186.00 140.68 185.03 139.98 184.52 L 139.17 183.93 C 138.47 183.42 137.49 183.58 136.99 184.28 C 136.48 184.97 136.64 185.95 137.33 186.46 Z M 138.14 187.04 L 138.95 187.63 C 139.64 188.14 140.62 187.99 141.13 187.30 C 141.64 186.60 141.49 185.63 140.79 185.12 L 139.99 184.52 C 139.29 184.01 138.32 184.16 137.81 184.86 C 137.30 185.55 137.45 186.53 138.14 187.04 Z M 138.94 187.63 L 139.75 188.23 C 140.44 188.75 141.42 188.60 141.94 187.91 C 142.45 187.22 142.31 186.24 141.62 185.73 L 140.80 185.12 C 140.11 184.61 139.13 184.75 138.62 185.44 C 138.10 186.13 138.25 187.11 138.94 187.63 Z M 139.74 188.23 L 140.55 188.84 C 141.24 189.36 142.22 189.22 142.74 188.54 C 143.26 187.85 143.12 186.87 142.44 186.35 L 141.63 185.74 C 140.94 185.22 139.96 185.35 139.44 186.04 C 138.92 186.73 139.05 187.71 139.74 188.23 Z M 140.54 188.83 L 141.34 189.44 C 142.02 189.97 143.00 189.84 143.53 189.16 C 144.05 188.47 143.92 187.49 143.24 186.97 L 142.45 186.36 C 141.76 185.83 140.78 185.96 140.26 186.64 C 139.73 187.33 139.86 188.31 140.54 188.83 Z M 141.33 189.43 L 142.11 190.05 C 142.79 190.58 143.77 190.46 144.30 189.78 C 144.83 189.10 144.71 188.12 144.03 187.59 L 143.25 186.98 C 142.57 186.44 141.59 186.56 141.06 187.24 C 140.53 187.92 140.65 188.90 141.33 189.43 Z M 142.10 190.04 L 142.86 190.65 C 143.54 191.19 144.52 191.08 145.06 190.41 C 145.60 189.73 145.49 188.75 144.81 188.21 L 144.04 187.60 C 143.37 187.06 142.39 187.17 141.85 187.84 C 141.31 188.52 141.42 189.50 142.10 190.04 Z M 142.85 190.64 L 143.62 191.26 C 144.29 191.81 145.27 191.71 145.81 191.04 C 146.36 190.37 146.26 189.39 145.59 188.84 L 144.82 188.22 C 144.16 187.68 143.17 187.78 142.63 188.44 C 142.08 189.11 142.18 190.10 142.85 190.64 Z M 143.61 191.26 L 144.38 191.90 C 145.04 192.45 146.02 192.36 146.57 191.69 C 147.13 191.03 147.03 190.05 146.37 189.49 L 145.60 188.85 C 144.94 188.30 143.95 188.39 143.40 189.06 C 142.85 189.72 142.94 190.70 143.61 191.26 Z M 144.37 191.89 L 145.13 192.53 C 145.79 193.09 146.77 193.01 147.33 192.35 C 147.88 191.69 147.80 190.71 147.14 190.15 L 146.38 189.50 C 145.72 188.95 144.74 189.03 144.18 189.69 C 143.62 190.34 143.71 191.33 144.37 191.89 Z M 145.12 192.52 L 145.88 193.18 C 146.53 193.74 147.52 193.66 148.08 193.01 C 148.64 192.35 148.56 191.37 147.91 190.81 L 147.15 190.16 C 146.50 189.59 145.51 189.67 144.95 190.32 C 144.39 190.98 144.46 191.96 145.12 192.52 Z M 145.87 193.17 L 146.62 193.82 C 147.27 194.39 148.26 194.32 148.83 193.67 C 149.39 193.02 149.32 192.03 148.67 191.47 L 147.92 190.81 C 147.27 190.25 146.28 190.32 145.72 190.97 C 145.15 191.62 145.22 192.60 145.87 193.17 Z M 146.62 193.82 L 147.37 194.48 C 148.02 195.05 149.00 194.98 149.57 194.34 C 150.14 193.69 150.08 192.70 149.43 192.13 L 148.68 191.47 C 148.03 190.90 147.04 190.97 146.47 191.62 C 145.91 192.26 145.97 193.25 146.62 193.82 Z M 147.36 194.48 L 148.11 195.14 C 148.76 195.71 149.74 195.65 150.31 195.00 C 150.89 194.35 150.82 193.37 150.18 192.80 L 149.43 192.14 C 148.79 191.56 147.80 191.63 147.23 192.27 C 146.66 192.92 146.72 193.90 147.36 194.48 Z M 148.11 195.13 L 148.85 195.80 C 149.50 196.37 150.48 196.31 151.06 195.67 C 151.63 195.02 151.57 194.04 150.93 193.46 L 150.18 192.80 C 149.54 192.23 148.55 192.28 147.98 192.93 C 147.41 193.57 147.46 194.56 148.11 195.13 Z M 148.85 195.79 L 149.60 196.46 C 150.24 197.04 151.23 196.98 151.80 196.34 C 152.38 195.69 152.32 194.71 151.68 194.13 L 150.93 193.47 C 150.29 192.89 149.30 192.95 148.73 193.59 C 148.15 194.23 148.21 195.22 148.85 195.79 Z M 149.60 196.46 L 150.34 197.13 C 150.99 197.70 151.97 197.65 152.55 197.01 C 153.12 196.36 153.07 195.38 152.43 194.80 L 151.68 194.13 C 151.04 193.56 150.05 193.61 149.47 194.26 C 148.90 194.90 148.95 195.88 149.60 196.46 Z M 150.34 197.13 L 151.09 197.80 C 151.73 198.37 152.72 198.32 153.29 197.68 C 153.87 197.03 153.81 196.05 153.17 195.47 L 152.43 194.80 C 151.78 194.23 150.80 194.28 150.22 194.92 C 149.65 195.56 149.70 196.55 150.34 197.13 Z M 151.09 197.80 L 151.83 198.46 C 152.47 199.04 153.46 198.98 154.03 198.34 C 154.61 197.70 154.56 196.71 153.92 196.14 L 153.17 195.47 C 152.53 194.90 151.54 194.95 150.97 195.59 C 150.39 196.23 150.45 197.22 151.09 197.80 Z M 151.83 198.46 L 152.57 199.13 C 153.21 199.70 154.20 199.65 154.78 199.01 C 155.35 198.37 155.30 197.38 154.66 196.81 L 153.92 196.14 C 153.27 195.56 152.29 195.62 151.71 196.26 C 151.14 196.90 151.19 197.89 151.83 198.46 Z M 152.57 199.13 L 153.31 199.80 C 153.95 200.37 154.94 200.32 155.52 199.68 C 156.09 199.04 156.04 198.05 155.40 197.48 L 154.66 196.81 C 154.02 196.23 153.03 196.28 152.46 196.92 C 151.88 197.56 151.93 198.55 152.57 199.13 Z M 153.31 199.79 L 154.05 200.47 C 154.69 201.04 155.68 201.00 156.26 200.36 C 156.84 199.72 156.79 198.73 156.15 198.15 L 155.41 197.48 C 154.77 196.90 153.78 196.95 153.20 197.59 C 152.62 198.23 152.67 199.22 153.31 199.79 Z M 154.05 200.46 L 154.79 201.14 C 155.43 201.72 156.42 201.67 157.00 201.04 C 157.58 200.40 157.53 199.41 156.89 198.83 L 156.15 198.15 C 155.51 197.57 154.53 197.62 153.95 198.26 C 153.37 198.89 153.41 199.88 154.05 200.46 Z M 154.79 201.14 L 155.50 201.79 C 156.14 202.37 157.13 202.33 157.71 201.69 C 158.29 201.06 158.25 200.07 157.61 199.49 L 156.90 198.83 C 156.26 198.25 155.27 198.29 154.69 198.93 C 154.11 199.57 154.15 200.55 154.79 201.14 Z M 155.50 201.79 L 156.22 202.45 C 156.85 203.03 157.84 202.99 158.42 202.36 C 159.01 201.72 158.97 200.74 158.33 200.15 L 157.61 199.49 C 156.98 198.91 155.99 198.95 155.41 199.58 C 154.82 200.22 154.87 201.20 155.50 201.79 Z M 156.22 202.45 L 156.95 203.12 C 157.58 203.70 158.57 203.66 159.15 203.03 C 159.74 202.39 159.69 201.41 159.06 200.82 L 158.33 200.15 C 157.70 199.57 156.71 199.61 156.13 200.24 C 155.54 200.88 155.58 201.86 156.22 202.45 Z M 156.95 203.12 L 157.69 203.80 C 158.32 204.39 159.31 204.34 159.90 203.71 C 160.48 203.07 160.44 202.09 159.80 201.50 L 159.06 200.82 C 158.42 200.24 157.44 200.28 156.85 200.91 C 156.27 201.55 156.31 202.54 156.95 203.12 Z M 157.69 203.81 L 158.46 204.50 C 159.09 205.08 160.08 205.04 160.66 204.40 C 161.24 203.77 161.20 202.78 160.56 202.20 L 159.80 201.50 C 159.16 200.92 158.17 200.96 157.59 201.60 C 157.01 202.24 157.06 203.22 157.69 203.81 Z M 158.46 204.51 L 159.21 205.19 C 159.85 205.77 160.84 205.72 161.42 205.08 C 162.00 204.44 161.95 203.45 161.31 202.87 L 160.56 202.19 C 159.92 201.61 158.93 201.66 158.35 202.30 C 157.77 202.94 157.82 203.93 158.46 204.51 Z M 159.22 205.19 L 159.96 205.86 C 160.60 206.44 161.59 206.39 162.17 205.74 C 162.74 205.10 162.69 204.12 162.05 203.54 L 161.31 202.87 C 160.66 202.29 159.68 202.35 159.10 202.99 C 158.52 203.63 158.58 204.62 159.22 205.19 Z M 159.97 205.87 L 160.72 206.54 C 161.36 207.11 162.35 207.06 162.93 206.42 C 163.50 205.77 163.44 204.79 162.80 204.21 L 162.05 203.54 C 161.40 202.96 160.42 203.02 159.84 203.66 C 159.27 204.30 159.32 205.29 159.97 205.87 Z M 160.72 206.54 L 161.48 207.22 C 162.13 207.79 163.11 207.73 163.69 207.08 C 164.26 206.44 164.20 205.45 163.56 204.88 L 162.80 204.21 C 162.15 203.64 161.17 203.69 160.59 204.34 C 160.02 204.98 160.08 205.97 160.72 206.54 Z M 161.49 207.22 L 162.24 207.88 C 162.89 208.45 163.87 208.39 164.44 207.75 C 165.01 207.10 164.95 206.11 164.31 205.54 L 163.55 204.88 C 162.91 204.31 161.92 204.37 161.35 205.01 C 160.78 205.66 160.84 206.65 161.49 207.22 Z M 162.24 207.89 L 162.98 208.54 C 163.63 209.11 164.62 209.04 165.19 208.39 C 165.75 207.75 165.69 206.76 165.04 206.19 L 164.30 205.54 C 163.65 204.97 162.67 205.04 162.10 205.68 C 161.53 206.33 161.59 207.32 162.24 207.89 Z M 162.99 208.54 L 163.76 209.22 C 164.41 209.78 165.40 209.72 165.96 209.07 C 166.53 208.42 166.46 207.43 165.82 206.87 L 165.04 206.19 C 164.39 205.62 163.40 205.69 162.84 206.34 C 162.27 206.99 162.34 207.97 162.99 208.54 Z M 163.76 209.22 L 164.54 209.89 C 165.19 210.46 166.18 210.39 166.74 209.74 C 167.31 209.09 167.24 208.10 166.59 207.54 L 165.81 206.86 C 165.16 206.30 164.17 206.37 163.61 207.02 C 163.04 207.67 163.11 208.65 163.76 209.22 Z M 164.55 209.90 L 165.30 210.55 C 165.96 211.11 166.94 211.04 167.51 210.39 C 168.07 209.74 167.99 208.75 167.34 208.19 L 166.58 207.53 C 165.93 206.97 164.94 207.04 164.38 207.70 C 163.82 208.35 163.89 209.34 164.55 209.90 Z M 165.31 210.56 L 166.06 211.19 C 166.71 211.75 167.70 211.68 168.26 211.02 C 168.82 210.36 168.74 209.38 168.08 208.82 L 167.34 208.18 C 166.68 207.62 165.69 207.70 165.13 208.36 C 164.58 209.01 164.65 210.00 165.31 210.56 Z M 166.06 211.20 L 166.80 211.83 C 167.46 212.38 168.45 212.30 169.00 211.64 C 169.56 210.98 169.48 209.99 168.82 209.44 L 168.08 208.81 C 167.42 208.26 166.43 208.34 165.88 209.00 C 165.32 209.66 165.40 210.64 166.06 211.20 Z M 166.81 211.83 L 167.57 212.46 C 168.23 213.01 169.22 212.92 169.77 212.26 C 170.32 211.60 170.23 210.61 169.57 210.06 L 168.81 209.43 C 168.15 208.88 167.16 208.97 166.61 209.63 C 166.06 210.30 166.15 211.28 166.81 211.83 Z M 167.58 212.47 L 168.36 213.11 C 169.03 213.66 170.01 213.56 170.56 212.89 C 171.10 212.22 171.01 211.24 170.34 210.69 L 169.56 210.05 C 168.89 209.51 167.91 209.60 167.36 210.27 C 166.81 210.94 166.91 211.92 167.58 212.47 Z M 168.37 213.12 L 169.15 213.75 C 169.82 214.29 170.81 214.19 171.35 213.51 C 171.89 212.84 171.79 211.86 171.11 211.32 L 170.33 210.68 C 169.66 210.14 168.67 210.25 168.13 210.92 C 167.59 211.59 167.70 212.58 168.37 213.12 Z M 169.16 213.76 L 169.94 214.38 C 170.62 214.92 171.60 214.80 172.14 214.13 C 172.68 213.45 172.56 212.46 171.89 211.93 L 171.10 211.31 C 170.43 210.77 169.44 210.88 168.91 211.56 C 168.37 212.24 168.48 213.22 169.16 213.76 Z M 169.95 214.39 L 170.73 215.00 C 171.42 215.53 172.40 215.41 172.93 214.73 C 173.46 214.04 173.34 213.06 172.66 212.53 L 171.88 211.92 C 171.20 211.39 170.21 211.51 169.68 212.19 C 169.15 212.87 169.27 213.86 169.95 214.39 Z M 170.75 215.01 L 171.54 215.62 C 172.23 216.14 173.21 216.01 173.74 215.32 C 174.26 214.64 174.13 213.65 173.44 213.13 L 172.65 212.52 C 171.96 211.99 170.98 212.12 170.45 212.81 C 169.93 213.50 170.06 214.48 170.75 215.01 Z M 171.56 215.63 L 172.38 216.24 C 173.07 216.76 174.05 216.62 174.57 215.92 C 175.09 215.23 174.95 214.25 174.25 213.73 L 173.43 213.12 C 172.74 212.60 171.76 212.74 171.24 213.43 C 170.72 214.13 170.86 215.11 171.56 215.63 Z M 172.39 216.25 L 173.21 216.84 C 173.90 217.35 174.88 217.20 175.39 216.50 C 175.90 215.80 175.75 214.82 175.05 214.32 L 174.24 213.72 C 173.54 213.21 172.56 213.36 172.05 214.06 C 171.54 214.76 171.69 215.74 172.39 216.25 Z M 173.22 216.86 L 174.03 217.43 C 174.74 217.93 175.71 217.76 176.21 217.06 C 176.71 216.35 176.55 215.38 175.84 214.88 L 175.03 214.30 C 174.33 213.80 173.35 213.97 172.85 214.67 C 172.35 215.38 172.52 216.36 173.22 216.86 Z M 174.05 217.44 L 174.86 217.99 C 175.57 218.48 176.54 218.30 177.03 217.59 C 177.52 216.88 177.34 215.91 176.63 215.42 L 175.82 214.86 C 175.11 214.38 174.14 214.56 173.65 215.27 C 173.16 215.98 173.34 216.95 174.05 217.44 Z M 174.88 218.01 L 175.72 218.57 C 176.45 219.05 177.42 218.85 177.89 218.13 C 178.37 217.41 178.17 216.44 177.45 215.96 L 176.60 215.40 C 175.88 214.92 174.91 215.12 174.44 215.84 C 173.96 216.56 174.16 217.53 174.88 218.01 Z M 175.75 218.59 L 176.62 219.14 C 177.35 219.60 178.32 219.38 178.78 218.65 C 179.24 217.92 179.02 216.95 178.29 216.49 L 177.42 215.94 C 176.69 215.48 175.73 215.70 175.26 216.43 C 174.80 217.16 175.02 218.13 175.75 218.59 Z M 176.66 219.16 L 177.52 219.67 C 178.26 220.12 179.22 219.87 179.67 219.13 C 180.11 218.38 179.86 217.42 179.12 216.98 L 178.26 216.47 C 177.51 216.02 176.55 216.27 176.11 217.01 C 175.67 217.76 175.91 218.72 176.66 219.16 Z M 177.56 219.70 L 178.41 220.17 C 179.17 220.59 180.13 220.31 180.55 219.55 C 180.97 218.79 180.69 217.84 179.93 217.42 L 179.07 216.95 C 178.31 216.53 177.36 216.81 176.94 217.57 C 176.52 218.33 176.80 219.28 177.56 219.70 Z M 178.47 220.20 L 179.35 220.64 C 180.12 221.03 181.07 220.71 181.46 219.93 C 181.84 219.16 181.53 218.21 180.75 217.83 L 179.87 217.39 C 179.10 217.00 178.15 217.32 177.76 218.09 C 177.38 218.87 177.69 219.82 178.47 220.20 Z M 179.41 220.67 L 180.34 221.08 C 181.13 221.44 182.06 221.08 182.41 220.29 C 182.77 219.49 182.41 218.57 181.62 218.21 L 180.69 217.80 C 179.90 217.44 178.97 217.80 178.61 218.59 C 178.26 219.39 178.61 220.32 179.41 220.67 Z M 180.39 221.10 L 181.31 221.48 C 182.11 221.80 183.03 221.41 183.36 220.61 C 183.68 219.81 183.29 218.89 182.49 218.57 L 181.57 218.19 C 180.76 217.87 179.85 218.25 179.52 219.06 C 179.20 219.86 179.58 220.78 180.39 221.10 Z M 181.34 221.49 L 182.26 221.84 C 183.07 222.14 183.98 221.74 184.29 220.93 C 184.59 220.12 184.19 219.21 183.38 218.91 L 182.46 218.56 C 181.65 218.25 180.74 218.66 180.44 219.46 C 180.13 220.27 180.53 221.18 181.34 221.49 Z M 182.28 221.84 L 182.79 222.03 C 183.60 222.33 184.50 221.92 184.80 221.11 C 185.10 220.30 184.69 219.40 183.88 219.09 L 183.37 218.90 C 182.56 218.60 181.65 219.02 181.35 219.83 C 181.05 220.64 181.47 221.54 182.28 221.84 Z"
      fill="black"
      fill-rule="nonzero" /></svg>