<svg xmlns="http://www.w3.org/2000/svg" width="300" height="300" viewBox="0 0 300 300">
<path d="M 118.70 119.15 L 117.59 118.89 C 116.75 118.70 115.91 119.22 115.72 120.06 C 115.52 120.90 116.05 121.74 116.89 121.93 L 118.00 122.19 C 118.84 122.38 119.68 121.86 119.87 121.02 C 120.07 120.18 119.54 119.34 118.70 119.15 Z M 117.39 118.86 L 116.37 118.76 C 115.52 118.67 114.75 119.30 114.67 120.16 C 114.59 121.02 115.21 121.78 116.07 121.87 L 117.09 121.96 C 117.94 122.05 118.71 121.42 118.79 120.56 C 118.87 119.70 118.25 118.94 117.39 118.86 Z M 115.82 118.80 L 115.01 119.02 C 114.18 119.24 113.68 120.10 113.90 120.93 C 114.13 121.77 114.98 122.26 115.82 122.04 L 116.63 121.82 C 117.46 121.60 117.95 120.74 117.73 119.91 C 117.51 119.08 116.65 118.58 115.82 118.80 Z M 114.20 119.54 L 113.72 120.12 C 113.17 120.79 113.27 121.78 113.94 122.33 C 114.60 122.88 115.59 122.78 116.14 122.11 L 116.62 121.52 C 117.17 120.85 117.07 119.87 116.41 119.32 C 115.74 118.77 114.75 118.87 114.20 119.54 Z M 113.41 120.68 L 113.16 121.56 C 112.92 122.39 113.40 123.27 114.24 123.51 C 115.08 123.75 115.95 123.27 116.19 122.43 L 116.44 121.55 C 116.69 120.72 116.20 119.84 115.37 119.60 C 114.53 119.36 113.66 119.84 113.41 120.68 Z M 113.10 121.83 L 112.98 122.90 C 112.89 123.77 113.53 124.55 114.40 124.65 C 115.27 124.74 116.05 124.10 116.15 123.23 L 116.26 122.16 C 116.35 121.29 115.72 120.50 114.84 120.41 C 113.97 120.32 113.19 120.96 113.10 121.83 Z M 112.96 123.01 L 112.93 124.16 C 112.90 125.04 113.59 125.78 114.48 125.81 C 115.36 125.84 116.10 125.14 116.13 124.26 L 116.17 123.11 C 116.19 122.23 115.50 121.49 114.61 121.46 C 113.73 121.43 112.99 122.13 112.96 123.01 Z M 112.92 124.19 L 112.91 125.19 C 112.90 126.08 113.61 126.81 114.50 126.82 C 115.39 126.84 116.12 126.12 116.13 125.23 L 116.14 124.23 C 116.15 123.34 115.44 122.61 114.55 122.60 C 113.66 122.59 112.93 123.30 112.92 124.19 Z M 112.90 125.20 L 112.90 126.18 C 112.89 127.07 113.61 127.80 114.50 127.81 C 115.39 127.81 116.11 127.10 116.12 126.21 L 116.13 125.23 C 116.13 124.34 115.42 123.61 114.53 123.60 C 113.64 123.60 112.91 124.31 112.90 125.20 Z M 112.90 126.19 L 112.89 127.18 C 112.89 128.07 113.61 128.79 114.50 128.80 C 115.39 128.80 116.12 128.08 116.12 127.19 L 116.12 126.20 C 116.13 125.31 115.41 124.59 114.51 124.58 C 113.62 124.58 112.90 125.30 112.90 126.19 Z M 112.89 127.18 L 112.89 128.20 C 112.89 129.09 113.61 129.82 114.50 129.82 C 115.40 129.82 116.12 129.09 116.12 128.20 L 116.12 127.19 C 116.12 126.29 115.40 125.57 114.51 125.57 C 113.62 125.57 112.89 126.29 112.89 127.18 Z M 112.89 128.20 L 112.89 129.16 C 112.89 130.05 113.61 130.77 114.51 130.77 C 115.40 130.77 116.12 130.05 116.12 129.16 L 116.12 128.20 C 116.12 127.31 115.40 126.59 114.51 126.59 C 113.61 126.59 112.89 127.31 112.89 128.20 Z M 112.89 129.16 L 112.89 130.11 C 112.89 131.00 113.61 131.72 114.51 131.72 C 115.40 131.72 116.12 131.00 116.12 130.11 L 116.12 129.16 C 116.12 128.27 115.40 127.54 114.51 127.54 C 113.61 127.54 112.89 128.27 112.89 129.16 Z M 112.89 130.11 L 112.89 131.09 C 112.89 131.99 113.61 132.71 114.51 132.71 C 115.40 132.71 116.12 131.99 116.12 131.09 L 116.12 130.11 C 116.12 129.21 115.40 128.49 114.51 128.49 C 113.61 128.49 112.89 129.21 112.89 130.11 Z M 112.89 131.09 L 112.89 132.12 C 112.89 133.01 113.61 133.74 114.51 133.74 C 115.40 133.74 116.12 133.01 116.12 132.12 L 116.12 131.09 C 116.12 130.20 115.40 129.48 114.51 129.48 C 113.61 129.48 112.89 130.20 112.89 131.09 Z M 112.89 132.12 L 112.89 133.19 C 112.89 134.08 113.61 134.81 114.51 134.81 C 115.40 134.81 116.13 134.08 116.13 133.19 L 116.13 132.12 C 116.13 131.23 115.40 130.50 114.51 130.50 C 113.61 130.50 112.89 131.23 112.89 132.12 Z M 112.89 133.19 L 112.89 134.16 C 112.89 135.06 113.61 135.78 114.51 135.78 C 115.40 135.78 116.13 135.06 116.13 134.16 L 116.13 133.19 C 116.13 132.29 115.40 131.57 114.51 131.57 C 113.61 131.57 112.89 132.29 112.89 133.19 Z M 112.89 134.16 L 112.89 135.10 C 112.89 135.99 113.61 136.72 114.51 136.72 C 115.40 136.72 116.13 135.99 116.13 135.10 L 116.13 134.16 C 116.13 133.26 115.40 132.54 114.51 132.54 C 113.61 132.54 112.89 133.27 112.89 134.16 Z M 112.89 135.10 L 112.89 136.07 C 112.89 136.96 113.62 137.69 114.51 137.68 C 115.41 137.68 116.13 136.96 116.13 136.06 L 116.13 135.09 C 116.13 134.20 115.40 133.48 114.50 133.48 C 113.61 133.48 112.88 134.20 112.89 135.10 Z M 112.89 136.07 L 112.89 137.07 C 112.89 137.96 113.62 138.69 114.52 138.68 C 115.41 138.68 116.13 137.95 116.13 137.06 L 116.13 136.06 C 116.13 135.16 115.40 134.44 114.50 134.44 C 113.61 134.45 112.88 135.17 112.89 136.07 Z M 112.89 137.07 L 112.90 138.11 C 112.90 139.00 113.63 139.72 114.52 139.72 C 115.42 139.71 116.14 138.99 116.14 138.09 L 116.13 137.06 C 116.13 136.16 115.40 135.44 114.50 135.44 C 113.61 135.45 112.89 136.18 112.89 137.07 Z M 112.90 138.11 L 112.90 139.19 C 112.91 140.08 113.64 140.80 114.54 140.79 C 115.43 140.79 116.15 140.06 116.14 139.16 L 116.14 138.09 C 116.13 137.19 115.40 136.47 114.50 136.48 C 113.61 136.48 112.89 137.22 112.90 138.11 Z M 112.90 139.19 L 112.91 140.19 C 112.92 141.09 113.65 141.81 114.55 141.80 C 115.44 141.79 116.16 141.06 116.15 140.16 L 116.14 139.16 C 116.14 138.26 115.40 137.54 114.51 137.55 C 113.61 137.56 112.89 138.29 112.90 139.19 Z M 112.91 140.20 L 112.93 141.15 C 112.94 142.05 113.67 142.76 114.57 142.75 C 115.46 142.74 116.18 142.01 116.16 141.11 L 116.15 140.16 C 116.14 139.26 115.41 138.55 114.51 138.56 C 113.62 138.57 112.90 139.30 112.91 140.20 Z M 112.93 141.16 L 112.94 142.13 C 112.95 143.03 113.69 143.74 114.58 143.73 C 115.48 143.72 116.19 142.98 116.18 142.09 L 116.16 141.11 C 116.15 140.21 115.42 139.50 114.52 139.51 C 113.63 139.53 112.91 140.26 112.93 141.16 Z M 112.94 142.14 L 112.96 143.14 C 112.97 144.03 113.71 144.74 114.60 144.73 C 115.50 144.71 116.21 143.97 116.19 143.08 L 116.18 142.08 C 116.16 141.19 115.43 140.48 114.53 140.49 C 113.64 140.51 112.93 141.24 112.94 142.14 Z M 112.96 143.14 L 112.98 144.15 C 113.00 145.05 113.73 145.76 114.63 145.74 C 115.52 145.72 116.23 144.98 116.21 144.09 L 116.19 143.08 C 116.18 142.18 115.44 141.47 114.55 141.49 C 113.65 141.51 112.94 142.25 112.96 143.14 Z M 112.98 144.16 L 113.00 145.18 C 113.02 146.08 113.76 146.78 114.65 146.76 C 115.54 146.75 116.25 146.01 116.23 145.12 L 116.21 144.09 C 116.19 143.20 115.45 142.49 114.56 142.51 C 113.67 142.53 112.96 143.26 112.98 144.16 Z M 113.00 145.19 L 113.03 146.22 C 113.05 147.11 113.79 147.82 114.68 147.80 C 115.57 147.78 116.28 147.04 116.26 146.15 L 116.23 145.11 C 116.21 144.22 115.47 143.51 114.58 143.54 C 113.69 143.56 112.98 144.30 113.00 145.19 Z M 113.03 146.23 L 113.05 147.25 C 113.08 148.14 113.82 148.84 114.71 148.82 C 115.60 148.80 116.30 148.06 116.28 147.17 L 116.25 146.14 C 116.23 145.25 115.49 144.55 114.60 144.57 C 113.71 144.60 113.01 145.34 113.03 146.23 Z M 113.05 147.25 L 113.08 148.22 C 113.11 149.11 113.85 149.81 114.74 149.78 C 115.63 149.76 116.33 149.02 116.31 148.13 L 116.28 147.16 C 116.26 146.27 115.51 145.57 114.62 145.59 C 113.73 145.62 113.03 146.36 113.05 147.25 Z M 113.08 148.22 L 113.11 149.19 C 113.14 150.08 113.88 150.78 114.77 150.76 C 115.66 150.73 116.36 149.99 116.33 149.10 L 116.31 148.12 C 116.28 147.23 115.54 146.53 114.65 146.56 C 113.76 146.59 113.06 147.33 113.08 148.22 Z M 113.11 149.19 L 113.14 150.17 C 113.17 151.06 113.91 151.76 114.80 151.73 C 115.69 151.71 116.39 150.96 116.37 150.07 L 116.33 149.09 C 116.31 148.20 115.56 147.50 114.67 147.53 C 113.78 147.56 113.08 148.30 113.11 149.19 Z M 113.14 150.18 L 113.18 151.17 C 113.21 152.06 113.95 152.75 114.84 152.72 C 115.73 152.69 116.43 151.95 116.40 151.06 L 116.37 150.07 C 116.34 149.18 115.59 148.48 114.70 148.51 C 113.81 148.54 113.11 149.29 113.14 150.18 Z M 113.18 151.17 L 113.21 152.17 C 113.24 153.06 113.99 153.76 114.88 153.73 C 115.77 153.70 116.46 152.95 116.43 152.06 L 116.40 151.06 C 116.37 150.17 115.62 149.47 114.73 149.50 C 113.84 149.53 113.14 150.28 113.18 151.17 Z M 113.21 152.17 L 113.25 153.19 C 113.28 154.08 114.03 154.78 114.92 154.75 C 115.81 154.71 116.50 153.97 116.47 153.08 L 116.43 152.06 C 116.40 151.17 115.65 150.47 114.76 150.51 C 113.87 150.54 113.18 151.29 113.21 152.17 Z M 113.25 153.20 L 113.29 154.24 C 113.32 155.12 114.07 155.82 114.96 155.78 C 115.85 155.75 116.54 155.00 116.51 154.11 L 116.47 153.07 C 116.44 152.19 115.69 151.49 114.80 151.53 C 113.91 151.56 113.22 152.31 113.25 153.20 Z M 113.29 154.24 L 113.33 155.25 C 113.36 156.14 114.11 156.83 115.00 156.80 C 115.89 156.76 116.58 156.01 116.55 155.12 L 116.51 154.11 C 116.47 153.22 115.72 152.53 114.84 152.56 C 113.95 152.60 113.25 153.35 113.29 154.24 Z M 113.33 155.25 L 113.37 156.20 C 113.40 157.08 114.15 157.78 115.04 157.74 C 115.93 157.70 116.62 156.95 116.59 156.07 L 116.55 155.12 C 116.51 154.23 115.76 153.54 114.87 153.58 C 113.98 153.61 113.29 154.36 113.33 155.25 Z M 113.37 156.20 L 113.41 157.16 C 113.44 158.05 114.19 158.74 115.08 158.70 C 115.97 158.66 116.66 157.91 116.62 157.02 L 116.59 156.06 C 116.55 155.18 115.80 154.49 114.91 154.52 C 114.02 154.56 113.33 155.31 113.37 156.20 Z M 113.41 157.16 L 113.45 158.14 C 113.49 159.02 114.24 159.71 115.13 159.67 C 116.02 159.64 116.70 158.89 116.67 158.00 L 116.62 157.02 C 116.59 156.13 115.84 155.44 114.95 155.48 C 114.06 155.52 113.37 156.27 113.41 157.16 Z M 113.45 158.14 L 113.49 159.13 C 113.53 160.02 114.29 160.70 115.17 160.66 C 116.06 160.62 116.75 159.87 116.71 158.99 L 116.67 157.99 C 116.63 157.11 115.87 156.42 114.99 156.46 C 114.10 156.50 113.41 157.25 113.45 158.14 Z M 113.50 159.13 L 113.54 160.14 C 113.58 161.02 114.34 161.71 115.22 161.67 C 116.11 161.63 116.80 160.88 116.75 159.99 L 116.71 158.98 C 116.67 158.10 115.92 157.41 115.03 157.45 C 114.14 157.49 113.45 158.24 113.50 159.13 Z M 113.54 160.14 L 113.59 161.16 C 113.63 162.05 114.39 162.73 115.27 162.69 C 116.16 162.65 116.85 161.89 116.80 161.01 L 116.75 159.99 C 116.71 159.10 115.96 158.41 115.07 158.46 C 114.18 158.50 113.50 159.25 113.54 160.14 Z M 113.59 161.16 L 113.64 162.20 C 113.69 163.08 114.44 163.76 115.33 163.72 C 116.22 163.68 116.90 162.92 116.85 162.03 L 116.80 161.00 C 116.76 160.12 116.00 159.43 115.12 159.48 C 114.23 159.52 113.55 160.28 113.59 161.16 Z M 113.65 162.20 L 113.70 163.24 C 113.75 164.13 114.50 164.81 115.39 164.76 C 116.27 164.72 116.95 163.96 116.91 163.08 L 116.85 162.03 C 116.81 161.15 116.05 160.46 115.17 160.51 C 114.28 160.56 113.60 161.31 113.65 162.20 Z M 113.70 163.25 L 113.76 164.28 C 113.81 165.17 114.56 165.84 115.45 165.80 C 116.33 165.75 117.01 164.99 116.96 164.11 L 116.91 163.07 C 116.86 162.19 116.10 161.51 115.22 161.56 C 114.33 161.61 113.65 162.36 113.70 163.25 Z M 113.76 164.28 L 113.81 165.26 C 113.86 166.14 114.62 166.82 115.51 166.77 C 116.39 166.72 117.07 165.96 117.02 165.08 L 116.96 164.10 C 116.91 163.22 116.15 162.54 115.27 162.59 C 114.38 162.64 113.71 163.40 113.76 164.28 Z M 113.81 165.26 L 113.87 166.24 C 113.92 167.13 114.68 167.80 115.57 167.75 C 116.45 167.70 117.13 166.94 117.08 166.05 L 117.02 165.07 C 116.97 164.19 116.21 163.51 115.32 163.56 C 114.44 163.62 113.76 164.38 113.81 165.26 Z M 113.87 166.25 L 113.93 167.24 C 113.99 168.12 114.75 168.79 115.63 168.74 C 116.52 168.69 117.19 167.92 117.14 167.04 L 117.08 166.05 C 117.02 165.17 116.26 164.49 115.38 164.55 C 114.49 164.60 113.82 165.36 113.87 166.25 Z M 113.93 167.24 L 113.99 168.23 C 114.05 169.12 114.81 169.79 115.70 169.73 C 116.58 169.68 117.25 168.92 117.20 168.03 L 117.14 167.04 C 117.08 166.15 116.32 165.48 115.43 165.54 C 114.55 165.59 113.88 166.35 113.93 167.24 Z M 113.99 168.24 L 114.06 169.24 C 114.12 170.12 114.88 170.79 115.76 170.73 C 116.65 170.68 117.32 169.91 117.26 169.03 L 117.20 168.03 C 117.14 167.15 116.38 166.47 115.49 166.53 C 114.61 166.59 113.94 167.35 113.99 168.24 Z M 114.06 169.24 L 114.13 170.24 C 114.18 171.13 114.95 171.80 115.83 171.74 C 116.72 171.68 117.39 170.92 117.33 170.03 L 117.26 169.03 C 117.20 168.14 116.44 167.47 115.55 167.53 C 114.67 167.59 114.00 168.36 114.06 169.24 Z M 114.13 170.25 L 114.19 171.26 C 114.25 172.14 115.02 172.81 115.90 172.75 C 116.79 172.69 117.46 171.92 117.40 171.04 L 117.33 170.03 C 117.27 169.15 116.50 168.48 115.62 168.54 C 114.73 168.60 114.07 169.36 114.13 170.25 Z M 114.20 171.26 L 114.27 172.27 C 114.33 173.15 115.09 173.82 115.98 173.76 C 116.86 173.70 117.53 172.93 117.47 172.05 L 117.40 171.04 C 117.33 170.15 116.57 169.49 115.68 169.55 C 114.80 169.61 114.13 170.37 114.20 171.26 Z M 114.27 172.27 L 114.34 173.28 C 114.40 174.17 115.17 174.83 116.05 174.77 C 116.93 174.71 117.60 173.94 117.54 173.06 L 117.47 172.05 C 117.40 171.16 116.64 170.50 115.75 170.56 C 114.87 170.62 114.20 171.39 114.27 172.27 Z M 114.34 173.29 L 114.41 174.30 C 114.47 175.18 115.24 175.84 116.13 175.78 C 117.01 175.72 117.67 174.95 117.61 174.07 L 117.54 173.06 C 117.47 172.17 116.71 171.51 115.82 171.57 C 114.94 171.64 114.27 172.40 114.34 173.29 Z M 114.41 174.30 L 114.48 175.30 C 114.55 176.19 115.32 176.85 116.20 176.78 C 117.08 176.72 117.75 175.95 117.68 175.07 L 117.61 174.06 C 117.54 173.18 116.78 172.52 115.89 172.58 C 115.01 172.65 114.35 173.42 114.41 174.30 Z M 114.48 175.30 L 114.56 176.31 C 114.62 177.19 115.39 177.85 116.28 177.79 C 117.16 177.72 117.82 176.95 117.76 176.07 L 117.68 175.07 C 117.62 174.18 116.85 173.52 115.96 173.59 C 115.08 173.65 114.42 174.42 114.48 175.30 Z M 114.56 176.31 L 114.64 177.31 C 114.70 178.20 115.47 178.86 116.36 178.79 C 117.24 178.72 117.90 177.95 117.83 177.07 L 117.76 176.07 C 117.69 175.18 116.92 174.52 116.04 174.59 C 115.15 174.66 114.49 175.43 114.56 176.31 Z M 114.64 177.31 L 114.71 178.31 C 114.78 179.20 115.55 179.86 116.44 179.79 C 117.32 179.72 117.98 178.95 117.91 178.07 L 117.83 177.07 C 117.77 176.18 116.99 175.52 116.11 175.59 C 115.23 175.66 114.57 176.43 114.64 177.31 Z M 114.71 178.32 L 114.79 179.32 C 114.86 180.20 115.63 180.86 116.52 180.79 C 117.40 180.72 118.06 179.95 117.99 179.06 L 117.91 178.06 C 117.84 177.18 117.07 176.52 116.19 176.59 C 115.30 176.66 114.64 177.43 114.71 178.32 Z M 114.79 179.32 L 114.87 180.31 C 114.94 181.20 115.72 181.86 116.60 181.79 C 117.48 181.71 118.14 180.94 118.07 180.06 L 117.99 179.06 C 117.92 178.18 117.15 177.52 116.26 177.59 C 115.38 177.66 114.72 178.43 114.79 179.32 Z M 114.87 180.32 L 114.95 181.31 C 115.03 182.20 115.80 182.85 116.68 182.78 C 117.57 182.71 118.23 181.93 118.15 181.05 L 118.07 180.05 C 118.00 179.17 117.22 178.51 116.34 178.59 C 115.46 178.66 114.80 179.43 114.87 180.32 Z M 114.95 181.31 L 115.04 182.31 C 115.11 183.19 115.89 183.85 116.77 183.77 C 117.65 183.70 118.31 182.92 118.24 182.04 L 118.15 181.05 C 118.08 180.16 117.30 179.51 116.42 179.58 C 115.54 179.65 114.88 180.43 114.95 181.31 Z M 115.04 182.31 L 115.12 183.30 C 115.20 184.18 115.97 184.84 116.86 184.76 C 117.74 184.68 118.40 183.91 118.32 183.02 L 118.24 182.04 C 118.16 181.15 117.38 180.50 116.50 180.57 C 115.62 180.65 114.96 181.42 115.04 182.31 Z M 115.12 183.30 L 115.21 184.29 C 115.28 185.17 116.06 185.82 116.94 185.75 C 117.83 185.67 118.48 184.89 118.41 184.01 L 118.32 183.02 C 118.24 182.14 117.46 181.48 116.58 181.56 C 115.70 181.64 115.04 182.42 115.12 183.30 Z M 115.21 184.29 L 115.29 185.28 C 115.37 186.17 116.15 186.82 117.04 186.74 C 117.92 186.66 118.57 185.88 118.49 185.00 L 118.41 184.01 C 118.33 183.12 117.55 182.47 116.66 182.55 C 115.78 182.63 115.13 183.41 115.21 184.29 Z M 115.29 185.28 L 115.38 186.28 C 115.46 187.16 116.24 187.81 117.13 187.73 C 118.01 187.65 118.66 186.87 118.58 185.99 L 118.49 185.00 C 118.41 184.11 117.63 183.46 116.75 183.54 C 115.87 183.62 115.21 184.40 115.29 185.28 Z M 115.38 186.28 L 115.47 187.27 C 115.55 188.15 116.33 188.80 117.22 188.72 C 118.10 188.64 118.75 187.86 118.67 186.98 L 118.58 185.99 C 118.50 185.10 117.72 184.45 116.84 184.53 C 115.95 184.61 115.30 185.39 115.38 186.28 Z M 115.47 187.27 L 115.56 188.26 C 115.64 189.14 116.43 189.79 117.31 189.71 C 118.19 189.63 118.85 188.85 118.76 187.96 L 118.67 186.97 C 118.59 186.09 117.81 185.44 116.93 185.52 C 116.04 185.60 115.39 186.38 115.47 187.27 Z M 115.56 188.26 L 115.65 189.25 C 115.74 190.13 116.52 190.78 117.40 190.70 C 118.29 190.62 118.94 189.84 118.86 188.95 L 118.76 187.96 C 118.68 187.08 117.90 186.43 117.02 186.51 C 116.13 186.59 115.48 187.37 115.56 188.26 Z M 115.65 189.25 L 115.75 190.24 C 115.83 191.13 116.61 191.78 117.50 191.69 C 118.38 191.61 119.03 190.83 118.95 189.94 L 118.86 188.95 C 118.77 188.07 117.99 187.42 117.11 187.50 C 116.22 187.58 115.57 188.37 115.65 189.25 Z M 115.75 190.24 L 115.84 191.24 C 115.92 192.12 116.71 192.77 117.59 192.69 C 118.47 192.61 119.12 191.83 119.04 190.94 L 118.95 189.94 C 118.87 189.06 118.08 188.41 117.20 188.49 C 116.31 188.57 115.66 189.36 115.75 190.24 Z M 115.84 191.24 L 115.93 192.24 C 116.01 193.13 116.80 193.78 117.68 193.69 C 118.57 193.61 119.22 192.83 119.14 191.94 L 119.04 190.94 C 118.96 190.06 118.18 189.41 117.29 189.49 C 116.41 189.57 115.76 190.35 115.84 191.24 Z M 115.93 192.24 L 116.03 193.25 C 116.11 194.13 116.89 194.78 117.78 194.70 C 118.66 194.62 119.31 193.83 119.23 192.95 L 119.14 191.94 C 119.05 191.06 118.27 190.41 117.39 190.49 C 116.50 190.57 115.85 191.36 115.93 192.24 Z M 116.03 193.25 L 116.12 194.26 C 116.20 195.14 116.98 195.79 117.87 195.71 C 118.75 195.63 119.40 194.85 119.32 193.96 L 119.23 192.95 C 119.15 192.07 118.36 191.41 117.48 191.50 C 116.59 191.58 115.94 192.36 116.03 193.25 Z M 116.12 194.26 L 116.21 195.27 C 116.29 196.15 117.07 196.80 117.96 196.72 C 118.84 196.64 119.50 195.86 119.42 194.97 L 119.32 193.96 C 119.24 193.08 118.46 192.43 117.57 192.51 C 116.69 192.59 116.04 193.37 116.12 194.26 Z M 116.21 195.27 L 116.30 196.28 C 116.38 197.16 117.17 197.82 118.05 197.74 C 118.94 197.66 119.59 196.87 119.51 195.99 L 119.42 194.97 C 119.34 194.09 118.55 193.44 117.67 193.52 C 116.78 193.60 116.13 194.38 116.21 195.27 Z M 116.30 196.28 L 116.39 197.29 C 116.47 198.18 117.26 198.83 118.14 198.75 C 119.03 198.67 119.68 197.89 119.60 197.01 L 119.51 195.99 C 119.43 195.11 118.65 194.45 117.76 194.53 C 116.88 194.61 116.22 195.39 116.30 196.28 Z M 116.39 197.29 L 116.48 198.31 C 116.56 199.19 117.35 199.85 118.23 199.77 C 119.12 199.69 119.77 198.91 119.69 198.02 L 119.60 197.01 C 119.52 196.12 118.74 195.47 117.85 195.55 C 116.97 195.63 116.31 196.41 116.39 197.29 Z M 116.48 198.31 L 116.57 199.32 C 116.65 200.20 117.43 200.85 118.32 200.78 C 119.20 200.70 119.86 199.92 119.78 199.03 L 119.69 198.02 C 119.61 197.14 118.83 196.48 117.95 196.56 C 117.06 196.64 116.41 197.42 116.48 198.31 Z M 116.57 199.31 L 116.66 200.32 C 116.74 201.20 117.52 201.86 118.41 201.78 C 119.29 201.70 119.94 200.92 119.87 200.03 L 119.78 199.03 C 119.70 198.15 118.92 197.49 118.04 197.57 C 117.15 197.65 116.50 198.43 116.57 199.31 Z M 116.66 200.31 L 116.75 201.31 C 116.83 202.19 117.61 202.85 118.49 202.77 C 119.38 202.69 120.03 201.91 119.95 201.03 L 119.87 200.04 C 119.79 199.15 119.01 198.50 118.12 198.57 C 117.24 198.65 116.58 199.43 116.66 200.31 Z M 116.75 201.30 L 116.83 202.28 C 116.91 203.17 117.69 203.82 118.57 203.75 C 119.46 203.67 120.11 202.89 120.04 202.01 L 119.95 201.03 C 119.88 200.14 119.10 199.49 118.21 199.56 C 117.33 199.64 116.67 200.42 116.75 201.30 Z M 116.83 202.28 L 116.92 203.24 C 116.99 204.13 117.77 204.78 118.65 204.71 C 119.54 204.63 120.20 203.85 120.12 202.97 L 120.04 202.01 C 119.96 201.12 119.18 200.47 118.30 200.54 C 117.41 200.62 116.76 201.40 116.83 202.28 Z M 116.91 203.24 L 117.00 204.23 C 117.07 205.11 117.85 205.77 118.74 205.70 C 119.62 205.62 120.28 204.84 120.20 203.96 L 120.12 202.97 C 120.05 202.09 119.27 201.43 118.38 201.50 C 117.50 201.58 116.84 202.36 116.91 203.24 Z M 117.00 204.23 L 117.09 205.29 C 117.16 206.17 117.94 206.83 118.82 206.76 C 119.71 206.68 120.37 205.91 120.29 205.02 L 120.20 203.96 C 120.13 203.07 119.35 202.42 118.47 202.49 C 117.58 202.56 116.92 203.34 117.00 204.23 Z M 117.09 205.29 L 117.17 206.32 C 117.24 207.21 118.02 207.87 118.91 207.80 C 119.79 207.72 120.45 206.95 120.38 206.06 L 120.29 205.02 C 120.22 204.14 119.44 203.48 118.56 203.55 C 117.67 203.62 117.01 204.40 117.09 205.29 Z M 117.17 206.32 L 117.25 207.34 C 117.32 208.22 118.10 208.88 118.98 208.81 C 119.87 208.74 120.53 207.97 120.46 207.08 L 120.38 206.07 C 120.31 205.18 119.53 204.52 118.65 204.59 C 117.76 204.66 117.10 205.43 117.17 206.32 Z M 117.25 207.33 L 117.33 208.33 C 117.40 209.21 118.17 209.88 119.06 209.81 C 119.94 209.74 120.60 208.97 120.54 208.08 L 120.46 207.09 C 120.39 206.20 119.62 205.54 118.73 205.61 C 117.85 205.67 117.18 206.45 117.25 207.33 Z M 117.33 208.32 L 117.40 209.31 C 117.47 210.19 118.24 210.86 119.12 210.79 C 120.01 210.73 120.67 209.96 120.61 209.07 L 120.54 208.09 C 120.47 207.20 119.70 206.54 118.81 206.60 C 117.93 206.67 117.26 207.44 117.33 208.32 Z M 117.40 209.30 L 117.47 210.27 C 117.53 211.15 118.30 211.82 119.18 211.76 C 120.07 211.70 120.74 210.93 120.68 210.04 L 120.61 209.08 C 120.55 208.19 119.78 207.52 118.89 207.58 C 118.01 207.65 117.34 208.41 117.40 209.30 Z M 117.47 210.26 L 117.53 211.22 C 117.59 212.11 118.35 212.78 119.24 212.72 C 120.13 212.66 120.80 211.89 120.74 211.01 L 120.68 210.05 C 120.62 209.16 119.85 208.49 118.97 208.55 C 118.08 208.61 117.41 209.38 117.47 210.26 Z M 117.53 211.21 L 117.59 212.16 C 117.64 213.05 118.40 213.72 119.29 213.67 C 120.18 213.62 120.85 212.85 120.80 211.97 L 120.74 211.02 C 120.69 210.13 119.92 209.45 119.04 209.51 C 118.15 209.56 117.48 210.33 117.53 211.21 Z M 117.59 212.15 L 117.64 213.15 C 117.69 214.04 118.45 214.72 119.34 214.67 C 120.22 214.62 120.90 213.86 120.85 212.97 L 120.80 211.98 C 120.75 211.09 119.99 210.41 119.10 210.46 C 118.22 210.51 117.54 211.27 117.59 212.15 Z M 117.64 213.14 L 117.69 214.16 C 117.74 215.05 118.49 215.73 119.38 215.69 C 120.27 215.64 120.95 214.89 120.91 214.00 L 120.85 212.98 C 120.81 212.09 120.05 211.41 119.17 211.45 C 118.28 211.50 117.60 212.25 117.64 213.14 Z M 117.69 214.15 L 117.74 215.17 C 117.78 216.06 118.53 216.74 119.42 216.70 C 120.31 216.66 120.99 215.91 120.95 215.02 L 120.91 214.01 C 120.87 213.12 120.11 212.44 119.23 212.48 C 118.34 212.52 117.65 213.27 117.69 214.15 Z M 117.74 215.16 L 117.78 216.17 C 117.82 217.06 118.57 217.75 119.45 217.71 C 120.34 217.68 121.03 216.93 120.99 216.04 L 120.95 215.03 C 120.92 214.14 120.17 213.45 119.28 213.49 C 118.39 213.53 117.70 214.28 117.74 215.16 Z M 117.78 216.17 L 117.82 217.17 C 117.85 218.05 118.60 218.75 119.48 218.71 C 120.37 218.68 121.06 217.94 121.03 217.05 L 120.99 216.05 C 120.96 215.16 120.22 214.47 119.33 214.50 C 118.44 214.53 117.75 215.28 117.78 216.17 Z M 117.82 217.16 L 117.85 218.15 C 117.88 219.04 118.62 219.74 119.51 219.71 C 120.40 219.68 121.09 218.93 121.06 218.05 L 121.03 217.05 C 121.00 216.17 120.26 215.47 119.37 215.50 C 118.48 215.53 117.79 216.27 117.82 217.16 Z M 117.85 218.15 L 117.88 219.13 C 117.91 220.02 118.65 220.72 119.54 220.69 C 120.42 220.66 121.12 219.92 121.09 219.03 L 121.06 218.05 C 121.04 217.16 120.30 216.47 119.41 216.49 C 118.52 216.52 117.82 217.26 117.85 218.15 Z M 117.88 219.13 L 117.91 220.10 C 117.93 220.98 118.67 221.68 119.56 221.66 C 120.45 221.63 121.14 220.90 121.12 220.01 L 121.09 219.04 C 121.07 218.15 120.33 217.45 119.44 217.47 C 118.55 217.50 117.86 218.24 117.88 219.13 Z M 117.91 220.09 L 117.93 221.11 C 117.96 222.00 118.69 222.70 119.58 222.68 C 120.47 222.66 121.17 221.92 121.15 221.03 L 121.12 220.01 C 121.10 219.12 120.36 218.42 119.47 218.45 C 118.59 218.47 117.88 219.21 117.91 220.09 Z M 117.93 221.11 L 117.96 222.15 C 117.98 223.04 118.71 223.74 119.60 223.72 C 120.49 223.70 121.19 222.97 121.17 222.08 L 121.15 221.03 C 121.13 220.15 120.39 219.44 119.50 219.47 C 118.61 219.49 117.91 220.22 117.93 221.11 Z M 117.96 222.15 L 117.98 223.18 C 118.00 224.07 118.73 224.77 119.62 224.75 C 120.51 224.73 121.21 224.00 121.19 223.11 L 121.17 222.08 C 121.15 221.19 120.42 220.49 119.53 220.51 C 118.64 220.53 117.94 221.26 117.96 222.15 Z M 117.98 223.17 L 118.00 224.18 C 118.02 225.07 118.75 225.78 119.64 225.76 C 120.52 225.74 121.23 225.01 121.21 224.12 L 121.19 223.11 C 121.18 222.22 120.44 221.52 119.56 221.54 C 118.67 221.55 117.96 222.29 117.98 223.17 Z M 118.00 224.18 L 118.02 225.17 C 118.03 226.06 118.76 226.77 119.65 226.75 C 120.54 226.74 121.24 226.01 121.23 225.12 L 121.21 224.13 C 121.20 223.24 120.47 222.53 119.58 222.55 C 118.69 222.56 117.98 223.29 118.00 224.18 Z M 118.02 225.17 L 118.03 226.14 C 118.04 227.03 118.77 227.74 119.66 227.73 C 120.55 227.71 121.26 226.98 121.24 226.10 L 121.23 225.12 C 121.22 224.24 120.49 223.53 119.60 223.54 C 118.71 223.55 118.00 224.28 118.02 225.17 Z M 118.03 226.14 L 118.04 227.10 C 118.05 227.98 118.78 228.69 119.67 228.68 C 120.56 228.67 121.27 227.94 121.26 227.06 L 121.24 226.10 C 121.23 225.21 120.50 224.50 119.62 224.51 C 118.73 224.53 118.02 225.25 118.03 226.14 Z M 118.04 227.09 L 118.05 228.08 C 118.06 228.97 118.79 229.68 119.68 229.67 C 120.56 229.66 121.27 228.94 121.27 228.05 L 121.26 227.06 C 121.25 226.17 120.52 225.46 119.63 225.47 C 118.75 225.48 118.04 226.21 118.04 227.09 Z M 118.06 228.08 L 118.06 229.14 C 118.07 230.03 118.79 230.74 119.68 230.73 C 120.57 230.73 121.28 230.00 121.27 229.12 L 121.26 228.05 C 121.26 227.17 120.53 226.45 119.65 226.46 C 118.76 226.47 118.05 227.19 118.06 228.08 Z M 118.06 229.14 L 118.07 230.17 C 118.07 231.06 118.80 231.77 119.68 231.76 C 120.57 231.76 121.28 231.04 121.28 230.15 L 121.27 229.12 C 121.27 228.23 120.54 227.52 119.66 227.52 C 118.77 227.53 118.06 228.25 118.06 229.14 Z M 118.07 230.17 L 118.07 231.17 C 118.08 232.06 118.80 232.77 119.68 232.77 C 120.57 232.77 121.28 232.05 121.28 231.16 L 121.27 230.16 C 121.27 229.27 120.55 228.56 119.67 228.56 C 118.78 228.56 118.07 229.28 118.07 230.17 Z M 118.08 231.17 L 118.08 232.15 C 118.08 233.03 118.80 233.75 119.68 233.75 C 120.56 233.75 121.28 233.03 121.28 232.15 L 121.28 231.17 C 121.27 230.28 120.56 229.57 119.67 229.57 C 118.79 229.57 118.07 230.29 118.08 231.17 Z M 118.08 232.15 L 118.08 233.10 C 118.08 233.98 118.80 234.70 119.68 234.70 C 120.56 234.70 121.28 233.98 121.28 233.10 L 121.28 232.15 C 121.28 231.26 120.56 230.55 119.68 230.55 C 118.79 230.55 118.08 231.27 118.08 232.15 Z M 118.08 233.10 L 118.08 234.04 C 118.08 234.93 118.80 235.64 119.68 235.64 C 120.56 235.64 121.27 234.93 121.27 234.04 L 121.27 233.10 C 121.27 232.22 120.56 231.50 119.68 231.50 C 118.80 231.50 118.08 232.22 118.08 233.10 Z M 118.08 234.04 L 118.08 235.08 C 118.08 235.96 118.79 236.68 119.68 236.68 C 120.56 236.68 121.27 235.97 121.27 235.09 L 121.27 234.05 C 121.27 233.16 120.56 232.45 119.68 232.45 C 118.80 232.45 118.08 233.16 118.08 234.04 Z M 118.08 235.08 L 118.08 236.09 C 118.07 236.97 118.78 237.68 119.66 237.69 C 120.54 237.69 121.26 236.98 121.26 236.11 L 121.27 235.09 C 121.27 234.21 120.57 233.50 119.69 233.49 C 118.81 233.49 118.09 234.20 118.08 235.08 Z M 118.08 236.07 L 118.07 237.06 C 118.05 237.94 118.75 238.66 119.63 238.68 C 120.51 238.69 121.23 237.99 121.25 237.11 L 121.26 236.12 C 121.27 235.24 120.57 234.52 119.70 234.51 C 118.82 234.49 118.09 235.19 118.08 236.07 Z M 118.07 237.04 L 118.04 238.02 C 118.02 238.90 118.71 239.63 119.58 239.65 C 120.46 239.68 121.19 238.99 121.22 238.11 L 121.24 237.13 C 121.27 236.26 120.58 235.53 119.70 235.50 C 118.83 235.48 118.09 236.17 118.07 237.04 Z M 118.04 237.99 L 118.00 238.97 C 117.96 239.84 118.63 240.58 119.51 240.62 C 120.38 240.67 121.13 239.99 121.17 239.12 L 121.21 238.14 C 121.25 237.27 120.58 236.52 119.70 236.48 C 118.83 236.44 118.09 237.12 118.04 237.99 Z M 118.00 238.93 L 117.93 239.96 C 117.87 240.84 118.53 241.59 119.40 241.65 C 120.27 241.71 121.03 241.05 121.09 240.18 L 121.16 239.15 C 121.22 238.28 120.56 237.52 119.69 237.46 C 118.82 237.40 118.06 238.06 118.00 238.93 Z M 117.94 239.93 L 117.84 240.97 C 117.76 241.84 118.40 242.61 119.27 242.69 C 120.14 242.77 120.91 242.13 120.99 241.26 L 121.08 240.22 C 121.16 239.35 120.52 238.58 119.65 238.50 C 118.79 238.42 118.02 239.06 117.94 239.93 Z M 117.85 240.94 L 117.74 241.96 C 117.64 242.83 118.26 243.61 119.13 243.70 C 120.00 243.80 120.77 243.17 120.87 242.31 L 120.98 241.29 C 121.08 240.42 120.45 239.64 119.59 239.55 C 118.72 239.45 117.94 240.08 117.85 240.94 Z M 117.74 241.94 L 117.62 242.91 C 117.51 243.78 118.12 244.56 118.98 244.67 C 119.84 244.78 120.63 244.17 120.74 243.31 L 120.86 242.34 C 120.97 241.47 120.36 240.68 119.50 240.57 C 118.64 240.46 117.85 241.07 117.74 241.94 Z M 117.62 242.89 L 117.49 243.81 C 117.37 244.67 117.97 245.46 118.82 245.59 C 119.68 245.71 120.48 245.11 120.60 244.25 L 120.73 243.34 C 120.86 242.48 120.26 241.68 119.40 241.56 C 118.54 241.44 117.75 242.03 117.62 242.89 Z M 117.50 243.79 L 117.33 244.85 C 117.19 245.71 117.78 246.51 118.63 246.65 C 119.49 246.78 120.29 246.20 120.43 245.34 L 120.60 244.28 C 120.73 243.42 120.15 242.62 119.29 242.48 C 118.44 242.35 117.63 242.93 117.50 243.79 Z M 117.34 244.83 L 117.16 245.85 C 117.01 246.70 117.58 247.51 118.43 247.66 C 119.28 247.81 120.09 247.24 120.24 246.39 L 120.42 245.37 C 120.57 244.52 120.00 243.70 119.15 243.55 C 118.30 243.40 117.48 243.97 117.34 244.83 Z M 117.16 245.83 L 116.99 246.76 C 116.83 247.61 117.39 248.43 118.24 248.59 C 119.09 248.75 119.90 248.19 120.06 247.34 L 120.24 246.40 C 120.39 245.55 119.83 244.74 118.99 244.58 C 118.14 244.42 117.32 244.98 117.16 245.83 Z M 116.99 246.76 L 116.82 247.65 C 116.66 248.49 117.22 249.31 118.07 249.47 C 118.92 249.63 119.73 249.07 119.89 248.23 L 120.06 247.34 C 120.22 246.49 119.66 245.68 118.81 245.52 C 117.97 245.36 117.15 245.91 116.99 246.76 Z M 116.82 247.65 L 116.65 248.56 C 116.50 249.41 117.06 250.22 117.91 250.38 C 118.75 250.53 119.57 249.97 119.73 249.13 L 119.89 248.22 C 120.05 247.37 119.49 246.56 118.64 246.40 C 117.79 246.24 116.98 246.80 116.82 247.65 Z M 116.66 248.55 L 116.48 249.50 C 116.32 250.35 116.88 251.16 117.73 251.32 C 118.57 251.48 119.39 250.92 119.55 250.07 L 119.72 249.13 C 119.88 248.28 119.32 247.47 118.48 247.31 C 117.63 247.15 116.81 247.71 116.66 248.55 Z M 116.48 249.48 L 116.28 250.52 C 116.11 251.37 116.66 252.19 117.51 252.36 C 118.35 252.52 119.17 251.97 119.34 251.13 L 119.54 250.09 C 119.71 249.24 119.16 248.42 118.31 248.25 C 117.47 248.09 116.65 248.64 116.48 249.48 Z M 116.28 250.50 L 116.07 251.49 C 115.90 252.33 116.44 253.16 117.28 253.33 C 118.12 253.51 118.95 252.97 119.13 252.13 L 119.34 251.15 C 119.51 250.30 118.97 249.47 118.13 249.30 C 117.29 249.12 116.46 249.66 116.28 250.50 Z M 116.08 251.46 L 115.87 252.39 C 115.68 253.23 116.21 254.07 117.05 254.26 C 117.89 254.45 118.73 253.92 118.92 253.08 L 119.12 252.15 C 119.31 251.31 118.79 250.47 117.95 250.28 C 117.10 250.09 116.27 250.62 116.08 251.46 Z M 115.88 252.36 L 115.64 253.34 C 115.43 254.18 115.94 255.02 116.78 255.23 C 117.61 255.44 118.46 254.93 118.67 254.09 L 118.91 253.11 C 119.11 252.27 118.60 251.43 117.77 251.22 C 116.93 251.01 116.08 251.53 115.88 252.36 Z M 115.65 253.30 L 115.37 254.30 C 115.14 255.14 115.63 256.00 116.46 256.22 C 117.29 256.45 118.15 255.96 118.38 255.13 L 118.66 254.13 C 118.88 253.30 118.40 252.44 117.56 252.21 C 116.73 251.98 115.87 252.47 115.65 253.30 Z M 115.38 254.25 L 115.07 255.26 C 114.82 256.08 115.28 256.95 116.10 257.21 C 116.92 257.47 117.80 257.01 118.05 256.18 L 118.37 255.18 C 118.62 254.36 118.16 253.48 117.34 253.23 C 116.52 252.97 115.64 253.43 115.38 254.25 Z M 115.10 255.18 L 114.69 256.28 C 114.40 257.09 114.82 257.99 115.63 258.29 C 116.44 258.58 117.33 258.17 117.63 257.36 L 118.03 256.26 C 118.33 255.45 117.91 254.55 117.10 254.25 C 116.29 253.96 115.39 254.37 115.10 255.18 Z M 114.74 256.16 L 114.27 257.19 C 113.90 257.97 114.24 258.90 115.03 259.27 C 115.81 259.63 116.74 259.29 117.10 258.51 L 117.58 257.48 C 117.94 256.69 117.60 255.77 116.82 255.40 C 116.04 255.04 115.11 255.38 114.74 256.16 Z M 114.38 256.98 L 113.84 257.80 C 113.36 258.52 113.56 259.49 114.28 259.96 C 114.99 260.44 115.96 260.25 116.44 259.53 L 116.98 258.71 C 117.46 258.00 117.27 257.03 116.55 256.55 C 115.83 256.07 114.86 256.27 114.38 256.98 Z M 114.15 257.46 L 113.54 257.96 C 112.87 258.51 112.77 259.49 113.32 260.16 C 113.87 260.83 114.85 260.92 115.52 260.37 L 116.13 259.87 C 116.80 259.32 116.89 258.34 116.35 257.67 C 115.80 257.01 114.82 256.91 114.15 257.46 Z M 114.32 257.62 L 113.59 257.72 C 112.73 257.84 112.13 258.62 112.25 259.48 C 112.36 260.33 113.15 260.93 114.00 260.81 L 114.74 260.72 C 115.59 260.60 116.19 259.81 116.07 258.96 C 115.96 258.10 115.17 257.51 114.32 257.62 Z M 114.38 257.82 L 113.56 257.49 C 112.76 257.16 111.85 257.55 111.53 258.35 C 111.20 259.15 111.59 260.06 112.39 260.38 L 113.21 260.71 C 114.01 261.04 114.92 260.65 115.24 259.85 C 115.56 259.05 115.18 258.14 114.38 257.82 Z M 113.92 257.69 L 113.09 257.05 C 112.40 256.53 111.42 256.66 110.90 257.34 C 110.37 258.03 110.50 259.01 111.19 259.53 L 112.02 260.17 C 112.71 260.70 113.69 260.57 114.21 259.88 C 114.74 259.20 114.61 258.22 113.92 257.69 Z M 113.24 257.19 L 112.44 256.38 C 111.83 255.77 110.85 255.77 110.23 256.37 C 109.62 256.98 109.62 257.97 110.22 258.58 L 111.03 259.39 C 111.63 260.00 112.62 260.01 113.24 259.40 C 113.85 258.79 113.85 257.81 113.24 257.19 Z M 112.52 256.47 L 111.85 255.68 C 111.29 255.03 110.30 254.95 109.65 255.51 C 108.99 256.07 108.91 257.06 109.48 257.71 L 110.15 258.50 C 110.71 259.15 111.69 259.23 112.35 258.67 C 113.00 258.11 113.08 257.12 112.52 256.47 Z M 111.89 255.74 L 111.28 254.95 C 110.75 254.27 109.77 254.15 109.09 254.68 C 108.41 255.20 108.29 256.19 108.82 256.87 L 109.43 257.66 C 109.96 258.34 110.94 258.46 111.62 257.93 C 112.30 257.40 112.42 256.42 111.89 255.74 Z M 111.31 254.99 L 110.73 254.19 C 110.22 253.49 109.25 253.34 108.55 253.84 C 107.85 254.35 107.70 255.33 108.20 256.03 L 108.79 256.83 C 109.29 257.52 110.27 257.68 110.97 257.17 C 111.66 256.67 111.82 255.69 111.31 254.99 Z M 110.74 254.21 L 110.17 253.40 C 109.67 252.69 108.70 252.52 108.00 253.02 C 107.29 253.52 107.12 254.49 107.62 255.20 L 108.19 256.01 C 108.69 256.71 109.66 256.88 110.37 256.38 C 111.07 255.89 111.24 254.91 110.74 254.21 Z M 110.17 253.39 L 109.61 252.60 C 109.11 251.90 108.13 251.73 107.43 252.23 C 106.73 252.73 106.56 253.71 107.06 254.41 L 107.62 255.20 C 108.12 255.90 109.10 256.07 109.80 255.57 C 110.50 255.07 110.67 254.10 110.17 253.39 Z M 109.59 252.58 L 109.01 251.79 C 108.50 251.10 107.52 250.95 106.83 251.46 C 106.13 251.98 105.98 252.95 106.50 253.65 L 107.08 254.43 C 107.59 255.13 108.57 255.27 109.26 254.76 C 109.95 254.25 110.10 253.27 109.59 252.58 Z M 108.98 251.75 L 108.36 250.97 C 107.83 250.29 106.85 250.18 106.17 250.71 C 105.49 251.24 105.38 252.22 105.91 252.90 L 106.53 253.69 C 107.06 254.36 108.04 254.48 108.72 253.95 C 109.40 253.41 109.51 252.43 108.98 251.75 Z M 108.32 250.92 L 107.65 250.14 C 107.09 249.49 106.11 249.41 105.45 249.97 C 104.80 250.53 104.72 251.52 105.28 252.17 L 105.95 252.95 C 106.51 253.61 107.50 253.68 108.15 253.12 C 108.81 252.56 108.88 251.57 108.32 250.92 Z M 107.60 250.08 L 106.90 249.35 C 106.31 248.73 105.32 248.70 104.70 249.29 C 104.07 249.89 104.05 250.88 104.64 251.50 L 105.34 252.23 C 105.93 252.86 106.92 252.88 107.54 252.29 C 108.17 251.69 108.19 250.71 107.60 250.08 Z M 106.85 249.29 L 106.14 248.62 C 105.51 248.03 104.52 248.06 103.93 248.68 C 103.34 249.31 103.36 250.30 103.99 250.89 L 104.70 251.56 C 105.33 252.15 106.31 252.13 106.91 251.50 C 107.50 250.87 107.47 249.89 106.85 249.29 Z M 106.08 248.57 L 105.32 247.92 C 104.66 247.36 103.68 247.44 103.12 248.09 C 102.56 248.75 102.64 249.73 103.29 250.29 L 104.05 250.94 C 104.71 251.50 105.69 251.42 106.25 250.77 C 106.81 250.11 106.73 249.13 106.08 248.57 Z M 105.26 247.87 L 104.45 247.25 C 103.77 246.73 102.79 246.86 102.26 247.54 C 101.74 248.22 101.87 249.20 102.55 249.73 L 103.36 250.35 C 104.04 250.87 105.02 250.74 105.54 250.06 C 106.07 249.37 105.94 248.39 105.26 247.87 Z M 104.38 247.20 L 103.54 246.62 C 102.83 246.14 101.86 246.32 101.37 247.03 C 100.88 247.74 101.07 248.72 101.78 249.20 L 102.62 249.78 C 103.33 250.27 104.30 250.08 104.79 249.37 C 105.28 248.66 105.10 247.69 104.38 247.20 Z M 103.46 246.58 L 102.57 246.04 C 101.83 245.59 100.87 245.83 100.43 246.57 C 99.98 247.31 100.22 248.27 100.96 248.71 L 101.85 249.25 C 102.59 249.70 103.55 249.46 104.00 248.72 C 104.44 247.98 104.20 247.02 103.46 246.58 Z M 102.49 246.00 L 101.57 245.50 C 100.80 245.10 99.86 245.39 99.46 246.15 C 99.05 246.91 99.34 247.86 100.10 248.26 L 101.03 248.75 C 101.79 249.16 102.74 248.87 103.14 248.11 C 103.55 247.34 103.26 246.40 102.49 246.00 Z M 101.50 245.47 L 100.57 245.03 C 99.79 244.67 98.86 245.00 98.49 245.78 C 98.13 246.56 98.46 247.49 99.24 247.86 L 100.17 248.30 C 100.95 248.66 101.88 248.33 102.25 247.55 C 102.61 246.77 102.28 245.84 101.50 245.47 Z M 100.52 245.01 L 99.61 244.62 C 98.82 244.29 97.90 244.66 97.57 245.45 C 97.23 246.25 97.60 247.16 98.39 247.50 L 99.30 247.88 C 100.09 248.22 101.01 247.85 101.34 247.05 C 101.68 246.26 101.31 245.34 100.52 245.01 Z M 99.56 244.60 L 98.71 244.28 C 97.90 243.97 97.00 244.37 96.69 245.17 C 96.38 245.98 96.78 246.88 97.59 247.19 L 98.44 247.52 C 99.25 247.83 100.15 247.43 100.46 246.62 C 100.77 245.82 100.37 244.91 99.56 244.60 Z M 98.65 244.26 L 97.64 243.91 C 96.82 243.63 95.94 244.06 95.66 244.88 C 95.38 245.69 95.81 246.58 96.62 246.86 L 97.64 247.21 C 98.45 247.49 99.34 247.06 99.62 246.24 C 99.90 245.42 99.47 244.54 98.65 244.26 Z M 97.58 243.89 L 96.62 243.60 C 95.79 243.36 94.92 243.83 94.68 244.66 C 94.43 245.48 94.90 246.35 95.73 246.60 L 96.69 246.88 C 97.51 247.13 98.38 246.66 98.63 245.83 C 98.87 245.00 98.40 244.13 97.58 243.89 Z M 96.56 243.59 L 95.64 243.35 C 94.80 243.14 93.95 243.64 93.74 244.48 C 93.53 245.32 94.03 246.17 94.87 246.38 L 95.79 246.61 C 96.63 246.83 97.48 246.32 97.69 245.49 C 97.90 244.65 97.40 243.80 96.56 243.59 Z M 95.60 243.34 L 94.67 243.13 C 93.83 242.95 92.99 243.48 92.80 244.32 C 92.62 245.16 93.15 245.99 93.99 246.18 L 94.91 246.39 C 95.75 246.58 96.59 246.05 96.78 245.21 C 96.97 244.37 96.44 243.53 95.60 243.34 Z M 94.64 243.13 L 93.68 242.93 C 92.84 242.76 92.01 243.31 91.84 244.16 C 91.67 245.00 92.22 245.82 93.06 246.00 L 94.02 246.19 C 94.86 246.36 95.69 245.81 95.86 244.97 C 96.03 244.12 95.48 243.30 94.64 243.13 Z M 93.65 242.93 L 92.66 242.75 C 91.81 242.60 91.00 243.16 90.85 244.01 C 90.69 244.86 91.26 245.67 92.11 245.82 L 93.09 246.00 C 93.94 246.15 94.76 245.59 94.91 244.74 C 95.06 243.89 94.50 243.08 93.65 242.93 Z M 92.63 242.74 L 91.61 242.58 C 90.76 242.45 89.96 243.03 89.83 243.88 C 89.69 244.73 90.27 245.53 91.12 245.67 L 92.14 245.83 C 92.99 245.96 93.79 245.38 93.93 244.53 C 94.06 243.68 93.48 242.88 92.63 242.74 Z M 91.58 242.58 L 90.62 242.44 C 89.76 242.33 88.97 242.92 88.86 243.78 C 88.74 244.63 89.34 245.42 90.19 245.54 L 91.15 245.67 C 92.01 245.79 92.80 245.19 92.91 244.34 C 93.03 243.48 92.44 242.70 91.58 242.58 Z M 90.59 242.44 L 89.63 242.32 C 88.77 242.22 87.99 242.83 87.89 243.68 C 87.78 244.54 88.39 245.32 89.25 245.42 L 90.21 245.54 C 91.07 245.64 91.85 245.04 91.95 244.18 C 92.06 243.32 91.45 242.55 90.59 242.44 Z M 89.61 242.32 L 88.61 242.21 C 87.76 242.11 86.99 242.73 86.89 243.59 C 86.79 244.44 87.41 245.22 88.27 245.31 L 89.26 245.42 C 90.12 245.52 90.89 244.90 90.99 244.05 C 91.09 243.19 90.47 242.42 89.61 242.32 Z M 88.61 242.21 L 87.57 242.10 C 86.71 242.00 85.94 242.62 85.85 243.48 C 85.76 244.34 86.38 245.11 87.23 245.20 L 88.27 245.31 C 89.13 245.41 89.90 244.79 89.99 243.93 C 90.09 243.07 89.47 242.30 88.61 242.21 Z M 87.57 242.10 L 86.58 241.99 C 85.72 241.89 84.95 242.51 84.85 243.37 C 84.76 244.22 85.38 245.00 86.24 245.09 L 87.23 245.20 C 88.09 245.29 88.86 244.67 88.95 243.82 C 89.05 242.96 88.43 242.19 87.57 242.10 Z M 86.57 241.99 L 85.57 241.88 C 84.72 241.78 83.95 242.40 83.85 243.26 C 83.76 244.12 84.38 244.89 85.24 244.98 L 86.24 245.09 C 87.09 245.18 87.86 244.56 87.96 243.71 C 88.05 242.85 87.43 242.08 86.57 241.99 Z M 85.56 241.88 L 84.56 241.77 C 83.70 241.68 82.93 242.31 82.84 243.16 C 82.75 244.02 83.38 244.79 84.23 244.88 L 85.24 244.98 C 86.10 245.07 86.87 244.45 86.96 243.59 C 87.05 242.73 86.42 241.96 85.56 241.88 Z M 84.54 241.77 L 83.54 241.68 C 82.68 241.60 81.92 242.23 81.84 243.08 C 81.76 243.94 82.39 244.70 83.25 244.78 L 84.25 244.88 C 85.11 244.96 85.87 244.33 85.95 243.47 C 86.03 242.61 85.40 241.85 84.54 241.77 Z M 83.52 241.67 L 82.52 241.59 C 81.66 241.53 80.90 242.17 80.84 243.03 C 80.77 243.89 81.41 244.64 82.27 244.71 L 83.27 244.79 C 84.13 244.85 84.88 244.21 84.95 243.35 C 85.02 242.49 84.38 241.74 83.52 241.67 Z M 82.49 241.59 L 81.47 241.53 C 80.61 241.48 79.87 242.13 79.81 242.99 C 79.76 243.85 80.41 244.59 81.27 244.65 L 82.29 244.71 C 83.16 244.76 83.90 244.11 83.95 243.25 C 84.00 242.39 83.35 241.65 82.49 241.59 Z M 81.44 241.53 L 80.45 241.48 C 79.59 241.44 78.86 242.10 78.82 242.97 C 78.78 243.83 79.44 244.56 80.30 244.60 L 81.30 244.65 C 82.16 244.69 82.89 244.02 82.93 243.16 C 82.97 242.30 82.31 241.57 81.44 241.53 Z M 80.44 241.48 L 79.46 241.44 C 78.60 241.41 77.87 242.08 77.84 242.94 C 77.81 243.81 78.48 244.53 79.34 244.56 L 80.32 244.60 C 81.18 244.63 81.91 243.96 81.94 243.10 C 81.97 242.24 81.30 241.51 80.44 241.48 Z M 79.45 241.44 L 78.47 241.41 C 77.61 241.38 76.89 242.05 76.86 242.92 C 76.83 243.78 77.50 244.50 78.36 244.53 L 79.35 244.56 C 80.21 244.59 80.93 243.92 80.96 243.06 C 80.99 242.19 80.32 241.47 79.45 241.44 Z M 78.47 241.41 L 77.46 241.38 C 76.60 241.35 75.88 242.02 75.85 242.89 C 75.82 243.75 76.50 244.47 77.36 244.50 L 78.37 244.53 C 79.23 244.56 79.95 243.88 79.98 243.02 C 80.00 242.16 79.33 241.44 78.47 241.41 Z M 77.46 241.38 L 76.45 241.35 C 75.59 241.32 74.87 242.00 74.85 242.86 C 74.82 243.72 75.50 244.44 76.36 244.47 L 77.37 244.50 C 78.23 244.52 78.95 243.84 78.97 242.98 C 79.00 242.12 78.32 241.40 77.46 241.38 Z M 76.45 241.35 L 75.45 241.32 C 74.59 241.30 73.87 241.98 73.85 242.84 C 73.83 243.71 74.51 244.42 75.37 244.44 L 76.37 244.47 C 77.23 244.49 77.95 243.81 77.97 242.94 C 77.99 242.08 77.31 241.37 76.45 241.35 Z M 75.44 241.32 L 74.49 241.30 C 73.62 241.29 72.91 241.98 72.90 242.84 C 72.88 243.70 73.57 244.41 74.43 244.43 L 75.38 244.44 C 76.25 244.46 76.96 243.77 76.97 242.91 C 76.99 242.05 76.30 241.34 75.44 241.32 Z M 74.48 241.30 L 73.55 241.29 C 72.69 241.29 71.99 241.98 71.98 242.84 C 71.97 243.70 72.66 244.41 73.52 244.42 L 74.44 244.43 C 75.31 244.44 76.01 243.74 76.02 242.88 C 76.03 242.02 75.34 241.31 74.48 241.30 Z M 73.55 241.29 L 72.58 241.29 C 71.72 241.29 71.02 241.98 71.01 242.84 C 71.01 243.71 71.70 244.41 72.57 244.41 L 73.53 244.42 C 74.39 244.42 75.10 243.73 75.10 242.86 C 75.10 242.00 74.41 241.30 73.55 241.29 Z M 72.58 241.29 L 71.53 241.29 C 70.67 241.29 69.97 241.99 69.96 242.85 C 69.96 243.71 70.66 244.41 71.52 244.41 L 72.57 244.41 C 73.43 244.41 74.13 243.72 74.13 242.85 C 74.14 241.99 73.44 241.29 72.58 241.29 Z M 71.53 241.29 L 70.43 241.29 C 69.57 241.29 68.87 241.99 68.87 242.85 C 68.87 243.71 69.57 244.41 70.43 244.41 L 71.53 244.41 C 72.39 244.41 73.09 243.71 73.09 242.85 C 73.09 241.99 72.39 241.29 71.53 241.29 Z M 70.43 241.29 L 69.44 241.29 C 68.57 241.29 67.87 241.99 67.87 242.85 C 67.87 243.71 68.57 244.41 69.44 244.41 L 70.43 244.41 C 71.29 244.41 71.99 243.71 71.99 242.85 C 71.99 241.99 71.29 241.29 70.43 241.29 Z M 69.44 241.29 L 68.40 241.29 C 67.53 241.29 66.84 241.99 66.84 242.85 C 66.84 243.71 67.53 244.41 68.40 244.41 L 69.44 244.41 C 70.30 244.41 71.00 243.71 71.00 242.85 C 71.00 241.99 70.30 241.29 69.44 241.29 Z M 68.40 241.29 L 67.35 241.29 C 66.49 241.29 65.79 241.99 65.79 242.85 C 65.79 243.71 66.49 244.41 67.35 244.41 L 68.40 244.41 C 69.26 244.41 69.96 243.71 69.96 242.85 C 69.96 241.99 69.26 241.29 68.40 241.29 Z M 67.35 241.29 L 66.34 241.29 C 65.48 241.29 64.78 241.99 64.78 242.85 C 64.78 243.71 65.48 244.41 66.34 244.41 L 67.35 244.41 C 68.22 244.41 68.91 243.71 68.91 242.85 C 68.91 241.99 68.22 241.29 67.35 241.29 Z M 66.34 241.29 L 65.41 241.29 C 64.55 241.29 63.85 241.99 63.85 242.85 C 63.85 243.71 64.55 244.41 65.41 244.41 L 66.34 244.41 C 67.21 244.41 67.90 243.71 67.90 242.85 C 67.90 241.99 67.21 241.29 66.34 241.29 Z M 65.41 241.29 L 64.26 241.29 C 63.40 241.29 62.70 241.99 62.70 242.85 C 62.70 243.72 63.40 244.41 64.26 244.41 L 65.41 244.41 C 66.27 244.41 66.97 243.71 66.97 242.85 C 66.97 241.99 66.27 241.29 65.41 241.29 Z M 64.24 241.29 L 63.23 241.30 C 62.37 241.31 61.68 242.02 61.69 242.88 C 61.70 243.74 62.40 244.43 63.27 244.42 L 64.28 244.41 C 65.14 244.40 65.83 243.70 65.82 242.83 C 65.81 241.97 65.11 241.28 64.24 241.29 Z M 63.20 241.30 L 62.28 241.33 C 61.42 241.36 60.75 242.08 60.77 242.95 C 60.80 243.81 61.53 244.48 62.39 244.45 L 63.30 244.42 C 64.16 244.39 64.84 243.67 64.81 242.81 C 64.78 241.95 64.06 241.27 63.20 241.30 Z M 62.23 241.34 L 61.33 241.40 C 60.47 241.46 59.82 242.20 59.88 243.06 C 59.94 243.92 60.68 244.57 61.54 244.51 L 62.44 244.45 C 63.30 244.39 63.95 243.65 63.89 242.79 C 63.83 241.93 63.09 241.28 62.23 241.34 Z M 61.25 241.41 L 60.29 241.52 C 59.44 241.62 58.83 242.40 58.93 243.26 C 59.03 244.11 59.81 244.72 60.67 244.62 L 61.62 244.51 C 62.48 244.40 63.09 243.62 62.98 242.77 C 62.88 241.91 62.10 241.30 61.25 241.41 Z M 60.16 241.54 L 59.19 241.75 C 58.34 241.92 57.80 242.75 57.98 243.59 C 58.15 244.44 58.98 244.98 59.83 244.80 L 60.80 244.60 C 61.64 244.42 62.19 243.60 62.01 242.75 C 61.83 241.91 61.01 241.37 60.16 241.54 Z M 59.01 241.79 L 58.03 242.12 C 57.21 242.40 56.77 243.28 57.05 244.10 C 57.32 244.92 58.21 245.36 59.03 245.08 L 60.00 244.75 C 60.82 244.48 61.26 243.59 60.99 242.78 C 60.71 241.96 59.83 241.52 59.01 241.79 Z M 57.83 242.21 L 56.95 242.64 C 56.18 243.03 55.87 243.97 56.26 244.74 C 56.64 245.51 57.58 245.82 58.35 245.44 L 59.23 245.00 C 60.00 244.61 60.31 243.68 59.93 242.91 C 59.54 242.13 58.60 241.82 57.83 242.21 Z M 56.80 242.73 L 55.99 243.26 C 55.26 243.73 55.06 244.69 55.53 245.42 C 55.99 246.14 56.96 246.35 57.68 245.88 L 58.50 245.35 C 59.22 244.88 59.43 243.92 58.96 243.19 C 58.49 242.47 57.53 242.26 56.80 242.73 Z M 55.90 243.32 L 55.09 243.93 C 54.40 244.45 54.26 245.43 54.78 246.11 C 55.30 246.80 56.28 246.94 56.97 246.42 L 57.77 245.82 C 58.46 245.30 58.60 244.32 58.08 243.63 C 57.57 242.94 56.59 242.80 55.90 243.32 Z M 55.04 243.97 L 54.24 244.62 C 53.57 245.17 53.47 246.15 54.02 246.82 C 54.56 247.49 55.55 247.58 56.22 247.04 L 57.02 246.39 C 57.68 245.84 57.78 244.86 57.24 244.19 C 56.69 243.52 55.71 243.42 55.04 243.97 Z M 54.23 244.63 L 53.82 244.97 C 53.16 245.52 53.08 246.51 53.63 247.17 C 54.18 247.83 55.17 247.92 55.83 247.36 L 56.23 247.03 C 56.89 246.47 56.98 245.49 56.42 244.83 C 55.87 244.17 54.89 244.08 54.23 244.63 Z"
      fill="black"
      fill-rule="nonzero" /></svg>