<svg xmlns="http://www.w3.org/2000/svg" width="300" height="300" viewBox="0 0 300 300">
<path d="M 149.78 138.63 L 149.09 139.46 C 148.53 140.12 148.62 141.10 149.28 141.66 C 149.94 142.21 150.92 142.13 151.48 141.47 L 152.17 140.64 C 152.73 139.98 152.64 139.00 151.98 138.44 C 151.32 137.89 150.34 137.97 149.78 138.63 Z M 149.08 139.46 L 148.40 140.27 C 147.85 140.93 147.94 141.92 148.60 142.47 C 149.26 143.03 150.25 142.94 150.80 142.28 L 151.48 141.46 C 152.03 140.80 151.95 139.82 151.28 139.27 C 150.62 138.71 149.64 138.80 149.08 139.46 Z M 148.40 140.28 L 147.75 141.07 C 147.20 141.74 147.29 142.72 147.96 143.27 C 148.62 143.82 149.61 143.72 150.16 143.06 L 150.81 142.27 C 151.36 141.60 151.26 140.62 150.60 140.07 C 149.93 139.52 148.95 139.62 148.40 140.28 Z M 147.74 141.09 L 147.13 141.84 C 146.59 142.51 146.70 143.49 147.37 144.03 C 148.04 144.57 149.02 144.47 149.56 143.80 L 150.17 143.04 C 150.71 142.37 150.60 141.39 149.93 140.85 C 149.26 140.31 148.28 140.41 147.74 141.09 Z M 147.11 141.86 L 146.56 142.57 C 146.04 143.25 146.16 144.23 146.84 144.76 C 147.52 145.29 148.50 145.16 149.03 144.48 L 149.58 143.77 C 150.11 143.09 149.98 142.11 149.30 141.58 C 148.62 141.06 147.64 141.18 147.11 141.86 Z M 146.53 142.61 L 145.89 143.50 C 145.39 144.20 145.54 145.17 146.24 145.68 C 146.94 146.18 147.92 146.03 148.42 145.33 L 149.06 144.44 C 149.57 143.74 149.41 142.77 148.71 142.26 C 148.01 141.75 147.04 141.91 146.53 142.61 Z M 145.84 143.56 L 145.30 144.41 C 144.83 145.14 145.04 146.10 145.76 146.57 C 146.49 147.04 147.45 146.83 147.92 146.11 L 148.47 145.26 C 148.94 144.53 148.73 143.57 148.00 143.10 C 147.28 142.63 146.31 142.84 145.84 143.56 Z M 145.25 144.50 L 144.79 145.31 C 144.37 146.06 144.64 147.01 145.39 147.43 C 146.14 147.86 147.09 147.59 147.52 146.83 L 147.97 146.02 C 148.39 145.27 148.12 144.32 147.37 143.90 C 146.62 143.47 145.67 143.74 145.25 144.50 Z M 144.75 145.40 L 144.35 146.22 C 143.98 147.00 144.30 147.93 145.08 148.31 C 145.86 148.68 146.79 148.35 147.16 147.58 L 147.56 146.75 C 147.93 145.97 147.61 145.04 146.83 144.67 C 146.05 144.29 145.12 144.62 144.75 145.40 Z M 144.32 146.29 L 143.95 147.16 C 143.62 147.96 143.99 148.87 144.79 149.21 C 145.58 149.54 146.50 149.17 146.83 148.37 L 147.20 147.50 C 147.53 146.71 147.15 145.79 146.36 145.46 C 145.56 145.13 144.65 145.50 144.32 146.29 Z M 143.93 147.22 L 143.58 148.15 C 143.28 148.96 143.69 149.86 144.49 150.16 C 145.30 150.46 146.20 150.05 146.50 149.24 L 146.85 148.32 C 147.16 147.51 146.75 146.61 145.94 146.31 C 145.13 146.00 144.23 146.41 143.93 147.22 Z M 143.57 148.19 L 143.22 149.19 C 142.94 150.00 143.38 150.89 144.19 151.17 C 145.01 151.45 145.89 151.02 146.18 150.20 L 146.52 149.20 C 146.80 148.39 146.37 147.50 145.55 147.22 C 144.74 146.94 143.85 147.37 143.57 148.19 Z M 143.21 149.21 L 142.91 150.16 C 142.64 150.98 143.09 151.86 143.91 152.13 C 144.73 152.39 145.61 151.95 145.88 151.13 L 146.18 150.18 C 146.45 149.36 146.00 148.48 145.18 148.21 C 144.36 147.95 143.48 148.39 143.21 149.21 Z M 142.90 150.18 L 142.61 151.12 C 142.35 151.94 142.81 152.81 143.64 153.07 C 144.46 153.32 145.34 152.86 145.59 152.04 L 145.88 151.10 C 146.14 150.28 145.68 149.41 144.85 149.15 C 144.03 148.90 143.16 149.36 142.90 150.18 Z M 142.60 151.14 L 142.32 152.11 C 142.08 152.94 142.55 153.80 143.38 154.05 C 144.21 154.29 145.07 153.81 145.31 152.99 L 145.60 152.02 C 145.84 151.19 145.37 150.32 144.54 150.08 C 143.71 149.84 142.84 150.31 142.60 151.14 Z M 142.31 152.14 L 142.04 153.13 C 141.81 153.96 142.31 154.82 143.14 155.05 C 143.97 155.27 144.83 154.78 145.05 153.95 L 145.32 152.96 C 145.55 152.13 145.06 151.27 144.23 151.04 C 143.39 150.81 142.54 151.31 142.31 152.14 Z M 142.03 153.16 L 141.79 154.15 C 141.58 154.99 142.09 155.83 142.93 156.04 C 143.76 156.25 144.61 155.74 144.82 154.90 L 145.06 153.91 C 145.27 153.08 144.76 152.23 143.92 152.02 C 143.09 151.82 142.24 152.33 142.03 153.16 Z M 141.78 154.19 L 141.57 155.15 C 141.38 155.99 141.91 156.82 142.75 157.01 C 143.59 157.20 144.43 156.67 144.61 155.82 L 144.83 154.86 C 145.01 154.02 144.48 153.19 143.64 153.00 C 142.80 152.82 141.96 153.35 141.78 154.19 Z M 141.56 155.19 L 141.37 156.16 C 141.20 157.00 141.75 157.82 142.60 157.99 C 143.44 158.16 144.26 157.60 144.43 156.76 L 144.62 155.79 C 144.79 154.94 144.24 154.12 143.39 153.96 C 142.55 153.79 141.72 154.34 141.56 155.19 Z M 141.36 156.19 L 141.19 157.17 C 141.04 158.02 141.61 158.83 142.46 158.98 C 143.31 159.13 144.12 158.56 144.26 157.71 L 144.44 156.73 C 144.59 155.88 144.02 155.07 143.17 154.92 C 142.32 154.77 141.51 155.34 141.36 156.19 Z M 141.18 157.20 L 141.03 158.21 C 140.90 159.07 141.48 159.86 142.33 159.99 C 143.19 160.13 143.98 159.54 144.11 158.69 L 144.27 157.68 C 144.40 156.83 143.82 156.03 142.97 155.90 C 142.11 155.77 141.32 156.35 141.18 157.20 Z M 141.02 158.24 L 140.89 159.20 C 140.77 160.06 141.37 160.85 142.23 160.96 C 143.08 161.08 143.87 160.48 143.99 159.63 L 144.12 158.66 C 144.24 157.81 143.64 157.02 142.78 156.91 C 141.93 156.79 141.14 157.39 141.02 158.24 Z M 140.89 159.23 L 140.77 160.19 C 140.67 161.05 141.27 161.83 142.13 161.93 C 142.99 162.04 143.76 161.43 143.87 160.57 L 143.99 159.61 C 144.09 158.75 143.48 157.97 142.63 157.87 C 141.77 157.76 140.99 158.37 140.89 159.23 Z M 140.77 160.21 L 140.66 161.20 C 140.57 162.06 141.19 162.83 142.04 162.92 C 142.90 163.02 143.67 162.40 143.76 161.54 L 143.87 160.55 C 143.97 159.69 143.35 158.92 142.49 158.83 C 141.63 158.74 140.86 159.35 140.77 160.21 Z M 140.66 161.22 L 140.56 162.23 C 140.48 163.09 141.11 163.85 141.96 163.94 C 142.82 164.02 143.59 163.39 143.67 162.53 L 143.77 161.52 C 143.85 160.66 143.22 159.90 142.36 159.82 C 141.50 159.73 140.74 160.36 140.66 161.22 Z M 140.56 162.25 L 140.47 163.28 C 140.40 164.14 141.04 164.90 141.90 164.97 C 142.76 165.04 143.51 164.41 143.58 163.55 L 143.67 162.51 C 143.74 161.65 143.10 160.90 142.25 160.83 C 141.39 160.75 140.63 161.39 140.56 162.25 Z M 140.47 163.30 L 140.40 164.30 C 140.33 165.16 140.98 165.90 141.84 165.97 C 142.70 166.03 143.45 165.38 143.51 164.52 L 143.58 163.53 C 143.65 162.67 143.00 161.92 142.14 161.86 C 141.28 161.80 140.53 162.44 140.47 163.30 Z M 140.40 164.31 L 140.33 165.30 C 140.28 166.16 140.93 166.90 141.79 166.95 C 142.65 167.01 143.40 166.36 143.45 165.49 L 143.51 164.51 C 143.57 163.65 142.91 162.91 142.05 162.85 C 141.19 162.80 140.45 163.45 140.40 164.31 Z M 140.33 165.31 L 140.28 166.31 C 140.23 167.17 140.89 167.90 141.75 167.95 C 142.61 168.00 143.35 167.34 143.40 166.48 L 143.45 165.48 C 143.50 164.62 142.84 163.88 141.98 163.84 C 141.12 163.79 140.38 164.45 140.33 165.31 Z M 140.28 166.32 L 140.23 167.32 C 140.19 168.18 140.85 168.92 141.71 168.96 C 142.57 169.00 143.31 168.34 143.35 167.47 L 143.40 166.47 C 143.44 165.61 142.77 164.88 141.91 164.83 C 141.05 164.79 140.32 165.46 140.28 166.32 Z M 140.23 167.33 L 140.19 168.35 C 140.15 169.21 140.82 169.93 141.68 169.97 C 142.54 170.01 143.27 169.34 143.31 168.48 L 143.35 167.46 C 143.38 166.60 142.72 165.88 141.85 165.84 C 140.99 165.80 140.26 166.47 140.23 167.33 Z M 140.19 168.35 L 140.15 169.37 C 140.12 170.23 140.79 170.95 141.65 170.99 C 142.51 171.02 143.24 170.34 143.27 169.48 L 143.31 168.47 C 143.34 167.61 142.67 166.88 141.80 166.85 C 140.94 166.82 140.22 167.49 140.19 168.35 Z M 140.15 169.37 L 140.11 170.39 C 140.09 171.25 140.76 171.97 141.62 172.00 C 142.49 172.03 143.21 171.35 143.24 170.49 L 143.27 169.48 C 143.30 168.61 142.62 167.89 141.76 167.87 C 140.90 167.84 140.18 168.51 140.15 169.37 Z M 140.11 170.40 L 140.09 171.41 C 140.06 172.27 140.74 172.99 141.60 173.01 C 142.46 173.04 143.18 172.36 143.21 171.50 L 143.24 170.48 C 143.26 169.62 142.58 168.90 141.72 168.88 C 140.86 168.86 140.14 169.53 140.11 170.40 Z M 140.09 171.41 L 140.06 172.42 C 140.04 173.28 140.72 174.00 141.58 174.02 C 142.45 174.04 143.16 173.36 143.18 172.49 L 143.21 171.49 C 143.23 170.63 142.55 169.91 141.68 169.89 C 140.82 169.87 140.11 170.55 140.09 171.41 Z M 140.06 172.42 L 140.04 173.42 C 140.02 174.28 140.71 174.99 141.57 175.01 C 142.43 175.03 143.15 174.34 143.16 173.48 L 143.18 172.49 C 143.20 171.62 142.52 170.91 141.65 170.89 C 140.79 170.88 140.08 171.56 140.06 172.42 Z M 140.04 173.42 L 140.03 174.40 C 140.01 175.27 140.70 175.98 141.56 175.99 C 142.42 176.00 143.13 175.32 143.15 174.45 L 143.16 173.47 C 143.18 172.61 142.49 171.90 141.63 171.89 C 140.76 171.87 140.05 172.56 140.04 173.42 Z M 140.03 174.41 L 140.01 175.37 C 140.00 176.23 140.70 176.93 141.56 176.94 C 142.42 176.95 143.13 176.26 143.14 175.40 L 143.15 174.45 C 143.16 173.58 142.47 172.88 141.60 172.87 C 140.74 172.86 140.03 173.55 140.03 174.41 Z M 140.01 175.38 L 140.01 176.32 C 140.01 177.19 140.71 177.89 141.57 177.89 C 142.43 177.89 143.13 177.19 143.13 176.33 L 143.14 175.39 C 143.14 174.52 142.44 173.82 141.58 173.82 C 140.72 173.82 140.02 174.52 140.01 175.38 Z M 140.01 176.35 L 140.03 177.31 C 140.04 178.17 140.75 178.86 141.61 178.85 C 142.47 178.84 143.16 178.13 143.15 177.27 L 143.13 176.31 C 143.12 175.44 142.41 174.75 141.55 174.77 C 140.69 174.78 140.00 175.49 140.01 176.35 Z M 140.03 177.34 L 140.06 178.33 C 140.09 179.19 140.81 179.87 141.67 179.84 C 142.53 179.81 143.21 179.09 143.18 178.23 L 143.15 177.23 C 143.12 176.37 142.40 175.70 141.53 175.73 C 140.67 175.76 140.00 176.48 140.03 177.34 Z M 140.06 178.37 L 140.12 179.41 C 140.17 180.27 140.91 180.93 141.77 180.88 C 142.63 180.83 143.29 180.09 143.24 179.23 L 143.18 178.19 C 143.13 177.33 142.39 176.67 141.53 176.72 C 140.67 176.77 140.01 177.51 140.06 178.37 Z M 140.12 179.45 L 140.22 180.54 C 140.29 181.40 141.04 182.04 141.90 181.96 C 142.76 181.89 143.40 181.14 143.33 180.28 L 143.24 179.19 C 143.16 178.33 142.41 177.69 141.55 177.77 C 140.69 177.84 140.05 178.59 140.12 179.45 Z M 140.22 180.58 L 140.33 181.57 C 140.42 182.43 141.19 183.04 142.05 182.95 C 142.91 182.86 143.53 182.09 143.43 181.23 L 143.32 180.24 C 143.23 179.38 142.46 178.76 141.60 178.86 C 140.75 178.95 140.13 179.72 140.22 180.58 Z M 140.33 181.61 L 140.47 182.63 C 140.59 183.49 141.37 184.08 142.23 183.97 C 143.08 183.85 143.68 183.06 143.57 182.21 L 143.43 181.19 C 143.31 180.33 142.52 179.74 141.67 179.85 C 140.82 179.97 140.22 180.75 140.33 181.61 Z M 140.48 182.68 L 140.65 183.71 C 140.80 184.56 141.60 185.13 142.45 184.99 C 143.30 184.84 143.88 184.04 143.73 183.19 L 143.56 182.16 C 143.41 181.31 142.61 180.74 141.76 180.88 C 140.91 181.02 140.34 181.83 140.48 182.68 Z M 140.66 183.77 L 140.88 184.78 C 141.05 185.62 141.88 186.16 142.72 185.99 C 143.57 185.81 144.11 184.98 143.93 184.14 L 143.72 183.13 C 143.54 182.28 142.72 181.74 141.87 181.92 C 141.03 182.10 140.49 182.93 140.66 183.77 Z M 140.89 184.86 L 141.15 185.82 C 141.37 186.66 142.22 187.16 143.05 186.94 C 143.89 186.72 144.39 185.87 144.17 185.03 L 143.91 184.06 C 143.70 183.23 142.84 182.73 142.01 182.95 C 141.17 183.17 140.68 184.02 140.89 184.86 Z M 141.18 185.92 L 141.48 186.82 C 141.75 187.64 142.63 188.08 143.45 187.81 C 144.27 187.54 144.71 186.65 144.44 185.84 L 144.14 184.94 C 143.87 184.12 142.98 183.67 142.17 183.95 C 141.35 184.22 140.90 185.10 141.18 185.92 Z M 141.53 186.96 L 141.95 187.90 C 142.29 188.69 143.22 189.05 144.00 188.70 C 144.79 188.35 145.15 187.43 144.80 186.64 L 144.39 185.70 C 144.04 184.91 143.12 184.55 142.33 184.90 C 141.54 185.25 141.18 186.17 141.53 186.96 Z M 142.05 188.09 L 142.62 189.02 C 143.07 189.75 144.03 189.98 144.77 189.52 C 145.50 189.07 145.73 188.11 145.27 187.37 L 144.70 186.45 C 144.25 185.72 143.29 185.49 142.55 185.95 C 141.82 186.40 141.59 187.36 142.05 188.09 Z M 142.77 189.23 L 143.43 189.97 C 144.00 190.62 144.98 190.68 145.63 190.11 C 146.28 189.55 146.34 188.56 145.77 187.91 L 145.12 187.16 C 144.55 186.52 143.56 186.45 142.91 187.02 C 142.27 187.59 142.20 188.58 142.77 189.23 Z M 143.63 190.16 L 144.36 190.75 C 145.04 191.29 146.02 191.18 146.56 190.50 C 147.10 189.83 146.98 188.85 146.31 188.31 L 145.58 187.72 C 144.90 187.18 143.92 187.29 143.38 187.97 C 142.84 188.64 142.95 189.63 143.63 190.16 Z M 144.59 190.90 L 145.39 191.34 C 146.15 191.75 147.10 191.48 147.51 190.72 C 147.93 189.96 147.65 189.01 146.89 188.60 L 146.09 188.16 C 145.33 187.75 144.38 188.02 143.97 188.78 C 143.55 189.54 143.83 190.48 144.59 190.90 Z M 145.63 191.44 L 146.55 191.77 C 147.37 192.06 148.26 191.63 148.55 190.82 C 148.83 190.00 148.41 189.11 147.59 188.83 L 146.66 188.50 C 145.85 188.21 144.96 188.64 144.67 189.45 C 144.39 190.26 144.81 191.16 145.63 191.44 Z M 146.77 191.83 L 147.77 192.03 C 148.62 192.20 149.44 191.65 149.61 190.81 C 149.78 189.96 149.24 189.14 148.39 188.97 L 147.38 188.77 C 146.54 188.60 145.71 189.14 145.54 189.99 C 145.37 190.83 145.92 191.66 146.77 191.83 Z M 147.95 192.06 L 148.97 192.14 C 149.83 192.21 150.58 191.58 150.65 190.72 C 150.73 189.86 150.09 189.10 149.23 189.03 L 148.21 188.95 C 147.35 188.87 146.60 189.51 146.53 190.37 C 146.45 191.23 147.09 191.98 147.95 192.06 Z M 149.12 192.15 L 150.10 192.14 C 150.96 192.13 151.66 191.42 151.65 190.56 C 151.64 189.69 150.93 189.00 150.07 189.01 L 149.08 189.03 C 148.22 189.04 147.53 189.74 147.54 190.61 C 147.55 191.47 148.26 192.16 149.12 192.15 Z M 150.24 192.13 L 151.21 192.03 C 152.07 191.95 152.70 191.18 152.61 190.32 C 152.52 189.46 151.76 188.84 150.90 188.92 L 149.93 189.02 C 149.07 189.11 148.44 189.87 148.53 190.73 C 148.62 191.59 149.38 192.21 150.24 192.13 Z M 151.37 192.01 L 152.40 191.79 C 153.24 191.62 153.79 190.79 153.61 189.95 C 153.44 189.10 152.61 188.56 151.77 188.74 L 150.74 188.95 C 149.90 189.12 149.35 189.95 149.53 190.79 C 149.70 191.64 150.53 192.18 151.37 192.01 Z M 152.60 191.74 L 153.52 191.42 C 154.33 191.13 154.76 190.24 154.47 189.43 C 154.18 188.61 153.29 188.18 152.48 188.47 L 151.56 188.79 C 150.75 189.08 150.32 189.97 150.61 190.78 C 150.90 191.60 151.79 192.02 152.60 191.74 Z M 153.71 191.33 L 154.56 190.89 C 155.33 190.50 155.63 189.56 155.23 188.79 C 154.84 188.02 153.90 187.72 153.13 188.12 L 152.28 188.56 C 151.52 188.95 151.21 189.89 151.61 190.66 C 152.00 191.42 152.95 191.73 153.71 191.33 Z M 154.72 190.80 L 155.49 190.29 C 156.20 189.81 156.39 188.84 155.91 188.12 C 155.43 187.40 154.46 187.21 153.75 187.69 L 152.98 188.21 C 152.26 188.69 152.07 189.66 152.55 190.37 C 153.03 191.09 154.00 191.28 154.72 190.80 Z M 155.59 190.21 L 156.35 189.61 C 157.02 189.07 157.13 188.08 156.59 187.41 C 156.05 186.74 155.07 186.63 154.39 187.17 L 153.64 187.77 C 152.97 188.31 152.86 189.29 153.40 189.97 C 153.94 190.64 154.92 190.75 155.59 190.21 Z M 156.42 189.54 L 157.18 188.85 C 157.82 188.27 157.86 187.29 157.28 186.65 C 156.70 186.01 155.72 185.96 155.08 186.54 L 154.32 187.23 C 153.68 187.81 153.63 188.80 154.21 189.44 C 154.79 190.07 155.78 190.12 156.42 189.54 Z M 157.23 188.81 L 157.99 188.05 C 158.60 187.44 158.60 186.45 158.00 185.84 C 157.39 185.23 156.40 185.23 155.79 185.83 L 155.03 186.59 C 154.42 187.20 154.41 188.19 155.02 188.80 C 155.63 189.41 156.62 189.41 157.23 188.81 Z M 158.02 188.02 L 158.66 187.34 C 159.26 186.72 159.24 185.73 158.61 185.14 C 157.99 184.54 157.00 184.56 156.40 185.19 L 155.76 185.87 C 155.16 186.49 155.19 187.48 155.81 188.07 C 156.44 188.67 157.43 188.64 158.02 188.02 Z M 158.69 187.32 L 159.34 186.60 C 159.92 185.96 159.88 184.97 159.24 184.39 C 158.60 183.81 157.62 183.86 157.04 184.49 L 156.38 185.21 C 155.80 185.85 155.85 186.84 156.48 187.42 C 157.12 188.00 158.11 187.95 158.69 187.32 Z M 159.36 186.57 L 160.03 185.81 C 160.60 185.16 160.53 184.18 159.88 183.61 C 159.23 183.04 158.25 183.11 157.68 183.76 L 157.01 184.52 C 156.45 185.17 156.51 186.15 157.16 186.72 C 157.81 187.29 158.80 187.22 159.36 186.57 Z M 160.05 185.79 L 160.72 184.99 C 161.28 184.33 161.19 183.34 160.53 182.79 C 159.87 182.23 158.89 182.32 158.33 182.98 L 157.66 183.78 C 157.11 184.44 157.19 185.42 157.85 185.98 C 158.51 186.53 159.49 186.45 160.05 185.79 Z M 160.74 184.97 L 161.38 184.18 C 161.92 183.51 161.82 182.53 161.15 181.99 C 160.48 181.44 159.50 181.55 158.95 182.22 L 158.32 183.00 C 157.77 183.67 157.88 184.65 158.55 185.20 C 159.21 185.74 160.20 185.64 160.74 184.97 Z M 161.39 184.16 L 161.98 183.41 C 162.52 182.73 162.40 181.75 161.72 181.22 C 161.04 180.69 160.06 180.81 159.53 181.48 L 158.94 182.24 C 158.40 182.91 158.52 183.90 159.20 184.43 C 159.88 184.96 160.86 184.84 161.39 184.16 Z M 162.00 183.39 L 162.59 182.61 C 163.11 181.92 162.98 180.95 162.29 180.42 C 161.61 179.90 160.63 180.04 160.11 180.72 L 159.51 181.50 C 158.99 182.19 159.12 183.17 159.81 183.69 C 160.50 184.21 161.48 184.08 162.00 183.39 Z M 162.61 182.59 L 163.20 181.78 C 163.72 181.08 163.57 180.11 162.87 179.60 C 162.18 179.09 161.20 179.23 160.69 179.93 L 160.09 180.74 C 159.58 181.44 159.73 182.41 160.43 182.92 C 161.12 183.43 162.10 183.29 162.61 182.59 Z M 163.22 181.76 L 163.82 180.91 C 164.32 180.21 164.15 179.24 163.45 178.74 C 162.75 178.24 161.77 178.40 161.27 179.11 L 160.67 179.95 C 160.17 180.65 160.34 181.63 161.04 182.13 C 161.75 182.63 162.72 182.46 163.22 181.76 Z M 163.83 180.89 L 164.42 180.03 C 164.91 179.32 164.73 178.35 164.01 177.86 C 163.30 177.38 162.33 177.56 161.84 178.27 L 161.26 179.13 C 160.77 179.84 160.95 180.81 161.66 181.30 C 162.37 181.79 163.35 181.60 163.83 180.89 Z M 164.43 180.01 L 164.97 179.21 C 165.44 178.49 165.24 177.52 164.52 177.05 C 163.81 176.57 162.84 176.77 162.36 177.49 L 161.83 178.29 C 161.35 179.01 161.55 179.98 162.27 180.45 C 162.99 180.93 163.96 180.73 164.43 180.01 Z M 164.98 179.19 L 165.51 178.37 C 165.97 177.64 165.76 176.67 165.03 176.21 C 164.31 175.74 163.34 175.96 162.88 176.68 L 162.35 177.51 C 161.88 178.23 162.10 179.20 162.82 179.66 C 163.55 180.13 164.51 179.92 164.98 179.19 Z M 165.52 178.35 L 166.04 177.50 C 166.50 176.77 166.27 175.81 165.54 175.35 C 164.81 174.90 163.85 175.12 163.39 175.85 L 162.87 176.70 C 162.41 177.43 162.64 178.40 163.37 178.85 C 164.10 179.31 165.06 179.08 165.52 178.35 Z M 166.06 177.48 L 166.58 176.61 C 167.02 175.88 166.79 174.92 166.05 174.47 C 165.31 174.03 164.35 174.26 163.90 175.00 L 163.38 175.87 C 162.94 176.61 163.17 177.57 163.91 178.01 C 164.65 178.46 165.61 178.22 166.06 177.48 Z M 166.59 176.60 L 167.11 175.71 C 167.54 174.97 167.29 174.01 166.55 173.58 C 165.80 173.14 164.85 173.39 164.41 174.14 L 163.89 175.02 C 163.46 175.77 163.71 176.72 164.45 177.16 C 165.20 177.59 166.15 177.34 166.59 176.60 Z M 167.12 175.69 L 167.62 174.80 C 168.05 174.05 167.78 173.10 167.03 172.67 C 166.28 172.25 165.33 172.51 164.90 173.26 L 164.40 174.15 C 163.98 174.90 164.24 175.86 164.99 176.28 C 165.74 176.71 166.69 176.44 167.12 175.69 Z M 167.63 174.79 L 168.10 173.93 C 168.52 173.18 168.24 172.23 167.49 171.81 C 166.73 171.40 165.78 171.67 165.36 172.43 L 164.90 173.28 C 164.48 174.03 164.75 174.98 165.51 175.40 C 166.27 175.82 167.21 175.54 167.63 174.79 Z M 168.11 173.92 L 168.57 173.06 C 168.98 172.30 168.70 171.35 167.94 170.94 C 167.18 170.53 166.23 170.82 165.82 171.58 L 165.36 172.44 C 164.95 173.20 165.23 174.15 165.99 174.56 C 166.75 174.96 167.70 174.68 168.11 173.92 Z M 168.58 173.05 L 169.04 172.17 C 169.44 171.41 169.15 170.47 168.39 170.06 C 167.63 169.66 166.69 169.95 166.28 170.71 L 165.82 171.59 C 165.41 172.35 165.70 173.29 166.47 173.70 C 167.23 174.10 168.17 173.81 168.58 173.05 Z M 169.04 172.17 L 169.51 171.28 C 169.91 170.51 169.62 169.57 168.85 169.17 C 168.09 168.77 167.14 169.07 166.74 169.83 L 166.28 170.72 C 165.88 171.48 166.17 172.42 166.94 172.83 C 167.70 173.23 168.64 172.93 169.04 172.17 Z M 169.51 171.27 L 169.98 170.37 C 170.38 169.61 170.08 168.67 169.32 168.27 C 168.55 167.87 167.61 168.17 167.21 168.93 L 166.74 169.83 C 166.34 170.60 166.64 171.54 167.41 171.94 C 168.17 172.34 169.11 172.04 169.51 171.27 Z M 169.98 170.37 L 170.46 169.46 C 170.86 168.69 170.56 167.75 169.79 167.35 C 169.03 166.95 168.09 167.25 167.69 168.02 L 167.21 168.93 C 166.81 169.70 167.11 170.64 167.88 171.04 C 168.64 171.43 169.58 171.14 169.98 170.37 Z M 170.46 169.46 L 170.93 168.56 C 171.33 167.79 171.03 166.85 170.27 166.45 C 169.50 166.05 168.56 166.35 168.16 167.11 L 167.69 168.01 C 167.29 168.78 167.58 169.72 168.35 170.12 C 169.11 170.52 170.06 170.22 170.46 169.46 Z M 170.93 168.56 L 171.40 167.66 C 171.80 166.89 171.51 165.95 170.74 165.55 C 169.98 165.15 169.03 165.44 168.63 166.21 L 168.16 167.11 C 167.76 167.87 168.06 168.82 168.82 169.22 C 169.58 169.62 170.53 169.32 170.93 168.56 Z M 171.40 167.66 L 171.87 166.75 C 172.27 165.99 171.98 165.05 171.21 164.65 C 170.45 164.25 169.51 164.54 169.11 165.30 L 168.63 166.21 C 168.23 166.97 168.53 167.92 169.29 168.32 C 170.06 168.72 171.00 168.42 171.40 167.66 Z M 171.87 166.75 L 172.34 165.85 C 172.74 165.09 172.44 164.14 171.68 163.74 C 170.92 163.35 169.97 163.64 169.57 164.41 L 169.11 165.31 C 168.71 166.07 169.00 167.02 169.77 167.41 C 170.53 167.81 171.48 167.51 171.87 166.75 Z M 172.35 165.85 L 172.81 164.95 C 173.20 164.19 172.90 163.25 172.13 162.85 C 171.37 162.46 170.43 162.76 170.03 163.52 L 169.57 164.41 C 169.18 165.18 169.48 166.12 170.24 166.52 C 171.01 166.91 171.95 166.61 172.35 165.85 Z M 172.81 164.95 L 173.25 164.07 C 173.65 163.30 173.34 162.36 172.57 161.97 C 171.80 161.58 170.86 161.89 170.47 162.66 L 170.03 163.53 C 169.64 164.30 169.94 165.24 170.71 165.63 C 171.48 166.02 172.42 165.72 172.81 164.95 Z M 173.26 164.06 L 173.69 163.20 C 174.07 162.43 173.76 161.50 172.99 161.11 C 172.22 160.73 171.28 161.04 170.90 161.81 L 170.47 162.67 C 170.08 163.44 170.39 164.37 171.17 164.76 C 171.94 165.15 172.88 164.83 173.26 164.06 Z M 173.70 163.19 L 174.17 162.22 C 174.54 161.44 174.22 160.51 173.45 160.13 C 172.67 159.76 171.74 160.08 171.36 160.85 L 170.89 161.82 C 170.51 162.60 170.83 163.53 171.61 163.91 C 172.38 164.29 173.32 163.97 173.70 163.19 Z M 174.18 162.20 L 174.62 161.26 C 174.99 160.48 174.65 159.55 173.87 159.18 C 173.09 158.82 172.16 159.15 171.79 159.93 L 171.35 160.87 C 170.98 161.65 171.32 162.58 172.10 162.95 C 172.88 163.32 173.81 162.98 174.18 162.20 Z M 174.63 161.24 L 175.04 160.33 C 175.40 159.55 175.05 158.62 174.27 158.26 C 173.48 157.91 172.56 158.25 172.20 159.04 L 171.79 159.95 C 171.43 160.73 171.77 161.66 172.56 162.02 C 173.34 162.38 174.27 162.03 174.63 161.24 Z M 175.05 160.31 L 175.44 159.42 C 175.79 158.63 175.43 157.71 174.64 157.36 C 173.85 157.02 172.93 157.38 172.58 158.17 L 172.19 159.06 C 171.85 159.85 172.20 160.77 172.99 161.11 C 173.78 161.46 174.70 161.10 175.05 160.31 Z M 175.45 159.40 L 175.82 158.53 C 176.16 157.73 175.79 156.82 174.99 156.48 C 174.20 156.15 173.28 156.52 172.95 157.31 L 172.58 158.18 C 172.24 158.98 172.61 159.89 173.40 160.23 C 174.20 160.57 175.11 160.20 175.45 159.40 Z M 175.83 158.51 L 176.20 157.61 C 176.52 156.81 176.14 155.90 175.34 155.58 C 174.54 155.25 173.63 155.63 173.30 156.43 L 172.94 157.33 C 172.61 158.13 173.00 159.04 173.79 159.36 C 174.59 159.69 175.50 159.31 175.83 158.51 Z M 176.20 157.59 L 176.58 156.62 C 176.90 155.82 176.50 154.92 175.70 154.60 C 174.89 154.29 173.99 154.68 173.67 155.49 L 173.30 156.45 C 172.98 157.25 173.38 158.16 174.18 158.47 C 174.98 158.79 175.89 158.39 176.20 157.59 Z M 176.59 156.60 L 176.95 155.65 C 177.25 154.84 176.84 153.94 176.03 153.64 C 175.23 153.34 174.33 153.75 174.02 154.56 L 173.67 155.51 C 173.36 156.31 173.77 157.21 174.58 157.52 C 175.39 157.82 176.29 157.41 176.59 156.60 Z M 176.95 155.63 L 177.29 154.69 C 177.58 153.88 177.16 152.99 176.35 152.70 C 175.54 152.41 174.64 152.83 174.35 153.64 L 174.02 154.58 C 173.72 155.39 174.15 156.28 174.96 156.57 C 175.77 156.86 176.66 156.44 176.95 155.63 Z M 177.30 154.67 L 177.61 153.75 C 177.89 152.94 177.46 152.05 176.64 151.77 C 175.83 151.49 174.94 151.93 174.66 152.74 L 174.34 153.66 C 174.06 154.48 174.50 155.36 175.31 155.64 C 176.13 155.92 177.02 155.49 177.30 154.67 Z M 177.62 153.73 L 177.93 152.80 C 178.19 151.98 177.75 151.10 176.93 150.83 C 176.11 150.56 175.23 151.01 174.96 151.83 L 174.65 152.76 C 174.38 153.58 174.83 154.46 175.65 154.73 C 176.47 155.00 177.35 154.55 177.62 153.73 Z M 177.93 152.77 L 178.24 151.77 C 178.50 150.95 178.04 150.07 177.21 149.82 C 176.39 149.56 175.51 150.03 175.26 150.85 L 174.95 151.85 C 174.70 152.68 175.16 153.55 175.98 153.80 C 176.80 154.06 177.68 153.60 177.93 152.77 Z M 178.25 151.75 L 178.53 150.77 C 178.77 149.94 178.30 149.08 177.47 148.84 C 176.64 148.60 175.77 149.07 175.53 149.90 L 175.25 150.88 C 175.01 151.70 175.49 152.57 176.32 152.81 C 177.14 153.05 178.01 152.57 178.25 151.75 Z M 178.54 150.74 L 178.80 149.80 C 179.02 148.96 178.53 148.11 177.69 147.88 C 176.86 147.66 176.01 148.15 175.78 148.98 L 175.53 149.93 C 175.30 150.76 175.79 151.62 176.63 151.84 C 177.46 152.07 178.32 151.58 178.54 150.74 Z M 178.80 149.77 L 179.03 148.85 C 179.24 148.01 178.73 147.16 177.89 146.96 C 177.05 146.75 176.21 147.26 176.00 148.10 L 175.77 149.01 C 175.57 149.85 176.08 150.70 176.91 150.91 C 177.75 151.11 178.60 150.60 178.80 149.77 Z M 179.04 148.81 L 179.27 147.79 C 179.45 146.95 178.92 146.11 178.08 145.93 C 177.24 145.74 176.41 146.27 176.22 147.11 L 175.99 148.13 C 175.80 148.97 176.34 149.81 177.18 149.99 C 178.02 150.18 178.85 149.65 179.04 148.81 Z M 179.28 147.74 L 179.47 146.74 C 179.63 145.89 179.08 145.07 178.23 144.91 C 177.38 144.75 176.57 145.30 176.40 146.15 L 176.21 147.16 C 176.05 148.00 176.60 148.82 177.45 148.98 C 178.30 149.15 179.11 148.59 179.28 147.74 Z M 179.48 146.69 L 179.63 145.72 C 179.76 144.87 179.18 144.07 178.33 143.94 C 177.48 143.80 176.68 144.39 176.54 145.24 L 176.39 146.20 C 176.26 147.06 176.84 147.86 177.70 147.99 C 178.55 148.12 179.35 147.54 179.48 146.69 Z M 179.64 145.66 L 179.75 144.71 C 179.84 143.86 179.23 143.08 178.37 142.99 C 177.52 142.89 176.74 143.50 176.64 144.36 L 176.54 145.30 C 176.44 146.16 177.05 146.93 177.91 147.03 C 178.77 147.13 179.54 146.51 179.64 145.66 Z M 179.75 144.64 L 179.82 143.62 C 179.88 142.76 179.23 142.02 178.37 141.96 C 177.51 141.90 176.76 142.55 176.71 143.41 L 176.64 144.43 C 176.58 145.29 177.23 146.04 178.09 146.09 C 178.95 146.15 179.69 145.50 179.75 144.64 Z M 179.82 143.56 L 179.85 142.57 C 179.88 141.71 179.20 140.99 178.33 140.96 C 177.47 140.94 176.75 141.62 176.73 142.48 L 176.70 143.47 C 176.68 144.33 177.36 145.05 178.22 145.08 C 179.08 145.10 179.80 144.42 179.82 143.56 Z M 179.85 142.53 L 179.86 141.55 C 179.86 140.69 179.17 139.99 178.30 139.98 C 177.44 139.98 176.74 140.67 176.73 141.53 L 176.73 142.52 C 176.72 143.38 177.42 144.08 178.28 144.08 C 179.14 144.09 179.85 143.39 179.85 142.53 Z M 179.86 141.53 L 179.85 140.55 C 179.84 139.69 179.14 139.00 178.28 139.00 C 177.41 139.01 176.72 139.71 176.73 140.58 L 176.73 141.55 C 176.74 142.42 177.45 143.11 178.31 143.10 C 179.17 143.10 179.86 142.39 179.86 141.53 Z M 179.84 140.44 L 179.77 139.46 C 179.70 138.60 178.94 137.96 178.09 138.03 C 177.23 138.10 176.59 138.85 176.65 139.71 L 176.73 140.69 C 176.80 141.55 177.55 142.19 178.41 142.12 C 179.27 142.05 179.91 141.30 179.84 140.44 Z M 179.73 139.21 L 179.49 138.24 C 179.28 137.40 178.44 136.89 177.60 137.10 C 176.76 137.30 176.25 138.15 176.46 138.98 L 176.69 139.96 C 176.90 140.79 177.74 141.31 178.58 141.10 C 179.42 140.90 179.93 140.05 179.73 139.21 Z M 179.37 137.92 L 178.92 137.02 C 178.54 136.25 177.60 135.94 176.83 136.32 C 176.06 136.71 175.74 137.64 176.13 138.41 L 176.57 139.31 C 176.96 140.08 177.90 140.40 178.67 140.01 C 179.44 139.63 179.75 138.69 179.37 137.92 Z M 178.76 136.76 L 178.15 135.98 C 177.62 135.29 176.64 135.17 175.96 135.70 C 175.28 136.23 175.15 137.21 175.68 137.89 L 176.29 138.68 C 176.82 139.36 177.80 139.48 178.48 138.95 C 179.17 138.42 179.29 137.44 178.76 136.76 Z M 177.99 135.80 L 177.25 135.09 C 176.62 134.50 175.63 134.53 175.04 135.15 C 174.45 135.78 174.47 136.76 175.10 137.36 L 175.84 138.07 C 176.47 138.66 177.45 138.63 178.05 138.01 C 178.64 137.38 178.62 136.40 177.99 135.80 Z M 177.08 134.96 L 176.26 134.37 C 175.56 133.87 174.59 134.03 174.08 134.73 C 173.58 135.43 173.74 136.40 174.44 136.91 L 175.26 137.49 C 175.96 138.00 176.94 137.84 177.44 137.14 C 177.94 136.44 177.78 135.46 177.08 134.96 Z M 176.06 134.24 L 175.16 133.79 C 174.39 133.40 173.45 133.71 173.06 134.47 C 172.67 135.24 172.98 136.18 173.74 136.57 L 174.64 137.03 C 175.41 137.42 176.35 137.11 176.74 136.34 C 177.13 135.57 176.83 134.63 176.06 134.24 Z M 174.91 133.69 L 173.97 133.40 C 173.14 133.14 172.27 133.60 172.01 134.43 C 171.76 135.25 172.22 136.12 173.04 136.38 L 173.99 136.67 C 174.81 136.93 175.69 136.47 175.94 135.64 C 176.20 134.82 175.74 133.94 174.91 133.69 Z M 173.75 133.35 L 172.79 133.19 C 171.94 133.05 171.14 133.63 171.00 134.48 C 170.86 135.33 171.44 136.13 172.29 136.27 L 173.25 136.43 C 174.11 136.57 174.91 135.99 175.05 135.14 C 175.18 134.29 174.61 133.48 173.75 133.35 Z M 172.66 133.17 L 171.67 133.10 C 170.81 133.03 170.06 133.68 169.99 134.54 C 169.93 135.40 170.57 136.15 171.43 136.21 L 172.42 136.29 C 173.28 136.35 174.03 135.71 174.10 134.85 C 174.16 133.99 173.52 133.24 172.66 133.17 Z M 171.61 133.10 L 170.65 133.06 C 169.79 133.03 169.07 133.70 169.04 134.56 C 169.00 135.43 169.68 136.15 170.54 136.18 L 171.49 136.22 C 172.35 136.25 173.08 135.58 173.11 134.71 C 173.14 133.85 172.47 133.13 171.61 133.10 Z M 170.61 133.06 L 169.62 133.05 C 168.76 133.04 168.05 133.73 168.04 134.59 C 168.03 135.46 168.73 136.16 169.59 136.17 L 170.58 136.18 C 171.44 136.19 172.15 135.50 172.16 134.64 C 172.17 133.78 171.47 133.07 170.61 133.06 Z M 169.59 133.05 L 168.56 133.06 C 167.69 133.07 167.00 133.78 167.01 134.64 C 167.02 135.50 167.73 136.19 168.59 136.18 L 169.62 136.17 C 170.48 136.16 171.17 135.45 171.16 134.59 C 171.15 133.73 170.45 133.04 169.59 133.05 Z M 168.53 133.06 L 167.51 133.09 C 166.65 133.12 165.97 133.84 165.99 134.70 C 166.02 135.56 166.74 136.24 167.60 136.21 L 168.62 136.18 C 169.48 136.16 170.16 135.44 170.14 134.58 C 170.11 133.71 169.39 133.04 168.53 133.06 Z M 167.48 133.09 L 166.51 133.14 C 165.65 133.18 164.98 133.91 165.02 134.77 C 165.06 135.64 165.80 136.30 166.66 136.26 L 167.63 136.21 C 168.49 136.17 169.15 135.44 169.11 134.58 C 169.07 133.72 168.34 133.05 167.48 133.09 Z M 166.47 133.14 L 165.48 133.21 C 164.62 133.27 163.97 134.02 164.03 134.88 C 164.09 135.74 164.84 136.39 165.70 136.33 L 166.69 136.26 C 167.55 136.20 168.20 135.45 168.14 134.59 C 168.08 133.73 167.33 133.08 166.47 133.14 Z M 165.43 133.22 L 164.42 133.32 C 163.57 133.41 162.94 134.17 163.03 135.03 C 163.11 135.89 163.88 136.51 164.74 136.43 L 165.75 136.32 C 166.60 136.24 167.23 135.47 167.14 134.61 C 167.06 133.76 166.29 133.13 165.43 133.22 Z M 164.37 133.33 L 163.35 133.46 C 162.49 133.58 161.90 134.37 162.01 135.22 C 162.13 136.08 162.92 136.67 163.77 136.56 L 164.79 136.42 C 165.64 136.30 166.24 135.52 166.13 134.66 C 166.01 133.81 165.22 133.21 164.37 133.33 Z M 163.29 133.47 L 162.30 133.65 C 161.45 133.79 160.88 134.60 161.03 135.45 C 161.18 136.30 161.99 136.87 162.84 136.72 L 163.83 136.55 C 164.68 136.40 165.25 135.59 165.10 134.74 C 164.95 133.89 164.14 133.33 163.29 133.47 Z M 162.25 133.66 L 161.26 133.87 C 160.42 134.04 159.88 134.87 160.06 135.72 C 160.23 136.56 161.06 137.10 161.91 136.92 L 162.89 136.71 C 163.74 136.53 164.28 135.70 164.10 134.86 C 163.92 134.02 163.09 133.48 162.25 133.66 Z M 161.21 133.88 L 160.23 134.12 C 159.39 134.33 158.88 135.18 159.09 136.01 C 159.30 136.85 160.15 137.36 160.98 137.15 L 161.96 136.91 C 162.80 136.70 163.31 135.85 163.10 135.02 C 162.89 134.18 162.04 133.67 161.21 133.88 Z M 160.18 134.14 L 159.22 134.41 C 158.39 134.65 157.92 135.51 158.15 136.34 C 158.39 137.17 159.26 137.65 160.09 137.41 L 161.04 137.14 C 161.87 136.90 162.35 136.03 162.11 135.20 C 161.87 134.38 161.00 133.90 160.18 134.14 Z M 159.17 134.43 L 158.20 134.75 C 157.38 135.02 156.94 135.90 157.21 136.72 C 157.48 137.54 158.36 137.98 159.18 137.71 L 160.14 137.39 C 160.96 137.12 161.41 136.24 161.14 135.42 C 160.87 134.60 159.98 134.16 159.17 134.43 Z M 158.15 134.77 L 157.20 135.12 C 156.39 135.42 155.98 136.32 156.28 137.13 C 156.58 137.94 157.48 138.35 158.29 138.05 L 159.24 137.69 C 160.05 137.39 160.46 136.49 160.15 135.68 C 159.85 134.87 158.95 134.46 158.15 134.77 Z M 157.15 135.14 L 156.23 135.52 C 155.43 135.85 155.05 136.76 155.38 137.56 C 155.71 138.36 156.63 138.73 157.42 138.40 L 158.34 138.03 C 159.14 137.70 159.52 136.78 159.19 135.99 C 158.86 135.19 157.94 134.81 157.15 135.14 Z M 156.19 135.54 L 155.29 135.94 C 154.51 136.29 154.15 137.21 154.50 138.00 C 154.86 138.79 155.78 139.14 156.57 138.79 L 157.46 138.39 C 158.25 138.04 158.60 137.11 158.25 136.33 C 157.90 135.54 156.98 135.19 156.19 135.54 Z M 155.26 135.95 L 154.36 136.38 C 153.58 136.75 153.25 137.68 153.62 138.46 C 153.99 139.24 154.92 139.57 155.70 139.20 L 156.60 138.77 C 157.38 138.41 157.71 137.47 157.34 136.69 C 156.97 135.92 156.04 135.58 155.26 135.95 Z M 154.34 136.39 L 153.43 136.84 C 152.66 137.22 152.34 138.16 152.72 138.93 C 153.11 139.70 154.04 140.02 154.81 139.64 L 155.72 139.19 C 156.49 138.81 156.81 137.87 156.43 137.10 C 156.05 136.32 155.11 136.01 154.34 136.39 Z M 153.41 136.85 L 152.52 137.31 C 151.75 137.70 151.45 138.65 151.84 139.41 C 152.24 140.18 153.18 140.48 153.94 140.09 L 154.84 139.63 C 155.60 139.23 155.90 138.29 155.51 137.52 C 155.12 136.76 154.17 136.46 153.41 136.85 Z M 152.50 137.32 L 151.62 137.78 C 150.86 138.19 150.57 139.14 150.98 139.90 C 151.39 140.66 152.33 140.95 153.09 140.54 L 153.96 140.07 C 154.73 139.67 155.01 138.72 154.61 137.96 C 154.20 137.20 153.26 136.91 152.50 137.32 Z M 151.60 137.79 L 150.72 138.28 C 149.97 138.70 149.69 139.64 150.11 140.40 C 150.52 141.16 151.47 141.43 152.23 141.02 L 153.11 140.53 C 153.87 140.11 154.14 139.17 153.73 138.41 C 153.31 137.65 152.36 137.38 151.60 137.79 Z M 150.70 138.29 L 149.82 138.79 C 149.07 139.22 148.81 140.17 149.24 140.92 C 149.66 141.67 150.62 141.93 151.37 141.51 L 152.25 141.00 C 153.00 140.58 153.26 139.63 152.83 138.88 C 152.41 138.13 151.45 137.86 150.70 138.29 Z M 149.80 138.80 L 148.94 139.31 C 148.20 139.75 147.96 140.70 148.39 141.45 C 148.83 142.19 149.79 142.44 150.53 142.00 L 151.39 141.49 C 152.13 141.06 152.38 140.10 151.94 139.36 C 151.50 138.61 150.54 138.37 149.80 138.80 Z M 148.92 139.32 L 148.09 139.84 C 147.35 140.29 147.12 141.25 147.57 141.98 C 148.02 142.72 148.99 142.95 149.72 142.50 L 150.55 141.98 C 151.29 141.53 151.52 140.57 151.07 139.84 C 150.62 139.10 149.66 138.87 148.92 139.32 Z M 148.06 139.85 L 147.22 140.39 C 146.49 140.86 146.28 141.82 146.74 142.55 C 147.21 143.28 148.17 143.49 148.90 143.02 L 149.75 142.48 C 150.47 142.02 150.68 141.05 150.22 140.32 C 149.75 139.60 148.79 139.39 148.06 139.85 Z M 147.19 140.41 L 146.36 140.96 C 145.64 141.44 145.45 142.41 145.92 143.13 C 146.40 143.85 147.37 144.04 148.09 143.56 L 148.92 143.01 C 149.64 142.53 149.83 141.56 149.36 140.84 C 148.88 140.12 147.91 139.93 147.19 140.41 Z M 146.34 140.98 L 145.52 141.55 C 144.81 142.04 144.63 143.01 145.12 143.72 C 145.61 144.43 146.59 144.60 147.29 144.11 L 148.11 143.55 C 148.82 143.06 149.00 142.08 148.51 141.37 C 148.02 140.67 147.04 140.49 146.34 140.98 Z M 145.50 141.56 L 144.69 142.14 C 143.99 142.64 143.83 143.61 144.33 144.31 C 144.83 145.02 145.81 145.18 146.51 144.67 L 147.31 144.10 C 148.02 143.60 148.18 142.62 147.67 141.92 C 147.17 141.22 146.20 141.06 145.50 141.56 Z M 144.67 142.15 L 143.88 142.73 C 143.19 143.25 143.04 144.22 143.55 144.92 C 144.06 145.61 145.04 145.76 145.73 145.25 L 146.53 144.66 C 147.22 144.15 147.37 143.17 146.86 142.48 C 146.35 141.79 145.37 141.64 144.67 142.15 Z M 143.87 142.74 L 143.07 143.34 C 142.38 143.86 142.25 144.84 142.77 145.53 C 143.29 146.22 144.26 146.36 144.95 145.84 L 145.75 145.24 C 146.44 144.72 146.57 143.74 146.05 143.05 C 145.53 142.36 144.56 142.23 143.87 142.74 Z M 143.06 143.35 L 142.26 143.97 C 141.57 144.49 141.44 145.47 141.97 146.16 C 142.49 146.84 143.47 146.97 144.16 146.45 L 144.96 145.83 C 145.65 145.31 145.78 144.33 145.25 143.64 C 144.73 142.96 143.75 142.83 143.06 143.35 Z M 142.25 143.97 L 141.51 144.55 C 140.83 145.08 140.70 146.06 141.23 146.74 C 141.76 147.42 142.74 147.55 143.42 147.02 L 144.16 146.44 C 144.85 145.91 144.97 144.93 144.44 144.25 C 143.91 143.57 142.93 143.45 142.25 143.97 Z M 141.49 144.57 L 140.75 145.15 C 140.08 145.69 139.97 146.67 140.51 147.35 C 141.05 148.02 142.03 148.13 142.71 147.59 L 143.44 147.00 C 144.11 146.46 144.22 145.48 143.68 144.81 C 143.14 144.14 142.16 144.03 141.49 144.57 Z M 140.72 145.18 L 139.96 145.83 C 139.30 146.39 139.22 147.37 139.78 148.03 C 140.34 148.68 141.33 148.76 141.98 148.21 L 142.74 147.56 C 143.40 147.00 143.48 146.02 142.92 145.36 C 142.36 144.70 141.38 144.62 140.72 145.18 Z M 139.91 145.87 L 139.12 146.60 C 138.49 147.18 138.45 148.17 139.03 148.80 C 139.62 149.44 140.61 149.48 141.24 148.89 L 142.03 148.16 C 142.66 147.58 142.70 146.59 142.12 145.96 C 141.54 145.32 140.55 145.28 139.91 145.87 Z M 139.08 146.64 L 138.35 147.37 C 137.75 147.98 137.75 148.97 138.36 149.58 C 138.97 150.18 139.96 150.18 140.57 149.57 L 141.29 148.85 C 141.90 148.24 141.89 147.25 141.28 146.64 C 140.67 146.03 139.68 146.03 139.08 146.64 Z M 138.31 147.41 L 137.64 148.14 C 137.06 148.77 137.10 149.76 137.73 150.34 C 138.37 150.93 139.35 150.89 139.94 150.25 L 140.61 149.53 C 141.19 148.90 141.15 147.91 140.52 147.32 C 139.89 146.74 138.90 146.78 138.31 147.41 Z M 137.61 148.18 L 136.94 148.95 C 136.38 149.60 136.45 150.59 137.11 151.15 C 137.76 151.71 138.75 151.64 139.31 150.98 L 139.97 150.21 C 140.54 149.56 140.46 148.57 139.81 148.01 C 139.16 147.45 138.17 147.52 137.61 148.18 Z M 136.91 148.99 L 136.27 149.79 C 135.73 150.46 135.84 151.45 136.51 151.98 C 137.18 152.52 138.16 152.42 138.70 151.74 L 139.34 150.94 C 139.88 150.27 139.78 149.29 139.10 148.75 C 138.43 148.21 137.45 148.32 136.91 148.99 Z M 136.23 149.84 L 135.63 150.65 C 135.12 151.34 135.26 152.32 135.95 152.83 C 136.65 153.35 137.63 153.20 138.14 152.51 L 138.74 151.69 C 139.25 151.00 139.11 150.02 138.41 149.51 C 137.72 149.00 136.74 149.14 136.23 149.84 Z M 135.59 150.71 L 135.02 151.56 C 134.54 152.28 134.73 153.25 135.44 153.73 C 136.16 154.21 137.13 154.02 137.61 153.30 L 138.18 152.45 C 138.66 151.73 138.47 150.76 137.75 150.28 C 137.04 149.80 136.07 149.99 135.59 150.71 Z M 134.97 151.63 L 134.44 152.52 C 134.00 153.27 134.24 154.22 134.98 154.67 C 135.72 155.11 136.68 154.87 137.12 154.12 L 137.65 153.23 C 138.10 152.49 137.85 151.53 137.11 151.09 C 136.37 150.65 135.41 150.89 134.97 151.63 Z M 134.40 152.59 L 133.93 153.47 C 133.52 154.23 133.81 155.17 134.57 155.58 C 135.33 155.99 136.27 155.70 136.68 154.94 L 137.15 154.06 C 137.56 153.30 137.28 152.36 136.52 151.95 C 135.76 151.54 134.81 151.83 134.40 152.59 Z M 133.91 153.51 L 133.48 154.39 C 133.09 155.16 133.41 156.09 134.18 156.48 C 134.96 156.86 135.89 156.54 136.27 155.77 L 136.71 154.90 C 137.09 154.12 136.77 153.19 136.00 152.81 C 135.23 152.42 134.29 152.74 133.91 153.51 Z M 133.46 154.41 L 133.05 155.28 C 132.69 156.06 133.02 156.99 133.80 157.36 C 134.58 157.72 135.51 157.39 135.88 156.61 L 136.29 155.74 C 136.66 154.96 136.32 154.03 135.54 153.67 C 134.76 153.30 133.83 153.63 133.46 154.41 Z M 133.05 155.28 L 132.98 155.43 C 132.62 156.21 132.96 157.14 133.74 157.50 C 134.52 157.87 135.45 157.53 135.81 156.75 L 135.88 156.60 C 136.25 155.82 135.91 154.89 135.13 154.53 C 134.35 154.17 133.42 154.50 133.05 155.28 Z"
      fill="black"
      fill-rule="nonzero" /></svg>