<svg xmlns="http://www.w3.org/2000/svg" width="300" height="300" viewBox="0 0 300 300">
<path d="M 131.78 173.31 L 131.85 174.32 C 131.91 175.18 132.66 175.83 133.52 175.77 C 134.38 175.71 135.03 174.96 134.97 174.10 L 134.90 173.09 C 134.83 172.23 134.09 171.58 133.23 171.64 C 132.37 171.71 131.72 172.45 131.78 173.31 Z M 131.85 174.34 L 131.93 175.34 C 132.00 176.20 132.76 176.84 133.62 176.77 C 134.48 176.70 135.12 175.95 135.05 175.09 L 134.97 174.09 C 134.90 173.23 134.14 172.59 133.28 172.66 C 132.42 172.73 131.78 173.48 131.85 174.34 Z M 131.94 175.38 L 132.04 176.37 C 132.12 177.22 132.89 177.85 133.75 177.76 C 134.61 177.67 135.23 176.91 135.14 176.05 L 135.04 175.06 C 134.96 174.20 134.19 173.58 133.33 173.66 C 132.48 173.75 131.85 174.52 131.94 175.38 Z M 132.04 176.41 L 132.17 177.37 C 132.29 178.23 133.07 178.83 133.93 178.71 C 134.78 178.60 135.38 177.81 135.27 176.96 L 135.14 176.00 C 135.02 175.15 134.24 174.55 133.38 174.66 C 132.53 174.77 131.93 175.56 132.04 176.41 Z M 132.18 177.44 L 132.34 178.34 C 132.50 179.19 133.31 179.76 134.15 179.61 C 135.00 179.45 135.57 178.64 135.42 177.80 L 135.26 176.89 C 135.10 176.04 134.29 175.48 133.44 175.63 C 132.60 175.78 132.03 176.59 132.18 177.44 Z M 132.36 178.43 L 132.58 179.36 C 132.78 180.19 133.62 180.71 134.46 180.51 C 135.30 180.32 135.82 179.48 135.62 178.64 L 135.40 177.71 C 135.20 176.87 134.36 176.35 133.52 176.55 C 132.68 176.75 132.16 177.59 132.36 178.43 Z M 132.60 179.45 L 132.90 180.43 C 133.15 181.26 134.02 181.73 134.85 181.48 C 135.67 181.23 136.14 180.36 135.89 179.53 L 135.59 178.55 C 135.35 177.72 134.47 177.25 133.65 177.50 C 132.82 177.75 132.36 178.62 132.60 179.45 Z M 132.93 180.52 L 133.30 181.54 C 133.60 182.35 134.49 182.77 135.30 182.48 C 136.11 182.18 136.53 181.29 136.24 180.48 L 135.86 179.45 C 135.57 178.64 134.68 178.22 133.86 178.52 C 133.05 178.81 132.64 179.70 132.93 180.52 Z M 133.33 181.61 L 133.68 182.46 C 134.01 183.26 134.92 183.64 135.72 183.31 C 136.52 182.98 136.90 182.07 136.57 181.27 L 136.21 180.41 C 135.88 179.62 134.97 179.24 134.17 179.57 C 133.38 179.90 133.00 180.81 133.33 181.61 Z M 133.71 182.53 L 134.13 183.42 C 134.49 184.20 135.42 184.54 136.20 184.18 C 136.98 183.81 137.32 182.88 136.96 182.10 L 136.54 181.21 C 136.18 180.43 135.25 180.09 134.46 180.45 C 133.68 180.82 133.34 181.75 133.71 182.53 Z M 134.16 183.49 L 134.64 184.40 C 135.04 185.16 135.99 185.45 136.75 185.04 C 137.51 184.64 137.80 183.70 137.40 182.93 L 136.92 182.03 C 136.52 181.27 135.57 180.98 134.81 181.38 C 134.05 181.79 133.76 182.73 134.16 183.49 Z M 134.69 184.48 L 135.23 185.37 C 135.68 186.10 136.64 186.33 137.38 185.88 C 138.11 185.43 138.34 184.47 137.89 183.73 L 137.35 182.85 C 136.90 182.11 135.94 181.88 135.20 182.33 C 134.47 182.78 134.24 183.75 134.69 184.48 Z M 135.30 185.47 L 135.90 186.30 C 136.41 187.00 137.39 187.16 138.08 186.65 C 138.78 186.15 138.94 185.17 138.43 184.47 L 137.83 183.64 C 137.32 182.94 136.35 182.78 135.65 183.29 C 134.95 183.79 134.79 184.77 135.30 185.47 Z M 136.00 186.42 L 136.68 187.20 C 137.25 187.85 138.23 187.91 138.88 187.34 C 139.53 186.77 139.59 185.79 139.03 185.14 L 138.34 184.36 C 137.77 183.71 136.79 183.65 136.14 184.22 C 135.49 184.78 135.43 185.77 136.00 186.42 Z M 136.79 187.31 L 137.54 188.01 C 138.17 188.60 139.16 188.56 139.75 187.93 C 140.33 187.30 140.30 186.31 139.67 185.72 L 138.91 185.02 C 138.28 184.44 137.29 184.47 136.71 185.11 C 136.12 185.74 136.16 186.73 136.79 187.31 Z M 137.66 188.11 L 138.47 188.72 C 139.16 189.24 140.13 189.10 140.65 188.41 C 141.17 187.72 141.04 186.74 140.35 186.22 L 139.54 185.62 C 138.85 185.10 137.88 185.24 137.36 185.93 C 136.84 186.61 136.97 187.59 137.66 188.11 Z M 138.60 188.81 L 139.45 189.32 C 140.18 189.76 141.14 189.53 141.59 188.79 C 142.04 188.05 141.80 187.09 141.06 186.65 L 140.21 186.13 C 139.48 185.69 138.52 185.93 138.07 186.66 C 137.62 187.40 137.86 188.36 138.60 188.81 Z M 139.59 189.39 L 140.47 189.81 C 141.25 190.18 142.18 189.84 142.55 189.06 C 142.92 188.28 142.58 187.35 141.80 186.99 L 140.92 186.57 C 140.14 186.20 139.21 186.54 138.84 187.32 C 138.47 188.10 138.81 189.03 139.59 189.39 Z M 140.62 189.87 L 141.54 190.19 C 142.35 190.48 143.24 190.05 143.53 189.23 C 143.81 188.42 143.38 187.53 142.57 187.24 L 141.65 186.92 C 140.84 186.64 139.95 187.07 139.66 187.88 C 139.38 188.70 139.81 189.59 140.62 189.87 Z M 141.70 190.24 L 142.67 190.46 C 143.51 190.65 144.34 190.13 144.54 189.29 C 144.73 188.45 144.21 187.61 143.37 187.42 L 142.40 187.20 C 141.56 187.00 140.73 187.53 140.53 188.37 C 140.34 189.21 140.86 190.05 141.70 190.24 Z M 142.84 190.49 L 143.82 190.60 C 144.67 190.70 145.45 190.09 145.54 189.23 C 145.64 188.37 145.03 187.60 144.17 187.50 L 143.19 187.39 C 142.34 187.29 141.56 187.91 141.46 188.76 C 141.37 189.62 141.98 190.39 142.84 190.49 Z M 143.99 190.61 L 144.98 190.61 C 145.85 190.61 146.55 189.92 146.55 189.05 C 146.55 188.19 145.85 187.49 144.99 187.49 L 143.99 187.49 C 143.13 187.49 142.43 188.19 142.43 189.05 C 142.43 189.91 143.13 190.61 143.99 190.61 Z M 145.16 190.60 L 146.16 190.49 C 147.02 190.40 147.63 189.62 147.54 188.77 C 147.44 187.91 146.67 187.29 145.81 187.39 L 144.81 187.50 C 143.96 187.60 143.34 188.37 143.43 189.22 C 143.53 190.08 144.30 190.70 145.16 190.60 Z M 146.33 190.46 L 147.33 190.24 C 148.17 190.05 148.70 189.22 148.52 188.38 C 148.33 187.54 147.49 187.01 146.65 187.19 L 145.65 187.42 C 144.81 187.60 144.28 188.44 144.46 189.28 C 144.65 190.12 145.48 190.65 146.33 190.46 Z M 147.48 190.20 L 148.45 189.88 C 149.27 189.62 149.71 188.73 149.44 187.92 C 149.18 187.10 148.29 186.65 147.48 186.92 L 146.51 187.23 C 145.69 187.50 145.24 188.38 145.51 189.20 C 145.78 190.02 146.66 190.47 147.48 190.20 Z M 148.56 189.84 L 149.52 189.44 C 150.31 189.11 150.69 188.20 150.35 187.40 C 150.02 186.60 149.11 186.23 148.31 186.56 L 147.36 186.96 C 146.56 187.29 146.19 188.21 146.52 189.00 C 146.85 189.80 147.77 190.17 148.56 189.84 Z M 149.61 189.40 L 150.53 188.94 C 151.30 188.56 151.61 187.62 151.23 186.85 C 150.84 186.07 149.91 185.76 149.14 186.15 L 148.22 186.61 C 147.45 186.99 147.13 187.93 147.52 188.70 C 147.90 189.47 148.84 189.78 149.61 189.40 Z M 150.61 188.90 L 151.48 188.40 C 152.22 187.97 152.48 187.01 152.05 186.27 C 151.62 185.52 150.67 185.26 149.92 185.69 L 149.05 186.19 C 148.31 186.62 148.05 187.57 148.48 188.32 C 148.91 189.07 149.86 189.33 150.61 188.90 Z M 151.55 188.35 L 152.34 187.84 C 153.07 187.37 153.27 186.40 152.80 185.68 C 152.33 184.96 151.36 184.75 150.64 185.22 L 149.85 185.74 C 149.12 186.21 148.92 187.17 149.39 187.90 C 149.86 188.62 150.83 188.82 151.55 188.35 Z M 152.42 187.79 L 153.26 187.16 C 153.96 186.65 154.10 185.67 153.59 184.98 C 153.08 184.29 152.10 184.14 151.41 184.65 L 150.57 185.27 C 149.87 185.79 149.72 186.76 150.24 187.46 C 150.75 188.15 151.72 188.30 152.42 187.79 Z M 153.35 187.10 L 154.13 186.43 C 154.78 185.87 154.86 184.89 154.30 184.23 C 153.75 183.58 152.76 183.50 152.10 184.05 L 151.32 184.72 C 150.67 185.28 150.59 186.26 151.15 186.92 C 151.71 187.58 152.69 187.65 153.35 187.10 Z M 154.20 186.36 L 154.90 185.69 C 155.51 185.09 155.53 184.10 154.92 183.48 C 154.32 182.86 153.33 182.85 152.72 183.45 L 152.03 184.13 C 151.41 184.73 151.40 185.72 152.00 186.33 C 152.60 186.95 153.59 186.96 154.20 186.36 Z M 154.95 185.63 L 155.60 184.93 C 156.18 184.30 156.14 183.31 155.51 182.73 C 154.88 182.14 153.89 182.18 153.30 182.81 L 152.66 183.51 C 152.07 184.14 152.11 185.13 152.75 185.72 C 153.38 186.30 154.37 186.26 154.95 185.63 Z M 155.63 184.90 L 156.26 184.17 C 156.82 183.52 156.75 182.53 156.10 181.97 C 155.45 181.40 154.47 181.47 153.90 182.12 L 153.27 182.85 C 152.71 183.50 152.78 184.49 153.43 185.05 C 154.08 185.62 155.06 185.55 155.63 184.90 Z M 156.28 184.14 L 156.91 183.39 C 157.46 182.72 157.37 181.74 156.70 181.19 C 156.04 180.64 155.06 180.73 154.51 181.39 L 153.88 182.15 C 153.33 182.81 153.42 183.80 154.08 184.35 C 154.75 184.90 155.73 184.81 156.28 184.14 Z M 156.94 183.35 L 157.56 182.56 C 158.09 181.88 157.97 180.90 157.29 180.37 C 156.61 179.84 155.63 179.96 155.10 180.64 L 154.48 181.43 C 153.95 182.11 154.07 183.09 154.74 183.62 C 155.42 184.15 156.40 184.03 156.94 183.35 Z M 157.59 182.52 L 158.19 181.70 C 158.70 181.00 158.55 180.02 157.85 179.52 C 157.15 179.01 156.18 179.16 155.67 179.86 L 155.07 180.68 C 154.56 181.37 154.71 182.35 155.41 182.86 C 156.10 183.37 157.08 183.22 157.59 182.52 Z M 158.23 181.64 L 158.79 180.80 C 159.27 180.09 159.08 179.12 158.36 178.64 C 157.64 178.16 156.67 178.35 156.19 179.07 L 155.63 179.91 C 155.15 180.63 155.34 181.59 156.06 182.07 C 156.78 182.55 157.75 182.36 158.23 181.64 Z M 158.83 180.75 L 159.34 179.91 C 159.78 179.17 159.55 178.21 158.81 177.76 C 158.07 177.31 157.11 177.55 156.67 178.29 L 156.16 179.13 C 155.71 179.86 155.94 180.82 156.68 181.27 C 157.42 181.72 158.38 181.48 158.83 180.75 Z M 159.37 179.85 L 159.85 178.99 C 160.26 178.23 159.99 177.28 159.24 176.86 C 158.48 176.45 157.53 176.72 157.12 177.47 L 156.64 178.34 C 156.22 179.09 156.49 180.04 157.24 180.46 C 158.00 180.88 158.95 180.61 159.37 179.85 Z M 159.87 178.94 L 160.33 178.05 C 160.72 177.28 160.42 176.34 159.65 175.95 C 158.88 175.55 157.94 175.86 157.55 176.63 L 157.09 177.52 C 156.70 178.29 157.00 179.23 157.77 179.62 C 158.54 180.01 159.48 179.71 159.87 178.94 Z M 160.35 178.01 L 160.79 177.09 C 161.16 176.31 160.83 175.38 160.05 175.01 C 159.27 174.63 158.34 174.96 157.97 175.74 L 157.53 176.66 C 157.16 177.44 157.49 178.37 158.26 178.75 C 159.04 179.12 159.97 178.79 160.35 178.01 Z M 160.80 177.06 L 161.20 176.17 C 161.56 175.38 161.21 174.46 160.42 174.10 C 159.64 173.75 158.71 174.10 158.36 174.88 L 157.96 175.77 C 157.60 176.56 157.95 177.48 158.73 177.84 C 159.52 178.19 160.44 177.84 160.80 177.06 Z M 161.21 176.14 L 161.60 175.24 C 161.95 174.45 161.58 173.53 160.79 173.19 C 160.00 172.85 159.08 173.21 158.74 174.00 L 158.35 174.91 C 158.01 175.70 158.37 176.62 159.16 176.96 C 159.95 177.30 160.87 176.94 161.21 176.14 Z M 161.61 175.22 L 162.00 174.29 C 162.33 173.49 161.95 172.58 161.15 172.25 C 160.35 171.92 159.44 172.30 159.11 173.10 L 158.73 174.02 C 158.40 174.82 158.78 175.73 159.58 176.06 C 160.37 176.39 161.28 176.01 161.61 175.22 Z M 162.01 174.27 L 162.38 173.32 C 162.70 172.52 162.30 171.61 161.50 171.30 C 160.70 170.98 159.79 171.37 159.48 172.17 L 159.10 173.12 C 158.79 173.92 159.18 174.83 159.98 175.15 C 160.78 175.46 161.69 175.07 162.01 174.27 Z M 162.39 173.30 L 162.75 172.34 C 163.06 171.54 162.65 170.64 161.84 170.33 C 161.04 170.03 160.14 170.43 159.83 171.24 L 159.47 172.20 C 159.16 173.00 159.57 173.90 160.38 174.21 C 161.18 174.51 162.08 174.11 162.39 173.30 Z M 162.76 172.32 L 163.10 171.39 C 163.39 170.58 162.97 169.69 162.16 169.39 C 161.35 169.10 160.46 169.52 160.16 170.33 L 159.82 171.26 C 159.53 172.07 159.95 172.96 160.76 173.26 C 161.57 173.55 162.46 173.13 162.76 172.32 Z M 163.10 171.37 L 163.43 170.43 C 163.71 169.62 163.28 168.73 162.47 168.44 C 161.66 168.16 160.77 168.59 160.48 169.41 L 160.16 170.35 C 159.87 171.16 160.30 172.05 161.12 172.33 C 161.93 172.62 162.82 172.19 163.10 171.37 Z M 163.44 170.41 L 163.75 169.46 C 164.03 168.65 163.59 167.76 162.77 167.49 C 161.95 167.21 161.07 167.66 160.79 168.47 L 160.48 169.42 C 160.20 170.24 160.64 171.13 161.46 171.40 C 162.28 171.67 163.16 171.23 163.44 170.41 Z M 163.76 169.45 L 164.07 168.49 C 164.33 167.67 163.88 166.79 163.06 166.53 C 162.24 166.26 161.36 166.71 161.09 167.54 L 160.79 168.49 C 160.52 169.31 160.98 170.19 161.80 170.46 C 162.62 170.72 163.50 170.27 163.76 169.45 Z M 164.07 168.47 L 164.37 167.51 C 164.62 166.68 164.16 165.81 163.34 165.56 C 162.51 165.30 161.64 165.77 161.38 166.59 L 161.09 167.55 C 160.84 168.38 161.30 169.25 162.12 169.50 C 162.95 169.76 163.82 169.29 164.07 168.47 Z M 164.37 167.49 L 164.66 166.52 C 164.90 165.70 164.43 164.83 163.60 164.58 C 162.78 164.34 161.91 164.81 161.66 165.64 L 161.38 166.61 C 161.14 167.43 161.61 168.30 162.44 168.55 C 163.26 168.79 164.13 168.32 164.37 167.49 Z M 164.66 166.51 L 164.94 165.54 C 165.17 164.71 164.69 163.84 163.86 163.61 C 163.03 163.38 162.17 163.86 161.93 164.69 L 161.66 165.66 C 161.43 166.49 161.91 167.35 162.74 167.58 C 163.57 167.82 164.43 167.33 164.66 166.51 Z M 164.94 165.52 L 165.20 164.55 C 165.43 163.72 164.93 162.86 164.10 162.64 C 163.27 162.41 162.41 162.90 162.19 163.74 L 161.93 164.71 C 161.70 165.54 162.20 166.39 163.03 166.62 C 163.86 166.84 164.72 166.35 164.94 165.52 Z M 165.21 164.53 L 165.46 163.57 C 165.67 162.73 165.17 161.88 164.33 161.67 C 163.50 161.45 162.64 161.96 162.43 162.79 L 162.18 163.76 C 161.97 164.59 162.47 165.44 163.31 165.66 C 164.14 165.87 164.99 165.37 165.21 164.53 Z M 165.46 163.55 L 165.69 162.59 C 165.90 161.75 165.38 160.91 164.54 160.70 C 163.71 160.50 162.86 161.02 162.66 161.85 L 162.43 162.81 C 162.22 163.65 162.74 164.49 163.57 164.70 C 164.41 164.90 165.26 164.38 165.46 163.55 Z M 165.70 162.57 L 165.92 161.59 C 166.11 160.75 165.59 159.91 164.75 159.72 C 163.91 159.52 163.07 160.05 162.88 160.89 L 162.65 161.87 C 162.46 162.71 162.99 163.55 163.83 163.74 C 164.67 163.94 165.50 163.41 165.70 162.57 Z M 165.93 161.57 L 166.14 160.59 C 166.32 159.75 165.78 158.92 164.94 158.73 C 164.10 158.55 163.27 159.09 163.08 159.93 L 162.87 160.91 C 162.69 161.75 163.23 162.58 164.07 162.76 C 164.91 162.95 165.75 162.41 165.93 161.57 Z M 166.14 160.57 L 166.34 159.60 C 166.51 158.75 165.96 157.93 165.12 157.76 C 164.27 157.58 163.45 158.13 163.28 158.98 L 163.08 159.95 C 162.91 160.80 163.45 161.62 164.30 161.79 C 165.14 161.96 165.97 161.42 166.14 160.57 Z M 166.34 159.58 L 166.53 158.60 C 166.69 157.76 166.14 156.94 165.29 156.77 C 164.44 156.61 163.63 157.17 163.46 158.01 L 163.28 158.99 C 163.11 159.84 163.67 160.66 164.51 160.82 C 165.36 160.98 166.18 160.43 166.34 159.58 Z M 166.53 158.59 L 166.71 157.61 C 166.87 156.77 166.30 155.95 165.46 155.80 C 164.61 155.64 163.79 156.20 163.64 157.05 L 163.46 158.03 C 163.31 158.87 163.87 159.69 164.72 159.84 C 165.56 160.00 166.38 159.44 166.53 158.59 Z M 166.71 157.60 L 166.88 156.66 C 167.02 155.81 166.46 155.00 165.61 154.86 C 164.76 154.71 163.95 155.28 163.80 156.13 L 163.64 157.07 C 163.49 157.92 164.06 158.72 164.91 158.87 C 165.76 159.02 166.57 158.45 166.71 157.60 Z M 166.88 156.64 L 167.03 155.68 C 167.17 154.83 166.59 154.03 165.74 153.90 C 164.89 153.76 164.09 154.34 163.95 155.19 L 163.80 156.15 C 163.66 157.00 164.24 157.80 165.09 157.94 C 165.94 158.07 166.74 157.49 166.88 156.64 Z M 167.04 155.66 L 167.18 154.67 C 167.30 153.82 166.71 153.03 165.85 152.91 C 165.00 152.78 164.21 153.38 164.09 154.23 L 163.95 155.22 C 163.83 156.07 164.42 156.86 165.27 156.98 C 166.13 157.10 166.92 156.51 167.04 155.66 Z M 167.18 154.64 L 167.30 153.62 C 167.41 152.76 166.80 151.98 165.94 151.88 C 165.09 151.78 164.31 152.39 164.20 153.24 L 164.08 154.27 C 163.98 155.12 164.59 155.90 165.45 156.00 C 166.30 156.10 167.08 155.49 167.18 154.64 Z M 167.31 153.58 L 167.41 152.52 C 167.49 151.66 166.86 150.90 166.00 150.82 C 165.15 150.74 164.38 151.37 164.30 152.22 L 164.20 153.28 C 164.12 154.14 164.75 154.90 165.61 154.99 C 166.47 155.07 167.23 154.44 167.31 153.58 Z M 167.41 152.48 L 167.48 151.47 C 167.54 150.61 166.89 149.87 166.03 149.81 C 165.17 149.75 164.43 150.40 164.37 151.26 L 164.30 152.27 C 164.24 153.13 164.89 153.87 165.75 153.93 C 166.61 153.99 167.35 153.34 167.41 152.48 Z M 167.48 151.42 L 167.52 150.40 C 167.55 149.53 166.88 148.81 166.02 148.78 C 165.15 148.75 164.43 149.42 164.40 150.29 L 164.36 151.31 C 164.33 152.17 165.01 152.90 165.87 152.93 C 166.73 152.96 167.45 152.28 167.48 151.42 Z M 167.52 150.33 L 167.51 149.30 C 167.51 148.44 166.81 147.75 165.94 147.75 C 165.08 147.76 164.39 148.46 164.39 149.33 L 164.40 150.35 C 164.41 151.21 165.11 151.91 165.97 151.90 C 166.83 151.90 167.53 151.19 167.52 150.33 Z M 167.51 149.22 L 167.45 148.22 C 167.40 147.36 166.66 146.70 165.80 146.75 C 164.94 146.81 164.28 147.55 164.33 148.41 L 164.40 149.41 C 164.45 150.27 165.19 150.93 166.05 150.87 C 166.91 150.82 167.56 150.08 167.51 149.22 Z M 167.44 148.11 L 167.31 147.14 C 167.20 146.29 166.42 145.69 165.56 145.80 C 164.71 145.91 164.10 146.70 164.22 147.55 L 164.34 148.52 C 164.46 149.37 165.24 149.97 166.10 149.86 C 166.95 149.75 167.55 148.96 167.44 148.11 Z M 167.29 147.00 L 167.06 146.03 C 166.87 145.19 166.03 144.66 165.19 144.86 C 164.35 145.05 163.83 145.89 164.02 146.73 L 164.24 147.70 C 164.44 148.54 165.28 149.06 166.12 148.87 C 166.96 148.68 167.48 147.84 167.29 147.00 Z M 167.01 145.84 L 166.64 144.85 C 166.35 144.05 165.45 143.63 164.64 143.93 C 163.83 144.23 163.42 145.12 163.71 145.93 L 164.08 146.92 C 164.37 147.73 165.27 148.14 166.08 147.84 C 166.89 147.54 167.30 146.65 167.01 145.84 Z M 166.55 144.65 L 166.08 143.78 C 165.67 143.02 164.73 142.73 163.97 143.14 C 163.21 143.55 162.92 144.50 163.33 145.25 L 163.80 146.13 C 164.21 146.89 165.16 147.18 165.92 146.77 C 166.68 146.36 166.96 145.41 166.55 144.65 Z M 165.96 143.59 L 165.39 142.81 C 164.87 142.12 163.90 141.97 163.20 142.48 C 162.51 142.99 162.36 143.97 162.87 144.66 L 163.45 145.44 C 163.96 146.14 164.94 146.28 165.63 145.77 C 166.33 145.26 166.47 144.28 165.96 143.59 Z M 165.24 142.64 L 164.57 141.96 C 163.97 141.35 162.98 141.34 162.36 141.94 C 161.75 142.55 161.74 143.53 162.35 144.15 L 163.02 144.83 C 163.62 145.45 164.61 145.45 165.22 144.85 C 165.84 144.25 165.85 143.26 165.24 142.64 Z M 164.42 141.82 L 163.65 141.22 C 162.97 140.69 161.98 140.82 161.46 141.50 C 160.93 142.18 161.05 143.16 161.73 143.69 L 162.50 144.29 C 163.18 144.82 164.16 144.69 164.69 144.01 C 165.22 143.33 165.10 142.35 164.42 141.82 Z M 163.49 141.11 L 162.64 140.61 C 161.90 140.17 160.94 140.41 160.50 141.15 C 160.05 141.89 160.30 142.85 161.04 143.29 L 161.89 143.80 C 162.63 144.24 163.59 144.00 164.03 143.26 C 164.47 142.52 164.23 141.56 163.49 141.11 Z M 162.48 140.53 L 161.57 140.11 C 160.79 139.75 159.86 140.10 159.50 140.89 C 159.15 141.67 159.49 142.60 160.28 142.95 L 161.19 143.37 C 161.97 143.73 162.90 143.38 163.26 142.59 C 163.61 141.81 163.27 140.88 162.48 140.53 Z M 161.43 140.05 L 160.47 139.73 C 159.65 139.45 158.77 139.89 158.49 140.71 C 158.21 141.53 158.65 142.41 159.47 142.69 L 160.42 143.01 C 161.24 143.29 162.13 142.85 162.40 142.03 C 162.68 141.22 162.24 140.33 161.43 140.05 Z M 160.33 139.69 L 159.35 139.46 C 158.51 139.26 157.67 139.78 157.47 140.62 C 157.27 141.45 157.79 142.30 158.63 142.50 L 159.61 142.73 C 160.45 142.93 161.29 142.41 161.49 141.57 C 161.69 140.73 161.17 139.89 160.33 139.69 Z M 159.22 139.43 L 158.24 139.29 C 157.39 139.17 156.59 139.76 156.47 140.61 C 156.35 141.46 156.94 142.26 157.79 142.38 L 158.77 142.52 C 159.62 142.65 160.41 142.05 160.54 141.20 C 160.66 140.35 160.07 139.56 159.22 139.43 Z M 158.10 139.28 L 157.11 139.22 C 156.25 139.18 155.51 139.84 155.47 140.70 C 155.42 141.56 156.08 142.30 156.94 142.34 L 157.93 142.39 C 158.79 142.44 159.53 141.78 159.57 140.92 C 159.62 140.06 158.96 139.32 158.10 139.28 Z M 156.97 139.22 L 155.97 139.26 C 155.11 139.29 154.44 140.02 154.47 140.88 C 154.50 141.74 155.23 142.41 156.09 142.38 L 157.09 142.34 C 157.95 142.31 158.62 141.58 158.59 140.72 C 158.55 139.86 157.83 139.19 156.97 139.22 Z M 155.83 139.27 L 154.82 139.41 C 153.97 139.52 153.37 140.30 153.48 141.16 C 153.59 142.01 154.38 142.61 155.23 142.50 L 156.24 142.37 C 157.09 142.26 157.69 141.47 157.58 140.62 C 157.47 139.76 156.68 139.16 155.83 139.27 Z M 154.68 139.43 L 153.68 139.66 C 152.84 139.85 152.31 140.68 152.50 141.53 C 152.69 142.37 153.52 142.89 154.37 142.70 L 155.37 142.48 C 156.21 142.29 156.74 141.45 156.55 140.61 C 156.36 139.77 155.52 139.24 154.68 139.43 Z M 153.56 139.69 L 152.57 140.00 C 151.74 140.26 151.28 141.13 151.54 141.95 C 151.79 142.78 152.67 143.24 153.49 142.98 L 154.49 142.67 C 155.31 142.42 155.77 141.54 155.51 140.72 C 155.26 139.89 154.38 139.43 153.56 139.69 Z M 152.47 140.03 L 151.51 140.40 C 150.70 140.71 150.30 141.61 150.61 142.41 C 150.91 143.22 151.82 143.62 152.62 143.32 L 153.59 142.95 C 154.39 142.64 154.79 141.74 154.49 140.93 C 154.18 140.13 153.28 139.72 152.47 140.03 Z M 151.43 140.43 L 150.52 140.83 C 149.73 141.18 149.38 142.10 149.72 142.89 C 150.07 143.68 150.99 144.04 151.78 143.69 L 152.70 143.29 C 153.48 142.94 153.84 142.02 153.49 141.23 C 153.14 140.44 152.22 140.08 151.43 140.43 Z M 150.46 140.86 L 149.62 141.28 C 148.85 141.66 148.53 142.59 148.91 143.37 C 149.29 144.14 150.23 144.46 151.00 144.08 L 151.84 143.66 C 152.62 143.28 152.93 142.34 152.55 141.57 C 152.17 140.80 151.23 140.48 150.46 140.86 Z M 149.56 141.31 L 148.62 141.82 C 147.86 142.24 147.58 143.19 148.00 143.94 C 148.41 144.70 149.36 144.98 150.12 144.56 L 151.06 144.04 C 151.82 143.63 152.10 142.68 151.68 141.93 C 151.27 141.17 150.32 140.89 149.56 141.31 Z M 148.56 141.86 L 147.69 142.38 C 146.96 142.83 146.72 143.79 147.17 144.53 C 147.62 145.27 148.58 145.50 149.31 145.05 L 150.18 144.53 C 150.91 144.08 151.15 143.12 150.70 142.38 C 150.25 141.65 149.29 141.41 148.56 141.86 Z M 147.65 142.41 L 146.86 142.93 C 146.14 143.40 145.94 144.37 146.41 145.09 C 146.89 145.81 147.85 146.01 148.57 145.54 L 149.36 145.02 C 150.08 144.55 150.28 143.58 149.81 142.86 C 149.34 142.14 148.37 141.94 147.65 142.41 Z M 146.85 142.94 L 146.06 143.47 C 145.35 143.95 145.16 144.92 145.64 145.63 C 146.12 146.35 147.09 146.54 147.81 146.05 L 148.59 145.53 C 149.31 145.04 149.49 144.07 149.01 143.36 C 148.53 142.64 147.56 142.46 146.85 142.94 Z M 146.06 143.47 L 145.23 144.03 C 144.52 144.52 144.33 145.49 144.82 146.20 C 145.30 146.91 146.27 147.10 146.99 146.61 L 147.81 146.05 C 148.53 145.57 148.71 144.60 148.23 143.88 C 147.74 143.17 146.77 142.98 146.06 143.47 Z M 145.21 144.05 L 144.38 144.63 C 143.68 145.13 143.51 146.10 144.01 146.81 C 144.51 147.51 145.48 147.68 146.19 147.18 L 147.01 146.60 C 147.71 146.10 147.88 145.13 147.38 144.42 C 146.88 143.72 145.91 143.55 145.21 144.05 Z M 144.34 144.66 L 143.55 145.27 C 142.86 145.79 142.73 146.77 143.25 147.45 C 143.77 148.14 144.75 148.27 145.44 147.75 L 146.23 147.15 C 146.92 146.63 147.05 145.65 146.53 144.96 C 146.01 144.27 145.03 144.14 144.34 144.66 Z M 143.49 145.31 L 142.72 145.96 C 142.06 146.51 141.97 147.49 142.52 148.16 C 143.07 148.82 144.06 148.91 144.72 148.35 L 145.49 147.71 C 146.15 147.15 146.24 146.17 145.69 145.51 C 145.14 144.85 144.15 144.76 143.49 145.31 Z M 142.68 145.99 L 141.94 146.65 C 141.29 147.23 141.24 148.21 141.81 148.86 C 142.39 149.50 143.37 149.56 144.02 148.98 L 144.76 148.32 C 145.40 147.74 145.46 146.76 144.88 146.11 C 144.31 145.47 143.32 145.42 142.68 145.99 Z M 141.92 146.67 L 141.19 147.34 C 140.55 147.92 140.51 148.91 141.09 149.54 C 141.67 150.18 142.66 150.22 143.30 149.64 L 144.03 148.97 C 144.67 148.39 144.71 147.40 144.13 146.76 C 143.54 146.13 142.56 146.08 141.92 146.67 Z M 141.19 147.33 L 140.45 148.01 C 139.81 148.59 139.77 149.57 140.35 150.21 C 140.93 150.85 141.91 150.90 142.55 150.32 L 143.29 149.65 C 143.93 149.07 143.98 148.08 143.40 147.44 C 142.82 146.80 141.83 146.75 141.19 147.33 Z M 140.46 148.00 L 139.71 148.67 C 139.07 149.25 139.02 150.24 139.60 150.88 C 140.18 151.52 141.16 151.57 141.80 150.99 L 142.55 150.32 C 143.19 149.74 143.24 148.76 142.66 148.12 C 142.08 147.48 141.10 147.42 140.46 148.00 Z M 139.71 148.68 L 138.97 149.35 C 138.33 149.93 138.28 150.91 138.86 151.55 C 139.44 152.19 140.43 152.24 141.07 151.66 L 141.81 150.99 C 142.45 150.41 142.49 149.42 141.92 148.78 C 141.34 148.15 140.35 148.10 139.71 148.68 Z M 138.96 149.36 L 138.28 149.98 C 137.65 150.56 137.61 151.55 138.19 152.18 C 138.77 152.82 139.76 152.86 140.40 152.28 L 141.07 151.65 C 141.71 151.07 141.75 150.08 141.17 149.45 C 140.58 148.81 139.60 148.77 138.96 149.36 Z M 138.27 149.99 L 137.59 150.64 C 136.96 151.23 136.93 152.22 137.52 152.84 C 138.12 153.47 139.10 153.50 139.73 152.91 L 140.41 152.26 C 141.04 151.67 141.07 150.68 140.47 150.06 C 139.88 149.43 138.89 149.40 138.27 149.99 Z M 137.57 150.66 L 136.83 151.38 C 136.21 151.98 136.20 152.97 136.81 153.58 C 137.41 154.20 138.40 154.21 139.01 153.61 L 139.75 152.89 C 140.37 152.28 140.38 151.30 139.77 150.68 C 139.17 150.06 138.18 150.05 137.57 150.66 Z M 136.81 151.40 L 136.05 152.17 C 135.44 152.78 135.45 153.77 136.06 154.38 C 136.68 154.98 137.67 154.97 138.27 154.36 L 139.03 153.59 C 139.64 152.97 139.63 151.99 139.02 151.38 C 138.41 150.77 137.42 150.78 136.81 151.40 Z M 136.03 152.18 L 135.37 152.88 C 134.77 153.50 134.80 154.49 135.42 155.08 C 136.04 155.68 137.03 155.66 137.62 155.04 L 138.29 154.34 C 138.88 153.72 138.86 152.73 138.24 152.14 C 137.62 151.54 136.63 151.56 136.03 152.18 Z M 135.36 152.89 L 134.66 153.63 C 134.08 154.26 134.11 155.25 134.74 155.84 C 135.37 156.43 136.36 156.39 136.95 155.76 L 137.64 155.02 C 138.23 154.39 138.19 153.40 137.56 152.81 C 136.93 152.23 135.95 152.26 135.36 152.89 Z M 134.65 153.65 L 133.95 154.42 C 133.37 155.06 133.42 156.04 134.06 156.62 C 134.70 157.20 135.69 157.15 136.27 156.51 L 136.96 155.75 C 137.54 155.11 137.49 154.12 136.85 153.54 C 136.21 152.96 135.23 153.01 134.65 153.65 Z M 133.93 154.44 L 133.26 155.21 C 132.69 155.86 132.76 156.84 133.41 157.41 C 134.06 157.98 135.04 157.91 135.61 157.26 L 136.28 156.49 C 136.85 155.84 136.79 154.86 136.14 154.29 C 135.49 153.72 134.50 153.79 133.93 154.44 Z M 133.24 155.24 L 132.57 156.04 C 132.02 156.70 132.11 157.69 132.77 158.24 C 133.43 158.79 134.42 158.70 134.97 158.04 L 135.64 157.23 C 136.19 156.57 136.10 155.59 135.43 155.03 C 134.77 154.48 133.79 154.57 133.24 155.24 Z M 132.54 156.07 L 131.89 156.90 C 131.36 157.57 131.48 158.56 132.16 159.09 C 132.84 159.62 133.82 159.50 134.35 158.82 L 135.00 158.00 C 135.53 157.32 135.41 156.34 134.73 155.81 C 134.05 155.28 133.07 155.40 132.54 156.07 Z M 131.87 156.93 L 131.28 157.72 C 130.76 158.41 130.91 159.39 131.60 159.90 C 132.29 160.42 133.27 160.28 133.78 159.59 L 134.37 158.79 C 134.89 158.10 134.75 157.12 134.06 156.61 C 133.36 156.09 132.39 156.24 131.87 156.93 Z M 131.26 157.74 L 130.71 158.52 C 130.20 159.22 130.36 160.19 131.06 160.69 C 131.76 161.20 132.74 161.04 133.24 160.34 L 133.80 159.57 C 134.30 158.87 134.14 157.89 133.44 157.39 C 132.74 156.88 131.77 157.04 131.26 157.74 Z M 130.70 158.52 L 130.34 159.03 C 129.84 159.74 130.01 160.71 130.71 161.21 C 131.41 161.71 132.39 161.54 132.89 160.84 L 133.25 160.33 C 133.75 159.63 133.58 158.65 132.88 158.15 C 132.17 157.66 131.20 157.82 130.70 158.52 Z"
      fill="black"
      fill-rule="nonzero" /></svg>