<svg xmlns="http://www.w3.org/2000/svg" width="300" height="300" viewBox="0 0 300 300">
<path d="M 144.48 137.68 L 143.49 137.77 C 142.63 137.84 141.99 138.60 142.06 139.46 C 142.14 140.32 142.89 140.95 143.75 140.88 L 144.74 140.80 C 145.60 140.72 146.24 139.97 146.17 139.11 C 146.09 138.25 145.34 137.61 144.48 137.68 Z M 143.41 137.78 L 142.42 137.91 C 141.57 138.03 140.97 138.82 141.09 139.67 C 141.21 140.53 141.99 141.12 142.85 141.01 L 143.83 140.87 C 144.69 140.75 145.28 139.97 145.17 139.11 C 145.05 138.26 144.26 137.66 143.41 137.78 Z M 142.27 137.94 L 141.30 138.18 C 140.46 138.38 139.94 139.23 140.15 140.07 C 140.35 140.90 141.20 141.42 142.03 141.21 L 143.00 140.98 C 143.84 140.77 144.36 139.93 144.15 139.09 C 143.95 138.25 143.11 137.74 142.27 137.94 Z M 141.09 138.25 L 140.21 138.60 C 139.40 138.92 139.01 139.82 139.33 140.63 C 139.65 141.43 140.56 141.82 141.36 141.50 L 142.24 141.15 C 143.04 140.83 143.43 139.92 143.11 139.12 C 142.80 138.32 141.89 137.93 141.09 138.25 Z M 140.01 138.69 L 139.21 139.15 C 138.46 139.58 138.20 140.53 138.63 141.28 C 139.05 142.03 140.01 142.29 140.76 141.86 L 141.56 141.40 C 142.31 140.97 142.57 140.02 142.14 139.27 C 141.71 138.52 140.76 138.26 140.01 138.69 Z M 139.05 139.26 L 138.26 139.85 C 137.56 140.36 137.42 141.34 137.94 142.03 C 138.45 142.72 139.43 142.86 140.12 142.35 L 140.91 141.76 C 141.61 141.24 141.75 140.26 141.23 139.57 C 140.72 138.88 139.74 138.74 139.05 139.26 Z M 138.13 139.95 L 137.35 140.67 C 136.71 141.26 136.67 142.25 137.26 142.88 C 137.84 143.51 138.83 143.55 139.46 142.97 L 140.25 142.25 C 140.88 141.66 140.92 140.67 140.34 140.04 C 139.75 139.41 138.76 139.37 138.13 139.95 Z M 137.25 140.77 L 136.53 141.55 C 135.95 142.18 135.99 143.17 136.63 143.76 C 137.26 144.34 138.25 144.30 138.83 143.66 L 139.55 142.88 C 140.14 142.24 140.09 141.25 139.46 140.67 C 138.82 140.09 137.84 140.13 137.25 140.77 Z M 136.47 141.62 L 135.84 142.40 C 135.29 143.07 135.40 144.06 136.07 144.60 C 136.74 145.14 137.72 145.04 138.26 144.37 L 138.90 143.59 C 139.44 142.92 139.34 141.94 138.67 141.39 C 138.00 140.85 137.02 140.95 136.47 141.62 Z M 135.79 142.46 L 135.18 143.29 C 134.67 143.98 134.82 144.96 135.51 145.47 C 136.20 145.99 137.18 145.84 137.69 145.14 L 138.31 144.31 C 138.82 143.62 138.67 142.64 137.98 142.13 C 137.28 141.62 136.31 141.77 135.79 142.46 Z M 135.15 143.34 L 134.57 144.19 C 134.09 144.90 134.27 145.87 134.99 146.36 C 135.70 146.84 136.67 146.65 137.15 145.94 L 137.73 145.09 C 138.21 144.38 138.03 143.41 137.31 142.93 C 136.60 142.44 135.63 142.63 135.15 143.34 Z M 134.54 144.23 L 134.02 145.07 C 133.56 145.80 133.78 146.76 134.51 147.22 C 135.24 147.68 136.20 147.46 136.66 146.73 L 137.18 145.89 C 137.64 145.16 137.42 144.20 136.69 143.74 C 135.96 143.28 135.00 143.50 134.54 144.23 Z M 133.99 145.12 L 133.47 146.02 C 133.04 146.77 133.30 147.72 134.05 148.15 C 134.80 148.58 135.75 148.32 136.18 147.57 L 136.69 146.67 C 137.12 145.92 136.86 144.97 136.12 144.54 C 135.37 144.11 134.41 144.37 133.99 145.12 Z M 133.44 146.08 L 132.96 147.02 C 132.57 147.79 132.87 148.73 133.64 149.12 C 134.41 149.51 135.35 149.21 135.74 148.44 L 136.22 147.50 C 136.61 146.74 136.30 145.80 135.54 145.40 C 134.77 145.01 133.83 145.32 133.44 146.08 Z M 132.93 147.08 L 132.53 147.97 C 132.17 148.75 132.52 149.68 133.31 150.03 C 134.09 150.39 135.02 150.04 135.37 149.25 L 135.77 148.37 C 136.13 147.59 135.78 146.66 134.99 146.31 C 134.21 145.95 133.28 146.30 132.93 147.08 Z M 132.51 148.02 L 132.15 148.88 C 131.82 149.68 132.20 150.59 133.00 150.92 C 133.80 151.25 134.71 150.87 135.04 150.07 L 135.39 149.20 C 135.72 148.41 135.34 147.50 134.54 147.17 C 133.75 146.84 132.83 147.22 132.51 148.02 Z M 132.14 148.91 L 131.79 149.79 C 131.48 150.60 131.88 151.50 132.68 151.82 C 133.48 152.13 134.39 151.73 134.70 150.93 L 135.05 150.04 C 135.36 149.24 134.96 148.34 134.16 148.02 C 133.36 147.71 132.45 148.11 132.14 148.91 Z M 131.79 149.81 L 131.44 150.73 C 131.14 151.54 131.55 152.44 132.36 152.74 C 133.16 153.04 134.06 152.63 134.37 151.83 L 134.71 150.91 C 135.01 150.10 134.60 149.20 133.80 148.90 C 132.99 148.60 132.09 149.01 131.79 149.81 Z M 131.43 150.76 L 131.10 151.71 C 130.81 152.52 131.24 153.41 132.05 153.70 C 132.86 153.99 133.75 153.56 134.04 152.75 L 134.38 151.80 C 134.66 150.99 134.24 150.10 133.43 149.81 C 132.61 149.52 131.72 149.95 131.43 150.76 Z M 131.09 151.74 L 130.76 152.72 C 130.49 153.54 130.94 154.42 131.76 154.69 C 132.58 154.96 133.46 154.52 133.73 153.70 L 134.05 152.72 C 134.32 151.90 133.88 151.01 133.06 150.74 C 132.24 150.47 131.36 150.92 131.09 151.74 Z M 130.75 152.76 L 130.47 153.70 C 130.22 154.52 130.68 155.39 131.51 155.64 C 132.34 155.89 133.21 155.43 133.46 154.60 L 133.74 153.66 C 133.99 152.84 133.52 151.96 132.70 151.71 C 131.87 151.46 131.00 151.93 130.75 152.76 Z M 130.46 153.73 L 130.19 154.68 C 129.96 155.51 130.45 156.37 131.28 156.60 C 132.11 156.83 132.97 156.35 133.20 155.52 L 133.47 154.57 C 133.70 153.74 133.21 152.88 132.38 152.64 C 131.55 152.41 130.69 152.90 130.46 153.73 Z M 130.19 154.70 L 129.93 155.68 C 129.71 156.51 130.21 157.36 131.05 157.58 C 131.88 157.80 132.74 157.30 132.95 156.46 L 133.21 155.49 C 133.42 154.66 132.92 153.80 132.09 153.59 C 131.26 153.37 130.40 153.87 130.19 154.70 Z M 129.93 155.70 L 129.68 156.69 C 129.48 157.53 129.99 158.38 130.83 158.58 C 131.66 158.79 132.51 158.27 132.72 157.44 L 132.96 156.44 C 133.16 155.61 132.65 154.76 131.81 154.56 C 130.98 154.35 130.13 154.86 129.93 155.70 Z M 129.68 156.71 L 129.45 157.67 C 129.26 158.51 129.78 159.35 130.62 159.55 C 131.46 159.75 132.30 159.22 132.49 158.38 L 132.72 157.42 C 132.92 156.58 132.39 155.74 131.55 155.54 C 130.71 155.35 129.87 155.87 129.68 156.71 Z M 129.45 157.69 L 129.24 158.64 C 129.05 159.48 129.58 160.32 130.42 160.51 C 131.26 160.69 132.10 160.16 132.29 159.32 L 132.50 158.37 C 132.69 157.53 132.15 156.69 131.31 156.51 C 130.47 156.32 129.64 156.85 129.45 157.69 Z M 129.23 158.66 L 129.03 159.63 C 128.85 160.47 129.39 161.30 130.23 161.48 C 131.08 161.66 131.91 161.12 132.08 160.28 L 132.29 159.30 C 132.47 158.46 131.93 157.63 131.08 157.45 C 130.24 157.28 129.41 157.81 129.23 158.66 Z M 129.03 159.65 L 128.83 160.64 C 128.66 161.49 129.21 162.31 130.05 162.48 C 130.90 162.65 131.72 162.10 131.89 161.25 L 132.09 160.26 C 132.26 159.41 131.71 158.59 130.86 158.42 C 130.02 158.25 129.19 158.80 129.03 159.65 Z M 128.82 160.66 L 128.63 161.68 C 128.47 162.53 129.03 163.34 129.88 163.50 C 130.72 163.66 131.54 163.10 131.70 162.26 L 131.89 161.24 C 132.05 160.39 131.49 159.57 130.65 159.41 C 129.80 159.26 128.98 159.81 128.82 160.66 Z M 128.63 161.70 L 128.46 162.67 C 128.31 163.52 128.87 164.33 129.72 164.48 C 130.57 164.63 131.38 164.06 131.53 163.21 L 131.70 162.24 C 131.85 161.39 131.29 160.58 130.44 160.43 C 129.59 160.28 128.78 160.85 128.63 161.70 Z M 128.45 162.69 L 128.29 163.68 C 128.15 164.54 128.73 165.34 129.58 165.48 C 130.43 165.62 131.23 165.04 131.37 164.19 L 131.53 163.19 C 131.67 162.34 131.10 161.54 130.24 161.40 C 129.39 161.26 128.59 161.84 128.45 162.69 Z M 128.29 163.71 L 128.14 164.71 C 128.02 165.56 128.61 166.35 129.46 166.48 C 130.31 166.60 131.10 166.02 131.23 165.16 L 131.38 164.16 C 131.50 163.31 130.91 162.52 130.06 162.39 C 129.21 162.27 128.41 162.86 128.29 163.71 Z M 128.14 164.74 L 128.01 165.73 C 127.90 166.59 128.50 167.37 129.36 167.48 C 130.21 167.59 131.00 166.98 131.11 166.13 L 131.23 165.13 C 131.34 164.28 130.74 163.50 129.88 163.39 C 129.03 163.28 128.25 163.88 128.14 164.74 Z M 128.01 165.77 L 127.90 166.76 C 127.81 167.62 128.43 168.39 129.29 168.48 C 130.15 168.57 130.92 167.95 131.01 167.09 L 131.11 166.09 C 131.20 165.24 130.58 164.47 129.72 164.38 C 128.86 164.29 128.10 164.91 128.01 165.77 Z M 127.90 166.80 L 127.81 167.84 C 127.75 168.70 128.39 169.45 129.25 169.52 C 130.11 169.59 130.86 168.94 130.93 168.08 L 131.01 167.05 C 131.08 166.19 130.44 165.44 129.58 165.37 C 128.72 165.30 127.96 165.94 127.90 166.80 Z M 127.81 167.87 L 127.76 168.88 C 127.71 169.75 128.37 170.48 129.23 170.53 C 130.09 170.58 130.82 169.92 130.87 169.06 L 130.93 168.05 C 130.98 167.19 130.32 166.45 129.46 166.40 C 128.60 166.35 127.86 167.01 127.81 167.87 Z M 127.75 168.91 L 127.72 169.90 C 127.69 170.76 128.36 171.49 129.22 171.52 C 130.08 171.55 130.81 170.88 130.84 170.02 L 130.87 169.03 C 130.91 168.17 130.23 167.44 129.37 167.41 C 128.51 167.38 127.79 168.05 127.75 168.91 Z M 127.72 169.92 L 127.69 170.89 C 127.67 171.75 128.36 172.47 129.22 172.49 C 130.08 172.51 130.80 171.83 130.82 170.96 L 130.84 170.00 C 130.86 169.13 130.18 168.42 129.31 168.40 C 128.45 168.38 127.74 169.06 127.72 169.92 Z M 127.69 170.91 L 127.68 171.92 C 127.67 172.78 128.36 173.49 129.22 173.50 C 130.08 173.51 130.79 172.82 130.80 171.96 L 130.82 170.95 C 130.83 170.09 130.14 169.38 129.28 169.37 C 128.41 169.35 127.71 170.04 127.69 170.91 Z M 127.68 171.93 L 127.68 172.96 C 127.67 173.82 128.37 174.52 129.23 174.53 C 130.09 174.53 130.80 173.83 130.80 172.97 L 130.80 171.94 C 130.80 171.08 130.11 170.38 129.25 170.38 C 128.38 170.38 127.68 171.07 127.68 171.93 Z M 127.68 172.99 L 127.69 173.99 C 127.70 174.85 128.41 175.54 129.27 175.52 C 130.14 175.51 130.82 174.80 130.81 173.94 L 130.80 172.94 C 130.79 172.08 130.08 171.39 129.22 171.40 C 128.35 171.42 127.66 172.12 127.68 172.99 Z M 127.69 174.02 L 127.73 174.99 C 127.76 175.85 128.49 176.53 129.35 176.49 C 130.21 176.46 130.88 175.73 130.85 174.87 L 130.81 173.90 C 130.78 173.04 130.05 172.37 129.19 172.40 C 128.33 172.44 127.66 173.16 127.69 174.02 Z M 127.73 175.05 L 127.80 176.05 C 127.87 176.91 128.61 177.56 129.47 177.50 C 130.33 177.44 130.98 176.69 130.92 175.83 L 130.85 174.82 C 130.78 173.96 130.04 173.31 129.18 173.38 C 128.32 173.44 127.67 174.19 127.73 175.05 Z M 127.81 176.13 L 127.94 177.16 C 128.04 178.01 128.82 178.62 129.68 178.51 C 130.54 178.41 131.14 177.63 131.04 176.77 L 130.91 175.75 C 130.80 174.89 130.03 174.29 129.17 174.39 C 128.31 174.50 127.71 175.28 127.81 176.13 Z M 127.96 177.27 L 128.15 178.24 C 128.32 179.09 129.14 179.63 129.99 179.46 C 130.83 179.29 131.38 178.47 131.21 177.63 L 131.02 176.66 C 130.85 175.81 130.03 175.26 129.18 175.43 C 128.34 175.60 127.79 176.43 127.96 177.27 Z M 128.19 178.39 L 128.47 179.30 C 128.72 180.12 129.60 180.59 130.42 180.33 C 131.24 180.08 131.71 179.20 131.45 178.38 L 131.17 177.47 C 130.92 176.65 130.05 176.19 129.22 176.44 C 128.40 176.69 127.94 177.57 128.19 178.39 Z M 128.54 179.49 L 128.97 180.41 C 129.32 181.20 130.25 181.54 131.04 181.18 C 131.82 180.82 132.16 179.90 131.80 179.11 L 131.38 178.19 C 131.02 177.41 130.09 177.06 129.31 177.42 C 128.53 177.78 128.18 178.71 128.54 179.49 Z M 129.07 180.60 L 129.60 181.44 C 130.06 182.17 131.03 182.39 131.76 181.93 C 132.48 181.46 132.70 180.50 132.24 179.77 L 131.70 178.93 C 131.24 178.20 130.28 177.98 129.55 178.45 C 128.82 178.91 128.60 179.87 129.07 180.60 Z M 129.71 181.60 L 130.34 182.36 C 130.88 183.02 131.87 183.12 132.53 182.58 C 133.20 182.03 133.30 181.05 132.75 180.38 L 132.13 179.62 C 131.58 178.95 130.60 178.85 129.93 179.40 C 129.26 179.95 129.17 180.93 129.71 181.60 Z M 130.45 182.48 L 131.16 183.17 C 131.77 183.78 132.76 183.77 133.36 183.16 C 133.97 182.54 133.96 181.55 133.34 180.95 L 132.64 180.25 C 132.02 179.65 131.03 179.66 130.43 180.27 C 129.83 180.89 129.83 181.88 130.45 182.48 Z M 131.27 183.28 L 132.05 183.90 C 132.72 184.44 133.71 184.33 134.24 183.66 C 134.78 182.98 134.67 182.00 134.00 181.46 L 133.22 180.84 C 132.55 180.30 131.57 180.41 131.03 181.09 C 130.49 181.76 130.60 182.74 131.27 183.28 Z M 132.17 183.99 L 133.02 184.54 C 133.74 185.01 134.71 184.80 135.18 184.08 C 135.64 183.36 135.44 182.39 134.72 181.92 L 133.87 181.37 C 133.15 180.90 132.18 181.11 131.72 181.83 C 131.25 182.55 131.45 183.52 132.17 183.99 Z M 133.14 184.61 L 134.03 185.08 C 134.79 185.48 135.73 185.19 136.13 184.42 C 136.54 183.66 136.24 182.72 135.48 182.32 L 134.59 181.85 C 133.83 181.44 132.89 181.74 132.49 182.50 C 132.08 183.26 132.37 184.21 133.14 184.61 Z M 134.15 185.13 L 135.07 185.52 C 135.87 185.86 136.78 185.49 137.12 184.69 C 137.45 183.90 137.08 182.98 136.28 182.65 L 135.36 182.26 C 134.57 181.92 133.65 182.30 133.32 183.09 C 132.98 183.88 133.35 184.80 134.15 185.13 Z M 135.21 185.57 L 136.16 185.88 C 136.98 186.14 137.86 185.68 138.12 184.86 C 138.38 184.04 137.93 183.16 137.11 182.90 L 136.15 182.60 C 135.33 182.34 134.45 182.79 134.19 183.61 C 133.93 184.43 134.38 185.31 135.21 185.57 Z M 136.31 185.92 L 137.29 186.12 C 138.13 186.30 138.96 185.76 139.14 184.92 C 139.31 184.07 138.77 183.24 137.93 183.07 L 136.96 182.86 C 136.11 182.69 135.28 183.23 135.11 184.07 C 134.93 184.91 135.47 185.74 136.31 185.92 Z M 137.44 186.15 L 138.43 186.25 C 139.29 186.34 140.06 185.72 140.15 184.86 C 140.24 184.01 139.62 183.24 138.76 183.15 L 137.77 183.04 C 136.92 182.95 136.15 183.57 136.06 184.43 C 135.96 185.29 136.59 186.06 137.44 186.15 Z M 138.54 186.26 L 139.54 186.29 C 140.40 186.32 141.12 185.64 141.15 184.78 C 141.18 183.92 140.50 183.20 139.64 183.17 L 138.64 183.14 C 137.78 183.11 137.06 183.79 137.03 184.65 C 137.01 185.51 137.68 186.23 138.54 186.26 Z M 139.61 186.29 L 140.62 186.28 C 141.48 186.27 142.17 185.57 142.16 184.70 C 142.15 183.84 141.45 183.15 140.58 183.16 L 139.57 183.17 C 138.71 183.18 138.02 183.88 138.03 184.75 C 138.04 185.61 138.74 186.30 139.61 186.29 Z M 140.65 186.28 L 141.63 186.25 C 142.49 186.22 143.16 185.50 143.14 184.63 C 143.11 183.77 142.38 183.10 141.52 183.13 L 140.55 183.16 C 139.68 183.19 139.01 183.91 139.04 184.77 C 139.07 185.64 139.79 186.31 140.65 186.28 Z M 141.71 186.24 L 142.70 186.16 C 143.56 186.08 144.20 185.33 144.12 184.47 C 144.05 183.61 143.29 182.97 142.43 183.05 L 141.44 183.13 C 140.58 183.21 139.95 183.96 140.02 184.82 C 140.09 185.68 140.85 186.32 141.71 186.24 Z M 142.84 186.14 L 143.84 185.96 C 144.69 185.81 145.25 185.00 145.10 184.15 C 144.95 183.30 144.14 182.74 143.29 182.89 L 142.29 183.06 C 141.44 183.22 140.88 184.03 141.03 184.87 C 141.18 185.72 141.99 186.29 142.84 186.14 Z M 144.02 185.92 L 144.96 185.64 C 145.78 185.39 146.25 184.52 146.00 183.69 C 145.75 182.86 144.88 182.40 144.06 182.65 L 143.12 182.93 C 142.29 183.18 141.82 184.05 142.07 184.87 C 142.32 185.70 143.19 186.17 144.02 185.92 Z M 145.11 185.58 L 146.02 185.20 C 146.81 184.86 147.18 183.95 146.85 183.15 C 146.51 182.36 145.59 181.99 144.80 182.32 L 143.90 182.70 C 143.11 183.04 142.73 183.95 143.07 184.75 C 143.40 185.54 144.32 185.91 145.11 185.58 Z M 146.13 185.14 L 147.03 184.67 C 147.79 184.27 148.09 183.33 147.68 182.57 C 147.28 181.80 146.34 181.51 145.58 181.91 L 144.68 182.38 C 143.92 182.78 143.63 183.72 144.03 184.48 C 144.43 185.25 145.37 185.54 146.13 185.14 Z M 147.12 184.62 L 148.00 184.09 C 148.73 183.64 148.97 182.68 148.52 181.94 C 148.07 181.20 147.11 180.97 146.37 181.42 L 145.49 181.96 C 144.75 182.41 144.52 183.37 144.97 184.10 C 145.42 184.84 146.38 185.07 147.12 184.62 Z M 148.06 184.04 L 148.88 183.49 C 149.59 183.00 149.78 182.03 149.29 181.32 C 148.81 180.61 147.84 180.42 147.13 180.91 L 146.31 181.46 C 145.59 181.95 145.41 182.92 145.89 183.63 C 146.38 184.34 147.35 184.53 148.06 184.04 Z M 148.93 183.45 L 149.73 182.86 C 150.42 182.35 150.56 181.37 150.05 180.68 C 149.54 179.99 148.56 179.84 147.87 180.35 L 147.07 180.94 C 146.38 181.46 146.23 182.43 146.75 183.13 C 147.26 183.82 148.24 183.96 148.93 183.45 Z M 149.77 182.83 L 150.56 182.20 C 151.23 181.66 151.33 180.67 150.79 180.00 C 150.25 179.33 149.27 179.22 148.60 179.76 L 147.82 180.39 C 147.15 180.93 147.04 181.92 147.58 182.59 C 148.12 183.26 149.10 183.37 149.77 182.83 Z M 150.60 182.16 L 151.37 181.49 C 152.02 180.93 152.09 179.94 151.53 179.29 C 150.96 178.64 149.98 178.57 149.32 179.13 L 148.55 179.80 C 147.90 180.37 147.83 181.35 148.40 182.00 C 148.96 182.65 149.95 182.73 150.60 182.16 Z M 151.41 181.46 L 152.12 180.80 C 152.75 180.21 152.79 179.23 152.20 178.59 C 151.62 177.96 150.63 177.92 150.00 178.51 L 149.29 179.17 C 148.65 179.75 148.62 180.74 149.20 181.37 C 149.79 182.01 150.78 182.04 151.41 181.46 Z M 152.15 180.77 L 152.84 180.09 C 153.45 179.49 153.46 178.50 152.86 177.89 C 152.26 177.27 151.27 177.26 150.65 177.86 L 149.96 178.54 C 149.35 179.14 149.34 180.13 149.94 180.75 C 150.55 181.36 151.54 181.37 152.15 180.77 Z M 152.87 180.07 L 153.56 179.35 C 154.16 178.73 154.14 177.75 153.52 177.14 C 152.91 176.54 151.92 176.56 151.32 177.18 L 150.63 177.89 C 150.02 178.51 150.04 179.50 150.66 180.10 C 151.28 180.70 152.27 180.68 152.87 180.07 Z M 153.58 179.33 L 154.28 178.57 C 154.87 177.94 154.83 176.96 154.20 176.37 C 153.57 175.78 152.58 175.82 152.00 176.45 L 151.29 177.20 C 150.71 177.83 150.74 178.82 151.37 179.41 C 152.01 180.00 152.99 179.96 153.58 179.33 Z M 154.30 178.55 L 155.00 177.78 C 155.57 177.14 155.52 176.15 154.88 175.57 C 154.24 175.00 153.25 175.05 152.67 175.69 L 151.98 176.47 C 151.40 177.11 151.45 178.10 152.10 178.67 C 152.74 179.25 153.72 179.20 154.30 178.55 Z M 155.01 177.76 L 155.65 177.03 C 156.22 176.38 156.15 175.39 155.50 174.82 C 154.85 174.26 153.87 174.32 153.30 174.97 L 152.66 175.71 C 152.09 176.36 152.16 177.35 152.81 177.91 C 153.46 178.48 154.45 178.41 155.01 177.76 Z M 155.67 177.01 L 156.32 176.24 C 156.87 175.59 156.79 174.60 156.13 174.04 C 155.47 173.49 154.49 173.57 153.93 174.23 L 153.28 174.99 C 152.73 175.65 152.81 176.64 153.47 177.19 C 154.13 177.75 155.11 177.67 155.67 177.01 Z M 156.33 176.22 L 156.97 175.44 C 157.52 174.77 157.41 173.78 156.74 173.24 C 156.08 172.70 155.09 172.80 154.55 173.47 L 153.91 174.25 C 153.37 174.92 153.47 175.91 154.14 176.45 C 154.81 176.99 155.79 176.89 156.33 176.22 Z M 156.99 175.41 L 157.62 174.61 C 158.14 173.92 158.02 172.94 157.34 172.42 C 156.66 171.89 155.68 172.01 155.15 172.69 L 154.53 173.50 C 154.00 174.18 154.12 175.16 154.80 175.69 C 155.49 176.21 156.47 176.09 156.99 175.41 Z M 157.64 174.57 L 158.24 173.76 C 158.75 173.06 158.60 172.09 157.90 171.58 C 157.21 171.07 156.23 171.22 155.72 171.91 L 155.12 172.73 C 154.61 173.42 154.76 174.40 155.46 174.91 C 156.16 175.42 157.13 175.27 157.64 174.57 Z M 158.26 173.72 L 158.84 172.89 C 159.33 172.18 159.15 171.20 158.44 170.72 C 157.73 170.23 156.75 170.41 156.26 171.12 L 155.69 171.95 C 155.20 172.66 155.38 173.63 156.09 174.12 C 156.80 174.61 157.78 174.43 158.26 173.72 Z M 158.86 172.85 L 159.41 172.01 C 159.88 171.29 159.67 170.32 158.95 169.85 C 158.23 169.38 157.26 169.59 156.79 170.31 L 156.24 171.15 C 155.77 171.87 155.98 172.84 156.70 173.31 C 157.42 173.78 158.39 173.58 158.86 172.85 Z M 159.42 171.99 L 159.95 171.14 C 160.40 170.41 160.18 169.45 159.45 168.99 C 158.72 168.54 157.75 168.76 157.30 169.49 L 156.77 170.34 C 156.32 171.07 156.54 172.03 157.27 172.49 C 158.00 172.94 158.97 172.72 159.42 171.99 Z M 159.96 171.13 L 160.47 170.28 C 160.92 169.54 160.69 168.58 159.95 168.13 C 159.21 167.69 158.25 167.92 157.80 168.66 L 157.29 169.51 C 156.84 170.25 157.08 171.21 157.81 171.65 C 158.55 172.10 159.51 171.87 159.96 171.13 Z M 160.48 170.27 L 160.99 169.42 C 161.43 168.68 161.19 167.72 160.45 167.28 C 159.72 166.83 158.76 167.07 158.31 167.81 L 157.80 168.67 C 157.36 169.41 157.60 170.36 158.34 170.81 C 159.07 171.25 160.03 171.01 160.48 170.27 Z M 160.99 169.42 L 161.50 168.57 C 161.95 167.83 161.71 166.87 160.97 166.42 C 160.23 165.98 159.27 166.22 158.82 166.96 L 158.31 167.81 C 157.87 168.55 158.11 169.51 158.85 169.95 C 159.59 170.40 160.55 170.16 160.99 169.42 Z M 161.50 168.56 L 162.02 167.71 C 162.46 166.97 162.22 166.01 161.48 165.56 C 160.74 165.12 159.78 165.36 159.34 166.10 L 158.82 166.96 C 158.38 167.70 158.62 168.66 159.36 169.10 C 160.10 169.54 161.06 169.30 161.50 168.56 Z M 162.02 167.70 L 162.53 166.84 C 162.97 166.09 162.72 165.14 161.98 164.70 C 161.24 164.26 160.28 164.51 159.84 165.25 L 159.33 166.11 C 158.89 166.85 159.14 167.81 159.88 168.25 C 160.62 168.69 161.58 168.44 162.02 167.70 Z M 162.54 166.82 L 163.04 165.96 C 163.47 165.21 163.22 164.25 162.47 163.82 C 161.72 163.39 160.77 163.65 160.34 164.39 L 159.83 165.26 C 159.40 166.01 159.66 166.96 160.40 167.39 C 161.15 167.82 162.10 167.57 162.54 166.82 Z M 163.05 165.94 L 163.54 165.07 C 163.96 164.31 163.69 163.36 162.94 162.94 C 162.19 162.52 161.24 162.78 160.82 163.54 L 160.33 164.41 C 159.90 165.16 160.17 166.11 160.92 166.53 C 161.67 166.96 162.63 166.69 163.05 165.94 Z M 163.55 165.04 L 164.03 164.15 C 164.44 163.40 164.16 162.45 163.41 162.04 C 162.65 161.63 161.70 161.91 161.29 162.67 L 160.81 163.56 C 160.39 164.31 160.68 165.26 161.43 165.67 C 162.19 166.08 163.14 165.80 163.55 165.04 Z M 164.04 164.14 L 164.51 163.24 C 164.91 162.48 164.62 161.54 163.86 161.14 C 163.09 160.73 162.15 161.03 161.75 161.79 L 161.28 162.68 C 160.88 163.45 161.17 164.39 161.93 164.79 C 162.70 165.19 163.64 164.90 164.04 164.14 Z M 164.52 163.23 L 164.98 162.34 C 165.37 161.57 165.07 160.63 164.30 160.24 C 163.53 159.84 162.59 160.15 162.20 160.91 L 161.74 161.81 C 161.35 162.57 161.65 163.51 162.42 163.91 C 163.18 164.30 164.13 164.00 164.52 163.23 Z M 164.98 162.33 L 165.43 161.44 C 165.82 160.67 165.51 159.73 164.74 159.35 C 163.97 158.96 163.03 159.27 162.64 160.04 L 162.19 160.92 C 161.80 161.69 162.11 162.63 162.88 163.02 C 163.65 163.41 164.59 163.10 164.98 162.33 Z M 165.43 161.44 L 165.87 160.56 C 166.26 159.79 165.95 158.85 165.17 158.46 C 164.40 158.08 163.47 158.39 163.08 159.16 L 162.64 160.04 C 162.25 160.81 162.57 161.75 163.34 162.14 C 164.11 162.52 165.05 162.21 165.43 161.44 Z M 165.87 160.56 L 166.33 159.64 C 166.71 158.87 166.40 157.93 165.63 157.55 C 164.86 157.16 163.92 157.48 163.54 158.25 L 163.08 159.16 C 162.69 159.93 163.01 160.87 163.78 161.26 C 164.55 161.64 165.49 161.33 165.87 160.56 Z M 166.33 159.64 L 166.78 158.74 C 167.16 157.96 166.85 157.03 166.08 156.64 C 165.31 156.26 164.37 156.57 163.98 157.35 L 163.53 158.25 C 163.15 159.02 163.46 159.96 164.24 160.34 C 165.01 160.73 165.95 160.41 166.33 159.64 Z M 166.78 158.73 L 167.22 157.84 C 167.61 157.06 167.29 156.13 166.51 155.75 C 165.74 155.36 164.81 155.68 164.42 156.45 L 163.98 157.35 C 163.60 158.12 163.92 159.06 164.69 159.44 C 165.46 159.82 166.40 159.50 166.78 158.73 Z M 167.23 157.83 L 167.66 156.94 C 168.04 156.17 167.71 155.23 166.94 154.85 C 166.16 154.48 165.23 154.80 164.85 155.57 L 164.42 156.46 C 164.04 157.24 164.36 158.17 165.14 158.55 C 165.92 158.93 166.85 158.60 167.23 157.83 Z M 167.66 156.93 L 168.09 156.04 C 168.46 155.26 168.13 154.33 167.36 153.96 C 166.58 153.59 165.65 153.92 165.27 154.69 L 164.85 155.58 C 164.48 156.36 164.80 157.29 165.58 157.67 C 166.36 158.04 167.29 157.71 167.66 156.93 Z M 168.10 156.03 L 168.52 155.12 C 168.89 154.33 168.55 153.40 167.77 153.04 C 166.99 152.67 166.06 153.01 165.70 153.79 L 165.27 154.71 C 164.90 155.49 165.24 156.42 166.02 156.78 C 166.80 157.15 167.73 156.81 168.10 156.03 Z M 168.53 155.10 L 168.95 154.19 C 169.31 153.41 168.96 152.48 168.18 152.12 C 167.40 151.76 166.47 152.11 166.11 152.89 L 165.69 153.80 C 165.33 154.59 165.68 155.51 166.46 155.87 C 167.24 156.23 168.17 155.89 168.53 155.10 Z M 168.95 154.18 L 169.36 153.27 C 169.71 152.49 169.36 151.56 168.58 151.21 C 167.79 150.86 166.87 151.21 166.51 151.99 L 166.10 152.90 C 165.75 153.69 166.10 154.61 166.89 154.97 C 167.67 155.32 168.60 154.97 168.95 154.18 Z M 169.37 153.26 L 169.77 152.36 C 170.11 151.57 169.76 150.65 168.97 150.30 C 168.18 149.95 167.26 150.31 166.91 151.10 L 166.51 152.00 C 166.16 152.79 166.52 153.71 167.31 154.06 C 168.10 154.41 169.02 154.05 169.37 153.26 Z M 169.77 152.35 L 170.18 151.40 C 170.52 150.61 170.16 149.69 169.37 149.35 C 168.58 149.00 167.66 149.37 167.32 150.16 L 166.90 151.11 C 166.56 151.90 166.92 152.82 167.72 153.16 C 168.51 153.50 169.43 153.14 169.77 152.35 Z M 170.19 151.39 L 170.59 150.43 C 170.93 149.64 170.56 148.72 169.76 148.38 C 168.97 148.05 168.05 148.42 167.72 149.21 L 167.31 150.17 C 166.97 150.97 167.35 151.88 168.14 152.22 C 168.93 152.55 169.85 152.18 170.19 151.39 Z M 170.60 150.41 L 170.98 149.47 C 171.30 148.68 170.92 147.77 170.12 147.44 C 169.32 147.12 168.41 147.50 168.09 148.30 L 167.71 149.23 C 167.38 150.03 167.77 150.94 168.56 151.27 C 169.36 151.59 170.27 151.21 170.60 150.41 Z M 170.99 149.45 L 171.34 148.55 C 171.64 147.74 171.24 146.84 170.44 146.53 C 169.63 146.22 168.73 146.62 168.42 147.43 L 168.08 148.33 C 167.77 149.13 168.17 150.03 168.97 150.34 C 169.78 150.65 170.68 150.25 170.99 149.45 Z M 171.35 148.51 L 171.66 147.63 C 171.95 146.82 171.52 145.92 170.71 145.64 C 169.89 145.35 169.00 145.78 168.72 146.59 L 168.41 147.47 C 168.12 148.28 168.55 149.17 169.36 149.46 C 170.17 149.75 171.06 149.32 171.35 148.51 Z M 171.68 147.56 L 171.95 146.67 C 172.20 145.84 171.73 144.97 170.90 144.73 C 170.08 144.48 169.21 144.95 168.96 145.77 L 168.69 146.66 C 168.45 147.49 168.91 148.36 169.74 148.61 C 170.57 148.85 171.44 148.38 171.68 147.56 Z M 171.98 146.56 L 172.19 145.63 C 172.38 144.79 171.85 143.96 171.01 143.77 C 170.16 143.58 169.33 144.11 169.14 144.95 L 168.93 145.88 C 168.74 146.72 169.27 147.55 170.11 147.74 C 170.95 147.93 171.79 147.40 171.98 146.56 Z M 172.21 145.52 L 172.36 144.47 C 172.49 143.62 171.90 142.83 171.04 142.70 C 170.19 142.58 169.40 143.17 169.27 144.02 L 169.12 145.07 C 168.99 145.92 169.58 146.71 170.44 146.84 C 171.29 146.96 172.08 146.37 172.21 145.52 Z M 172.37 144.38 L 172.46 143.34 C 172.53 142.48 171.90 141.72 171.04 141.65 C 170.18 141.58 169.42 142.22 169.35 143.07 L 169.26 144.12 C 169.19 144.97 169.83 145.73 170.69 145.80 C 171.54 145.88 172.30 145.24 172.37 144.38 Z M 172.47 143.26 L 172.50 142.26 C 172.53 141.40 171.85 140.68 170.99 140.65 C 170.13 140.62 169.41 141.30 169.38 142.16 L 169.34 143.15 C 169.32 144.02 169.99 144.74 170.85 144.77 C 171.71 144.80 172.44 144.12 172.47 143.26 Z M 172.50 142.17 L 172.47 141.13 C 172.45 140.27 171.73 139.59 170.87 139.61 C 170.01 139.64 169.33 140.35 169.35 141.22 L 169.38 142.25 C 169.40 143.12 170.12 143.80 170.98 143.77 C 171.84 143.75 172.52 143.03 172.50 142.17 Z M 172.46 141.01 L 172.35 139.98 C 172.26 139.12 171.50 138.50 170.64 138.59 C 169.78 138.68 169.16 139.45 169.25 140.30 L 169.36 141.34 C 169.45 142.20 170.22 142.82 171.07 142.73 C 171.93 142.64 172.55 141.87 172.46 141.01 Z M 172.33 139.81 L 172.12 138.83 C 171.93 137.99 171.10 137.46 170.26 137.64 C 169.42 137.82 168.88 138.65 169.07 139.49 L 169.28 140.47 C 169.46 141.31 170.29 141.85 171.13 141.67 C 171.97 141.49 172.51 140.65 172.33 139.81 Z M 172.05 138.60 L 171.70 137.71 C 171.39 136.90 170.48 136.50 169.68 136.81 C 168.88 137.12 168.48 138.03 168.79 138.83 L 169.14 139.73 C 169.45 140.53 170.35 140.93 171.15 140.62 C 171.96 140.31 172.36 139.40 172.05 138.60 Z M 171.54 137.40 L 171.00 136.58 C 170.52 135.87 169.55 135.67 168.83 136.15 C 168.11 136.63 167.92 137.60 168.40 138.32 L 168.95 139.14 C 169.42 139.85 170.39 140.05 171.11 139.57 C 171.83 139.09 172.02 138.12 171.54 137.40 Z M 170.76 136.31 L 170.06 135.65 C 169.43 135.06 168.44 135.10 167.85 135.73 C 167.26 136.36 167.30 137.35 167.93 137.94 L 168.63 138.59 C 169.26 139.18 170.25 139.14 170.84 138.51 C 171.43 137.88 171.39 136.89 170.76 136.31 Z M 169.80 135.46 L 168.96 134.95 C 168.23 134.51 167.27 134.74 166.82 135.48 C 166.37 136.22 166.61 137.18 167.35 137.62 L 168.19 138.13 C 168.92 138.58 169.88 138.34 170.33 137.60 C 170.78 136.86 170.54 135.91 169.80 135.46 Z M 168.73 134.84 L 167.78 134.46 C 166.98 134.14 166.07 134.53 165.75 135.33 C 165.43 136.13 165.82 137.04 166.63 137.36 L 167.58 137.74 C 168.38 138.06 169.29 137.66 169.61 136.86 C 169.92 136.06 169.53 135.15 168.73 134.84 Z M 167.59 134.40 L 166.59 134.14 C 165.76 133.93 164.91 134.43 164.69 135.26 C 164.48 136.10 164.98 136.95 165.82 137.16 L 166.81 137.42 C 167.65 137.64 168.50 137.13 168.71 136.30 C 168.93 135.46 168.43 134.61 167.59 134.40 Z M 166.46 134.11 L 165.45 133.95 C 164.60 133.80 163.80 134.38 163.66 135.23 C 163.52 136.08 164.09 136.89 164.94 137.03 L 165.95 137.19 C 166.80 137.33 167.60 136.76 167.75 135.91 C 167.89 135.06 167.31 134.25 166.46 134.11 Z M 165.36 133.93 L 164.33 133.83 C 163.47 133.74 162.70 134.36 162.62 135.22 C 162.53 136.08 163.15 136.85 164.01 136.93 L 165.04 137.04 C 165.90 137.13 166.66 136.50 166.75 135.64 C 166.84 134.79 166.21 134.02 165.36 133.93 Z M 164.26 133.82 L 163.24 133.76 C 162.38 133.71 161.64 134.37 161.59 135.23 C 161.54 136.09 162.20 136.83 163.06 136.88 L 164.08 136.94 C 164.94 136.99 165.68 136.33 165.73 135.47 C 165.78 134.61 165.12 133.87 164.26 133.82 Z M 163.20 133.76 L 162.22 133.73 C 161.36 133.71 160.64 134.38 160.62 135.25 C 160.59 136.11 161.27 136.83 162.13 136.85 L 163.10 136.88 C 163.97 136.91 164.69 136.23 164.71 135.37 C 164.74 134.51 164.06 133.79 163.20 133.76 Z M 162.20 133.73 L 161.18 133.72 C 160.31 133.70 159.60 134.39 159.59 135.25 C 159.58 136.12 160.27 136.82 161.13 136.84 L 162.15 136.85 C 163.01 136.87 163.72 136.18 163.74 135.32 C 163.75 134.45 163.06 133.74 162.20 133.73 Z M 161.16 133.72 L 160.07 133.71 C 159.21 133.71 158.51 134.40 158.50 135.26 C 158.50 136.13 159.19 136.83 160.06 136.83 L 161.15 136.84 C 162.01 136.84 162.71 136.15 162.71 135.28 C 162.72 134.42 162.02 133.72 161.16 133.72 Z M 160.03 133.71 L 159.06 133.73 C 158.20 133.75 157.51 134.46 157.53 135.32 C 157.55 136.18 158.26 136.87 159.12 136.85 L 160.09 136.83 C 160.95 136.82 161.64 136.10 161.62 135.24 C 161.61 134.38 160.89 133.69 160.03 133.71 Z M 159.00 133.73 L 158.10 133.79 C 157.24 133.84 156.58 134.58 156.63 135.44 C 156.68 136.30 157.42 136.95 158.28 136.90 L 159.18 136.85 C 160.04 136.80 160.70 136.06 160.65 135.20 C 160.60 134.34 159.86 133.68 159.00 133.73 Z M 158.01 133.79 L 157.06 133.90 C 156.20 134.00 155.58 134.77 155.68 135.63 C 155.78 136.49 156.55 137.10 157.41 137.00 L 158.37 136.89 C 159.22 136.80 159.84 136.02 159.74 135.17 C 159.64 134.31 158.87 133.70 158.01 133.79 Z M 156.97 133.91 L 155.98 134.08 C 155.13 134.23 154.56 135.04 154.71 135.89 C 154.86 136.74 155.66 137.31 156.51 137.16 L 157.50 136.99 C 158.35 136.84 158.92 136.04 158.77 135.19 C 158.63 134.34 157.82 133.77 156.97 133.91 Z M 155.90 134.10 L 154.93 134.32 C 154.09 134.51 153.56 135.34 153.75 136.19 C 153.94 137.03 154.78 137.55 155.62 137.36 L 156.59 137.15 C 157.43 136.96 157.96 136.12 157.77 135.28 C 157.58 134.44 156.74 133.91 155.90 134.10 Z M 154.86 134.34 L 153.91 134.60 C 153.08 134.82 152.59 135.68 152.81 136.51 C 153.04 137.34 153.90 137.84 154.73 137.61 L 155.68 137.35 C 156.52 137.12 157.01 136.26 156.78 135.43 C 156.55 134.60 155.69 134.11 154.86 134.34 Z M 153.86 134.61 L 152.92 134.90 C 152.09 135.16 151.63 136.03 151.89 136.86 C 152.14 137.68 153.02 138.14 153.84 137.88 L 154.78 137.59 C 155.60 137.34 156.07 136.46 155.81 135.64 C 155.55 134.82 154.68 134.36 153.86 134.61 Z M 152.88 134.91 L 151.93 135.23 C 151.12 135.50 150.68 136.39 150.95 137.21 C 151.22 138.02 152.11 138.47 152.93 138.19 L 153.87 137.87 C 154.69 137.60 155.13 136.72 154.86 135.90 C 154.59 135.08 153.70 134.64 152.88 134.91 Z M 151.92 135.24 L 150.95 135.57 C 150.14 135.85 149.71 136.74 149.99 137.56 C 150.27 138.37 151.16 138.80 151.97 138.52 L 152.94 138.19 C 153.76 137.90 154.19 137.02 153.91 136.20 C 153.62 135.39 152.73 134.95 151.92 135.24 Z M 150.95 135.57 L 150.01 135.90 C 149.19 136.18 148.76 137.07 149.05 137.89 C 149.33 138.70 150.22 139.13 151.03 138.85 L 151.98 138.52 C 152.79 138.24 153.22 137.35 152.94 136.53 C 152.66 135.72 151.77 135.29 150.95 135.57 Z M 150.00 135.90 L 149.05 136.24 C 148.23 136.52 147.81 137.42 148.09 138.23 C 148.38 139.04 149.27 139.47 150.09 139.18 L 151.04 138.85 C 151.85 138.56 152.28 137.67 151.99 136.85 C 151.71 136.04 150.81 135.61 150.00 135.90 Z M 149.04 136.24 L 148.10 136.58 C 147.29 136.88 146.87 137.77 147.16 138.58 C 147.45 139.39 148.35 139.81 149.16 139.52 L 150.10 139.18 C 150.91 138.88 151.33 137.99 151.03 137.18 C 150.74 136.37 149.85 135.95 149.04 136.24 Z M 148.08 136.59 L 147.13 136.95 C 146.32 137.25 145.91 138.15 146.22 138.96 C 146.52 139.77 147.42 140.17 148.23 139.87 L 149.18 139.51 C 149.99 139.21 150.39 138.30 150.09 137.50 C 149.78 136.69 148.88 136.28 148.08 136.59 Z M 147.10 136.96 L 146.17 137.33 C 145.37 137.65 144.97 138.55 145.29 139.35 C 145.61 140.16 146.52 140.55 147.32 140.23 L 148.25 139.86 C 149.06 139.54 149.45 138.63 149.13 137.83 C 148.81 137.03 147.91 136.64 147.10 136.96 Z M 146.15 137.34 L 145.24 137.71 C 144.44 138.04 144.06 138.96 144.39 139.75 C 144.72 140.55 145.63 140.93 146.43 140.60 L 147.34 140.22 C 148.14 139.89 148.52 138.98 148.19 138.18 C 147.86 137.38 146.94 137.01 146.15 137.34 Z M 145.22 137.72 L 144.31 138.11 C 143.52 138.45 143.16 139.37 143.50 140.16 C 143.84 140.95 144.76 141.32 145.55 140.98 L 146.45 140.59 C 147.24 140.25 147.61 139.33 147.27 138.54 C 146.93 137.75 146.01 137.38 145.22 137.72 Z M 144.29 138.12 L 143.39 138.52 C 142.60 138.88 142.25 139.80 142.60 140.59 C 142.95 141.37 143.87 141.73 144.66 141.38 L 145.57 140.97 C 146.35 140.62 146.71 139.70 146.36 138.91 C 146.00 138.12 145.08 137.77 144.29 138.12 Z M 143.36 138.53 L 142.46 138.96 C 141.67 139.32 141.34 140.25 141.70 141.03 C 142.07 141.81 142.99 142.15 143.78 141.79 L 144.68 141.36 C 145.46 141.00 145.80 140.07 145.44 139.29 C 145.07 138.51 144.14 138.17 143.36 138.53 Z M 142.43 138.97 L 141.52 139.41 C 140.75 139.79 140.43 140.73 140.81 141.50 C 141.19 142.28 142.13 142.60 142.90 142.22 L 143.80 141.77 C 144.58 141.39 144.90 140.46 144.52 139.68 C 144.14 138.91 143.20 138.59 142.43 138.97 Z M 141.50 139.43 L 140.62 139.88 C 139.85 140.28 139.55 141.22 139.95 141.98 C 140.34 142.75 141.28 143.05 142.05 142.66 L 142.93 142.20 C 143.69 141.81 144.00 140.87 143.60 140.10 C 143.21 139.33 142.26 139.03 141.50 139.43 Z M 140.60 139.89 L 139.72 140.36 C 138.96 140.76 138.67 141.71 139.07 142.47 C 139.48 143.23 140.42 143.52 141.18 143.12 L 142.07 142.65 C 142.83 142.24 143.12 141.30 142.71 140.54 C 142.31 139.78 141.36 139.49 140.60 139.89 Z M 139.71 140.36 L 138.82 140.84 C 138.06 141.25 137.78 142.19 138.18 142.95 C 138.59 143.71 139.54 144.00 140.30 143.59 L 141.19 143.11 C 141.95 142.71 142.23 141.76 141.83 141.00 C 141.42 140.24 140.47 139.95 139.71 140.36 Z M 138.83 140.84 L 137.95 141.31 C 137.19 141.71 136.90 142.66 137.30 143.42 C 137.71 144.18 138.65 144.47 139.41 144.06 L 140.29 143.59 C 141.05 143.19 141.34 142.24 140.94 141.48 C 140.53 140.72 139.59 140.43 138.83 140.84 Z M 137.94 141.31 L 137.06 141.78 C 136.30 142.19 136.02 143.13 136.42 143.89 C 136.83 144.65 137.78 144.94 138.54 144.53 L 139.42 144.06 C 140.18 143.65 140.46 142.71 140.06 141.95 C 139.65 141.19 138.70 140.90 137.94 141.31 Z M 137.05 141.79 L 136.17 142.27 C 135.41 142.69 135.14 143.63 135.55 144.39 C 135.97 145.15 136.92 145.42 137.67 145.01 L 138.55 144.52 C 139.31 144.11 139.58 143.16 139.17 142.40 C 138.75 141.65 137.80 141.37 137.05 141.79 Z M 136.14 142.29 L 135.28 142.78 C 134.53 143.21 134.27 144.17 134.70 144.91 C 135.13 145.66 136.09 145.92 136.83 145.49 L 137.70 144.99 C 138.45 144.56 138.70 143.61 138.27 142.86 C 137.84 142.11 136.89 141.86 136.14 142.29 Z M 135.25 142.80 L 134.40 143.31 C 133.67 143.76 133.43 144.72 133.88 145.45 C 134.32 146.19 135.28 146.43 136.02 145.98 L 136.86 145.47 C 137.60 145.02 137.84 144.06 137.39 143.33 C 136.95 142.59 135.99 142.35 135.25 142.80 Z M 134.38 143.32 L 133.54 143.86 C 132.81 144.31 132.59 145.28 133.05 146.01 C 133.50 146.74 134.47 146.96 135.20 146.50 L 136.04 145.97 C 136.77 145.51 136.99 144.54 136.53 143.81 C 136.08 143.08 135.11 142.86 134.38 143.32 Z M 133.52 143.87 L 132.66 144.42 C 131.94 144.89 131.73 145.85 132.20 146.58 C 132.67 147.30 133.63 147.51 134.36 147.04 L 135.21 146.49 C 135.94 146.02 136.15 145.05 135.68 144.33 C 135.21 143.61 134.24 143.40 133.52 143.87 Z M 132.65 144.43 L 131.88 144.94 C 131.16 145.41 130.96 146.38 131.43 147.10 C 131.91 147.82 132.88 148.02 133.60 147.54 L 134.37 147.03 C 135.09 146.56 135.29 145.59 134.81 144.87 C 134.34 144.15 133.37 143.95 132.65 144.43 Z M 131.85 144.95 L 131.07 145.50 C 130.36 145.98 130.18 146.96 130.67 147.67 C 131.16 148.38 132.13 148.56 132.84 148.07 L 133.62 147.53 C 134.33 147.04 134.51 146.06 134.02 145.35 C 133.53 144.64 132.56 144.47 131.85 144.95 Z M 131.02 145.53 L 130.21 146.13 C 129.52 146.64 129.37 147.62 129.89 148.31 C 130.40 149.01 131.38 149.15 132.07 148.64 L 132.88 148.03 C 133.57 147.52 133.72 146.54 133.21 145.85 C 132.69 145.16 131.71 145.01 131.02 145.53 Z M 130.15 146.17 L 129.31 146.86 C 128.64 147.41 128.54 148.39 129.08 149.06 C 129.63 149.73 130.61 149.83 131.28 149.28 L 132.13 148.59 C 132.79 148.05 132.89 147.07 132.35 146.40 C 131.81 145.73 130.82 145.63 130.15 146.17 Z M 129.25 146.91 L 128.55 147.54 C 127.91 148.11 127.85 149.10 128.42 149.74 C 129.00 150.38 129.98 150.44 130.63 149.87 L 131.33 149.24 C 131.98 148.67 132.03 147.68 131.46 147.03 C 130.89 146.39 129.90 146.33 129.25 146.91 Z M 128.51 147.57 L 127.81 148.23 C 127.19 148.82 127.16 149.81 127.75 150.44 C 128.35 151.06 129.34 151.09 129.96 150.50 L 130.66 149.84 C 131.29 149.24 131.31 148.25 130.72 147.63 C 130.13 147.00 129.14 146.98 128.51 147.57 Z M 127.79 148.25 L 127.08 148.96 C 126.46 149.56 126.46 150.55 127.06 151.17 C 127.67 151.78 128.66 151.79 129.27 151.18 L 129.98 150.47 C 130.60 149.87 130.60 148.88 130.00 148.27 C 129.39 147.65 128.40 147.65 127.79 148.25 Z M 127.06 148.97 L 126.34 149.71 C 125.73 150.32 125.74 151.31 126.35 151.92 C 126.97 152.52 127.95 152.52 128.56 151.90 L 129.29 151.17 C 129.89 150.55 129.88 149.56 129.27 148.96 C 128.65 148.35 127.67 148.36 127.06 148.97 Z M 126.33 149.72 L 125.60 150.47 C 124.99 151.09 125.01 152.08 125.63 152.68 C 126.25 153.28 127.23 153.27 127.84 152.65 L 128.57 151.89 C 129.17 151.28 129.15 150.29 128.53 149.69 C 127.92 149.09 126.93 149.10 126.33 149.72 Z M 125.59 150.48 L 125.32 150.76 C 124.72 151.38 124.74 152.37 125.36 152.97 C 125.98 153.57 126.97 153.55 127.56 152.93 L 127.84 152.65 C 128.44 152.03 128.42 151.04 127.80 150.44 C 127.18 149.84 126.19 149.86 125.59 150.48 Z"
      fill="black"
      fill-rule="nonzero" /></svg>