<svg xmlns="http://www.w3.org/2000/svg" width="300" height="300" viewBox="0 0 300 300">
<path d="M 156.15 139.50 L 155.22 139.16 C 154.41 138.87 153.51 139.29 153.22 140.10 C 152.93 140.92 153.35 141.81 154.16 142.10 L 155.09 142.43 C 155.90 142.73 156.80 142.30 157.09 141.49 C 157.38 140.68 156.96 139.79 156.15 139.50 Z M 155.21 139.16 L 154.27 138.83 C 153.46 138.54 152.57 138.97 152.28 139.78 C 151.99 140.60 152.42 141.49 153.23 141.77 L 154.17 142.10 C 154.98 142.39 155.88 141.96 156.16 141.15 C 156.45 140.34 156.02 139.45 155.21 139.16 Z M 154.26 138.82 L 153.30 138.50 C 152.49 138.22 151.60 138.66 151.32 139.47 C 151.04 140.29 151.48 141.18 152.30 141.46 L 153.25 141.78 C 154.07 142.06 154.95 141.62 155.23 140.80 C 155.51 139.99 155.07 139.10 154.26 138.82 Z M 153.28 138.49 L 152.29 138.17 C 151.47 137.91 150.59 138.36 150.32 139.18 C 150.06 140.00 150.51 140.88 151.33 141.15 L 152.32 141.46 C 153.14 141.73 154.02 141.28 154.29 140.46 C 154.55 139.63 154.10 138.76 153.28 138.49 Z M 152.23 138.15 L 151.21 137.87 C 150.38 137.64 149.52 138.13 149.29 138.96 C 149.06 139.79 149.55 140.65 150.38 140.88 L 151.39 141.16 C 152.23 141.39 153.09 140.91 153.31 140.08 C 153.54 139.24 153.06 138.38 152.23 138.15 Z M 151.06 137.84 L 150.07 137.67 C 149.22 137.52 148.42 138.09 148.27 138.94 C 148.12 139.79 148.69 140.59 149.54 140.74 L 150.52 140.92 C 151.37 141.06 152.18 140.50 152.33 139.65 C 152.48 138.80 151.91 137.99 151.06 137.84 Z M 149.80 137.64 L 148.88 137.65 C 148.02 137.65 147.32 138.36 147.33 139.22 C 147.33 140.08 148.04 140.78 148.90 140.77 L 149.81 140.77 C 150.68 140.76 151.37 140.06 151.37 139.20 C 151.36 138.34 150.66 137.64 149.80 137.64 Z M 148.41 137.72 L 147.49 138.02 C 146.66 138.28 146.21 139.16 146.47 139.98 C 146.74 140.80 147.62 141.26 148.44 140.99 L 149.37 140.70 C 150.19 140.43 150.64 139.56 150.38 138.73 C 150.11 137.91 149.24 137.46 148.41 137.72 Z M 147.03 138.25 L 146.25 138.83 C 145.55 139.34 145.41 140.32 145.92 141.01 C 146.43 141.71 147.41 141.86 148.10 141.34 L 148.89 140.76 C 149.58 140.25 149.73 139.27 149.22 138.58 C 148.71 137.89 147.73 137.74 147.03 138.25 Z M 145.97 139.10 L 145.32 139.89 C 144.77 140.55 144.87 141.54 145.53 142.09 C 146.20 142.63 147.18 142.54 147.73 141.87 L 148.38 141.08 C 148.93 140.41 148.83 139.43 148.17 138.88 C 147.50 138.33 146.52 138.43 145.97 139.10 Z M 145.17 140.10 L 144.72 140.87 C 144.29 141.62 144.54 142.58 145.29 143.01 C 146.04 143.44 146.99 143.19 147.42 142.44 L 147.88 141.66 C 148.31 140.92 148.05 139.96 147.31 139.53 C 146.56 139.10 145.61 139.35 145.17 140.10 Z M 144.65 141.02 L 144.26 141.90 C 143.90 142.69 144.26 143.61 145.05 143.96 C 145.83 144.31 146.76 143.96 147.11 143.17 L 147.50 142.29 C 147.85 141.51 147.50 140.58 146.71 140.23 C 145.92 139.88 145.00 140.23 144.65 141.02 Z M 144.21 142.00 L 143.85 143.00 C 143.56 143.81 143.98 144.70 144.79 145.00 C 145.60 145.29 146.49 144.87 146.79 144.06 L 147.15 143.07 C 147.44 142.26 147.02 141.36 146.21 141.07 C 145.40 140.78 144.51 141.19 144.21 142.00 Z M 143.83 143.05 L 143.51 144.07 C 143.25 144.89 143.70 145.77 144.52 146.03 C 145.34 146.29 146.22 145.84 146.48 145.02 L 146.81 144.00 C 147.07 143.18 146.62 142.30 145.80 142.04 C 144.98 141.78 144.10 142.23 143.83 143.05 Z M 143.50 144.09 L 143.21 145.05 C 142.97 145.88 143.43 146.75 144.26 147.00 C 145.09 147.24 145.96 146.78 146.20 145.95 L 146.49 144.99 C 146.74 144.17 146.27 143.29 145.45 143.05 C 144.62 142.80 143.75 143.27 143.50 144.09 Z M 143.21 145.07 L 142.92 146.06 C 142.69 146.89 143.16 147.75 143.99 147.99 C 144.82 148.23 145.69 147.75 145.93 146.92 L 146.21 145.93 C 146.45 145.10 145.97 144.24 145.14 144.00 C 144.31 143.76 143.45 144.24 143.21 145.07 Z M 142.92 146.07 L 142.65 147.05 C 142.42 147.88 142.90 148.74 143.74 148.97 C 144.57 149.21 145.43 148.72 145.66 147.89 L 145.93 146.91 C 146.16 146.08 145.67 145.22 144.84 144.99 C 144.01 144.76 143.15 145.24 142.92 146.07 Z M 142.65 147.06 L 142.39 148.00 C 142.17 148.83 142.66 149.69 143.49 149.92 C 144.33 150.14 145.18 149.65 145.41 148.81 L 145.66 147.88 C 145.88 147.04 145.39 146.19 144.56 145.96 C 143.73 145.74 142.87 146.23 142.65 147.06 Z M 142.39 148.01 L 142.12 149.06 C 141.90 149.89 142.40 150.75 143.23 150.96 C 144.06 151.18 144.92 150.68 145.14 149.85 L 145.41 148.80 C 145.63 147.97 145.13 147.12 144.29 146.90 C 143.46 146.68 142.61 147.18 142.39 148.01 Z M 142.11 149.08 L 141.87 150.05 C 141.66 150.88 142.18 151.73 143.01 151.94 C 143.85 152.14 144.70 151.63 144.90 150.79 L 145.14 149.83 C 145.35 148.99 144.84 148.14 144.00 147.94 C 143.16 147.73 142.32 148.24 142.11 149.08 Z M 141.86 150.08 L 141.65 151.01 C 141.47 151.85 141.99 152.68 142.83 152.87 C 143.68 153.06 144.51 152.53 144.70 151.69 L 144.91 150.76 C 145.10 149.92 144.57 149.09 143.73 148.90 C 142.89 148.71 142.05 149.24 141.86 150.08 Z M 141.65 151.05 L 141.46 151.98 C 141.29 152.82 141.84 153.65 142.69 153.81 C 143.53 153.98 144.36 153.43 144.52 152.59 L 144.71 151.65 C 144.88 150.81 144.33 149.99 143.48 149.82 C 142.64 149.65 141.81 150.20 141.65 151.05 Z M 141.45 152.01 L 141.29 152.97 C 141.14 153.82 141.71 154.63 142.55 154.78 C 143.40 154.93 144.21 154.36 144.36 153.51 L 144.53 152.55 C 144.68 151.70 144.11 150.89 143.26 150.74 C 142.41 150.60 141.60 151.16 141.45 152.01 Z M 141.28 152.99 L 141.12 153.98 C 140.99 154.83 141.56 155.63 142.42 155.77 C 143.27 155.91 144.07 155.33 144.21 154.48 L 144.37 153.49 C 144.50 152.64 143.92 151.84 143.07 151.70 C 142.22 151.56 141.42 152.14 141.28 152.99 Z M 141.12 153.99 L 140.96 155.01 C 140.83 155.86 141.41 156.66 142.26 156.79 C 143.12 156.92 143.91 156.34 144.05 155.49 L 144.21 154.47 C 144.34 153.62 143.76 152.82 142.91 152.69 C 142.05 152.55 141.26 153.14 141.12 153.99 Z M 140.96 155.00 L 140.81 155.97 C 140.67 156.82 141.26 157.62 142.11 157.75 C 142.96 157.89 143.76 157.31 143.89 156.46 L 144.05 155.49 C 144.18 154.64 143.60 153.84 142.75 153.71 C 141.90 153.57 141.10 154.15 140.96 155.00 Z M 140.81 155.96 L 140.65 156.93 C 140.52 157.78 141.10 158.58 141.95 158.72 C 142.80 158.86 143.60 158.28 143.74 157.43 L 143.89 156.46 C 144.03 155.61 143.45 154.81 142.60 154.67 C 141.75 154.53 140.95 155.11 140.81 155.96 Z M 140.65 156.93 L 140.49 157.92 C 140.36 158.77 140.94 159.57 141.79 159.71 C 142.64 159.85 143.44 159.27 143.58 158.42 L 143.74 157.43 C 143.87 156.58 143.30 155.77 142.44 155.64 C 141.59 155.50 140.79 156.08 140.65 156.93 Z M 140.49 157.93 L 140.33 158.95 C 140.20 159.80 140.78 160.60 141.63 160.74 C 142.48 160.87 143.28 160.29 143.41 159.44 L 143.58 158.42 C 143.71 157.57 143.13 156.77 142.28 156.63 C 141.43 156.49 140.63 157.07 140.49 157.93 Z M 140.33 158.95 L 140.18 159.93 C 140.05 160.78 140.63 161.58 141.48 161.71 C 142.33 161.85 143.13 161.26 143.26 160.41 L 143.42 159.43 C 143.55 158.58 142.96 157.78 142.11 157.65 C 141.26 157.52 140.46 158.10 140.33 158.95 Z M 140.18 159.94 L 140.03 160.91 C 139.90 161.76 140.49 162.56 141.35 162.69 C 142.20 162.81 142.99 162.22 143.12 161.37 L 143.27 160.40 C 143.39 159.55 142.80 158.75 141.95 158.63 C 141.10 158.50 140.30 159.09 140.18 159.94 Z M 140.03 160.92 L 139.89 161.92 C 139.77 162.77 140.36 163.56 141.22 163.68 C 142.07 163.80 142.86 163.21 142.98 162.35 L 143.12 161.36 C 143.24 160.51 142.65 159.72 141.79 159.60 C 140.94 159.48 140.15 160.07 140.03 160.92 Z M 139.89 161.93 L 139.76 162.94 C 139.64 163.80 140.25 164.58 141.10 164.69 C 141.96 164.80 142.74 164.20 142.85 163.35 L 142.98 162.34 C 143.10 161.48 142.49 160.70 141.64 160.59 C 140.78 160.47 140.00 161.08 139.89 161.93 Z M 139.75 162.96 L 139.63 163.98 C 139.53 164.83 140.14 165.61 141.00 165.71 C 141.86 165.81 142.63 165.20 142.73 164.34 L 142.85 163.33 C 142.96 162.47 142.34 161.69 141.49 161.59 C 140.63 161.49 139.86 162.10 139.75 162.96 Z M 139.63 164.00 L 139.53 164.99 C 139.44 165.84 140.06 166.61 140.92 166.70 C 141.77 166.79 142.54 166.17 142.63 165.31 L 142.74 164.32 C 142.83 163.47 142.21 162.70 141.35 162.61 C 140.49 162.52 139.72 163.14 139.63 164.00 Z M 139.53 165.00 L 139.43 166.00 C 139.35 166.86 139.98 167.62 140.84 167.70 C 141.70 167.78 142.46 167.15 142.54 166.29 L 142.63 165.30 C 142.72 164.44 142.08 163.68 141.23 163.59 C 140.37 163.51 139.61 164.14 139.53 165.00 Z M 139.43 166.01 L 139.35 167.01 C 139.27 167.87 139.91 168.63 140.77 168.70 C 141.63 168.77 142.38 168.14 142.46 167.28 L 142.54 166.28 C 142.61 165.42 141.98 164.66 141.12 164.59 C 140.26 164.52 139.50 165.15 139.43 166.01 Z M 139.34 167.03 L 139.27 168.03 C 139.20 168.89 139.85 169.64 140.70 169.70 C 141.56 169.77 142.31 169.12 142.38 168.27 L 142.46 167.27 C 142.52 166.41 141.88 165.66 141.02 165.59 C 140.16 165.52 139.41 166.17 139.34 167.03 Z M 139.27 168.04 L 139.20 169.03 C 139.14 169.89 139.78 170.64 140.64 170.70 C 141.50 170.76 142.25 170.11 142.31 169.25 L 142.38 168.26 C 142.44 167.40 141.79 166.65 140.93 166.59 C 140.07 166.53 139.33 167.18 139.27 168.04 Z M 139.20 169.04 L 139.13 170.04 C 139.07 170.90 139.73 171.64 140.59 171.70 C 141.45 171.76 142.19 171.11 142.25 170.25 L 142.31 169.25 C 142.37 168.39 141.72 167.64 140.86 167.59 C 140.00 167.53 139.25 168.18 139.20 169.04 Z M 139.13 170.05 L 139.07 171.04 C 139.02 171.90 139.67 172.64 140.53 172.70 C 141.39 172.75 142.13 172.10 142.19 171.23 L 142.25 170.24 C 142.30 169.38 141.64 168.64 140.78 168.58 C 139.92 168.53 139.18 169.19 139.13 170.05 Z M 139.07 171.05 L 139.01 172.04 C 138.96 172.90 139.62 173.64 140.48 173.69 C 141.34 173.74 142.08 173.09 142.13 172.23 L 142.19 171.23 C 142.24 170.37 141.58 169.63 140.72 169.58 C 139.86 169.53 139.12 170.19 139.07 171.05 Z M 139.01 172.05 L 138.95 173.05 C 138.90 173.91 139.56 174.64 140.42 174.69 C 141.28 174.74 142.02 174.08 142.07 173.22 L 142.13 172.22 C 142.18 171.36 141.52 170.63 140.66 170.58 C 139.80 170.53 139.06 171.19 139.01 172.05 Z M 138.95 173.05 L 138.90 174.08 C 138.85 174.94 139.51 175.68 140.37 175.73 C 141.23 175.78 141.96 175.12 142.01 174.26 L 142.07 173.22 C 142.12 172.36 141.46 171.62 140.60 171.58 C 139.74 171.53 139.00 172.19 138.95 173.05 Z M 138.90 174.08 L 138.84 175.12 C 138.79 175.98 139.45 176.72 140.31 176.76 C 141.17 176.81 141.91 176.15 141.96 175.29 L 142.01 174.25 C 142.06 173.39 141.40 172.66 140.54 172.61 C 139.68 172.56 138.94 173.22 138.90 174.08 Z M 138.84 175.13 L 138.79 176.14 C 138.74 177.00 139.41 177.73 140.27 177.78 C 141.13 177.82 141.86 177.16 141.91 176.30 L 141.96 175.28 C 142.00 174.42 141.34 173.69 140.48 173.65 C 139.62 173.60 138.88 174.27 138.84 175.13 Z M 138.79 176.15 L 138.74 177.12 C 138.71 177.98 139.37 178.71 140.23 178.75 C 141.10 178.79 141.82 178.12 141.86 177.26 L 141.91 176.29 C 141.94 175.43 141.28 174.70 140.42 174.66 C 139.55 174.62 138.83 175.29 138.79 176.15 Z M 138.74 177.13 L 138.71 178.09 C 138.68 178.95 139.35 179.67 140.22 179.70 C 141.08 179.73 141.80 179.06 141.83 178.20 L 141.86 177.24 C 141.89 176.38 141.22 175.66 140.36 175.63 C 139.50 175.60 138.77 176.27 138.74 177.13 Z M 138.71 178.11 L 138.69 179.11 C 138.67 179.97 139.36 180.69 140.22 180.70 C 141.08 180.72 141.79 180.03 141.81 179.17 L 141.83 178.17 C 141.85 177.31 141.16 176.60 140.30 176.58 C 139.44 176.56 138.73 177.25 138.71 178.11 Z M 138.69 179.15 L 138.69 180.12 C 138.70 180.98 139.40 181.67 140.26 181.67 C 141.13 181.67 141.82 180.96 141.82 180.10 L 141.81 179.13 C 141.81 178.27 141.11 177.58 140.24 177.58 C 139.38 177.58 138.69 178.29 138.69 179.15 Z M 138.70 180.16 L 138.73 181.15 C 138.76 182.02 139.48 182.69 140.34 182.66 C 141.20 182.63 141.88 181.91 141.85 181.05 L 141.82 180.06 C 141.79 179.19 141.06 178.52 140.20 178.55 C 139.34 178.58 138.67 179.30 138.70 180.16 Z M 138.73 181.20 L 138.80 182.22 C 138.85 183.08 139.59 183.74 140.45 183.68 C 141.31 183.63 141.97 182.89 141.91 182.03 L 141.85 181.00 C 141.79 180.14 141.05 179.49 140.19 179.54 C 139.33 179.60 138.68 180.34 138.73 181.20 Z M 138.80 182.28 L 138.90 183.31 C 138.99 184.17 139.75 184.79 140.61 184.71 C 141.47 184.62 142.10 183.86 142.01 183.00 L 141.91 181.97 C 141.82 181.11 141.06 180.49 140.20 180.57 C 139.34 180.66 138.71 181.42 138.80 182.28 Z M 138.92 183.41 L 139.08 184.43 C 139.22 185.28 140.03 185.86 140.88 185.72 C 141.73 185.58 142.30 184.78 142.17 183.93 L 142.00 182.90 C 141.86 182.05 141.05 181.47 140.20 181.61 C 139.35 181.75 138.78 182.56 138.92 183.41 Z M 139.12 184.59 L 139.38 185.54 C 139.60 186.37 140.46 186.87 141.29 186.64 C 142.12 186.41 142.62 185.56 142.39 184.72 L 142.13 183.77 C 141.91 182.94 141.05 182.45 140.22 182.67 C 139.38 182.90 138.89 183.76 139.12 184.59 Z M 139.47 185.79 L 139.86 186.65 C 140.23 187.43 141.16 187.77 141.94 187.41 C 142.72 187.04 143.06 186.11 142.70 185.33 L 142.30 184.48 C 141.94 183.69 141.01 183.35 140.23 183.72 C 139.44 184.08 139.10 185.01 139.47 185.79 Z M 140.09 187.00 L 140.74 187.76 C 141.29 188.42 142.28 188.50 142.94 187.94 C 143.59 187.38 143.67 186.39 143.12 185.74 L 142.47 184.98 C 141.91 184.32 140.93 184.24 140.27 184.80 C 139.61 185.36 139.53 186.34 140.09 187.00 Z M 141.08 188.06 L 141.89 188.58 C 142.62 189.05 143.59 188.84 144.05 188.11 C 144.52 187.39 144.31 186.42 143.58 185.96 L 142.77 185.43 C 142.04 184.97 141.08 185.18 140.61 185.90 C 140.15 186.63 140.36 187.60 141.08 188.06 Z M 142.23 188.75 L 143.18 189.07 C 144.00 189.35 144.89 188.92 145.17 188.10 C 145.45 187.29 145.01 186.40 144.20 186.12 L 143.25 185.79 C 142.43 185.51 141.54 185.95 141.26 186.76 C 140.98 187.58 141.42 188.47 142.23 188.75 Z M 143.43 189.14 L 144.34 189.29 C 145.19 189.43 145.99 188.85 146.13 188.00 C 146.27 187.15 145.70 186.35 144.85 186.21 L 143.95 186.06 C 143.10 185.92 142.29 186.49 142.15 187.34 C 142.01 188.19 142.58 189.00 143.43 189.14 Z M 144.56 189.31 L 145.50 189.33 C 146.36 189.34 147.07 188.66 147.09 187.79 C 147.10 186.93 146.42 186.22 145.56 186.20 L 144.62 186.19 C 143.76 186.17 143.05 186.86 143.03 187.72 C 143.02 188.58 143.70 189.29 144.56 189.31 Z M 145.74 189.31 L 146.73 189.17 C 147.59 189.06 148.18 188.27 148.07 187.41 C 147.95 186.56 147.16 185.96 146.31 186.08 L 145.31 186.22 C 144.46 186.34 143.86 187.12 143.98 187.98 C 144.10 188.83 144.89 189.43 145.74 189.31 Z M 146.98 189.12 L 148.02 188.80 C 148.85 188.55 149.31 187.67 149.06 186.85 C 148.81 186.03 147.93 185.56 147.11 185.81 L 146.06 186.14 C 145.24 186.39 144.77 187.26 145.03 188.09 C 145.28 188.91 146.15 189.37 146.98 189.12 Z M 148.23 188.72 L 149.15 188.29 C 149.93 187.92 150.26 186.99 149.90 186.21 C 149.53 185.43 148.60 185.09 147.82 185.46 L 146.90 185.89 C 146.12 186.26 145.79 187.19 146.15 187.97 C 146.52 188.75 147.45 189.09 148.23 188.72 Z M 149.29 188.21 L 150.14 187.70 C 150.88 187.26 151.12 186.30 150.67 185.56 C 150.23 184.82 149.27 184.58 148.53 185.03 L 147.68 185.53 C 146.94 185.98 146.70 186.94 147.15 187.68 C 147.59 188.42 148.55 188.66 149.29 188.21 Z M 150.22 187.65 L 151.07 187.06 C 151.78 186.57 151.95 185.60 151.46 184.89 C 150.97 184.18 149.99 184.00 149.29 184.50 L 148.44 185.08 C 147.73 185.58 147.56 186.55 148.05 187.26 C 148.54 187.96 149.52 188.14 150.22 187.65 Z M 151.13 187.01 L 151.95 186.38 C 152.63 185.85 152.76 184.87 152.23 184.19 C 151.71 183.51 150.73 183.38 150.04 183.91 L 149.22 184.54 C 148.54 185.07 148.41 186.05 148.94 186.73 C 149.47 187.42 150.45 187.54 151.13 187.01 Z M 152.00 186.34 L 152.77 185.70 C 153.44 185.14 153.53 184.16 152.97 183.50 C 152.42 182.84 151.44 182.75 150.77 183.30 L 150.00 183.95 C 149.34 184.50 149.25 185.48 149.80 186.15 C 150.35 186.81 151.34 186.90 152.00 186.34 Z M 152.81 185.67 L 153.57 185.00 C 154.21 184.43 154.27 183.44 153.70 182.79 C 153.13 182.15 152.14 182.09 151.50 182.66 L 150.74 183.33 C 150.09 183.90 150.03 184.89 150.60 185.53 C 151.18 186.18 152.16 186.24 152.81 185.67 Z M 153.60 184.97 L 154.39 184.22 C 155.03 183.64 155.06 182.65 154.47 182.02 C 153.88 181.39 152.90 181.35 152.26 181.94 L 151.47 182.69 C 150.84 183.27 150.80 184.26 151.39 184.89 C 151.98 185.52 152.97 185.56 153.60 184.97 Z M 154.43 184.19 L 155.14 183.49 C 155.75 182.89 155.76 181.90 155.16 181.28 C 154.55 180.67 153.56 180.66 152.95 181.27 L 152.23 181.97 C 151.62 182.58 151.61 183.56 152.22 184.18 C 152.82 184.79 153.81 184.80 154.43 184.19 Z M 155.16 183.47 L 155.82 182.79 C 156.42 182.17 156.41 181.18 155.79 180.58 C 155.17 179.98 154.18 179.99 153.58 180.61 L 152.92 181.29 C 152.32 181.91 152.34 182.90 152.96 183.50 C 153.58 184.10 154.56 184.09 155.16 183.47 Z M 155.84 182.77 L 156.47 182.10 C 157.06 181.47 157.03 180.48 156.41 179.89 C 155.78 179.30 154.79 179.33 154.20 179.96 L 153.56 180.63 C 152.97 181.26 153.00 182.25 153.63 182.84 C 154.26 183.43 155.25 183.40 155.84 182.77 Z M 156.48 182.09 L 157.13 181.38 C 157.72 180.75 157.68 179.76 157.05 179.18 C 156.42 178.59 155.43 178.63 154.85 179.26 L 154.19 179.96 C 153.61 180.60 153.64 181.58 154.27 182.17 C 154.91 182.76 155.89 182.72 156.48 182.09 Z M 157.14 181.38 L 157.80 180.66 C 158.39 180.02 158.35 179.04 157.71 178.45 C 157.08 177.87 156.09 177.91 155.51 178.54 L 154.84 179.26 C 154.26 179.90 154.30 180.89 154.93 181.47 C 155.57 182.05 156.55 182.01 157.14 181.38 Z M 157.81 180.66 L 158.49 179.91 C 159.07 179.28 159.03 178.29 158.39 177.71 C 157.76 177.13 156.77 177.17 156.19 177.80 L 155.51 178.54 C 154.92 179.18 154.96 180.17 155.60 180.75 C 156.24 181.33 157.22 181.29 157.81 180.66 Z M 158.49 179.91 L 159.19 179.15 C 159.77 178.52 159.73 177.53 159.09 176.95 C 158.45 176.36 157.47 176.41 156.88 177.04 L 156.19 177.80 C 155.60 178.44 155.65 179.43 156.28 180.01 C 156.92 180.59 157.90 180.55 158.49 179.91 Z M 159.18 179.15 L 159.86 178.42 C 160.44 177.78 160.40 176.79 159.77 176.21 C 159.13 175.63 158.14 175.67 157.56 176.31 L 156.88 177.04 C 156.30 177.68 156.34 178.66 156.98 179.25 C 157.61 179.83 158.60 179.79 159.18 179.15 Z M 159.86 178.41 L 160.54 177.68 C 161.12 177.04 161.07 176.05 160.44 175.47 C 159.80 174.89 158.81 174.93 158.23 175.57 L 157.56 176.31 C 156.98 176.94 157.02 177.93 157.66 178.51 C 158.29 179.10 159.28 179.05 159.86 178.41 Z M 160.54 177.67 L 161.22 176.92 C 161.79 176.28 161.74 175.29 161.10 174.72 C 160.46 174.14 159.48 174.19 158.90 174.83 L 158.22 175.58 C 157.65 176.22 157.70 177.21 158.34 177.78 C 158.98 178.36 159.96 178.31 160.54 177.67 Z M 161.23 176.91 L 161.90 176.15 C 162.47 175.51 162.40 174.52 161.76 173.95 C 161.11 173.38 160.12 173.44 159.55 174.09 L 158.89 174.84 C 158.32 175.49 158.38 176.48 159.02 177.05 C 159.67 177.62 160.66 177.56 161.23 176.91 Z M 161.91 176.13 L 162.56 175.37 C 163.12 174.72 163.05 173.73 162.39 173.17 C 161.74 172.61 160.75 172.69 160.19 173.34 L 159.54 174.11 C 158.98 174.76 159.05 175.75 159.71 176.31 C 160.37 176.87 161.35 176.79 161.91 176.13 Z M 162.58 175.35 L 163.22 174.57 C 163.77 173.90 163.68 172.92 163.01 172.37 C 162.35 171.82 161.36 171.92 160.81 172.58 L 160.17 173.36 C 159.62 174.03 159.72 175.01 160.39 175.56 C 161.05 176.11 162.04 176.01 162.58 175.35 Z M 163.24 174.55 L 163.86 173.77 C 164.40 173.09 164.29 172.11 163.61 171.57 C 162.94 171.04 161.96 171.15 161.42 171.82 L 160.80 172.60 C 160.26 173.28 160.37 174.26 161.05 174.80 C 161.72 175.33 162.70 175.22 163.24 174.55 Z M 163.88 173.75 L 164.48 172.97 C 165.01 172.28 164.89 171.30 164.21 170.77 C 163.53 170.25 162.54 170.37 162.02 171.05 L 161.41 171.84 C 160.88 172.52 161.00 173.50 161.69 174.03 C 162.37 174.56 163.35 174.43 163.88 173.75 Z M 164.49 172.95 L 165.09 172.16 C 165.62 171.48 165.48 170.50 164.80 169.98 C 164.11 169.45 163.13 169.59 162.61 170.27 L 162.01 171.06 C 161.49 171.75 161.62 172.73 162.30 173.25 C 162.99 173.77 163.97 173.64 164.49 172.95 Z M 165.10 172.16 L 165.70 171.36 C 166.22 170.67 166.08 169.69 165.39 169.17 C 164.70 168.65 163.72 168.79 163.21 169.48 L 162.60 170.28 C 162.09 170.97 162.22 171.95 162.91 172.47 C 163.60 172.98 164.58 172.85 165.10 172.16 Z M 165.70 171.35 L 166.30 170.55 C 166.82 169.86 166.68 168.88 165.99 168.37 C 165.30 167.85 164.32 167.99 163.80 168.68 L 163.20 169.49 C 162.69 170.18 162.83 171.15 163.52 171.67 C 164.21 172.19 165.19 172.04 165.70 171.35 Z M 166.31 170.55 L 166.90 169.74 C 167.42 169.05 167.27 168.07 166.58 167.56 C 165.89 167.04 164.91 167.19 164.40 167.88 L 163.80 168.69 C 163.29 169.38 163.43 170.36 164.12 170.87 C 164.81 171.38 165.79 171.24 166.31 170.55 Z M 166.91 169.74 L 167.50 168.94 C 168.01 168.24 167.86 167.26 167.17 166.75 C 166.48 166.24 165.50 166.39 164.99 167.08 L 164.39 167.88 C 163.88 168.58 164.03 169.55 164.72 170.07 C 165.42 170.58 166.39 170.43 166.91 169.74 Z M 167.50 168.93 L 168.10 168.12 C 168.61 167.43 168.46 166.45 167.76 165.94 C 167.07 165.43 166.09 165.58 165.58 166.27 L 164.99 167.08 C 164.48 167.78 164.62 168.75 165.32 169.27 C 166.01 169.78 166.99 169.63 167.50 168.93 Z M 168.10 168.12 L 168.70 167.30 C 169.21 166.61 169.06 165.63 168.36 165.12 C 167.67 164.61 166.69 164.76 166.18 165.46 L 165.58 166.28 C 165.07 166.97 165.22 167.95 165.92 168.46 C 166.61 168.97 167.59 168.82 168.10 168.12 Z M 168.70 167.30 L 169.29 166.49 C 169.80 165.79 169.64 164.81 168.95 164.31 C 168.25 163.80 167.27 163.95 166.77 164.65 L 166.18 165.46 C 165.67 166.16 165.82 167.14 166.52 167.64 C 167.22 168.15 168.19 168.00 168.70 167.30 Z M 169.30 166.48 L 169.88 165.68 C 170.38 164.98 170.22 164.00 169.52 163.50 C 168.82 162.99 167.84 163.15 167.34 163.85 L 166.76 164.66 C 166.26 165.36 166.42 166.33 167.12 166.84 C 167.82 167.34 168.79 167.18 169.30 166.48 Z M 169.88 165.67 L 170.45 164.86 C 170.95 164.16 170.79 163.19 170.08 162.69 C 169.38 162.19 168.40 162.35 167.91 163.06 L 167.34 163.86 C 166.84 164.56 167.00 165.54 167.70 166.04 C 168.41 166.54 169.38 166.37 169.88 165.67 Z M 170.46 164.85 L 171.05 164.01 C 171.54 163.30 171.37 162.33 170.66 161.84 C 169.95 161.34 168.98 161.52 168.49 162.22 L 167.90 163.07 C 167.41 163.77 167.58 164.75 168.29 165.24 C 168.99 165.73 169.97 165.56 170.46 164.85 Z M 171.06 164.00 L 171.63 163.16 C 172.11 162.45 171.93 161.48 171.22 160.99 C 170.51 160.51 169.54 160.69 169.05 161.40 L 168.48 162.23 C 167.99 162.95 168.18 163.92 168.89 164.40 C 169.60 164.89 170.57 164.71 171.06 164.00 Z M 171.64 163.15 L 172.18 162.33 C 172.66 161.61 172.47 160.64 171.75 160.16 C 171.04 159.68 170.07 159.88 169.59 160.59 L 169.04 161.41 C 168.56 162.13 168.75 163.10 169.47 163.58 C 170.19 164.06 171.16 163.87 171.64 163.15 Z M 172.19 162.31 L 172.72 161.50 C 173.20 160.78 172.99 159.81 172.27 159.34 C 171.55 158.87 170.58 159.07 170.11 159.79 L 169.58 160.61 C 169.11 161.33 169.31 162.30 170.03 162.77 C 170.76 163.24 171.72 163.04 172.19 162.31 Z M 172.74 161.48 L 173.28 160.63 C 173.74 159.90 173.52 158.94 172.79 158.48 C 172.06 158.01 171.10 158.23 170.64 158.96 L 170.10 159.81 C 169.64 160.54 169.85 161.50 170.58 161.97 C 171.31 162.43 172.27 162.21 172.74 161.48 Z M 173.28 160.62 L 173.81 159.77 C 174.26 159.04 174.04 158.08 173.30 157.62 C 172.57 157.17 171.61 157.39 171.15 158.13 L 170.63 158.97 C 170.18 159.71 170.40 160.67 171.14 161.12 C 171.87 161.58 172.83 161.35 173.28 160.62 Z M 173.81 159.76 L 174.33 158.91 C 174.78 158.18 174.55 157.22 173.81 156.77 C 173.07 156.32 172.11 156.55 171.66 157.29 L 171.15 158.14 C 170.70 158.87 170.93 159.83 171.67 160.28 C 172.40 160.73 173.36 160.50 173.81 159.76 Z M 174.33 158.91 L 174.84 158.07 C 175.28 157.34 175.05 156.38 174.31 155.93 C 173.57 155.49 172.61 155.72 172.16 156.46 L 171.66 157.29 C 171.21 158.03 171.45 158.99 172.19 159.44 C 172.93 159.88 173.89 159.65 174.33 158.91 Z M 174.85 158.06 L 175.33 157.23 C 175.77 156.49 175.52 155.53 174.78 155.10 C 174.04 154.66 173.08 154.91 172.64 155.65 L 172.16 156.48 C 171.72 157.22 171.97 158.18 172.71 158.61 C 173.45 159.05 174.41 158.80 174.85 158.06 Z M 175.35 157.20 L 175.83 156.33 C 176.25 155.57 175.98 154.62 175.22 154.21 C 174.47 153.79 173.52 154.06 173.10 154.82 L 172.62 155.69 C 172.20 156.44 172.48 157.39 173.23 157.81 C 173.99 158.22 174.94 157.95 175.35 157.20 Z M 175.86 156.27 L 176.33 155.34 C 176.71 154.57 176.40 153.64 175.63 153.25 C 174.86 152.87 173.92 153.18 173.53 153.95 L 173.07 154.88 C 172.69 155.65 173.00 156.59 173.77 156.97 C 174.54 157.36 175.48 157.04 175.86 156.27 Z M 176.36 155.27 L 176.78 154.32 C 177.12 153.53 176.76 152.61 175.97 152.26 C 175.18 151.92 174.26 152.28 173.91 153.07 L 173.50 154.02 C 173.15 154.81 173.52 155.73 174.31 156.08 C 175.10 156.42 176.02 156.06 176.36 155.27 Z M 176.81 154.25 L 177.17 153.29 C 177.47 152.48 177.06 151.58 176.26 151.28 C 175.45 150.97 174.55 151.38 174.24 152.19 L 173.88 153.14 C 173.58 153.95 173.99 154.85 174.79 155.16 C 175.60 155.46 176.50 155.05 176.81 154.25 Z M 177.19 153.22 L 177.51 152.25 C 177.78 151.43 177.33 150.55 176.51 150.28 C 175.69 150.01 174.81 150.46 174.54 151.28 L 174.22 152.25 C 173.95 153.07 174.40 153.95 175.22 154.22 C 176.04 154.49 176.92 154.04 177.19 153.22 Z M 177.53 152.18 L 177.80 151.22 C 178.03 150.39 177.54 149.53 176.71 149.29 C 175.88 149.06 175.02 149.55 174.79 150.38 L 174.52 151.34 C 174.29 152.17 174.78 153.03 175.61 153.27 C 176.44 153.50 177.30 153.01 177.53 152.18 Z M 177.82 151.14 L 178.03 150.20 C 178.22 149.36 177.69 148.52 176.85 148.33 C 176.01 148.14 175.17 148.67 174.98 149.51 L 174.77 150.45 C 174.58 151.30 175.11 152.13 175.95 152.32 C 176.79 152.51 177.63 151.98 177.82 151.14 Z M 178.05 150.08 L 178.21 148.98 C 178.34 148.12 177.75 147.33 176.90 147.20 C 176.04 147.08 175.25 147.67 175.12 148.52 L 174.96 149.62 C 174.84 150.48 175.42 151.27 176.28 151.40 C 177.13 151.52 177.92 150.93 178.05 150.08 Z M 178.23 148.78 L 178.25 147.79 C 178.27 146.93 177.58 146.21 176.72 146.20 C 175.86 146.18 175.14 146.87 175.13 147.73 L 175.11 148.72 C 175.09 149.58 175.78 150.29 176.64 150.31 C 177.50 150.32 178.21 149.64 178.23 148.78 Z M 178.23 147.50 L 178.08 146.61 C 177.94 145.76 177.13 145.19 176.28 145.33 C 175.43 145.47 174.86 146.28 175.00 147.13 L 175.15 148.02 C 175.29 148.87 176.09 149.44 176.95 149.30 C 177.80 149.16 178.37 148.35 178.23 147.50 Z M 177.97 146.25 L 177.60 145.39 C 177.26 144.60 176.34 144.23 175.55 144.58 C 174.75 144.92 174.39 145.84 174.73 146.63 L 175.11 147.49 C 175.45 148.28 176.37 148.65 177.16 148.30 C 177.95 147.96 178.32 147.04 177.97 146.25 Z M 177.38 145.03 L 176.77 144.27 C 176.23 143.60 175.25 143.49 174.57 144.04 C 173.90 144.58 173.80 145.56 174.34 146.23 L 174.95 146.99 C 175.49 147.66 176.48 147.77 177.15 147.22 C 177.82 146.68 177.92 145.70 177.38 145.03 Z M 176.47 143.99 L 175.64 143.38 C 174.94 142.87 173.97 143.03 173.46 143.72 C 172.95 144.42 173.10 145.40 173.80 145.90 L 174.63 146.51 C 175.33 147.02 176.31 146.87 176.82 146.17 C 177.32 145.47 177.17 144.50 176.47 143.99 Z M 175.35 143.21 L 174.49 142.84 C 173.70 142.49 172.78 142.85 172.44 143.64 C 172.09 144.43 172.45 145.35 173.24 145.70 L 174.09 146.07 C 174.88 146.42 175.80 146.06 176.15 145.27 C 176.50 144.48 176.14 143.56 175.35 143.21 Z M 174.28 142.76 L 173.35 142.50 C 172.52 142.27 171.66 142.76 171.43 143.59 C 171.20 144.42 171.68 145.28 172.52 145.51 L 173.45 145.77 C 174.28 146.00 175.14 145.52 175.37 144.69 C 175.60 143.85 175.11 142.99 174.28 142.76 Z M 173.21 142.47 L 172.19 142.29 C 171.34 142.14 170.53 142.70 170.38 143.55 C 170.23 144.40 170.79 145.21 171.64 145.36 L 172.66 145.54 C 173.51 145.70 174.32 145.13 174.47 144.28 C 174.62 143.43 174.06 142.62 173.21 142.47 Z M 172.10 142.27 L 171.04 142.15 C 170.18 142.05 169.40 142.66 169.30 143.52 C 169.20 144.38 169.82 145.15 170.67 145.25 L 171.74 145.38 C 172.59 145.48 173.37 144.86 173.47 144.01 C 173.57 143.15 172.95 142.37 172.10 142.27 Z M 170.98 142.15 L 170.09 142.07 C 169.23 142.00 168.48 142.64 168.41 143.50 C 168.34 144.36 168.98 145.12 169.84 145.19 L 170.73 145.26 C 171.59 145.33 172.34 144.69 172.41 143.83 C 172.48 142.97 171.84 142.21 170.98 142.15 Z M 170.06 142.07 L 169.12 142.02 C 168.26 141.97 167.53 142.63 167.48 143.49 C 167.43 144.35 168.09 145.09 168.95 145.14 L 169.88 145.19 C 170.74 145.24 171.48 144.58 171.53 143.72 C 171.58 142.86 170.92 142.12 170.06 142.07 Z M 169.09 142.02 L 168.10 141.98 C 167.24 141.95 166.51 142.62 166.48 143.49 C 166.45 144.35 167.12 145.07 167.99 145.10 L 168.98 145.14 C 169.84 145.17 170.57 144.50 170.60 143.63 C 170.63 142.77 169.96 142.05 169.09 142.02 Z M 168.08 141.98 L 167.00 141.96 C 166.13 141.94 165.42 142.62 165.40 143.48 C 165.38 144.35 166.07 145.06 166.93 145.08 L 168.01 145.10 C 168.87 145.12 169.58 144.44 169.60 143.58 C 169.62 142.71 168.94 142.00 168.08 141.98 Z M 166.98 141.96 L 165.89 141.94 C 165.03 141.93 164.32 142.62 164.31 143.48 C 164.30 144.35 164.99 145.05 165.85 145.07 L 166.94 145.08 C 167.80 145.09 168.51 144.40 168.52 143.54 C 168.53 142.68 167.84 141.97 166.98 141.96 Z M 165.88 141.94 L 164.89 141.94 C 164.03 141.93 163.33 142.63 163.32 143.49 C 163.31 144.35 164.01 145.05 164.87 145.06 L 165.86 145.07 C 166.72 145.07 167.42 144.38 167.43 143.51 C 167.43 142.65 166.74 141.95 165.88 141.94 Z M 164.88 141.94 L 163.85 141.94 C 162.99 141.94 162.29 142.64 162.29 143.51 C 162.30 144.37 163.00 145.06 163.86 145.06 L 164.89 145.06 C 165.75 145.06 166.44 144.36 166.44 143.49 C 166.44 142.63 165.74 141.93 164.88 141.94 Z M 163.83 141.94 L 162.79 141.96 C 161.93 141.97 161.24 142.68 161.26 143.54 C 161.27 144.40 161.98 145.09 162.84 145.08 L 163.88 145.06 C 164.74 145.05 165.43 144.34 165.42 143.48 C 165.40 142.61 164.69 141.93 163.83 141.94 Z M 162.77 141.96 L 161.74 141.99 C 160.88 142.02 160.20 142.74 160.23 143.60 C 160.26 144.46 160.98 145.14 161.84 145.11 L 162.87 145.08 C 163.73 145.05 164.41 144.33 164.38 143.47 C 164.35 142.60 163.63 141.93 162.77 141.96 Z M 161.71 141.99 L 160.72 142.05 C 159.86 142.09 159.20 142.83 159.25 143.69 C 159.30 144.55 160.03 145.21 160.89 145.16 L 161.88 145.11 C 162.74 145.06 163.40 144.32 163.35 143.46 C 163.30 142.60 162.57 141.94 161.71 141.99 Z M 160.67 142.05 L 159.67 142.14 C 158.81 142.21 158.17 142.97 158.25 143.83 C 158.33 144.69 159.08 145.32 159.94 145.25 L 160.94 145.16 C 161.80 145.08 162.44 144.33 162.36 143.47 C 162.29 142.61 161.53 141.97 160.67 142.05 Z M 159.59 142.15 L 158.47 142.30 C 157.62 142.42 157.02 143.21 157.14 144.06 C 157.26 144.91 158.04 145.51 158.90 145.39 L 160.02 145.24 C 160.87 145.12 161.47 144.33 161.35 143.48 C 161.23 142.63 160.45 142.03 159.59 142.15 Z M 158.39 142.31 L 157.39 142.51 C 156.54 142.67 155.99 143.49 156.15 144.34 C 156.31 145.18 157.13 145.74 157.98 145.57 L 158.98 145.38 C 159.83 145.22 160.38 144.40 160.22 143.55 C 160.06 142.70 159.24 142.15 158.39 142.31 Z M 157.31 142.52 L 156.40 142.75 C 155.56 142.95 155.05 143.80 155.25 144.63 C 155.46 145.47 156.30 145.98 157.14 145.78 L 158.05 145.56 C 158.89 145.35 159.40 144.51 159.20 143.67 C 159.00 142.83 158.15 142.32 157.31 142.52 Z M 156.34 142.76 L 155.49 143.00 C 154.66 143.24 154.18 144.10 154.41 144.93 C 154.65 145.76 155.51 146.24 156.34 146.01 L 157.20 145.77 C 158.02 145.53 158.51 144.67 158.27 143.84 C 158.04 143.01 157.17 142.53 156.34 142.76 Z M 155.45 143.02 L 154.54 143.30 C 153.72 143.55 153.26 144.43 153.51 145.25 C 153.77 146.07 154.64 146.54 155.47 146.28 L 156.38 146.00 C 157.20 145.74 157.66 144.87 157.41 144.04 C 157.15 143.22 156.28 142.76 155.45 143.02 Z M 154.50 143.31 L 153.58 143.63 C 152.76 143.91 152.33 144.80 152.61 145.61 C 152.89 146.43 153.78 146.86 154.59 146.58 L 155.51 146.26 C 156.33 145.98 156.76 145.10 156.48 144.28 C 156.20 143.47 155.31 143.03 154.50 143.31 Z M 153.51 143.65 L 152.59 144.02 C 151.79 144.33 151.39 145.24 151.71 146.04 C 152.03 146.84 152.94 147.24 153.74 146.92 L 154.66 146.56 C 155.46 146.24 155.85 145.33 155.54 144.53 C 155.22 143.73 154.31 143.34 153.51 143.65 Z M 152.51 144.05 L 151.57 144.48 C 150.79 144.84 150.44 145.77 150.80 146.56 C 151.16 147.34 152.09 147.68 152.87 147.32 L 153.82 146.89 C 154.60 146.53 154.94 145.60 154.58 144.82 C 154.22 144.03 153.29 143.69 152.51 144.05 Z M 151.49 144.52 L 150.60 145.00 C 149.83 145.40 149.54 146.35 149.95 147.11 C 150.35 147.87 151.30 148.16 152.06 147.76 L 152.95 147.28 C 153.72 146.88 154.01 145.93 153.60 145.17 C 153.20 144.41 152.25 144.12 151.49 144.52 Z M 150.52 145.04 L 149.64 145.57 C 148.90 146.02 148.66 146.98 149.11 147.71 C 149.55 148.45 150.51 148.69 151.25 148.25 L 152.13 147.71 C 152.87 147.27 153.11 146.31 152.67 145.57 C 152.22 144.83 151.26 144.60 150.52 145.04 Z M 149.57 145.62 L 148.72 146.20 C 148.01 146.69 147.83 147.66 148.31 148.37 C 148.80 149.08 149.77 149.26 150.48 148.77 L 151.33 148.20 C 152.04 147.71 152.22 146.74 151.74 146.03 C 151.25 145.31 150.28 145.13 149.57 145.62 Z M 148.63 146.26 L 147.86 146.87 C 147.19 147.41 147.07 148.39 147.61 149.07 C 148.14 149.74 149.13 149.86 149.80 149.32 L 150.57 148.71 C 151.25 148.18 151.36 147.19 150.83 146.52 C 150.29 145.84 149.31 145.73 148.63 146.26 Z M 147.75 146.97 L 147.02 147.68 C 146.39 148.28 146.38 149.27 146.97 149.89 C 147.57 150.51 148.56 150.53 149.18 149.93 L 149.92 149.22 C 150.54 148.62 150.55 147.63 149.96 147.01 C 149.36 146.39 148.37 146.37 147.75 146.97 Z M 146.89 147.82 L 146.24 148.62 C 145.69 149.29 145.79 150.27 146.46 150.82 C 147.13 151.36 148.11 151.26 148.66 150.59 L 149.31 149.79 C 149.85 149.12 149.75 148.14 149.08 147.59 C 148.42 147.05 147.43 147.15 146.89 147.82 Z M 146.14 148.75 L 145.61 149.55 C 145.14 150.27 145.34 151.24 146.06 151.72 C 146.78 152.19 147.75 151.99 148.22 151.27 L 148.75 150.46 C 149.22 149.74 149.02 148.77 148.30 148.30 C 147.58 147.83 146.62 148.03 146.14 148.75 Z M 145.57 149.63 L 145.12 150.39 C 144.68 151.14 144.94 152.09 145.68 152.53 C 146.43 152.96 147.38 152.71 147.82 151.97 L 148.26 151.20 C 148.70 150.45 148.45 149.50 147.70 149.06 C 146.96 148.63 146.00 148.88 145.57 149.63 Z"
      fill="black"
      fill-rule="nonzero" /></svg>