<svg xmlns="http://www.w3.org/2000/svg" width="300" height="300" viewBox="0 0 300 300">
<path d="M 146.17 132.96 L 145.22 133.23 C 144.39 133.47 143.91 134.34 144.15 135.16 C 144.39 135.99 145.25 136.47 146.08 136.24 L 147.03 135.97 C 147.86 135.73 148.34 134.86 148.10 134.04 C 147.86 133.21 147.00 132.73 146.17 132.96 Z M 145.19 133.25 L 144.24 133.54 C 143.42 133.80 142.96 134.68 143.22 135.50 C 143.48 136.32 144.36 136.78 145.18 136.52 L 146.12 136.22 C 146.94 135.97 147.40 135.09 147.14 134.27 C 146.88 133.45 146.01 132.99 145.19 133.25 Z M 144.17 133.57 L 143.23 133.91 C 142.43 134.21 142.01 135.11 142.31 135.92 C 142.61 136.73 143.51 137.14 144.32 136.84 L 145.25 136.50 C 146.06 136.20 146.47 135.30 146.17 134.49 C 145.87 133.68 144.98 133.27 144.17 133.57 Z M 143.13 133.96 L 142.21 134.38 C 141.42 134.74 141.08 135.67 141.44 136.45 C 141.80 137.23 142.72 137.58 143.51 137.22 L 144.43 136.80 C 145.21 136.44 145.56 135.51 145.20 134.73 C 144.84 133.94 143.91 133.60 143.13 133.96 Z M 142.08 134.44 L 141.23 134.93 C 140.48 135.36 140.22 136.32 140.65 137.06 C 141.08 137.81 142.03 138.07 142.78 137.64 L 143.63 137.15 C 144.38 136.72 144.64 135.77 144.21 135.02 C 143.78 134.27 142.83 134.02 142.08 134.44 Z M 141.11 135.01 L 140.32 135.56 C 139.62 136.06 139.45 137.03 139.94 137.74 C 140.44 138.44 141.41 138.61 142.12 138.12 L 142.90 137.57 C 143.61 137.07 143.78 136.10 143.28 135.39 C 142.79 134.68 141.81 134.51 141.11 135.01 Z M 140.22 135.64 L 139.46 136.27 C 138.80 136.83 138.71 137.81 139.27 138.47 C 139.82 139.13 140.80 139.22 141.46 138.67 L 142.22 138.04 C 142.88 137.48 142.97 136.50 142.42 135.84 C 141.87 135.18 140.88 135.09 140.22 135.64 Z M 139.37 136.36 L 138.64 137.07 C 138.03 137.68 138.02 138.66 138.63 139.28 C 139.23 139.89 140.22 139.90 140.84 139.30 L 141.56 138.58 C 142.17 137.98 142.18 136.99 141.58 136.38 C 140.97 135.76 139.98 135.75 139.37 136.36 Z M 138.56 137.16 L 137.88 137.95 C 137.31 138.60 137.38 139.59 138.04 140.15 C 138.69 140.71 139.67 140.64 140.24 139.99 L 140.92 139.21 C 141.48 138.55 141.41 137.57 140.76 137.00 C 140.11 136.44 139.12 136.51 138.56 137.16 Z M 137.80 138.04 L 137.18 138.88 C 136.67 139.57 136.82 140.55 137.51 141.06 C 138.20 141.58 139.18 141.43 139.69 140.74 L 140.31 139.90 C 140.83 139.21 140.68 138.23 139.99 137.72 C 139.29 137.20 138.32 137.35 137.80 138.04 Z M 137.12 138.97 L 136.57 139.84 C 136.10 140.56 136.31 141.53 137.04 141.99 C 137.77 142.46 138.73 142.25 139.20 141.52 L 139.75 140.65 C 140.22 139.92 140.01 138.96 139.28 138.49 C 138.55 138.03 137.59 138.24 137.12 138.97 Z M 136.52 139.91 L 136.02 140.81 C 135.59 141.56 135.86 142.51 136.61 142.94 C 137.36 143.36 138.31 143.09 138.74 142.34 L 139.24 141.44 C 139.66 140.69 139.40 139.74 138.65 139.32 C 137.90 138.89 136.94 139.16 136.52 139.91 Z M 135.98 140.88 L 135.53 141.78 C 135.14 142.55 135.45 143.49 136.22 143.87 C 136.99 144.26 137.93 143.95 138.32 143.18 L 138.77 142.28 C 139.16 141.51 138.85 140.57 138.08 140.18 C 137.30 139.79 136.37 140.10 135.98 140.88 Z M 135.50 141.84 L 135.10 142.72 C 134.75 143.51 135.10 144.44 135.88 144.79 C 136.67 145.14 137.59 144.79 137.95 144.01 L 138.35 143.12 C 138.70 142.33 138.35 141.41 137.56 141.06 C 136.78 140.70 135.85 141.05 135.50 141.84 Z M 135.08 142.78 L 134.71 143.68 C 134.39 144.48 134.77 145.39 135.57 145.71 C 136.37 146.04 137.28 145.65 137.61 144.85 L 137.97 143.95 C 138.29 143.15 137.91 142.24 137.11 141.92 C 136.31 141.60 135.40 141.98 135.08 142.78 Z M 134.69 143.75 L 134.33 144.76 C 134.04 145.57 134.47 146.46 135.28 146.75 C 136.09 147.04 136.98 146.61 137.27 145.80 L 137.63 144.79 C 137.92 143.98 137.49 143.08 136.68 142.80 C 135.87 142.51 134.97 142.93 134.69 143.75 Z M 134.31 144.83 L 134.02 145.78 C 133.77 146.60 134.24 147.48 135.06 147.72 C 135.89 147.97 136.76 147.51 137.01 146.68 L 137.30 145.73 C 137.54 144.90 137.08 144.03 136.25 143.78 C 135.43 143.53 134.55 144.00 134.31 144.83 Z M 134.00 145.84 L 133.77 146.77 C 133.55 147.60 134.06 148.45 134.89 148.66 C 135.73 148.88 136.58 148.37 136.79 147.54 L 137.03 146.61 C 137.24 145.78 136.73 144.93 135.90 144.72 C 135.06 144.50 134.21 145.01 134.00 145.84 Z M 133.75 146.82 L 133.55 147.74 C 133.37 148.58 133.90 149.41 134.74 149.60 C 135.58 149.78 136.42 149.25 136.60 148.41 L 136.80 147.49 C 136.99 146.64 136.46 145.81 135.61 145.63 C 134.77 145.44 133.94 145.97 133.75 146.82 Z M 133.54 147.77 L 133.36 148.72 C 133.19 149.57 133.74 150.39 134.59 150.55 C 135.44 150.72 136.26 150.17 136.42 149.32 L 136.61 148.37 C 136.77 147.53 136.22 146.71 135.38 146.54 C 134.53 146.37 133.71 146.93 133.54 147.77 Z M 133.35 148.75 L 133.18 149.73 C 133.04 150.58 133.60 151.39 134.45 151.53 C 135.30 151.68 136.11 151.11 136.26 150.26 L 136.43 149.29 C 136.58 148.44 136.01 147.63 135.16 147.48 C 134.31 147.33 133.50 147.90 133.35 148.75 Z M 133.18 149.76 L 133.02 150.76 C 132.89 151.61 133.48 152.41 134.33 152.54 C 135.18 152.67 135.98 152.09 136.11 151.23 L 136.26 150.23 C 136.40 149.38 135.81 148.58 134.96 148.45 C 134.11 148.32 133.31 148.91 133.18 149.76 Z M 133.02 150.79 L 132.88 151.81 C 132.77 152.67 133.37 153.45 134.23 153.57 C 135.08 153.68 135.87 153.08 135.98 152.23 L 136.12 151.20 C 136.23 150.35 135.63 149.56 134.77 149.45 C 133.92 149.34 133.13 149.94 133.02 150.79 Z M 132.88 151.84 L 132.77 152.79 C 132.67 153.65 133.29 154.42 134.14 154.52 C 135.00 154.62 135.78 154.00 135.87 153.15 L 135.98 152.20 C 136.08 151.34 135.47 150.57 134.61 150.47 C 133.75 150.37 132.98 150.99 132.88 151.84 Z M 132.77 152.81 L 132.67 153.79 C 132.59 154.65 133.21 155.41 134.07 155.50 C 134.93 155.58 135.69 154.96 135.78 154.10 L 135.88 153.12 C 135.96 152.27 135.34 151.50 134.48 151.41 C 133.62 151.33 132.86 151.95 132.77 152.81 Z M 132.67 153.81 L 132.58 154.81 C 132.51 155.67 133.14 156.43 134.00 156.50 C 134.86 156.58 135.62 155.94 135.69 155.08 L 135.78 154.08 C 135.86 153.22 135.22 152.46 134.36 152.39 C 133.50 152.31 132.75 152.95 132.67 153.81 Z M 132.58 154.83 L 132.50 155.86 C 132.43 156.72 133.08 157.47 133.94 157.54 C 134.80 157.60 135.55 156.96 135.61 156.10 L 135.69 155.07 C 135.76 154.21 135.12 153.46 134.26 153.39 C 133.40 153.32 132.65 153.97 132.58 154.83 Z M 132.50 155.87 L 132.43 156.89 C 132.37 157.75 133.02 158.50 133.88 158.55 C 134.74 158.61 135.49 157.96 135.55 157.10 L 135.61 156.09 C 135.67 155.23 135.02 154.48 134.16 154.42 C 133.30 154.36 132.56 155.01 132.50 155.87 Z M 132.43 156.90 L 132.37 157.90 C 132.32 158.76 132.97 159.50 133.83 159.55 C 134.69 159.61 135.43 158.95 135.49 158.09 L 135.55 157.09 C 135.60 156.23 134.94 155.49 134.08 155.44 C 133.22 155.39 132.48 156.04 132.43 156.90 Z M 132.37 157.91 L 132.31 158.92 C 132.27 159.78 132.93 160.52 133.79 160.56 C 134.65 160.61 135.39 159.95 135.43 159.09 L 135.49 158.08 C 135.53 157.22 134.87 156.48 134.01 156.44 C 133.15 156.39 132.41 157.05 132.37 157.91 Z M 132.31 158.93 L 132.27 159.94 C 132.23 160.80 132.90 161.53 133.76 161.57 C 134.62 161.61 135.35 160.94 135.39 160.08 L 135.43 159.07 C 135.47 158.21 134.81 157.48 133.94 157.44 C 133.08 157.41 132.35 158.07 132.31 158.93 Z M 132.27 159.96 L 132.23 160.95 C 132.20 161.81 132.87 162.54 133.74 162.57 C 134.60 162.60 135.32 161.93 135.35 161.06 L 135.39 160.07 C 135.42 159.21 134.75 158.48 133.88 158.45 C 133.02 158.42 132.30 159.09 132.27 159.96 Z M 132.23 160.97 L 132.20 161.99 C 132.18 162.85 132.86 163.57 133.72 163.59 C 134.59 163.61 135.30 162.93 135.33 162.07 L 135.35 161.05 C 135.38 160.19 134.70 159.47 133.83 159.45 C 132.97 159.42 132.25 160.10 132.23 160.97 Z M 132.20 162.00 L 132.19 163.03 C 132.17 163.89 132.86 164.60 133.72 164.62 C 134.58 164.63 135.29 163.94 135.31 163.08 L 135.33 162.05 C 135.34 161.19 134.65 160.48 133.79 160.47 C 132.93 160.45 132.22 161.14 132.20 162.00 Z M 132.19 163.04 L 132.18 164.04 C 132.17 164.90 132.86 165.61 133.73 165.62 C 134.59 165.62 135.29 164.93 135.30 164.07 L 135.31 163.07 C 135.32 162.21 134.62 161.50 133.76 161.49 C 132.90 161.49 132.19 162.18 132.19 163.04 Z M 132.18 164.05 L 132.18 165.03 C 132.17 165.89 132.87 166.59 133.73 166.60 C 134.59 166.60 135.29 165.90 135.30 165.04 L 135.30 164.06 C 135.30 163.20 134.61 162.50 133.74 162.49 C 132.88 162.49 132.18 163.19 132.18 164.05 Z M 132.18 165.04 L 132.17 166.00 C 132.17 166.86 132.87 167.56 133.74 167.56 C 134.60 167.56 135.30 166.86 135.30 166.00 L 135.30 165.04 C 135.30 164.17 134.60 163.48 133.74 163.48 C 132.87 163.47 132.18 164.17 132.18 165.04 Z M 132.17 166.00 L 132.18 167.04 C 132.18 167.90 132.88 168.60 133.74 168.59 C 134.60 168.59 135.30 167.89 135.30 167.03 L 135.30 166.00 C 135.30 165.13 134.59 164.44 133.73 164.44 C 132.87 164.44 132.17 165.14 132.17 166.00 Z M 132.18 167.06 L 132.19 168.07 C 132.21 168.93 132.92 169.62 133.78 169.61 C 134.64 169.59 135.33 168.88 135.32 168.02 L 135.30 167.01 C 135.29 166.14 134.57 165.46 133.71 165.47 C 132.85 165.49 132.16 166.20 132.18 167.06 Z M 132.20 168.12 L 132.24 169.11 C 132.28 169.97 133.01 170.64 133.87 170.60 C 134.73 170.56 135.40 169.83 135.36 168.97 L 135.31 167.97 C 135.28 167.11 134.55 166.45 133.68 166.49 C 132.82 166.53 132.16 167.26 132.20 168.12 Z M 132.25 169.18 L 132.33 170.14 C 132.41 171.00 133.17 171.64 134.03 171.56 C 134.89 171.48 135.52 170.72 135.44 169.86 L 135.35 168.90 C 135.28 168.04 134.52 167.40 133.66 167.48 C 132.80 167.56 132.17 168.32 132.25 169.18 Z M 132.35 170.24 L 132.50 171.26 C 132.64 172.11 133.44 172.69 134.29 172.56 C 135.14 172.43 135.72 171.63 135.59 170.78 L 135.43 169.76 C 135.30 168.91 134.50 168.33 133.65 168.46 C 132.80 168.59 132.21 169.39 132.35 170.24 Z M 132.53 171.37 L 132.75 172.36 C 132.95 173.20 133.79 173.73 134.63 173.54 C 135.47 173.34 135.99 172.50 135.80 171.66 L 135.57 170.67 C 135.37 169.83 134.54 169.30 133.70 169.50 C 132.86 169.69 132.33 170.53 132.53 171.37 Z M 132.78 172.47 L 133.07 173.42 C 133.33 174.24 134.20 174.70 135.02 174.45 C 135.85 174.20 136.31 173.33 136.06 172.50 L 135.77 171.56 C 135.52 170.73 134.64 170.27 133.82 170.52 C 132.99 170.77 132.53 171.65 132.78 172.47 Z M 133.11 173.52 L 133.45 174.41 C 133.76 175.21 134.67 175.61 135.47 175.30 C 136.28 174.99 136.68 174.09 136.37 173.28 L 136.02 172.40 C 135.71 171.59 134.81 171.19 134.00 171.50 C 133.20 171.81 132.80 172.72 133.11 173.52 Z M 133.50 174.52 L 133.91 175.37 C 134.28 176.15 135.22 176.47 135.99 176.10 C 136.77 175.73 137.10 174.79 136.72 174.02 L 136.32 173.17 C 135.94 172.39 135.01 172.07 134.23 172.44 C 133.45 172.81 133.13 173.75 133.50 174.52 Z M 133.99 175.52 L 134.49 176.32 C 134.95 177.06 135.91 177.28 136.65 176.82 C 137.38 176.37 137.60 175.40 137.14 174.67 L 136.64 173.87 C 136.18 173.13 135.22 172.91 134.49 173.37 C 133.76 173.83 133.54 174.79 133.99 175.52 Z M 134.61 176.48 L 135.25 177.27 C 135.80 177.94 136.78 178.04 137.45 177.50 C 138.12 176.95 138.22 175.97 137.67 175.30 L 137.03 174.51 C 136.48 173.84 135.50 173.74 134.83 174.29 C 134.16 174.83 134.06 175.82 134.61 176.48 Z M 135.38 177.41 L 136.14 178.14 C 136.75 178.74 137.74 178.73 138.34 178.11 C 138.94 177.49 138.93 176.50 138.31 175.90 L 137.55 175.17 C 136.93 174.57 135.94 174.58 135.34 175.20 C 134.74 175.82 134.76 176.81 135.38 177.41 Z M 136.24 178.24 L 136.96 178.83 C 137.63 179.37 138.62 179.27 139.16 178.60 C 139.70 177.93 139.60 176.94 138.93 176.40 L 138.21 175.81 C 137.54 175.27 136.55 175.37 136.01 176.04 C 135.47 176.71 135.57 177.69 136.24 178.24 Z M 137.06 178.90 L 137.88 179.46 C 138.58 179.96 139.56 179.78 140.05 179.07 C 140.54 178.36 140.37 177.39 139.66 176.90 L 138.84 176.33 C 138.13 175.84 137.16 176.01 136.67 176.72 C 136.17 177.43 136.35 178.40 137.06 178.90 Z M 137.98 179.53 L 138.87 180.05 C 139.62 180.48 140.57 180.23 141.01 179.49 C 141.44 178.74 141.19 177.79 140.44 177.35 L 139.55 176.83 C 138.81 176.40 137.85 176.65 137.42 177.40 C 136.98 178.14 137.24 179.10 137.98 179.53 Z M 139.00 180.12 L 139.94 180.56 C 140.72 180.92 141.65 180.59 142.01 179.80 C 142.38 179.02 142.04 178.09 141.26 177.73 L 140.32 177.29 C 139.54 176.92 138.61 177.26 138.24 178.04 C 137.88 178.82 138.22 179.75 139.00 180.12 Z M 140.09 180.62 L 141.08 180.96 C 141.90 181.24 142.79 180.80 143.07 179.99 C 143.35 179.17 142.91 178.28 142.10 178.00 L 141.11 177.67 C 140.29 177.39 139.40 177.82 139.12 178.64 C 138.84 179.45 139.28 180.34 140.09 180.62 Z M 141.27 181.01 L 142.32 181.23 C 143.17 181.41 143.99 180.87 144.17 180.02 C 144.35 179.18 143.81 178.35 142.96 178.17 L 141.91 177.95 C 141.07 177.78 140.24 178.32 140.06 179.16 C 139.88 180.00 140.43 180.83 141.27 181.01 Z M 142.50 181.26 L 143.54 181.35 C 144.40 181.43 145.16 180.79 145.23 179.93 C 145.31 179.08 144.68 178.32 143.82 178.24 L 142.78 178.15 C 141.92 178.07 141.16 178.70 141.09 179.56 C 141.01 180.42 141.64 181.18 142.50 181.26 Z M 143.71 181.36 L 144.70 181.34 C 145.57 181.32 146.25 180.61 146.23 179.75 C 146.22 178.89 145.51 178.20 144.64 178.22 L 143.65 178.23 C 142.79 178.25 142.10 178.96 142.12 179.82 C 142.13 180.69 142.85 181.37 143.71 181.36 Z M 144.87 181.33 L 145.79 181.21 C 146.64 181.11 147.25 180.33 147.15 179.47 C 147.04 178.62 146.26 178.01 145.41 178.11 L 144.48 178.23 C 143.63 178.33 143.02 179.11 143.12 179.97 C 143.23 180.82 144.01 181.43 144.87 181.33 Z M 145.97 181.18 L 146.93 180.95 C 147.76 180.74 148.28 179.90 148.07 179.06 C 147.87 178.22 147.02 177.71 146.19 177.91 L 145.23 178.15 C 144.39 178.35 143.88 179.19 144.08 180.03 C 144.29 180.87 145.13 181.38 145.97 181.18 Z M 147.15 180.87 L 148.10 180.49 C 148.89 180.16 149.28 179.25 148.95 178.45 C 148.62 177.65 147.71 177.27 146.91 177.60 L 145.97 177.98 C 145.17 178.31 144.79 179.22 145.11 180.02 C 145.44 180.82 146.35 181.20 147.15 180.87 Z M 148.32 180.37 L 149.14 179.87 C 149.88 179.42 150.11 178.46 149.66 177.73 C 149.21 176.99 148.25 176.76 147.51 177.21 L 146.69 177.71 C 145.96 178.16 145.72 179.12 146.17 179.86 C 146.62 180.59 147.58 180.82 148.32 180.37 Z M 149.31 179.75 L 150.05 179.15 C 150.72 178.61 150.83 177.63 150.28 176.96 C 149.74 176.29 148.76 176.18 148.09 176.72 L 147.34 177.33 C 146.67 177.87 146.57 178.85 147.11 179.52 C 147.65 180.19 148.64 180.30 149.31 179.75 Z M 150.15 179.06 L 150.84 178.41 C 151.46 177.81 151.48 176.82 150.88 176.20 C 150.28 175.58 149.29 175.56 148.67 176.16 L 147.99 176.81 C 147.37 177.41 147.35 178.40 147.94 179.02 C 148.54 179.64 149.53 179.66 150.15 179.06 Z M 150.91 178.33 L 151.57 177.60 C 152.15 176.97 152.11 175.98 151.47 175.40 C 150.83 174.82 149.85 174.86 149.26 175.50 L 148.60 176.23 C 148.02 176.87 148.06 177.85 148.70 178.43 C 149.34 179.02 150.32 178.97 150.91 178.33 Z M 151.62 177.54 L 152.28 176.75 C 152.82 176.08 152.73 175.10 152.06 174.55 C 151.39 174.00 150.41 174.10 149.86 174.77 L 149.21 175.56 C 148.66 176.23 148.76 177.21 149.43 177.76 C 150.09 178.31 151.08 178.21 151.62 177.54 Z M 152.32 176.70 L 152.93 175.89 C 153.44 175.20 153.31 174.22 152.62 173.70 C 151.93 173.18 150.95 173.32 150.43 174.01 L 149.82 174.82 C 149.30 175.51 149.44 176.49 150.13 177.00 C 150.82 177.52 151.80 177.39 152.32 176.70 Z M 152.95 175.85 L 153.50 175.07 C 154.00 174.37 153.83 173.40 153.13 172.90 C 152.42 172.40 151.45 172.57 150.95 173.27 L 150.40 174.05 C 149.91 174.75 150.07 175.73 150.78 176.23 C 151.48 176.72 152.46 176.56 152.95 175.85 Z M 153.52 175.04 L 154.07 174.22 C 154.55 173.51 154.36 172.54 153.65 172.06 C 152.93 171.58 151.96 171.77 151.48 172.49 L 150.93 173.30 C 150.45 174.02 150.64 174.99 151.36 175.47 C 152.08 175.95 153.05 175.76 153.52 175.04 Z M 154.09 174.20 L 154.65 173.33 C 155.11 172.60 154.90 171.64 154.17 171.17 C 153.45 170.71 152.48 170.92 152.02 171.65 L 151.46 172.51 C 151.00 173.24 151.21 174.20 151.93 174.67 C 152.66 175.13 153.63 174.92 154.09 174.20 Z M 154.66 173.31 L 155.21 172.41 C 155.66 171.68 155.44 170.72 154.70 170.26 C 153.97 169.81 153.01 170.04 152.55 170.77 L 152.00 171.67 C 151.55 172.40 151.78 173.37 152.51 173.82 C 153.24 174.27 154.21 174.04 154.66 173.31 Z M 155.22 172.39 L 155.73 171.56 C 156.17 170.82 155.93 169.86 155.19 169.41 C 154.45 168.97 153.49 169.21 153.05 169.95 L 152.54 170.79 C 152.10 171.53 152.34 172.49 153.08 172.93 C 153.82 173.38 154.78 173.13 155.22 172.39 Z M 155.74 171.53 L 156.24 170.67 C 156.67 169.92 156.41 168.96 155.67 168.53 C 154.92 168.10 153.97 168.36 153.53 169.11 L 153.03 169.97 C 152.60 170.72 152.86 171.68 153.61 172.11 C 154.35 172.54 155.31 172.28 155.74 171.53 Z M 156.25 170.64 L 156.74 169.75 C 157.16 169.00 156.88 168.05 156.13 167.63 C 155.37 167.21 154.42 167.49 154.01 168.24 L 153.52 169.13 C 153.10 169.89 153.38 170.84 154.13 171.25 C 154.89 171.67 155.84 171.39 156.25 170.64 Z M 156.76 169.72 L 157.23 168.82 C 157.63 168.06 157.33 167.11 156.56 166.71 C 155.80 166.32 154.85 166.61 154.46 167.38 L 153.99 168.28 C 153.59 169.04 153.89 169.99 154.66 170.38 C 155.42 170.78 156.36 170.48 156.76 169.72 Z M 157.25 168.78 L 157.69 167.87 C 158.06 167.09 157.74 166.16 156.96 165.78 C 156.18 165.41 155.25 165.73 154.88 166.51 L 154.44 167.42 C 154.06 168.20 154.39 169.13 155.16 169.51 C 155.94 169.88 156.87 169.55 157.25 168.78 Z M 157.71 167.82 L 158.12 166.89 C 158.47 166.10 158.11 165.18 157.32 164.83 C 156.54 164.49 155.61 164.84 155.26 165.63 L 154.85 166.56 C 154.50 167.35 154.86 168.27 155.65 168.62 C 156.44 168.97 157.36 168.61 157.71 167.82 Z M 158.14 166.85 L 158.52 165.93 C 158.84 165.13 158.46 164.22 157.66 163.89 C 156.86 163.56 155.95 163.95 155.62 164.75 L 155.25 165.67 C 154.92 166.47 155.30 167.38 156.10 167.71 C 156.90 168.03 157.81 167.65 158.14 166.85 Z M 158.53 165.89 L 158.88 164.97 C 159.19 164.16 158.79 163.26 157.98 162.95 C 157.18 162.64 156.27 163.05 155.97 163.85 L 155.61 164.78 C 155.30 165.58 155.71 166.49 156.51 166.79 C 157.32 167.10 158.22 166.70 158.53 165.89 Z M 158.89 164.94 L 159.23 164.02 C 159.52 163.21 159.10 162.31 158.29 162.02 C 157.48 161.72 156.59 162.14 156.29 162.95 L 155.96 163.88 C 155.66 164.69 156.08 165.58 156.89 165.88 C 157.70 166.17 158.60 165.75 158.89 164.94 Z M 159.23 164.00 L 159.56 163.06 C 159.85 162.25 159.42 161.36 158.61 161.07 C 157.79 160.79 156.90 161.22 156.62 162.03 L 156.29 162.96 C 156.00 163.78 156.43 164.67 157.24 164.96 C 158.06 165.24 158.95 164.81 159.23 164.00 Z M 159.57 163.05 L 159.89 162.11 C 160.17 161.29 159.73 160.40 158.92 160.13 C 158.10 159.85 157.21 160.28 156.93 161.10 L 156.61 162.04 C 156.33 162.86 156.77 163.75 157.59 164.02 C 158.40 164.30 159.29 163.87 159.57 163.05 Z M 159.89 162.09 L 160.21 161.14 C 160.48 160.32 160.03 159.44 159.22 159.17 C 158.40 158.90 157.51 159.35 157.24 160.16 L 156.93 161.11 C 156.66 161.93 157.10 162.82 157.92 163.09 C 158.74 163.36 159.62 162.91 159.89 162.09 Z M 160.21 161.13 L 160.52 160.17 C 160.78 159.35 160.32 158.47 159.50 158.21 C 158.68 157.95 157.80 158.40 157.54 159.22 L 157.24 160.18 C 156.98 161.00 157.43 161.88 158.25 162.14 C 159.07 162.40 159.95 161.95 160.21 161.13 Z M 160.52 160.15 L 160.82 159.19 C 161.07 158.36 160.60 157.49 159.78 157.24 C 158.95 156.99 158.08 157.46 157.83 158.28 L 157.54 159.24 C 157.29 160.07 157.75 160.94 158.58 161.19 C 159.40 161.44 160.27 160.98 160.52 160.15 Z M 160.82 159.17 L 161.10 158.20 C 161.34 157.37 160.87 156.50 160.04 156.26 C 159.21 156.02 158.34 156.50 158.10 157.33 L 157.82 158.30 C 157.58 159.13 158.06 159.99 158.89 160.23 C 159.72 160.47 160.58 160.00 160.82 159.17 Z M 161.11 158.18 L 161.38 157.21 C 161.61 156.37 161.12 155.51 160.29 155.28 C 159.46 155.05 158.60 155.54 158.37 156.37 L 158.10 157.35 C 157.87 158.18 158.36 159.04 159.19 159.27 C 160.02 159.50 160.88 159.01 161.11 158.18 Z M 161.38 157.19 L 161.64 156.22 C 161.86 155.39 161.36 154.53 160.53 154.31 C 159.70 154.09 158.84 154.59 158.62 155.42 L 158.36 156.39 C 158.14 157.22 158.64 158.08 159.47 158.30 C 160.31 158.52 161.16 158.02 161.38 157.19 Z M 161.64 156.21 L 161.89 155.25 C 162.10 154.41 161.59 153.56 160.76 153.35 C 159.92 153.14 159.07 153.64 158.86 154.48 L 158.62 155.44 C 158.40 156.27 158.91 157.12 159.74 157.33 C 160.58 157.55 161.43 157.04 161.64 156.21 Z M 161.89 155.24 L 162.13 154.26 C 162.34 153.42 161.82 152.57 160.99 152.37 C 160.15 152.16 159.30 152.67 159.10 153.51 L 158.86 154.49 C 158.65 155.33 159.16 156.18 160.00 156.38 C 160.84 156.59 161.68 156.07 161.89 155.24 Z M 162.13 154.24 L 162.37 153.24 C 162.57 152.40 162.04 151.56 161.21 151.37 C 160.37 151.17 159.53 151.69 159.33 152.53 L 159.09 153.53 C 158.90 154.37 159.42 155.21 160.26 155.40 C 161.10 155.60 161.94 155.08 162.13 154.24 Z M 162.37 153.23 L 162.59 152.25 C 162.78 151.41 162.24 150.57 161.40 150.39 C 160.56 150.20 159.73 150.73 159.54 151.57 L 159.32 152.55 C 159.14 153.39 159.67 154.22 160.51 154.41 C 161.35 154.60 162.19 154.07 162.37 153.23 Z M 162.59 152.22 L 162.79 151.27 C 162.97 150.42 162.42 149.60 161.58 149.42 C 160.73 149.25 159.91 149.79 159.73 150.64 L 159.54 151.60 C 159.36 152.44 159.91 153.27 160.75 153.44 C 161.59 153.61 162.42 153.07 162.59 152.22 Z M 162.80 151.24 L 162.98 150.27 C 163.14 149.43 162.58 148.61 161.73 148.45 C 160.88 148.29 160.07 148.85 159.91 149.70 L 159.73 150.66 C 159.57 151.51 160.13 152.33 160.98 152.49 C 161.82 152.64 162.64 152.09 162.80 151.24 Z M 162.98 150.24 L 163.15 149.25 C 163.29 148.40 162.71 147.59 161.86 147.45 C 161.01 147.31 160.21 147.89 160.07 148.74 L 159.90 149.73 C 159.76 150.58 160.34 151.39 161.19 151.53 C 162.04 151.67 162.84 151.09 162.98 150.24 Z M 163.15 149.22 L 163.30 148.24 C 163.42 147.38 162.83 146.59 161.98 146.46 C 161.13 146.34 160.34 146.93 160.21 147.78 L 160.06 148.77 C 159.94 149.62 160.53 150.41 161.38 150.54 C 162.23 150.66 163.03 150.07 163.15 149.22 Z M 163.30 148.21 L 163.43 147.23 C 163.54 146.37 162.94 145.59 162.09 145.48 C 161.23 145.36 160.45 145.96 160.34 146.82 L 160.21 147.80 C 160.09 148.66 160.69 149.44 161.55 149.55 C 162.40 149.67 163.19 149.07 163.30 148.21 Z M 163.43 147.21 L 163.55 146.24 C 163.65 145.38 163.04 144.60 162.19 144.50 C 161.33 144.40 160.55 145.01 160.45 145.86 L 160.33 146.84 C 160.23 147.69 160.84 148.47 161.70 148.57 C 162.55 148.68 163.33 148.07 163.43 147.21 Z M 163.55 146.22 L 163.66 145.27 C 163.75 144.41 163.13 143.64 162.27 143.54 C 161.42 143.45 160.65 144.07 160.55 144.93 L 160.45 145.88 C 160.36 146.74 160.97 147.51 161.83 147.60 C 162.69 147.70 163.46 147.08 163.55 146.22 Z M 163.66 145.24 L 163.75 144.26 C 163.83 143.40 163.20 142.64 162.34 142.56 C 161.48 142.48 160.72 143.11 160.64 143.97 L 160.55 144.95 C 160.47 145.81 161.10 146.57 161.96 146.65 C 162.82 146.73 163.58 146.10 163.66 145.24 Z M 163.75 144.23 L 163.83 143.21 C 163.89 142.35 163.24 141.60 162.38 141.54 C 161.52 141.48 160.78 142.12 160.71 142.98 L 160.64 144.00 C 160.58 144.86 161.22 145.61 162.08 145.67 C 162.94 145.74 163.69 145.09 163.75 144.23 Z M 163.83 143.18 L 163.88 142.13 C 163.93 141.27 163.26 140.54 162.40 140.49 C 161.54 140.45 160.81 141.11 160.76 141.97 L 160.71 143.02 C 160.67 143.88 161.33 144.61 162.19 144.66 C 163.05 144.70 163.78 144.04 163.83 143.18 Z M 163.88 142.09 L 163.91 141.09 C 163.93 140.23 163.25 139.51 162.39 139.49 C 161.53 139.47 160.81 140.15 160.79 141.01 L 160.76 142.01 C 160.74 142.87 161.42 143.59 162.28 143.61 C 163.15 143.64 163.86 142.95 163.88 142.09 Z M 163.91 141.04 L 163.90 140.02 C 163.89 139.16 163.19 138.47 162.32 138.47 C 161.46 138.48 160.77 139.19 160.78 140.05 L 160.79 141.07 C 160.80 141.93 161.50 142.62 162.36 142.61 C 163.23 142.61 163.92 141.90 163.91 141.04 Z M 163.90 139.94 L 163.84 138.93 C 163.78 138.07 163.05 137.41 162.18 137.47 C 161.32 137.52 160.67 138.26 160.72 139.12 L 160.78 140.13 C 160.83 140.99 161.57 141.65 162.43 141.59 C 163.29 141.54 163.95 140.80 163.90 139.94 Z M 163.83 138.82 L 163.70 137.84 C 163.59 136.99 162.81 136.38 161.95 136.49 C 161.10 136.60 160.49 137.39 160.60 138.24 L 160.73 139.22 C 160.84 140.08 161.62 140.68 162.48 140.57 C 163.33 140.46 163.94 139.68 163.83 138.82 Z M 163.67 137.70 L 163.45 136.70 C 163.26 135.86 162.42 135.33 161.58 135.52 C 160.74 135.71 160.21 136.55 160.40 137.39 L 160.63 138.39 C 160.82 139.23 161.66 139.76 162.50 139.57 C 163.34 139.37 163.87 138.54 163.67 137.70 Z M 163.39 136.51 L 163.04 135.54 C 162.75 134.73 161.86 134.31 161.04 134.61 C 160.23 134.90 159.81 135.79 160.11 136.61 L 160.46 137.57 C 160.75 138.39 161.65 138.81 162.46 138.51 C 163.27 138.22 163.69 137.32 163.39 136.51 Z M 162.95 135.34 L 162.49 134.47 C 162.08 133.71 161.14 133.42 160.38 133.83 C 159.62 134.23 159.33 135.18 159.73 135.94 L 160.20 136.81 C 160.60 137.57 161.55 137.86 162.31 137.45 C 163.07 137.05 163.36 136.10 162.95 135.34 Z M 162.36 134.26 L 161.78 133.50 C 161.26 132.81 160.28 132.67 159.59 133.19 C 158.90 133.71 158.77 134.69 159.29 135.38 L 159.87 136.14 C 160.39 136.83 161.36 136.97 162.05 136.45 C 162.74 135.93 162.88 134.95 162.36 134.26 Z M 161.61 133.30 L 160.91 132.65 C 160.29 132.06 159.30 132.08 158.71 132.71 C 158.11 133.34 158.14 134.32 158.77 134.92 L 159.46 135.57 C 160.09 136.16 161.07 136.14 161.67 135.51 C 162.26 134.88 162.23 133.90 161.61 133.30 Z M 160.72 132.49 L 159.92 131.95 C 159.20 131.47 158.23 131.65 157.75 132.37 C 157.26 133.08 157.45 134.05 158.16 134.53 L 158.96 135.08 C 159.68 135.56 160.65 135.37 161.13 134.66 C 161.62 133.95 161.43 132.97 160.72 132.49 Z M 159.72 131.83 L 158.82 131.40 C 158.05 131.03 157.11 131.36 156.74 132.13 C 156.37 132.91 156.69 133.84 157.47 134.22 L 158.36 134.65 C 159.14 135.02 160.07 134.70 160.45 133.92 C 160.82 133.14 160.50 132.21 159.72 131.83 Z M 158.63 131.33 L 157.66 131.01 C 156.84 130.74 155.95 131.18 155.68 132.00 C 155.42 132.82 155.86 133.70 156.68 133.97 L 157.66 134.29 C 158.48 134.56 159.36 134.12 159.63 133.30 C 159.90 132.48 159.45 131.60 158.63 131.33 Z M 157.49 130.96 L 156.51 130.76 C 155.67 130.58 154.84 131.12 154.67 131.97 C 154.49 132.81 155.03 133.64 155.87 133.81 L 156.85 134.02 C 157.69 134.19 158.52 133.65 158.70 132.81 C 158.87 131.96 158.33 131.14 157.49 130.96 Z M 156.36 130.73 L 155.41 130.63 C 154.56 130.54 153.79 131.16 153.70 132.02 C 153.61 132.88 154.23 133.65 155.09 133.74 L 156.03 133.84 C 156.89 133.93 157.66 133.31 157.75 132.45 C 157.84 131.59 157.22 130.82 156.36 130.73 Z M 155.26 130.62 L 154.28 130.62 C 153.41 130.62 152.71 131.31 152.71 132.18 C 152.70 133.04 153.40 133.74 154.26 133.74 L 155.24 133.75 C 156.11 133.75 156.81 133.05 156.81 132.19 C 156.81 131.33 156.12 130.63 155.26 130.62 Z M 154.11 130.63 L 153.09 130.73 C 152.24 130.82 151.61 131.59 151.70 132.45 C 151.79 133.31 152.56 133.93 153.42 133.84 L 154.43 133.73 C 155.29 133.65 155.91 132.88 155.82 132.02 C 155.73 131.16 154.97 130.54 154.11 130.63 Z M 152.92 130.76 L 151.88 130.99 C 151.04 131.17 150.51 132.00 150.69 132.85 C 150.88 133.69 151.71 134.22 152.55 134.04 L 153.59 133.81 C 154.43 133.63 154.97 132.80 154.78 131.95 C 154.60 131.11 153.77 130.58 152.92 130.76 Z M 151.72 131.03 L 150.75 131.36 C 149.93 131.63 149.49 132.51 149.76 133.33 C 150.03 134.15 150.92 134.59 151.74 134.32 L 152.71 133.99 C 153.53 133.72 153.97 132.84 153.70 132.02 C 153.43 131.20 152.54 130.76 151.72 131.03 Z M 150.63 131.40 L 149.68 131.81 C 148.89 132.15 148.52 133.07 148.86 133.86 C 149.20 134.65 150.12 135.02 150.91 134.68 L 151.86 134.27 C 152.65 133.93 153.02 133.01 152.68 132.22 C 152.34 131.43 151.42 131.06 150.63 131.40 Z M 149.59 131.85 L 148.67 132.32 C 147.90 132.71 147.59 133.65 147.98 134.42 C 148.37 135.19 149.30 135.49 150.07 135.11 L 151.00 134.64 C 151.77 134.25 152.08 133.31 151.69 132.54 C 151.30 131.77 150.36 131.46 149.59 131.85 Z M 148.60 132.35 L 147.72 132.85 C 146.97 133.28 146.71 134.23 147.13 134.98 C 147.56 135.73 148.51 136.00 149.26 135.57 L 150.14 135.07 C 150.89 134.65 151.15 133.69 150.73 132.94 C 150.30 132.19 149.35 131.93 148.60 132.35 Z M 147.67 132.88 L 146.85 133.39 C 146.12 133.84 145.89 134.80 146.34 135.53 C 146.80 136.27 147.76 136.50 148.49 136.04 L 149.31 135.54 C 150.04 135.09 150.27 134.13 149.82 133.39 C 149.37 132.66 148.40 132.43 147.67 132.88 Z M 146.81 133.41 L 145.99 133.95 C 145.27 134.43 145.07 135.39 145.55 136.11 C 146.02 136.83 146.99 137.03 147.71 136.56 L 148.53 136.02 C 149.25 135.55 149.45 134.58 148.98 133.86 C 148.50 133.14 147.53 132.94 146.81 133.41 Z M 145.95 133.98 L 145.15 134.55 C 144.44 135.05 144.28 136.03 144.78 136.73 C 145.28 137.43 146.25 137.60 146.95 137.10 L 147.75 136.53 C 148.46 136.03 148.62 135.05 148.12 134.35 C 147.62 133.65 146.65 133.48 145.95 133.98 Z M 145.09 134.60 L 144.34 135.18 C 143.66 135.71 143.55 136.69 144.08 137.37 C 144.61 138.05 145.59 138.17 146.27 137.64 L 147.01 137.05 C 147.69 136.52 147.81 135.54 147.28 134.86 C 146.75 134.18 145.76 134.06 145.09 134.60 Z M 144.29 135.23 L 143.54 135.87 C 142.89 136.44 142.82 137.42 143.38 138.08 C 143.94 138.73 144.93 138.80 145.58 138.23 L 146.33 137.59 C 146.98 137.02 147.05 136.04 146.49 135.39 C 145.92 134.73 144.94 134.66 144.29 135.23 Z M 143.50 135.91 L 142.77 136.59 C 142.13 137.18 142.10 138.17 142.69 138.80 C 143.27 139.43 144.26 139.46 144.89 138.88 L 145.62 138.20 C 146.26 137.61 146.29 136.62 145.70 135.99 C 145.12 135.36 144.13 135.32 143.50 135.91 Z M 142.74 136.61 L 142.10 137.24 C 141.48 137.84 141.47 138.82 142.07 139.44 C 142.67 140.06 143.66 140.08 144.28 139.48 L 144.92 138.85 C 145.54 138.25 145.55 137.27 144.95 136.65 C 144.35 136.03 143.36 136.01 142.74 136.61 Z M 142.09 137.25 L 141.40 137.93 C 140.79 138.54 140.79 139.53 141.40 140.14 C 142.01 140.75 142.99 140.75 143.61 140.14 L 144.29 139.46 C 144.90 138.85 144.90 137.87 144.30 137.25 C 143.69 136.64 142.70 136.64 142.09 137.25 Z M 141.39 137.94 L 140.68 138.66 C 140.07 139.28 140.08 140.26 140.69 140.87 C 141.30 141.48 142.29 141.47 142.90 140.86 L 143.62 140.13 C 144.22 139.52 144.22 138.53 143.60 137.93 C 142.99 137.32 142.00 137.33 141.39 137.94 Z M 140.67 138.67 L 139.93 139.43 C 139.33 140.04 139.34 141.03 139.96 141.63 C 140.57 142.24 141.56 142.23 142.16 141.61 L 142.90 140.85 C 143.51 140.24 143.50 139.25 142.88 138.64 C 142.26 138.04 141.28 138.05 140.67 138.67 Z M 139.93 139.43 L 139.17 140.21 C 138.57 140.82 138.59 141.81 139.21 142.41 C 139.82 143.01 140.81 143.00 141.41 142.38 L 142.17 141.61 C 142.77 140.99 142.75 140.00 142.14 139.40 C 141.52 138.80 140.53 138.81 139.93 139.43 Z M 139.17 140.21 L 138.85 140.54 C 138.25 141.16 138.26 142.15 138.88 142.75 C 139.50 143.35 140.49 143.33 141.09 142.72 L 141.41 142.38 C 142.01 141.76 142.00 140.77 141.38 140.17 C 140.76 139.57 139.77 139.59 139.17 140.21 Z"
      fill="black"
      fill-rule="nonzero" /></svg>