<svg xmlns="http://www.w3.org/2000/svg" width="300" height="300" viewBox="0 0 300 300">
<path d="M 152.34 139.80 L 151.26 139.78 C 150.40 139.76 149.68 140.44 149.66 141.30 C 149.64 142.17 150.32 142.88 151.19 142.90 L 152.27 142.92 C 153.13 142.94 153.84 142.26 153.86 141.40 C 153.88 140.54 153.20 139.82 152.34 139.80 Z M 151.19 139.78 L 150.15 139.80 C 149.29 139.81 148.60 140.53 148.62 141.39 C 148.63 142.25 149.35 142.94 150.21 142.92 L 151.25 142.90 C 152.11 142.88 152.80 142.17 152.78 141.31 C 152.77 140.45 152.05 139.76 151.19 139.78 Z M 150.00 139.81 L 149.03 139.92 C 148.17 140.01 147.56 140.78 147.65 141.64 C 147.75 142.50 148.52 143.11 149.38 143.02 L 150.35 142.91 C 151.21 142.81 151.82 142.04 151.73 141.19 C 151.63 140.33 150.86 139.71 150.00 139.81 Z M 148.78 139.96 L 147.91 140.21 C 147.08 140.44 146.60 141.30 146.83 142.13 C 147.06 142.96 147.92 143.45 148.75 143.21 L 149.62 142.97 C 150.45 142.74 150.94 141.88 150.71 141.05 C 150.47 140.22 149.61 139.73 148.78 139.96 Z M 147.54 140.36 L 146.69 140.87 C 145.95 141.30 145.70 142.26 146.14 143.00 C 146.58 143.75 147.53 143.99 148.28 143.56 L 149.13 143.05 C 149.87 142.62 150.12 141.66 149.68 140.92 C 149.24 140.17 148.28 139.93 147.54 140.36 Z M 146.36 141.12 L 145.67 141.83 C 145.07 142.45 145.08 143.44 145.70 144.04 C 146.32 144.64 147.31 144.63 147.91 144.01 L 148.60 143.30 C 149.20 142.68 149.19 141.69 148.57 141.09 C 147.95 140.49 146.97 140.50 146.36 141.12 Z M 145.49 142.07 L 144.94 142.90 C 144.47 143.62 144.67 144.59 145.39 145.06 C 146.11 145.53 147.08 145.33 147.55 144.61 L 148.10 143.78 C 148.57 143.06 148.37 142.09 147.65 141.62 C 146.93 141.15 145.96 141.35 145.49 142.07 Z M 144.85 143.06 L 144.41 143.94 C 144.02 144.71 144.34 145.65 145.11 146.03 C 145.88 146.42 146.82 146.10 147.20 145.33 L 147.64 144.45 C 148.03 143.68 147.71 142.74 146.94 142.36 C 146.17 141.97 145.23 142.29 144.85 143.06 Z M 144.36 144.05 L 143.99 144.96 C 143.67 145.76 144.06 146.67 144.86 146.99 C 145.66 147.31 146.57 146.92 146.89 146.13 L 147.25 145.22 C 147.58 144.42 147.19 143.51 146.39 143.19 C 145.59 142.87 144.68 143.25 144.36 144.05 Z M 143.96 145.05 L 143.65 145.99 C 143.38 146.81 143.82 147.69 144.64 147.96 C 145.46 148.23 146.34 147.79 146.61 146.97 L 146.92 146.03 C 147.19 145.21 146.75 144.33 145.93 144.06 C 145.11 143.79 144.23 144.23 143.96 145.05 Z M 143.63 146.06 L 143.35 147.04 C 143.12 147.87 143.60 148.73 144.43 148.97 C 145.26 149.20 146.12 148.72 146.35 147.89 L 146.63 146.90 C 146.87 146.07 146.38 145.21 145.55 144.98 C 144.72 144.74 143.86 145.23 143.63 146.06 Z M 143.34 147.08 L 143.11 147.95 C 142.90 148.79 143.40 149.64 144.24 149.85 C 145.07 150.07 145.92 149.57 146.14 148.73 L 146.36 147.86 C 146.58 147.02 146.08 146.17 145.24 145.95 C 144.41 145.74 143.56 146.24 143.34 147.08 Z M 143.11 147.98 L 142.88 148.92 C 142.68 149.75 143.19 150.60 144.03 150.80 C 144.87 151.00 145.71 150.49 145.92 149.65 L 146.14 148.71 C 146.35 147.87 145.83 147.03 144.99 146.83 C 144.16 146.62 143.31 147.14 143.11 147.98 Z M 142.88 148.93 L 142.64 149.94 C 142.45 150.78 142.97 151.62 143.82 151.81 C 144.66 152.01 145.49 151.48 145.69 150.64 L 145.92 149.63 C 146.11 148.79 145.59 147.96 144.75 147.76 C 143.91 147.57 143.07 148.09 142.88 148.93 Z M 142.64 149.96 L 142.40 151.03 C 142.22 151.87 142.75 152.71 143.59 152.89 C 144.43 153.08 145.27 152.55 145.45 151.71 L 145.69 150.63 C 145.88 149.79 145.34 148.95 144.50 148.77 C 143.66 148.58 142.83 149.11 142.64 149.96 Z M 142.40 151.04 L 142.20 151.96 C 142.02 152.80 142.56 153.63 143.40 153.81 C 144.25 153.99 145.08 153.46 145.26 152.61 L 145.45 151.70 C 145.63 150.85 145.10 150.02 144.25 149.84 C 143.41 149.66 142.58 150.20 142.40 151.04 Z M 142.20 151.97 L 142.01 152.92 C 141.83 153.77 142.38 154.59 143.22 154.77 C 144.07 154.94 144.89 154.40 145.07 153.55 L 145.26 152.60 C 145.43 151.75 144.89 150.93 144.05 150.76 C 143.20 150.58 142.38 151.13 142.20 151.97 Z M 142.00 152.94 L 141.81 153.93 C 141.65 154.77 142.20 155.59 143.05 155.76 C 143.89 155.92 144.71 155.37 144.88 154.52 L 145.07 153.53 C 145.23 152.69 144.68 151.87 143.83 151.71 C 142.99 151.54 142.17 152.09 142.00 152.94 Z M 141.81 153.95 L 141.63 154.96 C 141.48 155.81 142.04 156.62 142.89 156.78 C 143.74 156.93 144.55 156.36 144.70 155.51 L 144.88 154.50 C 145.03 153.65 144.47 152.84 143.62 152.69 C 142.77 152.54 141.96 153.10 141.81 153.95 Z M 141.62 154.99 L 141.46 156.03 C 141.32 156.88 141.90 157.68 142.75 157.82 C 143.60 157.95 144.40 157.37 144.54 156.52 L 144.70 155.49 C 144.84 154.64 144.26 153.83 143.41 153.70 C 142.56 153.56 141.76 154.14 141.62 154.99 Z M 141.45 156.06 L 141.31 157.03 C 141.19 157.89 141.79 158.68 142.64 158.80 C 143.49 158.92 144.28 158.33 144.40 157.47 L 144.54 156.49 C 144.66 155.64 144.07 154.85 143.22 154.73 C 142.36 154.61 141.57 155.20 141.45 156.06 Z M 141.31 157.06 L 141.19 158.04 C 141.08 158.90 141.69 159.68 142.54 159.78 C 143.40 159.89 144.18 159.28 144.29 158.42 L 144.41 157.45 C 144.51 156.59 143.91 155.81 143.05 155.70 C 142.20 155.60 141.42 156.21 141.31 157.06 Z M 141.18 158.06 L 141.08 159.05 C 140.98 159.91 141.60 160.68 142.46 160.77 C 143.31 160.87 144.09 160.25 144.18 159.39 L 144.29 158.40 C 144.38 157.55 143.76 156.77 142.91 156.68 C 142.05 156.59 141.28 157.20 141.18 158.06 Z M 141.07 159.07 L 140.98 160.07 C 140.89 160.93 141.52 161.69 142.38 161.78 C 143.24 161.86 144.00 161.23 144.08 160.38 L 144.18 159.38 C 144.27 158.52 143.64 157.75 142.78 157.67 C 141.92 157.58 141.16 158.21 141.07 159.07 Z M 140.97 160.08 L 140.88 161.10 C 140.81 161.95 141.44 162.71 142.30 162.79 C 143.16 162.87 143.92 162.23 143.99 161.37 L 144.08 160.36 C 144.16 159.50 143.53 158.75 142.67 158.67 C 141.81 158.59 141.05 159.23 140.97 160.08 Z M 140.88 161.11 L 140.80 162.12 C 140.73 162.98 141.37 163.73 142.23 163.80 C 143.09 163.87 143.84 163.23 143.91 162.37 L 144.00 161.36 C 144.07 160.50 143.43 159.75 142.57 159.68 C 141.71 159.61 140.95 160.25 140.88 161.11 Z M 140.80 162.12 L 140.72 163.12 C 140.66 163.98 141.30 164.73 142.16 164.80 C 143.02 164.86 143.77 164.22 143.84 163.36 L 143.91 162.37 C 143.98 161.51 143.34 160.76 142.48 160.69 C 141.62 160.62 140.87 161.27 140.80 162.12 Z M 140.72 163.13 L 140.65 164.13 C 140.59 164.99 141.23 165.74 142.09 165.80 C 142.95 165.86 143.70 165.21 143.76 164.35 L 143.84 163.35 C 143.90 162.49 143.25 161.75 142.39 161.68 C 141.53 161.62 140.78 162.27 140.72 163.13 Z M 140.65 164.14 L 140.58 165.14 C 140.52 166.00 141.18 166.74 142.04 166.80 C 142.90 166.86 143.64 166.21 143.70 165.35 L 143.76 164.34 C 143.82 163.48 143.17 162.74 142.31 162.68 C 141.45 162.63 140.71 163.28 140.65 164.14 Z M 140.58 165.15 L 140.52 166.15 C 140.47 167.01 141.12 167.75 141.98 167.80 C 142.85 167.85 143.59 167.20 143.64 166.34 L 143.70 165.34 C 143.75 164.48 143.09 163.74 142.23 163.68 C 141.37 163.63 140.63 164.29 140.58 165.15 Z M 140.52 166.16 L 140.47 167.16 C 140.42 168.02 141.08 168.75 141.94 168.80 C 142.80 168.84 143.54 168.18 143.58 167.32 L 143.64 166.33 C 143.68 165.47 143.02 164.73 142.16 164.68 C 141.30 164.64 140.57 165.30 140.52 166.16 Z M 140.47 167.17 L 140.42 168.18 C 140.38 169.05 141.05 169.78 141.91 169.82 C 142.77 169.86 143.50 169.19 143.54 168.33 L 143.59 167.31 C 143.63 166.45 142.96 165.72 142.10 165.68 C 141.24 165.64 140.51 166.31 140.47 167.17 Z M 140.42 168.20 L 140.38 169.23 C 140.35 170.09 141.02 170.82 141.88 170.85 C 142.74 170.88 143.47 170.21 143.50 169.35 L 143.54 168.32 C 143.57 167.46 142.90 166.73 142.04 166.70 C 141.18 166.66 140.45 167.33 140.42 168.20 Z M 140.38 169.24 L 140.35 170.26 C 140.32 171.12 140.99 171.84 141.86 171.87 C 142.72 171.89 143.44 171.22 143.47 170.36 L 143.50 169.34 C 143.53 168.48 142.85 167.76 141.99 167.73 C 141.13 167.70 140.41 168.38 140.38 169.24 Z M 140.35 170.27 L 140.32 171.27 C 140.30 172.13 140.98 172.84 141.84 172.87 C 142.70 172.89 143.42 172.21 143.44 171.35 L 143.47 170.35 C 143.49 169.49 142.81 168.77 141.95 168.75 C 141.08 168.72 140.37 169.41 140.35 170.27 Z M 140.32 171.27 L 140.30 172.25 C 140.28 173.11 140.97 173.82 141.83 173.84 C 142.69 173.86 143.41 173.17 143.42 172.31 L 143.44 171.34 C 143.46 170.47 142.77 169.76 141.91 169.74 C 141.05 169.73 140.34 170.41 140.32 171.27 Z M 140.30 172.26 L 140.29 173.21 C 140.27 174.08 140.96 174.79 141.82 174.80 C 142.69 174.81 143.40 174.12 143.41 173.26 L 143.42 172.30 C 143.44 171.44 142.75 170.73 141.88 170.72 C 141.02 170.71 140.31 171.40 140.30 172.26 Z M 140.29 173.22 L 140.27 174.30 C 140.27 175.17 140.96 175.87 141.82 175.88 C 142.68 175.89 143.39 175.20 143.40 174.34 L 143.41 173.25 C 143.42 172.39 142.72 171.69 141.86 171.68 C 141.00 171.67 140.29 172.36 140.29 173.22 Z M 140.27 174.31 L 140.27 175.35 C 140.27 176.21 140.96 176.91 141.82 176.92 C 142.69 176.92 143.39 176.22 143.39 175.36 L 143.40 174.33 C 143.40 173.46 142.71 172.76 141.84 172.76 C 140.98 172.75 140.28 173.45 140.27 174.31 Z M 140.27 175.36 L 140.27 176.35 C 140.27 177.21 140.97 177.91 141.84 177.91 C 142.70 177.90 143.40 177.20 143.39 176.34 L 143.39 175.35 C 143.39 174.49 142.69 173.79 141.83 173.79 C 140.97 173.80 140.27 174.50 140.27 175.36 Z M 140.27 176.36 L 140.28 177.30 C 140.29 178.16 140.99 178.86 141.85 178.85 C 142.72 178.84 143.41 178.14 143.40 177.27 L 143.39 176.33 C 143.39 175.47 142.68 174.78 141.82 174.78 C 140.96 174.79 140.26 175.50 140.27 176.36 Z M 140.28 177.31 L 140.30 178.28 C 140.31 179.14 141.02 179.83 141.88 179.81 C 142.74 179.80 143.43 179.09 143.42 178.23 L 143.40 177.26 C 143.39 176.40 142.68 175.71 141.81 175.73 C 140.95 175.74 140.27 176.45 140.28 177.31 Z M 140.30 178.33 L 140.35 179.34 C 140.39 180.20 141.12 180.86 141.98 180.82 C 142.84 180.78 143.51 180.05 143.47 179.18 L 143.42 178.18 C 143.37 177.32 142.64 176.65 141.78 176.69 C 140.92 176.74 140.26 177.47 140.30 178.33 Z M 140.36 179.47 L 140.49 180.44 C 140.61 181.29 141.39 181.89 142.25 181.77 C 143.10 181.66 143.70 180.87 143.58 180.02 L 143.45 179.05 C 143.34 178.20 142.55 177.60 141.70 177.71 C 140.84 177.83 140.24 178.62 140.36 179.47 Z M 140.53 180.64 L 140.79 181.59 C 141.02 182.42 141.89 182.91 142.72 182.68 C 143.55 182.45 144.03 181.59 143.80 180.75 L 143.54 179.81 C 143.31 178.98 142.45 178.49 141.62 178.72 C 140.79 178.95 140.30 179.81 140.53 180.64 Z M 140.88 181.83 L 141.29 182.71 C 141.65 183.50 142.58 183.84 143.37 183.48 C 144.15 183.11 144.49 182.19 144.13 181.40 L 143.72 180.52 C 143.35 179.73 142.43 179.39 141.64 179.76 C 140.86 180.12 140.52 181.05 140.88 181.83 Z M 141.41 182.92 L 141.96 183.75 C 142.44 184.46 143.40 184.66 144.12 184.18 C 144.84 183.70 145.03 182.73 144.56 182.02 L 144.01 181.19 C 143.53 180.48 142.56 180.28 141.84 180.76 C 141.13 181.24 140.93 182.21 141.41 182.92 Z M 142.10 183.93 L 142.79 184.68 C 143.37 185.32 144.35 185.36 144.99 184.78 C 145.63 184.20 145.67 183.21 145.09 182.58 L 144.41 181.83 C 143.83 181.19 142.84 181.15 142.20 181.73 C 141.57 182.31 141.52 183.30 142.10 183.93 Z M 142.98 184.86 L 143.78 185.48 C 144.46 186.02 145.44 185.89 145.97 185.22 C 146.50 184.54 146.38 183.55 145.70 183.02 L 144.90 182.40 C 144.22 181.87 143.24 181.99 142.71 182.67 C 142.18 183.35 142.30 184.33 142.98 184.86 Z M 144.04 185.65 L 144.94 186.10 C 145.72 186.49 146.65 186.17 147.04 185.40 C 147.42 184.63 147.11 183.69 146.34 183.31 L 145.44 182.86 C 144.67 182.47 143.73 182.79 143.34 183.56 C 142.96 184.33 143.27 185.27 144.04 185.65 Z M 145.26 186.22 L 146.25 186.47 C 147.08 186.68 147.93 186.17 148.14 185.34 C 148.35 184.50 147.85 183.65 147.01 183.44 L 146.02 183.19 C 145.19 182.98 144.34 183.49 144.13 184.32 C 143.92 185.16 144.42 186.01 145.26 186.22 Z M 146.53 186.51 L 147.55 186.57 C 148.41 186.63 149.15 185.97 149.20 185.11 C 149.25 184.25 148.60 183.51 147.74 183.46 L 146.72 183.40 C 145.86 183.34 145.12 184.00 145.07 184.86 C 145.02 185.72 145.67 186.46 146.53 186.51 Z M 147.80 186.57 L 148.79 186.47 C 149.65 186.38 150.28 185.62 150.19 184.76 C 150.10 183.90 149.34 183.27 148.48 183.36 L 147.48 183.46 C 146.63 183.55 146.00 184.32 146.09 185.17 C 146.18 186.03 146.94 186.66 147.80 186.57 Z M 149.02 186.43 L 149.95 186.19 C 150.78 185.98 151.29 185.13 151.07 184.29 C 150.86 183.46 150.01 182.95 149.17 183.17 L 148.25 183.40 C 147.41 183.62 146.91 184.47 147.12 185.30 C 147.34 186.14 148.19 186.64 149.02 186.43 Z M 150.19 186.11 L 151.12 185.70 C 151.91 185.35 152.27 184.43 151.92 183.64 C 151.57 182.85 150.65 182.49 149.86 182.84 L 148.93 183.25 C 148.14 183.59 147.78 184.52 148.13 185.30 C 148.48 186.09 149.40 186.45 150.19 186.11 Z M 151.34 185.58 L 152.16 185.05 C 152.88 184.58 153.09 183.61 152.62 182.89 C 152.15 182.17 151.19 181.96 150.46 182.43 L 149.64 182.96 C 148.92 183.43 148.71 184.40 149.18 185.12 C 149.65 185.84 150.62 186.05 151.34 185.58 Z M 152.32 184.93 L 153.07 184.30 C 153.73 183.74 153.82 182.76 153.26 182.10 C 152.71 181.44 151.72 181.35 151.06 181.91 L 150.31 182.54 C 149.65 183.10 149.56 184.08 150.12 184.74 C 150.67 185.40 151.66 185.49 152.32 184.93 Z M 153.16 184.22 L 153.86 183.53 C 154.48 182.93 154.49 181.94 153.89 181.33 C 153.29 180.71 152.30 180.70 151.68 181.30 L 150.98 181.99 C 150.36 182.59 150.35 183.58 150.95 184.19 C 151.55 184.81 152.54 184.82 153.16 184.22 Z M 153.90 183.49 L 154.54 182.82 C 155.13 182.19 155.11 181.21 154.48 180.61 C 153.86 180.02 152.87 180.04 152.28 180.67 L 151.64 181.34 C 151.05 181.97 151.07 182.95 151.70 183.55 C 152.32 184.14 153.31 184.12 153.90 183.49 Z M 154.57 182.79 L 155.22 182.06 C 155.80 181.42 155.75 180.43 155.10 179.86 C 154.46 179.28 153.48 179.33 152.90 179.98 L 152.25 180.70 C 151.67 181.34 151.72 182.33 152.37 182.91 C 153.01 183.48 153.99 183.43 154.57 182.79 Z M 155.25 182.03 L 155.92 181.25 C 156.48 180.59 156.40 179.61 155.75 179.05 C 155.09 178.49 154.11 178.57 153.55 179.22 L 152.87 180.00 C 152.31 180.66 152.39 181.64 153.05 182.20 C 153.70 182.77 154.69 182.69 155.25 182.03 Z M 155.94 181.23 L 156.63 180.38 C 157.18 179.72 157.08 178.73 156.42 178.18 C 155.75 177.64 154.77 177.73 154.22 178.40 L 153.53 179.24 C 152.98 179.91 153.07 180.89 153.74 181.44 C 154.41 181.99 155.39 181.89 155.94 181.23 Z M 156.65 180.36 L 157.24 179.62 C 157.77 178.95 157.66 177.97 156.99 177.43 C 156.31 176.89 155.33 177.00 154.79 177.68 L 154.20 178.42 C 153.67 179.09 153.78 180.08 154.45 180.61 C 155.13 181.15 156.11 181.04 156.65 180.36 Z M 157.25 179.60 L 157.85 178.83 C 158.38 178.15 158.25 177.17 157.57 176.64 C 156.88 176.11 155.90 176.24 155.38 176.92 L 154.78 177.70 C 154.25 178.38 154.38 179.36 155.06 179.89 C 155.74 180.41 156.72 180.29 157.25 179.60 Z M 157.87 178.81 L 158.47 178.00 C 158.98 177.31 158.84 176.33 158.15 175.82 C 157.45 175.30 156.48 175.44 155.96 176.14 L 155.36 176.94 C 154.85 177.63 154.99 178.61 155.68 179.13 C 156.37 179.64 157.35 179.50 157.87 178.81 Z M 158.48 177.97 L 159.08 177.14 C 159.58 176.44 159.42 175.46 158.72 174.96 C 158.02 174.46 157.04 174.62 156.54 175.33 L 155.94 176.16 C 155.44 176.86 155.60 177.84 156.31 178.34 C 157.01 178.84 157.98 178.68 158.48 177.97 Z M 159.10 177.11 L 159.68 176.26 C 160.17 175.54 159.98 174.57 159.27 174.09 C 158.56 173.60 157.59 173.79 157.10 174.50 L 156.52 175.35 C 156.03 176.07 156.22 177.04 156.93 177.52 C 157.64 178.01 158.61 177.82 159.10 177.11 Z M 159.70 176.22 L 160.25 175.38 C 160.72 174.66 160.51 173.69 159.78 173.22 C 159.06 172.75 158.09 172.96 157.62 173.69 L 157.08 174.53 C 156.61 175.26 156.82 176.22 157.55 176.69 C 158.27 177.16 159.24 176.95 159.70 176.22 Z M 160.27 175.35 L 160.79 174.50 C 161.24 173.77 161.01 172.81 160.27 172.36 C 159.54 171.91 158.58 172.14 158.12 172.87 L 157.61 173.72 C 157.15 174.45 157.39 175.41 158.12 175.86 C 158.86 176.32 159.82 176.09 160.27 175.35 Z M 160.80 174.48 L 161.31 173.62 C 161.74 172.88 161.50 171.92 160.75 171.49 C 160.01 171.05 159.05 171.30 158.61 172.04 L 158.11 172.90 C 157.67 173.64 157.92 174.60 158.66 175.03 C 159.41 175.47 160.36 175.22 160.80 174.48 Z M 161.32 173.61 L 161.81 172.74 C 162.24 171.99 161.98 171.03 161.23 170.61 C 160.48 170.18 159.53 170.44 159.10 171.19 L 158.60 172.06 C 158.18 172.81 158.44 173.76 159.19 174.19 C 159.93 174.61 160.89 174.35 161.32 173.61 Z M 161.82 172.72 L 162.31 171.85 C 162.73 171.09 162.46 170.14 161.71 169.72 C 160.96 169.30 160.01 169.57 159.59 170.32 L 159.09 171.20 C 158.67 171.95 158.94 172.90 159.69 173.32 C 160.45 173.75 161.40 173.48 161.82 172.72 Z M 162.31 171.84 L 162.80 170.96 C 163.22 170.20 162.95 169.25 162.19 168.84 C 161.44 168.42 160.49 168.69 160.07 169.44 L 159.58 170.33 C 159.16 171.08 159.44 172.03 160.19 172.45 C 160.94 172.87 161.90 172.59 162.31 171.84 Z M 162.80 170.96 L 163.28 170.09 C 163.70 169.34 163.43 168.39 162.67 167.97 C 161.92 167.55 160.97 167.83 160.55 168.58 L 160.07 169.45 C 159.65 170.20 159.93 171.15 160.68 171.57 C 161.44 171.99 162.39 171.71 162.80 170.96 Z M 163.28 170.09 L 163.76 169.22 C 164.18 168.46 163.90 167.51 163.15 167.10 C 162.39 166.68 161.44 166.96 161.03 167.71 L 160.55 168.58 C 160.13 169.34 160.41 170.29 161.16 170.70 C 161.92 171.12 162.87 170.84 163.28 170.09 Z M 163.77 169.21 L 164.25 168.33 C 164.66 167.57 164.38 166.63 163.62 166.21 C 162.87 165.80 161.92 166.08 161.50 166.84 L 161.02 167.72 C 160.61 168.47 160.89 169.42 161.65 169.83 C 162.41 170.25 163.35 169.97 163.77 169.21 Z M 164.25 168.32 L 164.73 167.44 C 165.13 166.68 164.85 165.73 164.09 165.32 C 163.33 164.92 162.39 165.20 161.98 165.96 L 161.50 166.84 C 161.09 167.60 161.38 168.55 162.13 168.96 C 162.89 169.37 163.84 169.08 164.25 168.32 Z M 164.73 167.43 L 165.20 166.54 C 165.61 165.78 165.32 164.83 164.55 164.43 C 163.79 164.03 162.85 164.32 162.44 165.08 L 161.97 165.97 C 161.57 166.73 161.86 167.68 162.62 168.08 C 163.38 168.48 164.33 168.19 164.73 167.43 Z M 165.21 166.53 L 165.67 165.63 C 166.07 164.87 165.77 163.92 165.01 163.53 C 164.24 163.13 163.30 163.43 162.90 164.19 L 162.44 165.09 C 162.04 165.85 162.34 166.80 163.10 167.19 C 163.87 167.59 164.81 167.29 165.21 166.53 Z M 165.68 165.62 L 166.14 164.72 C 166.53 163.95 166.22 163.01 165.45 162.62 C 164.69 162.23 163.75 162.54 163.35 163.30 L 162.90 164.21 C 162.51 164.97 162.81 165.91 163.58 166.30 C 164.35 166.70 165.29 166.39 165.68 165.62 Z M 166.14 164.71 L 166.59 163.80 C 166.98 163.03 166.66 162.10 165.89 161.71 C 165.12 161.33 164.18 161.64 163.80 162.41 L 163.35 163.32 C 162.96 164.09 163.28 165.03 164.05 165.41 C 164.82 165.79 165.76 165.48 166.14 164.71 Z M 166.60 163.79 L 167.04 162.89 C 167.42 162.12 167.09 161.18 166.32 160.81 C 165.54 160.43 164.61 160.75 164.23 161.53 L 163.79 162.43 C 163.41 163.20 163.74 164.14 164.51 164.51 C 165.29 164.89 166.22 164.57 166.60 163.79 Z M 167.04 162.88 L 167.47 161.98 C 167.84 161.21 167.51 160.27 166.73 159.90 C 165.96 159.53 165.02 159.86 164.65 160.64 L 164.23 161.54 C 163.85 162.32 164.18 163.25 164.96 163.62 C 165.74 163.99 166.67 163.66 167.04 162.88 Z M 167.48 161.97 L 167.89 161.08 C 168.26 160.30 167.92 159.37 167.14 159.01 C 166.36 158.64 165.43 158.98 165.06 159.76 L 164.65 160.65 C 164.28 161.43 164.62 162.36 165.40 162.73 C 166.18 163.09 167.11 162.75 167.48 161.97 Z M 167.90 161.07 L 168.33 160.14 C 168.68 159.35 168.34 158.43 167.55 158.07 C 166.77 157.71 165.84 158.05 165.49 158.84 L 165.06 159.77 C 164.70 160.55 165.05 161.48 165.83 161.84 C 166.61 162.20 167.54 161.85 167.90 161.07 Z M 168.33 160.13 L 168.75 159.19 C 169.10 158.40 168.75 157.48 167.96 157.13 C 167.18 156.77 166.25 157.13 165.90 157.91 L 165.48 158.85 C 165.13 159.63 165.48 160.56 166.27 160.91 C 167.05 161.26 167.98 160.91 168.33 160.13 Z M 168.75 159.18 L 169.16 158.26 C 169.51 157.47 169.15 156.55 168.36 156.20 C 167.57 155.85 166.65 156.21 166.30 157.00 L 165.90 157.92 C 165.55 158.71 165.91 159.63 166.69 159.98 C 167.48 160.33 168.40 159.97 168.75 159.18 Z M 169.16 158.25 L 169.56 157.35 C 169.90 156.56 169.54 155.64 168.75 155.29 C 167.96 154.95 167.04 155.31 166.69 156.10 L 166.30 157.01 C 165.96 157.80 166.32 158.72 167.11 159.06 C 167.90 159.41 168.82 159.04 169.16 158.25 Z M 169.56 157.34 L 169.94 156.45 C 170.29 155.66 169.92 154.74 169.13 154.40 C 168.34 154.06 167.42 154.42 167.08 155.21 L 166.69 156.10 C 166.35 156.90 166.72 157.82 167.51 158.16 C 168.30 158.50 169.22 158.13 169.56 157.34 Z M 169.95 156.45 L 170.34 155.53 C 170.68 154.74 170.31 153.82 169.52 153.48 C 168.72 153.15 167.81 153.51 167.47 154.30 L 167.08 155.22 C 166.74 156.01 167.10 156.93 167.90 157.27 C 168.69 157.61 169.61 157.24 169.95 156.45 Z M 170.34 155.53 L 170.73 154.60 C 171.07 153.80 170.70 152.89 169.91 152.55 C 169.11 152.21 168.20 152.58 167.86 153.38 L 167.46 154.31 C 167.13 155.10 167.50 156.02 168.29 156.36 C 169.08 156.69 170.00 156.32 170.34 155.53 Z M 170.74 154.59 L 171.12 153.67 C 171.46 152.87 171.08 151.96 170.29 151.62 C 169.49 151.29 168.58 151.67 168.24 152.46 L 167.86 153.38 C 167.52 154.18 167.90 155.09 168.69 155.43 C 169.49 155.76 170.40 155.38 170.74 154.59 Z M 171.13 153.66 L 171.50 152.74 C 171.83 151.94 171.45 151.03 170.65 150.70 C 169.85 150.38 168.94 150.76 168.61 151.56 L 168.24 152.47 C 167.91 153.27 168.29 154.18 169.09 154.51 C 169.89 154.84 170.80 154.45 171.13 153.66 Z M 171.51 152.72 L 171.87 151.81 C 172.19 151.00 171.80 150.10 171.00 149.78 C 170.19 149.46 169.29 149.85 168.97 150.66 L 168.61 151.57 C 168.29 152.38 168.68 153.28 169.48 153.60 C 170.28 153.92 171.19 153.53 171.51 152.72 Z M 171.88 151.79 L 172.25 150.82 C 172.55 150.02 172.15 149.12 171.34 148.81 C 170.54 148.50 169.63 148.91 169.33 149.71 L 168.96 150.68 C 168.66 151.48 169.06 152.38 169.87 152.69 C 170.67 153.00 171.57 152.59 171.88 151.79 Z M 172.25 150.80 L 172.61 149.81 C 172.91 149.00 172.49 148.11 171.68 147.81 C 170.86 147.52 169.97 147.94 169.68 148.75 L 169.32 149.74 C 169.03 150.55 169.44 151.44 170.26 151.74 C 171.07 152.03 171.96 151.61 172.25 150.80 Z M 172.62 149.79 L 172.95 148.82 C 173.23 148.00 172.80 147.11 171.98 146.83 C 171.16 146.56 170.28 146.99 170.00 147.81 L 169.67 148.78 C 169.39 149.59 169.82 150.48 170.64 150.76 C 171.45 151.04 172.34 150.60 172.62 149.79 Z M 172.96 148.79 L 173.26 147.86 C 173.52 147.03 173.07 146.16 172.25 145.89 C 171.43 145.63 170.55 146.09 170.29 146.91 L 169.99 147.84 C 169.73 148.66 170.18 149.54 171.00 149.80 C 171.82 150.06 172.70 149.61 172.96 148.79 Z M 173.27 147.82 L 173.53 146.94 C 173.77 146.11 173.29 145.24 172.47 145.00 C 171.64 144.76 170.77 145.24 170.53 146.06 L 170.27 146.95 C 170.03 147.77 170.51 148.64 171.34 148.88 C 172.16 149.12 173.03 148.65 173.27 147.82 Z M 173.54 146.88 L 173.80 145.86 C 174.01 145.03 173.50 144.18 172.66 143.97 C 171.82 143.76 170.98 144.27 170.77 145.11 L 170.51 146.12 C 170.31 146.96 170.81 147.81 171.65 148.01 C 172.49 148.22 173.34 147.71 173.54 146.88 Z M 173.82 145.78 L 174.00 144.82 C 174.16 143.97 173.61 143.16 172.76 142.99 C 171.91 142.83 171.09 143.39 170.93 144.23 L 170.75 145.19 C 170.59 146.04 171.14 146.86 171.99 147.02 C 172.84 147.18 173.65 146.62 173.82 145.78 Z M 174.01 144.73 L 174.14 143.77 C 174.25 142.91 173.64 142.13 172.79 142.02 C 171.93 141.91 171.15 142.51 171.04 143.37 L 170.92 144.33 C 170.81 145.18 171.41 145.97 172.27 146.08 C 173.12 146.19 173.90 145.58 174.01 144.73 Z M 174.15 143.68 L 174.22 142.68 C 174.28 141.82 173.64 141.07 172.78 141.01 C 171.92 140.94 171.17 141.59 171.11 142.45 L 171.03 143.45 C 170.97 144.31 171.61 145.06 172.47 145.12 C 173.33 145.19 174.08 144.54 174.15 143.68 Z M 174.22 142.56 L 174.23 141.53 C 174.23 140.67 173.53 139.97 172.67 139.97 C 171.80 139.97 171.10 140.67 171.10 141.53 L 171.10 142.56 C 171.10 143.42 171.80 144.12 172.66 144.12 C 173.52 144.12 174.22 143.43 174.22 142.56 Z M 174.21 141.32 L 174.07 140.32 C 173.96 139.46 173.17 138.87 172.31 138.98 C 171.46 139.10 170.86 139.89 170.98 140.74 L 171.12 141.75 C 171.24 142.60 172.02 143.20 172.88 143.08 C 173.73 142.96 174.33 142.17 174.21 141.32 Z M 173.98 139.96 L 173.63 139.07 C 173.32 138.27 172.41 137.87 171.61 138.19 C 170.81 138.50 170.41 139.41 170.72 140.21 L 171.07 141.10 C 171.39 141.90 172.29 142.30 173.10 141.99 C 173.90 141.67 174.29 140.77 173.98 139.96 Z M 173.35 138.61 L 172.74 137.91 C 172.17 137.27 171.18 137.20 170.54 137.77 C 169.89 138.34 169.83 139.33 170.40 139.98 L 171.01 140.67 C 171.58 141.32 172.56 141.38 173.21 140.81 C 173.86 140.24 173.92 139.26 173.35 138.61 Z M 172.37 137.61 L 171.53 137.11 C 170.79 136.66 169.83 136.91 169.39 137.65 C 168.95 138.39 169.19 139.35 169.93 139.79 L 170.77 140.29 C 171.51 140.73 172.47 140.49 172.91 139.75 C 173.35 139.01 173.11 138.05 172.37 137.61 Z M 171.25 136.98 L 170.29 136.63 C 169.47 136.34 168.58 136.77 168.29 137.58 C 168.01 138.40 168.43 139.29 169.24 139.58 L 170.21 139.92 C 171.02 140.21 171.92 139.78 172.20 138.97 C 172.49 138.16 172.07 137.26 171.25 136.98 Z M 170.10 136.58 L 169.10 136.36 C 168.25 136.17 167.42 136.70 167.23 137.55 C 167.05 138.39 167.58 139.22 168.42 139.41 L 169.43 139.63 C 170.27 139.81 171.10 139.28 171.29 138.44 C 171.47 137.60 170.94 136.76 170.10 136.58 Z M 168.97 136.34 L 167.92 136.19 C 167.06 136.08 166.28 136.68 166.16 137.53 C 166.04 138.38 166.64 139.17 167.50 139.29 L 168.55 139.43 C 169.40 139.55 170.19 138.95 170.31 138.09 C 170.42 137.24 169.82 136.45 168.97 136.34 Z M 167.81 136.18 L 166.81 136.12 C 165.95 136.06 165.20 136.71 165.15 137.57 C 165.09 138.43 165.74 139.17 166.60 139.23 L 167.60 139.30 C 168.46 139.35 169.21 138.70 169.27 137.84 C 169.32 136.98 168.67 136.24 167.81 136.18 Z M 166.72 136.11 L 165.76 136.10 C 164.90 136.09 164.19 136.78 164.18 137.64 C 164.17 138.51 164.86 139.21 165.72 139.22 L 166.68 139.23 C 167.55 139.24 168.25 138.55 168.26 137.69 C 168.27 136.83 167.58 136.12 166.72 136.11 Z M 165.71 136.10 L 164.75 136.12 C 163.89 136.13 163.21 136.85 163.22 137.71 C 163.24 138.57 163.95 139.26 164.81 139.24 L 165.77 139.22 C 166.63 139.21 167.32 138.50 167.30 137.63 C 167.29 136.77 166.58 136.09 165.71 136.10 Z M 164.71 136.12 L 163.73 136.16 C 162.87 136.20 162.20 136.93 162.24 137.80 C 162.28 138.66 163.01 139.32 163.87 139.28 L 164.85 139.24 C 165.72 139.20 166.38 138.47 166.34 137.61 C 166.30 136.75 165.57 136.08 164.71 136.12 Z M 163.64 136.17 L 162.64 136.28 C 161.78 136.37 161.16 137.14 161.25 138.00 C 161.35 138.85 162.11 139.47 162.97 139.38 L 163.97 139.28 C 164.82 139.19 165.44 138.42 165.35 137.56 C 165.26 136.70 164.49 136.08 163.64 136.17 Z M 162.50 136.30 L 161.50 136.50 C 160.65 136.67 160.10 137.49 160.27 138.34 C 160.44 139.18 161.26 139.73 162.11 139.56 L 163.11 139.36 C 163.96 139.19 164.51 138.37 164.34 137.52 C 164.17 136.68 163.35 136.13 162.50 136.30 Z M 161.34 136.54 L 160.42 136.83 C 159.59 137.08 159.13 137.96 159.39 138.78 C 159.64 139.60 160.52 140.06 161.34 139.81 L 162.27 139.52 C 163.09 139.27 163.55 138.39 163.29 137.57 C 163.04 136.74 162.16 136.28 161.34 136.54 Z M 160.30 136.87 L 159.38 137.23 C 158.58 137.55 158.18 138.46 158.50 139.26 C 158.82 140.06 159.72 140.45 160.53 140.14 L 161.45 139.77 C 162.26 139.45 162.65 138.55 162.33 137.74 C 162.01 136.94 161.11 136.55 160.30 136.87 Z M 159.31 137.26 L 158.38 137.68 C 157.59 138.04 157.25 138.97 157.60 139.75 C 157.96 140.54 158.88 140.88 159.67 140.53 L 160.60 140.11 C 161.38 139.75 161.73 138.82 161.37 138.04 C 161.02 137.25 160.09 136.91 159.31 137.26 Z M 158.34 137.70 L 157.42 138.15 C 156.65 138.53 156.33 139.46 156.70 140.24 C 157.08 141.01 158.01 141.33 158.79 140.96 L 159.71 140.51 C 160.48 140.13 160.80 139.20 160.43 138.42 C 160.05 137.65 159.12 137.32 158.34 137.70 Z M 157.40 138.16 L 156.50 138.61 C 155.73 139.00 155.42 139.94 155.81 140.71 C 156.20 141.48 157.14 141.79 157.91 141.40 L 158.81 140.95 C 159.58 140.56 159.89 139.62 159.50 138.85 C 159.11 138.08 158.17 137.77 157.40 138.16 Z M 156.48 138.62 L 155.60 139.09 C 154.83 139.49 154.54 140.43 154.94 141.19 C 155.33 141.96 156.28 142.25 157.04 141.85 L 157.93 141.39 C 158.69 140.99 158.99 140.05 158.59 139.28 C 158.19 138.52 157.25 138.22 156.48 138.62 Z M 155.57 139.10 L 154.70 139.57 C 153.94 139.98 153.66 140.93 154.08 141.69 C 154.49 142.45 155.43 142.73 156.19 142.32 L 157.06 141.84 C 157.82 141.43 158.10 140.48 157.69 139.73 C 157.28 138.97 156.33 138.69 155.57 139.10 Z M 154.68 139.59 L 153.80 140.08 C 153.05 140.50 152.79 141.46 153.21 142.21 C 153.64 142.96 154.59 143.22 155.34 142.80 L 156.22 142.30 C 156.97 141.88 157.23 140.93 156.81 140.17 C 156.38 139.42 155.43 139.16 154.68 139.59 Z M 153.78 140.09 L 152.91 140.60 C 152.17 141.04 151.92 142.00 152.36 142.74 C 152.80 143.48 153.75 143.73 154.50 143.29 L 155.36 142.78 C 156.11 142.35 156.36 141.39 155.92 140.65 C 155.48 139.90 154.53 139.66 153.78 140.09 Z M 152.90 140.61 L 152.04 141.13 C 151.31 141.58 151.07 142.54 151.52 143.27 C 151.96 144.01 152.92 144.25 153.66 143.80 L 154.51 143.28 C 155.25 142.84 155.49 141.88 155.04 141.14 C 154.59 140.40 153.63 140.17 152.90 140.61 Z M 152.03 141.14 L 151.19 141.66 C 150.46 142.11 150.23 143.07 150.69 143.80 C 151.14 144.54 152.10 144.77 152.83 144.31 L 153.67 143.79 C 154.41 143.34 154.63 142.38 154.18 141.64 C 153.73 140.91 152.77 140.68 152.03 141.14 Z M 151.18 141.66 L 150.33 142.19 C 149.60 142.65 149.38 143.62 149.84 144.35 C 150.30 145.08 151.26 145.30 151.99 144.84 L 152.84 144.31 C 153.57 143.85 153.79 142.89 153.34 142.16 C 152.88 141.42 151.92 141.20 151.18 141.66 Z M 150.33 142.20 L 149.48 142.73 C 148.75 143.19 148.54 144.16 149.00 144.89 C 149.46 145.61 150.42 145.83 151.15 145.37 L 151.99 144.84 C 152.72 144.38 152.94 143.41 152.48 142.68 C 152.02 141.96 151.06 141.74 150.33 142.20 Z M 149.48 142.73 L 148.64 143.27 C 147.91 143.73 147.69 144.70 148.16 145.42 C 148.62 146.15 149.58 146.37 150.31 145.90 L 151.15 145.37 C 151.88 144.91 152.10 143.94 151.63 143.21 C 151.17 142.49 150.21 142.27 149.48 142.73 Z M 148.64 143.27 L 147.83 143.79 C 147.10 144.25 146.88 145.21 147.35 145.94 C 147.81 146.67 148.78 146.88 149.50 146.42 L 150.31 145.90 C 151.04 145.44 151.25 144.47 150.79 143.75 C 150.33 143.02 149.36 142.81 148.64 143.27 Z M 147.82 143.79 L 147.02 144.30 C 146.29 144.77 146.08 145.74 146.55 146.46 C 147.02 147.19 147.98 147.40 148.71 146.93 L 149.51 146.42 C 150.23 145.95 150.44 144.98 149.98 144.26 C 149.51 143.53 148.55 143.32 147.82 143.79 Z M 147.01 144.31 L 146.17 144.86 C 145.45 145.33 145.25 146.30 145.73 147.02 C 146.20 147.74 147.17 147.94 147.89 147.47 L 148.72 146.92 C 149.44 146.45 149.64 145.48 149.17 144.76 C 148.70 144.04 147.73 143.84 147.01 144.31 Z M 146.15 144.87 L 145.27 145.47 C 144.55 145.96 144.37 146.93 144.85 147.64 C 145.33 148.35 146.30 148.54 147.02 148.06 L 147.91 147.46 C 148.62 146.97 148.81 146.00 148.32 145.29 C 147.84 144.57 146.87 144.39 146.15 144.87 Z M 145.25 145.49 L 144.42 146.06 C 143.72 146.56 143.54 147.53 144.04 148.24 C 144.53 148.95 145.51 149.12 146.21 148.62 L 147.04 148.04 C 147.74 147.55 147.92 146.58 147.42 145.87 C 146.93 145.16 145.95 144.99 145.25 145.49 Z M 144.40 146.08 L 143.57 146.68 C 142.87 147.19 142.71 148.16 143.22 148.86 C 143.72 149.56 144.70 149.72 145.40 149.21 L 146.23 148.61 C 146.93 148.10 147.09 147.13 146.58 146.43 C 146.08 145.73 145.10 145.57 144.40 146.08 Z M 143.55 146.70 L 142.73 147.31 C 142.04 147.83 141.90 148.81 142.41 149.50 C 142.93 150.19 143.91 150.33 144.60 149.81 L 145.42 149.20 C 146.11 148.68 146.25 147.70 145.73 147.01 C 145.22 146.32 144.24 146.18 143.55 146.70 Z M 142.70 147.33 L 141.92 147.94 C 141.24 148.47 141.12 149.45 141.65 150.13 C 142.19 150.81 143.17 150.93 143.85 150.40 L 144.62 149.79 C 145.30 149.26 145.42 148.28 144.89 147.60 C 144.36 146.92 143.38 146.80 142.70 147.33 Z M 141.89 147.97 L 141.08 148.64 C 140.42 149.19 140.33 150.17 140.88 150.83 C 141.43 151.50 142.42 151.59 143.08 151.04 L 143.88 150.37 C 144.55 149.82 144.64 148.83 144.09 148.17 C 143.53 147.51 142.55 147.42 141.89 147.97 Z M 141.04 148.68 L 140.26 149.37 C 139.62 149.95 139.57 150.94 140.15 151.58 C 140.72 152.22 141.71 152.27 142.35 151.70 L 143.13 151.00 C 143.77 150.42 143.82 149.43 143.24 148.79 C 142.67 148.15 141.68 148.10 141.04 148.68 Z M 140.22 149.41 L 139.54 150.07 C 138.92 150.67 138.90 151.65 139.50 152.28 C 140.09 152.90 141.08 152.92 141.70 152.32 L 142.39 151.66 C 143.01 151.06 143.03 150.07 142.43 149.45 C 141.83 148.83 140.84 148.81 140.22 149.41 Z M 139.52 150.09 L 139.00 150.60 C 138.39 151.21 138.39 152.20 139.00 152.81 C 139.60 153.42 140.59 153.43 141.20 152.82 L 141.72 152.30 C 142.33 151.69 142.34 150.70 141.73 150.09 C 141.12 149.48 140.13 149.48 139.52 150.09 Z"
      fill="black"
      fill-rule="nonzero" /></svg>