<svg xmlns="http://www.w3.org/2000/svg" width="300" height="300" viewBox="0 0 300 300">
<path d="M 151.50 138.96 L 150.59 138.64 C 149.77 138.35 148.88 138.78 148.59 139.59 C 148.30 140.40 148.73 141.29 149.54 141.58 L 150.45 141.91 C 151.27 142.19 152.16 141.77 152.45 140.96 C 152.74 140.14 152.31 139.25 151.50 138.96 Z M 150.55 138.63 L 149.61 138.32 C 148.79 138.05 147.91 138.50 147.65 139.32 C 147.38 140.14 147.83 141.02 148.65 141.29 L 149.58 141.59 C 150.40 141.86 151.28 141.41 151.55 140.59 C 151.82 139.78 151.37 138.89 150.55 138.63 Z M 149.54 138.30 L 148.56 138.03 C 147.73 137.81 146.87 138.30 146.65 139.13 C 146.42 139.96 146.91 140.82 147.74 141.04 L 148.72 141.31 C 149.55 141.54 150.41 141.05 150.64 140.22 C 150.86 139.38 150.37 138.53 149.54 138.30 Z M 148.46 138.01 L 147.45 137.80 C 146.60 137.63 145.78 138.18 145.61 139.03 C 145.44 139.87 145.98 140.69 146.83 140.86 L 147.84 141.07 C 148.69 141.24 149.51 140.69 149.68 139.85 C 149.85 139.00 149.31 138.18 148.46 138.01 Z M 147.32 137.78 L 146.31 137.66 C 145.45 137.56 144.67 138.17 144.57 139.02 C 144.47 139.88 145.08 140.66 145.93 140.76 L 146.95 140.88 C 147.81 140.99 148.58 140.38 148.69 139.52 C 148.79 138.67 148.18 137.89 147.32 137.78 Z M 146.16 137.65 L 145.13 137.63 C 144.27 137.61 143.56 138.29 143.54 139.15 C 143.52 140.01 144.20 140.73 145.06 140.75 L 146.08 140.77 C 146.94 140.79 147.66 140.11 147.68 139.25 C 147.70 138.39 147.02 137.67 146.16 137.65 Z M 144.93 137.63 L 143.96 137.74 C 143.10 137.83 142.48 138.59 142.57 139.45 C 142.66 140.31 143.43 140.93 144.28 140.84 L 145.26 140.74 C 146.12 140.65 146.74 139.88 146.65 139.02 C 146.56 138.17 145.79 137.54 144.93 137.63 Z M 143.68 137.79 L 142.78 138.05 C 141.96 138.30 141.48 139.16 141.72 139.99 C 141.96 140.82 142.83 141.29 143.66 141.05 L 144.56 140.79 C 145.39 140.55 145.86 139.68 145.62 138.85 C 145.38 138.02 144.51 137.55 143.68 137.79 Z M 142.47 138.18 L 141.66 138.63 C 140.90 139.05 140.63 140.00 141.04 140.75 C 141.46 141.51 142.41 141.78 143.16 141.37 L 143.97 140.92 C 144.73 140.50 145.00 139.55 144.59 138.80 C 144.17 138.04 143.22 137.77 142.47 138.18 Z M 141.41 138.80 L 140.67 139.42 C 140.00 139.97 139.92 140.96 140.47 141.62 C 141.02 142.28 142.00 142.37 142.67 141.82 L 143.41 141.20 C 144.07 140.64 144.16 139.66 143.61 139.00 C 143.06 138.34 142.07 138.25 141.41 138.80 Z M 140.52 139.57 L 139.79 140.35 C 139.21 140.99 139.26 141.98 139.89 142.56 C 140.53 143.14 141.52 143.10 142.10 142.46 L 142.82 141.67 C 143.40 141.04 143.36 140.05 142.72 139.47 C 142.08 138.89 141.10 138.93 140.52 139.57 Z M 139.72 140.44 L 139.08 141.25 C 138.55 141.93 138.66 142.91 139.34 143.44 C 140.02 143.98 141.00 143.86 141.53 143.18 L 142.17 142.37 C 142.71 141.69 142.59 140.71 141.91 140.18 C 141.23 139.65 140.25 139.76 139.72 140.44 Z M 139.04 141.30 L 138.45 142.12 C 137.95 142.82 138.10 143.80 138.80 144.30 C 139.50 144.81 140.48 144.65 140.98 143.95 L 141.57 143.13 C 142.08 142.43 141.92 141.46 141.22 140.95 C 140.52 140.45 139.55 140.60 139.04 141.30 Z M 138.42 142.16 L 137.84 143.02 C 137.36 143.74 137.55 144.71 138.27 145.19 C 138.98 145.67 139.95 145.48 140.43 144.77 L 141.01 143.91 C 141.49 143.19 141.30 142.22 140.59 141.74 C 139.87 141.26 138.90 141.45 138.42 142.16 Z M 137.82 143.06 L 137.27 143.93 C 136.81 144.66 137.03 145.62 137.76 146.08 C 138.49 146.54 139.45 146.32 139.91 145.59 L 140.46 144.73 C 140.92 144.00 140.70 143.03 139.97 142.57 C 139.24 142.11 138.28 142.33 137.82 143.06 Z M 137.25 143.97 L 136.76 144.81 C 136.32 145.55 136.57 146.51 137.31 146.95 C 138.06 147.38 139.02 147.13 139.45 146.39 L 139.94 145.55 C 140.38 144.81 140.13 143.85 139.38 143.41 C 138.64 142.98 137.68 143.23 137.25 143.97 Z M 136.72 144.87 L 136.22 145.83 C 135.81 146.59 136.11 147.53 136.87 147.94 C 137.63 148.34 138.57 148.05 138.98 147.29 L 139.48 146.33 C 139.89 145.57 139.59 144.62 138.83 144.22 C 138.07 143.82 137.13 144.11 136.72 144.87 Z M 136.18 145.90 L 135.76 146.82 C 135.39 147.60 135.73 148.53 136.52 148.89 C 137.30 149.25 138.23 148.91 138.59 148.13 L 139.01 147.21 C 139.38 146.43 139.04 145.50 138.25 145.14 C 137.47 144.78 136.54 145.12 136.18 145.90 Z M 135.73 146.89 L 135.37 147.76 C 135.04 148.56 135.43 149.47 136.23 149.80 C 137.03 150.12 137.94 149.74 138.26 148.94 L 138.62 148.06 C 138.94 147.26 138.56 146.35 137.76 146.03 C 136.96 145.70 136.05 146.09 135.73 146.89 Z M 135.35 147.81 L 135.03 148.69 C 134.73 149.50 135.14 150.40 135.95 150.70 C 136.76 150.99 137.66 150.58 137.95 149.77 L 138.28 148.89 C 138.58 148.08 138.16 147.19 137.36 146.89 C 136.55 146.59 135.65 147.00 135.35 147.81 Z M 135.02 148.72 L 134.70 149.62 C 134.42 150.43 134.85 151.32 135.66 151.61 C 136.48 151.89 137.37 151.46 137.65 150.65 L 137.96 149.75 C 138.25 148.93 137.82 148.04 137.00 147.76 C 136.19 147.47 135.30 147.90 135.02 148.72 Z M 134.69 149.65 L 134.39 150.59 C 134.12 151.41 134.57 152.29 135.39 152.56 C 136.21 152.82 137.09 152.38 137.35 151.56 L 137.66 150.62 C 137.93 149.80 137.48 148.91 136.66 148.65 C 135.84 148.38 134.96 148.83 134.69 149.65 Z M 134.37 150.63 L 134.08 151.61 C 133.84 152.44 134.31 153.31 135.14 153.55 C 135.96 153.80 136.83 153.32 137.08 152.50 L 137.37 151.52 C 137.61 150.69 137.14 149.82 136.31 149.58 C 135.49 149.33 134.62 149.80 134.37 150.63 Z M 134.07 151.66 L 133.81 152.65 C 133.59 153.48 134.09 154.34 134.93 154.56 C 135.76 154.77 136.61 154.27 136.83 153.44 L 137.09 152.45 C 137.31 151.62 136.81 150.76 135.97 150.54 C 135.14 150.33 134.29 150.83 134.07 151.66 Z M 133.80 152.70 L 133.58 153.65 C 133.39 154.49 133.92 155.33 134.76 155.52 C 135.60 155.71 136.44 155.18 136.63 154.34 L 136.84 153.39 C 137.03 152.55 136.51 151.71 135.67 151.52 C 134.82 151.33 133.99 151.86 133.80 152.70 Z M 133.57 153.69 L 133.38 154.67 C 133.22 155.52 133.77 156.34 134.61 156.50 C 135.46 156.67 136.28 156.12 136.45 155.27 L 136.64 154.29 C 136.80 153.45 136.25 152.63 135.40 152.46 C 134.56 152.30 133.74 152.85 133.57 153.69 Z M 133.37 154.72 L 133.21 155.72 C 133.07 156.57 133.64 157.38 134.50 157.52 C 135.35 157.66 136.15 157.08 136.29 156.23 L 136.45 155.23 C 136.59 154.37 136.02 153.57 135.17 153.43 C 134.32 153.29 133.51 153.87 133.37 154.72 Z M 133.20 155.77 L 133.07 156.78 C 132.95 157.64 133.55 158.43 134.40 158.54 C 135.26 158.65 136.04 158.06 136.16 157.20 L 136.30 156.18 C 136.41 155.33 135.81 154.54 134.96 154.43 C 134.10 154.31 133.32 154.91 133.20 155.77 Z M 133.06 156.83 L 132.96 157.80 C 132.87 158.66 133.49 159.42 134.34 159.52 C 135.20 159.61 135.97 158.99 136.06 158.13 L 136.16 157.16 C 136.26 156.30 135.63 155.53 134.78 155.44 C 133.92 155.35 133.15 155.97 133.06 156.83 Z M 132.95 157.83 L 132.87 158.82 C 132.80 159.68 133.44 160.43 134.30 160.50 C 135.16 160.58 135.91 159.94 135.98 159.08 L 136.07 158.09 C 136.14 157.23 135.50 156.48 134.64 156.41 C 133.78 156.34 133.02 156.97 132.95 157.83 Z M 132.87 158.85 L 132.80 159.85 C 132.75 160.71 133.40 161.45 134.26 161.51 C 135.12 161.56 135.86 160.91 135.92 160.05 L 135.99 159.05 C 136.04 158.19 135.39 157.45 134.53 157.39 C 133.67 157.33 132.93 157.99 132.87 158.85 Z M 132.80 159.87 L 132.75 160.89 C 132.71 161.75 133.37 162.48 134.23 162.53 C 135.09 162.57 135.83 161.91 135.87 161.05 L 135.92 160.03 C 135.97 159.17 135.30 158.43 134.44 158.39 C 133.58 158.35 132.85 159.01 132.80 159.87 Z M 132.75 160.90 L 132.71 161.92 C 132.67 162.78 133.34 163.51 134.20 163.54 C 135.06 163.58 135.79 162.91 135.83 162.05 L 135.87 161.03 C 135.91 160.17 135.24 159.44 134.38 159.41 C 133.51 159.37 132.79 160.04 132.75 160.90 Z M 132.71 161.93 L 132.67 162.94 C 132.64 163.80 133.31 164.52 134.18 164.56 C 135.04 164.59 135.76 163.91 135.79 163.05 L 135.83 162.04 C 135.86 161.18 135.18 160.45 134.32 160.42 C 133.46 160.39 132.74 161.07 132.71 161.93 Z M 132.67 162.95 L 132.64 163.96 C 132.61 164.82 133.29 165.54 134.15 165.57 C 135.02 165.59 135.74 164.92 135.76 164.05 L 135.79 163.04 C 135.82 162.18 135.14 161.46 134.28 161.43 C 133.42 161.41 132.70 162.09 132.67 162.95 Z M 132.64 163.97 L 132.62 164.97 C 132.60 165.83 133.28 166.55 134.14 166.57 C 135.00 166.59 135.72 165.91 135.74 165.05 L 135.76 164.04 C 135.78 163.18 135.10 162.47 134.24 162.45 C 133.38 162.43 132.66 163.11 132.64 163.97 Z M 132.62 164.98 L 132.60 165.96 C 132.58 166.82 133.27 167.53 134.13 167.55 C 134.99 167.56 135.70 166.88 135.72 166.02 L 135.74 165.04 C 135.75 164.18 135.07 163.46 134.21 163.45 C 133.34 163.43 132.63 164.12 132.62 164.98 Z M 132.60 165.97 L 132.59 167.02 C 132.58 167.88 133.27 168.59 134.13 168.60 C 134.99 168.61 135.70 167.92 135.71 167.05 L 135.72 166.00 C 135.73 165.14 135.04 164.44 134.18 164.43 C 133.31 164.42 132.61 165.11 132.60 165.97 Z M 132.59 167.05 L 132.59 168.08 C 132.60 168.94 133.30 169.63 134.17 169.63 C 135.03 169.62 135.72 168.92 135.72 168.05 L 135.71 167.02 C 135.70 166.16 135.00 165.47 134.14 165.48 C 133.27 165.48 132.58 166.19 132.59 167.05 Z M 132.59 168.13 L 132.64 169.12 C 132.67 169.98 133.40 170.65 134.26 170.61 C 135.12 170.57 135.79 169.85 135.76 168.99 L 135.71 168.00 C 135.68 167.14 134.95 166.47 134.09 166.51 C 133.23 166.54 132.56 167.27 132.59 168.13 Z M 132.64 169.20 L 132.73 170.15 C 132.82 171.01 133.58 171.63 134.44 171.55 C 135.30 171.47 135.93 170.70 135.84 169.85 L 135.75 168.90 C 135.67 168.04 134.90 167.41 134.05 167.50 C 133.19 167.58 132.56 168.34 132.64 169.20 Z M 132.75 170.27 L 132.92 171.26 C 133.07 172.11 133.88 172.67 134.73 172.53 C 135.58 172.38 136.15 171.57 136.00 170.72 L 135.83 169.73 C 135.68 168.88 134.87 168.31 134.02 168.46 C 133.17 168.61 132.60 169.42 132.75 170.27 Z M 132.95 171.39 L 133.22 172.38 C 133.44 173.21 134.30 173.70 135.13 173.48 C 135.96 173.25 136.46 172.40 136.23 171.56 L 135.97 170.58 C 135.75 169.75 134.89 169.26 134.06 169.48 C 133.22 169.70 132.73 170.56 132.95 171.39 Z M 133.26 172.51 L 133.60 173.44 C 133.90 174.25 134.80 174.66 135.61 174.36 C 136.42 174.06 136.83 173.17 136.53 172.36 L 136.19 171.43 C 135.89 170.62 135.00 170.21 134.19 170.50 C 133.38 170.80 132.96 171.70 133.26 172.51 Z M 133.66 173.56 L 134.07 174.44 C 134.44 175.22 135.37 175.55 136.15 175.18 C 136.93 174.81 137.26 173.88 136.89 173.10 L 136.48 172.23 C 136.11 171.45 135.18 171.12 134.40 171.49 C 133.62 171.85 133.29 172.78 133.66 173.56 Z M 134.13 174.56 L 134.66 175.45 C 135.09 176.19 136.05 176.44 136.79 176.00 C 137.54 175.57 137.79 174.61 137.35 173.87 L 136.83 172.98 C 136.39 172.24 135.43 171.99 134.69 172.43 C 133.94 172.86 133.70 173.82 134.13 174.56 Z M 134.74 175.58 L 135.33 176.39 C 135.83 177.08 136.81 177.24 137.51 176.73 C 138.21 176.23 138.36 175.25 137.85 174.55 L 137.27 173.74 C 136.76 173.04 135.78 172.89 135.08 173.40 C 134.39 173.90 134.23 174.88 134.74 175.58 Z M 135.42 176.51 L 136.07 177.23 C 136.64 177.88 137.63 177.94 138.27 177.37 C 138.92 176.79 138.98 175.81 138.41 175.16 L 137.76 174.43 C 137.19 173.79 136.20 173.73 135.55 174.30 C 134.91 174.87 134.85 175.86 135.42 176.51 Z M 136.18 177.35 L 136.85 177.96 C 137.48 178.54 138.47 178.50 139.05 177.87 C 139.64 177.23 139.60 176.25 138.96 175.66 L 138.30 175.05 C 137.66 174.47 136.67 174.51 136.09 175.14 C 135.51 175.78 135.55 176.76 136.18 177.35 Z M 137.01 178.09 L 137.76 178.62 C 138.46 179.11 139.44 178.94 139.93 178.24 C 140.43 177.53 140.26 176.56 139.55 176.06 L 138.80 175.53 C 138.10 175.04 137.12 175.21 136.63 175.91 C 136.13 176.62 136.30 177.59 137.01 178.09 Z M 137.96 178.74 L 138.88 179.19 C 139.65 179.57 140.59 179.26 140.97 178.48 C 141.35 177.71 141.04 176.77 140.26 176.39 L 139.35 175.94 C 138.57 175.56 137.64 175.87 137.26 176.65 C 136.87 177.42 137.19 178.36 137.96 178.74 Z M 139.08 179.27 L 140.14 179.63 C 140.96 179.90 141.84 179.46 142.11 178.64 C 142.39 177.82 141.95 176.94 141.13 176.66 L 140.07 176.31 C 139.25 176.04 138.36 176.48 138.09 177.30 C 137.82 178.12 138.26 179.00 139.08 179.27 Z M 140.27 179.66 L 141.21 179.89 C 142.05 180.08 142.89 179.57 143.09 178.73 C 143.29 177.89 142.77 177.05 141.93 176.85 L 140.99 176.63 C 140.15 176.43 139.31 176.95 139.11 177.79 C 138.92 178.62 139.43 179.47 140.27 179.66 Z M 141.29 179.90 L 142.31 180.09 C 143.15 180.24 143.97 179.68 144.12 178.83 C 144.28 177.98 143.71 177.17 142.86 177.02 L 141.85 176.83 C 141.00 176.68 140.19 177.24 140.03 178.09 C 139.88 178.94 140.44 179.75 141.29 179.90 Z M 142.37 180.10 L 143.41 180.24 C 144.26 180.36 145.05 179.77 145.17 178.92 C 145.29 178.06 144.70 177.27 143.84 177.15 L 142.80 177.01 C 141.95 176.89 141.16 177.48 141.04 178.33 C 140.92 179.19 141.51 179.98 142.37 180.10 Z M 143.46 180.25 L 144.48 180.36 C 145.33 180.45 146.10 179.83 146.19 178.97 C 146.28 178.11 145.66 177.34 144.80 177.25 L 143.79 177.15 C 142.93 177.06 142.16 177.68 142.07 178.53 C 141.98 179.39 142.60 180.16 143.46 180.25 Z M 144.53 180.36 L 145.53 180.43 C 146.39 180.49 147.13 179.84 147.19 178.98 C 147.25 178.12 146.60 177.38 145.74 177.32 L 144.75 177.25 C 143.89 177.19 143.14 177.84 143.08 178.70 C 143.02 179.56 143.67 180.30 144.53 180.36 Z M 145.61 180.43 L 146.74 180.45 C 147.60 180.46 148.31 179.77 148.32 178.91 C 148.33 178.05 147.64 177.34 146.78 177.33 L 145.65 177.31 C 144.79 177.30 144.08 177.99 144.07 178.85 C 144.06 179.72 144.75 180.42 145.61 180.43 Z M 146.90 180.44 L 147.87 180.35 C 148.72 180.28 149.36 179.52 149.28 178.66 C 149.20 177.80 148.44 177.17 147.58 177.24 L 146.61 177.33 C 145.76 177.41 145.12 178.17 145.20 179.03 C 145.28 179.89 146.04 180.52 146.90 180.44 Z M 148.09 180.32 L 148.97 180.11 C 149.81 179.91 150.32 179.07 150.12 178.23 C 149.92 177.39 149.08 176.87 148.24 177.07 L 147.36 177.28 C 146.52 177.48 146.01 178.32 146.21 179.16 C 146.41 180.00 147.25 180.52 148.09 180.32 Z M 149.19 180.04 L 150.03 179.69 C 150.83 179.37 151.22 178.46 150.89 177.66 C 150.57 176.86 149.66 176.48 148.86 176.80 L 148.02 177.14 C 147.22 177.47 146.83 178.38 147.16 179.18 C 147.48 179.98 148.40 180.36 149.19 180.04 Z M 150.21 179.61 L 151.04 179.15 C 151.79 178.73 152.06 177.78 151.64 177.02 C 151.22 176.27 150.27 176.00 149.52 176.42 L 148.69 176.88 C 147.93 177.30 147.66 178.25 148.08 179.01 C 148.50 179.76 149.45 180.03 150.21 179.61 Z M 151.15 179.08 L 151.99 178.51 C 152.70 178.02 152.89 177.05 152.41 176.34 C 151.92 175.63 150.95 175.44 150.24 175.92 L 149.40 176.49 C 148.69 176.98 148.50 177.95 148.99 178.66 C 149.47 179.37 150.44 179.56 151.15 179.08 Z M 152.07 178.45 L 152.91 177.80 C 153.59 177.27 153.72 176.29 153.19 175.61 C 152.66 174.93 151.68 174.80 151.00 175.33 L 150.16 175.98 C 149.48 176.51 149.35 177.49 149.88 178.17 C 150.41 178.85 151.39 178.98 152.07 178.45 Z M 152.96 177.76 L 153.71 177.12 C 154.37 176.56 154.45 175.58 153.90 174.92 C 153.34 174.26 152.36 174.18 151.70 174.74 L 150.95 175.37 C 150.29 175.93 150.20 176.91 150.76 177.57 C 151.32 178.23 152.30 178.31 152.96 177.76 Z M 153.75 177.09 L 154.47 176.44 C 155.11 175.86 155.17 174.88 154.59 174.24 C 154.02 173.59 153.03 173.54 152.39 174.12 L 151.66 174.77 C 151.02 175.34 150.97 176.33 151.54 176.97 C 152.12 177.61 153.11 177.67 153.75 177.09 Z M 154.50 176.42 L 155.23 175.73 C 155.86 175.14 155.89 174.15 155.30 173.52 C 154.71 172.90 153.72 172.87 153.09 173.46 L 152.36 174.14 C 151.73 174.73 151.70 175.72 152.29 176.35 C 152.88 176.98 153.87 177.01 154.50 176.42 Z M 155.25 175.71 L 155.98 175.00 C 156.60 174.39 156.62 173.41 156.02 172.79 C 155.41 172.17 154.43 172.16 153.81 172.76 L 153.07 173.47 C 152.45 174.08 152.44 175.06 153.04 175.68 C 153.64 176.30 154.63 176.31 155.25 175.71 Z M 156.00 174.98 L 156.72 174.26 C 157.33 173.65 157.34 172.66 156.73 172.05 C 156.12 171.44 155.13 171.44 154.52 172.05 L 153.79 172.77 C 153.18 173.38 153.18 174.37 153.79 174.98 C 154.40 175.59 155.39 175.59 156.00 174.98 Z M 156.73 174.25 L 157.42 173.56 C 158.02 172.94 158.02 171.95 157.40 171.35 C 156.79 170.74 155.80 170.75 155.19 171.36 L 154.51 172.06 C 153.90 172.67 153.91 173.66 154.53 174.27 C 155.14 174.87 156.13 174.86 156.73 174.25 Z M 157.43 173.55 L 158.12 172.83 C 158.72 172.21 158.70 171.22 158.08 170.62 C 157.47 170.02 156.48 170.04 155.88 170.66 L 155.19 171.37 C 154.59 171.99 154.60 172.98 155.22 173.58 C 155.84 174.18 156.83 174.16 157.43 173.55 Z M 158.13 172.82 L 158.82 172.09 C 159.42 171.46 159.39 170.48 158.77 169.88 C 158.14 169.29 157.16 169.31 156.56 169.94 L 155.87 170.67 C 155.27 171.29 155.30 172.28 155.92 172.88 C 156.55 173.47 157.54 173.45 158.13 172.82 Z M 158.84 172.08 L 159.53 171.33 C 160.12 170.70 160.08 169.71 159.45 169.13 C 158.82 168.54 157.83 168.57 157.25 169.20 L 156.55 169.95 C 155.96 170.58 156.00 171.57 156.63 172.16 C 157.26 172.74 158.25 172.71 158.84 172.08 Z M 159.54 171.32 L 160.22 170.58 C 160.80 169.94 160.75 168.95 160.12 168.37 C 159.48 167.79 158.49 167.84 157.91 168.48 L 157.23 169.22 C 156.65 169.85 156.70 170.84 157.34 171.42 C 157.97 172.00 158.96 171.96 159.54 171.32 Z M 160.23 170.57 L 160.88 169.84 C 161.45 169.20 161.40 168.21 160.75 167.63 C 160.11 167.06 159.13 167.12 158.55 167.76 L 157.90 168.49 C 157.32 169.13 157.38 170.12 158.02 170.69 C 158.67 171.27 159.65 171.21 160.23 170.57 Z M 160.89 169.83 L 161.54 169.09 C 162.11 168.44 162.04 167.45 161.40 166.89 C 160.75 166.32 159.76 166.38 159.19 167.03 L 158.54 167.77 C 157.97 168.42 158.04 169.40 158.68 169.97 C 159.33 170.54 160.32 170.48 160.89 169.83 Z M 161.55 169.08 L 162.20 168.33 C 162.77 167.67 162.70 166.69 162.05 166.12 C 161.39 165.56 160.41 165.63 159.84 166.28 L 159.19 167.03 C 158.62 167.69 158.69 168.67 159.34 169.24 C 159.99 169.80 160.98 169.73 161.55 169.08 Z M 162.21 168.32 L 162.87 167.55 C 163.43 166.89 163.36 165.91 162.71 165.35 C 162.05 164.78 161.07 164.86 160.50 165.51 L 159.84 166.28 C 159.28 166.94 159.35 167.92 160.00 168.49 C 160.66 169.05 161.64 168.97 162.21 168.32 Z M 162.87 167.54 L 163.54 166.77 C 164.10 166.11 164.02 165.12 163.37 164.56 C 162.71 164.00 161.73 164.08 161.17 164.74 L 160.50 165.51 C 159.94 166.17 160.02 167.16 160.67 167.72 C 161.33 168.28 162.31 168.20 162.87 167.54 Z M 163.54 166.76 L 164.19 166.00 C 164.75 165.35 164.67 164.36 164.01 163.80 C 163.36 163.24 162.37 163.32 161.81 163.98 L 161.16 164.74 C 160.61 165.40 160.68 166.38 161.34 166.94 C 162.00 167.50 162.98 167.42 163.54 166.76 Z M 164.19 166.00 L 164.84 165.23 C 165.40 164.57 165.32 163.58 164.66 163.03 C 164.00 162.47 163.02 162.55 162.46 163.21 L 161.81 163.98 C 161.25 164.64 161.33 165.63 161.99 166.18 C 162.65 166.74 163.64 166.66 164.19 166.00 Z M 164.85 165.22 L 165.50 164.45 C 166.05 163.78 165.96 162.80 165.30 162.25 C 164.64 161.69 163.65 161.78 163.10 162.44 L 162.45 163.22 C 161.90 163.88 161.99 164.86 162.65 165.42 C 163.31 165.97 164.30 165.88 164.85 165.22 Z M 165.50 164.44 L 166.14 163.66 C 166.69 163.00 166.60 162.01 165.93 161.46 C 165.26 160.92 164.28 161.01 163.73 161.68 L 163.09 162.45 C 162.55 163.12 162.64 164.10 163.31 164.65 C 163.97 165.20 164.96 165.10 165.50 164.44 Z M 166.15 163.65 L 166.77 162.88 C 167.31 162.21 167.21 161.23 166.54 160.69 C 165.87 160.15 164.89 160.25 164.34 160.92 L 163.72 161.69 C 163.18 162.36 163.29 163.34 163.96 163.88 C 164.63 164.43 165.61 164.32 166.15 163.65 Z M 166.78 162.87 L 167.42 162.06 C 167.96 161.38 167.84 160.40 167.16 159.87 C 166.48 159.33 165.50 159.45 164.97 160.13 L 164.33 160.94 C 163.80 161.61 163.92 162.60 164.59 163.13 C 165.27 163.66 166.25 163.54 166.78 162.87 Z M 167.43 162.04 L 168.06 161.23 C 168.58 160.55 168.45 159.57 167.77 159.04 C 167.08 158.52 166.10 158.65 165.58 159.33 L 164.96 160.14 C 164.43 160.83 164.56 161.81 165.25 162.33 C 165.93 162.86 166.91 162.73 167.43 162.04 Z M 168.07 161.21 L 168.67 160.41 C 169.18 159.72 169.04 158.74 168.35 158.23 C 167.66 157.71 166.68 157.85 166.16 158.55 L 165.56 159.35 C 165.05 160.04 165.19 161.02 165.88 161.53 C 166.57 162.05 167.55 161.91 168.07 161.21 Z M 168.68 160.40 L 169.25 159.60 C 169.76 158.91 169.61 157.93 168.91 157.42 C 168.21 156.92 167.24 157.07 166.73 157.77 L 166.15 158.56 C 165.64 159.26 165.80 160.23 166.50 160.74 C 167.19 161.25 168.17 161.09 168.68 160.40 Z M 169.26 159.59 L 169.83 158.80 C 170.33 158.10 170.16 157.12 169.46 156.62 C 168.75 156.12 167.78 156.29 167.28 156.99 L 166.72 157.78 C 166.22 158.48 166.38 159.46 167.09 159.96 C 167.79 160.46 168.76 160.29 169.26 159.59 Z M 169.83 158.79 L 170.41 157.96 C 170.90 157.25 170.73 156.28 170.02 155.78 C 169.31 155.29 168.34 155.47 167.85 156.17 L 167.27 157.00 C 166.78 157.71 166.95 158.68 167.66 159.18 C 168.37 159.67 169.34 159.49 169.83 158.79 Z M 170.42 157.95 L 170.99 157.10 C 171.48 156.39 171.29 155.42 170.58 154.94 C 169.87 154.45 168.90 154.63 168.41 155.35 L 167.84 156.19 C 167.35 156.90 167.54 157.87 168.25 158.36 C 168.96 158.84 169.93 158.66 170.42 157.95 Z M 171.00 157.09 L 171.56 156.25 C 172.04 155.54 171.84 154.57 171.13 154.09 C 170.41 153.61 169.44 153.81 168.96 154.52 L 168.40 155.36 C 167.93 156.08 168.12 157.05 168.84 157.52 C 169.56 158.00 170.52 157.81 171.00 157.09 Z M 171.57 156.24 L 172.11 155.41 C 172.58 154.69 172.37 153.72 171.65 153.25 C 170.92 152.78 169.96 152.99 169.49 153.71 L 168.95 154.54 C 168.48 155.26 168.69 156.23 169.41 156.70 C 170.13 157.17 171.10 156.96 171.57 156.24 Z M 172.12 155.39 L 172.64 154.57 C 173.10 153.84 172.88 152.88 172.15 152.42 C 171.42 151.96 170.45 152.18 169.99 152.91 L 169.48 153.73 C 169.02 154.46 169.24 155.42 169.97 155.88 C 170.70 156.34 171.66 156.12 172.12 155.39 Z M 172.65 154.55 L 173.19 153.66 C 173.64 152.92 173.41 151.96 172.67 151.51 C 171.93 151.06 170.97 151.30 170.53 152.03 L 169.98 152.93 C 169.53 153.66 169.77 154.62 170.50 155.07 C 171.24 155.52 172.20 155.29 172.65 154.55 Z M 173.21 153.64 L 173.72 152.76 C 174.16 152.02 173.91 151.06 173.16 150.62 C 172.42 150.19 171.46 150.44 171.03 151.18 L 170.51 152.06 C 170.08 152.80 170.33 153.76 171.07 154.19 C 171.81 154.63 172.77 154.38 173.21 153.64 Z M 173.73 152.73 L 174.22 151.87 C 174.64 151.12 174.37 150.17 173.62 149.75 C 172.87 149.32 171.92 149.59 171.50 150.34 L 171.01 151.20 C 170.59 151.96 170.86 152.91 171.61 153.33 C 172.36 153.75 173.31 153.49 173.73 152.73 Z M 174.23 151.85 L 174.69 151.00 C 175.10 150.24 174.81 149.29 174.05 148.88 C 173.29 148.48 172.35 148.76 171.94 149.52 L 171.48 150.37 C 171.07 151.13 171.36 152.07 172.12 152.48 C 172.88 152.89 173.82 152.61 174.23 151.85 Z M 174.70 150.97 L 175.17 150.06 C 175.56 149.29 175.26 148.35 174.49 147.96 C 173.72 147.56 172.78 147.87 172.39 148.64 L 171.92 149.55 C 171.53 150.32 171.84 151.26 172.60 151.65 C 173.37 152.04 174.31 151.74 174.70 150.97 Z M 175.19 150.02 L 175.63 149.10 C 176.00 148.32 175.68 147.39 174.90 147.02 C 174.12 146.64 173.19 146.97 172.81 147.75 L 172.37 148.67 C 172.00 149.45 172.33 150.38 173.10 150.75 C 173.88 151.13 174.81 150.80 175.19 150.02 Z M 175.65 149.06 L 176.05 148.16 C 176.40 147.37 176.05 146.44 175.26 146.09 C 174.47 145.74 173.55 146.10 173.20 146.89 L 172.80 147.79 C 172.45 148.58 172.80 149.50 173.59 149.85 C 174.38 150.20 175.30 149.85 175.65 149.06 Z M 176.07 148.11 L 176.43 147.22 C 176.75 146.42 176.37 145.51 175.57 145.19 C 174.77 144.87 173.86 145.25 173.53 146.05 L 173.18 146.94 C 172.85 147.74 173.24 148.65 174.04 148.97 C 174.84 149.29 175.75 148.91 176.07 148.11 Z M 176.45 147.16 L 176.77 146.27 C 177.06 145.46 176.64 144.57 175.83 144.28 C 175.01 143.99 174.12 144.41 173.83 145.22 L 173.51 146.11 C 173.22 146.92 173.64 147.82 174.46 148.11 C 175.27 148.40 176.16 147.97 176.45 147.16 Z M 176.79 146.20 L 177.07 145.28 C 177.32 144.46 176.85 143.59 176.03 143.34 C 175.20 143.09 174.33 143.56 174.08 144.38 L 173.80 145.30 C 173.56 146.12 174.02 146.99 174.85 147.24 C 175.67 147.49 176.55 147.02 176.79 146.20 Z M 177.09 145.20 L 177.33 144.21 C 177.53 143.38 177.02 142.53 176.18 142.33 C 175.34 142.13 174.50 142.64 174.30 143.48 L 174.06 144.47 C 173.86 145.31 174.37 146.15 175.21 146.35 C 176.05 146.55 176.89 146.04 177.09 145.20 Z M 177.35 144.13 L 177.54 143.08 C 177.70 142.23 177.14 141.42 176.30 141.26 C 175.45 141.10 174.63 141.66 174.48 142.51 L 174.28 143.56 C 174.12 144.41 174.68 145.22 175.53 145.38 C 176.37 145.54 177.19 144.98 177.35 144.13 Z M 177.56 143.00 L 177.69 142.01 C 177.80 141.15 177.20 140.37 176.35 140.25 C 175.50 140.14 174.71 140.74 174.60 141.59 L 174.46 142.58 C 174.35 143.44 174.95 144.23 175.80 144.34 C 176.66 144.45 177.44 143.85 177.56 143.00 Z M 177.70 141.89 L 177.76 140.86 C 177.81 140.00 177.15 139.26 176.29 139.21 C 175.43 139.17 174.69 139.82 174.64 140.68 L 174.58 141.71 C 174.53 142.57 175.19 143.31 176.05 143.36 C 176.91 143.41 177.65 142.75 177.70 141.89 Z M 177.76 140.68 L 177.70 139.67 C 177.65 138.81 176.91 138.15 176.05 138.20 C 175.19 138.25 174.53 138.99 174.58 139.85 L 174.64 140.87 C 174.69 141.73 175.43 142.38 176.29 142.33 C 177.16 142.28 177.81 141.54 177.76 140.68 Z M 177.66 139.40 L 177.43 138.46 C 177.23 137.62 176.39 137.10 175.55 137.30 C 174.72 137.50 174.20 138.34 174.40 139.18 L 174.62 140.12 C 174.82 140.96 175.66 141.48 176.50 141.28 C 177.34 141.08 177.86 140.24 177.66 139.40 Z M 177.29 138.09 L 176.83 137.22 C 176.43 136.46 175.48 136.17 174.72 136.57 C 173.96 136.98 173.67 137.92 174.08 138.68 L 174.54 139.55 C 174.94 140.31 175.89 140.60 176.65 140.20 C 177.41 139.79 177.70 138.85 177.29 138.09 Z M 176.60 136.89 L 175.91 136.15 C 175.32 135.52 174.34 135.49 173.71 136.07 C 173.07 136.66 173.04 137.65 173.63 138.28 L 174.31 139.02 C 174.90 139.65 175.89 139.68 176.52 139.09 C 177.15 138.51 177.18 137.52 176.60 136.89 Z M 175.68 135.95 L 174.86 135.36 C 174.16 134.86 173.18 135.02 172.68 135.72 C 172.18 136.42 172.34 137.39 173.04 137.89 L 173.86 138.48 C 174.56 138.99 175.53 138.83 176.04 138.13 C 176.54 137.43 176.38 136.45 175.68 135.95 Z M 174.67 135.24 L 173.79 134.79 C 173.03 134.39 172.08 134.69 171.69 135.45 C 171.29 136.22 171.59 137.16 172.35 137.56 L 173.23 138.01 C 174.00 138.41 174.94 138.11 175.33 137.35 C 175.73 136.58 175.43 135.64 174.67 135.24 Z M 173.63 134.71 L 172.68 134.35 C 171.87 134.04 170.97 134.44 170.66 135.24 C 170.35 136.05 170.75 136.95 171.56 137.26 L 172.51 137.63 C 173.32 137.94 174.22 137.54 174.53 136.73 C 174.84 135.93 174.44 135.02 173.63 134.71 Z M 172.52 134.30 L 171.53 134.03 C 170.70 133.81 169.84 134.31 169.62 135.14 C 169.40 135.98 169.90 136.83 170.73 137.05 L 171.72 137.31 C 172.55 137.53 173.40 137.04 173.63 136.20 C 173.85 135.37 173.35 134.52 172.52 134.30 Z M 171.38 134.00 L 170.43 133.85 C 169.58 133.71 168.78 134.29 168.64 135.14 C 168.50 135.99 169.08 136.79 169.93 136.93 L 170.88 137.08 C 171.73 137.22 172.53 136.64 172.67 135.79 C 172.81 134.94 172.23 134.14 171.38 134.00 Z M 170.33 133.83 L 169.38 133.74 C 168.52 133.66 167.76 134.29 167.67 135.14 C 167.59 136.00 168.22 136.77 169.08 136.85 L 170.03 136.94 C 170.89 137.02 171.65 136.40 171.73 135.54 C 171.82 134.68 171.19 133.92 170.33 133.83 Z M 169.33 133.74 L 168.37 133.67 C 167.51 133.62 166.76 134.27 166.71 135.13 C 166.65 135.99 167.30 136.73 168.16 136.79 L 169.12 136.85 C 169.98 136.91 170.73 136.26 170.79 135.40 C 170.84 134.54 170.19 133.79 169.33 133.74 Z M 168.34 133.67 L 167.34 133.63 C 166.48 133.59 165.75 134.25 165.71 135.12 C 165.67 135.98 166.34 136.71 167.20 136.75 L 168.20 136.79 C 169.06 136.83 169.79 136.16 169.83 135.30 C 169.86 134.44 169.20 133.71 168.34 133.67 Z M 167.32 133.63 L 166.29 133.60 C 165.42 133.57 164.71 134.25 164.68 135.11 C 164.66 135.97 165.33 136.69 166.20 136.72 L 167.23 136.75 C 168.09 136.77 168.81 136.09 168.83 135.23 C 168.86 134.37 168.18 133.65 167.32 133.63 Z M 166.27 133.60 L 165.26 133.58 C 164.40 133.56 163.68 134.25 163.67 135.11 C 163.66 135.98 164.34 136.69 165.21 136.70 L 166.22 136.72 C 167.08 136.73 167.79 136.05 167.80 135.18 C 167.82 134.32 167.13 133.61 166.27 133.60 Z M 165.24 133.58 L 164.24 133.57 C 163.38 133.56 162.67 134.26 162.67 135.12 C 162.66 135.98 163.35 136.69 164.21 136.69 L 165.22 136.70 C 166.08 136.71 166.78 136.02 166.79 135.15 C 166.80 134.29 166.11 133.59 165.24 133.58 Z M 164.23 133.57 L 163.22 133.57 C 162.36 133.56 161.66 134.26 161.66 135.12 C 161.66 135.99 162.35 136.69 163.21 136.69 L 164.22 136.69 C 165.08 136.70 165.78 136.00 165.79 135.14 C 165.79 134.27 165.09 133.57 164.23 133.57 Z M 163.22 133.57 L 162.22 133.57 C 161.36 133.57 160.66 134.26 160.66 135.13 C 160.66 135.99 161.36 136.69 162.22 136.69 L 163.22 136.69 C 164.08 136.69 164.78 135.99 164.78 135.13 C 164.78 134.27 164.08 133.57 163.22 133.57 Z M 162.22 133.57 L 161.19 133.57 C 160.33 133.57 159.63 134.27 159.64 135.14 C 159.64 136.00 160.34 136.70 161.20 136.69 L 162.23 136.69 C 163.09 136.69 163.79 135.98 163.79 135.12 C 163.78 134.26 163.08 133.56 162.22 133.57 Z M 161.16 133.57 L 160.16 133.60 C 159.29 133.62 158.61 134.34 158.64 135.20 C 158.66 136.06 159.38 136.74 160.24 136.72 L 161.24 136.69 C 162.10 136.67 162.78 135.95 162.76 135.09 C 162.74 134.23 162.02 133.55 161.16 133.57 Z M 160.08 133.60 L 159.10 133.68 C 158.24 133.74 157.59 134.50 157.66 135.35 C 157.73 136.21 158.48 136.86 159.34 136.79 L 160.32 136.72 C 161.18 136.65 161.82 135.90 161.75 135.04 C 161.69 134.18 160.94 133.54 160.08 133.60 Z M 158.98 133.69 L 158.00 133.84 C 157.15 133.97 156.56 134.77 156.69 135.62 C 156.83 136.47 157.62 137.06 158.48 136.93 L 159.45 136.78 C 160.31 136.65 160.89 135.85 160.76 135.00 C 160.63 134.15 159.83 133.56 158.98 133.69 Z M 157.88 133.87 L 156.90 134.10 C 156.06 134.30 155.54 135.14 155.74 135.98 C 155.94 136.82 156.78 137.34 157.62 137.14 L 158.60 136.90 C 159.44 136.71 159.96 135.86 159.76 135.03 C 159.56 134.19 158.72 133.67 157.88 133.87 Z M 156.81 134.12 L 155.85 134.41 C 155.02 134.66 154.56 135.53 154.80 136.36 C 155.05 137.18 155.92 137.65 156.75 137.40 L 157.71 137.11 C 158.53 136.86 159.00 135.99 158.75 135.17 C 158.50 134.34 157.63 133.87 156.81 134.12 Z M 155.79 134.43 L 154.85 134.76 C 154.04 135.04 153.61 135.93 153.89 136.74 C 154.17 137.56 155.06 137.99 155.88 137.71 L 156.81 137.38 C 157.63 137.10 158.06 136.21 157.77 135.39 C 157.49 134.58 156.60 134.15 155.79 134.43 Z M 154.81 134.77 L 153.86 135.13 C 153.06 135.43 152.65 136.33 152.95 137.14 C 153.26 137.95 154.16 138.35 154.96 138.05 L 155.92 137.69 C 156.72 137.39 157.13 136.49 156.83 135.68 C 156.52 134.87 155.62 134.47 154.81 134.77 Z M 153.83 135.14 L 152.91 135.51 C 152.11 135.83 151.72 136.74 152.04 137.54 C 152.36 138.34 153.27 138.73 154.07 138.41 L 155.00 138.04 C 155.80 137.72 156.18 136.81 155.86 136.01 C 155.54 135.21 154.63 134.82 153.83 135.14 Z M 152.88 135.52 L 151.97 135.90 C 151.18 136.24 150.81 137.15 151.14 137.95 C 151.48 138.74 152.39 139.12 153.19 138.78 L 154.10 138.40 C 154.89 138.06 155.26 137.15 154.93 136.35 C 154.59 135.56 153.68 135.19 152.88 135.52 Z M 151.95 135.91 L 151.14 136.27 C 150.35 136.61 149.99 137.53 150.34 138.32 C 150.68 139.11 151.60 139.47 152.39 139.13 L 153.20 138.77 C 153.99 138.43 154.35 137.51 154.01 136.72 C 153.66 135.93 152.74 135.57 151.95 135.91 Z M 151.12 136.28 L 150.28 136.66 C 149.50 137.02 149.15 137.95 149.51 138.73 C 149.87 139.52 150.80 139.86 151.58 139.50 L 152.42 139.12 C 153.20 138.76 153.54 137.83 153.19 137.05 C 152.83 136.26 151.90 135.92 151.12 136.28 Z M 150.25 136.68 L 149.32 137.13 C 148.55 137.51 148.22 138.44 148.60 139.22 C 148.98 139.99 149.91 140.31 150.69 139.94 L 151.61 139.49 C 152.39 139.11 152.71 138.17 152.33 137.40 C 151.96 136.62 151.02 136.30 150.25 136.68 Z M 149.29 137.14 L 148.27 137.67 C 147.51 138.06 147.21 139.00 147.60 139.77 C 147.99 140.54 148.93 140.84 149.70 140.44 L 150.72 139.92 C 151.48 139.53 151.79 138.59 151.39 137.82 C 151.00 137.05 150.06 136.75 149.29 137.14 Z M 148.25 137.68 L 147.44 138.11 C 146.68 138.52 146.40 139.47 146.80 140.23 C 147.21 140.99 148.16 141.27 148.92 140.86 L 149.73 140.43 C 150.49 140.02 150.77 139.08 150.36 138.32 C 149.96 137.56 149.01 137.27 148.25 137.68 Z M 147.42 138.13 L 146.55 138.61 C 145.80 139.03 145.53 139.98 145.95 140.73 C 146.38 141.49 147.33 141.76 148.08 141.33 L 148.94 140.85 C 149.69 140.43 149.96 139.48 149.54 138.73 C 149.12 137.97 148.17 137.71 147.42 138.13 Z M 146.52 138.63 L 145.64 139.15 C 144.89 139.59 144.65 140.54 145.08 141.29 C 145.52 142.03 146.48 142.28 147.22 141.84 L 148.11 141.32 C 148.85 140.88 149.10 139.92 148.66 139.18 C 148.22 138.44 147.27 138.19 146.52 138.63 Z M 145.60 139.17 L 144.71 139.73 C 143.98 140.18 143.76 141.15 144.22 141.88 C 144.68 142.61 145.64 142.83 146.37 142.37 L 147.26 141.82 C 147.99 141.36 148.21 140.40 147.75 139.67 C 147.29 138.93 146.33 138.71 145.60 139.17 Z M 144.67 139.76 L 143.81 140.34 C 143.10 140.82 142.91 141.79 143.40 142.50 C 143.88 143.22 144.85 143.40 145.56 142.92 L 146.42 142.34 C 147.13 141.86 147.32 140.89 146.84 140.17 C 146.35 139.46 145.38 139.27 144.67 139.76 Z M 143.75 140.38 L 142.89 141.02 C 142.20 141.54 142.06 142.51 142.58 143.21 C 143.09 143.90 144.07 144.04 144.76 143.52 L 145.62 142.88 C 146.31 142.36 146.46 141.38 145.94 140.69 C 145.42 140.00 144.45 139.86 143.75 140.38 Z M 142.83 141.07 L 142.01 141.75 C 141.35 142.31 141.26 143.29 141.82 143.95 C 142.37 144.62 143.36 144.70 144.02 144.15 L 144.83 143.47 C 145.49 142.91 145.58 141.93 145.03 141.27 C 144.47 140.61 143.49 140.52 142.83 141.07 Z M 141.95 141.81 L 141.21 142.51 C 140.58 143.10 140.55 144.08 141.14 144.71 C 141.73 145.34 142.72 145.37 143.35 144.78 L 144.08 144.09 C 144.71 143.50 144.74 142.51 144.15 141.88 C 143.56 141.25 142.57 141.22 141.95 141.81 Z M 141.14 142.57 L 140.48 143.27 C 139.89 143.90 139.92 144.88 140.54 145.48 C 141.17 146.07 142.16 146.04 142.75 145.42 L 143.41 144.72 C 144.00 144.09 143.98 143.10 143.35 142.51 C 142.73 141.92 141.74 141.94 141.14 142.57 Z M 140.42 143.34 L 139.83 144.04 C 139.27 144.70 139.36 145.69 140.02 146.24 C 140.68 146.80 141.66 146.71 142.22 146.05 L 142.81 145.35 C 143.37 144.69 143.28 143.70 142.62 143.15 C 141.96 142.59 140.98 142.68 140.42 143.34 Z M 139.77 144.12 L 139.17 144.94 C 138.65 145.63 138.80 146.61 139.49 147.12 C 140.19 147.63 141.17 147.48 141.68 146.79 L 142.28 145.97 C 142.79 145.28 142.65 144.30 141.95 143.79 C 141.26 143.28 140.28 143.43 139.77 144.12 Z M 139.11 145.01 L 138.56 145.86 C 138.09 146.59 138.30 147.56 139.02 148.02 C 139.74 148.49 140.71 148.29 141.18 147.56 L 141.73 146.71 C 142.20 145.99 141.99 145.02 141.27 144.55 C 140.55 144.08 139.58 144.29 139.11 145.01 Z M 138.52 145.93 L 138.03 146.78 C 137.59 147.52 137.84 148.48 138.59 148.91 C 139.33 149.35 140.29 149.10 140.72 148.35 L 141.22 147.50 C 141.65 146.76 141.40 145.80 140.66 145.37 C 139.91 144.93 138.96 145.18 138.52 145.93 Z M 138.00 146.81 L 137.54 147.66 C 137.12 148.42 137.40 149.37 138.16 149.78 C 138.91 150.20 139.86 149.92 140.28 149.17 L 140.74 148.32 C 141.16 147.56 140.88 146.61 140.12 146.20 C 139.37 145.78 138.42 146.06 138.00 146.81 Z M 137.53 147.67 L 137.40 147.92 C 136.99 148.68 137.28 149.63 138.04 150.03 C 138.79 150.44 139.74 150.16 140.15 149.40 L 140.28 149.16 C 140.69 148.40 140.41 147.45 139.65 147.04 C 138.89 146.63 137.94 146.92 137.53 147.67 Z"
      fill="black"
      fill-rule="nonzero" /></svg>