<svg xmlns="http://www.w3.org/2000/svg" width="300" height="300" viewBox="0 0 300 300">
<path d="M 151.57 135.96 L 150.56 136.00 C 149.70 136.04 149.03 136.76 149.07 137.63 C 149.11 138.49 149.84 139.16 150.70 139.12 L 151.71 139.08 C 152.57 139.04 153.24 138.31 153.20 137.45 C 153.16 136.59 152.43 135.92 151.57 135.96 Z M 150.50 136.00 L 149.50 136.09 C 148.64 136.16 148.00 136.92 148.08 137.78 C 148.15 138.64 148.91 139.27 149.77 139.20 L 150.76 139.11 C 151.62 139.04 152.26 138.28 152.19 137.43 C 152.11 136.57 151.36 135.93 150.50 136.00 Z M 149.36 136.11 L 148.39 136.28 C 147.54 136.43 146.97 137.24 147.12 138.09 C 147.27 138.94 148.08 139.50 148.93 139.35 L 149.90 139.18 C 150.75 139.03 151.32 138.22 151.17 137.38 C 151.02 136.53 150.21 135.96 149.36 136.11 Z M 148.19 136.33 L 147.27 136.62 C 146.45 136.87 145.99 137.75 146.25 138.57 C 146.51 139.40 147.39 139.85 148.21 139.59 L 149.12 139.31 C 149.95 139.05 150.40 138.17 150.15 137.35 C 149.89 136.53 149.01 136.07 148.19 136.33 Z M 147.06 136.70 L 146.23 137.10 C 145.45 137.48 145.13 138.42 145.51 139.19 C 145.89 139.97 146.82 140.29 147.60 139.91 L 148.42 139.51 C 149.20 139.13 149.52 138.20 149.14 137.42 C 148.77 136.65 147.83 136.32 147.06 136.70 Z M 146.04 137.21 L 145.24 137.75 C 144.52 138.23 144.33 139.20 144.81 139.92 C 145.29 140.63 146.26 140.83 146.98 140.34 L 147.78 139.80 C 148.50 139.32 148.69 138.35 148.21 137.64 C 147.73 136.92 146.76 136.73 146.04 137.21 Z M 145.09 137.87 L 144.30 138.55 C 143.64 139.11 143.57 140.10 144.14 140.75 C 144.70 141.40 145.68 141.48 146.34 140.91 L 147.13 140.23 C 147.78 139.67 147.85 138.68 147.29 138.03 C 146.73 137.38 145.74 137.30 145.09 137.87 Z M 144.18 138.66 L 143.44 139.44 C 142.85 140.07 142.87 141.05 143.50 141.65 C 144.13 142.24 145.11 142.21 145.71 141.59 L 146.45 140.81 C 147.04 140.18 147.02 139.19 146.39 138.60 C 145.77 138.01 144.78 138.03 144.18 138.66 Z M 143.37 139.52 L 142.75 140.28 C 142.20 140.95 142.30 141.93 142.96 142.48 C 143.63 143.02 144.61 142.93 145.16 142.26 L 145.78 141.51 C 146.33 140.84 146.23 139.86 145.57 139.31 C 144.90 138.76 143.92 138.86 143.37 139.52 Z M 142.70 140.34 L 142.09 141.16 C 141.58 141.85 141.72 142.83 142.42 143.34 C 143.11 143.86 144.09 143.71 144.60 143.02 L 145.21 142.20 C 145.72 141.51 145.58 140.53 144.88 140.02 C 144.19 139.50 143.21 139.65 142.70 140.34 Z M 142.06 141.21 L 141.48 142.06 C 140.99 142.77 141.18 143.75 141.89 144.23 C 142.60 144.72 143.57 144.53 144.06 143.82 L 144.64 142.97 C 145.12 142.25 144.94 141.28 144.22 140.80 C 143.51 140.31 142.54 140.50 142.06 141.21 Z M 141.45 142.11 L 140.91 142.96 C 140.45 143.69 140.67 144.66 141.40 145.12 C 142.13 145.58 143.09 145.36 143.55 144.63 L 144.09 143.77 C 144.55 143.04 144.33 142.08 143.60 141.62 C 142.87 141.16 141.91 141.38 141.45 142.11 Z M 140.88 143.01 L 140.38 143.86 C 139.95 144.61 140.20 145.56 140.94 146.00 C 141.69 146.43 142.64 146.18 143.08 145.44 L 143.58 144.58 C 144.01 143.84 143.76 142.88 143.02 142.45 C 142.27 142.01 141.32 142.26 140.88 143.01 Z M 140.35 143.91 L 139.86 144.82 C 139.46 145.58 139.74 146.53 140.50 146.94 C 141.26 147.35 142.21 147.06 142.61 146.30 L 143.10 145.39 C 143.51 144.63 143.23 143.68 142.47 143.28 C 141.71 142.87 140.76 143.15 140.35 143.91 Z M 139.84 144.88 L 139.40 145.76 C 139.03 146.54 139.35 147.47 140.12 147.85 C 140.90 148.23 141.83 147.91 142.21 147.13 L 142.64 146.25 C 143.02 145.47 142.70 144.54 141.92 144.16 C 141.15 143.78 140.21 144.10 139.84 144.88 Z M 139.38 145.81 L 138.99 146.70 C 138.64 147.49 138.99 148.41 139.78 148.76 C 140.57 149.11 141.49 148.75 141.84 147.97 L 142.23 147.08 C 142.58 146.29 142.23 145.37 141.44 145.02 C 140.65 144.67 139.73 145.02 139.38 145.81 Z M 138.97 146.74 L 138.59 147.66 C 138.27 148.46 138.65 149.37 139.45 149.70 C 140.24 150.02 141.16 149.64 141.48 148.84 L 141.86 147.92 C 142.19 147.13 141.80 146.21 141.01 145.89 C 140.21 145.56 139.30 145.94 138.97 146.74 Z M 138.58 147.69 L 138.24 148.58 C 137.93 149.38 138.33 150.28 139.13 150.59 C 139.94 150.90 140.84 150.50 141.15 149.70 L 141.49 148.81 C 141.80 148.01 141.40 147.11 140.60 146.79 C 139.80 146.48 138.89 146.88 138.58 147.69 Z M 138.23 148.60 L 137.90 149.50 C 137.60 150.31 138.01 151.21 138.82 151.51 C 139.63 151.81 140.53 151.39 140.83 150.58 L 141.16 149.68 C 141.46 148.87 141.05 147.97 140.24 147.67 C 139.43 147.37 138.53 147.79 138.23 148.60 Z M 137.89 149.52 L 137.56 150.47 C 137.27 151.28 137.69 152.17 138.51 152.46 C 139.32 152.75 140.21 152.32 140.50 151.51 L 140.83 150.56 C 141.12 149.75 140.69 148.86 139.88 148.57 C 139.07 148.28 138.18 148.71 137.89 149.52 Z M 137.55 150.48 L 137.22 151.46 C 136.94 152.27 137.38 153.16 138.19 153.44 C 139.01 153.72 139.90 153.28 140.17 152.46 L 140.50 151.49 C 140.78 150.67 140.35 149.79 139.53 149.51 C 138.71 149.23 137.83 149.67 137.55 150.48 Z M 137.21 151.48 L 136.89 152.47 C 136.62 153.29 137.07 154.17 137.89 154.44 C 138.71 154.71 139.59 154.26 139.86 153.44 L 140.18 152.44 C 140.45 151.62 140.00 150.74 139.18 150.48 C 138.36 150.21 137.48 150.66 137.21 151.48 Z M 136.88 152.49 L 136.58 153.44 C 136.33 154.26 136.79 155.14 137.61 155.39 C 138.43 155.65 139.31 155.19 139.56 154.37 L 139.86 153.42 C 140.12 152.60 139.66 151.72 138.84 151.47 C 138.01 151.21 137.14 151.67 136.88 152.49 Z M 136.58 153.46 L 136.30 154.40 C 136.05 155.22 136.52 156.09 137.35 156.34 C 138.17 156.59 139.04 156.12 139.29 155.29 L 139.57 154.35 C 139.82 153.53 139.35 152.66 138.52 152.41 C 137.70 152.16 136.83 152.63 136.58 153.46 Z M 136.29 154.42 L 136.02 155.37 C 135.78 156.20 136.26 157.06 137.09 157.30 C 137.92 157.54 138.78 157.06 139.02 156.23 L 139.29 155.27 C 139.53 154.44 139.05 153.58 138.22 153.34 C 137.39 153.11 136.53 153.59 136.29 154.42 Z M 136.01 155.39 L 135.75 156.36 C 135.52 157.19 136.02 158.05 136.85 158.27 C 137.68 158.50 138.54 158.01 138.76 157.18 L 139.03 156.21 C 139.25 155.37 138.76 154.52 137.93 154.29 C 137.10 154.06 136.24 154.56 136.01 155.39 Z M 135.75 156.38 L 135.49 157.36 C 135.28 158.20 135.78 159.05 136.61 159.26 C 137.45 159.48 138.30 158.98 138.51 158.14 L 138.77 157.16 C 138.98 156.32 138.48 155.47 137.65 155.25 C 136.81 155.04 135.96 155.54 135.75 156.38 Z M 135.49 157.38 L 135.25 158.37 C 135.04 159.20 135.56 160.05 136.39 160.25 C 137.23 160.46 138.08 159.94 138.28 159.11 L 138.52 158.12 C 138.72 157.28 138.21 156.44 137.37 156.24 C 136.53 156.03 135.69 156.55 135.49 157.38 Z M 135.24 158.39 L 135.02 159.33 C 134.83 160.17 135.35 161.01 136.19 161.21 C 137.03 161.40 137.87 160.88 138.07 160.04 L 138.28 159.09 C 138.48 158.25 137.95 157.41 137.11 157.22 C 136.27 157.02 135.44 157.55 135.24 158.39 Z M 135.02 159.35 L 134.81 160.32 C 134.62 161.16 135.16 161.99 136.00 162.18 C 136.84 162.36 137.67 161.83 137.86 160.98 L 138.07 160.02 C 138.25 159.18 137.72 158.34 136.88 158.16 C 136.04 157.98 135.20 158.51 135.02 159.35 Z M 134.80 160.33 L 134.60 161.31 C 134.43 162.16 134.97 162.98 135.81 163.16 C 136.66 163.33 137.48 162.79 137.66 161.95 L 137.86 160.97 C 138.04 160.12 137.49 159.30 136.65 159.12 C 135.81 158.95 134.98 159.49 134.80 160.33 Z M 134.60 161.33 L 134.40 162.32 C 134.23 163.17 134.78 163.99 135.63 164.15 C 136.48 164.32 137.30 163.77 137.46 162.93 L 137.66 161.93 C 137.83 161.09 137.28 160.27 136.43 160.10 C 135.59 159.93 134.76 160.48 134.60 161.33 Z M 134.40 162.34 L 134.21 163.34 C 134.05 164.19 134.61 165.00 135.46 165.16 C 136.30 165.32 137.12 164.76 137.28 163.91 L 137.47 162.91 C 137.63 162.06 137.07 161.25 136.22 161.09 C 135.37 160.93 134.56 161.49 134.40 162.34 Z M 134.21 163.35 L 134.03 164.35 C 133.88 165.20 134.44 166.01 135.29 166.16 C 136.14 166.31 136.95 165.75 137.10 164.90 L 137.28 163.90 C 137.43 163.05 136.87 162.24 136.02 162.09 C 135.17 161.94 134.36 162.50 134.21 163.35 Z M 134.03 164.36 L 133.86 165.35 C 133.72 166.20 134.29 167.01 135.14 167.15 C 135.99 167.30 136.79 166.72 136.94 165.87 L 137.11 164.89 C 137.25 164.04 136.68 163.23 135.83 163.09 C 134.98 162.94 134.17 163.51 134.03 164.36 Z M 133.86 165.36 L 133.70 166.36 C 133.56 167.21 134.14 168.01 134.99 168.14 C 135.84 168.28 136.64 167.70 136.78 166.85 L 136.94 165.86 C 137.08 165.01 136.50 164.21 135.65 164.07 C 134.80 163.93 133.99 164.51 133.86 165.36 Z M 133.70 166.37 L 133.54 167.36 C 133.41 168.21 134.00 169.01 134.85 169.14 C 135.71 169.27 136.50 168.68 136.63 167.83 L 136.78 166.84 C 136.91 165.99 136.33 165.19 135.47 165.06 C 134.62 164.93 133.83 165.52 133.70 166.37 Z M 133.54 167.37 L 133.40 168.37 C 133.28 169.22 133.87 170.01 134.72 170.13 C 135.58 170.25 136.37 169.66 136.49 168.81 L 136.63 167.82 C 136.76 166.96 136.16 166.17 135.31 166.05 C 134.46 165.93 133.66 166.52 133.54 167.37 Z M 133.40 168.38 L 133.27 169.37 C 133.15 170.22 133.75 171.01 134.61 171.12 C 135.46 171.24 136.25 170.64 136.36 169.78 L 136.49 168.79 C 136.61 167.94 136.01 167.15 135.15 167.04 C 134.30 166.93 133.51 167.53 133.40 168.38 Z M 133.26 169.38 L 133.14 170.39 C 133.03 171.24 133.64 172.02 134.50 172.13 C 135.35 172.23 136.13 171.62 136.24 170.77 L 136.36 169.77 C 136.47 168.91 135.86 168.13 135.01 168.03 C 134.15 167.92 133.37 168.53 133.26 169.38 Z M 133.14 170.40 L 133.02 171.44 C 132.92 172.29 133.54 173.07 134.40 173.16 C 135.25 173.26 136.03 172.64 136.12 171.79 L 136.24 170.75 C 136.34 169.90 135.72 169.12 134.87 169.03 C 134.01 168.93 133.24 169.54 133.14 170.40 Z M 133.02 171.45 L 132.92 172.47 C 132.83 173.33 133.45 174.10 134.31 174.18 C 135.17 174.27 135.93 173.65 136.02 172.79 L 136.13 171.77 C 136.21 170.91 135.59 170.15 134.73 170.06 C 133.87 169.97 133.11 170.60 133.02 171.45 Z M 132.91 172.49 L 132.82 173.49 C 132.75 174.35 133.38 175.11 134.24 175.19 C 135.10 175.27 135.86 174.63 135.93 173.77 L 136.02 172.77 C 136.10 171.91 135.47 171.15 134.61 171.08 C 133.75 171.00 132.99 171.63 132.91 172.49 Z M 132.82 173.51 L 132.75 174.49 C 132.68 175.35 133.32 176.10 134.18 176.17 C 135.04 176.24 135.79 175.59 135.86 174.73 L 135.93 173.75 C 136.00 172.89 135.36 172.14 134.50 172.08 C 133.64 172.01 132.89 172.65 132.82 173.51 Z M 132.74 174.51 L 132.68 175.47 C 132.63 176.33 133.28 177.07 134.14 177.13 C 135.00 177.18 135.75 176.53 135.80 175.67 L 135.86 174.71 C 135.92 173.85 135.26 173.11 134.40 173.06 C 133.54 173.00 132.80 173.65 132.74 174.51 Z M 132.68 175.49 L 132.63 176.51 C 132.59 177.37 133.26 178.10 134.12 178.14 C 134.98 178.18 135.71 177.52 135.75 176.66 L 135.80 175.64 C 135.84 174.78 135.18 174.05 134.32 174.01 C 133.46 173.97 132.72 174.63 132.68 175.49 Z M 132.63 176.53 L 132.60 177.58 C 132.57 178.44 133.25 179.16 134.11 179.18 C 134.97 179.21 135.69 178.54 135.72 177.67 L 135.75 176.63 C 135.78 175.77 135.10 175.05 134.24 175.02 C 133.38 175.00 132.66 175.67 132.63 176.53 Z M 132.60 177.60 L 132.58 178.60 C 132.57 179.46 133.25 180.18 134.12 180.19 C 134.98 180.21 135.69 179.52 135.70 178.66 L 135.72 177.65 C 135.74 176.79 135.05 176.08 134.19 176.06 C 133.33 176.05 132.62 176.73 132.60 177.60 Z M 132.58 178.62 L 132.57 179.59 C 132.57 180.46 133.26 181.16 134.12 181.17 C 134.99 181.17 135.69 180.48 135.70 179.62 L 135.70 178.64 C 135.71 177.78 135.02 177.08 134.15 177.07 C 133.29 177.06 132.59 177.76 132.58 178.62 Z M 132.57 179.60 L 132.57 180.55 C 132.57 181.42 133.27 182.12 134.13 182.12 C 134.99 182.12 135.69 181.42 135.69 180.56 L 135.70 179.61 C 135.70 178.75 135.00 178.05 134.14 178.04 C 133.28 178.04 132.58 178.74 132.57 179.60 Z M 132.57 180.56 L 132.58 181.57 C 132.58 182.43 133.28 183.13 134.14 183.13 C 135.00 183.13 135.70 182.43 135.70 181.56 L 135.69 180.55 C 135.69 179.69 134.99 178.99 134.13 179.00 C 133.27 179.00 132.57 179.70 132.57 180.56 Z M 132.58 181.62 L 132.61 182.64 C 132.64 183.50 133.37 184.17 134.23 184.14 C 135.09 184.11 135.76 183.39 135.73 182.53 L 135.70 181.51 C 135.67 180.65 134.94 179.98 134.08 180.01 C 133.22 180.04 132.55 180.76 132.58 181.62 Z M 132.62 182.76 L 132.74 183.75 C 132.84 184.60 133.61 185.22 134.47 185.12 C 135.32 185.02 135.94 184.24 135.84 183.39 L 135.72 182.40 C 135.62 181.55 134.85 180.93 133.99 181.03 C 133.13 181.13 132.52 181.91 132.62 182.76 Z M 132.77 183.95 L 133.01 184.89 C 133.23 185.73 134.08 186.23 134.91 186.02 C 135.75 185.81 136.25 184.96 136.04 184.12 L 135.80 183.18 C 135.59 182.34 134.74 181.84 133.90 182.05 C 133.07 182.27 132.56 183.12 132.77 183.95 Z M 133.11 185.16 L 133.50 186.02 C 133.86 186.81 134.79 187.15 135.57 186.79 C 136.36 186.43 136.70 185.51 136.34 184.72 L 135.95 183.86 C 135.59 183.07 134.66 182.73 133.88 183.09 C 133.09 183.45 132.75 184.37 133.11 185.16 Z M 133.65 186.28 L 134.19 187.04 C 134.69 187.74 135.67 187.91 136.37 187.41 C 137.07 186.91 137.24 185.93 136.74 185.23 L 136.20 184.47 C 135.70 183.76 134.72 183.60 134.02 184.10 C 133.32 184.60 133.15 185.57 133.65 186.28 Z M 134.36 187.24 L 135.06 187.93 C 135.67 188.54 136.65 188.54 137.26 187.93 C 137.87 187.32 137.87 186.33 137.26 185.72 L 136.57 185.03 C 135.96 184.42 134.97 184.42 134.36 185.03 C 133.75 185.64 133.75 186.63 134.36 187.24 Z M 135.24 188.09 L 136.07 188.69 C 136.77 189.19 137.74 189.03 138.25 188.33 C 138.75 187.64 138.60 186.66 137.90 186.15 L 137.07 185.56 C 136.37 185.05 135.40 185.21 134.89 185.91 C 134.39 186.61 134.54 187.58 135.24 188.09 Z M 136.27 188.81 L 137.21 189.29 C 137.98 189.68 138.92 189.38 139.31 188.61 C 139.71 187.85 139.40 186.91 138.64 186.51 L 137.69 186.03 C 136.93 185.64 135.99 185.94 135.59 186.71 C 135.20 187.48 135.50 188.42 136.27 188.81 Z M 137.42 189.38 L 138.40 189.71 C 139.22 189.99 140.10 189.56 140.38 188.74 C 140.66 187.92 140.22 187.04 139.41 186.76 L 138.43 186.42 C 137.61 186.15 136.72 186.58 136.45 187.40 C 136.17 188.21 136.60 189.10 137.42 189.38 Z M 138.58 189.76 L 139.58 189.97 C 140.43 190.15 141.26 189.61 141.43 188.77 C 141.61 187.92 141.07 187.10 140.23 186.92 L 139.23 186.71 C 138.38 186.53 137.55 187.07 137.38 187.92 C 137.20 188.76 137.74 189.59 138.58 189.76 Z M 139.73 190.00 L 140.76 190.11 C 141.62 190.21 142.39 189.59 142.48 188.73 C 142.58 187.87 141.96 187.10 141.10 187.01 L 140.08 186.89 C 139.22 186.80 138.45 187.42 138.35 188.28 C 138.26 189.13 138.88 189.90 139.73 190.00 Z M 140.89 190.12 L 141.90 190.15 C 142.77 190.17 143.48 189.49 143.51 188.63 C 143.53 187.77 142.85 187.05 141.99 187.03 L 140.97 187.00 C 140.11 186.97 139.39 187.65 139.37 188.52 C 139.35 189.38 140.03 190.10 140.89 190.12 Z M 142.02 190.15 L 142.99 190.10 C 143.85 190.06 144.52 189.33 144.48 188.47 C 144.44 187.61 143.71 186.94 142.85 186.98 L 141.87 187.03 C 141.01 187.07 140.35 187.80 140.39 188.66 C 140.43 189.52 141.16 190.19 142.02 190.15 Z M 143.11 190.09 L 144.10 189.97 C 144.95 189.87 145.56 189.09 145.46 188.23 C 145.35 187.38 144.57 186.77 143.72 186.87 L 142.73 186.99 C 141.88 187.10 141.27 187.87 141.37 188.73 C 141.47 189.59 142.25 190.20 143.11 190.09 Z M 144.24 189.95 L 145.26 189.73 C 146.10 189.54 146.64 188.71 146.46 187.87 C 146.27 187.03 145.44 186.49 144.60 186.67 L 143.58 186.90 C 142.73 187.08 142.20 187.91 142.38 188.75 C 142.56 189.59 143.39 190.13 144.24 189.95 Z M 145.42 189.68 L 146.34 189.38 C 147.16 189.11 147.61 188.23 147.34 187.41 C 147.07 186.59 146.19 186.14 145.37 186.41 L 144.44 186.72 C 143.62 186.99 143.18 187.87 143.45 188.69 C 143.72 189.51 144.60 189.95 145.42 189.68 Z M 146.49 189.32 L 147.36 188.94 C 148.15 188.59 148.50 187.67 148.16 186.88 C 147.81 186.09 146.89 185.74 146.10 186.08 L 145.23 186.47 C 144.44 186.81 144.08 187.74 144.43 188.52 C 144.77 189.31 145.70 189.67 146.49 189.32 Z M 147.46 188.89 L 148.31 188.44 C 149.07 188.04 149.36 187.09 148.95 186.33 C 148.55 185.57 147.60 185.28 146.84 185.68 L 145.99 186.13 C 145.23 186.54 144.94 187.48 145.35 188.24 C 145.75 189.01 146.70 189.29 147.46 188.89 Z M 148.38 188.40 L 149.20 187.91 C 149.94 187.46 150.18 186.51 149.74 185.77 C 149.30 185.03 148.34 184.79 147.60 185.23 L 146.77 185.72 C 146.03 186.16 145.79 187.12 146.23 187.86 C 146.68 188.60 147.64 188.84 148.38 188.40 Z M 149.26 187.87 L 150.09 187.32 C 150.81 186.84 151.01 185.87 150.53 185.15 C 150.05 184.44 149.09 184.24 148.37 184.72 L 147.54 185.27 C 146.82 185.74 146.62 186.71 147.10 187.43 C 147.57 188.15 148.54 188.35 149.26 187.87 Z M 150.15 187.28 L 150.98 186.67 C 151.67 186.17 151.82 185.19 151.32 184.49 C 150.81 183.80 149.83 183.65 149.13 184.15 L 148.31 184.76 C 147.61 185.27 147.46 186.24 147.97 186.94 C 148.48 187.63 149.45 187.79 150.15 187.28 Z M 151.03 186.63 L 151.84 185.98 C 152.51 185.44 152.62 184.46 152.08 183.79 C 151.54 183.11 150.56 183.01 149.89 183.55 L 149.08 184.20 C 148.41 184.74 148.30 185.72 148.84 186.39 C 149.38 187.06 150.36 187.17 151.03 186.63 Z M 151.90 185.93 L 152.62 185.30 C 153.27 184.73 153.33 183.74 152.76 183.09 C 152.19 182.45 151.20 182.38 150.56 182.95 L 149.83 183.59 C 149.19 184.16 149.12 185.15 149.69 185.80 C 150.26 186.44 151.25 186.50 151.90 185.93 Z M 152.67 185.25 L 153.37 184.58 C 154.00 183.98 154.02 183.00 153.42 182.37 C 152.83 181.75 151.84 181.73 151.22 182.32 L 150.51 183.00 C 149.89 183.59 149.86 184.58 150.46 185.20 C 151.05 185.83 152.04 185.85 152.67 185.25 Z M 153.41 184.54 L 154.11 183.83 C 154.71 183.21 154.70 182.23 154.08 181.62 C 153.47 181.02 152.48 181.03 151.87 181.65 L 151.18 182.36 C 150.57 182.98 150.59 183.96 151.20 184.57 C 151.82 185.17 152.81 185.16 153.41 184.54 Z M 154.14 183.80 L 154.83 183.05 C 155.42 182.41 155.38 181.43 154.75 180.84 C 154.11 180.26 153.12 180.29 152.54 180.93 L 151.84 181.68 C 151.26 182.31 151.30 183.30 151.93 183.89 C 152.56 184.47 153.55 184.43 154.14 183.80 Z M 154.85 183.02 L 155.53 182.26 C 156.10 181.61 156.04 180.62 155.40 180.05 C 154.75 179.48 153.77 179.54 153.20 180.19 L 152.52 180.95 C 151.95 181.60 152.01 182.58 152.65 183.16 C 153.30 183.73 154.28 183.67 154.85 183.02 Z M 155.55 182.24 L 156.17 181.51 C 156.73 180.86 156.66 179.87 156.00 179.31 C 155.35 178.75 154.36 178.83 153.80 179.48 L 153.18 180.21 C 152.62 180.86 152.69 181.85 153.35 182.41 C 154.00 182.97 154.99 182.89 155.55 182.24 Z M 156.19 181.49 L 156.81 180.74 C 157.36 180.08 157.27 179.09 156.61 178.54 C 155.95 177.99 154.96 178.08 154.41 178.74 L 153.78 179.50 C 153.23 180.16 153.32 181.15 153.99 181.70 C 154.65 182.25 155.63 182.16 156.19 181.49 Z M 156.83 180.72 L 157.46 179.94 C 158.00 179.27 157.89 178.28 157.22 177.74 C 156.55 177.20 155.57 177.31 155.03 177.98 L 154.40 178.76 C 153.85 179.43 153.96 180.42 154.63 180.96 C 155.30 181.50 156.29 181.39 156.83 180.72 Z M 157.47 179.92 L 158.10 179.11 C 158.63 178.43 158.51 177.45 157.83 176.92 C 157.15 176.39 156.17 176.51 155.64 177.19 L 155.01 178.00 C 154.48 178.68 154.60 179.66 155.28 180.19 C 155.96 180.72 156.94 180.60 157.47 179.92 Z M 158.12 179.09 L 158.75 178.26 C 159.27 177.57 159.13 176.59 158.44 176.07 C 157.75 175.55 156.77 175.69 156.26 176.38 L 155.63 177.21 C 155.11 177.90 155.24 178.88 155.93 179.40 C 156.62 179.92 157.60 179.78 158.12 179.09 Z M 158.76 178.24 L 159.34 177.45 C 159.85 176.75 159.70 175.77 159.00 175.26 C 158.31 174.76 157.33 174.91 156.82 175.60 L 156.24 176.40 C 155.73 177.09 155.88 178.07 156.58 178.58 C 157.28 179.09 158.25 178.93 158.76 178.24 Z M 159.35 177.43 L 159.92 176.63 C 160.42 175.93 160.26 174.95 159.56 174.45 C 158.85 173.95 157.88 174.12 157.38 174.82 L 156.81 175.62 C 156.31 176.32 156.47 177.30 157.18 177.80 C 157.88 178.30 158.85 178.13 159.35 177.43 Z M 159.93 176.62 L 160.50 175.80 C 160.99 175.09 160.82 174.12 160.11 173.63 C 159.40 173.13 158.43 173.31 157.94 174.02 L 157.37 174.83 C 156.88 175.54 157.05 176.51 157.76 177.00 C 158.47 177.50 159.44 177.32 159.93 176.62 Z M 160.51 175.79 L 161.08 174.96 C 161.56 174.25 161.38 173.28 160.67 172.79 C 159.96 172.30 158.99 172.48 158.50 173.20 L 157.93 174.03 C 157.44 174.74 157.63 175.71 158.34 176.20 C 159.05 176.68 160.02 176.50 160.51 175.79 Z M 161.08 174.95 L 161.65 174.11 C 162.13 173.40 161.95 172.43 161.23 171.94 C 160.52 171.46 159.55 171.65 159.06 172.36 L 158.49 173.20 C 158.01 173.92 158.20 174.89 158.91 175.37 C 159.63 175.85 160.60 175.67 161.08 174.95 Z M 161.65 174.11 L 162.22 173.26 C 162.71 172.54 162.52 171.57 161.80 171.09 C 161.08 170.61 160.11 170.80 159.63 171.51 L 159.06 172.37 C 158.58 173.08 158.77 174.05 159.49 174.53 C 160.20 175.01 161.17 174.82 161.65 174.11 Z M 162.23 173.25 L 162.78 172.43 C 163.26 171.72 163.06 170.75 162.35 170.27 C 161.63 169.79 160.66 169.98 160.18 170.70 L 159.63 171.52 C 159.15 172.23 159.34 173.20 160.06 173.68 C 160.78 174.16 161.75 173.97 162.23 173.25 Z M 162.78 172.43 L 163.33 171.61 C 163.81 170.89 163.61 169.92 162.90 169.44 C 162.18 168.96 161.21 169.16 160.73 169.87 L 160.18 170.70 C 159.70 171.42 159.89 172.38 160.61 172.86 C 161.33 173.34 162.30 173.15 162.78 172.43 Z M 163.33 171.60 L 163.88 170.77 C 164.36 170.05 164.17 169.08 163.45 168.61 C 162.73 168.13 161.76 168.33 161.28 169.04 L 160.73 169.88 C 160.25 170.59 160.45 171.56 161.17 172.04 C 161.88 172.52 162.85 172.32 163.33 171.60 Z M 163.89 170.77 L 164.44 169.93 C 164.91 169.21 164.72 168.24 164.00 167.77 C 163.28 167.29 162.31 167.49 161.83 168.21 L 161.28 169.05 C 160.81 169.77 161.00 170.73 161.72 171.21 C 162.44 171.69 163.41 171.49 163.89 170.77 Z M 164.44 169.93 L 164.99 169.08 C 165.47 168.36 165.26 167.40 164.54 166.92 C 163.82 166.45 162.85 166.65 162.38 167.37 L 161.83 168.21 C 161.36 168.94 161.56 169.90 162.28 170.38 C 163.00 170.85 163.97 170.65 164.44 169.93 Z M 165.00 169.08 L 165.55 168.23 C 166.02 167.51 165.81 166.54 165.09 166.07 C 164.37 165.60 163.40 165.81 162.93 166.53 L 162.38 167.38 C 161.91 168.10 162.11 169.07 162.84 169.54 C 163.56 170.01 164.53 169.80 165.00 169.08 Z M 165.55 168.23 L 166.09 167.39 C 166.55 166.67 166.35 165.70 165.62 165.23 C 164.89 164.77 163.93 164.98 163.46 165.70 L 162.92 166.54 C 162.46 167.26 162.67 168.23 163.39 168.70 C 164.12 169.16 165.08 168.95 165.55 168.23 Z M 166.09 167.39 L 166.62 166.55 C 167.09 165.82 166.87 164.86 166.15 164.39 C 165.42 163.93 164.45 164.14 163.99 164.87 L 163.46 165.71 C 163.00 166.44 163.21 167.40 163.94 167.86 C 164.66 168.33 165.63 168.11 166.09 167.39 Z M 166.63 166.54 L 167.16 165.70 C 167.62 164.97 167.40 164.01 166.67 163.55 C 165.94 163.09 164.98 163.31 164.52 164.04 L 163.99 164.88 C 163.53 165.61 163.75 166.57 164.48 167.03 C 165.21 167.49 166.17 167.27 166.63 166.54 Z M 167.16 165.69 L 167.69 164.85 C 168.15 164.12 167.92 163.15 167.19 162.70 C 166.46 162.24 165.50 162.46 165.04 163.20 L 164.51 164.04 C 164.06 164.78 164.28 165.74 165.01 166.19 C 165.74 166.65 166.71 166.43 167.16 165.69 Z M 167.69 164.84 L 168.22 163.99 C 168.67 163.25 168.45 162.29 167.71 161.84 C 166.98 161.38 166.02 161.61 165.56 162.35 L 165.04 163.20 C 164.58 163.94 164.81 164.90 165.55 165.35 C 166.28 165.80 167.24 165.57 167.69 164.84 Z M 168.23 163.98 L 168.75 163.12 C 169.20 162.38 168.97 161.42 168.23 160.97 C 167.49 160.52 166.53 160.75 166.09 161.49 L 165.56 162.35 C 165.11 163.09 165.34 164.05 166.08 164.50 C 166.82 164.95 167.78 164.71 168.23 163.98 Z M 168.76 163.11 L 169.28 162.23 C 169.73 161.50 169.49 160.54 168.75 160.09 C 168.01 159.65 167.05 159.89 166.61 160.62 L 166.08 161.50 C 165.64 162.24 165.87 163.20 166.61 163.64 C 167.35 164.09 168.31 163.85 168.76 163.11 Z M 169.29 162.23 L 169.81 161.35 C 170.25 160.61 170.01 159.65 169.27 159.21 C 168.53 158.76 167.57 159.01 167.13 159.75 L 166.60 160.63 C 166.16 161.37 166.41 162.33 167.15 162.77 C 167.89 163.21 168.85 162.97 169.29 162.23 Z M 169.82 161.34 L 170.33 160.46 C 170.77 159.71 170.52 158.76 169.78 158.32 C 169.04 157.88 168.08 158.13 167.64 158.87 L 167.12 159.76 C 166.69 160.50 166.93 161.46 167.68 161.89 C 168.42 162.33 169.38 162.08 169.82 161.34 Z M 170.34 160.45 L 170.85 159.57 C 171.28 158.83 171.03 157.87 170.29 157.44 C 169.54 157.01 168.58 157.26 168.15 158.00 L 167.64 158.88 C 167.21 159.62 167.46 160.58 168.20 161.01 C 168.95 161.45 169.90 161.20 170.34 160.45 Z M 170.85 159.57 L 171.35 158.70 C 171.78 157.96 171.52 157.00 170.78 156.57 C 170.03 156.14 169.07 156.40 168.64 157.15 L 168.15 158.01 C 167.72 158.76 167.97 159.71 168.72 160.14 C 169.47 160.57 170.42 160.31 170.85 159.57 Z M 171.35 158.70 L 171.83 157.85 C 172.26 157.10 172.00 156.15 171.25 155.72 C 170.50 155.30 169.55 155.56 169.12 156.31 L 168.64 157.15 C 168.21 157.90 168.48 158.86 169.23 159.28 C 169.98 159.71 170.93 159.45 171.35 158.70 Z M 171.84 157.84 L 172.32 156.99 C 172.74 156.24 172.47 155.29 171.72 154.87 C 170.97 154.44 170.01 154.71 169.59 155.46 L 169.12 156.32 C 168.69 157.07 168.96 158.02 169.71 158.44 C 170.47 158.86 171.42 158.59 171.84 157.84 Z M 172.32 156.98 L 172.84 156.03 C 173.26 155.28 172.98 154.33 172.23 153.91 C 171.47 153.50 170.52 153.77 170.11 154.53 L 169.59 155.47 C 169.17 156.23 169.45 157.18 170.20 157.59 C 170.96 158.01 171.91 157.74 172.32 156.98 Z M 172.85 156.02 L 173.34 155.11 C 173.75 154.35 173.46 153.41 172.71 153.00 C 171.95 152.59 171.00 152.87 170.59 153.63 L 170.10 154.54 C 169.69 155.30 169.98 156.25 170.74 156.66 C 171.49 157.06 172.44 156.78 172.85 156.02 Z M 173.35 155.10 L 173.81 154.22 C 174.21 153.46 173.91 152.51 173.15 152.11 C 172.39 151.71 171.44 152.01 171.04 152.77 L 170.58 153.65 C 170.18 154.41 170.48 155.36 171.24 155.76 C 172.00 156.16 172.95 155.86 173.35 155.10 Z M 173.82 154.20 L 174.25 153.35 C 174.64 152.58 174.33 151.64 173.56 151.25 C 172.79 150.86 171.85 151.17 171.46 151.94 L 171.03 152.79 C 170.64 153.56 170.95 154.50 171.72 154.89 C 172.49 155.28 173.43 154.97 173.82 154.20 Z M 174.26 153.33 L 174.66 152.50 C 175.04 151.72 174.72 150.79 173.95 150.41 C 173.17 150.03 172.24 150.35 171.86 151.13 L 171.45 151.96 C 171.08 152.73 171.40 153.67 172.17 154.05 C 172.95 154.42 173.88 154.10 174.26 153.33 Z M 174.68 152.47 L 175.12 151.52 C 175.48 150.74 175.14 149.81 174.36 149.45 C 173.58 149.09 172.65 149.42 172.29 150.21 L 171.85 151.15 C 171.48 151.93 171.82 152.86 172.60 153.23 C 173.38 153.59 174.31 153.25 174.68 152.47 Z M 175.13 151.50 L 175.54 150.56 C 175.89 149.78 175.54 148.85 174.75 148.50 C 173.96 148.15 173.04 148.51 172.69 149.30 L 172.28 150.23 C 171.93 151.02 172.28 151.94 173.07 152.29 C 173.86 152.64 174.78 152.29 175.13 151.50 Z M 175.56 150.54 L 175.94 149.62 C 176.28 148.83 175.91 147.91 175.11 147.58 C 174.32 147.24 173.40 147.61 173.07 148.41 L 172.68 149.32 C 172.34 150.12 172.71 151.03 173.51 151.37 C 174.30 151.70 175.22 151.33 175.56 150.54 Z M 175.95 149.60 L 176.31 148.71 C 176.64 147.91 176.25 147.00 175.45 146.68 C 174.65 146.35 173.74 146.74 173.42 147.54 L 173.06 148.43 C 172.73 149.23 173.12 150.14 173.92 150.46 C 174.72 150.79 175.63 150.40 175.95 149.60 Z M 176.32 148.69 L 176.69 147.75 C 177.00 146.95 176.60 146.04 175.80 145.73 C 175.00 145.42 174.09 145.81 173.78 146.62 L 173.41 147.56 C 173.10 148.36 173.50 149.26 174.30 149.58 C 175.10 149.89 176.01 149.49 176.32 148.69 Z M 176.70 147.73 L 177.06 146.75 C 177.36 145.94 176.95 145.04 176.14 144.74 C 175.33 144.44 174.43 144.85 174.13 145.66 L 173.77 146.64 C 173.47 147.45 173.88 148.35 174.69 148.65 C 175.50 148.95 176.40 148.54 176.70 147.73 Z M 177.07 146.71 L 177.40 145.77 C 177.68 144.95 177.25 144.06 176.43 143.78 C 175.62 143.50 174.73 143.93 174.45 144.75 L 174.12 145.69 C 173.84 146.51 174.27 147.40 175.09 147.68 C 175.90 147.96 176.79 147.53 177.07 146.71 Z M 177.41 145.72 L 177.70 144.81 C 177.95 143.99 177.49 143.12 176.67 142.86 C 175.85 142.60 174.97 143.06 174.72 143.88 L 174.43 144.79 C 174.18 145.62 174.63 146.49 175.46 146.75 C 176.28 147.00 177.16 146.55 177.41 145.72 Z M 177.71 144.75 L 177.96 143.84 C 178.18 143.00 177.69 142.15 176.86 141.92 C 176.02 141.70 175.17 142.20 174.94 143.03 L 174.70 143.94 C 174.48 144.78 174.97 145.63 175.80 145.86 C 176.63 146.08 177.49 145.59 177.71 144.75 Z M 177.98 143.76 L 178.18 142.82 C 178.36 141.98 177.82 141.15 176.97 140.97 C 176.13 140.79 175.30 141.33 175.12 142.17 L 174.92 143.11 C 174.75 143.95 175.28 144.78 176.13 144.96 C 176.97 145.14 177.80 144.60 177.98 143.76 Z M 178.19 142.73 L 178.34 141.76 C 178.47 140.91 177.89 140.11 177.03 139.98 C 176.18 139.85 175.39 140.44 175.26 141.29 L 175.11 142.26 C 174.98 143.12 175.56 143.91 176.41 144.04 C 177.27 144.17 178.06 143.59 178.19 142.73 Z M 178.35 141.68 L 178.46 140.61 C 178.55 139.75 177.92 138.99 177.06 138.90 C 176.21 138.81 175.44 139.44 175.35 140.30 L 175.25 141.37 C 175.16 142.22 175.78 142.99 176.64 143.08 C 177.50 143.16 178.27 142.54 178.35 141.68 Z M 178.47 140.54 L 178.52 139.53 C 178.57 138.67 177.91 137.93 177.05 137.88 C 176.19 137.84 175.45 138.49 175.40 139.36 L 175.35 140.37 C 175.30 141.23 175.96 141.97 176.82 142.01 C 177.68 142.06 178.42 141.40 178.47 140.54 Z M 178.52 139.40 L 178.50 138.36 C 178.47 137.50 177.76 136.82 176.89 136.84 C 176.03 136.86 175.35 137.58 175.37 138.44 L 175.40 139.48 C 175.43 140.34 176.14 141.02 177.00 141.00 C 177.87 140.98 178.55 140.26 178.52 139.40 Z M 178.47 138.14 L 178.31 137.15 C 178.16 136.30 177.35 135.73 176.50 135.87 C 175.65 136.02 175.08 136.82 175.23 137.67 L 175.40 138.66 C 175.54 139.51 176.35 140.08 177.20 139.94 C 178.05 139.79 178.62 138.99 178.47 138.14 Z M 178.20 136.79 L 177.83 135.94 C 177.49 135.15 176.57 134.78 175.78 135.12 C 174.99 135.46 174.62 136.38 174.96 137.18 L 175.33 138.03 C 175.67 138.82 176.59 139.19 177.38 138.85 C 178.18 138.50 178.54 137.59 178.20 136.79 Z M 177.53 135.48 L 176.89 134.81 C 176.30 134.19 175.31 134.16 174.69 134.75 C 174.06 135.35 174.03 136.34 174.63 136.96 L 175.27 137.63 C 175.86 138.26 176.85 138.28 177.47 137.69 C 178.10 137.10 178.12 136.11 177.53 135.48 Z M 176.51 134.52 L 175.66 134.05 C 174.90 133.63 173.95 133.91 173.54 134.67 C 173.12 135.42 173.40 136.37 174.16 136.79 L 175.01 137.25 C 175.77 137.67 176.72 137.39 177.13 136.64 C 177.54 135.88 177.27 134.93 176.51 134.52 Z M 175.37 133.93 L 174.39 133.62 C 173.57 133.37 172.69 133.83 172.44 134.65 C 172.18 135.47 172.64 136.35 173.46 136.60 L 174.44 136.91 C 175.27 137.16 176.14 136.71 176.40 135.88 C 176.65 135.06 176.19 134.18 175.37 133.93 Z M 174.21 133.58 L 173.20 133.39 C 172.35 133.24 171.54 133.80 171.38 134.64 C 171.22 135.49 171.78 136.31 172.63 136.46 L 173.65 136.65 C 174.49 136.80 175.31 136.24 175.46 135.40 C 175.62 134.55 175.06 133.73 174.21 133.58 Z M 173.09 133.38 L 172.05 133.26 C 171.19 133.17 170.42 133.78 170.33 134.64 C 170.23 135.50 170.85 136.27 171.71 136.36 L 172.74 136.48 C 173.60 136.57 174.37 135.96 174.47 135.10 C 174.56 134.24 173.94 133.47 173.09 133.38 Z M 171.94 133.25 L 170.94 133.21 C 170.08 133.18 169.36 133.85 169.32 134.71 C 169.28 135.57 169.95 136.30 170.82 136.33 L 171.81 136.37 C 172.67 136.41 173.40 135.74 173.44 134.88 C 173.47 134.01 172.80 133.29 171.94 133.25 Z M 170.83 133.21 L 169.86 133.24 C 168.99 133.27 168.32 133.99 168.35 134.85 C 168.37 135.72 169.10 136.39 169.96 136.36 L 170.93 136.33 C 171.79 136.30 172.47 135.58 172.44 134.72 C 172.41 133.86 171.69 133.18 170.83 133.21 Z M 169.75 133.25 L 168.77 133.35 C 167.92 133.44 167.29 134.21 167.38 135.06 C 167.47 135.92 168.24 136.55 169.10 136.46 L 170.07 136.36 C 170.93 136.27 171.55 135.50 171.46 134.64 C 171.37 133.78 170.60 133.16 169.75 133.25 Z M 168.68 133.36 L 167.73 133.52 C 166.87 133.66 166.30 134.47 166.44 135.32 C 166.58 136.17 167.38 136.74 168.24 136.60 L 169.19 136.44 C 170.04 136.30 170.62 135.50 170.48 134.65 C 170.33 133.80 169.53 133.22 168.68 133.36 Z M 167.65 133.54 L 166.67 133.75 C 165.83 133.93 165.30 134.76 165.48 135.61 C 165.66 136.45 166.50 136.98 167.34 136.80 L 168.31 136.59 C 169.15 136.40 169.69 135.57 169.51 134.73 C 169.32 133.89 168.49 133.35 167.65 133.54 Z M 166.61 133.76 L 165.62 134.02 C 164.79 134.24 164.29 135.10 164.51 135.93 C 164.73 136.76 165.58 137.26 166.42 137.04 L 167.40 136.78 C 168.24 136.56 168.74 135.71 168.52 134.88 C 168.30 134.04 167.44 133.54 166.61 133.76 Z M 165.57 134.04 L 164.60 134.33 C 163.77 134.58 163.30 135.45 163.55 136.28 C 163.80 137.10 164.67 137.57 165.50 137.32 L 166.47 137.03 C 167.30 136.78 167.77 135.91 167.52 135.08 C 167.27 134.26 166.40 133.79 165.57 134.04 Z M 164.55 134.35 L 163.62 134.66 C 162.81 134.93 162.36 135.81 162.64 136.63 C 162.91 137.45 163.80 137.89 164.61 137.62 L 165.54 137.31 C 166.36 137.03 166.80 136.15 166.53 135.33 C 166.26 134.51 165.37 134.07 164.55 134.35 Z M 163.59 134.67 L 162.65 135.01 C 161.84 135.30 161.42 136.19 161.71 137.00 C 162.01 137.81 162.90 138.24 163.71 137.94 L 164.65 137.61 C 165.46 137.31 165.88 136.42 165.59 135.61 C 165.29 134.80 164.40 134.38 163.59 134.67 Z M 162.63 135.02 L 161.68 135.38 C 160.88 135.68 160.47 136.58 160.78 137.39 C 161.09 138.20 161.99 138.60 162.80 138.29 L 163.74 137.93 C 164.54 137.63 164.95 136.72 164.64 135.92 C 164.33 135.11 163.43 134.71 162.63 135.02 Z M 161.67 135.38 L 160.71 135.76 C 159.91 136.08 159.52 136.98 159.84 137.79 C 160.15 138.59 161.06 138.98 161.86 138.66 L 162.81 138.29 C 163.62 137.97 164.01 137.06 163.69 136.26 C 163.37 135.46 162.47 135.06 161.67 135.38 Z M 160.70 135.76 L 159.76 136.15 C 158.96 136.47 158.58 137.38 158.90 138.18 C 159.23 138.98 160.14 139.36 160.94 139.04 L 161.88 138.66 C 162.68 138.33 163.06 137.42 162.73 136.62 C 162.41 135.82 161.50 135.44 160.70 135.76 Z M 159.74 136.15 L 158.81 136.55 C 158.01 136.88 157.64 137.80 157.98 138.59 C 158.31 139.39 159.23 139.76 160.02 139.43 L 160.96 139.03 C 161.75 138.70 162.12 137.78 161.79 136.99 C 161.45 136.19 160.54 135.82 159.74 136.15 Z M 158.78 136.56 L 157.87 136.96 C 157.08 137.31 156.72 138.23 157.07 139.02 C 157.42 139.81 158.34 140.17 159.13 139.82 L 160.05 139.41 C 160.84 139.07 161.19 138.14 160.84 137.36 C 160.49 136.57 159.57 136.21 158.78 136.56 Z M 157.84 136.98 L 156.95 137.39 C 156.17 137.76 155.84 138.69 156.20 139.47 C 156.57 140.25 157.50 140.59 158.28 140.22 L 159.16 139.81 C 159.94 139.44 160.28 138.51 159.91 137.73 C 159.55 136.95 158.62 136.61 157.84 136.98 Z M 156.91 137.41 L 155.98 137.89 C 155.21 138.27 154.90 139.21 155.29 139.98 C 155.68 140.75 156.62 141.06 157.39 140.67 L 158.32 140.20 C 159.09 139.81 159.40 138.87 159.01 138.10 C 158.62 137.33 157.68 137.02 156.91 137.41 Z M 155.94 137.91 L 155.05 138.39 C 154.29 138.80 154.01 139.75 154.42 140.51 C 154.83 141.26 155.78 141.55 156.54 141.13 L 157.43 140.65 C 158.19 140.24 158.47 139.29 158.06 138.53 C 157.64 137.78 156.70 137.49 155.94 137.91 Z M 155.02 138.41 L 154.17 138.89 C 153.42 139.32 153.16 140.27 153.58 141.02 C 154.01 141.77 154.96 142.03 155.71 141.60 L 156.56 141.12 C 157.31 140.69 157.57 139.74 157.15 138.99 C 156.72 138.24 155.77 137.98 155.02 138.41 Z M 154.15 138.90 L 153.34 139.37 C 152.60 139.81 152.34 140.77 152.78 141.51 C 153.22 142.25 154.17 142.51 154.92 142.07 L 155.73 141.59 C 156.47 141.16 156.72 140.20 156.29 139.46 C 155.85 138.71 154.90 138.46 154.15 138.90 Z M 153.33 139.38 L 152.59 139.82 C 151.84 140.26 151.60 141.21 152.04 141.96 C 152.47 142.70 153.43 142.95 154.17 142.51 L 154.92 142.07 C 155.66 141.63 155.91 140.67 155.47 139.93 C 155.03 139.19 154.08 138.94 153.33 139.38 Z M 152.58 139.82 L 151.79 140.30 C 151.05 140.74 150.81 141.70 151.25 142.44 C 151.70 143.18 152.65 143.42 153.39 142.97 L 154.18 142.50 C 154.92 142.06 155.16 141.10 154.72 140.36 C 154.28 139.62 153.32 139.38 152.58 139.82 Z M 151.78 140.30 L 150.90 140.84 C 150.16 141.29 149.93 142.25 150.38 142.99 C 150.83 143.72 151.79 143.95 152.53 143.50 L 153.41 142.97 C 154.14 142.52 154.37 141.56 153.92 140.82 C 153.47 140.08 152.51 139.85 151.78 140.30 Z M 150.89 140.85 L 149.87 141.48 C 149.14 141.94 148.92 142.90 149.38 143.63 C 149.84 144.37 150.80 144.59 151.53 144.13 L 152.54 143.50 C 153.27 143.04 153.49 142.07 153.04 141.34 C 152.58 140.61 151.62 140.39 150.89 140.85 Z M 149.86 141.49 L 149.15 141.94 C 148.42 142.41 148.21 143.37 148.67 144.10 C 149.13 144.83 150.10 145.04 150.82 144.58 L 151.54 144.12 C 152.27 143.66 152.48 142.70 152.02 141.97 C 151.56 141.24 150.59 141.03 149.86 141.49 Z M 149.14 141.95 L 148.37 142.45 C 147.64 142.91 147.43 143.88 147.90 144.60 C 148.36 145.33 149.33 145.54 150.05 145.07 L 150.83 144.58 C 151.56 144.11 151.77 143.14 151.30 142.42 C 150.83 141.69 149.87 141.48 149.14 141.95 Z M 148.36 142.45 L 147.54 142.98 C 146.81 143.45 146.60 144.42 147.07 145.14 C 147.54 145.87 148.51 146.07 149.23 145.61 L 150.06 145.07 C 150.78 144.60 150.99 143.64 150.52 142.91 C 150.05 142.19 149.09 141.98 148.36 142.45 Z M 147.53 142.98 L 146.67 143.55 C 145.94 144.02 145.74 144.98 146.21 145.71 C 146.68 146.43 147.64 146.63 148.37 146.17 L 149.23 145.60 C 149.96 145.13 150.16 144.17 149.69 143.44 C 149.22 142.72 148.26 142.51 147.53 142.98 Z M 146.67 143.55 L 145.77 144.13 C 145.05 144.60 144.84 145.57 145.31 146.29 C 145.78 147.01 146.75 147.22 147.47 146.75 L 148.37 146.16 C 149.09 145.69 149.30 144.73 148.83 144.00 C 148.36 143.28 147.39 143.08 146.67 143.55 Z M 145.77 144.13 L 144.86 144.72 C 144.14 145.20 143.93 146.16 144.40 146.89 C 144.87 147.61 145.84 147.81 146.56 147.34 L 147.48 146.75 C 148.20 146.27 148.40 145.31 147.93 144.59 C 147.46 143.86 146.49 143.66 145.77 144.13 Z M 144.86 144.73 L 144.29 145.10 C 143.57 145.57 143.36 146.54 143.83 147.26 C 144.30 147.98 145.27 148.18 145.99 147.71 L 146.56 147.34 C 147.29 146.87 147.49 145.90 147.02 145.18 C 146.55 144.46 145.58 144.25 144.86 144.73 Z"
      fill="black"
      fill-rule="nonzero" /></svg>