<svg xmlns="http://www.w3.org/2000/svg" width="300" height="300" viewBox="0 0 300 300">
<path d="M 148.39 142.97 L 147.39 142.56 C 146.59 142.23 145.68 142.61 145.35 143.40 C 145.02 144.20 145.40 145.11 146.20 145.44 L 147.20 145.86 C 147.99 146.19 148.91 145.81 149.24 145.01 C 149.57 144.21 149.19 143.30 148.39 142.97 Z M 147.34 142.54 L 146.36 142.17 C 145.56 141.87 144.66 142.28 144.35 143.08 C 144.05 143.89 144.46 144.79 145.26 145.09 L 146.24 145.46 C 147.05 145.77 147.95 145.36 148.25 144.55 C 148.56 143.74 148.15 142.84 147.34 142.54 Z M 146.26 142.14 L 145.32 141.86 C 144.49 141.61 143.62 142.08 143.38 142.91 C 143.13 143.73 143.60 144.60 144.43 144.85 L 145.37 145.13 C 146.19 145.37 147.06 144.90 147.31 144.08 C 147.56 143.25 147.09 142.38 146.26 142.14 Z M 145.13 141.81 L 144.24 141.66 C 143.39 141.52 142.59 142.10 142.45 142.95 C 142.31 143.80 142.88 144.60 143.73 144.74 L 144.61 144.89 C 145.47 145.03 146.27 144.46 146.41 143.61 C 146.55 142.76 145.98 141.95 145.13 141.81 Z M 143.90 141.65 L 142.93 141.70 C 142.07 141.75 141.41 142.49 141.46 143.35 C 141.50 144.21 142.24 144.87 143.10 144.82 L 144.08 144.76 C 144.94 144.71 145.59 143.98 145.55 143.12 C 145.50 142.26 144.76 141.60 143.90 141.65 Z M 142.45 141.80 L 141.57 142.15 C 140.76 142.46 140.37 143.37 140.68 144.17 C 141.00 144.97 141.90 145.37 142.70 145.06 L 143.58 144.71 C 144.39 144.40 144.78 143.49 144.47 142.69 C 144.15 141.89 143.25 141.49 142.45 141.80 Z M 141.13 142.41 L 140.36 143.06 C 139.70 143.61 139.61 144.60 140.17 145.26 C 140.72 145.92 141.71 146.00 142.37 145.45 L 143.14 144.80 C 143.80 144.24 143.88 143.26 143.33 142.60 C 142.77 141.94 141.79 141.85 141.13 142.41 Z M 140.10 143.34 L 139.52 144.13 C 139.02 144.83 139.18 145.81 139.88 146.31 C 140.58 146.82 141.55 146.66 142.06 145.96 L 142.63 145.17 C 143.13 144.47 142.98 143.49 142.28 142.99 C 141.58 142.48 140.60 142.64 140.10 143.34 Z M 139.41 144.32 L 138.96 145.17 C 138.56 145.94 138.86 146.88 139.62 147.28 C 140.39 147.68 141.33 147.38 141.73 146.62 L 142.17 145.77 C 142.57 145.01 142.28 144.06 141.51 143.66 C 140.75 143.26 139.81 143.56 139.41 144.32 Z M 138.91 145.29 L 138.51 146.24 C 138.18 147.03 138.55 147.95 139.34 148.28 C 140.14 148.61 141.05 148.24 141.39 147.45 L 141.78 146.50 C 142.12 145.71 141.75 144.79 140.95 144.46 C 140.16 144.12 139.24 144.50 138.91 145.29 Z M 138.48 146.32 L 138.13 147.31 C 137.84 148.12 138.26 149.01 139.07 149.30 C 139.89 149.59 140.78 149.17 141.07 148.35 L 141.42 147.36 C 141.71 146.55 141.28 145.66 140.47 145.37 C 139.66 145.08 138.77 145.50 138.48 146.32 Z M 138.11 147.36 L 137.80 148.35 C 137.54 149.17 137.99 150.05 138.81 150.31 C 139.64 150.57 140.51 150.11 140.77 149.29 L 141.09 148.30 C 141.34 147.48 140.89 146.60 140.07 146.34 C 139.24 146.08 138.37 146.54 138.11 147.36 Z M 137.78 148.39 L 137.50 149.39 C 137.26 150.21 137.74 151.08 138.56 151.32 C 139.39 151.56 140.26 151.08 140.50 150.25 L 140.78 149.25 C 141.02 148.42 140.55 147.56 139.72 147.32 C 138.89 147.08 138.02 147.56 137.78 148.39 Z M 137.49 149.42 L 137.23 150.39 C 137.02 151.22 137.52 152.07 138.35 152.29 C 139.19 152.51 140.04 152.01 140.26 151.18 L 140.51 150.21 C 140.72 149.38 140.22 148.52 139.39 148.31 C 138.56 148.09 137.70 148.59 137.49 149.42 Z M 137.23 150.43 L 137.00 151.38 C 136.81 152.22 137.33 153.06 138.17 153.25 C 139.01 153.45 139.85 152.93 140.04 152.09 L 140.27 151.14 C 140.46 150.30 139.94 149.46 139.10 149.26 C 138.26 149.07 137.42 149.59 137.23 150.43 Z M 137.00 151.42 L 136.80 152.38 C 136.62 153.22 137.16 154.05 138.01 154.22 C 138.85 154.40 139.68 153.86 139.85 153.01 L 140.05 152.05 C 140.23 151.21 139.68 150.38 138.84 150.20 C 138.00 150.03 137.17 150.57 137.00 151.42 Z M 136.79 152.41 L 136.62 153.34 C 136.46 154.19 137.02 155.01 137.87 155.16 C 138.72 155.32 139.53 154.76 139.69 153.91 L 139.86 152.98 C 140.02 152.13 139.46 151.32 138.61 151.16 C 137.76 151.00 136.95 151.56 136.79 152.41 Z M 136.61 153.38 L 136.46 154.33 C 136.32 155.18 136.90 155.98 137.75 156.12 C 138.60 156.26 139.40 155.68 139.54 154.83 L 139.69 153.88 C 139.83 153.03 139.26 152.23 138.40 152.09 C 137.55 151.95 136.75 152.53 136.61 153.38 Z M 136.45 154.36 L 136.31 155.35 C 136.19 156.20 136.78 156.99 137.64 157.11 C 138.49 157.23 139.28 156.64 139.40 155.79 L 139.54 154.80 C 139.67 153.95 139.07 153.15 138.22 153.03 C 137.36 152.91 136.57 153.51 136.45 154.36 Z M 136.31 155.38 L 136.18 156.41 C 136.08 157.26 136.69 158.04 137.55 158.14 C 138.40 158.25 139.18 157.64 139.28 156.78 L 139.41 155.75 C 139.51 154.90 138.90 154.12 138.04 154.02 C 137.19 153.91 136.41 154.52 136.31 155.38 Z M 136.18 156.44 L 136.08 157.47 C 135.99 158.33 136.62 159.10 137.48 159.18 C 138.33 159.27 139.10 158.64 139.18 157.78 L 139.29 156.75 C 139.37 155.89 138.75 155.13 137.89 155.04 C 137.03 154.95 136.27 155.58 136.18 156.44 Z M 136.07 157.50 L 136.00 158.45 C 135.93 159.30 136.57 160.06 137.43 160.13 C 138.29 160.20 139.04 159.56 139.11 158.70 L 139.19 157.76 C 139.26 156.90 138.62 156.14 137.76 156.07 C 136.90 156.00 136.14 156.64 136.07 157.50 Z M 136.00 158.47 L 135.93 159.44 C 135.88 160.30 136.53 161.05 137.39 161.10 C 138.25 161.16 138.99 160.51 139.05 159.65 L 139.11 158.67 C 139.17 157.81 138.52 157.07 137.66 157.01 C 136.80 156.96 136.05 157.61 136.00 158.47 Z M 135.93 159.46 L 135.88 160.46 C 135.83 161.32 136.50 162.06 137.36 162.10 C 138.22 162.15 138.95 161.49 139.00 160.63 L 139.05 159.63 C 139.09 158.76 138.43 158.03 137.57 157.98 C 136.71 157.94 135.98 158.60 135.93 159.46 Z M 135.88 160.48 L 135.84 161.51 C 135.80 162.37 136.47 163.10 137.33 163.13 C 138.20 163.17 138.92 162.50 138.96 161.63 L 139.00 160.61 C 139.03 159.75 138.36 159.02 137.50 158.98 C 136.64 158.95 135.91 159.62 135.88 160.48 Z M 135.84 161.53 L 135.81 162.58 C 135.78 163.44 136.46 164.16 137.32 164.18 C 138.18 164.21 138.90 163.53 138.93 162.67 L 138.96 161.62 C 138.98 160.76 138.30 160.04 137.44 160.01 C 136.58 159.99 135.86 160.66 135.84 161.53 Z M 135.80 162.59 L 135.78 163.60 C 135.77 164.46 136.45 165.18 137.31 165.19 C 138.17 165.21 138.89 164.53 138.91 163.66 L 138.93 162.66 C 138.94 161.79 138.26 161.08 137.40 161.06 C 136.54 161.04 135.82 161.73 135.80 162.59 Z M 135.78 163.61 L 135.77 164.62 C 135.76 165.48 136.45 166.19 137.31 166.20 C 138.17 166.21 138.88 165.52 138.89 164.66 L 138.91 163.65 C 138.92 162.79 138.23 162.08 137.37 162.07 C 136.50 162.06 135.80 162.75 135.78 163.61 Z M 135.77 164.63 L 135.76 165.64 C 135.75 166.50 136.45 167.20 137.31 167.21 C 138.17 167.22 138.88 166.53 138.88 165.66 L 138.89 164.65 C 138.90 163.79 138.21 163.09 137.34 163.08 C 136.48 163.07 135.78 163.76 135.77 164.63 Z M 135.76 165.64 L 135.76 166.65 C 135.75 167.52 136.45 168.22 137.31 168.22 C 138.17 168.22 138.88 167.53 138.88 166.67 L 138.88 165.66 C 138.89 164.80 138.19 164.09 137.33 164.09 C 136.47 164.09 135.77 164.78 135.76 165.64 Z M 135.76 166.66 L 135.76 167.66 C 135.75 168.52 136.45 169.22 137.31 169.22 C 138.18 169.22 138.88 168.52 138.88 167.66 L 138.88 166.66 C 138.88 165.80 138.18 165.10 137.32 165.10 C 136.46 165.10 135.76 165.80 135.76 166.66 Z M 135.76 167.66 L 135.76 168.64 C 135.76 169.50 136.45 170.20 137.32 170.20 C 138.18 170.20 138.88 169.50 138.88 168.64 L 138.88 167.66 C 138.88 166.80 138.18 166.10 137.32 166.10 C 136.45 166.10 135.76 166.80 135.76 167.66 Z M 135.76 168.64 L 135.76 169.70 C 135.76 170.56 136.46 171.26 137.32 171.26 C 138.18 171.26 138.88 170.56 138.88 169.70 L 138.88 168.63 C 138.88 167.77 138.18 167.07 137.31 167.08 C 136.45 167.08 135.75 167.78 135.76 168.64 Z M 135.76 169.72 L 135.77 170.75 C 135.78 171.61 136.48 172.30 137.34 172.29 C 138.21 172.29 138.90 171.58 138.89 170.72 L 138.88 169.68 C 138.87 168.82 138.16 168.13 137.30 168.14 C 136.44 168.15 135.75 168.85 135.76 169.72 Z M 135.77 170.78 L 135.80 171.78 C 135.82 172.64 136.54 173.32 137.40 173.30 C 138.26 173.27 138.94 172.55 138.92 171.69 L 138.89 170.69 C 138.86 169.83 138.15 169.15 137.28 169.17 C 136.42 169.20 135.74 169.92 135.77 170.78 Z M 135.80 171.83 L 135.86 172.80 C 135.91 173.66 136.64 174.31 137.51 174.26 C 138.37 174.21 139.02 173.47 138.97 172.61 L 138.92 171.64 C 138.87 170.78 138.13 170.13 137.27 170.18 C 136.41 170.23 135.75 170.97 135.80 171.83 Z M 135.86 172.86 L 135.96 173.80 C 136.04 174.66 136.81 175.28 137.66 175.20 C 138.52 175.11 139.15 174.35 139.06 173.49 L 138.97 172.55 C 138.88 171.69 138.12 171.07 137.26 171.15 C 136.40 171.24 135.77 172.00 135.86 172.86 Z M 135.97 173.89 L 136.12 174.90 C 136.26 175.75 137.06 176.33 137.91 176.20 C 138.76 176.06 139.34 175.26 139.21 174.41 L 139.05 173.40 C 138.92 172.55 138.12 171.97 137.27 172.10 C 136.41 172.24 135.83 173.03 135.97 173.89 Z M 136.14 174.99 L 136.36 175.99 C 136.55 176.83 137.39 177.37 138.23 177.18 C 139.07 176.99 139.60 176.16 139.41 175.32 L 139.19 174.32 C 139.00 173.47 138.17 172.94 137.33 173.13 C 136.49 173.32 135.96 174.15 136.14 174.99 Z M 136.39 176.09 L 136.67 177.05 C 136.90 177.88 137.77 178.35 138.60 178.12 C 139.43 177.88 139.90 177.01 139.67 176.18 L 139.39 175.22 C 139.15 174.39 138.29 173.92 137.46 174.15 C 136.63 174.39 136.15 175.26 136.39 176.09 Z M 136.69 177.14 L 137.02 178.05 C 137.31 178.87 138.20 179.29 139.01 179.00 C 139.82 178.72 140.25 177.82 139.96 177.01 L 139.64 176.09 C 139.35 175.28 138.46 174.86 137.64 175.14 C 136.83 175.43 136.41 176.32 136.69 177.14 Z M 137.05 178.14 L 137.43 179.04 C 137.77 179.83 138.68 180.21 139.48 179.87 C 140.27 179.54 140.64 178.62 140.31 177.83 L 139.93 176.93 C 139.59 176.13 138.68 175.76 137.88 176.09 C 137.09 176.43 136.72 177.35 137.05 178.14 Z M 137.47 179.13 L 137.94 180.06 C 138.32 180.83 139.26 181.15 140.03 180.77 C 140.80 180.38 141.12 179.44 140.73 178.67 L 140.27 177.74 C 139.88 176.96 138.95 176.65 138.17 177.03 C 137.40 177.42 137.09 178.36 137.47 179.13 Z M 137.99 180.16 L 138.50 181.03 C 138.93 181.77 139.89 182.02 140.63 181.59 C 141.38 181.15 141.63 180.20 141.19 179.45 L 140.68 178.58 C 140.25 177.84 139.29 177.58 138.55 178.02 C 137.80 178.45 137.55 179.41 137.99 180.16 Z M 138.56 181.12 L 139.11 181.93 C 139.59 182.64 140.56 182.82 141.28 182.33 C 141.99 181.85 142.17 180.87 141.68 180.16 L 141.13 179.36 C 140.65 178.65 139.68 178.46 138.96 178.95 C 138.25 179.44 138.07 180.41 138.56 181.12 Z M 139.18 182.02 L 139.78 182.78 C 140.32 183.45 141.31 183.56 141.98 183.02 C 142.65 182.48 142.76 181.50 142.22 180.82 L 141.61 180.07 C 141.07 179.39 140.09 179.29 139.42 179.83 C 138.75 180.37 138.64 181.35 139.18 182.02 Z M 139.88 182.88 L 140.60 183.63 C 141.19 184.26 142.18 184.28 142.80 183.68 C 143.43 183.08 143.45 182.09 142.85 181.47 L 142.13 180.72 C 141.53 180.10 140.54 180.08 139.92 180.68 C 139.30 181.27 139.28 182.26 139.88 182.88 Z M 140.72 183.75 L 141.48 184.39 C 142.14 184.95 143.12 184.86 143.68 184.20 C 144.23 183.55 144.15 182.56 143.49 182.00 L 142.73 181.36 C 142.07 180.80 141.09 180.89 140.53 181.55 C 139.98 182.20 140.06 183.19 140.72 183.75 Z M 141.62 184.50 L 142.42 185.03 C 143.14 185.50 144.11 185.31 144.59 184.59 C 145.06 183.87 144.87 182.90 144.15 182.43 L 143.35 181.90 C 142.63 181.42 141.66 181.62 141.18 182.33 C 140.71 183.05 140.90 184.02 141.62 184.50 Z M 142.60 185.13 L 143.48 185.56 C 144.25 185.94 145.19 185.62 145.57 184.84 C 145.95 184.07 145.63 183.13 144.85 182.75 L 143.97 182.32 C 143.20 181.95 142.26 182.27 141.88 183.04 C 141.50 183.82 141.82 184.75 142.60 185.13 Z M 143.67 185.64 L 144.61 185.95 C 145.42 186.22 146.31 185.78 146.58 184.97 C 146.86 184.15 146.41 183.26 145.60 182.99 L 144.66 182.68 C 143.84 182.40 142.96 182.84 142.68 183.66 C 142.41 184.48 142.85 185.36 143.67 185.64 Z M 144.78 186.00 L 145.76 186.21 C 146.60 186.38 147.43 185.84 147.61 185.00 C 147.79 184.16 147.25 183.33 146.41 183.15 L 145.42 182.94 C 144.58 182.76 143.75 183.30 143.57 184.15 C 143.40 184.99 143.94 185.82 144.78 186.00 Z M 145.90 186.23 L 146.89 186.35 C 147.74 186.45 148.52 185.84 148.62 184.98 C 148.72 184.12 148.11 183.35 147.26 183.25 L 146.27 183.13 C 145.41 183.03 144.63 183.64 144.53 184.49 C 144.43 185.35 145.04 186.13 145.90 186.23 Z M 147.00 186.36 L 147.99 186.40 C 148.85 186.44 149.58 185.77 149.62 184.91 C 149.66 184.05 148.99 183.32 148.13 183.28 L 147.14 183.24 C 146.28 183.20 145.55 183.86 145.51 184.73 C 145.47 185.59 146.14 186.32 147.00 186.36 Z M 148.10 186.40 L 149.11 186.37 C 149.97 186.35 150.65 185.64 150.63 184.77 C 150.61 183.91 149.89 183.23 149.03 183.25 L 148.02 183.28 C 147.16 183.30 146.48 184.02 146.50 184.88 C 146.52 185.74 147.24 186.42 148.10 186.40 Z M 149.22 186.37 L 150.23 186.27 C 151.09 186.18 151.72 185.42 151.63 184.56 C 151.55 183.70 150.78 183.08 149.93 183.16 L 148.92 183.26 C 148.06 183.34 147.43 184.11 147.52 184.97 C 147.60 185.82 148.36 186.45 149.22 186.37 Z M 150.35 186.25 L 151.29 186.08 C 152.14 185.93 152.71 185.12 152.56 184.27 C 152.41 183.43 151.60 182.86 150.75 183.01 L 149.81 183.18 C 148.96 183.33 148.39 184.14 148.54 184.99 C 148.69 185.84 149.50 186.40 150.35 186.25 Z M 151.44 186.05 L 152.38 185.79 C 153.21 185.56 153.69 184.70 153.46 183.87 C 153.23 183.04 152.37 182.55 151.54 182.78 L 150.60 183.04 C 149.77 183.27 149.28 184.14 149.52 184.97 C 149.75 185.80 150.61 186.28 151.44 186.05 Z M 152.54 185.73 L 153.49 185.35 C 154.29 185.03 154.67 184.12 154.35 183.32 C 154.03 182.52 153.12 182.13 152.32 182.46 L 151.37 182.84 C 150.57 183.16 150.19 184.07 150.51 184.87 C 150.83 185.67 151.74 186.06 152.54 185.73 Z M 153.65 185.28 L 154.54 184.79 C 155.29 184.38 155.57 183.44 155.16 182.68 C 154.75 181.92 153.80 181.64 153.05 182.05 L 152.16 182.53 C 151.40 182.94 151.12 183.89 151.53 184.65 C 151.94 185.41 152.89 185.69 153.65 185.28 Z M 154.66 184.72 L 155.42 184.21 C 156.14 183.73 156.33 182.76 155.85 182.05 C 155.37 181.33 154.40 181.14 153.68 181.62 L 152.92 182.13 C 152.21 182.61 152.01 183.58 152.49 184.29 C 152.97 185.01 153.94 185.20 154.66 184.72 Z M 155.50 184.15 L 156.27 183.56 C 156.96 183.03 157.08 182.05 156.56 181.37 C 156.03 180.69 155.05 180.56 154.37 181.08 L 153.60 181.68 C 152.91 182.20 152.79 183.18 153.31 183.87 C 153.84 184.55 154.82 184.68 155.50 184.15 Z M 156.33 183.51 L 157.12 182.84 C 157.77 182.29 157.85 181.30 157.29 180.64 C 156.73 179.99 155.75 179.91 155.09 180.47 L 154.31 181.13 C 153.65 181.69 153.57 182.68 154.13 183.33 C 154.69 183.99 155.68 184.07 156.33 183.51 Z M 157.16 182.81 L 157.95 182.08 C 158.59 181.49 158.63 180.51 158.05 179.87 C 157.47 179.24 156.48 179.19 155.84 179.78 L 155.05 180.51 C 154.41 181.09 154.37 182.08 154.95 182.71 C 155.54 183.35 156.52 183.39 157.16 182.81 Z M 157.98 182.05 L 158.71 181.35 C 159.33 180.75 159.35 179.76 158.75 179.14 C 158.15 178.52 157.16 178.50 156.54 179.10 L 155.81 179.80 C 155.19 180.40 155.18 181.39 155.77 182.01 C 156.37 182.63 157.36 182.65 157.98 182.05 Z M 158.73 181.33 L 159.40 180.65 C 160.01 180.04 160.01 179.06 159.40 178.45 C 158.78 177.84 157.80 177.84 157.19 178.45 L 156.52 179.12 C 155.91 179.74 155.91 180.72 156.52 181.33 C 157.13 181.94 158.12 181.94 158.73 181.33 Z M 159.42 180.63 L 160.10 179.93 C 160.69 179.31 160.67 178.32 160.05 177.72 C 159.43 177.13 158.44 177.14 157.85 177.77 L 157.17 178.47 C 156.57 179.09 156.59 180.08 157.21 180.68 C 157.83 181.28 158.82 181.26 159.42 180.63 Z M 160.12 179.91 L 160.80 179.17 C 161.39 178.54 161.35 177.55 160.72 176.97 C 160.08 176.38 159.10 176.42 158.51 177.05 L 157.83 177.79 C 157.24 178.42 157.28 179.41 157.91 179.99 C 158.54 180.58 159.53 180.54 160.12 179.91 Z M 160.82 179.15 L 161.51 178.39 C 162.08 177.75 162.03 176.76 161.39 176.18 C 160.74 175.61 159.76 175.66 159.18 176.30 L 158.49 177.07 C 157.92 177.71 157.97 178.70 158.61 179.27 C 159.25 179.85 160.24 179.80 160.82 179.15 Z M 161.52 178.37 L 162.22 177.57 C 162.78 176.92 162.71 175.93 162.06 175.37 C 161.41 174.80 160.42 174.87 159.86 175.52 L 159.16 176.32 C 158.60 176.97 158.67 177.96 159.32 178.52 C 159.97 179.09 160.96 179.02 161.52 178.37 Z M 162.23 177.55 L 162.86 176.80 C 163.42 176.14 163.33 175.15 162.68 174.60 C 162.02 174.04 161.03 174.13 160.48 174.79 L 159.84 175.54 C 159.29 176.20 159.37 177.19 160.03 177.74 C 160.69 178.30 161.68 178.21 162.23 177.55 Z M 162.88 176.78 L 163.49 176.03 C 164.04 175.36 163.94 174.38 163.27 173.83 C 162.61 173.29 161.62 173.39 161.08 174.05 L 160.46 174.80 C 159.92 175.47 160.01 176.46 160.68 177.00 C 161.35 177.55 162.33 177.45 162.88 176.78 Z M 163.50 176.02 L 164.12 175.24 C 164.66 174.57 164.55 173.59 163.87 173.05 C 163.20 172.51 162.22 172.62 161.68 173.30 L 161.06 174.07 C 160.53 174.74 160.64 175.72 161.31 176.26 C 161.98 176.80 162.97 176.69 163.50 176.02 Z M 164.13 175.23 L 164.75 174.44 C 165.28 173.76 165.16 172.78 164.48 172.25 C 163.80 171.72 162.81 171.84 162.28 172.52 L 161.67 173.31 C 161.14 173.99 161.26 174.97 161.94 175.50 C 162.62 176.03 163.60 175.91 164.13 175.23 Z M 164.76 174.43 L 165.37 173.62 C 165.90 172.93 165.76 171.95 165.08 171.43 C 164.39 170.91 163.41 171.04 162.89 171.73 L 162.27 172.53 C 161.75 173.22 161.88 174.20 162.57 174.72 C 163.26 175.24 164.24 175.11 164.76 174.43 Z M 165.38 173.61 L 166.00 172.78 C 166.51 172.09 166.37 171.11 165.68 170.60 C 164.99 170.08 164.01 170.22 163.50 170.91 L 162.88 171.74 C 162.37 172.43 162.51 173.41 163.20 173.92 C 163.89 174.44 164.87 174.30 165.38 173.61 Z M 166.01 172.77 L 166.61 171.94 C 167.12 171.24 166.97 170.27 166.27 169.76 C 165.58 169.25 164.60 169.40 164.09 170.10 L 163.49 170.93 C 162.98 171.62 163.13 172.60 163.83 173.11 C 164.52 173.62 165.50 173.47 166.01 172.77 Z M 166.62 171.93 L 167.19 171.14 C 167.69 170.44 167.53 169.46 166.83 168.96 C 166.13 168.45 165.16 168.61 164.65 169.31 L 164.09 170.11 C 163.58 170.81 163.74 171.78 164.44 172.29 C 165.14 172.79 166.12 172.63 166.62 171.93 Z M 167.20 171.13 L 167.77 170.32 C 168.26 169.62 168.10 168.65 167.39 168.15 C 166.69 167.65 165.71 167.82 165.22 168.52 L 164.65 169.32 C 164.15 170.03 164.32 171.00 165.02 171.50 C 165.73 172.00 166.70 171.83 167.20 171.13 Z M 167.77 170.32 L 168.34 169.50 C 168.83 168.80 168.66 167.82 167.95 167.33 C 167.25 166.84 166.27 167.01 165.78 167.71 L 165.21 168.53 C 164.72 169.23 164.89 170.21 165.60 170.70 C 166.30 171.20 167.28 171.02 167.77 170.32 Z M 168.34 169.50 L 168.91 168.67 C 169.40 167.97 169.23 166.99 168.52 166.50 C 167.81 166.01 166.83 166.19 166.34 166.90 L 165.78 167.72 C 165.28 168.43 165.46 169.40 166.17 169.89 C 166.88 170.38 167.85 170.21 168.34 169.50 Z M 168.92 168.67 L 169.49 167.84 C 169.97 167.13 169.79 166.16 169.08 165.67 C 168.37 165.18 167.40 165.36 166.91 166.07 L 166.34 166.90 C 165.85 167.61 166.03 168.59 166.74 169.07 C 167.46 169.56 168.43 169.38 168.92 168.67 Z M 169.49 167.84 L 170.06 167.00 C 170.55 166.28 170.37 165.31 169.65 164.83 C 168.94 164.34 167.97 164.52 167.48 165.23 L 166.91 166.07 C 166.42 166.79 166.61 167.76 167.32 168.24 C 168.03 168.73 169.00 168.55 169.49 167.84 Z M 170.06 166.99 L 170.64 166.15 C 171.13 165.43 170.94 164.46 170.23 163.98 C 169.52 163.49 168.55 163.68 168.06 164.39 L 167.48 165.24 C 167.00 165.95 167.18 166.92 167.89 167.40 C 168.61 167.89 169.58 167.71 170.06 166.99 Z M 170.64 166.15 L 171.21 165.30 C 171.70 164.59 171.51 163.62 170.80 163.13 C 170.09 162.65 169.12 162.83 168.63 163.55 L 168.06 164.39 C 167.57 165.10 167.76 166.07 168.47 166.56 C 169.19 167.04 170.16 166.86 170.64 166.15 Z M 171.22 165.30 L 171.79 164.45 C 172.27 163.74 172.09 162.77 171.37 162.29 C 170.66 161.80 169.69 161.99 169.20 162.70 L 168.63 163.55 C 168.15 164.26 168.33 165.23 169.05 165.72 C 169.76 166.20 170.73 166.01 171.22 165.30 Z M 171.79 164.45 L 172.36 163.60 C 172.84 162.89 172.65 161.92 171.94 161.44 C 171.22 160.96 170.25 161.15 169.77 161.86 L 169.20 162.71 C 168.72 163.42 168.91 164.39 169.63 164.87 C 170.34 165.36 171.31 165.17 171.79 164.45 Z M 172.37 163.60 L 172.93 162.75 C 173.40 162.04 173.21 161.07 172.49 160.59 C 171.77 160.11 170.80 160.31 170.32 161.03 L 169.77 161.87 C 169.29 162.59 169.48 163.56 170.20 164.03 C 170.92 164.51 171.89 164.31 172.37 163.60 Z M 172.93 162.74 L 173.48 161.91 C 173.95 161.19 173.75 160.22 173.03 159.75 C 172.30 159.27 171.34 159.48 170.86 160.20 L 170.32 161.04 C 169.85 161.76 170.05 162.73 170.77 163.20 C 171.49 163.67 172.46 163.47 172.93 162.74 Z M 173.49 161.89 L 174.02 161.07 C 174.48 160.34 174.27 159.38 173.54 158.91 C 172.81 158.45 171.85 158.66 171.38 159.39 L 170.86 160.21 C 170.39 160.94 170.60 161.90 171.33 162.37 C 172.06 162.83 173.02 162.62 173.49 161.89 Z M 174.03 161.05 L 174.53 160.24 C 174.99 159.51 174.76 158.54 174.03 158.09 C 173.30 157.63 172.33 157.86 171.88 158.59 L 171.37 159.40 C 170.92 160.13 171.14 161.10 171.88 161.55 C 172.61 162.01 173.57 161.78 174.03 161.05 Z M 174.54 160.22 L 175.09 159.31 C 175.53 158.57 175.29 157.61 174.56 157.17 C 173.82 156.72 172.86 156.96 172.41 157.70 L 171.87 158.61 C 171.42 159.35 171.66 160.31 172.40 160.75 C 173.14 161.20 174.10 160.96 174.54 160.22 Z M 175.10 159.28 L 175.63 158.38 C 176.06 157.63 175.80 156.67 175.06 156.24 C 174.31 155.81 173.36 156.07 172.92 156.81 L 172.40 157.72 C 171.97 158.47 172.22 159.42 172.97 159.86 C 173.72 160.29 174.67 160.03 175.10 159.28 Z M 175.64 158.36 L 176.13 157.47 C 176.55 156.71 176.28 155.76 175.53 155.34 C 174.78 154.92 173.83 155.19 173.41 155.95 L 172.91 156.84 C 172.49 157.59 172.76 158.54 173.52 158.96 C 174.27 159.38 175.22 159.11 175.64 158.36 Z M 176.14 157.45 L 176.61 156.58 C 177.02 155.82 176.74 154.88 175.98 154.47 C 175.22 154.06 174.28 154.34 173.87 155.10 L 173.40 155.97 C 172.99 156.72 173.27 157.67 174.03 158.08 C 174.79 158.49 175.73 158.21 176.14 157.45 Z M 176.62 156.57 L 177.07 155.72 C 177.47 154.96 177.18 154.01 176.42 153.61 C 175.65 153.21 174.71 153.50 174.31 154.26 L 173.86 155.11 C 173.46 155.88 173.75 156.82 174.51 157.22 C 175.27 157.62 176.22 157.33 176.62 156.57 Z M 177.07 155.71 L 177.51 154.88 C 177.90 154.11 177.60 153.17 176.84 152.77 C 176.07 152.38 175.13 152.67 174.73 153.44 L 174.30 154.27 C 173.90 155.04 174.20 155.98 174.97 156.38 C 175.74 156.77 176.68 156.47 177.07 155.71 Z M 177.51 154.87 L 177.98 153.96 C 178.37 153.19 178.06 152.25 177.30 151.86 C 176.53 151.46 175.59 151.77 175.20 152.54 L 174.73 153.45 C 174.34 154.21 174.64 155.15 175.41 155.55 C 176.18 155.94 177.12 155.64 177.51 154.87 Z M 177.98 153.95 L 178.45 153.02 C 178.84 152.25 178.53 151.31 177.76 150.92 C 176.99 150.54 176.05 150.84 175.66 151.61 L 175.19 152.54 C 174.80 153.31 175.11 154.25 175.88 154.64 C 176.65 155.03 177.59 154.72 177.98 153.95 Z M 178.45 153.01 L 178.90 152.10 C 179.29 151.33 178.97 150.39 178.20 150.01 C 177.43 149.63 176.49 149.94 176.11 150.72 L 175.66 151.62 C 175.27 152.40 175.59 153.33 176.36 153.72 C 177.13 154.10 178.07 153.78 178.45 153.01 Z M 178.91 152.09 L 179.34 151.20 C 179.72 150.43 179.39 149.49 178.61 149.12 C 177.84 148.74 176.90 149.07 176.53 149.84 L 176.10 150.73 C 175.72 151.51 176.05 152.44 176.83 152.81 C 177.60 153.19 178.54 152.87 178.91 152.09 Z M 179.35 151.18 L 179.75 150.32 C 180.12 149.54 179.78 148.61 179.00 148.24 C 178.22 147.88 177.29 148.21 176.93 149.00 L 176.52 149.86 C 176.16 150.64 176.49 151.57 177.27 151.94 C 178.05 152.30 178.98 151.96 179.35 151.18 Z M 179.76 150.30 L 180.17 149.38 C 180.53 148.60 180.17 147.67 179.39 147.32 C 178.60 146.97 177.68 147.32 177.32 148.11 L 176.91 149.02 C 176.56 149.81 176.91 150.73 177.70 151.08 C 178.49 151.43 179.41 151.08 179.76 150.30 Z M 180.19 149.35 L 180.60 148.38 C 180.94 147.58 180.56 146.67 179.77 146.33 C 178.97 145.99 178.06 146.37 177.72 147.16 L 177.31 148.14 C 176.97 148.93 177.35 149.85 178.14 150.18 C 178.93 150.52 179.85 150.15 180.19 149.35 Z M 180.61 148.34 L 180.98 147.39 C 181.30 146.59 180.90 145.69 180.10 145.37 C 179.30 145.06 178.39 145.45 178.08 146.25 L 177.71 147.20 C 177.39 148.00 177.79 148.91 178.59 149.22 C 179.39 149.54 180.30 149.14 180.61 148.34 Z M 181.00 147.35 L 181.33 146.44 C 181.62 145.63 181.19 144.74 180.38 144.45 C 179.57 144.15 178.68 144.58 178.39 145.39 L 178.06 146.30 C 177.77 147.11 178.19 148.00 179.01 148.29 C 179.82 148.58 180.71 148.16 181.00 147.35 Z M 181.34 146.39 L 181.62 145.51 C 181.88 144.69 181.43 143.81 180.61 143.55 C 179.79 143.29 178.91 143.74 178.65 144.56 L 178.37 145.44 C 178.11 146.26 178.56 147.14 179.38 147.40 C 180.20 147.66 181.08 147.21 181.34 146.39 Z M 181.64 145.44 L 181.90 144.48 C 182.13 143.64 181.63 142.79 180.80 142.56 C 179.97 142.34 179.11 142.83 178.89 143.67 L 178.63 144.63 C 178.40 145.47 178.90 146.32 179.73 146.55 C 180.56 146.77 181.42 146.28 181.64 145.44 Z M 181.93 144.37 L 182.11 143.41 C 182.28 142.57 181.73 141.75 180.88 141.58 C 180.03 141.42 179.21 141.97 179.05 142.81 L 178.86 143.77 C 178.70 144.62 179.25 145.44 180.10 145.60 C 180.94 145.77 181.76 145.22 181.93 144.37 Z M 182.13 143.28 L 182.24 142.29 C 182.33 141.44 181.71 140.67 180.85 140.58 C 180.00 140.48 179.23 141.11 179.13 141.96 L 179.03 142.95 C 178.94 143.80 179.56 144.57 180.42 144.67 C 181.27 144.76 182.04 144.14 182.13 143.28 Z M 182.25 142.15 L 182.26 141.13 C 182.27 140.26 181.59 139.56 180.72 139.54 C 179.86 139.53 179.15 140.22 179.14 141.08 L 179.13 142.11 C 179.11 142.97 179.80 143.68 180.66 143.69 C 181.53 143.70 182.24 143.01 182.25 142.15 Z M 182.26 140.98 L 182.18 139.99 C 182.10 139.13 181.35 138.49 180.49 138.56 C 179.63 138.63 178.99 139.39 179.06 140.25 L 179.15 141.23 C 179.22 142.09 179.97 142.73 180.83 142.66 C 181.69 142.59 182.33 141.83 182.26 140.98 Z M 182.14 139.78 L 181.93 138.80 C 181.74 137.96 180.91 137.43 180.06 137.62 C 179.22 137.80 178.69 138.64 178.88 139.48 L 179.10 140.46 C 179.28 141.30 180.12 141.83 180.96 141.64 C 181.80 141.46 182.33 140.62 182.14 139.78 Z M 181.83 138.51 L 181.43 137.60 C 181.08 136.81 180.16 136.46 179.37 136.81 C 178.58 137.16 178.23 138.08 178.57 138.87 L 178.97 139.77 C 179.32 140.56 180.25 140.92 181.03 140.57 C 181.82 140.22 182.18 139.30 181.83 138.51 Z M 181.21 137.24 L 180.57 136.47 C 180.02 135.81 179.04 135.72 178.37 136.26 C 177.71 136.81 177.62 137.80 178.17 138.46 L 178.80 139.23 C 179.35 139.89 180.33 139.99 181.00 139.44 C 181.66 138.89 181.75 137.90 181.21 137.24 Z M 180.23 136.17 L 179.48 135.67 C 178.76 135.19 177.79 135.38 177.31 136.10 C 176.84 136.82 177.03 137.79 177.75 138.27 L 178.50 138.77 C 179.22 139.25 180.19 139.05 180.67 138.33 C 181.15 137.62 180.95 136.65 180.23 136.17 Z M 179.20 135.52 L 178.30 135.16 C 177.50 134.84 176.60 135.23 176.27 136.03 C 175.95 136.83 176.34 137.74 177.14 138.06 L 178.03 138.41 C 178.83 138.74 179.74 138.35 180.06 137.55 C 180.38 136.75 180.00 135.84 179.20 135.52 Z M 178.11 135.09 L 177.12 134.84 C 176.28 134.63 175.43 135.14 175.22 135.97 C 175.01 136.81 175.51 137.66 176.35 137.87 L 177.34 138.12 C 178.17 138.33 179.02 137.83 179.24 136.99 C 179.45 136.16 178.94 135.31 178.11 135.09 Z M 176.98 134.82 L 175.94 134.65 C 175.09 134.51 174.29 135.09 174.15 135.94 C 174.01 136.79 174.59 137.59 175.44 137.73 L 176.48 137.90 C 177.33 138.04 178.13 137.46 178.27 136.61 C 178.41 135.76 177.83 134.95 176.98 134.82 Z M 175.86 134.64 L 174.82 134.53 C 173.97 134.44 173.20 135.06 173.11 135.92 C 173.02 136.77 173.64 137.54 174.50 137.63 L 175.53 137.74 C 176.39 137.83 177.16 137.21 177.25 136.35 C 177.34 135.49 176.71 134.73 175.86 134.64 Z M 174.77 134.52 L 173.70 134.45 C 172.84 134.38 172.09 135.03 172.03 135.89 C 171.97 136.75 172.62 137.50 173.48 137.56 L 174.55 137.64 C 175.41 137.70 176.16 137.05 176.22 136.19 C 176.28 135.33 175.63 134.58 174.77 134.52 Z M 173.65 134.44 L 172.62 134.40 C 171.76 134.37 171.03 135.04 171.00 135.90 C 170.96 136.76 171.63 137.49 172.49 137.52 L 173.53 137.56 C 174.39 137.60 175.11 136.93 175.15 136.07 C 175.18 135.20 174.51 134.48 173.65 134.44 Z M 172.57 134.40 L 171.59 134.40 C 170.72 134.39 170.02 135.09 170.02 135.95 C 170.01 136.81 170.71 137.51 171.57 137.52 L 172.55 137.52 C 173.41 137.53 174.11 136.83 174.12 135.97 C 174.12 135.11 173.43 134.40 172.57 134.40 Z M 171.53 134.40 L 170.58 134.43 C 169.71 134.45 169.04 135.17 169.07 136.04 C 169.09 136.90 169.81 137.57 170.68 137.55 L 171.63 137.52 C 172.49 137.49 173.17 136.77 173.14 135.91 C 173.11 135.05 172.39 134.37 171.53 134.40 Z M 170.52 134.43 L 169.57 134.49 C 168.71 134.55 168.06 135.30 168.12 136.16 C 168.17 137.02 168.92 137.67 169.78 137.61 L 170.73 137.54 C 171.59 137.49 172.24 136.74 172.18 135.88 C 172.13 135.02 171.38 134.37 170.52 134.43 Z M 169.52 134.50 L 168.55 134.59 C 167.69 134.68 167.06 135.44 167.15 136.30 C 167.23 137.16 168.00 137.79 168.86 137.70 L 169.83 137.60 C 170.69 137.52 171.31 136.75 171.23 135.90 C 171.14 135.04 170.38 134.41 169.52 134.50 Z M 168.50 134.60 L 167.51 134.73 C 166.66 134.84 166.06 135.63 166.17 136.48 C 166.28 137.34 167.07 137.94 167.92 137.83 L 168.91 137.70 C 169.76 137.58 170.36 136.80 170.25 135.94 C 170.14 135.09 169.35 134.49 168.50 134.60 Z M 167.46 134.74 L 166.47 134.90 C 165.62 135.04 165.04 135.84 165.18 136.69 C 165.32 137.54 166.12 138.12 166.97 137.98 L 167.97 137.82 C 168.82 137.68 169.40 136.88 169.26 136.03 C 169.12 135.17 168.32 134.60 167.46 134.74 Z M 166.42 134.91 L 165.42 135.10 C 164.57 135.27 164.02 136.09 164.19 136.93 C 164.35 137.78 165.17 138.33 166.02 138.17 L 167.02 137.97 C 167.87 137.81 168.42 136.99 168.25 136.14 C 168.09 135.29 167.27 134.74 166.42 134.91 Z M 165.37 135.11 L 164.41 135.33 C 163.56 135.52 163.04 136.36 163.23 137.20 C 163.42 138.04 164.26 138.57 165.10 138.38 L 166.06 138.16 C 166.91 137.97 167.43 137.13 167.24 136.29 C 167.05 135.45 166.21 134.92 165.37 135.11 Z M 164.37 135.34 L 163.41 135.59 C 162.57 135.80 162.07 136.65 162.28 137.48 C 162.50 138.32 163.34 138.82 164.18 138.61 L 165.14 138.37 C 165.97 138.16 166.48 137.31 166.26 136.47 C 166.05 135.63 165.20 135.13 164.37 135.34 Z M 163.38 135.59 L 162.42 135.86 C 161.59 136.09 161.10 136.95 161.33 137.78 C 161.56 138.61 162.42 139.10 163.25 138.87 L 164.21 138.60 C 165.04 138.37 165.53 137.51 165.30 136.68 C 165.07 135.85 164.21 135.36 163.38 135.59 Z M 162.39 135.87 L 161.42 136.16 C 160.60 136.40 160.13 137.27 160.37 138.10 C 160.62 138.92 161.48 139.39 162.31 139.15 L 163.28 138.86 C 164.10 138.62 164.58 137.75 164.33 136.92 C 164.09 136.10 163.22 135.62 162.39 135.87 Z M 161.41 136.16 L 160.43 136.46 C 159.61 136.72 159.14 137.59 159.40 138.42 C 159.65 139.24 160.53 139.70 161.35 139.45 L 162.33 139.14 C 163.15 138.89 163.61 138.01 163.36 137.19 C 163.10 136.37 162.23 135.91 161.41 136.16 Z M 160.42 136.47 L 159.44 136.78 C 158.62 137.04 158.17 137.92 158.43 138.74 C 158.69 139.56 159.57 140.01 160.39 139.75 L 161.36 139.44 C 162.19 139.18 162.64 138.30 162.38 137.48 C 162.12 136.66 161.24 136.20 160.42 136.47 Z M 159.43 136.78 L 158.46 137.10 C 157.64 137.37 157.19 138.25 157.46 139.07 C 157.73 139.89 158.62 140.34 159.43 140.07 L 160.41 139.75 C 161.22 139.48 161.67 138.60 161.40 137.78 C 161.13 136.96 160.25 136.51 159.43 136.78 Z M 158.44 137.11 L 157.49 137.43 C 156.67 137.71 156.23 138.60 156.51 139.41 C 156.79 140.23 157.68 140.67 158.49 140.39 L 159.45 140.06 C 160.27 139.78 160.70 138.90 160.42 138.08 C 160.15 137.26 159.26 136.83 158.44 137.11 Z M 157.47 137.44 L 156.54 137.77 C 155.73 138.06 155.30 138.95 155.59 139.76 C 155.88 140.58 156.77 141.00 157.59 140.71 L 158.51 140.38 C 159.33 140.09 159.75 139.20 159.46 138.39 C 159.17 137.57 158.28 137.15 157.47 137.44 Z M 156.51 137.78 L 155.60 138.12 C 154.79 138.42 154.38 139.32 154.68 140.13 C 154.99 140.94 155.89 141.35 156.69 141.04 L 157.61 140.70 C 158.42 140.40 158.83 139.50 158.52 138.69 C 158.22 137.88 157.32 137.48 156.51 137.78 Z M 155.57 138.13 L 154.59 138.52 C 153.79 138.84 153.40 139.75 153.72 140.55 C 154.04 141.35 154.95 141.74 155.75 141.42 L 156.73 141.03 C 157.53 140.71 157.92 139.80 157.60 139.00 C 157.28 138.20 156.37 137.81 155.57 138.13 Z M 154.56 138.54 L 153.64 138.93 C 152.84 139.27 152.47 140.18 152.81 140.98 C 153.15 141.77 154.06 142.14 154.86 141.80 L 155.78 141.41 C 156.57 141.07 156.94 140.16 156.61 139.36 C 156.27 138.57 155.35 138.20 154.56 138.54 Z M 153.61 138.94 L 152.72 139.34 C 151.94 139.69 151.58 140.61 151.94 141.40 C 152.29 142.19 153.21 142.54 154.00 142.19 L 154.88 141.79 C 155.67 141.44 156.02 140.51 155.67 139.73 C 155.32 138.94 154.40 138.59 153.61 138.94 Z M 152.70 139.35 L 151.83 139.75 C 151.05 140.12 150.71 141.04 151.08 141.83 C 151.44 142.61 152.37 142.95 153.15 142.58 L 154.02 142.18 C 154.80 141.81 155.14 140.88 154.78 140.10 C 154.41 139.32 153.48 138.98 152.70 139.35 Z M 151.81 139.76 L 150.90 140.20 C 150.13 140.57 149.80 141.50 150.17 142.28 C 150.54 143.06 151.48 143.39 152.25 143.01 L 153.17 142.57 C 153.94 142.20 154.27 141.27 153.90 140.49 C 153.52 139.71 152.59 139.39 151.81 139.76 Z M 150.89 140.21 L 149.99 140.65 C 149.21 141.03 148.90 141.97 149.28 142.74 C 149.66 143.51 150.60 143.83 151.37 143.45 L 152.27 143.00 C 153.04 142.62 153.36 141.69 152.98 140.91 C 152.60 140.14 151.66 139.82 150.89 140.21 Z M 149.97 140.66 L 149.09 141.11 C 148.32 141.50 148.01 142.43 148.40 143.20 C 148.79 143.97 149.73 144.28 150.50 143.89 L 151.38 143.44 C 152.15 143.05 152.46 142.11 152.07 141.34 C 151.68 140.58 150.74 140.27 149.97 140.66 Z M 149.07 141.11 L 148.19 141.57 C 147.42 141.97 147.12 142.91 147.52 143.67 C 147.92 144.44 148.86 144.74 149.62 144.34 L 150.51 143.89 C 151.27 143.49 151.57 142.55 151.18 141.78 C 150.78 141.02 149.84 140.72 149.07 141.11 Z M 148.18 141.58 L 147.27 142.05 C 146.51 142.46 146.22 143.40 146.62 144.16 C 147.03 144.93 147.97 145.22 148.73 144.81 L 149.63 144.34 C 150.40 143.93 150.69 142.99 150.29 142.23 C 149.88 141.47 148.94 141.17 148.18 141.58 Z M 147.27 142.06 L 146.38 142.53 C 145.62 142.94 145.34 143.89 145.75 144.64 C 146.15 145.40 147.10 145.69 147.86 145.28 L 148.74 144.81 C 149.50 144.40 149.79 143.46 149.38 142.70 C 148.97 141.94 148.03 141.65 147.27 142.06 Z M 146.38 142.53 L 145.52 143.00 C 144.76 143.41 144.48 144.36 144.89 145.12 C 145.30 145.88 146.24 146.16 147.00 145.75 L 147.86 145.28 C 148.62 144.87 148.90 143.92 148.49 143.16 C 148.08 142.41 147.14 142.12 146.38 142.53 Z M 145.51 143.00 L 144.62 143.49 C 143.87 143.90 143.59 144.85 144.00 145.60 C 144.41 146.36 145.36 146.64 146.12 146.23 L 147.00 145.75 C 147.76 145.33 148.04 144.39 147.63 143.63 C 147.22 142.87 146.27 142.59 145.51 143.00 Z M 144.62 143.49 L 143.73 143.97 C 142.98 144.38 142.70 145.33 143.11 146.09 C 143.52 146.85 144.47 147.13 145.23 146.71 L 146.12 146.23 C 146.87 145.82 147.15 144.87 146.74 144.11 C 146.33 143.35 145.38 143.07 144.62 143.49 Z M 143.73 143.97 L 142.87 144.45 C 142.11 144.86 141.83 145.81 142.24 146.56 C 142.66 147.32 143.61 147.60 144.36 147.19 L 145.23 146.71 C 145.99 146.30 146.26 145.35 145.85 144.59 C 145.44 143.84 144.49 143.56 143.73 143.97 Z M 142.86 144.45 L 142.03 144.90 C 141.27 145.32 140.99 146.27 141.41 147.02 C 141.82 147.78 142.77 148.06 143.53 147.64 L 144.36 147.18 C 145.12 146.77 145.40 145.82 144.98 145.07 C 144.57 144.31 143.62 144.03 142.86 144.45 Z M 142.03 144.90 L 141.21 145.35 C 140.45 145.76 140.17 146.70 140.58 147.46 C 140.99 148.22 141.94 148.50 142.69 148.09 L 143.52 147.65 C 144.28 147.24 144.56 146.29 144.15 145.53 C 143.74 144.77 142.79 144.49 142.03 144.90 Z M 141.23 145.33 L 140.36 145.79 C 139.59 146.18 139.29 147.13 139.69 147.89 C 140.08 148.66 141.03 148.96 141.79 148.56 L 142.67 148.11 C 143.43 147.71 143.73 146.77 143.34 146.00 C 142.94 145.24 142.00 144.94 141.23 145.33 Z M 140.40 145.77 L 139.41 146.24 C 138.64 146.62 138.31 147.55 138.69 148.33 C 139.06 149.10 140.00 149.43 140.77 149.05 L 141.75 148.58 C 142.53 148.20 142.86 147.27 142.48 146.50 C 142.11 145.72 141.17 145.39 140.40 145.77 Z M 139.45 146.23 L 138.62 146.60 C 137.83 146.96 137.48 147.88 137.84 148.67 C 138.19 149.45 139.12 149.80 139.90 149.45 L 140.74 149.07 C 141.52 148.72 141.87 147.79 141.52 147.01 C 141.16 146.22 140.24 145.87 139.45 146.23 Z M 138.64 146.59 L 137.75 146.98 C 136.96 147.32 136.59 148.24 136.93 149.03 C 137.28 149.82 138.20 150.19 138.99 149.84 L 139.88 149.46 C 140.67 149.11 141.04 148.20 140.69 147.40 C 140.35 146.61 139.43 146.25 138.64 146.59 Z M 137.76 146.97 L 136.82 147.37 C 136.02 147.70 135.65 148.62 135.99 149.41 C 136.32 150.21 137.24 150.58 138.03 150.25 L 138.97 149.85 C 139.77 149.51 140.14 148.60 139.81 147.80 C 139.47 147.01 138.56 146.64 137.76 146.97 Z M 136.83 147.37 L 135.85 147.77 C 135.05 148.10 134.68 149.01 135.01 149.81 C 135.34 150.61 136.25 150.98 137.05 150.65 L 138.02 150.25 C 138.82 149.92 139.20 149.01 138.87 148.21 C 138.54 147.41 137.62 147.04 136.83 147.37 Z M 135.85 147.77 L 135.26 148.01 C 134.47 148.34 134.09 149.25 134.41 150.05 C 134.74 150.85 135.66 151.23 136.45 150.90 L 137.04 150.66 C 137.84 150.33 138.22 149.41 137.89 148.62 C 137.56 147.82 136.65 147.44 135.85 147.77 Z"
      fill="black"
      fill-rule="nonzero" /></svg>