<svg xmlns="http://www.w3.org/2000/svg" width="300" height="300" viewBox="0 0 300 300">
<path d="M 135.78 162.45 L 135.60 163.45 C 135.45 164.30 136.01 165.11 136.86 165.27 C 137.71 165.42 138.52 164.85 138.67 164.00 L 138.85 163.00 C 139.00 162.15 138.44 161.34 137.59 161.18 C 136.74 161.03 135.93 161.60 135.78 162.45 Z M 135.60 163.46 L 135.42 164.45 C 135.27 165.30 135.84 166.11 136.69 166.26 C 137.54 166.41 138.35 165.85 138.50 165.00 L 138.67 164.00 C 138.82 163.15 138.26 162.34 137.41 162.19 C 136.56 162.04 135.75 162.61 135.60 163.46 Z M 135.42 164.45 L 135.25 165.43 C 135.10 166.28 135.67 167.09 136.52 167.24 C 137.37 167.39 138.18 166.82 138.33 165.97 L 138.50 165.00 C 138.65 164.15 138.08 163.34 137.23 163.19 C 136.38 163.04 135.57 163.61 135.42 164.45 Z M 135.25 165.43 L 135.08 166.41 C 134.93 167.26 135.50 168.07 136.35 168.21 C 137.20 168.36 138.01 167.79 138.16 166.94 L 138.33 165.97 C 138.47 165.12 137.90 164.31 137.06 164.16 C 136.21 164.01 135.40 164.58 135.25 165.43 Z M 135.08 166.42 L 134.91 167.42 C 134.77 168.27 135.34 169.07 136.19 169.22 C 137.04 169.36 137.85 168.78 137.99 167.93 L 138.16 166.93 C 138.30 166.08 137.73 165.28 136.88 165.13 C 136.03 164.99 135.22 165.57 135.08 166.42 Z M 134.91 167.44 L 134.76 168.42 C 134.63 169.27 135.21 170.07 136.06 170.20 C 136.91 170.33 137.71 169.75 137.84 168.89 L 137.99 167.92 C 138.13 167.06 137.54 166.27 136.69 166.13 C 135.84 166.00 135.04 166.59 134.91 167.44 Z M 134.75 168.45 L 134.62 169.42 C 134.51 170.27 135.11 171.06 135.96 171.17 C 136.82 171.29 137.60 170.69 137.72 169.84 L 137.85 168.86 C 137.96 168.01 137.36 167.22 136.51 167.11 C 135.65 166.99 134.87 167.59 134.75 168.45 Z M 134.62 169.46 L 134.52 170.34 C 134.43 171.20 135.04 171.97 135.90 172.06 C 136.76 172.16 137.53 171.54 137.62 170.68 L 137.72 169.80 C 137.82 168.94 137.20 168.17 136.34 168.07 C 135.48 167.98 134.71 168.60 134.62 169.46 Z M 134.52 170.38 L 134.44 171.32 C 134.37 172.18 135.00 172.94 135.86 173.01 C 136.72 173.08 137.48 172.44 137.55 171.58 L 137.63 170.64 C 137.70 169.78 137.06 169.03 136.20 168.96 C 135.34 168.89 134.59 169.52 134.52 170.38 Z M 134.43 171.36 L 134.37 172.40 C 134.33 173.26 134.98 174.00 135.84 174.05 C 136.71 174.10 137.44 173.44 137.49 172.58 L 137.55 171.54 C 137.60 170.68 136.94 169.94 136.08 169.89 C 135.22 169.84 134.48 170.50 134.43 171.36 Z M 134.37 172.44 L 134.34 173.53 C 134.31 174.39 134.98 175.12 135.84 175.15 C 136.70 175.18 137.43 174.50 137.46 173.64 L 137.49 172.55 C 137.52 171.68 136.85 170.96 135.99 170.93 C 135.13 170.90 134.40 171.58 134.37 172.44 Z M 134.33 173.56 L 134.32 174.50 C 134.31 175.36 135.00 176.07 135.86 176.08 C 136.72 176.10 137.43 175.41 137.44 174.55 L 137.46 173.61 C 137.47 172.75 136.78 172.04 135.92 172.02 C 135.06 172.01 134.35 172.70 134.33 173.56 Z M 134.32 174.54 L 134.33 175.53 C 134.34 176.39 135.04 177.09 135.91 177.08 C 136.77 177.07 137.46 176.36 137.45 175.50 L 137.44 174.51 C 137.43 173.64 136.73 172.95 135.87 172.96 C 135.00 172.97 134.31 173.67 134.32 174.54 Z M 134.33 175.58 L 134.38 176.61 C 134.41 177.47 135.14 178.14 136.00 178.10 C 136.86 178.07 137.53 177.34 137.49 176.48 L 137.45 175.45 C 137.41 174.59 136.69 173.92 135.82 173.96 C 134.96 173.99 134.29 174.72 134.33 175.58 Z M 134.38 176.68 L 134.47 177.72 C 134.54 178.57 135.30 179.21 136.16 179.14 C 137.02 179.06 137.65 178.30 137.58 177.45 L 137.49 176.41 C 137.42 175.55 136.66 174.91 135.80 174.99 C 134.94 175.06 134.30 175.82 134.38 176.68 Z M 134.48 177.80 L 134.63 178.82 C 134.75 179.68 135.54 180.27 136.39 180.15 C 137.25 180.02 137.84 179.23 137.72 178.38 L 137.57 177.36 C 137.45 176.50 136.66 175.91 135.80 176.04 C 134.95 176.16 134.36 176.95 134.48 177.80 Z M 134.65 178.94 L 134.88 180.00 C 135.07 180.84 135.90 181.37 136.74 181.18 C 137.59 180.99 138.12 180.16 137.93 179.32 L 137.70 178.26 C 137.51 177.42 136.68 176.89 135.83 177.08 C 134.99 177.26 134.46 178.10 134.65 178.94 Z M 134.92 180.13 L 135.23 181.12 C 135.50 181.94 136.37 182.40 137.20 182.14 C 138.02 181.87 138.47 181.00 138.21 180.17 L 137.89 179.18 C 137.63 178.36 136.75 177.91 135.93 178.17 C 135.11 178.43 134.66 179.31 134.92 180.13 Z M 135.29 181.27 L 135.69 182.18 C 136.03 182.97 136.95 183.34 137.74 182.99 C 138.53 182.65 138.89 181.73 138.55 180.94 L 138.15 180.02 C 137.81 179.23 136.89 178.87 136.10 179.22 C 135.31 179.56 134.95 180.48 135.29 181.27 Z M 135.77 182.35 L 136.26 183.17 C 136.69 183.91 137.65 184.16 138.39 183.72 C 139.14 183.28 139.38 182.33 138.95 181.58 L 138.46 180.77 C 138.03 180.02 137.07 179.78 136.33 180.21 C 135.58 180.65 135.34 181.61 135.77 182.35 Z M 136.38 183.35 L 136.95 184.06 C 137.49 184.74 138.47 184.85 139.14 184.31 C 139.82 183.77 139.93 182.79 139.39 182.11 L 138.82 181.40 C 138.28 180.73 137.30 180.62 136.63 181.16 C 135.95 181.70 135.84 182.68 136.38 183.35 Z M 137.13 184.25 L 137.81 184.86 C 138.45 185.44 139.43 185.38 140.01 184.74 C 140.59 184.10 140.53 183.11 139.89 182.54 L 139.21 181.93 C 138.57 181.35 137.58 181.40 137.01 182.05 C 136.43 182.69 136.49 183.68 137.13 184.25 Z M 138.02 185.02 L 138.81 185.51 C 139.54 185.97 140.50 185.75 140.96 185.02 C 141.42 184.29 141.19 183.32 140.46 182.87 L 139.68 182.37 C 138.94 181.92 137.98 182.14 137.52 182.87 C 137.07 183.60 137.29 184.57 138.02 185.02 Z M 139.03 185.63 L 139.94 186.01 C 140.74 186.35 141.65 185.98 141.99 185.18 C 142.32 184.39 141.95 183.47 141.16 183.14 L 140.24 182.75 C 139.45 182.42 138.53 182.79 138.20 183.58 C 137.86 184.38 138.24 185.29 139.03 185.63 Z M 140.14 186.08 L 141.20 186.37 C 142.03 186.59 142.89 186.10 143.11 185.27 C 143.34 184.44 142.85 183.58 142.01 183.35 L 140.96 183.07 C 140.13 182.84 139.27 183.33 139.04 184.17 C 138.82 185.00 139.31 185.86 140.14 186.08 Z M 141.35 186.40 L 142.40 186.58 C 143.25 186.72 144.05 186.15 144.20 185.30 C 144.34 184.45 143.77 183.64 142.92 183.50 L 141.86 183.32 C 141.01 183.18 140.21 183.75 140.07 184.60 C 139.92 185.45 140.50 186.26 141.35 186.40 Z M 142.50 186.59 L 143.50 186.69 C 144.36 186.78 145.13 186.16 145.21 185.30 C 145.30 184.44 144.67 183.67 143.82 183.59 L 142.81 183.49 C 141.96 183.40 141.19 184.02 141.10 184.88 C 141.02 185.74 141.64 186.50 142.50 186.59 Z M 143.58 186.70 L 144.62 186.75 C 145.48 186.80 146.22 186.14 146.26 185.28 C 146.31 184.42 145.65 183.68 144.79 183.64 L 143.74 183.58 C 142.88 183.54 142.15 184.20 142.10 185.06 C 142.06 185.92 142.72 186.65 143.58 186.70 Z M 144.69 186.76 L 145.74 186.77 C 146.60 186.77 147.31 186.08 147.32 185.22 C 147.32 184.36 146.63 183.65 145.77 183.64 L 144.72 183.63 C 143.86 183.63 143.15 184.32 143.14 185.18 C 143.13 186.04 143.83 186.75 144.69 186.76 Z M 145.81 186.76 L 146.83 186.73 C 147.69 186.70 148.36 185.98 148.34 185.12 C 148.31 184.26 147.58 183.58 146.72 183.61 L 145.70 183.64 C 144.84 183.67 144.16 184.40 144.19 185.26 C 144.22 186.12 144.95 186.79 145.81 186.76 Z M 146.90 186.73 L 147.86 186.65 C 148.72 186.58 149.36 185.83 149.29 184.97 C 149.22 184.11 148.47 183.47 147.61 183.54 L 146.65 183.61 C 145.79 183.68 145.15 184.43 145.22 185.29 C 145.29 186.15 146.04 186.79 146.90 186.73 Z M 147.95 186.64 L 149.01 186.49 C 149.86 186.36 150.45 185.57 150.33 184.72 C 150.21 183.86 149.41 183.27 148.56 183.40 L 147.51 183.55 C 146.65 183.67 146.06 184.46 146.19 185.32 C 146.31 186.17 147.10 186.76 147.95 186.64 Z M 149.16 186.46 L 150.26 186.18 C 151.09 185.97 151.60 185.13 151.39 184.29 C 151.18 183.45 150.34 182.94 149.50 183.15 L 148.40 183.43 C 147.57 183.64 147.06 184.48 147.27 185.32 C 147.48 186.16 148.32 186.66 149.16 186.46 Z M 150.45 186.12 L 151.34 185.77 C 152.14 185.46 152.54 184.55 152.22 183.75 C 151.91 182.95 151.00 182.55 150.20 182.87 L 149.31 183.21 C 148.51 183.53 148.11 184.43 148.42 185.24 C 148.74 186.04 149.64 186.44 150.45 186.12 Z M 151.51 185.69 L 152.26 185.29 C 153.02 184.88 153.31 183.93 152.90 183.17 C 152.49 182.41 151.54 182.13 150.78 182.54 L 150.03 182.95 C 149.27 183.36 148.98 184.30 149.39 185.06 C 149.80 185.82 150.75 186.10 151.51 185.69 Z M 152.38 185.21 L 153.15 184.70 C 153.87 184.23 154.07 183.26 153.60 182.54 C 153.12 181.82 152.15 181.62 151.43 182.10 L 150.66 182.61 C 149.94 183.08 149.75 184.05 150.22 184.77 C 150.70 185.49 151.66 185.69 152.38 185.21 Z M 153.24 184.65 L 154.03 184.05 C 154.71 183.53 154.85 182.55 154.33 181.86 C 153.81 181.17 152.83 181.04 152.14 181.56 L 151.35 182.16 C 150.66 182.68 150.53 183.66 151.05 184.34 C 151.57 185.03 152.55 185.17 153.24 184.65 Z M 154.09 184.00 L 154.86 183.35 C 155.52 182.79 155.60 181.81 155.04 181.15 C 154.49 180.49 153.50 180.41 152.84 180.96 L 152.08 181.61 C 151.42 182.17 151.34 183.15 151.89 183.81 C 152.45 184.47 153.43 184.55 154.09 184.00 Z M 154.90 183.31 L 155.63 182.64 C 156.27 182.06 156.32 181.07 155.74 180.44 C 155.16 179.80 154.17 179.75 153.53 180.33 L 152.80 181.00 C 152.16 181.58 152.11 182.57 152.70 183.21 C 153.28 183.85 154.26 183.89 154.90 183.31 Z M 155.67 182.61 L 156.37 181.93 C 156.99 181.34 157.01 180.35 156.41 179.73 C 155.81 179.11 154.82 179.09 154.20 179.69 L 153.50 180.36 C 152.88 180.96 152.86 181.95 153.46 182.57 C 154.06 183.19 155.05 183.21 155.67 182.61 Z M 156.40 181.90 L 157.10 181.19 C 157.71 180.57 157.70 179.58 157.08 178.98 C 156.47 178.37 155.48 178.38 154.88 179.00 L 154.17 179.72 C 153.57 180.33 153.58 181.32 154.19 181.93 C 154.81 182.53 155.80 182.52 156.40 181.90 Z M 157.14 181.15 L 157.84 180.39 C 158.42 179.76 158.39 178.77 157.75 178.19 C 157.12 177.60 156.13 177.64 155.55 178.27 L 154.84 179.03 C 154.26 179.67 154.30 180.65 154.93 181.24 C 155.56 181.82 156.55 181.79 157.14 181.15 Z M 157.87 180.36 L 158.50 179.64 C 159.07 178.99 159.00 178.00 158.35 177.44 C 157.70 176.87 156.72 176.93 156.15 177.58 L 155.52 178.31 C 154.95 178.95 155.01 179.94 155.66 180.51 C 156.31 181.08 157.30 181.01 157.87 180.36 Z M 158.52 179.61 L 159.16 178.85 C 159.71 178.19 159.62 177.20 158.96 176.65 C 158.29 176.10 157.31 176.19 156.76 176.85 L 156.13 177.61 C 155.57 178.28 155.66 179.26 156.33 179.81 C 156.99 180.36 157.97 180.27 158.52 179.61 Z M 159.18 178.82 L 159.81 178.02 C 160.35 177.35 160.24 176.37 159.56 175.83 C 158.89 175.30 157.90 175.41 157.37 176.08 L 156.73 176.88 C 156.20 177.56 156.31 178.54 156.99 179.07 C 157.66 179.61 158.64 179.50 159.18 178.82 Z M 159.83 178.00 L 160.45 177.18 C 160.98 176.49 160.84 175.51 160.15 174.99 C 159.47 174.47 158.49 174.61 157.97 175.29 L 157.35 176.11 C 156.83 176.80 156.96 177.78 157.65 178.30 C 158.33 178.82 159.31 178.68 159.83 178.00 Z M 160.47 177.16 L 161.05 176.36 C 161.56 175.66 161.40 174.69 160.71 174.18 C 160.01 173.67 159.03 173.83 158.53 174.52 L 157.95 175.32 C 157.44 176.02 157.59 176.99 158.29 177.50 C 158.99 178.01 159.97 177.85 160.47 177.16 Z M 161.07 176.34 L 161.64 175.52 C 162.14 174.81 161.97 173.84 161.26 173.34 C 160.55 172.85 159.58 173.02 159.08 173.73 L 158.51 174.55 C 158.02 175.25 158.19 176.23 158.89 176.72 C 159.60 177.22 160.57 177.04 161.07 176.34 Z M 161.66 175.50 L 162.22 174.66 C 162.71 173.94 162.52 172.97 161.80 172.49 C 161.09 172.01 160.12 172.20 159.63 172.91 L 159.07 173.75 C 158.59 174.46 158.78 175.43 159.49 175.92 C 160.20 176.40 161.17 176.21 161.66 175.50 Z M 162.24 174.64 L 162.79 173.79 C 163.26 173.07 163.05 172.10 162.33 171.63 C 161.61 171.16 160.64 171.36 160.17 172.09 L 159.62 172.93 C 159.15 173.66 159.35 174.62 160.08 175.09 C 160.80 175.56 161.77 175.36 162.24 174.64 Z M 162.80 173.77 L 163.32 172.94 C 163.78 172.21 163.56 171.24 162.83 170.79 C 162.10 170.33 161.14 170.55 160.68 171.28 L 160.16 172.11 C 159.70 172.84 159.92 173.80 160.65 174.26 C 161.38 174.72 162.34 174.50 162.80 173.77 Z M 163.33 172.92 L 163.85 172.08 C 164.30 171.34 164.06 170.38 163.33 169.93 C 162.59 169.48 161.63 169.72 161.18 170.45 L 160.67 171.30 C 160.22 172.03 160.45 172.99 161.19 173.44 C 161.92 173.89 162.88 173.66 163.33 172.92 Z M 163.85 172.06 L 164.37 171.20 C 164.81 170.46 164.57 169.50 163.83 169.06 C 163.09 168.62 162.13 168.86 161.69 169.60 L 161.17 170.46 C 160.73 171.21 160.97 172.16 161.71 172.61 C 162.45 173.05 163.41 172.81 163.85 172.06 Z M 164.37 171.20 L 164.89 170.31 C 165.33 169.57 165.08 168.61 164.34 168.17 C 163.60 167.74 162.64 167.98 162.20 168.73 L 161.68 169.61 C 161.25 170.35 161.49 171.31 162.24 171.75 C 162.98 172.19 163.94 171.94 164.37 171.20 Z M 164.90 170.31 L 165.40 169.44 C 165.84 168.70 165.59 167.74 164.84 167.30 C 164.10 166.87 163.14 167.12 162.71 167.86 L 162.20 168.73 C 161.77 169.48 162.02 170.43 162.76 170.87 C 163.51 171.30 164.46 171.05 164.90 170.31 Z M 165.41 169.43 L 165.91 168.56 C 166.35 167.81 166.09 166.85 165.34 166.42 C 164.60 165.99 163.64 166.25 163.21 166.99 L 162.70 167.87 C 162.27 168.62 162.53 169.57 163.28 170.00 C 164.02 170.43 164.98 170.18 165.41 169.43 Z M 165.92 168.54 L 166.42 167.66 C 166.84 166.91 166.58 165.96 165.83 165.53 C 165.08 165.11 164.12 165.38 163.70 166.13 L 163.20 167.01 C 162.78 167.76 163.04 168.71 163.79 169.13 C 164.55 169.56 165.50 169.29 165.92 168.54 Z M 166.43 167.64 L 166.91 166.77 C 167.32 166.01 167.04 165.06 166.29 164.65 C 165.53 164.24 164.58 164.52 164.17 165.27 L 163.69 166.15 C 163.28 166.90 163.55 167.85 164.31 168.26 C 165.07 168.68 166.02 168.40 166.43 167.64 Z M 166.92 166.74 L 167.39 165.85 C 167.78 165.08 167.49 164.14 166.72 163.74 C 165.96 163.34 165.02 163.64 164.62 164.41 L 164.15 165.30 C 163.75 166.06 164.05 167.01 164.82 167.41 C 165.58 167.80 166.52 167.51 166.92 166.74 Z M 167.40 165.81 L 167.86 164.88 C 168.24 164.10 167.92 163.17 167.15 162.79 C 166.37 162.41 165.44 162.73 165.06 163.50 L 164.60 164.44 C 164.22 165.21 164.54 166.15 165.32 166.53 C 166.09 166.91 167.02 166.59 167.40 165.81 Z M 167.88 164.85 L 168.30 163.94 C 168.66 163.16 168.32 162.23 167.54 161.87 C 166.75 161.50 165.83 161.84 165.46 162.63 L 165.04 163.54 C 164.68 164.32 165.02 165.25 165.81 165.61 C 166.59 165.97 167.52 165.63 167.88 164.85 Z M 168.31 163.91 L 168.70 163.03 C 169.05 162.24 168.69 161.32 167.90 160.97 C 167.11 160.62 166.19 160.98 165.84 161.77 L 165.45 162.65 C 165.10 163.44 165.46 164.36 166.25 164.71 C 167.04 165.06 167.96 164.70 168.31 163.91 Z M 168.71 163.01 L 169.07 162.15 C 169.41 161.36 169.04 160.44 168.25 160.10 C 167.45 159.77 166.54 160.14 166.20 160.93 L 165.83 161.79 C 165.50 162.58 165.87 163.50 166.66 163.83 C 167.45 164.17 168.37 163.80 168.71 163.01 Z M 169.08 162.13 L 169.43 161.29 C 169.75 160.49 169.37 159.58 168.57 159.25 C 167.77 158.92 166.86 159.31 166.54 160.10 L 166.19 160.95 C 165.86 161.75 166.25 162.66 167.04 162.98 C 167.84 163.31 168.75 162.93 169.08 162.13 Z M 169.44 161.26 L 169.78 160.36 C 170.09 159.56 169.69 158.66 168.88 158.35 C 168.08 158.04 167.18 158.44 166.87 159.24 L 166.52 160.13 C 166.21 160.94 166.62 161.84 167.42 162.15 C 168.22 162.46 169.13 162.06 169.44 161.26 Z M 169.79 160.33 L 170.14 159.34 C 170.43 158.53 170.01 157.64 169.20 157.35 C 168.38 157.06 167.49 157.48 167.20 158.30 L 166.85 159.28 C 166.56 160.09 166.99 160.99 167.80 161.27 C 168.61 161.56 169.51 161.14 169.79 160.33 Z M 170.16 159.31 L 170.49 158.27 C 170.76 157.45 170.32 156.57 169.50 156.30 C 168.68 156.03 167.80 156.48 167.53 157.30 L 167.19 158.33 C 166.92 159.15 167.37 160.04 168.19 160.30 C 169.01 160.57 169.89 160.13 170.16 159.31 Z M 170.50 158.24 L 170.77 157.37 C 171.02 156.54 170.56 155.67 169.73 155.42 C 168.91 155.17 168.04 155.63 167.78 156.46 L 167.52 157.33 C 167.27 158.16 167.73 159.03 168.55 159.28 C 169.38 159.53 170.25 159.07 170.50 158.24 Z M 170.78 157.34 L 171.05 156.41 C 171.29 155.58 170.81 154.71 169.98 154.47 C 169.15 154.24 168.28 154.72 168.05 155.54 L 167.78 156.48 C 167.54 157.31 168.02 158.17 168.85 158.41 C 169.68 158.65 170.54 158.17 170.78 157.34 Z M 171.05 156.38 L 171.32 155.40 C 171.54 154.56 171.05 153.71 170.22 153.48 C 169.38 153.26 168.53 153.75 168.30 154.59 L 168.04 155.57 C 167.82 156.40 168.31 157.26 169.14 157.48 C 169.97 157.71 170.83 157.21 171.05 156.38 Z M 171.33 155.37 L 171.58 154.35 C 171.79 153.52 171.28 152.67 170.44 152.46 C 169.61 152.25 168.76 152.76 168.55 153.60 L 168.30 154.61 C 168.09 155.45 168.60 156.30 169.43 156.51 C 170.27 156.71 171.12 156.20 171.33 155.37 Z M 171.59 154.32 L 171.82 153.30 C 172.01 152.46 171.49 151.62 170.64 151.43 C 169.80 151.24 168.97 151.76 168.78 152.60 L 168.54 153.63 C 168.35 154.47 168.88 155.31 169.72 155.50 C 170.56 155.69 171.40 155.16 171.59 154.32 Z M 171.83 153.26 L 172.04 152.21 C 172.21 151.37 171.67 150.54 170.82 150.37 C 169.98 150.20 169.15 150.75 168.98 151.59 L 168.77 152.64 C 168.60 153.49 169.14 154.31 169.99 154.48 C 170.83 154.65 171.66 154.11 171.83 153.26 Z M 172.05 152.17 L 172.24 151.09 C 172.38 150.25 171.82 149.44 170.97 149.29 C 170.12 149.14 169.31 149.71 169.16 150.56 L 168.97 151.63 C 168.82 152.48 169.39 153.29 170.24 153.44 C 171.09 153.59 171.90 153.02 172.05 152.17 Z M 172.24 151.05 L 172.40 150.01 C 172.52 149.16 171.93 148.37 171.08 148.24 C 170.23 148.11 169.44 148.70 169.31 149.56 L 169.15 150.60 C 169.03 151.45 169.62 152.24 170.47 152.37 C 171.32 152.50 172.12 151.91 172.24 151.05 Z M 172.40 149.97 L 172.53 148.98 C 172.63 148.12 172.02 147.34 171.17 147.24 C 170.31 147.13 169.53 147.74 169.43 148.60 L 169.30 149.59 C 169.20 150.45 169.81 151.23 170.66 151.33 C 171.52 151.44 172.30 150.83 172.40 149.97 Z M 172.53 148.94 L 172.62 148.00 C 172.71 147.14 172.08 146.38 171.22 146.30 C 170.36 146.21 169.60 146.84 169.51 147.70 L 169.42 148.64 C 169.34 149.49 169.96 150.26 170.82 150.34 C 171.68 150.43 172.44 149.80 172.53 148.94 Z M 172.63 147.96 L 172.69 147.09 C 172.75 146.23 172.11 145.48 171.25 145.42 C 170.39 145.36 169.64 146.00 169.57 146.86 L 169.51 147.74 C 169.45 148.59 170.09 149.34 170.95 149.41 C 171.81 149.47 172.56 148.82 172.63 147.96 Z M 172.69 147.03 L 172.73 145.87 C 172.76 145.01 172.08 144.29 171.22 144.26 C 170.36 144.23 169.64 144.91 169.61 145.77 L 169.57 146.93 C 169.54 147.79 170.22 148.51 171.08 148.54 C 171.94 148.57 172.66 147.89 172.69 147.03 Z M 172.73 145.72 L 172.67 144.71 C 172.61 143.85 171.87 143.19 171.01 143.25 C 170.15 143.30 169.50 144.04 169.55 144.90 L 169.61 145.92 C 169.67 146.78 170.41 147.43 171.27 147.38 C 172.13 147.33 172.78 146.58 172.73 145.72 Z M 172.63 144.44 L 172.42 143.57 C 172.21 142.73 171.37 142.21 170.53 142.41 C 169.70 142.61 169.18 143.46 169.38 144.30 L 169.59 145.17 C 169.79 146.01 170.63 146.52 171.47 146.32 C 172.31 146.12 172.83 145.28 172.63 144.44 Z M 172.28 143.20 L 171.87 142.43 C 171.46 141.67 170.52 141.38 169.76 141.78 C 168.99 142.19 168.70 143.13 169.11 143.89 L 169.52 144.66 C 169.92 145.43 170.87 145.71 171.63 145.31 C 172.39 144.90 172.68 143.96 172.28 143.20 Z M 171.63 142.09 L 170.98 141.41 C 170.39 140.78 169.41 140.75 168.78 141.34 C 168.15 141.92 168.12 142.91 168.71 143.54 L 169.35 144.23 C 169.94 144.86 170.93 144.89 171.56 144.30 C 172.18 143.71 172.22 142.72 171.63 142.09 Z M 170.74 141.20 L 169.92 140.62 C 169.21 140.12 168.24 140.29 167.74 141.00 C 167.25 141.70 167.42 142.68 168.12 143.17 L 168.95 143.75 C 169.65 144.25 170.63 144.08 171.12 143.37 C 171.62 142.67 171.45 141.69 170.74 141.20 Z M 169.72 140.50 L 168.75 140.02 C 167.98 139.63 167.04 139.95 166.66 140.72 C 166.27 141.49 166.59 142.43 167.36 142.81 L 168.32 143.29 C 169.09 143.68 170.03 143.36 170.42 142.59 C 170.80 141.82 170.49 140.88 169.72 140.50 Z M 168.60 139.95 L 167.71 139.62 C 166.90 139.32 166.00 139.73 165.70 140.53 C 165.40 141.34 165.81 142.24 166.61 142.54 L 167.51 142.88 C 168.32 143.18 169.22 142.77 169.52 141.96 C 169.82 141.15 169.41 140.25 168.60 139.95 Z M 167.59 139.58 L 166.64 139.31 C 165.81 139.07 164.94 139.56 164.71 140.39 C 164.47 141.22 164.96 142.08 165.79 142.31 L 166.74 142.58 C 167.57 142.82 168.43 142.34 168.66 141.51 C 168.90 140.68 168.42 139.81 167.59 139.58 Z M 166.53 139.28 L 165.53 139.08 C 164.69 138.90 163.86 139.44 163.69 140.29 C 163.51 141.13 164.05 141.96 164.90 142.13 L 165.89 142.34 C 166.74 142.51 167.56 141.97 167.74 141.13 C 167.92 140.28 167.37 139.46 166.53 139.28 Z M 165.44 139.06 L 164.41 138.91 C 163.55 138.79 162.76 139.38 162.64 140.24 C 162.52 141.09 163.11 141.88 163.97 142.00 L 165.00 142.15 C 165.85 142.27 166.64 141.68 166.76 140.82 C 166.88 139.97 166.29 139.18 165.44 139.06 Z M 164.32 138.90 L 163.34 138.82 C 162.48 138.75 161.73 139.39 161.65 140.24 C 161.58 141.10 162.22 141.86 163.08 141.93 L 164.05 142.01 C 164.91 142.09 165.67 141.45 165.74 140.59 C 165.81 139.73 165.18 138.98 164.32 138.90 Z M 163.25 138.82 L 162.26 138.79 C 161.40 138.76 160.68 139.44 160.66 140.30 C 160.63 141.17 161.31 141.88 162.17 141.91 L 163.17 141.94 C 164.03 141.96 164.75 141.28 164.77 140.42 C 164.79 139.56 164.11 138.84 163.25 138.82 Z M 162.17 138.79 L 161.16 138.82 C 160.30 138.85 159.63 139.57 159.65 140.43 C 159.68 141.29 160.40 141.97 161.26 141.94 L 162.27 141.91 C 163.13 141.88 163.80 141.16 163.78 140.30 C 163.75 139.44 163.03 138.76 162.17 138.79 Z M 161.07 138.83 L 160.05 138.92 C 159.20 139.00 158.57 139.76 158.65 140.62 C 158.73 141.48 159.49 142.11 160.35 142.03 L 161.36 141.93 C 162.22 141.85 162.85 141.09 162.77 140.23 C 162.69 139.37 161.92 138.74 161.07 138.83 Z M 159.95 138.93 L 158.97 139.09 C 158.12 139.23 157.54 140.03 157.68 140.88 C 157.81 141.74 158.62 142.31 159.47 142.18 L 160.45 142.02 C 161.30 141.88 161.88 141.08 161.74 140.23 C 161.61 139.37 160.80 138.80 159.95 138.93 Z M 158.88 139.11 L 157.91 139.33 C 157.07 139.52 156.54 140.35 156.73 141.19 C 156.92 142.04 157.75 142.56 158.59 142.38 L 159.56 142.16 C 160.40 141.97 160.93 141.13 160.74 140.29 C 160.55 139.45 159.72 138.92 158.88 139.11 Z M 157.83 139.35 L 156.86 139.62 C 156.03 139.85 155.55 140.72 155.78 141.55 C 156.02 142.38 156.88 142.86 157.71 142.63 L 158.67 142.36 C 159.50 142.12 159.99 141.26 159.75 140.43 C 159.52 139.60 158.66 139.12 157.83 139.35 Z M 156.79 139.64 L 155.84 139.96 C 155.02 140.23 154.58 141.11 154.85 141.93 C 155.12 142.75 156.00 143.19 156.82 142.92 L 157.78 142.61 C 158.60 142.33 159.04 141.45 158.77 140.63 C 158.50 139.81 157.61 139.37 156.79 139.64 Z M 155.78 139.98 L 154.83 140.34 C 154.03 140.64 153.62 141.54 153.92 142.35 C 154.22 143.15 155.13 143.56 155.93 143.26 L 156.88 142.90 C 157.69 142.60 158.09 141.70 157.79 140.89 C 157.49 140.08 156.59 139.68 155.78 139.98 Z M 154.78 140.36 L 153.84 140.75 C 153.04 141.08 152.67 142.00 153.00 142.79 C 153.33 143.59 154.24 143.96 155.04 143.63 L 155.98 143.24 C 156.78 142.91 157.16 141.99 156.82 141.20 C 156.49 140.40 155.58 140.02 154.78 140.36 Z M 153.79 140.77 L 152.87 141.19 C 152.08 141.55 151.74 142.48 152.10 143.26 C 152.46 144.05 153.38 144.39 154.17 144.03 L 155.09 143.61 C 155.87 143.25 156.22 142.32 155.86 141.54 C 155.50 140.76 154.57 140.41 153.79 140.77 Z M 152.82 141.22 L 151.93 141.66 C 151.15 142.05 150.84 142.99 151.23 143.76 C 151.61 144.53 152.55 144.84 153.32 144.46 L 154.21 144.01 C 154.99 143.62 155.30 142.69 154.91 141.92 C 154.53 141.14 153.59 140.83 152.82 141.22 Z M 151.88 141.69 L 151.02 142.15 C 150.26 142.57 149.98 143.51 150.40 144.27 C 150.81 145.03 151.76 145.31 152.51 144.90 L 153.37 144.43 C 154.13 144.02 154.41 143.07 153.99 142.31 C 153.58 141.56 152.63 141.28 151.88 141.69 Z M 150.97 142.18 L 150.13 142.68 C 149.39 143.12 149.14 144.08 149.58 144.82 C 150.02 145.56 150.98 145.81 151.72 145.37 L 152.57 144.87 C 153.31 144.43 153.55 143.47 153.11 142.73 C 152.67 141.99 151.71 141.74 150.97 142.18 Z M 150.07 142.72 L 149.25 143.25 C 148.53 143.72 148.33 144.69 148.80 145.41 C 149.27 146.13 150.24 146.34 150.96 145.87 L 151.78 145.33 C 152.50 144.86 152.70 143.90 152.23 143.17 C 151.76 142.45 150.79 142.25 150.07 142.72 Z M 149.20 143.29 L 148.40 143.86 C 147.70 144.37 147.54 145.34 148.04 146.04 C 148.54 146.74 149.52 146.90 150.22 146.40 L 151.02 145.83 C 151.72 145.33 151.88 144.35 151.38 143.65 C 150.87 142.95 149.90 142.79 149.20 143.29 Z M 148.34 143.90 L 147.54 144.53 C 146.86 145.06 146.75 146.04 147.28 146.72 C 147.81 147.40 148.79 147.52 149.47 146.99 L 150.27 146.36 C 150.95 145.83 151.07 144.85 150.54 144.17 C 150.00 143.49 149.02 143.37 148.34 143.90 Z M 147.50 144.57 L 146.71 145.23 C 146.05 145.79 145.97 146.77 146.53 147.43 C 147.09 148.09 148.07 148.17 148.73 147.62 L 149.51 146.95 C 150.17 146.40 150.26 145.41 149.70 144.75 C 149.14 144.09 148.16 144.01 147.50 144.57 Z M 146.68 145.26 L 145.91 145.95 C 145.27 146.53 145.22 147.51 145.80 148.15 C 146.37 148.79 147.36 148.85 148.00 148.27 L 148.77 147.58 C 149.41 147.01 149.46 146.02 148.88 145.38 C 148.31 144.74 147.32 144.69 146.68 145.26 Z M 145.88 145.98 L 145.13 146.69 C 144.51 147.28 144.48 148.27 145.08 148.90 C 145.67 149.52 146.66 149.55 147.28 148.95 L 148.03 148.24 C 148.66 147.65 148.68 146.66 148.09 146.03 C 147.50 145.41 146.51 145.38 145.88 145.98 Z M 145.10 146.72 L 144.39 147.43 C 143.78 148.05 143.79 149.03 144.40 149.64 C 145.01 150.25 146.00 150.25 146.61 149.64 L 147.32 148.92 C 147.92 148.31 147.92 147.32 147.31 146.71 C 146.70 146.11 145.71 146.11 145.10 146.72 Z M 144.36 147.47 L 143.72 148.16 C 143.13 148.79 143.16 149.78 143.79 150.37 C 144.42 150.95 145.41 150.92 146.00 150.29 L 146.64 149.60 C 147.23 148.97 147.20 147.98 146.56 147.39 C 145.93 146.81 144.95 146.84 144.36 147.47 Z M 143.66 148.22 L 142.88 149.15 C 142.32 149.81 142.41 150.79 143.07 151.35 C 143.73 151.90 144.71 151.82 145.27 151.16 L 146.05 150.23 C 146.61 149.57 146.52 148.59 145.86 148.03 C 145.21 147.48 144.22 147.56 143.66 148.22 Z M 142.82 149.23 L 142.21 150.05 C 141.70 150.75 141.85 151.73 142.54 152.24 C 143.24 152.75 144.22 152.60 144.73 151.90 L 145.33 151.08 C 145.84 150.38 145.69 149.41 145.00 148.90 C 144.30 148.39 143.33 148.54 142.82 149.23 Z M 142.14 150.16 L 141.73 150.83 C 141.27 151.56 141.50 152.52 142.23 152.98 C 142.96 153.43 143.93 153.20 144.38 152.47 L 144.80 151.80 C 145.25 151.07 145.02 150.10 144.29 149.65 C 143.56 149.20 142.59 149.42 142.14 150.16 Z M 141.60 151.07 L 141.22 152.05 C 140.90 152.85 141.29 153.76 142.09 154.07 C 142.89 154.39 143.80 154.00 144.12 153.20 L 144.50 152.22 C 144.82 151.42 144.43 150.51 143.63 150.20 C 142.83 149.88 141.92 150.27 141.60 151.07 Z M 141.13 152.37 L 141.08 152.65 C 140.94 153.50 141.52 154.31 142.37 154.45 C 143.22 154.58 144.02 154.01 144.16 153.16 L 144.21 152.88 C 144.35 152.02 143.77 151.22 142.92 151.08 C 142.07 150.94 141.27 151.52 141.13 152.37 Z"
      fill="black"
      fill-rule="nonzero" /></svg>