<svg xmlns="http://www.w3.org/2000/svg" width="300" height="300" viewBox="0 0 300 300">
<path d="M 155.21 144.09 L 154.82 143.15 C 154.50 142.35 153.58 141.96 152.79 142.29 C 151.99 142.62 151.60 143.53 151.93 144.32 L 152.32 145.27 C 152.64 146.07 153.55 146.45 154.35 146.13 C 155.15 145.80 155.53 144.89 155.21 144.09 Z M 154.82 143.14 L 154.43 142.21 C 154.11 141.41 153.19 141.03 152.40 141.36 C 151.60 141.69 151.22 142.60 151.55 143.40 L 151.93 144.33 C 152.26 145.13 153.17 145.51 153.97 145.18 C 154.77 144.85 155.15 143.94 154.82 143.14 Z M 154.43 142.19 L 154.04 141.28 C 153.71 140.48 152.79 140.11 152.00 140.45 C 151.20 140.78 150.83 141.70 151.17 142.49 L 151.55 143.41 C 151.89 144.20 152.80 144.57 153.60 144.24 C 154.39 143.90 154.76 142.99 154.43 142.19 Z M 154.04 141.26 L 153.64 140.36 C 153.30 139.56 152.38 139.20 151.59 139.55 C 150.80 139.89 150.44 140.81 150.78 141.60 L 151.17 142.51 C 151.52 143.30 152.44 143.66 153.23 143.32 C 154.02 142.97 154.38 142.05 154.04 141.26 Z M 153.63 140.33 L 153.20 139.38 C 152.84 138.60 151.91 138.26 151.13 138.62 C 150.34 138.98 150.00 139.90 150.36 140.69 L 150.79 141.63 C 151.15 142.41 152.08 142.76 152.86 142.40 C 153.65 142.04 153.99 141.11 153.63 140.33 Z M 153.17 139.34 L 152.73 138.45 C 152.35 137.67 151.41 137.36 150.64 137.74 C 149.86 138.13 149.55 139.07 149.94 139.84 L 150.38 140.73 C 150.77 141.50 151.70 141.82 152.47 141.43 C 153.25 141.05 153.56 140.11 153.17 139.34 Z M 152.70 138.38 L 152.23 137.54 C 151.81 136.79 150.86 136.52 150.11 136.94 C 149.35 137.36 149.08 138.31 149.50 139.06 L 149.97 139.90 C 150.39 140.65 151.34 140.93 152.09 140.51 C 152.85 140.09 153.12 139.14 152.70 138.38 Z M 152.17 137.45 L 151.60 136.57 C 151.12 135.85 150.16 135.64 149.44 136.12 C 148.71 136.59 148.51 137.55 148.98 138.28 L 149.56 139.16 C 150.03 139.88 151.00 140.08 151.72 139.61 C 152.44 139.14 152.64 138.17 152.17 137.45 Z M 151.46 136.39 L 150.80 135.64 C 150.23 134.99 149.24 134.93 148.59 135.50 C 147.95 136.07 147.88 137.05 148.45 137.70 L 149.12 138.45 C 149.69 139.10 150.67 139.16 151.32 138.59 C 151.97 138.02 152.03 137.04 151.46 136.39 Z M 150.49 135.37 L 149.72 134.85 C 149.01 134.37 148.04 134.57 147.56 135.28 C 147.08 136.00 147.27 136.97 147.99 137.45 L 148.76 137.96 C 149.47 138.44 150.44 138.25 150.92 137.54 C 151.40 136.82 151.21 135.85 150.49 135.37 Z M 149.20 134.63 L 148.34 134.43 C 147.50 134.24 146.66 134.77 146.47 135.61 C 146.28 136.45 146.81 137.29 147.65 137.48 L 148.51 137.67 C 149.35 137.86 150.19 137.34 150.38 136.50 C 150.57 135.66 150.04 134.82 149.20 134.63 Z M 147.74 134.41 L 146.80 134.57 C 145.95 134.71 145.37 135.51 145.51 136.36 C 145.65 137.21 146.45 137.79 147.30 137.65 L 148.24 137.50 C 149.10 137.36 149.67 136.55 149.53 135.70 C 149.39 134.85 148.59 134.28 147.74 134.41 Z M 146.28 134.75 L 145.31 135.30 C 144.56 135.73 144.30 136.68 144.72 137.43 C 145.15 138.18 146.10 138.44 146.85 138.02 L 147.82 137.47 C 148.57 137.04 148.84 136.09 148.41 135.34 C 147.99 134.59 147.03 134.33 146.28 134.75 Z M 145.00 135.53 L 144.33 136.17 C 143.71 136.77 143.68 137.76 144.28 138.38 C 144.88 139.00 145.86 139.03 146.49 138.43 L 147.16 137.79 C 147.78 137.19 147.81 136.20 147.21 135.58 C 146.62 134.96 145.63 134.93 145.00 135.53 Z M 144.19 136.33 L 143.58 137.09 C 143.04 137.77 143.14 138.75 143.82 139.29 C 144.49 139.83 145.47 139.72 146.01 139.05 L 146.63 138.28 C 147.17 137.61 147.06 136.62 146.39 136.08 C 145.71 135.55 144.73 135.65 144.19 136.33 Z M 143.50 137.20 L 142.92 138.06 C 142.43 138.78 142.62 139.75 143.34 140.23 C 144.05 140.71 145.02 140.52 145.51 139.81 L 146.09 138.94 C 146.57 138.23 146.38 137.26 145.66 136.78 C 144.95 136.29 143.98 136.48 143.50 137.20 Z M 142.87 138.14 L 142.33 139.04 C 141.89 139.78 142.14 140.74 142.88 141.18 C 143.62 141.62 144.58 141.38 145.02 140.63 L 145.55 139.73 C 145.99 138.99 145.75 138.03 145.01 137.59 C 144.27 137.15 143.31 137.40 142.87 138.14 Z M 142.30 139.10 L 141.81 140.01 C 141.40 140.77 141.68 141.72 142.44 142.13 C 143.20 142.54 144.15 142.25 144.56 141.49 L 145.05 140.58 C 145.46 139.82 145.17 138.87 144.42 138.46 C 143.66 138.05 142.71 138.34 142.30 139.10 Z M 141.78 140.06 L 141.33 140.98 C 140.94 141.76 141.26 142.69 142.03 143.08 C 142.81 143.46 143.74 143.14 144.12 142.37 L 144.58 141.45 C 144.96 140.67 144.65 139.74 143.87 139.36 C 143.10 138.97 142.16 139.29 141.78 140.06 Z M 141.31 141.03 L 140.90 141.92 C 140.54 142.70 140.88 143.63 141.67 143.99 C 142.45 144.35 143.38 144.00 143.74 143.22 L 144.14 142.33 C 144.50 141.54 144.16 140.62 143.38 140.26 C 142.59 139.90 141.67 140.24 141.31 141.03 Z M 140.88 141.95 L 140.50 142.84 C 140.16 143.63 140.52 144.55 141.31 144.89 C 142.10 145.24 143.02 144.87 143.36 144.08 L 143.75 143.19 C 144.09 142.40 143.73 141.48 142.94 141.14 C 142.15 140.80 141.23 141.16 140.88 141.95 Z M 140.49 142.85 L 140.12 143.75 C 139.78 144.54 140.15 145.46 140.95 145.79 C 141.74 146.13 142.66 145.75 142.99 144.96 L 143.37 144.07 C 143.70 143.27 143.33 142.36 142.54 142.02 C 141.74 141.69 140.83 142.06 140.49 142.85 Z M 140.11 143.75 L 139.75 144.62 C 139.41 145.42 139.79 146.33 140.58 146.67 C 141.38 147.00 142.29 146.63 142.63 145.83 L 142.99 144.96 C 143.33 144.16 142.95 143.25 142.16 142.91 C 141.36 142.58 140.45 142.95 140.11 143.75 Z M 139.75 144.63 L 139.37 145.54 C 139.04 146.33 139.41 147.25 140.21 147.58 C 141.00 147.91 141.92 147.53 142.25 146.74 L 142.63 145.83 C 142.96 145.03 142.58 144.12 141.79 143.79 C 140.99 143.45 140.08 143.83 139.75 144.63 Z M 139.36 145.54 L 138.98 146.48 C 138.65 147.28 139.03 148.19 139.82 148.52 C 140.62 148.85 141.53 148.47 141.86 147.67 L 142.25 146.73 C 142.58 145.93 142.20 145.02 141.40 144.69 C 140.61 144.36 139.69 144.74 139.36 145.54 Z M 138.97 146.49 L 138.58 147.46 C 138.25 148.26 138.63 149.17 139.43 149.50 C 140.23 149.82 141.14 149.44 141.47 148.64 L 141.86 147.67 C 142.19 146.87 141.81 145.96 141.01 145.63 C 140.21 145.31 139.30 145.69 138.97 146.49 Z M 138.57 147.47 L 138.20 148.40 C 137.88 149.20 138.27 150.11 139.07 150.43 C 139.87 150.75 140.78 150.36 141.10 149.56 L 141.47 148.63 C 141.79 147.83 141.40 146.93 140.60 146.60 C 139.80 146.28 138.89 146.67 138.57 147.47 Z M 138.20 148.40 L 137.83 149.33 C 137.52 150.13 137.91 151.04 138.71 151.35 C 139.51 151.67 140.42 151.28 140.74 150.48 L 141.10 149.55 C 141.42 148.75 141.03 147.84 140.22 147.53 C 139.42 147.21 138.52 147.60 138.20 148.40 Z M 137.83 149.34 L 137.47 150.28 C 137.15 151.08 137.55 151.98 138.36 152.30 C 139.16 152.61 140.06 152.21 140.38 151.41 L 140.74 150.47 C 141.05 149.66 140.66 148.76 139.85 148.45 C 139.05 148.13 138.14 148.53 137.83 149.34 Z M 137.46 150.28 L 137.10 151.23 C 136.79 152.03 137.20 152.94 138.00 153.24 C 138.81 153.55 139.71 153.15 140.02 152.34 L 140.38 151.40 C 140.69 150.59 140.28 149.69 139.48 149.38 C 138.67 149.07 137.77 149.48 137.46 150.28 Z M 137.10 151.24 L 136.74 152.18 C 136.44 152.98 136.85 153.89 137.66 154.19 C 138.46 154.49 139.36 154.08 139.67 153.28 L 140.02 152.33 C 140.32 151.53 139.92 150.63 139.11 150.32 C 138.30 150.02 137.40 150.43 137.10 151.24 Z M 136.74 152.19 L 136.39 153.13 C 136.10 153.94 136.51 154.84 137.32 155.14 C 138.13 155.43 139.02 155.02 139.32 154.21 L 139.67 153.27 C 139.97 152.46 139.55 151.56 138.75 151.26 C 137.94 150.96 137.04 151.38 136.74 152.19 Z M 136.39 153.14 L 136.05 154.08 C 135.76 154.90 136.18 155.79 136.99 156.08 C 137.80 156.37 138.70 155.95 138.99 155.14 L 139.33 154.20 C 139.62 153.39 139.20 152.49 138.39 152.20 C 137.57 151.91 136.68 152.33 136.39 153.14 Z M 136.05 154.10 L 135.72 155.04 C 135.44 155.85 135.87 156.74 136.68 157.03 C 137.50 157.31 138.39 156.88 138.67 156.06 L 139.00 155.12 C 139.28 154.31 138.85 153.42 138.03 153.14 C 137.22 152.85 136.33 153.29 136.05 154.10 Z M 135.71 155.06 L 135.40 156.00 C 135.12 156.82 135.57 157.70 136.38 157.98 C 137.20 158.25 138.09 157.81 138.36 156.99 L 138.67 156.05 C 138.95 155.23 138.51 154.34 137.69 154.07 C 136.87 153.80 135.99 154.24 135.71 155.06 Z M 135.39 156.02 L 135.09 156.98 C 134.83 157.80 135.28 158.68 136.10 158.94 C 136.92 159.20 137.80 158.75 138.06 157.93 L 138.37 156.97 C 138.63 156.15 138.17 155.27 137.35 155.01 C 136.53 154.75 135.65 155.20 135.39 156.02 Z M 135.08 157.00 L 134.79 157.94 C 134.54 158.77 135.01 159.64 135.84 159.89 C 136.66 160.14 137.53 159.67 137.78 158.85 L 138.07 157.90 C 138.32 157.08 137.85 156.21 137.03 155.96 C 136.20 155.71 135.33 156.17 135.08 157.00 Z M 134.79 157.96 L 134.51 158.92 C 134.27 159.75 134.75 160.61 135.58 160.85 C 136.41 161.09 137.27 160.61 137.51 159.79 L 137.79 158.83 C 138.03 158.00 137.55 157.14 136.72 156.90 C 135.89 156.66 135.03 157.14 134.79 157.96 Z M 134.51 158.94 L 134.24 159.90 C 134.01 160.73 134.50 161.59 135.33 161.82 C 136.16 162.05 137.02 161.57 137.25 160.74 L 137.52 159.77 C 137.75 158.94 137.26 158.08 136.43 157.85 C 135.60 157.62 134.74 158.11 134.51 158.94 Z M 134.24 159.92 L 133.98 160.89 C 133.75 161.72 134.25 162.58 135.08 162.80 C 135.91 163.02 136.77 162.53 136.99 161.70 L 137.25 160.72 C 137.48 159.89 136.98 159.03 136.15 158.81 C 135.32 158.59 134.46 159.08 134.24 159.92 Z M 133.97 160.90 L 133.72 161.87 C 133.50 162.71 134.00 163.56 134.84 163.78 C 135.67 164.00 136.53 163.50 136.74 162.66 L 137.00 161.68 C 137.21 160.85 136.71 160.00 135.88 159.78 C 135.04 159.56 134.19 160.06 133.97 160.90 Z M 133.72 161.88 L 133.47 162.87 C 133.26 163.70 133.76 164.55 134.60 164.76 C 135.43 164.98 136.28 164.47 136.49 163.63 L 136.74 162.65 C 136.96 161.82 136.45 160.97 135.62 160.75 C 134.78 160.54 133.93 161.05 133.72 161.88 Z M 133.47 162.88 L 133.22 163.86 C 133.02 164.69 133.53 165.54 134.37 165.75 C 135.21 165.95 136.05 165.44 136.26 164.60 L 136.50 163.62 C 136.70 162.79 136.19 161.94 135.35 161.73 C 134.52 161.53 133.67 162.04 133.47 162.88 Z M 133.22 163.87 L 132.99 164.85 C 132.79 165.69 133.31 166.53 134.15 166.73 C 134.99 166.92 135.83 166.40 136.03 165.56 L 136.26 164.59 C 136.46 163.75 135.94 162.91 135.10 162.71 C 134.26 162.51 133.42 163.03 133.22 163.87 Z M 132.99 164.87 L 132.77 165.84 C 132.59 166.68 133.12 167.51 133.96 167.70 C 134.80 167.89 135.63 167.36 135.82 166.51 L 136.04 165.54 C 136.22 164.70 135.69 163.87 134.85 163.68 C 134.01 163.50 133.17 164.03 132.99 164.87 Z M 132.77 165.86 L 132.57 166.83 C 132.40 167.67 132.94 168.50 133.79 168.67 C 134.63 168.84 135.46 168.30 135.63 167.45 L 135.83 166.49 C 136.00 165.65 135.45 164.82 134.61 164.65 C 133.76 164.47 132.94 165.02 132.77 165.86 Z M 132.56 166.86 L 132.38 167.87 C 132.22 168.72 132.78 169.53 133.63 169.69 C 134.48 169.84 135.29 169.28 135.45 168.44 L 135.63 167.42 C 135.79 166.57 135.23 165.76 134.38 165.60 C 133.53 165.45 132.72 166.01 132.56 166.86 Z M 132.37 167.90 L 132.21 168.90 C 132.07 169.76 132.65 170.56 133.50 170.70 C 134.35 170.84 135.15 170.26 135.29 169.41 L 135.45 168.40 C 135.59 167.55 135.01 166.75 134.16 166.61 C 133.31 166.47 132.51 167.05 132.37 167.90 Z M 132.20 168.94 L 132.06 169.93 C 131.94 170.78 132.54 171.57 133.39 171.69 C 134.25 171.81 135.03 171.22 135.16 170.36 L 135.29 169.37 C 135.41 168.52 134.82 167.73 133.97 167.61 C 133.11 167.49 132.32 168.08 132.20 168.94 Z M 132.06 169.96 L 131.94 170.93 C 131.84 171.79 132.45 172.57 133.31 172.67 C 134.17 172.77 134.94 172.16 135.04 171.30 L 135.16 170.33 C 135.26 169.47 134.65 168.70 133.79 168.59 C 132.94 168.49 132.16 169.11 132.06 169.96 Z M 131.94 170.97 L 131.85 171.95 C 131.77 172.81 132.40 173.57 133.25 173.65 C 134.11 173.73 134.87 173.10 134.96 172.24 L 135.05 171.26 C 135.13 170.41 134.50 169.64 133.64 169.56 C 132.78 169.48 132.02 170.11 131.94 170.97 Z M 131.84 171.98 L 131.77 173.00 C 131.71 173.86 132.36 174.61 133.22 174.67 C 134.08 174.73 134.83 174.08 134.89 173.22 L 134.96 172.20 C 135.02 171.34 134.37 170.60 133.51 170.54 C 132.65 170.48 131.91 171.12 131.84 171.98 Z M 131.77 173.03 L 131.72 174.03 C 131.68 174.89 132.34 175.63 133.20 175.67 C 134.06 175.71 134.80 175.05 134.84 174.19 L 134.89 173.19 C 134.93 172.33 134.27 171.59 133.41 171.55 C 132.55 171.51 131.81 172.17 131.77 173.03 Z M 131.72 174.06 L 131.69 175.05 C 131.66 175.91 132.34 176.63 133.20 176.66 C 134.06 176.69 134.78 176.01 134.81 175.15 L 134.84 174.16 C 134.87 173.30 134.19 172.58 133.33 172.55 C 132.47 172.52 131.75 173.20 131.72 174.06 Z M 131.69 175.07 L 131.67 176.05 C 131.65 176.91 132.33 177.63 133.20 177.64 C 134.06 177.66 134.77 176.98 134.79 176.11 L 134.81 175.13 C 134.83 174.27 134.14 173.55 133.28 173.54 C 132.42 173.52 131.70 174.20 131.69 175.07 Z M 131.67 176.07 L 131.66 177.07 C 131.65 177.93 132.35 178.64 133.21 178.64 C 134.07 178.65 134.78 177.96 134.78 177.09 L 134.79 176.09 C 134.80 175.23 134.10 174.53 133.24 174.52 C 132.38 174.51 131.67 175.21 131.67 176.07 Z M 131.66 177.13 L 131.69 178.13 C 131.72 178.99 132.44 179.66 133.30 179.64 C 134.16 179.61 134.84 178.89 134.81 178.03 L 134.78 177.04 C 134.76 176.17 134.04 175.50 133.17 175.52 C 132.31 175.55 131.63 176.27 131.66 177.13 Z M 131.70 178.23 L 131.80 179.22 C 131.88 180.08 132.65 180.71 133.50 180.62 C 134.36 180.54 134.99 179.77 134.90 178.91 L 134.80 177.92 C 134.72 177.07 133.95 176.44 133.10 176.53 C 132.24 176.61 131.61 177.38 131.70 178.23 Z M 131.82 179.38 L 132.02 180.36 C 132.19 181.20 133.01 181.75 133.86 181.58 C 134.70 181.41 135.25 180.58 135.08 179.74 L 134.88 178.76 C 134.71 177.91 133.88 177.37 133.04 177.54 C 132.19 177.71 131.65 178.53 131.82 179.38 Z M 132.07 180.55 L 132.38 181.48 C 132.66 182.30 133.55 182.73 134.36 182.46 C 135.18 182.18 135.62 181.30 135.34 180.48 L 135.03 179.55 C 134.75 178.73 133.86 178.29 133.05 178.57 C 132.23 178.85 131.79 179.73 132.07 180.55 Z M 132.47 181.69 L 132.91 182.56 C 133.30 183.33 134.24 183.64 135.01 183.25 C 135.78 182.86 136.09 181.92 135.70 181.15 L 135.25 180.27 C 134.86 179.50 133.93 179.20 133.16 179.59 C 132.39 179.98 132.08 180.92 132.47 181.69 Z M 133.05 182.78 L 133.64 183.58 C 134.15 184.28 135.12 184.43 135.82 183.91 C 136.51 183.40 136.66 182.43 136.15 181.73 L 135.57 180.93 C 135.05 180.24 134.08 180.09 133.38 180.60 C 132.69 181.11 132.54 182.09 133.05 182.78 Z M 133.83 183.80 L 134.57 184.49 C 135.20 185.07 136.19 185.03 136.78 184.40 C 137.36 183.77 137.33 182.78 136.69 182.20 L 135.95 181.51 C 135.32 180.93 134.33 180.96 133.75 181.60 C 133.16 182.23 133.20 183.22 133.83 183.80 Z M 134.83 184.68 L 135.70 185.20 C 136.44 185.64 137.40 185.40 137.84 184.66 C 138.29 183.92 138.04 182.96 137.30 182.52 L 136.43 182.00 C 135.69 181.56 134.73 181.80 134.29 182.54 C 133.85 183.28 134.09 184.24 134.83 184.68 Z M 135.97 185.33 L 136.89 185.66 C 137.70 185.95 138.60 185.53 138.89 184.72 C 139.18 183.91 138.76 183.02 137.95 182.72 L 137.03 182.39 C 136.22 182.10 135.33 182.52 135.03 183.33 C 134.74 184.14 135.16 185.03 135.97 185.33 Z M 137.11 185.72 L 138.10 185.93 C 138.94 186.10 139.77 185.56 139.95 184.72 C 140.12 183.87 139.58 183.05 138.74 182.87 L 137.74 182.66 C 136.90 182.49 136.07 183.03 135.89 183.87 C 135.72 184.72 136.26 185.54 137.11 185.72 Z M 138.27 185.95 L 139.30 186.05 C 140.16 186.13 140.92 185.50 141.00 184.64 C 141.08 183.78 140.45 183.02 139.59 182.94 L 138.56 182.84 C 137.70 182.76 136.94 183.40 136.86 184.25 C 136.78 185.11 137.42 185.87 138.27 185.95 Z M 139.45 186.06 L 140.46 186.05 C 141.32 186.05 142.02 185.35 142.01 184.49 C 142.01 183.62 141.31 182.93 140.45 182.93 L 139.44 182.93 C 138.58 182.94 137.88 183.64 137.88 184.50 C 137.88 185.36 138.59 186.06 139.45 186.06 Z M 140.60 186.05 L 141.59 185.95 C 142.45 185.87 143.08 185.11 143.00 184.25 C 142.92 183.39 142.16 182.76 141.30 182.84 L 140.30 182.94 C 139.45 183.02 138.82 183.78 138.90 184.64 C 138.98 185.50 139.74 186.13 140.60 186.05 Z M 141.76 185.93 L 142.78 185.72 C 143.63 185.55 144.18 184.72 144.01 183.88 C 143.83 183.03 143.01 182.49 142.17 182.66 L 141.14 182.87 C 140.29 183.04 139.75 183.86 139.92 184.71 C 140.09 185.55 140.91 186.10 141.76 185.93 Z M 142.96 185.67 L 143.90 185.37 C 144.72 185.10 145.16 184.21 144.89 183.39 C 144.62 182.58 143.74 182.13 142.92 182.40 L 141.99 182.71 C 141.17 182.98 140.72 183.86 140.99 184.68 C 141.26 185.50 142.14 185.94 142.96 185.67 Z M 144.06 185.30 L 144.93 184.90 C 145.71 184.55 146.06 183.62 145.70 182.84 C 145.34 182.05 144.42 181.71 143.63 182.06 L 142.76 182.46 C 141.98 182.82 141.63 183.75 141.99 184.53 C 142.35 185.31 143.27 185.66 144.06 185.30 Z M 145.05 184.84 L 145.90 184.36 C 146.65 183.94 146.91 182.99 146.48 182.24 C 146.06 181.49 145.10 181.22 144.35 181.65 L 143.51 182.13 C 142.76 182.55 142.50 183.50 142.92 184.25 C 143.35 185.00 144.30 185.27 145.05 184.84 Z M 145.98 184.31 L 146.77 183.80 C 147.49 183.32 147.70 182.36 147.22 181.64 C 146.75 180.91 145.79 180.71 145.06 181.18 L 144.27 181.70 C 143.55 182.17 143.35 183.14 143.82 183.86 C 144.29 184.58 145.26 184.78 145.98 184.31 Z M 146.84 183.75 L 147.63 183.17 C 148.33 182.66 148.48 181.69 147.97 180.99 C 147.46 180.29 146.49 180.14 145.79 180.65 L 145.00 181.23 C 144.30 181.74 144.15 182.71 144.66 183.41 C 145.16 184.11 146.14 184.26 146.84 183.75 Z M 147.69 183.13 L 148.48 182.49 C 149.15 181.95 149.26 180.97 148.72 180.29 C 148.18 179.62 147.20 179.52 146.52 180.06 L 145.73 180.69 C 145.06 181.23 144.95 182.22 145.50 182.89 C 146.04 183.56 147.02 183.67 147.69 183.13 Z M 148.53 182.45 L 149.32 181.76 C 149.97 181.19 150.03 180.20 149.46 179.55 C 148.89 178.91 147.90 178.84 147.26 179.41 L 146.47 180.10 C 145.82 180.67 145.76 181.66 146.33 182.30 C 146.90 182.95 147.89 183.01 148.53 182.45 Z M 149.36 181.71 L 150.08 181.03 C 150.71 180.44 150.73 179.45 150.14 178.82 C 149.54 178.20 148.55 178.17 147.93 178.77 L 147.21 179.45 C 146.59 180.05 146.56 181.04 147.16 181.66 C 147.75 182.29 148.74 182.31 149.36 181.71 Z M 150.12 180.99 L 150.80 180.30 C 151.40 179.68 151.39 178.69 150.78 178.09 C 150.16 177.49 149.17 177.50 148.57 178.11 L 147.89 178.81 C 147.29 179.42 147.30 180.41 147.91 181.02 C 148.53 181.62 149.52 181.61 150.12 180.99 Z M 150.83 180.26 L 151.51 179.53 C 152.09 178.90 152.05 177.91 151.41 177.32 C 150.78 176.74 149.79 176.78 149.21 177.42 L 148.54 178.15 C 147.95 178.78 147.99 179.77 148.63 180.35 C 149.26 180.94 150.25 180.90 150.83 180.26 Z M 151.54 179.50 L 152.20 178.73 C 152.76 178.08 152.69 177.09 152.04 176.53 C 151.39 175.96 150.41 176.03 149.84 176.69 L 149.18 177.45 C 148.61 178.10 148.68 179.09 149.33 179.65 C 149.99 180.22 150.97 180.15 151.54 179.50 Z M 152.23 178.70 L 152.88 177.90 C 153.43 177.23 153.33 176.25 152.67 175.70 C 152.00 175.16 151.02 175.25 150.47 175.92 L 149.81 176.72 C 149.27 177.38 149.36 178.37 150.03 178.91 C 150.69 179.46 151.68 179.37 152.23 178.70 Z M 152.91 177.87 L 153.52 177.09 C 154.05 176.41 153.93 175.43 153.25 174.90 C 152.57 174.37 151.59 174.49 151.06 175.17 L 150.45 175.95 C 149.92 176.62 150.04 177.61 150.71 178.14 C 151.39 178.67 152.37 178.55 152.91 177.87 Z M 153.54 177.07 L 154.12 176.29 C 154.64 175.60 154.51 174.62 153.82 174.10 C 153.13 173.58 152.15 173.72 151.63 174.41 L 151.04 175.19 C 150.52 175.88 150.66 176.86 151.35 177.38 C 152.04 177.90 153.02 177.76 153.54 177.07 Z M 154.14 176.27 L 154.73 175.46 C 155.23 174.76 155.08 173.79 154.38 173.28 C 153.68 172.77 152.71 172.93 152.20 173.63 L 151.62 174.43 C 151.11 175.13 151.26 176.10 151.96 176.61 C 152.66 177.12 153.63 176.96 154.14 176.27 Z M 154.74 175.44 L 155.32 174.62 C 155.82 173.91 155.65 172.94 154.94 172.44 C 154.24 171.95 153.26 172.12 152.77 172.82 L 152.19 173.64 C 151.69 174.35 151.86 175.32 152.56 175.82 C 153.27 176.32 154.24 176.15 154.74 175.44 Z M 155.33 174.60 L 155.91 173.76 C 156.39 173.05 156.21 172.07 155.50 171.59 C 154.79 171.10 153.82 171.28 153.33 172.00 L 152.75 172.84 C 152.27 173.55 152.45 174.52 153.16 175.01 C 153.87 175.49 154.84 175.31 155.33 174.60 Z M 155.92 173.74 L 156.48 172.89 C 156.96 172.18 156.77 171.21 156.05 170.73 C 155.33 170.25 154.36 170.44 153.88 171.16 L 153.32 172.01 C 152.84 172.73 153.04 173.70 153.75 174.18 C 154.47 174.65 155.44 174.46 155.92 173.74 Z M 156.49 172.88 L 157.03 172.05 C 157.50 171.33 157.30 170.36 156.58 169.89 C 155.85 169.42 154.89 169.62 154.42 170.35 L 153.88 171.18 C 153.41 171.90 153.61 172.86 154.33 173.34 C 155.05 173.81 156.02 173.60 156.49 172.88 Z M 157.04 172.04 L 157.58 171.20 C 158.04 170.48 157.83 169.51 157.10 169.05 C 156.38 168.58 155.41 168.79 154.95 169.52 L 154.41 170.36 C 153.94 171.08 154.16 172.05 154.88 172.51 C 155.61 172.98 156.57 172.77 157.04 172.04 Z M 157.58 171.19 L 158.12 170.35 C 158.58 169.62 158.36 168.66 157.63 168.19 C 156.90 167.73 155.94 167.95 155.48 168.68 L 154.94 169.53 C 154.48 170.25 154.70 171.22 155.43 171.68 C 156.16 172.14 157.12 171.92 157.58 171.19 Z M 158.12 170.34 L 158.65 169.49 C 159.11 168.76 158.89 167.80 158.16 167.34 C 157.43 166.88 156.47 167.10 156.01 167.83 L 155.47 168.69 C 155.02 169.42 155.24 170.38 155.97 170.84 C 156.70 171.29 157.66 171.07 158.12 170.34 Z M 158.66 169.49 L 159.19 168.63 C 159.64 167.90 159.42 166.94 158.69 166.48 C 157.96 166.03 156.99 166.25 156.54 166.98 L 156.01 167.84 C 155.55 168.57 155.77 169.53 156.51 169.99 C 157.24 170.44 158.20 170.22 158.66 169.49 Z M 159.19 168.63 L 159.72 167.78 C 160.18 167.04 159.95 166.08 159.22 165.63 C 158.49 165.17 157.52 165.40 157.07 166.13 L 156.54 166.98 C 156.08 167.72 156.31 168.68 157.04 169.13 C 157.77 169.59 158.73 169.36 159.19 168.63 Z M 159.72 167.78 L 160.25 166.92 C 160.71 166.19 160.48 165.23 159.75 164.77 C 159.02 164.32 158.05 164.54 157.60 165.27 L 157.07 166.13 C 156.61 166.86 156.84 167.82 157.57 168.28 C 158.30 168.73 159.27 168.51 159.72 167.78 Z M 160.25 166.92 L 160.78 166.06 C 161.24 165.33 161.01 164.37 160.28 163.92 C 159.54 163.46 158.58 163.69 158.13 164.42 L 157.60 165.27 C 157.14 166.01 157.37 166.97 158.10 167.42 C 158.84 167.88 159.80 167.65 160.25 166.92 Z M 160.78 166.06 L 161.31 165.21 C 161.76 164.48 161.53 163.51 160.80 163.06 C 160.06 162.61 159.10 162.84 158.65 163.57 L 158.13 164.42 C 157.67 165.16 157.90 166.12 158.64 166.57 C 159.37 167.02 160.33 166.80 160.78 166.06 Z M 161.31 165.21 L 161.83 164.36 C 162.28 163.62 162.05 162.66 161.32 162.21 C 160.58 161.76 159.62 161.99 159.17 162.72 L 158.65 163.57 C 158.20 164.31 158.43 165.27 159.16 165.72 C 159.90 166.17 160.86 165.94 161.31 165.21 Z M 161.83 164.35 L 162.35 163.50 C 162.80 162.77 162.56 161.81 161.82 161.36 C 161.09 160.91 160.13 161.15 159.68 161.88 L 159.17 162.73 C 158.72 163.47 158.95 164.43 159.69 164.87 C 160.43 165.32 161.39 165.09 161.83 164.35 Z M 162.35 163.50 L 162.87 162.64 C 163.31 161.90 163.07 160.95 162.33 160.50 C 161.59 160.06 160.63 160.30 160.19 161.04 L 159.68 161.89 C 159.23 162.63 159.47 163.59 160.21 164.03 C 160.95 164.48 161.91 164.24 162.35 163.50 Z M 162.87 162.64 L 163.38 161.78 C 163.82 161.04 163.58 160.08 162.83 159.64 C 162.09 159.20 161.14 159.44 160.69 160.19 L 160.19 161.04 C 159.75 161.78 159.99 162.74 160.73 163.18 C 161.47 163.62 162.43 163.38 162.87 162.64 Z M 163.38 161.78 L 163.89 160.92 C 164.32 160.18 164.08 159.22 163.33 158.78 C 162.59 158.34 161.63 158.59 161.20 159.33 L 160.69 160.19 C 160.25 160.93 160.50 161.89 161.24 162.33 C 161.99 162.77 162.94 162.52 163.38 161.78 Z M 163.89 160.91 L 164.39 160.05 C 164.83 159.31 164.57 158.35 163.83 157.92 C 163.08 157.48 162.13 157.73 161.69 158.48 L 161.19 159.34 C 160.76 160.08 161.01 161.04 161.75 161.47 C 162.50 161.91 163.45 161.66 163.89 160.91 Z M 164.39 160.05 L 164.90 159.18 C 165.33 158.43 165.07 157.48 164.33 157.05 C 163.58 156.61 162.63 156.87 162.19 157.62 L 161.69 158.48 C 161.26 159.23 161.51 160.18 162.26 160.62 C 163.01 161.05 163.96 160.79 164.39 160.05 Z M 164.90 159.18 L 165.40 158.30 C 165.83 157.55 165.57 156.60 164.83 156.17 C 164.08 155.74 163.13 155.99 162.70 156.74 L 162.19 157.62 C 161.76 158.37 162.02 159.32 162.77 159.75 C 163.51 160.18 164.47 159.92 164.90 159.18 Z M 165.41 158.29 L 165.91 157.40 C 166.34 156.65 166.08 155.70 165.33 155.27 C 164.58 154.85 163.63 155.11 163.20 155.85 L 162.69 156.75 C 162.27 157.49 162.53 158.45 163.28 158.88 C 164.02 159.30 164.98 159.04 165.41 158.29 Z M 165.92 157.40 L 166.42 156.51 C 166.85 155.75 166.58 154.80 165.83 154.38 C 165.08 153.95 164.13 154.22 163.71 154.97 L 163.20 155.86 C 162.77 156.61 163.04 157.56 163.79 157.99 C 164.54 158.41 165.49 158.15 165.92 157.40 Z M 166.43 156.50 L 166.92 155.61 C 167.34 154.86 167.08 153.91 166.33 153.49 C 165.57 153.07 164.62 153.33 164.20 154.09 L 163.70 154.97 C 163.28 155.72 163.55 156.68 164.30 157.10 C 165.05 157.52 166.00 157.25 166.43 156.50 Z M 166.93 155.61 L 167.41 154.73 C 167.83 153.98 167.56 153.03 166.80 152.61 C 166.05 152.19 165.10 152.47 164.68 153.22 L 164.20 154.09 C 163.78 154.85 164.05 155.80 164.80 156.21 C 165.56 156.63 166.51 156.36 166.93 155.61 Z M 167.41 154.73 L 167.88 153.88 C 168.29 153.12 168.01 152.17 167.26 151.76 C 166.50 151.35 165.55 151.62 165.14 152.38 L 164.67 153.23 C 164.26 153.99 164.54 154.93 165.30 155.35 C 166.05 155.76 167.00 155.48 167.41 154.73 Z M 167.88 153.87 L 168.37 152.97 C 168.77 152.21 168.49 151.26 167.73 150.85 C 166.97 150.45 166.02 150.73 165.61 151.49 L 165.13 152.39 C 164.72 153.15 165.01 154.10 165.77 154.51 C 166.53 154.91 167.48 154.63 167.88 153.87 Z M 168.37 152.95 L 168.87 152.01 C 169.26 151.24 168.97 150.30 168.20 149.90 C 167.44 149.50 166.49 149.80 166.10 150.57 L 165.60 151.51 C 165.21 152.27 165.50 153.22 166.27 153.61 C 167.03 154.01 167.98 153.71 168.37 152.95 Z M 168.88 151.98 L 169.33 151.08 C 169.71 150.31 169.40 149.37 168.63 148.99 C 167.85 148.60 166.92 148.92 166.53 149.69 L 166.08 150.59 C 165.70 151.36 166.01 152.30 166.78 152.68 C 167.56 153.07 168.49 152.75 168.88 151.98 Z M 169.34 151.05 L 169.75 150.18 C 170.12 149.40 169.78 148.47 169.00 148.10 C 168.22 147.73 167.29 148.07 166.93 148.85 L 166.52 149.72 C 166.15 150.50 166.49 151.43 167.27 151.80 C 168.05 152.16 168.98 151.83 169.34 151.05 Z M 169.77 150.14 L 170.14 149.29 C 170.48 148.50 170.12 147.58 169.33 147.24 C 168.54 146.89 167.62 147.25 167.28 148.04 L 166.91 148.89 C 166.56 149.68 166.92 150.60 167.71 150.94 C 168.50 151.29 169.42 150.93 169.77 150.14 Z M 170.16 149.24 L 170.51 148.34 C 170.83 147.54 170.44 146.64 169.64 146.32 C 168.84 146.00 167.93 146.39 167.61 147.19 L 167.26 148.09 C 166.94 148.89 167.33 149.80 168.13 150.12 C 168.93 150.44 169.84 150.04 170.16 149.24 Z M 170.54 148.28 L 170.85 147.36 C 171.14 146.55 170.70 145.66 169.89 145.38 C 169.07 145.10 168.19 145.53 167.90 146.34 L 167.59 147.26 C 167.31 148.07 167.74 148.96 168.55 149.24 C 169.37 149.53 170.26 149.09 170.54 148.28 Z M 170.88 147.29 L 171.15 146.34 C 171.39 145.51 170.92 144.65 170.09 144.41 C 169.26 144.17 168.39 144.64 168.15 145.47 L 167.88 146.42 C 167.64 147.25 168.12 148.11 168.94 148.35 C 169.77 148.59 170.64 148.12 170.88 147.29 Z M 171.17 146.26 L 171.41 145.25 C 171.61 144.41 171.08 143.57 170.24 143.37 C 169.41 143.18 168.57 143.70 168.37 144.54 L 168.13 145.55 C 167.94 146.39 168.46 147.23 169.30 147.43 C 170.14 147.62 170.98 147.10 171.17 146.26 Z M 171.43 145.17 L 171.61 144.16 C 171.76 143.31 171.20 142.50 170.35 142.34 C 169.51 142.19 168.69 142.75 168.54 143.60 L 168.35 144.62 C 168.20 145.46 168.76 146.28 169.61 146.43 C 170.46 146.59 171.27 146.02 171.43 145.17 Z M 171.62 144.08 L 171.75 143.05 C 171.86 142.20 171.26 141.41 170.40 141.30 C 169.55 141.19 168.77 141.80 168.66 142.65 L 168.53 143.68 C 168.42 144.54 169.02 145.32 169.88 145.43 C 170.73 145.54 171.51 144.93 171.62 144.08 Z M 171.76 142.95 L 171.83 141.91 C 171.88 141.05 171.22 140.31 170.36 140.26 C 169.50 140.21 168.76 140.86 168.71 141.73 L 168.65 142.76 C 168.60 143.62 169.25 144.36 170.11 144.41 C 170.97 144.46 171.71 143.81 171.76 142.95 Z M 171.83 141.77 L 171.80 140.77 C 171.77 139.91 171.05 139.23 170.19 139.26 C 169.33 139.29 168.65 140.01 168.68 140.87 L 168.71 141.87 C 168.73 142.73 169.45 143.41 170.32 143.38 C 171.18 143.35 171.86 142.63 171.83 141.77 Z M 171.78 140.57 L 171.63 139.66 C 171.50 138.80 170.69 138.23 169.84 138.36 C 168.99 138.50 168.41 139.30 168.55 140.15 L 168.70 141.07 C 168.83 141.92 169.63 142.50 170.48 142.36 C 171.34 142.23 171.92 141.43 171.78 140.57 Z M 171.55 139.36 L 171.20 138.43 C 170.90 137.62 170.00 137.21 169.19 137.51 C 168.39 137.82 167.98 138.72 168.28 139.52 L 168.63 140.45 C 168.93 141.26 169.83 141.67 170.64 141.36 C 171.45 141.06 171.85 140.16 171.55 139.36 Z M 171.01 138.06 L 170.46 137.29 C 169.95 136.59 168.98 136.44 168.28 136.94 C 167.58 137.44 167.42 138.42 167.92 139.12 L 168.48 139.89 C 168.98 140.59 169.96 140.75 170.66 140.24 C 171.35 139.74 171.51 138.76 171.01 138.06 Z M 170.16 136.98 L 169.40 136.38 C 168.72 135.85 167.74 135.96 167.20 136.64 C 166.67 137.31 166.78 138.29 167.46 138.83 L 168.22 139.43 C 168.90 139.97 169.88 139.85 170.41 139.18 C 170.95 138.50 170.83 137.52 170.16 136.98 Z M 169.07 136.18 L 168.10 135.74 C 167.31 135.39 166.39 135.74 166.03 136.52 C 165.68 137.31 166.03 138.23 166.81 138.59 L 167.78 139.03 C 168.57 139.38 169.49 139.03 169.85 138.25 C 170.21 137.46 169.86 136.54 169.07 136.18 Z M 167.84 135.65 L 166.93 135.42 C 166.09 135.20 165.24 135.70 165.03 136.54 C 164.81 137.37 165.31 138.22 166.15 138.44 L 167.06 138.68 C 167.90 138.89 168.75 138.39 168.97 137.56 C 169.18 136.72 168.68 135.87 167.84 135.65 Z M 166.76 135.38 L 165.78 135.24 C 164.92 135.11 164.13 135.70 164.00 136.56 C 163.88 137.41 164.47 138.20 165.32 138.33 L 166.31 138.47 C 167.16 138.60 167.96 138.01 168.08 137.16 C 168.21 136.30 167.62 135.51 166.76 135.38 Z M 165.65 135.23 L 164.62 135.16 C 163.76 135.10 163.01 135.75 162.96 136.61 C 162.90 137.47 163.55 138.22 164.41 138.27 L 165.45 138.34 C 166.31 138.40 167.05 137.75 167.11 136.89 C 167.16 136.03 166.51 135.28 165.65 135.23 Z M 164.52 135.15 L 163.48 135.15 C 162.62 135.15 161.92 135.85 161.92 136.71 C 161.92 137.57 162.61 138.27 163.47 138.27 L 164.51 138.28 C 165.37 138.28 166.07 137.58 166.08 136.72 C 166.08 135.86 165.38 135.16 164.52 135.15 Z M 163.39 135.15 L 162.40 135.21 C 161.54 135.26 160.88 135.99 160.92 136.85 C 160.97 137.71 161.71 138.37 162.57 138.33 L 163.56 138.27 C 164.42 138.22 165.08 137.49 165.04 136.63 C 164.99 135.77 164.25 135.11 163.39 135.15 Z M 162.30 135.22 L 161.22 135.34 C 160.36 135.44 159.75 136.22 159.85 137.08 C 159.95 137.93 160.73 138.55 161.58 138.44 L 162.66 138.32 C 163.52 138.22 164.13 137.44 164.03 136.59 C 163.93 135.73 163.16 135.12 162.30 135.22 Z M 161.11 135.36 L 160.09 135.55 C 159.25 135.71 158.69 136.53 158.85 137.38 C 159.01 138.23 159.83 138.78 160.67 138.62 L 161.69 138.43 C 162.54 138.27 163.09 137.45 162.93 136.60 C 162.77 135.76 161.96 135.20 161.11 135.36 Z M 159.99 135.58 L 159.06 135.82 C 158.22 136.04 157.72 136.89 157.94 137.72 C 158.16 138.56 159.01 139.06 159.85 138.84 L 160.78 138.60 C 161.61 138.38 162.11 137.53 161.89 136.69 C 161.68 135.86 160.82 135.36 159.99 135.58 Z M 158.98 135.84 L 158.09 136.12 C 157.27 136.39 156.82 137.26 157.08 138.09 C 157.34 138.91 158.22 139.36 159.04 139.10 L 159.93 138.82 C 160.75 138.56 161.20 137.68 160.94 136.86 C 160.68 136.03 159.80 135.58 158.98 135.84 Z M 158.04 136.14 L 157.13 136.47 C 156.32 136.76 155.90 137.65 156.19 138.46 C 156.48 139.27 157.37 139.70 158.18 139.41 L 159.09 139.08 C 159.90 138.79 160.33 137.90 160.04 137.09 C 159.75 136.28 158.86 135.85 158.04 136.14 Z M 157.10 136.48 L 156.17 136.84 C 155.36 137.15 154.96 138.05 155.27 138.85 C 155.58 139.66 156.48 140.06 157.29 139.75 L 158.22 139.39 C 159.02 139.08 159.42 138.18 159.11 137.38 C 158.81 136.57 157.90 136.17 157.10 136.48 Z M 156.13 136.85 L 155.21 137.23 C 154.41 137.56 154.03 138.47 154.35 139.27 C 154.68 140.07 155.59 140.45 156.39 140.12 L 157.32 139.74 C 158.12 139.41 158.50 138.50 158.17 137.70 C 157.84 136.90 156.93 136.52 156.13 136.85 Z M 155.17 137.24 L 154.25 137.65 C 153.46 137.99 153.10 138.91 153.45 139.70 C 153.79 140.49 154.71 140.85 155.50 140.51 L 156.42 140.11 C 157.21 139.76 157.57 138.84 157.23 138.05 C 156.89 137.26 155.96 136.90 155.17 137.24 Z M 154.23 137.66 L 153.33 138.07 C 152.54 138.43 152.20 139.36 152.56 140.14 C 152.92 140.93 153.85 141.27 154.63 140.91 L 155.53 140.50 C 156.31 140.14 156.66 139.21 156.30 138.43 C 155.94 137.64 155.01 137.30 154.23 137.66 Z M 153.31 138.08 L 152.41 138.51 C 151.64 138.88 151.30 139.81 151.68 140.59 C 152.05 141.36 152.98 141.70 153.76 141.33 L 154.65 140.90 C 155.43 140.53 155.76 139.60 155.39 138.82 C 155.02 138.04 154.09 137.71 153.31 138.08 Z M 152.41 138.51 L 151.51 138.94 C 150.73 139.32 150.40 140.25 150.78 141.03 C 151.15 141.80 152.08 142.13 152.86 141.76 L 153.76 141.32 C 154.54 140.95 154.87 140.01 154.49 139.24 C 154.12 138.46 153.18 138.13 152.41 138.51 Z M 151.51 138.94 L 150.59 139.38 C 149.81 139.75 149.49 140.69 149.86 141.46 C 150.23 142.24 151.16 142.57 151.94 142.20 L 152.86 141.76 C 153.64 141.39 153.96 140.45 153.59 139.68 C 153.22 138.90 152.29 138.57 151.51 138.94 Z M 150.60 139.38 L 149.69 139.81 C 148.90 140.17 148.57 141.10 148.93 141.88 C 149.30 142.66 150.23 143.00 151.01 142.63 L 151.93 142.20 C 152.71 141.84 153.05 140.91 152.68 140.13 C 152.31 139.35 151.38 139.01 150.60 139.38 Z M 149.69 139.80 L 148.77 140.23 C 147.99 140.59 147.64 141.51 148.01 142.30 C 148.37 143.08 149.29 143.42 150.08 143.06 L 151.00 142.64 C 151.78 142.28 152.13 141.35 151.77 140.57 C 151.41 139.78 150.48 139.44 149.69 139.80 Z M 148.77 140.23 L 147.86 140.64 C 147.08 141.00 146.73 141.93 147.09 142.71 C 147.45 143.50 148.37 143.84 149.16 143.48 L 150.07 143.06 C 150.86 142.71 151.20 141.78 150.84 141.00 C 150.49 140.21 149.56 139.87 148.77 140.23 Z M 147.86 140.64 L 146.97 141.05 C 146.19 141.41 145.85 142.33 146.21 143.12 C 146.57 143.90 147.49 144.25 148.28 143.89 L 149.16 143.48 C 149.94 143.12 150.29 142.20 149.93 141.41 C 149.57 140.63 148.64 140.28 147.86 140.64 Z M 146.97 141.05 L 146.11 141.45 C 145.33 141.81 144.99 142.74 145.35 143.52 C 145.72 144.30 146.64 144.64 147.43 144.28 L 148.28 143.88 C 149.06 143.52 149.40 142.59 149.04 141.81 C 148.68 141.03 147.75 140.69 146.97 141.05 Z M 146.12 141.45 L 145.26 141.84 C 144.48 142.20 144.14 143.13 144.50 143.91 C 144.86 144.69 145.79 145.04 146.57 144.67 L 147.42 144.28 C 148.21 143.92 148.55 143.00 148.19 142.21 C 147.83 141.43 146.90 141.09 146.12 141.45 Z M 145.28 141.83 L 144.37 142.23 C 143.59 142.58 143.23 143.51 143.58 144.30 C 143.93 145.08 144.86 145.44 145.64 145.09 L 146.55 144.68 C 147.34 144.33 147.69 143.41 147.34 142.62 C 146.99 141.83 146.07 141.48 145.28 141.83 Z M 144.40 142.22 L 143.38 142.65 C 142.59 142.99 142.22 143.90 142.55 144.70 C 142.89 145.49 143.81 145.86 144.60 145.53 L 145.62 145.10 C 146.41 144.76 146.78 143.85 146.45 143.05 C 146.11 142.26 145.19 141.89 144.40 142.22 Z M 143.41 142.64 L 142.52 143.00 C 141.72 143.32 141.33 144.23 141.66 145.03 C 141.98 145.83 142.89 146.22 143.69 145.90 L 144.57 145.54 C 145.37 145.22 145.76 144.31 145.44 143.51 C 145.12 142.71 144.21 142.32 143.41 142.64 Z M 142.55 142.99 L 141.61 143.35 C 140.81 143.65 140.40 144.56 140.71 145.36 C 141.02 146.17 141.92 146.57 142.73 146.26 L 143.66 145.91 C 144.47 145.60 144.87 144.69 144.56 143.89 C 144.25 143.08 143.35 142.68 142.55 142.99 Z M 141.64 143.34 L 140.67 143.69 C 139.86 143.98 139.44 144.88 139.73 145.69 C 140.02 146.50 140.92 146.92 141.73 146.62 L 142.70 146.27 C 143.51 145.98 143.93 145.08 143.64 144.27 C 143.35 143.46 142.45 143.04 141.64 143.34 Z M 140.70 143.68 L 139.72 144.01 C 138.90 144.28 138.46 145.17 138.74 145.99 C 139.02 146.80 139.90 147.24 140.72 146.97 L 141.70 146.64 C 142.51 146.36 142.95 145.47 142.68 144.66 C 142.40 143.84 141.52 143.40 140.70 143.68 Z M 139.76 143.99 L 138.80 144.29 C 137.98 144.54 137.51 145.41 137.77 146.24 C 138.02 147.06 138.89 147.53 139.72 147.27 L 140.68 146.98 C 141.50 146.73 141.96 145.85 141.71 145.03 C 141.46 144.20 140.59 143.74 139.76 143.99 Z M 138.86 144.27 L 137.83 144.54 C 137.00 144.77 136.50 145.62 136.72 146.45 C 136.94 147.29 137.80 147.78 138.63 147.56 L 139.66 147.29 C 140.49 147.07 140.99 146.21 140.77 145.38 C 140.55 144.55 139.69 144.05 138.86 144.27 Z M 137.90 144.53 L 136.87 144.75 C 136.03 144.93 135.50 145.76 135.68 146.61 C 135.86 147.45 136.69 147.98 137.54 147.80 L 138.56 147.58 C 139.40 147.40 139.94 146.57 139.76 145.72 C 139.57 144.88 138.74 144.35 137.90 144.53 Z M 136.94 144.74 L 135.97 144.91 C 135.12 145.06 134.55 145.87 134.70 146.72 C 134.85 147.57 135.66 148.13 136.51 147.98 L 137.48 147.81 C 138.33 147.66 138.89 146.86 138.74 146.01 C 138.59 145.16 137.78 144.59 136.94 144.74 Z M 136.01 144.90 L 135.08 145.04 C 134.23 145.16 133.64 145.96 133.76 146.81 C 133.89 147.66 134.68 148.25 135.53 148.13 L 136.47 147.99 C 137.32 147.87 137.91 147.07 137.78 146.22 C 137.66 145.37 136.86 144.78 136.01 144.90 Z M 135.10 145.04 L 134.46 145.12 C 133.60 145.24 133.00 146.02 133.12 146.88 C 133.23 147.73 134.02 148.33 134.87 148.22 L 135.52 148.13 C 136.37 148.01 136.97 147.23 136.85 146.37 C 136.74 145.52 135.95 144.92 135.10 145.04 Z"
      fill="black"
      fill-rule="nonzero" /></svg>