<svg xmlns="http://www.w3.org/2000/svg" width="300" height="300" viewBox="0 0 300 300">
<path d="M 147.26 137.02 L 146.22 137.02 C 145.36 137.02 144.66 137.72 144.66 138.58 C 144.66 139.44 145.36 140.14 146.22 140.14 L 147.26 140.14 C 148.13 140.14 148.83 139.44 148.82 138.58 C 148.82 137.71 148.12 137.02 147.26 137.02 Z M 146.21 137.02 L 145.18 137.03 C 144.32 137.03 143.63 137.74 143.63 138.60 C 143.64 139.46 144.34 140.15 145.21 140.15 L 146.23 140.14 C 147.10 140.13 147.79 139.43 147.78 138.57 C 147.78 137.70 147.07 137.01 146.21 137.02 Z M 145.16 137.03 L 144.16 137.05 C 143.29 137.07 142.61 137.78 142.63 138.64 C 142.65 139.50 143.36 140.19 144.22 140.17 L 145.23 140.15 C 146.09 140.13 146.77 139.41 146.75 138.55 C 146.74 137.69 146.02 137.01 145.16 137.03 Z M 144.12 137.05 L 143.16 137.09 C 142.29 137.13 141.63 137.86 141.66 138.72 C 141.70 139.58 142.43 140.25 143.29 140.21 L 144.26 140.17 C 145.12 140.13 145.79 139.40 145.75 138.54 C 145.71 137.68 144.98 137.01 144.12 137.05 Z M 143.10 137.09 L 142.12 137.17 C 141.26 137.24 140.62 137.99 140.69 138.85 C 140.76 139.71 141.51 140.35 142.37 140.28 L 143.35 140.21 C 144.21 140.14 144.85 139.39 144.78 138.53 C 144.71 137.67 143.96 137.03 143.10 137.09 Z M 142.03 137.18 L 141.03 137.32 C 140.17 137.45 139.58 138.24 139.70 139.09 C 139.82 139.94 140.61 140.54 141.47 140.42 L 142.47 140.27 C 143.32 140.15 143.91 139.36 143.79 138.51 C 143.67 137.65 142.88 137.06 142.03 137.18 Z M 140.86 137.36 L 139.92 137.60 C 139.08 137.81 138.58 138.66 138.79 139.50 C 139.00 140.33 139.85 140.84 140.69 140.62 L 141.63 140.38 C 142.47 140.17 142.97 139.32 142.76 138.48 C 142.55 137.65 141.69 137.14 140.86 137.36 Z M 139.70 137.67 L 138.79 138.05 C 138.00 138.39 137.63 139.30 137.96 140.10 C 138.29 140.89 139.21 141.26 140.00 140.93 L 140.91 140.55 C 141.70 140.22 142.08 139.30 141.74 138.51 C 141.41 137.71 140.49 137.34 139.70 137.67 Z M 138.57 138.17 L 137.74 138.69 C 137.01 139.15 136.79 140.11 137.24 140.84 C 137.70 141.57 138.66 141.79 139.40 141.34 L 140.23 140.81 C 140.96 140.36 141.18 139.39 140.72 138.66 C 140.26 137.93 139.30 137.71 138.57 138.17 Z M 137.57 138.81 L 136.81 139.44 C 136.14 139.99 136.05 140.98 136.60 141.64 C 137.15 142.31 138.13 142.40 138.80 141.85 L 139.56 141.22 C 140.23 140.67 140.32 139.68 139.77 139.02 C 139.22 138.35 138.23 138.26 137.57 138.81 Z M 136.70 139.54 L 135.97 140.26 C 135.36 140.87 135.36 141.86 135.97 142.47 C 136.58 143.08 137.56 143.08 138.18 142.48 L 138.90 141.75 C 139.51 141.15 139.52 140.16 138.91 139.55 C 138.30 138.93 137.31 138.93 136.70 139.54 Z M 135.90 140.34 L 135.23 141.11 C 134.66 141.76 134.72 142.74 135.37 143.31 C 136.02 143.88 137.01 143.82 137.57 143.17 L 138.25 142.40 C 138.82 141.75 138.75 140.76 138.10 140.20 C 137.46 139.63 136.47 139.69 135.90 140.34 Z M 135.17 141.17 L 134.56 141.95 C 134.03 142.63 134.14 143.61 134.82 144.14 C 135.50 144.68 136.48 144.56 137.01 143.88 L 137.63 143.10 C 138.16 142.43 138.04 141.44 137.37 140.91 C 136.69 140.38 135.71 140.49 135.17 141.17 Z M 134.51 142.01 L 133.91 142.86 C 133.41 143.56 133.57 144.54 134.28 145.04 C 134.98 145.54 135.95 145.37 136.45 144.67 L 137.06 143.82 C 137.56 143.12 137.39 142.15 136.69 141.65 C 135.99 141.15 135.02 141.31 134.51 142.01 Z M 133.87 142.93 L 133.34 143.75 C 132.87 144.48 133.09 145.45 133.81 145.91 C 134.54 146.37 135.50 146.16 135.97 145.43 L 136.50 144.61 C 136.96 143.88 136.75 142.91 136.02 142.45 C 135.30 141.99 134.33 142.20 133.87 142.93 Z M 133.30 143.81 L 132.82 144.65 C 132.38 145.40 132.64 146.35 133.39 146.79 C 134.13 147.22 135.09 146.96 135.52 146.21 L 136.00 145.37 C 136.44 144.63 136.18 143.67 135.43 143.24 C 134.69 142.81 133.73 143.07 133.30 143.81 Z M 132.79 144.70 L 132.33 145.55 C 131.93 146.31 132.21 147.26 132.97 147.67 C 133.73 148.07 134.68 147.79 135.08 147.03 L 135.54 146.17 C 135.95 145.41 135.66 144.46 134.90 144.06 C 134.14 143.65 133.20 143.94 132.79 144.70 Z M 132.32 145.58 L 131.88 146.44 C 131.49 147.21 131.80 148.15 132.57 148.54 C 133.34 148.93 134.28 148.62 134.67 147.85 L 135.10 147.00 C 135.49 146.23 135.18 145.29 134.42 144.90 C 133.65 144.51 132.71 144.82 132.32 145.58 Z M 131.87 146.47 L 131.43 147.37 C 131.06 148.15 131.39 149.08 132.17 149.45 C 132.94 149.83 133.88 149.50 134.25 148.72 L 134.68 147.82 C 135.05 147.05 134.73 146.11 133.95 145.74 C 133.17 145.37 132.24 145.69 131.87 146.47 Z M 131.42 147.40 L 131.00 148.34 C 130.64 149.12 130.99 150.05 131.78 150.40 C 132.56 150.76 133.49 150.41 133.84 149.62 L 134.26 148.69 C 134.62 147.90 134.27 146.98 133.48 146.62 C 132.70 146.27 131.77 146.62 131.42 147.40 Z M 130.98 148.38 L 130.58 149.33 C 130.25 150.12 130.62 151.04 131.41 151.37 C 132.21 151.71 133.12 151.33 133.46 150.54 L 133.86 149.59 C 134.19 148.79 133.82 147.88 133.02 147.54 C 132.23 147.21 131.31 147.58 130.98 148.38 Z M 130.56 149.36 L 130.21 150.27 C 129.90 151.07 130.30 151.98 131.10 152.29 C 131.90 152.60 132.81 152.21 133.12 151.40 L 133.47 150.50 C 133.79 149.70 133.39 148.79 132.59 148.48 C 131.78 148.16 130.88 148.56 130.56 149.36 Z M 130.20 150.30 L 129.86 151.22 C 129.57 152.03 129.98 152.93 130.79 153.23 C 131.60 153.52 132.50 153.11 132.79 152.30 L 133.13 151.37 C 133.43 150.56 133.01 149.66 132.20 149.37 C 131.39 149.07 130.50 149.49 130.20 150.30 Z M 129.85 151.25 L 129.52 152.20 C 129.24 153.01 129.68 153.90 130.49 154.18 C 131.31 154.47 132.19 154.03 132.48 153.22 L 132.80 152.27 C 133.09 151.45 132.65 150.57 131.84 150.28 C 131.02 150.00 130.13 150.43 129.85 151.25 Z M 129.52 152.22 L 129.20 153.20 C 128.93 154.02 129.37 154.90 130.19 155.17 C 131.01 155.44 131.89 154.99 132.16 154.18 L 132.48 153.20 C 132.75 152.38 132.31 151.50 131.49 151.23 C 130.67 150.96 129.79 151.40 129.52 152.22 Z M 129.19 153.21 L 128.89 154.16 C 128.63 154.98 129.08 155.86 129.91 156.12 C 130.73 156.38 131.60 155.92 131.87 155.10 L 132.17 154.16 C 132.43 153.34 131.97 152.46 131.15 152.20 C 130.33 151.94 129.45 152.39 129.19 153.21 Z M 128.89 154.17 L 128.60 155.10 C 128.35 155.92 128.81 156.79 129.63 157.05 C 130.46 157.30 131.33 156.84 131.58 156.02 L 131.87 155.09 C 132.12 154.27 131.66 153.39 130.84 153.14 C 130.01 152.88 129.14 153.35 128.89 154.17 Z M 128.60 155.11 L 128.31 156.06 C 128.07 156.88 128.54 157.75 129.36 158.00 C 130.19 158.25 131.06 157.78 131.30 156.95 L 131.59 156.00 C 131.84 155.18 131.37 154.31 130.54 154.06 C 129.71 153.81 128.84 154.28 128.60 155.11 Z M 128.31 156.07 L 128.03 157.04 C 127.79 157.87 128.26 158.74 129.09 158.98 C 129.92 159.22 130.79 158.74 131.03 157.91 L 131.31 156.94 C 131.55 156.11 131.07 155.25 130.24 155.01 C 129.41 154.77 128.55 155.24 128.31 156.07 Z M 128.02 157.06 L 127.75 158.05 C 127.51 158.88 128.00 159.75 128.83 159.98 C 129.66 160.21 130.52 159.72 130.75 158.89 L 131.03 157.90 C 131.26 157.07 130.78 156.21 129.95 155.98 C 129.12 155.74 128.26 156.23 128.02 157.06 Z M 127.74 158.07 L 127.48 159.04 C 127.26 159.87 127.75 160.73 128.58 160.95 C 129.41 161.18 130.27 160.68 130.50 159.85 L 130.76 158.88 C 130.98 158.05 130.49 157.19 129.65 156.97 C 128.82 156.74 127.97 157.24 127.74 158.07 Z M 127.48 159.05 L 127.23 160.00 C 127.01 160.83 127.52 161.68 128.35 161.90 C 129.18 162.12 130.04 161.62 130.25 160.78 L 130.50 159.84 C 130.72 159.00 130.21 158.15 129.38 157.93 C 128.55 157.72 127.69 158.22 127.48 159.05 Z M 127.23 160.01 L 126.99 160.97 C 126.78 161.81 127.29 162.65 128.12 162.86 C 128.96 163.07 129.81 162.57 130.02 161.73 L 130.26 160.77 C 130.47 159.93 129.96 159.08 129.12 158.87 C 128.29 158.66 127.44 159.17 127.23 160.01 Z M 126.98 160.98 L 126.75 161.96 C 126.54 162.79 127.06 163.64 127.90 163.84 C 128.73 164.05 129.58 163.53 129.78 162.69 L 130.02 161.72 C 130.22 160.88 129.71 160.04 128.87 159.83 C 128.03 159.63 127.19 160.14 126.98 160.98 Z M 126.74 161.97 L 126.51 162.96 C 126.32 163.80 126.84 164.64 127.68 164.83 C 128.51 165.03 129.35 164.51 129.55 163.67 L 129.78 162.68 C 129.98 161.84 129.46 161.00 128.62 160.80 C 127.78 160.61 126.94 161.13 126.74 161.97 Z M 126.51 162.97 L 126.28 163.97 C 126.09 164.81 126.62 165.65 127.46 165.84 C 128.30 166.03 129.14 165.51 129.33 164.66 L 129.55 163.66 C 129.75 162.82 129.22 161.98 128.38 161.79 C 127.54 161.60 126.70 162.13 126.51 162.97 Z M 126.28 163.98 L 126.06 164.96 C 125.88 165.80 126.41 166.63 127.25 166.82 C 128.09 167.00 128.93 166.47 129.11 165.63 L 129.33 164.65 C 129.51 163.81 128.98 162.98 128.14 162.79 C 127.30 162.61 126.46 163.14 126.28 163.98 Z M 126.06 164.97 L 125.85 165.95 C 125.67 166.80 126.21 167.62 127.06 167.80 C 127.90 167.98 128.73 167.44 128.91 166.60 L 129.12 165.62 C 129.30 164.78 128.76 163.95 127.91 163.77 C 127.07 163.59 126.24 164.13 126.06 164.97 Z M 125.85 165.96 L 125.65 166.95 C 125.48 167.80 126.02 168.62 126.87 168.79 C 127.71 168.96 128.54 168.42 128.71 167.57 L 128.91 166.59 C 129.08 165.74 128.54 164.92 127.69 164.75 C 126.85 164.57 126.02 165.12 125.85 165.96 Z M 125.65 166.97 L 125.46 167.95 C 125.29 168.80 125.84 169.62 126.69 169.78 C 127.54 169.95 128.36 169.39 128.52 168.55 L 128.71 167.56 C 128.88 166.71 128.32 165.89 127.48 165.73 C 126.63 165.57 125.81 166.12 125.65 166.97 Z M 125.45 167.97 L 125.27 168.95 C 125.12 169.80 125.68 170.61 126.53 170.77 C 127.38 170.92 128.19 170.36 128.34 169.51 L 128.52 168.53 C 128.68 167.68 128.12 166.87 127.27 166.71 C 126.42 166.56 125.61 167.12 125.45 167.97 Z M 125.27 168.97 L 125.10 169.95 C 124.96 170.80 125.53 171.60 126.38 171.75 C 127.23 171.89 128.04 171.32 128.18 170.47 L 128.35 169.49 C 128.49 168.64 127.92 167.84 127.07 167.69 C 126.22 167.55 125.41 168.12 125.27 168.97 Z M 125.10 169.97 L 124.94 170.98 C 124.81 171.83 125.39 172.63 126.25 172.76 C 127.10 172.89 127.90 172.31 128.03 171.46 L 128.18 170.45 C 128.32 169.60 127.73 168.80 126.88 168.67 C 126.03 168.53 125.23 169.12 125.10 169.97 Z M 124.94 171.00 L 124.80 172.00 C 124.68 172.85 125.27 173.64 126.13 173.76 C 126.98 173.88 127.77 173.29 127.89 172.43 L 128.03 171.44 C 128.15 170.58 127.56 169.79 126.70 169.67 C 125.85 169.55 125.06 170.14 124.94 171.00 Z M 124.80 172.02 L 124.67 173.01 C 124.56 173.86 125.16 174.64 126.02 174.75 C 126.87 174.86 127.65 174.26 127.77 173.40 L 127.89 172.41 C 128.00 171.56 127.40 170.78 126.54 170.67 C 125.69 170.56 124.91 171.16 124.80 172.02 Z M 124.67 173.02 L 124.55 174.01 C 124.45 174.86 125.06 175.64 125.92 175.74 C 126.78 175.84 127.55 175.23 127.65 174.37 L 127.77 173.39 C 127.87 172.53 127.25 171.75 126.40 171.65 C 125.54 171.55 124.77 172.17 124.67 173.02 Z M 124.55 174.02 L 124.44 175.00 C 124.35 175.86 124.97 176.63 125.83 176.72 C 126.69 176.81 127.46 176.19 127.55 175.34 L 127.65 174.35 C 127.75 173.50 127.12 172.73 126.27 172.64 C 125.41 172.55 124.64 173.17 124.55 174.02 Z M 124.44 175.02 L 124.34 176.05 C 124.26 176.90 124.89 177.67 125.75 177.75 C 126.61 177.83 127.37 177.20 127.45 176.35 L 127.55 175.32 C 127.63 174.46 127.01 173.70 126.15 173.62 C 125.29 173.53 124.53 174.16 124.44 175.02 Z M 124.34 176.06 L 124.25 177.11 C 124.18 177.97 124.81 178.73 125.67 178.80 C 126.53 178.88 127.29 178.24 127.36 177.39 L 127.45 176.33 C 127.53 175.47 126.89 174.72 126.03 174.64 C 125.18 174.57 124.42 175.20 124.34 176.06 Z M 124.25 177.13 L 124.17 178.16 C 124.10 179.02 124.74 179.77 125.60 179.84 C 126.46 179.90 127.21 179.26 127.28 178.40 L 127.36 177.37 C 127.43 176.51 126.79 175.76 125.93 175.69 C 125.07 175.63 124.32 176.27 124.25 177.13 Z M 124.17 178.17 L 124.10 179.16 C 124.04 180.02 124.69 180.77 125.55 180.83 C 126.41 180.89 127.16 180.24 127.22 179.38 L 127.28 178.39 C 127.34 177.52 126.69 176.78 125.83 176.72 C 124.97 176.66 124.23 177.31 124.17 178.17 Z M 124.10 179.18 L 124.04 180.12 C 124.00 180.98 124.65 181.72 125.51 181.77 C 126.37 181.82 127.11 181.16 127.16 180.30 L 127.22 179.36 C 127.27 178.50 126.61 177.76 125.75 177.71 C 124.89 177.66 124.15 178.32 124.10 179.18 Z M 124.04 180.14 L 124.00 181.13 C 123.96 181.99 124.63 182.72 125.49 182.75 C 126.35 182.79 127.08 182.12 127.12 181.26 L 127.16 180.28 C 127.20 179.42 126.53 178.69 125.67 178.65 C 124.81 178.61 124.08 179.28 124.04 180.14 Z M 124.00 181.20 L 124.00 182.23 C 124.00 183.09 124.70 183.79 125.56 183.79 C 126.42 183.79 127.12 183.09 127.12 182.23 L 127.12 181.20 C 127.12 180.33 126.42 179.63 125.56 179.63 C 124.70 179.63 124.00 180.33 124.00 181.20 Z M 124.01 182.39 L 124.11 183.35 C 124.20 184.21 124.97 184.83 125.83 184.73 C 126.69 184.64 127.31 183.87 127.22 183.01 L 127.11 182.06 C 127.02 181.20 126.25 180.58 125.39 180.67 C 124.54 180.77 123.92 181.54 124.01 182.39 Z M 124.16 183.60 L 124.42 184.52 C 124.65 185.35 125.52 185.83 126.35 185.60 C 127.18 185.37 127.66 184.50 127.42 183.67 L 127.17 182.76 C 126.93 181.93 126.07 181.44 125.24 181.68 C 124.41 181.91 123.93 182.77 124.16 183.60 Z M 124.53 184.80 L 124.96 185.67 C 125.35 186.44 126.29 186.75 127.06 186.36 C 127.83 185.98 128.14 185.04 127.75 184.27 L 127.32 183.40 C 126.93 182.63 125.99 182.32 125.22 182.70 C 124.45 183.09 124.14 184.03 124.53 184.80 Z M 125.09 185.88 L 125.68 186.70 C 126.18 187.40 127.16 187.56 127.86 187.06 C 128.56 186.56 128.72 185.58 128.22 184.88 L 127.63 184.06 C 127.13 183.36 126.15 183.20 125.45 183.70 C 124.75 184.20 124.59 185.18 125.09 185.88 Z M 125.80 186.85 L 126.51 187.61 C 127.10 188.25 128.08 188.28 128.72 187.70 C 129.35 187.11 129.39 186.12 128.80 185.49 L 128.09 184.73 C 127.51 184.10 126.52 184.06 125.89 184.65 C 125.25 185.23 125.22 186.22 125.80 186.85 Z M 126.65 187.74 L 127.42 188.40 C 128.08 188.95 129.06 188.87 129.62 188.21 C 130.18 187.55 130.09 186.57 129.43 186.01 L 128.66 185.36 C 128.00 184.80 127.02 184.89 126.46 185.54 C 125.91 186.20 125.99 187.19 126.65 187.74 Z M 127.60 188.53 L 128.44 189.05 C 129.17 189.50 130.13 189.28 130.59 188.54 C 131.04 187.81 130.82 186.85 130.08 186.39 L 129.25 185.88 C 128.52 185.42 127.56 185.65 127.10 186.38 C 126.65 187.11 126.87 188.08 127.60 188.53 Z M 128.71 189.18 L 129.67 189.54 C 130.48 189.85 131.38 189.44 131.68 188.63 C 131.99 187.82 131.58 186.92 130.77 186.62 L 129.81 186.26 C 129.00 185.96 128.10 186.36 127.80 187.17 C 127.50 187.98 127.91 188.88 128.71 189.18 Z M 129.96 189.62 L 130.91 189.79 C 131.76 189.93 132.57 189.36 132.71 188.51 C 132.86 187.66 132.29 186.85 131.44 186.71 L 130.49 186.54 C 129.64 186.40 128.83 186.97 128.68 187.82 C 128.54 188.67 129.11 189.47 129.96 189.62 Z M 131.09 189.81 L 132.06 189.86 C 132.92 189.90 133.66 189.24 133.71 188.38 C 133.75 187.52 133.09 186.79 132.23 186.74 L 131.26 186.69 C 130.40 186.64 129.66 187.30 129.62 188.16 C 129.57 189.02 130.23 189.76 131.09 189.81 Z M 132.13 189.86 L 133.07 189.87 C 133.93 189.89 134.64 189.20 134.66 188.33 C 134.67 187.47 133.98 186.76 133.12 186.75 L 132.17 186.74 C 131.31 186.73 130.60 187.41 130.59 188.28 C 130.57 189.14 131.26 189.85 132.13 189.86 Z M 133.12 189.87 L 134.09 189.86 C 134.95 189.84 135.64 189.13 135.63 188.27 C 135.61 187.41 134.90 186.72 134.04 186.74 L 133.07 186.75 C 132.21 186.77 131.52 187.48 131.53 188.34 C 131.55 189.20 132.26 189.89 133.12 189.87 Z M 134.17 189.85 L 135.19 189.78 C 136.05 189.72 136.69 188.98 136.63 188.12 C 136.57 187.26 135.83 186.61 134.97 186.67 L 133.96 186.74 C 133.10 186.80 132.45 187.54 132.51 188.40 C 132.57 189.26 133.31 189.91 134.17 189.85 Z M 135.30 189.77 L 136.35 189.62 C 137.20 189.50 137.80 188.71 137.67 187.86 C 137.55 187.01 136.76 186.41 135.91 186.53 L 134.86 186.68 C 134.00 186.80 133.41 187.59 133.53 188.44 C 133.65 189.30 134.44 189.89 135.30 189.77 Z M 136.46 189.60 L 137.39 189.40 C 138.23 189.22 138.76 188.38 138.58 187.54 C 138.39 186.70 137.56 186.17 136.72 186.35 L 135.79 186.55 C 134.95 186.74 134.42 187.57 134.60 188.41 C 134.79 189.25 135.62 189.79 136.46 189.60 Z M 137.49 189.37 L 138.43 189.10 C 139.26 188.86 139.74 188.00 139.50 187.17 C 139.26 186.34 138.40 185.86 137.57 186.10 L 136.62 186.37 C 135.79 186.61 135.32 187.48 135.55 188.31 C 135.79 189.14 136.66 189.61 137.49 189.37 Z M 138.53 189.07 L 139.48 188.73 C 140.29 188.44 140.72 187.55 140.43 186.74 C 140.14 185.92 139.24 185.50 138.43 185.79 L 137.48 186.13 C 136.66 186.42 136.24 187.31 136.53 188.13 C 136.82 188.94 137.71 189.36 138.53 189.07 Z M 139.57 188.70 L 140.52 188.29 C 141.31 187.95 141.68 187.04 141.35 186.24 C 141.01 185.45 140.09 185.08 139.30 185.42 L 138.34 185.82 C 137.55 186.16 137.18 187.08 137.52 187.87 C 137.86 188.67 138.77 189.03 139.57 188.70 Z M 140.60 188.25 L 141.50 187.80 C 142.28 187.42 142.59 186.48 142.21 185.71 C 141.82 184.94 140.89 184.62 140.11 185.01 L 139.21 185.46 C 138.44 185.84 138.13 186.78 138.51 187.55 C 138.89 188.32 139.83 188.64 140.60 188.25 Z M 141.58 187.77 L 142.44 187.28 C 143.19 186.85 143.45 185.90 143.02 185.15 C 142.60 184.40 141.65 184.14 140.90 184.56 L 140.04 185.05 C 139.29 185.47 139.03 186.43 139.45 187.18 C 139.88 187.93 140.83 188.19 141.58 187.77 Z M 142.50 187.24 L 143.34 186.71 C 144.07 186.25 144.29 185.28 143.83 184.56 C 143.37 183.83 142.40 183.61 141.67 184.07 L 140.83 184.60 C 140.10 185.06 139.89 186.03 140.35 186.76 C 140.81 187.48 141.77 187.70 142.50 187.24 Z M 143.40 186.67 L 144.23 186.10 C 144.93 185.60 145.11 184.63 144.62 183.92 C 144.12 183.22 143.15 183.04 142.44 183.53 L 141.62 184.11 C 140.91 184.60 140.73 185.57 141.23 186.28 C 141.72 186.99 142.69 187.16 143.40 186.67 Z M 144.28 186.06 L 145.09 185.45 C 145.78 184.93 145.91 183.95 145.40 183.26 C 144.88 182.57 143.90 182.43 143.21 182.95 L 142.39 183.57 C 141.71 184.09 141.57 185.07 142.09 185.75 C 142.61 186.44 143.59 186.58 144.28 186.06 Z M 145.13 185.41 L 145.89 184.80 C 146.56 184.26 146.66 183.28 146.12 182.60 C 145.58 181.93 144.60 181.83 143.93 182.37 L 143.17 182.99 C 142.50 183.53 142.39 184.51 142.94 185.18 C 143.48 185.85 144.46 185.96 145.13 185.41 Z M 145.93 184.77 L 146.67 184.13 C 147.32 183.57 147.39 182.59 146.83 181.93 C 146.27 181.28 145.28 181.20 144.63 181.77 L 143.89 182.40 C 143.24 182.97 143.16 183.95 143.72 184.61 C 144.29 185.26 145.27 185.33 145.93 184.77 Z M 146.70 184.10 L 147.43 183.43 C 148.07 182.85 148.11 181.87 147.53 181.23 C 146.95 180.59 145.97 180.55 145.33 181.13 L 144.60 181.80 C 143.96 182.38 143.91 183.37 144.49 184.00 C 145.08 184.64 146.06 184.68 146.70 184.10 Z M 147.46 183.41 L 148.19 182.70 C 148.81 182.11 148.83 181.12 148.23 180.50 C 147.64 179.88 146.65 179.86 146.03 180.45 L 145.30 181.16 C 144.68 181.76 144.66 182.74 145.26 183.36 C 145.85 183.99 146.84 184.00 147.46 183.41 Z M 148.22 182.68 L 148.95 181.94 C 149.55 181.33 149.55 180.34 148.93 179.73 C 148.32 179.13 147.33 179.13 146.72 179.75 L 146.00 180.48 C 145.39 181.10 145.40 182.09 146.01 182.69 C 146.63 183.30 147.62 183.29 148.22 182.68 Z M 148.97 181.91 L 149.65 181.20 C 150.24 180.57 150.21 179.58 149.58 178.99 C 148.95 178.40 147.97 178.43 147.37 179.06 L 146.70 179.77 C 146.11 180.40 146.14 181.39 146.76 181.98 C 147.39 182.57 148.38 182.54 148.97 181.91 Z M 149.67 181.17 L 150.32 180.45 C 150.90 179.81 150.85 178.82 150.21 178.25 C 149.57 177.67 148.59 177.72 148.01 178.36 L 147.35 179.08 C 146.77 179.72 146.82 180.70 147.46 181.28 C 148.10 181.86 149.09 181.81 149.67 181.17 Z M 150.34 180.43 L 150.99 179.68 C 151.56 179.03 151.49 178.05 150.84 177.48 C 150.19 176.91 149.21 176.98 148.64 177.63 L 147.99 178.38 C 147.42 179.03 147.49 180.01 148.14 180.58 C 148.79 181.15 149.77 181.08 150.34 180.43 Z M 151.01 179.66 L 151.66 178.89 C 152.22 178.24 152.13 177.25 151.47 176.69 C 150.82 176.14 149.83 176.22 149.27 176.88 L 148.62 177.65 C 148.07 178.31 148.15 179.29 148.81 179.85 C 149.47 180.41 150.45 180.32 151.01 179.66 Z M 151.67 178.88 L 152.32 178.08 C 152.87 177.42 152.77 176.43 152.10 175.89 C 151.44 175.34 150.45 175.44 149.91 176.11 L 149.26 176.90 C 148.71 177.56 148.81 178.55 149.48 179.09 C 150.14 179.64 151.13 179.54 151.67 178.88 Z M 152.34 178.07 L 152.98 177.26 C 153.52 176.58 153.41 175.60 152.73 175.07 C 152.06 174.53 151.07 174.64 150.54 175.31 L 149.89 176.12 C 149.36 176.80 149.47 177.78 150.14 178.32 C 150.82 178.85 151.80 178.74 152.34 178.07 Z M 152.99 177.24 L 153.59 176.47 C 154.12 175.79 154.00 174.81 153.31 174.28 C 152.63 173.75 151.65 173.88 151.12 174.56 L 150.52 175.33 C 150.00 176.01 150.12 176.99 150.80 177.52 C 151.48 178.05 152.46 177.93 152.99 177.24 Z M 153.60 176.46 L 154.20 175.67 C 154.72 174.99 154.59 174.01 153.90 173.49 C 153.21 172.96 152.23 173.10 151.71 173.78 L 151.11 174.57 C 150.59 175.26 150.73 176.24 151.41 176.76 C 152.10 177.28 153.08 177.15 153.60 176.46 Z M 154.21 175.66 L 154.80 174.87 C 155.32 174.17 155.18 173.20 154.48 172.68 C 153.79 172.16 152.82 172.31 152.30 173.00 L 151.70 173.79 C 151.19 174.49 151.33 175.46 152.02 175.98 C 152.71 176.50 153.69 176.35 154.21 175.66 Z M 154.81 174.86 L 155.40 174.05 C 155.91 173.35 155.77 172.38 155.07 171.87 C 154.38 171.35 153.40 171.50 152.89 172.20 L 152.29 173.00 C 151.78 173.70 151.93 174.68 152.62 175.19 C 153.32 175.70 154.30 175.55 154.81 174.86 Z M 155.41 174.04 L 156.00 173.22 C 156.51 172.53 156.36 171.55 155.66 171.04 C 154.97 170.53 153.99 170.69 153.48 171.38 L 152.89 172.20 C 152.38 172.90 152.53 173.88 153.23 174.38 C 153.92 174.89 154.90 174.74 155.41 174.04 Z M 156.01 173.22 L 156.61 172.39 C 157.11 171.70 156.96 170.72 156.26 170.21 C 155.56 169.71 154.59 169.86 154.08 170.56 L 153.48 171.39 C 152.97 172.09 153.13 173.06 153.83 173.57 C 154.53 174.07 155.50 173.92 156.01 173.22 Z M 156.61 172.39 L 157.18 171.61 C 157.68 170.91 157.52 169.93 156.83 169.43 C 156.13 168.92 155.15 169.08 154.65 169.78 L 154.08 170.56 C 153.57 171.26 153.73 172.24 154.43 172.74 C 155.13 173.25 156.10 173.09 156.61 172.39 Z M 157.18 171.60 L 157.75 170.81 C 158.25 170.11 158.09 169.14 157.40 168.63 C 156.70 168.13 155.72 168.29 155.22 168.99 L 154.64 169.78 C 154.14 170.48 154.30 171.45 155.00 171.96 C 155.70 172.46 156.67 172.30 157.18 171.60 Z M 157.75 170.81 L 158.32 170.01 C 158.83 169.31 158.67 168.34 157.97 167.83 C 157.27 167.33 156.30 167.49 155.79 168.19 L 155.22 168.99 C 154.71 169.69 154.87 170.66 155.57 171.17 C 156.27 171.67 157.24 171.51 157.75 170.81 Z M 158.33 170.01 L 158.91 169.20 C 159.41 168.50 159.25 167.53 158.56 167.02 C 157.86 166.52 156.88 166.68 156.38 167.38 L 155.79 168.19 C 155.29 168.89 155.45 169.86 156.15 170.37 C 156.85 170.87 157.82 170.71 158.33 170.01 Z M 158.91 169.20 L 159.50 168.38 C 160.01 167.68 159.85 166.70 159.15 166.20 C 158.45 165.70 157.47 165.85 156.97 166.55 L 156.38 167.38 C 155.87 168.08 156.03 169.05 156.73 169.56 C 157.43 170.06 158.41 169.90 158.91 169.20 Z M 159.50 168.38 L 160.11 167.54 C 160.61 166.84 160.45 165.87 159.75 165.36 C 159.05 164.86 158.08 165.02 157.57 165.72 L 156.97 166.55 C 156.47 167.25 156.62 168.23 157.32 168.73 C 158.02 169.24 159.00 169.08 159.50 168.38 Z M 160.10 167.54 L 160.70 166.72 C 161.21 166.02 161.05 165.04 160.35 164.54 C 159.65 164.03 158.68 164.19 158.17 164.89 L 157.57 165.71 C 157.07 166.41 157.23 167.39 157.93 167.89 C 158.62 168.40 159.60 168.24 160.10 167.54 Z M 160.70 166.72 L 161.29 165.91 C 161.79 165.21 161.64 164.23 160.94 163.73 C 160.24 163.22 159.26 163.38 158.76 164.08 L 158.17 164.89 C 157.67 165.59 157.82 166.56 158.52 167.07 C 159.22 167.57 160.20 167.42 160.70 166.72 Z M 161.29 165.91 L 161.88 165.09 C 162.38 164.39 162.23 163.42 161.53 162.91 C 160.83 162.40 159.85 162.56 159.35 163.26 L 158.76 164.08 C 158.25 164.78 158.41 165.75 159.11 166.26 C 159.81 166.76 160.78 166.61 161.29 165.91 Z M 161.88 165.09 L 162.47 164.27 C 162.98 163.57 162.82 162.59 162.12 162.09 C 161.42 161.58 160.45 161.74 159.94 162.44 L 159.35 163.26 C 158.84 163.96 159.00 164.94 159.70 165.44 C 160.40 165.95 161.38 165.79 161.88 165.09 Z M 162.47 164.27 L 163.06 163.45 C 163.57 162.75 163.41 161.77 162.71 161.27 C 162.01 160.76 161.03 160.92 160.53 161.62 L 159.94 162.44 C 159.44 163.14 159.59 164.12 160.29 164.62 C 160.99 165.13 161.97 164.97 162.47 164.27 Z M 163.07 163.44 L 163.65 162.63 C 164.15 161.93 163.99 160.96 163.29 160.45 C 162.59 159.95 161.61 160.11 161.11 160.81 L 160.53 161.63 C 160.03 162.33 160.19 163.30 160.89 163.80 C 161.59 164.31 162.56 164.15 163.07 163.44 Z M 163.65 162.63 L 164.22 161.83 C 164.72 161.12 164.56 160.15 163.86 159.65 C 163.15 159.15 162.18 159.31 161.68 160.01 L 161.11 160.82 C 160.61 161.52 160.77 162.49 161.47 162.99 C 162.18 163.49 163.15 163.33 163.65 162.63 Z M 164.23 161.82 L 164.82 160.98 C 165.31 160.28 165.15 159.31 164.44 158.81 C 163.74 158.31 162.76 158.48 162.27 159.18 L 161.68 160.02 C 161.18 160.72 161.35 161.70 162.05 162.19 C 162.75 162.69 163.73 162.52 164.23 161.82 Z M 164.82 160.98 L 165.41 160.13 C 165.91 159.42 165.74 158.45 165.03 157.96 C 164.32 157.46 163.35 157.63 162.86 158.34 L 162.26 159.19 C 161.77 159.90 161.94 160.87 162.65 161.36 C 163.35 161.86 164.33 161.69 164.82 160.98 Z M 165.42 160.12 L 166.00 159.29 C 166.49 158.58 166.31 157.61 165.60 157.12 C 164.89 156.63 163.92 156.80 163.43 157.51 L 162.85 158.35 C 162.36 159.05 162.54 160.03 163.25 160.52 C 163.95 161.01 164.93 160.83 165.42 160.12 Z M 166.00 159.28 L 166.56 158.46 C 167.05 157.75 166.87 156.78 166.16 156.29 C 165.45 155.81 164.48 155.99 163.99 156.70 L 163.43 157.52 C 162.94 158.23 163.12 159.20 163.83 159.69 C 164.54 160.18 165.51 159.99 166.00 159.28 Z M 166.57 158.46 L 167.12 157.65 C 167.60 156.93 167.42 155.96 166.70 155.48 C 165.99 154.99 165.02 155.18 164.53 155.89 L 163.98 156.70 C 163.50 157.42 163.68 158.39 164.40 158.87 C 165.11 159.36 166.08 159.17 166.57 158.46 Z M 167.12 157.64 L 167.66 156.84 C 168.14 156.13 167.95 155.16 167.24 154.67 C 166.52 154.19 165.55 154.38 165.07 155.10 L 164.53 155.90 C 164.05 156.61 164.24 157.58 164.95 158.07 C 165.67 158.55 166.64 158.36 167.12 157.64 Z M 167.66 156.84 L 168.21 156.02 C 168.69 155.30 168.49 154.33 167.78 153.85 C 167.06 153.37 166.09 153.57 165.61 154.29 L 165.07 155.10 C 164.59 155.82 164.78 156.79 165.50 157.27 C 166.22 157.75 167.19 157.55 167.66 156.84 Z M 168.21 156.01 L 168.78 155.16 C 169.25 154.44 169.05 153.48 168.34 153.00 C 167.62 152.52 166.65 152.72 166.17 153.44 L 165.61 154.29 C 165.13 155.01 165.33 155.98 166.05 156.45 C 166.77 156.93 167.74 156.73 168.21 156.01 Z M 168.78 155.16 L 169.33 154.32 C 169.81 153.60 169.61 152.63 168.89 152.15 C 168.17 151.68 167.20 151.88 166.73 152.60 L 166.17 153.44 C 165.70 154.16 165.89 155.13 166.62 155.61 C 167.34 156.08 168.30 155.88 168.78 155.16 Z M 169.33 154.31 L 169.88 153.48 C 170.36 152.76 170.16 151.79 169.44 151.31 C 168.71 150.84 167.75 151.04 167.27 151.76 L 166.72 152.60 C 166.25 153.32 166.45 154.29 167.17 154.76 C 167.89 155.24 168.86 155.03 169.33 154.31 Z M 169.88 153.48 L 170.43 152.65 C 170.90 151.93 170.70 150.96 169.98 150.49 C 169.26 150.01 168.29 150.21 167.82 150.93 L 167.27 151.76 C 166.80 152.48 167.00 153.45 167.72 153.92 C 168.44 154.40 169.41 154.20 169.88 153.48 Z M 170.43 152.65 L 170.97 151.83 C 171.44 151.11 171.24 150.14 170.52 149.67 C 169.80 149.19 168.83 149.39 168.36 150.11 L 167.82 150.93 C 167.35 151.65 167.54 152.62 168.26 153.09 C 168.99 153.57 169.95 153.37 170.43 152.65 Z M 170.96 151.83 L 171.52 150.99 C 172.00 150.27 171.80 149.31 171.08 148.83 C 170.36 148.35 169.39 148.55 168.92 149.27 L 168.36 150.11 C 167.88 150.83 168.08 151.80 168.80 152.27 C 169.52 152.75 170.49 152.55 170.96 151.83 Z M 171.52 151.00 L 172.09 150.14 C 172.57 149.42 172.37 148.45 171.65 147.97 C 170.94 147.50 169.97 147.69 169.49 148.41 L 168.92 149.27 C 168.44 149.98 168.64 150.95 169.35 151.43 C 170.07 151.91 171.04 151.71 171.52 151.00 Z M 172.09 150.14 L 172.65 149.30 C 173.13 148.58 172.93 147.61 172.22 147.13 C 171.50 146.65 170.53 146.85 170.05 147.57 L 169.49 148.41 C 169.01 149.13 169.21 150.10 169.92 150.57 C 170.64 151.05 171.61 150.86 172.09 150.14 Z M 172.65 149.29 L 173.20 148.46 C 173.68 147.75 173.48 146.78 172.77 146.30 C 172.05 145.82 171.08 146.02 170.60 146.74 L 170.05 147.57 C 169.57 148.29 169.77 149.25 170.49 149.73 C 171.21 150.21 172.17 150.01 172.65 149.29 Z M 173.21 148.46 L 173.74 147.64 C 174.22 146.92 174.02 145.96 173.30 145.48 C 172.58 145.01 171.61 145.21 171.14 145.93 L 170.60 146.74 C 170.12 147.46 170.32 148.43 171.04 148.90 C 171.76 149.38 172.73 149.18 173.21 148.46 Z M 173.75 147.64 L 174.28 146.82 C 174.75 146.10 174.54 145.13 173.82 144.66 C 173.10 144.19 172.13 144.40 171.66 145.12 L 171.13 145.93 C 170.66 146.66 170.87 147.62 171.59 148.09 C 172.31 148.56 173.28 148.36 173.75 147.64 Z M 174.28 146.81 L 174.85 145.93 C 175.31 145.20 175.10 144.24 174.37 143.77 C 173.64 143.31 172.68 143.52 172.22 144.25 L 171.65 145.13 C 171.19 145.86 171.40 146.82 172.13 147.29 C 172.86 147.75 173.82 147.54 174.28 146.81 Z M 174.86 145.91 L 175.40 145.05 C 175.85 144.32 175.63 143.35 174.90 142.90 C 174.17 142.44 173.20 142.66 172.75 143.40 L 172.21 144.26 C 171.75 144.99 171.97 145.96 172.70 146.41 C 173.44 146.87 174.40 146.65 174.86 145.91 Z M 175.40 145.03 L 175.92 144.19 C 176.37 143.45 176.14 142.49 175.40 142.04 C 174.67 141.59 173.71 141.82 173.26 142.56 L 172.74 143.41 C 172.29 144.15 172.52 145.11 173.26 145.56 C 174.00 146.00 174.96 145.77 175.40 145.03 Z M 175.93 144.17 L 176.43 143.34 C 176.87 142.60 176.62 141.64 175.88 141.20 C 175.14 140.76 174.18 141.00 173.74 141.74 L 173.25 142.57 C 172.81 143.32 173.05 144.27 173.79 144.71 C 174.53 145.16 175.49 144.91 175.93 144.17 Z M 176.44 143.32 L 176.92 142.48 C 177.36 141.73 177.10 140.78 176.36 140.35 C 175.61 139.91 174.65 140.17 174.22 140.91 L 173.73 141.76 C 173.30 142.50 173.56 143.46 174.30 143.89 C 175.05 144.32 176.00 144.07 176.44 143.32 Z M 176.94 142.46 L 177.44 141.56 C 177.86 140.81 177.59 139.86 176.84 139.44 C 176.09 139.01 175.14 139.28 174.72 140.03 L 174.21 140.93 C 173.79 141.68 174.06 142.64 174.81 143.06 C 175.56 143.48 176.51 143.21 176.94 142.46 Z M 177.45 141.54 L 177.93 140.66 C 178.34 139.90 178.06 138.95 177.30 138.54 C 176.54 138.13 175.59 138.41 175.18 139.17 L 174.70 140.06 C 174.29 140.81 174.58 141.76 175.34 142.17 C 176.09 142.58 177.04 142.30 177.45 141.54 Z M 177.94 140.63 L 178.39 139.76 C 178.79 138.99 178.49 138.05 177.73 137.66 C 176.96 137.26 176.02 137.56 175.62 138.32 L 175.17 139.20 C 174.77 139.96 175.07 140.90 175.84 141.30 C 176.60 141.70 177.54 141.40 177.94 140.63 Z M 178.41 139.73 L 178.84 138.87 C 179.22 138.09 178.90 137.16 178.13 136.77 C 177.36 136.39 176.42 136.71 176.04 137.48 L 175.61 138.35 C 175.23 139.12 175.54 140.06 176.32 140.44 C 177.09 140.82 178.03 140.51 178.41 139.73 Z M 178.85 138.83 L 179.29 137.89 C 179.65 137.11 179.32 136.18 178.53 135.81 C 177.75 135.45 176.82 135.79 176.46 136.57 L 176.02 137.52 C 175.66 138.30 176.00 139.23 176.78 139.59 C 177.56 139.95 178.49 139.61 178.85 138.83 Z M 179.32 137.83 L 179.71 136.89 C 180.04 136.10 179.67 135.18 178.87 134.85 C 178.08 134.52 177.16 134.89 176.83 135.69 L 176.44 136.63 C 176.10 137.42 176.48 138.34 177.27 138.67 C 178.07 139.00 178.98 138.63 179.32 137.83 Z M 179.74 136.81 L 180.07 135.88 C 180.36 135.07 179.93 134.18 179.12 133.89 C 178.30 133.60 177.41 134.03 177.12 134.84 L 176.80 135.77 C 176.51 136.59 176.94 137.48 177.75 137.76 C 178.56 138.05 179.45 137.62 179.74 136.81 Z M 180.11 135.76 L 180.35 134.83 C 180.57 134.00 180.08 133.14 179.24 132.92 C 178.41 132.70 177.56 133.20 177.33 134.03 L 177.09 134.96 C 176.87 135.80 177.36 136.65 178.20 136.87 C 179.03 137.09 179.89 136.59 180.11 135.76 Z M 180.39 134.63 L 180.53 133.56 C 180.65 132.71 180.04 131.92 179.19 131.81 C 178.33 131.70 177.55 132.30 177.44 133.15 L 177.30 134.23 C 177.18 135.08 177.78 135.87 178.64 135.98 C 179.49 136.09 180.28 135.49 180.39 134.63 Z M 180.54 133.20 L 180.44 132.22 C 180.35 131.36 179.58 130.74 178.72 130.83 C 177.87 130.92 177.24 131.68 177.33 132.54 L 177.43 133.52 C 177.52 134.37 178.29 135.00 179.15 134.91 C 180.00 134.82 180.63 134.05 180.54 133.20 Z M 180.26 131.65 L 179.83 130.84 C 179.43 130.08 178.48 129.79 177.72 130.20 C 176.96 130.60 176.67 131.55 177.08 132.31 L 177.51 133.11 C 177.91 133.88 178.86 134.17 179.62 133.76 C 180.38 133.36 180.67 132.41 180.26 131.65 Z M 179.39 130.32 L 178.68 129.80 C 177.98 129.28 177.01 129.43 176.49 130.12 C 175.98 130.82 176.13 131.79 176.82 132.31 L 177.53 132.83 C 178.22 133.34 179.20 133.20 179.71 132.51 C 180.22 131.81 180.08 130.84 179.39 130.32 Z M 178.30 129.59 L 177.38 129.24 C 176.57 128.94 175.67 129.35 175.37 130.15 C 175.06 130.96 175.47 131.86 176.27 132.16 L 177.20 132.51 C 178.00 132.82 178.90 132.41 179.21 131.61 C 179.51 130.80 179.11 129.90 178.30 129.59 Z M 177.16 129.18 L 176.12 128.95 C 175.28 128.77 174.45 129.31 174.27 130.15 C 174.08 130.99 174.62 131.82 175.46 132.01 L 176.50 132.23 C 177.34 132.41 178.17 131.88 178.35 131.03 C 178.54 130.19 178.00 129.36 177.16 129.18 Z M 175.99 128.93 L 174.95 128.80 C 174.10 128.68 173.31 129.29 173.20 130.14 C 173.09 131.00 173.69 131.78 174.55 131.89 L 175.59 132.03 C 176.45 132.14 177.23 131.54 177.34 130.68 C 177.45 129.83 176.85 129.04 175.99 128.93 Z M 174.87 128.79 L 173.82 128.71 C 172.96 128.64 172.21 129.28 172.14 130.14 C 172.07 131.00 172.71 131.75 173.57 131.82 L 174.63 131.90 C 175.49 131.97 176.24 131.33 176.31 130.47 C 176.37 129.61 175.73 128.85 174.87 128.79 Z M 173.75 128.70 L 172.77 128.67 C 171.91 128.64 171.18 129.31 171.15 130.17 C 171.12 131.03 171.80 131.76 172.66 131.79 L 173.64 131.82 C 174.50 131.85 175.23 131.18 175.26 130.32 C 175.29 129.46 174.61 128.73 173.75 128.70 Z M 172.73 128.67 L 171.77 128.66 C 170.90 128.65 170.20 129.34 170.19 130.21 C 170.19 131.07 170.88 131.77 171.74 131.78 L 172.70 131.79 C 173.56 131.80 174.27 131.10 174.27 130.24 C 174.28 129.38 173.59 128.67 172.73 128.67 Z M 171.75 128.66 L 170.79 128.66 C 169.92 128.66 169.23 129.36 169.23 130.22 C 169.23 131.08 169.93 131.78 170.79 131.78 L 171.75 131.78 C 172.62 131.78 173.31 131.08 173.31 130.22 C 173.31 129.36 172.61 128.66 171.75 128.66 Z M 170.78 128.66 L 169.79 128.67 C 168.92 128.67 168.23 129.38 168.23 130.24 C 168.24 131.10 168.94 131.79 169.81 131.79 L 170.80 131.78 C 171.66 131.78 172.35 131.07 172.35 130.21 C 172.34 129.35 171.64 128.65 170.78 128.66 Z M 169.76 128.67 L 168.75 128.69 C 167.89 128.71 167.20 129.42 167.22 130.28 C 167.24 131.15 167.96 131.83 168.82 131.81 L 169.83 131.79 C 170.69 131.77 171.38 131.05 171.36 130.19 C 171.34 129.33 170.62 128.65 169.76 128.67 Z M 168.71 128.69 L 167.69 128.74 C 166.83 128.78 166.17 129.51 166.21 130.37 C 166.25 131.23 166.98 131.90 167.84 131.86 L 168.85 131.81 C 169.72 131.77 170.38 131.04 170.34 130.18 C 170.30 129.32 169.57 128.65 168.71 128.69 Z M 167.64 128.74 L 166.65 128.82 C 165.79 128.89 165.15 129.64 165.22 130.50 C 165.28 131.36 166.04 132.00 166.90 131.93 L 167.89 131.85 C 168.75 131.79 169.39 131.03 169.32 130.17 C 169.25 129.32 168.50 128.67 167.64 128.74 Z M 166.59 128.82 L 165.60 128.94 C 164.75 129.04 164.13 129.81 164.23 130.67 C 164.33 131.53 165.10 132.14 165.96 132.04 L 166.95 131.93 C 167.81 131.83 168.42 131.05 168.32 130.19 C 168.22 129.34 167.45 128.72 166.59 128.82 Z M 165.54 128.95 L 164.54 129.11 C 163.69 129.24 163.11 130.04 163.25 130.89 C 163.38 131.74 164.18 132.32 165.04 132.19 L 166.03 132.03 C 166.88 131.90 167.46 131.10 167.32 130.24 C 167.19 129.39 166.39 128.81 165.54 128.95 Z M 164.47 129.12 L 163.49 129.32 C 162.65 129.50 162.11 130.32 162.28 131.17 C 162.46 132.01 163.28 132.55 164.13 132.38 L 165.11 132.18 C 165.95 132.00 166.49 131.17 166.32 130.33 C 166.14 129.49 165.32 128.94 164.47 129.12 Z M 163.43 129.34 L 162.46 129.58 C 161.63 129.79 161.12 130.64 161.33 131.47 C 161.54 132.31 162.39 132.82 163.22 132.61 L 164.19 132.36 C 165.03 132.15 165.54 131.31 165.33 130.47 C 165.11 129.63 164.27 129.13 163.43 129.34 Z M 162.41 129.59 L 161.45 129.87 C 160.62 130.10 160.14 130.97 160.38 131.80 C 160.61 132.63 161.48 133.11 162.31 132.87 L 163.27 132.59 C 164.10 132.36 164.58 131.49 164.34 130.66 C 164.11 129.84 163.24 129.36 162.41 129.59 Z M 161.42 129.88 L 160.46 130.18 C 159.63 130.43 159.17 131.31 159.43 132.13 C 159.69 132.95 160.56 133.41 161.38 133.16 L 162.34 132.86 C 163.16 132.60 163.62 131.73 163.37 130.91 C 163.11 130.08 162.24 129.62 161.42 129.88 Z M 160.44 130.18 L 159.47 130.50 C 158.65 130.76 158.20 131.64 158.47 132.46 C 158.74 133.28 159.62 133.73 160.44 133.47 L 161.40 133.15 C 162.22 132.88 162.67 132.00 162.41 131.18 C 162.14 130.36 161.26 129.91 160.44 130.18 Z M 159.46 130.50 L 158.50 130.82 C 157.69 131.10 157.25 131.98 157.52 132.80 C 157.79 133.61 158.68 134.06 159.50 133.78 L 160.45 133.46 C 161.27 133.19 161.71 132.30 161.44 131.48 C 161.16 130.67 160.28 130.23 159.46 130.50 Z M 158.50 130.82 L 157.56 131.14 C 156.74 131.42 156.30 132.31 156.58 133.12 C 156.86 133.94 157.75 134.38 158.56 134.10 L 159.50 133.78 C 160.32 133.50 160.76 132.61 160.48 131.80 C 160.20 130.98 159.31 130.55 158.50 130.82 Z M 157.56 131.14 L 156.62 131.46 C 155.80 131.74 155.36 132.63 155.64 133.44 C 155.92 134.26 156.81 134.70 157.62 134.42 L 158.56 134.10 C 159.38 133.82 159.82 132.93 159.54 132.12 C 159.26 131.30 158.37 130.87 157.56 131.14 Z M 156.62 131.46 L 155.65 131.79 C 154.83 132.06 154.39 132.95 154.67 133.77 C 154.94 134.58 155.83 135.02 156.65 134.75 L 157.62 134.42 C 158.43 134.15 158.87 133.26 158.60 132.44 C 158.32 131.63 157.44 131.19 156.62 131.46 Z M 155.66 131.79 L 154.71 132.10 C 153.89 132.38 153.45 133.26 153.72 134.08 C 153.99 134.90 154.88 135.34 155.70 135.06 L 156.64 134.75 C 157.46 134.48 157.90 133.59 157.63 132.78 C 157.36 131.96 156.47 131.51 155.66 131.79 Z M 154.71 132.10 L 153.79 132.40 C 152.97 132.67 152.53 133.56 152.80 134.37 C 153.07 135.19 153.95 135.64 154.77 135.37 L 155.69 135.07 C 156.51 134.80 156.95 133.92 156.68 133.10 C 156.42 132.28 155.53 131.83 154.71 132.10 Z M 153.80 132.40 L 152.84 132.71 C 152.02 132.98 151.57 133.86 151.84 134.68 C 152.11 135.50 152.99 135.95 153.81 135.68 L 154.76 135.37 C 155.58 135.11 156.03 134.23 155.76 133.41 C 155.50 132.59 154.62 132.14 153.80 132.40 Z M 152.85 132.71 L 151.91 133.01 C 151.08 133.27 150.63 134.15 150.89 134.97 C 151.15 135.79 152.03 136.25 152.85 135.99 L 153.80 135.68 C 154.62 135.42 155.07 134.54 154.81 133.72 C 154.55 132.90 153.67 132.45 152.85 132.71 Z M 151.92 133.01 L 150.96 133.30 C 150.14 133.56 149.68 134.43 149.93 135.26 C 150.19 136.08 151.06 136.54 151.89 136.28 L 152.84 135.99 C 153.66 135.73 154.12 134.86 153.87 134.03 C 153.61 133.21 152.74 132.75 151.92 133.01 Z M 150.97 133.30 L 150.06 133.57 C 149.24 133.82 148.77 134.69 149.02 135.52 C 149.27 136.35 150.14 136.81 150.96 136.56 L 151.88 136.29 C 152.70 136.04 153.17 135.17 152.92 134.34 C 152.67 133.52 151.80 133.05 150.97 133.30 Z M 150.08 133.57 L 149.15 133.84 C 148.32 134.08 147.84 134.94 148.08 135.77 C 148.32 136.60 149.19 137.08 150.02 136.84 L 150.95 136.57 C 151.78 136.33 152.25 135.46 152.01 134.63 C 151.77 133.81 150.91 133.33 150.08 133.57 Z M 149.17 133.83 L 148.18 134.10 C 147.35 134.33 146.86 135.19 147.09 136.02 C 147.32 136.85 148.17 137.34 149.01 137.11 L 149.99 136.84 C 150.83 136.62 151.32 135.76 151.09 134.93 C 150.86 134.10 150.00 133.61 149.17 133.83 Z M 148.21 134.09 L 147.19 134.35 C 146.36 134.57 145.85 135.42 146.06 136.25 C 146.28 137.09 147.13 137.59 147.96 137.38 L 148.98 137.12 C 149.81 136.91 150.32 136.06 150.11 135.22 C 149.90 134.39 149.05 133.88 148.21 134.09 Z M 147.22 134.35 L 146.24 134.58 C 145.40 134.77 144.88 135.61 145.07 136.45 C 145.27 137.29 146.11 137.81 146.95 137.62 L 147.93 137.39 C 148.77 137.19 149.29 136.35 149.10 135.51 C 148.90 134.67 148.06 134.15 147.22 134.35 Z M 146.27 134.57 L 145.27 134.78 C 144.43 134.95 143.89 135.78 144.06 136.63 C 144.24 137.47 145.07 138.01 145.91 137.83 L 146.91 137.62 C 147.76 137.45 148.30 136.62 148.12 135.78 C 147.95 134.93 147.12 134.39 146.27 134.57 Z M 145.32 134.77 L 144.33 134.94 C 143.48 135.09 142.92 135.90 143.07 136.75 C 143.22 137.60 144.03 138.17 144.88 138.02 L 145.86 137.84 C 146.71 137.69 147.28 136.88 147.13 136.03 C 146.98 135.18 146.17 134.62 145.32 134.77 Z M 144.40 134.93 L 143.40 135.06 C 142.54 135.18 141.94 135.96 142.06 136.82 C 142.17 137.67 142.95 138.27 143.81 138.16 L 144.81 138.03 C 145.66 137.92 146.27 137.13 146.15 136.28 C 146.04 135.42 145.26 134.82 144.40 134.93 Z M 143.49 135.06 L 142.45 135.13 C 141.59 135.20 140.95 135.95 141.01 136.81 C 141.07 137.67 141.82 138.31 142.68 138.25 L 143.72 138.17 C 144.58 138.11 145.22 137.36 145.16 136.50 C 145.10 135.64 144.35 134.99 143.49 135.06 Z M 142.52 135.13 L 141.55 135.16 C 140.69 135.18 140.01 135.90 140.03 136.76 C 140.06 137.62 140.78 138.30 141.64 138.28 L 142.61 138.25 C 143.47 138.23 144.15 137.51 144.13 136.65 C 144.10 135.79 143.39 135.11 142.52 135.13 Z M 141.59 135.16 L 140.76 135.16 C 139.90 135.16 139.20 135.86 139.20 136.73 C 139.21 137.59 139.91 138.28 140.77 138.28 L 141.60 138.28 C 142.46 138.27 143.16 137.57 143.16 136.71 C 143.15 135.85 142.45 135.15 141.59 135.16 Z"
      fill="black"
      fill-rule="nonzero" /></svg>