<svg xmlns="http://www.w3.org/2000/svg" width="300" height="300" viewBox="0 0 300 300">
<path d="M 147.50 141.66 L 146.51 141.59 C 145.65 141.54 144.90 142.19 144.84 143.05 C 144.79 143.91 145.44 144.65 146.30 144.71 L 147.29 144.78 C 148.15 144.84 148.89 144.19 148.95 143.33 C 149.01 142.47 148.36 141.72 147.50 141.66 Z M 146.48 141.59 L 145.49 141.54 C 144.62 141.50 143.89 142.16 143.85 143.02 C 143.80 143.88 144.47 144.62 145.33 144.66 L 146.32 144.71 C 147.18 144.76 147.92 144.09 147.96 143.23 C 148.01 142.37 147.34 141.64 146.48 141.59 Z M 145.43 141.54 L 144.43 141.53 C 143.57 141.51 142.86 142.20 142.84 143.06 C 142.83 143.93 143.52 144.64 144.38 144.65 L 145.38 144.66 C 146.25 144.68 146.96 143.99 146.97 143.13 C 146.98 142.26 146.29 141.55 145.43 141.54 Z M 144.35 141.53 L 143.36 141.56 C 142.50 141.60 141.82 142.32 141.86 143.18 C 141.89 144.05 142.61 144.72 143.48 144.68 L 144.46 144.65 C 145.33 144.62 146.00 143.89 145.97 143.03 C 145.93 142.17 145.21 141.49 144.35 141.53 Z M 143.23 141.57 L 142.29 141.69 C 141.44 141.79 140.82 142.56 140.93 143.42 C 141.03 144.28 141.80 144.89 142.66 144.79 L 143.60 144.68 C 144.46 144.57 145.07 143.80 144.97 142.94 C 144.87 142.08 144.09 141.47 143.23 141.57 Z M 142.09 141.72 L 141.15 141.96 C 140.32 142.18 139.81 143.03 140.03 143.86 C 140.24 144.70 141.09 145.20 141.93 144.99 L 142.86 144.75 C 143.70 144.53 144.20 143.68 143.99 142.85 C 143.77 142.01 142.92 141.51 142.09 141.72 Z M 140.89 142.06 L 139.97 142.48 C 139.18 142.84 138.84 143.77 139.20 144.56 C 139.56 145.34 140.49 145.68 141.27 145.32 L 142.20 144.89 C 142.98 144.53 143.32 143.60 142.96 142.82 C 142.60 142.04 141.67 141.70 140.89 142.06 Z M 139.70 142.64 L 138.85 143.26 C 138.16 143.77 138.01 144.75 138.52 145.44 C 139.03 146.14 140.00 146.29 140.70 145.78 L 141.54 145.16 C 142.24 144.65 142.39 143.67 141.88 142.98 C 141.37 142.28 140.39 142.13 139.70 142.64 Z M 138.66 143.43 L 138.02 144.08 C 137.41 144.69 137.42 145.68 138.03 146.29 C 138.65 146.89 139.64 146.89 140.24 146.27 L 140.89 145.62 C 141.49 145.00 141.49 144.01 140.87 143.41 C 140.26 142.80 139.27 142.81 138.66 143.43 Z M 137.91 144.20 L 137.29 144.97 C 136.75 145.64 136.86 146.62 137.53 147.16 C 138.20 147.70 139.19 147.60 139.73 146.92 L 140.35 146.15 C 140.89 145.48 140.78 144.50 140.11 143.96 C 139.44 143.42 138.45 143.53 137.91 144.20 Z M 137.23 145.06 L 136.64 145.91 C 136.15 146.62 136.33 147.59 137.04 148.08 C 137.75 148.57 138.72 148.39 139.21 147.68 L 139.80 146.83 C 140.29 146.12 140.11 145.15 139.40 144.66 C 138.69 144.17 137.72 144.35 137.23 145.06 Z M 136.59 145.98 L 136.05 146.88 C 135.60 147.61 135.83 148.57 136.56 149.02 C 137.30 149.47 138.26 149.24 138.71 148.50 L 139.26 147.61 C 139.71 146.87 139.47 145.91 138.74 145.46 C 138.00 145.01 137.04 145.24 136.59 145.98 Z M 136.01 146.93 L 135.51 147.84 C 135.09 148.59 135.37 149.54 136.12 149.96 C 136.88 150.38 137.83 150.10 138.24 149.35 L 138.74 148.44 C 139.16 147.69 138.89 146.74 138.13 146.32 C 137.38 145.91 136.43 146.18 136.01 146.93 Z M 135.49 147.89 L 135.02 148.82 C 134.63 149.59 134.93 150.52 135.70 150.91 C 136.47 151.30 137.41 151.00 137.80 150.23 L 138.27 149.30 C 138.66 148.53 138.35 147.59 137.58 147.20 C 136.81 146.81 135.88 147.12 135.49 147.89 Z M 134.99 148.87 L 134.57 149.78 C 134.21 150.56 134.55 151.49 135.33 151.85 C 136.11 152.22 137.04 151.87 137.40 151.09 L 137.83 150.18 C 138.19 149.40 137.85 148.47 137.06 148.10 C 136.28 147.74 135.35 148.08 134.99 148.87 Z M 134.55 149.83 L 134.16 150.74 C 133.83 151.53 134.20 152.45 135.00 152.78 C 135.79 153.12 136.71 152.74 137.04 151.95 L 137.42 151.04 C 137.76 150.25 137.39 149.33 136.59 149.00 C 135.80 148.66 134.88 149.04 134.55 149.83 Z M 134.15 150.78 L 133.79 151.69 C 133.48 152.50 133.88 153.40 134.69 153.71 C 135.49 154.02 136.40 153.62 136.71 152.82 L 137.06 151.90 C 137.37 151.10 136.97 150.20 136.16 149.89 C 135.36 149.58 134.46 149.98 134.15 150.78 Z M 133.78 151.73 L 133.45 152.66 C 133.16 153.48 133.58 154.37 134.39 154.66 C 135.21 154.95 136.10 154.52 136.39 153.71 L 136.72 152.78 C 137.01 151.97 136.59 151.07 135.77 150.78 C 134.96 150.49 134.07 150.92 133.78 151.73 Z M 133.44 152.69 L 133.14 153.58 C 132.87 154.40 133.31 155.28 134.12 155.56 C 134.94 155.83 135.83 155.39 136.10 154.57 L 136.40 153.68 C 136.67 152.87 136.23 151.98 135.41 151.71 C 134.60 151.43 133.71 151.87 133.44 152.69 Z M 133.13 153.60 L 132.85 154.49 C 132.59 155.32 133.04 156.19 133.86 156.46 C 134.68 156.72 135.56 156.26 135.82 155.44 L 136.11 154.55 C 136.37 153.73 135.92 152.85 135.09 152.59 C 134.27 152.33 133.39 152.78 133.13 153.60 Z M 132.84 154.51 L 132.56 155.44 C 132.31 156.26 132.77 157.14 133.60 157.39 C 134.42 157.64 135.29 157.18 135.55 156.35 L 135.83 155.43 C 136.08 154.60 135.62 153.73 134.79 153.48 C 133.97 153.22 133.10 153.69 132.84 154.51 Z M 132.56 155.45 L 132.27 156.42 C 132.03 157.25 132.50 158.12 133.33 158.36 C 134.15 158.60 135.02 158.13 135.26 157.30 L 135.55 156.34 C 135.79 155.51 135.32 154.64 134.49 154.40 C 133.67 154.15 132.80 154.63 132.56 155.45 Z M 132.27 156.43 L 131.98 157.44 C 131.74 158.27 132.22 159.13 133.05 159.37 C 133.88 159.61 134.74 159.13 134.98 158.30 L 135.27 157.29 C 135.51 156.46 135.03 155.60 134.20 155.36 C 133.37 155.12 132.50 155.60 132.27 156.43 Z M 131.98 157.45 L 131.68 158.50 C 131.45 159.33 131.93 160.20 132.76 160.43 C 133.59 160.66 134.46 160.17 134.69 159.34 L 134.98 158.29 C 135.21 157.46 134.73 156.60 133.90 156.37 C 133.07 156.13 132.21 156.62 131.98 157.45 Z M 131.68 158.51 L 131.42 159.44 C 131.20 160.27 131.68 161.13 132.52 161.36 C 133.35 161.58 134.21 161.10 134.44 160.26 L 134.69 159.34 C 134.92 158.51 134.43 157.65 133.60 157.42 C 132.77 157.19 131.91 157.68 131.68 158.51 Z M 131.42 159.44 L 131.17 160.38 C 130.94 161.22 131.44 162.07 132.27 162.30 C 133.10 162.52 133.96 162.03 134.18 161.20 L 134.44 160.26 C 134.66 159.42 134.17 158.57 133.34 158.34 C 132.50 158.12 131.65 158.61 131.42 159.44 Z M 131.17 160.39 L 130.91 161.36 C 130.69 162.19 131.19 163.04 132.02 163.26 C 132.86 163.48 133.71 162.99 133.93 162.15 L 134.19 161.19 C 134.41 160.35 133.91 159.50 133.07 159.28 C 132.24 159.06 131.39 159.56 131.17 160.39 Z M 130.91 161.37 L 130.66 162.35 C 130.45 163.18 130.95 164.03 131.78 164.25 C 132.62 164.46 133.47 163.96 133.68 163.12 L 133.93 162.14 C 134.15 161.31 133.65 160.46 132.81 160.24 C 131.97 160.03 131.12 160.53 130.91 161.37 Z M 130.66 162.36 L 130.41 163.35 C 130.20 164.19 130.71 165.03 131.55 165.24 C 132.39 165.45 133.23 164.94 133.44 164.10 L 133.69 163.11 C 133.89 162.27 133.38 161.43 132.55 161.22 C 131.71 161.01 130.86 161.52 130.66 162.36 Z M 130.41 163.36 L 130.17 164.36 C 129.97 165.20 130.49 166.04 131.33 166.24 C 132.17 166.44 133.01 165.92 133.21 165.08 L 133.44 164.09 C 133.64 163.25 133.13 162.41 132.29 162.21 C 131.45 162.01 130.61 162.52 130.41 163.36 Z M 130.17 164.37 L 129.94 165.37 C 129.75 166.21 130.28 167.05 131.12 167.24 C 131.96 167.43 132.79 166.90 132.98 166.06 L 133.21 165.07 C 133.40 164.23 132.88 163.39 132.03 163.20 C 131.19 163.01 130.36 163.53 130.17 164.37 Z M 129.94 165.39 L 129.72 166.39 C 129.54 167.23 130.08 168.06 130.92 168.24 C 131.76 168.42 132.59 167.88 132.77 167.04 L 132.99 166.05 C 133.17 165.20 132.63 164.37 131.79 164.19 C 130.95 164.01 130.12 164.55 129.94 165.39 Z M 129.72 166.40 L 129.52 167.39 C 129.34 168.24 129.89 169.06 130.73 169.23 C 131.58 169.41 132.40 168.86 132.58 168.02 L 132.78 167.02 C 132.95 166.18 132.40 165.36 131.56 165.18 C 130.71 165.01 129.89 165.56 129.72 166.40 Z M 129.51 167.41 L 129.32 168.40 C 129.16 169.24 129.71 170.06 130.56 170.22 C 131.41 170.39 132.23 169.83 132.39 168.99 L 132.58 168.00 C 132.74 167.15 132.19 166.33 131.34 166.17 C 130.49 166.01 129.68 166.56 129.51 167.41 Z M 129.32 168.41 L 129.14 169.39 C 128.99 170.24 129.55 171.05 130.40 171.21 C 131.24 171.36 132.06 170.80 132.21 169.95 L 132.39 168.97 C 132.55 168.12 131.99 167.31 131.14 167.16 C 130.29 167.00 129.48 167.56 129.32 168.41 Z M 129.14 169.40 L 128.97 170.38 C 128.82 171.23 129.39 172.04 130.24 172.19 C 131.09 172.34 131.90 171.77 132.04 170.92 L 132.21 169.94 C 132.36 169.09 131.79 168.28 130.94 168.14 C 130.10 167.99 129.29 168.56 129.14 169.40 Z M 128.97 170.39 L 128.80 171.37 C 128.66 172.22 129.24 173.02 130.09 173.17 C 130.94 173.31 131.74 172.73 131.88 171.88 L 132.05 170.91 C 132.19 170.06 131.61 169.25 130.76 169.11 C 129.91 168.97 129.11 169.54 128.97 170.39 Z M 128.80 171.38 L 128.64 172.35 C 128.51 173.20 129.09 174.01 129.94 174.14 C 130.79 174.28 131.59 173.70 131.73 172.85 L 131.88 171.87 C 132.02 171.02 131.44 170.22 130.59 170.08 C 129.74 169.95 128.94 170.53 128.80 171.38 Z M 128.64 172.36 L 128.49 173.37 C 128.35 174.22 128.94 175.02 129.79 175.15 C 130.64 175.28 131.44 174.70 131.57 173.85 L 131.73 172.84 C 131.86 171.99 131.28 171.19 130.43 171.06 C 129.57 170.93 128.78 171.51 128.64 172.36 Z M 128.49 173.38 L 128.34 174.38 C 128.21 175.24 128.80 176.03 129.65 176.16 C 130.50 176.28 131.30 175.70 131.42 174.84 L 131.57 173.84 C 131.70 172.99 131.11 172.19 130.26 172.07 C 129.41 171.94 128.61 172.53 128.49 173.38 Z M 128.33 174.39 L 128.19 175.39 C 128.07 176.24 128.66 177.03 129.52 177.16 C 130.37 177.28 131.16 176.69 131.28 175.83 L 131.43 174.83 C 131.55 173.98 130.95 173.19 130.10 173.07 C 129.25 172.95 128.46 173.54 128.33 174.39 Z M 128.19 175.40 L 128.05 176.39 C 127.94 177.25 128.54 178.03 129.39 178.15 C 130.24 178.27 131.03 177.67 131.15 176.81 L 131.28 175.82 C 131.40 174.97 130.80 174.18 129.95 174.06 C 129.09 173.95 128.31 174.55 128.19 175.40 Z M 128.05 176.40 L 127.93 177.38 C 127.81 178.24 128.42 179.02 129.27 179.13 C 130.13 179.24 130.91 178.64 131.02 177.79 L 131.15 176.80 C 131.26 175.95 130.66 175.17 129.80 175.05 C 128.95 174.94 128.16 175.55 128.05 176.40 Z M 127.92 177.39 L 127.80 178.37 C 127.70 179.22 128.31 180.00 129.16 180.11 C 130.02 180.21 130.80 179.60 130.90 178.75 L 131.02 177.77 C 131.13 176.92 130.52 176.14 129.66 176.04 C 128.81 175.93 128.03 176.54 127.92 177.39 Z M 127.80 178.38 L 127.69 179.38 C 127.59 180.24 128.20 181.01 129.06 181.11 C 129.92 181.21 130.69 180.60 130.79 179.74 L 130.91 178.73 C 131.00 177.88 130.39 177.10 129.53 177.01 C 128.68 176.91 127.90 177.52 127.80 178.38 Z M 127.69 179.40 L 127.58 180.44 C 127.49 181.29 128.11 182.06 128.96 182.15 C 129.82 182.24 130.59 181.62 130.68 180.76 L 130.79 179.73 C 130.88 178.87 130.26 178.10 129.40 178.01 C 128.55 177.92 127.78 178.54 127.69 179.40 Z M 127.58 180.45 L 127.48 181.47 C 127.39 182.33 128.02 183.09 128.88 183.18 C 129.74 183.26 130.50 182.63 130.58 181.77 L 130.68 180.75 C 130.77 179.89 130.14 179.13 129.28 179.05 C 128.42 178.96 127.66 179.59 127.58 180.45 Z M 127.48 181.49 L 127.39 182.49 C 127.32 183.35 127.95 184.11 128.81 184.18 C 129.67 184.25 130.43 183.62 130.50 182.76 L 130.59 181.76 C 130.66 180.90 130.02 180.14 129.16 180.07 C 128.31 179.99 127.55 180.63 127.48 181.49 Z M 127.39 182.51 L 127.32 183.49 C 127.25 184.35 127.90 185.09 128.76 185.16 C 129.62 185.22 130.36 184.58 130.43 183.72 L 130.50 182.74 C 130.57 181.88 129.92 181.13 129.06 181.07 C 128.20 181.00 127.45 181.65 127.39 182.51 Z M 127.31 183.50 L 127.25 184.46 C 127.20 185.32 127.86 186.06 128.72 186.11 C 129.58 186.17 130.32 185.51 130.37 184.65 L 130.43 183.70 C 130.48 182.84 129.83 182.10 128.97 182.04 C 128.11 181.99 127.37 182.64 127.31 183.50 Z M 127.25 184.48 L 127.21 185.48 C 127.16 186.34 127.83 187.07 128.69 187.11 C 129.55 187.16 130.28 186.49 130.32 185.63 L 130.37 184.63 C 130.41 183.77 129.75 183.04 128.89 183.00 C 128.03 182.95 127.29 183.62 127.25 184.48 Z M 127.20 185.50 L 127.17 186.57 C 127.14 187.43 127.82 188.15 128.68 188.18 C 129.54 188.21 130.26 187.53 130.29 186.67 L 130.32 185.61 C 130.35 184.74 129.68 184.02 128.82 183.99 C 127.95 183.97 127.23 184.64 127.20 185.50 Z M 127.17 186.59 L 127.15 187.62 C 127.13 188.48 127.82 189.19 128.68 189.21 C 129.55 189.22 130.26 188.54 130.27 187.67 L 130.29 186.65 C 130.31 185.79 129.62 185.08 128.76 185.06 C 127.90 185.05 127.18 185.73 127.17 186.59 Z M 127.15 187.64 L 127.15 188.62 C 127.14 189.48 127.84 190.19 128.70 190.19 C 129.56 190.20 130.26 189.50 130.27 188.64 L 130.27 187.65 C 130.28 186.79 129.58 186.09 128.72 186.09 C 127.86 186.08 127.15 186.78 127.15 187.64 Z M 127.15 188.64 L 127.15 189.58 C 127.15 190.44 127.86 191.14 128.72 191.13 C 129.58 191.13 130.28 190.42 130.27 189.56 L 130.27 188.62 C 130.26 187.76 129.56 187.06 128.70 187.07 C 127.84 187.07 127.14 187.78 127.15 188.64 Z M 127.15 189.59 L 127.16 190.57 C 127.18 191.44 127.89 192.12 128.75 192.11 C 129.61 192.10 130.30 191.39 130.29 190.53 L 130.27 189.55 C 130.26 188.69 129.55 188.00 128.69 188.01 C 127.83 188.02 127.14 188.73 127.15 189.59 Z M 127.16 190.60 L 127.20 191.66 C 127.23 192.52 127.95 193.20 128.81 193.17 C 129.67 193.14 130.35 192.42 130.32 191.56 L 130.29 190.50 C 130.26 189.64 129.54 188.96 128.68 188.99 C 127.81 189.02 127.14 189.74 127.16 190.60 Z M 127.20 191.72 L 127.28 192.72 C 127.34 193.58 128.09 194.23 128.95 194.16 C 129.81 194.10 130.45 193.35 130.39 192.49 L 130.32 191.49 C 130.25 190.63 129.50 189.99 128.64 190.05 C 127.78 190.11 127.14 190.86 127.20 191.72 Z M 127.29 192.83 L 127.43 193.78 C 127.55 194.63 128.35 195.22 129.20 195.09 C 130.05 194.97 130.64 194.17 130.52 193.32 L 130.38 192.38 C 130.25 191.53 129.46 190.94 128.61 191.06 C 127.75 191.19 127.16 191.98 127.29 192.83 Z M 127.46 193.94 L 127.69 194.84 C 127.91 195.68 128.76 196.18 129.59 195.97 C 130.43 195.75 130.93 194.90 130.72 194.07 L 130.49 193.16 C 130.27 192.33 129.42 191.82 128.58 192.04 C 127.75 192.25 127.24 193.10 127.46 193.94 Z M 127.76 195.06 L 128.13 195.94 C 128.47 196.74 129.39 197.11 130.18 196.77 C 130.98 196.43 131.35 195.52 131.01 194.72 L 130.64 193.85 C 130.31 193.05 129.39 192.68 128.60 193.01 C 127.80 193.35 127.43 194.27 127.76 195.06 Z M 128.29 196.22 L 128.83 197.01 C 129.33 197.72 130.30 197.90 131.01 197.41 C 131.73 196.91 131.90 195.94 131.41 195.23 L 130.86 194.44 C 130.37 193.73 129.39 193.55 128.68 194.04 C 127.97 194.54 127.79 195.51 128.29 196.22 Z M 129.09 197.30 L 129.86 197.97 C 130.51 198.55 131.50 198.48 132.07 197.83 C 132.64 197.18 132.58 196.19 131.93 195.62 L 131.16 194.94 C 130.51 194.37 129.51 194.43 128.94 195.08 C 128.37 195.74 128.43 196.73 129.09 197.30 Z M 130.15 198.18 L 131.04 198.66 C 131.81 199.07 132.76 198.78 133.17 198.02 C 133.58 197.25 133.29 196.30 132.53 195.89 L 131.64 195.41 C 130.87 195.00 129.92 195.29 129.51 196.05 C 129.10 196.82 129.38 197.77 130.15 198.18 Z M 131.26 198.76 L 132.16 199.07 C 132.98 199.36 133.88 198.93 134.16 198.11 C 134.45 197.29 134.02 196.39 133.20 196.10 L 132.31 195.79 C 131.49 195.50 130.59 195.93 130.30 196.75 C 130.01 197.57 130.44 198.47 131.26 198.76 Z M 132.30 199.12 L 133.29 199.36 C 134.14 199.57 134.99 199.05 135.20 198.21 C 135.40 197.36 134.89 196.51 134.04 196.30 L 133.05 196.06 C 132.21 195.85 131.36 196.37 131.15 197.21 C 130.94 198.06 131.46 198.91 132.30 199.12 Z M 133.40 199.39 L 134.44 199.56 C 135.30 199.70 136.11 199.13 136.25 198.27 C 136.40 197.41 135.82 196.59 134.96 196.45 L 133.93 196.28 C 133.07 196.13 132.26 196.71 132.11 197.57 C 131.97 198.43 132.55 199.24 133.40 199.39 Z M 134.53 199.57 L 135.56 199.69 C 136.43 199.78 137.21 199.15 137.30 198.29 C 137.39 197.42 136.77 196.64 135.90 196.55 L 134.87 196.44 C 134.00 196.34 133.22 196.97 133.13 197.84 C 133.04 198.70 133.66 199.48 134.53 199.57 Z M 135.65 199.69 L 136.67 199.75 C 137.54 199.80 138.28 199.13 138.33 198.26 C 138.38 197.39 137.71 196.64 136.84 196.59 L 135.82 196.54 C 134.95 196.49 134.20 197.16 134.15 198.03 C 134.11 198.90 134.77 199.65 135.65 199.69 Z M 136.76 199.75 L 137.83 199.74 C 138.71 199.74 139.41 199.03 139.40 198.15 C 139.40 197.28 138.68 196.58 137.81 196.58 L 136.74 196.59 C 135.87 196.60 135.17 197.31 135.17 198.18 C 135.18 199.06 135.89 199.76 136.76 199.75 Z M 137.96 199.74 L 138.96 199.65 C 139.83 199.57 140.47 198.80 140.39 197.93 C 140.31 197.06 139.54 196.42 138.67 196.50 L 137.68 196.59 C 136.81 196.67 136.17 197.44 136.25 198.31 C 136.33 199.18 137.09 199.82 137.96 199.74 Z M 139.11 199.63 L 140.05 199.45 C 140.91 199.29 141.47 198.46 141.31 197.60 C 141.15 196.74 140.32 196.18 139.46 196.34 L 138.52 196.52 C 137.66 196.68 137.10 197.51 137.26 198.37 C 137.42 199.23 138.25 199.79 139.11 199.63 Z M 140.21 199.41 L 141.13 199.14 C 141.96 198.89 142.44 198.01 142.19 197.17 C 141.94 196.33 141.06 195.86 140.22 196.11 L 139.30 196.38 C 138.46 196.63 137.99 197.51 138.24 198.35 C 138.49 199.19 139.37 199.66 140.21 199.41 Z M 141.27 199.09 L 142.14 198.74 C 142.95 198.41 143.34 197.48 143.01 196.67 C 142.68 195.86 141.76 195.47 140.95 195.80 L 140.08 196.16 C 139.27 196.49 138.88 197.41 139.21 198.22 C 139.54 199.03 140.46 199.42 141.27 199.09 Z M 142.25 198.69 L 143.11 198.26 C 143.89 197.87 144.21 196.91 143.82 196.13 C 143.42 195.35 142.47 195.03 141.69 195.42 L 140.83 195.85 C 140.05 196.24 139.73 197.20 140.13 197.98 C 140.52 198.76 141.47 199.08 142.25 198.69 Z M 143.20 198.21 L 144.06 197.71 C 144.82 197.26 145.07 196.29 144.63 195.53 C 144.19 194.78 143.21 194.52 142.46 194.97 L 141.60 195.47 C 140.84 195.91 140.59 196.89 141.03 197.64 C 141.47 198.40 142.45 198.65 143.20 198.21 Z M 144.14 197.66 L 145.00 197.09 C 145.73 196.61 145.93 195.62 145.44 194.89 C 144.96 194.16 143.97 193.96 143.24 194.44 L 142.38 195.01 C 141.65 195.50 141.45 196.48 141.94 197.21 C 142.42 197.94 143.41 198.15 144.14 197.66 Z M 145.06 197.05 L 145.91 196.43 C 146.62 195.91 146.77 194.91 146.26 194.20 C 145.74 193.50 144.74 193.34 144.03 193.86 L 143.18 194.48 C 142.47 195.00 142.32 196.00 142.84 196.71 C 143.35 197.42 144.35 197.57 145.06 197.05 Z M 145.96 196.39 L 146.72 195.79 C 147.41 195.24 147.52 194.24 146.98 193.55 C 146.43 192.86 145.43 192.75 144.74 193.29 L 143.98 193.90 C 143.30 194.44 143.18 195.44 143.73 196.13 C 144.27 196.82 145.27 196.94 145.96 196.39 Z M 146.76 195.75 L 147.50 195.13 C 148.17 194.56 148.25 193.56 147.68 192.89 C 147.12 192.22 146.11 192.13 145.44 192.70 L 144.70 193.33 C 144.04 193.90 143.95 194.90 144.52 195.57 C 145.09 196.24 146.09 196.32 146.76 195.75 Z M 147.53 195.10 L 148.27 194.44 C 148.92 193.85 148.97 192.85 148.39 192.20 C 147.80 191.54 146.80 191.49 146.15 192.07 L 145.41 192.73 C 144.76 193.32 144.70 194.32 145.29 194.97 C 145.87 195.63 146.88 195.68 147.53 195.10 Z M 148.29 194.41 L 149.03 193.72 C 149.67 193.12 149.70 192.11 149.10 191.48 C 148.50 190.84 147.50 190.81 146.86 191.41 L 146.12 192.10 C 145.48 192.70 145.45 193.70 146.05 194.34 C 146.65 194.98 147.65 195.01 148.29 194.41 Z M 149.05 193.69 L 149.79 192.97 C 150.42 192.36 150.43 191.36 149.82 190.73 C 149.20 190.11 148.20 190.09 147.58 190.71 L 146.84 191.43 C 146.21 192.04 146.20 193.05 146.81 193.67 C 147.42 194.30 148.43 194.31 149.05 193.69 Z M 149.81 192.95 L 150.53 192.22 C 151.14 191.60 151.14 190.60 150.52 189.99 C 149.89 189.37 148.89 189.38 148.28 190.00 L 147.56 190.73 C 146.94 191.35 146.95 192.35 147.57 192.96 C 148.19 193.58 149.19 193.57 149.81 192.95 Z M 150.54 192.21 L 151.22 191.50 C 151.82 190.87 151.80 189.87 151.18 189.27 C 150.55 188.66 149.55 188.68 148.94 189.31 L 148.26 190.02 C 147.66 190.64 147.68 191.64 148.31 192.25 C 148.94 192.85 149.94 192.83 150.54 192.21 Z M 151.23 191.48 L 151.91 190.76 C 152.51 190.12 152.47 189.12 151.84 188.53 C 151.20 187.93 150.20 187.97 149.61 188.60 L 148.93 189.33 C 148.33 189.97 148.37 190.96 149.00 191.56 C 149.64 192.15 150.64 192.12 151.23 191.48 Z M 151.93 190.74 L 152.60 189.99 C 153.19 189.35 153.14 188.35 152.49 187.77 C 151.84 187.18 150.85 187.23 150.26 187.88 L 149.59 188.62 C 149.01 189.27 149.06 190.26 149.70 190.85 C 150.35 191.43 151.34 191.38 151.93 190.74 Z M 152.62 189.97 L 153.28 189.21 C 153.86 188.55 153.79 187.56 153.13 186.99 C 152.48 186.41 151.48 186.48 150.91 187.14 L 150.25 187.90 C 149.68 188.55 149.74 189.55 150.40 190.12 C 151.05 190.69 152.05 190.62 152.62 189.97 Z M 153.30 189.18 L 153.95 188.40 C 154.51 187.74 154.43 186.75 153.76 186.19 C 153.10 185.63 152.10 185.72 151.55 186.38 L 150.89 187.16 C 150.34 187.83 150.42 188.82 151.09 189.38 C 151.75 189.93 152.74 189.85 153.30 189.18 Z M 153.97 188.38 L 154.61 187.59 C 155.15 186.92 155.04 185.93 154.37 185.38 C 153.69 184.84 152.70 184.95 152.16 185.63 L 151.53 186.41 C 150.98 187.09 151.09 188.07 151.77 188.62 C 152.44 189.16 153.43 189.05 153.97 188.38 Z M 154.63 187.56 L 155.23 186.78 C 155.76 186.09 155.63 185.11 154.94 184.58 C 154.25 184.05 153.27 184.18 152.74 184.87 L 152.14 185.65 C 151.61 186.34 151.74 187.33 152.43 187.85 C 153.11 188.38 154.10 188.25 154.63 187.56 Z M 155.25 186.75 L 155.83 185.96 C 156.34 185.26 156.20 184.28 155.50 183.77 C 154.80 183.25 153.82 183.40 153.31 184.10 L 152.72 184.90 C 152.21 185.59 152.36 186.57 153.06 187.09 C 153.75 187.60 154.73 187.45 155.25 186.75 Z M 155.85 185.93 L 156.42 185.12 C 156.92 184.42 156.75 183.44 156.05 182.94 C 155.34 182.44 154.36 182.61 153.86 183.31 L 153.29 184.12 C 152.79 184.83 152.96 185.81 153.67 186.31 C 154.37 186.81 155.35 186.64 155.85 185.93 Z M 156.44 185.10 L 157.00 184.27 C 157.48 183.56 157.30 182.59 156.59 182.10 C 155.87 181.61 154.90 181.80 154.41 182.51 L 153.85 183.34 C 153.36 184.05 153.55 185.02 154.26 185.51 C 154.98 186.00 155.95 185.81 156.44 185.10 Z M 157.01 184.25 L 157.57 183.41 C 158.04 182.69 157.84 181.72 157.12 181.24 C 156.40 180.77 155.43 180.97 154.96 181.69 L 154.40 182.53 C 153.93 183.25 154.12 184.22 154.84 184.70 C 155.56 185.17 156.53 184.97 157.01 184.25 Z M 157.58 183.39 L 158.13 182.53 C 158.59 181.81 158.38 180.84 157.66 180.37 C 156.93 179.91 155.97 180.12 155.50 180.84 L 154.95 181.71 C 154.48 182.43 154.69 183.40 155.42 183.86 C 156.14 184.33 157.11 184.12 157.58 183.39 Z M 158.14 182.52 L 158.65 181.70 C 159.11 180.97 158.89 180.01 158.16 179.55 C 157.42 179.09 156.46 179.31 156.00 180.04 L 155.49 180.86 C 155.03 181.59 155.25 182.55 155.98 183.01 C 156.72 183.47 157.68 183.25 158.14 182.52 Z M 158.66 181.69 L 159.17 180.86 C 159.62 180.12 159.39 179.16 158.65 178.71 C 157.92 178.26 156.96 178.49 156.51 179.22 L 156.00 180.06 C 155.54 180.79 155.77 181.75 156.51 182.20 C 157.24 182.65 158.20 182.42 158.66 181.69 Z M 159.17 180.85 L 159.69 180.00 C 160.13 179.26 159.89 178.30 159.16 177.86 C 158.42 177.41 157.46 177.65 157.01 178.39 L 156.50 179.23 C 156.06 179.97 156.29 180.93 157.03 181.38 C 157.77 181.82 158.73 181.59 159.17 180.85 Z M 159.69 179.99 L 160.20 179.13 C 160.64 178.38 160.40 177.43 159.66 176.99 C 158.91 176.55 157.96 176.79 157.52 177.53 L 157.01 178.40 C 156.57 179.14 156.81 180.10 157.55 180.54 C 158.29 180.98 159.25 180.73 159.69 179.99 Z M 160.21 179.12 L 160.72 178.24 C 161.15 177.49 160.90 176.54 160.16 176.10 C 159.41 175.67 158.46 175.92 158.02 176.67 L 157.51 177.54 C 157.08 178.29 157.33 179.24 158.07 179.68 C 158.82 180.11 159.77 179.86 160.21 179.12 Z M 160.73 178.23 L 161.24 177.34 C 161.67 176.59 161.41 175.64 160.66 175.21 C 159.91 174.78 158.96 175.04 158.53 175.79 L 158.02 176.68 C 157.59 177.42 157.85 178.38 158.59 178.81 C 159.34 179.24 160.30 178.98 160.73 178.23 Z M 161.24 177.33 L 161.74 176.44 C 162.17 175.69 161.91 174.74 161.16 174.32 C 160.41 173.89 159.45 174.15 159.03 174.91 L 158.52 175.79 C 158.10 176.54 158.36 177.50 159.11 177.92 C 159.86 178.35 160.82 178.08 161.24 177.33 Z M 161.75 176.44 L 162.23 175.58 C 162.65 174.83 162.38 173.88 161.63 173.45 C 160.88 173.03 159.93 173.30 159.51 174.05 L 159.02 174.91 C 158.60 175.66 158.87 176.62 159.62 177.04 C 160.38 177.46 161.33 177.19 161.75 176.44 Z M 162.23 175.57 L 162.71 174.71 C 163.13 173.95 162.86 173.00 162.11 172.58 C 161.35 172.16 160.40 172.44 159.98 173.19 L 159.50 174.06 C 159.08 174.81 159.36 175.76 160.11 176.18 C 160.86 176.60 161.81 176.33 162.23 175.57 Z M 162.72 174.70 L 163.20 173.83 C 163.61 173.07 163.34 172.12 162.58 171.71 C 161.83 171.29 160.88 171.57 160.46 172.32 L 159.98 173.20 C 159.57 173.95 159.84 174.90 160.60 175.32 C 161.35 175.73 162.30 175.46 162.72 174.70 Z M 163.20 173.82 L 163.68 172.94 C 164.10 172.18 163.82 171.24 163.06 170.82 C 162.30 170.41 161.36 170.69 160.94 171.44 L 160.46 172.32 C 160.05 173.08 160.33 174.03 161.08 174.44 C 161.84 174.86 162.79 174.58 163.20 173.82 Z M 163.68 172.94 L 164.16 172.05 C 164.58 171.30 164.30 170.35 163.54 169.94 C 162.78 169.52 161.83 169.80 161.42 170.56 L 160.94 171.45 C 160.53 172.20 160.81 173.15 161.57 173.56 C 162.32 173.98 163.27 173.70 163.68 172.94 Z M 164.17 172.05 L 164.65 171.16 C 165.06 170.41 164.78 169.46 164.02 169.05 C 163.26 168.64 162.31 168.92 161.90 169.68 L 161.42 170.56 C 161.01 171.32 161.29 172.27 162.05 172.68 C 162.81 173.09 163.75 172.81 164.17 172.05 Z M 164.65 171.16 L 165.13 170.28 C 165.54 169.52 165.26 168.57 164.50 168.16 C 163.74 167.75 162.79 168.03 162.38 168.79 L 161.90 169.68 C 161.49 170.44 161.77 171.38 162.53 171.79 C 163.29 172.20 164.24 171.92 164.65 171.16 Z M 165.13 170.27 L 165.61 169.39 C 166.02 168.63 165.74 167.68 164.98 167.27 C 164.22 166.86 163.27 167.14 162.86 167.90 L 162.38 168.79 C 161.97 169.55 162.25 170.49 163.01 170.90 C 163.77 171.32 164.72 171.03 165.13 170.27 Z M 165.61 169.38 L 166.09 168.50 C 166.50 167.74 166.22 166.79 165.46 166.38 C 164.70 165.97 163.75 166.25 163.34 167.01 L 162.86 167.90 C 162.45 168.66 162.74 169.61 163.50 170.02 C 164.25 170.43 165.20 170.14 165.61 169.38 Z M 166.09 168.49 L 166.57 167.61 C 166.98 166.85 166.69 165.90 165.93 165.49 C 165.17 165.08 164.23 165.37 163.82 166.13 L 163.34 167.02 C 162.93 167.77 163.22 168.72 163.98 169.13 C 164.74 169.54 165.68 169.25 166.09 168.49 Z M 166.57 167.60 L 167.04 166.72 C 167.45 165.96 167.16 165.01 166.40 164.61 C 165.64 164.20 164.69 164.49 164.29 165.25 L 163.82 166.13 C 163.41 166.89 163.70 167.84 164.46 168.25 C 165.22 168.65 166.16 168.36 166.57 167.60 Z M 167.05 166.71 L 167.51 165.83 C 167.91 165.07 167.62 164.12 166.86 163.72 C 166.10 163.32 165.15 163.61 164.75 164.37 L 164.29 165.25 C 163.88 166.02 164.17 166.96 164.94 167.36 C 165.70 167.77 166.64 167.48 167.05 166.71 Z M 167.51 165.82 L 167.97 164.95 C 168.37 164.18 168.08 163.24 167.31 162.84 C 166.55 162.44 165.61 162.74 165.21 163.50 L 164.75 164.38 C 164.35 165.14 164.64 166.09 165.41 166.49 C 166.17 166.88 167.12 166.59 167.51 165.82 Z M 167.98 164.94 L 168.43 164.07 C 168.82 163.30 168.52 162.36 167.76 161.96 C 166.99 161.57 166.05 161.87 165.65 162.64 L 165.20 163.51 C 164.81 164.28 165.11 165.22 165.88 165.61 C 166.64 166.01 167.58 165.71 167.98 164.94 Z M 168.43 164.06 L 168.89 163.16 C 169.28 162.39 168.97 161.45 168.20 161.06 C 167.43 160.67 166.49 160.98 166.10 161.74 L 165.65 162.64 C 165.26 163.41 165.57 164.35 166.33 164.74 C 167.10 165.13 168.04 164.82 168.43 164.06 Z M 168.89 163.15 L 169.34 162.25 C 169.73 161.48 169.41 160.54 168.64 160.15 C 167.87 159.77 166.93 160.08 166.55 160.85 L 166.10 161.75 C 165.71 162.52 166.03 163.46 166.80 163.85 C 167.57 164.23 168.51 163.92 168.89 163.15 Z M 169.35 162.24 L 169.79 161.34 C 170.17 160.57 169.85 159.64 169.07 159.25 C 168.30 158.87 167.36 159.19 166.98 159.97 L 166.54 160.86 C 166.16 161.64 166.48 162.57 167.26 162.95 C 168.03 163.33 168.96 163.01 169.35 162.24 Z M 169.79 161.34 L 170.22 160.44 C 170.60 159.67 170.28 158.73 169.50 158.36 C 168.73 157.98 167.79 158.30 167.42 159.08 L 166.98 159.97 C 166.60 160.75 166.93 161.68 167.70 162.06 C 168.48 162.44 169.41 162.11 169.79 161.34 Z M 170.23 160.44 L 170.66 159.54 C 171.03 158.77 170.71 157.83 169.93 157.46 C 169.15 157.08 168.22 157.41 167.85 158.19 L 167.41 159.08 C 167.04 159.86 167.37 160.79 168.14 161.17 C 168.92 161.54 169.85 161.22 170.23 160.44 Z M 170.66 159.54 L 171.09 158.64 C 171.46 157.86 171.14 156.93 170.36 156.56 C 169.58 156.19 168.65 156.51 168.28 157.29 L 167.85 158.19 C 167.47 158.97 167.80 159.90 168.58 160.27 C 169.35 160.65 170.29 160.32 170.66 159.54 Z M 171.09 158.64 L 171.52 157.74 C 171.90 156.96 171.57 156.03 170.79 155.65 C 170.01 155.28 169.08 155.61 168.71 156.39 L 168.28 157.29 C 167.90 158.07 168.23 159.00 169.01 159.37 C 169.79 159.75 170.72 159.42 171.09 158.64 Z M 171.52 157.74 L 171.97 156.80 C 172.35 156.02 172.02 155.09 171.24 154.71 C 170.46 154.34 169.53 154.67 169.16 155.45 L 168.71 156.39 C 168.34 157.17 168.67 158.10 169.44 158.47 C 170.22 158.84 171.15 158.51 171.52 157.74 Z M 171.98 156.79 L 172.42 155.85 C 172.79 155.08 172.46 154.14 171.68 153.77 C 170.91 153.40 169.97 153.73 169.60 154.51 L 169.16 155.45 C 168.79 156.23 169.12 157.16 169.90 157.53 C 170.67 157.90 171.61 157.57 171.98 156.79 Z M 172.42 155.85 L 172.86 154.92 C 173.23 154.14 172.90 153.21 172.12 152.84 C 171.34 152.47 170.41 152.81 170.04 153.59 L 169.60 154.52 C 169.23 155.30 169.57 156.23 170.35 156.60 C 171.13 156.96 172.06 156.63 172.42 155.85 Z M 172.87 154.91 L 173.29 153.99 C 173.66 153.21 173.32 152.28 172.53 151.92 C 171.75 151.56 170.82 151.90 170.46 152.68 L 170.04 153.60 C 169.67 154.38 170.01 155.31 170.79 155.67 C 171.58 156.03 172.50 155.69 172.87 154.91 Z M 173.30 153.98 L 173.70 153.09 C 174.06 152.30 173.71 151.38 172.93 151.02 C 172.14 150.66 171.22 151.01 170.86 151.80 L 170.45 152.69 C 170.10 153.48 170.45 154.40 171.23 154.76 C 172.02 155.11 172.94 154.77 173.30 153.98 Z M 173.71 153.07 L 174.09 152.20 C 174.44 151.42 174.08 150.49 173.29 150.15 C 172.51 149.80 171.58 150.16 171.24 150.95 L 170.85 151.81 C 170.51 152.60 170.86 153.52 171.65 153.87 C 172.44 154.22 173.36 153.86 173.71 153.07 Z M 174.10 152.18 L 174.50 151.25 C 174.83 150.46 174.46 149.54 173.66 149.21 C 172.87 148.87 171.95 149.24 171.62 150.04 L 171.23 150.97 C 170.89 151.76 171.26 152.68 172.06 153.01 C 172.85 153.35 173.77 152.98 174.10 152.18 Z M 174.51 151.22 L 174.92 150.20 C 175.23 149.40 174.84 148.49 174.04 148.17 C 173.24 147.85 172.33 148.24 172.01 149.04 L 171.61 150.07 C 171.29 150.87 171.68 151.78 172.48 152.10 C 173.28 152.41 174.19 152.02 174.51 151.22 Z M 174.93 150.17 L 175.29 149.20 C 175.59 148.39 175.18 147.49 174.37 147.19 C 173.56 146.89 172.66 147.30 172.36 148.11 L 172.00 149.08 C 171.70 149.89 172.11 150.78 172.92 151.09 C 173.73 151.39 174.63 150.97 174.93 150.17 Z M 175.30 149.17 L 175.62 148.25 C 175.90 147.44 175.47 146.55 174.65 146.26 C 173.84 145.98 172.95 146.41 172.67 147.23 L 172.35 148.14 C 172.07 148.96 172.50 149.85 173.31 150.13 C 174.13 150.41 175.02 149.98 175.30 149.17 Z M 175.63 148.22 L 175.91 147.34 C 176.18 146.52 175.72 145.64 174.90 145.38 C 174.08 145.11 173.20 145.56 172.94 146.39 L 172.66 147.26 C 172.39 148.08 172.84 148.96 173.66 149.22 C 174.48 149.49 175.36 149.04 175.63 148.22 Z M 175.92 147.31 L 176.19 146.43 C 176.43 145.60 175.97 144.73 175.14 144.48 C 174.31 144.24 173.44 144.70 173.20 145.53 L 172.93 146.42 C 172.68 147.24 173.15 148.11 173.98 148.36 C 174.80 148.61 175.67 148.14 175.92 147.31 Z M 176.20 146.39 L 176.46 145.42 C 176.68 144.59 176.19 143.73 175.36 143.51 C 174.53 143.28 173.67 143.77 173.44 144.61 L 173.18 145.57 C 172.96 146.40 173.45 147.26 174.28 147.49 C 175.12 147.71 175.97 147.22 176.20 146.39 Z M 176.48 145.35 L 176.69 144.39 C 176.87 143.55 176.34 142.72 175.49 142.53 C 174.65 142.35 173.82 142.88 173.64 143.72 L 173.43 144.68 C 173.24 145.52 173.78 146.35 174.62 146.54 C 175.46 146.72 176.29 146.19 176.48 145.35 Z M 176.70 144.29 L 176.85 143.31 C 176.98 142.46 176.39 141.66 175.54 141.54 C 174.69 141.41 173.89 142.00 173.76 142.85 L 173.62 143.82 C 173.49 144.68 174.08 145.47 174.93 145.60 C 175.78 145.73 176.58 145.14 176.70 144.29 Z M 176.86 143.19 L 176.94 142.17 C 177.00 141.31 176.35 140.56 175.49 140.50 C 174.63 140.44 173.88 141.09 173.82 141.95 L 173.75 142.97 C 173.69 143.83 174.34 144.58 175.20 144.64 C 176.06 144.70 176.80 144.05 176.86 143.19 Z M 176.94 142.04 L 176.93 141.06 C 176.91 140.20 176.20 139.51 175.34 139.53 C 174.48 139.54 173.79 140.25 173.80 141.11 L 173.82 142.08 C 173.83 142.94 174.54 143.63 175.40 143.62 C 176.26 143.61 176.95 142.90 176.94 142.04 Z M 176.91 140.90 L 176.80 139.91 C 176.69 139.05 175.92 138.44 175.06 138.55 C 174.20 138.65 173.59 139.42 173.70 140.28 L 173.81 141.27 C 173.92 142.13 174.69 142.74 175.55 142.64 C 176.41 142.53 177.02 141.76 176.91 140.90 Z M 176.76 139.70 L 176.50 138.73 C 176.28 137.89 175.42 137.40 174.59 137.62 C 173.76 137.84 173.26 138.69 173.48 139.53 L 173.74 140.50 C 173.96 141.33 174.81 141.83 175.65 141.60 C 176.48 141.38 176.98 140.53 176.76 139.70 Z M 176.40 138.46 L 175.97 137.56 C 175.60 136.78 174.67 136.44 173.89 136.81 C 173.11 137.18 172.78 138.11 173.15 138.89 L 173.58 139.80 C 173.95 140.58 174.88 140.91 175.66 140.54 C 176.44 140.17 176.77 139.24 176.40 138.46 Z M 175.79 137.26 L 175.17 136.48 C 174.64 135.80 173.66 135.69 172.98 136.22 C 172.30 136.75 172.19 137.73 172.72 138.41 L 173.34 139.19 C 173.87 139.87 174.85 139.98 175.53 139.45 C 176.20 138.92 176.32 137.94 175.79 137.26 Z M 174.94 136.24 L 174.19 135.63 C 173.53 135.08 172.54 135.18 172.00 135.84 C 171.45 136.51 171.55 137.49 172.21 138.04 L 172.96 138.65 C 173.62 139.20 174.61 139.10 175.15 138.44 C 175.70 137.77 175.60 136.79 174.94 136.24 Z M 173.99 135.49 L 173.12 134.98 C 172.38 134.54 171.42 134.79 170.99 135.54 C 170.55 136.28 170.80 137.24 171.55 137.67 L 172.41 138.18 C 173.16 138.62 174.11 138.37 174.55 137.62 C 174.99 136.88 174.74 135.92 173.99 135.49 Z M 172.96 134.90 L 172.02 134.48 C 171.23 134.14 170.31 134.50 169.96 135.29 C 169.61 136.08 169.97 137.00 170.76 137.34 L 171.71 137.76 C 172.50 138.10 173.42 137.74 173.76 136.95 C 174.11 136.16 173.75 135.24 172.96 134.90 Z M 171.88 134.43 L 170.91 134.11 C 170.10 133.83 169.21 134.28 168.94 135.09 C 168.67 135.91 169.11 136.80 169.93 137.07 L 170.90 137.39 C 171.71 137.67 172.60 137.22 172.87 136.41 C 173.14 135.59 172.70 134.70 171.88 134.43 Z M 170.80 134.08 L 169.85 133.83 C 169.02 133.62 168.17 134.13 167.96 134.96 C 167.74 135.80 168.25 136.65 169.09 136.86 L 170.03 137.10 C 170.87 137.31 171.72 136.81 171.93 135.97 C 172.14 135.14 171.64 134.29 170.80 134.08 Z M 169.74 133.81 L 168.66 133.62 C 167.81 133.47 167.00 134.03 166.85 134.88 C 166.70 135.73 167.26 136.54 168.11 136.69 L 169.20 136.88 C 170.05 137.04 170.86 136.47 171.01 135.62 C 171.16 134.77 170.59 133.96 169.74 133.81 Z M 168.53 133.60 L 167.53 133.51 C 166.67 133.42 165.91 134.05 165.83 134.91 C 165.74 135.77 166.37 136.53 167.23 136.61 L 168.24 136.71 C 169.10 136.79 169.86 136.16 169.94 135.30 C 170.02 134.44 169.39 133.68 168.53 133.60 Z M 167.41 133.50 L 166.45 133.48 C 165.59 133.47 164.88 134.15 164.86 135.02 C 164.85 135.88 165.53 136.59 166.40 136.60 L 167.35 136.62 C 168.22 136.64 168.93 135.95 168.94 135.09 C 168.96 134.22 168.27 133.51 167.41 133.50 Z M 166.35 133.48 L 165.41 133.53 C 164.55 133.57 163.88 134.30 163.92 135.16 C 163.96 136.02 164.69 136.69 165.55 136.65 L 166.49 136.60 C 167.36 136.56 168.02 135.83 167.98 134.97 C 167.94 134.11 167.21 133.44 166.35 133.48 Z M 165.34 133.53 L 164.39 133.62 C 163.53 133.70 162.90 134.46 162.97 135.31 C 163.05 136.17 163.81 136.81 164.67 136.73 L 165.62 136.64 C 166.48 136.56 167.11 135.80 167.04 134.95 C 166.96 134.09 166.20 133.45 165.34 133.53 Z M 164.33 133.63 L 163.36 133.75 C 162.50 133.86 161.90 134.64 162.01 135.50 C 162.12 136.35 162.90 136.96 163.76 136.85 L 164.73 136.72 C 165.58 136.61 166.19 135.83 166.08 134.97 C 165.97 134.12 165.18 133.51 164.33 133.63 Z M 163.29 133.76 L 162.30 133.93 C 161.45 134.07 160.88 134.88 161.03 135.73 C 161.17 136.58 161.98 137.15 162.83 137.01 L 163.82 136.84 C 164.67 136.69 165.24 135.89 165.09 135.04 C 164.95 134.19 164.14 133.62 163.29 133.76 Z M 162.24 133.94 L 161.24 134.15 C 160.40 134.33 159.86 135.16 160.04 136.01 C 160.22 136.85 161.05 137.39 161.89 137.21 L 162.89 136.99 C 163.74 136.81 164.27 135.98 164.09 135.14 C 163.91 134.30 163.08 133.76 162.24 133.94 Z M 161.17 134.17 L 160.19 134.42 C 159.36 134.64 158.86 135.49 159.07 136.33 C 159.29 137.16 160.14 137.66 160.98 137.45 L 161.96 137.19 C 162.79 136.98 163.29 136.12 163.08 135.29 C 162.86 134.45 162.01 133.95 161.17 134.17 Z M 160.13 134.44 L 159.18 134.73 C 158.36 134.98 157.89 135.85 158.14 136.68 C 158.39 137.50 159.27 137.97 160.09 137.72 L 161.04 137.43 C 161.86 137.18 162.33 136.31 162.08 135.48 C 161.83 134.66 160.96 134.19 160.13 134.44 Z M 159.13 134.75 L 158.18 135.08 C 157.36 135.36 156.93 136.25 157.21 137.06 C 157.49 137.88 158.38 138.31 159.20 138.03 L 160.15 137.70 C 160.96 137.42 161.39 136.53 161.11 135.71 C 160.83 134.90 159.94 134.47 159.13 134.75 Z M 158.13 135.09 L 157.19 135.46 C 156.38 135.77 155.98 136.67 156.29 137.47 C 156.60 138.28 157.50 138.68 158.31 138.37 L 159.25 138.01 C 160.05 137.70 160.46 136.80 160.15 135.99 C 159.84 135.19 158.93 134.78 158.13 135.09 Z M 157.14 135.48 L 156.21 135.87 C 155.42 136.20 155.05 137.12 155.38 137.91 C 155.72 138.71 156.64 139.08 157.43 138.74 L 158.36 138.35 C 159.15 138.02 159.52 137.10 159.19 136.31 C 158.85 135.51 157.93 135.14 157.14 135.48 Z M 156.17 135.89 L 155.26 136.31 C 154.47 136.67 154.13 137.59 154.49 138.38 C 154.85 139.16 155.78 139.50 156.56 139.14 L 157.47 138.72 C 158.26 138.36 158.60 137.44 158.24 136.65 C 157.88 135.87 156.95 135.53 156.17 135.89 Z M 155.22 136.33 L 154.32 136.77 C 153.55 137.15 153.23 138.09 153.62 138.86 C 154.00 139.63 154.94 139.95 155.71 139.57 L 156.60 139.12 C 157.38 138.74 157.69 137.80 157.31 137.03 C 156.93 136.26 155.99 135.94 155.22 136.33 Z M 154.28 136.79 L 153.40 137.26 C 152.64 137.66 152.35 138.60 152.75 139.37 C 153.16 140.13 154.10 140.42 154.86 140.02 L 155.74 139.55 C 156.51 139.14 156.80 138.20 156.39 137.44 C 155.99 136.68 155.05 136.39 154.28 136.79 Z M 153.37 137.27 L 152.50 137.76 C 151.75 138.18 151.48 139.14 151.90 139.89 C 152.32 140.64 153.27 140.91 154.03 140.49 L 154.90 140.00 C 155.65 139.58 155.92 138.62 155.49 137.87 C 155.07 137.12 154.12 136.85 153.37 137.27 Z M 152.47 137.78 L 151.61 138.28 C 150.87 138.72 150.62 139.68 151.06 140.42 C 151.50 141.16 152.46 141.41 153.20 140.97 L 154.05 140.47 C 154.80 140.03 155.04 139.07 154.61 138.33 C 154.17 137.59 153.21 137.34 152.47 137.78 Z M 151.59 138.30 L 150.75 138.81 C 150.02 139.26 149.79 140.22 150.24 140.96 C 150.69 141.69 151.65 141.92 152.38 141.47 L 153.22 140.96 C 153.96 140.51 154.19 139.55 153.74 138.81 C 153.29 138.08 152.33 137.85 151.59 138.30 Z M 150.74 138.82 L 149.90 139.35 C 149.17 139.81 148.95 140.77 149.41 141.50 C 149.87 142.23 150.83 142.45 151.56 141.99 L 152.40 141.46 C 153.13 141.00 153.35 140.04 152.89 139.31 C 152.43 138.58 151.47 138.36 150.74 138.82 Z M 149.89 139.36 L 149.04 139.90 C 148.32 140.36 148.10 141.33 148.57 142.05 C 149.03 142.78 150.00 142.99 150.72 142.53 L 151.57 141.99 C 152.30 141.52 152.51 140.56 152.04 139.83 C 151.58 139.10 150.61 138.89 149.89 139.36 Z M 149.04 139.90 L 148.18 140.45 C 147.46 140.92 147.25 141.88 147.71 142.61 C 148.18 143.33 149.14 143.54 149.87 143.08 L 150.73 142.53 C 151.45 142.06 151.66 141.10 151.20 140.37 C 150.73 139.64 149.76 139.43 149.04 139.90 Z M 148.19 140.45 L 147.33 140.99 C 146.60 141.46 146.39 142.42 146.86 143.15 C 147.32 143.88 148.28 144.09 149.01 143.63 L 149.87 143.08 C 150.59 142.62 150.81 141.65 150.34 140.92 C 149.88 140.20 148.91 139.98 148.19 140.45 Z M 147.33 140.99 L 146.48 141.54 C 145.75 142.00 145.54 142.97 146.00 143.70 C 146.46 144.42 147.43 144.64 148.16 144.17 L 149.01 143.63 C 149.74 143.16 149.95 142.20 149.49 141.47 C 149.02 140.74 148.06 140.53 147.33 140.99 Z M 146.47 141.55 L 145.62 142.10 C 144.89 142.56 144.69 143.53 145.16 144.25 C 145.62 144.98 146.59 145.19 147.31 144.72 L 148.16 144.17 C 148.89 143.70 149.09 142.73 148.63 142.01 C 148.16 141.28 147.19 141.08 146.47 141.55 Z M 145.60 142.11 L 144.77 142.66 C 144.05 143.14 143.86 144.10 144.33 144.82 C 144.81 145.54 145.78 145.74 146.50 145.26 L 147.33 144.71 C 148.05 144.23 148.24 143.26 147.77 142.54 C 147.29 141.82 146.32 141.63 145.60 142.11 Z M 144.75 142.68 L 143.95 143.23 C 143.24 143.72 143.06 144.69 143.55 145.40 C 144.04 146.11 145.02 146.29 145.73 145.80 L 146.52 145.24 C 147.23 144.75 147.41 143.78 146.92 143.07 C 146.43 142.36 145.45 142.18 144.75 142.68 Z M 143.91 143.25 L 143.07 143.87 C 142.38 144.38 142.23 145.36 142.74 146.05 C 143.25 146.75 144.23 146.90 144.92 146.39 L 145.76 145.77 C 146.46 145.26 146.60 144.28 146.09 143.59 C 145.58 142.89 144.61 142.74 143.91 143.25 Z M 143.04 143.90 L 142.24 144.52 C 141.56 145.05 141.44 146.03 141.97 146.71 C 142.50 147.39 143.48 147.51 144.16 146.98 L 144.96 146.36 C 145.64 145.83 145.76 144.85 145.23 144.17 C 144.70 143.49 143.72 143.37 143.04 143.90 Z M 142.21 144.54 L 141.45 145.17 C 140.78 145.71 140.68 146.70 141.23 147.37 C 141.78 148.03 142.76 148.13 143.43 147.58 L 144.19 146.96 C 144.86 146.41 144.95 145.43 144.41 144.76 C 143.86 144.09 142.88 144.00 142.21 144.54 Z M 141.43 145.19 L 140.69 145.82 C 140.03 146.38 139.95 147.36 140.51 148.02 C 141.07 148.67 142.06 148.75 142.71 148.19 L 143.45 147.56 C 144.11 147.00 144.19 146.02 143.63 145.36 C 143.07 144.71 142.08 144.63 141.43 145.19 Z M 140.67 145.83 L 139.96 146.45 C 139.32 147.02 139.25 148.00 139.82 148.65 C 140.39 149.30 141.37 149.37 142.02 148.80 L 142.73 148.18 C 143.38 147.61 143.44 146.63 142.87 145.98 C 142.31 145.33 141.32 145.26 140.67 145.83 Z M 139.95 146.47 L 139.25 147.10 C 138.61 147.67 138.56 148.66 139.14 149.30 C 139.72 149.94 140.70 149.99 141.34 149.41 L 142.04 148.78 C 142.68 148.20 142.73 147.22 142.15 146.58 C 141.57 145.94 140.59 145.89 139.95 146.47 Z M 139.22 147.12 L 138.51 147.79 C 137.89 148.38 137.86 149.37 138.45 150.00 C 139.04 150.63 140.03 150.65 140.66 150.06 L 141.37 149.39 C 141.99 148.80 142.02 147.81 141.43 147.18 C 140.84 146.56 139.85 146.53 139.22 147.12 Z M 138.48 147.82 L 137.75 148.55 C 137.14 149.16 137.14 150.15 137.74 150.76 C 138.35 151.37 139.34 151.37 139.95 150.76 L 140.69 150.03 C 141.30 149.42 141.30 148.43 140.69 147.82 C 140.08 147.21 139.09 147.21 138.48 147.82 Z M 137.72 148.59 L 136.98 149.36 C 136.39 149.99 136.41 150.98 137.04 151.57 C 137.66 152.16 138.65 152.14 139.25 151.51 L 139.98 150.73 C 140.58 150.11 140.55 149.12 139.92 148.53 C 139.30 147.93 138.31 147.96 137.72 148.59 Z M 136.95 149.39 L 136.34 150.07 C 135.76 150.71 135.81 151.70 136.45 152.28 C 137.09 152.86 138.08 152.81 138.65 152.17 L 139.27 151.48 C 139.85 150.85 139.80 149.86 139.16 149.28 C 138.52 148.70 137.53 148.75 136.95 149.39 Z M 136.32 150.09 L 135.68 150.82 C 135.12 151.47 135.18 152.45 135.83 153.02 C 136.48 153.59 137.46 153.52 138.03 152.88 L 138.67 152.15 C 139.24 151.50 139.17 150.51 138.52 149.95 C 137.88 149.38 136.89 149.44 136.32 150.09 Z M 135.67 150.83 L 135.02 151.59 C 134.46 152.25 134.53 153.24 135.19 153.80 C 135.84 154.36 136.83 154.28 137.39 153.63 L 138.04 152.86 C 138.60 152.21 138.53 151.22 137.87 150.66 C 137.22 150.10 136.23 150.18 135.67 150.83 Z M 135.01 151.60 L 134.34 152.39 C 133.79 153.05 133.87 154.04 134.53 154.59 C 135.19 155.15 136.17 155.07 136.73 154.41 L 137.40 153.62 C 137.95 152.96 137.87 151.97 137.21 151.42 C 136.55 150.86 135.57 150.95 135.01 151.60 Z M 134.34 152.40 L 133.66 153.21 C 133.11 153.87 133.20 154.85 133.86 155.41 C 134.52 155.96 135.50 155.87 136.06 155.21 L 136.73 154.40 C 137.29 153.74 137.20 152.76 136.54 152.20 C 135.88 151.65 134.89 151.74 134.34 152.40 Z M 133.66 153.21 L 133.20 153.76 C 132.65 154.42 132.74 155.41 133.40 155.96 C 134.06 156.51 135.05 156.42 135.60 155.76 L 136.06 155.21 C 136.61 154.55 136.52 153.56 135.86 153.01 C 135.20 152.46 134.21 152.55 133.66 153.21 Z"
      fill="black"
      fill-rule="nonzero" /></svg>