<svg xmlns="http://www.w3.org/2000/svg" width="300" height="300" viewBox="0 0 300 300">
<path d="M 73.20 81.75 L 72.09 81.15 C 71.33 80.74 70.38 81.03 69.98 81.79 C 69.57 82.55 69.86 83.50 70.62 83.90 L 71.73 84.50 C 72.49 84.91 73.43 84.62 73.84 83.86 C 74.25 83.10 73.96 82.16 73.20 81.75 Z M 71.87 81.06 L 70.95 80.73 C 70.13 80.44 69.24 80.86 68.95 81.68 C 68.66 82.49 69.09 83.38 69.90 83.67 L 70.83 84.00 C 71.64 84.29 72.54 83.86 72.82 83.05 C 73.11 82.24 72.69 81.34 71.87 81.06 Z M 69.91 80.72 L 69.36 80.92 C 68.55 81.20 68.12 82.09 68.40 82.90 C 68.68 83.72 69.57 84.15 70.39 83.86 L 70.94 83.67 C 71.75 83.39 72.18 82.50 71.90 81.69 C 71.62 80.87 70.73 80.44 69.91 80.72 Z M 68.34 82.13 L 68.23 82.73 C 68.09 83.58 68.66 84.39 69.51 84.53 C 70.36 84.68 71.17 84.10 71.31 83.25 L 71.41 82.65 C 71.56 81.80 70.99 80.99 70.14 80.85 C 69.29 80.71 68.48 81.28 68.34 82.13 Z M 68.23 83.25 L 68.39 84.17 C 68.53 85.02 69.33 85.60 70.18 85.46 C 71.03 85.32 71.61 84.51 71.47 83.66 L 71.31 82.74 C 71.17 81.89 70.37 81.31 69.52 81.45 C 68.67 81.59 68.09 82.40 68.23 83.25 Z M 68.44 84.39 L 68.80 85.54 C 69.06 86.36 69.94 86.81 70.76 86.55 C 71.59 86.29 72.04 85.41 71.78 84.59 L 71.41 83.44 C 71.15 82.62 70.27 82.17 69.45 82.43 C 68.63 82.69 68.18 83.57 68.44 84.39 Z M 68.85 85.66 L 69.34 86.83 C 69.67 87.63 70.59 88.00 71.38 87.67 C 72.18 87.33 72.55 86.42 72.22 85.62 L 71.73 84.46 C 71.40 83.66 70.48 83.29 69.69 83.62 C 68.89 83.95 68.52 84.87 68.85 85.66 Z M 69.38 86.91 L 69.83 87.83 C 70.21 88.60 71.14 88.92 71.91 88.54 C 72.69 88.16 73.01 87.23 72.63 86.45 L 72.18 85.54 C 71.80 84.76 70.86 84.45 70.09 84.82 C 69.32 85.20 69.00 86.14 69.38 86.91 Z M 69.85 87.88 L 70.35 88.79 C 70.76 89.55 71.70 89.83 72.46 89.42 C 73.22 89.01 73.50 88.06 73.09 87.31 L 72.60 86.40 C 72.19 85.64 71.24 85.36 70.48 85.77 C 69.73 86.18 69.44 87.12 69.85 87.88 Z M 70.37 88.83 L 70.89 89.72 C 71.32 90.47 72.27 90.72 73.02 90.29 C 73.77 89.85 74.02 88.90 73.58 88.15 L 73.07 87.26 C 72.63 86.52 71.68 86.27 70.93 86.70 C 70.19 87.13 69.94 88.09 70.37 88.83 Z M 70.91 89.75 L 71.43 90.60 C 71.88 91.34 72.84 91.57 73.57 91.12 C 74.31 90.66 74.54 89.70 74.09 88.97 L 73.57 88.12 C 73.11 87.38 72.15 87.16 71.42 87.61 C 70.68 88.06 70.45 89.02 70.91 89.75 Z M 71.44 90.63 L 71.95 91.42 C 72.42 92.15 73.38 92.36 74.11 91.89 C 74.83 91.43 75.05 90.46 74.58 89.74 L 74.07 88.94 C 73.61 88.22 72.64 88.01 71.91 88.47 C 71.19 88.94 70.98 89.90 71.44 90.63 Z M 71.97 91.44 L 72.57 92.35 C 73.04 93.07 74.01 93.26 74.73 92.79 C 75.45 92.31 75.64 91.34 75.17 90.62 L 74.57 89.72 C 74.09 89.00 73.12 88.80 72.40 89.28 C 71.68 89.76 71.49 90.73 71.97 91.44 Z M 72.58 92.37 L 73.17 93.22 C 73.66 93.93 74.63 94.10 75.34 93.61 C 76.05 93.12 76.23 92.15 75.73 91.44 L 75.15 90.60 C 74.66 89.89 73.69 89.71 72.98 90.20 C 72.27 90.69 72.09 91.66 72.58 92.37 Z M 73.18 93.24 L 73.74 94.02 C 74.25 94.72 75.22 94.88 75.92 94.37 C 76.62 93.87 76.78 92.89 76.28 92.19 L 75.72 91.42 C 75.21 90.72 74.24 90.56 73.54 91.06 C 72.84 91.57 72.68 92.54 73.18 93.24 Z M 73.76 94.04 L 74.31 94.78 C 74.83 95.48 75.81 95.62 76.50 95.10 C 77.19 94.59 77.33 93.61 76.82 92.92 L 76.26 92.17 C 75.75 91.48 74.77 91.34 74.08 91.85 C 73.39 92.37 73.24 93.35 73.76 94.04 Z M 74.33 94.80 L 74.90 95.54 C 75.42 96.23 76.40 96.36 77.08 95.84 C 77.77 95.31 77.90 94.33 77.38 93.65 L 76.81 92.90 C 76.28 92.22 75.30 92.09 74.62 92.61 C 73.93 93.13 73.80 94.11 74.33 94.80 Z M 74.91 95.56 L 75.50 96.32 C 76.03 97.00 77.01 97.12 77.69 96.59 C 78.37 96.06 78.49 95.08 77.96 94.40 L 77.37 93.64 C 76.84 92.96 75.86 92.84 75.18 93.37 C 74.50 93.90 74.37 94.88 74.91 95.56 Z M 75.51 96.33 L 76.13 97.12 C 76.67 97.79 77.65 97.90 78.33 97.36 C 79.00 96.83 79.11 95.85 78.58 95.17 L 77.95 94.39 C 77.41 93.71 76.43 93.60 75.76 94.14 C 75.08 94.67 74.97 95.66 75.51 96.33 Z M 76.14 97.13 L 76.80 97.94 C 77.35 98.61 78.33 98.71 79.00 98.17 C 79.67 97.62 79.77 96.64 79.23 95.97 L 78.57 95.16 C 78.02 94.49 77.04 94.39 76.37 94.93 C 75.70 95.48 75.60 96.46 76.14 97.13 Z M 76.81 97.95 L 77.44 98.71 C 77.99 99.38 78.98 99.47 79.64 98.92 C 80.31 98.37 80.40 97.39 79.85 96.72 L 79.22 95.96 C 78.67 95.29 77.68 95.20 77.02 95.75 C 76.35 96.30 76.26 97.29 76.81 97.95 Z M 77.45 98.72 L 78.07 99.46 C 78.62 100.12 79.61 100.21 80.27 99.65 C 80.93 99.10 81.02 98.11 80.46 97.45 L 79.84 96.71 C 79.29 96.05 78.30 95.97 77.64 96.52 C 76.98 97.08 76.90 98.06 77.45 98.72 Z M 78.07 99.46 L 78.72 100.22 C 79.27 100.88 80.26 100.96 80.92 100.41 C 81.57 99.85 81.66 98.86 81.10 98.21 L 80.46 97.45 C 79.90 96.79 78.92 96.71 78.26 97.26 C 77.60 97.82 77.52 98.81 78.07 99.46 Z M 78.72 100.23 L 79.38 101.00 C 79.94 101.66 80.92 101.74 81.58 101.18 C 82.24 100.63 82.32 99.64 81.76 98.98 L 81.10 98.20 C 80.54 97.55 79.55 97.47 78.90 98.02 C 78.24 98.58 78.16 99.57 78.72 100.23 Z M 79.38 101.00 L 80.06 101.80 C 80.61 102.46 81.60 102.54 82.26 101.98 C 82.91 101.42 82.99 100.44 82.44 99.78 L 81.76 98.98 C 81.20 98.33 80.22 98.25 79.56 98.80 C 78.90 99.36 78.82 100.35 79.38 101.00 Z M 80.05 101.80 L 80.69 102.55 C 81.25 103.21 82.23 103.29 82.89 102.73 C 83.55 102.17 83.63 101.19 83.07 100.53 L 82.44 99.78 C 81.88 99.12 80.90 99.04 80.24 99.60 C 79.58 100.16 79.50 101.14 80.05 101.80 Z M 80.69 102.55 L 81.32 103.29 C 81.87 103.95 82.86 104.03 83.52 103.48 C 84.18 102.92 84.26 101.93 83.70 101.28 L 83.07 100.53 C 82.52 99.87 81.53 99.79 80.87 100.35 C 80.21 100.90 80.13 101.89 80.69 102.55 Z M 81.32 103.29 L 81.96 104.05 C 82.52 104.71 83.50 104.79 84.16 104.23 C 84.82 103.67 84.90 102.69 84.34 102.03 L 83.70 101.27 C 83.14 100.62 82.16 100.54 81.50 101.09 C 80.84 101.65 80.76 102.64 81.32 103.29 Z M 81.96 104.06 L 82.62 104.82 C 83.18 105.48 84.17 105.56 84.82 105.00 C 85.48 104.44 85.55 103.45 84.99 102.80 L 84.34 102.03 C 83.78 101.37 82.79 101.29 82.14 101.85 C 81.48 102.41 81.40 103.40 81.96 104.06 Z M 82.62 104.83 L 83.30 105.61 C 83.86 106.26 84.85 106.33 85.50 105.77 C 86.15 105.21 86.22 104.22 85.66 103.57 L 84.99 102.79 C 84.43 102.14 83.44 102.06 82.79 102.63 C 82.13 103.19 82.06 104.18 82.62 104.83 Z M 83.30 105.62 L 83.96 106.37 C 84.53 107.02 85.52 107.09 86.17 106.52 C 86.82 105.95 86.88 104.97 86.31 104.32 L 85.65 103.56 C 85.09 102.91 84.10 102.85 83.45 103.41 C 82.80 103.98 82.74 104.97 83.30 105.62 Z M 83.97 106.38 L 84.60 107.10 C 85.17 107.74 86.16 107.80 86.81 107.23 C 87.45 106.66 87.51 105.67 86.94 105.03 L 86.31 104.31 C 85.74 103.66 84.75 103.60 84.11 104.17 C 83.46 104.75 83.40 105.73 83.97 106.38 Z M 84.61 107.10 L 85.26 107.83 C 85.83 108.47 86.82 108.53 87.46 107.96 C 88.10 107.38 88.16 106.40 87.59 105.75 L 86.94 105.02 C 86.37 104.38 85.38 104.32 84.73 104.90 C 84.09 105.47 84.03 106.46 84.61 107.10 Z M 85.26 107.83 L 85.92 108.57 C 86.50 109.22 87.48 109.27 88.13 108.70 C 88.77 108.12 88.82 107.13 88.25 106.49 L 87.59 105.75 C 87.01 105.11 86.02 105.05 85.38 105.63 C 84.74 106.20 84.68 107.19 85.26 107.83 Z M 85.92 108.57 L 86.60 109.33 C 87.18 109.97 88.16 110.03 88.81 109.45 C 89.45 108.88 89.50 107.89 88.93 107.25 L 88.25 106.49 C 87.67 105.85 86.69 105.79 86.04 106.37 C 85.40 106.94 85.35 107.93 85.92 108.57 Z M 86.60 109.33 L 87.29 110.11 C 87.87 110.75 88.86 110.80 89.50 110.23 C 90.14 109.66 90.20 108.67 89.62 108.03 L 88.93 107.25 C 88.35 106.61 87.37 106.55 86.72 107.13 C 86.08 107.70 86.03 108.69 86.60 109.33 Z M 87.29 110.10 L 87.97 110.87 C 88.55 111.51 89.53 111.57 90.18 111.00 C 90.82 110.43 90.88 109.44 90.31 108.79 L 89.63 108.03 C 89.05 107.38 88.07 107.33 87.42 107.90 C 86.78 108.47 86.72 109.46 87.29 110.10 Z M 87.97 110.87 L 88.62 111.61 C 89.19 112.25 90.18 112.31 90.83 111.74 C 91.47 111.17 91.53 110.18 90.96 109.54 L 90.31 108.80 C 89.74 108.15 88.75 108.09 88.11 108.66 C 87.46 109.23 87.40 110.22 87.97 110.87 Z M 88.62 111.60 L 89.28 112.36 C 89.85 113.00 90.84 113.07 91.49 112.50 C 92.13 111.93 92.20 110.94 91.63 110.29 L 90.97 109.54 C 90.40 108.89 89.41 108.83 88.76 109.40 C 88.12 109.97 88.05 110.96 88.62 111.60 Z M 89.28 112.35 L 89.95 113.11 C 90.51 113.76 91.50 113.83 92.15 113.26 C 92.80 112.69 92.86 111.70 92.29 111.06 L 91.63 110.30 C 91.06 109.65 90.08 109.58 89.43 110.15 C 88.78 110.72 88.71 111.70 89.28 112.35 Z M 89.94 113.11 L 90.61 113.87 C 91.17 114.52 92.16 114.59 92.81 114.02 C 93.46 113.46 93.53 112.47 92.96 111.82 L 92.30 111.06 C 91.73 110.41 90.74 110.34 90.09 110.91 C 89.44 111.47 89.38 112.46 89.94 113.11 Z M 90.61 113.87 L 91.27 114.63 C 91.83 115.28 92.82 115.35 93.47 114.78 C 94.12 114.22 94.19 113.23 93.62 112.58 L 92.96 111.82 C 92.40 111.17 91.41 111.10 90.76 111.67 C 90.11 112.23 90.04 113.22 90.61 113.87 Z M 91.26 114.63 L 91.92 115.38 C 92.48 116.03 93.47 116.10 94.12 115.54 C 94.77 114.97 94.84 113.99 94.28 113.34 L 93.62 112.58 C 93.06 111.93 92.07 111.86 91.42 112.43 C 90.77 112.99 90.70 113.98 91.26 114.63 Z M 91.91 115.38 L 92.59 116.16 C 93.15 116.81 94.14 116.88 94.79 116.32 C 95.44 115.76 95.51 114.77 94.95 114.12 L 94.28 113.34 C 93.71 112.69 92.73 112.61 92.08 113.18 C 91.42 113.74 91.35 114.73 91.91 115.38 Z M 92.59 116.16 L 93.25 116.93 C 93.81 117.58 94.80 117.66 95.45 117.09 C 96.11 116.53 96.18 115.55 95.62 114.89 L 94.95 114.12 C 94.39 113.47 93.40 113.39 92.75 113.95 C 92.10 114.52 92.02 115.50 92.59 116.16 Z M 93.25 116.93 L 93.90 117.69 C 94.46 118.35 95.45 118.42 96.10 117.86 C 96.76 117.30 96.84 116.32 96.27 115.66 L 95.62 114.90 C 95.06 114.24 94.07 114.16 93.42 114.73 C 92.76 115.29 92.69 116.27 93.25 116.93 Z M 93.90 117.69 L 94.54 118.44 C 95.10 119.10 96.09 119.18 96.74 118.62 C 97.40 118.06 97.48 117.08 96.92 116.42 L 96.28 115.66 C 95.72 115.01 94.73 114.93 94.08 115.49 C 93.42 116.04 93.34 117.03 93.90 117.69 Z M 94.54 118.44 L 95.17 119.19 C 95.73 119.85 96.71 119.93 97.37 119.38 C 98.03 118.82 98.12 117.84 97.56 117.18 L 96.93 116.43 C 96.37 115.77 95.38 115.68 94.73 116.24 C 94.07 116.79 93.98 117.78 94.54 118.44 Z M 95.17 119.19 L 95.79 119.93 C 96.35 120.60 97.33 120.68 97.99 120.13 C 98.65 119.58 98.74 118.59 98.19 117.93 L 97.56 117.18 C 97.01 116.52 96.03 116.43 95.37 116.99 C 94.70 117.54 94.62 118.52 95.17 119.19 Z M 95.79 119.93 L 96.43 120.70 C 96.98 121.36 97.96 121.46 98.62 120.91 C 99.29 120.36 99.38 119.37 98.83 118.71 L 98.20 117.94 C 97.65 117.27 96.66 117.18 96.00 117.73 C 95.33 118.28 95.24 119.26 95.79 119.93 Z M 96.42 120.69 L 97.06 121.47 C 97.61 122.14 98.59 122.24 99.26 121.70 C 99.93 121.15 100.02 120.17 99.48 119.50 L 98.84 118.72 C 98.29 118.05 97.31 117.95 96.64 118.49 C 95.97 119.04 95.87 120.02 96.42 120.69 Z M 97.05 121.47 L 97.68 122.25 C 98.22 122.92 99.21 123.03 99.88 122.49 C 100.55 121.95 100.66 120.97 100.12 120.29 L 99.49 119.51 C 98.95 118.84 97.96 118.73 97.29 119.27 C 96.62 119.81 96.51 120.79 97.05 121.47 Z M 97.68 122.24 L 98.30 123.02 C 98.83 123.70 99.81 123.82 100.49 123.28 C 101.16 122.75 101.28 121.77 100.75 121.09 L 100.13 120.30 C 99.59 119.63 98.61 119.51 97.93 120.05 C 97.26 120.58 97.14 121.56 97.68 122.24 Z M 98.29 123.01 L 98.89 123.80 C 99.42 124.48 100.40 124.60 101.08 124.08 C 101.77 123.55 101.89 122.57 101.36 121.89 L 100.75 121.10 C 100.23 120.42 99.25 120.29 98.56 120.82 C 97.88 121.35 97.76 122.33 98.29 123.01 Z M 98.88 123.78 L 99.48 124.57 C 100.00 125.26 100.98 125.39 101.66 124.87 C 102.35 124.35 102.49 123.37 101.97 122.68 L 101.37 121.90 C 100.85 121.21 99.87 121.08 99.19 121.60 C 98.50 122.12 98.36 123.10 98.88 123.78 Z M 99.47 124.55 L 100.07 125.37 C 100.58 126.07 101.56 126.21 102.25 125.70 C 102.95 125.19 103.09 124.21 102.58 123.52 L 101.98 122.70 C 101.47 122.00 100.49 121.86 99.79 122.37 C 99.10 122.88 98.95 123.86 99.47 124.55 Z M 100.06 125.36 L 100.66 126.19 C 101.16 126.89 102.14 127.05 102.84 126.54 C 103.54 126.04 103.70 125.06 103.19 124.36 L 102.59 123.53 C 102.09 122.83 101.11 122.67 100.41 123.18 C 99.71 123.68 99.56 124.66 100.06 125.36 Z M 100.65 126.17 L 101.23 127.00 C 101.72 127.71 102.70 127.88 103.40 127.38 C 104.11 126.88 104.28 125.91 103.78 125.21 L 103.20 124.38 C 102.71 123.67 101.73 123.50 101.03 124.00 C 100.32 124.49 100.15 125.47 100.65 126.17 Z M 101.22 126.99 L 101.78 127.81 C 102.27 128.52 103.24 128.70 103.95 128.21 C 104.66 127.72 104.84 126.75 104.36 126.04 L 103.79 125.22 C 103.30 124.51 102.33 124.33 101.62 124.82 C 100.91 125.30 100.73 126.28 101.22 126.99 Z M 101.77 127.79 L 102.32 128.61 C 102.80 129.32 103.77 129.51 104.49 129.03 C 105.20 128.55 105.39 127.58 104.91 126.86 L 104.36 126.05 C 103.88 125.34 102.91 125.15 102.20 125.63 C 101.48 126.11 101.29 127.08 101.77 127.79 Z M 102.31 128.60 L 102.85 129.41 C 103.32 130.13 104.29 130.33 105.01 129.85 C 105.73 129.38 105.93 128.41 105.45 127.69 L 104.92 126.88 C 104.44 126.16 103.47 125.96 102.75 126.43 C 102.04 126.91 101.84 127.88 102.31 128.60 Z M 102.84 129.40 L 103.41 130.27 C 103.88 131.00 104.85 131.20 105.57 130.73 C 106.29 130.26 106.50 129.30 106.03 128.57 L 105.46 127.70 C 104.99 126.98 104.03 126.77 103.30 127.24 C 102.58 127.71 102.37 128.68 102.84 129.40 Z M 103.40 130.26 L 103.95 131.12 C 104.41 131.85 105.37 132.06 106.10 131.60 C 106.83 131.14 107.05 130.17 106.58 129.45 L 106.04 128.59 C 105.58 127.86 104.61 127.64 103.88 128.11 C 103.15 128.57 102.94 129.53 103.40 130.26 Z M 103.94 131.11 L 104.46 131.95 C 104.92 132.69 105.88 132.91 106.61 132.46 C 107.35 132.00 107.57 131.04 107.12 130.31 L 106.59 129.46 C 106.14 128.73 105.18 128.50 104.44 128.96 C 103.71 129.41 103.48 130.37 103.94 131.11 Z M 104.46 131.94 L 104.96 132.77 C 105.41 133.51 106.37 133.75 107.10 133.30 C 107.84 132.85 108.08 131.89 107.63 131.16 L 107.13 130.32 C 106.68 129.58 105.72 129.35 104.98 129.79 C 104.25 130.24 104.01 131.20 104.46 131.94 Z M 104.95 132.75 L 105.44 133.59 C 105.87 134.33 106.83 134.58 107.57 134.14 C 108.32 133.71 108.57 132.75 108.13 132.01 L 107.64 131.17 C 107.20 130.43 106.25 130.18 105.50 130.62 C 104.76 131.05 104.51 132.01 104.95 132.75 Z M 105.43 133.57 L 105.93 134.46 C 106.36 135.21 107.31 135.47 108.06 135.04 C 108.81 134.62 109.07 133.67 108.65 132.92 L 108.14 132.02 C 107.72 131.28 106.76 131.01 106.01 131.44 C 105.26 131.86 105.00 132.82 105.43 133.57 Z M 105.92 134.44 L 106.40 135.32 C 106.81 136.07 107.76 136.35 108.52 135.94 C 109.28 135.53 109.56 134.58 109.14 133.82 L 108.66 132.94 C 108.25 132.18 107.30 131.90 106.54 132.32 C 105.78 132.73 105.51 133.68 105.92 134.44 Z M 106.39 135.29 L 106.85 136.17 C 107.25 136.94 108.19 137.23 108.96 136.83 C 109.72 136.43 110.01 135.49 109.62 134.73 L 109.16 133.85 C 108.76 133.08 107.81 132.79 107.05 133.19 C 106.28 133.59 105.99 134.53 106.39 135.29 Z M 106.83 136.15 L 107.27 137.03 C 107.66 137.80 108.60 138.11 109.37 137.73 C 110.14 137.34 110.45 136.40 110.07 135.63 L 109.63 134.75 C 109.24 133.98 108.31 133.67 107.53 134.05 C 106.76 134.44 106.45 135.37 106.83 136.15 Z M 107.26 137.00 L 107.70 137.92 C 108.07 138.70 109.00 139.03 109.78 138.66 C 110.56 138.29 110.89 137.36 110.52 136.58 L 110.08 135.66 C 109.71 134.88 108.78 134.55 108.00 134.92 C 107.22 135.29 106.89 136.22 107.26 137.00 Z M 107.68 137.89 L 108.11 138.84 C 108.46 139.63 109.38 139.98 110.17 139.63 C 110.96 139.28 111.31 138.35 110.96 137.57 L 110.54 136.61 C 110.18 135.82 109.26 135.47 108.47 135.82 C 107.68 136.17 107.33 137.10 107.68 137.89 Z M 108.09 138.81 L 108.48 139.74 C 108.81 140.54 109.73 140.92 110.53 140.59 C 111.33 140.25 111.70 139.34 111.37 138.54 L 110.98 137.60 C 110.65 136.80 109.73 136.42 108.93 136.76 C 108.13 137.09 107.75 138.01 108.09 138.81 Z M 108.46 139.70 L 108.80 140.61 C 109.11 141.42 110.02 141.82 110.83 141.51 C 111.64 141.20 112.05 140.29 111.74 139.48 L 111.39 138.58 C 111.08 137.77 110.17 137.36 109.36 137.67 C 108.55 137.98 108.15 138.89 108.46 139.70 Z M 108.78 140.55 L 109.10 141.48 C 109.38 142.30 110.27 142.74 111.09 142.46 C 111.91 142.18 112.35 141.29 112.07 140.46 L 111.76 139.54 C 111.48 138.72 110.59 138.28 109.76 138.56 C 108.94 138.84 108.50 139.73 108.78 140.55 Z M 109.07 141.40 L 109.36 142.41 C 109.60 143.25 110.47 143.74 111.30 143.50 C 112.14 143.26 112.63 142.39 112.39 141.55 L 112.10 140.54 C 111.86 139.70 110.99 139.22 110.15 139.45 C 109.32 139.69 108.83 140.56 109.07 141.40 Z M 109.33 142.32 L 109.54 143.28 C 109.73 144.13 110.57 144.67 111.42 144.48 C 112.28 144.29 112.81 143.45 112.63 142.60 L 112.42 141.64 C 112.23 140.79 111.38 140.25 110.53 140.44 C 109.68 140.63 109.14 141.47 109.33 142.32 Z M 109.52 143.19 L 109.67 144.11 C 109.81 144.97 110.62 145.56 111.48 145.42 C 112.35 145.29 112.93 144.47 112.80 143.61 L 112.65 142.69 C 112.51 141.82 111.70 141.24 110.83 141.37 C 109.97 141.51 109.38 142.32 109.52 143.19 Z M 109.66 144.03 L 109.76 145.01 C 109.85 145.88 110.63 146.51 111.50 146.42 C 112.37 146.33 113.00 145.55 112.91 144.68 L 112.81 143.69 C 112.72 142.82 111.94 142.19 111.07 142.28 C 110.19 142.38 109.56 143.16 109.66 144.03 Z M 109.75 144.94 L 109.81 145.94 C 109.87 146.81 110.62 147.47 111.50 147.42 C 112.37 147.37 113.03 146.61 112.98 145.74 L 112.92 144.75 C 112.86 143.87 112.11 143.21 111.24 143.26 C 110.36 143.32 109.70 144.07 109.75 144.94 Z M 109.81 145.89 L 109.85 146.90 C 109.87 147.78 110.61 148.46 111.48 148.43 C 112.36 148.40 113.04 147.67 113.02 146.80 L 112.98 145.79 C 112.95 144.91 112.22 144.22 111.35 144.25 C 110.47 144.28 109.78 145.01 109.81 145.89 Z M 109.84 146.87 L 109.86 147.85 C 109.87 148.73 110.60 149.43 111.47 149.41 C 112.35 149.40 113.05 148.68 113.03 147.80 L 113.02 146.82 C 113.00 145.94 112.28 145.25 111.40 145.26 C 110.53 145.27 109.83 146.00 109.84 146.87 Z M 109.86 147.84 L 109.86 148.83 C 109.87 149.71 110.59 150.42 111.47 150.41 C 112.34 150.40 113.05 149.69 113.05 148.81 L 113.04 147.81 C 113.03 146.94 112.31 146.23 111.44 146.23 C 110.56 146.24 109.85 146.96 109.86 147.84 Z M 109.86 148.82 L 109.86 149.84 C 109.86 150.72 110.58 151.43 111.46 151.43 C 112.34 151.43 113.05 150.71 113.05 149.83 L 113.05 148.82 C 113.05 147.93 112.33 147.22 111.45 147.22 C 110.57 147.23 109.86 147.94 109.86 148.82 Z M 109.86 149.83 L 109.86 150.82 C 109.86 151.71 110.57 152.42 111.45 152.42 C 112.34 152.42 113.05 151.71 113.05 150.83 L 113.05 149.84 C 113.05 148.95 112.34 148.24 111.46 148.24 C 110.57 148.24 109.86 148.95 109.86 149.83 Z M 109.85 150.80 L 109.84 151.78 C 109.83 152.66 110.54 153.39 111.42 153.40 C 112.30 153.41 113.03 152.71 113.04 151.82 L 113.06 150.85 C 113.07 149.96 112.36 149.24 111.48 149.22 C 110.59 149.21 109.87 149.92 109.85 150.80 Z M 109.84 151.72 L 109.79 152.73 C 109.75 153.61 110.43 154.36 111.32 154.40 C 112.20 154.45 112.95 153.76 113.00 152.88 L 113.04 151.88 C 113.09 150.99 112.40 150.24 111.52 150.20 C 110.63 150.16 109.88 150.84 109.84 151.72 Z M 109.80 152.64 L 109.69 153.68 C 109.60 154.56 110.25 155.35 111.13 155.44 C 112.01 155.53 112.80 154.88 112.89 154.00 L 112.99 152.96 C 113.08 152.08 112.44 151.29 111.55 151.20 C 110.67 151.11 109.88 151.76 109.80 152.64 Z M 109.70 153.58 L 109.55 154.50 C 109.41 155.38 110.01 156.20 110.89 156.34 C 111.76 156.49 112.59 155.89 112.73 155.01 L 112.88 154.09 C 113.02 153.22 112.42 152.39 111.55 152.25 C 110.67 152.11 109.84 152.71 109.70 153.58 Z M 109.57 154.43 L 109.37 155.37 C 109.19 156.24 109.75 157.09 110.62 157.27 C 111.49 157.45 112.34 156.89 112.52 156.02 L 112.72 155.08 C 112.90 154.21 112.34 153.36 111.47 153.18 C 110.60 153.00 109.75 153.56 109.57 154.43 Z M 109.38 155.32 L 109.15 156.30 C 108.94 157.16 109.47 158.03 110.33 158.24 C 111.20 158.45 112.07 157.92 112.27 157.06 L 112.51 156.07 C 112.72 155.21 112.19 154.34 111.32 154.13 C 110.46 153.92 109.59 154.46 109.38 155.32 Z M 109.15 156.27 L 108.88 157.30 C 108.66 158.16 109.17 159.04 110.03 159.26 C 110.89 159.49 111.77 158.97 112.00 158.11 L 112.27 157.09 C 112.49 156.23 111.98 155.35 111.12 155.12 C 110.26 154.90 109.38 155.41 109.15 156.27 Z M 108.89 157.29 L 108.63 158.25 C 108.39 159.11 108.90 159.99 109.76 160.23 C 110.61 160.46 111.50 159.95 111.73 159.10 L 111.99 158.13 C 112.23 157.27 111.72 156.39 110.86 156.16 C 110.00 155.92 109.12 156.43 108.89 157.29 Z M 108.63 158.25 L 108.37 159.18 C 108.13 160.04 108.64 160.92 109.49 161.16 C 110.35 161.39 111.23 160.89 111.47 160.04 L 111.73 159.10 C 111.96 158.25 111.46 157.36 110.61 157.13 C 109.75 156.89 108.87 157.39 108.63 158.25 Z M 108.37 159.17 L 108.10 160.13 C 107.86 160.99 108.36 161.87 109.22 162.11 C 110.07 162.35 110.96 161.86 111.20 161.00 L 111.47 160.04 C 111.71 159.19 111.21 158.30 110.35 158.06 C 109.50 157.82 108.61 158.32 108.37 159.17 Z M 108.11 160.13 L 107.83 161.11 C 107.59 161.96 108.08 162.85 108.93 163.09 C 109.78 163.33 110.67 162.84 110.91 161.99 L 111.19 161.01 C 111.44 160.16 110.94 159.27 110.09 159.03 C 109.24 158.78 108.35 159.28 108.11 160.13 Z M 107.83 161.10 L 107.54 162.09 C 107.30 162.94 107.79 163.83 108.64 164.08 C 109.49 164.33 110.38 163.84 110.62 162.99 L 110.91 161.99 C 111.16 161.14 110.67 160.25 109.82 160.01 C 108.97 159.76 108.08 160.25 107.83 161.10 Z M 107.55 162.09 L 107.26 163.05 C 107.01 163.90 107.50 164.79 108.35 165.04 C 109.20 165.29 110.09 164.81 110.34 163.96 L 110.62 162.99 C 110.87 162.14 110.39 161.25 109.54 161.00 C 108.69 160.75 107.80 161.24 107.55 162.09 Z M 107.26 163.05 L 106.99 163.98 C 106.73 164.83 107.21 165.72 108.06 165.97 C 108.91 166.23 109.80 165.75 110.06 164.90 L 110.33 163.97 C 110.59 163.12 110.11 162.23 109.26 161.97 C 108.41 161.72 107.52 162.20 107.26 163.05 Z M 106.99 163.98 L 106.70 164.92 C 106.45 165.76 106.93 166.66 107.77 166.91 C 108.62 167.17 109.52 166.69 109.77 165.84 L 110.06 164.90 C 110.31 164.05 109.83 163.16 108.98 162.90 C 108.14 162.65 107.24 163.13 106.99 163.98 Z M 106.70 164.91 L 106.41 165.86 C 106.16 166.71 106.63 167.61 107.48 167.87 C 108.33 168.12 109.22 167.64 109.48 166.80 L 109.77 165.85 C 110.03 165.00 109.55 164.10 108.70 163.84 C 107.86 163.59 106.96 164.06 106.70 164.91 Z M 106.41 165.86 L 106.12 166.83 C 105.86 167.68 106.33 168.58 107.18 168.84 C 108.03 169.10 108.93 168.62 109.19 167.77 L 109.48 166.80 C 109.74 165.95 109.26 165.06 108.42 164.80 C 107.57 164.54 106.67 165.01 106.41 165.86 Z M 106.12 166.83 L 105.81 167.83 C 105.55 168.67 106.03 169.57 106.88 169.83 C 107.73 170.09 108.62 169.61 108.88 168.77 L 109.19 167.77 C 109.45 166.92 108.97 166.03 108.12 165.77 C 107.27 165.51 106.38 165.98 106.12 166.83 Z M 105.81 167.83 L 105.53 168.75 C 105.27 169.60 105.75 170.50 106.59 170.76 C 107.44 171.02 108.34 170.54 108.60 169.69 L 108.88 168.77 C 109.14 167.92 108.66 167.02 107.82 166.76 C 106.97 166.50 106.07 166.98 105.81 167.83 Z M 105.53 168.75 L 105.25 169.68 C 104.99 170.53 105.46 171.42 106.31 171.68 C 107.16 171.94 108.05 171.47 108.31 170.62 L 108.60 169.69 C 108.86 168.85 108.38 167.95 107.53 167.69 C 106.69 167.43 105.79 167.91 105.53 168.75 Z M 105.25 169.68 L 104.96 170.63 C 104.70 171.47 105.17 172.37 106.01 172.63 C 106.86 172.89 107.75 172.42 108.02 171.57 L 108.31 170.62 C 108.57 169.78 108.10 168.88 107.25 168.62 C 106.41 168.36 105.51 168.83 105.25 169.68 Z M 104.96 170.62 L 104.66 171.58 C 104.40 172.43 104.86 173.32 105.71 173.59 C 106.55 173.85 107.45 173.38 107.71 172.54 L 108.01 171.58 C 108.28 170.73 107.81 169.84 106.96 169.57 C 106.12 169.31 105.22 169.78 104.96 170.62 Z M 104.66 171.58 L 104.35 172.55 C 104.09 173.39 104.55 174.29 105.39 174.55 C 106.23 174.82 107.13 174.36 107.40 173.52 L 107.71 172.55 C 107.97 171.71 107.51 170.81 106.67 170.54 C 105.83 170.27 104.93 170.74 104.66 171.58 Z M 104.36 172.54 L 104.04 173.52 C 103.77 174.36 104.22 175.26 105.06 175.53 C 105.90 175.80 106.80 175.35 107.07 174.51 L 107.39 173.53 C 107.66 172.69 107.21 171.79 106.37 171.52 C 105.53 171.25 104.63 171.70 104.36 172.54 Z M 104.04 173.51 L 103.73 174.46 C 103.45 175.30 103.90 176.20 104.73 176.48 C 105.57 176.76 106.47 176.31 106.75 175.47 L 107.07 174.52 C 107.34 173.69 106.89 172.78 106.06 172.50 C 105.23 172.23 104.32 172.68 104.04 173.51 Z M 103.73 174.45 L 103.41 175.39 C 103.13 176.22 103.57 177.12 104.40 177.41 C 105.23 177.69 106.14 177.25 106.42 176.42 L 106.74 175.48 C 107.03 174.65 106.58 173.75 105.75 173.46 C 104.92 173.18 104.02 173.62 103.73 174.45 Z M 103.42 175.37 L 103.09 176.31 C 102.80 177.14 103.23 178.05 104.06 178.34 C 104.89 178.63 105.80 178.19 106.09 177.37 L 106.42 176.43 C 106.71 175.60 106.27 174.69 105.44 174.40 C 104.62 174.11 103.71 174.55 103.42 175.37 Z M 103.09 176.30 L 102.75 177.24 C 102.46 178.07 102.89 178.98 103.71 179.27 C 104.54 179.57 105.45 179.14 105.75 178.32 L 106.08 177.38 C 106.38 176.55 105.95 175.64 105.13 175.34 C 104.30 175.05 103.39 175.47 103.09 176.30 Z M 102.76 177.23 L 102.41 178.17 C 102.11 179.00 102.53 179.91 103.35 180.21 C 104.18 180.51 105.09 180.09 105.39 179.27 L 105.74 178.33 C 106.04 177.50 105.62 176.59 104.80 176.29 C 103.98 175.98 103.06 176.41 102.76 177.23 Z M 102.42 178.16 L 102.06 179.11 C 101.75 179.93 102.17 180.84 102.99 181.15 C 103.81 181.46 104.72 181.05 105.03 180.23 L 105.39 179.28 C 105.70 178.46 105.28 177.54 104.46 177.23 C 103.64 176.93 102.73 177.34 102.42 178.16 Z M 102.07 179.10 L 101.70 180.04 C 101.39 180.86 101.79 181.78 102.61 182.10 C 103.43 182.41 104.35 182.00 104.66 181.19 L 105.03 180.24 C 105.34 179.42 104.94 178.50 104.12 178.18 C 103.30 177.87 102.38 178.28 102.07 179.10 Z M 101.71 180.03 L 101.35 180.95 C 101.03 181.77 101.43 182.69 102.24 183.01 C 103.06 183.33 103.98 182.93 104.30 182.11 L 104.66 181.20 C 104.98 180.38 104.58 179.46 103.76 179.14 C 102.95 178.82 102.03 179.22 101.71 180.03 Z M 101.35 180.94 L 100.98 181.86 C 100.66 182.67 101.05 183.59 101.86 183.92 C 102.68 184.25 103.60 183.85 103.92 183.04 L 104.29 182.12 C 104.62 181.31 104.22 180.39 103.41 180.06 C 102.60 179.73 101.68 180.13 101.35 180.94 Z M 100.99 181.85 L 100.61 182.77 C 100.28 183.58 100.67 184.50 101.48 184.83 C 102.29 185.17 103.21 184.78 103.54 183.97 L 103.92 183.05 C 104.25 182.24 103.86 181.31 103.05 180.98 C 102.24 180.65 101.32 181.04 100.99 181.85 Z M 100.62 182.76 L 100.23 183.68 C 99.90 184.49 100.28 185.42 101.08 185.75 C 101.89 186.09 102.82 185.71 103.15 184.90 L 103.54 183.98 C 103.87 183.17 103.49 182.24 102.69 181.91 C 101.88 181.57 100.95 181.95 100.62 182.76 Z M 100.24 183.67 L 99.85 184.60 C 99.50 185.40 99.88 186.33 100.68 186.67 C 101.49 187.01 102.41 186.64 102.76 185.84 L 103.15 184.91 C 103.49 184.11 103.11 183.18 102.31 182.84 C 101.51 182.50 100.58 182.87 100.24 183.67 Z M 99.85 184.59 L 99.45 185.52 C 99.10 186.32 99.47 187.25 100.27 187.60 C 101.07 187.94 102.00 187.57 102.35 186.77 L 102.75 185.84 C 103.10 185.04 102.73 184.11 101.93 183.77 C 101.13 183.42 100.20 183.79 99.85 184.59 Z M 99.46 185.51 L 99.05 186.44 C 98.70 187.24 99.06 188.17 99.86 188.52 C 100.65 188.87 101.58 188.51 101.93 187.71 L 102.34 186.78 C 102.69 185.98 102.33 185.05 101.53 184.70 C 100.74 184.35 99.81 184.71 99.46 185.51 Z M 99.05 186.43 L 98.66 187.31 C 98.30 188.10 98.66 189.04 99.45 189.39 C 100.25 189.75 101.18 189.39 101.54 188.60 L 101.93 187.72 C 102.29 186.92 101.93 185.99 101.13 185.64 C 100.34 185.28 99.41 185.64 99.05 186.43 Z M 98.66 187.30 L 98.26 188.19 C 97.90 188.98 98.25 189.91 99.05 190.27 C 99.84 190.63 100.77 190.28 101.13 189.49 L 101.53 188.60 C 101.89 187.81 101.54 186.88 100.75 186.52 C 99.96 186.16 99.02 186.51 98.66 187.30 Z M 98.27 188.18 L 97.86 189.07 C 97.49 189.86 97.84 190.79 98.63 191.16 C 99.42 191.52 100.36 191.18 100.72 190.39 L 101.13 189.49 C 101.49 188.70 101.15 187.77 100.36 187.41 C 99.57 187.04 98.63 187.39 98.27 188.18 Z M 97.86 189.06 L 97.44 189.96 C 97.07 190.75 97.42 191.69 98.20 192.05 C 98.99 192.42 99.93 192.08 100.30 191.29 L 100.71 190.39 C 101.08 189.60 100.74 188.67 99.95 188.30 C 99.16 187.93 98.23 188.27 97.86 189.06 Z M 97.44 189.96 L 97.02 190.87 C 96.65 191.66 96.98 192.59 97.77 192.96 C 98.56 193.33 99.49 193.00 99.86 192.21 L 100.29 191.30 C 100.66 190.51 100.32 189.57 99.54 189.20 C 98.75 188.83 97.81 189.17 97.44 189.96 Z M 97.02 190.87 L 96.58 191.79 C 96.21 192.58 96.54 193.51 97.33 193.89 C 98.11 194.26 99.05 193.93 99.42 193.14 L 99.86 192.21 C 100.23 191.43 99.90 190.49 99.11 190.12 C 98.33 189.75 97.39 190.08 97.02 190.87 Z M 96.58 191.79 L 96.13 192.73 C 95.76 193.51 96.09 194.45 96.87 194.83 C 97.65 195.20 98.59 194.87 98.97 194.09 L 99.42 193.15 C 99.79 192.36 99.46 191.42 98.68 191.05 C 97.89 190.67 96.96 191.00 96.58 191.79 Z M 96.13 192.73 L 95.70 193.63 C 95.32 194.41 95.65 195.35 96.43 195.73 C 97.21 196.10 98.15 195.77 98.53 194.99 L 98.96 194.09 C 99.34 193.31 99.01 192.37 98.23 191.99 C 97.45 191.62 96.51 191.95 96.13 192.73 Z M 95.70 193.63 L 95.27 194.52 C 94.89 195.30 95.22 196.24 96.00 196.62 C 96.78 196.99 97.72 196.67 98.09 195.89 L 98.53 195.00 C 98.91 194.22 98.58 193.28 97.80 192.90 C 97.02 192.52 96.08 192.85 95.70 193.63 Z M 95.27 194.51 L 94.83 195.41 C 94.45 196.19 94.77 197.13 95.55 197.51 C 96.33 197.89 97.27 197.57 97.65 196.79 L 98.09 195.89 C 98.47 195.11 98.15 194.17 97.37 193.79 C 96.59 193.41 95.65 193.73 95.27 194.51 Z M 94.84 195.41 L 94.39 196.31 C 94.01 197.09 94.32 198.03 95.10 198.41 C 95.88 198.80 96.82 198.48 97.20 197.70 L 97.65 196.80 C 98.03 196.02 97.71 195.08 96.94 194.70 C 96.16 194.31 95.22 194.63 94.84 195.41 Z M 94.39 196.31 L 93.94 197.21 C 93.55 197.99 93.87 198.93 94.64 199.31 C 95.42 199.70 96.36 199.39 96.74 198.61 L 97.20 197.71 C 97.58 196.93 97.27 195.99 96.50 195.61 C 95.72 195.22 94.78 195.53 94.39 196.31 Z M 93.95 197.20 L 93.49 198.11 C 93.10 198.88 93.41 199.82 94.18 200.21 C 94.95 200.60 95.89 200.29 96.28 199.52 L 96.74 198.62 C 97.13 197.85 96.82 196.91 96.05 196.52 C 95.28 196.12 94.34 196.43 93.95 197.20 Z M 93.49 198.10 L 93.03 198.99 C 92.64 199.76 92.94 200.70 93.71 201.10 C 94.48 201.49 95.42 201.19 95.82 200.42 L 96.28 199.53 C 96.67 198.76 96.37 197.82 95.60 197.42 C 94.83 197.03 93.89 197.33 93.49 198.10 Z M 93.04 198.98 L 92.58 199.86 C 92.18 200.62 92.47 201.57 93.24 201.97 C 94.00 202.37 94.95 202.08 95.35 201.31 L 95.81 200.43 C 96.21 199.67 95.92 198.72 95.15 198.32 C 94.39 197.92 93.44 198.21 93.04 198.98 Z M 92.59 199.85 L 92.11 200.74 C 91.70 201.50 91.99 202.45 92.75 202.86 C 93.51 203.27 94.46 202.98 94.86 202.22 L 95.34 201.32 C 95.75 200.56 95.46 199.61 94.70 199.21 C 93.94 198.80 92.99 199.09 92.59 199.85 Z M 92.11 200.73 L 91.63 201.62 C 91.21 202.38 91.49 203.33 92.25 203.74 C 93.01 204.16 93.96 203.88 94.37 203.12 L 94.86 202.23 C 95.27 201.47 94.99 200.52 94.24 200.11 C 93.48 199.69 92.53 199.97 92.11 200.73 Z M 91.63 201.61 L 91.14 202.48 C 90.72 203.24 91.00 204.19 91.75 204.61 C 92.51 205.03 93.46 204.76 93.88 204.01 L 94.37 203.13 C 94.79 202.37 94.52 201.42 93.76 201.00 C 93.01 200.58 92.05 200.85 91.63 201.61 Z M 91.15 202.47 L 90.66 203.34 C 90.23 204.09 90.50 205.05 91.25 205.48 C 92.01 205.90 92.96 205.64 93.39 204.88 L 93.88 204.02 C 94.30 203.26 94.04 202.31 93.28 201.88 C 92.53 201.45 91.57 201.72 91.15 202.47 Z M 90.66 203.33 L 90.17 204.19 C 89.74 204.94 90.00 205.90 90.75 206.33 C 91.51 206.76 92.46 206.50 92.89 205.75 L 93.39 204.89 C 93.82 204.14 93.55 203.18 92.80 202.75 C 92.05 202.32 91.09 202.58 90.66 203.33 Z M 90.17 204.19 L 89.68 205.04 C 89.25 205.80 89.50 206.76 90.26 207.19 C 91.01 207.62 91.97 207.36 92.40 206.61 L 92.89 205.75 C 93.33 205.00 93.07 204.04 92.32 203.61 C 91.56 203.18 90.60 203.44 90.17 204.19 Z M 89.68 205.04 L 89.18 205.90 C 88.75 206.65 89.00 207.61 89.75 208.05 C 90.51 208.48 91.47 208.22 91.90 207.47 L 92.40 206.62 C 92.83 205.86 92.58 204.90 91.83 204.47 C 91.07 204.03 90.11 204.29 89.68 205.04 Z M 89.18 205.90 L 88.68 206.76 C 88.25 207.51 88.50 208.47 89.25 208.91 C 90.00 209.35 90.97 209.09 91.40 208.34 L 91.90 207.48 C 92.34 206.72 92.08 205.76 91.33 205.33 C 90.58 204.89 89.62 205.15 89.18 205.90 Z M 88.68 206.76 L 88.19 207.61 C 87.75 208.36 88.01 209.32 88.76 209.76 C 89.51 210.20 90.47 209.94 90.91 209.19 L 91.40 208.34 C 91.84 207.59 91.58 206.62 90.83 206.19 C 90.08 205.75 89.12 206.01 88.68 206.76 Z M 88.19 207.61 L 87.69 208.47 C 87.26 209.22 87.51 210.18 88.26 210.62 C 89.02 211.05 89.98 210.79 90.41 210.04 L 90.91 209.19 C 91.35 208.44 91.09 207.47 90.34 207.04 C 89.59 206.60 88.62 206.86 88.19 207.61 Z M 87.69 208.47 L 87.19 209.33 C 86.76 210.08 87.01 211.04 87.76 211.48 C 88.52 211.91 89.48 211.66 89.91 210.91 L 90.41 210.04 C 90.85 209.29 90.59 208.33 89.84 207.89 C 89.09 207.46 88.13 207.71 87.69 208.47 Z M 87.19 209.33 L 86.69 210.19 C 86.25 210.94 86.51 211.91 87.26 212.34 C 88.01 212.78 88.97 212.52 89.41 211.77 L 89.91 210.91 C 90.35 210.16 90.10 209.19 89.34 208.76 C 88.59 208.32 87.63 208.57 87.19 209.33 Z M 86.69 210.19 L 86.18 211.06 C 85.75 211.81 86.00 212.77 86.75 213.21 C 87.50 213.65 88.47 213.39 88.90 212.64 L 89.41 211.77 C 89.85 211.02 89.59 210.06 88.84 209.62 C 88.09 209.19 87.13 209.44 86.69 210.19 Z M 86.19 211.06 L 85.68 211.93 C 85.24 212.68 85.49 213.64 86.24 214.08 C 86.99 214.52 87.96 214.27 88.39 213.52 L 88.90 212.65 C 89.34 211.90 89.09 210.93 88.34 210.49 C 87.59 210.05 86.62 210.31 86.19 211.06 Z M 85.68 211.93 L 85.17 212.80 C 84.73 213.55 84.98 214.51 85.73 214.95 C 86.48 215.39 87.44 215.14 87.88 214.39 L 88.39 213.52 C 88.83 212.77 88.58 211.81 87.83 211.37 C 87.08 210.93 86.12 211.18 85.68 211.93 Z M 85.17 212.79 L 84.65 213.66 C 84.21 214.41 84.46 215.38 85.21 215.82 C 85.96 216.26 86.92 216.01 87.36 215.27 L 87.88 214.39 C 88.32 213.65 88.07 212.68 87.32 212.24 C 86.58 211.80 85.61 212.04 85.17 212.79 Z M 84.66 213.66 L 84.14 214.53 C 83.69 215.28 83.94 216.25 84.68 216.69 C 85.43 217.14 86.40 216.89 86.84 216.14 L 87.36 215.27 C 87.81 214.52 87.56 213.56 86.81 213.11 C 86.07 212.67 85.10 212.91 84.66 213.66 Z M 84.14 214.53 L 83.62 215.40 C 83.17 216.15 83.41 217.11 84.16 217.56 C 84.91 218.01 85.87 217.76 86.32 217.02 L 86.84 216.15 C 87.29 215.40 87.05 214.43 86.30 213.99 C 85.55 213.54 84.58 213.78 84.14 214.53 Z M 83.62 215.39 L 83.10 216.26 C 82.65 217.01 82.89 217.98 83.63 218.42 C 84.38 218.87 85.35 218.63 85.80 217.89 L 86.32 217.02 C 86.77 216.27 86.53 215.31 85.78 214.86 C 85.04 214.41 84.07 214.65 83.62 215.39 Z M 83.10 216.26 L 82.58 217.11 C 82.13 217.86 82.36 218.83 83.11 219.28 C 83.86 219.73 84.83 219.50 85.28 218.75 L 85.80 217.89 C 86.25 217.14 86.01 216.17 85.27 215.72 C 84.52 215.27 83.55 215.51 83.10 216.26 Z M 82.58 217.11 L 82.06 217.96 C 81.60 218.71 81.84 219.68 82.59 220.14 C 83.33 220.59 84.30 220.35 84.76 219.61 L 85.28 218.75 C 85.73 218.01 85.50 217.04 84.75 216.58 C 84.00 216.13 83.03 216.36 82.58 217.11 Z M 82.06 217.96 L 81.54 218.80 C 81.09 219.55 81.32 220.52 82.07 220.98 C 82.81 221.44 83.79 221.20 84.24 220.46 L 84.76 219.61 C 85.21 218.87 84.98 217.89 84.23 217.44 C 83.49 216.98 82.52 217.21 82.06 217.96 Z M 81.54 218.80 L 81.03 219.64 C 80.57 220.38 80.80 221.36 81.55 221.81 C 82.29 222.27 83.27 222.04 83.73 221.29 L 84.24 220.46 C 84.70 219.71 84.47 218.74 83.72 218.28 C 82.98 217.82 82.00 218.06 81.54 218.80 Z M 81.03 219.63 L 80.50 220.49 C 80.04 221.23 80.27 222.21 81.02 222.67 C 81.76 223.13 82.74 222.90 83.20 222.15 L 83.73 221.30 C 84.19 220.55 83.96 219.58 83.21 219.12 C 82.47 218.66 81.49 218.89 81.03 219.63 Z M 80.50 220.48 L 79.95 221.37 C 79.49 222.11 79.72 223.09 80.46 223.55 C 81.21 224.01 82.18 223.78 82.65 223.04 L 83.20 222.15 C 83.66 221.41 83.43 220.43 82.69 219.97 C 81.94 219.51 80.97 219.74 80.50 220.48 Z M 79.96 221.37 L 79.41 222.24 C 78.95 222.98 79.17 223.96 79.92 224.42 C 80.66 224.89 81.64 224.66 82.10 223.92 L 82.64 223.04 C 83.11 222.30 82.88 221.32 82.14 220.86 C 81.40 220.40 80.42 220.62 79.96 221.37 Z M 79.41 222.23 L 78.87 223.09 C 78.41 223.83 78.63 224.81 79.37 225.28 C 80.11 225.74 81.09 225.52 81.56 224.78 L 82.10 223.92 C 82.56 223.18 82.34 222.20 81.60 221.74 C 80.86 221.27 79.88 221.49 79.41 222.23 Z M 78.88 223.09 L 78.34 223.93 C 77.88 224.67 78.10 225.65 78.84 226.12 C 79.58 226.59 80.56 226.36 81.02 225.62 L 81.56 224.78 C 82.02 224.04 81.80 223.06 81.06 222.60 C 80.32 222.13 79.34 222.35 78.88 223.09 Z M 78.35 223.93 L 77.82 224.75 C 77.35 225.49 77.57 226.47 78.31 226.94 C 79.05 227.41 80.02 227.19 80.49 226.46 L 81.02 225.63 C 81.49 224.89 81.27 223.91 80.53 223.44 C 79.80 222.97 78.82 223.19 78.35 223.93 Z M 77.82 224.75 L 77.30 225.56 C 76.83 226.30 77.05 227.28 77.78 227.75 C 78.52 228.22 79.50 228.01 79.97 227.27 L 80.49 226.46 C 80.96 225.72 80.75 224.74 80.01 224.27 C 79.28 223.80 78.30 224.01 77.82 224.75 Z M 77.31 225.55 L 76.78 226.37 C 76.31 227.10 76.52 228.09 77.25 228.56 C 77.99 229.03 78.97 228.82 79.44 228.09 L 79.97 227.27 C 80.45 226.54 80.23 225.56 79.50 225.08 C 78.76 224.61 77.78 224.82 77.31 225.55 Z M 76.78 226.36 L 76.21 227.24 C 75.73 227.97 75.94 228.96 76.68 229.43 C 77.41 229.91 78.39 229.71 78.87 228.97 L 79.44 228.09 C 79.92 227.36 79.71 226.38 78.98 225.90 C 78.24 225.42 77.26 225.63 76.78 226.36 Z M 76.22 227.23 L 75.65 228.09 C 75.17 228.82 75.37 229.81 76.11 230.29 C 76.84 230.77 77.82 230.57 78.30 229.83 L 78.87 228.98 C 79.35 228.25 79.15 227.26 78.41 226.78 C 77.68 226.30 76.70 226.50 76.22 227.23 Z M 75.66 228.08 L 75.10 228.92 C 74.61 229.65 74.81 230.63 75.54 231.12 C 76.27 231.61 77.26 231.41 77.74 230.68 L 78.30 229.84 C 78.79 229.11 78.59 228.13 77.86 227.64 C 77.13 227.15 76.14 227.35 75.66 228.08 Z M 75.10 228.91 L 74.55 229.73 C 74.06 230.45 74.25 231.44 74.98 231.93 C 75.71 232.43 76.70 232.23 77.19 231.51 L 77.74 230.69 C 78.23 229.96 78.04 228.97 77.31 228.48 C 76.58 227.99 75.59 228.18 75.10 228.91 Z M 74.56 229.72 L 74.01 230.52 C 73.51 231.24 73.70 232.23 74.42 232.73 C 75.15 233.23 76.14 233.04 76.63 232.32 L 77.18 231.52 C 77.68 230.79 77.49 229.80 76.77 229.30 C 76.04 228.81 75.05 228.99 74.56 229.72 Z M 74.01 230.51 L 73.47 231.29 C 72.96 232.02 73.14 233.01 73.87 233.51 C 74.59 234.01 75.58 233.84 76.08 233.11 L 76.63 232.33 C 77.13 231.60 76.95 230.61 76.23 230.11 C 75.51 229.61 74.52 229.79 74.01 230.51 Z M 73.47 231.28 L 72.85 232.17 C 72.34 232.89 72.51 233.88 73.23 234.39 C 73.95 234.90 74.94 234.73 75.45 234.01 L 76.07 233.12 C 76.58 232.41 76.41 231.41 75.69 230.90 C 74.98 230.40 73.98 230.57 73.47 231.28 Z M 72.86 232.16 L 72.23 233.03 C 71.72 233.74 71.88 234.73 72.59 235.25 C 73.31 235.76 74.30 235.60 74.81 234.89 L 75.44 234.02 C 75.95 233.30 75.79 232.31 75.08 231.80 C 74.37 231.28 73.37 231.44 72.86 232.16 Z M 72.24 233.02 L 71.63 233.85 C 71.11 234.56 71.27 235.55 71.97 236.07 C 72.68 236.59 73.68 236.44 74.20 235.73 L 74.81 234.90 C 75.33 234.19 75.17 233.19 74.46 232.67 C 73.75 232.15 72.76 232.31 72.24 233.02 Z M 71.64 233.84 L 71.05 234.63 C 70.53 235.33 70.68 236.33 71.38 236.85 C 72.09 237.37 73.09 237.23 73.61 236.52 L 74.19 235.74 C 74.71 235.03 74.57 234.03 73.86 233.51 C 73.16 232.99 72.16 233.14 71.64 233.84 Z M 71.06 234.62 L 70.51 235.35 C 69.99 236.05 70.13 237.05 70.83 237.57 C 71.53 238.10 72.53 237.96 73.06 237.26 L 73.60 236.53 C 74.13 235.83 73.99 234.83 73.29 234.30 C 72.58 233.78 71.59 233.92 71.06 234.62 Z M 70.52 235.34 L 69.92 236.13 C 69.39 236.83 69.53 237.82 70.22 238.36 C 70.92 238.89 71.92 238.75 72.45 238.05 L 73.05 237.26 C 73.58 236.57 73.44 235.57 72.75 235.04 C 72.05 234.51 71.05 234.64 70.52 235.34 Z M 69.93 236.11 L 69.29 236.93 C 68.75 237.62 68.87 238.62 69.56 239.16 C 70.25 239.70 71.25 239.58 71.79 238.89 L 72.44 238.07 C 72.98 237.38 72.86 236.38 72.17 235.84 C 71.48 235.30 70.48 235.42 69.93 236.11 Z M 69.32 236.89 L 68.71 237.62 C 68.14 238.29 68.23 239.30 68.90 239.86 C 69.57 240.43 70.58 240.34 71.14 239.67 L 71.76 238.94 C 72.33 238.26 72.24 237.26 71.57 236.69 C 70.89 236.13 69.89 236.21 69.32 236.89 Z M 68.76 237.56 L 68.12 238.25 C 67.52 238.89 67.55 239.90 68.20 240.50 C 68.84 241.10 69.85 241.06 70.45 240.42 L 71.09 239.73 C 71.69 239.09 71.66 238.08 71.01 237.48 C 70.37 236.88 69.36 236.92 68.76 237.56 Z M 68.20 238.17 L 67.35 238.96 C 66.71 239.56 66.67 240.57 67.28 241.22 C 67.88 241.86 68.89 241.89 69.53 241.29 L 70.37 240.50 C 71.02 239.90 71.05 238.89 70.45 238.24 C 69.85 237.60 68.84 237.57 68.20 238.17 Z M 67.54 238.81 L 66.64 239.43 C 65.92 239.92 65.73 240.91 66.23 241.64 C 66.72 242.36 67.72 242.55 68.44 242.05 L 69.34 241.44 C 70.06 240.94 70.25 239.95 69.75 239.23 C 69.26 238.50 68.26 238.32 67.54 238.81 Z M 67.52 239.15 L 66.86 239.16 C 65.99 239.17 65.28 239.89 65.29 240.76 C 65.30 241.64 66.02 242.34 66.90 242.33 L 67.56 242.33 C 68.44 242.32 69.14 241.60 69.13 240.72 C 69.12 239.85 68.40 239.14 67.52 239.15 Z M 68.36 240.18 L 68.16 239.66 C 67.85 238.84 66.94 238.43 66.12 238.74 C 65.30 239.05 64.89 239.97 65.20 240.78 L 65.40 241.31 C 65.71 242.13 66.63 242.54 67.44 242.23 C 68.26 241.92 68.67 241.00 68.36 240.18 Z M 68.26 240.22 L 68.26 239.48 C 68.26 238.61 67.55 237.91 66.68 237.91 C 65.80 237.91 65.10 238.62 65.10 239.49 L 65.10 240.23 C 65.11 241.10 65.81 241.80 66.69 241.80 C 67.56 241.80 68.26 241.09 68.26 240.22 Z M 68.25 239.66 L 68.35 238.71 C 68.45 237.85 67.83 237.07 66.96 236.97 C 66.10 236.87 65.32 237.50 65.22 238.36 L 65.11 239.31 C 65.02 240.18 65.64 240.96 66.51 241.05 C 67.37 241.15 68.15 240.53 68.25 239.66 Z M 68.34 238.79 L 68.52 237.68 C 68.67 236.82 68.09 236.01 67.23 235.87 C 66.38 235.73 65.57 236.30 65.42 237.16 L 65.24 238.28 C 65.09 239.13 65.67 239.94 66.53 240.09 C 67.38 240.23 68.19 239.65 68.34 238.79 Z M 68.51 237.72 L 68.75 236.50 C 68.91 235.65 68.36 234.83 67.51 234.66 C 66.66 234.49 65.84 235.05 65.67 235.90 L 65.44 237.12 C 65.27 237.97 65.82 238.79 66.67 238.96 C 67.52 239.12 68.35 238.57 68.51 237.72 Z M 68.74 236.51 L 68.96 235.47 C 69.13 234.63 68.59 233.80 67.74 233.62 C 66.90 233.45 66.07 233.99 65.90 234.84 L 65.68 235.88 C 65.51 236.73 66.05 237.55 66.90 237.73 C 67.74 237.90 68.57 237.36 68.74 236.51 Z"
      fill="black"
      fill-rule="nonzero" /><path d="M 105.66 84.00 L 105.54 85.01 C 105.44 85.86 106.06 86.64 106.91 86.74 C 107.77 86.84 108.55 86.22 108.65 85.37 L 108.76 84.37 C 108.86 83.51 108.25 82.73 107.39 82.64 C 106.54 82.54 105.76 83.15 105.66 84.00 Z M 105.54 85.05 L 105.45 86.05 C 105.37 86.90 106.01 87.66 106.87 87.74 C 107.72 87.82 108.48 87.18 108.56 86.32 L 108.65 85.33 C 108.73 84.47 108.09 83.71 107.24 83.63 C 106.38 83.55 105.62 84.19 105.54 85.05 Z M 105.45 86.13 L 105.41 87.12 C 105.38 87.99 106.05 88.71 106.91 88.74 C 107.77 88.77 108.50 88.10 108.53 87.24 L 108.57 86.24 C 108.60 85.38 107.92 84.66 107.06 84.62 C 106.20 84.59 105.48 85.27 105.45 86.13 Z M 105.41 87.25 L 105.45 88.24 C 105.49 89.10 106.22 89.77 107.08 89.73 C 107.95 89.69 108.61 88.96 108.57 88.10 L 108.53 87.11 C 108.49 86.25 107.76 85.58 106.90 85.62 C 106.04 85.66 105.37 86.39 105.41 87.25 Z M 105.47 88.41 L 105.63 89.41 C 105.76 90.27 106.55 90.85 107.41 90.72 C 108.26 90.59 108.84 89.79 108.71 88.94 L 108.56 87.93 C 108.43 87.08 107.63 86.50 106.78 86.63 C 105.92 86.76 105.34 87.56 105.47 88.41 Z M 105.66 89.58 L 105.92 90.57 C 106.14 91.41 107.00 91.90 107.83 91.68 C 108.67 91.46 109.16 90.61 108.94 89.77 L 108.68 88.78 C 108.46 87.94 107.60 87.45 106.77 87.67 C 105.94 87.89 105.44 88.74 105.66 89.58 Z M 105.96 90.70 L 106.31 91.66 C 106.60 92.47 107.50 92.89 108.31 92.60 C 109.12 92.30 109.54 91.41 109.25 90.60 L 108.90 89.64 C 108.61 88.83 107.71 88.41 106.90 88.70 C 106.09 89.00 105.67 89.89 105.96 90.70 Z M 106.35 91.76 L 106.75 92.65 C 107.10 93.44 108.02 93.80 108.81 93.45 C 109.60 93.10 109.95 92.17 109.60 91.39 L 109.20 90.49 C 108.85 89.71 107.93 89.35 107.14 89.70 C 106.35 90.05 106.00 90.97 106.35 91.76 Z M 106.79 92.74 L 107.25 93.62 C 107.65 94.38 108.59 94.68 109.36 94.28 C 110.12 93.88 110.42 92.93 110.02 92.17 L 109.56 91.30 C 109.16 90.53 108.21 90.24 107.45 90.64 C 106.69 91.04 106.39 91.98 106.79 92.74 Z M 107.30 93.71 L 107.83 94.58 C 108.28 95.32 109.25 95.55 109.98 95.10 C 110.72 94.65 110.95 93.69 110.50 92.95 L 109.96 92.08 C 109.51 91.34 108.55 91.11 107.82 91.56 C 107.08 92.01 106.85 92.98 107.30 93.71 Z M 107.89 94.67 L 108.45 95.46 C 108.95 96.17 109.93 96.33 110.63 95.83 C 111.33 95.33 111.50 94.36 111.00 93.66 L 110.44 92.86 C 109.94 92.16 108.97 91.99 108.26 92.49 C 107.56 92.99 107.39 93.97 107.89 94.67 Z M 108.50 95.53 L 109.11 96.29 C 109.64 96.97 110.62 97.08 111.30 96.55 C 111.98 96.01 112.09 95.03 111.56 94.36 L 110.95 93.59 C 110.42 92.91 109.44 92.80 108.76 93.33 C 108.08 93.87 107.97 94.85 108.50 95.53 Z M 109.14 96.33 L 109.74 97.05 C 110.30 97.71 111.29 97.79 111.94 97.23 C 112.60 96.68 112.69 95.69 112.13 95.03 L 111.52 94.32 C 110.97 93.66 109.98 93.57 109.32 94.13 C 108.67 94.69 108.58 95.67 109.14 96.33 Z M 109.77 97.08 L 110.42 97.81 C 110.99 98.46 111.98 98.52 112.62 97.94 C 113.27 97.37 113.33 96.38 112.76 95.74 L 112.11 95.01 C 111.53 94.36 110.55 94.30 109.90 94.87 C 109.26 95.45 109.20 96.43 109.77 97.08 Z M 110.44 97.84 L 111.14 98.59 C 111.72 99.22 112.71 99.26 113.35 98.67 C 113.98 98.09 114.02 97.10 113.43 96.47 L 112.73 95.71 C 112.15 95.08 111.16 95.04 110.53 95.63 C 109.89 96.22 109.86 97.20 110.44 97.84 Z M 111.16 98.61 L 111.88 99.36 C 112.48 99.98 113.47 100.00 114.09 99.40 C 114.71 98.80 114.73 97.81 114.13 97.19 L 113.41 96.44 C 112.81 95.82 111.82 95.80 111.20 96.40 C 110.58 97.00 110.56 97.99 111.16 98.61 Z M 111.90 99.38 L 112.57 100.05 C 113.18 100.66 114.17 100.66 114.78 100.05 C 115.39 99.44 115.39 98.45 114.78 97.84 L 114.11 97.17 C 113.50 96.56 112.51 96.56 111.90 97.17 C 111.29 97.78 111.29 98.77 111.90 99.38 Z M 112.59 100.07 L 113.29 100.75 C 113.91 101.35 114.90 101.33 115.50 100.71 C 116.10 100.10 116.08 99.11 115.46 98.51 L 114.76 97.82 C 114.14 97.22 113.15 97.24 112.55 97.86 C 111.95 98.48 111.97 99.47 112.59 100.07 Z M 113.31 100.76 L 114.05 101.46 C 114.68 102.05 115.67 102.02 116.26 101.39 C 116.85 100.76 116.82 99.78 116.19 99.19 L 115.45 98.49 C 114.82 97.90 113.83 97.93 113.24 98.56 C 112.65 99.19 112.68 100.17 113.31 100.76 Z M 114.07 101.48 L 114.85 102.19 C 115.48 102.77 116.47 102.72 117.05 102.08 C 117.63 101.45 117.59 100.46 116.95 99.88 L 116.17 99.17 C 115.53 98.59 114.54 98.63 113.96 99.27 C 113.38 99.91 113.43 100.90 114.07 101.48 Z M 114.86 102.20 L 115.58 102.84 C 116.23 103.41 117.22 103.35 117.79 102.70 C 118.36 102.06 118.30 101.07 117.65 100.50 L 116.93 99.86 C 116.29 99.29 115.30 99.35 114.73 100.00 C 114.16 100.64 114.22 101.63 114.86 102.20 Z M 115.60 102.85 L 116.32 103.47 C 116.97 104.04 117.96 103.96 118.52 103.31 C 119.09 102.66 119.01 101.67 118.36 101.11 L 117.64 100.49 C 116.98 99.92 116.00 100.00 115.44 100.65 C 114.87 101.30 114.95 102.29 115.60 102.85 Z M 116.33 103.48 L 117.09 104.12 C 117.75 104.67 118.73 104.59 119.29 103.93 C 119.84 103.27 119.76 102.29 119.10 101.73 L 118.34 101.10 C 117.69 100.54 116.70 100.63 116.15 101.29 C 115.59 101.94 115.67 102.93 116.33 103.48 Z M 117.10 104.13 L 117.89 104.78 C 118.55 105.33 119.54 105.23 120.08 104.57 C 120.63 103.90 120.54 102.92 119.87 102.37 L 119.09 101.72 C 118.42 101.17 117.44 101.27 116.89 101.93 C 116.34 102.60 116.43 103.58 117.10 104.13 Z M 117.90 104.79 L 118.72 105.45 C 119.39 105.99 120.37 105.89 120.92 105.22 C 121.46 104.55 121.35 103.57 120.68 103.02 L 119.86 102.36 C 119.19 101.82 118.21 101.92 117.67 102.59 C 117.12 103.26 117.23 104.25 117.90 104.79 Z M 118.73 105.46 L 119.53 106.10 C 120.20 106.63 121.19 106.52 121.72 105.84 C 122.26 105.17 122.15 104.19 121.47 103.65 L 120.67 103.02 C 120.00 102.48 119.02 102.59 118.48 103.27 C 117.94 103.94 118.06 104.92 118.73 105.46 Z M 119.54 106.10 L 120.31 106.70 C 120.99 107.23 121.97 107.11 122.50 106.44 C 123.03 105.76 122.91 104.77 122.23 104.24 L 121.46 103.64 C 120.78 103.11 119.80 103.23 119.27 103.91 C 118.74 104.59 118.86 105.57 119.54 106.10 Z M 120.32 106.71 L 121.11 107.32 C 121.79 107.84 122.77 107.72 123.30 107.03 C 123.82 106.35 123.69 105.37 123.01 104.84 L 122.22 104.24 C 121.54 103.71 120.56 103.84 120.03 104.52 C 119.51 105.21 119.63 106.19 120.32 106.71 Z M 121.12 107.33 L 121.93 107.94 C 122.61 108.45 123.59 108.32 124.11 107.63 C 124.63 106.94 124.49 105.96 123.80 105.44 L 123.00 104.83 C 122.31 104.31 121.33 104.45 120.81 105.14 C 120.29 105.83 120.43 106.81 121.12 107.33 Z M 121.94 107.94 L 122.76 108.55 C 123.45 109.06 124.43 108.91 124.94 108.22 C 125.45 107.53 125.30 106.55 124.61 106.04 L 123.79 105.43 C 123.10 104.92 122.12 105.07 121.61 105.76 C 121.10 106.46 121.24 107.43 121.94 107.94 Z M 122.77 108.56 L 123.60 109.15 C 124.30 109.66 125.27 109.50 125.78 108.80 C 126.28 108.10 126.12 107.12 125.42 106.62 L 124.60 106.02 C 123.90 105.52 122.92 105.68 122.42 106.38 C 121.91 107.08 122.07 108.06 122.77 108.56 Z M 123.61 109.17 L 124.45 109.75 C 125.15 110.24 126.13 110.07 126.62 109.36 C 127.11 108.65 126.94 107.68 126.23 107.19 L 125.40 106.61 C 124.70 106.11 123.72 106.29 123.23 106.99 C 122.74 107.70 122.91 108.67 123.61 109.17 Z M 124.46 109.76 L 125.30 110.32 C 126.01 110.81 126.98 110.62 127.47 109.91 C 127.95 109.20 127.76 108.22 127.05 107.74 L 126.22 107.18 C 125.50 106.69 124.53 106.88 124.05 107.59 C 123.56 108.30 123.75 109.28 124.46 109.76 Z M 125.31 110.34 L 126.15 110.89 C 126.87 111.36 127.84 111.16 128.31 110.44 C 128.79 109.72 128.59 108.75 127.87 108.28 L 127.03 107.73 C 126.31 107.25 125.35 107.45 124.87 108.17 C 124.40 108.89 124.59 109.86 125.31 110.34 Z M 126.17 110.90 L 127.00 111.44 C 127.73 111.90 128.70 111.69 129.16 110.97 C 129.63 110.24 129.42 109.27 128.69 108.81 L 127.85 108.27 C 127.13 107.80 126.16 108.01 125.70 108.74 C 125.23 109.47 125.44 110.43 126.17 110.90 Z M 127.02 111.44 L 127.86 111.97 C 128.59 112.43 129.56 112.21 130.01 111.48 C 130.47 110.75 130.25 109.79 129.52 109.33 L 128.68 108.80 C 127.95 108.34 126.98 108.56 126.53 109.29 C 126.07 110.02 126.29 110.99 127.02 111.44 Z M 127.87 111.98 L 128.72 112.50 C 129.46 112.95 130.42 112.72 130.87 111.99 C 131.32 111.26 131.09 110.29 130.36 109.84 L 129.51 109.32 C 128.77 108.87 127.81 109.10 127.36 109.83 C 126.91 110.57 127.14 111.53 127.87 111.98 Z M 128.73 112.51 L 129.59 113.03 C 130.33 113.47 131.28 113.23 131.73 112.50 C 132.18 111.76 131.94 110.80 131.20 110.35 L 130.35 109.84 C 129.61 109.39 128.65 109.63 128.20 110.37 C 127.76 111.10 127.99 112.06 128.73 112.51 Z M 129.60 113.03 L 130.46 113.54 C 131.20 113.98 132.16 113.74 132.60 113.00 C 133.04 112.26 132.80 111.30 132.06 110.86 L 131.19 110.35 C 130.45 109.91 129.49 110.15 129.05 110.89 C 128.61 111.63 128.86 112.59 129.60 113.03 Z M 130.47 113.55 L 131.33 114.06 C 132.08 114.49 133.03 114.24 133.47 113.50 C 133.91 112.76 133.66 111.80 132.91 111.36 L 132.05 110.86 C 131.30 110.42 130.35 110.67 129.91 111.41 C 129.47 112.16 129.72 113.11 130.47 113.55 Z M 131.34 114.06 L 132.21 114.57 C 132.95 115.00 133.91 114.74 134.34 114.00 C 134.78 113.25 134.52 112.30 133.78 111.86 L 132.91 111.36 C 132.16 110.93 131.21 111.18 130.77 111.93 C 130.34 112.67 130.59 113.63 131.34 114.06 Z M 132.21 114.57 L 133.08 115.07 C 133.83 115.50 134.78 115.24 135.21 114.49 C 135.64 113.74 135.38 112.79 134.64 112.36 L 133.77 111.86 C 133.02 111.43 132.07 111.69 131.64 112.44 C 131.21 113.19 131.47 114.14 132.21 114.57 Z M 133.09 115.07 L 133.95 115.56 C 134.70 115.99 135.65 115.73 136.08 114.98 C 136.51 114.23 136.25 113.27 135.50 112.85 L 134.63 112.36 C 133.88 111.93 132.93 112.19 132.50 112.94 C 132.08 113.69 132.34 114.64 133.09 115.07 Z M 133.96 115.56 L 134.83 116.06 C 135.58 116.48 136.53 116.22 136.96 115.47 C 137.38 114.72 137.12 113.76 136.37 113.34 L 135.49 112.85 C 134.74 112.42 133.79 112.69 133.36 113.44 C 132.94 114.19 133.21 115.14 133.96 115.56 Z M 134.83 116.06 L 135.73 116.56 C 136.48 116.99 137.43 116.72 137.86 115.97 C 138.28 115.21 138.01 114.26 137.26 113.84 L 136.36 113.34 C 135.61 112.92 134.66 113.18 134.24 113.93 C 133.81 114.69 134.08 115.64 134.83 116.06 Z M 135.73 116.57 L 136.62 117.06 C 137.37 117.48 138.32 117.21 138.74 116.46 C 139.17 115.71 138.90 114.75 138.14 114.33 L 137.26 113.84 C 136.50 113.42 135.55 113.69 135.13 114.44 C 134.71 115.19 134.98 116.14 135.73 116.57 Z M 136.62 117.06 L 137.50 117.55 C 138.25 117.97 139.20 117.70 139.62 116.94 C 140.04 116.19 139.77 115.24 139.02 114.82 L 138.14 114.33 C 137.39 113.91 136.44 114.18 136.02 114.94 C 135.60 115.69 135.87 116.64 136.62 117.06 Z M 137.50 117.55 L 138.36 118.03 C 139.12 118.45 140.07 118.18 140.48 117.42 C 140.90 116.67 140.63 115.72 139.88 115.30 L 139.02 114.82 C 138.26 114.40 137.31 114.67 136.89 115.43 C 136.47 116.18 136.75 117.13 137.50 117.55 Z M 138.36 118.03 L 139.21 118.50 C 139.96 118.92 140.91 118.65 141.33 117.89 C 141.75 117.14 141.48 116.19 140.73 115.77 L 139.88 115.30 C 139.12 114.88 138.17 115.15 137.75 115.91 C 137.34 116.66 137.61 117.61 138.36 118.03 Z M 139.21 118.50 L 140.10 118.99 C 140.85 119.41 141.81 119.14 142.22 118.39 C 142.64 117.64 142.37 116.69 141.62 116.27 L 140.73 115.77 C 139.97 115.35 139.02 115.62 138.60 116.38 C 138.18 117.13 138.46 118.08 139.21 118.50 Z M 140.10 118.99 L 141.00 119.50 C 141.76 119.92 142.71 119.65 143.13 118.90 C 143.55 118.15 143.28 117.20 142.53 116.78 L 141.62 116.27 C 140.87 115.85 139.92 116.12 139.50 116.87 C 139.08 117.62 139.35 118.57 140.10 118.99 Z M 140.99 119.50 L 141.88 120.00 C 142.63 120.42 143.58 120.16 144.00 119.41 C 144.43 118.66 144.17 117.71 143.42 117.28 L 142.54 116.78 C 141.79 116.35 140.83 116.62 140.41 117.37 C 139.98 118.12 140.25 119.07 140.99 119.50 Z M 141.86 119.99 L 142.72 120.48 C 143.46 120.92 144.42 120.66 144.85 119.92 C 145.28 119.17 145.03 118.22 144.28 117.78 L 143.43 117.29 C 142.69 116.85 141.73 117.11 141.30 117.85 C 140.86 118.60 141.12 119.55 141.86 119.99 Z M 142.70 120.47 L 143.52 120.96 C 144.26 121.41 145.22 121.17 145.66 120.43 C 146.10 119.69 145.86 118.73 145.12 118.29 L 144.30 117.79 C 143.56 117.35 142.60 117.59 142.16 118.33 C 141.72 119.07 141.96 120.03 142.70 120.47 Z M 143.50 120.95 L 144.34 121.47 C 145.07 121.93 146.03 121.71 146.49 120.98 C 146.94 120.25 146.72 119.28 145.99 118.83 L 145.15 118.30 C 144.42 117.84 143.45 118.07 143.00 118.80 C 142.54 119.53 142.76 120.49 143.50 120.95 Z M 144.31 121.46 L 145.16 122.02 C 145.88 122.49 146.85 122.29 147.32 121.57 C 147.80 120.84 147.59 119.88 146.87 119.40 L 146.02 118.84 C 145.30 118.37 144.33 118.57 143.86 119.30 C 143.38 120.02 143.59 120.98 144.31 121.46 Z M 145.13 122.00 L 145.96 122.56 C 146.67 123.05 147.64 122.87 148.13 122.16 C 148.62 121.45 148.43 120.47 147.72 119.99 L 146.90 119.42 C 146.19 118.94 145.22 119.12 144.73 119.83 C 144.24 120.54 144.42 121.51 145.13 122.00 Z M 145.93 122.54 L 146.73 123.12 C 147.43 123.62 148.41 123.46 148.91 122.75 C 149.41 122.05 149.25 121.08 148.55 120.58 L 147.75 120.00 C 147.05 119.50 146.07 119.66 145.57 120.37 C 145.07 121.07 145.23 122.04 145.93 122.54 Z M 146.71 123.10 L 147.49 123.68 C 148.18 124.19 149.16 124.05 149.68 123.36 C 150.19 122.67 150.05 121.69 149.35 121.17 L 148.57 120.59 C 147.88 120.08 146.90 120.22 146.39 120.92 C 145.87 121.61 146.02 122.59 146.71 123.10 Z M 147.47 123.66 L 148.23 124.25 C 148.91 124.77 149.89 124.65 150.42 123.97 C 150.94 123.28 150.82 122.30 150.13 121.78 L 149.38 121.19 C 148.69 120.66 147.71 120.79 147.19 121.47 C 146.66 122.16 146.79 123.14 147.47 123.66 Z M 148.18 124.21 L 148.93 124.83 C 149.59 125.38 150.58 125.29 151.13 124.63 C 151.68 123.96 151.59 122.98 150.92 122.43 L 150.18 121.81 C 149.51 121.26 148.53 121.35 147.98 122.02 C 147.43 122.68 147.52 123.66 148.18 124.21 Z M 148.87 124.78 L 149.60 125.45 C 150.23 126.04 151.22 126.00 151.80 125.36 C 152.39 124.73 152.35 123.74 151.71 123.16 L 150.99 122.48 C 150.35 121.90 149.36 121.94 148.78 122.57 C 148.19 123.20 148.23 124.19 148.87 124.78 Z M 149.52 125.37 L 150.23 126.12 C 150.82 126.75 151.81 126.78 152.43 126.19 C 153.06 125.60 153.09 124.61 152.50 123.98 L 151.79 123.23 C 151.20 122.61 150.21 122.58 149.59 123.17 C 148.96 123.76 148.93 124.75 149.52 125.37 Z M 150.15 126.03 L 150.80 126.85 C 151.34 127.52 152.32 127.63 153.00 127.09 C 153.67 126.55 153.78 125.57 153.24 124.89 L 152.58 124.08 C 152.04 123.40 151.06 123.30 150.39 123.84 C 149.71 124.38 149.61 125.36 150.15 126.03 Z M 150.73 126.76 L 151.32 127.60 C 151.81 128.31 152.78 128.49 153.49 128.00 C 154.20 127.51 154.38 126.54 153.89 125.83 L 153.30 124.98 C 152.81 124.28 151.84 124.10 151.13 124.59 C 150.42 125.08 150.24 126.05 150.73 126.76 Z M 151.27 127.53 L 151.81 128.42 C 152.25 129.16 153.21 129.39 153.95 128.94 C 154.69 128.50 154.92 127.54 154.48 126.80 L 153.94 125.91 C 153.49 125.17 152.53 124.94 151.79 125.38 C 151.06 125.83 150.82 126.79 151.27 127.53 Z M 151.77 128.35 L 152.25 129.25 C 152.66 130.01 153.60 130.30 154.36 129.89 C 155.12 129.48 155.41 128.54 155.00 127.78 L 154.52 126.87 C 154.11 126.11 153.17 125.83 152.41 126.23 C 151.65 126.64 151.36 127.59 151.77 128.35 Z M 152.21 129.18 L 152.63 130.06 C 153.00 130.84 153.93 131.17 154.71 130.81 C 155.49 130.44 155.82 129.51 155.45 128.73 L 155.04 127.85 C 154.67 127.07 153.74 126.73 152.96 127.10 C 152.18 127.47 151.85 128.40 152.21 129.18 Z M 152.59 129.97 L 152.96 130.89 C 153.28 131.69 154.19 132.08 154.99 131.76 C 155.79 131.44 156.18 130.53 155.86 129.73 L 155.49 128.81 C 155.17 128.01 154.26 127.62 153.46 127.94 C 152.66 128.26 152.27 129.17 152.59 129.97 Z M 152.91 130.76 L 153.23 131.81 C 153.48 132.64 154.35 133.10 155.18 132.85 C 156.01 132.60 156.47 131.73 156.22 130.90 L 155.90 129.86 C 155.65 129.03 154.78 128.56 153.95 128.81 C 153.13 129.06 152.66 129.94 152.91 130.76 Z M 153.19 131.66 L 153.38 132.61 C 153.55 133.46 154.37 134.01 155.22 133.84 C 156.07 133.67 156.62 132.85 156.45 132.00 L 156.26 131.05 C 156.09 130.20 155.27 129.65 154.42 129.82 C 153.57 129.99 153.02 130.82 153.19 131.66 Z M 153.36 132.49 L 153.46 133.39 C 153.57 134.25 154.35 134.87 155.21 134.76 C 156.07 134.66 156.68 133.88 156.58 133.02 L 156.47 132.12 C 156.37 131.26 155.59 130.64 154.73 130.75 C 153.87 130.85 153.25 131.63 153.36 132.49 Z M 153.45 133.33 L 153.53 134.28 C 153.59 135.14 154.35 135.79 155.22 135.73 C 156.08 135.66 156.73 134.90 156.67 134.04 L 156.59 133.08 C 156.52 132.22 155.77 131.57 154.90 131.63 C 154.03 131.70 153.39 132.46 153.45 133.33 Z M 153.52 134.24 L 153.57 135.23 C 153.62 136.10 154.36 136.77 155.23 136.73 C 156.10 136.68 156.77 135.94 156.73 135.06 L 156.67 134.07 C 156.63 133.20 155.88 132.53 155.01 132.58 C 154.14 132.63 153.47 133.37 153.52 134.24 Z M 153.57 135.20 L 153.60 136.21 C 153.63 137.09 154.37 137.77 155.24 137.74 C 156.11 137.71 156.80 136.98 156.77 136.10 L 156.73 135.09 C 156.70 134.22 155.97 133.54 155.09 133.57 C 154.22 133.60 153.54 134.33 153.57 135.20 Z M 153.60 136.19 L 153.62 137.18 C 153.63 138.06 154.36 138.76 155.24 138.74 C 156.12 138.72 156.81 138.00 156.79 137.12 L 156.77 136.13 C 156.76 135.25 156.03 134.55 155.15 134.57 C 154.27 134.59 153.58 135.31 153.60 136.19 Z M 153.61 137.16 L 153.62 138.13 C 153.63 139.01 154.35 139.72 155.22 139.71 C 156.10 139.70 156.81 138.99 156.81 138.11 L 156.80 137.14 C 156.79 136.26 156.07 135.55 155.19 135.56 C 154.31 135.57 153.61 136.28 153.61 137.16 Z M 153.62 138.11 L 153.61 139.11 C 153.60 139.99 154.31 140.71 155.19 140.71 C 156.08 140.72 156.79 140.01 156.80 139.13 L 156.81 138.13 C 156.81 137.25 156.11 136.53 155.22 136.52 C 154.34 136.52 153.62 137.23 153.62 138.11 Z M 153.61 139.08 L 153.58 140.12 C 153.56 141.01 154.26 141.74 155.14 141.76 C 156.03 141.78 156.76 141.08 156.78 140.20 L 156.80 139.15 C 156.82 138.27 156.13 137.54 155.24 137.52 C 154.36 137.50 153.63 138.20 153.61 139.08 Z M 153.58 140.10 L 153.54 141.08 C 153.51 141.96 154.19 142.70 155.08 142.74 C 155.96 142.78 156.70 142.09 156.74 141.21 L 156.78 140.23 C 156.82 139.34 156.13 138.60 155.25 138.56 C 154.36 138.53 153.62 139.21 153.58 140.10 Z M 153.54 141.04 L 153.48 142.04 C 153.43 142.92 154.10 143.68 154.98 143.73 C 155.86 143.79 156.62 143.12 156.68 142.24 L 156.74 141.24 C 156.79 140.36 156.12 139.60 155.24 139.54 C 154.36 139.49 153.60 140.16 153.54 141.04 Z M 153.49 141.99 L 153.39 143.00 C 153.31 143.88 153.96 144.66 154.84 144.74 C 155.72 144.82 156.50 144.17 156.58 143.29 L 156.67 142.28 C 156.75 141.40 156.10 140.62 155.23 140.54 C 154.35 140.46 153.57 141.11 153.49 141.99 Z M 153.40 142.94 L 153.27 143.95 C 153.15 144.82 153.77 145.62 154.65 145.74 C 155.52 145.85 156.32 145.24 156.44 144.36 L 156.57 143.35 C 156.69 142.48 156.07 141.68 155.19 141.56 C 154.32 141.45 153.51 142.06 153.40 142.94 Z M 153.28 143.87 L 153.10 144.85 C 152.95 145.72 153.53 146.55 154.40 146.71 C 155.27 146.86 156.10 146.28 156.25 145.41 L 156.43 144.44 C 156.58 143.57 156.00 142.73 155.14 142.58 C 154.27 142.42 153.43 143.00 153.28 143.87 Z M 153.11 144.78 L 152.90 145.74 C 152.70 146.60 153.25 147.46 154.11 147.66 C 154.97 147.85 155.83 147.31 156.03 146.44 L 156.24 145.48 C 156.44 144.62 155.89 143.76 155.03 143.57 C 154.17 143.37 153.31 143.91 153.11 144.78 Z M 152.91 145.68 L 152.66 146.65 C 152.43 147.50 152.94 148.38 153.80 148.61 C 154.66 148.83 155.54 148.32 155.76 147.46 L 156.02 146.50 C 156.24 145.64 155.73 144.76 154.87 144.54 C 154.01 144.31 153.13 144.83 152.91 145.68 Z M 152.66 146.60 L 152.38 147.58 C 152.13 148.43 152.62 149.33 153.48 149.58 C 154.33 149.82 155.22 149.33 155.47 148.48 L 155.75 147.50 C 156.00 146.65 155.51 145.76 154.66 145.51 C 153.80 145.26 152.91 145.75 152.66 146.60 Z M 152.38 147.56 L 152.10 148.49 C 151.84 149.34 152.31 150.24 153.16 150.50 C 154.01 150.76 154.92 150.29 155.18 149.44 L 155.47 148.50 C 155.73 147.65 155.25 146.75 154.40 146.49 C 153.55 146.23 152.65 146.70 152.38 147.56 Z M 152.10 148.47 L 151.81 149.39 C 151.54 150.24 152.00 151.15 152.85 151.42 C 153.70 151.69 154.61 151.22 154.88 150.37 L 155.17 149.45 C 155.45 148.60 154.98 147.70 154.13 147.42 C 153.28 147.15 152.37 147.62 152.10 148.47 Z M 151.81 149.38 L 151.50 150.33 C 151.22 151.17 151.68 152.08 152.53 152.36 C 153.38 152.64 154.29 152.18 154.57 151.33 L 154.88 150.39 C 155.15 149.54 154.69 148.63 153.85 148.35 C 153.00 148.07 152.09 148.53 151.81 149.38 Z M 151.50 150.32 L 151.18 151.29 C 150.89 152.13 151.35 153.05 152.19 153.33 C 153.04 153.62 153.95 153.16 154.24 152.31 L 154.56 151.34 C 154.85 150.50 154.39 149.58 153.55 149.30 C 152.70 149.02 151.79 149.47 151.50 150.32 Z M 151.18 151.28 L 150.84 152.27 C 150.55 153.11 151.00 154.03 151.85 154.32 C 152.69 154.61 153.61 154.16 153.90 153.31 L 154.24 152.32 C 154.52 151.48 154.07 150.56 153.23 150.27 C 152.38 149.98 151.47 150.44 151.18 151.28 Z M 150.84 152.26 L 150.53 153.17 C 150.24 154.01 150.69 154.93 151.53 155.22 C 152.38 155.51 153.30 155.06 153.59 154.22 L 153.90 153.32 C 154.19 152.47 153.74 151.55 152.90 151.26 C 152.05 150.97 151.13 151.42 150.84 152.26 Z M 150.53 153.16 L 150.21 154.09 C 149.92 154.93 150.37 155.85 151.21 156.14 C 152.05 156.43 152.97 155.98 153.27 155.14 L 153.59 154.22 C 153.88 153.38 153.43 152.46 152.59 152.17 C 151.74 151.87 150.82 152.32 150.53 153.16 Z M 150.21 154.08 L 149.89 155.03 C 149.60 155.87 150.04 156.79 150.88 157.08 C 151.73 157.37 152.65 156.93 152.94 156.09 L 153.27 155.14 C 153.56 154.30 153.11 153.38 152.27 153.09 C 151.43 152.80 150.51 153.24 150.21 154.08 Z M 149.89 155.03 L 149.55 156.00 C 149.26 156.84 149.71 157.76 150.55 158.05 C 151.39 158.34 152.31 157.89 152.61 157.05 L 152.94 156.08 C 153.23 155.24 152.78 154.32 151.94 154.03 C 151.10 153.74 150.18 154.19 149.89 155.03 Z M 149.55 156.00 L 149.21 156.99 C 148.92 157.83 149.37 158.75 150.21 159.04 C 151.06 159.33 151.98 158.88 152.27 158.04 L 152.61 157.05 C 152.90 156.20 152.45 155.29 151.60 155.00 C 150.76 154.71 149.84 155.15 149.55 156.00 Z M 149.21 156.99 L 148.90 157.90 C 148.61 158.74 149.07 159.66 149.91 159.95 C 150.75 160.23 151.67 159.78 151.96 158.94 L 152.27 158.03 C 152.55 157.19 152.10 156.27 151.26 155.98 C 150.42 155.70 149.50 156.15 149.21 156.99 Z M 148.90 157.90 L 148.59 158.81 C 148.31 159.66 148.76 160.57 149.60 160.86 C 150.45 161.14 151.36 160.69 151.65 159.85 L 151.96 158.94 C 152.24 158.09 151.79 157.18 150.95 156.89 C 150.10 156.61 149.19 157.06 148.90 157.90 Z M 148.59 158.82 L 148.28 159.75 C 147.99 160.59 148.45 161.51 149.29 161.79 C 150.14 162.07 151.05 161.62 151.33 160.78 L 151.65 159.85 C 151.93 159.00 151.48 158.09 150.64 157.80 C 149.79 157.52 148.88 157.97 148.59 158.82 Z M 148.28 159.75 L 147.96 160.70 C 147.67 161.55 148.13 162.46 148.97 162.74 C 149.81 163.03 150.73 162.58 151.01 161.73 L 151.33 160.78 C 151.62 159.93 151.17 159.02 150.32 158.74 C 149.48 158.45 148.56 158.90 148.28 159.75 Z M 147.96 160.70 L 147.63 161.68 C 147.34 162.52 147.80 163.44 148.64 163.72 C 149.48 164.01 150.40 163.55 150.68 162.71 L 151.01 161.73 C 151.30 160.89 150.84 159.98 150.00 159.69 C 149.16 159.41 148.24 159.86 147.96 160.70 Z M 147.63 161.68 L 147.29 162.68 C 147.00 163.52 147.45 164.44 148.30 164.72 C 149.14 165.01 150.05 164.56 150.34 163.72 L 150.68 162.71 C 150.97 161.87 150.51 160.96 149.67 160.67 C 148.83 160.38 147.92 160.84 147.63 161.68 Z M 147.29 162.68 L 146.99 163.57 C 146.70 164.41 147.15 165.32 147.99 165.61 C 148.83 165.90 149.75 165.45 150.03 164.61 L 150.34 163.72 C 150.63 162.88 150.18 161.96 149.33 161.67 C 148.49 161.39 147.58 161.84 147.29 162.68 Z M 146.99 163.56 L 146.68 164.46 C 146.39 165.30 146.84 166.22 147.68 166.51 C 148.52 166.80 149.44 166.35 149.72 165.51 L 150.03 164.61 C 150.32 163.77 149.88 162.85 149.03 162.56 C 148.19 162.28 147.28 162.72 146.99 163.56 Z M 146.68 164.46 L 146.36 165.38 C 146.07 166.22 146.51 167.14 147.36 167.43 C 148.20 167.72 149.11 167.27 149.40 166.43 L 149.72 165.51 C 150.01 164.67 149.57 163.76 148.73 163.46 C 147.89 163.17 146.97 163.62 146.68 164.46 Z M 146.36 165.37 L 146.03 166.31 C 145.74 167.15 146.18 168.07 147.02 168.37 C 147.86 168.66 148.78 168.22 149.07 167.38 L 149.40 166.44 C 149.70 165.60 149.25 164.68 148.42 164.38 C 147.58 164.09 146.66 164.53 146.36 165.37 Z M 146.03 166.31 L 145.69 167.27 C 145.40 168.11 145.84 169.03 146.68 169.33 C 147.51 169.63 148.44 169.19 148.73 168.35 L 149.07 167.38 C 149.37 166.54 148.93 165.62 148.09 165.33 C 147.25 165.03 146.33 165.47 146.03 166.31 Z M 145.70 167.27 L 145.34 168.25 C 145.04 169.09 145.48 170.01 146.32 170.31 C 147.16 170.61 148.08 170.18 148.38 169.34 L 148.73 168.35 C 149.03 167.51 148.59 166.59 147.76 166.29 C 146.92 165.99 146.00 166.43 145.70 167.27 Z M 145.34 168.25 L 144.98 169.26 C 144.68 170.10 145.11 171.02 145.95 171.32 C 146.78 171.63 147.71 171.19 148.01 170.36 L 148.38 169.34 C 148.68 168.51 148.25 167.58 147.41 167.28 C 146.57 166.98 145.65 167.41 145.34 168.25 Z M 144.98 169.25 L 144.65 170.17 C 144.34 171.00 144.77 171.93 145.60 172.23 C 146.44 172.54 147.37 172.11 147.67 171.28 L 148.01 170.36 C 148.31 169.53 147.88 168.60 147.05 168.29 C 146.21 167.99 145.29 168.42 144.98 169.25 Z M 144.65 170.16 L 144.30 171.09 C 143.99 171.92 144.42 172.85 145.25 173.16 C 146.09 173.47 147.02 173.04 147.32 172.21 L 147.67 171.28 C 147.98 170.45 147.55 169.52 146.72 169.21 C 145.89 168.90 144.96 169.33 144.65 170.16 Z M 144.31 171.08 L 143.95 172.02 C 143.64 172.85 144.06 173.78 144.89 174.09 C 145.73 174.41 146.66 173.99 146.97 173.15 L 147.32 172.22 C 147.63 171.38 147.21 170.46 146.38 170.14 C 145.55 169.83 144.62 170.25 144.31 171.08 Z M 143.96 172.01 L 143.60 172.96 C 143.28 173.79 143.70 174.72 144.53 175.03 C 145.36 175.35 146.29 174.94 146.60 174.11 L 146.96 173.16 C 147.28 172.33 146.87 171.40 146.04 171.08 C 145.21 170.77 144.28 171.18 143.96 172.01 Z M 143.60 172.95 L 143.24 173.89 C 142.91 174.72 143.32 175.65 144.15 175.97 C 144.98 176.30 145.91 175.89 146.23 175.06 L 146.60 174.11 C 146.92 173.29 146.51 172.35 145.68 172.03 C 144.86 171.71 143.92 172.12 143.60 172.95 Z M 143.24 173.88 L 142.87 174.82 C 142.54 175.65 142.95 176.58 143.77 176.91 C 144.60 177.24 145.53 176.83 145.86 176.01 L 146.23 175.07 C 146.56 174.24 146.15 173.31 145.33 172.98 C 144.50 172.65 143.57 173.06 143.24 173.88 Z M 142.87 174.81 L 142.50 175.75 C 142.16 176.57 142.56 177.51 143.38 177.84 C 144.21 178.17 145.14 177.77 145.48 176.95 L 145.85 176.02 C 146.18 175.19 145.79 174.26 144.96 173.93 C 144.14 173.59 143.20 173.99 142.87 174.81 Z M 142.50 175.73 L 142.12 176.66 C 141.78 177.48 142.17 178.42 142.99 178.75 C 143.81 179.09 144.75 178.70 145.09 177.88 L 145.47 176.96 C 145.81 176.14 145.42 175.20 144.60 174.86 C 143.78 174.52 142.84 174.91 142.50 175.73 Z M 142.13 176.64 L 141.73 177.58 C 141.39 178.39 141.77 179.34 142.58 179.68 C 143.40 180.03 144.34 179.65 144.69 178.83 L 145.08 177.90 C 145.43 177.08 145.05 176.14 144.23 175.79 C 143.41 175.45 142.47 175.83 142.13 176.64 Z M 141.74 177.56 L 141.34 178.48 C 140.98 179.30 141.36 180.24 142.17 180.60 C 142.98 180.95 143.93 180.58 144.28 179.76 L 144.68 178.84 C 145.04 178.03 144.66 177.08 143.85 176.73 C 143.04 176.38 142.09 176.75 141.74 177.56 Z M 141.34 178.47 L 140.94 179.38 C 140.58 180.19 140.94 181.14 141.75 181.50 C 142.56 181.86 143.51 181.50 143.87 180.68 L 144.28 179.78 C 144.64 178.97 144.28 178.02 143.46 177.65 C 142.65 177.29 141.70 177.66 141.34 178.47 Z M 140.94 179.36 L 140.53 180.26 C 140.16 181.07 140.52 182.02 141.33 182.39 C 142.13 182.76 143.09 182.41 143.46 181.60 L 143.87 180.70 C 144.24 179.89 143.88 178.94 143.07 178.57 C 142.27 178.20 141.31 178.55 140.94 179.36 Z M 140.54 180.25 L 140.12 181.15 C 139.74 181.95 140.09 182.91 140.89 183.29 C 141.70 183.66 142.65 183.32 143.03 182.51 L 143.45 181.61 C 143.83 180.81 143.48 179.85 142.68 179.47 C 141.87 179.10 140.91 179.44 140.54 180.25 Z M 140.12 181.13 L 139.69 182.03 C 139.31 182.83 139.65 183.79 140.45 184.18 C 141.25 184.56 142.21 184.22 142.60 183.42 L 143.03 182.52 C 143.41 181.72 143.07 180.76 142.27 180.38 C 141.47 179.99 140.51 180.33 140.12 181.13 Z M 139.70 182.02 L 139.26 182.92 C 138.87 183.72 139.20 184.68 139.99 185.07 C 140.79 185.47 141.76 185.14 142.15 184.34 L 142.59 183.44 C 142.98 182.64 142.65 181.67 141.85 181.28 C 141.05 180.89 140.09 181.22 139.70 182.02 Z M 139.26 182.91 L 138.82 183.79 C 138.42 184.58 138.75 185.55 139.54 185.95 C 140.34 186.35 141.30 186.02 141.70 185.23 L 142.14 184.35 C 142.54 183.55 142.22 182.59 141.42 182.19 C 140.63 181.79 139.66 182.11 139.26 182.91 Z M 138.83 183.78 L 138.39 184.64 C 137.98 185.43 138.30 186.40 139.09 186.81 C 139.88 187.21 140.85 186.90 141.26 186.10 L 141.70 185.24 C 142.10 184.45 141.79 183.48 140.99 183.07 C 140.20 182.67 139.23 182.98 138.83 183.78 Z M 138.39 184.63 L 137.94 185.50 C 137.53 186.29 137.84 187.27 138.63 187.68 C 139.42 188.09 140.39 187.78 140.80 186.99 L 141.25 186.11 C 141.66 185.32 141.35 184.35 140.56 183.94 C 139.77 183.53 138.80 183.84 138.39 184.63 Z M 137.94 185.49 L 137.48 186.37 C 137.07 187.16 137.37 188.14 138.16 188.55 C 138.95 188.97 139.92 188.66 140.34 187.87 L 140.80 186.99 C 141.21 186.21 140.91 185.23 140.12 184.82 C 139.33 184.40 138.36 184.71 137.94 185.49 Z M 137.48 186.36 L 137.01 187.25 C 136.59 188.04 136.89 189.01 137.68 189.43 C 138.47 189.85 139.44 189.55 139.86 188.77 L 140.33 187.88 C 140.75 187.09 140.45 186.12 139.67 185.70 C 138.88 185.28 137.90 185.58 137.48 186.36 Z M 137.02 187.24 L 136.54 188.13 C 136.11 188.92 136.41 189.90 137.19 190.32 C 137.98 190.74 138.96 190.45 139.38 189.66 L 139.86 188.77 C 140.28 187.99 139.99 187.01 139.20 186.59 C 138.42 186.16 137.44 186.46 137.02 187.24 Z M 136.54 188.12 L 136.05 189.02 C 135.62 189.80 135.91 190.79 136.70 191.21 C 137.48 191.64 138.46 191.35 138.89 190.57 L 139.38 189.67 C 139.80 188.89 139.52 187.91 138.73 187.48 C 137.95 187.05 136.97 187.34 136.54 188.12 Z M 136.05 189.01 L 135.56 189.92 C 135.13 190.70 135.41 191.68 136.20 192.11 C 136.98 192.54 137.96 192.26 138.39 191.47 L 138.89 190.57 C 139.32 189.79 139.03 188.81 138.25 188.38 C 137.47 187.95 136.48 188.23 136.05 189.01 Z M 135.56 189.91 L 135.07 190.79 C 134.64 191.57 134.92 192.55 135.70 192.99 C 136.49 193.42 137.47 193.14 137.90 192.36 L 138.39 191.48 C 138.82 190.70 138.54 189.71 137.76 189.28 C 136.98 188.85 135.99 189.13 135.56 189.91 Z M 135.07 190.78 L 134.60 191.64 C 134.16 192.42 134.44 193.40 135.22 193.84 C 136.00 194.28 136.99 194.00 137.43 193.22 L 137.90 192.36 C 138.34 191.58 138.06 190.59 137.28 190.16 C 136.50 189.72 135.51 190.00 135.07 190.78 Z M 134.60 191.63 L 134.12 192.49 C 133.68 193.27 133.95 194.26 134.73 194.70 C 135.52 195.14 136.50 194.86 136.94 194.08 L 137.43 193.22 C 137.87 192.44 137.59 191.45 136.81 191.01 C 136.03 190.57 135.04 190.85 134.60 191.63 Z M 134.12 192.48 L 133.63 193.34 C 133.19 194.12 133.46 195.12 134.24 195.56 C 135.02 196.00 136.01 195.73 136.45 194.95 L 136.94 194.08 C 137.39 193.30 137.11 192.31 136.33 191.87 C 135.55 191.43 134.56 191.70 134.12 192.48 Z M 133.63 193.34 L 133.13 194.20 C 132.69 194.98 132.96 195.98 133.74 196.42 C 134.52 196.87 135.51 196.60 135.96 195.82 L 136.45 194.95 C 136.90 194.17 136.63 193.18 135.85 192.73 C 135.07 192.29 134.07 192.56 133.63 193.34 Z M 133.14 194.20 L 132.63 195.07 C 132.19 195.85 132.45 196.84 133.23 197.29 C 134.01 197.74 135.01 197.47 135.46 196.69 L 135.96 195.82 C 136.41 195.04 136.14 194.05 135.36 193.60 C 134.58 193.15 133.58 193.42 133.14 194.20 Z M 132.64 195.06 L 132.13 195.94 C 131.68 196.72 131.94 197.72 132.72 198.17 C 133.50 198.62 134.50 198.35 134.95 197.57 L 135.46 196.70 C 135.91 195.92 135.64 194.92 134.86 194.47 C 134.08 194.02 133.09 194.28 132.64 195.06 Z M 132.13 195.93 L 131.62 196.81 C 131.16 197.59 131.42 198.59 132.20 199.05 C 132.98 199.50 133.98 199.24 134.44 198.46 L 134.95 197.58 C 135.40 196.80 135.14 195.80 134.36 195.35 C 133.58 194.89 132.58 195.15 132.13 195.93 Z M 131.62 196.81 L 131.10 197.69 C 130.64 198.47 130.90 199.47 131.68 199.93 C 132.45 200.39 133.46 200.13 133.91 199.35 L 134.43 198.47 C 134.89 197.69 134.63 196.69 133.85 196.23 C 133.08 195.77 132.07 196.03 131.62 196.81 Z M 131.10 197.69 L 130.60 198.53 C 130.14 199.31 130.39 200.31 131.17 200.77 C 131.95 201.23 132.95 200.97 133.41 200.20 L 133.91 199.36 C 134.37 198.58 134.12 197.57 133.34 197.11 C 132.56 196.65 131.56 196.91 131.10 197.69 Z M 130.60 198.52 L 130.10 199.37 C 129.64 200.14 129.89 201.15 130.67 201.61 C 131.44 202.07 132.45 201.82 132.91 201.04 L 133.41 200.20 C 133.87 199.42 133.62 198.42 132.84 197.96 C 132.07 197.49 131.06 197.75 130.60 198.52 Z M 130.10 199.36 L 129.59 200.21 C 129.13 200.99 129.38 201.99 130.16 202.45 C 130.94 202.92 131.94 202.66 132.40 201.89 L 132.91 201.04 C 133.37 200.27 133.12 199.26 132.34 198.80 C 131.57 198.33 130.56 198.59 130.10 199.36 Z M 129.59 200.21 L 129.09 201.06 C 128.62 201.84 128.87 202.84 129.65 203.31 C 130.43 203.77 131.43 203.52 131.90 202.74 L 132.40 201.89 C 132.87 201.11 132.62 200.11 131.84 199.64 C 131.06 199.18 130.06 199.43 129.59 200.21 Z M 129.08 201.06 L 128.57 201.92 C 128.11 202.70 128.36 203.70 129.14 204.16 C 129.92 204.63 130.92 204.37 131.38 203.60 L 131.90 202.74 C 132.36 201.96 132.11 200.96 131.33 200.50 C 130.55 200.03 129.55 200.29 129.08 201.06 Z M 128.57 201.92 L 128.06 202.79 C 127.59 203.56 127.85 204.57 128.63 205.03 C 129.40 205.49 130.41 205.24 130.87 204.46 L 131.38 203.60 C 131.85 202.82 131.59 201.81 130.82 201.35 C 130.04 200.89 129.03 201.15 128.57 201.92 Z M 128.05 202.79 L 127.54 203.66 C 127.08 204.44 127.34 205.44 128.11 205.90 C 128.89 206.36 129.90 206.11 130.36 205.33 L 130.87 204.46 C 131.33 203.68 131.08 202.68 130.30 202.21 C 129.52 201.75 128.52 202.01 128.05 202.79 Z M 127.54 203.67 L 127.02 204.54 C 126.56 205.32 126.82 206.33 127.60 206.79 C 128.38 207.24 129.39 206.98 129.84 206.20 L 130.36 205.32 C 130.82 204.54 130.56 203.54 129.78 203.08 C 129.00 202.62 127.99 202.89 127.54 203.67 Z M 127.02 204.55 L 126.50 205.44 C 126.05 206.22 126.31 207.22 127.09 207.67 C 127.87 208.13 128.88 207.86 129.33 207.08 L 129.85 206.20 C 130.30 205.42 130.04 204.41 129.26 203.96 C 128.47 203.50 127.47 203.77 127.02 204.55 Z M 126.50 205.44 L 126.00 206.30 C 125.55 207.08 125.82 208.08 126.61 208.53 C 127.39 208.98 128.39 208.71 128.85 207.93 L 129.34 207.08 C 129.79 206.29 129.52 205.29 128.73 204.84 C 127.95 204.39 126.95 204.66 126.50 205.44 Z M 126.00 206.30 L 125.52 207.15 C 125.07 207.94 125.34 208.94 126.13 209.39 C 126.92 209.83 127.92 209.56 128.37 208.77 L 128.85 207.92 C 129.30 207.14 129.02 206.14 128.24 205.69 C 127.45 205.24 126.45 205.51 126.00 206.30 Z M 125.51 207.15 L 125.03 208.01 C 124.58 208.80 124.86 209.80 125.65 210.25 C 126.44 210.69 127.44 210.41 127.89 209.62 L 128.37 208.77 C 128.82 207.98 128.54 206.98 127.75 206.53 C 126.96 206.09 125.96 206.37 125.51 207.15 Z M 125.03 208.01 L 124.54 208.88 C 124.10 209.67 124.38 210.67 125.17 211.11 C 125.97 211.56 126.97 211.27 127.41 210.48 L 127.89 209.62 C 128.34 208.83 128.05 207.83 127.26 207.38 C 126.47 206.94 125.47 207.22 125.03 208.01 Z M 124.54 208.88 L 124.06 209.75 C 123.61 210.54 123.90 211.54 124.69 211.99 C 125.49 212.43 126.49 212.14 126.93 211.35 L 127.41 210.48 C 127.86 209.69 127.57 208.68 126.78 208.24 C 125.98 207.80 124.98 208.09 124.54 208.88 Z M 124.05 209.75 L 123.57 210.63 C 123.13 211.42 123.41 212.43 124.21 212.87 C 125.01 213.31 126.01 213.02 126.45 212.22 L 126.93 211.35 C 127.37 210.55 127.09 209.55 126.29 209.11 C 125.49 208.67 124.49 208.96 124.05 209.75 Z M 123.56 210.63 L 123.08 211.51 C 122.64 212.31 122.93 213.31 123.72 213.75 C 124.52 214.19 125.52 213.90 125.96 213.10 L 126.45 212.22 C 126.89 211.42 126.60 210.42 125.80 209.98 C 125.01 209.54 124.00 209.83 123.56 210.63 Z M 123.07 211.51 L 122.59 212.40 C 122.15 213.20 122.44 214.21 123.24 214.64 C 124.04 215.08 125.04 214.79 125.48 213.99 L 125.97 213.10 C 126.41 212.30 126.11 211.30 125.32 210.86 C 124.52 210.42 123.51 210.71 123.07 211.51 Z M 122.58 212.40 L 122.09 213.30 C 121.65 214.10 121.94 215.10 122.74 215.54 C 123.54 215.98 124.55 215.69 124.99 214.89 L 125.48 213.99 C 125.92 213.19 125.63 212.19 124.83 211.75 C 124.03 211.31 123.02 211.60 122.58 212.40 Z M 122.09 213.30 L 121.59 214.20 C 121.15 215.01 121.45 216.01 122.25 216.45 C 123.05 216.89 124.05 216.60 124.49 215.80 L 124.99 214.89 C 125.43 214.09 125.13 213.09 124.33 212.65 C 123.53 212.21 122.53 212.50 122.09 213.30 Z M 121.59 214.20 L 121.10 215.11 C 120.66 215.91 120.95 216.91 121.75 217.35 C 122.55 217.79 123.56 217.50 124.00 216.70 L 124.49 215.80 C 124.93 214.99 124.64 213.99 123.84 213.55 C 123.04 213.11 122.03 213.40 121.59 214.20 Z M 121.10 215.10 L 120.60 216.01 C 120.16 216.81 120.45 217.82 121.26 218.26 C 122.06 218.70 123.06 218.40 123.50 217.60 L 124.00 216.70 C 124.44 215.90 124.15 214.89 123.34 214.45 C 122.54 214.01 121.54 214.30 121.10 215.10 Z M 120.60 216.01 L 120.11 216.91 C 119.67 217.71 119.96 218.72 120.76 219.16 C 121.56 219.60 122.57 219.31 123.01 218.51 L 123.50 217.60 C 123.94 216.80 123.65 215.79 122.85 215.36 C 122.05 214.92 121.04 215.21 120.60 216.01 Z M 120.10 216.91 L 119.61 217.82 C 119.17 218.62 119.46 219.62 120.27 220.06 C 121.07 220.50 122.07 220.21 122.51 219.41 L 123.01 218.51 C 123.45 217.70 123.15 216.70 122.35 216.26 C 121.55 215.82 120.54 216.11 120.10 216.91 Z M 119.61 217.82 L 119.12 218.71 C 118.68 219.51 118.98 220.52 119.78 220.96 C 120.58 221.40 121.58 221.10 122.02 220.30 L 122.51 219.41 C 122.95 218.60 122.66 217.60 121.86 217.16 C 121.05 216.72 120.05 217.02 119.61 217.82 Z M 119.12 218.71 L 118.64 219.60 C 118.20 220.40 118.49 221.40 119.30 221.84 C 120.10 222.28 121.10 221.98 121.54 221.18 L 122.02 220.30 C 122.46 219.50 122.17 218.49 121.36 218.05 C 120.56 217.62 119.56 217.91 119.12 218.71 Z M 118.64 219.60 L 118.16 220.47 C 117.72 221.27 118.02 222.28 118.82 222.71 C 119.62 223.15 120.63 222.85 121.07 222.05 L 121.54 221.18 C 121.98 220.38 121.68 219.37 120.88 218.94 C 120.08 218.50 119.07 218.80 118.64 219.60 Z M 118.16 220.47 L 117.70 221.33 C 117.26 222.13 117.56 223.13 118.36 223.57 C 119.16 224.01 120.17 223.71 120.60 222.90 L 121.07 222.05 C 121.50 221.25 121.21 220.24 120.40 219.81 C 119.60 219.37 118.60 219.67 118.16 220.47 Z M 117.69 221.33 L 117.24 222.16 C 116.81 222.97 117.11 223.97 117.91 224.40 C 118.71 224.84 119.72 224.54 120.15 223.74 L 120.60 222.90 C 121.04 222.10 120.74 221.09 119.94 220.66 C 119.13 220.23 118.13 220.52 117.69 221.33 Z M 117.24 222.16 L 116.78 223.02 C 116.35 223.82 116.65 224.83 117.45 225.26 C 118.26 225.69 119.26 225.39 119.69 224.59 L 120.16 223.73 C 120.59 222.93 120.29 221.93 119.48 221.49 C 118.68 221.06 117.67 221.36 117.24 222.16 Z M 116.78 223.02 L 116.25 224.01 C 115.82 224.82 116.12 225.82 116.93 226.25 C 117.73 226.68 118.74 226.38 119.17 225.57 L 119.70 224.59 C 120.13 223.78 119.83 222.78 119.02 222.34 C 118.21 221.91 117.21 222.22 116.78 223.02 Z M 116.24 224.01 L 115.74 224.96 C 115.31 225.77 115.62 226.78 116.43 227.21 C 117.24 227.64 118.24 227.33 118.67 226.52 L 119.17 225.57 C 119.60 224.76 119.30 223.76 118.49 223.33 C 117.68 222.90 116.67 223.21 116.24 224.01 Z M 115.74 224.97 L 115.25 225.88 C 114.83 226.69 115.14 227.70 115.95 228.13 C 116.76 228.55 117.76 228.24 118.19 227.43 L 118.67 226.52 C 119.10 225.71 118.79 224.70 117.98 224.27 C 117.17 223.85 116.16 224.16 115.74 224.97 Z M 115.25 225.89 L 114.79 226.77 C 114.36 227.58 114.67 228.59 115.49 229.01 C 116.30 229.44 117.31 229.13 117.73 228.31 L 118.20 227.43 C 118.62 226.62 118.31 225.61 117.49 225.18 C 116.68 224.76 115.68 225.07 115.25 225.89 Z M 114.78 226.77 L 114.34 227.63 C 113.91 228.44 114.23 229.45 115.05 229.87 C 115.86 230.30 116.87 229.98 117.29 229.16 L 117.74 228.31 C 118.16 227.49 117.84 226.49 117.03 226.06 C 116.21 225.64 115.21 225.96 114.78 226.77 Z M 114.33 227.63 L 113.91 228.46 C 113.48 229.28 113.80 230.28 114.62 230.71 C 115.44 231.13 116.45 230.81 116.87 229.99 L 117.30 229.16 C 117.72 228.34 117.40 227.34 116.58 226.91 C 115.76 226.49 114.76 226.81 114.33 227.63 Z M 113.90 228.46 L 113.49 229.27 C 113.07 230.09 113.39 231.09 114.21 231.52 C 115.03 231.94 116.04 231.61 116.46 230.79 L 116.87 229.99 C 117.29 229.17 116.97 228.16 116.15 227.74 C 115.33 227.32 114.32 227.64 113.90 228.46 Z M 113.48 229.27 L 113.04 230.14 C 112.62 230.96 112.95 231.97 113.77 232.39 C 114.59 232.81 115.60 232.48 116.02 231.66 L 116.46 230.79 C 116.88 229.97 116.55 228.96 115.73 228.54 C 114.91 228.12 113.90 228.45 113.48 229.27 Z M 113.04 230.15 L 112.55 231.10 C 112.14 231.92 112.46 232.93 113.29 233.35 C 114.11 233.76 115.12 233.43 115.54 232.61 L 116.02 231.66 C 116.44 230.84 116.11 229.83 115.28 229.41 C 114.46 228.99 113.45 229.32 113.04 230.15 Z M 112.55 231.10 L 112.09 232.03 C 111.67 232.86 112.00 233.86 112.83 234.27 C 113.65 234.69 114.66 234.36 115.07 233.53 L 115.54 232.61 C 115.95 231.78 115.62 230.78 114.79 230.36 C 113.97 229.95 112.97 230.28 112.55 231.10 Z M 112.08 232.04 L 111.64 232.94 C 111.22 233.76 111.56 234.77 112.39 235.18 C 113.22 235.59 114.22 235.25 114.63 234.42 L 115.08 233.52 C 115.49 232.70 115.15 231.69 114.32 231.28 C 113.50 230.87 112.49 231.21 112.08 232.04 Z M 111.63 232.95 L 111.20 233.82 C 110.80 234.65 111.14 235.65 111.97 236.06 C 112.80 236.46 113.80 236.12 114.21 235.29 L 114.63 234.42 C 115.04 233.59 114.70 232.59 113.87 232.18 C 113.04 231.77 112.04 232.12 111.63 232.95 Z M 111.20 233.83 L 110.79 234.68 C 110.39 235.51 110.74 236.51 111.57 236.91 C 112.40 237.31 113.40 236.96 113.80 236.13 L 114.21 235.28 C 114.61 234.45 114.26 233.45 113.43 233.05 C 112.60 232.65 111.60 233.00 111.20 233.83 Z M 110.78 234.69 L 110.38 235.54 C 109.99 236.38 110.35 237.37 111.19 237.77 C 112.02 238.16 113.02 237.80 113.41 236.97 L 113.81 236.12 C 114.20 235.28 113.84 234.29 113.01 233.89 C 112.17 233.50 111.18 233.86 110.78 234.69 Z M 110.38 235.56 L 109.96 236.47 C 109.58 237.31 109.94 238.30 110.79 238.69 C 111.63 239.07 112.62 238.70 113.00 237.86 L 113.42 236.95 C 113.80 236.11 113.43 235.12 112.59 234.73 C 111.75 234.35 110.76 234.72 110.38 235.56 Z M 109.95 236.49 L 109.55 237.39 C 109.18 238.24 109.56 239.23 110.41 239.60 C 111.26 239.97 112.25 239.59 112.62 238.74 L 113.02 237.84 C 113.39 236.99 113.00 236.00 112.15 235.63 C 111.31 235.26 110.32 235.64 109.95 236.49 Z M 109.54 237.42 L 109.16 238.32 C 108.80 239.18 109.21 240.16 110.06 240.52 C 110.92 240.87 111.90 240.47 112.26 239.61 L 112.64 238.71 C 112.99 237.86 112.59 236.87 111.73 236.51 C 110.88 236.16 109.89 236.56 109.54 237.42 Z M 109.14 238.35 L 108.78 239.28 C 108.44 240.14 108.86 241.12 109.73 241.46 C 110.59 241.80 111.57 241.37 111.91 240.51 L 112.27 239.58 C 112.61 238.72 112.19 237.74 111.32 237.40 C 110.46 237.06 109.48 237.49 109.14 238.35 Z M 108.76 239.31 L 108.41 240.27 C 108.09 241.14 108.53 242.11 109.41 242.43 C 110.28 242.76 111.25 242.31 111.57 241.44 L 111.93 240.48 C 112.25 239.60 111.80 238.63 110.93 238.31 C 110.05 237.99 109.09 238.44 108.76 239.31 Z M 108.40 240.30 L 108.07 241.26 C 107.76 242.14 108.23 243.10 109.11 243.41 C 109.99 243.71 110.95 243.24 111.25 242.36 L 111.58 241.40 C 111.89 240.52 111.42 239.56 110.54 239.26 C 109.66 238.95 108.70 239.42 108.40 240.30 Z M 108.06 241.29 L 107.74 242.26 C 107.45 243.15 107.94 244.10 108.83 244.39 C 109.71 244.67 110.66 244.19 110.95 243.30 L 111.26 242.33 C 111.55 241.44 111.06 240.49 110.18 240.21 C 109.29 239.92 108.34 240.41 108.06 241.29 Z M 107.73 242.30 L 107.43 243.29 C 107.16 244.18 107.67 245.12 108.56 245.39 C 109.45 245.65 110.39 245.15 110.66 244.26 L 110.96 243.27 C 111.23 242.38 110.72 241.44 109.83 241.17 C 108.94 240.90 108.00 241.41 107.73 242.30 Z M 107.42 243.32 L 107.15 244.30 C 106.90 245.20 107.42 246.13 108.32 246.38 C 109.21 246.63 110.14 246.11 110.39 245.21 L 110.67 244.23 C 110.92 243.33 110.40 242.40 109.50 242.15 C 108.60 241.90 107.68 242.42 107.42 243.32 Z M 107.14 244.34 L 106.89 245.31 C 106.66 246.21 107.21 247.12 108.11 247.35 C 109.01 247.58 109.93 247.04 110.16 246.14 L 110.40 245.18 C 110.63 244.27 110.09 243.36 109.19 243.13 C 108.29 242.90 107.37 243.44 107.14 244.34 Z M 106.88 245.35 L 106.67 246.28 C 106.47 247.18 107.04 248.08 107.94 248.29 C 108.85 248.49 109.75 247.93 109.96 247.02 L 110.17 246.10 C 110.37 245.19 109.80 244.29 108.90 244.08 C 107.99 243.88 107.09 244.44 106.88 245.35 Z M 106.66 246.34 L 106.46 247.40 C 106.29 248.31 106.89 249.19 107.80 249.37 C 108.71 249.54 109.59 248.94 109.77 248.03 L 109.97 246.96 C 110.14 246.05 109.54 245.17 108.63 244.99 C 107.71 244.82 106.83 245.42 106.66 246.34 Z M 106.45 247.47 L 106.30 248.51 C 106.17 249.43 106.80 250.28 107.72 250.42 C 108.64 250.55 109.49 249.91 109.63 248.99 L 109.78 247.95 C 109.91 247.04 109.27 246.18 108.35 246.05 C 107.44 245.92 106.58 246.55 106.45 247.47 Z M 106.29 248.58 L 106.19 249.55 C 106.09 250.47 106.76 251.30 107.68 251.39 C 108.61 251.49 109.43 250.82 109.53 249.90 L 109.63 248.93 C 109.73 248.01 109.06 247.18 108.14 247.08 C 107.22 246.98 106.39 247.65 106.29 248.58 Z M 106.19 249.59 L 106.11 250.52 C 106.04 251.45 106.73 252.25 107.66 252.33 C 108.58 252.40 109.39 251.71 109.46 250.78 L 109.53 249.86 C 109.61 248.93 108.92 248.12 107.99 248.05 C 107.07 247.98 106.26 248.67 106.19 249.59 Z M 106.11 250.54 L 106.07 251.23 C 106.01 252.15 106.71 252.95 107.63 253.01 C 108.56 253.07 109.35 252.38 109.42 251.45 L 109.46 250.76 C 109.52 249.84 108.82 249.04 107.90 248.98 C 106.97 248.92 106.18 249.62 106.11 250.54 Z"
      fill="black"
      fill-rule="nonzero" /></svg>